  0
SECTION
  2
HEADER
  9
$ACADVER
  1
AC1024
  9
$ACADMAINTVER
 70
     6
  9
$DWGCODEPAGE
  3
UNDEFINED
  9
$INSBASE
 10
0.0
 20
0.0
 30
0.0
  9
$EXTMIN
 10
1.000000000000000E+20
 20
1.000000000000000E+20
 30
1.000000000000000E+20
  9
$EXTMAX
 10
-1.000000000000000E+20
 20
-1.000000000000000E+20
 30
-1.000000000000000E+20
  9
$LIMMIN
 10
0.0
 20
0.0
  9
$LIMMAX
 10
12.0
 20
9.0
  9
$ORTHOMODE
 70
     0
  9
$REGENMODE
 70
     1
  9
$FILLMODE
 70
     1
  9
$QTEXTMODE
 70
     0
  9
$MIRRTEXT
 70
     1
  9
$LTSCALE
 40
1.0
  9
$ATTMODE
 70
     1
  9
$TEXTSIZE
 40
0.2
  9
$TRACEWID
 40
0.05
  9
$TEXTSTYLE
  7
Standard
  9
$CLAYER
  8
0
  9
$CELTYPE
  6
ByLayer
  9
$CECOLOR
 62
   256
  9
$CELTSCALE
 40
1.0
  9
$DISPSILH
 70
     0
  9
$DIMSCALE
 40
1.0
  9
$DIMASZ
 40
0.18
  9
$DIMEXO
 40
0.0625
  9
$DIMDLI
 40
0.38
  9
$DIMRND
 40
0.0
  9
$DIMDLE
 40
0.0
  9
$DIMEXE
 40
0.18
  9
$DIMTP
 40
0.0
  9
$DIMTM
 40
0.0
  9
$DIMTXT
 40
0.18
  9
$DIMCEN
 40
0.09
  9
$DIMTSZ
 40
0.0
  9
$DIMTOL
 70
     0
  9
$DIMLIM
 70
     0
  9
$DIMTIH
 70
     1
  9
$DIMTOH
 70
     1
  9
$DIMSE1
 70
     0
  9
$DIMSE2
 70
     0
  9
$DIMTAD
 70
     0
  9
$DIMZIN
 70
     0
  9
$DIMBLK
  1

  9
$DIMASO
 70
     1
  9
$DIMSHO
 70
     1
  9
$DIMPOST
  1

  9
$DIMAPOST
  1

  9
$DIMALT
 70
     0
  9
$DIMALTD
 70
     2
  9
$DIMALTF
 40
25.4
  9
$DIMLFAC
 40
1.0
  9
$DIMTOFL
 70
     0
  9
$DIMTVP
 40
0.0
  9
$DIMTIX
 70
     0
  9
$DIMSOXD
 70
     0
  9
$DIMSAH
 70
     0
  9
$DIMBLK1
  1

  9
$DIMBLK2
  1

  9
$DIMSTYLE
  2
Standard
  9
$DIMCLRD
 70
     0
  9
$DIMCLRE
 70
     0
  9
$DIMCLRT
 70
     0
  9
$DIMTFAC
 40
1.0
  9
$DIMGAP
 40
0.09
  9
$DIMJUST
 70
     0
  9
$DIMSD1
 70
     0
  9
$DIMSD2
 70
     0
  9
$DIMTOLJ
 70
     1
  9
$DIMTZIN
 70
     0
  9
$DIMALTZ
 70
     0
  9
$DIMALTTZ
 70
     0
  9
$DIMUPT
 70
     0
  9
$DIMDEC
 70
     4
  9
$DIMTDEC
 70
     4
  9
$DIMALTU
 70
     2
  9
$DIMALTTD
 70
     2
  9
$DIMTXSTY
  7
Standard
  9
$DIMAUNIT
 70
     0
  9
$DIMADEC
 70
     0
  9
$DIMALTRND
 40
0.0
  9
$DIMAZIN
 70
     0
  9
$DIMDSEP
 70
    46
  9
$DIMATFIT
 70
     3
  9
$DIMFRAC
 70
     0
  9
$DIMLDRBLK
  1

  9
$DIMLUNIT
 70
     2
  9
$DIMLWD
 70
    -2
  9
$DIMLWE
 70
    -2
  9
$DIMTMOVE
 70
     0
  9
$DIMFXL
 40
1.0
  9
$DIMFXLON
 70
     0
  9
$DIMJOGANG
 40
0.7853981633974483
  9
$DIMTFILL
 70
     0
  9
$DIMTFILLCLR
 70
     0
  9
$DIMARCSYM
 70
     0
  9
$DIMLTYPE
  6

  9
$DIMLTEX1
  6

  9
$DIMLTEX2
  6

  9
$DIMTXTDIRECTION
 70
     0
  9
$LUNITS
 70
     2
  9
$LUPREC
 70
     4
  9
$SKETCHINC
 40
0.1
  9
$FILLETRAD
 40
0.5
  9
$AUNITS
 70
     0
  9
$AUPREC
 70
     0
  9
$MENU
  1
.
  9
$ELEVATION
 40
0.0
  9
$PELEVATION
 40
0.0
  9
$THICKNESS
 40
0.0
  9
$LIMCHECK
 70
     0
  9
$CHAMFERA
 40
0.5
  9
$CHAMFERB
 40
0.5
  9
$CHAMFERC
 40
1.0
  9
$CHAMFERD
 40
0.0
  9
$SKPOLY
 70
     0
  9
$TDCREATE
 40
2459305.909467581
  9
$TDUCREATE
 40
2459306.159467592
  9
$TDUPDATE
 40
2459305.909467581
  9
$TDUUPDATE
 40
2459306.159467592
  9
$TDINDWG
 40
0.0000000116
  9
$TDUSRTIMER
 40
0.0000000116
  9
$USRTIMER
 70
     1
  9
$ANGBASE
 50
0.0
  9
$ANGDIR
 70
     0
  9
$PDMODE
 70
     0
  9
$PDSIZE
 40
0.0
  9
$PLINEWID
 40
0.0
  9
$SPLFRAME
 70
     0
  9
$SPLINETYPE
 70
     6
  9
$SPLINESEGS
 70
     8
  9
$HANDSEED
  5
140
  9
$SURFTAB1
 70
     6
  9
$SURFTAB2
 70
     6
  9
$SURFTYPE
 70
     6
  9
$SURFU
 70
     6
  9
$SURFV
 70
     6
  9
$UCSBASE
  2

  9
$UCSNAME
  2

  9
$UCSORG
 10
0.0
 20
0.0
 30
0.0
  9
$UCSXDIR
 10
1.0
 20
0.0
 30
0.0
  9
$UCSYDIR
 10
0.0
 20
1.0
 30
0.0
  9
$UCSORTHOREF
  2

  9
$UCSORTHOVIEW
 70
     0
  9
$UCSORGTOP
 10
0.0
 20
0.0
 30
0.0
  9
$UCSORGBOTTOM
 10
0.0
 20
0.0
 30
0.0
  9
$UCSORGLEFT
 10
0.0
 20
0.0
 30
0.0
  9
$UCSORGRIGHT
 10
0.0
 20
0.0
 30
0.0
  9
$UCSORGFRONT
 10
0.0
 20
0.0
 30
0.0
  9
$UCSORGBACK
 10
0.0
 20
0.0
 30
0.0
  9
$PUCSBASE
  2

  9
$PUCSNAME
  2

  9
$PUCSORG
 10
0.0
 20
0.0
 30
0.0
  9
$PUCSXDIR
 10
1.0
 20
0.0
 30
0.0
  9
$PUCSYDIR
 10
0.0
 20
1.0
 30
0.0
  9
$PUCSORTHOREF
  2

  9
$PUCSORTHOVIEW
 70
     0
  9
$PUCSORGTOP
 10
0.0
 20
0.0
 30
0.0
  9
$PUCSORGBOTTOM
 10
0.0
 20
0.0
 30
0.0
  9
$PUCSORGLEFT
 10
0.0
 20
0.0
 30
0.0
  9
$PUCSORGRIGHT
 10
0.0
 20
0.0
 30
0.0
  9
$PUCSORGFRONT
 10
0.0
 20
0.0
 30
0.0
  9
$PUCSORGBACK
 10
0.0
 20
0.0
 30
0.0
  9
$USERI1
 70
     0
  9
$USERI2
 70
     0
  9
$USERI3
 70
     0
  9
$USERI4
 70
     0
  9
$USERI5
 70
     0
  9
$USERR1
 40
0.0
  9
$USERR2
 40
0.0
  9
$USERR3
 40
0.0
  9
$USERR4
 40
0.0
  9
$USERR5
 40
0.0
  9
$WORLDVIEW
 70
     1
  9
$SHADEDGE
 70
     3
  9
$SHADEDIF
 70
    70
  9
$TILEMODE
 70
     1
  9
$MAXACTVP
 70
    64
  9
$PINSBASE
 10
0.0
 20
0.0
 30
0.0
  9
$PLIMCHECK
 70
     0
  9
$PEXTMIN
 10
1.000000000000000E+20
 20
1.000000000000000E+20
 30
1.000000000000000E+20
  9
$PEXTMAX
 10
-1.000000000000000E+20
 20
-1.000000000000000E+20
 30
-1.000000000000000E+20
  9
$PLIMMIN
 10
0.0
 20
0.0
  9
$PLIMMAX
 10
12.0
 20
9.0
  9
$UNITMODE
 70
     0
  9
$VISRETAIN
 70
     1
  9
$PLINEGEN
 70
     0
  9
$PSLTSCALE
 70
     1
  9
$TREEDEPTH
 70
  3020
  9
$CMLSTYLE
  2
Standard
  9
$CMLJUST
 70
     0
  9
$CMLSCALE
 40
1.0
  9
$PROXYGRAPHICS
 70
     1
  9
$MEASUREMENT
 70
     0
  9
$CELWEIGHT
370
    -1
  9
$ENDCAPS
280
     0
  9
$JOINSTYLE
280
     0
  9
$LWDISPLAY
290
     1
  9
$INSUNITS
 70
     1
  9
$HYPERLINKBASE
  1

  9
$STYLESHEET
  1

  9
$XEDIT
290
     1
  9
$CEPSNTYPE
380
     0
  9
$PSTYLEMODE
290
     1
  9
$FINGERPRINTGUID
  2
{DF89DF0C-06AB-5932-C11C-06A39FB3A812}
  9
$VERSIONGUID
  2
{FAEB1C32-E019-11D5-929B-00C0DF256EC4}
  9
$EXTNAMES
290
     1
  9
$PSVPSCALE
 40
0.0
  9
$OLESTARTUP
290
     0
  9
$SORTENTS
280
   127
  9
$INDEXCTL
280
     0
  9
$HIDETEXT
280
     1
  9
$XCLIPFRAME
280
     2
  9
$HALOGAP
280
     0
  9
$OBSCOLOR
 70
   257
  9
$OBSLTYPE
280
     0
  9
$INTERSECTIONDISPLAY
280
     0
  9
$INTERSECTIONCOLOR
 70
   257
  9
$DIMASSOC
280
     2
  9
$PROJECTNAME
  1

  9
$CAMERADISPLAY
290
     0
  9
$LENSLENGTH
 40
50.0
  9
$CAMERAHEIGHT
 40
0.0
  9
$STEPSPERSEC
 40
2.0
  9
$STEPSIZE
 40
6.0
  9
$3DDWFPREC
 40
2.0
  9
$PSOLWIDTH
 40
0.25
  9
$PSOLHEIGHT
 40
4.0
  9
$LOFTANG1
 40
1.570796326794897
  9
$LOFTANG2
 40
1.570796326794897
  9
$LOFTMAG1
 40
0.0
  9
$LOFTMAG2
 40
0.0
  9
$LOFTPARAM
 70
     7
  9
$LOFTNORMALS
280
     1
  9
$LATITUDE
 40
37.795
  9
$LONGITUDE
 40
-122.394
  9
$NORTHDIRECTION
 40
0.0
  9
$TIMEZONE
 70
 -8000
  9
$LIGHTGLYPHDISPLAY
280
     1
  9
$TILEMODELIGHTSYNCH
280
     1
  9
$CMATERIAL
347
3C
  9
$SOLIDHIST
280
     1
  9
$SHOWHIST
280
     1
  9
$DWFFRAME
280
     2
  9
$DGNFRAME
280
     2
  9
$REALWORLDSCALE
290
     1
  9
$INTERFERECOLOR
 62
   256
  9
$CSHADOW
280
     0
  9
$SHADOWPLANELOCATION
 40
0.0
  0
ENDSEC
  0
SECTION
  2
CLASSES
  0
CLASS
  1
ACDBDICTIONARYWDFLT
  2
AcDbDictionaryWithDefault
  3
ObjectDBX Classes
 90
        0
 91
        4
280
     0
281
     0
  0
CLASS
  1
VISUALSTYLE
  2
AcDbVisualStyle
  3
ObjectDBX Classes
 90
     4095
 91
        4
280
     0
281
     0
  0
CLASS
  1
MATERIAL
  2
AcDbMaterial
  3
ObjectDBX Classes
 90
     1153
 91
        4
280
     0
281
     0
  0
CLASS
  1
SUN
  2
AcDbSun
  3
SCENEOE
 90
     1024
 91
        4
280
     0
281
     0
  0
ENDSEC
  0
SECTION
  2
TABLES
  0
TABLE
  2
VPORT
  5
8
330
0
100
AcDbSymbolTable
 70
     1
  0
VPORT
  5
29
330
8
100
AcDbSymbolTableRecord
100
AcDbViewportTableRecord
  2
*Active
 70
     0
 10
0.0
 20
0.0
 11
1.0
 21
1.0
 12
0.0
 22
0.0
 13
0.0
 23
0.0
 14
0.5
 24
0.5
 15
0.5
 25
0.5
 16
0.0
 26
0.0
 36
1.0
 17
12.20788235134549
 27
16.15875074598524
 37
0.0
 40
32.31750149197048
 41
0.7554966682296663
 42
50.0
 43
0.0
 44
0.0
 50
0.0
 51
0.0
 71
     0
 72
   100
 73
     1
 74
     3
 75
     0
 76
     0
 77
     0
 78
     0
281
     0
 65
     1
110
0.0
120
0.0
130
0.0
111
1.0
121
0.0
131
0.0
112
0.0
122
1.0
132
0.0
 79
     0
146
0.0
 60
     3
 61
     5
292
     1
282
     1
141
0.0
142
0.0
 63
   250
361
3F
  0
ENDTAB
  0
TABLE
  2
LTYPE
  5
5
330
0
100
AcDbSymbolTable
 70
     1
  0
LTYPE
  5
14
330
5
100
AcDbSymbolTableRecord
100
AcDbLinetypeTableRecord
  2
ByBlock
 70
     0
  3

 72
    65
 73
     0
 40
0.0
  0
LTYPE
  5
15
330
5
100
AcDbSymbolTableRecord
100
AcDbLinetypeTableRecord
  2
ByLayer
 70
     0
  3

 72
    65
 73
     0
 40
0.0
  0
LTYPE
  5
16
330
5
100
AcDbSymbolTableRecord
100
AcDbLinetypeTableRecord
  2
Continuous
 70
     0
  3
Solid line
 72
    65
 73
     0
 40
0.0
  0
ENDTAB
  0
TABLE
  2
LAYER
  5
2
330
0
100
AcDbSymbolTable
 70
     2
  0
LAYER
  5
10
330
2
100
AcDbSymbolTableRecord
100
AcDbLayerTableRecord
  2
0
 70
     0
 62
     7
  6
Continuous
370
    -3
390
F
347
3E
  0
LAYER
  5
40
330
2
100
AcDbSymbolTableRecord
100
AcDbLayerTableRecord
  2
Layer 1
 70
     0
 62
     7
  6
Continuous
370
    -3
390
F
347
3E
  0
ENDTAB
  0
TABLE
  2
STYLE
  5
3
330
0
100
AcDbSymbolTable
 70
     1
  0
STYLE
  5
11
330
3
100
AcDbSymbolTableRecord
100
AcDbTextStyleTableRecord
  2
Standard
 70
     0
 40
0.0
 41
1.0
 50
0.0
 71
     0
 42
0.2
  3
txt
  4

  0
ENDTAB
  0
TABLE
  2
VIEW
  5
6
330
0
100
AcDbSymbolTable
 70
     0
  0
ENDTAB
  0
TABLE
  2
UCS
  5
7
330
0
100
AcDbSymbolTable
 70
     0
  0
ENDTAB
  0
TABLE
  2
APPID
  5
9
330
0
100
AcDbSymbolTable
 70
     1
  0
APPID
  5
12
330
9
100
AcDbSymbolTableRecord
100
AcDbRegAppTableRecord
  2
ACAD
 70
     0
  0
ENDTAB
  0
TABLE
  2
DIMSTYLE
  5
A
330
0
100
AcDbSymbolTable
 70
     1
100
AcDbDimStyleTable
  0
DIMSTYLE
105
27
330
A
100
AcDbSymbolTableRecord
100
AcDbDimStyleTableRecord
  2
Standard
 70
     0
178
     0
340
11
  0
ENDTAB
  0
TABLE
  2
BLOCK_RECORD
  5
1
330
0
100
AcDbSymbolTable
 70
     5
  0
BLOCK_RECORD
  5
1F
330
1
100
AcDbSymbolTableRecord
100
AcDbBlockTableRecord
  2
*Model_Space
340
22
 70
     0
280
     1
281
     0
  0
BLOCK_RECORD
  5
1B
330
1
100
AcDbSymbolTableRecord
100
AcDbBlockTableRecord
  2
*Paper_Space
340
1E
 70
     0
280
     1
281
     0
  0
BLOCK_RECORD
  5
23
330
1
100
AcDbSymbolTableRecord
100
AcDbBlockTableRecord
  2
*Paper_Space0
340
26
 70
     0
280
     1
281
     0
  0
BLOCK_RECORD
  5
56
330
1
100
AcDbSymbolTableRecord
100
AcDbBlockTableRecord
  2
block 2
340
0
102
{BLKREFS
331
57
102
}
 70
     0
280
     1
281
     0
  0
BLOCK_RECORD
  5
8A
330
1
100
AcDbSymbolTableRecord
100
AcDbBlockTableRecord
  2
block 3
340
0
102
{BLKREFS
331
8B
102
}
 70
     0
280
     1
281
     0
  0
BLOCK_RECORD
  5
A6
330
1
100
AcDbSymbolTableRecord
100
AcDbBlockTableRecord
  2
block 4
340
0
102
{BLKREFS
331
A7
102
}
 70
     0
280
     1
281
     0
  0
BLOCK_RECORD
  5
E2
330
1
100
AcDbSymbolTableRecord
100
AcDbBlockTableRecord
  2
block 5
340
0
102
{BLKREFS
331
E3
102
}
 70
     0
280
     1
281
     0
  0
ENDTAB
  0
ENDSEC
  0
SECTION
  2
BLOCKS
  0
BLOCK
  5
20
330
1F
100
AcDbEntity
  8
0
100
AcDbBlockBegin
  2
*Model_Space
 70
     0
 10
0.0
 20
0.0
 30
0.0
  3
*Model_Space
  1

  0
ENDBLK
  5
21
330
1F
100
AcDbEntity
  8
0
100
AcDbBlockEnd
  0
BLOCK
  5
1C
330
1B
100
AcDbEntity
 67
     1
  8
0
100
AcDbBlockBegin
  2
*Paper_Space
 70
     0
 10
0.0
 20
0.0
 30
0.0
  3
*Paper_Space
  1

  0
ENDBLK
  5
1D
330
1B
100
AcDbEntity
 67
     1
  8
0
100
AcDbBlockEnd
  0
BLOCK
  5
24
330
23
100
AcDbEntity
  8
0
100
AcDbBlockBegin
  2
*Paper_Space0
 70
     0
 10
0.0
 20
0.0
 30
0.0
  3
*Paper_Space0
  1

  0
ENDBLK
  5
25
330
23
100
AcDbEntity
  8
0
100
AcDbBlockEnd
  0
BLOCK
  5
58
330
56
100
AcDbEntity
  8
0
100
AcDbBlockBegin
  2
block 2
 70
     0
 10
0.0
 20
0.0
 30
0.0
  3
block 2
  1

  0
POLYLINE
  5
5A
330
56
100
AcDbEntity
  8
Layer 1
 62
     7
420
 16777215
370
    60
100
AcDb2dPolyline
 66
     1
 10
0.0
 20
0.0
 30
0.0
  0
VERTEX
  5
5B
330
5A
100
AcDbEntity
  8
Layer 1
 62
     7
420
 16777215
370
    60
100
AcDbVertex
100
AcDb2dVertex
 10
3.866083357069227
 20
1.401028069390198
 30
0.0
  0
VERTEX
  5
5C
330
5A
100
AcDbEntity
  8
Layer 1
 62
     7
420
 16777215
370
    60
100
AcDbVertex
100
AcDb2dVertex
 10
2.154889000786675
 20
8.585472920735684
 30
0.0
  0
VERTEX
  5
5D
330
5A
100
AcDbEntity
  8
Layer 1
 62
     7
420
 16777215
370
    60
100
AcDbVertex
100
AcDb2dVertex
 10
1.786888970269097
 20
8.585472920735684
 30
0.0
  0
VERTEX
  5
5E
330
5A
100
AcDbEntity
  8
Layer 1
 62
     7
420
 16777215
370
    60
100
AcDbVertex
100
AcDb2dVertex
 10
1.786888970269097
 20
10.63986202663846
 30
0.0
  0
VERTEX
  5
5F
330
5A
100
AcDbEntity
  8
Layer 1
 62
     7
420
 16777215
370
    60
100
AcDbVertex
100
AcDb2dVertex
 10
5.404694451226129
 20
10.63986202663846
 30
0.0
  0
VERTEX
  5
60
330
5A
100
AcDbEntity
  8
Layer 1
 62
     7
420
 16777215
370
    60
100
AcDbVertex
100
AcDb2dVertex
 10
5.404694451226129
 20
8.585472920735684
 30
0.0
  0
VERTEX
  5
61
330
5A
100
AcDbEntity
  8
Layer 1
 62
     7
420
 16777215
370
    60
100
AcDbVertex
100
AcDb2dVertex
 10
5.054166581895616
 20
8.585472920735684
 30
0.0
  0
VERTEX
  5
62
330
5A
100
AcDbEntity
  8
Layer 1
 62
     7
420
 16777215
370
    60
100
AcDbVertex
100
AcDb2dVertex
 10
5.300555335150825
 20
6.715223490397142
 30
0.0
  0
VERTEX
  5
63
330
5A
100
AcDbEntity
  8
Layer 1
 62
     7
420
 16777215
370
    60
100
AcDbVertex
100
AcDb2dVertex
 10
6.494194030761719
 20
10.63987559000652
 30
0.0
  0
VERTEX
  5
64
330
5A
100
AcDbEntity
  8
Layer 1
 62
     7
420
 16777215
370
    60
100
AcDbVertex
100
AcDb2dVertex
 10
8.157555474175346
 20
10.63987559000652
 30
0.0
  0
VERTEX
  5
65
330
5A
100
AcDbEntity
  8
Layer 1
 62
     7
420
 16777215
370
    60
100
AcDbVertex
100
AcDb2dVertex
 10
9.043111165364582
 20
6.89334781222874
 30
0.0
  0
VERTEX
  5
66
330
5A
100
AcDbEntity
  8
Layer 1
 62
     7
420
 16777215
370
    60
100
AcDbVertex
100
AcDb2dVertex
 10
9.574541727701822
 20
8.58548648410374
 30
0.0
  0
VERTEX
  5
67
330
5A
100
AcDbEntity
  8
Layer 1
 62
     7
420
 16777215
370
    60
100
AcDbVertex
100
AcDb2dVertex
 10
9.24705590142144
 20
8.58548648410374
 30
0.0
  0
VERTEX
  5
68
330
5A
100
AcDbEntity
  8
Layer 1
 62
     7
420
 16777215
370
    60
100
AcDbVertex
100
AcDb2dVertex
 10
9.24705590142144
 20
10.63986202663846
 30
0.0
  0
VERTEX
  5
69
330
5A
100
AcDbEntity
  8
Layer 1
 62
     7
420
 16777215
370
    60
100
AcDbVertex
100
AcDb2dVertex
 10
11.92507002088759
 20
10.63986202663846
 30
0.0
  0
VERTEX
  5
6A
330
5A
100
AcDbEntity
  8
Layer 1
 62
     7
420
 16777215
370
    60
100
AcDbVertex
100
AcDb2dVertex
 10
11.92507002088759
 20
8.585472920735684
 30
0.0
  0
VERTEX
  5
6B
330
5A
100
AcDbEntity
  8
Layer 1
 62
     7
420
 16777215
370
    60
100
AcDbVertex
100
AcDb2dVertex
 10
11.61651441786024
 20
8.585472920735684
 30
0.0
  0
VERTEX
  5
6C
330
5A
100
AcDbEntity
  8
Layer 1
 62
     7
420
 16777215
370
    60
100
AcDbVertex
100
AcDb2dVertex
 10
9.854166666666666
 20
1.401028069390198
 30
0.0
  0
VERTEX
  5
6D
330
5A
100
AcDbEntity
  8
Layer 1
 62
     7
420
 16777215
370
    60
100
AcDbVertex
100
AcDb2dVertex
 10
7.650221930609809
 20
1.401028069390198
 30
0.0
  0
VERTEX
  5
6E
330
5A
100
AcDbEntity
  8
Layer 1
 62
     7
420
 16777215
370
    60
100
AcDbVertex
100
AcDb2dVertex
 10
6.868444230821397
 20
4.434265102810337
 30
0.0
  0
VERTEX
  5
6F
330
5A
100
AcDbEntity
  8
Layer 1
 62
     7
420
 16777215
370
    60
100
AcDbVertex
100
AcDb2dVertex
 10
6.04508293999566
 20
1.401028069390198
 30
0.0
  0
VERTEX
  5
70
330
5A
100
AcDbEntity
  8
Layer 1
 62
     7
420
 16777215
370
    60
100
AcDbVertex
100
AcDb2dVertex
 10
3.866083357069227
 20
1.401028069390198
 30
0.0
  0
SEQEND
  5
71
330
5A
100
AcDbEntity
  8
Layer 1
 62
     7
420
 16777215
370
    60
  0
POLYLINE
  5
72
330
56
100
AcDbEntity
  8
Layer 1
 62
     7
420
 16777215
370
    60
100
AcDb2dPolyline
 66
     1
 10
0.0
 20
0.0
 30
0.0
  0
VERTEX
  5
73
330
72
100
AcDbEntity
  8
Layer 1
 62
     7
420
 16777215
370
    60
100
AcDbVertex
100
AcDb2dVertex
 10
7.921444363064236
 20
1.751030782063809
 30
0.0
  0
VERTEX
  5
74
330
72
100
AcDbEntity
  8
Layer 1
 62
     7
420
 16777215
370
    60
100
AcDbVertex
100
AcDb2dVertex
 10
6.877208285861545
 20
5.802612270779087
 30
0.0
  0
VERTEX
  5
75
330
72
100
AcDbEntity
  8
Layer 1
 62
     7
420
 16777215
370
    60
100
AcDbVertex
100
AcDb2dVertex
 10
5.777416653103298
 20
1.751030782063809
 30
0.0
  0
VERTEX
  5
76
330
72
100
AcDbEntity
  8
Layer 1
 62
     7
420
 16777215
370
    60
100
AcDbVertex
100
AcDb2dVertex
 10
4.142513699001736
 20
1.751030782063809
 30
0.0
  0
VERTEX
  5
77
330
72
100
AcDbEntity
  8
Layer 1
 62
     7
420
 16777215
370
    60
100
AcDbVertex
100
AcDb2dVertex
 10
2.431305567423502
 20
8.935473937988288
 30
0.0
  0
VERTEX
  5
78
330
72
100
AcDbEntity
  8
Layer 1
 62
     7
420
 16777215
370
    60
100
AcDbVertex
100
AcDb2dVertex
 10
2.136874940660265
 20
8.935473937988288
 30
0.0
  0
VERTEX
  5
79
330
72
100
AcDbEntity
  8
Layer 1
 62
     7
420
 16777215
370
    60
100
AcDbVertex
100
AcDb2dVertex
 10
2.136874940660265
 20
10.28986270480686
 30
0.0
  0
VERTEX
  5
7A
330
72
100
AcDbEntity
  8
Layer 1
 62
     7
420
 16777215
370
    60
100
AcDbVertex
100
AcDb2dVertex
 10
5.054680718315972
 20
10.28986270480686
 30
0.0
  0
VERTEX
  5
7B
330
72
100
AcDbEntity
  8
Layer 1
 62
     7
420
 16777215
370
    60
100
AcDbVertex
100
AcDb2dVertex
 10
5.054680718315972
 20
8.935473937988288
 30
0.0
  0
VERTEX
  5
7C
330
72
100
AcDbEntity
  8
Layer 1
 62
     7
420
 16777215
370
    60
100
AcDbVertex
100
AcDb2dVertex
 10
4.655014038085938
 20
8.935473937988288
 30
0.0
  0
VERTEX
  5
7D
330
72
100
AcDbEntity
  8
Layer 1
 62
     7
420
 16777215
370
    60
100
AcDbVertex
100
AcDb2dVertex
 10
5.209236145019531
 20
5.470458950466587
 30
0.0
  0
VERTEX
  5
7E
330
72
100
AcDbEntity
  8
Layer 1
 62
     7
420
 16777215
370
    60
100
AcDbVertex
100
AcDb2dVertex
 10
6.753569285074869
 20
10.28986270480686
 30
0.0
  0
VERTEX
  5
7F
330
72
100
AcDbEntity
  8
Layer 1
 62
     7
420
 16777215
370
    60
100
AcDbVertex
100
AcDb2dVertex
 10
7.880638970269096
 20
10.28986270480686
 30
0.0
  0
VERTEX
  5
80
330
72
100
AcDbEntity
  8
Layer 1
 62
     7
420
 16777215
370
    60
100
AcDbVertex
100
AcDb2dVertex
 10
8.995430840386284
 20
5.57344560411242
 30
0.0
  0
VERTEX
  5
81
330
72
100
AcDbEntity
  8
Layer 1
 62
     7
420
 16777215
370
    60
100
AcDbVertex
100
AcDb2dVertex
 10
10.05130513509114
 20
8.935473937988288
 30
0.0
  0
VERTEX
  5
82
330
72
100
AcDbEntity
  8
Layer 1
 62
     7
420
 16777215
370
    60
100
AcDbVertex
100
AcDb2dVertex
 10
9.597041659884981
 20
8.935473937988288
 30
0.0
  0
VERTEX
  5
83
330
72
100
AcDbEntity
  8
Layer 1
 62
     7
420
 16777215
370
    60
100
AcDbVertex
100
AcDb2dVertex
 10
9.597041659884981
 20
10.28986270480686
 30
0.0
  0
VERTEX
  5
84
330
72
100
AcDbEntity
  8
Layer 1
 62
     7
420
 16777215
370
    60
100
AcDbVertex
100
AcDb2dVertex
 10
11.57504187689887
 20
10.28986270480686
 30
0.0
  0
VERTEX
  5
85
330
72
100
AcDbEntity
  8
Layer 1
 62
     7
420
 16777215
370
    60
100
AcDbVertex
100
AcDb2dVertex
 10
11.57504187689887
 20
8.935473937988288
 30
0.0
  0
VERTEX
  5
86
330
72
100
AcDbEntity
  8
Layer 1
 62
     7
420
 16777215
370
    60
100
AcDbVertex
100
AcDb2dVertex
 10
11.34197235107422
 20
8.935473937988288
 30
0.0
  0
VERTEX
  5
87
330
72
100
AcDbEntity
  8
Layer 1
 62
     7
420
 16777215
370
    60
100
AcDbVertex
100
AcDb2dVertex
 10
9.579652574327257
 20
1.751030782063809
 30
0.0
  0
VERTEX
  5
88
330
72
100
AcDbEntity
  8
Layer 1
 62
     7
420
 16777215
370
    60
100
AcDbVertex
100
AcDb2dVertex
 10
7.921444363064236
 20
1.751030782063809
 30
0.0
  0
SEQEND
  5
89
330
72
100
AcDbEntity
  8
Layer 1
 62
     7
420
 16777215
370
    60
  0
ENDBLK
  5
59
330
56
100
AcDbEntity
  8
0
100
AcDbBlockEnd
  0
BLOCK
  5
8C
330
8A
100
AcDbEntity
  8
0
100
AcDbBlockBegin
  2
block 3
 70
     0
 10
0.0
 20
0.0
 30
0.0
  3
block 3
  1

  0
POLYLINE
  5
8E
330
8A
100
AcDbEntity
  8
Layer 1
 62
     6
420
 14614783
370
    60
100
AcDb2dPolyline
 66
     1
 10
0.0
 20
0.0
 30
0.0
  0
VERTEX
  5
8F
330
8E
100
AcDbEntity
  8
Layer 1
 62
     6
420
 14614783
370
    60
100
AcDbVertex
100
AcDb2dVertex
 10
15.43966674804688
 20
1.401028069390198
 30
0.0
  0
VERTEX
  5
90
330
8E
100
AcDbEntity
  8
Layer 1
 62
     6
420
 14614783
370
    60
100
AcDbVertex
100
AcDb2dVertex
 10
13.72847239176432
 20
8.585472920735684
 30
0.0
  0
VERTEX
  5
91
330
8E
100
AcDbEntity
  8
Layer 1
 62
     6
420
 14614783
370
    60
100
AcDbVertex
100
AcDb2dVertex
 10
13.360472785102
 20
8.585472920735684
 30
0.0
  0
VERTEX
  5
92
330
8E
100
AcDbEntity
  8
Layer 1
 62
     6
420
 14614783
370
    60
100
AcDbVertex
100
AcDb2dVertex
 10
13.360472785102
 20
10.63986202663846
 30
0.0
  0
VERTEX
  5
93
330
8E
100
AcDbEntity
  8
Layer 1
 62
     6
420
 14614783
370
    60
100
AcDbVertex
100
AcDb2dVertex
 10
16.97827826605903
 20
10.63986202663846
 30
0.0
  0
VERTEX
  5
94
330
8E
100
AcDbEntity
  8
Layer 1
 62
     6
420
 14614783
370
    60
100
AcDbVertex
100
AcDb2dVertex
 10
16.97827826605903
 20
8.585472920735684
 30
0.0
  0
VERTEX
  5
95
330
8E
100
AcDbEntity
  8
Layer 1
 62
     6
420
 14614783
370
    60
100
AcDbVertex
100
AcDb2dVertex
 10
16.62774997287326
 20
8.585472920735684
 30
0.0
  0
VERTEX
  5
96
330
8E
100
AcDbEntity
  8
Layer 1
 62
     6
420
 14614783
370
    60
100
AcDbVertex
100
AcDb2dVertex
 10
16.87413872612847
 20
6.715223490397142
 30
0.0
  0
VERTEX
  5
97
330
8E
100
AcDbEntity
  8
Layer 1
 62
     6
420
 14614783
370
    60
100
AcDbVertex
100
AcDb2dVertex
 10
18.06777784559462
 20
10.63987559000652
 30
0.0
  0
VERTEX
  5
98
330
8E
100
AcDbEntity
  8
Layer 1
 62
     6
420
 14614783
370
    60
100
AcDbVertex
100
AcDb2dVertex
 10
19.73113844129774
 20
10.63987559000652
 30
0.0
  0
VERTEX
  5
99
330
8E
100
AcDbEntity
  8
Layer 1
 62
     6
420
 14614783
370
    60
100
AcDbVertex
100
AcDb2dVertex
 10
20.61669413248698
 20
6.89334781222874
 30
0.0
  0
VERTEX
  5
9A
330
8E
100
AcDbEntity
  8
Layer 1
 62
     6
420
 14614783
370
    60
100
AcDbVertex
100
AcDb2dVertex
 10
21.14812554253472
 20
8.58548648410374
 30
0.0
  0
VERTEX
  5
9B
330
8E
100
AcDbEntity
  8
Layer 1
 62
     6
420
 14614783
370
    60
100
AcDbVertex
100
AcDb2dVertex
 10
20.82063971625434
 20
8.58548648410374
 30
0.0
  0
VERTEX
  5
9C
330
8E
100
AcDbEntity
  8
Layer 1
 62
     6
420
 14614783
370
    60
100
AcDbVertex
100
AcDb2dVertex
 10
20.82063971625434
 20
10.63986202663846
 30
0.0
  0
VERTEX
  5
9D
330
8E
100
AcDbEntity
  8
Layer 1
 62
     6
420
 14614783
370
    60
100
AcDbVertex
100
AcDb2dVertex
 10
23.49865383572049
 20
10.63986202663846
 30
0.0
  0
VERTEX
  5
9E
330
8E
100
AcDbEntity
  8
Layer 1
 62
     6
420
 14614783
370
    60
100
AcDbVertex
100
AcDb2dVertex
 10
23.49865383572049
 20
8.585472920735684
 30
0.0
  0
VERTEX
  5
9F
330
8E
100
AcDbEntity
  8
Layer 1
 62
     6
420
 14614783
370
    60
100
AcDbVertex
100
AcDb2dVertex
 10
23.19009908040364
 20
8.585472920735684
 30
0.0
  0
VERTEX
  5
A0
330
8E
100
AcDbEntity
  8
Layer 1
 62
     6
420
 14614783
370
    60
100
AcDbVertex
100
AcDb2dVertex
 10
21.42778015136719
 20
1.401028069390198
 30
0.0
  0
VERTEX
  5
A1
330
8E
100
AcDbEntity
  8
Layer 1
 62
     6
420
 14614783
370
    60
100
AcDbVertex
100
AcDb2dVertex
 10
19.22383626302083
 20
1.401028069390198
 30
0.0
  0
VERTEX
  5
A2
330
8E
100
AcDbEntity
  8
Layer 1
 62
     6
420
 14614783
370
    60
100
AcDbVertex
100
AcDb2dVertex
 10
18.44205898708767
 20
4.434265102810337
 30
0.0
  0
VERTEX
  5
A3
330
8E
100
AcDbEntity
  8
Layer 1
 62
     6
420
 14614783
370
    60
100
AcDbVertex
100
AcDb2dVertex
 10
17.61869812011719
 20
1.401028069390198
 30
0.0
  0
VERTEX
  5
A4
330
8E
100
AcDbEntity
  8
Layer 1
 62
     6
420
 14614783
370
    60
100
AcDbVertex
100
AcDb2dVertex
 10
15.43966674804688
 20
1.401028069390198
 30
0.0
  0
SEQEND
  5
A5
330
8E
100
AcDbEntity
  8
Layer 1
 62
     6
420
 14614783
370
    60
  0
ENDBLK
  5
8D
330
8A
100
AcDbEntity
  8
0
100
AcDbBlockEnd
  0
BLOCK
  5
A8
330
A6
100
AcDbEntity
  8
0
100
AcDbBlockBegin
  2
block 4
 70
     0
 10
0.0
 20
0.0
 30
0.0
  3
block 4
  1

  0
POLYLINE
  5
AA
330
A6
100
AcDbEntity
  8
Layer 1
 62
     7
420
 16777215
370
    60
100
AcDb2dPolyline
 66
     1
 10
0.0
 20
0.0
 30
0.0
  0
VERTEX
  5
AB
330
AA
100
AcDbEntity
  8
Layer 1
 62
     7
420
 16777215
370
    60
100
AcDbVertex
100
AcDb2dVertex
 10
5.754680633544922
 20
20.51827914767796
 30
0.0
  0
VERTEX
  5
AC
330
AA
100
AcDbEntity
  8
Layer 1
 62
     7
420
 16777215
370
    60
100
AcDbVertex
100
AcDb2dVertex
 10
5.016499837239583
 20
20.51827914767796
 30
0.0
  0
VERTEX
  5
AD
330
AA
100
AcDbEntity
  8
Layer 1
 62
     7
420
 16777215
370
    60
100
AcDbVertex
100
AcDb2dVertex
 10
5.016499837239583
 20
20.16827897813586
 30
0.0
  0
VERTEX
  5
AE
330
AA
100
AcDbEntity
  8
Layer 1
 62
     7
420
 16777215
370
    60
100
AcDbVertex
100
AcDb2dVertex
 10
5.404680464002821
 20
20.16827897813586
 30
0.0
  0
VERTEX
  5
AF
330
AA
100
AcDbEntity
  8
Layer 1
 62
     7
420
 16777215
370
    60
100
AcDbVertex
100
AcDb2dVertex
 10
5.404680464002821
 20
18.81389021131728
 30
0.0
  0
VERTEX
  5
B0
330
AA
100
AcDbEntity
  8
Layer 1
 62
     7
420
 16777215
370
    60
100
AcDbVertex
100
AcDb2dVertex
 10
5.005013783772786
 20
18.81389021131728
 30
0.0
  0
VERTEX
  5
B1
330
AA
100
AcDbEntity
  8
Layer 1
 62
     7
420
 16777215
370
    60
100
AcDbVertex
100
AcDb2dVertex
 10
5.559249877929688
 20
15.34887691921659
 30
0.0
  0
VERTEX
  5
B2
330
AA
100
AcDbEntity
  8
Layer 1
 62
     7
420
 16777215
370
    60
100
AcDbVertex
100
AcDb2dVertex
 10
7.10356945461697
 20
20.16827897813586
 30
0.0
  0
VERTEX
  5
B3
330
AA
100
AcDbEntity
  8
Layer 1
 62
     7
420
 16777215
370
    60
100
AcDbVertex
100
AcDb2dVertex
 10
8.230639139811197
 20
20.16827897813586
 30
0.0
  0
VERTEX
  5
B4
330
AA
100
AcDbEntity
  8
Layer 1
 62
     7
420
 16777215
370
    60
100
AcDbVertex
100
AcDb2dVertex
 10
9.34544457329644
 20
15.45186187744141
 30
0.0
  0
VERTEX
  5
B5
330
AA
100
AcDbEntity
  8
Layer 1
 62
     7
420
 16777215
370
    60
100
AcDbVertex
100
AcDb2dVertex
 10
10.40130530463325
 20
18.81389021131728
 30
0.0
  0
VERTEX
  5
B6
330
AA
100
AcDbEntity
  8
Layer 1
 62
     7
420
 16777215
370
    60
100
AcDbVertex
100
AcDb2dVertex
 10
9.947055392795138
 20
18.81389021131728
 30
0.0
  0
VERTEX
  5
B7
330
AA
100
AcDbEntity
  8
Layer 1
 62
     7
420
 16777215
370
    60
100
AcDbVertex
100
AcDb2dVertex
 10
9.947055392795138
 20
20.16827897813586
 30
0.0
  0
VERTEX
  5
B8
330
AA
100
AcDbEntity
  8
Layer 1
 62
     7
420
 16777215
370
    60
100
AcDbVertex
100
AcDb2dVertex
 10
10.20951419406467
 20
20.16827897813586
 30
0.0
  0
VERTEX
  5
B9
330
AA
100
AcDbEntity
  8
Layer 1
 62
     7
420
 16777215
370
    60
100
AcDbVertex
100
AcDb2dVertex
 10
10.20951419406467
 20
20.51827914767796
 30
0.0
  0
VERTEX
  5
BA
330
AA
100
AcDbEntity
  8
Layer 1
 62
     7
420
 16777215
370
    60
100
AcDbVertex
100
AcDb2dVertex
 10
9.597041659884981
 20
20.51827914767796
 30
0.0
  0
VERTEX
  5
BB
330
AA
100
AcDbEntity
  8
Layer 1
 62
     7
420
 16777215
370
    60
100
AcDbVertex
100
AcDb2dVertex
 10
9.597041659884981
 20
18.46389004177518
 30
0.0
  0
VERTEX
  5
BC
330
AA
100
AcDbEntity
  8
Layer 1
 62
     7
420
 16777215
370
    60
100
AcDbVertex
100
AcDb2dVertex
 10
9.924527486165363
 20
18.46389004177518
 30
0.0
  0
VERTEX
  5
BD
330
AA
100
AcDbEntity
  8
Layer 1
 62
     7
420
 16777215
370
    60
100
AcDbVertex
100
AcDb2dVertex
 10
9.393111334906683
 20
16.77175221761068
 30
0.0
  0
VERTEX
  5
BE
330
AA
100
AcDbEntity
  8
Layer 1
 62
     7
420
 16777215
370
    60
100
AcDbVertex
100
AcDb2dVertex
 10
8.507555643717447
 20
20.51827914767796
 30
0.0
  0
VERTEX
  5
BF
330
AA
100
AcDbEntity
  8
Layer 1
 62
     7
420
 16777215
370
    60
100
AcDbVertex
100
AcDb2dVertex
 10
6.844194624159071
 20
20.51827914767796
 30
0.0
  0
VERTEX
  5
C0
330
AA
100
AcDbEntity
  8
Layer 1
 62
     7
420
 16777215
370
    60
100
AcDbVertex
100
AcDb2dVertex
 10
5.650555504692925
 20
16.59362620035808
 30
0.0
  0
VERTEX
  5
C1
330
AA
100
AcDbEntity
  8
Layer 1
 62
     7
420
 16777215
370
    60
100
AcDbVertex
100
AcDb2dVertex
 10
5.40415276421441
 20
18.46389004177518
 30
0.0
  0
VERTEX
  5
C2
330
AA
100
AcDbEntity
  8
Layer 1
 62
     7
420
 16777215
370
    60
100
AcDbVertex
100
AcDb2dVertex
 10
5.754680633544922
 20
18.46389004177518
 30
0.0
  0
VERTEX
  5
C3
330
AA
100
AcDbEntity
  8
Layer 1
 62
     7
420
 16777215
370
    60
100
AcDbVertex
100
AcDb2dVertex
 10
5.754680633544922
 20
20.51827914767796
 30
0.0
  0
SEQEND
  5
C4
330
AA
100
AcDbEntity
  8
Layer 1
 62
     7
420
 16777215
370
    60
  0
POLYLINE
  5
C5
330
A6
100
AcDbEntity
  8
Layer 1
 62
     7
420
 16777215
370
    60
100
AcDb2dPolyline
 66
     1
 10
0.0
 20
0.0
 30
0.0
  0
VERTEX
  5
C6
330
C5
100
AcDbEntity
  8
Layer 1
 62
     7
420
 16777215
370
    60
100
AcDbVertex
100
AcDb2dVertex
 10
11.66974978976779
 20
20.51827914767796
 30
0.0
  0
VERTEX
  5
C7
330
C5
100
AcDbEntity
  8
Layer 1
 62
     7
420
 16777215
370
    60
100
AcDbVertex
100
AcDb2dVertex
 10
11.66974978976779
 20
20.16827897813586
 30
0.0
  0
VERTEX
  5
C8
330
C5
100
AcDbEntity
  8
Layer 1
 62
     7
420
 16777215
370
    60
100
AcDbVertex
100
AcDb2dVertex
 10
11.92505560980903
 20
20.16827897813586
 30
0.0
  0
VERTEX
  5
C9
330
C5
100
AcDbEntity
  8
Layer 1
 62
     7
420
 16777215
370
    60
100
AcDbVertex
100
AcDb2dVertex
 10
11.92505560980903
 20
18.81389021131728
 30
0.0
  0
VERTEX
  5
CA
330
C5
100
AcDbEntity
  8
Layer 1
 62
     7
420
 16777215
370
    60
100
AcDbVertex
100
AcDb2dVertex
 10
11.69197252061632
 20
18.81389021131728
 30
0.0
  0
VERTEX
  5
CB
330
C5
100
AcDbEntity
  8
Layer 1
 62
     7
420
 16777215
370
    60
100
AcDbVertex
100
AcDb2dVertex
 10
9.929652743869356
 20
11.6294453599718
 30
0.0
  0
VERTEX
  5
CC
330
C5
100
AcDbEntity
  8
Layer 1
 62
     7
420
 16777215
370
    60
100
AcDbVertex
100
AcDb2dVertex
 10
8.271444532606337
 20
11.6294453599718
 30
0.0
  0
VERTEX
  5
CD
330
C5
100
AcDbEntity
  8
Layer 1
 62
     7
420
 16777215
370
    60
100
AcDbVertex
100
AcDb2dVertex
 10
7.227208455403646
 20
15.68102854410808
 30
0.0
  0
VERTEX
  5
CE
330
C5
100
AcDbEntity
  8
Layer 1
 62
     7
420
 16777215
370
    60
100
AcDbVertex
100
AcDb2dVertex
 10
6.127416822645399
 20
11.6294453599718
 30
0.0
  0
VERTEX
  5
CF
330
C5
100
AcDbEntity
  8
Layer 1
 62
     7
420
 16777215
370
    60
100
AcDbVertex
100
AcDb2dVertex
 10
4.492513868543837
 20
11.6294453599718
 30
0.0
  0
VERTEX
  5
D0
330
C5
100
AcDbEntity
  8
Layer 1
 62
     7
420
 16777215
370
    60
100
AcDbVertex
100
AcDb2dVertex
 10
2.781305525037977
 20
18.81389021131728
 30
0.0
  0
VERTEX
  5
D1
330
C5
100
AcDbEntity
  8
Layer 1
 62
     7
420
 16777215
370
    60
100
AcDbVertex
100
AcDb2dVertex
 10
2.486888885498047
 20
18.81389021131728
 30
0.0
  0
VERTEX
  5
D2
330
C5
100
AcDbEntity
  8
Layer 1
 62
     7
420
 16777215
370
    60
100
AcDbVertex
100
AcDb2dVertex
 10
2.486888885498047
 20
20.16827897813586
 30
0.0
  0
VERTEX
  5
D3
330
C5
100
AcDbEntity
  8
Layer 1
 62
     7
420
 16777215
370
    60
100
AcDbVertex
100
AcDb2dVertex
 10
2.839819378323025
 20
20.16827897813586
 30
0.0
  0
VERTEX
  5
D4
330
C5
100
AcDbEntity
  8
Layer 1
 62
     7
420
 16777215
370
    60
100
AcDbVertex
100
AcDb2dVertex
 10
2.839819378323025
 20
20.51827914767796
 30
0.0
  0
VERTEX
  5
D5
330
C5
100
AcDbEntity
  8
Layer 1
 62
     7
420
 16777215
370
    60
100
AcDbVertex
100
AcDb2dVertex
 10
2.136874940660265
 20
20.51827914767796
 30
0.0
  0
VERTEX
  5
D6
330
C5
100
AcDbEntity
  8
Layer 1
 62
     7
420
 16777215
370
    60
100
AcDbVertex
100
AcDb2dVertex
 10
2.136874940660265
 20
18.46389004177518
 30
0.0
  0
VERTEX
  5
D7
330
C5
100
AcDbEntity
  8
Layer 1
 62
     7
420
 16777215
370
    60
100
AcDbVertex
100
AcDb2dVertex
 10
2.50488895840115
 20
18.46389004177518
 30
0.0
  0
VERTEX
  5
D8
330
C5
100
AcDbEntity
  8
Layer 1
 62
     7
420
 16777215
370
    60
100
AcDbVertex
100
AcDb2dVertex
 10
4.216083526611328
 20
11.2794460381402
 30
0.0
  0
VERTEX
  5
D9
330
C5
100
AcDbEntity
  8
Layer 1
 62
     7
420
 16777215
370
    60
100
AcDbVertex
100
AcDb2dVertex
 10
6.395083533393012
 20
11.2794460381402
 30
0.0
  0
VERTEX
  5
DA
330
C5
100
AcDbEntity
  8
Layer 1
 62
     7
420
 16777215
370
    60
100
AcDbVertex
100
AcDb2dVertex
 10
7.21844482421875
 20
14.31268137613933
 30
0.0
  0
VERTEX
  5
DB
330
C5
100
AcDbEntity
  8
Layer 1
 62
     7
420
 16777215
370
    60
100
AcDbVertex
100
AcDb2dVertex
 10
8.000222100151909
 20
11.2794460381402
 30
0.0
  0
VERTEX
  5
DC
330
C5
100
AcDbEntity
  8
Layer 1
 62
     7
420
 16777215
370
    60
100
AcDbVertex
100
AcDb2dVertex
 10
10.20418039957682
 20
11.2794460381402
 30
0.0
  0
VERTEX
  5
DD
330
C5
100
AcDbEntity
  8
Layer 1
 62
     7
420
 16777215
370
    60
100
AcDbVertex
100
AcDb2dVertex
 10
11.96650017632378
 20
18.46389004177518
 30
0.0
  0
VERTEX
  5
DE
330
C5
100
AcDbEntity
  8
Layer 1
 62
     7
420
 16777215
370
    60
100
AcDbVertex
100
AcDb2dVertex
 10
12.27505577935113
 20
18.46389004177518
 30
0.0
  0
VERTEX
  5
DF
330
C5
100
AcDbEntity
  8
Layer 1
 62
     7
420
 16777215
370
    60
100
AcDbVertex
100
AcDb2dVertex
 10
12.27505577935113
 20
20.51827914767796
 30
0.0
  0
VERTEX
  5
E0
330
C5
100
AcDbEntity
  8
Layer 1
 62
     7
420
 16777215
370
    60
100
AcDbVertex
100
AcDb2dVertex
 10
11.66974978976779
 20
20.51827914767796
 30
0.0
  0
SEQEND
  5
E1
330
C5
100
AcDbEntity
  8
Layer 1
 62
     7
420
 16777215
370
    60
  0
ENDBLK
  5
A9
330
A6
100
AcDbEntity
  8
0
100
AcDbBlockEnd
  0
BLOCK
  5
E4
330
E2
100
AcDbEntity
  8
0
100
AcDbBlockBegin
  2
block 5
 70
     0
 10
0.0
 20
0.0
 30
0.0
  3
block 5
  1

  0
POLYLINE
  5
E6
330
E2
100
AcDbEntity
  8
Layer 1
 62
     7
420
 16777215
370
    60
100
AcDb2dPolyline
 66
     1
 10
0.0
 20
0.0
 30
0.0
  0
VERTEX
  5
E7
330
E6
100
AcDbEntity
  8
Layer 1
 62
     7
420
 16777215
370
    60
100
AcDbVertex
100
AcDb2dVertex
 10
16.97827826605903
 20
20.51827914767796
 30
0.0
  0
VERTEX
  5
E8
330
E6
100
AcDbEntity
  8
Layer 1
 62
     7
420
 16777215
370
    60
100
AcDbVertex
100
AcDb2dVertex
 10
16.24009704589844
 20
20.51827914767796
 30
0.0
  0
VERTEX
  5
E9
330
E6
100
AcDbEntity
  8
Layer 1
 62
     7
420
 16777215
370
    60
100
AcDbVertex
100
AcDb2dVertex
 10
16.24009704589844
 20
20.16827897813586
 30
0.0
  0
VERTEX
  5
EA
330
E6
100
AcDbEntity
  8
Layer 1
 62
     7
420
 16777215
370
    60
100
AcDbVertex
100
AcDb2dVertex
 10
16.62827724880642
 20
20.16827897813586
 30
0.0
  0
VERTEX
  5
EB
330
E6
100
AcDbEntity
  8
Layer 1
 62
     7
420
 16777215
370
    60
100
AcDbVertex
100
AcDb2dVertex
 10
16.62827724880642
 20
18.81389021131728
 30
0.0
  0
VERTEX
  5
EC
330
E6
100
AcDbEntity
  8
Layer 1
 62
     7
420
 16777215
370
    60
100
AcDbVertex
100
AcDb2dVertex
 10
16.22861056857639
 20
18.81389021131728
 30
0.0
  0
VERTEX
  5
ED
330
E6
100
AcDbEntity
  8
Layer 1
 62
     7
420
 16777215
370
    60
100
AcDbVertex
100
AcDb2dVertex
 10
16.78283352322049
 20
15.34887691921659
 30
0.0
  0
VERTEX
  5
EE
330
E6
100
AcDbEntity
  8
Layer 1
 62
     7
420
 16777215
370
    60
100
AcDbVertex
100
AcDb2dVertex
 10
18.32716708713108
 20
20.16827897813586
 30
0.0
  0
VERTEX
  5
EF
330
E6
100
AcDbEntity
  8
Layer 1
 62
     7
420
 16777215
370
    60
100
AcDbVertex
100
AcDb2dVertex
 10
19.45422193739149
 20
20.16827897813586
 30
0.0
  0
VERTEX
  5
F0
330
E6
100
AcDbEntity
  8
Layer 1
 62
     7
420
 16777215
370
    60
100
AcDbVertex
100
AcDb2dVertex
 10
20.56902737087674
 20
15.45186187744141
 30
0.0
  0
VERTEX
  5
F1
330
E6
100
AcDbEntity
  8
Layer 1
 62
     7
420
 16777215
370
    60
100
AcDbVertex
100
AcDb2dVertex
 10
21.6249033610026
 20
18.81389021131728
 30
0.0
  0
VERTEX
  5
F2
330
E6
100
AcDbEntity
  8
Layer 1
 62
     7
420
 16777215
370
    60
100
AcDbVertex
100
AcDb2dVertex
 10
21.17063903808594
 20
18.81389021131728
 30
0.0
  0
VERTEX
  5
F3
330
E6
100
AcDbEntity
  8
Layer 1
 62
     7
420
 16777215
370
    60
100
AcDbVertex
100
AcDb2dVertex
 10
21.17063903808594
 20
20.16827897813586
 30
0.0
  0
VERTEX
  5
F4
330
E6
100
AcDbEntity
  8
Layer 1
 62
     7
420
 16777215
370
    60
100
AcDbVertex
100
AcDb2dVertex
 10
21.43311055501302
 20
20.16827897813586
 30
0.0
  0
VERTEX
  5
F5
330
E6
100
AcDbEntity
  8
Layer 1
 62
     7
420
 16777215
370
    60
100
AcDbVertex
100
AcDb2dVertex
 10
21.43311055501302
 20
20.51827914767796
 30
0.0
  0
VERTEX
  5
F6
330
E6
100
AcDbEntity
  8
Layer 1
 62
     7
420
 16777215
370
    60
100
AcDbVertex
100
AcDb2dVertex
 10
20.82063971625434
 20
20.51827914767796
 30
0.0
  0
VERTEX
  5
F7
330
E6
100
AcDbEntity
  8
Layer 1
 62
     7
420
 16777215
370
    60
100
AcDbVertex
100
AcDb2dVertex
 10
20.82063971625434
 20
18.46389004177518
 30
0.0
  0
VERTEX
  5
F8
330
E6
100
AcDbEntity
  8
Layer 1
 62
     7
420
 16777215
370
    60
100
AcDbVertex
100
AcDb2dVertex
 10
21.14812554253472
 20
18.46389004177518
 30
0.0
  0
VERTEX
  5
F9
330
E6
100
AcDbEntity
  8
Layer 1
 62
     7
420
 16777215
370
    60
100
AcDbVertex
100
AcDb2dVertex
 10
20.61669413248698
 20
16.77175221761068
 30
0.0
  0
VERTEX
  5
FA
330
E6
100
AcDbEntity
  8
Layer 1
 62
     7
420
 16777215
370
    60
100
AcDbVertex
100
AcDb2dVertex
 10
19.73113844129774
 20
20.51827914767796
 30
0.0
  0
VERTEX
  5
FB
330
E6
100
AcDbEntity
  8
Layer 1
 62
     7
420
 16777215
370
    60
100
AcDbVertex
100
AcDb2dVertex
 10
18.06777784559462
 20
20.51827914767796
 30
0.0
  0
VERTEX
  5
FC
330
E6
100
AcDbEntity
  8
Layer 1
 62
     7
420
 16777215
370
    60
100
AcDbVertex
100
AcDb2dVertex
 10
16.87413872612847
 20
16.59362620035808
 30
0.0
  0
VERTEX
  5
FD
330
E6
100
AcDbEntity
  8
Layer 1
 62
     7
420
 16777215
370
    60
100
AcDbVertex
100
AcDb2dVertex
 10
16.62774997287326
 20
18.46389004177518
 30
0.0
  0
VERTEX
  5
FE
330
E6
100
AcDbEntity
  8
Layer 1
 62
     7
420
 16777215
370
    60
100
AcDbVertex
100
AcDb2dVertex
 10
16.97827826605903
 20
18.46389004177518
 30
0.0
  0
VERTEX
  5
FF
330
E6
100
AcDbEntity
  8
Layer 1
 62
     7
420
 16777215
370
    60
100
AcDbVertex
100
AcDb2dVertex
 10
16.97827826605903
 20
20.51827914767796
 30
0.0
  0
SEQEND
  5
100
330
E6
100
AcDbEntity
  8
Layer 1
 62
     7
420
 16777215
370
    60
  0
POLYLINE
  5
101
330
E2
100
AcDbEntity
  8
Layer 1
 62
     7
420
 16777215
370
    60
100
AcDb2dPolyline
 66
     1
 10
0.0
 20
0.0
 30
0.0
  0
VERTEX
  5
102
330
101
100
AcDbEntity
  8
Layer 1
 62
     7
420
 16777215
370
    60
100
AcDbVertex
100
AcDb2dVertex
 10
22.89334784613715
 20
20.51827914767796
 30
0.0
  0
VERTEX
  5
103
330
101
100
AcDbEntity
  8
Layer 1
 62
     7
420
 16777215
370
    60
100
AcDbVertex
100
AcDb2dVertex
 10
22.89334784613715
 20
20.16827897813586
 30
0.0
  0
VERTEX
  5
104
330
101
100
AcDbEntity
  8
Layer 1
 62
     7
420
 16777215
370
    60
100
AcDbVertex
100
AcDb2dVertex
 10
23.14863925509983
 20
20.16827897813586
 30
0.0
  0
VERTEX
  5
105
330
101
100
AcDbEntity
  8
Layer 1
 62
     7
420
 16777215
370
    60
100
AcDbVertex
100
AcDb2dVertex
 10
23.14863925509983
 20
18.81389021131728
 30
0.0
  0
VERTEX
  5
106
330
101
100
AcDbEntity
  8
Layer 1
 62
     7
420
 16777215
370
    60
100
AcDbVertex
100
AcDb2dVertex
 10
22.91556972927517
 20
18.81389021131728
 30
0.0
  0
VERTEX
  5
107
330
101
100
AcDbEntity
  8
Layer 1
 62
     7
420
 16777215
370
    60
100
AcDbVertex
100
AcDb2dVertex
 10
21.15325080023871
 20
11.6294453599718
 30
0.0
  0
VERTEX
  5
108
330
101
100
AcDbEntity
  8
Layer 1
 62
     7
420
 16777215
370
    60
100
AcDbVertex
100
AcDb2dVertex
 10
19.49504089355469
 20
11.6294453599718
 30
0.0
  0
VERTEX
  5
109
330
101
100
AcDbEntity
  8
Layer 1
 62
     7
420
 16777215
370
    60
100
AcDbVertex
100
AcDb2dVertex
 10
18.4508056640625
 20
15.68102854410808
 30
0.0
  0
VERTEX
  5
10A
330
101
100
AcDbEntity
  8
Layer 1
 62
     7
420
 16777215
370
    60
100
AcDbVertex
100
AcDb2dVertex
 10
17.35101318359375
 20
11.6294453599718
 30
0.0
  0
VERTEX
  5
10B
330
101
100
AcDbEntity
  8
Layer 1
 62
     7
420
 16777215
370
    60
100
AcDbVertex
100
AcDb2dVertex
 10
15.71609666612413
 20
11.6294453599718
 30
0.0
  0
VERTEX
  5
10C
330
101
100
AcDbEntity
  8
Layer 1
 62
     7
420
 16777215
370
    60
100
AcDbVertex
100
AcDb2dVertex
 10
14.00490315755208
 20
18.81389021131728
 30
0.0
  0
VERTEX
  5
10D
330
101
100
AcDbEntity
  8
Layer 1
 62
     7
420
 16777215
370
    60
100
AcDbVertex
100
AcDb2dVertex
 10
13.71047210693359
 20
18.81389021131728
 30
0.0
  0
VERTEX
  5
10E
330
101
100
AcDbEntity
  8
Layer 1
 62
     7
420
 16777215
370
    60
100
AcDbVertex
100
AcDb2dVertex
 10
13.71047210693359
 20
20.16827897813586
 30
0.0
  0
VERTEX
  5
10F
330
101
100
AcDbEntity
  8
Layer 1
 62
     7
420
 16777215
370
    60
100
AcDbVertex
100
AcDb2dVertex
 10
14.06341637505425
 20
20.16827897813586
 30
0.0
  0
VERTEX
  5
110
330
101
100
AcDbEntity
  8
Layer 1
 62
     7
420
 16777215
370
    60
100
AcDbVertex
100
AcDb2dVertex
 10
14.06341637505425
 20
20.51827914767796
 30
0.0
  0
VERTEX
  5
111
330
101
100
AcDbEntity
  8
Layer 1
 62
     7
420
 16777215
370
    60
100
AcDbVertex
100
AcDb2dVertex
 10
13.36047193739149
 20
20.51827914767796
 30
0.0
  0
VERTEX
  5
112
330
101
100
AcDbEntity
  8
Layer 1
 62
     7
420
 16777215
370
    60
100
AcDbVertex
100
AcDb2dVertex
 10
13.36047193739149
 20
18.46389004177518
 30
0.0
  0
VERTEX
  5
113
330
101
100
AcDbEntity
  8
Layer 1
 62
     7
420
 16777215
370
    60
100
AcDbVertex
100
AcDb2dVertex
 10
13.72847239176432
 20
18.46389004177518
 30
0.0
  0
VERTEX
  5
114
330
101
100
AcDbEntity
  8
Layer 1
 62
     7
420
 16777215
370
    60
100
AcDbVertex
100
AcDb2dVertex
 10
15.43966674804688
 20
11.2794460381402
 30
0.0
  0
VERTEX
  5
115
330
101
100
AcDbEntity
  8
Layer 1
 62
     7
420
 16777215
370
    60
100
AcDbVertex
100
AcDb2dVertex
 10
17.61866590711805
 20
11.2794460381402
 30
0.0
  0
VERTEX
  5
116
330
101
100
AcDbEntity
  8
Layer 1
 62
     7
420
 16777215
370
    60
100
AcDbVertex
100
AcDb2dVertex
 10
18.4420420328776
 20
14.31268137613933
 30
0.0
  0
VERTEX
  5
117
330
101
100
AcDbEntity
  8
Layer 1
 62
     7
420
 16777215
370
    60
100
AcDbVertex
100
AcDb2dVertex
 10
19.22381930881076
 20
11.2794460381402
 30
0.0
  0
VERTEX
  5
118
330
101
100
AcDbEntity
  8
Layer 1
 62
     7
420
 16777215
370
    60
100
AcDbVertex
100
AcDb2dVertex
 10
21.42776319715712
 20
11.2794460381402
 30
0.0
  0
VERTEX
  5
119
330
101
100
AcDbEntity
  8
Layer 1
 62
     7
420
 16777215
370
    60
100
AcDbVertex
100
AcDb2dVertex
 10
23.19008382161458
 20
18.46389004177518
 30
0.0
  0
VERTEX
  5
11A
330
101
100
AcDbEntity
  8
Layer 1
 62
     7
420
 16777215
370
    60
100
AcDbVertex
100
AcDb2dVertex
 10
23.49863857693142
 20
18.46389004177518
 30
0.0
  0
VERTEX
  5
11B
330
101
100
AcDbEntity
  8
Layer 1
 62
     7
420
 16777215
370
    60
100
AcDbVertex
100
AcDb2dVertex
 10
23.49863857693142
 20
20.51827914767796
 30
0.0
  0
VERTEX
  5
11C
330
101
100
AcDbEntity
  8
Layer 1
 62
     7
420
 16777215
370
    60
100
AcDbVertex
100
AcDb2dVertex
 10
22.89334784613715
 20
20.51827914767796
 30
0.0
  0
SEQEND
  5
11D
330
101
100
AcDbEntity
  8
Layer 1
 62
     7
420
 16777215
370
    60
  0
ENDBLK
  5
E5
330
E2
100
AcDbEntity
  8
0
100
AcDbBlockEnd
  0
ENDSEC
  0
SECTION
  2
ENTITIES
  0
POLYLINE
  5
41
330
1F
100
AcDbEntity
  8
Layer 1
 62
     7
420
 16777215
370
    60
100
AcDb2dPolyline
 66
     1
 10
0.0
 20
0.0
 30
0.0
  0
VERTEX
  5
42
330
41
100
AcDbEntity
  8
Layer 1
 62
     7
420
 16777215
370
    60
100
AcDbVertex
100
AcDb2dVertex
 10
12.8039304945204
 20
24.23177927652995
 30
0.0
  0
VERTEX
  5
43
330
41
100
AcDbEntity
  8
Layer 1
 62
     7
420
 16777215
370
    60
100
AcDbVertex
100
AcDb2dVertex
 10
12.8039304945204
 20
22.47472378200955
 30
0.0
  0
VERTEX
  5
44
330
41
100
AcDbEntity
  8
Layer 1
 62
     7
420
 16777215
370
    60
100
AcDbVertex
100
AcDb2dVertex
 10
20.9010009765625
 20
22.47472378200955
 30
0.0
  0
VERTEX
  5
45
330
41
100
AcDbEntity
  8
Layer 1
 62
     7
420
 16777215
370
    60
100
AcDbVertex
100
AcDb2dVertex
 10
20.9010009765625
 20
24.23177927652995
 30
0.0
  0
VERTEX
  5
46
330
41
100
AcDbEntity
  8
Layer 1
 62
     7
420
 16777215
370
    60
100
AcDbVertex
100
AcDb2dVertex
 10
12.8039304945204
 20
24.23177927652995
 30
0.0
  0
SEQEND
  5
47
330
41
100
AcDbEntity
  8
Layer 1
 62
     7
420
 16777215
370
    60
  0
POLYLINE
  5
48
330
1F
100
AcDbEntity
  8
Layer 1
 62
     7
420
 16777215
370
    60
100
AcDb2dPolyline
 66
     1
 10
0.0
 20
0.0
 30
0.0
  0
VERTEX
  5
49
330
48
100
AcDbEntity
  8
Layer 1
 62
     7
420
 16777215
370
    60
100
AcDbVertex
100
AcDb2dVertex
 10
19.68855624728733
 20
23.64802886962891
 30
0.0
  0
VERTEX
  5
4A
330
48
100
AcDbEntity
  8
Layer 1
 62
     7
420
 16777215
370
    60
100
AcDbVertex
100
AcDb2dVertex
 10
17.78382025824653
 20
23.64802886962891
 30
0.0
  0
VERTEX
  5
4B
330
48
100
AcDbEntity
  8
Layer 1
 62
     7
420
 16777215
370
    60
100
AcDbVertex
100
AcDb2dVertex
 10
17.78382025824653
 20
23.85802880181207
 30
0.0
  0
VERTEX
  5
4C
330
48
100
AcDbEntity
  8
Layer 1
 62
     7
420
 16777215
370
    60
100
AcDbVertex
100
AcDb2dVertex
 10
19.68855624728733
 20
23.85802880181207
 30
0.0
  0
VERTEX
  5
4D
330
48
100
AcDbEntity
  8
Layer 1
 62
     7
420
 16777215
370
    60
100
AcDbVertex
100
AcDb2dVertex
 10
19.68855624728733
 20
23.64802886962891
 30
0.0
  0
SEQEND
  5
4E
330
48
100
AcDbEntity
  8
Layer 1
 62
     7
420
 16777215
370
    60
  0
POLYLINE
  5
4F
330
1F
100
AcDbEntity
  8
Layer 1
 62
     7
420
 16777215
370
    60
100
AcDb2dPolyline
 66
     1
 10
0.0
 20
0.0
 30
0.0
  0
VERTEX
  5
50
330
4F
100
AcDbEntity
  8
Layer 1
 62
     7
420
 16777215
370
    60
100
AcDbVertex
100
AcDb2dVertex
 10
15.88056945800781
 20
23.64802886962891
 30
0.0
  0
VERTEX
  5
51
330
4F
100
AcDbEntity
  8
Layer 1
 62
     7
420
 16777215
370
    60
100
AcDbVertex
100
AcDb2dVertex
 10
13.98234727647569
 20
23.64802886962891
 30
0.0
  0
VERTEX
  5
52
330
4F
100
AcDbEntity
  8
Layer 1
 62
     7
420
 16777215
370
    60
100
AcDbVertex
100
AcDb2dVertex
 10
13.98234727647569
 20
23.85802880181207
 30
0.0
  0
VERTEX
  5
53
330
4F
100
AcDbEntity
  8
Layer 1
 62
     7
420
 16777215
370
    60
100
AcDbVertex
100
AcDb2dVertex
 10
15.88056945800781
 20
23.85802880181207
 30
0.0
  0
VERTEX
  5
54
330
4F
100
AcDbEntity
  8
Layer 1
 62
     7
420
 16777215
370
    60
100
AcDbVertex
100
AcDb2dVertex
 10
15.88056945800781
 20
23.64802886962891
 30
0.0
  0
SEQEND
  5
55
330
4F
100
AcDbEntity
  8
Layer 1
 62
     7
420
 16777215
370
    60
  0
INSERT
  5
57
330
1F
100
AcDbEntity
  8
Layer 1
100
AcDbBlockReference
  2
block 2
 10
0.0
 20
0.0
 30
0.0
  0
INSERT
  5
8B
330
1F
100
AcDbEntity
  8
Layer 1
100
AcDbBlockReference
  2
block 3
 10
0.0
 20
0.0
 30
0.0
  0
INSERT
  5
A7
330
1F
100
AcDbEntity
  8
Layer 1
100
AcDbBlockReference
  2
block 4
 10
0.0
 20
0.0
 30
0.0
  0
INSERT
  5
E3
330
1F
100
AcDbEntity
  8
Layer 1
100
AcDbBlockReference
  2
block 5
 10
0.0
 20
0.0
 30
0.0
  0
POLYLINE
  5
11E
330
1F
100
AcDbEntity
  8
Layer 1
 62
     7
420
 16777215
370
    70
100
AcDb2dPolyline
 66
     1
 10
0.0
 20
0.0
 30
0.0
  0
VERTEX
  5
11F
330
11E
100
AcDbEntity
  8
Layer 1
 62
     7
420
 16777215
370
    70
100
AcDbVertex
100
AcDb2dVertex
 10
9.65566677517361
 20
31.33379307640924
 30
0.0
  0
VERTEX
  5
120
330
11E
100
AcDbEntity
  8
Layer 1
 62
     7
420
 16777215
370
    70
100
AcDbVertex
100
AcDb2dVertex
 10
9.65566677517361
 20
29.2794042883979
 30
0.0
  0
VERTEX
  5
121
330
11E
100
AcDbEntity
  8
Layer 1
 62
     7
420
 16777215
370
    70
100
AcDbVertex
100
AcDb2dVertex
 10
9.983152601453993
 20
29.2794042883979
 30
0.0
  0
VERTEX
  5
122
330
11E
100
AcDbEntity
  8
Layer 1
 62
     7
420
 16777215
370
    70
100
AcDbVertex
100
AcDb2dVertex
 10
9.451736450195312
 20
27.58726540459527
 30
0.0
  0
VERTEX
  5
123
330
11E
100
AcDbEntity
  8
Layer 1
 62
     7
420
 16777215
370
    70
100
AcDbVertex
100
AcDb2dVertex
 10
8.566180759006077
 20
31.33379307640924
 30
0.0
  0
VERTEX
  5
124
330
11E
100
AcDbEntity
  8
Layer 1
 62
     7
420
 16777215
370
    70
100
AcDbVertex
100
AcDb2dVertex
 10
6.902819315592447
 20
31.33379307640924
 30
0.0
  0
VERTEX
  5
125
330
11E
100
AcDbEntity
  8
Layer 1
 62
     7
420
 16777215
370
    70
100
AcDbVertex
100
AcDb2dVertex
 10
5.709180619981553
 20
27.40914023505317
 30
0.0
  0
VERTEX
  5
126
330
11E
100
AcDbEntity
  8
Layer 1
 62
     7
420
 16777215
370
    70
100
AcDbVertex
100
AcDb2dVertex
 10
5.462777879503038
 20
29.2794042883979
 30
0.0
  0
VERTEX
  5
127
330
11E
100
AcDbEntity
  8
Layer 1
 62
     7
420
 16777215
370
    70
100
AcDbVertex
100
AcDb2dVertex
 10
5.81330574883355
 20
29.2794042883979
 30
0.0
  0
VERTEX
  5
128
330
11E
100
AcDbEntity
  8
Layer 1
 62
     7
420
 16777215
370
    70
100
AcDbVertex
100
AcDb2dVertex
 10
5.81330574883355
 20
31.33379307640924
 30
0.0
  0
VERTEX
  5
129
330
11E
100
AcDbEntity
  8
Layer 1
 62
     7
420
 16777215
370
    70
100
AcDbVertex
100
AcDb2dVertex
 10
2.195500055948893
 20
31.33379307640924
 30
0.0
  0
VERTEX
  5
12A
330
11E
100
AcDbEntity
  8
Layer 1
 62
     7
420
 16777215
370
    70
100
AcDbVertex
100
AcDb2dVertex
 10
2.195500055948893
 20
29.2794042883979
 30
0.0
  0
VERTEX
  5
12B
330
11E
100
AcDbEntity
  8
Layer 1
 62
     7
420
 16777215
370
    70
100
AcDbVertex
100
AcDb2dVertex
 10
2.563513861762153
 20
29.2794042883979
 30
0.0
  0
VERTEX
  5
12C
330
11E
100
AcDbEntity
  8
Layer 1
 62
     7
420
 16777215
370
    70
100
AcDbVertex
100
AcDb2dVertex
 10
4.274708218044704
 20
22.09494608561198
 30
0.0
  0
VERTEX
  5
12D
330
11E
100
AcDbEntity
  8
Layer 1
 62
     7
420
 16777215
370
    70
100
AcDbVertex
100
AcDb2dVertex
 10
4.398513793945312
 20
22.09494608561198
 30
0.0
  0
VERTEX
  5
12E
330
11E
100
AcDbEntity
  8
Layer 1
 62
     7
420
 16777215
370
    70
100
AcDbVertex
100
AcDb2dVertex
 10
4.398513793945312
 20
21.8791545952691
 30
0.0
  0
VERTEX
  5
12F
330
11E
100
AcDbEntity
  8
Layer 1
 62
     7
420
 16777215
370
    70
100
AcDbVertex
100
AcDb2dVertex
 10
6.290944417317708
 20
21.8791545952691
 30
0.0
  0
VERTEX
  5
130
330
11E
100
AcDbEntity
  8
Layer 1
 62
     7
420
 16777215
370
    70
100
AcDbVertex
100
AcDb2dVertex
 10
6.290944417317708
 20
22.09494608561198
 30
0.0
  0
VERTEX
  5
131
330
11E
100
AcDbEntity
  8
Layer 1
 62
     7
420
 16777215
370
    70
100
AcDbVertex
100
AcDb2dVertex
 10
6.453708224826388
 20
22.09494608561198
 30
0.0
  0
VERTEX
  5
132
330
11E
100
AcDbEntity
  8
Layer 1
 62
     7
420
 16777215
370
    70
100
AcDbVertex
100
AcDb2dVertex
 10
7.277069091796875
 20
25.12819583468968
 30
0.0
  0
VERTEX
  5
133
330
11E
100
AcDbEntity
  8
Layer 1
 62
     7
420
 16777215
370
    70
100
AcDbVertex
100
AcDb2dVertex
 10
8.058847215440538
 20
22.09494608561198
 30
0.0
  0
VERTEX
  5
134
330
11E
100
AcDbEntity
  8
Layer 1
 62
     7
420
 16777215
370
    70
100
AcDbVertex
100
AcDb2dVertex
 10
8.201791551378038
 20
22.09494608561198
 30
0.0
  0
VERTEX
  5
135
330
11E
100
AcDbEntity
  8
Layer 1
 62
     7
420
 16777215
370
    70
100
AcDbVertex
100
AcDb2dVertex
 10
8.201791551378038
 20
21.8791545952691
 30
0.0
  0
VERTEX
  5
136
330
11E
100
AcDbEntity
  8
Layer 1
 62
     7
420
 16777215
370
    70
100
AcDbVertex
100
AcDb2dVertex
 10
10.09422217475043
 20
21.8791545952691
 30
0.0
  0
VERTEX
  5
137
330
11E
100
AcDbEntity
  8
Layer 1
 62
     7
420
 16777215
370
    70
100
AcDbVertex
100
AcDb2dVertex
 10
10.09422217475043
 20
22.09494608561198
 30
0.0
  0
VERTEX
  5
138
330
11E
100
AcDbEntity
  8
Layer 1
 62
     7
420
 16777215
370
    70
100
AcDbVertex
100
AcDb2dVertex
 10
10.26280551486545
 20
22.09494608561198
 30
0.0
  0
VERTEX
  5
139
330
11E
100
AcDbEntity
  8
Layer 1
 62
     7
420
 16777215
370
    70
100
AcDbVertex
100
AcDb2dVertex
 10
12.02511088053385
 20
29.2794042883979
 30
0.0
  0
VERTEX
  5
13A
330
11E
100
AcDbEntity
  8
Layer 1
 62
     7
420
 16777215
370
    70
100
AcDbVertex
100
AcDb2dVertex
 10
12.33368089463976
 20
29.2794042883979
 30
0.0
  0
VERTEX
  5
13B
330
11E
100
AcDbEntity
  8
Layer 1
 62
     7
420
 16777215
370
    70
100
AcDbVertex
100
AcDb2dVertex
 10
12.33368089463976
 20
31.33379307640924
 30
0.0
  0
VERTEX
  5
13C
330
11E
100
AcDbEntity
  8
Layer 1
 62
     7
420
 16777215
370
    70
100
AcDbVertex
100
AcDb2dVertex
 10
9.65566677517361
 20
31.33379307640924
 30
0.0
  0
SEQEND
  5
13D
330
11E
100
AcDbEntity
  8
Layer 1
 62
     7
420
 16777215
370
    70
  0
ENDSEC
  0
SECTION
  2
OBJECTS
  0
DICTIONARY
  5
C
330
0
100
AcDbDictionary
281
     1
  3
ACAD_GROUP
350
D
  3
ACAD_LAYOUT
350
1A
  3
ACAD_MATERIAL
350
3B
  3
ACAD_MLEADERSTYLE
350
13F
  3
ACAD_MLINESTYLE
350
17
  3
ACAD_PLOTSETTINGS
350
19
  3
ACAD_PLOTSTYLENAME
350
E
  3
ACAD_TABLESTYLE
350
13E
  3
ACAD_VISUALSTYLE
350
2A
  0
SUN
  5
3F
330
29
100
AcDbSun
 90
        1
290
     0
 63
     7
421
 16777215
 40
1.0
291
     1
 91
  2455826
 92
 54000000
292
     0
 70
     2
 71
   256
280
     1
  0
DICTIONARY
  5
D
102
{ACAD_REACTORS
330
C
102
}
330
C
100
AcDbDictionary
281
     1
  0
DICTIONARY
  5
1A
102
{ACAD_REACTORS
330
C
102
}
330
C
100
AcDbDictionary
281
     1
  3
Layout1
350
1E
  3
Layout2
350
26
  3
Model
350
22
  0
DICTIONARY
  5
3B
102
{ACAD_REACTORS
330
C
102
}
330
C
100
AcDbDictionary
281
     1
  3
ByBlock
350
3D
  3
ByLayer
350
3C
  3
Global
350
3E
  0
DICTIONARY
  5
13F
102
{ACAD_REACTORS
330
C
102
}
330
C
100
AcDbDictionary
281
     1
  0
DICTIONARY
  5
17
102
{ACAD_REACTORS
330
C
102
}
330
C
100
AcDbDictionary
281
     1
  3
Standard
350
18
  0
DICTIONARY
  5
19
102
{ACAD_REACTORS
330
C
102
}
330
C
100
AcDbDictionary
281
     1
  0
ACDBDICTIONARYWDFLT
  5
E
102
{ACAD_REACTORS
330
C
102
}
330
C
100
AcDbDictionary
281
     1
  3
Normal
350
F
100
AcDbDictionaryWithDefault
340
F
  0
DICTIONARY
  5
13E
102
{ACAD_REACTORS
330
C
102
}
330
C
100
AcDbDictionary
281
     1
  0
DICTIONARY
  5
2A
102
{ACAD_REACTORS
330
C
102
}
330
C
100
AcDbDictionary
281
     1
  3
2dWireframe
350
2F
  3
3D Hidden
350
31
  3
3dWireframe
350
30
  3
Basic
350
32
  3
Brighten
350
36
  3
ColorChange
350
3A
  3
Conceptual
350
34
  3
Dim
350
35
  3
Facepattern
350
39
  3
Flat
350
2B
  3
FlatWithEdges
350
2C
  3
Gouraud
350
2D
  3
GouraudWithEdges
350
2E
  3
Linepattern
350
38
  3
Realistic
350
33
  3
Thicken
350
37
  0
LAYOUT
  5
1E
102
{ACAD_REACTORS
330
1A
102
}
330
1A
100
AcDbPlotSettings
  1

  2
none_device
  4

  6

 40
0.0
 41
0.0
 42
0.0
 43
0.0
 44
0.0
 45
0.0
 46
0.0
 47
0.0
 48
0.0
 49
0.0
140
0.0
141
0.0
142
1.0
143
1.0
 70
   688
 72
     0
 73
     0
 74
     5
  7

 75
    16
 76
     0
 77
     2
 78
   300
147
1.0
148
0.0
149
0.0
100
AcDbLayout
  1
Layout1
 70
     1
 71
     1
 10
0.0
 20
0.0
 11
12.0
 21
9.0
 12
0.0
 22
0.0
 32
0.0
 14
1.000000000000000E+20
 24
1.000000000000000E+20
 34
1.000000000000000E+20
 15
-1.000000000000000E+20
 25
-1.000000000000000E+20
 35
-1.000000000000000E+20
146
0.0
 13
0.0
 23
0.0
 33
0.0
 16
1.0
 26
0.0
 36
0.0
 17
0.0
 27
1.0
 37
0.0
 76
     0
330
1B
  0
LAYOUT
  5
26
102
{ACAD_REACTORS
330
1A
102
}
330
1A
100
AcDbPlotSettings
  1

  2
none_device
  4

  6

 40
0.0
 41
0.0
 42
0.0
 43
0.0
 44
0.0
 45
0.0
 46
0.0
 47
0.0
 48
0.0
 49
0.0
140
0.0
141
0.0
142
1.0
143
1.0
 70
   688
 72
     0
 73
     0
 74
     5
  7

 75
    16
 76
     0
 77
     2
 78
   300
147
1.0
148
0.0
149
0.0
100
AcDbLayout
  1
Layout2
 70
     1
 71
     2
 10
0.0
 20
0.0
 11
0.0
 21
0.0
 12
0.0
 22
0.0
 32
0.0
 14
0.0
 24
0.0
 34
0.0
 15
0.0
 25
0.0
 35
0.0
146
0.0
 13
0.0
 23
0.0
 33
0.0
 16
1.0
 26
0.0
 36
0.0
 17
0.0
 27
1.0
 37
0.0
 76
     0
330
23
  0
LAYOUT
  5
22
102
{ACAD_REACTORS
330
1A
102
}
330
1A
100
AcDbPlotSettings
  1

  2
none_device
  4

  6

 40
0.0
 41
0.0
 42
0.0
 43
0.0
 44
0.0
 45
0.0
 46
0.0
 47
0.0
 48
0.0
 49
0.0
140
0.0
141
0.0
142
1.0
143
1.0
 70
  1712
 72
     0
 73
     0
 74
     0
  7

 75
     0
 76
     0
 77
     2
 78
   300
147
1.0
148
0.0
149
0.0
100
AcDbLayout
  1
Model
 70
     1
 71
     0
 10
0.0
 20
0.0
 11
12.0
 21
9.0
 12
0.0
 22
0.0
 32
0.0
 14
1.000000000000000E+20
 24
1.000000000000000E+20
 34
1.000000000000000E+20
 15
-1.000000000000000E+20
 25
-1.000000000000000E+20
 35
-1.000000000000000E+20
146
0.0
 13
0.0
 23
0.0
 33
0.0
 16
1.0
 26
0.0
 36
0.0
 17
0.0
 27
1.0
 37
0.0
 76
     0
330
1F
331
29
  0
MATERIAL
  5
3D
102
{ACAD_REACTORS
330
3B
102
}
330
3B
100
AcDbMaterial
  1
ByBlock
 72
     1
 94
      127
  0
MATERIAL
  5
3C
102
{ACAD_REACTORS
330
3B
102
}
330
3B
100
AcDbMaterial
  1
ByLayer
 72
     1
 94
      127
  0
MATERIAL
  5
3E
102
{ACAD_REACTORS
330
3B
102
}
330
3B
100
AcDbMaterial
  1
Global
 72
     1
 94
      127
  0
MLINESTYLE
  5
18
102
{ACAD_REACTORS
330
17
102
}
330
17
100
AcDbMlineStyle
  2
Standard
 70
     0
  3

 62
   256
 51
90.0
 52
90.0
 71
     2
 49
0.5
 62
   256
  6
BYLAYER
 49
-0.5
 62
   256
  6
BYLAYER
  0
ACDBPLACEHOLDER
  5
F
102
{ACAD_REACTORS
330
E
102
}
330
E
  0
VISUALSTYLE
  5
2F
102
{ACAD_REACTORS
330
2A
102
}
330
2A
100
AcDbVisualStyle
  2
2dWireframe
 70
     4
177
     2
291
     0
 71
     0
176
     1
 72
     2
176
     1
 73
     0
176
     1
 90
        0
176
     1
 40
-0.6
176
     1
 41
-30.0
176
     1
 62
     5
 63
     7
421
 16777215
176
     1
 74
     1
176
     1
 91
        4
176
     1
 64
     7
176
     1
 65
   257
176
     1
 75
     1
176
     1
175
     1
176
     1
 42
1.0
176
     1
 92
        0
176
     1
 66
   257
176
     1
 43
1.0
176
     1
 76
     1
176
     1
 77
     6
176
     1
 78
     2
176
     1
 67
     7
176
     1
 79
     5
176
     1
170
     0
176
     1
171
     0
176
     1
290
     0
176
     1
 93
        1
176
     1
 44
0.0
176
     1
173
     0
176
     1
  0
VISUALSTYLE
  5
31
102
{ACAD_REACTORS
330
2A
102
}
330
2A
100
AcDbVisualStyle
  2
3D Hidden
 70
     6
177
     2
291
     0
 71
     1
176
     1
 72
     2
176
     1
 73
     2
176
     1
 90
        0
176
     1
 40
-0.6
176
     1
 41
-30.0
176
     1
 62
     5
 63
     7
421
 16777215
176
     1
 74
     2
176
     1
 91
        2
176
     1
 64
     7
176
     1
 65
   257
176
     1
 75
     2
176
     1
175
     1
176
     1
 42
40.0
176
     1
 92
        0
176
     1
 66
   257
176
     1
 43
1.0
176
     1
 76
     1
176
     1
 77
     6
176
     1
 78
     2
176
     1
 67
     7
176
     1
 79
     3
176
     1
170
     0
176
     1
171
     0
176
     1
290
     0
176
     1
 93
        1
176
     1
 44
0.0
176
     1
173
     0
176
     1
  0
VISUALSTYLE
  5
30
102
{ACAD_REACTORS
330
2A
102
}
330
2A
100
AcDbVisualStyle
  2
3dWireframe
 70
     5
177
     2
291
     0
 71
     0
176
     1
 72
     2
176
     1
 73
     0
176
     1
 90
        0
176
     1
 40
-0.6
176
     1
 41
-30.0
176
     1
 62
     5
 63
     7
421
 16777215
176
     1
 74
     1
176
     1
 91
        4
176
     1
 64
     7
176
     1
 65
   257
176
     1
 75
     1
176
     1
175
     1
176
     1
 42
1.0
176
     1
 92
        0
176
     1
 66
   257
176
     1
 43
1.0
176
     1
 76
     1
176
     1
 77
     6
176
     1
 78
     2
176
     1
 67
     7
176
     1
 79
     5
176
     1
170
     0
176
     1
171
     0
176
     1
290
     0
176
     1
 93
        1
176
     1
 44
0.0
176
     1
173
     0
176
     1
  0
VISUALSTYLE
  5
32
102
{ACAD_REACTORS
330
2A
102
}
330
2A
100
AcDbVisualStyle
  2
Basic
 70
     7
177
     2
291
     1
 71
     1
176
     1
 72
     0
176
     1
 73
     1
176
     1
 90
        0
176
     1
 40
-0.6
176
     1
 41
-30.0
176
     1
 62
     5
 63
     7
421
 16777215
176
     1
 74
     0
176
     1
 91
        4
176
     1
 64
     7
176
     1
 65
   257
176
     1
 75
     1
176
     1
175
     1
176
     1
 42
1.0
176
     1
 92
        8
176
     1
 66
     7
176
     1
 43
1.0
176
     1
 76
     1
176
     1
 77
     6
176
     1
 78
     2
176
     1
 67
     7
176
     1
 79
     5
176
     1
170
     0
176
     1
171
     0
176
     1
290
     0
176
     1
 93
        1
176
     1
 44
0.0
176
     1
173
     0
176
     1
  0
VISUALSTYLE
  5
36
102
{ACAD_REACTORS
330
2A
102
}
330
2A
100
AcDbVisualStyle
  2
Brighten
 70
    12
177
     2
291
     1
 71
     2
176
     1
 72
     2
176
     1
 73
     0
176
     1
 90
        0
176
     1
 40
-0.6
176
     1
 41
-30.0
176
     1
 62
     5
 63
     7
421
 16777215
176
     1
 74
     1
176
     1
 91
        4
176
     1
 64
     7
176
     1
 65
   257
176
     1
 75
     1
176
     1
175
     1
176
     1
 42
1.0
176
     1
 92
        8
176
     1
 66
     7
176
     1
 43
1.0
176
     1
 76
     1
176
     1
 77
     6
176
     1
 78
     2
176
     1
 67
     7
176
     1
 79
     5
176
     1
170
     0
176
     1
171
     0
176
     1
290
     0
176
     1
 93
        1
176
     1
 44
50.0
176
     1
173
     0
176
     1
  0
VISUALSTYLE
  5
3A
102
{ACAD_REACTORS
330
2A
102
}
330
2A
100
AcDbVisualStyle
  2
ColorChange
 70
    16
177
     2
291
     1
 71
     2
176
     1
 72
     2
176
     1
 73
     3
176
     1
 90
        0
176
     1
 40
-0.6
176
     1
 41
-30.0
176
     1
 62
     5
 63
     8
421
  8421504
176
     1
 74
     1
176
     1
 91
        4
176
     1
 64
     7
176
     1
 65
   257
176
     1
 75
     1
176
     1
175
     1
176
     1
 42
1.0
176
     1
 92
        8
176
     1
 66
     8
424
  8421504
176
     1
 43
1.0
176
     1
 76
     1
176
     1
 77
     6
176
     1
 78
     2
176
     1
 67
     7
176
     1
 79
     5
176
     1
170
     0
176
     1
171
     0
176
     1
290
     0
176
     1
 93
        1
176
     1
 44
0.0
176
     1
173
     0
176
     1
  0
VISUALSTYLE
  5
34
102
{ACAD_REACTORS
330
2A
102
}
330
2A
100
AcDbVisualStyle
  2
Conceptual
 70
     9
177
     2
291
     0
 71
     3
176
     1
 72
     2
176
     1
 73
     0
176
     1
 90
        0
176
     1
 40
-0.6
176
     1
 41
-30.0
176
     1
 62
     5
 63
     7
421
 16777215
176
     1
 74
     2
176
     1
 91
        2
176
     1
 64
     7
176
     1
 65
   257
176
     1
 75
     1
176
     1
175
     1
176
     1
 42
40.0
176
     1
 92
        8
176
     1
 66
     7
176
     1
 43
1.0
176
     1
 76
     1
176
     1
 77
     6
176
     1
 78
     2
176
     1
 67
     7
176
     1
 79
     3
176
     1
170
     0
176
     1
171
     0
176
     1
290
     0
176
     1
 93
        1
176
     1
 44
0.0
176
     1
173
     0
176
     1
  0
VISUALSTYLE
  5
35
102
{ACAD_REACTORS
330
2A
102
}
330
2A
100
AcDbVisualStyle
  2
Dim
 70
    11
177
     2
291
     1
 71
     2
176
     1
 72
     2
176
     1
 73
     0
176
     1
 90
        0
176
     1
 40
-0.6
176
     1
 41
-30.0
176
     1
 62
     5
 63
     7
421
 16777215
176
     1
 74
     1
176
     1
 91
        4
176
     1
 64
     7
176
     1
 65
   257
176
     1
 75
     1
176
     1
175
     1
176
     1
 42
1.0
176
     1
 92
        8
176
     1
 66
     7
176
     1
 43
1.0
176
     1
 76
     1
176
     1
 77
     6
176
     1
 78
     2
176
     1
 67
     7
176
     1
 79
     5
176
     1
170
     0
176
     1
171
     0
176
     1
290
     0
176
     1
 93
        1
176
     1
 44
-50.0
176
     1
173
     0
176
     1
  0
VISUALSTYLE
  5
39
102
{ACAD_REACTORS
330
2A
102
}
330
2A
100
AcDbVisualStyle
  2
Facepattern
 70
    15
177
     2
291
     1
 71
     2
176
     1
 72
     2
176
     1
 73
     0
176
     1
 90
        0
176
     1
 40
-0.6
176
     1
 41
-30.0
176
     1
 62
     5
 63
     7
421
 16777215
176
     1
 74
     1
176
     1
 91
        4
176
     1
 64
     7
176
     1
 65
   257
176
     1
 75
     1
176
     1
175
     1
176
     1
 42
1.0
176
     1
 92
        8
176
     1
 66
     7
176
     1
 43
1.0
176
     1
 76
     1
176
     1
 77
     6
176
     1
 78
     2
176
     1
 67
     7
176
     1
 79
     5
176
     1
170
     0
176
     1
171
     0
176
     1
290
     0
176
     1
 93
        1
176
     1
 44
0.0
176
     1
173
     0
176
     1
  0
VISUALSTYLE
  5
2B
102
{ACAD_REACTORS
330
2A
102
}
330
2A
100
AcDbVisualStyle
  2
Flat
 70
     0
177
     2
291
     1
 71
     2
176
     1
 72
     1
176
     1
 73
     1
176
     1
 90
        2
176
     1
 40
-0.6
176
     1
 41
30.0
176
     1
 62
     5
 63
     7
421
 16777215
176
     1
 74
     0
176
     1
 91
        4
176
     1
 64
     7
176
     1
 65
   257
176
     1
 75
     1
176
     1
175
     1
176
     1
 42
1.0
176
     1
 92
        8
176
     1
 66
     7
176
     1
 43
1.0
176
     1
 76
     1
176
     1
 77
     6
176
     1
 78
     2
176
     1
 67
     7
176
     1
 79
     5
176
     1
170
     0
176
     1
171
     0
176
     1
290
     0
176
     1
 93
       13
176
     1
 44
0.0
176
     1
173
     0
176
     1
  0
VISUALSTYLE
  5
2C
102
{ACAD_REACTORS
330
2A
102
}
330
2A
100
AcDbVisualStyle
  2
FlatWithEdges
 70
     1
177
     2
291
     1
 71
     2
176
     1
 72
     1
176
     1
 73
     1
176
     1
 90
        2
176
     1
 40
-0.6
176
     1
 41
30.0
176
     1
 62
     5
 63
     7
421
 16777215
176
     1
 74
     1
176
     1
 91
        4
176
     1
 64
     7
176
     1
 65
   257
176
     1
 75
     1
176
     1
175
     1
176
     1
 42
1.0
176
     1
 92
        0
176
     1
 66
   257
176
     1
 43
1.0
176
     1
 76
     1
176
     1
 77
     6
176
     1
 78
     2
176
     1
 67
     7
176
     1
 79
     5
176
     1
170
     0
176
     1
171
     0
176
     1
290
     0
176
     1
 93
       13
176
     1
 44
0.0
176
     1
173
     0
176
     1
  0
VISUALSTYLE
  5
2D
102
{ACAD_REACTORS
330
2A
102
}
330
2A
100
AcDbVisualStyle
  2
Gouraud
 70
     2
177
     2
291
     1
 71
     2
176
     1
 72
     2
176
     1
 73
     1
176
     1
 90
        2
176
     1
 40
-0.6
176
     1
 41
30.0
176
     1
 62
     5
 63
     7
421
 16777215
176
     1
 74
     0
176
     1
 91
        4
176
     1
 64
     7
176
     1
 65
   257
176
     1
 75
     1
176
     1
175
     1
176
     1
 42
1.0
176
     1
 92
        0
176
     1
 66
     7
176
     1
 43
1.0
176
     1
 76
     1
176
     1
 77
     6
176
     1
 78
     2
176
     1
 67
     7
176
     1
 79
     5
176
     1
170
     0
176
     1
171
     0
176
     1
290
     0
176
     1
 93
       13
176
     1
 44
0.0
176
     1
173
     0
176
     1
  0
VISUALSTYLE
  5
2E
102
{ACAD_REACTORS
330
2A
102
}
330
2A
100
AcDbVisualStyle
  2
GouraudWithEdges
 70
     3
177
     2
291
     1
 71
     2
176
     1
 72
     2
176
     1
 73
     1
176
     1
 90
        2
176
     1
 40
-0.6
176
     1
 41
30.0
176
     1
 62
     5
 63
     7
421
 16777215
176
     1
 74
     1
176
     1
 91
        4
176
     1
 64
     7
176
     1
 65
   257
176
     1
 75
     1
176
     1
175
     1
176
     1
 42
1.0
176
     1
 92
        0
176
     1
 66
   257
176
     1
 43
1.0
176
     1
 76
     1
176
     1
 77
     6
176
     1
 78
     2
176
     1
 67
     7
176
     1
 79
     5
176
     1
170
     0
176
     1
171
     0
176
     1
290
     0
176
     1
 93
       13
176
     1
 44
0.0
176
     1
173
     0
176
     1
  0
VISUALSTYLE
  5
38
102
{ACAD_REACTORS
330
2A
102
}
330
2A
100
AcDbVisualStyle
  2
Linepattern
 70
    14
177
     2
291
     1
 71
     2
176
     1
 72
     2
176
     1
 73
     0
176
     1
 90
        0
176
     1
 40
-0.6
176
     1
 41
-30.0
176
     1
 62
     5
 63
     7
421
 16777215
176
     1
 74
     1
176
     1
 91
        4
176
     1
 64
     7
176
     1
 65
   257
176
     1
 75
     7
176
     1
175
     7
176
     1
 42
1.0
176
     1
 92
        8
176
     1
 66
     7
176
     1
 43
1.0
176
     1
 76
     1
176
     1
 77
     6
176
     1
 78
     2
176
     1
 67
     7
176
     1
 79
     5
176
     1
170
     0
176
     1
171
     0
176
     1
290
     0
176
     1
 93
        1
176
     1
 44
0.0
176
     1
173
     0
176
     1
  0
VISUALSTYLE
  5
33
102
{ACAD_REACTORS
330
2A
102
}
330
2A
100
AcDbVisualStyle
  2
Realistic
 70
     8
177
     2
291
     0
 71
     2
176
     1
 72
     2
176
     1
 73
     0
176
     1
 90
        0
176
     1
 40
-0.6
176
     1
 41
-30.0
176
     1
 62
     5
 63
     7
421
 16777215
176
     1
 74
     1
176
     1
 91
        0
176
     1
 64
     7
176
     1
 65
   257
176
     1
 75
     1
176
     1
175
     1
176
     1
 42
1.0
176
     1
 92
        8
176
     1
 66
     8
424
  7895160
176
     1
 43
1.0
176
     1
 76
     1
176
     1
 77
     6
176
     1
 78
     2
176
     1
 67
     7
176
     1
 79
     5
176
     1
170
     0
176
     1
171
     0
176
     1
290
     0
176
     1
 93
       13
176
     1
 44
0.0
176
     1
173
     0
176
     1
  0
VISUALSTYLE
  5
37
102
{ACAD_REACTORS
330
2A
102
}
330
2A
100
AcDbVisualStyle
  2
Thicken
 70
    13
177
     2
291
     1
 71
     2
176
     1
 72
     2
176
     1
 73
     0
176
     1
 90
        0
176
     1
 40
-0.6
176
     1
 41
-30.0
176
     1
 62
     5
 63
     7
421
 16777215
176
     1
 74
     1
176
     1
 91
        4
176
     1
 64
     7
176
     1
 65
   257
176
     1
 75
     1
176
     1
175
     1
176
     1
 42
1.0
176
     1
 92
       12
176
     1
 66
     7
176
     1
 43
1.0
176
     1
 76
     1
176
     1
 77
     6
176
     1
 78
     2
176
     1
 67
     7
176
     1
 79
     5
176
     1
170
     0
176
     1
171
     0
176
     1
290
     0
176
     1
 93
        1
176
     1
 44
0.0
176
     1
173
     0
176
     1
  0
ENDSEC
  0
EOF
