<?xml version="1.0" encoding="utf-8"?>
<!-- Generator: Adobe Illustrator 25.0.0, SVG Export Plug-In . SVG Version: 6.00 Build 0)  -->
<svg version="1.1" id="Layer_1" xmlns="http://www.w3.org/2000/svg" xmlns:xlink="http://www.w3.org/1999/xlink" x="0px" y="0px"
	 width="1757.935px" height="2326.86px" viewBox="0 0 1757.935 2326.86" style="enable-background:new 0 0 1757.935 2326.86;"
	 xml:space="preserve">
<style type="text/css">
	.st0{fill:none;stroke:#000000;stroke-width:1.7785;stroke-miterlimit:10;}
	.st1{enable-background:new    ;}
	.st2{fill:none;stroke:#000000;stroke-width:1.6621;stroke-miterlimit:10;}
	.st3{fill:none;stroke:#DF00FF;stroke-width:1.6621;stroke-miterlimit:10;}
	.st4{fill:none;stroke:#000000;stroke-width:2;stroke-miterlimit:10;}
</style>
<path class="st0" d="M921.883,582.172V708.68h582.989V582.172H921.883z M1417.576,624.202h-137.141v-15.12h137.141V624.202z
	 M1143.401,624.202h-136.672v-15.12h136.672V624.202z"/>
<g class="st1">
	<path class="st2" d="M278.358,2225.986l-123.206-517.28h-26.496V1560.79h260.482v147.916H363.9l17.74,134.658l85.942-282.575
		h119.762l63.76,269.75l38.263-121.834h-23.579V1560.79h192.817v147.916h-22.216L709.5,2225.986H550.816l-56.288-218.393
		l-59.282,218.393H278.358z"/>
	<polygon class="st2" points="570.344,2200.786 495.159,1909.072 415.974,2200.786 298.261,2200.786 175.054,1683.506 
		153.855,1683.506 153.855,1585.99 363.937,1585.99 363.937,1683.506 335.161,1683.506 375.065,1932.987 486.257,1585.99 
		567.406,1585.99 647.671,1925.572 723.694,1683.506 690.987,1683.506 690.987,1585.99 833.403,1585.99 833.403,1683.506 
		816.622,1683.506 689.735,2200.786 	"/>
</g>
<g class="st1">
	<path class="st3" d="M1111.656,2225.986l-123.206-517.28h-26.496V1560.79h260.482v147.916h-25.238l17.74,134.658l85.942-282.575
		h119.762l63.76,269.75l38.263-121.834h-23.579V1560.79h192.817v147.916h-22.216l-126.887,517.28h-158.684l-56.288-218.393
		l-59.282,218.393H1111.656z"/>
</g>
<g>
	<polygon class="st2" points="414.337,849.544 361.188,849.544 361.188,874.744 389.137,874.744 389.137,972.26 360.361,972.26 
		400.266,1221.741 511.457,874.744 592.606,874.744 672.872,1214.326 748.894,972.26 716.188,972.26 716.188,874.744 
		735.085,874.744 735.085,849.544 690.987,849.544 690.987,997.46 714.566,997.46 676.304,1119.294 612.544,849.544 
		492.782,849.544 406.84,1132.119 389.099,997.46 414.337,997.46 	"/>
	<polygon class="st2" points="840.222,849.544 840.222,874.744 858.604,874.744 858.604,972.26 841.822,972.26 714.935,1489.54 
		595.544,1489.54 520.359,1197.826 441.174,1489.54 323.461,1489.54 200.254,972.26 179.056,972.26 179.056,874.744 
		204.467,874.744 204.467,849.544 153.855,849.544 153.855,997.46 180.352,997.46 303.558,1514.74 460.446,1514.74 
		519.728,1296.347 576.016,1514.74 734.701,1514.74 861.588,997.46 883.804,997.46 883.804,849.544 	"/>
</g>
<g>
	<polygon class="st2" points="1222.436,849.544 1169.287,849.544 1169.287,874.744 1197.236,874.744 1197.236,972.26 
		1168.46,972.26 1208.364,1221.741 1319.556,874.744 1400.704,874.744 1480.97,1214.326 1556.993,972.26 1524.286,972.26 
		1524.286,874.744 1543.184,874.744 1543.184,849.544 1499.086,849.544 1499.086,997.46 1522.665,997.46 1484.402,1119.294 
		1420.642,849.544 1300.88,849.544 1214.938,1132.119 1197.198,997.46 1222.436,997.46 	"/>
	<polygon class="st2" points="1648.321,849.544 1648.321,874.744 1666.702,874.744 1666.702,972.26 1649.921,972.26 
		1523.034,1489.54 1403.643,1489.54 1328.458,1197.826 1249.273,1489.54 1131.559,1489.54 1008.353,972.26 987.154,972.26 
		987.154,874.744 1012.566,874.744 1012.566,849.544 961.954,849.544 961.954,997.46 988.45,997.46 1111.656,1514.74 
		1268.544,1514.74 1327.827,1296.347 1384.115,1514.74 1542.799,1514.74 1669.686,997.46 1691.902,997.46 1691.902,849.544 	"/>
</g>
<polygon class="st4" points="695.208,70.827 695.208,218.743 718.787,218.743 680.525,340.577 616.765,70.827 497.003,70.827 
	411.061,353.402 393.32,218.743 418.558,218.743 418.558,70.827 158.076,70.827 158.076,218.743 184.573,218.743 307.779,736.024 
	316.693,736.024 316.693,751.561 452.948,751.561 452.948,736.024 464.667,736.024 523.949,517.63 580.237,736.024 590.529,736.024 
	590.529,751.561 726.784,751.561 726.784,736.024 738.922,736.024 865.808,218.743 888.025,218.743 888.025,70.827 "/>
</svg>
