<?xml version="1.0" encoding="utf-8"?>
<!-- Generator: Adobe Illustrator 24.2.3, SVG Export Plug-In . SVG Version: 6.00 Build 0)  -->
<svg version="1.1" id="f4e342ce-f771-48c5-9694-4641c416c558"
	 xmlns="http://www.w3.org/2000/svg" xmlns:xlink="http://www.w3.org/1999/xlink" x="0px" y="0px" viewBox="0 0 1152 864"
	 style="enable-background:new 0 0 1152 864;" xml:space="preserve">
<path d="M972.1,433.9c-10.5-30.6-28.4-58.4-35.5-90.1c-3.3-14.9-3.7-30.4-11.9-43.8c-7-11.3-17.1-20-25.4-30.2
	c-4-4.7-7.3-10.1-9.5-15.9c-2.2-6.1-3.4-12.5-4.9-18.9c-3.1-12.6-8.5-24.9-20.9-30.7s-25.8-4.5-38.6-7.5s-22.2-12.6-30-23.1
	s-15.7-22-25.9-31.1c-10.3-9.3-22.4-16.4-35.4-21.2c-13-4.8-26.8-6.5-40.6-5.2c-8.4,0.9-16.7,3-25.1,4.2
	c-17.1,2.6-36.4,4.2-54.6,5.5c-22.2,1.5-44.4,2.4-66.7,3s-44.1,0.7-66.1,0.2c-17.9-0.4-35.9-1-53.7-3l-5-0.6h-1.1l-2.5-0.4l-7.7-1.4
	l-1.1-0.2h-0.2c-29.6-3.4-59.8,8.3-83,26.2c-11.2,8.5-20.8,18.9-28.4,30.7c-6.5,10.4-12.1,23.5-23.2,29.8s-25.9,3.6-38.2,5.1
	c-6.4,0.7-12.8,2.2-18.2,6.1s-11.1,10.6-15.4,16.8c-4.4,6.6-8.2,13.6-11.4,20.8c-3,6.7-5.9,13.3-10.5,19.2
	c-8.6,10.8-19.1,20.2-23.2,33.9c-3.5,11.9-3.6,24.8-5.1,37.1s-8.3,25.5-15.9,36.7s-17.2,23.6-23.1,37c-6.5,15-8.7,31.5-8.6,47.7
	c0.2,14.6,1.7,30,5.9,44c3.2,10.8,8.3,21.2,13.7,31.1c11.3,20.6,25,40,39.4,58.5c3.7,4.9,7.5,9.8,11.6,14.4
	c4.2,4.5,7.6,9.7,10.1,15.3c2.2,5.4,3.4,11.1,4.7,16.7c2.9,12.2,7.5,23.9,13.6,34.9c2.7,5.3,5.8,10.4,9.3,15.3c3,4,6.9,7.2,11.4,9.4
	c5.6,2.9,11.6,5.3,17.7,6.9c2.8,0.8,5.7,1.4,8.6,1.7c3.4,0.1,6.8-0.1,10.2-0.8c12.7-1.8,24.2-6.2,35.4-12.3
	c5.7-3.2,11.4-6.4,17.3-9.3s12.9-5.9,19.2-9.2c12-6.3,23.7-13.9,32.8-24c9.1-10,15.1-22.4,17.3-35.7c2.5-16.9,2-34.2-1.7-50.9
	c-7.1-33.8-24.2-64.4-42.4-93.4c-5-8.1-10.2-16.2-15.4-24.3l-0.2-0.3c-4.2-6.7-8.4-13.5-12.5-20.3c-6.7-11.4-13.3-22.8-17.4-35.2
	c-7.5-22.4-10.4-46.3-12.4-69.7c-1.8-20.9-2.4-41.8-4.1-62.6c-0.5-6-0.8-12.6-2.7-18.4c-2.8-8.6-13.8-14.3-21.8-9
	c-5.3,3.5-8,10-9.2,16c-1.6,8.4-2.7,16.9-3.4,25.4c-1.6,17.2-1,34.5,1.7,51.5c5.7,33.6,23.3,62.4,43.5,89.2
	c9.6,12.8,19.8,25.3,29.6,38l0,0c15.2,23.9,31,47.4,42.8,73.2c7,15,12,30.8,15.1,47c2.7,15.4,3.4,32.1-0.4,47.3
	c-6.3,25.6-29.5,40.7-51.9,51.3c-6.2,2.9-12.4,5.6-18.4,8.9s-10.1,5.7-15.4,8.4c-4.8,2.5-9.8,4.5-15,6c-6.1,1.7-13.1,3.5-19.4,3.2
	c-4.8-0.2-10.6-2.3-15.3-4.1c-2.7-1-5.3-2.2-7.8-3.6c-1.9-0.9-3.7-2.1-5.3-3.4c-3.3-3.1-5.8-7.7-8.2-12s-5.2-9.4-7.6-14.3
	c-5.5-11.1-7.2-23-10.8-34.8c-1.8-6.1-4.5-11.9-8-17.1c-2.5-3.5-5.3-6.6-8-9.8c-11.5-13.7-22.2-28.1-32-43
	c-6.6-10-12.9-20.2-18.5-30.8c-4.7-9.1-9.1-18.6-11.4-28.7c-6.6-28.6-7.4-61.8,7.4-88.1c7-12.5,16.1-23.7,23.6-35.9
	c3.6-5.9,6.7-12.2,9-18.8c1.9-5.9,3.2-11.9,3.6-18.1c0.7-6.1,1.2-12.3,1.9-18.4s1.6-11.3,3.2-15.4c5.1-12.7,16.1-21.4,23.7-32.4
	c4.2-6.1,6.8-13,10-19.7c3.2-6.9,7-13.5,11.4-19.6c3.8-5.1,8.4-10.9,14.3-13.4s11.5-2.7,17.2-2.9c12.7-0.6,26.7,0.1,37.6-7.5
	s16.7-19.5,23.4-30.3c14.2-23.2,37.9-40.7,63.7-49c12.5-4.2,25.8-5.8,39-4.5c13.6,3,27.8,3.9,41.7,4.7c20,1.1,40.1,1.4,60.2,1.4
	c42.9-0.1,86-1.6,128.8-5.6c15.8-1.4,31.6-3.5,47.2-6.5c25.6-5.2,52.3,3.1,72.3,19.5c10.5,8.5,18.2,19,26.2,29.8s16.6,21.5,29,27
	s25.7,4.2,38.5,7.4c5.6,1.3,10.9,3.7,14.7,8.2s5.8,10.4,7.2,16.1c3.3,12.4,5.3,24.7,12.9,35.5s17.2,18.8,25,29
	c4.2,5.4,7.3,11.6,9.1,18.2c2,7.3,2.8,14.9,4.1,22.3c2.8,15.7,8.5,30.6,14.8,45.1c12.5,28.8,29,57.8,29.6,90
	c0.2,14-2.5,29.7-12.1,40.5c-5.1,5.8-11.5,10.2-17.1,15.5c-5,4.9-9.5,10.3-13.5,16.1C910.1,572,903,601.7,895,630.2
	c-4.3,15.2-8.8,30.5-15.7,44.8c-3.1,6.4-6.7,12.8-12.3,17.3s-12.3,6.5-19,8.2c-27.6,6.9-57.8,2.2-82.2-12.3
	c-23.1-14-40.2-36-48.1-61.8c-19-61.9,20.2-121.5,51.9-171.4c3.6-5.6,7.1-11.1,10.5-16.8c37.2-50.2,70-107.9,66.5-172.3
	c-0.4-8.7-0.8-18.4-4.3-26.5c-2.9-6.6-9.1-12.8-17-10.3c-1.9,0.6-3.8,2.6-3.6,4.8c5,63.7-9.1,127.5-40.6,183.1
	c-3,5.2-6,10.4-9.1,15.5l-9.3,12.2c-0.7,1-0.8,2.3-0.5,3.5c-28.2,44.6-58.6,89.6-59.3,143.8c-0.4,28.9,9.6,57.1,28.1,79.3
	c18.6,22.2,44.7,36.8,73.4,40.9c14.9,2.2,30.1,1.7,44.8-1.7c7.2-1.7,14.5-4.1,20.8-8.2s11.4-10.2,15.2-17
	c15.5-27.9,20.4-60.3,30.4-90.3c4.6-13.8,10.3-27.2,18.3-39.4c3.7-5.7,8-11,12.8-15.8c5.4-5.4,11.7-9.8,17-15.3
	C986.6,500.7,981.8,462.3,972.1,433.9z M265,254.3C265.3,254.8,265.4,255.4,265,254.3z M250.5,284.8c0.6-7.8,1.7-15.6,3.2-23.3
	c0.7-3.4,2.4-10.2,6.8-10.3h0.2l1.2,0.7l2.8,2l0.2,0.2c0.1,0,0.1,0,0.1,0.1v0c0.6,2,1.1,4,1.4,6l0.3,1.8l0,0
	c0.1,0.4,0.1,0.8,0.2,1.2s0.3,3.4,0.5,5.2c0.4,4.1,0.6,8.2,0.9,12.3c0.6,10,1.1,20,1.7,30.1c1.5,23.3,3.5,46.8,8,69.8
	c1.8,9.3,4.2,18.4,7.2,27.3c-6.6-9.2-12.6-18.9-17.9-28.9C251.9,349.9,247.6,317.5,250.5,284.8L250.5,284.8z M832.1,279.2
	c0.8-12.6,0.8-25.3,0.1-37.9c1.1,2.3,2,4.7,2.5,7.2c1.4,7.5,2.1,15.1,2.1,22.7c0.3,15.4-1.4,30.7-5.1,45.6
	c-3.3,13.7-7.8,27.1-13.6,39.9C825.8,331.5,830.5,305.5,832.1,279.2L832.1,279.2z"/>
</svg>
