<?xml version="1.0" encoding="utf-8"?>
<!-- Generator: Adobe Illustrator 24.2.3, SVG Export Plug-In . SVG Version: 6.00 Build 0)  -->
<svg version="1.1" id="b8f54bf1-2b43-4849-b4c6-9aef5eb27aca"
	 xmlns="http://www.w3.org/2000/svg" xmlns:xlink="http://www.w3.org/1999/xlink" x="0px" y="0px" viewBox="0 0 1152 864"
	 style="enable-background:new 0 0 1152 864;" xml:space="preserve">
<path d="M963.2,473.2c-0.9-8.7-4.8-15.2-10.9-21.2c-2.9-2.9-5.1-5.6-8.6-8c-3.5-2.4-8.5-5.8-12.6-8.8c-7.8-5.6-15.5-11.3-22.8-17.6
	c-14.1-12.2-27-25.8-38.4-40.5c-11.5-14.5-21.3-30.2-29.3-46.9c-8.8-18.1-14.8-37.5-21.8-56.4c-3.5-9.6-6.8-19.6-14.5-26.7
	c-1.5-1.4-2.6-3.2-4.2-4.5c-1.7-1.4-3.5-2.7-5.3-3.9c-4.2-2.6-8.6-4.8-13.3-6.4c-9.6-3.4-19.9-3.1-30-3.7c-4.8-0.2-9.6-0.5-14.3-2.1
	c-4.7-1.6-9.1-3.6-13.4-6.1c-15.7-8.7-30.5-19.1-47-26.1c-18.4-7.7-38.2-9.9-58-8.2c-10.5,1-21,2.5-31.4,4.6c-4.6,0.9-10,3-14.7,2.5
	c-1.9-0.3-3.8-0.8-5.6-1.4c-2.7-0.7-5.4-1.3-8.1-1.6c-20-3-40.3-5.5-60.5-3.6c-10.1,0.8-20.1,2.9-29.6,6.3
	c-9.8,3.6-19.3,7.9-29.1,11.4c-9.8,3.5-19.6,6.7-29.7,8c-10.1,1.3-20.5-0.2-30.6-0.5c-4.5-0.1-9.4-0.3-13.7,0.8
	c-4.1,1.1-8.1,2.7-11.9,4.6c-3.7,1.8-7,4.4-9.8,7.4c-3.3,3.9-6,8.4-9.1,12.5c-1.4,1.9-3.2,3.1-5,4.6c-1.7,1.4-3.1,3.1-4.2,5.1
	c-2.7,4.3-5.5,8.4-8.5,12.5c-5.6,7.5-11.8,14.6-18.4,21.2c-3,3-6.1,5.9-9,9.1c-3.1,3.6-6.3,7.1-9.8,10.3c-3.2,2.8-7,4.4-10.1,7.6
	c-3.1,3.2-7.2,7.3-11,10.8c-7.2,6.5-14.8,12.6-22.5,18.6c-1.8,1.2-3.5,2.6-5.1,4.2c-1.3,1.5-2.1,3-3.6,4.3c-4,3.6-8.3,6.9-12.4,10.5
	c-7.6,6.6-15,13.4-22.2,20.4c-6.7,6.5-13.3,13-18.3,21c-10,16.3-11.6,35.8-6.9,54c2.6,10.1,6.8,19.9,10.4,29.6s7.1,19.9,10.7,29.9
	c7,19.6,14.3,39.1,22.3,58.3c4,9.7,8.2,19.3,12.2,28.9s6.7,17.7,10.9,26.1c4.2,8.4,9.3,16.8,16.2,23.3c6.9,6.5,13.9,11.5,22.3,11.6
	c8.4,0.1,15.5-4.7,20.3-10.8c5.9-7.6,7.9-17.6,9.2-26.8c2.9-21,0.1-41.7-1.4-62.7c0-0.4-0.1-0.8-0.1-1.2V556
	c0.1-0.7,0.1-1.4,0.2-2.1c0.1-0.7,0.1-0.6,0.1-0.8s0.1-1,0.1-1.2c0.5-2.9,1.1-5.7,1.8-8.6c1.6-6.2,3.7-12.2,5.8-18.2
	s4.4-11.9,6.2-18c1.8-6.1,2.8-11.9,4-17.9c4.6-24.1,7-48.7,12.4-72.6c1.5-6.4,3.2-12.6,5.2-18.8c1-3,2.1-6,3.3-9
	c0.1-0.2,0.2-0.4,0.3-0.7c0.1-0.2,0.2-0.5,0.3-0.6l0.9-2.1l2.1-4.2c4.2-6.3,8.4-12.4,10.6-19.9s2.8-17.4,3-26.1s0.1-17.5,1.9-26
	s4.8-18,14-18.1c6.4-0.2,6.4-10.2,0-10c-19.6,0.4-24.3,23-25.4,38.5c-1.2,17.1,1.5,35.4-8.6,50.4l-3.3,5c-0.3,0.3-0.6,0.7-0.8,1.1
	l-0.3,0.6c-9.4,14.3-18.1,29.1-25.9,44.3c-9,17.4-15.9,34.9-18.6,54.5c-2.7,19.6-1.7,39.4-0.7,59.2c0.4,7.6,0.9,15.1,1.4,22.7
	c0,1.1-0.1,2.2,0,3.3c0,0.6,0.1,1.2,0.4,1.8c0.1,1.2,0.1,2.5,0.2,3.8c0.8,10.1,2.2,20,2.2,30.2s-0.1,20.1-2.2,30
	c-1.8,8.3-4.7,17-12.8,21s-14.6-1.3-20.1-6.3c-7.1-6.3-12.1-14.8-16.1-23.3s-6.8-16.6-10.4-24.9c-3.6-8.3-8.1-19-12-28.6
	c-7.7-18.8-14.9-37.8-21.7-57l-10.8-29.8c-3.3-9.4-7.4-18.7-9.9-28.3c-4.8-18.1-2.3-37.1,9.3-52.2c5.6-7.2,12.8-13.4,19.4-19.6
	s14.9-13.8,22.7-20.3c3.3-2.8,6.5-5.3,9.2-8.7c2.7-3.4,7.2-6.2,10.7-8.9c7.4-5.9,14.7-12,21.6-18.5c3-3,5.8-6.9,9.4-9.2
	c3.6-2.3,7.5-5.1,10.9-8.6c5.9-6.2,11.9-12.4,17.8-18.7c6.5-6.7,12.5-13.9,18-21.4c2.5-3.5,4.9-7.1,7.2-10.7
	c2.3-3.6,6.8-6.5,9.6-10.3c2.8-3.8,5.2-8.4,8.5-11.7s6.9-4.6,10.5-6.1c3.4-1.6,7.1-2.5,10.9-2.6c5.4-0.1,10.8,0.2,16.2,0.5
	c9.9,0.6,19.5,0.7,29.2-1.5c10.1-2.4,20.1-5.4,29.8-9.2c9.3-3.4,18.3-7.8,27.7-10.7c9.5-2.9,19.4-4.5,29.3-4.8
	c7-0.3,14.1-0.2,21.2,0.3c0.4,1.1,1.1,2,2.1,2.7c1.6,0.8,3.1,1.8,4.5,2.9l1.1,0.8l0.8,0.5l0.4,0.4l1.1,0.9c2.6,2.2,5,4.7,7.2,7.4
	l0.8,0.9l0.2,0.2l1.5,2.2c1,1.4,1.9,2.8,2.8,4.3c1.8,2.9,3.4,6,4.7,9.2c0.1,0.4,0.3,0.7,0.5,1.1c-0.6-1.2,0.1,0.1,0.2,0.4l1,2.5
	c0.6,1.6,1.2,3.2,1.7,4.9c1.1,3.4,2.1,6.9,2.9,10.3c0.8,3.4,1.5,6.9,2.1,10.3c0.3,1.7,0.6,3.4,0.8,5.1l0.2,2
	c-0.1-0.7,0.2,0.5,0.2,0.8c0,0.4,0.1,0.9,0.2,1.3c1.2,10.4,1.7,20.8,1.3,31.2c0,2.8,2.2,5,5,5c2.7-0.1,4.9-2.3,5-5
	c0.7-17.2-0.9-34.5-4.7-51.3c-3.2-14.1-8.3-28.2-17.1-39.8c-2.6-3.5-5.6-6.7-8.8-9.6c6.7,0.7,13.6,1.5,19.8,3.4
	c4,1.2,7.9,2.1,12.1,1.6s11.1-2.2,16.6-3.2c6.9-1.4,13.8-2.5,20.8-3.2c-10.2,6.7-16.9,17.3-21.2,28.7c-2.6,6.9-4.2,14.4-5.7,21.7
	s-3.1,15.9-4.1,23.9c-1,8.6-1.4,17.2-1.2,25.9c0.1,2.7,2.3,4.9,5,5c2.8,0,5-2.2,5-5c-0.2-7.5,0.1-15,0.9-22.5
	c0.1-1.8,0.4-3.6,0.6-5.3c0-0.1,0.1-0.8,0.1-1c0-0.4,0.1-0.7,0.2-1.1c0.1-0.9,0.2-1.9,0.4-2.8c0.6-3.7,1.2-7.4,2-11.1
	c1.4-7.5,3.2-14.9,5.4-22.2c0.5-1.3,0.9-2.7,1.4-4s0.3-0.7,0.5-1c0.1-0.1,0.1-0.1,0.1-0.2c0.2-0.7,0.5-1.4,0.9-2.1
	c1.2-2.6,2.6-5.2,4.2-7.6l1.5-2.2c0.1,0,0.3-0.3,0.4-0.5l-0.2,0.4l0.7-0.9c1-1.2,2.1-2.4,3.2-3.5l2-1.8l0.8-0.7h0.2l0.2-0.2
	c1.4-1,2.8-1.9,4.3-2.8c2.4-1.4,3.2-4.4,1.9-6.8c-0.3-0.4-0.6-0.8-0.9-1.1c0.3,0,0.6,0,0.8-0.1c19.3-1.1,38,2,55.4,10.4
	c15.8,7.7,30.1,18.3,45.9,26c3.8,1.9,7.8,3.4,11.9,4.7c4.9,1.3,10,1.5,15,1.8c10,0.6,19.9,0.3,29.3,4.1c8.1,3.1,15,8.5,20,15.6
	c5.6,8.5,8.5,18.4,11.9,27.9c6.7,18.4,13,37,21.9,54.4c16.8,32.5,39.8,61.4,67.7,85c6.9,5.8,14.1,11.3,21.5,16.6l11.3,8
	c2,1.4,4.1,2.6,5.9,4.1c1.4,1.3,2.7,2.8,3.9,4.3c2.6,2.8,5,4.8,6.6,8.4c1.6,3.8,2.1,7.9,1.7,11.9c-0.9,8.4-6.6,16-10.1,23.5
	c-8.1,17.6-14.1,36-19.8,54.4c-5.1,16.7-9.2,34.1-16.6,50c-6.5,14.1-16.3,28.3-30.9,35s-38.3,4.4-42.4-13.9c-2-9,1.1-18.7,4.8-26.9
	c0.9-2,2-3.8,2.3-6c0.2-0.8,0.2-1.5,0.2-2.3c1.6-4.6,0.9-9.9,0.2-14.6c-0.8-5.8-1.9-11.5-3.3-17.1c-1.5-6.1-2.4-12.3-3.6-18.4
	c-1.9-10.1-3.9-20.1-5.8-30.1s-3.8-20-5.3-30.1c-0.4-2.5-0.8-5-1.1-7.5l-0.3-1.8c0-0.1-0.1-0.9-0.1-1.1s-0.4-2.5-0.5-3.7
	c-0.6-5.2-1.1-10.3-1.6-15.4c-1.7-20.4-2.2-40.9-6.2-61c-4-20.1-10.9-36.6-18.7-53.9c-0.5-1.1-1-2.1-1.4-3.1
	c-3-11.9-7.5-23.4-13.6-34.1c-4.1-7.2-9-15-15.3-20.6c-6.3-5.6-13.6-7-21.5-3.6c-2.5,1.1-3,4.7-1.8,6.9c1.2,2.2,4.4,2.8,6.8,1.7
	c8.1-3.4,14.5,7.3,18.3,12.8c5.2,7.6,9.5,15.8,12.7,24.4c1.3,3.4,2.4,6.8,3.4,10.3c-0.1,1.2,0.1,2.3,0.6,3.4l0.8,1.8
	c3.1,12.9,4.5,26.1,4.2,39.3c-0.3,20.6-2.5,41.1-2,61.7c0.5,20.6,3.7,39.3,10.7,58s15.2,34.4,23,51.5c4.3,9.1,7.6,18.6,9.8,28.4
	c1.1,4.7,1.6,9.4,1.6,14.2c-0.1,0.7-0.2,1.4-0.1,2.1c-0.6,3.8-3.4,8-4.6,11.6c-5.7,16.5-3.9,38.7,14.4,46.4s35.2,4.4,49.7-6.4
	s21.9-24.2,28.1-39.4c7-17,11.4-35.1,16.9-52.6s12.5-37.8,21.7-55.4C960.8,489.6,964.1,482.1,963.2,473.2z M311.4,438.2
	c3-6.1,6.1-12.2,9.3-18.2c-1.8,8.4-3.2,16.8-4.5,25.2c-1.9,12.4-3.6,24.8-5.9,37.1c-1.1,6-2.2,12-3.7,18c-1.6,6.1-3.5,12-5.7,17.9
	l-2.1,6C297.3,494.8,298.5,465,311.4,438.2z M817.1,520.2c-7.8-16.6-15.1-33.7-18.6-51.8c-3.8-19.9-3.2-40.3-2.2-60.5
	c0.6-11.8,1.4-23.6,1.3-35.4c1.7,5.2,3.2,10.3,4.5,15.6c1.3,5.3,1.9,8.8,2.6,13.3c0.2,1.1,0.3,2.2,0.5,3.3v0.3c0,0.3,0.1,0.7,0.1,1
	l0.3,2c0.3,2.6,0.6,5.1,0.8,7.6c1,10,1.6,20.1,2.4,30.2c1.6,20.4,4.3,40.6,8.1,60.7c1.4,7.4,2.8,14.8,4.3,22.2
	C819.8,525.9,818.4,523.1,817.1,520.2z"/>
</svg>
