<?xml version="1.0" encoding="utf-8"?>
<!-- Generator: Adobe Illustrator 24.2.3, SVG Export Plug-In . SVG Version: 6.00 Build 0)  -->
<svg version="1.1" id="ab106ef5-c30f-4c9f-812c-63787a48a471"
	 xmlns="http://www.w3.org/2000/svg" xmlns:xlink="http://www.w3.org/1999/xlink" x="0px" y="0px" viewBox="0 0 1152 864"
	 style="enable-background:new 0 0 1152 864;" xml:space="preserve">
<path d="M885.6,498.6c-1.2-7.6-3.2-15-5.9-22.2c-2.7-7.5-5.9-14.7-9.5-21.8c-1.8-3.5-3.8-6.9-6.1-10.2c0.8-1.1,1.2-2.5,1.2-3.9
	c0-0.1-0.1-0.2-0.1-0.3c3.1-3.9,5.2-8.5,5.8-13.5c0.9-7.4-3.1-14.1-7.6-19.6s-9.5-9.4-14.9-13.3l-4-2.9l-2.1-1.5l-0.8-0.6l-1-0.8
	l-0.6-0.4l-0.8-0.7l-1.6-1.4c-1.2-1.1-2.3-2.3-3.4-3.5l-0.3-0.4l-0.5-0.6l-1.2-1.8l-0.9-1.7c-0.1-0.2-0.2-0.4-0.2-0.6
	c-0.2-0.2-0.3-0.5-0.4-0.8c-0.2-0.7-0.4-1.4-0.5-2.1c-0.1-0.2-0.1-0.3-0.1-0.5c-0.1-0.3-0.1-0.5-0.1-0.8c-0.1-0.8-0.1-1.5-0.1-2.3
	c0-0.3,0.1-0.6,0.1-1v-0.2c0.1-0.2,0.1-0.4,0.1-0.6l0.3-1c0.1-0.2,0.2-0.5,0.3-0.7v-0.3l0.5-0.7c0,0,0,0.1-0.1,0.1
	c0.1-0.1,0.2-0.3,0.3-0.3l0.6-0.6l0.6-0.6l0.6-0.4c1.1-0.8,2.3-1.5,3.6-2l0.7-0.4l0.5-0.2l0.5-0.2c0.7-0.2,1.4-0.6,2-1
	c3.1-2.1,5.7-5.1,6.2-8.9c0.4-3.6-0.6-7.3-2.8-10.2c-3.9-5.6-8.8-10.4-14.4-14.1c-9.6-6.4-20.8-9.5-32-11.9
	c5.7-7.8,9.1-17.9,2.9-26.2c-4.9-6.5-14-5.6-21.3-6.1s-14.9-0.9-22.4-1.2c-5.5-0.1-10.9-0.2-16.4,0.1c0-0.1,0-0.1-0.1-0.2
	c2.8-6.3,4.4-12.9,1.7-19.7c-2.7-6.8-8.4-10.1-15.5-10.5c-7.1-0.4-11.4,1.1-17,2.1h-1l-1.9,0.2h-2.8c0.5,0.5,0.3,0.3,0,0h-0.2h-0.1
	c-0.3-0.2-0.3-0.3,0.1,0c0.1-0.5,0.2-0.9,0.4-1.4c1.7-5.2,4.5-10.3,6.8-15.3s4-9.3,1.2-13.7c-2.8-4.4-9.4-3.2-14-1
	c-3.8,2-7.5,4.2-11,6.8c-6.9,5.1-13.2,11-20.5,15.5c-3.4,2.3-7.1,4-11,5.1c-1.3,0.4-2.6,0.6-4,0.5l-1.1-0.3h-0.6
	c-0.5-0.3-0.1-0.1-0.1-0.3c0.5-3.6,2.2-5.9,4.7-8.4c1.2-1.1,2.4-2,3.7-2.9c1.6-1.2,3.3-2.2,5-3.2c6.1-3.7,12.4-7.6,16.5-13.4
	c0.8-1,1.4-2.1,1.9-3.2c0.1-0.2,0.2-0.3,0.2-0.5c0.4-1,0.5-2.2,0.3-3.3c-0.3-1.8-1.7-3.2-3.5-3.5h-1.3c-16.6-0.8-31.7,6.8-44.9,16.2
	l-4.2,3.2c-1.8,1.3-3.6,3.1-5.5,4.3c-1.7,0.8-3.7,0.3-4.8-1.2c-1.8-2.1-2.1-6.4-2.1-9.3c0-3.6,0.6-7.1,1.7-10.5
	c1.3-3.8,3.3-7.4,5.9-10.5c1.6-2,3.3-3.6,3.9-6.2s0.1-4,0.1-6.1c-0.1-2.7-2.3-4.9-5-5c-6.8,0.1-12.7,3.1-18,7
	c-5.3,3.9-10.8,8-15.1,13.3c-4.4,5.1-8,10.8-10.7,17c-1.3,2.7-2,6-4,8.3l-1,1c-0.2-0.2-0.8-0.4-0.9-0.6c-0.6-0.4-1.2-0.9-1.8-1.5
	c-4.3-4.2-6.2-10.3-8.2-15.9c-1.1-3.2-2.3-6.4-3.7-9.6c-1.3-2.5-2.9-4.8-4.9-6.8c-2.1-2.3-4.8-4.3-8.1-4.3s-6.6,2.6-8.4,5.4
	c-1.3,2.4-2.3,5.1-2.9,7.8c-0.9,3.2-1.7,6.4-2.2,9.7c-1,7.4-1.4,14.8-2.5,22.2c-0.4,2.3-0.8,5.5-3,6.8h-0.3l-1.4-0.3
	c-1.1-0.3-2.2-0.8-3.2-1.4c-4.1-2.5-7.3-6.8-10.2-10.9c-2.9-4.1-6.6-10-11.4-13.8s-12.2-7.1-19.5-5.1s-9.5,7-11.6,12.5
	c-0.9,2.5-1.5,5.1-1.9,7.8c-0.5,3.3-0.3,6.4-1.5,9.6s-1.8,4.3-3.6,5.3c-2.4,1.4-5.2,2-7.9,1.7c-3.7-0.1-7.4-1.3-11-2
	c-3.6-0.7-7.4-1.6-11.1-2.2c-7.8-1.3-15.8-2.1-23.7-1.3c-6.3,0.7-12.8,3.4-16.2,8.9s-2.3,14.1,0.3,20.3c0.1,0.3,0.2,0.5,0.4,0.7
	l-0.2,0.2c-13.7-0.9-27.3-0.1-41.1,1.3c-4.1,0.3-9,0.2-12.9,1.6c-2.1,0.6-4.1,1.7-5.7,3.2c-1.5,1.5-2.6,3.3-3.3,5.3
	c-1.3,3.4-1.5,7-0.6,10.5c0.5,1.8,1.2,3.6,2,5.3c0.9,1.8,2.2,3.5,3.8,4.8l0.8,1.6l-0.3,0.2c-10.7,2.5-21.4,5.8-30.8,11.7
	c-6.1,3.9-11.5,9-15.7,14.9c-2.1,2.6-3,5.9-2.5,9.1c0.6,2.6,2,4.9,4,6.7c1.9,1.8,4,3.4,6.3,4.8l2.9,2l0.6,0.4h0.1
	c0.3,0.2,0.3,0.3,0.2,0.3l1.1,0.8l0.5,0.6c0.1,0.3,0.3,0.6,0.5,0.9c0.1,0.3,0.2,0.6,0.3,0.9c0.1,0.3,0.2,0.6,0.2,0.9
	c0.1,0.1,0.1,0.8,0.2,0.9v2.2c-0.1,0.2-0.1,0.4-0.1,0.6l-0.3,1.1l-0.6,1.9c-0.2,0.3-0.3,0.6-0.4,0.9l-0.6,1
	c-0.5,0.9-1.1,1.8-1.7,2.7h-0.1l-1,1.1l-1.6,1.7l-3.4,3.1c-2.3,2-4.8,3.9-7.2,5.8c-4.7,3.7-9.4,7.3-13.4,11.7s-9.4,12.9-10,20.6
	c-0.4,5.7,1.5,11.3,5.2,15.6c-0.2,1.3,0,2.7,0.7,3.9l0.2,0.2c-0.7,0.7-1.3,1.6-1.8,2.5l-4.5,8.8c-3.2,6.3-6.1,12.8-8.7,19.4
	c-4.8,12.7-7.8,26.6-6.3,40.2c0.4,4.1,2.6,7.9,5.9,10.3l0.8,0.5c0.1,1.7,1,3.4,2.3,4.5c-0.1,8,0.1,16,0.8,24
	c0.5,6,1.3,11.9,2.3,17.8c0.9,5.7,2.2,11.4,3.9,16.9c3.6,10.8,8.9,20.8,14.1,30.9c2.3,4.4,4,8.9,8.8,11.1s10.3,2.3,14.5-1
	s6.8-9.6,6.2-15.6c0-0.6-0.2-1.2-0.2-1.8s0.1-0.6,0.1-0.4v-2.3c0.1-1.6,0.1-3.2,0.1-4.8c0-0.9,0-1.9-0.1-2.8
	c1.7-0.1,3.3-0.6,4.8-1.5c4.7-3.1,5.6-9.1,5.7-14.3c0.1-5.2-0.4-10.4-0.4-15.6v-16.6l-0.3-11.4c0.8-0.1,1.6-0.3,2.3-0.6
	c4.9-1.7,8.4-6,9.1-11.1c0.8-5.2-0.1-10.5-0.2-15.7c-0.1-5.2-0.3-12.3-0.3-18.4c0-6.1,0.1-14.3,0.1-21.4c0-2.8-2.2-5-5-5
	c-2.7,0.1-4.9,2.3-5,5c0.1,10.7-0.2,21.4,0,32.1c0,5,0.2,10,0.6,14.9c0.2,1.9,0.2,3.9,0.1,5.8c0,0.3-0.1,0.8-0.1,0.8l-0.2,0.9
	c0,0.2-0.1,0.5-0.2,0.7l-0.6,0.9c0,0.1-0.1,0.2-0.2,0.3l-0.4,0.3l-0.6,0.3l-0.6,0.2c-1-1.7-2.9-2.7-4.9-2.4
	c-2.3,0.3-4.5,2.5-4.3,4.9c0.8,12.5,0.7,25,0.7,37.4c0,3,0.1,6,0.2,9c0.1,1.3,0.2,2.6,0.2,3.9c0,0.8,0,1.5-0.1,2.3
	c0,0.2-0.1,1.5-0.1,1.5s-0.4,1.3-0.5,2c-0.1,0.7,0,0.1-0.1,0.2c0,0,0,0.1-0.1,0.1c0-0.1-0.1,0.1-0.2,0.3h-0.5l-0.5-0.2h-0.1
	l-1.4-0.9c-1.5-1.2-4.1-0.7-5.5,0.4c-1.4,1.1-2.1,3.1-1.8,5.2c0.1,0.5,0.2,2.2,0.3,3.2s0.2,2.8,0.2,4.2s0,5.2-0.1,7.8
	c-0.1,0.8,0,1.7,0.1,2.5h0.1v0.7c0.1,0.5,0.1,1,0,1.5v1.1l-0.3,1.1c0,0.2-0.1,0.5-0.2,0.7l-0.6,1.1c-0.1,0.1-0.2,0.2-0.2,0.4H296
	l-0.7,0.7l-0.2,0.2l-0.8,0.3h-1.9l-1.2-0.3l-0.4-0.2c-0.4-0.2-1.2-1-0.4-0.2l-0.7-0.7c0-0.1,0-0.1-0.1-0.1c-0.3-0.6-0.6-1.2-0.9-1.8
	l-3.3-6.5c-4.7-9-9.1-17.4-12.1-26.7c-1.5-5.1-2.7-10.3-3.6-15.6c-0.9-5.2-1.5-9.5-2-14.8c-1-11.7-1.3-23.4-0.7-35.1
	c0-0.6-0.1-1.2-0.3-1.7c0-0.1-0.1-0.1-0.1-0.2l-0.3-0.6c0-0.1-0.1-0.1-0.1-0.2c-0.7-1-1.7-1.8-2.9-2.1l-1.3-0.2h-1l-0.6,0.2h-0.1
	l-1.2,0.7l-0.3,0.2l-0.4-0.6l-0.3-0.6c-0.1-0.2-0.2-0.5-0.2-0.7c0-0.1-0.1-0.2-0.1-0.4c0-0.2-0.1-0.6-0.1-0.7c0-0.1-0.1-0.7-0.1-1.1
	c-0.1-0.8-0.1-1.7-0.1-2.5c-0.1-3.1,0-6.1,0.3-9.2c0-0.7,0.1-1.4,0.2-2.1c0-0.1,0-0.2,0.1-0.3c0-0.4,0.1-0.8,0.1-1.1
	c0-0.3,0.5-2.9,0.8-4.3c2.6-12,7.3-22.4,12.8-33.3l2.4-4.7l1.1-2.2c0.2-0.3,0.4-0.6,0.5-1c0.1,0,0.5-0.8,0.4-0.7
	c-0.1,0.1,2.2-2.3,3.1-3.6c1.1-1.4,1.9-3,2.5-4.7c0.1-0.1,0.1-0.1,0.1-0.2c0.6-2.2-0.3-4.6-2.3-5.7l-1.2-0.8h-0.3l-1.6-1.5l-0.9-1
	h-0.1c-0.5-0.7-0.9-1.4-1.3-2.2c-0.1-0.1-0.4-1-0.4-0.8v-0.4c-0.2-0.7-0.4-1.4-0.6-2.1V422c0-0.1,0-0.1-0.1-0.2V421
	c-0.1-0.9-0.1-1.7,0-2.6h0.1c0.1-0.4,0.2-0.7,0.3-1.1c0.2-0.7,0.4-1.4,0.7-2.1c0.1-0.3,0.2-0.7,0.4-1l1.1-2.2
	c0.7-1.2,1.4-2.4,2.2-3.5l0.5-0.7h0.1c0-0.1,0-0.1,0.1-0.1l1.4-1.8c4-4.1,8.3-7.9,12.9-11.3c4.7-3.7,9.7-7.3,13.5-11.8
	s8.3-13.4,6.6-21.3c-0.6-3.3-2.3-6.4-4.8-8.7c-2.1-1.6-4.2-3.2-6.4-4.6l-2.7-1.9H299c-0.1-0.2-0.3-0.3-0.5-0.4l-1.3-1.2
	c-0.1-0.2-0.2-0.3-0.4-0.4c0-0.2-0.1-0.3-0.2-0.5c-0.1-0.2-0.1,0.2-0.1-0.1h-0.1v-0.2c0.1,0,0.1,0,0.1,0.1v-0.2h0.1
	c0.3-0.5,0.6-1,1-1.5c0.2-0.2,0.4-0.5,0.5-0.8l0.2-0.2l0.2-0.3l1.7-2l3.3-3.3l1.7-1.5l0.9-0.7l0.2-0.2h0.2c2.8-2.1,5.8-3.9,9-5.5
	l2.3-1.1l1.2-0.6h0.2l0.3-0.2l5.1-1.9c4.7-1.5,9.4-2.8,14.1-3.9c2.1-0.2,4.1-0.6,6.1-1.3l0.5-0.2c1.9-0.5,3.3-2.1,3.6-4
	c0.9-1.9,0.5-4.1-1-5.5c-1-0.8-1.9-1.7-2.8-2.7c-1.2-1.5-1.6-3.2-2.9-4.6c-1-0.9-1.9-2.1-2.5-3.3c-0.4-1.2-0.7-2.5-0.9-3.8
	c-0.2-2.5,0.7-4.6,3.2-5.5c1.6-0.4,3.2-0.6,4.9-0.7l6.3-0.6c14.3-1.3,28.9-2.4,43.2-0.9h0.4c1.6,0.3,3.3,0.5,5,0.5
	c1.5,0.1,2.9-0.5,3.8-1.7c0.3-0.3,0.6-0.8,0.8-1.2c0.8-1.5,0.7-3.3-0.3-4.6c-2.7-4.8-6.6-10.7-6-16.5c0-2,1.2-3.9,3-4.8
	c2-1.3,4.4-2,6.8-2.2c7.2-0.5,14.4,0,21.4,1.3c7.5,1.4,15.1,3.8,22.7,4.3c7.6,0.5,13.7-1.8,17.8-7.2s4.9-11.4,5.4-17.6
	c0.3-2.5,0.9-4.9,1.9-7.2c0.4-1,0.9-1.9,1.5-2.8c0.4-0.6,0.9-1.2,1.5-1.7c1.7-1.1,3.7-1.5,5.7-1.1c2.5,0.7,4.8,2,6.7,3.8
	c2,1.7,3.8,3.7,5.3,5.9l4.7,6.8c3.4,4.6,7.1,9.1,12,12.3c2.4,1.6,5,2.6,7.8,3.2c3.6,0.7,7.3-0.5,9.9-3c5.6-5,5.8-13.2,6.5-20.1
	s0.6-14.1,2.8-20.4c0.7-2.1,1.3-5.1,2-6.6c0.1-0.4,0.4-0.8,0.7-1.1c1.6,1.5,2.9,3.3,3.9,5.3c1.2,2.7,2.2,5.4,3.1,8.2
	c2.2,6.3,4.6,12.4,8.8,17.7s12.4,10.1,18.3,4.3c2.4-2.4,4.3-5.2,5.4-8.4c5.6-14.1,15.8-25.9,29-33.4l-1.1,1.5
	c-2.5,3.6-4.5,7.5-5.9,11.7c-1.3,4-2,8.3-2,12.5c0,4.4,0.6,9.5,2.6,13.5c1.9,3.6,5.2,6.2,9.1,7.3c4.7,1.3,8.9-0.2,12.6-3.1
	c6.5-5.7,13.5-10.7,20.9-15c4.4-2.4,9.1-4.2,14-5.3c-2,1.4-4.1,2.7-6.4,4.1c-6.1,3.7-12.6,7.9-16.1,14.4c-2.3,4.2-3.9,9.7-1.4,14.1
	s7,5.7,11.5,5.7c8.6-0.1,17.2-5.3,24-10.3s13.4-11.1,20.8-15.7c1.7-1.1,3.4-2.1,5.2-3l-0.2,0.3c-1.3,2.9-2.6,5.8-3.8,8.7
	c-2.2,4.9-6.1,10.8-4.5,16.4c1,3.1,3.5,5.6,6.6,6.6c5.1,1.9,11.1,0.2,16.2-0.7l2.1-0.4h1.1l1-0.2c1.3-0.1,2.7-0.3,4.1-0.3h2.2l1,0.2
	l1.1,0.4h0.2c0.3,0.2,1.2,0.9,1.1,0.7c-0.1-0.2,0.3,0.2,0.4,0.4c0.1,0.2,0.4,0.3,0.5,0.5l0.4,0.5l0.6,1.1c0,0.1,0.1,0.2,0.1,0.3
	s0.3,1.1,0.5,1.7c0.3,1.1,0.3,2.3,0.2,3.4c-0.5,5.1-3.6,9.9-6.1,14.2c-1,1.6-1,3.7,0.2,5.2c0.3,0.5,0.7,1,1.2,1.4
	c0.8,0.7,1.9,1.1,3,1l3.4-0.3c15.3-1.2,30.6,0,45.9,0.9l6.1,0.4c1.5,0.1,3.1,0,4.5,0.9c1.4,0.9,2.3,3.4,2.2,5.5
	c-0.3,5.1-4.5,10.4-8.2,14c-1.6,1.4-2,3.7-1,5.6c0.3,1.9,1.7,3.5,3.6,3.9c6.2,1.4,12.4,2.7,18.5,4.5c2.9,0.8,5.7,1.8,8.5,2.9
	l0.7,0.3l1,0.5l2.2,1c1.4,0.7,2.8,1.5,4.2,2.4c1.2,0.7,2.4,1.5,3.5,2.4l0.4,0.3l0.8,0.7l2,1.8c2.3,2,4.3,4.3,5.9,6.9l0.6,1.1
	c0.1,0.1,0.2,0.3,0.2,0.4l0.3,1c0,0.1-0.1,0.1-0.1,0.2v0.2c0.1,0.2,0.1,0.3,0,0.4v-0.2c-0.1,0-0.1,0-0.1,0.1l-0.3,0.4l-0.6,0.6
	l-0.2,0.3h-0.2l-0.4,0.2h0.3l-1.8,0.8c-1.4,0.5-2.7,1.2-4,1.9c-6.8,3.3-10.6,10.6-9.6,18.1c0.5,7.2,4.1,13.5,9.1,18.5
	s11,8.7,16.6,12.9l0.7,0.5l0.8,0.6l2,1.7l3.9,3.6l3.3,3.6v0.2l0.8,1.1l1.5,2.3c0.5,0.9,0.9,1.7,1.3,2.6c0.2,0.3,0.4,0.5,0.5,0.8
	c0.2,0.6,0.2,0.6,0,0.2l0.3,0.9c0,0.3,0.1,0.6,0.2,0.9v0.8c0.1,0.3,0.1,0.6,0,0.9c0,0.2-0.1,1.5-0.1,1.3c-0.1,0.8-0.3,1.6-0.6,2.3
	l-0.3,0.9v0.2c-0.2,0.2-0.3,0.5-0.4,0.8c-0.4,0.8-0.9,1.6-1.4,2.4c-0.2,0.2-0.4,0.5-0.5,0.8l-0.3,0.3l-0.4,0.5l-1.9,2
	c-0.9,0.6-1.8,1.5-2.4,2.4c-0.7,1.3-0.9,2.9-0.5,4.3c0.3,2.3,1.7,4.2,3,6c4.1,6.1,7.6,12.5,10.5,19.3c1.4,3.2,2.6,6,3.9,9.6
	c1.3,3.6,2.4,7,3.4,10.5c2.1,7.4,3.6,14,3.1,21.6c0,1.3-0.2,2.6-0.5,3.9l-0.5,1.4l-0.6,1.1c-0.1,0.1-0.2,0.2-0.2,0.3h-0.1
	c-1-0.7-2.2-1.1-3.4-1h-0.1l-0.7,0.2l-0.7,0.3h-0.1l-0.6,0.4h-0.1c-1.1,0.7-1.9,1.8-2.1,3.1c-0.1,0.2-0.1,0.4-0.1,0.6v0.9l0.3,3.2
	c0.2,1.3,0.3,2.5,0.5,3.7c0.1,0.6,0.4,1.2,0.7,1.7c0.2,4.4,0.1,8.8-0.4,13.2c-0.7,7.6-1.6,14.9-2.7,22.1
	c-2.1,14.1-6.5,27.5-11.9,40.6l-0.6,1.4l-0.3,0.6l-1.5,3.4c-1.1,2.3-2.3,4.5-3.8,6.6h-0.1l-0.2,0.3c-0.1,0.1-0.1,0.1-0.1,0.2
	c0,0.1,0,0.1-0.1,0.1l-1.1,1.2l-1.2,1.2l-0.4,0.3l-0.3,0.2l-0.6,0.3l-0.3,0.2l-0.9,0.2h-1.8l-1.3-0.4H838l-0.3-0.2l-1.3-0.8
	l-0.3-0.2l-0.4-0.4c-0.8-0.7-1.5-1.4-2.1-2.2l-0.6-0.8l-1.2-1.9c-0.6-1-1.1-2-1.6-3c-0.3-0.5-0.6-1.1-0.8-1.7l-0.3-0.6H829
	c-0.7-1.9-1.5-3.9-2.1-5.9c-3.1-10.2-4.7-21.7-11.2-30.3c-1.1-2.6-4.2-4.5-6.2-6.1c-1.1-0.7-2.5-0.9-3.7-0.5
	c-0.9,0.2-1.8,0.7-2.5,1.4l-2,2.1l-0.9,0.8c-0.4-2-1-4-1.4-6c-0.3-1-0.4-2.1-0.4-3.2c-0.2-1.3-0.3-2.7-0.4-4.1
	c-1-11-1.8-21.9-6.7-31.9c-0.9-1.5-2.5-2.5-4.3-2.5c-2.4,0-4.8,0.4-7.1,0.2l-0.7-0.2l-0.5-0.2l-0.6-0.3c-0.3-0.3-0.7-0.5-1.1-0.6
	c-0.1-0.1-0.2-0.3-0.4-0.4l-0.2-0.2l-0.1-0.1l-0.4-0.8c0-0.1-0.1-0.2-0.1-0.3s-0.3-0.9-0.4-1.4v-0.3c-0.1-0.4-0.1-0.9-0.1-1.3
	c-0.1-1-0.1-2,0-3c0.1-0.9,0.1-1.7,0.2-2.6c0.1-0.9,0.1-0.9,0.2-1.3v-0.2V510c0.1,0,0.1-0.1,0.1-0.2c0.4-3,0.8-6.1,1-9.2
	c0.6-5.8,0.8-11.5,1-17.3s0.1-13.2,0.1-19.7c-0.1-2.7-2.3-5.2-5-5c-2.8,0-5,2.2-5,5c0,12.4,0,24.9-1.1,37.3c-0.1,1.5-0.3,3-0.5,4.6
	c0,0.7-0.1,1.4-0.2,2.1l-0.3,1.9c-0.3,2.1-0.5,4.1-0.5,6.2c-0.1,4.7,0.9,9.5,4.1,13.1c2,2.1,4.6,3.6,7.4,4.4
	c2.3,0.4,4.6,0.5,6.9,0.3c1.6,4.2,2.6,8.6,3.2,13c0.7,5.8,1,11.6,1.7,17.4c0.4,2.8,1,5.5,1.6,8.3s1.9,6.1,4.7,7.8
	c2.9,1.8,6.6,1.9,9.6,0.2l1.5-1l2.1,1.1l0.6,0.9c0.7,1.2,1.4,2.4,2,3.6c0.1,0.3,0.2,0.7,0.4,1c0,0.1,0,0.1,0.1,0.2l0.9,2.5
	c1.9,5.6,3,11.4,4.7,17c3,9.9,7.9,21.8,18.3,25.7c5.7,2.1,11.8,0.2,16.2-3.9s6.5-8.7,8.7-13.6c5.7-13,10.5-26.3,13.2-40.2
	c1.8-9,2.8-18.2,3.7-27.4c0.5-5.5,1.1-11.1,0.7-16.7c0.7-1,1-2.1,1-3.3c2.2-1.4,3.9-3.4,5-5.8C887,513.6,886.6,505.8,885.6,498.6z
	 M317.5,526.8l-0.2,0.2C317.3,526.9,317.4,526.9,317.5,526.8z M316.5,527.4c-0.2,0.1-0.3,0.2-0.3,0.1L316.5,527.4z M258.9,511
	C258.9,511,258.9,510.9,258.9,511C258.9,510.9,258.9,511,258.9,511z M296.3,342.5v0.1C296.3,342.5,296.2,342.5,296.3,342.5z"/>
</svg>
