<?xml version="1.0" encoding="utf-8"?>
<!-- Generator: Adobe Illustrator 24.2.3, SVG Export Plug-In . SVG Version: 6.00 Build 0)  -->
<svg version="1.1" id="b716f9db-2519-4170-9d34-ff174e59246c"
	 xmlns="http://www.w3.org/2000/svg" xmlns:xlink="http://www.w3.org/1999/xlink" x="0px" y="0px" viewBox="0 0 1152 864"
	 style="enable-background:new 0 0 1152 864;" xml:space="preserve">
<path d="M988.2,321.3c-1.4-2.1-4.5-3.4-6.9-1.8c-1.2,0.9-2.5,1.7-3.9,2.4l-2,1l-0.8,0.4l-0.9,0.4c-3,1.1-6.1,1.9-9.3,2.4h-1.1
	l-2.4,0.2c-1.6,0.1-3.3,0-4.9-0.1l-2.2-0.2h-0.4l-1-0.2c-1.6-0.3-3.2-0.7-4.7-1.2l-2.4-0.8l-1.1-0.4l-3.4-1.7
	c-2.3-1.2-4.6-2.6-6.7-4.2l-0.7-0.5c0-0.1,0-0.1-0.1-0.1l-1.6-1.3l-3.1-2.8c-2-1.8-3.8-3.6-5.7-5.6c-7.5-7.8-14.3-16.3-22.7-23.2
	c-4.2-3.6-8.8-6.7-13.8-9.1c-6.5-3-13.4-4.7-20.5-5.1c-28.4-1.5-52.7,15.3-75.7,29.3c-5.9,3.5-11.8,6.9-17.9,9.9l-4.3,2
	c0.1-0.1-0.7,0.2-0.9,0.4l-0.9,0.3l-2.4,1l-9.6,3c-12.5,3.3-25.4,4.9-37.4,9.9c-6.3,2.6-12.1,6.2-17.2,10.7
	c-4.3,4.1-8,8.7-11.1,13.8c-6.3,10.3-10.2,22.1-13.3,33.7c-0.7,2.6-1.4,5.2-2,7.7c-0.9,1-1.6,2.3-2,3.6l-0.3,0.2l-0.6,0.5l-2.8,1.9
	l-1.5,0.8c0-0.1,0-0.1,0.1-0.1h-0.5l-0.5,0.2l-1.7,0.5l-0.9,0.2h-0.3c-1.3,0-2.7,0.2-4,0.1h-1.4l-2.5-0.6l-2.7-0.8l-1.4-0.6h-0.4
	l-0.5-0.3c-2.1-1-4.3-1.7-6.5-2.1c-4.1-0.6-8.2,0.3-12.2,1.1l-2.5,0.5l-1.4,0.2h-5.1c-4-0.8-8-1.9-11.9-3.2
	c-7.8-2.5-15.4-5.5-23.4-7c-4.2-0.9-8.6-1.2-12.9-1c-4.4,0.3-8.7,1.1-12.9,2.5c-4.1,1.2-8,2.7-12.1,3.9c-2,0.5-4,1-6,1.3h-0.6
	l-1.6,0.2h-7.5l-1.1-0.2c-2.1-0.3-4.1-0.8-6.1-1.4c-4.2-1.2-8.3-2.7-12.3-4.2s-8.6-3.1-12.9-4.3c-13.9-20.4-30.8-38.5-50.1-53.9
	c-19.7-15.8-41.7-28.6-65.2-38c-13.1-5.2-26.6-9-40.2-12.5l-21.7-5.8c-7.4-2.2-14.5-4.7-22.1-5.6c-14.2-1.6-27.4,5.9-38.9,13.2
	c-11.5,7.3-20,14.4-29.6,22.2l-13.9,11.4c-4.9,3.9-8.5,6.7-13.6,10.4c-4.8,3.5-9.8,6.8-15,9.8c-2.5,1.5-5,2.8-7.6,4.1
	c-1.2,0.7-2.5,1.3-3.8,1.8c-0.6,0.4-1.3,0.7-2,0.9h-0.2L175,342c-2.7,1.1-5.4,2-8.2,2.9c-2.7,0.8-4.2,3.5-3.4,6.2
	c0.3,1.2,1.1,2.3,2.2,2.9c17.3,12.4,39.5,13.6,59.9,10.4c5.1-0.9,10-2,15-3.4l1,0.5l15.9,4.9c-8.5,3-16.4,7.2-23.6,12.6
	c-1.8,1.3-3.1,3.4-2.3,5.6c0.6,2.2,2.5,3.7,4.8,3.7c3.5,0,7,0.2,10.5,0.6l1.2,0.2h0.4l2.5,0.4l5.2,1l3.5,0.9
	c-1.9,1.1-3.7,2.4-5.4,3.9c-5.9,5.2-10.2,12.2-13.4,19.2c-1.9,4.1-3.6,8.3-5,12.6c-0.6,2.2,0.3,4.6,2.3,5.7c2,1,4.4,0.7,6-0.8
	l0.3-0.2l1-0.7l1.9-1.3c1.3-0.8,2.7-1.5,4.1-2.2l2-1h0.1l1.2-0.4c1.4-0.6,2.9-1.1,4.4-1.4l4.4-1h2.3c-9.4,12.1-14.2,27.5-17,42.6
	c-1,5.6-1.7,11.1-2.4,16.7c0,2.8,2.2,5,5,5c1.3,0,2.6-0.5,3.5-1.4l3.5-3.4l1.7-1.5l1-0.8c0.1-0.1,0.2-0.1,0.2-0.2
	c2.5-1.9,5.1-3.6,7.9-5.1l4.2-2.1l0.8-0.4l0.6-0.2l0.7-0.3c-6.1,14.3-9.6,29.5-10.4,45c-0.2,5.3-0.1,10.7,0.3,16
	c0,2.2,1.5,4.2,3.6,4.8c2.2,0.6,4.5-0.4,5.7-2.3c1.7-3.4,3.7-6.6,5.9-9.6l0.2-0.3c0.4-0.2,0.7-0.8,0.9-1.1l1.9-2.1
	c1.2-1.5,2.6-2.8,3.9-4.2s2.7-2.5,4.2-3.7l0.9-0.7c0.2-0.1,0.5-0.4,0.7-0.6l2-1.5c3.1-2.1,6.3-4,9.6-5.7l2.5-1.2l1.2-0.5l0.6-0.3
	l5.2-1.9c3.6-1.2,7.2-2.1,10.9-2.7l1.3-0.2h0.5l2.8-0.3c1.8-0.2,3.7-0.2,5.5-0.2c1.9-0.1,3.8,0,5.7,0.2l2.5,0.2h0.5l1.6,0.3
	c6,1,11.7,2.7,17.5,4.2c-12.2,6.9-23.8,14.7-35.6,22.4c-7.2,4.7-14.5,9.3-22,13.6c-3.8,2.1-7.7,4.2-11.7,6.1c-1.9,0.9-3.9,1.9-6,2.7
	l-1.4,0.6L286,550l-3.3,1.3c-5,1.9-10.1,3.5-15.3,4.7l-3.9,0.8l-2.1,0.3l-0.9,0.2h-0.1c-2.7,0.3-5.5,0.5-8.3,0.6
	c-2.5,0.1-4.5,1.9-4.9,4.3c-0.3,2.5,1.2,4.8,3.6,5.5c18,7,37.6,4.6,55.4-1.9c17.8-6.5,33.7-16.1,50.6-24.1c2.4-1.2,4.9-2.3,7.3-3.3
	h0.3l1.1-0.5l2-0.8l3.7-1.4c-5.2,7.7-9.3,16.3-13.2,24.7c-3.3,7.3-7.1,14.4-11.3,21.2c-1.1,1.7-2.2,3.3-3.4,4.9l-0.4,0.5l-0.3,0.4
	L342,588l-1.9,2.4c-2.6,3-5.5,5.8-8.7,8.2c0,0.1-0.1,0.1-0.1,0.2l-0.6,0.4l-1.4,1l-2.8,1.9c-2,1.3-4.1,2.5-6.2,3.6l-3.2,1.5
	l-0.8,0.3c0,0.1,0,0.1-0.1,0.1l-1.5,0.6c-2.3,0.9-4.6,1.7-7,2.3c-2.1,0.6-3.6,2.6-3.6,4.8c0,2,1.4,4.5,3.6,4.8
	c6.6,1.1,13.4,0.7,19.9-0.9c5.9-1.7,11.6-4.3,16.8-7.6c10.4-6.6,19.2-15.2,28.3-23.4c2.8-2.5,5.6-5,8.5-7.3l1.1-0.9
	c0.1-0.1,0.3-0.2,0.4-0.4l0.4-0.2l2.6-1.9c1.7-1.3,3.5-2.4,5.4-3.6c2.3-1.4,3.1-4.4,1.8-6.8c-1.5-2.2-4.5-3.3-6.9-1.8
	c-11.4,7-20.9,16.5-30.9,25.3l-6.7,5.8l-1.5,1.2c2-2.3,3.9-4.6,5.7-7.1c9.4-13,14.7-28.2,22.4-42.1l3.4-5.6c0.6-0.9,1.1-1.7,1.8-2.6
	c0.3-0.5,0.6-1,1-1.4l0.4-0.5c2.2-2.6,4.6-5.1,7.1-7.4h0.1c2.2-0.4,3.7-2.9,3.6-5.2c0.1-1.4-0.4-2.8-1.4-3.8
	c-2.1-1.9-4.5-1.8-6.7-0.3c-18.7,3.7-35.6,13-52.4,21.6c-4.2,2.1-8.3,4.3-12.6,6.3l-6.2,2.9l-2.8,1.2l-1,0.4l-1.7,0.7
	c-4.2,1.7-8.6,3.2-13,4.4l-6.5,1.6l-3.2,0.6h-0.5c7.7-2.9,15.1-6.3,22.3-10.3c15.6-8.4,30-18.6,44.9-28c8.4-5.5,17.1-10.5,26-15
	l0.7-0.4h0.1c2.6,0.3,5.1-2.6,5-5c-0.1-2.4-2.2-4.7-5-5l-0.9-0.2l-1.9-0.3l-3.6-0.8c-2.4-0.5-4.8-1.1-7.2-1.8
	c-4.8-1.3-9.5-2.7-14.4-3.7c-8.4-1.7-16.9-1.9-25.4-0.8c-15.8,2.3-30.6,9.3-42.6,19.9c-2.6,2.3-5,4.9-7.2,7.5c0-1.5,0.1-2.9,0.3-4.4
	l0.3-3.3c0.1-0.5,0.1-1,0.2-1.5v-0.5c0.1-0.2,0.1-0.4,0.1-0.6c1.4-9.1,3.7-18,6.9-26.6c0.5-1.1,0.9-2.3,1.4-3.5
	c0.2-0.3,0.3-0.7,0.5-1c0.2-0.6,0.4-1.1,0.7-1.6c1.1-2.4,2.3-4.8,3.5-7.2c1-1.7,0.9-3.9-0.4-5.5c-1.2-1.6-3.3-2.3-5.2-1.8
	c-9.1,1.8-17.7,5.5-25.3,10.8v-0.4c0.8-4.5,1.7-8.9,2.9-13.3c0.6-2.2,1.2-4.4,1.9-6.5l1.2-3.3c0.2-0.4,0.3-0.9,0.5-1.4
	c0.2-0.6,0.4-1.2,0.7-1.7c0,0-0.4,1,0,0.1l0.3-0.7l0.6-1.4l1.6-3.2c1-1.9,2.1-3.8,3.3-5.6c0.7-1.1,1.4-2.1,2.2-3.1l0.4-0.6l0.2-0.2
	c0.3-0.5,0.7-1,1.2-1.4c1.6-1.9,3.4-3.7,5.3-5.4c2.6-2.3,1.5-7.8-2.2-8.4c-9.3-1.4-18.9-0.4-27.7,3.1c1-2,2.1-4,3.3-5.9l1.3-2.1
	c0.3-0.4,0.6-0.8,0.8-1.2l0.3-0.4c0.6-0.6,1.2-1.2,1.7-1.9c0.6-0.7,1.2-1.4,1.9-2.1l1.8-1.6c0.3-0.2,0.6-0.5,0.9-0.8
	c-1,1,0.1,0,0.5-0.2c0.6-0.5,1.3-1,2.1-1.4l1-0.5l0.7-0.3h0.2l0.9-0.4l1.2-0.3c0.8-0.3,1.6-0.3,2.3-0.5c0.2,0,0.3-0.1,0.3-0.1h2.5
	c1.1,0,2.2,0,3.3,0.2c2.3,0,4.2-1.5,4.8-3.7c0.5-2-0.2-4.7-2.3-5.6c-9-4.2-18.5-7.1-28.3-8.6l0.8-0.4l2.5-1.2l1.2-0.5h0.4
	c6.7-2.7,13.7-4.5,20.8-5.6c2.1-0.3,3.8-2.8,3.7-4.8c-0.1-2.2-1.6-4.2-3.7-4.8l-20.5-6.7c10.7-3.8,21.3-8.1,32.2-11.6
	c5.4-1.8,10.9-3.4,16.5-4.7c5.4-1.3,10.8-2.1,16.3-2.5c5.2-0.3,10.3-0.3,15.5,0.1l3.7,0.4l1.7,0.2l1.5,0.2c2.5,0.4,5,0.8,7.5,1.4
	c5.1,1.1,10,2.5,14.9,4.3c4.8,1.6,9.5,3.6,14,5.8c9.5,4.6,18.4,10.2,26.8,16.6c1.7,1.2,3.6,2.8,5.6,4.4l6,5.2
	c4,3.6,7.7,7.5,11.7,11.1c8.4,7.7,18.9,13.8,30.7,11.4c1.8-0.4,3.6-1.1,5.2-2c0.9-0.2,1.8-0.6,2.5-1.2h0.1c0.1-0.1,0.2-0.1,0.2-0.2
	l1.1-0.7c0.7-0.4,1.5-0.8,2.3-1.2l0.3-0.2l1.2-0.5l2.7-0.7l2.1-0.5h0.6l1.5-0.2c1.8-0.1,3.5,0,5.3,0.1l2.7,0.2h0.5l1.5,0.2l5.4,1.3
	c3.8,1,7.5,2.3,11.1,3.7c8.4,3.1,16.7,6.3,25.7,7.2s17-1.5,25.3-4.3c3.9-1.4,7.9-2.5,11.9-3.3h9.5l1.1,0.2c8,1.3,15.5,4,23.1,6.5
	c3.9,1.3,7.9,2.6,11.9,3.5c2.2,0.5,4.4,0.9,6.6,1.1c2.1,0,4.3-0.2,6.4-0.6c1.8-0.2,3.7-0.7,5.6-1l2.3-0.5h0.2c0.5-0.1,0.3,0,0.1,0
	h3.6c0-0.1,0-0.1,0.3,0h0.6l1.2,0.4h0.1l0.6,0.3l1.9,0.8l3.4,1.3c6.2,2.2,13.4,2.7,19.6,0.2c4.3-1.9,8.2-4.6,11.6-7.9
	c4.2-2,8.1-4.6,11.6-7.7c4.1-3.8,7.8-8.1,10.9-12.8l2.1-3.1c0.1-0.1,0.2-0.1,0.2-0.2l0.5-0.6l1.4-1.6l1.3-1.3l0.7-0.6h0.1
	c0-0.1,0-0.1,0.1-0.1l3.9-2.6c10.1-6.6,20.4-13.2,31.5-18.2c2.5-1.1,5-2.1,7.9-3.1s5.8-1.9,8.7-2.7c2.9-0.8,5.7-1.4,8.5-2l4.3-0.8
	l2.2-0.3h1.6c24.2-3.1,48.7-0.3,72.8,2.6c16.3,2,32.6,4.1,49,4.6c0.5,1.3,1.6,2.2,3,2.5c2.5,0.4,5.1,0.9,7.5,1.7
	c1.3,0.3,2.6,0.8,3.8,1.2l1.8,0.7h0.1l1,0.4l1.2,0.6c-10.1,1.6-19.8,4.7-28.9,9.3c-3.7,1.9-7.3,4-10.7,6.3c-1.7,1.2-3,3.4-2.3,5.6
	s2.6,3.6,4.9,3.7c3.6,0.2,7.3,0.4,10.9,0.9h0.7l1.3,0.2l2.7,0.5l5.4,1.3c1.8,0.5,3.6,1.1,5.3,1.8h0.3l1.2,0.6l2,0.9
	c-12.4,3.5-23.8,9.6-33.6,17.9c-1.4,1.4-1.8,3.6-1,5.4s2.6,3.1,4.6,3.1c1.5,0,3.1,0,4.6,0.2h1.2l2.2,0.4c1.5,0.3,3,0.6,4.5,1.1
	l1.9,0.6l1.1,0.5l0.6,0.2c1.3,0.6,2.6,1.2,3.8,1.9c-10,1.3-19.7,4-29,7.9c-1.8,0.8-2.6,3.3-2.3,5s1.6,3.4,3.5,4.2l0.9,0.3l0.6,0.3
	l2.5,1.2l4.4,2.6l2.1,1.5l0.2,0.2h0.1l1.1,1c1.3,1.1,2.6,2.2,3.8,3.4c1.2,1.2,2.4,2.6,3.5,4c0.1,0.2,0.2,0.3,0.3,0.4
	c-0.1-0.1-0.1-0.1-0.1-0.1l0.8,1l1.5,2.3c1,1.4,1.8,2.9,2.6,4.5c0.4,0.7,0.8,1.5,1.1,2.3c0.2,0.3,0.3,0.5,0.4,0.8l0.3,0.8
	c0.4,1,0.8,2.1,1.1,3.1c-11.1-3.3-23.3-4.8-33.3,1.8c-3,2-3.5,6.8,0,8.6c3,1.6,6,3.4,8.8,5.4c0,0.1,0.3,0.3,0.5,0.5l0.7,0.5l2,1.7
	c1.2,1.1,2.4,2.3,3.5,3.5l1.5,1.8l0.3,0.4l0.8,1.1c1,1.5,1.8,3,2.6,4.6l0.3,0.7l0.3,0.8c0.3,0.8,0.6,1.7,0.8,2.5l0.6,2.5
	c0.1,0.4,0.1,0.8,0.2,1.2v0.4c0.1,1,0.2,2,0.2,3s-0.1,0.8-0.1,1.2c-15-8.7-30.4-17-47-22.4c-9.3-3.1-18.9-4.9-28.7-5.3
	c-10.1-0.5-20.5,0.8-29.6,5.7c-4.2,2.3-7.9,5.2-11.9,7.9c-1.9,1.3-3.9,2.5-5.9,3.6l-1.8,0.8c0,0.1,0,0.1-0.1,0.1l-0.6,0.2l-3.5,1.1
	c-2.2,0.6-3.7,2.5-3.7,4.8c0.1,2.4,1.5,3.9,3.7,4.8c3.8,1.6,7.8,2.2,11.9,2c3.9-0.2,7.8-0.9,11.7-1.1c2.1,0,4.2,0,6.2,0.2h3.8
	l1.7,0.3c4.2,0.8,8.3,2,12.3,3.5l3,1.1l1.4,0.6h0.4l0.5,0.3c2.1,0.8,4.1,1.8,6.1,2.7c3.8,1.9,7.7,3.9,11.5,6
	c7.8,4.1,15.6,8.3,23.8,11.7c2.8,1.1,5.7,2.2,8.6,3.1h-1.9c-2.5,0.3-4.9,0.4-7.4,0.4c-2.4,0-4.8-0.1-7.2-0.4l-1.9-0.2h-0.9l-4.4-0.8
	c-5.3-1.1-10.6-2.4-15.7-4.1c-5.9-1.9-11.8-4.1-17.6-6.3c-2.4-0.9-5.6,1-6.1,3.5s0.8,5.1,3.5,6.1l3.2,1.3h0.1l0.6,0.2l1.8,0.8
	c2.2,1,4.3,2,6.4,3.2s4.1,2.3,6.1,3.6l2.8,1.9l1.2,0.9c0.3,0.1,0.5,0.3,0.7,0.5l0.6,0.4c3.5,2.8,6.8,5.9,9.7,9.3l1.1,1.3l0.4,0.5
	c0.7,0.8,1.3,1.7,1.9,2.6c1.3,1.9,2.5,3.9,3.5,5.9c0.5,1,1,2,1.4,3c0.1,0.4,0.3,0.8,0.5,1.2l0.3,0.8c-15.4-3.7-31.2-5.5-47-5.3
	c-5.2,0.1-10.4,0.4-15.6,0.9c-2.6,0.3-5.1,2.1-5,5s2.2,5.3,5,5c9-0.9,18-1.1,27-0.7c4.6,0.3,9.2,0.6,13.8,1.2h2.4l3.3,0.5l6.8,1.3
	c5,1,10,2.2,14.9,3.6c1.7,0.5,3.6,0,4.9-1.2c1.3-1.3,1.7-3.2,1.3-4.9c-2.1-12.6-8.9-23.5-17.8-32.3c9.5,1.7,19.3,1.7,28.8-0.2
	c5.9-1.2,11.5-3.4,16.7-6.5c2.4-1.4,3.2-4.5,1.7-6.9c-0.9-1.5-2.5-2.4-4.2-2.4c-2.1,0-4.2-0.2-6.3-0.5h-0.4l-1.6-0.3l-3.2-0.6
	c-4-1-8-2.3-11.9-3.8l-1.5-0.6l-0.9-0.3l-2.6-1.2l-5.8-2.8c-3.8-1.8-7.6-3.8-11.3-5.8c-15.5-8.3-31.8-16.8-49.7-17.4
	c-2.6-0.1-5.1,0.1-7.7,0.4l5.3-3.6c1.7-1.1,3.5-2.2,5.4-3.1l1.3-0.6l1.1-0.5l3.5-1c1.1-0.4,2.3-0.6,3.5-0.8l1.5-0.3h1.1
	c2.4-0.3,4.9-0.4,7.3-0.4c2.3,0,4.7,0.1,7,0.3l3.3,0.3h0.9l1.8,0.3c4.6,0.7,9.1,1.8,13.6,3.1s9,2.9,13.3,4.7l1.4,0.6
	c-0.3-0.2,0.7,0.2,0.9,0.3l3.4,1.6c2.2,0.9,4.3,2,6.5,3c9.6,4.8,18.8,10.1,28.1,15.5c1.3,0.8,3,1,4.4,0.3c1.4-0.6,2.5-1.7,2.9-3.2
	c3-7.5,2.4-16.3-0.5-23.6c-3-7.4-8-13.9-14.3-18.7l-2.4-1.8h2.3c1.6,0,3.1,0.1,4.7,0.3h1.3l2.4,0.5c1.6,0.3,3.2,0.7,4.8,1.2
	c3.1,0.8,6.2,1.9,9.3,3c3.1,1.1,6.7-1.7,6.3-4.8c-2-16.2-10.8-30.9-24.1-40.4l-1.1-0.7c2.8-0.8,5.6-1.5,8.5-2.1l4.8-0.9h1.6l2.4-0.3
	c3.4-0.3,6.8-0.5,10.2-0.5s6.4-5.4,3.5-8.5c-6.4-6.8-14.6-11.6-23.6-14c2.9-1.7,5.8-3.3,8.9-4.7l1-0.4l0.7-0.3l2.7-1
	c1.8-0.7,3.6-1.3,5.4-1.8c3.7-1,7.5-1.8,11.3-2.3c1.7-0.2,3.1-2,3.5-3.5c0.5-1.7,0-3.6-1.3-4.9c-7.9-8-18.3-11.9-29.2-13.8l1.2-0.6
	l0.8-0.3l1.7-0.7c2-0.8,4.2-1.6,6.3-2.2c4.3-1.3,8.7-2.4,13.1-3.1l1.5-0.2h0.8l3.4-0.3c2.3-0.2,4.7-0.3,7-0.3c2.8-0.1,5-2.5,4.9-5.3
	c0-1.2-0.5-2.4-1.4-3.3c-3.6-3-7.5-5.7-11.6-7.9c19.3-1.7,38.4-6.3,55-16.5c2.2-1.3,4.4-2.8,6.5-4.3S989.8,323.7,988.2,321.3z
	 M281,526.1C280.9,526.1,280.9,526.2,281,526.1C280.9,526.1,280.9,526.1,281,526.1z M467.3,384.5l-2.3,1.3c-0.4,0.1-0.8,0.3-1.2,0.6
	l-1.5,0.9l-1,0.5l-1.4,0.5l-0.7,0.2h-5.6l-1.2-0.3c-1.1-0.2-2.2-0.5-3.2-0.9l-0.6-0.3h-0.3l-1.9-1c-2.2-1.2-4.2-2.6-6.1-4.2
	c-4.1-3.5-7.8-7.4-11.7-11c-3.9-3.6-7.8-7-11.9-10.3c-16.7-13.1-35.6-23.7-56.1-29.3c-10.1-2.8-20.6-4.2-31.1-4.3
	c-11.3,0.1-22.5,1.7-33.3,4.8c-21.6,5.9-41.9,16.1-63.8,21.2c-9.4,2.4-19.2,3.4-28.9,3.1l-3.6-0.2l-3.2-0.3h-1.6l-1.7-0.4l-3.7-0.8
	c-2.4-0.5-4.7-1.2-7-2.1l-1.7-0.6l-0.3-0.2h-0.3l-0.6-0.3c18.8-7.9,35-20.5,50.7-33.4l13.8-11.2l3.4-2.7l1.8-1.4l0.8-0.6l0.3-0.2
	h0.1l7.1-5.3c4.8-3.5,9.8-6.8,14.9-9.8c5.1-3,11.1-6.3,17.3-7.9c6.2-1.6,13.1-0.5,19.9,1.5s14.1,4.2,21.2,6
	c14,3.8,28.1,7.1,41.7,11.9l8.8,3.2l7.7,3.2c5.6,2.5,11,5.1,16.4,8c10.8,5.7,21.2,12.2,31,19.5c2.7,2,4.3,3.2,6.6,5.1
	c2.3,1.9,4.8,3.8,7.1,5.8c4.6,4,9,8.1,13.3,12.4s8.6,8.9,12.6,13.5c4,4.6,6.8,8.2,10,12.5C479.8,380.5,473.2,381.7,467.3,384.5z
	 M622.2,397h0.3C622.4,397.1,622.3,397,622.2,397z M662.1,399.7C661.5,399.8,661.8,399.7,662.1,399.7L662.1,399.7z M940.6,336.7
	l-7.4,1.4h-1.1l-1.8,0.2l-3.9,0.4c-20.8,2-41.8,0.2-62.6-2.3c-23.1-2.8-46.4-6.1-69.9-5.4c-11.7,0.2-23.3,1.8-34.6,4.7
	c-11.5,3.1-22.5,7.8-32.7,13.8c-5.1,2.8-10,5.9-14.9,9.1s-9.7,5.9-13.3,10.4c-1.7,2.1-3.2,4.3-4.7,6.5l-2,2.8l-0.8,1l-1.3,1.4
	c-1.5,1.6-2.9,3.1-4.4,4.5c0.6-2.5,1.4-5,2.1-7.4c0.7-2.4,1.9-5.7,2.9-8.4l0.8-2l0.3-0.8l0.3-0.7l1.7-3.8c1.3-2.6,2.7-5.2,4.3-7.7
	c0.7-1.1,1.4-2.3,2.2-3.4l0.9-1.1l0.5-0.7l0.9-1c1.8-2.2,3.8-4.2,6-6l1.1-0.9l0.7-0.5l0.7-0.6c1.4-0.9,2.8-1.8,4.3-2.6
	c1.3-0.8,2.6-1.4,4-2l0.9-0.5h0.4l2.5-1c3-1.1,6.1-2,9.1-2.8c6.3-1.7,12.6-2.9,18.9-4.3c6.4-1.5,12.6-3.4,18.7-5.7
	c6.5-2.7,12.8-5.9,18.9-9.4c11.8-6.8,23-14.6,35.1-20.9c5.7-3,11.6-5.5,17.7-7.5c3.2-1,6.4-1.8,9.7-2.5l2.3-0.4l1.3-0.2h0.3l5-0.5
	c3.2-0.1,6.4,0,9.6,0.3h0.3l1.5,0.2l2,0.4l4.9,1.4l2.4,0.9l0.4,0.2l0.6,0.2l3.7,1.9c2.2,1.3,4.3,2.7,6.3,4.3l0.3,0.2l0.8,0.6
	l1.4,1.2l3.1,2.8c2,1.8,3.9,3.7,5.7,5.7c3.7,3.8,7.3,7.9,11,11.8c7.3,7.9,15.4,15.6,25.4,20c2.9,1.3,5.8,2.3,8.9,3L940.6,336.7z"/>
<path d="M466.6,426.5c2.6-0.8,4.1-3.5,3.5-6.1c-0.8-2.6-3.5-4.2-6.2-3.5c-24.2,6.4-47.4,17.1-67.4,32.2c-5.9,4.4-11.6,9.2-16.9,14.3
	c-1.8,1.8-1.9,4.6-0.4,6.6s4.3,2.5,6.4,1.2l2.3-1.1l1.1-0.5l0.6-0.3l4.8-1.7l5.2-1.3l2.5-0.4h1.6c3.4-0.4,6.8-0.4,10.2-0.1l2.2,0.2
	h0.7l1.3,0.2h0.1c-4.2,11.3-7.9,22.7-11.3,34.2c-0.7,2.6,0.9,5.4,3.5,6.1c2.7,0.7,5.4-0.9,6.2-3.5c3.8-13.1,8.2-26.2,13-39
	c1-2.6-1.1-5.5-3.5-6.2c-7.1-2-14.5-2.7-21.8-2c3.5-2.6,7.1-5,10.9-7.3s10.5-6.2,16-8.9l8.2-3.7l1-0.4h0.1l2.4-1l4.3-1.6
	C453.5,430.3,460,428.3,466.6,426.5z"/>
<path d="M713.3,465.6l-7.9-6.3l2.6-0.5h0.6l1.6-0.2c1-0.2,2-0.2,3-0.3l6.6-0.4c4.2-0.1,8.4,0.1,12.6,0.5l3.3,0.3h0.8l1.6,0.3
	c2.1,0.3,4.3,0.7,6.4,1.2c2.7,0.7,5.4-0.9,6.1-3.5c0.5-1.7,0-3.5-1.2-4.8c-14.9-15.4-32.6-27.7-52.1-36.5
	c-5.8-2.5-11.6-4.8-17.6-6.7c-2.7-0.7-5.4,0.8-6.2,3.5c-0.6,2.6,0.9,5.3,3.5,6.1l7.5,2.6l3.3,1.3l1.8,0.7l0.3,0.2l0.8,0.3
	c4.7,2.1,9.4,4.3,13.9,6.8s8.9,5.2,13.2,8.1l6.3,4.5l1.2,0.9l0.2,0.2l0.9,0.6l3,2.5l1.4,1.2c-12.9-1-25.8,0.2-38.3,3.5
	c-1.9,0.6-3.3,2.2-3.6,4.2c-0.3,2.1,0.8,3.7,2.4,4.9l3.5,2.7l0.9,0.7h0.1c0.7,0.5,1.4,1,2,1.6l6.9,5.4c4.7,3.8,9.2,7.7,13.6,11.8
	c4.4,4,8.5,8.2,12.4,12.7l2.5,3l0.7,0.9c0.1,0.2,1,1.2,0.2,0.3s0.9,1.2,1.4,1.8c1.6,2.3,3.2,4.7,4.7,7.1c1.7,2.7,3.2,5.6,4.6,8.5
	c0.3,0.7,0.7,1.5,1,2.3l0.6,1.5c0.6,1.6,1.2,3.2,1.7,4.8c0.8,2.6,3.5,4.1,6.1,3.5c2.5-0.8,4.4-3.5,3.5-6.2
	C750.2,499.5,732.3,481.2,713.3,465.6z"/>
<path d="M524.2,467.9c-21.6,3.7-44.1,7.9-62.7,20c-5.4,3.6-10.4,7.7-14.8,12.4c-1.4,1.5-1.7,3.6-1,5.5c0.8,1.8,2.6,3.1,4.6,3.1h4.8
	l2.4,0.2h2c3,0.5,6,1.2,9,2.1l4.4,1.6h0.3l1.2,0.5l1.7,0.9c-10.8,4.6-20.8,11-29.5,18.9c-2.1,1.8-2.3,5-0.5,7.1s5,2.3,7.1,0.5
	c0.2-0.2,0.4-0.4,0.5-0.5c1.3-1.2,2.7-2.4,4.2-3.5c0.3-0.3,0.6-0.6,1-0.8c0-0.1,0.4-0.4,0.5-0.5l1.8-1.3c2.9-2.1,5.9-4,8.9-5.8
	c3.1-1.7,6.3-3.3,9.5-4.7l0.7-0.3l0.8-0.4l2.4-0.9l5.2-1.8c1.9-0.6,3.3-2.2,3.6-4.1c0.3-2-0.7-4-2.4-5c-8.1-6.1-17.7-10.1-27.7-11.7
	c1-0.8,2-1.6,3.1-2.3c4.4-3,9-5.5,13.9-7.6l0.9-0.4h0.1l1.7-0.7l4-1.4c2.5-0.9,5.1-1.8,7.6-2.5c5.2-1.5,10.5-2.8,15.8-3.9
	c5.3-1.1,11.7-2.2,17.6-3.2c2.6-0.5,4.2-3.8,3.5-6.2S527,467.5,524.2,467.9z"/>
<path d="M712.1,529.1c-14.3-10.4-30.5-17.9-46.8-24.6l4.6-0.4c3.6-0.2,7.1-0.1,10.7,0.1l2.5,0.2l1.4,0.2h0.8
	c1.8,0.2,3.6,0.5,5.3,0.9c2.2,0.5,4.4-0.4,5.6-2.3c1.1-2,0.7-4.4-0.8-6.1c-8.9-10.9-20.2-19.5-33-25.1c-3.8-1.7-7.8-3.2-11.8-4.4
	c-2.7-0.7-5.5,0.8-6.2,3.5s0.8,5.5,3.5,6.2c2.1,0.6,4.1,1.2,6.2,2l2.6,1l1,0.5l1.5,0.6c3.8,1.8,7.5,3.9,11,6.2
	c0.9,0.5,1.7,1.1,2.5,1.7l1.3,0.9l0.8,0.7c1.3,1,2.6,2,3.8,3.1c-10.7-0.4-21.4,0.9-31.7,4.1c-2,0.7-3.8,2.6-3.7,4.8
	c0.1,2.2,1.6,4.2,3.7,4.9l12.3,4.8l6.2,2.6l1,0.4l1.1,0.5l3.1,1.3c8.2,3.5,16.2,7.5,23.9,12c4.3,2.5,8.5,5.3,12.6,8.2
	c2.1,1.6,5.6,0.4,6.8-1.8C715.2,533.4,714.4,530.5,712.1,529.1z"/>
</svg>
