<?xml version="1.0" encoding="utf-8"?>
<!-- Generator: Adobe Illustrator 24.2.3, SVG Export Plug-In . SVG Version: 6.00 Build 0)  -->
<svg version="1.1" id="fedf1fd6-7290-45d2-9594-992f0fc718ff"
	 xmlns="http://www.w3.org/2000/svg" xmlns:xlink="http://www.w3.org/1999/xlink" x="0px" y="0px" viewBox="0 0 1152 864"
	 style="enable-background:new 0 0 1152 864;" xml:space="preserve">
<path d="M1030.1,415.5c-3.3-13.2-7.7-26.1-13.2-38.5c-15.7-36.3-40.7-67.8-72.5-91.3l4.6-2.3c2.3-1.2,3.1-4.7,1.8-6.9
	c-13.9-22.3-35.9-38.3-61.3-44.8c0.4-0.7,0.7-1.5,0.8-2.3c0.9-4.7-2.4-8.4-5.9-11c-7.9-5.9-18-9.4-27.5-11.2
	c-21.4-4.1-43.7-2-65.4-4c-23.9-2.3-48.2-5.3-70.7-13.9c-10.6-4-20.9-8.7-31.6-12.4c-11.4-3.8-23.2-6.2-35.1-7.4
	c-11.5-1.2-23-0.8-34.4,1.1c-5.6,1-11,2.7-16.5,4.1c-6.1,1.6-12.6,1.1-18.4-1.4c-10.6-4.1-20.8-7.9-32.1-9.6
	c-11.6-1.7-23.3-2.1-34.9-1c-21.9,1.9-42,9.2-62.1,17.5s-39.8,17.1-61.2,19.3c-43.3,4.6-90.5-12.3-127.8,17.8
	c-2.4,1.8-1.8,5.8,0.4,7.5c-25.6,6.5-47.7,22.6-61.6,45c-1.4,2.3-0.6,5.3,1.7,6.7c0,0,0.1,0.1,0.1,0.1l4.5,2.3
	c-35.5,26.2-65.1,59.6-86.9,98c-2,3.5,0.6,7.2,4.3,7.5l4.7,0.4c-21.4,44.1-17.5,98.5,7.2,140.5c1.6,2.6,5.7,3.5,7.9,1l1.4-1.5
	c7,10.1,14.1,20.2,19.7,31.2c6.3,12.5,11.7,25.4,18.3,37.7c5.3,9.9,11.3,19.4,18.1,28.4c5.4,7.1,12.2,12.5,21.1,13.1
	c9.4,15.3,17.1,31.4,25.3,47.3c4.3,8.3,8.5,16.9,13.6,24.6c3.9,6,10,10.1,17,11.5c14.9,2.8,28.2-6.9,34.6-19.8
	c3.8-7.5,5.8-16,7.8-24.1s3.7-18.2,4.9-27.5c4.8-36.8,3-74,3.4-111s6.6-72.8,22.6-106.4c9.1-19.3,19-37.7,24.4-58.5s7.7-42,11.2-63
	c1-6.3-8.6-9-9.7-2.7c-2.9,17.7-5,35.5-8.8,53c-3.9,17.7-10,34.7-18.3,50.8c-7.8,15.6-15.4,31.2-20.5,47.9
	c-4.9,16.7-8.1,33.8-9.8,51.1c-1.7,17.1-1.2,34.6-1.1,51.8s0.2,34.9-0.5,52.4s-2.4,35.5-6,52.9c-2.9,13.7-5.6,32.3-18.5,40.4
	c-6.3,4-14.6,4.6-20.7-0.2c-3.4-2.7-5.4-7.1-7.5-10.8s-5.1-9.1-7.5-13.7c-9.4-17.9-17.9-36.3-28.7-53.5c-0.9-1.5-2.5-2.4-4.3-2.4
	c-9.3,0.4-14.6-6.7-19.2-13.8c-6.2-9.4-12.3-18.6-17.3-28.7s-10.8-23.3-16.8-34.7s-14.4-22.9-22.1-33.9c-1.7-2.5-5.6-3.6-7.8-1
	l-0.9,0.9c-21.1-40.2-22.7-91.1-0.3-131.1c2-3.5-0.6-7.2-4.3-7.5l-4.3-0.4c21.9-36.6,51.4-68.2,86.4-92.6c2.9-2,3.6-6.8,0-8.6
	l-6.8-3.5c14.3-20,35.9-33.5,60.2-37.5c2.6-0.4,4.1-3.7,3.5-6.1c-0.6-2-1.4-4-2.5-5.8c30.1-20.2,69.9-10.1,104-10.8
	c20-0.3,38.8-5.4,57.3-12.7s37.1-16.1,56.8-21.2c19.7-5.1,43.6-6,64.6-0.8c5.1,1.3,10.2,3,15.1,5c5,2,9.8,4.3,15.2,5
	c11.1,1.5,21.9-3.8,32.7-5.5c22.1-3.4,45.5,0.3,66.4,7.9c10.3,3.8,20.4,8.4,30.7,12.2c10.3,3.6,20.8,6.2,31.5,8
	c24.3,4.2,48.9,6.5,73.5,6.7c11.6,0.2,23.4,0.4,34.6,3.5c5,1.5,9.8,3.4,14.3,5.9l2.8,1.7c0.3,0.2,2,1.9,2.6,1.8s-3.2,3-3.6,3.6
	c-2.1,2.6-2,7.7,2.2,8.4c24.2,4,45.9,17.5,60.2,37.4l-6.9,3.5c-3.6,1.8-2.9,6.6,0,8.6c39,27.2,68.2,66.4,83.1,111.6
	c2.2,6.4,4,12.8,5.6,19.4c0.4,1.7,2,6.1-0.4,7.3c1.1-0.7-2.8-1.9-3.4-2.1c-1.6-0.7-3.3-1-5-1.1c-2-0.2-4.6,1.6-4.9,3.6
	s-1.5,4.8-1.2,7.7s1.4,6.3,2.1,9.3c1.7,7.1,3.6,14.2,5.2,21.3c2.8,12.9,3.9,25.7,0.3,38.3c-1-0.5-1.9-1.1-2.5-1.3
	c-1.9-0.8-4.1-0.9-6-0.1c-4.9,2-7.7,10-10,14.4c-6.1,11.4-11.3,23.2-15.7,35.4c-4.5,12.5-7.4,25.7-12.2,38.1
	c-2.3,5.7-5,11.2-8.2,16.5c-2.8,4.4-6.5,11.4-11.4,13.7c-9.1,4.1-21.1-5.4-29.6,0.6c-3.6,2.6-5.4,8.6-7,12.5
	c-2.7,6.5-5,13.2-7.3,19.9s-4.5,13.7-7.1,20.5c-1.1,3-3,6.3-3.6,9.5c-0.1,0.9,0.1,2.6,0,3s-1,2.2-1.4,3.1
	c-4.1,8.5-8.1,18.5-16.6,23.6s-21.2-0.1-26.2-9.4c-3.1-5.7-5.2-12.3-7.6-18.4s-4.8-12.5-7.1-18.9c-9.5-27.1-14.4-55.4-16.7-84.1
	s-2.4-56.2-2.8-84.4c-0.2-14.4-0.5-28.9-1.3-43.3c-0.7-12.5-1.3-26.7-8.8-37.4c-13.5-19.1-26.9-40.4-29.8-64
	c-2.3-18.5-3-39.1-18.8-51.7c-4.2-3.4-10.1-5.6-11.5-11.3s-11.2-3.6-9.6,2.6c2.8,11.4,15.3,14.2,21.1,23.3s6.5,17.3,7.6,26.3
	s1.7,19.6,4.7,29c3.8,12.2,10.6,24.1,17.1,35c3.6,5.9,7.8,11.3,11.5,17.1s5,12.8,5.7,19.1c1.6,14.4,1.6,29.1,1.9,43.5
	c0.6,28.9,0.4,57.9,2.3,86.9s5.6,58.3,14.5,86.1c4.2,13.4,9.4,26.4,14.6,39.3c4.3,10.9,9.4,20.6,21,25.2s21.8,1,29.8-7
	s11.2-16.8,15.4-25.8c1.1-2.3,0.7-4.7,1.4-7s2.8-7,4.1-10.4c2.4-6.8,4.6-13.7,6.9-20.5c2.2-6.6,4.7-13,7.6-19.3
	c0.4-0.9,1.5-2.7,1.5-3.7s0.1-0.2,0.2-0.4c1.1,0.1,2.1,0,3.2-0.1l4.2,0.5c5.4,0.9,10.8,2,16.3,0.9s10-5.1,13.7-9.8
	c7.6-9.7,13.1-20.8,17.3-32.4s7.7-26.1,12.6-38.9c2.4-6.3,5.1-12.6,8.1-18.7c1.3-2.9,2.8-5.7,4.3-8.5s4-6.1,5.1-9.2l0.3-0.9l2.5,1
	c2.3,0.8,4.7,1,7.1,0.5c1.7-0.2,2.9-1.9,3.5-3.5c5.1-13.5,4.7-27.9,2.2-42c-1.3-7-3.1-13.8-4.8-20.7l-2.7-10.9
	c-0.1-0.7-0.3-1.4-0.5-2.1c1.5,0.8,3.1,1.2,4.7,1.4c3.3,0.3,5.6-1,7.7-3.5C1033.2,427.6,1031.8,422,1030.1,415.5z M924,630L924,630z
	 M1008.1,512.7l0.2,0.2C1007.7,513.5,1007.7,512,1008.1,512.7z"/>
<path d="M271.6,385.7v-0.3h0.1c0.2-0.7,0.5-1.3,0.8-1.9c0.6-1.5,1.3-2.9,1.9-4.3s2.7-5.5,4.1-8.3c2.9-5.4,6-10.8,9.4-16
	c1.7-2.6,3.4-5.1,5.2-7.6l2.7-3.8l1.3-1.6c0-0.1,0.1-0.1,0.1-0.2v-0.2c0.3-0.3,0.6-0.6,0.8-1c4.4-5.5,9-10.7,13.9-15.8
	c1.9-1.8,2-4.9,0.2-6.8c-0.1-0.1-0.1-0.1-0.2-0.2c-1.9-1.9-5.1-1.9-7,0c-17.9,18.2-32.1,39.5-42.1,63c-2.9,6.9-5.5,13.9-7.7,21
	c-0.7,2.7,1,5.5,3.7,6.2c0.8,0.2,1.7,0.2,2.5,0l3.6-1.1c-0.3,11.8-0.1,23.5,0.6,35.2c0,2.2,1.5,4.2,3.6,4.8c1.1,0.3,2.2,0.2,3.3-0.2
	c0.2,0.7,0.4,1.4,0.5,2.1c0.9,4.2,1.9,8.4,2.8,12.7c1.7,8.4,3.5,16.7,5.3,25.1c1.1,4.8,2.1,9.6,3.1,14.4c0.8,2.7,3.5,4.2,6.2,3.5
	c2.6-0.8,4.1-3.5,3.5-6.1c-2.1-9.6-4.2-19.2-6.2-28.8l-3-14.2c-0.6-2.4-1.1-4.9-1.6-7.3c-0.4-2.3-1-4.6-1.9-6.8
	c-1.2-2.4-3.3-4.3-5.9-5c-0.5-12-0.6-24.1-0.1-36.1c0-2.8-2.3-5-5-5c-0.4,0-0.9,0.1-1.3,0.2l-1.2,0.3l3.3-8.7L271.6,385.7z"/>
<path d="M463.8,263.5l-35.5-5.7c-12.1-1.9-24.2-3.3-36.4-2.9c-7,0.2-13.9,0.9-20.8,2.1c-1.7,0.5-3,1.8-3.5,3.5
	c-1.1,4.9,2.1,9,6.6,10.7c1.3,0.5,2.7,0.8,4.1,1.2h0.5c0.1,0.1,0.1,0.1,0.1,0.2c0.1,0.1,0.1,0.1,0.1,0.2l0,0v0.8
	c0,0.3-0.1,0.6-0.2,0.9c-0.1,0.1-0.1,0.3-0.1,0.4c-0.4,0.5-1.1,1.2-0.4,0.5l-1.5,1.6h-0.3l-0.8,0.6c-1.4,0.8-2.8,1.6-4.2,2.3
	c-2.4,1.4-3.2,4.5-1.8,6.9c1.4,2.3,4.4,3.1,6.8,1.7c3.1-1.5,6.3-3.2,8.6-5.8c2.7-2.7,4.1-6.5,3.9-10.3c-0.1-2.9-1.4-5.6-3.5-7.6
	l4.9-0.3c5.8-0.2,11.5-0.1,17.3,0.3l8.6,0.9l2.2,0.3h0.1l1.2,0.2l4.4,0.6l17.2,2.8l19.7,3.1c2.6,0.4,5.5-0.6,6.2-3.5
	S466.5,263.9,463.8,263.5z M378.8,275.1c0-0.1,0-0.3,0.1-0.4C379,274.7,378.9,274.9,378.8,275.1z"/>
<path d="M876.4,322.7c0.2,0,0.5-0.1,0.5-0.2l1.1-0.4l2-0.6l4.2-1c2.5-0.4,4.4-3.8,3.5-6.1c-1.2-3.2-3.4-6-6.3-7.8
	c-2.5-1.5-5.1-2.7-7.9-3.5c-6.3-2.1-12.6-3.9-19.1-5.3c-13.1-2.8-26.5-4.3-39.9-4.5c-7.5-0.1-15,0.3-22.5,1.1c-2.6,0.3-5.1,2.1-5,5
	s2.2,5.3,5,5c12.6-1.4,25.3-1.5,37.9-0.3l4.4,0.4l2.1,0.3h1.9l9.3,1.6c6.1,1.2,12.1,2.7,18.1,4.5l5.4,1.7l1.7,0.6h0.1
	c-2.1,0.8-4.1,1.9-5.9,3.3c-3,2.4-3.3,6.4-1.6,9.6s2.7,4.1,4,6.1c5.4,8.3,10.2,16.9,14.4,25.8l1.8,3.8c0,0.1,0.1,0.2,0.1,0.4l0,0
	c0.1,0.3,0.2,0.5,0.2,0.8c-1.5,0.9-2.4,2.5-2.4,4.2c0.1,2.7,2.3,4.9,5,5c2.7,0.1,5.2-1.4,6.5-3.8c1.1-2.4,1.3-5.1,0.7-7.6
	c-0.6-2.2-1.5-4.4-2.6-6.4l-3.3-6.8c-4.4-8.4-9.2-16.6-14.5-24.5l0.5-0.3L876.4,322.7z"/>
</svg>
