<?xml version="1.0" encoding="utf-8"?>
<!-- Generator: Adobe Illustrator 24.2.3, SVG Export Plug-In . SVG Version: 6.00 Build 0)  -->
<svg version="1.1" id="f8486d47-8fd1-45aa-ab8f-6ab06950bfcc"
	 xmlns="http://www.w3.org/2000/svg" xmlns:xlink="http://www.w3.org/1999/xlink" x="0px" y="0px" viewBox="0 0 1152 864"
	 style="enable-background:new 0 0 1152 864;" xml:space="preserve">
<path d="M1002.4,401.2c-0.4-10-0.5-20.2-1.5-30.2s-5.1-19.8-8.9-28.9c-5.8-13.7-12.3-27-19.6-40c-7.1-13-15.2-25.5-24.1-37.4
	c-6.9-9.1-14.8-18.9-24.9-24.5c-3.7-2.1-8-3.6-12.2-3.2s-7.1,1-11.2,0.5h-0.7l-1.3-0.2l-2.7-0.7c-1.9-0.5-3.7-1.2-5.4-2
	c-15.9-7.5-27.2-23.1-36.8-37.4c-5.1-7.6-9.8-15.3-14.7-23c-0.2-0.4-0.5-0.8-0.8-1.1c-3.5-5.5-7.3-10.8-11.1-16.2l-13.4-18.6
	c-3.6-4.9-7.2-9.8-11.7-13.9c-4.5-4.1-9.7-7.1-15.7-8.1c-7.6-1.1-14.8,1.3-22,3.2c-11.7,3.2-22.9,1.1-34.1-3.3
	c-11.2-4.4-21.7-10.2-32.9-14.6c-12.2-5-25.4-6.9-38.5-5.6c-15.4,1.5-30.3,4.2-45.8,1.3c-7.2-1.3-14-3.9-21-5.9
	c-6.8-2-13.9-3-21-2.7c-13.6,0.5-26.7,4.7-39.9,7.5c-6.4,1.6-13,2.4-19.6,2.5c-7.5,0.1-14.9-1.1-22.2-2c-14-1.7-27.2-1.4-40.5,3.4
	c-11.7,4.1-22.4,10.1-33.8,14.9c-11.4,4.8-21.2,7.7-32.2,5.7c-7.1-1.3-13.9-4.3-21.2-4.7c-6.3-0.3-12.5,1.7-17.6,5.4
	c-10.9,7.8-18.1,20.4-25.8,31.1c-6,8.3-12.2,16.6-17.5,25.3c-18.1,26.9-43.8,47.3-73.3,60.5c-15.9,7.2-31.7,14.8-42.4,29.2
	c-5.9,8-10,17.1-15,25.7c-4.4,7.9-9.6,15.3-15.5,22.1c-10.1,11.2-23.4,20.6-27.9,35.6c-2.8,9.2-1.4,19.3,0.4,28.5s4.3,20.4,6.7,30.5
	c10,40.5,23.4,80,35.1,120c8.9,30.5,13.9,64.2,33.6,90c10.5,13.8,24.9,25.2,42.3,28.6c19,3.7,37.6-2.9,54-12.4s31.1-20.4,43.2-34.1
	c6.3-6.9,11.5-14.8,15.4-23.3c3.8-8.7,6.3-18,7.3-27.5c4.9-40.5-14.2-79.2-27.1-116.4c-12.9-37.2-23.6-78.5-20.3-119.2
	c1.7-20.1,7.2-39.7,14.5-58.4c7.3-18.7,15.4-35.1,26.6-50.6c5.4-7.5,11.6-14.4,18.6-20.4c2-1.8,1.8-5.3,0-7.1c-2-1.9-5.1-1.9-7.1,0
	c-14.5,12.6-25.5,28.7-34.4,45.7c-9,17.3-16.3,35.4-21.6,54.2c-5.4,19.4-7.8,39.4-7.1,59.5c0.8,20.3,4.3,40.4,9.3,60
	c5,19.6,11.6,38.6,18.5,57.6c6.9,19,14.2,37.3,18.2,56.9c4,19.6,4,37.2-1.9,54.9c-5.9,17.7-17.6,30.3-31.1,41.4
	c-7,5.6-14.3,10.8-21.9,15.5c-7.6,5-15.9,9-24.5,11.9c-8.2,2.5-16.8,3.7-25.2,2.2c-8.2-1.5-16-5-22.7-10
	c-25.7-18.5-33.7-52.2-41.3-81.1c-9.9-37.7-22.6-74.5-33.2-112c-5.5-19.8-10.7-39.8-14.4-60c-1.5-8.1-2.6-16.9,0.6-24.7
	c3.2-7.8,7.5-11.7,12.3-16.6c4.8-4.9,10.6-10.2,15.2-15.9c6.1-7.6,11.5-15.7,16.1-24.2c4.5-8.1,8.5-16.8,14.6-23.9
	c5.5-6.1,12-11.2,19.3-15c7.4-4.1,15.1-7.2,22.6-10.8c7.6-3.7,14.9-7.8,22-12.4c9.7-6.4,18.8-13.7,27.1-21.8
	c-5.1,15.7-9.2,31.8-17.4,46.2c-2.8,5-6.3,9.6-10.3,13.7c-4.5,4.7,2.6,11.8,7.1,7.1c17-17.5,22.7-41.7,30.1-64.2
	c3.5-10.9,8.1-21.4,13.9-31.2l2-3c0.2-0.2,0.3-0.5,0.4-0.8c8-12.2,16.9-23.9,25.5-35.8c3.3-4.5,6.9-9.2,11.5-12.6
	c4.6-3.5,10.5-4.8,16.2-3.5c6.6,1.4,13,3.8,19.8,4.5c5.8,0.5,11.6,0,17.3-1.3c22.9-5.1,42.4-22.1,66.2-24c14.7-1.2,29.2,3.3,43.9,3
	c14.7-0.3,26.8-4.3,40-7.2c6.4-1.6,12.9-2.6,19.5-2.8c6.7-0.1,13.3,0.9,19.6,3c6.8,2.1,13.4,4.4,20.5,5.6c7.6,1.3,15.2,1.7,22.9,1.3
	c14.5-0.8,29.1-4.9,43.6-2.2c11.5,2.1,22.2,7.4,32.7,12.3c10.5,4.9,21.2,10.1,32.8,11.8c5.9,0.9,12,0.9,17.9-0.2
	c6.9-1.3,13.6-4.6,20.7-4.3c11.9,0.5,19.4,13.3,25.5,21.8c7.3,10.1,15,20,21.7,30.5l0.5,0.9c1.5,2.4,3,4.7,4.4,7.1
	c6.4,11,11.3,22.8,16.9,34.2c5.6,11.4,11.4,22.5,18.9,32.6c3.9,5.3,8.1,10.4,12.7,15.1c4.5,4.6,11.6-2.5,7.1-7.1
	c-8.7-8.9-15.6-19-21.6-29.7c10.7,10,24.1,17.8,39.2,16.2l3.9-0.5h1.6l2.4,0.5l1.1,0.4l0.7,0.3c1.9,1,3.7,2.2,5.4,3.4h0.1
	c0.2,0.2,0.5,0.4,0.2,0.2l0.4,0.3l1.3,1.1l3,2.7c4.3,4.2,8.3,8.8,12,13.6v0.2c0.1,0,0.1,0.1,0.2,0.2l0.9,1.1l1.4,1.9l3.1,4.4
	c2.1,3,4.2,6.1,6.2,9.2c8.1,12.6,15.5,25.7,22.1,39.1c3.1,6.2,6,12.5,8.7,18.9c0.1,0,0.1,0,0.1,0.1c0.2,0.4,0.4,0.8,0.5,1.2l0.9,2
	c0.5,1.4,1.1,2.8,1.6,4.3s1.9,5.1,2.8,7.7c0.9,2.6,1.3,4.3,1.9,6.5l0.6,2.8c0.1,0.4,0.2,0.8,0.2,1.2c0.1,0.1,0.1,0.2,0.1,0.4
	c0.2,3.7,0.5,7.5,0.7,11.2c0.7,13.6,1.1,27.2,1.2,40.7c0.3,17.3,0.2,34.6-0.6,51.8c-0.8,17.2-1.8,31.4-4.6,46.3
	c-1.4,6.8-3.2,13.5-5.3,20.1c-3,9.7-5.3,19.7-7.8,29.6c-4.9,18.5-11.3,36.5-26,49.6c-4.1,3.5-8.3,6.8-12.7,9.9
	c-3.9,2.9-8.1,5.4-12.5,7.4c-9.4,3.8-19.1,1.5-28.5-0.8c-10.3-2.5-20.4-6-30-10.6c-9.5-4.7-18.1-11.2-26-18.2s-16.1-16.2-21.4-26.3
	c-5.2-10.1-8.2-21.1-8.9-32.4c-0.8-12,0.3-24.1,3-35.8c2.6-12.4,6.3-24.5,11-36.2c4-9.8,9.9-18.6,14.1-28.3
	c2.2-4.8,3.8-9.9,4.7-15.1c0.9-6,0.2-11.5-0.8-17.4c-4.2-25.3-8.6-50.8-9.4-76.4c-0.4-11.6,0.1-23.1,1.7-34.6
	c1.8-11.9-1-23.3-5.6-34.3c-2.3-5.8-5-11.4-7.6-17c-2.6-5.6-4.8-11-7.3-16.5c-4.9-10.9-10.6-21.5-17.2-31.5
	c-6.5-10-14.4-19-23.3-26.9c-2-1.9-5.1-1.9-7.1,0c-1.8,1.8-2,5.3,0,7.1c18.6,16.2,31,37.9,40.8,60.3c4.7,10.8,10.2,21.4,14.2,32.6
	c2.1,5.3,3.3,10.8,3.8,16.4c0.3,5.8-0.9,11.5-1.5,17.3c-2.5,24.9,0.3,50,3.9,74.6c1,6.6,2,13.2,3.1,19.8s2.6,12.4,2.9,18.6
	c0.6,10.3-4.4,19.9-9.1,28.8c-2.6,4.8-5.3,9.7-7.6,14.7c-2.4,5.5-4.6,11.2-6.4,17c-4.2,12.1-7.3,24.6-9.2,37.3
	c-3.3,24.1-0.3,49.4,13.4,70c6.6,9.7,14.7,18.4,23.9,25.7c8.6,7,17.5,13.1,27.7,17.6c10.3,4.5,20.9,8,31.9,10.4
	c5.3,1.2,10.8,2.4,16.2,2.4c5.4-0.1,10.7-1.3,15.7-3.5c4.6-2.1,8.8-4.6,12.8-7.7c4.6-3.2,9.2-6.6,13.4-10.2
	c7.8-6.8,14.1-15,18.7-24.2c9.2-18.2,12.3-38.6,18-58.1c2-7,4.4-13.9,5.8-21.1s2.4-15.2,3.2-22.8c1.8-17.2,2.4-34.4,2.7-51.7
	C1003.2,433,1002.9,417.6,1002.4,401.2z"/>
</svg>
