<?xml version="1.0" encoding="utf-8"?>
<!-- Generator: Adobe Illustrator 24.2.3, SVG Export Plug-In . SVG Version: 6.00 Build 0)  -->
<svg version="1.1" id="a1f53453-3021-4296-b3b7-97eb284e3027"
	 xmlns="http://www.w3.org/2000/svg" xmlns:xlink="http://www.w3.org/1999/xlink" x="0px" y="0px" viewBox="0 0 1152 864"
	 style="enable-background:new 0 0 1152 864;" xml:space="preserve">
<path d="M224.8,496.7c0.4,12.7,2.3,25.5,6.9,37.4c0.5,1.7,1.8,3,3.5,3.5c1.7,0.4,3.6,0,4.9-1.3l4.6-4.9c3,7.3,7.3,14,12.8,19.8
	c1.8,2.1,5,2.3,7.1,0.5c2.1-1.8,2.3-5,0.5-7.1c-0.2-0.2-0.4-0.4-0.5-0.5c-0.8-0.9-1.6-1.7-2.3-2.6L261,540l-0.5-0.7
	c-1.5-1.9-2.8-4-3.9-6.2l-1.7-3.1c-0.2-0.6-0.4-1.1-0.7-1.6c-0.2-0.6-0.3-0.7-0.1-0.2l-0.3-0.7c-0.8-2.3-1.6-4.6-2.2-7
	c-0.8-2.7-3.5-4.2-6.2-3.4c-0.8,0.2-1.5,0.7-2.1,1.2l-4.7,4.9c-0.8-2.8-1.5-5.6-2-8.5c-0.3-1.5-0.5-2.9-0.7-4.3
	c-0.1-0.7-0.1-0.8-0.1-0.7c0-0.2,0-0.3-0.1-0.5c-0.1-0.8-0.2-1.5-0.2-2.3c-0.3-2.9-0.5-5.8-0.7-8.7c-0.5-11.8,0.4-23.7,1.3-35.5
	c0.9-11.8,2-23.9,1.9-35.8c0-5.9-0.3-11.8-1-17.7c-0.7-5.7-1.4-11.7-3.5-17c-1.2-3.2-3.2-6.1-5.9-8.3c-2.9-2.2-6.6-3.1-10.2-2.6
	c-5.2,0.7-9.6,3.8-13.2,7.6v-0.3c-0.1,0-0.3-0.5-0.5-0.7s-0.3-0.8-0.3-1s-0.6-2.3-0.9-3.4V383c-0.1-0.5-0.1-1.1-0.2-1.6v-3.5
	c0.1-1.1,0.1-2.2,0.2-3.3c0.1-0.5,0.2-0.9,0.2-1.4c0,0.6,0.1-0.7,0.1-1c1.8-11.1,4.2-22.1,7.3-32.9c1.6-5.4,3.3-10.7,5.2-16
	c0.9-2.6,1.9-5.1,2.9-7.7c1-2.6,1-2.5,1.6-3.8l0.4-1c0-0.1,0-0.2,0.1-0.3l0.9-2c4.4-10.3,9.5-20.2,15.2-29.8
	c3.2-5.4,6.6-10.7,10.2-15.8l5.4-7.6l1.2-1.5c1.4,0.6,3.1,0.6,4.5-0.2c3-1.9,4-5.9,2.1-9c-0.6-0.9-1.4-1.7-2.4-2.2
	c-3.9-2.3-8,0.1-10.4,3.2c-4,5.1-7.8,10.3-11.4,15.6c-21.2,31.6-35.4,67.3-41.8,104.8c-2,11.6-3.7,27.4,8.4,34.3
	c1.7,1,4.6,0.9,6-0.8c1.7-2.1,3.5-4.1,5.6-5.8l0.5-0.4l0.2-0.2l1.6-1l1.1-0.5l1.6-0.5h1.7c0,0.1,0.3,0.2,0.5,0.2
	c0,0.1,0,0.1,0.1,0.1l0.7,0.4c-0.8-0.4,0,0,0.3,0.3c0.3,0.3,1.1,1.4,0.5,0.5l0.8,1.2l0.8,1.5l0.3,1c0.7,2.4,1.3,4.8,1.8,7.3l0.6,4.2
	v0.2c0,0.3,0,0.7,0.1,1c0.1,0.8,0.2,1.5,0.2,2.3c0.6,5.6,0.8,11.3,0.8,16.9C227.9,451.2,224.1,473.9,224.8,496.7z"/>
<path d="M1042.4,355.9c-9.6-12.3-22.6-20.3-35.6-28.4c-13-8.1-24.2-15.3-34.9-24.7c-4.9-4.1-9.3-8.8-13-14
	c-3.3-4.9-5.7-10.4-7.1-16.2c-3.8-14.6-10.7-28.2-18.7-41s-17.4-25-26.5-37.3c-7.2-9.8-13.6-20.4-21.6-29.6
	c-7.2-8.2-16.3-14.3-26.6-17.9c-7-2.5-14.2-3.6-21.5-5c-8-1.7-15.8-4-23.3-7.1c-7.6-2.9-15.1-5.9-23-8.3s-16.8-3.9-25.3-5.2
	c-17.7-2.6-35.5-4.1-53.3-5.3c-23-1.7-46-3.6-69-5.2c-23-1.6-49.2-3.3-73.7-3c-4.6,0.1-9.1,0.2-13.6,0.6
	c-46.8,3.2-93.8,4.6-140.6,8.2c-29.9,2.2-59.7,5.7-88.6,14.5c-26.3,7.9-53,19-74.6,36.3c-19.9,16-32.2,38.2-43.4,60.8
	c-5.6,11.3-11,22.7-17.4,33.6c-6.6,11.2-14.5,21.6-23.5,31c-9.4,9.5-19.4,18.4-30,26.6c-10.4,8.2-21.3,15.6-31.6,23.9
	s-19,18-22.6,30.6c-3.6,12.6-1,25.6,8.4,35c4.4,4.4,9.7,8,13.6,12.9c3.2,4,5.5,8.6,6.7,13.5c3.1,10.7,2.9,22.1,3.2,33.1
	s0.7,23.1,4.3,34c1.8,5.4,4.8,11.3,11.3,11.5c4.4,0.2,8.1-2.6,11.3-5.4s4.3-4.1,6.9-5.3c10.8,11,14.9,26.3,18.5,41
	c3.9,16.5,7.4,33.8,17.1,48.1c1.9,2.9,5.3,3.2,7.9,1l11.7-9.5c8.9,33.3,8.2,68.4,15.4,102.1c1.9,8.9,4.5,17.7,7.8,26.2
	c1.8,4.4,3.7,8.7,5.8,12.8c2.1,4.1,4.2,7.6,8,9.6c9.5,4.9,16-5.6,19.4-12.9c3.7-8.1,6.1-16.8,7.1-25.6c2.3-17.5,1.2-35.4,4.3-52.8
	c6.9,3,15.4,1.8,21.8-2.8c11.1-7.8,12.8-22.3,13.1-34.8c0.8-32.6,0.9-65.3,1.4-97.9l0.3-19.6c5,13.7,11.3,26.9,17.7,39.9
	c0.8,1.6,1.6,3.2,2.3,4.9l0.4,0.8c0.1,0.1,0.1,0.3,0.1,0.4c0.1,0.1,0.2,0.3,0.2,0.5c0.4,0.8,0.7,1.6,1,2.5c0.6,1.6,1.1,3.2,1.5,4.9
	l0.6,2.6c0,0.2,0.1,0.5,0.1,0.8s0.1,0.9,0.1,1.1c0.3,2.6,2.2,5.2,5,5s5.3-2.2,5-5c-1.3-13.5-8.8-25.4-14.5-37.5l-4.2-9.3l-0.9-2.2
	l-0.6-1.2V496c-0.7-1.5-1.3-3.1-2-4.7c-2.4-6.3-4.7-12.6-6.6-19c-2-6.9-3.6-13.9-4.7-21l0.6-41.6c0.4-31.2,1.1-62.7,8.7-93.2
	c7.2-28.6,20.8-56.2,43.5-75.7c4.9-4.2-2.2-11.2-7.1-7.1c-43,37.1-52.7,96.6-54.6,150.4c-1.1,31.2-1.1,62.6-1.5,93.9
	c-0.4,31.3-0.9,63.3-1.3,95c-0.2,9-0.3,18.1-0.4,27.1c-0.1,6.9,0,13.9-1.8,20.6s-4.4,10.7-10,13c-3.7,1.6-9.5,2.1-12.2-1.7
	s-8-3.3-9.1,1.2c-4.2,16.4-3.9,33.4-5,50.2c-0.4,8.1-1.7,16.1-3.6,23.9c-1,3.6-2.3,7.1-3.9,10.5c-0.8,1.5-3.7,8.2-5.6,7.8
	c-1.9-0.4-1.9-2.2-2.3-2.8c-0.4-0.6-1.9-3.5-2.8-5.3c-1.9-3.9-3.6-7.9-5.1-11.9c-2.8-7.7-4.9-15.5-6.5-23.5
	c-3.6-16.8-5.1-33.9-6.9-51c-2.2-19.3-4.6-38.7-10.4-57.4c-1.2-3.8-5.5-4.5-8.4-2.2l-13.2,10.8c-10.9-19.7-11.6-43.3-20-64
	c-2.1-5.5-4.9-10.7-8.3-15.5c-1.7-2.4-3.5-4.6-5.6-6.6c-2.7-2.8-5.1-4.5-9.1-3.2s-8.8,5.7-13,9l-2.2,1.6c-0.7,0.3-0.4,0.3-1,0.2
	c1,0.2,0-0.2-0.5-0.7c-0.8-1.5-1.4-3.1-1.7-4.7c-7.5-24.4,0.8-51.4-10.6-74.9c-3-5.9-7.3-11.2-12.4-15.4c-5-4.4-10.9-8.8-13-15.5
	c-4.2-13.4,3.5-26.6,12.8-35.7c9.3-9.1,23.7-18.7,35.6-27.9c11.9-9.2,23.6-19,34.1-30c10-10.5,18.6-22.2,25.8-34.8
	c7.1-12.4,13.1-25.4,19.5-38.2c6.4-12.8,13.2-25,22.1-35.8c9.5-11,20.8-20.3,33.5-27.4c27.7-16,59.4-25.8,90.9-31s60.5-6.4,90.9-8.1
	c26.9-1.5,53.8-2.8,80.7-4.4l16.9-1c26-2,52.4,0.1,78.3,1.8s53.2,4,79.8,5.9c20,1.4,40,3.1,59.7,6.7c19.7,3.6,34.5,11.6,52.2,16.7
	c8.5,2.4,17.3,3.1,25.8,5.6c6,1.7,11.7,4.4,16.8,7.9c9.7,6.7,15.7,17,22.4,26.3c19.2,27.1,42.9,53.2,51.4,86.1
	c3.8,14.4,12.3,25.6,23.4,35.2c12.8,11.1,27.2,19.9,41.5,28.9s28.9,18.7,34.5,34.5c2.6,7,3.5,16.1-0.8,22.7c-0.6,0.9-0.7,1-1.2,1.2
	c-0.8,0.3-1.6,0.6-2.5,0.7c-3.2,0.4-6.4,0.2-9.6,0.5s-6.2,0.7-8.9,2.3s-4.9,4.5-6.7,7.3c-3.5,5.6-5.1,12.1-5.9,18.7
	c-1.7,13.9,0.7,28,1.8,41.9c0.6,6.7,0.7,13.5,0.3,20.3c-0.2,2.9-0.7,5.8-1.4,8.7c-0.4,1.4-0.8,2.8-1.4,4.1c-0.2,0.5-0.5,1-0.9,1.4
	c-0.6,0.6-0.1,0.2-0.6,0.1c-0.5-0.1-0.9-0.5-1.5-1c-0.9-0.6-1.8-1.3-2.7-2.1c-2.4-2.3-4.9-4.3-7.7-6.1c-3-1.7-6.6-2.9-9.8-1.3
	c-3.2,1.7-6.1,3.7-8.8,6.1c-20.8,17.3-20,46.9-25.6,71c-0.8,3.8-1.9,7.6-3.2,11.3l-12.5-10.2c-2.4-1.9-6.2-2-7.8,1
	c-20.4,37.4-22.7,80.2-27.9,121.5c-1.2,10-2.8,20-4.6,29.9c-0.5,2.8-1,5.5-1.6,8.3c-0.1,0.4-0.2,0.9-0.4,1.3c-0.3-0.7-0.7-1.3-1-1.9
	c-1.4-2.5-2.6-5.1-4-7.5c-4.4-7.6-7.2-16-8.4-24.7c-3-22,0.8-44.5-4.8-66.2c-1.1-4.5-6.7-4.5-9.1-1.2s-8.4,3.3-12.2,1.7
	c-5.5-2.3-8.4-7.4-10-12.9c-1.9-7.2-1.7-14.7-1.8-22c-0.1-9.2-0.3-18.3-0.4-27.5l-1.5-107.4c-0.5-35.1,0.2-70.5-2.8-105.5
	c-1.4-16-4.3-31.6-7.6-47.3c-2.2-10.6-4.3-21.3-7.1-31.8c-5.7-21-16.6-46.6-42-47c-6.4-0.1-6.4,9.9,0,10
	c20.2,0.3,28.1,23.8,32.5,40.4c2.9,10.7,4.9,21.6,7.3,32.4c3.5,15.8,6,31.9,7.3,48.1c1.3,17.7,1.5,35.4,1.7,53.2
	c0.2,17.8,0.6,36.6,0.8,55c0.5,36.6,1,73.3,1.6,109.9c0.1,9.8-0.1,19.6,0.5,29.4c0.5,8.1,1.9,16.5,6.6,23.3
	c6.2,8.9,18.6,13.3,28.1,9.2c2.9,17.9,0.7,36.2,2.7,54.2c1.1,10.2,3.4,20.2,8.5,29.2c3.2,5.7,5.8,12.1,10.1,17.1
	c2.3,2.7,5.8,4.4,9.1,2.4s4.2-5.3,5.1-8.3c2.2-7.3,3.3-15.2,4.5-22.8c3.6-22.1,5.3-44.4,8.5-66.6s8.1-45.1,18.2-65.6l12.9,10.4
	c2.2,1.9,6.3,2.2,7.8-1c6-12.2,8-25.6,10.2-38.9s4-25.7,10.6-36.7c3.5-5.7,8.4-10.4,14.1-13.8c3.7,1.4,6.5,4.8,9.5,7.1
	c3,2.3,9.7,5.5,14.7,2.1c5-3.4,6.7-11.3,7.6-17.2c0.8-6.2,1.1-12.4,0.7-18.6c-0.6-12.8-2.7-25.6-2.8-38.4c-0.2-5.5,0.5-11,1.8-16.3
	c1-3.7,3.2-9.8,6.5-11.6c3.3-1.8,9.8-1,14.1-1.5c6.8-0.9,10.8-4.2,13.5-10.6C1057.1,383.4,1051.6,367.6,1042.4,355.9z"/>
</svg>
