<?xml version="1.0" encoding="utf-8"?>
<!-- Generator: Adobe Illustrator 24.2.3, SVG Export Plug-In . SVG Version: 6.00 Build 0)  -->
<svg version="1.1" id="b58fd6b3-0d06-4b74-bd20-31cedbd57abb"
	 xmlns="http://www.w3.org/2000/svg" xmlns:xlink="http://www.w3.org/1999/xlink" x="0px" y="0px" viewBox="0 0 1152 864"
	 style="enable-background:new 0 0 1152 864;" xml:space="preserve">
<path d="M976.8,626.9c-5.3-9.9-12.1-18.9-17.7-28.6c-2.2-4.1-4.1-7.8-3.9-12.3s1.7-8.4,3.3-12.4c3.4-8.6,7.7-17.1,6.1-26.5
	c-1-5.5-4.3-9.8-7.2-14.3c-3.5-5.2-6.7-10.7-9.5-16.4c-4.5-9.1-7.6-20.4-0.5-29c10.3-12.5,15.4-27.5,17.7-43.4
	c2.6-18.1,2.1-36.6,0.2-54.8c-3.7-33.7-11.2-66.8-22.5-98.8c-1.4-4.2-3-8.4-4.8-12.6c0-0.2-0.1-0.4-0.1-0.6
	c-2.7-10.6-7.1-20.7-13.1-29.9c-6.4-9.7-13.8-18.7-22-26.9c-10.6-10.6-22.3-20.8-36-27.3s-27.1-12.2-41-17.5
	c-16.5-6.3-33.5-12.2-51-15.3c-6.6-1.2-13.4-2.1-20.1-1.6c-3.7-2.8-7.6-5.4-11.7-7.7c-4.5-2.6-9.2-4.8-13.7-7.5s-8.6-5.3-12.9-8
	s-8.5-5.4-13.2-7.3c-4.2-1.6-8.5-2.9-12.9-3.9c-20.7-5.1-41.8-8.8-63-10.9c-30.2-3.2-60.5-4.2-90.8-3.2h-4.1
	c-14.1,0.8-28.1,3.2-41.9,6.1c-13.8,2.9-28.7,6.4-42.4,11.4c-7.7,3-15,6.7-22.1,10.9c-3.6,2.1-7.4,4-11.2,5.7c-4.5,1.7-9.2,3-14,3.7
	c-9.5,1.6-18.8,2.6-27.7,6.4c-5.5,2.4-10.6,5.6-15.3,9.4h-0.9c-17.9,0-35.8-0.8-53.5,2.6c-4.7,0.9-9.2,2.1-13.7,3.7l-6.2,2.5
	l-1.9,0.8l-1.2,0.5c-5,1.9-10.2,3.6-15.2,5.8c-29.9,13.1-48.8,43.2-57,73.9c-1.3,4.7-2.3,9.5-3.8,14.1c-1.5,4.6-2.4,6.1-3.5,9.2
	c-1.6,4.6-3,9.4-4,14.2c-2.1,9.8-3.2,19.7-3.4,29.7l-0.3,0.7c-11.9,29.1-18.5,61-13.1,92.3c3.1,18.2,10.7,35.5,12.3,54
	c1.6,18.5-4.8,35.6-14.4,51.2c-19.6,31.8-51.5,56.7-59.6,94.8c-3.8,17.9-1.6,36.9,9.6,52c9.9,13.4,26.4,25.4,44,24.1
	c8.7-0.5,16.8-5,21.9-12.1c4.9-6.5,7.5-14.3,12.1-21c4.6-6.7,12.1-13.9,17.7-21.3c5.5-7.2,10.2-14.9,14.1-23.1
	c16.4-34.3,18.8-73.2,11.7-110.2c-1.6-8.4-3.7-16.7-6.2-24.8c-0.6-7.8,1.1-14.8,4-22.4c2.9-7.6,7-15,10.6-22.4
	c4.2-8.2,7.4-16.8,9.8-25.7c2.3-9.5,3.9-19.1,4.9-28.8c2.2-18.2,3.2-36.6,5-54.9s4.7-35.9,11.3-52.9s16.1-31.3,26.7-45.2
	c10.6-13.9,22.3-27.2,34.2-40c5.5-6,11.4-11.8,17.9-16.3s14.7-7.6,23.5-9.2s18.6-2.5,27.4-6.1c8.8-3.6,16-8.7,24.2-12.7l2.9-1.3h0.4
	l0.8-0.3l4.2-1.7l9.2-3c7.2-2.2,14.4-4.1,21.7-5.8c7.3-1.7,14.8-3.3,22.3-4.6c3.5-0.7,7.1-1.2,10.6-1.8l2.5-0.3h1.5l5-0.6l8.5-0.7h1
	c25.8-1,51.7-0.4,77.4,1.6c20.2,1.4,40.3,4.2,60.1,8.3c9.7,2,19.6,3.8,28.8,7.4l0.8,0.3l0.8,0.3l2.6,1.4l6.9,4.2
	c4.5,2.8,8.9,5.7,13.4,8.4c4.5,2.7,8.9,4.6,13.2,7.1l6.3,3.8l2.8,1.9l1.3,1l1.2,0.9c3,2.3,5.7,4.9,8.3,7.6l1.7,1.9l0.8,1l0.4,0.5
	l2.7,3.9c1.8,2.9,3.2,5.9,4.8,8.9c2.2,4.3,4.7,8.4,7.4,12.4c5.2,7.9,10.9,15.5,16.5,23.1c5.7,7.6,11,15.5,15.8,23.6
	c4.6,8.2,8.2,16.9,10.6,26c5.5,20.4,6.2,41.6,6.6,62.7c0.4,21.1,0.3,43.8,4,65.4c1.9,10.5,5,20.7,9.1,30.5c1.9,4.5,3.7,9.1,5.3,13.7
	c0.7,2,1.3,4,1.8,6c0.3,1.1,0.6,2.2,0.8,3.3l0.3,1.7c0.1,0.4,0.2,0.7,0.2,1.1c0.1,0.2,0.1,0.4,0.1,0.6c0.6,4.5,0.5,9-0.2,13.5v0.5
	c-4.6,11.2-7.2,23.4-8.7,35.6s-1.8,23.1-2.1,34.7c-0.4,11.5,1.6,23,6,33.6c9.3,23.5,25.4,43.5,40.7,63.4c3.9,4.9,8,9.7,11.6,14.9
	s5.8,10.5,8.3,16s5.1,10.7,9.3,14.8c4.2,4.2,9.7,6.9,15.6,7.7c11.9,1.8,24-2.5,33.5-9.4s19.2-17.1,22.5-28.7
	S981.7,636.1,976.8,626.9z M240.7,571.4c-3.2,17.2-9.4,33.6-18.4,48.6c-4.7,7.4-10.1,14.4-16.2,20.8c-3.4,3.7-6.5,7.6-9.3,11.7
	c-2,3.3-3.9,6.6-5.5,10.1c-3.3,6.4-7.1,13.8-14.4,16.3s-15.1,0.7-21.7-2.6c-15-7.5-25.5-21.8-28.1-38.3
	c-2.6-17.5,3.7-35.4,12.5-50.3s22.3-30.1,33.8-44.9s21.6-30.3,26.5-48.2c2.4-9.1,3.3-18.5,2.4-27.8c-0.9-9.7-3.3-19.2-5.8-28.6
	c-2.5-9.4-5-17.5-6.6-26.4c-1-5.4-1.6-11-1.7-16.5c-0.4-14.9,1.5-29.8,5.5-44.2c0.1-0.6,0.3-1.2,0.5-1.8c1,18.8,3.1,37.7,9.2,55.7
	c6.1,18,15.8,36,23,54.3c2.7,6.7,5.1,13.5,7.2,20.5c0,0.1,0.1,0.2,0.1,0.3C242.7,509.6,246.5,540.9,240.7,571.4z M334.3,187.4
	c-6.1,6.8-12,13.7-17.8,20.7c-11.7,14.2-22.7,29.1-31,45.6s-13.3,34.8-15.9,53.3c-2.6,18.5-3.6,37.1-5.3,55.6
	c-1.7,18.5-3.7,38-10.8,55.7c-5,12.7-13.2,25-17.4,38.4c-1.5-3.8-3.1-7.6-4.7-11.3c-7.9-18.3-17.2-36-22-55.5s-5.5-38.5-5.9-57.8
	c-0.4-19.3,1.3-38,8.3-55.9c4-10.3,5.9-21.2,9.6-31.6c5.7-16,15.2-31.5,27.8-42.9c5.6-5,11.8-9.1,18.6-12.3
	c4.5-2.2,9.5-3.8,14.5-5.7c7.4-2.8,14.3-5.7,22.1-7.4c8.9-1.7,18-2.6,27.1-2.7h15.4C342.5,178.1,338.4,182.7,334.3,187.4z
	 M842.3,418.1c-3.2-10.3-5.1-20.9-5.8-31.6c-0.9-11-1.3-22-1.6-33c-0.5-21.8-0.4-43.7-4-65.2c-1.7-10.7-4.6-21.1-8.7-31.1
	c-3.8-8.6-8.5-16.9-13.9-24.6c-10.8-16-23.6-30.7-32.5-48c-2.8-5.6-6.1-10.8-10.1-15.6c2.8,0.3,5.2,0.7,8.6,1.3
	c8.6,1.8,17.1,4,25.5,6.8c16.5,5.3,32.7,11.4,48.5,18.5c9.9,4.3,19.5,8.6,28.3,15.1c8.9,6.8,17.2,14.4,24.7,22.7
	c7.7,8.2,14.4,17.4,19.9,27.2c3.1,6.1,5.5,12.5,7.2,19.2c0,0.5,0.2,1,0.4,1.5c1,4.3,1.9,8.6,2.8,12.9c2.6,13.1,3.8,26.8,2,40.2
	c-0.6,5.5-1.8,10.9-3.6,16.1l-0.6,1.5l-0.3,0.9l-1.8,3.7c-3.3,6.4-7,12.6-10.9,18.7c-9.5,15.2-19.8,29.9-30.4,44.3
	c-7.5,10.3-14.3,20-23.3,29.3c-2.6,2.6-4.9,5.4-7,8.4c-0.6-3.7-1.5-7.3-2.7-10.8C849.9,436.9,845.4,427.8,842.3,418.1z M972.8,655.6
	c-3.6,10.5-13,19.6-22.4,25s-20.8,8.1-29.7,2.2c-4.5-2.9-7.1-7.9-9.3-12.7s-4.5-10.9-7.7-15.9s-7.8-10.3-11.8-15.4L881.3,625
	c-7.7-10.1-15.2-20.3-21.6-31.3s-11-20.8-13.4-32.3s-1.1-22-0.5-32.7c0.9-16.8,2.8-34.6,9.3-50.3c0.2-0.4,0.4-0.8,0.5-1.2
	c1.8-4.2,4-8.3,6.5-12.1c3.7-5.5,8.6-9.9,12.8-15c4.2-5.1,8.7-10.8,12.9-16.3c10.7-14,20.9-28.4,30.6-43.1
	c7.7-11.7,16.1-23.8,21.1-37c2.7-7.7,4.3-15.7,4.7-23.8c2.9,11.4,5.4,22.8,7.5,34.2c3.2,18.2,5.3,36.6,5.2,55.2
	c0,8.3-0.6,16.7-1.9,24.9c-0.6,4-1.5,8.1-2.6,12c-1,3.5-2.2,6.9-3.5,10.2c-1.5,3.1-3.1,6.2-5,9.1c-0.5,0.9-1.1,1.7-1.7,2.4
	c-0.2,0.5-0.6,0.9-1,1.3c-1.8,2-3.4,4.3-4.8,6.6c-5.8,10.9-2.9,23.1,1.9,33.8c2.6,5.5,5.6,10.9,9,16c2.8,4.3,6.6,8.5,7.5,13.5
	c0.6,3.4-0.4,7.4-1.7,11.3s-3.4,8.2-4.9,12.3c-1.8,4.4-2.9,9.1-3,13.9c0,5.4,1.8,10.2,4.3,14.9c5.2,9.6,11.8,18.3,17.2,27.8
	C971.1,637.1,975.8,646.8,972.8,655.6z"/>
</svg>
