<?xml version="1.0" encoding="utf-8"?>
<!-- Generator: Adobe Illustrator 24.2.3, SVG Export Plug-In . SVG Version: 6.00 Build 0)  -->
<svg version="1.1" id="aa40a852-f916-4db7-b7ac-b405b5e91cfa"
	 xmlns="http://www.w3.org/2000/svg" xmlns:xlink="http://www.w3.org/1999/xlink" x="0px" y="0px" viewBox="0 0 1152 864"
	 style="enable-background:new 0 0 1152 864;" xml:space="preserve">
<path d="M1009.6,568.7c-5.6-30-14.1-59.8-28.5-86.8c-4.7-8.6-9.9-16.9-15.7-24.8l-7.8-10.4c-1.2-1.4-2.3-2.9-3.4-4.3l-0.9-1.1h-0.1
	l-1.7-2.2l-2.7-3.6c3.7,0.6,7.4-0.4,9.6-3.7c2.2-3.3,2.1-8.9,1.6-13.2c-2.8-22.7-13.7-42.2-27-60.3c-3.6-5-7.5-10-11-15.1h1.6
	c2.8,0,5-2.3,4.9-5.1c0-1.3-0.5-2.5-1.4-3.4c-6.1-6.9-12.2-13.9-17.2-21.7c-1.6-2.4-3-4.9-4.2-7.5l-0.5-1.1
	c-0.1-0.3-0.2-0.6-0.4-0.9c-0.4-1-0.7-2.1-1-3.1c-2.1-7.5-2.2-15.1-5.2-22.4c-1.4-3.5-3.1-6.9-5-10.1l6.7,2.4
	c3.5,1.3,7.3-2.7,6.1-6.1c-2.9-8.9-12.1-15.7-19.1-21.4s-17-13-25.5-19.7c4.3,0.9,8.6,1.9,12.2,4.4c2.2,1.2,4.9,0.6,6.5-1.3
	c1.6-2.1,1.2-4.6-0.4-6.6c-11.3-13.8-26.7-24.2-41.6-33.8c-16.7-10.7-34-20.2-51.2-30.1l-13.2-7.8h6.3c4.8,0.3,7.1-7.3,2.5-9.3
	c-25.9-11.4-52.9-19.8-80.7-25.2c0.6-0.6,1.2-1.3,1.9-1.9c2.8-2.9,0.9-8.9-3.6-8.6l-79.2,6.8c1.6-3.2,3.8-6.2,6.3-8.8
	c1.9-2.1,1.7-5.3-0.4-7.2c-1.2-1.1-2.9-1.6-4.5-1.2c-9.9,2.6-19.5,6.4-28.5,11.3c0.1-2.1,0.4-4.1,1.1-6.1c1.2-3.9-3.8-8.4-7.4-5.7
	c-6,4.5-10.8,10.5-13.9,17.4c-22.1-6.9-44.4-13-66.8-18.3c-5.8-1.4-8.3,5.8-3.9,9.1c2.4,1.8,5.7,4,6.5,7c0.4,1,0.4,2,0.1,3
	c-0.1,0.3-1.5,0.2-2.5,0.1c-9.2-1.1-18.5-1.8-27.8-2.6l-59.6-5.1c-4.4-0.3-6.4,5.7-3.5,8.6l2.5,2.5c-29.8,5.7-58.9,14.8-86.7,27
	c-4.6,2-2.2,9.6,2.5,9.3c2.9-0.2,5.8-0.2,8.7,0c-29.5,21.4-56,46.5-79,74.7c-1.6,1.9-2.1,4.5-0.4,6.5c1.4,2.1,4.3,2.7,6.4,1.3
	c3.1-2.2,6.5-4.1,10-5.6c-5.1,8.5-9.2,17.6-12.2,27c-1.1,3.5,2.6,7.4,6.1,6.1l11.6-4.1c-18.6,45.9-43.1,89-73.1,128.4
	c-9,11.8-18.4,23.2-28.3,34.2c-1.9,2-1.9,5.1,0.1,7.1c0.9,0.9,2.1,1.4,3.4,1.4h2.5c-18.1,32.5-29.2,68.4-32.5,105.5
	c0,2.2,1.5,4.2,3.6,4.8c2.3,0.7,4.3-0.5,5.7-2.3l5.2-6.9c1.6,24.1,0.2,48.3-3.9,72.1c-0.8,4.4,4.8,9.1,8.4,4.9
	c6.4-7.7,12.8-15.3,19.3-22.9c-3.9,46.4-7.7,92.8-11.6,139.1c-0.4,4.4,5.7,6.5,8.5,3.6c17-17.5,32-36.6,46.7-56
	c-1.3,14.9-1.1,29.9,0.6,44.7c0.4,3.4,2.9,5.5,6.3,4.8c8.4-1.5,15.8-7.1,22.2-12.3c9.3-7.5,17.5-16.2,25.4-25.1
	c19.9-22.6,37.6-47.3,54.2-72.4c14.1-21.5,28-43.7,38.8-67.1c8.5-18.3,16.1-37.4,21.4-56.8c3.2-11.2,5.1-22.7,5.9-34.3
	c0.5-10.1-0.1-20.3-1.8-30.3c-2.9-18.3-7.9-36.3-11.5-54.5c-1.8-9.3-5.5-18.1-8.8-27c-3.3-8.9-6.1-17.1-5.6-26
	c0.3-3.8,1.6-7.5,3.7-10.7c2.1-3.4-1.6-9.1-5.7-7.4l-0.6,0.3c9-21.8,28.3-38.4,50.3-46.9c2.5-1,4.2-3.3,3.5-6.1
	c-0.7-2.8-3.6-4.5-6.2-3.5l-10.5,4.2c-1,0.4-1.8,1-2.5,1.8c-22.7,12.2-41.3,32.3-47.5,57.9c-0.8,3.3,2.4,7.7,6.1,6.2
	c-2.4,13.5,3.6,28.1,8.3,40.7c1.6,4.4,3.2,8.8,4.5,13.3s2.2,10.4,3.3,15.6c1.8,9,4,17.9,6,26.9c4.2,18.6,6.7,37.2,3.9,56.2
	c-3.3,22.6-11.6,44.2-20.4,65.1c-9.7,23.1-22.4,44.7-35.8,65.8c-15.9,25.1-33,49.6-52,72.5c-8.1,9.9-16.8,19.3-26.1,28.1
	c-3.5,3.3-7.2,6.4-11,9.2c-1.8,1.3-3.6,2.5-5.5,3.6l-2.5,1.3l-0.5,0.2c-1.6-18.3-0.8-36.7,2.2-54.8c1-5.7-5.7-8.4-9.1-3.8
	c-15.1,20.2-30.2,40.4-47,59.1c3.8-46.8,7.7-93.6,11.6-140.4c0.4-4.2-5.8-6.8-8.5-3.5L181,585.1c2.8-23.4,3-47,0.4-70.4
	c-0.6-5.1-6.3-6.6-9.3-2.5l-1.7,2.2c5.5-32.6,17.2-63.8,34.5-92c2.3-3.7-0.7-7-4.1-7.3c32.2-37.7,59.3-79.4,80.6-124.1
	c6.6-13.8,12.6-27.9,18.1-42.2c1.3-3.4-2.8-7.3-6.2-6.1l-11.8,4.2c4.1-9.6,9.3-18.7,15.7-27c2.9-3.7-1.9-8.1-5.6-7.3l-4.5,1.1
	c21.4-23.5,45.5-44.4,71.7-62.3c3.5-2.3,3.2-7.9-1.2-9.1l-1.9-0.5c24.2-9.1,49.3-15.8,74.8-20.1c3.7-0.6,4.6-5.4,2.6-7.9l58.5,4.9
	l15.4,1.5c4.9,0.6,9.6-0.8,11.9-5.6c1.6-3.2,1.7-6.9,0.5-10.2c18.9,4.8,37.7,10.1,56.3,16c2.7,0.7,5.4-0.9,6.2-3.5
	c0.7-2.4,1.7-4.7,2.9-6.9c0.2,1,0.4,1.9,0.7,2.9c0.7,2.7,3.5,4.2,6.2,3.5c0.4-0.1,0.8-0.3,1.1-0.5c6-3.8,12.3-7,18.9-9.6
	c-0.9,2-1.5,4.1-1.9,6.3c-0.4,1.9,0.3,3.9,1.7,5.2c0.8,1.5,2.5,2.3,4.2,2.1l72-6.2c-1.5,2.7-0.5,6.8,2.9,7.4
	c23.6,3.9,46.8,10.1,69.2,18.5l-0.8,0.2c-4.4,1.2-4.7,6.8-1.2,9.2c30.9,20.9,65.5,36,95.2,58.7c1.9,1.4,3.7,2.8,5.4,4.3
	c-3.9-0.6-7.9-1.1-11.6-1.9s-8,4.5-4.9,8.4c2.4,2.8,5.1,5.4,8.1,7.6c4.3,3.5,8.7,6.9,13.2,10.3c7.6,5.8,15.3,11.5,22.5,17.8l-3-1.1
	c-3.9-1.4-8.1,3.9-5.6,7.4c7.2,10.1,13.2,19.5,15.1,31.5c0.4,3.5,1.1,7,1.9,10.4c1.4,5,3.5,9.7,6.4,14c3.2,5.2,6.7,10.1,10.7,14.7
	c-3.2,0.6-5.5,3.8-3.6,7.3c4.7,9.1,11.2,17.1,17.2,25.3c7.2,9.9,14.1,20.1,18.8,31.4c2.6,6.2,4.5,12.6,5.7,19.2c0.7,3,1,6.1,1.1,9.2
	c0.1,0.6,0.1,1.3,0,1.9l-0.6-0.2l-0.9-0.3l-0.7-0.3l-2.5-1.3c-2.4-1.4-4.8-3.5-7.4-4.3c-2.7-0.9-5.6,0.6-6.4,3.3
	c0,0.1,0,0.2-0.1,0.2c-0.6,2.1,0.4,4,1.3,5.9c1,2.3,2.2,4.5,3.5,6.6c3.3,5.1,6.8,9.9,10.6,14.6l2.8,3.6l2.6,3.4c2.3,3,4.5,6,6.7,9.1
	c4.9,7,9.4,14.3,13.4,21.8c9.8,18.3,16.6,37.9,21.6,57.9c-6.9-10.5-13.8-21-20.8-31.5c-2.1-3.2-4.2-6.4-6.5-9.5
	c-2.3-3.1-8.7-2.6-9.3,2.5c-2.6,24.2,3.6,48.2,8.7,71.9c-3.7-2.5-7.7-4.7-11.4-7c-7.6-4.6-16.1-9-22-15.9c-2-2.2-6.7-1.8-7.9,1.1
	c-7.5,17.5-4.7,36.1,1.8,53.6c7.1,19,17.3,36.6,24.9,55.4c2.3,5.4,4.2,11,5.7,16.7c-7.9-8-15.8-16.1-23.5-24.3
	c-11.4-12-22.8-24.2-32.7-37.5c-3.4-4.5-10.2-1.9-9.1,3.9s3.9,11.7,6.6,17.1s7,12.5,10.6,18.7s9.6,15.8,12,24.3
	c-8.4-4.8-17.5-8.2-26.5-11.5c-14.7-5.5-29.4-10.8-43-18.7c-30.4-17.6-50.6-48.1-60.9-81.1c-3.8-12-6.2-24.3-9.6-36.4
	c-2.2-7.8-4.6-15.3-6-23.3c-1.4-9.1-2.2-18.2-2.2-27.4c-0.1-15.8,1.3-31.5,4-47.1c0.9-5.3,1.9-10.6,2.8-16
	c0.9-5.4,1.4-10.8,2.5-16.2s3.8-13.5,5.5-20.4c2.1-8.4,2.8-17,3.3-25.7c1.1-16.8,1.2-35-4.8-51.1l5.5,1.9c3.8,1.5,6.9-2.8,6.1-6.2
	c-3.5-15.5-13.1-28.6-25.6-38.2c-6.1-4.7-12.6-8.6-19.6-11.8c-3.5-1.6-7.2-3.1-10.9-4.4s-6.5-3-9.3-2.1c-2.7,0.8-4.2,3.5-3.4,6.2
	c0.3,1.2,1.1,2.3,2.2,2.9c1.4,1,3.6,1.5,5.2,2.1l6.5,2.5c0.6,0.3,1.3,0.3,2,0.2l4.2,1.9c6.1,2.9,11.9,6.4,17.2,10.5
	c8.2,6.2,14.7,14.4,18.9,23.8c-2.5-0.6-5-1.5-7.4-2.4c-4.1-1.7-7.9,3.9-5.6,7.3c9,14,9.7,31.9,9.3,48c-0.3,8.4-0.6,17.1-2,25.4
	s-3.7,14-5.6,21.1c-1,3.9-1.8,7.9-2.4,11.9c-0.3,2-0.5,4-0.7,6c-0.1,0.4-0.1,0.8-0.2,1.3c-0.8,4.6-1.7,9.3-2.5,14
	c-2.9,15.2-4.6,30.6-5.1,46.1c-0.6,18.6,1,37.6,6.5,55.5c3.6,11.5,6,23.3,9.2,34.9c9.3,33.6,27,65.5,55.4,86.7
	c13.4,10.1,28.8,16.9,44.3,22.9c12.9,4.9,26.5,9,38.5,16c2.3,1.4,4.6,2.9,6.7,4.5c3.5,2.9,8,0.9,8.5-3.5s-1.1-11.9-3.2-17.4
	c-2.8-6.9-6.1-13.5-9.9-19.9l-0.3-0.4c13.9,15.1,28.6,29.5,42.8,44.1c2.8,2.9,8.9,0.9,8.5-3.5c-1.7-20.1-10.1-38.6-18.7-56.6
	s-17.2-33.9-20.4-52.4c-1.3-6.8-1.1-13.7,0.4-20.4c5.2,4.2,11.3,7.6,16.9,11.1c7.6,4.6,16.2,9,22.1,15.8c3.5,4.2,9.1-0.4,8.3-4.8
	c-4-22.6-11-45.3-11.7-68.3l6,9.3L994,563c2.1,3.2,4.2,6.4,6.4,9.5C1003.8,577.1,1010.7,574.4,1009.6,568.7z M950.7,425.3
	c0.1,0.2,0.4-0.1,0.5,0.1c0,0.2-0.1,0.4-0.4,0.2l0.4-0.2L950.7,425.3C950.3,425.1,950.6,425.1,950.7,425.3z"/>
<path d="M377.5,224c8.8-8.4,18-16.4,27.6-24c2.1-1.6,1.7-5.3,0-7s-4.9-1.7-7.1,0c-17.5,13.7-33.7,29-48.4,45.7
	c-14.9,16.8-28.3,35-40,54.2c-7,11.6-15.1,24.2-13.1,38.4c0.3,2.3,2.8,3.4,4.8,3.6h0.4c-1.6,11.7-3.1,23.5-4.9,35.1
	c-2.1,13.9-5.1,27.7-10.4,40.8s-11.7,24.4-18.4,36.1c-6.7,11.7-13.9,24.7-21.3,36.8c-8.5,13.9-17.7,27.4-26.8,40.8
	c-1.4,2.4-0.6,5.4,1.7,6.9c0,0,0,0,0.1,0c2.4,1.3,5.4,0.5,6.8-1.8c8.2-12.1,16.4-24.1,24.2-36.5c7.8-12.4,14.6-24.7,21.7-37.1
	c7.1-12.4,13.7-24.1,19.3-36.8c5.6-13.2,9.6-27,11.9-41.2c2.7-16.2,4.6-32.5,6.8-48.7c0.3-2.2-0.2-4.4-2.3-5.6
	c-1.2-0.7-2.5-0.8-3.8-0.5c0.1-0.5,0.2-1.1,0.3-1.5c0.6-2.6,1.5-5.2,2.6-7.6c2.4-5,5.3-9.9,8.2-14.7c5.5-9.3,11.5-18.3,17.8-27
	C347.8,255.1,362,238.9,377.5,224z"/>
<path d="M347.3,460.1c-2.3,15.7-4.7,31.5-9.7,46.7c-0.7,1.8-1.3,3.7-2,5.5s-0.7,1.8-1.1,2.7l-0.3,0.7c-0.1,0.4-0.3,0.8-0.5,1.2
	c-1.6,3.6-3.5,7.3-5.6,10.8c-4.1,7.2-8.8,14.1-13.4,20.9l-16.4,24.7c-1.4,2.4-0.7,5.4,1.6,6.9c2.4,1.4,5.4,0.7,6.9-1.6l0.1-0.1
	l14.7-22c4.6-7,9.4-14,13.7-21.2c8.5-14.2,13.8-29.6,17.1-45.7c1.9-8.9,3.2-17.9,4.6-26.9c0.4-2.5-0.7-5.5-3.5-6.1
	C350.7,456,347.8,457.3,347.3,460.1z"/>
</svg>
