<?xml version="1.0" encoding="utf-8"?>
<!-- Generator: Adobe Illustrator 24.2.3, SVG Export Plug-In . SVG Version: 6.00 Build 0)  -->
<svg version="1.1" id="f9fd0c84-ec05-40d8-a156-f9f53db939bc"
	 xmlns="http://www.w3.org/2000/svg" xmlns:xlink="http://www.w3.org/1999/xlink" x="0px" y="0px" viewBox="0 0 1152 864"
	 style="enable-background:new 0 0 1152 864;" xml:space="preserve">
<path d="M1032.9,446.3c-1.1-4.9-2.3-9.7-3.6-14.5c-2.5-9.6-5.4-19-8.6-28.4c-5.2-15.5-10.6-31.3-18.1-45.9
	c-6.2-12-14.2-23-23.7-32.6C967,313,953.2,304.1,939,295.3s-28.4-20.5-41.4-32.1s-26.1-24.1-39.6-35.7c-6.7-5.7-13.6-11.4-20.8-16.6
	s-15.6-9.4-24.6-8.6s-16.1,4.8-23.8,8.2s-14.4,5.1-22.4,3.3s-15.5-6-22.9-9.8c-5.8-3-11.7-5.5-17.8-7.7
	c-24.5-8.3-50.9-11.2-76.5-13.6c-27.9-2.7-56-3.9-84-4.6l-31.9-0.7c-47.9,0.9-95.2,11-139.2,29.9c-13.7,5.8-27.9,14-43.3,13.6
	s-26.8-10.3-41.3-9.5c-7.5,0.4-14.3,3.6-20.4,7.7s-12.9,9.7-19.3,14.7c-25.8,20.3-51.2,41.2-76.1,62.7
	c-22.7,19.7-45.7,39.6-63.9,63.6c-9,12-16.4,25.1-22,39c-5.9,14.5-9.8,29.7-13.3,44.9c-0.8,3.8-1.7,7.7-2.5,11.5s-1.6,7.3-1.1,11
	c0.5,3.7,2.3,7,5.2,9.3c2.3,2,4.5,3.5,5.7,6.4c2.5,5.9,2.2,13,3.3,19.2c1.1,6.4,2.7,12.7,4.7,18.9c10.4,31.6,31.9,58.4,60.5,75.5
	c5.3,3.1,10.8,6,16,9.3c10,6.3,18.7,14.2,19.4,26.6c0.4,8.1-0.2,16.1,0.9,24.1c1,8.1,2.9,16,5.7,23.6c2.5,6.6,5.5,13.3,11.3,17.6
	s13,4.1,19.1,1.1c14.7-7.4,14.6-25.1,13-39.1c-1.9-16.7-4.1-33.4-6.3-50.1c-4.3-33.2-8.2-66.6-8.1-100.1c0.1-29,3.4-58.1,12-85.9
	c4.1-13.7,9.7-26.8,16.7-39.3c7.4-13.2,16.7-25.1,26.5-36.5c19.6-22.8,41.1-45.1,50.9-74.2c2.3-7,3.8-14.2,4.3-21.5
	c0.5-6,0.3-13.2-4.7-17.4s-14.4-1.1-20.4,2.8c-5.6,3.8-10.7,8.4-15.2,13.5c-19.1,22.2-25.5,51.1-35.4,78
	c-5.2,14.2-12.4,27.6-21.3,39.8c-8.9,12.3-18.6,24.1-25.6,37.6c-13.5,26.4-18.4,56.3-13.8,85.6c2.3,15.4,8.7,30.1,9.9,45.6
	s-1.9,29-5.9,42.9c-3.1,10.6-7,20.9-10.9,31.2c-5.3-7-13-12.2-20.5-16.6c-10.5-6.3-21.1-12-30.4-20.1c-9.5-8.2-17.8-17.8-24.5-28.4
	c-6.7-10.6-11.9-22.2-15.3-34.3c-1.7-5.8-2.9-11.7-3.7-17.7c-0.8-6.4-1.1-13.2-4.6-18.8c-1.9-2.9-4.3-4.6-6.8-6.8s-2.1-4.7-1.5-7.6
	c1.4-7.3,3.1-14.6,4.9-21.8c3.6-14.7,7.7-29.4,14-43.2c11.9-25.9,31.2-47.1,51.9-66.4c22.8-21.2,46.7-41.3,70.8-61
	c12.3-10.1,24.7-20.1,37.3-29.8c10.3-8.1,21.7-19.4,35.9-16.7c6.7,1.3,13,4.1,19.5,6.2c7.1,2.5,14.7,3.4,22.2,2.6
	c15.1-1.8,28.7-9.3,42.5-15.1c28.6-11.9,58.6-20.2,89.3-24.6c14.5-2.1,29.2-3.2,43.9-3.5c23.9,0.5,47.9,1,71.8,2.2
	c27.6,1.3,55.3,3.3,82.5,7.9c11.5,2,22.9,4.3,34,8c2.3,0.7,4.6,1.6,6.9,2.5l1.3,0.5l1.5,0.6c1.9,0.9,3.8,1.8,5.6,2.8
	c7.7,3.8,15.2,8,23.3,10.6c6,1.9,12.3,2.4,18.5,1.6c-0.8,0.5-1.5,1.2-2.1,1.9c-2.6,3.1-3.5,7.2-3.7,11.1c-0.3,8.4,1.6,17.3,4.2,25.3
	c5.3,16.8,14.9,32.5,26.1,46.1c9.9,11.9,23.1,20.5,35,30.2c5.9,4.9,11.8,10.1,16.5,16.1c4.8,6.3,8.9,13.2,12.1,20.5
	c6.8,14.7,10.7,30.7,13.1,46.7s3.3,33.7,3.6,50.7s0.9,34-1.3,50.8c-1.8,14.1-6,27.6-10.4,41.1s-8.9,28.9-11.2,43.9
	c-0.6,3.9-1.5,8-1.4,12c0.1,2.9,0.4,5.8,1.1,8.6c1.5,6.5,3.3,12.8,5.5,19.1c3.4,10.1,7.7,19.9,12.9,29.2c2.6,4.5,5.9,9.9,10.8,12.2
	c7.3,3.4,14.2-2.8,18-8.5c4.7-7.4,7.4-16.7,9.2-25.2s2.4-19,2.4-28.7c-0.1-7.7,1.1-14.7,6.3-20.6s10.7-9.3,16.7-12.9
	s13-7.2,19.2-11.4c6.7-4.5,12.9-9.7,18.7-15.3c11.4-11.1,20.7-24,27.7-38.3c3.5-7.1,6.5-14.5,8.7-22.1c2.2-7.5,4.3-15.6,4.6-23.4
	c0.1-3.3-0.9-6.7-1.7-9.9c-0.4-1.4-0.7-2.9-1-4.4c-0.1-0.6-0.2-1.1-0.3-1.7v-1.5c0.1-0.1,0.1-0.3,0.2-0.5s-0.5,0.3,0-0.1l0,0
	c0,0.2,0.1,0.2,0.1-0.1h0.1l4.3-2.2c1.3-0.6,2.6-1.4,3.8-2.2c1.5-1.1,2.4-2.6,3.7-3.9C1033.3,453.5,1033.8,450.6,1032.9,446.3z
	 M224.6,452.8c1.8-13.8,5.9-27.2,12-39.7c6.5-13.3,15.6-24.8,24.3-36.7c8.9-11.7,16.3-24.6,22-38.2c5.6-14,9.7-28.5,14.8-42.6
	c4.5-12.2,10-24.2,17.9-34.6c3.6-4.9,7.9-9.3,12.7-13.1c2.3-1.8,4.8-3.5,7.4-4.9c1.1-0.8,2.4-1.3,3.8-1.6c1.1-0.1,1.1,0.1,1.6,0.9
	c0.7,1.8,1,3.7,0.8,5.6c-0.1,3.6-0.5,7.2-1.1,10.7c-1.3,6.7-3.3,13.2-6,19.4c-5.8,13-14,24.9-23,36s-19.9,22.8-29.5,34.5
	c-9.2,11.1-17.3,23.1-24,35.8c-13.3,25.5-20.7,53.5-24.3,81.9c-2.1,16.5-3,33.2-2.7,49.9c-1.9-7.4-4-14.8-5.5-22.3
	C223.2,480.3,222.8,466.4,224.6,452.8L224.6,452.8z M233.9,561.6c3,31.2,7.8,62.4,11.3,93.4c1.3,10.7,5,29.3-8,34.6
	c-5.5,2.3-9.6-1.5-12.2-6.1s-5.5-13.3-7-20.1c-1.6-7.4-2.4-14.9-2.3-22.4c0.1-6,0.1-12-1.3-17.7l0.3-0.7
	C222.1,603.1,230.6,582.6,233.9,561.6L233.9,561.6z M815.2,306.7c-5.4-5.7-10.3-11.9-14.4-18.5c-4.7-6.9-8.7-14.3-11.8-22.1
	c-3.2-7.6-5.2-15.7-5.9-24c-0.2-2.8-0.7-6.5,0.7-9c0.4-0.8,0.5-1,1.6-0.9s3.6,1.5,5.1,2.4c13.2,7.8,22.4,20.8,29.2,34.3
	c3.7,7.5,6.5,15.3,9.8,22.9s8,17.2,12.5,25.5s8.2,15.1,12.5,22.6c-1.3-1.3-2.6-2.6-4-3.8C839.1,326,826,317.6,815.2,306.7z
	 M877.2,374.3c-0.1-0.3-0.2-0.5-0.4-0.8c7.7,10.3,15.3,20.7,21.3,32.2s9,24.6,8,38.2s-4,25.6-6.9,38.2l-5.7,24.5
	c0.5-11.7,0.1-23.5-0.1-35.2C892.9,438.5,890.3,404.8,877.2,374.3L877.2,374.3z M908.7,643.1c-0.9,9.2-3.2,18.2-6.7,26.7
	c-1.1,3.2-2.9,6.1-5.1,8.6c-0.9,0.9-1.9,1.6-3,2.2l-0.7-0.4l-0.4-0.4c-0.5-0.4-0.9-0.8-1.3-1.3l-0.9-1.1c-1.7-2.2-3.1-4.6-4.4-7.1
	c-2.5-4.7-4.7-9.5-6.8-14.4c-0.2-0.3-0.3-0.7-0.4-1c-0.1-0.2-0.2-0.5-0.3-0.7l-1.3-3.3c-1-2.8-2-5.6-2.9-8.4c-2.1-6-3.8-12.1-5-18.3
	c-0.2-0.9-0.3-1.9-0.3-2.8c0-1.2,0-2.3,0.2-3.5c0.4-4.2,1.1-8.4,1.8-12.6c2.7-14.4,7.1-28.3,11.6-42.2c2.1-6.6,4-13.2,5.7-19.8
	c0.3,7.2,1.5,14.3,3.4,21.3c4.4,16.8,12.1,32.6,18.3,48.8c0,0.2,0.1,0.4,0.2,0.5l-0.3,1C908,624.1,909.6,633.7,908.7,643.1z
	 M1020.9,452.4L1020.9,452.4C1021,452.2,1021.3,452.3,1020.9,452.4L1020.9,452.4z M1021,452.1l-0.3,0.4c-0.6,0.3-1.1,0.6-1.6,1
	l-2.6,1.2c-2.8,1.4-5.6,2.8-7.1,5.7c-3.3,6.1,0,13.5,1.2,19.6s-1.1,13.5-2.6,19.5c-5.6,22-17,42.1-32.9,58.3
	c-5.3,5.4-11.1,10.4-17.3,14.8c-6,4.2-12.5,7.7-18.8,11.4c-8.2,4.8-16.9,10.4-22.7,18c-5.7-14.1-12-28.2-15.5-43.1
	c-2.2-8.6-2.9-17.6-2.1-26.5c0.5-4.7,1.7-10.1,2.7-15c2.7-12.7,5.8-25.4,8.6-38s6.4-27.7,6.4-41.8c0-33.6-24.5-59-42.4-85.1
	c-5-7.3-9.3-15.1-13.7-22.9s-9.5-16.8-13.9-25.4c-4.3-8.4-8.2-17-11.6-25.8c-2.9-7.7-6.5-15.1-10.6-22.2
	c-4.1-7.1-9.1-13.7-14.9-19.5c-5.6-5.6-12.9-11.7-20.5-14c-0.9-0.2-1.8-0.4-2.7-0.4c7.4-2.6,14.1-6.6,21.5-8.9
	c3.3-1.1,6.8-1.5,10.2-0.9c4,0.9,7.8,2.6,11.1,4.9c7.1,4.5,13.7,10.1,20.1,15.5c26.4,22.4,50.3,48,79.2,67.3
	c7.2,4.9,14.9,9.1,22.1,14c6.2,4.3,12.1,9,17.7,14.1c9.5,8.8,17.6,19,23.9,30.3c7.4,13.3,12.4,27.7,17.3,42c3.2,9,6.1,18.2,8.7,27.4
	c1.3,4.6,2.6,9.3,3.7,13.9l1.5,6.6c0.1,0.1,0.1,0.6,0.2,0.9l-0.4,0.5C1022.2,450.6,1021.6,451.3,1021,452.1L1021,452.1z"/>
</svg>
