<?xml version="1.0" encoding="utf-8"?>
<!-- Generator: Adobe Illustrator 24.2.3, SVG Export Plug-In . SVG Version: 6.00 Build 0)  -->
<svg version="1.1" id="fe73823d-b8a1-4603-a3ef-915877ff7853"
	 xmlns="http://www.w3.org/2000/svg" xmlns:xlink="http://www.w3.org/1999/xlink" x="0px" y="0px" viewBox="0 0 1152 864"
	 style="enable-background:new 0 0 1152 864;" xml:space="preserve">
<path d="M307.3,399.7c0.1-0.1,0.1-0.4,0.1-0.5l0.6-3.6c0.5-2.3,1-4.7,1.7-7c1.1-4.5,2.5-9,4.2-13.3c0.8-2.2,1.7-4.4,2.6-6.5l0.5-1.2
	l0.6-1.4c0.5-1.2,1-2.4,1.6-3.5c2-4.4,4.1-8.7,6.3-12.9c9.3-18.2,19.2-36,28.9-54l3.6-6.8c1.2-2.3,0.7-5.5-1.8-6.8s-5.5-0.7-6.8,1.8
	c-9.9,18.3-19.7,36.7-29.6,55.1c-9,17.1-17.7,34.9-21.5,54.1c-1.6,8.2-2.6,18.5,5.2,24c4.5,3.2,10.2,2.5,15,0.6
	c2-0.7,3.9-1.6,5.9-2.1l1.3-0.3h3.2l0.3,0.2h0.1c0.1,0.1,0.1,0.2,0.2,0.2v1.6c-0.1,0.4-0.2,0.9-0.3,1.3c-1.2,4.7-2.8,9.3-4,14
	c-2.4,9.8-4,19.8-5,29.8c-1.9,19.8-0.9,39.8,2.9,59.4c0.5,2.4,1,4.8,1.6,7.2c0.8,2.7,3.5,4.2,6.2,3.5c2.6-0.8,4.1-3.5,3.4-6.1
	c-1.1-4.8-2-9.5-2.8-14.3c-0.1-1.2-0.3-2.3-0.5-3.5c0-0.2,0-0.4-0.1-0.6v-0.3l-0.3-2.1c-0.2-2.4-0.5-4.7-0.7-7.1
	c-0.8-9.7-0.9-19.5-0.2-29.2c0.1-2.4,0.3-4.9,0.6-7.3l0.3-3.5c0.1-0.5,0.2-1.1,0.2-1.6c0.1-0.3,0.1-0.6,0.1-0.9
	c0.1-0.1,0.1-0.1,0.1-0.2v-0.3c0.7-4.7,1.5-9.5,2.5-14.1c1-4.6,2.2-9.6,3.6-14.4c1.4-4.8,3.5-9.7,1.8-14.6
	c-1.7-4.9-6.5-7.5-11.6-7.5c-5.1,0-7.9,1.6-11.8,3c-1.1,0.4-2.2,0.8-3.4,1h-1.7l-0.8-0.3l-0.7-0.3l-0.2-0.2l-0.3-0.3
	c-0.1-0.3-0.3-0.5-0.4-0.8c-0.1-0.3-0.1-0.1-0.1-0.2c-0.3-0.8-0.5-1.6-0.7-2.4v-0.2c0-0.4,0-0.9-0.1-1.3c0-0.9,0-1.8,0.1-2.7
	C307.2,400.4,307.3,400.1,307.3,399.7z M307.3,399.6C307.4,398.8,307.4,399.3,307.3,399.6L307.3,399.6z"/>
<path d="M1000.2,447.6c-10.1-36-24.8-70.5-43.8-102.7c10.7-0.1,21,3.4,29.4,10c1.8,1.3,4.7,0.6,6.1-0.8c1.5-1.6,1.8-4,0.8-6
	c-2.4-5.7-8.7-10.1-13.3-13.8c-8.2-6.5-16.8-12.4-25.4-18.1c-17.6-11.8-35.8-22.7-53.1-35.1l-3.4-2.5c9,0.6,17.9,2,26.6,4.2
	c6.3,1.5,12.4,3.5,18.7,5c2,0.5,4.2,1,6.2,0.5c2.9-0.7,4.7-3.6,4.1-6.5c0-0.1,0-0.2-0.1-0.2c-0.6-2.3-2.6-4.1-4.2-5.7
	c-1.6-1.6-4.1-4-6.3-5.9c-5.4-4.5-11-8.7-16.8-12.6c-14-9.2-28.7-17.2-44.1-23.9c-9.1-4-18.3-7.6-27.8-10.6c2.7-0.5,4.5-3.2,3.9-5.9
	c-0.2-0.9-0.6-1.7-1.2-2.4c-11.9-13.2-26.9-23.1-43.7-28.8l18.5-5.9c2.7-0.8,4.2-3.5,3.4-6.2c-0.3-1.2-1.1-2.3-2.2-2.9
	c-14.4-9-30.2-16.7-47.1-19.5c-5.7-1-11.6-1.3-17.4-1.1c5.2-1.2,10.4-2.7,15-5.7c2.4-1.4,3.2-4.4,1.9-6.8c-0.4-0.8-1.1-1.4-1.9-1.9
	c-8.4-4-17.3-7-26.4-9c-11.2-2.6-22.5-4.4-33.9-5.6c-11.9-1.3-23.8-2-35.8-2.1c-11.3-0.1-22.5,0.5-33.7,1.7
	c-5.7,0.7-11.4,1.5-17.1,2.7l1.1-0.9l1.8-1.5l0.9-0.8l0.5-0.3h-0.1l4-2.9l8.1-5.3l7.6-4.9c1.7-1,2.7-2.9,2.4-4.9
	c-0.2-1.8-1.6-3.9-3.6-4.2c-15.1-2.7-30.8,0.1-45.1,5.4c-14.3,5.3-25.4,11.5-35.7,20.6c-4.1,3.7-7.9,7.7-11.6,11.8
	c-8.8-9.5-18.6-18-29.2-25.4c-12.3-8.4-26.4-14.7-41.2-16.9c-8.8-1.4-17.7-1.4-26.5,0.1c-2,0.5-3.4,2.2-3.6,4.2c-0.3,2,0.7,4,2.4,5
	l1.7,1.2l0.6,0.4c0.1,0.1,0.3,0.3,0.4,0.3c1,0.8,2.1,1.7,3,2.7c1,0.9,1.9,1.9,2.7,2.9l0.8,0.9l1.2,1.7c1.6,2.1,2.9,4.4,3.9,6.9
	c-25.7-3.3-51.8-2.5-77.3,2.3c-7.9,1.4-15.6,3.3-23.3,5.6c-3.4,0.9-5.2,5.8-2.2,8.3c5.5,4.6,12.1,7.2,18.9,9.1
	c2.9,0.8,5.9,1.5,8.8,2.4c-26.1-1.4-52.1,4.8-76.3,15.6c-4.2,1.9-2.5,8,1.2,9.1l18.6,6c-16.8,5.7-31.8,15.6-43.7,28.8
	c-1.9,2.1-1.7,5.3,0.4,7.2c1.2,1.1,2.9,1.6,4.5,1.2c5.8-1.1,11.7-1.4,17.6-0.6c-19.6,12.2-35.8,29.4-53.3,44.3
	c-11.1,9.4-23.3,17.5-36.2,24.2c-13.3,7.1-27,13.6-39.3,22.4c-12.3,8.8-23.8,20.4-29.9,34.8c-0.9,2.1-1,4.3,0.8,6
	c1.8,1.7,4.3,2.2,6,0.8c8.4-6.5,18.8-10,29.4-9.9c-19,32.2-33.8,66.7-43.8,102.7c-1.6,5.7,6,8.2,9.2,3.8
	c11.4-15.8,23.8-32.9,40.4-43.8c-13.4,30.7-25.7,62.1-29.9,95.5c-1.3,10.7-1.6,21.6-0.9,32.4c0.2,3.8,5.6,7.2,8.5,3.5l11-13.9
	l5.3-6.8c1.6-2,3.2-4.5,5.2-6.1l0.4-0.2v0.2c-0.1,2.5,0.1,5.1,0.1,7.6c0.1,6,0.1,12.1,0.1,18.2c0.1,11.9,0.1,23.9,0.2,35.9
	c0.1,9.7,0.4,19.5,2.1,29.1s5.9,21.1,13,29.7c3,3.7,8.2,0.4,8.5-3.5c2.1-26.7,4.6-56,18.5-79.5c-1.4,32.3,2.4,64.7,11.2,95.8
	c1.8,6.2,3.8,12.4,6,18.5s3.9,11.4,6.6,16.6c1.4,2.6,3.7,5,6.6,5.7c2.9,0.7,6.9-1,9.4-3.5c3.5-3.5,6.5-7.5,8.9-11.8
	c1.5,2.4,2.2,5.8,2.7,8.2c1.3,5.9,2.5,11.8,4.3,17.6c3.8,12.6,9.3,24.6,16.2,35.8c3.4,5.5,7.2,10.8,11.3,15.9
	c3.8,4.8,7.8,9.9,13.4,12.6c5.6,2.7,12.7,2.2,16.1-3.8c1.5-2.5,1.8-5.6,2-8.5s0.3-8,0.4-12.1c0.5-14.3,1.1-28.7,1.6-43.1l12.5,6.9
	c2.5,1.3,5.6,0.4,6.9-2.1c0.4-0.7,0.6-1.4,0.6-2.2c1.3-26.3,6.5-51.7,14.6-76.7c8.1-25,16.9-48.6,15.7-74.6
	c-1.2-26-9.9-50.7-13.3-76.4c-5.3-40-2.2-80.7,9.1-119.4c3.8-13.6,7.9-28.3,3-42.3c-1.1-3.1-5.8-5.4-8.4-2.2
	c-21.6,27.4-36.2,59.7-42.3,94c-1.7,9.8-2.7,19.7-3.1,29.6c-0.2,6.5,9.8,6.5,10,0c1.4-38.6,13.9-76,36-107.7
	c0.1,8.5-2.4,17.2-4.7,25.4c-10.8,37.1-14.3,75.9-10.5,114.4c1.4,13,3.5,25.9,6.3,38.6c2.8,12.5,5.9,25,7.3,37.7
	c1.3,12.5,0.7,25.1-2,37.4c-2.6,12.4-6.7,24.5-10.7,36.6c-4.6,13.5-8.5,27.3-11.5,41.2c-2.4,12-4.1,24-5,36.2l-12.7-7
	c-2.5-1.3-5.6-0.4-6.9,2.1c-0.4,0.7-0.6,1.5-0.6,2.3c-0.5,14.2-1.1,28.4-1.6,42.6c-0.2,7-0.2,14.2-0.7,21.2c-0.1,1.1,0,3.2-1.2,3.6
	s-4.5-1.8-5.6-2.7c-4.2-3.7-7.8-8.6-11.1-13.1c-3.3-4.5-6.8-10.1-9.8-15.4c-5.8-10.5-10.3-21.6-13.3-33.2
	c-2.8-10.5-3.1-25.8-15.6-29.7c-1.9-0.6-4.8,0.3-5.6,2.3c-2,4.7-4.7,9-8,12.9c-0.2,0.2-1.2,1.1-1.8,1.8c-0.8-2.1-2-4.2-2.8-6.3
	c-4.2-10.6-7.7-21.3-10.6-32.3c-8.9-34-11.7-69.3-8.1-104.2c0.5-4.3-5.8-6.5-8.5-3.5c-20.9,22.9-26.8,53.7-29.8,83.8
	c-5.6-14.4-4.9-31.6-5-46.5c-0.1-13.1-0.2-26.2-0.2-39.3c-0.1-5.8,0.7-12.2-0.5-17.9c-1.2-5.7-6.2-9.1-11.7-7.6s-9.8,8.3-13.5,13
	l-5.3,6.6c0.7-32.3,11-63.6,23.3-93.4c4-9.7,8.3-19.4,12.6-29.1c0.9-1.8,0.8-3.9-0.4-5.5c-1.1-1.4-3.4-2.6-5.3-1.8
	c-16.4,6.9-29.3,18.6-40.5,31.9c9.9-28.1,22.7-55,38.4-80.3c1.6-2.6,0.2-6.8-3-7.4c-9.3-1.7-19-1.1-28,1.8
	c13.5-16.7,34.5-26.8,53.4-36.7c13-6.6,25.4-14.5,36.8-23.6c10.6-8.6,20.3-18.1,30.5-27.2s23-19.1,36.5-25.6c4.1-2,2.6-7.9-1.2-9.1
	c-6.6-2.2-13.6-3.5-20.6-3.6c13.3-11,29.3-18.1,46.4-20.7c5.2-0.8,4.3-8.3,0-9.7l-22.4-7.1c26-9.5,54.1-12.8,81.3-5.9h0.7
	c1.3,0.7,2.7,1.2,4.2,1.5c4.2,0.8,8.4,0.5,12.6,0.5c2,0,4,0,6,0.2l2.6,0.2h2.2c4.4,0.7,8.8,1.8,13,3.2l2.9,1.1l0.9,0.3
	c0,0.1,0.1,0.1,0.2,0.1l1.2,0.6c2.1,0.9,4.2,2,6.2,3.1c2.4,1.4,5.5,0.6,6.9-1.8c1.4-2.4,0.6-5.5-1.9-6.9c-7-3.9-14.6-6.8-22.5-8.6
	c-4.2-0.9-8.4-1.4-12.6-1.7c-3.9-0.2-7.8,0.1-11.8,0l-2.6-0.2h-0.6l-1.5-0.3l-0.6-0.2h-0.4l-0.7-0.3l-1-0.7l-0.5-0.3l-0.3-0.3h-0.1
	l-0.6-0.5l-0.9-0.8l-2.1-1.9c-1.5-1.3-3.1-2.5-4.7-3.6c-5.6-3.7-12.3-5.5-18.8-7.3c-2.7-0.7-5.5-1.4-8.2-2.3l7.8-1.8l10.2-1.8l5-0.7
	h1.6l2.8-0.4c13.7-1.5,27.6-1.9,41.4-1c3.9,0.2,7.9,0.6,11.8,1l2.8,0.3l1.4,0.2h0.6l6,0.9c1.7,0.4,3.5-0.1,4.8-1.3
	c1.3-1.3,1.7-3.2,1.3-4.9c-1.8-8.3-5.7-15.9-11.4-22.2c3.1,0,6.3,0.2,9.4,0.6h0.7l1.3,0.2l2.6,0.4l5.2,1.2c3.4,1,6.8,2.1,10.1,3.4
	l1.2,0.5l0.7,0.3l2.2,0.9l5.1,2.6c3.1,1.6,6,3.4,8.9,5.2l3.9,2.7l2.1,1.5l1,0.8l0.9,0.6c2.7,2.1,5.3,4.3,7.8,6.5
	c5.9,5.3,11.5,10.9,16.8,16.8c2,1.9,5.1,1.9,7.1,0c4.2-4.7,8.4-9.4,13.1-13.8l3-2.7l1.4-1.2l0.8-0.6l0.6-0.5l0.4-0.3l0.7-0.6
	l1.9-1.3l3.8-2.5c2.9-1.8,5.9-3.5,8.9-5l4.6-2.3l2.4-1h0.3l1.5-0.6c6.8-2.7,13.8-4.7,21-6l3.1-0.5h1.9l2.1-0.2l-1.8,1.2
	c-5.6,3.9-11.4,8.1-15.7,13.5c-2.2,2.8-4.3,5.9-5,9.4c-0.5,1.7,0,3.6,1.2,4.9c1.2,1.1,3.3,1.9,4.9,1.2c8.2-3.2,16.9-4.8,25.5-6.1
	h0.9l2-0.2l4-0.4l7.9-0.7l17.1-0.6c11.8,0,23.6,0.5,35.3,1.6l8.6,0.9l2.1,0.3h1.3c1.3,0.3,2.7,0.3,4.1,0.5
	c5.3,0.8,10.6,1.8,15.9,2.9s9.7,2.3,14.5,3.7l2.9,1l-1.1,0.3c-4.5,1-9,1.7-13.4,3c-4.8,1.3-9.3,3.6-13,6.9c-0.8,0.7-1.5,1.4-2.1,2.2
	c-0.5,0.6-0.9,1.2-1.4,1.8c0.1-0.2-0.4,0.4-0.4,0.6l-0.8,0.9l-1.4,1.1l-0.3,0.3l-0.8,0.5l-3.9,2.2h-0.3l-0.8,0.3l-1.9,0.7l-2,0.5
	h-2.8l-0.4-0.2H720c-0.5-0.3-1.8-0.9-2-1c-3.2-1.7-6.5-3.3-9.9-4.7c-8.3-3.6-17-6.8-26-8.4s-20.2-2-27.3,5.1c-1.8,1.9-2,5.3,0,7.1
	c2,1.9,5.1,1.9,7.1,0c0.2-0.3,0.5-0.5,0.8-0.7c0-0.1,0-0.1,0.1-0.1l2-1.2h0.3l1.2-0.4l2.4-0.5h7.6l1.4,0.2h0.8
	c4.4,0.8,8.8,1.8,13.1,3.2l6.1,2.2l2.9,1.1l1.4,0.6l0.9,0.3h-0.1c3.4,1.5,6.7,3,10,4.7c2.3,1.4,4.8,2.3,7.4,2.7
	c3.1,0.3,6.3-0.2,9.2-1.3c1.5-0.5,3-1.1,4.4-1.8l1.4-0.4c15.5-6.9,32.6-10,49.3-6.9c11.8,2.2,22.8,6.8,33.2,12.5l-24.8,7.9
	c-4.2,1.3-5.2,8.8,0,9.6c17.1,2.5,33.1,9.7,46.4,20.7c-7,0.1-13.9,1.3-20.6,3.5c-5.6,1.9-4.1,9.2,1.4,9.9c20,2.4,39.7,9.3,58.1,17.5
	s35.3,17.5,51,29.2l3.2,2.5l-4-1c-12.6-3.2-25.6-5.4-38.6-5.2c-4.9,0.1-9.9,3-7.7,8.7c1.3,3.1,4.4,5.5,6.9,7.5
	c10,8,20.9,14.8,31.6,21.7c13,8.4,26,16.7,38.7,25.6l5.2,3.6c-5.9-0.7-11.9-0.6-17.7,0.5c-3.2,0.6-4.6,4.8-3,7.4
	c15.6,25.3,28.5,52.2,38.4,80.2c-11.3-13.2-24.1-24.9-40.6-31.8c-1.8-0.8-4.2,0.4-5.2,1.8c-1.2,1.6-1.4,3.8-0.4,5.5
	c12.8,28.8,30.3,56.4,35.1,88l0.3,2.2c-3.9-4.8-8.4-9.1-13.3-12.8c-4.7-3.6-12.2-8.2-18.2-4.9c-3.8,2.1-4.2,6.1-4.2,10
	c-0.2,12,0.8,24,1.3,36c0.6,16.2,1,32.5-0.2,48.7c-0.6,7.7-1.3,14.1-3.5,21.7c-0.8-8.5-2.1-17-4.9-25c-4.7-12.9-13.3-23.5-22.5-33.5
	c-3.4-3.7-9.8,0.1-8.4,4.8c8.7,29.6,12.2,61.2,4.2,91.3c-4.1,15-10.8,29.2-19.8,41.8l-3.7,5c-0.3,0.4-1.6,1.7-2.4,2.8
	c-0.9-3.9-1.4-7.9-1.4-11.9c-0.3-5.9-0.4-11.9-0.7-17.8c-0.1-4,0.1-8.8-1.4-12.6s-3.4-4.4-6.2-3.5c-6.4,2.1-8.8,10.8-10.7,16.5
	c-2.6,8-4.8,16.1-6.5,24.3c-1.9,8.4-3.4,16.9-6,25.2c-3.9,12.3-9.5,24.1-16.6,34.9c-5.5,8.5-11.8,17.6-20.2,23.2l-3,1.9
	c1.2-1.3,2.4-2.7,3.4-4.2c2.2-3.2,3.5-7.2,4.7-10.9c2.9-9.3,4.1-19.3,4.7-29c1.5-20.8-0.1-41.5-0.8-62.2c-0.1-2.8-2.4-5-5.2-5
	c-0.8,0-1.6,0.2-2.4,0.7c-3.5,2.1-5.9,6-8.2,9.3s-6.4,9.9-9.4,14.9s-5.9,9.6-9,14.3c-2.3-23.3-7.2-46.2-14.7-68.4
	c-4.1-12.7-8.5-25.2-11.5-38.2c-2.9-13.1-3.9-26.5-2.8-39.8c1.2-13.8,3.6-27.4,7.4-40.7c3.4-12.3,7.3-24.5,10-37.1
	c5.2-24.1,7.2-49.2,1.8-73.5c-1.5-6.6-3.6-13.1-6.1-19.4c-2.9-7-6.6-13.3-10.3-19.9c-4.9-8.8-6.1-19.2-4.3-29
	c9.3,8.5,17.1,18.5,23.1,29.6c7.9,14.6,12.2,31,13.6,47.5c0.9,11.3,0.6,22.6-0.6,33.9c-0.2,2.7,2.5,5,5,5s4.8-2.3,5-5
	c3.9-36.9-2.7-74.5-26.1-104.1c-5.7-7.2-12.2-13.7-19.3-19.5c-3-2.4-7-1.5-8.3,2.2c-4.1,11.4-4.3,23.9-0.6,35.5
	c1.9,5.9,5.2,10.9,8.1,16.2c3.1,5.6,5.7,11.4,7.7,17.5c7.9,23.3,7.6,48.3,3.3,72.3c-4.8,26-14.7,50.7-18.2,77
	c-2,13.8-2.1,27.9-0.3,41.7c1.9,13.1,5.7,25.9,9.8,38.4c4.8,14.5,9.7,28.9,13,43.8c3.4,15.4,5.5,31.1,6.3,46.9c0,2.8,2.3,5,5,5
	c0.9,0,1.7-0.2,2.5-0.7c3.5-2,6-6,8.2-9.2c3.3-4.9,6.4-9.9,9.5-14.9s5.6-9.3,8.5-13.8c0.7,14.5,1.3,28.9,0.6,43.4
	c-0.4,9.9-1.3,19.9-4,29.4c-0.9,3.7-2.3,7.2-4.2,10.5l-0.6,0.7l-1.9,2.1c-1.4,1.6-2.9,3.2-4.2,4.8c-2.5,3.1-6.1,7.5-3.6,11.7
	s7.9,3.9,11.8,2.7c8.7-2.7,16.8-8.8,22.7-15.6c17.4-20.3,29.3-44.8,34.5-71.1c1.6-7.9,3.4-15.8,5.5-23.6c0.6-2,1.1-4,1.8-6
	c0.1,4,0.2,8,0.4,11.9s0.4,10,1.8,14.6c2,6.5,10.2,11.6,15.8,5.8c1.1-1.3,2-2.7,2.9-4.1c1.4-2,3-3.8,4.4-5.7
	c2.6-3.7,5.1-7.4,7.4-11.3c4.6-7.6,8.3-15.6,11.3-24c5.6-16,8.4-32.8,8.2-49.7c-0.1-11.9-1.3-23.8-3.7-35.5
	c2.7,3.9,4.8,8.2,6.4,12.7c4.1,11.7,4.7,24.5,5.6,36.7c0.3,3.8,4,6.3,7.5,4.4c9.6-5.2,12-18.9,13.4-28.6c2.2-15.2,2.3-30.6,2-45.9
	c-0.2-13.8-1-27.7-1.5-41.5c-0.2-3.5-0.3-7.1-0.2-10.6l0.8,0.3c7,3.1,12.6,8.9,17.5,14.9c2.7,3.2,4.9,6.8,6.7,10.6l0.8,2.2l0.6,2.4
	c0.1,0.1,0.1,0.3,0.1,0.4v0.4c0,1.3-0.1,2.5-0.2,3.8c-0.4,5.6,8.7,6.9,9.8,1.4c0.4-1.6,0.5-3.3,0.4-4.9c0.8-15.7-1.2-31.4-5.7-46.4
	c-4.6-15.4-11.8-29.9-18.9-44.4c-2.2-4.5-4.4-9-6.5-13.5c16.3,10.9,28.6,27.8,40,43.5C994.3,455.8,1001.9,453.5,1000.2,447.6z
	 M796.6,763.3c-0.3,0.1,0,0,0.3-0.5C796.9,763,796.9,763.2,796.6,763.3z"/>
<path d="M840,445.2c0-0.1,0-0.2,0.1-0.3h0.3c0.1-0.2,0.2-0.3,0.3-0.2s0-0.1,0.1-0.1h0.3l1.2-0.3h0.6l0-0.4h3.2l1.7,0.4
	c2.3,0.6,4.7,0.9,7.1,0.7c2.6-0.4,4.9-2.1,6.8-3.8c4.1-3.6,5.8-9,6.4-14.2s-0.4-10.6-1.2-15.7c-3-18.7-10.5-36.4-22-51.5
	c-5.9-7.9-12.6-15.1-20-21.6c-7.4-6.7-15.6-12.6-24.3-17.6c-1.9-1-3.7-1.9-5.6-2.7c-1.2-0.6-2.6-0.8-3.9-0.5c-1.3,0.4-2.3,1.2-3,2.3
	c-1.1,2.2-0.7,5.7,1.8,6.8c3.9,1.8,7.8,3.9,11.4,6.2c2,1.3,4,2.6,5.9,4l3,2.2l0.6,0.4l1.6,1.3c7.6,6.1,14.5,13,20.8,20.4l1.9,2.5
	l0.5,0.6h0.1c0.3,0.6,0.7,1.1,1.1,1.6c1.4,1.8,2.7,3.7,3.9,5.5c2.5,3.7,4.8,7.6,6.8,11.6c1,2,1.9,4,2.8,6.1l0.3,0.7l0.6,1.4l1.2,3.4
	c1.6,4.4,2.8,8.8,3.7,13.4c0.5,2.4,0.9,4.8,1.3,7.3v0.2c0.1,0.2,0.1,0.5,0.1,0.7c0.1,0.6,0.2,1.1,0.2,1.7c0.2,1.4,0.3,2.8,0.4,4.3
	c0.1,1,0.1,1.9,0.1,2.9c0,0.6,0,1.1-0.1,1.7v0.6c-0.1,0.1-0.1,0.2-0.1,0.4c-0.2,1-0.4,1.9-0.8,2.8v0.2c-0.1,0.2-0.2,0.4-0.3,0.6
	c-0.2,0.6-0.5,1.1-0.9,1.5c-0.1,0.2-0.2,0.4-0.3,0.5l-1,1.1h-0.2l-0.5,0.3l-0.6,0.4h-1l-1.6-0.4c-4.8-1.1-9.8-1.4-14.4,0.7
	c-4.6,2.1-7.5,8.7-5.8,14.3c0.9,2.6,2.3,5,4,7.1l4.3,5.9c2.5,3.5,4.7,7.2,6.8,10.9c1,1.7,1.9,3.4,2.7,5.1c0.3,0.7,0.7,1.5,1,2.3
	s0.1,0.2,0.2,0.4c0.1,0.2,0.3,0.9,0.5,1.4c1.2,3.2,2.1,6.5,2.8,9.8c0,0.4,0.1,0.9,0.2,1.3c0,0.1,0,0.3,0,0.4c0-0.1,0-0.2,0-0.2
	l0,0.3c0,0.4,0.1,0.8,0,0.3l0.2,2c0.1,1.7,0.2,3.5,0.2,5.2c0.1,3.8-0.2,7.6-0.7,11.4v0.3c-0.1,0.1-0.1,0.1-0.1,0.2
	c0,0.5-0.1,1.1-0.2,1.6c-0.2,1-0.3,2.1-0.5,3.2s-0.9,4.5-1.3,6.7s-1.1,4.9-1.7,7.4c-0.7,2.7,0.9,5.4,3.5,6.2
	c2.7,0.7,5.4-0.9,6.2-3.6c3.8-16.2,7.1-33.4,2.7-49.9c-2.3-7.6-5.6-14.8-9.8-21.4c-2.5-4-5.2-7.8-7.9-11.6l-2.3-3l-0.9-1.4
	c0-0.1-0.1-0.2-0.1-0.3l-0.3-0.7c-0.1-0.3-0.1-0.6-0.2-0.9v-0.6V445.2z"/>
</svg>
