<?xml version="1.0" encoding="utf-8"?>
<!-- Generator: Adobe Illustrator 24.2.3, SVG Export Plug-In . SVG Version: 6.00 Build 0)  -->
<svg version="1.1" id="b232aada-15cb-46b9-8b14-a6d3d38655b6"
	 xmlns="http://www.w3.org/2000/svg" xmlns:xlink="http://www.w3.org/1999/xlink" x="0px" y="0px" viewBox="0 0 1152 864"
	 style="enable-background:new 0 0 1152 864;" xml:space="preserve">
<path d="M467.3,446.2l0-0.1c-16.5-4.5-33.9-4.3-50.3,0.7c-4.8,1.4-9.4,3.3-13.9,5.5c-3.2,1.6-3.4,7.1,0,8.6c4,1.7,7.8,3.9,11.4,6.3
	l2.4,1.7l0.9,0.6c-8.1,3.3-15.7,7.5-22.9,12.5c-8.7,6.1-17.3,13.7-21.9,23.5c-2.6,5.6-4.1,11.7-3.3,17.9c0,1.3,0.6,2.6,1.5,3.5
	c0.9,1,2.2,1.5,3.5,1.5c2.4-0.1,5.4-2.2,5-5c-0.2-1.2-0.2-2.3-0.2-3.5v-1.5c0-0.3,0.1-0.6,0.1-0.9v-0.2c0.2-1,0.4-2.1,0.7-3.1
	c0.3-1,0.3-1.1,0.5-1.6l0.3-0.9l0.3-0.6c0.1-0.1,0.1-0.2,0.1-0.3c0.1-0.2,0.2-0.5,0.4-0.7c0.2-0.5,0.4-1,0.7-1.4
	c0.6-1.1,1.3-2.3,2-3.3l0.9-1.3l0.5-0.7l-0.2,0.3l0.3-0.4l2.5-2.9c1.6-1.7,3.4-3.4,5.2-5l2.7-2.3l0.6-0.4l2-1.5
	c4.4-3.1,9-5.9,13.7-8.4c2.6-1.4,5.3-2.6,8-3.8l1.3-0.5l2-0.8l4.6-1.6c3.5-1.2,5.1-5.7,2.2-8.4c-4.1-4-8.6-7.5-13.5-10.5l1-0.4
	c3.7-1.2,7.5-2.1,11.3-2.8l2.8-0.4h0.6l1.5-0.2l6.1-0.4c3.9-0.1,7.8,0,11.7,0.5l1.7,0.2c-1-0.2,0.2,0,0.6,0l3.2,0.6
	c2.3,0.4,4.5,1,6.7,1.6c2.7,0.7,5.5-0.8,6.2-3.5S470,446.9,467.3,446.2z"/>
<path d="M889.4,413.6c-4.4-12.5-8.7-24.7-9.5-38s0.7-26.4,2.7-39.5c2-13.1,4.7-26.5,6.3-39.9c1.6-12.3,1.9-24.7,1.1-37.1
	c-1.7-24.3-7.7-48.1-17.9-70.2c-5.1-10.9-11.2-21.4-18.2-31.2c-3.5-4.9-7.2-10.2-13-12.5s-13,0.5-18.8,3.4
	c-21.7,11.2-38.2,30.1-53.4,48.8c-32.9,40.5-62.1,84-87.1,129.8c-2.3,4.3-4.7,8.6-6.9,13c-1.7-0.4-3.5,0.1-4.8,1.3l-4.2,4
	c-5.9-2.4-13.2-0.3-17.8,4.2s-6.2,12.9-5.9,20.1l-12-1.7c-2.2-0.3-4.5,0.2-5.6,2.3c-1.2,2-0.9,4.5,0.7,6.1c2.7,2.4,5.2,5.1,7.4,8
	l0.2,0.2c0.1,0.1,0.1,0.2,0.3,0.3l0.8,1.2l1.4,2.1c1.1,1.5,2.1,3.1,3,4.8c0.8,1.6,1.7,3.2,2.4,4.9c0.2,0.3,0.3,0.6,0.4,0.9
	c0.2,0.3,0.3,0.6,0.4,0.9l0.9,2.5l0.6,1.7c-9.9-2.9-20.1-4.3-30.4-4.3c-6.7,0-13.3,0.6-19.9,1.8c-6.7,1.3-12.9,3.6-19.5,5.3
	l-2.2,0.5l-1.1,0.2h-4.9c-2.7-0.5-5.2-1.5-7.5-3c-5.4-3.1-10.3-7-15.7-10c-11.2-6.3-23.3-10.8-35.9-13.3l-5.3-0.9L497,380h-0.9
	c-1.8-0.5-3.7-0.9-5.6-1.1l1.1-1.5l1.4-1.9l0.5-0.6c0-0.1,0.2-0.4,0.3-0.4l2.8-3.5c2.5-3.1,4.2-6.7,2.5-10.7
	c-1.3-2.8-3.9-4.8-6.9-5.5c-3.4-0.7-7-0.2-10,1.5l-1.9,1.2c-1.4-7.2-4.5-14-9.1-19.7c-1.6-2.1-5.3-1.7-7,0l-0.7,0.8
	c-15.1-16.9-23.4-38.2-30.2-59.5c-6.8-21.3-13-45-23.2-66.1c-10.5-21.5-25.4-40.6-43.8-56c-9.1-7.6-19.1-14.9-29.9-20
	c-10.8-5.1-25.9-7.8-36.7,1.3c-9.1,7.8-12.9,20.8-16.6,31.8c-4.3,12.5-7.8,25.1-10.7,38c-5.9,26.3-9.5,53-12.7,79.7
	s-6.1,53.1-10.6,79.4c-2.3,13.3-4.9,26.6-8.3,39.7c-3.4,13.1-6.9,23.7-8.4,36s-0.4,24.2,6.7,33.9c3.7,5,8.4,8.8,13.3,12.5
	c4.9,3.7,8.9,6.6,12.3,11c3.4,4.4,5.3,9.9,7.1,15.2c2.2,6.4,4.8,12.7,7.9,18.7c6.8,12.9,14.8,25.1,22.2,37.6
	c3.7,6.1,7.3,12.2,11,18.2c0.3,0.6,0.7,1.1,1.3,1.5c-0.3,6.1,0.3,12.3,1.6,18.3c0.6,2.1,2.6,3.6,4.8,3.6c2.1-0.1,4.5-1.4,4.8-3.6
	c0.5-3.1,1.3-6.2,2.4-9.2c0.2-0.8,0.5-1.5,0.8-2.2l0.2-0.5c0-0.1,0-0.2,0-0.2c0.1-0.3,0.2-0.5,0.4-0.7l2.1-4.3
	c0.8-1.3,1.6-2.7,2.5-4l1.4-2l0.4-0.5c0,0,0-0.1,0.1-0.2l0.5-0.6c1.4-1.7,3-3.4,4.6-5c-0.9,5.4-1.5,10.8-1.7,16.3
	c-0.2,9.9,0.8,19.8,3.1,29.5c0,0.1,0.1,0.1,0.1,0.2c-5.6,8.4-10,17.6-12.9,27.3c-2.4,8-3.7,16.3-3.9,24.6c0,2.8,2.2,5,5,5
	c2.7-0.1,4.9-2.3,5-5c0-1.8,0.1-3.5,0.2-5.2l0.3-2.5c0-0.3,0.1-0.6,0.1-0.9v-0.5c0.5-3.4,1.2-6.7,2.1-10c0.8-3.3,1.9-6.5,3.1-9.7
	l0.9-2.2l0.2-0.4l0.6-1.3c0.7-1.6,1.4-3.1,2.2-4.6c1.6-3.1,3.3-6,5.2-8.9c1-1.4,1.9-2.8,3-4.2l0.6-0.8c0.1-0.1,0.2-0.2,0.2-0.3
	l1.8-2.2c4.4-5.2,9.3-10,14.6-14.3h0.1l0.4-0.3l1-0.7l2.4-1.7l4.8-3.1c1.6-1,3.4-1.9,5.1-2.8l2.5-1.2l1.3-0.6l0.7-0.3
	c1.9-0.8,3.9-2.5,3.6-4.8c-0.5-7-4.1-13.4-9.8-17.6l2.5-2.4l1.7-1.5c0.3-0.3,0.6-0.5,0.9-0.7l-0.3,0.2l0.6-0.5
	c1.3-0.9,2.6-1.8,4-2.6l4.2-2.3l1.2-0.5l0.5-0.2h-0.3c0.7-0.4,1.5-0.7,2.3-0.9c3-1.1,6.1-1.9,9.2-2.4h0.6c0.5-0.1,0.4,0,0.2,0.1
	l0.9-0.2l2.7-0.2h5.5c4.3,0.3,6.7-5.7,3.6-8.5c-8-7-17.8-11.6-28.3-13.4c2.1-2.4,4.3-4.7,6.5-7s3.9-4,5.9-5.8l2.9-2.4l0.7-0.5
	c0,0,0,0,0,0l1.7-1.2c2-1.3,4-2.5,6.1-3.5h0.3l1.5-0.6l3.3-0.9l1.4-0.3h6.5l3.4,0.7c1.4,0.3,2.8,0.8,4.2,1.3l0.9,0.4h0.4
	c0.8,0.3,1.6,0.6,2.3,1c3.4,1.7,6.6,3.6,9.8,5.6c2.3,1.4,5.3,0.6,6.7-1.7l0.1-0.1c1.3-2.4,0.5-5.4-1.8-6.8
	c-10-6.5-21.6-12-33.9-10.4c-12.3,1.6-19.9,8.5-27.5,16.1c-5.4,5.4-10.5,11.1-15.3,17c-1.4,1.4-1.8,3.6-1,5.4
	c0.7,1.9,2.5,3.1,4.5,3.1h4.7l2.3,0.2h1.3c3.1,0.5,6.1,1.2,9,2.2l2.1,0.8h0.1l0.4,0.2c-9.2,2.1-17.7,6.4-24.8,12.5
	c-3.2,2.7-6,5.8-8.4,9.2c-0.8,1.4-0.9,3.1-0.2,4.5c0.6,1.4,1.8,2.5,3.2,2.9h0.5l0.9,0.5c0.7,0.3,1.4,0.8,2,1.3l0.3,0.2
	c0.4,0.3,0.7,0.6,1,1c0.3,0.2,0.5,0.4,0.7,0.7l0.5,0.6c0.2,0.2,0.4,0.4,0.5,0.7l0.6,0.9l0.7,1.3c0,0.1,0.1,0.2,0.1,0.3
	c0.2,0.2,0.3,0.5,0.4,0.8c-11.9,5.7-22.6,13.7-31.3,23.7c-0.2,0.1-0.3,0.3-0.4,0.4c-0.1,0.1-0.3-1.8-0.4-2.8c0-0.4-0.1-0.8-0.2-1.2
	c0-0.6-0.1-1.2-0.1-1.8c-0.5-4.4-0.6-8.9-0.5-13.3c0.1-2.2,0.2-4.5,0.4-6.7c0.2-2.2,0.3-2.3,0.4-3.5c0.1-1.2,0.1-0.6,0.1-0.8
	c0.1-0.5,0.2-1,0.2-1.5c0.8-4.8,1.8-9.6,2.9-14.4c1.1-4.8-3.5-7.9-7.3-5.7c-8.6,5.1-15.9,12.1-21.2,20.6c0-0.5,0.1-1,0.1-1.5
	s0.1-0.6,0.2-0.7c0-0.5,0.1-1.1,0.2-1.6l0.6-3.3c0.4-2.1,0.8-4.1,1.3-6.2c1-4.1,2.2-8.1,3.4-12.1c5.1-16.4,11.1-32.6,17.6-48.6
	l2.9-6.9c0.1-0.3,0.2-0.7,0.4-1l0.7-1.6c0.4-1.1,0.9-2.2,1.4-3.3c1.9-4.5,3.9-9,6-13.4c2.1-4.4,0.3-6.3-3-7.4
	c-2.4-0.7-4.9-1.1-7.4-1.2c0-0.2,0.1-0.4,0.1-0.7c0.2-0.6,0.4-1.2,0.7-1.8l0.3-0.9c0.1-0.1,0.1-0.3,0.1-0.4c0.4-1.1,0.9-2.1,1.6-3
	c0.6-1.1,1.2-2.2,1.9-3.2l0.5-0.6l0.2-0.3c0.2-0.2,0.3-0.4,0.4-0.6c0.2-0.3,0.4-0.5,0.7-0.7c1.6-2,3.5-3.7,5.5-5.3
	c1.5-1.2,1.7-3.8,1-5.4c-0.7-1.9-2.5-3.1-4.5-3.1c-6.8-0.2-13.6,0.2-20.4,1c1-1,1.9-2.1,3-3.1c1.9-1.9,3.9-3.6,6-5.3
	c0.2-0.2,0.4-0.4,0.7-0.5l1.7-1.2l3.2-2.1l3.5-1.8l1.7-0.8l0.9-0.3c2.3-0.9,4.7-1.6,7.1-2.2c0.8,0,1.5-0.2,2.2-0.5l3.1-0.6l1.2-0.2
	h0.1l2.5-0.3c3.5-0.4,6.9-0.5,10.4-0.5c9.8,0,19.7,0.7,29.4,2.1c2.6,0.3,5.1-2.6,5-5c-0.1-2.4-2.2-4.7-5-5
	c-10.5-1.4-21.3-2.5-32.1-2.1l1.2-0.5l0.4-0.2c1.6-0.6,3.2-1.2,4.9-1.6l2.4-0.6l1.5-0.2h0.3c1.7-0.2,3.4-0.3,5.1-0.3h4.6
	c2.1,0.3,4.4-0.2,5.5-2.3c1.1-2,0.8-4.4-0.7-6.1c-6.5-5.8-13.6-10.9-21.2-15.2l1.2-0.8c2.6-1.6,5.3-3,8.1-4.3h0.1l1.1-0.5l2.2-0.7
	c1.5-0.5,3-1,4.5-1.3c1.4-0.4,2.9-0.7,4.4-0.9c0.1,0,0.3,0,0.5-0.1h1l2.5-0.2c2.8,0,5-2.3,5-5c0-0.9-0.2-1.7-0.7-2.5l-3.6-6
	c2.1,0,4.1,0.1,6.2,0.3l2.1,0.2l1.2,0.2h2.3l2.4,0.4c2,0.4,4.7-0.2,5.7-2.3c1.7-3.6,2.6-7.6,2.5-11.6c1.9,0.4,3.8,0.9,5.7,1.5
	l6.2,2.2l0.5,0.3h0.4l1.2,0.6l3.3,1.6c2.2,1.1,5.7,0.8,6.9-1.8c1.6-3.7,3.5-7.2,5.7-10.6c0.5-0.9,1.1-1.7,1.7-2.5l0.8-1.1h0.1
	l0.3-0.4c0.5,0.8,0.9,1.7,1.3,2.5c0,0.1,0.1,0.1,0.1,0.2c0,0,0,0,0,0v0c0.2,0.3,0,0.2,0,0.1v0.1l0.6,1.5c0.6,1.9,1.1,3.8,1.5,5.7
	l0.3,1.5v0.5c0.1,1.1,0.2,2.2,0.2,3.3c0,3.5,3.1,5.5,6.3,4.9c3.2-0.6,5.4-2.2,7.8-3.7l1.5-0.9l1.2-0.5c-0.1,0-0.1-0.1,0.3-0.2h0.9
	c-0.1,0.1-0.2,0.3-0.4,0.4l-1.3,1.6c-3.8,4.8-7.2,9.8-10.3,15c-0.8,0.8-1.4,1.9-1.7,3c-2.1,3.9-4,8-5.7,12.1
	c-2.4,5.8-4.2,11.8-5.6,17.9c-0.6,2.6,0.8,5.6,3.5,6.2c2.6,0.7,5.4-0.9,6.1-3.5c1.3-5.8,3.1-11.5,5.3-17.1l0.5-1.2l0.9-2
	c0.7-1.4,1.3-2.8,2-4.1c0.7-1.3,1.1-2.3,1.7-3.4l0.5-0.6h4.8c1.8,0.5,3.6,0.8,5.4,1.1l2.5,0.3h0.5l1.1,0.2l4.5,0.7
	c6,1.2,11.9,2.9,17.7,5l4,1.6h0.3l0.9,0.4l2.5,1.1c2.7,1.3,5.4,2.7,8.1,4.2c5.2,2.9,9.9,6.5,15,9.6c2.7,1.7,5.7,3,8.8,3.9
	c3.6,0.8,7.3,1,10.9,0.4c6.4-0.9,12.5-3.6,18.8-5.1c3.1-0.7,6.1-1.3,9.2-1.7h1.4l2.2-0.2c1.6-0.2,3.3-0.3,4.9-0.3
	c3.5-0.2,6.9-0.2,10.4,0l5.2,0.5c1.5,0.1,2.9,0.3,4.4,0.6c7.1,1.1,14,3,20.6,5.6c1.6,0.7,3.7-0.1,4.9-1.2c1.2-1.3,1.7-3.2,1.3-4.9
	c-2.1-11.1-6.8-21.6-13.5-30.7l4.7,0.7c1.7,0.2,3,0.2,4.4-0.9c1.2-0.9,1.9-2.4,1.9-3.9c-0.4-3.6-0.6-7.3-0.4-11c0-0.2,0-0.5,0.1-0.7
	v-1c0.2-0.8,0.4-1.7,0.7-2.5l0.3-0.8l0.3-0.8l0.7-1.1l1.4-1.3c0-0.1,0.1-0.1,0.1-0.2l0.7-0.4l0.9-0.5c0.2-0.2,1.3-0.5,0.2-0.2
	l1.8-0.5h0.9c0.2,0,0.6,0.1,0.8,0l0.9,0.3h0.1l0.4,0.3c0.1,0,0.3,0.2,0.4,0.4c2,1.9,5.1,1.9,7.1,0c0.6-0.6,1.3-1.2,1.9-1.9
	c6.6,10.5,20.1,15.9,32.3,13.8c1.7-0.3,3.4-0.8,5.1-1.4c0.1,0.1,0.1,0.3,0.1,0.4c0.4,2,0.7,4,0.8,6.1c0.2,2.3,0.2,4.5,0.1,6.8
	c0,1.1,0,2.1-0.1,3.2c-0.1,1.1-0.1,1.1-0.2,1.7c-0.1,0.6-0.2,1.7-0.1,1.2c-0.4,1.7,0,3.6,1.3,4.9s3.1,1.7,4.8,1.3
	c0.4-0.2,0.9-0.3,1.4-0.3c0.1-0.1,0.8-0.1,0.9-0.1c0.8-0.1,1.6-0.1,2.4-0.1h2.1l0.9,0.2l1.3,0.3l2.1,0.7l0.8,0.4l1.3,0.6l0.5,0.3
	c-2.6,3.6-5.1,7.3-7.6,10.9c-1.2,2-0.9,4.5,0.7,6.1c7.8,6.3,15.9,12.1,24.4,17.5l-5.7,3.2c-3.9,2.3-2.7,7.8,1.2,9.2
	c2,0.6,3.9,1.4,5.9,2.1l1.2,0.5l0.9,0.4l2.8,1.3c3.8,1.7,7.4,3.7,10.9,5.9c4.4,2.6,8.6,5.5,12.5,8.8c-10,5.5-15.9,18.1-12.8,29.2
	c-11.7,0.8-23.3,2.5-34.7,4.9l-15.4,3.1c-0.5,0.1-1,0.3-1.4,0.6c-3.8-0.4-7.7-0.6-11.5-0.5c-7.7,0.4-15.4,1.4-23,3.2
	c-2.7,0.8-4.2,3.5-3.5,6.2c0.8,2.6,3.5,4.2,6.2,3.5c3.5-0.8,7-1.5,10.5-2.1h1.9l1.8-0.3l4.5-0.3c2.8-0.1,5.7-0.1,8.5,0.1l4,0.4h1.4
	l2.1,0.4c5.8,0.9,11.4,2.5,16.9,4.5c1.3,0.4,2.6,0.9,3.8,1.5h0.3l0.8,0.3l2.2,1c2.6,1.3,5.2,2.6,7.7,4s5.2,3.1,7.7,4.8l3.3,2.4
	l1.5,1.1l0.3,0.3l1.1,0.9c4.5,3.6,8.8,7.5,12.7,11.8c2.1,2.2,4.1,4.5,6,6.8l1.4,1.8l0.5,0.6l0.4,0.5l2.6,3.5
	c3.4,4.8,6.6,9.7,9.5,14.8s6.4,11.8,9.2,17.9l0.7,1.6c-10-6.5-20.8-11.6-32.1-15.2c-4.8-1.5-9.6-2.7-14.5-3.6
	c-2.1-0.4-4.6,0.2-5.6,2.3c-1.2,2-0.9,4.5,0.7,6.1c2.7,2.6,5.2,5.4,7.7,8.3l3.5,4.3l0.2,0.3l0.8,1l1.8,2.4
	c4.3,6.2,8.3,12.7,11.7,19.4c1,1.9,1.9,3.8,2.8,5.8l-13.5,2.9c-1.7,0.5-3,1.8-3.5,3.5c-0.4,1.7,0,3.6,1.2,4.9l4.4,5.1
	c0.2,0.3,0.4,0.6,0.7,0.9l0.8,1.1c0.7,0.9,1.4,1.8,2,2.8c2.7,3.7,5.1,7.6,7.4,11.5s4.3,8,6.1,12.1l0.6,1.4c0,0.1,0,0.1,0.1,0.2
	c0,0.2,0.1,0.3,0.2,0.5c0.5,1.1,0.9,2.2,1.3,3.3s1.6,4.3,2.3,6.4c1.6,4.9,2.9,9.9,3.9,14.9c0.4,2.7,3,4.6,5.7,4.1
	c2.7-0.4,4.6-3,4.1-5.7c-0.1-0.3-0.1-0.7-0.3-1c-3.7-18.6-11.3-36.2-22.1-51.7c-1.5-2.2-3-4.3-4.6-6.3l11.4-2.5
	c2.4-0.5,4.5-3.7,3.5-6.1c-5.5-13.8-13-26.7-22.2-38.3c3,0.9,5.9,2,8.8,3.2c0.1,0,0.2,0,0.2,0.1l0.6,0.2l1.3,0.6l3.1,1.4
	c1.9,0.9,3.9,1.9,5.8,3c3.7,2,7.3,4.3,10.7,6.7l3.1,2.2l1.3,1l0.5,0.3l0.4,0.3l5.6,4.7c1.6,1.6,4.1,2,6.1,0.8c1.7-1.1,3-3.5,2.3-5.6
	c-1.4-3.6-2.7-7.2-4.2-10.7c17.8-13.8,31.8-31.3,44-50.3c3.4-5.2,6.4-10.9,7.5-17s-0.3-13.1-0.5-19.8c-0.1-4.8,1.4-9.5,4.4-13.3
	c3-3.9,6.8-7.2,10.3-10.6c3.8-3.6,7.1-7.8,9.8-12.4c2.8-5.6,4.4-11.7,4.7-18C897.2,437.2,893.5,425.1,889.4,413.6z M451.8,355.2
	c-7.1-3.3-14.6-5.5-22.3-6.7c-1.7-0.4-3.6,0-4.9,1.3s-1.7,3.2-1.2,4.9c0.4,1.1,0.7,2.3,0.9,3.4v0.9c0.1,0.6,0.1,1.3,0,1.9
	c0,0.4,0,0.9-0.1,1.3c0,0.1-0.1,0.6-0.1,0.9l-7-0.8c-3.5-0.3-7.1-0.4-10.6-0.2c-2.6,0.3-4.8,1.3-6.1,3.6c-1.3,2.3-0.7,5.2,0.6,7.5
	c1.3,2.3,1.3,2.3,2,3.5c-11.3,2.2-21.7,7.4-30.1,15.2c-2.2,2-1.8,6.5,1.1,7.8c4.8,2.3,9.4,4.9,13.8,7.9c0.5,0.3,1,0.6,1.4,1
	c-2.9,0.5-5.8,1.2-8.6,2.3c-7.1,2.7-13.5,7.2-18.5,12.9c-10.4,2.6-19.9,7.9-27.6,15.3c-5.2,5.1-9.9,10.5-14.2,16.3
	c-1.2,1.6-0.7,4.2,0.4,5.6c1.3,1.6,3.3,2.3,5.3,1.8c2.6-0.6,5.3-1.2,8-1.6l1.8-0.3l1-0.2h0.3l4.1-0.5l4.4-0.3
	c-4.4,6.4-7.1,13.8-7.8,21.5c-0.3,3.3,3.5,5.5,6.4,4.8l1.3-0.3h2.3c-6.3,14.2-12.2,28.7-17.6,43.3c-3.1,8.3-6,16.6-8.7,25
	c-2.3,7.1-4.1,14.2-5.6,21.5l-16.7-28c-3.6-5.9-7.2-11.7-10.5-17.8c-2.9-5.5-5.3-11.2-7.2-17.1c-2.1-6-4.3-12.2-8.1-17.4
	c-3.8-5.2-8-8.6-12.7-12.2c-4.7-3.6-8.5-6.3-12-10.3c-3.2-3.8-5.4-8.5-6.3-13.4c-2.2-10.9,0.7-22.5,3.5-33.1
	c2.8-10.6,6.6-24.2,9.1-36.6c5.4-25.9,8.7-52.2,11.8-78.5c3.1-26.3,6.1-51.9,10.6-77.6c2.4-12.9,5.1-25.8,8.5-38.6
	c3.4-12.8,6.9-24.5,11.9-36.1c1.9-4.6,4.3-9.3,8-12.8c3.8-3.3,8.7-4.8,13.7-4.2c5.6,0.6,11.1,3,15.9,5.7c5.1,2.8,10,5.9,14.7,9.3
	c18.6,13.3,34.2,30.5,45.6,50.3c22.8,39.2,25.1,87.3,50.5,125.3c3.2,4.7,6.7,9.2,10.5,13.5l0.4,0.3
	C455.1,349.2,453.3,352.1,451.8,355.2z M754.5,505.3c-1.9,1.2-2.7,3.4-2.2,5.5c-5.5-3.2-11.3-6-17.3-8.2l8.3-1.4l6.7-1.1h0.9
	l1.7-0.2l3.4-0.4l8-0.7C760.7,500.8,757.6,503,754.5,505.3z M881.9,464.4c-5,8.1-13.6,13.7-19.3,21.6c-3.3,4.5-5.1,9.9-5.4,15.5
	c-0.3,6.2,1.4,12.3,0.9,18.5s-3.6,11-6.6,15.7s-6.6,9.7-10,14.5c-6.2,8.6-13.1,16.7-20.8,24c-2.8,2.6-5.7,5-8.7,7.4
	c-7.4-16.2-16.6-31.6-28.4-45c-7.4-8.5-16-16-25.4-22.3h0.2l3-0.5h2.2c2-0.2,3.9-0.3,5.9-0.3l5.8,0.4h1.9l3.1,0.6
	c3.4,0.7,6.8,1.7,10,3c-0.6,0.4-1.2,1-1.6,1.6c-1.7,2-1.9,4.9-0.7,7.2c1.1,2.1,3,2.9,5,3.8l4.8,2l9.8,4.1c2.4,1,5.6-1.1,6.1-3.5
	s-0.9-5.1-3.5-6.2l-6.1-2.5c2.8-0.1,4.9-2.5,4.8-5.2c-0.1-1.7-1-3.2-2.5-4.1c-9.3-6.2-20-10-31.1-11l4.4-2.2l3.5-1.6l0.9-0.4h0.1
	l2.1-0.8c2.4-0.7,3.9-3,3.6-5.5c-0.3-2.4-2.4-4.3-4.9-4.3c-3.5-0.3-7-0.4-10.4-0.4l-0.5-0.8c-0.3-0.8-0.5-1.5-0.7-2.3
	c-0.1-0.1-0.1-0.3-0.2-0.4v-0.2c0-0.3-0.1-0.5,0-0.6c-0.1-0.7-0.1-1.4-0.1-2.1c0-0.4,0.1-0.9,0.1-1.3l0.6-2.3
	c0.1-0.6,0.3-1.1,0.5-1.6l0.3-0.7l0.6-1.1c0.4-0.7,0.8-1.4,1.3-2.1l0.4-0.5l0.4-0.5l1.5-1.5l0.9-0.8l0.3-0.2l2-1.2l0.5-0.3
	c-0.4,0.2,0.3-0.1,0.6-0.2l2.1-0.6h1.6c4.2-0.1,6.7-5.5,3.5-8.5c-10.1-9.9-21.9-17.8-34.8-23.5l4-2.2c2.4-1.5,3.2-4.6,1.7-7
	c-0.4-0.7-1-1.3-1.7-1.7c-5.3-3-10.5-6.3-15.5-9.8s-7.5-5.3-11-8l7.7-11c1.1-2,0.8-4.4-0.8-6c-5.3-5.2-12.4-8.1-19.8-8.1
	c0.4-8.1-0.5-16.2-2.7-24c-0.9-2.8-4.7-5-7.4-3c-0.8,0.6-1.6,1.1-2.4,1.6l-1.2,0.7l-0.5,0.2l-2.7,0.8l-1.4,0.3h-0.4
	c-1.9,0.1-3.8,0.1-5.7,0h-0.5l-1.4-0.3l-2.6-0.7l-1.2-0.5h-0.5l-2.5-1.3c-0.7-0.4-1.4-0.8-2-1.3l-0.8-0.6l-1.1-1l-1.9-2h-0.1
	c0-0.1,0-0.1,0.1-0.2c23.3-45.2,50.6-88.2,81.7-128.5c14.3-18.7,29.1-38,47.6-52.8c4.4-3.5,9.1-6.7,14.1-9.4c3.7-2,9.3-5.9,13.6-3.7
	c2,1.1,3.5,3.1,4.9,4.9s3.5,4.7,5.1,7.2c3.3,4.9,6.4,9.9,9.3,15.1c11,20.2,18.3,42.3,21.3,65.1c1.6,11.3,2,22.6,1.4,34
	c-0.6,12.9-2.8,25.6-4.9,38.3c-4.4,25.6-8.9,52-2,77.5c3.3,12.2,8.8,23.7,11.6,36.1C887.2,443.4,887.5,455.1,881.9,464.4z"/>
</svg>
