<?xml version="1.0" encoding="utf-8"?>
<!-- Generator: Adobe Illustrator 24.2.3, SVG Export Plug-In . SVG Version: 6.00 Build 0)  -->
<svg version="1.1" id="af64c9a1-6eed-45f7-a4f5-ea1c4988b462"
	 xmlns="http://www.w3.org/2000/svg" xmlns:xlink="http://www.w3.org/1999/xlink" x="0px" y="0px" viewBox="0 0 1152 864"
	 style="enable-background:new 0 0 1152 864;" xml:space="preserve">
<path d="M293.6,455.8c-3.2-2.1-6-3.9-8.9-6l-2.1-1.5l-0.9-0.7l-0.4-0.3l-4-3.3c-2.7-2.3-5.3-4.7-7.8-7.1c-2.5-2.4-4.8-5-7-7.6
	c-2.2-2.6-2.3-2.6-3.3-3.9l-0.9-1.1l-0.5-0.7l-0.4-0.5l-1-1.3c-4.1-5.6-7.8-11.5-11.1-17.7l-2.5-5.1c-0.5-0.9-0.9-1.8-1.3-2.7
	s-0.3-0.9-0.5-1.3c-0.2-0.4-0.7-1.3-0.2-0.5c-0.9-1.9-1.7-3.8-2.3-5.8l-2.4-6.8c-0.8-2.5-3.5-4.4-6.1-3.5c-2.6,0.9-4.4,3.5-3.5,6.1
	c2.4,7.5,5.4,14.8,8.8,21.9c3.1,6.3,6.8,12.4,10.9,18.2c8.5,12,18.7,22.6,30.4,31.6c3.1,2.4,6.4,4.6,9.7,6.7
	c1.7,1.2,3.5,2.3,5.1,3.5c0.1,0,0.2,0.1,0.2,0.2c0.2,0,0.3,0.1,0.4,0.3l0.6,0.5c-5,5.7-7.9,13.1-9.3,20.6c-1.8,9.3-1.5,18.8-2,28.3
	l-0.3,4.2c-0.1,0.6-0.2,1.2-0.2,1.8c-0.1,0.2-0.1,0.4-0.1,0.6c0,0.1-0.1,0.8-0.1,0.8c-0.5,2.7-1.1,5.4-1.9,8.1
	c-0.7,2.7,0.8,5.4,3.5,6.2c2.6,0.6,5.3-0.9,6.1-3.5c3-9.5,3.1-19.5,3.4-29.4c0-2.3,0.1-4.6,0.3-6.9c0.1-1,0.1-1.9,0.2-2.9
	c0.1-1,0.1-0.9,0.2-1.4v-0.2c0.1-0.2,0.1-0.4,0.1-0.6c0.6-4,1.6-7.8,3-11.6c0-0.1,0-0.1,0.1-0.2c0-0.1,0.1-0.2,0.1-0.4l0.8-1.5
	c0.5-0.9,1-1.9,1.6-2.8l0.9-1.4c0.1,0,0.1-0.1,0.2-0.2l0.3-0.4l2.4-2.5c0.9-0.8,1.4-2,1.4-3.2c0.9-1.9,0.5-4.2-0.9-5.8
	C300,460.1,296.8,457.9,293.6,455.8z"/>
<path d="M403.7,357.2c-0.7-2.6-3.5-4.2-6.1-3.5c-11.6,2.9-20.8,11-28,20.2c-3.7,4.7-7.1,9.7-10.2,14.8l-4.8,7.2
	c-0.8,1.3-1.7,2.5-2.5,3.7l-1.2,1.6l-0.6,0.8h-0.1c0,0.1,0,0.1-0.1,0.2c0-0.7-0.1-1.3-0.2-2c-1.2-9.2-3.4-18.3-6.7-27
	c-3.2-8.7-7.3-17-12.4-24.7c-1.2-1.7-2.3-3.4-3.3-5.2l-0.6-1c0-0.2-0.1-0.4-0.2-0.6c0-0.2,0-0.4-0.1-0.6l0.3-0.2
	c0.7-0.4,1.4-0.9,2-1.5c2.7-2.5,2.6-6.4,1-9.5c-1.6-3.1-3.7-4.9-5.5-7.2L319,316c-2.4-2.8-4.7-5.6-7-8.5c1.8,0.1,3.4-0.9,4.3-2.4
	c1.1-2,0.8-4.4-0.8-6c-0.1-0.2-0.3-0.4-0.5-0.5h0.4c0,0.1,0,0.1,0.1,0.1l2.8,1.3c3.5,1.7,6.9,3.7,10.1,5.9l1.2,0.9l0.9,0.6l1.9,1.6
	c1.5,1.3,3,2.7,4.5,4.2c2.1,1.8,5.3,1.5,7-0.6c1.6-1.9,1.6-4.6,0-6.5c-12.6-12.5-29.1-20.3-46.7-22.1c-1.9-0.2-3.8,1.4-4.5,3.1
	c-0.9,1.8-0.5,4,1,5.4l8.8,8.1c-1,0.9-1.8,1.9-2.4,3.1c-1,2-0.7,4.4,0.8,6c6.2,7.5,12.4,15,18.5,22.6l0.8,1l-0.7,0.6
	c-1,0.8-1.7,1.9-2.2,3.1c-1.8,4.2-0.1,8.9,2.2,12.6c2.3,3.7,4.8,7.1,6.9,10.8c2.1,3.7,3.9,7.5,5.6,11.4l0.3,0.7l0.6,1.4l1.2,3.1
	c0.7,2.1,1.4,4.1,2,6.2c1.3,4.1,2.3,8.3,3.1,12.5l0.6,3.5c0,0.6,0.1,1.3,0.3,1.9v0.4c0.2,1.9,0.3,3.8,0.1,5.7v0.5l-0.3,1.2
	c-0.1,0.5-0.2,0.9-0.4,1.4c0,0.1,0,0.2-0.1,0.3v0.1v0.1c-0.3,0.8-0.1,0.2,0-0.1c-0.2,0.3-0.4,0.6-0.5,1l-0.3,0.4c0,0,0,0,0,0
	c0,0.1,0,0.1-0.1,0.1c0,0,0.1-0.1,0.1-0.1c0,0,0,0.1-0.1,0.1c0,0,0,0,0,0c0,0,0,0,0,0c-0.2,0.2-0.7,0.7-0.7,0.8l-0.5,0.2
	c-1.2,0.7-2,1.9-2.3,3.3c-1.1,1.6-1.2,3.6-0.2,5.3c1.4,2.2,4.5,3.3,6.8,1.8c10.3-6.5,17.5-16.4,24.1-26.4c3.1-4.8,6.1-9.6,9.4-14.2
	l1.3-1.8l0.3-0.4l0.5-0.6l2.7-3.3c1.8-2.1,3.7-4,5.8-5.8l1.7-1.4l0.3-0.3c0,0,0,0,0,0l0.8-0.6c1.2-0.9,2.5-1.7,3.8-2.4l2.2-1.2
	c0.3-0.1,0.6-0.2,0.8-0.4h0.4c1.5-0.6,3-1.1,4.5-1.5c2.6-0.7,4.2-3.3,3.5-6V357.2z M321.9,332.2c0.1-0.2,0.2-0.2,0.4-0.2
	L321.9,332.2z M338.5,412.3C338.3,412.5,338.3,412.4,338.5,412.3L338.5,412.3z"/>
<path d="M890.1,301.3c-2.2-27.5-7.1-57-24-79.6c-4.3-5.9-9.5-11.1-15.3-15.6c-7.2-5.4-15.7-6.2-24.2-3.4c-8.5,2.8-15,6.5-22.3,9.9
	c-7.3,3.4-13.7,6.4-20.5,9.8c-27.3,13.4-54,28.5-77,48.5c-11.6,10.2-22.1,21.7-31.2,34.2c-9.3,12.7-17.4,26.2-27.2,38.5
	c-2.4,3.1-5,6.1-7.6,9.1s-4.7,5.5-7.8,7.1c-3.1,1.6-7.2,0.4-10.5-0.8c-3.3-1.2-7.8-3.1-11.7-4.6c-16.1-6.3-32.7-11.7-50-12.6
	c-32.1-1.8-62,12.6-93.7,14.5c-7.4,0.6-14.9,0.1-22.2-1.2h-0.1c-26.2-23.3-50.5-48.6-77.9-70.6c-14.2-11.4-28.8-22.4-43.3-33.4
	s-27.9-20.9-42.7-30.1c-7.4-4.7-15-9.2-22.8-13.3c-7.8-4.1-17.7-6.9-26.4-4.1c-7.1,2.3-11.6,8.4-15.2,14.6
	c-1.8,3.5-3.5,7.2-4.9,10.9c-1.9,4.1-3.7,8.4-5.1,12.7C195,276,194.7,312.7,201.2,348s19.1,68.7,33.3,101.4l4.6,10.5
	c0.3,5.6-0.9,11.2-1,16.8c-0.1,5.6,1.3,12.9,5.8,17.9c8.2,9.2,15.1,19.2,19.9,30.6c9.5,22.5,10.6,47.4,7.5,71.4
	c-1.9,13.6-5,27-9.2,40.1c-1.9,6.2,7.7,8.8,9.6,2.7c12.3-39.1,17.2-83.3-0.3-121.6c-4.5-9.8-10.3-18.8-17.4-26.9
	c-1.5-1.7-3.2-3.2-4.3-5.2c-1-1.9-1.5-3.9-1.6-6c-0.3-4.9,0.6-9.7,1-14.5c0.1-2.5,0.5-5.4-0.2-7.7c-0.7-2.3-2.6-6-3.9-8.9
	c-2.4-5.5-4.8-11.1-7.1-16.6c-4.8-11.6-9.3-23.3-13.4-35.2c-15.8-46.3-24.5-96.7-10.8-144.7c1.6-5.7,3.5-11.2,5.9-16.6
	c2.3-5,4.1-10.1,7-14.7c2.9-4.6,4.7-6.7,8.4-7.7c3.7-1,11.3,0,16.1,2.3c10.7,5,21,11.6,30.9,18.1c9.9,6.5,20.3,13.9,30.1,21.3
	c9.8,7.4,19.3,14.7,28.9,22.2c9.6,7.5,20.5,15.7,30.3,24.1c18.9,16.2,36.5,33.6,54.8,50.5c4.4,4.1,8.9,8.1,13.4,12.1
	c1.3,1.1,2.9,1.6,4.6,1.4c31.4,5.4,61.6-7.1,92.3-11.9c15.7-2.6,31.8-1.7,47.2,2.5c8.2,2.3,16.2,5,24.1,8.2
	c7.6,2.9,15.9,7.6,24.3,6.5c8.4-1.1,13.8-8.2,18.9-14.1c5.1-5.9,10.1-12.7,14.7-19.3c9-12.8,17.3-26.2,27.5-38.1
	c19.2-22.6,43.7-39.8,69.5-54.2c13.2-7.4,26.7-14.1,40.4-20.5l20.6-9.5c3.5-1.6,7.2-3.2,11-3.7s6.9,0.8,10,2.9
	c5.3,3.9,9.9,8.6,13.6,13.9c3.9,5.4,7.2,11.3,9.9,17.4c5.4,12.4,8.3,25.9,10.2,39.3c1.9,13.4,2.7,29.2,3.2,43.8
	c0.7,17.8,0.8,35.5,0,53.3c-0.6,17.5-2.5,35-5.4,52.3c-2.8,15.7-6.2,31.9-15,45.4c-4,6.1-8.8,11.7-11.8,18.4
	c-1.6,3.7-2.6,7.7-2.9,11.8c-0.3,3.4,0.1,7.1-1.7,10.1c-0.6,0.8-1.2,1.6-2,2.3c-1.2,0.8-2.4,1.5-3.7,2.1c-2.6,1.2-5.3,2.2-8.1,3
	c-6.4,2.3-12.2,5.2-17.2,9.8c-9.8,8.8-15.4,21.8-17.9,34.5c-3,16.2-0.9,32.7,1,48.9c1,8.5,1.6,17,1.7,25.6c0,6.4,10,6.4,10,0
	c0.2-30.3-12.1-63.8,4.1-91.7c2.8-5,6.6-9.4,11.3-12.7c5.2-3.5,10.7-4.8,16.6-7.2s12.7-6.8,14.8-14.1c1.1-3.9,0.7-8,1.2-11.9
	c0.5-3.3,1.7-6.5,3.5-9.4c3.7-6.6,8.8-12.4,12.4-19c3.9-7.3,7-15.1,9-23.1c4.5-16.9,6.9-34.6,8.6-52.1
	C893.2,370.4,892.8,335.6,890.1,301.3z"/>
<path d="M778.1,530.4c-3.3-9-6.5-18.1-11-26.5c-2.5-4.9-5.5-9.5-9-13.8c-1.6-2-5.4-1.8-7.1,0c-1.8,2-1.8,5.1,0,7.1
	c0.2,0.1,0.9,1.1,0.8,0.9c0.2,0.3,0.4,0.7,0.7,1l2,2.9c1.2,1.9,2.3,3.8,3.4,5.8s2,3.8,2.9,5.8c0.9,2,0.9,2,1.3,3s0.6,1.5,0.3,0.6
	l0.7,1.8c3.7,8.9,6.8,18,10.2,27.1l6,16.2c0.9,2.5,3.4,4.4,6.1,3.5s4.5-3.5,3.5-6.1L778.1,530.4z"/>
<path d="M805,261.5l5.2-3.8c2.1-1.6,3.4-4.4,1.8-6.9c-1.4-2.3-4.4-3.1-6.8-1.8c-25.5,13.3-46.6,33.8-60.6,58.9
	c0.8-2.2,1.5-4.4,2.4-6.5c0.2-0.6,0.4-1.2,0.7-1.7c0-0.2,0.1-0.4,0.2-0.6c0.5-1.1,0.9-2.1,1.4-3.1c1.4-3.2,3-6.3,4.6-9.3l1.7-1.5
	c1.9-2,1.9-5.1,0-7.1l-1-0.7l-0.8-0.5c-2.3-1.4-5.3-0.6-6.7,1.7l-0.1,0.1l-1,1.7c-10.6,9.8-20.2,20.8-28.6,32.6
	c-9,12.9-16.6,26.7-22.6,41.3c-2.7,6.5-5,13.2-7,20l-7-1.9c-2.4-0.7-5.6,0.8-6.1,3.5c-3,14.1,8.5,24.4,16.9,34.1l3,3.6
	c0.5,0.5,0.9,1.1,1.4,1.7l0.8,1l0.7,0.8l5.4,7.5c3.7,5.4,7.1,11.1,10.1,16.9c1.7,3.2,3.2,6.5,4.7,9.7l0.5,1.2l0.3,0.8
	c0.1,0,0.1,0,0.1,0.1l0.3,0.7l0.6,1.6c0.7,1.7,1.4,3.4,2,5.2c0.6,1.8,3.5,4.4,6.2,3.5c2.7-0.9,4.4-3.5,3.5-6.2
	c-0.5-1.1-0.9-2.3-1.4-3.5c3.1,0.1,6.2-0.6,9-1.9c2.3-1.2,4.5-2.5,6.6-3.9l3.3-2l0.3-0.2l0.4,0.2c3.8,1.2,7.3-2.3,6.8-6
	c-0.5-3.8-4.1-5.3-7.5-4.5s-6.3,2.5-9.1,4.3l-3.8,2.4c-0.6,0.4-1.2,0.8-1.9,1h-0.2l-1,0.4l-1.1,0.2h-2.5c-0.2-2.7-0.2-5.5-0.1-8.2
	l0.3-2.7c0-0.5,0.1-1,0.1-1.4c0,0.1,0,0.3,0,0.4c0,0.1,0.1-0.8,0.1-1c0.3-1.9,0.7-3.7,1.1-5.6c0.5-1.8,1-3.6,1.7-5.4l0.9-2.6
	c0.2-0.4,0.3-0.9,0.5-1.3c0.2-0.4,0.1-0.2,0.3-0.6c1.6-3.4,3.4-6.8,5.5-9.9c0.6-0.8,1.2-1.7,1.9-2.5l0.4-0.6l1-1.2
	c1.4-1.7,3-3.3,4.6-4.8c1.9-2,1.9-5.1,0-7.1c-2-1.9-5.1-1.9-7.1,0c-11.6,11.3-19,26.2-20.9,42.3c-1.8-3.2-3.6-6.4-5.6-9.4
	c-3.6-5.6-7.6-11-11.8-16.2c-4-4.8-8.5-9.2-12.4-14.1l-0.2-0.3l-0.7-1c-0.5-0.6-0.9-1.3-1.4-2l-1.2-2l-0.5-1l-0.4-1
	c-0.1-0.1-0.1-0.2-0.1-0.3c-0.2-0.4-0.3-0.8-0.5-1.3l5.3,1.5c2.7,0.7,5.4-0.9,6.2-3.5c1.9-7.4,4.3-14.7,7.1-21.8
	c0.4-0.8,0.7-1.6,1-2.4l0.6-1.4l0.3-0.6c0.7-1.7,1.4-3.4,2.2-5.1c1.6-3.5,3.3-6.9,5.1-10.3c3.6-6.7,7.5-13.3,11.8-19.6l6.6-9.1h0.1
	l0.3-0.4l0.9-1.1l1.8-2.2l0.4-0.6c-2.7,8.6-4.7,17.4-5.8,26.3c-0.5,3.7,4.6,6.3,7.5,4.3c6.5-4.5,10.2-11.3,13.6-18.2
	c3.2-6.5,6.9-12.8,11.1-18.7c1.1-1.6,2.2-3.1,3.3-4.5l0.4-0.6l0.6-0.8l1.8-2.1c2.3-2.8,4.7-5.5,7.2-8.2s5.1-5.1,7.8-7.5l4.1-3.5
	l2.1-1.8l1-0.7l0.4-0.4h0.1c4.1-3.1,8.3-5.9,12.7-8.6C803.2,262.3,804.2,262.1,805,261.5z"/>
</svg>
