<?xml version="1.0" encoding="utf-8"?>
<!-- Generator: Adobe Illustrator 24.2.3, SVG Export Plug-In . SVG Version: 6.00 Build 0)  -->
<svg version="1.1" id="a02ddd91-81a1-497a-858e-5feada80f94d"
	 xmlns="http://www.w3.org/2000/svg" xmlns:xlink="http://www.w3.org/1999/xlink" x="0px" y="0px" viewBox="0 0 1152 864"
	 style="enable-background:new 0 0 1152 864;" xml:space="preserve">
<path d="M436.9,437.6c-19.1,7.2-33.7,22.2-44,39.6c-5.6,9.8-10.3,20-14,30.6c-4,10.7-7.7,21.7-11.2,32.6c-4.1,12.6-8.1,25.3-11.8,38
	c-0.7,2.4,0.6,5,2.9,5.9c2,0.9,5.2,0.2,6.2-2c3.7-8.6,8.4-16.8,13.9-24.4c0.6-0.9,1.3-1.7,1.9-2.5l0.6-0.9l1.3-1.5l4.5-5.3
	c3.2-3.5,6.6-6.8,10.1-9.9c1.9-1.7,3.9-3.3,5.9-4.9c0-0.1,0-0.1,0.1-0.1l0.8-0.6l1.6-1.2l3.3-2.4c2.2-1.4,3.4-4.4,1.8-6.8
	c-1.6-2.4-4.5-3.4-6.8-1.8c-10.1,6.9-19.3,15.2-27.2,24.5c3.1-9.6,6.4-19.2,9.8-28.7c1.8-5.1,3.7-10.2,5.8-15.2c0-0.1,0-0.1,0.1-0.2
	c0.1-0.3,0.2-0.6,0.4-0.9c0.2-0.5,0.5-1.1,0.7-1.7c0.2-0.6,1.1-2.5,1.7-3.7c0.6-1.2,2.4-4.9,3.7-7.3c2.4-4.5,5-8.8,7.9-12.9
	c0.7-0.9,1.3-1.8,2-2.6l0.6-0.8l1.3-1.5c1.4-1.8,3-3.5,4.6-5.2c1.8-1.9,3.6-3.6,5.6-5.3l2.9-2.4h0.1l0.9-0.7l1.6-1.2
	c2.2-1.5,4.4-2.8,6.7-4.1l3.3-1.6l0.9-0.4l0.6-0.3h0.4l1.1-0.5c2.5-0.9,4.4-3.4,3.5-6.1C442.1,438.5,439.5,436.6,436.9,437.6z"/>
<path d="M898,441.8c-1.7-7.4-8.4-11.8-15.1-14.3l-5.7-1.6h3.6c2.7-0.1,4.9-2.3,5-5c-0.5-27.6-5.4-54.8-10.4-81.7
	c-5-26.9-10.1-52.8-11.1-79.9c-0.4-13.6,0.3-27.1,2.1-40.6c0.5-3.5,0.9-7.1,1.1-10.6c0.3-3.6,0.3-7.2-0.2-10.7
	c-0.7-3.7-3.4-6.6-7-7.5c-3.1-0.8-6.4-0.1-9.3,1c-46.6,17.8-88.8,45.4-123.9,80.9l-3.5,3.7c-0.2-0.2-0.5-0.4-0.5-0.5
	c-0.4-0.3-0.9-0.8-1.2-1.2c-0.2-0.3-0.5-0.6-0.8-0.9l-0.8-1.3l-0.9-1.5l-0.3-0.7c-0.1-0.1-0.1-0.2-0.2-0.4c-0.7-2.6-3.3-4.2-5.9-3.6
	c-0.9,0.2-1.7,0.7-2.4,1.4c-4.5,5.1-8.6,10.5-12.3,16.2c-0.3-6.8,1-13.7,3.6-20c0.8-2-0.5-4.7-2.3-5.7c-2-1.1-4.4-0.8-6,0.8
	c-12.9,14.7-22.7,31.8-28.9,50.3c-0.9,2.8-1.7,5.5-2.5,8.3c-14.6-8.4-31.9-10.7-48.1-6.3c-3.7,1-7.3,2.4-10.8,4.1
	c-0.8-0.2-1.7-0.2-2.5,0.1c-19.6,6.3-39.4,15.2-53.2,31.1c-2.9,3.4-5.6,7.1-7.9,11c-8.3-9.3-18.5-16.7-30-21.6
	c-17.8-7.8-37.8-8.8-56.3-2.9l-0.9,0.3c0-0.2,0-0.5-0.1-0.7c-2.8-12-5.8-24-11.2-35.1c-5-9.9-11.5-19-19.3-26.9
	c-4.3-4.4-8.8-8.5-13.6-12.3c-1.7-1.4-4.1-2.1-6.1-0.8c-1.9,1.1-2.9,3.4-2.3,5.6c0.8,3.1,1.4,6.1,1.9,9.2c0.1,0.4,0.1,0.8,0.1,1.2
	l0.3,2.3c0.1,1.6,0.2,3.1,0.2,4.7c0.1,3,0,6.1-0.3,9.1c0,0.3-0.1,0.6-0.1,0.9c-3.8-2.4-7.8-4.4-12-5.9c-12.6-17.5-26.5-34-41.7-49.3
	c-15.2-15.2-31.6-29.6-49.3-41.9c-10-7-20.8-13-32.6-16.4c-2.8-0.9-6.7,1.5-6.3,4.8c4.4,34.4,5.9,69.1,4.7,103.7
	c-0.6,17.2-1.9,34.3-3.8,51.3c-1,8.8-2.1,16.5-3.5,25.3c-1.4,8.8-2.8,17.5-2.8,26.3c0,12,3.1,24.8,10.6,34.3
	c-8.7,0.8-17,3.1-23.7,9.1c-3.2,3-0.6,8.5,3.6,8.5c3.5,0,6.9,0.2,10.4,0.6h0.4l1.1,0.2l2.6,0.4l5.1,1.1c3.1,0.8,6.2,1.8,9.2,2.9
	c-9.5,5.8-16.9,14.6-20.8,25c-0.9,2.4,1,5.8,3.5,6.2c4.8,0.7,9.7,1.4,14.6,1.8c-1.1,1.2-2.2,2.3-3.2,3.5c-8,8.7-15.1,18.2-20.9,28.5
	c-1.2,2.2-0.6,4.9,1.3,6.4c2.2,1.7,4.6,1.2,6.6-0.3c-0.5,0.3,0.4-0.3,0.4-0.4l1.1-0.8l2.2-1.5l4.4-2.9c2.4-1.6,4.9-3,7.4-4.3
	c-9,12.3-14.2,27-15.2,42.2c0,2,1.3,3.8,3.1,4.6c1.9,0.8,4,0.3,5.4-1.1c1.6-1.5,3.4-2.9,5.3-4.1c2.1-1.4,4.3-2.6,6.6-3.6l0.4-0.2
	l0.7-0.3l1.4-0.5l3.8-1.1l1.8-0.5c1.7,30.4,8.9,60.2,21.2,88.1c3.6,8.3,7.7,16.3,12.2,24.1c1.1,2,3.4,2.9,5.6,2.3
	c2-0.6,3.9-2.6,3.7-4.8c-0.3-2.8-0.3-5.5,0-8.3c0-0.1,0.1-0.6,0.1-0.9c0.1-0.2,0.1-0.3,0.1-0.5c0.1-0.6,0.2-1.3,0.4-1.9
	c0.3-1.4,0.7-2.8,1.1-4.2c0.2-0.7,0.4-1.3,0.7-1.9c2.3,13.5,6.6,26.5,12.8,38.7c2.3,4.7,5,9.2,7.9,13.5c1.4,2.2,4.5,3.3,6.8,1.8
	s3.4-4.5,1.8-6.8c-3.1-4.7-6-9.6-8.5-14.7c-2.4-4.8-4.4-9.8-6.1-14.9c-1.8-5.4-3.3-10.8-4.4-16.4c-0.2-1.4-0.5-2.8-0.7-4.2l-0.3-2
	c-0.1-0.3-0.1-0.5-0.1-0.8c0,0-0.1-0.1-0.1-0.5c-0.3-2.8-0.6-5.7-0.8-8.5c0-2.8-2.3-5-5.1-4.9c-1.3,0-2.5,0.5-3.4,1.4
	c-4.9,5.5-8.6,12.1-10.6,19.2c-4.4-9-8.2-18.2-11.5-27.7c-5-14.7-8.7-29.8-10.9-45.2c-0.2-1.7-0.4-3.4-0.7-5.7l-0.6-6.4
	c-0.4-4.5-0.7-9-0.8-13.5c-0.1-2.5-2.3-5.3-5-5c-7.6,0.6-14.9,2.9-21.6,6.6v-0.2c0.5-2,1.1-4,1.7-6l0.9-2.6l0.6-1.6l0.3-0.7
	c0.1-0.1,0.2-0.3,0.2-0.5c0.1-0.1,0.1-0.1,0.1-0.2l0.3-0.7l0.6-1.3c0.4-0.9,0.9-1.8,1.4-2.8s2-3.6,3-5.3s2.3-3.5,3.5-5.1l0.5-0.7
	l0.8-1c0.6-0.8,1.3-1.5,2-2.3s3.1-3.4,4.7-5l2.7-2.4l1.3-1l0.5-0.5l0.3-0.2c2-1.6,3.1-3.8,2.1-6.3c-1-2.3-3.5-3.5-5.9-2.9
	c-6.8,2-13.5,4.6-19.9,7.7c1.4-1.6,2.7-3.3,4.2-4.9c6.7-7.7,14.1-14.7,22.1-21.1l2.7-2.2l1-0.8l1.5-1.2l6.3-4.6
	c4.2-2.9,8.6-5.8,12.9-8.5c8.8-5.4,17.9-10.5,27.2-15.1c9.3-4.6,21.1-10.1,31.8-14.8c3-1.3,3.1-5.8,1-7.8c-8-7.8-19.4-8.8-29.9-7.3
	c-2.8,0.4-5.6,1-8.4,1.7c3.8-1.9,7.6-3.8,11.4-5.5l4.3-1.9c1.2-0.6,2.5-1.1,3.8-1.6l9.1-3.7c6.1-2.3,12.2-4.4,18.4-6.3
	c4.2-1.3,8.5-2.5,12.9-3.6c-4.6,12.8-7.3,26.3-10.6,39.5c-1.2,4.6-2.4,9.3-3.9,13.8c-0.7,2.3-1.4,4.6-2.2,6.8l-1.2,3.2
	c-0.2,0.6-0.4,1.1-0.7,1.6l-0.3,0.8c0,0.1-0.2,0.6-0.2,0.7c0-0.2,0-0.3,0.1-0.5c-1.7,4.4-3.8,8.6-6.3,12.6c-1.2,2-2.5,3.9-3.9,5.8
	l-0.5,0.6l-1.1,1.3c-0.8,0.9-1.5,1.8-2.3,2.6c-1.6,1.8-3.3,3.4-5.1,4.9c-2.6,2.3-1.4,7.8,2.2,8.4c4.7,0.8,9.6-0.3,13.5-3.1
	c3.7-2.9,6.9-6.4,9.4-10.4c2.4-3.7,4.4-7.6,6.6-11.4c2.5-4.3,5.1-8.5,8-12.5l4.2-5.8l0.7-0.9l1.1-1.3l2.4-3c3.2-3.8,6.5-7.5,10-11
	s7.2-6.8,11-10c0.8-0.8,1.7-1.5,2.6-2.2l1.3-1.1l0.8-0.6l0.2-0.2l6.1-4.3c2.3-1.5,4.6-2.9,7.1-4.2c2.5-1.3,2.5-1.3,3.8-1.9l1.7-0.8
	c0.1,0,0.1,0,0.1-0.1l1-0.3c2.6-1,5.2-1.8,7.8-2.5c1.2-0.3,2.4-0.5,3.5-0.7c0,0,0.1,0,0.5,0h1.1l2.3-0.2c2.7-0.1,4.9-2.3,5-5
	c-0.2-2.6-2.2-5.1-5-5c-20.8,1.1-38.5,13.9-53.2,27.6c-8.4,7.9-16,16.5-22.8,25.8l1.8-5.6c2.6-9.3,4.6-18.7,7-28.1
	c1.1-4.7,2.4-9.4,3.8-14.1c0.8-2.4,1.5-4.8,2.4-7.1c0.9-2.3,0.7-2.1,1.1-3.1c0.4-1,0.5-1.2,0.7-1.7l0.4-1h0.1
	c1.9-4.5,4.1-8.8,6.7-12.9c0.6-1,1.2-2,1.9-2.9l1.1-1.5c0.1-0.3,0.3-0.5,0.5-0.7l0.3-0.5c1.4-1.7,2.8-3.3,4.3-4.9
	c1.5-1.6,3.2-3.1,4.8-4.6l2.5-2h0.1l0.6-0.5l1.5-1.1c3.7-2.5,7.6-4.7,11.6-6.6l1.5-0.6l0.8-0.3c1-0.5,2.1-0.9,3.2-1.2
	c2.1-0.8,4.2-1.4,6.4-2l6.5-1.3h2.5c1.1-0.2,2.3-0.3,3.4-0.3c4.5-0.3,9-0.1,13.5,0.4h0.7l1.5,0.2l3.3,0.7l6.6,1.7l6.1,2.3h0.1
	l0.7,0.3l1.3,0.6l3.1,1.5c4,2.1,7.8,4.6,11.4,7.3h0.3c0,0.1,0.1,0.1,0.2,0.2l1.2,1l2.7,2.3c1.7,1.5,3.3,3,4.8,4.6l4.5,5.1l0.9,1.2
	c-0.7-1,0.2,0.2,0.4,0.5s1.4,1.9,2,2.9c1.3,1.8,2.4,3.7,3.5,5.6c1.4,2.4,4.4,3.2,6.8,1.8c2.4-1.4,3.2-4.4,1.8-6.8
	c-1.3-2.4-2.8-4.8-4.4-7c0.2-0.1,0.3-0.3,0.4-0.5c1-2.1,2.1-4.1,3.4-6c0.6-0.9,1.2-1.8,1.9-2.6l0.6-0.9l1.1-1.3
	c2.9-3.5,6.1-6.6,9.6-9.5l1.3-1.1l0.5-0.4h0.1l2.8-2.1c2-1.4,4.1-2.7,6.2-3.9c1.9-1.2,3.9-2.3,6-3.3c-2.5,3.2-4.7,6.6-6.6,10.2
	c-5.3,9.7-9.1,20.1-11.3,30.9c-0.5,2.5,0.7,5.5,3.5,6.1c2.8,0.6,5.6-0.7,6.1-3.4c0.9-4.5,2.1-8.9,3.6-13.2c0.7-2.2,1.5-4.3,2.4-6.4
	l0.3-0.7l0.6-1.5l1.6-3.3c2-4,4.2-7.8,6.8-11.4l0.9-1.3c0.1-0.2,1.2-1.5,0.5-0.8l2.1-2.5l4.2-4.4l2.1-1.9l1.1-0.8l0.7-0.6l4.8-3.2
	c1.8-1,3.5-1.9,5.3-2.7l1.5-0.7h0.3l2.9-1.1l5.8-1.6l2.7-0.5l1.4-0.2h0.9c4.1-0.5,8.3-0.5,12.4,0h0.9l1.7,0.3l3.5,0.8
	c2.2,0.5,4.5,1.2,6.6,2l1.6,0.6l1,0.4l3.2,1.6l2.7,1.6h-1.3c-13.5-0.6-26.8,2.5-38.6,9c-11.8,6.4-21.4,16.2-27.7,28
	c-0.9,1.7-1.6,3.5-2.4,5.2s1.1,5.6,3.5,6.2c2.3,0.6,4.8-0.8,6-3.2c0.1-0.1,0.2-0.3,0.3-0.5c0.2-0.3,0.3-0.7,0.4-1l1.1-2.1
	c0.7-1.4,1.5-2.7,2.3-4.1l2.6-3.7l0.8-1l1.5-1.8c2-2.3,4.2-4.4,6.6-6.4l1.7-1.4c0-0.1,0.1-0.1,0.2-0.2l0.9-0.7l3.8-2.6
	c2.6-1.6,5.4-3.1,8.2-4.4l0.9-0.4h0.3l2.1-0.9l4.3-1.4c3-0.9,6-1.6,9.1-2.1h1c-0.1,0-0.1,0-0.2,0c0.1,0,0.3,0,0.4,0l2.3-0.2
	c1.5-0.2,3.1-0.2,4.6-0.2h4.7l2.1,0.2h1.4c3.1,0.5,6.2,1.2,9.2,2.2l2.5,1l1.2,0.4l0.3,0.2c-0.1-0.1-0.1-0.1,0.1,0h0.3l5.1,2.5
	c3.3,1.8,6.5,3.8,9.6,6l2.4,1.7l0.2,0.2c0.1,0,0.1,0,0.1,0.1l1.3,1l4.4,3.7c2.9,2.6,5.7,5.3,8.4,8.1c2.7,2.7,5.2,5.6,7.7,8.5
	c2.5,2.9,2.5,2.9,3.7,4.4l1.7,2.1h0.1l0.3,0.5l1,1.3c4.6,6.2,8.9,12.7,12.7,19.4c1.9,3.3,3.7,6.7,5.4,10.1l0.3,0.7
	c-20.4-12.2-42.6-21.3-65.7-26.9c-8.2-2-16.5-3.5-24.9-4.5c-2-0.3-4.3,1.7-4.8,3.6c-0.5,2.2,0.4,4.5,2.3,5.7
	c9.5,5.7,19,11.5,28.4,17.4c9.4,5.9,18,11.3,26.7,17.3l6.3,4.5l1.5,1.1l0.9,0.7l0.3,0.3c0.1,0.1,0.4,0.2,0.4,0.3l0.7,0.5l1.6,1.3
	c4,3.2,7.9,6.6,11.5,10.3c3.3,3.3,6.4,6.8,9.3,10.5l0.6,0.9c0.4,0.4,0.7,0.8,1,1.3l2.1,2.9c1.3,1.9,2.6,3.9,3.8,6
	c2.7,4.6,5.1,9.3,7.2,14.2c0.2,0.3,0.3,0.6,0.4,1c0.3,0.6,0.5,1.2,0.8,1.9c0.3,0.7,0.9,2.5,1.4,3.7l2.4,7.8c0.7,2.6,3.5,4.2,6.1,3.5
	c2.6-0.8,4.2-3.5,3.5-6.2c-5.3-19.2-15-36.8-28.5-51.5c-14.5-15.7-32.9-27.1-50.8-38.5l-8.8-5.4c4.8,1.2,9.6,2.6,14.4,4.2
	c3.4,1.1,6.8,2.4,10.2,3.7l4.4,1.7l1.3,0.5l0.6,0.3l2.6,1.1c6.5,2.9,12.8,6,19.1,9.5c7,3.9,13.7,8.2,20.2,12.9c1.8,1,4,0.8,5.6-0.4
	s2.3-3.3,1.8-5.3c-5.7-15.3-13.4-29.8-22.8-43.1c-9.3-13.2-20.3-25.7-33-35.7c-8.9-6.9-18.7-12.5-29.4-15.5c0.2-0.4,0.3-0.8,0.4-1.2
	c3.3-16,9.4-31.3,18.2-45.1c0.1,5.8,1,11.5,2.9,16.9c0.6,1.9,2.2,3.3,4.1,3.6c2,0.3,4-0.7,5-2.4c3.6-7.4,8-14.3,13.1-20.8
	c2.2,3,5.1,5.5,8.4,7.3c2,1.1,4.5,0.8,6.1-0.8c8.2-8.8,16.8-17.1,25.8-25c8.9-7.7,18.2-14.9,27.9-21.6c9.8-6.9,20-13.2,30.5-19
	c5.3-2.9,10.7-5.7,16.1-8.3l7.9-3.7l4-1.8l1.9-0.8l1-0.5h0.4l0.4-0.2c2.8-1.1,5.5-2.3,8.3-3.3c1.2-0.5,2.4-1,3.7-1.3l0.9-0.3h0.8v1
	c0.1,1.1,0.1,2.1,0.1,3.2c-0.1,3.4-0.4,6.8-0.7,10.2c-0.8,6.7-1.8,13.4-2.3,20.2c-0.5,6.8-0.6,13.2-0.5,19.8
	c0.4,26.7,5.1,53.1,10,79.3c4.9,26.2,9.9,51.4,11.2,77.7l0.3,5l-2.4,0.3c1.1-0.9,1.8-2.3,1.7-3.7c-1.6-12.3-4.5-24.5-8.4-36.3
	c-3.8-11.5-7.9-23-12.8-34.1c-2.1-5.1-4.5-10-6.9-15l-3.6-7.7c-0.6-1.2-1.1-2.4-1.6-3.5l-0.8-1.8V314c-0.2-0.4-0.4-0.7-0.5-1.1
	c-2.1-5-3.7-10.1-5-15.4c-0.3-1.2-0.6-2.4-0.8-3.6l-0.3-1.8c0-0.4-0.1-0.8-0.1-1.2c-0.3-2.7-0.4-5.3-0.3-8c0.1-0.7,0.1-1.5,0.2-2.3
	c0-0.3,0-0.5,0.1-0.8c0-0.2,0-0.5,0.1-0.7c0.2-1.6,0.5-3.2,0.8-4.7c0.7-3.3,1.5-6.6,2.3-9.9c1.7-6.8,3.2-13.7,3.1-20.8
	c0-2.8-2.3-5-5-5c-0.4,0-0.9,0.1-1.3,0.2c-50.2,15.9-95.6,44.5-131.6,83c-2,2-2,5.1,0,7.1s5.1,2,7.1,0c6.8-7.3,14-14.3,21.5-20.9
	c3.8-3.4,7.7-6.6,11.7-9.7l1.3-1.1l0.6-0.5l0.6-0.4l0.2-0.2l0.8-0.6l1.7-1.3l6-4.4c16.3-11.6,33.7-21.5,52-29.7l3.8-1.7l0.9-0.4
	l0.7-0.3l1.6-0.6l7.7-3.1l9.3-3.3c0,0.4-0.1,0.8-0.2,1.2c-0.5,2.8-1.1,5.7-1.8,8.5c-1.7,6.1-2.9,12.3-3.8,18.5
	c-1.4,10.9,1,21.9,4.7,32.1s9.1,20.7,13.9,31l1.5,3.5l0.9,1.9l0.3,0.8l0.3,0.5c1.1,2.7,2.1,5.4,3.1,8.1c2.2,5.6,4.3,11.3,6.2,17
	s4.3,13,6,19.7c0.8,3.3,1.6,6.6,2.3,10l0.9,5l0.3,2.3c0,0,0.1,0.6,0.1,0.8h0.1c0,0.3,0,0.6,0.1,0.9c0.1,2,1.3,3.7,3,4.7
	c-3.3,0.8-6.5,1.9-9.6,3.4c-2.8,1.2-3.4,5.9-1,7.8c3,2.4,6.5,4.2,10.2,5.3c3.3,1,6.7,1.7,10,2.6l2,0.5l1,0.4l0.8,0.3l0.6,0.3l1,0.6
	l1.8,1l0.6,0.5l0.5,0.4h0.1l-8.1,3.1c-4.9,1.8-10.3,4-10.3,10.1c0,2.8,1.5,5.3,2.6,7.8l3.2,6.6l3,6.6c-13,1.8-24.6,9.2-31.5,20.4
	c-1.1,2-0.8,4.4,0.8,6c2.2,2.4,4.1,5.1,5.6,8l-0.8-0.2c-3.1-0.6-6.2-0.7-9.3-0.3l-0.3-0.7l-0.6-1.4l0,0c-0.2-0.4-0.2-0.4-0.1-0.3
	l-0.2-0.4l-1.2-3.2c-1.6-4.5-2.8-9.1-4.5-13.6c-2.9-8.1-7.4-15.5-13.2-21.9c-5.6-5.7-11.8-10.8-18.5-15.2c-7.5-4.8-15.3-8.9-23.2-13
	c-2.4-1.1-5.6-0.6-6.9,1.8c-1.3,2.4-0.7,5.6,1.8,6.9c7,3.5,14,7.2,20.6,11.3c1.7,1,3.3,2.1,4.9,3.2l2.3,1.6l1.1,0.8l0.6,0.5l0.4,0.3
	h0.1l0.6,0.5l1,0.8l2.3,2c1.5,1.3,2.9,2.6,4.2,4c1.3,1.3,2.6,2.7,3.8,4.1l0.8,1l0.2,0.2v0.2l1.8,2.4c1,1.6,2,3.2,2.9,4.9
	c0.9,1.7,0.8,1.6,1.2,2.4c0.1,0.3,0.2,0.5,0.4,0.7c0,0.2,0.1,0.4,0.2,0.6c0,0.1,0,0.1,0.1,0.2c0.1,0.3,0.3,0.7,0.4,1.1
	c1.7,4.4,3,9,4.5,13.5c3.2,9.5,7.9,18.3,14.1,26.2l-2.1-0.6l-3.6-1l-1.9-0.7l-0.8-0.3l-0.5-0.2c-2.3-1-4.5-2.2-6.7-3.5
	c-7.8-4.7-14.4-11.1-22.1-15.8c-4.5-2.9-9.5-4.9-14.7-5.9c-2.7-0.7-5.4,0.9-6.1,3.6c-0.3,1.3-0.1,2.6,0.5,3.7
	c4.4,7.6,8.8,15.2,12.7,23c0.9,2,1.9,4,2.8,6.1l0.6,1.4l0.3,0.6l1.2,3.3c1.6,4,2.9,8.1,3.9,12.3c0.6,2.3,1,4.7,1.4,7.1
	c0,0.2,0,0.4,0.1,0.6v0.2c0.1,0.6,0.1,1.2,0.2,1.7l0.3,4c0,2.8,2.2,5,5,5s5-2.2,5-5c-0.9-18.6-8.4-35.9-17.3-52
	c-0.1-0.3-0.2-0.5-0.4-0.7c3.5,2.2,6.8,4.7,10,7.1c3.6,2.9,7.3,5.5,11.1,8c2.4,1.6,5,3,7.7,4.1c2.5,13.4,5.7,26.7,9.5,39.8h-1
	c-3.6-0.2-7.2,1.1-9.8,3.6c-3,2.9-3.9,7.3-2.5,11.2c1.1,3.4,2.2,6.7,3.1,10.1s1.6,6.7,2.2,10.2c0.2,0.9,0.3,1.7,0.5,2.6
	s0.1,0.9,0.2,1.4l0,0.1c0,0,0,0,0,0.1l0.6,5.4c0.6,7,0.5,14-0.1,21l-0.3,3.2c-0.1,0.4-0.1,0.9-0.2,1.3v0.5c-0.3,1.9-0.6,3.9-1,5.8
	c-0.8,4-1.8,8-2.9,11.9c-0.7,2.6,0.9,5.4,3.5,6.1c2.8,0.7,5.1-0.9,6.1-3.5c0.4-1.1,0.8-2.2,1.3-3.3c0.2-0.6,0.2-1.3,0.1-1.9
	c2.9-11.4,4.2-23.2,3.8-35c-0.2-6.9-1-13.8-2.3-20.6c-0.7-3.3-1.4-6.5-2.3-9.7s-2.1-6.2-3-9.4l0.3-0.2c0-0.1,0-0.1,0.1-0.1
	c0.1-0.2,0.3-0.3,0.5-0.4l0.9-0.2h1.2c0.7,0.1,1.4,0.3,2,0.6l0.8,0.3l0.8,0.4l2.6,1.4c3.7,2.1,8.7-1.4,7.4-5.6
	c-4.6-14.2-8.3-28.7-11.2-43.3c5,1.1,10,1.6,15.1,1.5c2,0,3.7-1.3,4.5-3.1c0.8-1.9,0.4-4.1-1-5.5c-3.2-2.9-6.1-6-8.8-9.3l-0.3-0.4
	l-0.9-1.2l-1.9-2.7l-0.3-0.5h0.4l1.2,0.3c0.8,0.2,1.6,0.4,2.4,0.6l0.9,0.4h0.5c1.8,0.8,3.5,1.7,5.1,2.7c1.7,1,3.9,0.8,5.5-0.4
	c1.6-1.3,2.3-3.3,1.8-5.3c-1.4-7.2-4.5-13.9-9.1-19.6c0.1-0.1,0.1-0.2,0.2-0.2s0.1-0.2,0.2-0.3c1.1-1.3,2.2-2.5,3.5-3.6l1.8-1.6h0.1
	c0.1,0,0.1-0.1,0.2-0.2l1-0.7l4.4-2.6l2-0.9l0.5-0.2l1.1-0.5l4.7-1.6l2-0.3l0.9-0.2h1.2c1.7-0.1,3.4,0,5.1,0.1c2.8,0,5-2.3,5-5
	c0-0.9-0.2-1.7-0.7-2.5l-5.4-11.6l-2.7-5.8c-1-1.7-1.8-3.5-2.6-5.3h0.3l1.5-0.5l2.7-1.1l12.2-4.5C897.2,447.4,898.8,444.6,898,441.8
	z M401.8,271.5C401.7,271,401.8,271.1,401.8,271.5L401.8,271.5z M427.8,346c-7.6,6.2-14,13.8-18.7,22.4c-1.3,2.1-2.4,4.3-3.4,6.6
	c-25.4,6-50,15.2-73.1,27.3c-6.6,3.4-13.1,7.1-19.5,11.1c-1.9,1.1-2.9,3.4-2.3,5.6c0.7,2.1,2.6,3.6,4.8,3.7
	c11.8,1.4,23-3.3,34.4-5.3l1.4-0.2l1.3-0.2l3.2-0.2c1.2-0.1,2.5-0.1,3.7,0h1.3l1.3,0.2l2.7,0.5c-16.4,7.2-32.4,15.4-47.8,24.6
	c-12.8,7.7-24.9,16.6-36.1,26.5c-5.3-0.3-10.5-0.8-15.6-1.4l1.5-2.4l1.3-1.8c-0.6,0.9,0.2-0.2,0.3-0.3l0.7-0.9
	c1-1.2,2.1-2.3,3.3-3.4c0.5-0.6,1.1-1.1,1.7-1.6l0.9-0.7l0.3-0.2c1.2-1,2.5-1.8,3.8-2.6c1.4-0.8,2.8-1.6,4.3-2.2h0.2l1-0.4l2.5-0.9
	c3.9-1.2,5.1-7,1.2-9.1c-7.2-4-15-6.9-23-8.8l3.9-0.2c2.9-0.2,5.8-0.2,8.7-0.1c3.7,0,5.6-3.8,4.6-6.8c1.3,0.3,2.6,0.1,3.7-0.5
	c2.5-1.6,2.9-4.3,1.8-6.9l-0.3-0.6c-0.1-0.2-0.1-0.4-0.2-0.4c-0.1,0-0.5-1.2-0.7-1.9c-0.2-0.7-0.9-2.4-1.2-3.7
	c-0.8-2.6-1.5-5.2-2-7.8l-0.6-3.7c0-0.4-0.1-0.7-0.1-1.1c-0.1-0.7-0.2-1.5-0.2-2.2c-0.3-2.7-0.4-5.4-0.4-8.1c0-5.3,0.4-10.7,1-16
	c0-0.1,0-0.1,0.1-0.2c0-0.2,0-0.5,0.1-0.7l0.3-2.2c0.2-1.3,0.4-2.6,0.7-3.9c0.3-1.3,1-5.4,1.6-8c2.6-11.3,6-22.4,9-33.5
	c3.2-11.3,5.6-22.8,7.2-34.5c1.3-11,1.6-22.2,0.7-33.3l3.2,0.9l5,1.8l1.7,0.8c-0.1-0.1,0-0.1,0.3,0h0.2l0.5,0.2l1.3,0.6
	c6.3,2.9,12.4,6.4,18,10.5l1,0.8l0.6,0.4c-0.4-0.2,0.6,0.5,0.7,0.6l1.1,0.9l4,3.4c2.6,2.3,5,4.8,7.4,7.3c2.4,2.5,2.3,2.6,3.4,4
	l1.4,1.7l0.4,0.6l0.9,1.1c2.1,2.8,4,5.8,5.8,8.8c1.9,3.3,3.7,6.8,5.3,10.3c0,0.2,0.1,0.4,0.2,0.5v0.2c0.1,0.3,0.1,0.3,0.1,0.3
	c0.1,0.3,0.3,0.7,0.3,0.9c0.1,0.4,0.8,1.9,1.1,2.8c0.3,0.9,1.3,3.8,1.9,5.7c0.6,1.9,3.5,4.4,6.1,3.5c2.6-0.7,4.2-3.5,3.5-6.1
	c-4.3-14.4-11.6-27.7-21.4-39c-9.6-11.2-21.4-20.3-34.6-26.8c-7.6-3.7-15.6-6.4-23.8-8.2c-1.5-0.4-3.1,0-4.3,0.9
	c-1.3,0.9-2.1,2.3-2,3.9c1.4,11.9,1.5,23.8,0.4,35.7c-0.2,1.4-0.3,2.8-0.5,4.2s-0.1,0.8-0.1,1.2c-0.1,0.1-0.1,0.3-0.1,0.5l-0.3,2.2
	c-0.5,2.9-1,5.7-1.6,8.5c-1.1,5.8-2.6,11.5-4.1,17.1c-5.9,22.1-13.4,44-13.8,67c-0.4,12.3,1.9,24.5,6.5,35.9l-0.6-0.5l-0.4-0.3
	l-0.7-0.5c-1.3-1.1-2.5-2.3-3.7-3.6l-0.5-0.7l-0.2-0.2h-0.1l-1.2-1.8c-1-1.5-1.8-3-2.6-4.6l-0.6-1.2l-0.9-2.5
	c-0.6-1.5-1-3.1-1.4-4.7c-0.2-0.8-0.3-1.6-0.5-2.4s-0.1-0.7-0.2-1.1c0-0.2,0-0.5-0.1-0.7c-0.2-2-0.4-4.1-0.4-6.1
	c-0.3-8.5,0.8-16.4,2.1-24.5c1.3-8.1,2.6-17.4,3.7-26.2c4-33.7,5.4-67.6,4.2-101.5c-0.6-16.6-1.9-33.1-3.8-49.6h0.2l1.1,0.4l1.7,0.7
	l3.7,1.8c4.6,2.3,9,5,13.3,7.9c2.2,1.4,4.3,2.9,6.3,4.4c1.1,0.7,2.1,1.5,3.1,2.3l1.4,1.1l0.8,0.6l0.5,0.3c4.1,3.2,8.2,6.5,12.2,9.9
	c16.1,13.5,31.1,28.2,44.9,44.1c3.8,4.4,7.6,8.9,11.2,13.5l1.4,1.8l0.6,0.8l0.4,0.5l2.6,3.4c1.4,1.8,2.7,3.6,4,5.5
	c0.1,2.1,0.8,4.1,2.1,5.7c0.5,0.6,0.9,1.2,1.5,1.8l0.7,0.8h0.1c0.3,0.3,0.5,0.8,0.6,1.2c0,0.3,0.1,0.7,0.2,1v0.2
	c0.2,1.9,0.4,3.7,0.5,5.6c0.4,5.3,0.4,10.7,0.1,16c-1.1,0.4-2.1,1.2-2.7,2.2c-1.3,2.4-0.5,5.4,1.8,6.8l2.9,1.8c1.5,1,3.5,1,5,0
	c1.5-0.9,2.5-2.5,2.5-4.3c0.8-7.4,0.9-14.9,0.4-22.3c-0.1-2.1-0.2-4.4-0.5-6.6l2.8,1.7l2.1,1.5c0,0.1,0.1,0.1,0.1,0.2h0.2l1.3,1.2
	c1.3,1.3,3.2,1.7,4.9,1.3c1.7-0.5,3-1.8,3.5-3.5c1.8-8.4,2.4-17.1,1.7-25.7c0.3,0.4,0.7,0.8,1.1,1.1c1.9,1.9,3.7,3.8,5.4,5.8
	c1.7,2,1.7,1.9,2.5,2.8l1.1,1.5l0.6,0.7l0.3,0.4c3.2,4.3,6.1,8.8,8.6,13.5c0.5,1.1,1.1,2.2,1.6,3.4c0.3,0.6,0.6,1.2,0.8,1.8l0.3,0.6
	l0.4,1c1.1,2.7,2.1,5.6,2.9,8.4c2,6.3,3.5,12.8,5.1,19.4c0.1,0.6,0.4,1.1,0.8,1.6C438,338.8,432.7,342.1,427.8,346z M275.5,455.8
	C275.5,455.7,275.6,455.7,275.5,455.8L275.5,455.8z M857.5,199.3c-0.3,0.1-0.1-0.5,0-0.2V199.3z"/>
</svg>
