<?xml version="1.0" encoding="utf-8"?>
<!-- Generator: Adobe Illustrator 24.2.3, SVG Export Plug-In . SVG Version: 6.00 Build 0)  -->
<svg version="1.1" id="ba8e6547-c6ad-4b17-88fc-9affaf010be0"
	 xmlns="http://www.w3.org/2000/svg" xmlns:xlink="http://www.w3.org/1999/xlink" x="0px" y="0px" viewBox="0 0 1152 864"
	 style="enable-background:new 0 0 1152 864;" xml:space="preserve">
<path d="M964.5,201.1c-2-5.1-5.1-9.6-9.2-13.2c-8.3-7.4-19.4-11.2-30.4-11.6c-26.6-0.9-48,19.2-65,37.1
	c-19.3,20.3-36.8,42.2-52.4,65.4c-7.8,11.6-15.1,23.5-21.8,35.8s-12.3,24.5-19.1,36.5c-3.1,5.7-6.8,11-11,15.9
	c-4.6,5.1-10,9.2-14.5,14.3s-7.4,11.6-10.6,17.8c-3,5.7-6.3,11.2-10.1,16.4c-3.3,4.7-7.3,8.8-11.9,12.1c-0.5,0.4-0.9,0.8-1.3,1.3
	c-2.4,0-4.8,0.3-7.1,0.8c-8,1.6-15,6.2-19.7,12.8c-4.2-1.1-8.5-1.8-12.9-2.1c-16.5-1-31.4,6-45.2,14.2l-1.4,0.7
	c-0.9-0.8-1.9-1.5-3-2.2c-3.8-2.4-8.1-3.7-12.6-3.8c-9.5-0.5-18.6,3.8-26.9,8.2c-8.2-5-17.7-7.7-27.3-7.8c-3.2,0-6.5,0.3-9.7,0.7
	l-3.3,0.4l-1.2,0.2h-0.3c-1.7,0.3-3.5,0.5-5.2,0.6c-1.7,0.2-3.5,0.3-5.2,0.2H522c-2.7-0.5-5.4-1.2-7.9-2.3l-1-0.4l-1.9-0.8l-4.1-1.9
	l-8.6-3.8c-5.6-2.3-11.6-3.2-17.6-2.5l-2.1,0.3c-0.2-0.4-0.5-0.9-0.9-1.2c-6.8-6.2-14.2-12.8-23.4-15c-1.7-0.4-3.4-0.6-5.2-0.7
	c-10.9-5.4-20.2-13.4-28.4-22.3c-4.4-4.8-8.4-9.8-12.3-15c-3.9-5.2-6.9-11-11.4-15.6c-2.1-2.4-3.9-5.1-5.3-7.9l-5.6-9.4
	c-3.7-6.1-7.5-12.1-11.4-18c-8.2-12.4-17.2-24.2-27-35.4c-9.7-11-20.3-21.3-30.3-32s-17.1-21-24.2-32.7c-1.7-3.1-3.5-6.1-5.5-9
	c-1.8-2.4-3.9-4.5-5.5-7.1c-3.5-5.3-7.5-10.3-12-14.8c-13.3-13-29.9-22.1-48-26.4c-6.1-1.5-12.4-2.8-18.6-1.3
	c-6.3,1.7-11.7,5.6-15.3,11c-1.7,2.8-3.1,5.8-4.3,8.8c-1.4,3.3-2.8,6.6-4.1,9.9c-9.8,26.1-13.8,54-15.2,81.7
	c-0.7,13.9-0.7,27.8-0.4,41.7s0.5,28.6,3.6,42.7c3.1,14.1,8.4,27.6,14.2,40.9c2.9,6.6,4.6,14,6.1,21.2s2.2,14.9,2.8,22.4
	c1.3,15.2,1.7,31,5.5,45.9c3.4,12.8,8.2,25.3,14.2,37.1c6.2,11.8,13.5,23,21.7,33.5c4.2,5.3,8.6,10.3,12.6,15.8
	c4,5.6,7.7,11.4,11,17.4c3.1,5.8,5.8,11.8,8.1,17.9c0.3,0.8,0.8,1.6,1.4,2.2v0.2c0.4,4.4,0.5,8.7,0.1,13.1c-0.1,0.3-0.1,0.5-0.1,0.8
	l-0.3,1.7l-0.9,3.7l-0.6,1.6l-0.3,0.8c-0.1,0.2-0.2,0.5-0.3,0.7l-0.6,1.2c-0.2,0.6-0.5,1.1-0.8,1.6c-1.3,2.3-2.2,4.9-2.7,7.5
	c-0.7,2.7-1.3,5.3-1.8,8s0.7,5.5,3.5,6.1s5.6-0.7,6.1-3.4s1-4.7,1.5-6.9s0.5-2,0.8-3c0.2-0.5,0.3-0.9,0.4-1.4l0.3-0.8
	c0-0.1,0.2-0.5,0.2-0.6s0.2-0.2,0.2-0.3l0.3-0.5l0.9-1.6c0.6-1.3,1.2-2.7,1.7-4c0.7-2,1.3-4.1,1.7-6.2c0.9-4.6,1.2-9.2,1-13.9
	c-0.1-1-0.1-2-0.2-3c-0.1-0.5-0.1-1-0.1-1.5c0-0.7-0.1-1.3-0.2-2c-0.1,0-0.1,0-0.1-0.1s0.1-0.2,0.1-0.4s0.3-1,0.5-1.5l1-3.1
	c0.3-0.9,0.7-1.7,1-2.6s0.3-0.9,0.5-1.3c0.1-0.1,0.1-0.2,0.1-0.2c0,0,0,0,0,0c0.1-0.2,0.2-0.5,0.3-0.7c0.8-1.8,1.6-3.6,2.6-5.4
	c1.8-3.7,3.9-7.3,6.2-10.7l3.7-5.1c0.2-0.4,0.5-0.8,0.8-1.2h0.1c0.1-0.1,0.2-0.3,0.3-0.3c0.6-0.9,1.3-1.7,2-2.6
	c2.6-3.2,5.4-6.3,8.3-9.3c6.5-6.7,13.4-13,20.6-18.8c2-1.6,1.9-5.4,0-7.1c-1.9-1.7-4.9-1.7-7.1,0C303.2,565,290.8,577,280.9,591
	c-4.5,6.3-8.3,13.2-11.3,20.3c-2-4.3-4.1-8.5-6.5-12.7c2-2.1,2.3-5.7,2.6-8.4c0.3-2.7,0.3-3.1,0.5-4.6c0-0.2,0-0.4,0-0.5
	c0-0.2,0.1-0.4,0.1-0.5l0.3-1.4l-0.3,0.3l0.2-0.3h0.1l0-0.1c0-0.1,0-0.1,0.1-0.1l0.6-0.8c0.7-1,1.3-2,1.9-3c1.2-2.3,2.3-4.7,3.2-7.1
	l1.2-3.1l0.6-1.6c0.2-0.2,0.3-0.4,0.4-0.7v-0.2c0.1-0.1,0.1-0.1,0.1-0.2c0.9-2,1.9-4,3-5.9c1-1.9,2.2-3.8,3.5-5.6l1.8-2.5l0.5-0.6
	c0.4-0.6,0.8-1.1,1.3-1.6c2.8-3.4,6-6.5,9.3-9.4l2.4-2.1l1.3-1l0.6-0.6h0.3l5.4-3.8c4.2-2.8,8.6-5.5,13.1-7.8
	c5-2.6,10.1-5.1,15.2-7.3l4-1.8l0.9-0.3l0.5-0.2l1.9-0.8l8.1-3.4c2.4-0.9,4.4-3.3,3.5-6.1c-0.9-2.8-3.6-4.6-6.2-3.5
	c-19,7.8-38.2,15.7-54.4,28.7c-7.3,5.8-13.7,12.7-19,20.4c-2.6,4-4.8,8.3-6.6,12.7l-2.6,6.5c-0.1,0.1-0.1,0.3-0.1,0.4l-0.2,0.3
	c-0.2,0.6-0.5,1.2-0.8,1.7c-0.5,1.1-1.1,2.1-1.7,3.1l-0.9,1.2c-0.2,0.4-0.4,0.7-0.7,1l-0.2,0.3c-0.5,0.8-0.8,1.7-1,2.6
	c-0.5,1.9-0.8,3.9-0.9,5.9v0.5l-1.2-1.7c-7.8-11-16.9-20.9-24.3-32.1c-7-10.5-12.9-21.8-17.6-33.5c-2.3-6-4.4-12.2-6.1-18.4
	c-1.8-7.1-3-14.3-3.6-21.6c-1.6-15-1.7-30.3-4.5-45.1c-0.7-3.9-1.6-7.6-2.6-11.4c-0.8-3.6-1.8-7.1-3-10.5c-2.5-6.5-5.5-12.9-8-19.4
	c-4.9-13-8.8-26.6-9.7-40.6c-0.9-14-1.1-27.3-1.1-40.9c0-27.2,1.8-54.5,8.5-80.9c3.2-12.7,7.2-25.6,13.4-37.2
	c2.3-4.5,6.7-7.6,11.7-8.3c4.8-0.7,10.8,1.1,15.7,2.5c16.9,4.5,32.1,13.9,43.7,27.1c4.1,4.7,7,10.4,11.2,15c1.9,2.2,3.6,4.7,4.9,7.3
	l5.4,8.8c3.6,5.8,7.5,11.3,11.6,16.7c8.8,11.2,19.3,21.1,29.1,31.3c10.1,10.4,19.4,21.4,28,33c8.2,11.3,15.7,23.2,22.8,35.2l5.7,9.5
	c1.6,2.6,3.9,4.6,5.7,7c3.8,5,7.1,10.4,10.9,15.4c8.1,10.5,17.1,20.4,27.6,28.5l4.4,3.2c-3.2,1.4-6.4,3.2-9.5,4.9
	c-8.9,5.2-17.3,11.1-25.2,17.6c-3.8,3-7.4,6.2-11.2,9.2l-0.6,0.4h-0.2l-1.4,1.1l-2.9,2.1c-2,1.4-4.1,2.7-6.2,3.9l-3.6,1.9l-1.6,0.7
	l-0.4,0.2l-0.8,0.3c-2.4,1-4.9,1.7-7.4,2.3l-1.6,0.3c0.2-1.5,0.6-3,1.1-4.5c0.2-0.8,0.5-1.6,0.8-2.3h0.1v-0.2l0.6-1.2
	c0.7-1.5,1.6-2.9,2.5-4.3c0.3-0.3,0.6-0.7,0.8-1.1h0.2c0.5-0.7,1.1-1.3,1.7-2c0.6-0.7,1.1-1.1,1.6-1.6l0.9-0.8
	c0.1-0.1,0.3-0.2,0.4-0.4l0.3-0.2l0.7-0.5l1-0.7l2.3-1.5c1.7-1.1,3.2-2.4,4.6-3.9c3-3.6,3.9-7.7,4.3-12.2c0.4-3.8,0.5-7.5,0.5-11.3
	c-0.2-8-1.2-15.9-3.1-23.6c-3.7-15.2-10.9-29.1-20.4-41.5c-9.5-12.4-21.1-24.1-31.4-36.5l-7.6-9.5l-1-1.2c0-0.2-0.3-0.5-0.4-0.7
	l-1.8-2.2l-3.7-5c-4.8-6.5-9.5-13.2-13.9-19.9l-3.3-5.1c-1.4-2.4-4.5-3.2-6.9-1.8c-2.4,1.4-3.2,4.5-1.8,6.9
	c8.9,13.7,18.4,26.9,28.7,39.8c5,6.3,10.2,12.4,15.5,18.4s10.3,11.4,15.3,17.3l3.6,4.5l0.5,0.6c0.2,0.4,0.5,0.8,0.8,1.1
	c0.6,0.7,1.1,1.5,1.7,2.3c2.3,3.1,4.4,6.3,6.3,9.7c1.9,3.3,3.6,6.6,5.1,10.1c0,0.1,0.1,0.2,0.1,0.3s0,0.1,0.1,0.1
	c0.1,0.4,0.3,0.8,0.5,1.2c0.3,1,0.7,1.9,1,2.9s1.3,3.6,1.8,5.4c1.1,3.6,2,7.3,2.7,11c0.2,0.9,0.3,1.7,0.5,2.6c0,0.4,0.1,0.9,0.2,1.3
	c0,0.2,0,0.4,0.1,0.6c0.2,1.9,0.4,3.7,0.5,5.6c0.3,3.8,0.4,7.6,0.2,11.4c-0.1,1.8-0.2,3.7-0.4,5.6v0.2c-0.1,0.4-0.2,0.8-0.2,1.2
	c-0.1,0.4-0.2,0.9-0.4,1.3c0,0.2-0.1,0.4-0.2,0.6c0,0.1,0,0.2-0.1,0.3c-0.1,0.2-0.2,0.5-0.3,0.7s-0.2,0.4-0.4,0.5
	c-0.1,0.1-0.1,0.2-0.2,0.2l-0.5,0.5l-0.4,0.4l-0.2,0.2l-0.7,0.5l-1,0.7l-2.3,1.5c-3,2.1-5.7,4.6-8,7.4c-4.6,5.6-7.7,12.3-8.9,19.4
	c0,0.5-0.1,1-0.2,1.5l-2-0.5c-2.5-0.6-5.6,0.9-6.2,3.5c-0.7,2.7,0.9,5.4,3.5,6.2c10,2.6,20.2,0.7,29.5-3.4
	c9.3-4.1,16.7-10.1,24.2-16.3l5.5-4.5l2.6-2.1l1.4-1.1l0.4-0.3l0.6-0.5c4-3,8-5.8,12.2-8.5c4.1-2.6,8.3-5.1,12.7-7.3l1.6-0.7
	l1.1-0.5c1.1-0.5,2.2-0.8,3.3-1.2l3.1-0.7h4.8l0.7,0.2c1.2,0.2,2.3,0.5,3.4,0.9l0.8,0.3l1.6,0.8l3.2,1.7l3,2.1l0.7,0.5h0.1l1.5,1.2
	l3.3,2.9c-6.7,3.5-12.6,8.6-18.3,13.6l-3.7,3.2c-0.6,0.6-1.3,1.1-2,1.6l-0.7,0.6l-0.7,0.5c-2.7,2.1-5.6,4-8.7,5.5l-2.2,1.1h-0.1
	l-1.6,0.6c-1.5,0.5-3.1,0.9-4.7,1.2h-1.3c-0.8,0.1-1.6,0.1-2.4,0h-1.5l-2.6-0.6c-2.6-0.7-5.4,0.9-6.1,3.5c-0.7,2.6,0.9,5.4,3.5,6.1
	c13.1,3.9,25.8-3.2,35.9-11.1c4.4-3.6,8.6-7.6,13.1-11.2l0.5-0.4c-0.1,0,0.1-0.1,0.3-0.2c0,0,0,0,0,0l0,0h0.1l1.6-1.2l3.6-2.4l3.6-2
	l1.7-0.8h0.1l1.3-0.5l3.8-1.1h1.2c0.5-0.1,0.5,0-0.2,0.1c-0.7,0.1,2.1-0.2,2.3-0.2h2.9c0.4-0.2,1.6,0.3,1.9,0.3l2.3,0.6
	c1.3,0.3,2.5,0.7,3.7,1.2l1.8,0.7h0.3l1,0.5l7.6,3.5c5.8,2.7,11.6,4.7,18,5.3c-8.3,0.6-16.6,2.3-24.4,4.9c-11.2,3.8-21.9,8.8-32,15
	c-9.9,5.9-19.2,12.8-29.4,18.3c-2.7,1.5-5.5,2.9-8.4,4l-0.4,0.2l-1.4,0.6l-2.1,0.6c-1.5,0.4-3,0.8-4.6,1l-2.4,0.3l-1.5-0.1
	c-1.6,0.1-3.1,0.1-4.7-0.1l-1.9-0.3l-0.4,0l-1.5-0.4c-1.5-0.4-3-0.9-4.4-1.6c-2.5-1.1-5.6,0.9-6.3,3.3c-0.7,2.6,0.7,5.3,3.3,6.2
	c11.4,5,24.5,2.8,35.5-2.1c11-4.8,19.7-11.7,29.4-17.8c9.6-6.2,19.8-11.5,30.5-15.8l0.9-0.4l0.1,0l2.1-0.7l4.2-1.5
	c2.6-0.8,5.4-1.5,8-2.1c2.7-0.6,5.4-1.1,8.3-1.4l1.9-0.2l1.2,0l4.2-0.5c3.1-0.1,6.1,0,9.2,0.2l4.4,0.5l1.3,0.2l0.3,0l2.1,0.5
	c3,0.6,6,1.5,8.9,2.5l2,0.8l0.9,0.4l0.9,0.4c1.3,0.5,2.6,1.3,3.8,1.9c0.5,0.3,1.6,0.5,2.7,0.4c-5,2.2-9.7,5.7-14.1,9.4l-6.6,5.8
	l-1.4,1.2l-0.8,0.6c-1.2,0.9-2.4,1.8-3.7,2.6l-3.9,2.1l-0.9,0.3l-1.9,0.5l-1.6,0.4h-0.3c-0.2,0.1-0.3,0.1-0.3,0h-0.3
	c-1.3,0.1-2.6,0.1-3.9,0h-0.7l-1.7-0.4l-1.1-0.5c0.1,0.1,0,0.1-0.2,0h-0.3l-0.8-0.5l-1.2-0.8l-0.6-0.6l-0.5-0.5
	c-0.1,0-0.1,0-0.1-0.1l-0.9-1.6c-1.4-2.4-4.5-3.2-6.9-1.8c-2.3,1.5-3.1,4.5-1.8,6.9c4.8,9.5,17,11.7,26.5,9.1
	c5.6-1.5,10.4-4.8,14.8-8.4c2.2-1.7,4.2-3.6,6.3-5.4l3.1-2.8l1.6-1.3l0.7-0.5l0.2-0.2h0.1c2.2-1.6,4.6-3.1,7.1-4.2l0.6-0.3h0.3
	l1.9-0.7l1.9-0.5h0.8l1-0.2h4l2.2,0.6c0.1,0,0.1,0,0.1,0.1c0.3,0,0.5,0.1,0.7,0.3l1.3,0.8l0.4,0.2l0.2,0.2c0.5,0.4,1,0.8,1.4,1.3
	c0.2,0.2,0.3,0.3,0.4,0.4c0.1,0.2,0.8,1.2,0.9,1.4c0.3,0.4,0.6,0.8,0.8,1.3l0.7,1.2c0,0.1,0,0.2,0.1,0.3l0.3,1l0.6,1.7
	c0.3,1.1,0.6,2.3,0.8,3.4l0.3,1.7c0.1,0.2,0.1,0.5,0.1,0.7c0.1,1.2,0.3,2.4,0.3,3.5c0.2,2.9,0.3,5.9,0.2,8.8c0,3.7-0.1,7.4-0.4,11
	c-0.2,1.8-0.3,3.5-0.5,5.3l-0.3,2.8c-0.1,0.2-0.1,0.5-0.1,0.7c0-0.3-0.1,0.9-0.2,1.1c-1,7.2-2.5,14.3-4.5,21.3
	c-0.4,2.7,1.4,5.3,4.1,5.7c2.3,0.4,4.6-0.9,5.5-3.1c3.7-12.9,5.8-26.1,6.3-39.5c0.4-10.9,0.7-23.3-4.8-33.1
	c-2.7-5-7.2-8.8-12.6-10.6c-4.8-1.5-10.1-1.1-15,0.5c0.2-0.2,0.3-0.4,0.4-0.6c1.5-2.2,0.8-5.3-1.5-6.8l-0.1-0.1
	c-10.5-6-22.3-8.7-34.3-9c0.7-0.1,1.4-0.1,2.1-0.3l5.6-0.7h0.3l1.3-0.2l2.8-0.3c3.5-0.4,7-0.5,10.5-0.3h1.5l2.2,0.4l4.8,1.1l4.5,1.6
	c0.1,0.1,0.3,0.1,0.3,0.2l1.4,0.6l2.2,1.1l4.2,2.6l0.6,0.5l0.9,0.7l1.7,1.3c1.9,2,5.1,2,7.1,0c1.4-1.6,1.7-3.9,0.9-5.8
	c0.3-0.1,0.6-0.2,0.8-0.4l2.8-1.3l0.7-0.3l1.4-0.5c2-0.8,4-1.4,6.1-1.9c0.7-0.3,1.5-0.4,2.2-0.5c-0.1,0,0,0,0.4,0h5.5l1.6,0.4
	l1.4,0.4l0.7,0.3l2.1,1.2c0.4,0.2,0.8,0.4,1.1,0.7l0.3,0.2l1,0.9l0.4,0.9c0.6,0.9,1.4,1.6,2.4,2l0.7,0.8l0.4,0.5
	c2.4,2.6,4.1,5.8,6.2,8.7c2.3,3.1,4.9,6,7.8,8.7c5.8,5.3,12.6,9.5,20,12.3c8,3.1,16.6,4.4,25.1,3.8c2.6-0.2,5.1-2.2,5-5
	s-2.3-5.2-5-5h-5.7l-2.5-0.2h-2c-3.6-0.5-7.2-1.4-10.6-2.6l-2.5-0.9h-0.4l-1.4-0.6c-1.7-0.8-3.4-1.7-5-2.7c-1.5-0.9-3-1.9-4.5-3
	h-0.2l-0.2-0.2l-1-0.8l-2.2-1.9c-1.3-1.2-2.6-2.5-3.8-3.9c-0.6-0.7-1.2-1.3-1.7-2l-0.2-0.3h-0.1l-0.9-1.2c-1.8-2.5-3.5-5-5.4-7.5
	c4.6-2.8,9.4-5.4,14.4-7.6l1-0.4l0.9-0.4l2.6-1c1.7-0.6,3.5-1.2,5.3-1.6c1.8-0.5,3.6-0.9,5.5-1.2h1.8l2.9-0.2h5.7l2.6,0.3h0.5
	l1.7,0.3c3.7,0.7,7.4,1.7,11,2.9l2.5,0.9l1.2,0.6h0.1l0.6,0.2c1.8,0.8,3.5,1.7,5.2,2.6c3.4,1.7,6.7,3.7,9.9,5.9l4.8,3.4l2.2,1.6
	l0.4,0.3l1.3,1c3,2.4,6,4.9,8.9,7.5c5.8,5,11.4,10.2,17.2,15.3c11.6,10.4,23.4,20.6,36,29.9c6.1,4.5,12.4,8.8,18.9,12.8
	c3,1.9,6.2,3.6,9.3,5.4c1.3,0.7,2.6,1.5,3.8,2.4l0.3,0.2l0.8,0.8l0.8,0.7c0.1,0.2,0.4,0.7,0.7,0.8l0.2,0.3l0.5,0.9
	c0,0.1,0,0.1,0.1,0.2l0.3,1.1c0.7,2.6,3.5,4.2,6.1,3.5c2.7-0.8,4.2-3.5,3.5-6.2c-1.8-7.3-8.5-11.4-14.6-14.8
	c-6.9-3.8-13.5-8-19.9-12.5l-9.3-6.9l-0.6-0.5l-1.1-0.8l-2.5-1.9l-4.5-3.7c-6.1-5-12-10.2-17.9-15.4c-12-10.6-23.7-21.9-36.7-31.3
	c-6.7-5-14-9.1-21.7-12.3l0.8-0.8l1.6-1.5h0.2l1.1-0.7l2-1.2c0.7-0.5,1.4-0.9,2.2-1.1l1.1-0.3l2.4-0.7l2.3-0.5h1.3
	c1.6-0.1,3.2-0.1,4.8,0.1h1.1l2.4,0.6l2.2,0.7h0.1l1.2,0.6l2.2,1.3l1.1,0.7h0.1l0.5,0.5c1.6,1.3,3.1,2.8,4.5,4.3
	c3.1,3.2,5.8,6.7,8.7,10s6,7.1,9.1,10.6c2.6,3.2,5.4,6.2,8.5,9c7.6,6.5,18.1,11,28,7.4c2.5-0.9,4.4-3.4,3.5-6.1s-3.5-4.5-6.2-3.5
	l-2.7,0.8h-4.1c-1.1-0.1-2.1-0.4-3.1-0.7l-1.3-0.5l-0.5-0.2h-0.1l-2.7-1.5c-0.9-0.5-1.7-1.1-2.5-1.7h-0.1c-0.1-0.2-0.3-0.3-0.5-0.4
	l-1.3-1.2c-3-2.9-5.9-5.9-8.6-9.1l-9.3-11c-5.5-6.5-11-13.9-18.9-17.7l-1.8-0.8c7.2-6.8,12.8-15.4,17.6-23.9
	c3.2-5.8,5.5-12.1,9.5-17.4s9.1-9.1,13.6-13.7c9.3-9.5,15.7-21.4,21.6-33.2c5.9-11.8,12.3-24,19.1-35.6
	c13.8-23.4,29.6-45.6,47.1-66.3c8.6-10.2,17.6-20.1,27.2-29.5c9.6-9.4,18.3-16.6,29.6-21.4s20.3-5.3,30.6-2.1
	c8.4,2.6,16.6,8.4,19.6,16.6c2.3,6.3,2,13,1.4,19.6c-0.6,6.6-1.3,15.1-2,22.7l-4.2,46.3c-2.7,30.1-5,60.4-8.3,90.5
	c-1.5,14.6-3.5,29.2-6.4,43.6c-1.4,7.4-3.1,14.8-5.1,22.1c-2,7.3-4.3,14.5-4.8,22.1c-0.5,7.6,1.1,13.3,3.6,19.5s5.1,11.3,6.7,17.3
	c3.4,13.3-5,25.5-11.3,36.6L902.4,586l-11.2,20c-3.2,5.7-6.2,11.6-9.9,16.9s-6.5,7.5-11.2,8.8c-6.2,1.7-3.6,11.4,2.6,9.6
	c13-3.5,19.3-16.3,25.4-27.1l23-41.2l11.4-20.4c3.7-6.5,7.6-13,10.5-20s4.7-13.6,3.8-20.7s-3.4-12.8-6-19s-5-11.5-5-17.7
	s2.4-14.5,4.3-21.6c4-14.8,7-29.8,9.1-44.9c4.4-30.7,6.6-61.9,9.4-92.8l4.2-47.2c1.4-15.4,3-30.9,4.1-46.3
	C967.4,214.9,967.2,207.6,964.5,201.1z M583.4,489.1l-0.3-0.2C583.3,489,583.4,489,583.4,489.1z M710.5,439h0.3
	C711.6,439.1,710.7,439,710.5,439z"/>
</svg>
