<?xml version="1.0" encoding="utf-8"?>
<!-- Generator: Adobe Illustrator 24.2.3, SVG Export Plug-In . SVG Version: 6.00 Build 0)  -->
<svg version="1.1" id="bae88865-646a-426e-8fd4-1dd6a67ec650"
	 xmlns="http://www.w3.org/2000/svg" xmlns:xlink="http://www.w3.org/1999/xlink" x="0px" y="0px" viewBox="0 0 1152 864"
	 style="enable-background:new 0 0 1152 864;" xml:space="preserve">
<path d="M913.8,550.9c-1.3-3.9-3.8-7.3-7.2-9.7c-2.7-1.7-5.7-3-8.9-3.6l-8.8-1.6l-2.2-0.5h-0.1c-0.1-0.1-0.1-0.3-0.2-0.4l0.6-0.5
	l2.9-2.4l1.4-1l0.9-0.7c2.1-1.5,4.3-3.1,6.5-4.5c1.6-1.1,2.9-2.5,3.7-4.3c0.6-1.3,0.8-2.8,0.7-4.2c-0.1-2.5-1.3-5.1-2.1-7.4
	c-0.9-2.3-1.6-4.6-2.2-6.9c-0.2-0.6-0.3-1.4-0.5-2v-0.5c-0.1-0.4-0.1-0.8-0.2-1.2s-0.5-2.5-0.8-3.8s-1.2-4.6-1.8-6.9
	c-0.1-0.6-0.3-1.2-0.4-1.8c-0.2-0.5-0.2-1-0.3-1.5c0-0.1,0-0.2,0-0.4c-0.1-0.9-0.1-0.8-0.1-1.2v-3c0.2-0.5,0.4-1.3,0.5-1.5l0.1-0.3
	c-0.1,0.1,0.2-0.6,0.3-0.8l1.2-1.8c1.1-1.8,1-4-0.4-5.6l-0.3-0.3l-0.2-0.2l-0.3-0.3h-0.2l-0.3-0.3h-0.2l-0.3-0.2
	c12.6-18.4,13.6-42,8.9-63.6c-1.8-7.9-4.3-15.5-7.4-23c1.2-1.3,1.6-3,1.2-4.7c-2.2-10.3-4.2-20.6-6.7-30.8
	c-0.9-3.6-1.8-7.2-2.5-10.9c-0.2-0.9-0.3-1.8-0.5-2.7c0-0.3,0-0.6-0.1-0.9c0-0.1,0-0.2-0.1-0.3V332c-0.2-1.8-0.3-3.5-0.2-5.3
	c0-0.4,0.1-0.9,0.1-1.4c0-0.2,0.1-0.3,0.1-0.5l0.6-2.1l0.2-0.4c0.2-0.2,0.3-0.5,0.4-0.7c0,0.1,0.1-0.2,0.2-0.2v-0.2
	c0.1-0.2,0.2-0.3,0.2-0.2s1.5-1.2,0.2-0.3c1.3-0.8,2.1-2.1,2.4-3.6c0.2-1.5-0.3-3.1-1.4-4.2c-1.9-1.9-3.8-3.8-5.5-5.9l-2.4-2.9
	l-1.5-1.8l-0.9-1l-0.7-0.9l-1.3-1.9l-0.5-1.1l-0.3-0.6l-0.3-1.3v-1.1c0-0.1,0.1-0.8,0.1-0.9c0-0.2,0-0.3,0.1-0.5l0.3-1
	c0-0.2,0.3-0.7,0.3-1c0.1-0.1,0.2-0.2,0.2-0.4c0.4-0.7,0.8-1.4,1.3-2.1l0.6-0.9h0.1l0.2-0.3c1.3-1.5,2.6-2.9,4-4.2l2.2-1.8l1.2-1
	c0.1-0.2,0.3-0.3,0.4-0.4h0.1c1.3-0.8,2.2-2.2,2.4-3.7s-0.3-3.1-1.4-4.2c-1.6-1.3-3.1-2.7-4.5-4.2c-0.8-0.7-1.5-1.5-2.1-2.3
	l-0.7-0.7c0-0.1,0-0.2-0.1-0.3l-0.7-0.9c-2.5-3.5-4.6-7.3-6.3-11.2c-0.1-0.1-0.2-0.5-0.4-0.7l-0.5-1.4c-0.4-1-0.8-2-1.1-3
	c-0.7-2-1.4-4.1-1.9-6.2c-0.5-2-0.9-3.9-1.3-5.9c-0.1-0.4-0.1-0.8-0.2-1.3c-0.1-0.3-0.1-0.8-0.1-1.1v-0.1c-0.1-0.8-0.2-1.5-0.3-2.3
	c-0.1-1-0.2-3.8-0.2-5.7c0-1.9,0.1-1.9,0.2-2.8v-0.4c2.5-6.8,4.6-13.7,6.4-20.7c3.3-13.7-0.7-28.5-5.1-41.5
	c-1.9-5.5-5.2-10.2-11.7-10.3c-6.5-0.1-10,3.9-11.8,9.3c-4.3,12.4-8.8,24.8-13.8,36.9c-2.8,6.6-5.6,13.1-8.6,19.5
	c-3,6.4-5.9,13.4-9.5,19.6c-5.7,9.7-15,15.7-23.6,22.5c-4.7,3.4-8.9,7.4-12.6,11.9c-4,4.9-6.9,10.5-10.2,16
	c-6.2,10.3-13.2,19.8-22.7,27.4c-9.5,7.6-20.5,11.7-25.2,22.8c-4.7,11.1,0.7,22.9-0.7,34.6c-1.1,9.2-12.2,12-20.3,12.8l-2.2,0.2
	c-13.8,0.9-27.3-3.3-40.2-7.9c-12.9-4.6-27.2-10.2-41.4-13.5c-15-3.5-30.5-5.1-45.9-4.7c-15.5,0.5-30.4,3.8-45.4,8
	c-14.8,4.2-30,6.3-45.4,6.5c-4.9,0-9.9,0.1-14.9-0.3l-0.7-0.2l-2.7-0.2L458,370c-4.7-0.9-9.8-2.1-13.6-5.3
	c-3.8-3.2-4.3-9.4-3.2-14.9s2.4-13.2,0-19.7c-4.2-11.4-14.2-18.9-22.5-27.3c-9.9-10.1-16.6-22.7-23.4-34.9
	c-13.9-25.2-31.3-47.7-49.2-70.2c-14.5-18.2-28.8-36.6-43.5-54.7c-5.4-6.6-16.4-6.1-20.3,1.9c-1.6,3.1-1.6,6.9-1.7,10.3
	c-0.2,3.9,0,7.8,0.3,11.7c0.8,7.7,2.3,15.3,4.4,22.7c2.5,8.9,5.7,17.7,8.7,26.6c-1.4,0.5-2.5,1.7-2.8,3.2c-1,3.7-2.1,7.4-3.5,11
	l-1,2.8c-0.2,0.2-0.3,0.5-0.4,0.8c0,0.1-0.1,0.2-0.1,0.3c-0.2,0.3-0.3,0.5-0.4,0.8l-2.4,5.2c-1.8,3.4-3.7,6.8-5.8,10l-3.3,4.8
	l-0.8,1c0,0.1-0.6,0.8-0.7,1c-0.5,0.7-1.1,1.4-1.7,2c-2.2,2.8-1.7,5.8,1.1,7.9h0.2l0.9,0.7l2.1,1.8c1.3,1.2,2.5,2.4,3.7,3.7l0.8,0.9
	l0.4,0.5c0.4,0.7,0.9,1.3,1.3,1.9c0.3,0.7,0.6,1.4,1,2v0.2c0.1,0.4,0.2,0.9,0.4,1.3c0,0.3,0,0.7,0.1,1h0.1v1.1
	c0,0.1-0.1,0.3-0.1,0.4c-0.1,0.7-0.3,1.3-0.5,2c-0.1,0.2-0.2,0.4-0.4,0.6c-0.2,0.5-0.5,0.9-0.7,1.3l-0.7,1l-0.5,0.6l-1.9,2.2
	c-1.3,1.6-2.7,3.2-4.1,4.7c-3.2,3.5-6.4,6.9-9.8,10.2c-1.1,1.1-1.6,2.7-1.3,4.2c0.2,1.5,1,2.8,2.3,3.6c0.1,0.1,0.2,0.1,0.2,0.2
	c0.3,0.2,0.6,0.5,0.8,0.8l0.7,0.7l0.2,0.4c0.4,0.6,0.8,1.2,1.1,1.9c0.1,0.1,0.1,0.1,0.1,0.2l0.2,0.5h0.1c0.2,0.5,0.1,0.5,0,0.3
	l0.2,0.4c0.2,0.7,0.4,1.5,0.5,2.2l0.3,1.1v0.4c0.2,1.7,0.2,3.3,0.2,5c-0.1,1.7-0.2,3.4-0.4,5.1v0.2h-0.1c0,0.4-0.1,0.8-0.1,1.2
	s-0.3,1.7-0.5,2.6c-0.9,4.4-1.9,8.7-2.8,13.1l-3.5,16.1c-0.3,1.8,0.2,3.6,1.4,4.9c-7.9,19.4-12.5,40.1-8.9,61.1
	c1.6,9,5,17.5,10.1,25.1l-9.7-0.4c-1.1,0-2.3,0.4-3.1,1.2c-0.6,0.5-1.1,1.2-1.5,1.9c-0.1,0.2-0.1,0.5-0.2,0.7
	c-0.1,0.2-0.1,0.5-0.1,0.7v0.2c0,1.4,0.5,2.8,1.4,3.8l0.4,0.4c0.2,0.3,0.4,0.7,0.7,1l1.9,2.7c1.2,1.7,2.3,3.4,3.3,5.2l1.3,2.6v0.2
	l0.2,0.5l0.6,1.6c0.2,0.9,0.5,1.8,0.7,2.7c0,0.1,0,0.3,0.1,0.4v0.2c0,0.5,0.1,1.1,0.1,1.6s0,0.9-0.1,1.4v0.4v0.4
	c-0.1,0.6,0-0.4,0-0.4s-0.3,1.4-0.3,1.6l-0.5,1.5c-0.1,0.3-0.2,0.4-0.2,0.3c-0.2,0.3-0.4,0.6-0.5,1l-1.5,2.3l-0.5,0.7l-0.4,0.4
	l-1.8,2.1c-1.1,1.3-2.3,2.6-3.3,3.9c-2.9,3.5-5.4,7.3-6.1,11.8c-0.5,2.4,0.6,5.7,3.4,6.1c1.3,0.3,2.6,0.5,3.8,0.9l1.6,0.6h0.2
	l0.9,0.4l1.5,0.9c-7.6,8.4-11.7,20.2-11.8,31.4c0.1,2.3,1.5,4.2,3.7,4.9c1.5,0.3,3,0.6,4.4,1.1l1.9,0.6c0.1,0.1,0.8,0.4,0.7,0.4
	l0.3,0.1c0,0.4,0,0.9,0.1,1.3c-0.5,1-0.9,2.2-1.1,3.3c-0.7,4.4,0.2,8.8,2.5,12.6c3,4.9,8.5,7.1,13.7,8.8l3.9,1.2l2,0.8h0.2l1.1,0.6
	c1.4,0.9,2.6,1.9,3.8,3l0.9,0.6h0.3l1.6,1.4c1,1,2,2,2.9,3.1l0.5,0.6h0.1c0.5,0.6,0.9,1.2,1.3,1.9c0.7,1,1.3,2,1.9,3.1
	c0.3,0.6,0.6,1.1,0.8,1.6l0.4,0.9c0.1,0.1,0.7,1.6,0.9,2.3l0.5,1.4c0.4,1.2,0.7,2.5,1,3.8s0.6,2.4,0.8,3.6l0.3,1.8
	c0,0.4,0.1,0.7,0.1,1.1c1.2,10.5,0.2,21.1-0.3,31.6c-0.8,14.9-0.3,29.9,1.3,44.8c0.3,2.6,2.1,5.1,5,5c2.9-0.1,5.3-2.2,5-5
	c-1.5-13.4-2-26.9-1.5-40.4c0.3-10.1,1.4-20.3,0.9-30.5c-0.4-8.2-1.8-17-5.5-24.9c-0.6-1.2-2.3-4.3-3-5.4c-3.2-5-7.5-9.3-12.6-12.4
	c-2.7-1.6-5.6-2.8-8.6-3.8l-3.9-1.2l-1.9-0.7l-0.8-0.3h-0.1c0-0.1-0.1-0.1-0.2-0.1c-0.7-0.4-1.4-0.8-2.1-1.2l-1-0.6l-0.6-0.7h-0.1
	c-0.3-0.4-0.5-0.8-0.7-1.2c0,0.2,0,0.2-0.1-0.3c-0.1,0-0.1,0-0.1-0.1s0-0.1-0.1-0.2l0.1,0.1l-0.6-2.1v-0.3c-0.1-0.3-0.1-0.4,0-0.4
	c-0.1-0.4-0.1-0.7,0-1.1v-0.3c0-0.1,0.1-0.2,0.1-0.3h0.5c2,0,3.8-1.3,4.6-3.1c0.2-0.5,0.3-1.1,0.3-1.7c0.1-1.4-0.4-2.7-1.4-3.7
	c-3.3-4.3-8.5-6.9-13.7-8.4v-0.2c0.1-0.3,0.1-0.6,0.1-0.9c0.1-0.1,0.1-0.1,0.1-0.2c0.1-0.7,0.2-1.4,0.4-2.1c0.3-1.4,0.6-2.8,1.1-4.2
	c0.2-0.7,0.4-1.4,0.7-2.1c0.1-0.3,0.2-0.7,0.4-1c0-0.1,0-0.3,0.1-0.4c1-2.7,2.5-5.3,4.3-7.6l0.6-0.8c0-0.1,0.1-0.2,0.2-0.3l1.3-1.5
	c1.1-1.1,2.2-2.2,3.4-3.2s1.8-5.3,0-7.1c-3.2-3.1-7-5.5-11.2-7.1l1.1-1.6l0.4-0.5c0-0.1,0-0.2,0.1-0.2h0.1c0-0.1,0-0.1,0.1-0.1h-0.1
	c0.2-0.1,0.3-0.3,0.5-0.5c2.4-3,5.2-5.8,7.4-9c2.7-3.8,4.2-8.3,4.3-12.9c-0.1-4.9-1.4-9.6-3.7-13.9c-0.6-1.4-1.4-2.7-2.2-4
	c23.3,0.6,46.8-0.6,69.3-7.1l0.5,0.4l3.2,2.2c-9.8,15.1-19.3,30.4-28.5,45.9c-2.5,4.2,2.6,9.6,6.9,6.9c0-0.1,0.2-0.2,0.4-0.3
	c0.2-0.1-0.2,0.1,0.1,0h0.8l0.6,0.2c0.4,0.1,0.7,0.3,1,0.6h0.2l0.3,0.3c0.3,0.2,0.5,0.4,0.7,0.7l0.1,0.1c0.3,0.4,0.8,1.1,0.9,1.3
	l0.2,0.3c0,0.1,0.1,0.1,0.1,0.3c0.1,0.2,0.2,0.4,0.2,0.6c0.1,0.2,0.1,0.5,0.2,0.7c0,0.9,0,1.7-0.1,2.6v0.4c-0.1,0.3-0.1,0.5-0.2,0.8
	c-0.2,1-0.5,2-0.8,2.9c-0.2,0.7-0.5,1.4-0.7,2.1s-0.4,0.9-0.4,0.8c-0.1,0.3-0.2,0.6-0.4,0.8l-2.1,4.9c-5.6,12.7-7.7,26.8-5.9,40.6
	c0.3,2.4,1.1,7.1,2,9.9c1.2,4.5,2.7,8.8,4.7,13c1.1,2.3,4.8,3.1,6.9,1.8c2.3-1.5,3.1-4.5,1.8-6.9l-0.6-1.1c-0.1-0.2-0.1-0.5-0.2-0.7
	l-0.9-2.1c-0.6-1.8-1.2-3.5-1.7-5.3s-0.8-3-1.1-4.6c-0.2-0.8-0.4-1.7-0.5-2.5c-0.4-3.4-1-9.2-1-12.3l0.3-5.1l0.3-2.6
	c0-0.3,0-0.5,0.1-0.8c0-0.4,0.1-0.8,0.2-1.2c0.5-3.4,1.3-6.7,2.4-10c0.5-1.6,1.1-3.2,1.7-4.8c0.1-0.1,0.1-0.1,0.1-0.2
	c0-0.1,0.1-0.1,0.1-0.2l0.5-1.2c0.4-0.8,0.8-1.6,1.1-2.4c3.3-7.1,6.4-15.1,2.9-22.8c-1.7-3.5-4.5-6.3-8-7.9
	c8.6-14.3,17.4-28.5,26.6-42.5c1.5-2.4,0.3-5.4-1.8-6.8l-0.9-0.6l1.8-1.1l7.9-3.4c1.1-0.6,1.9-1.7,2.2-2.9l24.6-15.3
	c2.3-1.5,3.1-4.5,1.8-6.9l-6.8-11.5c9.8-0.5,19.6-5.3,27.9-9.8c6.7-3.6,13.1-7.6,19.6-11.4c3.1-1.9,6.3-3.7,9.5-5.4l4.9-2.5l2.2-1.1
	l1.2-0.5c0.4-0.2,1.9-0.7,0.4-0.2c3.4-1.3,6.8-2.4,10.3-3.3l1.1-0.2h3.8c7.2,0.7,14.4,0.9,21.6,0.6c15.2-0.3,30.4-2.5,45.1-6.6
	c14.7-4.2,29.2-7.5,44.5-7.8c14.9-0.3,29.8,1.3,44.3,4.9c13.8,3.4,26.9,8.6,40.2,13.3s27,8.7,41,7.9h0.8l2.2-0.2h3.9l1.2,0.2
	c3.1,0.6,6.1,1.4,9,2.6l2.1,0.8h0.3l1.3,0.6l4.8,2.3c3.3,1.7,6.5,3.5,9.6,5.4c12.7,7.3,25.2,16.1,39.3,20.5c3.4,1.1,7,1.7,10.6,2
	c-2.3,3.8-4.6,7.7-6.8,11.6c-1.4,2.4-0.6,5.4,1.8,6.8l24.6,15.3c0.3,1.2,1.1,2.2,2.2,2.8c3.1,1.7,6.2,3.2,9.5,4.6l-0.7,0.5
	c-2.2,1.5-3.4,4.5-1.8,6.9c9.1,14,18,28.1,26.6,42.5c-3.3,1.5-6,4-7.7,7.1c-4.2,8-0.6,16.6,2.8,24.2c0.8,1.6,1.5,3.2,2.2,4.9
	c0,0.1,0.1,0.1,0.1,0.2s0.3,0.8,0.5,1.3s0.7,1.5,1,2.3c1.3,3.4,2.5,6.8,3.6,10.2c1.2,3.4,2.1,7,2.9,10.5c0.4,1.8,0.8,3.7,1.1,5.5
	c0.1,0.8,0.2,1,0.2,1.1c0,0,0,0,0,0.1v0.2c0.2,1,0.3,1.9,0.3,2.9c0.4,3.9,0.4,7.8-0.1,11.6v0.3l-0.3,1.5l-0.6,2.7l-0.8,2.6
	c-0.2,0.4-0.4,0.9-0.5,1.4c-0.1,0-0.1,0-0.1,0.1c-0.1,0.1-0.2,0.3-0.2,0.4c-1.1,2.4-0.7,5.5,1.8,6.8s5.7,0.8,6.8-1.8
	c6.1-13.1,4.8-28,1.2-41.7c-1.7-6.7-4-13.2-6.6-19.6l-4.5-10.2c-0.2-0.4-0.4-0.8-0.5-1.2c-0.1,0-0.1-0.2-0.1-0.3s-0.1-0.1-0.1-0.2
	c-0.4-0.8-0.7-1.7-1-2.6c-0.3-0.8-0.5-1.7-0.7-2.5l-0.3-1.2V534c-0.1-0.5-0.1-1,0-1.5v-0.4h-0.1c0-0.1,0.1-0.1,0.1-0.2
	c0.1-0.3,0.2-0.6,0.2-0.9c0-0.1,0.1-0.3,0.1-0.4l1.1-1.9l0.2-0.2c0.3-0.2,0.6-0.5,0.8-0.8h0.2l0.9-0.6h0.2l0.3-0.1
	c-0.1,0-0.2,0.1-0.3,0.1h0.2c0.1-0.1,0.2-0.1,0.2-0.1l0.5-0.2h0.7l0.5,0.2c4.3,2.7,9.3-2.6,6.8-6.8c-9.1-15.5-18.5-30.8-28.4-46
	l2.8-1.9c15.6,4.8,32.2,6.5,48.6,6.7h9.6c0.4,1.2,1.2,2.2,2.3,2.9c-0.1,1.7,0,3.4,0.3,5c0.6,4.7,2.2,9.1,3.1,13.7
	c0.1,0.3,0.1,0.5,0.2,0.8c0,0,0.2,1.2,0.2,1.6c0.1,0.3,0.2,0.6,0.2,0.9l1,3.7l2.4,6.7l0.9,3c0,0.1-0.1,0.1-0.2,0.2l-1.5,1L888,521
	c-4.7,3.4-9.2,7.1-13.5,11.1l-0.5,0.6l-0.2,0.3l-0.3,0.6c0,0.1,0,0.1-0.1,0.1c-0.1,0.3-0.2,0.6-0.2,0.9c-0.2,0.8-0.2,1.5,0,2.3
	c0.1,0.1,0.1,0.3,0.2,0.5h0.1l0.3,0.6c0.2,0.4,0.4,0.7,0.7,1c1.5,1.4,3.5,3.1,5.6,3.6l0.6,0.5c1.6,1,3.3,1.6,5.1,2
	c2.7,0.6,5.4,1,8.2,1.5l4.1,1l0.8,0.3l0.3,0.2l-0.2-0.2c0.5,0.3,1.1,0.6,1.7,0.9l0.5,0.3c-8.3,3.5-15.4,9.3-22,15.4
	c-0.5,0.4-1,0.8-1.4,1.3c-1.6,1.5-1.9,4-0.7,5.9c0.5,0.9,1.2,1.6,2.1,2c0.6,0.4,1.4,0.6,2.1,0.6h0.8l0.9,0.3h0.2
	c0.5,0.2,0.4,0.1-0.2-0.2c0.6,0.2,1.2,0.6,1.7,1l2.1,1.3h0.1l0.6,0.5l1.5,1.4l1.4,1.6c0.1,0,0.1,0,0.1,0.1c0.3,0.3,0.6,0.7,0.8,1.1
	l0.7,1.3c0.1,0.2,0.3,0.5,0.4,0.8v0.1c-0.2,0.2-0.3,0.4-0.5,0.5h-0.1c0,0.1,0,0.1-0.1,0.1l-0.3,0.2h-0.1l-2.3,1.2
	c-0.4,0.2-2,0.8-0.4,0.2l-1.7,0.7l-5.9,1.9c-1.9,0.6-3.9,1.3-5.8,2.1c-2.3,1.2-4.5,2.6-6.5,4.3c-17.4,13.8-16.9,38.9-15.8,59
	c0.9,16.6,0.6,33.2-0.9,49.7c-0.3,2.6,2.5,5.1,5,5s4.7-2.2,5-5c1.5-15.6,1.9-31.3,1-47c-0.3-5.1-0.5-10.2-0.6-15.3
	c0-2.7,0.1-5.4,0.2-8.1l0.3-3.8c0.1-0.6,0.2-1.3,0.2-1.9c0.1-0.4,0.1-0.8,0.2-1.2c0.4-2.5,0.9-5,1.6-7.4c0.3-1.2,0.7-2.4,1.2-3.5
	l0.3-0.9c0.3-0.6,0.5-1.3,0.8-2l1.8-3.1l1-1.5c0.2-0.2,0.4-0.5,0.5-0.8c0.1,0,0.1,0,0.1-0.1h0.1l2.5-2.7c0.3-0.4,0.7-0.8,1.1-1.1
	l0.7-0.6l0.3-0.3c0.2-0.3,1.3-0.9,1.6-1.1l1.6-1l1.3-0.7h0.1l5.4-1.8c4.6-1.4,9.3-2.9,13-5.9c2.3-1.9,3.8-4.6,4.1-7.5
	s-1.1-5.9-2.7-8.3c-2.3-3.6-5.3-6.6-8.9-8.9l0.4-0.3l1.4-1.2l0.8-0.6l0.4-0.3l0.6-0.5l0.8-0.6l1.6-1.1c2.2-1.5,4.4-2.8,6.8-4
	l0.9-0.4h0.1l1.9-0.7c1.3-0.5,2.6-0.8,3.9-1.1C912.6,555.5,914,553.3,913.8,550.9z M322.5,518.5c0.1,0.1,0.1,0.2,0.1,0.3
	C322.5,518.7,322.5,518.6,322.5,518.5z M281.1,302.7c3.3-3.3,6.3-6.9,9-10.7c2.7-3.9,3.7-8.7,2.8-13.3c-0.7-4.1-3-7.7-5.6-10.9
	c-1.7-2.1-3.6-4-5.7-5.8c7.2-9.6,12.8-20.2,16.7-31.6c0.3,0.9,0.5,1.7,0.7,2.6c3.9,14.7,4.8,30.1,2.9,45.2
	c-2.9,22.6-13.2,42.7-23.5,62.7l0.3-1.6c1.5-7.6,2.5-15.8,0.1-23.3c-0.8-2.5-2-4.9-3.7-6.9C277.2,307,279.2,304.9,281.1,302.7z
	 M424.7,383.1c-6.5,3.7-12.8,7.7-19.3,11.4c-3.1,1.7-6.3,3.5-9.6,5l-2.2,1.1l-1.1,0.5l-0.5,0.2l-4.4,1.6c-1.7,0.6-3.4,1.1-5.1,1.5
	l-2.1,0.3h-1.7c-1.5,0.1-3.1,0.1-4.6-0.1H374l-1.1-0.2l-2.4-0.7c-1.9-0.5-4,0.2-5.2,1.8c-1.2,1.6-1.4,3.8-0.4,5.6
	c3.2,5.3,6.3,10.7,9.5,16.1L344.2,446l-0.9,0.3c-3,1.2-6,2.2-9,3.1c-3,0.9-7.9,2.2-11.9,3.1c6.4-4.6,12.5-9.9,16.5-16.6
	c2.4-3.9,3.6-8.3,3.7-12.9c0-2.5-0.4-4.9-1-7.3V415c-0.1,0-0.1-0.1,0-0.3v-0.2c0,0.1,0,0.1,0.1,0.1v-0.2l0.4-0.5
	c-0.1,0.1-0.2,0,0-0.2h0.2c0.1-0.2,0.3-0.4,0.5-0.5v-0.1c-0.1,0.1-0.2,0,0.3-0.2h0.1l2.6-1.5h0.5l1.5-0.5l3.2-0.9
	c2.6-0.8,4.1-3.5,3.4-6.1c-0.8-4.1-2.7-8-5.5-11.2c15.7-13.1,26.6-31,31-51c2.4-12.2,2.6-24.8,0.3-37.1c-2.1-12.8-6.3-25.1-11-37.1
	c-5.4-14.3-11.2-28.4-16.9-42.6c-1-2.5-3.4-4.4-6.2-3.5c-2.8,0.9-4.5,3.5-3.5,6.1l15,37.4c4.6,11.8,9,23.6,11.7,36
	c0.7,3,1.3,6,1.7,9.1c0,0.1,0.1,0.7,0.1,0.9c0.1,0.2,0.1,0.3,0.1,0.5l0.3,2.3l0.3,4.8c0.2,3.1,0.2,6.1,0,9.2l-0.3,3.9
	c-0.1,0.6-0.2,1.1-0.2,1.7c-0.1,0.4-0.1,0.8-0.2,1.2c-0.8,5.2-2.1,10.3-3.9,15.3c-0.4,1.2-0.9,2.3-1.3,3.4l-0.3,0.8
	c-0.1,0.1-0.1,0.1-0.1,0.2l-0.9,1.9c-1.1,2.4-2.3,4.8-3.6,7.1c-1.3,2.3-3.1,4.9-4.8,7.3l-1.3,1.8h-0.1l-0.8,1l-2.8,3.3
	c-2,2.2-4.1,4.3-6.3,6.3l-3.2,2.7l-0.7,0.6l-0.3,0.3h-0.1c-0.6,0.5-1.2,1-1.9,1.4c-3.2,2.3-3.2,6.4,0,8.6l0.2,0.2l0.6,0.5l1.3,1.2
	c0.2,0.3,1,0.9,1.1,1.3l0.6,0.8c0.2,0.5,0.5,0.9,0.7,1.4c-2.5,0.9-4.8,2.2-6.8,3.8c-1.8,1.5-3.3,3.5-4.1,5.7
	c-0.9,2.6-0.9,5.3-0.2,7.9l0.3,1.7c0.1,0.2,0.1,0.4,0.1,0.6c-0.1,0,0.1,0.1,0.1,0.2c0,0.1,0,0.4-0.1,0.2c0.1,0.3,0.1,0.7,0.1,1
	c0,0.5,0,1,0,1.5c0-0.1,0.1-0.1,0,0v0.1c0,0.2,0,0.3-0.1,0.5c0,0.4-0.1,0.8-0.2,1.2c-0.1,0.5-0.3,0.9-0.4,1.4
	c-0.1,0.5-0.1,0.4-0.2,0.6c-0.1,0.2-0.1,0.3-0.2,0.5c-0.7,1.7-1.6,3.3-2.8,4.7l-0.3,0.4c0,0.1,0,0.1-0.1,0.2l-1,1.2
	c-0.7,0.8-1.4,1.6-2.2,2.3c-1.7,1.8-3.5,3.4-5.4,4.9l-0.6,0.5H319c-0.5,0.4-1,0.8-1.5,1.2l-3.1,2.1c-1.6,1.1-2.6,2.9-2.5,4.9
	l-0.3-0.2l-0.7-0.3l-1.4-0.8l-0.9-0.7l-0.6-0.5l-1.1-1.2l-0.8-0.9c-0.6-0.7-1-1.5-1.5-2.2c-1.1-1.9-2.1-3.8-3-5.8
	c-4-8.9-7.6-18-11.5-27c-1-2.4-4.7-3.1-6.8-1.8c-2.1,1.3-2.9,4.3-1.8,6.9c3.3,7.7,6.6,15.4,9.8,23.1c2.6,6,5.4,11.9,10.1,16.3
	l-4.3,0.4c-6.4,0.5-12.8,0.7-19.2,0.7c-0.2-0.4-0.4-0.8-0.8-1.1c-15.7-17.9-15.2-44-9.3-65.6c7.1-26.1,22.8-48.6,33.3-73.3
	c5.8-13.2,9.6-27.2,11.2-41.6c1.4-15.1,0.2-30.3-3.6-45c-3.7-14.6-9.5-28.5-13.6-42.9c-2.1-7.1-3.5-14.4-4.3-21.8
	c-0.3-3.5-0.4-7-0.2-10.5c0-1.8-0.4-5.2,1-6.4c1.4-1.2,5,2.7,6.4,4.5l11.6,14.5c8.8,11,17.6,22,26.3,33.1
	c12.7,15.9,25.5,31.8,36.8,48.8c7.9,11.9,14.4,24.6,21.7,36.8c3.4,6,7.3,11.6,11.6,17c4.1,4.8,8.5,9.4,13.2,13.6
	c4,3.9,8.1,7.8,10.9,12.6c2.8,4.8,2.9,10.5,1.7,16.4c-1.2,5.9-2.3,13.4,0.9,19.7c1.9,3.7,4.9,6.8,8.6,8.9
	C435.6,377.3,430,380,424.7,383.1z M871.3,266.7c1.9,2.8,4.1,5.5,6.4,8c-4.5,4-8.6,8.8-10.3,14.7c-1.2,4.5-0.6,9.2,1.7,13.2
	c1.9,3.6,4.9,6.6,7.4,9.7l3.4,3.8c-1.1,1.8-1.9,3.9-2.3,6c-0.7,4.4-0.6,8.8,0.2,13.2c0.6,4,1.4,8.1,2.5,12c0.4,1.8,0.8,3.6,1.3,5.4
	c-4-7.5-7.9-15-11.4-22.7c-6-13.1-10.7-27-12.3-41.4c-1.6-14.9-0.4-29.9,3.4-44.4C863.4,252.2,866.7,259.8,871.3,266.7z M883,468.8
	c-0.3,0.4-0.6,0.8-0.8,1.2l-7.8-0.8c7.3-36.6,2.1-74.7-14.8-108c-1.4-2.4-4.4-3.2-6.8-1.8c-2.3,1.5-3.1,4.5-1.8,6.9
	c0.8,1.5,1.5,3.1,2.3,4.7c0.3,0.8,0.7,1.6,1.1,2.4c0.1,0.4,0.3,0.8,0.5,1.2l0.4,1c1.3,3.2,2.5,6.4,3.6,9.6
	c2.3,6.6,4.1,13.4,5.5,20.2c0.7,3.4,1.3,6.9,1.8,10.3v0.2c0,0.1,0,0.1,0.1,0.2c0.1,0.1,0.1,0.9,0.1,1.3l0.3,2.7
	c0.2,1.7,0.3,3.4,0.5,5.2c0.5,7,0.5,13.9,0.1,20.9c-0.2,3.9-0.6,7.7-1.1,11.6v0.6l-0.3,1.7c-0.2,1-0.3,2-0.5,3s-0.7,3.9-1.1,5.8
	l-6.3-0.3c-2.9-0.3-5.8-0.5-8.6-0.9h-1l-2.1-0.3l-4.5-0.8c-5.7-1-11.2-2.4-16.7-4.2l-4.4-1.5l-2-0.8l-33-20.6l9.5-16.1
	c1-1.7,0.8-3.9-0.4-5.5c-0.8-1-1.9-1.7-3.2-2c-1.2-1.2-3-1.7-4.7-1.2h-1.1l-0.3-0.2l-0.2-0.1l-0.3-0.2l-0.5-0.5l-0.4-0.6
	c0,0.1-0.1,0.1-0.3-0.1v-0.2h-0.1l-0.3-0.4l-0.7-1.3c0-0.2-0.1-0.3-0.2-0.5c0,0.1,0,0.1-0.1-0.2v-0.2l-0.2-0.5l-0.4-1.3
	c-0.4-1.7-0.6-3.5-0.8-5.2c-0.6-3.8-1.2-7.5-3.1-10.9c-1.2-2-2.8-3.7-4.7-5.1l-1.2-0.9l-0.4-0.3h-0.1l-0.6-0.6c-0.1,0-0.1,0-0.1-0.1
	c0.1-0.1,0.1-0.2,0.1-0.3c-0.1,0.2-0.2,0.3,0-0.1h0.1v-0.2l0.7-1.1c0.1-0.1,0.1-0.2,0.1-0.3l0.3-0.2l1.2-1.3l1.2-1
	c0-0.1,0-0.1,0.1-0.1h0.1l0.4-0.3c1.7-1,2.7-3,2.4-5c-0.2-2-1.6-3.7-3.6-4.2l-1.3-0.3h-0.2l-0.6-0.3c0-0.1-0.1-0.1-0.2-0.2l-0.5-0.5
	l-0.4-0.4h-0.1c-0.1-0.1-0.2-0.2-0.1-0.2l-0.4-0.6c-0.3-0.3-0.5-0.7-0.6-1.1c-0.1,0-0.1,0-0.1-0.1l-0.2-0.5l-0.3-1.2
	c0-0.1-0.1-0.4-0.1-0.6c-0.1-0.4-0.1-0.8-0.1-1.2c-0.1-0.7-0.1-1.4,0-2.1c0-0.1,0-0.3,0.1-0.4v-0.2l0.3-1.6c0.3-1.2,0.6-2.4,1-3.6
	c1.4-4.3,3.1-8.5,4.8-12.6h0.1c0.1-0.2,0.2-0.3,0.2-0.5l0.6-1.4c0.4-1,0.9-2.1,1.4-3.1l2.7-5.9c7.5-15.6,16.5-30.5,26.9-44.4
	l2.1-2.7l0.7-0.8l1.2-1.5l4.5-5.5c3.2-3.8,6.5-7.5,9.8-11.1c2.1-1.8,2.4-4.9,0.6-7c-1.8-2.1-4.9-2.4-7-0.6c-0.2,0.2-0.4,0.3-0.5,0.5
	c-12.7,13.5-24,28.2-33.7,44c-4.8,7.8-9.2,15.9-13.1,24.2c-2.1,4.3-4.1,8.7-5.9,13.1c-1.8,4.4-3.7,8.8-5.1,13.3s-2.5,11.4-0.4,16.7
	c0.9,2.5,2.4,4.8,4.3,6.7c-1.7,2-2.8,4.4-3.3,7c-0.4,3.1,0.5,6.2,2.6,8.5c1,0.9,2,1.7,3,2.5l1.1,0.7l0.7,0.7l0.3,0.3
	c0.2,0.4,0.4,0.7,0.7,1.1l0.3,0.5c0.1,0.5,0.3,1.1,0.5,1.6c0.6,1.9,1,3.9,1.2,5.9c0.3,3.4,1.2,6.8,2.6,10l-3.7-1.2l-2-0.8l-0.3-0.2
	l-1.2-0.5c-3.3-1.5-6.5-3.1-9.6-4.9c-12.7-7-24.7-15.4-38.2-21.1c2.6-1.5,4.8-3.5,6.6-5.8c7.3-9.4,3.4-22,2.8-32.8
	c-0.3-4.9,0.5-9.3,3.6-13.1s7.9-6.9,12.1-9.9c10.3-7,19.2-15.7,26.4-25.8c6.7-9.6,11.3-20.8,19.7-29.1s17.2-12.9,24.8-20.5
	c9.4-9.6,14.3-22.5,19.8-34.6c5.5-12.1,10.5-24.2,15.1-36.6c2.3-6.1,4.3-12.1,6.4-18.2c0.5-1.3,1.1-2.1,2.2-1.9s1.5,1.4,2.1,3
	c4.3,12.8,8,26.4,4,39.8c-1.4,5-3.1,10-4.8,15c-0.1,0.3-0.2,0.7-0.3,1c-3.1,8.9-6.1,17.8-8.4,26.9c-3.5,14.6-4.6,29.6-3,44.5
	c3.2,28.9,17.3,53.7,30.2,79.2c11,22,20.6,46,17.4,71.1C894.4,450.5,890,460.6,883,468.8z M768.6,396.4
	C769.2,397,768.7,396.6,768.6,396.4L768.6,396.4z M808.6,284.9C808.5,285.1,808.5,285,808.6,284.9L808.6,284.9z"/>
</svg>
