<?xml version="1.0" encoding="utf-8"?>
<!-- Generator: Adobe Illustrator 24.2.3, SVG Export Plug-In . SVG Version: 6.00 Build 0)  -->
<svg version="1.1" id="fbe94186-9f6e-4c85-9f33-48a044e42d70"
	 xmlns="http://www.w3.org/2000/svg" xmlns:xlink="http://www.w3.org/1999/xlink" x="0px" y="0px" viewBox="0 0 1152 864"
	 style="enable-background:new 0 0 1152 864;" xml:space="preserve">
<path d="M896.5,484.1c-9.7-22.4-11.9-47.1-16.6-70.8c-5.1-24.4-11.8-48.4-19.8-72c-3.8-11.4-8.4-22.4-12.5-33.7
	c-1.9-4.9-3.3-10-4-15.2c-0.6-5.8,0.6-11.5-0.1-17.2c-0.8-5.9-2.5-11.6-5.1-16.9c-2.3-5-6-9-9.1-13.5c-7.1-9.8-15.2-19.1-22.9-28.5
	c-14.9-18.7-30.1-37.2-46.5-54.7s-34.5-34.2-54.9-47.2c-9.5-6.2-19.6-11.1-30.3-14.8c-10.3-3.4-20.8-6-31.4-7.9
	c-43.9-7.8-91.1-4.9-132.6,12.1c-21.7,8.9-42.3,21-59.9,36.6c-8.7,7.7-14.9,16.7-21.1,26.5s-12.7,17.3-21.3,23.2
	s-16.4,10.2-19.9,19.3c-0.9,2.8-1.3,5.8-0.9,8.7c0.2,2.6,1.2,5.6,0.7,8.2s-5.9,5.2-8.6,6.9c-17.6,12-28.2,31.3-34.3,51.2
	c-7.3,23.8-9.7,48.9-13.6,73.4s-8.6,50.7-14.7,75.7s-13,49.1-23.7,71.8c-5,10.6-11.8,21-13.5,32.7c-0.8,5.6-0.2,11.5,2.9,16.4
	s7.8,7.8,12.3,11.1c17.3,13.1,27.4,33.8,36.1,53.1c9.8,21.6,18.8,43.7,34.6,61.8c7.8,8.8,17.2,16.4,28.1,21.1c4.7,2,9.7,4.3,15,3.4
	c4.6-0.9,8.4-4.2,10-8.6c2.9-7.6,0.6-16.5-0.3-23.8c-1.4-11.5-1.7-23.8,1.9-34.9c6.6-20.4,25.1-34.2,38.5-50
	c7.8-9.2,14.3-19.2,17.7-30.9s4.3-23.9,4.6-36c0.9-25.2-2.4-50.5-9.5-74.7c-7.3-23.8-18.1-46.4-28.7-68.9c0.9,1,2,2,3.1,3s5,2,7.1,0
	s2.1-5.5,0-7.1c-7.7-6-7-16.4-6.6-25.3c0.7-13.1-0.8-26-3.4-38.9s-5.2-27.2-5.6-41.2c-0.3-14,0.7-28,2.8-41.9
	c2.3-15.7,5.6-31.3,8.9-46.8c0.9-4-3.5-8.3-7.3-5.7c-4.1,2.8-7.9,5.9-11.4,9.3c2.4-3,4.7-6.1,6.8-9.2c3-4.6,5.6-9.4,8.9-13.7
	c3.3-4.3,7-8.2,11.1-11.8c33.2-29.7,77.1-46,121.2-49.4c21.7-1.7,43.6-0.5,65,3.5c10.6,2,21,4.7,31.2,8.3
	c10.2,3.6,19.8,9.2,28.8,15.2c19.8,13.3,37,30,53,47.4s30.5,35.4,45.1,53.6c7.3,9,14.5,18,21.5,27.1c3.4,4.1,6.2,8.8,8.1,13.8
	c1.9,5.3,2.6,11,2.1,16.6c-0.8,11,2.5,21.6,6.5,31.7s8.4,22.2,12.1,33.5c7.6,23.2,14.3,46.8,18.9,70.9s7.2,47.1,16.9,69.2
	c4.3,9.9,10.1,19.1,14.2,29.1c4.1,10,7,20.3,4.2,30.1c-4.9,17-24.8,25.8-38.9,33.5c-15.9,8.8-32.3,17.8-44.5,31.4
	c-6.5,7.1-11.5,15.3-14.8,24.3c-3.3,9.2-5.1,19.1-9.1,28c-4.4,9.7-12,17.4-21.6,22c-10.5,4.9-21.9,9.6-33.7,9.7
	c-2.2,0-4.8,0.2-6.7-1.1c-1.7-1.2-3.1-2.8-3.9-4.7c-2.6-4.8-3.2-10.8-4.3-16.2c-2.5-12.3-4.5-24.8-6.1-37.2s-2.8-25.1-4.1-37.6
	c-1.3-12.2-0.5-24.6,2.4-36.5c1.3-5.5,2.9-10.9,5-16.1c2.2-5.7,5.3-11,7.7-16.6c4.8-11.1,10.4-21.7,14.6-33s8.6-22.9,12.6-34.4
	s8-24.2,11.7-36.4c1.9-6,3.6-12,5.4-18l2.5-8.8c0.8-2.9,2.1-6.1,2.2-9.1c0.1-5.3,2.2-10.8,3.5-16s2.9-12.2,4.2-18.4
	c4.9-24,7.8-48.4,8.4-72.9c0.4-12.2,0-24.2-3-36.2c-2.4-9.8-5.7-19.3-9.8-28.5c-7.9-17.8-19.8-33.8-36.4-44.4l-0.6-0.3h-0.4
	c-2.7-0.8-5.5,0.8-6.3,3.5c-5.4,32.5,7.6,64.5,15.3,95.5c3.8,15,7,30.2,8,45.7c1,16,0.6,32.1-1.2,48.1c-1.6,13.7-4.4,27.2-8.2,40.4
	c-1.6-5.6-1.8-11.5-0.4-17.2c1.5-6.2-8.1-8.9-9.6-2.6c-3.1,12.3-0.6,25.4,6.7,35.8c2.6,3.6,7.7,3.1,9.2-1.2
	c10.4-30.7,14.6-62.8,13.8-95.1s-10.3-62.3-18.3-92.9c-3.4-12.7-6.4-25.8-6.7-38.9c1.1,0.1,2.2,0,3.2-0.3c1-0.4,2-1,2.8-1.7
	c10.4,10.3,17.9,23.5,23.1,37.2c3.8,9.9,7,20.4,8.3,30.9c1.5,12.4,0.7,25.1,0,37.4c-1.4,25.1-5.8,49.9-11.9,74.2
	c-1.4,5.7-3.5,11.5-3.7,17.3c-0.1,2.6-1.3,5.4-2,7.8L768,408c-3.6,12.4-7.4,24.8-11.4,37.1s-8,24.5-12.7,36.5s-8.4,23.2-14.1,34.2
	c-2.8,5.5-4.9,11.1-7.5,16.6s-5.5,11.1-7.5,17c-4,11.5-6.3,23.5-6.8,35.7c-0.2,6.3,0.1,12.6,1,18.9c0.8,6.3,1.3,12.7,2,19.1
	c1.3,12.9,3,25.7,5.1,38.6c1.1,6.4,2.3,12.9,3.7,19.3s2.1,11,4.9,16s6.2,8.2,11.1,9.6s12.6,0.6,18.3-0.4c6.1-1.2,12-2.9,17.7-5.3
	c5.5-2.3,11.6-4.5,16.5-7.8c9.1-6.2,16.1-14.8,20.4-24.9c4-9.5,5.9-19.7,9.6-29.2c3.4-8.3,8.4-15.9,14.9-22.1
	c13.3-13,30.4-21.3,46.4-30.3s34.1-20.1,37.1-39.3C920.4,524.1,905.2,504.1,896.5,484.1z M471.3,505.3c0.7,23.6,0.1,48.6-14,68.5
	c-12.4,17.4-30.4,30.1-41,48.9c-5.5,10-8.5,21.3-8.5,32.7c-0.2,9.4,1.4,18.5,2.3,27.8c0.3,3.2,0.8,7.5-1,10.4s-6.8,0.6-9.4-0.5
	c-10.4-4.2-19.1-11-26.5-19.4c-15.4-17.5-24-39.7-33.6-60.7c-8.8-19.4-19.1-39.3-35.7-53.2c-3.9-3.2-8.9-5.8-12-9.9
	s-2.6-9.2-1.4-13.9c3.1-11.2,9.8-21.2,14.3-31.9c19.4-46,29.2-95.7,36.8-144.9c3.8-24.1,6.3-48.7,13.4-72.1
	c5.7-18.6,15.8-37.2,33-47.2c4-2.3,7.8-4.8,9.5-9.3s-0.7-10.8,0-16.2c1.2-8.1,12.2-12.7,18-17.1c2.6-2,5.1-4.1,7.5-6.4
	c-8.6,10.7-14.9,23-18.8,36.2c-6.9,23.1-6.4,47.4-1.5,70.8c10,48.2,37.5,90,54.3,135.7C465.6,456.6,470.4,480.8,471.3,505.3z
	 M412.3,235.5c4.1-16.8,12.2-33,24.5-45.1c-5,24-9.3,48.3-9.2,72.9c0,14.7,2.1,29.2,5.1,43.5s4.7,26.8,4,40.5
	c-0.2,5.8-0.3,12.1,0.9,18C418.9,324.8,401.4,280.4,412.3,235.5z"/>
<path d="M575.5,172.5l-0.3-0.3l-0.6-1.2l-0.3-0.7c-0.3-0.5,0.1,0.4,0.1,0.4s-0.5-1.4-0.6-1.7l-0.6-2.8v-0.4c0-0.6-0.1-1.2-0.1-1.8
	c-0.3-4,0-7.9-0.4-11.9c-0.1-4.4-1.4-8.7-3.6-12.5c-1.3-2.1-3.3-4.6-5.7-5.4s-2.8,0-4,0.1L555,135c-26.9,4.4-51.8,16.9-71.3,35.8
	c-2,1.9-2,5.1,0,7.1c0,0,0,0,0,0c2,1.9,5.1,1.9,7.1,0c1.9-1.9,4-3.8,6-5.5l2.9-2.4l1.4-1.1l0.3-0.3l1-0.7c4.4-3.2,8.9-6.2,13.6-8.9
	c2.3-1.3,4.7-2.5,7.1-3.7l3.6-1.6l1.8-0.8h0.4l0.7-0.3c5-2,10.2-3.7,15.4-5.1c2.9-0.8,5.8-1.5,8.8-2l4.5-0.8h1
	c0.2-0.1,1.5-0.3,0.3-0.1h0.6c0,0.1,0.1,0.1,0.1,0.2l0.6,1c0.2,0.3,0.6,0.8,0.6,1.1c-0.1-0.1-0.2-0.3-0.2-0.5
	c0.1,0.2,0.1,0.4,0.2,0.6c0.3,0.8,0.5,1.7,0.7,2.5c0.2,0.7,0.3,1.4,0.5,2.1l0,0v0.3c0,0.4,0.1,0.8,0.1,1.3s0.2,3.2,0.2,4.8
	c-0.1,3.7,0.2,7.5,0.7,11.2c0.6,4,2.3,7.8,4.9,10.9c1.7,2,5.4,1.8,7.1,0s1.8-4.9,0-7.1L575.5,172.5z"/>
<path d="M713.2,188.2c2.5-1.6,3-4.3,1.8-6.9c-7.6-16.6-20.6-30.2-36.9-38.5c-9.2-4.6-19.2-7.4-29.5-8.4c-4.8-0.5-9.5-0.5-14.3-0.1
	c-2.8,0.3-5.5,0.7-8.3,1.2s-5.1,1.1-7.2,2.8s-3.9,5.4-5.1,8.5s-1.7,5.5-2.4,8.3c-1.4,6.1-2.2,12.3-2.2,18.5c0,2.8,2.2,5,5,5
	c2.7-0.1,4.9-2.3,5-5c0-2.5,0.1-5,0.4-7.5c0.1-0.5,0.1-1,0.2-1.6l0,0c0.1-0.3,0.1-0.7,0.1-1c0.2-1.2,0.5-2.4,0.7-3.7
	c0.5-2.4,1.1-4.8,1.9-7.2c0.3-1.1,0.7-2.2,1.1-3.4l0.6-1.6l0,0l0.3-0.6l0.4-0.6l0.3-0.3l0,0l0.4-0.2h0.2l1.7-0.4l3.2-0.6l1.3-0.2
	h0.2l1.1-0.2c4.6-0.4,9.1-0.5,13.7-0.2l3.2,0.3h0.8l2,0.4c2.2,0.3,4.4,0.8,6.6,1.4c2.2,0.5,4.3,1.2,6.4,2l3,1.1l0.8,0.4l1.8,0.8
	c3.8,1.8,7.4,3.9,10.9,6.3c0.7,0.5,1.4,1,2,1.6c-0.2-0.3,0.7,0.5,0.9,0.6l1.2,1c1.6,1.3,3.1,2.7,4.6,4.2c1.6,1.6,3.2,3.3,4.7,5
	l1.1,1.4l0.5,0.6l0.4,0.5v0.2l0.6,0.8l0.9,1.2c2.7,3.9,5.1,8,7,12.3C707.5,188.8,711.1,189.5,713.2,188.2z M624.8,146.3L624.8,146.3
	C624.9,146.2,624.8,146.2,624.8,146.3L624.8,146.3z M624.9,146.1L624.9,146.1C625,145.9,625.3,145.8,624.9,146.1L624.9,146.1z"/>
</svg>
