<?xml version="1.0" encoding="utf-8"?>
<!-- Generator: Adobe Illustrator 24.2.3, SVG Export Plug-In . SVG Version: 6.00 Build 0)  -->
<svg version="1.1" id="b23ffb9c-3daa-4cd0-b35c-901b3e82be0d"
	 xmlns="http://www.w3.org/2000/svg" xmlns:xlink="http://www.w3.org/1999/xlink" x="0px" y="0px" viewBox="0 0 1152 864"
	 style="enable-background:new 0 0 1152 864;" xml:space="preserve">
<path d="M1010.5,207.2c-1-2.8-2.4-5.4-4.3-7.7c-8.1-10.1-20.3-12.1-32.5-11.4c-28.2,1.9-54.7,15.9-78.9,29.4
	c-16.8,9.5-33.2,19.9-48.9,31.1c-0.9,0.2-1.6,0.6-2.2,1.3l-0.8,0.9c-29.7,21.3-57.8,44.8-86.3,67.5c-10.5,8.4-21.1,16.5-33.4,22
	s-25.6,7.5-39.2,6.8s-29-4.1-43.4-6.5c-15.3-2.4-30.7-3.6-46.1-3.8c-15.7-0.4-31.3-0.1-47,0.2c-8,0.2-16,0.3-24,0.3
	c-7.4,0.1-15.1-0.7-22.4,0.4c-29.5,4.8-58.9,12.6-88.9,8c-7.1-1-14.3-2.7-20.5-6.3s-11.4-7.6-17-11.5c-12-8.3-23.7-17-35.2-25.9
	c-20.9-16.2-41.4-32.9-62.7-48.6c-1.1-1.2-2.1-2.4-3.2-3.5c-0.9-1-2.3-1.5-3.6-1.4c-10.6-7.7-21.5-15-32.7-21.9
	c-5.7-3.5-10.7-7.8-16.4-11.1c-6.2-3.6-12.5-6.8-19-9.7c-12.5-5.6-25.4-10.4-38.5-14.3c-12.1-3.5-25.4-5.7-37.6-1.5
	c-5.3,1.8-11.2,4.6-15,8.7c-3.8,4.1-3.9,11.2-3.9,17.5c0.1,14.8,1.8,29,4,43.6c4.3,29.2,9.2,58.2,15.8,86.9
	c3.3,14.3,7,28.5,11.2,42.5c4.2,14,8.1,27.5,14.3,40.2c6.2,12.7,14.4,23.3,22.7,34.2c4.1,5.2,9.4,10.4,11.7,16.7s2.7,11.6,3.9,17.2
	c5.4,23.8,13.5,46.6,33.3,62.2c10.6,8.4,22.9,13.5,35.2,19c12.3,5.5,21.3,10.3,29,20.4s11.6,19.2,16.7,29.1c3,5.7,11.6,0.7,8.6-5
	c-6-11.7-11.8-23.5-20.3-33.6c-0.6-0.8-1.3-1.6-2-2.3c-0.2-1-0.6-1.9-1.3-2.7c-2.4-2.6-4.5-5.4-6.3-8.5c-1.5-2.8-2.5-5.7-3.1-8.8
	c-0.3-1.3-0.5-2.7-0.5-4c-0.1-1.8-0.1-3.5,0-5.3c0-0.4,0.1-0.9,0.1-1.3v-0.2c0.1-0.1,0.1-0.2,0.1-0.4s0.3-1.4,0.4-2
	c0.1-0.6,0.5-1.8,0.7-2.6c0.1-0.3,0.2-0.7,0.4-1l0.3-1c0.6-1.3,1.3-2.6,2.1-3.8l0.6-0.9l0.2-0.2l1.4-1.6c0.9-0.9,1.9-1.7,2.9-2.4
	h0.1l0.8-0.7l1.7-1.2c5.1-3.6,11.1-7.5,13.3-13.6c2.2-6.1-1.2-11.3-3.6-16.4c-0.3-0.5-0.5-1-0.7-1.5c-0.1-0.1-0.2-0.3-0.2-0.5
	l-0.5-1.2l-0.6-2.1L299,502c-0.1-0.1-0.1-0.3-0.1-0.4v-0.3c-0.1-0.7-0.1-1.3-0.1-2c0-0.4,0.1-0.8,0.1-1.3c0-0.1,0-0.2,0.1-0.3
	c0.1-0.6,0.2-1.3,0.4-1.9c0.2-0.5,0.3-1,0.5-1.5s0.3-0.7,0.3-0.8c2.8-5.9,7-9.6,12.7-12.7c5.7-3.1,12.8-5.4,19.7-7.9
	s12.8-5.3,16.1-11.3c1.9-3.5,2.5-7.6,1.8-11.5c-0.2-1.7-0.7-3.4-1.1-5.2l-0.6-2.5c-0.2-1-0.3-1.3-0.4-2v-2.5
	c0.1-0.1,0.1-0.3,0.1-0.4c0-0.2,0.1-0.3,0.1-0.5c0.2-0.6,0.4-1.2,0.5-1.8h0.1c0.1-0.3,0.2-0.7,0.4-1c0.6-1.1,1.3-2.2,2-3.2l1.2-1.7
	h0.1l0.9-1.1c3.9-4.7,8-9.3,10.3-15.1c2.9-7.6,1-15.9-1.9-23.2c-2.9-7.3-5.8-14.1-9-21c-6.2-13.4-13-26.4-20.4-39.1
	c-8.5-14.5-17.8-28.5-27.9-42c12.5,9.8,24.9,19.6,37.5,29.2c12.6,9.6,26.5,19.9,40.4,28.9c13.9,9,30,11.4,45.7,11.6
	c17.2,0.4,34.3-2.4,51.1-5.5c8.5-1.6,17.4-4.1,26-4.5c8.6-0.4,17.9,0.2,26.8,0.1c36.2-0.5,73-2.7,108.8,3.5
	c16.1,2.9,32.2,6.5,48.7,6.5c15.2-0.1,30.2-3.8,43.6-10.9c13.8-7.2,25.8-17.5,37.9-27.2s26.3-21.3,39.6-31.8l3.6-2.8
	c-7,9.2-13.7,18.7-19.9,28.4c-14.5,22.4-26.9,46.1-37.2,70.7c-2.7,6.5-5.6,13.2-5.7,20.5s2.3,11.8,6,16.6c1.7,2.3,3.5,4.4,5.3,6.6
	l1.1,1.4l0.6,0.7c0,0.1,0,0.1,0.1,0.1l2.1,3.1l0.7,1.5l0.2,0.3l0.2,0.3c0.2,0.6,0.4,1.2,0.5,1.8c0.1,0.2,0.1,0.5,0.2,0.7
	s0,0.3,0.1,0.4v1.8c0,0.4,0,0.9-0.1,1.3v0.3l-1.2,4.8c-1,3.5-1.3,7.3-0.8,10.9c0.7,3.1,2.2,6,4.5,8.3c4.2,4.4,10.2,6.6,15.8,8.6
	s12,4,17.7,7.1l3.8,2.4l0.3,0.3l0.8,0.6l3.8,3.8l4.1,4.8l0.6,0.7c0,0.1,0.1,0.2,0.2,0.3l0.2,0.3l0.6,0.8l2.2,3
	c2.6,3.7,5,7.7,6.9,11.8c0.2,0.4,0.7,1.7,0.2,0.4c0.2,0.4,0.4,0.9,0.5,1.3l0.9,2.6c0.1,0.4,0.1,0.8,0.2,1.2c0.1,0.3,0.1,0.7,0.1,1
	c-0.4,1.2-0.6,2.4-1.1,3.6l-0.3,0.7c0,0.1-0.1,0.3-0.1,0.4s-0.7,1.4-1.1,2.2c-1.4,2.8-2.7,5.7-3.8,8.6c-1,2.9-1.5,6-1.3,9.1
	c0.1,2.2,1.6,4.1,3.7,4.8c3.8,0.9,7.5,2.5,10.7,4.7c3.1,2,5.7,4.6,7.6,7.7c0.4,0.6,0.7,1.4,0.9,2.1c0.2,0.4,0.3,0.8,0.4,1.2
	c0,0.4,0.1,0.7,0.2,1.1c0,0.2,0.1,0.9,0.1,1.1v1.6c-0.1,0-0.1,0.1-0.2,0.3c-0.1,0.5-0.2,1-0.4,1.4c0,0.2-0.1,0.3-0.1,0.4l-0.2,0.3
	c-0.2,0.5-0.5,0.9-0.7,1.3l-0.8,1.2c-0.1,0-0.6,0.7-0.6,0.7c-1.4,1.6-2.9,3-4.4,4.5c-0.4,0.3-0.7,0.7-0.9,1.1
	c-8.2,5.2-15.1,11.7-19,21.3c-3,7.3-2.8,15.6-2.9,23.4s-0.1,16.5-1.7,24.7c-1.2,6.3,8.4,9,9.7,2.6c2-10.7,1.7-21.5,2.1-32.3
	c0.1-4.8,0.1-10,1.9-14.5c1.7-4,4.3-7.6,7.5-10.5c14.6-13.8,35.7-16.7,52.2-27.4c14.5-9.3,27.6-23.6,31.7-40.7
	c2.6-10.8,6-21.4,8.6-32.1s7.2-18.2,13.6-25.9c1.5-1.9,3.2-3.5,4.3-5.7c0.9-2.1,2.2-4.1,3.7-5.8c3.7-4,6.9-8.4,9.7-13.1
	c2.9-4.8,5.5-9.7,7.8-14.8c2-4.2,4.3-8.2,4.8-12.8c2.9-4.6,4.3-10.7,5.5-15.8c1.7-7.1,2.9-14.3,4.6-21.4
	c3.8-15.1,7.6-30.3,11.1-45.5c6.8-29.7,12.6-59.6,15.7-89.9c0.8-7.5,1.4-14.9,1.8-22.4C1010.7,214.5,1011.5,210.5,1010.5,207.2z
	 M340.4,455.9C340.3,456.2,340.1,456.5,340.4,455.9L340.4,455.9z M319.4,326.6c7.7,12.5,14.8,25.4,21.2,38.6
	c3.1,6.5,6.2,13.2,9,19.8s6.3,13.7,5.9,20.5c0,0.7,0,1.3-0.2,2l-0.6,2c-0.1,0.1-0.2,0.3-0.2,0.5l-0.3,0.5c-0.3,0.7-0.7,1.4-1.1,2.1
	l-2.2,3.2h-0.2l-0.6,0.7l-1.5,1.9c-3.3,3.9-6.7,7.9-8.6,12.6c-2.7-2.7-5.6-5.2-8.6-7.5c-2.2-1.7-4.4-3.4-6.7-5l-0.8-0.7l-0.3-0.2
	l-1.5-1.2c-1.1-0.8-2.1-1.7-3.1-2.7c-1.1-0.9-2.1-1.9-3-2.9l-1.4-1.5l-0.5-0.7h-0.2c-0.7-1-1.4-2.1-2-3.2l-0.9-1.7v-0.2
	c-0.2-0.2-0.3-0.5-0.3-0.8c-0.6-1.4-1-2.9-1.2-4.4c0-0.1,0-0.1-0.1-0.1v-0.8c-0.1-0.7-0.1-1.5,0-2.2v-1.1c0.2-0.6,0.3-1.3,0.5-1.9
	l0.3-1c0.1,0,0.1,0,0.1-0.1l1.1-1.9c1.2-2,0.8-4.5-0.8-6.1c-4.6-4.4-10.8-4.7-16.6-6.1l-1.8-0.4l-0.5-0.2h-0.2l-0.7-0.4l-0.1-0.1
	l-0.1-0.1h-0.1c-0.1,0-0.1,0-0.1-0.1v-0.2V375c-0.1,0-0.1,0-0.1-0.1v-0.2c0.1-0.2,0.2-0.4,0.2-0.6c0-0.1,0-0.1,0.1-0.1l0.7-0.8
	c0.1-0.1,0.2-0.2,0.2-0.3l1-0.6c0.7-0.5,1.5-0.9,2.3-1.3h0.6l1.2-0.5l2.7-0.7c3-0.7,4.8-4.7,3-7.3c-7.2-10.4-15.6-19.9-23.8-29.5
	l-6.3-7.5l-3.1-3.8l-1.3-1.5c-0.2-0.3-0.4-0.7-0.7-1l-0.6-0.8c-3.8-4.9-7.4-10-10.6-15.3c-1.7-2.9-3.3-5.9-4.7-8.9
	c-0.1-0.3-0.2-0.7-0.4-1c0-0.1-0.1-0.1-0.1-0.2c-0.4-0.7-0.7-1.5-0.9-2.3c-0.6-1.6-1.1-3.1-1.6-4.7c-1-2.6-3.9-3.9-6.5-2.9
	c-2.2,0.9-3.5,3.1-3.1,5.5c3.4,12.1,10.2,22.9,17.7,32.8c7.5,9.9,16.8,20.5,25.3,30.6l6.5,8.1l0.7,0.9l0.3,0.3h0.1l0.8,1.1
	c-5.8,2.8-10.7,7.6-9.4,14.6c0.7,3.6,3.1,6.6,6.4,8.1c2.9,1.2,6,2.1,9.2,2.5l4.4,1c-3.4,9.7,0.9,21,7.5,28.5
	c3.9,4.5,8.8,8.1,13.5,11.7l3.2,2.4l1,0.7h0.1l1.9,1.5c2.1,1.7,4.1,3.5,5.9,5.5l1.5,1.7l0.4,0.6l0.5,0.6c0.9,1.2,1.7,2.5,2.3,3.8
	l0.5,0.9c0,0.1,0.1,0.2,0.1,0.3c0.4,0.6,0.6,1.4,0.7,2.1c0.2,0.7,0.4,1.5,0.6,2.2v0.8v0.6c0.1,0.7,0.2,1.3,0.5,1.9
	c0,0.1,0,0.1-0.1,0.3l-0.3,1.1l-0.4,0.7c-0.1,0.2-0.2,0.4-0.4,0.6s-0.3,0.4-0.4,0.6l-1.4,1.3l-0.6,0.4l-0.9,0.7l-1.7,0.9l-2.1,1.1
	h-0.4l-1.1,0.4c-13.8,5.3-28.9,9.1-37.5,22.2c-4.1,6.1-5.6,13.6-3.9,20.8c0.9,3.1,2.1,6.2,3.6,9.1c0.5,1,1,2,1.4,3
	c0.4,1,0.4,0.9,0.5,1.2c0.1,0.3,0.3,1.2,0.5,1.9c-0.3-1.1-0.1-0.2-0.1,0.3c-0.1,0.3-0.1,0.5-0.2,0.8c0,0.1,0,0.1,0,0.1
	c0,0.1,0,0.1-0.1,0.2c-0.1,0.1-0.1,0.1-0.1,0.2l-0.5,0.7h-0.1l-0.7,0.8c-1,1-2,1.9-3,2.8l-1,0.7c-0.5,0.5-1.1,0.9-1.7,1.3
	c-4.8,3.5-9.7,6.9-13,12c-6.1,9.4-6.8,21.9-3.5,32.7c-4.4-2.2-9.1-4.2-13.8-6.3c-14.1-6.2-27.8-13.2-37.9-25.1
	c-10.1-11.9-13.7-23.7-17.2-36.8c-1.8-6.8-3.2-13.7-4.7-20.6c-1.3-6.9-4.2-13.3-8.6-18.8c-9.6-12.5-19.8-24.8-27.2-38.8
	c-7.4-14-12.4-32.4-17-48.6c-4.6-16.2-8.6-32.6-12-49.1c-3.4-16.5-6.5-33.2-9.2-49.9c-2.7-16.7-6.1-33.9-6.8-51
	c-0.2-4.1-0.3-8.2-0.3-12.4c0-4.2-1-8,1-10.5c4.3-5.1,13.4-7.5,19.8-7.9c15.2-1,30.6,5.5,44.6,10.7c14,5.2,30.2,11.9,42.6,21.6
	c6.3,4.9,13.3,8.8,20,13.2c6.7,4.4,13.9,9.3,20.7,14.2l4.5,3.3C288.6,280.9,305.1,303.1,319.4,326.6z M290.3,375.2
	C290.3,375.3,290.2,375.2,290.3,375.2L290.3,375.2z M1000.5,218.7c-0.3,4.6-0.6,9.2-1,13.8c-1.6,17.5-4.1,35-7.3,52.4
	c-6.4,34.9-16.1,69-23.3,103.7c-0.7,4.1-1.8,8.1-3.1,12c-0.6,1.7-1.1,3.5-1.7,5.2s-1.6,2.6-2,4c-0.4,1.4-0.4,3.4-1.2,5.2
	c-0.8,1.8-1.5,3.3-2.2,4.9c-1.8,3.7-3.6,7.3-5.5,10.9c-1.9,3.6-3.8,6.5-5.9,9.6c-2.1,3.1-5.2,6-7.7,9.2s-2.4,5-4.2,7.2
	s-5,6.1-7.3,9.4c-9.2,13.7-12.1,30.2-16.3,45.8c-2.1,7.7-3.7,14.9-7.9,21.8c-3.6,5.8-8.2,10.9-13.4,15.3c-9.5,8.2-22.4,13-34.7,18.3
	c0.9-4.5-0.2-9.3-2.2-13.4c-4-8.1-12.4-13.8-20.9-16.8c0.3-1.3,0.6-2.6,1.1-3.8c0.1-0.1,0.1-0.3,0.2-0.5l0.4-0.8l0.8-1.7
	c0.7-1.3,1.3-2.6,1.9-4c2.2-4.7,3.7-9.2,2.6-14.4c-1.1-4.1-2.7-8.1-4.9-11.7c-2.3-4.1-5-8.1-7.9-11.8c-2.6-3.5-5.5-6.9-8.6-10.1
	c-3.7-3.4-7.9-6.2-12.5-8.2c-6.2-2.9-12.7-4.9-19.1-7.3l-1.5-0.6l-1.1-0.5c-1.3-0.6-2.5-1.3-3.7-2l-0.6-0.5
	c-0.2-0.1-0.3-0.2-0.3-0.3c-0.5-0.3-0.9-0.7-1.3-1.2c-0.1-0.1-0.3-0.4-0.4-0.4l-0.3-0.5l-0.4-0.7c-0.1-0.1-0.1-0.2-0.2-0.2v-0.2
	l-0.3-0.9c0-0.2,0-0.3-0.1-0.5c0.3-0.6,0.4-1.2,0.5-1.9v-1c0.1-0.6,0.2-1.3,0.4-1.9c0.1-0.6,0.3-1.2,0.5-1.8l0.3-0.9
	c0.1-0.1,0.2-0.3,0.2-0.4c0.6-1.2,1.2-2.3,1.9-3.4l1.2-1.6c0-0.1,0.1-0.2,0.1-0.3s0.4-0.5,0.5-0.6c1.8-2.1,3.8-4.2,5.9-6l3.2-2.5
	c0-0.1,0-0.1,0.1-0.1l0.9-0.7l1.8-1.4c9.5-7.1,19.5-14.5,22.8-26.5c1.5-4.8,1.4-10-0.2-14.8l3.2-0.8c2.9-0.6,5.9-0.9,8.7-2
	c2.8-1.1,6.7-3.8,8-7.8s-0.3-9-3.5-12c-1.8-1.6-3.9-2.9-6.1-3.9c4.9-9,7.9-19,10.1-28.9c2.7-12.6,4.3-25.4,6.4-38
	c1-6.7,2.4-13.3,4.2-19.8c0.4-2.7-1.4-5.3-4.1-5.7c-2.3-0.4-4.6,0.9-5.5,3.1c-6.8,23.9-6.7,49.2-14.8,72.8c-0.6,1.6-1.1,3.2-1.8,4.7
	c-0.1,0.4-0.2,0.7-0.4,1c0.7-1.3,0,0.2-0.2,0.4c-0.3,0.8-0.6,1.6-1,2.3c-1.4,2.9-3,5.6-4.8,8.3c-1.8,2.6,0,6.6,3,7.3
	c1.5,0.4,3,0.8,4.4,1.4h0.4l1,0.6c0.6,0.4,1.3,0.8,2,1.2c0,0.1,0.1,0.1,0.1,0.2l0.7,0.7l0.3,0.4c0,0.2,0,0.3,0.1,0.4
	c-0.1,0.1-0.1,0.4-0.2,0.6l-0.3,0.4l-0.7,0.3l-0.2,0.2h-0.4l-0.9,0.3c-2.6,0.7-5.3,1-8,1.6c-3.6,0.7-6.9,2.3-9.7,4.7
	c-1.6,1.6-2,4.1-0.8,6.1l0.9,1.6v0.2c0.1,0.2,0.2,0.4,0.3,0.6c0.2,0.6,0.4,1.1,0.5,1.7c0.1,0.3,0.1,0.5,0.2,0.8v0.2
	c0.1,1.2,0.1,2.3,0,3.5c-0.1,0.2-0.1,0.4-0.1,0.6v0.3c-0.2,0.7-0.3,1.3-0.5,2l-0.6,1.8l-0.3,0.9c-0.3,0.9,0,0,0-0.1
	c-0.5,1.3-1.1,2.6-2,3.7l-0.9,1.5v0.2c-0.2,0.1-0.3,0.3-0.4,0.5l-3.1,3.3c-2,1.9-4.1,3.6-6.2,5.3l-0.3,0.2l-0.8,0.7l-1.7,1.2
	l-3.4,2.5c-3.6,2.6-7.1,5.6-10.2,8.8c-1.1-2.6-2.6-5.1-4.3-7.3c-1.7-2.3-3.5-4.4-5.3-6.6l-1.1-1.3c-0.1-0.1-0.2-0.2-0.2-0.3
	l-0.5-0.6c-0.8-1-1.5-2.1-2.1-3.2l-0.8-1.5l-0.3-0.6c-0.2-0.5-0.4-1.1-0.5-1.6l-0.3-1.2c-0.2-0.8-0.1-0.2-0.1-1
	c-0.2-3.2,0.3-6.4,1.4-9.4c2.1-6.1,4.5-12,7.3-17.8c2.6-6,5.5-12,8.4-17.9c5.8-11.7,12.2-23.1,19-34.2
	c13.5-22.2,29.1-43.1,46.4-62.5l5.4-6c13.5-9.6,27.3-18.7,41.7-27.1c14.3-8.5,29.1-16.2,44.3-22.8c14.8-6.3,31.3-11.4,47.6-10.1
	c6.3,0.5,12.6,3.6,16.1,9C1001.6,210.6,1000.7,214.8,1000.5,218.7z"/>
</svg>
