<?xml version="1.0" encoding="utf-8"?>
<!-- Generator: Adobe Illustrator 24.2.3, SVG Export Plug-In . SVG Version: 6.00 Build 0)  -->
<svg version="1.1" id="aeddfb33-2d70-4f1a-aaaf-3cda8cd55100"
	 xmlns="http://www.w3.org/2000/svg" xmlns:xlink="http://www.w3.org/1999/xlink" x="0px" y="0px" viewBox="0 0 1152 864"
	 style="enable-background:new 0 0 1152 864;" xml:space="preserve">
<path d="M706.9,393.1c0,0.2,0,0.4-0.1,0.6v0.4c0,0.4-0.1,0.8-0.2,1.2c-0.3,2.8-0.8,5-1.3,7.2c-0.8,2.6,0.6,5.4,3.3,6.3
	c2.2,0.7,4.7-0.2,5.8-2.3c0-0.1,0-0.1,0.1-0.1h1l1.4,0.3l0.7,0.4l0.7,0.4l0.7,0.8c0-0.1,0.1,0,0.4,0.3l0.4,0.6l0.3,1.2
	c0,0.3,0.1,0.6,0.2,0.9v0.9c0,0.8,0,1.5-0.1,2.3c0,0.1-0.1,0.8-0.1,0.9l-0.3,1.3l-0.6,2.8c-0.5,1.7-1.1,3.5-1.6,5.3
	c-2.1,7.5-3.1,15.2-3.1,22.9c0,4,0.4,8,1,12c0.2,1.7,0.4,3.4,0.8,5.1c0.7,2.7,3.3,4.5,6,5c1.9,0.3,3.9,0.3,5.8,0l2.3-0.4l1-0.2h1.9
	l0.2,0.2h0.2c0,0.1,0,0.1,0.1,0.1h0.1c0.5,0.2,0.4,0.3,0.2,0.2l0.4,0.3c-0.1-0.2-0.1-0.3,0.2,0.2h0.1l0.2,0.3l0.6,1.2l0.3,0.7
	l0.6,1.9l1.8,6.9c1.7,5.3,4.4,10.5,9.7,13c5.4,2.5,11.6,2.9,17.2,0.9c6.9-2.5,12.5-7.5,15.7-14.1c3.4-6.7,5-14.1,6.3-21.4
	c0.4-2.6-0.7-5.5-3.5-6.2s-5.7,0.8-6.2,3.5c-0.6,3.8-1.3,7.5-2.3,11.2c-0.6,1.9-1.1,3.7-1.8,5.5c-0.1,0.1-0.2,0.3-0.2,0.4l-0.6,1.3
	c-0.4,0.8-0.8,1.6-1.3,2.4l-1.5,2.3l-0.2,0.2c0,0.1-0.1,0.1,0,0.1h-0.1l-1,1.2c-0.5,0.6-1.1,1.1-1.7,1.6h-0.1l-1,0.7l-1.8,1h-0.2
	c-0.4,0.1-0.8,0.2-1.1,0.4c-0.7,0.3-1.4,0.5-2.1,0.6l-1.1,0.2h-3.7l-1.8-0.4l-0.8-0.3h-0.3l-1.5-0.9c0-0.1-0.1-0.1-0.1-0.2l-0.9-0.8
	c0-0.1,0-0.1-0.1-0.2l-0.5-0.7c-0.3-0.5-0.6-1.1-0.8-1.7c-0.1-0.1-0.1-0.1-0.1-0.2c-0.2-0.3-0.3-0.6-0.4-0.9l-0.6-2.1
	c-0.4-1.4-0.8-2.8-1.1-4.2c-0.7-2.9-1.8-5.7-3.2-8.3c-2-3.4-5.4-5.7-9.3-6.3c-2.5-0.2-5,0-7.4,0.6h-1.2l-0.3-1.9
	c-0.1-0.3-0.1-0.7-0.2-1.1l-0.3-2.5c-0.2-3.1-0.3-6.1-0.3-9.1c0.1-1.4,0.1-2.8,0.3-4.2c0-0.8,0.1-1.5,0.2-2.3c0-0.3,0-0.6,0.1-0.9
	v-0.5c0.5-2.9,1-5.8,1.8-8.7c1.6-6,4-12.1,3.3-18.4c-0.3-3.1-1.5-6.1-3.5-8.6c-1.3-1.7-3.1-3.1-5.1-4c-1.6-0.7-3.3-1.2-5-1.4
	c1.9-13.9,1.1-28.1,0.4-42c-0.4-8.7-0.8-17.4-0.7-26c0-4.2,0.2-8.3,0.6-12.4l0.3-2.7c0-0.1,0-0.3,0.1-0.4v-0.2l0.3-1.7
	c0.3-1.9,0.6-3.8,1.1-5.7c0.5-2.1,1.1-4.2,1.8-6.2c0.3-1,0.7-2,1.1-3c0.1-0.3,0.2-0.4,0.2-0.5c0,0,0,0,0,0l0.6-1.5
	c0.9-1.9,2-3.8,3.2-5.6c0.5-0.9,1.2-1.8,1.8-2.7c0.1-0.1,0.1-0.1,0.1-0.2l0.2-0.2l1.2-1.4c1.7-2,2.1-5.2,0-7.1
	c-2.1-1.9-5.3-2.1-7.1,0c-11.2,13.1-14.7,30-15.4,46.8s1.3,34.8,1.4,52.3c0,4.7-0.1,9.5-0.5,14.2C707.2,390.8,707,391.9,706.9,393.1
	z M725.1,457.2C725.2,457.4,725.2,457.5,725.1,457.2L725.1,457.2z"/>
<path d="M852,607.9l-6-2.3l-2.9-1.2l-0.4-0.2l-1.9-0.8c-3.8-1.7-7.6-3.5-11.3-5.4c-7.6-3.9-15-8.3-22-13.2c-1.8-1.2-3.5-2.4-5.1-3.7
	c-0.9-0.6-1.8-1.2-2.6-1.9l-0.5-0.4l-1.4-1.1c-3.3-2.6-6.6-5.3-9.7-8.2c-6.4-5.7-12.3-11.7-17.9-18.2c-1.4-1.6-2.8-3.3-4.1-5
	c-0.7-0.7-1.3-1.5-1.9-2.3c0-0.1-0.1-0.2-0.2-0.2l-0.3-0.4l-0.9-1.3c-2.5-3.4-5-6.8-7.3-10.3c-4.7-6.9-9.1-14-13.5-21
	c-8.9-14.2-18-28.4-29.4-40.8c-11.4-12.4-27.4-24.1-44.9-29c-2.2-0.6-4.3-1.1-6.6-1.5c-2.3-0.4-5.5,0.7-6.1,3.5s0.7,5.6,3.5,6.1
	c4.5,0.9,9,2.1,13.3,3.8l1.4,0.6h0.1l0.5,0.2l3.4,1.6l5.9,3.2c2,1.2,4,2.5,5.8,3.8l2.6,1.8c0.1,0.2,0.3,0.3,0.5,0.4l1.4,1
	c3.1,2.6,6.1,5.4,9,8.3c2.9,2.9,5.6,5.9,8.2,9l1.8,2.3l0.9,1.1l0.5,0.6l0.3,0.4l3.5,4.7c4.8,6.7,9.3,13.6,13.7,20.6
	c9.1,14.5,18,29,28.9,42.2c22.2,26.9,50.8,47.7,83.2,60.5l5.9,2.2c2.4,0.9,5.5-1,6.1-3.5C856.1,611.3,854.6,608.7,852,607.9z"/>
<path d="M357.7,485.2l-2-1.1l-0.8-0.5c0-0.1,0-0.1-0.1-0.1h-0.3l-1.5-1.3l-0.9-1.1l-0.4-0.4c-1.2-1.7-2.3-3.5-3.2-5.4l-0.2-0.5h-0.1
	c-0.2-0.5-0.3-1-0.5-1.4c-0.4-1-0.7-2-1-3.1c-1.2-4.2-2.2-8.4-2.9-12.7c-0.4-2.6-3.7-4.2-6.1-3.5c-2.6,0.8-4.2,3.5-3.5,6.2
	c2.2,12.3,5.6,27.1,17.6,33.6c5.3,2.9,11.5,3.8,17.4,2.6c2.9-0.7,5.6-2.1,7.9-4.1c2.2-2.1,3.9-4.7,4.9-7.5c0.9-2.2,1.6-4.5,2.1-6.8
	c0.2-1,0.5-2.1,0.8-3.1c0.2-0.6,0.4-1.1,0.5-1.7l0.3-0.8h0.1l0.6-1.2l0.2-0.3c0.1,0,0.1,0,0.1-0.1c0.3-0.5,0.3-0.4,0.2-0.2
	c0.2-0.1,0.4-0.3,0.5-0.5h0.4c0.1,0,0.1,0,0.1-0.1h2.7l2.6,0.5c4.2,0.6,10.5,0.2,11.8-4.8c0.9-3.8,1.5-7.8,1.6-11.7
	c0.6-7.7,0-15.5-1.5-23.1c-0.9-4.1-2.2-8-3.2-12.1c-0.3-1.1-0.5-2.1-0.7-3.2v-0.4c-0.1-0.5-0.1-1.1-0.1-1.6v-2l0.3-1.3
	c0-0.2,0.1-0.3,0.1-0.4c0.2-0.2,0.3-0.4,0.4-0.7h0.1c0.4-0.3,0.8-0.7,1.2-1.1l0.9-0.6h0.5l0.5-0.2h0.1c0-0.1,0.1-0.1,0.4-0.1h1.2
	c1.2,1.9,3.5,2.9,5.7,2.3c2.1-0.7,3.6-2.6,3.7-4.8c1-11.1,2.3-22.1,3.4-33.1c1.1-11,2-24,2.3-36c0.4-11.8-0.3-23.6-2.1-35.3
	c-1.6-9.9-4.4-20-9.7-28.6c-5-8.7-12.8-15.5-22.1-19.2l-3.4-1c-2.6-0.7-5.4,0.9-6.1,3.5c-0.7,2.6,0.9,5.4,3.5,6.1l3.3,1.1l1.3,0.5
	l0.8,0.3c1.9,1,3.8,2.1,5.6,3.3l0.4,0.3l1.2,1.1c0.8,0.7,1.6,1.4,2.3,2.2l2.1,2.3l0.3,0.4l1,1.3c1.2,1.9,2.4,3.8,3.4,5.7
	s0.9,2.1,1.4,3.1c0.1,0.2,0.2,0.4,0.2,0.6c0.3,0.5,0.5,1.1,0.7,1.7c1.7,4.6,2.9,9.4,3.8,14.3c0.2,1.2,0.5,2.5,0.7,3.8
	c0,0.6,0.1,1.1,0.2,1.7c0.1,0.4,0.1,0.8,0.2,1.2c0.3,2.7,0.5,5.4,0.7,8.2c0.4,5.7,0.5,11.5,0.5,17.2c-0.2,11.8-1,23.6-2.1,35.4
	c-0.9,9.7-2,19.5-3,29.2c-1.7-0.1-3.4,0.1-5,0.6c-5,1.5-8.9,5.5-10.3,10.5c-1.7,6.4,0.4,13,2.2,19.2c0.8,2.8,1.5,5.7,2,8.6l0.3,2.3
	h0.1v0.2c0,0.2,0,0.4,0.1,0.6c0.1,1.6,0.3,3.1,0.4,4.7c0.1,3.4,0.1,6.8-0.2,10.2c0,0.8-0.1,1.5-0.2,2.3c0,0.5-0.1,0.9-0.1,1.4v0.2
	c-0.1,0.1-0.1,0.2-0.1,0.3c-0.1,0.9-0.3,1.7-0.4,2.6h-0.5c-2-0.5-4-0.7-6.1-0.8c-3.7-0.1-7.2,1.4-9.6,4.1
	c-4.1,4.7-4.7,11.1-6.6,16.8c-0.1,0.3-0.2,0.7-0.4,1c-0.3,0.5-0.5,1.2-0.9,1.8l-0.5,0.8l-0.8,0.7c0,0.1-0.1,0.2-0.2,0.2h-0.1
	c-0.5,0.5-0.2,0.1,0.1-0.1l-1.5,1h-0.2l-0.9,0.3l-1.9,0.5h-4.6l-2.1-0.6l-1.1-0.4C358.6,485.4,357.9,485.3,357.7,485.2z"/>
<path d="M887.3,664.1c-3-2.3-8-5.2-9-9.2c-0.3-1,0-5.8,1.8-5.5c4.1,0.7,8-3.3,5.6-7.4c-3.9-6.6-8.4-12.8-13.4-18.6
	c3-0.2,5-3.1,4.5-6.3c-3.5-19.6-12-37.9-24.8-53.2c4.4-1,9-0.7,13.2,0.8c3.5,1.2,7.5-2.6,6.2-6.1c-3.6-10.2-11-18.6-20.7-23.4
	c-2.4-1.2-4.9-2.2-7.5-2.9c-1-0.2-2.8-0.3-3.6-0.9c-0.1-0.7-0.1-1.3,0-2c0.4-5.3,1.2-10.6,2.6-15.8c5.5-21.6,17.9-40.9,35.4-54.7
	c4-3.2-0.4-9.6-4.9-8.3l-12.3,3.5l6.9-13.2c2.5-4.7-2.4-8.7-6.8-6.8c-4.9,2-10,3.3-15.3,3.9c4.5-8.4,8.6-17,12.2-25.8
	c1.2-3-1.9-6.5-4.8-6.4l-7,0.4c6.5-27,15.7-53.2,27.5-78.3c2.5-5.4-3.4-9.6-7.9-6.1c-1.6,1.3-3.2,2.6-4.9,3.8
	c0.7-39.2-19.3-75.5-27.4-113.4c-2.5-11.5-3.5-23.4-2.7-35.2c0.3-4.2-4.4-5.7-7.5-4.3c-57.9,25.5-102.4,73.1-136.3,125.3
	c-8.3,12.7-16,25.7-23.2,39.2c-3.1-4.3-5.7-9-7.6-14c-1.5-3.7-7-5.3-9.2-1.2c-10.9,21-12.3,44.6-18,67.1
	c-4.9,19.3-14,39.6-34.3,46.3c-8.4,2.8-17.3,3.3-26.2,3.2c-4.8,0-9.6-0.2-14.5-0.5s-11.2,0.1-16.9,0c-10.3-0.2-19.7-6.5-26.6-13.8
	c-6.9-7.3-11.7-17.6-14.8-27.6c-7.7-24.7-7.9-51.4-20.1-74.7c-2.2-4.1-7.7-2.5-9.2,1.2c-1.5,4.1-3.6,8.1-6.1,11.7
	c-7.5-29.3-19.2-57.7-36.6-82.6c-17.4-24.9-41.6-47.2-69.5-61.5c-17.7-8.9-36.6-15.2-56.1-18.6c-2.9-0.5-6.6,1.3-6.3,4.8
	c3.9,51.8-7,103.6-2.2,155.3h-2.1c-3.1,0.2-6.3,1.1-9-0.7c-4.6-3-8.8,2.7-6.9,6.8c10.6,22.4,19.7,45.4,25.7,69.4l-12-0.9
	c-4.2-0.2-5.7,4.4-4.4,7.6c4.1,9.7,11.2,17.5,17.3,25.9c-6.6,0.9-13.1,1.6-19.4-0.9c-4.3-1.7-7.5,3.9-5.6,7.3
	c7.5,14.3,16.9,27.5,23.5,42.3c1.2,2.7,2.5,5.7,2.6,8.6c0.1,2.9-0.6,2.7-2.7,3.1c-6.5,1.2-12.9-3.5-18.6-6.2c-4.2-2-9.6,2.3-6.8,6.9
	c2.8,4.6,5.5,8.7,8.6,12.8c3.1,4.1,6.7,6.8,10,10.4s9.4,13.2,2.6,15.6s-14.5,2.1-21.5,3.7s-15.6,5.9-19.8,13.4
	c-1.1,1.7-0.9,4,0.4,5.5c1.2,1.7,3.3,2.4,5.3,1.8c5.2-1.4,11.8-1.3,16,2.5s4,13.8,3.5,20.8c-15.6,5.6-27.3,18-36.7,31.3
	c-2.4,3.5-4.7,7-7,10.6s-2.2,3.7-2.3,6.1c-0.1,2.4-1.3,3.2-2.3,5.2c-4.5,8.1-7.3,17-8.3,26.2v0.2c0,0.3,0,0.7-0.1,1
	c0,0.5,0,0.9-0.1,1.4c0,0.2,0,0.5,0.1,0.7c0,1.5,0.9,2.9,2.3,3.5c1.6,1.1,3.6,1.1,5.2,0.1c3.7-2.7,7.8-4.9,12.1-6.3
	c2.2-0.8,4.5-1.3,6.8-1.7l1-0.2h0.8c2.6-0.3,5.3-0.5,7.9-0.5c1.1,0,2.1,0.1,3.2,0.3h0.7c0.8,1.7,2.4,2.8,4.3,2.8c2.4,0,5.4-2.3,5-5
	c-1.2-8.9-11.8-8.5-18.7-8c-6.6,0.6-13.1,2.2-19.2,4.8c1.4-5.3,3.5-10.5,6.2-15.3c0.9-1.8,2.3-3.6,2.8-5.7s0-2.5,1.3-4.5
	s4.2-6.6,6.4-9.8c8.7-12.4,19.6-24.4,34.7-28.6c2.2-0.7,3.6-2.6,3.7-4.9c0.1-10.7,2.3-24.2-6.8-32.1c-2.8-2.3-6.1-4-9.6-4.9
	c3.5-1.1,7.1-1.8,10.8-2.3c7.1-1,16.5-0.9,21.7-6.8s2.2-18.2-2.8-24.9c-2.9-3.9-6.8-6.7-9.9-10.3l-0.2-0.2c3,0.7,6.2,0.9,9.3,0.4
	c8.6-1.5,11.8-8.8,10.2-16.9c-1.6-8.1-6.7-17-10.9-24.5c-4.2-7.5-7.2-12-10.8-18c6.6,0,13.2-1.4,19.8-1.9c3.6-0.3,6.4-4.1,4.3-7.5
	c-5.2-8.5-12.1-15.9-17.3-24.3c3.3,0.3,6.6,0.6,9.9,0.7c3.3,0.1,5.5-3.3,4.8-6.3c-5.4-24-14-47-24.1-69.3c2.8-0.3,5.8-0.9,8.2,0.7
	c2.4,1.6,8-0.5,7.6-4.3c-6.2-51.9,4.7-103.8,1.9-155.8c29.3,6.3,56.9,18.7,79.9,38.1c23,19.4,41.7,45.8,54.2,74.1
	c7.3,16.8,12.9,34.2,16.8,52.1c0.8,3.6,5.9,4.9,8.4,2.2c3.7-4.1,6.9-8.5,9.6-13.3c7.4,19.4,8.5,40.8,14.3,60.8s19,42,41.1,49.2
	c6.2,1.9,12.3,1.6,18.6,1.4s10.5,0.4,15.7,0.6c9.9,0.5,19.8,0.4,29.6-1.6c9.6-1.8,18.6-6.1,25.9-12.6c8.4-7.5,14-17.7,17.9-28.2
	c8.5-22.4,8.7-47.3,17.3-69.6c2.7,4.8,5.9,9.2,9.6,13.3c2,2,5.3,1.9,7.2-0.1c0.3-0.3,0.5-0.6,0.7-0.9
	c28.4-53.8,64.7-106,114.7-141.9c11.6-8.3,23.9-15.6,36.8-21.8c-0.1,40.3,20.9,77.1,28.2,116.3c2.3,11.6,2.8,23.4,1.5,35.1
	c-0.4,4.1,3.8,5.4,6.9,4.4c-9.4,22.4-16.8,45.6-22.1,69.3c-0.7,3.1,1.4,6.5,4.8,6.4l5.7-0.3c-3.8,8.4-8,16.6-12.8,24.5
	c-2,3.4,0.7,7.3,4.4,7.5c5.5,0.3,11.1-0.2,16.5-1.4l-6.7,12.8c-2,3.7,1.2,8.6,5.6,7.3l4.2-1.2c-7.7,9.1-14,19.3-18.6,30.3
	c-3.6,8.7-6,17.8-7.2,27.1c-0.6,4.4-1.7,9.8,0.9,13.8s7.1,4.3,11.2,5.6c6,2,11.2,5.7,14.9,10.8c-5.7,0-11.3,1.4-16.3,4.2
	c-2.4,1.5-3.2,4.6-1.7,7c0.2,0.3,0.4,0.5,0.6,0.8c12.8,13.4,21.7,30,25.9,48.1c-2.1,0.5-4,1.4-5.7,2.6c-2.5,2-3.5,5.4-1,7.9
	c5.5,5.4,10.4,11.4,14.6,17.9c-5.2,3.9-7.1,12.5-3.8,18.9s7.8,8.5,12.4,12c3,2.4,8.7,7.3,6.3,11.8s5.6,10.7,8.6,5
	C902.7,679.4,895.1,670,887.3,664.1z"/>
<path d="M476.7,441.1c-20.7,3.7-38.9,16.3-52.5,32c-13.6,15.7-22.5,32.2-30.3,50.2c-4,9.1-7.5,18.3-10.9,27.6
	c-1.6,4.7-3.3,9.5-5.1,14.2c-0.9,2.3-1.7,4.5-2.6,6.7l-1.4,3.3c-0.1,0.3-0.2,0.5-0.4,0.8c-0.2,0.6-0.5,1.1-0.7,1.7
	c-3.5,8-7.4,15.9-11.9,23.4c-2,3.4-4.2,6.7-6.6,9.9l-0.9,1.1c-0.1,0.1-0.2,0.3-0.2,0.3l-1.8,2.2l-3.7,4.2c-2.5,2.5-5.1,4.9-7.8,7.1
	l-0.8,0.6c-0.1,0.2-0.2,0.3-0.4,0.3l-2.1,1.6l-4.3,2.7c-1.5,0.9-3,1.7-4.6,2.4l-2.1,1h-0.2c-0.1,0-0.2,0-0.2,0.1l-1.3,0.5
	c-3.3,1.2-6.7,2.2-10.2,3l-5.2,0.9c-2.6,0.4-4.3,3.8-3.5,6.1s3.4,3.9,6.2,3.5c14.5-2.1,28.1-8.5,39-18.4c12-10.8,20.6-25,27.5-39.4
	c4.3-8.9,8.1-18.1,11.5-27.4c3.4-9.3,6.4-18.3,10-27.2l1.4-3.3l0.6-1.4v-0.2c0.2-0.3,0.4-0.7,0.5-1c0.9-2.2,1.9-4.4,2.9-6.6
	c2-4.4,4.1-8.8,6.4-13.1c4.5-8.6,9.7-16.9,15.5-24.7l0.4-0.4l1.2-1.5l2.1-2.6c1.6-1.8,3.2-3.6,4.9-5.3c3.1-3.4,6.5-6.5,10.1-9.4
	c0.2-0.2,1.8-1.5,0.8-0.6l1.2-0.9l3.5-2.5l6.8-4.1c2.3-1.3,4.7-2.4,7.1-3.5h0.2l1-0.4l1.8-0.7l4.1-1.4c2.5-0.7,5.1-1.3,7.6-1.8
	c2.6-0.7,4.2-3.5,3.5-6.1C482,442,479.3,440.5,476.7,441.1z"/>
</svg>
