<?xml version="1.0" encoding="utf-8"?>
<!-- Generator: Adobe Illustrator 24.2.3, SVG Export Plug-In . SVG Version: 6.00 Build 0)  -->
<svg version="1.1" id="f022e5c2-8146-4ac7-8f9c-b6750b4b5638"
	 xmlns="http://www.w3.org/2000/svg" xmlns:xlink="http://www.w3.org/1999/xlink" x="0px" y="0px" viewBox="0 0 1152 864"
	 style="enable-background:new 0 0 1152 864;" xml:space="preserve">
<path d="M451,307.2c-1.6-2-5.4-1.8-7.1,0s-1.7,4.9,0,7.1l0.5,0.7c0.3,0.5,0.7,1,1.1,1.4l1.7,2.5l3.4,5.1c2.2,3.6,4.3,7.3,6.1,11
	c0.9,1.9,1.8,3.7,2.6,5.6l0.3,0.7l0.6,1.4l1.2,3c0.3,0.7,0.5,1.5,0.8,2.2c-2.6-0.9-5.2-1.6-7.8-2.3c-7.5-2-15-3.4-22.7-4.2
	c-7-0.9-14.1-1.1-21.1-0.5c-3.3,0.3-6.6,0.8-9.8,1.7c-1.6,0.4-3.2,0.9-4.6,1.7c-3,1.8-3.1,5.9-1.6,8.6c0.9,1.6,2.3,2.8,4,3.5
	c0.8,0.5,1.7,0.9,2.6,1.2h0.1l0.7,0.4c-0.1,0-0.1,0-0.1,0.1h-0.1v0.1h-0.3l-1.3,0.4c-2.5,0.7-4.9,1.6-7.2,2.6c-4.1,1.7-8,4-11.6,6.6
	c-4.1,3-10,7.1-9.9,12.7c0,2.8,1.4,4.7,2.7,7c0.5,1,1.2,2,1.9,2.9c1.1,1.5,2.2,2.9,3.4,4.3l1.4,1.8l0.6,0.7l0.2,0.3
	c0.9,1.1,1.7,2.3,2.4,3.5l0.2,0.3c-1.5,1.1-3,2.2-4.4,3.4c-3.2,2.7-6.2,5.6-8.9,8.8c-5.8,6.8-10.3,14.6-13.4,23
	c-0.7,2-1.3,3.9-1.8,5.9c-0.9,2.6,0.4,5.5,3,6.4c2.6,0.9,5.5-0.4,6.4-3c0.1-0.2,0.2-0.5,0.2-0.7c0.7-2.6,1.5-5.1,2.5-7.6l0.3-0.7
	c0.3-0.6,0.5-1.2,0.8-1.7s1.2-2.5,1.9-3.7c1.2-2.4,2.6-4.7,4.2-6.8c0.3-0.5,0.6-1,1-1.4l0.7-1l2.6-3c1.7-2,3.5-3.8,5.5-5.5l2.9-2.6
	h0.2l0.5-0.4l1.8-1.2c1.3-0.8,2.4-1.8,3.3-3c0.7-1.1,1-2.3,1.1-3.6c0.1-2-0.4-4-1.4-5.7c-1.7-3.6-4.5-6.7-7-9.8
	c-0.6-0.6-1.1-1.3-1.7-2c-0.6-0.7-0.1-0.1-0.1-0.2l-0.9-1.2l-0.9-1.5l-0.9-1.5c0-0.1,0-0.1-0.1-0.1h0.1c0.2-0.3,0.4-0.5,0.7-0.7
	c1-1,2.1-2,3.3-2.9l0.3-0.3l0.7-0.5l1.7-1.2c1.1-0.8,2.3-1.5,3.5-2.2l3.8-1.9l1.7-0.8h0.2l1.1-0.4c2.7-1,5.4-1.7,8-2.9
	c2.6-1.2,5.7-3.7,6.4-7s-0.7-6.8-3.4-8.8h1.3c4.9-0.4,9.9-0.4,14.8,0c2.5,0.1,5.1,0.4,7.6,0.7h0.1l1,0.2l1.7,0.2l4.2,0.7
	c5,0.9,9.9,2.1,14.7,3.5l7.1,2.3l1.7,0.7l0.6,0.2h0.1l2.8,1.3c1.8,1,4,0.8,5.6-0.4c1.6-1.3,2.2-3.4,1.7-5.3
	C470.2,337.9,462.1,321.5,451,307.2z"/>
<path d="M948.6,549.1l9.7,3.8c1.7,0.5,3.6,0,4.9-1.3c1.4-1.4,1.5-3,1.3-4.9c-4.2-30.1-22.1-55.6-35.5-82.2
	c-2.4-4.9-4.7-9.8-6.7-14.9l14,2.7c2.7,0.7,5.5-1,6.2-3.7c0.2-0.8,0.2-1.7,0-2.5c-3.2-15.9-10.1-30.8-20.1-43.5
	c-6.9-8.8-17.4-17.6-20.8-28.8c6.3-0.4,12.5-2.1,18.1-5c2.5-1.2,3.1-4.6,1.8-6.8c-13.5-22.9-29.5-44.2-47.8-63.5
	c-5.2-5.5-10.6-10.8-16.1-15.9c-0.1-0.1-0.2-0.1-0.2-0.2c-1.4-3.6-3-7.1-4.8-10.5c-3.8-8-8.2-15.7-13.3-22.9l11.9-3.6
	c2.7-0.7,4.2-3.5,3.5-6.2c-0.1-0.4-0.3-0.8-0.5-1.1c-12.5-21.8-31.4-39.2-54.1-50l6-3.5c2.4-1.4,3.2-4.6,1.8-7
	c-0.2-0.3-0.4-0.6-0.7-0.9c-16.4-15.5-37.6-25-60.1-26.8l11.5-10.8c2.7-2.6,1.3-7.4-2.2-8.4c-19-5-38.8-6.1-58.3-3.3
	c4.9-4.4,10.4-8.2,16.3-11.3c4.2-2.3,2.4-7.6-1.2-9.2c-11.3-4.7-23.5-4.3-35-0.8c-4.2,1.3-8.3,3.5-12.7,3.4c-1.1,0-2.1-0.3-3.1-0.7
	c-0.4-0.3-0.6-0.5-0.5-0.3l-0.3-0.4c-0.4-3.6,3.5-7.2,4.3-10.7c1.3-5.5-2.4-10.3-7.7-11.5c-9.5-2.1-19.6,4.8-26.6,10.3
	s-13.1,12.6-20.9,17c-1.4-2.8-3-5.6-4.8-8.2c-2.8-3.7-5.9-7.1-9.3-10.1c-6.5-5.6-14.7-12.7-23.8-12.6c-9.1,0.1-15,6.9-19.4,13.9
	c-2.5,3.9-4.8,8-7.2,12.1c-1,2-2.2,3.9-3.4,5.7l-1.2,1.3c-0.1,0.2-0.3,0.3-0.5,0.4c-1.9-0.7-3.6-2.4-5.2-3.6s-3.9-2.7-5.9-4
	c-4.2-2.6-8.6-4.8-12.9-7.1c-9-4.7-18.1-9-27.5-12.8c-5.8-2.3-14.3-4.9-20.1-1.6c-3.3,2-5.3,5.4-5.6,9.2c-0.4,4.3,1.7,7.9,3.1,11.7
	c0.3,1,0.3,0.3-0.1,0.8l-1.1,1c-1.1,0.6-2.3,0.9-3.6,0.9c-1.7,0-3.1-0.8-4.9-1.5c-2.6-1-5.2-1.9-7.8-2.6
	c-10.9-2.9-22.5-2.7-33.3,0.8c-3.9,1.3-5.2,7.1-1.2,9.2c5.9,3.1,11.4,6.9,16.3,11.3c-19.5-2.8-39.3-1.7-58.3,3.3
	c-3.5,1-4.9,5.8-2.2,8.4l11.5,10.8c-22.5,1.8-43.7,11.3-60.1,26.8c-1.9,2-1.9,5.3,0.2,7.2c0.3,0.3,0.6,0.5,0.9,0.7l6,3.5
	c-22.7,10.8-41.6,28.2-54.1,50c-1.4,2.4-0.5,5.5,1.9,6.8c0.4,0.2,0.7,0.4,1.1,0.5l12,3.6c-4.2,6-7.9,12.3-11.1,18.9
	c-2.4,4.6-5.2,9.4-6.9,14.4l-0.4,0.3c-19.5,18-36.9,38.2-51.8,60.2c-4.2,6.3-8.3,12.7-12.1,19.2c-1.3,2.2-0.7,5.6,1.8,6.8
	c5.6,2.9,11.8,4.6,18.1,5c-3.4,11.2-13.9,20-20.8,28.8c-10,12.7-16.9,27.6-20.1,43.5c-0.7,2.7,1,5.5,3.7,6.2c0.8,0.2,1.7,0.2,2.5,0
	l14-2.7c-10,25.2-26.3,47.5-35.9,73c-2.9,7.8-5.1,15.9-6.3,24.1c-0.2,1.9-0.1,3.5,1.3,4.9c1.3,1.3,3.2,1.8,4.9,1.3l9.7-3.8
	c-11,30-16.8,61.7-17.3,93.7c-0.1,3.5,3.2,5.3,6.3,4.8l7.5-1.3c0.8,16.4,2.2,32.7,4.3,49c1.1,9.3,2.5,18.5,4.1,27.7
	c0.7,4.1,1.5,8.2,4.2,11.5c2.4,2.8,6,4.5,9.7,4.4c6.4-0.2,11.8-4.7,15.8-9.7c4.4,3.5,9.1,6.7,14.6,8.1s14,0.9,19.4-3.5
	c5.4-4.4,6.5-9.8,7.3-15.7c0.5-3.1,0.6-5.3,1.2-8.3c0.2-0.5,0.3-0.9,0.4-1.4c3.1,2.9,6.5,5.5,10.7,6.6c6,1.7,13.1,0.4,17.1-4.7
	c2.2-2.8,3-6.2,3.9-9.6c0.9-3.4,1.6-7.1,2.3-10.6c1-5.4,1.9-10.7,2.5-16.1c4.5,1.1,9.1,1.4,13.7,0.9c5.1-0.8,10-2.7,14.2-5.7
	c5.7-3.9,10.1-9.4,12.8-15.7c1.3,2,3,3.7,4.9,5.1c2.7,1.9,5.9,3,9.2,3.3c4.7,0.4,9.2-1.7,12-5.5c4.8,3.4,8.1,9.4,11.5,13.8
	c3.4,4.4,5.5,6.8,9.4,8.9c3.9,2.1,9.1,5,14.3,4.6c5.2-0.4,9.4-3,10.7-7.8c0.7-2.7-0.5-4.7-1.4-7.1c-1-2.5-1.8-5.1-2.5-7.7
	c-2.6-9.7-3.8-19.7-3.5-29.8c0.3-11.2,1.8-22.4,4.5-33.3c1.5-6.2-8.2-8.9-9.7-2.6c-6.2,25.7-7.3,53.2,2.4,78.1
	c-0.7,0.3-1.5,0.4-2.3,0.2c-2.3-0.3-4.5-1.7-6.6-2.8c-3.8-2-6.4-5.3-9-8.8c-5.2-7-10.2-14.5-19-17.2c-2.6-0.7-5.4,0.9-6.1,3.5
	c-0.8,3.7-3.3,4.4-6.8,2.8s-3.7-3.3-5.1-5.6c-1.9-3.2-3.6-6.5-5.1-9.9c-5.2-11.4-8.1-23.6-10.3-35.8c-0.3-1.8-0.7-3.7-0.9-5.2
	c-0.1-0.3-0.2-0.5-0.2-0.8h-0.1c0-0.2-0.1-0.5-0.2-0.7c-0.1,0-0.1,0-0.1-0.1l-0.3-0.4l-0.3-0.3h-0.1l-0.4-0.3h-0.1
	c-0.7-0.4-1.6-0.7-2.4-0.8c-1.5-0.1-3,0.4-4.2,1.4c-1.3,1.2-2.3,2.6-3.6,3.8l-0.5,0.6c-0.4-1.8-1.1-3.4-1.4-5.3s-0.6-5.1-1.1-7.6
	c-2.2-10.3-0.5-21.7,3.7-31.4c2-4.6-2.1-9-6.8-6.8c-4.7,2.2-9.6,5.4-15,6.9l-1.3,0.3h-0.3c0-0.2-0.1-0.4-0.1-0.6
	c-1-4.2-0.4-8.8,0.2-13c2.9-20.2,9-39,20.8-55.8c1-1.4,1-3.3,0.1-4.8c-0.8-1.7-2.5-2.7-4.4-2.7c-1.8,0-3.7,0-5.5,0.2
	c-0.7,0-2.2,0.2-2.9-0.3c-0.7-0.5-2.2-5.7-2.2-7.6c-0.1-6,3.1-11.6,6.1-16.6s7.4-10.7,10.2-16.6c1.3-2.9,2.4-6.1,3.7-9
	c1.4-3.1,2-6.4,1.7-9.8c0.1-0.7,0-1.4-0.3-2c-0.3-0.7-0.8-1.2-1.3-1.7l-0.3-0.3c-0.9-0.7-2-1.1-3.1-1c-5.9,0.6-13.9,0.5-18.4-4.2
	c-2.6-2.6-2.8-5.7-1.8-9.2s4.9-7.6,6.7-11.9c0.7-1.7,1.7-3.2,2.9-4.6c1.8-1.8,3.9-3.8,4.6-6.3s0.8-7.6-1.4-10.5
	c-3.6-4.9-9.6-4.5-14.7-6.6l-0.9-0.5c-0.1,0-0.1,0-0.1-0.1c-0.2-0.1-0.3-0.2-0.4-0.4c-1-1.2-1.7-2.5-2.1-4c-0.9-3-0.2-6,0.8-8.9
	c2.6-7.3,7.8-13.5,12.1-19.9c1.9-2.9,5.4-7.1,5.4-10.7c0-4-1.5-7.9-4.2-10.8c-2.2-2.2-5-3.6-8-4.1c-2.9-0.6-6.1-0.7-8.4-1.1
	c-2.3-0.4-4.9-1.7-5.5-5.5c-0.6-3.8,2.1-9.2,4.1-13.3c5-10.1,9.9-20.4,17.3-28.9c1.9-2,1.9-5.3-0.2-7.2c-0.6-0.5-1.3-1-2-1.2
	l-12.7-3.8c13-20.1,32.1-35.5,54.4-44.1c3.9-1.4,5.1-6.8,1.2-9.1l-8.6-5.1c17.1-13.9,38.7-20.9,60.6-19.7c4.3,0.2,6.6-5.7,3.5-8.5
	l-13.7-12.8c19.6-3.8,39.8-3.3,59.2,1.6c3.8,0.9,8.5-3.7,5.7-7.4c-5.3-7-11.6-13.2-18.6-18.4c5-0.4,10,0,14.9,1.3
	c4.3,1,8.3,3.2,12.6,4.3c3.4,0.8,7,0.4,10.3-0.9c3.3-1.3,6-3.8,7.5-7c1.8-4.1,0.2-7.7-1.4-11.6c-0.6-1.2-1-2.5-0.9-3.8
	c0.1-0.4,0.2-0.8,0.3-1.2h0.2c1.9-0.6,4.9,0.2,7.1,0.8c8.5,2.1,16.7,6.6,24.6,10.5c7.9,3.9,17,8.6,24.7,14.1
	c3.7,2.6,7.1,5.7,11.9,4.9c4.8-0.8,6.8-3.7,9-6.9c4.7-7,7.8-15.3,13.3-21.7c2.4-2.7,5.3-5.2,9.1-4.7s8.2,4,11.6,6.5
	c3.9,3.1,7.6,6.5,10.8,10.3c3.3,3.9,5.1,8.7,7.7,13.1c1,1.7,3.7,3.2,5.7,2.3c8.9-3.7,15.8-9.9,23-16.2c3.2-3,6.7-5.7,10.3-8.2
	c3.2-2,7.6-4.6,11.6-4.5h1.2c-1,1.8-2,3.6-2.8,5.4c-1.7,3.9-2.4,8.4-0.2,12.2c4,6.9,13.8,7.3,20.6,5.1c6.8-2.2,11.6-4.3,17.8-4.8
	c2.7-0.3,5.3-0.2,8,0.1c-7.4,5.3-14,11.7-19.5,19c-2.8,3.7,1.8,8.3,5.7,7.4c19.4-4.9,39.6-5.4,59.2-1.6l-13.7,12.8
	c-3.1,2.8-0.8,8.7,3.5,8.5c21.9-1.2,43.5,5.8,60.6,19.7l-8.6,5.1c-3.9,2.3-2.7,7.7,1.2,9.1c22.3,8.6,41.4,24,54.4,44.1l-12.7,3.8
	c-2.7,0.7-4.2,3.5-3.5,6.1c0.2,0.9,0.7,1.6,1.3,2.3c6.2,6.9,10.7,15.2,14.9,23.5c2,4,4.4,8.1,6,12.3c0.8,2.3,1.8,6.3-0.2,8.4
	c-2,2.1-4.1,2.2-6.1,2.9c-2,0.7-5.6,1.8-8.3,2.9c-5.3,2.1-11.2,5.4-11.4,11.9c0,3.2,0.9,6.2,2.8,8.8c2.7,4.1,5.6,7.9,8.2,12
	c2.4,3.8,4.6,7.7,6.6,11.8c1.5,3.1,4.3,7.1,2.5,10.5c-1.8,3.4-7.4,3.2-10.6,3.5c-4.2,0.5-7.9,3.2-9.5,7.2
	c-3.7,8.5,2.2,15.7,7.2,22.1c5,6.4,10.1,12.7,5.2,18.8s-13.2,5.5-19.4,4.9c-0.5-0.1-1,0-1.4,0.2c-0.5,0.1-1,0.3-1.4,0.7
	c-1.4,0.9-2.2,2.5-2.2,4.1c-0.7,6.3,3.2,11.9,5.3,17.6c1.2,3.2,3.7,6.2,5.4,9.2s3.5,6,5,9.1c2.9,5.8,5.4,12.5,5.9,19
	c0.4,4.9-5.4,5.5-9,4.9h-1.4c-1.8-0.1-3.5,0.9-4.3,2.5c-1.2,1.5-1.2,3.5,0,5c11.6,20.9,23.8,44.8,20.1,69.4
	c-5.6-0.7-10.8-5-15.8-7.2c-2.5-1.3-5.6-0.3-6.9,2.2c-0.3,0.6-0.5,1.3-0.5,2.1c0,0.9,0.2,1.7,0.6,2.5l0.6,1.3
	c4,8.7,6.2,18.8,4.9,28.5c-0.6,4.7-2.2,9.2-4.7,13.2l-0.4-0.4c-1.5-1.8-3.4-3.1-5.5-4c-1.3-0.4-2.7-0.2-3.9,0.5
	c-0.7,0.3-1.3,0.9-1.7,1.6c-0.3,0.4-0.5,0.9-0.6,1.4c-2.4,10.4-4.3,20.9-7.6,31.1c-1.6,5.1-3.7,9.9-6.3,14.6
	c-2.3,4.3-5.1,9-9.2,11.9c-1.3,0.9-2,1.2-2.9,0.3s-2.2-2.9-3.4-4.3c-2.9-3.4-7.1-4.5-11.1-2.2s-5.9,6.3-8.2,9.5s-4.4,6.3-6.8,9.3
	s-5.3,6.2-9,7.8c-1.4,0.5-2.8,0.8-4.3,0.7c-0.7-0.1-1.3-0.2-2-0.4c8.7-25,9.4-52.2,2-77.6c-1.8-6.2-11.5-3.5-9.7,2.6
	c5.3,17.9,6.3,36.8,2.7,55.1c-0.8,4.5-2,9-3.4,13.4s-3.4,8.2-0.4,12.4s12.7,5.4,18.1,3.3c11.8-4.6,17.1-16.9,24.8-25.9l0.5-0.6
	l0.4,0.5c2.1,2.9,4.3,5.6,7.9,6.6c7.5,2.3,13.9-4.4,18.1-10.2c2.6,6.7,7.2,12.5,13.2,16.6c4.2,3,9,5,14.1,5.7
	c4.6,0.5,9.3,0.2,13.8-0.9c0.6,5.2,1.4,10.5,2.4,15.6s1.5,7.4,2.4,11.1s1.7,6.8,3.9,9.6c3.9,5,10.8,6.3,16.8,4.8
	c4.3-1.1,7.8-3.7,11-6.7c0.1,0.4,0.2,0.8,0.3,1.2c0.7,3,0.8,5.3,1.3,8.5c0.8,5.9,2.5,11.9,7.3,15.7s12.8,5.2,19.4,3.5
	s10.2-4.6,14.6-8.1c3.3,4.2,7.6,7.9,12.6,9.2c3.7,1.1,7.7,0.3,10.7-2c3.3-2.4,5-6.1,5.8-10c1.9-9,3-18.1,4.2-27.2s2.3-18.2,3.1-27.4
	s1.3-17,1.7-25.5l7.5,1.3c3.1,0.5,6.4-1.3,6.3-4.8C965.5,611,959.6,579.2,948.6,549.1z M313.4,597.1c-0.1,0.2-0.2,0.2-0.2,0.2
	L313.4,597.1z M287.3,307.8c2.8,0.3,4.4,0.1,6.9,1.1l0.6,0.4l0.7,0.5c0.6,0.9,1,1.9,1.2,2.9c-4.5,8.9-11.5,16.2-15.6,25.3
	c-4.1,9.1-4.8,22.6,5.2,28.4c3.2,1.9,6.9,2.3,10.5,3.3l0.9,0.3h0.3l0.5,0.3c0,0.1,0,0.1,0.1,0.1h0.1c0.2-0.2,0.2-0.2,0.1,0l0.3,0.3
	h-0.3c0.1,1.1-0.2,1.4-1,2.3c-0.8,0.9-4.1,4.3-5.4,7.2s-3.4,5.1-5,8c-3.3,5.6-5.3,12.7-3,19c3.3,9.1,12.3,13.1,21.4,14
	c0.2,1,0.5,2,1.1,2.9l0.3,0.6l-0.9,1.8c-1.3,3.3-2.8,6.5-4.6,9.5c-3.8,6.3-8.3,12.3-11.2,19.1c-2.9,6.8-4.2,14.2-1.5,21.3
	c1.4,3.9,3.4,7.4,7.5,8.9l1.4,0.4c-0.1,0.7-0.2,1.3-0.1,2c-7.3,13.2-12.3,27.5-14.8,42.4c-1.3,8.1-3.3,17-1.2,25.1s8.2,8.6,14.6,6.8
	c2-0.5,3.9-1.2,5.7-2c-0.7,3.2-1.3,6.4-1.6,9.7c-0.3,3.6-0.3,7.3,0,10.9c0.2,3.5,1.3,6.7,1.7,10.1c0.7,5.9,1.9,14.4,8.7,16.2
	c2.3,0.7,4.8,0.4,6.8-0.8l0.6,0.7c2.1,11.5,5.6,22.8,10.2,33.5c-0.2,0.5-0.3,1.1-0.3,1.7c-0.3,7.4-4.7,14.7-11,19
	c-3.1,2.2-6.7,3.6-10.5,4.1c-4.9,0.6-10-0.8-14.8-2.2c-3.3-1-6,1.7-6.3,4.8c-0.6,5.9-1.4,11.8-2.4,17.6s-2,11.6-3.9,16.9
	c-1.3,3.5-4.3,4.1-7.5,3.2s-7.8-5.5-10.8-8.8s-5.2-1.8-7,0c-4,3.8-5.5,9-6.2,14.4c-0.7,5.4-0.7,10-3.3,13.7c-2.6,3.7-7.2,4-11.1,3.1
	c-6-1.3-10.8-5.6-15.4-9.6c-2.4-2-6.1-1.9-7.8,1.1c-1.5,2.4-3.3,4.6-5.3,6.6c-1.5,1.4-3.3,2.5-5.3,3c-0.3,0.1-0.1,0.1-0.6,0
	s-0.3,0-0.8-0.4c-0.7-0.7-1.3-1.5-1.6-2.5c-1.2-3.4-1.5-7.2-2.1-10.8c-2.5-15.7-4.4-31.5-5.7-47.3c-0.8-9.1-1.3-18.3-1.7-27.5
	c-0.1-3.5-3-5.4-6.3-4.8l-7.1,1.2c1.3-32.7,8.3-64.9,20.7-95.2c1.4-3.4-2.8-7.5-6.1-6.1l-11.9,4.6c6.1-25.8,21.7-48.2,33.4-71.8
	c3.9-7.7,7.2-15.7,10-23.9c1.3-3.9-2.7-6.8-6.2-6.1l-15.1,2.8c3.6-12.5,9.7-24.1,17.9-34.2c9.6-11.5,21-22.4,22.5-38.1
	c0-2.8-2.2-5-5-5c-4.8,0.3-9.7-0.2-14.3-1.7c14.6-23.8,32.1-45.8,52-65.4c1.1,3.5,3.4,6.6,6.5,8.6
	C280.9,306.7,284.1,307.6,287.3,307.8z M656.2,95.2c-0.3,0.4,0-0.1,0.1-0.2C656.5,94.9,656.5,94.8,656.2,95.2z M731.7,672.7
	C730.8,672.7,731.4,672.6,731.7,672.7L731.7,672.7z M765.9,654.3c0,0.1,0,0.1,0.1,0.2C765.9,654.4,765.8,654.4,765.9,654.3z
	 M948.7,635.6c-3.3-0.6-6.2,1.3-6.3,4.8c-0.7,16.2-1.9,32.3-3.8,48.4c-0.9,7.8-1.9,15.6-3.2,23.4c-0.6,3.8-1.1,7.7-1.9,11.5
	c-0.2,1.3-0.6,2.5-1.2,3.6c-0.2,0.4-0.5,0.8-0.8,1.1l-0.7,0.4L930,729c0.9-0.2-0.5-0.2-0.1-0.1l-1.3-0.3c-1.1-0.5-2.1-1.1-3.1-1.8
	c-2.5-2.1-4.6-4.7-6.2-7.5c-1.7-3-5.4-3.1-7.9-1.1c-4.4,3.9-9.1,8.1-15,9.6c-4,0.9-9.1,0.2-11.4-3.1s-2.6-8.9-3.2-13.4
	s-2.2-10.8-6.3-14.7c-1.8-1.8-5.2-2.1-7,0s-6.3,7.5-10.8,8.8s-6.2,0.3-7.5-3.2c-1.9-5.3-2.8-11.3-3.9-16.9s-1.8-11.7-2.4-17.6
	c-0.3-3.1-3-5.8-6.3-4.8c-4.9,1.4-9.7,2.8-14.8,2.2c-3.8-0.6-7.4-2-10.5-4.1c-6.3-4.3-10.7-11.6-11-19c0-0.7-0.2-1.4-0.5-2
	c4.8-10.3,7.5-21.6,10-32.8c0.5-0.3,0.8-0.8,1.1-1.3c2.2,1.5,5.2,1.7,7.5,0.3c2.9-1.8,4.9-5.7,6.4-8.7c1.5-3.2,2.7-6.5,3.5-9.9
	c1.8-9,1.3-18.3-1.2-27.1h0.1c4.5,2.1,9.6,2.8,14.5,2.1c1.7-0.4,3.1-1.8,3.5-3.5c5.3-24.7-3.6-48.3-14.8-70c0.4-1.1,0.5-2.3,0.1-3.4
	c0-0.1,0-0.2-0.1-0.3c3.1-0.8,5.8-2.7,7.7-5.2c4.9-6.4,2.1-15.7-0.2-22.6c-2.3-6.9-6.5-14.7-10.6-21.6c-1.1-1.6-2.2-3.3-3.1-5
	c-0.8-1.7-1.4-3.5-2.1-5.1l-0.6-1.3c0-0.1,0.1-0.2,0.1-0.3c0.5-0.9,0.9-1.8,1.1-2.8c4.9-0.3,9.6-1.8,13.7-4.3
	c7.3-4.8,10.5-13,8.1-21.3s-8.7-13.8-12.9-20.9c-1.1-1.7-3-5.3-0.2-6.7h1.5l3.9-0.5c2.7-0.5,5.2-1.4,7.7-2.5
	c4.4-1.9,7.1-7.2,7.5-11.9c0.4-4.7-2.4-9.5-4.4-13.6c-2-4.4-4.4-8.6-7-12.6c-2.7-4.3-6-8.2-8.5-12.5c-0.3-0.4-0.5-0.9-0.7-1.4
	c-0.1-0.2-0.2-0.5-0.2-0.8c-0.1-0.1-0.1-0.3-0.1-0.4c0,0.1,0.1,0,0.1-0.1c0-0.1,0.7-0.6,0.2-0.1l0.3-0.3l0.3-0.2
	c0.5-0.4,1.1-0.7,1.7-1c1-0.6,2.1-1.1,3.2-1.4c5.8-2.1,13.4-3.4,17.6-8.2c1-1.2,1.8-2.5,2.5-3.9c19.9,19.6,37.3,41.5,51.9,65.3
	c-4.6,1.5-9.5,2-14.3,1.7c-2.5-0.2-5.3,2.4-5,5c1.5,15.7,12.9,26.6,22.5,38.1c8.2,10,14.3,21.6,17.9,34.1l-15.2-2.8
	c-3.4-0.7-7.4,2.2-6.1,6.1c9.6,28.6,28.3,52.8,38.9,80.9c1.8,4.8,3.3,9.8,4.5,14.8l-11.9-4.6c-3.3-1.4-7.5,2.7-6.1,6.1
	c12.4,30.3,19.4,62.5,20.7,95.2L948.7,635.6z"/>
<path d="M730.4,377.4l1.5,1.1h0.2l0.6,0.5c1,0.8,2,1.6,2.9,2.5l0.5,0.6l0.4,0.3c-0.3,0.4-0.5,0.8-0.6,0.8c-3.3,5.4-1,11.3,3,15.5
	s7.5,5.9,11.4,8.5l5.6,3.8l2.6,1.9l1.4,1l0.7,0.5c3.9,3,7.5,6.4,10.6,10.2h0.1c0.1,0.2,0.4,0.5,0.4,0.6l1,1.4c0.7,1,1.3,2,1.8,3.1
	c0.3,0.5,0.6,1,0.8,1.6l0.3,0.6c0.1,0.1,0.1,0.1,0.1,0.2c0.4,1.1,0.8,2.3,1.2,3.6c0.7,2.6,3.5,4.2,6.1,3.5c2.6-0.8,4.2-3.5,3.5-6.2
	c-3.5-12.9-13.4-22-23.9-29.6c-2.4-1.8-4.9-3.5-7.4-5.1l-3.7-2.5l-1.8-1.2l-1-0.7c0-0.1-0.1-0.1-0.2-0.2l-0.3-0.2l-3-2.9h-0.1
	c-0.2-0.3-0.4-0.6-0.5-0.9l-0.2-0.3c-0.1-0.2-0.1-0.3-0.1-0.5v-0.2h0.1l0.6-1c1.5-2.1,2.1-4.8,1.4-7.4c-1.1-3.8-4.3-6.5-7.2-8.8
	c-3-2.4-6.1-4.5-9.5-6.3c-3.2-1.7-6.6-3.1-10.1-4.3l-2.2-0.6l-0.9-0.4h-0.1c-0.1,0.2-0.2,0.1-0.4,0h0.1l0.7-0.3l1.3-0.6
	c0.9-0.4,1.8-0.8,2.6-1.4c3-2,5.1-6.1,3.1-9.7c-1.3-2.1-4.3-2.9-6.5-3.7l-5.3-1.6c-12.3-3.2-25.3-2.8-37.5,0.9
	c0.3-0.7,0.6-1.5,0.8-2.3c0.4-0.9,0.8-1.9,1.1-2.8c0.3-0.5,0.5-1,0.7-1.6l0.3-0.7l2.6-5.6c1.9-3.7,3.9-7.4,6.2-11
	c1-1.7,2.1-3.4,3.3-5.1l1.8-2.5l1-1.4c0.1-0.1,1.2-1.5,0.5-0.7c0.9-0.9,1.5-2.2,1.5-3.5s-0.5-2.6-1.5-3.5c-1.7-1.7-5.3-2.3-7,0
	c-11.1,14.2-19.3,30.5-23.9,47.9c-0.5,2,0.2,4,1.8,5.3c1.6,1.2,3.7,1.3,5.5,0.4l2.8-1.4l1.1-0.5l1.5-0.6c2-0.7,4-1.3,6.1-1.8
	l3.3-0.7l1.7-0.3l1-0.2l6.2-0.5c2.2,0,4.4,0,6.6,0.2l3,0.3h1.1l1.4,0.3l4.2,0.9c-3.7,2.6-5.7,7-3.5,11.4c2.2,4.4,7.8,5.9,12.3,7.4
	l1.7,0.7c0.4,0.1,0.8,0.2,1.1,0.4l3.3,1.6C726.3,374.7,728.4,376,730.4,377.4z M714.2,360.9L714.2,360.9
	C713.9,361.4,714,361.1,714.2,360.9z M714.6,361.1L714.6,361.1l-0.1-0.2h0.1V361.1z"/>
</svg>
