<?xml version="1.0" encoding="utf-8"?>
<!-- Generator: Adobe Illustrator 24.2.3, SVG Export Plug-In . SVG Version: 6.00 Build 0)  -->
<svg version="1.1" id="b54be17a-29ba-49e4-93f5-23d23f08d58b"
	 xmlns="http://www.w3.org/2000/svg" xmlns:xlink="http://www.w3.org/1999/xlink" x="0px" y="0px" viewBox="0 0 1152 864"
	 style="enable-background:new 0 0 1152 864;" xml:space="preserve">
<path d="M310.7,349.5c0-0.5,0.1-1,0.2-1.5v-0.2c0.1-0.9,0.2-1.8,0.4-2.7c0.5-3.2,1-6.4,1.6-9.6c1.2-6.5,2.7-12.8,4.5-19.1
	c1.8-6.3,3.7-12.5,5.9-18.6l3.6-9.2c0.1-0.1,0.1-0.1,0.1-0.2h0.1c0.1-0.4,0.3-0.7,0.4-1.1c0.4-0.7,0.7-1.4,1-2.2l2.1-4.6
	c6.3-13.3,13.8-26,22.5-37.9c1.6-2.1,0.4-5.6-1.8-6.8c-2.4-1.4-5.4-0.6-6.8,1.8c-15.9,21.7-27.9,46-35.5,71.8
	c-7.6,25.6-11,52.4-9.9,79.1c0.6,15.2,2.8,30.4,6.5,45.2c0.5,2,2.1,3.4,4.1,3.6c2,0.3,4-0.7,5-2.4l0.9-1.2l0.2-0.3h0.1
	c0,3.9-0.4,7.7-1.2,11.5c-1.8,7.4-4.2,14.7-7.2,21.7l-0.2,0.4l-0.6,1.4c-0.3,0.9-0.7,1.7-1.1,2.6l-2.3,5.4l-4.8,10.4
	c-3.3,7.1-6.7,14.2-10.3,21.2s-8.1,15.5-12.5,23.1c-1.2,2.3-0.6,5.6,1.8,6.9c2.4,1.3,5.4,0.5,6.9-1.8c7.9-14,15.3-28.3,22-42.8
	c3.4-7.3,6.7-14.6,9.8-22c3.1-7.4,6.1-14.8,7.9-22.6c1.8-7.8,2.6-18.2,0.2-27.1c-0.7-2.9-4.7-5-7.3-3s-2.6,2.1-3.9,3.2
	c-0.6-3.3-1.2-6.6-1.7-9.9c-0.1-0.8-0.3-1.6-0.4-2.4c0-0.4-0.1-0.9-0.2-1.3c0,0,0,0,0,0c0,0,0,0,0,0c0,0,0,0,0,0V408l-0.6-5.2
	c-0.3-3.1-0.6-6.3-0.8-9.5c-0.9-13.1-0.6-26.2,0.8-39.3C310.3,352.5,310.5,351,310.7,349.5z"/>
<path d="M238.2,392.8c-1.9,7-4.2,14-7,20.7c-0.1,0.3-0.3,0.7-0.4,1.1l-0.2,0.4l-1.2,2.7c-0.7,1.6-1.4,3.2-2.2,4.8
	c-1.6,3.3-3.3,6.6-5.1,9.8c-3.5,6.4-7.4,12.5-11.7,18.4c-1,1.5-2.1,3-3.2,4.4l-0.3,0.4l-0.8,1l-1.7,2.1c-2.4,2.9-4.8,5.6-7.3,8.3
	c-5.6,6.1-11.7,12.2-15,19.9c-0.6,1.2-0.8,2.5-0.5,3.8c0.4,1.2,1.2,2.3,2.3,3c2.2,1.2,5.8,0.8,6.9-1.8c0.7-1.6,1.5-3.2,2.5-4.7
	c0.4-0.7,0.8-1.4,1.3-2.1l0.9-1.2c0-0.1,0.1-0.2,0.2-0.3v-0.2c2.3-2.8,4.8-5.4,7.3-8.1c5.2-5.5,10-11.3,14.5-17.4
	c8.7-11.8,16.1-24.6,21.8-38.1c3.4-7.9,6.2-16,8.5-24.2c0.7-2.7-0.8-5.4-3.5-6.2C241.7,388.7,239,390.2,238.2,392.8z"/>
<path d="M1019.9,473.3c3,5.1,10.1,1.5,9.1-3.9c-3.1-17.8-14.4-32.4-24.4-47c-4.9-7-9.8-14.3-13.1-22.2s-4-17.2-6-26
	c-8-35.2-32.6-62.2-59.6-84.7c-8.2-6.8-16.7-13.3-25.1-19.8c2.1-1,3.3-3.4,2.7-5.7c-5.3-23.9-19.6-44.7-40.1-58.1
	c7.2-0.8,14.5,0.3,21.2,3c4.6,1.8,8.6-5.3,4.9-8.4c-18.2-15.3-40.3-25.2-63.8-28.5c-11.8-1.6-23.8-1.6-35.6,0.1
	c-13,1.9-25.6,5.9-38.4,8.9l-7.2,1.6c-0.1-1.3-0.6-2.5-1.4-3.4c-8-7.9-17.5-14.1-27.9-18.3c-5-2.1-10.3-3.1-15.6-4.1l-7.7-1.7
	l-2-0.6c1.8-2.9,3.2-6,4.3-9.3c0.7-2.7-1-5.5-3.7-6.2c-0.8-0.2-1.7-0.2-2.5,0c-13.9,4.2-28.3,6.6-42.8,7.4c-7.5,0.5-15,0.6-22.6,0.5
	c-3.4,0.1-6.9,0-10.3-0.4c-3.7-0.6-7.4-1.5-11.2-1.9c-14.7-1.8-29.7-1.8-44.4,0c-7.4,1.1-14.8,1.9-22.2,2.2
	c-7.6,0.2-15.2,0.2-22.8-0.1c-16.3-0.7-32-2.9-47.7-7.7c-2.7-0.7-5.5,1-6.2,3.7c-0.2,0.8-0.2,1.7,0,2.5c1.1,3.3,2.5,6.4,4.3,9.3
	l-2,0.6l-7.7,1.7c-5.3,1-10.6,2-15.6,4.1c-10.4,4.2-19.9,10.4-27.9,18.3c-0.9,1-1.4,2.3-1.4,3.6c-12.4-2.4-24.6-6.6-36.7-9.1
	c-38.3-8.4-78.3,1.5-108.3,26.8c-3.7,3.1,0.3,10.2,4.9,8.4c6.7-2.7,14-3.7,21.2-2.9c-20.5,13.3-34.9,34.1-40.1,58
	c-0.7,2.7,0.9,5.4,3.5,6.1c1.7,0.5,3.6,0,4.9-1.3c1.7-1.5,3.5-2.8,5.5-3.9c-19.2,21.9-38.6,43.7-57.2,66.1
	c-22.4,27.1-44.6,55-62.2,85.6c-9.4,16.4-17,34-20,52.8c-0.9,5.3,6,9.1,9.1,3.9c4.3-7.3,9.9-13.7,16.5-18.9
	c-10.6,35-19.6,71-17.9,107.9c0.5,10.4,0.1,20.4,7.7,28.6c1.5,1.3,3.6,1.8,5.5,1.1c0.8-0.3,1.5-0.8,2-1.5c0.1,0,0.1,0,0.1-0.1
	l0.3-0.3c0.1-0.2,0.1-0.4,0.2-0.6h0.1c0-0.3,0.1-0.5,0.2-0.8c1.7-10.4,6-20.3,12.4-28.7c0.7-1,1.4-1.9,2.2-2.7l0.5-0.6
	c0.8,0.8,1.5,1.6,2.2,2.5c3.2,4.1,5.6,8.7,7.1,13.7c3.6,11.3,4.2,23.1,5.9,34.7c1.6,11.8,4.2,23.4,7.8,34.7
	c4,12.6,9.3,24.8,15.7,36.4c2.1,3.9,7.9,2.8,9.1-1.2c2.4-8.1,4.8-16.3,7.3-24.4c6.3,9.7,9.8,21.4,12,32.6c2.2,11.2,3.9,26.5,14.2,35
	c2.8,2.3,6.1,4.5,10,4.5c3.3-0.1,6.5-1.6,8.8-4c5.3-5,8.2-12.3,10.5-19.1s4.7-15.8,8.8-23.1c0.6-1.2,1.3-2.4,2.1-3.5
	c0.1-0.3,0.7-1,0.6-1h0.1c0.1,0.2,0.6,0.8,0.6,0.9c0.4,0.5,0.7,1.1,1,1.7c2.7,5,5.6,10.3,11.7,11.6c7.7,1.4,15.4-2.6,18.8-9.6
	c1.5-2.9,2.1-6.3,3.4-9.3c1.3-2.9,2.8-5.8,4.6-8.4c3.4-4.8,7.4-9,12-12.7c9.5-7.7,20.5-13.2,30.9-19.5c2.6-1.6,5.2-3.2,7.7-4.9
	s6.1-3.9,8.2-6.7c2.1-2.8,5.6-5,8-7.9c2.5-3.1,4.8-6.3,6.8-9.7c7.7-13.6,10.3-29.2,12-44.5c1.1-8.2,1.7-16.4,1.9-24.6
	c0.1-9.1-0.4-18.2-1.2-27.3c-0.4-4.6-0.9-9.2-1.4-13.8c-0.3-2.5-1.9-4.7-4.4-5l-0.4-0.3l-1.4-1.2c-0.9-0.8-1.8-1.7-2.6-2.6L398,478
	l-0.2-0.2l-0.3-0.4l-1.3-1.8c-1.4-2.1-2.7-4.2-3.8-6.5l-1.5-3l-0.8-1.8c-0.2-0.3-0.4-0.7-0.5-1c-3.9-9.9-6.3-20.3-8.6-30.7
	c-1.4-6.2-2.6-12.5-3.6-18.8c-0.3-1.6-0.5-3.2-0.8-4.8c0-0.3,0-0.6-0.1-0.9v-0.2c-0.1-1-0.3-1.9-0.4-2.8c-0.4-3.2-0.7-6.4-0.9-9.7
	c-0.4-6.1-0.5-12.3-0.2-18.4c0-0.5,0-0.9,0.1-1.4c0.9,25.2,7.6,49.8,19.6,72l0.2,0.3c0.4,2.3,2.5,3.9,4.8,3.9c2.5-0.1,5.2-2.2,5-5
	c-2.6-28.2-6.3-56.5-4.4-84.9c0.2-3.3,0.5-6.7,0.9-10.1l0.3-2.1c0-0.4,0.1-0.9,0.1-1.3h0.1c0.2-1.7,0.4-3.3,0.7-5
	c0.9-6.1,2-12.2,3.4-18.3c2.7-12.3,6.3-24.4,11-36.1c0.3-0.8,0.6-1.6,1-2.4l0.3-0.8l0.3-0.6l2.1-4.8c1.5-3.2,3.1-6.4,4.8-9.6
	c3.3-6.3,6.9-12.4,10.9-18.3c1.4-2.3,0.6-5.3-1.7-6.7l-0.1-0.1c-2.4-1.4-5.4-0.6-6.8,1.7c-14.4,21.4-24.4,45.6-30.4,70.6
	c-3,12.7-5.1,25.5-6.5,38.4c-1.5,14.1-1.1,28.4-0.3,42.5c0.4,5.3,0.8,10.5,1.2,15.6c-1.5-5.1-2.8-10.2-3.8-15.4
	c-0.4-1.9-0.7-3.8-1-5.7c-0.2-0.9-0.3-1.8-0.4-2.7c-0.1-0.2-0.1-0.4-0.1-0.6c-0.1-0.6-0.2-1.1-0.2-1.7c-0.5-3.8-0.8-7.7-1-11.6
	c-0.4-7.9-0.2-15.8,0.6-23.7l0.3-3.2c0.1-0.4,0.2-0.9,0.2-1.3c0-0.4,0.1-0.7,0.2-1.1c0.3-2.2,0.7-4.4,1.1-6.6c0.8-4.4,1.8-8.7,3-13
	c0.2-0.5,0.2-1,0.2-1.5c1.3-2.4,0.4-5.5-2-6.8c-2.4-1.3-5.5-0.4-6.8,2c-13.6,20.3-18,45.5-16.9,69.6c0.7,13.5,2.6,26.9,5.5,40.1
	c2.3,10.9,4.7,22,8.6,32.5c2,5.8,4.8,11.3,8.1,16.4c3.3,5.1,7.5,9.7,12.3,13.4c2,17.4,3.2,35.1,1.4,52.6c-1.7,15.4-3,31.5-10,45.6
	c-1.9,3.9-4.2,7.6-6.9,11c-2.8,3.4-6.8,5.8-9.2,9.5c-13.9,10.4-30.1,17.4-43.8,28.1c-7,5.3-13,11.9-17.5,19.4
	c-2.3,4.1-4.2,8.5-5.5,13.1c-1.1,3.5-4,6.9-7.9,6.3c-1.5-0.2-1.9-0.6-2.9-1.8c-0.9-1.4-1.7-2.8-2.4-4.2c-1.8-3.6-4.2-7.6-8.4-8.7
	c-4.2-1.1-9.1,2.1-11.7,6.1c-2.7,4.2-4.9,8.6-6.6,13.3c-3.7,9.7-5.2,21.5-12.3,29.6c-0.5,0.6-1.2,1.1-1.8,1.6l-0.8,0.3
	c-1.3-0.2-3.1-1.7-4.2-2.7c-2.8-2.9-4.9-6.4-6.1-10.2c-1.5-4.8-2.7-9.8-3.5-14.8c-1-5.6-2.3-11.1-3.9-16.5c-3.5-11.9-8.6-23-17-32.2
	c-2.6-2.8-7.3-1.3-8.4,2.2l-6.4,21.7c-9.1-19.8-15-40.9-17.6-62.6c-1.6-12.7-2.8-25.5-8.2-37.3c-2.3-5.2-5.5-9.9-9.6-13.9
	c-1.7-2-4.2-3.2-6.8-3.3c-3.2-0.1-4.9,2-6.8,4.2c-5.8,6.6-10.4,14.1-13.7,22.2c-0.3-3.5-0.2-7.1-0.3-10.5
	c-0.4-9.8-0.1-19.6,0.9-29.3c1.8-19.1,6.1-37.9,11.1-56.4c3-10.6,6.2-21.2,9.5-31.7c1.3-4.4-3.7-7.5-7.4-5.7
	c-6,3.1-11.5,6.9-16.5,11.4c8.6-24.2,23.7-46.1,38.6-66.7c20.3-27.8,42.6-54.2,65.2-80.1c12.9-14.7,25.9-29.4,38.7-44.2
	c2.6-3,1.1-8.8-3.5-8.5c-5.3,0.3-10.5,1.6-15.4,3.7c7.7-20,22.9-36.3,42.3-45.5c3.2-1.5,3.3-7.2,0-8.6c-5.6-2.4-11.6-3.9-17.7-4.3
	c24.9-14.1,54.1-18.5,82.1-12.4c11.6,2.5,23,6.2,34.6,8.6c13.6,2.9,27.6,4,41.2,0.1c6.2-1.7,3.5-11.4-2.7-9.6
	c-7.7,2-15.7,2.6-23.6,1.8c6.7-6.2,14.5-11.1,23-14.4c10.2-3.7,21.3-4,31.2-8.7c3.2-1.5,2.9-5.6,1-7.9l-1.4-1.8
	c11.2,2.5,22.5,4.2,33.9,4.9c15.2,1.2,30.5,0.8,45.7-1c7.2-1.1,14.4-1.7,21.6-2c7.7-0.1,15.3,0.1,22.9,0.7c3.4,0.2,6.8,0.7,10.2,1.3
	c3.7,0.9,7.5,1.3,11.3,1.4c7.7,0.2,15.3,0.2,23-0.1c13.3-0.5,26.6-2.3,39.6-5.2l-1.4,1.8c-1.9,2.3-2.2,6.4,1,7.9
	c9.9,4.7,21,5,31.2,8.7c2.2,0.8,4.4,1.8,6.5,2.9c2.3,1.2,4.6,2.5,6.8,3.9c3.4,2.2,6.6,4.7,9.6,7.5c-7.9,0.9-15.8,0.4-23.5-1.7
	c-6.2-1.8-8.9,7.9-2.7,9.6c25.4,7.2,50.7-3.2,75.3-8.6c22.3-4.9,45.6-3.1,67,5c5.4,2,10.6,4.5,15.6,7.3c-6.1,0.4-12.1,1.9-17.7,4.3
	c-3.3,1.4-3.2,7.1,0,8.6c19.4,9.2,34.6,25.5,42.3,45.5c-4.9-2.1-10.1-3.4-15.4-3.7c-4.1-0.2-6.9,5.8-3.5,8.5
	c27,22.1,57,41.6,79.5,68.6c10.8,12.9,19.3,27.7,23.8,44c2.4,8.6,2.7,17.6,5.4,26.1s7,16.1,11.8,23.4s11.4,16.1,16.6,24.4
	c-3.5-2.6-7.2-4.9-11.1-6.9c-2.5-1.4-5.6-0.4-6.9,2c-0.6,1.1-0.8,2.4-0.5,3.7c4.1,18.3,4.6,37.2,7.8,55.7c1.6,9.9,4.3,19.5,7.8,28.9
	c3.5,9.1,9.3,17.4,9.4,27.4c0,5.9-1.2,11.7-3.3,17.2c-3.8-10.1-9.7-19.3-17.3-27c-1.6-1.6-4.1-2-6.1-0.8
	c-14.8,10.5-12.3,29.3-16.3,45c-0.9,3.7-2.4,7.1-4.6,10.2c-3.1,4-6.2,7.8-8.5,12.4c-4.5,9.1-6.7,18.9-8.4,28.8
	c-0.9,5.7-1.7,11.6-3,17.3l-5.4-18.4c-0.8-2.7-3.6-4.2-6.3-3.5c-0.4,0.1-0.7,0.3-1.1,0.5c-12.2,7.9-21.4,19.6-26.2,33.3
	c-2.3,6.5-3.8,13.3-4.5,20.2c-0.2,1.6-0.3,3.2-0.5,4.9c-1.2-1.5-3-2.5-4.9-2.6c-4.7,0-6.8,5.5-7.7,9.7l-0.6-1.4
	c-1.9-5.1-3.2-10.3-5-15.5s-4-10.6-7.5-15.1c-1.5-2-3.3-3.7-5.3-5.2c-1.2-0.9-2.5-1.7-3.9-2.2c-2.3-0.7-4.3,0.6-6,2
	c-3.4,2.7-4.6,6.7-6.4,10.4l-1.2,2.1c-0.1,0-0.1,0.1-0.1,0.2l-0.3,0.2c0,0.1-0.5,0.5-0.6,0.6c-0.3,0.3-0.8,0.5-1.2,0.5
	c-1.3,0.3-2.7-0.1-3.7-1c-4.4-3.4-5.6-9.5-7.7-14.3c-2.2-5.4-5.3-10.4-9.2-14.8c-15-17.3-37.7-24.6-54.9-39.1
	c-8.2-6.7-14.3-15.6-17.7-25.6c-3.7-10.8-6.1-22.6-5.2-34.1c0.6-7,3.5-14.9,5.4-22c2.5-9.2,4.8-18.4,6.9-27.6
	c2.1-9.3,4-18.5,5.6-27.9c1.6-9.4,3.7-18.6,1-27.5c-1.5-5-8-4.5-9.6,0c-5.3,14.3-12.4,27.8-21,40.4c2.5-8.4,4.8-16.9,6.9-25.4
	c4.2-16.8,7.7-33.8,10.3-51s4.1-34.6,4.6-52c0.4-17.4-0.6-34.8-2.9-52c-2-14.7-4.2-31.3-14.5-42.8c-1.2-1.2-2.4-2.3-3.7-3.4
	c-1-0.9-2.2-1.3-3.5-1.4c-1.3,0-2.6,0.5-3.5,1.4c-1.7,1.8-2.2,5.4,0,7.1c1.3,1,2.5,2.2,3.6,3.4l0.9,1l0.3,0.4c0,0,0,0,0,0
	c0.4,0.6,0.8,1.2,1.3,1.8c0.9,1.4,1.7,2.9,2.4,4.4c0.1,0.4,0.3,0.8,0.5,1.2h0.1l0.9,2.5c2.4,7,3.6,14.3,4.8,21.5c0.1,1,0.3,2,0.4,3
	c0.1,0.5,0.2,1.1,0.2,1.6c0.1,0.2,0.1,0.5,0.1,0.7c0.3,2.1,0.6,4.2,0.8,6.3c0.5,4.2,0.8,8.4,1.1,12.6c0.6,8.4,0.8,16.8,0.8,25.2
	s-0.5,17-1.1,25.5c-0.3,4.3-0.7,8.5-1.2,12.7c-0.2,2.1-0.4,4.2-0.7,6.3s-0.2,2-0.4,3c0,0.5-0.1,0.9-0.2,1.4v1
	c-2.3,16.9-5.5,33.6-9.6,50.1c-4,16.6-8.6,33-13.8,49.2c-0.6,2.1-1.3,4.1-1.9,6.1c-0.7,2.7,0.8,5.4,3.5,6.2c2.1,0.5,4.3-0.4,5.5-2.2
	c0.7-0.3,1.4-0.8,1.9-1.4c9.9-11.4,18.5-23.8,25.6-37.1c-0.9,5.4-2,10.8-3.1,16.2c-2.9,13.7-6.4,27.3-10,40.9
	c-1.5,5.5-3.4,11.1-4.2,16.8c-0.7,4.7-0.8,9.4-0.4,14.1c0.8,10.5,3.2,20.8,7.1,30.6c3.3,8.8,8.6,16.7,15.4,23.1
	c7.2,6.7,15.5,12,23.9,17.1c15.2,9.2,32.9,18.1,40.8,35c2.4,5.2,3.7,10.8,7.2,15.5s9.7,8.5,16.3,7c4.7-1.1,7.8-4.6,9.8-8.7
	c0.8-1.7,1.4-3.4,2.3-5l0.4-0.7c7.2,6.2,8.9,17.5,11.9,26.2c2,6,4.4,11.7,8.4,16.6c1.9,2.4,4.4,5,7.8,4.1s4-3.5,4.2-6.3
	s0.1-4.8,0.2-7.2l2.1,3c1.5,2.1,3.1,4.4,5.9,4.4c5.5,0,5-5.7,5-9.5c-0.1-14.4,2-29.3,9.2-41.9c3.1-5.5,7.2-10.3,12.1-14.3
	c2.6,9,5.3,18,8,27c1.1,3.8,7.3,5.3,9.1,1.2c8.2-17.7,7-37.7,13.9-55.8c1.8-4.5,4.2-8.7,7.1-12.6c2.8-3.7,5.4-7,7.1-11.3
	c3.1-7.4,3.7-15.5,4.7-23.4c0.9-6.3,2-13.6,6.1-18.6c7.8,9,12.9,20,14.9,31.7c0.8,4.5,7.1,4.5,9.2,1.2c5.3-8.4,8.8-17.8,10-27.7
	c0.7-4.9,0.4-9.9-0.6-14.7c-1-5-3.5-9.4-5.7-14c-8.7-18.7-11.6-38.9-13.8-59.2c-0.8-7.1-1.6-14.2-2.7-21.2
	C1009,458.5,1015.3,465.4,1019.9,473.3z M284.6,673.9c0.1-0.6,0.3,0.2-0.1,0.2C284.6,674,284.6,674,284.6,673.9z M283.1,673.4
	l0.4,0.3C283.2,673.6,282.9,673.5,283.1,673.4z M895.5,702.7l0.3,0.3C895.7,703,895.5,702.9,895.5,702.7z"/>
<path d="M841.6,437.4c1.8,0,3.4-0.9,4.3-2.5c5.8-12.8,10.9-26,13.9-39.7c2.3-10.8,3.5-21.9,2.2-32.9c-1.1-10.3-4.2-20.3-9.1-29.5
	c-5-9.7-11.8-18.3-19.1-26.3c-8.8-9.3-18.2-18-28.1-26.1c-1.3-1.2-2.7-2.3-4.1-3.4c-1.4-1.1-5.1-2.1-7.1,0c-2,2.1-2.1,5.3,0,7
	c10.1,8.1,19.7,16.7,28.8,25.9c3.8,4,7.5,8.2,10.9,12.5c0.3,0.2,0.5,0.5,0.7,0.8l1.2,1.6l2.1,3.1c1.4,2.1,2.8,4.1,4,6.3
	c1.2,2.2,2.4,4.3,3.5,6.5c0.2,0.5,0.4,1,0.7,1.5l0.3,0.8l0.3,0.6c0,0.1,0,0.1,0.1,0.2l0.3,0.7l0.6,1.8c1.7,4.4,2.9,8.9,3.6,13.6
	l0.3,1.6c0,0.3,0.1,0.6,0.1,0.9s0.3,2.4,0.3,3.6c0.2,2.5,0.3,4.9,0.2,7.4c0,2.6-0.2,5.3-0.5,7.9c-0.1,0.7-0.1,1.3-0.2,1.9
	c0,0.2,0,0.3-0.1,0.5v0.6c-0.3,1.4-0.5,2.8-0.7,4.2c-1.1,5.9-2.6,11.8-4.5,17.5c-1,3.2-2.1,6.4-3.3,9.5c-1.2,3.1-1.2,3.4-1.9,5
	c-0.3,0.9-0.6,1.7-1,2.5c0,0.1,0,0.1-0.1,0.2c-1.6-1.6-3.4-3.1-5.2-4.5c-2.6-2-6.6,0.1-7.3,3c-3,11.2,0.4,22.3,3.8,33
	c0.8,2.6,1.6,5.3,2.3,7.9c0.4,1.3,0.7,2.6,0.9,3.9c0.2,0.6,0.3,1.1,0.4,1.7c0,0.3,0.1,0.7,0.2,1c0,0.2,0,0.5,0.1,0.7
	c0,0.3,0.2,1.5,0.2,1.7s0.1,0.6,0.1,0.9l0.3,2c0.2,1.3,0.5,2.6,0.7,4c0.2,1.4,1.1,4.9,1.8,7.3c2.1,8.1,5.5,15.7,10.1,22.7
	c3.8,5.5,8.1,10.6,13,15.2c4.5,4.4,9.4,8.6,13.5,13.5c1.7,2,5.3,1.9,7.1,0c1.9-2,1.9-5.1,0-7.1c-3.6-4.2-7.8-7.9-11.8-11.8
	c-2.1-2-4.2-4-6.2-6.1l-3.1-3.5l-1.3-1.7h-0.1v-0.2l-0.8-1c-2.1-2.8-3.9-5.8-5.5-8.9l-1.1-2.3l-0.7-1.5c0-0.2-0.1-0.3-0.2-0.5
	c-0.8-1.9-1.5-3.8-2.1-5.8c-1.5-4.6-2.6-9.3-3.4-14.1l-0.3-1.8c0-0.2-0.1-0.5-0.1-0.8c-0.1-0.2-0.1-0.3-0.1-0.5
	c0-0.1-0.2-1.5-0.2-1.8s-0.1-0.5-0.2-0.8l-0.3-2.1c-0.6-2.7-1.3-5.3-2-7.9c-1.7-5.7-3.7-11.3-5-17.1c-0.3-1.4-0.6-2.8-0.8-4.3
	s-0.1-0.8-0.2-1.2l0.7,0.9C838.4,436.7,839.9,437.4,841.6,437.4z"/>
<path d="M915.1,412.7c-0.1-1.2-0.3-2.4-0.4-3.7c-0.4-4.9-0.7-9.9-0.8-14.9c0-2.8-2.2-5-5-5c-2.7,0.1-4.9,2.3-5,5
	c0.4,17.3,2.1,35.2,9.2,51.2c2.9,6.9,7.3,13.1,12.8,18.2c6.1,5.4,13.5,9.1,21.4,10.8l3.3,0.6l0.5,0.2l1.2,0.7l0.3,0.2h0.1
	c0.4,0.3,0.8,0.7,1.1,1.1l0.4,0.5h0.2c0.3,0.4,0.6,0.8,0.8,1.2c1.3,1.9,2.3,4,3.2,6.1c0.3,0.5,0.5,1,0.7,1.5c0,0,0-0.1,0-0.1
	c0.1,0.3,0.3,0.6,0.3,0.8c0.2,0.4,0.9,2.1,1.3,3.2c0.7,2.7,3.5,4.2,6.1,3.5c0,0,0,0,0.1,0c2.3-0.7,4.5-3.5,3.5-6.1
	c-1.6-4.1-3.4-8.2-5.4-12.1c-2.1-3.8-5-7.5-8.9-9.5c-2-0.8-4.1-1.4-6.3-1.8c-1.9-0.4-3.8-0.9-5.7-1.6l-1.4-0.5h-0.5l-2.4-1.1
	c-1.5-0.8-3-1.8-4.5-2.8s-1.1-0.9-0.7-0.5l-0.5-0.5l-2-1.7c-1.3-1.2-2.5-2.5-3.6-3.8l-0.6-0.8l-0.3-0.4l-1.7-2.4
	c-0.9-1.5-1.8-3.1-2.6-4.7l-1.2-2.4l-0.4-1l-0.3-0.7c-0.7-1.8-1.4-3.6-2-5.5c-1.2-3.8-2.1-7.8-2.9-11.7c-0.5-2.2-0.9-4.5-1.1-6.8
	c0,0,0,0.1,0,0.1c0-0.3-0.1-0.7-0.1-0.8C915.2,414.4,915.2,413.4,915.1,412.7z"/>
</svg>
