<?xml version="1.0" encoding="utf-8"?>
<!-- Generator: Adobe Illustrator 24.2.3, SVG Export Plug-In . SVG Version: 6.00 Build 0)  -->
<svg version="1.1" id="f23ba29b-c804-400f-a25d-40760487ba63"
	 xmlns="http://www.w3.org/2000/svg" xmlns:xlink="http://www.w3.org/1999/xlink" x="0px" y="0px" viewBox="0 0 1152 864"
	 style="enable-background:new 0 0 1152 864;" xml:space="preserve">
<path d="M984.8,241c-10.8-23.7-28.8-43.3-51.4-56.1c-12.8-7.2-27.7-13.2-42.7-10.9s-27,13.2-38,22.5c-22.3,19-42.1,40.9-58.7,65.1
	c-6.9,10.2-13.3,20.8-19.4,31.6c-1,0.7-1.8,1.7-2.2,2.8c-0.3,0.9-0.6,1.8-1,2.7c-5.7,10.2-11.4,20.5-17.2,30.6
	c-12.7,21.7-26.5,43-45.2,60.1c-4.5,4.1-9.2,7.9-14.2,11.3c-0.4,0.3-0.8,0.6-1.1,1c-16.6-4.6-34.1-5.9-51.2-3.8
	c-17.9,2.2-36,4-54.1,3.5c-8.3-0.3-16.2-3.1-24.4-4.1c-4-0.6-8.1-0.8-12.2-0.5c-4.6,0.5-8.8,1.9-13.2,3
	c-32.5,8.1-64.9-6.8-95.9-14.5l-5.3-1.2c-8.2-23.5-18.7-46.3-31.2-67.8c-12.8-22-27.3-43-43.3-62.7c-16-19.8-33.1-38.5-51.4-56.2
	c-9.1-9-18.5-17.6-28-26.1s-19.6-18.5-32.2-22.1c-6.7-1.9-13.9-1.4-20.3,1.6c-5.8,2.6-10.8,7-15.4,11.3
	c-8.7,8.3-16.4,17.7-22.7,27.9c-12.8,20.5-20.7,43.9-26.2,67.3c-2.8,12.4-5,25-6.8,37.6c-2.2,14.9-3.5,30-3.8,45.1
	c-0.3,14.9,1,29.8,3.6,44.5c2.6,14.4,6.9,28.4,9.9,42.6s3.6,25.8,3.9,38.9c0.3,13.1,0.3,25.6,2.5,38.2c2,12.5,7.1,24.4,14.9,34.4
	c4.2,5.3,8.5,10.4,11.5,16.6s5.3,12.5,9.6,17.9c3.2,4.3,7.6,7.4,12.7,9c1.1,7.8,3.1,15.5,4.8,23.1s4.6,17.6,5.3,26.5
	c0.7,8.9-0.6,17-2.5,25.3c-1.9,8.3-4.4,16.3-6.5,24.5c-1.6,6.3,8.1,8.9,9.7,2.7c4.1-16.3,10-32.6,9.5-49.6
	c-0.3-8.8-2.6-17.5-4.5-26.1c-1.9-8.6-4.1-17.4-5.7-26.1c-2.8-15.6,1.1-30.9,7.9-45c6.8-13.9,15.8-26.7,26.5-37.9
	c22.3-23.7,48.6-43.2,72.9-64.9c11.5-10.3,21.3-22.4,34.1-31.1c6-3.9,12.5-7.1,19.2-9.5c7.5-2.8,15.8-3.1,23.7-2.7
	c16.1,0.9,32,6.6,47.3,11c15.3,4.4,31.3,8.8,47.5,9.6c8.1,0.4,16.2-0.1,24.1-1.7c3.6-0.8,7.2-2.1,10.8-2.9c4.3-0.8,8.6-0.9,12.9-0.3
	c8.3,0.9,16.1,4,24.4,4.3c8.6,0.3,17.1,0.2,25.7-0.4c8.7-0.5,17.3-1.4,25.9-2.4s17.1-2.1,25.8-1.7c8.2,0.3,16.4,1.6,24.4,3.7
	c4,0.9,8,2.1,11.8,3.6c3.7,1.6,7.3,3.6,10.8,5.5c7,4,14.2,8.3,20.4,13.4c6.2,5.1,12.3,11.2,18.4,16.8c12.1,11.2,23.7,22.9,33.8,35.9
	c19.5,25.3,40.2,49.9,56.1,77.7c8,14,16.3,29.1,16.9,45.6c0.3,9.3-1,18.4-2.7,27.5c-0.6,0.8-0.9,1.9-0.9,2.9c0,0.4,0.1,0.7,0.2,1.1
	c-1.3,6.4-2.6,12.7-3.5,19.1c-1.3,8.3-2.5,16.6-4.1,24.8c-1.2,6.3,8.5,9,9.7,2.7c1.7-8.8,2.9-17.7,4.3-26.6c0.8-5.7,1.9-11.3,3-17
	c5.2-1.7,9.8-5,13-9.4c4.6-5.9,6.7-13.1,10.1-19.5c6.4-12.1,17.6-20.7,24.7-32.2s9.6-27.5,11.1-41.9c1.4-14.6,4.2-29.1,8.1-43.3
	c8.3-28.8,21.5-55.8,33.9-83s24.3-55.9,29.7-85.8C998.1,298.5,997.1,268.5,984.8,241z M322.3,438l-0.4,0.9l-3.9,3.3
	c-12.6,10.7-25.5,21.2-37.7,32.4c-6.3,5.7-12.4,11.6-18.2,17.8c-2.7,2.9-5.4,5.8-7.9,8.8c-1.5,1.5-2.8,3.2-4.1,4.9
	c-1,1.6-1.8,3.3-2.9,4.8c-1.1,1.5-2.4,2.8-3.6,4.3c-1.2,1.7-2.2,3.5-3.2,5.4c-2.2,3.9-4.4,7.8-6.3,11.8c-3.5,7.1-6.3,14.5-8.2,22.2
	c-1.3,5.3-2,10.7-2,16.2c-7.6-5-10.4-16.6-14.6-24.1c-3.3-5.8-7.9-10.7-11.9-16c-3.5-4.7-6.3-9.8-8.3-15.3
	c-8-22.8-4.3-47.6-6.7-71.2c-1.4-14.1-5-27.8-8.4-41.6c-3.4-13.8-6.3-27.5-7.3-41.7c-2-27.9,1.1-55.9,6.1-83.3
	c4.1-22.7,9.9-45.5,20-66.5c4.8-10.3,10.7-19.9,17.7-28.8c3.6-4.4,7.4-8.6,11.5-12.5c4.2-3.9,8.7-8.1,14.1-10.4
	c11.1-4.7,22.1,3.3,30.2,10.2c8.1,6.9,18.7,16.4,27.7,24.9c16.3,15.3,31.9,31.2,46.6,48c4.7,12.3,7.4,25.3,10.4,38.1
	c1.5,6.5,3.1,13.1,5,19.5c1.9,6.4,3.8,13.6,5.3,20.5l0.9,5.2c0.2,0.8,0.3,1.6,0.4,2.4c0.1,0.4,0.1,0.8,0.2,1.2
	c0,0.2,0.1,0.4,0.1,0.7c0.4,3.4,0.7,6.9,0.8,10.4c0,3.5-0.1,7-0.5,10.5c0,0.4-0.1,0.9-0.1,1.4s0,0.1-0.1,0.2
	c-0.1,0.8-0.2,1.7-0.4,2.5c-0.3,1.7-0.6,3.3-1,4.9c-0.9,3.3-1.9,6.5-3,9.6l-1.8,4.7c-0.2,0.4-0.3,0.8-0.5,1.3l-1.2,2.7
	c-2.9,6.3-6,12.5-9.2,18.6C338.6,411,330.8,424.7,322.3,438z M393.3,384.1c-3.3,1.1-6.3,2.9-9.6,4.1c-4.1,1.6-8,3.7-11.6,6.1
	c-6.5,4.3-12.6,9.3-18.2,14.7c-2.3,2.1-4.4,4.3-6.5,6.5l5.1-9.5c6.6-12.3,13.2-24.9,17.3-38.3c2.2-6.9,3.5-14.1,3.8-21.4
	c0.2-7.4-0.3-14.9-1.6-22.2c-2.2-13.9-6.9-27.2-10.1-40.8c-1.7-7.1-3.2-14.2-5-21.3c11.5,14.3,22.1,29.2,31.9,44.7
	c13,20.4,24.1,41.9,33.1,64.3c1.5,3.7,2.9,7.3,4.2,11C415.1,380.6,404,380.7,393.3,384.1z M756.8,443.1
	c-6.3-5.7-12.4-11.8-18.9-17.3c-6.4-5.1-13.3-9.7-20.5-13.7c-4-2.4-8.2-4.5-12.5-6.4c18.3-13.9,33-31.9,45.5-51.2
	c3.9-5.9,7.6-12.1,11.3-18.2c-1.4,7.8-2.5,15.6-3.4,23.4c-1.4,11.6-2.1,23.2-2.1,34.9c0,11.6,0.7,23.4,3.3,34.7
	c1.9,7.7,4.3,15.3,7.2,22.8l0.3,0.7L756.8,443.1z M985.6,305.5c-1.9,29.1-11.3,57.6-22.7,84.4s-25.1,53.4-35.5,81
	c-5.3,13.6-9.5,27.6-12.5,41.9c-2.8,13.9-3.3,28.1-5.8,42c-1.2,6.8-2.9,13.5-6.1,19.5s-7.2,10.7-11.4,15.5s-9,10.1-12.7,15.8
	s-6,13-9.6,19.2c-1.3,2.4-2.9,4.5-4.9,6.4c2.7-16.6,2.3-32.7-4.4-48.5c-12.9-30.3-32.9-56.8-53-82.6c-7.3-9.3-14.5-18.9-22.1-28
	c-2.6-6.6-5.1-13.3-7.6-19.9c-2.5-6.6-4.8-13.3-6.7-20c-1-3.4-1.8-6.8-2.4-10.2c-0.2-0.9-0.3-1.7-0.4-2.6c-0.1-0.3-0.1-0.6-0.2-0.9
	c-0.1-1.3-0.3-2.6-0.4-3.8c-0.6-5.3-0.8-10.7-0.9-16c-0.3-11.6,0.2-23.1,1.5-34.6c0.3-2.9,0.6-5.8,1-8.7c0.1-0.4,0.1-0.8,0.2-1.2
	l0.3-2.2l0.6-4.3c0.9-5.6,1.9-11.2,3.1-16.7c1.8-9.4,4.3-18.7,7.5-27.8c2.7-4.8,5.4-9.6,8.2-14.3c14-23.6,30.2-45.5,49.4-65.1
	c9.9-10.1,20.4-19.5,31.6-28.2c5.3-4.1,11-8.2,17.4-10.4c6.8-2.1,14.1-2.2,21-0.1c12.3,3.2,23.9,9.8,33.9,17.5
	c9.5,7.3,17.8,16.2,24.5,26.2C981.8,251.4,987.3,278.4,985.6,305.5z"/>
</svg>
