<?xml version="1.0" encoding="utf-8"?>
<!-- Generator: Adobe Illustrator 24.2.3, SVG Export Plug-In . SVG Version: 6.00 Build 0)  -->
<svg version="1.1" id="bca5cdc8-eca5-41df-8dd4-b00cc19c34c6"
	 xmlns="http://www.w3.org/2000/svg" xmlns:xlink="http://www.w3.org/1999/xlink" x="0px" y="0px" viewBox="0 0 1152 864"
	 style="enable-background:new 0 0 1152 864;" xml:space="preserve">
<path d="M1105.8,462.3c-3.3-8.8-13.8-13-21.8-16.3s-18.1-7.5-27-11.8c-35.5-17.2-68.6-41.3-90.8-74.4c-10.9-16.4-19-34.6-23.8-53.8
	c-1.4-5.4-2.6-10.6-5-15.6c-2.3-5.1-5.4-9.8-9-14c-7.1-8.5-16.1-15.2-26.3-19.5c-11.2-4.7-22.8-5.2-34.7-3.8
	c-11.9,1.4-23.3,4.2-35.1,3.5c-5.8-0.3-11.1-2-16.5-4.1c-5.4-2.1-11.5-4.6-17.7-4.6c-6-0.1-11.8,2.5-15.7,7.1
	c-3.8,4.3-5.9,9.4-8.1,14.6c-4.5,11.1-10.9,21.3-18.8,30.3c-3.6,4.1-7.4,8.7-13.1,9.6c-2.1,0.4-4.2,0.3-6.2-0.2
	c-2.4-0.8-4.3-3-6.3-4.4c-18.3-13.6-40.1-21.8-62.2-26.8c-11.4-2.5-22.9-4.4-34.5-5.5h-2c-21.5-1.4-43-3.5-64.6-3.7
	c-11.7-0.1-23.2,0.9-34.8,1.9c-13.4,1.2-26.7,2.6-39.8,5.3c-24.5,5.1-47.9,14.2-69.4,27c-4.3,2.6-9.6,3.5-14.2,0.9
	c-4.6-2.6-8.5-7.6-11.9-11.8c-7.4-9.1-12.5-19.4-17.1-30.1c-4.6-10.7-11.7-19.1-23.8-18.2c-12.1,0.9-21.3,8-33,8.7
	c-22.6,1.2-45.4-9.8-67.4-0.5c-19.9,8.3-30.9,28.2-41.8,45.6c-12.3,19.7-26,38.5-41.1,56.2c-15.2,17.7-31.6,34.4-49.1,49.8
	c-8.6,7.5-17.4,14.8-26.5,21.6c-4.7,3.6-9.5,7.1-14.3,10.5c-4.8,3.4-9.6,6.3-13.9,10.1c-8.1,6.9-14.5,17.4-9.2,28
	c2.4,4.8,6.7,8.5,9.8,12.9c2.8,4.1,5.2,8.6,7.2,13.2c7.9,20,7.6,42.1,6,63.1c-0.4,5.4-1,10.7-1.4,16.1c-0.4,5.4-0.2,12.1,3.3,17
	c6.1,8.6,17.7,9.2,27.1,6.9c21-5,38.6-20.9,51.5-37.5c8.7-11.3,16.3-23.5,22.5-36.3c9.1,4.8,19,7.9,29.2,9.2
	c5.8,0.6,11.7,0.7,17.6,0.3l9.4-0.3h4.3l1.6,0.2h1.2c1.4,0.2,2.8,0.5,4.1,0.9l1.9,0.5l1,0.4l0.7,0.2l0.5,0.2l1,0.6
	c0.6,0.3,1.2,0.6,1.7,1l1.2,0.8c-1.8,4.5-3.2,9.2-3.9,14c-1.9,13.7,1,28.6,11.4,38.3c1.9,2,5.1,2,7.1,0c1.9-2,1.9-5.1,0-7.1
	c-1-0.9-1.9-1.8-2.8-2.8c0-0.1,0-0.1-0.1-0.2l-0.6-0.9c-0.4-0.6-0.8-1.2-1.1-1.8c-0.7-1.1-1.3-2.3-1.9-3.5c-0.1-0.3-0.2-0.7-0.4-1
	c-0.2-0.7-0.5-1.4-0.7-2.1s-0.7-2.5-0.9-3.8l-0.3-1.8v-0.2c-0.1-0.4-0.1-0.9-0.2-1.4c-0.2-2.7-0.2-5.4,0.1-8.1c0-0.4,0-0.7,0.1-1.1
	v-0.2c0.1-0.6,0.2-1.2,0.3-1.8c0.2-1.5,0.6-2.9,1-4.3c0.4-1.5,0.8-2.9,1.3-4.3l0.9-2.4c0.1-0.2,0.2-0.3,0.2-0.5
	c0.2-0.3,0.4-0.7,0.5-1.1c2.8-6,6.2-11.7,10.1-17c1.9-2.7,3.9-5.4,5.9-8l1.6-2.1l0.8-0.9l3.7-4.8l12-15.9
	c7.9-10.6,15.1-21.7,21.6-33.2c7.5-13.1,13.3-27.1,17.1-41.7c0.8-2.7-0.7-5.4-3.4-6.2c-1-0.2-2-0.1-2.9,0.2h-0.5l-6.3,1.3l-1.8,0.3
	h-0.5l-3.3,0.4c-4.4,0.4-8.8,0.6-13.2,0.6c-8.8-0.1-17.5-0.8-26.2-1.7c-2.6-0.3-5.1,2.5-5,5c0.1,2.5,2.2,4.7,5,5
	c15.3,1.6,31,2.6,46.2,0.2c-1.2,3.9-2.5,7.7-4.1,11.5c-0.2,0.6-0.4,1.2-0.7,1.7c-0.1,0.2-0.2,0.5-0.3,0.7c-0.1,0.4-0.3,0.8-0.5,1.2
	l-2.1,4.7l-4.5,8.9c-6.5,11.9-13.8,23.3-21.9,34.1c-3.9,5.4-7.9,10.8-12,16.1l-1.5,1.9l-0.6,0.9h-0.2c0,0.1-0.1,0.1-0.1,0.2
	l-3.7,4.8l-6.1,8.1c-2.9,4.1-5.7,8.3-8.2,12.7c-8.2-5.3-18.4-6.2-28.1-5.8c-6,0.2-12.1,0.7-18.2,0.3l-3.9-0.4h-0.2l-1.1-0.2
	l-2.2-0.3c-2.7-0.6-5.4-1.2-8.1-2l-4.6-1.6l-2.1-0.7l-0.4-0.2l-0.8-0.4l-5.9-2.9c2.5-5.9,4.8-11.8,6.9-17.8
	c3.9-11.7,7-23.7,9.2-35.8c0.4-1.8,0.5-3.7,2.3-4.6c1.8-0.9,4.6-1.1,6.8-1.4c5-0.8,9.6-3,13.5-6.3c8.2-6.8,12.3-17.1,15.8-26.9
	s7-19.5,15.8-25.5c4.5-3,9.3-5.5,13.6-8.9c4.3-3.4,7.6-7.9,9.5-13c3.9-9.6,3.1-20.2,5.9-30.1c2.8-9.9,11.7-17.8,20.1-24.3
	c8.4-6.5,18.6-13.8,29.4-12.9c10.8,0.9,13.9,10.4,15.1,19.1s0.4,19.5,2.5,29.1c0.9,4.5,2.7,8.9,5.3,12.7c1.4,1.9,3,3.7,4.8,5.2
	l2.3,1.7c-0.7,2.2,0.2,4.5,2.2,5.6c3.4,1.5,7.5,0,9-3.4c1-2.2,0.7-4.8-0.7-6.8c-1.4-2-3.6-2.7-5.5-4.1c-1.8-1.1-3.2-2.7-4.3-4.5
	c-4.8-7.8-4.5-17.5-4.8-26.3s-1.6-21-8.1-29.2s-18.9-10.8-29.5-7.5c-10.6,3.3-20.6,10.7-29.5,18c-8.9,7.3-15.9,15.8-18.5,27
	c-2.6,11.2-1.3,20.9-6.2,29.8c-4.9,8.9-16.7,12.1-24,19.2c-7.3,7.1-11.2,18.8-14.9,29c-3.1,8.4-7.7,18.8-16.6,22.4
	c-4.4,1.8-9.4,1.4-13.7,3.5c-4.3,2.1-6.7,8.1-7.7,13.5c-2.3,12.2-5.5,24.2-9.8,35.9c-7.8,21.7-19,43.1-33.9,60.8
	c-6.7,8.3-14.7,15.5-23.6,21.3c-8,5-17.7,10-27.4,9.6c-3.6-0.2-7.5-1.5-9.1-5.1c-1.6-3.6-0.7-11.2-0.2-16.3
	c1.1-10.7,1.7-21.4,1.7-32.2c-0.2-21.2-3.9-43.5-16.8-60.9c-1.6-2.3-3.4-4.4-5.2-6.5c-1.6-1.8-3.3-3.8-3.8-6.3
	c-0.9-4.3,2.1-8.3,5-11.2c2.9-2.9,8-6.7,12.3-9.7c4.3-3,9.7-6.8,14.4-10.3c18.8-14,36.6-29.3,53.2-45.9
	c16.8-16.6,32.3-34.5,46.4-53.4c6.9-9.2,13.5-18.6,19.8-28.3c6.3-9.7,11.2-18.5,17.6-27.3c6.4-8.8,12.5-14.9,21.3-19.1
	c8.8-4.2,21.4-4.1,32.1-2.7c10.7,1.4,22.6,4,34.1,3.2c5.9-0.5,11.6-1.8,17.1-3.9c5-1.9,10.3-4.6,15.8-4.7
	c10.9-0.3,13.8,12.7,17.4,20.6c5.1,11,11.9,21.1,20.1,30c3.9,4.2,8.3,8.4,13.9,10.1c5.9,1.7,12.2,1.1,17.7-1.6
	c5.4-2.8,10.5-6.1,15.9-8.8c5.4-2.7,10.8-5.2,16.3-7.4c24.2-9.7,49.3-13.8,75.1-16.1c11.5-1,23-1.9,34.6-1.8
	c11.6,0.1,22.8,0.8,34.2,1.6l30.8,2.2c22.8,2.4,45.9,6.9,66.9,16.3c9.9,4.4,19.2,9.9,27.8,16.5c5.2,4.1,10.8,5,17.2,3.9
	c6.4-1.1,11.2-4.7,15.5-9.2c8.7-9.1,15.8-19.5,21.2-30.9c3.7-8.1,6.6-21.6,17.7-21.2c5.7,0.3,11.4,3.2,16.6,5.1
	c5.7,2.1,11.6,3.4,17.7,3.6c11.8,0.6,23.4-2.2,35-3.6c11.6-1.4,21.9-1,32.1,4c9.5,4.6,17.7,11.5,23.8,20.2c2.9,4.2,5.2,8.8,6.7,13.7
	c1.6,4.9,2.5,10.1,4,15.1c2.9,9.8,6.7,19.4,11.2,28.6c17.6,36.1,47.5,64.6,81.6,85.2c8.9,5.4,18.2,10.3,27.6,14.8
	s18.6,7.9,27.2,11.7c3.7,1.6,8.4,3.9,11,6c1.2,0.9,2.3,2,3,3.3c0,0.1,0.1,0.2,0.2,0.4c0.1,0.2,0.1,0.6,0.1,0.8v0.3
	c0,0.2-0.1,0.3-0.1,0.5l-0.2,0.3l-0.2,0.2l-1.7,1.6c-1.6,1.5-3.4,2.9-5.1,4.2c-1.7,1.3-6,4.5-8.4,7.5c-14.3,18-18.6,41-18.9,63.5
	c-0.1,11.4,0.8,22.7,1.8,34c0.1,2.2,0.5,4.3,1,6.4c0.8,2.1,1.8,4.2,2.8,6.2s1.9,3.7,2.7,5.6c0.4,0.7,0.7,1.4,0.9,2.2
	c0.2,0.5,0.3,0.9,0.4,1.4c0,0.1,0.1,0.2,0.2,0.4s0.1-0.3,0.1,0.1h-0.2l-0.6,0.3l-0.8,0.3l-1,0.2h-0.9c-4.4,0.3-7.9-0.5-12.2-1.5
	c-9-2.2-17.9-5.1-26-9.7c-19.6-11.3-33.8-30.3-44.8-49.6c-12.7-22.2-21.4-46.4-25.9-71.5c-0.5-2.9-1-5.8-2.8-8.3
	c-1.9-2.5-4.5-4.3-7.5-5.2c-4.7-1.5-9.5-1.2-13.8-3.9c-8.5-5.5-12-16.3-15.3-25.4c-4-11.3-8.8-21.8-18.9-28.9
	c-4.3-3.1-9.3-5.4-13.4-8.8c-3.8-3.2-6.3-7.6-7.4-12.4c-2.8-10.9-2-22.3-7.1-32.7s-15.2-18.1-24.5-24.9s-20.8-13.2-32.6-12
	s-19.9,9.9-23,20.9s-1.5,20.6-2.9,30.8c-0.6,4.2-1.7,8.8-3.9,12.5c-0.9,1.7-2.2,3.2-3.7,4.4c-1.8,1.3-4.4,2.3-6,4.1
	c-1.6,1.8-3.2,6.6-4.3,9.5c-0.6,1.4-1,2.8-1.1,4.3c0,3.8,4.4,6.5,7.7,4.4c1.5-0.9,2.4-2.5,2.3-4.3v0.5c0-0.2,0.1-0.5,0.2-0.7
	c0.2-0.7,0.5-1.4,0.8-2.1l1.9-4.8l0.2-0.3l2.1-1.2c2.2-1.3,4.1-3,5.7-4.9c6.9-8.1,8.4-19.2,8.7-29.5s-0.1-19.9,5.5-27.7
	c5.6-7.8,17.5-6.4,25.8-2.1c5.2,2.7,10.2,5.9,14.8,9.6c4.5,3.3,8.6,7.1,12.4,11.2c3.6,4,6.1,8.7,7.4,13.9c1.3,5.4,1.7,10.9,2.5,16.4
	c0.6,5.5,2.2,10.9,4.5,15.9c2.8,5.2,7.1,9.1,12,12.4s9.4,5.2,13.3,8.8s6.6,8.6,8.7,13.6c4.3,10.1,6.8,20.9,13.5,29.8
	c3.4,4.4,7.4,8.2,12.5,10.4c2.4,1,5,1.7,7.6,2.1c2.1,0.4,5.1,0.5,6.7,1.8s1.5,4,1.8,5.8c0.6,3.3,1.2,6.5,2,9.8
	c1.4,6.2,3,12.4,5,18.5c2,6.1,4.2,12.4,6.6,18.4l-3.1,0.4l-3.9,0.8l-1,0.2H955l-2.2,0.2l-4.2-0.2l-2.1-0.2l-1.5-0.2l-8.8-1.6
	c-3.2-0.6-6.5-1-9.8-1.1c-3.2,0-6.4,0.4-9.5,1.1c-5.6,1.1-11,3-16,5.7c-4.5,2.4-8.5,5.6-11.9,9.4c-3.3-3-6.7-6-9.8-9.2
	c-2-2-3.9-4.2-5.7-6.5l-0.3-0.4l-0.8-1l-1.8-2.4l-3.4-4.4c-9.1-11.8-17.5-24-25.2-36.7c-3.7-6.4-7.1-12.9-10.2-19.6
	c-0.4-0.7-0.7-1.5-1.1-2.3l-0.5-1.2c-0.1-0.2-0.1-0.4-0.2-0.5c-0.8-1.7-1.5-3.5-2.1-5.2s-1.3-3.5-1.9-5.3
	c11.3,4.3,23.7,5.4,35.5,1.9c4.3-1.3,8.5-3.2,12.4-5.4c2.4-1.4,3.2-4.4,1.9-6.9c-1.4-2.4-4.4-3.2-6.9-1.9l-3.1,1.7l-1.6,0.8
	l-1.1,0.4c-1.8,0.8-3.7,1.4-5.7,1.9l-3.3,0.8l-1.6,0.3h-0.7c-2.1,0.2-4.2,0.3-6.3,0.2h-3.3l-1.5-0.2h-0.5c-2.3-0.3-4.5-0.8-6.7-1.5
	l-3-0.9l-1.6-0.7l-1.2-0.4c-2.1-1-4.3-2.1-6.3-3.3l-1.5-0.5c-1-0.4-2.1-0.5-3.1-0.2c-2.6,0.8-4.2,3.5-3.5,6.2
	c3.8,14.2,9.4,27.9,16.7,40.7c7.1,12.7,15.1,24.9,23.9,36.5c4.4,6,9,12,13.6,17.9s8,8.4,12.3,12.4c4.6,4,9,8.3,13.1,12.9
	c0.5,0.5,0.9,1,1.3,1.6h0.1c0.3,0.3,0.5,0.7,0.7,1c0.8,1.1,1.5,2.3,2.2,3.5l0.9,1.7c0.1,0.3,0.2,0.6,0.4,0.9
	c0.4,1.3,0.6,2.6,0.9,3.9c0,0.2,0.1,0.3,0.1,0.4v3.3c0,0.3-0.1,0.7-0.1,1c0,0.1,0,0.2-0.1,0.3c-0.1,0.7-0.2,1.5-0.4,2.2
	c-0.4,1.6-0.8,3.1-1.4,4.6c-0.1,0.4-0.2,0.8-0.4,1.1V577l-0.3,0.5c-0.3,0.8-0.7,1.6-1.1,2.3c-1.5,2.9-3.3,5.7-5.2,8.4l-0.7,0.9
	c-0.1,0.1-0.2,0.2-0.2,0.3l-1.7,2c-1,1.2-2.1,2.4-3.2,3.5s-2.1,2.2-3.2,3.2c-2,1.9-2,5.1,0,7.1c1.9,1.9,5.1,1.9,7,0
	c10-9.3,19.1-21.7,20.7-35.5c1.4-11.7-5.4-21.3-13.2-29.3l0.4-0.4c0.9-0.9,1.8-1.8,2.8-2.6l1.2-1c0,0,1.1-0.7,1.2-0.9
	c1-0.7,2.2-1.4,3.3-2c1.1-0.7,2.2-1.3,3.4-1.8l0.7-0.4l0.5-0.2l0.5-0.2l1.1-0.4c2.5-0.9,5-1.7,7.6-2.2c1.1-0.3,2.2-0.6,3.4-0.7h3.9
	l4,0.2h1.2l2.4,0.3c5.9,1,11.9,2.5,17.9,2.6c3.3-0.1,6.6-0.6,9.9-1.3h1.5l1.9-0.2l2.9-0.3c1.2,2.6,2.5,5.3,3.9,8
	c10.7,21,24.5,41.3,43.4,55.8c8.5,6.5,18.1,11.5,28.4,14.7c8.2,2.7,17.3,5.6,26,4.7c4.3-0.4,8.8-2,11.2-5.9s0.7-8.8-1-12.8
	c-0.8-1.9-1.7-3.7-2.6-5.6s-0.9-1.6-1.3-2.5l-0.6-1.4l-0.3-0.6l-0.2-0.4c-0.1-0.5-0.3-0.9-0.4-1.4s-0.2-1-0.2-1.3
	c-0.1-0.7-0.2-1.5-0.2-2.2c-0.3-2.9-0.6-5.8-0.8-8.7c-1.7-21.8-2.3-44.9,6.1-65.4c1.9-4.8,4.5-9.4,7.5-13.6c2.2-3.1,4.9-5.8,8-8
	c3.1-2.4,6.5-4.8,9.1-7.9C1106.6,471.1,1107.4,466.4,1105.8,462.3z M370.6,381.8C371,382,370.8,382,370.6,381.8L370.6,381.8z
	 M784.2,386.4c-0.1-0.1,0-0.1,0.1-0.2L784.2,386.4z M1071.5,601.4C1071.3,601.5,1071.4,601.4,1071.5,601.4L1071.5,601.4z
	 M1071.8,601.2C1071.8,601.6,1071.5,601.7,1071.8,601.2L1071.8,601.2z M1071.8,601.1C1071.9,601.3,1071.9,601.4,1071.8,601.1
	L1071.8,601.1z"/>
</svg>
