<?xml version="1.0" encoding="utf-8"?>
<!-- Generator: Adobe Illustrator 24.2.3, SVG Export Plug-In . SVG Version: 6.00 Build 0)  -->
<svg version="1.1" id="a9c324e8-d495-441f-ac81-e615575be63d"
	 xmlns="http://www.w3.org/2000/svg" xmlns:xlink="http://www.w3.org/1999/xlink" x="0px" y="0px" viewBox="0 0 1152 864"
	 style="enable-background:new 0 0 1152 864;" xml:space="preserve">
<path d="M880.2,611.2c-3.2-13-6.4-26.1-9.7-39.1c-2.7-11-4.9-22.6-10.5-32.7c-2.6-4.8-6.1-9-10.4-12.4c-1.9-1.6-4.2-3.1-5.6-5.1
	s-1.6-4.1-1.8-6.2c-1-13-1-26.2-1-39.2c0.1-26.7,0.6-53.5-4.1-79.8s-13.5-49.9-21.8-74.2c-4.3-12.4-8.8-24.7-14-36.8
	c-2.6-5.9-5.3-11.7-8.2-17.5s-5.6-10.5-7.8-16c-4.6-11.3-5.2-23.8-9.8-35.2c-4.6-11.4-10.7-20.9-17.8-30.3
	c-3.6-4.8-7.4-9.5-11.2-14.2s-7.7-9.4-14.1-10c-6.4-0.6-11.7,3.4-16.5,6.9c-4.3,3.1-8.5,6.5-12.5,10.1c-16,14.5-28.6,32.3-39.1,51
	s-19.6,38.8-28.4,58.6c-5.6,12.8-11.1,25.7-15.4,38.9c-11.2,0.1-22.9-0.6-33.7,2.5c-5,1.4-9.7,3.6-14.5,5.3c-2.5,0.9-5,1.7-7.5,2.3
	l-2,0.4h-1l-3.9,0.4c-2.7,0.1-5.5,0-8.2-0.3l-1.8-0.2h-1l-4.2-0.7c-5.3-1-10.6-2.3-15.8-3.7c-9.4-2.4-18.9-4.6-28.6-4.8
	c-5.2-0.1-10.4,0.4-15.5,1.7c-4.7,1.3-9.1,3.4-13.1,6.2c-3.1-9.7-7.6-18.9-13.5-27.2c-6.9-9.8-15.2-18.6-22.4-28.2
	c-7.2-9.6-13.4-20.6-19.2-31.5c-11-20.8-21.1-42.6-37.1-60.3c-4-4.3-8.3-8.3-13-11.9c-4.4-3.4-9-6.8-14.4-8.4
	c-12.2-3.7-22.8,4.7-30.7,13c-7.9,8.3-14.9,18-21.3,27.6c-6.7,10.1-12.6,20.7-17.8,31.6c-10.4,22.4-18.3,45.8-23.3,70
	c-5.4,25.1-8.2,50.7-9.6,76.2s-0.6,51.7-0.8,77.6c0,6.2-0.1,12.4,0.4,18.5c0.5,6.1,1.2,11.9,3.5,17.4c1,2.4,2.3,4.7,3.7,6.9
	c1.4,2,3.4,4,4.3,6.4c1.6,4.2-0.8,9.2-2.2,13.7c-7.3,24-12.2,48.8-14.5,73.8c-0.6,6.3-1,12.7-1.3,19.1s9.7,6.4,10,0
	c1-24.5,4.5-48.8,10.5-72.6c1.5-5.8,3.1-11.5,4.9-17.3s3.8-10.9,2.9-16.7c-0.9-5.8-4.4-8.9-7.1-13.3c-2.6-4.4-4.1-9.4-4.4-14.5
	c-1.3-11.9-0.6-23.9-0.8-35.9c-0.2-12-0.2-25.5,0.1-38.2c0-2.2,0.1-4.4,0.1-6.6c0.6,2.7,1.2,5.4,1.9,8.1c6.2,24,15.6,45.9,26.6,67.5
	l2.7,5.2l1.2,2.3c0.1,0.1,0.1,0.2,0.1,0.2l-0.2-0.3c0.3,0.6,0.6,1.3,0.9,1.8c2.6,3.9,6.6,6.6,11.2,7.5c-0.7,1.3-1.1,2.7-1.2,4.2
	c0,0.1,0,0.3,0.1,0.4c-6.4,14.3-11.1,29.3-14,44.7c-1.1,5.7-1.9,11.6-2.5,17.3c-0.3,2.6,1,5.4,3.9,5.9c2.8,0.5,5.6-1.2,5.9-4
	c1-10.2,2.8-20.3,5.4-30.1c0.6-2.5,1.2-4.9,2-7.3c0.7-2.4,0.7-2.5,1.1-3.6c0.4-1.1,0.4-1.3,0.7-2c0.1-0.3,0.1-0.7,0.3-1
	c1.7-4.8,3.6-9.6,5.5-14.3l2.3-5c-0.2,0-0.4-0.1-0.6-0.3l0.2-0.2l0.8-1.3c0,0.2,0.1,0.3,0.1,0.5c1.6-3.1,3.1-6.3,4.8-9.4l0.2-0.7
	c0.1-0.2,0.2-0.5,0.1-0.7c0.1-0.2,0.1-0.5,0-0.7l-0.1-0.7c0-0.2,0-0.4-0.1-0.6c-0.3-0.9-0.7-1.7-1.5-2.4l-1.2-0.7l-1.3-0.4
	c-1.2-0.3-2.6,0-3.7,0.8l-1.4,1l-0.6,0l-0.5,0.2l-0.3,0c-0.4,0.1-0.3,0.1-0.2,0l-1.8,0.1l-1.4-0.2l-0.5-0.2l-1.4-0.7l-0.2,0
	l-0.3-0.2l-1-0.8c0,0,0.1,0.1,0,0.1c0-0.1,0-0.1-0.1-0.1l-0.2-0.3l-0.3-0.5c-0.1-0.2-0.2-0.4-0.2-0.6c0,0.2,0.1,0.3,0.1,0.5
	c-0.5-0.8-0.8-1.5-1.2-2.4c-0.3-0.6-0.6-1.3-0.9-1.8l-0.8-1.5c-0.1-0.2-0.2-0.3-0.2-0.5c-0.2-0.4-0.4-0.9-0.6-1.3
	c-5.3-10.3-10.2-20.9-14.5-31.7c-4.4-10.8-8.2-21.7-11.2-32.9c-0.8-2.7-1.5-5.5-2.1-8.4l-0.9-3.9l0-0.3c-0.1-0.4-0.2-0.7-0.3-1.1
	l-0.5-2.3c-1-5.6-2-11.3-2.5-17c-0.8-6.5-1.1-13-1.1-19.5c0-1.5,0-3.1,0-4.7l0.1-2.5c0-0.3,0-0.6,0-0.9l0-0.6c0.2-3.3,0.5-6.6,1-9.8
	c0.2-1.3,0-2.4-0.4-3.3c0.1-0.3,0.1-0.7,0.1-1c7.1-46.9,22.3-93.1,50.5-131.7c6.2-8.5,12.6-17.3,21-23.7c3.7-2.9,8.2-5.1,12.9-3.9
	c4.7,1.2,8.7,4.4,12.4,7.3c17.9,14.1,29.1,34.8,39.4,54.7c5.5,10.4,10.8,21,16.9,31.1c6.2,10,13.2,19.5,20.9,28.5
	c7.1,8.7,14,17.4,19.1,27.5c5.1,10.1,7.6,21.2,9.1,32.4c0.8,5.9,1.3,11.8,1.8,17.8c0,0.1,0.1,0.2,0.1,0.3c-4.4,1.7-8.7,3.7-12.8,5.9
	c-4.5,2.4-8.8,5-13,7.9c-2.2,1.5-3.4,4.5-1.8,6.9c1.6,2.4,4.5,3.4,6.8,1.8c3.7-2.6,7.5-5,11.5-7.2l6-3l2.9-1.4l1.4-0.6h0.1l1-0.4
	c8.3-3.4,17-5.9,25.9-7.4c5-0.8,10.3-1,14.2-4.8c1.8-1.9,2-5.3,0-7.1c-2-1.9-5.1-1.9-7.1,0l-0.3,0.3h-0.1l-0.8,0.4l-0.7,0.2
	l-1.6,0.4c-2,0.3-4.1,0.5-6.1,0.9c-4.4,0.7-8.7,1.6-12.9,2.8l-3,0.9c-0.7-9.5-1.9-19-3.8-28.4c1.1-0.2,2.1-0.7,2.9-1.4
	c-0.9,0.8,0.3-0.2,0.6-0.3l1.2-0.9l3-1.6c0.2-0.1,1-0.6,1.3-0.7h-0.1l0.7-0.3l3.3-1l2.9-0.7l1.5-0.3h0.8c2.1-0.2,4.3-0.4,6.4-0.4
	c2.1,0,4.5,0.1,6.7,0.3l3.2,0.3h0.6l2,0.4c4.6,0.7,9.1,1.9,13.7,3c10.5,2.7,21.2,5.6,32.2,5.7c5.5,0,10.9-0.7,16.2-2.3
	c4.8-1.5,9.5-3.6,14.2-5.3c2.7-1,5.5-1.8,8.3-2.3l2.2-0.4h1.4c1.5-0.2,3-0.3,4.5-0.3c5.2-0.3,10.4-0.2,15.5-0.2
	c-2.1,7.6-3.7,15.4-4.7,23.2c-0.6,5.1-1,10.2-1,15.3c-4.6-1.6-9.2-3.1-13.8-4.5c-2.7-0.7-5.5,0.8-6.2,3.5s0.8,5.5,3.5,6.2
	c9.4,2.8,18.7,6,27.8,9.6l3.3,1.4l1.7,0.7l1.1,0.4l6.6,2.9c4.5,2,8.9,4.1,13.4,6.3c2.3,1.2,5.5,0.7,6.8-1.8s0.7-5.5-1.8-6.8
	c-10.6-5.3-21.4-10-32.5-14.2c0.1-0.4,0.1-0.8,0.1-1.2c-0.4-24.4,7.3-47.9,16.5-70.3c8.4-20.1,17.4-40.2,27.3-59.6
	c9.9-19.4,20.1-36.1,33.8-51.4c6.8-7.6,14.3-14.4,22.5-20.4c3-2.1,8.1-6.8,11.9-4.1c2,1.5,3.6,3.8,5.2,5.7l5.5,6.8
	c7.1,8.6,13.4,17.8,18.6,27.7c2.4,4.7,4.3,9.7,5.7,14.8c1.7,6.2,2.6,12.4,4.2,18.6c2.8,10.4,8.1,19.8,13,29.4
	c-0.6,0.8-0.9,1.8-0.7,2.8c3.1,23.4,5.2,46.9,6.5,70.4s1.6,47.2,1,71.1c-0.3,10.4-0.7,20.7-1.3,31c-0.4,0.5-0.7,1-0.9,1.5
	c-0.1,0.1-0.1,0.3-0.2,0.4c-1.5-0.3-3.1-0.4-4.6-0.1c-1.3,0.2-2.5,0.7-3.6,1.5l-0.8,0.6c-0.1,0.1-0.1,0.2-0.2,0.2
	c-1.4,0.9-2.7,2-3.8,3.2c-1.5,1.9-2,4.4-1.5,6.7c0.4,2.2,1.8,3.9,2.9,5.7c2.4,3.6,4.6,7.2,6.7,10.9c4.2,7.1,8.1,14.4,11.6,21.8
	c1.8,3.7,3.5,7.4,5.1,11.2l0.6,1.3c0.1,0.2,0.2,0.3,0.2,0.5l1.2,2.9c0.8,1.9,1.5,3.7,2.2,5.6c3.4,8.6,6.3,17.4,9,26.2
	c0.7,2.7,3.5,4.3,6.2,3.6s4.3-3.5,3.6-6.2c-9.2-29.7-21.7-58.5-38.8-84.5c-0.1-0.1-0.1-0.2-0.2-0.2l1.6-1.2h0.5l1,0.4h0.3l1.5,0.7
	l3.4,1.4c2.1,0.7,4.4-0.3,5.5-2.2l0.2-0.3c0-0.1,0-0.1,0.1-0.2c0.1-0.1,0.1-0.2,0.1-0.4c0-0.2,0.1-0.1,0.1-0.2
	c0.1-0.1,0.1-0.2,0.1-0.3c0.1-0.1,0.1-0.2,0.1-0.3s0.1-0.2,0.1-0.3c0-0.2,0-0.4,0.1-0.6c0-0.7,0.1-1.5,0.1-2.3
	c1.6-23,2.3-46,2.1-69.1c-0.2-23.1-1.4-46.7-3.5-70.8c-0.4-4.7-0.9-9.4-1.3-14.2c1.3,3.4,2.6,6.9,3.8,10.3
	c4.3,11.7,8.3,24.1,12.3,36.2c4,12.1,7.6,23.8,10.5,35.9c5.9,25.1,6.6,50.6,6.5,76.2c-0.1,12.9-0.2,25.8,0.2,38.6
	c0.2,6.3,0.1,12.9,1.3,19.1s5.2,9.7,9.7,13.4c3.8,3,7,6.7,9.2,11c2.2,4.4,3.9,9,5.2,13.7c3.3,12.1,6,24.3,9,36.4
	c1.6,6.2,3.1,12.4,4.6,18.7S881.7,617.5,880.2,611.2z M787.9,463l0.1-0.2C788.8,462.2,788.3,462.7,787.9,463z"/>
<path d="M414.9,304.9c-1.7-3.6-3.4-7.2-5-10.9c-0.4-0.8-0.7-1.7-1.1-2.5l-0.6-1.3c0-0.2-0.1-0.4-0.2-0.6c-0.2-0.2-0.3-0.5-0.3-0.8
	h-0.1l-0.3-0.7c-0.2-0.4-0.3-0.8-0.5-1.3s-0.8-1.8-1.1-2.7c-6-14.8-11-30-14.9-45.5c-0.5-1.9-0.9-3.9-1.4-5.8
	c-0.7-2.7-3.5-4.2-6.1-3.5c0,0,0,0-0.1,0c-2.6,0.8-4.1,3.6-3.4,6.2c3.6,15.4,8.2,30.5,13.9,45.2c5.7,15,12.4,29.6,20,43.8
	c1.8,3.4,3.6,6.7,5.2,10.2l1.1,2.3c0.2,0.4,0.4,0.8,0.5,1.2v0.2l0.2,0.4c0.7,1.8,1.4,3.6,2,5.4c0.6,1.8,1,3.5,1.4,5.3
	c0.4,1.8,0.3,1.7,0.4,2.5c0,0.1,0,0.2,0.1,0.2c0.1,0,0.1,1.1,0.1,1.7c0.1,1.7,0,3.4-0.1,5.1c0,0.1-0.1,0.2-0.1,0.3
	c0,0.4-0.1,0.8-0.2,1.2c-0.2,0.9-0.4,1.8-0.7,2.6c-0.1,0.4-0.3,0.8-0.4,1.2l-0.2,0.5l-1.2,2.2c-0.4,0.7-0.8,1.3-1.2,1.9l-0.6,0.9
	l-0.2,0.2l-0.2,0.2c-2.1,2.4-4.4,4.7-6.9,6.8l-2,1.6l-0.6,0.5c0,0-0.1,0-0.1,0l-0.6,0.5l-4,3c-3,2.3-5.9,4.6-8.6,7.1
	c-4,3.6-7.7,7.5-11.1,11.6l0.6-1.4l0.3-0.8c1.6-3.5,3.3-7,5.2-10.3c2.2-3.8,4.6-7.5,7.2-11c1.6-2.1,0.4-5.7-1.8-6.9
	c-2.2-1.2-5.1-0.4-6.8,1.8c-9.7,13.1-16.5,28.1-19.9,44.1c-1,4.8-1.7,9.6-2.1,14.4c-0.2,2.5,2.1,4.6,4.3,4.9
	c2.2,0.3,4.6-1.2,5.5-3.6c-0.3,0.9,0,0.1,0.2-0.3c0.1-0.4,0.3-0.8,0.5-1.1l1.2-2.6c0.8-1.6,1.6-3.2,2.5-4.8c1.7-3.1,3.6-6.2,5.6-9.1
	c1-1.4,2-2.9,3.1-4.3h0.1c0-0.1,0.1-0.1,0.1-0.2l0.8-1l1.8-2.2c2.3-2.7,4.8-5.3,7.3-7.8s5.3-4.8,8.1-7l0.9-0.7h0.2l2.2-1.7l4.5-3.5
	c5.4-4.2,10.6-9,13.8-15.2c7.7-15,1.5-31.4-5.5-45.4C422.1,318.8,418.3,311.9,414.9,304.9z"/>
<path d="M686.7,352.9c0-0.2-0.1-0.3-0.2-0.5l-0.2-0.4l-0.6-1.6c-0.4-1.1-0.7-2.3-1-3.4c-0.3-0.9-0.5-1.9-0.7-2.9v-0.3
	c0-0.4,0-0.7-0.1-1.1v-1.9c-0.1-2.7-2.3-4.9-5-5c-2.8,0-5,2.2-5,5c0.1,9.1,3.9,17.4,8.4,25.2c2,3.6,4.3,7.2,6.3,10.8l1.4,2.8
	l0.8,1.6c0.1,0.2,0.2,0.5,0.2,0.7c0.1,0.1,0.2,0.3,0.2,0.4c0.8,1.9,1.5,3.9,2,5.9c0.3,1.1,0.5,2.1,0.7,3.2l-24.6-22.1l-7.7-7
	c-1.3-1.1-2.6-2.2-3.8-3.4l-1.5-1.5l-0.6-0.7l-0.4-0.6l-0.5-0.9h-0.1c-0.2-0.7-0.4-1.4-0.5-2.1v-0.2c0-0.4-0.1-0.7-0.1-1.1
	c0-0.8,0-1.7,0.1-2.5c0.1-1.5,0.2-3,0.4-4.5l0.3-1.9c0-0.2,0.1-0.6,0.1-0.7c0-0.4,0.1-0.9,0.2-1.3c1.7-12.5,4.4-24.8,8-36.9
	c1.8-6.2,3.8-12.3,6-18.4c1.1-2.8,2.2-5.7,3.4-8.5l0.7-1.8c0.1-0.2,0.2-0.5,0.3-0.7c0.2-0.3,0.3-0.7,0.5-1s1.3-3.1,2-4.6
	c5.9-12.9,12.8-25.4,20.7-37.2c1.3-2.4,0.5-5.4-1.8-6.9c-2.4-1.3-5.4-0.5-6.9,1.8c-14.5,21.9-25.7,45.7-33.4,70.8
	c-3.8,12.3-6.8,24.8-8.7,37.5c-0.6,3.4-1.1,6.9-1.5,10.4c-0.5,3.5-0.5,7,0.1,10.5c1.4,7.2,8.1,11.8,13.2,16.5l36.7,33
	c2,1.9,5.1,1.9,7.1-0.1c0.6-0.6,1-1.3,1.2-2.1c2.9-9.4,0.3-19-3.7-27.6C695.1,367,690.3,360.8,686.7,352.9z"/>
</svg>
