<?xml version="1.0" encoding="utf-8"?>
<!-- Generator: Adobe Illustrator 24.2.3, SVG Export Plug-In . SVG Version: 6.00 Build 0)  -->
<svg version="1.1" id="a9e63825-a92b-4be6-96b0-99277db38966"
	 xmlns="http://www.w3.org/2000/svg" xmlns:xlink="http://www.w3.org/1999/xlink" x="0px" y="0px" viewBox="0 0 1152 864"
	 style="enable-background:new 0 0 1152 864;" xml:space="preserve">
<path d="M333.2,361.5l5.3-7.5c0.5-0.5,0.9-1.1,1.3-1.7l0.8-1c0-0.1,0.2-0.3,0.4-0.5c0.2-0.2,1.8-2.4,2.8-3.5
	c4.3-5.5,8.9-10.7,13.8-15.7c1.8-2.1,1.6-5.2-0.5-7.1c-1.9-1.6-4.6-1.6-6.5,0C332.8,342.8,318,363.9,307,387
	c-3.1,6.7-6,13.5-8.6,20.4c-0.8,2.6,0.7,5.4,3.3,6.2c1.8,0.5,3.8,0,5.1-1.3c1.2-1.4,2.4-2.8,3.7-4.1l1.9-1.8l1.1-0.9l0.7-0.5
	c2.6-2.1,5.5-3.8,8.5-5.2c-0.4,0.8-0.7,1.6-1,2.4c-0.8,1.9-1.6,3.7-2.3,5.6c-5.8,15.5-9,31.9-9.6,48.5c-0.4,9.4,0.2,18.8,1.6,28.1
	c0.3,2.6,3.8,4.3,6.1,3.5c2.3-0.8,3.9-3.3,3.5-6.1c0-0.2-0.1-0.5-0.1-0.7c-0.1-0.5-0.1-1-0.2-1.6l-0.3-3.3c-0.2-2.2-0.4-4.3-0.5-6.5
	c-0.2-4.2-0.3-8.5-0.1-12.8c0.2-4.3,0.5-8.5,1-12.7c0-0.5,0.1-1.1,0.2-1.6v-0.7l0.6-3.3c0.3-2,0.7-4.1,1.1-6.2
	c1.8-8.4,4.2-16.6,7.4-24.6l0.6-1.5c0.2-0.3,0.3-0.6,0.4-0.9l1.2-2.8c1-2,1.6-4.1,1.7-6.3c0.2-2.7-1.1-5.4-3.4-6.9
	c-2.5-1.7-5.5-1.3-8.2-0.3c-2.3,0.9-4.6,1.9-6.8,3.1c2.4-5,5-10,7.8-14.9C326.2,372.4,329.7,366.6,333.2,361.5z"/>
<path d="M965,407.9c-3.5-5.3-9.2-10.6-10.1-17.1s0.7-13.4,1-20c0.3-6.6-1.6-13.2-4.5-19.6c-11-23.8-34.2-39.7-56.7-51.4
	c-8.3-4.3-16.8-8.2-25.4-11.9l9.7-1.9c3.1-0.6,4.6-4.8,3-7.4c-18.2-28.7-45.8-49-77.6-60.4c-5.3-1.9-10.6-3.6-16-5
	c4.5-1.9,9.3-3.3,14.2-4.1c3.8-0.5,4.8-6,2.2-8.3c-24.2-22.4-55.5-34.7-88.5-33.9c-5,0.1-10.1,0.5-15.1,1.1
	c4.8-4.8,10.3-8.7,16.3-11.8c4.1-2.1,2.6-7.8-1.2-9.1c-17.5-6-36.7-5.6-54.5-1.6c-18.4,4.2-35.6,12.4-50.4,24.2
	c-6,4.9-11.4,10.4-16.1,16.5c-9.9-12.7-23.7-22.1-38.3-28.7c-18.2-8.1-37.9-12.3-57.8-12.1c-10.4,0-20.8,1.7-30.7,4.9
	c-3.8,1.3-5.2,7-1.2,9.1c6.6,3.4,12.6,7.9,17.7,13.3c-28.3-1.1-56.4,4.8-81.9,17.2c-7.7,3.8-15.1,8.3-22.1,13.3c-1.7,1-2.7,3-2.4,5
	c0.3,1.8,1.6,3.8,3.6,4.1c5.9,1,11.7,2.8,17.1,5.4c-26.6,12.1-51.6,27.3-74.6,45.3c-7.3,5.7-14.3,11.6-21.1,17.8
	c-2.7,2.5-1.4,7.7,2.2,8.4l10.4,2.1c-18.1,8.5-35.3,19.1-49.8,32.9c-8.8,8.4-16.1,18.1-21.8,28.8c-3,5.9-5.4,12.2-7.2,18.6
	c-1.9,6.8-3.3,13.8-5.8,20.4c-5.1,13.4-20.4,24-16.5,39.8c0.8,2.7,3.7,4.2,6.4,3.4c0.8-0.2,1.5-0.6,2-1.2c2.7-2.9,6-5.3,9.7-6.9
	c-4,14.9-4.1,30.6-0.5,45.6c1.7,7.5,4.1,15.1,5.1,22.8c1,7.7,0.6,14.3-3.8,19.9c-1.5,1.9-2,4.4-0.3,6.5c1.5,2,4.3,2.6,6.4,1.3
	c4.6-2.9,8.8-6.3,12.8-10c-3.6,10.4-9.7,20.2-12.9,30.6c-4.2,13.9-4.4,31,6.9,41.6c3.6,3.3,9.8,0.1,8.4-4.9
	c-1.1-4.1-0.3-8.5,2.3-11.9c12.9,30.5,17.5,63.9,13.1,96.8c-0.3,2.3,1.8,4,3.6,4.8c18.1,7.2,36.5-5.5,49.8-16.6s26-22.9,36.7-36.6
	s18.9-28.2,22-44.8c1.6-9.2,1.7-18.5,0.3-27.7c-1.4-9.9-3.8-19.7-4.2-29.7c-0.5-19,7.2-37.3,21.3-50.1c3.8-3.4-0.2-9.4-4.9-8.3
	c-16.8,4.1-29.4,15.6-40.3,28.6c1.8-8.8,4.8-17.4,9-25.4c7.2-13.8,17.7-24.6,29.7-34.4c6.3-5.1,12.8-10,18.7-15.5
	c5.6-5.4,10.8-11.2,15.6-17.3c9.5-11.9,18.9-23.7,32.4-31.2c15-8.4,32.1-11.9,48.7-15.3c2.6-0.8,4.2-3.5,3.5-6.2
	c-0.8-2.9-3.5-3.8-6.2-3.5c-11.2,1.6-23.8-2.1-35-4.7c-7.4-1.7-15.1-3.5-22.8-4.2c7.6-5,16.4-7.7,25.3-9.7
	c14.2-3.2,28.8-4.6,42.8-8.4c4.5-1.2,4.4-6.6,1.6-8.8c-0.2-0.5-0.5-1-1-1.5c-11.6-13.2-26.2-23.3-42.7-29.3l0.8-0.2l1.4-0.2h0.9
	c3.7-0.4,7.4-0.6,11.1-0.6l5,0.3l2.8,0.3h2.3c3.5,0.5,6.9,1.2,10.3,2.3l2.1,0.7l1.1,0.4l4.2,2.1c2.5,1.3,4.9,2.8,7.2,4.5l1.4,1
	c0.1,0.1,0.6,0.4,0.7,0.6c1,0.7,1.9,1.5,2.8,2.3c1.6,1.4,3.1,2.8,4.6,4.3l0.8,0.9c0.4,0.9,1.1,1.7,2,2.1c3.1,1.6,7,0.1,7.5-3.6
	c0.2-1.3-0.1-2.5-0.8-3.6c-1-1.3-2.1-2.5-3.3-3.5c-3.9-3.8-8.1-7.3-12.6-10.3c-5.8-3.9-12.3-6.8-19.1-8.5
	c-8.4-1.9-16.9-2.6-25.5-2.1c-9.5,0.5-18.9,2.6-27.7,6.1c-2,0.8-3.8,2.5-3.7,4.8c0.1,2.3,1.5,4.5,3.7,4.9c4.3,0.7,8.5,1.8,12.7,3.1
	c2.1,0.6,4.1,1.4,6.2,2.2l1.5,0.6h0.3l0.3,0.2l2.9,1.3c3.9,1.9,7.7,4,11.4,6.3c1.9,1.2,3.7,2.5,5.5,3.8l1,0.7c0,0.1,0.5,0.4,0.7,0.6
	l2.6,2.1c2.2,1.9,4.3,3.9,6.3,6c-25.9,5.3-56.3,5.6-74,27.3c-3.3,4-0.1,9,4.9,8.3c11.2-1.5,23.8,2.2,34.9,4.8l6,1.3
	c-5.9,1.8-11.6,4-17.2,6.7c-7.3,3.4-14,7.8-20,13.1c-5.8,5.4-11.1,11.3-16,17.6c-4.8,6.3-9.9,12.4-15.4,18.2
	c-5.9,6.1-12.5,11.3-19,16.5c-12.9,10.3-24.6,21.3-32.9,35.6c-8.9,15.5-13.8,33-14.2,50.9c0,2.8,2.3,5,5.1,4.9
	c1.7,0,3.4-0.9,4.2-2.4c7.7-10.2,16.1-21.2,26.5-29c-4.7,8.2-7.9,17.2-9.2,26.6c-1.3,9.4-0.6,18.5,0.9,27.9s3.6,18.9,3.6,28.6
	c-0.3,33.1-25,59.8-48.3,80.4c-7.2,6.4-14.4,12.8-22.8,17.7c-6.8,4-14.3,6.7-22,5.2c3.9-35.5-2.1-71.3-17.3-103.6
	c-1.2-2.5-4.6-3-6.8-1.8c-4,2.2-7.3,5.5-9.4,9.5c-1.2-7.5,0.7-15.9,3.2-22.8c5.7-15.4,15.4-29.4,15.1-46.5c0-5.2-6.5-6.4-9.3-2.5
	c-2.6,3.7-5.5,7.1-8.7,10.3c0.6-9.8-2-20-4.5-29.6c-2.5-9.6-3.6-17.1-3.4-26c0.3-9.4,2.1-18.6,5.5-27.4c1.1-2.8-1.7-6.7-4.8-6.3
	c-4.9,0.6-9.7,2-14.1,4.2c1-1.7,2.1-3.4,3.2-4.9c3.5-5.2,7.4-10.1,10-16c5.1-11.9,6.4-25.1,11.8-36.9c9.8-21.1,27.5-37.1,46.9-49.2
	c11.2-7,23-12.9,35.3-17.9c2.1-0.9,3.7-2.4,3.7-4.8c-0.1-2.3-1.5-4.2-3.7-4.9l-15.9-3.1c21.3-18.4,44.7-34.2,69.7-47.1
	c7.8-4,15.8-7.8,23.8-11.2c4.1-1.7,4.9-6.5,1.2-9.1c-5.1-3.7-10.8-6.6-16.8-8.7c22-13.4,47-21.1,72.8-22.6
	c9.1-0.5,18.2-0.3,27.3,0.6c3.7,0.4,6.3-4.5,4.3-7.5c-4.8-7.3-10.8-13.7-17.8-18.9c13-2.5,26.6-2.1,39.8,0.2
	c17.8,3.2,35.3,9.9,50,20.5c7.4,5.4,13.9,12,18.9,19.7c0.9,1.5,2.5,2.5,4.3,2.4c1.8,0.1,3.5-0.8,4.3-2.4
	c8.9-14.2,22.5-24.9,37.4-32.4c15.3-7.9,32.3-12.2,49.5-12.5c5.3,0,10.6,0.4,15.8,1.3c-7,5.2-13,11.6-17.8,18.9
	c-2.5,3.9,1.7,8.2,5.7,7.3c29.4-6.3,60.3-3.1,86.5,12.2c4.8,2.8,9.4,6,13.8,9.5c-6.6,2-12.8,5.1-18.4,9.1c-3.2,2.3-3.4,8.2,1.2,9.2
	c31.1,6.3,61,19.4,83.4,42.5c4.6,4.7,8.8,9.8,12.6,15.2l-18.4,3.7c-2.1,0.4-3.6,2.8-3.6,4.8s1.6,4,3.6,4.9
	c22.8,9.3,46.2,19.1,65.8,34.2c9.4,7.2,17.8,15.9,23.6,26.3c2.5,4.6,5.2,10,5.5,15.4c0.3,5.4-1.1,13.1-1.2,19.6
	c-0.1,3.6,0.4,7.2,1.6,10.6c1.6,3.6,3.6,6.9,6,9.9c2.2,2.9,4.2,5.9,6,9c-4.4-2.3-9.2-3.8-14.2-4.4c-3-0.3-5.9,3.6-4.8,6.4
	c2.8,7.2,6.4,14.2,9.4,21.3s5.5,13.8,5.7,21c0.3,13.7-10.5,24.9-14.3,37.5c-0.5,1.7-0.8,3.4-1,5.1c-4.1-3.6-7.8-7.7-10.9-12.2
	c-2.8-3.9-9.2-2.7-9.3,2.5c-0.3,17,9.4,30.9,15,46.3c2.6,6.9,4.5,15.4,3.3,23c-2.1-4-5.3-7.3-9.3-9.5c-2-1.1-4.5-0.8-6.1,0.8
	c-14.7,14.3-21.9,33.7-21.7,54.2s6.2,38.4,14.3,55.9c2.9,6.2,6.1,12.2,9.5,18.1c-2.4-0.7-4.7-1.6-6.9-2.8c-7.7-3.9-15-8.5-21.9-13.8
	c-13-9.6-25.5-20.3-37.5-31.1c-16.8-15.1-33.6-32.5-41.9-54c-3.6-9.3-6.6-20.9-4.6-30.9s7.9-19.9,7.8-30.5c0-3.1-0.7-6.1-1.9-8.9
	c-1.3-2.5-2.9-4.8-4.7-7c-4-5.5-7.7-11.2-11.5-16.8s-7.8-11.5-12.1-17c5.4,2.5,10.6,5.4,15.7,8.4c10.2,6.3,20.7,13.7,28,23.4
	c1.4,1.8,3.3,2.9,5.7,2.3c2.1-0.7,3.6-2.7,3.6-4.9c-0.4-17-7.2-32.3-14.2-47.5c-3.5-7.2-6.5-14.5-9.2-22
	c-2.6-7.5-6.6-14.5-11.7-20.6c-9.6-11.8-22-20.9-34.2-29.6c-7-5.1-14.2-10-21.4-14.9c-7.2-4.9-13.5-9.7-20.9-13.4
	c-7.4-3.7-15.6-6.4-23.8-8.8c10.8,1.1,21.2,4.4,30.7,9.7c2.4,1.3,5.5,0.5,6.8-1.9c0.8-1.5,0.8-3.3,0-4.9
	c-6.3-11.7-15.7-21.6-26.1-29.7c-11.4-9-24.2-15.9-38-20.4c-4.5-1.4-9-2.6-13.6-3.4c0.9-0.9,1.8-1.7,2.7-2.5l2.4-2.1l1.3-1l0.9-0.8
	l5-3.5c3.6-2.4,7.4-4.6,11.3-6.5l2.9-1.4l1.2-0.6l0.8-0.3h0.3c1.9-0.8,3.9-1.6,6-2.3c4.7-1.6,9.4-2.8,14.3-3.7
	c2.2-0.5,3.8-2.5,3.7-4.8c-0.1-2.4-1.5-3.9-3.7-4.8l-0.5-0.2l-0.7-0.3l-2.5-1.2l-4.7-2.3c-3.5-1.7-6.9-3.4-10.4-4.9
	c-7-3.2-14.5-6.2-22.3-6.6c-4.4-0.2-9,0.7-13.3,1.5c-4.2,0.7-8.2,1.9-12.1,3.5c-7,3-13,7.8-18.7,12.8c-3.2,2.7-6.2,5.5-9.3,8.3
	l-4.7,4l-1.2,0.9c-0.1,0.2-0.3,0.3-0.4,0.4l-2.7,1.9c-2.1,1.5-3.3,4.5-1.8,6.9c1.5,2.4,4.6,3.4,6.9,1.8c6.1-4.3,11.6-9.5,17.2-14.5
	l4.2-3.7l2-1.7l1.1-0.9l0.4-0.3l0.3-0.3l0.8-0.5l0.9-0.7l2.3-1.6c1.4-1,2.9-1.9,4.5-2.7l2.3-1.1l0.4-0.2l1.2-0.5l5.4-1.5
	c2.1-0.5,4.3-0.9,6.5-1.2l1.6-0.3h0.8l3.2-0.3h3.9c1.6,0.4,3.2,0.6,4.8,1.1c1.7,0.5,3.4,1,5.1,1.7l2.4,0.9l0.6,0.2l1.2,0.5l9.2,4.4
	c-13.1,4.3-25.2,11.1-35.7,20c-3.9,3.3-7.5,6.9-10.9,10.7c-1.7,2-2,5.2,0,7.1c0.2,0.2,0.5,0.4,0.7,0.6c0.9,0.9,2.1,1.5,3.5,1.5
	c16.3,1.2,32.1,7.6,45.8,16.3c8.5,5.3,16.3,11.9,22.9,19.4c-5.9-2-12.1-3.3-18.3-3.9c-10-1-20,0-30,1c-5.7,0.7-6.7,7.7-1.3,9.9
	c14.2,5.7,29.6,8,43.8,13.9c7.5,3.1,14,7.5,20.7,12l20.2,13.9c11.9,8.4,24,16.8,34.1,27.4c5.1,5.2,9.3,11.1,12.5,17.6
	c1.5,3.3,2.5,6.9,3.8,10.2c1.3,3.3,3,7.5,4.7,11.2c5.1,11.4,10.9,22.8,14,34.9c-6.1-5.3-12.6-10.1-19.5-14.3
	c-11.4-7-23.9-13.2-37-16.4c-4.7-1.1-8.8,4.9-4.9,8.4c8.8,8,15.7,17.8,22.4,27.6c3.5,5.2,7,10.4,10.6,15.5c3.6,5.1,6.9,7.9,7.6,12.4
	s-1.1,9.8-2.5,14.2s-3.7,10.3-4.8,15.6c-2.2,11.2,0,23.4,3.7,34c8,22.6,24.2,41.2,41.5,57.2c12.8,11.9,26.2,23.2,40.2,33.7
	c7.9,6,16.1,11.9,25,16.3c6.5,3.1,15.2,6.8,22.4,4c2.8-1.2,4.9-4.4,3-7.4c-9.4-14.1-16.8-29.4-21.9-45.6c-5.2-16.7-7.6-35-2.5-52.1
	c2.5-8.5,7-16.4,13-22.9c3.6,3.4,5,8.5,3.6,13.3c-1.4,4.9,4.8,8.2,8.4,4.9c11.4-10.7,11.1-27.8,6.9-41.7
	c-3.2-10.4-9.2-20.2-12.9-30.5c4,3.7,8.3,7,12.8,10c2.2,1.2,4.9,0.7,6.5-1.3c1.6-2.1,1.2-4.5-0.4-6.6c-3.2-4.1-2-9.1-0.3-13.8
	c1.7-4.7,5.8-11.7,8.6-17.6c2.8-5.9,5.5-13.1,5.3-20.3c-0.2-7.2-2.5-14.9-5.3-21.8c-1.9-4.8-4.2-9.5-6.3-14.2
	c3.2,1.6,6.1,3.8,8.5,6.4c2,1.9,5.3,1.9,7.2-0.2c0.5-0.6,1-1.3,1.2-2C971.5,421.1,969,414.2,965,407.9z M538.7,281.4
	c0.8,0,1.7,0.3,2.4,0.7c-0.8-0.4-1.8-0.7-2.7-0.7H538.7z"/>
<path d="M869.5,400.9l1.1,0.8l0.8,0.7l2.3,2c1.6,1.5,3,3,4.4,4.7c1.6,1.6,4,1.9,6,0.8c1.8-1.2,3.1-3.6,2.3-5.7
	c-9-24.2-21.8-46.8-38-66.9c-4.5-5.5-9.2-10.9-14.1-16c-2-2-5.1-2-7.1,0s-2,5.1,0,7.1c4.4,4.5,8.5,9.2,12.5,14l2.7,3.3l1.3,1.7v0.2
	h0.2l0.9,1.2c1.8,2.5,3.6,4.9,5.4,7.5c7,10.2,13.3,20.9,18.7,32c0,0.2,0.1,0.4,0.2,0.5l-3.3-1.6c-2.3-1-4.7-2.2-7.2-2.3
	c-3.3-0.2-6.3,1.9-7.4,5c-1.6,4.1,0.9,8.5,2.5,12.2l0.3,0.6c0.2,0.5,0.3,1,0.5,1.4c0.5,1,0.9,2.1,1.2,3.2c0.8,2,1.5,4.1,2.2,6.1
	c1.3,4.1,2.4,8.2,3.4,12.3s1.7,8.4,2.4,12.6c0,0.3,0,0.7,0.1,1c0,0.4,0.1,0.8,0.1,1.2s0.3,2.3,0.4,3.4c0.1,1.1,0.4,4.3,0.5,6.5
	c0.3,4.8,0.3,9.5,0.1,14.3c-0.1,2.4-0.2,4.8-0.4,7.2s-0.3,2.4-0.4,3.6s-0.1,1.1-0.2,1.7c0,0.1-0.1,0.2-0.1,0.3
	c0-0.1-0.1,0.8-0.1,0.9c-0.3,1.3-0.1,2.6,0.5,3.8c0.7,1.1,1.8,1.9,3,2.3c2.4,0.5,5.8-0.7,6.2-3.5c2.4-16.7,2-33.6-0.9-50.2
	c-1.4-7.9-3.5-15.8-6.1-23.4c-1.3-3.8-2.8-7.4-4.4-11c0.8,0.3,1.5,0.7,2.2,1.1C866.1,398.5,867.8,399.6,869.5,400.9z M858,394.9h0.2
	C858.1,395,858,395,858,394.9z M860.8,392.9c0-0.2-0.1-0.3-0.1-0.4C860.8,392.6,860.8,392.7,860.8,392.9L860.8,392.9z"/>
</svg>
