<?xml version="1.0" encoding="utf-8"?>
<!-- Generator: Adobe Illustrator 24.2.3, SVG Export Plug-In . SVG Version: 6.00 Build 0)  -->
<svg version="1.1" id="fe17981d-ec36-4bba-8894-f16a7f2c9ac2"
	 xmlns="http://www.w3.org/2000/svg" xmlns:xlink="http://www.w3.org/1999/xlink" x="0px" y="0px" viewBox="0 0 1152 864"
	 style="enable-background:new 0 0 1152 864;" xml:space="preserve">
<path d="M1037.3,385.5c-8.5-14.7-17.8-28.8-27.8-42.5c-19.5-26.4-42.2-50.4-68.9-69.5c-26.7-19.1-56.3-32.8-88.1-38.1
	c-18.2-3-35.3-1.1-52.9,4.3c-14.1,4.3-28,9.7-41.4,15.9c-28.3,13.5-54.8,33.1-69.7,61.3c-48.1-2.4-96.3-2.2-144.5-0.7
	c-24.8,0.8-49.7,1.9-74.6,3.2l-18.2,0.9c-4.7,0.3-11.4,1.8-15.7-0.7c-4.3-2.5-5.4-5.7-7.4-8.9c-2-3.2-5.1-7.6-8.6-10.5
	c-8.1-6.8-18.7-10.6-28.3-14.9c-10-4.6-20.2-8.6-30.7-12c-22.4-7-45.2-7.7-68.3-4.6c-23.1,3.1-46.7,8.5-69.7,14.2
	c-10.1,2.5-20.1,5.6-28.4,12c-8.3,6.4-15.4,15.9-22,24.6c-14.7,19.6-27.4,40.5-38,62.6c-10.8,22.7-22.2,48.1-19.2,73.8
	c0.6,5.1,6.3,6.7,9.3,2.6c20.5-28.2,40.1-58,64-83.5c0,17,1.7,34,5.3,50.6c1.3,5.8,2.7,11.4,4.4,17c0.5,2,2.2,3.4,4.2,3.5
	c0.1,0.1,0.1,0.1,0.1,0.2c0.1,0,0.1,0.1,0.1,0.2h0.1c0,0.2,0.1,0.4,0.2,0.6l0.3,1c0.2,1.1,0.4,2.1,0.7,3.2c1,4.1,2.2,8.2,3.5,12.2
	c2.8,8.4,6.3,16.5,10.4,24.3c1.6,2.9,3.2,5.9,5,8.7c-1.1,1.1-2,2.3-2.7,3.7c-0.6,1.3-0.7,2.7-0.3,4.1c-0.1,1.4,0.4,2.9,1.4,3.9
	c5.7,6.1,11.2,12.4,16.6,18.8l7.7,9.6c0.1,0.2,0.2,0.2,0.2,0.3s0.1,0.1,0.2,0.2l1.1,1.5l1.7,2.2l3.9,5.3c0.9,1.3,2.3,2.2,3.8,2.4
	c-1,6.8-1.7,13.5-2.4,20.2s-0.7,16.1,3,23.5c1.1,2.4,4.7,3.2,6.8,1.8c2.3-1.4,3.1-4.4,1.8-6.8c-0.1-0.3-0.2-0.6-0.4-0.8
	c0-0.2-0.2-0.7-0.2-0.8c-0.3-0.6-0.5-1.3-0.7-2c-0.1-0.7-0.3-1.4-0.4-2c-0.1-0.6-0.1-0.6-0.1-0.8c-0.1-0.4-0.1-0.9-0.1-1.3
	c-0.2-3.2-0.2-6.3,0.2-9.5c0.3-3.2,0.7-6.4,1-9.6l0.6-4.8l0.2-0.9V554c0.2-0.8,0.3-1.5,0.4-2.3c1.8-13,4.3-25.9,8.5-38.3l1.8-4.9
	c0.3-0.9,0.7-1.8,1.1-2.6v-0.2c0.3-0.5,0.5-1,0.7-1.6c1.5-3.3,3.2-6.5,5-9.7c1.4-2.4,0.7-5.4-1.6-6.9c-2.4-1.4-5.4-0.7-6.9,1.6
	l-0.1,0.1C265.8,504,261,520.3,258,537c-8.8-11.7-18.1-23-28.1-33.7h0.1c0-0.1,0-0.1,0.1-0.1c0.2-0.1,0.8-0.5,1-0.6
	c1.3-0.5,2.3-1.5,2.8-2.7c0.6-1.4,0.5-3.1-0.3-4.4c-5-7.6-9.3-15.7-12.9-24.1l-0.3-0.6l-0.6-1.6c-0.5-1.1-0.9-2.2-1.3-3.3
	s-1.6-4.4-2.3-6.6c-1.4-4.3-2.6-8.6-3.6-13c-0.4-2.1-1.2-4.2-2.4-6c-0.8-1.3-2-2.3-3.3-3.1h-0.2c-2.5-9-4.5-18-6-27.2
	c-0.1-1.1-0.3-2.3-0.5-3.5V406c-0.1-0.2-0.1-0.3-0.1-0.5l-0.3-2.1c-0.3-2.5-0.5-5.1-0.7-7.6c-0.5-5.1-0.7-10.2-0.8-15.4
	c-0.1-5.2,0-10.4,0.3-15.6c21.2-20,47.8-36.3,77.3-38.5c-0.3,2,0.6,4,2.3,5l3.2,2.1l0.6,0.5l0.4,0.3l1.6,1.4c2,1.8,3.8,3.7,5.5,5.8
	c0.1,0,0.1,0.1,0.2,0.2l0.3,0.4l1.3,1.8l2.3,3.8c1.5,2.6,2.8,5.2,4.1,7.8c2.9,5.4,5.7,10.9,8.2,16.5c0.6,1.2,1.2,2.5,1.7,3.8v0.2
	c0.1,0.4,0.3,0.7,0.5,1.1l0.9,2.4c1,2.7,2,5.4,2.9,8.2c0.9,2.8,2.3,8,3.3,12.1c-13.4-2.1-26.7-4.5-40-7.3c-2.4-0.6-4.9,0.7-5.9,2.9
	c-0.8,2.1-0.2,5.2,2.1,6.3l3.9,2l1.7,1.1l1,0.7h0.1l3.1,2.8l1.4,1.5l0.7,0.9h0.1c0,0.1,0.1,0.1,0.1,0.2c1.6,2.1,4.4,3.4,6.9,1.8
	c2.5-1.6,3.4-4.6,1.8-6.8c9.3,1.7,18.6,3.2,27.9,4.5c1.7,0.4,3.6,0,4.9-1.2c1.2-1.3,1.7-3.2,1.3-4.9c-2.2-12.3-5.9-24.3-11-35.7
	c-2.6-5.7-5.4-11.3-8.3-16.8c-2.9-5.5-5.4-10.7-9-15.5c-2.8-3.8-6.1-7.2-9.8-10.2c16.4,1.1,32.4,6.6,45,17.3c4.9,4.2,12-2.9,7.1-7.1
	c-26.9-22.9-65.3-25.3-97.4-12.6c-35.6,14.1-62.2,42.3-85,72.1c-11.4,14.7-22.3,29.9-33.2,44.9c1.7-17.6,9.2-34.7,16.6-50.6
	c9-19.2,19.6-37.6,31.7-55c6.2-8.9,12.6-17.8,20-25.7c7.4-7.9,16.1-12.6,26.6-15.5c22.2-6,44.8-10.9,67.5-14.5
	c22.7-3.5,45.3-3.9,67.5,2.6c10.8,3.2,21.3,7.2,31.5,11.9c8.9,4,20.1,7.6,27.4,14.3c7.3,6.7,8.5,13.7,15,18.7
	c8.3,6.3,20.3,3.5,29.9,3c23.7-1.2,47.3-2.3,71-3.2c54-1.9,108-2.4,162,0.3c1.8,0,3.4-0.9,4.3-2.5c12-24.2,32.8-41.8,56.2-54.5
	c11.8-6.3,24.1-11.7,36.7-16.1c15.2-5.4,30.9-10.6,47.2-10.2c29.7,0.7,59.9,13.4,84.9,28.7s48.6,36.8,68,60.2
	c11,13.4,21.1,27.5,30.3,42.1c4.7,7.5,9.3,15.2,13.6,22.9c2.2,3.8,5.5,9.8,5.3,14.9c-25.9-27.9-52.2-56.2-81.8-80.2
	s-63.1-42.4-101.3-45.9c-20.9-1.9-41.8,1.3-60.8,10.3c-3.9,1.8-2.9,8.3,1.2,9.1c5.4,1.2,10.6,3.1,15.4,5.7c-1.4,2.4-3.2,4.7-5.3,6.6
	c-3.4,3.2-0.6,8.3,3.5,8.6c6.7,0.4,3.4,10.5,1.4,13.5c-4.3,6.2-10.3,11.2-14.8,17.3c-9.2,12.4-15.4,26.8-18,42.1
	c-0.7,4.1,3.3,8.1,7.4,5.7c13.4-8.1,28.6-12.9,44.2-14c0.8,3.3,1.7,6.7,2.5,10.1c0.8,3.4,2.7,3.8,4.8,3.6l4.9-0.4
	c-0.2,4.7,0.3,9.5,2.9,13.6c1.8,2.8,4.6,5,7.8,6c3.8,1.3,6.8,1.4,9.3,4.9c4.2,5.8,5,13.4,8.6,19.5c3.6,6.1,10.1,12,18.1,11.1
	c6.3-0.8,6.3-10.8,0-10s-9.8-5.8-11.7-10.9c-1.9-5.1-3.6-11-7-15.7c-1.6-2.2-3.7-4.1-6-5.6c-2.7-1.6-5.9-1.6-8.6-3
	c-4.7-2.3-3.6-9.9-3-14.1s-1.3-6.6-4.8-6.3l-6.7,0.6l-2.5-10c-0.6-2.2-2.6-3.7-4.8-3.7c-14.9,0.6-29.6,4.1-43.2,10.4
	c4.5-14.8,12.6-27.6,23.4-39.1c5.5-5.9,10.8-12.9,9.8-21.4c-0.5-4.3-2.5-8.2-5.8-11c2-2.8,3.7-5.9,4.9-9.2c0.8-2.1-0.6-4.5-2.3-5.6
	c-2.7-1.7-5.5-3.2-8.4-4.5c30-9.4,63.7-4,91.9,9.2c20.5,9.6,38.8,23,55.9,37.8h-0.6c-3,1-5.8,2.6-8,4.9c-4.4,4.7-6.5,11.1-5.8,17.5
	c0.7,6.8,3,13.1,4.2,19.7c0.1,0.4,0.1,0.8,0.2,1.2c0.1,0.8,0.2,1.7,0.2,2.5v2.1c0,0.4-0.1,0.8-0.1,1.3v0.2c-0.7,3.1-1.7,6.1-3,9
	c0,0.1,0,0.1-0.1,0.1c-0.1,0.3-0.2,0.7-0.4,1l-0.9,2c-0.6,1.4-1.3,2.7-2,4.1c-0.7,1.4-3,5.2-4.6,7.7s-1.5,2.2-2.3,3.2
	s-0.9,1.3-1.3,1.9l-0.5,0.7l-0.6,0.7c-1.7,2.3-3.5,4.4-5.4,6.5c-1.9,2.1-4.2,4.7-6.4,6.9c-2.2,2.2-2.1,2.2-3.2,3.2l-1.7,1.4
	l-0.2,0.2h-0.2l-1,0.8c-5.1,3.6-10.5,6.6-15.6,10.2c-2.9,2.1-5.6,4.4-8,7.1c-2.8,3.4-4.1,7.8-3.3,12.2c0.5,3.1,1.9,5.9,3,8.8
	l0.9,2.4c0,0.2,0.1,0.4,0.1,0.6c-0.3,0.8-0.5,1.7-0.6,2.6c-1.4,2.7-2.9,5.3-4.7,7.7l-1.3,1.7c-0.1,0.2-0.3,0.4-0.3,0.5l-0.8,0.9
	l-3.4,4.2c-4.5,5.5-8.8,11.2-11.9,17.6c-6.5,13.4-8.1,28.1-8.1,42.8c0.1,8,0.5,16.1,0.7,24.1c0,2.8,2.2,5,5,5c2.7-0.1,4.9-2.3,5-5
	c-0.2-9.8-0.8-19.5-0.6-29.3c0-2.4,0.2-4.9,0.3-7.3s0.2-2.3,0.4-3.4c0-0.6,0.1-1.1,0.2-1.7c0-0.3,0.1-0.7,0.1-1.1
	c0.8-4.8,2-9.5,3.6-14.1l0.6-1.6l0.3-0.8c0.5-1.2,1.1-2.4,1.7-3.6c1.1-2.2,2.3-4.3,3.6-6.3l1.9-2.7c0.4-0.4,0.7-0.8,1-1.3l0.3-0.4
	l0.3-0.4l4.4-5.4c3.2-3.7,6-7.7,8.6-11.8c0.6-0.9,1.1-1.9,1.6-2.8c0.4-0.8,0.8-1.6,1.1-2.5c0-0.2,0-0.3,0.1-0.5
	c0-0.2,0.1-0.5,0.1-0.7c0.3-0.8,0.6-1.6,0.7-2.4c0.3-1.7,0.2-3.4-0.3-5c-0.6-2-1.5-3.9-2.3-5.9l-1-2.8c-0.1-0.5-0.3-0.9-0.4-1.4
	s-0.1-0.4-0.1-0.6v-1.4c0-0.2,0.1-0.4,0.1-0.6c0.1-0.1,0.1-0.1,0.1-0.2c0-0.1,0.1-0.3,0.1-0.4l0.5-0.7l0.2-0.3c1.5-1.6,3-3,4.7-4.4
	l0.6-0.4l1.4-1.1l2.9-1.9l5.9-3.7c4.5-2.6,8.6-5.7,12.3-9.3c6.7-6.6,12.8-13.8,18.2-21.4c5.3-7.6,9.5-15.9,12.5-24.7
	c1.7-5.1,2-10.6,1-15.9c-0.8-4.8-2.4-9.4-3.4-14.2l-0.3-1.7c-0.1-0.3-0.1-0.5-0.2-0.8v-1.6c-0.1-0.7-0.1-1.4-0.1-2.1v-1.8
	c0.1-0.9,0.3-1.7,0.6-2.5l0.2-0.3l0.3-0.6c0.3-0.4,0.5-0.8,0.7-1.2l0.4-0.5l0.9-1.1l0.5-0.4l0.3-0.2l0.8-0.6l1.1-0.6l0.7-0.2
	l0.8-0.2l0.4,0.2h0.1l0.6,0.3l1.5,1c1.9,1.2,4.4,0.9,6-0.6c6.1,5.7,12,11.5,17.9,17.4c16.1,16.2,31.9,32.7,47.6,49.5
	c1.9,2,5.1,2,7.1,0C1053.8,412.8,1044.1,397.1,1037.3,385.5z M201.7,445.5L201.7,445.5C201.8,445.6,201.8,445.6,201.7,445.5
	C201.8,445.6,201.8,445.6,201.7,445.5l0.1,0.2l0.2,0.1c-0.1,0.1-0.1,0-0.2-0.1C201.6,445.5,201.6,445.5,201.7,445.5
	C201.7,445.5,201.7,445.5,201.7,445.5z"/>
</svg>
