<?xml version="1.0" encoding="utf-8"?>
<!-- Generator: Adobe Illustrator 24.2.3, SVG Export Plug-In . SVG Version: 6.00 Build 0)  -->
<svg version="1.1" id="eaf3fbd6-893c-42ca-980f-81fe641c8478"
	 xmlns="http://www.w3.org/2000/svg" xmlns:xlink="http://www.w3.org/1999/xlink" x="0px" y="0px" viewBox="0 0 1152 864"
	 style="enable-background:new 0 0 1152 864;" xml:space="preserve">
<path d="M982.5,359.1c-9.5-24.1-36.3-27.6-58.4-33.4c-12.4-3.3-24.8-7-36.5-12.7c-11.4-5.5-21.8-12.9-30.6-22
	c-9.6-9.7-18.1-20.4-26.8-30.8L801.4,226c-8.2-9.7-16.5-19.3-26.8-26.8c-9.5-7-20.4-11.9-31.9-14.6c-22.3-5.5-44.8-2.7-66.6,4
	c-5,1.5-10,3.2-14.9,5.2s-7.5,3.4-9.5,7.8s-1.8,8-6.3,9.6c-4.5,1.6-10.5,0.5-15,3.4c-4.5,2.9-5.5,10.2-5.4,14.8
	c0.4,5.6,2,11.1,4.9,15.9c5.8,10.8,15.8,18.2,22.1,28.5c2.1,3.6,3.8,7.4,3.9,11.5c-43.2-4.7-86.5-4.5-129.9-2.6
	c-21.7,0.8-43.3,3.7-64.5,8.7c-5.1,1.4-10.3,2.1-15.5,2.3c-1.3,0.1-2.6,0.1-3.9,0c0.2-0.2,0.3-0.4,0.4-0.6c2-2.1,3.7-4.7,5.5-6.9
	c6.5-8.5,12.6-17.2,18.3-26.3c4.8-7.7,14.7-21.1,6.6-29.8c-3-3.1-7.4-4.3-11.5-3.3c-2.9-3.8-7-6.4-11.6-8.3
	c-7-2.8-16.1-5.3-23.6-3.9c-4.2,0.8-7.9,3.2-12.3,3.2c-4.4,0-9.3-1.6-13.9-2.3c-9.3-1.5-18,0.6-26.4,4.5
	c-8.4,3.9-16.9,9.6-25.1,14.7c-8.2,5.1-16.8,9.9-24.5,15.8c-7.7,5.9-13.7,13.7-19.8,21.4s-11.9,15.3-18.1,22.8
	c-11.9,14.3-25,28-40.6,38.2c-7,4.7-14.6,8.5-22.6,11.3c-7.9,2.8-16,4-24.1,5.5c-14.8,2.8-30.6,7.6-37.5,22.3
	c-6.9,14.7-2.4,33.6,5.7,48c5.1,9.1,11.6,17.5,16.8,26.6c5.4,9.4,9.2,19.7,11.4,30.3c1.5,7.3,4,17.8,13.3,18.2c2,0.1,4-0.4,5.8-1.3
	c2.5,5.5,5.7,10.6,9.5,15.2c5.8,6.8,13.3,10.4,20.8,14.7s11.9,10.2,12.1,19s-2.8,17.3-5.8,25.4c-1.3,3.5,2.7,7.2,6.1,6.1
	c8.3-2.7,16.1-6.7,23.1-11.8c-0.5,9.2,0.7,18.5,3.6,27.3c1.4,4.1,6.9,5.1,9.2,1.2c2.3-3.9,3.8-6.4,5.9-9.6c0.2-0.5,0.5-1,0.9-1.5
	l0.3,1.7c0,0.3,0.1,0.5,0.1,0.8c0.1,0.3,0.1,0.5,0.1,0.8c0.3,3.2,0.5,6.4,0.4,9.6c-0.3,13.2-3.1,26.4-1.2,39.6
	c0.5,3.5,1.3,7,2.6,10.3c0.6,1.7,1.4,3.3,1.9,5s0.3,0.8,0.4,1.3c0.1,0.5,0.1,1.4,0.1,0.3v1.3c-0.1,0.2-0.1,0.5-0.2,0.7
	c-0.9,2.6,0.4,5.5,3,6.4c2.6,0.9,5.5-0.4,6.4-3c0.1-0.2,0.2-0.5,0.2-0.7c1.3-4.2,0.1-8.4-1.5-12.3c-1.3-3.2-2.4-6.5-3-9.9
	c0-0.4-0.1-0.8-0.2-1.2v-0.4l-0.3-2.5c-0.1-1.7-0.1-3.5-0.1-5.2c0-3.6,0.2-7.2,0.5-10.8c0.6-7,1.4-14,1.4-21.1c0-3.9-0.3-7.8-1-11.7
	c-0.6-3.5-2-7.2-5.3-9c-2.6-1.4-5.7-1.3-8.3,0.1c-1.9,1.2-3.5,2.7-4.7,4.6l-0.7,1c-0.1-0.2-0.1-0.5-0.1-0.7s-0.1-0.4-0.1-0.6
	s-0.1-0.6-0.1-0.9s-0.1-1.5-0.2-2.3c-0.2-2.8-0.2-5.7,0-8.5c0-1.4,0.1-2.7,0.3-4.1c0-0.2,0-0.5,0.1-0.7c0-0.3,0-0.5,0.1-0.8
	c0.1-0.7,0.2-1.5,0.4-2.2c0.1-0.6,0.1-1.1,0-1.7c6.4-6.3,12-13.5,16.6-21.3c13.5-22.4,19.1-48.4,23.2-73.9
	c4.6-28.4,8.6-56.9,12.9-85.4c4-26.4,8.2-53.5,19.4-78.1c10.4-23,27.6-44.6,51.6-54.5c5.9-2.4,3.3-12.1-2.7-9.6
	c-47.5,19.5-66.1,70.7-74.4,117.5c-5,28.1-8.7,56.5-13,84.8c-4,26.7-7.3,54.4-18.1,79.5c-8.6,20-22.9,38.9-42.7,48.7
	c4-14.3,5.1-30.4-7.1-40.7c-7-5.9-16.2-8.5-22.7-14.8s-10.1-14-13.7-21.8c-0.2-1.1-0.6-2.2-1.3-3.1c-1.6-2.2-4.7-2.7-7-1.1
	c-1.8,1.3-2.5,3.6-1.8,5.6l-0.4,0.2c-1-0.4-0.5,0.5-1.7-0.6c-1.2-1.1-2.5-6.3-3.1-8.9c-1.6-8-4-15.9-7.3-23.4
	c-6.7-15.3-17.9-27.9-25.1-42.9c-5.7-12.1-8.2-29.1,2.3-39.4s24.8-9.9,37.1-12.3c31.1-6.1,56-26.7,76.3-50.1
	c11.3-12.9,21.1-27.1,32.3-40c11.2-12.9,28-21,42.6-30c7.7-4.8,15.6-10,24.5-11.9c8.9-1.9,17.3,2.3,26.2,2.3c4.5,0,8.3-1.5,12.4-2.9
	c4.1-1.4,8.2-0.3,12.3,0.6c6.1,1.4,14.4,3.6,16.4,10.4c1.3,4.4,7.8,4.9,9.4,0.7c-0.4,0.7-0.5-1,0.1-0.4l0.3,0.3c0.8,1,1.1,0.4,1,2.5
	c-0.2,4.9-4.8,10.5-7.3,14.5c-5.2,8.6-10.9,16.9-17,24.8c-4.3,5.6-14.6,14.8-7.7,22.2c3,3.2,8.1,3.3,12.2,3.2
	c5.6-0.2,11.2-0.9,16.7-2.3c10.1-2.4,20-4.8,30.3-6.1s20.5-2,30.7-2.5c21.2-1,42.6-1.6,63.8-1.5c24.4,0.2,48.7,1.7,72.9,4.4
	c2.1,0.3,4.4-1.7,4.8-3.6c3.1-14.4-5.7-26.3-14.8-36.4c-7.2-8.1-19.6-20.9-14-32.7c7.3-2,16-1.2,20.7-8.4c1.8-2.8,2-6.6,3.8-9.2
	c1.8-2.6,6.2-3.3,9-4.3c17.1-6,34.7-10.4,53-9.4s38.5,8.1,53.1,21.4c8.3,7.6,15.3,16.4,22.5,25c7.2,8.6,16.1,19,24.1,28.6
	c13.9,16.6,27.4,34.3,45.5,46.7s38,18,58.2,23.1c18.4,4.8,41.5,7.9,47.9,29.1c5.6,18.7,3.2,39.9-3.4,58.1
	c-13.9,38.9-50,65.7-90.1,72.1c2.2-3.5,4.3-7,6.6-10.3c11.9-17.4,26.3-33,40.2-49.2c7.2-8.4,14.2-16.8,20.7-25.7
	s12.6-17.8,14.8-28.4c1.1-5.4,0.9-11-0.7-16.3c-0.8-2.4-3.5-4.3-6.1-3.5s-4.4,3.5-3.5,6.2c1.4,4.3,1.4,8.8,0.1,13.1
	c-1.4,4.9-3.4,9.5-6.2,13.7c-5.6,9-11.8,16.7-18.5,24.7c-13.7,16.6-28.5,32.4-41.6,49.6c-6.3,8.3-12.1,17-17.5,26
	c-2.7,4.4-5.5,8.9-8.6,13.1c-1.4,1.8-2.6,3.4-4.4,5.4c-1.6,1.9-3.4,3.6-5.2,5.3c-6.9,6.3-15,11.9-19.5,20.4
	c-1.1,2.1-2.1,4.3-2.9,6.6c-0.2,0.3-0.3,0.7-0.4,1l-0.5,0.9c-0.2,0.5-0.4,1-0.7,1.4l-0.4,0.5v0.2h-0.1l-0.8,0.8l-0.6,0.4h-0.2
	l-0.7,0.2h-1.3l-0.7-0.2l-1.7-0.5l-0.6-0.3l-1.8-1c-0.9-0.5-1.7-1.2-2.4-1.9l-2.7-2.6l-2.5-2.9l-2.1-2.6l-9.7-13.2
	c-6.5-8.9-12.9-18-18.9-27.3c-11.9-18.6-21.7-37.9-26.8-59.3c-2.5-10.2-3.6-20.8-3.2-31.3c0.4-11.5,2.5-22.3,4.6-33.6
	c2.1-11.3,3.8-23.2,4-35c0.3-11.6-0.7-23.2-2.8-34.6c-3.8-20.1-11.1-40.4-24.6-56.1s-32.2-24.3-51.8-22c-5,0.6-9.8,1.9-14.4,3.9
	c-2.5,1.1-3.1,4.7-1.8,6.9c1.3,2.2,4.3,2.9,6.8,1.8l0.4-0.2l0.5-0.2l1.6-0.6l3.3-0.9l3.3-0.7h2.8c2.3-0.2,4.5-0.2,6.8,0l1.7,0.2h0.8
	l3.7,0.8c2.2,0.5,4.4,1.2,6.6,2l1.6,0.6h0.1l0.8,0.4c1.1,0.4,2.1,0.9,3.1,1.5c2.1,1.1,4.2,2.3,6.2,3.7l1.4,1.1h0.3
	c0.1,0.2,0.3,0.3,0.5,0.4l2.7,2.3c1.8,1.7,3.6,3.5,5.2,5.3l2.2,2.6l0.7,0.9l1.1,1.5c2.9,4,5.4,8.2,7.6,12.6l1.6,3.2
	c0.2,0.6,0.5,1.1,0.7,1.7l0.3,0.7h0.1c1,2.4,1.9,4.7,2.7,7.1c1.7,5,3.1,10.1,4.3,15.2c2.5,10.9,3.8,22,4,33.2
	c0,11.4-1,22.7-3.1,33.9c-0.6,3.8-1.3,7.6-2,11.4l-1-0.3H742l-0.9-0.5l-2.1-1.1l-1.8-1.1c0-0.1-0.2-0.2-0.4-0.3l-0.7-0.6
	c-1.2-1-2.3-2.1-3.3-3.3c-0.3-0.2-0.5-0.5-0.7-0.8c-0.1,0-0.1,0-0.1-0.1l-1.3-2l-1.2-2l-0.5-0.9c0-0.2-0.1-0.3-0.1-0.4
	c-0.7-1.9-1.1-4.3-2.7-5.6c-1.6-1.4-3.3-2.6-5.1-3.7c-2.1-1.2-4.4-2.2-6.7-3c0.3-0.8,0.7-1.6,1.1-2.4c1.2-2.6,2.5-5.1,3.8-7.6
	s0.7-5.7-1.8-6.9c-18-8.7-38.1-11.3-57.9-8.5c-18.1,2.5-35.4,10.1-50.2,20.9c-8.3,6.1-15.9,13.1-22.6,20.9c-1.7,2-2.1,5.2,0,7.1
	c2.1,1.9,5.2,2.1,7.1,0c5.5-6.5,11.7-12.4,18.5-17.6l0.6-0.5l1.2-0.9l2.8-2l5.4-3.5c3.6-2.3,7.3-4.3,11.2-6.1l3-1.3l0.5-0.3l1.6-0.6
	c2-0.8,4.1-1.6,6.1-2.2c4.3-1.5,8.7-2.6,13.2-3.4l3.2-0.5l1-0.2l1.6-0.2l6.9-0.5c4.6-0.2,9.3-0.1,13.9,0.4l1.9,0.2h0.8l3.9,0.7
	c2.5,0.4,5,1,7.5,1.7s5,1.5,7.4,2.4l1.7,0.6l0.4,0.2c-2,4-3.8,8.1-5.5,12.3c-0.9,2.3,1,5.8,3.5,6.2c1.4,0.2,2.8,0.5,4.1,0.9l1.8,0.6
	l1,0.4h0.1c1.2,0.6,2.4,1.2,3.5,1.9l1.8,1.1l0.2,0.2c3.6,10.7,12,19,22.8,22.4c-0.7,4.6-1.3,9.2-1.7,13.9
	c-0.6,9.1-0.3,18.2,1.1,27.2c-1.3-0.6-2.6-1.1-3.9-1.5c-4.9-1.5-10.1-2.2-15.3-1.9c-2.6,0.2-5.1,2.2-5,5s2.2,5.2,5,5
	c2.3-0.1,4.6,0,6.9,0.2l0.7,0.2c0.6,0.1,1.1,0.2,1.7,0.3c1.2,0.2,2.3,0.5,3.4,0.9l3,1.1h0.1l0.7,0.4l1.5,0.7l0.7,0.4l1.3,0.9
	l1.2,0.6l0.5,0.3c4.8,19.6,13.6,38.1,24.1,55.3c5.9,9.6,12.3,18.9,18.9,28.1c3.3,4.5,6.6,9.1,10,13.6s6.4,9,10.3,12.8
	c1.2,1.2,2.5,2.4,3.9,3.5c-2.8,13.9-4.4,28-4.7,42.2c-1.8-0.8-3.7-1.2-5.7-1.3c-3.8-0.1-7,3-7,6.8c0,0.3,0,0.6,0,0.8
	c0.4,2.8,0.9,5.5,1.6,8.2c2.3,10,5.7,19.8,10.1,29.1c0.8,1.8,1.6,3.5,2.5,5.2c-2.8-0.2-5.7,0-8.5,0.6c-2.6,0.7-4.2,3.5-3.5,6.1
	c0.8,2.6,3.5,4.2,6.2,3.5l1.1-0.2h1.9c1.4-0.1,2.7,0,4.1,0.1l1,0.2l1.9,0.4l1.9,0.6l0.8,0.3c0.1,0,0.2,0,0.2,0.1h0.2
	c2,1.1,4.4,0.7,6.1-0.8c1.6-1.6,1.9-4.1,0.8-6.1c-2.3-3.7-4.4-7.5-6.4-11.4c-1-2-1.9-4-2.8-6.1c-0.2-0.4-0.4-0.7-0.5-1.1
	c-0.1-0.3-0.2-0.6-0.4-0.9l-1.2-3.1c-1.6-4.2-3-8.4-4.2-12.7c-0.7-2.6-1.3-5.3-1.9-8l1,0.7l0.5,0.3l0.3,0.2c0.5,0.4,0.9,0.8,1.3,1.3
	c2,1.9,5.1,1.9,7.1-0.1c0.9-0.9,1.4-2.2,1.4-3.5c-0.1-8.6,0.2-17.3,1.1-25.9c0.2-2.2,0.4-4.4,0.7-6.6c0-0.5,0.1-0.9,0.2-1.4v-0.6
	c0.2-1.1,0.4-2.3,0.5-3.4c0.5-3,1-5.9,1.6-8.9h0.5c5.8,1.1,11.7-1.5,14.8-6.5c1.2-2.1,2.3-4.3,3.1-6.6c0.1-0.5,0.3-0.9,0.5-1.3
	c0-0.2,0.1-0.4,0.2-0.6l1.7-3.2l1-1.4c0.2-0.3,0.4-0.6,0.6-0.9l2.1-2.4c1.6-1.7,3.3-3.3,5.1-4.9c3.5-3.1,7.2-6,10.6-9.3
	c3.7-3.9,7.1-8,10.2-12.4l3.6-5.4c46.4-4.5,88.2-33.4,105.4-77.3c4.3-11,6.9-22.6,7.6-34.4C987.7,383.2,986.8,370.2,982.5,359.1z"/>
<path d="M515.3,368.9c-15.3-8.5-31.7-14.8-48.7-18.6c-17-3.8-34.4-5.1-51.7-4.1c-9.9,0.7-19.8,2.1-29.5,4.4c-4.1,0.9-5,7.2-1.2,9.1
	c3.8,1.9,5.7,3.1,8.4,4.7l3.9,2.5l1.9,1.3l1,0.7c0.2,0.2,1.5,0.9,0.4,0.3l0.6,0.5c0,0.1,0,0.1-0.1,0.1c-0.4,0.3-0.9,0.6-1.3,0.8
	c-0.5,0.3-1,0.6-1.5,0.8l0.6-0.3l-0.7,0.2l-0.9,0.4c-11,3.5-21.4,8.8-30.8,15.6c-4.8,3.4-9.3,7.3-13.4,11.5c-2,1.9-3.9,4-5.7,6.1
	c-1,1.2-2,2.4-2,4.2c0.2,2.7,1.8,5.1,4.2,6.3c2.1,1.1,4.6,1.7,7,1.5h4.9c-0.1-0.1-0.1-0.1-0.1-0.2c0,0.1,0.2,0.2,0.3,0.3v0.7
	c-0.1,0.3-0.1,0.6-0.2,0.8l-0.6,1.8l-0.4,0.8l-1.2,2.4c-7.3,13.6-14.6,27.3-21.8,41c-1.1,2-0.8,4.4,0.8,6c1.7,1.7,3.9,1.7,6,0.8
	l11.1-4.9c-1,5.3-2,10.6-3.1,15.9c-0.5,2.5,0.8,5.5,3.5,6.1c2.7,0.6,5.7-0.7,6.2-3.5c1.6-8.5,3.3-17,4.9-25.5c0.5-1.9-0.2-4-1.8-5.2
	c-1.7-1.4-3.6-1.3-5.5-0.4l-6.7,2.9l11.2-20.7l4.5-8.4c1.3-2.3,2.3-4.8,2.8-7.4c0.6-3.5,0.1-7-2.4-9.7c-1.7-1.7-3.8-2.8-6.2-3.2
	l-3.8-0.3c2.8-2.9,5.7-5.6,8.8-8.2l1.9-1.5h0.1c0.2-0.3,0.5-0.5,0.8-0.7l4.3-3c2.6-1.8,5.3-3.4,8-4.9s5.8-3,8.8-4.3l0.7-0.3l0.7-0.3
	l2.1-0.8l4.8-1.7c3.2-0.9,6.1-2.5,8.5-4.7c3-2.8,3.8-7.2,2.1-10.9c-1.2-2-2.8-3.7-4.8-5c-1.4-1-2.8-2-4.3-2.9l2.7-0.4h0.6l1.7-0.2
	c2.1-0.3,4.2-0.5,6.4-0.6c8.3-0.7,16.7-0.8,25-0.3c4.1,0.2,8.2,0.7,12.3,1.2h0.9l1.5,0.2l3.1,0.5c2.1,0.4,4.1,0.7,6.1,1.2
	c8.3,1.6,16.5,3.9,24.4,6.8l6.4,2.4l1.7,0.7h0.3l0.5,0.3l3.2,1.3c4.3,2,8.6,4.2,12.8,6.5c2.4,1.4,5.4,0.6,6.8-1.8
	C518.3,373.2,517.6,370.3,515.3,368.9z"/>
</svg>
