<?xml version="1.0" encoding="utf-8"?>
<!-- Generator: Adobe Illustrator 24.2.3, SVG Export Plug-In . SVG Version: 6.00 Build 0)  -->
<svg version="1.1" id="e8e4a544-4e05-4178-a4a1-b99148ff3cd2"
	 xmlns="http://www.w3.org/2000/svg" xmlns:xlink="http://www.w3.org/1999/xlink" x="0px" y="0px" viewBox="0 0 1152 864"
	 style="enable-background:new 0 0 1152 864;" xml:space="preserve">
<path d="M416.2,259.9c-17.7,2.9-34.9,8.5-51,16.4c-16.1,7.9-31,18.1-44.3,30.2c-7.4,6.7-14.2,14.1-20.3,22c-1.3,1.6-1.9,3.4-1,5.4
	c0.8,1.8,2.5,3.1,4.5,3.1l5.9,0.4h0.4l1.3,0.3l3,0.8c0.3,0.1,1.2,0.5,0.4,0.1l1.2,0.6l0.9,0.6l0.5,0.4c0.7,0.4,1.2,1,1.6,1.7
	l-0.2-0.3l0.3,0.5l0.6,1c0,0.2,0.1,0.3,0.1,0.5c0.1,0.2,0.1,0.7,0.2,1v0.6c-0.1,0.3-0.2,0.7-0.2,1c-0.1,0-0.2,0.4-0.4,0.6l-0.6,1.1
	c-0.1,0.2-0.2,0.4-0.4,0.5c0,0.1-0.2,0.3-0.3,0.4l-0.4,0.5l-1.1,1.3L315,353l-3.9,4.6c-10.6,12-21.9,23.4-32.9,35
	c-11,11.6-22.1,23.7-31.6,36.8c-9.3,12.5-16.8,26.2-22.3,40.7c-5.4,14.3-8.3,29.8-7.3,45.1l0.6,5.6c0,1.3,0.6,2.6,1.5,3.6
	c0.9,0.9,2.2,1.4,3.5,1.4c2.4-0.1,5.4-2.2,5-5c-1-7.6-1-15.4-0.1-23c0-0.2,0.1-0.6,0.1-0.7c0.1-0.3,0.1-0.6,0.1-0.9
	c0.2-1,0.4-2,0.5-3l1.2-5.8c0.9-3.8,2-7.5,3.3-11.1c0.6-1.8,1.2-3.6,1.9-5.4c0.7-1.8,0.7-1.8,1.1-2.6c0.1-0.1,0.1-0.2,0.2-0.4
	l0.6-1.4c1.6-3.6,3.3-7.1,5.2-10.5c3.7-6.9,7.9-13.6,12.5-20l3.5-4.8l0.5-0.6l0.7-0.9l2-2.6c2.6-3.2,5.2-6.3,7.9-9.4
	c5.4-6.2,11-12.2,16.6-18.1c11.3-11.8,22.8-23.4,33.5-35.7c2.8-3.3,5.7-6.5,8.2-10c2.8-3.5,3.8-8.1,2.8-12.5
	c-1.2-4.1-3.8-7.6-7.4-10c-2.6-1.7-5.5-2.8-8.6-3.3c3.6-4.1,7.4-8.1,11.4-11.9s6.3-5.9,9.6-8.6l2.6-2l1.2-1l0.2-0.2l0.6-0.4
	c1.7-1.3,3.4-2.6,5.2-3.8c7.1-5.1,14.5-9.7,22.3-13.6c3.9-2,7.8-3.9,11.8-5.6l0.7-0.3l1.5-0.6l3.2-1.2l6.1-2.2
	c9.3-3.2,18.9-5.6,28.6-7.2c2.6-0.4,4.2-3.8,3.5-6.1C421.6,260.8,418.9,259.2,416.2,259.9z"/>
<path d="M500.4,257.4c-2.4-1.4-5.5-0.6-6.9,1.8c-1.4,2.4-0.6,5.5,1.8,6.9c3.7,2.2,7.2,4.6,10.7,7.1l1.4,1l0.9,0.7l2.1,1.7
	c1.7,1.4,3.4,2.8,5,4.3s4,3.6,5.9,5.5c-8.7-0.6-17.6,0.9-25.8,2.3c-15,2.7-29.6,7.2-43.6,13.3c-7.7,3.4-15.3,7.3-22.5,11.7
	c-2.4,1.4-3.2,4.4-1.9,6.8c1.4,2.4,4.4,3.2,6.8,1.9c0.1,0,0.1-0.1,0.1-0.1c6.2-3.8,12.6-7.2,19.2-10.2l4.7-2.1l0.6-0.2l1.3-0.5
	l2.8-1.2l10.1-3.5c6.9-2.2,13.9-4.1,21-5.5c3.5-0.7,7-1.3,10.6-1.8h0.4l1.3-0.2l2.5-0.3l5.3-0.4h5.4l2.9,0.2h0.5l1.4,0.2
	c1.8,0.3,3.6,0.8,5.4,1.4l0.7,0.3l1.1,0.5l2.4,1.4c2.2,1.3,5,0.7,6.5-1.3c1.6-2.1,1.1-4.5-0.4-6.5
	C529.1,278.6,515.7,266.7,500.4,257.4z"/>
<path d="M1101.1,358.4c-22.6-28.4-48.5-55-79.6-74.1c-16-9.8-33.4-17.3-51.5-22.2c-20.1-5.5-40.7-8.7-60.8-14.4
	c-18.4-5.3-36.3-12.4-53.3-21.3l30.4-11c4.4-1.6,5-8.2,0-9.6l-77.2-22.1c4.9-2.6,10.2-4.4,15.7-5.5c2.2-0.6,3.7-2.5,3.7-4.8
	c0-2.4-1.6-3.9-3.7-4.8c-48.9-20.5-103.7-12.8-154.8-7.1l-42.9,5c0.6-4.4,2.3-8.5,4.9-12.1c2.1-2.9-0.7-8-4.3-7.5
	c-29.5,3.8-56.7,17.8-77,39.5c-8-11-16.5-21.8-27.6-30c-11.1-8.2-28.1-14.2-43.5-11.3c-2.9,0.6-4.9,4.9-3,7.4l10.5,13.7
	c-27.2,1-53.9,7.1-78.9,17.8c-2.9,1.3-3.2,6-1,7.9l5.7,5c-45.4,16-88.8,37.2-129.4,63.2c-12,7.8-23.8,16-35.3,24.6
	c-3,2.2-3.5,6.5,0,8.6l7.3,4.5c-5.2,7.4-12.4,12.9-20.1,17.7c-9.8,6.1-20.1,11.1-30,17.2c-20.5,12.5-39.5,27.4-57.3,43.5
	c-35.1,31.8-65.2,68.6-94,106c-1.7,2.1-3.3,4.2-4.9,6.4c-1.6,2.2-3.9,4.7-4,8c-0.3,6.2,5.1,9.2,10.3,10.7s8.9,1.6,12.1,3.3
	c0.5,0.2,0.9,0.5,1.2,0.9l-0.3,1c0,0.1,0,0.1-0.1,0.1c-0.1,0.2-0.1,0.4-0.2,0.6c-1.7,3.5-3.7,6.8-5.4,10.2s-3.3,6.9-2.3,10.4
	c1,2.6,2.3,5,3.9,7.2c1.6,2.6,3.3,5.1,5.1,7.5c3.6,4.8,7.5,9.4,11.5,13.8c7.7,8.7,15.8,17,22.4,26.5c2.2,3.2,4.8,6.5,9,6.7
	c2.8,0,5.5-1.4,7.2-3.6c0.9-1.1,1.6-2.2,2.4-3.3l0.9-1.2l0.7-0.8c1.2,1.2,2.3,2.6,3.5,3.8c1.9,2,4,3.8,6.2,5.4
	c4.1,3,8.3,5.6,12.8,7.9c8.9,4.6,18.6,8.4,26.6,14.6c1.3,0.9,2.4,2,3.2,3.4c0.6,1.7,1.1,3.5,1.3,5.3c0.6,4.4,0.8,9.2,2.9,13.4
	c2.1,4.2,8.2,7.5,12.8,10.2c5.3,3.1,10.8,5.9,16.4,8.4c11.7,5.2,24.1,8.8,36.8,10.5c4.8,0.7,9.6,1,14.4,1.1
	c1.3,8.1,2.4,16.2,3.7,24.3c0.4,2.6,3.8,4.2,6.2,3.5s3.9-3.4,3.4-6.2c-1.3-8.8-2.6-17.5-4-26.3v-0.4c-1.1-8.9-3.4-17.6-6.8-25.9
	c-1.1-2.5-2-5.1-2.7-7.8v-2.1c0,0.1,0,0.1-0.1,0.3c0.1-0.2,0.1-0.3,0.1-0.5c0-0.1,0.1-0.2,0.1-0.3c0.2-0.6,0.3-1.1,0.5-1.6l0.6-1.2
	c0.4-0.7,0.8-1.4,1.3-2.1c1.1-1.6,2.4-3,3.7-4.4c4.1-4.3,8.8-8.1,13.3-12.1c8.7-7.5,14.4-18.2,18-29c3.6-10.8,5.1-22.3,3.4-33.5
	s-6.3-20.2-5.9-30.3c0-1.7,0.3-3.4,0.7-5c0.6-2.3,1.4-4.6,2.5-6.7c2.4-4.9,5.3-9.7,8.5-14.1c2.6-3.4,5.4-6.7,8.4-9.8
	c3.6-3.9,7.4-7.6,11.4-11.2c9.4-8.6,19.4-16.4,30-23.4c8.8-5.8,17.9-11.3,27.7-13.8c6.2-1.7,3.5-11.3-2.7-9.7
	c-9.4,2.5-18.2,7.4-26.3,12.5c-10.1,6.4-19.7,13.4-28.8,21.2c-8.4,6.9-16.1,14.5-23.2,22.7c-6.9,8-13.2,17.4-16.5,27.5
	c-3.3,10.1-1.1,20.2,1.5,30.1c1.4,5.4,3,10.4,3.3,15.7c0.3,5.4-0.1,10.9-1.2,16.2c-2.2,10.8-6.6,21.6-14.1,29.9
	s-16.9,13.6-22.8,22.9c-4,6.2-4,12.8-1.4,19.5c2.6,6.7,5.3,13.9,6.8,21.2c-22.7-0.5-44.5-8.4-63.8-20.1c-1.9-1.2-4.6-2.5-5.7-3.9
	c-0.3-0.4-0.6-0.8-0.9-1.3c-0.2-0.6-0.5-1.9-0.7-2.8c-0.8-3.9-0.7-8.6-2.1-12.7c-3.1-9.2-13.7-14-21.7-18.2s-18.1-8.3-25.8-14.4
	c-5.3-4.2-10.8-14.4-18.9-9.9c-2.4,1.4-4,3.6-5.6,5.8c-0.3,0.5-0.6,0.9-1,1.3c0,0.1-0.1,0.2-0.2,0.3l-0.6-0.8l-1.4-2.1
	c-3.5-4.8-7.4-9.5-11.3-13.9c-7.5-8.5-15.5-16.5-22.1-25.7c-1.6-2.2-3.2-4.5-4.6-6.9c-0.7-1.1-1.4-2.3-2.1-3.6
	c-0.1-0.1-0.1-0.3-0.1-0.4c0-0.2,0.1-0.3,0.1-0.5c0.1-0.3,0.2-0.7,0.4-1c0-0.1,0.1-0.3,0.1-0.4c0.9-1.7,1.8-3.5,2.8-5.2
	c3.5-6.5,8.6-14.6,1.2-20.5c-3.7-3-8.5-4-13.1-5c-2.1-0.4-4.1-1-6.1-1.8h-0.3c0.1-0.2,0.3-0.4,0.3-0.5c13.5-18.3,27.8-36,42.5-53.3
	c14.9-17.9,30.7-35,47.4-51.2c16.7-16.1,34.7-30.8,53.9-43.8c9.7-6.5,19.8-12.3,30-17.9c10.2-5.6,19.5-11,27.4-18.9
	c3.8-3.8,7-8.1,9.6-12.8c1.3-2.4,0.5-5.4-1.8-6.8l-5.3-3.2c38.5-28.1,80.2-51.5,124.2-69.9c13.2-5.5,26.7-10.5,40.3-15.1
	c3.3-1.1,5.2-5.8,2.2-8.4l-6.2-5.3c24.6-9.4,50.7-14.1,77-13.8c3.4,0,6.6-4.5,4.3-7.6c-3.7-4.7-7.3-9.5-11-14.3
	c10.3,0.5,20.3,5.1,28.3,11.3c11.2,8.7,19.5,20.5,27.6,31.9c1.5,2.3,4.5,3.1,6.9,1.8c1.1-0.7,2-1.9,2.3-3.2
	c16.5-18.9,38.7-32.1,63.2-37.5c-1.5,4.4-2.1,9-1.8,13.6c0.2,2.4,2.2,5.3,5,5c27.6-3.2,55.1-6.6,82.6-9.3c25.4-2.5,51.2-4,76.5-0.6
	c9.2,1.3,18.2,3.2,27.1,5.9c-5.1,2.4-9.9,5.4-14.3,8.9c-3,2.5-1.1,7.4,2.2,8.4l72.7,20.8l-26.3,9.5c-3.9,1.4-5.2,6.9-1.2,9.2
	c17.7,10.1,36.4,18.3,55.8,24.5c19.6,6.4,39.9,9.9,59.9,14.7s36.4,10.6,53,20c15.5,8.8,29.9,19.4,42.9,31.6
	c13.1,12.1,25.3,25.1,36.5,39c-7.1,4.3-11.4,13-9.1,21.5c0.8,3.1,2.9,5.5,4.1,8.4c1.2,2.9-1.2,4.9-2.7,6.9
	c-3.2,4.4-5.9,9.2-8.1,14.2c-9.2,20.7-10.8,43.5-17.4,65c-2.6,8.4-6.1,16.5-11.3,23.5c-0.6-0.3-1.3-0.5-2-0.4h-0.5
	c-5.5-10.5-11.4-20.9-18.7-30.4c-9.2-12-20.8-21.8-34.2-28.8c-12.7-6.7-26.7-12.2-37.2-22.4c-8.7-8.6-14.4-19.8-20.6-30.2
	s-15.5-23.7-28.4-29.5c-2.5-1.1-5.4-0.7-6.9,1.8s-0.6,5.7,1.8,6.8c10.8,4.9,17.7,14.2,23.7,24s12.2,21.9,20.6,31.2
	c8.4,9.3,22.4,17,34.9,23.4c6.6,3.1,12.9,6.7,19,10.7c5.9,4.2,11.2,9.1,15.9,14.6c10.7,12.6,18.3,27.5,25.8,42.2
	c0.1,0.2,0.2,0.4,0.4,0.6c0.1,3,0.1,6-0.1,9s-0.2,3-0.3,4.5c-0.1,1.4-0.1,0.3-0.1,0.2c0,0.1,0-0.1,0.1-0.2c-0.1,0.1-0.1,0.1-0.1,0.2
	c0,0,0,0,0,0v0.3c0,0.1-0.1,0.2-0.1,0.4s-0.3,1.7-0.5,2.6c-0.4,2.8-1.3,5.6-2.4,8.3c-0.1,0.3-0.3,0.7-0.4,0.8l-0.7,1.5
	c-0.6,1.2-1.3,2.4-2,3.5c-0.5,0.9-1.1,1.8-1.8,2.7c-0.3,0.5-0.6,1-1,1.5l-0.5,0.7l-0.2,0.2c-3,3.8-6.3,7.3-9.8,10.6
	c-7.2,6.9-14.8,13.4-21.1,21.2s-11.8,19-16.2,29.5c-0.6,1.3-1.1,2.7-1.7,4.1l-0.9,2.1l-0.3,0.8l-0.3,0.6c-1.2,2.8-2.4,5.5-3.7,8.2
	c-1.2,2.7-2.6,5.3-4.1,7.8c-0.1-0.8-0.3-1.6-0.4-2.3c-0.6-3.6-1.4-7.2-2.4-10.8c-2-7.3-4.9-14.4-8.4-21.1
	c-7-13.3-16.7-25.1-28.4-34.5c-6.6-5.4-13.9-10-21.6-13.6c-0.9-0.4-1.9-0.6-2.9-0.6c-2.5-10-4.3-20.2-6-30.3
	c-3.3-19.7-6.9-39.4-15.7-57.4c-4.7-9.8-11.2-18.6-19.3-25.9c-2-1.7-5.2-2.1-7.1,0c-1.9,2.1-2.1,5.2,0,7s3.4,3.2,5,4.9
	c0.8,0.8,1.6,1.7,2.3,2.6l1.1,1.3l0.5,0.6h0.1c0,0.1,0,0.1,0.1,0.1c2.7,3.8,5.2,7.8,7.4,11.9c1.1,2.1,2.1,4.2,3.1,6.3l0.3,0.7
	l0.6,1.4c0.4,1.2,0.9,2.4,1.3,3.5c1.7,4.5,3.1,9,4.3,13.6c5.2,19.8,7,40.4,11.9,60.3c1.4,6,3.2,11.8,5.3,17.6l-0.5-0.4l-3.1-2.4
	c-2-1.6-3.8-3.3-5.7-5c-3.7-3.4-7.2-7-10.4-10.8c-1.7-1.8-3.3-3.8-4.8-5.7c-0.1-0.1-0.1-0.1-0.1-0.2l-0.6-0.7l-0.9-1.3l-2.4-3.2
	c-2.9-4.2-5.5-8.5-7.9-12.9l-3.5-6.7l-1.5-3.4l-0.6-1.4c-0.1-0.3-0.2-0.6-0.4-0.9c-0.1-0.4-0.3-0.9-0.5-1.3
	c-4.5-11.1-7.7-22.6-12.1-33.8c-8.1-21.1-20.2-40.4-35.6-56.9c-14-15.1-31.2-27.3-50.5-34.6c-19.3-7.3-39.2-9.2-58.2-3
	c-2.6,0.8-5.1,1.8-7.5,2.9c-2.4,1.1-3.2,4.8-1.8,6.8s4.2,3,6.8,1.8h0.4l0.5-0.2l1.4-0.6c1.2-0.4,2.4-0.9,3.6-1.2
	c2.3-0.7,4.6-1.3,6.9-1.8l3.2-0.6h0.9l1.9-0.2c2.3-0.3,4.7-0.4,7-0.4l7.1,0.3l3.3,0.3h0.7l2.1,0.3c4.7,0.8,9.4,2,13.9,3.5
	c2.3,0.7,4.5,1.5,6.7,2.4l1.6,0.7l1,0.4l3.3,1.5c4.5,2.2,8.8,4.6,13,7.3l6,4l3,2.2l0.4,0.4h0.3l1.5,1.3c3.8,3.1,7.5,6.3,10.9,9.8
	c3.8,3.9,7.5,7.9,10.9,12.1l2.4,3.1l0.7,0.8l1.4,1.9c1.6,2.2,3.1,4.4,4.6,6.7c3,4.5,5.8,9.2,8.4,14c1.3,2.3,2.5,4.7,3.6,7.1
	c1.1,2.4,1.1,2.4,1.7,3.7l0.7,1.5l0.4,1v0.3h0.1c4.4,11,7.8,22.3,12,33.4c3.7,10.2,8.5,19.9,14.3,29.1c8,12.4,17.8,23.6,29.1,33.1
	c0.1,0,0.1,0.1,0.1,0.2c6.5,12.9,13.7,25.4,20.2,38.3c3.4,6.5,6.6,13,9.5,19.7l0.5,1.2l0.3,0.6v0.4l0.3,0.6c0.2,0.4,0.4,0.9,0.5,1.4
	c0.7,1.6,1.4,3.3,2,5c1.3,3.4,2.5,6.8,3.5,10.3s2.2,7.7,3.1,11.6c0.3,1.5,0.6,3,0.8,4.4c-3.9-0.7-7.8-0.9-11.7-0.5
	c-3.3,0.4-5.6,2.9-4.8,6.4s0.9,4.3,1.3,6.5s0.3,2.2,0.5,3.3v0.5c0.1,0.5,0.1,1,0.2,1.5c0.5,4.3,0.8,8.7,0.8,13s-0.1,8.5-0.5,12.8
	l-0.3,3.1c-0.1,0.5-0.2,1.1-0.2,1.6c-0.1,0.2-0.1,0.7-0.2,0.8c-0.3,2.2-0.7,4.4-1.1,6.6s0.7,5.5,3.5,6.1s5.6-0.7,6.2-3.5
	c3.2-16.1,3.4-32.6,0.6-48.8h3l0.9,0.2l2.2,0.5l4.3,1.4c2.8,1.2,6.7-1.8,6.3-4.8c-1.7-14.7-5.6-29.1-11.4-42.7
	c-5.8-13.9-12.9-27.2-20-40.5l-2.3-4.2l2.2,1.3c4.4,2.5,9.4-2.5,6.9-6.8c-1.4-2.3-2.6-4.7-3.7-7.2c-0.5-1-1-2-1.4-3.1
	c-0.2-0.4-0.4-0.8-0.6-1.2l-0.8-2.3c-0.5-1.3-1-2.6-1.4-3.9c4.5,2.5,8.8,5.3,12.9,8.4h0.2l1.2,0.9l2.1,1.8l4,3.6
	c2.7,2.5,5.2,5.2,7.6,7.9l1.6,2l0.9,1c0.2,0.4,1,1.3,0.3,0.5c1.2,1.4,2.2,3,3.3,4.5c2,3,3.9,6,5.6,9.2l2.6,5.1l1.1,2.4l0.5,1.2
	c0.1,0.1,0.2,0.3,0.2,0.5c1.4,3.4,2.7,6.8,3.7,10.3c1.1,3.9,2,7.9,2.7,11.8s2,9.8,5.6,13.6c1.1,1.1,2.7,1.6,4.2,1.4
	c1.5-0.3,2.8-1.2,3.6-2.4c6.9-9,11.3-19.5,15.6-29.9c0.5-1.2,0.9-2.3,1.4-3.4c0.2-0.3,0.3-0.7,0.4-1c0.1,0,0.1,0,0.1-0.1l0.9-2.2
	c1.1-2.5,2.2-5,3.4-7.5c2.4-4.8,5.1-9.5,8.3-13.8l0.4-0.6c0.1,0,0.2-0.1,0.2-0.2l1-1.2l2.6-3c1.7-1.8,3.4-3.6,5.2-5.3
	c3.5-3.5,7.2-6.9,10.8-10.4c7.3-6.9,14.5-14.4,18.9-23.6s6-22.3,5.5-33.9c14.1-15.2,19-36,23.2-55.9c2.2-10.7,4.3-21.5,7.9-31.9
	c1.6-4.8,3.6-9.4,6-13.8c1.2-2.3,2.6-4.5,4.2-6.6c1.9-2.8,4.1-5.4,4.8-8.8c0.7-3.4-0.5-7.6-2.5-11.1s-2.6-4.2-2.3-7s3.8-8.3,8-8.6
	C1101.8,366.7,1103.9,361.9,1101.1,358.4z M55,496.4l0.2,0.2C55,496.5,54.9,496.4,55,496.4z M124.1,586.2c0-0.1,0-0.1,0.1-0.1h0.1
	l-0.4,0.2C124,586.2,124,586.2,124.1,586.2z M111.6,585.7C111.4,586.1,110.8,586.2,111.6,585.7L111.6,585.7z M70.2,531.8
	C70.3,531.9,70.2,532.1,70.2,531.8L70.2,531.8z"/>
<path d="M776.1,262.7h1.2l4-0.5c2.8-0.2,5.5-0.4,8.3-0.4s6.7-5.5,3.5-8.6c-19.7-19.5-44.5-33-71.6-38.9c-7.8-1.6-15.7-2.7-23.6-3.1
	c-2.8,0-5,2.2-5,5s2.2,5,5,5l10.2,0.9h1.1l2.4,0.3l5.2,1c6.4,1.3,12.7,3,18.9,5.2l4.6,1.7l1.9,0.7l1.1,0.5l0.7,0.3
	c3,1.3,6,2.7,8.9,4.2c5.8,3,11.4,6.4,16.7,10.2l2.3,1.6l1,0.8l0.8,0.6l3.9,3.2h0.1c-7.5,0.9-14.8,2.4-22,4.6
	c-3.4,1.1-5.2,5.8-2.3,8.4c6.2,5.4,12.1,11.2,17.7,17.3c2.8,3,5.5,6.1,8,9.2c2.5,3.1,2.7,3.2,4,4.9l0.6,0.8l0.8,1l1.9,2.6
	c1.6,2.1,4.4,3.3,6.9,1.8s3.4-4.6,1.7-6.9c-8.4-11.4-17.7-22-27.9-31.7c2.3-0.6,4.7-1.1,7.1-1.5L776.1,262.7z"/>
</svg>
