<?xml version="1.0" encoding="utf-8"?>
<!-- Generator: Adobe Illustrator 24.2.3, SVG Export Plug-In . SVG Version: 6.00 Build 0)  -->
<svg version="1.1" id="bab31a09-fbbe-4cce-818c-fecb8a4dccc6"
	 xmlns="http://www.w3.org/2000/svg" xmlns:xlink="http://www.w3.org/1999/xlink" x="0px" y="0px" viewBox="0 0 1152 864"
	 style="enable-background:new 0 0 1152 864;" xml:space="preserve">
<path d="M903.2,454.5c-2.9-12.4-7.3-24.5-11.2-36.6c-3.9-12.1-7.7-24.3-11.6-36.5c-7.2-22.6-14.6-45.1-27.1-65.4
	c-11.6-18.6-25.9-35.2-38.2-53.4c-6.2-9-11.6-18.5-16-28.5c-3.9-8.9-7-18.3-12.1-26.7c-5.1-8.4-12.7-16.1-22.4-19.7
	c-5-1.8-10.2-2.6-15.5-2.3c-2.6,0.1-5.3,0.5-7.8,1.2c-2.1,0.5-4.1,1.4-6.1,1.9l-3.4-3c-6.4-5.2-14-9.7-22.3-10.6l-3.4-1.9
	c-10.4-5.5-21.6-9.9-32.3-14.9c-22.6-10.4-45.1-21.4-68.7-29.4s-48.8-6-72.6-0.4c-23.8,5.6-46.2,14.7-70.1,19.6
	c-6.1,1.3-12.3,2.1-18.5,2.6c-5.4,0.5-10.9,0.6-16.2,1.8c-5,1.2-9.6,3.7-13.4,7.1c-3.2,2.8-6.4,6.6-10.5,8
	c-4.1,1.4-9.9-1.8-14.4-2.6c-5.1-1-10.3-0.4-15,1.8c-10,4.4-17.2,13.4-24.4,21.2c-17.5,18.8-35.5,37.2-52.3,56.5
	c-7.8,8.9-14.7,18.6-20.5,28.9c-5.9,10.5-11.2,21.2-17.2,31.6c-23.6,40.9-54.1,79.6-62.5,127.3c-4,23-2.3,46.3,7.2,67.8
	s25.3,40.6,39.3,59.7c6.8,9.4,13.7,18.7,20.6,28.1c-1.3,5.1-2.6,10.2-4,15.3c-3.7,14.1-7,29.1-4,43.7s13.9,25.1,26.7,32.3
	c12.8,7.2,29.4,14.8,45.4,14.9s29.8-8.1,41.5-18.1c19.5-16.6,32.9-40.2,38.3-65.2c2.8-12.6,3.6-25.5,2.2-38.3
	c-0.6-6.5-1.9-12.8-3.6-19.1c-2.1-7.2-5.1-14.1-7.7-21.1c-2.6-7-5.3-14.5-5.6-22.1c-0.3-7.6,1.8-14.7,4.1-21.9
	c2.3-7.2,4.5-15,3.9-22.9c-0.6-7.9-3.6-15.8-6.9-23.4c-8.9-20.2-15.9-41-21.2-62.4c0.1-0.4,0.2-0.9,0.1-1.3
	c-4-52.7,9.3-105.3,38.1-149.7c7.9-12.2,17-23.7,27-34.2c1.6-1.6,2-4.1,0.8-6.1c-1-1.7-3.6-3.1-5.6-2.3
	c-23.7,9.6-48.9,20.3-64.9,41.2c-9,11.7-12.9,25.7-14.3,40.3c-1.5,15.7-1.7,31.5-0.8,47.3c1.7,32.1,7.6,63.9,17.5,94.5
	c2.5,7.5,5.2,15,8.1,22.3c2.9,7.3,6.6,14.7,9.3,22.2c2.7,7.5,3.7,14.1,2.1,21.5c-1.6,7.4-4.6,14.5-6.2,22c-3.4,15.9,2,30.5,7.7,45.1
	c4.7,12.1,8.1,24.2,8.7,37.3c1,24.8-6.1,49.3-20.3,69.7c-7.1,10.3-16.1,19.2-26.5,26.1c-6.1,3.9-12.7,7.2-20,8.2s-15.4-0.3-22.7-2.6
	c-7.2-2.4-14.2-5.5-20.9-9.2c-6-3.2-11.8-6.7-16.4-11.6c-9.6-10.1-10.2-24.4-8-37.4c1.8-10.7,4.7-21.3,7.5-31.8
	c1.7-1.1,2.3-3.3,1.4-5.1c0.8-2.9,1.5-5.9,2.2-8.8c4-16.4,7.4-32.8,10.5-49.4c6.1-33.3,10.4-66.8,13-100.5
	c0.6-8.1,1.1-16.3,1.5-24.4c0.3-6.5-9.7-6.5-10,0c-1.6,33.8-5.2,67.5-10.5,100.9c-3.9,24.1-8.8,47.9-14.4,71.5
	c-12.2-16.5-24.5-32.9-36.3-49.7c-12.9-18.4-23.9-38.1-25.7-61c-3.7-46.9,22.2-88.6,46-126.7c6.4-10.1,12.7-20.2,18.6-30.6
	c5.9-10.4,10.7-20.4,16.4-30.4c12-20.9,29.4-37.7,45.7-55.2l25.6-27.6c6.5-7,13.8-17,23.6-19.3c4.9-1.1,9.2,1.2,13.9,2.4
	c4.9,1.4,10.2,0.8,14.7-1.5c3.9-2.1,7.1-5.5,10.5-8.4c3.6-3.2,8.1-5.2,12.9-5.7c5.3-0.8,10.7-0.8,16.1-1.4c6-0.7,12-1.7,17.9-3
	c11.7-2.5,23.1-6,34.5-9.5c22.6-7,45.5-14.3,69.4-14.2c23.9,0.1,46.6,10.3,68.3,20.1c11.1,5,22.1,10.3,33.1,15.3
	c7.2,3.3,14.5,6.3,21.6,9.7c-4.2,2.8-7.3,7-8.7,11.9c-3,9.8,0.2,19.8,4.8,28.5c4.6,8.7,10.2,17.9,14.8,27.2
	c9.1,18.5,16.3,38,20.2,58.3c3.7,20.5,3.5,41.4-0.5,61.8c-4,20.6-11.1,40.6-19.9,59.7c-8.8,19.1-19.5,36.4-25.9,56.1
	c-3.1,8.9-4.7,18.3-4.9,27.7l-1.2,3.4c-13.5,38.4-18.7,82-1.6,120.2c13.9,31.2,46.8,57.8,82.6,50.3c15.7-3.3,30.6-13,38.8-26.9
	c4.3-7.5,6.5-16,6.4-24.6c-0.1-10-2.9-19.8-6.1-29.2s-6.7-18.6-8.5-28.4s-0.7-21.5,1.1-32c3.9-22.7,8.9-45.3,13.1-67.9
	c2.2-10.8,3.7-21.8,4.5-32.8c0.3-6.5-9.7-6.4-10,0c-0.9,11.2-2.4,22.4-4.7,33.4l-6.6,33.6c-2.2,11.3-4.6,22.5-6.4,33.9
	s-2.6,22.4-0.8,33.6c3.2,19.2,14.6,36.9,14.4,56.7c-0.1,15.6-9.9,28.4-23.4,35.7c-13.7,7.4-30,8.1-44.4,2.1
	c-15.7-6.3-28.3-19-36.7-33.4c-20.3-34.7-16.2-77.8-4.4-114.6c1.1-3.4,2.2-6.7,3.4-10c0.2-0.3,0.3-0.6,0.4-1
	c13.3-36,33.8-68.9,49.9-103.7c9.2-19.8,16.5-40.4,21.8-61.6c5.1-21.4,7.9-43.2,8.4-65.2c0.6-28.6-3.5-61.5-21.8-84.6
	c1.5-0.4,3-0.8,4.6-1c4.8-0.6,9.7-0.1,14.2,1.6c18.8,6.7,23.5,30.6,31.1,46.6c9.2,19.2,22.6,36,35.2,53s24.9,36,32.8,56.9
	c8.6,22.8,15.3,46.3,22.7,69.5c3.7,11.6,8,23.2,10.6,35.2c2.3,10.4,2,21.3-0.9,31.6c-5.7,20.3-19.4,37.6-33.6,52.6
	s-29.9,27.4-42.2,43.6c-6.1,7.9-10.9,16.7-14.4,26c-2.3,6.1,7.4,8.7,9.6,2.7c7.4-19.5,21.9-34,36.6-48s31.3-30.5,42.6-49.3
	S908.2,476.7,903.2,454.5z M365.1,327.7c-0.8-8.6-1.2-17.3-1.4-25.9c-0.2-8.6,0-16.2,0.4-24.2c0.2-7.9,1.3-15.8,3-23.5
	c6.3-25.1,28-39.7,50.1-50.2c-12.2,15.4-22.6,32.2-30.8,50.1C375.6,277.3,368.4,302.2,365.1,327.7z M745.7,222.4
	c6.2,16,8.5,33.1,8.7,50.1c0.6,43.2-9,86.1-26.6,125.5l-3.6,7.7c1.1-3,2.2-6,3.2-9c6.6-20.2,10.9-41.5,10.9-62.9
	c0-21.4-4.1-41.7-11-61.5c-3.5-9.8-7.6-19.5-12.1-29s-9.7-18.2-14.7-27.2c-4-7.3-8.2-16.3-4.6-24.6c2.1-4.8,6.2-6.6,10.6-6.6
	c7.8,5.2,14.8,13.1,24.4,13.9h0.5l2.7,3.2C739,208.1,742.9,215,745.7,222.4z"/>
</svg>
