<?xml version="1.0" encoding="utf-8"?>
<!-- Generator: Adobe Illustrator 25.0.0, SVG Export Plug-In . SVG Version: 6.00 Build 0)  -->
<svg version="1.1" id="Layer_1" xmlns="http://www.w3.org/2000/svg" xmlns:xlink="http://www.w3.org/1999/xlink" x="0px" y="0px"
	 width="2305.158px" height="2326.86px" viewBox="0 0 2305.158 2326.86" style="enable-background:new 0 0 2305.158 2326.86;"
	 xml:space="preserve">
<style type="text/css">
	.st0{fill:none;stroke:#000000;stroke-width:1.8127;stroke-miterlimit:10;}
	.st1{enable-background:new    ;}
	.st2{fill:none;stroke:#000000;stroke-width:2;stroke-miterlimit:10;}
	.st3{fill:none;stroke:#DF00FF;stroke-width:2;stroke-miterlimit:10;}
	.st4{fill:none;stroke:#000000;stroke-width:1.6328;stroke-miterlimit:10;}
</style>
<path class="st0" d="M1338.952,590.336v126.508h758.665V590.336H1338.952z M2001.987,632.366h-173.435v-15.12h173.435V632.366z
	 M1605.463,632.366h-173.435v-15.12h173.435L1605.463,632.366L1605.463,632.366z"/>
<g class="st1">
	<path class="st2" d="M252.91,2277.171l-146.373-520.917H37.655v-148.956h374.543v148.956h-63.715l67.159,238.502l109.35-387.458
		h172.204L803.1,1981.842l65.438-225.587h-58.549v-148.956h277.248v148.956h-70.603l-143.79,520.917h-228.17l-80.936-297.052
		l-85.241,297.052H252.91V2277.171z"/>
	<polygon class="st2" points="663.926,2251.972 564.367,1886.566 459.511,2251.972 272.004,2251.972 125.632,1731.055 
		62.855,1731.055 62.855,1632.499 386.998,1632.499 386.998,1731.055 315.207,1731.055 415.615,2087.634 544.064,1632.499 
		678.133,1632.499 802.79,2073.365 902.086,1731.055 835.188,1731.055 835.188,1632.499 1062.036,1632.499 1062.036,1731.055 
		997.446,1731.055 853.656,2251.972 	"/>
</g>
<g class="st1">
	<path class="st3" d="M1347.502,2277.171l-146.373-520.917h-68.882v-148.956h374.543v148.956h-63.715l67.159,238.502l109.35-387.458
		h172.204l105.904,374.543l65.438-225.587h-58.549v-148.956h277.248v148.956h-70.604l-143.79,520.917h-228.17l-80.936-297.052
		l-85.241,297.052H1347.502z"/>
</g>
<g>
	<polygon class="st2" points="437.398,868.428 321.775,868.428 321.775,893.629 412.198,893.629 412.198,992.184 340.407,992.184 
		440.815,1348.763 569.264,893.629 703.334,893.629 827.99,1334.495 927.286,992.184 860.389,992.184 860.389,893.629 
		893.182,893.629 893.182,868.428 835.189,868.428 835.189,1017.385 893.738,1017.385 828.3,1242.972 722.396,868.428 
		550.192,868.428 440.842,1255.887 373.683,1017.385 437.398,1017.385 	"/>
	<polygon class="st2" points="1054.94,868.428 1054.94,893.629 1087.236,893.629 1087.236,992.184 1022.647,992.184 
		878.857,1513.101 689.126,1513.101 589.567,1147.696 484.711,1513.101 297.205,1513.101 150.832,992.184 88.055,992.184 
		88.055,893.629 160.017,893.629 160.017,868.428 62.855,868.428 62.855,1017.385 131.737,1017.385 278.11,1538.301 
		503.697,1538.301 588.938,1241.249 669.874,1538.301 898.043,1538.301 1041.833,1017.385 1112.437,1017.385 1112.437,868.428 	"/>
</g>
<g>
	<polygon class="st2" points="1527.122,868.428 1411.499,868.428 1411.499,893.629 1501.922,893.629 1501.922,992.184 
		1430.131,992.184 1530.539,1348.763 1658.988,893.629 1793.057,893.629 1917.714,1334.495 2017.01,992.184 1950.113,992.184 
		1950.113,893.629 1982.906,893.629 1982.906,868.428 1924.913,868.428 1924.913,1017.385 1983.462,1017.385 1918.024,1242.972 
		1812.12,868.428 1639.916,868.428 1530.566,1255.887 1463.407,1017.385 1527.122,1017.385 	"/>
	<polygon class="st2" points="2144.664,868.428 2144.664,893.629 2176.96,893.629 2176.96,992.184 2112.371,992.184 
		1968.58,1513.101 1778.85,1513.101 1679.291,1147.696 1574.435,1513.101 1386.929,1513.101 1240.556,992.184 1177.779,992.184 
		1177.779,893.629 1249.741,893.629 1249.741,868.428 1152.579,868.428 1152.579,1017.385 1221.461,1017.385 1367.834,1538.301 
		1593.421,1538.301 1678.662,1241.249 1759.598,1538.301 1987.767,1538.301 2131.557,1017.385 2202.161,1017.385 2202.161,868.428 	
		"/>
</g>
<polygon class="st4" points="853.19,82.755 853.19,231.711 911.739,231.711 846.301,457.299 740.397,82.755 568.193,82.755 
	458.843,470.214 391.684,231.711 455.399,231.711 455.399,82.755 80.856,82.755 80.856,231.711 149.738,231.711 296.111,752.628 
	319.966,752.628 319.966,768.166 492.05,768.166 492.05,752.628 521.698,752.628 606.939,455.576 687.874,752.628 716.075,752.628 
	716.075,768.166 888.159,768.166 888.159,752.628 916.044,752.628 1059.834,231.711 1130.438,231.711 1130.438,82.755 "/>
</svg>
