<?xml version="1.0" encoding="utf-8"?>
<!-- Generator: Adobe Illustrator 27.9.0, SVG Export Plug-In . SVG Version: 6.00 Build 0)  -->
<svg version="1.1" id="Layer_2_00000150099925960160373450000005110002739834140035_"
	 xmlns="http://www.w3.org/2000/svg" xmlns:xlink="http://www.w3.org/1999/xlink" x="0px" y="0px" viewBox="0 0 237.4 283.5"
	 style="enable-background:new 0 0 237.4 283.5;" xml:space="preserve">
<style type="text/css">
	.st0{fill:#DFCAAB;}
	.st1{fill:#FF0000;}
</style>
<path class="st0" d="M-78.1,398.6c-11.6-17.9-27.9-32.6-47.1-42.1c-5.2-2.6-10.6-4.8-16.2-6.6l-12.4-16.2c-2.9-3.8-7-6.2-11.6-7
	c2.9-3,4.6-7.1,4.6-11.6c0-9.4-7.6-17-17-17c-9.4,0-17,7.6-17,17c0,4.5,1.8,8.6,4.6,11.6c-4.6,0.8-8.8,3.2-11.6,7l-12.4,16.2
	c-12.8,4.2-24.7,10.4-35.2,18.4c-15.8,12-28.5,27.8-36.7,46c-6.7,14.9-10.4,31.3-10.4,48.6c0,23.1,6.6,44.7,18.1,63
	c10.9,17.3,26.1,31.6,44.1,41.4c16.8,9.2,36.1,14.4,56.5,14.4c25.7,0,49.4-8.2,68.9-22c18-12.8,32.2-30.6,40.8-51.2
	c5.8-14,9.1-29.4,9.1-45.4C-59.2,439.2-66.1,417.2-78.1,398.6L-78.1,398.6z M-177.9,309.2c3.3,0,5.9,2.7,5.9,5.9s-2.7,5.9-5.9,5.9
	s-5.9-2.7-5.9-5.9S-181.2,309.2-177.9,309.2z M-71,478.9c-7.6,52.2-52.6,92.3-106.9,92.3s-98.9-39.8-106.8-91.7
	c-0.9-5.4-1.3-11-1.3-16.7c0-22.6,6.9-43.5,18.8-60.8l5.3-7.2c7-8.7,15.4-16.2,24.7-22.4v0.3l0,0v15.8l-4.6-1.4c-2-0.6-4,0.9-3.9,3
	l0.2,5.9c0,0.7-0.2,1.3-0.5,1.8l-3.4,4.8c-1.2,1.7-0.4,4.1,1.6,4.6l5.7,1.6c0.6,0.2,1.2,0.6,1.6,1.1l3.5,4.7
	c1.2,1.6,3.8,1.6,4.9-0.1l3.3-4.9c0.4-0.5,0.9-1,1.5-1.2l5.6-1.9c2-0.7,2.7-3.1,1.4-4.7l-3.6-4.7c-0.4-0.5-0.6-1.1-0.6-1.8l-0.1-5.9
	c0-2.1-2.1-3.5-4.1-2.8l-3.2,1.1v-18.8c11-6.4,23.3-10.8,36.3-13v66.9l-4.6-1.4c-2-0.6-4,0.9-3.9,3l0.2,5.9c0,0.6-0.2,1.3-0.5,1.8
	l-3.4,4.8c-1.2,1.7-0.3,4.1,1.6,4.6l5.7,1.6c0.6,0.2,1.2,0.6,1.6,1.1l3.6,4.7c1.2,1.6,3.8,1.6,4.9-0.1l3.3-4.9
	c0.4-0.5,0.9-1,1.5-1.2l5.6-1.9c2-0.7,2.7-3.1,1.4-4.7l-3.6-4.6c-0.4-0.5-0.6-1.1-0.6-1.8l-0.1-5.9c0-2.1-2.1-3.5-4.1-2.8l-3.2,1.2
	v-67.1l3.9-0.4c2.8-0.2,5.5-0.3,8.3-0.3c10.4,0,20.5,1.5,30.1,4.3l0,0v38.1l-5.3-1.5c-1.8-0.5-3.5,0.9-3.4,2.7l0.4,7.4
	c0,0.6-0.1,1.1-0.5,1.6l-4.1,6.1c-1,1.5-0.2,3.6,1.5,4.1l7.1,1.9c0.6,0.1,1.1,0.5,1.4,0.9l4.5,5.8c1.1,1.5,3.4,1.4,4.4-0.2l4-6.2
	c0.3-0.5,0.8-0.9,1.3-1.1l6.9-2.5c1.7-0.6,2.3-2.8,1.2-4.2l-4.6-5.7c-0.4-0.5-0.6-1-0.6-1.6l-0.2-7.4c-0.1-1.8-1.9-3.1-3.6-2.4
	l-5,1.9v-36.1c13.6,4.7,26,12.1,36.6,21.6l0,0v61.4l-3.2-1c-1.1-0.4-2.3,0.5-2.2,1.7l0.2,5.4c0,0.4-0.1,0.7-0.3,1l-3.1,4.4
	c-0.7,1-0.2,2.3,0.9,2.6l5.2,1.5c0.4,0.1,0.7,0.3,0.9,0.6l3.3,4.3c0.7,0.9,2.1,0.9,2.8-0.1l3-4.5c0.2-0.3,0.5-0.5,0.9-0.7l5.1-1.8
	c1.1-0.4,1.5-1.8,0.8-2.7l-3.3-4.3c-0.2-0.3-0.4-0.7-0.4-1l-0.1-5.4c0-1.2-1.2-2-2.3-1.6l-2.8,1v-56c19,19.5,30.7,46.1,30.7,75.4
	C-69.8,468.3-70.2,473.7-71,478.9L-71,478.9z"/>
<text transform="matrix(0.95 0 0 1 -251.1279 532.9112)" style="fill:#DFCAAB;stroke:#DFCAAB;stroke-width:1.34;stroke-miterlimit:10; font-family:'AutumninNovember'; font-size:46.23px;">Enhooo</text>
<path class="st0" d="M-78.1,691.2c-11.6-18-27.9-32.6-47.1-42.2c-5.2-2.6-10.6-4.8-16.2-6.6l-12.4-16.2c-2.9-3.8-7-6.2-11.6-7
	c2.9-3,4.6-7.1,4.6-11.6c0-9.4-7.6-17-17-17c-9.4,0-17,7.6-17,17c0,4.5,1.8,8.6,4.6,11.6c-4.6,0.8-8.8,3.2-11.6,7l-12.4,16.2
	c-12.8,4.2-24.7,10.4-35.2,18.4c-15.8,12-28.5,27.8-36.7,46c-6.7,14.9-10.4,31.3-10.4,48.6c0,23.1,6.6,44.7,18.1,63
	c10.9,17.3,26.1,31.6,44.1,41.4c16.8,9.2,36.1,14.4,56.5,14.4c25.7,0,49.4-8.2,68.9-22c18-12.8,32.2-30.6,40.8-51.2
	c5.8-14,9.1-29.4,9.1-45.5C-59.2,731.8-66.1,709.7-78.1,691.2L-78.1,691.2z M-177.9,601.7c3.3,0,5.9,2.7,5.9,5.9
	c0,3.3-2.7,5.9-5.9,5.9s-5.9-2.7-5.9-5.9C-183.8,604.4-181.2,601.7-177.9,601.7z M-71,771.4c-7.6,52.2-52.6,92.3-106.9,92.3
	s-98.9-39.8-106.8-91.7c-0.9-5.4-1.3-11-1.3-16.7c0-22.5,6.9-43.5,18.8-60.8l5.3-7.2c7-8.7,15.4-16.2,24.7-22.3v0.3l0,0v15.8
	l-4.6-1.4c-2-0.6-4,0.9-3.9,3l0.2,5.9c0,0.6-0.2,1.3-0.5,1.8l-3.4,4.8c-1.2,1.7-0.4,4.1,1.6,4.6l5.7,1.6c0.6,0.2,1.2,0.6,1.6,1.1
	l3.5,4.7c1.2,1.6,3.8,1.6,4.9-0.1l3.3-4.9c0.4-0.5,0.9-1,1.5-1.2l5.6-1.9c2-0.7,2.7-3.1,1.4-4.7l-3.6-4.7c-0.4-0.5-0.6-1.1-0.6-1.8
	l-0.1-5.9c0-2.1-2.1-3.5-4.1-2.8l-3.2,1.2v-18.8c11-6.4,23.3-10.8,36.3-13v67l-4.6-1.4c-2-0.6-4,0.9-3.9,3l0.2,5.9
	c0,0.7-0.2,1.3-0.5,1.8l-3.4,4.8c-1.2,1.7-0.3,4.1,1.6,4.6l5.7,1.6c0.6,0.2,1.2,0.6,1.6,1.1l3.6,4.7c1.2,1.7,3.8,1.6,4.9-0.1
	l3.3-4.9c0.4-0.5,0.9-0.9,1.5-1.2l5.6-1.9c2-0.7,2.7-3.1,1.4-4.7l-3.6-4.6c-0.4-0.5-0.6-1.2-0.6-1.8l-0.1-5.9c0-2.1-2.1-3.5-4.1-2.8
	l-3.2,1.2v-67.1l3.9-0.4c2.8-0.2,5.5-0.3,8.3-0.3c10.4,0,20.5,1.5,30.1,4.3l0,0v38.1l-5.3-1.5c-1.8-0.5-3.5,0.9-3.4,2.7l0.4,7.4
	c0,0.6-0.1,1.2-0.5,1.6l-4.1,6.1c-1,1.5-0.2,3.6,1.5,4.1l7.1,1.9c0.6,0.2,1.1,0.5,1.4,0.9l4.5,5.8c1.1,1.5,3.4,1.4,4.4-0.2l4-6.2
	c0.3-0.5,0.8-0.9,1.3-1l6.9-2.5c1.7-0.6,2.3-2.8,1.2-4.2l-4.6-5.7c-0.4-0.5-0.6-1-0.6-1.6l-0.2-7.4c-0.1-1.8-1.9-3.1-3.6-2.4l-5,1.9
	v-36.1c13.6,4.7,26,12.1,36.6,21.6l0,0v61.4l-3.2-1c-1.1-0.4-2.3,0.5-2.2,1.7l0.2,5.4c0,0.4-0.1,0.7-0.3,1l-3.1,4.4
	c-0.7,1-0.2,2.3,0.9,2.6l5.2,1.5c0.4,0.1,0.7,0.3,0.9,0.6l3.3,4.3c0.7,0.9,2.1,0.9,2.8-0.1l3-4.5c0.2-0.3,0.5-0.5,0.9-0.7l5.1-1.8
	c1.1-0.4,1.5-1.8,0.8-2.7L-95,743c-0.2-0.3-0.4-0.7-0.4-1l-0.1-5.4c0-1.2-1.2-2-2.3-1.6l-2.8,1v-56c19,19.5,30.7,46.1,30.7,75.4
	C-69.8,760.9-70.2,766.2-71,771.4L-71,771.4z"/>
<text transform="matrix(0.95 0 0 1 -269.1855 824.4137)" style="fill:#DFCAAB;stroke:#DFCAAB;stroke-width:1.34;stroke-miterlimit:10; font-family:'AutumninNovember'; font-size:46.23px;">Muaa</text>
<path class="st0" d="M166.4,398.6c-11.6-17.9-27.9-32.6-47.1-42.1c-5.2-2.6-10.6-4.8-16.2-6.6l-12.4-16.2c-2.9-3.8-7-6.2-11.6-7
	c2.9-3,4.6-7.1,4.6-11.6c0-9.4-7.6-17-17-17s-17,7.6-17,17c0,4.5,1.8,8.6,4.6,11.6c-4.6,0.8-8.8,3.2-11.6,7l-12.4,16.2
	C17.4,354,5.6,360.3-5,368.2c-15.8,12-28.5,27.8-36.7,46c-6.7,14.9-10.4,31.3-10.4,48.6c0,23.1,6.6,44.7,18.1,63
	c10.9,17.3,26.1,31.6,44.1,41.4c16.8,9.2,36.1,14.4,56.5,14.4c25.7,0,49.4-8.2,68.9-22c18-12.8,32.2-30.6,40.8-51.2
	c5.8-14,9.1-29.4,9.1-45.4C185.4,439.2,178.4,417.2,166.4,398.6L166.4,398.6z M66.6,309.2c3.3,0,5.9,2.7,5.9,5.9s-2.7,5.9-5.9,5.9
	s-5.9-2.7-5.9-5.9S63.4,309.2,66.6,309.2z M173.5,478.9c-7.6,52.2-52.6,92.3-106.9,92.3s-98.9-39.8-106.8-91.7
	c-0.8-5.4-1.3-11-1.3-16.7c0-22.6,6.9-43.5,18.8-60.8l5.3-7.2c7-8.7,15.4-16.2,24.7-22.4v0.3l0,0v15.8l-4.6-1.4c-2-0.6-4,0.9-3.9,3
	l0.2,5.9c0,0.7-0.2,1.3-0.5,1.8l-3.4,4.8c-1.2,1.7-0.3,4.1,1.6,4.6l5.7,1.6c0.6,0.2,1.2,0.6,1.6,1.1l3.5,4.7
	c1.2,1.6,3.7,1.6,4.9-0.1l3.3-4.9c0.4-0.5,0.9-1,1.5-1.2l5.6-1.9c2-0.7,2.7-3.1,1.4-4.7l-3.6-4.7c-0.4-0.5-0.6-1.1-0.6-1.8l-0.1-5.9
	c0-2.1-2.1-3.5-4.1-2.8l-3.2,1.1v-18.8c11-6.4,23.3-10.8,36.3-13v66.9l-4.6-1.4c-2-0.6-4,0.9-3.9,3l0.2,5.9c0,0.6-0.2,1.3-0.5,1.8
	l-3.4,4.8c-1.2,1.7-0.3,4.1,1.6,4.6l5.7,1.6c0.6,0.2,1.2,0.6,1.6,1.1l3.6,4.7c1.2,1.6,3.8,1.6,4.9-0.1l3.3-4.9
	c0.4-0.5,0.9-1,1.5-1.2l5.6-1.9c2-0.7,2.7-3.1,1.4-4.7l-3.6-4.6c-0.4-0.5-0.6-1.1-0.6-1.8l-0.1-5.9c0-2.1-2.1-3.5-4.1-2.8l-3.2,1.2
	v-67.1l3.9-0.4c2.8-0.2,5.5-0.3,8.3-0.3c10.4,0,20.5,1.5,30.1,4.3l0,0v38.1l-5.3-1.5c-1.8-0.5-3.5,0.9-3.4,2.7l0.4,7.4
	c0,0.6-0.1,1.1-0.5,1.6l-4.1,6.1c-1,1.5-0.2,3.6,1.5,4.1l7.1,1.9c0.6,0.1,1.1,0.5,1.4,0.9l4.5,5.8c1.1,1.5,3.4,1.4,4.4-0.2l4-6.2
	c0.3-0.5,0.8-0.9,1.3-1.1l6.9-2.5c1.7-0.6,2.3-2.8,1.2-4.2l-4.6-5.7c-0.4-0.5-0.6-1-0.6-1.6l-0.2-7.4c-0.1-1.8-1.9-3.1-3.6-2.4
	l-5,1.9v-36.1c13.6,4.7,26,12.1,36.6,21.6l0,0v61.4l-3.2-1c-1.1-0.4-2.3,0.5-2.2,1.7l0.2,5.4c0,0.4-0.1,0.7-0.3,1l-3.1,4.4
	c-0.7,1-0.2,2.3,0.9,2.6l5.2,1.5c0.4,0.1,0.7,0.3,0.9,0.6l3.3,4.3c0.7,0.9,2.1,0.9,2.8-0.1l3-4.5c0.2-0.3,0.5-0.5,0.9-0.7l5.1-1.8
	c1.1-0.4,1.5-1.8,0.8-2.7l-3.3-4.3c-0.2-0.3-0.4-0.7-0.4-1l-0.1-5.4c0-1.2-1.2-2-2.3-1.6l-2.8,1v-56c19,19.5,30.7,46.1,30.7,75.4
	C174.7,468.3,174.3,473.7,173.5,478.9L173.5,478.9z"/>
<text transform="matrix(0.95 0 0 1 -15.5434 531.1085)" style="fill:#DFCAAB;stroke:#DFCAAB;stroke-width:1.34;stroke-miterlimit:10; font-family:'AutumninNovember'; font-size:46.23px;">Hehhe</text>
<path d="M119.9,647.3h80v80h-80V647.3"/>
<circle class="st1" cx="119.9" cy="647.3" r="2"/>
<circle class="st1" cx="199.9" cy="727.3" r="2"/>
<circle class="st1" cx="199.9" cy="647.3" r="2"/>
<circle class="st1" cx="119.9" cy="727.3" r="2"/>
</svg>
