<?xml version="1.0" encoding="utf-8"?>
<!-- Generator: Adobe Illustrator 27.9.0, SVG Export Plug-In . SVG Version: 6.00 Build 0)  -->
<svg version="1.1" baseProfile="tiny" id="Layer_2_00000150099925960160373450000005110002739834140035_"
	 xmlns="http://www.w3.org/2000/svg" xmlns:xlink="http://www.w3.org/1999/xlink" x="0px" y="0px" viewBox="0 0 237.4 283.5"
	 overflow="visible" xml:space="preserve">
<g>
	<path fill="#E2D6C7" stroke="#FFB600" stroke-width="0.25" stroke-miterlimit="10" d="M171.9-131.2c-2.8-1.1-4.5-0.6-6.5-2.6
		c-1.6-1.7-5-9.8-4.9-13c0.1-6.5,15.7-4.8,15.9-13c0-2.2-0.6-3.6-1.5-5c-3.9-5.9-11.9-0.4-15.8-0.4c0.1-1.9,1-2.2,1.7-3.6
		c3.6-6.8-0.5-18-12.8-18.2c-7.1-0.1-13.6,7.8-12,15c0.9,4.2,3.7,6.1,1.9,6c-3.4-0.1-7.4-2.8-10.2-2.5c-7.8,0.9-11,10.7,1,15.5
		c5.5,2.2,8.5,1.6,6.9,8.3c-3.1,13.3-7.9,11.2-11.3,12.8c-7.2,3.3-3.8,14,6.5,14.1c6.1,0.1,11.9-8.5,17.5-8.4c4.2,0.1,10.1,8,16.6,9
		h2.3c1.6-0.2,3.2-0.9,4.7-2.3c2.8-2.4,3.4-3.5,3.5-6.6C175.5-128.9,174.1-130.3,171.9-131.2z"/>
	<g>
		<path fill="none" stroke="#00C9FF" stroke-width="0.25" stroke-miterlimit="10" d="M166.6-163.9c0.2-0.4,0.2-0.6,0.1-0.7
			c-0.1-0.2-0.1-0.5,0.1-0.6c0.2-0.1,0.5-0.1,0.6,0.1c0.4,0.5,0.2,1.1,0,1.5c-0.2,0.4-0.2,0.6-0.1,0.7c0.1,0.2,0.3,0.2,0.7,0.1
			c0.5,0,1.1-0.1,1.5,0.5c0.4,0.5,0.2,1.1,0,1.5c-0.2,0.4-0.2,0.6-0.1,0.7c0.1,0.2,0.3,0.2,0.7,0.1c0.5,0,1.1-0.1,1.5,0.5
			c0.4,0.5,0.2,1.1,0,1.5c-0.2,0.4-0.2,0.6-0.1,0.7c0.1,0.2,0.1,0.5-0.1,0.6c-0.1,0.1-0.2,0.1-0.2,0.1c-0.1,0-0.3-0.1-0.3-0.2
			c-0.4-0.5-0.2-1.1,0-1.5c0.2-0.4,0.2-0.6,0.1-0.7c-0.1-0.2-0.3-0.2-0.7-0.1c-0.5,0-1.1,0.1-1.5-0.5c-0.4-0.5-0.2-1.1,0-1.5
			c0.2-0.4,0.2-0.6,0.1-0.7c-0.1-0.2-0.3-0.2-0.7-0.1c-0.5,0-1.1,0.1-1.5-0.5C166.2-162.9,166.4-163.5,166.6-163.9z"/>
		<path fill="none" stroke="#00C9FF" stroke-width="0.25" stroke-miterlimit="10" d="M129.9-165.8c-0.2,0.7-0.8,0.8-1.2,0.9
			c-0.4,0.1-0.6,0.2-0.6,0.4c-0.1,0.2,0.1,0.3,0.3,0.7c0.3,0.3,0.7,0.8,0.5,1.5s-0.8,0.8-1.2,0.9c-0.4,0.1-0.6,0.2-0.7,0.4
			s0.1,0.3,0.3,0.7c0.3,0.3,0.7,0.8,0.5,1.5s-0.8,0.8-1.2,0.9c-0.4,0.1-0.6,0.2-0.7,0.4s-0.3,0.3-0.5,0.3c-0.1,0-0.2-0.1-0.2-0.2
			c-0.1-0.1-0.1-0.2-0.1-0.4c0.2-0.7,0.8-0.8,1.2-0.9c0.4-0.1,0.6-0.2,0.7-0.4s-0.1-0.3-0.3-0.7c-0.3-0.3-0.7-0.8-0.5-1.5
			c0.2-0.6,0.8-0.8,1.2-0.9c0.4-0.1,0.6-0.2,0.7-0.4c0.1-0.2-0.1-0.3-0.3-0.7c-0.3-0.3-0.7-0.8-0.5-1.5c0.2-0.6,0.8-0.8,1.2-0.9
			c0.4-0.1,0.6-0.2,0.6-0.4c0.1-0.2,0.3-0.3,0.5-0.3C129.9-166.3,130-166.1,129.9-165.8z"/>
		<path fill="none" stroke="#00C9FF" stroke-width="0.25" stroke-miterlimit="10" d="M131.2-122.7c-0.2,0.4-0.2,0.6-0.1,0.8
			c0.1,0.2,0.1,0.4-0.1,0.5c-0.1,0.1-0.1,0.1-0.2,0.1s-0.2-0.1-0.3-0.2c-0.4-0.5-0.2-1.1,0-1.6c0.2-0.4,0.2-0.6,0.1-0.8
			c-0.1-0.2-0.3-0.2-0.8-0.1c-0.5,0-1.1,0.1-1.5-0.5c-0.4-0.5-0.2-1.1,0-1.6c0.2-0.4,0.2-0.6,0.1-0.8c-0.1-0.2-0.3-0.2-0.8-0.1
			c-0.5,0-1.1,0.1-1.5-0.5c-0.4-0.5-0.2-1.1,0-1.6c0.2-0.4,0.2-0.6,0.1-0.8c-0.1-0.2-0.1-0.4,0.1-0.5c0.2-0.1,0.4-0.1,0.5,0.1
			c0.4,0.5,0.2,1.1,0,1.6c-0.2,0.4-0.2,0.6-0.1,0.8c0.1,0.2,0.3,0.2,0.8,0.1c0.5,0,1.1-0.1,1.5,0.5c0.4,0.5,0.2,1.1,0,1.6
			c-0.2,0.4-0.2,0.6-0.1,0.8c0.1,0.2,0.3,0.2,0.8,0.1c0.5,0,1.1-0.1,1.5,0.5S131.4-123.1,131.2-122.7z"/>
		<path fill="none" stroke="#00C9FF" stroke-width="0.25" stroke-miterlimit="10" d="M142.5-177.8c0-1,0.8-1.8,1.8-1.8
			s1.8,0.8,1.8,1.8c0,0.4-0.2,0.9-0.4,1.2c-0.1,0.1-0.1,0.1-0.2,0.2c-0.3,0.3-0.7,0.5-1.2,0.5C143.4-175.9,142.5-176.8,142.5-177.8z
			"/>
		<path fill="none" stroke="#00C9FF" stroke-width="0.25" stroke-miterlimit="10" d="M152.7-171.6c-0.6,2-2.3,3.2-4.3,3.2
			c-2.1,0-3.7-1.3-4.3-3.2c0-0.2,0-0.3,0.2-0.4c0.2,0,0.3,0,0.4,0.2c0.5,1.7,2,2.8,3.8,2.8s3.3-1.1,3.8-2.8c0-0.2,0.2-0.2,0.4-0.2
			C152.6-171.9,152.7-171.7,152.7-171.6z"/>
		<path fill="none" stroke="#00C9FF" stroke-width="0.25" stroke-miterlimit="10" d="M152.4-175.9c-1,0-1.8-0.8-1.8-1.8
			s0.8-1.8,1.8-1.8s1.8,0.8,1.8,1.8C154.2-176.8,153.4-175.9,152.4-175.9z"/>
		<path fill="none" stroke="#00C9FF" stroke-width="0.25" stroke-miterlimit="10" d="M170.4-128.4c-0.4,0.6-1.1,0.6-1.6,0.6
			s-0.7,0-0.8,0.2c-0.1,0.2,0,0.4,0.2,0.8s0.6,1,0.2,1.7c-0.4,0.6-1.1,0.6-1.6,0.6s-0.7,0-0.8,0.2c-0.1,0.2,0,0.4,0.2,0.8
			s0.6,1,0.2,1.7c-0.4,0.6-1.1,0.6-1.6,0.6s-0.7,0-0.8,0.2c-0.1,0.1-0.2,0.2-0.4,0.2c-0.1,0-0.1,0-0.2-0.1c-0.2-0.1-0.3-0.4-0.1-0.6
			c0.4-0.6,1.1-0.6,1.6-0.6s0.7,0,0.8-0.2c0.1-0.2,0-0.4-0.2-0.8s-0.6-1-0.2-1.7c0.4-0.6,1.1-0.6,1.6-0.6s0.7,0,0.8-0.2
			c0.1-0.2,0-0.4-0.2-0.8s-0.6-1-0.2-1.7c0.4-0.6,1.1-0.6,1.6-0.6s0.7,0,0.8-0.2c0.1-0.2,0.4-0.3,0.6-0.1
			C170.5-128.9,170.6-128.6,170.4-128.4z"/>
	</g>
</g>
<text transform="matrix(0.4781 0.8783 -0.8783 0.4781 133.2598 -160.5211)" fill="#FCFCFC" font-family="'RollerSkates-Regular'" font-size="18.7097px">D</text>
<text transform="matrix(0.4781 0.8783 -0.8783 0.4781 136.9004 -153.833)" fill="#FCFCFC" font-family="'RollerSkates-Regular'" font-size="18.7097px">a</text>
<text transform="matrix(0.4781 0.8783 -0.8783 0.4781 140.2548 -147.6708)" fill="#FCFCFC" font-family="'RollerSkates-Regular'" font-size="18.7097px">d</text>
<text transform="matrix(0.4781 0.8783 -0.8783 0.4781 143.8954 -140.9828)" fill="#FCFCFC" font-family="'RollerSkates-Regular'" font-size="18.7097px">a</text>
<text transform="matrix(0.4781 0.8783 -0.8783 0.4781 147.2499 -134.8205)" fill="#FCFCFC" font-family="'RollerSkates-Regular'" font-size="18.7097px">a</text>
<text transform="matrix(0.4781 0.8783 -0.8783 0.4781 150.6043 -128.6582)" fill="#FCFCFC" font-family="'RollerSkates-Regular'" font-size="18.7097px">a</text>
<text transform="matrix(0.4781 0.8783 -0.8783 0.4781 134.5967 -109.942)" fill="#FCFCFC" font-family="'RollerSkates-Regular'" font-size="18.7097px">H</text>
<text transform="matrix(0.4781 0.8783 -0.8783 0.4781 137.978 -103.7304)" fill="#FCFCFC" font-family="'RollerSkates-Regular'" font-size="18.7097px">e</text>
<text transform="matrix(0.4781 0.8783 -0.8783 0.4781 140.375 -99.3269)" fill="#FCFCFC" font-family="'RollerSkates-Regular'" font-size="18.7097px">h</text>
<text transform="matrix(0.4781 0.8783 -0.8783 0.4781 143.7563 -93.1153)" fill="#FCFCFC" font-family="'RollerSkates-Regular'" font-size="18.7097px">h</text>
<text transform="matrix(0.4781 0.8783 -0.8783 0.4781 147.1375 -86.9037)" fill="#FCFCFC" font-family="'RollerSkates-Regular'" font-size="18.7097px">e</text>
<text transform="matrix(0.4781 0.8783 -0.8783 0.4781 149.4006 -82.7464)" fill="#FCFCFC" font-family="'RollerSkates-Regular'" font-size="18.7097px">e</text>
</svg>
