<?xml version="1.0" encoding="utf-8"?>
<!-- Generator: Adobe Illustrator 27.9.0, SVG Export Plug-In . SVG Version: 6.00 Build 0)  -->
<svg version="1.1" id="Layer_2_00000150099925960160373450000005110002739834140035_"
	 xmlns="http://www.w3.org/2000/svg" xmlns:xlink="http://www.w3.org/1999/xlink" x="0px" y="0px" viewBox="0 0 237.4 283.5"
	 style="enable-background:new 0 0 237.4 283.5;" xml:space="preserve">
<style type="text/css">
	.st0{fill:#DFCAAB;}
	.st1{fill:#FF0000;}
</style>
<path class="st0" d="M139.2,425.4c-11.6-17.9-27.9-32.6-47.1-42.1c-5.2-2.6-10.6-4.8-16.2-6.6l-12.4-16.2c-2.9-3.8-7-6.2-11.6-7
	c2.9-3,4.6-7.1,4.6-11.6c0-9.4-7.6-17-17-17s-17,7.6-17,17c0,4.5,1.8,8.6,4.6,11.6c-4.6,0.8-8.8,3.2-11.6,7L3.1,376.7
	c-12.8,4.2-24.7,10.4-35.2,18.4c-15.8,12-28.5,27.8-36.7,46c-6.7,14.9-10.4,31.3-10.4,48.6c0,23.1,6.6,44.7,18.1,62.9
	C-50.2,569.9-35,584.2-17,594c16.8,9.1,36.1,14.3,56.5,14.3c25.7,0,49.4-8.2,68.9-22c18-12.8,32.2-30.6,40.8-51.2
	c5.8-14,9.1-29.4,9.1-45.5C158.2,466,151.2,444,139.2,425.4L139.2,425.4z M39.5,336c3.3,0,5.9,2.7,5.9,5.9s-2.7,5.9-5.9,5.9
	s-5.9-2.7-5.9-5.9S36.2,336,39.5,336z M146.3,505.7C138.7,557.9,93.7,598,39.4,598s-98.9-39.8-106.8-91.7c-0.9-5.4-1.3-11-1.3-16.7
	c0-22.6,6.9-43.5,18.8-60.8l5.3-7.2c7-8.7,15.4-16.2,24.7-22.4v0.3l0,0v15.8l-4.6-1.4c-2-0.6-4,0.9-3.9,3l0.2,5.9
	c0,0.7-0.2,1.3-0.5,1.8l-3.4,4.8c-1.2,1.7-0.4,4.1,1.6,4.6l5.7,1.6c0.6,0.2,1.2,0.6,1.6,1.1l3.5,4.7c1.2,1.6,3.8,1.6,4.9-0.1
	l3.3-4.9c0.4-0.5,0.9-1,1.5-1.2l5.6-1.9c2-0.7,2.7-3.1,1.4-4.7l-3.6-4.7c-0.4-0.5-0.6-1.1-0.6-1.8l-0.1-5.9c0-2.1-2.1-3.5-4.1-2.8
	l-3.2,1.1v-18.8c11-6.4,23.3-10.8,36.3-13v67l-4.6-1.4c-2-0.6-4,0.9-3.9,3l0.2,5.9c0,0.6-0.2,1.3-0.5,1.8l-3.4,4.8
	c-1.2,1.7-0.3,4.1,1.6,4.6l5.7,1.6c0.6,0.2,1.2,0.6,1.6,1.1l3.6,4.7c1.2,1.6,3.8,1.6,4.9-0.1l3.3-4.9c0.4-0.5,0.9-1,1.5-1.2l5.6-1.9
	c2-0.7,2.7-3.1,1.4-4.7l-3.6-4.6c-0.4-0.5-0.6-1.1-0.6-1.8l-0.1-5.9c0-2.1-2.1-3.5-4.1-2.8l-3.2,1.2V382l3.9-0.4
	c2.8-0.2,5.5-0.3,8.3-0.3c10.4,0,20.5,1.5,30.1,4.3l0,0v38.1l-5.3-1.5c-1.8-0.5-3.5,0.9-3.4,2.7l0.4,7.4c0,0.6-0.1,1.1-0.5,1.6
	l-4.1,6.1c-1,1.5-0.2,3.6,1.5,4.1l7.1,1.9c0.6,0.1,1.1,0.5,1.4,0.9l4.5,5.8c1.1,1.5,3.4,1.4,4.4-0.2l4-6.2c0.3-0.5,0.8-0.9,1.3-1.1
	l6.9-2.5c1.7-0.6,2.3-2.8,1.2-4.2l-4.6-5.7c-0.4-0.5-0.6-1-0.6-1.6l-0.2-7.4c-0.1-1.8-1.9-3.1-3.6-2.4l-5,1.9v-36.1
	c13.6,4.7,26,12.1,36.6,21.6l0,0v61.4l-3.2-1c-1.1-0.4-2.3,0.5-2.2,1.7l0.2,5.4c0,0.4-0.1,0.7-0.3,1l-3.1,4.4
	c-0.7,1-0.2,2.3,0.9,2.6l5.2,1.5c0.4,0.1,0.7,0.3,0.9,0.6l3.3,4.3c0.7,0.9,2.1,0.9,2.8-0.1l3-4.5c0.2-0.3,0.5-0.5,0.9-0.7l5.1-1.8
	c1.1-0.4,1.5-1.8,0.8-2.7l-3.3-4.3c-0.2-0.3-0.4-0.7-0.4-1l-0.1-5.4c0-1.2-1.2-2-2.3-1.6l-2.8,1v-56c19,19.5,30.7,46.1,30.7,75.4
	C147.5,495.1,147.1,500.5,146.3,505.7L146.3,505.7z"/>
<text transform="matrix(0.95 0 0 1 -26.8585 579.2632)" style="fill:#DFCAAB;stroke:#DFCAAB;stroke-width:1.34;stroke-miterlimit:10; font-family:'AutumninNovember'; font-size:46.23px;">Enhooo</text>
<path class="st0" d="M906.9,571.8c-11.6-17.9-27.9-32.6-47.1-42.1c-5.2-2.6-10.6-4.8-16.2-6.6l-12.4-16.2c-2.9-3.8-7-6.2-11.6-7
	c2.9-3,4.6-7.1,4.6-11.6c0-9.4-7.6-17-17-17c-9.4,0-17,7.6-17,17c0,4.5,1.8,8.6,4.6,11.6c-4.6,0.8-8.8,3.2-11.6,7l-12.4,16.2
	c-12.8,4.2-24.7,10.4-35.2,18.4c-15.8,12-28.5,27.8-36.7,46c-6.7,14.9-10.4,31.3-10.4,48.6c0,23.1,6.6,44.7,18.1,63
	c10.9,17.3,26.1,31.6,44.1,41.4c16.8,9.2,36.1,14.4,56.5,14.4c25.7,0,49.4-8.2,68.9-22c18-12.8,32.2-30.6,40.8-51.2
	c5.8-14,9.1-29.4,9.1-45.4C925.8,612.4,918.9,590.4,906.9,571.8L906.9,571.8z M807.1,482.4c3.3,0,5.9,2.7,5.9,5.9s-2.7,5.9-5.9,5.9
	c-3.2,0-5.9-2.7-5.9-5.9S803.8,482.4,807.1,482.4z M914,652.1c-7.6,52.2-52.6,92.3-106.9,92.3s-98.9-39.8-106.8-91.7
	c-0.9-5.4-1.3-11-1.3-16.7c0-22.6,6.9-43.5,18.8-60.8l5.3-7.2c7-8.7,15.4-16.2,24.7-22.4v0.3l0,0v15.8l-4.6-1.4c-2-0.6-4,0.9-3.9,3
	l0.2,5.9c0,0.7-0.2,1.3-0.5,1.8l-3.4,4.8c-1.2,1.7-0.4,4.1,1.6,4.6l5.7,1.6c0.6,0.2,1.2,0.6,1.6,1.1l3.5,4.7
	c1.2,1.6,3.8,1.6,4.9-0.1l3.3-4.9c0.4-0.5,0.9-1,1.5-1.2l5.6-1.9c2-0.7,2.7-3.1,1.4-4.7l-3.6-4.7c-0.4-0.5-0.6-1.1-0.6-1.8l-0.1-5.9
	c0-2.1-2.1-3.5-4.1-2.8l-3.2,1.1v-18.8c11-6.4,23.3-10.8,36.3-13V596l-4.6-1.4c-2-0.6-4,0.9-3.9,3l0.2,5.9c0,0.6-0.2,1.3-0.5,1.8
	l-3.4,4.8c-1.2,1.7-0.3,4.1,1.6,4.6l5.7,1.6c0.6,0.2,1.2,0.6,1.6,1.1l3.6,4.7c1.2,1.6,3.8,1.6,4.9-0.1l3.3-4.9
	c0.4-0.5,0.9-1,1.5-1.2l5.6-1.9c2-0.7,2.7-3.1,1.4-4.7l-3.6-4.6c-0.4-0.5-0.6-1.1-0.6-1.8l-0.1-5.9c0-2.1-2.1-3.5-4.1-2.8l-3.2,1.2
	v-67.1l3.9-0.4c2.8-0.2,5.5-0.3,8.3-0.3c10.4,0,20.5,1.5,30.1,4.3l0,0V570l-5.3-1.5c-1.8-0.5-3.5,0.9-3.4,2.7l0.4,7.4
	c0,0.6-0.1,1.1-0.5,1.6l-4.1,6.1c-1,1.5-0.2,3.6,1.5,4.1l7.1,1.9c0.6,0.1,1.1,0.5,1.4,0.9l4.5,5.8c1.1,1.5,3.4,1.4,4.4-0.2l4-6.2
	c0.3-0.5,0.8-0.9,1.3-1.1l6.9-2.5c1.7-0.6,2.3-2.8,1.2-4.2l-4.6-5.7c-0.4-0.5-0.6-1-0.6-1.6l-0.2-7.4c-0.1-1.8-1.9-3.1-3.6-2.4
	l-5,1.9v-36.1c13.6,4.7,26,12.1,36.6,21.6l0,0v61.4l-3.2-1c-1.1-0.4-2.3,0.5-2.2,1.7l0.2,5.4c0,0.4-0.1,0.7-0.3,1l-3.1,4.4
	c-0.7,1-0.2,2.3,0.9,2.6l5.2,1.5c0.4,0.1,0.7,0.3,0.9,0.6l3.3,4.3c0.7,0.9,2.1,0.9,2.8-0.1l3-4.5c0.2-0.3,0.5-0.5,0.9-0.7l5.1-1.8
	c1.1-0.4,1.5-1.8,0.8-2.7l-3.3-4.3c-0.2-0.3-0.4-0.7-0.4-1l-0.1-5.4c0-1.2-1.2-2-2.3-1.6l-2.8,1v-56c19,19.5,30.7,46.1,30.7,75.4
	C915.2,641.5,914.8,646.9,914,652.1L914,652.1z"/>
<path class="st0" d="M876.9,690.5c-0.3-0.3-0.7-0.5-1.1-0.5c-0.5,0-0.8,0.2-1.1,0.5c-0.3,0.3-0.6,0.4-1,0.4c-0.9,0-2.1-0.9-3.5-2
	c-1.8-1.4-3.3-2.2-5.4-2.2c-2.5,0-4.6,0.9-6.1,2.7c-0.4,0.5-0.7,1-1,1.6c-0.9,0-2.1-0.9-3.4-2c-1.8-1.4-3.3-2.2-5.4-2.2
	c-2.5,0-4.6,0.9-6,2.7c-0.4,0.5-0.7,1-1,1.6c-0.9,0-2.1-0.9-3.4-2c-1.8-1.4-3.3-2.2-5.4-2.2c-2.5,0-4.6,0.9-6,2.7
	c-1.3,1.5-2,3.6-2,5.7c0,0.2,0,0.3,0,0.5c-0.5,1.5-1.2,3.1-1.9,4.7c-1.4,3.1-2.5,5.2-3.6,6.7c0-0.3,0.1-0.6,0.1-0.9l0.1-0.5
	c0.2-1.6,0.6-3.5,1.1-5.3l0.3-1.4c0.5-2.1,1.1-4.6,1.4-6.7c0.3-2.8-0.7-4.5-1.6-5.3c-1-1-2.4-1.5-4.1-1.5c-2.1,0-4.4,0.9-5.8,2.4
	c-1,1-1.9,2.5-2.9,4.3c-0.7,1.4-1.4,3.1-2.1,5c-0.4-3.6-0.7-7.4-0.9-10.9c0.9-1.1,1.7-2.3,2.4-3.5c1.1-1.9,1.9-4,2.3-6.1
	c0.3-1.8,0.5-3.4,0.5-5c0-0.8,0-1.7-0.1-2.5c-0.3-2.4-1-4.2-2-5.5c-1-1.2-2.2-1.9-3.5-1.8c-1.5,0-2.8,0.7-4,2.2
	c-1.3,1.7-2.2,4.6-2.7,8.5c-0.3,2.6-0.5,5.5-0.5,8.7c0,0.9,0,1.9,0,2.9c0.1,2.4,0.2,4.8,0.4,7.2c-0.5,1.6-1.5,4.7-2.9,7.7
	c-1.7,3.8-2.6,5.1-3,5.5c0-0.1,0-0.3,0-0.6c0-1.2,0.3-3.3,0.9-6.1c0.6-2.5,1.2-5.4,1.2-7.8c0-2.4-0.9-4.5-2.5-5.7
	c-0.9-0.7-2.1-1.1-3.4-1.1c-2.2,0-4.6,1.2-5.9,2.9c-0.9,1.1-1.8,2.8-2.8,5.1c-0.3,0.8-0.7,1.6-1,2.5c0-1,0.1-1.7,0.1-2l0-0.1
	c0-0.8-0.3-1.5-0.8-2.1c-0.8-0.8-2.1-1.3-3.4-1.3c-1.8,0-3.1,0.9-3.2,2.4c0,0.2,0,0.6-0.1,1c-1.4,6.4-3.7,11.5-6.9,14.8
	c-1.9,1.9-3.7,2.9-5.6,2.9c-3.7,0-6.4-4.2-6.4-10c0-0.5,0-0.9,0-1.4c0.5-6.5,4.4-11.3,8-13.2c0.5-0.3,0.9-0.9,0.8-1.5
	c0-0.6-0.3-1.1-0.9-1.4c-1.9-0.9-3.8-3.2-4.6-5.5c-0.1-0.4-0.2-0.8-0.2-1.2c2.4-1.4,4.3-2.5,5.6-3.6c3-2.5,2.8-4.9,2.4-6.1
	c-0.9-2.7-3.7-3.9-6-3.9c-2.7,0-5.3,1.5-7.1,4.1c-1.1,1.6-1.9,3.6-2.3,5.7c-0.1,0.7-0.2,1.5-0.2,2.5c0,0.6,0,1.3,0.1,2.1
	c-2.7,1.6-5.1,3.2-6.9,4.7c-4,3.4-5.8,6.7-5.6,10.2c0,0.4,0.2,0.8,0.6,1.1c0.3,0.3,0.7,0.4,1.1,0.4c0.9-0.1,1.5-0.8,1.4-1.7
	c-0.2-2.3,1.3-4.8,4.5-7.4c1.7-1.5,3.8-2.8,5.9-4.1c0.9,2.1,2,3.7,3.5,4.8c0.1,0.1,0.2,0.2,0.4,0.2l-0.1,0.1c-2,1.2-3.7,2.8-5,4.8
	c-1.6,2.5-2.5,5.5-2.8,8.9c0,0.6,0,1.2,0,1.7c0,3.5,0.8,6.6,2.4,9.1c2.1,3.2,5.3,4.9,8.9,4.9c3.6,0,7.5-1.8,10.3-4.7
	c1.7-1.8,3.1-4,4.4-6.5c0,0.7,0,1.4,0,2.1c0,1.2,1.3,2,3.3,2c2,0,4.3-0.9,4.6-2.9c4.1-14.9,6.7-16.5,7.6-16.5c0.1,0,0.1,0,0.1,0
	c0,0.1,0.2,0.5,0.2,1.5c0,0.4,0,0.8,0,1.3c-0.1,1.5-0.5,3.3-0.9,5.1l-0.2,1.1c-0.6,3.2-1.2,6.2-1.2,8.7c0,1.8,0.4,3.3,1.2,4.3
	c0.8,1,1.8,1.5,3.1,1.5c1.9,0,3.8-1.1,5.6-3.4c1.2-1.6,2.5-3.8,3.8-6.6c0.3-0.6,0.6-1.3,0.8-1.9c0.3,2.4,0.6,4.5,0.9,6.1
	c0.3,1.5,2.6,1.6,3.6,1.6c0.6,0,3.5-0.1,3.9-1.5c1.3-4.7,2.6-8.4,3.9-10.9c1.7-3.3,3.2-4.5,4.1-4.6c0,0.1,0.1,0.4,0.1,1.1
	c0,0.4,0,1-0.1,1.7c-0.2,1.8-0.7,4-1.2,6.2l-0.1,0.5c-0.8,3.3-1.5,6.5-1.5,9c0,1.7,0.3,3,1,3.9c0.4,0.6,1.3,1.5,3.1,1.5
	c2.9,0,5-3,5.7-3.9c1.3-1.8,2.7-4.4,4-7.5c0.2-0.5,0.4-0.9,0.6-1.4c0.1,0.2,0.2,0.3,0.4,0.4c1.5,1.7,3.5,2.5,5.9,2.5
	c2.1,0,4-1,5.3-2.8c1-1.5,1.6-3.5,1.6-5.6c0-0.4,0-0.8-0.1-1.1c0.2,0.1,0.4,0.2,0.5,0.2c0.3,0.1,0.5,0.2,0.8,0.2
	c0,0.4-0.1,0.7-0.1,1.1c0,2.1,0.7,4.1,1.9,5.5c1.5,1.7,3.5,2.5,5.9,2.5c2.1,0,4-1,5.3-2.8c1-1.5,1.6-3.5,1.6-5.6
	c0-0.4,0-0.8-0.1-1.1c0.2,0.1,0.4,0.2,0.5,0.2c0.3,0.1,0.5,0.2,0.8,0.2c0,0.4-0.1,0.7-0.1,1.1c0,2.1,0.7,4.1,1.9,5.5
	c1.5,1.7,3.5,2.5,5.9,2.5c2.1,0,4-1,5.3-2.8c1-1.5,1.6-3.5,1.6-5.6c0-0.4,0-0.8-0.1-1.1c0.2,0.1,0.4,0.2,0.5,0.2
	c0.6,0.2,1.2,0.4,1.8,0.4c1.1,0,2.1-0.4,3-1.3c0.3-0.3,0.5-0.7,0.5-1.1C877.3,691.2,877.2,690.8,876.9,690.5z M868.4,694.6
	c0,2.6-1.3,3.9-2.1,3.9c-0.9,0-1.6-1.2-1.8-3c-0.2-1.8,0.5-4,2.3-5.1c0.3,0.2,0.5,0.4,0.7,0.7C868.1,691.9,868.4,693.2,868.4,694.6z
	 M852.5,694.6c0,2.6-1.3,3.9-2.1,3.9c-0.9,0-1.6-1.2-1.8-3c-0.2-1.8,0.5-4,2.3-5.1c0.3,0.2,0.5,0.4,0.7,0.7
	C852.2,691.9,852.5,693.2,852.5,694.6z M836.7,694.6c0,2.6-1.3,3.9-2.1,3.9c-0.9,0-1.6-1.2-1.8-3c-0.2-1.8,0.5-4,2.3-5.1
	c0.3,0.2,0.5,0.4,0.7,0.7C836.3,691.9,836.7,693.2,836.7,694.6z M805.1,680.5c0-2.4,0.1-4.8,0.3-6.9c0.4-4,1.1-5.6,1.4-6
	c0.2,0.3,0.5,1.3,0.5,3.3c0,1.5-0.2,3.2-0.6,5c-0.3,1.6-0.9,3.2-1.7,4.8C805.1,680.6,805.1,680.6,805.1,680.5z M755.7,671.1
	c0.1-0.6,0.3-1.3,0.5-1.8c0.8-2,2.4-4.2,3.4-4.2c0.4,0,0.7,0.3,1,1c0.4,1-0.8,2.2-1.4,2.6C758.3,669.5,757,670.3,755.7,671.1z"/>
<path class="st0" d="M906.9,864.4c-11.6-18-27.9-32.6-47.1-42.2c-5.2-2.6-10.6-4.8-16.2-6.6l-12.4-16.2c-2.9-3.8-7-6.2-11.6-7
	c2.9-3,4.6-7.1,4.6-11.6c0-9.4-7.6-17-17-17c-9.4,0-17,7.6-17,17c0,4.5,1.8,8.6,4.6,11.6c-4.6,0.8-8.8,3.2-11.6,7l-12.4,16.2
	c-12.8,4.2-24.7,10.4-35.2,18.4c-15.8,12-28.5,27.8-36.7,46c-6.7,14.9-10.4,31.3-10.4,48.6c0,23.1,6.6,44.7,18.1,63
	c10.9,17.3,26.1,31.6,44.1,41.4c16.8,9.2,36.1,14.4,56.5,14.4c25.7,0,49.4-8.2,68.9-22c18-12.8,32.2-30.6,40.8-51.2
	c5.8-14,9.1-29.4,9.1-45.5C925.8,905,918.9,882.9,906.9,864.4L906.9,864.4z M807.1,774.9c3.3,0,5.9,2.7,5.9,5.9
	c0,3.3-2.7,5.9-5.9,5.9c-3.2,0-5.9-2.7-5.9-5.9S803.8,774.9,807.1,774.9z M914,944.6c-7.6,52.2-52.6,92.3-106.9,92.3
	s-98.9-39.8-106.8-91.7c-0.9-5.4-1.3-11-1.3-16.7c0-22.5,6.9-43.5,18.8-60.8l5.3-7.2c7-8.7,15.4-16.2,24.7-22.3v0.3l0,0v15.8
	l-4.6-1.4c-2-0.6-4,0.9-3.9,3l0.2,5.9c0,0.6-0.2,1.3-0.5,1.8l-3.4,4.8c-1.2,1.7-0.4,4.1,1.6,4.6l5.7,1.6c0.6,0.2,1.2,0.6,1.6,1.1
	l3.5,4.7c1.2,1.6,3.8,1.6,4.9-0.1l3.3-4.9c0.4-0.5,0.9-1,1.5-1.2l5.6-1.9c2-0.7,2.7-3.1,1.4-4.7l-3.6-4.7c-0.4-0.5-0.6-1.1-0.6-1.8
	l-0.1-5.9c0-2.1-2.1-3.5-4.1-2.8l-3.2,1.2v-18.8c11-6.4,23.3-10.8,36.3-13v67l-4.6-1.4c-2-0.6-4,0.9-3.9,3l0.2,5.9
	c0,0.7-0.2,1.3-0.5,1.8l-3.4,4.8c-1.2,1.7-0.3,4.1,1.6,4.6l5.7,1.6c0.6,0.2,1.2,0.6,1.6,1.1l3.6,4.7c1.2,1.7,3.8,1.6,4.9-0.1
	l3.3-4.9c0.4-0.5,0.9-0.9,1.5-1.2l5.6-1.9c2-0.7,2.7-3.1,1.4-4.7l-3.6-4.6c-0.4-0.5-0.6-1.2-0.6-1.8l-0.1-5.9c0-2.1-2.1-3.5-4.1-2.8
	l-3.2,1.2v-67.1l3.9-0.4c2.8-0.2,5.5-0.3,8.3-0.3c10.4,0,20.5,1.5,30.1,4.3l0,0v38.1l-5.3-1.5c-1.8-0.5-3.5,0.9-3.4,2.7l0.4,7.4
	c0,0.6-0.1,1.2-0.5,1.6l-4.1,6.1c-1,1.5-0.2,3.6,1.5,4.1l7.1,1.9c0.6,0.2,1.1,0.5,1.4,0.9l4.5,5.8c1.1,1.5,3.4,1.4,4.4-0.2l4-6.2
	c0.3-0.5,0.8-0.9,1.3-1l6.9-2.5c1.7-0.6,2.3-2.8,1.2-4.2l-4.6-5.7c-0.4-0.5-0.6-1-0.6-1.6l-0.2-7.4c-0.1-1.8-1.9-3.1-3.6-2.4l-5,1.9
	v-36.1c13.6,4.7,26,12.1,36.6,21.6l0,0v61.4l-3.2-1c-1.1-0.4-2.3,0.5-2.2,1.7l0.2,5.4c0,0.4-0.1,0.7-0.3,1l-3.1,4.4
	c-0.7,1-0.2,2.3,0.9,2.6l5.2,1.5c0.4,0.1,0.7,0.3,0.9,0.6l3.3,4.3c0.7,0.9,2.1,0.9,2.8-0.1l3-4.5c0.2-0.3,0.5-0.5,0.9-0.7l5.1-1.8
	c1.1-0.4,1.5-1.8,0.8-2.7l-3.4-3.9c-0.2-0.3-0.4-0.7-0.4-1l-0.1-5.4c0-1.2-1.2-2-2.3-1.6l-2.8,1v-56c19,19.5,30.7,46.1,30.7,75.4
	C915.2,934.1,914.8,939.4,914,944.6L914,944.6z"/>
<text transform="matrix(0.95 0 0 1 734.0508 996.8832)" class="st0" style="font-family:'AutumninNovember'; font-size:46.23px;">Muaa</text>
<text transform="matrix(0.95 0 0 1 734.0508 996.8832)" style="fill:none;stroke:#DFCAAB;stroke-width:1.34;stroke-miterlimit:10; font-family:'AutumninNovember'; font-size:46.23px;">Muaa</text>
<path class="st0" d="M1151.4,571.8c-11.6-17.9-27.9-32.6-47.1-42.1c-5.2-2.6-10.6-4.8-16.2-6.6l-12.4-16.2c-2.9-3.8-7-6.2-11.6-7
	c2.9-3,4.6-7.1,4.6-11.6c0-9.4-7.6-17-17-17s-17,7.6-17,17c0,4.5,1.8,8.6,4.6,11.6c-4.6,0.8-8.8,3.2-11.6,7l-12.4,16.2
	c-12.9,4.1-24.7,10.4-35.3,18.3c-15.8,12-28.5,27.8-36.7,46c-6.7,14.9-10.4,31.3-10.4,48.6c0,23.1,6.6,44.7,18.1,63
	c10.9,17.3,26.1,31.6,44.1,41.4c16.8,9.2,36.1,14.4,56.5,14.4c25.7,0,49.4-8.2,68.9-22c18-12.8,32.2-30.6,40.8-51.2
	c5.8-14,9.1-29.4,9.1-45.4C1170.4,612.4,1163.4,590.4,1151.4,571.8L1151.4,571.8z M1051.6,482.4c3.3,0,5.9,2.7,5.9,5.9
	s-2.7,5.9-5.9,5.9c-3.2,0-5.9-2.7-5.9-5.9S1048.4,482.4,1051.6,482.4z M1158.5,652.1c-7.6,52.2-52.6,92.3-106.9,92.3
	c-54.3,0-98.9-39.8-106.8-91.7c-0.8-5.4-1.3-11-1.3-16.7c0-22.6,6.9-43.5,18.8-60.8l5.3-7.2c7-8.7,15.4-16.2,24.7-22.4v0.3l0,0v15.8
	l-4.6-1.4c-2-0.6-4,0.9-3.9,3l0.2,5.9c0,0.7-0.2,1.3-0.5,1.8l-3.4,4.8c-1.2,1.7-0.3,4.1,1.6,4.6l5.7,1.6c0.6,0.2,1.2,0.6,1.6,1.1
	l3.5,4.7c1.2,1.6,3.7,1.6,4.9-0.1l3.3-4.9c0.4-0.5,0.9-1,1.5-1.2l5.6-1.9c2-0.7,2.7-3.1,1.4-4.7l-3.6-4.7c-0.4-0.5-0.6-1.1-0.6-1.8
	l-0.1-5.9c0-2.1-2.1-3.5-4.1-2.8l-3.2,1.1v-18.8c11-6.4,23.3-10.8,36.3-13V596l-4.6-1.4c-2-0.6-4,0.9-3.9,3l0.2,5.9
	c0,0.6-0.2,1.3-0.5,1.8l-3.4,4.8c-1.2,1.7-0.3,4.1,1.6,4.6l5.7,1.6c0.6,0.2,1.2,0.6,1.6,1.1l3.6,4.7c1.2,1.6,3.8,1.6,4.9-0.1
	l3.3-4.9c0.4-0.5,0.9-1,1.5-1.2l5.6-1.9c2-0.7,2.7-3.1,1.4-4.7l-3.6-4.6c-0.4-0.5-0.6-1.1-0.6-1.8l-0.1-5.9c0-2.1-2.1-3.5-4.1-2.8
	l-3.2,1.2v-67.1l3.9-0.4c2.8-0.2,5.5-0.3,8.3-0.3c10.4,0,20.5,1.5,30.1,4.3l0,0V570l-5.3-1.5c-1.8-0.5-3.5,0.9-3.4,2.7l0.4,7.4
	c0,0.6-0.1,1.1-0.5,1.6l-4.1,6.1c-1,1.5-0.2,3.6,1.5,4.1l7.1,1.9c0.6,0.1,1.1,0.5,1.4,0.9l4.5,5.8c1.1,1.5,3.4,1.4,4.4-0.2l4-6.2
	c0.3-0.5,0.8-0.9,1.3-1.1l6.9-2.5c1.7-0.6,2.3-2.8,1.2-4.2l-4.6-5.7c-0.4-0.5-0.6-1-0.6-1.6l-0.2-7.4c-0.1-1.8-1.9-3.1-3.6-2.4
	l-5,1.9v-36.1c13.6,4.7,26,12.1,36.6,21.6l0,0v61.4l-3.2-1c-1.1-0.4-2.3,0.5-2.2,1.7l0.2,5.4c0,0.4-0.1,0.7-0.3,1l-3.1,4.4
	c-0.7,1-0.2,2.3,0.9,2.6l5.2,1.5c0.4,0.1,0.7,0.3,0.9,0.6l3.3,4.3c0.7,0.9,2.1,0.9,2.8-0.1l3-4.5c0.2-0.3,0.5-0.5,0.9-0.7l5.1-1.8
	c1.1-0.4,1.5-1.8,0.8-2.7l-3.3-4.3c-0.2-0.3-0.4-0.7-0.4-1l-0.1-5.4c0-1.2-1.2-2-2.3-1.6l-2.8,1v-56c19,19.5,30.7,46.1,30.7,75.4
	C1159.7,641.5,1159.3,646.9,1158.5,652.1L1158.5,652.1z"/>
<text transform="matrix(0.95 0 0 1 978.5981 704.3353)" class="st0" style="font-family:'AutumninNovember'; font-size:46.23px;">Hehhe</text>
<text transform="matrix(0.95 0 0 1 978.5981 704.3353)" style="fill:none;stroke:#DFCAAB;stroke-width:1.34;stroke-miterlimit:10; font-family:'AutumninNovember'; font-size:46.23px;">Hehhe</text>
<path d="M1104.9,820.5h80v80h-80V820.5"/>
<circle class="st1" cx="1104.9" cy="820.5" r="2"/>
<circle class="st1" cx="1184.9" cy="900.5" r="2"/>
<circle class="st1" cx="1184.9" cy="820.5" r="2"/>
<circle class="st1" cx="1104.9" cy="900.5" r="2"/>
</svg>
