  0
SECTION
  2
HEADER
  9
$ACADVER
  1
AC1024
  9
$ACADMAINTVER
 70
     6
  9
$DWGCODEPAGE
  3
UNDEFINED
  9
$INSBASE
 10
0.0
 20
0.0
 30
0.0
  9
$EXTMIN
 10
1.000000000000000E+20
 20
1.000000000000000E+20
 30
1.000000000000000E+20
  9
$EXTMAX
 10
-1.000000000000000E+20
 20
-1.000000000000000E+20
 30
-1.000000000000000E+20
  9
$LIMMIN
 10
0.0
 20
0.0
  9
$LIMMAX
 10
12.0
 20
9.0
  9
$ORTHOMODE
 70
     0
  9
$REGENMODE
 70
     1
  9
$FILLMODE
 70
     1
  9
$QTEXTMODE
 70
     0
  9
$MIRRTEXT
 70
     1
  9
$LTSCALE
 40
1.0
  9
$ATTMODE
 70
     1
  9
$TEXTSIZE
 40
0.2
  9
$TRACEWID
 40
0.05
  9
$TEXTSTYLE
  7
Standard
  9
$CLAYER
  8
0
  9
$CELTYPE
  6
ByLayer
  9
$CECOLOR
 62
   256
  9
$CELTSCALE
 40
1.0
  9
$DISPSILH
 70
     0
  9
$DIMSCALE
 40
1.0
  9
$DIMASZ
 40
0.18
  9
$DIMEXO
 40
0.0625
  9
$DIMDLI
 40
0.38
  9
$DIMRND
 40
0.0
  9
$DIMDLE
 40
0.0
  9
$DIMEXE
 40
0.18
  9
$DIMTP
 40
0.0
  9
$DIMTM
 40
0.0
  9
$DIMTXT
 40
0.18
  9
$DIMCEN
 40
0.09
  9
$DIMTSZ
 40
0.0
  9
$DIMTOL
 70
     0
  9
$DIMLIM
 70
     0
  9
$DIMTIH
 70
     1
  9
$DIMTOH
 70
     1
  9
$DIMSE1
 70
     0
  9
$DIMSE2
 70
     0
  9
$DIMTAD
 70
     0
  9
$DIMZIN
 70
     0
  9
$DIMBLK
  1

  9
$DIMASO
 70
     1
  9
$DIMSHO
 70
     1
  9
$DIMPOST
  1

  9
$DIMAPOST
  1

  9
$DIMALT
 70
     0
  9
$DIMALTD
 70
     2
  9
$DIMALTF
 40
25.4
  9
$DIMLFAC
 40
1.0
  9
$DIMTOFL
 70
     0
  9
$DIMTVP
 40
0.0
  9
$DIMTIX
 70
     0
  9
$DIMSOXD
 70
     0
  9
$DIMSAH
 70
     0
  9
$DIMBLK1
  1

  9
$DIMBLK2
  1

  9
$DIMSTYLE
  2
Standard
  9
$DIMCLRD
 70
     0
  9
$DIMCLRE
 70
     0
  9
$DIMCLRT
 70
     0
  9
$DIMTFAC
 40
1.0
  9
$DIMGAP
 40
0.09
  9
$DIMJUST
 70
     0
  9
$DIMSD1
 70
     0
  9
$DIMSD2
 70
     0
  9
$DIMTOLJ
 70
     1
  9
$DIMTZIN
 70
     0
  9
$DIMALTZ
 70
     0
  9
$DIMALTTZ
 70
     0
  9
$DIMUPT
 70
     0
  9
$DIMDEC
 70
     4
  9
$DIMTDEC
 70
     4
  9
$DIMALTU
 70
     2
  9
$DIMALTTD
 70
     2
  9
$DIMTXSTY
  7
Standard
  9
$DIMAUNIT
 70
     0
  9
$DIMADEC
 70
     0
  9
$DIMALTRND
 40
0.0
  9
$DIMAZIN
 70
     0
  9
$DIMDSEP
 70
    46
  9
$DIMATFIT
 70
     3
  9
$DIMFRAC
 70
     0
  9
$DIMLDRBLK
  1

  9
$DIMLUNIT
 70
     2
  9
$DIMLWD
 70
    -2
  9
$DIMLWE
 70
    -2
  9
$DIMTMOVE
 70
     0
  9
$DIMFXL
 40
1.0
  9
$DIMFXLON
 70
     0
  9
$DIMJOGANG
 40
0.7853981633974483
  9
$DIMTFILL
 70
     0
  9
$DIMTFILLCLR
 70
     0
  9
$DIMARCSYM
 70
     0
  9
$DIMLTYPE
  6

  9
$DIMLTEX1
  6

  9
$DIMLTEX2
  6

  9
$DIMTXTDIRECTION
 70
     0
  9
$LUNITS
 70
     2
  9
$LUPREC
 70
     4
  9
$SKETCHINC
 40
0.1
  9
$FILLETRAD
 40
0.5
  9
$AUNITS
 70
     0
  9
$AUPREC
 70
     0
  9
$MENU
  1
.
  9
$ELEVATION
 40
0.0
  9
$PELEVATION
 40
0.0
  9
$THICKNESS
 40
0.0
  9
$LIMCHECK
 70
     0
  9
$CHAMFERA
 40
0.5
  9
$CHAMFERB
 40
0.5
  9
$CHAMFERC
 40
1.0
  9
$CHAMFERD
 40
0.0
  9
$SKPOLY
 70
     0
  9
$TDCREATE
 40
2459305.90306713
  9
$TDUCREATE
 40
2459306.15306713
  9
$TDUPDATE
 40
2459305.90306713
  9
$TDUUPDATE
 40
2459306.15306713
  9
$TDINDWG
 40
0.0000000116
  9
$TDUSRTIMER
 40
0.0000000116
  9
$USRTIMER
 70
     1
  9
$ANGBASE
 50
0.0
  9
$ANGDIR
 70
     0
  9
$PDMODE
 70
     0
  9
$PDSIZE
 40
0.0
  9
$PLINEWID
 40
0.0
  9
$SPLFRAME
 70
     0
  9
$SPLINETYPE
 70
     6
  9
$SPLINESEGS
 70
     8
  9
$HANDSEED
  5
70
  9
$SURFTAB1
 70
     6
  9
$SURFTAB2
 70
     6
  9
$SURFTYPE
 70
     6
  9
$SURFU
 70
     6
  9
$SURFV
 70
     6
  9
$UCSBASE
  2

  9
$UCSNAME
  2

  9
$UCSORG
 10
0.0
 20
0.0
 30
0.0
  9
$UCSXDIR
 10
1.0
 20
0.0
 30
0.0
  9
$UCSYDIR
 10
0.0
 20
1.0
 30
0.0
  9
$UCSORTHOREF
  2

  9
$UCSORTHOVIEW
 70
     0
  9
$UCSORGTOP
 10
0.0
 20
0.0
 30
0.0
  9
$UCSORGBOTTOM
 10
0.0
 20
0.0
 30
0.0
  9
$UCSORGLEFT
 10
0.0
 20
0.0
 30
0.0
  9
$UCSORGRIGHT
 10
0.0
 20
0.0
 30
0.0
  9
$UCSORGFRONT
 10
0.0
 20
0.0
 30
0.0
  9
$UCSORGBACK
 10
0.0
 20
0.0
 30
0.0
  9
$PUCSBASE
  2

  9
$PUCSNAME
  2

  9
$PUCSORG
 10
0.0
 20
0.0
 30
0.0
  9
$PUCSXDIR
 10
1.0
 20
0.0
 30
0.0
  9
$PUCSYDIR
 10
0.0
 20
1.0
 30
0.0
  9
$PUCSORTHOREF
  2

  9
$PUCSORTHOVIEW
 70
     0
  9
$PUCSORGTOP
 10
0.0
 20
0.0
 30
0.0
  9
$PUCSORGBOTTOM
 10
0.0
 20
0.0
 30
0.0
  9
$PUCSORGLEFT
 10
0.0
 20
0.0
 30
0.0
  9
$PUCSORGRIGHT
 10
0.0
 20
0.0
 30
0.0
  9
$PUCSORGFRONT
 10
0.0
 20
0.0
 30
0.0
  9
$PUCSORGBACK
 10
0.0
 20
0.0
 30
0.0
  9
$USERI1
 70
     0
  9
$USERI2
 70
     0
  9
$USERI3
 70
     0
  9
$USERI4
 70
     0
  9
$USERI5
 70
     0
  9
$USERR1
 40
0.0
  9
$USERR2
 40
0.0
  9
$USERR3
 40
0.0
  9
$USERR4
 40
0.0
  9
$USERR5
 40
0.0
  9
$WORLDVIEW
 70
     1
  9
$SHADEDGE
 70
     3
  9
$SHADEDIF
 70
    70
  9
$TILEMODE
 70
     1
  9
$MAXACTVP
 70
    64
  9
$PINSBASE
 10
0.0
 20
0.0
 30
0.0
  9
$PLIMCHECK
 70
     0
  9
$PEXTMIN
 10
1.000000000000000E+20
 20
1.000000000000000E+20
 30
1.000000000000000E+20
  9
$PEXTMAX
 10
-1.000000000000000E+20
 20
-1.000000000000000E+20
 30
-1.000000000000000E+20
  9
$PLIMMIN
 10
0.0
 20
0.0
  9
$PLIMMAX
 10
12.0
 20
9.0
  9
$UNITMODE
 70
     0
  9
$VISRETAIN
 70
     1
  9
$PLINEGEN
 70
     0
  9
$PSLTSCALE
 70
     1
  9
$TREEDEPTH
 70
  3020
  9
$CMLSTYLE
  2
Standard
  9
$CMLJUST
 70
     0
  9
$CMLSCALE
 40
1.0
  9
$PROXYGRAPHICS
 70
     1
  9
$MEASUREMENT
 70
     0
  9
$CELWEIGHT
370
    -1
  9
$ENDCAPS
280
     0
  9
$JOINSTYLE
280
     0
  9
$LWDISPLAY
290
     1
  9
$INSUNITS
 70
     1
  9
$HYPERLINKBASE
  1

  9
$STYLESHEET
  1

  9
$XEDIT
290
     1
  9
$CEPSNTYPE
380
     0
  9
$PSTYLEMODE
290
     1
  9
$FINGERPRINTGUID
  2
{FD33663B-E206-FF95-F134-EA98CC297704}
  9
$VERSIONGUID
  2
{FAEB1C32-E019-11D5-929B-00C0DF256EC4}
  9
$EXTNAMES
290
     1
  9
$PSVPSCALE
 40
0.0
  9
$OLESTARTUP
290
     0
  9
$SORTENTS
280
   127
  9
$INDEXCTL
280
     0
  9
$HIDETEXT
280
     1
  9
$XCLIPFRAME
280
     2
  9
$HALOGAP
280
     0
  9
$OBSCOLOR
 70
   257
  9
$OBSLTYPE
280
     0
  9
$INTERSECTIONDISPLAY
280
     0
  9
$INTERSECTIONCOLOR
 70
   257
  9
$DIMASSOC
280
     2
  9
$PROJECTNAME
  1

  9
$CAMERADISPLAY
290
     0
  9
$LENSLENGTH
 40
50.0
  9
$CAMERAHEIGHT
 40
0.0
  9
$STEPSPERSEC
 40
2.0
  9
$STEPSIZE
 40
6.0
  9
$3DDWFPREC
 40
2.0
  9
$PSOLWIDTH
 40
0.25
  9
$PSOLHEIGHT
 40
4.0
  9
$LOFTANG1
 40
1.570796326794897
  9
$LOFTANG2
 40
1.570796326794897
  9
$LOFTMAG1
 40
0.0
  9
$LOFTMAG2
 40
0.0
  9
$LOFTPARAM
 70
     7
  9
$LOFTNORMALS
280
     1
  9
$LATITUDE
 40
37.795
  9
$LONGITUDE
 40
-122.394
  9
$NORTHDIRECTION
 40
0.0
  9
$TIMEZONE
 70
 -8000
  9
$LIGHTGLYPHDISPLAY
280
     1
  9
$TILEMODELIGHTSYNCH
280
     1
  9
$CMATERIAL
347
3C
  9
$SOLIDHIST
280
     1
  9
$SHOWHIST
280
     1
  9
$DWFFRAME
280
     2
  9
$DGNFRAME
280
     2
  9
$REALWORLDSCALE
290
     1
  9
$INTERFERECOLOR
 62
   256
  9
$CSHADOW
280
     0
  9
$SHADOWPLANELOCATION
 40
0.0
  0
ENDSEC
  0
SECTION
  2
CLASSES
  0
CLASS
  1
ACDBDICTIONARYWDFLT
  2
AcDbDictionaryWithDefault
  3
ObjectDBX Classes
 90
        0
 91
        4
280
     0
281
     0
  0
CLASS
  1
VISUALSTYLE
  2
AcDbVisualStyle
  3
ObjectDBX Classes
 90
     4095
 91
        4
280
     0
281
     0
  0
CLASS
  1
MATERIAL
  2
AcDbMaterial
  3
ObjectDBX Classes
 90
     1153
 91
        4
280
     0
281
     0
  0
CLASS
  1
SUN
  2
AcDbSun
  3
SCENEOE
 90
     1024
 91
        4
280
     0
281
     0
  0
ENDSEC
  0
SECTION
  2
TABLES
  0
TABLE
  2
VPORT
  5
8
330
0
100
AcDbSymbolTable
 70
     1
  0
VPORT
  5
29
330
8
100
AcDbSymbolTableRecord
100
AcDbViewportTableRecord
  2
*Active
 70
     0
 10
0.0
 20
0.0
 11
1.0
 21
1.0
 12
0.0
 22
0.0
 13
0.0
 23
0.0
 14
0.5
 24
0.5
 15
0.5
 25
0.5
 16
0.0
 26
0.0
 36
1.0
 17
10.88368733723958
 27
16.15875074598524
 37
0.0
 40
32.31750149197048
 41
0.6735475723544849
 42
50.0
 43
0.0
 44
0.0
 50
0.0
 51
0.0
 71
     0
 72
   100
 73
     1
 74
     3
 75
     0
 76
     0
 77
     0
 78
     0
281
     0
 65
     1
110
0.0
120
0.0
130
0.0
111
1.0
121
0.0
131
0.0
112
0.0
122
1.0
132
0.0
 79
     0
146
0.0
 60
     3
 61
     5
292
     1
282
     1
141
0.0
142
0.0
 63
   250
361
3F
  0
ENDTAB
  0
TABLE
  2
LTYPE
  5
5
330
0
100
AcDbSymbolTable
 70
     1
  0
LTYPE
  5
14
330
5
100
AcDbSymbolTableRecord
100
AcDbLinetypeTableRecord
  2
ByBlock
 70
     0
  3

 72
    65
 73
     0
 40
0.0
  0
LTYPE
  5
15
330
5
100
AcDbSymbolTableRecord
100
AcDbLinetypeTableRecord
  2
ByLayer
 70
     0
  3

 72
    65
 73
     0
 40
0.0
  0
LTYPE
  5
16
330
5
100
AcDbSymbolTableRecord
100
AcDbLinetypeTableRecord
  2
Continuous
 70
     0
  3
Solid line
 72
    65
 73
     0
 40
0.0
  0
ENDTAB
  0
TABLE
  2
LAYER
  5
2
330
0
100
AcDbSymbolTable
 70
     2
  0
LAYER
  5
10
330
2
100
AcDbSymbolTableRecord
100
AcDbLayerTableRecord
  2
0
 70
     0
 62
     7
  6
Continuous
370
    -3
390
F
347
3E
  0
LAYER
  5
40
330
2
100
AcDbSymbolTableRecord
100
AcDbLayerTableRecord
  2
Layer 1
 70
     0
 62
     7
  6
Continuous
370
    -3
390
F
347
3E
  0
ENDTAB
  0
TABLE
  2
STYLE
  5
3
330
0
100
AcDbSymbolTable
 70
     1
  0
STYLE
  5
11
330
3
100
AcDbSymbolTableRecord
100
AcDbTextStyleTableRecord
  2
Standard
 70
     0
 40
0.0
 41
1.0
 50
0.0
 71
     0
 42
0.2
  3
txt
  4

  0
ENDTAB
  0
TABLE
  2
VIEW
  5
6
330
0
100
AcDbSymbolTable
 70
     0
  0
ENDTAB
  0
TABLE
  2
UCS
  5
7
330
0
100
AcDbSymbolTable
 70
     0
  0
ENDTAB
  0
TABLE
  2
APPID
  5
9
330
0
100
AcDbSymbolTable
 70
     1
  0
APPID
  5
12
330
9
100
AcDbSymbolTableRecord
100
AcDbRegAppTableRecord
  2
ACAD
 70
     0
  0
ENDTAB
  0
TABLE
  2
DIMSTYLE
  5
A
330
0
100
AcDbSymbolTable
 70
     1
100
AcDbDimStyleTable
  0
DIMSTYLE
105
27
330
A
100
AcDbSymbolTableRecord
100
AcDbDimStyleTableRecord
  2
Standard
 70
     0
178
     0
340
11
  0
ENDTAB
  0
TABLE
  2
BLOCK_RECORD
  5
1
330
0
100
AcDbSymbolTable
 70
     5
  0
BLOCK_RECORD
  5
1F
330
1
100
AcDbSymbolTableRecord
100
AcDbBlockTableRecord
  2
*Model_Space
340
22
 70
     0
280
     1
281
     0
  0
BLOCK_RECORD
  5
1B
330
1
100
AcDbSymbolTableRecord
100
AcDbBlockTableRecord
  2
*Paper_Space
340
1E
 70
     0
280
     1
281
     0
  0
BLOCK_RECORD
  5
23
330
1
100
AcDbSymbolTableRecord
100
AcDbBlockTableRecord
  2
*Paper_Space0
340
26
 70
     0
280
     1
281
     0
  0
BLOCK_RECORD
  5
50
330
1
100
AcDbSymbolTableRecord
100
AcDbBlockTableRecord
  2
block 2
340
0
102
{BLKREFS
331
51
102
}
 70
     0
280
     1
281
     0
  0
BLOCK_RECORD
  5
58
330
1
100
AcDbSymbolTableRecord
100
AcDbBlockTableRecord
  2
block 3
340
0
102
{BLKREFS
331
59
102
}
 70
     0
280
     1
281
     0
  0
BLOCK_RECORD
  5
5E
330
1
100
AcDbSymbolTableRecord
100
AcDbBlockTableRecord
  2
block 4
340
0
102
{BLKREFS
331
5F
102
}
 70
     0
280
     1
281
     0
  0
BLOCK_RECORD
  5
65
330
1
100
AcDbSymbolTableRecord
100
AcDbBlockTableRecord
  2
block 5
340
0
102
{BLKREFS
331
66
102
}
 70
     0
280
     1
281
     0
  0
ENDTAB
  0
ENDSEC
  0
SECTION
  2
BLOCKS
  0
BLOCK
  5
20
330
1F
100
AcDbEntity
  8
0
100
AcDbBlockBegin
  2
*Model_Space
 70
     0
 10
0.0
 20
0.0
 30
0.0
  3
*Model_Space
  1

  0
ENDBLK
  5
21
330
1F
100
AcDbEntity
  8
0
100
AcDbBlockEnd
  0
BLOCK
  5
1C
330
1B
100
AcDbEntity
 67
     1
  8
0
100
AcDbBlockBegin
  2
*Paper_Space
 70
     0
 10
0.0
 20
0.0
 30
0.0
  3
*Paper_Space
  1

  0
ENDBLK
  5
1D
330
1B
100
AcDbEntity
 67
     1
  8
0
100
AcDbBlockEnd
  0
BLOCK
  5
24
330
23
100
AcDbEntity
  8
0
100
AcDbBlockBegin
  2
*Paper_Space0
 70
     0
 10
0.0
 20
0.0
 30
0.0
  3
*Paper_Space0
  1

  0
ENDBLK
  5
25
330
23
100
AcDbEntity
  8
0
100
AcDbBlockEnd
  0
BLOCK
  5
52
330
50
100
AcDbEntity
  8
0
100
AcDbBlockBegin
  2
block 2
 70
     0
 10
0.0
 20
0.0
 30
0.0
  3
block 2
  1

  0
SPLINE
  5
54
330
50
100
AcDbEntity
  8
Layer 1
 62
     7
420
 16777215
370
    70
100
AcDbSpline
210
0.0
220
0.0
230
1.0
 70
    11
 71
     3
 72
    50
 73
    46
 74
     0
 42
0.0000000001
 43
0.0000000001
 12
1.0
 22
0.0
 32
0.0
 13
1.0
 23
0.0
 33
0.0
 40
0.0
 40
0.0
 40
0.0
 40
0.0
 40
1.0
 40
1.0
 40
1.0
 40
2.0
 40
2.0
 40
2.0
 40
3.0
 40
3.0
 40
3.0
 40
4.0
 40
4.0
 40
4.0
 40
5.0
 40
5.0
 40
5.0
 40
6.0
 40
6.0
 40
6.0
 40
7.0
 40
7.0
 40
7.0
 40
8.0
 40
8.0
 40
8.0
 40
9.0
 40
9.0
 40
9.0
 40
10.0
 40
10.0
 40
10.0
 40
11.0
 40
11.0
 40
11.0
 40
12.0
 40
12.0
 40
12.0
 40
13.0
 40
13.0
 40
13.0
 40
14.0
 40
14.0
 40
14.0
 40
15.0
 40
15.0
 40
15.0
 40
15.0
 10
3.191013971964518
 20
1.453653937445754
 30
0.0
 10
2.465458340115017
 20
1.872209303114156
 30
0.0
 10
1.897430631849501
 20
2.448082784016934
 30
0.0
 10
1.486916753980849
 20
3.181667717827698
 30
0.0
 10
1.076222313774956
 20
3.915071241590719
 30
0.0
 10
0.8710417747497559
 20
4.740208909776483
 30
0.0
 10
0.8710417747497559
 20
5.657084113227003
 30
0.0
 10
0.8710417747497559
 20
6.613777974446621
 30
0.0
 10
1.06631957160102
 20
7.454806823730475
 30
0.0
 10
1.457013977898492
 20
8.180348680284295
 30
0.0
 10
1.847527821858724
 20
8.905724385579434
 30
0.0
 10
2.403611077202691
 20
9.467764926486552
 30
0.0
 10
3.125236087375217
 20
9.866516079372836
 30
0.0
 10
3.846666547987196
 20
10.26507225884332
 30
0.0
 10
4.693680657280816
 20
10.46444698757596
 30
0.0
 10
5.66643057929145
 20
10.46444698757596
 30
0.0
 10
6.638999938964844
 20
10.46444698757596
 30
0.0
 10
7.484139336480034
 20
10.26508582221138
 30
0.0
 10
8.201652526855469
 20
9.866516079372836
 30
0.0
 10
8.919166564941406
 20
9.467780185275615
 30
0.0
 10
9.473194546169704
 20
8.905724385579434
 30
0.0
 10
9.863902621799044
 20
8.180348680284295
 30
0.0
 10
10.25443013509114
 20
7.454806823730475
 30
0.0
 10
10.44987487792969
 20
6.613779669867628
 30
0.0
 10
10.44987487792969
 20
5.657084113227003
 30
0.0
 10
10.44987487792969
 20
4.700403815375441
 30
0.0
 10
10.22658284505208
 20
3.843305765787767
 30
0.0
 10
9.780180189344618
 20
3.086001892089851
 30
0.0
 10
9.780180189344618
 20
3.086001892089851
 30
0.0
 10
9.804111056857638
 20
3.097947828504781
 30
0.0
 10
9.804111056857638
 20
3.097947828504781
 30
0.0
 10
9.804111056857638
 20
3.097947828504781
 30
0.0
 10
10.74884711371528
 20
3.097947828504781
 30
0.0
 10
10.74884711371528
 20
3.097947828504781
 30
0.0
 10
10.74884711371528
 20
3.097947828504781
 30
0.0
 10
10.74884711371528
 20
0.9932386271158924
 30
0.0
 10
10.74884711371528
 20
0.9932386271158924
 30
0.0
 10
10.74884711371528
 20
0.9932386271158924
 30
0.0
 10
7.029722425672743
 20
0.9932386271158924
 30
0.0
 10
7.029722425672743
 20
0.9932386271158924
 30
0.0
 10
6.583152770996094
 20
0.8816968790690174
 30
0.0
 10
6.128722296820746
 20
0.8258090209961008
 30
0.0
 10
5.666444566514756
 20
0.8258090209961008
 30
0.0
 10
4.741527981228298
 20
0.8258225843641563
 30
0.0
 10
3.916375054253472
 20
1.035112135145406
 30
0.0
 10
3.191013971964518
 20
1.453653937445754
 30
0.0
  0
SPLINE
  5
55
330
50
100
AcDbEntity
  8
Layer 1
 62
     7
420
 16777215
370
    70
100
AcDbSpline
210
0.0
220
0.0
230
1.0
 70
    11
 71
     3
 72
    29
 73
    25
 74
     0
 42
0.0000000001
 43
0.0000000001
 12
1.0
 22
0.0
 32
0.0
 13
1.0
 23
0.0
 33
0.0
 40
0.0
 40
0.0
 40
0.0
 40
0.0
 40
1.0
 40
1.0
 40
1.0
 40
2.0
 40
2.0
 40
2.0
 40
3.0
 40
3.0
 40
3.0
 40
4.0
 40
4.0
 40
4.0
 40
5.0
 40
5.0
 40
5.0
 40
6.0
 40
6.0
 40
6.0
 40
7.0
 40
7.0
 40
7.0
 40
8.0
 40
8.0
 40
8.0
 40
8.0
 10
6.611166636149088
 20
3.68991763644749
 30
0.0
 10
6.834263695610893
 20
4.25197343614367
 30
0.0
 10
6.945999993218315
 20
4.923514438205302
 30
0.0
 10
6.945999993218315
 20
5.70493228488499
 30
0.0
 10
6.945999993218315
 20
6.446377190483948
 30
0.0
 10
6.838375091552734
 20
7.072140129937073
 30
0.0
 10
6.623124864366319
 20
7.582431335449225
 30
0.0
 10
6.407875061035156
 20
8.092542826334642
 30
0.0
 10
6.088916354709201
 20
8.347778286404086
 30
0.0
 10
5.666430155436197
 20
8.347778286404086
 30
0.0
 10
5.235930124918619
 20
8.347778286404086
 30
0.0
 10
4.913041432698567
 20
8.092542826334642
 30
0.0
 10
4.697791205512153
 20
7.582431335449225
 30
0.0
 10
4.482541402180989
 20
7.072140129937073
 30
0.0
 10
4.374916076660156
 20
6.446375495062941
 30
0.0
 10
4.374916076660156
 20
5.70493228488499
 30
0.0
 10
4.374916076660156
 20
4.923516133626308
 30
0.0
 10
4.486457824707031
 20
4.25197343614367
 30
0.0
 10
4.709749433729383
 20
3.68991763644749
 30
0.0
 10
4.932846493191189
 20
3.127848273383254
 30
0.0
 10
5.251804775661892
 20
2.846835632324226
 30
0.0
 10
5.666430155436197
 20
2.846835632324226
 30
0.0
 10
6.073041703965928
 20
2.846835632324226
 30
0.0
 10
6.387889014350043
 20
3.127848273383254
 30
0.0
 10
6.611166636149088
 20
3.68991763644749
 30
0.0
  0
SPLINE
  5
56
330
50
100
AcDbEntity
  8
Layer 1
 62
     7
420
 16777215
370
    70
100
AcDbSpline
210
0.0
220
0.0
230
1.0
 70
    11
 71
     3
 72
    56
 73
    52
 74
     0
 42
0.0000000001
 43
0.0000000001
 12
1.0
 22
0.0
 32
0.0
 13
1.0
 23
0.0
 33
0.0
 40
0.0
 40
0.0
 40
0.0
 40
0.0
 40
1.0
 40
1.0
 40
1.0
 40
2.0
 40
2.0
 40
2.0
 40
3.0
 40
3.0
 40
3.0
 40
4.0
 40
4.0
 40
4.0
 40
5.0
 40
5.0
 40
5.0
 40
6.0
 40
6.0
 40
6.0
 40
7.0
 40
7.0
 40
7.0
 40
8.0
 40
8.0
 40
8.0
 40
9.0
 40
9.0
 40
9.0
 40
10.0
 40
10.0
 40
10.0
 40
11.0
 40
11.0
 40
11.0
 40
12.0
 40
12.0
 40
12.0
 40
13.0
 40
13.0
 40
13.0
 40
14.0
 40
14.0
 40
14.0
 40
15.0
 40
15.0
 40
15.0
 40
16.0
 40
16.0
 40
16.0
 40
17.0
 40
17.0
 40
17.0
 40
17.0
 10
5.66643057929145
 20
1.175835469563809
 30
0.0
 10
4.808027903238932
 20
1.175835469563809
 30
0.0
 10
4.034027947319879
 20
1.371307339138462
 30
0.0
 10
3.365930557250977
 20
1.756822340223531
 30
0.0
 10
2.699027803209093
 20
2.141530320909295
 30
0.0
 10
2.169611189100477
 20
2.678419291178392
 30
0.0
 10
1.792333390977648
 20
3.352600063747837
 30
0.0
 10
1.41323619418674
 20
4.029571499294712
 30
0.0
 10
1.221041785346137
 20
4.804877353244365
 30
0.0
 10
1.221041785346137
 20
5.657099372016066
 30
0.0
 10
1.221041785346137
 20
6.550808342827698
 30
0.0
 10
1.40411122639974
 20
7.343919508192281
 30
0.0
 10
1.765180693732368
 20
8.014419521755649
 30
0.0
 10
2.121500227186415
 20
8.676266106499572
 30
0.0
 10
2.636041853162977
 20
9.19633650037978
 30
0.0
 10
3.294527901543511
 20
9.560197584364156
 30
0.0
 10
3.960250006781684
 20
9.927975090874572
 30
0.0
 10
4.758291880289713
 20
10.11446122911242
 30
0.0
 10
5.666444566514756
 20
10.11446122911242
 30
0.0
 10
6.574250115288628
 20
10.11446122911242
 30
0.0
 10
7.37004174126519
 20
9.928114115397142
 30
0.0
 10
8.031708611382378
 20
9.56057227240669
 30
0.0
 10
8.686305575900608
 20
9.1967807006836
 30
0.0
 10
9.199097527398003
 20
8.676572977701829
 30
0.0
 10
9.555764092339409
 20
8.014392395019538
 30
0.0
 10
9.916805691189236
 20
7.343643154568149
 30
0.0
 10
10.09988911946614
 20
6.550516730414503
 30
0.0
 10
10.09988911946614
 20
5.657101067437073
 30
0.0
 10
10.09988911946614
 20
4.768281690809468
 30
0.0
 10
9.890889485677082
 20
3.963044874403219
 30
0.0
 10
9.478680928548176
 20
3.26375322129992
 30
0.0
 10
9.478680928548176
 20
3.26375322129992
 30
0.0
 10
8.877555847167969
 20
2.243920186360684
 30
0.0
 10
8.877555847167969
 20
2.243920186360684
 30
0.0
 10
8.877555847167969
 20
2.243920186360684
 30
0.0
 10
9.886680603027344
 20
2.74796207004124
 30
0.0
 10
9.886680603027344
 20
2.74796207004124
 30
0.0
 10
9.886680603027344
 20
2.74796207004124
 30
0.0
 10
10.39886135525174
 20
2.74796207004124
 30
0.0
 10
10.39886135525174
 20
2.74796207004124
 30
0.0
 10
10.39886135525174
 20
2.74796207004124
 30
0.0
 10
10.39886135525174
 20
1.343254903157559
 30
0.0
 10
10.39886135525174
 20
1.343254903157559
 30
0.0
 10
10.39886135525174
 20
1.343254903157559
 30
0.0
 10
6.986666785346137
 20
1.343254903157559
 30
0.0
 10
6.986666785346137
 20
1.343254903157559
 30
0.0
 10
6.986666785346137
 20
1.343254903157559
 30
0.0
 10
6.944903055826822
 20
1.332824673122837
 30
0.0
 10
6.944903055826822
 20
1.332824673122837
 30
0.0
 10
6.527833302815755
 20
1.228654615614156
 30
0.0
 10
6.097708384195963
 20
1.175835469563809
 30
0.0
 10
5.66643057929145
 20
1.175835469563809
 30
0.0
  0
SPLINE
  5
57
330
50
100
AcDbEntity
  8
Layer 1
 62
     7
420
 16777215
370
    70
100
AcDbSpline
210
0.0
220
0.0
230
1.0
 70
    11
 71
     3
 72
    29
 73
    25
 74
     0
 42
0.0000000001
 43
0.0000000001
 12
1.0
 22
0.0
 32
0.0
 13
1.0
 23
0.0
 33
0.0
 40
0.0
 40
0.0
 40
0.0
 40
0.0
 40
1.0
 40
1.0
 40
1.0
 40
2.0
 40
2.0
 40
2.0
 40
3.0
 40
3.0
 40
3.0
 40
4.0
 40
4.0
 40
4.0
 40
5.0
 40
5.0
 40
5.0
 40
6.0
 40
6.0
 40
6.0
 40
7.0
 40
7.0
 40
7.0
 40
8.0
 40
8.0
 40
8.0
 40
8.0
 10
5.66643057929145
 20
8.697792867024747
 30
0.0
 10
5.265944586859809
 20
8.697792867024747
 30
0.0
 10
4.716847313774957
 20
8.527903205023879
 30
0.0
 10
4.375319586859809
 20
7.718500739203566
 30
0.0
 10
4.142805735270182
 20
7.16727867974176
 30
0.0
 10
4.024916754828559
 20
6.489820658365892
 30
0.0
 10
4.024916754828559
 20
5.704930589463983
 30
0.0
 10
4.024916754828559
 20
4.882680223253045
 30
0.0
 10
4.14588885837131
 20
4.16123619927301
 30
0.0
 10
4.384486304389106
 20
3.560679083930129
 30
0.0
 10
4.577111138237847
 20
3.07541568332249
 30
0.0
 10
4.955916934543185
 20
2.496819356282559
 30
0.0
 10
5.666431003146701
 20
2.496819356282559
 30
0.0
 10
6.366806030273438
 20
2.496819356282559
 30
0.0
 10
6.743639204237196
 20
3.075361429850267
 30
0.0
 10
6.936431037055121
 20
3.560692647298184
 30
0.0
 10
7.175028483072916
 20
4.161790601942281
 30
0.0
 10
7.295986599392361
 20
4.883192240397142
 30
0.0
 10
7.295986599392361
 20
5.704928894042975
 30
0.0
 10
7.295986599392361
 20
6.489817267523878
 30
0.0
 10
7.178098042805989
 20
7.167261725531691
 30
0.0
 10
6.945597754584418
 20
7.718456658257385
 30
0.0
 10
6.604069603814018
 20
8.527889641655822
 30
0.0
 10
6.06147215101454
 20
8.697792867024747
 30
0.0
 10
5.66643057929145
 20
8.697792867024747
 30
0.0
  0
ENDBLK
  5
53
330
50
100
AcDbEntity
  8
0
100
AcDbBlockEnd
  0
BLOCK
  5
5A
330
58
100
AcDbEntity
  8
0
100
AcDbBlockBegin
  2
block 3
 70
     0
 10
0.0
 20
0.0
 30
0.0
  3
block 3
  1

  0
SPLINE
  5
5C
330
58
100
AcDbEntity
  8
Layer 1
 62
     6
420
 15859967
370
    70
100
AcDbSpline
210
0.0
220
0.0
230
1.0
 70
    11
 71
     3
 72
    50
 73
    46
 74
     0
 42
0.0000000001
 43
0.0000000001
 12
1.0
 22
0.0
 32
0.0
 13
1.0
 23
0.0
 33
0.0
 40
0.0
 40
0.0
 40
0.0
 40
0.0
 40
1.0
 40
1.0
 40
1.0
 40
2.0
 40
2.0
 40
2.0
 40
3.0
 40
3.0
 40
3.0
 40
4.0
 40
4.0
 40
4.0
 40
5.0
 40
5.0
 40
5.0
 40
6.0
 40
6.0
 40
6.0
 40
7.0
 40
7.0
 40
7.0
 40
8.0
 40
8.0
 40
8.0
 40
9.0
 40
9.0
 40
9.0
 40
10.0
 40
10.0
 40
10.0
 40
11.0
 40
11.0
 40
11.0
 40
12.0
 40
12.0
 40
12.0
 40
13.0
 40
13.0
 40
13.0
 40
14.0
 40
14.0
 40
14.0
 40
15.0
 40
15.0
 40
15.0
 40
15.0
 10
13.14174991183811
 20
1.405836283365892
 30
0.0
 10
12.41619449191623
 20
1.824391649034295
 30
0.0
 10
11.84816657172309
 20
2.400265129937073
 30
0.0
 10
11.43765258789062
 20
3.133850063747837
 30
0.0
 10
11.02695804172092
 20
3.86725189208985
 30
0.0
 10
10.82177734375
 20
4.692391255696621
 30
0.0
 10
10.82177734375
 20
5.609266459147142
 30
0.0
 10
10.82177734375
 20
6.56596032036676
 30
0.0
 10
11.01705508761936
 20
7.406989169650615
 30
0.0
 10
11.40774959988064
 20
8.132531026204434
 30
0.0
 10
11.79826354980469
 20
8.857906731499572
 30
0.0
 10
12.3543463812934
 20
9.41994727240669
 30
0.0
 10
13.07597181532118
 20
9.818698425292975
 30
0.0
 10
13.79740227593316
 20
10.21725460476346
 30
0.0
 10
14.64441596137153
 20
10.4166293334961
 30
0.0
 10
15.61716715494792
 20
10.4166293334961
 30
0.0
 10
16.58973693847656
 20
10.4166293334961
 30
0.0
 10
17.43487548828125
 20
10.21726816813152
 30
0.0
 10
18.15238952636719
 20
9.818698425292975
 30
0.0
 10
18.86990356445312
 20
9.419962531195752
 30
0.0
 10
19.42393154568142
 20
8.857906731499572
 30
0.0
 10
19.81463962131076
 20
8.132531026204434
 30
0.0
 10
20.20516798231337
 20
7.406989169650615
 30
0.0
 10
20.4006110297309
 20
6.565962015787767
 30
0.0
 10
20.4006110297309
 20
5.609266459147142
 30
0.0
 10
20.4006110297309
 20
4.65258616129558
 30
0.0
 10
20.1773189968533
 20
3.795488111707906
 30
0.0
 10
19.73091634114583
 20
3.03818423800999
 30
0.0
 10
19.73091634114583
 20
3.03818423800999
 30
0.0
 10
19.75484720865885
 20
3.05013017442492
 30
0.0
 10
19.75484720865885
 20
3.05013017442492
 30
0.0
 10
19.75484720865885
 20
3.05013017442492
 30
0.0
 10
20.69958326551649
 20
3.05013017442492
 30
0.0
 10
20.69958326551649
 20
3.05013017442492
 30
0.0
 10
20.69958326551649
 20
3.05013017442492
 30
0.0
 10
20.69958326551649
 20
0.9454209730360313
 30
0.0
 10
20.69958326551649
 20
0.9454209730360313
 30
0.0
 10
20.69958326551649
 20
0.9454209730360313
 30
0.0
 10
16.98045857747396
 20
0.9454209730360313
 30
0.0
 10
16.98045857747396
 20
0.9454209730360313
 30
0.0
 10
16.53388977050781
 20
0.8338792249891563
 30
0.0
 10
16.07945929633247
 20
0.7779913669162397
 30
0.0
 10
15.61718071831597
 20
0.7779913669162397
 30
0.0
 10
14.69225056966146
 20
0.7780015394422813
 30
0.0
 10
13.86709764268663
 20
0.9872809176974897
 30
0.0
 10
13.14174991183811
 20
1.405836283365892
 30
0.0
  0
SPLINE
  5
5D
330
58
100
AcDbEntity
  8
Layer 1
 62
     6
420
 15859967
370
    70
100
AcDbSpline
210
0.0
220
0.0
230
1.0
 70
    11
 71
     3
 72
    29
 73
    25
 74
     0
 42
0.0000000001
 43
0.0000000001
 12
1.0
 22
0.0
 32
0.0
 13
1.0
 23
0.0
 33
0.0
 40
0.0
 40
0.0
 40
0.0
 40
0.0
 40
1.0
 40
1.0
 40
1.0
 40
2.0
 40
2.0
 40
2.0
 40
3.0
 40
3.0
 40
3.0
 40
4.0
 40
4.0
 40
4.0
 40
5.0
 40
5.0
 40
5.0
 40
6.0
 40
6.0
 40
6.0
 40
7.0
 40
7.0
 40
7.0
 40
8.0
 40
8.0
 40
8.0
 40
8.0
 10
16.56190321180555
 20
3.642086418999573
 30
0.0
 10
16.78500027126736
 20
4.204142218695753
 30
0.0
 10
16.89673699273003
 20
4.875683220757385
 30
0.0
 10
16.89673699273003
 20
5.657101067437073
 30
0.0
 10
16.89673699273003
 20
6.398545973036031
 30
0.0
 10
16.7891116672092
 20
7.024308912489156
 30
0.0
 10
16.57386271158854
 20
7.534600118001308
 30
0.0
 10
16.35861206054688
 20
8.044711608886725
 30
0.0
 10
16.03965420193142
 20
8.29994706895617
 30
0.0
 10
15.61716885036892
 20
8.29994706895617
 30
0.0
 10
15.1866692437066
 20
8.29994706895617
 30
0.0
 10
14.86377970377604
 20
8.044711608886725
 30
0.0
 10
14.64853074815538
 20
7.534600118001308
 30
0.0
 10
14.43328009711371
 20
7.024308912489156
 30
0.0
 10
14.32565646701389
 20
6.398544277615024
 30
0.0
 10
14.32565646701389
 20
5.657101067437073
 30
0.0
 10
14.32565646701389
 20
4.875684916178392
 30
0.0
 10
14.43719821506076
 20
4.204142218695753
 30
0.0
 10
14.66049024793837
 20
3.642086418999573
 30
0.0
 10
14.88358730740017
 20
3.080017055935337
 30
0.0
 10
15.20254516601562
 20
2.799004414876309
 30
0.0
 10
15.61717054578993
 20
2.799004414876309
 30
0.0
 10
16.02376471625434
 20
2.799001024034295
 30
0.0
 10
16.33861117892795
 20
3.080030619303392
 30
0.0
 10
16.56190321180555
 20
3.642086418999573
 30
0.0
  0
ENDBLK
  5
5B
330
58
100
AcDbEntity
  8
0
100
AcDbBlockEnd
  0
BLOCK
  5
60
330
5E
100
AcDbEntity
  8
0
100
AcDbBlockBegin
  2
block 4
 70
     0
 10
0.0
 20
0.0
 30
0.0
  3
block 4
  1

  0
SPLINE
  5
62
330
5E
100
AcDbEntity
  8
Layer 1
 62
     7
420
 16777215
370
    70
100
AcDbSpline
210
0.0
220
0.0
230
1.0
 70
    11
 71
     3
 72
   110
 73
   106
 74
     0
 42
0.0000000001
 43
0.0000000001
 12
1.0
 22
0.0
 32
0.0
 13
1.0
 23
0.0
 33
0.0
 40
0.0
 40
0.0
 40
0.0
 40
0.0
 40
1.0
 40
1.0
 40
1.0
 40
2.0
 40
2.0
 40
2.0
 40
3.0
 40
3.0
 40
3.0
 40
4.0
 40
4.0
 40
4.0
 40
5.0
 40
5.0
 40
5.0
 40
6.0
 40
6.0
 40
6.0
 40
7.0
 40
7.0
 40
7.0
 40
8.0
 40
8.0
 40
8.0
 40
9.0
 40
9.0
 40
9.0
 40
10.0
 40
10.0
 40
10.0
 40
11.0
 40
11.0
 40
11.0
 40
12.0
 40
12.0
 40
12.0
 40
13.0
 40
13.0
 40
13.0
 40
14.0
 40
14.0
 40
14.0
 40
15.0
 40
15.0
 40
15.0
 40
16.0
 40
16.0
 40
16.0
 40
17.0
 40
17.0
 40
17.0
 40
18.0
 40
18.0
 40
18.0
 40
19.0
 40
19.0
 40
19.0
 40
20.0
 40
20.0
 40
20.0
 40
21.0
 40
21.0
 40
21.0
 40
22.0
 40
22.0
 40
22.0
 40
23.0
 40
23.0
 40
23.0
 40
24.0
 40
24.0
 40
24.0
 40
25.0
 40
25.0
 40
25.0
 40
26.0
 40
26.0
 40
26.0
 40
27.0
 40
27.0
 40
27.0
 40
28.0
 40
28.0
 40
28.0
 40
29.0
 40
29.0
 40
29.0
 40
30.0
 40
30.0
 40
30.0
 40
31.0
 40
31.0
 40
31.0
 40
32.0
 40
32.0
 40
32.0
 40
33.0
 40
33.0
 40
33.0
 40
34.0
 40
34.0
 40
34.0
 40
35.0
 40
35.0
 40
35.0
 40
35.0
 10
9.654638502332899
 20
13.19012617323134
 30
0.0
 10
9.654638502332899
 20
13.19012617323134
 30
0.0
 10
9.630707634819878
 20
13.17818193223742
 30
0.0
 10
9.630707634819878
 20
13.17818193223742
 30
0.0
 10
10.07711029052734
 20
13.93548750135634
 30
0.0
 10
10.30040232340495
 20
14.79258555094402
 30
0.0
 10
10.30040232340495
 20
15.74926584879558
 30
0.0
 10
10.30040232340495
 20
16.7059597100152
 30
0.0
 10
10.10495758056641
 20
17.54698855929905
 30
0.0
 10
9.714430067274305
 20
18.27252956814237
 30
0.0
 10
9.323721991644964
 20
18.997904425727
 30
0.0
 10
8.769694010416666
 20
19.55994666205513
 30
0.0
 10
8.052179972330729
 20
19.9586961195204
 30
0.0
 10
7.635263231065538
 20
20.19027960883247
 30
0.0
 10
7.175165812174479
 20
20.35447350396051
 30
0.0
 10
6.672096676296658
 20
20.45152957492405
 30
0.0
 10
6.672096676296658
 20
20.45152957492405
 30
0.0
 10
6.672096676296658
 20
20.09382117377388
 30
0.0
 10
6.672096676296658
 20
20.09382117377388
 30
0.0
 10
7.113568623860677
 20
20.00215484619141
 30
0.0
 10
7.518235948350694
 20
19.85493211534289
 30
0.0
 10
7.882221645779079
 20
19.65275146484376
 30
0.0
 10
8.536818610297308
 20
19.28895989312067
 30
0.0
 10
9.049610561794704
 20
18.76875132242839
 30
0.0
 10
9.40627712673611
 20
18.1065707397461
 30
0.0
 10
9.767318725585938
 20
17.43582149929471
 30
0.0
 10
9.950402153862846
 20
16.64269507514107
 30
0.0
 10
9.950402153862846
 20
15.74927941216363
 30
0.0
 10
9.950402153862846
 20
14.86046003553603
 30
0.0
 10
9.741402520073784
 20
14.05522321912978
 30
0.0
 10
9.329193962944878
 20
13.35593156602648
 30
0.0
 10
9.329193962944878
 20
13.35593156602648
 30
0.0
 10
8.72806888156467
 20
12.33609853108725
 30
0.0
 10
8.72806888156467
 20
12.33609853108725
 30
0.0
 10
8.72806888156467
 20
12.33609853108725
 30
0.0
 10
9.737193637424044
 20
12.8401404147678
 30
0.0
 10
9.737193637424044
 20
12.8401404147678
 30
0.0
 10
9.737193637424044
 20
12.8401404147678
 30
0.0
 10
10.24937438964844
 20
12.8401404147678
 30
0.0
 10
10.24937438964844
 20
12.8401404147678
 30
0.0
 10
10.24937438964844
 20
12.8401404147678
 30
0.0
 10
10.24937438964844
 20
11.43543155246311
 30
0.0
 10
10.24937438964844
 20
11.43543155246311
 30
0.0
 10
10.24937438964844
 20
11.43543155246311
 30
0.0
 10
6.837180667453342
 20
11.43543155246311
 30
0.0
 10
6.837180667453342
 20
11.43543155246311
 30
0.0
 10
6.837180667453342
 20
11.43543155246311
 30
0.0
 10
6.795416937934028
 20
11.42500132242839
 30
0.0
 10
6.795416937934028
 20
11.42500132242839
 30
0.0
 10
6.378361172146267
 20
11.32082109239367
 30
0.0
 10
5.94822269015842
 20
11.26800194634332
 30
0.0
 10
5.516958448621962
 20
11.26800194634332
 30
0.0
 10
4.658555772569444
 20
11.26800194634332
 30
0.0
 10
3.884555816650391
 20
11.46347381591798
 30
0.0
 10
3.216458426581489
 20
11.84898881700305
 30
0.0
 10
2.549555672539605
 20
12.23369679768881
 30
0.0
 10
2.020139058430989
 20
12.77058576795791
 30
0.0
 10
1.642861154344347
 20
13.44476654052735
 30
0.0
 10
1.26376395755344
 20
14.12173797607423
 30
0.0
 10
1.071569442749023
 20
14.89704383002388
 30
0.0
 10
1.071569442749023
 20
15.74926584879558
 30
0.0
 10
1.071569442749023
 20
16.64297481960721
 30
0.0
 10
1.254638883802626
 20
17.43608598497179
 30
0.0
 10
1.615708351135254
 20
18.10658515082466
 30
0.0
 10
1.972027884589301
 20
18.76843258327909
 30
0.0
 10
2.486569510565864
 20
19.28850212944879
 30
0.0
 10
3.145055558946397
 20
19.65236321343317
 30
0.0
 10
3.473791758219401
 20
19.83397416856554
 30
0.0
 10
3.83486090766059
 20
19.97129394531251
 30
0.0
 10
4.225458357069227
 20
20.06386308458117
 30
0.0
 10
4.225458357069227
 20
20.06386308458117
 30
0.0
 10
4.225458357069227
 20
20.42375179714627
 30
0.0
 10
4.225458357069227
 20
20.42375179714627
 30
0.0
 10
3.773791842990451
 20
20.3244187757704
 30
0.0
 10
3.357222239176432
 20
20.16941830105252
 30
0.0
 10
2.975777943929036
 20
19.9586961195204
 30
0.0
 10
2.25415293375651
 20
19.55996022542318
 30
0.0
 10
1.69806957244873
 20
18.997904425727
 30
0.0
 10
1.307555728488498
 20
18.27252956814237
 30
0.0
 10
0.916847440931532
 20
17.54698855929905
 30
0.0
 10
0.7215835253397623
 20
16.7059597100152
 30
0.0
 10
0.7215835253397623
 20
15.74926584879558
 30
0.0
 10
0.7215835253397623
 20
14.832377081977
 30
0.0
 10
0.9267501831054688
 20
14.00723771837023
 30
0.0
 10
1.337458504570855
 20
13.27384945339627
 30
0.0
 10
1.747986263699002
 20
12.54026621500652
 30
0.0
 10
2.316000196668837
 20
11.96439103868273
 30
0.0
 10
3.041555616590712
 20
11.54583567301433
 30
0.0
 10
3.766916910807292
 20
11.12728030734593
 30
0.0
 10
4.592069413926866
 20
10.91800262451173
 30
0.0
 10
5.516972011990017
 20
10.91800262451173
 30
0.0
 10
5.979249742296006
 20
10.91800262451173
 30
0.0
 10
6.433680216471354
 20
10.97387691921659
 30
0.0
 10
6.880249871148003
 20
11.08543392605252
 30
0.0
 10
6.880249871148003
 20
11.08543392605252
 30
0.0
 10
10.59937540690104
 20
11.08543392605252
 30
0.0
 10
10.59937540690104
 20
11.08543392605252
 30
0.0
 10
10.59937540690104
 20
11.08543392605252
 30
0.0
 10
10.59937540690104
 20
13.19014143202041
 30
0.0
 10
10.59937540690104
 20
13.19014143202041
 30
0.0
 10
10.59937540690104
 20
13.19014143202041
 30
0.0
 10
9.654638502332899
 20
13.19014143202041
 30
0.0
 10
9.654638502332899
 20
13.19014143202041
 30
0.0
 10
9.654638502332899
 20
13.19014143202041
 30
0.0
 10
9.654638502332899
 20
13.19012617323134
 30
0.0
 10
9.654638502332899
 20
13.19012617323134
 30
0.0
  0
SPLINE
  5
63
330
5E
100
AcDbEntity
  8
Layer 1
 62
     7
420
 16777215
370
    70
100
AcDbSpline
210
0.0
220
0.0
230
1.0
 70
    11
 71
     3
 72
    29
 73
    25
 74
     0
 42
0.0000000001
 43
0.0000000001
 12
1.0
 22
0.0
 32
0.0
 13
1.0
 23
0.0
 33
0.0
 40
0.0
 40
0.0
 40
0.0
 40
0.0
 40
1.0
 40
1.0
 40
1.0
 40
2.0
 40
2.0
 40
2.0
 40
3.0
 40
3.0
 40
3.0
 40
4.0
 40
4.0
 40
4.0
 40
5.0
 40
5.0
 40
5.0
 40
6.0
 40
6.0
 40
6.0
 40
7.0
 40
7.0
 40
7.0
 40
8.0
 40
8.0
 40
8.0
 40
8.0
 10
4.23500018649631
 20
13.65286251491971
 30
0.0
 10
4.427625020345052
 20
13.16759911431207
 30
0.0
 10
4.806430816650391
 20
12.58900109185113
 30
0.0
 10
5.516944885253906
 20
12.58900109185113
 30
0.0
 10
6.217319912380642
 20
12.58900109185113
 30
0.0
 10
6.5941530863444
 20
13.16754316541884
 30
0.0
 10
6.786944919162326
 20
13.65287607828777
 30
0.0
 10
7.025542365180121
 20
14.25397403293186
 30
0.0
 10
7.146500481499565
 20
14.97537567138673
 30
0.0
 10
7.146500481499565
 20
15.79711232503256
 30
0.0
 10
7.146500481499565
 20
16.58200069851346
 30
0.0
 10
7.028611501057942
 20
17.25944515652127
 30
0.0
 10
6.796111636691623
 20
17.81064008924697
 30
0.0
 10
6.454569922553168
 20
18.6200705295139
 30
0.0
 10
5.911972893608941
 20
18.78997375488282
 30
0.0
 10
5.51693132188585
 20
18.78997375488282
 30
0.0
 10
5.116445329454209
 20
18.78997375488282
 30
0.0
 10
4.567348056369357
 20
18.62008494059245
 30
0.0
 10
4.22582032945421
 20
17.81068247477214
 30
0.0
 10
3.993306477864583
 20
17.25946041531034
 30
0.0
 10
3.87541749742296
 20
16.58200239393447
 30
0.0
 10
3.87541749742296
 20
15.79711232503256
 30
0.0
 10
3.875430636935764
 20
14.97486195882162
 30
0.0
 10
3.996402740478516
 20
14.25341793484159
 30
0.0
 10
4.23500018649631
 20
13.65286251491971
 30
0.0
  0
SPLINE
  5
64
330
5E
100
AcDbEntity
  8
Layer 1
 62
     7
420
 16777215
370
    70
100
AcDbSpline
210
0.0
220
0.0
230
1.0
 70
    11
 71
     3
 72
    29
 73
    25
 74
     0
 42
0.0000000001
 43
0.0000000001
 12
1.0
 22
0.0
 32
0.0
 13
1.0
 23
0.0
 33
0.0
 40
0.0
 40
0.0
 40
0.0
 40
0.0
 40
1.0
 40
1.0
 40
1.0
 40
2.0
 40
2.0
 40
2.0
 40
3.0
 40
3.0
 40
3.0
 40
4.0
 40
4.0
 40
4.0
 40
5.0
 40
5.0
 40
5.0
 40
6.0
 40
6.0
 40
6.0
 40
7.0
 40
7.0
 40
7.0
 40
8.0
 40
8.0
 40
8.0
 40
8.0
 10
4.548305511474609
 20
17.6746130710178
 30
0.0
 10
4.763555314805772
 20
18.18472456190322
 30
0.0
 10
5.086444430881076
 20
18.43996002197266
 30
0.0
 10
5.516944461398654
 20
18.43996002197266
 30
0.0
 10
5.939430660671658
 20
18.43996002197266
 30
0.0
 10
6.258388943142361
 20
18.18472371419271
 30
0.0
 10
6.473638746473524
 20
17.6746130710178
 30
0.0
 10
6.688888549804688
 20
17.16432186550565
 30
0.0
 10
6.796513875325521
 20
16.53855723063152
 30
0.0
 10
6.796513875325521
 20
15.79711232503256
 30
0.0
 10
6.796513875325521
 20
15.01569617377388
 30
0.0
 10
6.684777577718099
 20
14.34415347629124
 30
0.0
 10
6.461680518256293
 20
13.78209767659506
 30
0.0
 10
6.238402896457248
 20
13.22002831353082
 30
0.0
 10
5.923555586073133
 20
12.93901397705079
 30
0.0
 10
5.516944461398654
 20
12.93901397705079
 30
0.0
 10
5.1023195054796
 20
12.93901397705079
 30
0.0
 10
4.783375210232204
 20
13.22002831353082
 30
0.0
 10
4.56026373969184
 20
13.78209767659506
 30
0.0
 10
4.336972130669488
 20
14.34415347629124
 30
0.0
 10
4.225430382622613
 20
15.01569447835287
 30
0.0
 10
4.225430382622613
 20
15.79711232503256
 30
0.0
 10
4.225430382622613
 20
16.53854366726346
 30
0.0
 10
4.333055708143446
 20
17.16430660671659
 30
0.0
 10
4.548305511474609
 20
17.6746130710178
 30
0.0
  0
ENDBLK
  5
61
330
5E
100
AcDbEntity
  8
0
100
AcDbBlockEnd
  0
BLOCK
  5
67
330
65
100
AcDbEntity
  8
0
100
AcDbBlockBegin
  2
block 5
 70
     0
 10
0.0
 20
0.0
 30
0.0
  3
block 5
  1

  0
SPLINE
  5
69
330
65
100
AcDbEntity
  8
Layer 1
 62
     7
420
 16777215
370
    70
100
AcDbSpline
210
0.0
220
0.0
230
1.0
 70
    11
 71
     3
 72
   110
 73
   106
 74
     0
 42
0.0000000001
 43
0.0000000001
 12
1.0
 22
0.0
 32
0.0
 13
1.0
 23
0.0
 33
0.0
 40
0.0
 40
0.0
 40
0.0
 40
0.0
 40
1.0
 40
1.0
 40
1.0
 40
2.0
 40
2.0
 40
2.0
 40
3.0
 40
3.0
 40
3.0
 40
4.0
 40
4.0
 40
4.0
 40
5.0
 40
5.0
 40
5.0
 40
6.0
 40
6.0
 40
6.0
 40
7.0
 40
7.0
 40
7.0
 40
8.0
 40
8.0
 40
8.0
 40
9.0
 40
9.0
 40
9.0
 40
10.0
 40
10.0
 40
10.0
 40
11.0
 40
11.0
 40
11.0
 40
12.0
 40
12.0
 40
12.0
 40
13.0
 40
13.0
 40
13.0
 40
14.0
 40
14.0
 40
14.0
 40
15.0
 40
15.0
 40
15.0
 40
16.0
 40
16.0
 40
16.0
 40
17.0
 40
17.0
 40
17.0
 40
18.0
 40
18.0
 40
18.0
 40
19.0
 40
19.0
 40
19.0
 40
20.0
 40
20.0
 40
20.0
 40
21.0
 40
21.0
 40
21.0
 40
22.0
 40
22.0
 40
22.0
 40
23.0
 40
23.0
 40
23.0
 40
24.0
 40
24.0
 40
24.0
 40
25.0
 40
25.0
 40
25.0
 40
26.0
 40
26.0
 40
26.0
 40
27.0
 40
27.0
 40
27.0
 40
28.0
 40
28.0
 40
28.0
 40
29.0
 40
29.0
 40
29.0
 40
30.0
 40
30.0
 40
30.0
 40
31.0
 40
31.0
 40
31.0
 40
32.0
 40
32.0
 40
32.0
 40
33.0
 40
33.0
 40
33.0
 40
34.0
 40
34.0
 40
34.0
 40
35.0
 40
35.0
 40
35.0
 40
35.0
 10
19.60536193847656
 20
13.24120920817058
 30
0.0
 10
19.60536193847656
 20
13.24120920817058
 30
0.0
 10
19.58143107096354
 20
13.22926496717666
 30
0.0
 10
19.58143107096354
 20
13.22926496717666
 30
0.0
 10
20.02783372667101
 20
13.98657053629558
 30
0.0
 10
20.25112575954861
 20
14.84366858588325
 30
0.0
 10
20.25112575954861
 20
15.80034888373481
 30
0.0
 10
20.25112575954861
 20
16.75704274495443
 30
0.0
 10
20.05568101671007
 20
17.59807159423829
 30
0.0
 10
19.66515435112847
 20
18.3236126030816
 30
0.0
 10
19.27444627549913
 20
19.04898746066624
 30
0.0
 10
18.72041829427083
 20
19.61102969699436
 30
0.0
 10
18.00290425618489
 20
20.00977915445964
 30
0.0
 10
17.58598836263021
 20
20.24136264377171
 30
0.0
 10
17.12589009602864
 20
20.40555653889975
 30
0.0
 10
16.62282138400608
 20
20.50261260986329
 30
0.0
 10
16.62282138400608
 20
20.50261260986329
 30
0.0
 10
16.62282138400608
 20
20.14490420871311
 30
0.0
 10
16.62282138400608
 20
20.14490420871311
 30
0.0
 10
17.06429375542535
 20
20.05323788113065
 30
0.0
 10
17.46896023220486
 20
19.90601515028212
 30
0.0
 10
17.83294677734375
 20
19.70383449978299
 30
0.0
 10
18.48754374186198
 20
19.3400429280599
 30
0.0
 10
19.00033569335938
 20
18.81983435736763
 30
0.0
 10
19.35700310601128
 20
18.15765377468534
 30
0.0
 10
19.71804470486111
 20
17.48690453423395
 30
0.0
 10
19.90112813313802
 20
16.6937781100803
 30
0.0
 10
19.90112813313802
 20
15.80036244710287
 30
0.0
 10
19.90112813313802
 20
14.91154307047527
 30
0.0
 10
19.69212849934896
 20
14.10630625406902
 30
0.0
 10
19.27991909450955
 20
13.40701460096572
 30
0.0
 10
19.27991909450955
 20
13.40701460096572
 30
0.0
 10
18.67879401312934
 20
12.38718156602648
 30
0.0
 10
18.67879401312934
 20
12.38718156602648
 30
0.0
 10
18.67879401312934
 20
12.38718156602648
 30
0.0
 10
19.68791876898871
 20
12.89122344970704
 30
0.0
 10
19.68791876898871
 20
12.89122344970704
 30
0.0
 10
19.68791876898871
 20
12.89122344970704
 30
0.0
 10
20.2000986735026
 20
12.89122344970704
 30
0.0
 10
20.2000986735026
 20
12.89122344970704
 30
0.0
 10
20.2000986735026
 20
12.89122344970704
 30
0.0
 10
20.2000986735026
 20
11.48651458740235
 30
0.0
 10
20.2000986735026
 20
11.48651458740235
 30
0.0
 10
20.2000986735026
 20
11.48651458740235
 30
0.0
 10
16.7879163953993
 20
11.48651458740235
 30
0.0
 10
16.7879163953993
 20
11.48651458740235
 30
0.0
 10
16.7879163953993
 20
11.48651458740235
 30
0.0
 10
16.74615308973524
 20
11.47608435736763
 30
0.0
 10
16.74615308973524
 20
11.47608435736763
 30
0.0
 10
16.32909817165799
 20
11.37190412733291
 30
0.0
 10
15.89895799424913
 20
11.31908498128256
 30
0.0
 10
15.46769544813368
 20
11.31908498128256
 30
0.0
 10
14.60929192437066
 20
11.31908498128256
 30
0.0
 10
13.83529239230686
 20
11.51455685085721
 30
0.0
 10
13.16719563802083
 20
11.90007185194228
 30
0.0
 10
12.5002933078342
 20
12.28477983262805
 30
0.0
 10
11.97087605794271
 20
12.82166880289714
 30
0.0
 10
11.59359825981988
 20
13.49584957546659
 30
0.0
 10
11.2145012749566
 20
14.17282101101346
 30
0.0
 10
11.02230665418837
 20
14.94814042833117
 30
0.0
 10
11.02230665418837
 20
15.80034888373481
 30
0.0
 10
11.02230665418837
 20
16.69405785454645
 30
0.0
 10
11.20537651909722
 20
17.48716901991103
 30
0.0
 10
11.56644524468316
 20
18.1576681857639
 30
0.0
 10
11.92276509602864
 20
18.81951561821832
 30
0.0
 10
12.43730672200521
 20
19.33958516438803
 30
0.0
 10
13.09579213460286
 20
19.7034462483724
 30
0.0
 10
13.42452833387587
 20
19.88505720350478
 30
0.0
 10
13.78559790717231
 20
20.02237698025174
 30
0.0
 10
14.17619493272569
 20
20.1149461195204
 30
0.0
 10
14.17619493272569
 20
20.1149461195204
 30
0.0
 10
14.17619493272569
 20
20.47483483208551
 30
0.0
 10
14.17619493272569
 20
20.47483483208551
 30
0.0
 10
13.72452799479167
 20
20.37550181070964
 30
0.0
 10
13.3079588148329
 20
20.22050133599176
 30
0.0
 10
12.9265145195855
 20
20.00977915445964
 30
0.0
 10
12.20488993326823
 20
19.61104326036242
 30
0.0
 10
11.64880625406901
 20
19.04898746066624
 30
0.0
 10
11.25829230414496
 20
18.3236126030816
 30
0.0
 10
10.86758422851562
 20
17.59807159423829
 30
0.0
 10
10.67232004801432
 20
16.75704274495443
 30
0.0
 10
10.67232004801432
 20
15.80034888373481
 30
0.0
 10
10.67232004801432
 20
14.88346011691624
 30
0.0
 10
10.87748633490668
 20
14.05832075330947
 30
0.0
 10
11.28819529215495
 20
13.32493248833551
 30
0.0
 10
11.69872283935547
 20
12.59134924994575
 30
0.0
 10
12.26673719618056
 20
12.01547407362197
 30
0.0
 10
12.99229261610243
 20
11.59691870795356
 30
0.0
 10
13.71765391031901
 20
11.17836334228516
 30
0.0
 10
14.54280598958333
 20
10.96908565945096
 30
0.0
 10
15.46772257486979
 20
10.96908565945096
 30
0.0
 10
15.93000115288628
 20
10.96908565945096
 30
0.0
 10
16.38443162706163
 20
11.02495995415582
 30
0.0
 10
16.83100043402778
 20
11.13651696099176
 30
0.0
 10
16.83100043402778
 20
11.13651696099176
 30
0.0
 10
20.55012512207031
 20
11.13651696099176
 30
0.0
 10
20.55012512207031
 20
11.13651696099176
 30
0.0
 10
20.55012512207031
 20
11.13651696099176
 30
0.0
 10
20.55012512207031
 20
13.24122446695964
 30
0.0
 10
20.55012512207031
 20
13.24122446695964
 30
0.0
 10
20.55012512207031
 20
13.24122446695964
 30
0.0
 10
19.60536193847656
 20
13.24122446695964
 30
0.0
 10
19.60536193847656
 20
13.24122446695964
 30
0.0
 10
19.60536193847656
 20
13.24122446695964
 30
0.0
 10
19.60536193847656
 20
13.24120920817058
 30
0.0
 10
19.60536193847656
 20
13.24120920817058
 30
0.0
  0
SPLINE
  5
6A
330
65
100
AcDbEntity
  8
Layer 1
 62
     7
420
 16777215
370
    70
100
AcDbSpline
210
0.0
220
0.0
230
1.0
 70
    11
 71
     3
 72
    29
 73
    25
 74
     0
 42
0.0000000001
 43
0.0000000001
 12
1.0
 22
0.0
 32
0.0
 13
1.0
 23
0.0
 33
0.0
 40
0.0
 40
0.0
 40
0.0
 40
0.0
 40
1.0
 40
1.0
 40
1.0
 40
2.0
 40
2.0
 40
2.0
 40
3.0
 40
3.0
 40
3.0
 40
4.0
 40
4.0
 40
4.0
 40
5.0
 40
5.0
 40
5.0
 40
6.0
 40
6.0
 40
6.0
 40
7.0
 40
7.0
 40
7.0
 40
8.0
 40
8.0
 40
8.0
 40
8.0
 10
14.18573591444227
 20
13.70394554985895
 30
0.0
 10
14.37836032443576
 20
13.21868214925131
 30
0.0
 10
14.75716654459635
 20
12.64008412679037
 30
0.0
 10
15.46768018934462
 20
12.64008412679037
 30
0.0
 10
16.16805521647135
 20
12.64008412679037
 30
0.0
 10
16.54488796657986
 20
13.21862620035808
 30
0.0
 10
16.73768107096354
 20
13.703959113227
 30
0.0
 10
16.97627766927083
 20
14.3050570678711
 30
0.0
 10
17.09723578559028
 20
15.02645870632596
 30
0.0
 10
17.09723578559028
 20
15.8481953599718
 30
0.0
 10
17.09723578559028
 20
16.6330837334527
 30
0.0
 10
16.9793463812934
 20
17.31052819146051
 30
0.0
 10
16.74684651692708
 20
17.8617231241862
 30
0.0
 10
16.40530565049913
 20
18.67115356445313
 30
0.0
 10
15.86270819769965
 20
18.84105678982205
 30
0.0
 10
15.46766662597656
 20
18.84105678982205
 30
0.0
 10
15.06718105740017
 20
18.84105678982205
 30
0.0
 10
14.51808336046007
 20
18.67116797553169
 30
0.0
 10
14.17655520968967
 20
17.86176550971138
 30
0.0
 10
13.94404093424479
 20
17.31054345024957
 30
0.0
 10
13.82615237765842
 20
16.63308542887371
 30
0.0
 10
13.82615237765842
 20
15.8481953599718
 30
0.0
 10
13.82616678873698
 20
15.02594668918186
 30
0.0
 10
13.94713846842448
 20
14.30450096978082
 30
0.0
 10
14.18573591444227
 20
13.70394554985895
 30
0.0
  0
SPLINE
  5
6B
330
65
100
AcDbEntity
  8
Layer 1
 62
     7
420
 16777215
370
    70
100
AcDbSpline
210
0.0
220
0.0
230
1.0
 70
    11
 71
     3
 72
    29
 73
    25
 74
     0
 42
0.0000000001
 43
0.0000000001
 12
1.0
 22
0.0
 32
0.0
 13
1.0
 23
0.0
 33
0.0
 40
0.0
 40
0.0
 40
0.0
 40
0.0
 40
1.0
 40
1.0
 40
1.0
 40
2.0
 40
2.0
 40
2.0
 40
3.0
 40
3.0
 40
3.0
 40
4.0
 40
4.0
 40
4.0
 40
5.0
 40
5.0
 40
5.0
 40
6.0
 40
6.0
 40
6.0
 40
7.0
 40
7.0
 40
7.0
 40
8.0
 40
8.0
 40
8.0
 40
8.0
 10
14.49904208713108
 20
17.72569610595704
 30
0.0
 10
14.71429273817274
 20
18.23580759684245
 30
0.0
 10
15.03718058268229
 20
18.4910430569119
 30
0.0
 10
15.46768018934462
 20
18.4910430569119
 30
0.0
 10
15.89016554090712
 20
18.4910430569119
 30
0.0
 10
16.20912509494358
 20
18.23580674913195
 30
0.0
 10
16.42437405056424
 20
17.72569610595704
 30
0.0
 10
16.6396247016059
 20
17.21540490044488
 30
0.0
 10
16.74724833170573
 20
16.58964026557075
 30
0.0
 10
16.74724833170573
 20
15.8481953599718
 30
0.0
 10
16.74724833170573
 20
15.06677920871311
 30
0.0
 10
16.63551161024305
 20
14.39523651123048
 30
0.0
 10
16.41241455078125
 20
13.8331807115343
 30
0.0
 10
16.1891360812717
 20
13.27111134847006
 30
0.0
 10
15.87428961859809
 20
12.99009701199002
 30
0.0
 10
15.46767849392361
 20
12.99009701199002
 30
0.0
 10
15.05305311414931
 20
12.99009701199002
 30
0.0
 10
14.73410881890191
 20
13.27111134847006
 30
0.0
 10
14.51099819607205
 20
13.8331807115343
 30
0.0
 10
14.28770616319444
 20
14.39523651123048
 30
0.0
 10
14.17616526285807
 20
15.06677751329211
 30
0.0
 10
14.17616526285807
 20
15.8481953599718
 30
0.0
 10
14.17616695827908
 20
16.5896267022027
 30
0.0
 10
14.28379143608941
 20
17.21538964165582
 30
0.0
 10
14.49904208713108
 20
17.72569610595704
 30
0.0
  0
ENDBLK
  5
68
330
65
100
AcDbEntity
  8
0
100
AcDbBlockEnd
  0
ENDSEC
  0
SECTION
  2
ENTITIES
  0
POLYLINE
  5
41
330
1F
100
AcDbEntity
  8
Layer 1
 62
     7
420
 16777215
370
    70
100
AcDb2dPolyline
 66
     1
 10
0.0
 20
0.0
 30
0.0
  0
VERTEX
  5
42
330
41
100
AcDbEntity
  8
Layer 1
 62
     7
420
 16777215
370
    70
100
AcDbVertex
100
AcDb2dVertex
 10
11.87851376003689
 20
23.86770965576173
 30
0.0
  0
VERTEX
  5
43
330
41
100
AcDbEntity
  8
Layer 1
 62
     7
420
 16777215
370
    70
100
AcDbVertex
100
AcDb2dVertex
 10
11.87851376003689
 20
22.11065416124132
 30
0.0
  0
VERTEX
  5
44
330
41
100
AcDbEntity
  8
Layer 1
 62
     7
420
 16777215
370
    70
100
AcDbVertex
100
AcDb2dVertex
 10
20.55009629991319
 20
22.11065416124132
 30
0.0
  0
VERTEX
  5
45
330
41
100
AcDbEntity
  8
Layer 1
 62
     7
420
 16777215
370
    70
100
AcDbVertex
100
AcDb2dVertex
 10
20.55009629991319
 20
23.86770965576173
 30
0.0
  0
VERTEX
  5
46
330
41
100
AcDbEntity
  8
Layer 1
 62
     7
420
 16777215
370
    70
100
AcDbVertex
100
AcDb2dVertex
 10
11.87851376003689
 20
23.86770965576173
 30
0.0
  0
SEQEND
  5
47
330
41
100
AcDbEntity
  8
Layer 1
 62
     7
420
 16777215
370
    70
  0
POLYLINE
  5
48
330
1F
100
AcDbEntity
  8
Layer 1
 62
     7
420
 16777215
370
    70
100
AcDb2dPolyline
 66
     1
 10
0.0
 20
0.0
 30
0.0
  0
VERTEX
  5
49
330
48
100
AcDbEntity
  8
Layer 1
 62
     7
420
 16777215
370
    70
100
AcDbVertex
100
AcDb2dVertex
 10
16.90574985080295
 20
23.29034844292535
 30
0.0
  0
VERTEX
  5
4A
330
48
100
AcDbEntity
  8
Layer 1
 62
     7
420
 16777215
370
    70
100
AcDbVertex
100
AcDb2dVertex
 10
13.29675038655599
 20
23.29034844292535
 30
0.0
  0
VERTEX
  5
4B
330
48
100
AcDbEntity
  8
Layer 1
 62
     7
420
 16777215
370
    70
100
AcDbVertex
100
AcDb2dVertex
 10
13.29675038655599
 20
23.50034837510851
 30
0.0
  0
VERTEX
  5
4C
330
48
100
AcDbEntity
  8
Layer 1
 62
     7
420
 16777215
370
    70
100
AcDbVertex
100
AcDb2dVertex
 10
16.90572272406684
 20
23.50034837510851
 30
0.0
  0
VERTEX
  5
4D
330
48
100
AcDbEntity
  8
Layer 1
 62
     7
420
 16777215
370
    70
100
AcDbVertex
100
AcDb2dVertex
 10
16.90574985080295
 20
23.29034844292535
 30
0.0
  0
VERTEX
  5
4E
330
48
100
AcDbEntity
  8
Layer 1
 62
     7
420
 16777215
370
    70
100
AcDbVertex
100
AcDb2dVertex
 10
16.90574985080295
 20
23.29034844292535
 30
0.0
  0
SEQEND
  5
4F
330
48
100
AcDbEntity
  8
Layer 1
 62
     7
420
 16777215
370
    70
  0
INSERT
  5
51
330
1F
100
AcDbEntity
  8
Layer 1
100
AcDbBlockReference
  2
block 2
 10
0.0
 20
0.0
 30
0.0
  0
INSERT
  5
59
330
1F
100
AcDbEntity
  8
Layer 1
100
AcDbBlockReference
  2
block 3
 10
0.0
 20
0.0
 30
0.0
  0
INSERT
  5
5F
330
1F
100
AcDbEntity
  8
Layer 1
100
AcDbBlockReference
  2
block 4
 10
0.0
 20
0.0
 30
0.0
  0
INSERT
  5
66
330
1F
100
AcDbEntity
  8
Layer 1
100
AcDbBlockReference
  2
block 5
 10
0.0
 20
0.0
 30
0.0
  0
SPLINE
  5
6C
330
1F
100
AcDbEntity
  8
Layer 1
 62
     7
420
 16777215
370
    70
100
AcDbSpline
210
0.0
220
0.0
230
1.0
 70
    11
 71
     3
 72
    62
 73
    58
 74
     0
 42
0.0000000001
 43
0.0000000001
 12
1.0
 22
0.0
 32
0.0
 13
1.0
 23
0.0
 33
0.0
 40
0.0
 40
0.0
 40
0.0
 40
0.0
 40
1.0
 40
1.0
 40
1.0
 40
2.0
 40
2.0
 40
2.0
 40
3.0
 40
3.0
 40
3.0
 40
4.0
 40
4.0
 40
4.0
 40
5.0
 40
5.0
 40
5.0
 40
6.0
 40
6.0
 40
6.0
 40
7.0
 40
7.0
 40
7.0
 40
8.0
 40
8.0
 40
8.0
 40
9.0
 40
9.0
 40
9.0
 40
10.0
 40
10.0
 40
10.0
 40
11.0
 40
11.0
 40
11.0
 40
12.0
 40
12.0
 40
12.0
 40
13.0
 40
13.0
 40
13.0
 40
14.0
 40
14.0
 40
14.0
 40
15.0
 40
15.0
 40
15.0
 40
16.0
 40
16.0
 40
16.0
 40
17.0
 40
17.0
 40
17.0
 40
18.0
 40
18.0
 40
18.0
 40
19.0
 40
19.0
 40
19.0
 40
19.0
 10
10.59936099582248
 20
24.31595947265626
 30
0.0
 10
10.59936099582248
 20
24.31595947265626
 30
0.0
 10
9.654624938964844
 20
24.31595947265626
 30
0.0
 10
9.654624938964844
 20
24.31595947265626
 30
0.0
 10
9.654624938964844
 20
24.31595947265626
 30
0.0
 10
9.630694071451822
 20
24.30401523166233
 30
0.0
 10
9.630694071451822
 20
24.30401523166233
 30
0.0
 10
10.07709672715929
 20
25.06132080078126
 30
0.0
 10
10.30038876003689
 20
25.91841800265843
 30
0.0
 10
10.30038876003689
 20
26.87509830050999
 30
0.0
 10
10.30038876003689
 20
27.83179300944011
 30
0.0
 10
10.10494401719835
 20
28.67282058715821
 30
0.0
 10
9.71441650390625
 20
29.3983622317844
 30
0.0
 10
9.323708428276909
 20
30.12373730129666
 30
0.0
 10
8.76968044704861
 20
30.68577890184191
 30
0.0
 10
8.052166408962673
 20
31.08452888912625
 30
0.0
 10
7.334652370876736
 20
31.48308443281386
 30
0.0
 10
6.489513821072048
 20
31.68245942645603
 30
0.0
 10
5.516944037543403
 20
31.68245942645603
 30
0.0
 10
4.544194115532769
 20
31.68245942645603
 30
0.0
 10
3.697193993462456
 20
31.48309831407336
 30
0.0
 10
2.97574954562717
 20
31.08452888912625
 30
0.0
 10
2.254124535454644
 20
30.68579278310141
 30
0.0
 10
1.698041174146864
 20
30.12373730129666
 30
0.0
 10
1.307527330186632
 20
29.3983622317844
 30
0.0
 10
0.9168190426296657
 20
28.67282058715821
 30
0.0
 10
0.721555127037896
 20
27.83179300944011
 30
0.0
 10
0.721555127037896
 20
26.87509830050999
 30
0.0
 10
0.721555127037896
 20
25.95820953369141
 30
0.0
 10
0.9267217848036023
 20
25.13307017008464
 30
0.0
 10
1.337430106268989
 20
24.39968190511068
 30
0.0
 10
1.747957865397135
 20
23.66609866672093
 30
0.0
 10
2.315971798366971
 20
23.09022349039714
 30
0.0
 10
3.041527218288846
 20
22.67166812472874
 30
0.0
 10
3.369832780626085
 20
22.48222347683377
 30
0.0
 10
3.718652089436849
 20
22.33580691867405
 30
0.0
 10
4.08784654405382
 20
22.23211242675782
 30
0.0
 10
4.08784654405382
 20
22.23211242675782
 30
0.0
 10
3.591915978325738
 20
22.23211242675782
 30
0.0
 10
3.591915978325738
 20
22.23211242675782
 30
0.0
 10
3.591915978325738
 20
22.23211242675782
 30
0.0
 10
3.591915978325738
 20
21.82802917480469
 30
0.0
 10
3.591915978325738
 20
21.82802917480469
 30
0.0
 10
3.591915978325738
 20
21.82802917480469
 30
0.0
 10
7.177819146050346
 20
21.82802917480469
 30
0.0
 10
7.177819146050346
 20
21.82802917480469
 30
0.0
 10
7.177819146050346
 20
21.82802917480469
 30
0.0
 10
7.177819146050346
 20
22.21125111897787
 30
0.0
 10
7.177819146050346
 20
22.21125111897787
 30
0.0
 10
7.177819146050346
 20
22.21125111897787
 30
0.0
 10
10.59937455919054
 20
22.21125111897787
 30
0.0
 10
10.59937455919054
 20
22.21125111897787
 30
0.0
 10
10.59937455919054
 20
22.21125111897787
 30
0.0
 10
10.59937455919054
 20
24.31595947265626
 30
0.0
 10
10.59937455919054
 20
24.31595947265626
 30
0.0
 10
10.59937455919054
 20
24.31595947265626
 30
0.0
 10
10.59936099582248
 20
24.31595947265626
 30
0.0
 10
10.59936099582248
 20
24.31595947265626
 30
0.0
  0
SPLINE
  5
6D
330
1F
100
AcDbEntity
  8
Layer 1
 62
     7
420
 16777215
370
    70
100
AcDbSpline
210
0.0
220
0.0
230
1.0
 70
    11
 71
     3
 72
    29
 73
    25
 74
     0
 42
0.0000000001
 43
0.0000000001
 12
1.0
 22
0.0
 32
0.0
 13
1.0
 23
0.0
 33
0.0
 40
0.0
 40
0.0
 40
0.0
 40
0.0
 40
1.0
 40
1.0
 40
1.0
 40
2.0
 40
2.0
 40
2.0
 40
3.0
 40
3.0
 40
3.0
 40
4.0
 40
4.0
 40
4.0
 40
5.0
 40
5.0
 40
5.0
 40
6.0
 40
6.0
 40
6.0
 40
7.0
 40
7.0
 40
7.0
 40
8.0
 40
8.0
 40
8.0
 40
8.0
 10
4.548319498697916
 20
28.80043195936415
 30
0.0
 10
4.763569302029079
 20
29.31054302639432
 30
0.0
 10
5.086458418104383
 20
29.56577912224664
 30
0.0
 10
5.516958448621962
 20
29.56577912224664
 30
0.0
 10
5.939444647894965
 20
29.56577912224664
 30
0.0
 10
6.258402930365668
 20
29.31054302639432
 30
0.0
 10
6.473653157552083
 20
28.80043195936415
 30
0.0
 10
6.688902960883246
 20
28.29014032999675
 30
0.0
 10
6.796528286404079
 20
27.66437654283312
 30
0.0
 10
6.796528286404079
 20
26.92293206108942
 30
0.0
 10
6.796528286404079
 20
26.14151548597548
 30
0.0
 10
6.684791988796658
 20
25.46997363620335
 30
0.0
 10
6.461694929334852
 20
24.90791826036242
 30
0.0
 10
6.238417307535807
 20
24.34584889729818
 30
0.0
 10
5.923569997151692
 20
24.06483456081815
 30
0.0
 10
5.516958872477213
 20
24.06483456081815
 30
0.0
 10
5.10233391655816
 20
24.06483456081815
 30
0.0
 10
4.783389621310763
 20
24.34584804958768
 30
0.0
 10
4.560278150770399
 20
24.90791826036242
 30
0.0
 10
4.336986541748047
 20
25.46997363620335
 30
0.0
 10
4.225444793701172
 20
26.14151548597548
 30
0.0
 10
4.225444793701172
 20
26.92293206108942
 30
0.0
 10
4.22544436984592
 20
27.66437654283312
 30
0.0
 10
4.333069271511501
 20
28.29014032999675
 30
0.0
 10
4.548319498697916
 20
28.80043195936415
 30
0.0
  0
ENDSEC
  0
SECTION
  2
OBJECTS
  0
DICTIONARY
  5
C
330
0
100
AcDbDictionary
281
     1
  3
ACAD_GROUP
350
D
  3
ACAD_LAYOUT
350
1A
  3
ACAD_MATERIAL
350
3B
  3
ACAD_MLEADERSTYLE
350
6F
  3
ACAD_MLINESTYLE
350
17
  3
ACAD_PLOTSETTINGS
350
19
  3
ACAD_PLOTSTYLENAME
350
E
  3
ACAD_TABLESTYLE
350
6E
  3
ACAD_VISUALSTYLE
350
2A
  0
SUN
  5
3F
330
29
100
AcDbSun
 90
        1
290
     0
 63
     7
421
 16777215
 40
1.0
291
     1
 91
  2455826
 92
 54000000
292
     0
 70
     2
 71
   256
280
     1
  0
DICTIONARY
  5
D
102
{ACAD_REACTORS
330
C
102
}
330
C
100
AcDbDictionary
281
     1
  0
DICTIONARY
  5
1A
102
{ACAD_REACTORS
330
C
102
}
330
C
100
AcDbDictionary
281
     1
  3
Layout1
350
1E
  3
Layout2
350
26
  3
Model
350
22
  0
DICTIONARY
  5
3B
102
{ACAD_REACTORS
330
C
102
}
330
C
100
AcDbDictionary
281
     1
  3
ByBlock
350
3D
  3
ByLayer
350
3C
  3
Global
350
3E
  0
DICTIONARY
  5
6F
102
{ACAD_REACTORS
330
C
102
}
330
C
100
AcDbDictionary
281
     1
  0
DICTIONARY
  5
17
102
{ACAD_REACTORS
330
C
102
}
330
C
100
AcDbDictionary
281
     1
  3
Standard
350
18
  0
DICTIONARY
  5
19
102
{ACAD_REACTORS
330
C
102
}
330
C
100
AcDbDictionary
281
     1
  0
ACDBDICTIONARYWDFLT
  5
E
102
{ACAD_REACTORS
330
C
102
}
330
C
100
AcDbDictionary
281
     1
  3
Normal
350
F
100
AcDbDictionaryWithDefault
340
F
  0
DICTIONARY
  5
6E
102
{ACAD_REACTORS
330
C
102
}
330
C
100
AcDbDictionary
281
     1
  0
DICTIONARY
  5
2A
102
{ACAD_REACTORS
330
C
102
}
330
C
100
AcDbDictionary
281
     1
  3
2dWireframe
350
2F
  3
3D Hidden
350
31
  3
3dWireframe
350
30
  3
Basic
350
32
  3
Brighten
350
36
  3
ColorChange
350
3A
  3
Conceptual
350
34
  3
Dim
350
35
  3
Facepattern
350
39
  3
Flat
350
2B
  3
FlatWithEdges
350
2C
  3
Gouraud
350
2D
  3
GouraudWithEdges
350
2E
  3
Linepattern
350
38
  3
Realistic
350
33
  3
Thicken
350
37
  0
LAYOUT
  5
1E
102
{ACAD_REACTORS
330
1A
102
}
330
1A
100
AcDbPlotSettings
  1

  2
none_device
  4

  6

 40
0.0
 41
0.0
 42
0.0
 43
0.0
 44
0.0
 45
0.0
 46
0.0
 47
0.0
 48
0.0
 49
0.0
140
0.0
141
0.0
142
1.0
143
1.0
 70
   688
 72
     0
 73
     0
 74
     5
  7

 75
    16
 76
     0
 77
     2
 78
   300
147
1.0
148
0.0
149
0.0
100
AcDbLayout
  1
Layout1
 70
     1
 71
     1
 10
0.0
 20
0.0
 11
12.0
 21
9.0
 12
0.0
 22
0.0
 32
0.0
 14
1.000000000000000E+20
 24
1.000000000000000E+20
 34
1.000000000000000E+20
 15
-1.000000000000000E+20
 25
-1.000000000000000E+20
 35
-1.000000000000000E+20
146
0.0
 13
0.0
 23
0.0
 33
0.0
 16
1.0
 26
0.0
 36
0.0
 17
0.0
 27
1.0
 37
0.0
 76
     0
330
1B
  0
LAYOUT
  5
26
102
{ACAD_REACTORS
330
1A
102
}
330
1A
100
AcDbPlotSettings
  1

  2
none_device
  4

  6

 40
0.0
 41
0.0
 42
0.0
 43
0.0
 44
0.0
 45
0.0
 46
0.0
 47
0.0
 48
0.0
 49
0.0
140
0.0
141
0.0
142
1.0
143
1.0
 70
   688
 72
     0
 73
     0
 74
     5
  7

 75
    16
 76
     0
 77
     2
 78
   300
147
1.0
148
0.0
149
0.0
100
AcDbLayout
  1
Layout2
 70
     1
 71
     2
 10
0.0
 20
0.0
 11
0.0
 21
0.0
 12
0.0
 22
0.0
 32
0.0
 14
0.0
 24
0.0
 34
0.0
 15
0.0
 25
0.0
 35
0.0
146
0.0
 13
0.0
 23
0.0
 33
0.0
 16
1.0
 26
0.0
 36
0.0
 17
0.0
 27
1.0
 37
0.0
 76
     0
330
23
  0
LAYOUT
  5
22
102
{ACAD_REACTORS
330
1A
102
}
330
1A
100
AcDbPlotSettings
  1

  2
none_device
  4

  6

 40
0.0
 41
0.0
 42
0.0
 43
0.0
 44
0.0
 45
0.0
 46
0.0
 47
0.0
 48
0.0
 49
0.0
140
0.0
141
0.0
142
1.0
143
1.0
 70
  1712
 72
     0
 73
     0
 74
     0
  7

 75
     0
 76
     0
 77
     2
 78
   300
147
1.0
148
0.0
149
0.0
100
AcDbLayout
  1
Model
 70
     1
 71
     0
 10
0.0
 20
0.0
 11
12.0
 21
9.0
 12
0.0
 22
0.0
 32
0.0
 14
1.000000000000000E+20
 24
1.000000000000000E+20
 34
1.000000000000000E+20
 15
-1.000000000000000E+20
 25
-1.000000000000000E+20
 35
-1.000000000000000E+20
146
0.0
 13
0.0
 23
0.0
 33
0.0
 16
1.0
 26
0.0
 36
0.0
 17
0.0
 27
1.0
 37
0.0
 76
     0
330
1F
331
29
  0
MATERIAL
  5
3D
102
{ACAD_REACTORS
330
3B
102
}
330
3B
100
AcDbMaterial
  1
ByBlock
 72
     1
 94
      127
  0
MATERIAL
  5
3C
102
{ACAD_REACTORS
330
3B
102
}
330
3B
100
AcDbMaterial
  1
ByLayer
 72
     1
 94
      127
  0
MATERIAL
  5
3E
102
{ACAD_REACTORS
330
3B
102
}
330
3B
100
AcDbMaterial
  1
Global
 72
     1
 94
      127
  0
MLINESTYLE
  5
18
102
{ACAD_REACTORS
330
17
102
}
330
17
100
AcDbMlineStyle
  2
Standard
 70
     0
  3

 62
   256
 51
90.0
 52
90.0
 71
     2
 49
0.5
 62
   256
  6
BYLAYER
 49
-0.5
 62
   256
  6
BYLAYER
  0
ACDBPLACEHOLDER
  5
F
102
{ACAD_REACTORS
330
E
102
}
330
E
  0
VISUALSTYLE
  5
2F
102
{ACAD_REACTORS
330
2A
102
}
330
2A
100
AcDbVisualStyle
  2
2dWireframe
 70
     4
177
     2
291
     0
 71
     0
176
     1
 72
     2
176
     1
 73
     0
176
     1
 90
        0
176
     1
 40
-0.6
176
     1
 41
-30.0
176
     1
 62
     5
 63
     7
421
 16777215
176
     1
 74
     1
176
     1
 91
        4
176
     1
 64
     7
176
     1
 65
   257
176
     1
 75
     1
176
     1
175
     1
176
     1
 42
1.0
176
     1
 92
        0
176
     1
 66
   257
176
     1
 43
1.0
176
     1
 76
     1
176
     1
 77
     6
176
     1
 78
     2
176
     1
 67
     7
176
     1
 79
     5
176
     1
170
     0
176
     1
171
     0
176
     1
290
     0
176
     1
 93
        1
176
     1
 44
0.0
176
     1
173
     0
176
     1
  0
VISUALSTYLE
  5
31
102
{ACAD_REACTORS
330
2A
102
}
330
2A
100
AcDbVisualStyle
  2
3D Hidden
 70
     6
177
     2
291
     0
 71
     1
176
     1
 72
     2
176
     1
 73
     2
176
     1
 90
        0
176
     1
 40
-0.6
176
     1
 41
-30.0
176
     1
 62
     5
 63
     7
421
 16777215
176
     1
 74
     2
176
     1
 91
        2
176
     1
 64
     7
176
     1
 65
   257
176
     1
 75
     2
176
     1
175
     1
176
     1
 42
40.0
176
     1
 92
        0
176
     1
 66
   257
176
     1
 43
1.0
176
     1
 76
     1
176
     1
 77
     6
176
     1
 78
     2
176
     1
 67
     7
176
     1
 79
     3
176
     1
170
     0
176
     1
171
     0
176
     1
290
     0
176
     1
 93
        1
176
     1
 44
0.0
176
     1
173
     0
176
     1
  0
VISUALSTYLE
  5
30
102
{ACAD_REACTORS
330
2A
102
}
330
2A
100
AcDbVisualStyle
  2
3dWireframe
 70
     5
177
     2
291
     0
 71
     0
176
     1
 72
     2
176
     1
 73
     0
176
     1
 90
        0
176
     1
 40
-0.6
176
     1
 41
-30.0
176
     1
 62
     5
 63
     7
421
 16777215
176
     1
 74
     1
176
     1
 91
        4
176
     1
 64
     7
176
     1
 65
   257
176
     1
 75
     1
176
     1
175
     1
176
     1
 42
1.0
176
     1
 92
        0
176
     1
 66
   257
176
     1
 43
1.0
176
     1
 76
     1
176
     1
 77
     6
176
     1
 78
     2
176
     1
 67
     7
176
     1
 79
     5
176
     1
170
     0
176
     1
171
     0
176
     1
290
     0
176
     1
 93
        1
176
     1
 44
0.0
176
     1
173
     0
176
     1
  0
VISUALSTYLE
  5
32
102
{ACAD_REACTORS
330
2A
102
}
330
2A
100
AcDbVisualStyle
  2
Basic
 70
     7
177
     2
291
     1
 71
     1
176
     1
 72
     0
176
     1
 73
     1
176
     1
 90
        0
176
     1
 40
-0.6
176
     1
 41
-30.0
176
     1
 62
     5
 63
     7
421
 16777215
176
     1
 74
     0
176
     1
 91
        4
176
     1
 64
     7
176
     1
 65
   257
176
     1
 75
     1
176
     1
175
     1
176
     1
 42
1.0
176
     1
 92
        8
176
     1
 66
     7
176
     1
 43
1.0
176
     1
 76
     1
176
     1
 77
     6
176
     1
 78
     2
176
     1
 67
     7
176
     1
 79
     5
176
     1
170
     0
176
     1
171
     0
176
     1
290
     0
176
     1
 93
        1
176
     1
 44
0.0
176
     1
173
     0
176
     1
  0
VISUALSTYLE
  5
36
102
{ACAD_REACTORS
330
2A
102
}
330
2A
100
AcDbVisualStyle
  2
Brighten
 70
    12
177
     2
291
     1
 71
     2
176
     1
 72
     2
176
     1
 73
     0
176
     1
 90
        0
176
     1
 40
-0.6
176
     1
 41
-30.0
176
     1
 62
     5
 63
     7
421
 16777215
176
     1
 74
     1
176
     1
 91
        4
176
     1
 64
     7
176
     1
 65
   257
176
     1
 75
     1
176
     1
175
     1
176
     1
 42
1.0
176
     1
 92
        8
176
     1
 66
     7
176
     1
 43
1.0
176
     1
 76
     1
176
     1
 77
     6
176
     1
 78
     2
176
     1
 67
     7
176
     1
 79
     5
176
     1
170
     0
176
     1
171
     0
176
     1
290
     0
176
     1
 93
        1
176
     1
 44
50.0
176
     1
173
     0
176
     1
  0
VISUALSTYLE
  5
3A
102
{ACAD_REACTORS
330
2A
102
}
330
2A
100
AcDbVisualStyle
  2
ColorChange
 70
    16
177
     2
291
     1
 71
     2
176
     1
 72
     2
176
     1
 73
     3
176
     1
 90
        0
176
     1
 40
-0.6
176
     1
 41
-30.0
176
     1
 62
     5
 63
     8
421
  8421504
176
     1
 74
     1
176
     1
 91
        4
176
     1
 64
     7
176
     1
 65
   257
176
     1
 75
     1
176
     1
175
     1
176
     1
 42
1.0
176
     1
 92
        8
176
     1
 66
     8
424
  8421504
176
     1
 43
1.0
176
     1
 76
     1
176
     1
 77
     6
176
     1
 78
     2
176
     1
 67
     7
176
     1
 79
     5
176
     1
170
     0
176
     1
171
     0
176
     1
290
     0
176
     1
 93
        1
176
     1
 44
0.0
176
     1
173
     0
176
     1
  0
VISUALSTYLE
  5
34
102
{ACAD_REACTORS
330
2A
102
}
330
2A
100
AcDbVisualStyle
  2
Conceptual
 70
     9
177
     2
291
     0
 71
     3
176
     1
 72
     2
176
     1
 73
     0
176
     1
 90
        0
176
     1
 40
-0.6
176
     1
 41
-30.0
176
     1
 62
     5
 63
     7
421
 16777215
176
     1
 74
     2
176
     1
 91
        2
176
     1
 64
     7
176
     1
 65
   257
176
     1
 75
     1
176
     1
175
     1
176
     1
 42
40.0
176
     1
 92
        8
176
     1
 66
     7
176
     1
 43
1.0
176
     1
 76
     1
176
     1
 77
     6
176
     1
 78
     2
176
     1
 67
     7
176
     1
 79
     3
176
     1
170
     0
176
     1
171
     0
176
     1
290
     0
176
     1
 93
        1
176
     1
 44
0.0
176
     1
173
     0
176
     1
  0
VISUALSTYLE
  5
35
102
{ACAD_REACTORS
330
2A
102
}
330
2A
100
AcDbVisualStyle
  2
Dim
 70
    11
177
     2
291
     1
 71
     2
176
     1
 72
     2
176
     1
 73
     0
176
     1
 90
        0
176
     1
 40
-0.6
176
     1
 41
-30.0
176
     1
 62
     5
 63
     7
421
 16777215
176
     1
 74
     1
176
     1
 91
        4
176
     1
 64
     7
176
     1
 65
   257
176
     1
 75
     1
176
     1
175
     1
176
     1
 42
1.0
176
     1
 92
        8
176
     1
 66
     7
176
     1
 43
1.0
176
     1
 76
     1
176
     1
 77
     6
176
     1
 78
     2
176
     1
 67
     7
176
     1
 79
     5
176
     1
170
     0
176
     1
171
     0
176
     1
290
     0
176
     1
 93
        1
176
     1
 44
-50.0
176
     1
173
     0
176
     1
  0
VISUALSTYLE
  5
39
102
{ACAD_REACTORS
330
2A
102
}
330
2A
100
AcDbVisualStyle
  2
Facepattern
 70
    15
177
     2
291
     1
 71
     2
176
     1
 72
     2
176
     1
 73
     0
176
     1
 90
        0
176
     1
 40
-0.6
176
     1
 41
-30.0
176
     1
 62
     5
 63
     7
421
 16777215
176
     1
 74
     1
176
     1
 91
        4
176
     1
 64
     7
176
     1
 65
   257
176
     1
 75
     1
176
     1
175
     1
176
     1
 42
1.0
176
     1
 92
        8
176
     1
 66
     7
176
     1
 43
1.0
176
     1
 76
     1
176
     1
 77
     6
176
     1
 78
     2
176
     1
 67
     7
176
     1
 79
     5
176
     1
170
     0
176
     1
171
     0
176
     1
290
     0
176
     1
 93
        1
176
     1
 44
0.0
176
     1
173
     0
176
     1
  0
VISUALSTYLE
  5
2B
102
{ACAD_REACTORS
330
2A
102
}
330
2A
100
AcDbVisualStyle
  2
Flat
 70
     0
177
     2
291
     1
 71
     2
176
     1
 72
     1
176
     1
 73
     1
176
     1
 90
        2
176
     1
 40
-0.6
176
     1
 41
30.0
176
     1
 62
     5
 63
     7
421
 16777215
176
     1
 74
     0
176
     1
 91
        4
176
     1
 64
     7
176
     1
 65
   257
176
     1
 75
     1
176
     1
175
     1
176
     1
 42
1.0
176
     1
 92
        8
176
     1
 66
     7
176
     1
 43
1.0
176
     1
 76
     1
176
     1
 77
     6
176
     1
 78
     2
176
     1
 67
     7
176
     1
 79
     5
176
     1
170
     0
176
     1
171
     0
176
     1
290
     0
176
     1
 93
       13
176
     1
 44
0.0
176
     1
173
     0
176
     1
  0
VISUALSTYLE
  5
2C
102
{ACAD_REACTORS
330
2A
102
}
330
2A
100
AcDbVisualStyle
  2
FlatWithEdges
 70
     1
177
     2
291
     1
 71
     2
176
     1
 72
     1
176
     1
 73
     1
176
     1
 90
        2
176
     1
 40
-0.6
176
     1
 41
30.0
176
     1
 62
     5
 63
     7
421
 16777215
176
     1
 74
     1
176
     1
 91
        4
176
     1
 64
     7
176
     1
 65
   257
176
     1
 75
     1
176
     1
175
     1
176
     1
 42
1.0
176
     1
 92
        0
176
     1
 66
   257
176
     1
 43
1.0
176
     1
 76
     1
176
     1
 77
     6
176
     1
 78
     2
176
     1
 67
     7
176
     1
 79
     5
176
     1
170
     0
176
     1
171
     0
176
     1
290
     0
176
     1
 93
       13
176
     1
 44
0.0
176
     1
173
     0
176
     1
  0
VISUALSTYLE
  5
2D
102
{ACAD_REACTORS
330
2A
102
}
330
2A
100
AcDbVisualStyle
  2
Gouraud
 70
     2
177
     2
291
     1
 71
     2
176
     1
 72
     2
176
     1
 73
     1
176
     1
 90
        2
176
     1
 40
-0.6
176
     1
 41
30.0
176
     1
 62
     5
 63
     7
421
 16777215
176
     1
 74
     0
176
     1
 91
        4
176
     1
 64
     7
176
     1
 65
   257
176
     1
 75
     1
176
     1
175
     1
176
     1
 42
1.0
176
     1
 92
        0
176
     1
 66
     7
176
     1
 43
1.0
176
     1
 76
     1
176
     1
 77
     6
176
     1
 78
     2
176
     1
 67
     7
176
     1
 79
     5
176
     1
170
     0
176
     1
171
     0
176
     1
290
     0
176
     1
 93
       13
176
     1
 44
0.0
176
     1
173
     0
176
     1
  0
VISUALSTYLE
  5
2E
102
{ACAD_REACTORS
330
2A
102
}
330
2A
100
AcDbVisualStyle
  2
GouraudWithEdges
 70
     3
177
     2
291
     1
 71
     2
176
     1
 72
     2
176
     1
 73
     1
176
     1
 90
        2
176
     1
 40
-0.6
176
     1
 41
30.0
176
     1
 62
     5
 63
     7
421
 16777215
176
     1
 74
     1
176
     1
 91
        4
176
     1
 64
     7
176
     1
 65
   257
176
     1
 75
     1
176
     1
175
     1
176
     1
 42
1.0
176
     1
 92
        0
176
     1
 66
   257
176
     1
 43
1.0
176
     1
 76
     1
176
     1
 77
     6
176
     1
 78
     2
176
     1
 67
     7
176
     1
 79
     5
176
     1
170
     0
176
     1
171
     0
176
     1
290
     0
176
     1
 93
       13
176
     1
 44
0.0
176
     1
173
     0
176
     1
  0
VISUALSTYLE
  5
38
102
{ACAD_REACTORS
330
2A
102
}
330
2A
100
AcDbVisualStyle
  2
Linepattern
 70
    14
177
     2
291
     1
 71
     2
176
     1
 72
     2
176
     1
 73
     0
176
     1
 90
        0
176
     1
 40
-0.6
176
     1
 41
-30.0
176
     1
 62
     5
 63
     7
421
 16777215
176
     1
 74
     1
176
     1
 91
        4
176
     1
 64
     7
176
     1
 65
   257
176
     1
 75
     7
176
     1
175
     7
176
     1
 42
1.0
176
     1
 92
        8
176
     1
 66
     7
176
     1
 43
1.0
176
     1
 76
     1
176
     1
 77
     6
176
     1
 78
     2
176
     1
 67
     7
176
     1
 79
     5
176
     1
170
     0
176
     1
171
     0
176
     1
290
     0
176
     1
 93
        1
176
     1
 44
0.0
176
     1
173
     0
176
     1
  0
VISUALSTYLE
  5
33
102
{ACAD_REACTORS
330
2A
102
}
330
2A
100
AcDbVisualStyle
  2
Realistic
 70
     8
177
     2
291
     0
 71
     2
176
     1
 72
     2
176
     1
 73
     0
176
     1
 90
        0
176
     1
 40
-0.6
176
     1
 41
-30.0
176
     1
 62
     5
 63
     7
421
 16777215
176
     1
 74
     1
176
     1
 91
        0
176
     1
 64
     7
176
     1
 65
   257
176
     1
 75
     1
176
     1
175
     1
176
     1
 42
1.0
176
     1
 92
        8
176
     1
 66
     8
424
  7895160
176
     1
 43
1.0
176
     1
 76
     1
176
     1
 77
     6
176
     1
 78
     2
176
     1
 67
     7
176
     1
 79
     5
176
     1
170
     0
176
     1
171
     0
176
     1
290
     0
176
     1
 93
       13
176
     1
 44
0.0
176
     1
173
     0
176
     1
  0
VISUALSTYLE
  5
37
102
{ACAD_REACTORS
330
2A
102
}
330
2A
100
AcDbVisualStyle
  2
Thicken
 70
    13
177
     2
291
     1
 71
     2
176
     1
 72
     2
176
     1
 73
     0
176
     1
 90
        0
176
     1
 40
-0.6
176
     1
 41
-30.0
176
     1
 62
     5
 63
     7
421
 16777215
176
     1
 74
     1
176
     1
 91
        4
176
     1
 64
     7
176
     1
 65
   257
176
     1
 75
     1
176
     1
175
     1
176
     1
 42
1.0
176
     1
 92
       12
176
     1
 66
     7
176
     1
 43
1.0
176
     1
 76
     1
176
     1
 77
     6
176
     1
 78
     2
176
     1
 67
     7
176
     1
 79
     5
176
     1
170
     0
176
     1
171
     0
176
     1
290
     0
176
     1
 93
        1
176
     1
 44
0.0
176
     1
173
     0
176
     1
  0
ENDSEC
  0
EOF
