<?xml version="1.0" encoding="utf-8"?>
<!-- Generator: Adobe Illustrator 26.5.2, SVG Export Plug-In . SVG Version: 6.00 Build 0)  -->
<svg version="1.1" id="Layer_1" xmlns="http://www.w3.org/2000/svg" xmlns:xlink="http://www.w3.org/1999/xlink" x="0px" y="0px"
	 width="1740px" height="980.8px" viewBox="0 0 1740 980.8" style="enable-background:new 0 0 1740 980.8;" xml:space="preserve">
<style type="text/css">
	.st0{fill:none;stroke:#FF0000;stroke-width:0.75;stroke-miterlimit:11.3386;}
	.st1{fill:none;stroke:#FF0000;stroke-width:0.75;}
	.st2{fill:none;stroke:#FF0000;stroke-width:0.75;stroke-miterlimit:9.6378;}
</style>
<path class="st0" d="M418.1,0c-1,0-1.9,0.9-2.1,2l-33.2,188.2L349.4,2c-0.2-1.1-1.1-1.9-2.2-2H224.8c-1.1,0.1-2,0.9-2.2,1.9
	l-34.6,181.9L160.4,2c-0.2-1.1-1.1-1.9-2.2-2H16.4c-1.3,0.1-2.3,1.2-2.2,2.5c0,0.2,0,0.3,0.1,0.5l103.3,477.2c0.3,1,1.1,1.7,2.1,1.8
	h118.7c1.1-0.1,2-0.9,2.2-1.9l39.2-199.6L318.2,480c0.2,1.1,1.2,1.9,2.3,1.9h119.7c1.1-0.1,2-0.8,2.2-1.9L544.5,2.9
	c0.3-1.3-0.5-2.5-1.7-2.8c-0.1,0-0.3-0.1-0.4-0.1H418.1z M260.7,243.6l4.7-2.2c5.1-2.4,9.8-3.9,13.7-4.5c3.1-0.5,4.9-0.1,6.9,1.4
	c1.7,1.2,5.3,5.8,2.8,6.9c-2.2,1.6-7.4,2.7-11.7,2.6C271.4,247.6,263.1,245.6,260.7,243.6z M256.6,234l1.3-3.8
	c0.7-2.1,1.5-4.5,1.7-5.3c0.5-1.9,2.2-4.2,3.7-5.4c0.7-0.5,1.9-1.1,2.8-1.4c1.4-0.4,2-0.4,4.1-0.1c2.2,0.3,2.7,0.5,4.2,1.5
	c1.7,1.2,3.7,3.5,3.5,4.3c-0.3,1.8-4,4.6-12.6,9.7l-6.1,3.6C258.9,236.1,257.5,234.5,256.6,234z M244.6,228c-0.5,0-0.8-1.6-2.1-10.8
	c-1-6.7-1.1-9.2-0.5-11.5c0.5-2.2,6.4-1.5,7.8-0.6c1.8,1.2,4.1,4.3,4.8,6.5c1.1,3.6,0.9,8.3-0.7,11.7c-0.5,1-2.1,5.4-2.8,7.2
	C249.9,228.4,245.7,227.9,244.6,228z M279.8,230.9c1.5-1.6,4.1-5.1,4.1-7.6l1.4-0.5c3-1,6.3,0.5,7.3,3.2c0.4,1,0.1,2.8-0.7,3.9
	c-0.6,0.9-3,2.9-3.5,2.8C286.6,231.5,282.2,230.9,279.8,230.9z M260.7,213.6c-0.3-2-1.4-6-2.4-7.4c-0.5-0.7-0.5-1-0.3-2.1
	c0.8-3,3.8-4.2,7-2.6c2.1,1.1,4.1,7.2,3.9,10.7C266.7,211.5,262.7,212.7,260.7,213.6z M275.4,213.6c-0.3-0.4,2.1-3.1,3.2-3.6
	c0.8-0.4,1.3-0.4,2.2-0.2c1.7,0.4,2.5,1.6,2.2,3.1c-0.2,1.1-2.1,4.3-2.5,4.2C279.6,215,275.5,213.7,275.4,213.6z M199.7,420.7
	c-3.4-7.6-7.5-14.8-12.7-22.2c-8.8-12.6-13.4-21.1-14.1-25.8c-0.8-5.5,0-9.9,1.9-10.7c2-0.8,6.6,1.6,10.7,5.7
	c4.4,4.4,9.8,15.3,12.4,25c2.2,8.5,3.8,18.5,3.5,23.3c-0.2,2.9-0.6,6.4-0.8,6.4C200.5,422.3,200.1,421.6,199.7,420.7z M211.1,406.3
	c3.7-17.9,10.1-36.6,16.8-49.6c2.2-4.1,9.4-13.9,12.6-15.8c0.5-0.2,1.2,0.1,1.2,0.8c-0.5,5.8-1,15-9.8,32.5
	c-5.6,11-9.4,17.9-13.5,24.2c-2.7,4.1-5.5,8.4-6.3,9.6s-1.5,2.1-1.6,2.1C210.4,410.2,210.6,408.4,211.1,406.3z M197.5,319.7
	c-5.9-4.8-7.8-6.5-13.8-12.6c-11.1-11.4-15-16.3-17.7-22.2c-2.3-4.9-3.2-11-1.9-11.8c1.5-1,10.1,4.9,16.2,11
	c7.2,7.3,16,19.8,21.7,30.8c3.5,6.7,3.8,10.9,3.8,11.2c0,0.4-0.3,0.3-1.7-1C203.2,324.3,200.2,321.9,197.5,319.7z M212.1,323.6
	c0.4-1.2,1.6-5.5,2.8-9.6c1.2-4.1,2.5-8.5,3-9.7c2.1-5.1,6.3-12.4,9-15.6c2.7-3.3,6.2-5.8,7.1-5.2c0.9,0.6,0.1,5.5-1.5,9.3
	c-1.9,4.6-6.2,12.5-9.9,18.1c-4.2,6.5-10.5,15.1-11,15C211.5,325.8,211.7,325,212.1,323.6z M198.5,294.5c-2.8-6-3.9-9.8-7.6-27.2
	c-1.7-8-2.8-17.9-2.7-24.7c0-3.2,1-9.5,1.5-9.4c0.6,0.1,2.6,2.8,3.7,5c3.8,7.5,5.8,14,8.1,26.4c1.9,10.7,2.7,17.1,3.3,26.1
	c0.3,5.5,0.7,15.4,0.6,15.9C205.1,307.1,200.5,298.7,198.5,294.5z M219.9,210.2c-3.1-13.3-4.2-19.4-5.3-29
	c-1.4-11.8-1-22.1,1.1-30.2c1-3.9,2.6-7.1,4.5-5.9c1.6,1.5,3.7,6.1,5,10.8c3.1,11.4,3.2,25.6,0.4,42c-0.9,5.1-4,19.5-4.1,19.2
	C221.5,217,220.8,213.9,219.9,210.2z M264.1,158.7c3.7-3.8,16.6-15.6,23.7-21.5c10.7-9.1,18-13.5,27.2-16.6c3.9-1.3,6.7-1.7,9.3-1.1
	c3.8,0.8,4.9,2.4,3.9,5.8c-1.8,5.9-9.1,12.2-21.7,18.5c-8.9,4.5-19.7,9-28.3,11.8c-4.1,1.3-14.3,4.1-14.8,4
	C263.3,159.6,263.6,159.2,264.1,158.7z M254.2,152.7c-0.4-1.3-1.8-5.4-3.2-9.3c-8.1-22.5-10.1-31-9.7-40.5
	c0.2-4.7,2.2-13.8,3.5-16.1c0.8-1.4,0.9-1.4,1.7-1.2c4.1,0.9,9.5,13.9,12,29.3c1.3,7.5,1.6,14.2,1.2,21.9
	c-0.1,2.6-3.1,12.6-3.7,14.6c-0.6,2-1.1,3.6-1.1,3.6C254.9,155,254.6,154,254.2,152.7z M268.9,129.3c7.9-25,12-34.8,20.4-48.8
	c6.6-11,10.9-16,14.4-16.9c2.3-0.6,3.2,0.2,3.4,3c0.7,9.4-7.2,28.6-20.2,49.7c-5.6,8.8-15.8,28.6-23.1,33.3
	C264.7,144.4,267.2,134.2,268.9,129.3z M233.6,454.6c-9.3-0.4-14-0.6-20.2,0.7c-3.4,0.7-8.6,1.7-8.2,5.2c0.5,3.3,1.9,6.3,2,9.4h23.3
	L233.6,454.6z M234.7,449.4c-11.8-1.9-19.7-1.4-28.7,1.8l-2.6,0.9c1.2-1.9,3.9-5.9,5.9-8c5.6-6.4,17.1-12.3,28-7.5L234.7,449.4z
	 M273.2,253.3c-4.4-0.6-10.2-2.3-12.6-3.4c-1.6-0.7-1.7-0.8-2.7-0.5c-3.1,0.6-9,0.1-11.7-1.6c-15.2,12.8-23.7,27.1-32.6,51.9
	c1.7-3.6,4.3-8.2,6.3-11.1c7.3-10.9,16.1-14.1,19.4-7.1c1,2.1,1,4,0.1,8c-1,4.6-3.1,9.2-8.1,17.8c-5.2,9.1-14.9,22.6-18.6,25.8
	l-1.2,1l0,6.6c0,7.3-0.5,28.1-1,37.7c-0.2,3.6-0.2,5.8,0,5.4c0.2-0.3,1.3-3.5,2.5-7c5.6-27.1,23.7-41.5,27.7-42.5
	c3.5-0.9,6.3,1.3,6.6,5.1c2.3,8.9-6,28.2-11.5,38.9c-6,11.7-10.4,19.8-17.1,29.5c-4.8,7.4-7.7,12.1-10.5,17.2
	c-1.4,2.1-4.9,13.9-5.2,16.3c3.5-4.1,4.9-8.7,16.2-12.2c5.9-1.9,13.5-3.4,19.2-0.1L273.2,253.3z M145.7,348.3
	c-3.7-0.9-7.4-2.4-9.2-3.9c-0.9-0.7-1.6-1.5-1.6-1.7c0-0.4,1.2-1,2.5-1.1c1.5-0.1,4.6,0.7,6.3,1.7c1.5,0.9,5.7,4.3,6.2,5.1
	c0.3,0.5,0.3,0.5-0.9,0.4C148.4,348.9,146.9,348.6,145.7,348.3z M161.2,345.6c1.7-2.2,8.5-7.6,9.6-7.7c0.4,0-0.4,1.9-1.7,3.6
	c-1.8,2.6-4.8,4.5-7.3,4.7l-1.2,0.1L161.2,345.6z M157.4,336.4c0.1-4.1,1.5-12.5,2.3-14c0.6-1.1,0.4,4.8-0.2,8.4
	c-0.3,1.8-1.8,7.2-2,7.2C157.4,338,157.4,337.3,157.4,336.4z M134,315.2c-2.5-1.6-5-4.5-5.8-5.8c-0.6-1-0.4-1,1.7,0.1
	c3.7,1.8,8.1,5.4,9.7,7.8c0.5,0.7,0.5,1.5-1.4,0.5C137.2,317.2,135.3,316.1,134,315.2z M148.8,313.2c-0.9-3.6-0.6-8.5,0.6-12.2
	c0.6-1.7,2-4,3-4.9l0.8-0.7l0.1,2.6c0.1,4.5-0.7,9.4-2.5,14.7c-0.6,1.6-1.1,2.9-1.2,2.8C149.5,315.5,149.1,314.5,148.8,313.2z
	 M133.6,300.8c-1.1-1.9-2.1-4.4-1.9-5c0.1-0.4,2.2,2.3,4,5.2c1.4,2.2,4.3,7.8,4.4,8.2C140.1,309.7,134.6,302.5,133.6,300.8z
	 M142.1,276.6c1.1-3.3,3.3-6.8,5-8.2c1.5-1.2,1.7-0.9,1.5,1.3c-0.2,1.9-0.5,2.8-1.7,4.4c-1.3,1.8-3.3,3.3-5.2,4
	C141.6,278.1,141.8,277.4,142.1,276.6z M126,278.1c-3.1-0.2-5.2-0.6-7.7-1.5c-3.5-1.3-7.1-4.3-6.1-5.1c0.8-0.6,5.5,0.1,9.6,1.3
	c3.6,1.1,9.6,4.1,9.7,4.9C131.5,278,128.6,278.2,126,278.1z M136.2,262.3c-0.1-4.5,0.1-7.8,0.6-11.6c0.2-1.5,0.6-0.1,0.9,3.3
	c0.3,3.9,0.2,7.4-0.4,12.1c-0.3,2.4-0.4,2.7-0.7,2.2C136.4,267.8,136.3,265.9,136.2,262.3z M111.9,249.1c-3.5-0.7-5.6-1.4-7.3-2.4
	c-1.6-0.9-4.4-3-4.4-3.3c-0.1-0.8,4.3,0,7.5,1.4c1.5,0.7,6.6,3.7,7.7,4.6C115.9,249.8,115.1,249.7,111.9,249.1z M119.8,240.4
	c-1-1.9-1-2.1-1.4-5.9c-0.2-2.2-0.3-4.8-0.2-5.9c0.3-3.2,1.5-7.3,2.2-7.3c0.1,0,0.5,0.7,0.9,1.5c0.5,1.3,0.7,2.5,1.1,7.1
	c0.4,5.3,0.4,5.7-0.1,9c-0.8,4.5-0.7,4.3-1.1,3.9C120.9,242.5,120.3,241.4,119.8,240.4z M96.4,221.5c-2.5-0.9-3.5-1.5-4.5-2.4
	c-0.7-0.7-1.3-1.3-1.3-1.4c0-0.4,2,0.1,3.8,0.9c1.5,0.6,5.8,3.4,6.3,4.1C101.1,223.2,100,222.9,96.4,221.5z M103.9,208.8
	c-0.8-5.2-0.9-10.4-0.1-10.5c0.9-0.1,2,4.9,1.9,8.5c-0.1,3.1-0.6,6.8-0.9,6.5C104.7,213.3,104.3,211.3,103.9,208.8z M86.3,194.4
	c-1.3-1.1-3.1-3.9-4.3-6.8c-1.4-3.2-1.2-3.3,1.3-1.3c1.8,1.5,2.9,3,4.2,6.1c0.7,1.6,0.8,2.2,0.6,2.5
	C87.7,195.5,87.5,195.4,86.3,194.4z M165.3,442.3c-0.1-5-2.5-14.3-6.8-14.8c-0.9,0.5-1,3.4-1.1,6.3c-0.1,3.1,0.5,13.2,1.2,19.1
	c0.3,2.6,1,11.3,2.9,11.5C166.1,462.8,165.1,445.3,165.3,442.3z M148.3,457.7c-4.8-6.7-9.4-12.2-13.3-15.7c-2.7-2.4-6.1-4.9-6.1-4.4
	c0,0.8,5.4,7.6,10.4,13c3,3.2,11,10.6,11,10.1C150.3,460.6,149.4,459.2,148.3,457.7z M138.9,415.5c0.9-0.2,2-0.7,2.5-1.1
	c0.8-0.6,0.9-0.7,0.5-1.4c-0.2-0.4-1.4-1.9-2.6-3.4c-2.2-2.7-2.3-2.7-3.2-2.6c-2.2,0.4-2.2,0.3-2.4,4.5c-0.2,4.1-0.1,4.3,2,4.4
	C136.7,415.9,138.1,415.7,138.9,415.5z M121.8,406.7c0.8-0.2,1.8-0.6,2.2-0.8c1.5-1,3.8-3.2,3.8-3.6c0-0.9-7.8-6.1-9.2-6.1
	c-0.8,0-1.4,3.6-1.2,6.7c0.2,3.2,0.3,3.6,1.2,3.9C119.6,407.1,120.2,407.1,121.8,406.7z M149.5,401.6c0.1-0.4,0.1-2.1,0.1-3.9
	c-0.1-2.6-0.2-3.4-0.7-4.5c-0.7-1.5-1.3-1.6-3-0.7c-1.1,0.6-5.7,5-5.7,5.6c0,0.6,0.9,1.1,3.9,2.5
	C148.3,402.5,149.3,402.7,149.5,401.6z M131.4,394.9c1.3-0.7,1.5-1.3,1.5-6c0-4.1-0.2-4.7-1.8-5.2c-1.7-0.5-3.4-0.2-4.2,0.7
	c-0.6,0.7-0.6,0.9-0.5,2.7c0.1,1.1,0.4,2.5,0.7,3.3c0.6,1.3,2.9,5.1,3.1,5.1C130.2,395.4,130.8,395.2,131.4,394.9z M148.1,469.9
	h-20.9l-12.6-58.4c2.7,0.9,6.2,2.8,13.6-1.6c-0.3,12.9,3.9,13.1,6.7,12.5c4.4,2.6,10.2,16.1,13.3,24.3l0.9,2.3l-2.6-3.1
	c-3.1-3.7-4.1-4.8-6.7-7.2c-4.2-3.9-11.7-8.9-13.9-9.3c-2.1-0.3-4,1-4.4,3.1c-0.6,3.4,3.3,9.9,11.4,19.2
	C137.3,456.9,141.5,464.7,148.1,469.9z M153.5,353.9c-3.5,0.3-12.5-1.1-16.6-3.1c-3.6-1.7-6.3-4.5-7-7c-0.9-3.1,1.9-6.4,6.1-7.2
	c3.5-0.7,8.6,0.9,12.7,3.8c1.3,1,2.4,1.6,2.4,1.5c0-0.3-3.3-13.2-3.6-14.1c-0.1-0.4-1.4-1.1-3.9-2.3c-14.2-6.7-20.9-12.1-21.3-17.3
	c-0.6-4,3.3-5.9,7-4.6l-0.5-0.7c-2-3.1-3.2-9.5-2.2-11.6c1.9-3.9,6-2.8,11,3c-0.6-2.6-2.7-8.3-4.1-11.4l-3.6,0.3
	c-6.2,0.5-11.7-0.5-16.2-2.9c-4.3-2.3-7-5.5-7.3-8.5c-0.3-3.3,1.9-5.2,6.2-5.6c3-0.3,10.5,0.9,15,2.6c-1.2-4-4.5-10.8-6.3-14
	l-2.3,0.2c-3.5,0.3-10.6-0.9-14.6-2.5c-4.5-1.8-8.8-5.3-9.9-8.1c-1.3-3.2,1.1-6.1,5.4-6.4c2.7-0.2,8.6,1.5,12.4,3.6
	c1,0.5,1.8,0.9,1.8,0.7c0.1-0.5-0.7-2.1-4.1-7.9l-3.4-5.8l-2.2,0c-2.8,0-4.4-0.2-8-1.4c-3.8-1.2-5.4-2-7.4-3.6
	c-3.3-2.6-4.9-6.5-3.6-8.6c1-1.6,3.6-5.4,12-0.8l-7.1-11.4c-2.3-0.2-6.9-2.8-9.2-6.1c-2.8-3.6-5.6-9.8-5.5-12.5
	c0-2.5,1.8-4.2,4.4-4.4c3.6-0.3,8.4,3.4,11,8.4c1.2,2.3,4.5,9.5,3.8,11.9l3.1,5.2l0-2.6c0-5.7,1.5-9.3,4.4-10.1
	c2.2-0.6,5.1,1.3,6.5,4.2c2.4,5,2.5,12.2,0.4,21.1c-0.4,1.7-0.7,3.2-0.7,3.5c0,0.5,4,7.1,4.3,7.1c0.1,0,0.3-0.8,0.4-1.8
	c0.5-4.4,2.3-8.5,4.3-10c1-0.7,1.4-0.9,2.7-0.9c4.2,0,6.5,4.4,7.3,13.7c0.5,5.5,0.4,6.7-1.3,15.2l-1.1,5.8c1.5,2.7,3.5,5.7,5.6,11.8
	c0-0.1,0.1-1.5,0.1-3.2c0.1-5.2,0.7-9.6,1.8-12.5c0.9-2.2,2.2-3.4,4-3.6c2.1-0.2,5.2,0.6,6.3,9c0.3,3.7,1.1,9-0.1,13.1
	c4.3-3.6,7-2.8,7.7-2.6c1.8,0.7,2.7,2.2,3.1,4.8c0.6,3.8-0.7,7.4-3.7,10.9c-2.2,2.5-6.2,5.1-10.2,6.1c0,0.2,3.9,10.4,4.8,14.2
	c1.4-3.8,3.7-6,5.2-7c1.9-1.2,3.2-1.5,4.8-1c3.7,1.3,4.6,5.9,3.1,15.2c-0.7,4.6-1.2,6.2-3.8,13.1c-2,5.3-2,5.4-1.7,6.9
	c0.2,0.9,0.4,1.6,0.5,1.7c0.1,0.1,0.4-0.9,0.7-2.2c0.9-4.7,2.6-7.9,4.7-9.1c1.4-0.8,2.1-0.8,3.7-0.3c1,0.4,1.5,0.8,2.1,1.8
	c0.8,1.3,0.9,1.6,1.1,4.6c0.3,3.6-0.1,7.3-1,11.3l-0.6,2.5l2.6-1.6c4.7-2.9,7.9-3.1,9.5-0.5c1.7,2.7,0.5,7-3.1,11.3
	c-3.2,3.8-9.4,6.7-13.6,6.8c6.1,20.9,5.1,49.3,5.5,71.5c1.7,1.8,9.9,12.8,7.3,32.5c-1.4,6.3-2.1,9.6-2.9,13.6l22.2,0
	c0-4-0.4-6.2-4.3-9c-0.9-0.7-1.8-1.3-2.7-1.9c-4,3.1-9-1-8.8-4.4c0-4.4,4-7,7.5-6.1c4.3,1.5,4.1,4.4,4,5.9c2.5,0.4,7.6,5.3,10.1,8.6
	c-0.4-5.7-5.8-18.2-10.4-25.1c-2.5-0.1-8.8,1.4-9.7-4.8c-1.4-6.2-1.5-13.4-2.4-19.7c-1-4.8-0.8-5.5-3.5-9.7
	c-2.9-4.1,0.5-5.5,3.4-3.4c6.7,4.2,14.9,17.7,16.7,25.1c0.6,2.1-0.1,7.9-0.9,8.6c1.4,2.4,4.2,4.4,5.4,5.3c1.3-6.6,1.8-9.8,0.2-13.7
	c-3.4-8.4-7.1-15-14.4-25.7c-11-16.3-13.8-22-14.4-29.4c-0.2-2.2-0.1-3,0.6-6.3c0.8-3.4,0.9-3.8,1.8-4.9c2.8-3.5,7.2-4.1,11.9-1.9
	c6.2,3,11.7,9,15.9,17.1c2.1,4.1,4.8,11,5.9,14.8c0.5,1.6,0.9,2.9,1,2.8c0.2-0.1,0.8-7.1,1.1-13.5c0.5-10.5,1.2-39.3,1-43.3
	c-0.1-1.1-2.8-3.8-11.3-10.7c-7.2-5.9-8.4-7-12.9-11.5c-10.6-10.7-16.2-17.2-18.9-22.1c-6.2-10.9-6.8-20-1.6-23
	c3.1-1.8,6.5-0.9,12.4,3.1c4.9,3.3,10,7.8,14.1,12.5l1.1,1.3l-0.2-1c-0.1-0.5-1-4.6-2-9.1c-2.6-11.5-3.4-16.6-4.1-24.5
	c-0.6-7.1-0.6-17.4,0.6-20.8L150.1,12h-122l83.5,386c0.4-2.2,2-8.1,9.6-7c-3.9-6.7,0.7-11.2,4.7-12.6c1.6-0.6,4.8-0.6,6.6-0.1
	c2.5,0.7,4.4,2.4,5.3,4.9c0.9,2.1,0.9,6.2,0.6,8.3c2.7-5.1,7.9-5.5,10.5-5c3.7,0.9,5.9,4.7,6.2,10.7c0.2,2.8-0.2,6.1-0.9,7.5
	c-1.3,2.6-4.7,3.3-10.6,2.1c2.3,3,4.5,7.2,3.4,9.4c-0.7,1.3-3.3,3.5-5,4.3c0.8,1,5.3,9.4,7.2,14.1c2.7,6.8,2.6,6.7,2.5,3.1
	c-0.3-7.8-0.1-16.4,5.8-16.8C157.3,402,159.2,381.2,153.5,353.9z M414.5,454.9c-0.1-3.9,0.6-8.3,1.9-12.8c2.3-8.1,4.5-12.6,11.6-24
	c2-3.2,4.2-6.7,4.7-7.7l1-1.8l-0.4,2.9c-1,7.2-4.4,16.4-12.1,32c-3.1,6.3-5.8,12.1-6.1,12.7c-0.3,0.6-0.5,1.2-0.6,1.2
	C414.5,457.6,414.5,456.4,414.5,454.9z M399.3,430.5c-2.6-4.2-7.5-12.4-9.2-17.5c-0.7-1.8,0.9-1.3,2.3,0c3.8,3.5,9.3,10.3,12.3,14.9
	c3.2,5.1,2,11.8,1.7,11.7C406.3,439.5,400.9,433.1,399.3,430.5z M389.6,373c-3.4-5.3-5.6-9.9-8.3-16.9c-2.6-7-4.1-12-3.4-11.6
	c0.2,0.1,1.4,1.4,2.6,2.8c2.7,3.2,5,4.9,6.7,5.3c0.8,0.2,2.4,0,3.8-0.3l2.4-0.6l0.7,1.9c1.2,3.3,0.4,13.2-1.5,20
	c-0.4,1.4-0.9,2.4-1.1,2.2C391.3,375.5,390.5,374.3,389.6,373z M379,377c-5.9-1.2-11.6-3.4-12.7-4.9c-1.2-1.7,0.9-3.5,3.9-3.3
	c3.1,0.3,9.8,4.1,14.2,8.1C386,378.4,386,378.4,379,377z M373.4,363.7c-1-0.8-4.3-5-4.6-5.9c-0.2-0.4-0.2-1.8-0.1-3
	c0.1-1.7-0.1-2.8-0.9-5.2c-1.2-3.6-1.1-3.6,2.6-0.7c1.4,1.1,2.8,2.1,3.1,2.3c0.4,0.2,1.6,2.8,3.7,8.3l3.1,7.9l-3.1-1.6
	C375.5,364.9,373.8,364,373.4,363.7z M395.9,262.9c-3.7-8.9-5.7-12.9-9.7-18.9c-5.5-8.3-14.4-17.2-20.2-20.1
	c-2.4-1.2-5.2-1.8-6.6-1.3c-2.3,0.8,0,6.4,5.6,13.6c3.3,4.3,6.3,7.5,14.6,15.6c6.9,6.8,13.3,13.4,17.5,18.1c1.3,1.6,2.1,1.8,1.8,0.9
	C398.6,269.9,397.3,266.4,395.9,262.9z M426.2,344.6c1.5-2.1,3.2-4.6,3.8-5.6c1.6-2.8,4.7-9.6,6.2-14c3-8.5,5-24,3.9-29.5
	c-0.2-0.9-0.3-0.9-1.2-0.4c-2.7,1.5-7.5,10.8-9.4,18.5c-0.6,2.5-1.9,9.7-2.8,16.1c-0.9,6.4-2,13.2-2.5,15.1
	c-0.5,1.9-0.8,3.5-0.8,3.6C423.4,348.3,424.7,346.6,426.2,344.6z M452.8,343.3c4-2.5,7.8-5.1,7.9-10c-3.4,1-18.8,8.8-26.2,16.6
	C437.7,349.4,445.8,347,452.8,343.3z M397.6,173.8c2.2,3.3,3.9,5.2,6.6,8.1c-2.1,6.9-3.2,14.1-3.3,21.4c-0.7,11.4-1,22.9-0.9,34.4
	c0.4,5.5,1,11,1.9,16.5c0.1,2.7,0.2,5.3,0.3,8c-3.6-12.3-8.5-22.1-14.9-29.2L397.6,173.8z M463.3,326.5c-6.1-1.2-17.9,6.6-24,10.1
	c4.8-8.1,5.7-20.4,6.4-25.8c1.2-8.9,1-16.3-0.5-19c-1.1-2-3.1-3.3-5-3.4c-1.4-0.1-2.1,0.2-4.4,1.6c-2.3,1.4-3.1,2.3-5.2,5.4
	c-5.1,7.4-7.5,15.3-9.9,33c-1,5.8-3,17.4-4.5,22.1c-0.2,0.7-0.6,0.4-0.6,0.1c1.5-17-1.1-33.4-4.8-49.7c-2.1-10.2-2.8-20.7-2.1-31.2
	c0.4-8-0.1-16-1.5-23.9c3-6,6.6-11.6,10.6-16.8c5.3-6.5,11.4-12.2,18.2-16.9c6.9,5,15.3,6.9,23.4,5.4c0.4,2.5,2.6,4.3,5,4.1
	c3-0.7,4.9-3.7,4.4-7c-0.1-3.4-2.7-6.1-5.9-6.1c-1.6,0-3,1.1-3.7,2.6c-4.6,0.8-9.4,0.5-13.9-1c5.2,0.4,10.3-0.9,14.6-3.8
	c2,1.3,4.6,0.5,5.8-1.7c1.1-3.3-0.5-6.9-3.5-8.2c-2.3-0.9-4.8,0.2-5.9,2.6c-0.2,0.7-0.3,1.3-0.3,2c-3.8,2.5-8.4,3.4-12.8,2.7
	c2.3-2.6,4.9-4.9,7.7-6.8c2.1,1,4.6,0.1,5.7-2c1.1-2.4,0.5-5.4-1.6-7l-0.7-0.4c-0.1,0-0.2-0.1-0.2-0.1c-1.3-0.7-2.9-0.4-4,0.7
	c-1.2,0.8-2.1,1.9-2.8,3.3c-2.9,2.2-5.6,4.6-8.2,7.2c0.9-4.1,2.7-7.8,5.3-11l1.7-2.4c2.2,0.5,4.5-0.6,5.6-2.7
	c0.1-0.2,0.2-0.5,0.2-0.7c0-0.2,0-0.4,0.1-0.6c-0.8-4.5-4.9-7.4-9.1-6.6c-2.3,0.2-4.2,1.8-4.8,4.2c-0.3,1.6,0.4,3.2,1.6,4.1
	c-5,5.7-7.8,13.3-7.8,21.2c0.1,0.8,0.1,1.6,0.1,2.5c-10.1,7.4-18.8,16.7-25.9,27.4c0.1-14,0.8-28.1,2.1-42c0.3-3.3,1.4-6.4,3.1-9.2
	c1.2-2.7,2.9-5.1,5-7.2c2.5-2.7,4.5-5.8,5.8-9.3c8,1.1,16.1-0.9,22.9-5.5c0.2-0.1,0.5-0.3,0.7-0.4c1.8,1.4,4.2,1.2,5.7-0.5
	c1.4-1.9,1.2-4.7-0.6-6.3c-1.2-2.4-3.9-3.4-6.3-2.4c-0.4,0-0.7,0.3-1,0.7c-0.8,0.8-1.3,1.9-1.5,3.1c-4.6,3.2-10,5.1-15.6,5.3
	c5.8-2.6,11.1-6.2,15.7-10.9c1.7-0.2,3-1.6,3.1-3.4c-0.4-3.1-2.9-5.5-5.8-5.5c-1.8-0.6-3.7,0.4-4.4,2.2l-0.2,0.7
	c0,0.4,0,0.8,0.1,1.2c0.2,0.6,0.4,1.3,0.8,1.8c-3.5,3.5-7.7,6.3-12.2,8.1c1.2-2.5,2.7-4.9,4.3-7.2c2,0.5,4-0.8,4.5-2.9
	c0.8-1.6,0.4-3.7-1.1-4.7c-1.6-1.9-4.3-2.1-6.1-0.4c-2,3.2-4,6.4-6.1,9.6c0.5-3.7,1.8-7.2,4-10.1c1.8,0.6,3.6-0.4,4.3-2.2
	c0.4-3.4-1.8-6.5-4.9-7c-1.3-0.1-2.6,0.1-3.8,0.7c-0.3,0.2-0.7,0.4-0.9,0.7c-0.4,0.3-0.6,0.8-0.7,1.3c-0.1,0.9,0.2,1.8,0.6,2.6
	c-4.9,6.7-6.6,15.4-4.7,23.7c0.6,1.9,1.6,3.7,3,5c-2.1,4.7-5.1,8.9-8.9,12.3l0,0.1c-4-4.8-4.9-6.9-7.8-12.5L426.1,12h104.5
	L463.3,326.5z M419.5,469.9h13l25.7-120.1c-9.7,7.2-16.1,8.5-25.8,10.2c-6.7,1.5-15.8,4.1-15.6,10.1c1,5.7-0.8,40.3-1,57.8
	c1.2-2.4,3.2-5.2,4.9-7.8c1.6-2.6,4.6-7.4,6.5-10.6c4.4-7.3,5.5-8.8,6.9-9.3c1.3-0.5,2.6,0,3.5,1.2c1.7,2.5,1.1,11.3-1.3,19.5
	c-2.1,6.9-4.1,14.6-12.1,30.9C420.8,459,419.6,466.2,419.5,469.9z M356.1,465.5c4.2-4.4,10.2-17.1,10.8-22.9c0.6-5.9,1-6.1-5,2
	c-5.8,7.8-7.8,11.1-9.6,16.1c-0.6,1.7-2,9-2,9.2C351.5,469.7,354.8,466.9,356.1,465.5z M344.4,456.8c-0.2-4.3-1.6-10.8-3.7-16.4
	c-1-2.7-3.5-8.5-3.7-8.5c-0.4-0.1-0.5,8.5-0.1,11.5c0.7,5.7,2.3,19.8,5.6,26.6l2.5,0C345.3,469,345.1,460.5,344.4,456.8z
	 M341.8,415.3c1.8-2,3.6-8.5,3.6-13.3c0-3.1-0.8-8.7-1.1-7.4c-0.1,0.5-0.7,2-1.3,3.4c-2.7,6.3-3.7,12.7-2.7,16.6
	C340.7,416,341,416.1,341.8,415.3z M364.7,415.7c0.2-1.1-0.9-4.4-2.3-7c-1.7-3.2-4.4-6.9-7.9-10.8c-1.6-1.8-3.1-3.5-3.4-3.9
	c-0.6-0.7,1.7,4.6,3.8,8.8c2.4,4.9,6.2,10.5,8.3,12.6C364.4,416.5,364.6,416.6,364.7,415.7z M326.1,407.1c2.4-0.8,8.8-7.7,12-13
	c0.5-0.8,0.8-1.4-0.8-0.1c-4.4,2.8-5.6,3.7-7.3,5.4c-2.7,2.6-3.6,3.7-4.4,5.5c-0.6,1.3-0.8,2.4-0.4,2.5
	C325.2,407.4,325.6,407.3,326.1,407.1z M319.4,394.9c2.7-0.1,10.5-2.8,13.9-4.8l1.8-1.1c-2.2-0.9-6.9-1.7-9.4-1.5
	c-2.5,0.1-4.1,0.4-6.8,1.6C313.1,391.6,313.4,395.1,319.4,394.9z M371.9,400.4c-2.2-2.3-5.4-5-7.5-6.3c-2-1.2-7.6-3.7-8.1-3.7
	c-0.7,0.1,7.9,6.9,11.5,9.1c1.3,0.8,5,2.6,5.4,2.7C373.6,402.2,372.7,401.3,371.9,400.4z M312.2,386.9l-25.9-134.5
	c9.2-0.7,13.6-7.1,6.6-15.6l1.4-1.1c3.6-2.9,5.1-7.7,3.6-11.8c-0.6-1.6-2.4-7.2-9.8-6.9c0.7-1.4,0.9-5,0.6-6.7
	c-0.2-1.1-0.7-2-1.6-3.2c-4-4.1-10.2-3.7-12.8-1.4c-0.7-3.6-4.2-9.9-10.3-10.5c-3.3-0.4-9.3,0.4-10.7,5c-1.8-1.7-6.6-3.2-9.6-3
	c-2.8,0.1-5.5,2.1-6.5,4.6c-1,2.6-1.4,6.5-1,10.3c0.9,8.3,2,15.4,3,18.3c0.8,2.6,0.9,3.1,0.6,4.1c-0.9,3-0.5,8.3,0.8,10.2
	c-20.4,19.4-24,30.2-27.4,36.3c1-13.3,3.5-27.9,6.6-39.1c4.3-16.2,7.4-23.2,10.5-31.9c3.5-8.5,10.8-21.2,14.3-27.4
	c2.3-4.1,4.2-6.9,8.6-13.2c2.9-4.2,4.8-3.8,5.5-3.6c2.1,0.5,16.4-3.2,26.4-6.8c12.3-4.4,28.3-12.1,34.9-16.6
	c5.7-4,10.3-8.6,12.3-12.3c1.4-2.5,2.2-6.2,1.9-8.4c-0.9-9.1-11.1-8.3-12.9-8.3c-6.2,0.3-14.6,3.5-22.9,8.6c-5,3.1-7.5,4.9-13,9.5
	c-1.9,1.6-3.6,3-3.7,3.1c-0.1,0.1,1.4-2.2,3.4-5.1c8.8-13,15.2-24,19.9-34.5c4.2-9.3,5.1-11.8,6.7-18.8c1.5-6.7,1.7-9,1.1-12.2
	c-1.3-6.4-8-8.4-14.4-4.1c-3.4,2.3-7.1,6.8-12.5,15.4c-8.1,13-12.4,22.4-18.6,40.8l-1.9,5.7l-0.2-2c-0.4-3.7-1.6-10.6-2.6-14.6
	c-2.7-11.2-7-20.2-11-23.4c-6-4.6-9.6-1.3-11.5,2c-2.1,3.8-4.2,13.3-4.3,20c-0.2,10,2.2,19.8,10,41.3l5.9,17.2
	c-4,5.2-11.9,16.7-15.6,25c-1.8,3.5-3.3,6.4-3.4,6.5c-0.1,0.1-0.1-0.8,0.1-2.1c0.8-6.1,1.2-15.5,0.8-22c-0.8-13.1-4.9-25.5-9.8-29.3
	c-2.4-1.9-5.5-2-8-0.3c-1.6,1.1-2.3,2-3.5,4.2c-2.8,5.3-4.3,16-3.9,27.4c0.2,5.3,0.5,8.4,1.5,15.7c1.1,7.5,1.8,11.3,4.3,22.2
	c2.2,9.6,3,12.4,4.2,14.7c0.4,1.9-0.2,4.3-0.5,5.5c-2.7,8-4.2,13.6-6.1,22.8c-1,5-2.1,10.8-2.4,13c-0.3,2.1-0.6,4.1-0.7,4.3
	c-0.1,0.2-0.5-1.5-0.9-3.9c-1-6.1-2.6-13.3-3.7-16.9c-2.9-9.5-5.1-20.6-12-21.9L232.6,12h106.7l37.6,211.6
	c-6.1-4.4-14.3-10-21.3-5.2c-1.6,1-2.9,3.4-3,5.6c-0.1,2.5,1.4,6.6,3.6,10.1c4.3,6.7,8.3,11.2,19.7,22.3
	c6.8,6.7,12.7,12.8,19.1,20.1c6.9,7.7,6.3,7.4,7.2,11.3c0.5,6.1,1.4,12.2,2.8,18.1c4.3,20.9,5.1,42.3,2.5,63.5
	c-0.5,8.1-1.9,27.5-0.8,35.6c-2.2-6.5-4.1-9.4-7.4-16c-1.1-2.6-3.5-7.9-2.9-10.8c2.7-10.1,3.6-17,3-23.4c-0.5-6-4.2-9.3-8.6-7.7
	c-3,1.1-3.5,0.8-8.7-5.5c-4.2-5-6.1-5.8-8.4-3.6c-0.8,0.8-1.1,1.6-1.2,3.6c-0.2,2.3-0.3,2.5-0.9,2.1c-2.7-1.9-6.1-3.7-7.1-3.8
	c-2.4-0.4-4.1,1.8-3.7,4.9c0.1,0.8,0.8,3.1,1.6,5.2c1.2,3.3,1.4,4,1.1,5.1c-0.6,2.1-0.1,3.8,1.5,6.3c0.8,1.2,1.4,2.3,1.4,2.4
	c0,0.1-0.4,0.4-0.7,0.5c-2,1.1-2.7,1.6-3.6,3c-1.2,1.8-1.5,4.2-0.9,5.9c1.1,2.8,5.9,6.1,11.4,7.5c3.5,0.9,15.2,3.2,18.1,3.3
	c0.9,0.2,1.7,1.9,4.5,7.7c4.4,8.9,7.1,16.4,9.3,25.6c0.4,1.8-1.6-0.7-2.8-2.4c-6.6-9.6-24-17.6-17.5-1.7
	c6.7,16.1,3.4,12.3,16.2,27.1c3.8,4.4,7.2,8.8,7.8,15.1c0.3,3.4-0.6,10.1-1.7,14.4h-47.2c12.7-8.8,13.6-27.8,13.4-35.9
	c-2.6-11.2-15.4,5.8-18.9,11.3c1.4-11.8,1.6-21.4,0-32.5c0.8,0.9,1,0.8,2.7,3c3.2,4.3,4.8,5.5,7.4,6.1c2.2,0.5,3.7,0,4.9-1.4
	c2.2-2.6,2-7.5-0.6-12.8c-0.5-1-0.9-1.9-0.8-2c0.1,0,0.9,0.3,1.9,0.8c2.5,1.2,6,1.8,7.5,1.3c3.1-1,4-4.1,2-7.6
	c-1.8-3.1-7.7-8.6-12.1-11.1c-3.3-1.9-8.7-4.6-12.9-4.9c-1.1-2.6-3.4-5.1-7.8-6.1c-5.8-1.5-10.6,2.3-10.3,5.3
	c-3.1-1-9.8-2.6-15.8-0.5C316.8,383.8,314,385.4,312.2,386.9z M314.6,399.7c1.5,0.8,7,0.5,7.1,0.5c-2.3,3.9-2.6,7.2-2,8.9
	c0.9,2.6,3.9,4,7.3,3.4c1.9-0.4,4.4-1.8,6.3-3.7l1.3-1.3c-0.3,2.9-1.5,8.6,2.8,12.5c6.1,4.5,10.8-3.9,10.9-4.6
	c0.4,1.5,0.5,1.6,0.9,5.4c0.4,3.6,0.4,9.8,0.2,14.5c-0.1,2.6-0.9,9.7-1,9.9c0,0-0.7-1.9-1.5-4.3c-0.8-2.4-2.2-6-3.2-8.1
	c-2-4.3-6.1-9.6-8.6-9.5c-2,0.3-3.4,2.3-4.1,7.4c-1.1,8.3-0.9,22.5,4.5,39.1h-7.3L314.6,399.7z"/>
<path class="st1" d="M906.1,459.4c-1.4-3.3-5.7-12.9-3.4-16c1.8,2.1,11.2,20.1,12.3,28.3C913.2,470,908.9,464.9,906.1,459.4z
	 M810.2,2.8c-0.8,0-1.5,0.6-1.9,1.3l-38.9,80l-36.8-80c-0.2-0.4-0.5-0.8-0.7-0.9c-0.4-0.3-0.9-0.5-1.4-0.5H575.6
	c-0.4,0-0.8,0.1-1.1,0.3c-1.1,0.7-1.4,2.1-0.9,3.2L690.2,238L559.5,481.1c-0.2,0.4-0.3,0.7-0.3,1c-0.1,1.2,0.8,2.5,2,2.6l140.7,0
	c0.2,0,0.3,0,0.4-0.1c0.7-0.1,1.2-0.6,1.5-1.2l55-109.2l49,109.1c0.4,0.8,1.2,1.4,2.1,1.4h152.9c1.1,0,1.8-1,1.9-1.1
	c0.4-0.7,0.5-1.6,0.1-2.4L838.9,223.5L952.5,6.4c0.6-1.2,0.2-2.7-1-3.3c-0.3-0.2-0.6-0.2-1-0.3L810.2,2.8z M717.7,380.1
	c1.7-10.1,3.7-16.3,10.7-32.9c2.6-6.1,4.9-11.8,5.2-12.7c0.7-2,0.7-2.3,0.1,5.8c-1.3,16.4-2,20.1-5.4,27.8
	c-2.4,5.5-4.6,9.1-9.8,16.3c-1.7,2.4-1.7,2.4-1.6,0.9C717.1,384.6,717.4,382.2,717.7,380.1z M703.4,365.2c-2.3-4.8-3.6-9.1-6.5-20.9
	c-3-12.1-4.7-17.9-6.8-22.1c-1.9-4-1.9-4,0.4-1.4c8.2,9.3,12.9,19.1,16.5,34.2c0.6,2.3,1.5,18.7,1.1,19.5
	C708.1,374.6,705.7,370.1,703.4,365.2z M694.4,230.1c-2.3-4-3.6-7.6-3.8-10.7c-0.1-2,1.2-1.5,4.1,4.4c2.6,5.5,4.4,9.6,2.6,10.6
	C697.1,234.2,695.7,232.3,694.4,230.1z M704,232.1c-0.1-3.5,0.3-10.9,0.7-11.7c0.1-0.3,7.7-2.8,7.7-0.5c0.2,0.6-1.3,5-2.4,7.3
	c-1.5,3.1-5.2,8.6-5.6,8.3C704.3,235.5,704.1,234,704,232.1z M697.6,211.8c0.3-2.5,0.8-5,1.1-5.5c0.4-0.8,0.6-0.8,1.8-0.2
	c1.7,0.9,2.4,1.9,3.3,4.6c0.6,1.3-0.2,2.6-1.3,2.8c-2,0.6-2,0.6-3.1,3.4c-0.6,2.5-1.4,2.3-1.8,1.2
	C697.1,216.8,697.1,215.4,697.6,211.8z M736,198.3c-0.7-3.4-0.6-5.8,0.5-12.1c1.7-9.5,1.8-11.4,1.1-26.3c-0.2-3.8-0.2-9.1,0-11.7
	s0.3-6.4,0.3-8.2l0-3.4l1.7,4.1c2.9,6.8,4.3,13.6,4.3,20.2c0,4.5-1.9,20.4-3.1,26.3c-0.7,3.4-3.2,13-3.6,13.8
	C737,201.5,736.4,200.3,736,198.3z M746.6,195.5c2.5-3.5,8-8.9,14.4-19.7c1.9-3.1,4.2-7.8,6.2-12.2c3.3-7.4,5.5-11.3,10-17.3
	c1.2-1.7,2.5-3.1,2.7-3.2c0.2-0.1-0.1,1.9-0.9,4.5c-4,14.7-8.5,24.1-17.9,37.3c-4.8,6.7-6.5,8.8-10.4,12.4c-2.6,2.4-4.6,4.6-6.7,5.2
	C743.9,202.6,745.2,197.5,746.6,195.5z M759.3,124.1c-1-3.4-0.8-6.2,0.6-9c1.1-2.3,4.3-7.3,6.1-9.8c0.7-0.9,2.2-2.7,2.2-0.5
	c0,2.1-2.5,8.3-4.3,14.1c-0.7,2.3-2,7.1-2.4,9.7C760.9,127.6,759.8,125.5,759.3,124.1z M768.9,124.1c0.7-2.4,1.3-3.5,2.5-5.1
	c2.1-2.7,12.2-13.1,12.6-12.9c0.4,0.2,0.2,2.3-0.4,4.3c-0.4,1.2-1.6,3.1-3.4,5.6c-3.3,4.4-12.1,13-12.1,11.9
	C768,127.5,768.4,125.8,768.9,124.1z M687.4,206.3L591.1,14.9h133.5l38.3,83.2c-8.5,7.9-10.2,17.8-10.3,21.5
	c-0.1,4.4,1.4,9,4.6,13.8l2.7,4.1l-2.6,5.9c-2.2,5.2-4.9,12.3-6.7,17.7l-0.6,1.7l-0.1-3c-0.3-7.2-1.7-13.8-4.6-20.9
	c-1.1-2.7-2.9-7.5-3.9-10.5c-2.9-8.7-5.2-11.4-8.1-9.7c-1.4,0.8-1.6,2-1.3,6.2c0.1,1.8-0.3,17.4-0.5,20.4c-0.4,7.1-0.4,9.4,0,18.6
	c0.5,10,0.3,13.8-1.1,21.2c-0.6,3.4-1.1,7.6-1.2,9.3c-0.1,3.9,1.7,9.6,4,13c0.9,1.4,1.7,2.8,1.6,3.3c0,0.4-1.6,5.4-3.5,11.2
	c-1.9,5.7-4.8,15.7-6.5,22.1c-3.5,13.2-10,40.8-11.3,48.1c-0.5,2.7-0.9,5-1,5.1c-0.5-1.3-0.6-2.2-1.2-5.2c-0.6-3-1.7-8.8-2.5-12.9
	c-1.7-8.2-2.9-16.4-3.5-23.8c-0.6-7.2,0.6-11.1,5.7-18.3c3.6-5.1,6.7-12.2,7-16.1c0.9-6.3-3.6-8.8-7.6-7.3l-0.9-3.5
	c-1.2-4.7-2.6-7-5.7-8.9c-2.9-1.8-5.5-2.5-7.6-1.9c-3.3,0.7-4.8,5.4-4.6,8.3C690.9,206.3,688.5,205,687.4,206.3z M694,255.8
	c1.4,1.7,2.7,3.2,3.6,4.5l2.9,4.1l-0.4-3c-0.2-1.7-1.2-11.1-1.4-14.3L694,255.8z M689.6,264.1c3.5,5.9,9.4,18.2,12.1,20.9
	c1.8,2.3,0.7-4.1-0.4-6.7c-3.2-8.4-5.1-11.1-10.4-16.7L689.6,264.1z M846.2,372.6c2.1-2.8,5.2-5.5,7.2-6.3c1.7-0.7,1.9-0.4,1.1,1.7
	c-0.7,1.7-1.4,2.5-3,3.7c-1.8,1.3-4.1,2.1-6.2,2.3C845.3,373.9,845.7,373.3,846.2,372.6z M830.5,369.1c-2.9-1.1-4.8-2.1-6.9-3.8
	c-3-2.3-5.5-6.3-4.3-6.7c0.9-0.3,5.2,1.7,8.7,4.2c3.1,2.2,7.9,6.8,7.8,7.5C835.7,370.7,832.8,370,830.5,369.1z M844.9,357.1
	c1.2-4.3,2.4-7.4,4.1-10.9c0.7-1.4,0.6,0.1-0.1,3.4c-0.8,3.8-2,7.2-4,11.4c-1,2.2-1.2,2.5-1.3,1.9
	C843.5,362.5,843.9,360.6,844.9,357.1z M825.8,337.3c-3.1-1.7-4.9-3-6.3-4.5c-1.3-1.4-3.3-4.2-3.2-4.5c0.2-0.8,4.1,1.3,6.7,3.6
	c1.2,1.1,5.2,5.5,6,6.7C829.3,339.1,828.6,338.8,825.8,337.3z M835.8,331.3c-0.4-2.1-0.4-2.4,0.5-6c0.5-2.1,1.2-4.7,1.6-5.7
	c1.2-2.9,3.6-6.5,4.3-6.3c0.1,0,0.3,0.8,0.4,1.7c0.1,1.4-0.1,2.6-1.1,7.1c-1.2,5.2-1.3,5.6-2.8,8.5c-2.1,4-2,3.9-2.2,3.4
	C836.3,333.7,836.1,332.5,835.8,331.3z M819.3,306.3c-2.1-1.6-2.9-2.5-3.5-3.7c-0.5-0.8-0.8-1.6-0.8-1.7c0.1-0.3,1.9,0.7,3.4,2
	c1.3,1.1,4.5,5,4.8,5.9C823.2,309.3,822.2,308.6,819.3,306.3z M830.2,296.4c0.8-5.2,2.3-10.2,3.1-10c0.9,0.2,0.4,5.3-0.8,8.7
	c-1,3-2.6,6.3-2.8,6C829.6,301,829.8,298.9,830.2,296.4z M817.8,277.4c-0.9-1.4-1.7-4.7-2.1-7.8c-0.4-3.4-0.1-3.5,1.6-0.8
	c1.3,2,1.8,3.7,2.2,7.1c0.2,1.7,0.1,2.3-0.2,2.5C818.8,278.8,818.6,278.7,817.8,277.4z M849,458.2c0.8-3.5,1.5-11,1.5-14
	c-0.1-4-0.6-6.9-1.7-9.8c-1.1-2.8-3.4-5.4-4.1-4.1c-0.5,0.9-0.7,3.5-0.5,6.3c0.2,3.1,1.7,13.1,2.9,18.9c0.5,2.6,1,5,1,5.2
	C848.1,461.6,848.4,460.9,849,458.2z M837.2,461.2c-5.3-6.3-10.5-11.3-14.7-14.4c-2.9-2.2-6.5-4.3-6.5-3.9c0,0.8,6.1,7.1,11.5,12
	c3.3,2.9,11.9,9.6,11.9,9.1C839.4,464,838.4,462.7,837.2,461.2z M825.2,422.9c0.7-0.5,1.6-1.4,1.9-1.9c0.5-0.9,0.5-1,0-1.5
	c-0.3-0.3-2-1.3-3.7-2.2c-3.1-1.7-3.1-1.7-4-1.2c-2,1.2-1.9,1.1-0.6,5.1c1.3,3.9,1.5,4.1,3.5,3.3
	C823.2,424.1,824.5,423.4,825.2,422.9z M805.9,421.1c0.7-0.5,1.4-1.2,1.7-1.6c1-1.4,2.4-4.4,2.3-4.8c-0.3-0.8-9.6-2.7-10.9-2.2
	c-0.7,0.3,0,3.9,1.3,6.6c1.3,2.9,1.6,3.2,2.6,3.2C804,422.3,804.5,422.1,805.9,421.1z M830.1,406c0-0.4-0.7-2-1.4-3.6
	c-1-2.4-1.5-3.1-2.3-3.9c-1.2-1.1-1.8-1.1-3.1,0.4c-0.9,1-3.5,6.8-3.3,7.3c0.2,0.5,1.2,0.7,4.6,0.9
	C829.3,407.4,830.3,407.2,830.1,406z M810.5,406.5c1-1.1,0.9-1.7-0.8-6.2c-1.5-3.8-1.9-4.3-3.6-4.1c-1.8,0.2-3.3,1.1-3.6,2.2
	c-0.3,0.9-0.3,1.1,0.5,2.7c0.5,1,1.3,2.2,1.9,2.8c1,1,4.6,3.6,4.8,3.6C809.7,407.4,810.1,407,810.5,406.5z M866.7,466.1
	c3.3-6.7,8.5-12.6,10.2-11.7c1.9,1-0.2,5.4-4.3,9c-2.1,1.9-6.9,5.5-7.1,5.4C865.5,468.7,866,467.5,866.7,466.1z M880.4,441.1
	c0.9-0.4,1.5-1.9,1.4-3.6c-0.2-2.5-2.6-8.3-3.6-8.5c-1.1-0.2-2.8,4.6-2.5,7.3c0.2,1.6,0.8,3.1,1.6,3.8
	C878.2,441,879.7,441.5,880.4,441.1z M868.8,424.1c1.7,0.3,2.8,0.1,3.3,0c-0.3-3.8-8.5-11.3-11.7-9.5c-1.1,0.9,0.7,5.4,3,7.4
	C864.5,423,866.9,424,868.8,424.1z M896.7,424.7c0.6-0.5,0.6-0.7,0.5-1.6c-0.2-1.2-1.8-3.4-3.2-4.2c-2-1.1-4.7-0.9-7.8,0.7
	c-2.3,1.2-2.3,2.4-2.1,3.7c0.1,0.3,3.5,1.9,4.8,2.3C892.7,426.8,895.9,425.4,896.7,424.7z M879.8,415c1.8-5.3,1.8-7.7,0-9.7
	c-2.3-2.6-3.9-2.6-4.9,0.1c-0.7,1.8-0.9,4.2-0.5,7.4c0.2,2,1.3,6.6,1.6,6.7C876.9,419.7,878.8,417.5,879.8,415z M784.2,257.4
	c7.7-7.3,11.7-10.7,14.3-12.2c1.2-0.7,3-0.5,3.8,0.3c1.2,1.2,1.4,1.6,1.1,2.6c-0.6,1.7-4.2,5.4-6.9,7.2c-2.4,1.5-17.7,8.2-17.9,7.8
	C778.5,262.9,781,260.4,784.2,257.4z M772.8,251.9c1.1-3.8,2.4-7.9,2.9-8.9c0.9-1.7,1.2-2,3.5-2.9c1.4-0.5,4.9-2.3,7.7-3.9
	c6.4-3.7,7.4-4.1,7.5-3c0.1,1.2-2,5.3-4.4,8.4c-1.1,1.5-4,4.7-6.4,7l-13.8,13.7L772.8,251.9z M775.1,271.7c0-0.1,3.4-1.1,7.4-2.2
	c4-1.1,8-2.2,8.8-2.5c3.6-0.4,2.4,6,0,6.6c-4,1-9.8,0.4-16-1.7C775.2,271.9,775.1,271.8,775.1,271.7z M741.8,279.6
	c0.5-1.9,2.3-7.1,4-11.6c2.9-7.8,6.1-17.5,6.4-19.5c0.4-2.2,0.2,2.2-0.2,7.2c-0.9,10.3-4,19-9.9,28.4l-1.9,3
	C740.3,285.6,740.9,282.2,741.8,279.6z M623.4,464.9c-3.7-4.9-5.4-15.4-5.4-21.5c0-6.1-0.4-6.3,4.8,2.6c5,8.6,6.6,12.2,7.8,17.5
	c0.4,1.8,1.8,9.1,1.8,9.2C631.3,472.4,624.6,466.5,623.4,464.9z M644.3,443.8c1.2-2.6,4.4-8.3,4.6-8.3c0.4,0-0.4,8.8-1,11.7
	c-1.3,5.7-3.7,18.9-7.6,25.4h-2.7C636.7,469.3,641.7,449.4,644.3,443.8z M645.9,418c-1.6-2.2-2.7-9.1-2.2-14
	c0.3-3.2,1.7-8.9,1.9-7.5c0,0.5,0.5,2.1,0.9,3.6c2,6.7,2.4,13.4,1,17.3C646.9,418.9,646.6,419,645.9,418z M623,416.1
	c-0.1-1.1,1.4-4.4,3.1-6.9c2-3.1,5.1-6.6,9-10.2c1.8-1.7,3.5-3.3,3.8-3.6c0.6-0.6-2.2,4.5-4.7,8.6c-2.9,4.7-7.2,10.2-9.5,12.1
	C623.2,417.1,623,417.1,623,416.1z M662.3,411.3c-2.3-1-8-8.8-10.6-14.5c-0.4-0.9-0.7-1.5,0.8-0.1c4.1,3.4,5.2,4.4,6.7,6.3
	c2.4,2.9,3.2,4.2,3.8,6c0.5,1.4,0.5,2.6,0.1,2.6C663.2,411.7,662.8,411.5,662.3,411.3z M670.3,399.4c-2.7-0.4-10.1-3.9-13.3-6.4
	l-1.7-1.3c2.3-0.6,7-1,9.5-0.6c2.5,0.3,4,0.9,6.6,2.3C676.8,396.7,676.2,400.3,670.3,399.4z M619.5,396.8c2.4-2.1,4.5-3.1,6.8-4.2
	c2.1-1,7.2-1.6,7.7-1.5c0.7,0.2-8.6,6.3-12.4,8.1c-1.4,0.7-5.2,2.2-5.7,2.2C615.5,401.5,618.6,397.7,619.5,396.8z M647.8,472.7
	c9.4-14.9,6.9-30.2,6.7-38.8c-0.2-5.3-3.2-8.2-6.6-5.9c-1.1,0.6-10.4,12.9-11.8,20.4c-0.1-0.2,0-7.9,0.2-10.6
	c0.2-4.9,0.9-11.2,1.7-14.9c0.8-3.8,0.8-3.9,1.4-5.4c0.1,0.8,3.9,9.8,10.4,5.8c4.7-3.6,4.1-9.5,4.1-12.5l1.2,1.5
	c1.7,2.1,4,3.9,5.8,4.4c3.3,1,6.4-0.1,7.6-2.7c0.8-1.7,0.5-5.7-0.5-7.8c-0.4-0.8-0.6-1.5-0.6-1.5c0,0,0.7,0.1,1.6,0.2
	c2,0.4,5.6,0.2,7.1-0.5c1.5-0.6,3.4-2.5,4.1-4c2-4.7-1.8-10.2-9.2-13.3c-5.7-2.7-12.6-1.8-15.8-1.1c0.7-3.1-3.7-7.4-9.7-6.5
	c-4.4,0.6-7,2.9-8.4,5.4c-4.2-0.1-10.6,0-14.2,2.9l63.2-117.5c3.1,5.4,5.8,10.1,7.6,13.5c1.2,2.2,3.3,5.2,4.8,6.9
	c2.8,3.1,6.8,6.7,7.5,6.6c2.4,4.1,1.9,11.7,1.4,21.3c-0.2,3.4-1.2,7.2-0.2,15.7c-3.1-7.5-8.7-14-12.7-18.6
	c-3.9-4.4-7.4-6.8-10.6-6.8c-2.2-0.1-5.3,3.1-3.5,6.4c2.7,5.5,3.6,7.5,5.7,12.8c1.9,4.5,3.1,9.1,6.4,22.8c1.1,4.6,2.5,9.7,3.1,11.3
	c2.1,5.7,9,19.3,12.2,24c1.9,2.8,2.1,5.1,1.7,18.5c-0.6,17.9-2.5,26.7-7.1,48.9c-2-9.9-4.4-21.3-5.2-28.5c1.2-0.6,1.7-1.2,2-6.4
	c0.5-7.1-5.3-26.8-13.1-40.1c-2.2-3.2-7.5-6.1-6.2-1.9c2,5.7,3,11.7,3,17.8c-0.5,7.9-1,13.1-1.2,23.6c-0.6,8.5,6,9.2,9.1,9.3
	c0.4,9.3,3.8,25.9,6,33.7l-9.8-13.7c1.8-3-1.4-12-9.3-7.8c-6.5,3.3-4.2,14.1,5,12.6c0.9,1,7.4,16.2,4.7,20.4H647.8z M619,472.7
	h-41.6l35.1-65.3c1.5,0.6,3.1,0.6,8.9-1.8c-3.2,5.9-4.9,12.1-3,15c1.1,1.6,2.6,2.2,4.8,2c2.6-0.3,4.3-1.5,8-5.5c2-2.1,2.2-2,3-2.8
	c-2.8,11.2-3.6,21.1-3.4,33.3c-3-6-14-24.6-17.7-13.5C612.1,442.4,608.6,462,619,472.7z M940.5,458.3c-2.1,5.6-5.2,8.7-8.4,14.4
	h15.4L940.5,458.3z M929.4,435.5L825.7,223.3l109-208.4H816.2l-42.3,87c0.7,0.6-0.5,4.8-0.7,5.5c2.4-2.5,6-7.7,10.8-9.5
	c3-1,5.4,1.4,6.1,6.1c1.2,8.3-3,15.4-16,27.3c-8.1,7.4-8,7.2-11,14.2c-3.2,7.4-4.5,10.8-8.3,23.2c-1.7,5.2-3.2,10.3-3.1,10.4
	c2.1-1.9,7.5-12.1,10.8-19.5c3.9-8.6,7.4-14.4,13.4-21.6c2.2-2.6,4.6-5.6,5.5-6.7c2.3-3,5.1-3.3,6.5-0.7c1.2,2.3-2.4,18.5-6.5,29.9
	c-4,10.8-7.4,17.1-15.9,29.1c-5.4,7.6-9.7,12.2-15.2,16.2c-2.1,1.5-5,3.7-6.4,4.8l-2.7,2l-3.2,9.8c-4,12.1-7.9,26.7-12.8,47.6
	c-4,17.1-5,22.1-6.7,32.6c-0.9,5.5-3.6,26.9-3.4,27.5c1.4-2.9,1.8-3.6,4-8.1c4.1-8.5,6.9-13,12.5-20.3c0.8-1.2,2.7-3.2,2.3-6.2
	c-0.2-3.5,0.9-11.4,2.4-17.2c0.6-2.4,2.6-8.2,4.3-12.9c1.7-4.7,3.7-10.3,4.3-12.4c1-3.4,5.4-20.7,5.8-22.7c0.2-1.3,2.8-1.9,4.4-1.1
	c1.5,0.8,2.3,3.3,3.1,10c1.4,12.4-0.5,26.8-4.9,37.3c-1,2.3-1.5,4-1.2,3.8c0.3-0.2,3-2.8,6.1-5.8l5.5-5.4l0-2.4
	c0.1-4,4.9-22.3,7.1-26.9c1.6-3.2,2.6-4.1,6.1-5.5c1.3-0.5,5.1-2.5,8.5-4.3c7-3.9,9.4-4.5,12.1-3.2c2.8,1.4,5.6,6.8,1.4,12.6
	c9.4,0.4,10.4,3.6,11.2,5.7c0.6,1.7,0.6,1.8-1.2,5.4c-2.1,4.2-4.5,7-8.5,9.6l-2.4,1.5c2.8,2.7,3.7,9.6,0.7,14
	c-1.4,2.8-5.8,4.6-11.4,4.6c-4.1,0-8.1-0.8-14.6-2.9c-2.9-1-5.8-1.8-6.3-1.8c-0.7-0.1-2,0.9-5.1,4.1c-2.3,2.3-6.9,6.8-10.2,10
	c-10.7,10.2-14.8,14.9-19.9,22.7c-4.7,7.2-6.5,10.5-9.7,18.3c-7.2,17.3-7.9,20.5-7,29.6c0.5,5.1,0.6,5,2.9-1.5
	c2.3-6.3,9.8-24.2,14.2-33.7c2.6-6.8,7.3-11.7,9.3-8.5c0.7,1.1,0.6,4.8-0.4,17.3c-0.4,4.2-0.8,9.6-0.9,12
	c-0.3,5.1-1.2,11.5-2.4,16.3c-0.6,2.7-1.6,5-4.6,11.2c-3.4,6.9-4.3,8.4-8.6,14.4c-2.7,3.7-5.5,7.7-6.4,8.9
	c-1.7,3.1-0.9,22.2-5.7,45.1l47.9-95L816,472.7h20.2c-7.1-4.6-29.2-24.7-28.2-34.1c0.2-2.2,2-3.7,4.1-3.5c2.3,0.2,10.1,4.5,14.7,8
	c2.8,2.2,4,3.2,7.3,6.6l2.8,2.8l-1.1-2.2c-3.8-7.9-8.2-16.4-9.9-18.8c-1.2-1.7-1.4-1.8-2.9-1.4c-2.9,0.7-4.9,0.2-6.8-1.7
	c-0.9-0.9-1.3-1.5-2.2-3.9c-0.6-1.6-1.2-2.8-1.2-2.8c0,0-0.4,0.5-0.8,1c-1.9,2.6-6,5.1-8.9,5.2c-2,0.1-4.5-0.9-5.7-2.2
	c-1.2-1.3-3.6-6.9-4.1-9.5c-0.4-2.1-0.3-5,0.3-6.2c0.9-1.7,2.9-3.1,4.9-3.1c0.5,0,0.9-0.1,1-0.2c0-0.1-0.4-0.8-1-1.6
	c-2.8-4-2.4-9,0.8-11.8c1.3-1.1,4.3-2.4,6.2-2.6c2.6-0.3,5,0.6,6.8,2.6c0.4,0.4,1.4,2.3,2.2,4.1l1.5,3.4l1.1-2.3
	c1.8-3.7,4.2-5.9,6.9-6.3c3.8-0.6,7.3,2.2,9.8,7.6c1.2,2.6,2,5.8,1.9,7.3c-0.3,2.9-2.1,4.8-5.2,5.5c-1,0.2-2.1,0.4-2.5,0.4
	c-0.7,0-0.7,0,0.6,0.9c3.2,2,4.8,4.3,4.6,6.8c-0.1,1.5-1.4,3.9-2.7,5.2c-1.1,1.1-1.1,1.2-0.3,2c0.9,1,3.7,5.9,6,10.4
	c3.3,6.5,3.2,6.4,2.7,2.8c-1-7.8-1.6-16.3,4.3-17.2c0.4-21.6-5.4-44.3-7-47.7l-3.5-0.8c-6-1.4-11-4-14.5-7.6
	c-3.4-3.5-5.1-7.4-4.4-10.4c0.7-3.2,3.3-4.4,7.6-3.5c2.9,0.6,9.8,4,13.5,7c0.1-4.2-1-11.7-1.8-15.3l-2.2-0.5
	c-3.4-0.8-9.8-4.1-13.2-6.8c-3.7-3-6.8-7.7-7-10.7c-0.2-3.4,2.9-5.4,7.1-4.5c2.6,0.6,7.7,4,10.7,7.2c0.8,0.8,1.5,1.4,1.5,1.2
	c0.3-0.4,0-2.2-1.5-8.8L827,316l-2.1-0.6c-2.7-0.8-4.1-1.5-7.2-3.7c-3.3-2.3-4.5-3.5-6-5.7c-2.4-3.5-2.8-7.7-0.9-9.3
	c1.4-1.2,5-4,11.7,2.9l-3.3-13c-2.1-0.9-5.7-4.7-6.9-8.6c-1.6-4.3-2.4-11-1.5-13.6c0.8-2.3,2.9-3.5,5.6-2.8c3.5,0.8,7,5.7,7.9,11.4
	c0.5,2.6,1.5,10.4,0,12.5l1.4,5.9l0.8-2.5c1.7-5.5,4.3-8.4,7.2-8.3c2.3,0.1,4.5,2.8,4.9,6c0.8,5.5-1.3,12.3-6,20.3
	c-0.9,1.5-1.7,2.9-1.7,3.1c-0.1,0.5,1.7,8,1.9,8c0.1,0,0.5-0.7,0.9-1.6c1.8-4,4.8-7.4,7.1-8.2c1.2-0.4,1.6-0.4,2.9,0
	c4,1.2,4.9,6.1,2.9,15.3c-1.2,5.4-1.7,6.5-5.8,14.1l-2.8,5.2c0.6,3,1.7,6.5,1.8,12.9c0.1,0,0.5-1.4,1.1-3c1.6-5,3.6-9,5.5-11.3
	c1.5-1.9,3.1-2.6,4.8-2.2c2.1,0.5,4.8,2.2,3.3,10.5c-0.8,3.7-1.6,8.9-4,12.5c5.2-2.2,7.5-0.6,8.1-0.1c1.5,1.2,2,2.9,1.5,5.5
	c-0.6,3.8-2.8,13.1-16.7,11.8c5.7,18,6.7,27,6.9,47c1.9,1.7,3.8,5.5,4.8,9.8c1.2,4.8,2,14.9,1.1,22.2c1-3.2,3.3-10.5,4.8-14
	c2.2-5.9,4.2-10,6-12.6c0.7-0.9,1.2-1.7,1.2-1.8c-2.8-0.3-6.6-1.9-8.2-3.3c-2.9-2.5-5.3-7-5.5-10.3c-0.1-1.8,0.7-4.1,1.7-5.2
	c0.9-0.9,4.2-5,12.5,1.6c-1.9-6.5,0.8-9.6,2.7-12c0.9-1.2,4.3-2.7,5.8-2.5c3.8,0.4,7.8,3.7,9,7.4c0.6,1.9,0.7,4.2,0.3,6.4l-0.3,1.8
	l1.2-0.4c5.9-1.8,12,1,14.6,6.7c1.1,2.5,0.6,7.2-1.5,9c-2.8,2.4-8.9,3.4-13,2.1l-1.9-0.6l0.7,1.6c0.7,1.8,1.3,4.4,1.3,5.9
	c0,1.7-0.6,3.9-1.5,5.4c-4,6.5-13.6,3.5-15.5-4.7l-0.3-1.6c-3.3,7-7,17-8.3,22.8c1.5-0.7,4-3.4,4.9-4.5c3.1-4,6.3-6.3,9.1-6.6
	c2.8-0.3,5,1,6.4,3.4c2.2,4,1.5,14.4-10.8,20.5l35.5,0c-3.7-4.1-8.1-13.9-10.2-20.7c-2.2-7.4-0.1-15.4,2.7-16.6
	c9.9-3.9,15.1,18.3,18.8,25.9C919.1,454.1,927.2,439.2,929.4,435.5z M936.4,449.9c-0.8,1.8-9.1,19.4-13.2,22.2
	c-1.3-3.6,1.7-13.2,2.8-16.6c1.3-4.1,3.8-9.1,6.6-13.5L936.4,449.9z"/>
<path class="st2" d="M1409.9,2.8c-1.1,0-2.2,1.2-2.1,2.4l0,121.1c0,1.2,1.1,2.2,2.3,2.2h147.6l-162.9,257.9l-0.2,0.3
	c-0.1,0.3-0.2,0.6-0.2,0.9l0,94.8c0,0.5,0.2,0.9,0.5,1.3c0.5,0.6,1.4,0.9,1.8,0.9h341c0.9-0.1,1.8-0.7,2.1-1.6
	c0.1-0.3,0.1-0.6,0.1-0.8v-121c0-1.3-1.1-2.3-2.3-2.3H1572l161.8-256.7c0.1-0.1,0.1-0.2,0.2-0.3c0.1-0.3,0.2-0.6,0.2-0.9v-96
	c0-1.3-1.1-2.3-2.3-2.3L1409.9,2.8z M1413.1,438.9c1-7.1,3.5-10.7,7.1,0.5c3.5,10.9,4.4,15.3,4.8,21.7c0.1,2.1-1.3,11.4-1.3,11.5
	C1408.6,460.9,1412,446,1413.1,438.9z M1433.7,458.8c1.4-5,4.6-12.2,8.1-18.2c1.7-2.9,5.7-9,6-8.9c0.4,0-1.9,10.1-3,13.5
	c-2.2,6.4-6,20.5-11,27.5h-3.5C1430,471.5,1432,463,1433.7,458.8z M1447.7,410.8c-1.2-2.8-1.2-11,0.2-16.7c0.9-3.6,3.2-10,3.1-8.4
	c0,0.6,0.1,2.5,0.3,4.4c0.9,8.1,0.1,16-2,20.3C1448.5,411.9,1448.2,412,1447.7,410.8z M1425.4,404.7c0.1-1.3,2.1-4.9,4.2-7.6
	c2.5-3.3,6.2-6.8,10.6-10.4c2-1.6,4-3.3,4.4-3.6c0.7-0.6-2.9,4.9-6.1,9.2c-3.7,5-8.9,10.6-11.5,12.4
	C1425.5,405.8,1425.3,405.8,1425.4,404.7z M1465,405.8c-2.1-1.6-6.4-11.6-8-18.7c-0.2-1.1-0.4-1.8,0.8,0.1c3.5,4.6,4.4,6,5.6,8.5
	c1.9,3.8,2.4,5.4,2.7,7.7c0.2,1.7,0.1,3.1-0.3,3C1465.8,406.3,1465.4,406.1,1465,405.8z M1474.9,393.3c-2.6-0.9-9.3-6.3-12-9.7
	l-1.5-1.8c2.4-0.4,7.1,0,9.4,0.9c2.4,0.8,3.8,1.7,6.1,3.9C1481.8,391.3,1480.6,395.3,1474.9,393.3z M1422.7,384.7
	c2.7-2.1,6.5-4.3,9-5.3c2.3-0.9,8.4-2.2,8.8-2c0.7,0.4-9.5,5.8-13.6,7.3c-1.5,0.5-5.5,1.6-6,1.6
	C1420.5,386.3,1421.6,385.5,1422.7,384.7z M1575.7,288.7l4.6-2.3c5-2.5,9.6-4.1,13.4-4.8c3-0.5,4.9-0.2,6.9,1.2
	c1.7,1.2,5.4,5.7,2.9,6.8c-2.1,1.6-7.3,2.9-11.5,2.8C1586.3,292.5,1578,290.7,1575.7,288.7z M1571.3,279.2l1.2-3.8
	c0.7-2.1,1.4-4.5,1.6-5.3c0.5-1.9,2.1-4.3,3.6-5.4c0.6-0.5,1.9-1.1,2.8-1.4c1.4-0.4,2-0.5,4.1-0.2c2.2,0.3,2.6,0.4,4.2,1.4
	c1.7,1.1,3.7,3.5,3.6,4.3c-0.2,1.8-3.8,4.7-12.2,10l-5.9,3.7C1573.7,281.3,1572.3,279.7,1571.3,279.2z M1559.4,273.4
	c-0.5,0-0.8-1.6-2.3-10.8c-1.1-6.6-1.2-9.1-0.8-11.5c0.5-2.2,6.3-1.6,7.7-0.7c1.8,1.2,4.1,4.2,4.8,6.4c1.2,3.5,1,8.3-0.5,11.7
	c-0.4,1-1.9,5.5-2.7,7.3C1564.7,273.8,1560.5,273.3,1559.4,273.4z M1594.3,275.7c1.4-1.7,3.9-5.2,3.9-7.7l1.4-0.5
	c3-1,6.3,0.4,7.3,3.1c0.4,1,0.1,2.8-0.6,3.9c-0.6,0.9-2.9,3-3.4,2.9C1601,276.1,1596.6,275.6,1594.3,275.7z M1575,258.7
	c-0.3-2-1.5-6-2.5-7.3c-0.5-0.7-0.6-1-0.3-2.1c0.7-3,3.7-4.2,6.9-2.7c2.1,1,4.2,7.1,4,10.7C1580.9,256.5,1577,257.8,1575,258.7z
	 M1589.5,258.4c-0.3-0.3,2.1-3.2,3.1-3.7c0.8-0.4,1.3-0.4,2.2-0.2c1.7,0.4,2.5,1.5,2.2,3c-0.2,1.2-2,4.3-2.4,4.3
	C1593.7,259.8,1589.6,258.5,1589.5,258.4z M1518.9,466.9c-3.5-7.6-7.7-14.6-13-22c-9-12.4-13.7-20.8-14.5-25.5
	c-0.9-5.5-0.2-9.9,1.7-10.8c2-0.9,6.5,1.5,10.6,5.5c4.5,4.3,10,15.1,12.7,24.7c2.4,8.4,4.1,18.5,3.9,23.2c-0.1,2.9-0.5,6.4-0.6,6.4
	C1519.7,468.5,1519.3,467.8,1518.9,466.9z M1529.8,452.4c3.3-18,9.2-36.8,15.7-49.9c2-4.1,5.7-10.4,8.4-14.3
	c4.6-6.7,11-13.9,14.1-15.9c0.5-0.2,1.2,0,1.2,0.7c-0.4,5.8-6.9,23-15.3,40.7c-5.3,11.1-8.7,17.3-17,30.7c-2.6,4.2-5.3,8.5-6,9.7
	s-1.4,2.2-1.5,2.1C1529.2,456.2,1529.4,454.5,1529.8,452.4z M1514.7,366.1c-5.9-4.7-7.8-6.4-13.9-12.4c-11.2-11.1-15.1-16-17.9-21.9
	c-2.3-4.9-3.4-10.9-2.1-11.8c1.5-1,10.1,4.7,16.2,10.7c7.3,7.2,16.2,19.5,22.1,30.4c3.6,6.7,3.9,10.8,4,11.1c0,0.4-0.3,0.3-1.7-0.9
	C1520.4,370.5,1517.4,368.2,1514.7,366.1z M1529.2,369.7c0.3-1.2,1.5-5.5,2.6-9.7c1.1-4.1,2.3-8.5,2.8-9.7c2-5.1,6-12.5,8.6-15.7
	c2.6-3.3,6-6,6.9-5.4c0.9,0.6,0.2,5.5-1.3,9.3c-1.8,4.6-5.9,12.6-9.4,18.2c-4,6.6-10.1,15.3-10.6,15.2
	C1528.7,371.9,1528.8,371.1,1529.2,369.7z M1515.2,340.8c-2.9-6-4.1-9.7-8.1-27.1c-1.9-8-3.1-17.9-3.2-24.7c0-3.2,0.8-9.5,1.3-9.4
	c0.6,0.1,2.6,2.7,3.7,5c3.9,7.5,6,13.9,8.5,26.2c2.1,10.6,3.1,17.1,3.8,26c0.4,5.5,1,15.4,0.9,15.9
	C1522,353.2,1517.2,345,1515.2,340.8z M1534.7,256.1c-3.3-13.3-4.5-19.3-5.8-28.9c-1.6-11.7-1.2-19.5,0.7-27.6
	c0.9-4,2.9-7.6,4.8-6.4c1.6,1.5,3.1,3.9,4.5,8.6c3.3,11.3,3.7,25.5,1.3,42c-0.8,5.1-3.5,19.5-3.7,19.3
	C1536.4,262.9,1535.6,259.8,1534.7,256.1z M1577.3,203.8c3.6-3.9,16.1-15.9,23-21.9c10.4-9.3,17.5-13.9,26.6-17.1
	c3.8-1.4,6.6-1.8,9.2-1.3c3.8,0.7,4.9,2.3,4,5.8c-1.6,5.9-8.8,12.3-21.1,18.9c-8.7,4.6-19.2,9.3-27.7,12.3c-4,1.4-14.1,4.4-14.5,4.3
	C1576.5,204.7,1576.8,204.3,1577.3,203.8z M1581.5,174.2c7.3-25.2,11.1-35,19.2-49.2c6.3-11.1,10.5-16.2,13.9-17.2
	c2.3-0.6,3.2,0.2,3.5,3c0.9,9.3-6.5,28.8-19,50.1c-5.3,8.9-15,28.9-22.2,33.7C1577.6,189.4,1579.9,179.2,1581.5,174.2z
	 M1596.6,297.9l-46.1,73.1h9.8c-3.1,3-6.3,7.3-9.6,11.9c-8.3,11.6-14.1,23.6-19.3,40.1c-1.1,3.5-2.1,6.7-2.3,7.1
	c-0.2,0.4-0.2-1.8-0.1-5.4c0.2-9.6,0.4-30.4,0.2-37.7l-0.1-6.6l1.2-1.1c3.6-3.3,12.9-17,17.9-26.2c4.7-8.7,6.7-13.3,7.6-18
	c0.8-4,0.8-6-0.3-8c-3.4-6.9-12-3.6-19.1,7.5c-1.9,3-4.4,7.6-6,11.2c8.2-25,16.4-39.4,31.1-52.5c2.6,1.6,8.5,2,11.6,1.4
	C1580.4,300.9,1591.8,298.5,1596.6,297.9z M1521.7,207.7c0.3,5.3,1.2,18.6,2.4,25.8c1.2,7.5,2,11.2,4.7,22.1
	c2.4,9.5,0.2,33.8-1.5,43c-0.9,5-1.9,10.9-2.1,13c-0.3,2.1-0.5,4.1-0.6,4.3c-0.1,0.2-0.5-1.5-1-3.9c-1.1-6.1-2.8-13.2-4-16.8
	c-3-9.4-7.2-17.2-10.5-19.8c-4-3-8-1.6-9.6,3.3c-1.1,3.5-1.4,11.4-0.7,18.4c0.8,7.9,1.7,13,4.5,24.4c1.1,4.4,2.1,8.5,2.2,9l0.2,1
	l-1.1-1.2c-4.1-4.6-9.3-9.1-14.2-12.2c-5.9-3.9-9.3-4.6-12.4-2.8c-5.1,3.1-4.2,12.2,2.1,22.9c2.8,4.8,8.5,11.2,19.1,21.7
	c4.5,4.4,5.7,5.5,12.9,11.2c8.5,6.7,11.3,9.3,11.3,10.4c0.3,4,0.2,32.8-0.1,43.3c-0.2,6.4-0.6,13.4-0.8,13.5c-0.1,0.1-0.5-1.2-1-2.8
	c-1.2-3.8-4-10.5-6.2-14.6c-4.2-8-9.8-13.9-16-16.8c-4.7-2.2-9-1.4-11.7,2.1c-0.8,1.1-1,1.5-1.7,4.9c-0.6,3.3-0.7,4.1-0.5,6.3
	c0.7,7.4,3.6,13.1,14.8,29.1c7.4,10.6,10,17.8,13.5,26.1h-70.5c7.9-11.2,9.3-34,10.5-44.1c0.7-6.2,0.8-6.4,0.3-7.3
	c-0.7-1.3-2.2-2-3.3-1.5c-1.2,0.5-6.5,6.7-9.6,11.1c-1.5,2.2-3.9,6-5.3,8.6c-1.4,2.6-2.6,4.6-2.6,4.6c-0.1-0.2,1.2-8.7,1.7-11.9
	c1.1-5.7,2.8-12.9,4.2-17c1.4-4.3,1.5-4.4,2.3-6.1c0,0.9,2.2,12.1,9.3,8.6c5.3-3.4,5.7-10.4,6.2-13.9l0.9,1.9c1.3,2.8,3.2,5.2,5,6.2
	c3.1,1.7,6.3,1,8-1.9c1-1.8,1.5-6.5,0.8-9.2c-0.2-1-0.4-1.8-0.3-1.9c0,0,0.7,0.2,1.5,0.5c1.9,0.8,5.5,1.2,7.1,0.7
	c1.6-0.5,3.8-2.3,4.7-3.9c2.8-5.1,0-12.2-6.8-17.1c-5.2-4.1-12.1-4.2-15.4-3.9c1.2-3.5-2.4-9.3-8.4-9.2c-4.5-0.1-7.4,2.2-9.2,4.9
	c-4.1-0.9-10.1,0.7-13.8,2c-4.9,1.7-12.1,6.4-14.7,9.5c-2.8,3.5-2.9,7.4-0.2,9.5c1.3,1,4.8,1.3,7.6,0.6c1.1-0.2,2-0.4,2-0.3
	c0,0.1-0.6,1-1.4,2.1c-4,5.5-5.6,11.1-4.1,14.8c0.8,2.1,2.2,3.1,4.4,3.1c2.7,0.1,4.5-1,8.8-5c2.3-2.2,2.5-2,3.5-2.8
	c-4.6,12.6-7.1,23.9-9,38.2c-1.9-7.5-10.3-30.8-15.9-18.5c-1.5,3.8-4.7,10.6-5.9,15.6l0-49.1L1521.7,207.7z M1568.5,133.5l10.7-17
	h-159.8V14.9h303.1v83.3l-109.7,174c0.4-4.1-4-10.1-10.7-10.4c0.6-1.4,2.1-7.1-1.2-9.8c-4-4-10.1-3.5-12.7-1.2
	c-0.8-3.6-4.3-9.9-10.4-10.3c-3.3-0.4-9.2,0.6-10.5,5.2c-1.9-1.6-6.6-3-9.5-2.8c-2.7,0.2-5.4,2.2-6.3,4.7c-1,2.6-1.2,6.5-0.8,10.3
	c1,8.3,2.3,15.4,3.3,18.2c0.9,2.6,1,3,0.7,4.1c-0.9,3-0.3,8.3,1,10.2c-19.8,19.8-23.1,30.6-26.3,36.9c0.7-13.3,2.9-27.9,5.7-39.2
	c3.9-16.3,6.8-23.3,9.8-32.1c3.3-8.6,10.3-21.4,13.6-27.7c2.2-4.1,4-7,8.2-13.3c2.8-4.2,21.5-7.3,31.4-11.1
	c12.1-4.7,27.7-12.6,34.1-17.3c5.5-4.1,10-8.8,11.9-12.5c1.3-2.6,2.1-6.2,1.7-8.4c-1.1-9.1-11.1-8.1-12.9-8
	c-6.2,0.4-14.3,3.7-22.5,9.1c-4.9,3.2-16.1,12.8-16.3,12.9c8.1-12.5,17.7-29.5,22.2-40.1c4-9.4,4.8-11.9,6.2-18.9
	c1.4-6.8,1.5-9,0.8-12.2c-1.5-6.4-8.1-8.2-14.3-3.9c-3.4,2.3-6.9,6.9-12,15.6c-7.8,13.2-11.8,22.7-17.6,41.1l-1.8,5.8
	C1577.4,158.6,1575,141.9,1568.5,133.5z M1549.4,163.8c1.6,6.7,4.8,15.2,9.3,26.9l6.2,17.1c-3.8,5.3-11.4,16.9-15,25.3
	c-1.7,3.5-3.1,6.4-3.3,6.5c-0.1,0.1-0.1-0.8,0-2.1c0.7-6.1,0.9-15.5,0.3-22.1c-1.1-13.1-4.3-28.1-11.2-30L1549.4,163.8z
	 M1554.1,156.3c1.2,7.1,4.2,17.1,9.9,32.5c1.4,3.8,2.9,7.9,3.3,9.2c0.4,1.3,0.8,2.3,0.8,2.3c0,0,0.5-1.6,1-3.6
	c0.5-2,3.3-12.1,3.3-14.7c0.2-7.7-0.3-14.4-1.7-21.9c-0.8-4.6-3.1-14.2-6.1-20.7L1554.1,156.3z M1646.5,464.2
	c-0.5-0.8-0.6-1.7-0.1-3.9c1.1-5,4.2-9.4,9.1-12.8c6.6-4.6,16.2-5.1,23.7-1.3c1.6,0.8,3.9,2.2,6.5,3.9l2,1.3l-2.8,0.1
	c-9.6,0.4-16.6,2.8-26.9,9c-5.2,3.1-6.5,3.8-8.2,4.3C1648.4,465.1,1646.9,464.9,1646.5,464.2z M1699.5,430.7
	c2.4-8.3,3.8-12,6.6-17.8c3.9-8,10.6-16.8,15.2-20.1c1.9-1.3,4.2-2.1,5.4-1.9c1.9,0.4,0.4,5.7-3.6,12.7c-2.4,4.1-4.6,7.3-10.9,15.4
	c-5.2,6.8-10,13.3-13.1,17.9l-1.7,2.5l0.2-1.5C1697.8,437.2,1698.6,433.9,1699.5,430.7z M1728.3,404.5v68.1h-29.9
	c0.3-1.6-2.7-17.9-2.5-19.6c0.4-3.6,0.1-2.9,5.2-10.5c4.8-7.2,9.2-13.2,14.3-19.9C1724,411.6,1725.2,410.9,1728.3,404.5z
	 M1610.4,466.8c-1.8-3.1-4.9-10-5.7-12.9c-1.1-3.8-1.5-6.7-1.4-9.9c0.2-3,0.6-4.5,1.5-5.2c0.5-0.4,0.6-0.4,1.1,0.1
	c0.7,0.7,1.7,3.1,2.4,5.9c0.8,3,2.4,13,3.1,18.9c0.3,2.6,0.6,5,0.6,5.3C1612.3,469.8,1611.8,469.2,1610.4,466.8z M1622.6,466.1
	c3.1-7.6,6.5-14,9.5-18.2c2.1-3,4.8-6.1,5-5.7c0.2,0.8-3.6,8.6-7.2,15c-2.2,3.8-8.3,12.8-8.5,12.3
	C1621.3,469.4,1621.9,467.8,1622.6,466.1z M1620.3,415.4c-0.9-0.1-2.1-0.5-2.6-0.8c-0.9-0.5-1-0.6-0.7-1.3c0.1-0.4,1.1-2.1,2.2-3.7
	c1.9-3,1.9-3,2.9-3c2.3,0.1,2.2,0,3,4.2c0.7,4,0.6,4.3-1.5,4.6C1622.7,415.5,1621.3,415.5,1620.3,415.4z M1636.4,404.5
	c-0.8-0.1-1.8-0.4-2.3-0.6c-1.6-0.8-4.3-2.7-4.3-3.1c-0.1-0.9,7.1-7,8.4-7.2c0.8-0.1,1.9,3.4,2.1,6.4c0.2,3.2,0.1,3.6-0.7,4.1
	C1638.7,404.7,1638.1,404.7,1636.4,404.5z M1608,403c-0.1-0.4-0.4-2.1-0.6-3.8c-0.2-2.6-0.2-3.4,0.1-4.5c0.5-1.6,1.1-1.8,2.9-1.1
	c1.2,0.4,6.3,4.3,6.4,4.8c0.1,0.5-0.7,1.2-3.6,3C1609.3,403.8,1608.4,404.1,1608,403z M1625.4,394c-1.4-0.5-1.6-1.1-2.3-5.8
	c-0.5-4.1-0.4-4.7,1.2-5.4c1.6-0.7,3.4-0.6,4.3,0.2c0.7,0.6,0.8,0.9,0.9,2.6c0.1,1.1-0.1,2.5-0.3,3.3c-0.4,1.4-2.3,5.4-2.5,5.4
	C1626.6,394.4,1626,394.2,1625.4,394z M1589.6,465.1c-5.2-5.7-13.9-11-17.9-13.7c-2.8-1.9-6.2-3.8-6.2-3.4
	c0.1,0.8,5.9,6.4,11.2,10.9c3.1,2.6,15.3,12.3,18.4,12.4C1595.4,470.3,1590.8,466.5,1589.6,465.1z M1588,438.2
	c0.8-0.3,1.8-0.9,2.2-1.3c0.7-0.7,0.7-0.8,0.4-1.3c-0.2-0.3-1.5-1.6-2.8-2.9c-2.4-2.3-2.4-2.3-3.3-2.1c-2.1,0.6-2,0.5-1.8,4.4
	c0.2,3.8,0.4,4,2.3,3.8C1585.9,438.8,1587.2,438.5,1588,438.2z M1571,431.8c0.7-0.3,1.6-0.7,1.9-1c1.3-1,3.3-3.3,3.2-3.7
	c-0.1-0.8-8-4.9-9.3-4.7c-0.7,0.1-1,3.5-0.5,6.3c0.5,2.9,0.7,3.3,1.5,3.6C1569,432.5,1569.5,432.4,1571,431.8z M1596.6,424.2
	c0.1-0.4-0.1-2-0.3-3.6c-0.3-2.4-0.5-3.2-1.1-4.1c-0.8-1.3-1.4-1.4-2.9-0.4c-1,0.7-4.8,5.3-4.8,5.8c0.1,0.5,0.9,1,3.9,2
	C1595.6,425.2,1596.5,425.3,1596.6,424.2z M1578.8,419.8c1.2-0.8,1.2-1.3,0.8-5.8c-0.4-3.8-0.7-4.4-2.3-4.6
	c-1.7-0.3-3.2,0.2-3.8,1.1c-0.5,0.7-0.5,0.9-0.2,2.6c0.2,1,0.6,2.3,1,3c0.7,1.2,3.2,4.4,3.5,4.4
	C1577.8,420.4,1578.3,420.2,1578.8,419.8z M1628.6,472.7c8.8-7.5,16.1-34,14.7-37.2c-0.9-2-3-2.9-5-2.1c-2.1,0.9-8.3,7.4-11.5,12.2
	c-2,2.9-5.1,9.1-7.3,13.4c4.2-13.6,6.4-31.1,6.1-37.9c2.8-0.8,4.4-2.5,5.1-5c0.4-1.2,0.4-2,0-4.5c-0.2-1.7-0.3-3-0.3-3.1
	c0,0,0.6,0.2,1.2,0.5c2.9,1.4,7.7,1.5,10.3,0.3c1.8-0.9,3.5-3,3.9-4.7c0.4-1.7-0.2-7.8-1-10.3c-0.6-2.1-2.1-4.6-3.2-5.3
	c-1.6-1.1-4-1.3-5.8-0.4c-0.5,0.2-0.9,0.4-0.9,0.3c-0.1,0,0-0.9,0.1-1.9c0.5-4.8-2.2-9.1-6.4-10c-1.6-0.4-4.9,0-6.6,0.7
	c-2.5,1-4.1,2.9-4.7,5.6c-0.1,0.5-0.1,2.6,0.1,4.7l0.3,3.7l-2.1-1.5c-3.3-2.4-6.5-3.1-9.1-2.2c-3.6,1.3-5.3,5.4-4.9,11.4
	c0.2,2.8,1,6,1.9,7.3c1.6,2.4,4.2,3.2,7.2,2.3c0.9-0.3,2-0.7,2.4-0.9c0.6-0.3,0.6-0.3-0.2,1.1c-1.9,3.3-2.2,6.1-0.7,8.1
	c0.9,1.2,2.8,3.7,6.2,3.7c0,1.4,0.5,16-3.8,29.2c-1.5-7.7-3.5-14.9-6.3-16.4c-1.4-0.8-3.9-0.9-5.3-0.3c-1.2,0.5-2.9,2.1-3.6,3.3
	c-1.3,2.2-1.9,6.5-1.6,10.8c0.4,5-0.2,6.2,2.9,12.9c-5.2-4.5-8.9-11.8-9.3-17.5c1.5-0.9,4-3.5,4.5-4.8c0.8-2.2,0-4.7-2.5-7.2
	c-1-1.1-1-1.1-0.4-0.9c0.4,0.1,1.4,0.2,2.4,0.3c2.9,0.2,5.1-1.1,6-3.6c0.5-1.3,0.6-4.4,0.1-7c-0.9-5.5-3.4-8.9-7-9.3
	c-2.6-0.3-5.3,1.1-7.8,4l-1.6,1.8l-0.5-3.4c-0.3-1.9-0.7-3.8-0.9-4.3c-1.1-2.2-3-3.7-5.5-4c-1.7-0.3-4.8,0.1-6.2,0.8
	c-3.6,1.7-5.1,6.2-3.6,10.5c0.3,0.9,0.5,1.7,0.5,1.7c0,0.1-0.5,0-0.9-0.1c-1.8-0.4-4,0.3-5.2,1.6c-0.8,0.9-1.6,3.5-1.8,5.6
	c-0.2,2.5,0.7,8.1,1.4,9.6c0.7,1.5,2.8,3,4.6,3.4c2.6,0.6,7-0.6,9.3-2.5c0.5-0.4,0.9-0.7,1-0.7c0,0,0.2,1.3,0.4,2.8
	c0.3,2.4,0.4,3.1,1,4.1c1.2,2.2,4.4,3.5,7.2,3.5c-0.3,4.2,4,12.3,7.5,16.5c-3.3-3.1-15-11.4-17.7-13.3c-4.4-3.2-11.9-6.9-14-7
	c-2-0.1-5,1.3-4.6,3.9c3.2,9.5,16.2,24,22.9,28.1h-52.1c2.7-5.2,5.2-11.3,9.9-18.8c11.6-18.7,14.7-24.2,20.4-36.1
	c5.2-10.8,10-22.1,13.3-31.2c1.7-4.7,4.1-13.5,3.9-15.6h152.9v15.2c-3.5-1.8-8.1,0.7-12.7,5.2c-7.9,7.6-15.1,20-18.9,32.4
	c-0.6,1.9-4.9,13.8-5.1,17.4c-1.9-10.4-4-12.8-9.2-21.7c0.3-0.6,0.6-1.2,0.9-1.8c2.6-6,4.5-12.4,2.5-18.3c1.2-0.3,1.7-1.3,2-2.6
	c0.6-4.1-4.5-5.4-7.1-3.6c-5.2,3.1-1.3,7,0.4,7.3c1,3.2-0.8,7.3-1.5,10.7c-1.1-2.8-2.4-5.5-3.8-8.1c0.8-2.5-0.4-5.9-4.7-5
	c-2.1,0.6-3.5,2.6-3.5,4.8c0.1,2,1.7,3.4,3.7,3.4c1.5,2.4,2.7,4.9,3.6,7.7c-3.6-0.9-6.7-3.1-8.8-6.2c0.2-0.5,0.4-1.1,0.5-1.6
	c0-2.1-1.6-3.8-3.6-3.9c-2.7,0-5.1,2.2-5.3,5.1c0.2,2,1.9,3.4,3.8,3.2c2.4,3.6,5.8,6.3,9.8,7.6c-3.9-0.4-7.6-1.7-10.8-3.8
	c0-1.4-0.7-2.6-1.9-3.2c-2.4-1-5.3,0.2-6.4,2.7c-1.4,2.3-1,5.2,1.1,6.7c1.7,1,4,0.3,5.1-1.5c5.6,3.8,12.6,5,19.4,3.5
	c3.6,5.8,6.5,13.7,8.4,20.3c-4.8-2.5-8.7-4.7-20.5-3.8c-9,0.7-17.3,6.2-21.9,14.6c-1.5,2.7-2.7,7.5-2.4,9.8c0.6,4.4,3.6,6.7,8,6.2
	c2.8-0.3,5.3-1.4,10.3-4.5c8.1-4.9,12.8-6.9,19-8.1c3.4-0.6,10.4-1.1,10.5-0.6c0.1,0.2-0.6,14.7-1.5,16.3H1628.6z"/>
<path class="st2" d="M1224.9,2.8c-0.8,0-1.6,0.7-1.9,1.5l-48.8,117.5L1128.6,4.4c-0.3-0.9-1.2-1.5-2.1-1.5l-152.6,0
	c-1.3,0-2.3,1.4-2.1,2.7c0,0.2,0.1,0.5,0.2,0.7l120.6,276.2v199.9c0,1.3,1.1,2.3,2.3,2.3h138c1.3-0.1,2.2-1.1,2.2-2.4V282.9
	L1368.6,6.3c0.1-0.2,0.2-0.8,0.2-0.9c0.1-1.2-0.8-2.4-2-2.6c-0.1,0-0.1,0-0.2,0L1224.9,2.8z M1206.1,360.9c3.5-1.7,6.7-4,8.1-5.8
	c0.7-0.9,1.3-1.8,1.2-2c-0.1-0.4-1.4-0.7-2.7-0.5c-1.5,0.2-4.3,1.7-5.8,3c-1.3,1.2-4.6,5.4-5,6.4c-0.2,0.6-0.2,0.6,1,0.2
	C1203.6,362,1205,361.4,1206.1,360.9z M1190.5,361.6c-2.1-1.7-9.9-5.5-11.1-5.4c-0.4,0.1,0.8,1.7,2.4,3.1c2.4,2.1,5.7,3.3,8.2,3
	C1190.5,362.4,1191,362.1,1190.5,361.6z M1192.1,351.8c-1-4-4.2-11.9-5.3-13.1c-0.8-1,0.6,4.8,2.1,8.1c0.7,1.7,3.3,6.6,3.5,6.6
	C1192.5,353.4,1192.3,352.7,1192.1,351.8z M1210.3,326c2.1-2.1,3.9-5.5,4.4-6.9c0.4-1.1,0.1-1-1.7,0.4c-3.2,2.5-6.8,7-7.7,9.7
	c-0.3,0.8-0.1,1.6,1.4,0.2C1207.6,328.6,1209.2,327.1,1210.3,326z M1195.4,327.3c0.1-3.7-1.2-8.5-3.2-11.7c-1-1.6-2.8-3.5-4-4.1
	l-0.9-0.5l0.5,2.6c0.9,4.5,2.7,9,5.6,13.8c0.9,1.5,1.7,2.6,1.8,2.5S1195.4,328.6,1195.4,327.3z M1207.6,311.8c0.7-2.1,1-4.8,0.8-5.3
	c-0.2-0.4-1.7,2.8-2.8,6c-0.8,2.5-2.5,8.6-2.5,9C1203.2,322,1207,313.8,1207.6,311.8z M1194,290.1c-1.8-3-4.7-5.9-6.7-6.9
	c-1.7-0.8-1.9-0.5-1.2,1.6c0.6,1.8,1.2,2.6,2.7,3.9c1.7,1.4,3.9,2.5,6,2.8C1194.8,291.5,1194.4,290.9,1194,290.1z M1210,288
	c3-0.8,4.9-1.7,7.2-3.2c3.2-2.1,6-5.8,4.9-6.4c-0.9-0.4-5.3,1.3-9,3.4c-3.3,1.9-8.5,6.2-8.4,6.9C1204.6,289.1,1207.5,288.7,1210,288
	z M1196.6,274.8c-0.9-4.4-1.8-7.6-3.2-11.2c-0.6-1.5-0.6,0.1-0.2,3.4c0.5,3.8,1.4,7.3,3,11.7c0.8,2.2,1,2.5,1.2,2
	C1197.6,280.3,1197.3,278.4,1196.6,274.8z M1217.3,256.7c3.3-1.4,5.2-2.6,6.7-3.9c1.4-1.3,3.6-3.9,3.6-4.2c-0.1-0.8-4.2,0.9-7,3
	c-1.3,1-5.6,5-6.5,6.2C1213.7,258.2,1214.4,258,1217.3,256.7z M1207.8,249.9c0.6-2,0.6-2.3,0.1-6.1c-0.3-2.2-0.8-4.8-1.1-5.8
	c-1-3-3-6.8-3.7-6.7c-0.1,0-0.4,0.8-0.5,1.7c-0.2,1.4-0.1,2.6,0.5,7.2c0.7,5.3,0.8,5.6,2.1,8.7c1.7,4.2,1.7,4.1,1.9,3.5
	C1207.1,252.2,1207.5,251,1207.8,249.9z M1226.5,226.4c2.2-1.5,3.1-2.2,3.8-3.3c0.5-0.8,1-1.5,0.9-1.7c0-0.4-1.9,0.5-3.5,1.7
	c-1.4,1-4.9,4.6-5.2,5.4C1222.2,229,1223.3,228.5,1226.5,226.4z M1216.4,215.6c-0.3-5.3-1.4-10.3-2.2-10.2c-0.9,0.1-0.9,5.2,0,8.8
	c0.8,3.1,2,6.5,2.3,6.2C1216.6,220.2,1216.6,218.1,1216.4,215.6z M1230.4,197.7c1-1.4,2.1-4.5,2.7-7.6c0.7-3.4,0.4-3.5-1.5-0.9
	c-1.5,1.9-2.1,3.6-2.8,6.8c-0.3,1.7-0.3,2.3,0,2.6C1229.3,199,1229.4,199,1230.4,197.7z M1204.6,456.9c-1.4-3.3-3.7-10.5-4.2-13.4
	c-0.7-3.9-0.8-6.9-0.3-10c0.5-3,2.3-5.9,3.2-4.8c0.6,0.8,1.4,3.3,1.8,6.1c0.5,3.1,1,13.2,1,19.1c0,2.7,0,5.1,0,5.3
	C1206.1,460.1,1205.7,459.5,1204.6,456.9z M1188.8,468.2c-4.5-5.9-10.8-10.7-12.4-9.4c-1.6,1.4,1.3,5.2,6,8c2.5,1.4,7.9,4,8,3.8
	C1190.5,470.5,1189.7,469.4,1188.8,468.2z M1170.4,446.5c-1-0.2-1.9-1.6-2.1-3.3c-0.3-2.5,0.9-8.7,1.8-9c1.1-0.4,3.7,4,4,6.7
	c0.2,1.6-0.1,3.2-0.8,4.1C1172.5,445.9,1171.2,446.6,1170.4,446.5z M1178.4,427.5c-1.6,0.6-2.7,0.7-3.2,0.6
	c-0.5-3.7,6-12.8,9.6-11.6c1.3,0.6,0.4,5.4-1.5,7.9C1182.4,425.6,1180.2,427,1178.4,427.5z M1151.2,433.6c-0.7-0.4-0.8-0.5-0.8-1.4
	c-0.1-1.3,1.1-3.7,2.3-4.7c1.7-1.5,4.5-1.8,7.8-0.9c2.5,0.7,2.8,1.9,2.8,3.2c0,0.3-3,2.5-4.3,3.2
	C1155.5,434.8,1152.1,434.1,1151.2,433.6z M1165.8,420.8c-2.8-4.9-3.3-7.2-2-9.5c1.8-3,3.3-3.3,4.8-0.9c1,1.6,1.7,3.9,2,7.1
	c0.2,2,0.1,6.8-0.2,6.9C1169.6,424.7,1167.3,423,1165.8,420.8z M1214.2,464.5c-0.5-1.8-0.4-3.4-0.2-7c1.2-9.3,6-14.2,9.5-18.1
	L1214.2,464.5z M1223.5,287.1v142.8c-3.8,1.2-8,10.2-10.6,14.2c0-0.9,0-2.4-0.1-3.4c-0.6-7.8-3.5-18.9-9.4-18.7
	c-1.8-18.7-3.3-24.3-3.5-39.4c0-1.9-0.7-14.4,1.5-14.7c3.4-0.5,10.3-3.7,13.9-6.6c3.1-2.5,5.2-5.8,5.3-8.4c0.2-3.2-3.2-5.8-7.5-5.7
	c-3.6,0.1-8.2,2.7-11.5,6.5c-1.1,1.2-2,2.1-2,2c0-0.3,0.3-13.6,0.4-14.5c0-0.4,1.1-1.4,3.3-3.1c12.4-9.7,17.7-16.4,17-21.6
	c-0.3-4-4.5-5-7.9-3l0.3-0.8c1.2-3.5,1-10-0.4-11.8c-2.7-3.4-6.5-1.4-10.1,5.4c0-2.7,0.8-8.7,1.5-12l3.5-0.5
	C1213.3,292.9,1219.7,290.4,1223.5,287.1z M1115.1,394.6c-0.5-9.2-1.7-15-6.4-30.8c-1.7-5.7-3.3-11.1-3.5-12
	c-0.4-1.9-0.4-2.1-0.7,5.2c-0.4,15.6-0.4,18.3,1.9,25.6c1.7,5.2,3.3,8.7,7.3,15.8c1.3,2.4,1.3,2.4,1.4,1
	C1115.3,398.7,1115.2,396.6,1115.1,394.6z M1130.2,382.9c2.7-4.1,4.4-7.7,8.4-18c4.1-10.5,6.4-15.5,8.8-19.1
	c2.2-3.4,2.2-3.4-0.2-1.3c-8.7,7.4-14.2,15.7-19.2,28.8c-0.8,2-3.5,16.7-3.2,17.4C1124.7,390.9,1127.5,387.1,1130.2,382.9z
	 M1140.6,311.1c0.8-0.8,3.1-3.6,5.1-6.3c4.3-5.8,8.1-10.7,12-15.6c1.6-2,2.8-3.6,2.7-3.6c-0.1,0-1.8,1.2-3.8,2.8
	c-5.6,4.4-10.6,10.4-14.5,17.6c-1.1,2.1-2.4,4.4-2.9,5.2C1138.4,313,1138.7,312.9,1140.6,311.1z M1153.5,262.6
	c2.6-3.3,4.2-6.4,4.7-9.2c0.3-1.8-1-1.5-4.3,3.5c-3.1,4.6-5.2,8.1-3.6,9.2C1150.6,266,1152.1,264.4,1153.5,262.6z M1144.4,263.4
	c0.5-3.1,0.9-9.8,0.6-10.6c-0.1-0.3-6.9-3.4-7.1-1.3c-0.2,0.5,0.6,4.6,1.4,6.8c1.1,2.9,3.9,8.3,4.3,8.1
	C1143.7,266.4,1144.1,265,1144.4,263.4z M1152.6,245.9c0-2.3-0.2-4.6-0.4-5.1c-0.3-0.8-0.5-0.8-1.7-0.4c-1.7,0.6-2.4,1.4-3.6,3.8
	c-0.7,1.1-0.1,2.3,0.9,2.6c1.8,0.8,1.8,0.8,2.5,3.4c0.3,2.4,1.1,2.3,1.5,1.3C1152.5,250.4,1152.7,249.2,1152.6,245.9z M1118.3,229.3
	c1-3,1.2-5.1,0.8-10.9c-0.5-8.7-0.4-10.4,1.9-23.7c0.6-3.4,1.2-8.1,1.3-10.5c0.1-2.4,0.4-5.7,0.6-7.4l0.4-3.1l-2,3.5
	c-3.4,5.8-5.5,11.8-6.2,17.6c-0.5,4-0.5,18.5-0.1,24c0.3,3.1,1.5,12,1.8,12.8C1117,232,1117.7,231.1,1118.3,229.3z M1108.6,225.6
	c-2-3.4-6.4-8.9-11.2-19.3c-1.4-3-3.1-7.5-4.4-11.7c-2.2-7-3.9-10.8-7.4-16.7c-1-1.6-1.9-3.1-2.2-3.2c-0.2-0.1-0.1,1.8,0.3,4.2
	c2.1,13.6,5.3,22.6,12.6,35.6c3.7,6.6,5.1,8.6,8.4,12.4c2.1,2.4,3.8,4.7,5.7,5.4C1110.4,232.2,1109.8,227.5,1108.6,225.6z
	 M1104.7,160c1.3-3,1.5-5.4,0.5-8.2c-0.8-2.2-3.2-7.1-4.6-9.5l-0.6-1l-0.2,1.2c-0.3,1.9,0.3,6.9,1.3,12.3c0.4,2.2,1.1,6.6,1.2,9
	C1102.9,163,1104.2,161.2,1104.7,160z M1095.8,158.9c-0.4-2.3-0.8-3.3-1.8-4.9c-1.7-2.7-10-13.2-10.3-13.1c-0.4,0.1-0.5,2.1-0.1,3.9
	c0.2,1.2,1.1,3,2.6,5.4c2.6,4.3,9.8,13,10,12.1C1096.3,162.1,1096.1,160.5,1095.8,158.9z M1104.3,336.2c2.1,0.6,3.3,4.4,4.2,7.6
	c3.1,9.1,8.1,26,9.5,31.9c1.4,6.1,1.5,6.1,2.5,1.6c1.9-8.1,1.5-11.1-3.3-27.4c-2.2-7.4-9.3-19.9-12.9-26.9L1104.3,336.2z
	 M1114.1,472.7c0.5-3.8,1.6-4.1,0.9-11.9c-1.9-21.1-2-24.7-0.8-39.9c0.2-2.8,0.6-8.3-0.6-11.2c-0.7-1.2-7.3-10.9-9.3-14.5v77.5
	H1114.1z M1094.6,257.7c2.7-8.4,6.8-3.3,6.6-1.3c-0.3,4.1,2.3,17.9,2.9,21.1c0.4,2,1.6,7.2,2.7,11.7c1.1,4.4,2.3,9.9,2.6,12.1
	c0.8,5.4,1,12.6,0.3,15.7c-0.7,2.6,0.9,4.6,1.5,5.8c4.4,7.1,6.5,11.6,9.4,19.6c1.6,4.3,1.9,5,2.9,7.7c1.9-29.4-4.8-83.2-11.5-108.5
	c-2.6-0.5-5.2-4.7-7.7-7.2c-4.7-4.2-8.2-8.8-12.4-16.3c-6.6-11.7-9.1-17.8-11.6-27.9c-2.6-10.6-4.1-25.6-2.8-27.6
	c1.6-2.2,4.1-1.6,6,1.4c0.7,1.1,2.6,4.1,4.3,6.7c4.8,7.2,7.5,12.7,10.1,20.9c2.2,7,6.2,16.8,7.9,18.7c0.2-0.1-0.7-4.8-1.7-9.7
	c-2.3-11.5-3-14.8-5.2-21.8c-2.1-6.6-2-6.5-8.7-14.1c-10.9-12.2-14-19.1-11.9-26.4c1.2-4.2,3.7-6.1,6.3-4.8
	c3.1,1.5,7.2,7.5,9.3,10.5c-0.9-4.3,0.4-11,4.8-11.8c2.5-0.4,3.8,1.2,8.4,10.1c3.3,6.4,4.7,11,4.4,14.3c-0.4,3.9-2.3,7.9-5.9,11.8
	c-2.5,1.9-2,6.6-1.3,9c1.5,4.4,4,13.4,4.6,18.3c0.5-8.1,4.4-15.7,7.1-21c1.3-2.3,3.5-6.4,4.8-9c3.7-7.5,6.1-9.6,8.6-7.8
	c1.2,0.9,1.3,2,0.5,5.7c-0.3,1.6-1.7,15.7-1.8,18.4c-0.4,6.4-0.6,8.5-2.1,16.7c-1.6,8.9-1.8,12.3-1.4,19.1c0.2,3.1,0.2,6.9,0,8.5
	c-0.4,3.5-3.2,11.6-7,13.9c0,0.4,12.4,38,11.2,80.2c0.6-1.1,4.2-12.3,5.5-15.9c2.5-7.2,4.5-14.4,5.9-21c1.3-6.4,0.6-10-3.3-17.1
	c-2.8-5-4.9-11.8-4.8-15.2c-0.1-5.7,4.4-7.5,7.9-5.6l1.2-3c1.6-4.1,3.2-5.9,6.3-7.3c2.9-1.3,5.4-1.6,7.3-0.9c3,1,3.9,5.4,3.4,7.9
	c1.7-1.5,4.7-1.7,5.6,1.4c0.8,2.3,0,10.3-1.4,14.4c-1.6,4.5-5,9-10.3,13.4c-4.3,3.6-4.9,4.6-6,10.4l-2.4,10.6l3.2-3.4
	c4.3-4.6,16-13.3,19.7-14.6c3.5-1.3,5.8,0.5,5,3.9c-0.5,1.9-4.3,7.6-10,14.8c-6.3,7.9-10.7,13.6-13.7,17.7c-1.3,1.8-3.6,4.3-5.2,5.6
	c-3,2.5-7.1,5.2-7.7,5.1c-2.7,3.4-3.1,10.3-3.6,18.9c-0.2,3.1,0.3,6.6-1.5,14.1c3.7-6.4,9.7-11.6,14-15.2c4.1-3.5,7.6-5.2,10.7-4.9
	c2.1,0.2,4.6,3.4,2.5,6.1c-3.2,4.7-4.2,6.3-6.8,10.8c-2.2,3.9-3.9,7.8-8.5,19.7c-1.5,4-3.4,8.4-4.1,9.8
	c-2.6,4.9-10.6,16.3-14.1,20.1c-2.1,2.3-2.6,4.4-3.6,16.5c-1.4,16.1-0.6,24.3,1.2,44.7c3-8.7,6.5-18.6,8-25
	c-6.3-5.8,2.2-22.1,10.9-33.1c2.4-2.7,7.6-4.6,6-1c-2.5,4.9-4.1,10.2-4.7,15.6c-0.4,7.1,2,20-6.4,21.3c-1.4,8.3-6.4,22.8-9.4,29.6
	l10.7-11.1c-1.4-2.9,2.6-10.7,9.5-5.9c5.7,3.8,2.4,13.1-6.1,10.7c-1,0.8-6.4,6-6.3,9.2h47.5c-8.6-4.4-11.7-10.6-10.3-15
	c0.8-2.7,2.8-4.3,5.6-4.6c2.8-0.3,6.4,1.3,10.3,4.7c1.1,0.9,4.1,3,5.7,3.4c-2.4-5.5-8-14.5-12.7-20.7l0,1.6
	c-0.2,8.4-9,13.2-14.2,7.7c-1.2-1.3-2.2-3.3-2.6-5c-0.3-1.4-0.2-4.2,0.1-6l0.3-1.7l-1.8,1c-3.8,2.1-9.9,2.3-13.2,0.5
	c-2.4-1.3-3.8-5.9-3.2-8.5c1.4-6.1,6.8-10,13-9.4l1.2,0.1l-0.7-1.7c-0.8-2.1-1.2-4.4-1-6.4c0.4-3.9,3.7-7.9,7.4-9.1
	c1.4-0.4,5,0.3,6.2,1.3c2.3,2,4.1,5.5,4.7,9.5c0.1,0.9,0.3,1.7,0.3,1.7c0,0,0.5-0.4,1-1c1.5-1.7,4.8-3.8,6.4-4
	c1.4-0.2,3.5,0.2,4.6,1c1.2,0.9,2.4,3,2.7,4.8c0.5,3.3-1,8.2-3.3,11.2c-1.3,1.7-4.7,4-7.4,4.9c0,0,0.7,0.7,1.5,1.5
	c2.4,2.2,5.1,5.8,8.4,11.1c2.2,3.2,5.9,9.9,7.5,12.8c-2.3-7-3.5-17.1-3.3-22c0.2-4.3,1.3-8.5,2.8-10.5c-2-22.1-2-25.2-2.3-43
	c-0.5-3.7,0.4-11.1-2.6-14.9c-4.2,0.8-8.8-0.8-12.8-3.9c-4.4-3.4-6.5-7.3-5.5-10.3c2-6,8.8-2.4,12.3-0.6l-1.1-2.3
	c-1.8-3.7-3-7.3-3.5-10.8c-0.4-2.9-0.4-3.3,0.1-4.7c0.4-1.2,2.5-3.7,5.3-2.8c2.3,0.7,4.6,3.5,6.5,7.8c0.5,1.2,1,2.1,1.1,2
	c0.1-0.1,0.2-0.9,0.2-1.8c0-1.6-0.1-1.7-3.2-6.4c-4.1-6.2-4.9-7.7-6.6-12c-3.5-8.8-3.6-13.5-0.3-15.6c1.4-0.9,2.8-0.9,4.9-0.1
	c1.7,0.6,4.4,2.2,6.6,5.6c0.1-3.9,1.6-14.7,1.6-14.9c-4.1-0.1-8.5-1.8-11.2-3.7c-3.7-2.7-5.7-6-6-9.8c-0.2-2.6,0.4-4.3,2-5.4
	c0.6-0.4,3-1.8,8.1,0.8c-2-3.7-2.4-9-2.9-12.7c-0.8-8.5,2.1-9.9,4.1-10.2c1.8-0.2,3.3,0.6,4.6,2.6c1.7,2.5,3.3,6.7,4.5,11.8
	c0.4,1.6,0.8,3,0.8,3.1c0.7-6.4,2.1-9.8,2.9-12.7l-2.4-5.4c-3.5-8-3.9-9.1-4.6-14.6c-1.3-9.3,0.1-14.1,4.1-15
	c1.3-0.3,1.7-0.2,2.8,0.2c2.3,1,5,4.6,6.4,8.8c0.3,0.9,0.7,1.7,0.7,1.7c0.2,0,2.7-7.3,2.6-7.8c0-0.2-0.7-1.7-1.4-3.2
	c-4.1-8.3-5.5-15.3-4.3-20.7c0.7-3.1,3.1-5.6,5.4-5.5c2.9,0.1,5.3,3.3,6.5,8.9l0.6,2.6l1.9-5.7c-1.3-2.2,0.4-9.9,1.1-12.5
	c1.5-5.5,5.3-10.1,8.9-10.6c2.7-0.4,4.7,0.9,5.3,3.3c0.6,2.7-0.7,9.3-2.7,13.5c-1.5,3.8-5.5,7.3-7.6,8l-4.4,12.7
	c7.3-6.3,10.6-3.2,11.9-1.9c1.7,1.8,1,5.9-1.7,9.2c-1.7,2.1-3,3.2-6.5,5.1c-3.3,1.9-4.7,2.5-7.5,3.1l-2.1,0.5l-2,6.4
	c-2.1,6.4-2.5,8.2-2.3,8.7c0.1,0.1,0.8-0.4,1.6-1.1c3.2-2.9,8.6-5.9,11.3-6.2c4.3-0.6,7.2,1.7,6.7,5.1c-0.5,3-3.9,7.4-7.9,10.1
	c-3.6,2.5-10.3,5.2-13.7,5.7l-2.3,0.3c-1.1,3.5-2.8,10.9-3.1,15c4-2.7,14.8-11,20.1-5l125.2-259.4h-120.1l-57.5,138.4l-53.7-138.4
	H988.6L1094.6,257.7z M1226.5,165.9c1.4-1,2.8-2.2,4.1-3.4c1.4-1.1,2.8-2.1,4.2-3.2c1.1-1,2.1-2.3,2.9-3.6c1-1.5,2.2-2.8,3.5-3.9
	c2.4-2.5,4.6-5.4,6.4-8.4c1.2-2.4,2-4.9,2.5-7.5c0.3-2-0.5-4-2-5.3c-1-0.9-1.9-1.8-2.8-2.8c-0.4-0.4-0.6-1-0.5-1.5
	c0.1-0.1,0.3-0.1,0.5,0.1c0.6,0.9,1.5,1.6,2.4,2.1c0.8,0.3,1.6,0.6,2.5,0.9c0.8,0.4,1.4,1,1.8,1.7c0.6,0.9,1.4,1.7,2.3,2.3
	c0.6,0.2,1.2,0.5,1.8,0.8c0.7,0.5,1.3,1.1,1.8,1.9c0.9,1.2,2.2,2.2,3.6,2.8c1.5,0.9,2.8,2.1,3.9,3.5c0.7,0.9,1.4,1.7,2.3,2.3
	c0.6,0.3,1.1,0.6,1.8,0.9c0.8,0.4,1.4,1,1.9,1.7c1,1.2,2.2,2.2,3.5,2.9c1.2,0.9,2.4,1.9,3.6,2.9c1,0.8,2.1,1.7,3.1,2.5
	c0.9,0.7,1.9,1,3,1.4c0.7,0.3,1.4-0.1,0.6-1.7c-0.7-1.4-1.8-2.5-3-3.5c-1.5-1.3-3-2.6-4.5-3.9c-0.7-0.8-1.5-1.6-2.3-2.4
	c-0.7-0.5-1.4-1-2.2-1.4c-0.7-0.5-1.4-1.1-1.8-1.8c-0.7-1.1-1.7-2-2.9-2.6c-1.5-0.8-3-1.9-4.2-3.1c-0.7-0.9-1.4-1.7-2.2-2.5
	c-0.9-0.7-1.8-1.2-2.8-1.7c-0.7-0.5-1.3-1.1-1.7-1.9c-0.5-1-1.4-1.7-2.4-2.2c-0.6-0.3-1.2-0.6-1.7-0.9c-0.7-0.5-1.2-1.3-1.5-2.1
	c-0.5-1.2-1.5-2.2-2.6-2.8c-0.3-0.1-0.6-0.4-0.9-0.6c-0.1-0.1,0-0.3,0.3-0.2c0.8,0.2,1.6,0.6,2.2,1.2c1,0.9,2,1.7,3.1,2.5
	c1.3,0.8,3,0.9,4.4,0.5c3.2-0.9,6.1-2.5,8.7-4.7c2.8-2.5,5.3-5.3,7.5-8.3c1.1-1.1,2.2-2.2,3.4-3.2c1.2-1.3,2.3-2.7,3-4.3
	c1-1.7,2-3.4,3.2-5c0.6-0.9,1.1-1.9,1.4-3c0.8-2.5-2.5-2.6-3.3-2.5c-1.5,0.3-3,0.8-4.3,1.5c-2.2,1.1-4.2,2.5-6,4
	c-1.4,1-2.8,2.1-4.2,3.2c-2.3,2-4.8,3.9-7.4,5.6c-2.9,2-5.9,3.9-8.9,5.8c-0.7,0.5-1.5,1-2.2,1.5c-0.8,0.5-0.9,0.2-0.8,0.1
	c0.3-0.5,0.7-0.9,1.2-1.3c2.1-1.9,4.3-3.8,6.6-5.6c1.9-1.5,3.8-3.1,5.5-4.7c1.8-1.9,3.4-4.1,4.7-6.4c1.3-2.3,2.4-4.7,3.2-7.2
	c0.3-1.5,0.5-3,0.7-4.6c0.3-2,0.7-3.9,1.2-5.8c0.2-0.8,0.2-2.1-1.1-2.5c-1.1-0.2-2.2,0-3.1,0.6c-1.5,0.9-2.8,2.1-3.8,3.6
	c-2.3,3.2-4.4,6.6-6.2,10.1c-1.4,2.5-3.1,4.8-5.1,6.9c-1.3,1.5-2.6,3-3.9,4.5c-2.3,2.9-4.2,6.2-5.5,9.7c-0.4,0.9-1.2,0-1.7-0.3
	c-0.7-0.4-1.6-0.6-2.5-0.5c-0.6,0.1-1.2-0.1-1.1-0.6c0-0.4,0.1-0.8,0.3-1.2c0.2-0.8,0.1-1.7-0.5-2.4c-0.3-0.3-0.7-0.5-1.1-0.6
	c-0.9-0.1-1.7,0-2.5,0.4c-0.8,0.3-1.6,0.7-2.4,1.1c-0.7,0.5-1.2,1.3-1.3,2.1c-0.3,1.1-0.5,2.1-0.5,3.2c0,0.4,0.1,0.8,0.3,1.2
	c0.4,0.7,1.3,1.2,2.1,1c0.6-0.1,1.2-0.4,1.8-0.6c0.2-0.1,0.5-0.2,0.8,0.2c0.2,0.3,0.3,0.7,0.3,1.1c0,0.4,0.1,0.9,0.3,1.2
	c0.3,0.6,0.7,1.1,1.2,1.5c0.5,0.3,0.4,0.9-0.8,1.4c-3.5,2-6.6,4.5-9.2,7.4c-2.1,2.5-4.4,5-6.8,7.3c-1.7,1.4-3.5,2.7-5.3,4
	c-2.5,1.8-4.8,3.8-7,6c-1.1,1.1-1.9,2.4-2.5,3.9c-0.3,0.8-0.4,1.7-0.2,2.6c0.3,1.8,2.7,1.5,4.3,0.6c2-0.8,4.2-1.5,6.3-1.9
	c2.1-0.6,4.2-1.5,6-2.7c3.2-2,6.1-4.4,8.5-7.2c1.5-1.9,2.8-3.9,4.1-6l0.4-0.6c1.6-2.7,3.3-5.2,5.1-7.7c0.4-0.5,0.7-0.5,0.7-0.1
	c-1.8,3.6-3.5,7.1-5.2,10.7c-1.1,2.2-2.2,4.3-3.4,6.4c-1.6,2.4-3.1,4.8-4.4,7.4c-1.4,2-2.5,4.2-3.3,6.4c-0.6,1.4-1,2.9-1.1,4.5
	c-0.1,0.9,0.1,1.7,0.5,2.5C1223.2,167,1225.2,166.8,1226.5,165.9z"/>
<path class="st0" d="M403.9,496.1c-1,0-1.9,0.9-2.1,2l-33.2,188.2L335.2,498c-0.2-1.1-1.1-1.9-2.2-2H210.7c-1.1,0.1-2,0.9-2.2,1.9
	l-34.6,181.9l-27.7-181.8c-0.2-1.1-1.1-1.9-2.2-2H2.2c-1.3,0.1-2.3,1.2-2.2,2.5c0,0.2,0,0.3,0.1,0.5l103.3,477.2
	c0.3,1,1.1,1.7,2.1,1.8h118.7c1.1-0.1,2-0.9,2.2-1.9l39.2-199.6L304,976c0.2,1.1,1.2,1.9,2.3,1.9H426c1.1-0.1,2-0.8,2.2-1.9
	L530.3,499c0.3-1.3-0.5-2.5-1.7-2.8c-0.1,0-0.3-0.1-0.4-0.1H403.9z"/>
<path class="st2" d="M796,498.9c-0.8,0-1.5,0.6-1.9,1.3l-38.9,80l-36.8-80c-0.2-0.4-0.5-0.8-0.7-0.9c-0.4-0.3-0.9-0.5-1.4-0.5H561.4
	c-0.4,0-0.8,0.1-1.1,0.3c-1.1,0.7-1.4,2.1-0.9,3.2l116.6,231.7L545.3,977.2c-0.2,0.4-0.3,0.7-0.3,1c-0.1,1.2,0.8,2.5,2,2.6l140.7,0
	c0.2,0,0.3,0,0.4-0.1c0.7-0.1,1.2-0.6,1.5-1.2l55-109.2l49,109.1c0.4,0.8,1.2,1.4,2.1,1.4h152.9c1.1,0,1.8-1,1.9-1.1
	c0.4-0.7,0.5-1.6,0.1-2.4L824.7,719.5l113.6-217.1c0.6-1.2,0.2-2.7-1-3.3c-0.3-0.2-0.6-0.2-1-0.3L796,498.9z"/>
<path class="st2" d="M1210.8,498.9c-0.8,0-1.6,0.7-1.9,1.5L1160,617.8l-45.6-117.4c-0.3-0.9-1.2-1.5-2.1-1.5l-152.6,0
	c-1.3,0-2.3,1.4-2.1,2.7c0,0.2,0.1,0.5,0.2,0.7l120.6,276.2v199.9c0,1.3,1.1,2.3,2.3,2.3h138c1.3-0.1,2.2-1.1,2.2-2.4V779
	l133.5-276.6c0.1-0.2,0.2-0.8,0.2-0.9c0.1-1.2-0.8-2.4-2-2.6c-0.1,0-0.1,0-0.2,0L1210.8,498.9z"/>
<path class="st2" d="M1395.7,498.9c-1.1,0-2.2,1.2-2.1,2.4l0,121.1c0,1.2,1.1,2.2,2.3,2.2h147.6l-162.9,257.9l-0.2,0.3
	c-0.1,0.3-0.2,0.6-0.2,0.9l0,94.8c0,0.5,0.2,0.9,0.5,1.3c0.5,0.6,1.4,0.9,1.8,0.9h341c0.9-0.1,1.8-0.7,2.1-1.6
	c0.1-0.3,0.1-0.6,0.1-0.8v-121c0-1.3-1.1-2.3-2.3-2.3h-165.6l161.8-256.7c0.1-0.1,0.1-0.2,0.2-0.3c0.1-0.3,0.2-0.6,0.2-0.9v-96
	c0-1.3-1.1-2.3-2.3-2.3L1395.7,498.9z"/>
</svg>
