<?xml version="1.0" encoding="utf-8"?>
<!-- Generator: Adobe Illustrator 26.5.2, SVG Export Plug-In . SVG Version: 6.00 Build 0)  -->
<svg version="1.1" id="Layer_1" xmlns="http://www.w3.org/2000/svg" xmlns:xlink="http://www.w3.org/1999/xlink" x="0px" y="0px"
	 width="1483.7px" height="1031.8px" viewBox="0 0 1483.7 1031.8" style="enable-background:new 0 0 1483.7 1031.8;"
	 xml:space="preserve">
<style type="text/css">
	.st0{fill:none;stroke:#FF0000;stroke-width:0.75;stroke-miterlimit:11.3386;}
	.st1{fill:none;stroke:#FF0000;stroke-width:0.75;}
	.st2{fill:none;stroke:#FF0000;stroke-width:0.75;stroke-miterlimit:9.6378;}
</style>
<path class="st0" d="M160.6,854.2c1.6,2.1,3.7,3.9,6.1,5.1c3,1.4,6.1,1.8,9.6,2c3.6,0.1,7.2-0.6,10.5-2.2c2.5-1.4,4.7-3.2,6.4-5.5
	c3-4,5.3-8.6,6.7-13.4c1.9-6.4,3.3-12.9,4.3-19.6c1.4-9,2.3-18,2.9-27.1c1-14.6,1.5-29.2,1.5-43.9c0.1-13.2-0.1-26.5-0.6-39.7
	l-0.4-8.1c-0.2-3.3-0.4-6.4-0.6-9.7c-0.7-10.8-2-21.7-3.8-32.4c-1-5.8-2.4-11.5-4.3-17.1c-1.4-4.2-3.6-8.1-6.4-11.5
	c-3.1-3.9-7.7-6.4-12.7-6.8c-4-0.5-8-0.1-11.8,1.1c-3.3,1.3-6.1,3.5-8.2,6.3c-2.8,3.8-5,8.1-6.4,12.6c-2,6.5-3.5,13.1-4.5,19.8
	c-1.5,9.6-2.5,19.2-3.1,28.9c-1.4,23.4-1.8,46.9-1.2,70.3c0.3,15,1.2,30,2.7,45c0.7,6.6,1.7,13.2,3,19.7c0.9,4.9,2.2,9.7,3.8,14.4
	C155.7,846.6,157.9,850.6,160.6,854.2z M171.2,501.8c-20,0.7-39.7,3.7-58.5,10.2c-29.9,10.8-55.5,31.1-72.7,57.7
	c-10.3,15.8-18.3,32.9-23.9,50.9C9.4,642.5,4.9,665,2.7,687.8C2,696.2,1,712.1,0.5,720.3c-1.1,27-0.2,54,2.8,80.9
	c2.4,21.9,7.1,43.6,13.9,64.6c0.3,0.9,0.9,2.8,1.3,3.8c7,20.4,17.2,39.6,30.4,56.6c0.7,0.9,2.2,2.8,3,3.7
	c21.6,25.8,51.5,43.4,84.5,49.8c30.6,6.1,62.3,5.2,92.5-2.8c35.5-9.6,66-32.3,85.5-63.5c11.4-18.2,20-38.1,25.5-58.9
	c5.6-20.8,9.3-42.1,11.1-63.6c0.5-6.2,1.3-18.6,1.6-24.6c1.2-27.8,0.3-55.7-2.8-83.3c-0.4-3.1-1.1-9.2-1.6-12.1
	c-3.1-22-8.7-43.5-16.7-64.2c-7.9-20.6-19.6-39.6-34.4-56c-21.5-23.3-49.8-39.1-81-45.1C201.3,502.6,186.3,501.4,171.2,501.8z"/>
<path class="st0" d="M548.7,683.8c1.8-3.2,3.1-6.6,4-10.1c1.3-5.1,2.2-10.3,2.5-15.5c0.4-5.9,0.3-11.7-0.4-17.6
	c-0.3-3-0.8-5.9-1.6-8.8c-1.4-5.3-4-10.3-7.6-14.4c-2.3-2.2-4.6-3.5-8.8-4.2c-4.2-0.6-8.5-1.2-12.7-1.3c-3.9-0.1-7.8-0.2-11.6-0.1
	v80.5c4.8,0.1,9.6,0,14.4-0.3c3.4-0.3,6.9-0.7,10.2-1.4c2.2-0.5,4.4-1.2,6.6-2.1C545.3,687.6,547.8,685.3,548.7,683.8z M371.4,493.2
	c-1.2,0-2.2,1.2-2.2,2.4v477.2c0,1.3,1.1,2.3,2.3,2.3h138c1.3-0.1,2.2-1.1,2.2-2.4v-158c8.2,0.1,16.4,0,24.5-0.2
	c12.4-0.3,24.8-1.2,37.1-2.6c4.8-0.6,14.3-2.1,19-3c8.5-1.7,16.9-4,25-7c21-7.8,39.4-21.2,53.3-38.8c10.9-13.8,19.2-29.6,24.4-46.4
	c3.3-10.5,5.6-21.2,6.9-32.1c0.3-2.5,1.5-16,1.6-18.9c0.7-13.9,0.2-27.8-1.5-41.6c-0.1-1-0.4-3-0.5-4c-1.7-11.7-4.5-23.1-8.5-34.2
	c-1-2.7-3.1-8.1-4.3-10.7c-7.9-17.6-19.2-33.5-33.2-46.7c-10.1-9.5-21.9-17-34.8-22.1c-6.9-2.6-25.5-8-40.9-9.6
	c-12.7-1.7-25.5-2.7-38.4-3.2c-7.8-0.3-15.7-0.5-23.5-0.4L371.4,493.2z"/>
<path class="st1" d="M893.9,856.8c5.9,0.8,11.9-0.8,16.6-4.3c5-4.8,8.6-10.8,10.3-17.5c3.3-11.6,5.4-23.4,6.3-35.4
	c3.5-41.6,3.4-83.5-0.1-125.1c-0.9-11.8-3-23.5-6.4-34.9c-1.7-6.7-5.5-12.7-10.7-17.3c-4.6-3.1-10.3-4.5-15.8-3.7
	c-6.7,0.3-12.7,4.1-16,9.8c-4,6.6-6.7,13.8-7.9,21.3c-3.1,15.8-4.9,31.9-5.5,48c-1.7,33.9-1.2,67.9,1.7,101.7
	c0.9,11.1,2.8,22,5.6,32.8c1.5,6.5,4.4,12.6,8.6,17.9C883.8,854.1,888.6,856.6,893.9,856.8z M1052.7,883.6
	c7.5-15.9,13.4-32.5,17.5-49.5c4.6-19.4,7.7-39.1,9-58.9c0.5-6.1,0.9-17.4,1.1-23.3c0.5-19.6-0.2-39.2-2.1-58.7
	c-1.7-17.6-4.7-35-9.1-52.1c-0.7-2.8-1.5-5.5-2.3-8.3c-0.7-2.5-2.2-7.3-3.1-9.8c-5.1-15.2-11.8-29.8-20-43.5l-2.2-3.6l0,0
	c-9.6-15.3-21.7-29-35.6-40.6l-3-2.4c-17.1-13.3-36.8-22.8-57.9-28l-2.6-0.6c-15.2-3.5-30.7-5.2-46.2-5.1c-18-0.1-35.9,2.3-53.2,7.3
	c-26.2,7.8-50,22.4-68.7,42.3c-13.2,14.1-24.3,30.2-32.7,47.6c-8.1,16.7-14.3,34.2-18.6,52.3l-1.1,4.6c-3.8,17.3-6.4,34.8-7.6,52.4
	c-2.1,27.5-1.7,55,1.1,82.4c0.3,2.2,0.8,6.7,1.1,8.9c2.5,19.4,6.8,38.6,13,57.2c1.1,3.5,3.6,10,4.9,13.2c7.1,18,16.7,34.9,28.4,50.4
	c8.7,11.5,18.9,21.8,30.2,30.7c16.7,12.8,35.8,22.1,56.2,27.1c15.6,3.9,31.7,5.7,47.8,5.5c12,0,24.1-1,36-2.9
	c13-2.1,25.7-5.7,37.9-10.8c9.5,9.4,19.3,18.5,29.5,27.2c8.4,7.1,17.1,13.8,26.2,20l25.2,16.9c0.3,0.3,1.1,0.5,2,0.3
	c1.1-0.3,1.4-1.3,1.5-1.4l42-114.4c0.2-0.5,0.2-1,0.1-1.5c-0.1-0.5-0.4-1-1.1-1.4l-19.3-11.6c-4.2-2.6-8.4-5.3-12.5-8.1
	C1061.9,891.6,1055,886.3,1052.7,883.6z"/>
<path class="st2" d="M1260.7,685.1h17.5c3.6,0.1,7.2-0.2,10.8-0.9c2.3-0.4,4.5-1.1,6.6-1.9c2.1-0.9,4-2.1,5.7-3.6
	c1.6-1.5,2.9-3.3,3.9-5.3c1.3-2.5,2.3-5.1,2.9-7.7c0.7-2.7,1.2-5.5,1.5-8.3c0.7-6.3,0.8-12.6,0.2-18.9c-0.3-2.5-0.7-5.1-1.4-7.5
	c-0.8-2.9-2-5.7-3.6-8.3c-1.3-2.1-2.8-4.1-4.6-5.8c-2.2-2.3-7.3-3.8-9.2-4c-2.4-0.4-4.8-0.7-7.2-0.9c-3.2-0.2-6.3-0.4-9.5-0.3h-13.8
	V685.1z M1119.4,493.2c-1,0-1.9,1-2.1,2c0,0.1,0,0.3,0,0.4v477.2c0,1.3,1.1,2.3,2.3,2.3h138c1.3-0.1,2.2-1.1,2.2-2.4V803.5h7.6
	l57.6,170c0.1,0.3,0.4,0.7,0.5,0.9c0.4,0.4,0.9,0.7,1.5,0.7l151.6,0c0.3,0,0.8-0.2,1-0.3c1.8-1.1,1.1-2.9,1.1-3.1l-84.8-201
	c20.7-15.5,36.4-36.8,45-61.1c1.2-3.2,2.9-8.5,3.8-11.8c4.4-16.7,6.5-33.8,6.3-51c0.1-18-2.4-35.8-7.4-53.1c-0.2-0.8-0.8-2.4-1-3.2
	c-5.3-16.8-13.5-32.6-24.2-46.6c-7.9-10.1-17.3-18.8-27.9-26c-10.3-7.2-21.6-13-33.5-17c-7.5-2.4-15.3-4.1-23.2-4.9
	c-2.7-0.3-8-0.9-10.6-1.1c-3.9-0.3-7.8-0.6-11.7-0.8c-11.3-0.6-22.6-0.8-34-0.8L1119.4,493.2z"/>
<path class="st0" d="M163.4,360.9c1.6,2.1,3.7,3.9,6.1,5.1c3,1.4,6.1,1.8,9.6,2c3.6,0.1,7.2-0.6,10.5-2.2c2.5-1.4,4.7-3.2,6.4-5.5
	c3-4,5.3-8.6,6.7-13.4c1.9-6.4,3.3-12.9,4.3-19.6c1.4-9,2.3-18,2.9-27.1c1-14.6,1.5-29.2,1.5-43.9c0.1-13.2-0.1-26.5-0.6-39.7
	l-0.4-8.1c-0.2-3.3-0.4-6.4-0.6-9.7c-0.7-10.8-2-21.7-3.8-32.4c-1-5.8-2.4-11.5-4.3-17.1c-1.4-4.2-3.6-8.1-6.4-11.5
	c-3.1-3.9-7.7-6.4-12.7-6.8c-4-0.5-8-0.1-11.8,1.1c-3.3,1.3-6.1,3.5-8.2,6.3c-2.8,3.8-5,8.1-6.4,12.6c-2,6.5-3.5,13.1-4.5,19.8
	c-1.5,9.6-2.5,19.2-3.1,28.9c-1.4,23.4-1.8,46.9-1.2,70.3c0.3,15,1.2,30,2.7,45c0.7,6.6,1.7,13.2,3,19.7c0.9,4.9,2.2,9.7,3.8,14.4
	C158.5,353.4,160.6,357.4,163.4,360.9z M174,8.5c-20,0.7-39.7,3.7-58.5,10.2C85.6,29.6,60.1,49.8,42.8,76.5
	c-10.3,15.8-18.3,32.9-23.9,50.9c-6.8,21.9-11.3,44.3-13.4,67.1c-0.7,8.4-1.8,24.3-2.3,32.5c-1.1,27-0.2,54,2.8,80.9
	c2.4,21.9,7.1,43.6,13.9,64.6c0.3,0.9,0.9,2.8,1.3,3.8c7,20.4,17.2,39.6,30.4,56.6c0.7,0.9,2.2,2.8,3,3.7
	c21.6,25.8,51.5,43.4,84.5,49.8c30.6,6.1,62.3,5.2,92.5-2.8c35.5-9.6,66-32.3,85.5-63.5c11.4-18.2,20-38.1,25.5-58.9
	c5.6-20.8,9.3-42.1,11.1-63.6c0.5-6.2,1.3-18.6,1.6-24.6c1.2-27.8,0.3-55.7-2.8-83.3c-0.4-3.1-1.1-9.2-1.6-12.1
	c-3.1-22-8.7-43.5-16.7-64.2c-7.9-20.6-19.6-39.6-34.4-56c-21.5-23.3-49.8-39.1-81-45.1C204.1,9.4,189,8.1,174,8.5z M290.6,323.5
	c-3.6-1.3-7.1-3.2-8.7-4.9c-0.8-0.8-1.4-1.7-1.4-1.8c0-0.4,1.3-0.8,2.6-0.8c1.5,0,4.5,1.2,6.1,2.3c1.4,1,5.2,4.9,5.6,5.8
	c0.3,0.5,0.2,0.6-0.9,0.3C293.2,324.3,291.7,323.9,290.6,323.5z M306.3,322.5c1.9-2,9.3-6.6,10.4-6.6c0.4,0-0.6,1.8-2.1,3.4
	c-2.1,2.4-5.3,3.9-7.8,3.9l-1.2,0L306.3,322.5z M303.5,312.9c0.6-4.1,2.9-12.3,3.8-13.6c0.7-1.1-0.1,4.8-1.2,8.3
	c-0.5,1.8-2.6,6.9-2.7,6.9C303.3,314.5,303.4,313.8,303.5,312.9z M282.5,289.3c-2.3-1.9-4.5-5-5.1-6.3c-0.5-1-0.3-1,1.7,0.2
	c3.4,2.2,7.5,6.2,8.8,8.8c0.4,0.8,0.3,1.5-1.4,0.3C285.5,291.6,283.7,290.3,282.5,289.3z M297.5,288.9c-0.5-3.7,0.3-8.6,1.9-12
	c0.8-1.7,2.4-3.8,3.5-4.5l0.9-0.6l-0.2,2.6c-0.4,4.5-1.7,9.3-4.1,14.3c-0.7,1.6-1.4,2.8-1.5,2.7S297.7,290.2,297.5,288.9z
	 M283.7,274.9c-0.9-2-1.6-4.6-1.4-5.2c0.1-0.4,2,2.6,3.4,5.7c1.1,2.4,3.5,8.2,3.4,8.7C289.2,284.5,284.5,276.8,283.7,274.9z
	 M294.8,251.8c1.5-3.1,4-6.4,5.9-7.6c1.6-1,1.8-0.8,1.4,1.4c-0.4,1.9-0.9,2.8-2.2,4.2c-1.5,1.6-3.6,2.9-5.6,3.4
	C294.1,253.3,294.4,252.6,294.8,251.8z M278.6,251.5c-3.1-0.5-5.1-1.1-7.5-2.3c-3.4-1.7-6.6-5.1-5.5-5.8c0.8-0.5,5.4,0.7,9.4,2.4
	c3.5,1.5,9.1,5.2,9.1,5.9C284.1,252,281.1,251.9,278.6,251.5z M290.5,236.9c0.4-4.5,0.9-7.7,1.9-11.5c0.4-1.5,0.6,0,0.6,3.4
	c-0.1,3.9-0.6,7.4-1.7,12c-0.6,2.3-0.7,2.6-0.9,2.1C290.1,242.5,290.2,240.5,290.5,236.9z M267.8,221.2c-3.4-1.1-5.4-2-7-3.1
	c-1.5-1.1-4-3.5-4-3.8c0-0.9,4.2,0.4,7.3,2.2c1.4,0.8,6.2,4.4,7.2,5.4C271.6,222.3,270.8,222.2,267.8,221.2z M276.5,213.4
	c-0.8-2-0.8-2.2-0.7-6c0-2.2,0.3-4.8,0.5-5.9c0.6-3.1,2.3-7.1,3-7c0.1,0,0.4,0.7,0.7,1.6c0.4,1.3,0.4,2.6,0.3,7.2
	c-0.1,5.3-0.2,5.7-1.1,8.9c-1.3,4.3-1.2,4.2-1.5,3.7C277.4,215.6,277,214.5,276.5,213.4z M255.4,192.1c-2.4-1.2-3.3-1.9-4.2-2.9
	c-0.6-0.7-1.1-1.4-1.1-1.5c0-0.4,2,0.3,3.7,1.3c1.5,0.8,5.4,4,5.8,4.8C259.8,194.3,258.7,193.8,255.4,192.1z M264.1,180.3
	c-0.2-5.3,0.3-10.4,1-10.4c0.9,0,1.5,5.1,1,8.7c-0.4,3.1-1.3,6.7-1.6,6.4C264.5,184.9,264.3,182.8,264.1,180.3z M248.3,164
	c-1.1-1.2-2.6-4.3-3.6-7.2c-1-3.3-0.8-3.5,1.4-1.1c1.7,1.7,2.5,3.3,3.5,6.5c0.5,1.7,0.6,2.2,0.3,2.5
	C249.5,165.2,249.4,165.2,248.3,164z M302.8,418.8c1.1-3.4,2.5-10.8,2.7-13.8c0.3-4,0-6.9-0.9-9.9c-0.8-2.9-3-5.6-3.7-4.4
	c-0.5,0.9-1,3.4-1.1,6.3c-0.1,3.1,0.5,13.2,1.2,19.1c0.3,2.6,0.5,5,0.6,5.3C301.7,422.1,302,421.4,302.8,418.8z M290.8,420.8
	c-4.8-6.7-9.4-12.2-13.3-15.7c-2.7-2.4-6.7-4.7-6.8-4.3c-0.2,4,3.9,9.6,8.9,15c3,3.2,13.4,15.2,15.9,11.6
	C295.5,427.3,291.9,422.3,290.8,420.8z M282.3,381.5c0.8-0.5,1.7-1.3,2.1-1.8c0.6-0.8,0.6-1,0.1-1.5c-0.3-0.3-1.9-1.4-3.5-2.5
	c-2.9-2-3-2-3.9-1.6c-2.1,1-2,0.9-1,5c1,4,1.2,4.2,3.2,3.6C280.2,382.5,281.5,382,282.3,381.5z M263.2,378c0.7-0.4,1.5-1.1,1.9-1.4
	c1.2-1.3,2.8-4.1,2.7-4.6c-0.3-0.9-9.3-3.6-10.6-3.2c-0.7,0.2-0.4,3.9,0.7,6.7c1.1,3,1.4,3.4,2.3,3.4
	C261.2,379.1,261.7,378.9,263.2,378z M288.7,365.1c0-0.4-0.5-2.1-1-3.8c-0.8-2.5-1.2-3.2-2-4.1c-1.1-1.2-1.7-1.2-3.1,0.1
	c-0.9,0.9-4.1,6.5-3.9,7c0.2,0.5,1.2,0.8,4.5,1.3C287.8,366.4,288.7,366.3,288.7,365.1z M269.1,363.9c1.1-1,1.1-1.7-0.3-6.2
	c-1.1-3.9-1.5-4.5-3.3-4.5c-1.8,0-3.3,0.8-3.8,1.9c-0.4,0.8-0.4,1.1,0.3,2.7c0.4,1,1.1,2.3,1.6,2.9c0.9,1.1,4.2,4,4.5,4
	C268.2,364.8,268.6,364.4,269.1,363.9z M132,467.1c-3.4-5.1-4.1-16.2-3.8-22.2c0.3-6.1-0.1-6.3,4.6,2.8c4.6,8.9,6,12.5,6.9,17.8
	c0.3,1.8,0.4,8.1,0.4,8.2C139.1,473.4,133.1,468.7,132,467.1z M148.3,462.7c0.9-4.4,3.3-10.7,6.2-16.2c1.4-2.6,4.8-8.1,5-8.1
	c0.4,0-0.8,8.7-1.6,11.7c-1.6,5.6-5.3,19.7-9.6,26l-2.3-0.4C145.6,474.8,147,466.4,148.3,462.7z M157.3,420.9
	c-1.5-2.3-2.3-9.2-1.5-14.1c0.5-3.1,2.2-8.8,2.2-7.4c0,0.5,0.3,2.1,0.7,3.7c1.7,6.8,1.7,13.5,0.1,17.3
	C158.3,421.7,158,421.8,157.3,420.9z M134.5,417.8c0-1.1,1.6-4.3,3.4-6.8c2.2-3,5.5-6.3,9.5-9.8c1.9-1.6,3.7-3.1,4-3.4
	c0.7-0.6-2.4,4.4-5.1,8.3c-3.2,4.6-7.7,9.8-10.1,11.6C134.7,418.7,134.5,418.8,134.5,417.8z M174.1,415c-2.3-1.2-7.5-9.1-9.9-15
	c-0.3-0.9-0.6-1.5,0.8,0c3.9,3.6,5,4.6,6.4,6.6c2.2,3,3,4.4,3.5,6.2c0.4,1.4,0.4,2.6,0,2.6C174.9,415.4,174.5,415.2,174.1,415z
	 M182.6,403.5c-2.7-0.5-9.9-4.4-13-7l-1.6-1.4c2.3-0.5,7.1-0.7,9.5-0.1c2.5,0.4,4,1.1,6.5,2.7C189.3,401.1,188.5,404.7,182.6,403.5z
	 M129.8,401.2c2.5-2,6.1-4.3,8.4-5.3c2.2-0.9,8.1-2.7,8.6-2.5c0.7,0.2-8.9,5.8-12.8,7.5c-1.4,0.6-5.3,1.9-5.8,1.9
	C127.8,402.8,128.9,401.9,129.8,401.2z M188,467.8c-0.5-0.8-0.6-1.7-0.1-3.9c1.1-5,4.2-9.4,9.1-12.8c6.6-4.6,16.1-5.1,23.7-1.3
	c1.6,0.8,3.9,2.2,6.5,3.9l2,1.3l-2.8,0.1c-9.6,0.4-16.6,2.8-26.9,9c-5.2,3.1-6.5,3.8-8.2,4.3C189.9,468.7,188.4,468.4,188,467.8z
	 M240.9,434.3c2.4-8.3,6.5-17.3,11-20.5c1.9-1.3,4.2-2.1,5.4-1.9c1.9,0.4,0.4,5.7-3.6,12.7c-3.7,6.2-11.2,14.9-14.9,18.5
	C239.1,441.2,240,437,240.9,434.3z M106.7,251l0.4-4c0.2-2.2,0.5-4.7,0.5-5.5c0.1-1.9,1.1-4.6,2.3-6c0.5-0.6,1.6-1.5,2.4-1.9
	c1.2-0.7,1.8-0.8,3.9-1c2.2-0.2,2.6-0.1,4.3,0.6c1.9,0.8,4.3,2.7,4.3,3.5c0.1,1.8-2.8,5.4-9.8,12.2l-5,4.8
	C109.4,252.5,107.7,251.3,106.7,251z M94,247.7c-0.4,0.1-1.1-1.4-4.4-10.1c-2.4-6.3-3.1-8.7-3.1-11.1c0-2.3,5.8-2.9,7.3-2.3
	c2,0.8,4.8,3.3,6,5.3c1.9,3.2,2.6,7.9,1.9,11.6c-0.2,1.1-0.7,5.7-1.1,7.7C99.2,247,95,247.4,94,247.7z M106.1,230.2
	c-0.7-1.9-2.7-5.6-3.9-6.7c-0.7-0.6-0.7-0.9-0.7-2c0.1-3.1,2.7-4.9,6.1-4c2.3,0.6,5.5,6.1,6.1,9.6
	C111.3,226.9,107.8,229,106.1,230.2z M120.1,227c-0.4-0.3,1.3-3.5,2.2-4.2c0.7-0.6,1.1-0.7,2.1-0.7c1.7,0.1,2.7,1,2.8,2.5
	c0.1,1.2-1,4.6-1.5,4.7C124.4,227.5,120.2,227.1,120.1,227z M93.5,444.4c-4.8-6.5-10-12.3-16.4-18.3c-10.8-10-16.8-17-18.5-21.3
	c-1.9-5-2.1-9.4-0.5-10.5c1.7-1.2,6.4,0.2,11,3.2c5,3.2,12.3,12.4,16.7,20.9c3.9,7.5,7.4,16.7,8.2,21.2c0.5,2.8,0.8,6.2,0.6,6.2
	C94.5,445.8,94,445.2,93.5,444.4z M102.3,426.8c-0.4-17.4,1.4-36,4.8-49.4c1.1-4.2,3.2-10.7,5-14.9c2.9-7.2,7.4-15,9.9-17.4
	c0.4-0.3,1.1-0.2,1.2,0.5c0.7,5.5-1.9,22.7-6.2,40.7c-2.7,11.3-4.7,17.7-9.7,31.8c-1.6,4.4-3.2,8.9-3.6,10.2c-0.4,1.2-0.9,2.3-1,2.3
	C102.4,430.5,102.3,428.8,102.3,426.8z M69.2,346.9c-6.5-3.3-8.6-4.5-15.4-9.1c-12.6-8.4-17.3-12.3-21.1-17.3
	c-3.1-4.2-5.4-9.7-4.3-10.8c1.2-1.2,10.4,2.5,17.3,7c8.2,5.4,19.1,15.4,26.7,24.6c4.7,5.6,5.8,9.5,5.9,9.8c0.1,0.4-0.2,0.3-1.8-0.5
	C75.3,350,72.1,348.4,69.2,346.9z M84.6,347.2c0.1-1.2,0.3-5.5,0.5-9.6c0.2-4.1,0.5-8.4,0.7-9.7c0.9-5.2,3.1-12.9,4.9-16.4
	c1.8-3.6,4.4-6.7,5.4-6.4c1,0.4,1.3,5.1,0.6,9c-0.8,4.7-3,12.9-5.1,18.9c-2.5,7-6.4,16.3-6.8,16.3C84.6,349.3,84.5,348.5,84.6,347.2
	z M64.7,321.8c-3.9-5.1-5.7-8.4-12.9-24c-3.3-7.2-6.4-16.3-7.8-22.7c-0.7-3-1.1-9.2-0.6-9.2c0.6,0,2.9,2.1,4.5,4
	c5.1,6.3,8.4,12,13.1,23.2c4.1,9.7,6.2,15.6,8.6,23.9c1.5,5.1,3.9,14.3,3.9,14.9C73.5,332.2,67.4,325.3,64.7,321.8z M97.5,175.6
	c2.6-4.4,12.2-18.5,17.5-25.7c8.1-11,13.9-16.8,21.9-21.8c3.4-2.1,6-3,8.5-3.1c3.7-0.1,5.1,1.3,4.9,4.8c-0.4,6-5.9,13.6-16.3,22.4
	c-7.3,6.2-16.5,12.8-23.9,17.4c-3.5,2.1-12.5,7-13,7C97,176.6,97.1,176.2,97.5,175.6z M86.2,171.8c-0.6-1.1-2.9-4.8-5-8.2
	c-12.5-19.9-16.2-27.6-17.9-36.8c-0.8-4.5-1-13.7-0.3-16.2c0.4-1.5,0.5-1.5,1.3-1.6c4,0,11.9,11.3,17.6,25.5
	c2.8,6.9,4.6,13.2,5.9,20.7c0.4,2.5-0.2,12.8-0.3,14.8c-0.1,2-0.2,3.7-0.2,3.7C87.4,173.8,86.9,172.9,86.2,171.8z M95.4,145.8
	c1.9-25.7,3.6-35.9,8.4-51.1c3.8-11.9,6.7-17.6,9.8-19.2c2-1,3.1-0.5,3.9,2.2c2.7,8.8-0.4,28.9-8,51.9c-3.3,9.6-8.5,30.7-14.3,36.8
	C94.8,161.1,94.9,150.9,95.4,145.8z M62.7,190.9c-0.2,0.7-0.5,1.4-0.8,2.1c-5-7.5-7.7-16.3-7.7-25.2c0-2.5,0.8-5.8,2.9-6.6
	c5.2,0,6.1,5.3,6.4,7.5C64.8,176.1,64.5,183.7,62.7,190.9z M32.6,178.5c4.7-0.7,9.6,0.6,13.2,3.6c4.1,3.7,7.6,8,10.5,12.7
	c-5.9-0.6-11.5-2.6-16.4-5.7c-3.4-2.1-6-5.1-7.8-8.6C31.6,179.8,31.5,178.6,32.6,178.5z M44.5,157.8c2-0.1,5.3,3,4.7,5.2
	c-1.1,5-1,10.1,0.4,15.1c-3.1-2.6-6.9-4.3-10.8-5.2c-3.5-1.7-5.2-5.8-3.9-9.4C36.8,158.3,41.9,157.6,44.5,157.8z M66.7,251.1
	c-0.3-1.2-1.3-5.6-2.3-9.7c-0.9-4.1-2.1-8.6-2.5-9.8c-1.8-5.2-5.6-12.6-8.1-15.9c-2.5-3.4-5.8-6.1-6.7-5.5c-0.9,0.5-0.4,5.4,1,9.3
	c1.7,4.6,5.5,12.7,8.8,18.5c3.8,6.7,9.6,15.5,10,15.4C67.2,253.3,67.1,252.5,66.7,251.1z M135.9,257.6c-9.4,5-20.5,3.3-23.1,1.8
	l4-3.1c4.3-3.4,8.4-6,12-7.4c2.8-1.1,4.9-1.1,7.1-0.2C135.9,251.7,135.9,254.7,135.9,257.6z M136,233.3c-1.5-0.4-3-0.2-4.5,0.7
	l-1.3,0.8c0.6,2.4-1.1,6.4-2.2,8.3c2.2-0.6,5.8-1.1,7.8-0.1C135.9,239.7,136,236.5,136,233.3z M156.8,127.7
	c5.2-5.2,12.2-8.3,19.6-8.5c5.6-0.5,11.2,0.4,16.4,2.4c1.6,0.7,3.2,1.6,4.7,2.5c4.5,3.2,8.2,7.3,10.8,12.2c2.6,4.5,4.5,9.3,5.9,14.4
	c1.6,5.9,2.9,12,3.8,18c1.9,12.7,3.1,25.5,3.7,38.3v0.1l0,0l0.4,9c0.5,13.5,0.7,26.9,0.6,40.4c-0.1,14.9-0.6,29.8-1.6,44.7
	c-0.7,10.8-1.9,21.5-3.7,32.1c-1.1,6.7-2.7,13.2-4.8,19.6c-2,6-5.2,11.6-9.3,16.4c-3,3.5-6.7,6.2-10.9,8c-5.3,2.1-11.1,2.8-16.7,2.3
	c-6.1-0.3-11.9-2.6-16.5-6.5c-3.9-3.4-7.1-7.5-9.4-12.1c-2.6-5.1-4.6-10.6-6-16.2c-1.9-7.5-3.3-15-4.2-22.7
	c-1.2-9.2-2-18.4-2.5-27.6c-0.6-10.3-0.9-20.6-1.1-30.9c-4.5,1.5-12.2,4.5-21.9,1.9c-1.7-0.4-1.8-0.4-2.7,0.1c-2.9,1.2-8.6,2-11.4,1
	c-11.6,15.8-16.6,31.5-19.4,57.6c0.8-3.9,2.3-8.9,3.5-12.2c4.6-12.2,12.2-17.2,16.9-11.1c1.4,1.8,1.9,3.7,1.9,7.8
	c0,4.7-0.9,9.7-3.7,19.1c-2.9,10-9.2,25.3-11.9,29.2c-0.6,1.6,0,5.6,0.6,7.7c1.6,7.1,5.8,27.5,7.5,37c0.6,3.5,1.1,5.7,1.2,5.3
	c0.1-0.4,0.4-3.7,0.8-7.4c1.7-17.2,4.8-30.1,10.5-43.1c4.5-10.3,10-18.5,13.5-20.3c3.1-1.6,6.2-0.1,7.4,3.5
	c0.6,1.9,0.5,11.3-0.2,16.2c-1.3,9.6-3.7,21.6-6.5,33.2c-3.1,12.8-5,18.8-12.4,39.4c-3,8.2-4.6,13.5-6.2,19.1
	c-0.8,2.4-1.4,10.6-1.1,13c7.6,4.1,15.5,7.5,23.8,10.1c-7.2-6.8-3.7-27.6-2.3-35.9c4.3-10.9,14.3,8.2,17,14.4
	c0.5-12.2,1.7-22,5.1-33.1c-0.9,0.8-1.1,0.6-3.2,2.7c-3.9,3.8-5.6,4.9-8.2,5.1c-2.2,0.2-3.6-0.5-4.7-2.2c-1.8-3-0.8-7.9,2.6-12.9
	c0.7-1,1.2-1.8,1.1-1.9c0,0-0.9,0.2-2,0.5c-2.7,0.8-6.2,0.9-7.6,0.2c-2.9-1.4-3.3-4.8-0.8-8c2.2-2.9,9-7.6,13.7-9.5
	c3.5-1.4,9.3-3.4,13.5-3c1.5-2.5,4.2-4.6,8.6-5c6-0.6,10.2,3.9,9.3,7c3.2-0.6,10.1-1.1,15.7,1.9c7.3,3.5,10.8,9.2,8.5,13.7
	c-0.7,1.4-2.7,3.2-4.3,3.8c-1.6,0.6-5.2,0.6-7.1,0.1c-0.8-0.2-1.5-0.3-1.6-0.3c0,0,0.2,0.7,0.5,1.6c0.9,2.2,0.9,6.2,0.1,7.8
	c-1.3,2.6-4.5,3.5-7.7,2.3c-1.8-0.7-4-2.5-5.6-4.7l-1.1-1.5c-0.1,3,0.2,9-4.7,12.3c-6.7,3.6-10-5.6-10.1-6.4
	c-0.7,1.5-0.7,1.5-1.7,5.3c-0.9,3.6-1.9,9.9-2.4,14.8c-0.3,2.7-0.7,10-0.5,10.2c0,0,1-1.8,2.2-4.1c1.1-2.3,3.1-5.8,4.4-7.8
	c2.6-4.1,7.7-7.6,8.8-8.2c1-0.5,3.7-0.3,3.5,5c-0.2,8.6-2.3,31.9-9,42.1c24.2,2.9,48.9,1.3,72.6-4.9c1.4-2.6,1.9-12.3,1.8-12.4
	c-0.1-0.4-7.1,0-10.5,0.6c-6.2,1.1-10.9,3.2-18.9,8.1c-5.1,3.1-7.6,4.2-10.3,4.5c-4.4,0.5-7.4-1.8-8-6.2c-0.3-2.3,0.9-7.1,2.4-9.8
	c4.6-8.4,12.9-14,21.8-14.6c11.7-1,15.7,1.2,20.4,3.8c-1.9-6.6-4.9-14.5-8.4-20.3c-6.8,1.6-13.8,0.3-19.4-3.5
	c-1.1,1.8-3.4,2.4-5.1,1.5c-2-1.5-2.5-4.4-1.1-6.7c1.2-2.5,4-3.7,6.4-2.7c1.2,0.5,1.9,1.8,1.9,3.2c3.2,2.1,6.9,3.4,10.8,3.8
	c-4-1.4-7.5-4-9.8-7.6c-2,0.3-3.6-1.1-3.8-3.2c0.2-2.8,2.6-5.1,5.3-5.1c2,0.1,3.6,1.8,3.6,3.9c-0.1,0.6-0.2,1.1-0.5,1.6
	c2.1,3.1,5.2,5.3,8.8,6.2c-0.9-2.7-2.1-5.3-3.6-7.7c-1.9,0.1-3.5-1.4-3.7-3.4c-0.1-2.2,1.4-4.2,3.4-4.8l0.6-0.1c0.1,0,0.1,0,0.2,0
	c1.2-0.1,2.4,0.6,2.8,1.8c0.6,1,1,2.1,1,3.3c1.5,2.6,2.8,5.3,3.8,8.1c0.7-3.4,0.5-6.8-0.4-10l-0.5-2.4c-1.8-0.4-3.2-1.9-3.3-3.9
	c0-0.2,0-0.4,0.1-0.6c0.1-0.2,0.1-0.3,0.2-0.5c2.1-3.1,6.1-4,9-2c1.6,0.9,2.6,2.7,2.3,4.7c-0.3,1.3-1.3,2.3-2.6,2.6
	c1.9,6,1.6,12.6-1,18.6c-0.3,0.6-0.6,1.2-0.9,1.8c5.2,8.9,7.4,11.3,9.2,21.7c0.2-3.6,5.4-24.8,13.3-32.4c4.7-4.5,10.4-6.4,13.9-4.6
	c1.4,0.7,2.6,2.7,2.8,4.6c0.3,2.2,0,8.1-8.5,19.3c-5.1,6.7-7.5,9.1-11.9,14.6c-5.9,6.2-4.7,6.9-5.2,10.5c-0.2,1.7,0.8,10.4,2.4,12.3
	c18.6-6.8,35.4-17.6,49.3-31.5c-7.2-5.2-11.4-13-16-18.2c-8.2-9.3-9.8-20.2-9.2-23.6c0.4-2.1,2.3-3.5,4.4-3.1
	c2.2,0.4,9.7,5.3,13.9,9.3c2.6,2.4,3.7,3.6,6.7,7.2l2.6,3.1l-0.9-2.3c-3-8.2-6.7-17-8.2-19.6c-1-1.8-1.2-1.9-2.8-1.6
	c-2.9,0.4-4.9-0.2-6.6-2.3c-0.8-1-1.1-1.7-1.9-4.1c-0.5-1.6-0.9-2.9-0.9-2.9c0,0-0.4,0.4-0.9,1c-2.1,2.5-6.4,4.5-9.3,4.4
	c-2-0.1-4.4-1.3-5.5-2.7c-1.1-1.4-3-7.2-3.3-9.8c-0.3-2.2,0.1-5,0.8-6.2c1-1.7,3.1-2.8,5.1-2.7c0.5,0,1,0,1-0.1
	c0-0.1-0.3-0.8-0.8-1.7c-2.4-4.2-1.6-9.2,1.8-11.7c1.4-1,4.5-2,6.4-2c2.7-0.1,4.9,1,6.5,3.2c0.3,0.4,1.1,2.4,1.8,4.3l1.2,3.5
	l1.3-2.2c2.1-3.5,4.7-5.5,7.5-5.7c3.8-0.2,7.1,2.8,9.1,8.4c1,2.7,1.5,5.9,1.2,7.4c-0.5,2.9-2.5,4.6-5.6,5c-1,0.1-2.1,0.2-2.5,0.1
	c-0.7-0.1-0.7,0,0.6,0.9c3.1,2.2,4.4,4.7,4,7.1c-0.3,1.5-1.7,3.7-3.1,5c-1.2,1-1.2,1.1-0.5,2c0.8,1,3.2,6.2,5,10.9
	c2.7,6.8,2.6,6.7,2.5,3.1c-0.3-7.8-0.2-16.4,5.8-16.8c-0.3-18.8,0.6-24.5-1-39.6c-0.2-1.8-1.3-9.9-1.4-14.1
	c-3.5-0.1-12.4-2.8-16.3-5.3c-3.4-2.1-5.8-5.1-6.2-7.7c-0.5-3.2,2.6-6.1,6.8-6.5c3.6-0.3,8.4,1.8,12.2,5.2c1.2,1.1,2.2,1.9,2.2,1.7
	c0-0.3-1.9-13.5-2.1-14.4c-0.1-0.4-1.3-1.3-3.6-2.7c-13.4-8.2-19.4-14.3-19.3-19.5c-0.1-4,3.9-5.5,7.5-3.8l-0.4-0.8
	c-1.6-3.3-2.1-9.8-0.9-11.8c2.3-3.7,6.3-2.1,10.6,4.2c-0.3-2.6-1.8-8.6-2.8-11.7l-3.6-0.1c-6.2-0.2-11.6-1.8-15.7-4.6
	c-4-2.7-6.4-6.2-6.3-9.3c0.1-3.3,2.4-5,6.8-4.9c3,0.1,10.4,2,14.6,4.3c-0.7-4.1-3.3-11.3-4.8-14.6l-2.3,0
	c-3.5-0.1-10.4-2.1-14.2-4.1c-4.3-2.3-8.2-6.3-9-9.1c-0.9-3.3,1.8-5.9,6.1-5.8c2.7,0.1,8.4,2.4,11.9,4.9c0.9,0.6,1.7,1.1,1.7,0.9
	c0.2-0.5-0.5-2.2-3.2-8.3l-2.7-6.1l-2.2-0.2c-2.8-0.3-4.3-0.7-7.8-2.2c-3.6-1.6-5.1-2.5-7-4.4c-3-3-4.2-7-2.7-8.9
	c1.1-1.5,4.1-5,12.1,0.5l-5.8-12.1c-2.2-0.5-6.5-3.5-8.5-7.1c-2.4-3.9-4.5-10.3-4.1-13.1c0.3-2.4,2.2-4,4.9-3.9
	c3.6,0.1,7.9,4.3,10,9.6c1,2.5,3.5,9.9,2.5,12.3l2.5,5.5l0.3-2.6c0.6-5.7,2.5-9.1,5.4-9.5c2.3-0.3,5,1.8,6,4.9
	c1.8,5.2,1.2,12.4-1.9,21.1c-0.6,1.6-1.1,3.1-1.1,3.4c0,0.5,3.2,7.5,3.5,7.5c0.1,0,0.3-0.8,0.6-1.7c1-4.3,3.2-8.2,5.4-9.5
	c1.1-0.6,1.5-0.7,2.8-0.6c4.2,0.4,6,5.1,5.8,14.4c-0.1,5.5-0.4,6.7-3,15l-1.8,5.6c1.2,2.8,2.9,6,4.3,12.3c0.1-0.1,0.3-1.5,0.5-3.1
	c0.6-5.2,1.7-9.5,3.1-12.2c1.1-2.1,2.5-3.2,4.3-3.1c2.1,0,5.1,1.2,5.3,9.7c-0.1,3.8,0.1,9.1-1.5,13c4.7-3.1,7.2-2.1,7.9-1.7
	c1.7,0.9,2.5,2.5,2.6,5.1c0.2,3.8-1.5,7.3-4.8,10.4c-2.5,2.2-6.7,4.4-10.8,5c0,0.2,2.7,10.8,3.3,14.6c1.8-3.6,4.4-5.5,5.9-6.3
	c2-1,3.4-1.2,4.9-0.5c3.5,1.6,4,6.4,1.5,15.5c-1.2,4.5-1.9,6.1-5.2,12.6c-2.6,5.1-2.6,5.1-2.4,6.7c0.1,0.9,0.2,1.7,0.3,1.7
	c0.1,0.1,0.5-0.9,0.9-2.1c1.4-4.5,3.4-7.6,5.6-8.5c1.5-0.6,2.2-0.6,3.7,0.1c0.9,0.5,1.4,1,1.9,2.1c0.7,1.3,0.7,1.7,0.6,4.7
	c-0.1,3.6-0.9,7.3-2.3,11.1l-0.9,2.4l2.7-1.3c5-2.4,8.2-2.2,9.5,0.6c1.4,2.8-0.2,7-4.3,10.9c-3.6,3.5-9.9,6.6-14.2,6.2l1,14.1
	c1.7,17.7,2.1,20.8,2.5,43c1.7,1.8,6.6,1.8,5.3,19.2c8.5-15.1,15.1-31.3,19.6-48.1c5.4-20.1,9-40.7,10.7-61.4
	c3.3-37.1,2.6-74.4-1.9-111.3c-2.7-21.8-7.9-43.3-15.4-63.9c-7-19.2-17.4-37-30.6-52.6c-20.2-23.3-47.6-39.2-77.8-45
	c-14-2.8-28.1-4-42.4-3.6c-18.7,0.9-37.2,3.4-54.9,9.6c-27.6,9.9-51.2,28.7-67.1,53.3c-10.6,16.3-18.6,34.1-24,52.8
	c-6.3,22-10.4,44.5-12.1,67.3c-3.1,36.3-2.5,72.9,2,109c2.7,21.7,7.8,43,15.2,63.6c6.9,19.3,17.1,37.2,30.1,53
	c8.4,10.1,18.2,18.8,29.1,26c1-2.8-11.1-16.9-20.4-25.8c-14.1-13.5-18-18.5-20.2-25.6c-2.2-4.5-0.8-10.2-0.2-11.4
	c1.9-4,5.9-5.6,10.9-4.4c6.6,1.6,13.2,6.2,18.9,13.3c2.9,3.6,7,9.6,8.9,13.1c0.8,1.5,1.5,2.6,1.6,2.5c0.2-0.2-0.8-7.1-2-13.4
	c-1.8-10.4-7.6-38.6-8.7-42.5c-0.3-1.1-3.5-3.1-13.1-8c-8.2-4.2-9.6-5-14.8-8.4c-12.4-8.2-19.2-13.3-22.9-17.4
	c-8.3-9.3-10.9-18-6.7-22c2.5-2.4,6-2.3,12.5,0.3c4.3,2,13.1,7.2,17.5,10.2l-4.3-9.3c-5-10.6-7-15.4-9.3-23
	c-2.1-6.8-3.4-14.6-3.1-18.2c0.5-5.1,4.1-7.3,8.6-5.1c3.8,1.8,9.4,8.6,14.2,17.3c1.8,3.3,5.2,8.7,9,19.3c0-0.3-1.1-23.4-1.2-28.5
	c0.2-1.7-0.8-5.3-2-7.2c-3.4-3.4-12.3-17.3-17-26.6c-4.4-8.8-6.2-13.5-7.1-18.2c-0.7-4.1-0.6-6,0.5-8c3.6-6.9,11.9-3.3,18.6,7.9
	c1.8,3.1,7.3,12.7,8.1,18.7c3.1-13.8-8.3-30.7-9.5-32.9c-5.7-0.5-11.3-1.7-16.6-3.8c-6.9-2.8-12.6-7.7-16.1-14.1
	c-2-3.4-4.1-8.3,3.4-10.6c-3.9-6.7-1.4-15.2,5.5-19c4.7-3,10.7-3.1,15.5-0.2c1,0.7,1.8,1.6,2.5,2.7c4-2.6,9.4-1.7,12.3,2
	c2.3,2.7,3.7,5.9,4.1,9.4c1.6,8.7,1.2,17.7-1.4,26.2c-0.7,1.8-1.6,3.5-2.7,5.2c5.8,7.1,6.2,7.9,9.1,14.4c1.8-8.9,8.6-25.2,11.2-31.2
	l-9.4-15.5c-12.2-19.3-16.6-28.3-18.6-38.1c-1.4-6.5-1.5-16.3-0.3-20.4c1.1-3.7,3.7-7.7,10.5-4.5c4.5,2.2,10.6,10,15.7,20.4
	c1.8,3.7,4.5,10.2,5.7,13.7l0.6,1.9l0.6-6c1.8-19.2,3.8-29.3,8.6-43.8c3.2-9.5,5.7-14.7,8.4-17.7c5.1-5.5,11.9-5.1,14.6,0.9
	c1.4,3,1.7,5.2,1.7,12.1c0,7.1-0.3,9.8-2.2,19.8c-2.2,11.3-5.7,23.4-11.2,38c-1.2,3.3-2.2,5.9-2.1,5.7c0.1-0.1,1.4-1.8,2.9-3.8
	c4.2-5.7,6.2-8,10.2-12.1c6.8-6.9,14-11.7,19.8-13.4C150.4,117.7,153.9,119.1,156.8,127.7z M144.4,151.3
	c-5.2,5.9-16.4,13.6-27.1,20.6c-8.8,5.7-21.5,12.4-23.6,12.4c-0.7,0-2.5,0-4.4,4.7c-2.8,7-3.9,10.2-5.2,14.7
	c-1.9,6.8-6.1,20.8-7.5,29.8c-1.1,9.2-2.5,16.7-2.9,33.4c-0.5,11.6,0.4,26.4,2.4,39.5c1.8-6.7,2.9-18,17.9-41.4
	c-1.7-1.6-3.3-6.6-3-9.8c0.1-1.1-0.1-1.5-1.5-3.9c-1.5-2.6-4.2-9.2-6.9-17.2c-1.2-3.6-1.7-7.5-1.4-10.3c0.4-2.6,2.6-5.1,5.2-5.9
	c2.8-0.8,7.7-0.4,9.8,0.9c0.3-4.8,5.8-6.9,9-7.2c6-0.8,10.6,4.7,12.1,8c2-2.8,7.8-4.5,12.5-1.4c1.2,0.9,1.8,1.7,2.3,2.7
	c0.7,1.6,1,4.9,0.7,6.4c1-0.5,2.2-0.4,3.5,0.1c0.2-9.5,0.7-19,1.2-28.6c0.6-10.1,1.7-20.2,3.3-30.2
	C141.5,162.9,142.8,157.1,144.4,151.3z"/>
<path class="st1" d="M896.6,363.6c5.9,0.8,11.9-0.8,16.6-4.3c5-4.8,8.6-10.8,10.3-17.5c3.3-11.6,5.4-23.4,6.3-35.4
	c3.5-41.6,3.4-83.5-0.1-125.1c-0.9-11.8-3-23.5-6.4-34.9c-1.7-6.7-5.5-12.7-10.7-17.3c-4.6-3.1-10.3-4.5-15.8-3.7
	c-6.7,0.3-12.7,4.1-16,9.8c-4,6.6-6.7,13.8-7.9,21.3c-3.1,15.8-4.9,31.9-5.5,48c-1.7,33.9-1.2,67.9,1.7,101.7
	c0.9,11.1,2.8,22,5.6,32.8c1.5,6.5,4.4,12.6,8.6,17.9C886.5,360.9,891.4,363.3,896.6,363.6z M1055.4,390.4
	c7.5-15.9,13.4-32.5,17.5-49.5c4.6-19.4,7.7-39.1,9-58.9c0.5-6.1,0.9-17.4,1.1-23.3c0.5-19.6-0.2-39.2-2.1-58.7
	c-1.7-17.6-4.7-35-9.1-52.1c-0.7-2.8-1.5-5.5-2.3-8.3c-0.7-2.5-2.2-7.3-3.1-9.8c-5.1-15.2-11.8-29.8-20-43.5l-2.2-3.6l0,0
	c-9.6-15.3-21.7-29-35.6-40.6l-3-2.4c-17.1-13.3-36.8-22.8-57.9-28l-2.6-0.6c-15.2-3.5-30.7-5.2-46.2-5.1c-18-0.1-35.9,2.3-53.2,7.3
	c-26.2,7.8-50,22.4-68.7,42.3c-13.2,14.1-24.3,30.2-32.7,47.6c-8.1,16.7-14.3,34.2-18.6,52.3l-1.1,4.6c-3.8,17.3-6.4,34.8-7.6,52.4
	c-2.1,27.5-1.7,55,1.1,82.4c0.3,2.2,0.8,6.7,1.1,8.9c2.5,19.4,6.8,38.6,13,57.2c1.1,3.5,3.6,10,4.9,13.2c7.1,18,16.7,34.9,28.4,50.4
	c8.7,11.5,18.9,21.8,30.2,30.7c16.7,12.8,35.8,22.1,56.2,27.1c15.6,3.9,31.7,5.7,47.8,5.5c12,0,24.1-1,36-2.9
	c13-2.1,25.7-5.7,37.9-10.8c9.5,9.4,19.3,18.5,29.5,27.2c8.4,7.1,17.1,13.8,26.2,20l25.2,16.9c0.3,0.3,1.1,0.5,2,0.3
	c1.1-0.3,1.4-1.3,1.5-1.4l42-114.4c0.2-0.5,0.2-1,0.1-1.5c-0.1-0.5-0.4-1-1.1-1.4l-19.3-11.6c-4.2-2.6-8.4-5.3-12.5-8.1
	C1064.7,398.4,1057.8,393.1,1055.4,390.4z M812,452c-3.4-5.1-2.6-10.5-2.3-16.5c0.3-6.1-0.1-6.3,4.6,2.8c4.6,8.9,6.2,14,7.2,19.4
	C818.7,456.2,813.8,453.1,812,452z M829.8,453.3c0.9-4.4,3.3-10.7,6.2-16.2c1.4-2.6,4.8-8.1,5-8.1c0.4,0-0.8,8.7-1.6,11.7
	c-1.6,5.6-3.4,15.5-7.8,21.9l-2.4-1.1C828.9,460.6,828.8,457.3,829.8,453.3z M838.8,411.5c-1.5-2.3-2.3-9.2-1.5-14.1
	c0.5-3.1,2.2-8.8,2.2-7.4c0,0.5,0.3,2.1,0.7,3.7c1.7,6.8,1.7,13.5,0.1,17.3C839.7,412.4,839.4,412.5,838.8,411.5z M816,408.4
	c0-1.1,1.6-4.3,3.4-6.8c2.2-3,5.5-6.3,9.5-9.8c1.9-1.6,3.7-3.1,4-3.4c0.7-0.6-2.4,4.4-5.1,8.3c-3.2,4.6-7.7,9.8-10.1,11.6
	C816.2,409.4,816,409.4,816,408.4z M855.6,405.6c-2.3-1.2-7.5-9.1-9.9-15c-0.3-0.9-0.6-1.5,0.8,0c3.9,3.6,5,4.6,6.4,6.6
	c2.2,3,3,4.4,3.5,6.2c0.4,1.4,0.4,2.6,0,2.6C856.4,406,856,405.8,855.6,405.6z M864.1,394.1c-2.7-0.5-9.9-4.4-13-7l-1.6-1.4
	c2.3-0.5,7.1-0.7,9.5-0.1c2.5,0.4,4,1.1,6.5,2.7C870.8,391.8,870,395.3,864.1,394.1z M811.3,391.8c2.5-2,6.1-4.3,8.4-5.3
	c2.2-0.9,8.1-2.7,8.6-2.5c0.7,0.2-8.9,5.8-12.8,7.5c-1.4,0.6-5.3,1.9-5.8,1.9C809.3,393.4,810.3,392.6,811.3,391.8z M1016.4,468.2
	c-2.4-8.3-6.5-17.3-11-20.5c-1.9-1.3-4.2-2.1-5.4-1.9c-1.9,0.4-0.4,5.7,3.6,12.7c3.7,6.2,11.2,14.9,14.9,18.5
	C1018.2,475.1,1017.3,470.9,1016.4,468.2z M973,246.3l-0.4-4c-0.2-2.2-0.5-4.7-0.5-5.5c-0.1-1.9-1.1-4.6-2.3-6
	c-0.5-0.6-1.6-1.5-2.4-1.9c-1.2-0.7-1.8-0.8-3.9-1c-2.2-0.2-2.6-0.1-4.3,0.6c-1.9,0.8-4.3,2.7-4.3,3.5c-0.1,1.8,2.8,5.4,9.8,12.2
	l5,4.8C970.3,247.8,972,246.5,973,246.3z M985.7,243c0.4,0.1,1.1-1.4,4.4-10.1c2.4-6.3,3.1-8.7,3.1-11.1c0-2.3-5.8-2.9-7.3-2.3
	c-2,0.8-4.8,3.3-6,5.3c-1.9,3.2-2.6,7.9-1.9,11.6c0.2,1.1,0.7,5.7,1.1,7.7C980.5,242.3,984.7,242.6,985.7,243z M973.6,225.5
	c0.7-1.9,2.7-5.6,3.9-6.7c0.7-0.6,0.7-0.9,0.7-2c-0.1-3.1-2.7-4.9-6.1-4c-2.3,0.6-5.5,6.1-6.1,9.6
	C968.4,222.1,971.9,224.2,973.6,225.5z M959.7,222.3c0.4-0.3-1.3-3.5-2.2-4.2c-0.7-0.6-1.1-0.7-2.1-0.7c-1.7,0.1-2.7,1-2.8,2.5
	c-0.1,1.2,1,4.6,1.5,4.7C955.3,222.8,959.5,222.3,959.7,222.3z M986.2,439.7c4.8-6.5,10-12.3,16.4-18.3c10.8-10,16.8-17,18.5-21.3
	c1.9-5,2.1-9.4,0.5-10.5c-1.7-1.2-6.4,0.2-11,3.2c-5,3.2-12.3,12.4-16.7,20.9c-3.9,7.5-7.4,16.7-8.2,21.2c-0.5,2.8-0.8,6.2-0.6,6.2
	C985.2,441.1,985.7,440.5,986.2,439.7z M977.4,422.1c0.4-17.4-1.4-36-4.8-49.4c-1.1-4.2-3.2-10.7-5-14.9c-2.9-7.2-7.4-15-9.9-17.4
	c-0.4-0.3-1.1-0.2-1.2,0.5c-0.7,5.5,1.9,22.7,6.2,40.7c2.7,11.3,4.7,17.7,9.7,31.8c1.6,4.4,3.2,8.9,3.6,10.2s0.9,2.3,1,2.3
	C977.3,425.8,977.4,424.1,977.4,422.1z M1010.5,342.1c6.5-3.3,8.6-4.5,15.4-9.1c12.6-8.4,17.3-12.3,21.1-17.3
	c3.1-4.2,5.4-9.7,4.3-10.8c-1.2-1.2-10.4,2.5-17.3,7c-8.2,5.4-19.1,15.4-26.7,24.6c-4.7,5.6-5.8,9.5-5.9,9.8
	c-0.1,0.4,0.2,0.3,1.8-0.5C1004.4,345.3,1007.6,343.6,1010.5,342.1z M995.1,342.4c-0.1-1.2-0.3-5.5-0.5-9.6
	c-0.2-4.1-0.5-8.4-0.7-9.7c-0.9-5.2-3.1-12.9-4.9-16.4c-1.8-3.6-4.4-6.7-5.4-6.4c-1,0.4-1.3,5.1-0.6,9c0.8,4.7,3,12.9,5.1,18.9
	c2.5,7,6.4,16.3,6.8,16.3C995.1,344.6,995.2,343.8,995.1,342.4z M1015,317c3.9-5.1,5.7-8.4,12.9-24c3.3-7.2,6.4-16.3,7.8-22.7
	c0.7-3,1.1-9.2,0.6-9.2c-0.6,0-2.9,2.1-4.5,4c-5.1,6.3-8.4,12-13.1,23.2c-4.1,9.7-6.2,15.6-8.6,23.9c-1.5,5.1-3.9,14.3-3.9,14.9
	C1006.2,327.5,1012.3,320.6,1015,317z M982.2,170.9c-2.6-4.4-12.2-18.5-17.5-25.7c-8.1-11-13.9-16.8-21.9-21.8c-3.4-2.1-6-3-8.5-3.1
	c-3.7-0.1-5.1,1.3-4.9,4.8c0.4,6,5.9,13.6,16.3,22.4c7.3,6.2,16.5,12.8,23.9,17.4c3.5,2.1,12.5,7,13,7
	C982.7,171.9,982.6,171.4,982.2,170.9z M993.5,167c0.6-1.1,2.9-4.8,5-8.2c12.5-19.9,16.2-27.6,17.9-36.8c0.8-4.5,1-13.7,0.3-16.2
	c-0.4-1.5-0.5-1.5-1.3-1.6c-4,0-11.9,11.3-17.6,25.5c-2.8,6.9-4.6,13.2-5.9,20.7c-0.4,2.5,0.2,12.8,0.3,14.8s0.2,3.7,0.2,3.7
	S992.8,168.2,993.5,167z M984.3,141c-1.9-25.7-3.6-35.9-8.4-51.1c-3.8-11.9-6.7-17.6-9.8-19.2c-2-1-3.1-0.5-3.9,2.2
	c-2.7,8.8,0.4,28.9,8,51.9c3.3,9.6,8.5,30.7,14.3,36.8C984.9,156.4,984.8,146.1,984.3,141z M1017,186.2c0.2,0.7,0.5,1.4,0.8,2.1
	c5-7.5,7.7-16.3,7.7-25.2c0-2.5-0.8-5.8-2.9-6.6c-5.2,0-6.1,5.3-6.4,7.5C1014.9,171.4,1015.2,178.9,1017,186.2z M1047.1,173.8
	c-4.7-0.7-9.6,0.6-13.2,3.6c-4.1,3.7-7.6,8-10.5,12.7c5.9-0.6,11.5-2.6,16.4-5.7c3.4-2.1,6-5.1,7.8-8.6
	C1048.1,175,1048.2,173.9,1047.1,173.8z M1035.2,153.1c-2-0.1-5.3,3-4.7,5.2c1.1,5,1,10.1-0.4,15.1c3.1-2.6,6.9-4.3,10.8-5.2
	c3.5-1.7,5.2-5.8,3.9-9.4C1042.9,153.6,1037.8,152.9,1035.2,153.1z M1013,246.3c0.3-1.2,1.3-5.6,2.3-9.7s2.1-8.6,2.5-9.8
	c1.8-5.2,5.6-12.6,8.1-15.9c2.5-3.4,5.8-6.1,6.7-5.5c0.9,0.5,0.4,5.4-1,9.3c-1.7,4.6-5.5,12.7-8.8,18.5c-3.8,6.7-9.6,15.5-10,15.4
	C1012.5,248.5,1012.7,247.7,1013,246.3z M944.1,253c9.4,5,20.2,3.2,22.8,1.7l-4-3.1c-4.3-3.4-8.4-6-12-7.4c-2.8-1.1-4.6-1.2-6.8-0.2
	C944.1,246.9,944.1,250,944.1,253z M944,228.5c1.5-0.4,2.7-0.2,4.2,0.7l1.3,0.8c-0.6,2.4,1.1,6.4,2.2,8.3c-2.2-0.6-5.5-1.2-7.5-0.3
	C944.1,234.8,944,231.7,944,228.5z M943.8,222.8c-0.5-16-1.5-32-3.1-48c-0.9-9.4-2.6-18.7-5.1-27.9c5.2,5.9,16.1,13.3,26.8,20.3
	c8.8,5.7,21.5,12.4,23.6,12.4c0.7,0,2.5,0,4.4,4.7c2.8,7,3.9,10.2,5.2,14.7c1.9,6.8,6.1,20.8,7.5,29.8c1.1,9.2,2.5,16.7,2.9,33.4
	c0.5,11.6-0.4,26.4-2.4,39.5c-1.8-6.7-2.9-18-17.9-41.4c1.7-1.6,3.3-6.6,3-9.8c-0.1-1.1,0.1-1.5,1.5-3.9c1.5-2.6,4.2-9.2,6.9-17.2
	c1.2-3.6,1.7-7.5,1.4-10.3c-0.4-2.6-2.6-5.1-5.2-5.9c-2.8-0.8-7.7-0.4-9.8,0.9c-0.3-4.8-5.8-6.9-9-7.2c-6-0.8-10.6,4.7-12.1,8
	c-2-2.8-7.8-4.5-12.5-1.4c-1.2,0.9-1.8,1.7-2.3,2.7c-0.7,1.6-1,4.9-0.7,6.4C946.1,222.3,945.1,222.2,943.8,222.8z M1057.5,504.2
	l-6.4,17.4l-15.4-10.3c-2.4-1.6-4.7-3.3-7.1-5c-1.4-2.6-1.9-12.3-1.8-12.4c0.1-0.4,7.1,0,10.5,0.6
	C1043.4,495.6,1049.4,499.2,1057.5,504.2z M1063.6,487.6c-6.6-4.6-19.3-7.7-26.9-3.9c-1.6,0.8-3.9,2.2-6.5,3.9l-2,1.3l2.8,0.1
	c9.6,0.4,18.2,3.7,28.4,9.9L1063.6,487.6z M797.7,377.2c0.3-8.2,1.2-13.4,5.1-27.4c1.4-5.1,2.7-9.9,2.9-10.7
	c0.4-1.7,0.3-1.9,0.7,4.6c0.8,13.2,0.7,16.2-1.3,22.8c-1.4,4.7-2.7,7.8-6.2,14.2c-1.2,2.1-1.2,2.1-1.2,0.9
	C797.7,380.8,797.7,378.9,797.7,377.2z M784.1,367c-2.4-3.6-4-6.8-7.8-15.9c-3.9-9.3-6-13.7-8.1-16.8c-2-3-2-3,0.2-1.2
	c7.8,6.4,12.9,13.7,17.6,25.2c0.7,1.8,3.4,14.7,3.2,15.4C789.1,374,786.6,370.7,784.1,367z M773.6,303.4c-0.8-0.7-2.9-3.1-4.7-5.5
	c-3.9-5-7.4-9.3-11-13.6c-1.4-1.7-2.5-3.1-2.5-3.2c0.1,0,1.6,1,3.4,2.4c5.1,3.8,9.6,9.1,13.2,15.4c1,1.8,2.2,3.9,2.6,4.6
	C775.6,305,775.4,305,773.6,303.4z M806.1,294.3c0.2-1.5,1.1-5.9,2-9.7c1.5-6.5,3-14.7,3-16.3c0-1.8,0.4,1.8,0.6,5.7
	c0.4,8.3-1.1,15.6-4.9,23.8l-1.2,2.6C805.6,299.3,805.6,296.5,806.1,294.3z M761.3,260.6c-2.4-2.9-3.9-5.6-4.4-8.1
	c-0.3-1.6,0.9-1.3,3.9,3c2.8,4,4.8,7.1,3.4,8.1C763.9,263.5,762.6,262.1,761.3,260.6z M769.4,261.1c-0.5-2.8-1-8.7-0.8-9.4
	c0.1-0.2,6-3.2,6.3-1.3c0.2,0.4-0.5,4.1-1.1,6.1c-0.9,2.6-3.3,7.4-3.6,7.3C770,263.7,769.7,262.5,769.4,261.1z M832.8,284.1
	c0-0.1,2.7-1.2,5.9-2.6s6.4-2.7,7-3c2.9-0.8,2.7,4.5,0.7,5.3c-3.2,1.3-8.1,1.4-13.4,0.5C832.9,284.2,832.8,284.1,832.8,284.1z
	 M828.6,268.6c0.4-3.2,1.1-6.5,1.4-7.4c0.5-1.5,0.8-1.8,2.6-2.7c1.1-0.6,3.8-2.4,5.9-4c4.9-3.7,5.6-4.1,5.9-3.3
	c0.2,0.9-1.1,4.5-2.6,7.2c-0.8,1.3-2.8,4.2-4.5,6.4l-9.8,12.6L828.6,268.6z M838.6,271.6c5.5-6.7,8.5-9.9,10.5-11.4
	c0.9-0.7,2.4-0.7,3.2-0.2c1.1,0.8,1.3,1.1,1.2,1.9c-0.3,1.4-2.8,4.8-4.9,6.5c-1.8,1.5-13.7,8.6-13.9,8.3
	C834.6,276.7,836.4,274.4,838.6,271.6z M761.8,245.7c0-2.1,0.1-4.1,0.3-4.5c0.2-0.7,0.4-0.7,1.5-0.4c1.5,0.5,2.2,1.2,3.3,3.3
	c0.6,1,0.1,2.1-0.8,2.3c-1.6,0.7-1.6,0.7-2.1,3c-0.2,2.1-0.9,2-1.3,1.2C762,249.7,761.8,248.6,761.8,245.7z M792,230.3
	c-1-2.6-1.2-4.5-0.9-9.7c0.3-7.7,0.2-9.2-2.1-21.1c-0.6-3-1.2-7.2-1.3-9.3s-0.5-5.1-0.7-6.6l-0.4-2.7l1.9,3
	c3.2,5.1,5.1,10.4,5.9,15.5c0.5,3.6,0.8,16.5,0.5,21.3c-0.2,2.8-1.1,10.7-1.4,11.4C793.2,232.7,792.6,231.9,792,230.3z M800.5,226.8
	c1.7-3.1,5.6-8,9.6-17.4c1.2-2.7,2.6-6.7,3.7-10.4c1.8-6.3,3.3-9.7,6.3-15c0.8-1.5,1.7-2.8,1.9-2.9c0.2-0.1,0.1,1.6-0.2,3.7
	c-1.6,12.2-4.3,20.2-10.5,31.8c-3.2,5.9-4.4,7.8-7.2,11.1c-1.9,2.2-3.3,4.2-4.9,4.9C799,232.8,799.5,228.6,800.5,226.8z
	 M802.8,168.5c-1.2-2.6-1.4-4.8-0.6-7.2c0.6-1.9,2.7-6.3,3.9-8.5l0.5-0.9l0.2,1c0.3,1.6-0.1,6.1-0.9,10.9c-0.3,2-0.9,5.9-0.9,8
	C804.5,171.1,803.3,169.5,802.8,168.5z M810.8,167.4c0.3-2,0.7-2.9,1.5-4.4c1.4-2.4,8.6-11.9,8.9-11.8c0.4,0.1,0.4,1.8,0.1,3.5
	c-0.2,1-0.9,2.7-2.2,4.9c-2.3,3.9-8.5,11.7-8.7,10.9C810.4,170.2,810.5,168.8,810.8,167.4z M854.9,255.7c-1.4-0.5-3.1-0.4-6.4,0
	c2.8-5.1-0.1-9.1-2.6-9.9c-2.4-0.8-4.3,0-9.6,4c-2.6,1.9-5.5,3.9-6.5,4.5c-2.8,1.5-3.5,2.4-4.4,5.1c-1.3,3.9-3.2,19-2.8,22.2
	l0.2,1.9l-3.9,4.9c-2.2,2.7-4.1,5.1-4.4,5.3c-0.2,0.2,0-1.2,0.6-3.2c2.5-8.9,2.4-20.6-0.2-30.3c-1.4-5.3-2.3-7.1-3.7-7.6
	c-1.4-0.5-3.4,0.3-3.5,1.4c-0.1,1.6-1.7,15.9-2.2,18.8c-0.3,1.8-1.3,6.5-2.2,10.4c-0.9,3.9-1.8,8.8-2.1,10.8c-0.6,4.8-0.6,11.2,0,14
	c0.6,2.3-0.7,4.1-1.2,5.2c-3.8,6.4-5.6,10.4-8,17.6c-1.3,3.9-1.6,4.5-2.4,6.9c-0.2-0.4-0.4-17.8-0.3-22.3c0.2-8.5,0.5-12.7,1.8-26.7
	c1.7-17.2,3.3-29.3,5.2-39.4l1.6-8.2l2-1.9c1.1-1.1,3.2-3.1,4.8-4.6c4.1-3.8,7.1-8,10.7-14.7c5.6-10.5,7.8-16,9.8-25
	c2.1-9.5,3.2-22.9,2-24.5c-1.4-1.9-3.7-1.4-5.3,1.3c-0.6,1-2.3,3.7-3.7,6c-4.1,6.4-6.4,11.4-8.6,18.8c-1.9,6.2-5.2,15-6.7,16.8
	c-0.1-0.1,0.6-4.3,1.3-8.7c1.8-10.3,2.4-13.2,4.3-19.4c1.7-5.9,1.7-5.8,7.5-12.6c9.5-11.1,12.1-17.2,10.1-23.6
	c-1.1-3.7-3.4-5.3-5.7-4.2c-1.2,0.6-1.4,0.8-5.6,6.3l-2.5,3.2l-0.3-2.4c-0.6-5.1-2-7.7-4.2-8c-2.2-0.3-3.3,1.1-7.3,9.2
	c-2.8,5.7-4,9.8-3.7,12.7c0.4,3.5,2.2,7,5.4,10.4l2.7,2.9l-1.4,5c-1.3,4.4-2.7,10.4-3.5,14.9l-0.3,1.4l-0.4-2.4
	c-1-5.7-3-10.8-6.2-16.1c-1.2-2-3.2-5.6-4.4-7.9c-3.4-6.6-5.6-8.5-7.8-6.7c-1,0.8-1.1,1.8-0.4,5.1c0.3,1.4,1.8,13.9,1.9,16.3
	c0.4,5.7,0.7,7.5,2.1,14.8c1.5,7.9,1.8,10.9,1.6,17c-0.1,2.8-0.1,6.2,0.1,7.6c0.4,3.1,2.5,7.4,4.8,9.9c0.9,1,1.7,2.1,1.7,2.4
	c0,0.3-0.7,4.5-1.6,9.3c-0.9,4.8-2.2,13-2.8,18.3c-1.4,10.9-3.6,33.6-3.8,39.6c-0.1,2.2-0.2,4.1-0.3,4.2c-0.5-1-0.7-1.7-1.6-4
	c-0.8-2.4-2.4-6.8-3.6-10c-2.3-6.3-4.3-12.7-5.6-18.5c-1.3-5.6-0.7-8.9,2.6-15.2c2.4-4.5,4.1-10.5,4-13.6c0-5.1-4-6.6-7.2-4.9
	l-1.1-2.7c-1.5-3.6-3-5.2-5.8-6.4c-2.6-1.1-4.9-1.3-6.5-0.6c-2.6,1-3.3,4.8-2.9,7.1c-1.6-1.3-4.2-1.4-5,1.3c-0.7,2,0.1,9.2,1.5,12.7
	c1.5,4,4.6,7.9,9.4,11.7c3.9,3.1,4.4,4,5.5,9.2c0.5,2.5,1.3,5.7,1.6,7l0.6,2.4l-2.9-3c-3.9-4-14.4-11.5-17.7-12.7
	c-3.1-1.1-5.2,0.6-4.4,3.5c0.4,1.7,4,6.7,9.2,12.9c5.7,6.9,9.8,11.9,12.5,15.5c1.2,1.6,3.3,3.7,4.8,4.9c2.7,2.2,6.4,4.5,6.9,4.4
	c2.5,3,2.9,9.1,3.6,16.8c0.2,2.7-0.2,5.9,1.6,12.5c-3.4-5.6-8.8-10.1-12.7-13.3c-3.7-3.1-6.9-4.5-9.6-4.2c-1.9,0.2-4,3.1-2.1,5.5
	c2.9,4.1,3.8,5.6,6.2,9.5c2.1,3.4,3.6,6.9,7.9,17.4c1.4,3.5,3.2,7.4,3.9,8.6c2.4,4.3,9.7,14.3,12.9,17.6c1.9,2,2.3,3.8,3.5,14.6
	c1.5,14.3-0.2,20.7-1.4,38.9c-11.4-10.7-20.5-22.2-28.6-35.6c-9.2-15.2-16.6-31.5-21.9-48.5c-6-19.3-10-39.1-12.1-59.2
	c-2.4-23.5-3-47.2-1.7-70.9c0.9-18.6,3.2-37.1,7-55.4c3.6-17.8,9.1-35.1,16.4-51.7c7.7-17.6,18.1-33.8,30.8-48.2
	c19.4-22,45-37.5,73.4-44.4c15-3.6,30.5-5.3,45.9-5c15.5,0.1,31,2.1,46.1,6.1c23.4,6.2,44.8,18.2,62.3,35c11.4,11,21.1,23.6,29,37.3
	c8.4,14.8,15,30.5,19.7,46.9c5.1,17.8,8.7,36,10.6,54.5c2.9,27.8,3.3,55.8,1.3,83.6c-1.4,20-4.5,39.9-9.3,59.3
	c-4.6,18.3-11.3,36.1-20.1,52.8c2.2,4.4,14.7,13.2,18.1,15.7c4.8,3.4,9.7,6.6,14.7,9.6l12.5,7.5l-20.5,55.9c-4.3-3.5-10-5-15.4-5.4
	c-11.7-1-15.7,1.2-20.4,3.8c1.9-6.6,4.9-14.5,8.4-20.3c6.8,1.6,13.8,0.3,19.4-3.5c1.1,1.8,3.4,2.4,5.1,1.5c2-1.5,2.5-4.4,1.1-6.7
	c-1.2-2.5-4-3.7-6.4-2.7c-1.2,0.5-1.9,1.8-1.9,3.2c-3.2,2.1-6.9,3.4-10.8,3.8c4-1.4,7.5-4,9.8-7.6c2,0.3,3.6-1.1,3.8-3.2
	c-0.2-2.8-2.6-5.1-5.3-5.1c-2,0.1-3.6,1.8-3.6,3.9c0.1,0.6,0.2,1.1,0.5,1.6c-2.1,3.1-5.2,5.3-8.8,6.2c0.9-2.7,2.1-5.3,3.6-7.7
	c1.9,0.1,3.5-1.4,3.7-3.4c0.1-2.2-1.4-4.2-3.4-4.8l-0.6-0.1c-0.1,0-0.1,0-0.2,0c-1.2-0.1-2.4,0.6-2.8,1.8c-0.6,1-1,2.1-1,3.3
	c-1.5,2.6-2.8,5.3-3.8,8.1c-0.7-3.4-0.5-6.8,0.4-10l0.5-2.4c1.8-0.4,3.2-1.9,3.3-3.9c0-0.2,0-0.4-0.1-0.6c-0.1-0.2-0.1-0.3-0.2-0.5
	c-2.1-3.1-6.1-4-9-2c-1.6,0.9-2.6,2.7-2.3,4.7c0.3,1.3,1.3,2.3,2.6,2.6c-1.9,6-1.6,12.6,1,18.6c0.3,0.6,0.6,1.2,0.9,1.8
	c-5.2,8.9-7.4,11.3-9.2,21.7c-0.2-3.6-5.4-24.8-13.3-32.4c-4.7-4.5-10.4-6.4-13.9-4.6c-1.4,0.7-2.6,2.7-2.8,4.6
	c-0.3,2.2,0,8.1,8.5,19.3c5.1,6.7,7.5,9.1,11.9,14.6c5.9,6.2,4.7,6.9,5.2,10.5c0.2,1.7-0.6,5.7-2.2,7.6c-2.5-2-5-4-7.4-6.1
	c-7.7-6.6-16.4-12.4-22.5-20.5c-3-3.9-1.5-6.5-0.5-21.3c1.2-3.7,11.1-16.9,20.4-25.8c14.1-13.5,18-18.5,20.2-25.6
	c2.2-4.5,0.8-10.2,0.2-11.4c-1.9-4-5.9-5.6-10.9-4.4c-6.6,1.6-13.2,6.2-18.9,13.3c-2.9,3.6-7,9.6-8.9,13.1c-0.8,1.5-1.5,2.6-1.6,2.5
	c-0.2-0.2,0.8-7.1,2-13.4c1.8-10.4,7.6-38.6,8.7-42.5c0.3-1.1,3.5-3.1,13.1-8c8.2-4.2,9.6-5,14.8-8.4c12.4-8.2,19.2-13.3,22.9-17.4
	c8.3-9.3,10.9-18,6.7-22c-2.5-2.4-6-2.3-12.5,0.3c-4.3,2-13.1,7.2-17.5,10.2l4.3-9.3c5-10.6,7-15.4,9.3-23
	c2.1-6.8,3.4-14.6,3.1-18.2c-0.5-5.1-4.1-7.3-8.6-5.1c-3.8,1.8-9.4,8.6-14.2,17.3c-1.8,3.3-5.2,8.7-9,19.3c0-0.3,1.1-23.4,1.2-28.5
	c-0.2-1.7,0.8-5.3,2-7.2c3.4-3.4,12.3-17.3,17-26.6c4.4-8.8,6.2-13.5,7.1-18.2c0.7-4.1,0.6-6-0.5-8c-3.6-6.9-11.9-3.3-18.6,7.9
	c-1.8,3.1-7.3,12.7-8.1,18.7c-3.1-13.8,8.3-30.7,9.5-32.9c5.7-0.5,11.3-1.7,16.6-3.8c6.9-2.8,12.6-7.7,16.1-14.1
	c2-3.4,4.1-8.3-3.4-10.6c3.9-6.7,1.4-15.2-5.5-19c-4.7-3-10.7-3.1-15.5-0.2c-1,0.7-1.8,1.6-2.5,2.7c-4-2.6-9.4-1.7-12.3,2
	c-2.3,2.7-3.7,5.9-4.1,9.4c-1.6,8.7-1.2,17.7,1.4,26.2c0.7,1.8,1.6,3.5,2.7,5.2c-5.8,7.1-6.2,7.9-9.1,14.4
	c-1.8-8.9-8.6-25.2-11.2-31.2l9.4-15.5c12.2-19.3,16.6-28.3,18.6-38.1c1.4-6.5,1.5-16.3,0.3-20.4c-1.1-3.7-3.7-7.7-10.5-4.5
	c-4.5,2.2-10.6,10-15.7,20.4c-1.8,3.7-4.5,10.2-5.7,13.7l-0.6,1.9l-0.6-6c-1.8-19.2-3.8-29.3-8.6-43.8c-3.2-9.5-5.7-14.7-8.4-17.7
	c-5.1-5.5-11.9-5.1-14.6,0.9c-1.4,3-1.7,5.2-1.7,12.1c0,7.1,0.3,9.8,2.2,19.8c2.2,11.3,5.7,23.4,11.2,38c1.2,3.3,2.2,5.9,2.1,5.7
	c-0.1-0.1-1.4-1.8-2.9-3.8c-4.2-5.7-6.2-8-10.2-12.1c-6.8-6.9-14-11.7-19.8-13.4c-8.8-2-12.3-0.8-15.2,7.8c-1.2-1.2-2.6-2.4-4-3.5
	c-6.8-4.5-15-6.5-23.1-5.6c-10.5,0.6-19.9,6.4-25.1,15.3c-4.7,7.7-7.9,16.3-9.4,25.1c-3.2,16.5-5.1,33.1-5.7,49.9
	C854.9,221.2,854.6,238.4,854.9,255.7z M910,462.8c-1.2-3.4-3-10.7-3.4-13.7c-0.5-4-0.3-6.9,0.4-10c0.7-3,1.4-4.3,2.4-4.9
	c0.6-0.3,0.7-0.3,1.1,0.3c0.6,0.9,1.2,3.4,1.4,6.2c0.3,3.1,0.1,13.2-0.2,19.2c-0.2,2.7-0.3,5.1-0.3,5.3
	C911.3,466.1,910.9,465.4,910,462.8z M922.1,464.2c4.4-6.9,8.8-12.7,12.5-16.3c2.6-2.5,5.8-5.1,5.9-4.7c0.1,0.8-5,7.9-9.8,13.5
	c-2.8,3.4-10.5,11.1-10.5,10.7C920.3,467.2,921.1,465.8,922.1,464.2z M928.8,413.9c-0.9-0.3-2-0.8-2.5-1.2c-0.8-0.7-0.8-0.8-0.5-1.4
	c0.2-0.4,1.5-1.8,2.8-3.3c2.4-2.6,2.4-2.6,3.4-2.4c2.2,0.5,2.2,0.4,2.2,4.6c0,4.1-0.1,4.3-2.3,4.2
	C931.1,414.5,929.7,414.2,928.8,413.9z M946.5,406c-0.8-0.2-1.7-0.7-2.1-1c-1.5-1-3.7-3.4-3.7-3.8c0.1-0.9,8.2-5.7,9.6-5.6
	c0.8,0,1.3,3.7,0.9,6.7c-0.4,3.1-0.5,3.6-1.4,3.9C948.8,406.6,948.2,406.6,946.5,406z M918.8,399.5c-0.1-0.4,0-2.1,0.1-3.9
	c0.2-2.6,0.4-3.4,0.9-4.4c0.8-1.5,1.4-1.6,3.1-0.6c1.1,0.6,5.5,5.3,5.4,5.8c0,0.6-0.9,1.1-4.1,2.3C920,400.6,919,400.7,918.8,399.5z
	 M937.5,393.7c-1.3-0.7-1.4-1.4-1.2-6.1c0.2-4.1,0.4-4.7,2.1-5.1c1.7-0.4,3.4,0,4.2,0.9c0.6,0.7,0.6,1,0.4,2.7
	c-0.1,1.1-0.5,2.5-0.9,3.2c-0.6,1.3-3.2,4.9-3.4,4.9C938.6,394.3,938.1,394.1,937.5,393.7z M896.7,468.7
	c-4.1-6.5-8.2-11.9-11.7-15.3c-2.4-2.4-5.4-4.8-5.5-4.4c-0.1,0.8,4.7,7.4,9.1,12.7c2.6,3.2,9.7,10.4,9.8,10
	C898.4,471.5,897.6,470.2,896.7,468.7z M893,430.7c0.8-0.2,1.9-0.5,2.4-0.9c0.8-0.5,0.9-0.6,0.6-1.2c-0.2-0.4-1.2-1.9-2.2-3.4
	c-1.9-2.7-2-2.7-2.9-2.6c-2.1,0.2-2.1,0.1-2.5,4.1c-0.4,3.8-0.3,4.1,1.6,4.2C890.8,431,892.1,430.9,893,430.7z M877.4,421.4
	c0.8-0.1,1.7-0.4,2.1-0.7c1.5-0.8,3.8-2.7,3.9-3.1c0.1-0.9-7-6.2-8.3-6.3c-0.7-0.1-1.6,3.3-1.6,6.1c0,3,0.1,3.4,0.9,3.8
	C875.2,421.7,875.8,421.7,877.4,421.4z M903.9,418.5c0.1-0.4,0.3-2,0.3-3.6c0.1-2.5,0-3.2-0.4-4.2c-0.6-1.4-1.1-1.6-2.8-0.9
	c-1.1,0.5-5.7,4.3-5.7,4.8c0,0.5,0.8,1.1,3.5,2.6C902.7,419.3,903.5,419.5,903.9,418.5z M887.1,411c1.3-0.5,1.5-1.1,1.8-5.5
	c0.3-3.8,0.1-4.4-1.4-5c-1.6-0.5-3.2-0.4-4,0.4c-0.6,0.6-0.7,0.8-0.7,2.5c0,1,0.2,2.4,0.5,3.1c0.5,1.3,2.4,4.9,2.6,4.9
	C886,411.4,886.5,411.2,887.1,411z M921.9,474.6c6.4-5.5,11.1-11.7,15.4-17.1c7.7-9.7,11.3-16.4,10.5-19.8c-0.5-2.1-2.5-3.3-4.6-2.9
	c-2.2,0.5-9.4,5.8-13.5,10c-2.5,2.5-6.6,8.1-9.5,11.9c6.5-12.6,11.8-29.5,12.7-36.3c2.9-0.3,4.7-1.7,5.9-4.1
	c0.6-1.1,0.7-1.9,0.8-4.4c0.1-1.7,0.2-3.1,0.2-3.1c0,0,0.5,0.3,1.1,0.7c2.6,1.9,7.3,2.9,10.1,2.1c1.9-0.5,4-2.3,4.7-4
	c0.7-1.6,1.2-7.7,0.9-10.3c-0.3-2.2-1.3-4.9-2.2-5.8c-1.4-1.4-3.7-2-5.6-1.4c-0.5,0.1-0.9,0.2-1,0.2c-0.1-0.1,0.1-0.9,0.4-1.9
	c1.3-4.7-0.6-9.3-4.5-10.9c-1.6-0.6-4.8-0.9-6.7-0.5c-2.6,0.6-4.5,2.2-5.6,4.6c-0.2,0.5-0.5,2.6-0.7,4.6l-0.3,3.7l-1.8-1.8
	c-2.9-2.9-5.9-4.2-8.6-3.7c-3.7,0.7-6.2,4.4-6.8,10.3c-0.3,2.8-0.1,6.1,0.6,7.5c1.2,2.7,3.6,3.9,6.7,3.5c1-0.1,2.1-0.3,2.5-0.5
	c0.7-0.2,0.7-0.2-0.3,1c-2.4,2.9-3.2,5.6-2.2,7.9c0.6,1.4,2.1,4.2,5.4,4.7c-0.2,1.4-2.3,15.8-8.9,28.1c-0.1-7.8-0.8-15.3-3.3-17.3
	c-1.3-1-3.7-1.6-5.1-1.2c-1.2,0.3-3.2,1.6-4.2,2.6c-1.6,1.9-3,6-3.5,10.3c-0.5,4.9,0,9.5,1.9,16.6c-4.4-5.3-8-16.6-7.4-22.3
	c1.7-0.6,4.5-2.7,5.3-3.9c1.2-2,0.8-4.6-1.1-7.6c-0.8-1.2-0.8-1.3-0.2-1c0.4,0.2,1.4,0.5,2.3,0.7c2.8,0.7,5.2-0.2,6.6-2.5
	c0.7-1.2,1.3-4.2,1.3-6.9c0.1-5.6-1.8-9.3-5.2-10.4c-2.5-0.8-5.4,0.1-8.4,2.5l-1.8,1.5l0.1-3.4c0.1-1.9,0-3.9-0.2-4.4
	c-0.7-2.4-2.3-4.1-4.7-4.9c-1.7-0.6-4.7-0.7-6.2-0.3c-3.8,1.1-6.1,5.2-5.4,9.7c0.1,0.9,0.2,1.7,0.2,1.8c-0.1,0-0.5-0.1-0.9-0.3
	c-1.7-0.7-3.9-0.4-5.4,0.7c-1,0.8-2.2,3.2-2.7,5.2c-0.6,2.4-0.8,8.1-0.3,9.7c0.5,1.6,2.2,3.5,3.9,4.2c2.5,1,7,0.6,9.6-0.8
	c0.6-0.3,1-0.6,1.1-0.6c0,0,0,1.3-0.1,2.9c-0.2,2.4-0.1,3.1,0.3,4.2c0.8,2.4,3.7,4.2,6.4,4.7c-1.1,4.1,3.1,16.2,5.7,21
	c-2.7-3.6-3.6-4.7-5.9-7.1c-3.7-3.9-10.5-8.9-12.6-9.4c-2-0.4-3.8,0.7-4.3,2.7c-0.7,3.1,2.6,9.5,9.8,18.5c4,5.1,6.2,8.2,12.1,13.4
	c-13.5-0.2-26.9-2-39.9-5.2c-5-1.2-9.9-2.8-14.7-4.6c6.7-10.2,6.6-31.5,6.8-40.1c0.1-5.3-2.5-5.5-3.5-5c-1.2,0.6-6.2,4.1-8.8,8.2
	c-1.3,2-3.3,5.5-4.4,7.8c-1.1,2.3-2.1,4.2-2.2,4.1c-0.1-0.2,0.3-7.5,0.5-10.2c0.5-4.9,1.5-11.1,2.4-14.8c1-3.8,1-3.9,1.7-5.3
	c0,0.8,3.4,10,10.1,6.4c4.9-3.3,4.6-9.3,4.7-12.3l1.1,1.5c1.6,2.2,3.8,4.1,5.6,4.7c3.2,1.2,6.4,0.2,7.7-2.3c0.8-1.6,0.8-5.7-0.1-7.8
	c-0.3-0.8-0.6-1.5-0.5-1.6c0,0,0.7,0.1,1.6,0.3c2,0.5,5.6,0.5,7.1-0.1c1.5-0.5,3.6-2.3,4.3-3.8c2.3-4.6-1.2-10.3-8.5-13.7
	c-5.6-3-12.5-2.4-15.7-1.9c-1-7-11.9-15.1-18-2c-4.2-0.4-10,1.6-13.5,3c-4.7,1.9-11.4,6.5-13.7,9.5c-2.5,3.2-2.1,6.6,0.8,8
	c1.4,0.7,4.9,0.6,7.6-0.2c1-0.3,1.9-0.5,2-0.5c0,0-0.5,0.9-1.1,1.9c-3.4,5-4.4,9.9-2.6,12.9c1,1.7,2.5,2.4,4.7,2.2
	c2.7-0.2,4.4-1.3,8.2-5.1c2.1-2,2.3-1.9,3.2-2.7c-3.3,11.1-4.6,20.9-5.1,33.1c-2.7-6.1-12.7-25.3-17-14.4c-0.8,4.4-2.1,12.6-2.1,20
	c-0.6-0.4-1.2-0.9-1.7-1.3c-0.8-4.3-1.2-30.5-2.5-44c-0.2-2.4-0.7-7.3,0.3-10c0.6-1.1,2.5-4.6,4.3-7.9c2.9-5.2,3.5-6.6,5.5-12.5
	c1.8-5.3,2.3-7.2,2.5-9.4c0.4-4,0.4-9.2,0.1-13.3c-0.2-1.9-0.4-6.3-0.6-9.6c-0.6-10.1-0.9-13-1.6-13.8c-2-2.3-5.3,2.2-6.7,7.9
	c-2.6,8.1-6.7,23.2-7.9,28.5c-1.2,5.5-1.2,5.5-2.2,1.5c-1.8-7.1-1.5-9.8,2.4-24.4c1.8-6.6,2.8-9.4,6-15.8c3.3-6.8,6.2-11,13.9-20.4
	c2.4-2.9,5.7-7.1,7.3-9.2c2.3-2.9,3.2-3.9,3.8-3.9c0.4,0,2.9,0.3,5.4,0.7c5.6,0.9,9,1.1,12.4,0.6c4.6-0.7,8.1-2.6,8.9-5
	c2-3.9,0.4-9.2-2.2-11.1c1.6-0.6,4.5-2.4,4.8-3.9c0.4,12.6,1.2,25.3,2.3,37.9c1,11.8,3,23.5,6,35c1.5,5.5,3.6,10.8,6.5,15.8
	c3.9,7.4,10.5,13.1,18.6,15.8c9.1,2.6,18.8,1.8,27.3-2.3c6.4-3.7,11.5-9.3,14.6-15.8c3.9-8,6.5-16.5,7.9-25.3
	c3.6-22,5.4-44.3,5.5-66.6c0-1.6,0.1-3.2,0.1-4.9c4.5,1.5,11.9,4.4,21.6,1.8c1.7-0.4,1.8-0.4,2.7,0.1c2.9,1.2,8.6,2,11.4,1
	c11.6,15.8,16.6,31.5,19.4,57.6c-0.8-3.9-2.3-8.9-3.5-12.2c-4.6-12.2-12.2-17.2-16.9-11.1c-1.4,1.8-1.9,3.7-1.9,7.8
	c0,4.7,0.9,9.7,3.7,19.1c2.9,10,9.2,25.3,11.9,29.2c0.6,1.6,0,5.6-0.6,7.7c-1.6,7.1-5.8,27.5-7.5,37c-0.6,3.5-1.1,5.7-1.2,5.3
	c-0.1-0.4-0.4-3.7-0.8-7.4c-1.7-17.2-4.8-30.1-10.5-43.1c-4.5-10.3-10-18.5-13.5-20.3c-3.1-1.6-6.2-0.1-7.4,3.5
	c-0.6,1.9-0.5,11.3,0.2,16.2c1.3,9.6,3.7,21.6,6.5,33.2c3.1,12.8,5,18.8,12.4,39.4c3,8.2,4.6,13.5,6.2,19.1c0.8,2.4,0,14.2-0.3,16.6
	c-12.5,6.1-25.8,10.4-39.5,12.8C931.7,473.4,926.8,474.1,921.9,474.6z"/>
<path class="st0" d="M551.5,190.5c1.8-3.2,3.1-6.6,4-10.1c1.3-5.1,2.2-10.3,2.5-15.5c0.4-5.9,0.3-11.7-0.4-17.6
	c-0.3-3-0.8-5.9-1.6-8.8c-1.4-5.3-4-10.3-7.6-14.4c-2.3-2.2-4.6-3.5-8.8-4.2c-4.2-0.6-8.5-1.2-12.7-1.3c-3.9-0.1-7.8-0.2-11.6-0.1
	v80.5c4.8,0.1,9.6,0,14.4-0.3c3.4-0.3,6.9-0.7,10.2-1.4c2.2-0.5,4.4-1.2,6.6-2.1C548,194.3,550.5,192.1,551.5,190.5z M374.1,0
	c-1.2,0-2.2,1.2-2.2,2.4v477.2c0,1.3,1.1,2.3,2.3,2.3h138c1.3-0.1,2.2-1.1,2.2-2.4v-158c8.2,0.1,16.4,0,24.5-0.2
	c12.4-0.3,24.8-1.2,37.1-2.6c4.8-0.6,14.3-2.1,19-3c8.5-1.7,16.9-4,25-7c21-7.8,39.4-21.2,53.3-38.8c10.9-13.8,19.2-29.6,24.4-46.4
	c3.3-10.5,5.6-21.2,6.9-32.1c0.3-2.5,1.5-16,1.6-18.9c0.7-13.9,0.2-27.8-1.5-41.6c-0.1-1-0.4-3-0.5-4c-1.7-11.7-4.5-23.1-8.5-34.2
	c-1-2.7-3.1-8.1-4.3-10.7c-7.9-17.6-19.2-33.5-33.2-46.7c-10.1-9.5-21.9-17-34.8-22.1c-6.9-2.6-25.5-8-40.9-9.6
	c-12.7-1.7-25.5-2.7-38.4-3.2C536.4,0.1,528.5,0,520.7,0L374.1,0z M482,392.4c-0.1-9.4,0.7-15.4,4.4-31.6c1.4-5.9,2.6-11.5,2.7-12.4
	c0.3-2,0.3-2.2,1.1,5.2c1.6,15.1,1.6,18.5-0.3,26.1c-1.3,5.4-2.7,9-6.4,16.5c-1.2,2.5-1.2,2.5-1.4,1.1
	C482.1,396.6,482,394.4,482,392.4z M465.9,381.5c-3-4-4.9-7.6-9.7-17.7c-4.9-10.4-7.5-15.3-10.1-18.8c-2.5-3.3-2.5-3.3,0.2-1.3
	c9.3,6.9,15.4,14.9,21.4,27.9c0.9,2,4.6,16.7,4.4,17.4C472,389.2,469,385.5,465.9,381.5z M450.6,309.3c-0.9-0.7-3.4-3.4-5.6-6
	c-4.7-5.6-8.9-10.3-13.2-15c-1.7-1.9-3.1-3.4-3-3.5c0.1,0,1.9,1.1,4,2.6c6,4.1,11.4,9.9,15.8,16.9c1.3,2,2.7,4.4,3.2,5.1
	C453,311.1,452.8,311.1,450.6,309.3z M487.4,297.3c0.2-1.8,0.9-6.8,1.7-11.2c1.4-7.5,2.7-16.9,2.7-18.7c0-2.1,0.6,2,1,6.5
	c0.9,9.5-0.5,17.9-4.4,27.4l-1.3,3C487,303,486.9,299.8,487.4,297.3z M434.4,261c-2.9-3.2-4.7-6.2-5.4-9c-0.4-1.8,0.9-1.6,4.6,3.3
	c3.4,4.5,5.8,7.9,4.3,9.1C437.6,264.3,436,262.8,434.4,261z M443.8,261.2c-0.7-3.1-1.6-9.9-1.3-10.7c0.1-0.3,6.7-3.9,7.1-1.8
	c0.3,0.5-0.3,4.8-1,7c-0.9,3-3.4,8.6-3.8,8.5C444.6,264.2,444.1,262.8,443.8,261.2z M517.3,284.3c0-0.1,3-1.5,6.6-3.3
	c3.6-1.7,7.1-3.4,7.9-3.8c3.3-1,3.3,5,1.1,6c-3.6,1.6-9.1,2.1-15.3,1.3C517.4,284.4,517.3,284.4,517.3,284.3z M511.7,266.8
	c0.3-3.7,0.9-7.5,1.2-8.6c0.5-1.7,0.8-2,2.8-3.2c1.2-0.7,4.2-2.9,6.6-4.9c5.4-4.5,6.2-5,6.5-4.1c0.3,1-1,5.2-2.6,8.4
	c-0.8,1.6-2.9,4.9-4.8,7.5l-10.6,14.9L511.7,266.8z M523.4,269.8c6-7.9,9.2-11.8,11.4-13.6c1-0.8,2.7-1,3.6-0.4
	c1.3,0.9,1.6,1.2,1.4,2.1c-0.3,1.6-3,5.6-5.3,7.7c-1.9,1.8-15.2,10.6-15.4,10.2C519,275.7,520.9,273,523.4,269.8z M434.3,244
	c-0.1-2.3-0.1-4.7,0.1-5.2c0.2-0.8,0.5-0.9,1.7-0.5c1.7,0.5,2.6,1.3,3.9,3.6c0.8,1.1,0.3,2.4-0.7,2.7c-1.8,0.9-1.8,0.9-2.3,3.6
	c-0.2,2.4-1,2.4-1.4,1.4C434.7,248.6,434.4,247.3,434.3,244z M468,224.9c-1.3-3-1.6-5.1-1.6-11c0-8.9-0.3-10.6-3.5-23.9
	c-0.8-3.4-1.7-8.2-2-10.6c-0.3-2.4-0.8-5.8-1.1-7.5l-0.6-3.1l2.3,3.4c3.9,5.7,6.4,11.6,7.5,17.4c0.7,4,1.7,18.8,1.6,24.3
	c-0.1,3.2-0.7,12.3-1,13.1C469.5,227.6,468.7,226.7,468,224.9z M477.5,220.5c1.8-3.6,6-9.5,10.1-20.3c1.2-3.1,2.6-7.8,3.7-12.1
	c1.8-7.2,3.3-11.2,6.4-17.4c0.9-1.7,1.8-3.3,2-3.4c0.2-0.1,0.2,1.8,0,4.2c-1.3,14-3.9,23.3-10.4,36.9c-3.3,6.9-4.6,9.1-7.7,13.1
	c-2,2.6-3.6,5-5.4,5.9C476.1,227.4,476.5,222.6,477.5,220.5z M490,150.3c2.1-2.6,2.9-5,2.7-7.9c-0.2-2.3-1.2-7.8-2-10.5l-0.3-1.2
	l-0.5,1.1c-0.7,1.8-1.6,6.8-2.1,12.4c-0.2,2.3-0.7,6.8-1.3,9.1C487.4,152.7,489.1,151.3,490,150.3z M481.5,146.8
	c0.2-2.3,0.1-3.5-0.4-5.3c-0.9-3.1-6.2-15.6-6.6-15.6c-0.4,0-1,1.9-1.1,3.8c-0.1,1.2,0.3,3.2,1.1,6c1.4,4.9,6.1,15.4,6.6,14.5
	C481.1,150,481.4,148.4,481.5,146.8z M604.4,222.4c1.4-0.1,3.6-0.6,4.9-1.1c-3.7-3.4-11.7-8.7-16-10.5c-2.8-1.1-4.7-1.2-6.9-0.2
	c-1.9,0.8-6.2,4.1-4.2,6.1c1.7,2,6.4,4.3,10.5,5.1C595.1,222.2,601.9,222.6,604.4,222.4z M615.4,212.9l-0.4-4
	c-0.2-2.2-0.2-8.5-2.8-11.5c-3.4-3.7-9-3-10.6-2.3c-1.9,0.8-4.3,2.7-4.3,3.5c2.7,11.5,11,13.4,14.7,17.1
	C613,215.4,615,214.4,615.4,212.9z M628.1,209.6c1-0.8,1.1-1.4,4.4-10.1c2.4-6.3,3.1-8.7,3-11.1c0-2.3-5.8-2.9-7.3-2.2
	c-2,0.8-4.8,3.3-6,5.3c-1.9,3.2-2.6,7.9-1.9,11.6c0.2,1.1,1,7.7,1.1,7.7C621.6,210.7,624.8,213.7,628.1,209.6z M594,204.9
	c-2.2-1.9-2.8-6.1-2.2-8.3l-1.3-0.8c-2.7-1.6-6.1-0.9-7.6,1.6c-0.6,0.9-1.2,5.1,2.5,7.5C587.3,204,591.7,204.2,594,204.9z
	 M615.3,192.9c0.7-1.9,3.4-6.4,4.6-7.5c0.7-0.6,0.7-0.9,0.7-2c-0.1-3.1-2.7-4.9-6.1-4c-2.3,0.6-5.2,5.7-5.8,9.2
	C611.6,188.3,614.6,190.8,615.3,192.9z M602.1,188.8c0.4-0.3-1.3-3.5-2.2-4.2c-2.5-1.6-4.8,0.3-4.9,1.9c-0.1,1.2,1,4.6,1.5,4.7
	C596.5,191.2,599.2,188.8,602.1,188.8z M652.1,255.2c0.6-8.6,1.2-12.6,2.7-18.8c2.2-8.6,6.8-18.6,10.6-22.8c1.6-1.7,3.6-2.9,4.8-2.9
	c2,0,1.6,5.5-0.9,13.2c-1.5,4.6-3,8.1-7.4,17.4c-3.7,7.7-7,15.1-9,20.3c-0.6,1.8-1.2,2.1-1.2,1.3
	C651.7,261.9,651.8,258.5,652.1,255.2z M396.8,459.7c-2-2.9-5.4-9.5-6.4-12.2c-1.3-3.6-1.8-6.4-1.7-9.5c0.1-2.9,0.5-4.4,1.5-5.1
	c0.6-0.4,1.6,0,2.7,1.9c0.8,0.7,6,16.6,6.8,22.3c0.4,2.5,1,4.8,1,5C400.8,462.8,398.3,461.9,396.8,459.7z M411.7,459
	c3.2-7.4,6.6-13.7,9.7-17.8c2.2-2.9,5-6,5.1-5.6c0.2,0.8-3.6,8.4-7.4,14.6c-2.2,3.7-8.6,12.5-8.7,12.1
	C410.4,462.2,411,460.7,411.7,459z M408.1,410.3c-1-0.1-2.2-0.4-2.8-0.7c-1-0.5-1-0.6-0.8-1.2c0.1-0.4,1.1-2,2.2-3.7
	c1.9-2.9,2-3,3-2.9c2.4,0,2.4-0.1,3.3,3.9c0.9,3.8,0.8,4.1-1.5,4.4C410.7,410.3,409.1,410.4,408.1,410.3z M425,399.3
	c-0.9-0.1-2-0.3-2.4-0.5c-1.7-0.7-4.6-2.4-4.7-2.8c-0.1-0.9,7.4-7,8.8-7.2c0.8-0.1,2.1,3.2,2.4,6.1c0.3,3,0.2,3.5-0.7,3.9
	C427.5,399.4,426.8,399.5,425,399.3z M394.7,398.7c-0.2-0.3-0.5-2-0.7-3.7c-0.3-2.5-0.3-3.3,0-4.4c0.5-1.5,1.1-1.8,3.1-1.2
	c1.3,0.4,6.8,3.9,6.9,4.4c0.1,0.5-0.8,1.2-3.8,3C396.1,399.4,395.1,399.8,394.7,398.7z M413,389.5c-1.5-0.4-1.8-1-2.5-5.5
	c-0.7-3.9-0.5-4.5,1.1-5.2c1.7-0.7,3.6-0.7,4.5,0c0.7,0.6,0.8,0.8,1,2.5c0.1,1.1,0,2.4-0.2,3.2c-0.4,1.3-2.3,5.3-2.5,5.3
	C414.3,389.9,413.7,389.7,413,389.5z M395.2,469.8c-6.8-6.4-11-17.7-11.5-22.4v22.4H395.2z M626.9,284c1.9-3.6,2.6-5.6,2.9-8.2
	c0.2-1.3-0.1-1.4-1-0.4c-1.8,1.9-3.3,6.4-3.4,10.2c0,0.6,0,1,0.1,0.9C625.7,286.4,626.3,285.3,626.9,284z M616.4,289.1
	c-3-1.7-9.9-3.5-12.9-3.3l-1,0.1l0.7,0.4c2,1.3,5.3,2.4,8.6,3c2.1,0.4,6,0.8,6,0.7C617.7,289.9,617.1,289.5,616.4,289.1z
	 M608.9,269.8c-1.9-2.1-3.5-3.4-5.2-4.3c-2.5-1.4-5.8-1.9-7.1-1.1l-0.7,0.4l0.7,1c1.3,2,4.6,3.5,10.9,5.1c1.6,0.4,2.8,0.7,2.8,0.6
	C610.4,271.4,609.7,270.7,608.9,269.8z M615.6,264.1c0.2-2.1,0.1-4.3-0.1-6.6c-0.2-1.8-0.7-4.3-0.9-4.4c-0.2,0-0.6,2.7-0.6,4.7
	c-0.1,2.5,0.2,4.6,0.8,7.2C615.3,267.4,615.3,267.4,615.6,264.1z M608.7,260c-0.3-1.1-0.6-1.8-1.7-3.5c-1.9-2.9-2.5-2.9-1.7,0.1
	c0.3,1,0.7,1.9,1.7,3.7c0.8,1.3,1.6,2.6,1.9,2.9l0.5,0.6l-0.2-1.2C609.1,261.9,608.9,260.8,608.7,260z M591.7,246.2
	c0-0.8-0.2-2-0.4-2.7c-0.4-1.6-1.9-4.6-2.7-5.5l-0.5-0.6l0,0.6c0.1,1.6,1.7,6.4,3,9.2C591.7,248.3,591.8,248.2,591.7,246.2z
	 M587,249.9c-3.3-2.3-6.1-3.5-8.4-3.6c-2.5-0.1-2.7,1.1-0.4,2.6c1.4,0.9,3.4,1.5,5.5,1.6c1.2,0.1,3.8,0,4-0.1
	C587.6,250.4,587.3,250.1,587,249.9z M567.4,297.8c1.9-1.5,2.7-2.3,3.3-3.4c0.4-0.8,0.8-1.5,0.7-1.6c-0.1-0.3-1.7,0.6-3.1,1.8
	c-1.2,1-4.2,4.6-4.4,5.4C563.7,300.6,564.6,300,567.4,297.8z M557.3,288.7c-0.7-4.8-2.1-9.4-2.8-9.3c-0.8,0.2-0.4,4.9,0.7,8.1
	c0.9,2.8,2.4,5.8,2.6,5.5C557.9,292.9,557.7,290.9,557.3,288.7z M568.9,271.1c0.8-1.3,1.6-4.3,1.9-7.2c0.4-3.2,0.1-3.3-1.5-0.8
	c-1.2,1.9-1.7,3.4-2,6.5c-0.2,1.6-0.1,2.1,0.1,2.4C568,272.5,568.1,272.4,568.9,271.1z M554.5,308.5c0.2,0,2.2-7.1,2.1-7.6
	c0-0.2-0.8-1.5-1.6-2.9c-4.4-7.3-6.2-13.7-5.5-18.7c0.4-2.9,2.5-5.4,4.6-5.5c2.7-0.1,5.1,2.6,6.6,7.7l0.7,2.3l1.3-5.4
	c-1.3-2-0.3-9.1,0.1-11.5c0.9-5.2,4.1-9.7,7.4-10.5c2.4-0.6,4.4,0.5,5.1,2.6c0.8,2.4,0.1,8.6-1.4,12.6c-1.1,3.6-4.5,7.1-6.4,7.9
	l-3.1,12c6.2-6.4,9.5-3.7,10.8-2.6c1.7,1.5,1.3,5.4-0.9,8.6c-1.4,2-2.6,3.1-5.6,5.2c-2.9,2-3.5,2.5-6,3.2l-0.1,1.9
	c4-0.3,8-0.7,12.1-1.2c6.1-0.7,12.2-1.7,18.2-2.9c9.1-1.8,18.1-4.4,26.8-7.8c1.1-0.4,2.1-0.9,3.2-1.4c-0.1-0.3-0.3-0.8-0.4-1
	c-5.3,0.5-13.5-0.5-18.2-2.2c-5.4-2.2-7.6-5.7-5.2-8.2c0.8-0.9,5.4-3.2,10.5-1.1c2.9,0.8,7,2.2,8.6,3.1c-1.2-1.8-3.8-6.9-4.6-9.3
	c-4,1.8-13.3-2-18.3-5.6c-2.5-2-3.7-4-3.4-6.1c0.4-2.5,2.9-4.2,6.4-4.3c0.8,0,0.8,0,0.5-0.3c-0.2-0.1-1.2-1.1-2.3-2.1
	c-1.1-1-2.5-2.3-3.1-2.8l-1-0.9l-2.4,0.4c-4.3,0.7-8.5,0.5-11.3-0.5c-2.7-0.9-5.3-3-6-4.7c-1.4-3.4,1.2-6.8,5.2-6.8
	c1.7,0,4.5,0.6,6.1,1.4c0.7,0.3,1.4,0.6,1.4,0.5c0,0-0.3-1.1-0.6-2.4c-1.1-4-1.1-6.3,0-7.8c1.3-1.7,3.5-1.8,5.3-0.2
	c0.7,0.6,1.3,1.3,2.6,3.5c1.5,2.3,1.8,3,2.3,4.6c0.9,2.7,1,4.8,0.6,7.9l-0.2,1.5l2.5,2.2c1.4,1.2,2.6,2.3,2.7,2.4
	c0.2,0.2,0.3,0,0.3-1c0.1-3.2,2.9-5.3,5.6-4.2c1.1,0.4,1.8,1,2.8,2.3c0.4,0.5,0.7,0.9,0.8,0.9c0,0,0.3-0.7,0.5-1.4
	c0.6-1.8,1.2-2.7,2.3-3.4c0.9-0.6,2-0.7,3.1-0.2c0.6,0.2,0.8,0.5,1.6,1.8c0.9,1.4,1,1.8,1.4,3.6c0.7,3.6,0.9,6.9,0.6,10.8
	c-0.2,2.3-1.2,7.3-1.7,8.5l-0.4,0.9c1,1.8,2.9,5.3,4.2,7c0,0,0.3-0.9,0.7-2.1c1.4-4.8,4.6-8.5,7.5-8.7c2.4-0.1,3.9,1.6,4,4.5
	c0.1,3.5-1.3,7.6-4.7,13.5c-0.9,1.6-1.7,3-1.8,3.1c0.2,0.3,0.4,0.5,0.7,0.7c3.1-1.6,6.1-3.3,9.1-5.2c0.8-12.9-2.1-20-3.6-28.8
	c-2.4-10.5-8-22.1-10.8-28.3c-5.2,0.7-10.9-1.1-12.7-2.8c-4.4,1-17,0.9-21.6-0.6c-7.2-2.3-12-6.3-12.7-10.5c-1.4-3.4,1.7-7,4.5-8.2
	l-1.1-1.4c-2.8-3.6-3.1-8.7-0.8-12.3c3.1-5.6,10.7-4.7,12.1-4.6c-1.6-3.4,0.8-8.4,1.9-9.3c3.4-3,9.7-2.3,12.5,1.4
	c3.3-11,12-9.1,16.5-6.8c2.1,1.3,4.6,4.2,4.7,6c6.3-5.1,13.8-2.6,14.9,5c0.4,2.8-0.1,6.6-1.4,10.3c-2.7,7.9-5.4,14.6-6.9,17.2
	c-1.4,2.4-1.5,2.8-1.5,3.9c0.2,3.1-1.3,8.2-3,9.8c6.5,13.1,15.8,34.2,16.6,50.2c1.4-3.2,3.4-5.7,2.5-13.7
	c-0.6-3.6,0.3-12.4,0.5-14.4c1.1-12.9,5.6-26.5,11.7-35.6c3.6-5.4,8.8-8.5,12.6-7.4c1.5,0.4,3.1,2.1,3.7,3.9c0.7,2.1,0.6,6-0.3,9.6
	c-1.6,6.9-3.6,11.9-9.6,24.5c-3.6,7.6-8.2,22.3-6.7,24.4c3.6-3.9,6.9-8,9.9-12.4c8.3-12,14.6-25.3,18.6-39.4
	c3.5-12.3,5.7-24.8,6.6-37.5c1.1-14.3,0.9-28.6-0.5-42.8c-1.3-12.2-3.9-24.3-7.7-36c-6.5-19.5-17.2-37.3-31.5-52.1
	c-9.2-9.6-20.1-17.3-32.3-22.6c-3.9-1.7-7.9-3.1-12-4.2c-10.9-3-21.9-5.1-33.1-6.4c-14.1-1.6-28.4-2.6-42.6-2.8
	c-4.6-0.1-9.2-0.2-13.8-0.1l-137,0v418.7c0.7-1.2,4-6,10-2.9c3.1,1.4,7.4,8.6,9.1,16c4.3-12.9,3.4-26.9,3.4-28.2
	c-3.6,0.1-5.8-2.2-6.7-3.4c-1.5-1.9-1.3-4.6,0.6-7.8c0.8-1.3,0.8-1.4,0.1-1c-0.4,0.2-1.5,0.6-2.5,0.9c-3.2,1-5.9,0.3-7.7-2
	c-0.9-1.2-1.9-4.2-2.2-6.9c-0.6-5.7,1.2-9.7,5-11.1c2.8-1,6.2-0.4,9.8,1.8l2.2,1.3l-0.4-3.5c-0.2-1.9-0.3-4-0.2-4.5
	c0.6-2.5,2.3-4.4,4.9-5.5c1.8-0.7,5.3-1.2,7.1-0.9c4.5,0.7,7.4,4.7,7,9.4c-0.1,1-0.1,1.8,0,1.8c0.1,0,0.5-0.1,1-0.3
	c1.9-0.9,4.4-0.8,6.2,0.2c1.2,0.7,2.8,3,3.6,5c0.9,2.4,1.6,8.2,1.3,9.9c-0.4,1.7-2.2,3.8-4.1,4.7c-2.7,1.3-7.8,1.3-11,0
	c-0.7-0.3-1.2-0.5-1.3-0.5c0,0,0.1,1.3,0.4,2.9c0.4,2.4,0.4,3.2,0.1,4.3c-0.7,2.5-2.3,4.2-5.3,5c0.5,6.5-1.5,23.5-5.6,36.7
	c2.2-4.2,5.4-10.2,7.4-13.1c3.3-4.7,9.7-11.2,12-12c2.1-0.8,4.4-0.1,5.4,1.8c1.5,3-0.8,10.1-6.8,20.7c-3.4,6-7.5,13.8-13,20.2H467
	c-0.2-3.2-4.6-5.2-5.7-6c-8.4,3-12.4-6.3-6.8-10.5c6.7-5.2,11.2,2.3,10,5.4l11.6,10.6c-3.5-6.7-9.5-21.1-11.4-29.4
	c-2.9,0.5-9.3,1-10.1-6.8c-1.5-9.5-2-14.4-2.9-21.6c-1-5.5-2.9-10.8-5.8-15.5c-1.9-3.6,3.6-2,6.2,0.6c9.6,10.6,18.3,27.5,19.1,33.9
	c0.6,4.8,0.3,5.4-0.7,6.2c2,6.4,6.2,16.3,9.8,24.9c0.5-20.8,0.7-29.2-1.7-45.4c-1.9-12.2-2.5-14.3-4.7-16.5
	c-3.8-3.7-12.7-14.7-15.6-19.5c-0.9-1.4-3-5.7-4.8-9.7c-5.4-11.8-7.4-15.7-9.9-19.5c-2.9-4.4-4-6-7.6-10.5c-2.3-2.6,0.1-6.1,2.2-6.4
	c3.1-0.5,6.7,1,11.2,4.3c4.6,3.4,11,8.3,15.1,14.5c-2.4-7.5-2.1-11.1-2.4-14.2c-1.1-8.7-2-15.7-4.9-19c-0.6,0.2-4.9-2.3-8.1-4.7
	c-1.7-1.3-4.2-3.6-5.7-5.4c-3.3-4-8.2-9.5-15.1-17.1c-6.2-6.9-10.5-12.4-11.1-14.3c-1-3.3,1.2-5.3,4.9-4.3
	c3.8,1.1,16.2,9.2,20.9,13.6l3.4,3.2l-0.9-2.7c-0.5-1.5-1.5-5-2.2-7.9c-1.5-5.9-2.2-6.9-6.8-10.2c-5.6-4.1-9.4-8.4-11.3-12.9
	c-1.7-4-3-12.1-2.3-14.5c0.8-3.1,3.8-3.2,5.6-1.7c-0.6-2.6-0.1-7,2.9-8.3c1.9-0.9,4.5-0.7,7.5,0.4c3.2,1.2,5,3,6.9,7l1.4,3
	c3.5-2.1,8.2-0.6,8.4,5.2c0.4,3.5-1.4,10.6-3.9,15.8c-3.5,7.4-4,11.2-2.2,17.5c1.9,6.6,4.4,13.8,7.4,20.9c1.5,3.5,3.5,8.5,4.6,11.2
	c1,2.7,1.3,3.4,2,4.5c0-0.2,0.1-2.3,0.1-4.8c0-6.8,1.3-32.8,2.4-45.4c0.5-6.1,1.5-15.6,2.3-21.1c0.8-5.5,1.4-10.3,1.3-10.7
	c-5.8-4.4-7.4-10.1-8-13.7c-0.3-1.6-0.5-5.5-0.5-8.6c0-6.9-0.5-10.4-2.6-19.3c-2-8.3-2.4-10.3-3.2-16.8c-0.3-2.8-2.6-16.9-3.1-18.6
	c-1-3.7,5.1-5.9,9.4,1.4c1.5,2.6,3.9,6.5,5.4,8.8c3.9,5.9,6.5,11.6,7.9,18.1l0.6,2.7l0.2-1.6c0.7-5.2,2.9-12,3.2-17.2
	c0.9-12.9-1.3-14.4-4.2-20.4c-7.4-14.9-8.6-22.4-4.6-29.1c2.3-3.8,5.2-5,7.5-3c1.2,1,1.3,1.3,4.5,8.5l1.8,4.3l1-2.6
	c2.1-5.5,4.3-8,6.9-7.7c2.5,0.3,3.4,2.1,5.5,12.2c1.5,7.1,1.7,12,0.5,15.2c-1.4,3.8-4.9,7-11.2,12c-1.6,3.3-4.3,22.2-5.8,34.1
	c-0.7,5-1.3,9.9-1.1,10c1.6-2.1,4.9-12.3,6.8-19.5c2.2-8.5,4.5-14.3,8.9-21.9c1.6-2.7,6.8-9.2,8.6-7.1v-50.1h17
	c4.4,0,8.9,0.2,13.3,0.6c3.9,0.3,7.7,0.9,11.5,1.9c3.3,0.9,7.9,3.5,9.7,5.1c3.7,3.6,6.7,7.8,9,12.4c2.1,4.4,3.6,9.1,4.4,14
	c1.2,7,1.7,14,1.4,21.1c-0.1,7.5-1.2,15-3.1,22.3c-1.4,5.3-3.5,10.3-6.4,15c-2.5,3.5-6.6,6.3-8.9,7.4c-3.6,1.6-7.4,2.7-11.4,3.4
	c-6.5,1.1-13,1.7-19.6,1.6h-16.9v-25.2c-1.9,10.4-3.7,13.9-9.6,26.2c-3.8,7.5-10.7,23.3-18.9,25.1l-1.4,9.4
	c-1.7,11.6-2.9,25.5-3.9,45.3c-0.8,16.2-1,20.9-0.7,30.6c0.1,5.1,1.3,25,1.5,25.4c0.8-2.9,1.1-3.5,2.4-8c2.4-8.4,4.3-13,8.2-20.5
	c0.5-1.3,2-3.3,1.1-6c-0.8-3.1-1.1-10.4-0.7-16c0.2-2.3,1-7.9,1.9-12.4c0.8-4.6,1.7-10,1.9-12c0.4-3.3,1.6-19.7,1.6-21.6
	c0-1.2,2.3-2.2,3.9-1.7c1.6,0.5,2.7,2.5,4.6,8.5c3.5,10.9,4,19.4,1.3,38.3c2.1-3.6,6.6-9.5,9-12.1l-0.4-2.2
	c-0.6-3.6,0.8-21.1,2.1-25.5c0.9-3.2,1.7-4.2,4.8-6.1c1.1-0.7,4.4-3.1,7.2-5.4c5.9-4.8,8-5.8,10.8-5c2.9,0.8,6.5,5.2,3.5,11.1
	c8.9-1.4,10.4,1.4,11.5,3.2c0.9,1.4,0.9,1.5-0.1,5.1c-1.2,4.2-3.1,7.1-6.3,10.1l-2,1.8c3.1,2,5.1,8,3.1,12.5
	c-0.8,2.8-4.6,5.2-9.9,6.2c-3.8,0.7-7.7,0.7-14.2-0.1c-2.9-0.3-5.7-0.6-6.2-0.5c-0.7,0.1-9.4,12-12,15.5
	c-8.3,11.1-11.4,16.1-14.8,24c-3.2,7.4-4.3,10.7-6,18.3c-3.8,16.9-3.9,20-1.5,28c1.3,4.5,1.4,4.4,2.5-1.8c1-6.1,5-23.6,7.6-33
	c1.3-6.6,4.9-11.8,7.2-9.3c0.9,0.9,1.4,4.2,2.6,15.7c0.4,3.9,0.9,8.8,1.2,11c0.6,4.7,0.8,10.6,0.6,15.2c-0.1,2.6-0.6,4.8-2.4,10.9
	c-2,6.8-2.6,8.4-5.6,14.5c-1.9,3.8-3.9,7.9-4.5,9.2c-1.1,3.1-0.3,8.6,0.1,11.4c2.1,15.4,2.9,15.7,2.4,37.3
	c-0.2,7.9-0.4,9.8,0.3,13.7h15.5V309.4c8.8,0,17.9,0,26.6,0C537.8,309.4,546.2,309.1,554.5,308.5z M602.7,159.7
	c1.2-1.3,2.4-2.6,3.4-4c1.2-1.3,2.4-2.6,3.6-3.9c0.9-1.2,1.7-2.6,2.2-4c0.7-1.6,1.7-3.1,2.8-4.5c2-2.9,3.6-6.1,4.9-9.4
	c0.8-2.5,1.2-5.2,1.1-7.8c0-2-1.2-3.9-2.9-4.9c-1.1-0.7-2.2-1.4-3.3-2.2c-0.4-0.3-0.7-0.9-0.8-1.4c0-0.2,0.3-0.2,0.5,0
	c0.8,0.8,1.7,1.3,2.8,1.7c0.9,0.2,1.7,0.3,2.6,0.4c0.8,0.2,1.6,0.7,2.1,1.4c0.7,0.8,1.6,1.5,2.7,1.8c0.6,0.1,1.3,0.3,1.9,0.4
	c0.8,0.3,1.5,0.9,2.1,1.5c1.1,1,2.5,1.8,4,2.2c1.6,0.7,3.1,1.6,4.5,2.8c0.8,0.8,1.7,1.4,2.7,1.9c0.6,0.2,1.2,0.4,1.9,0.6
	c0.8,0.3,1.6,0.7,2.2,1.3c1.2,1,2.5,1.8,4,2.2c1.4,0.7,2.7,1.5,4,2.2c1.2,0.6,2.3,1.3,3.5,1.9c1,0.5,2.1,0.7,3.2,0.8
	c0.7,0.1,1.4-0.3,0.3-1.8c-1-1.2-2.2-2.2-3.5-2.9c-1.7-1-3.4-2.1-5.1-3c-0.9-0.7-1.8-1.3-2.7-1.9c-0.8-0.4-1.6-0.8-2.4-1
	c-0.8-0.3-1.5-0.8-2.1-1.5c-0.9-1-2.1-1.7-3.3-2c-1.7-0.6-3.3-1.3-4.7-2.3c-0.8-0.7-1.7-1.4-2.6-2c-1-0.5-2-0.9-3.1-1.2
	c-0.8-0.3-1.5-0.9-2-1.6c-0.7-0.8-1.7-1.4-2.7-1.7c-0.6-0.1-1.3-0.3-1.9-0.6c-0.8-0.4-1.4-1-1.8-1.8c-0.7-1.1-1.8-1.9-3.1-2.3
	c-0.3-0.1-0.7-0.2-1-0.4c-0.1-0.1-0.1-0.3,0.3-0.2c0.9,0,1.7,0.3,2.4,0.8c1.1,0.7,2.3,1.3,3.5,1.9c1.5,0.5,3.1,0.4,4.5-0.3
	c3-1.5,5.6-3.6,7.7-6.1c2.3-2.9,4.3-6.1,6-9.5c0.8-1.3,1.8-2.5,2.8-3.7c1-1.5,1.7-3.1,2.2-4.8c0.6-1.9,1.4-3.7,2.2-5.5
	c0.5-1,0.8-2.1,0.9-3.2c0.3-2.6-2.9-2.1-3.7-1.8c-1.5,0.5-2.8,1.3-4,2.3c-1.9,1.5-3.7,3.2-5.2,5c-1.2,1.3-2.4,2.6-3.6,3.9
	c-1.9,2.4-4,4.7-6.3,6.8c-2.5,2.4-5.1,4.8-7.7,7.2c-0.6,0.6-1.3,1.2-1.9,1.8c-0.7,0.7-0.8,0.4-0.7,0.3c0.3-0.5,0.6-1,0.9-1.5
	c1.7-2.3,3.6-4.5,5.5-6.6c1.6-1.8,3.2-3.7,4.6-5.6c1.4-2.2,2.6-4.6,3.5-7.1c0.9-2.5,1.5-5.1,1.9-7.7c0.1-1.5,0-3.1-0.2-4.6
	c0-2,0-4,0.2-5.9c0.1-0.8-0.1-2.2-1.6-2.3c-1.1,0-2.2,0.4-3,1.1c-1.3,1.2-2.4,2.6-3.2,4.2c-1.7,3.6-3.2,7.3-4.4,11.1
	c-1,2.7-2.2,5.3-3.8,7.7c-1,1.7-2.1,3.4-3.1,5.1c-1.7,3.3-3,6.8-3.7,10.5c-0.2,0.9-1.1,0.2-1.7,0c-0.8-0.3-1.7-0.3-2.5,0
	c-0.6,0.2-1.2,0.1-1.2-0.4c0-0.4,0-0.8,0-1.2c0.1-0.9-0.2-1.7-0.9-2.3c-0.3-0.2-0.7-0.4-1.2-0.4c-0.9,0.1-1.7,0.3-2.4,0.9
	c-0.8,0.4-1.5,0.9-2.2,1.5c-0.6,0.6-0.9,1.5-0.9,2.3c-0.1,1.1-0.1,2.2,0,3.3c0.1,0.4,0.3,0.8,0.5,1.2c0.5,0.7,1.4,0.9,2.3,0.6
	c0.6-0.2,1.1-0.6,1.6-0.9c0.2-0.1,0.5-0.2,0.8,0c0.3,0.3,0.4,0.7,0.5,1c0.1,0.4,0.3,0.8,0.5,1.2c0.4,0.5,0.9,0.9,1.5,1.2
	c0.5,0.2,0.5,0.8-0.5,1.5c-3.1,2.5-5.7,5.6-7.8,8.9c-1.6,2.9-3.4,5.7-5.4,8.3c-1.4,1.7-2.9,3.3-4.5,4.9c-2.1,2.2-4.1,4.6-5.8,7.2
	c-0.9,1.3-1.5,2.7-1.8,4.2c-0.1,0.9-0.1,1.8,0.3,2.6c0.6,1.7,3,1,4.3-0.2c1.9-1.2,3.8-2.2,5.9-3c2-0.9,3.8-2.2,5.4-3.7
	c2.8-2.5,5.2-5.4,7.1-8.6c1.1-2.2,2.1-4.4,2.9-6.6l0.2-0.6c1.1-2.9,2.3-5.7,3.7-8.5c0.3-0.6,0.6-0.7,0.6-0.2
	c-1.1,3.8-2.2,7.6-3.2,11.5c-0.7,2.3-1.4,4.6-2.2,6.9c-1.2,2.6-2.2,5.3-3.1,8c-1,2.2-1.7,4.5-2.1,6.9c-0.3,1.5-0.4,3.1-0.3,4.6
	c0.1,0.9,0.4,1.7,0.9,2.4C599.6,161.3,601.5,160.8,602.7,159.7z"/>
<path class="st2" d="M1263.4,191.9h17.5c3.6,0.1,7.2-0.2,10.8-0.9c2.3-0.4,4.5-1.1,6.6-1.9c2.1-0.9,4-2.1,5.7-3.6
	c1.6-1.5,2.9-3.3,3.9-5.3c1.3-2.5,2.3-5.1,2.9-7.7c0.7-2.7,1.2-5.5,1.5-8.3c0.7-6.3,0.8-12.6,0.2-18.9c-0.3-2.5-0.7-5.1-1.4-7.5
	c-0.8-2.9-2-5.7-3.6-8.3c-1.3-2.1-2.8-4.1-4.6-5.8c-2.2-2.3-7.3-3.8-9.2-4c-2.4-0.4-4.8-0.7-7.2-0.9c-3.2-0.2-6.3-0.4-9.5-0.3h-13.8
	V191.9z M1122.2,0c-1,0-1.9,1-2.1,2c0,0.1,0,0.3,0,0.4v477.2c0,1.3,1.1,2.3,2.3,2.3h138c1.3-0.1,2.2-1.1,2.2-2.4V310.3h7.6l57.6,170
	c0.1,0.3,0.4,0.7,0.5,0.9c0.4,0.4,0.9,0.7,1.5,0.7l151.6,0c0.3,0,0.8-0.2,1-0.3c1.8-1.1,1.1-2.9,1.1-3.1l-84.8-201
	c20.7-15.5,36.4-36.8,45-61.1c1.2-3.2,2.9-8.5,3.8-11.8c4.4-16.7,6.5-33.8,6.3-51c0.1-18-2.4-35.8-7.4-53.1c-0.2-0.8-0.8-2.4-1-3.2
	c-5.3-16.8-13.5-32.6-24.2-46.6c-7.9-10.1-17.3-18.8-27.9-26c-10.3-7.2-21.6-13-33.5-17c-7.5-2.4-15.3-4.1-23.2-4.9
	c-2.7-0.3-8-0.9-10.6-1.1c-3.9-0.3-7.8-0.6-11.7-0.8c-11.3-0.6-22.6-0.8-34-0.8L1122.2,0z M1213.3,394.8c0.8-8.7,2.1-14.1,7.2-28.7
	c1.9-5.3,3.6-10.4,3.8-11.2c0.5-1.8,0.5-2,0.5,4.9c0.2,14-0.2,17.2-2.7,24c-1.8,4.9-3.5,8.1-7.7,14.6c-1.4,2.2-1.4,2.2-1.4,0.9
	C1213,398.7,1213.1,396.7,1213.3,394.8z M1198.9,383.3c-2.5-3.9-4-7.4-7.7-17.2c-3.7-10-5.8-14.8-8-18.2c-2.1-3.3-2.1-3.3,0.3-1.2
	c8.3,7.2,13.4,15.2,17.9,27.7c0.7,1.9,2.9,15.8,2.6,16.4C1204,391,1201.4,387.3,1198.9,383.3z M1190.9,315.6c-0.8-0.8-3-3.5-4.8-6.1
	c-4-5.5-7.6-10.3-11.3-15c-1.5-1.9-2.6-3.5-2.5-3.5c0.1,0,1.7,1.2,3.6,2.7c5.4,4.3,10,10.1,13.6,17c1,2,2.2,4.3,2.6,5
	C1193,317.4,1192.8,317.3,1190.9,315.6z M1227.3,307.8c0.3-1.6,1.5-6.2,2.7-10.2c2-6.8,4.2-15.3,4.3-17c0.2-1.9,0.4,1.9,0.4,6.1
	c0,8.8-2.1,16.4-6.8,24.9l-1.5,2.7C1226.4,313,1226.7,310.1,1227.3,307.8z M1179.9,269.6c-2.5-3.2-3.9-6.2-4.3-8.8
	c-0.3-1.7,1-1.4,4.1,3.4c2.9,4.4,4.9,7.8,3.3,8.7C1182.6,272.9,1181.2,271.3,1179.9,269.6z M1188.8,270.6c-0.4-3-0.6-9.2-0.3-10
	c0.1-0.2,6.8-3,7-1c0.2,0.5-0.8,4.3-1.6,6.4c-1.1,2.7-4.1,7.7-4.4,7.5C1189.3,273.4,1189,272.1,1188.8,270.6z M1257.3,298.4
	c0-0.1,3-1.2,6.6-2.4c3.6-1.3,7.2-2.5,7.9-2.8c3.3-0.6,2.7,4.9,0.5,5.6c-3.6,1.2-9,1.1-14.8-0.2
	C1257.4,298.6,1257.3,298.5,1257.3,298.4z M1253.6,281.9c0.7-3.3,1.5-6.9,1.9-7.8c0.6-1.5,0.9-1.8,3-2.7c1.2-0.5,4.3-2.3,6.8-3.9
	c5.6-3.7,6.5-4.1,6.6-3.2c0.2,1-1.4,4.7-3.3,7.5c-0.9,1.4-3.3,4.3-5.3,6.5l-11.5,12.7L1253.6,281.9z M1264.5,285.6
	c6.5-6.8,9.9-10,12.2-11.5c1-0.7,2.7-0.6,3.5,0c1.2,0.9,1.4,1.3,1.2,2.1c-0.4,1.5-3.4,4.9-5.8,6.6c-2,1.5-15.6,8.4-15.8,8
	C1259.7,290.7,1261.9,288.4,1264.5,285.6z M1181.3,253.9c0.1-2.2,0.4-4.3,0.5-4.8c0.3-0.7,0.5-0.8,1.6-0.3c1.6,0.6,2.3,1.4,3.4,3.6
	c0.6,1,0,2.2-1,2.4c-1.8,0.7-1.8,0.7-2.5,3.1c-0.4,2.2-1.1,2.1-1.5,1.1C1181.3,258.1,1181.2,257,1181.3,253.9z M1215.5,239.3
	c-0.9-2.9-1-4.8-0.5-10.3c0.8-8.2,0.7-9.8-1.1-22.4c-0.5-3.2-0.9-7.7-0.9-9.9c-0.1-2.3-0.2-5.4-0.4-7l-0.3-2.9l1.9,3.3
	c3.2,5.6,5.1,11.2,5.6,16.7c0.3,3.8-0.1,17.4-0.7,22.6c-0.4,2.9-1.9,11.2-2.2,12C1216.7,242,1216.1,241.1,1215.5,239.3z
	 M1225.1,236.2c2.1-3.1,6.6-8.2,11.6-17.8c1.5-2.8,3.2-6.9,4.7-10.8c2.4-6.5,4.2-10,7.8-15.5c1-1.5,2-2.8,2.2-2.9
	c0.2-0.1,0,1.7-0.4,3.9c-2.5,12.8-5.9,21.1-13.5,33c-3.8,6.1-5.3,8-8.6,11.4c-2.2,2.2-3.9,4.3-5.7,4.9
	C1223.1,242.3,1223.9,237.9,1225.1,236.2z M1240.4,173.7c1.9-2.5,2.5-4.7,2.1-7.4c-0.3-2.1-1.6-7.2-2.5-9.7l-0.4-1.1l-0.4,1
	c-0.6,1.6-1.1,6.4-1.3,11.6c-0.1,2.1-0.3,6.3-0.7,8.5C1238,176,1239.6,174.6,1240.4,173.7z M1232,170.7c0.1-2.2-0.1-3.2-0.7-4.9
	c-1.1-2.8-6.9-14.2-7.2-14.2c-0.4,0-0.8,1.8-0.9,3.6c0,1.1,0.5,3,1.4,5.5c1.6,4.5,6.8,14.1,7.1,13.2
	C1231.9,173.7,1232,172.2,1232,170.7z M1373.4,361.6c-3.7-1-7.4-2.6-9.1-4.1c-0.9-0.8-1.6-1.5-1.6-1.7c0-0.4,1.2-0.9,2.5-1
	c1.5-0.1,4.6,0.8,6.3,1.8c1.5,0.9,5.6,4.4,6.1,5.3c0.3,0.5,0.3,0.5-0.9,0.4C1376.1,362.2,1374.6,361.9,1373.4,361.6z M1388.9,359.3
	c1.7-2.1,8.7-7.3,9.8-7.4c0.4,0-0.5,1.9-1.8,3.6c-1.9,2.5-4.9,4.4-7.5,4.5l-1.2,0.1L1388.9,359.3z M1385.4,350
	c0.2-4.1,1.8-12.5,2.6-13.9c0.6-1.1,0.3,4.8-0.5,8.4c-0.4,1.8-2,7.1-2.2,7.1C1385.3,351.6,1385.3,350.9,1385.4,350z M1362.5,328.2
	c-2.5-1.7-4.9-4.6-5.6-5.9c-0.6-1-0.3-1,1.7,0.1c3.6,1.9,8,5.6,9.5,8c0.5,0.7,0.4,1.5-1.4,0.5
	C1365.7,330.3,1363.8,329.1,1362.5,328.2z M1377.4,326.6c-0.8-3.6-0.4-8.5,0.9-12.1c0.6-1.7,2.1-4,3.1-4.8l0.8-0.7l0,2.6
	c0,4.5-0.9,9.4-2.9,14.6c-0.6,1.6-1.2,2.9-1.3,2.8C1378,328.9,1377.7,327.8,1377.4,326.6z M1362.5,313.8c-1.1-2-1.9-4.5-1.8-5.1
	c0.1-0.4,2.2,2.4,3.9,5.3c1.3,2.2,4.1,7.9,4.2,8.3C1368.8,322.9,1363.4,315.5,1362.5,313.8z M1371.6,289.8c1.2-3.3,3.5-6.7,5.2-8.1
	c1.5-1.1,1.7-0.9,1.5,1.3c-0.2,1.9-0.6,2.8-1.8,4.4c-1.4,1.7-3.3,3.2-5.3,3.9C1371.1,291.3,1371.3,290.6,1371.6,289.8z
	 M1355.5,290.9c-3.1-0.2-5.2-0.7-7.6-1.7c-3.5-1.4-7-4.5-6-5.3c0.8-0.6,5.5,0.2,9.5,1.6c3.6,1.2,9.5,4.4,9.6,5.1
	C1360.9,290.9,1358,291.1,1355.5,290.9z M1366.1,275.3c0-4.5,0.3-7.8,0.9-11.6c0.3-1.5,0.6-0.1,0.8,3.3c0.2,3.9,0,7.4-0.7,12.1
	c-0.4,2.4-0.5,2.7-0.8,2.2C1366.2,280.9,1366.1,278.9,1366.1,275.3z M1342.2,261.5c-3.5-0.8-5.5-1.5-7.3-2.6c-1.6-1-4.3-3.1-4.3-3.4
	c-0.1-0.8,4.3,0.1,7.4,1.6c1.5,0.7,6.5,3.9,7.6,4.8C1346.1,262.3,1345.3,262.2,1342.2,261.5z M1350.2,253c-0.9-1.9-1-2.2-1.2-5.9
	c-0.1-2.2-0.1-4.8,0-5.9c0.3-3.1,1.7-7.2,2.4-7.3c0.1,0,0.5,0.7,0.8,1.6c0.5,1.3,0.6,2.5,0.9,7.1c0.3,5.3,0.3,5.7-0.4,9
	c-0.9,4.4-0.9,4.3-1.2,3.8C1351.3,255.2,1350.8,254.1,1350.2,253z M1327.4,233.6c-2.5-1-3.5-1.6-4.4-2.5c-0.7-0.7-1.2-1.3-1.2-1.4
	c0-0.4,2,0.2,3.8,1c1.5,0.7,5.7,3.6,6.2,4.3C1332,235.3,1330.9,235,1327.4,233.6z M1335.2,221.1c-0.7-5.2-0.6-10.4,0.2-10.5
	c0.9-0.1,1.9,4.9,1.7,8.6c-0.2,3.1-0.7,6.8-1.1,6.5C1335.8,225.6,1335.5,223.5,1335.2,221.1z M1318,206.2c-1.2-1.1-3-4-4.1-6.9
	c-1.3-3.2-1.1-3.4,1.3-1.2c1.8,1.6,2.8,3.1,4,6.2c0.7,1.6,0.8,2.2,0.5,2.5C1319.3,207.3,1319.2,207.3,1318,206.2z M1393.5,455.5
	c0.8-3.5,1.6-11,1.6-14c-0.1-4-0.6-6.9-1.7-9.8c-1.1-2.9-3.4-5.4-4-4.1c-0.5,0.9-0.7,3.5-0.6,6.3c0.2,3.1,1.6,13.1,2.7,19
	c0.5,2.6,1,5,1,5.2C1392.6,458.9,1392.9,458.2,1393.5,455.5z M1381.7,458.5c-5.3-6.3-10.4-11.4-14.6-14.5c-2.9-2.2-6.5-4.3-6.4-3.9
	c0,0.8,6,7.1,11.4,12.1c3.2,3,11.8,9.6,11.8,9.2C1383.9,461.2,1382.9,460,1381.7,458.5z M1370,420.1c0.7-0.5,1.6-1.4,1.9-1.9
	c0.5-0.9,0.5-1,0-1.5c-0.3-0.3-2-1.3-3.7-2.2c-3.1-1.7-3.1-1.7-4-1.2c-2,1.2-2,1.1-0.6,5.1c1.3,3.9,1.5,4.1,3.5,3.3
	C1367.9,421.3,1369.2,420.6,1370,420.1z M1350.6,418.2c0.7-0.5,1.4-1.2,1.7-1.6c1.1-1.4,2.5-4.4,2.3-4.8c-0.3-0.8-9.6-2.8-10.9-2.3
	c-0.7,0.3,0,3.9,1.2,6.7c1.3,2.9,1.6,3.3,2.6,3.2C1348.7,419.4,1349.2,419.2,1350.6,418.2z M1374.9,403.3c0-0.4-0.7-2-1.3-3.7
	c-1-2.4-1.4-3.1-2.3-3.9c-1.2-1.1-1.8-1.1-3.1,0.4c-0.9,1-3.5,6.8-3.3,7.3c0.2,0.5,1.2,0.7,4.6,0.9
	C1374.1,404.6,1375.1,404.4,1374.9,403.3z M1355.3,403.7c1-1.1,0.9-1.7-0.8-6.2c-1.5-3.8-1.9-4.3-3.6-4.2c-1.8,0.2-3.3,1.1-3.7,2.2
	c-0.3,0.9-0.3,1.1,0.5,2.7c0.5,1,1.3,2.2,1.9,2.8c1,1,4.6,3.7,4.8,3.6C1354.5,404.6,1354.9,404.1,1355.3,403.7z M1411.2,463.5
	c3.3-6.7,8.5-12.6,10.3-11.6c1.9,1-0.2,5.4-4.3,9c-2.1,1.9-7,5.5-7.1,5.3C1410,466.1,1410.5,464.9,1411.2,463.5z M1425.1,438.6
	c0.9-0.4,1.5-1.9,1.4-3.6c-0.2-2.5-2.5-8.3-3.5-8.5c-1.1-0.2-2.8,4.6-2.6,7.3c0.1,1.6,0.8,3.1,1.6,3.8
	C1422.9,438.5,1424.3,439,1425.1,438.6z M1413.5,421.6c1.7,0.3,2.8,0.1,3.3,0c-0.2-3.8-8.4-11.4-11.6-9.5c-1.1,0.8,0.7,5.4,3,7.4
	C1409.2,420.4,1411.6,421.4,1413.5,421.6z M1441.4,422.3c0.6-0.5,0.7-0.7,0.5-1.6c-0.2-1.2-1.8-3.4-3.1-4.2c-2-1.2-4.7-0.9-7.8,0.7
	c-2.3,1.2-2.4,2.4-2.1,3.7c0.1,0.3,3.5,1.9,4.8,2.3C1437.4,424.3,1440.6,423,1441.4,422.3z M1424.6,412.6c1.9-5.3,1.9-7.7,0.1-9.7
	c-2.3-2.6-3.9-2.6-4.9,0c-0.7,1.8-0.9,4.2-0.6,7.4c0.2,2,1.3,6.6,1.5,6.7C1421.6,417.1,1423.6,415,1424.6,412.6z M1447.4,423.3
	c-0.5,4.4-8.7,7.8-17.2,4.6c2.4,3.1,2.3,9.5,0.4,12.9c-4,6.4-13.6,3.4-15.4-4.8l-0.3-1.6c-3.4,7-7.1,16.9-8.4,22.8
	c1.5-0.7,4.1-3.3,4.9-4.5c3.1-4,6.3-6.3,9.2-6.6c2.8-0.2,5,1,6.4,3.5c2.2,4,2.2,8.1-3,13.3c-2.8,2.7-5.3,5.3-6.9,6.9h50.2
	L1447.4,423.3z M1320.2,401.6c1.5-1.4,9.8-8,11.5-9.1c0.6-0.4-1.7,3.1-3.1,4.7c-2,2.3-3.4,3.6-6.3,6c-1.4,1.1-3.4,2.8-4.4,3.8
	C1316.8,407.9,1318.3,403.4,1320.2,401.6z M1315,395.7c-0.3-1.2,1.4-9.9,2.9-14.6c1-3.2,6.5-18.7,6.6-18.7c0.3,0.2,0.5,5.2,0.4,7.9
	c-0.3,5.3-1.4,10.2-3.5,15c-0.8,2-5.7,10.7-6,10.8C1315.2,396.1,1315,395.9,1315,395.7z M1328.1,338.9c-2.2,0.3-5.8,0.2-6.6-0.1
	c-0.5-0.2-0.1-0.8,3-6c5.7-9.2,7.2-11.1,10.2-12.2c2.2-1.1,3.5,4,4.2,6.5c1.2,4.9,1.4,5.5,1.1,6.4c-0.3,1.1-1.3,2.2-2.8,2.9
	C1335.7,337.2,1330.4,338.6,1328.1,338.9z M1312.5,331.9c-0.4-3.1-0.7-7.8-0.7-11.3c0-3.3,0.7-10,1-10c0.6-0.2,1.4,5.5,1.5,10.7
	c0.1,4.7-0.9,13.5-1.4,13.2C1312.9,334.4,1312.7,333.3,1312.5,331.9z M1318.7,329.9c1.2-9.5,0.1-19.3-2.9-24.5l-1.2-2.1
	c0.7-3.7,3.2-8.4,6.3-6c0.8,0.9,1.1,1.5,1.8,3.9c2.1,6.9,1.7,14.6-1.2,23.3c-1.2,3.7-2.7,7.2-2.9,7
	C1318.6,331.5,1318.6,330.8,1318.7,329.9z M1304.2,326.4c-1.3-2.5-3.1-8.4-3.6-12.1c-0.9-6.7-0.3-10.3,1.9-11.6
	c1-0.6,1.9-0.7,3.5-0.3c1.2,0.3,2.9,1.4,3,2c0,0.2-0.2,1.9-0.6,3.9c-1.3,6.4-1.7,13.3-1,20.3c0.1,1.6,0.3,3.1,0.3,3.2
	C1307.7,332.3,1305.1,328.2,1304.2,326.4z M1303,370.5c1.4,1.6,2.1,3.1,3.3,4.7c0.4,0.5,0.4,0.6,0.6-5.9c0.2-6.5,0.7-10.9,2-19
	c0.7-4.1,1.7-7.8,0-8.8c-2-1.7-6.7-8.7-9.1-13.4c-2.2-4.4-3.6-9.8-4.2-16c-0.8-8.3,1.7-13.4,7.2-14.5c2.5-0.7,6.7-0.1,8.1,1.8
	c0.4-1.4,1.9-4.4,4.2-6.2c3.4-3,7.5-2.2,10.3,2c3.7,4.9,5.2,14.8,3,23.7c2.4-1.9,5.5-6.4,10.9-2.4c1.9,1.4,2.4,2.3,4.2,8.8
	c1.8,6.6,1.9,7.8,1,10.2c-1.5,3.7-4.9,5.7-12.7,7.4c-4.8,1-9.8,0.4-14.3-0.3c-2.9,0.5-3.1,4.6-3.6,6.9c-1.4,8.2-1.8,11-2.1,16.8
	c-0.3,5.2-0.3,14.3,0,17c0.1,1.1,0.2,1,1-2c0.5-1.8,2.5-7.7,4.4-13.2c1.9-5.5,3.8-11.1,4.2-12.5c1-3.5,5-4.3,5.7-3
	c0.7,1.4,2.3,9.6,2.5,12.6c0.6,8.8-1.2,16.8-5.7,25.8l-1.1,2.2l1.1-0.9c0.6-0.5,1.6-1.2,2.2-1.7c1.9-1.4,5-4.3,7.8-7.2
	c2.9-3,6.6-1.8,6.6-0.6c0,1.8-2.8,9-5.1,12.9c-2.3,4.1-5.2,7.1-11.6,12.3c-3.1,2.5-5.6,6.1-5.2,8.3l18.1,53.4h45.7
	c-7-4.6-11.8-11.2-16.8-16c-8.9-8.6-13.3-14.8-13-18.2c0.2-2.2,2-3.6,4.2-3.5c2.3,0.2,10.1,4.5,14.6,8.1c2.8,2.2,3.9,3.3,7.3,6.7
	l2.8,2.9l-1-2.2c-3.7-8-8.1-16.4-9.8-18.9c-1.2-1.7-1.4-1.8-2.9-1.4c-2.9,0.7-4.9,0.2-6.8-1.7c-0.9-0.9-1.3-1.6-2.2-3.9
	c-0.6-1.6-1.1-2.8-1.2-2.8c0,0-0.4,0.5-0.8,1c-1.9,2.6-6,5-8.9,5.2c-2,0.1-4.5-0.9-5.7-2.3c-1.2-1.3-3.6-6.9-4.1-9.5
	c-0.4-2.2-0.3-5,0.3-6.2c0.9-1.7,2.9-3,4.9-3.1c0.5,0,0.9-0.1,1-0.2c0-0.1-0.4-0.8-1-1.6c-2.7-4-2.4-9,0.8-11.8
	c1.3-1.1,4.3-2.4,6.2-2.6c2.6-0.3,5,0.6,6.8,2.6c0.4,0.4,1.3,2.3,2.2,4.1l1.5,3.4l1.1-2.3c1.8-3.7,4.2-5.9,7-6.3
	c3.8-0.6,7.3,2.2,9.8,7.7c1.2,2.6,2,5.8,1.8,7.3c-0.3,2.9-2.1,4.8-5.2,5.4c-1,0.2-2.1,0.3-2.5,0.3c-0.7,0-0.7,0,0.6,0.9
	c3.2,2,4.8,4.3,4.5,6.8c-0.2,1.5-1.4,3.9-2.7,5.2c-1.1,1.1-1.1,1.2-0.4,2c0.9,1,3.7,5.9,5.9,10.5c3.2,6.5,3.2,6.5,2.7,2.9
	c-0.9-7.8-1.5-16.3,4.4-17.2c-1.9-18.7-1.5-24.4-4.2-39.3c-0.3-1.8-0.9-5.4-1.3-8c-1-6.8-0.8-6.2-3-6.1c-3.5,0.2-10.8-1.6-14.9-3.8
	c-3.5-1.8-6.2-4.6-6.9-7.2c-0.8-3.1,2.1-6.3,6.3-7c3.5-0.6,8.6,1.1,12.6,4.1c1.3,1,2.4,1.7,2.4,1.5c0-0.3-3-13.3-3.2-14.2
	c-0.1-0.4-1.4-1.2-3.8-2.4c-14-7.1-20.5-12.6-20.9-17.9c-0.5-4,3.5-5.8,7.2-4.4l-0.5-0.8c-1.9-3.2-2.9-9.6-1.9-11.7
	c2-3.9,6.1-2.6,11,3.3c-0.5-2.6-2.5-8.4-3.8-11.5l-3.6,0.2c-6.2,0.3-11.7-0.8-16.1-3.3c-4.2-2.4-6.9-5.7-7.1-8.7
	c-0.2-3.3,2-5.2,6.4-5.4c3-0.2,10.5,1.1,14.9,3c-1.1-4.1-4.2-11-6-14.2l-2.3,0.1c-3.5,0.2-10.5-1.2-14.5-2.9
	c-4.4-1.9-8.7-5.6-9.7-8.4c-1.2-3.2,1.3-6,5.6-6.3c2.7-0.2,8.5,1.7,12.3,3.9c1,0.6,1.8,0.9,1.8,0.8c0.1-0.5-0.7-2.1-3.9-8l-3.2-5.9
	l-2.2,0c-2.8-0.1-4.4-0.4-7.9-1.6c-3.8-1.3-5.3-2.1-7.4-3.8c-3.2-2.7-4.8-6.6-3.4-8.7c1-1.6,3.7-5.3,12.1-0.5l-6.8-11.6
	c-2.3-0.3-6.8-2.9-9.1-6.4c-2.7-3.7-5.1-8-5-10.7c-1.6,1.1-3.3,2-5.1,2.7c-2.9,1.2-5.8,2-8.9,2.6c-4.2,0.8-8.5,1.1-12.8,1.1H1254
	c-2.8,9.4-5.5,14.9-12.3,25.7c-4.3,6.9-7.9,11.1-12.7,14.9c-1.8,1.4-4.3,3.5-5.5,4.6l-2.3,1.9l-2.2,8.6c-2.7,10.5-5.2,23.3-8,41.3
	c-2.3,14.8-2.9,19.2-3.6,28.1c-0.4,4.7-1.1,23.1-0.9,23.6c1-2.6,1.4-3.2,3.1-7.2c3.1-7.5,5.3-11.6,9.8-18.2c0.6-1.1,2.2-2.9,1.6-5.4
	c-0.5-3-0.1-9.7,0.8-14.8c0.4-2.1,1.7-7.2,2.9-11.3c1.2-4.1,2.6-9,3-10.9c0.7-3,3.4-18,3.5-19.7c0.1-1.1,2.4-1.8,3.9-1.3
	c1.5,0.6,2.4,2.6,3.6,8.2c2.3,10.4,1.7,22.7-1.5,32c-0.7,2-1.1,3.6-0.8,3.3c0.3-0.2,2.6-2.6,5.1-5.4l4.6-5l-0.2-2
	c-0.3-3.4,2.7-19.3,4.4-23.3c1.2-2.8,2.1-3.7,5.2-5.2c1.2-0.5,4.5-2.5,7.4-4.3c6.1-3.9,8.3-4.6,10.8-3.7c2.7,1,5.7,5.3,2.3,10.6
	c8.7-0.4,9.8,2.2,10.8,4c0.7,1.4,0.7,1.5-0.6,4.7c-1.6,3.7-3.6,6.3-7,8.8l-2,1.5c2.8,2.1,4.2,8,1.8,12L1303,370.5z M1250.9,453.9
	c-5.1-9.4-17.9-7.4-23.6-3.9c-2,1.1-5,3.4-6.3,4.6c14-3,15.8-0.9,21.6,1.8c3.9,1.9,5.8,4.3,8.2,3.2V453.9z M1215.4,469.8
	c-0.1-1.7-0.5-6.8,0.6-18.5c0.8-8.2,3.8-14.8,7.3-22.1c-0.3-0.5-0.5-0.9-0.8-1.4c-2.4-4.5-3.1-9.7-2-14.4c-1-0.2-1.8-0.9-2.2-1.9
	c-0.3-1.5,0.3-3,1.5-3.8c2.1-1.8,5.3-1.3,7.2,1c1,1.6-0.7,3.7-2.1,4.1l-0.3,1.9c-0.5,2.6-0.4,5.2,0.3,7.8c0.7-2.3,1.5-4.5,2.5-6.6
	c-1-2.1-0.2-4.7,3.4-4.2c1.7,0.3,2.9,1.8,3,3.5c0,1.6-1.1,2.8-2.7,2.9c-1,1.9-1.8,4-2.3,6.2c2.7-0.9,5-2.9,6.5-5.4
	c-0.2-0.4-0.4-0.8-0.5-1.2c-0.1-1.7,1-3,2.6-3.3c2.1-0.2,4.1,1.4,4.5,3.6c0,1.6-1.3,2.8-2.8,2.7c-1.6,3-4.1,5.3-7.2,6.6
	c3-0.5,5.8-1.8,8.2-3.6c-0.1-1.1,0.4-2.1,1.3-2.6c1.8-1,4.1-0.2,5.2,1.7c1.3,1.7,1.1,4-0.4,5.3c-1.3,0.9-3.1,0.5-4.1-0.8
	c-4.2,3.3-9.5,4.7-15,4c-2.4,4.7-4.2,11.1-5.3,16.4c3.6-2.3,17.9-12.2,29.1-0.8V302.7c-0.9-0.2-1.2-0.2-1.4-0.2
	c-0.7,0-1.7,0.9-4.4,3.9c-1.9,2.1-5.8,6.3-8.6,9.3c-9,9.5-12.4,13.8-16.5,20.8c-3.8,6.5-5.1,9.4-7.5,16.3c-5.2,15.2-5.6,18-4.1,25.7
	c0.9,4.3,0.9,4.2,2.5-1.5c1.6-5.6,7.1-21.3,10.3-29.7c1.9-6,5.8-10.5,7.8-8c0.8,0.9,1,4,1,14.7c0,3.6,0.1,8.2,0.1,10.2
	c0.1,4.3-0.2,9.8-0.9,14c-0.4,2.4-1.1,4.4-3.3,9.8c-2.6,6.1-3.3,7.5-6.8,12.9c-2.1,3.3-4.5,7-5.2,8.1c-1.3,2.7-1,7.9-0.9,10.5
	c0.6,14.3,0.4,17.7-2.1,37.5c-0.9,7.3,0.8,9.2,1.2,12.8H1215.4z M1221.9,469.8h29.1v-5.6c-2.9,1.4-6.3-1.6-10.4-3.7
	c-10.6-4.8-18.4-2.2-20.3-2.1C1219.9,461.1,1220.8,467.6,1221.9,469.8z M1166.9,374.8c1.6-2.1,5.4-2.7,7.9-2.2
	c1.3,0.3,2.3,1.5,2.2,2.9c-0.5,2.9-2.4,5.4-5.1,6.7c-5.4,3.2-11.9,4.3-18.1,3.1c-3.1-0.8-6-2.3-8.5-4.4c-2.2-1.6-2.9-2.8-4.7-4.7
	c-1-1.1-0.7-4.6,1.5-4.1c3.4,0.6,6.3,2.2,8.6,3.8c1.1,1.1,4,0,3.9-1.3c-0.1-1.3-0.1-4.7-0.1-6.5c0-1.1,0.7-2.1,1.6-2.7
	c1.6-0.4,3.3,0.3,4.1,1.8c1.2,1.7,1.6,3.9,1.1,6C1161.5,376.5,1165.5,376.2,1166.9,374.8z M1160.8,462l-0.1-8.1
	c2.2-4.8,2.7-7.3,5.9-11.4c2.6-3.7,8.7-9.7,10.3-11.4c-1.7,5.3-3.6,10.4-5.7,15.5C1170.1,449.3,1165,457.7,1160.8,462z
	 M1135.7,401.6c4.3,4.3,7.7,9.3,10.2,14.9c2.8,5.8,5.2,11.7,7.3,17.8c0.1,2.4,0.1,4.7,0.1,7.1c-8.1-8.6-13.7-19.3-16.1-30.8
	c-0.8-3.3-1.6-6.5-2.3-9.8L1135.7,401.6z M1183,430c-2,5.4-4.3,11.3-6.3,16.7c-2.2,10.3-12.4,20-15.7,23.2l32.2,0
	c0.1-3-5.6-10.2-6.5-11c-8.4,2-11.3-6.9-5.6-10.3c6.9-4.2,10.6,3.2,9.1,5.9l10.1,10.8c-2.7-6.5-7.1-20.3-8.2-28.1
	C1189.3,437.3,1183.2,437.2,1183,430z M1131.8,389.8c3,0.6,7.4,7.3,10.2,10.3c4.7,6,8.5,12.6,11.3,19.7c-0.4-9.6-0.3-19.2,0.4-28.8
	c-4.8-1.1-16.9-5.2-18.7-13.1c-1.5-7.4,1.6-12.1,7.3-11.5c2.6,0.3,5.3,1.6,7.1,3.2c-0.3-2.9,0.8-5.8,2.8-7.9
	c2.1-2.1,5.8-3.1,9.8-0.3c2.8,2,4.6,5,4.9,8.4c3.1-2.6,7.4-3.3,11.1-1.7c3.5,1.5,5.5,5.4,4.6,9.1c-0.7,3.4-2.6,6.5-5.5,8.5
	c-4.4,3-9.5,4.8-14.7,5.4l-2,0.3c-0.5,6.5-0.6,13-0.1,19.4c0.3,10.7,0.5,21.5,0.7,32.2c3.1-7.9,18.1-20.4,21.7-24
	c-0.1-3.1-0.1-5.9-0.2-9.2c-0.4-5.1-1.8-10.2-4.1-14.8c-1.5-3.4,3.6-1.5,5.9,1.1c8.2,10.6,15.1,27,15.2,33c0.2,4.5-0.3,5-1.3,5.6
	c1.3,6.1,4.4,15.5,7.1,23.8c2.4-19.1,3.4-26.8,2.6-42c-0.7-11.4-1-13.3-3-15.6c-3.3-3.7-10.8-14.7-13.2-19.4
	c-0.7-1.3-2.4-5.5-3.8-9.3c-4.1-11.3-5.7-15.1-7.7-18.8c-2.4-4.3-3.3-5.9-6.3-10.4c-1.9-2.6,0.6-5.6,2.7-5.7c3-0.2,6.4,1.5,10.3,4.9
	c4.1,3.5,9.8,8.6,13.2,14.7c-1.6-7.1-0.9-10.4-1-13.3c-0.2-8.1-0.4-14.7-3-17.9c-0.6,0.1-4.5-2.6-7.4-5c-1.5-1.3-3.7-3.7-5-5.4
	c-2.8-3.9-7-9.5-12.9-17.1c-5.3-6.9-9-12.4-9.3-14.2c-0.7-3.2,1.7-4.8,5.1-3.5c3.6,1.4,14.7,9.9,18.8,14.4l3,3.3l-0.6-2.5
	c-0.3-1.4-0.9-4.8-1.4-7.5c-0.9-5.5-1.5-6.5-5.5-10c-5-4.3-8.2-8.6-9.7-12.9c-1.3-3.8-1.8-11.4-0.9-13.5c1-2.8,3.9-2.6,5.6-1.1
	c-0.4-2.4,0.6-6.5,3.6-7.4c1.9-0.6,4.4-0.3,7.2,1c3,1.4,4.5,3.2,6,7.1l1.1,2.9c3.6-1.6,7.9,0.2,7.6,5.6c0,3.3-2.3,9.6-5.2,14.2
	c-4.1,6.5-4.9,9.9-3.8,16c1.2,6.3,2.9,13.1,5.1,19.9c1.1,3.4,2.6,8.2,3.4,10.7c0.8,2.5,0.9,3.3,1.5,4.4c0.1-0.1,0.3-2.1,0.5-4.4
	c0.6-6.3,4.4-30.1,6.5-41.6c1-5.6,2.9-14.2,4.2-19.2c1.3-5,2.3-9.4,2.3-9.7c0-0.4-0.8-1.5-1.7-2.6c-2.4-2.7-4.5-7.4-4.7-10.7
	c-0.1-1.5,0-5.1,0.3-8c0.6-6.4,0.5-9.6-0.7-18c-1.1-7.8-1.3-9.7-1.5-15.8c-0.1-2.6-0.9-15.8-1.2-17.4c-0.6-3.5-0.5-4.6,0.7-5.4
	c2.5-1.7,4.8,0.4,8.2,7.5c1.2,2.5,3.2,6.4,4.4,8.6c3.2,5.8,5.1,11.3,5.9,17.4l0.3,2.6l0.4-1.5c1.2-4.7,4.1-13.7,4.2-22.2
	c-0.6-2.3-1.7-4.2-4.8-9.5c-7.9-13.6-9.5-20.5-6.1-26.8c2-3.6,4.7-4.8,7-3.1c1.2,0.9,1.4,1.2,4.8,7.7l2,3.9l0.8-2.4
	c1.7-5.1,3.7-7.6,6.2-7.4c2.4,0.2,3.4,1.9,6,11.1c1.8,6.6,2.3,11.1,1.3,14c-1.1,3.5-3.8,6.8-8,9.6l-3.4,2.3c0,8.7-3.3,18.1-5.9,28.9
	c-1.1,4.6-2.1,9-2,9.1c1.8-1.8,5.9-10.9,8.3-17.4c2.9-7.6,5.7-12.8,10.6-19.3c1.8-2.4,3.8-5.1,4.5-6.2v-72.7h25.6
	c4.4,0,8.9,0.2,13.3,0.6c7.6,0.8,12.7,2.6,15.3,3.9c1.9,1.1,3.7,2.5,5.3,4c3.8,3.9,7,8.4,9.2,13.4c1.1,2.5,2,5.2,2.6,7.8
	c0.6,2.6,1.1,5.3,1.3,7.9c0.7,7.2,0.6,14.4-0.2,21.6c-0.5,4.8-1.5,9.6-3.1,14.2c-1,2.8-2.2,5.6-3.8,8.1c-0.7,1.1-1.5,2.2-2.3,3.3
	c2.4,0.7,5.6,3.7,8.1,8.8c1.2,2.4,4.3,9.6,3.5,12l3,5.2l0-2.6c0.1-5.7,1.8-9.3,4.6-9.9c2.2-0.5,5.1,1.4,6.4,4.4
	c2.3,5.1,2.2,12.2-0.2,21.1c-0.4,1.7-0.8,3.2-0.8,3.5c0,0.5,3.8,7.2,4.1,7.2c0.1,0,0.3-0.8,0.4-1.8c0.6-4.4,2.5-8.5,4.6-9.9
	c1-0.7,1.5-0.8,2.7-0.8c4.2,0.1,6.4,4.5,7,13.9c0.3,5.5,0.2,6.7-1.7,15.2l-1.3,5.8c1.4,2.7,3.4,5.8,5.3,11.9c0-0.1,0.1-1.5,0.2-3.2
	c0.2-5.2,0.9-9.6,2.1-12.4c0.9-2.2,2.3-3.4,4-3.5c2.1-0.1,5.2,0.7,6,9.2c0.2,3.7,0.9,9-0.4,13.1c4.4-3.5,7-2.7,7.7-2.4
	c1.8,0.8,2.7,2.3,3,4.9c0.5,3.8-0.9,7.4-4,10.8c-2.3,2.4-6.3,5-10.3,5.8c0,0.2,3.6,10.5,4.5,14.3c1.5-3.8,3.9-5.9,5.4-6.8
	c1.9-1.2,3.3-1.4,4.8-0.9c3.6,1.3,4.5,6,2.7,15.3c-0.9,4.5-1.4,6.2-4.2,13c-2.1,5.3-2.2,5.3-1.9,6.9c0.2,0.9,0.4,1.6,0.5,1.7
	c0.1,0.1,0.4-0.9,0.7-2.2c1-4.6,2.8-7.8,4.9-9c1.4-0.7,2.2-0.8,3.7-0.2c1,0.4,1.4,0.8,2.1,1.9c0.8,1.3,0.8,1.6,1,4.6
	c0.2,3.6-0.2,7.3-1.3,11.3l-0.7,2.5l2.6-1.5c4.8-2.8,8-2.9,9.5-0.2c1.6,2.7,0.3,7-3.4,11.2c-3.3,3.8-7.5,5.8-11.8,5.8l-2.1,0
	l0.3,2.4c0.4,3.4,1.1,7.8,2.1,13.2c3.1,17.5,3.8,20.5,6.1,42.6c1.9,1.7,3.8,5.6,4.8,9.8c1.1,4.8,1.9,14.9,1,22.3
	c1-3.2,3.3-10.5,4.9-14c2.3-5.9,4.2-10,6.1-12.6c0.7-0.9,1.2-1.7,1.2-1.8c-2.8-0.3-6.6-1.9-8.2-3.3c-2.9-2.5-5.3-7.1-5.5-10.4
	c-1.6-9.3,10.4-8.4,14.2-3.5c-1.7-4.4,0.6-14.2,8.6-14.5c3.8,0.4,7.8,3.8,9,7.5c0.6,1.9,0.7,4.2,0.3,6.4l-0.4,1.8
	c3.8-2.4,9.7-0.3,12.3,2.1l-59-140c19.3-12.2,34.7-29.8,44.3-50.5c5.8-12.6,9.7-26,11.6-39.8c3.4-22.8,2.7-46.1-2.1-68.7
	c-4-18.4-11.6-35.9-22.4-51.4c-8.7-12.3-19.7-22.7-32.5-30.7c-10.3-6.9-21.7-11.9-33.7-15c-6.3-1.4-12.8-2.5-19.3-3
	c-14.2-1.3-28.4-2-42.6-2l-155.7,0V389.8z M1131.8,412.7v57.2h20c-0.3-1.4,1.7-13.3,1.8-19.9
	C1145.9,442.5,1134.6,432.6,1131.8,412.7z M1333.5,124.1c1.1,1.3,2.4,2.6,3.6,3.8c1.2,1.3,2.3,2.7,3.5,4c1.1,1.1,2.4,1.9,3.8,2.6
	c1.5,0.9,2.9,2,4.2,3.2c2.7,2.3,5.7,4.2,8.8,5.8c2.4,1,5,1.7,7.7,1.9c2,0.2,4-0.7,5.1-2.4c0.8-1,1.7-2.1,2.6-3
	c0.4-0.4,0.9-0.6,1.5-0.6c0.2,0.1,0.2,0.3-0.1,0.5c-0.8,0.7-1.5,1.6-2,2.6c-0.3,0.8-0.5,1.7-0.7,2.5c-0.3,0.8-0.9,1.5-1.6,2
	c-0.9,0.6-1.6,1.5-2.1,2.5c-0.2,0.6-0.4,1.2-0.6,1.9c-0.4,0.8-1,1.4-1.7,1.9c-1.2,1-2,2.3-2.6,3.8c-0.8,1.6-1.9,3-3.2,4.2
	c-0.8,0.7-1.6,1.5-2.2,2.5c-0.3,0.6-0.6,1.2-0.8,1.8c-0.4,0.8-0.9,1.5-1.6,2c-1.1,1.1-2,2.3-2.7,3.7c-0.9,1.3-1.7,2.5-2.7,3.8
	c-0.8,1.1-1.5,2.2-2.2,3.3c-0.6,0.9-0.9,2-1.1,3.1c-0.2,0.7,0.2,1.4,1.7,0.5c1.3-0.8,2.4-1.9,3.3-3.2c1.2-1.6,2.4-3.2,3.6-4.8
	c0.8-0.8,1.5-1.6,2.2-2.5c0.5-0.7,0.9-1.5,1.3-2.3c0.4-0.8,1-1.4,1.7-1.9c1-0.8,1.9-1.9,2.4-3.1c0.7-1.6,1.7-3.1,2.8-4.5
	c0.8-0.7,1.6-1.5,2.3-2.4c0.6-0.9,1.1-1.9,1.5-2.9c0.4-0.8,1-1.4,1.8-1.8c0.9-0.6,1.6-1.5,2-2.5c0.2-0.6,0.5-1.2,0.8-1.8
	c0.5-0.7,1.2-1.3,2-1.6c1.2-0.6,2.1-1.6,2.6-2.8c0.1-0.3,0.3-0.6,0.5-0.9c0.1-0.1,0.3,0,0.2,0.3c-0.1,0.8-0.5,1.6-1,2.3
	c-0.8,1-1.6,2.1-2.2,3.3c-0.7,1.4-0.7,3-0.2,4.5c1.1,3.1,2.9,5.9,5.3,8.3c2.7,2.6,5.6,4.9,8.8,6.9c1.2,1,2.3,2,3.4,3.1
	c1.3,1.1,2.9,2.1,4.5,2.7c1.8,0.8,3.6,1.8,5.3,2.8c0.9,0.6,2,1,3.1,1.2c2.6,0.6,2.4-2.6,2.2-3.5c-0.4-1.5-1-2.9-1.8-4.2
	c-1.3-2.1-2.8-4-4.5-5.7c-1.1-1.3-2.3-2.7-3.5-4c-2.2-2.2-4.2-4.5-6.1-7c-2.2-2.8-4.3-5.6-6.4-8.4c-0.5-0.7-1.1-1.4-1.6-2.1
	c-0.6-0.7-0.3-0.8-0.2-0.7c0.5,0.3,1,0.7,1.4,1.1c2.1,2,4.1,4,6,6.1c1.6,1.8,3.3,3.5,5.1,5.2c2.1,1.7,4.3,3.1,6.7,4.2
	c2.4,1.2,4.9,2.1,7.4,2.7c1.5,0.2,3.1,0.3,4.6,0.3c2,0.2,3.9,0.4,5.9,0.8c0.8,0.2,2.2,0.1,2.4-1.3c0.1-1.1-0.2-2.2-0.8-3.1
	c-1-1.4-2.3-2.7-3.8-3.6c-3.4-2.1-6.9-3.9-10.5-5.5c-2.6-1.2-5-2.8-7.3-4.6c-1.6-1.2-3.2-2.4-4.7-3.6c-3.1-2.1-6.5-3.7-10.1-4.8
	c-0.9-0.3-0.1-1.2,0.2-1.7c0.4-0.8,0.5-1.7,0.3-2.5c-0.2-0.6,0.1-1.2,0.6-1.2c0.4,0,0.8,0.1,1.2,0.2c0.8,0.2,1.7-0.1,2.3-0.7
	c0.3-0.3,0.4-0.7,0.5-1.1c0-0.9-0.2-1.7-0.6-2.5c-0.4-0.8-0.8-1.6-1.2-2.3c-0.5-0.7-1.3-1.1-2.2-1.1c-1.1-0.2-2.2-0.3-3.3-0.3
	c-0.4,0.1-0.8,0.2-1.2,0.4c-0.7,0.5-1.1,1.3-0.9,2.2c0.2,0.6,0.4,1.2,0.8,1.7c0.1,0.2,0.2,0.5-0.1,0.8c-0.3,0.2-0.7,0.4-1.1,0.4
	c-0.4,0.1-0.8,0.2-1.2,0.4c-0.5,0.3-1,0.8-1.4,1.3c-0.2,0.5-0.9,0.4-1.5-0.7c-2.2-3.3-4.9-6.2-8.1-8.7c-2.7-1.9-5.3-4-7.7-6.2
	c-1.5-1.6-3-3.2-4.4-5c-2-2.3-4.2-4.5-6.5-6.6c-1.2-1-2.5-1.8-4-2.2c-0.8-0.2-1.7-0.2-2.6,0c-1.7,0.5-1.3,2.8-0.3,4.3
	c1,2,1.7,4,2.3,6.2c0.7,2.1,1.8,4.1,3.1,5.8c2.2,3.1,4.8,5.8,7.8,8c2,1.3,4.1,2.5,6.3,3.6l0.6,0.3c2.8,1.4,5.4,2.9,8.1,4.6
	c0.5,0.4,0.6,0.7,0.2,0.7c-3.7-1.5-7.4-3-11.1-4.4c-2.2-0.9-4.5-1.9-6.7-2.9c-2.5-1.4-5-2.7-7.7-3.9c-2.1-1.2-4.3-2.2-6.7-2.9
	c-1.5-0.5-3-0.7-4.5-0.8c-0.9,0-1.7,0.2-2.5,0.6C1332.2,121,1332.5,122.9,1333.5,124.1z"/>
</svg>
