<?xml version="1.0" encoding="utf-8"?>
<!-- Generator: Adobe Illustrator 26.5.2, SVG Export Plug-In . SVG Version: 6.00 Build 0)  -->
<svg version="1.1" id="Layer_1" xmlns="http://www.w3.org/2000/svg" xmlns:xlink="http://www.w3.org/1999/xlink" x="0px" y="0px"
	 width="1534.2px" height="975.1px" viewBox="0 0 1534.2 975.1" style="enable-background:new 0 0 1534.2 975.1;"
	 xml:space="preserve">
<style type="text/css">
	.st0{fill:none;stroke:#FF0000;stroke-width:0.75;stroke-miterlimit:9.6378;}
	.st1{fill:none;stroke:#FF0000;stroke-width:0.75;stroke-miterlimit:9.6377;}
</style>
<path class="st0" d="M395.1,493.2c-0.5,0-1,0.3-1.1,0.4c-0.7,0.4-1.1,1.2-1.1,2v477.2c0.1,1.2,1,2.2,2.2,2.3l278.4,0
	c1.2-0.1,2.2-1,2.2-2.2l0-125c0-1.9-1.6-2.3-2.3-2.3H535.5V495.5c-0.1-1.3-1.1-2.3-2.3-2.3L395.1,493.2z"/>
<path class="st0" d="M976.4,493.2c-1.1,0-1.8,0.9-2,1.8l-49.3,190.9l-43.8-190.8c-0.2-1.1-1.1-1.8-2.2-1.9H700.7
	c-1.3,0.1-2.3,1.1-2.2,2.4v477.2c0,1.2,1.1,2.3,2.3,2.3H821c0.5,0,0.9-0.2,1.3-0.5c0.2-0.2,1-0.7,1-1.9V800.5l38.7,172.8
	c0,0.1,0.1,0.3,0.1,0.4c0.3,0.8,1.1,1.4,2,1.4h103c1-0.1,1.9-0.8,2.2-1.8l46.7-190.6v190.1c0.1,1.3,1.1,2.3,2.3,2.3h132
	c1.3-0.1,2.2-1.1,2.2-2.4V495.5c0-1.6-1.3-2.3-2.3-2.3L976.4,493.2z"/>
<path class="st0" d="M212.6,493.2c-0.4,0-0.8,0.2-1.2,0.5c-0.3,0.2-0.5,0.4-0.6,0.7l-68.2,116.8V495.5c0-1.1-0.7-1.7-1.4-2.1
	c-0.3-0.1-0.6-0.2-0.9-0.2H2.2c-1.2,0-2.2,1.2-2.2,2.4v477.2c0.1,1.2,1,2.3,2.1,2.3l138.2,0c1.1-0.1,1.4-0.6,1.8-1
	c0.3-0.4,0.5-0.9,0.5-1.5V811.3l6.7-9.7l65.9,172c0.1,0.2,0.3,0.6,0.6,0.9c0.2,0.2,0.4,0.3,0.6,0.4c0.3,0.1,0.6,0.2,0.9,0.2h146
	c0.6,0,0.7-0.1,1.1-0.3c1.8-1.1,1.1-2.7,1-3.1L239.1,679.5l125-182.5c0.3-0.5,0.6-1.1,0.4-2c-0.3-0.9-1.2-1.8-2.1-1.8L212.6,493.2z"
	/>
<path class="st1" d="M1412.6,493.2c-1.2,0-2.1,1.2-2.1,2.4v173l-72.2-174c-0.3-0.8-1.1-1.4-2-1.5h-141.5c-1.3,0.1-2.2,1.1-2.2,2.4
	v477.2c0,1.3,1.1,2.3,2.3,2.3h116.3c1.2-0.1,2.2-1,2.2-2.2l0-219.6l93.1,220.3c0.3,0.8,1.1,1.4,2,1.4h120.7c1.3-0.1,2.2-1.1,2.2-2.4
	V495.5c0-1.3-1.1-2.3-2.3-2.3L1412.6,493.2z"/>
<path class="st0" d="M397.8,0c-0.5,0-1,0.3-1.1,0.4c-0.7,0.4-1.1,1.2-1.1,2v477.2c0.1,1.2,1,2.2,2.2,2.3l278.4,0
	c1.2-0.1,2.2-1,2.2-2.2l0-125c0-1.9-1.6-2.3-2.3-2.3H538.2V2.3C538.2,1,537.1,0,535.9,0L397.8,0z M456.1,452c0.3-0.9,0.1-1.8-1-3.7
	c-2.4-4.5-16.4-13.7-28.2-4.2c-1.3,1.2-3.1,3.2-5.2,5.6l-1.5,1.8l2.7-0.7c13.6-4.4,28.4,2.7,30.1,2.7
	C454.5,453.4,455.8,452.8,456.1,452z M419,443.5c2.8-5.1,3.8-7.6,5.7-14.5c1.9-6.7,2.4-9.4,2.8-14.3c0.3-4.7-0.2-11-0.9-11.2
	c-0.3-0.1-2,2.6-3,4.6c-1,2.1-2.6,7.3-3.7,12.1c-1.3,5.7-2.9,16.3-3,20.3c-0.1,3.9-0.1,6.5,0.1,6.4C417.1,446.9,418,445.3,419,443.5
	z M612.4,459.3c1.7-2.7,4.3-5.5,6.1-6.4c1.5-0.8,1.7-0.5,1.1,1.4c-0.5,1.7-1.1,2.4-2.4,3.6c-1.6,1.3-3.6,2.3-5.5,2.6
	C611.7,460.5,612,460,612.4,459.3z M597.6,457.4c-2.8-0.8-4.6-1.5-6.6-2.9c-2.9-1.9-5.6-5.3-4.5-5.8c0.8-0.4,4.9,1.1,8.4,3.1
	c3,1.7,7.9,5.6,7.8,6.3C602.6,458.4,599.9,458.1,597.6,457.4z M609.9,445.2c0.8-4.1,1.6-7,2.8-10.4c0.5-1.4,0.6,0,0.2,3.2
	c-0.5,3.5-1.3,6.8-2.7,10.8c-0.7,2.1-0.9,2.4-1.1,1.9C609,450.2,609.3,448.4,609.9,445.2z M591,434c-3-1.3-4.8-2.3-6.2-3.6
	c-1.3-1.2-3.4-3.6-3.3-3.9c0.1-0.8,3.8,0.8,6.5,2.7c1.2,0.9,5.2,4.6,6.1,5.6C594.4,435.4,593.7,435.2,591,434z M599.8,427.7
	c-0.5-1.9-0.5-2.1-0.1-5.6c0.3-2,0.7-4.4,1-5.4c0.9-2.8,2.8-6.3,3.4-6.2c0.1,0,0.3,0.7,0.5,1.6c0.2,1.3,0.1,2.4-0.4,6.6
	c-0.6,4.9-0.7,5.2-1.9,8.1c-1.6,3.9-1.5,3.8-1.8,3.3C600.4,429.8,600.1,428.8,599.8,427.7z M582.4,406.1c-2.1-1.3-2.9-2-3.6-3.1
	c-0.5-0.7-0.9-1.4-0.9-1.5c0-0.3,1.8,0.5,3.3,1.5c1.3,0.9,4.5,4.2,4.9,5C586.3,408.5,585.3,408,582.4,406.1z M591.6,396.1
	c0.3-4.9,1.3-9.6,2-9.5c0.8,0.1,0.8,4.8,0,8.1c-0.7,2.8-1.8,6-2.1,5.7C591.4,400.3,591.5,398.4,591.6,396.1z M579.2,384
	c-0.9-1.3-2.2-3.1-2.7-5.9c-0.6-3.1-0.1-3.6,1.8-1.2c1.4,1.8,1.8,2.5,2.4,5.5c0.3,1.6,0.3,2.1,0.1,2.4
	C580.2,385.2,580.1,385.2,579.2,384z M640.3,457.1c0.4-1-0.4-9.2-1.3-13.7c-0.6-3-2.6-12-4-14.6c-2.6,4.5-1,13.5,0.5,18.2
	c0.6,1.9,4.3,10.4,4.6,10.5C640,457.4,640.2,457.3,640.3,457.1z M647,459.5c1.1-0.8,3.1-2.8,4.7-4.6c2.3-2.6,4.1-5.3,7-10.5
	c2.8-5.1,3.8-7.1,7.6-11.8c1.4-1.8-1.7-0.9-4.3,1.2c-6.2,5.1-11.9,11.8-13.5,16c-0.4,1.1-2.3,10-2.1,10
	C646.4,459.8,646.7,459.7,647,459.5z M659.2,412.2c-1.7,1.1-4.8,2.4-5.7,2.4c-0.5,0-0.4-0.7,0.5-6.8c1.6-10.9,2.3-13.3,4.4-15.4
	c1.5-1.3,4.4,2.4,5.8,4.5c2.7,4.1,2.8,8.2,1.7,9.4C665.1,407.7,661.1,411,659.2,412.2z M643.5,411.6c-1.4-2.8-3.3-7.1-4.5-10.5
	c-1.1-3.1-2.8-9.7-2.6-9.9c0.5-0.4,3.1,4.6,5,9.5c1.7,4.4,3.9,13.1,3.4,13C644.7,413.8,644.1,412.8,643.5,411.6z M648.1,407.3
	c-2.2-9.5-6.6-18.3-10.9-22.1l-1.7-1.5l0-1.5c0-0.8,0.1-2.5,0.3-3.6c0.5-3.3,1.2-3.9,3-2.9c1,0.5,1.4,1,2.9,3
	c4.2,5.7,6.5,13.2,7,22.5c0.2,4,0.2,7.8,0,7.8C648.5,408.9,648.3,408.2,648.1,407.3z M634.5,409.6c-2-1.9-5.5-6.8-7.2-10.1
	c-3.1-6-3.8-9.6-2.4-11.7c0.7-1,1.4-1.4,2.9-1.6c1.1-0.2,3,0.2,3.3,0.7c0.1,0.1,0.4,1.9,0.8,3.9c1.1,6.6,3.2,13.2,6.2,19.6
	c0.7,1.5,1.3,2.8,1.4,3C639.6,413.8,636,410.9,634.5,409.6z M536.1,458.3c-2.5-5.7-5.2-10.6-7.6-13.7c-1.7-2.2-3.8-4.5-3.9-4.2
	c-0.1,0.6,2.9,6.5,5.8,11.3c1.7,2.9,6.6,9.6,6.7,9.2C537.2,460.8,536.7,459.6,536.1,458.3z M535.7,427.7c0.7-0.2,1.5-0.7,1.8-1
	c0.6-0.5,0.6-0.6,0.3-1.1c-0.2-0.3-1.2-1.4-2.2-2.4c-1.9-1.9-1.9-1.9-2.6-1.7c-1.7,0.5-1.7,0.4-1.5,3.6c0.1,3.1,0.2,3.3,1.9,3.2
	C533.9,428.2,535,427.9,535.7,427.7z M521.9,422.2c0.6-0.2,1.3-0.6,1.6-0.8c1.1-0.8,2.7-2.7,2.7-3c-0.1-0.7-6.4-4.1-7.5-4
	c-0.6,0.1-0.9,2.8-0.5,5.1c0.4,2.4,0.5,2.7,1.2,2.9C520.2,422.7,520.7,422.7,521.9,422.2z M542.9,416.4c0-0.3,0-1.6-0.2-3
	c-0.2-2-0.4-2.6-0.9-3.4c-0.6-1.1-1.1-1.2-2.4-0.4c-0.8,0.5-4,4.2-4,4.6c0,0.4,0.7,0.8,3.2,1.7C542,417.2,542.7,417.3,542.9,416.4z
	 M528.4,412.6c1-0.6,1-1.1,0.7-4.7c-0.3-3.1-0.5-3.6-1.8-3.8c-1.3-0.2-2.6,0.1-3.1,0.8c-0.4,0.6-0.4,0.8-0.2,2.1
	c0.1,0.8,0.5,1.9,0.8,2.4c0.5,1,2.6,3.7,2.8,3.6C527.6,413,528,412.8,528.4,412.6z M563.4,454.6c0.6-0.3,1-1.5,0.8-2.7
	c-0.3-1.8-2.3-5.8-3-5.9c-0.8-0.1-1.8,3.5-1.4,5.4c0.2,1.1,0.7,2.2,1.3,2.7C561.8,454.7,562.8,454.9,563.4,454.6z M554.1,443.1
	c1.2,0.1,2-0.1,2.4-0.2c-0.4-2.7-6.7-7.6-8.9-6.1c-0.8,0.7,0.8,3.8,2.6,5.1C550.9,442.6,552.7,443.1,554.1,443.1z M574.1,442
	c0.4-0.4,0.4-0.5,0.3-1.2c-0.2-0.9-1.5-2.3-2.5-2.8c-1.5-0.7-3.4-0.4-5.5,0.9c-1.6,1-1.5,1.9-1.3,2.8c0.1,0.2,2.6,1.2,3.6,1.4
	C571.4,443.7,573.5,442.5,574.1,442z M561.4,436c1-3.9,0.9-5.6-0.5-6.9c-1.8-1.7-2.9-1.6-3.5,0.3c-0.4,1.3-0.4,3,0,5.3
	c0.3,1.4,1.3,4.7,1.5,4.7C559.6,439.5,560.9,437.8,561.4,436z M498.1,263l-0.8-0.5l0.4-4c0.2-2.2,0.4-4.7,0.5-5.5
	c0.1-1.9,1.1-4.6,2.3-6c0.5-0.6,1.6-1.5,2.4-1.9c1.3-0.7,1.9-0.9,4-1c2.2-0.2,2.7-0.1,4.4,0.6c1.9,0.8,4.3,2.6,4.4,3.4
	c0.1,1.8-2.8,5.4-9.9,12.3l-5,4.9l-0.9-0.8C499.4,263.9,498.6,263.3,498.1,263z M488.8,259.7c-1.9-0.6-3.4-0.8-4.4-0.4
	c-0.4,0.1-1.1-1.4-4.5-10.1c-2.5-6.3-3.2-8.7-3.2-11.1c0-2.3,0.4-3,1.9-3.1c1.7-0.1,3.9,0.2,5.5,0.8c2,0.8,4.9,3.3,6.1,5.3
	c1.9,3.2,2.7,7.9,2,11.6c-0.2,1.1-0.5,2.9-0.5,3.9c-0.1,1.1-0.2,2.3-0.2,2.8c0,0.5-0.2,0.9-0.3,0.9S489.9,260.1,488.8,259.7z
	 M496.3,240.7c-0.8-1.9-2.5-4.5-3.7-5.6c-0.7-0.6-0.8-0.9-0.7-2c0.1-3.1,2.8-4.9,6.2-4.1c2.3,0.6,5.1,4.4,5.7,7.9l0.3,1.7l-1.6,0.6
	c-1.6,0.6-4.8,2.5-5,3C497.1,242.6,497,242.5,496.3,240.7z M514.9,240.1c-0.8-0.4-2-0.9-2.7-1.1c-0.7-0.2-1.4-0.4-1.5-0.5
	c-0.4-0.3,1.3-3.5,2.3-4.2c0.7-0.6,1.2-0.7,2.1-0.7c1.7,0.1,2.8,1,2.8,2.5c0.1,1.2-1,4.6-1.5,4.7
	C516.4,240.8,515.7,240.4,514.9,240.1z M485.5,456.9c-5-6.7-10.6-12.7-17.4-18.9c-11.4-10.3-17.8-17.6-19.6-22
	c-2-5.2-2.3-9.7-0.6-10.9c1.7-1.2,6.7,0.1,11.6,3.2c5.3,3.3,13,12.7,17.7,21.6c4.1,7.8,7.9,17.2,8.8,21.9c0.5,2.9,0.9,6.4,0.7,6.4
	C486.6,458.3,486,457.7,485.5,456.9z M493.1,440.4c-0.6-18.3,1.3-37.9,4.8-52c1.1-4.5,3.4-11.3,5.2-15.8c3.1-7.5,7.9-15.9,10.5-18.4
	c0.4-0.3,1.1-0.2,1.3,0.5c0.8,5.7-1.9,23.9-6.4,42.9c-2.8,11.9-4.9,18.7-10.2,33.5c-1.6,4.6-3.4,9.4-3.8,10.8
	c-0.5,1.3-0.9,2.4-1.1,2.4C493.3,444.3,493.2,442.6,493.1,440.4z M460.1,359.1c-6.8-3.3-9-4.6-16.2-9.3
	c-13.3-8.6-18.2-12.6-22.2-17.7c-3.3-4.3-5.7-10-4.6-11.1c1.3-1.3,10.9,2.5,18.2,7.2c8.6,5.5,20.1,15.8,28.1,25.2
	c4.9,5.8,6.1,9.8,6.2,10.1c0.1,0.4-0.2,0.3-1.9-0.6C466.6,362.3,463.2,360.6,460.1,359.1z M475,359.6c0.1-1.2,0.3-5.7,0.5-10
	c0.2-4.2,0.5-8.8,0.7-10.1c0.9-5.4,3.3-13.4,5.1-17.1c1.9-3.8,4.6-7.1,5.7-6.7c1,0.4,1.4,5.3,0.7,9.4c-0.8,4.9-3.2,13.5-5.4,19.8
	c-2.6,7.3-6.7,17-7.2,17C475,361.9,475,361.1,475,359.6z M455.2,334.3c-4.1-5.2-6-8.7-13.7-24.8c-3.5-7.4-6.9-16.8-8.3-23.5
	c-0.7-3.1-1.2-9.5-0.7-9.5c0.6,0,3.1,2.2,4.7,4.1c5.4,6.5,8.9,12.4,13.9,23.9c4.3,10,6.6,16.1,9.2,24.7c1.6,5.3,4.2,14.8,4.2,15.4
	C464.5,345,458.1,337.9,455.2,334.3z M456.4,247.4c-6-12.3-8.5-17.9-11.8-27.1c-4.1-11.1-6.1-21.3-5.9-29.6c0.1-4.1,0.9-7.5,3-6.8
	c1.9,1.1,5,5.1,7.3,9.4c5.6,10.4,9,24.2,10.1,40.8c0.3,5.1,0.7,19.8,0.4,19.6C459.5,253.7,458.1,250.9,456.4,247.4z M476.2,183.8
	c-0.7-1.2-3-4.9-5.2-8.3c-13-20.2-16.9-28-18.7-37.3c-0.9-4.6-1.1-14-0.4-16.4c0.4-1.5,0.5-1.6,1.4-1.6c4.2,0,12.4,11.5,18.4,25.8
	c2.9,7,4.8,13.4,6.2,21c0.5,2.5-0.1,13-0.2,15c-0.1,2.1-0.2,3.8-0.2,3.8C477.5,185.9,476.9,185,476.2,183.8z M485.1,157.8
	c1.9-26.1,3.5-36.5,8.5-52.1c3.9-12.1,6.8-18,10-19.6c2.1-1.1,3.2-0.5,4,2.2c2.8,9-0.3,29.5-8.1,52.8c-3.4,9.8-8.6,31.3-14.6,37.5
	C484.5,173.4,484.6,163,485.1,157.8z M407.3,446c2,2.5,4,5.9,5.5,9.3c0.7,1.6,0.5,11.7,0.2,14.6h-5.6V446z M526.5,162.2
	c-7.5,6.3-18.7,14.6-26.4,19.2c-3.6,2.2-12.9,7.2-13.3,7.2c-0.1,0,0-0.5,0.4-1c2.7-4.5,12.5-18.8,17.9-26.2
	c8.3-11.2,13.3-16.4,21.4-21.5L526.5,162.2z M526.5,239.1l0-69.1c-6,4.9-12.6,9.4-18.9,13.4c-8.9,5.7-21.8,12.5-24,12.5
	c-0.7,0-2.6,0.1-4.5,4.8c-2.8,7.1-4,10.3-5.2,14.7c-1.9,6.8-6.1,20.8-7.5,29.9c-1.1,9.2-2.4,16.7-2.8,33.4
	c-0.4,11.6,0.5,26.4,2.6,39.5c1.8-6.7,2.8-18,18-41.4c-1.7-1.5-3.3-6.6-3.1-9.7c0.1-1.1-0.1-1.5-1.5-3.9c-1.6-2.6-4.3-9.2-7.1-17.2
	c-1.3-3.6-1.8-7.5-1.4-10.3c0.4-2.6,2.6-5.1,5.2-5.9c2.9-0.8,7.8-0.4,9.9,0.8c0.1-4,5.3-7.1,9.2-7.3c3.7-0.2,5.4,0.3,8.2,2.6
	c1.3,1.1,3.5,3.7,4.2,5.3c3.5-4.8,9.8-4.3,12.7-1.5c1.2,0.9,4.5,5.8,3.2,9.3C524.2,239,525.3,239,526.5,239.1z M526.5,254.2
	c-1.8-0.9-5.8-0.3-7.5,0.2c1-2.1,3.7-4.2,3.5-9.1c1.5-0.9,2.5-1.2,4-0.8V254.2z M526.5,269.3c-6.6,3.2-17.8,2.9-23,1.6l4-3.2
	c4.4-3.4,8.6-6,12.2-7.4c2.9-1.1,4.5-1.3,6.8-0.3L526.5,269.3z M484.8,469.8c-0.1-1.6,0.4-3.7-2.1-7.1c-5.2-7.4-10.3-13-19.8-21.9
	c-14.4-13.4-18.4-18.4-20.7-25.5c-0.7-2.1-0.8-2.9-0.9-6.3c-0.1-3.5,0-3.9,0.6-5.2c1.9-4,6-5.6,11-4.4c6.7,1.6,13.4,6.2,19.3,13.2
	c3,3.6,7.2,9.6,9.1,13.1c0.8,1.5,1.5,2.6,1.6,2.5c0.2-0.2-0.9-7.1-2.1-13.4c-1.9-10.4-7.9-38.5-9.1-42.4c-0.3-1.1-3.6-3-13.3-7.9
	c-8.3-4.2-9.7-4.9-15.1-8.3c-12.7-8.1-19.6-13.2-23.4-17.3c-8.5-9.2-11.2-18-6.9-22c2.6-2.4,6.1-2.3,12.7,0.2
	c5.5,2.1,11.5,5.4,16.5,9.1l1.4,1l-0.4-0.9c-0.2-0.5-2.1-4.3-4-8.4c-5.2-10.6-7.2-15.4-9.6-23c-2.2-6.8-3.5-14.6-3.2-18.2
	c0.5-5.1,4.2-7.3,8.7-5.1c3.8,1.8,9.6,8.6,14.5,17.2c1.9,3.3,5.1,9.9,7.5,15.6c0.9,2.2,1.7,3.8,1.8,3.6c0-0.3-0.1-2.2-0.3-4.3
	c-0.2-2.1-0.5-8.1-0.6-13.2c-0.3-9.4-0.1-15.2,0.6-23.5c0.1-1.2,0.1-3.7-0.7-5.4c-1.7-2-3.1-4.5-7.5-13.4c-4.9-10-6.5-13.6-9.2-20.6
	c-2.7-6.9-3.7-9.9-5.1-15c-3-11-4-21.7-2.6-27.5c0.6-2.4,1.1-3.4,2.4-4.9c2-2.2,5-2.8,7.8-1.5c5.5,2.6,12.4,13.8,16.2,26.4
	c1.9,6.3,3.7,15.5,4.3,21.6c0.1,1.2,0.3,2.2,0.4,2c0.1-0.1,0.9-3.3,1.8-7.1c1.8-8.9,6.7-21.9,9.3-27.8l-9.7-15.4
	c-12.5-19.2-17-28.2-19.2-38c-1.4-6.5-1.6-16.3-0.4-20.4c1.1-3.7,3.8-7.7,10.6-4.5c4.6,2.2,10.8,10,16.1,20.3
	c1.9,3.7,4.7,10.2,5.9,13.7l0.7,1.9l0.5-6c1.7-19.2,3.7-29.4,8.6-43.8c3.2-9.5,5.7-14.7,8.5-17.7c5.2-5.5,12.1-5.1,14.9,0.9
	c1.4,3,1.7,5.2,1.8,12.1c0.1,7.1-0.2,9.8-2.1,19.8c-2.1,11.3-5.7,23.4-11.3,38c-1.2,3.3-2.2,5.9-2.1,5.8c0.1-0.1,1.4-1.9,2.9-3.8
	c4.3-5.7,6.2-8,10.4-12.1c4.9-4.9,9.8-9.1,14.6-11.5V12H407.3v413.1c1.1,1.6,2.7,11.3,3.9,14.7c0.4-2,1.5-7,1.8-8.9
	c1.7-11.4,4.3-21.3,6.9-26.3c1.5-2.8,3.7-5.4,5.2-6.2c1.3-0.7,2.7-0.7,3.9,0.1c1.2,0.7,2.5,3.5,2.9,6.2c0.7,4.4,0.5,12.4-0.5,17.4
	c-0.2,1.2-1.3,5.1-2.4,8.8l-2,6.7c7.3-6.5,21.6-4.6,28.6,3.4c2.2,2.2,4.7,6.5,5,8.7c0.7,4.4-1.5,7.5-5.9,8.2
	c-2.8,0.4-5.4,0.1-11.2-1.5c-9.1-2.5-16.3-2.7-23.5,0c0,0.2,0.8,10.9,2.2,13.3H484.8z M666.7,440.2v29.7h-20.6
	c-0.1-1-0.2-4.7,0.6-5.2c2.1-0.9,4.1-2.4,6.7-5.2c3.4-3.6,5.5-6.5,8.7-12.4C663.5,444.6,665.3,442.3,666.7,440.2z M666.7,391.9
	c-2.3-3.4-3.6-4.5-5.8-5c-1.9-0.5-4.2-1.3-8.7,5.3c-1.3-5.9-3.5-11.2-6.7-15.9c-1.9-2.7-2.3-3.2-3.8-4.3c-3.9-2.9-7.6-2.1-9.5,2
	c-0.3,0.7-0.8,2.6-1,4.4l-0.4,3.1l-1.6-0.1c-2.3-0.2-4.2,0.3-5.9,1.6c-4.3,3.2-4.7,8.9-1.1,16.5c2.7,5.6,5.7,10.2,9.1,13.5
	c3.7,3.6,10.1,8.4,12.4,9.2c0,1,1.8,2,1.8,2.1c-1.1,6.3-1.1,17.2-1.2,21.8c-0.2,1-0.2,0.9-0.8-2c-0.3-1.7-1.6-7.3-2.9-12.6
	c-1.3-5.3-3.6-9.6-7-7.8c-6.9,6.4-4.5,19.6-1.2,28.3c1.3,5.2,6,15.1,5.2,17.9h-26.5c0-0.2-0.7-3.9-0.1-4.5c3.4-0.3,5.7-1.2,8.2-3
	c3.4-2.5,5.2-5.6,5.5-9.1c0.2-2.4-0.4-4-1.9-5c-0.6-0.4-3-1.8-7.4,0.8c2-6.2,3-12.3,2.5-16.6c-0.6-2.9-1.8-4.4-3.7-4.6
	c-1.6-0.2-3.1,0.6-4.3,2.4c-1.5,2.3-3,6.2-4.1,10.9c-0.3,1.5-0.7,2.8-0.7,2.8l-2-6.8c1.8-1.7,5-9.2,6-17.9c1.1-8.6-0.2-13-3.9-13.8
	c-1.2-0.2-1.6-0.2-2.6,0.2c-2.1,0.9-4.6,4.3-5.9,8.2c-0.3,0.9-0.6,1.5-0.7,1.5c-0.2,0-2.5-6.8-2.5-7.2c0-0.2,0.6-1.6,1.3-3
	c3.7-7.7,5-14.2,3.8-19.2c-0.7-2.9-2.9-5.1-5-5.1c-2.7,0.1-4.8,3.1-5.9,8.2l-0.7,3.7c-0.9-1.1-1.9-3.3-2.3-4.8c1-0.7,0.3-7.6-0.3-10
	c-1.4-5.1-4.8-8.1-8.1-8.5c-2.5-0.3-4.4,0.9-4.9,3.1c-0.6,2.5,0.5,7.4,2.4,11.2c1.5,3,5,6,7.1,6.1c1.1,2.4,3.3,7.2,4.1,9.6
	c0,0.1-0.4-0.1-1-0.5c-1.9-1.4-4-2.3-6.1-2.5c-2-0.2-2.8,0.1-4,1.4c-1.6,1.6-0.9,5.4,1.6,8.5c1.5,1.9,2.8,2.9,6,4.7
	c3,1.7,4.4,2.3,6.9,2.8l2,0.4l1.9,5.9c1.9,5.9,2.4,7.6,2.2,8c-0.1,0.1-0.7-0.3-1.5-1c-3-2.7-8-5.4-10.5-5.7
	c-3.9-0.5-6.7,1.6-6.2,4.7c0.5,2.7,3.7,6.8,7.4,9.3c3.3,2.2,9.5,4.7,12.7,5.2l2.1,0.3l2.7,9c-0.1,0.1-0.9-0.4-1.8-1
	c-3.7-2.5-8.7-4.7-11.4-5c-4-0.5-6.3,0.8-6.7,3.8c-0.4,2.8,1.5,6.2,4.9,9.2c3.5,3,8.5,5.7,14.2,6.5c0.9,0.1,2.8,0.4,3.5,0.8
	c0,0.9-0.6,4.7-1,5.6h-51.1c0.6-4.3,1.9-12.4,3.9-17.6l0.3,1.1c1.8,5.8,8.9,7.3,11.3,2.5c1.3-2.1,0.9-6.7-1-9.2
	c2.9,1.7,8.2,0.5,10.6-1.9c1.4-1.4,1.5-4.8,0.5-6.5c-2.2-3.9-6.7-5.6-10.8-3.9l-0.8,0.3c0.9-2,0.2-4.7-0.4-5.9
	c-1.1-2.6-4.1-4.7-6.9-4.8c-1.1,0-3.4,1.2-4,2.1c-1.3,1.6-2.5,5.8-1.2,8.7c-1.6-1.5-4.1-2.5-6.1-2c-1,0.1-2.4,0.9-3,1.6
	c-0.7,0.8-1.1,2.6-0.9,3.8c0.3,2.4,2.3,5.5,4.5,7.1c1.2,0.9,4,1.9,6.1,1.9c0,0-0.3,0.6-0.7,1.3c-1.2,2-2.4,5-3.6,9.4
	c-0.9,2.6-2.1,6.8-4.2,7.1c-1.5-2.3-1.9-8.9-2.9-14.3c-0.7-3.8-3.9-18.3-4.4-19.2c2.8-1.3,3.4-2.7,3.8-3.8c0.7-1.8,0.1-3.8-1.9-5.9
	c-0.8-0.9-0.8-0.9-0.3-0.8c0.3,0.1,1.2,0.2,1.9,0.3c2.4,0.2,4.1-0.8,5-2.9c0.4-1.1,0.5-3.6,0.2-5.7c-0.7-4.5-2.7-7.3-5.5-7.7
	c-2.1-0.3-4.3,0.8-6.4,3.1l-1.3,1.4c0.2-1.5-0.4-4.7-1.1-6.3c-0.9-1.8-2.4-3-4.4-3.4c-1.4-0.2-3.9,0-5.1,0.6c-3,1.4-4.3,4.9-3.1,8.5
	c0.2,0.7,0.4,1.4,0.4,1.4c-2.7-0.6-4,0.1-5,1.1c-0.7,0.7-1.4,2.8-1.5,4.5c-0.2,2,0.4,6.6,1,7.8c0.6,1.3,2.2,2.5,3.7,2.9
	c2.1,0.5,6.1,0.3,8.4-2.5c0,0-0.2,3.8,1,5.7c1,1.8,2.1,3.1,5.9,2.7c0.7,2.1,2.6,10.9,3.7,17.6l0.3,1.9l-1.5-2.7
	c-1.7-3.2-2.4-4.2-3.9-6.4c-2.6-3.6-7.4-8.4-9-9c-1.5-0.6-3.2,0.1-3.8,1.7c-1,2.4,1,7.9,5.7,16.1c2.6,4.6,6.7,13.4,10.9,18.3h-42.8
	c-0.3-2.4,0.7-8,1.5-10.4c1.5-5.6,3.2-10.9,6.2-19.1c7.4-20.6,9.3-26.7,12.5-39.5c2.8-11.6,5.2-23.7,6.5-33.2
	c0.7-5,0.7-14.3,0.1-16.2c-1.2-3.7-4.3-5.1-7.5-3.5c-3.7,1.8-9.2,10.1-13.7,20.4c-5.7,13-8.8,26-10.4,43.1c-0.3,3.7-0.7,7-0.8,7.4
	c-0.1,0.4-0.6-1.8-1.3-5.3c-1.5-11.4-6.5-32.9-9.3-43.4c7.2-7.9,16.3-31.5,16.6-49.7c0-4.1-0.5-6-2-7.8c-4.8-6.1-12.6-1.1-17.1,11.2
	c-1.2,3.3-2.7,8.4-3.5,12.2c2.8-26.1,7.8-41.9,19.5-57.7c2.9,1.1,8.7,0.2,11.6-1c0.9-0.5,1-0.5,2.7-0.1c4.4,1,17-0.2,21.6-1.7v89
	h140.2V391.9z M666.7,412.8V425c-5.5,3.7-12,8.9-16.6,14c0.1-4.4-0.1-12.5,0.2-15.4c0.4-0.5,0.8-1.7,1-2.8c0-0.3,0.8-0.6,2.9-1.2
	C658.3,418.4,663.1,415.6,666.7,412.8z"/>
<path class="st0" d="M215.3,0c-0.4,0-0.8,0.2-1.2,0.5c-0.3,0.2-0.5,0.4-0.6,0.7l-68.2,116.8V2.3c0-1.1-0.7-1.7-1.4-2.1
	C143.6,0.1,143.3,0,143,0H5C3.7,0,2.8,1.2,2.8,2.4v477.2c0.1,1.2,1,2.3,2.1,2.3l138.2,0c1.1-0.1,1.4-0.6,1.8-1
	c0.3-0.4,0.5-0.9,0.5-1.5V318.1l6.7-9.7l65.9,172c0.1,0.2,0.3,0.6,0.6,0.9c0.2,0.2,0.4,0.3,0.6,0.4c0.3,0.1,0.6,0.2,0.9,0.2h146
	c0.6,0,0.7-0.1,1.1-0.3c1.8-1.1,1.1-2.7,1-3.1L241.8,186.3l125-182.5c0.3-0.5,0.6-1.1,0.4-2C366.9,0.9,366,0,365.1,0L215.3,0z
	 M96.2,285.2l4.3-2.7c4.6-2.9,9-5,12.7-6c2.9-0.8,4.8-0.6,6.8,0.6c1.8,1,5.8,5.1,3.5,6.5c-1.9,1.8-6.9,3.5-11,3.9
	C107,288,98.6,287,96.2,285.2z M91,276.2l0.9-3.9c0.5-2.2,1-4.6,1.1-5.4c0.3-1.9,1.6-4.4,3-5.7c0.6-0.6,1.8-1.3,2.6-1.7
	c1.3-0.6,1.9-0.6,4-0.6c2.2,0.1,2.6,0.2,4.2,1c1.8,1,3.9,3.1,3.9,3.9c-0.1,1.8-3.3,5-11,11.1l-5.5,4.3C93.5,278,91.9,276.6,91,276.2
	z M78.7,271.5c-0.4,0.1-0.9-1.5-3.3-10.5c-1.7-6.5-2.1-9-1.8-11.4c0.3-2.3,6.1-2.2,7.5-1.4c1.9,1,4.4,3.8,5.4,5.9
	c1.5,3.4,1.8,8.1,0.6,11.7c-0.3,1.1-1.4,5.6-1.9,7.5C84,271.4,79.8,271.3,78.7,271.5z M113.2,270.5c1.3-1.8,3.4-5.5,3.1-8l1.3-0.6
	c2.8-1.3,6.2-0.2,7.4,2.4c0.5,1,0.4,2.7-0.2,4c-0.5,1-2.6,3.2-3.1,3.2C119.8,270.3,115.5,270.2,113.2,270.5z M92.6,255.4
	c-0.5-2-2-5.8-3.1-7.1c-0.6-0.7-0.6-0.9-0.5-2.1c0.4-3.1,3.2-4.6,6.5-3.4c2.2,0.8,4.8,6.7,5,10.2C98.2,252.7,94.5,254.4,92.6,255.4z
	 M106.9,253.8c-0.3-0.3,1.7-3.4,2.7-4c0.8-0.5,1.2-0.6,2.1-0.4c1.7,0.2,2.6,1.3,2.5,2.8c-0.1,1.2-1.5,4.5-2,4.5
	C111.1,254.7,107,253.9,106.9,253.8z M56.8,467c-4-7-8.6-13.3-14.3-20c-9.6-11.1-14.9-18.8-16.1-23.2c-1.4-5.2-1.1-9.5,0.6-10.5
	c1.8-1,6.3,0.9,10.6,4.4c4.6,3.8,10.9,13.6,14.3,22.6c3,7.9,5.6,17.4,5.9,22c0.2,2.8,0.2,6.2,0,6.2C57.7,468.5,57.3,467.8,56.8,467z
	 M64.4,427.5c1.5-17.3,3.9-24.4,8.8-37.3c1.5-4.1,4.4-10.3,6.6-14.3c3.7-6.8,9-14.1,11.7-16.3c0.5-0.3,1.1-0.1,1.2,0.6
	c0.1,5.5-1.1,11.2-7.3,28.6c-3.9,10.9-6.6,17.1-13.1,30.6c-2,4.2-4.1,8.5-4.7,9.7C65.7,432.2,64.3,429.5,64.4,427.5z M58.6,369.4
	c0.2-1.2,0.9-5.4,1.5-9.4c0.6-4,1.4-8.3,1.8-9.5c1.4-5.1,4.5-12.5,6.6-15.8c2.2-3.4,5.1-6.2,6-5.8c0.9,0.5,0.7,5.2-0.4,9
	c-1.3,4.5-4.4,12.5-7.2,18.2c-3.2,6.7-8.1,15.5-8.6,15.4C58.3,371.5,58.4,370.7,58.6,369.4z M41.6,341.9c-3.3-5.5-4.7-9-10.2-25.3
	c-2.5-7.5-4.6-16.9-5.3-23.4c-0.3-3.1-0.1-9.2,0.4-9.2c0.6,0.1,2.7,2.4,4,4.4c4.4,6.8,7,12.8,10.5,24.5c3,10.1,4.5,16.1,6,24.7
	c0.9,5.2,2.3,14.7,2.3,15.2C49.2,353.3,43.9,345.7,41.6,341.9z M90,200.2c3.1-4.1,14.1-17.1,20.2-23.7c9.2-10.1,14.4-15.5,22.8-19.6
	c3.6-1.7,7.5-2.1,10.1-1.8c3.7,0.3,5,1.9,4.4,5.3c-1,5.9-7.4,12.9-18.6,20.5c-8,5.4-17.8,11-25.7,14.6c-3.7,1.7-13.2,5.6-13.7,5.6
	C89.4,201.2,89.7,200.8,90,200.2z M79.3,195.2c-0.5-1.2-2.3-5.1-4.1-8.7c-10.2-21.2-13.1-29.2-13.8-38.5c-0.3-4.6,0.5-13.8,1.5-16.1
	c0.6-1.4,0.7-1.5,1.5-1.4c4,0.4,10.6,12.5,14.8,27.3c2,7.2,3.2,13.7,3.6,21.3c0.2,2.5-1.6,12.7-1.9,14.7c-0.3,2-0.6,3.7-0.6,3.7
	C80.3,197.4,79.8,196.4,79.3,195.2z M91.3,170.3c4.7-25.3,7.5-35.3,14-49.9c5-11.4,8.6-16.8,11.8-18.1c2.1-0.8,3.1-0.1,3.6,2.6
	c1.7,9.1-3.6,28.7-13.6,50.7c-4.3,9.2-11.8,29.6-18.2,35C88.9,185.5,90.2,175.3,91.3,170.3z M53.8,211.6c-0.3,0.7-0.7,1.4-1.1,2
	c-4.2-8-5.9-17-4.9-25.9c0.3-2.5,1.5-5.7,3.6-6.2c5.1,0.6,5.5,5.9,5.6,8.2C57.5,197.2,56.4,204.6,53.8,211.6z M25.2,196.1
	c4.8-0.2,9.4,1.6,12.7,5.1c3.7,4.2,6.7,8.8,9,13.8c-5.8-1.3-11.1-3.8-15.7-7.5c-3.1-2.4-5.5-5.7-6.8-9.4
	C24.1,197.2,24.1,196,25.2,196.1z M39.3,176.8c2,0.2,4.9,3.5,4.1,5.7c-1.7,4.8-2.1,10-1.3,15c-2.8-2.9-6.3-5.1-10.2-6.3
	c-3.3-2.1-4.5-6.3-2.8-9.8C31.6,176.4,36.7,176.3,39.3,176.8z M51.2,271.9c-0.2-1.2-0.7-5.7-1.2-9.9s-1.1-8.7-1.5-10
	c-1.3-5.3-4.2-13.2-6.3-16.7c-2.1-3.6-5.1-6.7-6.1-6.2c-1,0.4-1,5.4,0,9.4c1.2,4.8,4.1,13.3,6.7,19.3c3.1,7.1,7.8,16.5,8.3,16.4
	C51.5,274.1,51.4,273.3,51.2,271.9z M117.2,462.2c3.1-4.2,4.7-6.8,7.6-12.2c3.6-6.9,5.1-11.3,5.2-15.7c0.1-2.3-0.1-2.5-1.5-1.6
	c-3.3,2.2-7.8,8.8-10.7,15.7c-2.7,6.3-4.6,14.6-4,17.2c0.1,0.6,0.2,0.6,0.6,0.2C114.6,465.6,115.9,463.9,117.2,462.2z M104.8,463
	c-3.1-6.8-8.1-12.9-9.9-12c-1.9,1,0,5.4,4,9.1c2.1,1.9,6.8,5.7,7,5.5C105.9,465.6,105.5,464.4,104.8,463z M14.5,343.5
	c3.1,3.5,6.9,6.9,14.5,13.2c6.3,5.3,8.3,6.7,14.3,10.7c2.7,1.8,5.8,3.8,6.8,4.5c1.5,1,1.8,1.2,1.7,0.7c-0.1-0.3-0.8-4.3-4.8-10.4
	c-6.6-10-16.3-21.1-23.9-27.3c-2.7-2.3-5.9-4.4-8.7-6V343.5z M14.5,352.2c3.4,3.2,7.5,6.3,13.3,11c4.8,4,6.1,4.9,13.8,10
	c8.9,5.9,11.9,8.2,12.1,9.3c0.7,4,3.4,32.6,4,43.2c0.4,6.4,0.7,13.4,0.5,13.5c-0.1,0.1-0.7-1.1-1.3-2.7c-1.5-3.7-4.9-10.1-7.4-14
	c-4.9-7.6-11-12.9-17.3-15.2c-4.8-1.7-8.9-0.6-11.3,3.2c-0.7,1.2-2.7,6.6-1,11.4c1.4,7.3,4.8,12.7,17.3,27.6
	c8.3,9.9,12.1,17,11.9,20.4l-34.6,0L14.5,352.2z M133.6,149.3c-9.2,0.7-21.6,16.9-26.4,22.1c-1.7,1.8-3.1,3.4-3.3,3.5
	c-0.1,0.1,1.1-2.3,2.7-5.5c7.1-13.9,11.9-25.5,15.3-36.5c3-9.7,3.6-12.3,4.3-19.4c0.7-6.9,0.6-9.1-0.4-12.3c-2-6.2-8.7-7.4-14.4-2.5
	c-3.1,2.6-6.1,7.6-10.3,16.6c-6.4,13.8-9.5,23.7-13.3,42.6l-1.2,5.9l-0.4-2c-0.8-3.6-2.8-10.4-4.2-14.2c-3.9-10.8-9.1-19.3-13.4-22
	c-6.4-3.9-9.4-0.2-10.9,3.3c-1.6,4-2.6,13.7-1.9,20.3c1,9.9,4.4,19.4,14.4,39.9l7.7,16.4c-3.3,5.6-11.8,21.1-14.5,29.8
	c-2.2-6.8-2.5-7.6-7.5-15.3c1.2-1.5,2.3-3.1,3.2-4.8c3.5-8.2,4.9-17,4.3-25.9c0-3.5-1.1-6.9-3.1-9.8c-2.5-4-7.8-5.4-12-3.3
	c-0.5-1.1-1.2-2.1-2.2-2.9c-4.4-3.4-10.4-4-15.4-1.4c-7.3,3-10.6,11.2-7.5,18.3c-7.7,1.5-6.1,6.6-4.6,10.2c2.8,6.7,8,12.3,14.5,15.7
	c5.1,2.6,10.5,4.5,16.1,5.6c1,2.4,10.4,20.4,5.8,33.8c-0.2-6.1-4.6-16.3-6-19.5c-5.4-11.9-13.3-16.3-17.6-9.9
	c-1.3,1.9-1.6,3.8-1.3,7.9c0.3,4.7,1.6,9.6,5,18.8c3.6,9.8,10.9,24.5,14,28.3c1,2,1.6,5.7,1.2,7.4c-0.4,5.1-1.8,28.3-1.9,28.5
	c-2.6-10.9-5.3-16.7-6.8-20.1c-3.9-9.1-8.7-16.5-12.2-18.7c-4.2-2.6-8-0.9-9.1,4.1c-0.7,3.6-0.3,11.4,1.1,18.4
	c1.5,7.8,2.9,12.8,6.7,23.9l3.3,9.7c-4.1-3.5-12.9-10.6-16.9-13l0-309.4h119.2V149.3z M133.6,445.9c-1,2.7-11.7,23.3-13,23.9h13
	V445.9z M247.8,360.7c-3.7-0.9-7.4-2.6-9.1-4.1c-0.9-0.8-1.6-1.5-1.6-1.7c0-0.4,1.2-0.9,2.5-1c1.5-0.1,4.6,0.8,6.3,1.8
	c1.5,0.9,5.6,4.4,6.1,5.2c0.3,0.5,0.3,0.5-0.9,0.4C250.5,361.3,249,361,247.8,360.7z M263.3,358.3c1.7-2.1,8.6-7.4,9.8-7.5
	c0.4,0-0.5,1.9-1.8,3.6c-1.9,2.5-4.9,4.4-7.4,4.6l-1.2,0.1L263.3,358.3z M259.7,349c0.2-4.1,1.8-12.5,2.6-13.9
	c0.6-1.1,0.3,4.8-0.4,8.4c-0.4,1.8-2,7.1-2.1,7.1C259.7,350.6,259.7,349.9,259.7,349z M236.7,327.3c-2.5-1.7-4.9-4.6-5.7-5.9
	c-0.6-1-0.3-1,1.7,0.1c3.6,1.9,8,5.6,9.5,8c0.5,0.7,0.4,1.5-1.4,0.5C239.9,329.4,238,328.2,236.7,327.3z M251.6,325.6
	c-0.8-3.6-0.5-8.5,0.8-12.1c0.6-1.7,2.1-4,3.1-4.8l0.8-0.7l0,2.6c0,4.5-0.9,9.4-2.8,14.6c-0.6,1.6-1.2,2.9-1.3,2.8
	C252.2,328,251.9,326.9,251.6,325.6z M236.6,312.9c-1.1-1.9-2-4.5-1.8-5.1c0.1-0.4,2.2,2.4,3.9,5.3c1.3,2.2,4.2,7.9,4.2,8.3
	C243,322,237.6,314.7,236.6,312.9z M245.6,288.9c1.2-3.3,3.4-6.8,5.2-8.1c1.5-1.1,1.7-0.9,1.5,1.3c-0.2,1.9-0.6,2.8-1.8,4.4
	c-1.4,1.7-3.3,3.2-5.3,3.9C245.1,290.4,245.3,289.7,245.6,288.9z M229.5,290.1c-3.1-0.2-5.2-0.7-7.7-1.7c-3.5-1.4-7-4.5-6-5.3
	c0.8-0.6,5.5,0.2,9.5,1.5c3.6,1.2,9.5,4.3,9.6,5C235,290.1,232.1,290.3,229.5,290.1z M240,274.5c0-4.5,0.2-7.8,0.9-11.6
	c0.3-1.5,0.6-0.1,0.9,3.3c0.3,3.9,0.1,7.4-0.6,12.1c-0.4,2.4-0.5,2.7-0.7,2.2C240.1,280,240,278.1,240,274.5z M216,260.8
	c-3.5-0.8-5.6-1.5-7.3-2.5c-1.6-1-4.3-3.1-4.4-3.4c-0.1-0.8,4.3,0.1,7.4,1.6c1.5,0.7,6.5,3.8,7.6,4.7
	C220,261.6,219.2,261.5,216,260.8z M224,252.2c-0.9-1.9-1-2.2-1.3-5.9c-0.1-2.2-0.2-4.8-0.1-5.9c0.3-3.2,1.6-7.2,2.3-7.3
	c0.1,0,0.5,0.7,0.8,1.5c0.5,1.3,0.7,2.5,1,7.1c0.3,5.3,0.3,5.7-0.3,9c-0.9,4.4-0.8,4.3-1.2,3.8C225.2,254.4,224.6,253.3,224,252.2z
	 M201.1,232.9c-2.5-1-3.5-1.6-4.4-2.5c-0.7-0.7-1.2-1.3-1.2-1.4c0-0.4,2,0.2,3.8,1c1.5,0.7,5.7,3.6,6.2,4.3
	C205.7,234.7,204.6,234.3,201.1,232.9z M208.8,220.4c-0.7-5.2-0.7-10.4,0.1-10.5c0.9-0.1,1.9,4.9,1.7,8.6c-0.1,3.1-0.7,6.8-1,6.5
	C209.5,224.9,209.1,222.8,208.8,220.4z M191.5,205.6c-1.3-1.1-3-4-4.2-6.9c-1.3-3.2-1.1-3.4,1.3-1.2c1.8,1.6,2.8,3.1,4.1,6.2
	c0.7,1.6,0.8,2.2,0.6,2.5C192.9,206.7,192.7,206.7,191.5,205.6z M268.4,454.5c0.8-3.5,1.5-11,1.5-14c-0.1-4-0.6-6.9-1.7-9.8
	c-1.1-2.8-3.4-5.4-4.1-4.1c-0.5,0.9-0.7,3.5-0.5,6.3c0.2,3.1,1.7,13.1,2.9,18.9c0.5,2.6,1,5,1,5.2
	C267.6,457.9,267.8,457.2,268.4,454.5z M256.6,457.6c-5.3-6.3-10.5-11.3-14.7-14.4c-2.9-2.2-6.5-4.3-6.5-3.9c0,0.8,6.1,7.1,11.5,12
	c3.3,2.9,11.9,9.6,11.9,9.1C258.8,460.3,257.8,459,256.6,457.6z M244.7,419.2c0.7-0.5,1.6-1.4,1.9-1.9c0.5-0.9,0.5-1,0-1.5
	c-0.3-0.3-2-1.3-3.7-2.2c-3.1-1.7-3.1-1.7-4-1.2c-2,1.2-1.9,1.1-0.6,5.1c1.3,3.9,1.5,4.1,3.5,3.3
	C242.7,420.4,243.9,419.7,244.7,419.2z M225.3,417.4c0.7-0.5,1.4-1.2,1.7-1.6c1-1.4,2.4-4.4,2.3-4.8c-0.3-0.8-9.6-2.7-10.9-2.2
	c-0.7,0.3,0,3.9,1.3,6.6c1.3,2.9,1.6,3.2,2.6,3.2C223.4,418.6,224,418.4,225.3,417.4z M249.5,402.3c0-0.4-0.7-2-1.4-3.6
	c-1-2.4-1.5-3.1-2.3-3.9c-1.2-1.1-1.8-1.1-3.1,0.4c-0.9,1-3.5,6.8-3.3,7.3c0.2,0.5,1.2,0.7,4.6,0.9
	C248.8,403.7,249.7,403.5,249.5,402.3z M229.9,402.8c1-1.1,0.9-1.7-0.8-6.2c-1.5-3.8-1.9-4.3-3.6-4.1c-1.8,0.2-3.3,1.1-3.6,2.2
	c-0.3,0.9-0.3,1.1,0.5,2.7c0.5,1,1.3,2.2,1.9,2.8c1,1,4.6,3.6,4.8,3.6C229.1,403.8,229.5,403.3,229.9,402.8z M70.1,462.4
	c3.2-3.6,4.9-5.8,8.1-10.5c4-6,5.7-9.9,6.2-13.9c0.3-2.1,0.1-2.3-1.2-1.6c-3.2,1.8-7.9,7.4-11.3,13.5c-3,5.5-5.6,13-5.3,15.4
	c0.1,0.6,0.1,0.6,0.6,0.2C67.4,465.2,68.7,463.9,70.1,462.4z M286.1,462.4c3.3-6.7,8.5-12.6,10.2-11.7c1.9,1-0.2,5.4-4.3,9
	c-2.1,1.9-6.9,5.5-7.1,5.4C285,465,285.5,463.8,286.1,462.4z M299.9,437.4c0.9-0.4,1.5-1.9,1.4-3.6c-0.2-2.5-2.6-8.3-3.6-8.5
	c-1.1-0.2-2.8,4.6-2.5,7.3c0.2,1.6,0.8,3.1,1.6,3.8C297.7,437.3,299.1,437.8,299.9,437.4z M288.2,420.5c1.7,0.3,2.8,0.1,3.3,0
	c-0.3-3.8-8.5-11.3-11.7-9.5c-1.1,0.9,0.7,5.4,3,7.4C283.9,419.3,286.4,420.3,288.2,420.5z M316.1,421c0.6-0.5,0.6-0.7,0.5-1.6
	c-0.2-1.2-1.8-3.4-3.2-4.2c-2-1.1-4.7-0.9-7.8,0.7c-2.3,1.2-2.3,2.4-2.1,3.7c0.1,0.3,3.5,1.9,4.8,2.3
	C312.2,423.1,315.3,421.7,316.1,421z M299.2,411.4c1.8-5.3,1.8-7.7,0-9.7c-2.3-2.6-3.9-2.6-4.9,0.1c-0.7,1.8-0.9,4.2-0.5,7.4
	c0.2,2,1.3,6.6,1.6,6.7C296.3,416,298.3,413.8,299.2,411.4z M257.9,469.8c-4.4-3.9-12.3-12-17.3-16.8c-8.9-8.5-13.4-14.7-13.1-18.2
	c0.2-2.2,2-3.7,4.1-3.5c2.3,0.2,10.1,4.5,14.7,8c2.8,2.2,4,3.2,7.3,6.6l2.8,2.8l-1.1-2.2c-3.8-7.9-8.2-16.4-9.9-18.8
	c-1.2-1.7-1.4-1.8-2.9-1.4c-2.9,0.7-4.9,0.2-6.8-1.7c-0.9-0.9-1.3-1.5-2.2-3.9c-0.6-1.6-1.2-2.8-1.2-2.8c0,0-0.4,0.5-0.8,1
	c-1.9,2.6-6,5.1-8.9,5.2c-2,0.1-4.5-0.9-5.7-2.2c-1.2-1.3-3.6-6.9-4.1-9.5c-0.4-2.1-0.3-5,0.3-6.2c0.9-1.7,2.9-3.1,4.9-3.1
	c0.5,0,0.9-0.1,1-0.2c0-0.1-0.4-0.8-1-1.6c-2.8-4-2.4-9,0.8-11.8c1.3-1.1,4.3-2.4,6.2-2.6c2.6-0.3,5,0.6,6.8,2.6
	c0.4,0.4,1.4,2.3,2.2,4.1l1.5,3.4l1.1-2.3c1.8-3.7,4.2-5.9,6.9-6.3c3.8-0.6,7.3,2.2,9.8,7.6c1.2,2.6,2,5.8,1.9,7.3
	c-0.3,2.9-2.1,4.8-5.2,5.5c-1,0.2-2.1,0.4-2.5,0.4c-0.7,0-0.7,0,0.6,0.9c3.2,2,4.8,4.3,4.6,6.8c-0.1,1.5-1.4,3.9-2.7,5.2
	c-1.1,1.1-1.1,1.2-0.3,2c0.9,1,3.7,5.9,6,10.4c3.3,6.5,3.2,6.4,2.7,2.8c-1-7.8-1.6-16.3,4.3-17.2c-2-18.7-1.6-24.4-4.5-39.3
	c-0.3-1.8-1-5.4-1.4-8c-1.1-6.8-0.8-6.2-3.1-6.1c-3.5,0.2-10.8-1.6-14.9-3.7c-3.5-1.8-6.2-4.6-6.9-7.1c-0.8-3.1,2-6.3,6.2-7
	c3.5-0.6,8.6,1,12.6,4.1c1.3,1,2.4,1.7,2.4,1.5c0-0.3-3.1-13.3-3.3-14.2c-0.1-0.4-1.4-1.2-3.9-2.4c-14.1-7-20.6-12.5-21-17.7
	c-0.5-4,3.4-5.8,7.1-4.5l-0.5-0.8c-1.9-3.1-3-9.6-1.9-11.7c1.9-3.9,6.1-2.7,11,3.2c-0.5-2.6-2.6-8.4-3.8-11.4l-3.6,0.2
	c-6.2,0.3-11.7-0.8-16.1-3.2c-4.2-2.4-6.9-5.7-7.1-8.7c-0.2-3.3,2-5.2,6.3-5.5c3-0.2,10.5,1.1,15,2.9c-1.1-4-4.3-10.9-6-14.1
	l-2.3,0.2c-3.5,0.2-10.5-1.1-14.6-2.8c-4.4-1.9-8.7-5.5-9.8-8.3c-1.2-3.2,1.3-6,5.6-6.3c2.7-0.2,8.5,1.7,12.3,3.9
	c1,0.6,1.8,0.9,1.8,0.8c0.1-0.5-0.7-2.1-4-8l-3.3-5.9l-2.2,0c-2.8,0-4.4-0.3-7.9-1.5c-3.8-1.3-5.3-2.1-7.4-3.8
	c-3.3-2.7-4.8-6.6-3.5-8.7c1-1.6,3.7-5.3,12.1-0.5l-6.9-11.5c-2.3-0.3-6.8-2.9-9.1-6.3c-2.8-3.7-5.4-9.9-5.3-12.7
	c0.1-2.5,1.8-4.1,4.5-4.3c3.6-0.2,8.3,3.6,10.8,8.7c1.2,2.4,4.4,9.5,3.6,12l3,5.2l0-2.6c0.1-5.7,1.7-9.3,4.6-10
	c2.2-0.5,5.1,1.4,6.4,4.3c2.3,5.1,2.3,12.2-0.1,21.1c-0.4,1.7-0.8,3.2-0.8,3.5c0,0.5,3.9,7.2,4.1,7.1c0.1,0,0.3-0.8,0.4-1.8
	c0.6-4.4,2.5-8.5,4.5-9.9c1-0.7,1.5-0.8,2.7-0.8c4.2,0.1,6.4,4.5,7,13.8c0.4,5.5,0.2,6.7-1.6,15.2l-1.3,5.8
	c1.4,2.7,3.4,5.8,5.4,11.9c0-0.1,0.1-1.5,0.2-3.2c0.2-5.2,0.9-9.6,2-12.4c0.9-2.2,2.3-3.4,4-3.5c2.1-0.1,5.2,0.7,6.1,9.2
	c0.2,3.7,0.9,9-0.3,13.1c4.4-3.5,7-2.7,7.7-2.4c1.8,0.7,2.7,2.3,3,4.9c0.5,3.8-0.8,7.4-3.9,10.8c-2.3,2.5-6.3,5-10.3,5.9
	c0,0.2,3.6,10.5,4.5,14.3c1.5-3.8,3.8-5.9,5.4-6.8c1.9-1.2,3.3-1.5,4.8-0.9c3.6,1.3,4.5,6,2.8,15.3c-0.8,4.5-1.4,6.2-4.1,13.1
	c-2.1,5.3-2.1,5.3-1.8,6.9c0.2,0.9,0.4,1.6,0.5,1.7c0.1,0.1,0.4-0.9,0.7-2.2c1-4.6,2.7-7.8,4.8-9c1.4-0.8,2.2-0.8,3.7-0.2
	c1,0.4,1.4,0.8,2.1,1.9c0.8,1.3,0.9,1.6,1,4.6c0.2,3.6-0.2,7.3-1.3,11.3l-0.7,2.5l2.6-1.5c4.8-2.8,7.9-2.9,9.5-0.3
	c1.6,2.7,0.4,7-3.3,11.2c-3.3,3.8-7.4,5.9-11.7,5.9l-2.1,0l0.3,2.4c0.5,3.4,1.2,7.8,2.2,13.1c3.2,17.5,3.9,20.5,6.3,42.6
	c1.9,1.7,3.8,5.5,4.8,9.8c1.2,4.8,2,14.9,1.1,22.2c1-3.2,3.3-10.5,4.8-14c2.2-5.9,4.2-10,6-12.6c0.7-0.9,1.2-1.7,1.2-1.8
	c-2.8-0.3-6.6-1.9-8.2-3.3c-2.9-2.5-5.3-7-5.5-10.3c-0.1-1.8,0.7-4.1,1.7-5.2c0.9-0.9,2.9-1.8,4.3-1.9c1.6-0.1,5.2,1.3,7,2.7
	c0.7,0.5,1.2,0.9,1.2,0.8c0,0,0-0.8,0-1.8c-0.2-4,0.8-7.8,2.7-10.2c0.9-1.2,4.3-2.7,5.8-2.5c3.8,0.4,7.8,3.7,9,7.4
	c0.6,1.9,0.7,4.2,0.3,6.4l-0.3,1.8l1.2-0.4c5.9-1.8,12,1,14.6,6.7c1.1,2.5,0.6,7.2-1.5,9c-2.8,2.4-8.9,3.4-13,2.1l-1.9-0.6l0.7,1.6
	c0.7,1.8,1.3,4.4,1.3,5.9c0,1.7-0.6,3.9-1.5,5.4c-4,6.5-13.6,3.5-15.5-4.7l-0.3-1.6c-3.3,7-7,17-8.3,22.8c1.5-0.7,4-3.4,4.9-4.5
	c3.1-4,6.3-6.3,9.1-6.6c2.8-0.3,5,1,6.4,3.4c4.3,7.2-8.3,19.5-11.7,21.3h61.5L228.4,184.9L346.9,12.1h-126l-79.4,136
	c16.2,1.8,12.1,13.9,11.1,16.6c-1.5,3.9-5.5,9-10.5,13.6c-5.8,5.3-20.4,14.6-31.8,20.4c-9.3,4.7-22.7,10-24.8,9.7
	c-0.7-0.1-2.5-0.2-4.9,4.2c-3.6,6.7-5,9.7-6.8,14c-2.7,6.6-8.3,20-10.7,28.8c-2.1,9-4.3,16.3-6.6,32.8c-1.8,11.5-2.5,26.2-1.9,39.6
	c2.5-6.5,4.8-17.6,22.3-39.2c-1.5-1.7-2.5-6.9-1.9-10c0.2-1.1,0.1-1.5-1-4c-1.2-2.8-3.2-9.6-5-17.8c-0.8-3.8-0.9-7.6-0.2-10.4
	c0.7-2.6,3.1-4.8,5.8-5.3c2.8-0.5,7.6,0.5,9.6,1.9c0.8-4.8,6.5-6.2,9.8-6.2c6-0.1,10.1,5.8,11.2,9.3c2.3-2.5,8.3-3.6,12.6,0
	c1.1,1,1.6,1.8,2,2.9c0.5,1.6,0.6,4,0.1,5.5c-0.3,0.9-0.3,0.9,0.7,0.9c1.4,0.1,4.2,0.9,5.4,1.5c1.5,0.9,3.6,3,4.3,4.5
	c1.9,3.8,1,8.8-2.2,12.1l-1.2,1.3l1.1,1.3c2.5,2.9,3.1,4.9,2.5,7.3c-1.1,4-6.4,7.5-13.8,9c-4.7,1-15.3,0.4-19.5-1.1
	c-1.6-0.6-1.8-0.6-2.7-0.2c-3,0.9-8.7,1.1-11.5-0.3c-13.2,14.5-19.9,29.5-25.6,55.2c1.2-3.7,3.2-8.6,4.8-11.8
	c5.9-11.7,14-15.8,18-9.2c1.2,2,1.4,3.9,1,8c-0.5,4.7-2,9.5-5.8,18.6c-4,9.6-11.9,24.1-15.1,27.8c-0.7,1.6,1.4,12.9,2.1,22.4
	c1.2-4.8,7-20,14.1-32.3c5.6-9.7,11.9-17.3,15.7-18.7c3.3-1.3,6.2,0.6,7,4.3c0.4,2-0.7,11.3-1.9,16.1c-2.3,9.4-2.7,9.9-6.8,21.1
	c-4.5,12.3-7,18.1-16.6,37.8c-3.8,7.9-4.9,11.9-7,17.4c2.5-4.9,7.8-11.6,11.6-14.5c3.2-2.5,19.4-12.4,8.5,15.8
	c-1.3,2.6-9.5,17.3-12.1,20.8l27.9,0c-3.3-2-5.8-4.2-8.5-7c-5.1-5.4-6.5-10.2-4.2-14.2c1.4-2.4,3.7-3.6,6.5-3.3
	c2.8,0.3,6,2.7,8.9,6.8c0.8,1.2,1.6,2.1,1.6,2c0,0-0.1-2.4-0.3-5.1c-0.6-6.7-0.4-12.2,0.5-16.9c0.4-2,0.7-3.7,0.7-3.8
	c-1.9-2.4-6-5-8-6.7c-0.9,2.4-6.3,2.1-7.8-2.2c-0.7-1.7-0.2-3.2,1.5-5.1c1.9-2.2,7-2.2,7.1,1.4c0.2,0.5,3.8,3.7,7,4.7
	c0.2-0.2-5.2-17.5-5.6-17.6c-3.9,1-5.2-3.4-5.2-4.5c0-1.2,0.7-2.4,2.2-3.9c2.3-2.3,4.6-2.4,6.7-0.2c1.5,1.5,2.3,3.7,1.1,5.6
	c0.5,2.3,3.2,9.6,3.3,9.5c1-3.5,1.8-10.7,2-14.3l-0.8-1.1c-2-2.7-1.6-6.2,1.1-8.1c0.6-0.4,1.2-0.5,2.8-0.5c1.7,0,2.1,0.1,2.9,0.8
	c1.1,0.9,2.6,3.8,2.5,5c0,1.4-0.6,4.3-3.7,5.6c-0.3,1.3-0.7,11.2-1.2,12.7c0.3,0,3.6-5.1,3.5-5.5c-0.3-2,1.7-4.4,4-5
	c1.6-0.4,2.7-0.1,4.1,1.3c3.8,4.6,0.9,9.9-4.8,8.6c-5.6,5.6-9.4,17.9-10,24.3c-0.5,3.7-0.7,5.5-0.6,8.7c0,2.3,0.1,4.5,0.3,4.9
	c0.2,0.8,0.2,0.7,0.9-0.9c2.1-5.3,6.8-12.5,10.3-15.9c4.8-5.7,8.7-5,10.7-2.9V314.2l21.4-30.9l71.5,186.5H257.9z"/>
<path class="st1" d="M1415.4,0c-1.2,0-2.1,1.2-2.1,2.4v173L1341,1.5c-0.3-0.8-1.1-1.4-2-1.5h-141.5c-1.3,0.1-2.2,1.1-2.2,2.4v477.2
	c0,1.3,1.1,2.3,2.3,2.3H1314c1.2-0.1,2.2-1,2.2-2.2l0-219.6l93.1,220.3c0.3,0.8,1.1,1.4,2,1.4H1532c1.3-0.1,2.2-1.1,2.2-2.4V2.3
	c0-1.3-1.1-2.3-2.3-2.3L1415.4,0z M1447.9,463.2c3.4-5.2,6.2-18.6,5.7-24.6c-0.5-6.1-0.1-6.3-4.7,2.9c-4.4,9-5.8,12.6-6.6,18
	c-0.3,1.8-0.9,9.4-0.9,9.5C1442.5,468.7,1446.8,464.8,1447.9,463.2z M1433.4,457c-1-4.3-3.7-10.6-6.8-16c-1.5-2.5-5.2-8-5.4-8
	c-0.4,0,1.1,8.7,2,11.6c1.8,5.6,6.3,18.9,11,25.2C1436.8,467.6,1434.3,460.7,1433.4,457z M1422.9,415.4c1.5-2.3,2.1-9.2,1.2-14.1
	c-0.6-3.1-2.5-8.7-2.5-7.3c0,0.5-0.3,2.1-0.6,3.7c-1.5,6.8-1.4,13.5,0.4,17.3C1421.9,416.3,1422.2,416.4,1422.9,415.4z
	 M1446.3,411.7c0-1.1-1.8-4.3-3.7-6.7c-2.4-2.9-5.8-6.2-10.1-9.5c-2-1.5-3.9-3-4.2-3.3c-0.7-0.6,2.6,4.3,5.5,8.2
	c3.4,4.5,8.3,9.6,10.8,11.3C1446.1,412.7,1446.3,412.7,1446.3,411.7z M1405.4,410c2.3-1.2,7.5-9.4,9.7-15.3c0.3-0.9,0.6-1.5-0.9,0
	c-3.9,3.7-5,4.8-6.4,6.8c-2.2,3.1-2.9,4.4-3.4,6.3c-0.4,1.4-0.3,2.6,0.1,2.6C1404.6,410.4,1405,410.2,1405.4,410z M1396.3,398.8
	c2.8-0.6,10.1-4.7,13.2-7.4l1.6-1.4c-2.4-0.5-7.3-0.5-9.8,0.1c-2.6,0.5-4.1,1.2-6.6,2.9C1389.3,396.6,1390.2,400.1,1396.3,398.8z
	 M1450.7,395c-2.6-2-6.4-4.1-8.9-5.1c-2.3-0.9-8.4-2.4-8.9-2.3c-0.7,0.3,9.3,5.6,13.4,7.1c1.5,0.5,5.5,1.7,6,1.8
	C1452.8,396.5,1451.7,395.7,1450.7,395z M1475.2,396.2c-0.6-9.9-2-16.1-7.2-32.9c-1.9-6.1-3.7-11.9-3.9-12.8c-0.5-2-0.5-2.3-0.7,5.6
	c-0.5,16-0.2,19.6,2.4,27.4c1.8,5.6,3.6,9.3,8.1,16.8c1.5,2.5,1.5,2.5,1.5,1.1C1475.5,400.6,1475.4,398.2,1475.2,396.2z
	 M1491.2,383.4c2.8-4.4,4.6-8.4,8.8-19.4c4.3-11.4,6.7-16.7,9.1-20.6c2.4-3.7,2.3-3.7-0.3-1.4c-9.2,8-15,17-20.2,31.1
	c-0.8,2.2-3.5,17.9-3.2,18.7C1485.5,392,1488.4,387.9,1491.2,383.4z M1501.5,306.3c0.9-0.8,3.3-3.9,5.4-6.8
	c4.5-6.2,8.6-11.6,12.7-16.8c1.7-2.1,2-2.4,2.4-3.4c-0.1,0-1.4,0.8-3.5,2.5c-6,4.8-11.2,11.3-15.3,19c-1.2,2.3-2.5,4.8-3,5.7
	C1499.2,308.3,1499.4,308.3,1501.5,306.3z M1461.9,296.6c-0.3-1.9-1.5-7.1-2.7-11.6c-2-7.8-4.2-17.6-4.3-19.5
	c-0.1-2.2-0.5,2.1-0.5,6.9c-0.2,10,1.9,18.8,6.9,28.5l1.6,3.1C1462.8,302.6,1462.5,299.2,1461.9,296.6z M1514.6,254.1
	c2.8-3.6,4.4-6.9,4.9-9.9c0.3-1.9-1.1-1.6-4.6,3.8c-3.2,5-5.5,8.8-3.8,9.9C1511.6,257.8,1513.1,256.1,1514.6,254.1z M1504.8,255.1
	c0.5-3.4,0.9-10.5,0.5-11.4c-0.1-0.3-7.4-3.6-7.6-1.3c-0.2,0.5,0.7,5,1.6,7.3c1.2,3.1,4.3,8.8,4.7,8.7
	C1504.2,258.3,1504.6,256.8,1504.8,255.1z M1429.3,285.3c0-0.1-3.3-1.4-7.2-2.9c-3.9-1.5-7.8-3-8.6-3.3c-3.6-0.8-3.1,5.5-0.7,6.4
	c3.9,1.4,9.8,1.4,16.2,0.1C1429.2,285.5,1429.4,285.4,1429.3,285.3z M1433.8,266.5c-0.7-3.8-1.5-7.8-1.9-8.9c-0.7-1.8-1-2.1-3.2-3.1
	c-1.3-0.6-4.6-2.7-7.3-4.6c-6.1-4.3-7-4.8-7.2-3.7c-0.2,1.1,1.5,5.3,3.5,8.6c1,1.6,3.5,5,5.6,7.5l12.3,14.8L1433.8,266.5z
	 M1421.8,270.5c-6.9-7.9-10.6-11.6-13.1-13.3c-1.1-0.8-2.9-0.8-3.8-0.1c-1.3,1-1.6,1.4-1.3,2.4c0.4,1.7,3.6,5.7,6.2,7.7
	c2.2,1.7,16.9,9.9,17.1,9.5C1426.9,276.5,1424.6,273.8,1421.8,270.5z M1513.5,236.2c-0.1-2.5-0.3-4.9-0.5-5.5
	c-0.3-0.8-0.6-0.9-1.8-0.4c-1.8,0.7-2.6,1.5-3.8,4.1c-0.7,1.2-0.1,2.5,1,2.8c1.9,0.8,2,0.8,2.7,3.6c0.4,2.5,1.2,2.4,1.6,1.3
	C1513.4,241,1513.5,239.7,1513.5,236.2z M1476.4,218.9c1.1-3.2,1.2-5.5,0.8-11.7c-0.7-9.3-0.6-11.1,1.7-25.5
	c0.6-3.6,1.2-8.7,1.3-11.3c0.1-2.6,0.4-6.2,0.5-8l0.4-3.3l-2.1,3.7c-3.6,6.3-5.8,12.7-6.5,19c-0.5,4.3-0.3,19.9,0.3,25.7
	c0.3,3.3,1.8,12.9,2.1,13.7C1475.1,221.8,1475.8,220.8,1476.4,218.9z M1466,215c-2.2-3.6-7-9.5-12.3-20.6c-1.5-3.2-3.4-8-4.9-12.4
	c-2.5-7.5-4.3-11.5-8.1-17.8c-1.1-1.8-2.1-3.3-2.4-3.4c-0.2-0.1-0.1,1.9,0.4,4.5c2.5,14.6,6,24.2,14,37.9c4.1,7,5.6,9.2,9.1,13.1
	c2.3,2.6,4.1,5,6.2,5.8C1468,222.1,1467.3,217.1,1466,215z M1461,144.8c1.4-3.2,1.5-5.9,0.4-8.8c-0.9-2.3-3.5-7.5-5.1-10.1l-0.7-1.1
	l-0.2,1.2c-0.2,2,0.4,7.4,1.5,13.2c0.5,2.3,1.3,7.1,1.4,9.6C1459,148,1460.4,146.1,1461,144.8z M1451.3,143.7
	c-0.5-2.4-0.9-3.5-2-5.2c-1.8-2.8-10.9-14-11.2-13.8c-0.4,0.2-0.5,2.2,0,4.2c0.3,1.2,1.2,3.2,2.8,5.8c2.9,4.6,10.7,13.8,10.9,12.8
	C1451.9,147.1,1451.7,145.4,1451.3,143.7z M1522.5,289v180.8h-39.4c-2.2-21.9-3.4-31.7-2.1-49c1-13,1.4-15.2,3.7-17.7
	c3.7-4.2,12.1-16.5,14.8-21.8c0.8-1.5,2.7-6.3,4.3-10.6c4.8-12.8,6.5-17.1,8.9-21.3c2.7-4.8,7.9-16.4,4.3-18.2
	c-3.3-0.3-7,1.6-11.4,5.4c-4.5,3.9-10.9,9.6-14.8,16.5c1.9-8,1.3-11.8,1.4-15.1c0.4-9.3,0.8-16.7,3.6-20.3c0.6,0.1,5-2.9,8.2-5.6
	c1.7-1.5,4.1-4.1,5.5-6.1C1512.4,302.2,1516.9,296.3,1522.5,289z M1522.5,254.2v16.7c-5,3.6-11.4,8.9-14.3,12.1l-3.3,3.7l0.7-2.9
	c0.4-1.6,1.1-5.4,1.7-8.5c1.2-6.3,1.8-7.4,6.3-11.3C1519.2,259.1,1520.4,257.1,1522.5,254.2z M1389.8,404c1.6,0.5,4.8,1.4,9.8-0.3
	c0,0-0.2,0.7-0.5,1.6c-0.9,2.2-0.8,6.2,0.1,7.8c1.4,2.5,4.8,3.4,8.1,2.1c1.9-0.7,4.1-2.6,5.6-4.9l1.1-1.6c0.2,3,0.1,9,5.3,12.2
	c7,3.4,10.2-5.9,10.2-6.6c0.7,1.4,0.8,1.5,1.9,5.3c1,3.6,2.3,9.8,2.9,14.7c0.4,2.7,1,10,0.8,10.2c0,0-1.1-1.8-2.3-4.1
	c-1.3-2.3-3.4-5.7-4.8-7.6c-2.8-4-7.8-9.5-9-10c-1.1-0.5-2.7,0-3.5,1.1c-0.6,0.7-0.6,0.9-0.3,6.2c0.4,8.6,0.7,14.7,2.8,20.5
	c2,5.5,4.7,15.1,7.5,19.3h-7.9L1389.8,404z M1380.3,321.9c0.1-0.2,0.7-1.6,1.4-3c1.7-3.5,5-12.1,5.7-14.7c0.6-2.4,0.6-4.7-0.2-7.3
	c-0.6-2.3-0.5-3,0.6-3.6c1.1-0.6,1.5-0.2,3.1,2.8c0.8,1.6,1.9,3.1,3.1,4.3c1.7,1.8,1.8,1.8,1.6,2.9c-0.3,1.7-2.7,6.1-4.8,8.6
	c-1.5,1.8-9.4,9.6-10.3,10.1C1380.3,322.3,1380.2,322.2,1380.3,321.9z M1373.7,318.7c-2.8-6.5-2.6-10,1.2-19.6
	c1.5-3.8,2.8-7.1,2.9-7.2c0.3-0.3,3.1,2.7,3.8,4.2c1.1,2.1,1.4,4.8,0.8,7c-0.8,3.2-6.7,17.8-7.4,18.2
	C1374.9,321.4,1374.4,320.2,1373.7,318.7z M1363.6,315.4c-2-2.4-3.1-4.9-3.3-7.2c-0.2-2,0.7-4.8,1.8-6c0.8-0.9,1-0.9,1.7-0.6
	c0.4,0.2,0.8,0.7,0.9,1.1c0.1,0.4,0.5,1.7,0.9,3c0.4,1.2,0.8,2.8,0.8,3.4c0.8,5.7,1.1,7.6,1.9,9.9l0.9,2.7l-2-2
	C1366.3,318.6,1364.6,316.7,1363.6,315.4z M1376.7,373.1c1.3-8.3,2.9-12.5,8.7-24.7c1.6-3.5,3.3-7.1,3.8-8.2c0.9-2,0.7,0.3,0.8,1.1
	c-0.1,7.3-2.4,16.8-8.1,33.3c-0.7,2.1-1.4,4-2,5.8L1376.7,373.1z M1309.3,239.3l4.1-3c4.4-3.2,8.7-5.6,12.3-6.8c2.9-1,4.7-1,6.9,0.1
	c1.8,0.9,6.2,4.7,3.9,6.3c-1.8,1.9-6.6,4-10.8,4.6C1320.3,241.4,1311.9,241,1309.3,239.3z M1303.6,230.7l0.6-4
	c0.3-2.2,0.7-4.6,0.7-5.5c0.2-1.9,1.3-4.5,2.6-5.9c0.5-0.6,1.7-1.4,2.5-1.8c1.3-0.6,1.9-0.8,4-0.8c2.2-0.1,2.6,0,4.3,0.8
	c1.9,0.8,4.1,2.8,4.2,3.6c0,1.8-3,5.3-10.3,11.8l-5.2,4.6C1306.2,232.3,1304.5,231,1303.6,230.7z M1291,226.8c-0.4,0.1-1-1.4-4-10.3
	c-2.1-6.4-2.7-8.8-2.6-11.2c0.1-2.3,5.9-2.6,7.4-1.9c1.9,0.9,4.7,3.5,5.7,5.5c1.7,3.3,2.3,8,1.4,11.7c-0.3,1.1-1,5.7-1.4,7.6
	C1296.2,226.3,1292,226.5,1291,226.8z M1325.3,223.6c1.1-1.9,3-5.7,2.5-8.2l1.3-0.7c2.7-1.5,6.2-0.6,7.6,1.9c0.5,1,0.6,2.7,0.1,4
	c-0.4,1-2.4,3.4-2.8,3.4C1332,222.9,1327.6,223.1,1325.3,223.6z M1303.8,209.9c-0.6-1.9-2.4-5.7-3.6-6.9c-0.6-0.6-0.7-0.9-0.6-2.1
	c0.2-3.1,2.9-4.8,6.2-3.8c2.2,0.7,5.2,6.4,5.6,9.9C1309.2,206.7,1305.6,208.7,1303.8,209.9z M1317.9,207.2c-0.4-0.3,1.5-3.5,2.4-4.1
	c0.7-0.5,1.2-0.6,2.1-0.6c1.7,0.1,2.7,1.1,2.7,2.7c0,1.2-1.2,4.6-1.7,4.6C1322.2,207.9,1318.1,207.3,1317.9,207.2z M1262.4,325.3
	c-6.5-3.7-8.6-5-15.5-10c-12.6-9.2-17.3-13.4-21-18.8c-3-4.4-5.1-10.3-4-11.3c1.3-1.2,10.6,3,17.5,8c8.2,5.9,18.9,16.7,26.4,26.5
	c4.6,6,5.6,10.1,5.6,10.4c0.1,0.4-0.2,0.3-1.8-0.6C1268.6,328.9,1265.3,327,1262.4,325.3z M1277,326.6c0.1-1.2,0.6-5.7,0.9-9.9
	c0.4-4.2,0.9-8.8,1.2-10.1c1.1-5.4,3.8-13.3,5.8-16.9c2-3.7,4.9-6.8,5.9-6.4c1,0.4,1.1,5.3,0.2,9.4c-1,4.8-3.7,13.4-6.2,19.5
	c-2.9,7.2-7.4,16.7-7.8,16.7C1276.9,328.9,1276.9,328,1277,326.6z M1258.8,300.3c-3.8-5.4-5.5-9-12.2-25.4
	c-3.1-7.6-5.9-17.1-7.1-23.8c-0.5-3.2-0.7-9.5-0.3-9.5c0.6,0,2.9,2.3,4.4,4.3c5,6.7,8.1,12.8,12.5,24.6c3.8,10.2,5.7,16.4,7.8,25.1
	c1.3,5.4,3.4,15,3.4,15.6C1267.4,311.5,1261.4,304.1,1258.8,300.3z M1264.2,213.7c-5.3-12.6-7.5-18.3-10.3-27.6
	c-3.5-11.3-4.9-21.5-4.4-29.9c0.3-4.1,1.2-7.5,3.3-6.6c1.8,1.2,4.7,5.4,6.7,9.8c5,10.6,7.7,24.6,8,41.2c0.1,5.2-0.3,19.8-0.5,19.6
	C1266.9,220.1,1265.6,217.2,1264.2,213.7z M1297.2,155.3c2.8-4.4,13.2-18.2,18.8-25.3c8.7-10.8,14.8-16.4,23.1-21.1
	c3.5-2,6.2-2.8,8.8-2.7c3.8,0.1,5.1,1.5,4.8,5.1c-0.6,6.1-6.6,13.6-17.5,22c-7.7,6-17.2,12.3-25,16.5c-3.7,2-13,6.6-13.4,6.5
	C1296.7,156.3,1296.9,155.8,1297.2,155.3z M1286.7,151.1c-0.6-1.2-2.7-5-4.7-8.6c-11.8-20.8-15.3-28.8-16.6-38.1
	c-0.7-4.6-0.4-14,0.4-16.4c0.5-1.5,0.6-1.5,1.4-1.5c4.1,0.1,11.6,12,16.8,26.7c2.6,7.2,4.1,13.6,5.1,21.3c0.3,2.6-0.7,12.9-0.9,15
	c-0.2,2.1-0.4,3.8-0.4,3.8C1287.8,153.2,1287.3,152.3,1286.7,151.1z M1296.6,125.4c3.1-26,5.2-36.3,10.8-51.6
	c4.4-11.9,7.6-17.6,10.8-19.1c2.1-1,3.1-0.3,3.8,2.4c2.3,9.1-1.7,29.4-10.5,52.4c-3.8,9.6-10,30.9-16.2,36.8
	C1295.3,141.1,1295.9,130.6,1296.6,125.4z M1304.5,327.6c-1.6,2.6-2.9,5.6-4.4,8.7c-6.2,12.8-9.9,25.5-12.3,42.6
	c-0.5,3.7-1,7-1.1,7.3c-0.1,0.4-0.5-1.8-1-5.4c-1.3-9.5-4.5-30.1-5.9-37.3l-1.2-6.5l0.9-1.2c3-3.9,9.8-18.8,13.2-28.7
	c3.2-9.3,4.3-14.2,4.5-18.9c0.2-4.1-0.2-6-1.5-7.9c-4.5-6.3-12.3-1.6-17.4,10.4c-1.4,3.3-3.1,8.2-4,12c4-26,9.6-41.5,21.9-56.8
	c2.8,1.2,5.4,1.5,8.3,0.4V327.6z M1257.1,456.5c0.7-3.5,1.5-11,1.4-14c-0.1-4-0.6-6.9-1.6-9.8c-1-2.8-3.3-5.4-3.8-4.1
	c-0.4,0.9-0.6,3.5-0.5,6.3c0.2,3.1,1.6,13.1,2.7,18.9c0.5,2.6,0.9,5,1,5.2C1256.3,459.9,1256.5,459.2,1257.1,456.5z M1245.9,459.5
	c-5-6.3-9.9-11.3-13.9-14.4c-2.8-2.2-6.1-4.3-6.1-3.9c0,0.8,5.7,7.1,10.9,12c3.1,2.9,11.2,9.6,11.2,9.1
	C1248,462.3,1247.1,461,1245.9,459.5z M1234.6,421.1c0.7-0.5,1.5-1.4,1.8-1.9c0.5-0.9,0.5-1,0-1.5c-0.3-0.3-1.9-1.3-3.5-2.2
	c-2.9-1.7-3-1.7-3.8-1.2c-1.9,1.2-1.8,1.1-0.6,5.1c1.2,3.9,1.4,4.1,3.3,3.3C1232.7,422.4,1233.9,421.7,1234.6,421.1z M1216.3,419.4
	c0.6-0.5,1.4-1.2,1.6-1.6c1-1.4,2.3-4.4,2.2-4.8c-0.3-0.8-9.1-2.7-10.3-2.2c-0.7,0.3,0,3.9,1.2,6.6c1.3,2.9,1.6,3.2,2.4,3.2
	C1214.5,420.6,1215,420.4,1216.3,419.4z M1239.2,404.3c0-0.4-0.6-2-1.3-3.6c-1-2.4-1.4-3.1-2.2-3.9c-1.2-1.1-1.7-1.1-2.9,0.4
	c-0.8,1-3.3,6.8-3.1,7.3c0.2,0.5,1.2,0.7,4.4,0.9C1238.5,405.6,1239.4,405.5,1239.2,404.3z M1220.7,404.8c0.9-1.1,0.9-1.7-0.8-6.2
	c-1.4-3.8-1.8-4.3-3.4-4.1c-1.7,0.2-3.1,1.1-3.5,2.2c-0.3,0.9-0.2,1.1,0.5,2.7c0.4,1,1.2,2.2,1.8,2.8
	C1216.2,403.2,1220.3,405.3,1220.7,404.8z M1273.9,464.4c3.1-6.7,8-12.6,9.7-11.7c1.8,1-0.2,5.4-4,9c-2,1.9-6.6,5.5-6.7,5.4
	C1272.8,466.9,1273.2,465.8,1273.9,464.4z M1286.9,439.4c0.9-0.4,1.4-1.9,1.3-3.6c-0.2-2.5-2.4-8.3-3.4-8.5
	c-1.1-0.2-2.7,4.6-2.4,7.3c0.1,1.6,0.7,3.1,1.5,3.8C1284.8,439.3,1286.1,439.8,1286.9,439.4z M1275.8,422.4c1.6,0.3,2.7,0.1,3.1,0
	c-0.3-3.8-8-11.3-11.1-9.5c-1.1,0.9,0.7,5.4,2.8,7.4C1271.8,421.3,1274.1,422.3,1275.8,422.4z M1302.2,423c0.6-0.5,0.6-0.7,0.5-1.6
	c-0.2-1.2-1.7-3.4-3-4.2c-1.9-1.1-4.5-0.9-7.4,0.7c-2.2,1.2-2.2,2.4-2,3.7c0.1,0.3,3.3,1.9,4.6,2.3
	C1298.5,425,1301.5,423.7,1302.2,423z M1286.3,413.3c1.7-5.3,1.7-7.7,0-9.7c-2.2-2.6-3.7-2.6-4.7,0.1c-0.7,1.8-0.8,4.2-0.5,7.4
	c0.2,2,1.2,6.6,1.5,6.7C1283.5,417.9,1285.3,415.8,1286.3,413.3z M1277.1,400.1c-0.5-1.1-0.8-2-1.3-3.1
	c-4.2-9.1-11.3-18.8-16.4-22.4c-4.7-3.3-9.5-4.9-11.2-3.8c-1.7,1.1-1.7,5.6,0.1,10.9c1.5,4.5,9.5,14.2,20.2,25c1.5-0.1,4,1.1,7.3,4
	C1275.4,406.4,1275.3,402.5,1277.1,400.1z M1291.2,401.2c2.4,1.7,2.3,2.6,2.6,4.6c0.8-1.9,1.8-4.3,2.7-6.7c5.9-14.6,4.7-9.9,8-21.7
	V340c-2,4.4-5,12-6.4,16.4C1294.5,368.7,1292,384.9,1291.2,401.2z M1304.5,414.1c-1.9-1.6-4.4-2.8-6.4-3.3c2.4-5.9,4.9-12,6.4-15.8
	V414.1z M1279.1,469.8c11.7-7,11.6-15.3,9.5-19.4c-1.3-2.5-3.4-3.7-6-3.4c-2.7,0.3-5.7,2.6-8.6,6.6c-0.8,1.1-3.2,3.8-4.6,4.5
	c1.2-5.9,4.7-15.8,7.9-22.8l0.3,1.6c1.7,8.2,10.9,11.2,14.6,4.7c1.5-2.2,2.8-7.7-0.4-12.9c3.5,1.4,10.1,2.4,12.8-0.6v41.8H1279.1z
	 M1207,405.9V12.1h125.7l91,219.1l1.3,0V12.1h97.5v219.4c-0.9,0.1-2.1,0.5-2.9,1.2c0.5-2.8-0.5-7.4-3.7-8.5c-2-0.7-4.8-0.4-7.9,1
	c-3.3,1.5-5,3.5-6.7,7.9l-1.3,3.2c-3.9-2-8.6,0-8.4,6.2c-0.1,3.7,2.3,11,5.3,16.3c4.3,7.5,5.1,11.4,3.8,18.3
	c-1.4,7.1-3.5,14.8-6.1,22.6c-1.3,3.8-3,9.3-3.9,12.1s-1.1,3.7-1.7,4.9c-0.1-0.2-0.3-2.4-0.5-5.1c-0.5-7.2-4.1-34.4-6.2-47.6
	c-1-6.4-2.9-16.3-4.1-22c-1.3-5.7-2.3-10.7-2.3-11.1c0-0.4,0.9-1.7,2-3c2.7-3.1,5-8.3,5.4-12.1c0.2-1.7,0.1-5.8-0.2-9.1
	c-0.6-7.3-0.3-11,1.2-20.5c1.4-8.9,1.7-11,2-17.9c0.1-3,1.4-18,1.7-19.8c0.8-4,0.6-5.2-0.6-6.2c-2.7-2-5.2,0.3-9.1,8.4
	c-1.4,2.8-3.6,7.2-5,9.7c-3.7,6.5-5.9,12.8-6.9,19.7l-0.4,2.9l-0.4-1.7c-1.2-5.4-3.1-12.6-4.8-17.8l-1.9-6l3.2-3.6
	c3.7-4.2,5.8-8.5,6.1-12.8c0.3-3.5-1.3-8.4-4.9-15.2c-5.1-9.6-6.5-11.2-9.1-10.8c-2.7,0.5-4.3,3.7-4.8,9.8l-0.2,2.9l-3.1-3.8
	c-5.3-6.4-5.5-6.7-7-7.3c-2.9-1.3-5.5,0.8-6.7,5.2c-2.1,7.9,1.3,15.2,13.2,28.1c7.3,8,7.2,7.9,9.5,15c2.4,7.5,3.3,10.9,5.9,23.3
	c1.1,5.2,2.1,10.3,2,10.4c-1.9-2.1-6.2-12.5-8.7-20c-2.9-8.8-5.9-14.7-11.1-22.3c-1.9-2.7-4-5.9-4.8-7.1c-2-3.2-4.8-3.8-6.4-1.4
	c-1.4,2.1,0.4,18.1,3.4,29.5c2.8,10.8,5.6,17.3,12.8,29.8c4.6,7.9,8.4,12.8,13.5,17.3c1.9,1.7,4.6,4.1,5.9,5.3l2.4,2.3l2.2,9.8
	c2.7,12.1,5.1,26.6,7.8,47.3c2.2,16.9,2.7,21.9,3.3,32.2c0.3,5.4,0.7,26.4,0.5,26.9c-1.1-2.9-1.5-3.6-3.2-8.2
	c-3.2-8.6-5.5-13.3-10.3-20.9c-0.6-1.3-2.3-3.4-1.7-6.2c0.6-3.4,0.4-11.1-0.6-16.9c-0.4-2.4-1.7-8.2-3-12.9s-2.6-10.3-3-12.5
	c-0.7-3.4-3.2-20.6-3.4-22.5c-0.1-1.2-2.6-2.1-4.2-1.5c-1.6,0.6-2.7,2.9-4.2,9.3c-2.8,11.8-2.4,25.8,0.9,36.5
	c0.7,2.3,1.1,4.1,0.8,3.8c-0.3-0.2-2.7-3-5.5-6.2l-5-5.8l0.2-2.3c0.4-3.9-2.5-22.1-4.3-26.7c-1.2-3.3-2.2-4.3-5.6-6
	c-1.3-0.6-4.9-2.9-8-5.1c-6.6-4.5-8.9-5.4-11.8-4.4c-3,1.1-6.4,6-2.8,12c-9.5-0.7-10.8,2.3-11.8,4.3c-0.8,1.6-0.8,1.7,0.6,5.4
	c1.6,4.3,3.8,7.3,7.5,10.2l2.2,1.7c-3.1,2.3-4.8,8.8-2.2,13.4c1.1,2.9,5.3,5.1,10.9,5.7c4.1,0.5,8.2,0.1,14.9-1.2
	c3-0.6,6-1.1,6.5-1.1c0.7,0,1.9,1.1,4.7,4.5c2,2.5,6.2,7.3,9.2,10.8c9.6,11.1,13.2,16,17.5,24c4,7.5,5.4,10.9,7.8,18.8
	c5.3,17.5,5.8,20.7,3.9,29.4c-1,4.8-1.1,4.8-2.7-1.7c-1.6-6.4-7.2-24.4-10.6-34.1c-1.9-6.9-6.1-12.1-8.4-9.2
	c-0.9,1-1.2,4.5-1.5,16.7c-0.1,4.1-0.3,9.3-0.4,11.7c-0.2,5,0,11.2,0.6,16c0.4,2.7,1,5,3.4,11.3c2.7,7,3.4,8.6,7.1,14.8
	c2.3,3.8,4.7,8,5.5,9.3c1.4,3.1,1,9,0.8,12c-1,16.3-1.7,22.9,0.6,45.5h-24.6c15.7-13.7,9-32.8,7.3-41c-4.7-10.8-14.5,8.6-17.1,14.8
	c-0.8-12.2-2.4-22-6.2-32.9c1,0.7,1.2,0.6,3.3,2.6c4.1,3.7,5.9,4.7,8.6,4.9c2.3,0.1,3.7-0.6,4.7-2.3c1.8-3.1,0.6-7.9-3.1-12.8
	c-0.7-1-1.3-1.8-1.2-1.8c0,0,1,0.1,2.1,0.4c2.8,0.7,6.4,0.7,7.9,0c3-1.5,3.2-4.9,0.6-8c-2.4-2.8-9.5-7.3-14.4-9.1
	c-3.7-1.3-9.7-3.1-14.1-2.6c-1.7-2.4-4.5-4.5-9-4.7c-6.2-0.5-10.4,4.2-9.4,7.2c-3.4-0.5-10.5-0.9-16.2,2.3c-4.6,2.3-7.8,4.6-8.8,7.7
	l-2.8-6.5c6-17.2,9.9-30.3,11.2-37.4c1.5-8.4,1-17.2-1-19.5c-1-1.1-2.4-1.4-3.6-0.8c-1.3,0.7-2.3,2.3-5.8,10.1
	c-1.6,3.4-3.9,8.5-5.2,11.3c-1.3,2.8-3.1,7.1-4,9.7c-1,2.6-1.5,2-1.5,0.6c0.1-6.3,0.5-11,1.4-17.6c1-6.6,1.9-11.3,2.5-12.3
	c0.2-0.3,1.6-1.5,3.1-2.6c2.7-2,9.9-8.6,12.9-11.7c2.2-2.3,5.4-7,6.7-9.8c2.1-4.6,1.7-7.4-1.6-10.6c-1-0.9-2.3-2.7-3.4-4.6
	c-2.9-5-4.7-5.7-8.8-3.6l-2.3,1.2l-1.6-1.6c-2.3-2.3-3.4-2.9-5.1-2.6c-2,0.4-2.8,1.6-5.4,8.4l-2.2,5.5l-1-1
	c-2.1-2.2-5.3-2.9-7.8-1.6c-2.6,1.3-5.2,6.3-5.1,10c0,5.7,2.7,10.4,10,17.6c1.5,1.5,3.5,3.6,4.4,4.7c1.6,1.8,1.6,2,1.4,2.9
	c-0.7,3.3-2,11.7-2.5,15.5c-0.3,2.5-0.8,3.1-1,3.8l-44.4-105.2c16.2,1.9,18.9-7,19.8-11.1c0.5-2.5-0.3-4.4-2.9-7.2l-1.2-1.2l1.1-1.3
	c2.9-3.5,3.5-8.5,1.4-12.2c-0.8-1.5-3-3.4-4.6-4.2c-1.3-0.6-4.1-1.2-5.5-1.2c-1,0-1,0-0.8-0.9c0.4-1.5,0.2-3.9-0.5-5.5
	c-0.4-1.1-1-1.8-2.1-2.8c-4.6-3.3-10.4-1.8-12.6,0.9c-1.3-3.4-5.8-9-11.8-8.5c-3.3,0.2-8.9,2-9.3,6.8c-2.1-1.3-6.9-1.9-9.7-1.3
	c-2.6,0.6-4.9,3-5.4,5.6c-0.5,2.7-0.2,6.6,0.9,10.3c2.4,8.1,4.7,14.8,6.1,17.5c1.3,2.4,1.4,2.9,1.3,3.9c-0.4,3.1,1,8.3,2.6,9.9
	c-16.1,22.7-17.6,33.9-19.7,40.5c-1.4-13.2-1.7-28-0.7-39.6c1.2-16.7,2.9-24.1,4.4-33.2c1.9-9,6.6-22.7,8.8-29.5
	c1.5-4.4,2.7-7.6,5.8-14.5c2.1-4.6,3.9-4.6,4.6-4.5c2.1,0.1,15.1-6,24.1-11.4c11-6.5,25-16.8,30.4-22.5c4.7-4.9,8.3-10.2,9.6-14.3
	c0.9-2.8,1-6.5,0.3-8.6c-2.5-8.8-12.1-6.3-13.8-5.9c-5.9,1.4-13.3,5.9-20.4,12.5c-4.2,3.9-6.3,6.1-10.8,11.6c-1.5,1.9-2.9,3.6-3,3.7
	c-0.1,0.1,0.9-2.4,2.3-5.6c6.1-14.3,10.2-26.2,12.9-37.4c2.3-9.9,2.7-12.5,3-19.7c0.3-6.9,0-9.1-1.2-12.2c-2.4-6.1-9.2-6.8-14.6-1.6
	c-2.9,2.8-5.6,7.9-9.2,17.3c-5.5,14.2-7.9,24.2-10.5,43.4l-0.8,6l-0.6-1.9c-1-3.5-3.5-10.2-5.1-13.9c-4.6-10.5-10.3-18.7-14.8-21
	c-6.6-3.5-9.4,0.4-10.7,4c-1.4,4.1-1.7,13.8-0.6,20.4c1.6,9.9,5.7,19.1,17,38.9l8.7,15.9c-2.9,5.8-8.4,18.5-10.5,27.3
	c-1.1,3.7-2,6.8-2.1,7c-0.1,0.1-0.2-0.8-0.3-2.1c-0.3-6.2-1.7-15.5-3.2-21.8c-3.1-12.8-9.3-24.3-14.6-27.2c-2.7-1.5-5.6-1-7.7,1.1
	c-1.4,1.4-1.9,2.3-2.6,4.7c-1.7,5.7-1.2,16.5,1.2,27.6c1.1,5.2,2,8.2,4.3,15.2c2.4,7.2,3.7,10.8,8.1,21.1c3.8,9,5.1,11.6,6.7,13.7
	c0.8,1.8,0.6,4.3,0.5,5.5c-1.1,8.3-1.5,14.1-1.7,23.5c-0.1,5.1-0.1,11,0,13.2c0.1,2.1,0.1,4.1,0.1,4.3c-0.1,0.2-0.8-1.4-1.6-3.7
	c-2.1-5.8-4.9-12.6-6.6-16c-4.5-8.8-9.8-15.9-13.4-17.9c-4.3-2.4-8.1-0.3-8.8,4.7c-0.5,3.6,0.5,11.4,2.3,18.3
	c2,7.7,3.7,12.5,8.3,23.4c1.8,4.2,3.4,8,3.6,8.6l0.4,0.9l-1.3-1c-4.8-3.9-10.5-7.5-15.8-9.9c-6.4-2.9-9.8-3.1-12.5-0.8
	c-4.4,3.8-2.2,12.7,5.7,22.3c3.5,4.3,10,9.7,22.1,18.4c5.1,3.7,6.4,4.5,14.4,9c9.3,5.3,12.5,7.4,12.7,8.5c0.9,3.9,5.5,32.3,6.9,42.8
	c0.8,6.4,1.5,13.3,1.4,13.5c-0.1,0.1-0.7-1.1-1.5-2.6c-1.7-3.5-5.6-9.8-8.3-13.5c-5.4-7.3-11.8-12.2-18.3-14.1
	c-4.9-1.4-8.9,0-11,3.9c-0.7,1.2-0.7,1.6-0.8,5.1c-0.1,3.3,0,4.1,0.5,6.3c1.9,7.2,5.6,12.3,19.1,26.4c0.8,0.8,1.6,1.6,2.3,2.4
	c-1,1.1-1.3,3-1.2,4.8c0.2,3.3,2.5,7.8,5.2,10.3c1.5,1.4,5.1,3,7.8,3.3c0,0-0.5,0.8-1.1,1.8c-1.8,2.6-3.6,6.7-5.7,12.6
	c-1.4,3.5-3.6,10.8-4.5,14c0.8-7.3,0-17.4-1.1-22.2c-1-4.2-2.8-8.1-4.6-9.8c-1.4-1.6-4.7-3-6.6-2.4c-5.6,0.9-5,9.4-4.1,17.2
	c0.4,3.6,0.5,3.7-2.6-2.8c-2.1-4.5-4.8-9.5-5.6-10.4c-0.7-0.9-0.7-0.9,0.3-2c1.2-1.3,2.4-3.7,2.5-5.2c0.2-2.5-1.3-4.8-4.3-6.8
	c-1.3-0.8-1.3-0.8-0.6-0.9c0.4,0,1.5-0.2,2.4-0.4c2.9-0.6,4.6-2.6,4.9-5.5c0.1-1.5-0.6-4.7-1.8-7.3c-2.4-5.4-5.7-8.2-9.3-7.6
	c-2.6,0.4-4.9,2.6-6.6,6.3l-1,2.3l-1.4-3.4c-0.8-1.9-1.7-3.7-2.1-4.1c-1.7-2-3.9-2.9-6.4-2.6c-1.8,0.2-5.5,2.3-6.7,3.4
	c-3,2.8-0.7,10.5,1,12.6C1209.8,404.8,1207.8,404.9,1207,405.9z M1207,422.4c1.2,2,5,3.9,6.9,3.8c2.7-0.2,6.6-2.6,8.4-5.2
	c0.4-0.6,0.7-1,0.7-1c0,0,0.5,1.3,1.1,2.8c0.9,2.4,1.2,3,2.1,3.9c1.8,1.9,3.7,2.4,6.4,1.7c1.5-0.4,1.6-0.3,2.7,1.4
	c1.6,2.4,5.8,10.9,9.4,18.8l1,2.2l-2.7-2.8c-3.2-3.4-4.3-4.4-6.9-6.6c-4.3-3.6-11.8-7.9-13.9-8c-2-0.2-3.7,1.3-3.9,3.5
	c-0.3,3.4,3.9,9.6,12.4,18.2c4.7,4.8,7.9,10.3,14.6,14.9H1207V422.4z"/>
<path class="st0" d="M979.1,0c-1.1,0-1.8,0.9-2,1.8l-49.3,190.9L884,1.9c-0.2-1.1-1.1-1.8-2.2-1.9H703.5c-1.3,0.1-2.3,1.1-2.2,2.4
	v477.2c0,1.2,1.1,2.3,2.3,2.3h120.2c0.5,0,0.9-0.2,1.3-0.5c0.2-0.2,1-0.7,1-1.9V307.3L864.6,480c0,0.1,0.1,0.3,0.1,0.4
	c0.3,0.8,1.1,1.4,2,1.4h103c1-0.1,1.9-0.8,2.2-1.8l46.7-190.6v190.1c0.1,1.3,1.1,2.3,2.3,2.3h132c1.3-0.1,2.2-1.1,2.2-2.4V2.3
	c0-1.6-1.3-2.3-2.3-2.3L979.1,0z M792.6,451.2c5.3-6.3,8-10.8,14.5-23.9c2.4-4.8,4.6-9.2,5-9.9c0.9-1.5,1-1.6-3.6,2.9
	c-9.4,9.3-11.3,11.7-14.3,17.8c-2.1,4.4-3.1,7.6-4.8,14.7c-0.6,2.3-0.6,2.3,0.3,1.5C790.2,454,791.5,452.5,792.6,451.2z
	 M787.7,383.5c0.8-9.8,2.3-15.9,7.8-32.3c2-6,3.9-11.7,4.1-12.6c0.5-2,0.5-2.2,0.6,5.5c0.2,15.8-0.2,19.4-2.9,27
	c-1.9,5.5-3.7,9.1-8.3,16.5c-1.5,2.4-1.5,2.4-1.5,1C787.4,387.9,787.5,385.6,787.7,383.5z M772.2,370.6c-2.7-4.4-4.4-8.3-8.3-19.4
	c-4-11.3-6.2-16.6-8.6-20.5c-2.2-3.7-2.2-3.7,0.3-1.4c8.9,8.1,14.5,17.1,19.3,31.1c0.8,2.2,3.1,17.7,2.8,18.5
	C777.7,379.2,774.9,375.1,772.2,370.6z M763.6,294.3c-0.9-0.8-3.2-3.9-5.2-6.8c-4.4-6.2-8.2-11.6-12.2-16.9
	c-1.6-2.1-2.8-3.9-2.7-3.9s1.8,1.3,3.9,3c5.8,4.9,10.8,11.4,14.7,19.1c1.1,2.2,2.4,4.8,2.8,5.6C765.8,296.3,765.6,296.3,763.6,294.3
	z M802.9,285.5c0.3-1.8,1.7-7,2.9-11.4c2.2-7.7,4.5-17.3,4.6-19.1c0.2-2.2,0.4,2.1,0.4,6.8c0,9.9-2.3,18.5-7.3,28l-1.6,3
	C801.9,291.4,802.2,288.1,802.9,285.5z M751.6,242.5c-2.7-3.6-4.3-6.9-4.7-9.9c-0.3-1.9,1.1-1.5,4.5,3.9c3.1,5,5.2,8.8,3.5,9.8
	C754.6,246.2,753.1,244.5,751.6,242.5z M761.3,243.6c-0.4-3.3-0.6-10.4-0.3-11.3c0.1-0.3,7.4-3.4,7.6-1.1c0.2,0.5-0.8,4.9-1.7,7.2
	c-1.2,3.1-4.4,8.6-4.8,8.5C761.9,246.8,761.5,245.4,761.3,243.6z M835.2,275c0-0.1,3.3-1.3,7.2-2.7c3.9-1.4,7.8-2.8,8.6-3.1
	c3.5-0.7,2.9,5.5,0.6,6.3c-3.9,1.3-9.7,1.2-16-0.2C835.3,275.2,835.2,275.1,835.2,275z M831.2,256.3c0.7-3.8,1.7-7.7,2.1-8.8
	c0.7-1.7,1-2,3.2-3c1.3-0.6,4.6-2.6,7.3-4.4c6.1-4.1,7-4.6,7.2-3.6c0.2,1.1-1.6,5.2-3.6,8.4c-1,1.6-3.6,4.8-5.7,7.3l-12.5,14.3
	L831.2,256.3z M843,260.5c7-7.6,10.7-11.3,13.2-12.9c1.1-0.7,2.9-0.7,3.8,0c1.3,1,1.5,1.4,1.3,2.4c-0.4,1.7-3.7,5.5-6.3,7.5
	c-2.2,1.7-16.9,9.4-17,9C837.8,266.3,840.1,263.7,843,260.5z M753.2,224.9c0.1-2.4,0.4-4.9,0.6-5.4c0.3-0.8,0.6-0.8,1.8-0.4
	c1.7,0.7,2.5,1.6,3.7,4.1c0.7,1.2,0,2.5-1,2.7c-1.9,0.8-1.9,0.8-2.7,3.5c-0.4,2.5-1.2,2.4-1.6,1.3
	C753.2,229.6,753,228.3,753.2,224.9z M790.1,208.5c-1-3.2-1.1-5.4-0.5-11.6c0.9-9.2,0.8-11-1.2-25.2c-0.5-3.6-1-8.6-1-11.2
	s-0.2-6.1-0.4-7.9l-0.3-3.3l2,3.7c3.4,6.3,5.5,12.6,6,18.8c0.4,4.3-0.1,19.6-0.8,25.4c-0.4,3.3-2,12.7-2.3,13.5
	C791.4,211.4,790.7,210.4,790.1,208.5z M800.4,204.9c2.2-3.5,7.1-9.2,12.6-20.1c1.6-3.1,3.5-7.8,5.1-12.2c2.6-7.3,4.5-11.3,8.4-17.4
	c1.1-1.7,2.2-3.2,2.4-3.3c0.2-0.1,0,1.9-0.5,4.4c-2.7,14.4-6.4,23.7-14.5,37.2c-4.1,6.8-5.7,9-9.3,12.8c-2.4,2.5-4.2,4.8-6.2,5.6
	C798.3,211.8,799.1,206.9,800.4,204.9z M806.8,135.7c-1.3-3.2-1.4-5.8-0.2-8.7c0.9-2.3,3.6-7.4,5.2-9.9l0.7-1.1l0.1,1.2
	c0.2,2-0.5,7.3-1.8,13c-0.5,2.3-1.4,7-1.5,9.5C808.7,138.8,807.4,136.9,806.8,135.7z M816.3,134.8c0.5-2.4,1-3.5,2.1-5.1
	c1.9-2.8,11-13.6,11.3-13.5c0.4,0.2,0.4,2.2-0.1,4.2c-0.3,1.2-1.3,3.1-2.9,5.6c-2.9,4.5-10.9,13.4-11,12.4
	C815.7,138.1,816,136.4,816.3,134.8z M769.3,461.1c4.8-3.4,7.6-7.6,8.2-11.8c0.1-0.8,0.1-1.6,0.1-1.7c-0.3-0.9-3.2,1.5-5.6,4.8
	c-1.4,1.9-6,10.3-5.9,10.7C766.1,463.3,766.8,462.9,769.3,461.1z M755.9,458.1c-2-5.4-8.1-12.9-9.3-12.5c-1,0.3,0.4,5.1,2.6,8.9
	c1.2,2.2,3.5,5.4,5.5,7.9c0.4,0.6,1.3,1.7,2.1,1.8C757.9,463.7,756.6,459.9,755.9,458.1z M765.5,449.9c1.1-5.2,0.3-10.2,0.1-10.3
	c-0.3-0.2-3.2,5.6-3.9,9.8c-0.3,2.3-1.1,6.6,0.1,7.9C763.3,455.8,764.6,453.8,765.5,449.9z M746.6,426.8c-1.7-3.2-3.3-5.5-5.1-7.2
	c-2.8-2.6-6.7-4.3-8.7-3.8l-1,0.3l0.5,1.5c1,2.9,4.7,6,12.2,10.1c1.9,1,3.4,1.8,3.4,1.7S747.3,428.2,746.6,426.8z M756.9,421.7
	c0.9-2.7,1.6-5.5,2.1-8.4c0.4-2.3,0.5-5.7,0.3-5.8c-0.2-0.1-1.6,3.2-2.3,5.7c-0.9,3.2-1.3,5.9-1.4,9.4
	C755.5,425.8,755.5,425.8,756.9,421.7z M749.5,414.2c0-1.6-0.2-2.5-1-5c-1.4-4.4-2.2-4.5-2.2-0.5c0,1.4,0.2,2.6,1,5.3
	c0.5,1.9,1.2,3.9,1.5,4.3l0.5,0.9l0.2-1.6C749.5,416.8,749.5,415.3,749.5,414.2z M733.8,392.9c0.2-1,0.4-2.6,0.4-3.6
	c0-2.1-0.9-6.6-1.6-7.9l-0.5-0.9l-0.1,0.7c-0.4,2.1,0.1,8.7,0.8,12.8C733,395.6,733.2,395.4,733.8,392.9z M726.5,396
	c-3.4-4-6.6-6.5-9.5-7.4c-3.1-0.9-3.8,0.5-1.4,3.1c1.5,1.6,3.8,3,6.4,3.8c1.5,0.5,4.8,1.3,5.1,1.2
	C727.1,396.8,726.9,396.4,726.5,396z M937.6,355.9c3.6-1.4,7-3.6,8.5-5.3c0.8-0.9,1.4-1.8,1.4-1.9c0-0.5-1.3-0.8-2.6-0.7
	c-1.5,0.1-4.4,1.4-6,2.6c-1.4,1.1-5,5.2-5.4,6.1c-0.3,0.6-0.2,0.6,0.9,0.3C935,356.9,936.5,356.4,937.6,355.9z M922,355.4
	c-2-1.9-9.5-6.4-10.7-6.4c-0.4,0,0.7,1.8,2.2,3.4c2.2,2.3,5.4,3.8,8,3.7l1.2-0.1L922,355.4z M924.4,345.5
	c-0.7-4.2-3.3-12.5-4.3-13.9c-0.8-1.1,0.3,4.9,1.5,8.5c0.6,1.8,2.8,7,3,7C924.6,347.1,924.5,346.4,924.4,345.5z M944.5,320.5
	c2.3-2,4.3-5.3,4.9-6.7c0.5-1.1,0.2-1-1.7,0.3c-3.4,2.4-7.3,6.7-8.4,9.3c-0.4,0.8-0.2,1.6,1.4,0.3
	C941.6,323,943.3,321.5,944.5,320.5z M929.5,320.6c0.4-3.8-0.6-8.8-2.3-12.3c-0.8-1.7-2.6-3.8-3.7-4.5l-0.9-0.6l0.3,2.7
	c0.5,4.6,2,9.5,4.6,14.5c0.8,1.6,1.5,2.8,1.6,2.7C929.2,323.1,929.4,322,929.5,320.6z M942.8,305.8c0.8-2.1,1.4-4.8,1.2-5.4
	c-0.2-0.4-1.9,2.7-3.2,5.9c-1,2.5-3.2,8.6-3.1,9C937.6,315.8,942,307.7,942.8,305.8z M930.9,282.4c-1.6-3.2-4.2-6.4-6.1-7.6
	c-1.6-1-1.8-0.7-1.3,1.5c0.4,1.9,1,2.8,2.4,4.2c1.6,1.6,3.7,2.8,5.8,3.3C931.6,283.9,931.3,283.3,930.9,282.4z M947,281.6
	c3-0.6,5.1-1.4,7.4-2.7c3.3-1.9,6.4-5.5,5.3-6.1c-0.8-0.5-5.4,0.9-9.3,2.8c-3.4,1.7-8.9,5.6-8.9,6.4
	C941.6,282.3,944.5,282.1,947,281.6z M934.6,267c-0.5-4.6-1.2-7.9-2.3-11.7c-0.4-1.5-0.6,0-0.4,3.5c0.2,4,0.9,7.6,2.1,12.2
	c0.7,2.4,0.8,2.7,1,2.1C935.2,272.7,935.1,270.7,934.6,267z M956.7,250c3.4-1.2,5.3-2.2,6.9-3.5c1.5-1.2,3.9-3.7,3.9-4
	c0-0.9-4.2,0.6-7.2,2.6c-1.4,0.9-6,4.7-7,5.8C952.9,251.3,953.7,251.1,956.7,250z M947.7,242.3c0.7-2.1,0.7-2.3,0.5-6.2
	c-0.1-2.2-0.4-4.9-0.7-6c-0.7-3.2-2.5-7.2-3.2-7.1c-0.1,0-0.4,0.8-0.6,1.7c-0.3,1.4-0.3,2.7-0.1,7.4c0.3,5.5,0.4,5.8,1.4,9.1
	c1.4,4.4,1.4,4.3,1.7,3.8C946.9,244.6,947.3,243.5,947.7,242.3z M968.1,219.7c2.3-1.3,3.3-2,4.1-3.1c0.6-0.8,1.1-1.5,1.1-1.6
	c0-0.4-2,0.4-3.6,1.5c-1.4,0.9-5.2,4.4-5.6,5.2C963.7,222,964.8,221.6,968.1,219.7z M958.9,207.9c0.1-5.4-0.6-10.7-1.4-10.7
	c-0.9,0.1-1.3,5.3-0.7,9c0.5,3.2,1.5,6.8,1.8,6.5C958.7,212.6,958.8,210.4,958.9,207.9z M974.1,190.6c1.1-1.3,2.5-4.5,3.3-7.5
	c0.9-3.4,0.7-3.6-1.4-1.1c-1.6,1.8-2.4,3.5-3.3,6.8c-0.5,1.7-0.5,2.3-0.2,2.6C973,191.9,973.1,191.8,974.1,190.6z M928.9,454.1
	c-1.2-3.5-2.9-11-3.2-14.1c-0.4-4.1-0.3-7.1,0.5-10.2c0.7-3,2.7-5.9,3.5-4.7c0.6,0.9,1.1,3.5,1.3,6.4c0.2,3.2,0,13.6-0.5,19.7
	c-0.2,2.7-0.4,5.2-0.4,5.5C930.1,457.5,929.8,456.8,928.9,454.1z M940.9,455.8c4.5-7.1,9-12.9,12.7-16.6c2.6-2.6,5.9-5.2,5.9-4.8
	c0.1,0.8-5.1,8-9.9,13.7c-2.9,3.4-10.6,11.3-10.6,10.8C939.1,458.8,939.9,457.4,940.9,455.8z M948,415.1c-0.8-0.5-1.8-1.2-2.2-1.7
	c-0.6-0.8-0.7-1-0.2-1.5c0.3-0.3,1.8-1.6,3.4-2.7c2.9-2.1,2.9-2.1,3.8-1.7c2.1,1,2.1,0.9,1.2,5.1c-0.8,4.1-1,4.3-3.1,3.8
	C950.1,416.1,948.8,415.6,948,415.1z M967,410.8c-0.7-0.4-1.6-1-1.9-1.4c-1.2-1.3-3-4.1-2.9-4.6c0.2-0.9,9.2-4,10.5-3.7
	c0.7,0.2,0.5,4-0.4,6.9c-1,3.1-1.2,3.5-2.2,3.6C969,411.9,968.5,411.7,967,410.8z M941.1,398.6c0-0.4,0.4-2.2,0.9-3.9
	c0.7-2.6,1.1-3.4,1.8-4.3c1.1-1.3,1.7-1.3,3.1,0c1,0.9,4.3,6.5,4.2,7c-0.1,0.6-1.1,0.9-4.5,1.5C942,399.8,941.1,399.8,941.1,398.6z
	 M960.6,396.6c-1.1-1-1.1-1.7,0-6.4c1-4.1,1.4-4.7,3.1-4.7c1.8,0,3.4,0.7,3.9,1.8c0.4,0.8,0.4,1.1-0.2,2.8c-0.3,1.1-1,2.4-1.5,3.1
	c-0.9,1.2-4.1,4.3-4.3,4.2C961.5,397.4,961.1,397,960.6,396.6z M912.2,464.5c-4.1-6.4-10-11.8-11.6-10.6c-1.7,1.3,0.9,5.5,5.3,8.6
	c2.3,1.6,7.6,4.7,7.7,4.5C913.7,467,913.1,465.8,912.2,464.5z M895.5,440.8c-1-0.3-1.8-1.8-1.9-3.5c-0.2-2.6,1.5-8.8,2.5-9.1
	c1.1-0.4,3.4,4.3,3.4,7.2c0,1.6-0.4,3.2-1.1,4.1C897.7,440.4,896.3,441,895.5,440.8z M905,422c-1.6,0.5-2.8,0.5-3.3,0.4
	c-0.2-3.9,7-12.6,10.4-11.1c1.2,0.7,0,5.6-2.1,7.9C909.1,420.3,906.8,421.6,905,422z M877.3,426.1c-0.7-0.5-0.7-0.6-0.7-1.5
	c0-1.3,1.4-3.7,2.6-4.7c1.8-1.4,4.6-1.5,7.8-0.3c2.5,0.9,2.6,2.2,2.5,3.5c0,0.3-3.2,2.4-4.5,3C881.5,427.7,878.2,426.7,877.3,426.1z
	 M892.9,414.1c-2.5-5.2-2.8-7.6-1.2-9.8c2-2.9,3.5-3.1,4.9-0.6c0.9,1.7,1.4,4.1,1.4,7.4c0,2-0.5,6.9-0.7,7.1
	C896.4,418.5,894.2,416.5,892.9,414.1z M975.9,414.8l-13.5,55.1h-21c6.4-5.6,10.5-15.2,14.9-20.8c7.8-9.9,11.5-16.7,10.7-20.2
	c-0.5-2.2-2.4-3.5-4.5-3c-2.2,0.5-9.5,5.8-13.6,10.1c-2.5,2.6-3.5,3.8-6.5,7.7l-2.5,3.3l0.8-2.4c2.7-8.6,6.1-17.7,7.5-20.4
	c1-1.9,1.1-2,2.7-1.8c2.9,0.3,4.9-0.4,6.5-2.6c0.8-1,1.1-1.7,1.7-4.3c0.4-1.7,0.8-3,0.8-3c0,0,0.4,0.4,0.9,1
	c2.2,2.4,6.6,4.4,9.4,4.2C972.4,417.3,974.9,416.3,975.9,414.8z M1027.8,256.9l-4.5-2.7c-4.8-2.9-9.4-5-13.2-6c-3-0.8-4.9-0.5-7,0.8
	c-1.8,1.1-5.8,5.6-3.4,7c2,1.8,7.1,3.5,11.4,3.8C1016.8,260.1,1025.3,258.8,1027.8,256.9z M1032.8,247.2l-1-4.1
	c-0.5-2.3-1.1-4.8-1.3-5.7c-0.4-2-1.8-4.6-3.2-5.9c-0.6-0.6-1.8-1.3-2.7-1.7c-1.4-0.5-2-0.6-4.1-0.5c-2.3,0.2-2.7,0.3-4.3,1.2
	c-1.8,1.1-3.9,3.4-3.9,4.2c0.1,1.9,3.6,5.2,11.6,11.3l5.7,4.3C1030.3,249.2,1031.9,247.7,1032.8,247.2z M1045.2,242
	c0.5,0.1,0.9-1.6,3-11.1c1.5-6.9,1.9-9.5,1.5-12c-0.3-2.4-6.3-2.2-7.7-1.3c-1.9,1.1-4.4,4.2-5.3,6.4c-1.4,3.6-1.6,8.6-0.3,12.3
	c0.4,1.1,1.6,5.9,2.2,7.8C1039.9,242,1044.1,241.8,1045.2,242z M1010,241.9c-1.3-1.8-3.6-5.7-3.4-8.3l-1.4-0.6
	c-2.9-1.3-6.3,0-7.5,2.7c-0.4,1.1-0.3,2.9,0.3,4.2c0.5,1,2.8,3.3,3.2,3.3C1003.1,241.9,1007.6,241.7,1010,241.9z M1030.5,225.5
	c0.5-2.1,1.9-6.2,3-7.5c0.6-0.7,0.6-1,0.4-2.2c-0.5-3.2-3.5-4.7-6.7-3.3c-2.2,0.9-4.7,7.2-4.8,10.9
	C1024.7,222.7,1028.6,224.4,1030.5,225.5z M1015.9,224.1c0.3-0.3-1.9-3.5-2.9-4.1c-0.8-0.5-1.2-0.6-2.2-0.4c-1.7,0.3-2.6,1.4-2.5,3
	c0.1,1.2,1.7,4.7,2.1,4.7C1011.6,225.3,1015.8,224.2,1015.9,224.1z M1075.6,410c3.9-7.4,8.4-14.3,14-21.4
	c9.5-12,14.7-20.1,15.7-24.8c1.2-5.5,0.8-10.1-0.9-11c-1.9-1-6.4,1.1-10.7,4.9c-4.6,4.1-10.7,14.6-14,24.2
	c-2.9,8.4-5.2,18.4-5.3,23.3c-0.1,3,0,6.5,0.2,6.5C1074.7,411.6,1075.1,410.9,1075.6,410z M1062.2,429.8c-2-18.2-6.5-37.3-11.8-50.8
	c-1.7-4.3-4.8-10.7-7.1-14.9c-4-7-9.6-14.6-12.5-16.8c-0.5-0.3-1.1-0.1-1.2,0.7c0,5.8,5.1,23.4,12.1,41.5
	c4.3,11.4,7.2,17.8,14.3,31.8c2.2,4.3,4.5,8.9,5.1,10.1c0.6,1.2,1.2,2.2,1.3,2.2C1062.5,433.7,1062.4,431.9,1062.2,429.8z
	 M1084.4,341.8c6.1-4.3,8.1-5.9,14.3-11.6c11.6-10.6,15.8-15.2,18.9-21c2.6-4.8,4.1-10.9,2.8-11.9c-1.4-1.1-10.1,4-16.6,9.8
	c-7.6,6.8-17.1,18.7-23.6,29.4c-3.9,6.5-4.5,10.8-4.6,11c-0.1,0.4,0.2,0.3,1.7-0.8C1078.6,346,1081.7,343.8,1084.4,341.8z
	 M1068.8,344.3c-0.3-1.2-1.1-5.7-1.8-9.9s-1.7-8.7-2.1-10c-1.6-5.3-5-13-7.3-16.4c-2.3-3.5-5.4-6.4-6.3-5.9
	c-0.9,0.5-0.6,5.5,0.6,9.4c1.5,4.7,4.9,13.1,7.9,19c3.5,6.9,8.7,16.1,9.2,16C1069.1,346.6,1069.1,345.7,1068.8,344.3z M1085.3,315
	c3.2-5.8,4.6-9.6,9.6-26.9c2.3-7.9,4.2-17.9,4.7-24.8c0.2-3.3-0.2-9.7-0.6-9.6c-0.6,0.1-2.7,2.6-4,4.8c-4.3,7.3-6.8,13.7-10,26
	c-2.8,10.6-4.1,17.1-5.4,26.1c-0.8,5.5-2,15.5-1.9,16.1C1077.9,327.2,1083.1,319.1,1085.3,315z M1031.5,167.4
	c-3.3-4.3-15-17.6-21.3-24.3c-9.8-10.3-16.5-15.6-25.2-19.6c-3.7-1.7-6.5-2.3-9.1-2c-3.8,0.5-5,2.1-4.3,5.7
	c1.2,6.2,7.9,13.4,19.7,21.1c8.3,5.4,18.5,11,26.7,14.7c3.9,1.7,13.7,5.5,14.1,5.5C1032.1,168.4,1031.9,167.9,1031.5,167.4z
	 M1042.3,161.8c0.5-1.3,2.2-5.4,3.9-9.3c9.8-22.5,12.5-31.1,13-40.9c0.2-4.8-0.9-14.5-2-16.9c-0.7-1.5-0.7-1.5-1.6-1.4
	c-4.1,0.5-10.4,13.5-14.3,29.1c-1.9,7.6-2.8,14.5-3.1,22.5c-0.1,2.7,2,13.3,2.4,15.4c0.4,2.1,0.7,3.8,0.8,3.8
	C1041.4,164.1,1041.8,163,1042.3,161.8z M1029.3,136c-5.6-26.5-8.7-36.9-15.8-52.1c-5.5-11.9-9.3-17.4-12.6-18.7
	c-2.2-0.8-3.2,0-3.6,2.8c-1.5,9.6,4.5,30.1,15.5,52.9c4.7,9.5,12.9,30.8,19.7,36.3C1032.2,151.9,1030.6,141.2,1029.3,136z
	 M1068.9,178.4c0.3,0.7,0.7,1.4,1.2,2.1c4-8.5,5.5-18,4.2-27.4c-0.3-2.6-1.7-6-3.9-6.4c-5.2,0.8-5.5,6.3-5.5,8.7
	C1064.6,163.3,1066,171.1,1068.9,178.4z M1097.7,161.2c-4.9-0.1-9.6,2-12.8,5.7c-3.6,4.5-6.6,9.4-8.8,14.8
	c5.8-1.5,11.3-4.3,15.8-8.3c3.1-2.7,5.4-6.1,6.7-10C1098.8,162.4,1098.8,161.1,1097.7,161.2z M1082.7,141.3c-2,0.2-4.9,3.8-4,6.1
	c1.8,5,2.4,10.4,1.7,15.7c2.8-3.1,6.3-5.5,10.3-6.9c3.3-2.3,4.5-6.8,2.6-10.4C1090.5,140.7,1085.2,140.8,1082.7,141.3z
	 M1073.3,241.6c0.1-1.3,0.6-6,0.9-10.4s0.9-9.2,1.2-10.6c1.1-5.6,3.9-14,5.9-17.8c2-3.9,5-7.2,6-6.7c1,0.4,1.1,5.6,0.3,9.9
	c-1,5.1-3.8,14-6.3,20.5c-2.9,7.5-7.5,17.5-8,17.5C1073.2,244,1073.2,243.1,1073.3,241.6z M1030.4,377.4
	c4.3,18.8,14.2,35.1,24.7,55.5c4.2,8.2,6.6,13.4,9,19c1.2,2.4,2.1,15.4,2.1,17.9h-35.8V377.4z M1030.4,263.3
	c3.1,0.9,8.6,0.8,11.4-0.7c14,14.8,21.2,30.5,27.8,57.3c-1.3-3.9-3.5-8.9-5.3-12.2c-6.3-12.1-14.8-16.2-18.7-9.2
	c-1.2,2.1-1.4,4.1-0.8,8.4c0.6,4.9,2.3,9.9,6.5,19.4c4.4,10,12.9,25,16.2,28.8c0.8,1.6,0.8,5.8,0.5,8.2c-0.7,7.6-1.9,29.5-2.3,39.6
	c-0.1,3.8-0.3,6.1-0.5,5.7c-0.1-0.4-1-3.8-1.8-7.6c-4.1-17.6-9.1-30.7-16.7-43.4c-6-10.1-11.8-21-16.3-19.5V263.3z M814.3,406.1
	c-1.5,3-10.9,12.3-12.3,13.6c-3,2.8-6.4,6.7-8.8,9.9c-1.3,1.8-4.2,6.7-6.3,11.9c1.6-14.1,1.4-16.8,0.8-30.2c-0.1-2.9-0.4-8.8,1-11.8
	c0.8-1.3,3.3-5.3,5.6-9.1c3.7-6.1,4.5-7.6,7.3-14.5c2.5-6.1,3.2-8.4,3.6-11.1c0.7-4.7,1.1-10.9,0.9-15.8c-0.1-2.3-0.1-7.5-0.1-11.5
	c0-12-0.3-15.5-1.1-16.5c-2.2-2.8-6.4,2.2-8.4,9c-3.6,9.5-9.5,27.2-11.2,33.4c-1.7,6.4-1.8,6.4-2.7,1.7c-1.7-8.6-1.2-11.8,4.4-28.9
	c2.5-7.7,4-11,8.1-18.4c4.4-7.8,9.5-14.3,19.2-25V406.1z M786.8,469.8c4.8-4.9,16.4-16.4,22.8-31.4c1.3-2.3,2.9-6.3,4.7-10.7v42
	H786.8z M713,397.4c3.5,5.2,14.1,5.7,19.2,5.3c2.1,1.8,4.4,5.7,5,7.7c0.3,0.4,0.3,0.4-0.7,0.2c-4.4-1-8.2,0.3-9.5,3.3
	c-1.1,2.5-0.3,5.6,2.2,8.9c2.7,3.5,7,6.5,16,11.1l6.2,3.2l2.1,7.4l-1.4-1.5c-1.6-1.7-3.3-2.7-5-3c-1.7-0.3-4,0.7-4.9,2.1
	c-1.8,2.7-1.7,4.7,0.1,9.8c0.7,2,1.8,4.5,2.4,5.4c1.4,2.5,4.8,9.2,7.6,12.3H713V397.4z M1132.9,398.6c1.6-2,5.4-2.6,8-2.1
	c1.3,0.3,2.2,1.6,2.1,2.9c-0.5,2.9-2.4,5.4-5.1,6.6c-5.5,3.2-11.9,4.2-18.1,2.9c-3.1-0.9-6-2.4-8.4-4.6c-2.1-1.6-4.1-3.4-5.9-5.5
	c-1-1.1-1.3-2.7-0.6-4.1c0.7-0.8,1.9-1.1,2.9-0.7c3.8,1.6,7.6,3.5,9.7,7c1.1,1.2,3.6,0.3,3.5-1c-1.2-3.4-0.7-5-0.3-8.6
	c0.1-1.1,0.7-2.1,1.7-2.7c1.6-0.4,3.3,0.4,4.1,1.8c1.2,1.8,1.5,3.9,1,6C1127.5,400.3,1131.5,400,1132.9,398.6z M1137.2,459.9
	c-3.7,4.7-5.3,6.6-11.7,9.5l-0.2-4.1c2.2-4.8,5-9.2,8.3-13.3c2.6-3.6,7-8.5,10.2-11.6c0,2-0.1,4.7-0.3,10.4
	C1142.3,453.5,1138.9,457.5,1137.2,459.9z M1100.8,419.5c4.2,4.4,7.6,9.4,10,15c2.7,5.8,5,11.8,7.1,17.9c0.1,2.4,0.1,4.7,0,7.1
	c-8-8.7-13.5-19.4-15.7-31c-0.8-3.3-1.5-6.6-2.1-9.8L1100.8,419.5z M1143.5,460.1v9.8h-7.7C1138.8,466.8,1141.5,463.4,1143.5,460.1z
	 M1143.5,391.6c-3.7-1.6-7.5-0.5-10.6,2c-0.2-3.4-2-6.5-4.7-8.5c-4-2.9-7.7-1.8-9.9,0.2c-2.1,2-3.2,4.9-3,7.9
	c-1.8-1.6-3.9-2.8-6.1-3.7c-3.3-1.4-7.2-0.3-9.3,2.6c-1.8,2.9-1.7,6.5,0.2,9.3c1.8,2.5,3.9,4.6,6.4,6.4c3.7,3.3,8.1,5.7,12.9,6.9
	c-0.7,9.6-1.6,13.7-1.3,23.3c-2.7-7.1-6.5-13.8-11.1-19.8c-13.1-14.7-13.7-4.3-13.1-2.2c1.3,8.8,3.5,17.5,6.4,25.9
	c4.1,9.8,8.1,20.5,15.7,28l-40.6,0c0.5-4.3-3.1-38.4-1.2-42.3c4.1-8.4,12.8-25.9,20.9-36.5c12.3-16,15.6-21.8,16.9-29.5
	c1.6-5-0.6-10.7-1.4-11.9c-2.5-3.9-6.8-5-11.6-3c-6.4,2.6-12.4,8.4-17.2,16.5c-2.5,4.2-5.8,11-7.2,14.9c-0.6,1.6-1.1,2.9-1.2,2.9
	c-0.2-0.1,0.3-18.6,0.9-22.8c0.2-1.2,3.1-3.7,12.1-10.1c7.7-5.5,9-6.5,13.8-10.9c11.4-10.3,17.5-16.6,20.7-21.4
	c7.1-10.8,8.5-20.3,3.6-23.9c-2.9-2.1-6.4-1.5-12.6,2.1c-4.1,2.7-12.2,9.3-16.3,13.1l3.1-10.3c3.6-11.8,4.9-17.1,6.2-25.3
	c1.2-7.4,1.4-15.7,0.5-19.4c-1.2-5.3-5.2-7-9.4-4.1c-3.5,2.4-8.2,10.3-11.9,20c-1.4,3.7-4,9.8-6.4,21.3c-0.1-0.3-2.2-24.6-2.8-29.9
	c-0.4-1.8,0-5.6,1.1-7.8c3-4,10-19.8,13.4-30.2c3.2-9.8,4.4-15,4.6-19.9c0.1-4.3-0.2-6.3-1.6-8.3c-4.6-6.6-12.6-1.7-17.7,10.9
	c-1.4,3.4-5.6,14.2-5.6,20.7c-5.1-14,4-33.2,4.9-35.7c5.7-1.3,11.2-3.4,16.3-6.3c6.6-3.8,11.6-9.8,14.3-16.9c1.5-3.8,3-9.2-5-10.6
	c3-7.5-0.7-16.1-8.2-19c-5.1-2.5-11.3-1.7-15.7,1.9c-0.9,0.9-1.6,2-2.1,3.1c-4.4-2.1-9.7-0.5-12.2,3.8c-1.9,3.1-2.9,6.7-2.9,10.3
	c-0.4,9.3,1.3,18.6,5.1,27.1c1,1.8,2.1,3.4,3.4,5c-4.9,8.2-5.2,9.1-7.2,16.3c-3.1-9-12.2-25.1-15.7-30.9l7.4-17.5
	c9.6-21.8,12.8-31.9,13.5-42.3c0.5-7-0.8-17.2-2.6-21.3c-1.6-3.7-4.9-7.5-11.3-3.2c-4.3,2.9-9.3,12-13,23.5
	c-1.3,4.1-3.2,11.3-3.9,15.1l-0.4,2.1l-1.4-6.2c-4.5-19.8-8-30-14.9-44.4c-4.6-9.4-7.8-14.5-11.1-17.2c-6-5-12.8-3.6-14.7,3
	c-1,3.3-1,5.7,0,12.9c1,7.4,1.6,10.2,5,20.3c3.8,11.5,9.1,23.6,16.8,38c1.7,3.3,3,5.8,2.9,5.7c-0.1-0.1-1.7-1.7-3.4-3.6
	c-5.1-5.3-7.4-7.4-12.1-11.2c-7.8-6.2-15.8-10.2-22-11.1c-1.8-0.3-11.8-2-13.5,7.5c-0.5,2.2,0,6.1,1.2,8.9c1.7,4.1,5.9,9.3,11.2,14
	c6.1,5.4,21.3,14.8,33.2,20.6c9.7,4.7,23.5,9.8,25.7,9.6c0.7-0.1,2.6-0.3,5.1,4.3c3.8,6.9,5.4,10.1,7.4,14.6
	c2.9,6.8,9.1,20.8,11.9,30c2.4,9.4,4.8,17,7.7,34.4c2.1,12,3.3,27.5,3.2,41.5c-2.8-6.7-5.5-18.4-24-40.6c1.5-1.9,2.4-7.4,1.7-10.6
	c-0.2-1.1-0.1-1.6,0.9-4.2c1.2-2.9,2.9-10.2,4.5-18.9c0.7-4,0.7-8.1-0.1-10.9c-0.8-2.7-3.3-5-6.1-5.4c-2.9-0.4-7.8,0.7-9.8,2.3
	c-1-5-6.9-6.4-10.2-6.2c-6.2,0-10.1,6.4-11.1,10.1c-2.4-2.6-8.6-3.6-12.9,0.3c-1,1.1-1.6,2-1.9,3.2c-0.5,1.7-0.5,4.3,0.1,5.8
	c0.3,0.9,0.3,0.9-0.7,1c-1.4,0.1-4.2,1-5.5,1.8c-1.5,0.9-3.5,3.2-4.3,4.8c-1.8,4.1-0.8,9.3,2.6,12.7l1.3,1.3l-1.1,1.4
	c-2.4,3.1-3.1,5.3-2.3,7.8c1.3,4.2,7.4,13.5,19.2,10.5l-33.3,136.2c0.2-2.2-0.5-3.7-1.2-4.8c-1.1-1.7-3.2-2.7-5.2-2.6
	c-0.5,0-1,0-1,0c0-0.1,0.3-0.9,0.8-1.8c2.2-4.4,1.3-9.5-2.2-12c-1.4-1-4.5-1.9-6.4-1.9c-2.7,0-4.9,1.3-6.4,3.5
	c-0.3,0.5-1.1,2.5-1.6,4.5l-1.1,3.6l-1.4-2.2c-2.2-3.5-4.9-5.5-7.7-5.5c-3.8-0.1-7,3.1-8.8,9c-0.9,2.8-1.3,6.1-1,7.7
	c0.6,2.9,2.7,4.7,5.8,4.9c1,0.1,2.1,0.1,2.5,0c0.7-0.1,0.7,0-0.5,1c-3,2.4-4.2,5-3.7,7.5c0.3,1.5,1.8,3.8,3.3,5c1.2,1,1.3,1,0.6,2
	c-0.7,1.1-2.9,6.5-4.6,11.4c-2.4,7.1-2.4,7-2.4,3.2c0-8.1-0.4-16.8-6.4-17c-0.3-19.3-1.4-25.1-0.5-40.6c0.1-1.9,0.3-5.7,0.4-8.3
	c0.2-7,0-6.5,2.3-6.6c3.5-0.2,10.6-3,14.3-5.6c3.3-2.3,5.6-5.5,5.9-8.1c0.4-3.3-2.8-6.2-7.1-6.4c-3.6-0.2-8.4,2.2-12,5.7
	c-1.2,1.2-2.2,2-2.2,1.8c0-0.3,1.4-13.9,1.5-14.9c0.1-0.4,1.3-1.4,3.5-2.9c13.1-8.9,18.9-15.4,18.6-20.8c0-4.1-4.1-5.5-7.6-3.6
	l0.4-0.8c1.5-3.5,1.8-10.2,0.5-12.1c-2.4-3.7-6.4-1.9-10.5,4.7c0.2-2.7,1.5-8.9,2.4-12.1l3.6-0.3c6.2-0.5,11.5-2.3,15.6-5.3
	c3.9-3,6.2-6.7,6-9.8c-0.2-3.4-2.6-5-7-4.8c-3,0.2-10.3,2.5-14.5,4.9c0.6-4.3,2.9-11.7,4.2-15.2l2.3-0.1c3.5-0.2,10.3-2.5,14.1-4.8
	c4.2-2.5,8-6.7,8.6-9.7c0.8-3.4-2-6-6.3-5.7c-2.7,0.2-8.3,2.8-11.7,5.5c-0.9,0.7-1.7,1.1-1.7,1c-0.2-0.5,0.4-2.2,2.9-8.7l2.5-6.4
	l2.2-0.3c2.8-0.4,4.3-0.9,7.7-2.6c3.6-1.8,5-2.8,6.8-4.8c2.9-3.2,3.9-7.3,2.4-9.3c-1.2-1.5-4.3-4.9-12,1l5.4-12.6
	c2.2-0.5,6.4-3.8,8.2-7.6c2.3-4.1,4.1-10.8,3.7-13.6c-0.4-2.5-2.3-4-5-3.8c-3.6,0.3-7.8,4.7-9.6,10.2c-0.9,2.6-3.1,10.3-2,12.7
	l-2.3,5.7l-0.4-2.7c-0.8-5.8-2.9-9.2-5.8-9.6c-2.3-0.3-4.9,2.1-5.8,5.2c-1.6,5.4-0.7,12.7,2.7,21.5c0.6,1.6,1.2,3.2,1.2,3.4
	c0,0.5-3,7.8-3.2,7.8c-0.1,0-0.4-0.8-0.6-1.8c-1.1-4.4-3.5-8.3-5.7-9.5c-1.1-0.6-1.5-0.7-2.8-0.5c-4.1,0.6-5.8,5.4-5.3,15
	c0.3,5.7,0.6,6.9,3.5,15.3l2,5.7c-1.1,3-2.7,6.3-3.9,12.8c-0.1-0.1-0.3-1.5-0.6-3.2c-0.8-5.3-2.1-9.7-3.6-12.4
	c-1.2-2.1-2.7-3.1-4.4-3c-2.1,0.1-5.1,1.4-4.9,10.1c0.2,3.8,0.2,9.3,2,13.3c-4.8-3-7.3-1.9-8-1.5c-1.7,1-2.4,2.6-2.4,5.4
	c0,3.9,1.7,7.5,5.2,10.5c2.5,2.2,6.9,4.3,10.9,4.7c0,0.2-2.3,11.2-2.7,15.1c-2-3.7-4.5-5.5-6.2-6.3c-2-1-3.4-1.1-4.9-0.3
	c-3.4,1.8-3.7,6.7-0.9,16c1.4,4.5,2.1,6.2,5.7,12.8c2.8,5.1,2.8,5.2,2.7,6.8c0,0.9-0.2,1.7-0.3,1.8c-0.1,0.1-0.5-0.9-1-2.1
	c-1.6-4.6-3.7-7.6-5.9-8.5c-1.5-0.6-2.2-0.5-3.7,0.3c-0.9,0.5-1.3,1-1.8,2.2c-0.6,1.4-0.6,1.8-0.5,4.8c0.2,3.7,1.1,7.4,2.7,11.4
	l1,2.4l-2.8-1.2c-5.1-2.3-8.2-2-9.5,0.9c-1.3,3,0.5,7.2,4.7,11c3.7,3.4,8.1,5,12.4,4.5l2.1-0.3l0,2.5c0,3.5-0.2,8.1-0.5,13.7
	c-1,18.3-1.3,21.4-1,44.2c-1.7,1.9-3.1,6.1-3.6,10.6c-0.6,5.1-0.2,15.5,1.6,22.8c-1.4-3.1-4.6-10.3-6.5-13.7
	c-2.9-5.8-5.4-9.7-7.6-12.1c-0.8-0.9-1.4-1.6-1.4-1.6c2.8-0.6,6.3-2.8,7.7-4.4c2.6-2.9,4.4-7.8,4.2-11.2c-0.1-1.8-1.2-4.1-2.3-5.1
	c-1-0.8-3.1-1.5-4.5-1.4c-1.6,0.1-5,2-6.7,3.6c-0.6,0.6-1.1,1-1.1,1c0,0-0.1-0.8-0.2-1.8c-0.3-4.1-1.8-7.9-4-10.1
	c-1.1-1.1-4.6-2.2-6.1-1.8c-3.7,0.9-7.3,4.8-8,8.7c-0.4,2-0.2,4.4,0.5,6.6l0.6,1.8l-1.2-0.2c-6.1-1.1-11.8,2.5-13.7,8.7
	c-0.8,2.7,0.3,7.4,2.6,9c3.1,2.1,9.2,2.3,13.2,0.5l1.8-0.8l-0.4,1.8c-0.5,1.9-0.7,4.7-0.6,6.2c0.2,1.7,1.1,3.9,2.2,5.3
	c4.7,6.1,14,1.8,14.8-6.8l0.2-1.7c4.2,6.7,9.1,16.4,11.1,22.2c-1.6-0.6-4.4-2.9-5.4-4c-3.6-3.7-7-5.7-9.9-5.6
	c-2.8,0.1-4.9,1.6-5.9,4.3c-1.7,4.4,1.4,13,10.3,17.5h-31L832,280.5c6.7,1.4,11.9,2.1,15.9,1.7c5.5-0.5,9.7-2.6,10.9-5.4
	c2.6-4.5,1.1-11-1.9-13.3l2.2-1.7c3.7-2.8,5.9-5.7,7.6-9.9c1.5-3.6,1.5-3.7,0.7-5.3c-1-2-2.2-5-11.6-4.5c3.7-5.9,0.4-10.8-2.5-11.9
	c-2.8-1-5.1-0.2-11.7,4.1c-3.2,2.1-6.8,4.3-8,4.9c-3.4,1.6-4.3,2.6-5.6,5.8c-1.8,4.5-5,22.4-4.8,26.3l0.2,2.3l-5,5.6
	c-2.8,3.1-5.2,5.8-5.5,6c-0.3,0.2,0.1-1.5,0.9-3.8c3.5-10.5,4.1-24.4,1.6-36c-1.4-6.3-2.3-8.6-3.9-9.3c-1.6-0.6-4.1,0.2-4.2,1.4
	c-0.2,2-3.1,18.8-3.8,22.2c-0.5,2.1-1.9,7.6-3.2,12.2c-1.3,4.6-2.8,10.4-3.2,12.7c-1,5.7-1.5,13.3-0.9,16.6c0.6,2.8-1.1,4.8-1.8,6.1
	c-4.9,7.4-7.3,12-10.6,20.5c-1.8,4.5-2.2,5.2-3.3,8.1c-0.2-0.5,0.6-21.2,1-26.5c0.8-10.1,1.4-15,3.9-31.7
	c3.1-20.4,5.7-34.7,8.6-46.5l2.4-9.6l2.5-2.2c1.4-1.2,4-3.5,6-5.1c5.1-4.3,9-9,13.6-16.8c7.4-12.2,10.3-18.5,13.2-29.2
	c3.1-11.2,5.3-27,3.9-29.1c-1.6-2.4-4.3-1.9-6.3,1.2c-0.7,1.1-2.9,4.3-4.8,6.9c-5.3,7.4-8.4,13.2-11.4,21.8
	c-2.6,7.3-7.1,17.5-9,19.6c-0.2-0.1,0.9-5.1,2.1-10.2c2.8-12.1,3.7-15.5,6.3-22.8c2.4-7,2.3-6.8,9.7-14.6
	c11.9-12.6,15.4-19.7,13.5-27.5c-1.1-4.4-3.7-6.5-6.5-5.3c-1.5,0.6-1.7,0.9-7.1,7.1l-3.1,3.7l-0.2-2.8c-0.4-6.1-1.9-9.3-4.5-9.8
	c-2.6-0.5-4,1.1-9.2,10.4c-3.7,6.6-5.3,11.4-5.1,14.9c0.2,4.2,2.2,8.4,5.8,12.7l3.1,3.6l-2,5.9c-1.8,5.2-3.8,12.2-5.1,17.5l-0.4,1.7
	l-0.4-2.9c-0.9-6.8-2.9-13-6.4-19.6c-1.3-2.5-3.5-6.9-4.8-9.7c-3.7-8.1-6.1-10.4-8.8-8.5c-1.3,0.9-1.4,2.1-0.8,6.1
	c0.3,1.7,1.2,16.6,1.3,19.6c0.2,6.8,0.4,9,1.6,17.7c1.3,9.5,1.5,13.1,0.8,20.3c-0.3,3.3-0.5,7.3-0.3,9c0.3,3.8,2.5,9,5.1,12
	c1,1.2,1.9,2.6,1.9,3c0,0.4-1.1,5.3-2.5,11c-1.4,5.6-3.4,15.4-4.5,21.6c-2.3,12.9-6.4,39.8-7,46.9c-0.2,2.6-0.5,4.8-0.6,5
	c-0.6-1.2-0.8-2.1-1.6-4.9c-0.8-2.9-2.4-8.3-3.6-12.1c-2.4-7.7-4.3-15.3-5.5-22.4c-1.2-6.8-0.3-10.6,4.1-18c3.1-5.2,5.6-12.3,5.6-16
	c0.3-6.1-4.4-8.1-8.2-6.2l-1.2-3.2c-1.6-4.4-3.2-6.4-6.5-8c-3-1.5-5.7-1.9-7.7-1.2c-3.2,1-4.3,5.6-3.9,8.3c-1.8-1.7-4.9-1.9-6,1.2
	c-0.9,2.4-0.4,10.9,1,15.2c1.5,4.9,5,9.7,10.4,14.5c4.4,3.9,5,5,6,11.3c0.5,3,1.2,6.8,1.5,8.4l0.6,2.9l-3.2-3.7
	c-4.4-5-16.4-14.6-20.3-16.2c-3.6-1.5-6.2,0.4-5.5,3.9c0.4,2,4.3,8.2,10.1,16c6.4,8.6,10.9,14.8,13.9,19.2c1.4,2,3.7,4.7,5.3,6.1
	c3.1,2.7,7.3,5.8,8,5.7c2.7,3.7,2.9,11,3.2,20.2c0.1,3.3-0.6,7,1.1,15c-3.7-6.9-9.9-12.6-14.2-16.6c-4.3-3.9-7.9-5.8-11.1-5.6
	c-2.2,0.1-5,3.5-2.9,6.4c3.2,5,4.2,6.9,6.8,11.7c2.2,4.2,3.9,8.4,8.3,21.2c1.5,4.3,3.3,9,4,10.5c2.6,5.2,10.6,17.6,14.2,21.8
	c2.1,2.5,2.5,4.7,3.3,17.5c0.8,14.7,0.8,20.1-0.9,34.9c-2.4-1-4.5-1.9-10.5,3c0-0.1,1-7.7,1-8.7c-0.1-4.3-2-6.7-5-6.2
	c-2.5,0.4-5.2,4.3-6.6,9.7c-0.4,1.6-0.8,2.8-0.8,2.8l-2.5-8.2l0.8-1c1.1-1.4,4-7.5,5-10.3c1.7-4.8,2.5-9.1,2.8-13.9
	c0.1-2.5,0.1-3.1-0.6-5.1c-0.6-2-0.8-2.4-1.5-2.8c-1.3-0.9-2.6-1.2-4-0.7c-1.6,0.5-2.7,1.5-4,3.6c-0.6,0.9-1.1,1.6-1.1,1.6
	c-0.1,0-0.4-0.6-0.7-1.4c-0.9-2-1.5-2.9-2.8-3.8c-3.1-2.2-7.3-0.5-8.5,3.5c-0.4,1.3-0.6,1.5-0.8,1.2c-0.7-1.7-2.5-4.7-3.9-5.7
	l0.8-1.8c1.6-3.8,2.1-6.5,1.9-10.3c-0.1-2.2-0.3-3.1-1.4-6.6c-1-3.2-1.4-4.3-2.2-5.3c-1.8-2.6-4.6-3.2-6.8-1.5
	c-1.9,1.5-2.7,4.5-2.6,10c0,1.8,0,3.3,0,3.3c-4.2-3.3-11.1-8.2-13.6-6V12.1h161.3l51.8,225.7l2.2,0l58.3-225.7h156.9V391.6z
	 M1143.5,409.9v23.5c-5.6,5.3-13.8,14.5-17.9,21c0.4-11.9-0.4-27,1.7-39.4C1132.5,414.5,1139.1,412.8,1143.5,409.9z M840.6,224.8
	c1.4-1,2.8-2.2,4.1-3.4c1.4-1.1,2.8-2.1,4.2-3.2c1.1-1,2.1-2.3,2.9-3.6c1-1.5,2.2-2.8,3.5-3.9c2.4-2.5,4.6-5.4,6.4-8.4
	c1.2-2.4,2-4.9,2.5-7.5c0.3-2-0.5-4-2-5.3c-1-0.9-1.9-1.8-2.8-2.8c-0.4-0.4-0.6-1-0.5-1.5c0.1-0.1,0.3-0.1,0.5,0.1
	c0.6,0.9,1.5,1.6,2.4,2.1c0.8,0.3,1.6,0.6,2.5,0.9c0.8,0.4,1.4,1,1.8,1.7c0.6,0.9,1.4,1.7,2.3,2.3c0.6,0.2,1.2,0.5,1.8,0.8
	c0.7,0.5,1.3,1.1,1.8,1.9c0.9,1.2,2.2,2.2,3.6,2.8c1.5,0.9,2.8,2.1,3.9,3.5c0.7,0.9,1.4,1.7,2.3,2.3c0.6,0.3,1.1,0.6,1.8,0.9
	c0.8,0.4,1.4,1,1.9,1.7c1,1.2,2.2,2.2,3.5,2.9c1.2,0.9,2.4,1.9,3.6,2.9c1,0.8,2.1,1.7,3.1,2.5c0.9,0.7,1.9,1,3,1.4
	c0.7,0.3,1.4-0.1,0.6-1.7c-0.7-1.4-1.8-2.5-3-3.5c-1.5-1.3-3-2.6-4.5-3.9c-0.7-0.8-1.5-1.6-2.3-2.4c-0.7-0.5-1.4-1-2.2-1.4
	c-0.7-0.5-1.4-1.1-1.8-1.8c-0.7-1.1-1.7-2-2.9-2.6c-1.5-0.8-3-1.9-4.2-3.1c-0.7-0.9-1.4-1.7-2.2-2.5c-0.9-0.7-1.8-1.2-2.8-1.7
	c-0.7-0.5-1.3-1.1-1.7-1.9c-0.5-1-1.4-1.7-2.4-2.2c-0.6-0.3-1.2-0.6-1.7-0.9c-0.7-0.5-1.2-1.3-1.5-2.1c-0.5-1.2-1.5-2.2-2.6-2.8
	c-0.3-0.1-0.6-0.4-0.9-0.6c-0.1-0.1,0-0.3,0.3-0.2c0.8,0.2,1.6,0.6,2.2,1.2c1,0.9,2,1.7,3.1,2.5c1.3,0.8,3,0.9,4.4,0.5
	c3.2-0.9,6.1-2.5,8.7-4.7c2.8-2.5,5.3-5.3,7.5-8.3c1.1-1.1,2.2-2.2,3.4-3.2c1.2-1.3,2.3-2.7,3-4.3c1-1.7,2-3.4,3.2-5
	c0.6-0.9,1.1-1.9,1.4-3c0.8-2.5-2.5-2.6-3.3-2.5c-1.5,0.3-3,0.8-4.3,1.5c-2.2,1.1-4.2,2.5-6,4c-1.4,1-2.8,2.1-4.2,3.2
	c-2.3,2-4.8,3.9-7.4,5.6c-2.9,2-5.9,3.9-8.9,5.8c-0.7,0.5-1.5,1-2.2,1.5c-0.8,0.5-0.9,0.2-0.8,0.1c0.3-0.5,0.7-0.9,1.2-1.3
	c2.1-1.9,4.3-3.8,6.6-5.6c1.9-1.5,3.8-3.1,5.5-4.7c1.8-1.9,3.4-4.1,4.7-6.4c1.3-2.3,2.4-4.7,3.2-7.2c0.3-1.5,0.5-3,0.7-4.6
	c0.3-2,0.7-3.9,1.2-5.8c0.2-0.8,0.2-2.1-1.1-2.5c-1.1-0.2-2.2,0-3.1,0.6c-1.5,0.9-2.8,2.1-3.8,3.6c-2.3,3.2-4.4,6.6-6.2,10.1
	c-1.4,2.5-3.1,4.8-5.1,6.9c-1.3,1.5-2.6,3-3.9,4.5c-2.3,2.9-4.2,6.2-5.5,9.7c-0.4,0.9-1.2,0-1.7-0.3c-0.7-0.4-1.6-0.6-2.5-0.5
	c-0.6,0.1-1.2-0.1-1.1-0.6c0-0.4,0.1-0.8,0.3-1.2c0.2-0.8,0.1-1.7-0.5-2.4c-0.3-0.3-0.7-0.5-1.1-0.6c-0.9-0.1-1.7,0-2.5,0.4
	c-0.8,0.3-1.6,0.7-2.4,1.1c-0.7,0.5-1.2,1.3-1.3,2.1c-0.3,1.1-0.5,2.1-0.5,3.2c0,0.4,0.1,0.8,0.3,1.2c0.4,0.7,1.3,1.2,2.1,1
	c0.6-0.1,1.2-0.4,1.8-0.6c0.2-0.1,0.5-0.2,0.8,0.2c0.2,0.3,0.3,0.7,0.3,1.1c0,0.4,0.1,0.9,0.3,1.2c0.3,0.6,0.7,1.1,1.2,1.5
	c0.5,0.3,0.4,0.9-0.8,1.4c-3.5,2-6.6,4.5-9.2,7.4c-2.1,2.5-4.4,5-6.8,7.3c-1.7,1.4-3.5,2.7-5.3,4c-2.5,1.8-4.8,3.8-7,6
	c-1.1,1.1-1.9,2.4-2.5,3.9c-0.3,0.8-0.4,1.7-0.2,2.6c0.3,1.8,2.7,1.5,4.3,0.6c2-0.8,4.2-1.5,6.3-1.9c2.1-0.6,4.2-1.5,6-2.7
	c3.2-2,6.1-4.4,8.5-7.2c1.5-1.9,2.8-3.9,4.1-6l0.4-0.6c1.6-2.7,3.3-5.2,5.1-7.7c0.4-0.5,0.7-0.5,0.7-0.1c-1.8,3.6-3.5,7.1-5.2,10.7
	c-1.1,2.2-2.2,4.3-3.4,6.4c-1.6,2.4-3.1,4.8-4.4,7.4c-1.4,2-2.5,4.2-3.3,6.4c-0.6,1.4-1,2.9-1.1,4.5c-0.1,0.9,0.1,1.7,0.5,2.5
	C837.4,225.8,839.3,225.6,840.6,224.8z"/>
</svg>
