<?xml version="1.0" encoding="utf-8"?>
<!-- Generator: Adobe Illustrator 26.5.2, SVG Export Plug-In . SVG Version: 6.00 Build 0)  -->
<svg version="1.1" id="Layer_1" xmlns="http://www.w3.org/2000/svg" xmlns:xlink="http://www.w3.org/1999/xlink" x="0px" y="0px"
	 width="1465px" height="985.4px" viewBox="0 0 1465 985.4" style="enable-background:new 0 0 1465 985.4;" xml:space="preserve">
<style type="text/css">
	.st0{fill:none;stroke:#FF0000;stroke-width:0.75;stroke-miterlimit:9.5051;}
	.st1{fill:none;stroke:#FF0000;stroke-width:0.75;stroke-miterlimit:9.3773;}
	.st2{fill:none;stroke:#FF0000;stroke-width:0.75;stroke-miterlimit:9.6378;}
	.st3{fill:none;stroke:#FF0000;stroke-width:0.75;stroke-miterlimit:9.6122;}
	.st4{fill:none;stroke:#FF0000;stroke-width:0.75;}
</style>
<path class="st0" d="M886.3,364.8c-6.1-0.8-11-2.6-15.7-5.7c-4.4-3.1-7.6-7.5-9.2-12.7c-1.3-4.1-2.2-8.3-2.7-12.5
	c-1.4-11.1-2.1-22.3-2.3-33.5c-0.2-8.3-0.3-16.7-0.3-25V9.7c0-1.3-1.1-2.3-2.3-2.3H717.6c-1.3,0.1-2.2,1.1-2.2,2.4v265.8
	c0,22.2,0.7,44.3,2.6,66.4c0.3,3.5,1,10.6,1.5,14.2c1.5,12.6,4,25,7.5,37.2c9.9,32.7,32.4,60,62.5,76c13.1,6.9,27.1,11.9,41.7,14.7
	c12.9,2.7,26,4.3,39.2,4.8c18.4,1,36.8,0.1,55.1-2.7c16.6-2.5,32.7-7.5,47.8-14.8c11.8-5.9,22.7-13.5,32.4-22.5
	c13.2-11.8,23.9-26.2,31.3-42.3c4.1-9,7-18.5,8.8-28.2c1.9-9.6,4.8-29.5,5.4-41.5c0.4-6,0.8-11.6,1.1-17.4v0
	c0.3-6.6,0.6-13.2,0.8-19.9c0.2-9.2,0.3-18.5,0.3-27.7V9.7c0-1.3-1.1-2.2-2.3-2.3H930.4c-1.2,0.1-2.2,1.1-2.2,2.4v269
	c0,15.2-0.3,30.3-1.1,45.5c-0.3,6-0.8,12-1.7,18c-0.6,5-2.6,9.8-5.8,13.7c-3.7,4.4-8.6,6.8-14.6,8.3
	C898.9,365.3,892.7,365.4,886.3,364.8z M744.5,324.3c-4.7,1.9-9.5,3.5-12.4,4.1c-1.6,0.3-0.8-0.6,2.4-2.9c1.6-1.2,4.7-3.6,6.9-5.4
	c4.4-3.6,7.9-5.7,14.9-9.1c2.6-1.3,5.7-3.1,7.8-4.5c1.9-1.3,3.4-2.2,3.5-2.1c0,0.8-2,4.8-3.4,6.6c-2.7,3.7-4.2,4.9-9.4,8.1
	C750.9,321.5,748.7,322.6,744.5,324.3z M750.2,292.9c-5.5,2.6-9.4,3.2-9.5,2.8c-0.1-0.3,9.1-10.2,25-26.6c3.8-4,7.4-7.6,8-8.2
	c0.4-0.4,1.1-0.4,1.1,0.4c0.3,5.1-4.3,14-11,21.3C760.5,286.1,755.9,290.1,750.2,292.9z M746.6,251.1c-2.6-15-2-24.8,1.6-32
	c1.4-2.8,5.5-9.4,5.6-9.2c0.3,0.5,1.8,7.2,2.2,10.3c1.7,12.4,0.5,23.6-3.4,32.3C751.7,254.8,748.3,262.3,746.6,251.1z M731.7,359.5
	c6.4-1.9,18.6-11.5,21.3-13.7c1.7-1.5,3.5-3.1,4-3.6c0.5-0.5,0.9-0.9,1.1-0.9c0.6,0.1,0.9,3.5,0.4,5.5c-1.7,6.9-8.5,12.9-19.4,17.2
	c-2.3,0.9-5.2,1.9-6.2,2.2C732.4,363.9,732,361.7,731.7,359.5z M727,280.4c1.6,2.9,5.3,7.8,5.6,8.9c0.8,2.6,1.8,8.1,1.7,9.1
	c-0.2,1.4-3.7,12.3-5.9,15.7c-0.2-0.7-0.4-0.9-0.6-1.6C727.3,301.8,727.1,291.1,727,280.4z M727,253.9c3.7,6.6,6.7,12.7,8,19.1
	c0.4,2,1.3,11.2,1,11.1c0,0-1.3-2.2-2.7-4.8c-2.8-5-4.9-9.1-6.3-13.6V253.9z M806.7,339.1c3.6-1.4,7-3.5,8.5-5.3
	c0.8-0.9,1.4-1.7,1.4-1.9c0-0.4-1.3-0.8-2.6-0.7c-1.5,0.1-4.4,1.4-6,2.6c-1.4,1.1-4.9,5.1-5.4,6c-0.2,0.5-0.2,0.6,0.9,0.3
	C804.1,340,805.6,339.6,806.7,339.1z M791,338.8c-2-1.9-9.6-6.2-10.7-6.1c-0.4,0,0.7,1.8,2.2,3.3c2.2,2.3,5.4,3.7,8,3.5
	C792.4,339.5,791,339,791,338.8z M793.3,329.1c-0.8-4.1-3.4-12.2-4.4-13.5c-0.8-1,0.3,4.8,1.5,8.3c0.6,1.7,2.9,6.8,3.1,6.8
	C793.6,330.7,793.5,330,793.3,329.1z M813.2,304.6c2.3-2,4.3-5.2,4.8-6.6c0.5-1.1,0.2-1-1.7,0.3c-3.3,2.3-7.2,6.6-8.4,9.2
	c-0.4,0.8-0.2,1.5,1.4,0.3C810.3,307,812,305.6,813.2,304.6z M798.2,304.9c0.3-3.7-0.7-8.5-2.5-11.9c-0.9-1.6-2.6-3.7-3.7-4.4
	c-0.7-0.6-0.8,0.7-0.6,2.1c0.6,4.5,2.1,9.2,4.7,14.1c0.8,1.5,1.5,2.7,1.6,2.6S798.1,306.2,798.2,304.9z M811.4,290.2
	c0.8-2.1,1.4-4.7,1.1-5.3c-0.2-0.4-1.8,2.7-3.2,5.8c-1,2.4-3.1,8.4-3.1,8.8C806.3,300.1,810.6,292.1,811.4,290.2z M799.3,267.7
	c-1.6-3.1-4.3-6.2-6.2-7.3c-1.6-0.9-1.8-0.7-1.3,1.5c0.5,1.8,1,2.7,2.4,4.1c1.6,1.5,3.7,2.7,5.8,3.2
	C800,269.1,799.7,268.4,799.3,267.7z M815.4,266.7c3-0.6,5-1.4,7.4-2.7c3.3-1.9,6.4-5.4,5.3-6c-0.8-0.5-5.4,0.9-9.2,2.8
	c-3.4,1.7-8.9,5.6-8.8,6.3C810,267.4,812.9,267.2,815.4,266.7z M802.9,252.6c-0.6-4.4-1.3-7.7-2.4-11.4c-0.5-1.5-0.6,0-0.4,3.4
	c0.3,3.9,0.9,7.4,2.2,11.9c0.7,2.3,0.8,2.6,1,2.1C803.5,258.1,803.3,256.2,802.9,252.6z M824.8,235.9c3.3-1.2,5.3-2.2,6.9-3.5
	c1.5-1.2,3.9-3.6,3.9-4c-0.1-0.8-4.2,0.6-7.2,2.6c-1.4,0.9-6,4.7-6.9,5.7C821,237.1,821.8,236.9,824.8,235.9z M815.7,228.4
	c0.7-2,0.7-2.3,0.5-6c-0.1-2.2-0.5-4.8-0.7-5.9c-0.7-3.1-2.6-6.9-3.3-6.9c-0.1,0-0.4,0.8-0.6,1.6c-0.3,1.3-0.3,2.6,0,7.2
	c0.4,5.3,0.4,5.7,1.5,8.8c1.5,4.3,1.4,4.2,1.7,3.6C814.9,230.7,815.3,229.6,815.7,228.4z M842.3,203.6c0.6-0.8,2.6-2,1.5-4.3
	c-3-1.2-12.6,7.4-12,8.7C833.2,210.3,841.5,204.7,842.3,203.6z M826.6,194.8c0-5.3-0.7-10.4-1.5-10.4c-0.9,0.1-1.2,5.1-0.6,8.7
	c0.6,3.1,1.6,6.6,1.9,6.3C826.5,199.4,826.6,197.3,826.6,194.8z M841.7,177.8c1.1-1.3,3.9-10.9,1.8-8.4c-1.6,1.8-2.4,3.4-3.2,6.6
	c-0.4,1.7-0.5,2.3-0.2,2.5C840.6,179.1,840.7,179.1,841.7,177.8z M798.3,435.5c-1.2-3.4-2.6-11.4-2.9-14.4c-0.4-4-0.3-6.9,0.4-10
	c0.7-3,2.7-5.8,3.5-4.6c0.6,0.9,1.1,3.4,1.4,6.2c0.2,3.1,0.1,13.2-0.3,19.2c-0.2,2.7-0.1,6.7-0.3,8.8
	C799.6,440,799.2,438.7,798.3,435.5z M810.9,436.3c4.4-6.9,8.9-12.6,12.6-16.3c2.6-2.5,5.9-5.1,5.9-4.7c0.1,0.8-5.1,7.8-9.8,13.5
	c-2.8,3.3-10.5,11.1-10.5,10.6C809,439.3,809.9,437.9,810.9,436.3z M815.4,395c-0.7-0.8-0.7-0.9-0.2-1.4c0.3-0.3,1.8-1.5,3.4-2.7
	c2.8-2.1,2.9-2.1,3.8-1.7c2.1,0.9,2.1,0.8,1.3,5c-0.8,4-1,4.2-3,3.7C819.7,397.6,815.8,395.5,815.4,395z M834.6,390.9
	c-1.2-1.3-3-4-2.9-4.4c0.2-0.9,3.5-5.2,10.5-3.7c0.7,0.2,0.5,3.8-0.4,6.8c-1,3-1.2,3.4-2.1,3.5C838.6,393.3,834.9,391.3,834.6,390.9
	z M810.5,380.6c0-0.4,1.9-7.1,2.6-8c1.1-1.3,1.6-1.3,3.1,0c1,0.8,4.3,6.3,4.2,6.8c-0.1,0.5-1.1,0.9-4.4,1.5
	C811.5,381.8,810.5,381.8,810.5,380.6z M830,378.5c-1.1-1-1.1-1.6,0-6.2c1-4,1.3-4.6,3-4.6c1.8,0,3.4,0.7,3.9,1.7
	c0.4,0.8-1.1,5.1-1.6,5.7C834.5,376.3,831.5,379.7,830,378.5z M786.6,448.1c-4.1-6.2-14.5-14.5-16.1-13.3c-1.7,1.3,0.9,5.3,5.4,8.3
	c2.4,1.6,12.7,8.7,12.8,8.5C788.9,451.6,787.5,449.4,786.6,448.1z M765.3,422.1c-1-0.3-1.8-1.7-1.9-3.4c-0.2-2.5,1.4-8.6,2.4-8.9
	c1.1-0.4,3.4,4.2,3.5,6.9c0.1,1.6-0.4,3.2-1,4C767.5,421.7,766.1,422.3,765.3,422.1z M774.6,403.7c-1.6,0.5-2.8,0.5-3.3,0.4
	c-0.2-3.8,6.9-12.4,10.3-10.9c1.2,0.7,0,5.4-2,7.8C778.7,402,776.4,403.3,774.6,403.7z M747,408c-0.7-0.4-0.7-0.6-0.7-1.5
	c0-1.3,1.4-3.6,2.6-4.6c1.8-1.4,4.6-1.5,7.8-0.3c2.5,0.9,2.7,2.1,2.5,3.4c0,0.3-3.2,2.3-4.5,2.9C751.2,409.5,747.9,408.6,747,408z
	 M762.5,396.2c-2.5-5-2.8-7.4-1.3-9.6c2-2.9,3.5-3.1,4.9-0.6c0.9,1.7,1.4,4,1.5,7.2c0.1,2-0.4,6.7-0.6,6.9
	C766,400.4,763.8,398.5,762.5,396.2z M844.5,195.7c-1.8-1.2-5.3-0.9-10.9,3.4l5.2-12.3c1.8,0,3.8,0,5.6-3.7V195.7z M734,372.8
	c11.3-1.7,21.9-13,23.5-14.7c3.7-4.1,6.3-9.5,6.4-13c0-3.5-1.9-8.5-3.9-9.7c-1.7-1.2-3-0.7-5.5,2c-3.1,3.3-7.5,6.9-11.8,9.7
	c-2.7,1.7-7.5,3.7-11.9,6.2c-0.5-4.1-0.9-8.3-1.3-12.4c-0.1-1.3-0.2-2.7-0.3-4c0-0.6,0.7-2.3,1.1-2.4c0.4-0.1,2.9-1.4,5.3-2
	c4.6-1.1,12.4-4.1,17.5-6.6c1.7-0.8,5-2.8,7.2-4.4c3.7-2.6,4.4-3.2,6.4-5.6c3.1-3.8,4.8-7.1,5.6-10.6c0.7-3.1,0.6-6.4-0.4-7.9
	c-0.8-1.2-6,1-7.2,2.2c-2.6,2.7-6.1,5-11.2,7.4c-6.3,3-11.3,6.1-15.7,9.7c-2.2,1.8-4.1,3.2-4.2,3.2c1-5,3.8-13.9,5.2-18.5
	c6.3,1.3,19.8-5.9,27.1-13.6c6.3-6.2,12.7-16.6,13.7-22.6c0.5-3.1-0.1-7.6-1.5-9.6c-1.5-2.8-4-1.7-4.6-1.3c-0.5,0.3-3.4,3.2-6.4,6.2
	c-3,3.1-22.4,23.2-22.6,23.2c1.8-4.3,2.7-9,3.2-11.1c1.4-6.3,3.5-6,7.1-12.5c6.4-10.7,8.3-23.4,6.4-39.3c-0.7-5.6-2.9-14.6-4-16.3
	c-0.9-1.3-2.6-1.9-4-1.3c-1.3,0.5-3.5,3.5-7,9.4c-4.8,8-6.2,13-6.2,22.3c0,4.7,0.1,9.6,1.5,17.8c1.3,11.8,3.3,9.8,2.2,15.9
	c-0.2,1.5-2.5,8.6-2.7,8.6c-0.1,0-0.4-1.5-0.7-3.3c-1.4-9.9-4.6-18.2-13.2-31V19.3h117.5l0,142.9c-3.6,0.3-6.7,4.8-8.5,10.2
	c-0.8,2.5-3,10-1.9,12.4l-2.3,5.6l-0.4-2.6c-0.8-5.7-2.9-9-5.9-9.3c-2.3-0.2-4.9,2.1-5.8,5.1c-1.6,5.3-0.6,12.4,2.9,20.9
	c0.7,1.6,1.2,3.1,1.2,3.3c0,0.5-2.9,7.6-3.1,7.6c-0.1,0-0.4-0.8-0.6-1.7c-1.2-4.3-3.6-8.1-5.8-9.2c-1.1-0.6-1.6-0.6-2.8-0.4
	c-4.1,0.6-5.8,5.3-5.1,14.7c0.4,5.5,0.7,6.7,3.6,14.9l2,5.5c-1,2.9-2.6,6.2-3.7,12.5c-0.1,0-0.3-1.5-0.6-3.1
	c-0.9-5.2-2.2-9.4-3.7-12c-1.2-2.1-2.7-3-4.5-2.9c-2.1,0.1-5.1,1.4-4.8,9.9c0.3,3.7,0.3,9.1,2.1,12.9c-4.9-2.9-7.3-1.7-8-1.3
	c-1.6,1-2.4,2.6-2.4,5.3c0,3.8,1.8,7.3,5.3,10.2c2.6,2.1,6.9,4.1,11,4.5c0,0.2-2.2,10.9-2.6,14.8c-2-3.6-4.6-5.3-6.2-6.1
	c-2-0.9-3.4-1-4.9-0.2c-3.4,1.8-3.7,6.6-0.7,15.5c1.4,4.4,2.2,6,5.8,12.4c2.8,4.9,2.8,5,2.7,6.6c0,0.9-0.2,1.7-0.3,1.8
	c-2.2-5.8-4.8-9.5-7-10.3c-1.5-0.6-2.2-0.5-3.7,0.3c-0.9,0.5-1.3,1-1.8,2.1c-0.6,1.4-0.6,1.7-0.4,4.7c0.3,3.6,1.2,7.2,2.8,11l1,2.3
	l-2.8-1.2c-5.1-2.2-8.3-1.8-9.5,1c-1.3,2.9,0.6,7,4.8,10.7c5,4.7,11.2,4.7,14.2,4.4c0.3,3.6,0.1,11.3-0.1,15.3
	c-0.9,17.8-1.1,20.8-0.6,43.1c-1.6,1.9-3,6-3.5,10.3c-0.5,4.9,0,15.1,1.8,22.2c-1.4-3-4.6-10-6.6-13.3c-3-5.6-5.5-9.4-7.7-11.7
	c-0.8-0.8-1.4-1.5-1.4-1.6c2.8-0.7,6.3-2.8,7.7-4.3c2.5-2.9,4.3-7.7,4.1-11c-0.1-1.8-1.2-4-2.3-4.9c-5.1-2.9-10.4,0.6-12.2,3.3
	c0,0-0.1-0.8-0.2-1.8c-0.4-4-1.9-7.6-4.1-9.8c-1.1-1.1-4.7-2.1-6.1-1.7c-3.7,0.9-7.3,4.8-8,8.6c-0.5,2.6,0.2,6.6,1.2,8.1
	c-6.6-2.9-13,0.5-14,5.1c-2.5-6-4.5-12.2-6-18.6C735.3,379,734.6,375.9,734,372.8z M764.4,435.4c-0.5-4.6,3.7-6.3,6.4-6.4
	c2.9-0.1,6.3,1.7,9.9,5.3c1,1,3.9,3.3,5.5,3.8c-2-5.7-7-15-11.3-21.5l-0.1,1.6c-0.7,8.4-9.9,12.6-14.7,6.7
	c-3.3-3.8-2.6-9.5-1.3-12.8c-2.5,2.2-7.4,3.3-9.8,2.6C753.3,422.2,758.5,429.1,764.4,435.4z M815.4,453.9
	c7.9-6.8,14.1-12.5,19.1-12.9c1,0,1.3,0.5,1.3,1c-0.5,4.1-5.5,10.5-11.9,15.1C817.4,462.3,805.6,461.3,815.4,453.9z M991.9,371.4
	c0.2-8.6-0.4-14.1-3.5-29c-1.1-5.4-2.1-10.6-2.2-11.4c-0.2-1.8-0.2-2-1,4.7c-1.6,13.8-1.6,16.9-0.1,23.9c1.1,5,2.3,8.3,5.4,15.2
	c1,2.3,1,2.3,1.2,1.1C991.8,375.2,991.9,373.2,991.9,371.4z M1006.1,361.7c2.7-3.6,4.4-6.8,8.7-16.1c4.4-9.5,6.8-13.9,9.1-17
	c2.2-3,2.2-3-0.1-1.2c-8.2,6.2-13.7,13.5-19.1,25.3c-0.8,1.8-4.3,15.2-4.1,15.9C1000.7,368.6,1003.4,365.3,1006.1,361.7z
	 M1020.4,295.9c0.8-0.7,3-3.1,5-5.4c4.2-5,7.9-9.3,11.8-13.5c1.5-1.7,2.7-3.1,2.7-3.2s-1.7,1-3.5,2.3c-5.3,3.7-10.1,8.9-14.1,15.2
	c-1.2,1.9-2.5,3.9-2.9,4.6C1018.4,297.5,1018.6,297.5,1020.4,295.9z M988.5,284.4c-0.1-1.6-0.7-6.2-1.4-10.3
	c-1.1-6.9-2.1-15.5-2.1-17.2c0.1-1.9-0.5,1.8-1,5.9c-0.9,8.6,0.2,16.4,3.5,25.2l1.1,2.8C988.8,289.6,988.8,286.7,988.5,284.4z
	 M1035.3,251.9c2.6-2.9,4.2-5.6,4.8-8.2c0.4-1.6-0.8-1.4-4.1,2.9c-3.1,4-5.2,7.1-3.9,8.2C1032.5,254.9,1033.9,253.5,1035.3,251.9z
	 M1027.1,252c0.7-2.9,1.5-9,1.3-9.8c-0.1-0.3-5.8-3.7-6.2-1.7c-0.2,0.4,0.2,4.4,0.8,6.4c0.7,2.8,2.8,8,3.2,7.8
	C1026.3,254.7,1026.7,253.5,1027.1,252z M962.5,272c0-0.1-2.6-1.5-5.7-3.1c-3.1-1.6-6.2-3.2-6.8-3.6c-2.9-1-2.9,4.5-1.1,5.4
	c3.1,1.5,8,2,13.4,1.4C962.4,272.2,962.5,272.1,962.5,272z M967.6,256.2c-0.3-3.4-0.7-6.9-0.9-7.9c-0.4-1.6-0.7-1.9-2.4-3
	c-1.1-0.7-3.6-2.7-5.7-4.6c-4.7-4.2-5.4-4.7-5.6-3.8c-0.3,0.9,0.8,4.7,2.2,7.7c0.7,1.5,2.5,4.6,4.1,6.9l9,13.7L967.6,256.2z
	 M957.4,258.7c-5.1-7.3-7.9-10.9-9.8-12.6c-0.9-0.8-2.4-0.9-3.1-0.4c-1.2,0.8-1.4,1.1-1.3,1.9c0.2,1.5,2.5,5.2,4.5,7.1
	c1.7,1.7,13.2,9.9,13.4,9.5C961.1,264.2,959.5,261.7,957.4,258.7z M1035.6,236.4c0.1-2.1,0.1-4.3,0-4.7c-0.2-0.7-0.4-0.8-1.5-0.5
	c-1.5,0.4-2.3,1.1-3.5,3.2c-0.7,1-0.3,2.2,0.6,2.5c1.5,0.9,1.6,0.9,2,3.3c0.1,2.2,0.8,2.2,1.2,1.3
	C1035.2,240.5,1035.4,239.4,1035.6,236.4z M1006.4,218.5c1.1-2.7,1.4-4.6,1.5-10.1c0.1-8.1,0.4-9.7,3.4-21.8
	c0.8-3.1,1.6-7.4,1.9-9.7c0.3-2.2,0.8-5.3,1.1-6.8l0.5-2.8l-2.1,3.1c-3.4,5.1-5.7,10.5-6.8,15.9c-0.7,3.7-1.8,17.1-1.7,22.2
	c0,2.9,0.5,11.2,0.7,12C1005.1,220.9,1005.7,220.1,1006.4,218.5z M998.1,214.3c-1.5-3.3-5.1-8.7-8.6-18.7c-1-2.9-2.2-7.1-3.1-11.1
	c-1.5-6.6-2.7-10.3-5.4-16c-0.7-1.6-1.5-3-1.7-3.1c-0.2-0.1-0.2,1.6,0,3.9c0.9,12.8,3.1,21.3,8.6,33.9c2.8,6.4,3.9,8.4,6.5,12.1
	c1.7,2.4,3,4.6,4.6,5.5C999.2,220.6,999,216.2,998.1,214.3z M999.3,153.3c1.4-2.7,1.7-4.9,1-7.5c-0.5-2.1-2.3-6.8-3.4-9.1l-0.5-1
	l-0.2,1.1c-0.4,1.7-0.3,6.4,0.2,11.5c0.2,2.1,0.5,6.2,0.4,8.4C997.4,155.9,998.7,154.3,999.3,153.3z M991.4,151.6
	c-0.2-2.1-0.5-3.1-1.2-4.6c-1.3-2.6-7.9-12.9-8.2-12.9c-0.4,0.1-0.5,1.9-0.3,3.6c0.1,1.1,0.8,2.9,1.9,5.2c2,4.2,7.8,12.8,8,11.9
	C991.6,154.5,991.6,153.1,991.4,151.6z M982.3,452.6c2.1-5.8-1.1-24.4-2.9-30.1c-1.8-5.8-1.5-6.1-3.8,3.9
	c-2.2,9.7-2.2,20.9,2.3,29.1C978.8,454.8,981.2,453.3,982.3,452.6z M954.3,430.6c-2-2.2-6.6-6.7-6.9-6.6c-0.4,0.1,2.9,8.3,4.5,10.9
	c2.9,5.1,11.2,20.5,17,25.6l3.5-1.8C971.7,451.2,958.4,435.1,954.3,430.6z M945.2,406.4c0.9-2.6-0.1-9.5-2-14c-1.2-2.9-4.3-8-4-6.6
	c0.1,0.5,0.2,2.1,0.2,3.7c0,7,1.6,13.5,4.2,16.8C944.5,407.4,944.9,407.5,945.2,406.4z M966.6,397.8c-0.3-1.1-2.6-3.8-5-5.7
	c-2.9-2.4-6.8-4.8-11.6-7.1c-2.2-1.1-4.3-2.1-4.7-2.4c-0.8-0.4,3.4,3.7,7,6.8c4.2,3.7,9.9,7.6,12.7,8.7
	C966.6,398.8,966.8,398.7,966.6,397.8z M927.6,404.8c1.9-1.7,5.1-10.7,5.9-17c0.1-1,0.2-1.6-0.8,0.2c-2.9,4.4-3.7,5.7-4.6,8
	c-1.4,3.5-1.8,4.9-1.9,6.9c0,1.5,0.3,2.6,0.6,2.5C926.8,405.3,927.2,405.1,927.6,404.8z M916.5,395.7c2.5-1.2,8.5-6.7,10.8-10
	l1.2-1.7c-2.4,0.1-7,1.1-9.2,2.2c-2.3,1.1-3.6,2-5.6,4.2C909.4,395.1,911.1,398.3,916.5,395.7z M967.1,380.5
	c-2.9-1.4-6.9-2.7-9.5-3.1c-2.3-0.4-8.5-0.6-9-0.3c-0.6,0.4,10,3.5,14.2,4.1c1.5,0.2,5.6,0.5,6.1,0.5
	C969.4,381.6,968.2,381,967.1,380.5z M933.8,435c-3.9-0.3-7.7,1-10.6,3.7l-0.1,0.2c2.1,1.6,4.5,2.9,7,3.9l1.9,0.9
	c0.7-2.9,1.4-5.8,1.9-8.7L933.8,435z M1041.9,232.9V19.3H939.8v222.6c1-1.6,4.8-2.1,8.7-0.5c-2.5-5.5,0.6-9.5,3.2-10.1
	c2.4-0.6,4.3,0.3,9.4,4.8c2.4,2.1,5.2,4.4,6.2,5.1c2.7,1.7,3.4,2.7,4.1,5.6c1.1,4.1,2.1,20.1,1.5,23.4l-0.4,2l3.6,5.4
	c2,3,3.8,5.6,4,5.8c0.2,0.2,0-1.3-0.4-3.4c-1.9-9.5-1.2-21.7,2-31.6c1.7-5.4,2.7-7.3,4.1-7.7c1.4-0.4,3.4,0.6,3.4,1.7
	c0,1.7,0.8,16.7,1.1,19.7c0.2,1.9,0.9,6.8,1.5,11c0.7,4.2,1.3,9.3,1.5,11.4c0.3,5.1,0,11.7-0.8,14.6c-0.8,2.4,0.5,4.3,0.9,5.5
	c3.4,6.9,4.9,11.2,6.9,18.9c1.1,4.1,1.3,4.7,2,7.4c0.2-0.4,1.5-18.6,1.6-23.2c0.3-8.9,0.3-13.2-0.2-28c-0.6-18.1-1.5-30.8-2.8-41.5
	l-1.1-8.6l-1.8-2.2c-1-1.2-3-3.5-4.5-5.1c-3.8-4.2-6.6-8.8-9.8-16c-5-11.3-6.8-17.2-8.3-26.7c-1.6-10-1.9-24.1-0.5-25.7
	c1.5-1.9,3.8-1.2,5.2,1.7c0.5,1.1,2,4,3.4,6.5c3.7,7,5.7,12.3,7.5,20.1c1.5,6.6,4.3,16,5.7,17.9c0.2,0-0.3-4.5-0.8-9.1
	c-1.2-10.9-1.7-13.9-3.1-20.6c-1.4-6.3-1.3-6.2-6.7-13.7c-8.8-12.1-11-18.7-8.7-25.3c1.3-3.8,3.7-5.3,5.9-4c1.2,0.7,1.4,1,5.2,6.9
	l2.3,3.5l0.4-2.5c0.9-5.3,2.4-7.9,4.7-8.1c2.2-0.2,3.2,1.4,6.7,10c2.5,6.2,3.4,10.5,2.9,13.5c-0.6,3.6-2.6,7.2-6,10.5l-2.9,2.9
	l1.1,5.3c1,4.7,2,11,2.6,15.8l0.2,1.5l0.6-2.5c1.4-5.9,3.7-11.1,7.2-16.4c1.4-2.1,3.6-5.6,4.9-8c3.8-6.7,6.1-8.5,8.2-6.5
	c1,0.9,1,2,0.1,5.4c-0.4,1.5-2.6,14.4-2.9,16.9c-0.8,5.9-1.1,7.8-3,15.3c-2,8.1-2.5,11.3-2.6,17.6c0,2.9-0.3,6.5-0.6,7.9
	c-0.6,3.2-2.9,7.6-5.4,10c-1,1-1.8,2-1.8,2.4c0,0.3,0.4,4.8,1,9.8c0.6,5,1.4,13.7,1.7,19.3c0.7,11.5,1.6,35.3,1.5,41.6
	c0,2.3,0,4.3,0,4.4c0.6-1,0.8-1.7,1.8-4.1c0.9-2.4,2.8-7,4.2-10.2c2.7-6.5,5-13,6.7-19c1.6-5.8,1.3-9.2-1.7-16.1
	c-2.1-4.8-3.5-11.3-3.2-14.5c0.3-5.3,4.4-6.6,7.4-4.6l1.3-2.7c1.7-3.7,3.3-5.3,6.1-6.3c2.7-1,8.4-1.9,9,7.4
	C1041.3,233.6,1041.6,233.2,1041.9,232.9z M1041.9,266v-13.1c-1.7,4.1-3.3,3.7-8.3,7.4c-4,3-4.6,3.9-6,9.2c-0.7,2.6-1.6,5.8-2.1,7.2
	l-0.8,2.4l3-2.9C1030.7,273.4,1037.2,268.7,1041.9,266z M1041.9,279.7c-6.1,6.9-11.8,13.2-14.8,16.7c-1.3,1.6-3.5,3.7-5,4.8
	c-2.8,2.1-6.7,4.3-7.2,4.2c-2.6,2.9-3.5,9.3-4.6,17.3c-0.4,2.8-0.2,6.1-2.3,12.9c3.7-5.6,9.4-10,13.4-13.1c3.9-3,7.1-4.3,9.8-3.8
	c1.8,0.3,3.8,3.5,1.8,5.9c-3.1,4.1-4.1,5.6-6.8,9.5c-2.2,3.4-4,6.9-8.9,17.7c-1.6,3.6-3.6,7.5-4.4,8.8c-2.6,4.3-10.5,14.3-13.9,17.6
	c-2,2-2.6,3.8-4.4,15c-2.4,14.8-2.2,22.5-2.1,41.5c3.3-7.8,7-16.7,8.9-22.6c-0.9-0.7-1.2-1.3-0.6-5.6c0.8-5.9,8.7-21.2,17.2-30.8
	c2.3-2.3,7.1-3.7,5.4-0.5c-2.6,4.3-4.4,9.1-5.3,14.1c-0.9,6.6-1.3,11-2.8,19.7c-0.9,7.1-6.4,6.6-9,6.1c-1.8,7.6-5.7,19.2-8.8,25.3
	c5.7-5.2,11-10.9,15.8-17c10.8-13.9,18-30.1,21.1-47.4c2.9-15.7,4.8-31.5,5.7-47.4C1041.3,312.3,1041.8,296,1041.9,279.7z
	 M854.8,471.3c-3.8-3.1-5.1-7.2-6.6-9.8c-0.8-1.3-0.5-1.5,1-0.8c3,1.3,6.6,5.4,8.4,9.3c0.3,0.6,0.7,3.3,0.6,3.2
	C858,473.1,856.1,472.3,854.8,471.3z M870,470.4c2.9-2.9,10.4-7.2,14.2-8.1c1-0.2,1,0.1,0.6,0.4c-1.9,2-4.6,6.3-8.4,8.1
	c-2.4,1.2-10.3,3.2-10.3,3.1C866.1,473.7,869.3,471,870,470.4z M870.9,447.7c1.4-2.8,2.8-4.8,4.4-6.3c2.5-2.3,6.1-4,8.1-3.7l1,0.1
	l-0.4,1.3c-0.7,2.5-4.1,5.3-11,9.2c-1.7,1-3.1,1.7-3.2,1.7C869.8,449.9,870.3,448.9,870.9,447.7z M860.5,444.2
	c-1.1-2.2-2-4.4-2.7-6.9c-0.5-1.9-1-4.7-0.7-4.8c0.2-0.1,1.8,2.6,2.7,4.6c1.1,2.6,1.7,4.8,2.1,7.7
	C862.1,447.5,862.2,447.5,860.5,444.2z M867,437.5c-0.1-1.3,0-2.1,0.6-4.2c1-3.7,1.8-3.9,2.1-0.5c0.1,1.1,0,2.2-0.5,4.4
	c-0.4,1.6-0.9,3.3-1.1,3.7c-0.2,0.1-0.5,0.7-0.7-0.5C867.3,439.7,867.1,438.4,867,437.5z M881.6,417.1c-0.3-0.8-0.6-2.1-0.7-2.9
	c-0.1-1.8,0.4-5.5,0.9-6.6l0.4-0.8l0.2,0.6c0.5,1.7,0.6,7.2,0.2,10.7C882.6,419.2,882.4,419.1,881.6,417.1z M889,419.1
	c3-3.6,5.9-5.9,8.6-6.8c2.9-1,3.7,0.2,1.6,2.5c-1.3,1.5-3.4,2.8-5.9,3.6c-1.5,0.5-4.6,1.4-4.8,1.4
	C888.4,419.9,888.6,419.5,889,419.1z M870.6,477c6.6-1.4,10.6-4.4,15.6-7.9c5.6-4.3,6.3-9.4,2.3-11.2c-1.4-0.6-7.9-1.3-13.2,2.7
	c-3.1,1.9-7.5,4.8-9.1,6.3c0.6-2.3,1.6-8.5,1.6-11.3c5.6,0.5,15.2-6.9,19.7-12.4c2.2-2.9,2.7-5.5,1.5-7.5c-1.5-2.4-5.1-4.4-11.1-1.5
	c2.6-2,5.8-6.5,6.2-9.1c2.1,0.6,7.1,1.1,16.4-5c2.8-1.9,5.2-5,5.3-7c0.2-4.1-4.3-6.6-9.2-5.2c-2,0.6-5.1,2.3-6.8,3.6
	c-0.8,0.6-1.4,1.1-1.4,1.1c0,0-0.1-1.3-0.3-2.8c-0.3-4.5-1.3-7-3.3-8.1c-2.3-1.3-4.9-0.6-6.5,1.7c-0.6,0.9-1,1.8-1.7,4.6
	c-0.8,2.9-0.9,3.7-0.8,5.6c-0.2,2.8,0,8.1,3.6,9.9c-0.6,2.2-2.6,5.8-4.3,6.6c-1.4-5.2-6.6-5.3-9.4-3.3c-1.2,0.9-2.9,2.3-3,4.5
	c-1.2-3.2-3.9-3.7-5.4-4c-5.8-0.7-5.5,5.5-5.2,7.6c0.6,4,1.8,7.5,3.8,11.4c1.2,3,4.1,8.1,6.5,9c-0.4,2.2-1.2,6.5-2.1,8.8
	c0,0-0.8-0.9-1.7-1.9c-3.8-4.5-9.2-7.1-12.7-6.3c-2.9,0.7-4,3-2.9,6.1c1.3,3.7,3,8.6,9.7,13.5c-5.3-0.6-10.7-1.4-16-2.4
	c-6.3-1.1-12.5-2.7-18.5-4.6c5.2-1.3,8.4-4.2,11.3-6.2c7.4-4.9,13.8-17.7,12.1-23.5c-6.6-11.6-26.8,7.8-31.1,10.5
	c-0.1,0.1-1.2-0.1-1.1-0.4c6.4-5.5,12.5-13.8,16.9-19.3c7.7-9.7,11.3-16.4,10.6-19.7c-0.5-2.1-2.4-3.4-4.6-2.9
	c-2.2,0.5-9.5,5.8-13.5,9.9c-2.5,2.5-3.5,3.7-6.4,7.5l-2.4,3.2l0.7-2.3c2.7-8.4,6.8-19.4,8.2-22c4.5,0.8,6.7-0.2,8.3-2.3
	c0.8-1,1.9-3.6,2.5-7.1c2.6,3.1,7.5,5.1,10.4,4.9c2-0.2,4.4-1.5,5.4-3c1-1.5,2.6-7.3,2.8-10c1.1-6.4-3.4-9.4-7.3-8.6
	c3.1-4.8,1.9-11-1.6-13.4c-1.4-0.9-4.6-1.8-6.4-1.7c-2.7,0-4.9,1.3-6.4,3.5c-0.3,0.5-1,2.4-1.6,4.4l-1,3.5l-1.4-2.1
	c-2.2-3.4-4.9-5.3-7.7-5.3c-3.8-0.1-6.9,3.1-8.7,8.8c-0.8,2.7-1.2,6-0.9,7.5c0.7,2.8,1.9,4.5,9.1,4.8c-3,2.4-5.5,5.7-4.9,8.2
	c0.3,1.5,1.4,4.7,4.2,6.2c-0.7,1.1-4.9,9.6-6.7,17.6c-0.1-7.8-1-19.1-7-19.2c-0.5-18.8-1.7-24.4-0.8-39.6c0.1-1.8,0.8-9.7,0.4-13.8
	c3.5-0.2,12.6-3.8,16.3-6.4c3.3-2.3,5.6-5.4,5.9-8c0.4-3.2-2.9-6-7.1-6.1c-3.6-0.1-8.4,2.2-11.9,5.7c-1.2,1.2-2.2,2-2.2,1.8
	c0-0.3,1.3-13.6,1.4-14.5c0.1-0.4,1.2-1.4,3.5-2.9c13-8.8,18.7-15.2,18.4-20.4c-0.1-4-4.2-5.3-7.7-3.5l0.4-0.8
	c1.5-3.4,1.7-9.9,0.4-11.8c-2.4-3.6-6.4-1.8-10.4,4.7c0.2-2.7,1.4-8.7,2.3-11.8l3.6-0.3c6.2-0.5,11.5-2.3,15.5-5.3
	c3.9-2.9,6.1-6.5,5.9-9.6c-0.2-3.3-2.6-4.9-7-4.6c-3,0.2-10.3,2.5-14.4,4.9c0.6-4.2,2.8-11.4,4.1-14.8l2.3-0.2
	c3.5-0.2,10.3-2.5,14-4.8c4.1-2.4,7.9-6.6,8.6-9.5c0.8-3.4-2.1-5.8-6.3-5.5c-2.7,0.2-8.2,2.8-11.7,5.5c-0.9,0.7-1.6,1.1-1.7,1
	c-0.2-0.5,0.4-2.2,2.9-8.5l2.5-6.2c4.6,0.6,13.6-1.5,17.8-6.7l0,67.6c0,5.7,0.1,11.5,0.2,17.2c0.1,12.7,0.8,25.5,2.1,38.2
	c0.5,6.1,1.6,12.2,3.3,18.2c2,6.8,5.8,12.9,11.2,17.6c5.7,4.7,12.5,7.9,19.8,9.2c8.7,1.7,17.7,1.6,26.5-0.1
	c7.8-1.4,14.9-5.4,20.2-11.2c5-5.7,8.2-12.7,9.1-20.1c1-6.5,1.6-12.9,1.9-19.5c0.8-15.4,1.1-30.8,1.1-46.2v-25.3
	c0.9,2.4,3.5,6,5.8,6.5c-2.7,1.8-4.6,7.2-2.9,11.4c0.7,2.6,4,4.8,8.6,5.8c3.3,0.7,6.7,0.8,12.4,0.1c2.6-0.3,5-0.5,5.5-0.4
	c0.6,0.1,1.5,1.1,3.5,4.3c1.5,2.3,4.5,6.8,6.7,10c7.1,10.3,9.7,14.9,12.6,22.2c2.7,6.8,3.6,9.8,5,16.8c3.1,15.5,3.2,18.3,1,25.7
	c-1.2,4.1-1.3,4-2.1-1.7c-0.8-5.6-4.1-21.6-6.2-30.3c-1-6.1-4.1-10.9-6.2-8.6c-0.8,0.8-1.3,3.8-2.5,14.3c-0.4,3.5-0.9,8-1.2,10
	c-0.6,4.3-0.8,9.7-0.7,13.9c0.1,2.4,0.5,4.4,2,10c1.7,6.3,2.2,7.7,4.7,13.4c1.6,3.5,3.3,7.3,3.8,8.5c0.9,2.8,0.1,7.9-0.3,10.4
	c-2.1,14-3.1,12.7-2.9,32.4c-0.7-3.9-2.8-10.7-5.2-16c-6.8-9.6-11.8,11.5-12.9,18.1c-3.4-11.7-7.1-20.9-13-30.8
	c1.1,0.5,1.2,0.4,3.7,1.8c4.7,2.8,6.6,3.4,9.2,2.9c2.2-0.4,3.4-1.4,4-3.3c1-3.4-1.1-7.9-5.7-11.9c-0.9-0.8-1.6-1.5-1.6-1.5
	c0-0.1,1-0.1,2,0c2.8,0.1,6.2-0.7,7.4-1.7c2.5-2.1,2-5.5-1.2-7.9c-2.9-2.3-10.5-5.1-15.6-5.8c-3.8-0.5-9.9-1-13.9,0.4
	c-2.1-2-5.2-3.5-9.6-2.7c-6,0.9-8.9,6.3-7.3,9.1c-3.3,0.2-10.1,1.4-14.8,5.7c-6.2,5.2-8.2,11.5-4.9,15.4c1,1.2,3.4,2.4,5.1,2.6
	c1.7,0.2,5.2-0.7,7-1.6c0.7-0.4,1.4-0.7,1.4-0.7c0,0,0,0.8-0.1,1.6c-0.3,2.3,0.6,6.2,1.8,7.6c1.9,2.1,5.2,2.3,8.1,0.4
	c1.6-1.1,3.3-3.4,4.3-6l0.7-1.7c0.9,2.9,2,8.7,7.6,10.8c7.4,1.9,8.4-7.9,8.2-8.6c1,1.3,1.1,1.3,3,4.7c1.8,3.3,4.3,9.1,6,13.7
	c0.9,2.6,3.1,9.6,3,9.7c0,0.1-1.4-1.5-3.1-3.5c-1.7-2-4.5-4.9-6.2-6.5c-3.5-3.3-9.4-7.6-10.7-7.9c-1.1-0.2-2.6,0.6-3.1,1.8
	c-0.4,0.8-0.4,1,1.1,6.1c2.3,8.3,3.9,14.2,7.1,19.4c3.1,4.9,6.4,11.7,14.3,21.8c-6.7,3-13.7,5.4-20.9,7.3c-1.3-3.9-0.7-6.5-2.4-13.5
	c-0.6-3.3-1.4-6.7-2.3-9.9c0.5-3.5,1.2-6.9,2.2-10.3c0.8-2,0.2-4.3-1.5-5.6c-2.1-1.1-4.4-1.5-6.7-1.2c-0.7-2.9-3.4-4.7-6.3-4.4
	c-2.5,0.3-4.4,2.4-4.4,5c0,1,0.3,2,0.9,2.8c-1.9,1-3.3,2.9-3.5,5c0,1.7,1,3.3,2.5,4.2c2,1.5,4.3,2.8,6.7,3.7c1.5,0.7,3,1.4,4.5,2.2
	c1.7,5.8,2.8,11.8,3.3,17.9c-2.1-1.3-4-2.7-5.8-4.4c0.7-2.6-0.8-5.3-3.4-6.1c-3.2-1.1-6.6,0.6-7.7,3.7c-0.7,2.5,0.7,5,3.1,5.9
	c1.3,0.5,2.8,0.6,4.1,0.2c2.9,2.7,5,5,8.6,6.7c-12,2.6-24.2,4.1-36.4,4.5C888.2,477.5,879.4,477.5,870.6,477z"/>
<path class="st1" d="M185.8,317.1c6.9,2.7,13.6,5.7,20.1,9.2c2.2,1.2,4.4,2.5,6.4,4c5.6,3.9,8.5,10.6,7.5,17.3
	c-1.2,5.3-2.9,9.5-6.9,12.4c-4.1,3.1-8.8,5.1-13.9,6c-8,1.2-16.3,1.2-24.2-0.8c-7.8-2.2-14.6-7-19.2-13.5c-3.8-5.4-6.9-11.3-9-17.5
	c-1.1-3-2-6-2.8-9.1l-2.8-14c-0.1-0.3-0.2-0.5-0.3-0.7c-0.2-0.3-0.5-0.6-1.1-0.9c-0.2-0.1-1-0.3-1.5-0.1L15.8,344.1
	c-1.2,0.4-2,1.7-1.6,2.9l0,0c1.8,5.8,5.3,17.5,7.5,23.3c0.8,2.4,1.6,4.7,2.5,7c6,16.7,14.3,32.6,24.6,47.1
	c12.2,17.2,27.9,31.5,46,42.2c16.4,9.5,34.3,16,53,19.2l2.7,0.5c15.4,2.5,31.1,3.4,46.7,2.6c6.1-0.3,13.5-1,18.3-1.5
	c17.9-2,35.5-6.6,52-13.7c2.2-0.9,6.5-3,8.6-4.1c28.1-14.3,51.2-36.9,66-64.8c0.8-1.5,2.2-4.4,2.9-6c7.2-15.7,11.7-32.5,13.4-49.7
	c0.1-1.5,0.4-4.6,0.5-6.1c1.1-15.5,0-31.1-3.2-46.4c-4-18.5-11.9-35.9-23.2-51.2c-10.9-15-24.8-27.6-40.8-36.9
	c-2.8-1.6-9-5.2-13.6-7.6c-5.2-2.7-15.8-7.8-21.2-10c-9.6-4.2-19.3-8-29.1-11.6c-13-4.9-25.7-10.3-38.3-16.3c-4-1.9-7.9-4-11.8-6.4
	c-1.8-1-3.4-2.2-4.9-3.6c-2-1.8-3.2-4.4-3.3-7.1c0.1-4,1.1-7.6,3.5-10.1c3-3,6.2-5,10.1-5.7c7-1.1,14.4-0.9,21.2,1.5
	c5.3,2.1,9.9,5.6,13.4,10.2c4.1,5.3,7.3,11.3,9.5,17.6c1.8,4.8,3.5,9.6,5.1,14.4c0.1,0.2,0.2,0.4,0.3,0.6c0.6,0.8,1.7,1.2,2.6,0.8
	l111.2-42.5c3.9-1.5,4.3-2.2,4.5-3.5c0.2-1.1-0.9-6.5-1.3-7.9l-1.8-5.7c-0.6-1.8-1.7-5.3-2.3-7c-4.5-12.9-10.5-25.2-18-36.6
	c-15.4-23.5-37.6-41.6-63.7-52c-12.6-5-25.8-8.6-39.3-10.5c-18.1-2.7-36.4-3.1-54.6-1.4c-1.4,0.1-4.1,0.4-5.5,0.6
	c-16.4,2-32.5,6.5-47.5,13.5c-19.3,9.1-36.4,22.4-49.9,38.9c-0.7,0.8-2,2.5-2.6,3.3C50.5,82.8,41,104,36.8,126.6
	c-0.1,0.8-0.4,2.3-0.5,3c-3.2,18.1-3.4,36.5-0.8,54.6c0.4,2.6,1.2,6.9,1.7,9.1c4,17.9,11.7,34.9,22.5,49.7
	c9.9,14,22.4,25.9,36.8,35.2c11.7,7.5,27.3,14.5,43.5,21.4c5.9,2.4,11.8,4.8,17.8,7.1C164.6,309.3,179,314.4,185.8,317.1z
	 M241.8,356c-3.6-1.2-7-3.1-8.6-4.8c-0.8-0.8-1.4-1.6-1.4-1.8c0-0.4,1.2-0.8,2.5-0.8c1.5,0,4.4,1.1,6,2.3c1.4,1,5.1,4.8,5.6,5.7
	c0.3,0.5,0.2,0.5-0.9,0.3C244.4,356.8,242.9,356.4,241.8,356z M257.1,354.7c1.8-2,9-6.7,10.1-6.7c0.4,0-0.6,1.8-2,3.4
	c-2,2.4-5.1,4-7.6,4l-1.2,0L257.1,354.7z M254.3,345.2c0.5-4.1,2.6-12.3,3.5-13.7c0.7-1.1,0,4.8-1,8.3c-0.5,1.8-2.4,6.9-2.6,6.9
	C254.2,346.8,254.2,346.1,254.3,345.2z M233.5,322c-2.3-1.9-4.5-5-5.1-6.3c-0.5-1-0.3-1,1.7,0.2c3.4,2.1,7.4,6.1,8.7,8.6
	c0.4,0.8,0.3,1.5-1.4,0.4C236.4,324.2,234.7,322.9,233.5,322z M248.1,321.4c-0.5-3.6,0.2-8.5,1.7-12c0.7-1.7,2.3-3.8,3.4-4.6
	l0.8-0.6l-0.2,2.6c-0.3,4.5-1.6,9.3-3.8,14.3c-0.7,1.6-1.3,2.8-1.5,2.7C248.5,323.8,248.3,322.7,248.1,321.4z M234.4,307.6
	c-0.9-2-1.6-4.6-1.4-5.2c0.1-0.4,2,2.5,3.4,5.6c1.1,2.3,3.5,8.2,3.5,8.6C240,317.1,235.3,309.4,234.4,307.6z M245,284.4
	c1.4-3.2,3.8-6.5,5.6-7.7c1.5-1,1.8-0.8,1.4,1.4c-0.3,1.9-0.8,2.8-2.1,4.2c-1.5,1.6-3.5,2.9-5.5,3.5
	C244.4,285.8,244.6,285.2,245,284.4z M229.2,284.3c-3-0.5-5-1.1-7.4-2.2c-3.3-1.7-6.6-5-5.5-5.7c0.8-0.5,5.3,0.6,9.2,2.2
	c3.4,1.5,9,5,9,5.7C234.5,284.7,231.6,284.7,229.2,284.3z M240.6,269.6c0.3-4.5,0.8-7.7,1.7-11.5c0.4-1.5,0.6,0,0.6,3.4
	c0,3.9-0.5,7.4-1.5,12c-0.5,2.3-0.7,2.6-0.9,2.1C240.3,275.1,240.3,273.2,240.6,269.6z M218.2,254.2c-3.3-1-5.3-1.9-6.9-3.1
	c-1.5-1.1-4-3.4-4-3.7c0-0.8,4.2,0.4,7.2,2.1c1.4,0.8,6.1,4.3,7.1,5.3C221.9,255.3,221.2,255.1,218.2,254.2z M226.6,246.3
	c-0.8-2-0.8-2.2-0.8-6c0-2.2,0.2-4.8,0.4-5.9c0.6-3.1,2.1-7.1,2.8-7.1c0.1,0,0.4,0.7,0.7,1.6c0.4,1.3,0.5,2.6,0.4,7.2
	c-0.1,5.3-0.1,5.7-1,8.9c-1.2,4.4-1.1,4.2-1.5,3.7C227.5,248.5,227.1,247.4,226.6,246.3z M205.6,225.3c-2.3-1.2-3.3-1.8-4.1-2.8
	c-0.6-0.7-1.1-1.4-1.1-1.5c0-0.4,1.9,0.3,3.6,1.2c1.4,0.8,5.3,4,5.8,4.7C210,227.4,209,227,205.6,225.3z M214.1,213.5
	c-0.3-5.3,0.1-10.4,0.9-10.4c0.9,0,1.5,5.1,1.1,8.7c-0.4,3.1-1.2,6.7-1.5,6.4C214.4,218,214.2,215.9,214.1,213.5z M198.3,197.4
	c-1.1-1.2-2.6-4.2-3.6-7.2c-1.1-3.3-0.9-3.4,1.4-1.1c1.7,1.7,2.5,3.3,3.5,6.4c0.5,1.7,0.6,2.2,0.4,2.5
	C199.5,198.6,199.4,198.6,198.3,197.4z M255,450.8c1-3.4,2.3-10.8,2.5-13.8c0.2-4-0.1-6.9-1-9.9c-0.9-2.9-3-5.6-3.7-4.4
	c-0.5,0.9-0.9,3.5-1,6.3c-0.1,3.1,0.7,13.2,1.4,19.1c0.3,2.6,0.6,5,0.6,5.3C253.9,454.2,254.3,453.5,255,450.8z M243.3,453
	c-4.7-6.6-9.4-12.1-13.2-15.5c-2.7-2.4-6-4.8-6-4.3c0,0.8,5.4,7.5,10.3,12.8c3,3.2,10.9,10.4,10.9,10
	C245.2,455.9,244.4,454.5,243.3,453z M234.5,413.9c0.8-0.5,1.7-1.3,2-1.8c0.6-0.8,0.6-1,0.1-1.5c-0.3-0.3-1.8-1.4-3.5-2.5
	c-2.9-1.9-2.9-1.9-3.8-1.5c-2,1-2,0.9-0.9,5c1,3.9,1.2,4.2,3.2,3.5C232.4,415,233.7,414.4,234.5,413.9z M215.7,410.7
	c0.7-0.4,1.5-1.1,1.8-1.5c1.1-1.4,2.7-4.2,2.6-4.6c-0.3-0.9-9.1-3.4-10.5-3c-0.7,0.2-0.3,3.9,0.8,6.7c1.1,3,1.4,3.3,2.3,3.4
	C213.7,411.8,214.3,411.6,215.7,410.7z M240.5,397.5c0-0.4-0.5-2.1-1.1-3.7c-0.8-2.5-1.2-3.2-2-4.1c-1.1-1.2-1.7-1.2-3.1,0.2
	c-0.9,0.9-3.9,6.5-3.7,7c0.2,0.5,1.2,0.8,4.4,1.3C239.6,398.8,240.5,398.7,240.5,397.5z M221.3,396.6c1-1,1-1.7-0.3-6.2
	c-1.2-3.9-1.6-4.5-3.2-4.4c-1.7,0.1-3.3,0.8-3.7,1.9c-0.4,0.8-0.3,1.1,0.3,2.7c0.4,1,1.1,2.3,1.6,2.9c0.9,1.1,4.2,4,4.4,3.9
	C220.4,397.4,220.8,397,221.3,396.6z M270.5,458.4c3.7-6.4,9.8-12.1,11.4-11c1.8,1.1-0.5,4.7-4.7,8
	C275,457.1,269.7,459.8,270.5,458.4z M287,436.2c0.9-0.3,1.6-1.8,1.6-3.5c0-2.5-1.9-8.5-2.8-8.7c-1.1-0.3-3.1,4.4-3,7.1
	c0,1.6,0.5,3.1,1.3,3.9C284.9,436,286.2,436.5,287,436.2z M276.9,418.4c1.6,0.4,2.7,0.3,3.2,0.2c0-3.8-7.4-11.9-10.7-10.3
	c-1.2,0.8,0.3,5.4,2.4,7.6C272.8,417,275.1,418.1,276.9,418.4z M304.1,421.1c0.6-0.5,0.7-0.6,0.6-1.5c-0.1-1.2-1.5-3.5-2.8-4.4
	c-1.9-1.3-4.6-1.2-7.7,0.1c-2.4,1-2.5,2.2-2.3,3.5c0,0.3,3.3,2.1,4.6,2.6C300.1,422.9,303.3,421.7,304.1,421.1z M288.3,410.2
	c2.2-5.2,2.4-7.5,0.7-9.6c-2.1-2.7-3.6-2.8-4.8-0.3c-0.8,1.7-1.2,4.1-1.1,7.3c0.1,2,0.8,6.7,1,6.8
	C285.1,414.6,287.2,412.6,288.3,410.2z M313.5,400.3c-3.6-4.8-6-8.6-7.4-11.2c-2.3-4.4-5.7-13.2-7-18.4l-0.9-3.3l3.2,3.4
	c3.5,3.8,8.6,10.9,11.2,15.7c2.9,5.3,4.3,9,5.3,14.1c0.9,4.5,1.3,7.1,1.1,6.9C318.9,407.5,316.4,404.2,313.5,400.3z M337.5,356.2
	c-1.5-6.9-2-10.2,3.5-19c2.2-3.5,3.3-6.5,4.2-6.5c1.1,0.2,2.2,3.5,2.7,5.2c-0.1,3.1-0.5,10.6-1.2,15.6c-1.4,3-1.4,6.5-7.6,10
	C339.1,361.5,337.8,357.7,337.5,356.2z M326.9,351.1c-1.5-2.8-2.1-5.4-1.8-7.7c0.2-1.9,1.6-4.6,2.9-5.5c1-0.7,1.2-0.7,1.8-0.3
	c0.4,0.3,0.7,0.8,0.7,1.2c0,0.4,0.2,1.8,0.3,3.1c0.1,1.3,0.2,2.9,0.2,3.5c-0.3,5.8-0.3,7.6,0,10.1l0.4,2.8l-1.5-2.3
	C328.9,354.7,327.6,352.5,326.9,351.1z M306.9,340c-3-5.5-4.9-10.3-7-17.5c-2.1-7.1-3.3-12.3-2.6-11.8c0.2,0.1,1.3,1.5,2.4,3
	c2.5,3.4,4.6,5.3,6.4,5.8c0.8,0.2,2.4,0.2,3.8-0.1l2.4-0.4l0.5,1.9c0.9,3.4-0.5,13.2-2.9,19.8c-0.5,1.4-1,2.3-1.2,2.1
	C308.4,342.6,307.6,341.3,306.9,340z M296,343.2c-5.8-1.6-11.4-4.2-12.3-5.8c-1.1-1.8,1.2-3.5,4.1-3c3.1,0.5,9.5,4.8,13.6,9.1
	C302.9,345.1,302.9,345.1,296,343.2z M291.4,329.5c-0.9-0.9-3.9-5.3-4.2-6.2c-0.1-0.4-0.1-1.8,0.1-3c0.2-1.7,0.1-2.8-0.5-5.3
	c-1-3.6-0.9-3.7,2.6-0.5c1.3,1.2,2.6,2.3,2.9,2.5c0.4,0.3,1.4,2.9,3.1,8.5l2.6,8.1l-3-1.8C293.4,330.9,291.7,329.9,291.4,329.5z
	 M319.3,419.3c-0.1-1.2,0.1-2.4,0-2.5c-0.1-0.3-3-4.3-6.4-8.9c-11.7-15.7-12.7-17.6-18.3-34.2c-1.7-5.2-3.6-10.2-4.1-11.3
	c-1.3-2.8-1.5-3.7-1-4.7c1.2-2.3,3.4-1.5,8.7,3c7.4,6.3,11.9,11.8,17.8,21.8c1,1.8,2,3.6,2.1,3.9c0.4,1.5,0.8,0.5,0.5-1.3
	c-1.6-9.3-3.8-17-7.5-26.2c-3.1-7.6-3.4-8.1-3.9-8c-0.5,0.2-14.4-3.4-17.8-4.6c-5.3-1.8-10-5.4-10.8-8.3c-0.5-1.8,0-4.2,1.3-5.9
	c1-1.3,1.7-1.8,3.8-2.7c0.4-0.2,0.7-0.4,0.7-0.5c0-0.1-0.5-1.2-1.2-2.5c-1.5-2.6-1.8-4.4-1.1-6.4c0.4-1.1,0.3-1.7-0.7-5.1
	c-0.6-2.1-1.2-4.5-1.2-5.3c-0.2-3.1,1.6-5.1,4-4.6c1.1,0.2,4.3,2.3,6.9,4.3c0.6,0.5,0.7,0.3,1-2c0.3-2,0.6-2.7,1.5-3.5
	c2.4-2.1,4.3-1.2,8.1,4.1c4.8,6.6,5.3,7,8.3,6.1c4.5-1.3,8,2.2,8.1,8.2c0.1,6.4-1.2,13.3-4.7,23.1l-1.1,3.1l3.2,7.9
	c2.8,6.8,3.5,9,5.3,15.6c1.1,4.2,2.3,9.5,2.6,11.6c0.3,2.2,0.6,4.1,0.7,4.2c0,0.2,0.7-1.6,1.5-4c1.2-3.7,4.1-11.7,5.4-14.7
	c0.4-0.9,0.3-1.1-0.9-3.2c-0.7-1.2-2.2-3.7-3.5-5.5c-5.8-8.5-7.5-13.6-6.5-19.2c0.7-3.6,4.1-8.1,7-8.9c2.7-0.8,5.7,0.4,7.4,3
	l0.8,1.2l3.2-5c3.9-6.1,4.9-7.2,6.9-7.2c0.9,0,1.7,0.3,2.5,1c-0.2-4.8-0.6-9.5-1.1-14.3c-0.8-6.3-2.1-12.6-3.8-18.7
	c-1.7-6.8-7.8-20.5-9-22.9c-2.5-4.7-5.2-9.3-8.2-13.6c-2.9-4.3-6.1-8.3-9.5-12.2c-6.7-7.7-14.4-14.4-22.8-20.1
	c-4.5-3-14.5-8.9-20.4-11.9c-6.7-3.4-13.5-6.7-20.4-9.7c-7.2-3.3-21.6-8.8-28.8-11.5c-10.4-4-20.7-8.3-30.9-12.8
	c-5.5-2.5-11-5.1-16.3-8c-3.2-1.7-6.2-3.6-9.1-5.7c-1.7-1.3-3.3-2.8-4.7-4.5c-3.4-4.3-4.3-9.7-4.5-11.5c-0.3-2.7-0.2-5.5,0.3-8.2
	c0.7-3.3,2.1-6.4,4-9c3-4.1,11.5-10.5,18.2-11.8c4.9-1,9.5-0.9,15-0.8c3.7,0.3,7.3,1,10.9,2.2c4.4,1.5,8.5,3.7,12.2,6.6
	c2.1,1.7,4.1,3.6,5.9,5.6c2.5,2.9,4.8,6.1,6.8,9.4c2.9,4.9,6.9,14.5,8.4,19.2l98.5-37.6c-3-10.9-12.3-31.7-18.2-41.7
	c-5.1-8.1-11-15.7-17.6-22.5c-9.9-10-21.3-18.2-33.8-24.2c-7.9-3.9-16.1-7-24.5-9.3c-5.3-1.5-38.4-9.3-62.7-6.6
	c-7,0.3-13.9,1-20.8,2.1c-9.4,1.5-18.6,3.8-27.6,7.1c-6.2,2.2-12.2,5-18.1,8.1c-9.6,5.3-21.6,14.5-24.9,17.4
	c-5.2,4.6-10,9.6-14.5,15c-4.5,5.2-12,17-15.4,23.3c-3.5,6.9-6.5,14-8.8,21.4c-1.7,5.5-4.5,17.1-5.2,23.8c-1,7.7-1.5,15.5-1.5,23.3
	l0.1,4.2c0.1,4.4,0.5,8.8,1,13.2c1.1,8.4,5,25,8.6,32.9c1.1,2.6,5,11,7.5,15c2.8,4.7,5.8,9.1,9,13.4c5.5,7.3,11.8,13.9,18.8,19.8
	c3.9,3.3,8.1,6.3,12.4,9.1c5.1,3.1,10.3,6,15.6,8.7c8.6,4.3,17.3,8.2,26.2,11.9c11.7,4.8,23.4,9.3,35.3,13.5
	c3.4,1.2,6.9,2.5,10.3,3.9c5.2,2.1,10.4,4.3,15.4,6.7c4.3,2.1,8.4,4.4,12.4,7c1.7,1.2,9.3,5.7,12.8,17.4c0.6,2.1,0.9,4.3,1,6.5
	c3.2-2.1,10.3,1.3,14,4.6c1.2,1.1,2.2,1.9,2.2,1.7c0-0.3-2-13.4-2.2-14.3c-0.1-0.4-1.3-1.3-3.6-2.7c-13.2-8-19.2-14-19.2-19.2
	c-0.2-4,3.8-5.5,7.3-3.9l-0.4-0.8c-1.6-3.3-2.2-9.8-1-11.7c2.2-3.7,6.2-2.2,10.5,4.1c-0.3-2.6-1.9-8.5-2.9-11.7l-3.5-0.1
	c-6.1-0.1-11.4-1.7-15.5-4.4c-4-2.7-6.3-6.1-6.3-9.2c0-3.3,2.3-5,6.6-5c2.9,0,10.2,1.9,14.4,4.1c-0.8-4.1-3.4-11.2-4.9-14.5l-2.3,0
	c-3.4,0-10.2-1.9-14-3.9c-4.2-2.2-8.1-6.1-8.9-9c-0.9-3.3,1.7-5.9,5.9-5.9c2.6,0,8.2,2.3,11.7,4.8c0.9,0.6,1.7,1,1.7,0.9
	c0.2-0.5-0.5-2.2-3.3-8.3l-2.8-6.1l-2.1-0.2c-2.8-0.2-4.2-0.7-7.6-2.1c-3.6-1.5-5.1-2.5-6.9-4.3c-3-2.9-4.2-6.9-2.7-8.9
	c1.1-1.5,4-5,11.8,0.4l-5.8-12c-2.2-0.4-6.4-3.4-8.4-7c-2.4-3.9-4.5-10.2-4.2-13c0.3-2.4,2.1-4,4.7-3.9c3.5,0.1,7.8,4.2,9.9,9.4
	c1,2.4,3.5,9.8,2.6,12.2l2.5,5.4l0.2-2.6c0.5-5.7,2.4-9.1,5.2-9.6c2.2-0.4,4.9,1.8,5.9,4.8c1.9,5.2,1.3,12.3-1.6,21
	c-0.5,1.6-1,3.1-1,3.4c0,0.5,3.3,7.4,3.5,7.4c0.1,0,0.3-0.8,0.5-1.7c0.9-4.3,3.1-8.3,5.2-9.5c1.1-0.6,1.5-0.7,2.7-0.6
	c4.1,0.4,5.9,5,5.9,14.3c-0.1,5.5-0.3,6.7-2.7,15l-1.6,5.6c1.2,2.8,2.9,6,4.4,12.2c0.1-0.1,0.2-1.5,0.4-3.1
	c0.5-5.2,1.6-9.5,2.9-12.2c1-2.1,2.4-3.2,4.2-3.2c2.1,0,5,1.1,5.3,9.6c-0.1,3.7,0.2,9-1.3,13c4.6-3.2,7.1-2.2,7.7-1.8
	c1.7,0.9,2.5,2.4,2.6,5.1c0.2,3.8-1.3,7.3-4.6,10.4c-2.4,2.3-6.5,4.5-10.5,5.1c0,0.2,2.8,10.7,3.4,14.5c1.8-3.7,4.2-5.6,5.7-6.4
	c1.9-1.1,3.3-1.2,4.8-0.5c3.5,1.6,4,6.3,1.6,15.4c-1.1,4.5-1.8,6.1-5,12.7c-2.5,5.1-2.5,5.1-2.3,6.7c0.1,0.9,0.3,1.7,0.4,1.7
	c0.1,0.1,0.5-0.9,0.9-2.1c1.3-4.5,3.3-7.6,5.4-8.6c1.4-0.6,2.2-0.6,3.6,0.1c0.9,0.5,1.4,0.9,1.9,2c0.7,1.3,0.7,1.7,0.7,4.6
	c-0.1,3.6-0.7,7.3-2.1,11.1l-0.8,2.4l2.7-1.3c4.9-2.5,8-2.3,9.3,0.4c1.4,2.8-0.1,7-4.1,10.9c-3.5,3.5-7.7,5.3-11.9,5l-2-0.1l0.1,2.4
	c0.2,3.4,0.6,7.8,1.2,13.2c1.9,17.7,2.3,20.7,3,42.9c1.7,1.8,3.3,5.8,4,10.1c0.8,4.9,0.9,15-0.5,22.2c1.2-3.1,4-10.2,5.7-13.6
	c2.6-5.7,4.8-9.6,6.8-12.1c0.7-0.9,1.3-1.6,1.3-1.7c-2.8-0.5-6.3-2.4-7.8-3.9c-2.7-2.7-4.7-7.4-4.6-10.7c0-1.8,0.9-4.1,2-5.1
	c0.9-0.9,2.9-1.6,4.3-1.5c1.6,0,5,1.7,6.7,3.2c0.6,0.5,1.1,0.9,1.1,0.9c0,0,0.1-0.8,0.1-1.8c0.1-4,1.4-7.7,3.4-10
	c1-1.1,4.4-2.4,5.9-2.1c3.7,0.7,7.4,4.3,8.3,8.1c0.4,1.9,0.4,4.3-0.2,6.4l-0.5,1.8l1.2-0.3c5.9-1.4,11.7,1.9,13.8,7.7
	c0.9,2.5,0,7.2-2.1,8.8c-2.9,2.2-8.9,2.7-12.9,1.1l-1.8-0.7l0.5,1.7c0.5,1.8,0.9,4.5,0.8,6c-0.1,1.7-0.9,3.8-1.9,5.2
	c-4.3,6.1-13.6,2.5-14.8-5.8l-0.2-1.6c-3.8,6.7-8.1,16.4-9.8,22.1c1.6-2.2,4.4-5.6,5.4-6.7c3.3-3.8,4.2-4.2,7-4.2
	c1.9,0.1,8.7,1.8,6.8,7.5c1.1-0.8,2.3-1.6,3.4-2.4c2.3-1.7,11-8.8,13.1-10.7c5.1-4.7,9.8-9.7,14.2-15.1
	C318,421,318.6,420.2,319.3,419.3z M328.8,405.4c1.9-3.1,3.5-6.2,5.1-9.5c4.6-9.5,8.1-19.6,10.4-30c-1.9,2-7.3,3.4-7.6,3.7
	c-0.7,0.9-2.5,5.3-4.7,11.6c-2.2,6.3-3.5,10.9-4.8,17.1C326.8,400.9,326.9,405.1,328.8,405.4z M180.9,467.4c0.7-3.6,1.5-6.3,2.8-8.4
	c1.9-3.3,5.1-6.1,7.2-6.2l1-0.1l0,1.6c-0.1,3.1-2.7,7.1-8.6,13.3c-1.5,1.5-2.7,2.7-2.7,2.7C180.4,470.3,180.6,469,180.9,467.4z
	 M169.5,465.7c-1.7-2.3-3.2-4.7-4.5-7.4c-1-2.1-2.2-5.3-2-5.5c0.2-0.2,2.5,2.6,3.9,4.8c1.8,2.8,3,5.2,4.1,8.6
	C172,469.1,172.1,469.1,169.5,465.7z M174.3,456.3c-0.5-1.5-0.6-2.5-0.5-5c0-4.6,0.8-5,2-1.1c0.4,1.3,0.6,2.6,0.6,5.3
	c0.1,2,0,4-0.1,4.6l-0.2,1l-0.6-1.4C175.2,458.8,174.6,457.3,174.3,456.3z M183,431.3c-0.5-0.9-1.2-2.3-1.4-3.3
	c-0.6-2-1.1-6.5-0.8-8l0.2-1l0.3,0.7c1,1.9,2.5,8.3,3,12.4C184.5,433.6,184.3,433.5,183,431.3z M190.9,432c2.1-4.8,4.4-8.2,6.9-9.9
	c2.7-1.8,3.7-0.6,2.2,2.6c-0.9,2-2.7,4-5,5.6c-1.3,0.9-4.2,2.7-4.5,2.7C190.5,433,190.6,432.6,190.9,432z M117.4,457.5
	c-4.1-4.5-6.4-9.4-7-15.4c-0.6-6.1-1-6.2,5,2.1c5.8,8.1,7.8,11.4,9.5,16.6c0.6,1.7,1.1,6.4,1.1,6.6
	C124.9,467.2,118.7,458.9,117.4,457.5z M132.9,456.8c0.2-4.4,1.7-11.1,3.7-16.9c1-2.8,3.5-8.7,3.8-8.8c0.4-0.1,0.5,8.8,0.1,11.8
	c-0.7,5.8-1.7,21.3-5,28.3l-2.9-0.8C132.2,469.5,132.2,460.6,132.9,456.8z M135.6,414.1c-1.8-2-3.6-8.7-3.6-13.7
	c0-3.2,0.8-9,1.1-7.7c0.1,0.5,0.7,2.1,1.3,3.5c2.7,6.5,3.7,13.1,2.7,17.1C136.7,414.8,136.4,414.9,135.6,414.1z M112.6,414.4
	c-0.2-1.1,0.9-4.5,2.3-7.2c1.7-3.3,4.5-7.1,7.9-11.1c1.6-1.8,3.2-3.6,3.5-4c0.6-0.7-1.7,4.7-3.8,9c-2.5,5-6.2,10.8-8.3,13
	C113,415.3,112.8,415.4,112.6,414.4z M151.3,405.7c-2.4-0.8-8.8-7.9-12-13.4c-0.4-0.9-0.8-1.4,0.8-0.1c4.4,2.9,5.6,3.8,7.3,5.6
	c2.7,2.7,3.6,3.9,4.4,5.6c0.6,1.4,0.8,2.5,0.4,2.6C152.2,406,151.8,405.9,151.3,405.7z M158,393.1c-2.7-0.1-10.5-2.9-13.9-5
	l-1.8-1.1c2.2-0.9,6.9-1.7,9.4-1.5c2.5,0.1,4.1,0.5,6.8,1.7C164.3,389.8,164,393.4,158,393.1z M105.5,398.7c2.2-2.4,5.4-5.1,7.6-6.5
	c2-1.3,7.6-3.8,8.1-3.8c0.7,0.1-7.9,7.1-11.5,9.3c-1.3,0.8-5,2.7-5.4,2.8C103.8,400.6,104.7,399.6,105.5,398.7z M96.6,418
	c0.3-0.8,0.1-1.5-0.6-3.3c-1.8-4-5.3-7.1-10-9c-6.3-2.6-14.4-1.2-20.1,3.3c-2,1.5-4.9,4.5-6.1,5.9l2.4-0.4
	c8.1-1.4,14.4-0.8,24.1,2.5c4.9,1.6,6.1,2,7.6,2.1C95.1,419.1,96.3,418.6,96.6,418z M52.6,409.9c-0.4-9,3.1-14.2,5.8-22.6
	c-0.3-0.5-0.7-0.9-1.1-1.3c-3.3-4.5-4.8-10-4.3-15.3c-1.1,0-2.1-0.7-2.6-1.7c-0.6-1.6-0.2-3.3,1-4.4c2-2.2,5.6-2.2,7.9,0
	c1.3,1.6-0.2,4.1-1.7,4.8l0,2.1c-0.2,2.8,0.3,5.7,1.5,8.4c0.4-2.6,0.9-5.1,1.7-7.5c-1.4-2.1-0.9-5.1,3-5.1c1.8,0.1,3.4,1.5,3.8,3.4
	c0.3,1.7-0.8,3.2-2.4,3.5c-0.8,2.3-1.4,4.6-1.6,7.1c2.8-1.4,5-3.8,6.2-6.8c-0.3-0.4-0.5-0.8-0.7-1.3c-0.4-1.8,0.6-3.4,2.3-3.9
	c2.3-0.5,4.7,0.9,5.4,3.2c0.2,1.7-0.9,3.2-2.6,3.3c-1.3,3.4-3.7,6.3-6.8,8.2c3.2-1,6-2.8,8.3-5.2c-0.3-1.2,0.1-2.3,1-3
	c1.8-1.3,4.4-0.8,5.9,1.1c1.6,1.6,1.8,4.2,0.4,5.8c-1.2,1.1-3.2,1-4.5-0.3c-4,4.2-9.6,6.6-15.6,6.5c-1.9,5.5-2.9,12.6-3.3,18.5
	c3.5-3,6.4-5.6,16.4-6.9c7.6-1.1,15.6,2,21,8.2c1.8,2,3.6,5.8,3.8,7.8c0.4,3.8-1.7,6.3-5.5,6.7c-2.4,0.2-4.7-0.2-9.5-1.9
	c-7.7-2.6-12-3.4-17.3-3.2c-3,0.1-4,0.7-5.5,1.8c-0.7,2.2-0.8,3.1,0,4.4c2.3,2.9,4.7,5.6,7.3,8.3c4.4,4.7,9.2,9.1,14.3,13.2
	c2.1,1.6,4.2,3.2,6.4,4.8c6.4,4.5,13.2,8.5,20.3,11.8c-6.8-7.4-6.7-20.6-6.5-29c2.6-11.5,15.4,6,18.9,11.7
	c-1.4-12.2-1.6-22,0.1-33.5c-0.8,0.9-1,0.8-2.7,3.1c-3.3,4.4-4.8,5.7-7.4,6.3c-2.2,0.5-3.7,0-4.9-1.5c-2.2-2.7-2-7.7,0.6-13.2
	c0.5-1.1,0.9-2,0.8-2c-0.1,0-0.9,0.3-1.9,0.8c-2.5,1.2-6,1.8-7.5,1.3c-3.1-1-3.9-4.3-2-7.8c1.8-3.2,7.7-8.8,12.1-11.4
	c3.3-1.9,8.7-4.7,12.9-5c1.1-2.7,3.5-5.2,7.8-6.2c5.8-1.5,10.6,2.4,10.3,5.5c3.1-1,9.8-2.6,15.8-0.5c7.7,2.4,12,7.4,10.5,12.3
	c-0.5,1.5-2.2,3.6-3.7,4.4c-1.5,0.8-5,1.4-7.1,1.2c-0.8-0.1-1.6-0.1-1.6-0.1c0,0,0.3,0.7,0.8,1.5c1.2,2,1.9,6,1.3,7.7
	c-0.9,2.7-3.9,4.1-7.3,3.5c-1.9-0.4-4.4-1.9-6.2-3.8l-1.3-1.3c0.3,3,1.5,8.8-2.9,12.9c-6.1,4.6-10.8-4-10.9-4.8
	c-0.4,1.5-0.5,1.6-0.9,5.5c-0.4,3.7-0.4,10-0.2,15c0.1,2.7,0.8,10,1,10.2c0,0,0.7-1.9,1.5-4.4c0.8-2.5,2.2-6.2,3.2-8.3
	c2-4.4,5.7-10.7,6.8-11.4c0.9-0.7,2.6-0.5,3.6,0.4c0.7,0.6,0.7,0.8,1.4,6.1c1.1,8.6,1.9,14.6,1,20.7c-0.9,5.7-1.8,18.1-4.6,25
	c6.9,1.6,14,2.8,21,3.5c3,0.3,6,0.6,9.1,0.8c-1.4-1-4.9-5.5-6.6-8c-3-4.1-5.1-7.9-6.8-12.4c-0.9-2.3-1-2.9-1-5c0-2,0.1-2.5,0.6-3.1
	c1-1.3,2.2-1.9,3.6-1.9c1.7,0,3,0.6,4.9,2.2c0.8,0.7,1.5,1.2,1.6,1.2c0.1,0,0.2-0.7,0.3-1.5c0.2-2.1,0.6-3.2,1.5-4.5
	c2.2-3,6.8-2.6,9.2,0.8c0.8,1.1,1,1.3,1.1,0.9c0.2-1.8,1-5.2,2-6.6l-1.3-1.5c-2.7-3.2-4-5.6-4.9-9.2c-0.6-2.2-0.6-3.1-0.6-6.7
	c0-3.3,0.1-4.5,0.5-5.7c1-3.1,3.5-4.5,6.1-3.4c2.3,0.9,3.9,3.5,5.4,8.7c0.5,1.7,0.9,3.1,1,3.2c0,0,0.6-0.7,1.2-1.6
	c1.3-2,4-4.7,5.9-5.8c4.5-2.8,9.7-0.8,10.6,4c0.4,2.4-1.1,6.5-3.4,9.4c-2.4,3-7,6.1-12.2,8.4l-2.9,1.2c-1.4,2.3-2.5,6.7-2.5,8.8
	c-0.2,0.5-0.1,0.5,0.7,0c3.9-2.3,7.9-2.1,10.1,0.3c1.8,2.1,2,5.2,0.5,9.1c-1.6,4.2-4.8,8.3-11.9,15.4c-1,1.1-1.4,2.9-0.9,3.6
	c11.7,0.2,23.4-0.6,35-2.2c4.7-0.7,9.5-1.5,14.1-2.5c4.9-1.1,9.8-2.4,14.6-3.9c-6.6-5.1-14.7-16.5-19.2-21.7
	c-8.1-9.2-12-15.7-11.5-19c0.4-2.1,2.2-3.5,4.3-3.2c2.2,0.3,9.6,5.2,13.8,9.1c2.6,2.4,3.6,3.5,6.7,7.1l2.6,3l-0.9-2.3
	c-3.1-8.2-6.8-16.9-8.3-19.4c-1-1.8-1.2-1.9-2.7-1.6c-2.8,0.5-4.8-0.2-6.5-2.2c-0.8-1-1.1-1.6-1.9-4.1c-0.5-1.6-0.9-2.9-1-2.9
	c0,0-0.4,0.5-0.8,1c-2,2.5-6.2,4.6-9,4.5c-2,0-4.3-1.2-5.4-2.7c-1.1-1.4-3-7.1-3.3-9.8c-0.3-2.2,0-5,0.7-6.2c1-1.7,3-2.8,5-2.7
	c0.5,0,0.9,0,1-0.1c0-0.1-0.3-0.8-0.8-1.7c-2.4-4.2-1.7-9.2,1.6-11.7c1.3-1,4.4-2,6.2-2.1c2.6-0.1,4.8,1,6.4,3.1
	c0.3,0.4,1.2,2.4,1.8,4.3l1.2,3.5l1.2-2.2c2-3.5,4.5-5.5,7.2-5.7c3.7-0.3,6.9,2.7,9,8.3c1,2.7,1.5,5.9,1.3,7.4
	c-0.5,2.9-2.4,4.6-5.5,5c-1,0.1-2.1,0.2-2.5,0.2c-0.7,0-0.7,0,0.6,0.9c3,2.2,4.4,4.6,4,7.1c-0.3,1.5-1.6,3.7-3,5
	c-1.2,1.1-1.2,1.1-0.5,2c0.8,1,3.2,6.2,5.1,10.8c2.7,6.7,2.6,6.6,2.5,3c-0.4-7.8-0.4-16.3,5.5-16.8c-0.6-18.7,0.2-24.4-1.4-39.4
	c-0.2-1.8-2.3-10.9-2.1-13.5c-3.4,0-15.8-2.5-18.7-7.7c-2.3,5.9-7.2,11.7-9.9,13.9c-1.7,1.4-3.5,2.5-5.4,3.6
	c-2.8,1.5-5.8,2.7-8.9,3.6c-3.8,1.1-7.8,1.7-11.7,2c-5.3,0.4-10.7,0.2-16-0.7c-3.9-0.6-7.8-1.7-11.5-3.3
	c-1.4-0.6-16.6-7.6-22.8-20.5c-2.1-3.4-3.9-6.9-5.4-10.6c-2.1-4.8-5.3-14.9-6.2-20.3L28.2,352.8l1.1,3.5c2.6,9.2,5.8,18.2,9.5,27
	C41.7,389.6,47.1,401.2,52.6,409.9z M69.8,197c1.4,1.1,2.9,2.1,4.4,3c1.4,1.1,2.8,2.1,4.3,3.1c1.3,0.8,2.8,1.4,4.3,1.7
	c1.7,0.5,3.3,1.3,4.8,2.3c3.1,1.6,6.4,2.9,9.8,3.8c2.6,0.5,5.3,0.6,7.9,0.2c2-0.3,3.7-1.6,4.5-3.4c0.6-1.2,1.2-2.4,1.8-3.5
	c0.3-0.5,0.8-0.8,1.3-0.9c0.2,0,0.2,0.3,0.1,0.5c-0.7,0.9-1.1,1.9-1.4,2.9c-0.1,0.9-0.1,1.7-0.1,2.6c-0.1,0.9-0.5,1.6-1.1,2.3
	c-0.7,0.8-1.3,1.8-1.5,2.9c0,0.7-0.1,1.3-0.2,1.9c-0.3,0.8-0.7,1.6-1.3,2.2c-0.9,1.3-1.5,2.7-1.7,4.2c-0.5,1.7-1.3,3.3-2.3,4.7
	c-0.7,0.9-1.2,1.8-1.6,2.9c-0.2,0.6-0.3,1.3-0.4,1.9c-0.2,0.9-0.5,1.7-1.1,2.3c-0.9,1.3-1.5,2.7-1.8,4.2c-0.6,1.4-1.2,2.9-1.8,4.3
	c-0.5,1.2-1,2.4-1.5,3.7c-0.4,1-0.4,2.2-0.5,3.2c-0.1,0.8,0.5,1.4,1.8,0.1c1.1-1.1,1.9-2.4,2.5-3.8c0.8-1.8,1.7-3.6,2.5-5.4
	c0.6-0.9,1.1-1.9,1.6-2.9c0.3-0.8,0.6-1.7,0.7-2.5c0.2-0.8,0.6-1.6,1.2-2.3c0.8-1,1.4-2.2,1.7-3.5c0.4-1.7,1-3.4,1.8-5
	c0.6-0.9,1.2-1.8,1.7-2.8c0.4-1,0.7-2.1,0.8-3.2c0.2-0.8,0.7-1.6,1.4-2.1c0.8-0.8,1.3-1.8,1.4-2.9c0.1-0.7,0.2-1.3,0.4-1.9
	c0.3-0.8,0.9-1.5,1.6-2c1-0.9,1.7-2,2-3.3c0-0.4,0.2-0.7,0.3-1c0.1-0.1,0.3-0.1,0.3,0.2c0.1,0.9-0.1,1.7-0.5,2.5
	c-0.6,1.2-1.1,2.4-1.5,3.7c-0.4,1.5-0.1,3.1,0.8,4.4c1.8,2.8,4.2,5.2,6.9,7c3.2,2,6.6,3.6,10.1,4.9c1.4,0.7,2.7,1.5,4,2.3
	c1.6,0.8,3.2,1.4,5,1.7c1.9,0.4,3.8,1,5.7,1.6c1,0.4,2.1,0.5,3.2,0.5c2.6,0,1.8-3.1,1.4-3.9c-0.7-1.4-1.6-2.6-2.7-3.7
	c-1.7-1.8-3.5-3.3-5.6-4.6c-1.4-1.1-2.8-2.1-4.3-3.1c-2.6-1.6-5.1-3.5-7.4-5.5c-2.7-2.3-5.4-4.6-8-6.9c-0.7-0.6-1.3-1.1-2-1.7
	c-0.7-0.6-0.5-0.8-0.3-0.7c0.6,0.2,1.1,0.5,1.6,0.8c2.5,1.5,4.9,3,7.2,4.7c2,1.4,4,2.7,6.1,3.9c2.4,1.2,4.9,2.1,7.5,2.7
	c2.6,0.6,5.2,1,7.8,1c1.5-0.1,3.1-0.3,4.6-0.7c2-0.3,3.9-0.4,5.9-0.5c0.8,0,2.1-0.4,2.1-1.8c-0.1-1.1-0.6-2.1-1.4-2.8
	c-1.3-1.2-2.8-2.1-4.5-2.7c-3.7-1.3-7.6-2.4-11.5-3.1c-2.8-0.7-5.5-1.6-8.1-2.9c-1.8-0.8-3.6-1.7-5.4-2.5c-3.5-1.4-7.1-2.2-10.9-2.5
	c-0.9-0.1-0.4-1.1-0.2-1.7c0.2-0.8,0.1-1.7-0.2-2.5c-0.3-0.5-0.2-1.2,0.3-1.3c0.4-0.1,0.8-0.1,1.2-0.1c0.9,0,1.7-0.4,2.1-1.1
	c0.2-0.4,0.3-0.8,0.2-1.2c-0.1-0.9-0.5-1.7-1.1-2.3c-0.5-0.7-1.1-1.4-1.7-2c-0.7-0.5-1.5-0.8-2.4-0.6c-1.1,0-2.2,0.1-3.3,0.4
	c-0.4,0.1-0.8,0.4-1.1,0.7c-0.6,0.6-0.7,1.5-0.4,2.3c0.3,0.6,0.7,1.1,1.1,1.5c0.1,0.1,0.3,0.4,0.1,0.8c-0.3,0.3-0.6,0.5-1,0.6
	c-0.4,0.1-0.8,0.4-1.1,0.7c-0.5,0.5-0.8,1-1.1,1.6c-0.1,0.5-0.8,0.6-1.6-0.3c-2.9-2.8-6.2-5-9.8-6.7c-3-1.3-6-2.8-8.9-4.4
	c-1.8-1.2-3.6-2.5-5.3-3.9c-2.5-1.9-5.1-3.5-7.8-5c-1.4-0.7-2.9-1.2-4.4-1.3c-0.9-0.1-1.7,0.1-2.5,0.6c-1.6,0.8-0.6,3.1,0.7,4.3
	c1.4,1.7,2.6,3.6,3.6,5.5c1.1,1.9,2.6,3.6,4.3,5c2.8,2.5,5.9,4.6,9.4,6.1c2.3,0.9,4.6,1.6,6.9,2.2l0.6,0.2c3,0.8,5.9,1.7,8.8,2.7
	c0.6,0.2,0.7,0.5,0.3,0.6c-3.9-0.7-7.8-1.3-11.7-1.9c-2.4-0.4-4.8-0.9-7.1-1.4c-2.7-0.9-5.5-1.6-8.3-2.2c-2.3-0.7-4.7-1.2-7.1-1.4
	c-1.5-0.2-3.1-0.1-4.6,0.2c-0.9,0.2-1.6,0.6-2.3,1.2C67.9,194.2,68.6,196,69.8,197z"/>
<path class="st2" d="M372.8,7.4c-1.2,0-2.1,1.2-2.1,2.4v124.8c0,1.3,1.1,2.3,2.3,2.3h84.4V487c0.1,1.3,1.1,2.3,2.3,2.3h138
	c1.3-0.1,2.2-1.1,2.2-2.4v-350h86.7c1.3-0.1,2.2-1.1,2.2-2.4V9.7c0-1.3-1.1-2.3-2.3-2.3L372.8,7.4z M511.1,405.8
	c0.7-8.2,1.9-13.3,6.5-27.1c1.7-5,3.2-9.8,3.4-10.6c0.4-1.7,0.4-1.9,0.5,4.6c0.1,13.3-0.2,16.3-2.5,22.7c-1.6,4.6-3.1,7.6-7,13.8
	c-1.3,2-1.3,2.1-1.3,0.9C510.9,409.5,511,407.5,511.1,405.8z M498.1,395c-2.3-3.7-3.7-7-6.9-16.3c-3.4-9.5-5.2-14-7.2-17.2
	c-1.9-3.1-1.9-3.1,0.3-1.2c7.5,6.8,12.2,14.3,16.2,26.1c0.6,1.8,2.6,14.9,2.4,15.5C502.7,402.2,500.4,398.7,498.1,395z M490.7,332.3
	c-0.7-0.7-9.7-11.1-13.1-15.5c-1.3-1.8-7.6-11.3-8.4-14.3c1.8-0.1,4.3,3.1,6.1,4.7c5.1,5.4,11,12.7,14.2,19.1c0.9,1.9,2,4,2.4,4.7
	C492.8,332.6,492.4,334,490.7,332.3z M523.9,323.5c0.3-1.5,1.4-5.9,2.5-9.6c1.8-6.4,3.8-14.5,3.9-16.1c0.1-1.8,0.4,1.8,0.3,5.7
	c0,8.3-1.9,15.5-6.2,23.5l-1.3,2.5C523,328.5,523.3,325.7,523.9,323.5z M480.9,287.4c-2.2-3-3.6-5.8-3.9-8.3
	c-0.2-1.6,0.9-1.3,3.7,3.2c2.6,4.2,4.4,7.3,2.9,8.3C483.3,290.5,482.1,289.1,480.9,287.4z M489,288.4c-0.4-2.8-0.5-8.7-0.3-9.4
	c0.1-0.2,6.2-2.8,6.3-0.9c0.2,0.4-0.7,4.1-1.5,6c-1,2.6-3.7,7.2-4,7.1C489.4,291.1,489.2,289.8,489,288.4z M551,314.7
	c0-0.1,2.7-1.1,6-2.3s6.5-2.4,7.2-2.6c3-0.6,2.4,4.6,0.5,5.3c-3.3,1.1-8.1,1-13.4-0.2C551.1,314.8,551,314.8,551,314.7z M547.7,299
	c0.6-3.2,1.4-6.5,1.8-7.4c0.6-1.5,0.8-1.7,2.7-2.5c1.1-0.5,3.9-2.2,6.1-3.7c5.1-3.5,5.9-3.8,6-3c0.2,0.9-1.3,4.4-3,7.1
	c-0.8,1.3-3,4.1-4.8,6.1l-10.5,12L547.7,299z M557.5,302.6c5.9-6.4,9-9.5,11-10.8c0.9-0.6,2.4-0.6,3.2,0c1.1,0.9,1.3,1.2,1.1,2
	c-0.4,1.4-3.1,4.6-5.3,6.3c-1.8,1.4-14.2,7.9-14.3,7.6C553.2,307.4,555.1,305.2,557.5,302.6z M482.1,272.6c0.1-2.1,0.3-4.1,0.5-4.5
	c0.3-0.7,0.5-0.7,1.5-0.3c1.5,0.6,2.1,1.3,3.1,3.4c0.6,1,0,2.1-0.9,2.3c-1.6,0.6-1.6,0.7-2.3,2.9c-0.3,2.1-1,2-1.4,1.1
	C482.1,276.6,482,275.5,482.1,272.6z M513.1,258.9c-0.8-2.7-0.9-4.6-0.4-9.7c0.7-7.7,0.7-9.2-1-21.1c-0.4-3-0.8-7.2-0.9-9.4
	c0-2.1-0.2-5.1-0.3-6.6l-0.2-2.7l1.7,3.1c2.9,5.3,4.6,10.6,5,15.8c0.3,3.6-0.1,16.5-0.7,21.3c-0.3,2.7-1.7,10.6-2,11.3
	C514.2,261.3,513.6,260.5,513.1,258.9z M521.8,255.8c1.9-3,6-7.7,10.5-16.8c1.3-2.6,2.9-6.5,4.2-10.2c2.2-6.1,3.8-9.5,7-14.6
	c0.9-1.4,1.8-2.7,2-2.8c0.2-0.1,0,1.6-0.4,3.7c-2.3,12.1-5.3,19.9-12.2,31.2c-3.5,5.7-4.8,7.5-7.8,10.7c-2,2.1-3.5,4-5.2,4.7
	C520,261.7,520.7,257.5,521.8,255.8z M527.2,197.7c-1.1-2.7-1.1-4.9-0.2-7.3c0.7-1.9,3-6.2,4.4-8.3l0.6-0.9l0.1,1
	c0.2,1.7-0.4,6.1-1.5,10.9c-0.4,1.9-1.2,5.9-1.3,7.9C528.7,200.4,527.6,198.8,527.2,197.7z M535.2,197c0.4-2,0.8-2.9,1.7-4.3
	c1.6-2.3,9.2-11.4,9.5-11.3c0.4,0.1,0.3,1.8,0,3.5c-0.2,1-1.1,2.6-2.5,4.7c-2.5,3.7-9.1,11.3-9.2,10.4
	C534.6,199.8,534.9,198.4,535.2,197z M565.4,468c-1.7-3.2-4.5-10.1-5.3-13c-1-3.9-1.3-6.8-1.1-9.9c0.3-3,0.7-4.5,1.7-5.2
	c0.6-0.4,0.6-0.4,1.1,0.1c0.7,0.8,1.6,3.2,2.3,5.9c0.7,3,2,13.1,2.5,19c0.2,2.7,0.4,5,0.5,5.3C567.1,471.1,566.7,470.5,565.4,468z
	 M577.6,467.7c3.4-7.5,7.5-15.5,10.7-19.6c0,4-0.2,11.3-4,17.6c-2.3,3.7-7.9,5.8-8,5.3C576.2,471,576.8,469.5,577.6,467.7z
	 M574.4,416.2c-0.9-0.5-0.9-0.6-0.7-1.3c0.2-0.4,1.2-2,2.3-3.7c2-2.9,2-3,3-2.9c2.3,0.2,2.2,0.1,2.8,4.3c0.6,4,0.5,4.3-1.6,4.5
	C579.3,417.2,574.9,416.5,574.4,416.2z M565,404.2c-0.1-0.4-0.6-7.3-0.1-8.4c0.6-1.6,1.1-1.8,3-1c1.2,0.5,6.2,4.5,6.2,5
	c0.1,0.6-0.8,1.2-3.7,2.9C566.3,405,565.4,405.3,565,404.2z M582.7,395.8c-1.4-0.5-1.6-1.1-2.1-5.9c-0.4-4.1-0.2-4.7,1.4-5.3
	c1.7-0.6,3.4-0.5,4.3,0.3c0.7,0.6,0.6,5.1,0.4,5.9C585.8,395.1,583.3,396,582.7,395.8z M550.3,472.6c-5-5.9-7.1-7.4-11-10.2
	c-2.8-2-6.1-4-6.1-3.6c0,0.8,6.4,7.8,11.5,12.4C547.8,473.8,551.4,473.9,550.3,472.6z M546.2,437.6c0.7-0.6,0.8-0.7,0.4-1.3
	c-0.2-0.3-5-5.4-5.9-5.2c-2.1,0.5-2,0.4-1.9,4.4c0.1,3.8,0.2,4.1,2.2,3.9C541.8,439.3,545.8,438,546.2,437.6z M529.1,430.9
	c1.3-1,3.4-3.2,3.4-3.6c-0.1-0.9-7.8-5.1-9.1-5c-0.7,0.1-1.1,3.5-0.7,6.3c0.4,2.9,0.6,3.4,1.4,3.6
	C525.1,432.4,528.7,431.1,529.1,430.9z M553,425.1c0.1-0.4-0.6-6.8-1.2-7.8c-0.8-1.3-1.3-1.4-2.9-0.5c-1,0.6-5,5.1-5,5.6
	c0,0.5,0.9,1,3.9,2.1C551.9,426,552.8,426.1,553,425.1z M535.3,420.1c1.2-0.7,1.3-1.3,1-5.7c-0.3-3.8-0.5-4.4-2.1-4.7
	c-1.6-0.3-3.2,0.1-3.9,1c-0.5,0.7,0.2,4.9,0.6,5.5C531.5,417.3,533.2,421.2,535.3,420.1z M541.5,446.3c0.4,3.4,5.3,14.4,8.7,18.6
	c-3.2-3.2-4.3-4.1-6.9-6.2c-1.5-1.2-3.5-2.5-5.5-3.7C539.4,452.9,540.5,448.8,541.5,446.3z M588.2,440.1
	c-2.4,2.1-11.2,16.3-13.5,20.5c4.6-13.4,7.4-30.9,7.4-37.7c2.9-0.7,3.8-0.6,4.6-3.1c0.4-1.2,0.6-9.3,0.6-9.3c0,0,0.3,0.1,0.9,0.4
	L588.2,440.1z M580.8,477.3c3.1-2,5.2-3.9,7.4-6.5v6.5H580.8z M542.2,477.3h-20.4c2.6-1.9,6.6-7.2,9.6-11.7
	C533.7,468.6,538.9,474.1,542.2,477.3z M469.1,312.6c4.7,9.7,18.2,21.9,19.6,23.1c2.6,2.3,6.2,4.9,6.7,4.8c2.3,3.1,2.5,9.2,2.7,16.9
	c0.1,2.7-0.5,5.9,0.9,12.6c-3.1-5.8-8.3-10.6-12-13.9c-3.6-3.2-6.6-4.9-9.3-4.7c-1.9,0.1-4.2,2.9-2.4,5.4c2.7,4.2,3.5,5.8,5.7,9.8
	c1.9,3.5,3.3,7,7,17.8c1.2,3.6,2.8,7.5,3.4,8.8c2.2,4.4,8.9,14.8,11.9,18.3c1.8,2.1,2.1,3.9,2.7,14.7c0.8,14.4-0.2,21.6-2.3,39.7
	c-2.4-7.8-5.2-16.7-6.4-22.5c0.9-0.6,1.3-1.1,1.2-5.3c-0.1-5.7-6.4-21.1-13.8-31.2c-2-2.4-6.6-4.3-5.3-1c2.1,4.4,3.4,9.2,3.7,14
	c0.2,6.3,0.2,10.6,0.7,19c0.1,6.9,5.6,7,8.2,6.8c1,7.4,5,20.4,7.5,26.6l-9.2-10.2c1.3-2.6-2-9.5-8.3-5.5c-5.2,3.2-2.5,11.6,5.1,9.7
	c0.8,0.7,5.1,8.1,5,11h-23L469.1,312.6z M521.8,436.8c-5.1,5.1-8,12.2-10.9,18.5c2.3-18.7,0.8-12.6,0.2-26.2
	c-0.1-2.5-0.3-7.4,0.8-9.9c0.6-1.1,2.8-4.5,4.7-7.6c3.1-5.1,3.8-6.4,6.1-12.2c2.1-5.1,2.7-7,3-9.3c0.6-4,0.9-9.1,0.8-13.2
	c-0.1-1.9-0.1-6.3-0.1-9.7c0-10.1-0.2-13-0.9-13.9c-1.9-2.4-5.4,1.9-7.1,7.5c-3,8-7.9,22.8-9.4,28.1c-1.5,5.4-1.5,5.4-2.3,1.4
	c-1.4-7.2-1-9.9,3.7-24.3c2.1-6.5,3.3-9.3,6.8-15.4c3.7-6.6,6.8-10.6,14.9-19.6c2.5-2.8,6-6.7,7.8-8.8c2.4-2.8,3.4-3.7,4-3.7
	c0.4,0,2.9,0.5,5.4,1c5.6,1.2,9,1.6,12.4,1.3c4.6-0.4,8.2-2.2,9.1-4.5c2.2-3.8,0.9-9.2-1.6-11.2l1.9-1.4c3.1-2.3,4.9-4.8,6.4-8.3
	c1.2-3.1,1.2-3.1,0.6-4.5c-0.8-1.7-1.9-4.2-9.7-3.7c3.1-4.9,0.4-9.1-2.1-10c-2.3-0.9-4.3-0.2-9.8,3.5c-2.7,1.8-5.7,3.6-6.7,4.1
	c-2.8,1.4-3.6,2.2-4.7,4.9c-1.5,3.8-4.2,18.8-4,22l0.1,1.9l-4.2,4.7c-2.3,2.6-4.4,4.9-4.6,5.1c-0.2,0.2,0.1-1.2,0.8-3.2
	c2.9-8.8,3.5-20.5,1.4-30.3c-1.1-5.3-1.9-7.2-3.3-7.8c-1.4-0.5-3.4,0.2-3.5,1.2c-0.2,1.6-2.6,15.8-3.2,18.6
	c-0.4,1.8-1.6,6.4-2.7,10.3c-1.1,3.9-2.3,8.7-2.7,10.7c-0.9,4.8-1.2,11.2-0.8,14c0.5,2.4-0.9,4.1-1.5,5.1
	c-4.1,6.2-6.1,10.1-8.9,17.2c-1.5,3.8-1.8,4.4-2.8,6.8c-0.1-0.4,0.5-17.8,0.9-22.3c0.6-8.5,1.1-12.6,3.2-26.6
	c2.6-17.1,4.8-29.1,7.3-39.1l2-8.1l2.1-1.8c1.1-1,3.4-3,5-4.3c4.3-3.6,7.5-7.6,11.5-14.1c6.2-10.2,8.6-15.5,11.1-24.5
	c2.6-9.4,4.4-22.7,3.3-24.4c-1.3-2-3.6-1.6-5.3,1c-0.6,1-2.5,3.6-4.1,5.8c-4.5,6.2-7,11.1-9.6,18.3c-2.2,6.1-6,14.7-7.5,16.4
	c-0.1-0.1,0.8-4.3,1.8-8.6c2.3-10.2,3.1-13,5.3-19.2c2-5.8,2-5.7,8.1-12.2c10-10.5,13-16.5,11.4-23.1c-0.9-3.7-3.1-5.5-5.5-4.5
	c-1.2,0.5-1.5,0.8-5.9,6l-2.6,3.1l-0.1-2.4c-0.3-5.1-1.6-7.8-3.8-8.2c-2.2-0.4-3.4,0.9-7.7,8.8c-3.1,5.6-4.5,9.6-4.3,12.5
	c0.2,3.5,1.8,7.1,4.9,10.7l2.6,3.1l-1.7,4.9c-1.5,4.3-3.2,10.2-4.3,14.7l-0.3,1.4l-0.3-2.4c-0.7-5.7-2.5-10.9-5.4-16.4
	c-1.1-2.1-2.9-5.8-4-8.1c-3.1-6.8-5.1-8.7-7.4-7.1c-1.1,0.8-1.2,1.8-0.6,5.1c0.3,1.5,1,14,1.1,16.4c0.1,5.7,0.3,7.5,1.3,14.9
	c1.1,8,1.2,11,0.7,17c-0.3,2.8-0.4,6.2-0.3,7.6c0.2,3.1,2.1,7.5,4.3,10.1c0.9,1,1.6,2.1,1.6,2.5c0,0.3-0.9,4.5-2.1,9.2
	c-1.1,4.7-2.8,12.9-3.8,18.2c-2,10.9-5.3,33.4-5.9,39.3c-0.2,2.2-0.4,4.1-0.5,4.2c-0.5-1-0.7-1.7-1.3-4.1c-0.7-2.4-2.1-7-3-10.1
	c-2-6.4-3.6-12.9-4.7-18.8c-1-5.7-0.3-8.9,3.4-15.1c2.6-4.3,4.7-10.3,4.7-13.4c0.3-5.1-3.7-6.8-6.9-5.2l-1-2.7
	c-1.3-3.7-2.7-5.4-5.4-6.7c-2.5-1.2-4.8-1.6-6.5-1c-2.7,0.8-3.6,4.7-3.2,7c-1.5-1.4-4.1-1.6-5.1,1c-0.8,2-0.3,9.2,0.8,12.8
	c1.3,4.1,4.2,8.1,8.7,12.2c3.7,3.3,4.2,4.2,5,9.5c0.4,2.6,1,5.7,1.3,7l0.5,2.4c-4.6-4.5-9.1-15.9-19.3-18.2l0-171.3h-86.7V19.5
	h294.8v105.4h-88.9v254.6c-1.6-0.4-6.6-0.8-8.3-0.2c-8.1,1.9-6.7,9.6-4.7,13.7c-2.4-1.4-6.6-5.1-11.1-4c-3.6,1.2-5.5,5.2-5.3,11.2
	c0.1,2.9,0.8,6.1,1.6,7.3c1.6,2.5,4.7,3.3,9,2.4c-2,3.2-2,6.4-0.7,8.5c0.8,1.3,2.7,3.8,6.1,3.9c-0.1,1.4,0,16-4.8,29.1
	c-1.2-7.8-3-15-5.8-16.6c-1.4-0.8-3.9-1-5.3-0.5c-1.2,0.5-3,2-3.7,3.2c-1.4,2.1-2.1,6.4-1.9,10.7c0.2,5,1.4,9.4,4.3,16.2
	c-5.1-4.7-10.2-15.3-10.5-21c1.5-0.8,4.1-3.3,4.7-4.6c0.9-2.1-0.5-5.4-2.8-8c5.5,1.1,7.7-0.8,8.7-3.3c0.5-1.3,0.7-4.4,0.3-7
	c-0.7-5.6-3.1-9-6.6-9.5c-3.5,0.4-8.1,3.3-9.6,5.4c-0.1-1.9-0.1-5.6-1.2-7.7c-1-2.3-2.9-3.8-5.4-4.2c-1.7-0.3-4.8,0-6.2,0.6
	c-3.6,1.6-6.2,5.4-3.6,12.1c-4.2-1.2-4.9,0-6.1,1.3c-0.9,0.9-1.8,3.5-2,5.5c-0.2,2.5,0.4,8.1,1.1,9.6
	C519.2,435.2,520,436.4,521.8,436.8z M528.4,436.9c1.6-0.4,2.4-0.3,4.9-2.6c0,8,2.1,8.4,3,9c-2.3,5.5-2.5,6.4-3.9,9
	c-1.3-0.6-2.2-0.9-2.8-0.9c-2-0.1-3.7,1.3-3.9,3.3c-0.1,1,0.5,2.7,1.5,4.6c-3.1,3.3-5.5,5.4-11,9.3c-1.8,1.3-3.2,0.7-2.8-0.4
	C513.6,467.6,519.4,447,528.4,436.9z"/>
<path class="st1" d="M171.7,813.2c6.9,2.7,13.6,5.7,20.1,9.2c2.2,1.2,4.4,2.5,6.4,4c5.6,3.9,8.5,10.6,7.5,17.3
	c-1.2,5.3-2.9,9.5-6.9,12.4c-4.1,3.1-8.8,5.1-13.9,6c-8,1.2-16.3,1.2-24.2-0.8c-7.8-2.2-14.6-7-19.2-13.5c-3.8-5.4-6.9-11.3-9-17.5
	c-1.1-3-2-6-2.8-9.1l-2.8-14c-0.1-0.3-0.2-0.5-0.3-0.7c-0.2-0.3-0.5-0.6-1.1-0.9c-0.2-0.1-1-0.3-1.5-0.1L1.7,840.2
	c-1.2,0.4-2,1.7-1.6,2.9l0,0c1.8,5.8,5.3,17.5,7.5,23.3c0.8,2.4,1.6,4.7,2.5,7c6,16.7,14.3,32.6,24.6,47.1
	c12.2,17.2,27.9,31.5,46,42.2c16.4,9.5,34.3,16,53,19.2l2.7,0.5c15.4,2.5,31.1,3.4,46.7,2.6c6.1-0.3,13.5-1,18.3-1.5
	c17.9-2,35.5-6.6,52-13.7c2.2-0.9,6.5-3,8.6-4.1c28.1-14.3,51.2-36.9,66-64.8c0.8-1.5,2.2-4.4,2.9-6c7.2-15.7,11.7-32.5,13.4-49.7
	c0.1-1.5,0.4-4.6,0.5-6.1c1.1-15.5,0-31.1-3.2-46.4c-4-18.5-11.9-35.9-23.2-51.2c-10.9-15-24.8-27.6-40.8-36.9
	c-2.8-1.6-9-5.2-13.6-7.6c-5.2-2.7-15.8-7.8-21.2-10c-9.6-4.2-19.3-8-29.1-11.6c-13-4.9-25.7-10.3-38.3-16.3c-4-1.9-7.9-4-11.8-6.4
	c-1.8-1-3.4-2.2-4.9-3.6c-2-1.8-3.2-4.4-3.3-7.1c0.1-4,1.1-7.6,3.5-10.1c3-3,6.2-5,10.1-5.7c7-1.1,14.4-0.9,21.2,1.5
	c5.3,2.1,9.9,5.6,13.4,10.2c4.1,5.3,7.3,11.3,9.5,17.6c1.8,4.8,3.5,9.6,5.1,14.4c0.1,0.2,0.2,0.4,0.3,0.6c0.6,0.8,1.7,1.2,2.6,0.8
	l111.2-42.5c3.9-1.5,4.3-2.2,4.5-3.5c0.2-1.1-0.9-6.5-1.3-7.9l-1.8-5.7c-0.6-1.8-1.7-5.3-2.3-7c-4.5-12.9-10.5-25.2-18-36.6
	c-15.4-23.5-37.6-41.6-63.7-52c-12.6-5-25.8-8.6-39.3-10.5c-18.1-2.7-36.4-3.1-54.6-1.4c-1.4,0.1-4.1,0.4-5.5,0.6
	c-16.4,2-32.5,6.5-47.5,13.5c-19.3,9.1-36.4,22.4-49.9,38.9c-0.7,0.8-2,2.5-2.6,3.3c-14.1,18.1-23.6,39.4-27.9,61.9
	c-0.1,0.8-0.4,2.3-0.5,3c-3.2,18.1-3.4,36.5-0.8,54.6c0.4,2.6,1.2,6.9,1.7,9.1c4,17.9,11.7,34.9,22.5,49.7
	c9.9,14,22.4,25.9,36.8,35.2c11.7,7.5,27.3,14.5,43.5,21.4c5.9,2.4,11.8,4.8,17.8,7.1C150.4,805.4,164.8,810.4,171.7,813.2z"/>
<path class="st2" d="M358.6,503.5c-1.2,0-2.1,1.2-2.1,2.4v124.8c0,1.3,1.1,2.3,2.3,2.3h84.4v350.1c0.1,1.3,1.1,2.3,2.3,2.3h138
	c1.3-0.1,2.2-1.1,2.2-2.4V633h86.7c1.3-0.1,2.2-1.1,2.2-2.4V505.8c0-1.3-1.1-2.3-2.3-2.3L358.6,503.5z"/>
<path class="st0" d="M872.1,860.8c-6.1-0.8-11-2.6-15.7-5.7c-4.4-3.1-7.6-7.5-9.2-12.7c-1.3-4.1-2.2-8.3-2.7-12.5
	c-1.4-11.1-2.1-22.3-2.3-33.5c-0.2-8.3-0.3-16.7-0.3-25V505.7c0-1.3-1.1-2.3-2.3-2.3H703.4c-1.3,0.1-2.2,1.1-2.2,2.4v265.8
	c0,22.2,0.7,44.3,2.6,66.4c0.3,3.5,1,10.6,1.5,14.2c1.5,12.6,4,25,7.5,37.2c9.9,32.7,32.4,60,62.5,76c13.1,6.9,27.1,11.9,41.7,14.7
	c12.9,2.7,26,4.3,39.2,4.8c18.4,1,36.8,0.1,55.1-2.7c16.6-2.5,32.7-7.5,47.8-14.8c11.8-5.9,22.7-13.5,32.4-22.5
	c13.2-11.8,23.9-26.2,31.3-42.3c4.1-9,7-18.5,8.8-28.2c1.9-9.6,4.8-29.5,5.4-41.5c0.4-6,0.8-11.6,1.1-17.4v0
	c0.3-6.6,0.6-13.2,0.8-19.9c0.2-9.2,0.3-18.5,0.3-27.7V505.7c0-1.3-1.1-2.2-2.3-2.3H916.2c-1.2,0.1-2.2,1.1-2.2,2.4v269
	c0,15.2-0.3,30.3-1.1,45.5c-0.3,6-0.8,12-1.7,18c-0.6,5-2.6,9.8-5.8,13.7c-3.7,4.4-8.6,6.8-14.6,8.3
	C884.7,861.4,878.5,861.5,872.1,860.8z"/>
<path class="st3" d="M1304.1,500.6c-1,0-1.9,0.9-2.1,1.9l-49.3,235.6l-47.6-235.5c-0.2-1.1-1.1-1.8-2.2-1.9h-144.4
	c-1.3,0.1-2.3,1.2-2.2,2.5c0,0.1,0,0.4,0.1,0.5l115,477c0.2,1,1.1,1.8,2.2,1.8l140.4,0.1c1.1,0,2.1-0.7,2.3-1.8l116-477.1
	c0.3-1.3-0.4-2.5-1.6-2.9c-0.2,0-0.4-0.1-0.6-0.1L1304.1,500.6z"/>
<path class="st4" d="M1325.3,284.8l4.6-2.3c5-2.5,9.7-4.3,13.6-5c3.1-0.6,4.9-0.3,7,1.1c1.7,1.2,5.6,5.6,3,6.8
	c-2.1,1.6-7.3,3-11.6,3C1336.2,288.4,1327.7,286.8,1325.3,284.8z M1320.8,275.4l1.2-3.8c0.7-2.1,1.4-4.5,1.6-5.3
	c0.5-1.9,2-4.3,3.5-5.5c0.6-0.5,1.9-1.2,2.8-1.4c1.4-0.4,2-0.5,4.1-0.2c2.3,0.3,2.7,0.4,4.2,1.4c1.8,1.1,3.8,3.4,3.7,4.2
	c-0.2,1.8-3.8,4.8-12.2,10.2l-5.9,3.8C1323.2,277.4,1321.7,275.8,1320.8,275.4z M1308.5,269.8c-0.5,0.1-0.8-1.5-2.5-10.7
	c-1.2-6.6-1.4-9.1-1-11.5c0.4-2.2,6.4-1.7,7.8-0.8c1.8,1.1,4.3,4.2,5,6.3c1.3,3.5,1.2,8.2-0.3,11.7c-0.4,1-1.9,5.5-2.6,7.3
	C1313.9,270,1309.7,269.6,1308.5,269.8z M1344,271.5c1.4-1.7,3.9-5.2,3.8-7.7l1.4-0.5c3-1.1,6.4,0.3,7.4,3c0.4,1,0.2,2.8-0.5,3.9
	c-0.5,0.9-2.9,3-3.4,3C1350.8,271.8,1346.4,271.4,1344,271.5z M1324.2,254.8c-0.4-2-1.6-6-2.7-7.3c-0.5-0.7-0.6-1-0.3-2.1
	c0.7-3.1,3.7-4.3,6.9-2.8c2.2,1,4.4,7.1,4.3,10.6C1330.1,252.5,1326.1,253.9,1324.2,254.8z M1338.9,254.3c-0.3-0.3,2-3.2,3.1-3.7
	c0.8-0.4,1.3-0.5,2.2-0.3c1.7,0.4,2.6,1.5,2.3,3c-0.2,1.2-1.9,4.4-2.4,4.3C1343.2,255.6,1339,254.4,1338.9,254.3z M1270.6,463.9
	c-3.7-7.5-8-14.5-13.5-21.8c-9.3-12.3-14.2-20.6-15.1-25.3c-1-5.5-0.4-9.9,1.5-10.8c2-0.9,6.6,1.4,10.9,5.4
	c4.6,4.3,10.4,15,13.3,24.5c2.6,8.4,4.4,18.4,4.4,23.2c-0.1,2.9-0.4,6.4-0.6,6.4C1271.4,465.5,1271,464.8,1270.6,463.9z
	 M1281.4,449.2c3.1-18,8.7-36.9,15.1-50.1c2-4.2,5.6-10.5,8.3-14.5c4.6-6.8,10.9-14.1,14-16.1c0.5-0.2,1.2,0,1.2,0.7
	c-0.3,5.8-6.6,23.1-14.9,40.9c-5.2,11.2-8.6,17.4-16.8,31c-2.5,4.2-5.2,8.6-5.9,9.8s-1.4,2.2-1.5,2.2
	C1280.9,453,1281.1,451.3,1281.4,449.2z M1264.7,363.1c-6.1-4.6-8.1-6.2-14.3-12.2c-11.5-11-15.6-15.7-18.6-21.6
	c-2.4-4.8-3.7-10.9-2.4-11.8c1.5-1,10.3,4.5,16.7,10.5c7.5,7,16.8,19.2,22.9,30c3.7,6.6,4.2,10.8,4.2,11.1c0,0.4-0.3,0.3-1.8-0.9
	C1270.6,367.5,1267.5,365.2,1264.7,363.1z M1279.5,366.5c0.3-1.2,1.4-5.6,2.4-9.7c1-4.1,2.2-8.5,2.7-9.8c1.9-5.1,5.9-12.6,8.4-15.9
	c2.6-3.4,6-6,6.9-5.5c0.9,0.6,0.3,5.4-1.1,9.3c-1.8,4.6-5.8,12.7-9.2,18.4c-4,6.7-10,15.4-10.5,15.4
	C1279,368.7,1279.1,367.9,1279.5,366.5z M1264.8,337.8c-3.1-5.9-4.3-9.7-8.7-26.9c-2-7.9-3.5-17.8-3.6-24.6
	c-0.1-3.2,0.7-9.5,1.2-9.4c0.6,0.1,2.7,2.7,3.9,4.9c4.1,7.4,6.4,13.8,9,26.1c2.3,10.6,3.4,17,4.3,26c0.5,5.5,1.3,15.3,1.2,15.9
	C1271.9,350.2,1266.9,342,1264.8,337.8z M1325.5,199.9c3.6-3.9,16.1-16.1,22.9-22.3c10.4-9.4,17.6-14.1,26.7-17.5
	c3.8-1.4,9.5,0.7,8.6,5.3c-1.5,5.9-3.8,11.4-16.2,18.2c-8.7,4.8-19.4,9.6-27.9,12.7c-4,1.5-14.2,4.6-14.7,4.5
	C1324.8,200.8,1325.1,200.4,1325.5,199.9z M1315.4,194.2c-0.4-1.3-2-5.4-3.5-9.2c-8.9-22.2-11.3-30.7-11.2-40.1
	c0-4.7,1.7-13.9,2.9-16.2c0.7-1.4,0.8-1.4,1.7-1.3c4.2,0.7,10,13.6,13.1,28.8c1.5,7.5,2.2,14.1,2,21.8c0,2.6-2.7,12.7-3.2,14.7
	c-0.5,2-0.9,3.7-1,3.7C1316.3,196.5,1315.9,195.5,1315.4,194.2z M1329.4,170.3c7-25.3,10.7-35.2,18.7-49.5
	c6.2-11.2,10.4-16.4,13.9-17.4c2.3-0.7,3.2,0.1,3.6,2.9c1,9.3-6.1,28.9-18.5,50.3c-5.3,8.9-14.8,29.1-21.9,34.1
	C1325.7,185.5,1327.8,175.3,1329.4,170.3z M1216.7,374.4c-3.8-0.8-7.6-2.4-9.4-3.9c-0.9-0.7-1.7-1.5-1.7-1.7c0-0.4,1.2-1,2.5-1.1
	c1.6-0.1,4.7,0.7,6.4,1.7c1.6,0.9,5.8,4.3,6.3,5.1c0.3,0.5,0.3,0.5-0.9,0.4C1219.5,375,1217.9,374.7,1216.7,374.4z M1232.9,376.4
	c1.7-2.2,8.6-7.7,9.7-7.8c0.5,0-0.4,1.9-1.7,3.7c-1.8,2.6-4.8,4.6-7.4,4.8C1232.7,377.2,1232.6,376.8,1232.9,376.4z M1229,367.1
	c0.1-4.2,1.4-12.7,2.2-14.2c0.6-1.1,0.5,4.9-0.2,8.5c-0.3,1.8-1.8,7.3-2,7.3C1229,368.7,1229,368,1229,367.1z M1204.5,343.4
	c-2.6-1.6-5.4-2-6.2-7.4c0.1-1.2,1.2-1.1,2.1-0.8c3.7,1.8,12.6,7.9,14.1,10.3c0.5,0.7,0.1,3.3-1.7,2.3
	C1211.8,347.2,1205.9,344.2,1204.5,343.4z M1219.1,340.3c-0.9-3.2-0.7-7.6,0.5-10.8c0.6-1.5,2-3.6,3-4.4c0.6-0.4,0.9,0.7,0.9,1.7
	c0.2,4-0.6,8.4-2.4,13c-0.6,1.4-1.1,2.6-1.2,2.5C1219.8,342.4,1219.4,341.4,1219.1,340.3z M1204.1,326.3c-1.1-1.9-2.1-4.5-2-5.1
	c0.1-0.4,5,3.6,6.8,6.5c1.4,2.2,4.3,5.9,3.2,7.6C1209.9,335.1,1205.1,328,1204.1,326.3z M1212.5,301.7c1.1-3.3,3.3-6.9,5-8.3
	c1.5-1.2,1.7-1,1.5,1.3c-0.2,1.9-0.5,2.9-1.7,4.5c-1.3,1.8-3.3,3.3-5.3,4.1C1212.1,303.2,1212.3,302.5,1212.5,301.7z M1196.3,303.3
	c-3.1-0.2-5.3-0.6-7.8-1.5c-3.6-1.3-7.3-4.4-6.3-5.2c0.8-0.6,5.5,0,9.7,1.3c3.7,1.1,9.8,4.1,9.9,4.9
	C1201.8,303.1,1198.8,303.4,1196.3,303.3z M1206.5,287.2c-0.1-4.5,0-7.9,0.6-11.8c0.2-1.6,0.6-0.1,1,3.3c0.4,3.9,0.3,7.5-0.3,12.3
	c-0.3,2.4-0.4,2.7-0.7,2.2C1206.8,292.8,1206.6,290.8,1206.5,287.2z M1181.8,274c-3.5-0.7-5.7-1.4-7.5-2.4c-1.7-0.9-4.5-3-4.5-3.3
	c-0.1-0.9,4.3-0.1,7.6,1.4c1.5,0.7,6.7,3.7,7.9,4.6C1185.8,274.7,1185,274.6,1181.8,274z M1189.7,265.1c-1-1.9-1.1-2.2-1.4-6
	c-0.2-2.2-0.3-4.9-0.2-6c0.3-3.2,1.5-7.4,2.2-7.4c0.1,0,0.5,0.7,0.9,1.5c0.5,1.3,0.7,2.6,1.2,7.2c0.5,5.4,0.5,5.8-0.1,9.1
	c-0.8,4.5-0.7,4.4-1.1,3.9C1190.9,267.2,1190.2,266.2,1189.7,265.1z M1165.8,246.1c-2.5-0.9-3.6-1.5-4.6-2.4
	c-0.7-0.7-1.3-1.3-1.3-1.4c0-0.4,2,0.1,3.9,0.9c1.6,0.6,5.9,3.4,6.4,4.2C1170.6,247.8,1169.5,247.4,1165.8,246.1z M1173.3,233.2
	c-0.9-5.3-1-10.6-0.2-10.6c0.9-0.1,2.1,5,2,8.7c-0.1,3.2-0.5,6.9-0.9,6.6C1174.2,237.8,1173.7,235.7,1173.3,233.2z M1155.4,218.6
	c-1.3-1.1-3.1-4-4.4-6.9c-1.4-3.2-1.2-3.4,1.3-1.3c1.9,1.6,2.9,3,4.3,6.1c0.7,1.6,0.9,2.2,0.6,2.5
	C1156.8,219.7,1156.7,219.7,1155.4,218.6z M1228.6,457.8c1.1-3.5,2.5-9.4,2.7-12.4c0.3-4,0-8.6-0.8-11.7c-0.8-3-4.2-6.9-5-5.7
	c-0.6,0.9-1,3.5-1.2,6.3c-0.1,3.1,0.3,13.4,0.9,19.4c0.3,2.7,0.5,5.1,0.5,5.4C1225.8,459.9,1227.7,460.4,1228.6,457.8z
	 M1214.7,458.5c-4.7-6.9-9.4-12.5-13.3-16.1c-2.7-2.5-6.1-5-6.1-4.6c0,0.8,4.4,10.8,9.4,16.4c3,3.3,16.2,15.8,16.2,15.3
	C1220.8,468.5,1215.8,460,1214.7,458.5z M1207.4,414.9c0.9-0.2,2-0.7,2.5-1.1c0.8-0.6,0.9-0.7,0.5-1.4c-0.2-0.4-1.3-1.9-2.6-3.5
	c-2.2-2.7-2.2-2.8-3.2-2.6c-2.2,0.4-2.2,0.3-2.4,4.6c-0.2,4.1-0.1,4.4,2,4.4C1205.1,415.4,1206.5,415.2,1207.4,414.9z M1190.4,406.1
	c0.8-0.2,1.7-0.6,2.1-0.9c1.5-1,3.8-3.2,3.8-3.7c0-0.9-7.7-6.2-9.1-6.2c-0.7,0-1.4,3.7-1.2,6.8c0.2,3.2,0.3,3.7,1.2,4
	C1188.2,406.5,1188.8,406.5,1190.4,406.1z M1217.9,400.9c0.1-0.4,0.1-2.2,0.1-3.9c-0.1-2.7-0.2-3.5-0.7-4.6c-0.7-1.5-1.3-1.7-3-0.8
	c-1.1,0.6-5.6,5.1-5.6,5.7c0,0.6,0.9,1.1,3.9,2.6C1216.7,401.8,1217.6,402,1217.9,400.9z M1199.9,394c1.3-0.7,1.4-1.3,1.5-6.1
	c0-4.2-0.2-4.8-1.8-5.3c-1.7-0.5-3.4-0.2-4.1,0.7c-0.6,0.7-0.6,1-0.5,2.7c0.1,1.1,0.4,2.5,0.7,3.3c0.6,1.3,2.9,5.1,3.1,5.1
	C1198.8,394.6,1199.3,394.3,1199.9,394z M1238.1,465.1c4-6.4,9.8-11.9,11.5-10.8c1.8,1.2-0.7,5.4-5.2,8.6c-2.3,1.7-7.6,4.8-7.7,4.7
	C1236.6,467.6,1237.3,466.4,1238.1,465.1z M1238.5,474.5c3.6-1.5,7.6-5.5,10.6-8c5.8-4.7,7.9-9.4,6.1-13.7c-1.1-2.6-3.3-4.1-6.1-4.1
	c-7.2,1-12.8,7.7-15.6,11c1.7-7.3,4.3-16.6,3.6-21.6c-0.3-7.2-3.8-11.8-5.5-13.7c-0.2-22.6,0-24.9-1.4-42.9c7.9,1.2,11-1.3,14.2-5.2
	c3.6-4.4,4.8-8.8,3-11.5c-1.7-2.6-4.9-2.5-9.7,0.5l-2.6,1.6l0.6-2.5c1-4.1,1.3-7.9,1-11.5c-1.3-6.9-5.7-7-7.1-6.2
	c-2.1,1.2-4.8,6.5-4.5,13c-0.6-1.5-2.3-9.9-2.5-10.8c3.9-4.3,5.5-8.6,6.3-13.2c2.9,4.7,8.8,11.1,19.8,21.4c4.6,4.3,5.9,5.4,13.3,11
	c8.7,6.6,11.6,9.1,11.7,10.3c0.4,4,0.8,32.8,0.6,43.3c-0.1,6.4-0.4,13.4-0.6,13.5c-0.1,0.1-0.6-1.2-1.1-2.8
	c-1.2-3.8-4.2-10.5-6.5-14.5c-4.4-8-10.2-13.7-16.5-16.6c-4.8-2.1-9.1-1.3-11.8,2.3c-0.8,1.1-1,1.5-1.6,5c-0.6,3.3-0.6,4.1-0.4,6.3
	c0.9,7.4,3.9,13,15.5,28.9c7.7,10.5,18.1,25.6,15.9,30.5L1238.5,474.5z M1262.4,278.6l-53-262h-124.6l110.4,457.9l19.6,0
	c-6.7-5.4-11.1-12-15.7-17.3c-8.2-9.5-12.1-21.2-11.4-24.6c0.4-2.2,2.4-3.5,4.5-3.1c2.3,0.4,9.8,5.6,14,9.6c2.6,2.5,3.7,3.7,6.7,7.4
	c0.4-4.7-5.6-19.1-7.6-25.5c-5.5,1-7-1.6-8-4.1c-0.5-1.2-0.6-1.9-0.6-4.5c0-1.7,0-3.1-0.1-3.1c0,0-0.5,0.3-1.1,0.7
	c-2.6,1.8-7.3,2.6-9.9,1.6c-1.9-0.6-3.8-2.5-4.4-4.2c-0.6-1.7-0.8-7.8-0.4-10.5c0.4-2.2,1.5-4.9,2.5-5.8c1.4-1.3,3.7-1.8,5.5-1.1
	c0.5,0.2,0.9,0.3,1,0.2c0.1-0.1-0.1-0.9-0.3-1.9c-1.1-4.8,1-9.4,5-10.9c1.5-0.6,4.7-0.6,6.5-0.2c2.5,0.7,4.3,2.4,5.2,5
	c0.2,0.5,0.4,2.7,0.5,4.7l0.1,3.7l1.8-1.7c2.9-2.8,5.9-4,8.6-3.4c3.6,0.9,5.8,4.7,6.2,10.8c0.2,2.9-0.2,6.2-0.9,7.6
	c-1.3,2.6-3.7,3.8-6.7,3.2c-0.9-0.2-2-0.4-2.4-0.6c-0.7-0.3-0.7-0.2,0.3,1c2.2,3.1,2.8,5.8,1.7,8.1c-0.7,1.4-2.6,3.1-4.3,3.9
	c0.8,1.1,5.5,16.8,7.3,25c-0.2-8,0.2-23,6.2-23.4c-0.1-19.1,0.9-24.8-0.4-40.1c-3.5,0.3-12.4-2.1-16.5-4.1c-3.6-1.8-6.4-4.5-7.2-7
	c-0.9-3.1,1.9-6.5,6.1-7.3c3.5-0.7,8.7,0.8,12.9,3.8c1.4,1,2.5,1.6,2.5,1.5c0-0.3-3.5-13.4-3.8-14.3c-17.9-2.1-26.4-11.8-26.9-17
	c-0.6-4,4.5-8.7,8.3-7.4l-0.5-0.8c-2-3.1-3.3-9.6-2.3-11.8c1.9-4,6.1-2.9,11.2,3c-0.6-2.6-2.8-8.4-4.2-11.5l-3.6,0.3
	c-6.3,0.5-11.9-0.5-16.4-2.8c-4.4-2.3-7.2-5.5-7.5-8.6c-0.3-3.3,1.9-5.3,6.3-5.7c3-0.3,10.7,0.8,15.3,2.6c-1.2-4.1-4.6-11-6.5-14.2
	l-2.3,0.2c-3.5,0.3-10.7-0.9-14.8-2.5c-4.6-1.8-9-5.3-10.1-8.2c-1.3-3.2,1.1-6.2,5.5-6.6c2.7-0.3,8.7,1.5,12.6,3.6
	c1,0.5,1.8,0.9,1.9,0.7c0.1-0.5-0.7-2.1-4.2-8l-3.5-5.9l-2.2,0c-2.9,0-4.4-0.2-8.1-1.3c-3.9-1.2-5.5-1.9-7.6-3.6
	c-3.4-2.7-5.1-6.6-3.7-8.7c1-1.6,3.6-5.5,12.2-0.9l-7.3-11.5c-2.3-0.2-7-2.8-9.4-6.2c-2.9-3.6-5.7-9.9-5.7-12.7
	c0-2.5,1.8-4.2,4.5-4.5c3.6-0.3,8.5,3.4,11.2,8.5c1.3,2.4,4.7,9.6,3.9,12.1l3.2,5.2l0-2.7c-0.1-5.8,1.5-9.5,4.4-10.2
	c2.2-0.6,5.2,1.3,6.6,4.2c2.5,5.1,2.6,12.3,0.5,21.4c-0.4,1.7-0.7,3.3-0.7,3.5c0,0.5,4.1,7.2,4.4,7.1c0.1,0,0.2-0.8,0.4-1.8
	c0.5-4.5,2.3-8.7,4.3-10.2c1-0.7,1.5-0.9,2.8-0.9c4.2,0,6.6,4.4,7.5,13.9c0.5,5.6,0.4,6.8-1.2,15.5l-1.1,5.9
	c1.5,2.7,3.6,5.8,5.8,11.9c0-0.1,0.1-1.5,0.1-3.2c0-5.3,0.6-9.8,1.7-12.7c0.9-2.3,2.2-3.5,4-3.6c2.1-0.2,5.3,0.6,6.4,9.1
	c0.3,3.8,1.2,9.1,0,13.3c4.4-3.7,7.1-2.9,7.8-2.7c1.8,0.7,2.8,2.2,3.2,4.9c0.6,3.8-0.6,7.6-3.7,11c-2.2,2.6-6.3,5.2-10.3,6.3
	c0,0.2,4.5,12.6,5.5,16.5c1.4-3.9,3.9-8.4,7.5-7.4c0.3-2.5,1.3-4.7,3.2-5.8c3-1.9,6.5-1.1,12.6,2.6c5,3.1,10.3,7.5,14.6,12l1.1,1.2
	l-0.2-1c-0.1-0.5-1.2-4.6-2.4-9c-3-11.4-4.1-16.5-5-24.3c-0.8-7.1-0.6-15,0.4-18.4c1.5-4.9,5.6-6.4,9.6-3.4
	C1258.7,273.6,1260.9,276.1,1262.4,278.6z M1304.3,120.6c1.6-0.2,3.4,1.3,5.8,3c4.2,3,8.8,11.8,11.9,23c1.1,4,2.6,10.9,3.2,14.5
	l0.3,2l1.7-5.8c5.5-18.5,9.5-28.1,17.2-41.4c5-8.7,8.6-13.4,11.9-15.8c6.3-4.4,13-2.7,14.6,3.6c0.8,3.2,0.7,5.5-0.6,12.2
	c-1.3,7-2.1,9.6-6,19c-4.4,10.7-10.3,21.9-18.7,35.2c-1.9,3-3.3,5.4-3.2,5.3c0.1-0.1,1.8-1.6,3.6-3.2c5.4-4.8,7.8-6.7,12.7-10
	c8.2-5.5,18.2-10,24.8-8.6c10.2,2.6,5.8,22.4-2.5,28.1c-6.4,4.8-22.2,13-34.3,17.8c-10,4-24.1,8.1-26.3,7.7
	c-0.7-0.1-2.6-0.4-5.4,3.8c-4.2,6.4-6,9.3-8.1,13.5c-3.3,6.4-10.1,19.3-13.4,27.9c-2.9,8.8-5.7,15.9-9.4,32.2
	c-2.7,11.3-4.7,26-5.2,39.3c3.1-6.3,6.4-17.2,26.1-37.3c-1.4-1.8-2-7.1-1.2-10.1c0.3-1,0.2-1.5-0.7-4.1c-1-2.9-2.5-9.9-3.7-18.2
	c-0.5-3.8-0.3-7.7,0.6-10.3c0.9-2.5,3.6-4.6,6.4-4.8c2.9-0.2,7.8,1.1,9.7,2.7c1.2-4.7,7.2-5.7,10.5-5.4c6.2,0.3,9.9,6.6,10.7,10.1
	c2.6-2.3,8.8-3,12.9,1c1,1.1,1.5,2,1.8,3.1c0.4,1.7,0.3,4.1-0.4,5.5c-0.4,0.8-0.4,0.8,0.7,1c1.4,0.2,4.2,1.2,5.4,2
	c1.5,1,3.4,3.2,4,4.8c1.6,4,0.3,8.9-3.2,11.9l-1.3,1.2l1,1.3c2.3,3.1,2.8,5.2,1.9,7.5c-1.5,3.9-7.2,6.9-14.9,7.9
	c-4.9,0.6-15.7-0.8-19.9-2.6c-1.6-0.7-1.8-0.7-2.7-0.4c-3.1,0.7-9.1,0.4-11.8-1.2c-14.8,13.4-22.8,27.9-30.8,53
	c1.5-3.6,4-8.3,5.9-11.3c7-11.2,15.6-14.6,19.2-7.8c1.1,2,1.2,4,0.4,8c-0.9,4.6-2.8,9.3-7.4,18.1c-4.9,9.3-14.1,23.1-17.7,26.5
	l-1.2,1.1l0.3,6.6c0.3,7.3,0.5,28.1,0.4,37.7c0,3.6,0.1,5.8,0.2,5.4c0.2-0.4,1.2-3.5,2.2-7.1c5-16.5,10.7-28.6,18.9-40.4
	c6.5-9.3,13.6-16.3,17.6-17.4c3.5-1,6.3,1,6.8,4.9c0.2,2-1.7,11.2-3.3,15.9c-3.2,9.2-7.9,20.5-13,31.4c-5.6,11.9-8.7,17.5-20.2,36.4
	c-4.6,7.5-7.3,12.3-9.9,17.6c-1.3,2.2-1.1,3.8-1.3,6.2l42.9-0.1l111.3-457.7H1326L1304.3,120.6z M1289.7,190
	c2.4,5.5,4.5,14.4,5.3,21.9c0.6,6.5,0.6,15.9,0,22.1c-0.1,1.2-0.1,2.2,0,2.1c0.1-0.1,1.6-3.1,3.2-6.6c3.5-8.4,11-20.2,14.8-25.5
	l-6.5-17c-4.6-11.3-8.6-20.9-10.4-27.5L1289.7,190z M1276.8,252.1l-8.2,39.4c1.2,3.6,2.9,11.4,4.1,17.4c0.5,2.4,1,4.1,1.1,3.9
	c0.1-0.2,0.4-2.2,0.6-4.3c0.2-2.1,1.1-8,2-13c1.6-9.2,2.9-14.9,5.3-23c0.3-1.2,0.9-3.6,0.3-5.5
	C1280.5,264.7,1279.3,261.6,1276.8,252.1z M1287.4,201.4c3.5,11.2,3.3,22.5,1.1,39c-0.7,5.1-3.3,19.6-3.5,19.3
	c-0.1-0.1-4.5-17.3-5.5-21L1287.4,201.4z M1221.1,155.5c-1.4-1.1-2.8-2.1-4.3-3.1c-1.4-1.1-2.8-2.2-4.2-3.2
	c-1.3-0.8-2.7-1.5-4.2-1.9c-1.7-0.6-3.2-1.4-4.7-2.4c-3.1-1.7-6.4-3.1-9.7-4.1c-2.6-0.6-5.2-0.7-7.9-0.4c-2,0.2-3.7,1.5-4.6,3.3
	c-0.6,1.2-1.2,2.3-1.9,3.4c-0.3,0.5-0.8,0.8-1.3,0.9c-0.2,0-0.2-0.3,0-0.5c0.7-0.8,1.2-1.8,1.4-2.9c0.1-0.9,0.2-1.7,0.2-2.6
	c0.2-0.9,0.6-1.6,1.2-2.2c0.8-0.8,1.3-1.8,1.6-2.8c0.1-0.6,0.1-1.3,0.3-1.9c0.3-0.8,0.7-1.6,1.3-2.2c0.9-1.2,1.6-2.7,1.8-4.2
	c0.5-1.7,1.3-3.3,2.4-4.7c0.7-0.9,1.2-1.8,1.7-2.8c0.2-0.6,0.3-1.3,0.4-1.9c0.2-0.8,0.6-1.6,1.2-2.3c0.9-1.3,1.5-2.7,1.9-4.2
	c0.6-1.4,1.2-2.8,1.9-4.2c0.5-1.2,1.1-2.4,1.6-3.6c0.4-1,0.5-2.1,0.5-3.2c0.1-0.8-0.4-1.4-1.8-0.1c-1.1,1.1-2,2.3-2.6,3.8
	c-0.9,1.8-1.8,3.6-2.6,5.3c-0.6,0.9-1.2,1.9-1.7,2.8c-0.4,0.8-0.6,1.6-0.8,2.5c-0.2,0.8-0.7,1.6-1.3,2.2c-0.9,1-1.5,2.2-1.7,3.5
	c-0.4,1.7-1.1,3.4-1.9,4.9c-0.7,0.9-1.3,1.8-1.8,2.8c-0.4,1-0.7,2.1-0.9,3.2c-0.3,0.8-0.8,1.6-1.4,2.1c-0.8,0.8-1.3,1.8-1.5,2.9
	c-0.1,0.7-0.2,1.3-0.4,1.9c-0.3,0.8-0.9,1.5-1.6,2c-1,0.8-1.8,2-2.1,3.3c-0.1,0.4-0.2,0.7-0.4,1c-0.1,0.1-0.3,0.1-0.3-0.2
	c0-0.9,0.2-1.7,0.6-2.5c0.6-1.2,1.1-2.4,1.6-3.6c0.4-1.5,0.1-3.1-0.7-4.4c-1.7-2.8-4-5.3-6.7-7.2c-3.1-2.1-6.5-3.8-10-5.1
	c-1.4-0.7-2.7-1.5-3.9-2.4c-1.5-0.9-3.2-1.5-4.9-1.8c-1.9-0.5-3.8-1.1-5.7-1.8c-1-0.4-2.1-0.6-3.2-0.6c-2.6-0.1-1.9,3.1-1.5,3.9
	c0.6,1.4,1.5,2.7,2.6,3.8c1.6,1.8,3.5,3.4,5.5,4.8c1.4,1.1,2.8,2.2,4.2,3.3c2.6,1.7,5,3.6,7.3,5.7c2.6,2.3,5.3,4.7,7.8,7.1
	c0.7,0.6,1.3,1.2,2,1.7c0.7,0.6,0.4,0.8,0.3,0.7c-0.6-0.2-1.1-0.5-1.6-0.8c-2.4-1.5-4.8-3.2-7.1-4.9c-1.9-1.5-3.9-2.8-6-4.1
	c-2.3-1.3-4.8-2.2-7.4-2.9c-2.6-0.7-5.2-1.1-7.8-1.2c-1.5,0.1-3.1,0.3-4.6,0.5c-2,0.2-4,0.3-5.9,0.3c-0.8,0-2.1,0.3-2.1,1.8
	c0.1,1.1,0.6,2.1,1.3,2.9c1.3,1.2,2.8,2.2,4.4,2.8c3.7,1.4,7.5,2.6,11.4,3.4c2.8,0.7,5.5,1.8,8,3.1c1.8,0.9,3.6,1.8,5.3,2.7
	c3.4,1.5,7.1,2.4,10.8,2.8c0.9,0.1,0.3,1.1,0.2,1.7c-0.2,0.8-0.2,1.7,0.2,2.5c0.3,0.5,0.2,1.2-0.3,1.3c-0.4,0.1-0.8,0.1-1.2,0.1
	c-0.9,0-1.7,0.4-2.2,1.1c-0.2,0.4-0.3,0.8-0.3,1.2c0.1,0.9,0.5,1.7,1.1,2.3c0.5,0.7,1.1,1.4,1.7,2c0.7,0.6,1.5,0.8,2.4,0.7
	c1.1,0,2.2-0.1,3.3-0.3c0.4-0.1,0.8-0.3,1.1-0.6c0.6-0.6,0.8-1.5,0.4-2.3c-0.3-0.6-0.7-1.1-1.1-1.6c-0.1-0.2-0.3-0.4-0.1-0.8
	c0.3-0.3,0.6-0.5,1-0.6c0.4-0.1,0.8-0.3,1.1-0.6c0.5-0.4,0.8-1,1.1-1.6c0.1-0.5,0.8-0.6,1.6,0.4c2.8,2.8,6,5.2,9.6,7
	c3,1.4,5.9,2.9,8.8,4.7c1.8,1.3,3.5,2.6,5.2,4.1c2.4,1.9,5,3.7,7.6,5.2c1.3,0.8,2.8,1.3,4.4,1.4c0.9,0.1,1.8-0.1,2.5-0.5
	c1.6-0.8,0.7-3-0.6-4.3c-1.3-1.8-2.5-3.6-3.5-5.6c-1.1-1.9-2.5-3.6-4.2-5.1c-2.7-2.6-5.8-4.8-9.2-6.4c-2.2-0.9-4.5-1.7-6.9-2.4
	l-0.6-0.2c-3-0.8-5.9-1.8-8.8-3c-0.6-0.2-0.7-0.6-0.3-0.6c3.9,0.8,7.8,1.5,11.7,2.2c2.4,0.5,4.7,1,7.1,1.6c2.7,0.9,5.5,1.7,8.3,2.4
	c2.3,0.8,4.7,1.3,7.1,1.6c1.5,0.2,3.1,0.2,4.6-0.1c0.9-0.2,1.7-0.6,2.3-1.1C1223,158.4,1222.3,156.5,1221.1,155.5z M1318.9,6.4
	c-1,0-1.9,0.9-2.1,1.9l-49.3,235.6L1219.9,8.3c-0.2-1.1-1.1-1.8-2.2-1.9h-144.4c-1.3,0.1-2.3,1.2-2.2,2.5c0,0.1,0,0.4,0.1,0.5
	l115,477c0.2,1,1.1,1.8,2.2,1.8l140.4,0.1c1.1,0,2.1-0.7,2.3-1.8l116-477.1c0.3-1.3-0.4-2.5-1.6-2.9c-0.2,0-0.4-0.1-0.6-0.1
	L1318.9,6.4z"/>
</svg>
