<?xml version="1.0" encoding="utf-8"?>
<!-- Generator: Adobe Illustrator 26.5.2, SVG Export Plug-In . SVG Version: 6.00 Build 0)  -->
<svg version="1.1" id="Layer_1" xmlns="http://www.w3.org/2000/svg" xmlns:xlink="http://www.w3.org/1999/xlink" x="0px" y="0px"
	 width="1359.1px" height="980.8px" viewBox="0 0 1359.1 980.8" style="enable-background:new 0 0 1359.1 980.8;"
	 xml:space="preserve">
<style type="text/css">
	.st0{fill:none;stroke:#FF0000;stroke-width:0.75;}
	.st1{fill:none;stroke:#FF0000;stroke-width:0.75;stroke-miterlimit:9.6378;}
	.st2{fill:none;stroke:#FF0000;stroke-width:0.75;stroke-miterlimit:10.5812;}
</style>
<path class="st0" d="M829.1,857.9c-9.8-1.3-18.5-6.9-23.9-15.4c-4-6-6.9-12.7-8.7-19.7c-3.4-12.5-5.6-25.4-6.5-38.4
	c-2.7-33.8-2.1-67.7,1.7-101.3c1.2-10.6,3.4-21,6.6-31.1c2.9-9.4,8.3-17.7,15.5-24.1c6.6-5.4,15.2-7.7,23.5-6.4
	c7.1,0.8,13.5,4.9,17.5,11c4.7,7.2,8,15.3,9.9,23.7c1.8,7.1,3.1,14.3,4,21.6c0.4,3.7,0.6,7.2,0.6,10.8c0,0.1,0,0.2,0,0.2
	c0.1,1.2,1.1,2.2,2.3,2.1l121.8-20.3c1.2-0.2,2-1.4,1.8-2.6c-0.7-6.1-2.2-18.2-3.5-24.7c-3.3-20.7-9.4-40.9-18.1-59.9
	c-0.6-1.4-2-4-2.7-5.4c-10.8-21.6-26.7-39.9-46.2-53.4c-17.1-11.4-36.4-19.1-56.5-22.5c-27.7-5-56.1-4.2-83.5,2.2l-4.8,1.3
	c-33.7,9.3-63.1,30.4-83.4,59.7c-14.9,21.6-26.2,45.6-33.3,71.1c-7.2,25.6-11.6,51.9-13.1,78.5c-2.1,29-1.3,58.2,2.4,87
	c3,23.6,9,46.6,17.8,68.6c9.4,23.4,22.9,44.7,39.9,63c25,26.4,58.3,42.8,94,46.2c18.4,2.1,37.1,1.1,55.2-3
	c19.1-4.4,36.9-13.3,52.1-26c0.7,7.8,1.9,14.4,3,21.9c0.3,0.9,1.1,1.6,2,1.6l76.2,0.1c1.2-0.1,2.1-1.1,2.1-2.3V704.6
	c0-1.2-1-2.2-2.2-2.2H809.9c-1.2,0.1-2.1,1.1-2.1,2.3v114.6c0,1.2,1,2.2,2.2,2.2h57.6c-0.9,7.7-3,15.3-6.3,22.3
	c-2.7,6.1-7.7,10.8-13.9,12.9C841.4,858.5,835.2,858.9,829.1,857.9z"/>
<path class="st1" d="M1218.6,496.1c-1.1,0-2.1,1-2.1,2.1l0,172.9H1159V498.4c0-0.5-0.2-1.2-0.8-1.7c-0.4-0.4-1-0.6-1.5-0.6h-138
	c-0.4,0-0.9,0.2-1.3,0.5c-0.6,0.4-1,1.2-1,1.9v477.2c0,0.3,0.1,0.6,0.2,0.8c0.2,0.4,0.4,0.7,0.7,1c0.2,0.2,0.8,0.5,1.4,0.5h138
	c1.2-0.1,2.2-1.1,2.2-2.2l0-175h57.6v175c0,1.2,0.8,2.3,2.1,2.3l138.3,0c0.7,0,1-0.1,1.8-1c0.4-0.5,0.5-1.3,0.5-1.5V498.4
	c0-0.5-0.1-0.8-0.3-1.1c-0.4-0.7-1.2-1.2-2-1.2L1218.6,496.1z"/>
<path class="st1" d="M2.1,494.6c-1.2,0-2.1,1.2-2.1,2.4v477.2c0,1.3,1.1,2.3,2.3,2.3h306.9c1.3-0.1,2.3-1.1,2.2-2.4v-121
	c0-1.3-1.1-2.3-2.3-2.3H142.6v-58.6h129.1c1.3-0.1,2.2-1.1,2.2-2.4V672c-0.1-1.2-1-2.2-2.2-2.3l-0.2,0h-129v-52.5h166.7
	c1.3-0.1,2.2-1.1,2.2-2.4V496.9c0-1.3-1.1-2.3-2.3-2.3L2.1,494.6z"/>
<path class="st1" d="M340,493.2c-1.2,0.1-2.1,1.2-2.1,2.4v477.2c0,1.3,1.1,2.3,2.3,2.3h138c1.3-0.1,2.3-1.1,2.2-2.4V803.5h123
	c1.3-0.1,2.3-1.1,2.2-2.4V683.3c0-1.3-1.1-2.3-2.3-2.3H480.4v-65.2h160.3c1.3-0.1,2.2-1.1,2.2-2.4V495.5c0-1.3-1.1-2.3-2.3-2.3
	H340.1L340,493.2z"/>
<path class="st0" d="M829.1,364.7c-9.8-1.3-18.5-6.9-23.9-15.4c-4-6-6.9-12.7-8.7-19.7c-3.4-12.5-5.6-25.4-6.5-38.4
	c-2.7-33.8-2.1-67.7,1.7-101.3c1.2-10.6,3.4-21,6.6-31.1c2.9-9.4,8.3-17.7,15.5-24.1c6.6-5.4,15.2-7.7,23.5-6.4
	c7.1,0.8,13.5,4.9,17.5,11c4.7,7.2,8,15.3,9.9,23.7c1.8,7.1,3.1,14.3,4,21.6c0.4,3.7,0.6,7.2,0.6,10.8c0,0.1,0,0.2,0,0.2
	c0.1,1.2,1.1,2.2,2.3,2.1l121.8-20.3c1.2-0.2,2-1.4,1.8-2.6c-0.7-6.1-2.2-18.2-3.5-24.7c-3.3-20.7-9.4-40.9-18.1-59.9
	c-0.6-1.4-2-4-2.7-5.4c-10.8-21.6-26.7-39.9-46.2-53.4C907.5,20,888.3,12.4,868.2,8.9c-27.7-5-56.1-4.2-83.5,2.2l-4.8,1.3
	c-33.7,9.3-63.1,30.4-83.4,59.7c-14.9,21.6-26.2,45.6-33.3,71.1c-7.2,25.6-11.6,51.9-13.1,78.5c-2.1,29-1.3,58.2,2.4,87
	c3,23.6,9,46.6,17.8,68.6c9.4,23.4,22.9,44.7,39.9,63c25,26.4,58.3,42.8,94,46.2c18.4,2.1,37.1,1.1,55.2-3
	c19.1-4.4,36.9-13.3,52.1-26c0.7,7.8,1.9,14.4,3,21.9c0.3,0.9,1.1,1.6,2,1.6l76.2,0.1c1.2-0.1,2.1-1.1,2.1-2.3V211.3
	c0-1.2-1-2.2-2.2-2.2H809.9c-1.2,0.1-2.1,1.1-2.1,2.3v114.6c0,1.2,1,2.2,2.2,2.2h57.6c-0.9,7.7-3,15.3-6.3,22.3
	c-2.7,6.1-7.7,10.8-13.9,12.9C841.4,365.3,835.2,365.7,829.1,364.7z M938.2,399.2c-8.7-13.2-18.6-24.4-29.5-33.4
	c-7.1-5.8-19.3-14.5-19.8-14c-0.5,0.5,10.1,16.5,18.9,25.2c4,4,32.5,26,32.9,26.1C940,401.6,939.6,401.3,938.2,399.2z M954,372.9
	c0.1-4.4-12.8-27.3-20.1-35.6c-2-2.3-2-2,0.2,3c1.8,4.3,3.6,11.8,10.5,23.7c3.2,5.5,6.8,10.6,7.4,11.8
	C953.2,378,954,375.6,954,372.9z M961,357.5c3.4-11.4,6.4-29.4,6.9-35.5c0.1-3.2-0.6-4.8-1.4-3.6c-3.6,6.3-6.2,16.7-7,27.5
	c-0.2,2.8-0.5,6-0.5,7.2C958.7,355.8,958.9,364.6,961,357.5z M948.6,334.9c-2-6.9-5.5-13.9-6.2-15.6c-1.5-3.7-5.9-12.8-6.1-12.6
	c-0.3,0.3,1.6,6.6,5.1,16.3c4.2,11.8,8.6,23.3,8.8,23.1C950.3,346,950.6,341.8,948.6,334.9z M888.9,314.1
	c-5.2-5.5-16.3-13.2-21-14.5c-0.7-0.2-0.9-0.1-0.9,0.7c0,2.6,7,12.8,12.1,17.2c8.7,9.9,21.2,14.7,22.6,13.4
	C901.5,325.1,891.7,317,888.9,314.1z M907.3,295c-0.6-3.2-0.6-3.2-1-1.8c-0.7,2.8-0.8,18.6,0.6,27c0.5,3.9,3.7,9.2,3.4-2.4
	C910.4,314.9,907.6,296.8,907.3,295z M894.3,304.2c-2.9-7.3-5.7-12.8-9.8-18.5c-4.6-6.4-6.2-5.2-2.2,2.2c2.2,4.2,9.7,19.1,12,19.7
	C894.5,307.6,894.9,305.7,894.3,304.2z M960.6,297.3c7.4-7.1,9.4-11.1,11.2-22.3c0.8-5.4,1.7-10,2.3-13.1c0.2-0.9,0.2-0.9-0.8,0.2
	c-2.7,3-8,12.5-11.2,20.1c-2.1,5.1-3.2,8.5-4.1,13.3c-0.6,3.4-0.7,4.3-0.3,4.3C958,299.7,959.2,298.7,960.6,297.3z M955.1,285.6
	c0.9-2.6,1-3.4,1-9.7c0-7.3-1.6-18.4-4.2-20.7c-3.5,8.7-3.3,24.2-3.4,25.7c-0.2,5.5,1.1,15.1,3.4,18.2
	C953.8,296,954.4,289,955.1,285.6z M965.6,262.2c-0.2-0.3-0.5-8.6-2.8-10.7c-1.5,1-3.6,3.5-4.3,5l1.2,4.6c0.7,2.5,1.6,5.9,1.9,9
	C961.8,270.1,965,266.1,965.6,262.2z M754.4,280.6c-1.8,0-3.9-0.7-4.9-1l3.9-3.2c4.2-3.5,8.3-6.1,11.9-7.6c2.8-1.2,4.6-1.2,6.9-0.3
	c1.9,0.8,4.8,5.4,4.3,6.1c-1.7,2-6.4,4.4-10.5,5.2C763.7,280.4,756.9,280.8,754.4,280.6z M743.2,271.3l0.4-4
	c0.2-2.2,0.4-4.7,0.4-5.5c0.1-1.9,1.1-4.6,2.2-6.1c0.5-0.6,1.6-1.5,2.4-2c1.2-0.7,4.3-2,8.2-0.5c1.9,0.7,4.3,2.6,4.4,3.4
	c0.2,1.8-2.7,5.4-9.6,12.4l-4.9,4.9C744.7,274.2,742.8,273,743.2,271.3z M732.2,271.7c-0.4,0.1-2.8-4.8-6.3-13.5
	c-2.5-6.2-3.2-8.6-3.2-11c0-2.3,0.4-3,1.9-3.1c1.6-0.1,7.5,1,11.5,5.9c1.9,3.2,2.8,7.8,2.1,11.6C737,272.5,733.2,271.3,732.2,271.7z
	 M764.5,262.9c1.1-1.9,2.8-5.9,2-8.3l1.3-0.8c2.6-1.6,6.1-1,7.7,1.5c0.6,0.9,0.7,2.7,0.3,4c-0.3,1-2.2,3.5-2.6,3.6
	C770.9,262.1,766.6,262.8,764.5,262.9z M742,250.4c-0.8-1.9-2.5-5.4-3.8-6.5c-0.7-0.6-0.8-0.8-0.7-2c0-3.1,2.6-4.9,6-4.1
	c4.3,1.1,6.2,6.4,6,9.6C747.4,247.4,743.6,249,742,250.4z M756.2,247.1c-0.4-0.3,1.3-3.5,2.2-4.3c0.7-0.6,1.1-0.7,2.1-0.7
	c1.7,0,2.7,0.9,2.8,2.5c0.1,1.2-0.9,4.7-1.4,4.7C760.8,248,756.3,247.2,756.2,247.1z M741.8,446.7c-0.7-17.2,0.7-35.6,3.9-48.9
	c1-4.2,3-10.6,4.7-14.8c2.8-7.1,7.1-15,9.5-17.4c0.4-0.3,1-0.2,1.2,0.4c0.8,5.4-1.5,22.5-5.5,40.3c-2.5,11.2-4.3,17.6-9,31.6
	c-1.5,4.3-3,8.9-3.4,10.1c-0.4,1.2-0.5,1.8-0.9,2.3C742,450,741.9,448.7,741.8,446.7z M707,367.5c-6.4-3.1-8.5-4.3-15.3-8.6
	c-12.5-8-14.7-9.4-18.6-14.3c-3.1-4-4-10.2-3-11.3c1.2-1.2,6.4,0.7,13.3,5.1c8.1,5.1,18.9,14.7,26.5,23.6c4.7,5.4,5.9,9.2,5.9,9.5
	c0.1,0.4-0.2,0.3-1.8-0.5C713.1,370.5,709.8,368.9,707,367.5z M723.1,366.5c0.1-1.1,0.2-5.1,0.3-8.9c0.1-3.8,0.3-7.9,0.5-9.1
	c0.7-4.9,2.7-12.1,4.3-15.4c1.6-3.4,4-6.4,4.9-6c0.9,0.3,1.3,4.7,0.7,8.4c-0.7,4.4-2.6,12.2-4.5,17.8c-2.2,6.6-5.7,15.3-6.1,15.3
	C723.1,368.5,723.1,367.8,723.1,366.5z M702.3,342.2c-3.9-4.9-5.7-8.1-12.9-23.3c-3.3-7-6.5-15.8-8-22.1c-0.7-3-1.2-8.9-0.8-8.9
	c0.6,0,2.9,2,4.4,3.8c5.1,6.1,8.4,11.6,13.1,22.4c4.1,9.4,6.3,15.1,8.8,23.2c1.5,5,4.1,13.9,4.1,14.5
	C711,352.3,705,345.6,702.3,342.2z M702.4,254.7c-5.6-11.4-8-16.6-11.1-25.1c-3.8-10.3-5.8-19.7-5.7-27.5c0-3.8,0.7-7,2.7-6.3
	c1.7,1,4.6,4.7,6.8,8.7c5.2,9.6,8.5,22.4,9.7,37.9c0.4,4.8,0.8,18.5,0.6,18.2C705.3,260.5,703.9,257.9,702.4,254.7z M733.4,195.4
	c2.5-4.4,11.6-18.2,16.6-25.3c7.7-10.9,13.3-16.6,21-21.6c3.2-2.1,5.8-3,8.2-3.1c3.6-0.1,5,1.2,4.9,4.6c-0.3,5.9-5.5,13.4-15.5,22.1
	c-7,6.2-15.8,12.8-23,17.3c-3.4,2.1-12.1,7-12.5,7.1C733,196.4,733.1,196,733.4,195.4z M721.1,191.5c-0.6-1.1-2.9-4.7-5-7.9
	c-12.4-19.1-16.2-26.6-18-35.4c-0.9-4.4-1.2-13.3-0.5-15.7c0.4-1.4,0.5-1.5,1.3-1.5c3.9-0.1,11.7,10.8,17.5,24.5
	c2.8,6.7,4.7,12.8,6.1,20c0.5,2.4,0,12.4,0,14.4c-0.1,2-0.1,3.6-0.2,3.6C722.3,193.5,721.8,192.6,721.1,191.5z M731,164.4
	c1.4-23.8,2.8-33.2,7-47.4c3.3-11.1,5.9-16.4,8.8-18c1.8-1,2.8-0.5,3.6,2c2.6,8.1,0,26.8-6.7,48.1c-2.9,8.9-7.4,28.6-12.7,34.3
	C730.7,178.6,730.6,169.1,731,164.4z M696.8,404.8c7-1.5,24.3,6.7,33.4,28.6c0.2-0.2,0-3.3-1.2-9.6c-2-10.4-8.2-38.4-9.4-42.3
	c-13.4-7.1-38.1-17.7-45.8-27.3c3,9.3,6.5,18.5,10.5,27.5C687.9,389.7,692.1,397.4,696.8,404.8z M724.2,438.2
	c-5.2-16.2-16.1-22.6-20.2-22.8C710.1,423.5,716.8,431.2,724.2,438.2z M767.3,460.1c-3-5.3-4.1-10.6-3.4-16.6
	c0.7-6.1,0.4-6.3,4.4,3.1c3.9,9.2,5,13.1,4.5,20.1C771.7,466.3,768.3,461.7,767.3,460.1z M790,447.1c1.5-2.5,5.4-7.7,5.6-7.7
	c0.4,0-5.1,25.9-9.8,32c-1.5-0.3-4.6-1.1-6.1-1.6C778.6,463.8,786.7,452.3,790,447.1z M794.7,421.7c-1.4-2.4-1.6-9.3-0.5-14.2
	c0.7-3.1,2.8-8.6,2.8-7.2c0,0.5,0.2,2.1,0.5,3.7c1.2,6.9,0.7,13.6-1.2,17.3C795.6,422.6,795.3,422.7,794.7,421.7z M772.2,417
	c0.1-1.1,1.9-4.2,3.9-6.5c2.4-2.8,5.9-5.9,10.2-9.1c2-1.4,3.9-2.9,4.3-3.1c0.7-0.6-2.7,4.2-5.7,7.9c-3.5,4.3-8.4,9.2-11,10.8
	C772.3,417.9,772.2,417.9,772.2,417z M811.8,417c-2.2-1.3-6.8-9.7-8.7-15.7c-0.2-0.9-0.5-1.5,0.8,0c3.6,3.8,4.6,5,5.9,7.1
	c2,3.2,2.7,4.6,3,6.5c0.3,1.5,0.2,2.6-0.2,2.6C812.6,417.5,812.3,417.3,811.8,417z M821.2,406.2c-2.6-0.7-9.6-5.1-12.4-7.9l-1.5-1.5
	c2.4-0.4,7.1-0.1,9.5,0.6c2.5,0.6,3.9,1.4,6.3,3.1C828,404.4,827,407.8,821.2,406.2z M768.7,400c2.6-1.8,6.4-3.8,8.8-4.7
	c2.2-0.8,8.3-2.1,8.8-1.9c0.7,0.3-9.3,5.2-13.3,6.5c-1.4,0.5-5.4,1.5-5.9,1.5C766.6,401.5,767.7,400.8,768.7,400z M761.5,406.3
	c-0.2,1.1-0.5,2.1-0.7,3.2c-2.9,12.8-6.2,25.7-13.3,46.5c4.8,2.9,9.9,5.5,15,7.8c-7.7-9.3-4.4-22-2.4-30.2
	c5.1-10.6,13.7,9.3,15.9,15.6c1.3-12.2,3.3-21.8,7.5-32.6c-1,0.7-6.4,7.6-11.9,6.9c-2.2,0-3.6-0.8-4.5-2.5
	c-1.6-3.1-0.3-9.9,4.8-14.5C764.2,407.4,762.9,407.1,761.5,406.3z M851,451.7c-0.9-0.2-1.7-1.3-1.8-2.7c-0.3-2,1-6.9,1.8-7.2
	c1-0.3,3.2,3.2,3.4,5.4c0.1,1.3-0.2,2.5-0.8,3.3C852.9,451.3,851.7,451.9,851,451.7z M858.6,436.7c-1.4,0.5-2.5,0.5-2.9,0.4
	c-0.4-3,5.7-10.1,8.9-9.1c1.1,0.5,0.2,4.3-1.5,6.3C862.2,435.2,860.2,436.3,858.6,436.7z M834,441.1c-0.6-0.3-0.7-0.4-0.7-1.2
	c0-1,1.1-3,2.1-3.8c1.6-1.2,4-1.4,7-0.6c2.2,0.6,2.5,1.6,2.4,2.6c0,0.2-2.8,2-3.9,2.5C837.8,442.1,834.8,441.5,834,441.1z
	 M847.4,431.1c-2.5-3.9-2.8-5.8-1.6-7.6c1.7-2.4,3-2.6,4.4-0.6c0.9,1.3,1.4,3.2,1.6,5.7c0.1,1.6-0.1,5.4-0.3,5.5
	C850.7,434.3,848.7,432.9,847.4,431.1z M882.6,450.4c2.9-7.7,4.7-9.2,7.7-13.6c2.1-3.1,4.8-6.3,5-5.9c0.3,0.8,0,4.7-3.6,11.2
	c-2.1,3.9-7.7,14.2-10.4,15C880.4,457.4,881.9,452.2,882.6,450.4z M876.2,418c-0.9-0.6-0.9-0.7-0.6-1.4c0.2-0.4,1.5-1.9,2.9-3.4
	c2.4-2.7,2.5-2.7,3.5-2.5c2.4,0.4,2.4,0.3,2.6,4.5c0.2,4.1,0,4.3-2.2,4.3C879.3,420.2,876.7,418.4,876.2,418z M891.1,406.1
	c0-0.9,5.7-6.3,10-6c1.5,0.9,1.5,3.6,1.3,6.6c-0.2,3.1-0.4,3.6-1.3,3.9C894.5,412.9,891.1,406.5,891.1,406.1z M867.5,405.3
	c-0.1-0.4,0.2-7.3,0.8-8.3c0.8-1.5,1.4-1.6,3.3-0.7c1.2,0.6,6.1,5.1,6.1,5.6c0,0.6-1,1.1-4.3,2.5
	C868.8,406.2,867.8,406.4,867.5,405.3z M887.3,398.7c-1.4-0.7-1.6-1.3-1.6-6c0-4.1,0.3-4.7,2-5.2c1.9-0.5,3.7-0.2,4.5,0.7
	c0.6,0.7,1,3.9-0.2,5.9c-0.6,1.3-3.2,5-3.4,5C888.5,399.2,888,399,887.3,398.7z M869.1,316.6c-4.5-7.2-7.1-14.8-7.2-16.2
	c-1-4.5,1.9-7,3.9-7c2.8,0,9.4,3,15.7,7.4c1.4,0.8,3,2.2,4.3,2.8c-10.9-11.6-12.5-22.6-12.5-26.1c0-2.7,2.1-4.4,4.8-4
	c12.7,3.3,19.7,22.7,21.9,33.3l-0.2-5.9c-0.5-12,1.1-17.5,5.1-17.5c3.2,0,8,6,9.4,14.2c5.6,24.2,0.3,37.8-2.6,42.8l3.8,6.4
	c5.8,9.9,8.1,13.5,14.9,23.8c11.4,17.2,15.6,24.7,19.4,35c0.9,2.4,1.7,4.5,1.8,4.6c0.4,0.4,2.1-13.2,2.3-18.3l0.1-3.9
	c-8.1-10-23.5-31.3-26.2-49.5c-1.8-8.5-0.5-12.5,4.3-9.6c1.7,0.8,5.4,4.2,7.3,6.6c0.7,0.9,1.3,1.5,1.3,1.5c0.1-0.1-2.3-5.2-4.6-11.5
	c-4.5-12.5-5.1-16.5-5.7-21.5c-0.5-3.6-0.3-4.6,0.9-6c0.6-0.7,1.1-1,2.2-1c3,0,4.7,1.9,9.1,10.2c2.9,4.5,6.8,14.7,7.9,20.4
	c-0.2-4.6,0.4-13.2,1.1-17.3c0.2-0.8,0.3-2.4-1.2-3.8c-3.5-3.6-6.2-10.7-7-18.5c-2.9-14.8,3.8-39.9,4.6-42.8c1.1-2.7,4.3-3.5,6-1.8
	c1.3,1.4,2.4,4.8,2.4,6.8l2.6-2.3c1.5-1.3,4.5-4.1,6.8-1.9c2.2,2.4,5.1,7.8,4.4,11.3c1.3-2.2,3.9-6.7,7.9-7.4
	c2.7-0.2,3.5,1.5,2.5,5.6c-0.4,1.4-2.2,11.9-4.2,23.2c-1.3,7.5-3.1,11.9-6.7,16.4c-2.2,2.9-7.5,9.6-9.5,10.9c-1.1,0.7-3,2.6-4.1,7.9
	c-0.4,3-0.5,12.9-0.1,14.7c0.2,1,0.3,0.9,0.8-1.1c0.8-3.4,2.2-6.8,4.8-11.6c2.7-4.9,7.5-6.7,8.5-5.9c4.3,3,4.8,18.7-1.4,41.6
	c-7.2,24.8-9.4,20.1-9.5,29.1c-0.1,12.9-0.7,19.3-2.5,29.3c-0.6,3.5-5.4,15.3-3.8,30.6c1.5,11.4,0.7,17.4,5,28.6l25.4,0V220.8H818.9
	v95.8H869.1z M791.3,146.2c3.5-7.3,8.3-13.9,14.2-19.4c9.1-8.2,21.2-11.9,33.1-10.1c10.2,1.2,19.3,6.9,25,15.7
	c5.1,7.8,8.9,16.4,11.2,25.5c2.4,8.8,4,17.7,4.9,26.8L983,167.4c-2-17.7-5.8-35.1-11.4-51.9c-6.1-18.8-15.5-36.2-27.9-51.3
	c-16.2-19.3-37.6-33.1-61.5-39.8c-16.6-4.7-33.8-7-51-6.8c-21.1-0.3-42.1,3.4-61.9,10.8c-25.8,10.1-48.1,27.8-64.1,50.9
	c-14.9,21.7-26,45.9-32.7,71.5c-6.7,25.3-10.7,51.2-11.8,77.4c-1.7,28.3-0.5,56.6,3.4,84.6c0.6,4,1.2,8,2,12
	c6.3-3.1,18.9,6.5,25.2,12l-0.4-0.9c-0.2-0.5-2.1-4.3-4.1-8.3c-5.2-10.6-7.2-15.3-9.7-22.9c-2.2-6.8-3.6-14.5-3.4-18.1
	c0.4-5.1,4-7.3,8.5-5.2c3.8,1.8,9.5,8.5,14.5,17c1.9,3.3,5.1,9.9,7.5,15.5c0.9,2.2,1.7,3.8,1.8,3.6c0-0.3-0.1-2.2-0.3-4.3
	c-0.2-2.1-0.6-8-0.8-13.1c-0.4-9.4-0.3-15.2,0.3-23.5c0.1-1.2,0.1-3.7-0.8-5.4c-1.7-2-3.1-4.5-7.5-13.3c-4.9-10-6.5-13.5-9.3-20.5
	c-2.7-6.9-3.7-9.8-5.2-14.9c-3.1-10.9-4.2-21.7-2.8-27.5c0.6-2.5,1-3.4,2.3-4.9c1.9-2.3,4.9-2.9,7.6-1.6
	c5.5,2.6,12.3,13.7,16.2,26.2c1.9,6.2,3.9,15.5,4.5,21.6c0.1,1.2,0.3,2.2,0.4,2c0.1-0.1,0.9-3.3,1.7-7.1c1.6-8.9,6.3-21.9,8.9-27.9
	l-9.7-15.3c-12.5-19.1-17-28-19.3-37.8c-1.5-6.5-1.8-16.2-0.7-20.4c1-3.7,3.6-7.8,10.4-4.6c4.6,2.1,10.8,9.9,16,20.1
	c1.9,3.7,4.7,10.1,6,13.6l0.7,1.9l0.5-6c1.5-19.3,3.3-29.4,7.9-43.9c3-9.6,5.4-14.8,8.1-17.8c5-5.6,11.8-5.3,14.6,0.7
	c1.4,3,1.8,5.2,1.9,12.1c0.2,7.1-0.1,9.8-1.8,19.8c-2,11.4-5.4,23.5-10.6,38.1c-1.2,3.3-2.1,5.9-2,5.8c0.1-0.1,1.4-1.9,2.8-3.9
	c4.1-5.8,6-8.1,10-12.3c6.7-7,13.8-12,19.6-13.7C782.4,137.5,788.2,137.6,791.3,146.2z M785.3,163.8c-7.9,13.1-21.8,23.1-32.4,30.3
	c-8.7,5.8-21.7,10.6-23.8,10.7c-0.7,0-2.5,0.1-4.3,4.8c-2.7,7.1-3.8,10.3-5,14.8c-1.8,6.9-5.7,20.9-7,30c-1,9.2-2.2,16.7-2.4,33.4
	c-0.3,11.6,0.8,26.4,3.1,39.5c1.7-6.8,2.6-18.1,17.3-41.7c-1.7-1.5-3.4-6.6-3.2-9.7c0.1-1.1-0.1-1.5-1.5-3.8
	c-1.6-2.6-4.3-9.2-7.2-17.1c-1.3-3.6-1.9-7.5-1.5-10.2c1.1-7,9-8.6,14.9-5.3c0.5-2.7,3.7-7.9,9.2-8c7.1-0.3,11.5,3.9,12,8.5
	c3.2-4.3,9.4-3.7,12.5-1.6c1.2,0.9,4.6,4,2.4,9.1c1.4-0.1,5.9-1.8,9.2,1.6c0-18.2,0.9-36.3,2.7-54.4
	C781,184.2,782.7,173.9,785.3,163.8z M763.7,395.7c1.3-7,2.4-13.8,3.1-19.6c0.6-5,0.5-14.3-0.1-16.2c-1.2-3.6-4.3-5.1-7.4-3.4
	c-3.6,1.9-8.9,10.2-13.2,20.5c-5.5,13.1-8.4,26.1-9.8,43.2c-0.3,3.7-0.6,7-0.7,7.4c-0.1,0.4-0.6-1.8-1.3-5.3
	c-1.9-9.4-6.3-29.8-8.1-36.8l-1.6-6.4l0.9-1.3c2.7-4,8.7-19.4,11.5-29.4c2.6-9.5,3.5-14.5,3.4-19.2c-0.1-4.1-0.6-6-2-7.8
	c-4.8-6-12.3-0.9-16.7,11.4c-1.2,3.3-2.6,8.4-3.3,12.3c2.4-26.2,7.1-42,18.5-58c2.9,1,8.6,0.1,11.4-1.2c0.8-0.5,19,6,29.9-5
	c0.1,2.5,0.3,5,0.5,7.5c0.9,15.1,3.4,30.1,7.3,44.7c2,7.6,5.2,14.8,9.3,21.4c7.4,12.5,20.1,20.7,34.3,22c4.7,0.5,9.5,0.5,14.2-0.2
	c7.8-0.9,15.1-4.6,20.6-10.4c4.7-5.3,8.2-11.6,10.2-18.5c2-6.5,3.5-13.3,4.4-20c5.3,3.7,17.1,12.3,28.4,17c0.3,0,1.7,2,3.1,4.4
	c4.4,7.6,8.5,14.2,12.9,20.8c5.3,8.1,5.3,8,2.6,5.2c-6.9-7.2-15-14.3-23.8-20.6c-12-8.6-17-10.7-19.7-8.2c-2.1,2-1.4,8.3,3.7,14.6
	c7.6,9.4,11.1,16.2,29.3,32.7c7.7,7,23.5,15.4,26.4,18.3c5.8,5.6,3.7,12.3,3.2,16.3c-3,12.7,3.4,37.3,2.6,41.4l-24.3,0l-5-34.6
	c-8.8,10.1-19.5,18.8-31.2,25.5c5.3-6.8,18.6-27.5,14.3-36.2c-5.4-8.9-15.4,8.6-20.3,17.7c-0.2-4-0.2-12,0.7-16.2
	c3.1-0.4,6.8-1.9,8-4.4c0.6-1.2,1.3-3.2,0.8-7.5c4,3.6,9.1,3.2,12.1,2.3c2-0.6,4.2-2.4,4.9-4.1c0.7-1.7,0.9-7.7,0.5-10.3
	c-0.4-2.2-1.6-4.8-2.7-5.7c-1.5-1.3-3.2-2.3-7.1-1c2.7-7.7-0.7-11.1-5-12.6c-1.7-0.6-5.2-0.7-7.2-0.2c-2.8,0.7-4.8,2.4-5.8,4.9
	c-0.5,1.8-1.3,5.7-0.8,8.3c-1.7-1.8-4.6-5.6-11.4-5.1c-4,0.8-6.5,4.6-6.9,10.6c-0.2,2.8,0.2,6.1,0.9,7.4c1.4,2.6,2.1,4.2,9.9,2.6
	c-2.5,6.1-7.2,10.3,3.1,13.6c-3.6,12.5,1.4,29.5-1.3,33.6c-1.4-2.4-10.6-14.1-12.7-15.9c-0.7-0.6-1.3-1.2-1.3-1.2
	c2.5-0.6,5.5-2.4,6.7-3.8c2.2-2.4,3.6-6.3,3.2-8.9c-0.2-1.4-1.2-3.2-2.3-3.9c-0.9-0.6-2.8-1-4.1-0.9c-1.4,0.2-4.4,1.7-5.8,3.1
	c-0.5,0.5-0.9,0.8-0.9,0.8c0,0-0.1-0.7-0.2-1.4c-0.5-3.2-2-6-4.1-7.7c-1-0.8-4.3-1.5-5.5-1.2c-3.3,0.9-6.3,4.1-6.8,7.1
	c-0.2,1.5,0,3.4,0.8,5.1l0.6,1.4l-1.1-0.1c-5.5-0.6-10.5,2.5-11.9,7.3c-0.6,2.1,0.6,5.8,2.7,6.9c2.9,1.5,8.4,1.4,11.9-0.2l1.6-0.7
	l-0.3,1.4c-0.3,1.5-0.4,3.7-0.2,4.8c0.3,1.3,1.2,3,2.2,4c4.5,4.5,12.6,0.8,12.9-5.9l0.1-1.3c4.1,5.1,8.7,14.8,9.4,21.5
	c-4,1.4-8,2.6-12,3.5c-18.4,4.1-37.4,4.9-56.1,2.2c-2.8-0.4-5.6-0.8-8.4-1.3c6-12.7,11.7-39.1,6.6-40.9c-1.8-0.3-7.1,2.9-10,6.7
	c-1.4,1.9-3.6,5.2-5,7.4c-1.3,2.2-2.4,4-2.4,3.9c-0.1-0.2,0.8-7.4,1.3-10.1c0.8-4.8,2.3-11,3.5-14.5c1.2-3.7,1.3-3.8,2.1-5.2
	c0,0.8,2.6,10.2,9.6,7.1c5.1-3,5.3-8.9,5.6-11.9l1,1.6c1.4,2.3,3.4,4.3,5.2,5.1c3.1,1.4,6.4,0.7,7.9-1.8c1-1.6,1.2-5.6,0.5-7.8
	c-0.3-0.8-0.5-1.5-0.4-1.6c0,0,0.7,0.1,1.5,0.4c1.9,0.6,5.5,0.9,7.1,0.4c1.6-0.4,3.7-2.1,4.5-3.4c2.6-4.4-0.5-10.3-7.5-14.3
	c-5.4-3.4-12.3-3.3-15.5-3c1.1-3-2.7-7.8-8.8-7.6c-4.5,0-7.3,2-9,4.3c-4.2-0.7-10.1,0.9-13.7,2C771.6,391.4,766.1,393,763.7,395.7z"
	/>
<path class="st2" d="M1267.1,149.3c1.4-1,2.8-2.2,4.1-3.4c1.4-1.1,2.8-2.1,4.2-3.2c1.1-1,2.1-2.3,2.9-3.6c1-1.5,2.2-2.8,3.5-3.9
	c2.4-2.5,4.6-5.4,6.4-8.4c1.2-2.4,2-4.9,2.5-7.5c0.3-2-0.5-4-2-5.3c-1-0.9-1.9-1.8-2.8-2.8c-0.4-0.4-0.6-1-0.5-1.5
	c0.1-0.1,0.3-0.1,0.5,0.1c0.6,0.9,1.5,1.6,2.4,2.1c0.8,0.3,1.6,0.6,2.5,0.9c0.8,0.4,1.4,1,1.8,1.7c0.6,0.9,1.4,1.7,2.3,2.3
	c0.6,0.2,1.2,0.5,1.8,0.8c0.7,0.5,1.3,1.1,1.8,1.9c0.9,1.2,2.2,2.2,3.6,2.8c1.5,0.9,2.8,2.1,3.9,3.5c0.7,0.9,1.4,1.7,2.3,2.3
	c0.6,0.3,1.1,0.6,1.8,0.9c0.8,0.4,1.4,1,1.9,1.7c1,1.2,2.2,2.2,3.5,2.9c1.2,0.9,2.4,1.9,3.6,2.9c1,0.8,2.1,1.7,3.1,2.5
	c0.9,0.7,1.9,1,3,1.4c0.7,0.3,1.4-0.1,0.6-1.7c-0.7-1.4-1.8-2.5-3-3.5c-1.5-1.3-3-2.6-4.5-3.9c-0.7-0.8-1.5-1.6-2.3-2.4
	c-0.7-0.5-1.4-1-2.2-1.4c-0.7-0.5-1.4-1.1-1.8-1.8c-0.7-1.1-1.7-2-2.9-2.6c-1.5-0.8-3-1.9-4.2-3.1c-0.7-0.9-1.4-1.7-2.2-2.5
	c-0.9-0.7-1.8-1.2-2.8-1.7c-0.7-0.5-1.3-1.1-1.7-1.9c-0.5-1-1.4-1.7-2.4-2.2c-0.6-0.3-1.2-0.6-1.7-0.9c-0.7-0.5-1.2-1.3-1.5-2.1
	c-0.5-1.2-1.5-2.2-2.6-2.8c-0.3-0.1-0.6-0.4-0.9-0.6c-0.1-0.1,0-0.3,0.3-0.2c0.8,0.2,1.6,0.6,2.2,1.2c1,0.9,2,1.7,3.1,2.5
	c1.3,0.8,3,0.9,4.4,0.5c3.2-0.9,6.1-2.5,8.7-4.7c2.8-2.5,5.3-5.3,7.5-8.3c1.1-1.1,2.2-2.2,3.4-3.2c1.2-1.3,2.3-2.7,3-4.3
	c1-1.7,2-3.4,3.2-5c0.6-0.9,1.1-1.9,1.4-3c0.8-2.5-2.5-2.6-3.3-2.5c-1.5,0.3-3,0.8-4.3,1.5c-2.2,1.1-4.2,2.5-6,4
	c-1.4,1-2.8,2.1-4.2,3.2c-2.3,2-4.8,3.9-7.4,5.6c-2.9,2-5.9,3.9-8.9,5.8c-0.7,0.5-1.5,1-2.2,1.5c-0.8,0.5-0.9,0.2-0.8,0.1
	c0.3-0.5,0.7-0.9,1.2-1.3c2.1-1.9,4.3-3.8,6.6-5.6c1.9-1.5,3.8-3.1,5.5-4.7c1.8-1.9,3.4-4.1,4.7-6.4c1.3-2.3,2.4-4.7,3.2-7.2
	c0.3-1.5,0.5-3,0.7-4.6c0.3-2,0.7-3.9,1.2-5.8c0.2-0.8,0.2-2.1-1.1-2.5c-1.1-0.2-2.2,0-3.1,0.6c-1.5,0.9-2.8,2.1-3.8,3.6
	c-2.3,3.2-4.4,6.6-6.2,10.1c-1.4,2.5-3.1,4.8-5.1,6.9c-1.3,1.5-2.6,3-3.9,4.5c-2.3,2.9-4.2,6.2-5.5,9.7c-0.4,0.9-1.2,0-1.7-0.3
	c-0.7-0.4-1.6-0.6-2.5-0.5c-0.6,0.1-1.2-0.1-1.1-0.6c0-0.4,0.1-0.8,0.3-1.2c0.2-0.8,0.1-1.7-0.5-2.4c-0.3-0.3-0.7-0.5-1.1-0.6
	c-0.9-0.1-1.7,0-2.5,0.4c-0.8,0.3-1.6,0.7-2.4,1.1c-0.7,0.5-1.2,1.3-1.3,2.1c-0.3,1.1-0.5,2.1-0.5,3.2c0,0.4,0.1,0.8,0.3,1.2
	c0.4,0.7,1.3,1.2,2.1,1c0.6-0.1,1.2-0.4,1.8-0.6c0.2-0.1,0.5-0.2,0.8,0.2c0.2,0.3,0.3,0.7,0.3,1.1c0,0.4,0.1,0.9,0.3,1.2
	c0.3,0.6,0.7,1.1,1.2,1.5c0.5,0.3,0.4,0.9-0.8,1.4c-3.5,2-6.6,4.5-9.2,7.4c-2.1,2.5-4.4,5-6.8,7.3c-1.7,1.4-3.5,2.7-5.3,4
	c-2.5,1.8-4.8,3.8-7,6c-1.1,1.1-1.9,2.4-2.5,3.9c-0.3,0.8-0.4,1.7-0.2,2.6c0.3,1.8,2.7,1.5,4.3,0.6c2-0.8,4.2-1.5,6.3-1.9
	c2.1-0.6,4.2-1.5,6-2.7c3.2-2,6.1-4.4,8.5-7.2c1.5-1.9,2.8-3.9,4.1-6l0.4-0.6c1.6-2.7,3.3-5.2,5.1-7.7c0.4-0.5,0.7-0.5,0.7-0.1
	c-1.8,3.6-3.5,7.1-5.2,10.7c-1.1,2.2-2.2,4.3-3.4,6.4c-1.6,2.4-3.1,4.8-4.4,7.4c-1.4,2-2.5,4.2-3.3,6.4c-0.6,1.4-1,2.9-1.1,4.5
	c-0.1,0.9,0.1,1.7,0.5,2.5C1263.8,150.4,1265.8,150.2,1267.1,149.3z M1218.6,2.8c-1.1,0-2.1,1-2.1,2.1l0,172.9H1159V5.1
	c0-0.5-0.2-1.2-0.8-1.7c-0.4-0.4-1-0.6-1.5-0.6h-138c-0.4,0-0.9,0.2-1.3,0.5c-0.6,0.4-1,1.2-1,1.9v477.2c0,0.3,0.1,0.6,0.2,0.8
	c0.2,0.4,0.4,0.7,0.7,1c0.2,0.2,0.8,0.5,1.4,0.5h138c1.2-0.1,2.2-1.1,2.2-2.2l0-175h57.6v175c0,1.2,0.8,2.3,2.1,2.3l138.3,0
	c0.7,0,1-0.1,1.8-1c0.4-0.5,0.5-1.3,0.5-1.5V5.1c0-0.5-0.1-0.8-0.3-1.1c-0.4-0.7-1.2-1.2-2-1.2L1218.6,2.8z M1300.9,340.1
	c2.1-3.2,8.3-12.5,6.6-16.2c-3.6-0.8-15.2,19-18,27.4C1291.7,349.9,1297,345.3,1300.9,340.1z M1284.1,168.6
	c-0.3,0.6-0.7,1.2-1.3,1.5c0.2,3.4,1.2,6.6,3,9.5c0.6,1.2,1.2,2.3,1.9,3.4c0.4-2.5,0.4-5.1-0.2-7.6c-0.3-2-0.6-4.1-1.1-6.1
	c-0.8-0.1-1.6-0.4-2.2-1.1L1284.1,168.6z M1289.3,273.8c2.9-7.4,4.5-10.7,7.6-15.7c4.4-7,11.5-14.4,16.2-16.9c1.9-1,4.2-1.5,5.4-1.2
	c1.9,0.6,0.1,5.3-4.4,11.3c-2.6,3.6-5,6.3-11.7,13.1c-5.6,5.7-10.7,11.3-14,15.2c-1.1,1.4-1.7,1.5-1.5,0.8
	C1287.1,279.6,1288.1,276.6,1289.3,273.8z M1265.8,341.4c-1.3-1.7-2.7-3.7-3.2-4.5c-1.4-2.2-4-7.8-5.4-11.4
	c-2.6-6.9-4.5-19.6-3.7-24.2c0.1-0.7,0.3-0.8,1-0.4c2.3,1.2,6.3,8.7,8,15c0.5,2,1.7,7.9,2.6,13.2c0.9,5.2,1.9,10.8,2.3,12.3
	c0.4,1.6,0.8,2.9,0.7,2.9C1268.2,344.4,1267.1,343.1,1265.8,341.4z M1243.9,340.9c-3.3-2-12.9-7.6-13.1-11.7
	c2.8,0.7,22,10.4,28.2,16.8C1256.4,345.6,1249.7,343.8,1243.9,340.9z M1298.7,459.5c-1.1-3.4-2.5-10.8-2.7-13.8
	c-0.3-4,0-6.9,0.9-9.9c0.8-2.9,1.6-4.3,2.6-4.8c0.6-0.3,0.7-0.3,1.1,0.3c0.5,0.9,1,3.5,1.1,6.3c0.1,3.1-0.5,13.2-1.2,19.1
	c-0.3,2.6-0.6,5-0.6,5.3C1299.8,462.8,1299.5,462.1,1298.7,459.5z M1310.7,461.5c4.8-6.7,9.5-12.2,13.4-15.6
	c2.7-2.4,6.1-4.8,6.1-4.4c0,0.8-5.4,7.6-10.4,13c-3,3.2-11,10.6-11,10.1C1308.7,464.4,1309.6,463,1310.7,461.5z M1320,411.6
	c-0.9-0.3-1.9-0.9-2.4-1.3c-0.8-0.7-0.8-0.8-0.4-1.4c0.2-0.3,1.6-1.8,3-3.1c2.5-2.5,2.6-2.5,3.5-2.2c2.2,0.6,2.2,0.5,2,4.7
	c-0.2,4.1-0.4,4.3-2.5,4.1C1322.2,412.3,1320.8,411.9,1320,411.6z M1338.1,404.6c-0.8-0.3-1.7-0.8-2.1-1.1c-1.4-1.1-3.5-3.5-3.5-4
	c0.1-0.9,8.5-5.2,9.9-5.1c0.8,0.1,1.1,3.7,0.6,6.7c-0.5,3.1-0.7,3.6-1.6,3.8C1340.3,405.3,1339.7,405.2,1338.1,404.6z M1310.7,396.8
	c-0.1-0.4,0.1-2.1,0.3-3.9c0.3-2.6,0.6-3.4,1.2-4.4c0.9-1.4,1.4-1.5,3.1-0.4c1.1,0.7,5.2,5.6,5.1,6.1c-0.1,0.6-1,1-4.2,2.1
	C1311.8,397.8,1310.9,397.9,1310.7,396.8z M1329.7,391.9c-1.3-0.8-1.3-1.4-0.9-6.1c0.4-4.1,0.7-4.7,2.4-5c1.8-0.3,3.4,0.2,4.1,1.1
	c0.5,0.7,0.5,1,0.3,2.7c-0.2,1.1-0.6,2.5-1,3.2c-0.7,1.3-3.4,4.8-3.7,4.7C1330.7,392.5,1330.2,392.2,1329.7,391.9z M1285.1,464.7
	c-3.8-6.7-7.6-12.3-10.9-15.9c-2.3-2.5-5.2-5.1-5.3-4.7c-0.1,0.8,4.3,7.6,8.4,13.1c2.5,3.3,9.2,10.9,9.3,10.5
	C1286.7,467.6,1286,466.2,1285.1,464.7z M1283.3,426.6c0.9-0.1,2-0.4,2.5-0.7c0.8-0.5,0.9-0.6,0.7-1.2c-0.1-0.4-1.1-1.9-2.1-3.5
	c-1.8-2.8-1.8-2.8-2.7-2.8c-2.1,0.1-2.1,0-2.7,3.9c-0.6,3.8-0.5,4,1.4,4.3C1281.1,426.7,1282.5,426.7,1283.3,426.6z M1268.2,416.5
	c0.8-0.1,1.7-0.4,2.1-0.5c1.5-0.7,4-2.5,4-2.9c0.1-0.8-6.7-6.5-8-6.7c-0.7-0.1-1.7,3.2-1.9,6c-0.2,3-0.1,3.4,0.7,3.8
	C1266.1,416.7,1266.6,416.7,1268.2,416.5z M1294.8,414.9c0.1-0.3,0.4-2,0.5-3.6c0.2-2.4,0.2-3.2-0.2-4.3c-0.5-1.5-1-1.7-2.7-1
	c-1.1,0.4-5.9,4-5.9,4.5c-0.1,0.5,0.7,1.1,3.4,2.8C1293.6,415.6,1294.4,415.9,1294.8,414.9z M1278.5,406.6c1.3-0.5,1.5-1,2.1-5.4
	c0.5-3.8,0.3-4.4-1.1-5c-1.5-0.6-3.2-0.5-4,0.2c-0.6,0.6-0.7,0.8-0.8,2.4c-0.1,1,0.1,2.4,0.3,3.1c0.4,1.3,2.2,5,2.4,5.1
	C1277.4,407,1277.9,406.8,1278.5,406.6z M1227.7,460.1c0.1-2.1,0.2-12.1,0.4-13.1c0.4-2.6,15.8-24.7,19.4-27.6
	c0.6-0.5,1.5-1.1,1.9,0.8c1,2.4-0.8,8.5-3.5,14.3c-0.9,1.9-3.8,7.2-6.5,11.7S1227.9,464.5,1227.7,460.1z M1282.5,472.7
	c-5.7-5.5-7.6-9.8-11.3-15.1c-6.7-9.4-9.7-15.9-8.8-19c0.6-1.9,2.5-3,4.4-2.5c2.1,0.6,8.5,5.9,12.1,10c2.2,2.5,3.1,3.7,5.6,7.4
	c-2.5-4.9-5.9-17.2-4.7-21.2c-2.7-0.7-5.5-2.7-6.2-5.1c-0.3-1.1-0.4-1.8-0.1-4.2c0.2-1.6,0.3-2.9,0.3-2.9c0,0-0.5,0.2-1.1,0.5
	c-2.7,1.3-7.2,1.5-9.6,0.4c-1.7-0.8-3.3-2.7-3.7-4.4c-0.4-1.6,0.1-7.3,0.8-9.7c0.6-2,2-4.3,3-5c1.5-1.1,3.9-1.6,6.3-0.1
	c0.1,0,0-0.8-0.1-1.8c-0.5-4.5,2-8.5,5.9-9.4c0.1-8.5,0.7-15.8,1.1-18.5c-0.1-8.9-1.9-10.7-6.6-13.8c-4-1.8-30.8-9.8-41.6-21.5v96
	c3.5-8.2,16.3-19.5,18.7-20.4c1.7-0.7,10.1-8.5,7.5,9.8c-0.6,7.4-2.6,16.2-10.2,28.8c-3.2,5.3-5,8.7-7.5,14.1
	c-2.1,4.4-3.3,4.5-1.8,7.6H1282.5z M1347.4,406.8c-0.8,1.6-3,3.3-5,3.7c-2.8,0.6-7.4-0.6-9.9-2.6c-0.5-0.4-1-0.8-1-0.8
	c0,0-0.2,1.4-0.4,3c-0.3,2.5-0.4,3.3-1.1,4.4c-1.3,2.3-3.2,3.6-6.1,3.8c-1.2,6.7-7.4,23.3-14.5,35.6c3.1-3.7,7.5-9,10.1-11.4
	c4.2-3.9,11.7-8.9,14-9.3c2.1-0.3,4,1,4.4,3.1c0.6,3.4-3.3,9.9-11.5,19.2c-4.6,5.2-10.1,11.9-16.7,17.1h37.8V406.8z M1129.5,463.3
	c-0.7-3.6-1.7-6.2-2.9-8.3c-1.9-3.3-5.2-6-7.3-6.1l-1,0l0.1,1.6c0.1,3.1,2.8,7.1,8.9,13.1c1.5,1.5,2.7,2.7,2.8,2.6
	S1129.8,464.8,1129.5,463.3z M1140.9,461.3c1.6-2.3,3.1-4.8,4.4-7.5c1-2.1,2.1-5.3,1.9-5.5c-0.2-0.2-2.5,2.7-3.8,4.9
	c-1.8,2.8-2.9,5.3-4,8.6C1138.4,464.8,1138.4,464.9,1140.9,461.3z M1135.9,452.1c0.4-1.5,0.5-2.5,0.4-5.1c-0.1-4.6-0.8-5-2-1.1
	c-0.4,1.3-0.5,2.6-0.5,5.3c0,2,0.1,4,0.2,4.6l0.2,1l0.6-1.4C1135.1,454.6,1135.6,453.1,1135.9,452.1z M1126.7,427.2
	c0.5-0.9,1.1-2.4,1.4-3.3c0.6-2.1,1-6.5,0.7-8l-0.2-1l-0.3,0.7c-0.9,1.9-2.4,8.3-2.8,12.5C1125.3,429.6,1125.4,429.4,1126.7,427.2z
	 M1118.9,428.1c-2.1-4.8-4.5-8.1-7.1-9.7c-2.7-1.8-3.7-0.6-2.2,2.6c1,2,2.8,3.9,5.1,5.5c1.3,0.9,4.3,2.6,4.5,2.6
	C1119.3,429.1,1119.1,428.6,1118.9,428.1z M1139,472.7c1.4-1,6.5-8.8,8.2-11.2v11.2H1139z M1106.5,285.4l4.3-2.6
	c4.6-2.8,9-4.8,12.7-5.7c2.9-0.7,4.7-0.5,6.7,0.7c1.7,1.1,5.6,5.3,3.3,6.6c-2,1.8-6.9,3.4-11,3.6
	C1117.1,288.5,1108.9,287.3,1106.5,285.4z M1101.6,276.2l0.9-3.9c0.5-2.1,1.1-4.6,1.2-5.4c0.3-1.9,1.7-4.4,3.1-5.7
	c0.6-0.5,1.8-1.3,2.6-1.6c1.3-0.5,1.9-0.6,4-0.5c2.2,0.1,2.6,0.3,4.1,1.1c1.7,1,3.8,3.2,3.8,4c-0.1,1.8-3.4,5-11.2,10.8l-5.5,4.1
	C1104.1,278.1,1102.5,276.6,1101.6,276.2z M1089.6,271.3c-0.4,0.1-0.9-1.5-3-10.6c-1.5-6.5-1.8-9-1.5-11.4c0.3-2.3,6-2.1,7.4-1.3
	c1.8,1,4.3,3.9,5.1,6c1.4,3.4,1.5,8.2,0.3,11.7c-0.4,1.1-1.5,5.6-2.1,7.5C1094.8,271.3,1090.7,271.1,1089.6,271.3z M1123.6,271.1
	c1.3-1.8,3.5-5.4,3.2-7.9l1.3-0.6c2.8-1.2,6.1-0.1,7.2,2.6c0.4,1,0.3,2.7-0.3,4c-0.5,1-2.6,3.2-3.1,3.1
	C1130.2,271.1,1125.9,270.9,1123.6,271.1z M1103.8,255.6c-0.5-2-1.9-5.9-2.9-7.1c-0.6-0.7-0.6-1-0.4-2.1c0.5-3.1,3.3-4.5,6.5-3.2
	c2.1,0.9,4.5,6.8,4.6,10.4C1109.4,252.9,1105.6,254.5,1103.8,255.6z M1117.9,254.2c-0.3-0.3,1.8-3.3,2.8-3.9
	c0.8-0.5,1.2-0.5,2.1-0.4c1.6,0.3,2.5,1.3,2.4,2.9c-0.1,1.2-1.6,4.5-2,4.4C1122,255.3,1118,254.3,1117.9,254.2z M1063,466.2
	c-3.8-7-8.1-13.5-13.6-20.3c-9.2-11.4-14.2-19.1-15.2-23.6c-1.2-5.2-0.8-9.6,0.9-10.5c1.8-1,6.2,1,10.3,4.6
	c4.5,3.9,10.4,13.9,13.6,23c2.8,8,5,17.5,5.2,22.1c0.1,2.8,0,6.2-0.2,6.2C1063.9,467.7,1063.5,467,1063,466.2z M1074,449.9
	c1.9-17.3,6.1-35.5,11.2-48.3c1.6-4.1,4.6-10.2,6.8-14.1c3.8-6.7,9.2-13.9,11.9-16c0.5-0.3,1.1-0.1,1.1,0.6
	c0,5.5-4.9,22.3-11.5,39.5c-4.1,10.8-6.9,17-13.7,30.2c-2.1,4.1-4.3,8.4-4.9,9.6c-0.6,1.2-1.2,2.1-1.3,2.1
	C1073.7,453.6,1073.7,451.9,1074,449.9z M1067.3,368.6c0.2-1.2,1-5.4,1.7-9.4c0.7-4,1.6-8.3,2-9.5c1.5-5,4.8-12.3,6.9-15.6
	c2.2-3.3,5.2-6.1,6.1-5.6c0.9,0.5,0.6,5.2-0.6,9c-1.4,4.5-4.7,12.4-7.5,18.1c-3.3,6.6-8.4,15.3-8.8,15.2
	C1067,370.8,1067,370,1067.3,368.6z M1051.2,340.8c-3.1-5.5-4.4-9.1-9.4-25.5c-2.3-7.5-4.1-17-4.6-23.6c-0.2-3.1,0.2-9.2,0.6-9.2
	c0.6,0.1,2.6,2.5,3.8,4.5c4.2,6.9,6.6,13,9.7,24.7c2.7,10.1,4,16.2,5.2,24.8c0.8,5.3,1.9,14.7,1.9,15.3
	C1058.4,352.3,1053.4,344.7,1051.2,340.8z M1092.2,195c-0.5-1.2-2.2-5.2-3.8-8.8c-9.5-21.4-12.2-29.5-12.6-38.8
	c-0.2-4.6,0.9-13.7,1.9-16c0.6-1.4,0.7-1.5,1.5-1.4c4,0.5,10.1,12.8,13.8,27.6c1.8,7.3,2.8,13.7,3,21.3c0.1,2.5-1.9,12.6-2.2,14.6
	s-0.7,3.7-0.7,3.7C1093.1,197.2,1092.6,196.2,1092.2,195z M1104.6,170.4c5.3-25.2,8.3-35.1,15-49.5c5.3-11.3,8.9-16.6,12.1-17.8
	c2.1-0.8,3.1,0,3.5,2.7c1.5,9.1-4.3,28.6-14.7,50.4c-4.5,9-12.4,29.3-18.8,34.6C1101.9,185.6,1103.4,175.4,1104.6,170.4z
	 M1066.6,210.8c-0.3,0.7-0.7,1.4-1.1,2c-3.9-8.1-5.3-17.1-4.2-26c0.3-2.5,1.6-5.7,3.7-6.1c5,0.7,5.3,6,5.3,8.3
	C1070.7,196.5,1069.4,203.9,1066.6,210.8z M1038.8,194.6c4.7-0.1,9.3,1.9,12.4,5.4c3.5,4.2,6.4,9,8.5,14c-5.6-1.4-10.9-4.1-15.3-7.8
	c-3-2.5-5.2-5.8-6.5-9.5C1037.7,195.7,1037.8,194.5,1038.8,194.6z M1053.2,175.6c1.9,0.2,4.7,3.6,3.9,5.8c-1.8,4.8-2.3,9.9-1.6,15
	c-2.7-2.9-6.1-5.2-9.9-6.6c-3.2-2.2-4.3-6.4-2.6-9.9C1045.6,175.1,1050.7,175.1,1053.2,175.6z M1062.6,271c-0.1-1.2-0.6-5.7-0.9-9.9
	c-0.4-4.2-0.9-8.8-1.2-10c-1.1-5.4-3.8-13.3-5.8-16.9c-2-3.7-4.8-6.8-5.8-6.4c-1,0.4-1.1,5.3-0.2,9.4c1,4.8,3.7,13.3,6.1,19.5
	c2.8,7.1,7.3,16.7,7.8,16.6C1062.7,273.3,1062.7,272.4,1062.6,271z M1028.1,423.4v49.3h30.6c-4-8-6.7-14.4-14.6-24.5
	C1032.1,433,1029.3,430.8,1028.1,423.4z M1028.1,354.5v55.1c2.4-3.7,7.5-5.5,12.1-3.7c6.2,2.5,12,7.9,16.7,15.6
	c2.4,3.9,5.6,10.5,7,14.2c0.6,1.6,1.1,2.8,1.2,2.7c0.2-0.1,0.1-7.1-0.1-13.5c-0.4-10.5-2.3-39.2-2.9-43.2c-0.2-1.1-3-3.5-11.7-9.6
	C1043,366.9,1032.7,358.6,1028.1,354.5z M1028.1,345.6c2.7,2.9,5.1,5,10.3,9.6c6.1,5.4,8,6.9,13.9,11c2.7,1.9,5.6,3.9,6.6,4.7
	c1.5,1.1,1.8,1.2,1.7,0.8c0-0.3-0.6-4.3-4.5-10.5c-6.2-10.1-20.7-25.6-28-32V345.6z M1147.3,152.2V14.9h-119.2v307
	c3.9,2.5,9.4,7.6,13.3,11.2l-3-9.8c-3.5-11.2-4.7-16.2-6-24c-1.1-7-1.4-14.9-0.6-18.4c1.2-5,5-6.7,9-3.9c3.4,2.3,8,9.8,11.6,19
	c1.4,3.5,3.9,9.3,6.2,20.3c0.1-0.2,2-23.4,2.6-28.4c0.4-1.7-0.1-5.4-1-7.4c-2.9-3.8-9.7-18.8-13-28.6c-3.1-9.3-4.3-14.2-4.5-18.9
	c-0.2-4.1,0.2-6,1.5-7.9c4.4-6.3,12.1-1.7,17.1,10.3c1.4,3.3,5.4,13.5,5.4,19.6c4.8-13.3-4-31.5-4.9-33.9c-5.5-1.2-10.8-3.2-15.7-6
	c-6.3-3.6-11.2-9.3-13.9-16.1c-1.5-3.6-2.9-8.8,4.7-10.1c-2.9-7.2,0.6-15.3,7.9-18.1c4.9-2.4,10.9-1.7,15.1,1.8
	c0.9,0.8,1.6,1.9,2.1,3c4.2-2.1,9.4-0.5,11.7,3.6c1.9,2.9,2.8,6.4,2.8,9.8c0.4,8.9-1.2,17.7-4.9,25.8c-0.9,1.7-2,3.3-3.3,4.8
	c4.7,7.8,5,8.6,7,15.5c2.9-8.6,11.7-23.9,15.1-29.4l-7.1-16.6c-9.3-20.7-12.4-30.3-13.1-40.2c-0.5-6.6,0.7-16.3,2.4-20.3
	c1.5-3.5,4.7-7.1,10.8-3c4.1,2.8,9,11.4,12.6,22.3c1.3,3.9,3.1,10.7,3.8,14.3l0.4,2l1.3-5.9c4.3-18.8,7.6-28.6,14.2-42.3
	c4.4-9,7.5-13.8,10.6-16.4c5.7-4.8,12.3-3.4,14.2,2.8c0.9,3.2,0.9,5.4,0.1,12.3c-0.9,7.1-1.5,9.7-4.7,19.3
	c-3.6,10.9-8.7,22.4-16,36.1c-1.7,3.1-2.9,5.5-2.8,5.4c0.1-0.1,1.6-1.6,3.3-3.4c4.9-5.1,7.1-7.1,11.6-10.6
	C1139.5,155.4,1142.3,152.7,1147.3,152.2z M1147.3,185.4c-5.9,5.1-13.4,8.3-24.8,13.8c-9.3,4.5-22.6,9.4-24.7,9.2
	c-0.7-0.1-2.5-0.3-4.9,4.1c-3.7,6.6-5.2,9.6-7.1,13.9c-2.8,6.5-8.7,19.8-11.3,28.6c-2.3,9-4.6,16.2-7.3,32.7
	c-2,11.5-3.1,26.2-2.9,39.5c2.7-6.4,5.2-17.5,23-38.6c-1.4-1.8-2.3-7-1.7-10.1c0.2-1,0.1-1.5-0.9-4c-1.1-2.8-2.9-9.7-4.4-17.9
	c-0.7-3.8-0.7-7.7,0-10.4c0.7-2.6,3.2-4.7,5.8-5.1c2.8-0.4,7.5,0.7,9.4,2.1c0.9-4.7,6.6-6.1,9.8-6c5.9,0,9.8,6,10.8,9.5
	c2.3-2.5,8.2-3.4,12.4,0.3c1,1.1,1.5,1.9,1.8,3c0.5,1.6,0.5,4.1,0,5.5c-0.3,0.9-0.3,0.9,0.7,0.9c1.4,0.1,4.1,1,5.3,1.7
	c1.5,0.9,3.4,3,4.1,4.6c1.8,3.9,0.8,8.8-2.4,12l-1.2,1.2l1,1.3c2.4,2.9,3,5,2.2,7.4c-1.2,4-6.5,7.3-13.8,8.7
	c-4.6,0.9-15.1,0-19.2-1.6c-1.6-0.6-1.7-0.6-2.6-0.3c-3,0.9-8.6,0.9-11.3-0.6c-13.4,14.1-20.4,29.1-26.6,54.6
	c1.3-3.7,3.4-8.5,5-11.6c6.1-11.5,14.2-15.5,18-8.8c1.1,2,1.3,3.9,0.8,8c-0.6,4.7-2.2,9.5-6.1,18.5c-4.2,9.5-12.3,23.8-15.5,27.4
	c-0.8,1.5-0.8,5.6-0.4,7.8c0.7,7.3,2,28.1,2.4,37.6c0.2,3.6,0.4,5.8,0.5,5.4c0.1-0.4,0.9-3.6,1.8-7.2c3.9-16.8,8.7-29.2,16-41.3
	c5.7-9.6,12.2-17,15.9-18.3c3.3-1.2,6.1,0.7,6.7,4.5c0.3,2-1,11.2-2.3,16.1c-2.6,9.3-6.5,20.9-10.8,32.1c-4.7,12.2-7.4,18-17.4,37.4
	c-4,7.8-6.2,14.4-8.4,19.8h52.3c-7.3-6.9-9.3-13.9-10.9-18c-1.5-3.9-1.4-7,0.3-9.2c2.1-2.5,6.1-2.7,10.1-0.5c0.9,0.5,0.9,0.5,0.7,0
	c0-2.1-1.2-6.5-2.7-8.8l-2.9-1.2c-5.3-2.1-9.9-5.2-12.4-8.1c-2.4-2.9-4-7-3.6-9.3c0.7-4.8,5.9-6.9,10.5-4.2c1.9,1.1,4.6,3.7,6,5.7
	c0.6,0.9,1.1,1.6,1.2,1.5c0,0,0.5-1.5,0.9-3.2c1.4-5.3,3-7.9,5.3-8.8c2.6-1.1,5.1,0.3,6.2,3.3c0.4,1.2,0.5,2.4,0.6,5.7
	c0.1,3.6,0,4.5-0.5,6.7c-0.9,3.7-2.1,6.1-4.7,9.3l-1.2,1.5c1,1.4,1.9,4.7,2.1,6.5c0.1,0.4,0.3,0.2,1.1-0.9c2.3-3.5,6.9-4,9.2-1
	c1,1.2,2,3.7,1.9,6c1.7-2.6,3.8-3.4,5.4-3.5V295.4h81v25.3c7.8-0.3,20.4,11,26.7,14.4c-4.1-6.6-5-16.6-5.7-21.1
	c-1.2-7.3-1.2-13.3,0.1-15.6c0.9-1.6,2.5-2.8,4-2.9c1.2-0.1,1.8,0.1,3.6,1.2c1.9,1.1,2.6,1.8,4.4,4.3c4.3,6,6.4,12.5,8.7,26.9
	c0.9,4.8,2.8,14.2,4.1,18.1c0.2,0.5,0.5,0.3,0.5,0.1c-1.5-13.9,0.3-27.5,3.1-41c1.5-8.5,1.9-17.1,1.2-25.7
	c-0.4-6.6-0.2-13.2,0.8-19.7c-2.6-4.9-5.6-9.4-9-13.6c-4.5-5.2-9.6-9.8-15.2-13.6c-5.5,4.2-12.4,6-19.1,4.9c-0.3,2.1-2,3.6-4,3.4
	c-2.4-0.5-4.1-3-3.7-5.6c0-2.8,2.1-5.1,4.7-5.1c1.3,0,2.5,0.8,3,2.1c3.8,0.6,7.7,0.2,11.4-1c-4.2,0.4-8.5-0.6-12.1-2.9
	c-1.7,1.1-3.8,0.5-4.8-1.3c-1-2.7,0.2-5.7,2.7-6.8c1.9-0.7,4,0.1,4.9,2c0.2,0.5,0.3,1.1,0.3,1.7c3.2,2,6.9,2.7,10.6,2
	c-1.9-2.1-4.1-3.9-6.5-5.5c-1.7,0.9-3.8,0.2-4.7-1.6c-1-2-0.5-4.4,1.2-5.8l0.5-0.3c0.1,0,0.1-0.1,0.2-0.1c1.1-0.6,2.4-0.4,3.3,0.5
	c1,0.6,1.8,1.5,2.3,2.6c2.4,1.8,4.7,3.7,6.8,5.8c-0.8-3.3-2.4-6.4-4.5-8.9l-1.5-1.9c-1.8,0.4-3.7-0.4-4.6-2.2
	c-0.1-0.2-0.1-0.4-0.2-0.6c0-0.2,0-0.3-0.1-0.5c0.6-3.7,3.9-6.2,7.4-5.5c1.9,0.1,3.5,1.4,4,3.3c0.2,1.3-0.3,2.6-1.3,3.4
	c4.2,4.6,6.6,10.8,6.8,17.3c-0.1,0.7-0.1,1.3-0.1,2c8.4,5.9,15.8,13.4,21.8,22c-0.3-11.5-1.1-23-2.5-34.5c-0.3-2.7-1.2-5.3-2.7-7.5
	c-1-2.2-2.5-4.2-4.2-5.8c-2.1-2.2-3.8-4.7-5-7.6c-6.6,1-13.2-0.4-18.9-4.1c-0.2-0.1-0.4-0.2-0.6-0.3c-1.4,1.2-3.4,1-4.7-0.3
	c-1.2-1.5-1.1-3.8,0.3-5.2c1-2,3.2-2.9,5.1-2.1c0.3,0,0.6,0.2,0.8,0.5c0.7,0.6,1.1,1.5,1.2,2.5c3.9,2.6,8.3,4,12.9,4.1
	c-4.8-2-9.3-4.9-13.1-8.7c-1.4-0.2-2.5-1.3-2.6-2.7c0.3-2.6,2.3-4.5,4.7-4.6c1.5-0.5,3.1,0.2,3.7,1.8l0.1,0.6c0,0.3,0,0.6,0,1
	c-0.1,0.5-0.3,1.1-0.6,1.5c3,2.8,6.4,5,10.2,6.5c-1.1-2-2.3-4-3.7-5.8c-1.6,0.4-3.3-0.6-3.7-2.3c-0.7-1.3-0.4-3,0.8-3.9
	c1.3-1.6,3.5-1.8,5-0.5c1.7,2.6,3.4,5.2,5.2,7.8c-0.4-3-1.6-5.9-3.5-8.3c-1.4,0.5-3-0.2-3.6-1.7c-0.4-2.8,1.3-5.4,3.9-5.8
	c1.1-0.1,2.1,0,3.1,0.5c0.3,0.2,0.6,0.4,0.8,0.6c0.3,0.3,0.5,0.6,0.6,1.1c0.1,0.7-0.1,1.5-0.5,2.1c4.1,5.4,5.7,12.5,4.3,19.4
	c-0.4,1.6-1.3,3-2.4,4.2c1.8,3.9,4.4,7.2,7.5,9.9l0,0.1c3.2-4,6-8.4,8.3-13.1c-2-1.2-3.6-3-4.5-5.2c-2-3.3-3.5-7-4.4-10.8l-0.1-0.9
	l0-0.3c-1.5,0.4-3.1-0.4-3.7-2c-0.3-1.4,0.4-2.9,1.6-3.5c2-1.6,4.6-2.2,7-1.7c0.5,0.1,0.9,0.4,1.2,0.8c0.1-0.2,0.2-0.5,0.3-0.7
	c2.4-2.8,6.2-3.4,9.2-1.5c0.1,0.1,0.3,0.3,0.4,0.4c0.8,1.1,0.6,2.7-0.4,3.5c-0.4,0.4-0.9,0.8-1.5,1c0.4,2.1,0.8,4.3,1.1,6.4
	c1.7-2.1,3.4-4.3,5-6.5c-0.1-0.2-0.2-0.4-0.3-0.5c-0.6-1.3-0.2-2.8,1-3.5c1.5-0.9,3.4-0.8,4.8,0.4c1.1,0.8,1.9,2.1,2.2,3.6
	c0,1.4-1,2.7-2.3,2.9c-0.3,0-0.6,0.1-0.9,0.1c-1.8,2.3-3.6,4.6-5.3,7.1c-0.7,1.4-1.4,2.9-2.1,4.3c4.3-3,8.2-6.8,11.4-11.1
	c-0.6-1.6,0-3.5,1.5-4.3c2.1-0.7,4.4,0.2,5.5,2.3c1.2,1.3,1.4,3.3,0.4,4.8c-1,1.1-2.4,1.4-3.7,1c-3.9,5.3-8.8,9.6-14.3,12.8
	c-1.1,0.5-2.3,0.9-3.4,1.2c-2.8,6.6-6.7,12.6-11.3,17.9c1.9,5.6,2.9,11.6,3.1,17.6c0.8,9.4,1.3,18.8,1.4,28.2
	c-0.2,4.5-0.6,9.1-1.2,13.6c-0.1,2.2-0.1,4.4-0.1,6.5c4.6-17.2,15-27.7,23.3-34c4.9-3.7,10.7-4.9,14-2.9c1.3,0.8,2.4,2.7,2.5,4.5
	c0.1,2-1,5.4-2.8,8.4c-3.4,5.5-6.6,9.4-15.8,18.7c-5.5,5.6-10.2,10.7-15.4,16.8c-5.5,6.5-5,6.2-5.7,9.4c-0.3,5-1,10-2,14.9
	c-3,16.5-3.2,25.4-1,42c1.2-3.3,19.4-42.5,31-35.2c2.4,1.8,2.9,10.6-0.9,18c-3.4,6.8-15,22.3-24.6,28.3c-5.9,6-5.6,24.1-5.3,29
	c6.8,0,7.3,7.3,3.9,12.9l1.9-1.4c3.1-2.2,6.1-3,8.5-2.1c3.3,1.2,5,5,4.7,10.6c-0.2,2.7-0.9,5.6-1.7,6.8c-1.5,2.3-3.9,3-6.7,2.2
	c-0.9-0.3-1.9-0.6-2.2-0.8c-0.6-0.3-0.6-0.3,0.2,1c1.8,3.1,2.1,5.7,0.8,7.6c-0.8,1.2-3.8,3.1-5.5,3.6c-0.9,5.7,2.1,17.1,6.2,22.7
	c-1.5-7.2-1.8-11.8-1-16.7c0.7-4.3,2.3-8.3,4-10.1c1-1,3-2.2,4.3-2.4c1.5-0.3,3.8,0.4,5.1,1.5c2.4,2.1,2.7,9.6,2.4,17.4
	c7.2-12,10-26.3,10.3-27.6c-3.3-0.7-4.6-3.6-5.2-5c-0.9-2.3,0-6.1,4.1-8.7c-7.2,0.2-9.1-0.9-10.2-3.6c-0.5-1.4-0.6-4.7-0.2-7.5
	c0.9-5.9,3.6-9.5,7.3-10c2.8-0.3,5.7,1.1,8.4,4.2l1.7,1.9c-1.6-5.7,1.9-12.1,7.3-12.6c1.9-0.3,5.1,0.1,6.6,0.8
	c3.9,1.8,7.2,7.4,3.5,13c3.7-0.6,5.9-0.2,7.2,1.3V14.9h-119.2V190h-81V185.4z M1147.3,158.5c-8.4,3.9-14.8,8.8-24.1,18.6
	c-6.1,6.4-17.3,19.1-20.5,23.2c-0.4,0.5-0.6,0.9-0.5,0.9c0.4,0,9.9-3.6,13.6-5.2c7.9-3.5,23.5-12.9,31.5-18.1L1147.3,158.5z"/>
<path class="st1" d="M2.1,1.4C0.9,1.4,0,2.6,0,3.8V481c0,1.3,1.1,2.3,2.3,2.3h306.9c1.3-0.1,2.3-1.1,2.2-2.4v-121
	c0-1.3-1.1-2.3-2.3-2.3H142.6V299h129.1c1.3-0.1,2.2-1.1,2.2-2.4V178.8c-0.1-1.2-1-2.2-2.2-2.3l-0.2,0h-129V124h166.7
	c1.3-0.1,2.2-1.1,2.2-2.4V3.7c0-1.3-1.1-2.3-2.3-2.3L2.1,1.4z M288.8,462.4c4.9-3.2,8-7.1,8.8-11.4c0.1-0.8,0.2-1.6,0.2-1.7
	c-0.2-0.9-3.3,1.4-5.9,4.5c-1.5,1.8-6.6,10-6.5,10.4C285.5,464.4,286.1,464,288.8,462.4z M275.5,458.7c-1.7-5.5-7.4-13.3-8.7-13
	c-1,0.3,0.2,5.1,2.1,9.1c1.1,2.2,3.2,5.6,5.1,8.1c0.4,0.6,1.2,1.8,2,1.9C277.2,464.4,276.1,460.5,275.5,458.7z M285.5,451
	c1.4-5.1,0.9-10.2,0.6-10.3c-0.3-0.2-3.5,5.4-4.4,9.6c-0.5,2.2-1.4,6.5-0.3,7.9C283,456.8,284.4,454.8,285.5,451z M267.9,426.9
	c-1.5-3.3-3.1-5.7-4.8-7.4c-2.6-2.7-6.5-4.6-8.5-4.2c-0.4,0.1-0.8,0.9-0.6,1.7c0.8,3,4.4,6.3,11.6,10.7c1.8,1.1,3.3,2,3.3,1.9
	C269,429.5,268.5,428.3,267.9,426.9z M278.5,422.4c1.1-2.6,1.9-5.4,2.5-8.3c0.5-2.3,0.8-5.7,0.6-5.8c-0.2-0.1-1.8,3.2-2.6,5.6
	c-1.1,3.2-1.6,5.8-1.9,9.3C276.9,426.3,276.8,426.4,278.5,422.4z M270.7,409.5c-1.2-4.4-2-4.6-2.2-0.6c-0.1,1.4,0.1,2.6,0.7,5.3
	c0.4,1.6,1.1,4.7,1.7,5.3C271.9,418.4,271.7,413.3,270.7,409.5z M256.9,392.4c0.3-1,0.5-2.6,0.6-3.5c0.1-2.1-0.6-6.6-1.2-7.9
	c-0.2-0.7-0.5-0.9-0.6-0.2c-0.5,2-0.4,8.7,0.1,12.8C256,395,256.1,394.9,256.9,392.4z M249.4,395.1c-3.2-4.2-6.3-6.8-9.1-7.9
	c-3.1-1.1-3.8,0.3-1.5,3c1.4,1.7,3.6,3.2,6.2,4.2c1.5,0.6,4.7,1.5,5,1.5C250,395.9,249.8,395.5,249.4,395.1z M117.3,344.8
	c-0.4-8.5,0.3-13.9,3.5-28.7c1.2-5.4,2.2-10.5,2.4-11.3c0.3-1.8,0.2-2,1.2,4.7c2,13.6,2.1,16.7,0.4,23.6c-1.2,5-2.4,8.3-5.8,15.1
	c-1.1,2.3-1.1,2.3-1.3,1.1C117.5,348.6,117.4,346.6,117.3,344.8z M101.3,335.5c-3-3.5-5-6.7-10-15.7c-5.1-9.3-7.8-13.6-10.4-16.7
	c-2.5-2.9-2.5-2.9,0.1-1.2c9.3,5.9,15.5,13,21.7,24.6c1,1.8,5,14.9,4.8,15.6C107.4,342.3,104.4,339,101.3,335.5z M84.4,270.7
	c-0.9-0.6-3.4-3-5.7-5.3c-4.8-4.9-9-9-13.4-13.1c-1.7-1.6-3.1-3-3-3.1c0.1,0,1.9,0.9,4,2.2c6,3.5,11.5,8.5,16,14.7
	c1.3,1.8,2.8,3.8,3.3,4.5C86.7,272.2,86.5,272.2,84.4,270.7z M120,258.6c0.1-1.6,0.7-6.2,1.4-10.2c1.1-6.9,2.2-15.4,2.1-17
	c-0.1-1.9,0.6,1.8,1.2,5.9c1.1,8.5,0,16.2-3.6,25L120,265l-0.1-1.7C119.9,262.3,119.9,260.2,120,258.6z M67.2,227.6
	c-2.9-2.8-4.8-5.5-5.5-8c-0.5-1.6-0.4-1.6,3.3,2.7c3.5,3.9,6.6,8.4,5.7,8.2C70.4,230.4,68.8,229.1,67.2,227.6z M76.3,227.4
	c-0.8-2.8-1.8-8.9-1.6-9.7c0.1-0.3,0.6-0.5,1.1-0.6c0.6-0.1,5.7-1.4,5.8-1.3c0.3,0.4-0.2,4.3-0.8,6.4c-0.8,2.8-3.1,7.9-3.5,7.8
	C77.2,230.1,76.8,228.9,76.3,227.4z M149,245.8c0-0.1,2.9-1.5,6.4-3.2c3.5-1.7,6.9-3.3,7.6-3.7l1.3-0.6l0.2,1.3
	c0.1,0.7,0.5,1.9,0.7,2.7l0.5,1.3l-1.5,0.7c-3.5,1.6-8.9,2.2-15,1.7C149.1,246,149,245.9,149,245.8z M143.1,230.2
	c0.2-3.3,0.7-6.8,0.9-7.8c0.4-1.6,0.7-1.9,2.6-3c1.2-0.7,4-2.8,6.3-4.7c5.2-4.3,6-4.8,6.3-3.9c0.3,0.9-0.8,4.7-2.4,7.7
	c-0.7,1.5-2.8,4.6-4.5,6.9c-1.7,2.4-4.3,6-5.7,8.1c-1.4,2.1-3,4.2-3.4,4.7l-0.8,1l0.1-1.5C142.6,236.9,142.9,233.5,143.1,230.2z
	 M154.6,232.5c5.6-7.4,8.7-11,10.8-12.7c1-0.8,1.8-1.4,1.8-1.4s0.8,0.4,1.7,0.9c1.3,0.7,1.6,1.1,1.5,1.9c-0.2,1.5-2.8,5.2-5,7.2
	c-1.9,1.7-14.6,10.1-14.9,9.7C150.4,238,152.3,235.5,154.6,232.5z M66.6,212.2c-0.2-2.1-0.2-4.2-0.1-4.7c0.2-0.7,0.4-0.8,1.6-0.5
	c1.7,0.4,2.5,1.1,3.9,3.1c0.8,1.2,1,1.8-0.7,2.5c-1.7,0.9-1.7,0.9-2.2,3.3l-0.4,2.4l-1-1.1C67.1,216.3,66.8,215.1,66.6,212.2z
	 M96.7,202.3c-1.7-2.7-2.4-4.7-3.4-10.6c-1.5-8.7-2-10.4-7.4-22.9c-1.4-3.2-3-7.7-3.7-10c-0.7-2.3-1.7-5.6-2.3-7.2l-1.1-2.9l2.8,2.9
	c4.7,4.8,8.1,10.1,10.1,15.7c1.4,3.8,4.8,18.2,5.7,23.7c0.5,3.1,1.4,12.3,1.3,13.1C98.6,204.6,97.7,203.9,96.7,202.3z M105.2,201.5
	c0.2-0.8,0.8-3.3,1.5-5.6c1.1-3.9,2.6-10.5,4.7-22c0.6-3.3,1.2-8.2,1.5-12.7c0.5-7.5,1.2-11.7,3.2-18.4c0.6-1.9,1.2-3.6,1.3-3.7
	c0.2-0.2,0.5,1.7,0.7,4.2c1.1,14,0.2,23.7-3.8,38.5c-2,7.5-2.9,9.9-5.2,14.4c-1.5,3-3.9,6.9-4.2,6.9
	C105,203.1,105.1,202.4,105.2,201.5z M93.6,130.3c-2-2.6-2.7-5-2.4-7.9c0.2-2.3,1.4-7.8,2.3-10.6l0.4-1.2l0.4,1.1
	c0.7,1.8,1.4,6.9,1.7,12.5c0.2,2.9,0.4,6.1,0.6,7.2l0.3,2l-1-0.7C95.3,132.3,94.3,131.2,93.6,130.3z M102,126.8
	c-0.1-2.4,0-3.5,0.6-5.3c1-3.1,6.5-15.7,6.9-15.6c0.4,0,0.9,1.9,1,3.9c0,1.2-0.4,3.2-1.2,6c-1.5,4.9-6.5,15.5-6.8,14.6
	C102.3,130,102.1,128.4,102,126.8z M80.2,465.6c-0.1-3.6-0.1-3.7,1.1-7.9c2.1-7.5,4.2-11.7,10.8-22.2c1.9-3,3.9-6.2,4.4-7.1
	c0.7-1,0.7,0.2,0.6,1.1c-0.9,6.7-4.1,15.2-11.2,29.8C83.1,465.1,80.1,471.2,80.2,465.6z M66.6,448.9c-3.6-4.2-6.1-7.5-7.6-9.9
	c-2.4-3.9-6.2-11.9-7.7-16.6l-1-3l3.2,3c3.5,3.3,8.7,9.6,11.4,13.8c3,4.7,4.5,8,5.9,12.8c1.2,4.1,1.7,6.5,1.5,6.4
	C72.1,455.3,69.6,452.4,66.6,448.9z M90.5,410.4c0.1-0.2,0.9-1.4,1.7-2.6c2-3,6-10.6,6.9-12.9c0.8-2.2,1-4.3,0.7-6.7
	c-0.3-2.2-0.2-2.8,1-3.2c1.1-0.4,1.4-0.1,2.5,3c0.6,1.6,1.4,3.1,2.3,4.3c1.4,1.8,1.4,1.9,1.1,2.9c-0.4,1.5-3.2,5.3-5.4,7.4
	c-1.6,1.5-9.8,7.8-10.7,8.2C90.4,410.7,90.4,410.6,90.5,410.4z M84.8,406.7c-1.8-6.3-1.2-9.5,3.3-18c1.8-3.4,3.4-6.2,3.5-6.3
	c0.3-0.3,2.5,2.8,3.1,4.3c0.8,2,0.8,4.6,0,6.6c-1.1,2.9-8.2,15.6-8.9,16C85.6,409.3,85.2,408.1,84.8,406.7z M75.9,402.5
	c-1.5-2.5-2.3-4.9-2.2-7.1c0.1-1.8,1.2-4.4,2.3-5.3c0.9-0.7,2.7,0.2,2.9,3.6c0.2,1.2,0.4,2.6,0.4,3.2c0.1,3,0.5,9,1.2,12
	C79.2,407.5,76.9,404.5,75.9,402.5z M56.6,393.5c-3.1-4.9-5.2-9.2-7.7-15.8c-2.4-6.5-3.8-11.2-3.2-10.8c0.2,0.1,1.3,1.3,2.4,2.6
	c2.5,3,4.6,4.6,6.3,4.9c0.7,0.1,2.2,0,3.5-0.3c1.7-0.5,2.7,0.4,2.8,1.2c1.1,3.1,0.4,12.2-1.5,18.6c-0.4,1.3-0.8,2.2-1,2.1
	C58.1,395.8,57.4,394.7,56.6,393.5z M46.7,397.2c-5.5-1.1-10.8-3.2-11.8-4.6c-1.1-1.6,0.9-3.3,3.6-3.1c2.9,0.3,9.1,3.8,13.2,7.6
	C53.2,398.5,53.2,398.5,46.7,397.2z M41.6,384.8c-0.9-0.8-4-4.7-4.3-5.5c-0.1-0.4-0.2-1.6-0.1-2.7c0.1-1.6,0-2.6-0.8-4.8
	c-1.1-3.3-1.1-3.3,2.4-0.6c1.3,1,2.6,2,2.9,2.2c0.4,0.2,1.4,2.6,3.4,7.7l2.9,7.4C46.4,387.8,43.2,386.8,41.6,384.8z M15.5,471.3
	c3.4-17.8,5-37.6,2.8-55.7c-0.7-5.2-1.4-27.6-6.6-34.6v90.4H15.5z M170.5,462.2c-1.1-3.4-2.5-10.8-2.7-13.8c-0.3-4,0-6.9,0.9-9.9
	c0.8-2.9,1.6-4.3,2.6-4.8c0.6-0.3,0.7-0.3,1.1,0.3c0.5,0.9,1,3.5,1.1,6.3c0.1,3.1-0.5,13.2-1.2,19.1c-0.3,2.6-0.6,5-0.6,5.3
	C171.6,465.5,171.3,464.8,170.5,462.2z M182.5,464.2c4.8-6.7,9.5-12.2,13.4-15.6c2.7-2.4,6.1-4.8,6.1-4.4c0,0.8-2.5,8.2-7.5,13.6
	c-3,3.2-13.9,9.9-13.9,9.5C180.5,467.1,181.4,465.8,182.5,464.2z M189.3,413c-0.8-0.7-0.8-0.8-0.4-1.4c0.2-0.3,1.6-1.8,3-3.1
	c2.5-2.5,2.6-2.5,3.5-2.2c2.2,0.6,2.2,0.5,2,4.7c-0.2,4.1-0.4,4.3-2.5,4.1C194,415,189.8,413.4,189.3,413z M207.8,406.3
	c-1.4-1.1-3.5-3.5-3.5-4c0.1-0.9,8.5-5.2,9.9-5.1c0.8,0.1,1.1,3.7,0.6,6.7c-0.5,3.1-0.7,3.6-1.6,3.8
	C212.1,408,209.7,407.8,207.8,406.3z M182.5,399.5c-0.1-0.4,0.1-2.1,0.3-3.9c0.3-2.6,0.6-3.4,1.2-4.4c0.9-1.4,1.4-1.5,3.1-0.4
	c1.1,0.7,5.2,5.6,5.1,6.1c-0.1,0.6-1,1-4.2,2.1C183.6,400.5,182.6,400.6,182.5,399.5z M201.5,394.6c-1.3-0.8-1.3-1.4-0.9-6.1
	c0.4-4.1,0.7-4.7,2.4-5c1.8-0.3,3.4,0.2,4.1,1.1c0.5,0.7,0.5,1,0.3,2.7c-0.2,1.1-0.6,2.5-1,3.2c-0.7,1.3-3.4,4.8-3.7,4.7
	C202.5,395.3,202,395,201.5,394.6z M156.9,467.4c-3.8-6.7-7.6-12.3-10.9-15.9c-2.3-2.5-5.2-5.1-5.3-4.7c-0.1,0.8,4.3,7.6,8.4,13.1
	c2.5,3.3,6.9,9.6,9.3,10.5C158.4,470.3,157.7,468.9,156.9,467.4z M157.6,428.6c0.8-0.5,0.9-0.6,0.7-1.2c-0.1-0.4-1.1-1.9-2.1-3.5
	c-1.8-2.8-1.8-2.8-2.7-2.8c-2.1,0.1-2.1,0-2.7,3.9c-0.6,3.8-0.5,4,1.4,4.3C155.1,429.6,157.1,428.9,157.6,428.6z M146.1,415.8
	c0.1-0.8-6.7-6.5-8-6.7c-0.7-0.1-1.7,3.2-1.9,6c-0.2,3-0.1,3.4,0.7,3.8C142.8,421.3,146.1,416.2,146.1,415.8z M166.6,417.6
	c0.1-0.3,1.2-4.5,0.3-7.9c-0.5-1.5-1-1.7-2.7-1c-1.1,0.4-5.9,4-5.9,4.5c-0.1,0.5,0.7,1.1,3.4,2.8
	C165.4,418.3,166.2,418.6,166.6,417.6z M150.3,409.3c1.3-0.5,1.5-1,2.1-5.4c0.5-3.8,0.3-4.4-1.1-5c-6.6-1.8-4.7,5-4.5,5.8
	C147.1,405.9,148.4,409.7,150.3,409.3z M299.8,459.1c-3.6,7.6-13.5,11.7-15.1,12.2h15.1V459.1z M130.9,332.1
	c-1.8,6.2-3.8,12.2-6.6,17.8c-1.7,3.5-3.6,7.3-4.2,8.5l-1,2.1l1.5,8.2c2.5,13.8,2.7,17.1,2.8,36.6c0,11.8,1.2,51.6,0.9,65.9h26.9
	c-4-5-4.5-5.6-8.2-10.9c-6.7-9.4-9.7-15.9-8.8-19c0.6-1.9,2.5-3,4.4-2.5c2.1,0.6,8.5,5.9,12.1,10c2.2,2.5,3.1,3.7,5.6,7.4
	c-2.5-4.9-5.9-17.2-4.7-21.2c-2.7-0.7-5.5-2.7-6.2-5.1c-0.3-1.1-0.4-1.8-0.1-4.2c0.2-1.6,0.3-2.9,0.3-2.9c0,0-0.5,0.2-1.1,0.5
	c-2.7,1.3-7.2,1.5-9.6,0.4c-1.7-0.8-3.3-2.7-3.7-4.4c-0.4-1.6,0.1-7.3,0.8-9.7c0.6-2,2-4.3,3-5c1.5-1.1,3.7-1.2,6.3-0.1
	c-2.3-5.7,1.9-10.3,5.8-11.2c1.5-0.3,4.6-0.1,6.2,0.6c2.3,0.9,3.9,2.7,4.4,5.2c0.5,2.2,0.2,6.1-0.3,7.8c1.6-1.6,5.1-4.5,10.4-3.5
	c3.3,1.2,5,5,4.7,10.6c-0.2,2.7-0.9,5.6-1.7,6.8c-1.5,2.3-3.9,3-6.7,2.2c-0.9-0.3-1.9-0.6-2.2-0.8c-0.6-0.3-0.6-0.3,0.2,1
	c1.8,3.1,2.1,5.7,0.8,7.6c-0.8,1.2-3.8,3.1-5.5,3.6c-0.9,5.7,2.1,17.1,6.2,22.7c-1.5-7.2-1.8-11.8-1-16.7c0.7-4.3,2.3-8.3,4-10.1
	c1-1,4.8-5,9.4-0.9c2.4,2.1,2.7,9.6,2.4,17.4c7.2-12,10-26.3,10.3-27.6c-3.3-0.7-4.6-3.6-5.2-5c-0.9-2.3-0.2-5.6,3.7-8.7
	c-7,0.8-8.7-0.8-9.7-3.5c-0.5-1.4-0.6-4.7-0.2-7.5c0.9-5.9,3.6-9.5,7.3-10c2.8-0.3,5.7,1.1,8.4,4.2l1.7,1.9
	c-0.3-3.7,0-10.8,7.3-12.6c1.9-0.3,5.1,0.1,6.6,0.8c3.9,1.8,5.5,6.5,4,11.2c-0.3,0.9-0.5,1.8-0.5,1.8c4.2-0.5,5.2,0.1,6.5,1.6
	c0.9,1,1.8,3.7,1.9,5.9c0.2,2.7-0.6,8.7-1.4,10.3c-0.8,1.6-2.9,3.3-4.9,3.7c-2.8,0.6-7.4-0.6-9.9-2.6c-0.5-0.4-1-0.8-1-0.8
	c0,0-0.2,1.4-0.4,3c-0.3,2.5-0.4,3.3-1.1,4.4c-1.3,2.3-3.2,3.6-6.1,3.8c-1.2,6.7-7.4,23.3-14.5,35.6c3.1-3.7,7.5-9,10.1-11.4
	c4.2-3.9,11.7-8.9,14-9.3c2.1-0.3,4,1,4.4,3.1c0.6,3.4-1.1,12.7-9.3,22c-4.6,5.2-8.3,6.9-14.9,10.2H271c-2.6-3.3-8.1-17.3-8.8-19.4
	c-1.6-5.2-1.5-7.2,0.4-9.8c1-1.4,3.3-2.2,5-1.8c1.7,0.4,3.3,1.5,4.8,3.3l1.3,1.6l-1.7-7.5l-6-3.5c-8.7-5.1-12.8-8.3-15.4-12
	c-2.4-3.5-3-6.5-1.8-9c1.5-2.9,5.3-4.1,9.7-2.8c-0.4-3.3-1.9-6.2-3.9-8.1l-3.1-0.5c-5.6-0.9-10.8-2.8-13.9-5.1
	c-3-2.2-5.5-5.9-5.7-8.3c-0.4-4.9,4.2-8.1,9.2-6.5c2.1,0.7,5.3,2.6,7.1,4.2c0.8,0.7,1.5,1.3,1.5,1.2c0,0,0.1-1.5,0.2-3.3
	c0.2-5.4,1.1-8.4,3.1-9.8c2.3-1.6,5.1-0.9,6.8,1.8c0.7,1.1,1.1,2.2,1.9,5.4c0.9,3.5,1,4.4,1,6.7c0,3.8-0.7,6.4-2.5,10.2l-0.9,1.8
	c1.2,1.1,2.9,4.2,3.5,5.9c1.6-7.2,6.6-6.6,9.5-4.2c1.2,1,3.1,2.3,3.2,5.4c0.9-3,3.9-4.5,5.5-5c1.4-0.4,6.6,0.3,5.6,8.9
	c-0.5,4.8-1.6,9-3.5,13.7c-1.1,2.8-4.4,8.7-5.5,10l-0.8,0.9l2.1,8.4c0,0,0.5-1.2,1-2.7c1.7-5.2,4.6-9,7.1-9.3c3-0.4,4.8,2.1,4.6,6.5
	c0,1-1.4,8.5-1.4,8.7c3.2-5.3,7-4.1,9.4-3v-74.5H130.9V332.1z M130.9,312.5V287h131.3v-98.4H130.9v-76.6h168.9V13.5H11.7v346.3
	c0.9,5.9,1.3,11.1,5.8,16.1c0.1-2.3,0.7-14.1,0.7-18.9c-0.5-45.5,8.6-63.5,10.8-69.3c-1.4-0.8-2.6-2-3.5-3.4
	c-3.4-6.3-4.1-13.9-1.8-20.6c-0.5-0.5-2.4-4.8,2.5-5.6c2.6-0.4,5.1,1.6,5.5,4.5c-0.1,1.7-1.4,2.9-2.9,2.9c-1,2.9-1.3,6.1-0.8,9.3
	c0.9-3.1,2.3-4.5,3.1-7.6c-0.8-1.1,1.3-4,4.3-2.9c1.4,0.4,2.3,2,2,3.6c0.1,1.8-1.2,3.4-2.8,3.5c-0.7,2.2-1.3,4.6-1.7,6.9
	c3.1-2.6,5.8-5.9,7.7-9.7c-1.3-1.3-2.8-4.1,1.5-5.8c2.3-0.7,4.8,0.6,5.9,3.1c0.6,1.6-0.4,3-1.6,3.5c-2.5,4.9-5.8,9.3-9.8,12.8
	c4.3-1.6,8.1-4.4,11-8.2c-0.2-1,0.8-6.5,6.6-3.2c1.7,0.9,2.6,3.1,1.9,5c-0.8,1.7-2.7,2.5-4.4,1.8c-0.2,0.2-0.3,0.4-0.5,0.5
	c-4.2,5.4-10.2,9-16.7,10.1c-1.6,2.2-11.5,33-10.7,65.7c6.4-8.7,14.2-16,22.9-21.7c0-0.7,0.1-1.4,0-2.1c0.5-6.7,3.2-13,7.7-17.6
	c-1-0.9-1.4-2.3-1.1-3.6c0.7-1.9,2.3-3.2,4.2-3.2c3.5-0.5,6.7,2.3,7.1,6.2c0,1.7-3.3,3.7-5.1,3.1l-1.6,1.9c-2.3,2.5-4,5.6-5,9
	c2.3-2.1,4.6-4,7.1-5.7c0-2.6,2.1-5.1,6.5-2.4c1.6,1.5,1.9,4.1,0.8,6.1c-1,1.8-3.1,2.3-4.8,1.4c-2.4,1.5-4.7,3.3-6.7,5.3
	c3.6,0.9,7.4,0.3,10.7-1.5c0-0.6,0.2-1.2,0.3-1.7c1-1.9,3.1-2.7,5-1.8c2.4,1.3,3.5,4.5,2.4,7.2c-1.1,1.8-3.3,2.3-4.9,1.1
	c-3.8,2.2-8,3-12.2,2.3c3.6,1.5,7.5,2.1,11.3,1.7c0.6-1.3,1.8-2.1,3.2-2c2.6,0.2,4.6,2.7,4.4,5.6c0.2,2.8-1.5,5.3-4,5.7
	c-2,0.1-3.7-1.6-3.8-3.8c-6.7,0.8-13.5-1.4-18.8-6.1c-5.8,3.6-11.2,8.1-15.9,13.3c-3.6,4.2-6.5,11.5-8.1,18c-1.1,7.6-1,9.3-1.8,16.1
	c-1.2,8.9,1.1,23.7,2.2,32.6c2,14.2,2.3,46.5,0.2,53.9h43.7c-0.1-0.3,0.9-7.9-2.6-12c-11.9-13.8-13.2-18.7-19.4-33.7
	c-1.9-4.7-4-9.3-4.5-10.2c-1.4-2.5,1.8-5.9,7-2c7.3,5.4,11.8,10.2,17.9,19.1c1.1,1.6,2.1,3.2,2.2,3.5c0.5,1.3,0.8,0.4,0.4-1.3
	c-2-8.5-4.6-15.6-8.6-23.8c-3.4-6.9-3.6-7.3-4.2-7.1c-0.5,0.2-13.5-2.2-16.8-3.1c-5.1-1.4-9.6-4.4-10.6-7c-0.6-1.6-0.3-3.9,0.8-5.5
	c0.8-1.3,1.5-1.8,3.3-2.8c0.3-0.2,0.6-0.4,0.7-0.5c0-0.1-0.5-1.1-1.3-2.3c-1.5-2.3-1.9-4-1.4-5.9c0.3-1,0.2-1.6-1-4.7
	c-0.7-1.9-1.4-4.1-1.5-4.9c-0.4-2.9,1.1-4.9,3.4-4.5c1,0.1,4.1,1.8,6.6,3.6c0.6,0.4,0.6,0.2,0.8-1.9c0.2-1.9,0.4-2.6,1.1-3.3
	c2.1-2.1,3.9-1.3,7.8,3.3c4.9,5.8,5.3,6.1,8.1,5.1c4.1-1.5,7.5,1.5,8,7.1c0.5,5.9-0.3,12.4-2.8,21.7l-0.8,2.9l3.5,7.2
	c3,6.1,3.8,8.2,5.9,14.2c1.3,3.9,2.7,8.6,3.2,10.6c0.4,2,0.8,3.7,0.9,3.9c0.1,0.2,0.6-1.5,1.1-3.8c0.9-3.5,3.1-11.1,4.1-14
	c0.3-0.9,0.2-1-1-2.9c-0.7-1.1-2.3-3.3-3.6-4.8c-5.9-7.5-7.8-12.1-7.2-17.4c0.4-3.4,3.3-7.7,5.9-8.7c2.5-0.9,5.3,0,7,2.3l0.8,1
	l2.6-4.8c3.2-5.9,4.1-7,6-7.1c2.6-0.3,5.1,2.5,5.7,4.6l2.2-0.8c4-1.5,5.6-0.6,7.7,4.3c0.8,1.9,1.8,3.7,2.6,4.7
	c2.7,3.3,2.7,5.9,0.3,9.9c-1.4,2.4-4.9,6.3-7.2,8.2c-3.1,2.5-10.5,7.8-13.2,9.3c-1.5,0.9-2.9,1.8-3.1,2.1c-0.6,0.8-2,5-3.7,11
	c-1.6,6-2.5,10.3-3.3,16.1l-0.5,3.7l2-4.1c1.1-2.3,3.2-6.1,4.8-8.5c1.5-2.4,4.2-6.8,6.1-9.8c4.1-6.8,8.7-8.9,9.5-7.7
	c1.6,2.3,1.3,10.8-1,18.4c-1.9,6.4-5.7,17.9-13.2,33.1h28.3c3.7-15.3,2.7-54.2,2.7-67.4c-0.1-18.9-0.5-22.8-3.3-37.4
	c-2.2-11-2.8-12.8-5.1-14.7c-3.8-3.2-12.8-12.9-15.8-17.1c-0.9-1.2-3.1-5.1-5-8.6c-5.6-10.5-7.7-13.9-10.3-17.3
	c-3-3.9-7.5-8.7-11.3-12c-3.7-3.3-4.5-4.5-4.1-6c0.5-1.8,1.9-2.4,4.1-1.8c2.4,0.6,12.1,5.4,16.6,8.2c4.6,2.9,9.3,6.7,12.6,10.1
	c1.4,1.5,2.6,2.6,2.7,2.5c0-0.1-0.4-1.8-0.9-3.9c-0.5-2.1-1.4-6-1.8-8.8c-1.3-7.9-4.3-17.3-5.3-17c-0.6,0.2-4.9-1.9-8.1-4
	c-1.7-1.1-4.2-3.1-5.7-4.7c-3.3-3.5-8.3-8.3-15.2-15c-6.3-6-10.6-10.9-11.3-12.6c-1.1-3,1.1-4.8,4.6-4c3.8,0.9,16.1,7.8,20.8,11.6
	l3.4,2.8l-0.9-2.4c-0.5-1.3-1.6-4.5-2.4-7.1c-1.7-5.3-2.3-6.1-6.9-9c-5.6-3.5-9.4-7.3-11.4-11.3c-1.8-3.6-3.3-10.9-2.7-13
	c0.9-4,3.9-3,5.5-1.8c-0.9-2.3-0.5-6.4,2.6-7.6c1.8-0.8,4.4-0.8,7.4,0.1c3.2,1,5,2.5,7,6.1l1.5,2.6l1.8-0.3c3.8-0.7,6,0.9,6.6,4.8
	c0.4,3.2-1.1,9.6-3.3,14.4c-3.3,6.8-3.6,10.3-1.7,15.9c2,5.9,4.7,12.3,7.8,18.6c1.5,3.1,3.7,7.6,4.8,10c1.1,2.4,2,4.2,2.1,4
	c0-0.1,0-2.1-0.1-4.4c-0.2-6.2,0.4-29.8,1.1-41.2c0.3-5.5,1.1-14.2,1.7-19.2c-0.1-0.4-1-1.9-2.2-2.7c-3.1-2.1-6.4-6.3-7.6-9.7
	c-0.5-1.5-1.4-5.3-1.9-8.4c-1.2-6.8-2.2-10.2-5.8-18.5c-3.3-7.7-4-9.7-5.9-15.9c-0.8-2.7-1.7-5.3-1.9-5.8c-0.2-0.5-1-2.7-1.7-5
	c-0.7-2.3-1.8-5.4-2.5-6.9c-1.6-3.5-1.8-4.6-0.8-5.8c2-2.5,4.8-1.1,10.1,5.3c1.9,2.2,4.9,5.6,6.7,7.6c4.8,5,8.2,10.2,10.7,16.2
	l1.1,2.6l-0.1-1.7c-0.2-5.3-0.1-12.3,0.2-17.6l0.4-6l-3.7-2.5c-4.3-2.9-7.2-6.3-8.4-10.1c-1.1-3.2-0.8-8.1,0.9-15.3
	c2.4-10.1,3.2-12,5.7-12.3c2.5-0.3,4.7,2.3,6.5,7.8l0.9,2.6l1.9-4.3c3.3-7.2,3.4-7.6,4.6-8.6c2.3-2,5.1-0.7,7.2,3.1
	c3.7,6.7,2.3,14.3-5.4,29.2c-4.7,9.2-4.7,9.1-5.1,16.2c-0.5,7.5-0.5,10.9,0,22.9c0.2,5.1,0.4,9.4,0.4,9.6c0,0.2,0.1,0.4,0.3,0.4
	c0.6,0.1,2.7-13.1,3.2-20.6c0.6-8.8,1.9-15,4.9-23.3c1.1-3,2.2-6.5,2.6-7.8c1-3.4,3.4-4.7,5.4-2.9c1.7,1.5,3.8,16.8,3.7,28
	c0,10.7-1.1,17.4-4.7,30.7c-2.3,8.5-4.6,14-8.1,19.4c-1.4,2.9-4.4,8.1-6.1,9.4c-1.3,10.6-2.2,23.2-2.6,41.1
	c-0.4,14.6-0.4,18.9,0.1,27.7c0.2,4.6,1.9,22.5,2.1,23c0,0.1,1-3.2,2.1-7.3c2.1-7.7,3.8-11.9,7.5-18.9l1.7-3.2l-0.7-2.3
	c-0.9-2.8-1.4-9.4-1.1-14.4c0.1-2.1,0.8-7.2,1.5-11.3c0.7-4.2,1.4-9.1,1.6-10.9c0.3-3,1-17.8,1-19.6c0-1.1,2.2-2.1,3.8-1.7
	c1.6,0.4,2.7,2.2,4.7,7.5c3.7,9.8,4.7,21.8,2.7,31.2c-0.4,2.1-0.6,3.6-0.4,3.3c0.2-0.2,2.2-2.9,4.4-5.8l4-5.4l-0.4-2
	c-0.7-3.3,0.2-19.1,1.4-23.2c0.8-2.9,1.6-3.9,4.6-5.6c1.1-0.7,4.2-3,6.9-5.1c5.6-4.5,7.7-5.5,10.4-4.9c2.9,0.6,4.7,3.5,4.4,6.8
	c-0.2,1.6-0.2,1.6,0.8,1.4c0.5-0.2,1.5-0.3,2-0.3c1.6,0,6.7,3,7.9,4.6c0.9,1.3,0.9,1.3,0,4.6c-1.1,3.8-2.8,6.6-5.9,9.4l-1.9,1.7
	l0.8,0.8c0.4,0.4,1.1,2,1.4,3.5c0.3,1.5,0.8,3.4,1,4.3c0.2,0.9,0.3,2.1,0.1,2.6c-0.7,2.5-4.4,4.8-9.5,5.9c-3.7,0.8-7.5,0.9-13.9,0.4
	c-2.9-0.2-5.6-0.3-6.1-0.3c-0.7,0.1-1.6,1.1-3.9,4.3c-1.7,2.3-5,6.9-7.4,10.1c-7.8,10.4-10.7,15-13.9,22.2c-3,6.8-3.9,9.8-5.4,16.7
	c-3.2,15.4-3.3,18.2-0.7,25.4c1.4,4,1.5,4,2.4-1.7c0.9-5.6,4.3-21.5,6.5-30.1c1.1-6.3,4.6-10.2,6.8-8.7c0.9,0.8,1.5,3.8,3,14.1
	C129.5,306.6,130.6,310.5,130.9,312.5z"/>
<path class="st1" d="M340,0c-1.2,0.1-2.1,1.2-2.1,2.4v477.2c0,1.3,1.1,2.3,2.3,2.3h138c1.3-0.1,2.3-1.1,2.2-2.4V310.3h123
	c1.3-0.1,2.3-1.1,2.2-2.4V190.1c0-1.3-1.1-2.3-2.3-2.3H480.4v-65.2h160.3c1.3-0.1,2.2-1.1,2.2-2.4V2.3c0-1.3-1.1-2.3-2.3-2.3H340.1
	L340,0z M378.4,465.1c-2.7-6.1-5.6-11.2-8.2-14.6c-1.9-2.4-4.2-4.9-4.3-4.6c-0.2,0.6,3.1,6.9,6.3,12c1.9,3,7.3,10.2,7.4,9.9
	C379.5,467.8,379,466.5,378.4,465.1z M381.5,432.3c0.7-0.5,0.7-0.6,0.4-1.1c-0.2-0.3-4.8-6.2-5.7-6c-2,0.4-1.8,1.8-1.8,5.1
	c0,3.2,0.1,3.4,2,3.4C377.3,433.7,381.1,432.6,381.5,432.3z M365.4,426.2c1.3-0.8,3.3-2.7,3.3-3c0-0.7-7.3-4.5-8.5-4.5
	c-0.7,0-1.1,2.9-0.8,5.3c0.3,2.5,0.5,2.9,1.3,3.1C361.5,427.4,365.1,426.5,365.4,426.2z M388.3,421.9c0.1-0.3,0-1.7-0.1-3.1
	c-0.2-2.1-0.3-2.7-0.8-3.5c-0.7-1.2-1.2-1.2-2.7-0.5c-1,0.5-4.9,4.2-4.9,4.6c0,0.4,0.8,0.9,3.6,1.9
	C387.2,422.7,388.1,422.8,388.3,421.9z M371.6,417.3c1.2-0.6,1.3-1.1,1.1-4.8c-0.2-3.2-0.4-3.7-1.9-4c-1.6-0.3-3.1,0-3.7,0.7
	C365.3,412.2,367.9,417.3,371.6,417.3z M402.4,399.7c0.9-9,2.4-14.6,8.2-29.8c2.1-5.5,4.1-10.7,4.3-11.6c0.6-1.8,0.5-2,0.6,5.1
	c0.2,14.5-0.2,17.8-3.1,24.9c-2,5.1-4,8.4-8.8,15.2c-1.6,2.2-1.6,2.2-1.6,1C402,403.7,402.2,401.5,402.4,399.7z M385.9,387.7
	c-2.8-4.1-4.6-7.7-8.7-17.8c-4.2-10.4-6.6-15.3-9.1-18.9c-2.4-3.4-2.4-3.4,0.3-1.3c9.4,7.5,15.3,15.7,20.5,28.7c0.8,2,3.3,16.3,3,17
	C391.8,395.7,388.8,391.9,385.9,387.7z M371.5,313.4c-0.9-0.8-9.1-10.7-13.3-15.5c-1.7-2-2.6-5.8-2.5-5.8c0.1,0,1.9,1.2,4.1,2.8
	c6.1,4.5,11.5,10.5,15.6,17.6c1.2,2.1,2.5,4.4,3,5.2C379.3,319.4,373.6,315.2,371.5,313.4z M418.4,309.4c0.4-1.7,1.8-6.4,3.1-10.5
	c2.3-7.1,4.8-15.9,4.9-17.6c0.2-2,0.4,1.9,0.4,6.3c0,9.1-2.4,17-7.8,25.8l-1.7,2.8C417.4,314.8,417.7,311.8,418.4,309.4z
	 M364.3,269.8c-2.8-3.3-4.5-6.4-4.9-9.1c-0.3-1.8,1.2-1.4,4.7,3.6c3.3,4.6,5.5,8.1,3.7,9.1C367.4,273.2,365.8,271.7,364.3,269.8z
	 M374.5,270.9c-0.5-3.1-0.7-9.6-0.3-10.4c0.1-0.3,7.8-3.1,8-1c0.2,0.5-0.9,4.5-1.8,6.6c-1.3,2.8-4.6,7.9-5.1,7.8
	C375.1,273.8,374.7,272.5,374.5,270.9z M452.6,299.7c0-0.1,3.4-1.2,7.6-2.5c4.1-1.3,8.2-2.6,9-2.9c3.7-0.7,3.1,5,0.6,5.8
	c-4.1,1.2-10.2,1.1-16.9-0.2C452.7,299.9,452.6,299.8,452.6,299.7z M448.4,282.6c0.8-3.5,1.8-7.1,2.2-8.1c0.7-1.6,1.1-1.9,3.4-2.8
	c1.4-0.6,4.9-2.4,7.7-4.1c6.4-3.8,7.4-4.2,7.6-3.3c0.2,1-1.6,4.8-3.8,7.8c-1,1.4-3.8,4.4-6,6.7L446.3,292L448.4,282.6z M460.8,286.4
	c7.4-7,11.3-10.4,13.9-11.9c1.2-0.7,3.1-0.7,4,0c1.4,0.9,1.6,1.3,1.3,2.2c-0.5,1.5-3.9,5.1-6.6,6.9c-2.3,1.5-17.8,8.7-18,8.3
	C455.4,291.7,457.8,289.3,460.8,286.4z M365.9,253.6c0.1-2.3,0.4-4.5,0.6-5c0.3-0.7,0.6-0.8,1.9-0.3c1.8,0.6,2.7,1.4,3.9,3.8
	c0.7,1.1,0,2.3-1.1,2.5c-2.1,0.7-2.1,0.7-2.9,3.2c-0.4,2.3-1.3,2.2-1.7,1.2C365.9,258,365.7,256.7,365.9,253.6z M404.9,238.5
	c-1.1-3-1.2-5-0.5-10.7c0.9-8.5,0.8-10.1-1.3-23.2c-0.5-3.3-1-7.9-1.1-10.3c-0.1-2.3-0.2-5.6-0.4-7.3l-0.3-3l2.2,3.4
	c3.6,5.8,5.8,11.6,6.3,17.4c0.4,3.9-0.1,18.1-0.8,23.4c-0.4,3-2.1,11.7-2.5,12.4C406.2,241.2,405.5,240.3,404.9,238.5z M415.8,235.2
	c2.4-3.2,7.5-8.5,13.3-18.5c1.7-2.9,3.7-7.2,5.3-11.2c2.7-6.7,4.8-10.4,8.9-16c1.1-1.6,2.3-2.9,2.5-3c0.2-0.1,0,1.7-0.5,4.1
	c-2.9,13.2-6.7,21.8-15.4,34.2c-4.4,6.3-6,8.2-9.8,11.8c-2.5,2.3-4.4,4.4-6.5,5.1C413.6,241.6,414.5,237,415.8,235.2z M422.6,171.5
	c-1.4-2.9-1.4-5.4-0.2-8c0.9-2.1,3.8-6.8,5.5-9.1l0.7-1l0.1,1.1c0.2,1.8-0.5,6.7-1.9,11.9c-0.5,2.1-1.5,6.4-1.6,8.7
	C424.5,174.4,423.2,172.6,422.6,171.5z M432.6,170.6c0.6-2.2,1-3.2,2.2-4.7c2-2.5,11.6-12.5,12-12.4c0.5,0.2,0.4,2-0.1,3.8
	c-0.3,1.1-1.3,2.9-3.1,5.2c-3.1,4.1-11.5,12.4-11.6,11.4C432,173.7,432.3,172.2,432.6,170.6z M425.9,465.9c-3.6-5-3.4-10.2-3.3-16.2
	c0.1-6.1-0.3-6.3,4.7,2.7c4.8,8.7,6.3,8.8,7.4,14.1C435.1,468.2,430.5,470.7,425.9,465.9z M450.9,424.8c-1.6-2.2-2.6-9.1-2-14
	c0.4-3.2,1.9-8.8,2-7.5c0,0.5,0.4,2.1,0.8,3.6c1.9,6.7,2.1,13.4,0.6,17.3C451.9,425.6,451.6,425.7,450.9,424.8z M428,422.4
	c0-1.1,1.4-4.4,3.2-6.9c2.1-3.1,5.3-6.5,9.2-10.1c1.8-1.6,3.6-3.2,3.9-3.6c0.7-0.6-2.3,4.5-4.9,8.5c-3,4.7-7.4,10-9.8,11.9
	C428.3,423.4,428.1,423.4,428,422.4z M467.5,418.4c-2.3-1.1-7.8-8.9-10.3-14.7c-0.3-0.9-0.6-1.5,0.8,0c4,3.4,5.1,4.5,6.6,6.4
	c2.3,2.9,3.1,4.3,3.7,6.1c0.4,1.4,0.5,2.6,0.1,2.6C468.3,418.7,467.9,418.6,467.5,418.4z M422.8,406c2.4-2.1,5.9-4.5,8.3-5.6
	c2.2-1,8-2.9,8.5-2.8c0.7,0.2-8.7,6.1-12.6,7.9c-1.4,0.6-5.3,2.1-5.7,2.1C420.9,407.6,421.9,406.8,422.8,406z M441.6,469.8
	c-0.3-0.9,4.5-13.8,7.2-19.3c1.3-2.6,4.5-8.2,4.8-8.3c0.4,0-1.2,21.1-5.3,27.6H441.6z M468.7,424.8c-1.9-0.6-5.4,1.1-9.6-7.1
	c0,3,0.4,9-4.3,12.5c-6.6,3.8-10.2-5.3-10.3-6c-0.6,1.5-0.7,1.6-1.5,5.4c-0.8,3.7-1.6,9.9-2,14.8c-0.2,2.7-0.3,10-0.2,10.2
	c0,0,0.9-1.8,2-4.2c1.1-2.3,2.9-5.9,4.2-7.9c2.5-4.1,6.9-9.9,8.1-10.6c1-0.5,2.6-0.1,3.5,0.8c0.6,0.7,0.6,0.9,0.7,6.2
	c0.1,8.6-1.7,25.1-3.3,30.9h12.9V424.8z M468.7,398.6c-2.4-0.5-5.6-0.5-8,0.1l1.7,1.3c1.6,1.3,3.6,3.8,6.3,5.1V398.6z M468.7,307.3
	c-4.3,0.3-16.6-0.2-24.7-2.5c-0.8,0-2.3,0.1-5.4,3.2c-2.2,2.2-6.6,6.6-9.8,9.6c-10.3,9.9-14.2,14.3-18.8,21.5
	c-4.3,6.7-5.8,9.8-8.5,16.9c-5.9,15.8-6.4,18.7-4.7,26.6c1,4.4,1.1,4.4,2.9-1.5c1.8-5.8,8-22.1,11.8-30.8c2.1-6.2,6.6-10.8,8.9-8.3
	c0.9,0.9,1.1,4.1,1.2,15.2c0,3.7,0.1,8.5,0.2,10.6c0.1,4.5-0.2,10.2-1,14.5c-0.4,2.5-1.2,4.5-3.8,10.2c-2.9,6.3-3.8,7.8-7.7,13.4
	c-2.4,3.4-5.1,7.2-5.9,8.4c-1.5,2.8-1.2,8.2-1.1,10.9c0.7,14.9,1.1,24.1-1.7,44.6l19.8,0c-6.9-8.3-3.7-21.3-2.5-29.7
	c3.9-11.1,14.5,7.8,17.4,13.8c0.1-12.2,1-22.1,4-33.2c-0.9,0.8-1.1,0.7-3.1,2.8c-3.7,4-5.4,5.1-8.1,5.3c-2.2,0.2-3.7-0.4-4.7-2.1
	c-1.9-2.9-1.1-7.9,2.2-13c0.6-1,1.1-1.9,1.1-1.9c0,0-0.9,0.2-2,0.5c-2.7,0.9-6.2,1.1-7.6,0.4c-3-1.3-3.4-4.7-1.1-8
	c2.2-3,8.7-7.8,13.4-9.9c3.5-1.5,9.2-3.7,13.4-3.4c1.5-2.5,4-4.8,8.5-5.3c6-0.8,10.3,3.6,9.5,6.7c1.9-0.4,4.4-1.3,7.8-1V307.3z
	 M527.6,291.6c-1.3-3.4-2.7-5.9-4.2-7.8c-2.5-2.9-6.1-5.1-8.2-4.8c-0.6,0.1-0.8,1.1-0.7,1.7c0.6,3,3.9,8.2,10.8,13.2
	c1.7,1.2,3.3,0.5,3.3,0.4C528.6,294.3,528.2,293,527.6,291.6z M537.9,292.3c1.3-2.5,2.9-9.8,3.7-12.6c0.6-2.3,1.2-5.6,1-5.8
	c-0.2-0.2-2,3-3,5.4c-1.3,3.1-3.5,7.2-4,10.7C535.1,293.2,536,296.2,537.9,292.3z M532.5,281.4c0-2.4-0.3-4.4-0.8-7
	c-0.9-4.5-1.6-4.8-2.2-0.7c-0.2,1.4-0.1,2.6,0.3,5.3c0.3,2,0.7,6,1.6,7.6C532.2,286.2,532.5,283.3,532.5,281.4z M519,256.4
	c0.3-0.9,0.7-2.5,0.8-3.5c0.2-2.1-0.1-6.6-0.6-8l-0.4-1l-0.2,0.7c-0.6,2-1,8.6-0.7,12.8C517.9,259,518.1,258.8,519,256.4z
	 M511.3,258.6c-2.9-4.4-5.8-7.2-8.6-8.5c-3-1.3-3.8,0-1.7,2.9c1.3,1.8,3.4,3.4,5.9,4.6c1.5,0.7,4.6,1.8,4.9,1.8
	C511.9,259.5,511.7,259.1,511.3,258.6z M580.4,298.3c-0.2-2.6-0.3-4.2,1.2-5.2c1.9-1.3,9.5-3.7,12.3-8.4v13.6H580.4z M349.6,280.3
	V12h281.7v98.4H468.7v89.3H594l0,67.3c-3.1,3.9-4.7,4.8-8.8,7.6c-2.4,1.9-4.5,4.1-6.1,6.7c0.8-3.5,1.6-7,2.5-10.5
	c0.9-4.3,1.3-8.6,1.4-13c1.4-1,2.4-2.4,3-4c1.9-4.3,2-9.2,0.3-13.7c-1.6-4.4-3.4-8.8-5.2-13.1c-0.6-0.9-1.8-1.2-2.7-0.6
	c-0.6,0.4-0.9,1.1-0.9,1.8c-0.4,3.7-1.1,7.4-2,11c-1.3,4.8-0.9,10,1.3,14.5c0.5,1,1.1,1.9,1.7,2.8c0.2,3.7-0.1,7.4-0.8,11
	c-0.6-1.4-1.1-2.8-1.7-4.1c1.5-2.9,0.4-6.4-2.5-7.9c-2.2-1.2-4.9-0.4-6.2,1.8c-1.5,2.7-0.7,6.1,1.9,7.8c1,0.6,2.1,0.9,3.2,0.7
	c2.1,3.5,2.8,7.6,2.2,11.7c-0.4,2.7-0.8,5.5-1.3,8.2l-0.1,1.3c-0.6-3-1.6-5.9-2.7-8.7c-0.6-1.4-1.3-2.7-2-4c0.1-0.7,0-1.3-0.1-2
	c-1.4-6.6-5.3-12.4-10.8-16.3c-4.4-3.5-9.5-6-15-7.3c-0.9-0.2-1.9,0-2.6,0.5c-0.9,0.8-1,2.2-0.3,3.2c1.6,1.4,3.1,2.9,4.6,4.4
	c2.1,2.9,4.1,5.9,6,8.9c2.8,4.1,6.7,7.5,11.2,9.7c1.1,0.5,2.4,0.8,3.6,1c1.3,2.3,2.4,4.7,3.1,7.3c-0.7,0-1.5,0-2.2-0.1
	c-0.8,0-1.5-0.1-2.2-0.4c-0.4-2.7-3-4.6-5.7-4.2c-2.5,0.6-4,3-3.5,5.5c0.3,2.7,2.7,4.7,5.4,4.5c1,0,2-0.5,2.7-1.3
	c2,0.3,4.1,0.6,6.1,0.9c0.9,0.1,1.6,0.8,1.7,1.7c0.6,1.6,1.5,5.1,2.1,7.8l-31,0c-0.3-1.7,0.4-5.1,1.7-7.8c2.2-4.6,3.6-8.7,4.4-13.5
	c1.5-8.9-3.5-9.6-5-9.3c-1.6,0.3-2.8,1.2-4.4,3.1c-0.7,0.8-1.3,1.5-1.3,1.5c-0.1,0-0.3-0.6-0.5-1.4c-0.6-2-1.2-3.1-2.3-4.1
	c-2.8-2.6-7.2-1.4-8.9,2.5c-0.5,1.2-0.7,1.4-0.9,1.1c-0.5-1.8-2-4.9-3.1-6.1l1-1.7c2.1-3.6,2.9-6.2,3.1-10c0.2-2.2,0.1-3.2-0.6-6.7
	c-0.6-3.3-0.9-4.4-1.5-5.5c-1.5-2.8-4.2-3.8-6.6-2.3c-2.1,1.3-3.2,4.2-3.8,9.6c-0.2,1.8-0.4,3.2-0.4,3.3c0,0-0.7-0.5-1.4-1.3
	c-1.7-1.7-4.8-3.8-6.8-4.6c-4.9-1.9-9.7,0.9-9.7,5.8c0,2.4,2.3,6.2,5.1,8.6c2.9,2.5,8,4.8,13.6,6l3.1,0.7c1.8,2,3.7,6.2,4,8.2
	c0.2,0.5,0.2,0.5-0.7,0.1c-4.3-1.5-8.2-0.6-9.9,2.2c-1.4,2.4-1,5.5,1.2,9.1c2.3,3.8,3,7,11.4,12.7h-42.9c2.7-4.2-0.6-6.9-3.8-9.1
	l2.3-1.5c3.9-2.6,6.2-5.2,8-9.1c1.5-3.4,1.5-3.4,0.7-4.9c-1-1.8-2.3-4.6-12.3-4.1c3.9-5.4,0.5-9.9-2.6-10.9c-3-1-5.4-0.2-12.4,3.8
	c-3.3,1.9-7.2,3.9-8.5,4.5c-3.6,1.5-4.6,2.4-5.9,5.3c-1.9,4.2-5.3,20.6-5,24.2l0.2,2.1l-5.3,5.2c-2.9,2.8-5.5,5.3-5.8,5.6
	c-0.3,0.2,0.1-1.4,0.9-3.5c3.7-9.6,4.4-22.4,1.7-33.2c-1.4-5.8-2.5-7.9-4.1-8.5c-1.7-0.6-4.3,0.2-4.5,1.3c-0.2,1.8-3.2,17.3-4,20.4
	c-0.5,1.9-2,7-3.4,11.3c-1.4,4.3-2.9,9.5-3.4,11.7c-1.1,5.3-1.5,12.2-1,15.3c0.6,2.6-1.2,4.5-1.9,5.6c-5.2,6.8-7.7,11.1-11.2,18.8
	c-1.9,4.2-2.3,4.8-3.5,7.4c-0.2-0.5,0.7-19.5,1.1-24.4c0.8-9.3,1.4-13.8,4.1-29.2c3.2-18.7,6-31.9,9.1-42.9l2.5-8.9l2.6-2
	c1.4-1.1,4.3-3.2,6.3-4.7c5.4-3.9,9.5-8.3,14.4-15.5c7.8-11.2,10.8-17.1,14-26.8c3.3-10.3,5.6-24.9,4.1-26.8
	c-1.7-2.2-4.6-1.7-6.7,1.1c-0.8,1.1-3.1,3.9-5.1,6.4c-5.6,6.8-8.8,12.1-12.1,20c-2.8,6.7-7.5,16.1-9.5,18c-0.2-0.1,1-4.7,2.3-9.4
	c3-11.2,3.9-14.3,6.6-21c2.6-6.4,2.5-6.3,10.3-13.4c12.6-11.6,16.3-18.1,14.3-25.3c-1.1-4.1-3.9-6-6.9-4.9c-1.6,0.6-1.8,0.8-7.5,6.5
	l-3.3,3.4l-0.2-2.6c-0.4-5.6-2-8.5-4.8-9c-2.7-0.5-4.2,1-9.7,9.6c-3.9,6.1-5.6,10.5-5.4,13.8c0.3,3.8,2.3,7.8,6.1,11.7l3.2,3.4
	l-2.1,5.4c-1.9,4.7-4,11.2-5.4,16.1l-0.4,1.5l-0.4-2.7c-0.9-6.3-3.1-12-6.8-18c-1.4-2.3-3.7-6.3-5-8.9c-3.9-7.4-6.4-9.6-9.3-7.8
	c-1.4,0.8-1.5,1.9-0.8,5.6c0.3,1.6,1.3,15.3,1.4,18c0.2,6.3,0.4,8.3,1.7,16.3c1.4,8.7,1.6,12.1,0.8,18.7c-0.3,3-0.5,6.8-0.4,8.3
	c0.3,3.5,2.6,8.3,5.4,11.1c1.1,1.1,2,2.4,2,2.7c0,0.4-1.2,4.9-2.6,10.1c-1.4,5.2-3.6,14.1-4.8,19.9c-2.5,11.9-6.7,36.6-7.4,43.1
	c-0.3,2.4-0.5,4.4-0.6,4.6c-0.6-1.1-0.8-1.9-1.7-4.5c-0.9-2.6-2.6-7.6-3.8-11.1c-2.5-7.1-4.5-14.1-5.9-20.6
	c-1.3-6.2-0.3-9.8,4.3-16.5c3.3-4.8,5.9-11.3,5.9-14.7c0.3-5.6-4.6-7.5-8.7-5.8l-1.2-3c-1.7-4-3.4-5.9-6.8-7.3
	c-3.2-1.3-6-1.7-8.2-1.1c-3.4,0.9-4.5,5.1-4.1,7.6c-1.9-1.5-5.2-1.8-6.4,1.1c-1,2.2-0.4,10.1,1,14c1.6,4.5,5.3,8.9,11,13.4
	c4.6,3.6,5.3,4.6,6.3,10.4c0.5,2.8,1.2,6.3,1.6,7.7l0.7,2.6l-3.4-3.4C365.7,291.5,353.6,281.7,349.6,280.3z M349.6,296.3
	c5.7,12.6,22.8,25.2,24.5,26.6c3.3,2.5,7.8,5.3,8.4,5.2c2.9,3.4,3.1,10.1,3.4,18.6c0.1,3-0.6,6.4,1.2,13.8
	c-3.9-6.3-10.4-11.6-15.1-15.3c-4.5-3.6-8.4-5.3-11.8-5.1c-2.3,0.1-5.3,3.2-3.1,5.9c3.4,4.6,4.4,6.3,7.2,10.8
	c2.4,3.8,4.1,7.7,8.8,19.5c1.6,3.9,3.5,8.3,4.3,9.7c2.7,4.8,11.2,16.2,15,20.1c2.3,2.3,2.7,4.3,3.4,16.2c1,15.7-1.5,28-4.2,47.8
	h-3.5c0.4-9.8-5.7-31.6-6.1-32.5c3-0.9,4.1-2.7,4.7-3.8c0.9-1.8-0.9-5-3.1-7.3c6.3,1.7,8,0,9-2.1c0.6-1.1,0.8-3.7,0.5-5.9
	c-0.6-4.7-2.7-7.7-6.1-8.2c-2.4-0.4-5.1,0.6-7.7,3l-1.6,1.4c1-3.3,0.7-9.3-5.9-10.3c-1.6-0.3-4.6-0.1-5.9,0.4
	c-3.5,1.3-5.2,5-4.1,8.7c0.2,0.8,0.4,1.4,0.4,1.5c-2.3-0.7-4.7-0.1-5.9,1c-0.8,0.7-1.8,2.9-2,4.6c-0.3,2.1,0.2,6.9,0.8,8.2
	c0.6,1.3,2.5,2.7,4.2,3.1c2.5,0.6,6.7-0.1,9-1.6c0.5-0.3,0.9-0.6,1-0.6c0,0,0.1,1.1,0.2,2.4c0.1,2,0.2,2.6,0.7,3.5
	c1.1,1.9,3.1,3.8,6.9,3c1.2,5,4.1,16.9,3.6,20.4c-0.9-2.6-3.8-7.5-5.9-9.7c-2.8-3.8-8.2-9.1-10.1-9.8c-1.8-0.7-3.7,0-4.5,1.6
	c-1.2,2.5,7.3,23.7,13.1,29.2h-23.8V296.3z"/>
</svg>
