<?xml version="1.0" encoding="utf-8"?>
<!-- Generator: Adobe Illustrator 26.5.2, SVG Export Plug-In . SVG Version: 6.00 Build 0)  -->
<svg version="1.1" id="Layer_1" xmlns="http://www.w3.org/2000/svg" xmlns:xlink="http://www.w3.org/1999/xlink" x="0px" y="0px"
	 width="1515.8px" height="983.6px" viewBox="0 0 1515.8 983.6" style="enable-background:new 0 0 1515.8 983.6;"
	 xml:space="preserve">
<style type="text/css">
	.st0{fill:none;stroke:#FF0000;stroke-width:0.75;stroke-miterlimit:9.3761;}
	.st1{fill:none;stroke:#FF0000;stroke-width:0.75;stroke-miterlimit:10.7087;}
	.st2{fill:none;stroke:#FF0000;stroke-width:0.75;stroke-miterlimit:9.6373;}
	.st3{fill:none;stroke:#FF0000;stroke-width:0.75;stroke-miterlimit:9.6376;}
	.st4{fill:none;stroke:#FF0000;stroke-width:0.75;stroke-miterlimit:10;}
	.st5{fill:none;stroke:#FF0000;stroke-width:0.75;stroke-miterlimit:11.3386;}
</style>
<path class="st0" d="M966.6,857.9c-7.5-1.2-14.2-5.6-18.3-12.1c-3.5-5.3-6.2-11.1-7.7-17.3c-3.5-13.4-5.7-27.1-6.5-40.9
	c-2.4-33.6-2-67.3,1.2-100.8c1.1-12.4,3.4-24.6,7-36.6c2.6-8.7,7.4-16.6,14.1-22.9c5.2-4.6,12.1-6.8,19-6.1
	c5.2,0.1,10.3,1.8,14.4,4.9c3.9,3.3,7,7.4,9.1,12.1c4.5,10,7.3,20.7,8.6,31.6c0.9,6.7,1.5,13.4,1.7,20.2l1,24.4
	c0.1,1.3,1.1,2.3,2.4,2.2l126.7-9.2c1.2-0.1,2.1-1,2.1-2.2c0-0.1,0-0.2,0-0.3c-0.7-9.6-1.4-19.2-2.2-28.8
	c-1.9-23.2-6.4-46.2-13.6-68.4c-6.5-20.1-16.5-39-29.6-55.6c-18.9-23.3-44.8-39.9-73.9-47.3c-23.1-5.7-47.1-7.4-70.8-5
	c-21.9,1.9-43.2,7.9-62.7,17.9c-23.5,12.4-43.3,30.6-57.7,52.8c-13.7,21.1-23.9,44.3-30.2,68.7c-6.5,25.1-10.4,50.9-11.4,76.9
	c-1.8,32.9,0.1,65.9,5.6,98.3c4.3,25.2,12.2,49.6,23.4,72.5l2.4,4.6l0,0c10.7,20.8,25.6,39.3,43.7,54.2c20.6,16.4,45,27.4,70.9,31.8
	c25.5,4.6,51.7,4.2,77-1.2c33.8-7.5,63.9-26.3,85.4-53.4c18.9-23.6,32-51.3,38.3-80.8c2.3-10.7,4-21.5,4.9-32.4c0.8-9,1.5-18,2.1-27
	c0-0.3,0-0.6-0.2-1c-0.3-0.8-1.1-1.4-2-1.4l-126.3-7.7c-0.8,0-1.3,0.3-1.5,0.4c-0.2,0.2-0.4,0.4-0.6,0.7c-0.1,0.2-0.3,0.6-0.3,1
	c-0.9,9.4-2,18.8-3.2,28.2c-1.4,11.4-4.2,22.7-8.4,33.4c-2.3,6.1-6,11.7-10.7,16.3c-4.5,4-10.4,6.1-16.5,5.9
	C971.3,858.5,968.9,858.3,966.6,857.9z"/>
<path class="st1" d="M189.3,771.5h24.5l-12.5-50.6L189.3,771.5z M143.8,503.4L0.1,980.5c-0.1,0.5-0.2,1,0,1.5c0.3,0.7,1,1.5,2.1,1.6
	h133.3c1-0.1,1.9-0.8,2.2-1.8l20.9-87.8h85.7l21.3,87.8c0.1,0.7,0.9,1.8,2.3,1.8h142.7c0.8,0,1.3-0.1,1.9-0.8
	c0.6-0.8,0.4-1.6,0.3-2.3L276,503.5c-0.3-1-1.2-1.7-2.2-1.7H146C145.1,501.7,144,502.6,143.8,503.4z"/>
<path class="st2" d="M432.9,499.2c-0.8,0.4-1.2,1.2-1.3,2.1v477.2c0,0.3,0.1,0.5,0.2,0.8c0.2,0.3,0.4,0.7,0.7,0.9
	c0.4,0.4,1,0.5,1.5,0.6h169.7c20.9,0.2,41.8-1.2,62.5-4.2c13.4-1.9,26.6-5.6,39.1-10.9c19.2-8.9,35.8-22.7,48.1-39.9
	c14.6-20.2,23.6-43.9,25.9-68.8c2.5-21.2,1-42.7-4.4-63.3l-0.9-3.1c-7.1-24.2-21.7-45.6-41.8-60.9c15.3-13.8,26.2-31.8,31.3-51.8
	c4.2-16.5,5.9-33.5,4.9-50.5c-0.6-19.9-5.1-39.5-13.2-57.7c-8.6-19.1-22-35.7-38.9-48.2c-10.7-7.6-22.9-12.9-35.7-15.7
	c-15.8-3.5-32-5.6-48.2-6.2l-8.4-0.4c-6.7-0.2-13.5-0.3-20.2-0.3l-169.7,0C433.7,498.9,433.2,499,432.9,499.2z M602.1,618.4
	c-5.8-0.8-11.6-1.2-17.4-1.1h-13.4V674c10.3,0.3,20.7-0.2,30.9-1.7c4.4-0.6,12.6-3.4,15.5-6.7c8.4-10.3,8-24,3.2-35.8
	C617,620.5,603.4,618.6,602.1,618.4z M615.8,794.6c-6.6-1.5-13.4-2.2-20.2-2.2h-24.4v65.9c8.7,0.1,17.3,0.1,26-0.1
	c8.2-0.2,15.3-1.2,22.5-3.8c8-2.7,13.8-9.8,14.9-18.3c1.7-9.6,1.2-19.5-1.6-28.8c-1.5-4.8-4.7-7.4-10-10.3
	C620.6,796,618.2,795.2,615.8,794.6z"/>
<path class="st3" d="M1166.9,493.2c-1.2,0.1-2.2,1.2-2.2,2.4v477.2c0.1,1.3,1.1,2.3,2.3,2.3h135.6c22,0.2,43.9-1.6,65.5-5.4
	c16-2.7,31.5-7.8,45.9-15.3c25.1-13.8,46.1-33.9,61-58.3c12.9-21.4,22.7-44.4,29-68.5l1.3-4.8c7.2-29.8,10.7-60.4,10.4-91.1
	c0.3-28.3-2.4-56.6-8-84.3l0-0.1c-4.5-22.3-12.4-43.8-23.5-63.7c-10.5-19.2-24.7-36.3-41.6-50.2c-15.6-12.4-33.4-21.6-52.6-27.2
	c-23-6.8-46.7-10.8-70.7-12c-9.4-0.6-18.7-0.8-28.1-0.8L1166.9,493.2z M1322.1,617.7c-4.6-0.9-9.3-1.5-14-1.7v236.4
	c8.2-0.2,16.2-1.9,23.8-4.9c6-2.6,11.2-7,14.7-12.5c6.9-10.6,11.8-22.4,14.4-34.8c3-14,4.9-28.3,5.5-42.7c1.3-21.2,1-42.5-0.7-63.7
	c-0.9-12.9-3.4-25.7-7.4-38.1c-3-9.1-7.5-17.7-13.4-25.4c-4.5-5.7-10.7-9-17.7-11.3C1325.6,618.5,1323.9,618.1,1322.1,617.7z"/>
<path class="st0" d="M966.6,364.7c-7.5-1.2-14.2-5.6-18.3-12.1c-3.5-5.3-6.2-11.1-7.7-17.3c-3.5-13.4-5.7-27.1-6.5-40.9
	c-2.4-33.6-2-67.3,1.2-100.8c1.1-12.4,3.4-24.6,7-36.6c2.6-8.7,7.4-16.6,14.1-22.9c5.2-4.6,12.1-6.8,19-6.1
	c5.2,0.1,10.3,1.8,14.4,4.9c3.9,3.3,7,7.4,9.1,12.1c4.5,10,7.3,20.7,8.6,31.6c0.9,6.7,1.5,13.4,1.7,20.2l1,24.4
	c0.1,1.3,1.1,2.3,2.4,2.2l126.7-9.2c1.2-0.1,2.1-1,2.1-2.2c0-0.1,0-0.2,0-0.3c-0.7-9.6-1.4-19.2-2.2-28.8
	c-1.9-23.2-6.4-46.2-13.6-68.4c-6.5-20.1-16.5-39-29.6-55.6c-18.9-23.3-44.8-39.9-73.9-47.3c-23.1-5.7-47.1-7.4-70.8-5
	c-21.9,1.9-43.2,7.9-62.7,17.9c-23.5,12.4-43.3,30.6-57.7,52.8c-13.7,21.1-23.9,44.3-30.2,68.7c-6.5,25.1-10.4,50.9-11.4,76.9
	c-1.8,32.9,0.1,65.9,5.6,98.3c4.3,25.2,12.2,49.6,23.4,72.5l2.4,4.6l0,0c10.7,20.8,25.6,39.3,43.7,54.2c20.6,16.4,45,27.4,70.9,31.8
	c25.5,4.6,51.7,4.2,77-1.2c33.8-7.5,63.9-26.3,85.4-53.4c18.9-23.6,32-51.3,38.3-80.8c2.3-10.7,4-21.5,4.9-32.4c0.8-9,1.5-18,2.1-27
	c0-0.3,0-0.6-0.2-1c-0.3-0.8-1.1-1.4-2-1.4l-126.3-7.7c-0.8,0-1.3,0.3-1.5,0.4c-0.2,0.2-0.4,0.4-0.6,0.7c-0.1,0.2-0.3,0.6-0.3,1
	c-0.9,9.4-2,18.8-3.2,28.2c-1.4,11.4-4.2,22.7-8.4,33.4c-2.3,6.1-6,11.7-10.7,16.3c-4.5,4-10.4,6.1-16.5,5.9
	C971.3,365.2,968.9,365.1,966.6,364.7z M1097.9,407.1c2.1-5.8,2.2-11.2,0.4-16.9c-1.8-5.8-1.5-6.1-3.8,3.9c-2.2,9.7-2.7,13.6-2.3,19
	c0.1,1.8,0.4,4.4,0.4,4.5C1093.6,417,1097.2,408.9,1097.9,407.1z M1083.2,412.5c-1.9-4-5.8-9.6-9.9-14.2c-2-2.2-6.6-6.7-6.9-6.6
	c-0.4,0.1,2.9,8.3,4.5,10.9c2.9,5.1,10,17.8,15.7,22.9l1.6-1.9C1088.2,422.6,1085.4,415.7,1083.2,412.5z M1064.2,374.1
	c0.9-2.6-0.1-9.5-2-14c-1.2-2.9-4.3-8-4-6.6c0.1,0.5,0.2,2.1,0.2,3.7c0,7,1.6,13.5,4.2,16.8C1063.5,375.2,1063.8,375.2,1064.2,374.1
	z M1085.5,365.6c-0.3-1.1-2.6-3.8-5-5.7c-2.9-2.4-6.8-4.8-11.6-7.1c-2.2-1.1-4.3-2.1-4.7-2.4c-0.8-0.4,3.4,3.7,7,6.8
	c4.2,3.7,9.9,7.6,12.7,8.7C1085.6,366.5,1085.8,366.5,1085.5,365.6z M1046.5,372.5c1.9-1.7,5.1-10.7,5.9-17c0.1-1,0.2-1.6-0.8,0.2
	c-2.9,4.4-3.7,5.7-4.6,8c-1.4,3.5-1.8,4.9-1.9,6.9c0,1.5,0.3,2.6,0.6,2.5C1045.8,373.1,1046.2,372.8,1046.5,372.5z M1035.4,363.5
	c2.5-1.2,8.5-6.7,10.8-10l1.2-1.7c-2.4,0.1-7,1.1-9.2,2.2c-2.3,1.1-3.6,2-5.6,4.2C1028.4,362.9,1030,366.1,1035.4,363.5z
	 M1086,348.3c-2.9-1.4-6.9-2.7-9.5-3.1c-2.3-0.4-8.5-0.6-9-0.3c-0.6,0.4,10,3.5,14.2,4.1c1.5,0.2,5.6,0.5,6.1,0.5
	C1088.3,349.4,1087.1,348.8,1086,348.3z M910.4,465.1c-4.9-3.3-6.2-6.1-6.9-10.4c-0.1-0.8-0.2-1.6-0.1-1.7c0.3-0.9,3.2,1.4,5.8,4.6
	c1.5,1.8,5.9,9.1,5.8,9.5C913.8,466.7,912.7,466.4,910.4,465.1z M925.4,462.9c1.8-5.5,7.7-13.1,8.9-12.8c1,0.3-0.3,5.1-2.3,9
	c-1.2,2.2-3.3,5.5-5.3,8c-0.4,0.6-1.2,1.8-2.1,1.9C923.6,468.6,924.8,464.7,925.4,462.9z M915.5,455c-1.3-5.2-0.6-10.2-0.4-10.3
	c0.3-0.2,3.4,5.5,4.2,9.7c0.4,2.3,1.3,6.6,0.1,7.9C917.9,460.8,916.5,458.9,915.5,455z M933.7,431.2c1.6-3.3,3.2-5.6,4.9-7.3
	c2.7-2.7,6.6-4.5,8.6-4.1c0.7,0.1,0.8,1.1,0.5,1.8c-0.9,3-4.5,6.2-11.9,10.5c-1.8,1.1-3.3,1.9-3.4,1.8
	C932.4,433.9,933,432.7,933.7,431.2z M923.2,426.5c-1-2.6-1.8-5.4-2.3-8.4c-0.4-2.3-0.7-5.7-0.5-5.8c0.2-0.1,1.7,3.2,2.5,5.7
	c1,3.2,1.5,5.9,1.7,9.4C924.7,430.5,924.7,430.6,923.2,426.5z M930.3,418.8c0-1.6,0.1-2.5,0.8-5c1.3-4.4,2.1-4.6,2.2-0.5
	c0.1,1.4-0.1,2.6-0.8,5.3c-0.5,1.9-1.1,3.9-1.3,4.4l-0.5,0.9l-0.2-1.5C930.5,421.4,930.4,419.9,930.3,418.8z M945.4,397
	c-0.3-1-0.5-2.6-0.5-3.5c0-2.1,0.7-6.6,1.3-7.9l0.5-1l0.2,0.7c0.4,2.1,0.2,8.7-0.4,12.8C946.2,399.6,946.1,399.5,945.4,397z
	 M952.8,399.9c3.3-4.1,6.4-6.7,9.3-7.7c3.1-1,3.8,0.4,1.5,3.1c-1.4,1.7-3.7,3.1-6.3,4c-1.5,0.5-4.8,1.4-5,1.4
	C952.2,400.7,952.4,400.3,952.8,399.9z M999.9,466.6c-1.2-3.3-3-10.4-3.4-13.3c-0.5-3.9-0.3-6.7,0.4-9.7c0.7-2.9,1.4-4.2,2.4-4.8
	c0.6-0.3,0.7-0.3,1.1,0.3c0.6,0.8,1.2,3.3,1.4,6c0.3,3,0.1,12.9-0.2,18.6c-0.2,2.6-0.3,4.9-0.3,5.2
	C1001.2,469.8,1000.8,469.1,999.9,466.6z M1012,468c4.4-6.7,8.8-12.3,12.5-15.8c2.6-2.5,5.8-5,5.9-4.6c0.1,0.8-5,7.7-9.7,13.1
	c-2.8,3.3-10.5,10.8-10.5,10.4C1010.1,470.9,1011,469.5,1012,468z M1018.6,419c-0.9-0.3-2-0.8-2.5-1.2c-0.8-0.7-0.8-0.8-0.5-1.3
	c0.2-0.4,1.5-1.8,2.8-3.2c2.4-2.5,2.4-2.6,3.4-2.4c2.2,0.5,2.2,0.4,2.2,4.5c0,4-0.1,4.2-2.3,4.1
	C1020.9,419.6,1019.5,419.3,1018.6,419z M1036.4,411.4c-0.8-0.2-1.8-0.7-2.1-0.9c-1.5-1-3.7-3.3-3.7-3.7c0.1-0.9,8.2-5.5,9.6-5.5
	c0.8,0,1.3,3.6,0.9,6.5c-0.4,3.1-0.5,3.5-1.4,3.8C1038.6,411.9,1038,411.9,1036.4,411.4z M1008.6,405.1c-0.1-0.4,0-2.1,0.1-3.8
	c0.2-2.5,0.4-3.3,0.9-4.3c0.8-1.4,1.4-1.5,3.1-0.6c1.1,0.6,5.5,5.2,5.5,5.7c0,0.5-0.9,1.1-4.1,2.3
	C1009.8,406,1008.8,406.2,1008.6,405.1z M1027.3,399.4c-1.3-0.7-1.4-1.3-1.2-5.9c0.2-4,0.4-4.6,2.1-5c1.7-0.4,3.4,0,4.2,0.9
	c0.6,0.7,0.6,0.9,0.4,2.6c-0.1,1.1-0.5,2.4-0.9,3.1c-0.6,1.3-3.2,4.8-3.4,4.8C1028.4,400,1027.9,399.7,1027.3,399.4z M988.2,473.1
	c-4.1-6.3-9.9-12.4-13.3-15.7c-2.4-2.3-5.5-4.7-5.5-4.3c-0.1,0.7,4.7,7.2,9.1,12.3c2.6,3.1,8.3,8.6,9.8,9.6
	C988.2,474.9,989.1,474.6,988.2,473.1z M982.9,435.4c0.8-0.2,1.9-0.5,2.4-0.8c0.8-0.5,0.9-0.6,0.6-1.2c-0.2-0.3-1.2-1.8-2.2-3.3
	c-1.9-2.6-2-2.6-2.9-2.5c-2.1,0.2-2.1,0.1-2.5,4c-0.4,3.7-0.3,3.9,1.6,4.1C980.7,435.6,982,435.6,982.9,435.4z M967.2,426.4
	c0.8-0.1,1.7-0.4,2.1-0.6c1.5-0.8,3.8-2.6,3.8-3c0.1-0.8-7-6-8.3-6.1c-0.7,0-1.6,3.2-1.6,6c0,2.9,0.1,3.3,0.9,3.7
	C965.1,426.7,965.6,426.7,967.2,426.4z M993.7,423.5c0.1-0.3,0.3-1.9,0.3-3.5c0.1-2.4,0-3.1-0.4-4.1c-0.6-1.4-1.1-1.6-2.8-0.9
	c-1.1,0.5-5.7,4.2-5.7,4.7c0,0.5,0.8,1.1,3.5,2.5C992.5,424.3,993.4,424.5,993.7,423.5z M977,416.2c1.3-0.5,1.5-1.1,1.8-5.4
	c0.3-3.7,0.1-4.3-1.4-4.8c-1.6-0.5-3.2-0.4-4,0.4c-0.6,0.6-0.7,0.8-0.7,2.4c0,1,0.2,2.3,0.5,3c0.5,1.2,2.4,4.8,2.6,4.8
	C975.9,416.6,976.4,416.5,977,416.2z M897.6,277.7c-0.9,0-2.4-0.2-3.3-0.4l-1.7-0.4l3.7-3.4c4.1-3.7,8-6.5,11.5-8.1
	c2.7-1.3,4.6-1.5,6.8-0.6c1.9,0.7,5.4,3.2,5.5,4c0,0.3-0.4,1.1-0.9,1.8c-1.6,2.1-6.1,4.7-10.2,5.8
	C906.9,276.9,900.1,277.7,897.6,277.7z M886.8,269.3l-0.8-0.4l0.2-4c0.1-2.2,0.1-4.7,0.1-5.5c0-1.9,0.8-4.7,1.9-6.2
	c0.5-0.6,1.5-1.6,2.3-2.1c1.2-0.8,1.8-1,3.8-1.2c2.2-0.3,2.6-0.3,4.3,0.3c1.9,0.6,4.4,2.4,4.5,3.2c0.2,1.8-2.4,5.5-8.9,12.8
	l-4.6,5.2l-1-0.8C888.1,270.1,887.3,269.6,886.8,269.3z M877.4,266.6c-1.9-0.5-3.4-0.6-4.4-0.2c-0.4,0.2-1.2-1.3-5.1-9.8
	c-2.8-6.1-3.6-8.5-3.8-10.9c-0.2-2.3,0.2-3,1.7-3.2c1.6-0.2,3.9,0,5.4,0.5c2,0.7,5.1,3,6.3,4.9c2.1,3.1,3.2,7.7,2.7,11.4
	c-0.1,1.1-0.3,2.9-0.3,4s0,2.3,0,2.8c0,0.5-0.1,0.9-0.2,0.9C879.6,267.2,878.6,266.9,877.4,266.6z M913.6,258.7
	c-1.2-0.2-2.3-0.1-4.2,0.3l-2.6,0.5l0.5-0.9c1-1.9,1.4-3.5,1.3-5.5l-0.1-2l1.2-0.8c2.5-1.8,6.1-1.3,7.7,1.1c0.6,0.9,0.9,2.6,0.5,3.9
	c-0.3,1.1-2,3.6-2.4,3.7C915.3,258.9,914.5,258.9,913.6,258.7z M883.6,247.1c-0.9-1.9-2.7-4.3-4-5.3c-0.7-0.5-0.8-0.8-0.9-2
	c-0.1-3.1,2.4-5.1,5.8-4.4c2.3,0.4,5.3,4.1,6.1,7.6l0.4,1.7l-1.5,0.7c-1.5,0.7-4.5,2.7-4.7,3.3C884.5,249.1,884.5,249,883.6,247.1z
	 M901.9,245.4c-0.8-0.3-2-0.7-2.7-0.9c-0.7-0.2-1.4-0.4-1.5-0.4c-0.4-0.3,1.1-3.6,2-4.4c0.7-0.6,1.1-0.8,2-0.8c1.7,0,2.8,0.8,3,2.3
	c0.1,1.2-0.7,4.7-1.1,4.8C903.4,246,902.6,245.7,901.9,245.4z M893.4,444.2c-1.6-17.1-1.1-35.6,1.4-49c0.8-4.3,2.5-10.8,3.9-15.1
	c2.4-7.2,6.3-15.3,8.6-17.9c0.4-0.3,1-0.3,1.2,0.4c1.1,5.3-0.4,22.5-3.4,40.6c-1.9,11.3-3.4,17.8-7.4,32c-1.2,4.4-2.6,9-2.9,10.3
	s-0.7,2.3-0.8,2.3S893.6,446.2,893.4,444.2z M854.6,366.8c-6.5-2.8-8.7-3.9-15.7-7.9c-12.9-7.4-17.7-10.8-21.8-15.5
	c-3.3-3.9-5.9-9.2-4.9-10.3c1.1-1.3,10.3,1.7,17.4,5.8c8.4,4.7,19.6,13.8,27.7,22.3c4.9,5.2,6.3,8.9,6.4,9.2
	c0.1,0.4-0.2,0.3-1.8-0.4C860.8,369.4,857.5,368,854.6,366.8z M870.7,365c0-1.1-0.1-5.1-0.1-8.9c-0.1-3.8-0.1-7.9,0.1-9.1
	c0.5-4.9,2.1-12.2,3.5-15.6c1.4-3.5,3.7-6.6,4.6-6.3c0.9,0.3,1.5,4.7,1.1,8.3c-0.4,4.4-2,12.3-3.6,18c-1.9,6.7-4.9,15.6-5.3,15.6
	C870.8,367,870.7,366.3,870.7,365z M848.6,341.8c-4.1-4.7-6.1-7.8-14.1-22.6c-3.7-6.8-7.3-15.5-9.1-21.6c-0.8-2.9-1.7-8.8-1.2-8.9
	c0.6,0,3,1.9,4.6,3.6c5.4,5.8,8.9,11.2,14.3,21.7c4.6,9.2,7.1,14.8,10,22.7c1.8,4.9,4.8,13.7,4.8,14.2
	C857.9,351.4,851.5,345.1,848.6,341.8z M844.3,254.4c-6.2-11.1-8.8-16.2-12.4-24.5c-4.4-10.1-6.8-19.4-7.1-27.2
	c-0.1-3.8,0.4-7,2.4-6.5c1.8,0.9,4.9,4.5,7.2,8.4c5.7,9.3,9.6,22,11.6,37.3c0.6,4.8,1.7,18.4,1.5,18.2
	C847.5,260.1,846,257.5,844.3,254.4z M872.3,193.6c2.3-4.5,10.6-18.8,15.3-26.1c7.1-11.2,12.4-17.3,19.8-22.6
	c3.1-2.2,5.6-3.3,8.1-3.5c3.6-0.3,5.1,0.9,5.1,4.3c0,5.9-4.8,13.6-14.4,22.9c-6.7,6.5-15.2,13.5-22.1,18.4
	c-3.3,2.3-11.7,7.6-12.1,7.7C871.9,194.6,872.1,194.2,872.3,193.6z M859.9,190.4c-0.7-1.1-3.1-4.5-5.4-7.6
	c-13.4-18.5-17.5-25.7-19.8-34.5c-1.1-4.3-1.9-13.3-1.3-15.6c0.3-1.5,0.4-1.5,1.2-1.6c3.9-0.3,12.3,10.2,18.8,23.6
	c3.2,6.5,5.3,12.5,7.1,19.7c0.6,2.4,0.7,12.4,0.7,14.4c0,2,0,3.6,0,3.6C861.1,192.3,860.5,191.4,859.9,190.4z M868.4,162.7
	c0.2-23.8,1.1-33.3,4.6-47.7c2.7-11.2,5.1-16.7,7.8-18.4c1.8-1.1,2.8-0.6,3.7,1.8c3,8,1.4,26.8-4.2,48.4c-2.5,9-5.9,28.9-10.9,34.9
	C868.7,177,868.2,167.5,868.4,162.7z M807.8,326.8c2.4-2.5,4.9-1.2,11.6,1c5.5,1.8,11.6,4.7,16.7,8.1l1.4,0.9l-0.5-0.9
	c-0.3-0.5-2.3-4.1-4.5-8.1c-5.7-10.3-8-14.9-10.8-22.3c-2.5-6.6-4.4-14.3-4.3-17.9c0.1-5.1,3.6-7.5,8.2-5.7c3.9,1.6,9.9,8,15.3,16.3
	c2.1,3.2,5.6,9.6,8.3,15.1c1.1,2.2,1.9,3.7,2,3.5c0-0.3-0.2-2.2-0.6-4.3s-1-8-1.4-13.1c-0.9-9.3-1.1-15.2-0.9-23.5
	c0-1.2-0.1-3.7-1.1-5.4c-1.8-1.9-3.4-4.3-8.1-12.9c-5.4-9.7-7.2-13.1-10.3-20c-3-6.7-4.2-9.6-5.9-14.7c-3.6-10.8-5.3-21.4-4.2-27.3
	c0.4-2.5,0.8-3.4,2-5c1.8-2.4,4.7-3.1,7.5-2c5.6,2.3,13,13,17.5,25.4c2.2,6.1,4.6,15.3,5.6,21.3c0.2,1.2,0.4,2.1,0.5,2
	c0.1-0.1,0.7-3.3,1.4-7.2c1.2-9,5.2-22.2,7.4-28.3l-10.4-14.8c-13.4-18.4-18.4-27.1-21.2-36.8c-1.8-6.4-2.6-16.1-1.7-20.3
	c0.8-3.7,3.2-7.9,10.2-5.2c4.7,1.9,11.2,9.3,17,19.3c2.1,3.6,5.2,9.9,6.6,13.3l0.8,1.9l0.2-6c0.5-19.3,1.8-29.5,5.7-44.3
	c2.5-9.7,4.7-15.1,7.2-18.2c4.8-5.8,11.6-5.8,14.7-0.1c1.6,2.9,2,5.1,2.5,12c0.5,7.1,0.4,9.8-0.8,19.9c-1.4,11.4-4.2,23.7-8.7,38.6
	c-1,3.4-1.8,6-1.7,5.9c0.1-0.1,1.3-1.9,2.6-4c3.8-6,5.6-8.4,9.4-12.8c6.3-7.3,13.2-12.6,18.9-14.7c1.7-0.6,10.9-4.1,14.4,4.3
	c0.9,2,1.2,5.7,0.6,8.5c-0.8,4.1-3.8,9.8-8,15.2c-4.8,6.2-17.5,18-27.8,25.7c-8.4,6.3-20.6,13.8-22.7,13.9c-0.7,0.1-2.5,0.2-4.1,5
	c-2.3,7.2-3.3,10.5-4.2,15c-1.5,7-4.7,21.1-5.5,30.3c-0.5,9.2-1.3,16.8-0.7,33.5c0.3,11.6,2.2,26.3,5,39.3
	c1.4-6.8,1.6-18.2,15.1-42.5c-1.8-1.4-3.7-6.4-3.7-9.5c0-1.1-0.2-1.5-1.7-3.8c-1.7-2.5-4.8-8.9-8-16.7c-1.5-3.5-2.2-7.4-2-10.2
	c0.2-2.7,2.2-5.3,4.8-6.2c1.7-0.6,5.1-0.7,7.9-0.2l1.9,0.4c-0.1-3.7,4.3-7.5,8.5-7.8c5.1-0.6,11.6,2.8,12.6,7.2
	c2.5-4.5,8.8-4.5,12.4-2.2c4,2.3,4,7.7,3.8,9.2c7.1-2,9.8,1.3,10.8,2.7c0.1-18.2,1.1-36.3,2.8-54.4c1.2-13.1,3.7-26.1,7.5-38.7
	c3.3-11.5,10-21.7,19-29.4c7.7-6.1,17.4-8.8,27.1-7.6c11.3,0.8,21.6,6.9,27.6,16.6c5.4,8.7,9.2,18.3,11.1,28.3
	c2.4,11.5,3.9,23.2,4.3,34.9l0.6,14.9l108.2-7.9c-0.8-15.2-2.4-30.3-4.8-45.3c-3.1-20-8.8-39.6-17-58.2
	c-7.5-17.1-18.2-32.6-31.7-45.6c-17.1-16.1-38.3-27.2-61.3-32.2c-31.5-6.9-64.2-5.9-95.3,2.8c-32.6,9.6-60.7,30.7-79,59.3
	c-13.7,21.1-23.7,44.4-29.6,68.9c-6.4,26.2-9.8,53-10.3,80c-1.1,30.7,1.2,61.4,6.8,91.6C807.5,325.3,807.6,326,807.8,326.8z
	 M841.6,410.6c6.5-9.1,22.9,3,29,9.6c3.2,3.4,7.7,9.1,9.8,12.5c0.9,1.4,1.7,2.5,1.7,2.4c0.1-0.2-1.3-7-2.8-13.2
	c-2.5-10.2-10.2-38-11.5-41.8c-6.1,0.1-24.3-9.8-29.7-12.9c-13-7.3-21.1-15.1-25.1-19c4.9,16.9,11.7,33.2,20.2,48.6
	C835.8,401.7,838.6,406.2,841.6,410.6z M846.5,417.4c0.8-4.3,6.8-2.5,11.7,0.2c5.2,2.9,13.1,11.5,18.1,19.8
	c4.4,7.2,6.6,10.4,7.7,14.9c-3-1.9-6-4-8.9-6.1C864.4,437.8,854.8,428.1,846.5,417.4z M900,461.1c-1-1.9-1.5-3.7-1.8-5.5
	c-0.4,1.5-0.6,2.8-0.9,4.2C898.2,460.2,899.1,460.6,900,461.1z M942.6,414.6c4.4-1.1,9,0.3,10.4,3.2c1.2,2.5,0.5,5.5-2,9
	c-2.6,3.6-6.8,6.7-15.6,11.6l-6.1,3.4l-1.8,7.5l1.3-1.5c1.5-1.7,3.2-2.8,4.9-3.1c1.7-0.3,4,0.5,5,1.9c1.8,2.6,2.9,6.1,1.3,11.3
	c-0.7,2.1-4.8,10.8-7.5,14c3.2,0.7,6.5,1.2,9.8,1.7c12.6,1.9,25.3,2.6,38,2c-3.5-3.4-5.5-6.5-7.9-9.4c-7.2-8.8-10.5-15-9.8-18
	c0.5-1.9,2.3-3,4.3-2.6c2.1,0.4,8.8,5.3,12.6,9.1c2.3,2.3,3.2,3.4,5.9,6.9c-2.7-4.6-6.8-16.4-5.8-20.4c-2.7-0.5-5.6-2.3-6.4-4.6
	c-0.4-1.1-0.4-1.8-0.3-4.1c0.1-1.5,0.2-2.8,0.1-2.8c0,0-0.5,0.2-1.1,0.5c-2.6,1.4-7.1,1.8-9.6,0.8c-1.7-0.7-3.5-2.5-3.9-4.1
	c-0.5-1.6-0.3-7.1,0.3-9.4c0.5-1.9,1.7-4.3,2.7-5c1.4-1.1,3.7-1.4,5.4-0.7c0.4,0.2,0.8,0.3,0.9,0.2s0-0.8-0.2-1.7
	c-0.7-4.4,1.6-8.4,5.4-9.4c1.5-0.4,4.6-0.3,6.2,0.3c2.3,0.8,4,2.5,4.7,4.8c0.1,0.5,0.2,2.4,0.2,4.2l-0.1,3.4l1.8-1.4
	c3-2.3,5.9-3.2,8.4-2.5c3.4,1,5.3,4.6,5.2,10.1c0,2.6-0.6,5.5-1.3,6.7c-1.4,2.3-3.7,3.1-6.6,2.5c-0.9-0.2-1.9-0.5-2.3-0.7
	c-0.6-0.3-0.6-0.2,0.2,1c2,2.9,2.4,5.4,1.1,7.3c-0.7,1.2-3.6,3.2-5.3,3.8c-0.6,5.6,3,16.5,7.4,21.7c-1.9-6.9-2.4-11.4-1.9-16.2
	c0.4-4.2,1.8-8.2,3.5-10c0.9-1.1,2.9-2.3,4.2-2.6c1.5-0.3,3.9,0.2,5.1,1.2c2.5,1.9,3.2,9.2,3.3,16.8c6.6-12,8.6-26,8.9-27.3
	c-3.3-0.6-4.8-3.3-5.5-4.6c-1-2.2-0.3-4.8,2.2-7.7c1-1.2,1-1.2,0.3-1c-0.4,0.1-1.5,0.3-2.5,0.5c-3.1,0.4-5.5-0.8-6.7-3.4
	c-0.6-1.3-0.9-4.5-0.6-7.3c0.6-5.8,3.1-9.4,6.8-10.1c2.7-0.5,5.7,0.8,8.6,3.6l1.8,1.8l0.3-3.6c0.2-2,0.5-4,0.7-4.5
	c1.1-2.4,3-4,5.6-4.5c1.8-0.4,5.1-0.2,6.7,0.5c3.9,1.6,5.9,6.1,4.5,10.6c-0.3,0.9-0.4,1.7-0.4,1.8c0.1,0.1,0.5,0,1-0.2
	c1.9-0.6,4.2,0,5.6,1.4c0.9,0.9,2,3.5,2.2,5.7c0.3,2.6-0.2,8.4-0.9,10c-0.7,1.6-2.8,3.3-4.7,3.9c-2.8,0.8-7.5-0.2-10.1-2
	c-0.6-0.4-1-0.7-1.1-0.7c0,0-0.1,1.3-0.2,3c-0.1,2.5-0.3,3.2-0.8,4.3c-1.2,2.3-3,3.7-5.9,4c-0.9,6.6-6.2,23-12.7,35.3
	c2.9-3.7,7-9.1,9.5-11.6c4-4,11.2-9.2,13.5-9.7c2.1-0.4,4.1,0.8,4.6,2.8c0.8,3.2-1.8,9.8-9.5,19.2c-1.8,2.2-4,4.7-6.4,7.2
	c21-6.6,40-18.1,55.7-33.4c2.1-1.9,3.1-3,4.2-4.6c-6.3-6.8-11.9-17-14.5-21.2c-3.2-5.2-4.8-11.1-7.1-19.4c-1.4-5.1-1.4-5.3-1.1-6.1
	c0.5-1.2,2-2,3.1-1.8c1.3,0.3,7.1,4.6,10.7,7.9c1.7,1.6,4.5,4.5,6.2,6.5c1.7,2,3.1,3.5,3.1,3.5c0.1-0.2-2.1-7.2-3-9.7
	c-1.7-4.6-4.2-10.4-6-13.7c-1.9-3.4-2-3.5-3-4.7c0.1,0.8-0.8,10.5-8.2,8.6c-5.6-2-6.7-7.9-7.6-10.8l-0.7,1.7c-1,2.5-2.6,4.9-4.3,6
	c-2.8,1.9-6.2,1.8-8.1-0.4c-1.2-1.4-2.2-5.3-1.8-7.6c0.1-0.9,0.2-1.6,0.1-1.6c0,0-0.7,0.3-1.4,0.7c-1.8,1-5.3,1.8-7,1.6
	c-1.6-0.2-4-1.4-5.1-2.6c-3.3-3.9-1.3-10.3,4.9-15.4c4.7-4.3,11.5-5.4,14.8-5.7c-1.6-2.8,1.3-8.2,7.3-9.1c4.4-0.7,7.5,0.7,9.6,2.7
	c4-1.4,10.1-0.9,13.9-0.4c5,0.7,12.7,3.5,15.6,5.8c3.2,2.5,3.7,5.8,1.2,7.9c-1.2,1-4.6,1.8-7.4,1.7c-1.1,0-2,0-2,0
	c0,0.1,0.7,0.7,1.6,1.5c4.5,4,6.7,8.5,5.7,11.9c-0.6,1.9-1.8,2.9-4,3.3c-2.6,0.5-4.5-0.1-9.2-2.9c-2.5-1.5-2.7-1.3-3.7-1.8
	c5.9,9.9,9.6,19.1,13,30.8c1.1-6.6,6.1-27.7,12.9-18.1c3.4,7.7,6,13.3,5.5,18.1c9-16.1,15.6-33.5,19.4-51.6
	c2.2-10.1,3.8-20.4,4.7-30.8l1.4-17.3l-108.4-6.6c-0.8,9.5-2,19-3.7,28.4c-1.9,12-5.6,23.6-11.1,34.4c-3.5,7-8.7,13-15.3,17.3
	c-6.8,4-14.8,5.8-22.7,5.1c-1.7-0.1-3.5-0.3-5.2-0.6c-10.6-1.8-20-7.9-25.8-17c-4.2-6.3-7.4-13.2-9.3-20.6
	c-3.7-14.2-6.1-28.7-7-43.3c-0.4-5.9-0.7-11.8-1-17.7c-4.2,3-12.6,9.1-30.1,5.5c-2.8,1.4-8.4,2.6-11.3,1.7
	c-10.5,16.6-14.4,32.6-15.5,58.8c0.5-3.9,1.7-9,2.7-12.4c3.7-12.5,11-18,16.1-12.2c1.5,1.7,2.1,3.6,2.4,7.7
	c0.3,4.7-0.3,9.7-2.4,19.3c-2.3,10.2-7.5,25.8-10,30l-0.8,1.3l1.9,6.4c2.1,7,7.6,27.1,9.9,36.4c0.9,3.5,1.5,5.6,1.6,5.2
	c0.1-0.4,0.2-3.7,0.3-7.4c0.5-17.2,2.8-30.3,7.6-43.7c3.8-10.6,8.7-19.1,12.2-21.2c3-1.8,6.2-0.5,7.6,3c0.7,1.9,1.3,11.2,0.9,16.2
	c-0.7,9.6-2.2,21.8-4.3,33.6c-2.3,12.9-3.7,19.1-9.8,40.2c-0.2,0.7-0.4,1.5-0.6,2.1c3.1-2.4,6.3-0.7,9.2,1.7c0.8,0.7,1.4,1.1,1.4,1
	c0-0.1-0.3-1.7-0.6-3.5c-0.3-1.8-0.6-4.1-0.6-5.2c-0.1-4.3,1.8-6.8,4.8-6.4c2.5,0.4,5.3,4.2,6.9,9.4c0.5,1.5,0.9,2.8,0.9,2.8
	l2.2-8.3l-0.8-1c-1.1-1.3-4.2-7.3-5.3-10.1c-1.8-4.7-2.8-9-3.2-13.8c-1.6-16.6,10.6-6.7,11.1-3.8c0.1,0,2.1-4.3,3.3-5.3
	c3-2.3,7.9-2.6,8.9,4.8c1-2.8,3-5.1,4.3-6.2l-0.8-1.8c-1.7-3.8-2.3-6.4-2.2-10.2c0-2.2,0.2-3.2,1.2-6.6c0.9-3.2,1.3-4.3,2-5.4
	c1.8-2.7,4.5-3.4,6.8-1.7c1.9,1.5,2.8,4.4,2.9,9.9c0,1.8,0.1,3.3,0.1,3.3c0,0,0.7-0.5,1.5-1.2c1.8-1.6,5.1-3.4,7.2-4
	c5.1-1.5,9.6,1.8,9.1,6.7c-0.2,2.4-2.8,6-5.8,8.1c-3.1,2.3-8.4,4-14,4.8l-3.1,0.4C945.4,408.7,943.1,412.6,942.6,414.6z"/>
<path class="st4" d="M347,470.4c-3.4-5.2-6.9-9.6-9.7-12.3c-2-1.9-4.5-3.9-4.5-3.5c0,0.6,3.9,5.9,7.6,10.2c2.2,2.5,8.1,8.4,8.1,8
	C348.5,472.7,347.8,471.6,347,470.4z M341.6,440.2c0.6-0.3,1.4-0.9,1.6-1.3c0.5-0.6,0.5-0.7,0.1-1.1c-0.2-0.2-1.4-1.1-2.6-2
	c-2.2-1.6-2.2-1.6-2.9-1.3c-1.6,0.7-1.6,0.6-0.9,3.8c0.6,3,0.8,3.2,2.3,2.8C340,441,341,440.6,341.6,440.2z M327.2,437.1
	c0.5-0.3,1.2-0.8,1.5-1c0.9-1,2.3-3.1,2.2-3.4c-0.2-0.7-7-3-8-2.7c-0.6,0.1-0.4,2.9,0.3,5.2c0.7,2.3,0.9,2.6,1.7,2.7
	C325.6,437.8,326,437.7,327.2,437.1z M346.9,428c0-0.3-0.3-1.6-0.7-2.9c-0.6-1.9-0.8-2.5-1.4-3.2c-0.8-1-1.3-1-2.4,0
	c-0.7,0.6-3.3,4.8-3.2,5.2c0.1,0.4,0.9,0.7,3.4,1.1C346.2,428.9,346.9,428.8,346.9,428z M332,426.5c0.9-0.7,0.8-1.2,0-4.7
	c-0.8-3-1.1-3.5-2.4-3.5c-1.4,0-2.6,0.5-3,1.3c-0.3,0.6-0.3,0.8,0.1,2.1c0.3,0.8,0.8,1.8,1.2,2.3c0.7,0.9,3.1,3.2,3.3,3.1
	C331.3,427.1,331.6,426.8,332,426.5z M189.3,278.3h24.5l-12.5-50.6L189.3,278.3z M143.8,10.2L0.1,487.3c-0.1,0.5-0.2,1,0,1.5
	c0.3,0.7,1,1.5,2.1,1.6h133.3c1-0.1,1.9-0.8,2.2-1.8l20.9-87.8h85.7l21.3,87.8c0.1,0.7,0.9,1.8,2.3,1.8h142.7c0.8,0,1.3-0.1,1.9-0.8
	c0.6-0.8,0.4-1.6,0.3-2.3L276,10.2c-0.3-1-1.2-1.7-2.2-1.7H146C145.1,8.5,144,9.4,143.8,10.2z M121.6,412.3
	c0.6-8.2,1.8-13.3,6.4-27.2c1.7-5.1,3.2-9.8,3.4-10.6c0.4-1.7,0.4-1.9,0.5,4.6c0.2,13.3-0.1,16.3-2.3,22.7
	c-1.6,4.6-3.1,7.7-6.9,13.9c-1.2,2.1-1.3,2.1-1.3,0.9C121.3,415.9,121.4,414,121.6,412.3z M108.5,401.5c-2.3-3.7-3.7-7-7-16.2
	c-3.4-9.5-5.3-13.9-7.3-17.2c-1.9-3.1-1.9-3.1,0.2-1.2c7.5,6.8,12.2,14.2,16.4,26c0.6,1.8,2.7,14.9,2.5,15.5
	C113.1,408.7,110.8,405.3,108.5,401.5z M100.9,337.5c-0.7-0.7-2.7-3.3-4.4-5.7c-3.7-5.2-7-9.7-10.3-14.1c-1.4-1.8-2.4-3.2-2.3-3.3
	c0.1,0,1.6,1.1,3.3,2.5c4.9,4,9.2,9.5,12.5,15.9c1,1.9,2.1,4,2.4,4.7C102.8,339.2,102.6,339.1,100.9,337.5z M133.8,329.9
	c0.3-1.5,1.4-5.9,2.4-9.6c1.8-6.4,3.7-14.5,3.8-16.1c0.1-1.8,0.4,1.8,0.4,5.7c0,8.3-1.8,15.6-6,23.6L133,336l0.1-1.7
	C133.2,333.4,133.5,331.4,133.8,329.9z M90.5,294.1c-2.3-3-3.6-5.8-4-8.3c-0.2-1.6-0.2-1.6,2.6,3c2.6,4.2,4.9,8.8,4.1,8.5
	C93,297.2,91.8,295.7,90.5,294.1z M98.7,295c-0.4-2.8-0.6-8.7-0.3-9.4c0.1-0.2,0.6-0.4,1.1-0.4c0.5,0,1.9-0.2,3-0.4s2.2-0.3,2.2-0.2
	c0.2,0.4-0.7,4.1-1.4,6c-1,2.6-3.6,7.3-4,7.1C99.2,297.6,98.9,296.4,98.7,295z M160.9,320.9c0-0.1,2.7-1.1,6-2.3
	c3.3-1.2,6.5-2.4,7.2-2.7c2.7-0.3,2.7,4.4,0.5,5.3c-3.3,1.1-8.1,1.1-13.4-0.1C161,321,160.9,321,160.9,320.9z M157.4,305.2
	c0.6-3.2,1.4-6.5,1.7-7.4c0.6-1.5,0.8-1.7,2.7-2.6c1.1-0.5,3.9-2.2,6.1-3.8c5.1-3.5,5.8-3.9,6-3c0.2,0.9-1.3,4.4-3,7.1
	c-0.8,1.3-3,4.1-4.7,6.1s-4.5,5.3-6,7.1c-1.5,1.8-3.1,3.7-3.6,4.2l-0.8,0.8l0.3-1.4C156.2,311.6,156.8,308.4,157.4,305.2z
	 M167.3,308.7c5.8-6.4,8.9-9.5,11-10.9c0.9-0.6,2.4-0.6,3.2-0.1c1.1,0.9,1.3,1.2,1.1,2c-0.4,1.4-3.1,4.6-5.2,6.3
	c-1.8,1.4-14.1,8-14.3,7.7C163,313.6,164.9,311.4,167.3,308.7z M91.7,279.2c0.1-2.1,0.3-4.1,0.5-4.5c0.3-0.7,0.5-0.7,1.5-0.3
	c1.5,0.6,2.1,1.3,3.1,3.4l0.8,1.6l-1.6,0.7c-1.6,0.7-1.6,0.7-2.3,2.9l-0.7,2.3l-0.7-1.2C91.8,283.2,91.6,282.1,91.7,279.2z
	 M122.6,265.3c-0.9-2.7-1-4.6-0.5-9.7c0.7-7.7,0.6-9.2-1.2-21.1c-0.4-3-0.9-7.2-0.9-9.4c-0.1-2.1-0.2-5.1-0.4-6.6l-0.3-2.7l1.7,3.1
	c2.9,5.2,4.6,10.6,5.1,15.8c0.3,3.6,0,16.5-0.5,21.3c-0.3,2.8-1.6,10.6-1.9,11.3C123.7,267.8,123.2,266.9,122.6,265.3z M130.1,266.9
	c0.3-0.7,1.5-2.6,2.5-4.3c1.9-3,4.6-8.1,9.1-17.3c1.3-2.6,2.9-6.6,4.2-10.3c2.1-6.2,3.7-9.5,6.9-14.6c0.9-1.4,1.8-2.7,2-2.8
	c0.2-0.1,0,1.6-0.4,3.7c-2.2,12.1-5.2,20-12,31.3c-3.4,5.8-4.7,7.5-7.7,10.8c-2,2.1-4.9,4.8-5.2,4.7
	C129.5,268.1,129.8,267.5,130.1,266.9z M136.3,204.1c-1.1-2.7-1.2-4.9-0.2-7.3c0.7-1.9,3-6.2,4.3-8.3l0.6-0.9l0.1,1
	c0.2,1.7-0.4,6.1-1.4,10.9c-0.5,2.4-1,5.2-1.1,6.2l-0.2,1.8l-0.7-0.8C137.3,206.2,136.7,205,136.3,204.1z M144.3,203.3
	c0.4-2,0.8-2.9,1.7-4.3c1.6-2.3,9.2-11.5,9.4-11.4c0.4,0.1,0.4,1.8,0,3.5c-0.2,1-1.1,2.6-2.4,4.8c-2.4,3.8-9,11.3-9.2,10.5
	C143.8,206.1,144,204.7,144.3,203.3z M293,460.9c-0.1-3.5,0.5-7.5,1.6-11.6c2-7.3,4-11.3,10.4-21.7c1.8-2.9,3.7-6.1,4.3-6.9l0.9-1.6
	l-0.4,2.7c-0.9,6.5-3.9,14.8-10.7,29c-2.8,5.7-5.2,10.9-5.5,11.5c-0.2,0.6-0.5,1.1-0.5,1.1C293.1,463.4,293,462.3,293,460.9z
	 M280.3,440.9c-3.5-4.1-6-7.3-7.5-9.6c-2.4-3.8-6-11.5-7.6-16.1l-1-2.9l3.1,2.9c3.4,3.2,8.5,9.2,11.1,13.4c2.9,4.6,4.5,7.8,5.8,12.4
	c1.1,4,1.7,6.3,1.5,6.2C285.6,447.1,283.2,444.3,280.3,440.9z M303.2,403.3c0.1-0.2,0.8-1.4,1.6-2.6c1.9-3,5.8-10.4,6.6-12.5
	c0.8-2.1,1-4.1,0.6-6.5c-0.3-2.2-0.2-2.7,0.9-3.1c1.1-0.4,1.4-0.1,2.5,2.9c0.6,1.5,1.4,3,2.3,4.2c1.4,1.8,1.4,1.8,1.1,2.8
	c-0.4,1.5-3.1,5.2-5.2,7.2c-1.5,1.5-9.5,7.6-10.3,8C303.2,403.7,303.1,403.6,303.2,403.3z M297.7,399.8c-1.8-6.1-1.3-9.2,3.1-17.5
	c1.7-3.3,3.2-6.1,3.4-6.2c0.3-0.3,2.5,2.7,3,4.2c0.7,2,0.8,4.4,0,6.4c-1.1,2.8-7.9,15.2-8.6,15.6
	C298.5,402.3,298.1,401.2,297.7,399.8z M289,395.8c-1.5-2.4-2.3-4.7-2.2-6.8c0.1-1.8,1.1-4.3,2.2-5.2c0.8-0.7,1-0.7,1.6-0.4
	c1.7,1.8,1.6,6.4,1.6,6.9c0.1,5.2,0.2,6.9,0.7,9.1l0.5,2.5l-1.5-2C291,398.9,289.7,397,289,395.8z M270.2,387.2
	c-3.1-4.7-5.1-8.9-7.5-15.3c-2.4-6.3-3.8-10.8-3.2-10.5c0.2,0.1,1.2,1.2,2.3,2.5c2.5,2.9,4.5,4.4,6.1,4.7c0.7,0.1,2.1,0,3.4-0.3
	l2.2-0.6l0.6,1.7c1.1,3,0.4,11.9-1.3,18c-0.4,1.3-0.8,2.1-1,2C271.7,389.4,271,388.3,270.2,387.2z M260.6,390.7
	c-5.4-1.1-10.5-3-11.5-4.4c-1.1-1.6,0.8-3.2,3.5-3c2.8,0.2,8.9,3.7,12.8,7.3C266.9,392,267,392,260.6,390.7z M255.6,378.8
	c-0.9-0.7-3.9-4.5-4.2-5.3c-0.1-0.4-0.2-1.6-0.1-2.7c0.1-1.6-0.1-2.5-0.8-4.7c-1.1-3.2-1-3.2,2.3-0.6c1.3,1,2.5,1.9,2.8,2.1
	c0.4,0.2,1.4,2.5,3.4,7.4l2.9,7.1l-2.8-1.4C257.4,379.9,255.9,379,255.6,378.8z M84,461.9c0.5-0.1,0.9-0.3,0.9-0.3
	c0-0.3-2.9-4.9-3.9-5.9c-2.2-2.5-5.6-4.7-9.3-5.8c-1.9-0.6-4.2-0.6-4.7,0.1c-0.6,0.8-0.5,2.1,0.4,4c1.5,3.4,3.8,5.4,7.7,7
	C78.4,462.1,81.3,462.4,84,461.9z M96.4,455.4c5.1-3.6,7.7-6.1,9.2-8.8c1.4-2.5,1.2-3.5-0.7-3.6c-2-0.1-5.5,2.6-7.5,5.8
	c-1,1.6-4.7,8.6-4.8,9C92.6,458,93.7,457.3,96.4,455.4z M76,430.2c1-0.2,2-0.5,2.2-0.6c0.3-0.1-0.4-1-2.5-3.3
	c-2.3-2.5-3.2-3.4-4.5-4.1c-3.9-2.2-9-2.8-9.8-1.2c-0.4,0.8,0,2.6,0.9,4.1c1.4,2.4,4.4,4.6,7.1,5.3C70.8,430.8,73.9,430.7,76,430.2z
	 M88.3,424.8c5.5-3.5,10.2-8.6,10.3-11.1c0-0.9-0.2-1.3-1-1.6c-2.8-1.2-7.6,2.9-10.4,8.9c-1,2.2-1.5,3.8-1.3,4.6
	C86,426.3,86,426.3,88.3,424.8z M67.6,402.3c0.4-0.1,0.6-0.2,0.5-0.2s-1.2-1-2.2-2.1c-2.2-2.4-3.3-3.3-6-4.7c-3.2-1.8-5-2.3-6.1-1.8
	c-1.6,0.8,1.2,5.1,4.6,7c1.4,0.8,3.4,1.5,4.7,1.7C64.2,402.4,66.8,402.5,67.6,402.3z M76.2,398.3c2.6-2.3,4.9-5.6,6.5-9.2
	c1.2-2.7,2-6.9,1.4-7.3c-0.3-0.2-1.6,0.4-2.8,1.3c-3,2.2-7.9,10.6-8.1,13.9c0,1,0.5,3,0.9,3C74.2,399.9,75.2,399.2,76.2,398.3z
	 M64,382.7c-0.4-5.1-1.9-9.3-3.9-11.3c-1.3-1.3-1.9-1.3-2.4-0.2c-1.4,2.9,0.6,7.7,5.2,12.8c0.7,0.8,1.3,1.4,1.3,1.4
	C64.2,385.3,64.1,384.1,64,382.7z M340.2,391.7c-3.4-1.1-6.6-2.8-8.1-4.4c-0.8-0.8-1.4-1.5-1.4-1.7c0-0.4,1.2-0.8,2.4-0.8
	c1.4,0,4.2,1,5.7,2.1c1.3,0.9,4.9,4.4,5.3,5.2c0.3,0.5,0.2,0.5-0.8,0.3C342.6,392.4,341.3,392.1,340.2,391.7z M354.6,390.5
	c1.7-1.8,8.4-6.3,9.5-6.3c0.4,0-0.6,1.7-1.8,3.2c-1.9,2.2-4.8,3.7-7.1,3.7l-1.1,0L354.6,390.5z M351.9,381.7
	c0.5-3.8,2.4-11.4,3.3-12.7c0.7-1,0,4.4-0.9,7.7c-0.5,1.6-2.3,6.4-2.4,6.4C351.8,383.2,351.8,382.5,351.9,381.7z M332.1,359.6
	c-2.2-1.7-4.3-3.8-4.9-5.1c-0.5-0.9-0.3-0.9,1.6,0.2c3.2,1.9,7,5.6,8.3,7.9c0.4,0.7,0.3,0.7-1.2-0.4
	C335,361.7,333.3,360.5,332.1,359.6z M345.9,359.7c-0.5-3.4,0.1-7.9,1.6-11.1c0.7-1.5,2.2-3.5,3.2-4.2l0.8-0.6l-0.1,2.4
	c-0.2,4.2-1.4,8.6-3.5,13.3c-0.6,1.4-1.3,2.6-1.4,2.5C346.4,361.9,346.1,360.8,345.9,359.7z M333,347c-0.9-1.9-1.5-4.3-1.3-4.8
	c0.1-0.4,1.9,2.3,3.3,5.2c1.1,2.2,3.3,7.5,3.3,7.9C338.2,355.7,333.7,348.7,333,347z M342.8,325.4c1.3-2.9,3.6-6,5.3-7.1
	c1.4-0.9,1.7-0.7,1.3,1.3c-0.3,1.7-0.7,2.6-2,3.9c-1.4,1.5-3.3,2.7-5.2,3.3C342.2,326.8,342.4,326.2,342.8,325.4z M327.9,325.5
	c-2.8-0.4-4.7-1-6.9-2c-3.1-1.5-6.2-4.6-5.2-5.2c0.7-0.5,5,0.5,8.7,2c3.2,1.3,8.5,4.6,8.5,5.3C332.9,325.8,330.2,325.8,327.9,325.5z
	 M338.5,311.8c0.3-4.1,0.7-7.1,1.5-10.7c0.3-1.4,0.6,0,0.6,3.1c0,3.6-0.4,6.9-1.4,11.1c-0.5,2.1-0.6,2.5-0.8,2
	C338.3,316.9,338.3,315.1,338.5,311.8z M317.3,297.6c-3.2-0.9-5-1.7-6.6-2.8c-1.4-1-3.8-3.1-3.8-3.4c0-0.8,3.9,0.3,6.8,1.9
	c1.3,0.8,5.8,3.9,6.7,4.8C320.9,298.6,320.2,298.5,317.3,297.6z M325.2,290.2c-0.8-1.8-0.8-2.1-0.8-5.5c0-2,0.1-4.5,0.3-5.4
	c0.5-2.9,2-6.6,2.6-6.6c0.1,0,0.4,0.7,0.7,1.5c0.4,1.2,0.4,2.4,0.4,6.6c0,4.9-0.1,5.3-0.9,8.2c-1.1,4-1,3.9-1.3,3.5
	C326.1,292.3,325.7,291.3,325.2,290.2z M305.3,271c-2.2-1.1-3.1-1.7-3.9-2.6c-0.6-0.7-1.1-1.3-1.1-1.4c0-0.3,1.8,0.3,3.4,1.1
	c1.4,0.7,5,3.6,5.5,4.3C309.5,272.9,308.5,272.5,305.3,271z M313.2,259.9c-0.3-4.9,0.1-9.7,0.8-9.6c0.8,0,1.4,4.7,1,8
	c-0.3,2.9-1.1,6.2-1.4,5.9C313.6,264.1,313.4,262.2,313.2,259.9z M298.3,245.2c-1.1-1.1-2.5-3.9-3.4-6.6c-1-3-0.8-3.2,1.3-1.1
	c1.6,1.6,2.4,3,3.4,5.9c0.5,1.5,0.6,2,0.4,2.3C299.4,246.3,299.3,246.2,298.3,245.2z M372.9,465c0.7-0.3,1.1-1.4,1-2.6
	c-0.1-1.8-1.9-6-2.6-6.1c-0.8-0.1-2,3.3-1.8,5.3c0.1,1.1,0.6,2.2,1.2,2.7C371.3,465,372.4,465.3,372.9,465z M364.4,452.9
	c1.2,0.2,2,0,2.4-0.1c-0.2-2.7-6.2-8.1-8.5-6.7c-0.8,0.6,0.5,3.8,2.2,5.3C361.3,452.2,363.1,452.8,364.4,452.9z M384.4,453.1
	c0.4-0.4,0.5-0.5,0.4-1.1c-0.1-0.9-1.4-2.4-2.3-3c-1.4-0.8-3.4-0.6-5.6,0.6c-1.7,0.9-1.7,1.8-1.5,2.7c0.1,0.2,2.5,1.3,3.5,1.6
	C381.6,454.6,383.9,453.6,384.4,453.1z M372.2,446.3c1.3-3.8,1.2-5.5-0.1-6.9c-1.7-1.8-2.8-1.8-3.5,0.1c-0.5,1.3-0.6,3-0.3,5.3
	c0.2,1.4,1,4.7,1.2,4.8C370.2,449.6,371.5,448.1,372.2,446.3z M160.3,378.7c-0.7-0.2-1.2-1.3-1.3-2.5c0-1.8,1.3-6.1,2-6.3
	c0.8-0.2,2.3,3.1,2.3,5.1c0,1.1-0.3,2.3-0.9,2.8C161.8,378.5,160.8,378.9,160.3,378.7z M167.5,365.8c-1.2,0.3-2,0.3-2.4,0.2
	c-0.1-2.7,5.3-8.7,7.7-7.5c0.9,0.5-0.1,3.9-1.7,5.5C170.5,364.7,168.8,365.5,167.5,365.8z M147.6,368c-0.5-0.3-0.5-0.4-0.5-1.1
	c0.1-0.9,1.1-2.6,2-3.2c1.3-0.9,3.3-1,5.6,0c1.7,0.7,1.8,1.6,1.7,2.5c0,0.2-2.4,1.6-3.3,2C150.5,369.2,148.2,368.5,147.6,368z
	 M159,360c-1.7-3.7-1.8-5.4-0.7-6.9c1.5-2,2.6-2.1,3.5-0.3c0.6,1.2,0.9,2.9,0.9,5.2c0,1.4-0.5,4.8-0.7,4.9
	C161.4,363.1,159.9,361.7,159,360z M184.2,379.8c-3-2.8-4.3-4.4-5.5-6.8c-0.6-1.2-0.4-1.4,0.8-0.7c2.3,1.2,5.2,5,6.6,8.5
	c0.2,0.5,0.3,0.9,0.2,0.9C186.1,381.6,185.2,380.8,184.2,379.8z M195.8,381.1c2.3-2.6,8.1-6.6,11.1-7.4l1-0.3l-0.5,0.6
	c-1.5,1.9-4.2,4-7.1,5.7c-1.9,1.1-5.4,2.7-5.4,2.6C194.8,382.3,195.3,381.7,195.8,381.1z M196.5,360.4c1.1-2.6,2.2-4.4,3.4-5.8
	c1.9-2.1,4.8-3.7,6.4-3.4c0.3,0.2,0.9,0.6,0.5,1.3c-0.6,2.3-3.2,4.8-8.6,8.4c-1.3,0.9-2.5,1.6-2.5,1.5
	C195.6,362.5,196,361.5,196.5,360.4z M188.3,357.3c-0.9-2-1.6-4-2.1-6.3c-0.4-1.7-0.7-4.3-0.6-4.4c0.2-0.1,1.4,2.4,2.1,4.2
	c0.9,2.4,1.4,4.4,1.6,7C189.6,360.2,189.7,360.3,188.3,357.3z M193.5,351.1c-0.1-1.2,0-1.9,0.4-3.8c0.8-3.4,1.4-3.6,1.7-0.5
	c0.1,1,0,2-0.4,4c-0.3,1.5-0.7,3-0.8,3.4l-0.3,0.7l-0.2-1.2C193.7,353.1,193.5,351.9,193.5,351.1z M204.9,332.5
	c-0.2-0.7-0.5-1.9-0.5-2.7c-0.1-1.6,0.3-5,0.7-6.1c0.1-0.3,0.3-0.5,0.5-0.2c0.4,1.5,0.5,6.6,0.2,9.7
	C205.6,334.5,205.5,334.4,204.9,332.5z M210.6,334.4c2.3-3.2,4.6-5.3,6.7-6.2c2.3-0.9,2.9,0.1,1.2,2.3c-1,1.3-2.7,2.5-4.6,3.3
	c-1.1,0.5-3.6,1.3-3.8,1.2C210.2,335,210.4,334.7,210.6,334.4z M34.9,471c1.1-2.6,2.2-4.4,3.4-5.8c1.9-2.1,4.8-3.7,6.4-3.4
	c0.6,0.1,0.5,0.9,0.5,1.3c-0.6,2.3-3.2,4.8-8.6,8.4c-1.3,0.9-2.5,1.6-2.5,1.5C34.1,473,34.4,472.1,34.9,471z M26.7,467.8
	c-0.9-2-1.6-4-2.1-6.3c-0.4-1.7-0.7-4.3-0.6-4.4c0.2-0.1,2.3,2.5,3,4.4c0.9,2.4,1.2,4.8,1.5,7.4C28.8,471.3,28.1,470.8,26.7,467.8z
	 M31.9,461.7c-0.1-1.2,0-1.9,0.4-3.8c0.8-3.4,1.9-3.1,2.2-0.1c0.1,1,0,1.8-0.4,3.8c-0.3,1.5-0.9,3-1.1,3.4c-0.3,0.7-0.7,0.1-0.8-0.7
	C32.1,463.6,31.9,462.5,31.9,461.7z M43.3,443c-0.2-0.7-0.5-1.9-0.5-2.7c-0.1-1.6,0.3-5,0.7-6.1l0.3-0.7l0.1,0.6
	c0.4,1.5,0.5,6.6,0.2,9.7C44,445,43.9,444.9,43.3,443z M49.1,444.9c2.3-3.2,4.6-5.3,6.7-6.2c2.3-0.9,2.9,0.1,1.2,2.3
	c-1,1.3-2.7,2.5-4.6,3.3c-1.1,0.5-3.6,1.3-3.8,1.2C48.6,445.6,48.8,445.3,49.1,444.9z M27.1,478.3c-0.9-1-6-7.1-6.8-17.4l-5.3,17.4
	H27.1z M257,403.2c1.5-1.1,1.8-0.4,6.9,3.3c7.1,5.2,11.5,9.8,17.5,18.5c1.1,1.5,2,3.1,2.2,3.4c0.5,1.3,0.8,0.4,0.4-1.2
	c-2-8.3-4.6-15.1-8.5-23.1c-2.5-3.8-3.3-5.6-4.1-6.9c-0.5,0.2-13.1-1.5-16.3-2.3L257,403.2z M288.8,478.3
	c-0.5-2.9-1.2-13.8-1.5-16.9s-0.6-5.8-0.7-6c-0.1-0.2-3-3.7-6.4-7.6c-11.6-13.4-14.1-18.3-20.3-32.8c0,0-0.1-0.1-0.2-0.1l15.4,63.4
	H288.8z M356.6,453.5c0.1,1.5,0.1,3,0.2,4.6c0.1,3.3,0,10.2,1.3,11.5c1.5-4.3,3.8-9.5,5.1-11.4c0.5-0.7,0.8-1.2,0.8-1.3
	C359.5,456.7,357.5,455.5,356.6,453.5z M353.5,323.3c-2.2,6.2-6.5,7.1-13.4,9.1c0,0.2,0.5,2.4,1.1,4.9c0.6,2.5,1.3,5.5,1.6,6.6
	s0.5,2,0.6,2c0.1,0,0.4-0.5,0.8-1.1c0.9-1.7,3.1-4,4.6-4.8c1.8-1,3.1-1.1,4.5-0.5c3.3,1.5,3.8,5.8,1.6,14.3
	c-1.1,4.1-1.6,5.6-4.6,11.8c-2.3,4.7-2.3,4.8-2.1,6.2c0.1,0.8,0.2,1.5,0.4,1.6c0.1,0.1,0.5-0.8,0.8-2c1.2-4.2,3-7.1,5-8
	c1.3-0.6,2-0.6,3.4,0.1c0.9,0.4,1.3,0.9,1.8,1.9c0.6,1.2,0.7,1.5,0.7,4.3c0,3.3-0.7,6.7-1.9,10.3l-0.8,2.2l2.5-1.3
	c4.6-2.3,7.5-2.2,8.8,0.4c1.3,2.6-0.1,6.5-3.8,10.1c-3.3,3.3-7.2,4.9-11.2,4.7l-1.9-0.1l0.1,2.2c0.2,3.2,0.6,7.2,1.2,12.3
	c1.3,11.7,2.1,20.6,2.8,32.3c1.9-1.4,5.1-1,8.1,1.9c0,0,0-0.6-0.1-1.3c-0.2-2.9,0.5-5.6,1.9-7.4c0.7-0.9,3.1-2,4.1-1.9
	c2.7,0.3,5.7,2.6,6.6,5.3c0.4,1.3,0.5,3,0.3,4.6l-0.2,1.3l0.8-0.3c4.2-1.4,8.7,0.6,10.6,4.6c0.8,1.8,0.5,5.2-1,6.5
	c-2,1.8-6.3,2.5-9.3,1.7l-1.4-0.4l0.5,1.2c0.5,1.3,1,3.2,1,4.2c0,1.2-0.4,2.8-1,3.9c-2.8,4.7-9.8,2.7-11.1-3.2l-0.3-1.1
	c-2.3,5.1-4.4,12-5.3,16.2H398L353.5,323.3z M349.7,421.7c-0.4-3.9-0.7-7.5-1.1-10.8c-0.2-1.7-0.5-5.1-0.8-7.5
	c-0.5-6.3-0.3-5.8-2.4-5.8c-3.2,0-9.9-2.2-13.5-4.3c-3.1-1.9-5.4-4.7-5.9-7c-0.6-2.9,2.3-5.7,6.2-6.1c3.3-0.3,7.8,1.5,11.3,4.5
	c1.2,1,2.1,1.7,2.1,1.5c0-0.3-2-12.4-2.1-13.3c-0.1-0.3-1.2-1.2-3.4-2.5c-12.5-7.3-18.2-12.9-18.2-17.7c0-1.2,0.1-1.8,0.5-2.3
	c1.1-1.5,3-2,5.3-1.5l1,0.2l-0.4-0.7c-1.6-3-2.1-9-1-10.9c2-3.4,5.7-2.3,9.2,2.9c0.4,0.6,0.7,0.9,0.7,0.7c-0.4-2.9-1.9-8.2-2.8-10.8
	c-4.1,1-10.6,0.3-17.9-4.1c-3.8-2.5-6-5.7-6-8.5c0-3,2.1-4.6,6.2-4.6c2.7,0,8,1.6,11.9,3.6c1,0.5,1.8,0.8,1.9,0.8
	c0.1-0.1-2.7-8.2-4.4-12.8l-0.5-1.2l-2.1,0c-3.2,0-9.6-1.7-13.2-3.5c-4-2-7.7-5.6-8.5-8.3c-0.9-3.1,1.5-5.5,5.5-5.5
	c2.5,0,7.8,2.1,11.1,4.4c0.8,0.6,1.6,0.9,1.6,0.8c0.2-0.4-0.5-2-3.1-7.6l-2.6-5.6l-2-0.2c-2.6-0.2-4-0.6-7.2-1.9
	c-3.4-1.4-4.8-2.2-6.6-3.9c-2.8-2.7-4-6.4-2.6-8.2c1-1.4,1.8-1.8,3.8-1.8c2.1-0.1,4.3,0.5,6.3,1.7c0.6,0.4,1.1,0.6,1,0.4
	c-0.1-0.1-1.3-2.7-2.8-5.6l-2.7-5.4l-1.8-1.1c-3.8-2.4-4.9-3.3-6.1-5.3c-2.3-3.6-4.3-9.5-4.1-12c0.2-2.3,2-3.7,4.5-3.7
	c3.3,0,7.4,3.8,9.4,8.7c0.9,2.3,3.8,12.4,3.8,13.4c0,0.4,0.3,1.2,0.6,1.8l0.6,1.1l0.2-2.4c0.4-5.3,2.2-8.4,4.9-8.9
	c2.1-0.3,4.6,1.6,5.6,4.4c1.8,4.8,1.3,11.4-1.4,19.5c-0.5,1.5-0.9,2.9-0.9,3.1c0,0.5,3.1,6.8,3.3,6.8c0.1,0,0.3-0.7,0.5-1.6
	c0.8-4,2.8-7.7,4.8-8.8c1-0.6,1.4-0.7,2.6-0.6c3.8,0.3,5.6,4.6,5.6,13.2c0,5.1-0.2,6.2-2.5,13.9l-1.5,5.2l1.6,4.3
	c0.9,2.4,1.8,4.9,2.1,5.7c0.2,0.8,0.5,1.3,0.5,1.3s0.2-1.4,0.4-2.9c0.5-4.8,1.4-8.8,2.7-11.3c1-2,2.3-3,3.9-3c1.9,0,3.3,1.3,4.3,4.1
	c0.5,1.5,0.6,2.1,0.5,6.6c0,3.5-0.1,7.7-0.8,10.2c2.3-2.5,4.8-2.7,5.8-2.7L266.8,20.5H153l-129.9,431c2.2-0.1,3.9,1.7,5.1,4.3
	c0.2-1.6,1.6-3.2,2.5-3.9c2.2-1.9,6.1,0.1,7.3,3c1-1.4,2.6-4.5,3.4-6c-1.8-2-3.6-6.4-2.8-9c-0.1-1.7,0-2.4,0.6-5.1
	c0.6-2.5,0.8-3.3,1.3-4.2c1.2-2.1,3.3-2.7,5.1-1.5c1.5,1,2.3,3.3,2.6,7.4c0.1,1.3,0.2,2.5,0.2,2.5c0,0,0.5-0.4,1.1-1
	c1.3-1.3,3.8-2.8,5.3-3.3c3.8-1.3,7.4,1,7.2,4.7c-0.1,1.8-1.9,4.6-4.1,6.4c-4.9,3.9-10.6,5-12.8,4.6c-0.9,1.9-3.3,5-3.6,7.7
	c3.3-1,6.3-0.3,7.4,1.9c1,1.9,0.6,4.2-1.1,6.9c-3.5,5-9,10.5-11.5,11.4h50.1c-0.1-1.9-0.1-11.7-0.2-11.7c-8.5,1.4-14.3-0.8-18.5-4.2
	c-4.2-3.4-7-9.4-6-13c0.7-2.7,2.5-4.3,5.5-4.9c4.2-0.8,11.1,1.9,15.7,5.9c0.8,0.7,1.5,1.3,1.5,1.2c0.3-0.3-1.9-12.2-3.2-17.4
	c-0.1-0.4-0.2-0.4-1.2,0c-0.6,0.2-2.4,0.6-3.8,1c-2.4,0.5-3,0.5-5.5,0.3c-2.2-0.2-3.2-0.4-4.6-0.9c-6.2-2.5-10.4-8.3-9.9-13.6
	c0.3-2.8,1.5-4.4,4.1-5.4c0.9-0.4,1.6-0.4,4-0.3c4.3,0.2,7.4,1.2,10.7,3.6c1.6,1.1,1.7,1.7-1.2-5.5c-1.2-2.9-2.2-5.5-2.3-5.9
	c-0.2-0.7-0.1-0.7-2.3-0.3c-2.2,0.4-6.4,0.2-8.6-0.4c-3.7-0.9-6.4-2.6-9.1-5.5c-2.6-2.8-3.2-4.2-3.1-7.1c0.1-1.9,0.2-2.2,0.9-3.2
	c1.6-2.3,4.5-3.2,7.7-2.3c1,0.3,2.5,0.8,3.4,1.3c0.8,0.4,1.6,0.8,1.6,0.8c0.1,0-1-1.3-2.4-2.9c-5.4-6.2-7.5-10.3-7.3-15
	c0.2-4.6,2.7-7.5,6.5-7.3c2,0.1,3.7,1,5.4,3.2c3.2,3.8,5.1,10.8,4.9,18.7c0,2,0,2.8,0.3,3.2c0.4,0.6,0.4,0.6,0.6,0.1
	c2.4-5.6,7-11.3,10.6-13c3.5-1.7,6.8-0.7,8.2,2.4c0.4,0.9,0.5,1.5,0.4,3.1c-0.2,3.4-1.2,6.6-3.2,10.3c-2.5,4.5-4.9,7.5-8.1,9.8
	c-1.1,0.8-1.9,1.6-1.9,1.8c0,0.2,1.1,2.9,2.4,6.1s2.6,6.5,2.9,7.3c0.3,0.8,0.6,1.5,0.7,1.5c0.1,0,0.5-0.7,0.9-1.6
	c2-4.3,6.3-9.1,9.6-10.5c2.8-1.3,6-1.1,8.3,0.4c3,2,3.6,6,1.5,9.8c-2.3,4.3-8.7,9.9-15,13.1c-0.8,0.4-1.4,0.8-1.4,1
	c0,0.1,0.2,1.2,0.5,2.3c0.8,2.9,1.8,8.6,2.5,13.2c0.3,2.2,0.6,4.2,0.7,4.4c0.1,0.2,0.8-1,1.8-2.6c2.2-3.9,3.3-5.4,5.4-7.4
	c3.3-3,6.6-4.3,9.6-3.6c1.8,0.4,3.4,1.5,4.3,2.9c0.7,1,0.7,1.2,0.6,3.4c-0.1,2.6-0.5,3.7-2.5,6.4c-4.8,7-13.2,13.7-17,14.4
	c0,0.9,0.1,10.2,0.2,13l21.7,0c2-18.1,3.7-31.3,2.8-45.7c-0.7-10.8-1-12.6-2.8-14.7c-3-3.5-9.9-13.8-12-18.2
	c-0.6-1.3-2.2-5.2-3.5-8.8c-3.8-10.7-5.2-14.3-7.1-17.7c-2.2-4-5.7-9.2-8.6-12.8c-2.9-3.6-3.5-4.8-2.9-6.2c0.6-1.6,1.9-2.1,3.9-1.3
	c2.1,0.8,10.1,6.6,13.7,9.8c3.7,3.3,7.5,7.5,10,11.1c1.1,1.6,2,2.8,2.1,2.7c0-0.1-0.1-1.8-0.4-3.9c-0.2-2-0.5-5.9-0.6-8.7
	c-0.3-7.7-1.8-17.1-2.8-16.9c-0.5,0.1-4.1-2.4-6.7-4.7c-1.4-1.2-3.4-3.5-4.5-5.1c-2.6-3.7-6.4-8.9-11.8-16.1
	c-4.9-6.5-8.2-11.6-8.5-13.3c-0.6-3,1.5-4.5,4.6-3.3c3.2,1.3,13.4,9.3,17.1,13.5l2.7,3.1l-0.5-2.4c-0.3-1.3-0.9-4.5-1.3-7
	c-0.9-5.2-1.4-6.1-5.1-9.4c-4.6-4-7.5-8.1-8.8-12.1c-1.2-3.6-1.7-10.8-0.9-12.8c0.5-1.3,0.8-1.6,1.8-1.9c0.9-0.3,1.5-0.2,2.2,0.2
	l1,0.6l0.2-1.3c0.1-0.7,0.6-2.2,1-3.3c0.7-1.7,0.9-2,2-2.4c1.7-0.6,4-0.3,6.5,0.9c2.7,1.3,4.1,3,5.5,6.6l1,2.7l1.7-0.1
	c3.4-0.3,5.2,1.5,5.3,5.3c0,3.1-2,9.1-4.6,13.4c-3.7,6.2-4.4,9.4-3.3,15.1c1.1,5.9,2.7,12.3,4.8,18.8c1,3.2,2.4,7.7,3.1,10.1
	c0.7,2.4,1.3,4.2,1.4,4.1c0.1-0.1,0.3-2,0.4-4.2c0.5-5.9,3.8-28.5,5.6-39.4c0.9-5.3,2.6-13.5,3.7-18.2c1.1-4.7,2-8.9,2-9.2
	c0-0.3-0.7-1.4-1.6-2.5c-2.2-2.6-4.1-6.9-4.3-10.1c-0.1-1.4,0-4.8,0.2-7.6c0.5-6,0.4-9.1-0.8-17c-1.1-7.4-1.3-9.2-1.4-14.9
	c-0.1-2.5-0.2-4.9-0.3-5.3c-0.1-0.5-0.2-2.6-0.3-4.6c-0.1-2.1-0.3-5-0.6-6.4c-0.6-3.3-0.5-4.3,0.6-5.1c2.3-1.6,4.3,0.3,7.5,7.1
	c1.1,2.3,2.9,6,4.1,8.1c3,5.5,4.7,10.7,5.5,16.4l0.3,2.4l0.3-1.4c1-4.5,2.7-10.4,4.2-14.7l1.7-5l-2.6-3c-3-3.6-4.7-7.1-4.9-10.6
	c-0.2-2.9,1.2-7,4.2-12.6c4.3-7.9,5.5-9.2,7.7-8.8c2.2,0.4,3.5,3.1,3.8,8.2l0.2,2.4l2.6-3.1c4.4-5.2,4.7-5.5,5.9-6
	c2.4-1.1,4.6,0.7,5.5,4.4c1.6,6.5-1.3,12.5-11.2,23.2c-6.1,6.5-6.1,6.4-8.1,12.3c-2.1,6.2-2.9,9-5.1,19.2c-1,4.3-1.8,8-1.9,8.2
	c-0.1,0.2,0,0.4,0.1,0.4c0.5,0.2,5.3-10.3,7.4-16.5c2.5-7.2,5.1-12.1,9.5-18.3c1.6-2.2,3.4-4.9,4-5.8c1.7-2.6,4-3.1,5.3-1.1
	c1.2,1.7-0.6,15-3.1,24.4c-2.5,8.9-4.8,14.3-11,24.5c-3.9,6.5-7.1,10.6-11.4,14.2c-1.6,1.4-3.9,3.3-5,4.4l-2.1,1.9l-1.9,8.1
	c-2.4,10-4.5,22-7,39.1c-2,14-2.5,18.1-3.1,26.6c-0.3,4.4-0.9,21.9-0.7,22.3c0,0.1,1.3-3,2.7-6.8c2.8-7.1,4.7-11,8.8-17.2l1.8-2.8
	l-0.4-2.3c-0.5-2.8-0.2-9.2,0.7-14c0.3-2,1.5-6.8,2.6-10.7c1.1-3.9,2.3-8.5,2.6-10.3c0.6-2.8,2.9-17,3.1-18.7c0.1-1,2.2-1.7,3.5-1.2
	c1.4,0.5,2.2,2.4,3.3,7.8c2.2,9.8,1.7,21.5-1.2,30.3c-0.6,1.9-1,3.4-0.7,3.2c0.2-0.2,2.3-2.5,4.6-5.1l4.2-4.7l-0.2-1.9
	c-0.3-3.2,2.4-18.3,3.8-22.1c1-2.7,1.9-3.5,4.7-4.9c1-0.5,4.1-2.4,6.7-4.1c5.5-3.7,7.8-4.5,10.1-3.7l25-105.3l27.8,112.4h-49.6
	c0,0.4-0.2,0.8-0.7,1.7c4.3-0.4,8.3,3.3,9.1,5c0.7,1.3,0.7,1.4-0.5,4.5c-1.6,4.1-5.7,9-8.1,9.8c3.5,4,2.7,8.9,1.7,11.2
	c-0.9,2.4-4.5,4.1-9.1,4.6c-3.4,0.3-6.8,0-12.4-1.2c-2.5-0.5-4.9-1-5.4-1c-0.6,0-1.6,0.9-3.9,3.7c-1.7,2-5.2,6-7.7,8.8
	c-8.1,9.1-11.2,13.1-14.8,19.7c-3.4,6.2-4.6,9-6.7,15.5c-4.6,14.4-5,17.1-3.5,24.3c0.8,4,0.9,4,2.3-1.4c1.4-5.3,6.3-20.2,9.2-28.1
	c0.8-2.8,2.7-7.3,4-8.3c1.3-0.6,2.1-0.4,3,0.7c0.7,0.8,0.9,3.8,1,13.9c0,3.4,0.1,7.7,0.2,9.7c0.1,4.1-0.1,9.3-0.7,13.3
	c-0.3,2.2-0.9,4.1-3,9.3c-2.3,5.8-2.9,7.1-6.1,12.2c-1.9,3.2-4,6.6-4.7,7.7c-1.3,2.7-0.9,7.3-0.8,9.9c0.6,13.5-0.1,24-2.3,42.8
	l8.7,0l21.3-89.6l24.3,0c-1.3-4.1-3.5-8.9-6.4-13.7l-0.1,1.1c-0.8,6-7.5,8.7-10.7,4.4c-0.7-1-1.3-2.5-1.4-3.7c-0.1-1,0.2-3,0.5-4.3
	l0.4-1.2l-1.3,0.5c-2.9,1.2-7.3,0.9-9.4-0.7c-1.6-1.1-2.3-4.5-1.6-6.3c1.5-4.2,5.7-6.6,10-5.7l0.9,0.2l-0.4-1.3
	c-0.4-1.5-0.5-3.2-0.2-4.6c0.6-2.7,3.3-5.4,6-5.9c1-0.2,3.6,0.6,4.3,1.4c1.5,1.6,2.5,4.3,2.6,7.1c0,0.7,0.1,1.2,0.1,1.3
	c0,0,0.4-0.3,0.8-0.7c1.2-1.1,3.7-2.3,4.9-2.4c1,0,2.5,0.4,3.2,1.1c0.8,0.7,1.5,2.4,1.5,3.6c0.1,2.4-1.3,5.8-3.3,7.8
	c-1.1,1.1-3.6,2.5-5.6,2.9c0,0,0.4,0.6,1,1.2c1.5,1.7,3.2,4.5,5.2,8.6c1.3,2.4,3.5,7,4.4,9.2h6.9c0.5-0.4,0.5-1.5,0.5-1.8
	c-0.1-0.1-1.3-1.1-2.7-2.3c-5.2-4.5-7.9-7.8-8.9-11.2c-0.9-2.8,0-4.9,2.3-5.6c2.8-0.8,7,1.7,9.9,5.7c0.7,1,1.3,1.8,1.3,1.8
	c0.7-2.1,1.3-6.1,1.7-8c-2.1-0.9-3.4-3.9-5.1-8.2c-1.6-3.5-2.5-6.7-3-10.4c-0.8-3.8,3.1-10.2,8.5-2.8c0.3-1.7,1.2-3.8,2.1-4.6
	c2.2-1.9,5-1.6,7.3,3c0.7-1.5,2.4-4.6,3.4-6l-0.7-1.3c-1.5-2.8-2-4.8-2.1-7.7c-0.1-1.7,0-2.4,0.6-5.1c0.6-2.5,0.8-3.3,1.3-4.2
	c1.2-2.1,3.3-2.7,5.1-1.5c1.5,1,3.7,6,2.8,9.9c1.6-2,4.9-3.7,6.4-4.3c3.8-1.3,7.4,1,7.2,4.7c-0.1,1.8-1.9,4.6-4.1,6.4
	c-2.3,1.8-6.2,3.4-10.5,4.2l-2.4,0.4c-1,1.9-3.1,5.5-3.6,7.7c3.3-1,6.3-0.3,7.4,1.9c1,1.9,0.6,4.2-1.1,6.9c-3.5,5-11,11.7-15.4,11.3
	c0,2.5-0.7,8.2-1.2,10.3c1.3-1.4,4.7-4,7.1-5.7c4.1-3.6,9.2-3,10.3-2.4c3.1,1.6,2.2,5.6-2.2,9.5c-3.9,3.2-11.8,6.9-16.9,8.2
	c0,0.3,0.1,1.1,0.3,1.2l53.6,0c-0.6-1.6-3.5-7.7,4.3-9.9c0-0.1-0.5-1.1-1.3-2.2c-1.5-2.3-1.9-3.8-1.4-5.7c0.3-1,0.1-1.6-1-4.6
	c-0.7-1.9-1.4-4-1.5-4.7c-0.4-2.8,1.1-4.7,3.3-4.4c1,0.1,4,1.8,6.5,3.4c0.6,0.4,0.6,0.2,0.8-1.9c0.1-1.8,0.4-2.5,1.1-3.3
	c2-2.1,3.8-1.3,7.6,3.2c4.8,5.6,5.2,5.9,7.9,4.9c4-1.5,7.3,1.4,7.8,6.9c0.6,5.8-0.2,12-2.6,21.1l-0.7,2.8l3.4,6.9
	c2.9,5.9,3.8,7.9,5.8,13.7c1.3,3.7,2.7,8.4,3.2,10.3c0.4,1.9,0.8,3.6,0.9,3.8s0.5-1.5,1.1-3.7c0.8-3.4,2.9-10.8,3.9-13.6
	c0.3-0.8,0.2-1-1-2.8c-0.7-1-2.3-3.2-3.5-4.7c-5.8-7.3-7.7-11.7-7.1-16.8c0.4-3.3,3.2-7.5,5.7-8.5c2.4-0.9,5.1,0,6.8,2.2l0.8,1
	l2.5-4.7c3.1-5.8,3.9-6.8,5.7-6.9c1.5-0.1,2.5,0.6,4.3,2.9l1.2,1.6l2.1-0.8c3.9-1.5,5.5-0.6,7.5,4.2c0.8,1.8,1.8,3.6,2.5,4.5
	c2.6,3.2,2.7,5.7,0.3,9.7c-1.4,2.3-4.7,6.2-7,8.1c-3,2.5-10.2,7.6-12.8,9.1c-1.5,0.8-2.8,1.8-3,2c-0.6,0.8-1.9,4.9-3.5,10.7
	c-1.6,5.8-2.4,10.1-3.1,15.7l-0.5,3.6l1.9-4c1.1-2.2,3.1-5.9,4.6-8.3c1.5-2.4,4.1-6.7,5.8-9.6c4-6.6,4.9-7.9,6.2-8.4
	c1.1-0.4,2.4,0,3.2,1.1c1.6,2.3,1.1,10.2-1.1,17.6c-1.8,6.3-4.5,12.4-11.6,27.2c-3.1,6.4-5.7,14.8-5.4,20.9l51.9,0
	c-4.9-4.1-8.8-8.8-12.1-12.9c-6-7.3-8.8-12.4-8.2-15c0.4-1.6,1.8-2.6,3.5-2.3c1.7,0.3,7.3,4.3,10.4,7.5c1.9,1.9,2.7,2.8,4.9,5.7
	l1.9,2.4l-0.6-1.8c-2.1-6.4-4.7-13.2-5.7-15.2c-0.7-1.4-0.9-1.5-2.1-1.3c-2.2,0.3-3.7-0.3-5-1.9c-0.6-0.8-0.8-1.3-1.3-3.2
	c-0.3-1.2-0.6-2.3-0.6-2.3c0,0-0.3,0.3-0.7,0.7c-1.7,1.8-5,3.3-7.2,3.1c-1.5-0.1-3.3-1.1-4.1-2.2c-0.8-1.1-2.1-5.5-2.2-7.6
	c-0.1-1.7,0.2-3.8,0.8-4.7c0.8-1.2,2.5-2,4-1.9c0.4,0,0.7,0,0.8,0c0-0.1-0.2-0.6-0.6-1.3c-1.7-3.3-1-7.1,1.7-8.9
	c1.1-0.7,3.5-1.4,4.9-1.4c2,0,3.7,0.9,4.9,2.6c0.2,0.4,0.8,1.8,1.3,3.3l0.8,2.7l1-1.6c1.7-2.6,3.7-4.1,5.8-4.1
	C346.5,416.8,348.3,417.3,349.7,421.7z M350.4,431.2c-0.6,0.7-1.4,3.1-6.6,1.3c2.3,1.8,4.5,4.9,4,6.7c-0.3,1.1-1.4,2.8-2.5,3.7
	c-1,0.8-1,0.8-0.5,1.5c0.6,0.8,5.9,13.8,7.2,17.4C351.8,451.8,351.2,441.1,350.4,431.2z M218.3,180.7c1.4,1.1,2.8,2.2,4.2,3.2
	c1.4,1.1,2.7,2.2,4.1,3.3c1.3,0.8,2.7,1.5,4.2,1.9c1.7,0.6,3.2,1.4,4.7,2.5c3.1,1.7,6.3,3.2,9.7,4.2c2.6,0.6,5.2,0.8,7.9,0.6
	c2-0.2,3.8-1.4,4.6-3.2c0.6-1.2,1.3-2.3,2-3.4c0.3-0.5,0.8-0.8,1.4-0.9c0.2,0,0.2,0.3,0,0.5c-0.7,0.8-1.2,1.8-1.5,2.9
	c-0.1,0.9-0.2,1.7-0.2,2.6c-0.2,0.8-0.6,1.6-1.2,2.2c-0.8,0.8-1.3,1.7-1.6,2.8c-0.1,0.6-0.2,1.3-0.3,1.9c-0.3,0.8-0.8,1.6-1.4,2.2
	c-1,1.2-1.6,2.6-1.9,4.2c-0.6,1.7-1.4,3.2-2.5,4.6c-0.7,0.8-1.3,1.8-1.7,2.8c-0.2,0.6-0.3,1.3-0.5,1.9c-0.2,0.8-0.6,1.6-1.2,2.3
	c-0.9,1.2-1.6,2.6-2,4.1c-0.6,1.4-1.3,2.8-2,4.2c-0.6,1.2-1.1,2.4-1.6,3.6c-0.5,1-0.5,2.1-0.6,3.2c-0.1,0.8,0.4,1.4,1.8,0.2
	c1.1-1,2-2.3,2.7-3.7c0.9-1.8,1.8-3.5,2.7-5.3c0.6-0.9,1.2-1.8,1.7-2.8c0.4-0.8,0.7-1.6,0.9-2.5c0.3-0.8,0.7-1.6,1.3-2.2
	c0.9-1,1.5-2.2,1.8-3.5c0.4-1.7,1.1-3.3,2-4.9c0.7-0.9,1.3-1.8,1.8-2.7c0.4-1,0.8-2.1,1-3.1c0.3-0.8,0.8-1.5,1.5-2.1
	c0.8-0.8,1.3-1.8,1.5-2.8c0.1-0.6,0.2-1.3,0.4-1.9c0.3-0.8,0.9-1.5,1.7-1.9c1.1-0.8,1.8-1.9,2.1-3.2c0.1-0.4,0.2-0.7,0.4-1
	c0.1-0.1,0.3-0.1,0.3,0.2c0,0.9-0.2,1.7-0.6,2.4c-0.6,1.2-1.2,2.4-1.6,3.6c-0.4,1.5-0.2,3.1,0.6,4.4c1.7,2.9,3.9,5.3,6.6,7.3
	c3.1,2.1,6.4,3.9,9.9,5.3c1.3,0.7,2.6,1.6,3.9,2.5c1.5,0.9,3.2,1.5,4.9,1.9c1.9,0.5,3.8,1.1,5.7,1.8c1,0.4,2.1,0.6,3.2,0.6
	c2.6,0.2,1.9-3,1.6-3.8c-0.6-1.4-1.5-2.7-2.5-3.8c-1.6-1.8-3.4-3.5-5.4-4.9c-1.4-1.1-2.7-2.2-4.1-3.3c-2.5-1.7-4.9-3.7-7.2-5.8
	c-2.6-2.4-5.2-4.8-7.7-7.2c-0.6-0.6-1.3-1.2-2-1.8c-0.7-0.6-0.4-0.8-0.3-0.7c0.6,0.2,1.1,0.5,1.6,0.8c2.4,1.6,4.7,3.3,7,5
	c1.9,1.5,3.9,2.9,5.9,4.2c2.3,1.3,4.8,2.3,7.3,3c2.5,0.7,5.2,1.2,7.8,1.3c1.5,0,3.1-0.2,4.6-0.5c2-0.2,4-0.2,5.9-0.2
	c0.8,0,2.1-0.3,2.2-1.7c-0.1-1.1-0.5-2.1-1.3-2.9c-1.2-1.2-2.7-2.2-4.4-2.9c-3.7-1.5-7.5-2.7-11.3-3.6c-2.8-0.8-5.4-1.9-7.9-3.2
	c-1.8-0.9-3.5-1.8-5.3-2.7c-3.4-1.5-7-2.5-10.7-3c-0.9-0.2-0.3-1.1-0.1-1.7c0.3-0.8,0.2-1.7-0.1-2.5c-0.3-0.5-0.1-1.2,0.3-1.3
	c0.4-0.1,0.8-0.1,1.2,0c0.9,0,1.7-0.4,2.2-1.1c0.2-0.4,0.3-0.8,0.3-1.2c-0.1-0.9-0.5-1.7-1-2.4c-0.5-0.7-1-1.4-1.6-2.1
	c-0.6-0.6-1.5-0.8-2.4-0.7c-1.1,0-2.2,0-3.3,0.3c-0.4,0.1-0.8,0.3-1.1,0.6c-0.6,0.6-0.8,1.5-0.5,2.3c0.3,0.6,0.6,1.1,1,1.6
	c0.1,0.2,0.3,0.5,0,0.8c-0.3,0.3-0.6,0.5-1,0.6c-0.4,0.1-0.8,0.3-1.1,0.6c-0.5,0.4-0.9,1-1.1,1.5c-0.1,0.5-0.8,0.6-1.6-0.4
	c-2.7-2.9-5.9-5.3-9.5-7.1c-3-1.4-5.9-3-8.7-4.8c-1.8-1.3-3.5-2.7-5.1-4.1c-2.4-2-4.9-3.8-7.6-5.3c-1.3-0.8-2.8-1.3-4.3-1.5
	c-0.9-0.1-1.8,0.1-2.5,0.5c-1.6,0.8-0.7,3,0.5,4.3c1.3,1.8,2.4,3.7,3.4,5.7c1.1,1.9,2.4,3.7,4.1,5.2c2.7,2.6,5.7,4.8,9.1,6.5
	c2.2,1,4.5,1.8,6.8,2.5l0.6,0.2c3,0.9,5.9,1.9,8.7,3.1c0.6,0.3,0.7,0.6,0.3,0.6c-3.9-0.8-7.8-1.6-11.6-2.4c-2.4-0.5-4.7-1.1-7.1-1.7
	c-2.7-1-5.4-1.8-8.2-2.5c-2.3-0.8-4.7-1.4-7.1-1.7c-1.5-0.2-3.1-0.2-4.6,0c-0.9,0.2-1.7,0.5-2.4,1.1
	C216.5,177.8,217.1,179.7,218.3,180.7z"/>
<path class="st3" d="M1166.9,0c-1.2,0.1-2.2,1.2-2.2,2.4v477.2c0.1,1.3,1.1,2.3,2.3,2.3h135.6c22,0.2,43.9-1.6,65.5-5.4
	c16-2.7,31.5-7.8,45.9-15.3c25.1-13.8,46.1-33.9,61-58.3c12.9-21.4,22.7-44.4,29-68.5l1.3-4.8c7.2-29.8,10.7-60.4,10.4-91.1
	c0.3-28.3-2.4-56.6-8-84.3l0-0.1c-4.5-22.3-12.4-43.8-23.5-63.7c-10.5-19.2-24.7-36.3-41.6-50.2c-15.6-12.4-33.4-21.6-52.6-27.2
	c-23-6.8-46.7-10.8-70.7-12c-9.4-0.6-18.7-0.8-28.1-0.8L1166.9,0z M1322.1,124.5c-4.6-0.9-9.3-1.5-14-1.7v236.4
	c8.2-0.2,16.2-1.9,23.8-4.9c6-2.6,11.2-7,14.7-12.5c6.9-10.6,11.8-22.4,14.4-34.8c3-14,4.9-28.3,5.5-42.7c1.3-21.2,1-42.5-0.7-63.7
	c-0.9-12.9-3.4-25.7-7.4-38.1c-3-9.1-7.5-17.7-13.4-25.4c-4.5-5.7-10.7-9-17.7-11.3C1325.6,125.3,1323.9,124.8,1322.1,124.5z
	 M1403.5,252.4c0.9-0.1,2.4-0.5,3.3-0.8l1.6-0.6l-4.1-3c-4.5-3.2-8.8-5.5-12.4-6.8c-2.9-1-4.7-0.9-6.9,0.2c-1.8,0.9-5,3.8-5,4.6
	c0,0.3,0.5,1.1,1.1,1.7c1.8,1.9,6.7,4,10.9,4.6C1394.1,252.7,1401,252.7,1403.5,252.4z M1413.3,242.9l0.8-0.5l-0.6-4
	c-0.3-2.2-0.7-4.6-0.8-5.5c-0.2-1.9-1.4-4.5-2.6-5.9c-0.5-0.6-1.7-1.4-2.5-1.8c-1.3-0.6-1.9-0.8-4-0.8c-2.2,0-2.7,0-4.3,0.8
	c-1.9,0.9-4.2,2.9-4.2,3.7c0,1.8,3,5.2,10.4,11.7l5.2,4.6l0.9-0.9C1412.1,243.8,1412.9,243.2,1413.3,242.9z M1422.4,239.1
	c1.9-0.7,3.3-0.9,4.4-0.7c0.4,0.1,1-1.4,3.9-10.3c2.1-6.4,2.7-8.8,2.5-11.2c-0.1-2.3-0.6-3-2.1-3c-1.7,0-3.9,0.4-5.4,1.1
	c-1.9,0.9-4.7,3.6-5.8,5.6c-1.7,3.3-2.3,8-1.4,11.7c0.3,1.1,0.6,2.9,0.7,3.9c0.1,1.1,0.3,2.3,0.4,2.8c0.1,0.5,0.2,0.9,0.3,0.9
	C1420.2,239.9,1421.3,239.6,1422.4,239.1z M1385.3,235.4c1.1-0.3,2.2-0.4,4.2-0.2l2.7,0.2l-0.6-0.9c-1.3-1.8-1.8-3.3-1.9-5.3l-0.1-2
	l-1.3-0.7c-2.8-1.5-6.2-0.6-7.6,1.9c-0.5,1-0.6,2.7-0.1,4c0.4,1,2.4,3.4,2.9,3.4C1383.6,235.8,1384.4,235.6,1385.3,235.4z
	 M1413.9,220.5c0.6-1.9,2.2-4.6,3.4-5.8c0.6-0.6,0.7-0.9,0.6-2.1c-0.2-3.1-3-4.7-6.3-3.7c-2.2,0.7-4.8,4.7-5.2,8.2l-0.2,1.7l1.6,0.5
	c1.6,0.5,4.8,2.2,5.1,2.7C1413.3,222.5,1413.3,222.4,1413.9,220.5z M1395.5,220.8c0.7-0.4,1.9-1,2.6-1.2c0.7-0.2,1.3-0.5,1.4-0.6
	c0.4-0.3-1.5-3.5-2.5-4.1c-0.7-0.5-1.2-0.6-2.1-0.6c-1.7,0.1-2.7,1.1-2.7,2.7c0,1.2,1.3,4.6,1.7,4.6
	C1394.1,221.6,1394.8,221.3,1395.5,220.8z M1438.4,422.3c4.5-6.7,9.5-12.8,15.6-19c10.4-10.5,15.7-18.1,17.2-22.5
	c1.7-5.1,2.1-9.1,0.4-10.2c-1.7-1.1-6.4,0.5-10.9,3.7c-4.9,3.5-11.8,12.9-15.8,21.7c-3.5,7.7-6.7,17-7.2,21.6
	c-0.4,2.8-0.5,6.2-0.4,6.2C1437.4,423.7,1437.9,423.1,1438.4,422.3z M1426.9,417.3c-0.4-17.2-3.1-35.4-7.1-48.5
	c-1.3-4.1-3.7-10.4-5.7-14.5c-3.3-6.9-8.1-14.5-10.6-16.8c-0.4-0.3-1.1-0.1-1.2,0.5c-0.5,5.4,3,22.3,8.1,39.9
	c3.2,11,5.5,17.3,11.1,30.9c1.8,4.2,3.6,8.7,4.1,9.9c0.5,1.2,1,2.2,1.1,2.2C1426.9,420.9,1426.9,419.3,1426.9,417.3z M1456.8,336
	c6.2-3.5,8.3-4.8,14.8-9.6c12.1-8.8,16.5-12.8,20-17.9c2.9-4.2,4.8-9.8,3.7-10.8c-1.3-1.2-10.1,2.9-16.7,7.7
	c-7.8,5.7-18.1,15.9-25.2,25.3c-4.3,5.7-5.3,9.6-5.4,9.9c-0.1,0.4,0.2,0.3,1.8-0.6C1450.9,339.4,1454,337.6,1456.8,336z
	 M1440.5,336.1c-0.1-1.1-0.5-5.1-0.9-8.9c-0.4-3.8-0.9-7.8-1.1-9c-1-4.8-3.5-11.9-5.3-15.1c-1.8-3.3-4.4-6.1-5.3-5.7
	c-0.9,0.4-1,4.8-0.2,8.4c0.9,4.3,3.4,12,5.7,17.4c2.6,6.4,6.7,14.9,7.2,14.9C1440.7,338.1,1440.7,337.4,1440.5,336.1z M1459.9,310.5
	c3.6-5.1,5.2-8.5,11.5-24.1c2.9-7.2,5.6-16.2,6.6-22.5c0.5-3,0.6-9,0.2-9c-0.6,0-2.8,2.2-4.2,4.1c-4.8,6.4-7.7,12.1-11.8,23.2
	c-3.5,9.6-5.4,15.5-7.4,23.7c-1.2,5.1-3.2,14.2-3.2,14.7C1451.7,321.1,1457.4,314.1,1459.9,310.5z M1454.1,223.2
	c4.9-11.7,6.9-17.1,9.6-25.8c3.2-10.5,4.5-20.1,4-27.8c-0.3-3.8-1.2-6.9-3.1-6.2c-1.7,1.1-4.3,5-6.3,9.1c-4.6,9.9-7.1,22.9-7.3,38.4
	c-0.1,4.8,0.4,18.5,0.6,18.2C1451.6,229.2,1452.8,226.4,1454.1,223.2z M1419.1,166c-2.8-4.2-12.8-17.4-18.3-24.2
	c-8.4-10.3-14.4-15.7-22.5-20.2c-3.4-1.9-6-2.7-8.5-2.6c-3.7,0.1-5,1.5-4.6,4.9c0.6,5.8,6.4,13,17,21.1c7.5,5.7,16.7,11.7,24.3,15.8
	c3.6,1.9,12.6,6.2,13,6.2C1419.6,167,1419.4,166.5,1419.1,166z M1431.2,161.3c0.6-1.1,2.6-4.8,4.5-8.2
	c11.3-19.9,14.6-27.6,15.8-36.5c0.6-4.4,0.3-13.4-0.5-15.7c-0.5-1.4-0.6-1.5-1.4-1.4c-4,0.2-11.1,11.5-16.1,25.6
	c-2.4,6.9-3.9,13.1-4.8,20.4c-0.3,2.5,0.8,12.4,0.9,14.4c0.2,2,0.4,3.6,0.4,3.6C1430.1,163.4,1430.6,162.5,1431.2,161.3z
	 M1419.4,134.8c-2.9-23.7-5-33-10.1-46.9c-4-10.8-7-16-10-17.4c-1.9-0.9-2.9-0.3-3.5,2.2c-2.1,8.3,1.7,26.7,9.8,47.6
	c3.5,8.7,9.3,28,15,33.4C1420.7,149,1420.2,139.6,1419.4,134.8z M1218.9,399.5c0.7-8.2,1.9-13.3,6.5-27.1c1.7-5,3.2-9.8,3.4-10.6
	c0.4-1.7,0.4-1.9,0.5,4.6c0.1,13.3-0.2,16.3-2.5,22.7c-1.6,4.6-3.1,7.6-7,13.8c-1.3,2-1.3,2.1-1.3,0.9
	C1218.7,403.2,1218.8,401.3,1218.9,399.5z M1205.9,388.7c-2.3-3.7-3.7-7-6.9-16.3c-3.4-9.5-5.2-14-7.2-17.2
	c-1.9-3.1-1.9-3.1,0.3-1.2c7.5,6.8,12.2,14.3,16.2,26.1c0.6,1.8,2.6,14.9,2.4,15.5C1210.5,395.9,1208.2,392.5,1205.9,388.7z
	 M1198.6,326c-0.7-0.7-9.7-11.1-13.1-15.5c-1.3-1.8-7.6-11.3-8.4-14.3c1.8-0.1,4.3,3.1,6.1,4.7c5.1,5.4,11,12.7,14.2,19.1
	c0.9,1.9,2,4,2.4,4.7C1200.6,326.3,1200.3,327.7,1198.6,326z M1231.7,317.3c0.3-1.5,1.4-5.9,2.5-9.6c1.8-6.4,3.8-14.5,3.9-16.1
	c0.1-1.8,0.4,1.8,0.3,5.7c0,8.3-1.9,15.5-6.2,23.5l-1.3,2.5C1230.9,322.2,1231.1,319.4,1231.7,317.3z M1188.7,281.2
	c-2.2-3-3.6-5.8-3.9-8.3c-0.2-1.6,0.9-1.3,3.7,3.2c2.6,4.2,4.4,7.3,2.9,8.3C1191.2,284.3,1189.9,282.8,1188.7,281.2z M1196.8,282.1
	c-0.4-2.8-0.5-8.7-0.3-9.4c0.1-0.2,6.2-2.8,6.3-0.9c0.2,0.4-0.7,4.1-1.5,6c-1,2.6-3.7,7.2-4,7.1
	C1197.3,284.8,1197,283.6,1196.8,282.1z M1258.9,308.4c0-0.1,2.7-1.1,6-2.3c3.3-1.2,6.5-2.4,7.2-2.6c3-0.6,2.4,4.6,0.5,5.3
	c-3.3,1.1-8.1,1-13.4-0.2C1258.9,308.6,1258.8,308.5,1258.9,308.4z M1255.5,292.8c0.6-3.2,1.4-6.5,1.8-7.4c0.6-1.5,0.8-1.7,2.7-2.5
	c1.1-0.5,3.9-2.2,6.1-3.7c5.1-3.5,5.9-3.8,6-3c0.2,0.9-1.3,4.4-3,7.1c-0.8,1.3-3,4.1-4.8,6.1l-10.5,12L1255.5,292.8z M1265.4,296.3
	c5.9-6.4,9-9.5,11-10.8c0.9-0.6,2.4-0.6,3.2,0c1.1,0.9,1.3,1.2,1.1,2c-0.4,1.4-3.1,4.6-5.3,6.3c-1.8,1.4-14.2,7.9-14.3,7.6
	C1261,301.1,1263,298.9,1265.4,296.3z M1190,266.3c0.1-2.1,0.3-4.1,0.5-4.5c0.3-0.7,0.5-0.7,1.5-0.3c1.5,0.6,2.1,1.3,3.1,3.4
	c0.6,1,0,2.1-0.9,2.3c-1.6,0.6-1.6,0.7-2.3,2.9c-0.3,2.1-1,2-1.4,1.1C1190,270.3,1189.8,269.2,1190,266.3z M1221,252.6
	c-0.8-2.7-0.9-4.6-0.4-9.7c0.7-7.7,0.7-9.2-1-21.1c-0.4-3-0.8-7.2-0.9-9.4s-0.2-5.1-0.3-6.6l-0.2-2.7l1.7,3.1
	c2.9,5.3,4.6,10.6,5,15.8c0.3,3.6-0.1,16.5-0.7,21.3c-0.3,2.7-1.7,10.6-2,11.3C1222,255.1,1221.5,254.2,1221,252.6z M1229.6,249.6
	c1.9-3,6-7.7,10.5-16.8c1.3-2.6,2.9-6.5,4.2-10.2c2.2-6.1,3.8-9.5,7-14.6c0.9-1.4,1.8-2.7,2-2.8s0,1.6-0.4,3.7
	c-2.3,12.1-5.3,19.9-12.2,31.2c-3.5,5.7-4.8,7.5-7.8,10.7c-2,2.1-3.5,4-5.2,4.7C1227.8,255.4,1228.6,251.3,1229.6,249.6z
	 M1235,191.5c-1.1-2.7-1.1-4.9-0.2-7.3c0.7-1.9,3-6.2,4.4-8.3l0.6-0.9l0.1,1c0.2,1.7-0.4,6.1-1.5,10.9c-0.4,1.9-1.2,5.9-1.3,7.9
	C1236.6,194.1,1235.5,192.5,1235,191.5z M1243,190.7c0.4-2,0.8-2.9,1.7-4.3c1.6-2.3,9.2-11.4,9.5-11.3c0.4,0.1,0.3,1.8,0,3.5
	c-0.2,1-1.1,2.6-2.5,4.7c-2.5,3.7-9.1,11.3-9.2,10.4C1242.5,193.5,1242.7,192.1,1243,190.7z M1224.4,458.9
	c3.6-6.7,6.5-10.7,15.5-20.8c3.3-3.7,6.3-7.2,6.8-7.8c1-1.3,1-1.4-1.3,4.1c-4.7,11.4-6.1,13.8-10.4,18.5c-3.1,3.3-5.5,5.4-11,9.3
	c-1.8,1.3-1.8,1.3-1.4,0.3C1222.9,462,1223.7,460.4,1224.4,458.9z M1199.8,469.8c0.1-2.8-4-9.1-4.9-9.8c-7.6,1.9-10.3-6.5-5.1-9.7
	c6.3-4,9.6,3,8.3,5.5l9.2,10.2c-2.4-6.1-6.5-19.1-7.5-26.6c-2.6,0.2-8.1,0.1-8.2-6.8c-0.5-8.4-0.5-12.7-0.7-19
	c-0.4-4.9-1.7-9.6-3.7-14c-1.3-3.3,3.3-1.4,5.3,1c7.4,10.1,13.6,25.5,13.8,31.2c0.1,4.2-0.2,4.7-1.2,5.3c1.2,5.8,4,14.7,6.4,22.5
	c2.2-18.1,3.1-25.4,2.3-39.7c-0.6-10.8-0.9-12.6-2.7-14.7c-3-3.5-9.8-13.9-11.9-18.3c-0.6-1.3-2.2-5.2-3.4-8.8
	c-3.7-10.7-5.1-14.3-7-17.8c-2.2-4.1-3-5.6-5.7-9.8c-1.7-2.4,0.6-5.3,2.4-5.4c2.7-0.2,5.8,1.4,9.3,4.7c3.7,3.3,8.8,8.2,12,13.9
	c-1.4-6.7-0.9-9.8-0.9-12.6c-0.2-7.7-0.4-13.8-2.7-16.9c-0.5,0.1-4.1-2.5-6.7-4.8c-1.4-1.2-15.3-16.3-20.1-25.9v166.3H1199.8z
	 M1298.2,463.8c1.7-3.2,4.5-10.1,5.3-13c1-3.9,1.3-6.8,1.1-9.9c-0.3-3-0.7-4.5-1.7-5.2c-0.6-0.4-0.6-0.4-1.1,0.1
	c-0.7,0.8-1.6,3.2-2.3,5.9c-0.7,3-2,13.1-2.5,19c-0.2,2.7-0.4,5-0.5,5.3C1296.5,466.9,1296.9,466.3,1298.2,463.8z M1286,463.5
	c-3.4-7.5-6.9-13.8-10.1-17.9c-2.2-2.9-5-5.9-5.1-5.5c-0.2,0.8,3.8,8.5,7.7,14.7c2.3,3.7,8.8,12.5,8.9,12.1
	C1287.4,466.7,1286.8,465.2,1286,463.5z M1286.6,412.8c0.9-0.1,2.1-0.5,2.6-0.9c0.9-0.5,0.9-0.6,0.7-1.3c-0.2-0.4-1.2-2-2.3-3.7
	c-2-2.9-2-3-3-2.9c-2.3,0.2-2.2,0.1-2.8,4.3c-0.6,4-0.5,4.3,1.6,4.5C1284.3,413,1285.7,412.9,1286.6,412.8z M1270.2,402.4
	c0.8-0.1,1.8-0.4,2.3-0.6c1.6-0.8,4.2-2.8,4.2-3.2c0.1-0.9-7.3-6.8-8.7-6.9c-0.8-0.1-1.8,3.4-1.9,6.5c-0.1,3.2,0,3.6,0.8,4
	C1267.9,402.6,1268.5,402.7,1270.2,402.4z M1298.6,400c0.1-0.4,0.3-2.1,0.4-3.9c0.2-2.6,0.1-3.4-0.3-4.5c-0.6-1.6-1.1-1.8-3-1
	c-1.2,0.5-6.2,4.5-6.2,5c-0.1,0.6,0.8,1.2,3.7,2.9C1297.3,400.8,1298.2,401.1,1298.6,400z M1280.9,391.5c1.4-0.5,1.6-1.1,2.1-5.9
	c0.4-4.1,0.2-4.7-1.4-5.3c-1.7-0.6-3.4-0.5-4.3,0.3c-0.7,0.6-0.7,0.9-0.8,2.6c0,1.1,0.1,2.5,0.4,3.3c0.4,1.4,2.4,5.3,2.7,5.4
	C1279.7,392,1280.3,391.8,1280.9,391.5z M1313.3,468.3c5-5.9,7.1-7.4,11-10.2c2.8-2,6.1-4,6.1-3.6c0,0.8-6.4,7.8-11.5,12.4
	C1315.8,469.6,1312.2,469.7,1313.3,468.3z M1319.7,434.5c-0.8-0.3-1.8-0.8-2.3-1.2c-0.7-0.6-0.8-0.7-0.4-1.3c0.2-0.3,1.4-1.7,2.7-3
	c2.3-2.4,2.3-2.4,3.2-2.2c2.1,0.5,2,0.4,1.9,4.4c-0.1,3.8-0.2,4.1-2.2,3.9C1321.8,435.1,1320.5,434.8,1319.7,434.5z M1336.5,427.6
	c-0.7-0.3-1.6-0.7-2-0.9c-1.3-1-3.4-3.2-3.4-3.6c0.1-0.9,7.8-5.1,9.1-5c0.7,0.1,1.1,3.5,0.7,6.3c-0.4,2.9-0.6,3.4-1.4,3.6
	C1338.5,428.2,1338,428.1,1336.5,427.6z M1310.6,420.8c-0.1-0.4,0-2,0.2-3.6c0.3-2.4,0.4-3.2,1-4.1c0.8-1.3,1.3-1.4,2.9-0.5
	c1,0.6,5,5.1,5,5.6c0,0.5-0.9,1-3.9,2.1C1311.7,421.8,1310.8,421.9,1310.6,420.8z M1328.3,415.8c-1.2-0.7-1.3-1.3-1-5.7
	c0.3-3.8,0.5-4.4,2.1-4.7c1.6-0.3,3.2,0.1,3.9,1c0.5,0.7,0.5,0.9,0.3,2.5c-0.1,1-0.5,2.3-0.9,3c-0.6,1.2-3.1,4.5-3.3,4.5
	C1329.3,416.4,1328.8,416.2,1328.3,415.8z M1398.1,454.5c2.8-5.8,2.9-24.3,1.7-30.5c-1.2-6.3-0.9-6.5-4.3,3.6
	c-3.4,9.8-4.3,13.8-4.5,19.5c-0.1,1.9,1.3,10.4,1.3,10.5C1393.7,457,1397.3,455.8,1398.1,454.5z M1381.9,445.5
	c-1.5-4.4-4.9-10.6-8.6-15.8c-1.8-2.5-6.1-7.7-6.3-7.6c-0.4,0.1,2.1,8.9,3.4,11.8c2.4,5.6,8.4,20.1,13.7,26c0.9,0.2,2.2-1,1.9-4.4
	C1386,454.5,1383.7,449.1,1381.9,445.5z M1366.6,403.6c1.2-2.6,1-9.8-0.5-14.8c-0.9-3.2-3.5-8.7-3.4-7.3c0,0.5,0,2.3-0.2,3.9
	c-0.7,7.3,0.2,14.2,2.4,17.9C1365.7,404.6,1366.1,404.7,1366.6,403.6z M1389.4,397c-0.2-1.2-2.2-4.2-4.5-6.5
	c-2.7-2.8-6.5-5.7-11.1-8.7c-2.1-1.4-4.2-2.7-4.6-3c-0.8-0.5,3.1,4.2,6.5,7.8c3.9,4.3,9.3,9,12,10.5
	C1389.3,398,1389.5,398,1389.4,397z M1348.6,400c2.2-1.5,6.4-10.6,7.9-17c0.2-1,0.4-1.6-0.9,0.1c-3.5,4.3-4.4,5.5-5.6,7.8
	c-1.8,3.4-2.4,4.9-2.7,6.9c-0.2,1.5,0,2.7,0.4,2.7C1347.8,400.5,1348.2,400.2,1348.6,400z M1338.2,389.4c2.7-0.9,9.5-6,12.2-9.2
	l1.5-1.7c-2.5-0.2-7.3,0.4-9.7,1.3c-2.5,0.8-3.9,1.7-6.2,3.7C1331,387.9,1332.4,391.4,1338.2,389.4z M1391.8,379.2
	c-2.8-1.7-6.8-3.5-9.4-4.2c-2.4-0.6-8.7-1.6-9.1-1.3c-0.7,0.3,9.9,4.7,14.1,5.8c1.5,0.4,5.7,1.2,6.2,1.1
	C1394,380.5,1392.9,379.8,1391.8,379.2z M1497.2,311.8c-2,9.6-4.3,19.1-7.1,28.5c-3.1,10.3-6.9,20.4-11.3,30.2
	c0-7.2-6.9-7.7-11.9-6.3c-6.5,1.9-12.9,6.9-18.4,14.1c-2.8,3.7-6.6,10-8.3,13.5c-0.7,1.5-1.4,2.7-1.5,2.6c-0.2-0.2,0.5-7.1,1.3-13.5
	c1.3-10.5,4.1-26.3,5-30.2c0.3-1.1,3.4-3.2,12.8-8.6c8-4.6,9.4-5.4,14.5-9.1C1486.8,323.8,1493.7,316.1,1497.2,311.8z M1229.7,469.8
	c4.5-3.2,12.6-15.5,13.7-17.3c5.7-9,7-18.1,8.2-21c3.6-8.6,4.5-11.2,4.3-12.2c-0.7-2.7-5.5-1.1-9,3.1c-5.4,5.7-14.3,13.4-17.4,17.4
	c-5.1,5.1-9.2,11.9-12.2,18.2c2.3-18.7,2.2-21.6,1.7-35.2c-0.1-2.5-0.3-7.4,0.8-9.9c0.6-1.1,2.8-4.5,4.7-7.6
	c3.1-5.1,3.8-6.4,6.1-12.2c2.1-5.1,2.7-7,3-9.3c0.6-4,0.9-9.1,0.8-13.2c-0.1-1.9-0.1-6.3-0.1-9.7c0-10.1-0.2-13-0.9-13.9
	c-1.9-2.4-5.4,1.9-7.1,7.5c-3,8-7.9,22.8-9.4,28.1c-1.5,5.4-1.5,5.4-2.3,1.4c-1.4-7.2-1-9.9,3.7-24.3c2.1-6.5,3.3-9.3,6.8-15.4
	c3.7-6.6,6.8-10.6,14.9-19.6c2.5-2.8,6-6.7,7.8-8.8c2.4-2.8,3.4-3.7,4-3.7c0.4,0,2.9,0.5,5.4,1c5.6,1.2,9,1.6,12.4,1.3
	c4.6-0.4,8.2-2.2,9.1-4.5c2.2-3.8,0.9-9.2-1.6-11.2l1.9-1.4c3.1-2.3,4.9-4.8,6.4-8.3c1.2-3.1,1.2-3.1,0.6-4.5
	c-0.8-1.7-1.9-4.2-9.7-3.7c3.1-4.9,0.4-9.1-2.1-10c-2.3-0.9-4.3-0.2-9.8,3.5c-2.7,1.8-5.7,3.6-6.7,4.1c-2.8,1.4-3.6,2.2-4.7,4.9
	c-1.5,3.8-4.2,18.8-4,22l0.1,1.9l-4.2,4.7c-2.3,2.6-4.4,4.9-4.6,5.1c-0.2,0.2,0.1-1.2,0.8-3.2c2.9-8.8,3.5-20.5,1.4-30.3
	c-1.1-5.3-1.9-7.2-3.3-7.8c-1.4-0.5-3.5,0.2-3.5,1.2c-0.2,1.6-2.6,15.8-3.2,18.6c-0.4,1.8-1.6,6.4-2.7,10.3
	c-1.1,3.9-2.3,8.7-2.7,10.7c-0.9,4.8-1.2,11.2-0.8,14c0.5,2.4-0.9,4.1-1.5,5.1c-4.1,6.2-6.1,10.1-8.9,17.2c-1.5,3.8-1.8,4.4-2.8,6.8
	c-0.1-0.4,0.5-17.8,0.9-22.3c0.6-8.5,1.1-12.6,3.2-26.6c2.6-17.1,4.8-29.1,7.3-39.1l2-8.1l2.1-1.8c1.1-1,3.4-3,5-4.3
	c4.3-3.6,7.5-7.6,11.5-14.1c6.2-10.2,8.6-15.5,11.1-24.5c2.6-9.4,4.4-22.7,3.3-24.4c-1.3-2-3.6-1.6-5.3,1c-0.6,1-2.5,3.6-4.1,5.8
	c-4.5,6.2-7,11.1-9.6,18.3c-2.2,6.1-6,14.7-7.5,16.4c-0.1-0.1,0.8-4.3,1.8-8.6c2.3-10.2,3.1-13,5.3-19.2c2-5.8,2-5.7,8.1-12.2
	c10-10.5,13-16.5,11.4-23.1c-0.9-3.7-3.1-5.5-5.5-4.5c-1.2,0.5-1.5,0.8-5.9,6l-2.6,3.1l-0.1-2.4c-0.3-5.1-1.6-7.8-3.8-8.2
	c-2.2-0.4-3.4,0.9-7.7,8.8c-3.1,5.6-4.5,9.6-4.3,12.5c0.2,3.5,1.8,7.1,4.9,10.7l2.6,3.1l-1.7,4.9c-1.5,4.3-3.2,10.2-4.3,14.7
	l-0.3,1.4l-0.3-2.4c-0.7-5.7-2.5-10.9-5.4-16.4c-1.1-2.1-2.9-5.8-4-8.1c-3.1-6.8-5.1-8.7-7.4-7.1c-1.1,0.8-1.2,1.8-0.6,5.1
	c0.3,1.5,1,14,1.1,16.4c0.1,5.7,0.3,7.5,1.3,14.9c1.1,8,1.2,11,0.7,17c-0.3,2.8-0.4,6.2-0.3,7.6c0.2,3.1,2.1,7.5,4.3,10.1
	c0.9,1,1.6,2.1,1.6,2.5c0,0.3-0.9,4.5-2.1,9.2c-1.1,4.7-2.8,12.9-3.8,18.2c-2,10.9-5.3,33.4-5.9,39.3c-0.2,2.2-0.4,4.1-0.5,4.2
	c-0.5-1-0.7-1.7-1.3-4.1c-0.7-2.4-2.1-7-3-10.1c-2-6.4-3.6-12.9-4.7-18.8c-1-5.7-0.3-8.9,3.4-15.1c2.6-4.3,4.7-10.3,4.7-13.4
	c0.3-5.1-3.7-6.8-6.9-5.2l-1-2.7c-1.3-3.7-2.7-5.4-5.4-6.7c-2.5-1.2-4.8-1.6-6.5-1c-2.7,0.8-3.6,4.7-3.2,7c-1.5-1.4-4.1-1.6-5.1,1
	c-0.8,2-0.3,9.2,0.8,12.8c1.3,4.1,4.2,8.1,8.7,12.2c3.7,3.3,4.2,4.2,5,9.5c0.4,2.6,1,5.7,1.3,7l0.5,2.4c-4.6-4.5-9.6-15.4-19.8-17.7
	V12l114.7,0c10.7,0,21.4,0.3,32,1.1c22.6,1.3,44.9,5.4,66.4,12.2c20.1,6.2,38.4,16.8,53.7,31.2c16.1,15.6,29.1,34.1,38.2,54.6
	c7.9,17.7,13.5,36.4,16.6,55.6c4.8,28.4,6.6,57.2,5.6,86c-0.3,13.3-1.4,26.6-3.2,39.7c-2.7-2.3-6.6-2.1-13,0.8
	c-5.3,2.4-11,6-15.8,9.9l-1.3,1.1l0.4-0.9c0.2-0.5,1.8-4.4,3.6-8.6c4.5-10.9,6.3-15.8,8.2-23.4c1.8-6.9,2.7-14.7,2.2-18.3
	c-0.7-5.1-4.5-7.1-8.9-4.7c-3.7,2-9,9.1-13.4,17.9c-1.7,3.4-4.5,10.2-6.5,16c-0.8,2.3-1.5,3.9-1.6,3.7c-0.1-0.2,0-2.2,0.1-4.3
	c0.1-2.1,0.1-8.1-0.1-13.2c-0.2-9.4-0.7-15.2-1.8-23.5c-0.2-1.2-0.3-3.7,0.4-5.5c1.6-2.1,2.9-4.7,6.7-13.7c4.3-10.3,5.7-13.9,8-21.1
	c2.3-7,3.1-10,4.2-15.2c2.4-11.1,2.8-21.9,1.1-27.6c-0.7-2.4-1.2-3.3-2.6-4.7c-2.1-2.1-5.1-2.6-7.8-1.1
	c-5.3,2.9-11.5,14.4-14.6,27.2c-1.5,6.4-2.9,15.7-3.1,21.8c-0.1,1.2-0.2,2.2-0.3,2.1c-0.1-0.1-1.1-3.2-2.2-7
	c-2.2-8.8-7.8-21.5-10.7-27.3l8.7-15.9c11.3-19.9,15.3-29.1,16.9-38.9c1.1-6.6,0.8-16.3-0.7-20.4c-1.3-3.6-4.1-7.5-10.8-4
	c-4.5,2.4-10.2,10.5-14.8,21.1c-1.7,3.8-4.1,10.4-5.1,14l-0.6,1.9l-0.9-6c-2.7-19.1-5.2-29.1-10.8-43.3c-3.7-9.3-6.4-14.4-9.3-17.3
	c-5.4-5.2-12.2-4.5-14.7,1.6c-1.2,3.1-1.4,5.3-1.1,12.2c0.3,7.1,0.7,9.8,3.1,19.7c2.7,11.2,6.9,23.1,13.1,37.4
	c1.4,3.2,2.5,5.8,2.3,5.6c-0.1-0.1-1.5-1.8-3.1-3.7c-4.5-5.5-6.6-7.7-10.9-11.6c-7.1-6.5-14.6-11-20.6-12.4
	c-1.7-0.4-11.4-2.9-13.9,5.9c-0.7,2.1-0.5,5.8,0.4,8.6c1.3,4,4.9,9.3,9.7,14.2c5.5,5.6,19.6,15.9,30.8,22.3
	c9.1,5.3,22.2,11.3,24.4,11.2c0.7,0,2.6-0.1,4.7,4.5c3.2,6.9,4.5,10,6,14.4c2.3,6.7,7.1,20.5,9,29.4c1.6,9.1,3.3,16.5,4.6,33.2
	c1.1,11.6,0.9,26.4-0.5,39.6c-2.1-6.6-3.7-17.9-20-40.5c1.6-1.6,3-6.8,2.6-9.9c-0.1-1.1,0-1.5,1.3-3.9c1.4-2.7,3.8-9.4,6.1-17.5
	c1.1-3.7,1.4-7.6,0.9-10.3c-0.5-2.6-2.8-5-5.5-5.6c-2.7-0.9-7.6-0.2-9.8,1.3c-0.3-3.4-5.5-6.5-9.4-6.8c-6.5-0.6-12.9,3.3-11.8,8.6
	c-3.9-4.3-9.6-3.8-12.9-1.3c-4.5,3-2.9,7.8-2.5,9.3c-3.2-0.6-6.1,0.1-7.8,2.6c-0.3-9-0.9-18.1-1.8-27.1c-1.1-12.6-3.7-25.1-7.6-37.1
	c-2-5.5-4.3-11-7.1-16.2h0c-3.6-7.4-8.7-13.9-14.8-19.4c-6.1-4.7-13.3-8-20.9-9.4c-9.9-2.1-20.1-3-30.2-2.6v260.9
	c11.1,0.4,22.2-0.8,33-3.6c11.7-3.1,21.8-10.6,28-21c8.2-13.4,13.8-28.2,16.4-43.6c2.9-16.3,4.5-32.9,5-49.4
	c4.7,6.8,20.8,5.8,30.6,3.4c2.9,1.1,9.4,1.7,12.2,0.5c12.4,15.2,18.2,30.7,22.3,56.7c-1-3.8-2.7-8.8-4.1-12
	c-5.2-12-13.1-16.6-17.5-10.3c-1.3,1.9-1.7,3.8-1.5,7.9c0.2,4.7,1.4,9.6,4.6,18.9c3.4,9.8,10.4,24.8,13.4,28.6l1,1.2l-1.2,6.5
	c-1.3,7.2-4.5,27.8-5.7,37.3c-0.5,3.6-0.9,5.8-1,5.4c-0.1-0.4-0.6-3.7-1.2-7.3c-2.5-17.1-6.3-29.8-12.6-42.5
	c-5-10.1-10.9-18-14.6-19.7c-3.2-1.5-6.3,0.2-7.3,3.9c-0.5,2,0,11.3,1,16.2c1.8,9.5,4.7,21.4,8.1,32.9c3.7,12.6,6,18.5,14.4,38.8
	c3.4,8.1,5.3,13.1,7.1,18.7c-6.9,5.2-14.4,9.8-22.2,13.8c5.9-8.3,0.9-30.7-1.8-39.1c-6-10.7-13.4,10.6-15.2,17.3
	c-2.2-12.6-5-22.5-10-33.5c1,0.6,1.2,0.5,3.6,2.3c4.5,3.4,6.4,4.2,9.1,4c2.3-0.2,3.6-1.1,4.4-3c1.4-3.4-0.3-8.3-4.5-13
	c-0.8-0.9-1.5-1.7-1.4-1.8c0-0.1,1,0,2.1,0.2c2.9,0.4,6.4,0,7.8-0.9c2.8-1.9,2.6-5.4-0.3-8.4c-2.7-2.7-10.2-6.5-15.3-7.8
	c-3.8-1-10-2.1-14.3-1.1c-1.9-2.3-5-4.2-9.5-3.9c-6.2,0.2-9.8,5.6-8.5,8.6c-3.4-0.1-10.5,0.3-15.8,4.2c-6.9,4.7-9.7,11.1-6.7,15.5
	c0.9,1.4,3.3,2.9,4.9,3.3c1.7,0.3,5.4-0.1,7.3-0.9c0.8-0.3,1.5-0.6,1.6-0.5c0,0-0.1,0.8-0.3,1.7c-0.6,2.4-0.1,6.5,1,8.1
	c1.7,2.4,5.1,3,8.2,1.3c1.8-1,3.8-3.2,5-5.7l0.9-1.7c0.6,3.1,1.1,9.3,6.6,12c7.4,2.7,9.4-7.3,9.4-8.1c0.9,1.4,1,1.5,2.5,5.3
	c1.5,3.6,3.4,9.9,4.6,14.9c0.7,2.8,2.1,10.3,2,10.5c0,0.1-1.3-1.7-2.8-3.9c-1.5-2.2-4-5.5-5.6-7.4c-3.3-3.8-8.8-9-10.1-9.4
	c-1.1-0.4-2.7,0.3-3.4,1.5c-0.5,0.8-0.5,1,0.4,6.5c1.5,8.9,2.4,15.2,5.2,21c2.6,5.4,4.4,11.9,12.7,21.4c-4.1,1.1-8.3,2-12.5,2.7
	c-13.9,2.4-27.9,4-42,4.7c8.4-8,14.1-15.8,13.8-19c-0.2-2-1.8-3.4-3.9-3.3c-2.1,0.1-9.5,4.2-13.8,7.5c-2.6,2-3.7,3-6.9,6.2
	c3.3-4.3,9.2-15.7,8.7-19.9c2.7-0.2,5.9-1.6,7-3.8c0.6-1.1,0.7-1.7,0.9-4.1c0.1-1.6,0.3-2.9,0.3-2.9c0,0,0.5,0.3,1,0.7
	c2.4,1.8,6.8,2.9,9.4,2.2c1.8-0.5,3.8-2,4.5-3.6c0.7-1.5,1.3-7.2,1.1-9.6c-0.2-2-1.1-4.6-2-5.5c-1.2-1.3-3.4-1.9-5.2-1.4
	c-0.5,0.1-0.9,0.2-0.9,0.1c0-0.1,0.1-0.8,0.4-1.7c1.4-4.4-0.3-8.7-4-10.4c-1.4-0.6-4.5-0.9-6.2-0.6c-2.4,0.5-4.3,1.9-5.4,4.2
	c-0.2,0.5-0.6,2.4-0.8,4.3l-0.4,3.4l-1.6-1.7c-2.6-2.8-5.4-4.1-7.9-3.7c-3.5,0.5-5.9,4-6.6,9.5c-0.4,2.6-0.2,5.7,0.3,7
	c1,2.5,3.2,3.7,6.1,3.4c0.9-0.1,2-0.3,2.3-0.4c0.7-0.2,0.6-0.2-0.3,0.9c-2.4,2.6-3.1,5.2-2.2,7.3c0.5,1.3,3.1,3.8,4.7,4.6
	c-0.2,5.8-5.4,16.4-10.5,21c2.9-6.8,4.1-11.2,4.3-16.2c0.2-4.3-0.6-8.6-2-10.7c-0.8-1.2-2.6-2.7-3.7-3.2c-1.4-0.6-3.9-0.3-5.3,0.5
	c-2.8,1.6-4.5,8.9-5.8,16.6c-4.7-13.1-4.7-27.7-4.8-29.1c3.4-0.1,5.3-2.6,6.1-3.9c1.3-2.1,1-4.9-1-8.1c-0.8-1.3-0.8-1.4-0.2-1.1
	c0.4,0.2,1.5,0.6,2.4,0.8c3,0.8,5.5-0.1,7.1-2.5c0.8-1.3,1.5-4.5,1.6-7.3c0.2-6-1.7-10-5.3-11.2c-2.6-0.9-5.8,0-9,2.5l-2,1.5
	l0.2-3.7c0.1-2,0.1-4.1-0.1-4.7c-0.7-2.6-2.4-4.5-4.9-5.4c-1.8-0.7-5-0.9-6.7-0.5c-4.1,1-6.7,5.4-6.1,10.2c0.1,1,0.2,1.8,0.1,1.9
	s-0.5-0.1-0.9-0.3c-1.8-0.8-4.2-0.6-5.7,0.6c-1.1,0.8-2.5,3.3-3,5.4c-0.7,2.6-1.1,8.6-0.6,10.3c0.5,1.8,2.2,3.8,4.1,4.6
	c2.6,1.2,7.4,0.9,10.3-0.6c0.6-0.3,1.1-0.6,1.2-0.6c0,0-0.1,1.4-0.2,3.1c-0.2,2.5-0.2,3.3,0.2,4.5c0.8,2.5,2.4,4.2,5.3,4.9
	c-0.1,6.8,2.7,24.3,7.4,37.7c-2.3-4.2-5.6-10.3-7.7-13.1c-3.4-4.7-9.8-11-11.9-11.8c-2-0.7-4.2,0.2-4.9,2.2
	c-1.3,3.2,1.3,10.4,7.6,21.1c3.5,6,4.5,8.8,10,15.2L1229.7,469.8z M1214.4,76.8c0.5,1.7,1.1,3.3,1.8,5c0.5,1.7,1.1,3.4,1.7,5
	c0.6,1.4,1.4,2.7,2.4,3.9c1,1.4,1.9,3,2.6,4.6c1.6,3.1,3.6,6.1,5.8,8.8c1.8,1.9,3.9,3.5,6.3,4.8c1.8,0.9,3.9,0.9,5.7-0.2
	c1.1-0.6,2.3-1.2,3.5-1.8c0.5-0.2,1.1-0.2,1.6,0c0.1,0.1,0,0.3-0.3,0.5c-1,0.3-2,0.8-2.8,1.6c-0.6,0.7-1.1,1.4-1.6,2.1
	c-0.6,0.6-1.4,1-2.3,1.2c-1.1,0.2-2.1,0.7-2.9,1.5c-0.4,0.5-0.8,1-1.3,1.5c-0.7,0.5-1.5,0.9-2.3,1.1c-1.5,0.5-2.8,1.3-3.9,2.4
	c-1.4,1.1-2.9,2-4.6,2.5c-1,0.3-2,0.8-3,1.4c-0.5,0.4-1,0.9-1.4,1.4c-0.6,0.6-1.4,1-2.2,1.3c-1.4,0.5-2.8,1.4-3.9,2.4
	c-1.3,0.8-2.6,1.7-3.9,2.4c-1.1,0.7-2.2,1.4-3.3,2.1c-0.9,0.6-1.6,1.5-2.3,2.4c-0.5,0.6-0.4,1.4,1.4,1.1c1.5-0.3,3-0.8,4.3-1.7
	c1.7-1,3.4-2,5.2-3c1-0.4,2-0.9,3-1.4c0.7-0.5,1.4-1,2.1-1.6c0.7-0.6,1.5-0.9,2.3-1.1c1.3-0.3,2.5-1,3.4-1.9c1.3-1.2,2.8-2.2,4.3-3
	c1-0.4,2.1-0.8,3-1.3c0.9-0.6,1.8-1.3,2.5-2.1c0.7-0.5,1.5-0.9,2.4-0.9c1.1-0.2,2.1-0.7,2.8-1.5c0.4-0.5,0.9-0.9,1.4-1.4
	c0.7-0.5,1.6-0.7,2.4-0.7c1.3-0.1,2.6-0.6,3.5-1.6c0.2-0.3,0.5-0.5,0.9-0.6c0.1,0,0.3,0.1,0.1,0.3c-0.5,0.7-1.1,1.3-1.9,1.7
	c-1.2,0.6-2.3,1.4-3.3,2.1c-1.2,1-1.8,2.5-1.9,4c-0.2,3.3,0.4,6.6,1.6,9.7c1.4,3.5,3.2,6.8,5.4,9.8c0.7,1.4,1.4,2.8,1.9,4.2
	c0.8,1.6,1.8,3,3.1,4.3c1.3,1.5,2.6,3,3.7,4.6c0.6,0.9,1.4,1.7,2.3,2.3c2.1,1.6,3.3-1.5,3.4-2.3c0.2-1.5,0.2-3.1,0-4.6
	c-0.3-2.4-1-4.8-1.8-7c-0.5-1.7-1.1-3.4-1.6-5c-1.2-2.9-2.1-5.8-2.8-8.8c-0.9-3.4-1.7-6.8-2.5-10.3c-0.2-0.9-0.4-1.7-0.7-2.6
	c-0.3-0.9,0.1-0.9,0.1-0.8c0.3,0.5,0.6,1,0.8,1.6c1.1,2.6,2.2,5.3,3.1,8c0.8,2.3,1.7,4.6,2.7,6.8c1.2,2.3,2.7,4.5,4.5,6.5
	c1.7,2,3.7,3.8,5.8,5.4c1.3,0.8,2.7,1.5,4.1,2.1c1.7,0.9,3.4,2,5.1,3.1c0.6,0.5,1.9,0.9,2.8-0.3c0.5-1,0.7-2.1,0.5-3.1
	c-0.4-1.7-1.1-3.4-2.1-4.8c-2.3-3.3-4.8-6.3-7.5-9.2c-1.9-2.2-3.5-4.5-4.9-7.1c-1-1.7-2-3.4-2.9-5.2c-2-3.1-4.5-6-7.3-8.4
	c-0.7-0.6,0.3-1.1,0.8-1.5c0.7-0.6,1.1-1.3,1.3-2.2c0.1-0.6,0.5-1.1,1-0.9c0.4,0.2,0.7,0.4,1,0.6c0.7,0.5,1.6,0.6,2.4,0.3
	c0.4-0.2,0.7-0.5,0.9-0.8c0.4-0.8,0.5-1.7,0.4-2.5c0-0.9-0.1-1.7-0.2-2.6c-0.2-0.8-0.8-1.5-1.6-1.9c-0.9-0.6-1.9-1.2-2.9-1.6
	c-0.4-0.1-0.8-0.2-1.3-0.1c-0.8,0.2-1.5,0.8-1.6,1.7c-0.1,0.6-0.1,1.3,0,1.9c0,0.2,0,0.5-0.4,0.7c-0.4,0.1-0.8,0.1-1.2-0.1
	c-0.4-0.1-0.9-0.2-1.3-0.1c-0.6,0.1-1.2,0.3-1.8,0.7c-0.4,0.3-1,0-1.1-1.2c-0.7-3.9-2.1-7.7-4-11.1c-1.7-2.8-3.3-5.8-4.6-8.8
	c-0.8-2.1-1.5-4.2-2.1-6.3c-0.9-2.9-2.1-5.8-3.4-8.6c-0.7-1.4-1.6-2.6-2.8-3.6c-0.7-0.6-1.5-0.9-2.4-1c-1.8-0.3-2.3,2.1-1.9,3.9
	c0.1,2.2,0,4.4-0.3,6.6c-0.2,2.2,0,4.4,0.6,6.5c0.8,3.7,2.2,7.2,4,10.4c1.3,2,2.8,4,4.4,5.8l0.4,0.5c2,2.4,3.9,4.8,5.6,7.4
	c0.3,0.5,0.3,0.9-0.1,0.7c-2.8-2.8-5.6-5.6-8.4-8.4c-1.7-1.7-3.3-3.5-5-5.3c-1.7-2.3-3.6-4.5-5.5-6.6c-1.5-1.9-3.1-3.7-5-5.3
	c-1.2-1-2.5-1.9-3.9-2.5c-0.8-0.3-1.7-0.5-2.6-0.4C1214.5,73.3,1214,75.2,1214.4,76.8z"/>
<path class="st5" d="M673,425.2c-3.8,0.8-7.2,3.1-9.2,6.4l0,0.2c2.5,1,5.1,1.6,7.8,1.8l2.1,0.4c-0.1-3-0.3-5.9-0.5-8.9L673,425.2z
	 M432.9,5.9c-0.8,0.4-1.2,1.2-1.3,2.1v477.2c0,0.3,0.1,0.5,0.2,0.8c0.2,0.3,0.4,0.7,0.7,0.9c0.4,0.4,1,0.5,1.5,0.6h169.7
	c20.9,0.2,41.8-1.2,62.5-4.2c13.4-1.9,26.6-5.6,39.1-10.9c19.2-8.9,35.8-22.7,48.1-39.9c14.6-20.2,23.6-43.9,25.9-68.8
	c2.5-21.2,1-42.7-4.4-63.3l-0.9-3.1c-7.1-24.2-21.7-45.6-41.8-60.9c15.3-13.8,26.2-31.8,31.3-51.8c4.2-16.5,5.9-33.5,4.9-50.5
	c-0.6-19.9-5.1-39.5-13.2-57.7c-8.6-19.1-22-35.7-38.9-48.2c-10.7-7.6-22.9-12.9-35.7-15.7c-15.8-3.5-32-5.6-48.2-6.2L623.9,6
	c-6.7-0.2-13.5-0.3-20.2-0.3L434,5.7C433.7,5.7,433.2,5.8,432.9,5.9z M602.1,125.2c-5.8-0.8-11.6-1.2-17.4-1.1h-13.4v56.7
	c10.3,0.3,20.7-0.2,30.9-1.7c4.4-0.6,12.6-3.4,15.5-6.7c8.4-10.3,8-24,3.2-35.8C617,127.3,603.4,125.4,602.1,125.2z M615.8,301.4
	c-6.6-1.5-13.4-2.2-20.2-2.2h-24.4V365c8.7,0.1,17.3,0.1,26-0.1c8.2-0.2,15.3-1.2,22.5-3.8c8-2.7,13.8-9.8,14.9-18.3
	c1.7-9.6,1.2-19.5-1.6-28.8c-1.5-4.8-4.7-7.4-10-10.3C620.6,302.7,618.2,302,615.8,301.4z M559.5,192.8c9.9,0.2,19.8,0.1,29.7-0.3
	c8.6-0.3,29-2.1,36.1-10.5c12.6-14.7,13.1-33.6,6.2-50.2c-1.8-4.2-4.4-8.1-7.6-11.3c-4.6-3.4-8.1-5.2-15.6-6.4c-7.8-1.5-16-2-23.5-2
	h-25.3V192.8z M679.3,207c-0.2,0.7-0.7,1.2-1.2,1.6c0.4,3.4,1.6,6.6,3.5,9.3c0.6,1.1,1.3,2.3,2.1,3.3c0.3-2.6,0.1-5.1-0.6-7.6
	c-0.4-2-0.9-4-1.4-6c-0.8,0-1.6-0.3-2.2-1L679.3,207z M690,311.7c2.5-7.5,3.9-10.9,6.8-16.1c4-7.2,10.7-15,15.3-17.7
	c1.9-1.1,4.2-1.8,5.4-1.5c1.9,0.5,0.4,5.3-3.8,11.5c-2.4,3.7-4.7,6.5-11,13.7c-5.2,6-10.1,11.8-13.2,15.9c-1,1.4-1.6,1.6-1.5,0.9
	C688.2,317.7,689.1,314.7,690,311.7z M670.2,380.5c-1.4-1.6-2.9-3.6-3.5-4.3c-1.5-2.2-4.4-7.6-6-11.1c-3-6.8-5.6-19.3-5-23.9
	c0.1-0.7,0.2-0.8,1-0.4c2.3,1.1,6.8,8.4,8.8,14.6c0.7,2,2.1,7.8,3.3,13c1.1,5.2,2.5,10.7,3,12.2c0.5,1.5,0.9,2.8,0.9,2.9
	S671.6,382.1,670.2,380.5z M648.3,381.1c-3.4-1.8-13.3-6.9-13.7-10.9c1.8-5.6,22.5,9.3,29,15.3C661.1,385.2,654.3,383.8,648.3,381.1
	z M710.3,453.4c6.8-8.2,9.9-13.7,13.9-24.4c2.5-6.6,2.4-6.6-3.2,0c-5,5.9-8.5,11.7-11,17.8c-0.8,1.9-3.5,11-3.2,10.9
	C706.7,457.7,708.4,455.7,710.3,453.4z M709,412.7c0.8-1.3,4-3.7,6.3-4.7c1.9-0.8,11.9-4.4,13.8-4.9c0.7-0.2-2.6,2.4-4.5,3.5
	c-2.6,1.5-4.3,2.3-7.9,3.6c-1.7,0.6-4.1,1.6-5.4,2.1c-1.3,0.6-2.4,1-2.5,1C708.7,413.3,708.8,413,709,412.7z M712.3,400.7
	c0.1-1.2,4.5-8.9,7.5-12.9c2-2.7,12.2-15.6,12.3-15.5c0.2,0.3-1.2,5.1-2.2,7.6c-2,4.9-4.6,9.2-8.2,13.1c-1.4,1.6-8.9,8.3-9.2,8.2
	C712.3,401.1,712.3,400.9,712.3,400.7z M704.6,400c-0.7-1.3-1.8-4.1-2.5-6.6c-1.1-3.6-1.6-7-2.1-13.5c-0.5-6.3-1.3-10.9-2.9-17.2
	c-0.6-2.4-1.1-4.4-1-4.4c0.1-0.1,3.9,6.5,5.5,9.7c3.8,7.8,6.4,16.9,6.1,21.8c-0.1,1.3-2.3,10.8-2.5,10.8
	C705,400.7,704.8,400.4,704.6,400z M743.1,351.2c-2.1-0.4-5.5-1.7-6.2-2.2c-0.4-0.3,0.1-0.8,4.8-4.7c8.3-6.9,10.5-8.2,13.6-8.2
	l1.6,0l0.3,1c0.3,0.8,0.3,1.9-0.1,6.5c-0.4,5-0.5,5.6-1,6.4c-0.6,1-2,1.6-3.6,1.8C750.8,352,745.4,351.7,743.1,351.2z M730.6,339.5
	c0.6-3.1,1.9-7.6,3-10.9c1.1-3.1,3.9-9.2,4.2-9.2c0.7,0-0.4,5.6-2,10.6c-1.5,4.4-5.2,12.5-5.6,12C730.1,342,730.3,340.8,730.6,339.5
	z M737.1,339.6c4.3-8.6,6.3-18.2,5.2-24.1l-0.5-2.3l0.9-1.1c0.5-0.6,1.7-1.7,2.6-2.5c2.5-2,3.5-2,4.4,0c0.5,1.1,0.5,1.8,0.5,4.3
	c-0.2,7.2-3.1,14.4-8.7,21.7c-2.4,3.1-4.9,5.9-5,5.7C736.4,341.1,736.7,340.4,737.1,339.6z M724.5,331.6c-0.4-2.8-0.2-9,0.5-12.6
	c1.3-6.6,3-9.9,5.5-10.4c1.2-0.2,2,0,3.4,0.9c1,0.7,2.3,2.3,2.2,2.9c0,0.2-0.8,1.7-1.9,3.4c-3.3,5.6-5.9,12-7.5,18.9
	c-0.4,1.6-0.7,3-0.8,3.2C725.9,338.3,724.8,333.6,724.5,331.6z M458.7,442.3c-1.5-6.7-2.3-9.7-4-14.3c-2.4-6.4-4.4-8-7.1-10.6
	c-1.1-1.1-5.3-2.3-2.8,3.3c1.4,3.3,2.8,5.9,6.5,12.4c3.1,5.4,6,10.7,7.8,14.3l1,2L458.7,442.3z M604.8,464.2
	c-1.2-3.4-2.8-10.7-3.1-13.7c-0.4-4-0.2-6.9,0.5-10c0.7-3,1.4-4.3,2.5-4.9c0.6-0.3,0.7-0.3,1.1,0.3c0.6,0.9,1.1,3.4,1.3,6.2
	c0.2,3.1-0.1,13.2-0.6,19.1c-0.2,2.7-0.4,5.1-0.4,5.3C606,467.5,605.7,466.8,604.8,464.2z M616.8,465.8c4.5-6.9,9.1-12.5,12.8-16.1
	c2.7-2.5,5.9-5,6-4.6c0.1,0.8-5.2,7.8-10,13.3c-2.9,3.3-10.6,10.9-10.7,10.5C614.9,468.8,615.8,467.4,616.8,465.8z M624.1,426.3
	c-0.8-0.4-1.8-1.2-2.2-1.7c-0.6-0.8-0.7-0.9-0.2-1.5c0.3-0.3,1.8-1.5,3.4-2.6c2.9-2.1,2.9-2.1,3.8-1.7c2.1,1,2.1,0.9,1.2,5
	c-0.8,4-1,4.2-3.1,3.7C626.2,427.3,624.9,426.8,624.1,426.3z M643.1,422.2c-0.7-0.4-1.6-1-1.9-1.4c-1.2-1.3-2.9-4.1-2.8-4.5
	c0.2-0.9,9.2-3.9,10.5-3.5c0.7,0.2,0.5,3.8-0.5,6.8c-1,3-1.2,3.4-2.2,3.5C645.1,423.2,644.6,423.1,643.1,422.2z M617.3,410.2
	c0-0.4,0.4-2.1,0.9-3.8c0.7-2.5,1.1-3.3,1.8-4.2c1.1-1.3,1.7-1.3,3.1,0.1c1,0.9,4.3,6.3,4.1,6.8c-0.1,0.5-1.1,0.9-4.5,1.5
	C618.2,411.4,617.2,411.3,617.3,410.2z M636.8,408.3c-1.1-1-1.1-1.6,0.1-6.2c1-4,1.4-4.5,3.1-4.6c1.8,0,3.4,0.7,3.9,1.8
	c0.4,0.8,0.4,1.1-0.2,2.7c-0.4,1-1,2.3-1.5,3c-0.9,1.1-4.1,4.2-4.4,4.1C637.7,409.1,637.3,408.8,636.8,408.3z M594.1,469.9
	c-3.7-5.5-7.4-10-10.5-12.9c-2.2-2-4.8-4-4.9-3.7c0,0.7,4.2,6.2,8.2,10.7c2.4,2.6,8.7,8.7,8.7,8.4
	C595.7,472.3,595,471.2,594.1,469.9z M587.9,438.1c0.6-0.4,1.4-1,1.7-1.4c0.5-0.7,0.5-0.8,0.1-1.2c-0.2-0.2-1.5-1.2-2.8-2.1
	c-2.3-1.6-2.4-1.6-3.1-1.3c-1.7,0.8-1.7,0.7-0.9,4c0.7,3.2,0.9,3.4,2.5,3C586.2,438.9,587.3,438.4,587.9,438.1z M572.6,434.9
	c0.6-0.3,1.3-0.8,1.5-1.1c1-1.1,2.3-3.3,2.2-3.6c-0.2-0.7-7.4-3-8.5-2.7c-0.6,0.2-0.4,3.1,0.4,5.4c0.8,2.4,1,2.7,1.8,2.8
	C570.9,435.8,571.4,435.6,572.6,434.9z M593.3,425c0-0.3-0.4-1.7-0.8-3c-0.6-2-0.9-2.6-1.5-3.3c-0.9-1-1.4-1-2.5,0.1
	c-0.8,0.7-3.4,5.1-3.3,5.6c0.1,0.4,0.9,0.7,3.6,1.1C592.6,426,593.3,425.9,593.3,425z M577.5,423.7c0.9-0.8,0.9-1.3-0.1-5
	c-0.9-3.2-1.2-3.6-2.6-3.6c-1.4,0-2.7,0.6-3.1,1.5c-0.3,0.7-0.3,0.9,0.2,2.2c0.3,0.8,0.8,1.9,1.3,2.4c0.7,0.9,3.4,3.3,3.6,3.3
	C576.8,424.3,577.1,424,577.5,423.7z M505.9,462.6c-4.1-3.8-5.9-6.1-7.5-9.3c-0.8-1.6-0.5-1.9,1.1-1c3.2,1.7,7.1,6.8,9,11.6
	c0.3,0.7,0.4,1.3,0.3,1.2C508.5,465.1,507.3,464,505.9,462.6z M521.8,464.4c3.1-3.6,11.2-9,15.2-10.1l1.3-0.4l-0.7,0.9
	c-2,2.6-5.7,5.5-9.7,7.8c-2.6,1.5-7.3,3.7-7.4,3.5C520.5,466,521.1,465.2,521.8,464.4z M522.7,436.1c1.5-3.5,3-6,4.7-7.9
	c2.7-2.9,6.6-5,8.7-4.7l1,0.2l-0.4,1.6c-0.8,3.1-4.4,6.6-11.8,11.5c-1.8,1.2-3.4,2.1-3.4,2.1C521.6,438.9,522.1,437.6,522.7,436.1z
	 M511.5,431.7c-1.2-2.7-2.2-5.5-2.9-8.6c-0.6-2.4-1-5.9-0.8-6c0.2-0.2,1.9,3.2,2.9,5.8c1.2,3.3,1.9,6,2.2,9.6
	C513.3,435.8,513.4,435.8,511.5,431.7z M518.6,423.3c-0.1-1.6,0-2.6,0.6-5.3c1.1-4.7,1.9-4.9,2.3-0.7c0.1,1.4,0,2.7-0.6,5.5
	c-0.4,2-0.9,4.1-1.1,4.6l-0.4,1l-0.3-1.6C518.9,426,518.7,424.4,518.6,423.3z M534.3,397.8c-0.3-1-0.6-2.6-0.7-3.7
	c-0.2-2.2,0.4-6.9,1-8.3l0.4-1l0.2,0.8c0.5,2.1,0.7,9,0.2,13.3C535.3,400.5,535.1,400.4,534.3,397.8z M542.1,400.4
	c3.2-4.4,6.3-7.3,9.2-8.5c3.2-1.2,3.9,0.2,1.7,3.1c-1.4,1.8-3.7,3.4-6.3,4.5c-1.6,0.6-4.9,1.7-5.2,1.7
	C541.5,401.3,541.8,400.9,542.1,400.4z M496.8,402.2c0.6-8.9,1.8-14.4,6.7-29.5c1.8-5.5,3.4-10.7,3.6-11.5c0.5-1.8,0.4-2,0.7,5
	c0.5,14.3,0.2,17.6-2.2,24.6c-1.7,5-3.4,8.3-7.6,15.1c-1.4,2.2-1.4,2.2-1.4,1C496.6,406.1,496.7,404,496.8,402.2z M481.7,390.7
	c-2.6-3.9-4.3-7.5-8.3-17.4c-4-10.2-6.3-15-8.6-18.4c-2.2-3.3-2.2-3.3,0.3-1.3c8.7,7.2,14.1,15.2,19.1,27.9c0.8,2,3.3,16,3.1,16.7
	C487.1,398.5,484.4,394.8,481.7,390.7z M472,321.6c-0.8-0.8-3.1-3.5-5.1-6.1c-4.3-5.6-8.1-10.3-12-15.1c-1.6-1.9-2.8-3.5-2.7-3.5
	c0.1,0,1.8,1.2,3.8,2.7c5.6,4.3,10.6,10.1,14.4,17c1.1,2,2.4,4.3,2.8,5.1C474.2,323.4,473.9,323.4,472,321.6z M509.2,312.9
	c0.3-1.7,1.4-6.4,2.6-10.4c1.9-7,3.9-15.8,4-17.5c0.1-2,0.4,1.9,0.5,6.2c0.2,9-1.8,16.8-6.4,25.6l-1.5,2.8l0.1-1.8
	C508.6,316.7,508.9,314.6,509.2,312.9z M459.5,274.9c-2.6-3.2-4.2-6.2-4.7-8.9c-0.3-1.7-0.3-1.7,3.1,3.2c3.1,4.5,5.7,9.4,4.8,9.1
	C462.4,278.2,461,276.7,459.5,274.9z M468.8,275.7c-0.5-3-0.8-9.4-0.5-10.2c0.1-0.3,0.6-0.5,1.2-0.5s2.1-0.2,3.4-0.5
	s2.5-0.4,2.5-0.2c0.2,0.5-0.7,4.5-1.5,6.6c-1.1,2.8-4,7.9-4.4,7.8C469.4,278.6,469,277.3,468.8,275.7z M539.8,302.7
	c0-0.1,3.1-1.2,6.8-2.6s7.3-2.7,8.1-3c5.6-2.1,7.1,3.6,0.7,5.7c-3.7,1.3-9.2,1.3-15.3,0.1C539.9,302.9,539.8,302.8,539.8,302.7z
	 M535.6,285.9c0.6-3.4,1.4-7,1.8-8c0.6-1.6,0.9-1.9,3-2.8c1.3-0.6,4.4-2.5,6.9-4.2c5.7-3.9,6.5-4.3,6.8-3.4c0.2,1-1.4,4.8-3.2,7.7
	c-0.9,1.4-3.3,4.5-5.3,6.7c-2,2.3-5,5.8-6.7,7.8c-1.7,2-3.5,4.1-4,4.6l-0.9,0.9l0.3-1.6C534.4,292.8,535,289.3,535.6,285.9z
	 M546.9,289.4c6.5-7.1,10-10.5,12.3-12c1.1-0.7,2.7-0.7,3.6-0.1c1.3,0.9,1.5,1.3,1.3,2.1c-0.4,1.5-3.4,5.1-5.8,6.9
	c-2.1,1.6-15.9,8.9-16,8.5C542.1,294.8,544.2,292.3,546.9,289.4z M460.6,258.8c0.1-2.2,0.3-4.4,0.4-4.9c0.3-0.7,0.5-0.8,1.7-0.4
	c1.7,0.6,2.4,1.4,3.6,3.7l0.9,1.8l-1.8,0.7c-1.8,0.7-1.8,0.7-2.5,3.2l-0.7,2.5l-0.8-1.3C460.7,263.2,460.5,262,460.6,258.8z
	 M495.4,243.2c-1-2.9-1.2-4.9-0.7-10.5c0.6-8.3,0.5-10-1.7-22.8c-0.6-3.3-1.1-7.8-1.2-10.1s-0.3-5.5-0.5-7.2l-0.3-3l2,3.3
	c3.4,5.6,5.5,11.4,6.1,17c0.4,3.9,0.3,17.8-0.2,23.1c-0.3,3-1.7,11.5-1.9,12.3C496.7,245.9,496,245,495.4,243.2z M503.9,244.8
	c0.4-0.7,1.6-2.8,2.8-4.7c2-3.2,5-8.9,10-18.8c1.4-2.9,3.2-7.1,4.6-11.2c2.3-6.7,4.1-10.3,7.6-16c1-1.6,2-2.9,2.2-3.1
	c0.2-0.1,0.1,1.7-0.3,4c-2.3,13.1-5.6,21.7-13.1,34c-3.8,6.3-5.2,8.2-8.6,11.8c-2.2,2.3-5.5,5.3-5.8,5.2
	C503.3,246.1,503.6,245.5,503.9,244.8z M509.8,176.8c-1.3-2.9-1.4-5.3-0.4-7.9c0.8-2.1,3.3-6.8,4.8-9.1l0.6-1l0.1,1.1
	c0.2,1.8-0.3,6.6-1.4,11.8c-0.5,2.6-1.1,5.7-1.1,6.7l-0.1,1.9l-0.8-0.9C511,179.1,510.3,177.9,509.8,176.8z M518.9,175.8
	c0.4-2.2,0.8-3.2,1.9-4.7c1.7-2.5,10.2-12.6,10.5-12.4c0.4,0.1,0.4,2,0,3.8c-0.2,1.1-1.2,2.9-2.7,5.2c-2.7,4.1-10.1,12.4-10.2,11.5
	C518.4,178.9,518.6,177.3,518.9,175.8z M497.2,461.6c-0.3,4.3-0.7,8.8-1.3,13.9h12c-0.1-0.3-0.3-3.2-0.3-3.9
	c-0.1-0.1-0.8-0.7-2.8-2.4C501.5,466.3,499.1,464,497.2,461.6z M443.4,430.5c1,2.6,2.4,4.3,4.4,7.7c3.3,5.7,7.1,9.7,10.2,15.9
	c3.3,6.5,3.5,6.3,3.7,9.4c0.1,1.4-0.8,10.8-0.6,12.1h-17.7V430.5z M443.4,295.4c1.7,2.5,4.4,5.2,7.4,8.9
	c6.3,7.7,10.7,13.2,13.6,17.2c1.3,1.8,3.6,4.2,5.2,5.5c3,2.4,7.1,5.1,7.7,5c1.1-0.2,3,9.9,3.5,18.2c0.2,3,0.5,7.2,0.9,9.4
	c0.3,2.2,0.5,4.1,0.5,4.2c0,0.1-1.1-1.2-2.4-2.9c-2.9-3.9-7.2-8.3-11.5-11.8c-4.1-3.4-13.4-9.5-15.7-10.3c-2.2-0.8-3.7-0.3-4.4,1.5
	c-0.6,1.5,0.1,2.9,3.5,6.7c3.4,3.9,7.4,9.4,10,13.7c2.2,3.7,3.9,7.5,8.4,19.1c1.5,3.8,3.3,8.1,4.1,9.5c2.5,4.7,10.5,15.7,14,19.5
	c2.1,2.2,2.5,4.2,3.5,15.9c1.2,15.5,1.2,19.6-0.8,39.3c-1.4,10.4-2.2,10.6-2.6,11.9l-17.5,0c-1.4-3.1-1.6-11.2-0.3-20.6
	c1.9-7.7,2.3-13.8,4.6-18.7c4.4,1.3,7.5-0.1,11.2-3.3c0.7,1.5,2.2,2.1,3.3,1.2c1.3-1.3,1.6-3.8,0.7-5.7c-0.8-2.2-2.6-3.2-4.2-2.3
	c-0.8,0.5-1.3,1.5-1.2,2.7c-2.1,1.8-4.5,2.9-7,3.2c2.6-1.2,4.8-3.4,6.4-6.5c1.3,0.2,2.4-1,2.5-2.7c-0.2-2.4-1.7-4.4-3.4-4.3
	c-1.3,0.1-2.3,1.5-2.3,3.3c0,0.5,0.1,0.9,0.3,1.4c-1.4,2.7-3.4,4.5-5.7,5.3c0.6-2.3,1.4-4.5,2.3-6.5c1.3,0,2.3-1.2,2.4-2.9
	c0-1.9-0.8-3-2.4-3.3c-3.2-0.4-3.9,1.7-2.9,3.5c-1,2.2-1.8,4.5-2.5,6.9c-0.4-2.9-0.3-5.8,0.3-8.5l0.4-2c1.2-0.3,2.6-2.6,2-4.3
	c-0.8-2.8-4-3.4-5.8-1.7c-1.1,0.7-1.7,2.3-1.5,4c0.2,1.1,0.9,1.9,1.7,2.2c-1.2,5.1-1,10.8,0.6,15.8c0.2,0.5,0.4,1,0.6,1.5
	c-2.5,3.7-4.5,8.4-6.3,16.3c-0.1-3.1-2.2-11.6-2.6-13.2c-2.5-10.5-4.5-18.5-11.1-23.5c-2.9-1.5-4.1-2.3-7.2-1.4V295.4z M566.1,287.1
	c2.6-3.4,6.3-6.7,3.6-10.7c-1-1.8-5.8-5.5-7.4-5.7c-0.6-0.1-1.5,0-2.1,0.1c-1,0.2-1,0.1-0.6-1.5c0.7-3.3-0.8-6.6-3.6-7.5
	c-2.7-0.9-4.9-0.1-11.1,4c-3,2-6.4,4-7.5,4.6c-3.2,1.5-4.1,2.5-5.2,5.4c-1.6,4.1-4.3,20.5-4,23.9l0.2,2.1l-4.6,5.2
	c-2.6,2.9-4.9,5.4-5.1,5.6c-0.3,0.2,0.1-1.3,0.8-3.4c3.1-9.6,3.4-22.2,0.8-32.7c-1.4-5.7-2.4-7.8-3.9-8.3c-1.5-0.6-3.9,0.3-4,1.4
	c-0.1,1.8-2.5,17.1-3.2,20.2c-0.4,1.9-1.7,6.9-2.8,11.2c-1.2,4.2-2.4,9.5-2.8,11.6c-0.9,5.2-1.1,12.1-0.5,15.1l0.5,2.5l-2,3.1
	c-4.5,6.8-6.7,11.1-9.7,18.8c-1.6,4.1-3,7.5-3,7.4c-0.2-0.5,0.2-19.3,0.4-24.1c0.5-9.2,1-13.7,3-28.8c2.5-18.5,4.7-31.6,7.3-42.4
	l2.1-8.8l2.3-2c1.3-1.1,3.8-3.3,5.6-4.8c4.7-4,8.3-8.4,12.6-15.5c6.8-11.2,9.4-17,12-26.7c2.8-10.2,4.5-24.6,3.1-26.5
	c-1.5-2.1-4.2-1.6-6,1.3c-0.7,1.1-2.7,3.9-4.5,6.4c-4.9,6.8-7.7,12.1-10.4,20c-2.3,6.7-7.6,18.1-8.2,17.9c-0.2-0.1-0.2-0.3-0.2-0.4
	c0.1-0.2,1-4.2,2-8.9c2.4-11.1,3.2-14.2,5.5-20.9c2.2-6.4,2.1-6.3,8.9-13.4c11.1-11.6,14.3-18.2,12.3-25.2c-1.1-4-3.6-5.9-6.3-4.7
	c-1.4,0.6-1.6,0.9-6.6,6.6l-2.9,3.4l-0.2-2.6c-0.5-5.5-2-8.4-4.5-8.8c-2.5-0.4-3.8,1.1-8.6,9.7c-3.4,6.1-4.8,10.5-4.6,13.7
	c0.3,3.8,2.3,7.6,5.8,11.4l3,3.2l-1.8,5.4c-1.6,4.7-3.4,11.1-4.5,16l-0.3,1.5l-0.4-2.6c-1-6.2-3.1-11.8-6.5-17.6
	c-1.3-2.2-3.5-6.2-4.7-8.7c-3.7-7.3-6-9.3-8.6-7.5c-1.2,0.8-1.3,1.9-0.6,5.5c0.3,1.6,0.7,4.7,0.8,6.9c0.1,2.3,0.3,4.5,0.4,5
	s0.3,3.1,0.5,5.8c0.3,6.2,0.5,8.1,1.9,16.1c1.5,8.6,1.7,11.9,1.2,18.4c-0.2,3-0.3,6.7-0.1,8.2c0.3,3.4,2.6,8.1,5.1,10.8
	c1,1.1,1.8,2.3,1.8,2.6c0,0.4-1,4.9-2.1,10c-1.2,5.1-2.9,14-3.8,19.7c-1.9,11.8-5.2,36.2-5.7,42.7c-0.2,2.4-0.4,4.4-0.4,4.5
	c-0.1,0.1-0.8-1.8-1.6-4.4c-0.8-2.6-2.5-7.5-3.7-10.9c-2.4-6.9-4.4-13.8-5.7-20.2c-1.3-6.1-0.5-9.6,3.5-16.4
	c2.9-4.7,5.1-11.3,5-14.6c-0.1-4.1-2.2-6-6.1-5.7l-1.9,0.2l-1.2-2.9c-1.6-4-3.2-5.7-6.3-7.1c-2.9-1.3-5.5-1.6-7.4-0.9
	c-1.2,0.4-1.5,0.7-2.2,2.6c-0.5,1.2-0.9,2.8-1.1,3.6l-0.2,1.4l-1.2-0.6c-0.9-0.5-1.5-0.5-2.5-0.2c-1.1,0.3-1.5,0.7-2,2.1
	c-0.8,2.2-0.2,9.9,1.2,13.8c1.6,4.4,5,8.7,10.2,13c4.3,3.5,4.8,4.5,5.9,10.1c0.5,2.8,1.3,6.2,1.6,7.6l0.6,2.6l-3.2-3.3
	c-4.3-4.5-15.8-13.7-19.5-15c-1-0.4-1.9-0.3-2.7-0.2V17.7l160.3,0c9.4,0,18.7,0.2,28.1,0.7c15.5,0.6,31,2.5,46.1,5.9
	c11.4,2.5,22.2,7.2,31.8,14c15.2,11.2,27.2,26.2,34.9,43.4c7.4,16.8,11.5,34.8,12.1,53.1c1,15.7-0.5,31.4-4.4,46.7
	c-5.9,23.1-20.4,43-40.6,55.7c25.7,14.2,44.5,38.3,52.1,66.7c4.9,19.1,6.3,39,4,58.7c-2.1,22.7-10.2,44.4-23.6,62.8
	c-6.5,9.2-14.4,17.3-23.3,24c1.4-3.6,2.5-4.9,5.8-12.8c3.7-8.8,4.1-9.6,4.7-15.5c0.2-2.8-4.7-5.5-9.2-0.9
	c-12,11.2-16.6,23.7-16.6,23.7c-0.1-5.6,0.1-11.2,0.6-16.9c0.6-6.7,0.6-6.9,1.2-7.3c1.1-0.9,5.7-2.9,9.4-4.3
	c7.7-2.9,11.4-4.8,14.9-7.9c3.4-3,8.4-8.9,9-10.6c0.4-1.1,0.1-2.2-0.7-2.8c-1.1-0.8-2-0.6-5.7,1.3c-3.7,1.9-7.5,3.6-9.7,4.3l-4,1.3
	l1.8-1.7c7.1-7,11.4-14,13.7-22.5c0.8-2.9,0.9-7.9,0.7-9.4c-0.2-1.4-3.3-5.3-5.3-2.3c-0.8,1.2-4.4,5.9-8,10.5
	c-3.6,4.6-7.4,9.6-8.5,11.1c-1.8,2.6-1.9,2.7-1.6,1.6c0.6-2.7,3.5-11.3,5.5-16.1c2.2-5.4,3.4-7.9,7.4-15.2l2.3-4.2
	c0.7,0.1,2,0,2.7-0.6c0.2-0.2,1,0.1,3.2,1.2c4.1,2.1,6.1,2.7,10.9,3.2c7.9,0.9,11.8,0.1,14.4-2.9c1.6-1.9,1.9-3.2,2.4-10
	c0.4-6.7,0.3-7.8-1.1-9.7c-1.2-1.7-2.4-2.3-5-2.4c-2.1-0.1-3.2,0.1-6.1,1.1c-0.3,0.1-0.1-0.4,0.8-2.3c2.7-5.3,3.9-9.6,4.3-15.3
	c0.2-3.4,0.2-3.9-0.3-5.9c-1.3-4.9-4.8-7-9.1-5.3c-0.7,0.3-2.3,1.4-3.6,2.5l-2.4,2l-1.2-1.3c-1.7-1.8-3.7-2.8-5.9-3.1
	c-5.6-0.7-9.6,3.2-11.5,11.4c-1.4,6.1-1.8,11.6-1.2,16.5c0.7,5.2,3,13.4,4.3,15.6c0.4,0.7,0.8,1.4,0.8,1.5c0,0.1-1.6,3.2-3.6,6.8
	c-3.9,7.2-5.8,11.2-8.1,17.3c-2.3,6.1-2.2,6-2.4,5.4c-3.4-10.8-9.6-22.4-15.3-29c-1.9-2.1-7,0.5-5.3,6.2c3.3,11.2,4.5,17.1,5.1,25.3
	c0.5,7.3,1.2,11,3,16.1c1.4,4,2.6,6.3,4.3,8.1l1.4,1.6l-0.6,3.7c-1.1,6.1-1.6,11-2.1,19.4c-0.9,13.5-0.3,22-0.5,31.6
	c-2.3,1-4.6,1.9-7,2.7c-0.5-4.3-5.9-35-6.1-44.5c0.4-6.7,0.2-13.4-0.7-20c-3.4-17.1-4-34.8-1.8-52.2c0.7-5,1.1-10,1.2-15
	c0.5-3.3,0-3,5.2-9.7c4.9-6.4,9.3-11.8,14.5-17.6c8.6-9.8,11.6-13.8,14.8-19.5c1.6-3,2.6-6.5,2.4-8.5c-0.2-1.8-1.4-3.6-2.8-4.4
	c-3.5-1.8-9.2-0.3-13.9,3.6c-7.9,6.7-17.8,17.7-21.5,35.1c-0.1-2.2-0.2-4.4-0.2-6.5c0.3-4.5,0.5-9.1,0.5-13.6
	c-0.6-9.4-1.6-18.8-2.9-28.1c-0.5-6-1.9-11.8-4-17.4c4.4-5.5,7.8-11.7,10.3-18.5c1.1-0.4,2.3-0.8,3.4-1.4c5.4-3.5,10-8.1,13.6-13.6
	c1.3,0.4,2.7,0,3.6-1.2c0.9-1.6,0.6-3.6-0.7-4.8c-1.2-2-3.5-2.8-5.6-2c-1.4,0.9-2,2.8-1.3,4.3c-3,4.5-6.6,8.4-10.8,11.7
	c0.6-1.5,1.2-3,1.8-4.4c1.6-2.5,3.2-4.9,4.9-7.3c0.3-0.1,0.6-0.1,0.9-0.2c1.3-0.3,2.3-1.6,2.2-3c-0.3-1.5-1.2-2.7-2.4-3.5
	c-1.4-1.1-3.3-1.1-4.8-0.1c-1.1,0.7-1.5,2.3-0.8,3.6c0.1,0.2,0.2,0.3,0.4,0.5c-1.5,2.3-3,4.5-4.6,6.7c-0.4-2.1-0.9-4.3-1.5-6.4
	c0.5-0.2,1-0.6,1.4-1.1c0.9-0.9,1.1-2.5,0.2-3.6c-0.1-0.1-0.3-0.3-0.4-0.4c-3.1-1.8-6.9-1-9.1,1.9c-0.1,0.2-0.2,0.5-0.3,0.7
	c-0.3-0.4-0.8-0.7-1.3-0.8c-2.5-0.3-5,0.5-6.9,2.1c-1.2,0.7-1.8,2.2-1.4,3.6c0.7,1.5,2.3,2.3,3.8,1.8l0,0.3l0.2,0.9
	c1.1,3.8,2.7,7.4,4.9,10.6c1.1,2.1,2.8,3.9,4.8,5c-2,4.8-4.6,9.4-7.6,13.5l0-0.1c-3.3-2.5-6-5.8-8-9.5c1-1.2,1.8-2.7,2.1-4.3
	c1-6.9-0.9-13.9-5.3-19.1c0.3-0.7,0.5-1.4,0.4-2.2c-0.1-0.4-0.3-0.8-0.6-1c-0.2-0.2-0.5-0.4-0.8-0.6c-1-0.4-2.1-0.5-3.1-0.3
	c-2.6,0.6-4.2,3.3-3.6,6c0.7,1.5,2.3,2.1,3.7,1.5c1.9,2.3,3.3,5.1,3.9,8.1c-1.9-2.5-3.7-5-5.6-7.5c-1.5-1.2-3.7-0.9-4.9,0.7
	c-1.2,0.9-1.4,2.6-0.6,3.9c0.6,1.7,2.2,2.6,3.8,2.1c1.5,1.7,2.8,3.6,4,5.6c-3.8-1.2-7.4-3.2-10.5-5.9c0.2-0.5,0.4-1,0.5-1.6
	c0-0.3,0-0.6,0-1l-0.2-0.6c-0.7-1.5-2.3-2.2-3.8-1.6c-2.4,0.2-4.3,2.3-4.4,4.9c0.2,1.5,1.4,2.5,2.7,2.6c4,3.5,8.6,6.2,13.5,8
	c-4.6,0.1-9.1-1-13.1-3.4c-0.2-1-0.7-1.8-1.4-2.4c-0.2-0.3-0.5-0.5-0.8-0.5c-2-0.7-4.1,0.4-5,2.4c-1.3,1.4-1.4,3.7-0.1,5.2
	c1.4,1.3,3.4,1.3,4.7,0c0.2,0.1,0.4,0.2,0.6,0.3c5.8,3.4,12.6,4.5,19.1,3.1c1.3,2.8,3.1,5.3,5.3,7.3c1.8,1.5,3.4,3.4,4.5,5.6
	c1.6,2.1,2.7,4.6,3.1,7.3c2,11.4,3.4,22.8,4.3,34.3c-6.4-8.3-14.2-15.4-22.9-20.8c0-0.7-0.1-1.3,0-2c-0.5-6.5-3.2-12.5-7.7-16.9
	c1-0.9,1.4-2.2,1.1-3.5c-0.7-1.9-2.3-3.1-4.2-3.1c-3.5-0.5-6.7,2.2-7.1,5.9c0,0.2,0.1,0.3,0.1,0.5c0.1,0.2,0.1,0.4,0.2,0.6
	c1,1.7,3,2.4,4.8,1.9l1.6,1.8c2.3,2.4,4,5.4,5,8.6c-2.3-2-4.6-3.8-7.1-5.4c-0.6-1.1-1.4-1.9-2.5-2.5c-1-0.8-2.3-0.9-3.4-0.3
	c-0.1,0-0.1,0.1-0.2,0.1l-0.5,0.4c-1.6,1.5-1.9,3.9-0.8,5.8c1,1.7,3.1,2.2,4.8,1.3c2.4,1.4,4.7,3.1,6.7,5.1
	c-3.6,0.8-7.4,0.3-10.7-1.5c0-0.6-0.2-1.1-0.3-1.7c-1-1.9-3.1-2.6-5-1.8c-2.4,1.2-3.5,4.3-2.4,6.9c1.1,1.7,3.3,2.2,4.9,1
	c3.8,2.1,8,2.9,12.2,2.2c-3.6,1.5-7.5,2-11.3,1.6c-0.6-1.2-1.8-2-3.2-1.9c-2.6,0.2-4.6,2.6-4.4,5.4c-0.2,2.7,1.5,5,4,5.4
	c2,0.1,3.7-1.5,3.8-3.6c6.7,0.8,13.5-1.3,18.8-5.9c5.8,3.5,11.2,7.8,15.9,12.8c3.6,4,6.9,8.4,9.7,13.1c-0.7,6.5-0.6,13.1,0.2,19.7
	c1.2,8.5,1.3,17.2,0.2,25.7c-2,13.6-3.1,27.3-0.9,41.1c0,0.2-0.3,0.5-0.5,0c-1.5-3.8-3.9-13.1-5.1-17.9
	c-3.1-14.3-5.5-20.7-10.2-26.4c-2-2.4-2.6-3-4.6-4.1c-1.9-1-2.5-1.2-3.7-1c-1.6,0.2-3.1,1.4-3.9,3.1c-1.1,2.3-0.8,8.4,0.8,15.6
	c1,4.4,2.4,14.4,6.9,20.8c-4.9-2.3-12.9-10.1-20.4-12.7c4.6-6.1,7.4-13.3,8.1-20.9c1.2-9.8,0.5-19.8-2.1-29.4
	c-1.4-5.5-4.5-10.5-8.8-14.2c-4.6-3.6-9.9-6.1-15.6-7.5c-7.9-2-16.1-3-24.3-3H566.1z M682.8,440.8c-1-0.8-1.6-1.8-3.5-4.6
	c-0.4-3.5-0.7-7-0.7-10.5c0.3-2.2-0.9-4.2-3-5c-2.3-0.5-4.6-0.2-6.8,0.7c-1.4-2.6-4.5-3.6-7.2-2.5c-2.4,0.9-3.6,3.5-2.9,6
	c0.3,1,0.8,1.8,1.6,2.4c-1.6,1.5-2.4,3.7-2,5.8c0.5,1.7,1.9,2.9,3.6,3.4c2.4,0.9,4.9,1.5,7.4,1.8c1.6,0.3,3.3,0.6,4.9,0.9
	c3.2,5.1,6.3,11,6.7,17.1c-2.3-0.7-4.6-1.6-6.8-2.7c0-2.7-2.2-4.9-5-4.9c-3.3-0.2-6.2,2.4-6.4,5.7c0,2.6,2,4.7,4.6,4.8
	c1.4,0.1,2.8-0.2,4-0.9c3.5,1.8,7.3,3.1,11.1,3.7c0.4,1.5,0,4.1-0.1,5.6c-6,1.6-12.1,2.9-18.2,3.8c-15.7,2.3-31.5,3.6-47.3,4
	c6.5-5.4,10.7-10.7,15.1-16c7.9-9.5,11.6-16.2,10.8-19.6c-0.5-2.1-2.4-3.4-4.5-3c-2.2,0.4-9.5,5.6-13.6,9.7
	c-2.5,2.5-3.5,3.7-6.5,7.4l-2.5,3.2l0.8-2.3c2.8-8.3,6.2-17.2,7.6-19.8c1-1.8,1.1-1.9,2.7-1.7c2.9,0.4,4.9-0.4,6.5-2.5
	c0.8-1,1.1-1.7,1.7-4.2c0.4-1.6,0.8-3,0.9-2.9c0,0,0.4,0.4,0.9,0.9c2.2,2.4,6.5,4.3,9.4,4.1c2-0.1,4.4-1.4,5.4-2.9
	c1-1.5,2.8-7.3,3-9.9c0.2-2.2-0.3-5-1-6.2c-1.1-1.6-3.2-2.7-5.2-2.5c-0.5,0-1,0-1,0s0.3-0.8,0.8-1.7c2.3-4.3,1.3-9.2-2.2-11.6
	c-1.4-0.9-4.5-1.8-6.4-1.8c-2.7,0-4.9,1.2-6.4,3.4c-0.3,0.5-1.1,2.4-1.7,4.4l-1.1,3.5l-1.4-2.1c-2.2-3.4-4.9-5.3-7.6-5.4
	c-3.8-0.1-7,3-8.8,8.7c-0.9,2.7-1.3,6-1,7.4c0.6,2.8,2.7,4.5,5.8,4.8c1,0.1,2.1,0.1,2.5,0.1c0.7-0.1,0.7,0-0.5,0.9
	c-3,2.3-4.3,4.8-3.7,7.3c0.3,1.5,1.8,3.7,3.3,4.9c1.2,1,1.2,1,0.6,2c-0.8,1.1-3,6.3-4.7,11.1c-2.5,6.9-2.4,6.8-2.4,3.2
	c0-7.8-1.2-12.6-3.7-14.6c-1.3-1-3.6-1.6-5.1-1.3c-1.2,0.3-3.3,1.5-4.2,2.6c-1.7,1.9-3.1,6-3.6,10.3c-0.3,2.9-0.1,6.2,0.2,9.8
	c-0.6-1.6-4.4-9.7-4.8-10.2c-0.5-0.8-0.5-0.8,0.5-1.6c1.2-1,2.4-2.8,2.6-4c0.4-2-0.6-4-3.1-5.8c-1-0.8-1-0.8-0.4-0.7
	c0.3,0,1.3,0,2-0.1c2.5-0.2,4.2-1.6,4.6-3.9c0.2-1.2-0.1-3.8-0.9-6c-1.5-4.6-4.1-7.1-7.2-7c-2.2,0.1-4.4,1.6-6.1,4.4l-1.1,1.7
	l-0.9-2.8c-0.5-1.6-1.1-3.1-1.4-3.5c-1.3-1.8-3.1-2.7-5.2-2.7c-1.5,0-4.1,0.8-5.2,1.5c-2.8,2-3.5,6-1.7,9.4c0.4,0.7,0.7,1.3,0.6,1.4
	c0,0.1-0.4,0.1-0.8,0c-1.6-0.1-3.3,0.8-4.2,2.1c-0.6,0.9-0.9,3.2-0.7,5c0.2,2.1,1.7,6.8,2.5,8c0.8,1.2,2.8,2.2,4.4,2.3
	c2.3,0.1,5.8-1.5,7.6-3.4c0.4-0.4,0.7-0.8,0.7-0.8c0,0,0.4,1.1,0.7,2.4c0.6,2,0.8,2.5,1.4,3.3c1.4,1.7,2.9,2.3,5.3,2
	c1.3-0.2,1.4-0.1,2.2,1.4c1.1,2.1,4,9.3,6.3,16l0.6,1.9l-2-2.5c-2.4-3-3.3-4-5.3-6c-3.3-3.3-9.3-7.4-11.1-7.7
	c-1.7-0.3-3.3,0.7-3.6,2.4c-0.6,2.7,2.5,8.1,8.9,15.7c3.6,4.3,4.8,6.3,10,10.6h-76c-0.1-1.3-0.3-1.7-0.3-2.3
	c7.1-1.8,17.9-6.9,23.2-11.3c6-5.3,7.3-10.8,3.1-13c-1.5-0.8-8.5-1.7-14.1,3.3c-3.4,2.3-8,6-9.8,7.9c0.7-2.9,1.8-10.6,1.7-14.1
	c6,0.6,16.3-8.6,21.1-15.5c2.4-3.7,2.9-6.9,1.6-9.4c-1.6-3-5.7-4.1-10.2-2.7c-1,0.3-1,0.3-0.8-0.1c0.2-0.3,1.1-2,2.1-3.8
	c1-1.9,2.2-4.1,2.7-5l0.9-1.6l3.2-0.6c5.8-1.1,11.2-3.2,14.4-5.7c3-2.4,5.5-6.3,5.7-8.8c0.3-5.1-4.6-8.3-9.8-6.4
	c-2.1,0.7-5.5,2.8-7.3,4.6c-0.8,0.8-1.5,1.4-1.5,1.3c0,0-0.2-1.6-0.3-3.4c-0.4-5.7-1.4-8.7-3.5-10.1c-2.4-1.6-5.3-0.8-7,2.1
	c-0.7,1.1-1,2.3-1.8,5.7c-0.8,3.7-1,4.6-0.9,7c0.1,3.9,0.9,6.7,2.9,10.5l0.9,1.8l-2.2,3.9c-1.2,2.2-2.3,4.1-2.5,4.4
	c-0.2,0.4-0.4,0.1-0.9-1.2c-1.6-4-6.2-5.5-9.2-2.9c-1.2,1.1-1.9,2.1-2.6,4.2c-0.3,0.8-0.6,1.5-0.6,1.5c-0.1,0-0.7-0.7-1.3-1.6
	c-1.6-2.1-2.8-3-4.5-3.4c-1.5-0.4-2.8,0-4.1,1.1c-0.6,0.5-0.8,1-1.3,3.1c-0.5,2.2-0.5,2.8-0.2,5.3c0.7,5,1.9,9.4,4.1,14.2
	c1.3,2.9,4.8,8.9,6.1,10.3l0.9,1c-0.4,2.7-1.3,8.1-2.3,11c0,0-0.8-1.1-1.8-2.4c-4.1-5.6-7.7-9.1-11.5-8c0.1-6.4-0.1-12.4-0.5-18.7
	l-0.6-8.7l1.3-2.1c0.7-1.2,3-4.9,5.1-8.4c3.4-5.6,4.2-7,6.7-13.3c2.2-5.6,2.9-7.7,3.2-10.1c0.6-4.3,0.8-9.9,0.6-14.3
	c-0.1-2.1-0.3-6.8-0.4-10.4c-0.3-10.9-0.6-14.1-1.4-15c-1.1-1.2-1.9-1.4-3.4-0.7l-1.3,0.6l-3.1,8.5c-3.2,8.7-8.4,24.9-9.9,30.6
	c-1.5,5.9-1.6,5.9-2.6,1.6c-1.8-7.8-1.4-10.7,3.6-26.3c2.2-7.1,3.6-10.1,7.3-16.8c4-7.2,7.4-11.7,16.4-21.6c2.8-3.1,6.7-7.4,8.6-9.7
	c2.7-3.1,3.7-4.1,4.4-4.1c0.5,0,3.3,0.4,6.1,1c6.4,1.2,15.2,4.2,21.5-0.4v69.5h34.1c9.2,0,16.9-0.8,25-2.9c2.8-0.7,5.5-1.6,8-2.9
	c1.5,3.4,5.2,6.8,9.5,9.7c10.5,8.4,34.9,14.7,39,16.3c4.8,2.8,6.8,4.5,7.3,13.4C682,414.5,682.2,428,682.8,440.8z M672.2,170.2
	c1.4-1,2.8-2.2,4.1-3.4c1.4-1.1,2.8-2.1,4.2-3.2c1.1-1,2.1-2.3,2.9-3.6c1-1.5,2.2-2.8,3.5-3.9c2.4-2.5,4.6-5.4,6.4-8.4
	c1.2-2.4,2-4.9,2.5-7.5c0.3-2-0.5-4-2-5.3c-1-0.9-1.9-1.8-2.8-2.8c-0.4-0.4-0.6-1-0.5-1.5c0.1-0.1,0.3-0.1,0.5,0.1
	c0.6,0.9,1.5,1.6,2.4,2.1c0.8,0.3,1.6,0.6,2.5,0.9c0.8,0.4,1.4,1,1.8,1.7c0.6,0.9,1.4,1.7,2.3,2.3c0.6,0.2,1.2,0.5,1.8,0.8
	c0.7,0.5,1.3,1.1,1.8,1.9c0.9,1.2,2.2,2.2,3.6,2.8c1.5,0.9,2.8,2.1,3.9,3.5c0.7,0.9,1.4,1.7,2.3,2.3c0.6,0.3,1.1,0.6,1.8,0.9
	c0.8,0.4,1.4,1,1.9,1.7c1,1.2,2.2,2.2,3.5,2.9c1.2,0.9,2.4,1.9,3.6,2.9c1,0.8,2.1,1.7,3.1,2.5c0.9,0.7,1.9,1,3,1.4
	c0.7,0.3,1.4-0.1,0.6-1.7c-0.7-1.4-1.8-2.5-3-3.5c-1.5-1.3-3-2.6-4.5-3.9c-0.7-0.8-1.5-1.6-2.3-2.4c-0.7-0.5-1.4-1-2.2-1.4
	c-0.7-0.5-1.4-1.1-1.8-1.8c-0.7-1.1-1.7-2-2.9-2.6c-1.5-0.8-3-1.9-4.2-3.1c-0.7-0.9-1.4-1.7-2.2-2.5c-0.9-0.7-1.8-1.2-2.8-1.7
	c-0.7-0.5-1.3-1.1-1.7-1.9c-0.5-1-1.4-1.7-2.4-2.2c-0.6-0.3-1.2-0.6-1.7-0.9c-0.7-0.5-1.2-1.3-1.5-2.1c-0.5-1.2-1.5-2.2-2.6-2.8
	c-0.3-0.1-0.6-0.4-0.9-0.6c-0.1-0.1,0-0.3,0.3-0.2c0.8,0.2,1.6,0.6,2.2,1.2c1,0.9,2,1.7,3.1,2.5c1.3,0.8,3,0.9,4.4,0.5
	c3.2-0.9,6.1-2.5,8.7-4.7c2.8-2.5,5.3-5.3,7.5-8.3c1.1-1.1,2.2-2.2,3.4-3.2c1.2-1.3,2.3-2.7,3-4.3c1-1.7,2-3.4,3.2-5
	c0.6-0.9,1.1-1.9,1.4-3c0.8-2.5-2.5-2.6-3.3-2.5c-1.5,0.3-3,0.8-4.3,1.5c-2.2,1.1-4.2,2.5-6,4c-1.4,1-2.8,2.1-4.2,3.2
	c-2.3,2-4.8,3.9-7.4,5.6c-2.9,2-5.9,3.9-8.9,5.8c-0.7,0.5-1.5,1-2.2,1.5c-0.8,0.5-0.9,0.2-0.8,0.1c0.3-0.5,0.7-0.9,1.2-1.3
	c2.1-1.9,4.3-3.8,6.6-5.6c1.9-1.5,3.8-3.1,5.5-4.7c1.8-1.9,3.4-4.1,4.7-6.4c1.3-2.3,2.4-4.7,3.2-7.2c0.3-1.5,0.5-3,0.7-4.6
	c0.3-2,0.7-3.9,1.2-5.8c0.2-0.8,0.2-2.1-1.1-2.5c-1.1-0.2-2.2,0-3.1,0.6c-1.5,0.9-2.8,2.1-3.8,3.6c-2.3,3.2-4.4,6.6-6.2,10.1
	c-1.4,2.5-3.1,4.8-5.1,6.9c-1.3,1.5-2.6,3-3.9,4.5c-2.3,2.9-4.2,6.2-5.5,9.7c-0.4,0.9-1.2,0-1.7-0.3c-0.7-0.4-1.6-0.6-2.5-0.5
	c-0.6,0.1-1.2-0.1-1.1-0.6c0-0.4,0.1-0.8,0.3-1.2c0.2-0.8,0.1-1.7-0.5-2.4c-0.3-0.3-0.7-0.5-1.1-0.6c-0.9-0.1-1.7,0-2.5,0.4
	c-0.8,0.3-1.6,0.7-2.4,1.1c-0.7,0.5-1.2,1.3-1.3,2.1c-0.3,1.1-0.5,2.1-0.5,3.2c0,0.4,0.1,0.8,0.3,1.2c0.4,0.7,1.3,1.2,2.1,1
	c0.6-0.1,1.2-0.4,1.8-0.6c0.2-0.1,0.5-0.2,0.8,0.2c0.2,0.3,0.3,0.7,0.3,1.1c0,0.4,0.1,0.9,0.3,1.2c0.3,0.6,0.7,1.1,1.2,1.5
	c0.5,0.3,0.4,0.9-0.8,1.4c-3.5,2-6.6,4.5-9.2,7.4c-2.1,2.5-4.4,5-6.8,7.3c-1.7,1.4-3.5,2.7-5.3,4c-2.5,1.8-4.8,3.8-7,6
	c-1.1,1.1-1.9,2.4-2.5,3.9c-0.3,0.8-0.4,1.7-0.2,2.6c0.3,1.8,2.7,1.5,4.3,0.6c2-0.8,4.2-1.5,6.3-1.9c2.1-0.6,4.2-1.5,6-2.7
	c3.2-2,6.1-4.4,8.5-7.2c1.5-1.9,2.8-3.9,4.1-6l0.4-0.6c1.6-2.7,3.3-5.2,5.1-7.7c0.4-0.5,0.7-0.5,0.7-0.1c-1.8,3.6-3.5,7.1-5.2,10.7
	c-1.1,2.2-2.2,4.3-3.4,6.4c-1.6,2.4-3.1,4.8-4.4,7.4c-1.4,2-2.5,4.2-3.3,6.4c-0.6,1.4-1,2.9-1.1,4.5c-0.1,0.9,0.1,1.7,0.5,2.5
	C668.9,171.2,670.8,171.1,672.2,170.2z"/>
</svg>
