<?xml version="1.0" encoding="utf-8"?>
<!-- Generator: Adobe Illustrator 26.5.2, SVG Export Plug-In . SVG Version: 6.00 Build 0)  -->
<svg version="1.1" id="Layer_1" xmlns="http://www.w3.org/2000/svg" xmlns:xlink="http://www.w3.org/1999/xlink" x="0px" y="0px"
	 width="1024.2px" height="980.2px" viewBox="0 0 1024.2 980.2" style="enable-background:new 0 0 1024.2 980.2;"
	 xml:space="preserve">
<style type="text/css">
	.st0{fill:none;stroke:#FF0000;stroke-width:0.75;stroke-miterlimit:11.3386;}
	.st1{fill:none;stroke:#FF0000;stroke-width:0.75;stroke-miterlimit:9.6137;}
	.st2{fill:none;stroke:#FF0000;stroke-width:0.75;stroke-miterlimit:9.5054;}
</style>
<path class="st0" d="M964.4,613.3l54.7,0c1.6,0,2.3-1.4,2.3-2.2l0-110.6c0-1.4-0.8-2.2-2.4-2.2l-250.1,0c-0.8,0-1.3,0.3-1.6,0.7
	c-0.6,0.8-0.7,1.5-0.7,1.7l0,110.4c0,0.5,0.6,1.5,1.1,1.9c0.4,0.3,0.8,0.4,1.3,0.4l54.8,0v192.4c-0.2,11.2-0.2,20.6-1.2,32.8
	c-0.4,3.6-2.4,12.7-11.2,12.8c-6.8,0.4-30.3-2.1-35.3-3.1l-28.5-5.3c-1.3-0.2-2.5,0.6-2.7,1.8c0,0.1,0,0.2,0,0.4v122.5
	c0,1.1,0.8,2,1.9,2.2c10.7,2,21.4,3.9,32.1,5.6c10,1.7,27.7,3.4,37,4.2c19,1,38.1-0.5,56.7-4.5c15.9-3.3,30.9-10,43.9-19.8
	c20.2-15.4,34.3-37.4,39.8-62.1c4-17.7,6.4-35.8,7.2-53.9c0.6-11.2,0.9-22.3,0.9-33.5L964.4,613.3z"/>
<path class="st1" d="M2.1,493.2c-1.4,0-2.1,0.8-2.1,2.4v476c0,0.8,0.3,1.3,0.7,1.6c0.8,0.6,1.4,0.7,1.7,0.7H140
	c0.5,0,1.5-0.6,1.9-1.1c0.2-0.4,0.4-0.8,0.3-1.3v-476c0-1.6-1.4-2.3-2.2-2.3L2.1,493.2z"/>
<path class="st0" d="M243.8,858.9V608.3H164c-0.4,0-0.9-0.1-1.3-0.4c-0.6-0.4-1.1-1.4-1.1-1.9l0-110.4c0-0.3,0.1-0.9,0.7-1.7
	c0.3-0.3,0.7-0.7,1.6-0.7l301.9,0c1.6,0,2.4,0.8,2.4,2.2l0,110.6c0,0.8-0.7,2.2-2.3,2.2H386v250.6h79.8c1.6,0,2.4,0.8,2.4,2.2
	l0,110.6c0,0.8-0.7,2.2-2.3,2.2H357.3H247h-83c-0.4,0-0.9-0.1-1.3-0.4c-0.6-0.4-1.1-1.4-1.1-1.9l0-110.4c0-0.3,0.1-0.9,0.7-1.7
	c0.3-0.3,0.7-0.7,1.6-0.7H243.8z"/>
<path class="st2" d="M511.3,848.5l-28.5-5.3c-1.3-0.2-2.5,0.6-2.7,1.8c0,0.1,0,0.2,0,0.4v122.5c0,1.1,0.8,2,1.9,2.2
	c10.7,2,21.4,3.9,32.1,5.6c10,1.7,27.7,3.4,37,4.2c19,1,38.1-0.5,56.7-4.5c15.9-3.3,30.9-10,43.9-19.8
	c20.2-15.4,34.3-37.4,39.8-62.1c4-17.7,6.4-35.8,7.2-53.9c0.6-11.2,0.9-22.3,0.9-33.5l0-305.3c0-1.3-1-2.3-2.3-2.4H561.2
	c-1.2,0.1-2.2,1.1-2.2,2.4V806c-0.2,11.2-0.2,20.6-1.2,32.8c-0.4,3.6-2.4,12.7-11.2,12.8C539.8,851.9,516.3,849.4,511.3,848.5z"/>
<path class="st1" d="M4.9,0C3.5,0,2.7,0.8,2.8,2.4v476c0,0.8,0.3,1.3,0.7,1.6c0.8,0.6,1.4,0.7,1.7,0.7h137.7c0.5,0,1.5-0.6,1.9-1.1
	c0.2-0.4,0.4-0.8,0.3-1.3V2.3c0-1.6-1.4-2.3-2.2-2.3L4.9,0z M85.9,338.4c2.1-3.2,8.3-12.5,6.6-16.2c-3.6-0.8-15.2,19-18,27.4
	C76.7,348.2,82,343.6,85.9,338.4z M69.1,166.9c-0.3,0.6-0.7,1.2-1.3,1.5c0.2,3.4,1.2,6.6,3,9.5c0.6,1.2,1.2,2.3,1.9,3.4
	c0.4-2.5,0.4-5.1-0.2-7.6c-0.3-2-0.6-4.1-1.1-6.1c-0.8-0.1-1.6-0.4-2.2-1.1L69.1,166.9z M74.2,272.1c2.9-7.4,4.5-10.7,7.6-15.7
	c4.4-7,11.5-14.4,16.2-16.9c1.9-1,4.2-1.5,5.4-1.2c1.9,0.6,0.1,5.3-4.4,11.3c-2.6,3.6-5,6.3-11.7,13.1c-5.6,5.7-10.7,11.3-14,15.2
	c-1.1,1.4-1.7,1.5-1.5,0.8C72.1,277.9,73.1,274.9,74.2,272.1z M50.8,339.7c-1.3-1.7-2.7-3.7-3.2-4.5c-1.4-2.2-4-7.8-5.4-11.4
	c-2.6-6.9-4.5-19.6-3.7-24.2c0.1-0.7,0.3-0.8,1-0.4c2.3,1.2,6.3,8.7,8,15c0.5,2,1.7,7.9,2.6,13.2c0.9,5.2,1.9,10.8,2.3,12.3
	c0.4,1.6,0.8,2.9,0.7,2.9C53.2,342.7,52.1,341.4,50.8,339.7z M28.9,339.1c-3.3-2-12.9-7.6-13.1-11.7c2.8,0.7,22,10.4,28.2,16.8
	C41.4,343.9,34.7,342.1,28.9,339.1z M83.7,457.7c-1.1-3.4-2.5-10.8-2.7-13.8c-0.3-4,0-6.9,0.9-9.9c0.8-2.9,1.6-4.3,2.6-4.8
	c0.6-0.3,0.7-0.3,1.1,0.3c0.5,0.9,1,3.5,1.1,6.3c0.1,3.1-0.5,13.2-1.2,19.1c-0.3,2.6-0.6,5-0.6,5.3
	C84.8,461.1,84.5,460.4,83.7,457.7z M95.7,459.8c4.8-6.7,9.5-12.2,13.4-15.6c2.7-2.4,6.1-4.8,6.1-4.4c0,0.8-5.4,7.6-10.4,13
	c-3,3.2-11,10.6-11,10.1C93.7,462.7,94.6,461.3,95.7,459.8z M104.9,409.9c-0.9-0.3-1.9-0.9-2.4-1.3c-0.8-0.7-0.8-0.8-0.4-1.4
	c0.2-0.3,1.6-1.8,3-3.1c2.5-2.5,2.6-2.5,3.5-2.2c2.2,0.6,2.2,0.5,2,4.7c-0.2,4.1-0.4,4.3-2.5,4.1
	C107.2,410.5,105.8,410.2,104.9,409.9z M123.1,402.9c-0.8-0.3-1.7-0.8-2.1-1.1c-1.4-1.1-3.5-3.5-3.5-4c0.1-0.9,8.5-5.2,9.9-5.1
	c0.8,0.1,1.1,3.7,0.6,6.7c-0.5,3.1-0.7,3.6-1.6,3.8C125.3,403.6,124.7,403.5,123.1,402.9z M95.7,395c-0.1-0.4,0.1-2.1,0.3-3.9
	c0.3-2.6,0.6-3.4,1.2-4.4c0.9-1.4,1.4-1.5,3.1-0.4c1.1,0.7,5.2,5.6,5.1,6.1c-0.1,0.6-1,1-4.2,2.1C96.8,396.1,95.8,396.2,95.7,395z
	 M114.7,390.2c-1.3-0.8-1.3-1.4-0.9-6.1c0.4-4.1,0.7-4.7,2.4-5c1.8-0.3,3.4,0.2,4.1,1.1c0.5,0.7,0.5,1,0.3,2.7
	c-0.2,1.1-0.6,2.5-1,3.2c-0.7,1.3-3.4,4.8-3.7,4.7C115.7,390.8,115.2,390.5,114.7,390.2z M70.1,462.9c-3.8-6.7-7.6-12.3-10.9-15.9
	c-2.3-2.5-5.2-5.1-5.3-4.7c-0.1,0.8,4.3,7.6,8.4,13.1c2.5,3.3,9.2,10.9,9.3,10.5C71.6,465.8,70.9,464.5,70.1,462.9z M68.3,424.9
	c0.9-0.1,2-0.4,2.5-0.7c0.8-0.5,0.9-0.6,0.7-1.2c-0.1-0.4-1.1-1.9-2.1-3.5c-1.8-2.8-1.8-2.8-2.7-2.8c-2.1,0.1-2.1,0-2.7,3.9
	c-0.6,3.8-0.5,4,1.4,4.3C66.1,425,67.5,425,68.3,424.9z M53.2,414.8c0.8-0.1,1.7-0.4,2.1-0.5c1.5-0.7,4-2.5,4-2.9
	c0.1-0.8-6.7-6.5-8-6.7c-0.7-0.1-1.7,3.2-1.9,6c-0.2,3-0.1,3.4,0.7,3.8C51,415,51.6,415,53.2,414.8z M79.8,413.2
	c0.1-0.3,0.4-2,0.5-3.6c0.2-2.4,0.2-3.2-0.2-4.3c-0.5-1.5-1-1.7-2.7-1c-1.1,0.4-5.9,4-5.9,4.5c-0.1,0.5,0.7,1.1,3.4,2.8
	C78.6,413.9,79.4,414.2,79.8,413.2z M63.5,404.9c1.3-0.5,1.5-1,2.1-5.4c0.5-3.8,0.3-4.4-1.1-5c-1.5-0.6-3.2-0.5-4,0.2
	c-0.6,0.6-0.7,0.8-0.8,2.4c-0.1,1,0.1,2.4,0.3,3.1c0.4,1.3,2.2,5,2.4,5.1C62.4,405.2,62.9,405.1,63.5,404.9z M14.4,442.6
	c0.4-2.6,14.4-22,17.9-24.9c0.6-0.5,1.5-1.1,1.9,0.8c1,2.4-0.8,8.5-3.5,14.3c-0.9,1.9-13.4,21.4-16.3,25.6L14.4,442.6z M64.4,468.7
	c-2.9-5.1-4.5-7.5-8.3-12.8c-6.7-9.4-9.7-15.9-8.8-19c0.6-1.9,2.5-3,4.4-2.5c2.1,0.6,8.5,5.9,12.1,10c2.2,2.5,3.1,3.7,5.6,7.4
	c-2.5-4.9-5.9-17.2-4.7-21.2c-2.7-0.7-5.5-2.7-6.2-5.1c-0.3-1.1-0.4-1.8-0.1-4.2c0.2-1.6,0.3-2.9,0.3-2.9c0,0-0.5,0.2-1.1,0.5
	c-2.7,1.3-7.2,1.5-9.6,0.4c-1.7-0.8-3.3-2.7-3.7-4.4c-0.4-1.6,0.1-7.3,0.8-9.7c0.6-2,2-4.3,3-5c1.5-1.1,3.9-1.6,6.3-0.1
	c0.1,0,0-0.8-0.1-1.8c-0.5-4.5,2-8.5,5.9-9.4c0.1-8.5,0.7-15.8,1.1-18.5c-0.1-8.9-1.9-10.7-6.6-13.8c-4-1.8-29.6-7.8-40.3-19.5V428
	c3.5-8.2,15.1-16.4,17.5-17.3c1.7-0.7,10.1-8.5,7.5,9.8c-0.6,7.4-2.6,16.2-10.2,28.8c-3.2,5.3-7.3,15.5-9.1,19.4H64.4z M133.3,404.3
	c-0.8,1.6-4,4-5.9,4.5c-2.8,0.6-7.4-0.6-9.9-2.6c-0.5-0.4-1-0.8-1-0.8c0,0-0.2,1.4-0.4,3c-0.3,2.5-0.4,3.3-1.1,4.4
	c-1.3,2.3-3.2,3.6-6.1,3.8c-1.2,6.7-7.4,23.3-14.5,35.6c3.1-3.7,7.5-9,10.1-11.4c4.2-3.9,11.7-8.9,14-9.3c2.1-0.3,4,1,4.4,3.1
	c1.8,8.7-17.9,28.8-24.6,34h35.1V404.3z M133.3,388.7V12H14.4v306.5c7.8-0.3,19.2,11.5,25.5,14.9c-4.1-6.6-5-16.6-5.7-21.1
	c-1.2-7.3-1.2-13.3,0.1-15.6c0.9-1.6,2.5-2.8,4-2.9c1.2-0.1,1.8,0.1,3.6,1.2c1.9,1.1,2.6,1.8,4.4,4.3c4.3,6,6.4,12.5,8.7,26.9
	c0.9,4.8,2.8,14.2,4.1,18.1c0.2,0.5,0.5,0.3,0.5,0.1c-1.5-13.9,0.3-27.5,3.1-41c1.5-8.5,1.9-17.1,1.2-25.7
	c-0.4-6.6-0.2-13.2,0.8-19.7c-2.6-4.9-5.6-9.4-9-13.6c-4.5-5.2-3.8-4.4-9.5-8.2c-5.5,4.2-12.4,6-19.1,4.9c-0.3,2.1-2,3.6-4,3.4
	c-2.4-0.5-4.1-3-3.7-5.6c0-2.8,2.1-5.1,4.7-5.1c1.3,0,2.5,0.8,3,2.1c3.8,0.6,7.7,0.2,11.4-1c-4.2,0.4-8.5-0.6-12.1-2.9
	c-1.7,1.1-3.8,0.5-4.8-1.3c-1-2.7,0.2-5.7,2.7-6.8c1.9-0.7,4,0.1,4.9,2c0.2,0.5,0.3,1.1,0.3,1.7c3.2,2,6.9,2.7,10.6,2
	c-1.9-2.1-4.1-3.9-6.5-5.5c-1.7,0.9-3.8,0.2-4.7-1.6c-1-2-0.5-4.4,1.2-5.8l0.5-0.3c0.1,0,0.1-0.1,0.2-0.1c1.1-0.6,2.4-0.4,3.3,0.5
	c1,0.6,1.8,1.5,2.3,2.6c2.4,1.8,4.7,3.7,6.8,5.8c-0.8-3.3-2.4-6.4-4.5-8.9l-1.5-1.9c-1.8,0.4-3.7-0.4-4.6-2.2
	c-0.1-0.2-0.1-0.4-0.2-0.6c0-0.2,0-0.3-0.1-0.5c0.6-3.7,3.9-6.2,7.4-5.5c1.9,0.1,3.5,1.4,4,3.3c0.3,1.3-0.3,2.6-1.3,3.4
	c4.2,4.6,6.6,10.8,6.8,17.3c-0.1,0.7-0.1,1.3-0.1,2c8.4,5.9,10,7.9,16,16.6c-0.3-11.5-1.1-23-2.5-34.5c-0.3-2.7-1.2-5.3-2.7-7.5
	c-1-2.2-2.5-4.2-4.2-5.8c-2.1-2.2-3.8-4.7-5-7.6c-6.6,1-13.2-0.4-18.9-4.1c-0.2-0.1-0.4-0.2-0.6-0.3c-1.4,1.2-3.4,1-4.7-0.3
	c-1.2-1.5-1.1-3.8,0.3-5.2c1-2,3.2-2.9,5.1-2.1c0.3,0,0.6,0.2,0.8,0.5c0.7,0.6,1.1,1.5,1.2,2.5c3.9,2.6,8.3,4,12.9,4.1
	c-4.8-2-9.3-4.9-13.1-8.7c-1.4-0.2-2.5-1.3-2.6-2.7c0.3-2.6,2.3-4.5,4.7-4.6c1.5-0.5,3.1,0.2,3.7,1.8l0.1,0.6c0,0.3,0,0.6,0,1
	c-0.1,0.5-0.3,1.1-0.6,1.5c3,2.8,6.4,5,10.2,6.5c-1.1-2-2.3-4-3.7-5.8c-1.6,0.4-3.3-0.6-3.7-2.3c-0.7-1.3-0.4-3,0.8-3.9
	c1.3-1.6,3.5-1.8,5-0.5c1.7,2.6,3.4,5.2,5.2,7.8c-0.4-3-1.6-5.9-3.5-8.3c-1.4,0.5-3-0.2-3.6-1.7c-0.4-2.8,1.3-5.4,3.9-5.8
	c1.1-0.1,2.1,0,3.1,0.5c0.3,0.2,0.6,0.4,0.8,0.6c0.3,0.3,0.5,0.6,0.6,1.1c0.1,0.7-0.1,1.5-0.5,2.1c4.1,5.4,5.7,12.5,4.3,19.4
	c-0.4,1.6-1.3,3-2.4,4.2c1.8,3.9,4.4,7.2,7.5,9.9l0,0.1c3.2-4,6-8.4,8.3-13.1c-2-1.2-3.6-3-4.5-5.2c-2-3.3-3.5-7-4.4-10.8l-0.1-0.9
	l0-0.3c-1.5,0.4-3.1-0.4-3.7-2c-0.3-1.4,0.4-2.9,1.6-3.5c2-1.6,4.6-2.2,7-1.7c0.5,0.1,0.9,0.4,1.2,0.8c0.1-0.2,0.2-0.5,0.3-0.7
	c2.4-2.8,6.2-3.4,9.2-1.5c0.1,0.1,0.3,0.3,0.4,0.4c0.8,1.1,0.6,2.7-0.4,3.5c-0.4,0.4-0.9,0.8-1.5,1c0.4,2.1,0.8,4.3,1.1,6.4
	c1.7-2.1,3.4-4.3,5-6.5c-0.1-0.2-0.2-0.4-0.3-0.5c-0.6-1.3-0.2-2.8,1-3.5c1.5-0.9,3.4-0.8,4.8,0.4c1.1,0.8,1.9,2.1,2.2,3.6
	c0,1.4-1,2.7-2.3,2.9c-0.3,0-0.6,0.1-0.9,0.1c-1.8,2.3-3.6,4.6-5.3,7.1c-0.7,1.4-1.4,2.9-2.1,4.3c4.3-3,8.2-6.8,11.4-11.1
	c-0.6-1.6,0-3.5,1.5-4.3c2.1-0.7,4.4,0.2,5.5,2.3c1.2,1.3,1.4,3.3,0.4,4.8c-1,1.1-2.4,1.4-3.7,1c-3.9,5.3-8.8,9.6-14.3,12.8
	c-1.1,0.5-2.3,0.9-3.4,1.2c-2.8,6.6-6.7,12.6-11.3,17.9c1.9,5.6,2.9,11.6,3.1,17.6c0.8,9.4,1.3,18.8,1.4,28.2
	c-0.2,4.5-0.6,9.1-1.2,13.6c-0.1,2.2-0.1,4.4-0.1,6.5c4.6-17.2,15-27.7,23.3-34c4.9-3.7,10.7-4.9,14-2.9c1.3,0.8,2.4,2.7,2.5,4.5
	c0.1,2-1,5.4-2.8,8.4c-3.4,5.5-6.6,9.4-15.8,18.7c-5.5,5.6-10.2,10.7-15.4,16.8c-5.5,6.5-5,6.2-5.7,9.4c-0.3,5-1,10-2,14.9
	c-3,16.5-3.2,25.4-1,42c1.2-3.3,19.4-42.5,31-35.2c2.4,1.8,2.9,10.6-0.9,18c-3.4,6.8-15,22.3-24.6,28.3c-5.9,6-5.6,24.1-5.3,29
	c6.8,0,7.3,7.3,3.9,12.9l1.9-1.4c3.1-2.2,6.1-3,8.5-2.1c3.3,1.2,5,5,4.7,10.6c-0.2,2.7-0.9,5.6-1.7,6.8c-1.5,2.3-3.9,3-6.7,2.2
	c-0.9-0.3-1.9-0.6-2.2-0.8c-0.6-0.3-0.6-0.3,0.2,1c1.8,3.1,2.1,5.7,0.8,7.6c-0.8,1.2-3.8,3.1-5.5,3.6c-0.9,5.7,2.1,17.1,6.2,22.7
	c-1.5-7.2-1.8-11.8-1-16.7c0.7-4.3,2.3-8.3,4-10.1c1-1,3-2.2,4.3-2.4c1.5-0.3,3.8,0.4,5.1,1.5c2.4,2.1,2.7,9.6,2.4,17.4
	c7.2-12,10-26.3,10.3-27.6c-3.3-0.7-4.6-3.6-5.2-5c-0.9-2.3,0-6.1,4.1-8.7c-7.2,0.2-9.1-0.9-10.2-3.6c-0.5-1.4-0.6-4.7-0.2-7.5
	c0.9-5.9,3.6-9.5,7.3-10c2.8-0.3,5.7,1.1,8.4,4.2l1.7,1.9c-1.6-5.7,1.9-12.1,7.3-12.6c1.9-0.3,5.1,0.1,6.6,0.8
	c3.9,1.8,7.2,7.4,3.5,13C128.9,386.7,132,387.3,133.3,388.7z"/>
<path class="st2" d="M514.1,355.3l-28.5-5.3c-1.3-0.2-2.5,0.6-2.7,1.8c0,0.1,0,0.2,0,0.4v122.5c0,1.1,0.8,2,1.9,2.2
	c10.7,2,21.4,3.9,32.1,5.6c10,1.7,27.7,3.4,37,4.2c19,1,38.1-0.5,56.7-4.5c15.9-3.3,30.9-10,43.9-19.8
	c20.2-15.4,34.3-37.4,39.8-62.1c4-17.7,6.4-35.8,7.2-53.9c0.6-11.2,0.9-22.3,0.9-33.5l0-305.3c0-1.3-1-2.3-2.3-2.4H563.9
	c-1.2,0.1-2.2,1.1-2.2,2.4v305.3c-0.2,11.2-0.2,20.6-1.2,32.8c-0.4,3.6-2.4,12.7-11.2,12.8C542.6,358.7,519.1,356.2,514.1,355.3z
	 M653.6,367.7c-3.2-1.5-6.2-3.6-7.5-5.3c-0.7-0.8-1.2-1.7-1.2-1.8c0.1-0.4,1.2-0.6,2.5-0.5c1.4,0.2,4,1.5,5.4,2.8
	c1.2,1.1,4.3,5,4.6,5.8c0.2,0.5,0.2,0.5-0.9,0.2C655.9,368.7,654.6,368.2,653.6,367.7z M668.1,368.3c1.9-1.6,9.1-5.2,10.2-5
	c0.4,0.1-0.8,1.6-2.2,2.9c-2.2,2-5.2,3.1-7.6,2.8l-1.1-0.1L668.1,368.3z M666.5,359.2c0.9-3.7,3.8-11,4.8-12.2
	c0.8-0.9-0.5,4.4-1.9,7.5c-0.7,1.6-3,6.1-3.2,6.1C666.2,360.7,666.3,360,666.5,359.2z M649.5,335.5c-2-2-3.6-5.1-4.1-6.3
	c-0.4-1-0.1-0.9,1.5,0.4c3,2.3,6.3,6.5,7.2,8.9c0.3,0.8,0.1,1.4-1.3,0.2C652,337.9,650.5,336.5,649.5,335.5z M663.3,336.6
	c-0.1-3.4,1.1-7.8,2.9-10.9c0.9-1.5,2.6-3.2,3.7-3.8l0.9-0.5l-0.4,2.4c-0.8,4.1-2.5,8.4-5.1,12.8c-0.8,1.4-1.6,2.4-1.7,2.3
	C663.4,338.9,663.3,337.8,663.3,336.6z M652,322.4c-0.6-2-1-4.4-0.7-4.9c0.2-0.4,1.6,2.6,2.6,5.5c0.8,2.3,2.4,7.9,2.3,8.3
	C656.1,331.7,652.5,324.2,652,322.4z M664.4,302.2c1.7-2.7,4.3-5.5,6.1-6.4c1.5-0.8,1.7-0.5,1.1,1.4c-0.5,1.7-1.1,2.4-2.4,3.6
	c-1.6,1.3-3.6,2.3-5.5,2.6C663.6,303.5,663.9,302.9,664.4,302.2z M649.6,300.4c-2.8-0.8-4.6-1.5-6.6-2.9c-2.9-1.9-5.6-5.3-4.5-5.8
	c0.8-0.4,4.9,1.1,8.4,3.1c3,1.7,7.9,5.6,7.8,6.3C654.5,301.4,651.9,301,649.6,300.4z M661.9,288.2c0.8-4.1,1.6-7,2.8-10.4
	c0.5-1.4,0.6,0,0.2,3.2c-0.5,3.5-1.3,6.8-2.7,10.8c-0.7,2.1-0.9,2.4-1.1,1.9C661,293.2,661.2,291.4,661.9,288.2z M642.6,271.5
	c-3-1.3-4.8-2.3-6.2-3.6c-1.3-1.2-3.4-3.6-3.3-3.9c0.1-0.8,3.8,0.8,6.5,2.7c1.2,0.9,5.2,4.6,6.1,5.6
	C646,272.9,645.3,272.7,642.6,271.5z M651.3,265.2c-0.5-1.9-0.5-2.1-0.1-5.6c0.3-2,0.7-4.4,1-5.4c0.9-2.8,2.8-6.3,3.4-6.2
	c0.1,0,0.3,0.7,0.5,1.6c0.2,1.3,0.1,2.4-0.4,6.6c-0.6,4.9-0.7,5.2-1.9,8.1c-1.6,3.9-1.5,3.8-1.8,3.3
	C652,267.3,651.6,266.2,651.3,265.2z M634,243.6c-2.1-1.3-2.9-2-3.6-3.1c-0.5-0.7-0.9-1.4-0.9-1.5c0-0.3,1.8,0.5,3.3,1.5
	c1.3,0.9,4.5,4.2,4.9,5C637.9,246,636.9,245.5,634,243.6z M643.2,233.6c0.3-4.9,1.3-9.6,2-9.5c0.8,0.1,0.8,4.8,0,8.1
	c-0.7,2.8-1.8,6-2.1,5.7C643,237.8,643,235.9,643.2,233.6z M630.2,217.1c-0.9-1.3-2-4.2-2.6-7c-0.6-3.1-0.4-3.3,1.4-0.9
	c1.4,1.8,2,3.3,2.6,6.3c0.3,1.6,0.3,2.1,0.1,2.4C631.2,218.3,631.1,218.3,630.2,217.1z M649.8,447.1c2.5-5.6,3.1-10.9,1.9-16.8
	c-1.3-6-1-6.2-4.1,3.5c-3,9.5-3.8,13.3-3.9,18.7c0,1.8,0.2,3.7,0.2,3.9C644.9,455.9,649,448.8,649.8,447.1z M619,411.4
	c1.1-2.5,0.7-9.4-0.8-14.1c-1-3-3.6-8.3-3.4-6.9c0.1,0.5,0,2.2-0.1,3.7c-0.6,7,0.5,13.6,2.7,17.1C618.2,412.4,618.5,412.4,619,411.4
	z M641,404.6c-0.2-1.1-2.3-4-4.5-6.1c-2.7-2.6-6.4-5.4-11-8.1c-2.1-1.3-4.1-2.5-4.5-2.7c-0.8-0.5,3.1,3.9,6.4,7.4
	c3.9,4,9.2,8.4,11.9,9.8C640.9,405.6,641.1,405.6,641,404.6z M601.5,408.3c2.1-1.5,5.9-10.3,7.3-16.4c0.2-1,0.3-1.6-0.8,0.1
	c-3.3,4.1-4.1,5.4-5.3,7.6c-1.7,3.3-2.2,4.8-2.4,6.7c-0.2,1.5,0,2.6,0.4,2.6C600.8,408.8,601.1,408.6,601.5,408.3z M591.2,398.4
	c2.6-1,9-6,11.6-9l1.4-1.6c-2.4-0.1-7.1,0.5-9.4,1.4c-2.4,0.9-3.8,1.7-6,3.7C584.2,397.1,585.6,400.5,591.2,398.4z M642.9,387.4
	c-2.8-1.6-6.7-3.2-9.2-3.8c-2.3-0.6-8.4-1.3-8.9-1.1c-0.7,0.3,9.7,4.3,13.8,5.3c1.5,0.3,5.6,1,6,1
	C645.1,388.7,644,388.1,642.9,387.4z M639.1,458.6c0.1-1-9.3-17.5-13-22.4c-1.8-2.3-6-7.2-6.3-7.2c-0.4,0.1,2.2,8.5,3.5,11.2
	c2.5,5.3,6,15.2,11.3,20.8c1.2-0.6,2.4-1.3,3.6-1.9C638.5,459,638.8,458.8,639.1,458.6z M529.5,461.8c-3.4-7.5-6.2-11.9-15.1-23.4
	c-3.3-4.2-6.3-8.2-6.7-8.8c-1-1.4-1-1.6,1.1,4.5c4.2,12.6,5.6,15.3,9.8,20.6c3.1,3.8,5.5,6.2,11.1,10.8c1.9,1.5,1.9,1.5,1.5,0.4
	C530.9,465.2,530.2,463.4,529.5,461.8z M545.2,456.4c2.7-9.1,2.5-10,5.5-15.3c2.1-3.7,4.9-7.6,5.1-7.1c0.4,0.9,0.2,3.5-3.2,11.2
	c-2.1,4.6-8.1,15.7-8.3,15.2C544.1,460.3,544.6,458.5,545.2,456.4z M533.9,420.6c-1-0.7-1.1-0.8-0.7-1.5c0.2-0.4,1.5-2.3,2.9-4.1
	c2.5-3.2,2.6-3.3,3.7-3.2c2.7,0.3,2.6,0.2,3.1,5c0.5,4.6,0.3,4.9-2.2,5.1C537.4,422.9,534.6,421,533.9,420.6z M549.5,405.9
	c0-1,5.9-7.7,10.6-7.6c1.7,0.9,1.9,4,1.9,7.5c0,3.6-0.2,4.1-1.2,4.6C553.7,413.4,549.6,406.4,549.5,405.9z M523.5,406.7
	c-0.1-0.4-0.3-8.3,0.3-9.6c0.8-1.8,1.4-2,3.6-1.1c1.4,0.6,7.1,5.3,7.1,5.9c0,0.6-1,1.3-4.5,3.2C525,407.7,523.9,407.9,523.5,406.7z
	 M544.9,397.7c-1.6-0.7-1.8-1.4-2.1-6.7c-0.3-4.7,0-5.4,1.9-6c2-0.7,4-0.4,5,0.5c0.7,0.7,1.4,4.4,0.1,6.8c-0.6,1.5-3.2,6-3.5,6
	C546.2,398.2,545.6,398,544.9,397.7z M532.8,450.2c-0.6-8-0.6-16.3,0.6-22.1c-11.6-3-6.7-8.3-4.4-15.4c-8.5,2.4-9.4,0.6-11.1-2.3
	c-0.9-1.5-1.6-5.2-1.5-8.4c0.1-6.8,2.5-11.4,6.8-12.6c7.4-1.2,10.8,3,12.8,5c-0.7-2.9-0.2-7.4,0.3-9.5c1-2.9,3.1-5,6.1-6
	c2.1-0.7,6-0.8,7.9-0.3c4.8,1.3,8.8,5,6.4,14c4.2-1.8,6.1-0.8,7.9,0.6c1.2,0.9,2.7,3.9,3.3,6.3c0.7,3,0.8,9.9,0.2,11.8
	c-0.6,2-2.8,4.2-5.1,5.1c-3.2,1.2-8.9,2-13.4-1.8c0.9,4.9,0.1,7.3-0.4,8.6c-1.1,2.9-5.1,4.9-8.5,5.6c-0.7,4.8-0.2,14,0.3,18.6
	c4.8-10.7,14.6-31.6,21.2-21.8c5.4,9.6-10.1,40.6-15.4,48.8c15.4,1.3,30.8,0.9,46.1-1.1c-2.1-3.8-2.4-4.1-6.1-6.9
	c-0.8-0.6-1.7-1.3-2.6-1.9c-2,1.7-5.8,1.3-7.6-1.3c-1.6-1.9-0.9-5.7,2.7-7.5c5.6-1.7,8.4,1.7,7.9,4.9c2.8,1.5,7.5,6.2,9.8,8.6
	c-0.9-3.1-2-6.2-3.1-9.2c-1.4-3.6-2.9-7.2-4.5-10.7l-1.6-3.2c-2.2,0-6.6-0.5-8.2-5.7c-1.1-5.6,0.3-10.9-1.4-17.6
	c-2.2-10.6,0.7-9.6,4.7-4.5c1.4,1.8,8,14.3,8.8,16.4c0.9,1.7,0.7,5.8,0.3,6.9c1.2,2.2,2.4,2.8,3.5,5c0.3-2.6,1.6-7.8,3.1-10.2
	c-2-1.2-3.3-4.4-0.5-7.3c4.3-4.4,9.4-1.2,11.2,3.2c0.6,3-0.8,7.4-6,6.7c-0.9,2.4-1.7,4.8-2.3,7.3c-0.8,3.4-1.2,6.9-1.1,10.3
	c2,5.2,3.3,9.4,4.5,14.8c7.9-1.4,15.5-3.7,22.9-6.8c-2.2-4.1-5.3-12.7-7.9-17.8c-2.8-5.4-7.2-20-3.9-24.2c2.6-1.8,7.9,1.8,11.2,5.4
	c1.6,1.7,4.1,4.9,5.6,7c1.5,2.1,2.8,3.8,2.8,3.7c0.1-0.2-1.5-7.3-2.2-10c-1.3-4.7-3.3-10.7-4.8-14.2c-1.6-3.6-1.6-3.6-2.5-5
	c0.1,0.8-1.7,10.4-8.9,7.9c-5.4-2.5-6.1-8.4-6.7-11.4l-0.8,1.7c-1.2,2.4-3,4.6-4.8,5.6c-3,1.7-6.3,1.3-8-1c-1.1-1.5-1.7-5.4-1.2-7.7
	c0.2-0.9,0.3-1.6,0.3-1.6c0,0-0.7,0.2-1.5,0.6c-1.9,0.8-5.4,1.4-7.1,1.1c-1.6-0.3-3.9-1.7-4.8-3c-3-4.2-0.5-10.3,6.1-14.9
	c5-3.9,11.9-4.4,15.2-4.4c-1.3-2.9,2-8,8.1-8.4c4.4-0.4,7.4,1.3,9.3,3.5c4.1-1,10.1-0.1,13.8,0.8c5,1.1,12.3,4.6,15,7.1
	c3,2.7,3.2,6.1,0.5,8c-1.3,0.9-4.8,1.4-7.5,1.1c-1.1-0.1-2-0.2-2-0.1c0,0.1,0.6,0.8,1.4,1.7c4.2,4.4,6,9.1,4.7,12.3
	c-0.7,1.8-2,2.7-4.2,2.9c-2.7,0.2-4.5-0.5-9-3.7c-2.4-1.7-2.5-1.5-3.5-2.1c5.1,10.4,8,19.8,10.4,31.8c1.6-6.5,8.4-27,14.4-16.9
	c1.5,4.3,2.7,8.1,3.3,11.4c1.5-17.3,1.8-29.8,1.8-43.8c0-1.7,0.1-5.1,0.2-7.5c0.2-6.3,0.4-5.8-1.7-6.1c-3.2-0.4-9.6-3.4-12.8-6
	c-2.9-2.3-4.8-5.3-5-7.7c-0.2-3,3-5.4,6.9-5.3c3.3,0.1,7.6,2.5,10.7,5.9c1,1.1,1.9,1.9,1.9,1.8c0-0.3-0.4-12.6-0.5-13.4
	c0-0.4-1.1-1.3-3.1-2.9c-11.5-8.8-16.5-15-15.8-19.8c0.3-3.7,4.1-4.6,7.3-2.8l-0.3-0.8c-1.2-3.2-1-9.2,0.3-10.9
	c2.5-3.2,6-1.3,9.4,4.9c0-2.5-0.8-8.1-1.4-11l-3.3-0.5c-5.7-0.8-10.5-2.8-14-5.8c-3.4-2.9-5.3-6.4-4.9-9.2c0.4-3,2.7-4.3,6.7-3.8
	c2.7,0.3,9.4,2.9,13,5.3c-0.3-3.9-1.9-10.7-3-13.9l-2.1-0.3c-3.2-0.4-9.4-2.9-12.7-5.2c-3.7-2.5-6.9-6.5-7.4-9.3
	c-0.5-3.1,2.2-5.3,6.2-4.7c2.4,0.3,7.5,3,10.5,5.7c0.8,0.7,1.5,1.1,1.5,1c0.2-0.4-0.2-2-2.2-8l-1.9-5.9l-2-0.4
	c-2.6-0.5-3.9-1.1-6.9-2.8c-3.2-1.8-4.5-2.8-6-4.7c-2.5-3-3.2-6.8-1.6-8.5c1.2-1.2,4.3-4.1,11,1.6l-4.2-11.7c-2-0.6-5.7-3.9-7.1-7.3
	c-1.8-3.8-3.1-9.9-2.5-12.4c0.5-2.2,2.4-3.4,4.9-3.1c3.3,0.5,6.9,4.7,8.3,9.8c0.6,2.4,2.2,9.4,1.1,11.5l1.8,5.3l0.5-2.4
	c1.1-5.2,3.2-8.1,5.9-8.2c2.1-0.1,4.4,2.2,5,5.1c1.2,5-0.1,11.5-3.8,19.2c-0.7,1.4-1.3,2.8-1.3,3c-0.1,0.5,2.2,7.2,2.5,7.2
	c0.1,0,0.4-0.7,0.7-1.5c1.3-3.9,3.8-7.3,5.9-8.2c1.1-0.4,1.5-0.5,2.6-0.2c3.8,0.8,5,5.2,3.9,13.8c-0.7,5.1-1,6.1-4.2,13.5l-2.2,5
	c0.8,2.7,2.1,5.8,2.8,11.7c0.1,0,0.4-1.3,0.7-2.8c1.1-4.7,2.5-8.6,4.1-10.9c1.2-1.8,2.6-2.6,4.3-2.4c1.9,0.2,4.6,1.6,3.9,9.4
	c-0.5,3.4-0.8,8.3-2.6,11.8c4.6-2.4,6.8-1.2,7.4-0.8c1.5,1,2,2.5,1.9,5c-0.2,3.5-2.1,6.6-5.5,9.1c-2.5,1.8-6.6,3.4-10.4,3.5
	c0,0.2,1.4,10.2,1.6,13.8c2-3.2,4.5-4.7,6.1-5.3c1.9-0.8,3.2-0.7,4.5,0.1c3.1,1.8,3,6.3-0.2,14.4c-1.6,4-2.3,5.4-6,11.1
	c-2.9,4.4-2.9,4.4-2.9,5.9c0,0.8,0.1,1.6,0.2,1.6c0.1,0.1,0.6-0.8,1-1.8c1.7-4,3.9-6.6,6-7.3c1.4-0.4,2.1-0.3,3.4,0.5
	c0.8,0.5,1.2,1,1.6,2.1c0.5,1.3,0.5,1.6,0.1,4.3c-0.4,3.3-1.5,6.6-3.2,10l-1,2.1l2.6-0.9c4.8-1.7,7.7-1.2,8.7,1.4
	c1,2.8-0.9,6.4-5,9.6c-3.6,2.8-7.8,4-11.7,3.2l-1.9-0.4l-0.1,2.2c-0.2,3.2-0.3,7.2-0.4,12.3c-0.2,16.4-0.2,29.6,0.2,48.5
	c9-11.3,15.4-24.6,18.6-39c3.5-15.5,5.7-31.3,6.6-47.2c0.8-12.5,1.2-24.9,1.1-37.4l0-295.8H573.3v295.8c0.1,11.6-0.3,22-1.4,35
	c-1.1,7.4-3.3,24.5-28.7,22.7c-19.1-1.7-40-5-48.7-6.7v102.9c11.2,2.2,22.5,4.1,33.9,5.6c-4.6-3.8-7.9-7.9-11.9-12.5
	c-3.7-4.2-4.9-5.8-5.9-7.8c-1.9-3.5-3.9-8.3-5.1-12.2c-0.6-1.8-2-6-3.1-9.2c-3.3-9.5-4.1-12.4-3.7-13.4c1-2.9,6-0.8,9.5,4
	C513.4,427.6,529.7,445.7,532.8,450.2z"/>
<path class="st0" d="M246.5,365.6V115h-79.8c-0.4,0-0.9-0.1-1.3-0.4c-0.6-0.4-1.1-1.4-1.1-1.9l0-110.4c0-0.3,0.1-0.9,0.7-1.7
	c0.3-0.3,0.7-0.7,1.6-0.7l301.9,0c1.6,0,2.4,0.8,2.4,2.2l0,110.6c0,0.8-0.7,2.2-2.3,2.2h-79.9v250.6h79.8c1.6,0,2.4,0.8,2.4,2.2
	l0,110.6c0,0.8-0.7,2.2-2.3,2.2H360.1H249.7h-83c-0.4,0-0.9-0.1-1.3-0.4c-0.6-0.4-1.1-1.4-1.1-1.9l0-110.4c0-0.3,0.1-0.9,0.7-1.7
	c0.3-0.3,0.7-0.7,1.6-0.7H246.5z M300.7,397.3c0.7-8.2,1.9-13.3,6.5-27.1c1.7-5,3.2-9.8,3.4-10.6c0.4-1.7,0.4-1.9,0.5,4.6
	c0.1,13.3-0.2,16.3-2.5,22.7c-1.6,4.6-3.1,7.6-7,13.8c-1.3,2-1.3,2.1-1.3,0.9C300.5,400.9,300.6,399,300.7,397.3z M287.7,386.4
	c-2.3-3.7-3.7-7-6.9-16.3c-3.4-9.5-5.2-14-7.2-17.2c-1.9-3.1-1.9-3.1,0.3-1.2c7.5,6.8,12.2,14.3,16.2,26.1
	c0.6,1.8,2.6,14.9,2.4,15.5C292.3,393.6,290,390.2,287.7,386.4z M280.3,323.7c-0.7-0.7-9.7-11.1-13.1-15.5
	c-1.3-1.8-7.6-11.3-8.4-14.3c1.8-0.1,4.3,3.1,6.1,4.7c5.1,5.4,11,12.7,14.2,19.1c0.9,1.9,2,4,2.4,4.7
	C282.4,324,282,325.4,280.3,323.7z M313.5,315c0.3-1.5,1.4-5.9,2.5-9.6c1.8-6.4,3.8-14.5,3.9-16.1c0.1-1.8,0.4,1.8,0.3,5.7
	c0,8.3-1.9,15.5-6.2,23.5l-1.3,2.5C312.6,319.9,312.9,317.1,313.5,315z M270.5,278.9c-2.2-3-3.6-5.8-3.9-8.3
	c-0.2-1.6,0.9-1.3,3.7,3.2c2.6,4.2,4.4,7.3,2.9,8.3C272.9,282,271.7,280.5,270.5,278.9z M278.6,279.8c-0.4-2.8-0.5-8.7-0.3-9.4
	c0.1-0.2,6.2-2.8,6.3-0.9c0.2,0.4-0.7,4.1-1.5,6c-1,2.6-3.7,7.2-4,7.1C279,282.5,278.8,281.3,278.6,279.8z M340.6,306.1
	c0-0.1,2.7-1.1,6-2.3c3.3-1.2,6.5-2.4,7.2-2.6c3-0.6,2.4,4.6,0.5,5.3c-3.3,1.1-8.1,1-13.4-0.2C340.7,306.3,340.6,306.2,340.6,306.1z
	 M337.3,290.5c0.6-3.2,1.4-6.5,1.8-7.4c0.6-1.5,0.8-1.7,2.7-2.5c1.1-0.5,3.9-2.2,6.1-3.7c5.1-3.5,5.9-3.8,6-3c0.2,0.9-1.3,4.4-3,7.1
	c-0.8,1.3-3,4.1-4.8,6.1l-10.5,12L337.3,290.5z M347.1,294c5.9-6.4,9-9.5,11-10.8c0.9-0.6,2.4-0.6,3.2,0c1.1,0.9,1.3,1.2,1.1,2
	c-0.4,1.4-3.1,4.6-5.3,6.3c-1.8,1.4-14.2,7.9-14.3,7.6C342.8,298.8,344.7,296.6,347.1,294z M271.8,264c0.1-2.1,0.3-4.1,0.5-4.5
	c0.3-0.7,0.5-0.7,1.5-0.3c1.5,0.6,2.1,1.3,3.1,3.4c0.6,1,0,2.1-0.9,2.3c-1.6,0.6-1.6,0.7-2.3,2.9c-0.3,2.1-1,2-1.4,1.1
	C271.7,268.1,271.6,266.9,271.8,264z M302.7,250.3c-0.8-2.7-0.9-4.6-0.4-9.7c0.7-7.7,0.7-9.2-1-21.1c-0.4-3-0.8-7.2-0.9-9.4
	c0-2.1-0.2-5.1-0.3-6.6l-0.2-2.7l1.7,3.1c2.9,5.3,4.6,10.6,5,15.8c0.3,3.6-0.1,16.5-0.7,21.3c-0.3,2.7-1.7,10.6-2,11.3
	C303.8,252.8,303.2,251.9,302.7,250.3z M311.4,247.3c1.9-3,6-7.7,10.5-16.8c1.3-2.6,2.9-6.5,4.2-10.2c2.2-6.1,3.8-9.5,7-14.6
	c0.9-1.4,1.8-2.7,2-2.8s0,1.6-0.4,3.7c-2.3,12.1-5.3,19.9-12.2,31.2c-3.5,5.7-4.8,7.5-7.8,10.7c-2,2.1-3.5,4-5.2,4.7
	C309.6,253.1,310.3,249,311.4,247.3z M316.8,189.2c-1.1-2.7-1.1-4.9-0.2-7.3c0.7-1.9,3-6.2,4.4-8.3l0.6-0.9l0.1,1
	c0.2,1.7-0.4,6.1-1.5,10.9c-0.4,1.9-1.2,5.9-1.3,7.9C318.3,191.8,317.3,190.2,316.8,189.2z M324.8,188.4c0.4-2,0.8-2.9,1.7-4.3
	c1.6-2.3,9.2-11.4,9.5-11.3c0.4,0.1,0.3,1.8,0,3.5c-0.2,1-1.1,2.6-2.5,4.7c-2.5,3.7-9.1,11.3-9.2,10.4
	C324.2,191.2,324.5,189.8,324.8,188.4z M306.2,456.6c3.6-6.7,6.5-10.7,15.5-20.8c3.3-3.7,6.3-7.2,6.8-7.8c1-1.3,1-1.4-1.3,4.1
	c-4.7,11.4-6.1,13.8-10.4,18.5c-3.1,3.3-5.5,5.4-11,9.3c-1.8,1.3-1.8,1.3-1.4,0.3C304.6,459.7,305.4,458.1,306.2,456.6z M380,461.5
	c1.7-3.2,4.5-10.1,5.3-13c1-3.9,1.3-6.8,1.1-9.9c-0.3-3-0.7-4.5-1.7-5.2c-0.6-0.4-0.6-0.4-1.1,0.1c-0.7,0.8-1.6,3.2-2.3,5.9
	c-0.7,3-2,13.1-2.5,19c-0.2,2.7-0.4,5-0.5,5.3C378.3,464.6,378.7,464,380,461.5z M367.8,461.2c-3.4-7.5-6.9-13.8-10.1-17.9
	c-2.2-2.9-5-5.9-5.1-5.5c-0.2,0.8,2,10.3,5.9,16.5c2.3,3.7,10.6,10.7,10.7,10.3C369.2,464.4,368.6,462.9,367.8,461.2z M368.4,410.5
	c0.9-0.1,2.1-0.5,2.6-0.9c0.9-0.5,0.9-0.6,0.7-1.3c-0.2-0.4-1.2-2-2.3-3.7c-2-2.9-2-3-3-2.9c-2.3,0.2-2.2,0.1-2.8,4.3
	c-0.6,4-0.5,4.3,1.6,4.5C366,410.7,367.5,410.6,368.4,410.5z M352,400.1c0.8-0.1,1.8-0.4,2.3-0.6c1.6-0.8,4.2-2.8,4.2-3.2
	c0.1-0.9-7.3-6.8-8.7-6.9c-0.8-0.1-1.8,3.4-1.9,6.5c-0.1,3.2,0,3.6,0.8,4C349.7,400.3,350.3,400.4,352,400.1z M380.4,397.7
	c0.1-0.4,0.3-2.1,0.4-3.9c0.2-2.6,0.1-3.4-0.3-4.5c-0.6-1.6-1.1-1.8-3-1c-1.2,0.5-6.2,4.5-6.2,5c-0.1,0.6,0.8,1.2,3.7,2.9
	C379.1,398.5,380,398.8,380.4,397.7z M362.7,389.2c1.4-0.5,1.6-1.1,2.1-5.9c0.4-4.1,0.2-4.7-1.4-5.3c-1.7-0.6-3.4-0.5-4.3,0.3
	c-0.7,0.6-0.7,0.9-0.8,2.6c0,1.1,0.1,2.5,0.4,3.3c0.4,1.4,2.4,5.3,2.7,5.4C361.5,389.7,362.1,389.5,362.7,389.2z M395.1,466
	c5-5.9,7.1-7.4,11-10.2c2.8-2,6.1-4,6.1-3.6c0,0.8-6.4,7.8-11.5,12.4C397.6,467.3,393.9,467.4,395.1,466z M401.4,432.2
	c-0.8-0.3-1.8-0.8-2.3-1.2c-0.7-0.6-0.8-0.7-0.4-1.3c0.2-0.3,1.4-1.7,2.7-3c2.3-2.4,2.3-2.4,3.2-2.2c2.1,0.5,2,0.4,1.9,4.4
	c-0.1,3.8-0.2,4.1-2.2,3.9C403.6,432.8,402.2,432.5,401.4,432.2z M418.2,425.3c-0.7-0.3-1.6-0.7-2-0.9c-1.3-1-3.4-3.2-3.4-3.6
	c0.1-0.9,7.8-5.1,9.1-5c0.7,0.1,1.1,3.5,0.7,6.3c-0.4,2.9-0.6,3.4-1.4,3.6C420.3,425.9,419.7,425.8,418.2,425.3z M392.4,418.5
	c-0.1-0.4,0-2,0.2-3.6c0.3-2.4,0.4-3.2,1-4.1c0.8-1.3,1.3-1.4,2.9-0.5c1,0.6,5,5.1,5,5.6c0,0.5-0.9,1-3.9,2.1
	C393.5,419.5,392.6,419.6,392.4,418.5z M410.1,413.5c-1.2-0.7-1.3-1.3-1-5.7c0.3-3.8,0.5-4.4,2.1-4.7c1.6-0.3,3.2,0.1,3.9,1
	c0.5,0.7,0.5,0.9,0.3,2.5c-0.1,1-0.5,2.3-0.9,3c-0.6,1.2-3.1,4.5-3.3,4.5C411.1,414.1,410.6,413.9,410.1,413.5z M441.4,455.2
	c-1.5-3.5-6.1-13.7-3.9-17.1c1.8,2.2,11.8,21.3,13.2,30C448.8,466.4,444.4,461,441.4,455.2z M258.2,287.6V103l-81.8,0l0-91.1
	l282.5,0l0,91.1h-81.8v274.6h81.8l0,68.4c-2,4.1-1.1,7.9-3.6,13.6c-3.9-8.1-11.5-34.5-21.3-30c-2.7,1.4-4.6,10-2.1,17.9
	c2.3,7.2,6.3,15.3,10,21.2l-36.5,0c8.4-8,14.6-17.4,14.3-20.6c-0.2-2-1.8-3.4-3.9-3.3c-2.1,0.1-9.5,4.2-13.8,7.5
	c-2.6,2-3.7,3-6.9,6.2c3.3-4.3,9.2-15.7,8.7-19.9c2.7-0.2,5.9-1.6,7-3.8c0.6-1.1,0.7-1.7,0.9-4.1c0.1-1.6,0.3-2.9,0.3-2.9
	c0,0,0.5,0.3,1,0.7c2.4,1.8,6.8,2.9,9.4,2.2c1.8-0.5,3.8-2,4.5-3.6c0.7-1.5,1.3-7.2,1.1-9.6c-0.2-2-1.1-4.6-2-5.5
	c-1.2-1.3-3.4-1.9-5.2-1.4c-0.5,0.1-0.9,0.2-0.9,0.1c0-0.1,0.1-0.8,0.4-1.7c1.4-4.4-0.3-8.7-4-10.4c-1.4-0.6-4.5-0.9-6.2-0.6
	c-2.4,0.5-4.3,1.9-5.4,4.2c-0.2,0.5-0.6,2.4-0.8,4.3l-0.4,3.4l-1.6-1.7c-2.6-2.8-5.4-4.1-7.9-3.7c-3.5,0.5-5.9,4-6.6,9.5
	c-0.4,2.6-0.2,5.7,0.3,7c1,2.5,3.2,3.7,6.1,3.4c0.9-0.1,2-0.3,2.3-0.4c0.7-0.2,0.6-0.2-0.3,0.9c-2.4,2.6-3.1,5.2-2.2,7.3
	c0.5,1.3,3.1,3.8,4.7,4.6c-0.2,5.8-5.4,16.4-10.5,21c2.9-6.8,4.1-11.2,4.3-16.2c0.2-4.3-0.6-8.6-1.9-10.7c-0.8-1.2-2.6-2.7-3.7-3.2
	c-1.4-0.6-3.9-0.3-5.3,0.5c-2.8,1.6-4.5,8.9-5.8,16.6c-4.7-13.1-4.7-27.7-4.8-29.1c3.4-0.1,5.3-2.6,6.1-3.9c1.3-2.1,1-4.9-1-8.1
	c-0.8-1.3-0.8-1.4-0.2-1.1c0.4,0.2,1.5,0.6,2.4,0.8c3,0.8,5.5-0.1,7.1-2.5c0.8-1.3,1.5-4.5,1.6-7.3c0.2-6-1.7-10-5.3-11.2
	c-2.6-0.9-5.8,0-9,2.5l-2,1.5l0.2-3.7c0.1-2,0.1-4.1-0.1-4.7c-0.7-2.6-2.4-4.5-4.9-5.4c-1.8-0.7-5-0.9-6.7-0.5
	c-4.1,1-6.7,5.4-6.1,10.2c0.1,1,0.2,1.8,0.1,1.9c-0.1,0-0.5-0.1-0.9-0.3c-1.8-0.8-4.2-0.6-5.7,0.6c-1.1,0.8-2.5,3.3-3,5.4
	c-0.7,2.6-1.1,8.6-0.6,10.3c0.5,1.8,2.2,3.8,4.1,4.6c2.6,1.2,7.4,0.9,10.3-0.6c0.6-0.3,1.1-0.6,1.2-0.6c0,0-0.1,1.4-0.2,3.1
	c-0.2,2.5-0.2,3.3,0.2,4.5c0.8,2.5,2.4,4.2,5.3,4.9c-0.1,6.8,2.7,24.3,7.4,37.7c-2.3-4.2-5.6-10.3-7.7-13.1
	c-3.4-4.7-9.8-11-11.9-11.8c-2-0.7-4.2,0.2-4.9,2.2c-1.3,3.2-1,25.8,16.7,37.4h-51.4c4.5-3.2,12.7-16.6,13.8-18.4
	c5.7-9,7-18.1,8.2-21c3.6-8.6,4.5-11.2,4.3-12.2c-0.7-2.7-5.5-1.1-9,3.1c-5.4,5.7-14.3,13.4-17.4,17.4c-5.1,5.1-9.2,11.9-12.2,18.2
	c2.3-18.7,2.2-21.6,1.7-35.2c-0.1-2.5-0.3-7.4,0.8-9.9c0.6-1.1,2.8-4.5,4.7-7.6c3.1-5.1,3.8-6.4,6.1-12.2c2.1-5.1,2.7-7,3-9.3
	c0.6-4,0.9-9.1,0.8-13.2c-0.1-1.9-0.1-6.3-0.1-9.7c0-10.1-0.2-13-0.9-13.9c-1.9-2.4-5.4,1.9-7.1,7.5c-3,8-7.9,22.8-9.4,28.1
	c-1.5,5.4-1.5,5.4-2.3,1.4c-1.4-7.2-1-9.9,3.7-24.3c2.1-6.5,3.3-9.3,6.8-15.4c3.7-6.6,6.8-10.6,14.9-19.6c2.5-2.8,6-6.7,7.8-8.8
	c2.4-2.8,3.4-3.7,4-3.7c0.4,0,2.9,0.5,5.4,1c5.6,1.2,9,1.6,12.4,1.3c4.6-0.4,8.2-2.2,9.1-4.5c2.2-3.8,0.9-9.2-1.6-11.2l1.9-1.4
	c3.1-2.3,4.9-4.8,6.4-8.3c1.2-3.1,1.2-3.1,0.6-4.5c-0.8-1.7-1.9-4.2-9.7-3.7c3.1-4.9,0.4-9.1-2.1-10c-2.3-0.9-4.3-0.2-9.8,3.5
	c-2.7,1.8-5.7,3.6-6.7,4.1c-2.8,1.4-3.6,2.2-4.7,4.9c-1.5,3.8-4.2,18.8-4,22l0.1,1.9l-4.2,4.7c-2.3,2.6-4.4,4.9-4.6,5.1
	c-0.2,0.2,0.1-1.2,0.8-3.2c2.9-8.8,3.5-20.5,1.4-30.3c-1.1-5.3-1.9-7.2-3.3-7.8c-1.4-0.5-3.4,0.2-3.5,1.2
	c-0.2,1.6-2.6,15.8-3.2,18.6c-0.4,1.8-1.6,6.4-2.7,10.3c-1.1,3.9-2.3,8.7-2.7,10.7c-0.9,4.8-1.2,11.2-0.8,14
	c0.5,2.4-0.9,4.1-1.5,5.1c-4.1,6.2-6.1,10.1-8.9,17.2c-1.5,3.8-1.8,4.4-2.8,6.8c-0.1-0.4,0.5-17.8,0.9-22.3
	c0.6-8.5,1.1-12.6,3.2-26.6c2.6-17.1,4.8-29.1,7.3-39.1l2-8.1l2.1-1.8c1.1-1,3.4-3,5-4.3c4.3-3.6,7.5-7.6,11.5-14.1
	c6.2-10.2,8.6-15.5,11.1-24.5c2.6-9.4,4.4-22.7,3.3-24.4c-1.3-2-3.6-1.6-5.3,1c-0.6,1-2.5,3.6-4.1,5.8c-4.5,6.2-7,11.1-9.6,18.3
	c-2.2,6.1-6,14.7-7.5,16.4c-0.1-0.1,0.8-4.3,1.8-8.6c2.3-10.2,3.1-13,5.3-19.2c2-5.8,2-5.7,8.1-12.2c10-10.5,13-16.5,11.4-23.1
	c-0.9-3.7-3.1-5.5-5.5-4.5c-1.2,0.5-1.5,0.8-5.9,6l-2.6,3.1l-0.1-2.4c-0.3-5.1-1.6-7.8-3.8-8.2c-2.2-0.4-3.4,0.9-7.7,8.8
	c-3.1,5.6-4.5,9.6-4.3,12.5c0.2,3.5,1.8,7.1,4.9,10.7l2.6,3.1l-1.7,4.9c-1.5,4.3-3.2,10.2-4.3,14.7l-0.3,1.4l-0.3-2.4
	c-0.7-5.7-2.5-10.9-5.4-16.4c-1.1-2.1-2.9-5.8-4-8.1c-3.1-6.8-5.1-8.7-7.4-7.1c-1.1,0.8-1.2,1.8-0.6,5.1c0.3,1.5,1,14,1.1,16.4
	c0.1,5.7,0.3,7.5,1.3,14.9c1.1,8,1.2,11,0.7,17c-0.3,2.8-0.4,6.2-0.3,7.6c0.2,3.1,2.1,7.5,4.3,10.1c0.9,1,1.6,2.1,1.6,2.5
	c0,0.3-0.9,4.5-2.1,9.2c-1.1,4.7-2.8,12.9-3.8,18.2c-2,10.9-5.3,33.4-5.9,39.3c-0.2,2.2-0.4,4.1-0.5,4.2c-0.5-1-0.7-1.7-1.3-4.1
	c-0.7-2.4-2.1-7-3-10.1c-2-6.4-3.6-12.9-4.7-18.8c-1-5.7-0.3-8.9,3.4-15.1c2.6-4.3,4.7-10.3,4.7-13.4c0.3-5.1-3.7-6.8-6.9-5.2
	l-1-2.7c-1.3-3.7-2.7-5.4-5.4-6.7c-2.5-1.2-4.8-1.6-6.5-1c-2.7,0.8-3.6,4.7-3.2,7c-1.5-1.4-4.1-1.6-5.1,1c-0.8,2-0.3,9.2,0.8,12.8
	c1.3,4.1,4.2,8.1,8.7,12.2c3.7,3.3,4.2,4.2,5,9.5c0.4,2.6,1,5.7,1.3,7l0.5,2.4C273.4,301.4,268.4,289.9,258.2,287.6z M217,421.9
	c-1.1-2.5-0.5-9.4,1.2-14.1c1.1-3,3.8-8.2,3.6-6.9c-0.1,0.5-0.1,2.2,0,3.7c0.4,7-0.8,13.6-3.2,17C217.8,423,217.5,423,217,421.9z
	 M195.2,414.6c0.2-1.1,2.4-3.9,4.6-6c2.7-2.5,6.5-5.2,11.2-7.8c2.1-1.2,4.2-2.4,4.6-2.6c0.8-0.5-3.2,3.9-6.6,7.2
	c-4,3.9-9.4,8.2-12.1,9.5C195.3,415.6,195.1,415.6,195.2,414.6z M234.6,419.3c-2-1.6-5.7-10.4-6.9-16.6c-0.1-1-0.3-1.6,0.8,0.1
	c3.2,4.2,4,5.5,5.1,7.7c1.6,3.4,2.1,4.8,2.3,6.8c0.1,1.5-0.1,2.6-0.5,2.6C235.3,419.8,235,419.6,234.6,419.3z M245.1,409.6
	c-2.5-1-8.9-6.2-11.4-9.3l-1.3-1.7c2.4-0.1,7.1,0.7,9.3,1.7c2.4,0.9,3.7,1.8,5.9,3.8C252.2,408.6,250.7,411.9,245.1,409.6z
	 M193.7,397.4c2.8-1.5,6.8-3.1,9.3-3.6c2.3-0.5,8.5-1.1,8.9-0.8c0.7,0.4-9.8,4.1-14,4.9c-1.5,0.3-5.6,0.9-6,0.8
	C191.5,398.6,192.6,398,193.7,397.4z M191.4,468.7c0-0.1,0-4.4,0-6.2c0-5.5-0.7-9.3-3.5-18.8c-2.9-9.8-2.6-9.6-4-3.6
	c-1.4,5.9-7.5,23-5.1,28.7H191.4z M202.3,468.7c5.4-5.4,7.2-12.7,9.8-17.9c1.4-2.7,4.2-11.1,3.8-11.2c-0.2,0-4.6,4.7-6.5,7
	c-3.8,4.8-11.6,18-13.2,22.1H202.3z M259.8,468.7c-1.8-5.6-2.5-9.9-5.7-14.7c-5.8,1.5-11.8,0.6-16.7-2.4c-0.9,1.6-2.8,2.2-4.3,1.4
	c-1.8-1.2-2.2-3.7-1.1-5.7c0.9-2.2,3.3-3.3,5.4-2.5c1,0.4,1.7,1.5,1.7,2.7c2.8,1.7,6,2.7,9.3,2.9c-3.5-1.1-6.5-3.2-8.6-6.3
	c-1.7,0.3-3.2-0.9-3.4-2.6c0.1-2.4,2.1-4.4,4.4-4.5c1.7,0,3.1,1.4,3.2,3.2c0,0.5-0.2,1-0.3,1.4c1.9,2.6,4.6,4.4,7.7,5.1
	c-0.8-2.3-1.9-4.5-3.3-6.4c-1.7,0.1-3.1-1.1-3.2-2.8c-0.1-1.9,1.1-3.6,2.8-4.2c3.8-1,5,1.8,4.2,4.2c1.3,2.2,2.5,4.5,3.5,6.8
	c0.5-2.9,0.2-5.8-0.7-8.5l-0.5-2c-1.6-0.3-3.7-2.3-2.8-4.2c1.7-2.7,5.1-3.6,7.6-2c1.4,0.7,2.3,2.3,2.1,4c-0.2,1.1-1.1,2-2.1,2.3
	c1.8,5,1.7,10.7-0.3,15.9c-0.3,0.5-0.5,1-0.7,1.6c4.7,7.4,7.2,8.6,9.1,17.4h14.5c0.1-2.8-4.2-10.2-5-11c-7.6,1.9-10.3-6.5-5.1-9.7
	c6.3-4,9.6,3,8.3,5.5l9.2,10.2c-2.4-6.1-6.5-19.1-7.5-26.6c-2.6,0.2-8.1,0.1-8.2-6.8c-0.5-8.4-0.5-12.7-0.7-19
	c-0.4-4.9-1.6-9.6-3.7-14c-1.3-3.3,3.3-1.4,5.3,1c7.4,10.1,13.6,25.5,13.8,31.2c0.1,4.2-0.2,4.7-1.2,5.3c1.2,5.8,4,14.7,6.4,22.5
	c2.2-18.1,3.1-25.4,2.3-39.7c-0.6-10.8-0.9-12.6-2.7-14.7c-3-3.5-9.8-13.9-11.9-18.3c-0.6-1.3-2.2-5.2-3.4-8.8
	c-3.7-10.7-5.1-14.3-7-17.8c-2.2-4.1-3-5.6-5.7-9.8c-1.7-2.4,0.6-5.3,2.4-5.4c2.7-0.2,5.8,1.4,9.3,4.7c3.7,3.3,8.8,8.2,12,13.9
	c-1.4-6.7-0.9-9.8-0.9-12.6c-0.2-7.7-0.4-13.8-2.7-16.9c-0.5,0.1-4.1-2.5-6.7-4.8c-1.4-1.2-15.3-15.6-20.1-25.2v75.7h-81.8l0,66.9
	c1.3-5.8,2.1-7,5.1-14.8c6.3-9.9,12.5,10.8,14,17.3c2.7-11.9,5.9-21.3,11.2-31.6c-1,0.6-1.2,0.4-3.6,2c-4.5,3-6.4,3.8-9,3.5
	c-2.2-0.3-3.5-1.2-4.2-3c-1.2-3.3,0.7-7.9,5-12.2c0.8-0.8,1.5-1.6,1.5-1.6c0-0.1-1,0-2,0.1c-2.8,0.3-6.2-0.3-7.5-1.3
	c-2.6-2-2.3-5.3,0.7-8c2.8-2.4,10.2-5.7,15.2-6.7c3.7-0.7,9.8-1.6,13.9-0.4c2-2.1,5-3.8,9.4-3.3c6,0.5,9.2,5.8,7.8,8.6
	c3.3,0.1,10.1,0.8,15.1,4.8c6.5,4.8,8.9,11,5.8,15.1c-1,1.3-3.3,2.6-4.9,2.9c-1.7,0.3-5.2-0.4-7-1.2c-0.8-0.4-1.4-0.6-1.5-0.6
	c0,0,0.1,0.8,0.2,1.6c0.5,2.3-0.2,6.3-1.4,7.7c-1.8,2.3-5.1,2.6-8,0.8c-1.7-1-3.5-3.2-4.6-5.7l-0.8-1.7c-0.7,2.9-1.5,8.8-7,11.2
	c-7.3,2.3-8.8-7.4-8.7-8.1c-0.9,1.3-1,1.4-2.7,4.9c-1.6,3.4-3.8,9.3-5.2,14c-0.8,2.6-2.5,9.7-2.4,9.9c0,0.1,1.3-1.6,2.9-3.6
	c1.6-2.1,4.2-5.1,5.8-6.8c3.3-3.5,9-8.2,10.2-8.5c1.1-0.3,2.6,0.4,3.2,1.6c0.4,0.8,0.4,1-0.7,6.2c-1.8,8.4-8.8,25.8-11.7,31.2H259.8
	z M299.3,113.9c1.4-1,2.8-2.2,4.1-3.4c1.4-1.1,2.8-2.1,4.2-3.2c1.1-1,2.1-2.3,2.9-3.6c1-1.5,2.2-2.8,3.5-3.9
	c2.4-2.5,4.6-5.4,6.4-8.4c1.2-2.4,2-4.9,2.5-7.5c0.3-2-0.5-4-2-5.3c-1-0.9-1.9-1.8-2.8-2.8c-0.4-0.4-0.6-1-0.5-1.5
	c0.1-0.1,0.3-0.1,0.5,0.1c0.6,0.9,1.5,1.6,2.4,2.1c0.8,0.3,1.6,0.6,2.5,0.9c0.8,0.4,1.4,1,1.8,1.7c0.6,0.9,1.4,1.7,2.3,2.3
	c0.6,0.2,1.2,0.5,1.8,0.8c0.7,0.5,1.3,1.1,1.8,1.9c0.9,1.2,2.2,2.2,3.6,2.8c1.5,0.9,2.8,2.1,3.9,3.5c0.7,0.9,1.4,1.7,2.3,2.3
	c0.6,0.3,1.1,0.6,1.8,0.9c0.8,0.4,1.4,1,1.9,1.7c1,1.2,2.2,2.2,3.5,2.9c1.2,0.9,2.4,1.9,3.6,2.9c1,0.8,2.1,1.7,3.1,2.5
	c0.9,0.7,1.9,1,3,1.4c0.7,0.3,1.4-0.1,0.6-1.7c-0.7-1.4-1.8-2.5-3-3.5c-1.5-1.3-3-2.6-4.5-3.9c-0.7-0.8-1.5-1.6-2.3-2.4
	c-0.7-0.5-1.4-1-2.2-1.4c-0.7-0.5-1.4-1.1-1.8-1.8c-0.7-1.1-1.7-2-2.9-2.6c-1.5-0.8-3-1.9-4.2-3.1c-0.7-0.9-1.4-1.7-2.2-2.5
	c-0.9-0.7-1.8-1.2-2.8-1.7c-0.7-0.5-1.3-1.1-1.7-1.9c-0.5-1-1.4-1.7-2.4-2.2c-0.6-0.3-1.2-0.6-1.7-0.9c-0.7-0.5-1.2-1.3-1.5-2.1
	c-0.5-1.2-1.5-2.2-2.6-2.8c-0.3-0.1-0.6-0.4-0.9-0.6c-0.1-0.1,0-0.3,0.3-0.2c0.8,0.2,1.6,0.6,2.2,1.2c1,0.9,2,1.7,3.1,2.5
	c1.3,0.8,3,0.9,4.4,0.5c3.2-0.9,6.1-2.5,8.7-4.7c2.8-2.5,5.3-5.3,7.5-8.3c1.1-1.1,2.2-2.2,3.4-3.2c1.2-1.3,2.3-2.7,3-4.3
	c1-1.7,2-3.4,3.2-5c0.6-0.9,1.1-1.9,1.4-3c0.8-2.5-2.5-2.6-3.3-2.5c-1.5,0.3-3,0.8-4.3,1.5c-2.2,1.1-4.2,2.5-6,4
	c-1.4,1-2.8,2.1-4.2,3.2c-2.3,2-4.8,3.9-7.4,5.6c-2.9,2-5.9,3.9-8.9,5.8c-0.7,0.5-1.5,1-2.2,1.5c-0.8,0.5-0.9,0.2-0.8,0.1
	c0.3-0.5,0.7-0.9,1.2-1.3c2.1-1.9,4.3-3.8,6.6-5.6c1.9-1.5,3.8-3.1,5.5-4.7c1.8-1.9,3.4-4.1,4.7-6.4c1.3-2.3,2.4-4.7,3.2-7.2
	c0.3-1.5,0.5-3,0.7-4.6c0.3-2,0.7-3.9,1.2-5.8c0.2-0.8,0.2-2.1-1.1-2.5c-1.1-0.2-2.2,0-3.1,0.6c-1.5,0.9-2.8,2.1-3.8,3.6
	c-2.3,3.2-4.4,6.6-6.2,10.1c-1.4,2.5-3.1,4.8-5.1,6.9c-1.3,1.5-2.6,3-3.9,4.5c-2.3,2.9-4.2,6.2-5.5,9.7c-0.4,0.9-1.2,0-1.7-0.3
	c-0.7-0.4-1.6-0.6-2.5-0.5c-0.6,0.1-1.2-0.1-1.1-0.6c0-0.4,0.1-0.8,0.3-1.2c0.2-0.8,0.1-1.7-0.5-2.4c-0.3-0.3-0.7-0.5-1.1-0.6
	c-0.9-0.1-1.7,0-2.5,0.4c-0.8,0.3-1.6,0.7-2.4,1.1c-0.7,0.5-1.2,1.3-1.3,2.1c-0.3,1.1-0.5,2.1-0.5,3.2c0,0.4,0.1,0.8,0.3,1.2
	c0.4,0.7,1.3,1.2,2.1,1c0.6-0.1,1.2-0.4,1.8-0.6c0.2-0.1,0.5-0.2,0.8,0.2c0.2,0.3,0.3,0.7,0.3,1.1c0,0.4,0.1,0.9,0.3,1.2
	c0.3,0.6,0.7,1.1,1.2,1.5c0.5,0.3,0.4,0.9-0.8,1.4c-3.5,2-6.6,4.5-9.2,7.4c-2.1,2.5-4.4,5-6.8,7.3c-1.7,1.4-3.5,2.7-5.3,4
	c-2.5,1.8-4.8,3.8-7,6c-1.1,1.1-1.9,2.4-2.5,3.9c-0.3,0.8-0.4,1.7-0.2,2.6c0.3,1.8,2.7,1.5,4.3,0.6c2-0.8,4.2-1.5,6.3-1.9
	c2.1-0.6,4.2-1.5,6-2.7c3.2-2,6.1-4.4,8.5-7.2c1.5-1.9,2.8-3.9,4.1-6l0.4-0.6c1.6-2.7,3.3-5.2,5.1-7.7c0.4-0.5,0.7-0.5,0.7-0.1
	c-1.8,3.6-3.5,7.1-5.2,10.7c-1.1,2.2-2.2,4.3-3.4,6.4c-1.6,2.4-3.1,4.8-4.4,7.4c-1.4,2-2.5,4.2-3.3,6.4c-0.6,1.4-1,2.9-1.1,4.5
	c-0.1,0.9,0.1,1.7,0.5,2.5C296,115,298,114.8,299.3,113.9z"/>
<path class="st0" d="M967.2,120.1l54.7,0c1.6,0,2.3-1.4,2.3-2.2l0-110.6c0-1.4-0.8-2.2-2.4-2.2L771.7,5c-0.8,0-1.3,0.3-1.6,0.7
	c-0.6,0.8-0.7,1.5-0.7,1.7l0,110.4c0,0.5,0.6,1.5,1.1,1.9c0.4,0.3,0.8,0.4,1.3,0.4l54.8,0v192.4c-0.2,11.2-0.2,20.6-1.2,32.8
	c-0.4,3.6-2.4,12.7-11.2,12.8c-6.8,0.4-30.3-2.1-35.3-3.1l-28.5-5.3c-1.3-0.2-2.5,0.6-2.7,1.8c0,0.1,0,0.2,0,0.4v122.5
	c0,1.1,0.8,2,1.9,2.2c10.7,2,21.4,3.9,32.1,5.6c10,1.7,27.7,3.4,37,4.2c19,1,38.1-0.5,56.7-4.5c15.9-3.3,30.9-10,43.9-19.8
	c20.2-15.4,34.3-37.4,39.8-62.1c4-17.7,6.4-35.8,7.2-53.9c0.6-11.2,0.9-22.3,0.9-33.5L967.2,120.1z M917.2,367.7
	c-3.2-1.5-6.2-3.6-7.5-5.3c-0.7-0.8-1.2-1.7-1.2-1.8c0.1-0.4,1.2-0.6,2.5-0.5c1.4,0.2,4,1.5,5.4,2.8c1.2,1.1,4.3,5,4.6,5.8
	c0.2,0.5,0.2,0.5-0.9,0.2C919.6,368.7,918.2,368.2,917.2,367.7z M931.7,368.3c1.9-1.6,9.1-5.2,10.2-5c0.4,0.1-0.8,1.6-2.2,2.9
	c-2.2,2-5.2,3.1-7.6,2.8l-1.1-0.1L931.7,368.3z M930.1,359.2c0.9-3.7,3.8-11,4.8-12.2c0.8-0.9-0.5,4.4-1.9,7.5
	c-0.7,1.6-3,6.1-3.2,6.1C929.8,360.7,929.9,360,930.1,359.2z M913.1,335.5c-2-2-3.6-5.1-4.1-6.3c-0.4-1-0.1-0.9,1.5,0.4
	c3,2.3,6.3,6.5,7.2,8.9c0.3,0.8,0.1,1.4-1.3,0.2C915.6,337.9,914.1,336.5,913.1,335.5z M926.9,336.6c-0.1-3.4,1.1-7.8,2.9-10.9
	c0.9-1.5,2.6-3.2,3.7-3.8l0.9-0.5l-0.4,2.4c-0.8,4.1-2.5,8.4-5.1,12.8c-0.8,1.4-1.6,2.4-1.7,2.3C927,338.9,926.9,337.8,926.9,336.6z
	 M915.6,322.4c-0.6-2-1-4.4-0.7-4.9c0.2-0.4,1.6,2.6,2.6,5.5c0.8,2.3,2.4,7.9,2.3,8.3C919.7,331.7,916.2,324.2,915.6,322.4z
	 M928,302.2c1.7-2.7,4.3-5.5,6.1-6.4c1.5-0.8,1.7-0.5,1.1,1.4c-0.5,1.7-1.1,2.4-2.4,3.6c-1.6,1.3-3.6,2.3-5.5,2.6
	C927.3,303.5,927.6,302.9,928,302.2z M913.2,300.4c-2.8-0.8-4.6-1.5-6.6-2.9c-2.9-1.9-5.6-5.3-4.5-5.8c0.8-0.4,4.9,1.1,8.4,3.1
	c3,1.7,7.9,5.6,7.8,6.3C918.1,301.4,915.5,301,913.2,300.4z M925.5,288.2c0.8-4.1,1.6-7,2.8-10.4c0.5-1.4,0.6,0,0.2,3.2
	c-0.5,3.5-1.3,6.8-2.7,10.8c-0.7,2.1-0.9,2.4-1.1,1.9C924.6,293.2,924.9,291.4,925.5,288.2z M906.2,271.5c-3-1.3-4.8-2.3-6.2-3.6
	c-1.3-1.2-3.4-3.6-3.3-3.9c0.1-0.8,3.8,0.8,6.5,2.7c1.2,0.9,5.2,4.6,6.1,5.6C909.6,272.9,908.9,272.7,906.2,271.5z M915,265.2
	c-0.5-1.9-0.5-2.1-0.1-5.6c0.3-2,0.7-4.4,1-5.4c0.9-2.8,2.8-6.3,3.4-6.2c0.1,0,0.3,0.7,0.5,1.6c0.2,1.3,0.1,2.4-0.4,6.6
	c-0.6,4.9-0.7,5.2-1.9,8.1c-1.6,3.9-1.5,3.8-1.8,3.3C915.6,267.3,915.3,266.2,915,265.2z M897.6,243.6c-2.1-1.3-2.9-2-3.6-3.1
	c-0.5-0.7-0.9-1.4-0.9-1.5c0-0.3,1.8,0.5,3.3,1.5c1.3,0.9,4.5,4.2,4.9,5C901.5,246,900.5,245.5,897.6,243.6z M906.8,233.6
	c0.3-4.9,1.3-9.6,2-9.5c0.8,0.1,0.8,4.8,0,8.1c-0.7,2.8-1.8,6-2.1,5.7C906.6,237.8,906.7,235.9,906.8,233.6z M893.8,217.1
	c-0.9-1.3-2-4.2-2.6-7c-0.6-3.1-0.4-3.3,1.4-0.9c1.4,1.8,2,3.3,2.6,6.3c0.3,1.6,0.3,2.1,0.1,2.4
	C894.8,218.3,894.7,218.3,893.8,217.1z M913.4,447.1c2.5-5.6,3.1-10.9,1.9-16.8c-1.3-6-1-6.2-4.1,3.5c-3,9.5-3.8,13.3-3.9,18.7
	c0,1.8,0.2,3.3,0.2,3.5C908.5,455.5,912.6,448.8,913.4,447.1z M882.6,411.4c1.1-2.5,0.7-9.4-0.8-14.1c-1-3-3.6-8.3-3.4-6.9
	c0.1,0.5,0,2.2-0.1,3.7c-0.6,7,0.5,13.6,2.7,17.1C881.8,412.4,882.2,412.4,882.6,411.4z M904.6,404.6c-0.2-1.1-2.3-4-4.5-6.1
	c-2.7-2.6-6.4-5.4-11-8.1c-2.1-1.3-4.1-2.5-4.5-2.7c-0.8-0.5,3.1,3.9,6.4,7.4c3.9,4,9.2,8.4,11.9,9.8
	C904.6,405.6,904.8,405.6,904.6,404.6z M865.1,408.3c2.1-1.5,5.9-10.3,7.3-16.4c0.2-1,0.3-1.6-0.8,0.1c-3.3,4.1-4.1,5.4-5.3,7.6
	c-1.7,3.3-2.2,4.8-2.4,6.7c-0.2,1.5,0,2.6,0.4,2.6C864.4,408.8,864.8,408.6,865.1,408.3z M854.9,398.4c2.6-1,9-6,11.6-9l1.4-1.6
	c-2.4-0.1-7.1,0.5-9.4,1.4c-2.4,0.9-3.8,1.7-6,3.7C847.9,397.1,849.2,400.5,854.9,398.4z M906.5,387.4c-2.8-1.6-6.7-3.2-9.2-3.8
	c-2.3-0.6-8.4-1.3-8.9-1.1c-0.7,0.3,9.7,4.3,13.8,5.3c1.5,0.3,5.6,1,6,1C908.8,388.7,907.6,388.1,906.5,387.4z M903,458.8
	c0.1-1-9.6-17.7-13.4-22.6c-1.8-2.3-6-7.2-6.3-7.2c-0.4,0.1,2.2,8.5,3.5,11.2c2.5,5.3,6.2,15.4,11.5,21
	C899.6,460.7,902.7,459.1,903,458.8z M793.1,461.8c-3.4-7.5-6.2-11.9-15.1-23.4c-3.3-4.2-6.3-8.2-6.7-8.8c-1-1.4-1-1.6,1.1,4.5
	c4.2,12.6,5.6,15.3,9.8,20.6c3.1,3.8,5.5,6.2,11.1,10.8c1.9,1.5,1.9,1.5,1.5,0.4C794.6,465.2,793.8,463.4,793.1,461.8z M808.8,456.4
	c2.7-9.1,2.5-10,5.5-15.3c2.1-3.7,4.9-7.6,5.1-7.1c0.4,0.9,0.2,3.5-3.2,11.2c-2.1,4.6-8.1,15.7-8.3,15.2
	C807.7,460.3,808.2,458.5,808.8,456.4z M797.6,420.6c-1-0.7-1.1-0.8-0.7-1.5c0.2-0.4,1.5-2.3,2.9-4.1c2.5-3.2,2.6-3.3,3.7-3.2
	c2.7,0.3,2.6,0.2,3.1,5c0.5,4.6,0.3,4.9-2.2,5.1C801.1,422.9,798.2,421,797.6,420.6z M813.2,405.9c0-1,5.9-7.7,10.6-7.6
	c1.7,0.9,1.9,4,1.9,7.5c0,3.6-0.2,4.1-1.2,4.6C817.3,413.4,813.2,406.4,813.2,405.9z M787.1,406.7c-0.1-0.4-0.3-8.3,0.3-9.6
	c0.8-1.8,1.4-2,3.6-1.1c1.4,0.6,7.1,5.3,7.1,5.9c0,0.6-1,1.3-4.5,3.2C788.6,407.7,787.5,407.9,787.1,406.7z M808.5,397.7
	c-1.6-0.7-1.8-1.4-2.1-6.7c-0.3-4.7,0-5.4,1.9-6c2-0.7,4-0.4,5,0.5c0.7,0.7,1.4,4.4,0.1,6.8c-0.6,1.5-3.2,6-3.5,6
	C809.9,398.2,809.2,398,808.5,397.7z M790.4,471.6c-4.6-3.8-6.3-7.3-10.4-12c-3.7-4.2-4.9-5.8-5.9-7.8c-1.9-3.5-3.9-8.3-5.1-12.2
	c-0.6-1.8-2-6-3.1-9.2c-3.3-9.5-4.1-12.4-3.7-13.4c1-2.9,6-0.8,9.5,4c5.4,6.5,21.8,24.7,24.9,29.2c-0.6-8-0.6-16.3,0.6-22.1
	c-11.6-3-6.7-8.3-4.4-15.4c-8.5,2.4-9.4,0.6-11.1-2.3c-0.9-1.5-1.6-5.2-1.5-8.4c0.1-6.8,2.5-11.4,6.8-12.6c7.4-1.2,10.8,3,12.8,5
	c-0.7-2.9-0.2-7.4,0.3-9.5c1-2.9,3.1-5,6.1-6c2.1-0.7,6-0.8,7.9-0.3c4.8,1.3,8.8,5,6.4,14c4.2-1.8,6.1-0.8,7.9,0.6
	c1.2,0.9,2.7,3.9,3.3,6.3c0.7,3,0.8,9.9,0.2,11.8c-0.6,2-2.8,4.2-5.1,5.1c-3.2,1.2-8.9,2-13.4-1.8c0.9,4.9,0.1,7.3-0.4,8.6
	c-1.1,2.9-5.1,4.9-8.5,5.6c-0.7,4.8-0.2,14,0.3,18.6c4.8-10.7,14.6-31.6,21.2-21.8c5.4,9.6-9.9,40.3-15.2,48.4c15,1.3,30.1,1,45-0.8
	c-2.1-3.8-1.5-4.2-5.2-6.9c-0.8-0.6-1.7-1.3-2.6-1.9c-2,1.7-5.8,1.3-7.6-1.3c-1.6-1.9-0.9-5.7,2.7-7.5c5.6-1.7,8.4,1.7,7.9,4.9
	c2.8,1.5,7.5,6.2,9.8,8.6c-0.9-3.1-2-6.2-3.1-9.2c-1.4-3.6-2.9-7.2-4.5-10.7l-1.6-3.2c-2.2,0-6.6-0.5-8.2-5.7
	c-1.1-5.6,0.3-10.9-1.4-17.6c-2.2-10.6,0.7-9.6,4.7-4.5c1.4,1.8,8,14.3,8.8,16.4c0.9,1.7,0.7,5.8,0.3,6.9c1.2,2.2,2.4,2.8,3.5,5
	c0.3-2.6,1.6-7.8,3.1-10.2c-2-1.2-3.3-4.4-0.5-7.3c4.3-4.4,9.4-1.2,11.2,3.2c0.6,3-0.8,7.4-6,6.7c-0.9,2.4-1.7,4.8-2.3,7.3
	c-0.8,3.4-1.2,6.9-1.1,10.3c2,5.2,4.4,9.2,5.7,14.6c7.6-1.4,15.1-3.6,22.2-6.5c-2.2-4.1-5.8-12.7-8.4-17.9c-2.8-5.4-7.2-20-3.9-24.2
	c2.6-1.8,7.9,1.8,11.2,5.4c1.6,1.7,4.1,4.9,5.6,7c1.5,2.1,2.8,3.8,2.8,3.7c0.1-0.2-1.5-7.3-2.2-10c-1.3-4.7-3.3-10.7-4.8-14.2
	c-1.6-3.6-1.6-3.6-2.5-5c0.1,0.8-1.7,10.4-8.9,7.9c-5.4-2.5-6.1-8.4-6.7-11.4l-0.8,1.7c-1.2,2.4-3,4.6-4.8,5.6c-3,1.7-6.3,1.3-8-1
	c-1.1-1.5-1.7-5.4-1.2-7.7c0.2-0.9,0.3-1.6,0.3-1.6c0,0-0.7,0.2-1.5,0.6c-1.9,0.8-5.4,1.4-7.1,1.1c-1.6-0.3-3.9-1.7-4.8-3
	c-3-4.2-0.5-10.3,6.1-14.9c5-3.9,11.9-4.4,15.2-4.4c-1.3-2.9,2-8,8.1-8.4c4.4-0.4,7.4,1.3,9.3,3.5c4.1-1,10.1-0.1,13.8,0.8
	c5,1.1,12.3,4.6,15,7.1c3,2.7,3.2,6.1,0.5,8c-1.3,0.9-4.8,1.4-7.5,1.1c-1.1-0.1-2-0.2-2-0.1c0,0.1,0.6,0.8,1.4,1.7
	c4.2,4.4,6,9.1,4.7,12.3c-0.7,1.8-2,2.7-4.2,2.9c-2.7,0.2-4.5-0.5-9-3.7c-2.4-1.7-2.5-1.5-3.5-2.1c5.1,10.4,8,19.8,10.4,31.8
	c1.6-6.5,8.4-27,14.4-16.9c1.5,4.3,2.7,8.1,3.3,11.4c1.5-17.3,1.8-29.8,1.8-43.8c0-1.7,0.1-5.1,0.2-7.5c0.2-6.3,0.4-5.8-1.7-6.1
	c-3.2-0.4-9.6-3.4-12.8-6c-2.9-2.3-4.8-5.3-5-7.7c-0.2-3,3-5.4,6.9-5.3c3.3,0.1,7.6,2.5,10.7,5.9c1,1.1,1.9,1.9,1.9,1.8
	c0-0.3-0.4-12.6-0.5-13.4c0-0.4-1.1-1.3-3.1-2.9c-11.5-8.8-16.5-15-15.8-19.8c0.3-3.7,4.1-4.6,7.3-2.8l-0.3-0.8
	c-1.2-3.2-1-9.2,0.3-10.9c2.5-3.2,6-1.3,9.4,4.9c0-2.5-0.8-8.1-1.4-11l-3.3-0.5c-5.7-0.8-10.5-2.8-14-5.8c-3.4-2.9-5.3-6.4-4.9-9.2
	c0.4-3,2.7-4.3,6.7-3.8c2.7,0.3,9.4,2.9,13,5.3c-0.3-3.9-1.9-10.7-3-13.9l-2.1-0.3c-3.2-0.4-9.4-2.9-12.7-5.2
	c-3.7-2.5-6.9-6.5-7.4-9.3c-0.5-3.1,2.2-5.3,6.2-4.7c2.4,0.3,7.5,3,10.5,5.7c0.8,0.7,1.5,1.1,1.5,1c0.2-0.4-0.2-2-2.2-8l-1.9-5.9
	l-2-0.4c-2.6-0.5-3.9-1.1-6.9-2.8c-3.2-1.8-4.5-2.8-6-4.7c-2.5-3-3.2-6.8-1.6-8.5c1.2-1.2,4.3-4.1,11,1.6l-4.2-11.7
	c-2-0.6-5.7-3.9-7.1-7.3c-1.8-3.8-3.1-9.9-2.5-12.4c0.5-2.2,2.4-3.4,4.9-3.1c3.3,0.5,6.9,4.7,8.3,9.8c0.6,2.4,2.2,9.4,1.1,11.5
	l1.8,5.3l0.5-2.4c1.1-5.2,3.2-8.1,5.9-8.2c2.1-0.1,4.4,2.2,5,5.1c1.2,5-0.1,11.5-3.8,19.2c-0.7,1.4-1.3,2.8-1.3,3
	c-0.1,0.5,2.2,7.2,2.5,7.2c0.1,0,0.4-0.7,0.7-1.5c1.3-3.9,3.8-7.3,5.9-8.2c1.1-0.4,1.5-0.5,2.6-0.2c3.8,0.8,5,5.2,3.9,13.8
	c-0.7,5.1-1,6.1-4.2,13.5l-2.2,5c0.8,2.7,2.1,5.8,2.8,11.7c0.1,0,0.4-1.3,0.7-2.8c1.1-4.7,2.5-8.6,4.1-10.9c1.2-1.8,2.6-2.6,4.3-2.4
	c1.9,0.2,4.6,1.6,3.9,9.4c-0.5,3.4-0.8,8.3-2.6,11.8c4.6-2.4,6.8-1.2,7.4-0.8c1.5,1,2,2.5,1.9,5c-0.2,3.5-2.1,6.6-5.5,9.1
	c-2.5,1.8-6.6,3.4-10.4,3.5c0,0.2,1.4,10.2,1.6,13.8c2-3.2,4.5-4.7,6.1-5.3c1.9-0.8,3.2-0.7,4.5,0.1c3.1,1.8,3,6.3-0.2,14.4
	c-1.6,4-2.3,5.4-6,11.1c-2.9,4.4-2.9,4.4-2.9,5.9c0,0.8,0.1,1.6,0.2,1.6c0.1,0.1,0.6-0.8,1-1.8c1.7-4,3.9-6.6,6-7.3
	c1.4-0.4,2.1-0.3,3.4,0.5c0.8,0.5,1.2,1,1.6,2.1c0.5,1.3,0.5,1.6,0.1,4.3c-0.4,3.3-1.5,6.6-3.2,10l-1,2.1l2.6-0.9
	c4.8-1.7,7.7-1.2,8.7,1.4c1,2.8-0.9,6.4-5,9.6c-3.6,2.8-7.8,4-11.7,3.2l-1.9-0.4l-0.1,2.2c-0.2,3.2-0.3,7.2-0.4,12.3
	c-0.2,16.4,0.4,30.1,0.8,49c9.3-11.4,15.9-25,19.2-39.7c3.5-15.5,5.7-31.3,6.6-47.2c0.8-12.5,1.2-24.9,1.1-37.4l0-204.5l56.6,0
	l0-91.1l-230.8,0l0,91.1l56.7,0v204.4c0.1,11.6-0.3,22-1.4,35c-1.1,7.4-3.3,24.5-28.7,22.7c-19.1-1.7-40-5-48.7-6.7v102.9
	C769.5,468.4,779.9,470.1,790.4,471.6z M929.2,124c-0.4-1.7-0.9-3.4-1.6-5.1c-0.4-1.7-0.9-3.4-1.4-5.1c-0.5-1.4-1.3-2.8-2.2-4
	c-1-1.5-1.7-3.1-2.3-4.7c-1.4-3.2-3.2-6.3-5.3-9.1c-1.7-2-3.7-3.7-6-5.1c-1.7-1-3.9-1.1-5.7-0.2c-1.2,0.6-2.4,1.1-3.6,1.6
	c-0.5,0.2-1.1,0.2-1.6-0.1c-0.1-0.1,0-0.3,0.3-0.4c1.1-0.2,2.1-0.7,2.9-1.4c0.6-0.6,1.2-1.3,1.7-2c0.6-0.6,1.5-0.9,2.3-1
	c1.1-0.2,2.1-0.6,3-1.3c0.4-0.5,0.9-0.9,1.4-1.4c0.7-0.5,1.5-0.8,2.4-1c1.5-0.4,2.9-1.2,4-2.2c1.4-1,3-1.8,4.7-2.3
	c1.1-0.3,2.1-0.7,3-1.3c0.5-0.4,1-0.8,1.5-1.3c0.7-0.6,1.5-0.9,2.3-1.1c1.5-0.5,2.8-1.2,4-2.2c1.3-0.8,2.7-1.5,4.1-2.2
	c1.2-0.6,2.3-1.3,3.5-1.9c1-0.5,1.7-1.4,2.4-2.2c0.5-0.6,0.5-1.4-1.3-1.2c-1.5,0.2-3,0.7-4.3,1.4c-1.8,0.9-3.6,1.8-5.3,2.7
	c-1,0.4-2.1,0.8-3.1,1.2c-0.8,0.4-1.5,0.9-2.2,1.5c-0.7,0.5-1.5,0.9-2.4,1c-1.3,0.3-2.5,0.9-3.5,1.7c-1.4,1.1-2.9,2-4.5,2.7
	c-1.1,0.3-2.1,0.7-3.1,1.1c-1,0.6-1.8,1.2-2.6,1.9c-0.7,0.5-1.5,0.8-2.4,0.8c-1.1,0.1-2.1,0.6-2.9,1.4c-0.5,0.5-1,0.9-1.5,1.3
	c-0.7,0.4-1.6,0.6-2.5,0.6c-1.3,0-2.6,0.5-3.6,1.4c-0.3,0.3-0.6,0.4-0.9,0.6c-0.1,0-0.3-0.1-0.1-0.3c0.5-0.7,1.2-1.3,2-1.6
	c1.2-0.6,2.3-1.2,3.4-1.9c1.2-1,2-2.4,2.1-3.9c0.4-3.3,0-6.6-1-9.8c-1.2-3.5-2.9-6.9-4.8-10.1c-0.6-1.4-1.2-2.8-1.6-4.3
	c-0.7-1.6-1.7-3.1-2.8-4.4c-1.2-1.5-2.4-3.2-3.5-4.8c-0.6-0.9-1.3-1.7-2.2-2.4c-2-1.7-3.3,1.3-3.5,2.1c-0.3,1.5-0.4,3.1-0.2,4.6
	c0.2,2.4,0.7,4.8,1.5,7.1c0.4,1.7,0.9,3.4,1.3,5.1c1,2.9,1.8,5.9,2.3,8.9c0.7,3.5,1.3,6.9,1.9,10.4c0.2,0.9,0.3,1.7,0.5,2.6
	c0.2,0.9-0.1,0.9-0.2,0.7c-0.3-0.5-0.6-1-0.8-1.6c-1-2.7-1.9-5.4-2.7-8.2c-0.6-2.3-1.4-4.6-2.3-6.9c-1.1-2.4-2.5-4.7-4.1-6.7
	c-1.6-2.1-3.4-4-5.5-5.7c-1.3-0.9-2.6-1.7-4-2.3c-1.7-1-3.3-2.1-4.9-3.3c-0.6-0.5-1.9-1-2.8,0.1c-0.6,0.9-0.8,2-0.7,3.1
	c0.3,1.7,0.9,3.4,1.8,4.9c2.1,3.4,4.4,6.6,7,9.6c1.8,2.3,3.3,4.7,4.5,7.3c0.9,1.8,1.8,3.6,2.6,5.3c1.9,3.2,4.2,6.2,6.9,8.8
	c0.7,0.7-0.4,1.1-0.9,1.5c-0.7,0.5-1.2,1.3-1.4,2.1c-0.1,0.6-0.6,1.1-1,0.8c-0.4-0.2-0.7-0.4-1-0.7c-0.7-0.5-1.6-0.7-2.4-0.5
	c-0.4,0.2-0.7,0.4-0.9,0.8c-0.4,0.8-0.6,1.6-0.6,2.5c0,0.9,0,1.7,0.1,2.6c0.2,0.8,0.7,1.6,1.5,2c0.9,0.7,1.8,1.3,2.8,1.7
	c0.4,0.1,0.8,0.2,1.3,0.2c0.8-0.1,1.5-0.7,1.7-1.6c0.1-0.6,0.1-1.3,0.1-1.9c0-0.2,0-0.5,0.5-0.7c0.4-0.1,0.8,0,1.2,0.1
	c0.4,0.1,0.8,0.2,1.3,0.2c0.6-0.1,1.3-0.3,1.8-0.6c0.4-0.3,1,0,1,1.3c0.5,3.9,1.6,7.8,3.4,11.3c1.6,2.9,2.9,5.9,4.1,9
	c0.7,2.1,1.2,4.2,1.7,6.4c0.7,3,1.7,5.9,2.9,8.8c0.6,1.4,1.5,2.7,2.6,3.8c0.6,0.6,1.5,1,2.3,1.1c1.8,0.3,2.4-2,2.2-3.7
	c0-2.2,0.2-4.4,0.7-6.6c0.3-2.2,0.2-4.4-0.2-6.6c-0.6-3.7-1.7-7.3-3.4-10.7c-1.2-2.1-2.6-4.1-4-6l-0.4-0.5c-1.9-2.5-3.6-5-5.2-7.7
	c-0.3-0.6-0.2-0.9,0.2-0.7c2.6,3,5.3,5.9,8,8.8c1.6,1.8,3.1,3.7,4.7,5.6c1.6,2.4,3.3,4.7,5.1,6.9c1.3,2,2.9,3.9,4.7,5.5
	c1.1,1.1,2.3,2,3.7,2.7c0.8,0.4,1.7,0.6,2.5,0.5C928.9,127.5,929.5,125.6,929.2,124z"/>
</svg>
