<?xml version="1.0" encoding="utf-8"?>
<!-- Generator: Adobe Illustrator 25.0.0, SVG Export Plug-In . SVG Version: 6.00 Build 0)  -->
<svg version="1.1" id="Layer_1" xmlns="http://www.w3.org/2000/svg" xmlns:xlink="http://www.w3.org/1999/xlink" x="0px" y="0px"
	 width="1567.251px" height="2326.86px" viewBox="0 0 1567.251 2326.86" style="enable-background:new 0 0 1567.251 2326.86;"
	 xml:space="preserve">
<style type="text/css">
	.st0{fill:none;stroke:#000000;stroke-width:0.871;stroke-miterlimit:10;}
	.st1{enable-background:new    ;}
	.st2{fill:none;stroke:#000000;stroke-miterlimit:10;}
	.st3{fill:none;stroke:#FF00FF;stroke-width:2;stroke-miterlimit:10;}
</style>
<path class="st0" d="M765.184,418.074v126.508H1545.2V418.074H765.184z M1283.591,459.644h-258.185v-15.12h258.185L1283.591,459.644
	L1283.591,459.644z"/>
<g class="st1">
	<path class="st2" d="M39.345,2255.146V2107.05h67.16v-372.82h-67.16v-148.095l335.797-0.861v148.956H321.76v110.21h161.01v-110.21
		h-53.383v-148.956l335.798,0.861v148.095h-67.16v372.821h67.16v148.096H429.387v-148.096h53.383v-118.82H321.76v118.82h53.383
		v148.096L39.345,2255.146L39.345,2255.146z"/>
	<polygon class="st2" points="454.587,2229.946 454.587,2132.251 507.97,2132.251 507.97,1963.03 296.56,1963.03 296.56,2132.251 
		349.942,2132.251 349.942,2229.946 64.545,2229.946 64.545,2132.251 131.705,2132.251 131.705,1709.029 64.545,1709.029 
		64.545,1611.27 349.942,1610.539 349.942,1709.029 296.56,1709.029 296.56,1869.641 507.97,1869.641 507.97,1709.029 
		454.587,1709.029 454.587,1610.539 739.984,1611.27 739.984,1709.029 672.824,1709.029 672.824,2132.251 739.984,2132.251 
		739.984,2229.946 	"/>
</g>
<g class="st1">
	<path class="st3" d="M802.067,2255.146V2107.05h67.16v-372.82h-67.16v-148.095l335.797-0.861v148.956h-53.383v110.21h161.01
		v-110.21h-53.383v-148.956l335.798,0.861v148.095h-67.16v372.821h67.16v148.096h-335.798v-148.096h53.383v-118.82h-161.01v118.82
		h53.383v148.096L802.067,2255.146L802.067,2255.146z"/>
</g>
<g>
	<polygon class="st2" points="375.143,1032.759 375.143,883.803 293.305,884.013 293.305,909.213 349.943,909.068 349.943,1007.558 
		296.56,1007.558 296.56,1168.17 507.97,1168.17 507.97,1007.558 454.587,1007.558 454.587,909.068 508.951,909.207 
		508.951,884.007 429.387,883.803 429.387,1032.759 482.77,1032.759 482.77,1142.969 321.76,1142.969 321.76,1032.759 	"/>
	<polygon class="st2" points="765.185,1032.759 765.185,884.664 685.412,884.459 685.412,909.659 739.985,909.799 739.985,1007.558 
		672.824,1007.558 672.824,1430.78 739.985,1430.78 739.985,1528.475 454.587,1528.475 454.587,1430.78 507.97,1430.78 
		507.97,1261.559 296.56,1261.559 296.56,1430.78 349.943,1430.78 349.943,1528.475 64.546,1528.475 64.546,1430.78 
		131.705,1430.78 131.705,1007.558 64.546,1007.558 64.546,909.799 116.843,909.665 116.843,884.465 39.345,884.664 
		39.345,1032.759 106.505,1032.759 106.505,1405.58 39.345,1405.58 39.345,1553.676 375.143,1553.676 375.143,1405.58 
		321.76,1405.58 321.76,1286.76 482.77,1286.76 482.77,1405.58 429.387,1405.58 429.387,1553.676 765.185,1553.676 765.185,1405.58 
		698.024,1405.58 698.024,1032.759 	"/>
</g>
<g>
	<polygon class="st2" points="1137.864,1033.087 1137.864,884.131 1056.026,884.341 1056.026,909.541 1112.664,909.396 
		1112.664,1007.887 1059.281,1007.887 1059.281,1168.498 1270.692,1168.498 1270.692,1007.887 1217.309,1007.887 1217.309,909.396 
		1271.672,909.535 1271.672,884.335 1192.108,884.131 1192.108,1033.087 1245.492,1033.087 1245.492,1143.298 1084.481,1143.298 
		1084.481,1033.087 	"/>
	<polygon class="st2" points="1527.906,1033.087 1527.906,884.992 1448.134,884.788 1448.134,909.987 1502.706,910.127 
		1502.706,1007.887 1435.546,1007.887 1435.546,1431.108 1502.706,1431.108 1502.706,1528.804 1217.309,1528.804 1217.309,1431.108 
		1270.692,1431.108 1270.692,1261.888 1059.281,1261.888 1059.281,1431.108 1112.664,1431.108 1112.664,1528.804 827.267,1528.804 
		827.267,1431.108 894.427,1431.108 894.427,1007.887 827.267,1007.887 827.267,910.127 879.565,909.993 879.565,884.793 
		802.067,884.992 802.067,1033.087 869.226,1033.087 869.226,1405.908 802.067,1405.908 802.067,1554.004 1137.864,1554.004 
		1137.864,1405.908 1084.481,1405.908 1084.481,1287.088 1245.492,1287.088 1245.492,1405.908 1192.108,1405.908 1192.108,1554.004 
		1527.906,1554.004 1527.906,1405.908 1460.746,1405.908 1460.746,1033.087 	"/>
</g>
<path class="st2" d="M770.49,299.252V151.157l-335.798-0.861v148.956h53.383v110.21h-161.01v-110.21h53.383V150.296l-335.797,0.861
	v148.095h67.16v372.821h-67.16v148.096h235.177v14.733h257.76v-14.733H770.49V672.073h-67.16V299.252H770.49z M380.448,820.169
	V672.073h-53.383v-118.82h161.01v118.82h-53.383v148.096H380.448z"/>
</svg>
