<?xml version="1.0" encoding="utf-8"?>
<!-- Generator: Adobe Illustrator 25.0.0, SVG Export Plug-In . SVG Version: 6.00 Build 0)  -->
<svg version="1.1" id="Layer_1" xmlns="http://www.w3.org/2000/svg" xmlns:xlink="http://www.w3.org/1999/xlink" x="0px" y="0px"
	 width="1567.251px" height="2326.86px" viewBox="0 0 1567.251 2326.86" style="enable-background:new 0 0 1567.251 2326.86;"
	 xml:space="preserve">
<style type="text/css">
	.st0{fill:none;stroke:#000000;stroke-width:1.358;stroke-miterlimit:10;}
	.st1{fill:none;stroke:#000000;stroke-width:2;stroke-miterlimit:10;}
</style>
<path class="st0" d="M735.629,432.962V559.47h773.155V432.962H735.629z M1069.036,474.532H809.19v-15.12h259.846L1069.036,474.532
	L1069.036,474.532z M1455.343,474.532h-119.137v-15.12h119.137L1455.343,474.532L1455.343,474.532z"/>
<g>
	<path class="st1" d="M463.924,1739.56c-19.863-14.98-45.104-22.569-75.041-22.569h-92.473v191.062h83.735
		c36.691,0,64.131-7.018,83.888-21.452c21.928-16.017,33.049-42.558,33.049-78.884
		C497.083,1779.522,485.616,1755.954,463.924,1739.56z M449.167,1866.252c-15.152,11.071-38.155,16.6-69.021,16.6h-58.535v-140.661
		h67.272c24.463,0,44.407,5.829,59.847,17.473c15.426,11.658,23.152,27.671,23.152,48.052
		C471.882,1835.673,464.306,1855.194,449.167,1866.252z"/>
	<path class="st1" d="M649.238,2117.87v-55.041c0-36.107-9.037-66.249-27.084-90.426c-18.061-24.162-47.479-39.451-88.241-45.867
		c45.432-8.15,80.515-24.163,105.277-48.052c24.75-23.876,37.132-57.949,37.132-102.22c0-65.812-16.601-112.991-49.8-141.535
		c-33.199-28.531-85.047-42.81-155.514-42.81H35.045v150.272h68.146v378.3H35.045v150.271h354.711v-150.271h-68.146V1979.83h51.546
		c30.278,0,51.11,8.45,62.468,25.336c11.357,16.9,17.037,42.811,17.037,77.757c0,61.157,5.092,104.841,15.289,131.051
		c10.184,26.211,24.899,42.237,44.12,48.053c19.221,5.829,50.96,8.736,95.23,8.736h137.167V2117.87H649.238z M719.268,2245.562
		H607.301c-51.811,0-76.407-4.161-87.917-7.651c-11.358-3.437-20.755-14.56-27.944-33.063
		c-6.197-15.928-13.578-49.999-13.578-121.925c0-40.432-6.975-70.464-21.322-91.812c-16.283-24.209-44.335-36.48-83.383-36.48
		h-76.746v191.062h68.146v99.871H60.246v-99.871h68.146V1716.99H60.246v-99.871h410.763c63.938,0,110.735,12.354,139.089,36.722
		c27.22,23.404,41.024,64.595,41.024,122.423c0,37.477-9.626,64.98-29.428,84.083c-20.987,20.247-52.018,34.171-92.231,41.386
		l0.532,49.697c33.856,5.329,58.072,17.462,71.975,36.061c14.847,19.89,22.068,44.537,22.068,75.339v80.241h95.23V2245.562z"/>
</g>
<g>
	<path class="st1" d="M777.642,2120.491h68.146v-378.3h-68.146v-150.272h435.963c70.467,0,122.314,14.279,155.514,42.81
		c33.199,28.544,49.8,75.723,49.8,141.535c0,44.271-12.382,78.344-37.132,102.22c-24.763,23.889-59.846,39.902-105.277,48.052
		c40.763,6.416,70.181,21.705,88.241,45.867c18.047,24.177,27.084,54.318,27.084,90.426v55.041h95.23v152.893h-137.167
		c-44.271,0-76.01-2.907-95.23-8.736c-19.221-5.815-33.937-21.842-44.12-48.053c-10.197-26.21-15.289-69.894-15.289-131.051
		c0-34.946-5.68-60.856-17.037-77.757c-11.357-16.886-32.189-25.336-62.468-25.336h-51.546v140.661h68.146v150.271H777.642V2120.491
		z M1122.743,1882.852c30.865,0,53.868-5.529,69.021-16.6c15.14-11.058,22.716-30.579,22.716-58.536
		c0-20.381-7.727-36.394-23.152-48.052c-15.439-11.645-35.384-17.473-59.847-17.473h-67.272v140.661H1122.743z"/>
</g>
<g>
	<path class="st1" d="M463.924,1026.835c-19.863-14.98-45.104-22.569-75.041-22.569h-92.473v191.062h83.735
		c36.691,0,64.131-7.018,83.888-21.452c21.928-16.017,33.049-42.558,33.049-78.884
		C497.083,1066.798,485.616,1043.229,463.924,1026.835z M449.167,1153.527c-15.152,11.071-38.155,16.6-69.021,16.6h-58.535v-140.661
		h67.272c24.463,0,44.407,5.829,59.847,17.473c15.426,11.658,23.152,27.671,23.152,48.052
		C471.882,1122.949,464.306,1142.47,449.167,1153.527z"/>
	<path class="st1" d="M649.238,1405.145v-55.041c0-36.107-9.037-66.249-27.084-90.426c-18.061-24.162-47.479-39.451-88.241-45.867
		c45.432-8.15,80.515-24.163,105.277-48.052c24.75-23.876,37.132-57.949,37.132-102.22c0-65.812-16.601-112.991-49.8-141.535
		c-33.199-28.531-85.047-42.81-155.514-42.81h-27.915v25.201h27.915c63.938,0,110.735,12.354,139.089,36.722
		c27.22,23.404,41.024,64.595,41.024,122.423c0,37.477-9.626,64.98-29.428,84.083c-20.987,20.247-52.018,34.171-92.231,41.386
		l0.532,49.697c33.856,5.329,58.072,17.462,71.975,36.061c14.847,19.89,22.068,44.537,22.068,75.339v80.241h95.23v102.492H607.301
		c-51.811,0-76.407-4.161-87.917-7.651c-11.358-3.437-20.755-14.56-27.944-33.063c-6.197-15.928-13.578-49.999-13.578-121.925
		c0-40.432-6.975-70.464-21.322-91.812c-16.283-24.209-44.335-36.48-83.383-36.48h-76.746v191.062h68.146v99.871H60.246v-99.871
		h68.146v-428.701H60.246v-99.871h165.186v-25.201H35.045v150.272h68.146v378.3H35.045v150.271h354.711v-150.271h-68.146v-140.661
		h51.546c30.278,0,51.11,8.45,62.468,25.336c11.357,16.9,17.037,42.811,17.037,77.757c0,61.157,5.092,104.841,15.289,131.051
		c10.184,26.211,24.899,42.237,44.12,48.053c19.221,5.829,50.96,8.736,95.23,8.736h137.167v-152.893H649.238z"/>
</g>
<g>
	<path class="st1" d="M1196.373,1026.835c-19.863-14.98-45.104-22.569-75.041-22.569h-92.473v191.062h83.735
		c36.691,0,64.131-7.018,83.888-21.452c21.928-16.017,33.049-42.558,33.049-78.884
		C1229.532,1066.798,1218.066,1043.229,1196.373,1026.835z M1181.616,1153.527c-15.152,11.071-38.155,16.6-69.021,16.6h-58.535
		v-140.661h67.272c24.463,0,44.407,5.829,59.847,17.473c15.426,11.658,23.152,27.671,23.152,48.052
		C1204.332,1122.949,1196.756,1142.47,1181.616,1153.527z"/>
	<path class="st1" d="M1381.688,1405.145v-55.041c0-36.107-9.037-66.249-27.084-90.426c-18.061-24.162-47.479-39.451-88.241-45.867
		c45.432-8.15,80.515-24.163,105.277-48.052c24.75-23.876,37.132-57.949,37.132-102.22c0-65.812-16.601-112.991-49.8-141.535
		c-33.199-28.531-85.047-42.81-155.514-42.81h-27.916v25.201h27.915c63.938,0,110.735,12.354,139.089,36.722
		c27.22,23.404,41.024,64.595,41.024,122.423c0,37.477-9.626,64.98-29.428,84.083c-20.987,20.247-52.018,34.171-92.231,41.386
		l0.532,49.697c33.856,5.329,58.072,17.462,71.975,36.061c14.847,19.89,22.068,44.537,22.068,75.339v80.241h95.23v102.492h-111.967
		c-51.811,0-76.407-4.161-87.917-7.651c-11.358-3.437-20.755-14.56-27.944-33.063c-6.197-15.928-13.578-49.999-13.578-121.925
		c0-40.432-6.975-70.464-21.322-91.812c-16.283-24.209-44.335-36.48-83.383-36.48h-76.746v191.062h68.146v99.871h-304.31v-99.871
		h68.146v-428.701h-68.146v-99.871h165.186v-25.201H767.495v150.272h68.146v378.3h-68.146v150.271h354.711v-150.271h-68.146
		v-140.661h51.546c30.278,0,51.11,8.45,62.468,25.336c11.357,16.9,17.037,42.811,17.037,77.757
		c0,61.157,5.092,104.841,15.289,131.051c10.184,26.211,24.899,42.237,44.12,48.053c19.221,5.829,50.96,8.736,95.23,8.736h137.167
		v-152.893H1381.688z"/>
</g>
<path class="st1" d="M674.438,606.949v-55.041c0-36.107-9.037-66.249-27.084-90.426c-18.061-24.162-47.479-39.451-88.241-45.867
	c45.432-8.15,80.515-24.163,105.277-48.052c24.75-23.876,37.132-57.949,37.132-102.22c0-65.812-16.601-112.991-49.8-141.535
	c-33.199-28.531-85.047-42.81-155.514-42.81H60.246V231.27h68.146v378.3H60.246v150.271h42.916v15.12h257.894v-15.12h53.901V609.57
	h-68.146V468.909h51.546c30.278,0,51.11,8.45,62.468,25.336c11.357,16.9,17.037,42.811,17.037,77.757
	c0,61.157,5.092,104.841,15.289,131.051c10.184,26.211,24.899,42.237,44.12,48.053c19.221,5.829,50.96,8.736,95.23,8.736h-2.233
	v15.12h117.341v-15.12h22.059V606.949H674.438z M474.367,355.331c-15.152,11.071-38.155,16.6-69.021,16.6h-58.535V231.27h67.272
	c24.463,0,44.407,5.829,59.847,17.473c15.426,11.658,23.152,27.671,23.152,48.052C497.083,324.753,489.506,344.274,474.367,355.331z
	"/>
</svg>
