<?xml version="1.0" encoding="utf-8"?>
<!-- Generator: Adobe Illustrator 27.9.0, SVG Export Plug-In . SVG Version: 6.00 Build 0)  -->
<svg version="1.1" id="Layer_1" xmlns="http://www.w3.org/2000/svg" xmlns:xlink="http://www.w3.org/1999/xlink" x="0px" y="0px"
	 viewBox="0 0 139.5 147.7" enable-background="new 0 0 139.5 147.7" xml:space="preserve">
<g>
	<g>
		<path stroke="#000000" stroke-width="3" stroke-linecap="round" stroke-linejoin="round" stroke-miterlimit="10" d="M133.2,128.1
			c-4.9-2.1-9.1-5.7-11.8-10.4c-0.7-1.2-1.2-2.4-1.7-3.6c-0.5-1.3-1.1-2.9-0.8-4.3c0.2-0.8,0.5-1.6,0.7-2.4c0.2-0.8,0.3-1.6,0.4-2.4
			c0.1-1.6,0.1-3.3-0.2-5c-0.2-1.7-0.5-3.3-0.8-5c-0.3-1.6-0.7-3-0.2-4.3c0.2-0.7,0.8-1.1,1.2-1.6c0.5-0.6,0.8-1.3,0.8-2
			c0-0.7-0.1-1.3-0.2-1.9c-0.5-2.7-0.9-5.3-1.4-8c-0.4-2.2-0.8-4.5-1.2-6.8l1.5,0.1c0.6,0,0.9-0.6,0.8-1.1
			c-1.7-11.1-4.4-22.1-7.9-32.8c-1.7-5.1-3.5-10.3-5.8-15.2c-2.1-4.4-4.9-8.5-9.2-11c-3.7-2.2-8.1-3.1-12.3-2.8
			c-2.2,0.1-4.4,0.5-6.5,1.2c-1.2,0.4-2.4,0.9-3.6,1.3c-1.3,0.4-2.7,0.6-4.1,0.5c-2.8-0.2-5.4-1.5-8.1-2.2c-2.5-0.7-5.2-0.9-7.8-0.6
			c-4.9,0.6-9.6,2.7-13.9,5.1c-7.9,4.4-15,10.7-19.2,18.9c-0.5,1-1,2-1.4,3.1c-0.2,0.5,0.2,0.9,0.6,1.1c0.5,0.2,1,0.3,1.6,0.4
			L19.3,43l-5.7,10.9c-1.3,2.5-2.8,5.2-2.2,8.2c0.1,0.5,0.7,0.7,1.1,0.6l1.6-0.2c-1.5,4.9-2.9,9.9-4.4,14.9
			c-0.5,1.7-0.8,3.9,0.7,5.1c0.6,0.5,1.3,0.7,2,0.7c-1.1,7-1.8,14.2-2,21.3c0,0.5,0.4,0.9,0.9,0.9h1.6c-0.6,5.8-1.2,11.7-1.9,17.5
			c0,0.5,0.4,0.8,0.9,0.9c0.7,0,1.3-0.1,2-0.3l0.2,2.4c0,0.8,0.9,1.1,1.5,0.6l3.8-3c0.5,3.8,0.3,7.7-0.7,11.5
			c-0.2,0.8,0.8,1.5,1.5,0.9c0.6-0.7,1.4-1.4,2.1-2c0.6,1.5,1.6,2.9,2.8,3.9c0.4,0.4,0.9,0.3,1.3,0c0,0,0.1-0.1,0.1-0.2
			c0.7-1.1,1.2-2.2,1.6-3.4c1.5,2.3,3.8,3.9,6.4,4.7c0.7,0.2,1.4-0.6,1-1.3c-1-1.6-1.7-3.2-2.2-5c-0.1-0.4-0.2-0.7-0.3-1.1
			c0-0.3-0.1-0.4,0.2-0.6c0.3-0.1,0.6-0.2,0.9-0.3c0.4-0.2,0.7-0.4,1-0.7c1-1.1,1.2-2.7,1.2-4.1c0-0.8-0.1-1.7,0.1-2.5
			c0.2-0.7,0.6-1.3,1-1.9c1-1.1,2.1-2,3-3.2c0.9-1.2,1.6-2.5,2-4c0.9-3,0.8-6.3,0.5-9.4c-0.3-3.7-0.7-7.4-1-11.2l0.3,0.2
			c0.4,0.2,1,0.1,1.2-0.3c0,0,0-0.1,0.1-0.2c1.8-7.7-1.4-15.2-2.3-22.7c-0.2-1.3-0.2-2.7-0.2-4.1c0.5,0.4,1,0.8,1.6,1.1
			c0.4,0.2,0.8,0.1,1.1-0.1c1.4-1.4,1.9-3.3,2.2-5.3c0.3-2.3,0.4-4.7,0.6-7c0.4-5,0.7-10.1,1.1-15.1c0.2-2.5,0.4-5,0.6-7.4
			c0.2-2.5,0.6-4.6,1.3-6.8c0.6-1.8,1.4-3.6,2.8-4.9c1.3-1.3,3.7-2.3,5.7-2.7c4.9-1.1,10,0,13.9,3.1c0.4,0.3,0.9,0.4,1.2,0
			c2.5-2.9,6-4.3,9.6-5.1c3.6-0.8,7.3-0.8,10.3,1.4c2,1.5,3,4,3.3,6.5s0.1,5.6-0.2,8.3c-0.8,7-2.2,13.9-3.5,20.9
			c-2.7,13.6-5.6,27.4-4.7,41.3c0.1,1.9,0.3,3.8,0.6,5.7c0.3,1.9,0.4,3.5,1.3,5c0.9,1.5,2,2,3.5,1.7c0.5-0.1,0.9-0.3,1.3-0.6
			l6.4,12.1c2.1,3.9,4.1,8,7.8,10.8c1.9,1.5,4.1,2.3,6.5,2.5c0.6,0,0.9-0.6,0.9-1.1c-0.1-0.5-0.2-1.3-0.3-2l2.6,2.3
			c0.5,0.5,1.2,0.2,1.5-0.4c0.4-1.1,0.6-2.4,0.4-3.6c1.5,1.2,3,2.2,4.7,2.9c2.7,1.1,5.9,1.3,8.5-0.1
			C134.1,129.3,133.8,128.4,133.2,128.1z M40.8,113.4c-0.3,1.4-1,2.8-1.9,3.9c-1,1.2-2.2,2.1-3.2,3.3l-0.2,0.3
			c0.3-3.3,0.7-6.5,1.2-9.8c0.8-5,1.9-9.9,3.3-14.7c0.1-0.4,0.2-0.7,0.3-1.1c0.3,2.8,0.5,5.7,0.8,8.6
			C41.3,106.8,41.6,110.3,40.8,113.4z M42.1,91.7l-0.5-0.3c0.3-0.8,0.5-1.5,0.8-2.2C42.3,90,42.2,90.8,42.1,91.7z M118.7,123.3
			c-0.7-0.6-2,0.2-1.4,1.1c0.9,1.2,1.3,2.8,1.1,4.3l-3-2.8c0.1-0.3,0-0.7-0.2-0.9c-0.9-0.7-1.7-1.4-2.5-2.2c-0.7-0.8-1.4-1.6-2-2.5
			c-0.7-0.9-1.2-1.9-1.8-2.9c-0.3-0.5-0.5-1-0.7-1.5c-0.1-0.1-0.1-0.3-0.2-0.4c0,0-0.1-0.2-0.1-0.2c0,0-0.2-0.5-0.3-0.8
			c-1.8-4.8-2.5-9.8-2.6-14.8c-0.1-3.1,0-6.1,0-9.2c0-0.5-0.4-0.9-0.9-0.9c-0.5,0-0.9,0.4-0.9,0.9c-0.1,5.6-0.2,11.3,0.7,16.8
			c0.8,4.7,2.3,9.3,4.9,13.3c1.3,2.1,3,4,4.9,5.5c0,0.1,0,0.3,0,0.4c0.1,0.8,0.3,2.2,0.5,3.3c-3.6-0.7-6.4-3.5-8.4-6.5
			c-1.2-1.8-2.2-3.7-3.2-5.6l-3.4-6.4l-3.9-7.4c-0.5-0.9-1.7-0.2-1.6,0.7c0,0.2-0.3,0.4-0.5,0.5c-0.4,0.2-0.8,0.2-1.2,0
			c-1.1-0.7-1.3-2.3-1.5-3.4c-0.6-3.3-0.9-6.6-1-10c-0.2-6.7,0.4-13.3,1.4-19.9c2-13.3,5.4-26.4,6.9-39.8c0.6-5.5,0.9-12.3-4-15.9
			c-3.3-2.4-7.6-2.4-11.4-1.6c-3.9,0.8-7.4,2.3-10.1,5c-3.5-2.4-7.7-3.7-11.9-3.4c-2.4,0.2-4.8,0.8-6.9,1.9c-1.8,0.9-3.3,2.3-4.3,4
			c-2.4,4-2.8,8.8-3.1,13.4c-0.1,1.8-0.3,3.6-0.4,5.5c0-0.1-0.1-0.2-0.2-0.3c-0.3-0.3-0.9-0.4-1.2,0c-4.4,5.2-8.6,10.6-12.2,16.3
			c-3.6,5.7-6.5,11.8-8.4,18.3c-1,3.6-1.7,7.4-2,11.2c0,0.5,0.4,0.9,0.9,0.9c0.5,0,0.9-0.4,0.9-0.9c0.4-6.4,2.2-12.9,4.9-18.8
			s6.3-11.7,10.2-17.1c2.2-3,4.5-5.8,6.9-8.7c0.1-0.1,0.1-0.2,0.2-0.3L44.9,51c-0.2,3-0.4,5.9-0.7,8.9c-0.1,2-0.2,4.2-1.4,5.8
			c-0.8-0.5-1.4-1.2-1.8-2c-0.4-0.9-1.6-0.3-1.6,0.4c-1,7.7,2.4,14.9,2.9,22.5c0,0.3,0,0.6,0,0.8c-0.1-0.1-0.2-0.2-0.4-0.2
			c-0.5-0.1-0.9,0.2-1.1,0.6c-1.7,4.8-3.1,9.6-4.2,14.5c-1.2,5-2,10-2.5,15.1c-0.3,2.8-0.5,5.7-0.7,8.5c0,0.5,0.4,0.8,0.9,0.9h0.1
			c-0.1,0.9-0.3,1.7-1.1,2.1c-0.8,0.4-1.5,0.4-1.9,1.2c-0.4,0.8-0.1,1.8,0.1,2.6c0.3,1.2,0.8,2.3,1.3,3.4c-1.9-1.1-3.3-2.7-4.1-4.7
			c-0.1-0.4-0.4-0.6-0.8-0.6c-0.4,0-0.8,0.3-0.8,0.6c-0.2,1.5-0.7,2.9-1.4,4.2c-1-1-1.7-2.3-2-3.7c-0.2-0.7-1-0.8-1.5-0.4
			s-0.7,0.6-1.1,0.9c0.6-3.6,0.5-7.3-0.1-10.9c-0.1-0.7-1-0.8-1.5-0.4l-3.7,2.9l-0.1-2.2c0-0.6-0.8-1.2-1.3-0.8
			c-0.4,0.3-0.9,0.5-1.3,0.6l1.8-17.4c0-0.5-0.4-0.9-0.9-0.9h-1.6c0.2-7.3,1-14.6,2.2-21.8c0.2-0.9-1.1-1.6-1.6-0.7
			c-0.2,0.3-0.6,0.2-0.9,0.1C11.5,81.2,11,80.6,11,80c0-0.6,0.2-1.7,0.5-2.5c0.2-0.8,0.6-2,0.9-3l3-10.2l0.8-2.6
			c0.2-0.7-0.5-1.2-1.1-1.1l-2,0.3c-0.1-2.1,1.1-4.1,2.1-5.9c0.7-1.5,1.5-2.9,2.2-4.3l6.1-11.9c0.5-1,1-2,1.5-2.9
			c0.2-0.4,0-1-0.4-1.2c-0.2-0.1-0.4-0.1-0.6-0.1c-0.4,0.1-0.9,0.1-1.4,0c3.4-7.8,9.7-14.1,16.9-18.6c4-2.5,8.3-4.6,12.9-5.8
			c2.4-0.6,4.8-0.8,7.3-0.6c2.7,0.3,5.2,1.5,7.8,2.2c2.6,0.7,5.3,0.9,7.9,0.1c2.2-0.8,4.3-1.7,6.6-2.2c4-0.8,8.4-0.6,12.2,1
			c4.2,1.7,7.3,5,9.6,9c2.2,4,3.8,8.3,5.3,12.6c-0.7-1.1-1.6-2.1-2.6-2.9c-0.4-0.2-1-0.1-1.2,0.4c-0.2,0.4-0.1,0.8,0.2,1.1
			c0.5,0.4,1,0.9,1.5,1.5c0.2,0.3,0.4,0.6,0.6,0.9l0.1,0.1l0.1,0.1c0.1,0.2,0.2,0.4,0.3,0.5c0.3,0.7,0.6,1.4,0.9,2.1l0,0.1v0.1
			c0,0.1,0,0.2,0.1,0.3c0,0.1,0.1,0.3,0.1,0.4c0.1,0.4,0.2,0.8,0.3,1.2c0.6,3.6,0.2,7.2-0.1,10.7c-0.3,3.6-0.7,7.6-0.8,11.3
			s-0.3,7.5,0,11.2c0.3,3.7,1.3,8,3.1,11.6c0.2,0.4,0.7,0.6,1.2,0.4c0.4-0.2,0.6-0.7,0.4-1.2c-1.6-3.2-2.6-6.6-2.9-10.1
			c-0.4-3.6-0.3-7.3-0.1-10.9s0.4-7.7,0.8-11.6c0.4-3.7,0.8-7.2,0.3-10.8c2.8,8.8,5,17.8,6.6,26.9l0.5,2.9l-1.5-0.1
			c-0.6,0-0.9,0.6-0.8,1.1l2.7,15.6c0,0.2,0.1,0.5,0.1,0.7c0.1,0.7,0.2,1.3-0.2,1.9s-1.1,1-1.4,1.7c-0.7,1.4-0.5,3-0.3,4.4
			c0.3,1.5,0.6,3.3,0.9,4.9c0.3,1.7,0.4,3.4,0.3,5.1c0,1.7-0.5,3.3-1,5c-0.4,1.7-0.1,3.1,0.4,4.6c0.4,1.3,1,2.6,1.6,3.9
			c2.5,4.8,6.5,8.8,11.4,11.3C126.2,129.8,121.8,126.1,118.7,123.3z"/>
	</g>
</g>
</svg>
