<?xml version="1.0" encoding="utf-8"?>
<!-- Generator: Adobe Illustrator 27.9.0, SVG Export Plug-In . SVG Version: 6.00 Build 0)  -->
<svg version="1.1" id="Layer_1" xmlns="http://www.w3.org/2000/svg" xmlns:xlink="http://www.w3.org/1999/xlink" x="0px" y="0px"
	 viewBox="0 0 266 222.4" style="enable-background:new 0 0 266 222.4;" xml:space="preserve">
<g>
	<path style="stroke:#000000;stroke-width:3;stroke-linecap:round;stroke-linejoin:round;stroke-miterlimit:10;" d="M238.4,42.4
		c-1.1-4.6-2.3-9.1-3.9-13.6c-1.2-3.5-2.9-7.1-5.9-9.5c-7.9-6.5-17.3,0.5-23.6,5.8c-13.7,11.6-23.5,26.9-34.3,41
		c-1.3,1.8-2.7,3.6-4.4,5.1s-3.5,2.3-5.3,3.4c-1.8,1.1-3.8,2.4-5,4.3c-1.2,1.9-1.8,4.2-1.1,6.3c0.3,0.9,0.8,1.8,1.5,2.5l0.8,0.8
		c0.3,0.3,1,0.8,1.1,1.1c0.1,0.3-1,1.2-1.5,1.4c-1,0.4-2.1,0.7-3.2,0.7c-4.8,0.2-9.3-1.9-14.1-2.1c-2.5-0.1-4.7,0.7-7.1,1.3
		c-1,0.3-2,0.4-3,0.2c-1-0.2-1.9-0.7-2.9-1.1c-2-1-4.3-1.3-6.5-1.2c-2.5,0.2-5,0.7-7.4,1.5c-2.3,0.8-4.4,2-6.5,3
		c-0.6,0.3-1.9,1-2.5,0.5c-0.1-0.1-0.1-0.1-0.1-0.1c0,0,0.1,0,0.1,0c0-0.1,0.6-1,0.8-1.3c2.4-4.2,0.6-9.7-1.9-13.4
		c-2.5-3.7-6.3-7-9.3-10.6c-3.1-3.5-6.1-7.4-8.9-11.2c-5.6-7.4-11.2-15-17.8-21.6c-6.1-6.1-13.1-11.3-21.1-14.4c-1-0.4-2-0.7-3-1
		c-0.6-0.2-1.2-0.4-1.8-0.1c-0.5,0.3-1,0.6-1.4,1c-1.4,1.3-2.6,2.8-3.6,4.5c-1.9,3.5-2.8,7.5-3.3,11.3c-1.1,7.8-1.9,15.8-2.7,23.7
		c-0.2,0.2-0.3,0.5-0.3,0.8c-0.1,1.1-0.1,2.1-0.1,3.2c-0.1,0.9-0.2,1.7-0.3,2.6l-3.6,31.6c-0.6,5.2-1.2,10.5-1.8,15.7
		c-0.3,2.4-0.8,5-0.1,7.4c0.5,1.7,1.4,3.2,2.7,4.4c2.4,2.4,5.7,3.8,7.7,6.5c2.5,3.3,2.4,7.8,3.9,11.6c1.3,3,3.4,5.7,6.5,6.7
		c-0.4,0.4-0.7,0.8-0.9,1.3c-0.4,0.9-0.7,1.9-1,2.9c-0.7,2.4-1.2,4.9-1.7,7.4s-1,5.3-1.5,7.9c-0.2,1.1-0.4,2.1-0.7,3.1
		c-0.1,0.4-0.2,0.8-0.4,1.2l-0.1,0.3c0,0,0,0.1,0,0.1l0,0.1l0,0v0c0,0.1-0.1,0.1-0.1,0.2l-0.7,0.9c-0.8,1.4-0.9,3.2,0.4,4.4
		s2.4,1.3,3.7,1.7c1,0.2,1.9,0.4,2.9,0.6c0,0.2,0,0.4,0,0.6c0,0.1,0,0.3-0.1,0.5c-0.2,1-0.4,2-0.5,3c-0.1,1.6,0.4,3.4,1.6,4.5
		c0.7,0.7,1.7,1.1,2.7,1l1-0.1h0.1l-0.1-0.1l0.1,0.1h0c0,0,0,0,0,0.1l0.1,0.1c0.1,0.2,0.1,0.4,0.2,0.6v0.1c0,0.1,0,0.1,0,0.2
		c0,0.3,0,0.5,0,0.8c0,1.1,0.3,2.1,0.7,3.1c0.9,1.9,2.6,3.2,4.6,3.8c0.9,0.3,1.9-0.1,2.3-1.1c0.3-0.9-0.1-1.9-1.1-2.3
		c-0.1,0-0.2-0.1-0.2-0.1l-0.5-0.1h0l-0.2-0.1l-0.4-0.2l-0.2-0.1h-0.1l-0.4-0.4l-0.1-0.2l-0.1-0.1c-0.1-0.2-0.3-0.5-0.4-0.8
		c0-0.1,0-0.1-0.1-0.2l-0.1-0.5c0,0,0-0.1,0-0.1c0-0.1,0-0.1,0-0.2c0-0.3,0-0.5,0-0.8c0-1.1-0.2-2.1-0.7-3c-0.5-0.9-1.3-1.6-2.3-1.9
		c-0.6-0.1-1.3-0.1-1.9,0h-0.4v-0.1c0,0,0,0,0,0c0,0,0,0,0-0.1c0,0-0.1-0.1,0-0.1l-0.1-0.2l-0.1-0.4L47,188v-0.1c0-0.2,0-0.4,0-0.6
		c0-0.1,0-0.1,0-0.2c0-0.2,0.1-0.5,0.1-0.7c0.1-0.5,0.2-1,0.3-1.5c0.2-1.2,0.3-2.5-0.1-3.7c-0.2-0.7-0.9-1.3-1.7-1.3H45l-0.8-0.1
		c-0.6-0.1-1.2-0.2-1.8-0.4l-1.6-0.4c-0.1-0.1-0.5-0.1-0.6-0.2l-0.1,0c0,0-0.1-0.1-0.1-0.1h0l0.1-0.2c0,0,0.1-0.2,0.2-0.2
		c0.2-0.3,0.4-0.6,0.6-0.9c0.8-1.7,1.1-3.5,1.5-5.3c1-4.9,1.8-9.9,3-14.8c0.2-1,0.5-1.9,0.9-2.8c0-0.1,0.1-0.1,0.1-0.2l0.2-0.3
		c-0.1,0.1,0,0,0-0.1h0c0,0,0,0,0.1,0c0.4-0.2,0.6-0.6,0.7-1.1l0.2,0.1c0.9,0.2,1.9-0.3,2.1-1.2c1.3-3.1,2.5-6.1,3.8-9.2l1-2.3
		c0,0,0,0,0-0.1c0,0,0-0.1,0-0.1c0.1-0.1,0.1-0.2,0.2-0.4c0,0,0,0,0-0.1h0.1c0,0,0,0,0,0h0.5l0.3,0.1l0.7,0.2c1,0.4,1.9,0.7,3,0.8
		c0.7,0,1.3-0.1,1.9-0.4c0.5-0.2,1-0.7,1.1-1.2c0.1-0.5,0.1-1,0-1.5l-0.5-4.9c-0.1-1.3-0.3-2.6-0.4-4L64,129l5.4,1.4
		c1,0.2,1.9-0.3,2.1-1.2c0-0.1,0.1-0.3,0.1-0.5c-0.1-2.8-0.2-5.6-0.2-8.3l0.7,0.3l0.2,0.1l0.6,0.2c1.4,0.6,2.9,1.3,4.4,1.1
		c1.8-0.2,3.4-1.4,4-3.1c0.5-1.3,0.5-2.7,0.4-4.1c0-0.7,0-1.4,0-2.1c0-0.1,0-0.3,0-0.5v-0.1c0.1-0.1,0.1-0.4,0.1-0.5
		c0-0.2,0.1-0.4,0.1-0.5c0,0,0-0.1,0-0.1h0l0.2-0.4l0.2-0.4l0.2-0.2c0.2-0.2,0.5-0.5,0.7-0.7l0.3-0.3h-0.1c0,0,0,0,0,0h0l0.1-0.1
		l0.1-0.1c1.2-0.8,2.4-1.5,3.6-2.3c1.4-1,2.7-2.2,3.7-3.6c2.3-3,3.4-6.7,3.1-10.4c-0.1-0.9-0.8-1.8-1.8-1.8s-1.9,0.8-1.8,1.8
		c0.1,0.7,0.1,1.5,0,2.3c0,0.2-0.1,0.4-0.1,0.5c0,0.1,0,0.1,0,0.2s-0.1,0.7-0.2,1.1c-0.1,0.4-0.2,0.7-0.3,1c0,0.2-0.1,0.4-0.2,0.5
		v0.1c0,0-0.1,0.1-0.1,0.2c-0.3,0.7-0.7,1.3-1.1,2l-0.3,0.5l-0.1,0.1c0,0,0,0,0,0.1l-0.8,0.9l-0.7,0.7l-0.4,0.4h0l-0.2,0.1
		c-1.1,0.8-2.4,1.5-3.5,2.3c-1.3,0.8-2.4,1.9-3.3,3.1c-0.9,1.3-1.2,2.9-1.2,4.4c0,1.5,0.1,2.6,0,3.8v0.1c0,0.1,0,0.2-0.1,0.4
		c0,0.1,0,0.3-0.1,0.4l-0.1,0.1h0l-0.2,0.2l-0.1,0.1l-0.1,0.1c-0.1,0-0.1,0-0.1,0.1l-0.2,0.1l-0.2,0.1h-0.4c-0.1,0-0.3,0-0.1,0
		l-0.3-0.1l-1.1-0.4l-0.2-0.1l-0.5-0.2c-1.6-0.7-3.2-1.5-5-1.4c-1,0.1-1.8,0.8-1.8,1.8c0.1,2.7,0.2,5.4,0.2,8.1l-2.3-0.6l-2.3-0.6
		c-0.7-0.2-1.5-0.4-2.3-0.5c-0.9,0-1.7,0.3-2.4,0.9c-0.6,0.7-0.8,1.7-0.7,2.6c0.1,1.5,0.3,3.1,0.4,4.6s0.3,2.6,0.4,3.9l-0.7-0.2
		c-1.1-0.4-2.2-0.9-3.4-0.8c-0.9,0.1-1.7,0.5-2.3,1.1c-0.7,0.7-1,1.6-1.4,2.5c-0.7,1.7-1.4,3.4-2.1,5.2c-0.7,1.8-1.1,2.6-1.6,3.9
		c-0.3-0.2-0.7-0.4-1.1-0.5c-3.6-0.2-5.2-4.6-5.9-7.5c-1-4-1.8-8.1-4.8-11.2c-2.3-2.3-5.6-3.8-7.6-6.4c-1.1-1.5-1.2-3.2-1.1-5
		c0.2-2.5,0.6-5.1,0.8-7.6c0.9-7.8,1.8-15.7,2.6-23.5c1,7.5,2.6,14.8,4.9,22.1c0.3,1.2,0.7,2.4,1.2,3.5c0.4,1.2,1.3,2.3,2.4,2.8
		c0.6,0.3,1.4,0.4,2.1,0.3c0.6,0,1.2-0.3,1.8-0.4L43,115l0.2,0.1v0.1c0.1,0.1,0.2,0.1,0.3,0.2l0.1,0.1c0,0,0.1,0.1,0.1,0.1
		c0.1,0.1,0.1,0.2,0.2,0.2l0.2,0.2c0,0,0,0.1,0,0.1c0.1,0.2,0.2,0.5,0.3,0.7c0,0.1,0.1,0.3,0.1,0.3s0.1,0.4,0.1,0.5
		c0,0.1,0.1,0.8,0.1,1.2c0.1,1.4,0.2,2.9,0.6,4.2c0.6,2.8,2,5.5,4,7.6c0.6,0.7,1.7,1,2.5,0.3c0.8-0.6,1-1.8,0.3-2.5
		c-0.4-0.4-0.8-0.9-1.1-1.3l-0.5-0.7l-0.1-0.3c-0.1-0.1-0.1-0.2-0.2-0.3c-0.3-0.5-0.5-1-0.7-1.5c-0.1-0.2-0.2-0.5-0.3-0.7l-0.2-0.4
		c0-0.1-0.1-0.3-0.1-0.4c-0.3-1.1-0.5-2.3-0.5-3.4c0-1.4-0.3-2.7-0.7-4c-0.9-2.3-3.3-4.1-5.9-3.6c-0.5,0.1-1,0.3-1.5,0.3h-0.1h0h0
		c0,0-0.1-0.1-0.1-0.1h0c-0.1-0.1-0.2-0.2-0.2-0.3l-0.3-0.6c-0.2-0.5-0.4-1.1-0.6-1.7c-3.2-9.9-5.2-20.1-6-30.4
		c-0.2-2.9-0.4-5.8-0.4-8.8c0-0.1,0-0.3,0-0.4l0-0.2h0c0-0.4,0-0.8,0-1.2c0-0.4,0-1.5,0-2.2c0-0.1,0-0.3,0-0.4
		c0.7-5.8,1.3-11.6,2-17.5c0.6-4.9,0.9-9.8,1.9-14.6c0.8-3.7,2.3-7.6,5.2-10.1c11.6,3.7,21,12.2,28.7,21.4
		c4.5,5.4,8.7,11.1,12.9,16.6c2.1,2.8,4.3,5.5,6.6,8.2s4.6,5,6.9,7.5c2.3,2.5,4.3,5.1,5,8.3c0.3,1.4,0.4,3.3-0.2,4.6
		c-0.6,1.4-1.7,2.4-1.3,4.1c0.4,1.5,1.7,2.7,3.2,2.9c1.8,0.3,3.4-0.4,4.9-1.2c3.2-1.5,6.3-3,9.9-3.6c1.5-0.2,3.2-0.5,4.8-0.2
		c1.5,0.3,2.9,1.1,4.3,1.7c1.5,0.6,3.2,0.7,4.9,0.5c1.6-0.3,3.1-1,4.6-1.3c3.6-0.8,7.2,0.5,10.7,1.2s6.7,1.1,9.8,0
		c1.5-0.5,3-1.3,3.9-2.7c0.9-1.4,0.8-3.2-0.3-4.6s-2.1-1.7-2.5-2.9s0.1-2.6,0.7-3.7c1.7-2.5,5.1-3.6,7.6-5.2
		c2.5-1.6,4.9-4.4,6.9-7.1c7.9-10.2,15.2-21,23.9-30.7c4.3-4.8,9-9.3,14.1-13.2c2.5-1.9,5.4-3.7,8.6-4.2c2.6-0.4,5.3,0.5,7.2,2.5
		c1.8,1.9,3,4.4,3.8,6.9c1.1,3.1,2,6.3,2.9,9.5c1.3,4.9,2.4,9.9,3.3,14.8c0,0.1,0,0.1,0,0.2c-0.1,5.5-0.1,10.9-0.6,16.4
		c-0.2,2.7-0.6,5.5-1,8.1c-0.2,1.2-0.4,2.4-0.7,3.6c0,0.1,0,0.2-0.1,0.3c0,0.1-0.1,0.2-0.1,0.3l-0.2,0.8c-0.2,0.6-0.3,1.3-0.5,1.9
		c-0.6,2.3-1.4,4.5-2.3,6.6c-0.5,1.1-1,2.2-1.6,3.3l-0.1,0.2l-0.1,0.2c-0.1,0.3-0.3,0.5-0.5,0.8c-0.3,0.5-0.6,1.1-0.9,1.5
		c-0.7,1-1.3,2-2,2.9c-0.7,1-1.8,1.9-2.2,3.1c-0.3,1.2-0.1,2.5,0.8,3.4c0.2,0.3,0.5,0.6,0.8,0.9l0.6,0.7c-0.1-0.1,0-0.1,0,0
		c0,0,0,0,0,0s0,0,0,0.1h0c0,0,0,0,0,0.1c0,0.1-0.1,0.1-0.1,0.2l-0.2,0.2l-0.3,0.3c-1,0.9-1.8,1.9-2.5,3.1c-1.4,2.4-2.1,5.2-1.9,8.1
		c0.1,0.9,1.2,1.6,2,1.4c0.9-0.2,1.5-1.1,1.4-2c0,0,0,0,0,0c0-0.1,0-0.3,0-0.4l0.1-1.5c0-0.1,0.1-0.3,0.1-0.4s0-0.1,0.1-0.2
		c0.1-0.5,0.3-1,0.5-1.5c0.1-0.2,0.2-0.5,0.3-0.7l0.2-0.3v-0.1l0.1-0.2c0.2-0.4,0.5-0.9,0.8-1.3l0.5-0.7h0c0,0,0,0,0-0.1l0.3-0.3
		c1-1,2-2,2-3.5c0-1.1-0.4-2.1-1.2-2.9l-0.8-0.8l-0.3-0.4l-0.1-0.1c0.3-0.5,0.8-0.9,1.1-1.4c0.8-0.9,1.4-1.9,2.1-2.9
		c5.5-8.1,7.9-17.8,8.9-27.4c0.8,10,0.9,20.1,0.2,30.2c-0.1,1.7-0.2,3.4-0.5,5.1s-0.4,2.9-1.1,4c-1.4,2.2-4.3,2.9-5.6,5.1
		c-1.3,2.3-0.3,5.1-0.4,7.6c0,2.1-0.3,4.3-0.8,6.3c-0.2,0.8-0.5,1.7-0.9,2.5c-0.1,0.3-0.3,0.6-0.6,0.8c-0.1,0.1-0.1,0.1-0.2,0.2H230
		l-0.1,0.1h-0.1c-0.8,0.2-1.3,1-1.2,1.8h-2.1c-1,0-2,0.1-2.9,0.2c-2-1.3-4.2-2.3-6.4-3.1l-2.7-1.1l-0.4-0.2l-0.5-0.2l-1.2-0.6
		l-0.6-0.4l-0.2-0.2l-0.2-0.1l-0.1-0.1l-0.2-0.2l-0.5-0.5l-0.2-0.2c0,0,0-0.1-0.1-0.1l-0.3-0.6c-0.1-0.1-0.1-0.2-0.1-0.3
		c0,0-0.1-0.2-0.1-0.2c0,0,0,0,0-0.1l-0.1-0.4c-0.1-0.2-0.1-0.5-0.2-0.8s0-0.2,0-0.4c-0.1-0.6-0.2-1.3-0.3-1.9
		c-0.2-1.2-0.9-2.2-1.8-3c-0.8-0.6-1.8-1.1-2.7-1.3l-0.6-0.1l-0.5-4.1c0-0.6-0.3-1.2-0.8-1.5c-0.6-0.3-1.2-0.3-1.8,0l-1.3,0.7
		c0.1-0.9,0.1-1.8-0.1-2.7c-0.2-1.3-1-2.4-2-3c-1.7-0.9-3.6-0.5-5.3,0.3l-0.6,0.3l-0.2,0.1c0-0.1,0-0.2,0-0.4
		c-0.1-0.5-0.1-1-0.1-1.5c0-1.1,0-2.1,0.1-3.1c0.1-2,0.2-3.9-0.1-5.9c-0.3-1.7-1-3.2-2-4.5c-1-1.3-2.4-2.2-3.7-3.1l-0.4-0.3
		c-0.1,0-0.2-0.1-0.2-0.2c-0.3-0.2-0.6-0.5-0.8-0.8l-0.1-0.2c-0.1-0.1-0.2-0.3-0.3-0.4c0,0.2,0,0,0-0.1c0,0,0-0.1,0-0.1
		c0-1-0.8-1.8-1.8-1.8s-1.8,0.8-1.8,1.8c0.1,1.6,1,3,2.1,4c0.6,0.5,1.3,1,1.9,1.5l0.7,0.5l0.3,0.2l0.1,0.1h0.1
		c0.3,0.2,0.5,0.5,0.8,0.7l0.4,0.4l0.2,0.2c0.2,0.3,0.4,0.6,0.6,0.9l0.1,0.3l0.1,0.4c0.1,0.3,0.2,0.7,0.3,1c0,0.1,0,0.2,0,0.3
		c0,0,0,0.1,0,0.1s0,0.2,0,0.4c0,1,0,1.9,0,2.9c-0.1,2-0.2,4-0.1,6.1c0.2,2,0.3,3.9,2.2,4.4c0.8,0.1,1.5,0,2.3-0.3l1.4-0.6l0.3-0.1
		l0.2-0.1h0.1l0.5-0.2l0.2-0.1h0.8c0,0,0,0,0,0c0,0,0,0,0,0h0.1c0,0,0,0,0,0.1h0l0,0h0l0.1,0.2c0,0.1,0.1,0.2,0.1,0.4
		c0,0.1,0,0,0,0.1v0c0,0.1,0,0.2,0,0.2v0c0,0.3,0,0.6,0,0.9c0,0.1,0,0.3,0,0.5v0.1c-0.2,1.1-0.4,2.1-0.6,3.1
		c-0.2,0.7,0.1,1.4,0.6,1.9c0.6,0.4,1.3,0.5,2,0.1l2.3-1.3c0.1,1.2,0.3,2.4,0.5,3.7c0.1,1.2,0.5,1.5,1.3,1.7c0.7,0.2,1.4,0,1.8-0.6
		l0.5,0.1l0.1,0.1l0.4,0.2l0.2,0.2l0.2,0.2l0.1,0.1c0,0,0.1,0.1,0.1,0.1l0.1,0.2l0.1,0.5c0.1,0.4,0.1,0.7,0.2,1.1v0.2l0.1,0.7
		l0.2,1.1c0.2,0.7,0.5,1.4,0.9,2.1c0.7,1.2,1.8,2.3,3,3c1.2,0.7,2.4,1.3,3.7,1.8l1.7,0.7l0.8,0.4l0.6,0.2l0.2,0.1l0.2,0.1
		c1.5,0.6,3.1,1.4,4.5,2.3c0.6,0.4,1.1,0.7,1.9,0.5l0.4-0.1h0.3c0.6-0.1,1.2-0.1,1.9-0.1c1.1,0,2.1,0,3.2-0.1l-1,2.3
		c-0.4,1.1,0.6,2.3,1.7,2.3c0.7-0.1,1.4-0.1,2,0h0.4l0.5,0.1c-1.9,1.4-3.3,3.3-4.2,5.5c-0.3,0.7,0.2,1.6,0.8,2
		c1.3,0.7,2.5,1.4,3.8,2.2h0v1.7c0,2.7,0,5.4,0,8.1c0,2.7,0,5.4-0.1,8.1c0,0.6,0,1.1,0,1.7c-0.1,0.1-0.1,0.1-0.1,0.2L233,175
		c-0.9,1-1.8,1.9-2.3,3.2c-0.5,1.3-0.4,2.7-0.5,4c0,0,0,0.2,0,0.3L230,183v0.1c0,0,0,0,0,0.1l-0.1,0.1c-0.2,0.1-0.4,0.4-0.5,0.5
		l-0.4,0.2c-1,0.7-2.1,1.4-2.7,2.5c-0.4,0.8-0.6,1.6-0.6,2.5c-0.7,0.1-1.3,0.6-1.5,1.3c-0.2,1,0.3,1.8,1.2,2.2
		c0.9,0.3,1.9,0.1,2.6-0.6c0.7-0.6,1.1-1.5,1.1-2.4c0-0.3,0-0.6,0.1-0.9c0-0.3,0-0.2,0-0.2v-0.1c0.1-0.1,0.1-0.2,0.1-0.2
		c0.1-0.1,0.2-0.1,0.2-0.2l0.2-0.1c0.8-0.6,1.8-1.1,2.5-1.9s1.4-2.6,1.4-4.1c0-0.5,0-1.1,0.1-1.6c0,0,0-0.2,0-0.3l0.1-0.3
		c0-0.1,0.1-0.2,0.1-0.2l0.2-0.4h0.1l0.3-0.4l0.6-0.6c0.5-0.5,0.9-1.1,1.2-1.7c0.3-0.7,0.3-1.5,0.3-2.2c0.1-5.5,0.1-11,0.1-16.6
		c0-0.9,0-1.7,0-2.6c0-0.8-0.4-1.7-1.1-2.2c-0.7-0.5-1.4-1-2.1-1.4l-0.9-0.5l0.2-0.3l0.3-0.4h0l0.1-0.1l0.7-0.7l0.7-0.6c0,0,0,0,0,0
		l0.2-0.1l0.4-0.3c0.6-0.4,1.3-0.7,1.8-1.3c0.7-0.8,0.7-1.9,0.2-2.8c-0.5-0.7-1.3-1.3-2.1-1.5c-0.8-0.2-1.7-0.4-2.5-0.5
		c0,0,0-0.1,0-0.1c0.3-0.8,0.8-1.6,0.8-2.5c0-0.6-0.3-1.1-0.7-1.5c1.4-1.4,2.1-3.6,2.5-5.5c0.7-2.9,1-5.8,0.7-8.8
		c-0.1-1-0.4-2-0.2-3s0.6-1.2,1.2-1.6c1.5-1.2,3.1-2,4.3-3.6c1.2-1.6,1.7-4,2-6.2s0.4-4.8,0.6-7.1C245.1,82,243.3,61.8,238.4,42.4z
		 M37.8,175.6C37.8,175.5,37.8,175.5,37.8,175.6C37.8,175.5,37.8,175.6,37.8,175.6z M81.6,112.1C81.7,111.8,81.7,112,81.6,112.1
		L81.6,112.1z M61.1,128.1c-0.1,0-0.1,0-0.1,0H61.1z M54.7,139.3C54.6,139.3,54.6,139.3,54.7,139.3
		C54.6,139.3,54.7,139.3,54.7,139.3z M196,115.2V115C196,115.1,196,115.2,196,115.2z M231,140.4L231,140.4
		C231,140.5,231,140.5,231,140.4z M234.6,144.4l-0.1,0.1C234.5,144.4,234.6,144.4,234.6,144.4z"/>
	<path style="stroke:#000000;stroke-width:3;stroke-linecap:round;stroke-linejoin:round;stroke-miterlimit:10;" d="M81.1,75.8
		c1.3,3.4,2.1,7,2.8,10.5c0.2,0.9,1.2,1.5,2.1,1.2c0.9-0.3,1.4-1.2,1.2-2.1c-0.6-3.2-1.3-6.4-2.4-9.4c-1.1-3.2-2.8-6.2-5.1-8.7
		c-4.1-4.6-9.6-7.7-13.7-12.3l-0.8-1l-0.1-0.1c0,0,0,0,0,0v-0.1l-0.3-0.5c-0.5-0.7-1-1.4-1.3-2.1l-0.5-1.1c0-0.1-0.1-0.2-0.1-0.3
		l-0.2-0.6c-0.3-0.8-0.5-1.6-0.6-2.4c-0.1-0.9-1.3-1.5-2.2-1.2s-1.4,1.2-1.2,2.1c0.9,6.3,5.7,11,10.5,14.8c2.4,1.9,4.9,3.8,7,6
		c0.6,0.6,1.1,1.1,1.6,1.7l0.4,0.5l0.1,0.2l0.7,1c0.5,0.7,0.9,1.4,1.2,2.1c0.2,0.3,0.3,0.6,0.5,1c0.1,0.2,0.1,0.4,0.2,0.5v0.1
		C81,75.6,81,75.7,81.1,75.8z"/>
	<path style="stroke:#000000;stroke-width:3;stroke-linecap:round;stroke-linejoin:round;stroke-miterlimit:10;" d="M182.5,68.6
		c1-1.2,1.9-2.5,2.5-3.9c0.6-1.3,1.2-2.6,1.7-3.9l0.8-2l0.2-0.3l0.2-0.4l0.5-1l1.2-1.8l0.7-0.8l0.1-0.1l0.5-0.5c1-1,2-1.9,3.2-2.7
		l0.2-0.2l0.5-0.3l1.1-0.6c0.7-0.4,1.4-0.7,2.1-1c0.2-0.1,0.4-0.1,0.6-0.2l0.2,0l1.1-0.3l2.4-0.5c1-0.1,1.5-1.1,1.4-2c0,0,0,0,0-0.1
		c-0.2-0.9-1.1-1.5-2.1-1.4c-6.1,0.9-11.6,4.2-15.2,9.2c-1.7,2.5-2.7,5.3-4,8.1l-0.5,1l-0.1,0.4l-0.2,0.5c-0.4,0.6-0.7,1.2-1.1,1.8
		l-0.4,0.5c-0.1,0.1-0.4,0.5-0.1,0.2c-0.2,0.2-0.5,0.5-0.7,0.8l-1.6,1.4c-1.3,1.2-2.6,2.4-3.3,4c-0.4,0.9-0.6,1.8-0.8,2.7l-0.7,2.9
		c-0.2,0.9,0.1,2,1.1,2.3c1,0.3,2-0.1,2.2-1.1c0.4-1.7,0.7-3.4,1.2-5l0.2-0.5l0.1-0.3c0,0,0,0,0,0c0.1-0.2,0.5-0.8,0.5-0.9
		c0,0,0.1-0.1,0.1-0.1l0.4-0.4c0.2-0.2,0.5-0.5,0.8-0.7C180.5,70.6,181.6,69.6,182.5,68.6z M198.7,49.1l-0.1,0
		C198.6,49.1,198.7,49,198.7,49.1z"/>
</g>
</svg>
