<?xml version="1.0" encoding="utf-8"?>
<!-- Generator: Adobe Illustrator 27.9.0, SVG Export Plug-In . SVG Version: 6.00 Build 0)  -->
<svg version="1.1" id="Layer_1" xmlns="http://www.w3.org/2000/svg" xmlns:xlink="http://www.w3.org/1999/xlink" x="0px" y="0px"
	 viewBox="0 0 271.8 230" style="enable-background:new 0 0 271.8 230;" xml:space="preserve">
<g>
	<path style="stroke:#000000;stroke-width:3;stroke-linecap:round;stroke-linejoin:round;stroke-miterlimit:10;" d="M102.7,126.4
		L102.7,126.4c-5.6-1.6-11.6-1.5-17.2,0.2c-1.6,0.5-3.2,1.1-4.8,1.9c-1.1,0.5-1.2,2.4,0,2.9c1.4,0.6,2.7,1.3,3.9,2.2l0.8,0.6
		l0.3,0.2c-2.8,1.1-5.4,2.6-7.8,4.3c-3,2.1-5.9,4.7-7.5,8c-0.9,1.9-1.4,4-1.1,6.1c0,0.4,0.2,0.9,0.5,1.2c0.3,0.3,0.8,0.5,1.2,0.5
		c0.8,0,1.8-0.8,1.7-1.7c-0.1-0.4-0.1-0.8-0.1-1.2v-0.5c0-0.1,0-0.2,0-0.3v-0.1c0.1-0.3,0.1-0.7,0.2-1.1c0.1-0.3,0.1-0.4,0.2-0.5
		l0.1-0.3l0.1-0.2c0,0,0-0.1,0-0.1c0-0.1,0.1-0.2,0.1-0.2c0.1-0.2,0.1-0.3,0.2-0.5c0.2-0.4,0.4-0.8,0.7-1.1l0.3-0.4l0.2-0.2
		l-0.1,0.1l0.1-0.1l0.9-1c0.5-0.6,1.2-1.2,1.8-1.7l0.9-0.8l0.2-0.1l0.7-0.5c1.5-1.1,3.1-2,4.7-2.9c0.9-0.5,1.8-0.9,2.7-1.3l0.4-0.2
		l0.7-0.3l1.6-0.5c1.2-0.4,1.7-1.9,0.8-2.9c-1.4-1.4-2.9-2.6-4.6-3.6L86,130c1.3-0.4,2.6-0.7,3.9-1l1-0.1H91l0.5-0.1l2.1-0.1
		c1.3,0,2.7,0,4,0.2l0.6,0.1c-0.3-0.1,0.1,0,0.2,0l1.1,0.2c0.8,0.1,1.5,0.3,2.3,0.5c0.9,0.2,1.9-0.3,2.1-1.2
		C104.1,127.6,103.6,126.6,102.7,126.4z"/>
	<path style="stroke:#000000;stroke-width:3;stroke-linecap:round;stroke-linejoin:round;stroke-miterlimit:10;" d="M247.1,115.2
		c-1.5-4.3-3-8.4-3.2-13s0.2-9,0.9-13.5c0.7-4.5,1.6-9.1,2.2-13.6c0.5-4.2,0.6-8.4,0.4-12.7c-0.6-8.3-2.6-16.5-6.1-24
		c-1.7-3.7-3.8-7.3-6.2-10.7c-1.2-1.7-2.5-3.5-4.4-4.3c-2-0.8-4.4,0.2-6.4,1.2c-7.4,3.8-13.1,10.3-18.3,16.7
		C194.5,55.1,184.5,70,176,85.7c-0.8,1.5-1.6,2.9-2.4,4.4c-0.6-0.1-1.2,0-1.6,0.4l-1.4,1.4c-2-0.8-4.5-0.1-6.1,1.4
		c-1.6,1.5-2.1,4.4-2,6.9l-4.1-0.6c-0.8-0.1-1.5,0.1-1.9,0.8c-0.4,0.7-0.3,1.5,0.2,2.1c0.9,0.8,1.8,1.7,2.5,2.7l0.1,0.1
		c0,0,0,0.1,0.1,0.1l0.3,0.4l0.5,0.7c0.4,0.5,0.7,1.1,1,1.6c0.3,0.5,0.6,1.1,0.8,1.7c0.1,0.1,0.1,0.2,0.1,0.3
		c0.1,0.1,0.1,0.2,0.1,0.3l0.3,0.9l0.2,0.6c-3.4-1-6.9-1.5-10.4-1.5c-2.3,0-4.5,0.2-6.8,0.6c-2.3,0.4-4.4,1.2-6.7,1.8l-0.8,0.2
		l-0.4,0.1h-1.7c-0.9-0.2-1.8-0.5-2.6-1c-1.8-1.1-3.5-2.4-5.4-3.4c-3.8-2.2-8-3.7-12.3-4.5l-1.8-0.3l-1.2-0.1h-0.3
		c-0.6-0.2-1.3-0.3-1.9-0.4l0.4-0.5l0.5-0.6l0.2-0.2c0,0,0.1-0.1,0.1-0.1l1-1.2c0.9-1.1,1.4-2.3,0.9-3.7c-0.4-1-1.3-1.6-2.4-1.9
		c-1.2-0.2-2.4-0.1-3.4,0.5l-0.6,0.4c-0.5-2.5-1.5-4.8-3.1-6.7c-0.5-0.7-1.8-0.6-2.4,0l-0.2,0.3c-5.2-5.8-8-13.1-10.3-20.4
		s-4.4-15.4-7.9-22.6c-3.6-7.4-8.7-13.9-15-19.2c-3.1-2.6-6.5-5.1-10.2-6.8c-3.7-1.7-8.9-2.7-12.6,0.4c-3.1,2.7-4.4,7.1-5.7,10.9
		c-1.5,4.3-2.7,8.6-3.7,13c-2,9-3.2,18.1-4.3,27.3c-1.1,9.1-2.1,18.2-3.6,27.2c-0.8,4.5-1.7,9.1-2.8,13.6c-1.2,4.5-2.4,8.1-2.9,12.3
		c-0.5,4.2-0.1,8.3,2.3,11.6c1.3,1.7,2.9,3,4.5,4.3c1.7,1.3,3,2.3,4.2,3.8c1.2,1.5,1.8,3.4,2.4,5.2c0.8,2.2,1.6,4.3,2.7,6.4
		c2.3,4.4,5.1,8.6,7.6,12.9c1.3,2.1,2.5,4.2,3.8,6.2c0.1,0.2,0.2,0.4,0.4,0.5c-0.1,2.1,0.1,4.2,0.5,6.3c0.2,0.7,0.9,1.2,1.6,1.2
		c0.7,0,1.5-0.5,1.6-1.2c0.2-1.1,0.4-2.1,0.8-3.1c0.1-0.3,0.2-0.5,0.3-0.8l0.1-0.2c0,0,0-0.1,0-0.1c0-0.1,0.1-0.2,0.1-0.2l0.7-1.5
		c0.3-0.4,0.5-0.9,0.9-1.4l0.5-0.7l0.1-0.2c0,0,0,0,0-0.1l0.2-0.2c0.5-0.6,1-1.2,1.6-1.7c-0.3,1.8-0.5,3.7-0.6,5.6
		c-0.1,3.4,0.3,6.8,1.1,10.1c0,0,0,0,0,0.1c-1.9,2.9-3.4,6-4.4,9.3c-0.8,2.7-1.3,5.6-1.3,8.4c0,1,0.8,1.7,1.7,1.7
		c0.9,0,1.7-0.8,1.7-1.7c0-0.6,0-1.2,0.1-1.8l0.1-0.9c0-0.1,0-0.2,0-0.3v-0.2c0.2-1.2,0.4-2.3,0.7-3.4c0.3-1.1,0.6-2.2,1.1-3.3
		l0.3-0.8L60,195l0.2-0.4c0.2-0.5,0.5-1.1,0.8-1.6c0.5-1.1,1.1-2.1,1.8-3c0.3-0.5,0.6-1,1-1.4l0.2-0.3c0,0,0.1-0.1,0.1-0.1l0.6-0.8
		c1.5-1.8,3.2-3.4,5-4.9h0l0.1-0.1l0.3-0.2l0.8-0.6l1.6-1.1c0.5-0.3,1.2-0.6,1.7-1l0.9-0.4l0.4-0.2l0.2-0.1c0.6-0.3,1.3-0.9,1.2-1.6
		c-0.2-2.4-1.4-4.6-3.4-6l0.9-0.8l0.6-0.5c0.1-0.1,0.2-0.2,0.3-0.2l-0.1,0.1l0.2-0.2c0.4-0.3,0.9-0.6,1.4-0.9l1.4-0.8l0.4-0.2
		l0.2-0.1h-0.1c0.2-0.1,0.5-0.2,0.8-0.3c1-0.4,2.1-0.6,3.1-0.8H83c0.2,0,0.1,0,0.1,0l0.3-0.1l0.9-0.1h1.9c1.5,0.1,2.3-1.9,1.2-2.9
		c-2.7-2.4-6.1-4-9.7-4.6c0.7-0.8,1.5-1.6,2.2-2.4s1.3-1.4,2-2l1-0.8l0.2-0.2l0,0l0.6-0.4c0.7-0.4,1.4-0.9,2.1-1.2H86l0.5-0.2
		l1.1-0.3l0.5-0.1h2.2l1.2,0.2c0.5,0.1,1,0.3,1.4,0.4l0.3,0.1h0.1c0.3,0.1,0.5,0.2,0.8,0.3c1.2,0.6,2.3,1.2,3.4,1.9
		c0.8,0.5,1.8,0.2,2.3-0.6l0,0c0.4-0.8,0.2-1.8-0.6-2.3c-3.4-2.2-7.4-4.1-11.6-3.6s-6.8,2.9-9.4,5.5c-1.8,1.8-3.6,3.8-5.2,5.8
		c-0.5,0.5-0.6,1.2-0.3,1.8c0.2,0.6,0.9,1.1,1.5,1.1h1.6l0.8,0.1H77c1.1,0.2,2.1,0.4,3.1,0.8l0.7,0.3h0l0.1,0.1
		c-3.1,0.7-6.1,2.2-8.5,4.3c-1.1,0.9-2.1,2-2.9,3.1c-0.3,0.5-0.3,1.1-0.1,1.5c0.2,0.5,0.6,0.9,1.1,1h0.2l0.3,0.2
		c0.2,0.1,0.5,0.3,0.7,0.4l0.1,0.1c0.1,0.1,0.2,0.2,0.3,0.3c0.1,0.1,0.2,0.1,0.2,0.2l0.2,0.2c0.1,0.1,0.1,0.1,0.2,0.2l0.2,0.3
		l0.2,0.4c0,0,0,0.1,0,0.1c0.1,0.1,0.1,0.2,0.1,0.3c-4.1,1.9-7.7,4.7-10.7,8.1c-0.1,0-0.1,0.1-0.1,0.1c0,0-0.1-0.6-0.1-1
		c0-0.1,0-0.3-0.1-0.4c0-0.2,0-0.4,0-0.6c-0.2-1.5-0.2-3-0.2-4.5c0-0.8,0.1-1.5,0.1-2.3c0.1-0.8,0.1-0.8,0.1-1.2c0-0.4,0-0.2,0-0.3
		c0-0.2,0.1-0.3,0.1-0.5c0.3-1.6,0.6-3.3,1-4.9c0.4-1.6-1.2-2.7-2.5-1.9c-2.9,1.7-5.4,4.1-7.3,7c0-0.2,0-0.3,0-0.5s0-0.2,0.1-0.2
		c0-0.2,0-0.4,0.1-0.5l0.2-1.1c0.1-0.7,0.3-1.4,0.4-2.1c0.3-1.4,0.8-2.8,1.2-4.1c1.7-5.6,3.8-11.1,6-16.6l1-2.4
		c0-0.1,0.1-0.2,0.1-0.3l0.2-0.5c0.1-0.4,0.3-0.8,0.5-1.1c0.6-1.5,1.3-3.1,2.1-4.6s0.1-2.2-1-2.5c-0.8-0.2-1.7-0.4-2.5-0.4
		c0-0.1,0-0.1,0-0.2c0.1-0.2,0.1-0.4,0.2-0.6l0.1-0.3c0,0,0-0.1,0-0.1c0.1-0.4,0.3-0.7,0.5-1c0.2-0.4,0.4-0.8,0.6-1.1l0.2-0.2
		l0.1-0.1c0.1-0.1,0.1-0.1,0.1-0.2c0.1-0.1,0.1-0.2,0.2-0.2c0.5-0.7,1.2-1.3,1.9-1.8c0.5-0.4,0.6-1.3,0.3-1.8
		c-0.2-0.6-0.9-1.1-1.5-1.1c-2.3-0.1-4.7,0.1-7,0.3c0.3-0.3,0.6-0.7,1-1.1c0.6-0.6,1.3-1.2,2.1-1.8c0.1-0.1,0.1-0.1,0.2-0.2l0.6-0.4
		l1.1-0.7l1.2-0.6l0.6-0.3l0.3-0.1c0.8-0.3,1.6-0.5,2.4-0.8c0.3,0,0.5-0.1,0.8-0.2l1.1-0.2l0.4-0.1h0l0.9-0.1
		c1.2-0.1,2.4-0.2,3.6-0.2c3.4,0,6.7,0.2,10.1,0.7c0.9,0.1,1.7-0.9,1.7-1.7s-0.8-1.6-1.7-1.7c-3.6-0.5-7.3-0.9-11-0.7l0.4-0.2
		l0.1-0.1c0.5-0.2,1.1-0.4,1.7-0.5l0.8-0.2l0.5-0.1H77c0.6-0.1,1.2-0.1,1.7-0.1h1.6c0.7,0.1,1.5-0.1,1.9-0.8
		c0.4-0.7,0.3-1.5-0.2-2.1c-2.2-2-4.7-3.7-7.3-5.2l0.4-0.3c0.9-0.5,1.8-1,2.8-1.5h0l0.4-0.2l0.8-0.2c0.5-0.2,1-0.3,1.5-0.4
		c0.5-0.1,1-0.2,1.5-0.3c0,0,0.1,0,0.2,0h0.3l0.9-0.1c1,0,1.7-0.8,1.7-1.7c0-0.3-0.1-0.6-0.2-0.9l-1.2-2.1c0.7,0,1.4,0,2.1,0.1
		l0.7,0.1l0.4,0.1h0.8l0.8,0.1c0.7,0.1,1.6-0.1,1.9-0.8c0.6-1.2,0.9-2.6,0.9-4c0.6,0.1,1.3,0.3,1.9,0.5l2.1,0.8l0.2,0.1h0.1l0.4,0.2
		l1.1,0.5c0.8,0.4,1.9,0.3,2.4-0.6c0.5-1.3,1.2-2.5,1.9-3.6c0.2-0.3,0.4-0.6,0.6-0.9l0.3-0.4h0l0.1-0.1c0.2,0.3,0.3,0.6,0.4,0.9
		c0,0,0,0,0,0.1l0,0l0,0c0.1,0.1,0,0.1,0,0v0l0.2,0.5c0.2,0.6,0.4,1.3,0.5,1.9l0.1,0.5v0.2c0,0.4,0.1,0.8,0.1,1.1
		c0,1.2,1.1,1.9,2.2,1.7c1.1-0.2,1.8-0.8,2.7-1.3l0.5-0.3l0.4-0.2c0,0,0,0,0.1-0.1h0.3c0,0-0.1,0.1-0.1,0.1l-0.4,0.5
		c-1.3,1.6-2.5,3.4-3.5,5.1c-0.3,0.3-0.5,0.6-0.6,1c-0.7,1.3-1.4,2.7-1.9,4.1c-0.8,2-1.4,4-1.9,6.1c-0.2,0.9,0.3,1.9,1.2,2.1
		c0.9,0.2,1.8-0.3,2.1-1.2c0.4-2,1.1-3.9,1.8-5.8l0.2-0.4l0.3-0.7c0.2-0.5,0.4-1,0.7-1.4c0.2-0.4,0.4-0.8,0.6-1.2l0.2-0.2h1.6
		c0.6,0.2,1.2,0.3,1.8,0.4l0.9,0.1h0.2l0.4,0.1l1.5,0.2c2.1,0.4,4.1,1,6.1,1.7l1.4,0.5h0.1l0.3,0.1l0.9,0.4c0.9,0.4,1.8,0.9,2.8,1.4
		c1.8,1,3.4,2.2,5.1,3.3c0.9,0.6,1.9,1,3,1.3c1.2,0.3,2.5,0.3,3.7,0.1c2.2-0.3,4.3-1.2,6.4-1.7c1.1-0.2,2.1-0.4,3.1-0.6h0.5l0.8-0.1
		c0.5-0.1,1.1-0.1,1.7-0.1c1.2-0.1,2.4-0.1,3.6,0l1.8,0.2c0.5,0,1,0.1,1.5,0.2c2.4,0.4,4.8,1,7,1.9c0.5,0.2,1.3,0,1.7-0.4
		c0.4-0.4,0.6-1.1,0.4-1.7c-0.7-3.8-2.3-7.4-4.6-10.5l1.6,0.2c0.6,0.1,1,0.1,1.5-0.3c0.4-0.3,0.6-0.8,0.6-1.3
		c-0.1-1.2-0.2-2.5-0.1-3.8c0-0.1,0-0.2,0-0.2v-0.3c0.1-0.3,0.1-0.6,0.2-0.9l0.1-0.3l0.1-0.3l0.2-0.4l0.5-0.4c0,0,0,0,0-0.1l0.2-0.1
		l0.3-0.2c0.1-0.1,0.4-0.2,0.1-0.1l0.6-0.2h0.3c0.1,0,0.2,0,0.3,0l0.3,0.1h0l0.1,0.1c0,0,0.1,0.1,0.1,0.1c0.7,0.6,1.7,0.6,2.4,0
		c0.2-0.2,0.4-0.4,0.6-0.6c2.3,3.6,6.9,5.4,11,4.7c0.6-0.1,1.2-0.3,1.7-0.5c0,0,0,0.1,0,0.1c0.1,0.7,0.2,1.4,0.3,2.1
		c0.1,0.8,0.1,1.5,0,2.3c0,0.4,0,0.7,0,1.1s0,0.4-0.1,0.6c0,0.2-0.1,0.6,0,0.4c-0.1,0.6,0,1.2,0.4,1.7c0.4,0.4,1.1,0.6,1.6,0.4
		c0.1-0.1,0.3-0.1,0.5-0.1c0,0,0.3,0,0.3,0c0.3,0,0.5,0,0.8,0h0.7l0.3,0.1l0.4,0.1l0.7,0.2l0.3,0.1l0.4,0.2l0.2,0.1
		c-0.9,1.2-1.7,2.5-2.6,3.7c-0.4,0.7-0.3,1.5,0.2,2.1c2.7,2.2,5.4,4.1,8.3,6l-1.9,1.1c-1.3,0.8-0.9,2.7,0.4,3.1
		c0.7,0.2,1.3,0.5,2,0.7l0.4,0.2l0.3,0.1l1,0.4c1.3,0.6,2.5,1.3,3.7,2c1.5,0.9,2.9,1.9,4.3,3c-3.4,1.9-5.4,6.2-4.4,10
		c-4,0.3-8,0.9-11.9,1.7l-5.3,1.1c-0.2,0-0.3,0.1-0.5,0.2c-1.3-0.1-2.6-0.2-3.9-0.2c-2.6,0.1-5.3,0.5-7.9,1.1
		c-0.9,0.3-1.4,1.2-1.2,2.1c0.3,0.9,1.2,1.4,2.1,1.2c1.2-0.3,2.4-0.5,3.6-0.7h0.6l0.6-0.1l1.5-0.1c1,0,1.9,0,2.9,0l1.4,0.1h0.5
		l0.7,0.1c2,0.3,3.9,0.9,5.8,1.5c0.4,0.1,0.9,0.3,1.3,0.5h0.1l0.3,0.1l0.8,0.3c0.9,0.4,1.8,0.9,2.6,1.4c0.9,0.5,1.8,1.1,2.6,1.6
		l1.1,0.8l0.5,0.4l0.1,0.1l0.4,0.3c1.5,1.2,3,2.6,4.3,4c0.7,0.8,1.4,1.5,2.1,2.3l0.5,0.6l0.2,0.2l0.1,0.2l0.9,1.2
		c1.2,1.6,2.3,3.3,3.2,5.1s2.2,4,3.1,6.1l0.2,0.5c-3.4-2.2-7.1-4-11-5.2c-1.6-0.5-3.3-0.9-5-1.2c-0.7-0.1-1.6,0.1-1.9,0.8
		c-0.4,0.7-0.3,1.5,0.2,2.1c0.9,0.9,1.8,1.8,2.6,2.8l1.2,1.5l0.1,0.1l0.3,0.3l0.6,0.8c1.5,2.1,2.8,4.3,4,6.6c0.3,0.6,0.6,1.3,1,2
		l-4.6,1c-0.6,0.2-1,0.6-1.2,1.2c-0.1,0.6,0,1.2,0.4,1.7l1.5,1.7c0.1,0.1,0.1,0.2,0.2,0.3l0.3,0.4c0.2,0.3,0.5,0.6,0.7,1
		c0.9,1.3,1.7,2.6,2.5,3.9c0.8,1.3,1.5,2.7,2.1,4.1l0.2,0.5c0,0,0,0,0,0.1c0,0.1,0,0.1,0.1,0.2c0.2,0.4,0.3,0.8,0.4,1.1
		c0.1,0.4,0.5,1.5,0.8,2.2c0.5,1.7,1,3.4,1.3,5.1c0.1,0.9,1,1.6,1.9,1.4c0.9-0.1,1.6-1,1.4-1.9c0-0.1,0-0.2-0.1-0.3
		c-1.3-6.4-3.9-12.4-7.6-17.7c-0.5-0.8-1-1.5-1.6-2.2l3.9-0.9c0.8-0.2,1.5-1.3,1.2-2.1c-1.9-4.7-4.4-9.1-7.6-13.1c1,0.3,2,0.7,3,1.1
		c0,0,0.1,0,0.1,0l0.2,0.1l0.4,0.2l1.1,0.5c0.6,0.3,1.3,0.6,2,1c1.3,0.7,2.5,1.5,3.7,2.3l1.1,0.8l0.4,0.3l0.2,0.1l0.1,0.1l1.9,1.6
		c0.5,0.5,1.4,0.7,2.1,0.3c0.6-0.4,1-1.2,0.8-1.9c-0.5-1.2-0.9-2.5-1.4-3.7c6.1-4.7,10.9-10.7,15-17.2c1.2-1.8,2.2-3.7,2.6-5.8
		c0.4-2.1-0.1-4.5-0.2-6.8c0-1.6,0.5-3.2,1.5-4.5c1-1.3,2.3-2.5,3.5-3.6c1.3-1.2,2.4-2.7,3.4-4.2c1-1.9,1.5-4,1.6-6.2
		C249.7,123.3,248.5,119.1,247.1,115.2z M97.4,95.2c-2.4-1.1-5-1.9-7.6-2.3c-0.6-0.1-1.2,0-1.7,0.4s-0.6,1.1-0.4,1.7
		c0.1,0.4,0.2,0.8,0.3,1.2v0.3c0,0.2,0,0.4,0,0.6c0,0.1,0,0.3,0,0.4c0,0,0,0.2,0,0.3l-2.4-0.3c-1.2-0.1-2.4-0.1-3.6-0.1
		c-0.9,0.1-1.6,0.4-2.1,1.2c-0.4,0.8-0.2,1.8,0.2,2.6c0.4,0.8,0.4,0.8,0.7,1.2c-3.9,0.8-7.4,2.5-10.3,5.2c-0.8,0.7-0.6,2.2,0.4,2.7
		c1.6,0.8,3.2,1.7,4.7,2.7c0.2,0.1,0.3,0.2,0.5,0.3c-1,0.2-2,0.4-2.9,0.8c-2.4,0.9-4.6,2.5-6.3,4.4c-3.6,0.9-6.8,2.7-9.4,5.2
		c-1.8,1.7-3.4,3.6-4.9,5.6c-0.4,0.5-0.2,1.4,0.1,1.9c0.4,0.5,1.1,0.8,1.8,0.6c0.9-0.2,1.8-0.4,2.7-0.5l0.6-0.1l0.3-0.1h0.1l1.4-0.2
		l1.5-0.1c-1.5,2.2-2.4,4.7-2.7,7.4c-0.1,1.1,1.2,1.9,2.2,1.6l0.4-0.1h0.8c-2.2,4.9-4.2,9.8-6,14.8c-1.1,2.8-2.1,5.7-3,8.6
		c-0.8,2.4-1.4,4.9-1.9,7.4l-5.7-9.6c-1.2-2-2.5-4-3.6-6.1c-1-1.9-1.8-3.8-2.5-5.8c-0.7-2.1-1.5-4.2-2.8-6c-1.3-1.8-2.7-2.9-4.3-4.2
		c-1.6-1.2-2.9-2.2-4.1-3.5c-1.1-1.3-1.8-2.9-2.2-4.6c-0.8-3.7,0.2-7.7,1.2-11.3c1-3.6,2.3-8.3,3.1-12.5c1.8-8.9,3-17.9,4-26.8
		c1.1-9,2.1-17.8,3.6-26.5c0.8-4.4,1.7-8.8,2.9-13.2c1.2-4.4,2.4-8.4,4.1-12.3c0.6-1.6,1.5-3.2,2.7-4.4c1.3-1.1,3-1.6,4.7-1.4
		c1.9,0.2,3.8,1,5.4,1.9c1.7,1,3.4,2,5,3.2C69,32,74.3,37.9,78.2,44.6c7.8,13.4,8.6,29.9,17.3,42.9c1.1,1.6,2.3,3.1,3.6,4.6l0.1,0.1
		C98.5,93.2,97.9,94.2,97.4,95.2z M200.9,146.6c-0.6,0.4-0.9,1.2-0.8,1.9c-1.9-1.1-3.9-2.1-5.9-2.8l2.8-0.5l2.3-0.4h0.3l0.6-0.1
		l1.2-0.1l2.7-0.2C203,145,202,145.8,200.9,146.6z M244.5,132.6c-1.7,2.8-4.7,4.7-6.6,7.4c-1.1,1.5-1.7,3.4-1.8,5.3
		c-0.1,2.1,0.5,4.2,0.3,6.3c-0.2,2.1-1.2,3.8-2.3,5.4c-1,1.6-2.3,3.3-3.4,5c-2.1,2.9-4.5,5.7-7.1,8.2c-1,0.9-1.9,1.7-3,2.5
		c-2.5-5.5-5.7-10.8-9.7-15.4c-2.5-2.9-5.5-5.5-8.7-7.6h0.1l1-0.2h0.8c0.7-0.1,1.3-0.1,2-0.1l2,0.1h0.6l1.1,0.2
		c1.2,0.2,2.3,0.6,3.4,1c-0.2,0.1-0.4,0.3-0.5,0.5c-0.6,0.7-0.6,1.7-0.2,2.5c0.4,0.7,1,1,1.7,1.3l1.6,0.7l3.4,1.4
		c0.8,0.3,1.9-0.4,2.1-1.2c0.2-0.8-0.3-1.7-1.2-2.1l-2.1-0.9c1,0,1.7-0.9,1.6-1.8c0-0.6-0.3-1.1-0.9-1.4c-3.2-2.1-6.8-3.4-10.6-3.8
		l1.5-0.8l1.2-0.5l0.3-0.1h0l0.7-0.3c0.8-0.2,1.3-1,1.2-1.9c-0.1-0.8-0.8-1.5-1.7-1.5c-1.2-0.1-2.4-0.1-3.6-0.1l-0.2-0.3
		c-0.1-0.3-0.2-0.5-0.2-0.8c0,0,0-0.1-0.1-0.1v-0.1c0-0.1,0-0.2,0-0.2c0-0.2,0-0.5,0-0.7c0-0.1,0-0.3,0-0.4l0.2-0.8
		c0-0.2,0.1-0.4,0.2-0.5l0.1-0.2l0.2-0.4c0.1-0.2,0.3-0.5,0.4-0.7l0.1-0.2l0.1-0.2l0.5-0.5l0.3-0.3l0.1-0.1l0.7-0.4l0.2-0.1
		c-0.1,0.1,0.1,0,0.2-0.1l0.7-0.2h0.5c1.4,0,2.3-1.9,1.2-2.9c-3.5-3.4-7.5-6.1-11.9-8l1.4-0.8c0.8-0.5,1.1-1.6,0.6-2.4
		c-0.1-0.2-0.3-0.4-0.6-0.6c-1.8-1-3.6-2.2-5.3-3.4c-1.7-1.2-2.6-1.8-3.8-2.7l2.6-3.8c0.4-0.7,0.3-1.5-0.3-2.1
		c-1.8-1.8-4.2-2.8-6.8-2.8c0.1-2.8-0.2-5.5-0.9-8.2c-0.3-1-1.6-1.7-2.5-1c-0.3,0.2-0.5,0.4-0.8,0.5l-0.4,0.2l-0.2,0.1l-0.9,0.3
		l-0.5,0.1h-0.1c-0.6,0-1.3,0-1.9,0h-0.2l-0.5-0.1l-0.9-0.2l-0.4-0.2h-0.2l-0.9-0.4c-0.2-0.1-0.5-0.3-0.7-0.4l-0.3-0.2l-0.4-0.3
		l-0.6-0.7h0c0,0,0,0,0-0.1c8-15.5,17.3-30.2,27.9-43.9c4.9-6.4,10-13,16.3-18.1c1.5-1.2,3.1-2.3,4.8-3.2c1.3-0.7,3.2-2,4.7-1.3
		c0.7,0.4,1.2,1.1,1.7,1.7c0.5,0.6,1.2,1.6,1.7,2.5c1.1,1.7,2.2,3.4,3.2,5.2c3.8,6.9,6.3,14.5,7.3,22.3c0.5,3.9,0.7,7.7,0.5,11.6
		c-0.2,4.4-1,8.8-1.7,13.1c-1.5,8.8-3,17.8-0.7,26.5c1.1,4.2,3,8.1,4,12.3C246.3,125.4,246.4,129.4,244.5,132.6z"/>
</g>
</svg>
