<?xml version="1.0" encoding="utf-8"?>
<!-- Generator: Adobe Illustrator 27.9.0, SVG Export Plug-In . SVG Version: 6.00 Build 0)  -->
<svg version="1.1" id="Layer_1" xmlns="http://www.w3.org/2000/svg" xmlns:xlink="http://www.w3.org/1999/xlink" x="0px" y="0px"
	 viewBox="0 0 330.5 209.1" style="enable-background:new 0 0 330.5 209.1;" xml:space="preserve">
<g>
	<path style="stroke:#000000;stroke-width:3;stroke-linecap:round;stroke-linejoin:round;stroke-miterlimit:10;" d="M311.3,82.2
		c-3.4-8.6-13-9.9-20.8-11.9c-4.4-1.2-8.9-2.5-13-4.5c-4.1-2-7.8-4.6-10.9-7.9c-3.4-3.5-6.5-7.3-9.6-11l-10.3-12.2
		c-2.9-3.5-5.9-6.9-9.6-9.6c-3.4-2.5-7.3-4.2-11.4-5.2c-8-2-16-1-23.8,1.4c-1.8,0.5-3.6,1.1-5.3,1.9c-1.7,0.7-2.7,1.2-3.4,2.8
		s-0.6,2.9-2.2,3.4s-3.7,0.2-5.4,1.2s-2,3.6-1.9,5.3c0.1,2,0.7,4,1.7,5.7c2.1,3.9,5.6,6.5,7.9,10.2c0.7,1.3,1.4,2.6,1.4,4.1
		c-15.4-1.7-30.9-1.6-46.4-0.9c-7.7,0.3-15.5,1.3-23,3.1c-1.8,0.5-3.7,0.7-5.5,0.8c-0.5,0-0.9,0-1.4,0c0.1-0.1,0.1-0.1,0.1-0.2
		c0.7-0.7,1.3-1.7,2-2.5c2.3-3,4.5-6.1,6.5-9.4c1.7-2.7,5.2-7.5,2.4-10.6c-1.1-1.1-2.6-1.5-4.1-1.2c-1-1.4-2.5-2.3-4.1-3
		c-2.5-1-5.7-1.9-8.4-1.4c-1.5,0.3-2.8,1.1-4.4,1.1s-3.3-0.6-5-0.8c-3.3-0.5-6.4,0.2-9.4,1.6c-3,1.4-6,3.4-9,5.2
		c-2.9,1.8-6,3.5-8.7,5.6s-4.9,4.9-7.1,7.6s-4.2,5.5-6.5,8.1c-4.2,5.1-8.9,10-14.5,13.6c-2.5,1.7-5.2,3-8.1,4c-2.8,1-5.7,1.4-8.6,2
		c-5.3,1-10.9,2.7-13.4,8c-2.5,5.2-0.9,12,2,17.1c1.8,3.2,4.1,6.2,6,9.5c1.9,3.4,3.3,7,4.1,10.8c0.5,2.6,1.4,6.4,4.7,6.5
		c0.7,0,1.4-0.1,2.1-0.5c0.9,2,2,3.8,3.4,5.4c2.1,2.4,4.7,3.7,7.4,5.2c2.7,1.5,4.2,3.6,4.3,6.8c0.1,3.1-1,6.2-2.1,9.1
		c-0.5,1.2,1,2.6,2.2,2.2c3-1,5.7-2.4,8.2-4.2c-0.2,3.3,0.2,6.6,1.3,9.7c0.5,1.5,2.5,1.8,3.3,0.4c0.8-1.4,1.4-2.3,2.1-3.4
		c0.1-0.2,0.2-0.4,0.3-0.5l0.1,0.6c0,0.1,0,0.2,0,0.3c0,0.1,0,0.2,0,0.3c0.1,1.1,0.2,2.3,0.1,3.4c-0.1,4.7-1.1,9.4-0.4,14.1
		c0.2,1.2,0.5,2.5,0.9,3.7c0.2,0.6,0.5,1.2,0.7,1.8s0.1,0.3,0.1,0.5c0,0.2,0,0.5,0,0.1v0.5c0,0.1,0,0.2-0.1,0.2
		c-0.3,0.9,0.1,2,1.1,2.3c0.9,0.3,2-0.1,2.3-1.1c0-0.1,0.1-0.2,0.1-0.2c0.5-1.5,0-3-0.5-4.4c-0.5-1.1-0.9-2.3-1.1-3.5
		c0-0.1,0-0.3-0.1-0.4V179l-0.1-0.9c0-0.6,0-1.2,0-1.9c0-1.3,0.1-2.6,0.2-3.9c0.2-2.5,0.5-5,0.5-7.5c0-1.4-0.1-2.8-0.4-4.2
		c-0.2-1.2-0.7-2.6-1.9-3.2c-0.9-0.5-2-0.5-3,0c-0.7,0.4-1.2,1-1.7,1.6l-0.2,0.4c0-0.1,0-0.2,0-0.2c0-0.1,0-0.1,0-0.2
		c0-0.1,0-0.2,0-0.3s0-0.5-0.1-0.8c-0.1-1-0.1-2,0-3c0-0.5,0-1,0.1-1.5c0-0.1,0-0.2,0-0.2c0-0.1,0-0.2,0-0.3c0-0.2,0.1-0.5,0.1-0.8
		c0-0.2,0-0.4,0-0.6c2.3-2.2,4.3-4.8,5.9-7.6c4.8-8,6.8-17.3,8.3-26.4c1.6-10.1,3.1-20.3,4.6-30.5c1.4-9.4,2.9-19.1,6.9-27.9
		c3.7-8.2,9.9-15.9,18.4-19.5c2.1-0.9,1.2-4.3-1-3.4c-17,7-23.6,25.2-26.6,41.9c-1.8,10-3.1,20.2-4.6,30.3
		c-1.4,9.5-2.6,19.4-6.5,28.4c-3.1,7.1-8.2,13.9-15.2,17.4c1.4-5.1,1.8-10.9-2.5-14.5c-2.5-2.1-5.8-3-8.1-5.3s-3.6-5-4.9-7.8
		c-0.1-0.4-0.2-0.8-0.5-1.1c-0.6-0.8-1.7-1-2.5-0.4c-0.6,0.5-0.9,1.3-0.6,2l-0.1,0.1c-0.4-0.1-0.2,0.2-0.6-0.2
		c-0.4-0.4-0.9-2.2-1.1-3.2c-0.6-2.9-1.4-5.7-2.6-8.4c-2.4-5.5-6.4-10-9-15.3c-2-4.3-2.9-10.4,0.8-14.1s8.9-3.5,13.2-4.4
		c11.1-2.2,20-9.5,27.2-17.9c4-4.6,7.5-9.7,11.5-14.3c4-4.6,10-7.5,15.2-10.7c2.7-1.7,5.6-3.6,8.7-4.2s6.2,0.8,9.4,0.8
		c1.6,0,3-0.5,4.4-1c1.5-0.5,2.9-0.1,4.4,0.2c2.2,0.5,5.1,1.3,5.9,3.7c0.5,1.6,2.8,1.7,3.4,0.2c-0.1,0.2-0.2-0.4,0-0.1l0.1,0.1
		c0.3,0.4,0.4,0.1,0.4,0.9c-0.1,1.7-1.7,3.7-2.6,5.2c-1.9,3.1-3.9,6-6.1,8.9c-1.5,2-5.2,5.3-2.7,7.9c1.1,1.1,2.9,1.2,4.4,1.1
		c2-0.1,4-0.3,6-0.8c3.6-0.9,7.1-1.7,10.8-2.2c3.7-0.5,7.3-0.7,11-0.9c7.6-0.4,15.2-0.6,22.8-0.5c8.7,0.1,17.4,0.6,26,1.6
		c0.7,0.1,1.6-0.6,1.7-1.3c1.1-5.1-2-9.4-5.3-13c-2.6-2.9-7-7.5-5-11.7c2.6-0.7,5.7-0.4,7.4-3c0.6-1,0.7-2.4,1.4-3.3
		c0.6-0.9,2.2-1.2,3.2-1.5c6.1-2.1,12.4-3.7,18.9-3.4c6.5,0.4,13.7,2.9,19,7.6c3,2.7,5.5,5.9,8,8.9s5.7,6.8,8.6,10.2
		c5,5.9,9.8,12.2,16.2,16.7c6.5,4.4,13.6,6.4,20.8,8.2c6.6,1.7,14.8,2.8,17.1,10.4c2,6.7,1.1,14.2-1.2,20.7
		c-5,13.9-17.8,23.5-32.2,25.7c0.8-1.2,1.5-2.5,2.4-3.7c4.2-6.2,9.4-11.8,14.3-17.6c2.6-3,5.1-6,7.4-9.2c2.3-3.2,4.5-6.4,5.3-10.1
		c0.4-1.9,0.3-3.9-0.2-5.8c-0.3-0.9-1.2-1.5-2.2-1.2c-0.9,0.3-1.6,1.2-1.2,2.2c0.5,1.5,0.5,3.1,0,4.7c-0.5,1.7-1.2,3.4-2.2,4.9
		c-2,3.2-4.2,6-6.6,8.8c-4.9,5.9-10.2,11.6-14.8,17.7c-2.2,3-4.3,6.1-6.2,9.3c-1,1.6-2,3.2-3.1,4.7c-0.5,0.6-0.9,1.2-1.6,1.9
		c-0.6,0.7-1.2,1.3-1.9,1.9c-2.5,2.2-5.4,4.2-7,7.3c-0.4,0.7-0.7,1.5-1,2.4c-0.1,0.1-0.1,0.2-0.1,0.4l-0.2,0.3
		c-0.1,0.2-0.1,0.4-0.2,0.5l-0.1,0.2v0.1h0l-0.3,0.3L255,151H255l-0.2,0.1h-0.5L254,151l-0.6-0.2l-0.2-0.1l-0.6-0.4
		c-0.3-0.2-0.6-0.4-0.9-0.7l-1-0.9l-0.9-1l-0.7-0.9l-3.5-4.7c-2.3-3.2-4.6-6.4-6.7-9.7c-4.2-6.6-7.7-13.5-9.6-21.2
		c-0.9-3.6-1.3-7.4-1.1-11.2c0.1-4.1,0.9-8,1.6-12c0.7-4,1.4-8.3,1.4-12.5c0.1-4.1-0.2-8.3-1-12.4c-1.4-7.2-4-14.4-8.8-20
		s-11.5-8.7-18.5-7.9c-1.8,0.2-3.5,0.7-5.1,1.4c-0.9,0.4-1.1,1.7-0.6,2.5c0.5,0.8,1.5,1,2.4,0.6l0.1-0.1l0.2-0.1l0.6-0.2l1.2-0.3
		l1.2-0.2h1c0.8-0.1,1.6-0.1,2.4,0l0.6,0.1h0.3l1.3,0.3c0.8,0.2,1.6,0.4,2.4,0.7l0.6,0.2h0l0.3,0.1c0.4,0.1,0.7,0.3,1.1,0.5
		c0.7,0.4,1.5,0.8,2.2,1.3l0.5,0.4h0.1c0,0.1,0.1,0.1,0.2,0.1l1,0.8c0.6,0.6,1.3,1.2,1.9,1.9l0.8,0.9l0.2,0.3l0.4,0.5
		c1,1.4,1.9,2.9,2.7,4.5l0.6,1.1c0.1,0.2,0.2,0.4,0.2,0.6l0.1,0.2h0c0.4,0.9,0.7,1.7,1,2.5c0.6,1.8,1.1,3.6,1.5,5.4
		c0.9,3.9,1.4,7.9,1.4,11.9c0,4.1-0.4,8.1-1.1,12.1c-0.2,1.4-0.5,2.7-0.7,4.1l-0.4-0.1h-0.1l-0.3-0.2l-0.7-0.4l-0.6-0.4
		c0,0-0.1-0.1-0.1-0.1l-0.2-0.2c-0.4-0.4-0.8-0.7-1.2-1.2c-0.1-0.1-0.2-0.2-0.2-0.3c0,0,0,0,0,0l-0.5-0.7l-0.4-0.7l-0.2-0.3
		c0-0.1,0-0.1,0-0.1c-0.2-0.7-0.4-1.5-1-2c-0.6-0.5-1.2-0.9-1.8-1.3c-0.7-0.4-1.6-0.8-2.4-1.1c0.1-0.3,0.2-0.6,0.4-0.9
		c0.4-0.9,0.9-1.8,1.4-2.7c0.5-0.9,0.2-2-0.6-2.5c-6.4-3.1-13.6-4-20.7-3c-6.5,0.9-12.6,3.6-17.9,7.5c-3,2.2-5.7,4.7-8.1,7.5
		c-0.6,0.7-0.7,1.9,0,2.5c0.7,0.7,1.9,0.7,2.5,0c2-2.3,4.2-4.4,6.6-6.3l0.2-0.2l0.4-0.3l1-0.7l1.9-1.2c1.3-0.8,2.6-1.5,4-2.2
		l1.1-0.5l0.2-0.1l0.6-0.2c0.7-0.3,1.5-0.6,2.2-0.8c1.5-0.5,3.1-0.9,4.7-1.2l1.1-0.2l0.4-0.1l0.6-0.1l2.5-0.2c1.6-0.1,3.3,0,5,0.1
		l0.7,0.1h0.3l1.4,0.2c0.9,0.1,1.8,0.4,2.7,0.6s1.8,0.5,2.6,0.9l0.6,0.2l0.1,0.1c-0.7,1.4-1.4,2.9-2,4.4c-0.3,0.8,0.4,2.1,1.2,2.2
		c0.5,0.1,1,0.2,1.5,0.3l0.6,0.2l0.4,0.1h0c0.4,0.2,0.9,0.4,1.2,0.7l0.6,0.4l0.1,0.1c1.3,3.8,4.3,6.8,8.1,8c-0.2,1.6-0.5,3.3-0.6,5
		c-0.2,3.2-0.1,6.5,0.4,9.7c-0.5-0.2-0.9-0.4-1.4-0.5c-1.7-0.5-3.6-0.8-5.5-0.7c-0.9,0.1-1.8,0.8-1.8,1.8c0,1,0.8,1.9,1.8,1.8
		c0.8,0,1.6,0,2.5,0.1l0.2,0.1c0.2,0,0.4,0.1,0.6,0.1c0.4,0.1,0.8,0.2,1.2,0.3l1.1,0.4h0l0.2,0.1l0.5,0.2l0.2,0.1l0.5,0.3l0.4,0.2
		l0.2,0.1c1.7,7,4.9,13.6,8.6,19.7c2.1,3.4,4.4,6.7,6.7,10c1.2,1.6,2.4,3.2,3.6,4.9s2.3,3.2,3.7,4.6c0.4,0.4,0.9,0.9,1.4,1.2
		c-1,5-1.6,10-1.7,15.1c-0.6-0.3-1.3-0.4-2-0.5c-1.4,0-2.5,1.1-2.5,2.4c0,0.1,0,0.2,0,0.3c0.1,1,0.3,2,0.6,2.9
		c0.8,3.6,2,7.1,3.6,10.4c0.3,0.6,0.6,1.2,0.9,1.9c-1-0.1-2,0-3,0.2c-0.9,0.2-1.5,1.2-1.2,2.2c0.3,0.9,1.2,1.5,2.2,1.2l0.4-0.1h0.7
		c0.5,0,1,0,1.5,0l0.4,0.1l0.7,0.1l0.7,0.2l0.3,0.1c0,0,0.1,0,0.1,0h0.1c0.7,0.4,1.6,0.2,2.2-0.3c0.6-0.6,0.7-1.5,0.3-2.2
		c-0.8-1.3-1.6-2.7-2.3-4.1c-0.4-0.7-0.7-1.4-1-2.2c-0.1-0.1-0.1-0.2-0.2-0.4c0-0.1-0.1-0.2-0.1-0.3l-0.4-1.1
		c-0.6-1.5-1.1-3-1.5-4.5c-0.2-0.9-0.5-1.9-0.7-2.9l0.4,0.2l0.2,0.1l0.1,0.1c0.2,0.1,0.3,0.3,0.5,0.5c0.7,0.7,1.8,0.7,2.5,0
		c0.3-0.3,0.5-0.8,0.5-1.2c0-3.1,0.1-6.2,0.4-9.2c0.1-0.8,0.1-1.6,0.2-2.4c0-0.2,0-0.3,0.1-0.5v-0.2c0.1-0.4,0.1-0.8,0.2-1.2
		c0.2-1.1,0.4-2.1,0.6-3.2h0.2c2.1,0.4,4.2-0.5,5.3-2.3c0.4-0.7,0.8-1.5,1.1-2.4c0-0.2,0.1-0.3,0.2-0.5c0-0.1,0-0.1,0.1-0.2l0.6-1.1
		l0.4-0.5c0.1-0.1,0.1-0.2,0.2-0.3l0.7-0.9c0.6-0.6,1.2-1.2,1.8-1.7c1.2-1.1,2.6-2.1,3.8-3.3c1.3-1.4,2.5-2.9,3.6-4.4l1.3-1.9
		c16.6-1.6,31.5-11.9,37.6-27.6c1.5-3.9,2.5-8.1,2.7-12.3C313.1,90.8,312.8,86.2,311.3,82.2z"/>
	<path style="stroke:#000000;stroke-width:3;stroke-linecap:round;stroke-linejoin:round;stroke-miterlimit:10;" d="M144.5,85.7
		c-5.5-3-11.3-5.3-17.4-6.6c-6.1-1.4-12.3-1.8-18.5-1.5c-3.5,0.2-7.1,0.7-10.5,1.6c-1.5,0.3-1.8,2.6-0.4,3.2c1.4,0.7,2,1.1,3,1.7
		l1.4,0.9l0.7,0.5l0.4,0.2c0.1,0.1,0.5,0.3,0.1,0.1l0.2,0.2c0,0,0,0,0,0c-0.1,0.1-0.3,0.2-0.5,0.3c-0.2,0.1-0.4,0.2-0.5,0.3l0.2-0.1
		l-0.2,0.1l-0.3,0.1c-3.9,1.2-7.6,3.1-11,5.6c-1.7,1.2-3.3,2.6-4.8,4.1c-0.7,0.7-1.4,1.4-2,2.2c-0.4,0.4-0.7,0.9-0.7,1.5
		c0.1,1,0.6,1.8,1.5,2.2c0.7,0.4,1.6,0.6,2.5,0.5h1.7c0,0,0,0,0-0.1c0,0,0.1,0.1,0.1,0.1v0.2c0,0.1,0,0.2-0.1,0.3l-0.2,0.6l-0.1,0.3
		l-0.4,0.9c-2.6,4.9-5.2,9.7-7.8,14.6c-0.4,0.7-0.3,1.6,0.3,2.1c0.6,0.6,1.4,0.6,2.1,0.3l4-1.7c-0.4,1.9-0.7,3.8-1.1,5.7
		c-0.2,0.9,0.3,2,1.2,2.2c1,0.2,2-0.2,2.2-1.2c0.6-3,1.2-6.1,1.7-9.1c0.2-0.7-0.1-1.4-0.6-1.9c-0.6-0.5-1.3-0.5-2-0.1l-2.4,1l4-7.4
		l1.6-3c0.5-0.8,0.8-1.7,1-2.6c0.2-1.2,0-2.5-0.9-3.5c-0.6-0.6-1.4-1-2.2-1.1l-1.4-0.1c1-1,2-2,3.1-2.9l0.7-0.5h0
		c0.1-0.1,0.2-0.2,0.3-0.2l1.5-1.1c0.9-0.6,1.9-1.2,2.9-1.7c1-0.5,2.1-1.1,3.1-1.5l0.2-0.1l0.2-0.1l0.7-0.3l1.7-0.6
		c1.1-0.3,2.2-0.9,3-1.7c1.1-1,1.4-2.6,0.7-3.9c-0.4-0.7-1-1.3-1.7-1.8c-0.5-0.4-1-0.7-1.5-1l1-0.1h0.2l0.6-0.1
		c0.7-0.1,1.5-0.2,2.3-0.2c3-0.2,6-0.3,8.9-0.1c1.5,0.1,2.9,0.2,4.4,0.4h0.3l0.5,0.1l1.1,0.2c0.7,0.1,1.5,0.2,2.2,0.4
		c3,0.6,5.9,1.4,8.7,2.4l2.3,0.9l0.6,0.2h0.1L137,86l1.1,0.5c1.5,0.7,3.1,1.5,4.6,2.3c0.9,0.5,1.9,0.2,2.4-0.6
		C145.6,87.3,145.3,86.2,144.5,85.7z"/>
</g>
</svg>
