<?xml version="1.0" encoding="utf-8"?>
<!-- Generator: Adobe Illustrator 27.9.0, SVG Export Plug-In . SVG Version: 6.00 Build 0)  -->
<svg version="1.1" id="Layer_1" xmlns="http://www.w3.org/2000/svg" xmlns:xlink="http://www.w3.org/1999/xlink" x="0px" y="0px"
	 viewBox="0 0 333.1 246.7" style="enable-background:new 0 0 333.1 246.7;" xml:space="preserve">
<g>
	<path style="stroke:#000000;stroke-width:3;stroke-linecap:round;stroke-linejoin:round;stroke-miterlimit:10;" d="M176.5,64.9
		c-3.1,1.1-5.5,3.3-7.9,5.3l-0.8,0.7c0,0,0,0,0,0l-0.2,0.1l-0.5,0.4c-0.6,0.5-1.2,0.9-2,1.2c-0.2,0.1-0.3,0.2-0.5,0.2l-0.2,0.1
		l-1.2,0.4l-1.1,0.2h-0.3l-0.6,0.1h-2.6l2.7-4.4c1.3-2.1,2.4-4.3,2.7-6.8c0.4-4.6-2.2-8.9-5.7-11.7c-2.1-1.6-4.5-2.9-7-3.8
		c-1.3-0.5-2.9,1.1-2.4,2.4c0.2,0.6,0.4,1.2,0.6,1.8c0,0.3,0.1,0.6,0.2,0.9c-0.2-0.5,0,0,0,0.2c0,0.1,0,0.3,0,0.4c0,0.6,0,1.3,0,1.9
		c0,0,0,0.1,0,0.2c0,0.1,0,0.3-0.1,0.4c0,0.3-0.1,0.6-0.2,0.9s-0.2,0.6-0.3,0.9c0,0.1-0.1,0.3-0.2,0.4c0,0,0,0.1,0,0.2
		c0,0.1-0.6,1.1-0.9,1.7l-0.2,0.3l-0.1,0.2c-0.2,0.3-0.4,0.5-0.6,0.7l-0.6,0.6l-0.4,0.4l-0.2,0.2h0c-0.8,0.6-1.3,1.7-0.7,2.7
		c0.6,0.9,1.8,1.4,2.7,0.7c3.9-2.9,6.1-7.6,5.7-12.5c0.5,0.4,1.1,0.7,1.6,1.1c0.1,0,0.2,0.1,0.3,0.2l0.2,0.2c0,0,0.1,0,0.1,0.1
		l0.3,0.2c0.4,0.3,0.7,0.7,1.1,1.1l0.8,0.9c0,0,0.2,0.4,0.3,0.4l0.5,0.7c0.2,0.4,0.4,0.8,0.6,1.2l0.1,0.3l0.2,0.7
		c0.1,0.2,0.1,0.4,0.2,0.7c0,0.1,0.1,0.3,0.1,0.4c0,0,0,0.1,0,0.1c0,0.4,0.1,0.9,0,1.3v0.5c0,0,0,0.1,0,0.1c0,0.1,0,0.3-0.1,0.4
		c-0.1,0.5-0.3,1-0.5,1.4v0.1c0,0.1-0.1,0.2-0.2,0.3c-0.1,0.3-0.2,0.5-0.4,0.8c-0.2,0.5-0.5,0.9-0.8,1.4c-1.4,2.3-2.8,4.6-4.2,6.9
		c-0.7,1.2,0,2.5,1.2,2.9c3.4,1.2,7.1,1.2,10.5,0c1.6-0.6,3.2-1.5,4.6-2.6c0.8-0.7,1.6-1.3,2.4-2l-1.1,1.2c-2,2-4,4.1-5.9,6.1
		c-3.9,4.2-7.7,8.6-10.3,13.6c-1.6,2.8-2.7,5.9-3.4,9c-0.2,1.1,0.5,2.1,1.6,2.2c0.9,0.2,1.8-0.4,2.1-1.2c0.3-1.4,0.7-2.7,1.2-4
		l0.4-0.9l0.1-0.3v-0.1l0.2-0.4c0.3-0.6,0.6-1.2,0.9-1.8c0.3-0.6,1.4-2.4,2.1-3.6l1.2-1.7l0.6-0.9c0.1-0.1,0.2-0.2,0.3-0.4
		c0.1,0,0.2-0.2,0.2-0.3c3.5-4.5,7.6-8.5,11.6-12.7c2.5-2.6,5.5-5.6,4.7-9.6C178.6,65.2,177.5,64.6,176.5,64.9z"/>
	<path style="stroke:#000000;stroke-width:3;stroke-linecap:round;stroke-linejoin:round;stroke-miterlimit:10;" d="M136.8,87.4
		L136.8,87.4l0-0.1C136.6,87,136.8,87.4,136.8,87.4z"/>
	<path style="stroke:#000000;stroke-width:3;stroke-linecap:round;stroke-linejoin:round;stroke-miterlimit:10;" d="M133.9,76.8
		c-1.4-1.3-3-2.4-4.6-3.3c-0.9-0.5-2.2-0.2-2.7,0.7c-0.5,0.9-0.2,2.2,0.7,2.7c0.7,0.4,1.3,0.7,2,1.2l0.9,0.6h0.1l0.1,0.1l0.4,0.4
		c1.2,1,2.2,2.1,3.2,3.3h0c0,0,0,0,0,0.1l0.4,0.5l0.7,0.9c0.4,0.7,0.8,1.3,1.1,2l0.5,1c0,0,0.2,0.4,0.2,0.5l0.1,0.2
		c0.3,0.7,0.5,1.4,0.7,2.1l0.2,0.9c-1.4-0.6-2.9-0.9-4.5-1c-1.7-0.1-2.5,2.2-1.4,3.4c0.4,0.4,0.7,0.8,1.1,1.2h0c0,0,0,0,0,0.1
		l0.2,0.3c0.2,0.2,0.4,0.5,0.5,0.7c0.3,0.5,0.5,0.9,0.8,1.4l0.4,0.7c0,0,0,0,0,0l0.2,0.5c0.4,0.9,1.4,1.7,2.4,1.4s1.7-1.4,1.4-2.4
		s-0.4-1.1-0.7-1.6l0.2,0.1h0.1l0.4,0.3c0.8,0.7,2,0.7,2.8,0c0.4-0.4,0.5-0.8,0.5-1.3C141.9,87.6,138.9,81.3,133.9,76.8z"/>
	<path style="stroke:#000000;stroke-width:3;stroke-linecap:round;stroke-linejoin:round;stroke-miterlimit:10;" d="M236.2,111.7
		v0.1l0,0l-9.8-5.9c1.6-0.4,3.2-0.8,4.8-1.1c1.5-0.2,1.9-2.3,0.9-3.3c-4.1-3.8-9.6-5-15-5.7c0.1-0.2,0.2-0.4,0.4-0.6l0.2-0.2
		l0.2-0.2l0.6-0.7l1.4-1.4c0.9-0.9,1.8-1.7,2.8-2.4l0.4-0.3l0.1-0.1l0.8-0.5l1.6-1.2c0.8-0.6,1.2-1.5,0.8-2.4
		c-0.4-0.9-1.3-1.3-2.3-1.1c-5.2,0.9-10.3,2.7-15,5.1c-4.7,2.5-9,5.7-12.7,9.4c-2.1,2.2-4.1,4.5-5.8,7c-0.5,0.9-0.2,2.1,0.7,2.6l0,0
		c0.9,0.5,2.1,0.2,2.7-0.7l1.1-1.5l0.3-0.4c0,0,0.1-0.1,0.1-0.1s0.4-0.5,0.6-0.7c0.8-1,1.6-2,2.5-2.9c0.9-0.9,1.8-1.8,2.7-2.7
		l1.4-1.2l0.7-0.6l0.4-0.3c0.1-0.1,0.4-0.4,0.2-0.1c0.9-0.9,2.1-1.5,3.1-2.2c1-0.7,2.2-1.4,3.3-2c1.1-0.6,2.2-1.2,3.4-1.7l0.8-0.4
		c0,0,0,0,0,0h0l0.5-0.2l1.3-0.5c-1.6,1.7-3,3.6-3.9,5.8c-0.3,0.7-0.4,1.3,0,2c0.4,0.6,1,0.9,1.7,1l2.2,0.2l1.2,0.1h0.1l0.6,0.1
		c1.4,0.2,2.9,0.5,4.3,0.9l2,0.6l0.6,0.2h0.2l0.7,0.4l-0.4,0.1c-1.6,0.5-3.9,1-4.3,2.9c-0.3,1.3,0.4,2.4,1.4,3.1
		c1,0.7,1.5,0.9,2.2,1.3l4.4,2.7l5.1,3.1c0.9,0.5,2.1,0.2,2.7-0.7C237.5,113.5,237.2,112.3,236.2,111.7z"/>
	<path style="stroke:#000000;stroke-width:3;stroke-linecap:round;stroke-linejoin:round;stroke-miterlimit:10;" d="M320.7,148.9
		c-2.4-10.7-7.1-20.9-13.8-29.6c-1.4-1.9-3-3.7-4.6-5.5l0.3-0.2c0.9-0.7,1.2-1.7,0.7-2.7c-4.4-8.6-11.1-15.8-19.4-20.7
		c-1.2-0.7-2.5-1.4-3.8-2l2.7-1.7c0.9-0.6,1.2-1.8,0.7-2.7c-0.1-0.1-0.2-0.2-0.3-0.4c-1.4-1.6-3.1-3-5-4.1c-1.9-1.1-3.9-1.8-5.9-2.5
		c-2-0.8-2-1.8-1.6-3.2c0.4-1.5,2.2-3.2,3.6-4.4c0.6-0.6,0.7-1.6,0.3-2.3c-1.3-2.3-3.1-4.2-5.3-5.6c-1.1-0.7-2.2-1.3-3.5-1.7
		l-0.8-0.3h0c0-0.1,0.1-0.2,0.1-0.3c0.4-1.1,0.9-2.1,0.9-3.2c0-1.4-0.7-2.7-1.9-3.4c-2.1-1.4-4.9-1-7.3-1.4
		c-0.7-0.1-1.3-0.3-1.9-0.6c-0.4-0.2-0.7-0.5-0.9-0.8c-0.2-0.3-0.4-0.6-0.5-1v-0.4c0-0.1,0-0.2,0-0.2c0-0.1,0.2-0.3,0.2-0.3
		c1.2-1.7-1.1-3.5-2.7-2.7l-8.4,4.5c-1.7-1.6-3.5-3-5.2-4.5c-0.9-0.8-1.8-1.6-2.6-2.5l2,0.2c0.8,0,1.5-0.5,1.8-1.2
		c0.3-0.7,0.2-1.6-0.4-2.1c-5.7-4.7-12-8.5-18.7-11.4l-0.9-0.4h0.9c0.8-0.1,1.5-0.1,2.3-0.1c1,0,1.8-0.7,1.9-1.7
		c0.1-1-0.5-1.9-1.4-2.1c-11.6-4-24.1-5.2-36.2-3.4c-2.2,0.3-4.4,0.7-6.5,1.2l0.1-0.2c0.2-0.4,0.4-0.7,0.6-1l0.1-0.1v-0.2l0.4-0.5
		c0.3-0.3,0.6-0.6,0.9-0.9l0.2-0.1l0.1-0.1l0.5-0.4c0.4-0.2,0.7-0.4,1.1-0.6c0.8-0.4,1.1-1.4,0.9-2.2c-0.3-0.8-1-1.4-1.9-1.4
		c-6.2-0.1-12.4,1.7-17.6,5.1c-1.5,1-3,2.1-4.3,3.4l-0.2,0.2c-1.4-0.6-2.8-1.1-4.3-1.4c-4.1-1.1-8.4-1.4-12.6-0.9
		c-0.2-0.6-0.7-1-1.3-1.1c-8.2-2-16.8-1.9-25,0.4c-1,0.3-1.6,1.3-1.3,2.3c0,0.2,0.1,0.3,0.2,0.5c-8.6,3.9-16.6,8.9-23.7,15
		c-1.2,1.1-0.4,2.8,0.9,3.3c1.2,0.5,1.5,3.6,1.1,5.2c-0.4,1.5-1.1,3.3-1.6,4.9L86,42.2c-0.9-1.1-2.4-0.6-3.1,0.4
		c-2.5,3.7-4.3,7.8-5.2,12.2l-0.2-0.2c-0.7-0.8-1.4-1.7-2.4-2.2c-1.2-0.7-2.7-0.6-3.8,0.2c-1.5,1.1-2.2,3.2-2.8,4.9
		c-2.1,6.2-2,12.9,0.4,19c-6.2,1.6-12.1,4.4-17.4,8c-1.6,1.1-1,3.6,1,3.6c0.8,0,1.6,0.2,2.4,0.4c-11,8.1-20,18.8-25.9,31.1
		c-1.8,3.8-3.4,7.7-4.7,11.8c-0.1,0.5,0,0.9,0.2,1.4c-3.4,2.6-7.4,4.2-11.6,4.9c-1.6,0.2-2,2.9-0.5,3.6c3.8,1.7,8,2.5,12.2,2.3
		c-1.5,6.9-1,14,1.4,20.6c0.5,1.4,2.8,2.1,3.6,0.5l0.5-1.1c0.7,1.2,0.9,3.3,1.1,4.5c0.5,3.3,1.2,6.5,2.1,9.8
		c1.8,6.4,4.1,12.6,7.1,18.5c1.7,3.4,3.6,6.6,5.7,9.8c1.2,1.7,4.4,0.7,3.6-1.5c-0.1-0.3-0.2-0.2,0.1-0.5c0.2-0.2,0.6-0.4,0.9-0.4
		c0.9,0,1.6,0.9,2.1,1.6c1.6,2.4,2.7,5.3,3.6,8c2.1,5.9,3.1,12.1,3.2,18.4c0,2,2.6,2.6,3.6,1c3.2-5.2,5.9-10.7,7.8-16.5
		c0.2,0.1,0.4,0.3,0.5,0.5c0.5,0.5,1.7,0.8,2.3,0.3c3-2.1,5.4-5.1,6.8-8.5c0.7-1.7,0.9-3.4,1.3-5.1c0.4-1.8,1.7-2.4,3-3.4
		c5-3.6,8-9.1,9.4-15c0.7,1,1.6,1.9,2.5,2.7c0.4,0.4,0.9,0.6,1.4,0.6c0.5,0,1-0.2,1.4-0.6c0.7-0.7,0.9-2.1,0-2.8
		c-0.5-0.4-1.1-0.9-1.5-1.4l-0.3-0.4c0,0,0,0,0-0.1l-0.1-0.1c-0.2-0.3-0.4-0.6-0.6-0.9l-0.5-0.9l-0.2-0.4l0,0c0,0,0,0,0-0.1
		c0,0,0,0,0,0.1c0,0,0,0,0-0.1l0,0c0,0,0,0,0,0c0,0,0-0.1,0-0.1c-0.3-0.7-0.5-1.4-0.6-2.1c0-0.2-0.2-0.5-0.3-0.7
		c0.1-2.1,0.2-4.2,0.1-6.3c0.4,0.1,0.9,0,1.2-0.3c0.8-0.5,1.4-1.8,0.7-2.7c-1.8-2.4-3.3-5-4.6-7.7c-0.3-0.7-0.6-1.3-0.9-2l-0.1-0.2
		c0-0.2-0.1-0.4-0.2-0.5c-0.1-0.3-0.3-0.7-0.4-1c-0.5-1.4-1-2.9-1.4-4.3c-0.3-1.1-1.4-1.6-2.5-1.4c-0.2,0-0.3,0.1-0.4,0.2
		c-0.4,0.3-0.8,0.6-1.2,1c0,0,0,0,0-0.1l-0.1-0.3c-0.2-0.5-0.4-1.1-0.7-1.6c-0.8-2.1-1.5-4.2-2.1-6.4c-0.6-2.1-1.2-4.2-1.6-6.4
		c-0.2-1.1-0.5-2.2-0.7-3.3l-0.2-1.6l-0.1-0.8c0-0.2-0.1-0.3-0.1-0.4v-0.1c0,0,0,0,0-0.1c-0.3-2.5-0.5-5-0.6-7.5
		c-0.1-1.3-1.4-2.4-2.7-1.9V122c0.3-1.5,0.6-3,1-4.6c0.7-3,1.6-5.9,2.8-8.8c0.2-0.4,0.3-0.8,0.5-1.2c0,0,0,0,0-0.1
		c0-0.1,0.1-0.2,0.1-0.2l0.2-0.6c0.4-0.8,0.7-1.6,1.1-2.4s-0.1-2.9-1.7-2.9H80l0.3-0.4l0,0l0,0l0,0l0,0l0,0h0.1l0.3-0.4l0.7-0.8
		c0.5-0.5,0.9-1,1.4-1.4c0.5-0.5,1-0.9,1.5-1.3c0,0,0,0,0,0l0.1-0.1l0.4-0.3l0.9-0.6c1.1-0.7,2.3-1.3,3.5-1.9l0.2-0.1h0l0.5-0.2
		l1.1-0.4l2.3-0.6c1.5-0.3,1.8-2.2,0.9-3.2c-0.6-0.6-1.2-1.2-2-1.7l2.9-0.8c1.2-0.3,2.4-0.5,3.6-0.7h0.7l0.9-0.1l2-0.2
		c0.7,0,1.3-0.4,1.7-1c0.2-0.3,0.2-0.6,0.3-0.9l1.5,0.7c2.7,1.4,5.3,3,7.8,4.8l0.2,0.1h0l0.5,0.4l1,0.9l2,1.7c0.7,0.8,2,0.8,2.8,0
		c0.7-0.8,0.7-2,0-2.7c-4.7-4.5-10.3-8.1-16.3-10.5c-1.6-0.7-3.3-1.2-5-1.7c-0.9-0.2-1.9,0.2-2.3,1.1c-0.4,0.9,0,2,0.8,2.5l0.2,0.2
		h0l0.5,0.5l0.4,0.3c-3.9,0.5-7.8,1.6-11.5,3.1c-0.8,0.3-1.5,0.9-1.4,1.9c0,0.9,0.6,1.6,1.4,1.9l0.7,0.3h0.2l0.3,0.1l0.7,0.3
		c-4.3,1.7-8,4.4-10.9,8c-1.1,1.3-2,2.8-2.8,4.3c-0.5,1-0.2,2.2,0.8,2.7c0.3,0.2,0.5,0.2,0.9,0.2h1.2c-2.1,5-3.7,10.1-4.7,15.4
		c-0.4,1.9-0.6,3.8-0.8,5.7s1.8,2.5,2.9,1.7l0.5-0.4c0.7,8,2.4,15.9,5.2,23.4c0.9,2.5,2,5,3.2,7.4c0.5,0.8,1.4,1.1,2.2,0.9
		c0.5-0.2,0.9-0.5,1.2-0.9c1.1,2.9,2.4,5.6,3.9,8.2c0.4,7.4,0.8,15.4-2.4,22.3c-1.3,2.9-3.2,5.7-5.9,7.5c-1.4,1.1-2.9,1.9-4,3.4
		c-1.1,1.4-1.1,3.3-1.4,5c-0.7,3.1-2.4,5.9-4.8,8c-0.8-0.5-1.7-0.9-2.7-1c-1.1-0.2-2,0.2-2.4,1.4c-1.2,4.1-2.9,8.1-4.8,11.9
		c-0.7-5.8-2.2-11.4-4.5-16.8c-1.3-3.2-2.9-7.1-6.5-8.3c-1.6-0.5-3.4-0.1-4.7,0.9c-6.5-10.7-10.8-22.7-12.7-35.1
		c-0.5-2.9-1.7-6.6-5-7.1c-0.4,0-0.9,0-1.3,0.1c-1.3-5.6-1.1-11.5,0.5-17.1c0.5-1.6-1-2.6-2.4-2.4c-2,0.3-4.1,0.4-6.1,0.1
		c3.8-1.6,7.3-4.1,10.2-7.1c0.7-0.9,0.6-2.1-0.2-2.9c-0.4-0.3-0.8-0.5-1.2-0.5c4.4-12.2,11.7-23.1,21.3-31.9c2.9-2.7,6-5.1,9.3-7.3
		c0.9-0.6,1.2-1.9,0.6-2.8c-0.2-0.2-0.4-0.4-0.6-0.6c-0.7-0.4-1.5-0.8-2.3-1.2c4.5-2.6,9.4-4.5,14.6-5.6c1.3-0.3,1.7-1.8,1.2-2.9
		c-2.5-5.5-3-11.8-1.1-17.6c0.2-0.7,0.5-1.4,0.7-2c0.1-0.3,0.5-0.9,0.6-1.2h0c0,0,0,0,0,0l0.5,0.5c1.5,1.6,2.8,3.3,5.2,3.6
		c1.1,0.1,1.8-1,2-2c0.5-3.9,1.7-7.8,3.7-11.2l8.5,9.8c1.3,1.6,3.7-0.1,3.3-1.9c-0.5-1.8,0.2-3.7,0.8-5.4c0.6-1.7,1.2-3.4,1.4-5.2
		s-0.4-4.3-1.6-5.8c7.1-5.8,15.1-10.5,23.6-14c0.9-0.3,1.5-1.2,1.4-2.2c4.5-0.9,9.1-1.1,13.7-0.6c-2.1,0.7-4.3,1.5-6.4,2.4
		c-0.7,0.3-1,1.3-0.9,2c0.1,0.8,0.7,1.4,1.4,1.6c0.7,0.2,1.3,0.4,2,0.6h0.2l0.4,0.2c0.3,0.1,0.6,0.3,0.9,0.5
		c-11.2,3.2-21.1,9.6-28.7,18.4c-2.4,2.8-4.5,5.8-6.4,9c-0.5,0.8-0.4,1.8,0.3,2.4c0.7,0.6,1.6,0.7,2.4,0.3c1.4-0.9,2.9-1.8,4.4-2.4
		l0.4-0.2l0.5-0.2l1.1-0.4c0.8-0.3,1.6-0.5,2.4-0.7c0.8-0.2,1.6-0.4,2.5-0.5l0.9-0.2c-3.5,3-6.4,6.8-8.5,10.9
		c-0.5,0.9-0.2,2.1,0.7,2.7c0.9,0.5,2.2,0.3,2.7-0.7c0.7-1.4,1.6-2.9,2.5-4.2c0.2-0.3,0.4-0.6,0.7-0.9l0.3-0.4l0.3-0.3
		c0.5-0.6,1-1.2,1.5-1.8c1.1-1.1,2.2-2.2,3.4-3.2l0.5-0.4l0.1-0.1l0.1-0.1l0.9-0.7l2.1-1.4c0.7-0.4,1.1-1.3,0.9-2.2
		c-0.3-0.8-1-1.4-1.9-1.4c-4.6-0.3-9.3,0.4-13.7,2c0,0,0.1-0.1,0.2-0.2c0,0,0.1-0.2,0.2-0.2l0.8-1c2-2.3,4.1-4.6,6.4-6.6l1.8-1.6
		l0.9-0.7c0.1-0.1,0,0,0,0l0.1-0.1l0.5-0.4c1.2-0.9,2.5-1.8,3.9-2.7c1.3-0.9,2.6-1.6,4-2.3l2.1-1.1l0.9-0.4l0.5-0.2l0.2-0.1h0.1
		c3.2-1.4,6.6-2.4,10-3.1c1.5-0.3,1.9-2.3,0.9-3.3c-1.1-1.1-2.2-2-3.5-2.7c1.2-0.4,2.3-0.7,3.5-1c1.2-0.3,2.7-0.6,4-0.8h0.8l0.9-0.1
		c0.8-0.1,1.5-0.1,2.3-0.1c1.3,0,2.7,0,4,0.2h0.5c0.1,0,0.6,0.1,0.1,0l0.8,0.1l2,0.4c1.2,0.3,2.3,0.6,3.4,1.1l0.9,0.3h0.1l0.4,0.2
		l1.8,0.9l1.7,1c0.3,0.2,0.6,0.4,0.9,0.6l0.3,0.2l0.3,0.3c1.1,0.8,2.1,1.8,3,2.8c0.8,0.7,2,0.7,2.8,0c0.7-0.8,0.7-2,0-2.8
		c-1.7-1.9-3.6-3.4-5.8-4.7c1.1-0.9,2.2-1.8,3.4-2.5c0.8-0.5,1.6-1,2.5-1.4l1.1-0.5l0.3-0.2h0l0.7-0.3c1.5-0.6,3.1-1,4.7-1.4
		c-1.2,1.8-2,3.8-2.2,5.9c-0.2,1.3,1.4,2.2,2.5,1.9c2.9-0.8,5.7-1.4,8.7-1.9l1.1-0.2l0.5-0.1h0.3l2.3-0.3c1.5-0.2,3-0.2,4.5-0.3
		c3-0.1,5.9,0,8.9,0.2c2.8,0.2,5.6,0.6,8.3,1.1l1.9,0.4l-1.5,0.7c-0.9,0.6-1.2,1.8-0.6,2.7c0.2,0.4,0.7,0.7,1.1,0.9
		c1.7,0.5,3.3,1.2,4.9,1.8l0.3,0.1l0.6,0.3l1.3,0.6l2.3,1.1c3,1.5,5.9,3.2,8.6,5c-1.3,0.2-2,1.8-1.4,2.9c2.5,4.1,6.4,7,9.9,10.2
		c0.9,0.8,1.8,1.6,2.5,2.5c0.4,0.4,0.8,0.8,1.1,1.2l0.5,0.6c0.1,0.1,0.2,0.3,0.3,0.4l0.1,0.1l0.1,0.1c1.4,1.9,2.7,4,3.7,6.1
		c0.2,0.3,0.3,0.6,0.4,0.9c0,0.1,0,0.2,0.1,0.2c0,0.1,0.1,0.3,0.2,0.4c0.2,0.6,0.5,1.2,0.7,1.8c0.1,0.2,0.2,0.4,0.2,0.7l-3-0.9
		c-1.8-0.5-3.3,1.9-1.9,3.2c1.1,1,2.1,2.1,3.1,3.3l0.4,0.4l0.2,0.2l0.7,1c0.4,0.6,0.8,1.2,1.2,1.9c0.8,1.3,1.5,2.6,2.1,4
		c0,0.1,0.1,0.1,0.1,0.2h0c0,0.2,0.1,0.4,0.2,0.6l0.4,1.1c0.2,0.7,0.4,1.4,0.6,2.1c0.2,0.7,0.2,0.8,0.3,1.1c0,0.2,0.1,0.4,0.1,0.5
		c0,0.1,0,0.2,0,0.3s0,0.4,0,0.4c0,0.1,0,0.1,0,0.2l-0.1,0.2h0l-0.5,0.5l-0.3,0.2h0l-1.2,0.9c-1,0.7-2,1.6-2.3,2.9
		c-0.2,0.7-0.1,1.5,0.2,2.2c0.2,0.5,0.6,0.8,1.1,1l0.4,0.2h0.1l0.4,0.2l0.6,0.3c0.7,0.4,1.4,0.8,2.1,1.2l0.5,0.4l0.2,0.1l0.2,0.1
		l0.9,0.7c0.6,0.5,1.2,1.1,1.7,1.7h0c-0.8,0.7-1.4,1.6-1.8,2.7c-0.7,2-0.5,4.1,0.4,6.1c0.5,1,1.1,2,1.8,2.9l0.7,0.9l0.2,0.3v0.1h0
		l1.1,1.5c0.3,0.4,0.5,0.9,0.7,1.3c0,0,0.1,0.2,0.1,0.2c0,0.1,0,0.1,0.1,0.2c0.1,0.2,0.2,0.5,0.2,0.8c0,0.1,0,0.2,0.1,0.4
		c0,0.2,0,0.4,0,0.7c0,0.2,0,0.5,0,0.7v0.3c0,0.1,0,0.2,0,0.2c-0.1,0.5-0.2,1-0.4,1.4l-0.1,0.3l-0.1,0.2c-0.1,0.2-0.2,0.5-0.4,0.7
		l-0.4,0.6l-0.1,0.1l-0.3,0.4l-0.6,0.6l-0.2,0.2c0.4-0.4-0.1,0.1-0.2,0.1c-0.8,0.6-1.3,1.8-0.7,2.7c0.6,0.9,1.8,1.3,2.7,0.7
		c3.7-2.5,5.7-7.4,4.3-11.8c-0.4-1.1-0.9-2.1-1.5-3.1c-0.3-0.4-0.6-0.9-0.9-1.2l-0.7-0.9l-0.2-0.2l-0.2-0.3l-0.9-1.3
		c-0.3-0.4-0.7-0.9-0.8-1.4c-0.1-0.2,0-0.1,0-0.2c-0.1-0.2-0.1-0.4-0.2-0.5v-0.1c0-0.1,0-0.1,0-0.2v-0.6c0-0.1,0-0.2,0-0.4l0.1-0.7
		c0-0.1,0.1-0.2,0.1-0.2c0,0,0-0.1,0-0.1l0.3-0.5v-0.1l0.1-0.1c0,0,0.1-0.1,0.2-0.2c0,0,0,0,0,0l0.2-0.1h0.3c1.4,0,2.5-1.6,1.7-2.9
		c-2.1-3.2-5.1-5.9-8.6-7.6c-0.2,0.2-0.2,0.2-0.2,0.1l0.2-0.1c0,0,0,0,0,0h0l0.9-0.6c0.7-0.5,1.4-1.1,2-1.8c0.9-1,1.3-2.4,1.1-3.7
		c-0.2-2.5-1.1-4.9-2.1-7.1c-0.9-2.1-2-4-3.2-5.9l-0.7-0.9c1.4,0.3,2.6-1.1,2.3-2.4c-1-4.8-3-9.4-5.9-13.5c-0.7-1-1.4-1.9-2.1-2.8
		l4.3-2.3c0.4,1,0.9,1.9,1.6,2.7c2.2,2.2,5.4,2.3,8.2,2.5h0.9l0.7,0.2c0.3,0,0.6,0.2,0.8,0.4c0,0,0,0,0,0.1c0,0.1,0,0.1-0.1,0.3
		c-0.2,0.6-0.4,1.1-0.6,1.7c-0.5,1.3-0.5,2.7,0.4,3.8c0.9,1.1,2.2,1.4,3.5,2c2,0.9,3.7,2.3,5,4c-1.4,1.4-2.7,2.9-3.4,4.8
		c-0.6,2-0.4,5.2,1.5,6.8c1.9,1.6,4.4,1.9,6.5,2.9c1.3,0.7,2.5,1.5,3.6,2.5l-3.7,2.3c-1.5,1-1.1,3,0.5,3.6
		c8.2,3.3,15.3,8.8,20.6,15.9c1.1,1.6,2.2,3.2,3.2,5l-0.7,0.5c-1,0.7-1.3,2.1-0.4,3.1c7.3,7.5,12.9,16.5,16.4,26.3
		c0.7,1.9,1.3,3.9,1.8,5.9c-0.6,0.2-1.1,0.7-1.2,1.3c-0.7,4-2,7.9-3.9,11.4c-1,1.9-2,3.7-3.1,5.5c-1.1,1.8-1.8,3.3-3,4.6
		c-0.4,0.5-0.9,0.9-1.6,1.2c-0.3,0-0.6,0-0.9,0c-0.5-0.1-1.1,0-1.7,0.2c-2.1,0.7-2.3,3-2.7,4.9c-0.8,3.8-2.5,7.4-4.5,10.7
		c-1.4,2.2-2.9,4.3-4.5,6.3c-0.2-0.5-0.5-1.1-0.9-1.6c-0.8-1.2-2.5-1.3-3.4,0c-4.5,7.5-10.2,14.3-16.7,20.1l-3.3-4.5
		c-0.7-0.9-2.2-1.5-3.1-0.4s-2.4,3-4,3.4c-1.6,0.4-2.1-0.6-2.5-1.8c-0.4-1.2,0.1-3.4,0.9-5c0.8-1.6,2.2-3.9,3.2-6
		c0.6-1.2,1.1-2.4,1.6-3.7l0.4-0.4c0.4-0.5,0.6-1.2,0.5-1.8c2.5-6.4,4.1-13.1,4.8-20c0.5-5,0.6-10,0.1-15c-0.1-0.9-0.7-1.6-1.6-1.9
		c0.2-4.6,0.2-9.2,0-13.8c-0.1-1.6-0.2-3.1-0.4-4.6c-0.2-1.5-0.2-3.1-0.5-4.6c-0.4-1.5-2.1-2.9-3.7-2c-1.6,0.9-1.9,3.3-0.2,4.1
		l0.3,0.1c0.1,0.4,0.1,0.9,0.2,1.3c0.1,1.1,0.2,2.2,0.3,3.3c0.2,2.3,0.3,4.7,0.3,7.1c0.1,4.7-0.1,9.4-0.5,14.1
		c-0.1,1.3,1.1,2,2.2,1.8c0.2,7.9-0.9,15.8-3.2,23.3c-0.7,2.2-1.5,4.5-2.4,6.6l-11.3,11.7c-0.7,0.7-0.7,2,0,2.7c0.7,0.8,2,0.8,2.8,0
		l3-3.1c-1.1,2.7-1.6,5.4,0,8.2c1.2,2.3,3.8,3.5,6.3,3c1.8-0.4,3.2-1.5,4.5-2.8l3.1,4.2c0.8,1.1,2,1.3,3.1,0.4
		c6-5.1,11.4-11,15.9-17.5c-0.2,0.8,0,1.6,0.7,2.1c0.7,0.5,2,0.6,2.6-0.2c5.2-6.4,10.5-13,13-21c0.2-0.9,0.5-1.8,0.7-2.7
		c0.2-0.9,0.1-0.8,0.2-1.2c0-0.1,0-0.2,0.1-0.4h0.7c1.6,0,3.1-0.6,4.2-1.8c1.4-1.3,2.4-3.1,3.4-4.7c1-1.6,2.2-3.7,3.2-5.5
		c2-3.7,3.7-7.5,4.6-11.6C319.9,151.6,321,150.2,320.7,148.9z"/>
</g>
</svg>
