<?xml version="1.0" encoding="utf-8"?>
<!-- Generator: Adobe Illustrator 27.9.0, SVG Export Plug-In . SVG Version: 6.00 Build 0)  -->
<svg version="1.1" id="Layer_1" xmlns="http://www.w3.org/2000/svg" xmlns:xlink="http://www.w3.org/1999/xlink" x="0px" y="0px"
	 viewBox="0 0 282.7 241.6" style="enable-background:new 0 0 282.7 241.6;" xml:space="preserve">
<g>
	<path style="stroke:#000000;stroke-width:3;stroke-linecap:round;stroke-linejoin:round;stroke-miterlimit:10;" d="M244.3,178.1
		c0.3-2.4,1.1-4.7,2-6.9c0.9-2.2,1.8-4.5,2.7-6.8c6.7-18.2,10.1-38,8.1-57.4c-1-9.9-3.6-19.4-7.1-28.7c-3.5-9.3-7.9-18.2-12.3-27.1
		c-2.3-4.7-4.7-9.5-7-14.3c-1.1-2.4-2.3-4.7-3.5-7.1s-2-3.8-3.9-4.9c-4.4-2.5-8.9,1.1-11.5,4.4c-3.2,4-6.1,8.2-9.1,12.3
		c-10.6,14.6-20.5,29.7-29.8,45.2l-0.3-0.2c-8.3-3.5-17.1-5.6-26.1-5.9c-8.9-0.4-17.8,0.8-26.2,3.5c-4.5,1.4-8.7,3.2-12.8,5.4
		C97.2,78.2,88.8,65.2,78.6,53.8C72.8,47.4,66.3,41.4,59,36.7c-1.8-1.1-3.6-2.2-5.5-3.1c-1.8-0.9-3.5-1.7-5.5-1.5
		c-1.9,0.1-3.6,0.9-5,2.2c-1.6,1.5-2.1,3.4-2.6,5.5c-5,19-9.7,38.2-12.4,57.8c-1.4,9.8-2.2,19.6-2.3,29.5c0,4.9,0.1,9.7,0.4,14.5
		c0.3,4.9,0.6,9.8,2.6,14.2c0.9,2,2.2,3.7,3.3,5.6c1,1.8,1.6,3.7,1.8,5.7c0.4,4.5-0.4,8.9-0.6,13.4c-0.3,9.4,1.1,18.7,4,27.5
		c0.7,2.2,1.6,4.4,2.5,6.6c0.4,1,1.9,1.2,2.8,0.7c0.9-0.5,1.1-1.8,0.7-2.8c-3.5-8.2-5.6-17-6-25.9c-0.2-4.4,0.1-8.8,0.4-13.2
		c0.4-4.4,0.3-9.1-1.8-13.2c-0.9-1.8-2.2-3.5-3.2-5.3c-0.9-1.9-1.6-4-1.8-6.2c-0.7-4.5-0.9-9.1-1.1-13.6c-0.3-9.6,0.1-19.1,1.1-28.6
		c2-19,6.2-37.7,10.9-56.2l1.8-7.1c0.3-1.1,0.6-2.2,0.9-3.4c0.1-0.7,0.4-1.4,0.8-2c0.7-0.9,1.8-1.5,3-1.6c0.6,0,1.1,0.1,1.7,0.3
		c1,0.4,2,1,2.9,1.5c7.2,4,13.5,9.3,19.2,15.2C84.6,65.8,93.9,81,105.8,94c1.5,1.6,2.9,3.1,4.5,4.7c1.5,1.5,4.8-1,2.9-2.9l-2.9-3
		c1.3-0.7,2.7-1.3,4-2l1.3-0.6l0.1-0.1l0.4-0.1l0.8-0.3c1-0.4,2-0.8,3-1.1c4-1.4,8.2-2.4,12.5-3.1l0.7-0.1l0.4-0.1h0l1.6-0.2
		c1.1-0.1,2.1-0.2,3.2-0.3c2.1-0.2,4.3-0.2,6.4-0.2c2.1,0,4.3,0.2,6.4,0.4l1.5,0.2h0.3l0.9,0.1L157,86c2.4,0.4,4.7,1.1,7,1.8
		c1.1,0.3,2.2,0.7,3.3,1.1l1.8,0.7l0.8,0.3l0.4,0.2l0.2,0.1h0l0.3,0.1c-0.3,0.6-0.7,1.1-1,1.7l-3.8,6.5c-1.3,2.3,2.2,4.3,3.6,2
		c9.7-17,20.1-33.5,31.4-49.6c2.8-4,5.7-8,8.6-11.9c1.5-2,3-4,4.5-6s2.4-3.1,4-4.1c1.6-1,2.9-1,4,0.3s2,3.7,2.9,5.5l6.9,14
		c8.5,17.2,17.4,34.6,20.5,53.8c2.9,18.5,0.4,37.7-5.4,55.5c-1.5,4.5-3.3,8.9-5,13.4c-1.7,4.5-2.5,9.2-1.1,13.9
		c1.4,4.7,3.6,8,4.7,12.3c1,4,0.9,8.3-0.3,12.3c-0.6,1.9-1.4,3.8-2.5,5.5c-1.4,2.2,2.1,4.3,3.5,2c2.4-4,3.8-8.5,4-13.1
		c0.2-4.7-1-9.2-2.8-13.5C245.6,186.2,243.7,182.5,244.3,178.1z"/>
	<path style="stroke:#000000;stroke-width:3;stroke-linecap:round;stroke-linejoin:round;stroke-miterlimit:10;" d="M230,152.9
		l-1.4-0.6l-0.3-0.1l-0.8-0.4l-2.8-1.3c-0.9-0.4-1.8-1-2.7-1.6l-1.1-0.8l-0.1-0.1l-0.2-0.2l-0.7-0.5c-0.3-0.3-0.7-0.7-1-1
		c-0.4-0.3-0.7-0.7-1-1.1c0,0,0,0,0-0.1l-0.2-0.3c-0.2-0.2-0.3-0.4-0.4-0.7c-0.3-0.4-0.5-0.9-0.8-1.4c-0.1-0.2-0.2-0.5-0.3-0.7h0
		l-0.1-0.3c-0.2-0.5-0.4-1-0.6-1.6c-0.2-0.5-0.8-2.2-1.3-3.3c-0.8-2.1-2.2-4-3.9-5.4c-1-0.8-2-1.5-3-2.2l-1.3-0.9
		c-0.2-0.1-0.3-0.2-0.5-0.4l-0.2-0.1l-0.4-0.3c-0.4-0.3-0.7-0.7-1-1.1l-0.2-0.3l-0.4-0.8l-0.1-0.2v-0.1l-0.2-0.8c0,0,0-0.1,0-0.1
		v-0.2c0-0.2-0.1-0.5,0-0.7c0,0,0,0,0-0.1l0.1-0.3l0.1-0.3l0.8-1.3c0.7-0.9,1.1-1.8,1.4-2.9c0.3-1.4-0.2-2.9-1.2-4
		c-0.9-0.8-2.1-1.1-3.3-1.1c-0.9,0-1.8,0.2-2.7,0.2h-0.5c0.1-0.6,0.2-1.1,0.4-1.7c0-0.3,0.1-0.7,0.2-1c0.1-0.4,0.2-0.9,0.2-1.3
		c-0.1-0.9-0.6-1.7-1.4-2.2c-0.9-0.5-1.8-0.7-2.8-0.5l-1,0.1h-0.1c0-0.2,0.1-0.5,0.1-0.6c0.2-1.1,0.4-2.2,0.7-3.3
		c0.4-2.2,0.9-4.5,1.4-6.8c1-4.5,2.1-8.9,3.4-13.3c0.7-2.2,1.3-4.4,2.2-6.5c0.4-1.1,0.8-2.2,1.2-3.2c0.1-0.2,0.2-0.4,0.3-0.7v-0.1
		l0.1-0.3l0.8-1.7c2.1-4.6,4.7-9,7.7-13.1c0.7-0.9,0.2-2.3-0.7-2.8c-0.9-0.4-2.1-0.2-2.8,0.7c-5.2,6.9-8.9,14.9-11.6,23
		c-2.7,8.2-4.6,16.7-6.3,25.2c-0.2,1.2-0.7,2.6-0.7,3.8c-0.1,1.6,0.9,3,2.4,3.5c0.8,0.2,1.7,0.2,2.5,0.1c-0.3,1.3-0.5,2.5-0.8,3.8
		c-0.3,1.3,0.1,1.9,0.9,2.3c1.8,0.9,3.7,0.7,5.7,0.4c0.4,0,0.8-0.1,1.2,0h0.3c0,0,0,0,0-0.1l0.1,0.1h0c0,0.1,0,0.1,0,0.2
		c0,0,0,0.1,0,0.2c0,0,0,0,0-0.1c0-0.3,0,0-0.1,0.1l-0.1,0.2c-0.2,0.5-0.5,0.9-0.9,1.4c-0.7,1-1.1,2.1-1.3,3.2
		c-0.3,2.5,0.8,4.9,2.5,6.7c1.7,1.9,3.7,2.9,5.6,4.2l0.6,0.4h0l0.4,0.3c0.4,0.4,0.8,0.8,1.1,1.2h0l0.2,0.3l0.4,0.6
		c0.3,0.5,0.5,1,0.8,1.5c0.1,0.2,0.2,0.4,0.3,0.6l0.2,0.4c0.2,0.5,0.4,1.1,0.6,1.6s0.9,2.2,1.3,3.3c0.9,2,2.1,3.8,3.7,5.3
		c3.6,3.4,8.2,5.4,12.7,7.2c1,0.4,2.3-0.4,2.5-1.4C231.5,154.2,231,153.3,230,152.9z M200.9,117.6
		C200.9,117.6,200.9,117.5,200.9,117.6C200.9,117.6,200.9,117.6,200.9,117.6L200.9,117.6z"/>
	<path style="stroke:#000000;stroke-width:3;stroke-linecap:round;stroke-linejoin:round;stroke-miterlimit:10;" d="M242.5,144.1
		c0,0.2,0,0.4,0,0.6c-0.1,2-0.3,3.9-0.5,5.9c-0.1,1.1,1,2.1,2,2c1.1,0,2-0.9,2-2l0.4-4c0.1-1.3,0.3-2.7,0-4
		c-0.3-1.2-1.1-2.2-2.2-2.7c1.6-6.8,3.1-13.6,4.7-20.4c0.2-1-0.3-2.2-1.4-2.5s-2.3,0.3-2.5,1.4c-1.8,7.7-3.6,15.4-5.3,23.2
		c-0.2,1,0.2,2,1.2,2.4C241.3,144.4,241.9,144.4,242.5,144.1z"/>
	<path style="stroke:#000000;stroke-width:3;stroke-linecap:round;stroke-linejoin:round;stroke-miterlimit:10;" d="M82.6,74
		c-1.6-3.8-3.3-7.6-5.1-11.3c-0.4-1-1.7-1.5-2.7-1c-1,0.4-1.5,1.7-1,2.7c0,0.1,0.1,0.2,0.2,0.4c0.8,1.6,1.6,3.2,2.3,4.8
		c0.4,0.8,0.7,1.6,1.1,2.4c0.2,0.4,0.3,0.8,0.5,1.2c0,0.2,0.1,0.3,0.2,0.4l0.2,0.6c1.3,3.2,2.5,6.5,3.6,9.8
		c2.2,6.7,3.8,13.6,4.9,20.5c0,0.5,0.1,1,0.2,1.5l0.1,0.7v0.3h0v0.1l0.4,2.9c0.1,1.3,0.2,2.5,0.3,3.8h0c-1.2,0.4-2.2,1.3-2.7,2.5
		c-0.5,1.2-0.5,2.5-0.4,3.8c0.2,1.1,0.2,2.3,0.2,3.5c0,0.5,0,1.1-0.1,1.6c0,0.3,0,0.5-0.1,0.8c0,0.2-0.1,0.4-0.1,0.5
		c-0.2,1.1-0.4,2.1-0.7,3.2c-0.3,1.1-0.7,2.2-1.1,3.3c-0.1,0.2-0.2,0.5-0.3,0.8l-0.1,0.2c0,0.1,0,0.2-0.1,0.2
		c-0.2,0.6-0.5,1.1-0.8,1.7c-0.3,0.6-1,2.1-1.6,3.1l-0.4-0.5c-1.1-1.1-2.9-0.5-3.4,0.9c0,0,0,0,0,0.1c0,0.1,0,0.1-0.1,0.2
		c-0.1,0.2-0.2,0.4-0.3,0.6l-0.1,0.1l-0.1,0.2l-0.5,0.4c0,0,0,0,0,0.1s-0.2,0.1-0.2,0.1l-0.6,0.3h-0.3l-0.7,0.2
		c-1.1,0.3-1.7,1.4-1.4,2.5c0.3,1.1,1.4,1.7,2.5,1.4c1.2-0.2,2.4-0.8,3.3-1.6c0.2,1.8,2.8,2.5,3.8,0.8c4.2-7.6,8.5-15.8,7.4-24.7
		c-0.1-0.6-0.1-1.1-0.1-1.7v-0.4c0-0.1,0-0.1,0-0.2h0.1l0.1-0.1h0c0.5,0.3,1.2,0.4,1.8,0.1c0.8-0.3,1.3-1.1,1.3-1.9
		c-0.4-7.2-1.5-14.4-3.1-21.5C87.4,87.3,85.3,80.6,82.6,74z M88.9,117.5l-0.2-0.2L88.9,117.5L88.9,117.5z"/>
	<path style="stroke:#000000;stroke-width:3;stroke-linecap:round;stroke-linejoin:round;stroke-miterlimit:10;" d="M65,149.2
		c-0.6,0.2-1.3,0.2-1.9,0.4h-0.6l-1,0.1l-4,0.2c-2.8,0.2-5.6,0.4-8.1,1.5c-0.6,0.2-1.1,0.5-1.6,0.8c-2.6-6.7-4.6-13.6-6-20.7
		c-0.4-2-0.8-4-1.1-6.1l-0.2-1.5c0-0.1,0-0.3,0-0.4v-0.1c0-0.2-0.1-0.4-0.1-0.7l-0.4-3.1c-0.4-4.1-0.7-8.2-0.7-12.3
		c0-4.6,0.2-9.2,0.7-13.8c0.1-1.1-1-2.1-2-2c-1.1,0-2,0.9-2,2c-0.9,8.2-0.9,16.5-0.1,24.7c0.7,8.3,2.3,16.5,4.6,24.6
		c1.3,4.5,2.8,8.8,4.6,13.1c0.3,0.7,0.7,1.2,1.4,1.4c0.7,0.2,1.5,0,2-0.5l0.7-0.7c0,0,0.4-0.3,0.2-0.1l0.2-0.2
		c0.5-0.3,1-0.7,1.5-0.9h0l0.4-0.2l0.9-0.2l1.8-0.4l0.5-0.1h0l0.9-0.1l2-0.1l4-0.2c1.6-0.1,3.1-0.3,4.7-0.7c1.1-0.3,1.7-1.4,1.4-2.5
		C67.2,149.6,66.1,148.9,65,149.2z"/>
</g>
</svg>
