<?xml version="1.0" encoding="utf-8"?>
<!-- Generator: Adobe Illustrator 27.9.0, SVG Export Plug-In . SVG Version: 6.00 Build 0)  -->
<svg version="1.1" id="Layer_1" xmlns="http://www.w3.org/2000/svg" xmlns:xlink="http://www.w3.org/1999/xlink" x="0px" y="0px"
	 viewBox="0 0 315.7 235.5" style="enable-background:new 0 0 315.7 235.5;" xml:space="preserve">
<g>
	<path style="stroke:#000000;stroke-width:3;stroke-linecap:round;stroke-linejoin:round;stroke-miterlimit:10;" d="M301.8,207.6
		c-5.1-14.6-14.6-27.2-27.2-36.1c0.6-0.3,1.3-0.5,2-0.5c1.5-0.1,2.7-1.8,1.8-3.2c-1.4-2.2-3.6-3.5-5.5-5.3c-0.8-0.7-1.7-1.6-1.8-2.7
		c-0.1-1.1,0.3-1.7,1-1.5c1.2,0.3,2.3-0.5,2.5-1.7c0.2-0.8-0.2-1.7-0.9-2.2l-8.2-5.4l4.1-1.4c1.1-0.4,1.7-1.6,1.4-2.7
		c-0.2-0.5-0.5-0.8-0.8-1.1c-2.5-1.8-5.1-3.3-7.9-4.5c4.5-0.8,9.1-0.8,13.6-0.3c1.7,0.3,2.5-1.9,1.8-3.2c-0.5-1.1-1.2-2.1-2-3
		c1.2,0.1,2.4,0.3,3.5,0.7c1.9,0.6,3.1-1.5,2.4-3.1c-1.7-3.7-4.2-6.9-7.4-9.5c3-12.3,6-24.6,6.7-37.3c0.4-6.5,0-13-1.2-19.4
		c-1.2-6.4-3.5-12.5-6.1-18.4s-5-11.2-8-16.4c-1.5-2.5-3.1-4.9-5-7.1c-1.8-2.1-4.1-4.5-6.8-5.1c-2.8-0.6-5.6,1.2-8,2.7
		c-2.4,1.5-5,3.2-7.4,4.9c-4.7,3.4-9.3,7-13.6,10.8c-9.1,8.1-17.3,17.2-24.4,27.1l-0.8-0.6c-0.9-0.6-2.3-0.1-2.9,0.8
		c-1.2,2.1-2.2,4.3-2.9,6.6l-1.1-1.6c-1-1.4-3.5-1.4-3.9,0.5c-1.7,8.4-4.1,16.6-7.3,24.5c-0.5,1.2-1.1,2.7-2.2,3.5
		c-1.1,0.8-3.8,0.8-5.5,0.8c-4.4,0.1-8.8,0.1-13.2,0.1c-8.7,0.1-17.5,0.2-26.3,0.8c-3.3,0.3-7,1-10.2-0.3c-3.2-1.4-3.4-5.2-3.8-8.4
		c-1.1-8.4-4.9-16.1-10.9-22c-1.4-1.4-3.4-0.3-3.6,1.5l-0.4,3.9l-6.1-9.1C98,62,96,60.5,93.9,61.9c-0.3,0.2-0.6,0.5-0.8,0.7
		C82.5,49.2,71.2,36,56.6,26.9c-2-1.2-4-2.3-6-3.3c-2.1-1-4.5-1.6-6.6,0.3c-3.3,2.9-5.1,7.8-6.3,11.9c-1.1,4.1-1.9,9.4-2.5,14.1
		c-0.7,5.4-1.1,10.9-1.4,16.3c-0.6,11.4-0.5,22.9,0.5,34.2c-2.5-0.1-4.8,0.5-6.9,1.8c-1.1,0.7-1.5,2.4-0.5,3.3c1.6,1.4,3,3,4,4.9
		l-0.5,0.4c-1.8,1.4-1.9,3.8-1,5.7c1,2,3.1,4.1,4.7,5.9c1.6,1.9,2.3,2.7,3.5,4c-3.1,1.9-5.6,4.8-7.2,8.1c-0.5,1.1-0.2,2.9,1.3,3.1
		c1.2,0.2,2.4,0.5,3.5,1.1c-2.2,2.8-3.8,6.1-4.4,9.6c-0.3,1.7,1.3,3.2,2.9,2.5c-1.6,4.3-2.7,8.7-3.2,13.2c-0.1,1.3,1.1,2.1,2.2,2
		l-6.4,14.7c-0.4,1-0.3,2,0.5,2.7c0.8,0.7,2,0.6,2.8-0.2c1.5-1.6,3.2-3,5.1-4C27,190,21.6,202.1,18.9,215c-0.5,2.6,3.5,3.8,4.1,1.1
		c3-14.5,9.5-28.1,19.1-39.4c1.4-1.7,0-3.8-2.1-3.5c-2.4,0.3-4.7,1.1-6.8,2.2c1.8-4.1,3.6-8.3,5.4-12.4c0.8-1.9-0.9-3.9-2.9-2.9
		l-0.5,0.2c0.8-3.7,1.9-7.2,3.4-10.6c0.6-1.3,0.1-2.6-1.3-3.1c-0.5-0.2-1.1-0.3-1.7-0.3c0.9-2.4,2.3-4.6,4.1-6.3
		c0.8-0.7,0.8-2.2,0-3c-1.3-1.1-2.8-2-4.4-2.6c1.6-2.4,3.9-4.2,6.5-5.4c1.4-0.6,1.3-2.4,0.5-3.3l-6.4-7.4c-0.9-1.1-2-2-2.7-3.3
		c-0.1-0.2-0.3-0.4-0.3-0.7c1.4,0.9,3.7-0.7,3.1-2.4c-0.8-2.6-2.2-5-3.9-7.1c1.3-0.3,2.6-0.3,3.9,0c1.2,0.3,2.8-0.6,2.7-2.1
		c-0.9-10.1-1.3-20.4-0.9-30.6c0.3-9.9,1-19.9,2.7-29.7c0.8-4.1,1.8-8.4,3.8-12.1c0.5-0.8,1-1.6,1.6-2.5c0.7-0.9,1-1.4,2.1-0.9
		c1.9,0.9,3.8,1.9,5.7,3.1c7.3,4.4,13.8,10,19.7,16.1c6.8,7,12.9,14.6,18.9,22.2c1.2,1.5,3.6,0.2,3.6-1.5c0-0.1,0-0.3,0-0.4l0.4,0.5
		c0.2,0.3,0.4,0.6,0.6,0.9l1.7,2.5l6.4,9.4c1.2,1.8,3.7,1.1,3.9-1.1s0.3-3.3,0.5-4.9c3.8,4.8,6.1,10.5,6.7,16.6
		c0.4,4,0.9,7.8,4.5,10.2s6.8,2.2,10.3,1.9c9.4-0.8,18.8-1,28.2-1.1l14-0.1c4.1-0.1,8.1-0.2,10.6-4c1.2-1.9,1.9-4.1,2.7-6.2
		c0.8-2.1,1.6-4.6,2.4-6.9c1.1-3.4,2-6.8,2.8-10.3l1.2,1.7c1.3,1.8,3.7,1,4-1.1c0.3-2.7,1-5.3,2.2-7.7l0.6,0.4
		c1,0.7,2.3,0.1,2.9-0.8c12.4-17.9,28.4-33,46.9-44.3c1.1-0.6,2.2-1.5,3.5-1.1c1.3,0.4,2.2,1.5,3.1,2.4c1.8,1.9,3.4,3.9,4.8,6.2
		c3,4.8,5.4,10,7.7,15.1c2.4,5.1,4.9,11.3,6.3,17.2c1.4,5.9,1.9,11.9,1.8,17.9c-0.2,13.9-3.6,27.5-7,41c-0.3,0.9,0.2,1.9,1,2.4
		c1.9,1.4,3.6,3,5,5c-1.9-0.1-3.9,0.1-5.8,0.5c-1.8,0.4-2.1,3-0.5,3.9c0.7,0.4,1.4,0.9,2,1.4c-5.9-0.2-11.7,0.7-17.3,2.5
		c-1.9,0.6-2.1,3.5,0,4.1c3.6,0.8,7.1,2.2,10.3,4l-4.1,1.4c-1.1,0.3-1.8,1.6-1.4,2.7c0.2,0.5,0.5,0.9,0.9,1.2l8.6,5.6
		c-1.3,1.5-1.7,3.6-1.1,5.5c0.5,1.9,1.9,3.5,3.3,4.7l2.2,1.7c-1.3,0.7-2.5,1.6-3.3,2.8c-0.7,1-0.1,2.4,0.8,2.9
		c12.8,8.4,22.5,20.7,27.6,35.2C298.7,211.3,302.7,210.2,301.8,207.6z M96.1,65.5C96.2,65.2,96.3,65.5,96.1,65.5L96.1,65.5z"/>
	<path style="stroke:#000000;stroke-width:3;stroke-linecap:round;stroke-linejoin:round;stroke-miterlimit:10;" d="M94.5,87.2
		C90,81.9,85,76.9,79.7,72.4c-3.1-2.7-6.3-5.2-9.6-7.5c-0.9-0.6-2.4-0.2-2.9,0.8c-0.6,1-0.3,2.3,0.8,2.9l4.1,3l0.3,0.2l0.5,0.4
		l1.1,0.8l2,1.6c2.7,2.2,5.2,4.6,7.7,7c2.5,2.4,4.8,4.9,7.1,7.5c1.1,1.3,2.2,2.7,3.3,4c0.2,0.3,0.5,0.6,0.7,0.9l0.4,0.5l0.3,0.3
		l1.5,2c1.6,2.1,3,4.3,4.5,6.5c-5.4,0.2-10.6,1.5-15.6,3.6c-0.8,0.3-1.1,1.4-1,2.1c0.1,0.8,0.7,1.5,1.5,1.8c0.5,0.1,0.9,0.3,1.4,0.5
		h0.1l0.3,0.1l0.6,0.3c0.9,0.4,1.7,0.9,2.5,1.5l0.2,0.2l0.6,0.5h0c-1,0.3-1.9,0.6-2.8,1.1c-1.4,0.7-1.3,2.9,0,3.6h0c0-0.1,0-0.1,0,0
		c0.1,0.1,0,0,0.1,0.1h0c0.1,0.1,0.2,0.3,0.2,0.3c0,0,0,0.1,0,0.2c0,0,0,0,0,0.1v0.1c0,0,0,0.1,0,0.1s0,0,0-0.1v0.5l-0.1,0.6
		l-0.1,0.2c0,0.1-0.1,0.3-0.2,0.4c0,0,0,0-0.1,0.1l-0.6,0.5l-0.1,0.1h-0.1l-0.5,0.3l-0.6,0.3l-0.3,0.2h0c-1.7,0.6-3.5,1.1-5.2,1.8
		c-1.7,0.6-3.4,1.2-5.1,1.9c-6.9,2.9-13.5,6.5-18.9,11.8c-3,2.9-5.4,6.3-7.2,9.9c-0.5,1-0.3,2.4,0.8,2.9c1.1,0.5,2.4,0.3,2.9-0.8
		c0.8-1.6,1.8-3.3,2.8-4.8c0.1-0.2,0.3-0.4,0.4-0.5l0.2-0.3c0.2-0.3,0,0,0,0s0.8-1,0.9-1.1c0.1-0.1,1.2-1.4,1.9-2.1l2-1.9l1-0.8
		c0.3-0.3,0.6-0.5,0.9-0.8l0.1-0.1l0.3-0.2l0.6-0.4l1.2-0.9l2.2-1.5c1.6-1,3.3-1.9,5-2.7l2.5-1.2l1.4-0.6h0.2l0.8-0.3
		c1.7-0.7,3.5-1.4,5.2-2c1.8-0.6,3.9-1.2,5.8-2.1c1.9-0.9,3.9-2.7,4.4-5.1c0.3-1.1,0.2-2.2-0.1-3.3h1.3c0.5,0,1.1,0,1.6,0.1
		c1.6,0.2,2.7-1.9,1.8-3.2c-1.6-2.2-3.5-4.1-5.8-5.6c1.4-0.4,2.7-0.7,4.1-1l1.1-0.2h0.8c0.8-0.1,1.6-0.2,2.3-0.2
		c1.5-0.1,3.1-0.1,4.6,0c1.6,0.1,2.6-1.9,1.8-3.2C103.4,98.5,99.2,92.7,94.5,87.2z"/>
	<path style="stroke:#000000;stroke-width:3;stroke-linecap:round;stroke-linejoin:round;stroke-miterlimit:10;" d="M99.9,133.6
		c-6.5,1.6-11.6,6.4-15.8,11.2s-7.8,10-11,15.5c-3.2,5.5-5.8,10.8-8.7,16.2c-2.9,5.5-5.9,10.9-9.5,15.9l-1.4,1.9l-0.7,0.9h0
		l-0.1,0.1l-0.4,0.5c-0.9,1.2-1.9,2.3-3,3.4l-1.6,1.6l-0.8,0.7l-0.4,0.3l-0.3,0.2c-1.2,0.9-2.5,1.7-3.9,2.4l-0.5,0.3h-0.2l-1.2,0.4
		c-1,0.3-1.8,1.5-1.5,2.6s1.5,1.9,2.6,1.5c3.2-1.1,6.2-2.8,8.7-5.1c2.3-2.1,4.4-4.4,6.3-6.8c3.8-4.9,7-10.3,10-15.8
		c3-5.5,5.7-10.9,8.6-16.3c1.5-2.7,3-5.3,4.7-7.9c0.8-1.3,1.7-2.6,2.6-3.9l1.4-1.9c0,0,0,0,0,0c0,0,0,0,0,0l0.3-0.5l0.8-0.9
		c2-2.5,4.2-4.8,6.5-7c0.5-0.5,1.1-1.1,1.8-1.5l0.4-0.3l0.2-0.1c0.3-0.3,0.6-0.5,1-0.7c0.6-0.5,1.3-0.9,2-1.3l1-0.5l0.6-0.3l0.2-0.1
		c0.8-0.3,1.6-0.5,2.4-0.8c1.1-0.3,1.8-1.5,1.5-2.6C102.1,133.9,101,133.3,99.9,133.6z"/>
	<path style="stroke:#000000;stroke-width:3;stroke-linecap:round;stroke-linejoin:round;stroke-miterlimit:10;" d="M212.8,76.6
		c0.2-0.2,0.3-0.3,0.4-0.5l0.1-0.2l0.1-0.1c0.3-0.4,0.6-0.8,0.9-1.2c1.2-1.5,2.4-3,3.6-4.4c2.5-2.9,5.2-5.6,7.9-8.2
		c1.6-1.5,3.2-3,4.8-4.4c0.8-0.7,1.6-1.4,2.5-2l1.3-1.1l0.2-0.2l0.3-0.2l0.5-0.4c0.5-0.3,0.8-0.8,1-1.3c0.1-0.5,0.1-1.1-0.2-1.6
		c-0.5-0.8-1.9-1.5-2.9-0.8c-6.3,4.8-12.1,10.1-17.4,16c-5.2,5.8-9.9,12.1-14,18.8c-2.2,3.7-4.3,7.6-6.2,11.5
		c-0.4,0.8-0.3,1.7,0.2,2.4c0.5,0.7,1.4,1,2.2,0.8l1.5-0.3l0.7-0.1h0.3l2.8-0.2c1.9,0,3.9,0,5.8,0.3h0.3l0.7,0.1l1.5,0.3
		c0.9,0.2,1.9,0.4,2.7,0.7c0.9,0.3,1.8,0.6,2.7,0.9l0.2,0.1l-3.1,4.1c-0.8,1.1,0.1,2.7,1.3,3.1c3.3,1.1,6.7,2.2,10,3.4l-0.2,0.4
		c-0.7,1.6-0.9,3.3-0.6,4.9c0.5,3.4,3.3,5.9,5.5,8.2c1.2,1.2,2.3,2.5,3.4,3.7l0.7,0.9l0.1,0.2l0.4,0.6c0.5,0.6,1,1.3,1.4,2
		c1.9,2.7,3.5,5.6,4.9,8.7c0.2,0.4,0.4,0.8,0.6,1.3l0.1,0.3l0.3,0.6l1,2.7c0.6,1.8,1.1,3.6,1.6,5.4c0.3,1.1,1.5,1.8,2.6,1.5
		c1.1-0.3,1.8-1.5,1.5-2.6c-1.6-6.3-4.1-12.3-7.6-17.9c-1.8-2.8-3.8-5.5-5.9-7.9c-1-1.2-2.1-2.3-3.2-3.5c-0.5-0.5-1.1-1.1-1.6-1.7
		l-0.3-0.4l-0.2-0.2c-0.3-0.3-0.5-0.7-0.6-1c-0.1-0.2-0.2-0.3-0.3-0.5c0,0,0-0.1,0-0.1c0,0,0-0.1-0.1-0.2l-0.3-0.9v-1.2l0.1-0.5
		c0.1-0.1,0.1-0.3,0.2-0.5c0,0,0,0,0-0.1l0.3-0.4c0,0,0,0,0-0.1c0.1-0.1,0.3-0.2,0.3-0.3c0,0,0,0,0,0l0.3-0.1c0.8-0.3,1.4-1.1,1.4-2
		c0-0.9-0.6-1.8-1.5-2.1c-3.5-1.3-6.9-2.6-10.4-3.7c0.9-1.3,1.9-2.6,2.9-3.9c1-1.3,0.2-2.4-0.8-2.9c-5.9-3-12.4-4.3-19-3.9
		c-0.5,0-1,0-1.4,0.1c2.8-5.6,6.1-10.9,9.8-16C211.6,78.1,212.2,77.4,212.8,76.6z"/>
	<path style="stroke:#000000;stroke-width:3;stroke-linecap:round;stroke-linejoin:round;stroke-miterlimit:10;" d="M261.6,197.9
		l-0.5-0.4l-0.3-0.3l-0.8-0.7l-1.9-1.6c-1.2-1.1-2.3-2.3-3.4-3.5c-0.5-0.6-1.1-1.2-1.6-1.9l-0.7-0.9l-0.3-0.3l-0.3-0.4
		c-1-1.3-1.9-2.7-2.8-4c-3.7-5.5-6.7-11.4-9.9-17.2c-3.2-5.8-6.8-12-11.1-17.4c-4.3-5.4-9.2-9.5-15.1-12.4
		c-5.9-2.9-12.5-4.3-19.1-3.1l-2.2,0.5c-1.1,0.3-1.9,1.5-1.5,2.6c0.3,1.1,1.5,1.8,2.6,1.5c0.8-0.2,1.5-0.4,2.3-0.5l0.5-0.1h0.2
		l1.2-0.1c1.5-0.1,3-0.1,4.6,0l0.5,0.1h0.2l1.1,0.2c0.8,0.1,1.5,0.3,2.2,0.5l2.2,0.7l1,0.4l0.5,0.2l0.2,0.1c2.8,1.2,5.5,2.8,7.9,4.7
		l0.3,0.2l0.4,0.3l1,0.8l1.7,1.5c1.2,1.2,2.3,2.4,3.4,3.7c0.5,0.6,1.1,1.2,1.5,1.9c0.5,0.6,0.1,0.2,0.2,0.2l0.3,0.5l0.8,1
		c1,1.4,1.9,2.7,2.8,4.1c1.8,2.8,3.5,5.7,5.1,8.7c3.1,5.7,6.1,11.6,9.7,17.2c3.5,5.5,7.6,10.8,12.7,14.9l2.2,1.7
		c0.9,0.7,2.4,0.2,2.9-0.8C262.9,199.8,262.6,198.6,261.6,197.9z"/>
</g>
</svg>
