<?xml version="1.0" encoding="utf-8"?>
<!-- Generator: Adobe Illustrator 27.9.0, SVG Export Plug-In . SVG Version: 6.00 Build 0)  -->
<svg version="1.1" id="Layer_1" xmlns="http://www.w3.org/2000/svg" xmlns:xlink="http://www.w3.org/1999/xlink" x="0px" y="0px"
	 viewBox="0 0 312 188.3" style="enable-background:new 0 0 312 188.3;" xml:space="preserve">
<g>
	<path style="stroke:#000000;stroke-width:3;stroke-linecap:round;stroke-linejoin:round;stroke-miterlimit:10;" d="M28,54
		c-0.9,0-1.6,0.8-1.6,1.7c-0.9,7.2-0.6,14.5,0.8,21.6c1.2,6.1,3,12.1,5.3,17.9c1.1,2.8,2.3,5.6,3.6,8.3c0.4,0.8,1.5,1,2.3,0.6
		c0.8-0.4,1-1.5,0.6-2.3l-1.5-3.3c-0.2-0.6-0.5-1.1-0.7-1.7c0-0.1-0.1-0.2-0.1-0.3L36.4,96l-0.4-1c-1.1-2.7-2.1-5.4-3-8.2
		c-1-3-1.8-6.1-2.4-9.3c-0.7-3.2-1.1-6.5-1.3-9.8c-0.3-4.1-0.1-8.1,0.4-12.2C29.7,54.7,28.9,54,28,54z"/>
	<path style="stroke:#000000;stroke-width:3;stroke-linecap:round;stroke-linejoin:round;stroke-miterlimit:10;" d="M290.4,141.1
		c-1-4.4-3.1-8.6-5.3-12.6l-1.3-2.3c-0.1-0.4-0.1-0.8-0.2-1.1c0-0.2,0-0.4-0.1-0.5v-0.1c0-0.1,0-0.2,0-0.3c-0.1-0.8-0.2-1.7-0.2-2.5
		c-0.1-1.8-0.2-3.5-0.1-5.3c0.1-3.6,0.4-7.2,0.8-10.7c0.2-1.7,0.4-3.4,0.7-5.2c0.3-1.8,0.6-3.7,0.9-5.5c0.6-3.6,1.1-7.2,1.6-10.7
		s0.7-6.9,1.1-10.4l0.1-1.1c0-0.1,0-0.2,0-0.4c0-0.2,0.1-0.4,0.1-0.5c0.1-0.7,0.2-1.4,0.3-2.1c0.2-1.4,0.4-2.7,0.6-4
		c0.3-2.3,0.4-4.6,0.4-6.8c0-2.7-0.3-5.5-0.8-8.2c-0.8-4.2-1.9-8.3-3.2-12.3c-1.3-4.3-2.8-8.5-4.6-12.7c-0.6-1.2-1.2-2.7-2.2-3.6
		c-1-0.9-3.2-1.3-4.8-1.4c-1.5-0.1-3.1-0.2-4.6-0.1c-6.2,0.2-12.3,1.9-17.6,5c-2.9,1.7-5.6,3.8-8,6.1c-2.6,2.6-4.9,5.4-7.3,8.2
		c-5,5.7-10.4,11-16.1,16c-1.1,1-2.3,1.9-3.5,2.8c-8-3.3-16.9-3.3-25.3-2.5c-4.8,0.4-9.5,1.1-14.2,1.9l-6.7,1.1l-3.3,0.5l-1.6,0.2
		l-0.7,0.1h-0.5c-4,0.5-8,0.9-12,0.6c-7.6-1.9-15.3-3.3-23.2-4c-8.4-0.8-16.9-1.1-25.4-0.4c-4.1,0.3-8.2,1-12.2,2.1l-1-0.8l-1.6-1.4
		c-1.1-0.9-2.1-1.9-3.1-2.9c-2.1-2-4.1-4.2-6.1-6.3c-3.9-4.2-7.7-8.6-12.1-12.4c-8.7-7.5-19.2-13.9-31-14.4c-3-0.1-6.2,0.1-8.4,2.4
		c-2.2,2.3-2.6,4.9-3.3,7.5C24,36.3,22.8,42.7,22,49.3c-1.5,12.6-1.4,25.4,0.4,37.9c0.4,2.9,0.9,5.8,1.4,8.7
		c0.5,2.9,0.9,5.9,1.3,8.7c0.7,5.7,1.2,11.6,0.7,17.4c-0.1,1.3-0.3,2.6-0.5,3.8l-0.1,0.3c-1.3,3.8-2.6,7.5-3.4,11.4
		c-0.6,3-0.9,6-0.9,9c0,5.2,0.1,10.5,0.2,15.7c0.1,0.9,1,1.5,1.9,1.4c0.7-0.1,1.3-0.7,1.4-1.4c0-4.8-0.2-9.6-0.2-14.4
		c0-1.5,0-3.1,0.1-4.7c0-0.7,0.1-1.4,0.2-2.1v-0.1c0-0.2,0-0.3,0.1-0.5c0-0.4,0.1-0.8,0.2-1.1c0.8-3.5,1.7-7,3-10.4
		c0.2-0.7,0.4-1.2,0.6-1.9c0.1-0.1,0.1-0.2,0.1-0.4c0.7-2,1.5-3.9,2.6-5.7c0.4-0.5,0.7-1.1,1-1.5l0.2-0.2l0.3-0.4
		c0.2-0.3,0.4-0.5,0.6-0.8c0.8-1,1.7-1.9,2.7-2.7c4.3-4,9.1-7.2,12.7-12c0.5-0.7,0.1-1.9-0.6-2.3c-0.8-0.4-1.8-0.2-2.3,0.6l-0.2,0.3
		l-0.3,0.4c-0.2,0.2-0.4,0.4-0.6,0.7l-1.4,1.5c-0.9,0.9-1.9,1.8-2.9,2.7c-1.9,1.7-4,3.3-5.9,5c-1.9,1.7-3.7,3.5-5.2,5.6
		c0.1-8.7-1.5-17.4-2.9-25.9c-0.9-5.6-1.6-11.3-1.9-17c-0.4-6.4-0.3-12.8,0.2-19.2c0.5-6.3,1.4-12.6,2.7-18.8c0.6-3,1.3-5.9,2.2-8.8
		l0.3-0.8l0.1-0.4c0,0,0.1-0.3,0.1-0.3c0.1-0.3,0.2-0.5,0.4-0.7l0.3-0.4c0,0,0.2-0.3,0.2-0.4l0.5-0.5l0.3-0.3c0,0,0.1,0,0.1-0.1
		c0.5-0.4,1.1-0.6,1.8-0.7c1.3-0.2,2.7-0.2,4-0.1l2,0.2c0.6,0,1.2,0.1,1.8,0.3c2.7,0.5,5.4,1.3,8,2.3c1,0.4,2.4,1.1,3.6,1.7
		c1.1,0.6,2.4,1.3,3.6,2.1c1.2,0.8,2.4,1.5,3.6,2.4c1.1,0.8,2.2,1.5,3.2,2.4c4.5,3.5,8.4,7.6,12.2,11.8c3.8,4.2,7.7,8.5,12.1,12.2
		c1,0.9,2,1.7,3,2.5l0.5,0.4l0.1,0.2l0.1,0.1l0.2,0.4c0.1,0.2,0.1,0.4,0.2,0.6c0,0,0,0.1,0,0.1c0,0,0,0.2,0,0.2V64
		c0,0.1,0,0.4,0,0.4c0,0.2-0.1,0.4-0.2,0.6c0,0.2-0.1,0.4-0.2,0.6v0.1L91.2,66l-0.4,0.6c0,0.1-0.1,0.2-0.2,0.3l-0.1,0.1
		c0,0,0,0-0.1,0.1c-0.7,0.8-1.5,1.5-2.3,2.2l-0.4,0.3l-0.6,0.4l-1.4,1l-2.6,1.9c-1.8,1.3-3.5,2.6-5.3,3.9
		c-5.8,4.5-11.2,9.5-15.7,15.2l0.4-0.8c0.5-0.8,1-1.6,1.5-2.4c0.6-0.8,1.1-1.3,1.6-2c0.8-0.9,1.2-2,1.3-3.2c0.1-1-0.1-1.9,0-2.9
		v-0.5c0,0,0-0.1,0-0.1h0c0,0,0-0.1,0.1-0.1h0l0.2-0.2h0.1c0.5,0.4,1.1,0.6,1.8,0.4c0.8-0.4,1.1-1.2,0.9-2c-0.1-0.6-0.2-1.1-0.3-1.7
		l3.8,0.1c1.1,0,2.2-0.5,2.7-1.5c0.5-1,0.4-1.8,0.4-2.7c0-3.2-0.4-6.4-1.1-9.5c-1.5-6.2-4.5-11.9-8.7-16.7c-2.3-2.7-5.1-5.1-8.1-7
		c-0.8-0.4-1.8-0.2-2.3,0.6c-0.4,0.8-0.1,1.8,0.6,2.3l1.8,1.2l1.5,1.1c1.1,0.9,2.2,1.9,3.1,3c0.5,0.5,1,1,1.4,1.5l0.6,0.8l0.2,0.2
		c0,0,0,0,0,0c0.1,0.1,0.3,0.3,0.4,0.5c0.8,1.1,1.6,2.3,2.3,3.6c0.7,1.2,1.4,2.5,1.9,3.8c0,0.1,0.1,0.2,0.1,0.3h0
		c0,0.2,0.1,0.3,0.2,0.5l0.4,1c0.3,0.7,0.5,1.4,0.7,2.1c0.4,1.4,0.8,2.7,1,4.2c0,0.4,0.1,0.7,0.2,1c0,0.1,0,0.3,0,0.5
		c0,0.1,0,0.3,0,0.4c0.1,0.7,0.2,1.4,0.2,2.1c0,0.8,0.1,1.6,0.1,2.5s0,0.6,0,0.9H68c-1.2,0-1.8,1.1-1.6,2.1c0,0.5,0.1,0.9,0.2,1.4
		c-1.1,0.4-1.9,1.2-2.5,2.2c-0.4,0.9-0.5,1.9-0.4,2.8c0,0.4,0,0.8,0.1,1.3v0.7c0,0.1,0,0.1,0,0.2v0.2c-0.1,0.3-0.3,0.6-0.4,0.8
		c-0.1,0.1-0.2,0.2-0.3,0.4l-0.5,0.6c-1.1,1.3-2.2,2.7-3,4.2c-0.9,1.8-1.7,3.7-2.2,5.7c-0.2,0.8,0.2,1.6,1,2
		c-1.9,3.1-3.6,6.5-4.8,10c-0.3,0.9,0.3,1.8,1.1,2c0,0,0,0,0,0c0.9,0.2,1.8-0.3,2-1.1c2.8-7.9,7.8-14.8,13.8-20.7
		c3-3,6.3-5.9,9.8-8.5l2.4-1.9l2.6-1.9c1.8-1.3,3.7-2.6,5.5-3.9c1.8-1.4,3.6-3.5,4.1-6c0.3-1.5,0.2-3.1-0.4-4.5l3-0.6l2.8-0.5h1.1
		l1.5-0.2c4.1-0.4,8.2-0.6,12.4-0.6c4.2,0,8.5,0.3,12.7,0.7c2.1,0.2,4.2,0.4,6.2,0.7l0.8,0.1l0.5,0.1L137,61l3,0.4
		c4.1,0.7,8.1,1.5,12.1,2.6h0.4c3.6,0.4,7.2,0,10.7-0.4c4.4-0.5,8.7-1.2,13-1.9c2.3-0.4,4.6-0.8,6.8-1.1l1.8-0.3l0.8-0.1h0.1
		l0.6-0.1l3.4-0.4c4.6-0.5,9.1-0.7,13.7-0.5c1.2,0,2.4,0.2,3.6,0.3h0.6l0.8,0.1l1.7,0.3c1.1,0.2,2.2,0.5,3.3,0.9
		c0.4,0.1,0.8,0.3,1.2,0.4c-0.6,1.3-0.8,2.7-0.6,4c0.3,2.3,1.5,4.2,3.1,5.8c1.6,1.6,3.6,2.8,5.5,4.1l5.3,3.7
		c3.5,2.5,6.7,4.8,9.9,7.6c3.2,2.7,6.1,5.6,8.7,8.8l0.3,0.4l0.2,0.3l0.2,0.2c0.1,0.1,0.2,0.3,0.3,0.4l1,1.3c0.6,1,1.3,1.9,1.9,3
		c1.1,2,2.1,4,2.8,6.2c0.3,0.9,1.3,1.3,2.2,1c0.8-0.3,1.2-1.1,1.1-1.9c-1.2-3.3-2.8-6.5-4.8-9.5c0-0.2,0-0.4,0-0.6
		c-0.9-3.5-2.6-6.8-4.8-9.5c-0.5-0.6-1-1.2-1.4-1.8c-0.1-0.2-0.1-0.1-0.2-0.4c-0.1-0.3,0-0.2,0-0.3c-0.1-0.5-0.1-0.9,0-1.4
		c0.1-1.7,0.1-3.5-1.3-4.7c-0.4-0.4-0.9-0.7-1.5-0.9l0.3-1.5c0.2-1-0.4-2.1-1.6-2.1l-5.6,0.1v-0.5c0-0.7,0-1.5,0-2.2
		c0-0.8,0.1-2.9,0.3-4.3c0-0.2,0-0.4,0.1-0.6c0-0.1,0-0.2,0-0.3c0-0.4,0.1-0.8,0.2-1.1l0.4-2.2c0.3-1.5,0.7-2.9,1.2-4.3
		c0.2-0.7,0.4-1.4,0.7-2l0.4-1c0-0.1,0-0.2,0.1-0.3h0c0.1-0.2,0.1-0.4,0.2-0.6c0.6-1.3,1.3-2.7,2-3.9l1.1-1.8l0.6-0.8l0.3-0.4
		l0.2-0.3c1-1.3,2-2.5,3.2-3.5c0.6-0.5,1.1-1.1,1.8-1.5h0.1l0.2-0.2l0.5-0.4l1-0.7c0.8-0.5,1-1.5,0.6-2.3c-0.5-0.8-1.5-1.1-2.3-0.6
		c-5.3,3.4-9.4,8.6-12.1,14.4c-2.7,5.9-4.2,12.4-4.3,18.9c0,1.9-0.4,4.7,1.8,5.6c1.1,0.4,2.4,0.2,3.5,0.2h1.7
		c-0.1,0.6-0.2,1.1-0.3,1.8c-0.2,0.8,0.2,1.6,0.9,1.9c0.6,0.3,1.3,0.1,1.8-0.3h0.1c0,0,0.1,0.1,0.1,0.1c0,0,0,0,0,0.1l0.1,0.1v0.1
		c0,0,0,0.1,0,0.1s0,0.2,0,0.4c0,1-0.2,1.9-0.1,2.9c0,0.7,0.2,1.3,0.5,1.9c0,0,0,0-0.1-0.1c-6.2-5.7-13.3-10.3-20.2-15.1
		c-1-0.6-1.9-1.3-2.7-2.1l-0.6-0.6l-0.3-0.4l-0.1-0.1c-0.2-0.3-0.4-0.5-0.5-0.8l-0.1-0.3c0-0.1-0.1-0.2-0.1-0.3
		c-0.1-0.4-0.3-0.8-0.3-1.2c0,0,0-0.1,0-0.1v-0.4c0-0.2,0-0.4,0-0.7v-0.1c0-0.1,0.1-0.3,0.1-0.4l0.1-0.4c0,0,0,0,0,0
		c0.1-0.1,0.1-0.2,0.2-0.3c0,0,0-0.1,0.1-0.2l0.6-0.5c5.8-4.5,11.3-9.5,16.3-14.9c2.6-2.7,5-5.5,7.5-8.3c2.5-2.8,4.6-5.3,7.3-7.5
		c0.5-0.4,1.1-0.8,1.7-1.3l2-1.3c1.3-0.8,2.7-1.5,4.1-2.1l0.2-0.1l0.5-0.2l1-0.4c0.7-0.3,1.4-0.5,2.1-0.7c1.4-0.4,2.9-0.8,4.3-1
		l0.5-0.1h0.3l1.1-0.1l2.2-0.1c1.5,0,3.1,0,4.6,0.1c0.8,0,1.5,0.1,2.3,0.4c0,0,0,0,0,0h0l0.2,0.1h0c0,0,0,0,0,0.1l0.2,0.2
		c0.2,0.3,0.4,0.6,0.5,0.9c0.4,0.8,0.8,1.5,1.1,2.3c0,0,0,0,0,0l0.1,0.4l0.3,0.7c0.2,0.5,0.4,1,0.6,1.5c0.8,2.1,1.5,4.3,2.3,6.5
		c1.1,3.5,2.3,7.1,3.1,10.7c0.4,1.6,0.7,3.2,1,4.8l0.1,1c0,0.1,0,0.3,0.1,0.4c0,0.1,0,0.2,0,0.4c0,0.6,0.1,1.3,0.2,1.9
		c0.2,2.3,0.1,4.6-0.1,6.8c0,0.6-0.1,1.1-0.2,1.7c-0.1,0.6,0,0.5-0.1,0.8c0,0.3,0,0.3-0.1,0.4v0.2l-0.5,3.8
		c-0.5,3.4-0.9,6.7-1.2,10.1c-0.6,6.9-1.9,13.7-3,20.7c-0.8,5.7-1.6,11.6-1.5,17.4c-1.1-1.4-2.3-2.8-3.6-4c-2.1-2.1-4.5-3.9-6.7-5.8
		c-1.1-0.9-2.2-1.9-3.2-2.9l-1.5-1.6c-0.3-0.3-0.5-0.6-0.8-0.9l-0.4-0.4h0l-0.2-0.3c-0.5-0.8-1.5-1.1-2.3-0.6
		c-0.8,0.5-1.1,1.5-0.6,2.3c3.2,4.3,7.6,7.5,11.6,11c1,0.8,1.9,1.7,2.8,2.7c0.4,0.4,0.8,0.9,1.2,1.3c0.5,0.6,0.7,0.8,1.1,1.4
		c0.8,1.1,1.5,2.3,1.9,3.5c0.5,1.2,0.9,2.4,1.5,3.5c0.1,0.2,0.2,0.4,0.3,0.5l0.1,0.3c1.3,2.3,2.6,4.6,3.7,7c0.3,0.5,0.5,1,0.7,1.5
		c0,0.1,0.1,0.3,0.2,0.4c0.1,0.3,0.2,0.6,0.3,0.9c0.4,0.9,0.7,1.8,0.9,2.7c0.3,0.9,0.4,1.7,0.6,2.6c0,0.1,0.1,0.8,0.2,1.1v0.1
		c0,0.1,0,0.2,0,0.4c0,0.3,0,0.5,0.1,0.8c0.1,1.8,0.1,3.5,0,5.3c-0.1,1.1-0.2,2.2-0.3,3.3s-0.1,1.1-0.2,1.8c-0.1,0.6,0,0.3,0,0.4
		v0.1c0,0,0,0.1,0,0.2l-0.1,0.9l-1.3,9.4c-0.1,0.8,0.8,1.7,1.7,1.6c0.9,0,1.6-0.8,1.6-1.6c0.4-2.4,0.8-5.3,1.1-7.9
		c0.4-2.6,0.6-4.5,0.8-6.8C291.3,148.5,291.3,144.7,290.4,141.1z M73.3,67.2C73.4,67.4,73.3,67.3,73.3,67.2L73.3,67.2z M185.7,60.1
		C185.9,60.1,185.8,60.1,185.7,60.1L185.7,60.1z"/>
	<path style="stroke:#000000;stroke-width:3;stroke-linecap:round;stroke-linejoin:round;stroke-miterlimit:10;" d="M277.8,76.2
		c-0.8,3-1.8,5.9-3,8.7l-0.2,0.5l-0.1,0.2c0,0,0,0,0,0.1c0,0-0.3,0.7-0.4,1c-0.1,0.4-0.6,1.3-0.9,2c-0.3,0.7-1.2,2.6-1.8,3.8
		c-1.3,2.6-2.6,5.1-3.8,7.7c-0.4,0.8-0.2,1.8,0.6,2.3c0.8,0.4,1.9,0.2,2.3-0.6c2.3-4.9,4.9-9.7,7-14.8c2.6-6.1,4.6-12.5,5.3-19
		c0.5-4,0.5-8.1,0-12.2c-0.1-0.8-0.7-1.7-1.6-1.6c-1,0-1.8,0.7-1.7,1.6c0.5,3.5,0.5,7.1,0.2,10.7C279.3,70,278.7,73.2,277.8,76.2z"
		/>
</g>
</svg>
