<?xml version="1.0" encoding="utf-8"?>
<!-- Generator: Adobe Illustrator 27.9.0, SVG Export Plug-In . SVG Version: 6.00 Build 0)  -->
<svg version="1.1" id="Layer_1" xmlns="http://www.w3.org/2000/svg" xmlns:xlink="http://www.w3.org/1999/xlink" x="0px" y="0px"
	 viewBox="0 0 362.2 198.2" style="enable-background:new 0 0 362.2 198.2;" xml:space="preserve">
<g>
	<path style="stroke:#000000;stroke-width:3;stroke-linecap:round;stroke-linejoin:round;stroke-miterlimit:10;" d="M164.7,38.3
		c-4.1-2-8.2-4.1-12.7-5s-9.5-0.7-14.1,0.2c-2.5,0.5-5,1.3-7.4,2.2c-0.7,0.3-1.3,0.8-1.4,1.6c-0.1,0.8,0.2,1.7,0.9,2
		c2.3,1,4.5,2,6.7,3.2l3.3,1.7l1.4,0.8l0.7,0.4l0.3,0.2l0.3,0.2l0.8,0.8l0.1,0.1l0.2,0.4c0.1,0.1,0.1,0.2,0.2,0.3l0.1,0.2
		c0.3,1.1,0.6,2.1,0.7,3.2c0.4,2.1,1.3,4.2,2.4,6.1c1.3,2.2,3.1,4.1,5.1,5.6c0.8,0.6,2.2,0.2,2.7-0.7c0.4-0.9,0.2-2-0.7-2.7
		c0.4,0.3-0.2-0.2-0.3-0.3l-0.6-0.5c-0.4-0.4-0.7-0.7-1.1-1.1l-0.5-0.6l-0.2-0.2c0,0,0,0,0,0h0c-0.3-0.4-0.6-0.8-0.9-1.3l-0.7-1.3
		c-0.1-0.2-0.2-0.4-0.3-0.6l-0.2-0.4c0-0.1,0-0.1,0-0.2c-0.4-1-0.7-2-0.9-3c-0.2-1.1-0.4-2.2-0.7-3.2c-0.4-1.2-1.1-2.2-2-3.1
		c-1.8-1.6-4-2.7-6.1-3.8l-3.3-1.6l1.5-0.4l3.2-0.6h0.5l0.7-0.1c0.6,0,1.2-0.1,1.8-0.1c1.1-0.1,2.2-0.1,3.3,0l1.7,0.2h0.4l0.9,0.2
		c2.1,0.4,4.1,1,6.1,1.8l0.8,0.4h0.1l0.4,0.2l1.7,0.7l3.3,1.6c0.9,0.5,2.2,0.3,2.7-0.7C166,39.9,165.7,38.8,164.7,38.3z"/>
	<path style="stroke:#000000;stroke-width:3;stroke-linecap:round;stroke-linejoin:round;stroke-miterlimit:10;" d="M130.7,67.5
		c-5.2-1.1-10.7-0.8-15.8,0.8c-5.2,1.7-10,4.5-14,8.2c-4.2,3.8-7.7,8.3-10.4,13.2c-2.9,5.2-5,10.8-6.7,16.4
		c-0.2,0.7-0.4,1.4-0.6,2.1c-0.2,0.9,0.2,1.8,0.9,2.2c0.7,0.4,1.9,0.4,2.4-0.3c3.5-4.3,7-8.7,10.6-12.9c1.6-1.9,3.4-3.7,5.3-5.2h0.1
		l0.4-0.3l0.7-0.5c0.5-0.3,1-0.6,1.6-0.9l0.8-0.4l0.2-0.1l0.3-0.1c0.6-0.2,1.1-0.4,1.7-0.6l0.9-0.2l0.5-0.1h1.3
		c-3.1,2.6-5.1,6.3-5.8,10.2c-0.2,1,0.2,2.2,1.4,2.4s2.2-0.3,2.4-1.4c0.1-0.6,0.2-1.2,0.4-1.8c0.1-0.3,0.2-0.6,0.3-0.8l0.2-0.5
		c0,0,0-0.1,0-0.1c0.5-1.1,1.1-2.2,1.9-3.2c0,0,0,0,0,0c0.1-0.1,0.2-0.2,0.3-0.3l0.6-0.7c0.4-0.4,0.9-0.9,1.3-1.2l0.2-0.2l0.2-0.2
		l0.8-0.5l1.7-0.9c1.3-0.6,1.3-2.8,0-3.4c-5-2.4-10.9-1.2-15.4,1.8c-4.5,3-7.7,7.2-11.1,11.4c0.1-0.3,0.2-0.6,0.4-0.9
		c0-0.1,0.1-0.2,0.1-0.3c0.1-0.2,0.1-0.4,0.2-0.5c0.6-1.3,1.1-2.5,1.8-3.7c1.3-2.5,2.7-4.9,4.3-7.2l0.6-0.8l0.3-0.4l0.1-0.2
		c0.4-0.5,0.8-1,1.3-1.5c0.8-0.9,1.6-1.9,2.5-2.8c0.9-0.9,1.9-1.8,2.9-2.6l0.7-0.6h0.1l0.3-0.2l1.7-1.2c1.1-0.7,2.2-1.4,3.3-2
		l1.5-0.7l0.8-0.4c0.1,0,0.6-0.2,0.1,0l0.6-0.2c1.2-0.4,2.4-0.9,3.6-1.2l1.7-0.4l0.9-0.2l0.5-0.1h0.2c1.2-0.2,2.4-0.2,3.6-0.2
		l1.8,0.1l0.9,0.1h0.7c1.3,0.2,2.6,0.5,3.9,0.8l1.9,0.7l0.4,0.2l0.2,0.1l0.9,0.4c1.2,0.6,2.3,1.3,3.4,2l0.4,0.3l0.2,0.1l0.8,0.7
		c0.6,0.4,1,0.9,1.5,1.4c0.7,0.8,2,0.8,2.8,0c0.7-0.8,0.7-2,0-2.8C140.6,71.2,135.8,68.6,130.7,67.5z"/>
	<path style="stroke:#000000;stroke-width:3;stroke-linecap:round;stroke-linejoin:round;stroke-miterlimit:10;" d="M73.9,79.5
		c-1-0.2-2.1,0.4-2.4,1.4l-0.6,1.3l-0.1,0.2c0,0,0,0.1-0.1,0.2l-0.3,0.7l-1.2,2.6c-0.7,1.8-1.6,3.5-2.5,5.2c-0.9,1.7-1.9,3.3-3,4.8
		l-0.4,0.6l-0.2,0.2v0.1l-1,1.2c-0.6,0.7-1.3,1.4-2,2.1c-0.7,0.7-1.4,1.3-2.2,1.9l-1.1,0.9l-0.1,0.1l-0.2,0.2
		c-0.2,0.2-0.5,0.3-0.7,0.5c-1.6,1.1-3.2,2.2-4.8,3.3c-3.2,2.1-6.4,4.2-9.3,6.7c-2.9,2.5-6,5.9-7.8,9.7c-0.4,0.9-0.3,2.2,0.7,2.7
		c1,0.5,2.2,0.3,2.7-0.7c0.4-0.8,0.8-1.6,1.3-2.4l0.7-1.1l0.4-0.5l0.2-0.2c0,0,0,0,0,0c1.1-1.4,2.4-2.8,3.8-4
		c0.7-0.6,1.4-1.2,2.1-1.7l0.1-0.1l0.1-0.1l0.5-0.4c0.4-0.3,0.7-0.6,1.1-0.9l4.8-3.2c3.3-2.2,6.7-4.5,9.7-7.2
		c2.8-2.7,5.3-5.8,7.2-9.3c2.2-3.9,3.9-8,5.6-12.1C75.7,81,74.8,79.8,73.9,79.5z"/>
	<path style="stroke:#000000;stroke-width:3;stroke-linecap:round;stroke-linejoin:round;stroke-miterlimit:10;" d="M273.2,114.9
		c1.5-0.3,1.9-2.3,0.9-3.3c-1.6-1.5-3.1-3.1-4.5-4.8l-1-1.3l-0.2-0.2l-0.1-0.2l-0.6-0.7c-0.6-0.9-1.3-1.8-1.9-2.7
		c-1.2-1.9-2.3-3.8-3.3-5.8c-1.1-2.1-2-4.2-3.2-6.3c-4.1-7.4-10.7-13.7-19.1-15.8c-1.4-0.4-2.9-0.6-4.4-0.7h0.1
		c1.7-0.6,3.4-1.2,5.2-1.6c0.9-0.2,1.7-0.4,2.6-0.5l0.6-0.1h0.3l1.5-0.2c2-0.2,4.1-0.2,6.1,0c1.7,0.1,2.7-2.3,1.4-3.4
		C246.4,61,237.2,57,227.4,56c-9.3-0.8-18.5,1.5-26.3,6.4c-2.2,1.4-4.3,3-6.1,4.8c-0.9,0.9-1.8,1.8-2.6,2.8c-1,1.3-1.9,2.7-1.8,4.4
		c0.1,1,0.9,2,2,2c1.1,0,2-0.9,2-2V74l0.1-0.4h0c0.1-0.2,0.3-0.5,0.4-0.7l0.2-0.2l0.2-0.3c0.7-0.8,1.4-1.6,2.1-2.3
		c0.7-0.7,1.6-1.5,2.4-2.1l0.6-0.5h0l0.2-0.2l1.4-1c1.7-1.2,3.6-2.3,5.6-3.2l0.7-0.4l0.3-0.1c-0.5,0.2,0,0,0.1,0l1.5-0.6
		c1-0.4,2-0.7,3.1-1c1.1-0.3,2-0.5,3.1-0.7l1.5-0.2l0.3-0.1h0.1l0.9-0.1c2.2-0.2,4.3-0.2,6.5-0.1c0.6,0,1.1,0.1,1.6,0.1l0.8,0.1h0.6
		c1.1,0.2,2.2,0.4,3.2,0.6c2.2,0.5,4.3,1.2,6.4,2l0.9,0.4l0.5,0.2l1.7,0.8c1.1,0.6,2.2,1.2,3.3,1.8l1.4,0.9
		c-7.8,0.6-15.4,3.4-21.6,8.2c0,0,0,0,0,0l-0.4,0.3c-0.8,0.6-0.7,1.9-0.2,2.6c0.6,0.7,1.6,0.9,2.5,0.5h0.1l0.4-0.2L228,78l1.7-0.5
		l1.5-0.3h0.3l0.9-0.1c1.1-0.1,2.1-0.1,3.2,0l1.4,0.2l0.5,0.1l0.9,0.2c1,0.2,2,0.5,3,0.9l0.7,0.3l0.4,0.1l1.4,0.7
		c0.8,0.4,1.7,0.9,2.4,1.4l1.1,0.8l0.2,0.2l0.2,0.1l0.2,0.2l0.4,0.3c1.5,1.2,2.9,2.6,4.1,4L253,87h0l0.2,0.3l0.9,1.2
		c0.6,0.9,1.1,1.8,1.7,2.7c2.2,3.9,3.9,8,6.2,11.8c1.8,2.8,3.9,5.6,6.1,8.1l-0.6-0.2l-1.7-0.5l-0.4-0.2L265,110l-0.7-0.3l-1.7-0.9
		c-1.1-0.6-2.2-1.3-3.2-2c-2.1-1.4-4.1-2.9-6.3-4.1c-2.2-1.3-4.6-2.3-7-3c-2.8-0.9-5.7-1.4-8.6-1.6c-1.1,0-2,0.9-2,2
		c0,1.1,0.9,1.9,2,2l1.9,0.2h0.1l0.4,0.1l1,0.2c1.2,0.2,2.4,0.5,3.6,0.9s2.2,0.7,3.3,1.2l0.3,0.1c0.1,0.1,0.2,0.1,0.3,0.2l0.9,0.4
		l1.7,0.9c4.6,2.6,8.4,6.1,13.4,8C267.3,115.2,270.3,115.4,273.2,114.9z"/>
	<path style="stroke:#000000;stroke-width:3;stroke-linecap:round;stroke-linejoin:round;stroke-miterlimit:10;" d="M348.4,129.4
		c-3.2-5.9-8.6-10.1-13.8-14.2c-2.7-2.2-5.4-4.3-7.8-6.9c-2.4-2.5-4.2-5.3-6.1-8.2c-1.9-2.8-3.9-5.9-6.2-8.7c-0.6-0.7-1.3-1.5-2-2.2
		c1.8,0.6,3.7,1.1,5.6,1.4c3.3,0.5,6.7,0.3,9.9-0.9c0.8-0.2,1.4-1,1.5-1.9c0-0.9-0.6-1.7-1.5-1.9c-5.4-1.5-10.4-3.9-14.9-7.2
		c-4.5-3.3-8-7.5-11.4-11.9c-3.4-4.3-7.1-9-12.1-12s-10.1-4.3-15.5-5.1c-5-0.6-10-0.7-15-0.6c2.6-3.2,6.3-5.2,10.4-5.7
		c1.5-0.2,2.4-1.5,1.7-3c-2.7-5-7.8-7.9-13-9.5c-2.8-0.8-5.6-1.4-8.4-1.7c-3.7-0.5-7.3-0.9-11-1l-5.1-0.2c4.6-2.2,9.6-3.4,14.8-3.7
		c2.2-0.1,2.8-3.3,0.6-3.9c-15.9-4.1-32.6-4.3-48.7-0.7c-4.4,1-8.7,2.3-13,3.9c-0.4,0.2-0.7,0.4-1,0.7l-3.2-2.1
		c-5.7-3.3-11.8-5.9-18-8.2c-4.1-1.5-8.3-2.8-12.8-1.9c-1.5,0.3-1.9,2.3-0.9,3.3l5.7,5.7l2.2,2.2c-7.7-1.4-15.5-2.2-23.3-2.4
		c-8.6-0.2-17.4,1-25,5.4c-4,2.3-7.6,5.4-10.6,8.9c-0.3,0.3-0.4,0.6-0.5,1c-3.7,1.7-7.3,3.7-10.6,6.1c-2,1.5-4,3.1-5.8,4.8
		c-0.9,0.8-1.8,1.7-2.6,2.6c-0.9,0.9-1.5,1.8-2.3,2.6c-0.7,0.6-1.4,1.2-2.2,1.6c-0.9,0.6-1.9,1.2-2.8,1.9c-1.9,1.4-3.7,2.9-5.4,4.5
		c-1.9,1.9-3.6,3.8-5.2,5.9c-1.7,2.2-3.2,4.6-4,7.3c0,0.2-0.1,0.3-0.1,0.4c-2.1,1.9-4.1,3.9-5.9,6c-3.7,4.1-7.3,8.3-11.4,12
		s-8.7,6.2-12.9,9.5s-8.2,7.6-10,13c-3.9,11.3,0.6,23.3,6.2,33.2c0.7,1.3,1.5,2.6,2.3,3.9c0.8,1.3,2.6,1.1,3.3,0
		c1.8,3.9,4.2,7.5,7.1,10.7c3.2,3.5,7.2,6.1,10.6,9.5c1.8,1.8,3,3.7,4.2,6s2.6,4.5,5.2,5.6c1.3,0.6,3-1.1,2.4-2.4
		c-2-4.8-3.5-9.9-4.5-15.1c-1-4.9-1.7-10.1-0.2-15c2.6-8.8,10.4-15,14.7-23.1c2.6-4.9,4.1-10.5,2.6-16c-0.3-1-1.4-1.7-2.4-1.4
		c-1,0.3-1.7,1.4-1.4,2.4c1.2,4.3,0,8.8-2,12.8c-2,4-5.2,7.9-8.1,11.6c-2.8,3.7-5.4,7.5-6.9,12c-1.7,5.1-1.3,10.6-0.4,15.8
		c0.3,1.9,0.7,3.7,1.2,5.6l-0.6-0.7c-3.1-3.4-7-5.9-10.2-9.1c-4.5-4.6-7.9-10.2-9.7-16.3c-0.3-1.1-0.6-2.1-0.8-3.2
		c-0.1-0.5-0.2-1-0.3-1.5c-0.1-0.5-0.1-0.5-0.2-0.7c0-0.3,0-0.3,0-0.4c0-0.2,0-0.1,0-0.2c-0.3-2.4-0.4-4.9-0.3-7.4
		c0.1-2.4,0.5-4.7,1.1-7c0.6-2.2-2.4-3.5-3.6-1.5c-2.5,4.3-3.9,9.1-4.1,14.1c-2.2-5.7-3.4-11.8-2.2-18c0.5-2.5,1.4-5,2.8-7.1
		c1.4-2.1,3-3.9,5-5.5c3.9-3.3,8.6-5.9,12.7-9.2c8.5-6.8,14.4-16.3,23-22.8c4.4-3.3,9.2-5.9,14.3-8c2.6-1.1,5.2-2,7.8-2.8
		c2.4-0.7,4.9-1.3,7.3-2.1c2.4-0.9,4.8-2,6.5-4c1.7-2,2.6-4.8,3.8-7.3c2-4.5,5.2-8.3,9.2-11.1c1-0.7,2.1-1.4,3.2-2
		c1.4-0.8,1.2-3.2-0.5-3.6c-3-0.7-6.1-0.4-9.1,0.4l0.6-0.5l0.6-0.5l0.1-0.1l0.3-0.2c0.8-0.6,1.6-1.1,2.4-1.6c0.8-0.5,1.7-1,2.6-1.5
		l1.3-0.6l0.7-0.3l0.2-0.1l0.2-0.1c1.9-0.8,3.9-1.4,5.9-1.9c1-0.2,2-0.4,3.1-0.6l0.5-0.1h0.6l1.6-0.2c2-0.2,4.1-0.2,6.2-0.2
		c4.3,0,8.6,0.3,12.9,0.8l3.8,0.4l0.9,0.1h0l0.6,0.1l1.9,0.3c2.5,0.4,5,0.8,7.6,1.3c0.8,0.2,1.9-0.1,2.2-0.9
		c0.4-0.9,0.5-1.9,0.3-2.8c-0.3-0.8-0.7-1.5-1.2-2.1c-0.9-1.1-2-2.1-3.1-3.1l-3.1-3l0.5,0.1c1.8,0.4,3.5,0.9,5.2,1.5
		c1.5,0.5,3,1.1,4.5,1.7l2.2,0.9l0.4,0.2l0.3,0.1l1.1,0.5c2.9,1.3,5.7,2.7,8.4,4.3c1.4,0.8,2.7,1.7,4,2.5c0.6,0.4,1.3,0.9,1.9,1.3
		l0.9,0.7l0.2,0.1l0.5,0.4c2.1,1.7,4.1,3.6,5.9,5.6c-1.6,0.7-3.1,1.5-4.5,2.5c-10.4,6.7-16,18.7-14.6,31c0.1,1,0.8,2,2,2
		c1.1,0,2.1-0.9,2-2c-0.2-1.9-0.3-3.7-0.2-5.6l0.1-1.4c0-0.1,0-0.2,0-0.3v-0.3c0-0.2,0-0.3,0.1-0.4c0.2-0.9,0.3-1.8,0.6-2.7
		s0.5-1.8,0.8-2.6c0.3-0.9,0.3-0.9,0.5-1.3c0-0.1,0.1-0.2,0.2-0.3c0.1-0.2,0.2-0.5,0.3-0.7c0.7-1.7,1.7-3.3,2.7-4.8l0.4-0.6l0.2-0.3
		l0.1-0.2l0.1-0.1l0.2-0.2l0.4-0.6c0.6-0.7,1.2-1.3,1.8-1.9c0.6-0.6,1.3-1.2,1.9-1.8l0.6-0.4l0.2-0.2l1.1-0.8c1.4-1,3-1.9,4.5-2.6
		l0.7-0.3h0.2l1.2-0.5c0.8-0.3,1.7-0.6,2.5-0.8c0.8-0.2,2-0.5,3-0.6h1.1c-1.3,1.1-2.8,2.2-4.1,3.3c-3.2,2.6-6.4,5.5-8.4,9.2
		c-1.2,2.2-1.8,4.6-1.8,7.2c0,1.1,0.9,1.9,2,2c1-0.1,2-0.9,2-2c0-0.5,0-0.9,0-1.4v-0.1c0-0.1,0-0.2,0-0.3c0-0.2,0.1-0.5,0.2-0.7
		c0.1-0.4,0.2-0.9,0.4-1.3c0.1-0.2,0.1-0.4,0.2-0.5c0.1-0.2,0.2-0.4,0.3-0.6c0.4-0.9,0.9-1.7,1.5-2.5l0.2-0.2l0.5-0.6
		c0.3-0.4,0.7-0.8,1.1-1.2c2.8-3,6.2-5.2,9.2-7.8c1.9-1.7,3.5-3.6,4.8-5.7c0.6-0.9,0.2-2.1-0.7-2.7c-0.7-0.4-1.7-0.3-2.4,0.3
		c0,0-0.1,0.1-0.2,0.2h0l-0.6,0.4l-0.3,0.1l-0.6,0.2l-1.2,0.3l-0.6,0.1h-0.4c-1.9,0.2-3.7,0.5-5.6,0.9l-1.6,0.4
		c-2.3-2.7-4.9-5.2-7.7-7.4c14.5-5.2,29.9-6.9,45.1-5.2l3,0.4c-4.6,1.4-8.9,3.5-12.8,6.3c-0.7,0.5-1.1,1.3-0.9,2.2
		c0.2,0.9,1,1.5,1.9,1.5c7.1-0.4,14.2-0.1,21.2,0.7c5.2,0.6,10.6,1.5,15,4.1c1.5,0.8,2.8,1.9,3.8,3.2c-5.4,1.5-9.9,5.1-12.4,10.1
		c-0.6,1.3,0.1,3,1.7,3c10.4-0.4,21.9-0.8,31.2,4.4c4.8,2.7,8.3,6.9,11.7,11.2c3.3,4.3,7,8.7,11.5,12.2c2.8,2.2,5.9,4.1,9.1,5.6
		c-2.7-0.4-5.4-1.1-7.9-2.2c-5.3-2.2-10.1-5.3-15.4-7.4c-3-1.3-6.3-2-9.5-2.2c-1,0-1.8,0.7-1.9,1.7c-0.1,0.9,0.5,1.9,1.4,2.2
		c5.9,2.2,11.8,4.6,17.2,8c2.6,1.6,5.1,3.5,7.2,5.7c2.2,2.4,4.2,4.9,5.9,7.6c1.9,2.8,3.7,5.7,5.8,8.4c2,2.6,4.4,4.9,6.9,7
		c4.8,4.1,10.6,7.6,14.3,12.8c2,2.6,3.3,5.6,3.9,8.7c0.5,2.1,0.3,4.4-0.4,6.4c-6.7-4.6-14.9-6.9-23-6.2c-1.1,0.1-2,0.9-2,2
		c0,1.1,0.9,1.9,2,2c0.9,0,1.7,0.3,2.5,0.7c0.8,0.4,1.5,1,2.1,1.7c0.6,0.7,1.1,1.5,1.5,2.3c0,0,0.2,0.5,0.2,0.6
		c0.1,0.3,0.2,0.5,0.2,0.8c0.1,0.4,0.2,0.8,0.2,1.2c0,0.9-0.1,1.7-0.4,2.5c-0.5,1.2-1.1,2.3-1.6,3.5c-0.6,1.3-0.9,2.8-0.8,4.3
		c-3.7,0.8-7.4,2.2-10.7,4.1c-1.9,1-4.2,2.2-5.4,4.1c-0.7,1.1-0.9,2.4-0.6,3.6c0.2,1.1,0.7,2,0.7,2.9c0,3.5-2.9,6.4-6.3,7.4
		c-4.1,1.2-8.6,0.6-12.6-0.6c-3.9-1.1-7.5-3.3-10.2-6.4c-2.3-2.8-3.9-6.2-4.9-9.7c-2.3-7.6-2.4-15.3-3.9-23.1
		c-1.5-7.8-5-16.9-12.5-21.5c-2.2-1.3-4.1,2-2,3.4c3,1.9,5.4,4.5,6.9,7.7c1.7,3.2,2.8,6.9,3.6,10.6s1.1,7.2,1.6,11.1
		c0.5,3.8,1.1,8.3,2.3,12.2s2.7,7.6,5.1,10.8c2.7,3.5,6.3,6.2,10.5,7.8c7.8,3.2,19.7,4.2,24.8-4.1c1.3-2.1,1.8-4.6,1.5-7
		c-0.1-0.6-0.2-1.1-0.4-1.7c-0.1-0.2-0.2-0.5-0.2-0.8c0-0.1,0-0.3,0-0.3c0.3-0.7,1.5-1.3,2.2-1.8c4.3-2.8,9.1-4.6,14.1-5.3
		c1.5-0.2,1.9-2.4,0.9-3.3c-0.1,0-0.5-0.4-0.3-0.2c0.2,0.1,0-0.2-0.1-0.2c0,0,0,0,0,0v-0.2c0,0,0,0,0-0.1v-0.3c0,0,0-0.3,0-0.3
		c0.2-0.8,0.4-1.5,0.8-2.2c0.9-1.9,1.8-3.7,2-5.7c0.2-2.8-0.7-5.7-2.4-7.9c5.2,0.9,10.2,3,14.4,6.3c1,0.8,2.4,0.8,3.1-0.4
		C352.5,141.8,351.4,134.9,348.4,129.4z M108.6,37.5l1.5-0.4c-2.4,2-4.4,4.3-6.1,6.9c-1.5,2.3-2.6,4.7-3.6,7.2
		c-0.4,1.1-1,2.2-1.8,3.1c-0.7,0.8-1.7,1.5-2.6,2c-2,1.1-4.5,1.7-6.8,2.3c-2.4,0.6-5.4,1.6-8,2.5c-5.1,1.8-9.9,4.2-14.5,7.1
		c1.1-1.5,2.2-2.8,3.5-4.1c1.5-1.5,3-2.9,4.6-4.2c1.7-1.3,3.5-2.2,5.2-3.5c1.7-1.2,3.2-3.2,4.7-4.8c4.8-5,10.5-8.9,16.8-11.8
		C103.9,39.1,106.2,38.2,108.6,37.5z"/>
	<path style="stroke:#000000;stroke-width:3;stroke-linecap:round;stroke-linejoin:round;stroke-miterlimit:10;" d="M307.3,147.1
		c1.9,0.5,3.6,1.1,5.5,1.6c2.1,0.6,4.3,0.6,6.5,0.2c0.7-0.2,1.2-0.7,1.4-1.3c0.2-0.7,0-1.4-0.5-1.9l-0.6-0.8l-0.2-0.3l-0.2-0.2
		l-1.1-1.5c-0.8-1-1.5-2-2.2-3.1c-0.7-1.1-1.3-2-1.9-3.1c-0.6-1.1-0.6-1.1-0.9-1.7c-0.2-0.2-0.3-0.5-0.4-0.7
		c-0.1-0.2-0.2-0.3-0.2-0.5c0-0.1-0.1-0.2-0.1-0.3c-2-4.9-2.4-10.2-3.7-15.3c-1.2-4.9-3-9.6-5.5-14c-2.3-4.2-5.2-8.2-8.7-11.5
		c-3.5-3.2-8.9-6.4-14.4-6.1c-1.1,0-2,0.9-2,2s0.9,2,2,2c0.6,0,1.1,0,1.7,0l0.6,0.1h0l0.6,0.1c0.5,0.1,1,0.2,1.5,0.4l0.7,0.2
		l0.4,0.2h0.1c1,0.4,2,0.9,2.9,1.5l1.3,0.9l0.1,0.1l0.2,0.2l0.7,0.6c1.7,1.5,3.2,3.2,4.6,4.9l0.3,0.4l0.5,0.7c0.4,0.5,0.7,1,1.1,1.5
		c0.4,0.6,1.3,2,1.9,3.1c0.6,1.1,1.2,2.1,1.7,3.2c0.5,1.1,0.5,1,0.7,1.5c0.1,0.2,0.2,0.5,0.3,0.8c0,0,0.1,0.3,0.2,0.3l0.1,0.3
		c0.9,2.2,1.7,4.6,2.3,6.9c1.3,5,1.7,10.3,3.5,15.2c1.6,4.1,4,7.8,6.6,11.3l-0.5-0.1c-1.6-0.3-3.1-0.8-4.6-1.3
		c-2.8-0.9-5.7-1.4-8.6-0.9c-1.7,0.3-3.2,1-4.5,2c-0.8,0.6-0.7,2.1,0,2.8c0.7,0.7,2,0.7,2.8,0l0.2-0.2l0.5-0.3l0.2-0.1l0.5-0.2
		l1.1-0.3h2.9v0C305.7,146.6,306.5,146.8,307.3,147.1z"/>
</g>
</svg>
