<?xml version="1.0" encoding="utf-8"?>
<!-- Generator: Adobe Illustrator 27.9.0, SVG Export Plug-In . SVG Version: 6.00 Build 0)  -->
<svg version="1.1" id="Layer_1" xmlns="http://www.w3.org/2000/svg" xmlns:xlink="http://www.w3.org/1999/xlink" x="0px" y="0px"
	 viewBox="0 0 217.3 233.2" style="enable-background:new 0 0 217.3 233.2;" xml:space="preserve">
<g>
	<path style="stroke:#000000;stroke-width:3;stroke-linecap:round;stroke-linejoin:round;stroke-miterlimit:10;" d="M195.5,188.9
		c-0.1-3.2-1.6-6.1-2.8-9c-4.7-11.5-5.9-24.1-6.1-36.4c-0.2-13,1-26.3-1.4-39.3c-1.2-6.5-3.4-12.8-5.4-19.1
		c-1.1-3.2-2.1-6.5-3.2-9.7c-1.1-3.2-1.8-5.8-3.3-8.5c-2.2-4.2-6.8-8.6-11.8-7.7c-1.5-3.2-3.2-6.3-5.2-9.2c0,0,0,0,0-0.1
		c-0.1-0.1-0.1-0.2-0.2-0.3c-1.5-2.3-3.2-4.4-5-6.5c-7.7-8.8-17.7-15.3-28.6-19.3c-3.1-1.1-6.2-2.2-9.5-2.7c-3.3-0.5-6.6,0-9.9,0.6
		c-6.2,1.1-12.3,2.9-18,5.8c-5.1,2.5-9.8,5.9-13.7,10c-1.9,2.1-3.4,4.5-5.2,6.7c-0.1,0.1-0.2,0.3-0.3,0.4c-0.4,0.4-0.8,0.7-1.2,1.2
		c-0.5,0.4-1.1,0.8-1.7,1.2c-1.3,0.8-2.6,1.4-3.8,2.4c-3.9,3-5.6,7.7-8,11.8c-1.1,1.9-2.5,3.7-4.4,5c-1.9,1.2-5.1,2.5-6.9,4.7
		c-1.8,2.2-3,5.3-4.3,8c-1.2,2.7-2.7,6.2-4,9.3c-2.6,5.9-5,12-4,18.5c0.2,1.5,0.8,3,1,4.6c0.1,1.4,0.2,2.9,0.2,4.3
		c0,3.2,0.2,6.4,0.4,9.5c0.3,6.3,0.7,12.6,0.7,18.9c0.1,11.9-0.8,24.1-5.2,35.3c-0.6,1.4-1.1,2.7-1.8,4c-0.7,1.3-1.5,2.8-1.9,4.3
		c-0.8,3,0.8,6.1,2.1,8.7c2.5,5,6.1,9.4,10.6,12.7c10,7.1,23.2,6.5,33.9,1.3c5.1-2.6,10.2-6.2,13.8-10.8c2-2.4,3.5-5.1,4.4-8
		c1-3,1.4-6.2,1.8-9.4c0.7-6.1-0.7-11.9-1.9-17.8c-1-3.8-2.1-7.6-3.4-11.3c0-0.3,0-0.5,0-0.7c-1.2-6.5-2.9-12.9-4.8-19.2
		c-1-3.1-2-6.2-3.2-9.3c-1.1-3-2.4-6-3.4-9c-1.1-3-2-6.1-2.6-9.2c-0.1-0.3-0.1-0.7-0.2-1c0,0,0-0.2,0-0.3c0-0.1,0-0.5-0.1-0.7
		c0-0.2-0.1-1.5-0.1-2.3c0-1.7,0.1-3.3,0.3-5c0.2-1.7,0.3-3.4,0.4-5.1c0-1.7-0.1-3.3-0.3-5c-0.4-3.5-1.1-6.9-1.8-10.2
		c-0.3-1.5-0.6-3.1-1-4.6c-0.4-1.5-0.8-2.9-1.2-4.4c-0.2-0.7-0.4-1.5-0.5-2.2l-0.2-1.1c0-0.2-0.1-0.4-0.1-0.6c0-0.1,0-0.1,0-0.2l0,0
		c-0.1-0.7-0.1-1.4-0.1-2.2c0-0.3,0-0.7,0-1c0-0.1,0-0.3,0-0.4c0-0.1,0-0.3,0.1-0.4c0.1-0.7,0.3-1.4,0.6-2.1c0,0,0-0.1,0-0.1
		c0.5-1.4,1-2.7,1.4-4.1c0.1-0.4,0.3-0.8,0.4-1.1l0.2-0.6l0.1-0.2c0-0.1,0.1-0.2,0.1-0.3c0.3-0.7,0.6-1.3,1-1.9l0.1-0.1
		c0.6-0.6,1.2-1.2,1.7-1.9c1.7-2.2,3.2-4.6,5.2-6.6c1.9-2,4-3.8,6.2-5.4c4.8-3.3,10.2-5.8,15.8-7.3c3.1-0.9,6.2-1.6,9.4-2.1
		c3.1-0.6,6.3-0.4,9.4,0.4c11.4,2.9,21.8,8.7,30.1,17c3,2.9,5.6,6.2,7.9,9.6l0.5,0.9l0.1,0.3c0,0,0,0,0,0c0,0,0,0.1,0,0.1l0.1,0.3
		c0.2,0.6,0.4,1.2,0.5,1.8c0,0.1,0,0.1,0,0.2v0.4c0,0.3,0,0.6,0,0.8c0,0.1,0,0.3,0,0.4l0,0c0,0.3-0.1,0.5-0.1,0.8
		c-0.1,0.5-0.3,1-0.5,1.5c-0.1,0.3-0.1,0.5-0.3,0.7l0,0c-0.1,0.1-0.1,0.3-0.2,0.4c-0.5,1.1-1,2.1-1.4,3.2c-0.4,1.1-0.7,2.3-0.8,3.5
		c-0.2,1.5,0.1,3.1,0.2,4.6c0.3,3.7,0.8,7.4,1.1,11.1c0.4,3.6,0.5,7.3,0.3,10.9c0,1-0.1,1.9-0.2,2.8c-0.1,0.9-0.1,0.8-0.1,1.3
		c0,0.1-0.1,0.3-0.1,0.4l-0.1,0.7c-0.3,1.8-0.8,3.6-1.3,5.4c-1.1,3.5-2.5,6.8-3.8,10.1c-1.3,3.3-2.6,6.9-3.7,10.4
		c-2.3,7-4.1,14.2-6,21.3l-0.6,2.4c-1.1,2.3-2,4.6-2.8,7c-4.4,14-3.6,29,2.4,42.4c1.1,2.5,2.4,5.4,4.3,7.4s5.6,2.6,8.6,3l3.2,0.4
		l3.7,0.2h2.7c6.5-0.1,13-1,19.2-2.9c5.6-1.7,11.3-4.1,14.8-9.1C194.7,194.6,195.6,191.8,195.5,188.9z M81.2,161.9
		c0.3,1.1,0.6,2.1,0.8,3.2c0.7,3,1.4,6,1.8,9.1c0.4,3,0.3,6-0.1,9c-0.4,3-0.9,6-2.1,8.8c-1.1,2.6-2.8,4.9-4.8,6.9
		c-7.9,8-19.6,13.3-31,11.1c-5.5-1-10.5-3.7-14.3-7.9c-1.8-2-3.4-4.2-4.7-6.5c-0.7-1.2-1.2-2.4-1.8-3.6c-0.5-1.2-1-2.4-0.7-3.7
		s1.3-2.7,1.9-4c0.6-1.3,1.2-2.8,1.8-4.2c1.1-2.8,1.9-5.6,2.6-8.5c1.4-5.8,2.2-11.8,2.5-17.8c0.3-6.1,0.2-12.2,0-18.3
		s-0.8-12.9-0.9-19.4c0-3-0.3-6-1-8.9c-0.7-2.9-0.6-5.9,0.1-8.8c0.7-2.9,2-6,3.3-8.9c1.2-2.9,2.7-6.2,4-9.2c1.1-2.5,2.1-5.5,4-7.5
		c1.9-2,4.6-2.7,6.8-4.3c4-3,5.7-7.7,8.2-11.9c1-1.7,2.2-3.4,3.9-4.6c-0.1,0.5-0.3,0.9-0.5,1.4c-0.1,0.5-0.5,1.4-0.8,2.2l0,0
		l-0.1,0.1c-0.1,0.1-0.1,0.3-0.2,0.4l-0.7,1.4c-1,2-1.7,4.2-2.9,6.1c-1.2,1.9-2.8,3.3-4.2,5c-1.4,1.7-2.9,3.9-3.5,6.3
		c-0.3,1.2-0.3,2.5,0,3.7c0.3,1.2,0.8,2.3,1.4,3.4c0.2,0.4,0.3,0.8,0.5,1.2c0.1,0.3,0.1,0.6,0.2,0.8v0.1c0,0.1,0,0.3,0,0.5
		c0,1.1-0.1,2.1-0.3,3.1c-0.5,2.3-1.3,4.4-1.7,6.7c-0.4,2.4-0.4,4.9,0,7.3c0.7,4.6,2.5,8.9,4.9,12.9c2.4,3.9,5.5,7.7,8.5,11.4
		l8.2,10.9C75.4,144.7,78.8,153,81.2,161.9z M64.1,83.7c0.1,0.4,0.1,0.8,0.2,1.2c0,0.1,0,0.2,0,0.3v0.2c0,0.2,0,0.3,0.1,0.5
		c0.1,0.8,0.2,1.7,0.2,2.5c0.1,1.7,0.1,3.3,0,5c-0.1,1.7-0.4,3.4-0.5,5.1c-0.1,1.6-0.1,3.2,0.1,4.8c0.4,3.3,1.1,6.5,2.1,9.7
		c1,3,2.2,6.1,3.3,9.1c1.1,3,2.3,6.2,3.3,9.3c0.6,1.7,1.1,3.5,1.6,5.2c-1.9-3.2-4.1-6.4-6.5-9.3c-2.8-3.6-5.9-7-8.5-10.6
		c-1.4-1.8-2.6-3.8-3.7-5.8c-1-1.9-1.8-3.9-2.5-5.9c-0.3-1.1-0.6-2.1-0.8-3.2l-0.1-0.8c0-0.2,0-0.2-0.1-0.6
		c-0.1-0.6-0.1-1.1-0.1-1.7c-0.1-2.1,0.2-4.2,0.8-6.2c0.6-2.3,1.3-4.6,1.4-7c0-1.2-0.1-2.4-0.4-3.5c-0.2-0.6-0.5-1.2-0.7-1.8
		l-0.3-0.7L53,79.1c0-0.1-0.1-0.2-0.1-0.3c-0.2-0.5-0.3-1-0.4-1.4c0,0,0-0.5,0-0.6v-0.4c0,0,0-0.4,0-0.4c0.1-0.9,0.5-1.8,0.9-2.6
		c1-1.9,2.5-3.3,4-5c1-1.1,1.9-2.2,2.7-3.5c0.6,3,1.6,5.9,2.2,8.8c0.4,1.6,0.6,3.2,1,4.8C63.5,80.3,63.9,82,64.1,83.7z M146.3,128.3
		c1.1-3.6,2.3-7.1,3.6-10.6c1.3-3.5,2.8-6.8,4-10.3c1.2-3.6,2.1-7.3,2.5-11.1c0.3-3.7,0.3-7.4,0-11.1c-0.3-3.7-0.7-7.5-1.1-11.2
		c-0.2-1.9-0.4-3.7-0.5-5.5c0-0.3,0-0.6,0-0.8v-0.4c0,0,0-0.1,0-0.1c0.1-0.5,0.2-1,0.3-1.5c0.1-0.5,0.3-1,0.6-1.5l0,0
		c0.1-0.1,0.1-0.2,0.1-0.3c0.1-0.3,0.2-0.6,0.4-0.8c0.5-1.1,1-2.1,1.3-3.2c0-0.1,0-0.2,0.1-0.3c1.9,3.8,3.3,7.8,4.4,11.9
		c1.5,5.8,2.3,11.7,2.2,17.6c0,3.3-0.3,6.7-0.7,10c-0.4,3.3-0.7,6.5-1.5,9.7c-1.4,6.1-5.2,10.8-9,15.6c-3.2,4.1-6.4,8.2-9.4,12.4
		C144.6,134,145.5,131.1,146.3,128.3z M190.7,193.7c-1.3,2.5-3.3,4.3-5.7,5.7c-2.4,1.4-5.3,2.5-8.1,3.3c-3.1,0.9-6.2,1.6-9.4,2.1
		c-6.3,0.9-12.7,0.8-18.9-0.1c-1.4-0.2-2.9-0.4-4.1-1.1c-1.2-0.7-1.8-1.8-2.4-2.9c-1.4-2.5-2.6-5.1-3.6-7.8c-1.9-5.4-3-11-3.3-16.7
		c-0.4-8.8,1.3-17.7,5.1-25.7c0.1-0.1,0.2-0.4,0.3-0.6l0,0c1.1-2.4,2.4-4.6,3.7-6.8c3.2-5.2,6.9-10.1,10.7-14.9
		c3.8-4.8,8-9.6,10-15.5c1.1-3.1,1.5-6.4,2-9.7c0.4-3.3,0.8-6.8,1-10.2c0.4-6.2-0.1-12.5-1.3-18.7c-0.8-3.9-1.9-7.7-3.4-11.3
		c4.3,0.2,7.3,5.9,8.6,9.4c2.2,6.2,4.1,12.6,6.2,18.9c2,6.3,3.9,12.7,4.6,19.4s0.6,13.5,0.6,20.3c-0.1,12.6-0.2,25.2,2.4,37.6
		c0.6,3,1.4,6,2.4,9c1,2.9,2.5,5.7,3.4,8.7S192,191.2,190.7,193.7z"/>
</g>
</svg>
