<?xml version="1.0" encoding="utf-8"?>
<!-- Generator: Adobe Illustrator 27.9.0, SVG Export Plug-In . SVG Version: 6.00 Build 0)  -->
<svg version="1.1" id="Layer_1" xmlns="http://www.w3.org/2000/svg" xmlns:xlink="http://www.w3.org/1999/xlink" x="0px" y="0px"
	 viewBox="0 0 311.8 254" style="enable-background:new 0 0 311.8 254;" xml:space="preserve">
<g>
	<path style="stroke:#000000;stroke-width:3;stroke-linecap:round;stroke-linejoin:round;stroke-miterlimit:10;" d="M288.6,213.4
		c-0.8-3.9-1.8-7.7-2.9-11.5c-0.3-1-0.6-1.9-0.9-2.9s-0.3-0.9-0.4-1.4l-0.2-0.7c0-0.1-0.1-0.2-0.1-0.3l-0.1-0.2v-0.2
		c0,0,0-0.1,0-0.1l0.1-0.1l0.5-0.4c0.7-0.7,1.2-1.5,1.5-2.4c0.6-2.1-0.3-4.3-1.4-6.1c-0.5-0.8-1.1-1.5-1.5-2.3L283,184h0
		c1-0.9,1.5-2.2,1.3-3.5c-0.4-1.8-2.1-3-3.4-4.1l-8.3-7.2c-1.6-2.9-2.6-6.1-3.4-9.3c-1-4-2-8-2.7-12c-1.3-8.3,0.7-16.7,0-25
		c-0.3-4.3-1.3-8.6-2.4-12.8c-1.1-4.2-2.1-8.1-2.9-12.3c-1.5-8.1-2.4-16.4-4.5-24.4c-2-7.6-4.4-15.1-7.2-22.4
		c-1.4-3.5-2.8-7.2-4.6-10.5s-4.3-6.2-6.6-9.1c-1.2-1.4-2.4-2.8-3.5-4.3c-1.1-1.5-2.2-2.9-3.7-4c-3.6-2.4-7.7-0.6-10.6,1.9
		c-1.4,1.2-2.7,2.6-3.9,4c-1.3,1.4-2.7,2.9-4,4.4c-2.7,3-5.2,6.1-7.7,9.3c-4.9,6.3-9.2,13-12.7,20.2s-6.2,14.6-9.5,21.9
		c-0.7,1.5-1.4,3-2.1,4.4c-0.4,0-0.9,0-1.3,0.1c-0.6,0.2-1.1,0.4-1.6,0.6l-0.4,0.1c-0.1-0.3-0.3-0.6-0.5-1l-0.6-1.1
		c-0.1-0.2-0.2-0.4-0.3-0.5l-0.1-0.3h0c-0.3-0.6-0.9-1.3-1.7-1.2c-2.2,0.3-4.4,0.9-6.4,1.8c-2,0.8-4.1,1.7-5.8,3l-0.3,0.1v-3.1
		c0-0.2,0-0.4,0-0.7c0-0.1,0.1-0.4,0.1-0.5c0-0.4,0.1-0.8,0.3-1.2l0.2-0.6v-0.1c0.1-0.1,0.1-0.1,0.1-0.3c0.8-1.7,1.9-3.3,2.8-4.9
		c0.4-0.7,0.3-1.6-0.3-2.2s-1.5-0.7-2.2-0.3c-2.4,1.6-4.7,3.4-6.7,5.5c-1,1-1.9,2-2.8,3.1l-1.5,1.9l-0.1,0.2
		c-0.4-0.4-0.8-0.8-1.2-1.3c-0.2-0.2-0.4-0.4-0.5-0.6l-0.1-0.1l-0.3-0.3l-1-1.5c-0.5-0.9-1.7-1.2-2.5-0.7c-0.4,0.2-0.7,0.6-0.9,1.1
		c-0.5,1.5-0.7,3.1-0.6,4.6c0,0.4,0.1,0.9,0.2,1.4l-1.8-0.8c-2-1-4-1.9-6.2-2.2c-0.9-0.1-1.5,0.7-1.8,1.4c-0.3,0.7-0.4,1-0.6,1.6
		l-0.2-0.1c-0.5-0.2-1.1-0.5-1.6-0.6c-0.4-0.1-0.9-0.2-1.3-0.2c-3.6-7-7.4-14-11.2-21s-7.6-13.8-11.6-20.6
		c-4-6.8-8.1-12.9-13.1-18.6c-2.4-2.7-5-5.8-8.6-6.9c-1.9-0.5-3.9-0.3-5.6,0.7c-1.5,0.9-2.7,2.4-3.7,3.7
		c-4.7,6.2-8.6,13.1-11.5,20.3c-3,7.4-5.2,15.1-7.3,22.7c-2.1,7.7-4.4,16.2-6.5,24.3c-1.1,4.1-2.2,8.1-3.3,12.2
		c-1.1,4.1-2.1,7.9-2.8,11.9c-0.6,4.1-0.8,8.3-0.6,12.4c0.3,4.1,0.7,8.2,0.5,12.3c-0.1,4.1-1,8-2,11.9s-1.7,7.4-3,10.9
		c-0.4,1.2-1,2.3-1.6,3.4l-8.3,7.2c-1.3,1.1-3,2.3-3.4,4.1c-0.3,1.3,0.2,2.7,1.3,3.5c0,0,0,0,0,0v0.1c-0.1,0.1-0.1,0.2-0.1,0.3
		c-0.4,0.7-0.9,1.5-1.3,2.2c-1,1.5-1.9,3.2-1.9,5c0,1,0.3,2,0.8,2.8c0.3,0.4,0.6,0.7,0.9,1.1c0.1,0.1,0.3,0.2,0.4,0.4
		c0.1,0,0.1,0.1,0.2,0.2l0.1,0.1v0.1c0,0,0,0.1,0,0.1c0,0.1-0.1,0.2-0.1,0.3c-0.1,0.3-0.2,0.6-0.3,0.9c-0.3,0.9-0.6,1.9-0.9,2.8
		c-1.1,3.8-2.1,7.7-3,11.5c-0.9,3.8-1.6,8-0.4,11.8c1.2,3.8,3.7,6.9,7.5,7.8c1,0.1,2-0.5,2.1-1.5c0.1-0.9-0.3-1.7-1.2-2.1l-0.9-0.3
		l-0.1-0.1l-0.5-0.3l-0.4-0.3h0c0,0,0,0,0,0h0l-0.1-0.1h0l-0.8-0.8l-0.3-0.4h0c0,0,0,0,0-0.1c-0.2-0.3-0.4-0.6-0.6-1l-0.4-0.9v-0.1
		c0,0,0,0,0,0l-0.2-0.7c-0.1-0.3-0.1-0.6-0.2-0.9c-0.1-0.2-0.1-0.4-0.1-0.6c0-0.1,0-0.2,0-0.3v-0.2c-0.1-0.9-0.1-1.9-0.1-2.8
		l0.1-1.3c0-0.1,0-0.2,0-0.3v-0.1c0-0.3,0.1-0.5,0.1-0.8c0.1-0.9,0.3-1.8,0.5-2.7c0.9-3.8,1.9-7.5,3-11.3l0.8-2.7
		c0.3-1,0.7-2,0.7-3.1c-0.1-1.1-0.6-2.1-1.4-2.8l-0.7-0.7h0l-0.1-0.1c0,0,0,0,0-0.1s0-0.1-0.1-0.2s0-0.1,0-0.1v-0.5c0,0,0,0,0-0.1
		c0-0.1,0-0.3,0.1-0.4l0.2-0.6l0.1-0.3l0.3-0.6c0.2-0.4,0.5-0.7,0.7-1.1c1.1-1.7,2.2-3.5,2.1-5.6c0-0.8-0.5-1.5-1.3-1.8l0.1-0.1
		c1.1-1,2.2-2.1,3.4-3l5.4-4.7c0.6,0,1.1-0.4,1.4-0.9l0.4-0.7c0.2-0.2,0.3-0.4,0.4-0.6c0.7-1.2,1.2-2.5,1.8-3.8
		c0.1-0.1,0.1-0.2,0.1-0.3c0,0,0-0.1,0-0.1c0.1-0.1,0.1-0.1,0.1-0.3c0.1-0.3,0.2-0.5,0.3-0.7l0.7-1.4c0.5-0.9,1-1.8,1.5-2.7
		c0.5-0.9,1.1-1.7,1.6-2.5l0.9-1.2l0.4-0.6h0l0.3-0.3c2.6-3.2,5.4-6.2,8.4-9l5.2-4.8c0.7-0.7,0.7-1.9,0-2.7
		c-0.7-0.7-1.9-0.7-2.7-0.1c-4.7,4.3-9.4,8.6-13.3,13.6c0.3-1.2,0.5-2.3,0.7-3.5c0.7-4,1-8.1,0.9-12.2c-0.1-4-0.6-8-0.6-12
		c0-8,2.5-15.8,4.6-23.5c2.1-7.5,4.2-15.6,6.3-23.4c0,2.1,0,4.1,0.2,6.2c0.4,5.8,1.3,11.7,2.8,17.3c0.3,1.3,0.7,2.7,1.2,4
		c0.3,0.7,0.8,1.4,1.4,2c0.7,0.6,1.7,0.9,2.7,0.8c0.4,0,0.9-0.1,1.3-0.2l0.6-0.2c0.3,0,0.6,0,0.8,0l0.4,0.1l0.4,0.1
		c0.1,0.1,0.1,0.1,0.2,0.1l-0.2-0.1c0.1-0.1,0.7,0.3,0.8,0.4l0.7,0.4l0.1,0.1l0.3,0.2c1.9,1.5,3.3,3.4,5.2,4.9
		c1.9,1.5,5,3.1,7.8,2.5c0.7-0.2,1.3-0.4,1.9-0.8c0.8-0.6,1.1-1.7,0.5-2.6c-0.6-0.9-1.7-1.1-2.6-0.6l-0.3,0.2l-0.6,0.2l-0.7,0.1
		l-0.1,0l-0.4-0.1c-0.1,0-0.7-0.2-0.8-0.2l-0.1,0L83,114c-0.3-0.1-0.5-0.2-0.7-0.4l-0.3-0.1l-0.2-0.1c-0.1-0.1-0.1-0.1-0.1-0.1
		c-0.2-0.1-0.4-0.3-0.6-0.4l-0.7-0.6c-0.4-0.4-0.8-0.8-1.2-1.3c-0.8-0.9-1.6-1.6-2.5-2.4c-1.9-1.6-4.2-3-6.7-2.8
		c-0.4,0-0.8,0.1-1.2,0.1c-0.4,0-0.3,0-0.4,0.1l-0.4,0.1l-0.1,0c0,0-0.1-0.1-0.1-0.1c0,0-0.1-0.1-0.1-0.1l-0.3-0.9
		c-0.2-0.7-0.4-1.3-0.6-2c-0.4-1.5-0.7-2.8-1-4.2c-0.1-0.7-0.3-1.3-0.4-2.1c-0.1-0.7-0.1-0.7-0.2-1c-0.1-0.4,0-0.3-0.1-0.4
		c0-0.1,0-0.2,0-0.3c-0.5-2.7-0.8-5.5-1-8.3s-0.3-5.5-0.3-8.3c0-1.4,0-2.8,0.1-4.2l0.1-2.1c0,0,0-0.1,0-0.1c0-0.1,0-0.3,0-0.5l0.1-1
		c0.6-5.5,1.7-11,3.4-16.3c0.2-0.7,0.4-1.3,0.6-2c0-0.1,0-0.3,0-0.5c2.2-5.8,4.7-11.3,8-16.5c1-1.6,2.1-3.1,3.1-4.7
		c1.1-1.5,1.9-2.7,3.1-3.8c0.9-0.9,2.2-1.2,3.4-0.9c1.5,0.4,2.7,1.4,3.8,2.5c2.6,2.4,4.9,5.3,7,8.1c2.1,2.8,4.3,6.1,6.3,9.2
		c4,6.4,7.6,13.1,11.3,19.7c3.7,6.6,7.8,14.2,11.6,21.3l2.6,5c-0.1,1-0.2,2-0.1,3v2.8c0,1.5,0,2.9,0,4.4c-9.1,1.6-18.5,3.6-25.9,9.3
		c-2.1,1.6-4.1,3.5-5.7,5.7c-0.4,0.6-0.3,1.4,0.1,2.1c-2.2,1.2-4.1,2.7-5.5,4.7c-0.5,0.8-0.9,1.7-1.2,2.7c-0.3,1.1-0.4,2.2-0.3,3.3
		v0.1c0,0,0,0,0,0.1c0,0.1,0,0.1,0,0.2h0c0,0,0,0.1-0.1,0.1c0,0,0,0,0,0.1l-0.1,0.2c0,0,0,0,0,0c-0.1,0.2-0.1,0.1-0.1,0l-0.3,0.3
		l-0.1,0.1c0.3-0.2,0,0-0.1,0c-0.1,0.1-0.3,0.2-0.5,0.3c-0.4,0.2-0.7,0.4-1.1,0.6h0l-0.3,0.1l-0.7,0.3l-1.5,0.6
		c-1,0.6-1.8,1.3-2.5,2.2c-0.9,1.2-1.4,3-0.9,4.4l-15,14.4c-0.7,0.7-0.7,1.9,0,2.7c0.7,0.7,1.9,0.7,2.7,0L85,141.1
		c0.7-0.7,0.8-2.1,0-2.7l-0.1-0.1v0.1c0,0,0,0,0-0.1v0v-0.1c0-0.1,0-0.2,0.1-0.3l0.1-0.2l0.3-0.4c0,0,0,0,0-0.1l0.1-0.1l0.4-0.4
		c0,0,0,0,0.1-0.1l0,0c0-0.1,0.1-0.1,0.1-0.1l0,0l1-0.5h0.2l0.5-0.2l1.5-0.6c1.7-0.8,3.2-1.9,3.9-3.7c0.4-1,0.3-2.2,0.4-3.2V128
		c0,0.1,0-0.1,0-0.2c0-0.2,0.1-0.4,0.1-0.6c0-0.2,0.1-0.4,0.2-0.6v-0.1l0.1-0.1c0.2-0.3,0.4-0.7,0.6-1l0.1-0.1c0,0,0.1-0.1,0.1-0.1
		l0.4-0.5l0.9-0.9l0.4-0.3c0,0,0,0,0,0l0.3-0.2c0.7-0.5,1.5-0.9,2.2-1.3l1.2-0.6l0.6-0.3l0.3-0.1h0.1c1.9-0.7,3.8-1.4,5.7-1.9
		c1-0.3,2-0.4,3-0.6l0.7-0.1h0.4l1.5-0.2c2.2-0.2,4.4-0.2,6.7-0.1l1.7,0.2h0.6l0.8,0.1c1.1,0.2,2.2,0.4,3.4,0.7c1,0.1,2-0.5,2.1-1.5
		c0.1-0.9-0.3-1.7-1.2-2.1l0-0.1c-8.3-2.1-17-1.6-25.1,1.3c0,0,0.1-0.1,0.1-0.1c0.7-0.7,1.5-1.5,2.4-2.1l0.2-0.1l0.2-0.2l0.6-0.4
		l1.4-0.9c0.9-0.6,1.8-1.1,2.8-1.6l1.4-0.7l0.7-0.3l0.4-0.1l0.3-0.1l3.2-1.2c2.3-0.7,4.7-1.4,7.1-1.9s5.5-1.1,8.3-1.6
		c0.8-0.2,1.4-0.9,1.4-1.8c0-3.3,0-6.6,0-10v-0.3c1,0.3,1.9,0.8,3,0.9c0.4,0,0.8,0,1.2-0.1c0.4-0.1,0.8-0.4,1.1-0.7
		c0.2-0.3,0.4-0.7,0.5-1l0.4-1l1.1,0.4c0,0,0.1,0,0.1,0.1l0.2,0.1l0.7,0.3l1.4,0.7c0.9,0.4,1.8,0.9,2.7,1.2c0.8,0.4,1.7,0.7,2.6,0.9
		c1,0.1,2.1-0.2,2.3-1.3c0-0.1,0-0.1,0-0.2c0-0.1,0-0.3,0-0.4c0-0.8-0.1-1.5-0.4-2.3c-0.1-0.3-0.2-0.6-0.3-0.9l0.1,0.2
		c0.6,0.7,1.3,1.3,2.1,1.8c0.7,0.4,1.6,0.3,2.3-0.1c0.5-0.3,0.9-0.8,1.2-1.3l0.7-0.9l0.3-0.4c0,0,0-0.1,0.1-0.1s0.1-0.2,0.1-0.2
		l1.6-1.9l1.2-1.3c-0.1,0.6-0.2,1.3-0.3,1.9c-0.1,1.7-0.1,3.3,0.1,5c0.1,1.2,0.5,2.6,1.9,3c1.4,0.4,1.8-0.1,2.7-0.7l0.9-0.5l0.3-0.1
		c0.7-0.4,1.5-0.8,2.3-1.3c0.1,0,0.2-0.1,0.3-0.2l1.2-0.6l0.8-0.3c0,0,0,0,0,0l0.4-0.1c1-0.4,2-0.8,3.1-1.1c0.4-0.1,0.8-0.3,1.3-0.3
		l0.7,1.3c0.2,0.4,0.4,0.9,0.6,1.3l0.1,0.1c0.1,0.3,0.2,0.5,0.4,0.7c0.4,0.4,1.1,0.6,1.7,0.6c1,0,1.9-0.4,2.9-0.7
		c-0.3,0.4-0.5,0.9-0.7,1.4c-0.4,1.2-0.6,2.4-0.5,3.6c0.1,1.3,0.4,2.6,0.9,3.8c0.3,0.7,0.6,1.5,1,2.2c0.6,1,1.9,1,3,1.1
		c1.9,0.1,3.6-0.3,5.5-0.7c0.2,0,0.4-0.1,0.6-0.1c0,0,0.1-0.1,0.2-0.1h1.3l0.2,0.1l0.5,0.1c0.6,0.1,1.2,0.3,1.8,0.6l0.5,0.2
		c-0.6-0.2,0,0,0.1,0.1l1.2,0.6l2.4,1.3c1.9,1.1,3.7,2.2,5.4,3.4c1,0.7,1.9,1.4,2.9,2.1l0.3,0.2l0.1,0.1l0.7,0.6l1.3,1.1
		c0.8,0.7,1.6,1.4,2.4,2.2c0.3,0.3,0.7,0.7,1,1l0.4,0.5l0.1,0.2c0,0.1,0.1,0.1,0.1,0.2c-3-0.7-5.9-1.2-9-1.5
		c-4.9-0.6-9.8-0.6-14.6-0.1c-0.9,0.1-1.9,0.8-1.9,1.9c0,1.1,0.9,2,1.9,1.9c4.1-0.4,8.3-0.4,12.4-0.1c1,0.1,2.1,0.2,3.1,0.3l0.6,0.1
		h0.2l0.3,0.1l1.6,0.2c2,0.3,4,0.7,5.9,1.2l2.9,0.8l0.6,0.2l0.2,0.1c-0.1,0-0.3-0.2,0,0h0c0.4,0.1,0.7,0.3,1.1,0.6
		c0.3,0.2,0.6,0.4,0.9,0.6l0.1,0.1l0.2,0.1l0.6,0.5l0.7,0.8c0.1,0.1,0.1,0.1,0.2,0.3l0.4,0.6l0.3,0.4l0.1,0.3
		c0.1,0.4,0.3,0.8,0.4,1.2c0.1,0.4,0,0.2,0,0.2c0,0,0,0,0,0v0c0,0.2,0.1,0.3,0.1,0.6c0,0.5,0,1.1,0,1.6c0.1,1.2,0.6,2.2,1.3,3.1
		c0.6,0.6,1.2,1.1,1.9,1.5c0.9,0.4,1.8,0.8,2.7,1.2l0.3,0.1h0l0.6,0.3l0.5,0.3h0l0.1,0.1c0.1,0.1,0.3,0.3,0.4,0.4c0,0,0,0,0,0
		l0.1,0.1c0.1,0.1,0.2,0.3,0.3,0.4l0.1,0.3c0,0.1,0,0.1,0,0.2v0.1l-0.2,0.2c-0.8,0.6-0.6,2,0,2.7l16.1,15.4c0.7,0.7,1.9,0.7,2.7,0
		c0.7-0.7,0.7-1.9,0-2.7l-15-14.3c0.4-1.3,0.2-2.7-0.5-3.8c-0.4-0.8-1-1.5-1.8-2c-0.8-0.6-1.7-1.1-2.7-1.5l-0.6-0.2l-0.2-0.1
		l-0.2-0.1h0l-0.2-0.1c-0.2-0.1-0.4-0.1-0.6-0.3l-0.6-0.3l-0.3-0.2c0.3,0.1,0,0-0.1-0.1l-0.1-0.2l-0.2-0.1l-0.2-0.3c0,0,0,0,0,0
		l0-0.1c0-0.1,0-0.3-0.1-0.4v-0.1c0-0.1,0-0.2,0-0.3v-0.9c0-1-0.2-2-0.6-3c-1.4-3.8-4.7-6.4-8.5-7.5c-0.5-0.1-1-0.3-1.6-0.4
		c0,0,0.1,0,0.1,0c0.8-0.5,1.3-1.8,0.7-2.6c-1.5-1.9-3.1-3.5-5-5c-2.2-1.9-4.6-3.6-7-5.2c-2.1-1.5-4.3-2.7-6.6-3.9
		c-2.2-1.1-4.8-2.2-7.4-2c-1.2,0.2-2.3,0.4-3.5,0.7l-0.7,0.1h-2.1c-0.1-0.1-0.1-0.3-0.1-0.4c0,0,0,0,0,0c0-0.1-0.1-0.1-0.1-0.2
		l-0.2-0.5c-0.2-0.7-0.4-1.3-0.5-2c0-0.1,0-0.2,0-0.3c0-0.1,0-0.3,0-0.5c0-0.2,0-0.6,0-0.9s0-0.1,0-0.1l0.1-0.4l0.1-0.4
		c0,0,0-0.1,0.1-0.1c0.1-0.3,0.3-0.5,0.4-0.8c0.1-0.1,0.1-0.3,0.3-0.4c0,0,0,0-0.1,0.1c0,0,0,0,0,0l0.4-0.5c0.5-0.8,0.5-1.8,0.1-2.6
		c3.4-6.8,6.2-14,9.2-21c3.1-7.2,6.8-14,11.3-20.4c4.4-6.4,9.4-12.3,14.6-18c1.3-1.4,2.5-2.8,3.9-4.1c1.4-1.3,2.5-2.1,4.1-2.3
		c1.6-0.2,2.3,0.5,3.2,1.5c1,1,2.2,2.7,3.3,4.1c2.3,2.8,4.7,5.5,6.7,8.4c1.9,2.8,3.3,5.9,4.6,9c0,0.2,0,0.4,0,0.7
		c1.3,5.1,2.3,10.3,2.8,15.6c0.1,1.4,0.3,2.9,0.4,4.3l0.1,2.2c0,0.3,0,0.7,0.1,1c0,0.2,0,0.4,0,0.6l0,0.3c0.1,3,0.3,5.9,0.3,8.9
		c0.1,6-0.1,11.9-0.4,17.8c-0.1,1.4-0.1,2.8-0.3,4.3c-0.1,0.3-0.1,0.6-0.1,0.9c0,0,0,0.1,0,0.1c0,0,0,0.1,0,0.1h0l-0.1,0.1h-0.2
		l-0.2,0.1h0c-1.4,0-2.8-0.1-4.1,0.2c-1.3,0.3-2.6,0.9-3.7,1.6c-1,0.7-1.8,1.6-2.4,2.7c-0.6,1.2-1,2.5-1.1,3.9l0,0.3
		c0-0.3,0,0.2-0.1,0.3c-0.1,0.3-0.1,0.6-0.3,0.8h0c0,0,0,0,0,0.1l-0.3,0.4c0,0.1-0.1,0.2-0.2,0.3l-0.1,0.2c0,0.1-0.1,0.1,0,0.1
		c-0.1,0.2-0.3,0.4-0.5,0.6l-0.2,0.2l-0.2,0.1c-0.2,0.1-0.6,0.2-0.7,0.3h-0.1l-0.5,0.1l-0.7-0.1l-0.3-0.1c-0.9-0.3-2,0.2-2.4,1.1
		c-0.3,1,0.1,2,1.1,2.4c3,1,6.1-0.4,8-3c0.9-1.2,1.4-2.7,1.5-4.2c0-0.1,0-0.3,0.1-0.5v-0.2c0,0,0-0.1,0-0.1v-0.1l0.1-0.4l0.1-0.4
		c0,0,0.1-0.1,0.1-0.2c0-0.1,0.1-0.1,0.1-0.1c0-0.1,0.1-0.3,0.3-0.4c0-0.1,0.1-0.2,0.2-0.3c0,0,0,0,0-0.1c0,0,0.5-0.5,0.6-0.6
		c0.2-0.1,0.4-0.2,0.5-0.3c-0.1,0-0.1,0.1,0,0l0.1-0.1h0l0.5-0.2l0.7-0.3c0,0,0.1,0,0.1,0l0.5-0.1l0.9-0.1l0.6,0
		c1.7,0,3.5,0.2,4.9-1c1.4-1.2,1.4-3,1.6-4.7c0.4-6.1,0.6-12.1,0.6-18.1c0-5.5-0.2-11.4-0.7-17.1c0.3,0.9,0.5,1.8,0.8,2.8
		c1.1,3.8,2,7.7,2.7,11.7c0.7,3.9,1.3,8.1,2,12.2c0.6,4,1.4,8,2.4,12c1,4,2.2,8.1,2.9,12.2c0.6,4,0.7,8,0.4,12
		c-0.2,4.2-0.7,8.4-0.4,12.6c0.1,1.2,0.2,2.4,0.4,3.6c-0.5-0.7-1-1.4-1.5-2.1c-2.2-2.8-4.7-5.5-7.4-7.9l-5-4.5
		c-0.7-0.6-1.9-0.7-2.7,0c-0.7,0.7-0.8,1.9,0,2.7c2.8,2.5,5.6,5.1,8.3,7.8c1.2,1.2,2.4,2.5,3.5,3.9c0.1,0.1,0.3,0.3,0.4,0.5l0.1,0.1
		h0c0,0,0,0,0,0l0.8,1.1c0.5,0.7,1,1.5,1.5,2.2c0.5,0.8,1,1.8,1.5,2.8l0.7,1.4c0.1,0.3,0.3,0.5,0.4,0.8l0.1,0.3c0,0,0,0,0,0.1
		c0,0,0,0.1,0.1,0.2c0.2,0.6,0.7,1.1,1.3,1.3c0.8,3.2,1.5,6.2,2.7,9.2c0.5,1.2,1,2.4,1.7,3.5c0.1,0.3,0.2,0.5,0.4,0.7l0.4,0.7
		c0.3,0.5,0.8,0.8,1.4,0.9l5.3,4.6c1.1,1,2.3,1.9,3.3,2.9c0.1,0,0.1,0.1,0.1,0.1c-0.7,0.3-1.2,1-1.3,1.8c-0.1,1.9,0.8,3.6,1.8,5.1
		c0.5,0.6,0.9,1.3,1.3,2c0.1,0.1,0.1,0.3,0.2,0.5l0.1,0.3c0.1,0.1,0.1,0.3,0.1,0.5c0,0.1,0,0.2,0.1,0.3v0.7c0,0.1-0.1,0.1-0.1,0.2v0
		c-0.1,0.3,0,0.1,0,0l-0.1,0.2c-0.6,0.5-1.2,1.2-1.6,1.8c-1.2,1.9-0.1,4.2,0.5,6.1c1.1,3.7,2.1,7.5,3,11.3c0.2,0.9,0.4,1.8,0.6,2.7
		l0.2,1.3c0.1,0.2,0.1,0.5,0.1,0.7c0,0.1,0,0.2,0,0.3v0.2c0.1,0.9,0.2,1.9,0.1,2.8c0,0.4,0,0.9-0.1,1.3c0,0.1,0,0.2,0,0.3v0.1
		c0,0.2-0.1,0.4-0.1,0.7c-0.1,0.4-0.2,0.7-0.3,1.1l-0.2,0.6c0,0.1,0,0.2-0.1,0.3c-0.1,0.4-0.3,0.7-0.6,1.1l-0.3,0.5l-0.1,0.2
		l-0.9,0.9l-0.3,0.3l-0.3,0.2l-1,0.5l-0.2,0.1l-0.7,0.2c-1,0.3-1.6,1.3-1.3,2.3c0.3,1,1.3,1.6,2.3,1.3c3.4-0.8,5.8-3.6,7.1-6.8
		C289.7,221.6,289.4,217.2,288.6,213.4z M26.3,216.6C26.3,216.7,26.2,216.8,26.3,216.6L26.3,216.6z M85.7,114.6
		C85.8,114.6,85.9,114.6,85.7,114.6L85.7,114.6z M84.8,137.8C84.8,137.6,84.8,137.7,84.8,137.8L84.8,137.8z M182,98.5
		C182,98.4,182,98.4,182,98.5L182,98.5z M284,196.2v-0.1C284.1,196.1,284,196.2,284,196.2z M282.4,227
		C282.1,227.2,282.4,227,282.4,227L282.4,227z"/>
</g>
</svg>
