<?xml version="1.0" encoding="utf-8"?>
<!-- Generator: Adobe Illustrator 27.9.0, SVG Export Plug-In . SVG Version: 6.00 Build 0)  -->
<svg version="1.1" id="Layer_1" xmlns="http://www.w3.org/2000/svg" xmlns:xlink="http://www.w3.org/1999/xlink" x="0px" y="0px"
	 viewBox="0 0 262.3 238.6" style="enable-background:new 0 0 262.3 238.6;" xml:space="preserve">
<g>
	<path style="stroke:#000000;stroke-width:3;stroke-linecap:round;stroke-linejoin:round;stroke-miterlimit:10;" d="M56.5,138.6
		c2.2-6.1,4.7-12.1,7.8-17.9c2.8-5,5.9-9.6,9.9-13.7c1-1,2-2,3-2.9l1.7-1.4c0.6-0.4,0.9-0.7,1.5-1.1c1.1-0.8,2.3-1.6,3.5-2.4
		c1.2-0.7,2.5-1.4,3.8-1.9c0.7-0.2,1.3-0.4,2.1-0.4c0.7,0,1.3-0.6,1.3-1.3c0-0.7-0.6-1.2-1.3-1.3c-1.7,0.1-3.4,0.7-4.9,1.5
		c-1.3,0.7-2.5,1.4-3.7,2.1c-2.4,1.6-4.7,3.4-6.9,5.4c-4.2,4-7.9,8.6-10.8,13.6c-3.4,5.6-6,11.6-8.3,17.7
		c-2.3,6.1-4.4,12.6-6.6,18.9c-2.2,6.3-4.4,11.6-8,16.8c-0.4,0.6-0.8,1.1-1.3,1.7c-0.3,0.4-0.4,0.9-0.2,1.4c0.2,0.5,0.7,0.8,1.2,0.8
		c1.5,0,3-0.3,4.4-0.8c0,0,0,0.1,0,0.1c-0.1,0.6-0.3,1.2-0.5,1.9c-0.4,1-1,2.1-1.3,3.3c-0.6,2.2-0.4,4.9,1.7,6.2
		c0.6,0.4,1.4,0.3,1.8-0.2c0.4-0.6,0.3-1.4-0.2-1.8c-0.1-0.1-0.2-0.1-0.3-0.2l-0.1-0.1l-0.2-0.2c0,0,0,0,0-0.1h0
		c0-0.1-0.1-0.2-0.2-0.3c0,0,0,0,0,0c0-0.1,0-0.2-0.1-0.3c0-0.1,0-0.1,0-0.2c0,0,0-0.2,0-0.2v-0.7c0-0.1,0-0.2,0-0.2s0-0.2,0-0.3
		s0.2-1,0.4-1.4c0.1-0.4,0.1-0.2,0.1-0.2l0.1-0.3c0.1-0.3,0.2-0.6,0.4-0.9c0.3-0.7,0.6-1.3,0.8-2c0.4-1.3,0.5-2.7,0-3.9
		c-0.5-1.2-1.1-1.2-1.9-0.8c-0.6,0.3-1.2,0.6-1.9,0.7c2.9-4.4,5.1-9.2,7-14.1C52.3,150.9,54.3,144.7,56.5,138.6z"/>
	<path style="stroke:#000000;stroke-width:3;stroke-linecap:round;stroke-linejoin:round;stroke-miterlimit:10;" d="M247.1,189.1
		c-4.3-10.8-8.2-21.8-11.9-32.8c-1.8-5.3-3.5-10.6-5.5-15.8c-1.8-4.6-3.8-9.3-6.8-13.4c-2.1-2.9-4.6-5.4-7.5-7.6
		c1.6-0.1,3.2-0.4,4.5-1.3c0.4-0.2,0.7-0.7,0.6-1.1c-0.2-1.9-1-3.7-1.3-5.7c-0.1-0.4-0.1-0.8-0.2-1.2c0-0.1,0-0.2,0.1-0.3
		c0.1-0.1,0.1-0.2,0.2-0.3c0.6-0.6,1-1.3,1.3-2c0.5-1.5,0.2-3.1-0.6-4.4c-0.4-0.7-1-1.2-1.7-1.6l-0.5-0.3l-0.2-0.1
		c0,0-0.1-0.1-0.1-0.1c0,0,0,0,0-0.1l0.4-0.3l1.4-0.9l3-2c0.9-0.6,0.8-2-0.3-2.4c-1-0.3-2-0.5-3.1-0.5c0.1-0.5,0.2-0.9,0.4-1.3
		c0.4-1,1-2,1.7-2.8c0.6-0.8,1.3-1.7,2-2.6c0.8-1,1.5-1.9,2.2-3c0.7-1,1.1-2.1,1.5-3.2l1.6-4.4c0.9-2.7,1.9-5.4,2.8-8.1
		c1.8-5.4,3.5-10.9,4.6-16.5c1.1-5.6,1.6-10.9,2.2-16.3c0.4-3.3,0.8-6.6,1.3-9.8c0.3-1.7,0.5-3.4,0.8-5.1c0.2-1.5,0.6-2.9,1.2-4.3
		c0.3-0.6,0.1-1.4-0.5-1.8c-2.8-1.8-6.3-0.6-9.2,0.5s-6.1,2.5-9,3.9c-5.8,2.9-11.4,6.3-16.7,10.2c-5.4,3.8-10.5,7.9-15.6,12.2
		c-2.5,2.1-5,4.3-7.6,6.4c-2.6,2-4.4,3.3-6.7,4.9c-4.6,3.1-9.1,6.4-13.3,10.2l-1.8,1.7c-1.9,1.2-3.8,2.5-5.7,3.7l-2.9,2.1
		c2.2-2.7,5-4.9,8.2-6.5c1.3-0.7,0.4-2.9-1-2.4c-9,3.2-18.2,6.8-25.7,12.9c-1.7,1.3-3.2,2.8-4.6,4.4c-1.3-2.2-2.1-4.8-2.3-7.4
		c-0.1-1.3-1.7-1.7-2.4-0.7c-1.7,2.3-3.2,4.7-4.5,7.3c-1.2-3.1-2.9-6-5.2-8.5c-0.1-3.2-0.7-6.4-1.8-9.3c-0.7-1.8-1.6-3.6-2.8-5.2
		c-0.3-0.5-0.9-0.8-1.5-0.6c-0.6,0.2-0.9,0.7-0.9,1.3c-0.1,1.6-0.4,3.2-1.1,4.7c-1.6-4.8-4.4-9-8.1-12.4c-1.3-1.1-2.6-2.1-4.1-3
		c-0.2-0.1-0.5-0.2-0.8-0.2c-4.2-5.3-9.1-10-14-14.7c-2.6-2.5-5.2-4.9-8-7c-2.7-2-5.7-3.6-8.9-4.7c-1.6-0.6-3.1-1-4.8-1.4
		c-0.8-0.2-1.6-0.3-2.5-0.4c-0.9-0.1-1.7-0.2-2.6-0.3c-1,0-2,0.6-2.3,1.6c-0.3,1.1-0.1,2,0,2.9c0.1,1.8,0.3,3.6,0.5,5.5
		c0.8,7.3,1,14.6,0.7,22c-0.3,7.3-1.2,14.5-2.7,21.6l-0.3,1.5c-1.6-0.2-3.1-0.3-4.7-0.2c-0.9,0-1.3,0.8-1.2,1.6
		c0.1,0.7,0.5,1.4,1.1,1.9c0.4,0.4,0.9,0.7,1.3,1.1l0.1,0.1l0.1,0.1c0,0,0.1,0.2,0.1,0.2v0.1c-0.1,0-0.2,0.1,0,0l-0.7,0.2
		c-0.6,0.3-1.2,0.6-1.5,1.2c-0.3,0.6-0.2,1.2,0.2,1.7c0.2,0.3,0.5,0.6,0.7,1c0.7,1,1.3,2,1.8,3c-2.2,2.1-3.7,4.9-4,7.9
		c-0.1,0.8-0.1,1.6,0,2.5c0.1,1,0.2,2,0.9,2.7c0.3,0.2,0.6,0.5,0.9,0.7l0.7,0.3l0.2,0.1l0.1,0.1l0.3,0.1h0v0.1c0-0.1,0-0.1,0,0
		c0,0,0,0,0,0.1s0,0,0-0.1c0,0,0,0.1,0,0.1l-0.1,0.4c-0.4,1-0.4,2.1-0.3,3.2c0.2,1,0.7,2,1.5,2.7c0,0,0,0,0.1,0.1
		c-1.9,2.4-3.8,4.7-5.7,7.1c-0.4,0.6-0.6,1.3,0,1.8c0.5,0.5,1.3,0.5,1.8,0c3.6-3.8,7.6-6.9,11.9-9.7c-1.4,2-2.7,4-3.9,6.1
		c-2.6,4.5-4.7,9.2-6.3,14.1c-0.7,2.2-1.3,4.5-1.9,6.7c-0.4,0.2-0.6,0.6-0.6,1.1c0,0.2,0.1,0.5,0.2,0.7c0,0.5,0.2,0.9,0.6,1.2
		c-3,6.6-6.1,13.2-10,19.3c-3.9,6.1-8.7,11.6-15.6,13.3c-1.5,0.4-1.1,2.5,0.3,2.6c3.8,0.1,7.5-1.3,10.3-3.8
		c1.8,7.1-1.4,14.4-3.4,21.1c-0.7,2.3-1.2,4.7-1.6,7.1c-0.1,1,1.2,1.5,1.9,1.1c3-1.5,5.7-3.5,7.9-6.1c-0.6,3.8-1.7,7.5-3.1,11
		c-2.1,5-5.2,9.5-8,14.2c-0.7,1.2-1.4,2.4-2,3.6c-0.7,1.2-1.6,2.6-1.2,3.9c0.8,2.6,4.5,2,6.4,1.5c5.1-1.2,9.3-4.6,13.1-8
		c3-2.6,5.8-5.3,8.4-8.2c-0.8,2.9-1.2,6-1.3,9c0,1,1.1,1.6,1.9,1.1c6.5-3.6,10-10.7,11.7-17.6c1.2-4.6,1.8-9.4,2.2-14.2
		c0.2-0.1,0.3-0.2,0.4-0.3c3.4-4,6.4-8.3,8.9-12.9c2.5-4.6,4.5-9.5,6-14.5c1.5-4.9,2.4-10,3.3-15.1c0.9-5.1,1.6-10.2,2.9-15.2
		c0.6-2.5,1.3-4.9,2.1-7.3c0.8-2.4,1.9-4.6,3.1-6.8l0.2-0.3c1-0.7,1.9-1.5,2.9-2.1l2.4-1.5c1.4-0.9,0.1-3.1-1.3-2.2
		c-1.4,0.9-2.7,1.7-4,2.7c-0.6-0.1-1.1,0.2-1.4,0.6l-0.6,0.8c-4.2,3.1-7.9,6.8-11.2,10.8c-4.9,5.9-8.7,12.6-11.2,19.9
		c-2.9,8.5-3.7,17.5-4.1,26.3s-0.6,18-2.2,26.8c-1.2,6.8-3.6,14.3-9.3,18.7c0.4-4.1,1.4-8.1,3-11.8c0.3-0.6,0.2-1.3-0.3-1.7
		c-0.4-0.3-1.3-0.4-1.7,0.1c-3.3,4.1-6.8,7.9-10.6,11.4c-3.5,3.2-7.3,6.6-11.7,8.4c-1.1,0.4-2.2,0.8-3.4,1c-0.5,0.1-1,0.1-1.5,0.1
		c-0.2,0-0.4-0.1-0.7-0.1v-0.1c0.1-0.2,0.2-0.4,0.3-0.7c0.3-0.6,0.7-1.2,1-1.9c0.3-0.6,1.2-2.2,1.9-3.3c2.7-4.5,5.5-8.8,7.6-13.6
		c2.4-5.4,3.7-11.2,4-17.2c0.1-1.3-1.8-1.8-2.4-0.7c-1.8,3.2-4.4,5.9-7.5,7.9c1.5-7.3,5.2-14.2,5.1-21.8c0-2.3-0.5-4.6-1.3-6.7
		c-0.1-0.2-0.2-0.3-0.3-0.5c1.3-1.4,2.5-2.8,3.7-4.4c4.3-5.8,7.4-12.4,10.5-19c5.8-12.5,11.1-25.7,21-35.6c2.5-2.6,5.3-4.8,8.3-6.7
		c3.1-1.9,7-3.9,10.8-3.3c0.7,0.1,1.4-0.2,1.6-0.9s-0.2-1.5-0.9-1.6c-3.8-0.7-7.5,0.6-10.9,2.4c-2.9,1.6-5.5,3.4-8,5.5
		c-5,4.3-9.1,9.6-12.5,15.2c-2.2,3.6-4.2,7.3-6,11.1c0.7-2,1.5-4,2.2-5.8c2-4.6,4.4-9,7.3-13.1c1.6-2.3,3.3-4.5,5.2-6.5
		c0.4-0.4,0.5-1.2,0.1-1.7c-0.4-0.5-1.1-0.7-1.7-0.3c-2.8,1.8-5.6,3.6-8.3,5.5c0.7-0.8,1.5-1.6,2.2-2.5c0.1,0,0.2-0.1,0.2-0.2
		c0.1-0.1,0.2-0.2,0.2-0.3c1.8-1.9,3.7-3.7,5.6-5.3C70,86.6,82.9,82.3,96,83c0.7,0,1.3-0.6,1.3-1.3c0-0.1,0-0.2,0-0.3
		c-0.1-0.6-0.3-1.1-0.6-1.7c1.7,0.7,3.3,1.5,4.9,2.4c0.6,0.3,1.5,0.1,1.8-0.6c0.1-0.3,0.2-0.6,0.1-0.9c-1.5-7.9-7.3-14-13.7-18.3
		c-0.7-0.5-1.5-1-2.2-1.4l2.5-0.3c0.7,0,1.3-0.6,1.3-1.3c0-0.4-0.2-0.8-0.6-1.1c-2.1-1.5-4.3-2.8-6.7-3.8c2.3,0.3,4.6,0.7,6.8,1.3
		c1.6,0.4,3.2,0.9,4.8,1.5c0.7,0.2,1.4-0.2,1.6-0.9c0.3-1.7,0.3-3.4,0-5c0.8,0.8,1.6,1.6,2.4,2.4l0.6,0.8l0.6,0.8
		c0.4,0.6,0.8,1.1,1.1,1.7l1,1.9l0.4,0.9l0.2,0.4l0.1,0.2v0.1c0.6,1.5,1.1,3,1.4,4.5c0.2,0.9,1.6,1.3,2.1,0.6
		c1.2-1.6,2.1-3.3,2.7-5.2c0.9,1.8,1.6,3.8,1.9,5.8c0.1,0.4,0.2,0.8,0.2,1.2c0,0.1,0,0.2,0.1,0.3v0.1c0,0.2,0,0.4,0.1,0.7
		c0.1,0.9,0.1,1.7,0.2,2.6c0.1,1.7,0,3.4-0.1,5.1c0,0.9-0.1,1.8-0.2,2.8c-0.1,0.9-0.2,1.5-0.2,2.1c-0.1,0.2-0.1,0.4-0.2,0.6
		c-0.2,0.7,0.3,1.4,0.9,1.6c0.3,0.1,0.6,0.1,0.8,0c0.4-0.1,0.8-0.4,0.9-0.9c0-0.2,0-0.4,0.1-0.6c0.7-2,1.1-4.1,1.1-6.2
		c1.5,2.4,2.6,4.9,3.3,7.7c0.1,0.5,0.6,0.9,1.1,0.9c0.4,0.1,1.1-0.1,1.3-0.6c1.1-2.6,2.4-5.1,3.9-7.4c0.6,2.4,1.7,4.7,3.2,6.7
		c0.4,0.6,1.5,1,2,0.2c5.6-6.9,13.5-11.4,21.6-14.7c-2.2,2.4-4,5.1-5.3,8.1c-0.1,0.1-0.1,0.2-0.1,0.3c0,0,0,0,0,0
		c-0.1,0.3-0.1,0.6,0.1,0.8v0.1c0,0,0,0,0,0c0,0.1,0.1,0.2,0.2,0.3c0.2,0.2,0.5,0.3,0.8,0.4c0.3,0,0.6,0,0.8-0.2
		c4.9-3.1,11-3.6,16.7-2.6c5.7,1.1,11.1,3.5,16,6.4c4.4,2.6,8.5,5.7,12.3,9.3c3.3,3.2,6.3,6.7,9,10.5l0.2,0.2l0.7,1
		c2.3,3.5,4.3,7.2,5.9,11c-3.4-3-7.2-5.7-11.1-8c-1.5-0.8-3-1.6-4.6-2.3c-0.6-0.4-1.4-0.2-1.8,0.4c-0.3,0.4-0.3,0.9,0,1.3
		c2.5,4.5,4.3,9.3,5.2,14.3c0.8,4.5,0.8,9.2,1.9,13.7c0.6,2.5,1.7,4.9,3.3,6.9c0.4,0.6,1.4,0.4,1.8,0c0.4-0.4,0.4-1.3,0-1.8
		l-0.2-0.2l-0.2-0.3l-0.4-0.7c-0.3-0.5-0.6-1-0.8-1.5c-0.4-0.9-0.7-1.8-0.9-2.8c-0.3-1-0.5-2.1-0.6-3.2v-0.3c0-0.1,0-0.2,0-0.3
		l-0.1-0.8l-0.2-1.8c-0.2-2.4-0.4-4.7-0.8-7.1c-0.5-2.5-1.1-4.9-1.9-7.4c-0.6-1.5-1.1-3-1.8-4.5c1.5,0.8,2.9,1.7,4.4,2.6
		c2.5,1.6,4.8,3.3,7,5.3c1.3,1.1,2.5,2.3,3.7,3.5l0.2,0.2c3.4,2.5,6.7,5.1,9.3,8.4s4.9,8.1,6.6,12.4c2.1,5.1,3.7,10.3,5.5,15.5
		c1.8,5.2,3.7,10.8,5.6,16.1c1.9,5.4,4,10.9,6.1,16.2c-3.3-0.6-6.2-2.2-8.5-4.6c-0.9-1-2.5,0.1-2.2,1.3c1.2,5.2,3.6,10.1,6.9,14.3
		c-6.2-2.4-11.7-6.1-16.3-10.8c-0.6-0.7-2-0.4-2.2,0.6c-0.6,3.1-0.5,6.4,0.3,9.5c-4.2-4.5-7.3-9.9-9.2-15.7
		c-0.2-0.7-0.9-1.1-1.6-0.9c-0.6,0.1-1,0.7-1,1.2c-0.4,5.3-0.9,10.7-1.3,16c-0.3,4.1-0.8,8.3-0.2,12.4c-3.9-5.1-6.7-10.9-8.3-17.2
		c-2.6-9.8-2.1-20.1-2.2-30.2c-0.1-5-0.3-10-1.1-15c-0.7-4.5-1.8-8.9-3.3-13.2c-3-8.7-7.6-16.7-13.5-23.8
		c-5.4-6.5-12.6-12.6-21.2-14.3c-1.1-0.2-2.2-0.4-3.3-0.4c-0.7-0.1-1.3,0.6-1.3,1.3c0,0.7,0.6,1.3,1.3,1.3
		c8.5,0.6,15.7,6.1,21.1,12.2c5.9,6.6,10.6,14.4,13.7,22.7c1.6,4.2,2.8,8.5,3.6,12.9c0.8,4.8,1.2,9.7,1.3,14.5
		c0.2,10.1-0.3,20.3,1.8,30.3c1.9,9,6.1,17.3,12.3,24.1c0.7,0.8,1.5,1.6,2.3,2.4c0.5,0.5,1.3,0.5,1.8,0c0.5-0.5,0.5-1.3,0-1.8
		c-2.5-3-2.8-7.2-2.7-11c0.1-4.8,0.7-9.6,1.1-14.3c0.1-1,0.2-2,0.2-3c2,4.4,4.7,8.3,8,11.8c1.3,1.4,2.7,2.7,4.2,3.9
		c0.5,0.4,1.2,0.6,1.7,0.1c0.5-0.4,0.6-1.1,0.3-1.7c-1.9-3.3-2.9-7-2.7-10.8c4.3,4,9.3,7.2,14.8,9.3c1.8,0.7,3.6,1.3,5.4,1.8
		c0.7,0.2,1.4-0.2,1.6-0.9c0.1-0.4,0-0.9-0.3-1.2c-3.7-3.5-6.6-7.9-8.3-12.7c2.6,1.7,5.7,2.6,8.8,2.7
		C246.6,190.8,247.3,189.9,247.1,189.1z M61.4,173.4c0.4-8.9,0.8-17.9,3-26.5c1.9-7.5,5.3-14.5,9.9-20.7c2.5-3.4,5.3-6.5,8.4-9.3
		l-0.2,0.4c-0.9,2.3-1.8,4.7-2.4,7.2c-1.3,4.9-2.2,10-3,15.1s-1.7,10.2-3,15.2c-1.3,4.9-3.1,9.7-5.4,14.2c-2.2,4.3-4.8,8.4-7.8,12.3
		C61.2,178.5,61.3,176,61.4,173.4z M20.7,220.9c0,0,0,0,0,0.1C20.7,221,20.7,221,20.7,220.9z M45.4,98.7
		C45.4,98.6,45.4,98.5,45.4,98.7L45.4,98.7z M94.8,54c-5.3-1.8-10.8-2.7-16.3-2.7c-1.7,0-3.4,0.1-5.1,0.3c-0.7,0.1-1.3,0.5-1.3,1.3
		c0,0.7,0.6,1.3,1.3,1.3c1.4,0.1,2.8,0.3,4.2,0.6c1.4,0.3,2.8,0.7,4.2,1.2c1.3,0.5,2.6,1.1,3.8,1.8l0.7,0.4l-3,0.3
		c-0.6,0-1.1,0.4-1.2,1s0.1,1.1,0.6,1.5c1.7,0.9,3.3,1.8,4.9,2.8l2.4,1.7l0.5,0.3c0,0,0.2,0.2,0.2,0.2l0.2,0.1l1.1,0.9
		c1.4,1.2,2.8,2.5,3.9,4c0.6,0.7,1.1,1.3,1.6,2.1c0.5,0.8,1,1.5,1.4,2.3c0.5,0.9,0.9,1.9,1.2,2.9c-2.5-1.2-5-2.2-7.6-3
		c-1.4-0.4-2.2,1.6-1,2.4c0.4,0.2,0.7,0.5,1,0.8l0.5,0.5c0.1,0.1,0.2,0.2,0.3,0.3l0.1,0.1c0,0,0,0.1,0,0.1c0.2,0.3,0.4,0.6,0.6,0.8
		C86,80.2,78,81.9,70.7,85.3c-6.6,3-12.3,7.3-17.3,12.4c0,0,0,0,0-0.1c-0.1-0.2-0.1-0.5-0.2-0.8c0-0.1,0-0.1,0-0.2c0,0,0-0.1,0-0.1
		v-0.7c0-0.4,0-0.8,0.1-1.2c0.4-2,1.3-4,2.1-5.9c1.6-3.9,2.8-7.9,3.6-12c0.8-4.3,0.9-8.7,1-13.1c0-4.3,0.4-8.7,1-12.9
		c0.3-2.2,0.6-4.5,1.1-6.7c0.1-0.4,0.2-0.9,0.3-1.3l0.1-0.2c0-0.1,0-0.1,0.1-0.2c0.1-0.2,0.2-0.4,0.3-0.6c0.1-0.2,0.2-0.3,0.3-0.5h0
		l0.3-0.3l0.1-0.1c0,0,0.1-0.1,0.1-0.1l0.2-0.1l0.1-0.1c0.7-0.2,1.1-0.9,0.9-1.6c-0.2-0.6-0.9-1.2-1.6-0.9c-3.8,1.4-4,6.2-4.6,9.6
		c-0.7,4.5-1.2,9.1-1.4,13.7c-0.1,4.5,0,9.1-0.7,13.4c-0.7,4.4-2,8.5-3.5,12.6c-0.9,2.2-2,4.5-2.5,6.9s-0.1,3.9,0.8,5.5l-1.3,1.4
		c-0.7,0.8-1.3,1.5-1.9,2.2c-0.1-0.1-0.2-0.2-0.2-0.2l-0.3-0.4c0,0,0-0.1-0.1-0.1c0,0,0-0.1,0-0.1c-0.1-0.2-0.1-0.4-0.2-0.6v-0.1
		c0-0.1,0-0.2,0-0.2c0-0.1,0-0.2,0-0.3V101c0-0.1,0-0.1,0-0.2c0-0.1,0-0.2,0.1-0.2l0.2-0.7c0.3-1,0.3-2.1-0.4-2.9
		c-0.5-0.5-1.2-0.9-1.9-1.1h-0.2c-0.1,0-0.2-0.1-0.2-0.2c0,0,0,0-0.1,0c0,0,0-0.1,0-0.1c0-0.1-0.1-0.2-0.1-0.4c0-0.1,0-0.2-0.1-0.3
		c0-0.2,0-0.3,0-0.5c0-0.4,0-0.8,0-1.2s0-0.3,0-0.5s0-0.3,0-0.3s0.1-0.7,0.2-1.1c0.1-0.3,0.2-0.7,0.3-1s0.2-0.4,0.4-0.9
		c0.2-0.4,0.4-0.8,0.6-1.1l0.3-0.5l0.1-0.2h0c0,0,0,0,0-0.1c0.3-0.3,0.6-0.6,0.9-0.9l0.5-0.4l0.2-0.2h0l0.1-0.1
		c0.7-0.3,0.9-1.1,0.6-1.8c0-0.1-0.1-0.1-0.1-0.2c-0.7-1.5-1.6-3-2.5-4.4l0.6-0.2c1-0.5,1.5-1.7,1.2-2.7c-0.2-0.8-0.6-1.5-1.2-2
		c0.9,0.1,1.7,0.2,2.5,0.3c0.7,0.1,1.5-0.2,1.6-0.9c1.6-7.1,2.7-14.2,3.2-21.4c0.5-7.1,0.5-14.2-0.1-21.3c-0.3-3.6-0.9-7.2-1-10.8
		v-0.7h0.1l2.2,0.3c1.6,0.2,3.1,0.6,4.7,1.1c3,0.9,5.9,2.2,8.5,4c2.8,1.8,5.3,4.1,7.8,6.4c5,4.7,10,9.6,14.4,14.9l1.6,2
		c0.2,0.3,0.6,0.4,0.9,0.4c0.2,0.3,0.4,0.7,0.5,1l0.1,0.2c-0.1-0.1,0-0.1,0,0.1l0.2,0.4c0.1,0.3,0.2,0.7,0.3,1.1
		C94.8,52.4,94.9,53.2,94.8,54z M190.4,82.2c-0.2,0.4-0.3,0.8-0.4,1.2c-0.1,0.3-0.1,0.6-0.1,0.9l-0.3-0.2c-1-0.7-1.9-1.4-2.9-1.9
		c-0.2-0.1-0.5-0.2-0.7-0.3l-2.4-1.5c-5-3-10.5-5.7-16.2-7.1c-4.2-1-8.5-1.2-12.7-0.5l1-0.8c2.2-1.6,4.5-3,6.7-4.5h0l2.4-1.5
		c5.1-3,10.3-5.9,15.6-8.6c-1.2,1-2.5,2.1-3.6,3.3l-2,2c-0.7,0.8-1.5,1.7-1.3,2.8c0.1,1.1,1,1.7,1.9,1.1c1.9-1.1,3.9-2.1,6-2.9
		c-1,1.1-2,2.3-2.8,3.6c-0.5,0.8,0.1,2,1.1,1.9c2.4-0.2,4.9-0.5,7.2,0c0.5,0.1,1,0.2,1.5,0.4c0.4,0.1,0.8,0.3,1.2,0.5l0.4,0.2
		c-2.8,0.9-5.5,2.2-7.9,4c-0.4,0.3-0.8,0.9-0.6,1.5c0.3,0.8,0.9,1.5,1.7,1.9c0.7,0.3,1.4,0.6,2.2,0.6l0.6,0.1c0,0,0.2,0,0.2,0.1
		l0.3,0.1l0.1,0c0,0,0,0,0.1,0h0l0.7,0.4l0.4,0.2l0.2,0.1l0.2,0.1c0,0,0.1,0,0.1,0.1l0.2,0.2l0.3,0.2l0.7,0.7l0.5,0.6l0.1,0.1
		l0.2,0.3l0.2,0.3L190.4,82.2z M186.1,78.3h0.1C186.5,78.3,186.1,78.3,186.1,78.3z M190.6,82.2C190.6,82.3,190.6,82.4,190.6,82.2
		L190.6,82.2z M212.8,116.9c-1.7-4.8-3.8-9.4-6.5-13.7l-1.3-2.2l0.2-0.1l0.1-0.1l0.3-0.2l0.2-0.1l0.3-0.1h0.2c0.7,0.1,1.5-0.2,2-0.7
		c0.5-0.6,0.7-1.4,0.4-2.1c-0.2-0.6-0.6-1.1-1-1.6c0,0,0-0.1-0.1-0.1l0.9-0.2c0.7-0.1,1.3-0.1,2-0.1c0.7,0,1.3-0.6,1.3-1.3
		c0-1.7-1.2-2.8-2.5-3.6l-0.4-0.3l-0.2-0.1h-0.1l-0.3-0.3c0,0-0.2-0.3-0.2-0.2l-0.2-0.4c0-0.1,0-0.1-0.1-0.2V89
		c0.3-0.3,0.5-0.6,0.7-0.8c0.3-0.5,0.3-1.1,0.2-1.6c-0.2-0.9-0.9-1.5-1.6-1.9c-0.9-0.6-1.8-1-2.8-1.3c1.6-2.5,3.8-4.6,5.8-6.9
		s4.7-5.4,7-8.2c4.5-5.6,8.7-11.6,12-18c1.9-3.6,3.5-7.4,4.7-11.2c0.2-0.7-0.2-1.4-0.9-1.6c-0.7-0.2-1.4,0.2-1.6,0.9
		c-2.2,6.7-5.4,12.9-9.3,18.9s-8.3,11.4-13.1,16.8c-1.3,1.5-2.7,2.9-4,4.5c-1.5,1.6-2.7,3.3-3.7,5.2c-0.5,0.9,0.1,1.8,1.1,1.9
		c-0.1,0-0.1,0,0.1,0h0.3l0.5,0.1l1,0.3l0.8,0.4c0.3,0.1,0.6,0.3,0.9,0.5l0.1,0.1l0.1,0.1c-0.6,0.5-0.9,1.2-0.9,2
		c0,1.5,1.1,2.7,2.2,3.5l0.7,0.5l0.1,0.1h-0.3c-0.7,0.1-1.5,0.2-2.1,0.5c-0.7,0.4-1.2,1.1-1.1,1.9c0,0.8,0.5,1.5,1,2l0.2,0.2
		l-0.5,0.1c-0.7,0.2-1.3,0.5-1.9,1c-2.2-3-4.6-5.8-7.2-8.4c-1.1-1.1-2.3-2.2-3.5-3.3c0.2-0.4,0.3-0.8,0.2-1.2
		c-0.1-0.4-0.3-0.8-0.4-1.3c-0.1-0.4,0-0.1,0-0.2c0-0.1,0-0.2,0-0.4c0-0.1,0.1-0.2,0.1-0.3l0.1-0.2l0.1-0.2c0.4-0.6,0.5-1.2,0.3-1.9
		c-0.3-1.2-1.2-2.2-2-3c-1-1-2.2-1.8-3.5-2.4c-0.3-0.1-0.7-0.2-1.1-0.3h-0.2c0,0,0,0,0,0c-0.2,0-0.4,0-0.6-0.1l-0.5-0.1
		c2.5-1.7,5.3-2.8,8.3-3.4c1-0.2,1.2-1.5,0.6-2.1c-2.9-3.3-7.3-3.7-11.4-3.6c0,0,0-0.1,0.1-0.1c0.7-0.8,1.4-1.5,2.1-2.1
		c0.3-0.3,0.7-0.6,1-0.8l1.2-0.9c0.9-0.5,1.8-1,2.7-1.4c0.6-0.2,0.8-1.1,0.5-1.6c-0.2-0.6-0.9-0.9-1.5-0.8c-3,0.7-6,1.6-8.9,2.8
		c0.8-0.8,1.7-1.6,2.6-2.3c2.4-2,4.9-3.9,7.6-5.7c1.6-1,3.1-2,4.7-2.9c0.6-0.3,0.8-1.1,0.5-1.8c-0.4-0.7-1.1-0.8-1.8-0.5
		c-6.2,2.8-12.3,5.8-18.3,9l0.7-0.5c2.2-1.5,4.4-3,6.5-4.6c2.1-1.6,5.1-4,7.5-6.2c4.8-4.1,9.8-8.2,14.9-12
		c5.2-3.8,10.6-7.3,16.2-10.4c2.7-1.5,5.5-2.8,8.4-4c1.5-0.6,3-1.2,4.5-1.7c1.5-0.5,2.7-0.9,4.1-0.8l0.6,0.1
		c-0.8,2.3-1.1,4.7-1.5,7.1c-0.6,3.1-1,6.3-1.4,9.4c-0.7,5.5-1.1,10.9-2.1,16.3s-2.5,11.2-4.3,16.6c-0.9,2.7-1.8,5.4-2.7,8
		c-0.5,1.4-1,2.8-1.5,4.3c-0.5,1.5-0.8,2.6-1.4,3.6c-1.2,2.4-3,4.1-4.6,6.3c-1.6,2.1-2.8,4.4-2.8,7.1c0,0.7,0.6,1.3,1.3,1.3h0h0.6
		c-0.8,0.5-1.6,1-2.3,1.7c-0.8,0.7-1,1.7-0.7,2.6c0.3,0.9,1.1,1.4,1.9,1.9c0.2,0.1,0.3,0.2,0.4,0.3l0.1,0.1l0.1,0.1l0.2,0.2
		c0.1,0.2,0.2,0.3,0.3,0.5c0,0,0,0,0,0.1c0,0.1,0.1,0.1,0.1,0.2l0.1,0.4v0.3c0,0.2,0,0.3,0,0.5c0,0.1,0,0.2-0.1,0.3
		c0,0.1,0,0.1-0.1,0.2c0,0,0,0.1,0,0.1c-0.1,0.1-0.1,0.3-0.2,0.4l-0.1,0.1c-0.1,0.1-0.2,0.2-0.2,0.3c-0.8,0.7-1.2,1.8-1.1,2.8
		c0.2,2,1,3.9,1.4,5.8C216.3,117.1,214.5,117,212.8,116.9z M217.4,100.7C217.4,100.7,217.3,100.6,217.4,100.7
		C217.4,100.6,217.4,100.7,217.4,100.7z"/>
	<path style="stroke:#000000;stroke-width:3;stroke-linecap:round;stroke-linejoin:round;stroke-miterlimit:10;" d="M218.2,176.1
		c-0.3,0.6-0.1,1.4,0.5,1.8l11,6.3c0.5,0.3,1.2,0.2,1.6-0.2c0.3-0.4,0.5-1.1,0.2-1.6c-2.1-2.8-3.4-5.7-4.4-9s-1.7-6.8-2.3-10.3
		c-1.2-6.3-2.4-12.8-5.8-18.4c-1.8-3.1-4.3-5.7-7.3-7.6c-0.6-0.3-1.4-0.1-1.8,0.5c-0.3,0.6-0.1,1.4,0.4,1.8c1.2,0.7,2.4,1.6,3.4,2.7
		c0.5,0.5,1,1.1,1.5,1.7h0c0,0.1,0.1,0.2,0.2,0.2l0.3,0.4c0.2,0.3,0.4,0.7,0.7,1c0.8,1.3,1.6,2.7,2.1,4.1c0,0,0,0.1,0,0.1l0.1,0.2
		l0.2,0.6l0.4,1.1c0.3,0.7,0.5,1.5,0.7,2.2c1.9,6.4,2.5,13.1,4.3,19.5c0.6,2.1,1.4,4.2,2.4,6.2c-2.2-1.2-4.4-2.5-6.6-3.8
		C219.4,175.3,218.6,175.5,218.2,176.1z"/>
	<path style="stroke:#000000;stroke-width:3;stroke-linecap:round;stroke-linejoin:round;stroke-miterlimit:10;" d="M174.4,95
		c2.4,1.5,4.5,3.3,6.3,5.4c0.5,0.5,1.3,0.5,1.8,0c0.5-0.5,0.5-1.3,0-1.8c-3.4-4-8-6.9-12.8-8.9c-2.5-1.1-5.1-2-7.7-2.8
		c-2.6-0.8-5.5-1.7-8.2-2.4c-3.6-0.9-7.3-1.5-11.1-1c-0.7,0.1-1.1,1-0.9,1.6c0.2,0.6,0.9,1,1.6,0.9c3-0.4,6,0.1,8.9,0.8
		c2.9,0.7,5.5,1.5,8.2,2.3C165.4,90.7,170,92.3,174.4,95z"/>
</g>
</svg>
