<?xml version="1.0" encoding="utf-8"?>
<!-- Generator: Adobe Illustrator 27.9.0, SVG Export Plug-In . SVG Version: 6.00 Build 0)  -->
<svg version="1.1" id="Layer_1" xmlns="http://www.w3.org/2000/svg" xmlns:xlink="http://www.w3.org/1999/xlink" x="0px" y="0px"
	 viewBox="0 0 278.7 253.8" style="enable-background:new 0 0 278.7 253.8;" xml:space="preserve">
<g>
	<path style="stroke:#000000;stroke-width:3;stroke-linecap:round;stroke-linejoin:round;stroke-miterlimit:10;" d="M262.4,160.1
		c-0.4-1.6-1.3-3-2.6-4c-0.9-0.8-2.3-1.5-2.9-2.5s-0.4-1.4-0.4-2.2s-0.2-2.5-0.3-3.7c-0.2-2.5-0.3-4.9-0.4-7.4
		c-0.4-8.6-0.6-17.3-2.1-25.9l0.9,0.2l2.8,0.5c0.7,0.2,1.4,0.4,1.7,0.7c1.7,1.7,4-0.4,3.2-2.5c-0.9-2-2.5-4.6-3.8-7
		c-1.2-2.3-2-5.6-3.1-8.3c-1.9-4.8-3.6-9.5-4-14.6c0.6,0.1,1.3,0.2,1.9,0.2c1.7,0.2,3.4,0.2,5.1,0c1.3-0.2,1.7-1.9,1.2-3
		c-4.7-8.9-10.9-16.9-18.5-23.6c-1.9-1.6-3.8-3.2-5.8-4.6c-2.1-1.5-4.1-3-6.3-4.3c-4.5-2.7-9.3-4.7-13.7-7.5c-2.1-1.3-4-2.8-5.8-4.5
		c-1.5-1.5-3.2-2.9-4.8-4.2c-3.6-2.8-7.3-5.1-11.3-7.2c-8.1-4.1-16.8-6.9-25.7-8.7c-17.2-3.5-35.5-3.7-52.9-1.4
		c-17.4,2.3-34.9,8.1-48,20.2c-1.8,1.7-3.5,3.3-5.5,4.7c-2,1.5-4.2,2.8-6.4,4c-4.6,2.4-9.3,4.5-13.4,7.7c-4.1,3.3-7.2,7.5-10.2,11.6
		S25.8,71,23.1,75c-1.3,2-2.7,4-4.1,5.9c-0.7,1,0,2.8,1.2,3c1.1,0.2,2.3,0.2,3.4-0.1c-0.4,11.1-2.8,22.1-7,32.4
		c-0.8,1.9,2.1,3.4,3.4,2c0.2-0.2,0.4-0.5,0.6-0.7c-2.2,15.4-0.6,31.2-4.2,46.4c-0.3,1.1,0.4,2.2,1.5,2.5c0.4,0.1,0.8,0.1,1.2-0.1
		c-0.9,2.6-1.9,5.1-2.7,7.7c-1.9,6.1-2.6,12.8,0.5,18.7c0.6,1.3,2.8,1.3,3.5,0l3.5-7c1.1,6.4,0.6,13-1.5,19.3c-0.2,1,0.2,2,1.2,2.4
		c1,0.4,1.9,0,2.5-0.8c2.1-2.8,4-5.8,5.7-8.9c0.8,3.8,1.7,7.7,2.5,11.6c0.3,1.4,1.9,1.7,3,1.2c2.9-1.3,5.3-3.5,7-6.2
		c0.7,4.1-0.1,8.4-1.1,12.4c-1.5,6.3-3.1,12.5-2.1,18.9c0.3,1.9,2.9,1.8,3.7,0.5c4-6,7.2-12.4,9.7-19.2c1.8,2.1,3.8,4,5.9,5.8
		c1.5,1.4,3.9,2.5,5.6,0.7c0.7-0.8,1.3-1.7,1.7-2.7l0.5,0.3c0.3,0.2,0.7,0.2,1.1,0.2c4.7,3.5,9.9,6.4,15.5,7.9
		c1.7,0.4,3.5,0.8,5.3,1c1.9,0.2,3.4-0.5,3.6-2.6c0-0.4,0-0.8-0.1-1.3c-0.1-0.8-0.5-1.5-0.6-2.2c-0.3-0.9-0.1-2,0.4-2.8
		c2.3-3.1,6.7-0.2,9.2,1c0.8,0.5,1.8,0.3,2.5-0.4c0.7-0.6,0.8-1.6,0.3-2.4c-2.4-4.6-4.8-9.1-6.8-13.9s-3.8-9.8-4.1-15.1
		c-0.2-2.6,0-5.2,0.3-7.8c0.2-1.2,0.4-2.4,0.7-3.6c0.3-1.2,0.7-2.6,0.3-4.1c-0.8-2.4-3.1-3.5-4.9-5c-0.9-0.7-1.7-1.6-2.2-2.6
		c-0.5-1.1-0.8-2.3-1.1-3.5c-0.4-2.4-0.7-5.7-2.6-7.5c-1.9-1.8-3.7-1.3-5.5-0.3c-1.9-2-1.7-5.5-1.8-8.1c0-4.5,0.2-9.1-0.6-13.6
		c-0.7-3.8-2.6-7.3-4.4-10.8c-1.6-3.2-3.6-6.2-5.8-9l-1.3-1.4c0.5-0.8,0.9-1.8,1.2-2.8c0.4-1.4,0.8-2.8,1.2-4.3
		c0.8-3.1,1.4-6.3,1.6-9.6c0.1-3.1-0.4-6.2-1.3-9.2c-0.4-1.4-0.7-2.8-1-4.3c0-0.1,0-0.2,0-0.3c0-0.2,0-0.3,0-0.5
		c0-0.4,0-0.7-0.1-1.1c0-0.7,0-1.3,0.1-2c0-0.2,0-0.4,0-0.5c0-0.1,0-0.2,0-0.2v-0.1c0-0.3,0.1-0.6,0.2-1c0-0.4,0.4-1.5,0.6-2.3
		c0.1-0.4,0.2-0.7,0.4-1c0.1-0.2,0.2-0.4,0.3-0.6c0.4-0.7,0.8-1.4,1.2-2.1c0.6-1,0.2-2.2-0.7-2.8c-1-0.6-2.2-0.2-2.8,0.7
		c-1.6,2.4-2.6,5.1-3.1,7.9c-0.5,3-0.4,5.9,0.4,8.9c0.3,1.5,0.8,3,1.1,4.4c0.2,0.7,0.3,1.4,0.4,2.1c0,0,0,0.1,0,0.1v0.1
		c0,0.2,0,0.4,0,0.6c0,0.4,0.1,0.8,0.1,1.1c0,1.5,0,3-0.2,4.5c0,0.1-0.1,0.2-0.1,0.3c0,0.2,0,0.4-0.1,0.6c0,0.3-0.1,0.6-0.2,1
		c0,0.3-0.3,1.7-0.5,2.5c-0.4,1.7-0.8,3.3-1.3,4.9c-0.2,0.7-0.4,1.3-0.6,2c0,0,0,0,0,0v0.1l-0.1,0.1c-1.7-1.2-3.5-2.2-5.4-2.9
		c-1.1-0.4-2.2,0.4-2.5,1.4c-0.3,1,0.4,2.1,1.4,2.5c6.5,2.4,10.3,8.6,13.3,14.5c1.8,3.4,3.5,6.8,4,10.7c0.5,3.9,0.2,8.9,0.3,13.3
		c0.2,4.4,1,8.1,4.7,10.3c0.8,0.5,1.8,0.4,2.5-0.3c0.2-0.3,0.5-0.5,0.9-0.6c0.2-0.1,0.5,0,0.4-0.1c0.6,0.5,0.8,2.1,1,2.8
		c0.5,2,0.7,4.1,1.5,6.1c0.8,2,2.5,4,4.5,5.6l1.4,1.1c0.4,0.2,1,0.6,1.3,1c0.2,0.4,0,1.6-0.2,2.3c-1.2,4.9-1.5,10-1,15
		c0.5,4.8,2.3,9.5,4.2,14c1.3,3,2.7,5.8,4.1,8.7c-0.1,0.2-0.1,0.4-0.2,0.6c-2.3-0.6-4.6-0.6-6.8,0.9c-3,2.1-3.6,5.5-2.6,8.7
		l-1.2-0.2c-1.1-0.2-2.1-0.5-3.1-0.8c-1.9-0.6-3.8-1.3-5.7-2.3c-3.8-1.9-7.3-4.2-10.5-7c-0.4-0.4-1-0.6-1.6-0.6
		c-0.7,0-1.3,0.4-1.6,1c-0.8,1.2-1.3,2.6-2.1,3.8l-0.2-0.2c-0.4-0.3-0.8-0.7-1.2-1.1l-2.4-2.3c-1.6-1.4-3-3.1-4.1-4.9
		c-0.9-1.5-3.2-1.1-3.7,0.5c-1.7,5.5-4,10.9-6.9,16c0.5-4.1,1.7-8.3,2.5-12.3c1.3-6.2,1.7-12.5-1.4-18.2c-0.8-1.5-3.4-1.3-3.7,0.4
		c-0.6,3.1-2.3,5.8-4.9,7.6c-1-4.8-2-9.6-3-14.4c-0.4-1.7-3-2-3.7-0.5c-0.7,1.5-1.7,3.4-2.7,5c0.4-5.5-0.2-11.1-1.8-16.4
		c-0.4-1.6-2.9-2.1-3.7-0.5l-3.8,7.6c-0.7-4.2,0.4-8.8,1.8-12.8c1.9-5.6,4.2-11,4.6-17c0.2-1.9-2.1-2.5-3.4-1.5
		c1.7-14.4,0.5-29.2,3.8-43.5c0.2-1.1-0.5-2.3-1.6-2.5c-0.2,0-0.5,0-0.7,0c2.8-9.2,4.3-18.8,4.2-28.4c0-1.2-1-2.1-2.2-2
		c0,0,0,0-0.1,0c4.5-6.6,8.5-13.4,13.8-19.3c1.6-1.8,3.2-3.7,5.1-5.2c2-1.5,4.2-2.9,6.4-4c4.6-2.4,9.2-4.5,13.4-7.6
		c3.6-2.6,6.5-5.9,10-8.6c3.4-2.5,7.1-4.8,11-6.7c7.6-3.8,15.9-6.2,24.3-7.7c8.4-1.5,17-2.3,25.5-2.3c8.5-0.2,16.9,0.3,25.3,1.5
		c17.1,2.6,34.3,8.5,46.9,20.8c3.6,3.5,8.2,6.2,12.6,8.3c2.3,1.2,4.6,2.3,6.8,3.6c2.2,1.3,4,2.7,6,4.1c7.9,5.5,14.7,12.9,19.9,21
		c0.7,1.1,1.3,2.1,1.9,3.2l-0.9-0.1c-0.7,0-1.3-0.2-2-0.3c-0.4,0-0.9-0.2-1.3-0.5c-1.3-0.9-3.1,0.3-3.1,1.7c0,6.6,2,12.5,4.4,18.5
		c1.1,2.9,1.9,6,3.3,8.8c0.4,0.9,1,1.9,1.5,2.8l-2.1-0.4c-0.6-0.1-1.2-0.4-1.7-0.7c-1.5-1.5-3.8,0-3.4,1.9
		c2.2,9.7,2.3,19.7,2.8,29.6c0.1,2.5,0.2,5,0.4,7.4c0.2,2.5,0.1,4.6,1,6.6c0.4,0.8,0.9,1.5,1.6,2.1c-1.3,0-2.5,0-3.8-0.1
		c-0.5,0-1-0.1-1.5-0.2l-0.3-0.1l-0.1-0.1H249c-1.1-1.3-3.8-0.9-3.6,1.2c0.4,6,3.9,10.8,7,15.9c1.4,2.3,2.8,4.8,3.4,7.5
		c0.4,1.7,0.4,3.4,0.1,5.1c-1.3-2.6-2.5-5.1-3.8-7.7c-0.8-1.6-3.2-1.1-3.7,0.5c-1.6,5.3-2.2,10.8-1.8,16.4c-0.9-1.6-1.8-3.3-2.7-5
		c-0.8-1.7-3.3-1.2-3.7,0.5c-1,4.8-2,9.6-3,14.4c-2.5-1.8-4.2-4.5-4.9-7.6c-0.3-1.7-2.9-1.9-3.7-0.4c-3.1,5.7-2.7,12.1-1.4,18.2
		c0.8,4,2.1,8.2,2.5,12.3c-2.8-5.1-5.1-10.5-6.9-16c-0.5-1.6-2.8-2-3.7-0.5c-1.1,1.8-2.5,3.5-4.1,4.9l-2.3,2.1l-1.2,1.1l-0.4,0.3
		c-0.8-1.2-1.3-2.7-2.1-3.8c-0.3-0.6-0.9-1-1.6-1c-0.6,0-1.2,0.2-1.6,0.6c-3.2,2.8-6.7,5.1-10.5,7c-1.8,0.9-3.7,1.7-5.7,2.3
		c-1,0.3-2.1,0.6-3.1,0.8l-1.2,0.2c1.1-3.2,0.4-6.7-2.6-8.7c-2.3-1.5-4.5-1.5-6.8-0.9c0-0.2-0.1-0.4-0.2-0.6
		c3.4-6.6,6.6-13.3,8-20.6c1-4.9,0.6-10.2-0.2-15c-0.2-1.1-0.7-2.3-0.8-3.4s0.7-1.3,1.4-1.9c1.9-1.4,3.9-2.8,5.1-4.9
		s1.7-4.7,2.1-7.1c0.2-1.1,0.6-2.2,1-3.3c0.1-0.4,0.1-0.4,0.4-0.2c0.4,0.2,0.7,0.4,1,0.7c0.6,0.6,1.7,0.8,2.5,0.3
		c4.7-2.9,5.4-9.4,4-14.3c-1.4-4.9-3.9-8.7-4.3-13c-0.2-0.7-0.1-1.5,0.2-2.2c0.1-0.1,0.2-0.2,0.2-0.4l0.1-0.2l0.1-0.1
		c0.3-0.3,0.6-0.6,1-0.8c1.8-1.4,3.5-2.8,5.2-4.3c3.9-3.4,7.7-7,11.8-10.2c1.9-1.5,4-2.9,6.3-4.1c0.8-0.4,1.7-0.7,2.5-0.9
		c0.6-0.1,1.1-0.1,1.7,0c2.5,0.7,3.6-3.2,1.1-3.9c-3.9-1.1-8,1.4-11.1,3.5c-0.8,0.6-1.7,1.2-2.5,1.8c-0.1-0.2-0.2-0.4-0.3-0.6
		c-0.1-0.1-0.1-0.2-0.2-0.3v-0.1l-0.1-0.2c0-0.2-0.1-0.3-0.2-0.5c-0.3-0.9-0.6-1.9-0.8-2.9c-0.6-2.2-1.2-4.4-1.6-6.6l-0.1-0.8
		c0-0.1,0-0.3,0-0.4v-0.1c-0.1-0.6-0.2-1.1-0.2-1.7c-0.1-1.1-0.1-2.3,0-3.4c0-0.2,0-0.5,0.1-0.8c0-0.1,0-0.2,0-0.4
		c0-0.1,0-0.2,0-0.3c0.1-0.6,0.2-1.1,0.2-1.7c0-1-0.2-2-0.5-2.9l-0.4-1.1c0-0.2-0.1-0.4-0.2-0.6c0-0.2,0-0.3-0.1-0.5v-0.2v-0.1v-0.2
		c0-0.2,0-0.3,0-0.5c0-0.2,0.1-0.4,0.1-0.6c0-0.1,0-0.2,0-0.4c-0.1-1.4-0.4-2.7-1.1-3.9c-1.3-2.6-3.6-4.8-6-6.4
		c-2.4-1.6-6.2-2.9-9.3-1.5c-1,0.4-1.3,1.9-0.7,2.8s1.7,1.2,2.8,0.7c-0.7,0.3,0.1,0,0.3-0.1h0.4c0.2,0,0.5,0,0.8,0h0l0.4,0.1
		l0.8,0.2l0.4,0.1l0.1,0.1c0.6,0.2,1.2,0.5,1.7,0.9l0.8,0.5l0.2,0.1l0.1,0.1h0.1c0,0,0,0,0,0l0.2,0.2c0.5,0.4,1,0.8,1.5,1.3l0.6,0.7
		l0.3,0.4h0c0,0,0,0,0,0.1c0,0,0.7,1,1,1.5l0.2,0.4c0.1,0.2,0.2,0.5,0.2,0.7l0.1,0.4v0.2c0,0.1,0,0.2,0,0.4v0.2
		c0,0.2-0.1,0.5-0.1,0.8c0,0.6,0,1.1,0.1,1.7c0.2,0.8,0.4,1.6,0.6,2.4c0.1,0.4,0.2,0.7,0.3,1.1c0,0,0,0.2,0.1,0.3v0.9
		c-0.1,0.4-0.1,0.7-0.2,1.1c0,0.3-0.1,1.1-0.2,1.7c-0.1,2.3,0.1,4.5,0.5,6.8c0.4,2.4,1,4.8,1.7,7.2c0.5,2,1.1,4.1,2.3,5.8
		c-2.3,1.9-4.5,3.9-6.8,5.9c-2.2,2-3.7,3.3-5.6,4.9s-3.5,2.3-4.5,4.2c-2.1,4.3,0.6,9.5,2.1,13.5c0.9,2.3,2,4.9,2.1,7.2
		s-0.2,4.9-1.7,6.5c-1.4-0.8-3.1-1.1-4.7-0.2c-1.5,0.9-2.7,4.1-3.2,6.4c-0.4,2.2-0.6,4.8-2.2,6.6c-0.8,0.8-1.6,1.6-2.5,2.2
		c-1,0.8-2.3,1.5-3,2.6c-0.6,0.9-0.9,2-0.9,3.1c0,1.4,0.6,3,0.9,4.4c0.5,2.5,0.7,5,0.7,7.6c0,2.7-0.4,5.3-1,7.9
		c-0.6,2.5-1.5,5-2.5,7.4c-2.1,5.4-4.9,10.4-7.5,15.6c-0.5,0.8-0.4,1.8,0.3,2.4c0.6,0.7,1.6,0.8,2.4,0.4c2.6-1.1,6-3.6,8.7-1.5
		s0.5,4,0.3,6.1c-0.1,1.4,0.3,3,1.9,3.4c0.8,0.2,1.9,0,2.8-0.2c0.9-0.1,1.9-0.3,2.8-0.5c3.5-0.8,6.9-2.1,10-3.8
		c2.4-1.3,4.7-2.8,6.9-4.4c0.4,0,0.8-0.1,1.1-0.2l0.5-0.3c0.4,1,1,1.9,1.7,2.7c1.7,1.8,4.1,0.6,5.6-0.7c2.1-1.8,4.1-3.7,5.9-5.8
		c2.4,6.8,5.7,13.2,9.7,19.2c0.8,1.3,3.4,1.4,3.7-0.5c0.9-6.5-0.7-12.7-2.1-18.9c-0.9-4-1.7-8.3-1.1-12.4c1.7,2.7,4.1,4.9,7,6.2
		c1.1,0.5,2.7,0.2,3-1.2l2.5-11.6c1.7,3.1,3.6,6.1,5.7,8.9c0.6,0.8,1.5,1.3,2.5,0.8c0.9-0.4,1.4-1.4,1.2-2.4
		c-2-6.2-2.5-12.8-1.5-19.3l3.5,7c0.7,1.3,2.8,1.3,3.5,0c1.7-3.3,2.4-7,2-10.6c-0.4-3.1-1.6-5.9-3.1-8.5c-2.2-4-5.4-7.9-6.8-12.3
		c0.9,0.1,1.9,0.1,2.8,0.1c1.4,0,2.8,0,4.1,0.1c0.5,0,1,0.1,1.5,0.2l0.3,0.1h0.2C260.2,163.4,263,162.4,262.4,160.1z M63.9,220.2
		C64.1,220.2,64.1,220.3,63.9,220.2L63.9,220.2z M249,156.8c0,0,0.1,0,0.1,0.1L249,156.8z"/>
	<path style="stroke:#000000;stroke-width:3;stroke-linecap:round;stroke-linejoin:round;stroke-miterlimit:10;" d="M59.2,70
		c0.1-0.4,0.2-0.8,0.4-1.1l0.1-0.2c0.1-0.2,0.2-0.4,0.3-0.6c0.4-0.7,0.8-1.4,1.3-2.1l0.2-0.3l0.4-0.4l0.8-1c0.6-0.6,1.2-1.2,1.9-1.7
		l0.2-0.2l0.1-0.1l0.6-0.5l1.1-0.8c0.9-0.5,1.7-1.1,2.7-1.5c1.8-0.9,3.6-1.8,5.5-2.5c1-0.4,1.3-1.9,0.7-2.8s-1.7-1.2-2.8-0.7
		c-6.6,2.8-13.6,6.4-16.7,13.3c-0.8,1.7-1.3,3.6-1.5,5.5c-0.1,1.9,0.2,3.8,0.8,5.5c0.5,1.7,1.3,3.4,2,5.1c0.3,0.8,0.6,1.7,0.8,2.6
		c0.1,0.4,0.2,0.8,0.3,1.1l0.1,0.7v0.2c0,0,0,0,0,0.1c0.1,1,0.1,1.9,0.1,2.9c0,0.4,0,0.9-0.1,1.3v0.1c0,0.2,0,0.3-0.1,0.4
		c0,0.2-0.1,0.5-0.2,0.7c-0.2,0.9-0.4,1.8-0.8,2.7c0,0.1,0,0.2-0.1,0.2c0,0.1,0,0.1-0.1,0.1c-0.1,0.2-0.2,0.5-0.3,0.7
		c-0.2,0.4-0.4,0.9-0.7,1.3c-0.6,1-0.2,2.2,0.8,2.8s2.2,0.2,2.8-0.8c1.9-3.2,2.9-6.7,2.9-10.4c0-1.8-0.2-3.6-0.7-5.4
		c-0.5-1.7-1.2-3.4-1.9-5.1c-0.4-0.8-0.7-1.7-1-2.5c-0.1-0.4-0.2-0.8-0.3-1.3C59,75.2,59,75,58.9,74.8c0-0.1,0-0.2,0-0.2
		c0-0.1,0-0.2,0-0.3v-0.2c0-0.1,0-0.2,0-0.3v-0.6c0-0.4,0-0.8,0-1.3l0-0.1v0v0l0,0c0,0,0,0,0-0.1l0.1-0.4C59,70.8,59.1,70.4,59.2,70
		z"/>
	<path style="stroke:#000000;stroke-width:3;stroke-linecap:round;stroke-linejoin:round;stroke-miterlimit:10;" d="M36.8,100.6
		c0-0.2,0-0.4,0.1-0.6v-0.1c0-0.1,0-0.3,0-0.3c0.1-0.8,0.2-1.7,0.4-2.5c0.5-3,1.3-6,2.4-8.9c0-0.1,0.1-0.3,0.2-0.4l0.1-0.2l0.4-0.8
		c0.3-0.6,0.6-1.2,0.9-1.7c0.3-0.6,0.6-1.1,1-1.6c0.2-0.2,0.3-0.5,0.5-0.7c0,0,0-0.1,0-0.1l0.4-0.4c0.4-0.5,0.9-1.1,1.5-1.5l0.4-0.3
		l0.1-0.1h0c0.3-0.2,0.5-0.4,0.8-0.6l0.9-0.5l0.4-0.2h0.1c0.6-0.3,1.3-0.4,2.1-0.6c1.1-0.2,1.7-1.5,1.4-2.5
		c-0.3-1.1-1.4-1.7-2.5-1.4c-5.7,1-9.6,5.9-11.8,10.9c-1.3,2.9-2.2,6-2.8,9.1c-1.7,7.6-1.9,15.5-0.6,23.2c0.1,0.8,1,1.3,1.7,1.5
		c0.8,0.1,1.6-0.3,2-1l0.4-0.6l0.2-0.2c0,0,0,0,0-0.1c0.3-0.4,0.7-0.8,1.1-1.1c0,0,0,0,0,0v0.7c0,0.6,0,1.1-0.1,1.7v0.2
		c0,0.1,0,0.3-0.1,0.4c0,0.4-0.1,0.7-0.2,1.1c-0.6,2.5-1.5,4.9-1.9,7.4c-0.9,4.9-0.5,9.8,1.3,14.4c1.1,2.7,2.5,5.2,4.4,7.4
		c0.7,0.8,2.2,0.7,2.9,0c0.7-0.8,0.7-2.1,0-2.9l-0.3-0.4h0l-0.5-0.7l-0.9-1.5c-0.3-0.5-0.6-0.9-0.8-1.4l-0.3-0.7l-0.2-0.4h0v-0.1
		c-0.4-1.1-0.8-2.2-1.1-3.3l-0.4-1.7l-0.1-0.8c0-0.2,0-0.4,0-0.6c-0.1-1.1-0.2-2.3-0.1-3.4c0-0.6,0.1-1.2,0.1-1.8
		c0-0.2,0-0.3,0.1-0.4c0-0.1,0.1-0.6,0.2-1c0.5-2.5,1.4-4.8,1.9-7.3c0.5-2.5,0.7-6.2-0.7-9.1c-0.5-1-1.8-1.2-2.8-0.7
		c-0.7,0.4-1.5,0.8-2.1,1.3c0-0.2,0-0.4-0.1-0.6c-0.1-1.7-0.1-3.4-0.1-5.1s0.2-3.6,0.3-5.3L36.8,100.6z"/>
	<path style="stroke:#000000;stroke-width:3;stroke-linecap:round;stroke-linejoin:round;stroke-miterlimit:10;" d="M57.8,156.9
		l0.2-0.7c0-0.1,0-0.2,0.1-0.3l0.1-0.1c0.2-0.5,0.4-1,0.7-1.4c0.6-0.9,0.4-2.2-0.4-2.8s-2.2-0.4-2.8,0.4c-0.1,0.1-0.2,0.2-0.2,0.4
		c-2.2,3.5-2.4,7.6-2.3,11.6c0.1,4,0.3,8.1,0.9,12.1c0.6,4,2.1,7.8,4.3,11.2c1.2,1.7,2.5,3.3,3.8,4.9l0.4,0.6l0.2,0.2l0.9,1.2
		c0.6,0.8,1.1,1.7,1.6,2.5c0.3,0.5,0.5,1,0.8,1.5c0.1,0.2,0.2,0.4,0.3,0.7c0.1,0.1,0.1,0.2,0.2,0.3c0,0,0,0,0,0
		c0.4,1.1,0.8,2.1,1.1,3.2c0.3,1.1,0.5,2.2,0.7,3.3c0,0,0,0.1,0,0.1v0.2c0,0.3,0.1,0.5,0.1,0.8c0,0.6,0.1,1.2,0.1,1.7
		c0,1,0.8,1.9,1.8,2c0.9,0.1,2-0.4,2.2-1.4c0.4-2.1,0.8-4.2,1.3-6.2l3.6,4.1c0.8,0.8,2.1,0.8,2.9,0s0.8-2.1,0-2.9l-6.1-7
		c-1-1.2-3-0.6-3.4,0.9l-0.1,0.5c-0.2-0.7-0.5-1.4-0.8-2c-1.7-3.7-4.3-6.7-6.8-9.9h0c0,0,0,0,0,0l-0.2-0.2l-0.4-0.6
		c-0.3-0.4-0.5-0.8-0.8-1.2c-0.6-0.8-1.1-1.7-1.5-2.5l-0.3-0.6l-0.1-0.3l-0.5-1.4c-0.3-0.9-0.5-1.8-0.8-2.8
		c-0.2-0.9-0.4-1.9-0.5-2.8c0-0.1,0-0.2,0-0.3c0-0.1,0-0.1,0-0.2v-0.1c0-0.1,0-0.2,0-0.4c-0.1-0.5-0.1-1-0.2-1.5
		c-0.2-1.9-0.2-3.8-0.3-5.8c-0.1-2.1-0.1-4.2,0-6.4c0-0.2,0-0.5,0.1-0.8c-0.1,0.5,0-0.2,0-0.4L57.8,156.9z M59.8,181.4
		C59.8,181.4,59.8,181.5,59.8,181.4L59.8,181.4z"/>
	<path style="stroke:#000000;stroke-width:3;stroke-linecap:round;stroke-linejoin:round;stroke-miterlimit:10;" d="M216.2,87.4
		c0-0.2,0-0.4,0.1-0.6c0.1-0.5,0.2-0.9,0.3-1.4c0.1-0.5,0.6-1.9,1-2.8c0.7-1.8,1.5-3.6,2.1-5.5s0.7-4.2,0.8-6.3c0.1-2,0-4-0.4-6
		c-0.7-3.4-2.6-6.7-4.5-9.6c-1.1-1.7-2.3-3.4-3.7-4.9c-1.2-1.3-2.6-2.4-4.2-3.2c-1-0.4-2.2-0.3-2.8,0.7c-0.6,1.1-0.3,2.3,0.7,2.8
		l0.9,0.4c0.1,0.1,0.8,0.5,0.9,0.6l0.1,0.1l0.4,0.4l0.8,0.8c0.6,0.6,1.1,1.2,1.6,1.8l0.1,0.1V55l0.4,0.5c0.3,0.4,0.5,0.7,0.8,1.1
		c0.9,1.3,1.7,2.7,2.5,4.1c0.4,0.7,0.8,1.4,1.1,2.1l0.2,0.4c0,0,0,0,0,0.1c0.1,0.2,0.2,0.4,0.2,0.6c0.2,0.4,0.3,0.9,0.4,1.4
		c0.1,0.4,0.2,0.9,0.3,1.3c0.1,0.4,0,0.2,0,0.3c0,0.2,0,0.5,0.1,0.7c0.1,1,0.1,1.9,0,2.9c0,1-0.1,1.9-0.2,2.9c0,0.2,0,0.5-0.1,0.7
		v0.2c0,0.1,0,0.1,0,0.2c-0.1,0.5-0.2,0.9-0.3,1.4c-0.6,1.9-1.3,3.7-2.1,5.5c-0.8,1.9-1.3,3.9-1.5,5.9c-0.5,4.5,0.5,8.9,2.8,12.7
		c0.6,0.9,1.9,1.3,2.8,0.7c0.9-0.6,1.3-1.8,0.7-2.8c-0.2-0.4-0.5-0.8-0.7-1.2l-0.3-0.6c-0.1-0.1-0.1-0.3-0.2-0.4h0
		c-0.3-0.9-0.6-1.8-0.8-2.7l-0.2-1.3v-0.3c0-0.3,0-0.6,0-0.8c-0.1-0.9-0.1-1.8,0-2.8C216.1,87.8,216.1,87.6,216.2,87.4z M215.2,63.2
		C215.3,63.3,215.3,63.4,215.2,63.2L215.2,63.2z"/>
	<path style="stroke:#000000;stroke-width:3;stroke-linecap:round;stroke-linejoin:round;stroke-miterlimit:10;" d="M236.4,116.3
		c0.4,0.3,0.7,0.7,1,1.1c0,0,0,0,0.1,0.1c0,0,0.2,0.2,0.2,0.2c0.2,0.2,0.3,0.4,0.4,0.7c0.4,0.7,1.2,1.1,2,1c0.7-0.1,1.6-0.7,1.7-1.5
		c1.3-8.7,0.9-17.5-1.2-25.9c-0.4-1.4-0.8-2.8-1.1-4.2c-0.3-1.5-0.5-2.7-0.8-4.1c-0.5-3-1.1-5.9-1.9-8.9c-0.8-2.9-2.1-6.1-4.4-8.1
		c-0.8-0.7-2.1-0.8-2.9,0c-0.8,0.8-0.8,2.1,0,2.9l0.6,0.5l0.2,0.3c0,0,0.1,0.1,0.1,0.1s0.6,0.9,0.9,1.4l0.4,0.8
		c0.1,0.1,0.1,0.3,0.2,0.4V73h0c0.2,0.6,0.5,1.3,0.7,1.9c0.8,2.8,1.5,5.7,1.9,8.6c0.5,2.6,0.9,5.2,1.6,7.7c0.6,2,1.1,4,1.4,6
		l0.2,1.5l0.1,0.8c0,0.1,0,0.2,0,0.3v0.1c0.1,1,0.2,2.1,0.3,3.1c0.2,2.3,0.2,4.7,0.2,7c0,0.8-0.1,1.7-0.2,2.5
		c-0.6-0.5-1.4-0.9-2.1-1.3c-0.9-0.5-2.3-0.3-2.8,0.7c-1.3,2.6-1.4,5.3-0.9,8.1c0.5,2.8,1.3,4.9,1.9,7.4c0.1,0.6,0.2,1.1,0.3,1.7
		c0,0.2,0.1,0.3,0.1,0.5l0.1,0.8c0.1,1.2,0.1,2.4,0,3.6c0,0.5-0.1,1.1-0.2,1.5c0,0.1,0,0.2,0,0.2v0c0,0.1,0,0.2,0,0.3
		c0,0.3-0.1,0.6-0.2,1c-0.2,1.1-0.6,2.2-1,3.3l-0.4,0.9l-0.2,0.5c-0.2,0.6-0.6,1.2-0.9,1.7c-0.3,0.6-0.6,1.1-1,1.7l-0.6,0.8
		l-0.1,0.1l-0.4,0.4c-0.6,0.8-0.8,2.1,0,2.9c0.8,0.8,2.1,0.8,2.9,0c3.2-3.9,5.3-8.7,5.9-13.8c0.3-2.4,0.2-4.9-0.2-7.3
		c-0.4-2.5-1.3-4.9-1.9-7.3c-0.2-0.7-0.3-1.4-0.4-2.1c0-0.1,0-0.2-0.1-0.3v-0.4c0-0.3,0-0.6,0-1L236.4,116.3L236.4,116.3z"/>
	<path style="stroke:#000000;stroke-width:3;stroke-linecap:round;stroke-linejoin:round;stroke-miterlimit:10;" d="M217.4,185.9
		l0.5-0.9c0.3-0.6,0.6-1.2,0.9-1.9c2.3-5.5,2.7-11.5,2.9-17.4c0-1.7-0.2-3.3-0.6-4.9c-0.5-1.9-1.1-3.7-1.8-5.5
		c-0.6-1.8-1.8-4.6-2.8-6.8c-0.6-1.5-1.4-3-2.3-4.5c-0.6-1-1.8-1.3-2.8-0.7c-1,0.6-1.3,1.8-0.7,2.8c0.7,1.3,1.4,2.5,2,3.8
		c0.2,0.4,0.4,0.8,0.5,1.2l0.3,0.6c0,0.1,0.1,0.2,0.2,0.4c0,0.1,0.2,0.6,0,0.1l1.1,2.8c0.7,1.9,1.4,3.8,2,5.7
		c0.2,0.8,0.4,1.7,0.6,2.5c0.1,0.3,0.1,0.6,0.2,0.9c0,0.2,0,0.3,0,0.5c0,1.2-0.1,2.4-0.1,3.6c0,1.2-0.2,2.8-0.3,4.2l-0.1,1.1
		c0,0.1,0,0.2,0,0.3c0,0.1,0,0.2,0,0.3c-0.1,0.7-0.2,1.4-0.4,2.1c-0.3,1.4-0.6,2.8-1.1,4.2l-0.3,0.8c0,0,0,0,0,0.1c0,0,0,0,0,0.1
		l-0.2,0.4c-0.3,0.7-0.7,1.3-1,1.9c-0.6,1.3-1.1,2.6-1.5,4c-0.4,1.3-0.7,2.5-1.1,3.8c-0.1,0.3-0.2,0.6-0.3,0.9c0,0.1,0,0.1-0.1,0.2
		c0,0.1-0.1,0.2-0.2,0.3c-0.2,0.6-0.6,1.1-0.9,1.7c0,0.1-0.1,0.2-0.2,0.3c0.1-0.2,0.1-0.2-0.1,0.1l-0.1,0.1l-0.6,0.7
		c-0.4,0.4-0.8,0.7-1.3,1.1l-0.4,0.3l-0.7,0.5l-1.5,1.2c-0.6,0.4-1.1,1-1.6,1.6l-0.3-0.3l-0.3-0.4l-0.2-0.3l-0.2-0.2l-0.4-0.5
		c-0.2-0.3-0.4-0.6-0.5-0.9c0-0.1-0.1-0.1-0.1-0.2c-0.1-0.2-0.2-0.4-0.2-0.6c-0.3-1.3-1.8-1.8-3-1.2c-2.5,1.3-4.9,3-6.8,5
		c-2.1,2.1-4.3,5.3-3.4,8.5c0.6,2.1,2.3,3.5,4.1,4.5c1,0.5,2.3,0.3,2.8-0.7s0.3-2.3-0.7-2.8c-0.4-0.2-0.7-0.4-1.1-0.6l-0.2-0.1l0,0
		c0,0,0,0,0,0h0l-0.1-0.1c-0.1,0-0.1-0.1-0.1-0.1l-0.2-0.2l-0.3-0.4l-0.2-0.4h0c0-0.1,0-0.2-0.1-0.3v-0.7l0.1-0.3
		c0-0.1,0-0.2,0.1-0.2h0c0,0,0-0.1,0-0.1c0,0,0-0.1,0-0.1c0,0,0,0,0-0.1c0.3-0.5,0.6-1,1-1.5c-0.4,0.6,0,0,0.1-0.1l0.3-0.3l0.8-0.8
		l1.5-1.4l0.8-0.6c-0.5,0.4,0,0,0.1-0.1l0.4-0.3l1.2-0.8c0.5,0.8,1.1,1.5,1.6,2.3l0.4,0.4c0,0,0,0.1,0.1,0.1l0.6,0.9
		c0.2,0.2,0.3,0.6,0.4,0.8c0,0,0,0,0,0v0c0,0.1,0.1,0.2,0.1,0.3c0.1,0.2,0.1,0.4,0.2,0.6c0.3,1,1.2,1.6,2.2,1.5c1-0.1,1.7-1,1.7-2
		c0-0.2,0-0.3,0-0.4c0.1-0.2,0.1-0.4,0.1-0.7l0.1-0.3l0,0c0-0.1,0.1-0.2,0.1-0.2c0,0,0.1-0.3,0.2-0.4l0.2-0.2l0.4-0.4
		c0.3-0.3,0.6-0.6,1-0.8l0.3-0.2l0.6-0.4l1.6-1.2c0.8-0.6,1.6-1.3,2.2-2.1c1.9-2.3,2.7-4.9,3.5-7.7c0.2-0.6,0.4-1.1,0.5-1.7
		c0.2-0.7,0.4-1.3,0.7-2c-0.2,0.4,0,0,0-0.1L217.4,185.9z M191.7,207.4c0,0,0-0.1,0-0.2C191.8,207.6,191.7,207.6,191.7,207.4z
		 M205.9,204L205.9,204L205.9,204z"/>
</g>
</svg>
