<?xml version="1.0" encoding="utf-8"?>
<!-- Generator: Adobe Illustrator 27.9.0, SVG Export Plug-In . SVG Version: 6.00 Build 0)  -->
<svg version="1.1" id="Layer_1" xmlns="http://www.w3.org/2000/svg" xmlns:xlink="http://www.w3.org/1999/xlink" x="0px" y="0px"
	 viewBox="0 0 315.1 238.1" style="enable-background:new 0 0 315.1 238.1;" xml:space="preserve">
<g>
	<path style="stroke:#000000;stroke-width:3;stroke-linecap:round;stroke-linejoin:round;stroke-miterlimit:10;" d="M151.2,42.3
		c-4.2-3.1-9.1-5.2-14.2-6.1c-1.5-0.2-3.1-0.4-4.6-0.5c-0.9,0-1.4,0.8-1.5,1.5c-0.3,2.5,2.2,3.8,3.6,5.4l0.2,0.2l0.1,0.1l0.2,0.3h0
		c0,0.1,0,0.1,0,0.1c0,0.1,0,0.1,0,0.2c0,0,0,0.1,0,0.1v0.2c0,0,0,0.1,0,0.1c0,0.2-0.1,0.3-0.2,0.5l-0.1,0.2l-0.2,0.4l-0.1,0.2
		l-0.4,0.4l-0.3,0.3l-0.1,0.1l-1,0.6c-1.3,0.7-2.6,1.1-3.9,1.9c-1.1,0.7-2.1,1.5-2.9,2.5c-1.6,2-2.8,4.4-3.5,6.9
		c-0.7,2.5-1.2,5-1.5,7.5c-0.5,3.3-1,6.6-0.8,9.9c0.1,3.1,0.8,6.1,2.1,8.8c1.1,2.3,2.3,4.4,3.7,6.5c1.4,2,2.7,4.1,3.9,6.3l0.5,1
		c-2.7-3.2-5.9-6-9.5-8.2c-2.8-1.7-6-3.2-9.3-2.6c-1.6,0.2-3,1.1-4,2.3c-0.9,1.2-1.5,2.5-1.9,4c-0.3,1.4-0.5,2.9-0.6,4.3l-0.1,1.1
		c0,0.2-0.1,0.4-0.1,0.6c0,0.1,0,0.2,0,0.3c0,0.1,0,0.2,0,0.3l-0.4,2.5c-0.6,3.4-1.6,6.6-2.9,9.8h0l-0.1,0.3
		c-0.1,0.2-0.2,0.4-0.3,0.6c-0.1,0.2-0.3,0.8-0.6,1.2c-0.2,0.4-0.8,1.5-1.2,2.2c-0.8,1.4-1.7,2.8-2.6,4.2c-1.8,2.8-3.7,5.5-5.3,8.4
		c-2.8,5.4-4.2,12.2-1.1,17.8c0.4,0.7,0.8,1.3,1.3,2c0.5,0.7,1.7,0.6,2.2,0s0.5-1.5,0-2.2h0l-0.1-0.2l-0.3-0.4
		c-0.2-0.3-0.3-0.6-0.5-0.9c-0.1-0.2-0.1-0.3-0.2-0.5c0,0,0-0.1-0.1-0.1l-0.3-1c-0.2-0.6-0.3-1.2-0.4-1.9c0,0,0-0.2,0-0.3
		c0-0.2,0-0.3,0-0.5c0-0.4,0-0.7,0-1.1s0-1.4,0.1-2.1v-0.2c0-0.1,0-0.3,0.1-0.4s0.1-0.8,0.2-1.1c0.1-0.4,0.3-1.3,0.6-2
		c0.2-0.7,0.2-0.7,0.3-1l0.2-0.5l0.1-0.2c2.6-5.9,7-10.7,9.9-16.5c1.5-3,2.6-6.2,3.4-9.5c0.8-3.2,1.2-6.4,1.5-9.6
		c0-0.3,0.1-0.7,0.1-1v-0.1l0.1-0.6c0.1-0.7,0.2-1.3,0.4-1.9c0-0.1,0.1-0.3,0.2-0.4c0,0,0-0.1,0-0.1c0.1-0.3,0.3-0.6,0.4-0.9
		l0.2-0.3c0.1,0,0.1-0.1,0.1-0.1l0.3-0.3l0.2-0.1l0.2-0.1l0.7-0.4l0.2-0.1l0.6-0.2h2l0.6,0.1l1.1,0.4l0.4,0.2l0.2,0.1h0.1l1,0.5
		c1.3,0.7,2.6,1.5,3.8,2.3l0.9,0.6l0.2,0.1c0,0,0.1,0.1,0.1,0.1c0,0,0.1,0.1,0.1,0.1l0.3,0.2l1.7,1.4c1.1,1,2.1,2,3.1,3.1
		c0.2,0.3,0.4,0.6,0.7,0.8c0.1,0.2,0.2,0.3,0.3,0.4l0.2,0.2v0.1h0c0.4,0.6,0.9,1.2,1.2,1.8l1.2,1.9c0.6,0.7,1.3,1.3,2.1,1.8
		c0.9,0,1.5-0.7,1.5-1.5c0.3-5.1-2.3-9.7-5.1-13.8c-1.3-2.1-2.8-4.1-4-6.3c-0.3-0.6-0.6-1.1-0.9-1.7l-0.4-0.8c0-0.1-0.2-0.4-0.1-0.1
		c-0.1-0.2-0.1-0.3-0.2-0.5c-0.5-1.3-0.9-2.7-1.1-4.1c0-0.1,0-0.2,0-0.3c0-0.2,0-0.4-0.1-0.6c0-0.2-0.1-0.8-0.1-1.2
		c0-0.4,0-1.6,0-2.4c0-0.8,0.1-1.6,0.2-2.4l0.1-1.2c0-0.2,0.1-0.4,0.1-0.6c0-0.1,0-0.2,0.1-0.3v-0.1c0.3-2.7,0.8-5.4,1.4-8
		c0.3-1.2,0.7-2.4,1.1-3.5c0,0,0.1-0.3,0.1-0.3l0.1-0.2c0.1-0.3,0.3-0.6,0.4-0.9c0.1-0.3,0.6-1,0.9-1.5c0.1-0.1,0.2-0.2,0.2-0.3
		l0.1-0.1h0l0.6-0.7l0.6-0.6l0.3-0.3l0.1-0.1c1.2-0.8,2.4-1.4,3.7-2c1.4-0.7,2.7-1.4,3.7-2.7c1-1.2,1.5-2.9,1.1-4.4
		c-0.4-1.6-1.1-2.2-2-3l-0.9-0.8h0.2l0.5,0.1c1.2,0.2,2.4,0.5,3.6,0.8c1.2,0.3,2.4,0.7,3.5,1.2l0.2,0.1l0.4,0.2l0.9,0.4l1.7,0.9
		c1.2,0.7,2.4,1.5,3.6,2.3c0.7,0.5,1.8,0.1,2.1-0.6C152.1,43.7,151.9,42.8,151.2,42.3z M133.9,37.7c0,0,0.1,0.1,0.1,0.1L133.9,37.7z
		 M93.6,146.8C93.5,146.7,93.6,146.8,93.6,146.8L93.6,146.8z"/>
	<path style="stroke:#000000;stroke-width:3;stroke-linecap:round;stroke-linejoin:round;stroke-miterlimit:10;" d="M292.2,111.1
		c-6-11.9-18.9-17.9-29.7-24.4c-6.6-3.9-12.8-8.4-18.5-13.4c-5.8-5.1-11-10.8-16.1-16.6s-9.9-11.9-15.3-17.4
		c-2.2-2.4-4.7-4.6-7.3-6.7c-2.2-1.6-4.4-3.1-6.8-4.3c-5.5-2.9-11.2-5.3-17.1-7.1c-5.8-1.9-11.9-3.2-18-4c-2.5-0.3-5.1-0.4-7.6-0.4
		h-0.1l-0.3-0.1c-6.5,0.1-13,1-19.3,2.8c-6.2,1.7-12.2,4.1-17.7,7.4c-4.4,2.6-8.8,6-11.4,10.6c-0.7,1.2-1.2,2.5-1.9,3.8
		c-0.8,1.4-1.7,2.8-2.6,4.2c-1.9,2.7-4.1,5.2-6.5,7.6c-4.7,4.9-10,9.1-14.9,13.8c-2.7,2.5-5.2,5.2-7.8,7.7c-2.8,2.6-5.8,5.2-8.8,7.5
		c-5.8,4.5-11.9,8.3-18.3,11.9c-5.6,3.3-11.3,6.6-16.1,11c-4.9,4.4-8.9,10.6-10.6,17.5c-1.7,6.8-1.8,14.3-0.7,21.4
		c2.1,13.9,8.8,26.6,19.1,36.1c5.4,5,11.6,9.1,16.8,14.3c5.2,5.2,8.9,12,12.4,18.7c1.5,2.9,3.1,6.9,6.3,8.3c3.2,1.4,6.9-0.2,7.3-3.9
		c0.2-1.8-0.2-3.6-0.5-5.3c-0.2-1.7-0.6-4.2-1-6.3c-0.6-3.9-1.2-7.7-1.8-11.6c0.7,1.6,1.6,3.1,2.5,4.6c0.7,1.1,1.5,2.2,2.5,3.2
		c0.6,0.5,1.1,0.9,1.7,1.3l0.3,0.2c0.1,0.3,0.2,0.7,0.5,0.9c0.4,0.3,0.9,0.6,1.5,0.5c1.1,0,2-1,2-2.1c0-0.1,0-0.3-0.1-0.4
		c-0.3-0.9-1-1.3-1.8-1.7l-0.8-0.5l-0.2-0.1l-0.1-0.1l-0.2-0.2c-0.4-0.4-0.9-0.9-1.3-1.3l-0.2-0.2l-0.2-0.3l-0.5-0.8
		c-0.5-0.7-1-1.4-1.3-2.2c-1.7-3.1-3.1-6.4-4.6-9.6c-0.4-1-0.9-2.1-1.4-3c-1.8-12.9-3.2-25.8-3.1-38.8c0-8.2,0.7-16.4,2.1-24.5
		c1.4-7.8,4.3-15.5,4.6-23.5c0.2-3.4-0.3-6.7-1.5-9.9l0.3-0.5l0.2-0.3c0,0,0.1-0.1,0.1-0.1l0.4-0.5c0.6-0.7,1.1-1.3,1.7-1.9
		c0.6-0.6,1.2-1.1,1.9-1.7l0.4-0.4l0.2-0.2h0l1-0.8c2.6-1.9,5.5-3.5,8.3-5.4c1.8-1.2,3.4-2.4,5.1-3.8c0.6-0.6,0.6-1.5,0-2.1l0,0
		c-0.6-0.6-1.6-0.6-2.2,0L94.2,69l-0.3,0.2h-0.1l-0.5,0.4c-0.7,0.5-1.5,1.1-2.2,1.5c-1.4,1-2.8,1.9-4.3,2.8c-2.9,1.8-5.7,3.6-8.2,6
		c-1.4,1.4-2.7,2.9-3.8,4.6l-0.1,0.2c-6.4,12-8.8,25.5-9.7,38.9c-0.5,6.7-0.7,13.4-0.8,20.1c-0.1,6.7-0.1,12.9,0.8,19.3
		c0.9,6.4,3,13.4,6.7,19.1c0,0.2,0.1,0.4,0.2,0.7c0.3,0.5,0.6,1.1,0.9,1.6c0.9,6.5,2,13.1,3,19.6c0.6,3.9,1.4,7.8,1.8,11.7
		c0.1,1.1,0.1,2.7-1.3,3s-2.5-0.7-3.3-1.7c-0.8-1-1.8-3-2.6-4.5c-0.8-1.5-1.8-3.3-2.6-5c-1.7-3.2-3.5-6.4-5.7-9.4
		c-4.2-5.8-9.8-10.3-15.5-14.8S36,174.3,32,168.7c-3.9-5.4-6.8-11.5-8.6-17.9c-1.8-6.3-2.5-13-2.1-19.5c0.4-7,2.3-14,6.7-19.6
		c3.9-4.9,9-8.5,14.2-11.7c5.2-3.2,11.6-6.7,17.2-10.4c6.2-4.2,12.1-8.9,17.5-14.1c2.5-2.4,4.9-5,7.4-7.3l7.4-6.7
		c4.9-4.4,9.7-9,13.4-14.4c0.9-1.3,1.8-2.6,2.5-4c0.7-1.2,1.2-2.5,1.8-3.7c1.1-2,2.5-3.7,4.3-5.2c4.1-3.8,9.2-6.5,14.3-8.6
		c5.9-2.4,12.1-4.1,18.4-5c2.9-0.4,5.8-0.6,8.8-0.7h0.5c5.4-0.2,10.8,0.7,16,1.9c6,1.3,11.8,3.2,17.5,5.5c5,2.1,10,4.5,14.3,7.8
		c2.5,1.9,4.7,4.1,6.8,6.4c2.2,2.2,5.1,5.5,7.6,8.4c4.9,5.7,9.6,11.5,14.8,17c5.2,5.4,10.8,10.4,16.8,14.9
		c5.6,4.2,11.6,7.8,17.6,11.3c5.4,3.1,10.9,6.3,15.4,10.6c2.3,2,4.2,4.4,5.8,7c1.9,3.1,3.1,6.5,3.8,10.1c1.3,6.6,1.3,13.4,0.1,20.1
		c-2.3,13.2-9.1,25.2-19.3,34.1c-5.3,4.7-11.2,8.7-16.2,13.8c-5,5.1-8.7,11.8-12.1,18.3c-0.8,1.6-1.6,3.2-2.5,4.8
		c-0.9,1.6-1.7,2.6-3.2,2.9c-3.6,0.8-1.9-5.2-1.7-7c1.2-7.9,2.6-15.8,4-23.6c0.3-1.8,0.6-3.5,0.9-5.3c7.6-10.5,12.4-23.7,11.3-36.8
		c-0.3-3.3-1-6.5-1.6-9.8c-0.6-3.3-1.1-6.7-1.6-10c-1-6.7-1.9-13.4-3.3-20c-1.6-7.3-3.9-14.4-7.4-21.1l-0.1-0.2l-0.2-0.2
		c-2-2.9-4.5-5.4-7.4-7.5c-2.7-2-5.6-3.6-8.4-5.5c-0.8-0.5-1.6-1.1-2.4-1.7l-0.7-0.4l-0.2-0.2l-0.2-0.2l-1.2-1
		c-0.6-0.6-1.6-0.6-2.2,0c-0.5,0.6-0.7,1.6,0,2.2c2.8,2.3,5.7,4.3,8.8,6.2c1.4,0.9,2.8,1.7,4.1,2.6l1,0.7l0.4,0.3l0.3,0.2
		c0.6,0.5,1.3,1.1,1.9,1.6c0.7,0.7,1.3,1.3,2,2l0.5,0.7l0.2,0.2c-0.2-0.2,0.1,0.1,0.1,0.1l0.6,0.7c-2.4,6.7-0.2,13.7,2,20.3
		c2.4,7.5,4,15.2,4.5,23c1.3,16.3-0.6,32.6-3.1,48.7c-0.6,3.9-1.3,7.7-1.9,11.6c-0.2,0.1-0.3,0.3-0.4,0.5c-1.1,1.8-2.3,3.4-3.5,5.1
		c-1.5,2.2-3.1,4.3-4.6,6.5c-0.6,0.8-1.1,1.6-1.7,2.4c-0.5,0.8-0.2,1.9,0.6,2.3c0.8,0.4,1.8,0.2,2.3-0.6c1.1-1.8,2.3-3.4,3.5-5.1
		l2.4-3.4c-0.3,1.7-0.6,3.4-0.9,5.2c-0.7,4-1.3,8.1-1.9,12.1c-0.2,1.7-0.3,3.4,0.4,4.9c0.8,1.5,2.4,2.4,4.1,2.4
		c3.7,0.1,5.8-3.2,7.4-6.1c1.5-2.9,3.5-6.7,5.4-10c1.9-3.3,3.9-6.5,6.4-9.3c2.5-2.7,5.2-5.2,8.1-7.5c5.6-4.6,11.4-8.9,16.1-14.4
		c4.4-5.3,8-11.2,10.5-17.7c2.5-6.5,3.9-13.3,4.1-20.2C296.5,125.4,295.5,117.7,292.2,111.1z M87.8,202.6L87.8,202.6
		C87.7,202.6,87.7,202.6,87.8,202.6C87.7,202.6,87.7,202.6,87.8,202.6z M69.9,131.7c-1.2,14.7-0.1,29.3,1.8,43.9
		c-4.2-9.1-4.5-19.7-4.4-29.7c0.2-13,0.4-26.1,3-38.9c1.1-6,3-11.9,5.5-17.4c1.3,6.1-0.4,12.7-1.9,18.6
		C71.9,115.9,70.6,123.8,69.9,131.7z M246.6,136.6c0.1-7.8-0.6-15.7-2-23.4c-0.7-3.7-1.6-7.3-2.8-10.9c-1.1-3.4-2.3-6.9-2.9-10.4
		c-0.4-2-0.4-4-0.2-6c4.9,10.7,6.6,22.4,8.3,34c0.5,3.3,1,6.6,1.5,9.9c0.5,3.3,1.2,6.4,1.7,9.6c1,6.3,0.4,12.8-1.3,18.9
		c-1.3,4.5-3.1,8.9-5.4,12.9C245.2,159.7,246.6,148.2,246.6,136.6z"/>
	<path style="stroke:#000000;stroke-width:3;stroke-linecap:round;stroke-linejoin:round;stroke-miterlimit:10;" d="M224.6,132.8
		l-0.2-1.2c0-0.2,0-0.4-0.1-0.6c0-0.2,0-0.2-0.1-0.4c0-0.1,0-0.1,0-0.2v-0.2c0-0.1,0-0.2,0-0.3c0-0.2-0.1-0.4-0.1-0.6l-0.1-1.3
		c0-0.7,0-1.4-0.1-2.1c-0.4-2.9-1.6-5.7-3.4-8c-1.1-1.4-2.2-2.8-3.5-4c-1.2-1.2-2.5-2.3-3.7-3.6c0,0,0,0,0-0.1l-0.1-0.1l-0.3-0.4
		c-0.2-0.3-0.4-0.6-0.6-1c-0.2-0.3-0.3-0.6-0.4-0.9l-0.1-0.2c0-0.1,0-0.1-0.1-0.2c0,0,0-0.1,0-0.1l-0.1-0.3
		c-0.5-1.4-0.9-2.8-1.1-4.3c-0.1-0.4-0.1-0.7-0.2-1.1c0-0.2-0.1-0.3-0.1-0.5c0,0,0,0,0,0c0-0.1,0-0.2,0-0.3
		c-0.1-0.8-0.2-1.5-0.2-2.3l-0.4-4.5c-0.3-3.1-0.5-6.4-2.6-8.8s-6.4-2.7-9.5-1.4c-3.1,1.3-6.1,3.3-8.7,5.6l-0.5,0.4l1.4-1.6
		c1.9-2.2,3.9-4.3,5.5-6.7c1.7-2.4,2.8-4.6,2.9-7.2c0.1-2.6-0.7-5.5-1.4-8.1c-0.8-2.6-1.8-5.4-2.6-8.1c-0.8-2.7-0.8-4.9-1.7-7.1
		c-0.4-1.1-1.1-2.2-1.9-3.1c-0.9-0.9-1.9-1.7-2.9-2.3c-1.4-0.9-2.8-1.7-4.3-2.3c-0.8-0.3-1.5-0.8-2.3-1.2l-0.3-0.2
		c-0.2-0.1-0.3-0.3-0.4-0.5l-0.1-0.1l-0.1-0.1l-0.3-0.6h0c0-0.1-0.1-0.2-0.1-0.3c0-0.1-0.1-0.2-0.1-0.2v-0.3c0,0,0-0.2,0-0.2
		c0,0,0-0.1,0.1-0.2v-0.1c0,0,0-0.1,0.1-0.1l0.1-0.2l0.1-0.1l0.1-0.1l0.1-0.1l0.3-0.4c1-0.9,2.1-1.7,2.8-2.8
		c0.4-0.7,0.6-1.4,0.5-2.2c0-0.8-0.7-1.5-1.5-1.5c-5.5-0.4-11.4,0.5-15.9,3.8c-1.2,0.9-2.3,1.9-3.3,3c-0.5,0.6-0.7,1.6,0,2.2
		s1.6,0.7,2.2,0c0.6-0.7,0.8-0.9,1.2-1.3l0.6-0.6l0.3-0.2l0.2-0.2l0.1-0.1l0.2-0.2L168,38l0.7-0.5c0.5-0.3,1.1-0.6,1.6-0.9l0.6-0.3
		l0.3-0.1l0.5-0.2c0.6-0.2,1.2-0.4,1.8-0.6l2-0.4l0.4-0.1h0.2l1-0.1c0.8-0.1,1.7-0.1,2.5-0.1l-0.6,0.5c-1.1,1-2.3,2-2.6,3.5
		s0.4,3.9,1.7,5.2c1.3,1.4,3.1,2,4.7,2.8c1.4,0.7,2.6,1.4,3.9,2.3l0.1,0.1l0.3,0.2l0.6,0.6l0.5,0.5l0.2,0.3l0.1,0.1
		c0.3,0.4,0.5,0.8,0.7,1.2c0.2,0.3,0.1,0.2,0,0.1l0.1,0.3c0.1,0.3,0.2,0.6,0.3,0.9c0.3,1.3,0.5,2.5,0.8,3.8c0.6,2.6,1.5,5.1,2.4,7.7
		c0.4,1.4,0.9,2.8,1.3,4.3c0.2,0.7,0.3,1.3,0.4,2c0.1,0.3,0.1,0.7,0.2,1c0,0.1,0,0.1,0,0.2c0,0.2,0,0.3,0.1,0.5c0,0.6,0.1,1.2,0,1.8
		c0,0.1,0,0.2,0,0.4l-0.2,0.8c-0.1,0.3-0.2,0.5-0.3,0.8l-0.1,0.2c0,0,0,0.1,0,0.1l-0.1,0.3c-0.3,0.6-0.6,1.1-0.9,1.7
		c-0.3,0.6-0.7,1.1-1.1,1.7c-0.4,0.6-0.4,0.5-0.6,0.8l-0.1,0.2l-0.3,0.4c-0.9,1.1-1.8,2.2-2.8,3.2c-1.9,2.2-3.8,4.3-5.5,6.6
		c-1.7,2.4-2.8,4.7-3.1,7.4c-0.1,0.6-0.1,1.1-0.1,1.7c0,0.9,0.7,1.5,1.5,1.5c0.7,0,1.3-0.5,1.5-1.2c0.2-0.1,0.4-0.3,0.6-0.6
		c0.4-0.7,0.8-1.3,1.3-2l0.7-1c0.1-0.2,0.2-0.3,0.3-0.4l0.1-0.2c0,0,0.1-0.1,0.1-0.1c1-1.2,2-2.4,3.2-3.5c0.6-0.6,1.2-1.1,1.8-1.7
		c0.3-0.2,0.6-0.5,0.9-0.7l0.4-0.3h0l0.3-0.2c1.2-1,2.6-1.8,4-2.6l1-0.6l0.5-0.2l0.2-0.1h0.1c0.7-0.3,1.5-0.5,2.3-0.7l0.4-0.1h1.4
		l1,0.2l0.2,0.1l0.6,0.3l0.1,0.1l0.3,0.3l0.2,0.3l0.2,0.3l0.4,0.8c0,0.1,0.1,0.2,0.1,0.3c0.1,0.1,0.1,0.3,0.2,0.5
		c0.2,0.7,0.3,1.3,0.4,2c0,0.1,0.1,0.6,0.1,0.4c0,0.1,0,0.2,0,0.4l0.1,1.1c0.3,3,0.4,5.9,0.9,8.9c0.4,3,1.1,5.8,2.5,8.3
		c0.7,1.3,1.7,2.5,2.8,3.5c1.3,1.2,2.6,2.4,3.7,3.8l0.7,0.9l0.3,0.4l0.2,0.2l0.1,0.1h0c0.4,0.6,0.8,1.2,1.2,1.8
		c0.4,0.6,0.7,1.2,1,1.8c0.1,0.1,0.1,0.3,0.2,0.4l0.1,0.2l0.3,0.9c0.1,0.3,0.2,0.6,0.2,0.9c0,0.1,0.1,0.3,0.1,0.4
		c0,0.1,0,0.2,0.1,0.2v0.1c0,0.1,0,0.3,0,0.3c0,0.1,0,0.3,0,0.4c0,0.3,0,0.7,0,1.1c0.1,1.7,0.3,3.4,0.6,5.1c0.1,0.8,0.2,1.5,0.3,2.3
		c0,0.1,0,0.2,0.1,0.3c0,0.2,0,0.4,0,0.6l0.1,1.2c0,0.7,0,1.5-0.1,2.2c0,0.1,0,0.1,0,0.2l-0.1,0.5c-0.1,0.4-0.2,0.8-0.3,1.1
		c0,0,0,0,0,0.1c0,0,0,0.1-0.1,0.1c-0.1,0.2-0.1,0.3-0.2,0.5c-0.1,0.2-0.2,0.3-0.3,0.5c0,0.1-0.1,0.2-0.1,0.2c0,0-0.2,0.3,0,0.1
		c-0.5,0.6-0.7,1.5,0,2.2c0.7,0.6,1.7,0.7,2.2,0c1.1-1.3,1.8-2.9,2.1-4.6c0.2-1.6,0.2-3.3,0-4.9
		C224.9,134.7,224.7,133.8,224.6,132.8z M179.5,39.2c0,0,0,0.1-0.1,0.1L179.5,39.2z"/>
</g>
</svg>
