<?xml version="1.0" encoding="utf-8"?>
<!-- Generator: Adobe Illustrator 27.9.0, SVG Export Plug-In . SVG Version: 6.00 Build 0)  -->
<svg version="1.1" id="Layer_1" xmlns="http://www.w3.org/2000/svg" xmlns:xlink="http://www.w3.org/1999/xlink" x="0px" y="0px"
	 viewBox="0 0 351.3 150.2" style="enable-background:new 0 0 351.3 150.2;" xml:space="preserve">
<g>
	<path style="stroke:#000000;stroke-width:3;stroke-linecap:round;stroke-linejoin:round;stroke-miterlimit:10;" d="M203.2,57.3
		c-0.5-0.3-1.2-0.5-1.8-0.5l-0.6-0.1h-0.6c-1-0.2-1.9-0.5-2.9-0.8l-0.6-0.2h-0.1l-0.2-0.1c-0.5-0.2-1-0.5-1.5-0.7l-2.6-1.4
		c-1.8-1-3.5-2.1-5.4-3c-2-1-4.2-1.7-6.5-2c-2.2-0.2-4.5,0.1-6.6,1c-1.9,0.8-3.5,2-5.2,3.1c-1.7,1.2-3.3,2.2-5,3.3
		c-1,0.6-2,1.2-3,1.7l-1.5,0.7l-0.3,0.1l-0.2,0.1l-0.8,0.3c-1,0.4-2.1,0.7-3.1,0.9c-0.5,0.1-1.1,0.2-1.6,0.3h-0.6l-0.9,0.1
		c-0.9,0-1.8,0.8-1.8,1.8c0,0.9,0.8,1.7,1.8,1.8c3.9-0.2,7.5-1.5,10.9-3.2c3.4-1.8,6.3-3.9,9.3-5.9c0.7-0.5,1.5-1,2.3-1.4
		c0.4-0.2,0.8-0.4,1.2-0.6h0.1l0.3-0.1l0.7-0.2l1.2-0.2h1.2l1.2,0.1l0.4,0.1l0.8,0.1c0.9,0.2,1.8,0.5,2.7,0.9l0.3,0.1h0.1l0.7,0.3
		l1.3,0.6c1.7,0.9,3.3,1.9,4.9,2.8c1.9,1.1,3.8,2,5.8,2.8c0.9,0.3,1.9,0.5,2.9,0.7h0.3c0.2,0.4,0.4,0.7,0.8,0.9
		c0.7,0.4,1.5,0.4,2.1,0c1.1-0.5,1.5-1.8,1-2.9C204,57.8,203.7,57.4,203.2,57.3z"/>
	<path style="stroke:#000000;stroke-width:3;stroke-linecap:round;stroke-linejoin:round;stroke-miterlimit:10;" d="M332,100.3
		c-1.1-6.1-2.3-12.1-2.3-18.3s1.1-13,1.6-19.4c0.2-2.9-0.1-6-2.3-8.1c-2.2-2.1-4.8-2.8-7.4-3.6c-5.7-2-11.5-3.7-17.1-5.7
		c-5.7-2-11-4.2-16.2-7c-5.1-2.8-10-6.8-15.9-8.3c-3-0.8-6.2-1.1-9.2-1.2c-3.1-0.1-6.5-0.2-9.7-0.1c-6.6,0.1-13.2,0.4-19.8,0.9
		c-6.6,0.5-13.2,0.7-19.6,2.2l-4.6,1.1c-1.4,0.4-2.9,0.6-4.3,1c-2.7,0.8-5.2,1.9-7.6,3.3c-1.6,0.9-3.2,2-4.6,3.2
		c-3-0.1-6.1,0.1-9.1,0.2c-6.5,0.3-13,0.8-19.4,2l-0.6-0.1l-0.7-0.1l-1.6-0.4l-1.4-0.5l-0.7-0.3h-0.1l-0.5-0.2
		c-2-0.9-3.8-2.1-5.6-3.4c-1.6-1.2-3.4-2.8-5.1-4.2c-1.7-1.4-3.5-3.2-5.4-4.6c-3.6-2.9-7.5-5.5-11.9-6.8c-1.3-0.3-2.6-0.6-3.9-0.7
		c-0.2,0-0.4-0.1-0.6,0c-4.7-0.5-9.4,0-14.1-0.4c-2.9-0.2-5.7-0.9-8.3-2.1c-1.4-0.7-2.9-1.4-4.4-1.8c-1.6-0.4-3.2-0.4-4.8-0.1
		c-3,0.5-5.7,2.2-8.3,3.8c-2.6,1.6-5,3.2-7.7,4.6c-5.4,2.8-11,5.1-17,6.3c-5.3,1.1-10.8,0.9-16.1,1.6c-2.7,0.4-5.3,0.9-7.8,2.1
		c-2.4,1.2-4.4,3-6,5.2c-3,4.6-3.4,10.3-4.7,15.4c-2.7,11-10.4,20.9-10.2,32.6c0,1.5,0.1,3.2,1.3,4.3c1.2,1.1,2.7,1.1,4,0.6
		s2.5-1.2,3.6-1.9c1.1-0.7,2.3-1.6,3.5-2.5c4.2-3.3,7.9-7.3,11.4-11.4c1.1-1.3,2.2-2.6,3.2-3.9c1.7,2.6,3.4,5.3,4.8,8
		c0.9,1.6,1.7,3.3,2.5,5c0.4,0.8,0.8,1.7,1.2,2.6c0.1,0.2,0.2,0.4,0.3,0.6l0.1,0.3l0.1,0.2c0,0.1,0.1,0.1,0.1,0.1l0.1,0.3l0.3,0.7
		c0.8,2,1.5,4,2.2,6L55.1,99c-1.3,4.9-1.7,9.9-1.5,15c0.1,5,0.7,9.9,0.9,14.9c0,1.2,0,2.5,0,3.7c0,1,0.8,1.8,1.8,1.8
		c0.9,0,1.7-0.8,1.8-1.8c0.1-5-0.4-9.9-0.7-14.9c-0.1-2.5-0.2-4.9-0.2-7.4c0-1.3,0.1-2.5,0.2-3.7c0.1-1.2,0.2-2.1,0.5-3.4
		c0.4-2.2,1-4.3,1.7-6.4c0.4-1,0.7-2,1.1-2.9c0,0,0.1-0.1,0.1-0.1c0-0.1,0.1-0.2,0.1-0.3c0.1-0.2,0.1-0.4,0.2-0.6l0.7-1.6
		c1.8-3.7,4-7.3,6.4-10.7l0.8-1.1l0.5-0.6l0.1-0.2l0.2-0.3l2-2.4c1.4-1.6,2.8-3.2,4.2-4.8c2.8-3.1,5.8-6,8.8-8.9
		c3-2.9,6.1-5.7,9.3-8.3l2.5-2l0.6-0.5l0.3-0.2l0.2-0.2l0.2-0.1l0.2-0.2l0.8-0.6c1.7-1.3,3.4-2.5,5.1-3.6c1.7-1.1,3.6-2.3,5.5-3.3
		c0.9-0.5,1.9-1,2.8-1.4l1.3-0.6l0.7-0.3l0.2-0.1l0.3-0.1c3.9-1.6,8-2.7,12.1-3.3h0.4l0.8-0.1l1.6-0.1c0.9-0.1,1.8-0.8,1.8-1.8
		c0-1-0.8-1.8-1.8-1.8c-8.8,0.6-17.1,3.7-24.6,8.1c-7.5,4.4-14.1,10-20.4,15.8S72.4,69.5,67.2,76.2c-3.9,4.9-7.3,10.3-9.7,16.1
		c-2.2-5.8-4.9-11.4-8.1-16.7c-1-1.7-2.1-3.3-3.2-4.9c1.6-2,3.3-4,4.9-5.9c3.7-4.2,7.7-8.2,12.1-11.7c8.5-6.9,18.3-12.3,28.3-16.6
		c5.2-2.2,10.6-4.1,16-5.8c4.6-1.5,9.2-2.8,13.8-4.3c1.7-0.6,3.4-1.2,5.2-1.8c1.5,0.2,3,0.5,4.5,1c0.9,0.3,1.8,0.7,2.6,1.1
		c1,0.5,2,1.1,2.9,1.7c3.7,2.4,6.9,5.4,10.4,8.4c3.5,2.9,6.5,5.4,10.3,7.2c-4,1.1-8,2.4-11.7,4.1c-0.8,0.4-1.1,1.7-0.6,2.4
		c0.5,0.8,1.5,1.1,2.4,0.6l0.7-0.4l0.3-0.1h0.1l1.4-0.6l2.9-1.1c1.9-0.6,3.9-1.2,5.9-1.7c2-0.5,3.9-0.9,5.9-1.3h0.1l0.5-0.1l2.4-0.4
		l1.4-0.2l0.8-0.1h0.5c4-0.5,8.1-0.8,12.2-1c4.1-0.2,8.4-0.4,12.6-0.2c1.2,0,2.4,0.1,3.6,0.2l0.5,0.1h0.4l0.7,0.1l1.8,0.3
		c2.3,0.5,4.6,1.2,6.7,2.1c0.8,0.4,2-0.4,2.2-1.2c0.2-0.8-0.3-1.8-1.2-2.2c-3.5-1.4-7.2-2.3-11-2.7l1.3-0.7c2.2-1.3,4.6-2.3,7.1-2.9
		l8.9-2c3-0.6,6.1-1.1,9.1-1.3h0.1c5,0.9,9.9,2.5,14.9,3.9c2.5,0.7,5,1.4,7.5,2s5,1.1,7.5,2c10.2,3.4,19,10.2,26.2,18
		c8,8.6,14.2,18.6,20.3,28.5c-4.2,4-8.2,8.1-12,12.5c-0.3-0.8-0.6-1.6-0.9-2.4c-2.1-5-4.9-9.6-7.8-14.2c-2.9-4.6-6.6-10.1-10.1-15
		c-2.9-4.1-5.6-8.5-9.7-11.6l-1.5-1c-0.8-0.5-1.9-0.2-2.4,0.6c-0.5,0.8-0.2,1.9,0.6,2.4c0.5,0.3,1,0.6,1.5,0.9l0.2,0.2l0.1,0.1
		l0.7,0.6c0.9,0.8,1.7,1.7,2.5,2.6l0.6,0.7l0.2,0.2l0.2,0.2l1.1,1.5l2,2.9c3.4,4.8,6.8,9.6,9.9,14.5c3.2,4.9,5.8,8.9,8,13.7
		c0.1,0.3,0.2,0.6,0.4,0.9c0.1,0.3,0.1,0.2,0.2,0.4l0.1,0.3c0.2,0.6,0.5,1.2,0.7,1.8c0.5,1.2,0.8,2.4,1.1,3.7
		c0.2,0.6,0.3,1.3,0.4,1.9c0,0.3,0.1,0.6,0.1,0.9c0,0.1,0,0.1,0,0.2c0,0.2,0,0.4,0.1,0.5c0.1,1.3,0.2,2.6,0.2,4c-0.1,3-0.5,6-0.5,9
		s0.7,6.2,1.2,9.4c0.1,0.7,0.2,1.4,0.4,2.2c0.1,0.7,1.3,1.5,2.1,1.2c0.8-0.3,1.4-1.2,1.2-2.2c-0.1-1-0.5-3-0.8-4.5
		c0-0.4-0.1-0.7-0.2-1.1c0-0.2,0-0.3-0.1-0.5c0-0.1,0-0.2,0-0.3s0-0.2,0-0.3V125c0-0.1,0-0.2,0-0.3c0-0.2-0.1-0.4-0.1-0.6
		c0-0.4-0.1-0.8-0.1-1.2c-0.2-3.1,0-6.2,0.3-9.2c0.2-3.2,0-6.3-0.8-9.4l0.1-0.1c4-4.7,8.2-9.1,12.6-13.3c5.8,9.5,11.7,19,19,27.4
		c1,1.1,2,2.2,3,3.3c1,1.1,2.1,2.4,3.5,2.7s2.9-0.4,3.7-1.7c0.8-1.3,0.9-2.5,1-3.8C334.1,112.6,333.1,106.4,332,100.3z M114.7,24.8
		c-5.3,1.6-10.6,3.2-15.8,5c-10.3,3.7-20.4,8.4-29.6,14.4c-4.7,3.1-9.1,6.6-13.2,10.4c-4,3.7-7.6,7.8-11.1,12
		c-6.7,8.1-13.1,16.9-22.2,22.4L22,89.5l-0.5,0.2L21,89.9h-0.5c0-0.2-0.1-0.4-0.1-0.6c-0.1-0.7-0.1-1.4-0.1-2.1
		c0.1-2.7,0.6-5.3,1.4-7.8c1.6-5.4,4.2-10.5,6.3-15.7c1.1-2.6,1.9-5.3,2.6-8c0.6-2.6,1-5.2,1.7-7.8c0.7-2.6,1.4-4.7,2.9-6.6
		c1.5-1.8,3.4-3.1,5.6-3.9c4.7-1.7,9.8-1.5,14.8-1.9c6-0.5,11.9-2,17.5-4.3c2.8-1.2,5.6-2.5,8.3-4c2.6-1.4,5.1-3,7.6-4.6
		c2.5-1.6,4.8-2.9,7.6-2.9c2.7,0,5.5,1.8,8.1,2.8c3.7,1.4,7.7,1.6,11.7,1.6L114.7,24.8z M330,119.1c0,0.2-0.1,0.3-0.1,0.5
		c0,0,0,0.1,0,0.1c-0.1,0.2-0.1,0.5-0.2,0.7c-0.1,0.1-0.1,0.2-0.2,0.4c0,0,0,0,0,0.1l-0.3-0.3l-1.5-1.6c-8-8.5-14.3-18.4-20.4-28.3
		S295,70.4,287.4,61.3c-6.9-8.4-15.2-15.9-25.1-20.7c-2.5-1.2-5-2.2-7.6-3c-2.4-0.8-4.8-1.2-7.2-1.8c-3.9-0.9-7.7-2.1-11.5-3.2
		c9.1-0.6,18.3-1,27.4-0.6c2.9,0.1,5.7,0.5,8.5,1.2c2.7,0.8,5.2,2.1,7.6,3.6c2.4,1.5,4.9,3.2,7.5,4.5c2.6,1.4,5.2,2.7,7.9,3.8
		c5.5,2.3,11.1,4.2,16.7,6.1L320,54c2.2,0.8,4.9,1.4,6.5,3c1.6,1.6,1.3,4.7,1.1,7c-0.3,3.2-0.7,6.4-1,9.6c-0.3,3.1-0.5,6.3-0.5,9.4
		c0.1,3.1,0.4,6.3,0.9,9.4c0.9,5.9,2.3,11.7,2.9,17.7C330.2,113.1,330.2,116.1,330,119.1z"/>
</g>
</svg>
