<?xml version="1.0" encoding="utf-8"?>
<!-- Generator: Adobe Illustrator 27.9.0, SVG Export Plug-In . SVG Version: 6.00 Build 0)  -->
<svg version="1.1" id="Layer_1" xmlns="http://www.w3.org/2000/svg" xmlns:xlink="http://www.w3.org/1999/xlink" x="0px" y="0px"
	 viewBox="0 0 334.4 183" style="enable-background:new 0 0 334.4 183;" xml:space="preserve">
<g>
	<path style="stroke:#000000;stroke-width:3;stroke-linecap:round;stroke-linejoin:round;stroke-miterlimit:10;" d="M135.7,38.6
		c-4.6-1.2-9.4-1.2-14-0.3c-4.5,0.9-8.9,2.7-12.7,5.4c-2.1,1.5-4.1,3.3-5.8,5.3c-0.5,0.6-0.6,1.5,0,2.1c0.6,0.6,1.6,0.6,2.1,0
		c0.7-0.8,1.5-1.7,2.3-2.4l1.2-1.1l0.6-0.5l0.2-0.1c0,0,0.1-0.1,0.1-0.1l0.2-0.2c1.8-1.3,3.7-2.4,5.7-3.4l0.7-0.3c0.1-0.1,0,0,0,0
		l0.1-0.1l0.4-0.2l1.6-0.6c1-0.4,2.1-0.6,3.1-0.9l1.6-0.3l0.8-0.1h0.1l0.5-0.1c1.1-0.1,2.2-0.2,3.3-0.2c1.2,0,2.4,0.1,3.6,0.2h0.3
		l0.4,0.1l0.9,0.2l1.9,0.4c0.8,0.2,1.7-0.2,1.9-1.1C137,39.6,136.5,38.8,135.7,38.6z"/>
	<path style="stroke:#000000;stroke-width:3;stroke-linecap:round;stroke-linejoin:round;stroke-miterlimit:10;" d="M96.4,79
		c-0.8-0.4-1.6-0.2-2.1,0.5l-2.8,3.9c-0.3,0.6-0.2,1.3,0.2,1.8c0.2,0.2,0.5,0.4,0.8,0.4v0.1c0,0,0,0.1-0.1,0.1l-0.2,0.4
		c-0.2,0.5-0.4,1-0.6,1.5c-0.5,1.5-1,3.1-1.3,4.8c-0.7,3.4-1.4,6.7-2,10.1l-1.2,5.9c-0.1,0.5,0,1.1,0.4,1.5c0.4,0.4,0.9,0.5,1.4,0.4
		c-0.8,4.2-1.3,8.5-1.3,12.8c0,1.5,0,2.9,0.2,4.4c0,0.8,0.8,1.5,1.6,1.5c0.4,0,0.7-0.2,1-0.4l0.4-0.3v0.5c0,0.3,0,0.5-0.1,0.8
		s0,0.2,0,0.3s0,0.2-0.1,0.3c-0.1,0.5-0.2,1.1-0.4,1.6c-0.2,0.8,0.3,1.6,1.1,1.8c0.8,0.2,1.6-0.3,1.9-1.1c0.7-2.5,0.8-5.1,0.3-7.7
		c-0.1-0.5-0.5-0.9-1.1-1.1c-0.5-0.1-1.1,0-1.5,0.4l-0.2,0.2c0-1.5,0-2.9,0.1-4.4c0.1-1.5,0.2-2.5,0.3-3.7l0.1-0.9c0,0,0-0.1,0-0.1
		v-0.1c0-0.2,0.1-0.3,0.1-0.5c0.1-0.6,0.2-1.2,0.3-1.9c0.2-1.4,0.5-2.8,0.9-4.2s-0.7-2.2-1.8-1.9c0.6-3,1.2-5.9,1.8-8.9
		c0.4-1.8,0.7-3.6,1.1-5.3c0.2-0.9,0.4-1.8,0.7-2.7c0.1-0.4,0.3-0.8,0.4-1.2l0.3-0.7l0.1-0.2c-0.1,0.3,0.1-0.2,0.1-0.2
		c0.5-1.2,1-2.5,0.3-3.7l-0.2-0.3L97,81C97.4,80.4,97.1,79.3,96.4,79z"/>
	<path style="stroke:#000000;stroke-width:3;stroke-linecap:round;stroke-linejoin:round;stroke-miterlimit:10;" d="M313.5,86.9
		c-0.3-1.4-0.7-2.7-1.2-4.1c-0.5-1.6-1.1-3.2-1.7-4.8l-1.6-4.5c0.9-0.1,1.8-0.6,2.4-1.2c1.1-1.2,1.4-3.2,0.3-4.6l-0.4-0.5l1.1-0.2
		c1.1-0.2,1.5-1.8,0.7-2.5c-3.5-3.1-7.9-5-12.3-6.6c-4.4-1.6-9.1-3.1-13.6-5.1c-9.4-4.2-18.1-9.5-27-14.7
		c-8.9-5.2-17.7-10-27.3-13.6c-4.7-1.8-9.6-3.1-14.5-3.9c-5.3-0.8-10.6-0.8-15.9-1.1s-10.5-1.1-15.8-1.6c-5.3-0.5-10.4-0.9-15.7-1.2
		l-3.8-0.2h-0.6c-10.5,0.3-20.9,1.5-31.2,2.7c-5.4,0.6-10.9,0.3-16.3,0.9c-5,0.5-10,1.6-14.8,3.2c-9.7,3.1-18.7,7.8-27.5,12.9
		S59.2,46.7,50,51.2c-4.5,2.1-9.1,4-13.8,5.6c-4.4,1.5-8.9,3-12.8,5.6c-1,0.7-1.9,1.4-2.8,2.2c-0.8,0.7-0.4,2.3,0.7,2.5l1.4,0.2
		c-0.5,0.6-1,1.2-1.5,1.7c-1,0.9-0.2,2.5,1.1,2.6c1.1,0.1,2.2,0,3.3-0.1C24,77,22.6,82.6,21.3,88.2c-0.3,1.4,1.4,2.6,2.5,1.5
		c0.5-0.5,1-0.6,1.7-0.6c0.7,0.1,1.3,0.4,1.9,0.8c1.6,1.2,2,3.7,2.3,5.6c0.7,4.8,1.6,9.4,3,14c1.5,4.7,3.4,9.2,5.7,13.5
		c1.1,2.1,2.4,4.2,3.7,6.2c0.7,1,1.3,2,2.1,3s1.5,1.9,2.1,2.9c0.3,0.5,0.5,0.9,0.7,1.5c0.1,0.4,0,0.7-0.1,1.1
		c-0.2,0.6-0.8,1.5-1.3,2.1c-1.3,1.6-2.9,3.2-3.2,5.4c-0.1,0.8,0.4,2.1,1.5,1.9l3.8-0.5l9.3,7.4c1.5,1.2,3.1,2.3,4.5,3.7
		c1.4,1.4,2,2.1,1.5,3.5s0.8,2.2,1.8,1.8l5.4-2.1c2.6,2.9,6.9,3.1,10.5,2.2c4.4-1.2,8.6-4.1,11.7-7.4c3.5-3.6,6.1-7.9,7.6-12.7
		c1.6-5.2,1.9-10.7,1.7-16c-0.3-10.6-2.4-21.4,0.3-31.9c2.3-9,7.4-16.8,12.7-24.2s11.5-15.1,16-23.4c0.5-1,1.1-2.1,1.6-3.1
		c0.5-1.1,0.2-1.6-0.5-2.1c-0.8-0.4-1.7-0.2-2.1,0.5c-4,8.4-9.6,15.7-15.1,23.2c-5.4,7.4-10.7,14.9-14,23.5
		c-1.7,4.5-2.7,9.3-2.9,14.2c-0.3,5.4,0.2,10.7,0.5,16c0.8,10,1.2,20.7-4.4,29.5c-2.5,3.9-5.8,7.1-9.8,9.4c-1.7,1.1-3.6,1.8-5.5,2.1
		c-1.6,0.3-3.5,0.2-4.9-0.6c-0.7-0.4-1.2-0.9-1.6-1.5c-0.3-0.5-1.1-0.9-1.7-0.7l-4.4,1.7c-0.3-1.3-1.1-2.5-2-3.5
		c-0.8-0.8-1.8-1.6-2.7-2.3l-3.3-2.6l-6.4-5.1l-1.6-1.3c-0.6-0.5-1.2-1.1-2-1.1c-0.5,0-1.1,0.1-1.7,0.2c0.5-0.7,1.1-1.4,1.6-2.1
		c1.3-1.7,2.4-3.6,1.9-5.8c-0.3-1.3-1-2.4-1.8-3.4s-1.5-2-2.3-3.1c-1.5-2.1-2.8-4.3-4.1-6.5c-2.5-4.5-4.5-9.2-6.1-14
		c-0.8-2.5-1.4-5-1.9-7.5c-0.5-2.5-0.8-5-1.2-7.5s-1.6-5.4-4-6.7c-1.1-0.6-2.4-0.9-3.6-0.8c1.3-5.4,2.6-10.7,4.1-16.1
		c0.3-1.1-0.8-2.1-1.8-1.8c-0.5,0.1-1.1,0.2-1.6,0.3c0.3-0.5,0.6-0.9,0.8-1.5c0.4-0.8,0.1-2-0.9-2.2h-0.2c2.8-1.8,6.1-3.1,9.2-4.2
		c4.6-1.6,9.3-3.2,13.7-5.3c9.2-4.1,17.9-9.4,26.7-14.5s17.3-9.9,26.7-13.3c4.7-1.8,9.5-3.1,14.4-3.9c5.2-0.8,10.4-0.7,15.7-1
		c5.2-0.3,10.4-1.1,15.6-1.6c5.2-0.5,10.4-1,15.6-1.2l3.9-0.2c10.4,0.6,20.9,1.5,31.3,2.7c5.3,0.6,10.7,0.4,16,0.9
		c4.9,0.5,9.7,1.5,14.4,3.1c9.5,3,18.3,7.7,26.9,12.6c8.6,4.9,17.5,10.4,26.6,14.9c4.5,2.2,9.2,4.1,13.9,5.8
		c4.2,1.5,8.6,2.8,12.4,5.3h-0.2c-1,0.2-1.4,1.5-0.9,2.2c0.6,0.8,1.2,1.6,1.9,2.4c-0.1-0.1,0.1,0.2,0.2,0.2c0.1,0.2,0.1,0.3,0,0.5
		c-0.1,0.2-0.3,0.4-0.5,0.5c-0.5-0.6-1-1.4-1.6-2c-1.1-1.1-2.9,0-2.5,1.5c1.5,5.4,3.8,10.6,5.4,15.9c0.2,0.5,0.3,1.1,0.5,1.7
		c0.1,0.3-0.1,0.6-0.4,0.8c-0.2,0.1-0.2,0.1-0.4,0.1h-0.2c0,0-0.1,0-0.1,0l-1.6-0.4c-1.1-0.3-2.3-0.6-3.4-0.2
		c-1.1,0.4-2.1,2.1-2.6,3.4c-0.5,1.3-0.8,2.9-0.9,4.4s-0.5,3.1-0.7,4.6c-0.5,3.1-1,6.1-1.6,9.2c-1.2,5.9-3,11.7-5.9,17
		c-0.8,1.6-1.8,3.1-2.8,4.5c-1,1.4-2.2,2.7-2.8,4.4c-0.9,2.8,0.2,5.6,0.9,8.3l-1.1-0.1c-0.4-0.1-0.9-0.2-1.3-0.2
		c-1-0.1-2.1,1.2-2.8,1.8l-6.4,5.1c-2,1.6-4.2,3.1-6.1,4.9c-1.4,1.3-2.7,3-2.8,4.9l-1.8,0.2l-2.3,0.2c-0.6,0.1-1.4,0-1.9,0.5
		c-0.5,0.5-0.5,0.8-0.9,1.1l-0.2,0.1l-0.3,0.2h-0.2l-0.4,0.1c-0.8,0.2-1.9,0.1-2.8-0.1c-1.2-0.3-2.4-0.6-3.6-1
		c-1.2-0.4-2.3-0.7-3.5-1.1c-4.5-1.5-7.7-5.4-9.8-9.4c-1.1-2-1.9-4.1-2.6-6.3c-1-3-2-5.9-3.1-8.8c-2-5.6-4.1-11.3-5.4-17.2
		c-0.6-2.8-0.9-5.6-1-8.5c-0.1-3,0.3-5.8,0.8-8.7c0.8-5.1,0.6-10.2-0.8-15.2c-1.3-4.8-3.5-9.4-5.9-13.8c-5.1-9-11.5-17.3-16.4-26.4
		c-0.6-1.1-1.2-2.2-1.7-3.4c-0.5-1.1-1.4-0.9-2.1-0.5c-0.7,0.4-1,1.3-0.5,2.1c4.1,8.6,9.9,16.3,14.9,24.4c4.8,7.6,9.3,15.9,9.9,25.1
		c0.2,2.2,0,4.5-0.3,6.7c-0.5,2.8-0.9,5.6-1,8.4c-0.1,5.5,1,10.9,2.5,16.1c1.5,5.2,3.7,10.6,5.5,15.9c1.6,4.6,2.9,9.3,5.5,13.5
		c2.6,4.2,5.8,7.3,10.2,8.9c1,0.4,2.1,0.6,3.1,1c1.1,0.3,2.3,0.7,3.4,1c2.1,0.6,4.4,0.9,6.5-0.1c0.7-0.4,1.4-0.9,1.8-1.5l5.8-0.5
		c0.9-0.1,1.8-0.9,1.5-1.9s0.5-2.6,1.5-3.5c1.4-1.4,3-2.5,4.5-3.7l9.3-7.4l3.8,0.5c0.8,0.1,1.6-0.8,1.5-1.5c-0.2-1.5-0.6-3.1-1-4.5
		c-0.3-1.4-0.7-2.8-0.5-4.2c0.2-1.4,1.5-2.6,2.2-3.7c0.9-1.3,1.8-2.6,2.6-4c3.1-5.3,5.1-11.2,6.5-17.2c0.7-3,1.2-6.1,1.7-9.1
		c0.5-3.1,0.7-6.3,1.5-9.3c0.2-0.7,0.4-1.3,0.7-1.9c0.1-0.3,0.3-0.5,0.5-0.8h0.5l0.4,0.1l1.7,0.4c1.2,0.3,2.5,0.5,3.6-0.2
		C313.1,90.1,313.8,88.5,313.5,86.9z M305.3,90.7L305.3,90.7C305.2,90.6,305.3,90.6,305.3,90.7L305.3,90.7z M305.5,90.6
		C305.7,90.2,305.6,90.5,305.5,90.6L305.5,90.6z"/>
	<path style="stroke:#000000;stroke-width:3;stroke-linecap:round;stroke-linejoin:round;stroke-miterlimit:10;" d="M202.4,40.6
		c0.5-0.2,1.1-0.3,1.6-0.4l0.8-0.2l0.3-0.1h0.2c1-0.2,2-0.2,3-0.2l1.5,0.1l0.7,0.1h0.5h0.1c0.1,0,0.1,0,0,0c0.4,0.1,0.9,0.2,1.3,0.2
		l1.4,0.3l1.3,0.4l1.3,0.5h0.1l0.3,0.1l0.7,0.3l1.3,0.7c0.8,0.5,1.7,1,2.5,1.6c0.2,0.1,0.4,0.3,0.6,0.4l0.3,0.2l0.1,0.1l1.2,1
		c1.8,1.6,3.5,3.4,5,5.2c0.5,0.6,1.6,0.5,2.1,0c0.6-0.6,0.6-1.5,0-2.1c-2.8-3.3-6-6.3-9.7-8.6c-3.6-2.1-7.6-3.4-11.8-3.5
		c-2.5-0.1-5,0.2-7.4,0.8c-0.8,0.2-1.3,1.1-1.1,1.8C200.8,40.3,201.6,40.8,202.4,40.6z"/>
	<path style="stroke:#000000;stroke-width:3;stroke-linecap:round;stroke-linejoin:round;stroke-miterlimit:10;" d="M239.4,83.4
		l-2.8-3.9c-0.5-0.7-1.4-1-2.1-0.5s-1,1.4-0.5,2.1l1.8,2.5c-0.1,0.1-0.2,0.2-0.2,0.3c-0.7,1.2-0.2,2.5,0.3,3.7
		c0.5,1.2,1.8,2.8,2.8,4.1c0.5,0.7,1,1.4,1.5,2.1c0.2,0.3,0.4,0.6,0.5,0.9c0,0,0,0.1,0.1,0.1c0,0,0,0.2,0.1,0.2
		c0.1,0.2,0.1,0.4,0.2,0.6c0.5,2.1,0.8,4.2,1.3,6.4c0.3,1.6,0.6,3.2,0.9,4.8c-1.1-0.3-2.1,0.8-1.8,1.9c0.3,1.1,0.6,2.5,0.8,3.7
		c0.1,0.6,0.2,1.2,0.3,1.8c0.1,0.6,0.1,0.6,0.1,0.9c0,0.3,0,0.3,0,0.3c0,0.2,0.1,0.3,0.1,0.5c0.3,2.5,0.5,5,0.5,7.5v1.1l-0.2-0.2
		c-0.4-0.4-0.9-0.5-1.5-0.4c-0.5,0.1-0.9,0.5-1.1,1.1c-0.6,2.5-0.5,5.2,0.3,7.7c0.2,0.8,1.1,1.3,1.9,1.1c0.8-0.2,1.3-1.1,1.1-1.8
		c-0.2-0.5-0.3-1.1-0.4-1.6c0-0.1,0-0.2-0.1-0.3s0-0.2,0-0.3s0-0.5-0.1-0.8v-0.5l0.4,0.3c0.6,0.6,1.5,0.6,2.1,0
		c0.3-0.3,0.4-0.7,0.4-1.1c0.4-5.2,0.1-10.4-0.8-15.5c-0.1-0.5-0.2-1.1-0.3-1.7c0.5,0.1,1-0.1,1.4-0.4c0.4-0.4,0.5-0.9,0.4-1.5
		l-2.4-11.9c-0.2-0.8-0.3-1.7-0.6-2.5c-0.3-0.8-0.6-1.5-1.1-2.2c-0.8-1.3-1.9-2.5-2.8-3.8c-0.5-0.7-0.9-1.4-1.3-2.1c0,0,0,0,0-0.1
		l-0.1-0.2c0.3,0,0.6-0.2,0.9-0.4C239.6,84.8,239.8,83.9,239.4,83.4z"/>
	<path style="stroke:#000000;stroke-width:3;stroke-linecap:round;stroke-linejoin:round;stroke-miterlimit:10;" d="M179.3,30.2
		c-1.5-0.5-3.1-0.3-4.6,0c-1.5,0.3-2.7,0.8-4.1,1.1l-0.9,0.2c-0.1,0-0.2,0-0.3,0c0,0,0.1,0,0.1,0l-0.5,0.1h-1.2l-0.5-0.1
		c-0.1,0-0.3-0.1-0.4-0.1l0.2,0.1l-0.2-0.1l-0.2-0.2l-0.5-0.3c0,0-0.1-0.1-0.1-0.1l-0.2-0.2c-0.6-0.5-1.1-1.1-1.6-1.6
		c-1.3-1.4-2.9-2.6-4.9-2.6c-1.8,0.1-3.5,1.3-4,3.1c-0.3,0.9-0.2,1.9,0.2,2.8c0.3,0.8,0.9,1.5,1.4,2.2c0.9,1.3,1.8,2.7,2.5,4.1
		c0.4,0.7,0.8,1.5,1.1,2.2l0.5,1.1c0.1,0.2,0.2,0.4,0.2,0.5c0,0.1,0,0.1,0.1,0.2l0.1,0.3c2.5,6.1,3.9,12.6,5.1,19.1l0.5,2.4
		c0.1,0.8,1.1,1.3,1.8,1.1c0.4-0.1,0.6-0.3,0.8-0.6c0.3-0.2,0.5-0.5,0.5-0.8c0.5-3.8,1-7.5,1.6-11.2c0.2-1.7,0.5-3.4,1-5.1
		c0.2-0.8,0.5-1.6,0.8-2.4c0.1-0.1,0.1-0.2,0.1-0.3c0,0,0-0.1,0.1-0.1l0.2-0.5c0.2-0.4,0.4-0.8,0.6-1.2c0.4-0.7,0.8-1.4,1.3-2
		c0.1-0.1,0.2-0.2,0.3-0.4h0c0,0,0,0,0-0.1l0.2-0.2l0.8-1c1.1-1.3,2.1-2.6,3-4.1c0.5-0.8,1.1-1.8,1.1-2.8
		C181.2,31.7,180.3,30.5,179.3,30.2z M178,33c-0.3,0.7-0.7,1.3-1.2,1.9c-0.2,0.3-0.4,0.6-0.6,0.9L176,36h0l-0.4,0.5
		c-1,1.3-2.1,2.5-3,3.9c-1.8,2.8-2.8,6-3.4,9.3c-0.3,1.9-0.6,3.8-0.9,5.8c-0.8-3.6-1.7-7.2-2.9-10.7c-1.1-3.1-2.4-6-4-8.8
		c-0.8-1.4-1.7-2.7-2.6-4c-0.2-0.3-0.4-0.6-0.6-0.9c0-0.1,0-0.1-0.1-0.2h0v-0.1c0-0.1,0-0.1,0-0.1v-0.2v-0.1c0,0,0-0.1,0-0.1
		c0-0.1,0.1-0.2,0.1-0.2c0,0,0,0.1,0,0.1l0-0.1l0,0v-0.1l0.2-0.3c0.1,0,0.1-0.1,0.2-0.2l0.1-0.1h0l0.2-0.1l0.2-0.1h0.5l0.1,0.1
		l0.3,0.1h0.2l0.5,0.3l0.3,0.2l0.1,0.1h0c1.2,1,2.2,2.4,3.5,3.3c2.5,1.8,5.7,1.1,8.4,0.3l2-0.5l1-0.2h0.1c0.2,0,0.4-0.1,0.6-0.1
		L178,33L178,33L178,33z"/>
</g>
</svg>
