<?xml version="1.0" encoding="utf-8"?>
<!-- Generator: Adobe Illustrator 27.9.0, SVG Export Plug-In . SVG Version: 6.00 Build 0)  -->
<svg version="1.1" id="Layer_1" xmlns="http://www.w3.org/2000/svg" xmlns:xlink="http://www.w3.org/1999/xlink" x="0px" y="0px"
	 viewBox="0 0 335.1 234.8" style="enable-background:new 0 0 335.1 234.8;" xml:space="preserve">
<g>
	<path style="stroke:#000000;stroke-width:3;stroke-linecap:round;stroke-linejoin:round;stroke-miterlimit:10;" d="M307.2,112.3
		c-0.6-2.5-1.3-4.9-1.8-7.4c-0.5-2.5-0.5-4.7-0.8-7.1c-0.5-4.8-2.1-9.4-2.7-14.2c-0.6-4.2-2-8.2-4.2-11.9c-2.3-3.7-5.1-6.9-8.2-9.9
		c-6-5.7-12.7-10.8-19.5-15.5c-7.2-5.1-14.8-9.8-22.7-13.9c-3.5-1.8-7.1-3.4-10.8-4.8c-4.4-1.8-9.2-0.4-13.5,1.1
		c-2.1,0.8-4.3,1.6-6.5,2.2l-1.7,0.4h-0.4l-0.8,0.1h-1.8l-0.9-0.1h-0.4l-0.5-0.1c-2.7-0.5-5.2-1.5-7.8-2.3c-2.6-0.8-4.5-1.4-6.8-2
		c-5-1.2-10.1-2.1-15.2-2.7c-5.5-0.7-11-1-16.5-1c-10.3,0-20.5,1.3-30.4,4c-2.4,0.7-4.8,1.5-7.1,2.3c-1.2,0.4-2.4,0.8-3.6,1.1
		l-1.7,0.4l-0.9,0.2l-0.5,0.1h-0.2c-1.1,0.1-2.3,0.1-3.4,0l-0.7-0.1H115l-1.5-0.3c-1.9-0.4-3.8-1-5.6-1.6c-3.6-1.1-7.1-2.2-10.8-2.5
		h-3.4c-0.2,0-0.5,0.1-0.7,0.2c-5.9,0.5-11.6,2.4-16.9,4.8C69,35.1,62.5,39.5,57,45c-2.7,2.6-5,5.6-7,8.8c-1.8,2.9-4,5.5-6.4,7.9
		c-4.9,4.8-10.7,9.4-13.6,15.8c-1.8,4-2,8.2-1.8,12.5c0.2,2.5,0.4,5,0.4,7.5c0,2.4-0.2,4.7-0.7,7.1c-0.9,4.8-2.4,9.4-3.1,14.1
		c-1.5,9.4-0.8,19.1,2.1,28.2c1.5,4.7,3.6,9.1,5.8,13.5c2,4.2,3.7,8.6,5,13.1c1.3,4.5,2.5,9,3.8,13.5c1.3,4.4,2.8,8.8,4.8,13
		c1.9,3.9,4.5,7.5,8.4,9.4c7.3,3.6,16.2,1.7,22.4-3c6.9-5.3,11.3-13.3,14.8-21.2c2-4.4,3.7-9,5-13.6c1.4-4.8,2.5-9.8,2.7-14.8
		c0.2-6.3-1.2-12.6-3.1-18.6c-2-8.6-4.8-17-6.1-25.7c-0.6-4.2-0.7-8.6-0.2-12.8c0.5-4.4,1.9-8.8,3.4-13.1c3-8.8,7.1-17.3,10.9-25.8
		c1-2.2,2-4.4,2.9-6.5l1.4-3.4c0.5-1.2,1-2.5,1-3.8c0-2.3-1.7-4.1-3.8-4.8c-2.1-0.7-4.4-0.1-6.2,1.1c-1.9,1.2-3.4,2.6-4.8,4
		c-1.4,1.3-2.7,2.7-4,4.2c-2.5,2.9-4.6,6.1-6.5,9.5c-3.8,6.9-6.1,14.4-6.9,22.2c-0.9,7.8-0.2,15.7,2.2,23.1
		c1.5,4.7,3.5,9.2,5.4,13.7c1.9,4.5,3.7,9.2,5.4,13.9c0.7,2,1.4,4,2.1,6.1c0,0,0,0.1,0,0.2c0,0.1,0,0.2,0.1,0.4
		c0.8,2.5,1.5,5.1,2,7.7c0.8,4.6,0.9,9.4,0,14.1c-1.6,9.3-5.1,18.5-9.5,26.9c-3.5,6.7-8.4,14.1-15.7,16.8c-3.3,1.3-6.9,1.7-10.3,0.9
		s-6.4-3.1-8.4-6.5c-2-3.3-3.8-8.2-5.1-12.5c-1.3-4.3-2.5-8.9-3.7-13.3c-1.3-4.6-2.8-9-4.7-13.3c-1.9-4.4-4.2-8.6-5.9-13
		c-3.2-8.7-4.3-18-3.1-27.3c0.6-4.6,1.9-9.1,2.9-13.7c0.5-2.4,0.9-4.9,1.1-7.4c0.2-2.5,0.1-5-0.2-7.5c-0.3-4.2-0.6-8.4,0.8-12.3
		c0.6-1.5,1.3-2.8,2.2-4.1c0.9-1.3,1.9-2.5,3-3.7c4.8-5.2,10.6-9.5,14.4-15.5c3.9-6.2,9-11.5,15-15.6c6-4.2,12.6-7.4,19.7-9.1
		c2.9-0.7,5.9-1.1,8.8-1.1h0.6l0.8,0.1h0.3l1.7,0.3c2,0.4,3.9,0.9,5.8,1.6c3.9,1.3,7.9,2.6,12,2.6c5.1,0,9.9-2.2,14.6-3.7
		c4.8-1.5,9.7-2.5,14.7-3.3l1.2-0.2l0.4-0.1h0.3l2.1-0.2l4.3-0.4c2.9-0.2,5.7-0.3,8.6-0.3c4.8,0,9.7,0.2,14.5,0.8l1.9,0.2l0.8,0.1
		l0.5,0.1h0.2l3.8,0.6c2.5,0.4,4.9,0.9,7.3,1.5s4.6,1.1,6.9,1.9c2.3,0.7,5,1.7,7.5,2.4c2.7,0.7,5.5,0.9,8.2,0.5
		c2.3-0.3,4.4-1.1,6.5-1.9c2.1-0.8,4.7-1.8,7.2-2.3l0.8-0.2h0.5c0.6,0,1.2-0.1,1.8,0h0.9l0.5,0.1c0.6,0.1,1.3,0.3,1.8,0.6
		c7.8,2.8,15.2,7,22.2,11.4c7,4.4,13.8,9.1,20.3,14.3c6.4,5.1,13,10.6,17,17.9c0.9,1.7,1.7,3.5,2.2,5.3c0.6,2.1,0.7,4.2,1.1,6.3
		s1,4.7,1.5,7c0.4,2.2,0.8,4.5,0.9,6.8c0.4,5.2,1.9,10.1,3.1,15.1c1,4.3,1.7,8.6,2,13c0.6,8.4,0.3,17.8-3.4,25.6
		c-1.9,4.2-4.7,8-5.8,12.5c-1,4.5-2.2,8.8-3.9,13c-1.6,4-3.6,7.7-5.9,11.3c-2.4,3.8-5,7.5-8.2,10.7c-1.5,1.5-2.9,2.9-4.6,3.9
		c-1.5,0.8-3.2,1.3-4.9,1.5c-3.8,0.4-7.6-0.3-10.9-2.1l-1-0.6h0l-0.6-0.5c-0.8-0.7-1.6-1.5-2.3-2.3c-2.1-2.2-4-4.6-5.7-7
		c-4.8-6.8-8.6-14.4-10.6-22.5c-2-8.1-2.1-16.5-1.3-24.7c0-0.8,0.1-1.6,0.2-2.4l0.1-1.2c0-0.2,0-0.3,0.1-0.5c0-0.2,0-0.3,0-0.4
		c0.2-1.1,0.3-2.3,0.5-3.4c0.6-3.2,2-6.3,3.1-9.3c1.7-4.7,3.6-9.4,5.7-13.9c1.1-2.2,2.1-4.4,2.9-6.7c0.8-2.2,1.3-4.6,1.5-6.9
		c0.9-8.7-0.2-17.6-2.4-26c-2.3-8.4-5.7-16.4-10.3-23.7c-1.1-1.7-2.2-3.4-3.5-5c-1.3-1.6-2.6-3.6-4.6-4.7c-2-1.1-4.4-1.6-6.5-0.8
		c-2.4,0.8-3.8,3.3-3.4,5.8c0.3,2.1,1.7,4.1,2.8,6l3.1,5.5c2,3.7,4,7.5,5.8,11.3c3.8,8.2,6.3,16.8,7.1,25.8c0.8,9-0.2,17.6-1.9,26.3
		c-1,4.7-2.1,9.4-3.1,14.1v0.2c-0.5,2.1-0.8,4.1-1,6.2c-1.1,8.1-1,16.2,0,24.3c1.3,8.7,4.8,17.1,9.3,24.6c1.9,3.1,4,6.1,6.3,9
		c1.5,1.9,3.2,3.8,5.1,5.4c5.2,4.5,13.8,5.8,20.2,3.3c1.9-0.8,3.7-1.9,5.2-3.4c1.8-1.7,3.6-3.4,5.2-5.3c5.6-6.9,10-14.7,13.1-23
		c0.8-2.1,1.5-4.2,2-6.4s1-4.7,1.9-6.9c1.7-4.2,4.4-7.9,5.9-12.2c1.5-4.3,2.2-8.6,2.5-13C310.6,130.6,309.5,121.3,307.2,112.3z
		 M82.6,100.7c-3.3-14.7,0.2-30.6,8.8-43c2.1-3.1,4.6-5.9,7.4-8.4c1.3-1.2,2.8-2.7,4.6-3.2c0.5-0.2,1.1-0.2,1.6,0
		c0.3,0.1,0.5,0.3,0.7,0.5c-0.2-0.2,0.1,0.3,0,0c0,0.2,0,0.5,0,0.7c-0.2,1-0.7,2.1-1.2,3.1c-0.4,1-0.8,2.1-1.3,3.1
		c-1,2.2-1.9,4.4-2.9,6.5c-2,4.3-4,8.7-5.9,13c-3.8,8.7-7.5,17.8-8.4,27.3c-0.3,3.9-0.2,7.9,0.3,11.8
		C84.9,108.6,83.5,104.7,82.6,100.7z M229.9,58l-3-5.5l-1.4-2.6c-0.5-0.8-1.1-1.7-1.2-2.7c0-0.2,0-0.4,0.1-0.6c-0.1,0.3,0.2-0.2,0,0
		c0.2-0.2,0.4-0.4,0.7-0.5c0.6-0.2,1.4-0.2,2,0c1.9,0.5,2.9,2,4,3.5c5.1,6.7,9.1,14.2,11.8,22.2c2.8,8.2,4.5,16.8,4.4,25.5
		c-0.1,4.4-0.6,8.6-2.3,12.7c-0.7,1.7-1.5,3.4-2.3,5c0.2-1.6,0.4-3.2,0.5-4.8c0.8-9.4,0-19-2.6-28.1C238.2,73.7,234.2,65.7,229.9,58
		z"/>
</g>
</svg>
