<?xml version="1.0" encoding="utf-8"?>
<!-- Generator: Adobe Illustrator 27.9.0, SVG Export Plug-In . SVG Version: 6.00 Build 0)  -->
<svg version="1.1" id="Layer_1" xmlns="http://www.w3.org/2000/svg" xmlns:xlink="http://www.w3.org/1999/xlink" x="0px" y="0px"
	 viewBox="0 0 256 208.3" style="enable-background:new 0 0 256 208.3;" xml:space="preserve">
<g>
	<path style="stroke:#000000;stroke-width:3;stroke-linecap:round;stroke-linejoin:round;stroke-miterlimit:10;" d="M242.1,119.4
		c-0.9-4-2.4-7.9-3.6-11.8c-1.3-3.9-2.5-7.9-3.8-11.8c-2.3-7.3-4.7-14.6-8.8-21.1c-3.8-6-8.4-11.4-12.4-17.3c-2-2.9-3.8-6-5.2-9.2
		c-1.3-2.9-2.3-5.9-3.9-8.6c-1.6-2.7-4.1-5.2-7.2-6.4c-1.6-0.6-3.3-0.8-5-0.7c-0.8,0-1.7,0.2-2.5,0.4c-0.7,0.2-1.3,0.5-2,0.6l-1.1-1
		c-2.1-1.7-4.5-3.1-7.2-3.4l-1.1-0.6c-3.4-1.8-7-3.2-10.4-4.8c-7.3-3.4-14.6-6.9-22.2-9.5c-7.6-2.6-15.8-1.9-23.5-0.1
		s-14.9,4.8-22.7,6.3c-2,0.4-4,0.7-6,0.8c-1.7,0.2-3.5,0.2-5.2,0.6C86.7,22,85.3,22.9,84,24c-1,0.9-2.1,2.1-3.4,2.6S77.4,26,76,25.7
		c-1.6-0.3-3.3-0.1-4.9,0.6c-3.2,1.4-5.6,4.3-7.9,6.9c-5.7,6.1-11.5,12-16.9,18.3c-2.5,2.9-4.8,6-6.6,9.3c-1.9,3.4-3.6,6.9-5.6,10.2
		c-7.6,13.2-17.5,25.7-20.2,41.2c-1.3,7.4-0.7,15,2.3,21.9c3.1,7,8.2,13.1,12.7,19.3c2.2,3,4.4,6,6.7,9.1c-0.4,1.6-0.8,3.3-1.3,4.9
		c-1.2,4.6-2.3,9.4-1.3,14.1s4.5,8.1,8.6,10.4c4.1,2.3,9.5,4.8,14.7,4.8s9.6-2.6,13.4-5.9c6.3-5.4,10.6-13,12.4-21.1
		c0.9-4.1,1.2-8.2,0.7-12.4c-0.2-2.1-0.6-4.1-1.2-6.2c-0.7-2.3-1.6-4.6-2.5-6.8c-0.8-2.3-1.7-4.7-1.8-7.1c-0.1-2.5,0.6-4.8,1.3-7.1
		c0.7-2.3,1.5-4.9,1.3-7.4c-0.2-2.6-1.2-5.1-2.2-7.6c-2.9-6.5-5.1-13.3-6.9-20.2c0-0.1,0.1-0.3,0-0.4c-1.3-17,3-34,12.3-48.4
		c2.6-3.9,5.5-7.7,8.7-11.1c0.5-0.5,0.6-1.3,0.3-2c-0.3-0.5-1.2-1-1.8-0.7c-7.7,3.1-15.8,6.6-21,13.3c-2.9,3.8-4.2,8.3-4.6,13
		c-0.5,5.1-0.5,10.2-0.3,15.3c0.5,10.4,2.5,20.7,5.7,30.6c0.8,2.4,1.7,4.9,2.6,7.2c0.9,2.4,2.1,4.8,3,7.2c0.9,2.4,1.2,4.6,0.7,7
		c-0.5,2.4-1.5,4.7-2,7.1c-1.1,5.1,0.6,9.9,2.5,14.6c1.5,3.9,2.6,7.8,2.8,12.1c0.3,8-2,15.9-6.6,22.5c-2.3,3.3-5.2,6.2-8.6,8.4
		c-2,1.3-4.1,2.3-6.5,2.7c-2.4,0.3-5-0.1-7.3-0.8c-2.3-0.8-4.6-1.8-6.8-3c-1.9-1-3.8-2.2-5.3-3.8c-3.1-3.3-3.3-7.9-2.6-12.1
		c0.6-3.5,1.5-6.9,2.4-10.3c0.5-0.4,0.7-1.1,0.5-1.6c0.3-0.9,0.5-1.9,0.7-2.8c1.3-5.3,2.4-10.6,3.4-16c2-10.8,3.4-21.6,4.2-32.5
		c0.2-2.6,0.4-5.3,0.5-7.9c0.1-2.1-3.1-2.1-3.2,0c-0.5,10.9-1.7,21.8-3.4,32.6c-1.3,7.8-2.8,15.5-4.7,23.1
		c-3.9-5.3-7.9-10.6-11.7-16.1c-4.2-5.9-7.7-12.3-8.3-19.7c-1.2-15.2,7.2-28.6,14.9-41c2.1-3.3,4.1-6.5,6-9.9
		c1.9-3.4,3.5-6.6,5.3-9.8c3.9-6.8,9.5-12.2,14.8-17.8l8.3-8.9c2.1-2.3,4.5-5.5,7.6-6.2c1.6-0.4,3,0.4,4.5,0.8
		c1.6,0.5,3.3,0.3,4.8-0.5c1.3-0.7,2.3-1.8,3.4-2.7c1.2-1,2.6-1.7,4.2-1.8c1.7-0.3,3.5-0.3,5.2-0.5c1.9-0.2,3.9-0.5,5.8-1
		c3.8-0.8,7.5-1.9,11.2-3.1c7.3-2.3,14.7-4.6,22.4-4.6s15.1,3.3,22.1,6.5c3.6,1.6,7.1,3.3,10.7,4.9c2.3,1.1,4.7,2,7,3.1
		c-1.4,0.9-2.4,2.3-2.8,3.8c-1,3.2,0.1,6.4,1.6,9.2c1.5,2.8,3.3,5.8,4.8,8.8c2.9,6,5.3,12.3,6.5,18.9c1.2,6.6,1.1,13.4-0.2,20
		c-1.3,6.7-3.6,13.1-6.4,19.3c-2.8,6.2-6.3,11.8-8.4,18.1c-1,2.9-1.5,5.9-1.6,9l-0.4,1.1c-4.4,12.4-6,26.5-0.5,38.9
		c4.5,10.1,15.1,18.7,26.7,16.3c5.1-1.1,9.9-4.2,12.5-8.7c1.4-2.4,2.1-5.2,2.1-8c0-3.2-0.9-6.4-2-9.4c-1-3-2.2-6-2.7-9.2
		s-0.2-7,0.4-10.3c1.3-7.3,2.9-14.6,4.2-22c0.7-3.5,1.2-7,1.5-10.6c0.1-2.1-3.1-2.1-3.2,0c-0.3,3.6-0.8,7.2-1.5,10.8l-2.1,10.9
		c-0.7,3.7-1.5,7.3-2.1,11s-0.8,7.2-0.3,10.9c1,6.2,4.7,11.9,4.7,18.3c0,5-3.2,9.2-7.6,11.5c-4.4,2.4-9.7,2.6-14.4,0.7
		c-5.1-2-9.2-6.1-11.9-10.8c-6.6-11.2-5.2-25.2-1.4-37.1c0.4-1.1,0.7-2.2,1.1-3.2c0.1-0.1,0.1-0.2,0.1-0.3
		c4.3-11.6,10.9-22.3,16.1-33.5c3-6.4,5.3-13.1,7-19.9c1.6-6.9,2.6-14,2.7-21.1c0.2-9.2-1.1-19.9-7-27.4c0.5-0.1,1-0.3,1.5-0.3
		c1.6-0.2,3.1,0,4.6,0.5c6.1,2.2,7.6,9.9,10.1,15.1c3,6.2,7.3,11.6,11.4,17.1c4.1,5.5,8.1,11.6,10.6,18.4c2.8,7.4,4.9,15,7.3,22.5
		c1.2,3.8,2.6,7.5,3.4,11.4c0.7,3.4,0.6,6.9-0.3,10.2c-1.8,6.6-6.3,12.2-10.9,17c-4.6,4.9-9.7,8.9-13.6,14.1c-2,2.6-3.5,5.4-4.7,8.4
		c-0.7,2,2.4,2.8,3.1,0.9c2.4-6.3,7.1-11,11.8-15.5c4.8-4.5,10.1-9.9,13.8-15.9S243.7,126.6,242.1,119.4z M68.1,78.4
		c-0.3-2.8-0.4-5.6-0.5-8.4c-0.1-2.8,0-5.2,0.1-7.8c0.1-2.6,0.4-5.1,1-7.6c2-8.1,9.1-12.8,16.2-16.2c-3.9,5-7.3,10.4-10,16.2
		C71.5,62.1,69.2,70.1,68.1,78.4z M191.2,44.3c2,5.2,2.7,10.7,2.8,16.2c0.2,14-2.9,27.8-8.6,40.6l-1.2,2.5c0.4-1,0.7-1.9,1-2.9
		c2.1-6.5,3.5-13.4,3.5-20.3c0-6.9-1.3-13.5-3.6-19.9c-1.1-3.2-2.5-6.3-3.9-9.4c-1.5-3.1-3.1-5.9-4.8-8.8c-1.3-2.4-2.7-5.3-1.5-8
		c0.7-1.6,2-2.1,3.4-2.1c2.5,1.7,4.8,4.2,7.9,4.5h0.2l0.9,1C189,39.7,190.3,41.9,191.2,44.3z"/>
</g>
</svg>
