<?xml version="1.0" encoding="utf-8"?>
<!-- Generator: Adobe Illustrator 27.9.0, SVG Export Plug-In . SVG Version: 6.00 Build 0)  -->
<svg version="1.1" id="Layer_1" xmlns="http://www.w3.org/2000/svg" xmlns:xlink="http://www.w3.org/1999/xlink" x="0px" y="0px"
	 viewBox="0 0 341.4 229.2" style="enable-background:new 0 0 341.4 229.2;" xml:space="preserve">
<g>
	<path style="stroke:#000000;stroke-width:3;stroke-linecap:round;stroke-linejoin:round;stroke-miterlimit:10;" d="M62.8,127.7
		c-1.4-0.9-2.6-1.7-3.8-2.6l-0.9-0.6l-0.4-0.3l-0.2-0.1l-1.7-1.4c-1.2-1-2.3-2-3.3-3c-1.1-1-2.1-2.1-3-3.3s-1-1.1-1.4-1.7l-0.4-0.5
		l-0.2-0.3l-0.2-0.2l-0.4-0.6c-1.8-2.4-3.3-4.9-4.8-7.6l-1.1-2.2c-0.2-0.4-0.4-0.8-0.6-1.2c-0.2-0.4-0.1-0.4-0.2-0.6
		c-0.1-0.2-0.3-0.6-0.1-0.2c-0.4-0.8-0.7-1.6-1-2.5l-1-2.9c-0.3-1.1-1.5-1.9-2.6-1.5c-1.1,0.4-1.9,1.5-1.5,2.6
		c1,3.2,2.3,6.3,3.8,9.4c1.3,2.7,2.9,5.3,4.7,7.8c3.6,5.1,8,9.7,13,13.5c1.3,1,2.7,2,4.2,2.9c0.7,0.5,1.5,1,2.2,1.5
		c0,0,0.1,0,0.1,0.1c0.1,0,0.1,0,0.2,0.1l0.3,0.2c-2.1,2.4-3.4,5.6-4,8.8c-0.8,4-0.6,8.1-0.9,12.1l-0.1,1.8c0,0.3-0.1,0.5-0.1,0.8
		c0,0.1,0,0.2,0,0.3c0,0,0,0.3,0,0.3c-0.2,1.2-0.5,2.3-0.8,3.5c-0.3,1.2,0.3,2.3,1.5,2.7c1.1,0.3,2.3-0.4,2.6-1.5
		c1.3-4.1,1.3-8.4,1.5-12.6c0-1,0-2,0.1-3c0-0.4,0-0.8,0.1-1.2c0-0.4,0-0.4,0.1-0.6v-0.1c0-0.1,0-0.2,0-0.3c0.3-1.7,0.7-3.3,1.3-5
		c0,0,0,0,0-0.1c0,0,0-0.1,0-0.2l0.3-0.6c0.2-0.4,0.4-0.8,0.7-1.2l0.4-0.6c0,0,0,0,0.1-0.1l0.1-0.2l1-1.1c0.4-0.3,0.6-0.9,0.6-1.4
		c0.4-0.8,0.2-1.8-0.4-2.5C65.6,129.5,64.2,128.6,62.8,127.7z"/>
	<path style="stroke:#000000;stroke-width:3;stroke-linecap:round;stroke-linejoin:round;stroke-miterlimit:10;" d="M110,85.4
		c-0.3-1.1-1.5-1.8-2.6-1.5c-5,1.2-8.9,4.7-12,8.7c-1.6,2-3,4.2-4.4,6.3L89,102c-0.3,0.6-0.7,1.1-1.1,1.6l-0.5,0.7l-0.3,0.3h0
		c0,0,0,0,0,0.1c0-0.3,0-0.6-0.1-0.9c-0.5-3.9-1.5-7.8-2.9-11.6c-1.4-3.7-3.1-7.3-5.3-10.6c-0.5-0.7-1-1.5-1.4-2.2l-0.3-0.4
		c0-0.1,0-0.2-0.1-0.3c0-0.1,0-0.2,0-0.3l0.1-0.1c0.3-0.2,0.6-0.4,0.9-0.6c1.2-1.1,1.1-2.7,0.4-4.1c-0.7-1.3-1.6-2.1-2.4-3.1
		l-2.3-2.9c-1-1.2-2-2.4-3-3.6c0.8,0,1.5-0.4,1.8-1c0.5-0.9,0.3-1.9-0.3-2.6c0-0.1-0.1-0.2-0.2-0.2h0.2c0,0,0,0,0,0l1.2,0.6
		c1.5,0.7,3,1.6,4.3,2.5l0.5,0.4l0.4,0.3l0.8,0.7c0.6,0.6,1.3,1.2,1.9,1.8c0.9,0.8,2.3,0.6,3-0.3c0.7-0.8,0.7-2,0-2.8
		c-5.4-5.4-12.5-8.7-20-9.5c-0.8-0.1-1.6,0.6-1.9,1.3c-0.4,0.8-0.2,1.7,0.4,2.3l3.8,3.5c-0.4,0.4-0.8,0.8-1,1.3
		c-0.4,0.9-0.3,1.9,0.3,2.6c2.7,3.2,5.3,6.4,7.9,9.7l0.3,0.4l-0.3,0.3c-0.4,0.3-0.7,0.8-0.9,1.3c-0.8,1.8,0,3.8,0.9,5.4
		c1,1.6,2.1,3,3,4.6c0.9,1.6,1.7,3.2,2.4,4.9l0.1,0.3l0.3,0.6l0.5,1.3c0.3,0.9,0.6,1.8,0.9,2.7c0.6,1.8,1,3.6,1.3,5.4l0.3,1.5
		c0,0.3,0,0.6,0.1,0.8v0.2c0.1,0.8,0.1,1.6,0,2.4v0.2l-0.1,0.5c0,0.2-0.1,0.4-0.2,0.6c0,0,0,0.1,0,0.1v0v0c-0.1,0.3,0,0.1,0,0
		c-0.1,0.1-0.2,0.3-0.2,0.4l-0.1,0.2l0,0c0,0,0,0,0,0l0,0c0,0,0,0,0,0l0,0l0,0c-0.1,0.1-0.3,0.3-0.3,0.3l-0.2,0.1
		c-0.5,0.3-0.9,0.8-1,1.4c-0.5,0.7-0.5,1.5-0.1,2.3c0.6,0.9,1.9,1.4,2.9,0.8c4.4-2.8,7.5-7,10.3-11.3c1.3-2.1,2.6-4.1,4-6.1l0.6-0.8
		l0.1-0.2l0.2-0.3l1.2-1.4c0.8-0.9,1.6-1.7,2.5-2.5l0.7-0.6l0.1-0.1l0,0l0.3-0.3c0.5-0.4,1.1-0.7,1.6-1l0.9-0.5
		c0.1,0,0.3-0.1,0.3-0.2h0.2c0.6-0.3,1.3-0.5,1.9-0.6C109.6,87.8,110.3,86.6,110,85.4L110,85.4L110,85.4z M75,74.7
		c0-0.1,0.1-0.1,0.2-0.1L75,74.7z M82.1,109.1C82,109.1,82,109.1,82.1,109.1L82.1,109.1z"/>
	<path style="stroke:#000000;stroke-width:3;stroke-linecap:round;stroke-linejoin:round;stroke-miterlimit:10;" d="M318.5,61.5
		c-0.9-11.8-3-24.4-10.3-34.1c-1.8-2.5-4.1-4.8-6.6-6.7c-3.1-2.3-6.7-2.7-10.4-1.5c-3.6,1.2-6.4,2.8-9.6,4.2
		c-3.1,1.5-5.9,2.7-8.8,4.2c-11.7,5.7-23.1,12.2-33,20.8c-5,4.4-9.5,9.3-13.4,14.7c-4,5.4-7.5,11.2-11.7,16.5
		c-1,1.3-2.1,2.6-3.3,3.9c-1.1,1.3-2,2.4-3.3,3s-3.1,0.2-4.5-0.3c-1.4-0.5-3.3-1.3-5-2c-6.9-2.7-14-5-21.4-5.4
		c-13.8-0.8-26.6,5.4-40.2,6.2c-3.2,0.3-6.4,0-9.5-0.5h0c-11.2-10-21.6-20.8-33.4-30.3c-6.1-4.9-12.3-9.6-18.6-14.3
		c-6.2-4.7-12-9-18.3-12.9c-3.2-2-6.4-3.9-9.8-5.7c-3.3-1.8-7.6-3-11.3-1.8c-3,1-5,3.6-6.5,6.3c-0.8,1.5-1.5,3.1-2.1,4.7
		c-0.8,1.8-1.6,3.6-2.2,5.4c-4.9,14.7-5.1,30.4-2.3,45.5s8.2,29.4,14.3,43.5l2,4.5c0.1,2.4-0.4,4.8-0.4,7.2c0,2.4,0.6,5.5,2.5,7.7
		c3.5,3.9,6.5,8.2,8.5,13.1c4.1,9.6,4.5,20.3,3.2,30.6c-0.8,5.8-2.1,11.6-3.9,17.2c-0.8,2.7,3.3,3.8,4.1,1.2
		c5.3-16.8,7.4-35.7-0.1-52.1c-1.9-4.2-4.4-8.1-7.5-11.5c-0.6-0.7-1.4-1.4-1.8-2.2c-0.4-0.8-0.6-1.7-0.7-2.6
		c-0.1-2.1,0.3-4.2,0.4-6.2c0-1.1,0.2-2.3-0.1-3.3c-0.3-1-1.1-2.6-1.7-3.8c-1-2.4-2.1-4.8-3-7.1c-2.1-5-4-10-5.7-15.1
		c-6.8-19.8-10.5-41.4-4.6-62c0.7-2.4,1.5-4.8,2.5-7.1c1-2.1,1.8-4.3,3-6.3c1.2-2,2-2.9,3.6-3.3c1.6-0.4,4.8,0,6.9,1
		c4.6,2.1,9,5,13.2,7.8s8.7,6,12.9,9.1c4.2,3.2,8.3,6.3,12.4,9.5c4.1,3.2,8.8,6.7,13,10.3c8.1,6.9,15.6,14.4,23.5,21.6
		c1.9,1.8,3.8,3.5,5.7,5.2c0.6,0.5,1.2,0.7,2,0.6c13.5,2.3,26.4-3,39.6-5.1c6.7-1.1,13.6-0.7,20.2,1.1c3.5,1,6.9,2.1,10.3,3.5
		c3.3,1.2,6.8,3.3,10.4,2.8c3.6-0.5,5.9-3.5,8.1-6c2.2-2.5,4.3-5.4,6.3-8.3c3.9-5.5,7.4-11.2,11.8-16.3c8.2-9.7,18.7-17.1,29.8-23.2
		c5.7-3.2,11.4-6,17.3-8.8l8.8-4.1c1.5-0.7,3.1-1.4,4.7-1.6c1.6-0.2,3,0.3,4.3,1.2c2.3,1.7,4.2,3.7,5.8,6c1.7,2.3,3.1,4.8,4.2,7.5
		c2.3,5.3,3.6,11.1,4.4,16.8s1.2,12.5,1.4,18.8c0.3,7.6,0.3,15.2,0,22.8c-0.3,7.5-1.1,15-2.3,22.4c-1.2,6.7-2.7,13.7-6.4,19.5
		c-1.7,2.6-3.8,5-5.1,7.9c-0.7,1.6-1.1,3.3-1.2,5.1c-0.1,1.5,0,3-0.7,4.3c-0.3,0.3-0.5,0.7-0.9,1c-0.5,0.3-1,0.6-1.6,0.9
		c-1.1,0.5-2.3,0.9-3.5,1.3c-2.7,1-5.2,2.2-7.4,4.2c-4.2,3.8-6.6,9.3-7.7,14.8c-1.3,6.9-0.4,14,0.4,21c0.4,3.6,0.7,7.3,0.7,11
		c0,2.7,4.3,2.7,4.3,0c0.1-13-5.2-27.3,1.8-39.3c1.2-2.1,2.8-4,4.8-5.4c2.2-1.5,4.6-2.1,7.1-3.1c2.5-1,5.4-2.9,6.3-6
		c0.5-1.7,0.3-3.4,0.5-5.1c0.2-1.4,0.7-2.8,1.5-4c1.6-2.8,3.8-5.3,5.3-8.1c1.7-3.1,3-6.5,3.9-9.9c1.9-7.2,3-14.8,3.7-22.3
		C319.8,91.1,319.6,76.2,318.5,61.5z"/>
	<path style="stroke:#000000;stroke-width:3;stroke-linecap:round;stroke-linejoin:round;stroke-miterlimit:10;" d="M270.5,159.7
		c-1.4-3.9-2.8-7.8-4.7-11.4c-1.1-2.1-2.4-4.1-3.9-5.9c-0.7-0.9-2.3-0.8-3,0c-0.8,0.9-0.8,2.2,0,3c0.1,0,0.4,0.5,0.3,0.4
		c0.1,0.1,0.2,0.3,0.3,0.4l0.9,1.2c0.5,0.8,1,1.6,1.5,2.5c0.5,0.9,0.9,1.6,1.2,2.5c0.4,0.9,0.4,0.9,0.6,1.3c0.2,0.4,0.3,0.6,0.1,0.3
		l0.3,0.8c1.6,3.8,2.9,7.7,4.4,11.6l2.6,6.9c0.4,1.1,1.5,1.9,2.6,1.5s1.9-1.5,1.5-2.6L270.5,159.7z"/>
	<path style="stroke:#000000;stroke-width:3;stroke-linecap:round;stroke-linejoin:round;stroke-miterlimit:10;" d="M282,44.4
		l2.2-1.6c0.9-0.7,1.5-1.9,0.8-3c-0.6-1-1.9-1.3-2.9-0.8c-10.9,5.7-20,14.5-26,25.2c0.3-0.9,0.6-1.9,1-2.8c0.1-0.3,0.2-0.5,0.3-0.7
		c0-0.1,0-0.2,0.1-0.3c0.2-0.5,0.4-0.9,0.6-1.3c0.6-1.4,1.3-2.7,2-4l0.7-0.6c0.8-0.9,0.8-2.2,0-3l-0.4-0.3l-0.3-0.2
		c-1-0.6-2.3-0.3-2.9,0.7l0,0l-0.4,0.7c-4.5,4.2-8.7,8.9-12.3,14c-3.9,5.5-7.1,11.4-9.7,17.7c-1.2,2.8-2.1,5.7-3,8.6l-3-0.8
		c-1-0.3-2.4,0.3-2.6,1.5c-1.3,6,3.6,10.5,7.2,14.6l1.3,1.5c0.2,0.2,0.4,0.5,0.6,0.7l0.3,0.4l0.3,0.3l2.3,3.2c1.6,2.3,3,4.8,4.3,7.2
		c0.7,1.4,1.4,2.8,2,4.2l0.2,0.5l0.1,0.3c0,0,0,0,0,0l0.1,0.3l0.3,0.7c0.3,0.7,0.6,1.5,0.9,2.2c0.3,0.8,1.5,1.9,2.7,1.5
		s1.9-1.5,1.5-2.7c-0.2-0.5-0.4-1-0.6-1.5c1.3,0,2.7-0.3,3.9-0.8c1-0.5,1.9-1.1,2.8-1.7l1.4-0.9l0.1-0.1l0.2,0.1
		c1.6,0.5,3.1-1,2.9-2.6c-0.2-1.6-1.8-2.3-3.2-1.9c-1.5,0.3-2.7,1.1-3.9,1.8l-1.6,1c-0.3,0.2-0.5,0.3-0.8,0.4h-0.1l-0.4,0.2
		l-0.5,0.1h-1.1c-0.1-1.2-0.1-2.4,0-3.5l0.1-1.2c0-0.2,0-0.4,0-0.6c0,0,0,0.1,0,0.2s0-0.3,0-0.4c0.1-0.8,0.3-1.6,0.5-2.4
		c0.2-0.8,0.4-1.5,0.7-2.3l0.4-1.1c0.1-0.2,0.1-0.4,0.2-0.6c0.1-0.2,0-0.1,0.1-0.3c0.7-1.5,1.5-2.9,2.4-4.2c0.3-0.3,0.5-0.7,0.8-1.1
		l0.2-0.3l0.4-0.5c0.6-0.7,1.3-1.4,2-2.1c0.8-0.9,0.8-2.2,0-3c-0.9-0.8-2.2-0.8-3,0c-5,4.8-8.1,11.2-9,18.1c-0.8-1.4-1.5-2.7-2.4-4
		c-1.5-2.4-3.3-4.7-5.1-6.9c-1.7-2.1-3.6-3.9-5.3-6l-0.1-0.1l-0.3-0.4c-0.2-0.3-0.4-0.6-0.6-0.9l-0.5-0.9l-0.2-0.4l-0.2-0.4
		c0,0,0-0.1,0-0.1c-0.1-0.2-0.1-0.3-0.2-0.6l2.3,0.6c1.2,0.3,2.3-0.4,2.7-1.5c0.8-3.2,1.8-6.3,3-9.3c0.2-0.3,0.3-0.7,0.4-1l0.3-0.6
		l0.1-0.3c0.3-0.7,0.6-1.5,0.9-2.2c0.7-1.5,1.4-3,2.2-4.4c1.5-2.9,3.2-5.7,5.1-8.4l2.8-3.9h0l0.1-0.2l0.4-0.5l0.8-0.9l0.2-0.3
		c-1.2,3.7-2,7.5-2.5,11.3c-0.2,1.6,2,2.7,3.2,1.8c2.8-1.9,4.4-4.8,5.8-7.8c1.4-2.8,3-5.5,4.8-8c0.5-0.7,0.9-1.3,1.4-1.9l0.2-0.3
		l0.3-0.3l0.8-0.9c1-1.2,2-2.4,3.1-3.5s2.2-2.2,3.3-3.2l1.8-1.5l0.9-0.8l0.4-0.3l0.2-0.2h0c1.8-1.3,3.6-2.5,5.4-3.7
		C281.2,44.8,281.7,44.7,282,44.4z"/>
</g>
</svg>
