<?xml version="1.0" encoding="utf-8"?>
<!-- Generator: Adobe Illustrator 27.9.0, SVG Export Plug-In . SVG Version: 6.00 Build 0)  -->
<svg version="1.1" id="Layer_1" xmlns="http://www.w3.org/2000/svg" xmlns:xlink="http://www.w3.org/1999/xlink" x="0px" y="0px"
	 viewBox="0 0 316.1 176.4" style="enable-background:new 0 0 316.1 176.4;" xml:space="preserve">
<g>
	<path style="stroke:#000000;stroke-width:3;stroke-linecap:round;stroke-linejoin:round;stroke-miterlimit:10;" d="M304.6,66.1
		c-0.9-4.5-3.8-8.2-7.4-11c-3.6-2.8-8-4.9-12.3-6.8c-4.9-2.1-9.7-4-14.4-6.5c-9.9-5.2-19.1-11.8-27.1-19.6l-2.6-2.6
		c0-0.3,0-0.5,0-0.8c0-0.5-0.3-1-0.7-1.3c-6.3-2.8-13.9-5.9-20.8-3.4c-2.8,1-5.3,2.8-7.2,5.2c-1.7,2.3-2.9,4.9-3.8,7.6
		c-0.7,2-1.2,4.1-1.6,6.3c-6.1-2.8-12.5-5-19-6.7c-7.6-2-15.4-3-23.2-3.2c-4.5-0.1-8.9,0.2-13.4,0.8c-0.3,0-0.6,0.2-0.8,0.5
		c-6,0.7-12,1.6-17.9,2.8c-6.2,1.3-12.3,2.9-18.4,4.8c-1.4,0.4-2.7,0.9-4.1,1.3c-0.9-5-2.2-10.1-5.1-14.3c-1.6-2.4-3.8-4.3-6.5-5.6
		c-3.3-1.5-7-1.6-10.5-1c-4.1,0.7-7.9,2.3-11.6,4c-0.5,0.2-0.7,0.8-0.7,1.3c0,0.5,0,0.5,0,0.8c-7.6,7.9-16.3,14.7-25.9,20.1
		c-4.7,2.7-9.6,5.1-14.6,7.1c-4.3,1.8-8.7,3.6-12.7,6s-7.3,5.4-9.3,9.4c-1.1,2.3-1.7,4.7-1.7,7.3c0,2.7,0.6,5.3,1.6,7.7
		c2.1,5,5.8,9.3,10,12.6s9.1,6.2,13.5,9.5s8.1,6.8,10.7,11.4c2.7,4.6,4.4,10,5.7,15.3l1,3.9c0.4,1.3,2.6,1.5,2.9,0
		c1.1-6.6,2.4-13.1,3.7-19.6l8.8,5.8c-0.8,3-1.4,6-1.8,9c-0.6,4.1-0.9,8.3-0.9,12.5c0,4.1,0.6,8.3,2.5,11.9c1,1.8,2.2,3.3,3.2,5.1
		c0.2,0.4,0.5,0.8,0.7,1.2c0.1,0.1,0.1,0.2,0.1,0.3c-0.1-0.4,0.1,0.1,0.1,0.2c0.1,0.2,0.2,0.4,0.2,0.7l0.2,0.7v0.1
		c-0.3,0.1-0.6,0.3-0.8,0.6c-0.4,0.7-0.1,1.6,0.5,2c1.4,0.8,2.7-0.2,3.1-1.5c0.4-1.3,0-2-0.3-3c-0.6-1.8-1.7-3.4-2.8-5
		c-0.5-0.7-1-1.5-1.5-2.3l-0.6-1.2c-0.1-0.1-0.1-0.2-0.1-0.4c0,0-0.1-0.1-0.1-0.2l-0.3-0.7c-0.3-0.9-0.6-1.9-0.8-2.9
		c-0.1-0.4-0.1-0.9-0.2-1.4c0,0,0-0.1,0-0.1c0-0.1,0-0.2,0-0.3l-0.1-0.9c-0.3-4.1-0.1-8.3,0.4-12.4l0.2-1.5v-0.1
		c0-0.1,0.1-0.3,0.1-0.4c0.1-0.3,0.1-0.5,0.1-0.8c0.2-1.1,0.4-2.1,0.6-3.2c0.3-1.7,0.7-3.3,1.1-4.9c0.2-0.1,0.4-0.3,0.6-0.5
		c0.3-0.5,0.2-1,0-1.5c0.6-2,1.2-3.9,1.9-5.8c0.4-1.1,0.9-2.2,1.3-3.3c0-0.1,0.1-0.1,0.1-0.2l0.2-0.4c0.1-0.2,0.2-0.5,0.3-0.7
		l0.8-1.7c0.3-0.7,0.2-1.6-0.5-2c-0.7-0.4-1.7-0.2-2,0.5c-1.8,3.8-3.3,7.8-4.6,11.9l-8.4-5.6c-0.2-0.1-0.4-0.2-0.6-0.2
		c0,0,0-0.1,0-0.1c1.6-7.5,3.4-15,5.4-22.5c1.9-7.4,4-14.8,6.3-22.1c1.1-3.7,2.3-7.4,3.5-11.1c0.5-1.4,0.9-2.9,1.5-4.3
		c0.6-1.4,0.9-2.4,1.5-3.7c0.6-1.3,1.3-2.5,2-3.7c0.7-1.1,1.4-2.1,2.2-3c0.4-0.5,0.9-1,1.4-1.4l0.7-0.6l0.1-0.1l0.1-0.1l0.4-0.3
		c0.5-0.4,1-0.7,1.6-0.9c0.5-0.3,1-0.5,1.6-0.6l0.8-0.2l0.5-0.1l0.3-0.1c0.8-0.1,1.5-0.6,1.5-1.5s-0.7-1.6-1.5-1.5
		c-2.8,0.4-5.5,1.5-7.7,3.3c-2.2,1.8-3.8,4.1-5.2,6.5c-1.4,2.5-2.6,5.2-3.6,7.9c-1.2,3.4-2.3,6.9-3.4,10.4c-2.4,7.5-4.6,15-6.6,22.6
		c-2,7.5-3.9,15.2-5.6,22.9c-1.4,6.4-2.7,12.9-3.9,19.4c-0.9-3.3-2-6.6-3.4-9.7c-2.2-5-5.6-9.5-9.7-13.1
		C33.7,92,23.2,87.7,17.3,78.5c-2.7-4.3-4-9.1-2.5-14c0.3-0.9,0.7-1.8,1.2-2.7c0.5-0.9,1.1-1.7,1.7-2.4c0.7-0.8,1.5-1.6,2.3-2.3
		c0.8-0.7,1.6-1.3,2.5-1.9c3.8-2.5,8.1-4.4,12.1-6c5-2.1,10-4.3,14.7-6.9c9.9-5.5,19.1-12.3,27.1-20.4c0.4-0.5,0.9-0.9,1.3-1.4
		c0.4-0.4,0.6-0.9,0.6-1.4v-0.3c5.6-2.4,12-4.9,18-2.8c0.6,0.2,1.2,0.5,1.8,0.9l0.8,0.5l0.4,0.3l0.2,0.1h0.1c0.5,0.4,1,0.9,1.4,1.3
		c0.4,0.4,0.4,0.4,0.6,0.7l0.3,0.4h0l0.1,0.2c0.8,1,1.4,2.2,2,3.3c0.3,0.7,0.4,0.9,0.7,1.6c0.3,0.7,0.4,1.2,0.7,1.9
		c0.7,2.4,1.3,4.8,1.7,7.3l-3.3,1.2c-0.7,0.3-1.3,1-1,1.8c0.2,0.6,0.8,1.1,1.5,1c-6,3.5-11.2,8.1-15.3,13.6
		c-1.3,1.6-2.4,3.4-3.5,5.2c-0.5,0.9,0.1,2.3,1.3,2.2l1.5-0.1c-1.1,7-2.7,14-4.7,20.8c-0.6,2.1-1.3,4.2-2,6.3
		c-0.3,0.8,0.1,1.6,0.9,1.9c0.8,0.3,1.6-0.1,1.9-0.9c0-0.1,0.1-0.1,0.1-0.2c2.5-7.4,4.5-14.9,5.9-22.6c0.4-2.2,0.8-4.3,1.1-6.5
		c0.1-0.5,0.1-0.9-0.3-1.3c-0.3-0.4-0.7-0.6-1.2-0.6h-0.5c0.5-0.7,1-1.5,1.5-2.1l0.4-0.5c0,0,0,0,0-0.1h0l0.2-0.3l0.9-1.1l1.8-2
		c1.2-1.3,2.5-2.6,3.9-3.8l2.1-1.7h0.1l0.2-0.2l0.6-0.4l1.1-0.8c1.7-1.2,3.5-2.2,5.3-3.2c0.6-0.4,0.9-1,0.7-1.7
		c-0.1-0.4-0.3-0.7-0.5-1l0.5-0.2c0.3,0.1,0.6,0.1,0.9,0c0.4-0.1,0.7-0.3,0.8-0.6c4.1-1.4,8.3-2.7,12.6-3.8c6.1-1.6,12.3-3,18.5-4
		l2.6-0.4l1.2-0.2l0.7-0.1h0.1l0.3-0.1l5.3-0.6c0.4,0,0.9-0.2,1.2-0.6l0.4-0.1l1.5-0.1c1-0.1,2-0.2,2.9-0.2c1.9-0.1,3.8-0.2,5.7-0.2
		c3.8,0,7.7,0.2,11.5,0.7l0.7,0.1h0.1l0.4,0.1l1.4,0.2l2.9,0.5c1.8,0.3,3.7,0.7,5.5,1.2c3.6,0.9,7.2,1.9,10.7,3.2
		c1.9,0.7,3.8,1.4,5.7,2.2l0.7,0.3h0.1l0.4,0.1l1.4,0.6l0.2,0.1l-0.4,0.4c-0.9,0.9-1.9,2-2.3,3.2c-0.3,0.7,0.3,1.6,1,1.8
		c2.3,0.7,4.7,1.4,7,2.1l3.3,1.2l0.7,0.3l0.4,0.1h0.1l0.1,0.1l1.5,0.6c1.8,0.9,3.6,1.9,5.2,3l0.2,0.2l0.1,0.1l0.2,0.1l0.3,0.2l1,0.9
		c0.3,0.3,0.6,0.6,0.9,1l0.4,0.4l0.2,0.3h0c0,0,0,0,0,0.1c0.6,0.8,1.1,1.6,1.5,2.5l0.1,0.2c-0.1-0.2,0.1,0.1,0.1,0.1l0.1,0.3h-1.7
		l-4.9-0.1c-0.6,0-1.1,0-1.7-0.1c-0.5,0-0.9,0.2-1.2,0.6c-0.3,0.4-0.4,0.9-0.3,1.3c0.7,4.1,2.6,8.1,4.7,11.7s4.6,7.5,6.8,11.3
		c0.6,1,1.2,2.1,1.7,3.1c0.3,0.5,0.5,1.1,0.8,1.6l0.4,0.8c0,0,0,0,0,0.1s0,0,0,0.1l0.2,0.4c0.3,0.7,1,1.3,1.8,1
		c0.8-0.3,1.4-1.1,1-1.8c-3.2-8.1-9-14.8-12.6-22.7c-0.1-0.1-0.1-0.2-0.1-0.4c-0.1-0.1-0.1-0.2-0.1-0.3c-0.1-0.2-0.2-0.5-0.3-0.7
		c-0.1-0.3-0.4-1-0.6-1.5c-0.2-0.5-0.3-0.9-0.4-1.4h6.7l1.7,0.1c1,0.1,1.6-1,1.4-1.9c-0.8-3.8-3.1-7-6.1-9.3
		c-3.5-2.8-7.6-4.6-11.8-6c-2-0.7-4-1.3-6.1-1.9l0.5-0.6l0.2-0.2c0.1,0.1,0.3,0.2,0.5,0.3c0.7,0.2,1.7-0.2,1.8-1l0.1-0.7
		c0.2-0.2,0.4-0.4,0.4-0.7c0.1-0.4,0-0.7-0.1-1c0.4-1.9,0.8-3.7,1.3-5.6c0.7-2.6,1.6-4.8,3.1-7.1c0.1-0.3,0.3-0.5,0.5-0.8l0.2-0.2
		c0,0,0.1-0.1,0.1-0.1l0.2-0.2c0.4-0.5,0.8-0.9,1.3-1.4l0.7-0.7l0.1-0.1l0.1-0.1l0.4-0.3c0.5-0.4,1.1-0.7,1.7-0.9
		c2.8-1.3,6-1.4,8.9-0.9c3.5,0.6,6.8,1.9,10,3.3c0,0.1,0,0.2,0,0.3c0,0.5,0.2,1,0.6,1.4l1.5,1.5c1,1,2,2,3,3c2.1,2,4.3,3.8,6.5,5.6
		c4.5,3.6,9.2,6.9,14.2,9.9c4.9,2.9,10,5.4,15.3,7.6c2.2,0.9,4.1,1.7,6.2,2.6c2.1,0.9,4.2,2,6.3,3.1c1,0.6,1.9,1.2,2.9,1.8l0.6,0.4
		l0.3,0.2l0.1,0.1c2.1,1.7,3.8,3.7,5.1,6c0.1,0.2,0.2,0.4,0.3,0.7c0,0.1,0.1,0.2,0.1,0.3l0.1,0.3c0.2,0.5,0.4,1.1,0.5,1.7
		c0.3,1.2,0.5,2.4,0.4,3.6c-0.1,2.4-0.7,4.8-1.7,7c-1.2,2.4-2.6,4.6-4.4,6.5c-0.9,1-1.9,2-2.9,2.9c-1,0.9-2,1.7-3,2.6
		c-4.1,3.6-7.2,8.1-10.2,12.6c-1.5,2.2-3,4.5-4.6,6.6c-1.6,2-3.3,3.9-5.1,5.7c-3.1,3.2-6.3,6.3-8.4,10.2c-0.9-6.2-1.6-12.4-2.3-18.6
		c-0.8-7.7-1.6-15.5-2.7-23.1c-1-7.6-2.5-15.1-4.5-22.6c-0.5-1.9-1.1-3.8-1.7-5.7c-0.6-1.9-1-3.2-1.8-4.7c-1.4-2.5-3.4-4.7-5.6-6.5
		c-4.7-3.8-10.5-6.8-16.4-8c-0.7-0.1-1.5-0.3-2.2-0.4c-0.7-0.1-1.5,0.8-1.5,1.5c0,0.7,0.7,1.4,1.5,1.5h0.2l0.4,0.1l0.9,0.2
		c0.7,0.1,1.4,0.3,2,0.5c1.4,0.4,2.7,0.9,4.1,1.4h0.1l0.2,0.1l0.5,0.2l1.1,0.5c0.7,0.3,1.4,0.7,2,1.1c1.3,0.7,2.6,1.5,3.8,2.4
		c0.6,0.4,1.1,0.8,1.6,1.3c0.5,0.5,1.1,0.9,1.6,1.5c0.5,0.5,0.9,1,1.4,1.5l0.3,0.4c0.1,0.1,0.1,0.2,0.2,0.3c0.2,0.3,0.4,0.6,0.6,0.9
		c0.4,0.5,0.7,1.1,0.9,1.7c0,0.1,0.1,0.2,0.1,0.3c0,0.1,0.1,0.2,0.1,0.3c0.1,0.4,0.3,0.8,0.4,1.2c0.6,1.9,1.2,3.8,1.7,5.7
		c2.1,7.3,3.5,14.8,4.6,22.3c1.1,7.5,1.8,14.8,2.6,22.3c0.2,1.5,0.3,3.1,0.5,4.6c-0.1-0.2-0.3-0.4-0.5-0.4c-1.1-0.5-2.2-0.8-3.3-0.8
		c-1.1,0-2.1,0.2-3,0.7c-1.7,0.8-3,2.3-4.1,3.9c-0.9-2.8-2-5.7-3.2-8.4l-0.8-1.7c-0.3-0.7-1.4-0.9-2-0.5c-0.7,0.4-0.9,1.3-0.5,2
		c0.3,0.6,0.5,1.2,0.8,1.7s0.3,0.6,0.4,0.9c0.1,0.1,0.1,0.2,0.1,0.4c0,0,0,0,0,0c0,0.1,0.1,0.2,0.1,0.3c0.5,1.2,0.9,2.3,1.4,3.6
		c0.7,1.8,1.2,3.6,1.7,5.4h0c-0.3,0.7-0.2,1.6,0.5,2h0.1c0.6,2.4,1.1,4.8,1.5,7.2c0.1,0.6,0.2,1.2,0.3,1.9v0.3c0,0,0,0,0,0.1v0.1
		c0,0.1,0,0.2,0,0.3s0.1,0.6,0.1,0.9c0.1,1.2,0.3,2.5,0.4,3.8c0.1,2.5,0.2,5,0.1,7.5c0,0.6-0.1,1.2-0.1,1.8s-0.1,0.6-0.1,0.9v0.1
		l-0.1,0.5c-0.2,1.2-0.5,2.4-0.9,3.5l-0.3,0.8c0,0,0,0,0,0.1c0,0,0,0,0,0.1c-0.1,0.1-0.1,0.3-0.2,0.5c-0.3,0.5-0.5,1-0.8,1.5
		c-0.6,0.9-1.2,1.9-1.8,2.8c-0.6,0.9-1.2,1.8-1.7,2.8c-0.3,0.6-0.5,1.2-0.7,1.7c-0.2,0.5-0.3,1-0.3,1.6c0,0.7,0.3,1.3,0.6,1.8
		c0.3,0.6,0.7,1.2,1,1.7c0.4,0.7,0.9,1.3,1.4,1.9c0.3,0.4,0.7,0.8,1.2,1.1c0.5,0.3,1.2,0.3,1.7,0c0.7-0.4,0.9-1.3,0.5-2
		c-0.2-0.3-0.5-0.5-0.9-0.7l-0.3-0.3l-0.2-0.3h0l-0.1-0.1l-0.6-0.9c-0.4-0.6-0.7-1.2-1-1.7c-0.1-0.2-0.2-0.4-0.3-0.6v-0.1
		c0.1-0.3,0.1-0.5,0.2-0.8l0.3-0.7c0-0.1,0-0.1,0.1-0.1l0.2-0.4c0.5-0.9,1-1.9,1.7-2.8c0.6-0.9,1.2-1.8,1.8-2.7
		c0.6-1.1,1.1-2.2,1.5-3.4c0.8-2.3,1.1-4.7,1.3-7.2c0.1-2.4,0.1-4.9-0.1-7.3c-0.3-5.1-1.1-10.1-2.3-15l-0.5-2
		c0.3-0.5,0.6-1.1,0.9-1.6s0.5-0.8,0.8-1.2l0.2-0.3l0.1-0.1l0.4-0.5c0.3-0.3,0.6-0.6,0.9-0.9c0.1-0.1,0.1-0.1,0.2-0.1l0,0l0,0l0,0
		h0.1l0.5-0.3l0.5-0.2l0.3-0.1l0.5-0.1h1l0.3,0.1h0.1l0.7,0.2l0.4,0.1c0.1,0.1,0.6,0.2,0.2,0.1c0.4,0.2,0.7,0.3,1.1,0.2
		c0.4-0.1,0.7-0.4,0.9-0.7c0.1-0.1,0.1-0.2,0.1-0.3c0.7,5.9,1.4,11.8,2.3,17.6c0.1,1,0.3,2,0.5,3c0.2,1.5,2.5,1.3,2.8,0
		c1.2-4.8,4.1-8.4,7.6-12c1.8-1.8,3.6-3.6,5.2-5.6c1.8-2.1,3.5-4.3,5-6.5c3-4.4,5.9-8.9,9.5-12.8c1.8-1.9,4-3.5,5.9-5.3
		c2-1.9,3.9-4,5.4-6.3C304,76.9,305.7,71.5,304.6,66.1z M73.6,157.1c0-0.1,0-0.1,0-0.1C73.7,157,73.6,157,73.6,157.1z"/>
</g>
</svg>
