<?xml version="1.0" encoding="utf-8"?>
<!-- Generator: Adobe Illustrator 27.9.0, SVG Export Plug-In . SVG Version: 6.00 Build 0)  -->
<svg version="1.1" id="Layer_1" xmlns="http://www.w3.org/2000/svg" xmlns:xlink="http://www.w3.org/1999/xlink" x="0px" y="0px"
	 viewBox="0 0 275.9 184.4" style="enable-background:new 0 0 275.9 184.4;" xml:space="preserve">
<g>
	<path style="stroke:#000000;stroke-width:3;stroke-linecap:round;stroke-linejoin:round;stroke-miterlimit:10;" d="M261,25.5
		c-0.6-1.6-1.6-2.9-2.8-4c-2.5-2.3-5.9-3.4-9.3-3.5c-8.1-0.3-14.6,5.9-19.8,11.3c-5.9,6.2-11.2,12.9-16,20
		c-2.4,3.5-4.6,7.2-6.7,10.9c-2,3.8-3.8,7.5-5.8,11.1c-0.9,1.7-2.1,3.4-3.4,4.9c-1.4,1.6-3.1,2.8-4.4,4.4c-1.4,1.6-2.3,3.5-3.2,5.4
		c-0.9,1.7-1.9,3.4-3.1,5c-1,1.4-2.2,2.7-3.6,3.7c-0.2,0.1-0.3,0.2-0.4,0.4c-0.7,0-1.5,0.1-2.2,0.2c-2.4,0.5-4.6,1.9-6,3.9
		c-1.3-0.3-2.6-0.5-3.9-0.6c-5-0.3-9.6,1.8-13.8,4.3l-0.4,0.2c-0.3-0.2-0.6-0.5-0.9-0.7c-1.2-0.7-2.5-1.1-3.8-1.2
		c-2.9-0.2-5.7,1.2-8.2,2.5c-2.5-1.5-5.4-2.3-8.3-2.4c-1,0-2,0.1-3,0.2l-1,0.1l-0.4,0.1h-0.1c-0.5,0.1-1.1,0.2-1.6,0.2
		c-0.5,0.1-1.1,0.1-1.6,0.1H126c-0.8-0.2-1.6-0.4-2.4-0.7l-0.3-0.1l-0.6-0.2l-1.3-0.6l-2.6-1.2c-1.7-0.7-3.5-1-5.4-0.8l-0.6,0.1
		c-0.1-0.1-0.2-0.3-0.3-0.4c-2.1-1.9-4.3-3.9-7.1-4.6c-0.5-0.1-1-0.2-1.6-0.2c-3.3-1.6-6.2-4.1-8.7-6.8c-1.3-1.5-2.6-3-3.8-4.6
		s-2.1-3.4-3.5-4.8c-0.6-0.7-1.2-1.6-1.6-2.4l-1.7-2.9c-1.1-1.9-2.3-3.7-3.5-5.5c-2.5-3.8-5.2-7.4-8.2-10.8c-3-3.4-6.2-6.5-9.2-9.8
		c-3.1-3.3-5.2-6.4-7.4-10c-0.5-0.9-1.1-1.9-1.7-2.7c-0.5-0.7-1.2-1.4-1.7-2.2c-1.1-1.6-2.3-3.1-3.7-4.5c-4.1-4-9.1-6.7-14.6-8.1
		c-1.9-0.5-3.8-0.9-5.7-0.4c-1.9,0.5-3.6,1.7-4.7,3.4c-0.5,0.9-0.9,1.8-1.3,2.7c-0.4,1-0.9,2-1.3,3c-3,8-4.2,16.5-4.6,24.9
		c-0.2,4.2-0.2,8.5-0.1,12.7s0.2,8.7,1.1,13c0.9,4.3,2.6,8.4,4.3,12.5c0.9,2,1.4,4.3,1.9,6.5c0.5,2.2,0.7,4.5,0.9,6.8
		c0.4,4.6,0.5,9.5,1.7,14c1,3.9,2.5,7.7,4.3,11.3c1.9,3.6,4.1,7,6.6,10.2c1.3,1.6,2.6,3.1,3.8,4.8c1.2,1.7,2.3,3.5,3.4,5.3
		c0.9,1.8,1.8,3.6,2.5,5.5c0.1,0.2,0.2,0.5,0.4,0.7v0.1c0.1,1.3,0.2,2.7,0,4c0,0.1,0,0.2,0,0.2l-0.1,0.5l-0.3,1.1l-0.2,0.5l-0.1,0.2
		c0,0.1-0.1,0.2-0.1,0.2l-0.2,0.4c-0.1,0.2-0.2,0.3-0.2,0.5c-0.4,0.7-0.7,1.5-0.8,2.3c-0.2,0.8-0.4,1.6-0.5,2.4s0.2,1.7,1.1,1.9
		s1.7-0.2,1.9-1s0.3-1.4,0.5-2.1c0.2-0.7,0.2-0.6,0.2-0.9c0.1-0.2,0.1-0.3,0.1-0.4l0.1-0.2c0,0,0.1-0.2,0.1-0.2c0,0,0.1-0.1,0.1-0.1
		l0.1-0.2l0.3-0.5c0.2-0.4,0.4-0.8,0.5-1.2c0.2-0.6,0.4-1.3,0.5-1.9c0.3-1.4,0.4-2.8,0.3-4.2c0-0.3,0-0.6-0.1-0.9c0-0.2,0-0.3,0-0.5
		c0-0.2,0-0.4-0.1-0.6c0,0,0,0,0,0c0,0,0-0.1,0-0.1c0-0.1,0.1-0.3,0.2-0.5l0.3-0.9c0.1-0.3,0.2-0.5,0.3-0.8c0.1-0.3,0.1-0.3,0.2-0.4
		c0,0,0-0.1,0-0.1l0,0c0-0.1,0.1-0.2,0.1-0.2c0.2-0.5,0.5-1.1,0.8-1.6c0.5-1.1,1.2-2.2,1.9-3.3l1.1-1.6c0.1-0.1,0.2-0.2,0.2-0.4h0
		c0,0,0.1-0.1,0.1-0.1c0.2-0.3,0.4-0.5,0.6-0.8c0.8-1,1.6-1.9,2.5-2.8c2-2,4.1-4,6.3-5.7c0.6-0.5,0.6-1.6,0-2.2
		c-0.6-0.5-1.5-0.5-2.2,0c-4,3.3-7.8,7-10.8,11.2c-1.4,1.9-2.5,4-3.4,6.2c-0.6-1.3-1.3-2.6-2-3.9c0.6-0.6,0.7-1.7,0.8-2.6
		c0.1-0.8,0.1-0.9,0.2-1.4c0-0.1,0-0.1,0-0.2c0-0.1,0-0.1,0-0.2l0.1-0.4l-0.1,0.1l0.1-0.1h0v0c0,0,0,0,0,0l0.2-0.2
		c0.2-0.3,0.4-0.6,0.6-0.9c0.4-0.7,0.7-1.4,1-2.2l0.4-0.9l0.2-0.5c0.1-0.1,0.1-0.1,0.1-0.2V137c0,0,0,0,0-0.1
		c0.3-0.6,0.6-1.2,0.9-1.8c0.3-0.6,0.7-1.2,1.1-1.7l0.5-0.8l0.2-0.2c0.1-0.2,0.2-0.3,0.4-0.5c0.9-1,1.8-2,2.8-2.9l0.7-0.6l0.4-0.3
		l0.2-0.2h0.1l1.6-1.2c1.3-0.9,2.6-1.7,4-2.4c1.5-0.8,3.1-1.6,4.6-2.2l1.2-0.5l0.3-0.1l0.2-0.1l0.6-0.2l2.5-1c0.7-0.3,1.3-1,1.1-1.9
		c-0.3-0.9-1.1-1.4-1.9-1.1c-5.8,2.4-11.7,4.8-16.6,8.8c-2.2,1.8-4.2,3.9-5.8,6.2c-0.8,1.2-1.5,2.5-2,3.9l-0.8,2c0,0,0,0.1,0,0.1
		l-0.1,0.1c-0.1,0.2-0.2,0.4-0.2,0.5c-0.2,0.3-0.3,0.6-0.5,0.9l-0.3,0.4c-0.1,0.1-0.1,0.2-0.2,0.3l-0.1,0.1
		c-0.2,0.2-0.2,0.5-0.3,0.8c-0.2,0.6-0.2,1.2-0.3,1.8v0.2l-0.4-0.5c-2.4-3.4-5.2-6.4-7.4-9.8c-2.1-3.2-3.9-6.7-5.4-10.2
		c-0.7-1.8-1.3-3.7-1.9-5.6c-0.5-2.2-0.9-4.4-1.1-6.6c-0.5-4.6-0.5-9.2-1.4-13.8c-0.2-1.2-0.5-2.3-0.8-3.5c-0.2-1.1-0.5-2.2-0.9-3.2
		c-0.8-2-1.7-3.9-2.4-5.9c-1.5-4-2.7-8.1-3-12.4c-0.3-4.3-0.3-8.3-0.3-12.5c0-8.3,0.5-16.6,2.6-24.7c1-3.9,2.2-7.8,4.1-11.4
		c0.7-1.4,2-2.3,3.6-2.5c1.5-0.2,3.3,0.3,4.8,0.8c5.2,1.4,9.8,4.2,13.3,8.3c1.3,1.4,2.1,3.2,3.4,4.6c0.6,0.7,1.1,1.4,1.5,2.2
		l1.6,2.7c1.1,1.8,2.3,3.4,3.5,5.1c2.7,3.4,5.9,6.4,8.9,9.6c3.1,3.2,5.9,6.5,8.5,10.1c2.5,3.4,4.8,7.1,7,10.7l1.7,2.9
		c0.5,0.8,1.2,1.4,1.7,2.1c1.2,1.5,2.2,3.2,3.3,4.7c2.5,3.2,5.2,6.2,8.4,8.7l1.3,1c-1,0.4-2,1-2.9,1.5c-2.7,1.6-5.3,3.4-7.7,5.4
		c-1.2,0.9-2.3,1.9-3.4,2.8l-0.2,0.1H85l-0.4,0.3l-0.9,0.6c-0.6,0.4-1.3,0.8-1.9,1.2l-1.1,0.6l-0.5,0.2l-0.1,0.1l-0.2,0.1
		c-0.7,0.3-1.5,0.5-2.3,0.7l-0.5,0.1c0.1-0.5,0.2-0.9,0.3-1.4c0.1-0.2,0.2-0.5,0.2-0.7h0v-0.1l0.2-0.4c0.2-0.5,0.5-0.9,0.8-1.3
		c0.1-0.1,0.2-0.2,0.2-0.3H79c0.2-0.2,0.3-0.4,0.5-0.6c0.2-0.2,0.3-0.3,0.5-0.5l0.3-0.2c0,0,0.1-0.1,0.1-0.1l0.1-0.1l0.2-0.2
		l0.3-0.2l0.7-0.5c0.5-0.3,1-0.7,1.4-1.2c0.9-1.1,1.2-2.3,1.3-3.7c0.1-1.2,0.2-2.3,0.2-3.4c-0.1-2.4-0.4-4.9-0.9-7.2
		c-1.1-4.6-3.3-8.9-6.2-12.7c-2.9-3.8-6.4-7.4-9.6-11.1l-2.3-2.9l-0.3-0.4c0-0.1-0.1-0.2-0.1-0.2l-0.5-0.7l-1.1-1.5
		c-1.5-2-2.9-4-4.2-6.1l-1-1.6c-0.4-0.7-1.4-1-2.1-0.5c-0.7,0.4-1,1.4-0.5,2.1c2.7,4.2,5.6,8.2,8.8,12.1c1.5,1.9,3.1,3.8,4.7,5.6
		c1.6,1.8,3.1,3.5,4.7,5.3l1.1,1.4l0.2,0.2c0.1,0.1,0.2,0.2,0.2,0.3c0.2,0.2,0.3,0.5,0.5,0.7c0.7,0.9,1.3,1.9,1.9,3
		c0.6,1,1.1,2,1.6,3.1c0,0,0,0.1,0,0.1s0,0,0,0c0,0.1,0.1,0.2,0.2,0.4c0.1,0.3,0.2,0.6,0.3,0.9c0.1,0.3,0.4,1.1,0.5,1.6
		c0.3,1.1,0.6,2.2,0.8,3.4c0.1,0.3,0.1,0.5,0.2,0.8c0,0.1,0,0.3,0.1,0.4c0,0.1,0,0.1,0,0.2c0.1,0.6,0.1,1.1,0.2,1.7
		c0.1,1.2,0.1,2.3,0.1,3.5c0,0.5-0.1,1.1-0.1,1.7v0.1c0,0.1-0.1,0.2-0.1,0.4c0,0.1-0.1,0.3-0.1,0.4c0,0.1,0,0.1-0.1,0.2
		c0,0,0,0.1,0,0.1c0,0.1-0.1,0.2-0.1,0.2S81,98,80.9,98c0,0,0,0.1-0.1,0.1l-0.2,0.2l-0.1,0.1l-0.1,0.1l-0.2,0.2L80,98.8l-0.7,0.5
		c-0.9,0.6-1.7,1.4-2.4,2.3c-1.4,1.7-2.3,3.8-2.7,5.9c0,0.2,0,0.3-0.1,0.5l-0.6-0.2c-0.8-0.2-1.7,0.3-1.9,1.1
		c-0.2,0.8,0.3,1.6,1.1,1.9c3.1,0.8,6.2,0.2,9-1c2.8-1.3,5.1-3.1,7.4-5l1.7-1.4l0.8-0.6l0.4-0.3l0.1-0.1l0.2-0.2
		c1.2-0.9,2.4-1.8,3.7-2.6c1.3-0.8,2.5-1.6,3.9-2.2l0.5-0.2l0.3-0.2c0.3-0.2,0.7-0.2,1-0.4l0.9-0.2h1.5l0.2,0.1
		c0.4,0.1,0.7,0.2,1,0.3l0.2,0.1L106,97l1,0.5l0.9,0.6l0.2,0.2h0l0.5,0.4l1,0.9c-2,1.1-3.8,2.6-5.6,4.2l-1.1,1
		c-0.2,0.2-0.4,0.3-0.6,0.5l-0.2,0.2l-0.2,0.2c-0.8,0.6-1.7,1.2-2.7,1.7l-0.7,0.3h0l-0.5,0.2c-0.5,0.2-0.9,0.3-1.4,0.4h-0.4
		c-0.2,0-0.5,0-0.7,0H95l-0.8-0.2c-0.8-0.2-1.6,0.3-1.9,1.1c-0.2,0.8,0.3,1.6,1.1,1.9c4,1.2,7.9-1,11-3.4c1.3-1.1,2.6-2.3,4-3.4
		l0.2-0.1c0,0,0,0,0.1-0.1l0,0l0,0h0l0.5-0.4l1.1-0.7l1.1-0.6l0.5-0.2h0l0.4-0.2l1.2-0.3h0.4c0.2,0,0.2,0-0.1,0
		c-0.2,0,0.6-0.1,0.7-0.1h0.9c0.1-0.1,0.5,0.1,0.6,0.1l0.7,0.2c0.4,0.1,0.8,0.2,1.1,0.4l0.5,0.2h0.1l0.3,0.2l2.3,1.1
		c1.8,0.8,3.5,1.4,5.5,1.6c-2.5,0.2-5.1,0.7-7.4,1.5c-3.4,1.2-6.7,2.7-9.8,4.6c-3,1.8-5.9,3.9-9,5.6c-0.8,0.5-1.7,0.9-2.6,1.2
		l-0.1,0.1l-0.4,0.2l-0.6,0.2c-0.5,0.1-0.9,0.2-1.4,0.3l-0.7,0.1l-0.5,0c-0.5,0-0.9,0-1.4,0l-0.6-0.1h-0.1l-0.5-0.1
		c-0.5-0.1-0.9-0.3-1.3-0.5c-0.8-0.3-1.7,0.3-1.9,1c-0.2,0.8,0.2,1.6,1,1.9c3.5,1.5,7.5,0.9,10.8-0.6c3.4-1.5,6-3.6,9-5.4
		c2.9-1.9,6-3.5,9.3-4.8l0.3-0.1h0l0.6-0.2l1.3-0.5c0.8-0.2,1.6-0.5,2.4-0.6c0.8-0.2,1.6-0.3,2.5-0.4l0.6-0.1h0.4l1.3-0.2
		c0.9,0,1.9,0,2.8,0.1l1.3,0.2l0.4,0.1h0.1l0.6,0.2c0.9,0.2,1.8,0.5,2.7,0.8l0.6,0.2l0.3,0.1l0.3,0.1c0.4,0.2,0.8,0.4,1.2,0.6
		c0.2,0.1,0.5,0.2,0.8,0.1c-1.5,0.7-3,1.7-4.3,2.9l-2,1.8l-0.4,0.4l-0.2,0.2c-0.4,0.3-0.7,0.5-1.1,0.8l-1.2,0.6l-0.3,0.1l-0.6,0.2
		l-0.5,0.1h-0.1c-0.1,0-0.1,0-0.1,0h-0.1c-0.4,0-0.8,0-1.2,0h-0.2l-0.5-0.1l-0.3-0.2c0,0,0,0-0.1,0h-0.1l-0.2-0.2l-0.4-0.2l-0.2-0.2
		l-0.2-0.2c0,0,0,0,0,0l-0.3-0.5c-0.4-0.7-1.4-1-2.1-0.5c-0.7,0.5-0.9,1.4-0.5,2.1c1.5,2.9,5.2,3.6,8.1,2.8c1.7-0.5,3.2-1.5,4.5-2.6
		c0.7-0.5,1.3-1.1,1.9-1.6l0.9-0.9l0.5-0.4l0.2-0.2l0.1-0.1h0c0.7-0.5,1.4-0.9,2.2-1.3l0.2-0.1h0.1l0.6-0.2l0.6-0.2h0.2l0.3-0.1h1.2
		l0.7,0.2c0,0,0,0,0,0c0.1,0,0.2,0,0.2,0.1l0.4,0.2l0.1,0.1l0.1,0.1c0.2,0.1,0.3,0.2,0.4,0.4c0.1,0.1,0.1,0.1,0.1,0.1
		c0,0.1,0.2,0.4,0.3,0.4c0.1,0.1,0.2,0.2,0.2,0.4l0.2,0.4c0,0,0,0.1,0,0.1l0.1,0.3l0.2,0.5c0.1,0.3,0.2,0.7,0.2,1l0.1,0.5
		c0,0.1,0,0.2,0,0.2c0,0.4,0.1,0.7,0.1,1.1c0.1,0.9,0.1,1.8,0.1,2.7c0,1.1,0,2.3-0.1,3.4c-0.1,0.5-0.1,1.1-0.2,1.6l-0.1,0.9
		c0,0.1,0,0.2,0,0.2c0-0.1,0,0.3-0.1,0.3c-0.3,2.2-0.8,4.4-1.4,6.5c-0.1,0.8,0.4,1.6,1.3,1.7c0.7,0.1,1.4-0.3,1.7-0.9
		c1.1-3.9,1.8-8,1.9-12.1c0.1-3.3,0.2-7.1-1.5-10.1c-0.8-1.5-2.2-2.7-3.8-3.2c-1.5-0.5-3.1-0.3-4.6,0.2c0.1-0.1,0.1-0.1,0.1-0.2
		c0.5-0.7,0.2-1.6-0.5-2.1l0,0c-3.2-1.8-6.8-2.7-10.5-2.7c0.2,0,0.4,0,0.6-0.1l1.7-0.2h0.1l0.4-0.1l0.9-0.1c1.1-0.1,2.1-0.2,3.2-0.1
		h0.5l0.7,0.1l1.5,0.3l1.4,0.5c0,0,0.1,0,0.1,0.1l0.4,0.2l0.7,0.3l1.3,0.8l0.2,0.2l0.3,0.2l0.5,0.4c0.6,0.6,1.6,0.6,2.2,0
		c0.4-0.5,0.5-1.2,0.3-1.8c0.1,0,0.2-0.1,0.2-0.1l0.9-0.4l0.2-0.1l0.4-0.2c0.6-0.2,1.2-0.4,1.9-0.6c0.2-0.1,0.5-0.1,0.7-0.2
		c0,0,0,0,0.1,0h1.7l0.5,0.1l0.4,0.1l0.2,0.1l0.6,0.4c0.1,0.1,0.2,0.1,0.3,0.2l0.1,0.1l0.3,0.3l0.1,0.3c0.2,0.3,0.4,0.5,0.7,0.6
		l0.2,0.2l0.1,0.2c0.7,0.8,1.3,1.8,1.9,2.7c0.7,0.9,1.5,1.8,2.4,2.7c1.8,1.6,3.8,2.9,6.1,3.8c2.4,0.9,5.1,1.3,7.7,1.2
		c0.8-0.1,1.6-0.7,1.5-1.5c0-0.9-0.7-1.6-1.5-1.5h-1.7l-0.8-0.1h-0.6c-1.1-0.2-2.2-0.4-3.2-0.8l-0.8-0.3h-0.1l-0.4-0.2
		c-0.5-0.2-1-0.5-1.5-0.8c-0.5-0.3-0.9-0.6-1.4-0.9H163l-0.1-0.1l-0.3-0.2l-0.7-0.6c-0.4-0.4-0.8-0.8-1.2-1.2
		c-0.2-0.2-0.4-0.4-0.5-0.6l-0.1-0.1h0l-0.3-0.4c-0.5-0.8-1.1-1.5-1.6-2.3c1.4-0.9,2.9-1.6,4.4-2.3l0.3-0.1l0.3-0.1l0.8-0.3
		c0.5-0.2,1.1-0.4,1.6-0.5c0.5-0.2,1.1-0.3,1.7-0.4h0.5l0.9-0.1h1.7l0.8,0.1h0.2l0.5,0.1c1.1,0.2,2.3,0.5,3.4,0.9l0.8,0.3l0.4,0.2h0
		l0.2,0.1c0.5,0.2,1.1,0.5,1.6,0.8c1,0.5,2,1.1,3,1.8l1.5,1l0.7,0.5l0.1,0.1l0.4,0.3c0.9,0.7,1.8,1.5,2.7,2.3
		c1.8,1.5,3.5,3.1,5.2,4.7c3.5,3.2,7.1,6.3,11,9.1c1.9,1.4,3.8,2.7,5.8,3.9c0.9,0.6,1.9,1.1,2.8,1.6c0.4,0.2,0.8,0.5,1.2,0.7
		l0.1,0.1l0.2,0.2l0.2,0.2c0,0.1,0.1,0.2,0.2,0.2l0.1,0.1l0.2,0.3c0,0,0,0,0,0.1l0.1,0.3c0.2,0.8,1.1,1.3,1.9,1.1
		c0.8-0.2,1.3-1.1,1.1-1.9c-0.5-2.2-2.6-3.5-4.5-4.5c-2.1-1.2-4.1-2.4-6.1-3.8l-2.8-2.1l-0.2-0.2l-0.3-0.2l-0.8-0.6l-1.4-1.1
		c-1.9-1.5-3.7-3.1-5.5-4.7c-3.7-3.2-7.2-6.7-11.2-9.6c-2-1.5-4.3-2.8-6.6-3.8l0.2-0.2l0.5-0.5h0.1l0.3-0.2l0.6-0.4
		c0.2-0.2,0.4-0.3,0.7-0.3l0.3-0.1l0.7-0.2l0.7-0.2h0.4c0.5,0,1,0,1.5,0h0.3l0.7,0.2l0.7,0.2h0l0.4,0.2l0.7,0.4l0.3,0.2h0l0.2,0.2
		c0.5,0.4,0.9,0.9,1.4,1.3c0.9,1,1.8,2,2.7,3.1c0.9,1,1.8,2.2,2.8,3.2c0.8,1,1.6,1.9,2.6,2.7c2.3,2,5.5,3.4,8.5,2.3
		c0.8-0.3,1.3-1,1.1-1.9c-0.3-0.8-1.1-1.4-1.9-1.1l-0.8,0.2h-1.3c-0.3,0-0.6-0.1-0.9-0.2l-0.4-0.2l-0.2-0.1h0l-0.8-0.5
		c-0.3-0.2-0.5-0.3-0.8-0.5h0c0-0.1-0.1-0.1-0.2-0.1l-0.4-0.4c-0.9-0.9-1.8-1.8-2.6-2.8l-2.8-3.4c-1.7-2-3.4-4.2-5.8-5.4l-0.5-0.2
		c2.2-2.1,3.9-4.7,5.4-7.3c1-1.8,1.7-3.7,2.9-5.3c1.2-1.6,2.8-2.8,4.2-4.2c2.8-2.9,4.8-6.5,6.6-10.1c1.8-3.6,3.8-7.3,5.8-10.9
		c4.2-7.1,9-13.9,14.4-20.2c2.6-3.1,5.4-6.1,8.3-9c2.9-2.9,5.6-5.1,9-6.5c3.4-1.5,6.2-1.6,9.3-0.6c2.6,0.8,5.1,2.6,6,5.1
		c0.7,1.9,0.6,4,0.4,6s-0.4,4.6-0.6,6.9l-1.3,14.1c-0.8,9.2-1.5,18.4-2.5,27.6c-0.5,4.5-1.1,8.9-2,13.3c-0.4,2.3-0.9,4.5-1.6,6.7
		c-0.6,2.2-1.3,4.4-1.5,6.7c-0.2,2.3,0.3,4.1,1.1,6c0.8,1.9,1.6,3.4,2,5.3c1,4.1-1.5,7.8-3.4,11.2l-6.9,12.5l-3.4,6.1
		c-1,1.7-1.9,3.5-3,5.2c-1.1,1.6-2,2.3-3.4,2.7c-1.9,0.5-1.1,3.5,0.8,2.9c4-1.1,5.9-5,7.8-8.3l7-12.6l3.5-6.2c1.1-2,2.3-4,3.2-6.1
		c0.9-2.1,1.4-4.2,1.2-6.3c-0.3-2.2-1-3.9-1.8-5.8c-0.8-1.9-1.5-3.5-1.5-5.4s0.7-4.4,1.3-6.6c1.2-4.5,2.1-9.1,2.8-13.7
		c1.3-9.4,2-18.9,2.9-28.3l1.3-14.4c0.4-4.7,0.9-9.4,1.3-14.1C261.9,29.7,261.8,27.5,261,25.5z M144.7,113.4L144.7,113.4
		C144.7,113.3,144.7,113.3,144.7,113.4z M183.5,98.1L183.5,98.1C183.8,98.1,183.6,98.1,183.5,98.1z"/>
</g>
</svg>
