<?xml version="1.0" encoding="utf-8"?>
<!-- Generator: Adobe Illustrator 27.9.0, SVG Export Plug-In . SVG Version: 6.00 Build 0)  -->
<svg version="1.1" id="Layer_1" xmlns="http://www.w3.org/2000/svg" xmlns:xlink="http://www.w3.org/1999/xlink" x="0px" y="0px"
	 viewBox="0 0 344 224.7" style="enable-background:new 0 0 344 224.7;" xml:space="preserve">
<g>
	<path style="stroke:#000000;stroke-width:3;stroke-linecap:round;stroke-linejoin:round;stroke-miterlimit:10;" d="M76.7,115.9
		c-5.5-1.2-11.2-1.7-16.9-1.2c-1,0-1.8,0.8-1.8,1.8c0,0.9,0.8,1.9,1.8,1.9c3.1-0.2,6.3-0.2,9.4,0c-4.1,2.3-7.7,5.5-10.3,9.5
		c-0.5,0.9-0.2,2,0.7,2.6c0.3,0.1,0.6,0.2,0.9,0.2c0.3,0,0.6,0,0.9,0h0.7l0.9,0.2l0.4,0.1h0.1l0.1,0.1c0.3,0.1,0.6,0.2,0.8,0.4
		l0.4,0.2h0.1c-5,3.4-8.5,8.5-11.2,13.8c-1.6,3.1-3,6.3-4.3,9.5c-1.3,3.2-3.1,7.5-4,11.3s-1.3,9.2,0.1,13.7c0.3,1,1.3,1.5,2.3,1.3
		c1-0.2,1.5-1.3,1.3-2.2c0,0,0,0,0,0c-1.1-3.4-1.1-7.1-0.3-10.6c0.7-3.5,2.2-7.5,3.7-11.1l0.5-1.2l0.2-0.5c0,0,0-0.1,0-0.2
		c0-0.1,0-0.1,0-0.1c0.3-0.8,0.6-1.5,1-2.3c0.6-1.5,1.3-3,2.1-4.5c1.4-2.8,3.1-5.5,5-8.1l0.3-0.3l0.4-0.5l0.9-1
		c0.6-0.6,1.2-1.3,1.8-1.9l1-0.9l0.2-0.1l0.1-0.1l0.1-0.1l0.3-0.2c0.7-0.5,1.5-1,2.3-1.5c0.8-0.5,1.3-1.7,0.7-2.6
		c-1.4-1.9-3.4-3.3-5.6-4c3.3-3.9,7.8-6.7,12.8-8C78.4,119.1,78.5,116.3,76.7,115.9z"/>
	<path style="stroke:#000000;stroke-width:3;stroke-linecap:round;stroke-linejoin:round;stroke-miterlimit:10;" d="M329.1,149.4
		c-2.2-2.4-4.3-4.9-5.6-7.8c-0.6-1.3-0.9-2.7-1-4.1c0-1.4,0.5-2.6,0.8-3.9s0-3.1-1.4-4c-1.4-0.9-1.5-0.4-2.4-0.5
		c-0.4,0-0.8-0.1-1.1-0.4c-2.1-2,0.4-5.2,1.6-6.9c1.2-1.7-0.6-3.2-2.1-2.7l-9.7,3.1c0.2-2.1,1.2-4.1,2.2-6c1.5-2.8,3.2-5.7,4-8.9
		c1.7-6.9-1-14-4.7-19.8c-3.6-5.8-8.6-11.4-11.4-18.1s-4.1-14-6.5-21c-1.2-3.5-2.7-7-4.2-10.5c-1.5-3.4-2.9-6.4-5-9.1
		s-5.1-4.6-8.6-4.3c-3.5,0.3-6.5,2.3-9.2,4.4c-2.7,2.1-5.6,4.8-8.4,7.2l-8.7,7.3C242,48.1,236,52.8,230,57.4
		c-6,4.6-12.1,9-18.3,13.4c-3,2.2-6.2,4.3-9.3,6.5l-4.7,3.2c-1.2,0.8-2.7,1.7-4.2,1.7c-1.5,0-2.1-0.4-2.4-1.4
		c-0.2-0.9-1.1-1.5-2-1.3c-1,0.1-1.5,0.8-1.6,1.8c-0.4,2.8-2.9,5.4-5.7,5.6c-3,0.3-5.8-1.7-6.5-4.7c-0.4-1.7-3.2-1.8-3.5,0
		c-0.3,2-0.4,4.1-0.2,6.1c-4.4-4.8-9-9.3-13.9-13.6c-0.6-0.6-1.5-0.7-2.2-0.3c-1.8,1.2-3,3-3.4,5.2c-3.9-2.9-8-5.5-12.3-7.8
		c-1.3-0.7-3.3,0.5-2.7,2.1c1.1,3,2.5,6,4,8.9c-5.6-0.4-11.2-1.4-16.6-2.9l-0.4-0.1c0.9-5.6,0.4-11.3-1.4-16.7
		c-0.4-1.2-1.6-1.6-2.7-1.1l-4,1.8c-0.8-3.3-2.3-6.5-4.2-9.4c-0.6-0.9-2.1-1.3-2.9-0.4l-1.6,2c-8.5-12.5-17.5-25-29.2-34.7
		c-3.5-2.9-7.2-5.5-11.2-7.8c-1.3-0.7-2.6,0.2-2.8,1.6c-1,8.8-1.9,17.6-3,26.5S58.2,57.9,55,65.6c-5.4,12.6-15.2,22.6-22.5,34.1
		c-4.1,6.4-7.4,13.3-8.5,20.8c-0.1,1,0.4,2.5,1.8,2.4c0.5-0.1,1-0.1,1.6,0c-1.6,1.8-2.9,3.9-2.8,6.3c0.1,2.1,1.3,4,3.2,5.1l-0.3,0.6
		c-0.8,1.7-1.7,3.3-2.6,5c-1.9,3.5-4,7-5.6,10.6c-1.6,3.5-2.9,7.1-4,10.8c-0.5,1.7,1.9,3.3,3,1.8c0.3-0.4,0.7-0.7,1.2-1
		c-0.2,5.1-0.3,10.2-0.5,15.3c0,1.9,2.5,2.4,3.4,0.9c1-1.6,2.3-3.1,3.6-4.5c-2.7,11.6-3.1,23.7-1.5,35.5c0.2,1.4,2.2,1.7,3.1,0.8
		c1.6-1.7,2.9-3.5,4-5.6c0.8,1,1.3,2.1,1.7,3.2c0.7,2.3,4.2,1.3,3.5-1c-0.8-2.8-2.5-5.3-4.9-6.9c-1-0.7-2.4,0.1-2.7,1.1
		c-0.4,1.1-0.9,2.2-1.6,3.2c-1.1-11.6,0-23.4,3.2-34.6c0.2-1-0.4-2-1.4-2.3c-0.4-0.1-0.9,0-1.3,0.2c-2,1.2-3.8,2.7-5.4,4.3
		c0.1-3.9,0.2-7.9,0.4-11.8c0-1-0.8-1.8-1.8-1.9h-1.3c1-2.9,2.2-5.7,3.6-8.4c1.1-2.2,2.4-4.3,3.6-6.5l3.5-6.7c0.3-0.7,0.7-1.4,1-2.2
		c0.2-0.3,0.3-0.7,0.4-1c0-0.5-0.1-1.1-0.5-1.5c-0.5-0.5-1.1-0.5-1.8-0.5c-0.6,0-1.8-1.7-1.6-2.8c0.3-2.1,2.3-3.6,3.7-5
		c1.4-1.3,0.6-2.3-0.4-2.9c-1.1-0.7-2.4-1.2-3.6-1.4c2.7-12.5,11.2-22.7,18.6-32.8c4.1-5.5,8.1-11.2,11-17.5
		c3.5-7.6,5.3-15.8,6.5-24.1c0.2-1.3,0.4-2.6,0.5-3.9c1.2,7.4,0,15-1.8,22.4c-2.5,10.6-6.2,20.8-8.3,31.5c-1.2,6-1.8,12.3-1.2,18.4
		c0,0.7,0.4,1.4,1.1,1.7c0.7,0.2,1.5,0.1,2-0.4c1.5-1.8,3.2-3.5,5.1-4.9l0.4-0.3l0.7-0.6l1.5-1l3-1.7c4.2-2.3,8.4-3.8,13.2-5.2
		c2.6-0.8,5.3-1.5,7.9-2.3c0.8-0.2,1.3-0.9,1.4-1.8c0-0.8-0.6-1.5-1.4-1.8l-4-1.7l5.3-1.8c1-0.3,1.5-1.3,1.3-2.3
		c-0.4-1.4-0.9-2.7-1.7-3.9l0.7,0.1c1.5,0.3,2.5-0.9,2.3-2.3c-0.5-3.5-1.4-6.9-2.6-10.3c1.4,0.6,2.8,1.1,4.3,1.5
		c1.3,0.3,2.8-0.9,2.3-2.3c-0.2-0.5-0.3-1-0.4-1.5v-0.6c0,0,0,0,0-0.1c0.6,0.3,1.4,0.2,1.9-0.2c0.6-0.4,0.9-1.2,0.7-2l-0.9-4.6
		c2.5,0.2,4.9,1,7,2.2c0.6,0.4,1.2,0.8,1.8,1.3c0.3,0.2,0.6,0.5,0.8,0.8c0.1,0.1,0.3,0.2,0.4,0.4l0.2,0.3c0.5,0.6,0.9,1.3,1.2,2
		c0.1,0.1,0.1,0.3,0.2,0.4c0,0.1,0.1,0.2,0.1,0.3c0.1,0.3,0.2,0.7,0.3,1.1c0.1,0.2,0.1,0.5,0.2,0.7c0,0,0,0.3,0,0.4
		c0,0.4,0.1,0.8,0.1,1.2c0,0.2,0,0.4,0,0.6v0.4h0c0,0.5-0.1,0.9-0.3,1.4c-0.2,1,0.3,2,1.3,2.3c1,0.2,2-0.3,2.3-1.3
		c1.1-3.7,0.3-7.8-1.8-10.9c-2.3-3.2-5.6-5.6-9.4-6.6c-2.2-0.6-4.4-1-6.7-1c-1,0-1.9,0.9-1.8,1.9c0,0.1,0,0.3,0,0.4l0.9,4.8
		c-0.5,0.2-1,0.6-1.4,1C92.3,68.3,92,69.1,92,70c-1.8-0.6-3.4-1.4-5.1-2.4c-0.8-0.5-2-0.3-2.5,0.6c-0.4,0.6-0.4,1.3,0,1.9
		c1.6,3.7,2.8,7.6,3.6,11.6c-1.1,0.1-2.1,0.4-3.1,0.8c-1.2,0.5-1.1,2.1-0.4,2.9c0.8,0.9,1.5,2,2.1,3.2l-8.1,2.7
		c-0.8,0.3-1.3,1-1.4,1.8c0,0.8,0.6,1.5,1.4,1.8l3.6,1.5c-7.8,2.2-15.6,4.9-22.1,9.7c-1.1,0.8-2.3,1.7-3.3,2.7
		c0-9.4,2.4-18.6,5-27.6c2.9-10.3,6.4-20.8,6.9-31.5c0.3-5.9-0.3-11.8-2.6-17.3c-0.1-0.2-0.2-0.4-0.3-0.6c0.5-4.6,1-9.2,1.5-13.8
		c12.4,7.7,22,19.2,30.4,30.9c2.6,3.6,5.2,7.3,7.7,11c0.6,0.9,2.1,1.4,2.9,0.4l1.5-1.8c1.4,2.7,2.4,5.5,2.9,8.4
		c0.2,1.3,1.7,1.6,2.7,1.1l4.1-1.9c1.6,6,1.4,12.4-0.6,18.3c0,0,0,0.1,0,0.2c-0.4-1.6-1-3.2-1.8-4.7c-0.5-0.9-1.6-1.2-2.5-0.7
		c0,0,0,0,0,0c-0.9,0.5-1.2,1.6-0.7,2.5c0.2,0.4,0.4,0.9,0.6,1.3c0.5,1.4,0.9,2.8,1.2,4.2c0.1,0.4,0.4,0.9,0.8,1.1
		c0.4,0.2,0.9,0.3,1.4,0.2c0.5-0.1,0.9-0.4,1.1-0.9c0.2-0.4,0.3-0.9,0.2-1.4c0-0.1,0-0.3-0.1-0.4c0.8,0.9,2.8,1,3.3-0.6
		c0.2-0.7,0.4-1.4,0.6-2.1l0.2,0.1c6.8,2,13.8,3,20.9,3.2c1,0,1.9-0.8,1.9-1.9c0-0.3-0.1-0.6-0.2-0.9c-1.2-2-2.4-4.1-3.3-6.3
		c3.9,2.3,7.6,5,11,7.9c0.7,0.6,1.7,0.7,2.5,0.1c0.6-0.5,1-1.7,0.4-2.4c-1-1.4-1.1-3.3,0-4.8c6.3,5.6,12.2,11.8,17.6,18.3
		c0.6,0.7,1.8,0.6,2.5,0.1c0.7-0.6,0.9-1.6,0.4-2.4c-0.8-1.9-1.4-3.9-1.6-6c1.9,1.6,4.4,2.3,6.9,2.1c3.4-0.4,6.4-2.6,8-5.6
		c1.5,0.8,3.2,1.1,5,0.8c1.7-0.4,3.4-1.2,4.8-2.3c1.6-1,3.2-2.1,4.8-3.2c6.2-4.3,12.4-8.6,18.5-13.1c12.3-9,24.2-18.5,35.9-28.3
		c2.8-2.4,5.5-4.9,8.4-7.2c2.8-2.3,5.4-3.9,8.4-3.5c3,0.4,4.8,3.5,6,6c1.8,3.2,3.3,6.6,4.7,10c2.8,6.9,4.4,14,6.6,21.1
		c1,3.5,2.5,6.9,4.2,10.1c1.8,3.1,3.9,6,6,9c3.9,5.5,8,11.6,8,18.6c0,3.2-1.1,6-2.7,8.9c-1.5,2.8-3.1,5.5-3.8,8.5
		c-0.3,1.6-0.4,3.2-0.1,4.9c0.1,0.9,1.4,1.6,2.3,1.3l7.6-2.5c-0.7,1.6-0.7,3.5-0.1,5.2c0.5,1.5,1.7,2.7,3.2,3.3
		c0.6,0.2,1.3,0.3,2,0.3c0,0.2-0.1,0.4-0.1,0.7c-0.5,1.6-0.8,3.2-0.7,4.9c0.1,1.7,0.6,3.4,1.4,5c1.1,2.4,2.6,4.6,4.3,6.5
		c-1.3,0.8-2.3,2-2.9,3.4c-1.3,3-0.8,6.1-0.2,9.3c0.3,1.6,0.4,3.3,0.3,5c-0.1,1.7-0.5,3.3-0.8,5.1c-0.6,3.4-0.8,7-0.6,10.5
		c0.1,4,0.8,8,1.8,11.8c0.6,2.3,4.2,1.3,3.6-1c-1-3.8-1.7-7.7-1.8-11.6c0-4,0.3-8,1-11.9c0.4-2,0.5-4,0.3-6
		c-0.2-1.9-0.7-3.8-0.9-5.7s0.4-6,3.3-6C329.5,152.6,330.2,150.6,329.1,149.4z M28.7,132.4C28.8,132.1,28.8,132.2,28.7,132.4
		L28.7,132.4z M319.8,132.6C319.8,132.5,320,132.2,319.8,132.6L319.8,132.6z"/>
	<path style="stroke:#000000;stroke-width:3;stroke-linecap:round;stroke-linejoin:round;stroke-miterlimit:10;" d="M270.8,91.7
		c-1.1,0.6-2.1,1.5-2.8,2.6c-0.4,0.7-0.3,1.7,0.3,2.3l9.4,10h-0.5c-1.4,0.1-2.8,0.4-3.8,1.4c-1.1,1-2.1,3.5-1.2,5.1
		c-0.1,0.1-0.1,0.2-0.2,0.3h0c0,0,0,0,0,0.1l-0.2,0.3l-0.7,0.6c-0.7,0.6-0.6,1.9,0,2.6c0.7,0.7,1.9,0.7,2.6,0c1.2-1,2.1-2.4,2.7-3.8
		c0.2-0.7,0-1.5-0.7-2c0-0.1,0.1-0.2,0.1-0.3l0.1-0.1l0.1-0.1h0.2l0.5-0.1h2.1c1.2,0,2.5-0.3,3.5-0.9c0.9-0.5,1.2-1.6,0.7-2.5
		c-0.1-0.1-0.1-0.2-0.3-0.3l-10.5-11.4h0.1l0.7-0.4l0.4-0.2l0.5-0.1l0.7-0.2h0.5c1,0,1.8-0.9,1.8-1.9c0-0.6-0.3-1.2-0.9-1.5
		c-4.1-2.8-8.7-4.8-13.7-5.6c1.7-0.5,3.4-0.7,5.1-0.6c1.5,0,2.6-2.1,1.3-3.1c-1.2-1.1-2.7-2-4.1-2.6l0.1-0.1l0.9-0.8l0.5-0.4
		c0.1-0.1,0.3-0.2,0.4-0.3c1.1-0.8,1.2-2.4,0-3.2c-4.3-2.7-8.8-4.9-13.6-6.6c0.3-0.5,0.7-1,1.1-1.4c0.7-0.7,0.7-1.9,0-2.6
		c-0.2-0.2-0.5-0.4-0.8-0.5c-1.4-0.4-2.9-0.6-4.4-0.7l0.6-1.1l1.1-1.6c0.3-0.5,0.6-0.8,1.1-1.4c1.8-2.1,3.7-4.1,5.7-5.9
		c2-1.8,4-3.6,5.9-5.5l2.9-2.9l1.5-1.3l1.5-1.2l1.9-1.3l1-0.6l0.4-0.2l0.4-0.2c0.7-0.2,1.4-0.5,2.1-0.6l0.4-0.1h0.4
		c3.3,8.8,6.1,17.8,8.4,26.9c2.3,9.6,4,19.4,5,29.3c0.2,2.8,0.5,5.5,0.7,8.3c0,1.4,0.1,2.8,0.2,4.3c0,0.3,0,0.7,0,1v0.3
		c-1,0.2-1.5,1.3-1.3,2.2c0,0,0,0,0,0c0.6,1.7,2.4,2.2,3.8,1c1.4-1.2,1.2-2.1,1.2-3.3c-0.1-2.7-0.2-5.4-0.4-8.1
		c-0.4-5.4-1-10.8-1.8-16.2c-1.5-10.6-3.8-21.1-6.9-31.3c-1.7-5.8-3.7-11.5-5.8-17.1c-0.2-0.8-0.9-1.3-1.8-1.3
		c-6.3,0.1-11.3,4.5-15.5,8.7s-8.4,7.6-12.2,11.8c-2.2,2.5-4,5.4-5.3,8.4c-0.4,1.1,0.7,2.4,1.8,2.3c1.2,0,2.4,0,3.6,0.1
		c-0.3,0.6-0.6,1.3-0.9,2c-0.3,0.7,0.4,2,1.3,2.3c4.4,1.5,8.5,3.3,12.5,5.7c-0.9,0.9-1.7,1.9-2.3,3c-0.5,0.9-0.2,2,0.7,2.6
		c0.1,0,0.2,0.1,0.4,0.1l0.4,0.1c-2.5,0.7-4.9,1.8-7,3.3c-0.7,0.4-1,1.3-0.8,2.1c0.2,0.8,0.9,1.4,1.8,1.3c3.3,0,6.6,0.4,9.8,1.4
		C267.2,90,269,90.7,270.8,91.7z M275.3,111.4C275.3,111.4,275.3,111.4,275.3,111.4C275.4,111.4,275.4,111.4,275.3,111.4z
		 M275.4,111.1L275.4,111.1C275.5,111,275.5,111.1,275.4,111.1z M290.3,108.7C290.3,108.6,290.4,108.6,290.3,108.7L290.3,108.7z"/>
	<path style="stroke:#000000;stroke-width:3;stroke-linecap:round;stroke-linejoin:round;stroke-miterlimit:10;" d="M307.7,184.6
		c-2.5-2.5-4.7-5.2-6.8-8.1c-0.9-1.3-1.7-2.6-2.5-3.9c1.3-0.9,2.9-1.4,4.5-1.4c1.6,0,2.5-2,1.3-3.1c-2.7-2.7-5.7-5-8.9-6.9
		c4-0.7,7.9-1.8,11.6-3.3c0.7-0.3,1.4-0.9,1.4-1.8c0-0.8-0.6-1.6-1.4-1.8c-3.2-1.1-6.4-2.5-9.3-4.2c-1.5-0.8-3-1.7-4.5-2.7
		c-1.4-0.9-2.9-2-4.1-2.9c-2.8-2.2-5.3-4.6-7.6-7.2c-2.2-2.4-4.3-4.9-6.6-7.2c-2.4-2.3-5.8-4.8-9.5-5.9c-1-0.2-2,0.3-2.3,1.3
		c-0.2,1,0.3,2,1.3,2.3l1,0.3l0.2,0.1l0.2,0.1h0.1l0.3,0.1l2.1,1.1l0.9,0.6l0.4,0.3c0,0,0,0.1,0.1,0.1l0.1,0.1l1.9,1.6
		c2.4,2.2,4.5,4.8,6.6,7.2c4.7,5.3,10.2,9.8,16.4,13.3c2,1.1,4.1,2.2,6.2,3.1c-3.8,1.2-7.7,2-11.6,2.4c-0.8,0-1.6,0.5-1.8,1.3
		c-0.2,0.8,0.1,1.7,0.8,2.1c3.7,1.7,7.1,3.9,10.3,6.5c-1.6,0.6-3,1.5-4.2,2.7c-0.6,0.6-0.7,1.5-0.3,2.2c2.2,3.8,4.7,7.4,7.5,10.7
		c1.4,1.6,2.9,3.2,4.4,4.7l1.1,1l0.5,0.5l0.2,0.2c0,0,0,0.1,0.1,0.1l0.2,0.4l0.1,0.1c0,0,0,0.1,0,0.1c-0.7,0.7-0.7,1.9,0,2.6
		c0.7,0.7,1.9,0.7,2.6,0c1.5-1.4,1.2-3.7,0-5.3S308.9,185.8,307.7,184.6z"/>
</g>
</svg>
