<?xml version="1.0" encoding="utf-8"?>
<!-- Generator: Adobe Illustrator 27.9.0, SVG Export Plug-In . SVG Version: 6.00 Build 0)  -->
<svg version="1.1" id="Layer_1" xmlns="http://www.w3.org/2000/svg" xmlns:xlink="http://www.w3.org/1999/xlink" x="0px" y="0px"
	 viewBox="0 0 342.4 181.2" style="enable-background:new 0 0 342.4 181.2;" xml:space="preserve">
<g>
	<path style="stroke:#000000;stroke-width:3;stroke-linecap:round;stroke-linejoin:round;stroke-miterlimit:10;" d="M324.3,83.8
		c-2-3.3-4.1-6.6-6.2-9.8c-6.9-10.8-14.6-21-24.9-28.9c-5.8-4.4-12-8.2-18.6-11.5c-8.2-4.2-17-7.5-26.4-7.5c-9.4,0-17.8,3-25.9,7
		c-4.1,2-8.1,4.2-12,6.6c-1.7,1-3.4,2.2-5.4,2.3c-2,0.1-4.9-0.6-7.3-1c-9.8-1.6-19.7-2.6-29.7-3c-9.9-0.4-19.9-0.4-29.7,0.8l-7,0.8
		c-2.2,0.2-4.3,0.4-6.2-0.6c-3.6-1.8-6.9-4.3-10.4-6.4c-3.5-2.1-7.3-4.2-11.4-5.2c-4.1-1-8.3-0.7-12.4,0.2
		c-4.1,0.9-8.4,2.4-12.7,2.3c-4.3,0-8-2.3-11.8-4.1s-8.2-2.6-12.6-1.9c-4.2,0.7-8.1,2.6-11.2,5.6c-3,2.9-5.3,6.4-7.4,10
		c-2.1,3.5-4.8,8.1-7.1,12.1c-2.3,4.1-4.6,8.3-6.7,12.6c-2.1,4.3-4.2,8.6-5.6,13c-0.6,2.1-1.1,4.2-1.4,6.3c-0.4,1.9-0.4,3.9-0.1,5.8
		c0.6,2.9,2.6,5.5,5.5,6.3c1.9,0.5,3.9,0.7,5.7,1.4s4.5,1.8,6.8,2.7c4.5,1.8,9.1,3.7,13.5,5.7s8.5,4,12.6,6.2l0.5,0.2l0.3,0.9
		c0.2,0.7,0.3,1.3,0.4,2l0.1,1c0,0.2,0,0.4,0.1,0.6c0.2,2.9,0.2,5.7-0.2,8.6c0,0.2,0,0.4-0.1,0.6c0,0,0,0,0,0.1v0.1l-0.1,1.2
		l-0.4,2.3c-0.3,1.6-0.6,3.1-0.9,4.7c-0.5,2.9-1.1,5.9-1,8.8c0.2,4.8,1.7,9.2,4,13.3c1.9,3.4,4.4,6.4,6.4,9.7
		c0.5,0.7,0.9,1.5,1.3,2.3c0.6,1.1,2,1.4,3.1,0.8c1-0.7,1.4-2,0.8-3.1c-1.7-3.3-4-6.2-6-9.2c-1.1-1.7-2.2-3.4-3-5.2
		c-0.1-0.2-0.2-0.4-0.3-0.6v-0.1c0-0.1-0.1-0.2-0.1-0.3l-0.5-1.5c-0.4-1-0.6-2.2-0.8-3.2c-0.1-0.2-0.1-0.5-0.2-0.8
		c0-0.1,0-0.4,0-0.4c-0.1-0.6-0.1-1.3-0.1-1.9c0-1.2,0-2.4,0.2-3.5c0-0.1,0-0.4,0-0.4c0-0.2,0-0.3,0.1-0.5c0-0.4,0.1-0.8,0.2-1.2
		l0.4-2.4c0.3-1.6,0.6-3.1,0.9-4.7c1-5.9,1.6-11.9,0.2-17.8c-0.6-2.7-1.8-5.3-3.4-7.5c-0.9-1.3-1.9-2.3-2.9-3.5
		c-0.2-0.2-0.4-0.4-0.6-0.7l-0.3-0.3l-0.1-0.1c-0.4-0.6-0.8-1.2-1.1-1.8l-0.1-0.3c-0.1-0.3-0.2-0.5-0.3-0.8l-0.5-1.7
		c-0.3-1.2-0.5-2.3-0.8-3.5c-0.6-2.4-1.5-4.8-3.2-6.5c-0.9-0.9-1.9-1.6-3-2.2L46,82.3l-0.3-0.2h-0.1c-0.1-0.2-0.3-0.4-0.5-0.5v-0.1
		c0,0-0.1-0.1-0.1-0.1c0,0,0-0.1-0.1-0.2c0-0.1,0,0,0,0c0-0.1,0-0.2,0-0.3c0-0.1,0-0.2,0-0.4c0-0.1,0-0.2,0-0.4c0-0.1,0-0.3,0.1-0.4
		c0.4-1.7,0.6-3.3,0.8-5c0.3-5.8-1.5-11.5-0.9-17.3v-0.2c0,0.2,0-0.2,0-0.3l0.1-0.7c0.1-0.7,0.3-1.3,0.5-1.9l0.3-0.7
		c0,0,0.1-0.3,0.1-0.3l0-0.1c0.3-0.5,0.5-1.1,0.9-1.6l0.3-0.4l0.6-0.7l0.6-0.5c0-0.1,0.1-0.1,0.2-0.2l0.3-0.2
		c0.4-0.3,0.9-0.6,1.4-0.9l0.3-0.1c-0.2,0.1,0,0,0,0h0l1-0.4l1.5-0.4l0.9-0.1h0.5l3.6-0.3c2.6,0,5.2-0.4,7.7-0.9
		c0.9-0.2,1.8-0.4,2.6-0.8c1,0.6,2.1,1.1,3.1,1.6c2.9,1.3,6,2.2,9,3.3c0.3,0.1,0.6,0.3,0.9,0.4l0.4,0.2c0.6,0.3,1.3,0.6,1.9,0.9
		c0.5,0.3,1.1,0.6,1.6,0.9l0.8,0.5h0l0.4,0.4c0.5,0.4,0.9,0.9,1.3,1.3l0.3,0.4c0.2,0.3,0.4,0.5,0.6,0.8c0.2,0.3,0.4,0.6,0.5,0.9
		c0,0.1,0.1,0.2,0.2,0.3V58c0.1,0.3,0.2,0.6,0.3,0.9c0,0.1,0,0.2,0.1,0.4v0.9l-0.1,0.2c0,0.1-0.1,0.2-0.1,0.4
		c-0.1,0.2-0.2,0.4-0.3,0.5h0c-0.1,0.2-0.1,0.2-0.1,0.1l-0.2,0.2c-0.3,0.4-0.7,0.7-1.1,0.9l-0.4,0.3l-0.7,0.5
		c-1.2,0.7-2.2,1.6-3.1,2.6c-1.2,1.3-1.8,3-2.5,4.6l-0.1,0.3L81,71.2l-0.5,1l-0.1,0.1h0c0,0.1-0.1,0.2-0.2,0.2L80,72.7h-0.1
		l-0.2,0.2L79.4,73h-0.2l-0.3,0.1h-0.3c0,0,0,0-0.1-0.1c-0.9-0.9-2.3-0.9-3.1,0c-0.9,0.9-0.9,2.3,0,3.2c2.3,2.5,6.3,1.3,8.2-1
		c1.1-1.3,1.7-3,2.3-4.6c0,0,0,0,0-0.1c0.1-0.2,0.2-0.3,0.2-0.5l0.5-0.9h0l0.1-0.1c0.1-0.1,0.1-0.1,0,0l0.1-0.2l0.8-0.7
		c0.1-0.1,0.2-0.2,0.3-0.3h0.1l0.5-0.4l1.5-1.1c1.2-0.8,2.2-1.8,3-3c1.8-3,0.9-6.7-0.9-9.4c-3.7-5.3-9.9-7.3-15.7-9.4l-2.1-0.8
		l-0.6-0.2l-0.3-0.1l-1.2-0.5c-1.4-0.7-2.7-1.5-3.9-2.3c-2.5-1.7-4.8-3.5-7.4-5c-3.2-1.8-6.7-3-10.4-3.2c-1.6-0.1-3.1,0-4.7,0.2
		c0.6-0.5,1.3-1.1,2-1.6c3.3-2.2,7.4-3.1,11.3-2.6c4.1,0.6,7.6,3,11.3,4.5c3.8,1.6,8,1.9,12.2,1.2c4.3-0.7,8.1-2.1,12.2-2.6
		c4-0.4,8,0.2,11.6,2c3.6,1.7,7,4,10.4,6.1c3.4,2.1,6.4,4.5,10.3,4.8c4.6,0.3,9.3-0.8,13.9-1.2c4.5-0.4,9.5-0.5,14.3-0.6
		c9.5-0.1,18.9,0.3,28.3,1.3c4.6,0.5,9.3,1.1,13.9,1.9c2.2,0.4,4.5,0.9,6.7,0.9c2.1,0,4.2-0.6,6.1-1.6c3.8-2,7.4-4.4,11.2-6.5
		c3.8-2.1,7.8-3.8,11.9-5.2c8.3-2.8,16.9-3.4,25.5-1.1c8.5,2.3,15.6,6.2,22.7,10.6c10.4,6.2,19.3,14.5,26.4,24.4
		c4,5.6,7.7,11.4,11.3,17.3c0.6,0.8,1.1,1.6,1.5,2.5c0.3,0.5,0.4,1,0.3,1.1c-0.1,0.1-0.8,0.6-1,0.8c-0.3,0.3-0.5,0.7-0.7,1.1
		c-0.4,0.7-0.7,1.4-1,2.2c-1.1,2.5-2.1,5.1-3.5,7.4c-8.8,13.9-26.9,6.6-40,7c-2.2,0-4.3,0.4-6.5,0.9l0.4-1.3l0.7-1.7
		c0.1-0.3,0.2-0.6,0.3-0.9l0.1-0.4v-0.1c0,0,0,0,0-0.1c0.5-1.1,1-2.2,1.6-3.4c1.1-2.2,2.4-4.4,3.9-6.4c0.4-0.5,0.8-1,1.1-1.5
		l0.4-0.4l0.6-0.7c0.9-1,1.7-2,2.7-3c1.9-2.1,3.7-4.3,5.2-6.7c1.4-2.4,2.5-4.9,3.3-7.6c1.6-5.3,2-11.1-0.9-16
		c-2.4-4-6.4-6.7-10.6-8.5c-4.3-1.8-9-2.4-13.6-2.5c-5-0.1-10,0.6-14.8,2.1c-1.2,0.4-2.4,0.8-3.5,1.3c-1.1,0.4-1.4,2.1-0.8,3
		c0.6,1,1.9,1.3,3,0.9h0.1c0,0,0,0,0,0l0.3-0.1l0.8-0.3l1.6-0.5c1.1-0.3,2.2-0.6,3.3-0.9l1.7-0.3l0.8-0.1h0.7
		c1.2-0.1,2.3-0.3,3.5-0.3c2.4-0.1,4.7-0.1,7.1,0.1l0.9,0.1h1.1l0.9,0.2c1,0.2,2.1,0.4,3,0.7l1.4,0.5l0.8,0.3l0.3,0.1h0.2
		c0.9,0.4,1.9,0.9,2.8,1.4l1.2,0.8l0.5,0.4h0l0.4,0.3c0.8,0.7,1.5,1.4,2.2,2.2l0.2,0.2l0.4,0.5c0.3,0.4,0.5,0.9,0.8,1.3l0.4,0.7v0
		l0,0l0,0c0,0,0,0,0,0c0,0,0,0,0,0.1c0,0.1,0,0.1,0,0.2c0.2,0.5,0.4,1,0.5,1.6c0,0.3,0.1,0.6,0.2,0.9v0.1c0,0.1,0,0.3,0,0.4
		c0,0.1,0,1.4,0,2.1c0,0.7,0,0.7-0.1,1.1c0,0.1,0,0.2,0,0.2c0,0.1,0,0.3,0,0.3c-0.1,0.7-0.2,1.5-0.4,2.2c-0.3,1.2-0.7,2.5-1.1,3.7
		l-0.4,0.9l-0.1,0.4c0,0,0,0,0,0l-0.9,1.9c-0.6,1.1-1.2,2.2-1.9,3.2l-0.5,0.8l-0.2,0.2c0,0.1-0.1,0.2-0.2,0.3l-1.3,1.6
		c-1.8,2.1-3.6,4-5.3,6.2c-1.5,1.9-2.9,3.9-4.1,6.1c-2.5,4.4-4.3,9.1-5.6,14c-1.3,4.9-1.9,9.9-1.8,15c0,1.3,0,2.6-0.1,3.9
		c0,0.3,0,0.6-0.1,0.9c0,0.1,0,0.3-0.1,0.5c-0.1,0.6-0.3,1.3-0.5,1.9l-0.1,0.4v0.1h0c-0.1,0.2-0.2,0.4-0.3,0.7l-0.9,1.7
		c-0.7,1.1-1.3,2.2-1.8,3.5c-1.1,2.7-0.7,5.6,0.1,8.3c0.4,1.2,0.7,2.3,0.9,3.5v0.4c0,0.3,0,0.5,0,0.8v0.7c0,0.1,0,0.2,0,0.3
		c0,0.1,0,0.1,0,0.2l0,0l0,0v0c-0.1,0.2-0.1,0.4-0.2,0.7c0,0,0,0.1-0.1,0.2c0,0,0,0,0,0.1l-0.2,0.4l-0.1,0.1l-0.4,0.4
		c-0.9,0.9-0.9,2.3,0,3.1c0.9,0.9,2.3,0.9,3.2,0c1.9-1.7,2.5-4.5,2.3-7c-0.1-1.3-0.4-2.6-0.8-3.9l-0.5-2c-0.1-0.4-0.2-0.7-0.2-1
		c0-0.1-0.1-0.3-0.1-0.4c0-0.1,0-0.3,0-0.4c0-0.3,0-0.6,0-0.9v-0.5c0,0,0-0.1,0-0.2c0-0.5,0.2-1,0.4-1.5c0-0.1,0.1-0.2,0.1-0.3
		l0.1-0.3c0.1-0.3,0.3-0.5,0.4-0.8c0.3-0.5,0.6-1.1,0.9-1.6c0.7-1.2,1.3-2.4,1.8-3.7c0.4-1.4,0.7-2.8,0.8-4.3c0.2-2.6,0-5.3,0.2-7.9
		c0-1.3,0.2-2.5,0.3-3.7c0-0.1,0-0.1,0-0.2s0-0.2,0-0.3l0.1-0.9c0.1-0.6,0.2-1.3,0.3-1.8c0.1-0.3,0.1-0.6,0.2-0.9
		c7-2.9,15.1-1.2,22.4-0.4c7.3,0.8,16.1,0.8,23-3.8c2.7-1.9,5-4.3,6.7-7.2c1.5-2.5,2.5-5.2,3.6-7.8c0.2-0.6,0.5-1.1,0.8-1.7
		c0.6-0.6,1.2-0.9,1.7-1.7C326.4,88,325.4,85.7,324.3,83.8z M46.8,36.8h0.5c0.8-0.1,1.5-0.1,2.3-0.1c0.7,0,1.3,0,2,0.1h0.6l1.1,0.2
		l2.1,0.6l0.7,0.3l0.3,0.1l0.5,0.2c2.2,1.1,4.3,2.5,6.3,4h-0.2l-0.4,0.1h-0.1l-1.8,0.2c-2.6,0.2-5.2,0.3-7.8,0.6
		c-2.6,0.4-4.9,1.1-6.9,2.6c-2.2,1.7-3.9,3.9-4.8,6.6c-2,5.3-0.9,11-0.4,16.5c0.2,1.6,0.3,3.2,0.2,4.8c0,1.4-0.2,2.9-0.5,4.3
		c-0.4,1.8-0.6,3.6,0.3,5.3c0.6,1.1,1.5,2.1,2.6,2.8c0.9,0.6,1.9,1.2,2.8,1.7c0.1,0,0.2,0.1,0.2,0.2h0.1l0.6,0.6l0.2,0.3h0
		c0.2,0.2,0.3,0.4,0.4,0.7l0.4,0.7l0.1,0.3v0.1c0.2,0.5,0.4,1.1,0.5,1.6c0.2,0.5,0.5,2.3,0.8,3.5c0.3,1.2,0.6,2.3,1,3.4
		c0.6,1.4,1.3,2.8,2.3,4c0.4,0.6,0.9,1.1,1.4,1.7c-6.4-3.1-12.9-6.1-19.5-8.7c-4.1-1.7-8.2-3.9-12.7-4.5c-1.1-0.2-2.2-0.3-3-1.2
		c-0.8-0.9-0.9-2.1-0.9-3.1c0-1.9,0.5-3.7,0.9-5.6c0.4-2.2,1.1-4.3,2-6.4C23,71,24.9,66.9,27,62.8c4.1-7.9,8.6-15.7,13.3-23.3
		l0.7-1.1c0.4,0,0.7-0.1,1-0.3l0.4-0.1l0.4-0.2l0.9-0.3c0.7-0.2,1.5-0.4,2.2-0.6L46.8,36.8z M257.8,153.6l0.1-0.1
		C257.9,153.5,257.9,153.6,257.8,153.6z"/>
	<path style="stroke:#000000;stroke-width:3;stroke-linecap:round;stroke-linejoin:round;stroke-miterlimit:10;" d="M261.9,87.6
		c0.3-1.2-0.4-2.4-1.6-2.8c-0.6-0.1-1.3,0-1.8,0.4l-0.1-0.2c-0.6-1.1-1.2-2.2-1.9-3.2c-1.7-2.3-3.7-4.3-6-6.1c-2-1.6-4.4-2.6-6.5-4
		l-0.6-0.4c-0.1-0.2-0.3-0.3-0.5-0.4l-0.6-0.6l-0.3-0.4c0,0,0-0.1-0.1-0.1c-0.3-0.5-0.6-1-0.8-1.5c0,0,0,0,0-0.1
		c0-0.1-0.1-0.2-0.1-0.3c-0.1-0.3-0.2-0.6-0.3-0.9c-0.1-0.4-0.1-0.7-0.2-1c-0.1-0.4,0-0.3-0.1-0.5c-0.1-0.7-0.1-1.4-0.1-2.1
		c0-1.4,0-2.8,0.1-4.2c0-1.3-1-2.2-2.2-2.2c-1.2,0-2.2,1-2.2,2.2c-0.2,2.9-0.2,5.8,0.4,8.6c0.6,3,2.4,5.6,4.8,7.5
		c2.3,1.7,5,2.8,7.3,4.5c0,0,0,0,0,0h0.1c0.1,0.1,0.2,0.2,0.4,0.3l0.7,0.6c0.5,0.5,1.1,1,1.6,1.6l1.2,1.4l0.2,0.3
		c0.1,0.1,0.2,0.3,0.3,0.4c0.2,0.3,0.4,0.6,0.6,0.9c0.9,1.5,1.6,3.3,3.1,4.3C257.9,90.5,261.2,89.9,261.9,87.6z"/>
</g>
</svg>
