<?xml version="1.0" encoding="utf-8"?>
<!-- Generator: Adobe Illustrator 27.9.0, SVG Export Plug-In . SVG Version: 6.00 Build 0)  -->
<svg version="1.1" id="Layer_1" xmlns="http://www.w3.org/2000/svg" xmlns:xlink="http://www.w3.org/1999/xlink" x="0px" y="0px"
	 viewBox="0 0 330.7 188" style="enable-background:new 0 0 330.7 188;" xml:space="preserve">
<g>
	<path style="stroke:#000000;stroke-width:3;stroke-linecap:round;stroke-linejoin:round;stroke-miterlimit:10;" d="M309.2,75.1
		c-4.4-5.7-9.3-11.1-14.7-15.9c-10.8-9.7-23.2-17.3-36.7-22.5c-7-2.7-14.4-4.2-20-9.5c-2.7-2.6-5.5-5.4-9.4-5.8
		c-4-0.4-6.8,1.3-10.1,2.1c-8.1,1.8-16.7-1.8-24.2-4.4c-3.9-1.3-7.8-2.6-11.8-3.2c-4-0.6-7.7-0.6-11.6-0.8
		c-7.6-0.4-15.1-1.3-22.7-0.7s-15.5,2.2-23.1,3.9l-5.9,1.2c-1.9,0.4-4,0.6-5.8,1.3c-1.8,0.7-2.5,1.4-3.7,2.1c-0.5,0.3-1,0.7-1.6,0.8
		s-1.9-0.5-2.6-0.7c-4.1-1.2-8-0.2-12,0.8c-4.1,1-7.3,2.1-11,3.3c-14.6,4.9-28.5,11.8-41.3,20.6c-3.2,2.1-6.2,4.4-9.2,6.8
		s-5.7,4.5-8.2,7.2c-2.5,2.7-4.4,5.4-5.1,8.8c-0.9,4.2,0.7,8.1,1.6,12.1c0.9,4.1,1,8.6,1,12.8c0,4.3,0.2,8.8,0.3,13.1
		c0.4,8.8,1.2,17.5,2.3,26.3c1.6,12.4,4.5,26.7,15.3,34.4c6,4.3,13.8,5.3,21,5.1c6.4-0.2,12.6-1.5,18.5-4
		c5.7-2.5,10.9-6.2,14.7-11.3c4.3-5.8,6.1-13,5.9-20.1c-0.3-7.9-2.6-15.6-5.3-23s-6.4-15.7-6.8-24c-0.4-8.4,3-16.6,6.1-24.4
		s6.6-15.5,10.4-23c1.7-3.3,3.8-6.5,5.1-10c0.9-2.3,1.3-4.9,0.2-7.1c0.8-0.2,1.6-0.6,2.4-1c1.1-0.6,2.1-1.5,3.3-1.9
		c1.8-0.7,4.1-0.9,6.1-1.3l11.5-2.4c7.2-1.4,14.5-2.7,21.9-2.7c3.5,0,7.1,0.4,10.6,0.6c3.5,0.2,7.8,0.5,11.6,0.6
		c7.9,0.3,15.1,3.1,22.5,5.6c7.5,2.4,15.5,4.1,23.3,1.8l0.5-0.2c1.4,6.5,5,12.2,8.6,17.7c3.6,5.5,6.4,10.1,9.7,15.1
		c1,3.2,1.9,6.5,2.5,9.7c3.3,16.2,1.6,32.9-4.1,48.3c-2.7,7.3-6,14.8-5.8,22.8c0.1,6.6,2.7,12.9,6.7,18.2
		c8.2,10.7,22.5,16.9,35.8,13.9c6.5-1.4,12.2-5.4,15.8-11.1c3.7-5.7,5.3-12.5,6.5-19.1c1.5-8.4,2.7-17,4-25.5c0.6-4,1.2-8.1,2-12.1
		c0.8-4,1.6-7.2,3.4-10.5c1.8-3.2,4.8-5.4,5.7-8.8C314,81.4,311.4,77.9,309.2,75.1z M89.8,116.2c4.9,13.1,9.3,29.6-0.6,41.6
		c-7.7,9.1-20.4,12.8-32,12.5c-7.1-0.2-14.1-1.8-19.2-7.1c-4.2-4.4-6.6-10.2-8.1-16c-1.8-6.7-2.6-13.6-3.3-20.5
		c-0.9-8.6-1.4-17.2-1.7-25.8c-0.1-4.2,0-8.4-0.3-12.6c-0.3-4.2-1.3-8.1-2.2-12.1c-0.8-3.5-0.1-6.6,1.9-9.6c2.1-3,4.8-5.2,7.5-7.5
		C43.1,49.8,55.7,42,69.3,36c6.8-3,13.9-5.6,21-7.6c1.7-0.5,3.3-0.9,5.1-1.4c1.7-0.5,4.1-1.1,6.1-1c0.8,0,1.6,0.2,2.4,0.5
		C91.7,38.9,87.2,57.3,84.8,74.1c-0.7,4.5-1.2,9.1-1.7,13.6c0,0.2,0,0.4,0,0.6c-0.1,1.8-0.1,3.5,0.1,5.3
		C84,101.4,87.1,108.9,89.8,116.2z M103.1,36.6c-1.9,3.5-3.7,7.1-5.5,10.7c-2.5,5.3-4.9,10.7-7.2,16.1c1.8-8.3,4.4-16.4,8.5-23.9
		c1.9-3.4,4.1-6.5,6.7-9.4C105.8,32.3,104,35,103.1,36.6z M226.1,25.6c2.7,0.4,4.3,4.1,5.1,6.5c1.4,3.9,2.7,7.8,4.1,11.7l-0.8-1.3
		C231,37.2,227.5,31.8,226.1,25.6L226.1,25.6z M309.2,84.4c-0.6,1.6-1.9,2.8-3,4.1c-2.2,2.9-3.8,6.1-4.7,9.6
		c-1,3.6-1.6,7.2-2.1,10.9c-0.6,3.7-1.3,8.3-2,12.4c-1.2,7.7-2.2,15.6-3.8,23.2c-1.3,6.3-3.3,12.8-7.9,17.5
		c-9.2,9.6-24.8,7.8-35,0.9c-5.2-3.6-9.6-8.7-11.9-14.6c-2.6-6.8-1.9-13.7,0.3-20.5c2.2-6.8,5.6-14.3,7.3-21.8
		c3.5-15.6,2.9-31.8-1.8-47.1c-0.1-0.3-0.2-0.6-0.3-0.9c0-0.2-0.1-0.5-0.2-0.6c-2.4-7.6-5.3-15.2-8-22.8c-0.7-1.9-1.3-4-2.1-6
		c1.8,1.7,3.5,3.4,5.6,4.8c6.1,3.8,13.5,5.3,20.1,8c6.3,2.7,12.4,5.9,18.1,9.6c11.6,7.6,22.3,17.4,30.3,28.8
		C309.1,81.4,310,82.7,309.2,84.4z"/>
</g>
</svg>
