<?xml version="1.0" encoding="utf-8"?>
<!-- Generator: Adobe Illustrator 27.9.0, SVG Export Plug-In . SVG Version: 6.00 Build 0)  -->
<svg version="1.1" id="Layer_1" xmlns="http://www.w3.org/2000/svg" xmlns:xlink="http://www.w3.org/1999/xlink" x="0px" y="0px"
	 viewBox="0 0 278.2 195.6" style="enable-background:new 0 0 278.2 195.6;" xml:space="preserve">
<path style="stroke:#000000;stroke-linecap:round;stroke-linejoin:round;stroke-miterlimit:10;" d="M247.1,97
	c0.7-1.6,1.3-3.3,1.7-5.2c2-8.8,1.5-17.5,0.8-25.6c-0.9-9.8-3.4-19.9-7.6-30.7c-2.1-5.4-4-10.2-7-14.6c-3.3-4.9-8.1-6.4-13.5-4.3
	c-4.4,1.7-7.7,4.8-11.2,8.3c-10.5,10.5-19.7,22.9-27.4,36.9c-6.6,11.9-11.1,22.2-14.1,32.3c-0.1,0.1-0.4,0.4-0.7,0.5
	c-3.3,0.6-5.6,1.7-7.4,3.6c-0.1,0.1-0.4,0.2-1,0.2c-0.9,0-1.8-0.1-2.7-0.1c-1.3-0.1-2.6-0.1-3.9-0.1c-6.2,0.1-12.4,0.3-18.6,0.5
	c-5.6,0.1-11.1,0.3-16.7,0.4c-0.2,0-0.6-0.2-0.8-0.4c-0.7-0.7-1.3-1.4-2-2.1c-1.2-1.4-2.5-2.7-4-3.9c-2.5-1.9-4-4.2-4.9-7.1
	c-2.7-9.2-6.1-17.9-10.1-25.8c-5.3-10.4-11.2-21.4-19.6-30.6c-6.2-6.9-13.7-11.6-22.2-14.2c-6-1.8-10.2,0.1-12.9,5.8
	c-0.6,1.3-1.1,2.6-1.5,3.7c-5.4,16-7.9,32.8-7.5,51.4c0.1,6.8,0.4,13.9,2,20.8c0.3,1.4,0.8,2.7,1.2,4.1c0.1,0.3,0.2,0.6,0.3,0.9
	c-0.3,0-0.6,0.1-0.8,0.3c-0.6,0.3-1.1,1-1.3,1.9c-0.5,2.1-1.2,5-1.7,7.8c-1,5.8-1.7,11.1-0.4,16.7c0.8,3.7,2.3,8.3,6.6,11.7
	c0.5,0.4,1.2,1,2.1,1.1c-1.5,0.9-2.9,2.1-4.1,3.5c-0.3,0.3-0.3,0.7,0,1c1.3,1.3,2.7,1.2,3.9,1c-1,1-1.9,2-2.8,3.1
	c-0.4,0.5-0.7,1.1-0.9,1.7c-0.1,0.2-0.2,0.5-0.3,0.7c-0.1,0.2-0.1,0.5,0,0.7c0.1,0.2,0.3,0.3,0.6,0.4c0.3,0,0.6,0.1,0.8,0.1
	c0.7,0.1,1.4,0.2,2.1,0.2c0.5,0,1-0.2,1.4-0.4c0.2-0.1,0.3-0.1,0.5-0.2c-2.1,2.8-3.4,5.9-3.7,9.2c0,0.2-0.2,2.2,0.8,2.7
	c0.8,0.4,2,0.5,3,0.2c0.5-0.1,0.9-0.5,1.1-0.9c-1.1,3.1-1.5,6.6-1.2,10.5c0.1,0.7,0.5,1.7,1.1,2c0.6,0.3,1.2,0.5,1.8,0.5
	c0.4,0,0.9-0.1,1.3-0.2c1-0.4,1.8-1.3,2.2-2.4c0.1-0.2,0.1-0.4,0.2-0.5c0.1-0.2,0.1-0.5,0.2-0.7c1.6-3.7,3.4-6.1,7.3-6.3
	c0.4,0,0.7-0.2,1-0.3c0.1-0.1,0.3-0.2,0.5-0.2c0.2-0.1,0.4-0.3,0.4-0.6c0-0.2-0.1-0.5-0.2-0.7c-1.9-1.7-4.1-2.1-6.7-1.2
	c-1.4,0.5-2.7,1.1-3.9,1.8c-0.1,0-0.2,0.1-0.2,0.1c0.7-2.5,1.9-4.8,3.6-6.7c0.3-0.4,0.6-0.8,0.8-1.2c0.1-0.2,0.2-0.3,0.3-0.5
	c0.1-0.2,0.1-0.4,0.1-0.6c-0.1-0.2-0.2-0.4-0.5-0.5c-0.2-0.1-0.4-0.2-0.6-0.3c-0.6-0.2-1.1-0.5-1.8-0.5c-0.8,0-1.7,0.1-2.7,0.5
	c-0.7,0.2-1.3,0.5-2,0.8c0.9-1.9,2.4-3.3,4-4.7c0.2-0.1,0.3-0.4,0.2-0.6c0-0.2-0.1-0.4-0.3-0.6c-1.5-1.1-3.1-1.3-4.7-1.3
	c1-0.9,2-1.7,2.9-2.6c0.7-0.6,1-1.2,0.8-1.9c-0.1-0.6-0.6-1-1.4-1.3c-0.6-0.2-1.3-0.3-1.9-0.4c2.9-1.9,5.4-2.3,8.2-1.5
	c0.8,0.2,1.7,0.5,2.6,0.4c0.7-0.1,1.9-0.5,2.2-1.3c0.3-0.8-0.3-1.9-0.8-2.5c0,0-0.1-0.1-0.1-0.1c0,0,0,0,0,0c1.8,0,2.5-0.6,2.8-1.2
	c0.3-0.5,0.4-1.5-0.5-2.8c0-0.1-0.1-0.1-0.1-0.2c1.4,1.3,2.8,2.7,4.3,4l0.8,0.7c0.1,0.1,0.3,0.3,0.4,0.4c0.2,0.3,0.5,0.5,0.7,0.7
	c1,0.8,3.2,1.1,4.5,0.5c-0.3,0.5-0.4,1.1-0.4,1.5c-0.3,2.7-1.3,5.2-2.8,7.6c-1.8,2.8-2.8,5.6-3,8.5c0,0.1,0,0.1,0,0.2l0.3,1.6
	c0.2,1.3,0.5,2.6,0.8,3.9c0.2,0.8,0.6,1.4,1.2,1.7c0.2,0.1,0.5,0.2,0.8,0.2c0.2,0,0.5,0,0.8-0.2c0.9-0.4,1.2-1.7,1.2-2.3
	c0-0.8,0-1.6-0.1-2.3c-0.1-0.7-0.1-1.4-0.1-2.1c0-3.1,1.2-6,3.6-9.2c1.8-2.4,2.5-4.9,2.1-7.6c-0.1-1-0.3-2.6-2.3-2.6
	c-0.4,0-0.8,0.1-1,0.2c0.6-1,0.2-2.1,0-2.9l-0.1-0.3c-0.2-0.6-0.4-1.1-0.7-1.6c1.6,1,3.7,1,4.9,0.1c1.6-1.3,1-3.2,0.7-4.1
	c-0.5-1.4-1.1-2.8-1.9-4c-0.4-0.6-0.8-1.1-1.2-1.6c0.9,0.6,1.8,1.2,2.8,2c1.3,1,2.8,1.3,4.4,0.8c0.8-0.3,1.4-0.7,1.6-1.4
	c0.1-0.3,0.2-1-0.5-1.8c-0.9-1.1-1.9-2-2.8-3l-0.8-0.8c2.9-0.6,5.2-1.4,7.4-3c-0.1,0.3-0.2,0.6-0.4,1c-0.6,1.6-1.2,3.2-1.9,4.7
	c-0.2,0.4,0,0.8,0.4,1c0.6,0.3,1.1,0.4,1.6,0.4c1.2,0,2.1-0.7,2.8-2.2c1.4-3,2.6-6.1,3.8-9.1l0.5-1.2c1.4-3.5,2.8-7.1,6.8-8.6
	c0.3-0.1,0.5-0.3,0.6-0.5c0-0.1,0.1-0.1,0.1-0.2c0.1-0.2,0.2-0.4,0.2-0.6c0-0.2-0.1-0.4-0.3-0.5c-1.2-0.9-2.7-1-3.9-0.1
	c-1.4,1-2.9,2.1-4,3.5c-2.6,3.4-4.3,7.4-5.8,11.2c0-0.1-0.1-0.1-0.1-0.2l-3.3-2.9c0.4,0,0.8,0,1.2-0.1c1-0.2,1.6-0.5,1.8-1.1
	c0.4-0.7,0.1-1.6-0.2-2.1c-0.4-0.9-0.9-1.7-1.4-2.5l-0.3-0.5c-0.6-1.1-1.3-2.1-2-3.3l-0.2-0.2c0.2,0,0.4,0,0.6-0.1
	c1-0.1,2-0.2,2.8-0.8c1-0.8,0.2-3.2-0.1-3.9c-0.9-1.7-1.8-3.4-2.8-5c-0.1-0.1-0.1-0.2-0.2-0.3c0.4,0.1,0.9,0.2,1.4,0.2
	c1.3,0,3.1-0.1,3.8-1.1c0.6-0.8,0.2-2-0.2-3.1c-0.1-0.2-0.2-0.5-0.2-0.7c-0.2-0.6-0.6-1-1-1.4l-0.1-0.1c-0.7-0.7-1.3-1.3-2.1-2
	c0.6-0.2,1.2-0.4,1.8-0.6l0.7-0.3c0.2-0.1,0.4-0.2,0.5-0.5c0.1-0.2,0.1-0.4-0.1-0.6c-0.2-0.3-0.3-0.5-0.5-0.8
	c-0.4-0.7-0.7-1.4-1.3-1.9c-1.1-1-2.3-1.9-3.5-2.8c1,0.4,1.9,0.8,2.8,1.3c1.1,0.6,2.2,1.3,3.3,2c0.8,0.5,1.5,1,2.3,1.4
	c1.4,0.8,2.8,0.9,3.9,0c0.2-0.1,0.3-0.4,0.3-0.7l0-0.5c0-0.4-0.1-0.8-0.1-1.2c-0.1-0.9-0.1-1.8-0.2-2.7c-0.1-2-0.3-4.1-0.8-6
	c-3.9-14.2-10.6-27.6-20-39.9c-3.5-4.7-8.4-8.4-14.8-11.4c-0.7-0.3-1.5-0.4-2.2-0.4c-0.3,0-0.6,0-0.9-0.1c-0.2,0-0.4,0-0.6,0.1
	c-0.2,0.1-0.3,0.3-0.3,0.5l0,0.4c0,0.3,0.1,0.6,0.3,0.7c0.4,0.2,0.7,0.4,1.1,0.6c0.7,0.4,1.5,0.9,2.2,1.4
	c5.5,3.7,10.1,8.9,14.3,15.7c5.6,9.3,10.5,19.4,14.7,30.8c0.7,1.8,1.2,3.6,1.8,5.5c0.1,0.3,0.2,0.6,0.3,0.9
	c-4.3-2.6-8.7-3.4-13.2-2.2c-0.8,0.2-1.4,0.8-1.9,1.3c-0.2,0.2-0.4,0.4-0.7,0.6c-0.2,0.1-0.3,0.3-0.3,0.6c0,0.2,0.1,0.4,0.2,0.6
	l0.5,0.5c0.5,0.4,0.9,0.9,1.4,1.3c0.3,0.2,0.6,0.4,0.9,0.5c0.2,0.1,0.4,0.2,0.6,0.3c1,0.8,2.1,1.6,3.1,2.5l0.4,0.3l-2.4,1.3
	c-0.2,0.1-0.3,0.3-0.4,0.5c-0.1,0.2,0,0.4,0.1,0.6c0.2,0.2,0.3,0.5,0.5,0.7c0.4,0.6,0.8,1.2,1.2,1.7c0.6,0.7,1.1,1.3,1.7,2
	c-0.1,0-0.2,0-0.3,0c-1.3,0.1-2.5,0.2-3.8,0.4c-0.8,0.2-1.4,0.6-1.6,1.2c-0.1,0.4-0.3,1.2,0.5,2.1c0.4,0.5,0.7,1,1.1,1.5
	c-0.3,0-0.5-0.1-0.8-0.1c-0.8,0-1.8,0.1-2.3,1c-0.4,0.6-0.3,1.4,0.1,2.4c1.3,2.9,2.6,5.8,4,8.6l0.8,1.6c0.2,0.4,0.4,0.7,0.6,1.1
	c-0.1,0-0.3,0-0.4,0c-0.6,0-1.1,0.1-1.6,0.2c-0.7,0.2-1.7,0.5-2,1.4c-0.2,0.8,0.4,1.6,0.8,2.1c1,1,2,1.9,3.1,2.9
	c0.2,0.2,0.4,0.4,0.7,0.6c-0.4,0.2-0.6,0.3-0.9,0.4c-0.6,0.2-1.2,0.3-1.7,0.5c-1,0.3-2,0.5-3,0.9c-0.8,0.3-1.6,0.7-1.8,1.4
	c-0.1,0.3-0.1,0.7,0,1c-0.1,0-0.2,0-0.2,0c-1.1,0.1-2.3,0.2-3.4,0.5c-1.1,0.2-1.4,0.8-1.5,1.2c-0.1,0.4-0.2,1.1,0.6,2
	c0.2,0.2,0.4,0.5,0.6,0.7c0.5,0.5,1,1,1.3,1.5c0.5,0.8,1,1.7,1.5,2.5c-2.8-0.9-5.5-1.2-6.9,0.6c-0.4-0.3-0.7-0.6-1.1-0.8
	c-1.3-1-2.5-2-3.8-2.9c-2.5-1.8-5.3-3.4-8.7-3.4c0,0,0,0,0,0c-0.8,0-1.6,0.3-2.3,0.6c-0.3,0.1-0.6,0.2-0.9,0.3
	c-0.2,0.1-0.4,0.2-0.4,0.4c-0.1,0.2-0.1,0.4,0,0.6c0.1,0.2,0.2,0.5,0.3,0.7c0.3,0.6,0.6,1.3,1,1.8c1.4,1.5,2.8,3.1,4.2,4.5l0.4,0.4
	l-0.8-0.1c-1.6-0.1-3.3-0.2-4.9-0.2c-0.7,0-1.2,0.5-1.7,0.8c-0.2,0.1-0.3,0.3-0.5,0.4c-0.2,0.1-0.3,0.3-0.3,0.6
	c0,0.2,0.1,0.5,0.2,0.6c0.2,0.1,0.3,0.3,0.4,0.4c0.4,0.4,0.8,0.8,1.2,1.1c0.5,0.3,1,0.5,1.5,0.7c0.4,0.2,0.8,0.3,1.1,0.5
	c0.6,0.3,1.2,0.7,1.7,1c-1.9,0.3-3.7,0.8-5.3,1.5c0-0.1,0-0.3,0-0.4c-0.1-0.2-0.2-0.4-0.3-0.6c-2.8-4.3-2.8-8.5-0.3-12.9
	c0.5-0.9,1.1-1.8,1.7-2.7c0.4-0.6,0.8-1.2,1.2-1.8c1.6-2.5,1.9-5.1,1.1-7.7c-0.9-2.7-1.9-5.6-3.4-8.3c-3.2-5.7-5.1-11.9-5.8-19.2
	c-1.6-17.5-0.2-34.9,4.2-51.9c1.3-5,2.6-10.1,5.2-14.6c1.7-2.9,3.4-3.6,6.6-2.4c6.8,2.4,12.7,6.2,17.4,11.2
	c11.5,12.1,18.6,26.5,24.1,39c2,4.7,3.8,9.6,5.4,14.4c0.7,1.9,1.3,3.8,2,5.7c0.8,2.3,2.2,4.2,4.2,5.8c1.5,1.3,3.1,2.7,4.6,4
	c1.2,1.1,2.4,2.2,3.7,3.3c0.6,0.5,1.6,1.1,2.6,1.1c1,0,2,0,3-0.1c0.7-0.1,1.5-0.1,2.2-0.1c4.9,0,10.1-0.1,15.4-0.1
	c8.4,0.1,16.6,0.2,24.2,0.3c1.8,0,3.3-0.6,4.7-2c1-1,2.4-1.8,3.8-2.5c1.2-0.6,1.9-1,2.5-2.5c2.6-6.5,5.5-13.4,8.7-20
	c6.6-13.8,12.5-23.9,19.2-32.8c4.9-6.5,10.7-13.8,18-19.7c1.7-1.3,3.7-2.4,5.6-3.4l0.8-0.4c1.5-0.8,2.6,0.1,3.2,0.7
	c1.2,1.2,2.1,2.2,2.7,3.3c0.9,1.5,1.7,3.1,2.3,4.7c7.2,16.7,10.9,32.2,11.5,47.4c0.3,7.9,0.3,16.3-3,24c-1.4,3.3-0.6,5.7,0.5,8
	c0.5,1.1,1.1,2.3,0.9,2.7c-0.1,0.3-1.2,0.8-2.6,1.3c-0.2,0.1-0.4,0.2-0.6,0.2c-3.3,1.4-4.5,3.8-3.6,7.2c0.3,1,0.6,1.9,0.9,2.9
	c0.3,0.8,0.6,1.7,0.8,2.5l0.3,0.9c0.5,1.6,0.9,3.2,1.1,4.9c0.4,3.5-0.9,6.8-4.1,10.3c-1.1,1.2-2.3,2.4-3.5,3.6l-1.2,1.3
	c0.2-0.8,0.2-1.4-0.2-2c-0.5-0.8-1.6-1.2-3.1-1c-1.1,0.1-2.3,0.3-3.7,0.8c-2.3,0.7-4.5,1.4-6.8,2.1l-1.5,0.5
	c0.3-2.3-0.5-3.4-1.2-3.9c-0.7-0.5-2-1-4.2-0.1c-0.3,0.1-0.5,0.2-0.8,0.4c0.7-1.1,1.4-2.2,2-3.3c0.5-1,0.3-1.7,0.1-2.1
	c-0.3-0.5-0.8-1-2.1-1.1c-0.7,0-1.5,0.1-2.5,0.3c-0.2,0.1-0.4,0.1-0.6,0.2c0.3-0.4,0.5-0.7,0.7-1.1c0.7-1.2,1.1-2.2,1.4-3.2
	c0.3-0.9,0.8-2.8-1-3.7c-1.4-0.8-2.9-0.5-4.2,0.6c-0.4,0.4-0.9,0.8-1.4,1.1c0.2-1.1,0.3-2.1,0.2-3.2c-0.2-2.4-2-2.4-3.2-2.4
	c0.5-0.9,1-1.9,1.5-2.8c1.6-3,3.3-6.2,4.9-9.3c0.6-1.2,0.7-2.1,0.2-2.8c-0.5-0.7-1.4-1-2.8-0.9c-0.6,0-1.3,0.2-1.8,0.3
	c0.1-0.3,0.2-0.5,0.2-0.8c0.5-1.7,1-3.4,1.5-5.1c0.1-0.6,0.4-2.1-0.1-3.2c-0.3-0.6-1-1-1.5-1.3c0.4-0.7,0.8-1.4,1.1-2.2
	c1.2-2.2,2.4-4.6,3.5-6.9c0.5-1.1,0.6-2,0.2-2.6c-0.4-0.7-1.3-1-2.6-0.9c-0.5,0-1,0.1-1.6,0.2l0.4-0.7c1.1-1.9,2.2-3.7,3.2-5.6
	c0.3-0.5,0.4-1,0.4-1.4c0-0.2,0.1-0.4,0.1-0.5c0-0.2,0-0.4-0.1-0.6c-0.1-0.2-0.3-0.3-0.5-0.3c-0.2,0-0.4-0.1-0.6-0.2
	c-0.5-0.1-1.1-0.3-1.7-0.3c-0.7,0-1.4,0.4-1.9,0.7c-2.2,1.3-4.4,2.6-6.6,3.8l-0.7,0.4c2-9.7,4.8-20.8,10.6-31.1
	c6.9-12.3,14.9-19.9,25.2-24c0.4-0.2,0.7-0.4,0.9-0.7c0.1-0.1,0.2-0.2,0.2-0.2c0.2-0.2,0.3-0.5,0.2-0.8l-0.1-0.5
	c-0.1-0.3-0.4-0.5-0.7-0.5c-0.3,0-0.7,0-1-0.1c-0.9-0.1-1.8-0.1-2.6,0.2c-2.4,0.9-4.8,1.9-7,3.3c-11.8,7.8-20.1,18.6-24.8,32
	c-3.3,9.5-5.3,19.3-6.9,27.8c-0.2,0.9,0,1.6,0.4,2.1c0.3,0.3,0.8,0.6,1.8,0.5c0.4-0.1,1.9-0.4,2.7-1.4c1.7-2.1,3.5-3.8,5.4-5.2
	c-0.9,1.6-1.7,3.1-2.6,4.6c0,0-1,2-0.1,2.6c0.4,0.2,1.4,0.8,2.5,0.7c0.6,0,1.1-0.2,1.6-0.4l-0.7,1.2c-1.1,2-2.3,4-3.4,6
	c-0.9,1.5-1.4,2.5-1,3.3c0.4,0.8,1.4,1,2.9,1.3c0,0,0,0,0,0c0,0,0,0,0,0c-0.3,0.7-0.6,1.4-0.9,2.1c-0.8,2.1-1.7,4.2-2.6,6.2
	c-0.4,0.9-0.8,1.9-0.3,2.6c0.5,0.7,1.4,0.8,2.4,0.8c0.9,0,1.8-0.3,2.6-0.5c0.2-0.1,0.4-0.1,0.6-0.2c-0.4,0.7-0.7,1.3-1,2
	c-0.6,1.1-1.2,2.2-1.7,3.3c-1.1,2-2.2,4-3.2,6.1c-0.8-8.9-4.7-16-11.5-20.9c-1.3-1-3-1.4-4.6-1.8c-0.4-0.1-0.7-0.2-1.1-0.3
	c-0.6-0.2-1.3,0-1.9,0.1c-0.2,0-0.4,0.1-0.7,0.1c-0.3,0-0.6,0.3-0.6,0.7l0,0.5c0,0.3,0.2,0.6,0.4,0.7l0.4,0.2
	c0.3,0.1,0.6,0.3,0.9,0.4c0.3,0.1,0.6,0.3,0.9,0.4c0.6,0.3,1.2,0.5,1.7,0.9c5,4.1,8.2,8.5,10,13.3c0.6,1.7,1.2,3.4,1.8,5.1l0.5,1.5
	c0.2,0.6,0.5,1.4,1.3,1.7c0.2,0.1,0.4,0.1,0.7,0.1c0.2,0,0.5,0,0.7-0.2c0.2-0.1,0.3-0.2,0.5-0.4c0,0.2,0.1,0.3,0.2,0.5
	c0.4,0.6,1.1,0.9,2.2,0.9c0.8,0,1.6-0.1,2.3-0.2c0.1,0,0.1,0,0.2,0c0.1,1.5-0.2,2.5-1.3,4.9c-0.2,0.4-0.7,1.6-0.1,2.5
	c0.6,0.8,1.8,0.7,2.2,0.7c0.9-0.1,1.8-0.4,3-1.1c0.1-0.1,0.3-0.2,0.4-0.2l-1.5,2.1c-0.5,0.7-1.1,1.8-0.7,2.7
	c0.4,0.9,1.6,1.1,2.4,1.2c0.9,0.1,1.8,0,2.7-0.1c-0.8,0.8-1.5,1.6-2.2,2.4c-0.5,0.5-0.8,1.1-1.2,1.7c-0.1,0.2-0.3,0.5-0.5,0.7
	c0,0,0,0,0,0.1c-0.1-0.1-0.1-0.2-0.2-0.4c-0.3-0.6-0.9-0.9-1.4-1.1c-0.2-0.1-0.3-0.2-0.5-0.3c-0.2-0.1-0.4-0.2-0.7-0.1
	c-0.2,0.1-0.4,0.3-0.4,0.5c0,0.1-0.1,0.3-0.2,0.5c-0.2,0.5-0.4,1-0.2,1.5c1.2,5,3.4,9.9,7.1,15.9c1,1.5,2.2,2.9,3.3,4
	c0.4,0.5,1.1,0.6,1.6,0.8c0.2,0,0.4,0.1,0.6,0.2c0.1,0,0.2,0,0.2,0c0.2,0,0.5-0.1,0.6-0.3l0.3-0.4c0.2-0.2,0.2-0.5,0.1-0.8l-0.3-0.7
	c-0.3-0.5-0.5-1.1-0.8-1.6c-0.5-0.9-1.1-1.8-1.6-2.6c-1.1-1.7-2.2-3.5-3.1-5.3c-1-1.9-1.8-3.9-2.6-5.8c-0.4-1-0.8-1.9-1.3-2.9
	l0.8,0.3c0.7,0.3,1.5,0.5,2.2,0.7c0.4,0.1,0.9,0,1.2-0.1l0.2,0c1.4-0.3,2.7-0.6,4.1-0.9l0.3-0.1l0,0.1c-0.2,1.1-0.3,2.6,0.6,3.5
	c0.7,0.7,1.9,0.8,3.7,0.4c0.7-0.2,1.3-0.4,2-0.7c0.5-0.2,1-0.4,1.5-0.6c0.7-0.3,1.5-0.6,2.2-0.9c1.6-0.6,3.2-1.1,4.8-1.6l0.9-0.3
	c-0.3,0.8-0.4,1.5,0,2c0.4,0.7,1.3,0.9,2.4,1c0.5,0.1,0.9,0.1,1.4,0.2c-0.4,0.1-0.8,0.1-1.2,0.2c-1.2,0.2-2.5,0.3-3.6,1.3
	c-0.2,0.2-0.3,0.4-0.3,0.7c0,0.3,0.2,0.5,0.4,0.6c2.4,1.1,4.8,2.4,6.7,4.2h-0.3c-1.8,0-3.6,0-5.4,0c-0.8,0-1.6,0.1-2.3,0.3
	c-0.7,0.2-1.2,0.5-1.4,1c-0.2,0.5-0.1,1.1,0.3,1.8c0.9,1.4,1.8,2.9,2.8,4.7c0.1,0.2,0.3,0.5,0.4,0.7c-0.8-0.7-1.7-1.4-2.6-1.9
	c-0.8-0.4-1.7-0.3-2.5-0.3c-0.3,0-0.7,0-1,0c-0.3,0-0.4,0.1-0.6,0.3c-0.1,0.2-0.2,0.4-0.2,0.6c0,0.2,0.1,0.5,0.1,0.7
	c0.1,0.6,0.2,1.2,0.4,1.8c0.1,0.4,0.4,0.8,0.6,1.1c0.1,0.2,0.2,0.3,0.3,0.5c1.3,2.5,2.7,5.1,4,7.6l0.9,1.7l-0.5-0.3
	c-1.8-1.1-3.6-2.2-5.4-3.2c-0.5-0.3-1.1-0.4-1.7-0.6c-0.2-0.1-0.4-0.1-0.7-0.2c-0.3-0.1-0.7,0.1-0.9,0.4l-0.3,0.5
	c-0.1,0.2-0.1,0.5,0.1,0.8c0.1,0.1,0.1,0.2,0.2,0.3c0.2,0.3,0.4,0.6,0.7,0.8c0.5,0.4,0.9,0.8,1.4,1.1c1.3,1.1,2.6,2.2,4.1,3.2
	c1.9,1.2,4,2.4,6.6,2.4c0.2,0,0.4,0,0.5,0c0.8-0.1,1.8-0.2,2.3-1c0.4-0.8,0-1.8-0.4-2.5c-1.4-2.4-2.8-5-4-7.3
	c-0.1-0.1-0.1-0.2-0.2-0.3c0.2,0.1,0.3,0.2,0.5,0.3c0.8,0.5,1.9,1.1,3.1,1.2c0.4,0,1.6,0.2,2.2-0.7c0.6-0.8,0.1-2,0-2.3
	c-1.1-2.6-2.3-5.3-3.4-7.9l-1-2.2l0.7,0.1c1.7,0.2,3.4,0.4,5.1,0.5c1.3,0.1,2.3,0.1,3.2-0.1c1-0.2,1.4-0.8,1.5-1.1
	c0.1-0.3,0.2-1-0.4-1.9c-0.6-0.8-1.4-1.8-2.3-2.6c-0.9-0.8-1.9-1.6-2.8-2.3c-0.1-0.1-0.1-0.1-0.2-0.2c0,0,0,0,0,0
	c0.9-0.5,1.7-0.9,2.6-1.5c0.5-0.4,0.7-0.9,0.9-1.4c0.1-0.2,0.1-0.3,0.2-0.5c0.1-0.2,0.1-0.4,0-0.6c-0.1-0.2-0.2-0.3-0.4-0.4
	c-0.2-0.1-0.3-0.2-0.5-0.3c-0.4-0.2-0.9-0.5-1.4-0.6c0,0,0,0-0.1,0l0.2-0.1c1.5-0.8,3-1.6,4.3-2.8c3.2-2.8,5-6.4,6.4-9.5
	c2.7-6.1,3.7-11.9,3-17.8c-0.1-0.6-0.2-1.2-0.5-1.6c-0.3-0.4-0.6-0.6-0.9-0.8c-0.1-0.1-0.2-0.1-0.3-0.2c-0.2-0.1-0.4-0.2-0.6-0.1
	c-0.2,0-0.4,0.1-0.5,0.3c-0.1,0.1-0.1,0.2-0.2,0.3c-0.3,0.3-0.6,0.7-0.6,1.2c-0.1,0.6-0.1,1.2,0,1.9c0,0.6,0,1.1,0,1.7
	c-0.1,1.3-0.2,2.6-0.4,3.9l0-0.1c-0.8-2-1.6-3.9-2.4-5.8c-0.6-1.5-0.3-2.1,1.2-2.7c0.5-0.2,1-0.4,1.5-0.5c0.7-0.3,1.4-0.5,2.1-0.8
	c2.3-1.1,3.1-2.7,2.4-5.2c-0.6-2.3-1.8-4.3-3.5-5.8c0.2-0.3,0.4-0.6,0.5-0.9C246,99.2,246.6,98.1,247.1,97z M37.9,105.5
	c0.2,0.4,0.3,0.8,0.5,1.2c1,2.4,2.1,4.8,3.1,7.3c0.9,2.4,0.6,4.8-0.8,7.1l-0.5,0.7c-0.7,1.1-1.3,2.1-1.9,3.2
	c-0.8,1.4-1.3,2.8-1.7,4.4C34.5,121.8,35.8,114.2,37.9,105.5z"/>
</svg>
