<?xml version="1.0" encoding="utf-8"?>
<!-- Generator: Adobe Illustrator 27.9.0, SVG Export Plug-In . SVG Version: 6.00 Build 0)  -->
<svg version="1.1" id="Layer_1" xmlns="http://www.w3.org/2000/svg" xmlns:xlink="http://www.w3.org/1999/xlink" x="0px" y="0px"
	 viewBox="0 0 217.2 160.8" style="enable-background:new 0 0 217.2 160.8;" xml:space="preserve">
<path style="stroke:#000000;stroke-width:3;stroke-linecap:round;stroke-linejoin:round;stroke-miterlimit:10;" d="M206.7,76.1
	c-1.1-6.6-4-12.6-7.2-18.5c-2.9-5.3-6.5-10.2-10.6-14.6c-4.1-4.4-8.7-8.4-13.6-11.9c-1.3-0.9-2.6-1.8-3.9-2.7
	c-1.3-0.9-2.7-1.6-3.8-2.6c-2.3-2-4.3-5.4-7.6-6.1c-1.7-0.4-3,0.2-4.4,1.1s-2.5,1.6-4,1.5c-1.5-0.1-2.8-1.2-4-2
	c-1.4-1-2.9-1.9-4.4-2.8c-5.7-3.2-12.1-4.8-18.6-5.6c-6.9-0.8-13.8-0.8-20.7,0c-6.9,0.9-13.7,2.7-20.4,4.8
	c-3.4,1.1-6.7,2.3-10.1,3.5l-4.9,1.8L66.4,23c-0.9,0.3-1.8,0.8-2.7,1c-0.9,0.1-1.5-0.2-2.3-0.4c-0.8-0.2-1.7-0.3-2.5-0.4
	c-1.6-0.1-3.2,0.4-4.5,1.4c-1.3,1.1-2.5,2.4-3.7,3.7c-0.3,0.3-0.5,0.5-0.8,0.8c-0.2,0.3-0.3,0.7-0.4,1c-0.2,0.3-0.9,1-1.3,1.4
	c-0.4,0.5-0.8,1.2-1.3,1.8c-0.5,0.7-1.1,1.3-1.7,1.9c-1.2,1.2-2.4,2.4-3.6,3.5C39,41,36,43.1,33.2,45.2s-5.2,3.9-7.5,6.1
	c-1.1,1.1-2.2,2.3-3.2,3.5c-0.9,1.1-1.6,2.4-2.5,3.5c-1,1-1.8,2.9-2.5,4.4s-1.7,3.4-2.6,5.1c-1.6,3.3-3.3,6.6-4.9,9.9
	c-0.7,1.6-1.6,3.1-1.9,4.9c-0.3,1.6-0.2,3.2,0.3,4.8c1,3.3,2.8,6.3,3.6,9.6c2.7,10.3,3.4,21,6.4,31.2c1.5,5,3.5,9.9,6.7,14
	c3.5,4.6,8.8,8.1,14.5,9.2s11.9-0.6,16.6-4.4c4.2-3.4,7-8.2,8.6-13.3c1.6-5.1,1.9-11.2,1.8-16.8c-0.1-6.5-0.6-13-1.5-19.5
	c-0.5-4.3-1.2-8.7-1.9-13c0.1,0.1,0.1,0.3,0.2,0.4c0.7,1.1,1.5,2.2,2.3,3.2c0.5,0.6,1.6,0.5,2.1,0s0.5-1.5,0-2.1l-0.1-0.1
	c0,0,0,0,0,0l-0.3-0.4l-0.6-0.8c-0.4-0.5-0.7-1-1-1.6c-0.7-1.1-1.3-2.3-1.9-3.6l-0.1-0.3l-0.1-0.4l-0.4-1c-0.2-0.6-0.4-1.2-0.6-1.9
	c-0.2-0.7-0.4-1.6-0.6-2.4C61.4,61.3,65.6,50,72.2,40.1c1.8-2.7,3.7-5.2,5.1-8.1c0.7-1.4,1.3-2.9,1.8-4.4c0.4-1.4,1-3.1,0.3-4.6
	c-0.2-0.5-0.6-1-1.1-1.3l3.5-1.2c6.6-2.2,13.2-4.1,20.1-5.3c6.8-1.1,13.6-1.2,20.4-0.6c6.3,0.5,12.6,1.9,18.3,4.8
	c1.5,0.8,3,1.6,4.3,2.6c1.3,0.9,2.5,1.8,3.9,2.5c1.4,0.7,3.1,1,4.6,0.7c1.5-0.3,2.8-1.2,4.1-2c1.3-0.8,2.4-0.5,3.5,0.5
	s2.3,2.4,3.5,3.6c2.2,2.1,5,3.6,7.5,5.3c9.8,6.7,18.3,15.2,24.2,25.5c3.2,5.6,6,11.5,7.3,17.8c1.3,6.4,0.4,12.1-0.5,18.2
	c-1.9,12.1-5.1,24-9.6,35.5c-1,2.5-2,5.2-3.4,7.5c-1.4,2.3-3.8,4-6.6,4.8c-4.9,1.4-10.3,0.2-14.5-2.5c-4.9-3.1-8.3-8.2-8.5-14.1
	c-0.1-3.3,0.4-6.4,1-9.7c0.1-0.7,0.5-1.3,0.7-2c0.2-0.7,0.4-1.6,0.5-2.4c0.3-1.4,0.7-2.8,1.1-4.3c1.6-5.9,3.1-11.8,4.5-17.7
	c3.5-2.9,5.9-6.8,6.9-11.2c1.2-5.4,0.4-11-1.2-16.3c-0.1-0.6-0.3-1.2-0.5-1.7c0.2-3.1,0.1-6.2-0.4-9.3c-0.8-6-3.3-11.7-7.1-16.4
	c-1.7-2.1-3.8-3.9-6.1-5.4c-1-0.7-2.1-1.2-3.2-1.7c-0.5-0.2-1.1-0.4-1.7-0.6c-0.3-0.2-0.7-0.3-1.1-0.4c-1.9-0.4-2.6,2.2-0.8,2.9
	l0.7,0.3h0.1c2.6,2.6,4.6,5.6,6.5,8.7c2.1,3.6,4,7.3,5.7,11.1c1.6,3.7,3.1,7.5,4.3,11.4c-0.3,4.9-1.3,9.7-2.3,14.4
	c-0.8,4.3-1.8,8.5-2.8,12.7c-0.3,0.4-0.4,0.8-0.3,1.3l-1.2,4.9c-1.5,5.9-3.3,11.8-4.6,17.8c-0.1,0.7-0.4,1.4-0.7,2.1
	c-0.4,0.8-0.4,1.7-0.6,2.6c-0.3,1.7-0.6,3.4-0.7,5c-0.3,3.3-0.1,6.7,1,9.8c3.8,10.4,16.6,17.2,27.2,13.1c2.8-1,5.2-3,6.8-5.6
	c1.5-2.4,2.6-5.3,3.6-7.9c2.3-5.8,4.2-11.7,5.8-17.7c1.6-6.1,3-12.2,4-18.4C207.1,88.5,207.8,82.3,206.7,76.1z M63.3,107.1
	c0.5,6.1,0.7,12.2,0.2,18.3c-0.4,5.2-1.9,10.3-4.8,14.6c-2.9,4.3-7.5,7.9-12.8,8.7c-5.8,0.9-11.7-1.7-15.9-5.6
	c-3.7-3.3-6-8-7.6-12.6c-1.8-5.1-2.9-10.3-3.8-15.6c-0.9-5.3-1.6-10.3-2.8-15.4c-0.6-2.8-1.5-5.6-2.6-8.2c-1.3-2.9-2.9-5.9-1.9-9.2
	c0.5-1.7,1.5-3.2,2.2-4.8c0.7-1.6,1.6-3.3,2.4-4.9c1.6-3.3,3.3-6.5,4.9-9.7c0.3-0.7,0.7-1.5,1.1-2.1c0.4-0.5,0.9-1,1.2-1.6
	c0.8-1.3,1.7-2.5,2.8-3.7c2-2.3,4.3-4.3,6.7-6.2l8.3-6.3c2.7-2,5.2-4.4,7.4-6.9c1-1.1,1.8-2.4,2.9-3.5c0.3-0.2,0.5-0.5,0.7-0.8
	c0.1-0.2,0.2-0.5,0.3-0.8c0.1-0.2,1.2-1.3,1.7-1.8c1-1,2-2.4,3.4-2.7s3.1,0.2,4.6,0.5c1.5,0.3,3.4-0.3,5.1-1l4.1-1.5
	c-1.7,1.9-3.3,3.9-4.7,6.1c-1.9,2.8-3.5,5.7-4.9,8.8c-1.5,3.2-2.9,6.5-3.8,9.9C56,55.6,56,62.3,57.4,68.9
	C59.9,81.5,62.2,94.3,63.3,107.1z M76.7,24.8c-0.1,0.8-0.3,1.6-0.6,2.4c-0.5,1.5-1.1,3-1.9,4.3c-1.6,2.9-3.6,5.5-5.3,8.2
	c-3.5,5.4-6.3,11.3-8.1,17.5c-0.5,2-1,4-1.3,6c-0.2-1.7-0.2-3.4-0.2-5.2c0.3-6.9,2.8-13.7,6-19.8c1.6-3,3.3-5.9,5.3-8.7
	c0.9-1.1,1.8-2.2,2.8-3.3c0.7-0.8,1.6-1.9,2.8-2C76.9,24.4,76.8,24.4,76.7,24.8z M162.6,35.4c-0.4-0.7-0.9-1.3-1.3-2
	c1.4,1.3,2.7,2.7,3.8,4.3c2.6,3.8,4.3,8.1,5.1,12.6C168.1,45.2,165.5,40.2,162.6,35.4z M172.2,70.5c0.1-0.7,0.3-1.4,0.4-2.2
	c0.4,2.3,0.4,4.7,0.1,7c-0.4,2.9-1.4,5.7-3.1,8.1C170.6,79.2,171.5,74.9,172.2,70.5z"/>
</svg>
