<?xml version="1.0" encoding="utf-8"?>
<!-- Generator: Adobe Illustrator 27.9.0, SVG Export Plug-In . SVG Version: 6.00 Build 0)  -->
<svg version="1.1" id="Layer_1" xmlns="http://www.w3.org/2000/svg" xmlns:xlink="http://www.w3.org/1999/xlink" x="0px" y="0px"
	 viewBox="0 0 206.6 175.2" style="enable-background:new 0 0 206.6 175.2;" xml:space="preserve">
<g>
	<path style="stroke:#000000;stroke-width:3;stroke-linecap:round;stroke-linejoin:round;stroke-miterlimit:10;" d="M190.6,119.3
		c-0.4-1.1-1-2-1.9-2.6c-0.7-0.5-1.5-0.8-2.4-1l-2.4-0.4l-0.6-0.1h0c0,0,0-0.1-0.1-0.1l0.2-0.1l0.8-0.6l0.4-0.3l0.2-0.2
		c0.6-0.4,1.2-0.8,1.8-1.2c0.4-0.3,0.8-0.7,1-1.2c0.2-0.4,0.2-0.8,0.2-1.1c0-0.7-0.4-1.4-0.6-2c-0.2-0.6-0.4-1.2-0.6-1.9
		c-0.1-0.2-0.1-0.4-0.1-0.5v-0.1c0-0.1,0-0.2-0.1-0.3c0-0.1-0.1-0.7-0.2-1c-0.1-0.4-0.3-1.2-0.5-1.9c0-0.2-0.1-0.3-0.1-0.5
		c-0.1-0.1-0.1-0.3-0.1-0.4c0,0,0-0.1,0-0.1c0-0.2,0-0.2,0-0.3v-0.8c0.1-0.1,0.1-0.4,0.1-0.4l0-0.1c0,0,0.1-0.2,0.1-0.2l0.3-0.5
		c0.3-0.5,0.3-1.1-0.1-1.5l-0.1-0.1l-0.1-0.1l-0.1-0.1h-0.1l-0.1-0.1h-0.1l-0.1-0.1c3.4-5,3.7-11.3,2.4-17.1c-0.5-2.1-1.2-4.2-2-6.2
		c0.3-0.4,0.4-0.8,0.3-1.3c-0.6-2.8-1.1-5.5-1.8-8.3c-0.2-1-0.5-1.9-0.7-2.9c-0.1-0.2-0.1-0.5-0.1-0.7c0-0.1,0-0.2,0-0.2
		c0,0,0-0.1,0-0.1v-0.2c-0.1-0.5-0.1-0.9-0.1-1.4c0-0.1,0-0.2,0-0.4c0-0.1,0-0.1,0-0.1l0.2-0.6l0.1-0.1c0.1-0.1,0.1-0.1,0.1-0.2
		c0,0,0-0.1,0.1-0.1v-0.1c0-0.1,0.1-0.1,0.1-0.1s0.4-0.3,0.1-0.1c0.4-0.2,0.6-0.6,0.6-1c0.1-0.4-0.1-0.8-0.4-1.1
		c-0.5-0.5-1-1-1.5-1.6l-0.6-0.8l-0.4-0.5l-0.2-0.3l-0.2-0.2l-0.4-0.5l-0.1-0.3l-0.1-0.2l-0.1-0.4v-0.3c0,0,0-0.2,0-0.2
		c0-0.1,0-0.1,0-0.1l0.1-0.3c0-0.1,0.1-0.2,0.1-0.3c0,0,0.1-0.1,0.1-0.1c0.1-0.2,0.2-0.4,0.4-0.6l0.2-0.2h0l0.1-0.1
		c0.4-0.4,0.7-0.8,1.1-1.1l0.6-0.5l0.3-0.3c0-0.1,0.1-0.1,0.1-0.1h0c0.4-0.2,0.6-0.6,0.6-1s-0.1-0.8-0.4-1.1
		c-0.4-0.4-0.8-0.7-1.2-1.1c-0.2-0.2-0.4-0.4-0.6-0.6l-0.2-0.2c0,0,0-0.1,0-0.1l-0.2-0.2c-0.7-0.9-1.2-2-1.7-3c0,0-0.1-0.1-0.1-0.2
		l-0.1-0.4c-0.1-0.3-0.2-0.5-0.3-0.8c-0.2-0.5-0.4-1.1-0.5-1.7c-0.1-0.5-0.2-1.1-0.4-1.6c0-0.1,0-0.2-0.1-0.4c0-0.1,0-0.2,0-0.3v0
		c0-0.2-0.1-0.4-0.1-0.6c0-0.3-0.1-1-0.1-1.5s0-0.5,0.1-0.8v-0.1c0.7-1.8,1.2-3.7,1.7-5.6c0.9-3.7-0.2-7.7-1.4-11.2
		c-0.5-1.5-1.4-2.7-3.2-2.8c-1.8,0-2.7,1.1-3.2,2.5c-1.2,3.3-2.4,6.7-3.7,9.9c-0.8,1.8-1.5,3.5-2.3,5.3c-0.8,1.7-1.6,3.6-2.6,5.3
		c-1.5,2.6-4,4.2-6.4,6.1c-1.3,0.9-2.4,2-3.4,3.2c-1.1,1.3-1.9,2.8-2.7,4.3c-1.7,2.8-3.6,5.3-6.1,7.4c-2.6,2-5.5,3.2-6.8,6.1
		c-1.3,3,0.2,6.2-0.2,9.3c-0.3,2.5-3.3,3.2-5.5,3.4l-0.6,0.1c-3.7,0.2-7.4-0.9-10.8-2.1c-3.5-1.2-7.3-2.7-11.1-3.6
		c-4-0.9-8.2-1.4-12.4-1.3c-4.2,0.1-8.2,1-12.2,2.2c-4,1.1-8.1,1.7-12.2,1.8c-1.3,0-2.7,0-4-0.1l-0.2-0.1l-0.7-0.1l-0.7-0.1
		c-1.3-0.2-2.6-0.6-3.7-1.4c-1-0.9-1.2-2.5-0.9-4s0.6-3.6,0-5.3c-1.1-3.1-3.8-5.1-6.1-7.4c-2.7-2.7-4.5-6.1-6.3-9.4
		c-3.7-6.8-8.4-12.8-13.2-18.9C33.8,19.3,30,14.4,26,9.5c-1.5-1.8-4.4-1.6-5.5,0.5c-0.4,0.8-0.4,1.9-0.5,2.8c-0.1,1.1,0,2.1,0.1,3.2
		c0.2,2.1,0.6,4.1,1.2,6.1c0.7,2.4,1.5,4.8,2.3,7.2c-0.4,0.1-0.7,0.5-0.8,0.9c-0.3,1-0.6,2-0.9,3l-0.3,0.8c-0.1,0.1-0.1,0.1-0.1,0.2
		c0,0,0,0.1,0,0.1c-0.1,0.1-0.1,0.1-0.1,0.2l-0.6,1.4c-0.5,0.9-1,1.8-1.6,2.7l-0.9,1.3l-0.2,0.3c0,0-0.2,0.2-0.2,0.3
		c-0.1,0.2-0.3,0.4-0.5,0.5c-0.6,0.8-0.5,1.6,0.3,2.1h0.1l0.2,0.2l0.6,0.5c0.4,0.3,0.7,0.6,1,1l0.2,0.2l0.1,0.1
		c0.1,0.2,0.2,0.4,0.4,0.5c0.1,0.2,0.2,0.4,0.3,0.5V46c0,0.1,0.1,0.2,0.1,0.4c0,0.1,0,0.2,0,0.3h0v0.3c0,0,0,0.1,0,0.1
		c0,0.2-0.1,0.4-0.1,0.5c0,0.1-0.1,0.1-0.1,0.2c-0.1,0.1-0.1,0.2-0.2,0.4l-0.2,0.3L20,48.5l-0.5,0.6c-0.4,0.4-0.7,0.9-1.1,1.3
		c-0.9,0.9-1.7,1.9-2.6,2.7c-0.3,0.3-0.4,0.7-0.4,1.1c0.1,0.4,0.3,0.8,0.6,1c0,0,0.1,0,0.1,0.1c0.1,0.1,0.2,0.1,0.2,0.2l0.2,0.2
		l0.1,0.1c0.1,0.2,0.2,0.3,0.3,0.5c0,0,0,0,0,0.1l0.1,0.1h0c0.1,0.1,0,0.1,0,0.1l0.1,0.1c0.1,0.2,0.1,0.4,0.1,0.6l0.1,0.3v0.1
		c0.1,0.5,0.1,0.9,0.1,1.3c0,0.5-0.1,0.9-0.1,1.4v0.1h0c0,0.1,0,0.2,0,0.3c0,0.1-0.1,0.5-0.1,0.7c-0.2,1.2-0.5,2.3-0.8,3.5l-0.9,4.3
		c-0.1,0.5,0.1,1,0.4,1.3c-2.1,5.2-3.4,10.8-2.4,16.5c0.4,2.4,1.3,4.7,2.7,6.8l-2.6-0.1c-0.3,0-0.6,0.1-0.8,0.3
		c-0.2,0.1-0.3,0.3-0.4,0.5c0,0.1,0,0.1-0.1,0.2c0,0.1,0,0.1,0,0.2V95c0,0.4,0.1,0.8,0.4,1l0.1,0.1c0.1,0.1,0.1,0.2,0.2,0.3l0.5,0.7
		c0.3,0.5,0.6,0.9,0.9,1.4l0.4,0.7v0.1l0.1,0.1l0.2,0.4c0.1,0.2,0.1,0.5,0.2,0.7c0,0,0,0.1,0,0.1v0.1c0,0.1,0,0.3,0,0.4s0,0.2,0,0.4
		v0.1v0.1c0,0.2,0-0.1,0-0.1s-0.1,0.4-0.1,0.4l-0.1,0.4c0,0.1-0.1,0.1-0.1,0.1c-0.1,0.1-0.1,0.2-0.1,0.3l-0.4,0.6l-0.1,0.2l-0.1,0.1
		l-0.5,0.6c-0.3,0.4-0.6,0.7-0.9,1.1c-0.8,0.9-1.5,2-1.6,3.2c-0.1,0.6,0.2,1.5,0.9,1.6c0.4,0.1,0.7,0.1,1,0.2l0.4,0.2h0.1l0.2,0.1
		l0.4,0.2c-2,2.3-3.2,5.4-3.2,8.5c0,0.6,0.4,1.1,1,1.3c0.4,0.1,0.8,0.2,1.2,0.3l0.5,0.2c0,0,0.2,0.1,0.2,0.1l0.1,0
		c0,0.1,0,0.2,0,0.4c-0.1,0.3-0.2,0.6-0.3,0.9c-0.2,1.2,0.1,2.4,0.7,3.4c0.8,1.3,2.3,1.9,3.7,2.4l1.1,0.3l0.5,0.2h0.1l0.3,0.2
		c0.4,0.2,0.7,0.5,1,0.8L21,130H21l0.4,0.4c0.3,0.3,0.5,0.5,0.8,0.8l0.1,0.2h0c0.1,0.2,0.2,0.3,0.4,0.5c0.2,0.3,0.4,0.5,0.5,0.8
		c0.1,0.2,0.2,0.3,0.2,0.4l0.1,0.2c0,0,0.2,0.4,0.2,0.6l0.1,0.4c0.1,0.3,0.2,0.7,0.3,1c0.1,0.4,0.2,0.6,0.2,1l0.1,0.5
		c0,0.1,0,0.2,0,0.3c0.3,2.8,0.1,5.7-0.1,8.5c-0.2,4-0.1,8.1,0.4,12.1c0.1,0.7,0.6,1.4,1.3,1.3c0.8,0,1.4-0.6,1.3-1.3
		c-0.4-3.6-0.5-7.2-0.4-10.9c0.1-2.7,0.4-5.5,0.2-8.2c-0.1-2.2-0.5-4.6-1.5-6.7c-0.2-0.3-0.6-1.2-0.8-1.5c-0.9-1.3-2-2.5-3.4-3.3
		c-0.7-0.4-1.5-0.8-2.3-1l-1.1-0.3l-0.5-0.2l-0.2-0.1h0c0,0,0,0-0.1,0c-0.2-0.1-0.4-0.2-0.6-0.3l-0.3-0.2l-0.2-0.2h0
		c-0.1-0.1-0.1-0.2-0.2-0.3c0,0.1,0,0.1,0-0.1c0,0,0,0,0,0s0,0,0-0.1l0,0l-0.2-0.6v-0.1c0-0.1,0-0.1,0-0.1c0-0.1,0-0.2,0-0.3v-0.1
		c0,0,0-0.1,0-0.1h0.1c0.5,0,1-0.4,1.2-0.8c0.1-0.1,0.1-0.3,0.1-0.5c0-0.4-0.1-0.7-0.4-1c-0.9-1.2-2.3-1.9-3.7-2.3v-0.1
		c0-0.1,0-0.2,0-0.2c0,0,0,0,0-0.1c0-0.2,0.1-0.4,0.1-0.6c0.1-0.4,0.2-0.8,0.3-1.1c0.1-0.2,0.1-0.4,0.2-0.6c0-0.1,0.1-0.2,0.1-0.3
		c0,0,0-0.1,0-0.1c0.3-0.7,0.7-1.4,1.2-2l0.2-0.2c0,0,0-0.1,0.1-0.1l0.4-0.4c0.3-0.3,0.6-0.6,0.9-0.9s0.5-1.4,0-1.9
		c-0.9-0.8-1.9-1.5-3-1.9l0.3-0.4l0.1-0.1c0,0,0-0.1,0-0.1h0c0,0,0,0,0,0h0c0.1,0,0.1-0.1,0.1-0.1c0.6-0.8,1.4-1.6,2-2.4
		c0.7-1,1.1-2.2,1.2-3.5c0-1.3-0.4-2.6-1-3.7c-0.2-0.4-0.4-0.7-0.6-1.1c6.3,0.2,12.6-0.2,18.7-1.9l0.1,0.1l0.9,0.6
		c-2.6,4.1-5.2,8.2-7.7,12.4c-0.7,1.1,0.7,2.6,1.9,1.9c0,0,0.1-0.1,0.1-0.1c0.1,0-0.1,0,0,0h0.2l0.2,0.1c0.1,0,0.2,0.1,0.3,0.2h0.1
		l0.1,0.1c0.1,0.1,0.1,0.1,0.2,0.2l0,0c0.1,0.1,0.2,0.3,0.2,0.4l0.1,0.1c0,0,0,0,0,0.1c0,0.1,0.1,0.1,0.1,0.2c0,0.1,0,0.1,0.1,0.2
		c0,0.2,0,0.5,0,0.7v0.1c0,0.1,0,0.1-0.1,0.2c-0.1,0.3-0.1,0.5-0.2,0.8c-0.1,0.2-0.1,0.4-0.2,0.6s-0.1,0.2-0.1,0.2
		c0,0.1-0.1,0.2-0.1,0.2l-0.6,1.3c-1.5,3.4-2.1,7.2-1.6,10.9c0.1,0.6,0.3,1.9,0.5,2.7c0.3,1.2,0.7,2.4,1.3,3.5
		c0.3,0.6,1.3,0.8,1.9,0.5c0.6-0.4,0.8-1.2,0.5-1.9l-0.2-0.3c0-0.1,0-0.1-0.1-0.2l-0.2-0.6c-0.2-0.5-0.3-0.9-0.5-1.4
		s-0.2-0.8-0.3-1.2c-0.1-0.2-0.1-0.5-0.1-0.7c-0.1-0.9-0.3-2.5-0.3-3.3l0.1-1.4l0.1-0.7c0-0.1,0-0.1,0-0.2c0-0.1,0-0.2,0.1-0.3
		c0.1-0.9,0.4-1.8,0.6-2.7c0.1-0.4,0.3-0.9,0.5-1.3c0,0,0,0,0-0.1c0,0,0,0,0-0.1l0.1-0.3c0.1-0.2,0.2-0.4,0.3-0.6
		c0.9-1.9,1.7-4.1,0.8-6.1c-0.5-0.9-1.2-1.7-2.2-2.1c2.3-3.9,4.7-7.7,7.2-11.4c0.4-0.6,0.1-1.5-0.5-1.8L38,93.8l0.5-0.3l2.1-0.9
		c0.3-0.2,0.5-0.5,0.6-0.8l6.6-4.1c0.6-0.4,0.8-1.2,0.5-1.9l-1.8-3.1c2.6-0.1,5.3-1.4,7.5-2.6c1.8-1,3.5-2,5.3-3.1
		c0.8-0.5,1.7-1,2.6-1.5l1.3-0.7l0.6-0.3l0.3-0.1c0.1-0.1,0.5-0.2,0.1-0.1c0.9-0.4,1.8-0.6,2.8-0.9l0.3-0.1h1
		c1.9,0.2,3.9,0.2,5.8,0.2c4.1-0.1,8.2-0.7,12.1-1.8c4-1.1,7.9-2,12-2.1c4-0.1,8,0.4,11.9,1.3c3.7,0.9,7.2,2.3,10.8,3.6
		c3.6,1.3,7.3,2.3,11,2.1h0.2l0.6-0.1h1.1l0.3,0.1c0.8,0.2,1.6,0.4,2.4,0.7l0.6,0.2h0.1l0.4,0.2l1.3,0.6c0.9,0.5,1.8,0.9,2.6,1.5
		c3.4,2,6.8,4.3,10.6,5.5c0.9,0.3,1.9,0.5,2.9,0.5c-0.6,1-1.2,2.1-1.8,3.1c-0.4,0.6-0.2,1.5,0.5,1.8l6.6,4.1
		c0.1,0.3,0.3,0.6,0.6,0.8c0.8,0.5,1.7,0.9,2.6,1.2l-0.2,0.1c-0.6,0.4-0.9,1.2-0.5,1.9c2.5,3.8,4.8,7.6,7.2,11.4
		c-0.9,0.4-1.6,1.1-2.1,1.9c-1.1,2.2-0.2,4.5,0.8,6.5c0.2,0.4,0.4,0.9,0.6,1.3c0,0,0,0,0,0.1s0.1,0.2,0.1,0.4s0.2,0.4,0.3,0.6
		c0.4,0.9,0.7,1.8,1,2.7c0.3,0.9,0.6,1.9,0.8,2.8c0.1,0.5,0.2,1,0.3,1.5c0,0.2,0.1,0.3,0.1,0.3c0,0,0,0,0,0v0.1
		c0.1,0.3,0.1,0.5,0.1,0.8c0.1,1.1,0.1,2.1,0,3.1v0.1l-0.1,0.4l-0.2,0.7l-0.2,0.7c-0.1,0.1-0.1,0.2-0.1,0.4c0,0,0,0,0,0
		c0,0-0.1,0.1-0.1,0.1c-0.3,0.6-0.2,1.5,0.5,1.8c0.7,0.4,1.5,0.2,1.8-0.5c1.6-3.5,1.3-7.5,0.3-11.2c-0.5-1.8-1.1-3.6-1.8-5.3
		l-1.2-2.7c-0.1-0.1-0.1-0.2-0.1-0.3c0,0,0-0.1,0-0.1s0,0,0-0.1c-0.1-0.2-0.2-0.5-0.3-0.7c-0.1-0.2-0.1-0.5-0.2-0.7l-0.1-0.3v-0.2
		c0-0.1,0-0.3,0-0.4v-0.1h0c0,0,0,0,0-0.1c0-0.1,0.1-0.2,0.1-0.2c0,0,0-0.1,0-0.1l0.3-0.5l0.1-0.1c0.1-0.1,0.2-0.1,0.2-0.2h0.1
		l0.2-0.2h0.1l0.1,0c0,0-0.1,0-0.1,0h0.1c0,0,0.1,0,0.1,0l0.1-0.1h0.2l0.1,0.1c1.2,0.7,2.5-0.7,1.8-1.8c-2.5-4.2-5-8.3-7.6-12.4
		l0.8-0.5c4.2,1.3,8.7,1.8,13.1,1.8h2.6c0.1,0.3,0.3,0.6,0.6,0.8c0,0.5,0,0.9,0.1,1.3c0.2,1.3,0.6,2.5,0.8,3.7c0,0.1,0,0.1,0.1,0.2
		c0,0,0.1,0.3,0.1,0.4c0,0.1,0.1,0.2,0.1,0.2l0.3,1l0.6,1.8l0.2,0.8c0,0,0,0-0.1,0.1l-0.4,0.3l-0.9,0.7c-1.3,0.9-2.5,1.9-3.6,3
		l-0.1,0.2l-0.1,0.1l-0.1,0.2c0,0,0,0,0,0c0,0.1-0.1,0.2-0.1,0.2c-0.1,0.2-0.1,0.4,0,0.6c0,0,0,0.1,0.1,0.1h0l0.1,0.2
		c0.1,0.1,0.1,0.2,0.2,0.3c0.4,0.4,0.9,0.8,1.5,1l0.2,0.1c0.4,0.3,0.9,0.4,1.4,0.5c0.7,0.2,1.5,0.3,2.2,0.4l1.1,0.3l0.2,0.1l0.1,0.1
		l-0.1-0.1c0.1,0.1,0.3,0.2,0.5,0.2l0.1,0.1c-2.2,0.9-4.1,2.5-5.9,4.1c-0.1,0.1-0.3,0.2-0.4,0.4c-0.4,0.4-0.5,1.1-0.2,1.6
		c0.1,0.2,0.3,0.4,0.6,0.5c0.2,0.1,0.4,0.2,0.6,0.2h0.2l0.2,0.1h0.1c0.1,0.1,0.1,0-0.1-0.1c0.2,0.1,0.3,0.2,0.5,0.3l0.6,0.4h0
		l0.2,0.1l0.4,0.4l0.4,0.4c0,0,0,0,0,0c0.1,0.1,0.2,0.2,0.2,0.3l0.2,0.4c0,0.1,0.1,0.1,0.1,0.2v0c-0.1,0.1-0.1,0.1-0.1,0.1h0
		c0,0,0,0,0,0l-0.1,0.1h0l-0.6,0.3c-0.1,0.1-0.5,0.2-0.1,0.1l-0.5,0.2l-1.6,0.5c-0.5,0.2-1.1,0.4-1.6,0.6c-0.6,0.3-1.2,0.7-1.8,1.2
		c-4.7,3.7-4.6,10.5-4.3,15.9c0.2,4.5,0.2,8.9-0.2,13.4c-0.1,0.7,0.7,1.4,1.3,1.3c0.7,0,1.3-0.6,1.3-1.3c0.4-4.2,0.5-8.4,0.3-12.7
		c-0.1-1.4-0.1-2.7-0.2-4.1c0-0.7,0-1.5,0.1-2.2l0.1-1c0-0.2,0.1-0.4,0.1-0.5c0-0.1,0-0.2,0.1-0.3c0.1-0.7,0.2-1.3,0.4-2
		c0.1-0.3,0.2-0.6,0.3-0.9l0.1-0.2c0.1-0.2,0.1-0.4,0.2-0.5l0.5-0.8l0.3-0.4c0.1-0.1,0.1-0.1,0.1-0.2c0,0,0,0,0,0h0l0.7-0.7
		c0.1-0.1,0.2-0.2,0.3-0.3l0.2-0.2l0.1-0.1c0.1-0.1,0.4-0.2,0.4-0.3l0.4-0.3l0.4-0.2h0l1.5-0.5c1.2-0.4,2.5-0.8,3.5-1.6
		c0.6-0.5,1-1.2,1.1-2c0.1-0.8-0.3-1.6-0.7-2.2c-0.6-1-1.4-1.8-2.4-2.4l0.1-0.1l0.4-0.3l0.2-0.2l0.1-0.1l0.2-0.1l0.2-0.2l0.4-0.3
		c0.6-0.4,1.2-0.8,1.8-1.1l0.2-0.1h0l0.5-0.2c0.4-0.1,0.7-0.2,1.1-0.3C190.3,120.6,190.7,120,190.6,119.3z M31.4,110.6
		C31.4,110.6,31.4,110.7,31.4,110.6C31.4,110.7,31.4,110.6,31.4,110.6z M20.2,52.5c0.9-0.9,1.7-1.9,2.4-2.9c0.7-1.1,1-2.3,0.8-3.6
		c-0.2-1.1-0.8-2.1-1.5-2.9c-0.5-0.6-1-1.1-1.5-1.6c1.9-2.6,3.4-5.4,4.5-8.5c0.1,0.2,0.1,0.5,0.2,0.7c1.1,4,1.3,8.1,0.8,12.2
		C25,52,22.3,57.4,19.5,62.8l0.1-0.4c0.4-2,0.7-4.3,0-6.3c-0.2-0.7-0.5-1.3-1-1.9C19.2,53.6,19.7,53.1,20.2,52.5z M58.9,74.1
		c-1.8,1-3.4,2.1-5.2,3.1c-0.8,0.5-1.7,0.9-2.6,1.3l-0.6,0.3L50.2,79L50.1,79l-1.2,0.4c-0.5,0.2-0.9,0.3-1.4,0.4L47,80h-0.5
		c-0.4,0-0.8,0-1.2,0h0l-0.3-0.1l-0.6-0.2c-0.5-0.1-1.1,0.1-1.4,0.5c-0.3,0.4-0.4,1-0.1,1.5c0.9,1.4,1.7,2.9,2.6,4.3l-8.1,5.1
		L37,91.2c-0.8,0.3-1.6,0.6-2.4,0.8s-2.1,0.6-3.2,0.8c1.7-1.2,3.4-2.7,4.4-4.5c0.6-1.1,1-2.2,1-3.5c0-0.7-0.1-1.3-0.3-2v-0.2
		c0,0,0,0,0-0.1v-0.1c0,0,0,0,0,0v-0.1l0.1-0.1c0,0-0.1,0,0-0.1h0.1c0-0.1,0.1-0.1,0.1-0.1v0c0,0-0.1,0,0.1-0.1h0l0.7-0.4h0.1
		l0.4-0.1l0.9-0.2c0.7-0.2,1.1-0.9,0.9-1.6c-0.2-1.1-0.7-2.2-1.5-3c4.2-3.5,7.2-8.3,8.3-13.7c0.6-3.3,0.7-6.7,0.1-10
		c-0.6-3.4-1.7-6.8-3-10c-1.5-3.9-3-7.6-4.6-11.5c-0.3-0.7-0.9-1.2-1.7-0.9c-0.8,0.2-1.2,0.9-0.9,1.6l4,10.1
		c1.2,3.2,2.4,6.4,3.2,9.7c0.2,0.8,0.4,1.6,0.5,2.5c0,0,0,0.2,0,0.2c0,0.1,0,0.1,0,0.1l0.1,0.6l0.1,1.3c0.1,0.8,0.1,1.6,0,2.5
		l-0.1,1.1c0,0.2-0.1,0.3-0.1,0.5c0,0.1,0,0.2-0.1,0.3c-0.2,1.4-0.6,2.8-1.1,4.1c-0.1,0.3-0.2,0.6-0.4,0.9L43,66.3c0,0,0,0,0,0.1
		l-0.2,0.5c-0.3,0.6-0.6,1.3-1,1.9c-0.4,0.6-0.8,1.3-1.3,2l-0.4,0.5h0l-0.2,0.3l-0.8,0.9c-0.5,0.6-1.1,1.2-1.7,1.7l-0.9,0.7L36.3,75
		l-0.1,0.1h0c-0.2,0.1-0.3,0.3-0.5,0.4c-0.9,0.6-0.9,1.7,0,2.3l0.1,0.1l0.2,0.1l0.4,0.3c0.1,0.1,0.3,0.2,0.3,0.4l0.2,0.2
		c0.1,0.1,0.1,0.2,0.2,0.4c-0.7,0.2-1.3,0.6-1.8,1c-0.5,0.4-0.9,0.9-1.1,1.5c-0.2,0.7-0.2,1.4-0.1,2.1l0.1,0.5c0,0.1,0,0.1,0,0.2
		c0,0,0,0,0,0.1s0,0.1,0,0.1c0,0.1,0,0.2,0,0.3c0,0.1,0,0.3,0,0.4c0,0,0,0,0,0v0c0,0.1,0,0.1,0,0.1c0,0.1,0,0.2-0.1,0.3
		c0,0.1-0.1,0.2-0.1,0.4s0,0.1-0.1,0.2s0,0.1-0.1,0.1c-0.2,0.5-0.4,0.9-0.8,1.3l-0.1,0.1c0,0,0,0,0,0.1l-0.3,0.3
		c-0.2,0.2-0.4,0.4-0.6,0.6c-0.5,0.5-0.9,0.9-1.5,1.3l-0.2,0.1h0c-0.1,0.1-0.3,0.2-0.4,0.3l-0.8,0.6c-0.4,0.3-0.7,0.8-0.7,1.3
		l-0.1-0.1l-0.2-0.1l-0.4-0.2l-0.2-0.2l-0.2-0.1l-0.3-0.3l-0.2-0.2c-0.2-0.2-0.3-0.4-0.4-0.6c-0.3-0.5-0.6-1-0.8-1.6
		c-1.1-2.4-2-4.8-3.1-7.3c-0.3-0.6-1.3-0.8-1.8-0.5c-0.6,0.4-0.8,1.2-0.5,1.9c0.9,2.1,1.8,4.1,2.6,6.2c0.7,1.6,1.5,3.2,2.7,4.4
		l-1.2,0.1c-1.7,0.1-3.4,0.2-5.2,0.2c-0.1-0.1-0.1-0.2-0.2-0.3C14.9,89,15,82,16.6,76.1c1.9-7,6.1-13.1,9-19.7
		c1.6-3.6,2.6-7.3,3-11.2c0.4-4.1,0.1-8.2-1-12.1c-1-3.9-2.6-7.7-3.7-11.6c-0.6-1.9-0.9-3.9-1.2-5.9c-0.1-0.9-0.1-1.9-0.1-2.8
		c0-0.5-0.1-1.4,0.3-1.7c0.4-0.3,1.3,0.7,1.7,1.2l3.1,3.9c2.4,3,4.7,5.9,7.1,8.9c3.4,4.3,6.9,8.6,9.9,13.1c2.1,3.2,3.9,6.6,5.8,9.9
		c0.9,1.6,2,3.1,3.1,4.6c1.1,1.3,2.3,2.5,3.6,3.7c1.1,1.1,2.2,2.1,2.9,3.4c0.8,1.3,0.8,2.8,0.5,4.4c-0.3,1.6-0.6,3.6,0.2,5.3
		c0.5,1,1.3,1.8,2.3,2.4C61.8,72.6,60.3,73.3,58.9,74.1z M179.2,42.8c0.5,0.8,1.1,1.5,1.7,2.2c-1.2,1.1-2.3,2.4-2.8,4
		c-0.3,1.2-0.2,2.5,0.5,3.6c0.5,1,1.3,1.8,2,2.6l0.9,1c-0.3,0.5-0.5,1.1-0.6,1.6c-0.2,1.2-0.2,2.4,0.1,3.6c0.2,1.1,0.4,2.2,0.7,3.2
		c0.1,0.5,0.2,1,0.4,1.5c-1.1-2-2.1-4-3.1-6.1c-1.6-3.5-2.9-7.3-3.3-11.1c-0.4-4-0.1-8.1,0.9-12C177,38.9,177.9,40.9,179.2,42.8z
		 M182.3,97.2c-0.1,0.1-0.2,0.2-0.2,0.3l-2.1-0.2c2-9.9,0.6-20.1-4-29.1c-0.4-0.6-1.2-0.9-1.8-0.5c-0.6,0.4-0.8,1.2-0.5,1.9
		c0.2,0.4,0.4,0.8,0.6,1.3c0.1,0.2,0.2,0.4,0.3,0.6c0,0.1,0.1,0.2,0.1,0.3l0.1,0.3c0.4,0.9,0.7,1.7,1,2.6c0.6,1.8,1.1,3.6,1.5,5.4
		c0.2,0.9,0.4,1.9,0.5,2.8V83c0,0,0,0,0,0.1c0,0,0,0.2,0,0.4l0.1,0.7c0.1,0.5,0.1,0.9,0.1,1.4c0.1,1.9,0.1,3.7,0,5.6
		c-0.1,1.1-0.2,2.1-0.3,3.1v0.2l-0.1,0.5c-0.1,0.3-0.1,0.5-0.1,0.8s-0.2,1.1-0.3,1.6l-1.7-0.1c-0.8-0.1-1.6-0.1-2.3-0.2H173
		l-0.6-0.1l-1.2-0.2c-1.5-0.3-3-0.6-4.5-1.1l-1.2-0.4l-0.5-0.2l-8.9-5.5l2.6-4.3c0.3-0.5,0.2-1.1-0.1-1.5c-0.2-0.3-0.5-0.5-0.9-0.5
		c-0.3-0.3-0.8-0.5-1.3-0.3h-0.3l-0.1-0.1l-0.1,0l-0.1-0.1l-0.1-0.1l-0.1-0.2c0,0,0,0-0.1,0v-0.1h0l-0.1-0.1l-0.2-0.4
		c0-0.1,0-0.1-0.1-0.1c0,0,0,0,0-0.1v-0.1l-0.1-0.1l-0.1-0.4c-0.1-0.5-0.2-0.9-0.2-1.4c-0.2-1-0.3-2-0.8-2.9c-0.3-0.5-0.8-1-1.3-1.4
		l-0.3-0.2l-0.1-0.1h0l-0.2-0.2c0,0,0,0,0,0c0,0,0-0.1,0-0.1c0,0.1-0.1,0.1,0,0h0v-0.1l0.2-0.3c0,0,0-0.1,0-0.1l0.1-0.1l0.3-0.4
		l0.3-0.3c0,0,0,0,0,0h0l0.1-0.1c0.5-0.3,0.7-0.8,0.6-1.3c-0.1-0.5-0.4-1-1-1.1l-0.4-0.1h-0.1l-0.2-0.1c0,0,0,0-0.1-0.1l-0.1-0.1
		l-0.1-0.1h0c0,0-0.1-0.1,0-0.1l-0.1-0.2c-0.1-0.1-0.1-0.2-0.2-0.3c0,0,0,0,0,0l-0.1-0.1l-0.1-0.3c0,0,0-0.1,0-0.2
		c0-0.1,0-0.2,0-0.3c0-0.2,0-0.4,0-0.6c0,0,0-0.1,0-0.1v-0.1l0.1-0.4c0.1-0.3,0.2-0.6,0.3-1c0.4-1.2,0.8-2.3,1.3-3.4h0
		c0-0.1,0.1-0.1,0.1-0.1l0.2-0.4c0.1-0.3,0.2-0.6,0.4-0.8l0.7-1.6c2-4.2,4.4-8.2,7.2-12l0.6-0.7l0.2-0.2l0.3-0.4l1.2-1.5
		c0.9-1,1.8-2,2.6-3c0.6-0.5,0.6-1.3,0.2-1.9c-0.5-0.6-1.3-0.6-1.9-0.2c-0.1,0.1-0.1,0.1-0.1,0.1c-3.4,3.6-6.5,7.6-9.1,11.8
		c-1.3,2.1-2.5,4.3-3.5,6.5c-0.6,1.2-1.1,2.3-1.6,3.5c-0.5,1.2-1,2.4-1.4,3.6s-0.7,3.1-0.1,4.5c0.2,0.7,0.6,1.3,1.2,1.8
		c-0.5,0.5-0.8,1.2-0.9,1.9c-0.1,0.8,0.1,1.7,0.7,2.3c0.3,0.2,0.5,0.5,0.8,0.7l0.3,0.2l0.2,0.2l0.1,0.1c0.1,0.1,0.1,0.2,0.2,0.3
		l0.1,0.1c0,0.1,0.1,0.3,0.1,0.4c0.2,0.5,0.3,1.1,0.3,1.6c0.1,0.9,0.3,1.8,0.7,2.7l-1-0.3l-0.5-0.2l-0.1-0.1l-0.3-0.1
		c-0.9-0.4-1.8-0.8-2.6-1.3c-3.4-1.9-6.7-4.1-10.3-5.7c0.7-0.4,1.3-0.9,1.8-1.6c2-2.5,0.9-5.9,0.8-8.8c-0.1-1.3,0.1-2.5,1-3.5
		c0.8-1,2.1-1.9,3.3-2.7c2.8-1.9,5.2-4.2,7.1-6.9c1.8-2.6,3-5.6,5.3-7.8c2.3-2.2,4.6-3.5,6.7-5.5c2.5-2.6,3.9-6.1,5.3-9.3
		s2.8-6.5,4.1-9.9c0.6-1.6,1.2-3.3,1.7-4.9c0.1-0.4,0.3-0.6,0.6-0.5c0.3,0.1,0.4,0.4,0.6,0.8c1.2,3.4,2.2,7.1,1.1,10.7
		c-0.4,1.3-0.8,2.7-1.3,4c0,0.1-0.1,0.2-0.1,0.3c-0.8,2.4-1.6,4.8-2.3,7.2c-0.9,3.9-1.2,8-0.8,12c0.9,7.8,4.7,14.5,8.1,21.3
		c3,5.9,5.5,12.4,4.7,19.1C185.4,92.3,184.2,95,182.3,97.2z M151.5,77.7C151.7,77.9,151.5,77.8,151.5,77.7L151.5,77.7z M162.3,47.7
		C162.2,47.7,162.2,47.7,162.3,47.7L162.3,47.7z"/>
</g>
</svg>
