<?xml version="1.0" encoding="utf-8"?>
<!-- Generator: Adobe Illustrator 27.9.0, SVG Export Plug-In . SVG Version: 6.00 Build 0)  -->
<svg version="1.1" id="Layer_1" xmlns="http://www.w3.org/2000/svg" xmlns:xlink="http://www.w3.org/1999/xlink" x="0px" y="0px"
	 viewBox="0 0 253.8 161" style="enable-background:new 0 0 253.8 161;" xml:space="preserve">
<g>
	<path style="stroke:#000000;stroke-width:3;stroke-linecap:round;stroke-linejoin:round;stroke-miterlimit:10;" d="M243.2,94.8
		c-0.3-2.5-1.4-4.4-3.2-6.2c-0.8-0.8-1.5-1.6-2.5-2.3c-1-0.7-2.5-1.7-3.7-2.6c-2.3-1.6-4.5-3.3-6.6-5.1c-4.1-3.5-7.8-7.5-11.2-11.8
		c-3.3-4.2-6.2-8.8-8.5-13.6c-2.6-5.3-4.3-10.9-6.3-16.4c-1-2.8-2-5.7-4.2-7.8c-0.4-0.4-0.8-0.9-1.2-1.3c-0.5-0.4-1-0.8-1.5-1.1
		c-1.2-0.8-2.5-1.4-3.9-1.9c-2.8-1-5.8-0.9-8.7-1.1c-1.4-0.1-2.8-0.1-4.2-0.6c-1.4-0.5-2.6-1-3.9-1.8c-4.6-2.5-8.9-5.5-13.6-7.6
		c-5.3-2.2-11.1-2.9-16.8-2.4c-3,0.3-6.1,0.7-9.1,1.3c-1.3,0.3-2.9,0.9-4.3,0.7c-0.6-0.1-1.1-0.2-1.6-0.4c-0.8-0.2-1.6-0.4-2.4-0.5
		c-5.8-0.9-11.7-1.6-17.6-1c-2.9,0.2-5.8,0.8-8.6,1.8c-2.8,1-5.6,2.3-8.5,3.3c-2.8,1-5.7,1.9-8.6,2.3c-2.9,0.4-6-0.1-8.9-0.1
		c-1.3,0-2.7-0.1-4,0.2c-1.2,0.3-2.4,0.8-3.5,1.3c-1.1,0.5-2,1.3-2.8,2.1c-1,1.1-1.7,2.4-2.6,3.6c-0.4,0.6-0.9,0.9-1.5,1.3
		c-0.5,0.4-0.9,0.9-1.2,1.5c-0.8,1.2-1.6,2.4-2.5,3.6c-1.6,2.2-3.4,4.2-5.3,6.2c-0.9,0.9-1.8,1.7-2.6,2.6c-0.9,1-1.8,2.1-2.8,3
		c-0.9,0.8-2,1.3-2.9,2.2s-2.1,2.1-3.2,3.1c-2.1,1.9-4.3,3.7-6.5,5.4c-0.5,0.3-1,0.8-1.5,1.2c-0.4,0.4-0.6,0.9-1,1.2
		c-1.2,1-2.4,2-3.6,3c-2.2,1.9-4.4,3.9-6.4,5.9c-1.9,1.9-3.9,3.8-5.3,6.1c-2.9,4.7-3.4,10.4-2,15.7c0.8,2.9,2,5.8,3,8.6
		c1,2.8,2.1,5.8,3.1,8.7c2,5.7,4.2,11.4,6.5,16.9c1.2,2.8,2.4,5.6,3.5,8.4c1.2,2.8,1.9,5.1,3.2,7.6c1.2,2.4,2.7,4.9,4.7,6.8
		c2,1.9,4,3.3,6.5,3.4c2.4,0,4.5-1.4,5.9-3.1c1.7-2.2,2.3-5.1,2.7-7.8c0.8-6.1,0-12.1-0.4-18.2c0-0.1,0-0.2,0-0.3v-0.4
		c0-0.2,0-0.4,0.1-0.6c0-0.2,0-0.2,0-0.2s0-0.3,0-0.3c0.1-0.8,0.3-1.7,0.5-2.5c0.5-1.8,1.1-3.5,1.7-5.3s1.3-3.5,1.8-5.2
		c0.5-1.8,0.8-3.5,1.2-5.2c1.3-7,2-14.1,3.6-21.1c0.4-1.9,0.9-3.7,1.5-5.5c0.3-0.9,0.6-1.7,1-2.6c0-0.1,0.1-0.1,0.1-0.2
		c0-0.1,0.1-0.1,0.1-0.2l0.3-0.6l0.6-1.2c1.2-1.8,2.4-3.6,3.1-5.8c0.6-2.2,0.8-5.1,0.9-7.6c0.1-2.5,0-5.1,0.6-7.6s1.4-5.2,4.1-5.3
		c1.9-0.1,1.9-3,0-2.9c-5.7,0.1-7.1,6.7-7.4,11.2c-0.3,5,0.4,10.3-2.5,14.6l-1,1.5c-0.1,0.1-0.2,0.2-0.2,0.3l-0.1,0.2
		c-2.7,4.2-5.3,8.5-7.5,12.9c-2.6,5.1-4.6,10.1-5.4,15.8c-0.8,5.7-0.5,11.4-0.2,17.2c0.1,2.2,0.3,4.4,0.4,6.6c0,0.3,0,0.6,0,1
		c0,0.2,0,0.3,0.1,0.5c0,0.3,0,0.7,0.1,1.1c0.2,2.9,0.6,5.8,0.6,8.8s0,5.8-0.6,8.7c-0.5,2.4-1.4,4.9-3.7,6.1
		c-2.4,1.2-4.2-0.4-5.8-1.8c-2.1-1.8-3.5-4.3-4.7-6.8s-2-4.8-3-7.2c-1-2.4-2.4-5.5-3.5-8.3c-2.2-5.5-4.3-11-6.3-16.6L18,96.1
		c-1-2.7-2.1-5.4-2.9-8.2c-1.4-5.3-0.7-10.8,2.7-15.2c1.6-2.1,3.7-3.9,5.6-5.7s4.3-4,6.6-5.9c1-0.8,1.9-1.5,2.7-2.5
		c0.8-1,2.1-1.8,3.1-2.6c2.1-1.7,4.3-3.5,6.3-5.4c0.9-0.9,1.7-2,2.7-2.7c1-0.7,2.2-1.5,3.2-2.5c1.7-1.8,3.5-3.6,5.2-5.4
		c1.9-1.9,3.6-4,5.2-6.2c0.7-1,1.4-2.1,2.1-3.1c0.7-1,2-1.9,2.8-3c0.8-1.1,1.5-2.4,2.5-3.4c1-1,2-1.3,3-1.8c1-0.5,2.1-0.7,3.2-0.8
		c1.6,0,3.1,0.1,4.7,0.1c2.9,0.2,5.7,0.2,8.5-0.4c2.9-0.7,5.8-1.6,8.7-2.7c2.7-1,5.3-2.3,8-3.1c2.8-0.8,5.6-1.3,8.5-1.4
		c2-0.1,4.1-0.1,6.2,0.1c0.1,0.3,0.3,0.6,0.6,0.8c0.5,0.2,0.9,0.5,1.3,0.8l0.3,0.2l0.2,0.1l0.1,0.1l0.3,0.3c0.8,0.6,1.5,1.4,2.1,2.1
		l0.2,0.3l0.1,0.1l0.4,0.6c0.3,0.4,0.6,0.8,0.8,1.2c0.5,0.8,1,1.7,1.4,2.7c0,0.1,0.1,0.2,0.1,0.3c-0.2-0.3,0,0,0.1,0.1l0.3,0.7
		c0.2,0.5,0.3,0.9,0.5,1.4c0.3,1,0.6,2,0.8,3c0.2,1,0.4,2,0.6,3c0.1,0.5,0.2,1,0.2,1.5l0.1,0.6c0-0.2,0.1,0.1,0.1,0.2
		c0,0.1,0,0.3,0.1,0.4c0.3,3,0.5,6,0.4,9.1c0,0.8,0.6,1.5,1.5,1.5c0.8,0,1.4-0.7,1.5-1.5c0.2-5-0.3-10-1.4-14.9
		c-0.9-4.1-2.4-8.2-5-11.6c-0.8-1-1.6-1.9-2.6-2.8c1.9,0.2,3.9,0.4,5.7,1c1.2,0.3,2.3,0.6,3.5,0.5c1.2-0.1,3.2-0.6,4.8-0.9
		c2-0.4,4-0.7,6-0.9c-3,1.9-4.9,5-6.2,8.3c-0.8,2-1.2,4.2-1.7,6.3c-0.4,2.1-0.9,4.6-1.2,6.9c-0.3,2.5-0.4,5-0.3,7.5
		c0,0.8,0.7,1.4,1.5,1.5c0.8,0,1.5-0.6,1.5-1.5c-0.1-2.2,0-4.4,0.3-6.5c0-0.5,0.1-1,0.2-1.5c0,0,0-0.2,0-0.3c0-0.1,0-0.2,0.1-0.3
		c0-0.3,0.1-0.6,0.1-0.8c0.2-1.1,0.3-2.1,0.6-3.2c0.4-2.2,0.9-4.3,1.6-6.4c0.1-0.4,0.3-0.8,0.4-1.2c0.1-0.4,0.1-0.2,0.1-0.3
		c0,0,0,0,0-0.1c0.1-0.2,0.1-0.4,0.3-0.6c0.3-0.8,0.8-1.5,1.2-2.2l0.4-0.6c0,0,0.1-0.1,0.1-0.1l-0.1,0.1l0.2-0.3
		c0.3-0.3,0.6-0.7,0.9-1l0.6-0.5l0.2-0.2h0.1l0.1-0.1c0.4-0.3,0.8-0.6,1.2-0.8c0.7-0.4,0.9-1.3,0.6-2c-0.1-0.1-0.2-0.2-0.3-0.3
		c0.1,0,0.2,0,0.2,0c5.6-0.3,11,0.6,16.1,3c4.6,2.2,8.7,5.3,13.3,7.6c1.1,0.6,2.3,1,3.5,1.4c1.4,0.4,2.9,0.4,4.4,0.5
		c2.9,0.2,5.8,0.1,8.5,1.2c2.4,0.9,4.4,2.5,5.8,4.5c1.6,2.5,2.5,5.3,3.5,8.1c1.9,5.3,3.8,10.7,6.4,15.8c4.9,9.4,11.6,17.8,19.7,24.7
		c2,1.7,4.1,3.3,6.2,4.8l3.3,2.3c0.6,0.4,1.2,0.8,1.7,1.2c0.4,0.4,0.8,0.8,1.1,1.2c0.8,0.8,1.5,1.4,1.9,2.4c0.5,1.1,0.6,2.3,0.5,3.5
		c-0.3,2.4-1.9,4.6-2.9,6.8c-2.4,5.1-4.1,10.5-5.7,15.8c-1.5,4.8-2.7,9.9-4.8,14.5c-1.9,4.1-4.7,8.2-9,10.2
		c-4.2,1.9-11.1,1.3-12.3-4c-0.6-2.6,0.3-5.4,1.4-7.8c0.3-0.6,0.6-1.1,0.7-1.7c0.1-0.2,0.1-0.4,0.1-0.7c0.5-1.3,0.3-2.9,0.1-4.2
		c-0.2-1.7-0.6-3.3-1-5c-0.4-1.8-0.7-3.6-1-5.3c-0.6-2.9-1.1-5.8-1.7-8.7s-1.1-5.8-1.5-8.7c-0.1-0.7-0.2-1.5-0.3-2.2l-0.1-0.5
		c0,0,0-0.3,0-0.3c0-0.1-0.1-0.7-0.1-1.1c-0.2-1.5-0.3-3-0.5-4.5c-0.5-5.9-0.6-11.9-1.8-17.7c-1.2-5.8-3.2-10.6-5.4-15.7
		c-0.1-0.3-0.3-0.6-0.4-0.9c-0.9-3.5-2.2-6.8-3.9-9.9c-1.2-2.1-2.6-4.4-4.4-6s-3.9-2-6.2-1c-0.7,0.3-0.9,1.4-0.5,2
		c0.3,0.6,1.3,0.8,2,0.5c2.4-1,4.2,2.1,5.3,3.7c1.5,2.2,2.8,4.6,3.7,7.1c0.4,1,0.7,2,1,3c0,0.3,0,0.7,0.2,1l0.2,0.5
		c0.9,3.7,1.3,7.6,1.2,11.4c-0.1,6-0.7,11.9-0.6,17.9c0.1,6,1.1,11.4,3.1,16.8c2,5.4,4.4,10,6.7,15c1.2,2.6,2.2,5.4,2.8,8.2
		c0.3,1.4,0.5,2.7,0.5,4.1c0,0.2-0.1,0.4,0,0.6c-0.2,1.1-1,2.3-1.3,3.4c-1.7,4.8-1.1,11.2,4.2,13.5c5.3,2.2,10.2,1.3,14.4-1.9
		c4.2-3.1,6.4-7,8.2-11.4c2-4.9,3.3-10.2,4.9-15.3c1.6-5.1,3.6-11,6.3-16.1C242.5,99.6,243.4,97.4,243.2,94.8z M53.9,84.6
		c0.9-1.8,1.8-3.5,2.7-5.3c-0.5,2.4-0.9,4.9-1.3,7.3c-0.6,3.6-1,7.2-1.7,10.8c-0.3,1.7-0.6,3.5-1.1,5.2c-0.5,1.8-1,3.5-1.7,5.2
		l-0.6,1.7C49.8,101.1,50.1,92.4,53.9,84.6z M200.7,108.4c-2.3-4.8-4.4-9.8-5.4-15c-1.1-5.8-0.9-11.7-0.6-17.6
		c0.2-3.4,0.4-6.9,0.4-10.3c0.5,1.5,0.9,3,1.3,4.5c0.4,1.5,0.6,2.6,0.8,3.9c0.1,0.3,0.1,0.6,0.1,1V75c0,0.1,0,0.2,0,0.3l0.1,0.6
		c0.1,0.8,0.2,1.5,0.2,2.2c0.3,2.9,0.5,5.8,0.7,8.8c0.5,5.9,1.2,11.8,2.4,17.6c0.4,2.1,0.8,4.3,1.2,6.4
		C201.5,110.1,201.1,109.3,200.7,108.4z"/>
</g>
</svg>
