<?xml version="1.0" encoding="utf-8"?>
<!-- Generator: Adobe Illustrator 27.9.0, SVG Export Plug-In . SVG Version: 6.00 Build 0)  -->
<svg version="1.1" id="Layer_1" xmlns="http://www.w3.org/2000/svg" xmlns:xlink="http://www.w3.org/1999/xlink" x="0px" y="0px"
	 viewBox="0 0 271.4 166.5" style="enable-background:new 0 0 271.4 166.5;" xml:space="preserve">
<g>
	<path style="stroke:#000000;stroke-width:3;stroke-linecap:round;stroke-linejoin:round;stroke-miterlimit:10;" d="M259.8,34
		c-1-6-2.2-12.1-4.5-17.7c-1-2.4-2.3-4.4-4.5-5.8c-2.1-1.3-4.5-1.8-6.9-1.5c-1.5,0.2-3,0.7-4.3,1.2c-1.4,0.5-2.6,0.9-3.9,1.4
		c-2.6,1-5.2,2.3-7.6,3.7c-4.9,2.9-9.6,6.1-14.2,9.5c-4.5,3.3-8.7,7-12.4,11.2c-1.8,2.2-3.4,4.5-4.8,7c-1.5,2.6-3,5.3-4.4,8
		c-3,5.6-5.7,11.3-8.3,17c-1.3,2.8-2.7,5.6-4,8.4c-1.4,2.8-2.3,5.2-4,7.3c-1.7,2.2-3.1,3.2-5.3,3.1c-2.2-0.1-5.5-1-8.3-1.4
		c-1.4-0.2-2.8-0.2-4.2,0.1c-1.2,0.2-2.3,0.9-3.5,0.8c-1.2-0.2-2.6-0.8-4-1c-1.4-0.3-2.8-0.3-4.2-0.2c-0.8,0.1-1.5,0.3-2.2,0.6
		c-0.6,0.3-1.1,0.8-1.6,1.2c-0.5,0.4-2,1.4-3.1,1.4c-1.2,0.1-2.5-0.7-3.6-1.1c-1.4-0.5-2.8-0.7-4.2-0.5c-1.4,0.2-2.6,0.7-3.9,1.2
		c-1.1,0.5-2.1,1.2-3.3,1.6c-0.5,0.2-1,0.2-1.4,0.1c-0.7-0.3-1.3-0.6-2-0.9c-1.2-0.4-2.5-0.6-3.8-0.5c-2.4,0.1-4.8,1-6.6,2.6h-0.5
		c-0.2-0.2-0.3-0.5-0.5-0.8c-0.8-1.4-1.6-2.7-2.5-4.1c-1.6-2.5-3.1-5-4.8-7.5c-3.2-4.9-6.6-9.8-10.1-14.6
		c-3.5-4.8-7.1-9.5-10.8-14.2c-3.6-4.7-6.9-9.2-11.1-13.2c-1.9-1.7-4-3.1-6-4.7c-1.9-1.6-2.9-2.3-4.3-3.3c-1.2-1.3-2.5-2.6-3.8-3.8
		c-3.2-2.9-6.9-5.1-10.9-6.7c-4-1.6-8-2.6-12.2-3.3c-3.8-0.7-7.9-1.3-11.7-0.2c-1.9,0.5-3.6,1.7-4.9,3.2c-1.5,1.9-1.9,4.3-2.3,6.6
		c-1.7,10.1-1.5,20.3,0,30.4s4.2,19.6,7.6,29.1c1.7,4.7,3.5,9.3,5.4,13.9c1.9,4.6,4.1,9,5.9,13.7c0.8,2.1,1.6,4.5,1.8,6.7
		c0.1,1.2,0.1,2.4,0,3.6c-0.1,1.1-0.4,2.3-0.5,3.5c-0.3,5,3.6,8.6,7.3,11.3c3.8,2.7,8.1,4.7,12.6,5.9c2.1,0.6,4.4,1.1,6.4,2
		c1.9,0.9,3.3,1.9,4.2,3.5c0.2,0.3,0.4,0.6,0.5,1c0.2,0.4,0.3,0.8,0.3,1.2c0,0.1,0,0.2,0.1,0.2v0.8c0,0.1,0,0.5,0,0.4
		s-0.1,0.5-0.2,0.7c-0.2,1,0.5,2.1,1.6,2.2c0.9,0.2,1.8-0.3,2.1-1.2c1.4-4.3-1.3-8.6-4.8-11c-3.5-2.4-8.7-3.1-12.9-4.6
		c-4.2-1.6-7.8-3.7-10.8-6.7c-0.7-0.7-1.2-1.4-1.7-2.2l-0.3-0.7c-0.1-0.1-0.2-0.2-0.2-0.4c-0.1-0.2-0.2-0.5-0.2-0.7
		c0-0.1,0-0.2-0.1-0.3v-0.2c0-1.1,0.1-2.2,0.3-3.3c0.2-1.3,0.3-2.6,0.3-3.8c-0.2-5-2.3-9.6-4.3-14.1c-2-4.5-3.8-8.9-5.7-13.4
		c-3.6-9.1-6.9-18.4-9.1-27.9s-3.3-19.4-2.8-29.2c0.1-2.4,0.3-4.7,0.6-7.1c0.2-1.2,0.4-2.5,0.6-3.7c0.1-0.5,0.2-1,0.3-1.5
		c0.2-0.5,0.3-1.1,0.4-1.4l0.4-0.7c0.1-0.1,0.1-0.2,0.2-0.2h0l0.4-0.4l0.3-0.3l0.9-0.5l0.5-0.2l0.5-0.2l1.2-0.3l0.7-0.1l0.4-0.1
		c0.9-0.1,1.8-0.1,2.7,0l1.3,0.1l0.7,0.1h0.5l2.9,0.5c2,0.3,4,0.8,6.1,1.3c4,1.1,7.6,2.4,11.1,4.6c3.5,2.2,6.3,5.1,9,8.2
		c2.7,3.1,5.6,6.8,8.3,10.2s5.6,7,8.2,10.6c2.7,3.6,5.5,7.6,8.1,11.5c5.3,7.8,10.1,16,14.6,24.3c1.1,2.1,2.1,4.2,3.1,6.2
		c0.5,0.9,1.8,1.2,2.7,0.7c0.9-0.5,1.2-1.7,0.7-2.6c-4.3-8.6-9-17-14.2-25.2c-1.9-3-3.8-5.9-5.8-8.8c4.2,5.6,8.3,11.3,12.2,17
		c2.1,3.1,4.1,6.2,6.1,9.4c1,1.6,2,3.2,3,4.9c0.5,0.8,0.9,1.6,1.4,2.4c0.5,0.7,1.2,1.1,2,1.3c0.7,0.2,1.3,0.2,2,0.2
		c1.1-0.1,1.7-0.7,2.6-1.4c1-0.8,2.4-1.2,3.7-1.2c1.3,0,2.6,0.3,3.8,0.9c1.9,0.9,3.8,0.5,5.7-0.3c1.8-0.9,2.6-1.4,4-1.8
		c1.4-0.4,2.8-0.3,4.3,0.3c1.5,0.6,3.3,1.3,5.2,1s3.1-1.1,4.5-2.1c0.7-0.5,1-0.9,1.7-1c0.8,0,1.6,0,2.4,0c1.6,0.1,3.1,0.9,4.7,1.1
		c0.9,0.2,1.9,0.2,2.8,0c0.9-0.2,1.6-0.6,2.5-0.8c1.6-0.2,3.2,0,4.7,0.3c3.2,0.6,6.9,1.8,10.1,0.6c3.2-1.2,5.2-3.7,6.8-6.4
		c1.6-2.7,3.5-6.9,5.1-10.4c1.6-3.5,3.3-6.9,4.9-10.4c0.5-1.1,1-2.2,1.6-3.3c-0.4,1.5-0.7,3.1-1.1,4.7c-1.6,7.3-2.8,14.7-3.5,22.1
		c-0.2,1.8-0.3,3.6-0.4,5.5c-0.1,1,0,2,0.5,2.9c0.5,0.9,1.4,1.6,2.3,1.9c0.9,0.3,1.7,0.6,2.6,0.8c0.4,0.1,0.9,0.2,1.2,0.3l0.6,0.2
		l0.1,0.1h0.1l0.5,0.2l0.2,0.2l0.3,0.2c0.1,0,0.2,0.1,0.2,0.2l0.2,0.2c0,0,0,0.1,0,0.1l0,0c0,0,0,0,0,0c0,0,0,0.1,0,0.2
		c0,0,0,0,0-0.1c0,0,0,0.1,0,0.2v0.5c-0.4,1.7-1,3.5-0.5,5.2c0.3,0.9,0.7,1.8,1.3,2.6l1.4,2.3c2,3.1,4.2,6.1,6.5,9l0.7,0.9l0.1,0.2
		h0l0.4,0.5c0.2,0.3,0.5,0.7,0.7,1c0.1,0.2,0.2,0.3,0.3,0.5l0.1,0.2l0.1,0.2c0,0.1,0,0.1,0,0.2c0,0,0,0.2,0.1,0.2
		c0.1,0.2,0.2,0.5,0.2,0.7c0.1,0.4,0.2,0.9,0.3,1.3c0.1,0.4,0.2,1.7,0.4,2.6c0.5,3.3,2.1,6.2,4.5,8.5c0.7,0.6,1.3,1.1,2.1,1.6
		c0.9,0.5,2.1,0.3,2.6-0.6c0.5-0.9,0.2-2.1-0.7-2.6l0,0l-0.4-0.3c0,0-0.1-0.1-0.1-0.1l-0.9-0.8c-0.3-0.2-0.5-0.5-0.7-0.8l-0.3-0.4
		c0-0.1-0.1-0.2-0.2-0.2c-0.4-0.6-0.8-1.2-1.1-1.9l-0.2-0.4c0-0.1-0.1-0.2-0.1-0.2c-0.2-0.3-0.3-0.7-0.4-1.1c-0.4-1.6-0.5-3.3-0.9-5
		c-0.4-1.7-1.2-3.4-2.3-4.8c-0.5-0.7-1.1-1.5-1.7-2.2l-0.8-1c0-0.1-0.1-0.2-0.2-0.3c0,0,0,0,0,0c-0.2-0.2-0.3-0.3-0.4-0.5
		c-1-1.4-2.1-2.8-3-4.3c-1-1.5-1.9-3-2.8-4.5l-0.6-1c-0.1-0.2-0.2-0.3-0.2-0.5c0,0,0,0,0,0l-0.1-0.4c0-0.1,0-0.1,0-0.2v-0.2l0.2-1
		c0.5-1.8,0.8-3.6-0.3-5.3c-1.1-1.6-2.6-2.4-4.3-2.9l-2.4-0.6l-0.6-0.2l-0.2-0.1l-0.3-0.2l-0.1-0.1c0,0,0-0.1,0-0.1v-0.2
		c0-0.5,0-0.9,0.1-1.4c0-0.5,0.1-1.7,0.2-2.6c0.2-1.8,0.3-3.6,0.5-5.4c0.1-0.9,0.2-1.7,0.3-2.6c0-0.2,0-0.3,0.1-0.5
		c0-0.1,0-0.3,0.1-0.4c0-0.5,0.1-0.9,0.2-1.4c0.5-3.6,1.1-7.1,1.9-10.7c1.5-7.1,3.3-14.1,5.6-20.9l0.9-2.6c0.1-0.2,0.1-0.5,0.1-0.7
		l0.5-0.8c3.6-5.6,8.6-10.2,13.9-14.2c2.8-2.1,5.7-4,8.5-5.9s5.9-3.9,9.2-5.5c3-1.5,6.1-2.8,9.3-3.7c1.4-0.4,2.6-0.8,4.1-0.5
		c1.2,0.2,2.3,0.7,3.2,1.5c1.1,0.9,1.7,2,2.2,3.3c0.7,1.6,1.2,3.3,1.7,4.9c1,3.8,1.9,7.6,2.5,11.4c1.3,7.6,1.8,15.3,1.6,23
		c-0.2,7.6-0.9,15.6-2.7,23c-1.8,7.5-4.9,14.1-4.3,21.6c0.3,3.7,1.2,7.4,1.2,11.1c0,3-0.7,5.9-2.1,8.6c-2.5,4.6-6.8,7.7-11.3,10.2
		c-2.4,1.4-4.9,2.6-7.3,3.9s-5.3,3-7.3,5.6c-1.9,2.5-2.9,5.4-3.1,8.5c-0.2,2.5,3.7,2.5,3.9,0c0.1-2.3,1-4.5,2.4-6.4
		c1.4-1.9,3.3-2.9,5.4-4c3.9-2.1,7.9-4,11.5-6.5c3.6-2.5,7.1-5.6,9.1-9.5c1.1-2.2,1.9-4.5,2.3-6.9c0.5-3.1,0.2-6.2-0.2-9.3
		s-0.9-5.8-0.7-8.8s0.9-5.7,1.7-8.4c0.8-2.8,1.7-5.7,2.5-8.5c0.7-3,1.3-6.1,1.6-9.2C261.9,59.4,261.8,46.6,259.8,34z M190.9,93.2
		L190.9,93.2C190.9,93.1,190.9,93.1,190.9,93.2z"/>
	<path style="stroke:#000000;stroke-width:3;stroke-linecap:round;stroke-linejoin:round;stroke-miterlimit:10;" d="M85.7,95.2
		c-0.2-1-0.5-2-0.9-3c-0.4-0.9-0.7-1.8-1-2.8c0-0.1,0-0.2,0-0.3c0-0.2,0-0.4,0-0.6l0.1-0.1l0.2-0.3c0.7-1,1.2-2,0.9-3.3
		c-0.3-1.2-1.2-1.8-2.1-2.6l-0.4-0.5l-0.1-0.1c0.2,0.3-0.1-0.1-0.1-0.2l-0.3-0.6l-0.1-0.2h0c0-0.2-0.1-0.4-0.2-0.6
		c0-0.2,0-0.2-0.1-0.2v-0.7c0-0.1,0-0.1,0-0.2c0,0,0.1-0.3,0.2-0.5c0-0.2-0.1,0.2,0,0c0,0,0-0.1,0-0.1l0,0l0,0l0,0h0l0.1-0.2
		l0.1-0.2h0l0.6-0.6c0.8-0.7,0.7-2.1,0-2.8c-0.7-0.7-2-0.7-2.7,0c-3.3,2.7-2.7,7.6,0.2,10.3l0.9,0.8h0L80.9,86
		c-0.3,0.4-0.6,0.9-0.8,1.4c-0.7,2.1,0.3,4.4,1.1,6.3c0.3,1,0.6,2,0.8,3c0.1,0.5,0.2,1.1,0.3,1.6c0,0.3,0.1,0.6,0.2,0.9
		c0,0.1,0,0.3,0,0.4v0.1c0,0,0,0.1,0,0.1c0.3,2.2,0.4,4.4,0.5,6.7c0.2,2.2,0.2,4.4,0.1,6.6c0,0.5-0.1,1-0.2,1.6c0,0.2,0,0.2,0,0.3
		l0,0v0.2c0,0.3-0.1,0.6-0.2,0.9c-0.2,1.1-0.5,2.2-0.9,3.2c-0.1,0.3-0.2,0.6-0.3,0.9c0,0.1,0,0.1-0.1,0.2c0,0.1-0.1,0.3-0.1,0.3
		c0,0-0.5,1.2-0.9,1.7c-0.3,0.6-1.1,2.2-1.7,3.2c-1.2,2.1-2.4,4.3-3.5,6.5c-0.4,0.9-0.3,2.1,0.7,2.6c1,0.5,2.2,0.3,2.6-0.7
		c1.8-4,4.3-7.5,6.1-11.5c1.7-4,2.4-8.9,2.3-13.5C87,104.3,86.7,99.6,85.7,95.2z M81.3,85.8c0.1,0,0.1,0.1,0.1,0.2L81.3,85.8z"/>
	<path style="stroke:#000000;stroke-width:3;stroke-linecap:round;stroke-linejoin:round;stroke-miterlimit:10;" d="M71.5,125
		c0-0.1-0.1-0.2-0.1-0.3l-0.2-0.7c-0.1-0.3-0.2-0.6-0.3-0.9c0-0.2,0-0.3-0.1-0.4c0-0.1,0-0.2,0-0.3s0-0.2,0-0.3c0,0,0-0.3,0-0.5
		v-1.2l5.2-0.6c0.6,0,1.2-0.3,1.6-0.8s0.5-1.1,0.3-1.7c-0.5-1.4-1-2.8-1.6-4.2c1.2-0.2,2.4-0.7,3.3-1.6c1.5-1.5,2.1-4,0.9-5.8
		c-0.6-0.8-1.7-1.3-2.6-0.7c-0.9,0.6-1.3,1.8-0.7,2.7l0.1,0.2v0.3c0,0.1-0.1,0.2-0.1,0.2l-0.2,0.2v0.1c0,0-0.1,0.1-0.2,0.2h0
		l-0.2,0.1l-0.3,0.2l-0.3,0.1l-0.5,0.1l-0.4,0.1h-1.3c-1.2,0.1-2.3,1.2-1.9,2.5c0.5,1.2,1,2.8,1.6,4.2l-4.2,0.5
		c-0.9,0.1-1.7,0.5-1.9,1.4c-0.3,1.7-0.4,3.5-0.1,5.2l-0.2-0.1l-0.2-0.1l-0.2-0.1h0l-0.3-0.1l-0.5-0.2l-1-0.5l-2.1-1.1l-1.9-1.2
		l-0.9-0.6l-0.5-0.3l-0.3-0.2c-1.2-0.9-2.3-1.9-3.4-3c-1.1-1-2.2-2.2-3.2-3.4c-0.5-0.6-1-1.2-1.4-1.8l-0.1-0.1c0,0,0-0.1-0.1-0.1
		l-0.3-0.5c-0.3-0.3-0.5-0.7-0.8-1.1c-2-2.8-3.8-5.7-5.4-8.8c-1.8-3.4-3.5-6.8-5.2-10.3c-0.5-0.9-1.7-1.2-2.7-0.7
		c-0.9,0.6-1.2,1.7-0.7,2.7c3.1,6.3,6.1,12.6,10.1,18.4c4,5.8,8.3,10.4,13.9,14c3,1.9,6.4,3.4,9.9,4.3c1,0.2,2.1-0.4,2.4-1.5
		c0.1-0.5,0-1-0.2-1.4L71.5,125z M77.1,108.4l-0.1,0.2C77,108.5,77,108.4,77.1,108.4z"/>
	<path style="stroke:#000000;stroke-width:3;stroke-linecap:round;stroke-linejoin:round;stroke-miterlimit:10;" d="M244.8,99.1
		c1.8-2.6,3.4-5.4,4.9-8.2c0.5-0.9,0.3-2.2-0.7-2.7c-1-0.5-2.2-0.2-2.7,0.7c-1.2,2.4-2.6,4.9-4.1,7.1c-0.7,1.1-1.5,2.3-2.3,3.4
		l-1.2,1.6c0,0,0,0,0,0.1h0c-0.1,0.1-0.2,0.3-0.3,0.4c-0.3,0.3-0.5,0.6-0.7,0.9c-3.4,4.2-7.2,8.1-11.5,11.5l-0.2,0.2l-0.4,0.3
		l-0.9,0.7c-0.6,0.4-1.3,0.8-2,1.2c-0.3,0.2-0.6,0.3-0.9,0.5l0.5-2.5c0.3-1.7,0.9-3.7,0.3-5.5c-0.4-1.1-1.2-1.9-2.4-2.3
		c-0.9-0.3-2-0.3-3-0.4l-2.9-0.3c0.3-0.7,0.5-1.3,0.6-2c0.3-1.7,0.2-3.5-0.8-4.9c-1.7-2.4-5.5-3.6-7.8-1.2c-0.7,0.7-0.8,2,0,2.7
		c0.7,0.7,1.9,0.8,2.7,0c0,0,0,0,0,0l0.2-0.1h0.6l0.2,0.1c0.2,0.2,0.3,0.3,0.5,0.3l0.2,0.2l0.2,0.2c0.1,0.1,0.1,0.2,0.2,0.2
		c0,0.1,0,0.2,0.1,0.3c0,0.1,0,0.5,0,0.1c0,0.3,0,0.6,0,0.9v0.1l-0.1,0.4c-0.1,0.3-0.2,0.6-0.3,0.9v0.1h0c-0.1,0.1-0.1,0.3-0.2,0.4
		c-0.3,0.6-0.7,1.2-1,1.7c-0.4,0.6-0.4,1.4,0,2c0.3,0.6,1,0.9,1.7,1l5.3,0.5l1.3,0.1l0.5,0.1h0.5v0.5c0,0.1-0.1,0.7,0,0.2
		c0,0.1,0,0.2-0.1,0.4c-0.2,0.9-0.3,1.7-0.5,2.6c-0.3,1.8-0.6,3.6-1,5.4s0.9,2.8,2.4,2.4c5.6-1.3,10.2-5.4,14.2-9.3
		C237.9,108.1,241.6,103.8,244.8,99.1z M210.4,100.6C210.3,100.6,210.2,100.3,210.4,100.6L210.4,100.6z"/>
</g>
</svg>
