<?xml version="1.0" encoding="utf-8"?>
<!-- Generator: Adobe Illustrator 27.9.0, SVG Export Plug-In . SVG Version: 6.00 Build 0)  -->
<svg version="1.1" id="Layer_1" xmlns="http://www.w3.org/2000/svg" xmlns:xlink="http://www.w3.org/1999/xlink" x="0px" y="0px"
	 viewBox="0 0 258.7 255.6" style="enable-background:new 0 0 258.7 255.6;" xml:space="preserve">
<g>
	<path style="stroke:#000000;stroke-width:3;stroke-linecap:round;stroke-linejoin:round;stroke-miterlimit:10;" d="M242.5,160.1
		c-3.7-8.4-4.5-17.7-6.3-26.7c-1.9-9.2-4.4-18.2-7.5-27.1c-1.4-4.3-3.2-8.4-4.7-12.7c-0.7-1.8-1.2-3.8-1.5-5.7
		c-0.2-2.2,0.2-4.3,0-6.5c-0.3-2.2-0.9-4.4-1.9-6.4c-0.9-1.9-2.3-3.4-3.4-5.1c-2.7-3.7-5.7-7.2-8.6-10.7c-5.6-7-11.3-14-17.5-20.6
		s-13-12.9-20.7-17.8c-3.6-2.3-7.4-4.2-11.4-5.6c-3.9-1.3-7.8-2.3-11.8-3c-16.5-2.9-34.3-1.8-49.9,4.6c-8.2,3.4-15.9,7.9-22.6,13.8
		c-3.3,2.9-5.6,6.3-7.9,10c-2.3,3.7-4.8,6.5-8,8.7c-3.2,2.2-6.2,3.8-7.5,7.3c-0.3,1.1-0.5,2.2-0.3,3.3c0.1,1,0.5,2.1,0.3,3.1
		c-0.2,1-2.2,2-3.2,2.6c-6.6,4.5-10.6,11.8-12.9,19.3c-2.7,9-3.7,18.4-5.1,27.6s-3.2,19.1-5.5,28.5s-4.9,18.5-8.9,27
		c-1.9,4-4.4,7.9-5.1,12.3c-0.3,2.1-0.1,4.3,1.1,6.2c1.2,1.8,2.9,2.9,4.6,4.2c6.5,4.9,10.3,12.7,13.6,20c3.7,8.1,7.1,16.5,13,23.3
		c2.9,3.3,6.5,6.2,10.6,7.9c1.8,0.8,3.7,1.6,5.6,1.3c1.7-0.3,3.2-1.6,3.8-3.2c1.1-2.9,0.2-6.2-0.1-9c-0.5-4.3-0.6-9,0.7-13.1
		c2.5-7.7,9.5-12.9,14.5-18.8c2.9-3.5,5.4-7.2,6.7-11.6c1.3-4.4,1.6-9,1.7-13.6c0.3-9.5-0.9-19-3.6-28.1c-2.7-9-6.8-17.5-10.8-26
		c0.3,0.4,0.8,0.8,1.2,1.1c0.4,0.4,1.9,0.8,2.7,0s0.8-2.1,0-2.7c-2.9-2.3-2.6-6.2-2.5-9.5c0.3-4.9-0.3-9.8-1.3-14.7
		c-1-4.9-2-10.2-2.1-15.5C69.6,73.3,70,68,70.7,62.8c0.9-5.9,2.1-11.8,3.4-17.6c0.3-1.5-1.3-3.1-2.7-2.1c-1.5,1.1-3,2.2-4.3,3.5
		c0.9-1.1,1.8-2.3,2.6-3.5c1.1-1.7,2.1-3.5,3.4-5.2c1.2-1.6,2.6-3.1,4.2-4.4c12.5-11.2,29-17.3,45.7-18.6c8.2-0.6,16.4-0.2,24.5,1.3
		c4,0.8,7.9,1.8,11.8,3.1c3.8,1.4,7.5,3.5,10.8,5.7c7.5,5,13.9,11.3,20,17.9c6,6.6,11.5,13.3,17,20.2c2.7,3.4,5.5,6.8,8.1,10.2
		c1.3,1.5,2.3,3.3,3.1,5.2c0.7,2,1,4.1,0.8,6.3c-0.3,4.1,0.9,8.1,2.4,11.9c1.5,3.8,3.2,8.4,4.6,12.6c2.9,8.7,5.4,17.6,7.1,26.7
		c1.7,9.1,2.7,17.7,6.4,26.1c1.6,3.7,3.8,7.2,5.3,11c1.5,3.8,2.6,7.6,1.6,11.3c-1.8,6.4-9.3,9.7-14.7,12.6
		c-6,3.3-12.2,6.7-16.8,11.8c-2.4,2.7-4.3,5.8-5.6,9.2c-1.2,3.5-1.9,7.2-3.4,10.5c-1.7,3.7-4.5,6.6-8.1,8.3c-4,1.8-8.2,3.6-12.7,3.7
		c-0.8,0-1.8,0.1-2.5-0.4c-0.6-0.5-1.2-1.1-1.5-1.8c-1-1.8-1.2-4.1-1.6-6.1c-0.9-4.6-1.7-9.3-2.3-14s-1.1-9.5-1.5-14.2
		c-0.5-4.6-0.2-9.3,0.9-13.7c0.5-2.1,1.1-4.1,1.9-6.1c0.8-2.1,2-4.1,2.9-6.3c1.8-4.2,3.9-8.2,5.5-12.4c1.6-4.3,3.2-8.6,4.7-13
		c1.5-4.3,3-9.1,4.4-13.7c0.7-2.3,1.4-4.5,2-6.8l0.9-3.3c0.3-1.1,0.8-2.3,0.8-3.4c0-2,0.8-4.1,1.3-6c0.5-2,1.1-4.6,1.6-6.9
		c1.8-9,2.9-18.2,3.2-27.5c0.2-4.6,0-9.1-1.1-13.6c-0.9-3.7-2.1-7.3-3.7-10.7c-3-6.7-7.5-12.7-13.7-16.7l-0.2-0.1h-0.2
		c-1-0.3-2.1,0.3-2.4,1.3c-2,12.2,2.9,24.3,5.8,36c1.4,5.6,2.6,11.4,3,17.2c0.4,6,0.2,12.1-0.5,18.1c-0.6,5.2-1.7,10.2-3.1,15.2
		c-0.6-2.1-0.7-4.3-0.2-6.5c0.6-2.3-3.1-3.4-3.6-1c-1.2,4.6-0.2,9.6,2.5,13.5c1,1.4,2.9,1.2,3.5-0.5c3.9-11.6,5.5-23.7,5.2-35.8
		c-0.3-12.2-3.9-23.5-6.9-35c-1.3-4.8-2.4-9.7-2.5-14.7c0.4,0,0.8,0,1.2-0.1c0.4-0.2,0.8-0.4,1.1-0.6c3.9,3.9,6.7,8.9,8.7,14
		c1.4,3.7,2.6,7.7,3.1,11.6c0.6,4.7,0.3,9.5,0,14.1c-0.5,9.5-2.2,18.8-4.5,27.9c-0.5,2.1-1.3,4.3-1.4,6.5c0,1-0.5,2-0.8,2.9l-1,3.5
		c-1.4,4.7-2.8,9.3-4.3,14c-1.5,4.6-3,9.2-4.8,13.7c-1.8,4.5-3.2,8.7-5.3,12.9c-1.1,2.1-1.8,4.2-2.8,6.3s-2.1,4.2-2.8,6.4
		c-1.5,4.3-2.4,8.9-2.6,13.4c-0.1,2.4,0,4.7,0.4,7.1c0.3,2.4,0.5,4.8,0.8,7.2c0.5,4.9,1.1,9.7,1.9,14.5c0.4,2.4,0.9,4.9,1.4,7.3
		s0.8,4.1,1.8,6c1.1,1.9,2.3,3.1,4.2,3.6c1.8,0.5,4.7,0.2,6.9-0.2c2.3-0.5,4.5-1.1,6.7-2c2.1-0.9,4.4-1.7,6.2-2.9
		c3.4-2.3,6.1-5.6,7.7-9.4c1.5-3.6,2.2-7.4,3.6-11c1.3-3.1,3.2-6,5.6-8.3c5-4.9,11.5-8,17.5-11.4c6-3.4,12.8-7.6,14-14.8
		C251.5,175.2,245.8,167.6,242.5,160.1z M82.3,168.1c0.3,8.9,0,18.3-5.3,25.8c-4.7,6.6-11.5,11.3-15.4,18.4c-2.1,3.8-3.2,8-3.2,12.3
		c-0.1,3.5,0.5,7,0.9,10.5c0.1,1.2,0.3,2.8-0.4,3.9s-2.6,0.2-3.5-0.2c-3.9-1.6-7.2-4.1-10-7.3c-5.8-6.6-9-15-12.7-22.9
		c-3.3-7.3-7.2-14.8-13.4-20c-1.5-1.2-3.4-2.2-4.5-3.7c-1.2-1.5-1-3.5-0.5-5.2c1.2-4.2,3.7-8,5.4-12c7.3-17.3,11-36,13.9-54.6
		c1.4-9.1,2.4-18.3,5-27.2c2.1-7,6-14,12.4-17.8c1.5-0.9,2.9-1.8,3.6-3.5c0.6-1.7-0.3-4.1,0-6.1c0.5-3.1,4.6-4.8,6.8-6.4
		c1-0.8,1.9-1.5,2.8-2.4c-3.2,4-5.6,8.7-7.1,13.6C54.5,72,54.7,81.2,56.5,90c3.8,18.2,14.1,33.9,20.5,51.1
		C80.2,149.7,82,158.9,82.3,168.1z M60.1,66.5c1.5-6.3,4.6-12.4,9.2-17c-1.9,9-3.5,18.2-3.5,27.5c0,5.5,0.8,11,1.9,16.4
		c1.1,5.4,1.8,10.1,1.5,15.3c-0.1,2.2-0.1,4.6,0.3,6.8C62.6,100.1,56,83.4,60.1,66.5z"/>
	<path style="stroke:#000000;stroke-width:3;stroke-linecap:round;stroke-linejoin:round;stroke-miterlimit:10;" d="M121.6,42.7
		l-0.1-0.1l-0.2-0.5l-0.1-0.3c-0.1-0.2,0,0.2,0,0.2s-0.2-0.5-0.2-0.6l-0.2-1.1v-0.2c0-0.2,0-0.5,0-0.7c-0.1-1.5,0-3-0.2-4.5
		c0-1.7-0.5-3.3-1.4-4.7c-0.5-0.8-1.2-1.7-2.1-2s-1.1,0-1.5,0l-1.7,0.3C103.7,30.3,94.4,35,87,42.1c-0.8,0.7-0.8,1.9,0,2.7l0,0
		c0.8,0.7,1.9,0.7,2.7,0c0.7-0.7,1.5-1.4,2.3-2.1l1.1-0.9l0.5-0.4l0.1-0.1l0.4-0.3c1.7-1.2,3.4-2.3,5.1-3.4c0.9-0.5,1.8-0.9,2.7-1.4
		l1.4-0.6l0.7-0.3h0.2l0.3-0.1c1.9-0.8,3.8-1.4,5.8-1.9c1.1-0.3,2.2-0.6,3.3-0.8l1.7-0.3h0.4c0.1,0,0.6-0.1,0.1,0h0.2c0,0,0,0,0,0.1
		l0.2,0.4c0.1,0.1,0.2,0.3,0.2,0.4c0,0-0.1-0.1-0.1-0.2c0,0.1,0,0.2,0.1,0.2c0.1,0.3,0.2,0.6,0.3,0.9c0.1,0.3,0.1,0.5,0.2,0.8l0,0
		V35c0,0.2,0,0.3,0,0.5c0,0.2,0.1,1.2,0.1,1.8c0,1.4,0.1,2.8,0.3,4.2c0.2,1.5,0.9,2.9,1.8,4.1c0.6,0.8,2,0.7,2.7,0
		c0.6-0.7,0.7-1.8,0-2.7L121.6,42.7z"/>
	<path style="stroke:#000000;stroke-width:3;stroke-linecap:round;stroke-linejoin:round;stroke-miterlimit:10;" d="M173.5,48.6
		c0.9-0.6,1.1-1.6,0.7-2.6c-2.9-6.3-7.8-11.4-13.9-14.5c-3.5-1.7-7.2-2.8-11.1-3.2c-1.8-0.2-3.6-0.2-5.4,0c-1.1,0.1-2.1,0.3-3.1,0.5
		c-1.1,0.2-1.9,0.4-2.7,1.1c-0.8,0.6-1.5,2-1.9,3.2c-0.5,1.2-0.6,2.1-0.9,3.1c-0.5,2.3-0.8,4.6-0.8,7c0,1.1,0.8,1.9,1.9,1.9
		c1,0,1.8-0.9,1.9-1.9c0-0.9,0-1.9,0.2-2.8c0-0.2,0-0.4,0.1-0.6l0,0c0-0.1,0-0.3,0-0.4c0.1-0.5,0.2-0.9,0.3-1.4
		c0.2-0.9,0.4-1.8,0.7-2.7c0.1-0.4,0.3-0.8,0.4-1.3l0.2-0.6l0,0l0.1-0.2l0.2-0.2l0.1-0.1l0,0l0.2-0.1h0.1l0.6-0.2l1.2-0.2l0.5-0.1
		h0.1l0.4-0.1c1.7-0.2,3.4-0.2,5.2-0.1l1.2,0.1h0.3l0.8,0.2c0.8,0.1,1.7,0.3,2.5,0.5c0.8,0.2,1.6,0.5,2.4,0.8l1.1,0.4l0.3,0.2
		l0.7,0.3c1.4,0.7,2.8,1.5,4.1,2.4c0.3,0.2,0.5,0.4,0.8,0.6c-0.1-0.1,0.3,0.2,0.3,0.2l0.5,0.4c0.6,0.5,1.2,1,1.7,1.6
		c0.6,0.6,1.2,1.2,1.8,1.9l0.4,0.5l0.2,0.2l0.2,0.2v0.1l0.2,0.3l0.3,0.5c1,1.5,1.9,3,2.6,4.6C171.3,48.9,172.7,49.1,173.5,48.6z
		 M140.2,32.9L140.2,32.9C140.2,32.8,140.2,32.8,140.2,32.9L140.2,32.9z M140.2,32.8L140.2,32.8C140.2,32.7,140.4,32.7,140.2,32.8
		L140.2,32.8z"/>
</g>
</svg>
