<?xml version="1.0" encoding="utf-8"?>
<!-- Generator: Adobe Illustrator 27.9.0, SVG Export Plug-In . SVG Version: 6.00 Build 0)  -->
<svg version="1.1" id="Layer_1" xmlns="http://www.w3.org/2000/svg" xmlns:xlink="http://www.w3.org/1999/xlink" x="0px" y="0px"
	 viewBox="0 0 262.7 160.9" style="enable-background:new 0 0 262.7 160.9;" xml:space="preserve">
<g>
	<path style="stroke:#000000;stroke-width:3;stroke-linecap:round;stroke-linejoin:round;stroke-miterlimit:10;" d="M247.5,22.4
		c-1-4.1-5.2-6-9.2-6c-2.4,0-4.5,0.9-6.7,1.8c-2.2,0.9-4.4,1.9-6.6,3c-4.2,2.3-8.2,4.9-12,7.8c-1.5,1.2-3,2.5-4.6,3.6
		c-1.7,1.1-3.2,2-4.6,3.2c-2.8,2.2-5.6,4.2-8,6.9c-0.9,1.1-1.8,2.3-2.8,3.4c-1,1.1-2.5,2.7-3.7,4.1c-1.9,2.4-3.5,4.5-5.4,6.9
		c-1.9,2.3-3.2,4.4-4.7,6.7c-1.2,1.7-2.3,3.5-4.3,4.3c-3.8,1.4-8.3-0.3-11.9-1.2c-5.2-1.2-10.3-1.1-15.5,0c-2.7,0.5-5.3,1.1-7.9,1.9
		c-2.7,0.9-5.3,1.9-8.2,2.3c-2.8,0.4-5.5,0.1-8.3-0.2l-8.5-1.2c-5.6-0.7-11.2-1-16.8-0.3c-1.9,0.2-3.7,0.8-5.5,1.1
		c-1.2,0.2-2.9,0.6-4-0.1c-1.1-0.7-1-2.4-0.8-3.5c0.3-1.9,0.9-3.8,0.4-5.6S85.4,58,83.4,57s-4.3-2.1-6-4
		c-6.9-7.4-14.2-14.4-22.1-20.6c-4.1-3.2-8.3-6.2-12.7-9c-2.3-1.4-4.7-2.7-7-4.2c-2.3-1.4-4.5-2.9-6.9-4.2c-2.4-1.3-4.3-2-6.8-1.7
		c-2.4,0.2-4.6,1.4-6,3.4c-2.6,3.6-1.4,7.9-1.3,12C14.6,40,16.7,51,19,61.9c1.2,5.5,2.4,11.1,3.4,16.6c1,5.7,1.5,11.5,1.8,17.3
		c0.1,2.9,0.2,5.7,0.3,8.5c0.1,2.8,0.2,4.7,1.8,6.6c1.5,2,2.8,2.5,4.5,3.3c0.9,0.4,1.8,0.8,2.7,1.2c1,0.4,1.8,1.1,2.5,1.9
		c1.8,1.7,3.2,3.8,4.1,6.1c0.9,2.3,1.5,4.8,2.2,7.2c0.7,2.4,1.3,5.1,2.2,7.6c0.4,1.1,0.9,2.3,1.3,3.4c0.5,1.1,1.1,2.7,2.2,3.5
		c1.7,1.4,4.6,1.2,6.1-0.6s1.6-4.7,2.1-7.2c1-5.3,2.6-10.4,4-15.5c0.3-1.2,0.6-2.5,0.9-3.7c0.3-1.2,0.6-2.5,0-3.9
		c-0.4-1-1.1-1.9-2-2.5l-0.2-0.1c1.6-3.1,4.1-5.8,7.1-7.6c0.9-0.5,1.2-2,0.3-2.7l-3.2-2.7c3.4-2.3,7.2-3.8,11.1-4.5
		c-0.1,0.2-0.1,0.3-0.1,0.5c0,0.7,0.5,1.5,1.3,1.7c0.7,0.1,1.4,0.3,2.1,0.5l0.5,0.2l0.3,0.1l0.8,0.4l0.9,0.6
		c-0.8,0.4-1.4,0.8-2.1,1.3l-2.5,2l-0.6,0.5l-0.2,0.2l-0.1,0.1l-1.3,0.9c-0.8,0.5-1.1,1.5-0.6,2.3c0.5,0.8,1.5,1.1,2.4,0.6
		c0.9-0.6,1.7-1.2,2.5-1.9l1.1-1l0.5-0.4l0.3-0.2l0.2-0.1l0.1-0.1l0.3-0.2l0.6-0.4l1.1-0.7l0.3-0.1h0c0.2,0,0.4-0.1,0.6-0.2l0.6-0.1
		l0.3-0.1h0.1c1,0,1.7-0.8,1.7-1.8c0-0.4-0.2-0.9-0.5-1.2c-0.8-0.8-1.7-1.5-2.6-2.2h0.4c2.2-0.2,4.5-0.3,6.7-0.4
		c4.5,0,9.1,0.3,13.5,0.9h0.1l0.5,0.1l0.9,0.1l1.9,0.3l3.8,0.7c0.9,0.2,1.9-0.2,2.1-1.2c0.2-1-0.3-2-1.2-2.2
		C102,92,92.7,91,83.4,91.9c-2.4,0.2-4.9,0.6-7.3,1.1c0.1-0.7-0.1-1.6-0.8-2L73,89.3c3.4-1.7,7-2.8,10.7-3.2c1.5-0.2,2.2-1.7,1.2-3
		c-1.3-1.6-2.9-2.9-4.6-4c3-0.8,6.1-1.1,9.2-0.9c2.2,0.1,2.2-3.3,0-3.4c-2.2-0.1-4.3,0-6.4,0.3c0.2-0.4,0.3-1,0.1-1.5
		c-0.2-0.9-1-1.7-1.6-2.3c-0.6-0.7-1-1.2-1.5-1.8c-2.1-2.3-4.2-4.6-6.5-6.7c-4.8-4.4-9.8-8.6-15-12.6c-2.9-2.2-5.9-4.4-8.9-6.5
		c-0.8-0.5-2-0.1-2.4,0.6c-0.4,0.8-0.2,1.9,0.6,2.4c2.4,1.6,4.7,3.3,7,5l1.8,1.3l0.4,0.3l0.2,0.1l0.9,0.7c1.1,0.9,2.3,1.8,3.4,2.7
		c4.4,3.5,8.6,7.3,12.6,11.2c1.1,1.1,2.2,2.2,3.2,3.4l1.4,1.7l0.6,0.8c0,0.7,0.2,1.3,0.7,1.7c-1.7,0.4-3.4,1-5.1,1.7
		c-1.5,0.7-0.8,2.7,0.4,3.2c1.7,0.6,3.3,1.5,4.8,2.7c-4,0.9-7.8,2.3-11.3,4.4c-1.2,0.7-1.1,2.2,0,3l1.4,1c-4,1.2-7.8,3.2-11.1,5.8
		c-0.7,0.5-0.7,1.9,0,2.4c0.7,0.5,2.1,1.7,3.2,2.6c-3.5,2.7-6.2,6.3-7.6,10.5c-0.4,1.1,0.6,2.2,1.7,2.2c0.4,0,0.8-0.1,1.2-0.2
		c0.4,0.4,0.6,1,0.5,1.6c-0.2,1.4-0.6,2.8-1,4.1c-0.7,2.4-1.3,4.8-2,7.2s-1.4,5-1.9,7.5c-0.2,1.2-0.4,2.4-0.6,3.7
		c-0.2,1.2-0.2,2.2-0.8,3.1c-1.3,2.1-2.8-2-3.2-2.9c-0.9-2.3-1.7-4.6-2.3-7c-1.2-4.5-2.1-9.7-4.8-13.7c-1.3-1.9-2.9-3.6-4.6-5
		c-1.5-1.2-3.5-1.7-5.3-2.7c-1.7-0.9-2.7-1.6-3.2-3c-0.6-1.4-0.3-2.1-0.4-3.1c0-1-0.1-3-0.2-4.5c-0.2-5.5-0.4-11.1-1.1-16.5
		C26,78.3,25,73.3,23.9,68.1c-2.2-10.3-4.7-20.6-5.6-31.1c-0.2-2.7-0.3-5.4-0.3-8.2c0-1.9-0.4-3.8-0.4-5.6s0.3-3.7,1.6-5
		c1.3-1.3,3.5-1.7,5.3-1.3c1.1,0.3,2,0.9,3,1.4c1,0.6,2.4,1.4,3.5,2.2c2.2,1.3,4.3,2.8,6.5,4C41.9,27,46,29.8,50,32.7
		c7.7,5.7,14.8,12.2,21.4,19c1.6,1.7,3.1,3.5,4.8,5c1.8,1.5,4,2.5,6.1,3.6c0.8,0.4,1.8,0.8,2.3,1.6c0.5,0.8,0.3,1.2,0.2,1.9
		c-0.2,1.7-0.9,3.3-0.7,5c0.2,1.7,0.9,3.5,2.4,4.5s3,1,4.5,0.9c1.7-0.2,3.4-0.5,5.1-1c2.2-0.5,4.4-0.7,6.6-0.8
		c5.3-0.2,10.6,0.5,15.8,1.2c2.8,0.4,5.6,1,8.4,1.1c2.8,0.2,5.1-0.2,7.4-0.8c2.4-0.6,5.2-1.7,7.9-2.3c2.7-0.7,4.9-1.3,7.4-1.8
		c2.6-0.5,5.2-0.7,7.8-0.5c2.1,0.1,4.2,0.7,6.2,1.2c3.8,0.9,7.9,2.1,11.7,0.9c1.6-0.5,2.9-1.3,4-2.4c0,0.4,0.2,0.7,0.5,1
		c0.7,0.7,1.7,0.7,2.4,0l2.7-2.2l1.2-1l0.6-0.5l0.2-0.2l0.3-0.2c1.8-1.4,3.6-2.7,5.4-4c3.7-2.5,7.4-5,11.3-7.2
		c2.2-1.2,4.5-2.4,6.7-3.6c0.8-0.5,1.1-1.5,0.6-2.4c-0.5-0.8-1.5-1.1-2.3-0.6c-8.1,4.1-15.8,8.9-23,14.3c-1.4,1.1-2.8,2.1-4.1,3.2
		c0.9-1.3,1.7-2.7,2.6-3.9c1.9-2.8,4.2-5.4,6.3-8.1c2.1-2.7,4-4.6,5.9-6.9c1.8-2.3,3.8-4.4,6.1-6.2c2.7-2.1,5.6-3.9,8.4-5.9
		c1.7-1.2,3.1-2.6,4.8-3.8c1.7-1.1,3.8-2.7,5.8-4c3.8-2.4,7.8-4.4,12-6c3-1.2,7.5-2.2,9.7,0.9c0.5,0.7,0.7,1.5,0.9,2.4
		c0.3,1.4,0.6,2.8,0.7,4.3c0.1,2.5,0,5.1-0.5,7.6c-1,5.4-2.7,10.7-4.1,16c-1.4,5.3-2.8,10.5-4.2,15.7c-1.4,5.2-3.3,10-3.3,15.4
		c0,2.6,0.5,5.2,0.5,7.7c-0.1,2.7-0.4,5.3-1.1,7.8c-1.3,5.2-3.1,10.2-5.1,15.2c-0.9,2.4-1.9,4.9-3,7.3s-2,4.6-3.5,6.6
		s-2.7,3.8-4.3,5.5c-0.4,0.6-1,1-1.6,1.3l-0.3,0.1c0-0.1,0-0.1-0.1-0.2c0-0.2-0.1-0.3-0.2-0.5c-2.1-5.8-4.4-11.4-7.1-17
		c-0.5-1.1-1.1-2.1-1.6-3.2l0.2-0.1l1-0.2h0.8c0.7,0,1.3-0.4,1.5-1.1c0.3-0.7,0.1-1.4-0.3-1.9c-4.6-4.4-9.6-8.5-14.2-12.9
		c0,0,0,0,0-0.1l0.1-0.1c0.1-0.1,0.2-0.2,0.2-0.3c0.1-0.1,0.2-0.2,0.3-0.3h0.1l0.4-0.3l0.8-0.4l0.2-0.1l0.4-0.1l1.8-0.6
		c1.4-0.4,1.7-2.4,0.4-3.1c-4.2-2.3-8.5-4.5-12.9-6.5l4.3-5.3c0.4-0.4,0.6-1.1,0.4-1.7c-0.1-0.6-0.6-1.1-1.2-1.2
		c-5.9-1.5-11.9-2.6-17.9-3.1c-0.9-0.1-1.8,0.9-1.7,1.7c0,0.9,0.8,1.7,1.7,1.7l4.5,0.5l0.4,0.1h0.3l1.1,0.2l2.1,0.3
		c2,0.3,4,0.8,6,1.2l-4,5c-0.3,0.4-0.6,0.9-0.5,1.4c0.1,0.5,0.4,1,0.8,1.2c3.9,1.7,7.7,3.5,11.5,5.5l-0.7,0.4
		c-0.8,0.5-1.4,1.2-2,1.9c-0.4,0.7-0.8,1.7-0.8,2.5c-1.9-1-3.9-1.6-6-1.9c0.4-0.9,0.9-1.7,1.3-2.6c0.4-0.9,0.1-1.9-0.7-2.4
		c-0.2-0.1-0.5-0.2-0.8-0.2c-8.7-0.6-17.6,0-26.2,1.6c-2.4,0.4-4.8,1-7.2,1.6c-0.9,0.2-1.4,1.2-1.2,2.1c0.3,0.9,1.2,1.4,2.1,1.2
		c2.1-0.6,4.2-1,6.3-1.4l3.2-0.6l1.5-0.2l0.8-0.1h0.5c4.3-0.6,8.5-0.9,12.8-0.9c1.5,0,3,0,4.5,0.1l-1.2,2.6c-0.3,0.6-0.3,1.2,0,1.8
		c0.3,0.5,0.9,0.8,1.5,0.8c0.7,0,1.5,0,2.2,0.1l0.4,0.1l0.6,0.1l1.1,0.3l1.1,0.4l0.4,0.2l0.4,0.2c0.7,0.3,1.4,0.8,2.1,1.2
		c0.8,0.5,1.9,0.2,2.3-0.6c0.1-0.1,0.1-0.3,0.2-0.4l0.4,0.4l2.4,2.2c1.6,1.5,3.2,2.9,4.9,4.3l3,2.7c-0.6,0.2-1.2,0.4-1.7,0.8
		c-0.9,0.4-1,1.5-0.6,2.3c1.5,2.9,2.9,5.8,4.2,8.7c0.3,0.7,0.7,1.5,1,2.2s0.3,0.7,0.4,1l0.2,0.5c0,0,0,0,0,0.1
		c0,0.1,0.1,0.2,0.2,0.4c0.6,1.5,1.2,3,1.8,4.5c0.6,1.5,1.3,3.4,1.9,5.2c0.2,0.6,0.7,1,1.2,1.2c0.9,0.6,2,0.7,3,0.3
		c2-0.7,3.4-2.3,4.6-4c1.2-1.6,3.2-4,4.5-6.1c1.3-2.2,2.4-4.9,3.5-7.4c2.2-5.3,4.2-10.7,6-16.2c1.6-5.1,3.1-10.6,2.6-15.9
		c-0.3-2.9-0.6-5.6-0.2-8.5c0.3-2.9,1.2-5.2,2-7.7c1.6-5.5,3-11.1,4.5-16.7c1.5-5.6,3.2-11.2,4.4-16.9c0.6-2.7,1-5.4,1-8.1
		C248.7,28,248.3,25.2,247.5,22.4z M194.8,97.7L194.8,97.7C194.8,97.7,194.8,97.7,194.8,97.7z"/>
</g>
</svg>
