<?xml version="1.0" encoding="utf-8"?>
<!-- Generator: Adobe Illustrator 27.9.0, SVG Export Plug-In . SVG Version: 6.00 Build 0)  -->
<svg version="1.1" id="Layer_1" xmlns="http://www.w3.org/2000/svg" xmlns:xlink="http://www.w3.org/1999/xlink" x="0px" y="0px"
	 viewBox="0 0 325.5 149.8" style="enable-background:new 0 0 325.5 149.8;" xml:space="preserve">
<path style="stroke:#000000;stroke-width:3;stroke-linecap:round;stroke-linejoin:round;stroke-miterlimit:10;" d="M311.9,98
	c-1.9-2.6-4.3-4.8-6.4-7.1c-2.2-2.3-4.4-4.6-6.5-7.1c-4-4.7-7.5-10.1-8.1-16.4c-0.8-7.2,2.3-13.9,2.8-21s-2.5-13.9-9.5-16.4
	c-7.5-2.7-15.6-0.3-23.1-2.8c-6.9-2.3-12.1-7.6-18.2-11.4c-6.1-3.8-14.2-5.7-21.4-3.7c-6.6,1.8-10.9,7.1-15.7,11.7
	c-2.9,2.8-6.3,2.9-10.1,2.6c-4.2-0.3-8.4-1-12.6-1.9c-3.9-0.9-7.6-2.2-11.5-3.4c-3.8-1.1-8.3-1.7-12.5-1.9c-8.1-0.3-16.3,1.2-24,3.7
	c-1.6,0.6-3.2,1.3-4.6,2.1c-1.8,1-4,1.6-5.8,2.5l-5.4,2.5c-1.9,0.9-4,2-6.2,1.9s-3.7-1.3-5.3-2.3c-1.6-1-3.6-2.2-5.5-3.2
	c-3.4-1.8-7.5-2.9-11.3-3.4c-7.4-0.9-14.9,1.2-20.7,5.9c-3.1,2.6-5.9,5.4-9,8c-3,2.6-6.5,4.3-10.4,5.4c-3.9,1.2-7.2,1.8-10.7,3.2
	c-3.1,1.2-5.9,3.1-8.1,5.6c-4.4,4.8-7,11.4-6.1,18c1.1,7.9,4.5,15.3,3.5,23.5c-0.5,3.8-1,7.7-2.4,11.3c-0.7,1.8-1.8,3.4-2.7,5.1
	c-0.5,0.8-0.9,1.7-1.5,2.5S21.5,113,21,114c-1.9,3.1-3,6.8-2.2,10.5c0.7,3.3,3.3,5.9,6.6,6.7c6.5,1.6,12.8-3.3,16.5-8.1
	c4.6-6,7.5-13.4,9.9-20.5c0.4-1.1,0.8-2.2,1.1-3.4c1.2,1.6,3.5,2.6,5.2,3.5s4.3,2.3,6.2,3.7c7.6,5.7,10.7,14.9,13.2,23.6
	c0.6,2.2,4,1.3,3.4-0.9C78.7,121.2,76,112.9,70,107c-1.5-1.5-2.9-2.9-4.6-4.1c-1.8-1.2-3.6-2.2-5.5-3.3c-1.4-0.8-4.1-1.8-4.5-3.4
	c-0.2-0.8-0.1-1.6,0.2-2.4c5-8.4,11.6-15.7,19.8-21.2c4.8-3.1,9.9-5.7,15.2-7.7c5.8-2.2,11.7-4.1,17.4-6.6c5-2.2,10.3-5.5,10.5-11.4
	c0.1-0.3,0.1-0.6,0-0.8V46v-0.2c0-0.3-0.1-0.5-0.2-0.7c-0.8-3.6-2.6-7-5.2-9.7c1.3,0,2.5-0.2,3.8-0.6c3.9-1.3,7.5-3.5,11.3-5.1
	c1.7-0.7,3.4-1.3,4.9-2.2c1.5-1,4-1.6,5.9-2.1c7.7-2.2,15.7-3.3,23.7-2.4c8,0.8,15.7,4.4,23.8,5.8c4,0.7,8.2,1.3,12.2,1.4
	c3.3,0,6.6-1.2,9.1-3.4c4.9-4.2,8.7-10,15.5-11.4c7.9-1.7,15.1,1.5,21.3,6.1c5.5,4,11.1,8.4,17.9,9.9c4,0.9,8.1,0.8,12.2,0.8
	c3.6,0,7.5,0.3,10.6,2.3c6.6,4.1,5,13.1,3.5,19.3s-2.5,13.1-0.3,19.6c2,5.9,5.9,10.9,10,15.4c4.1,4.6,9.6,9,12.5,14.8
	c0.8,1.6,1.5,3.3,1.1,5.1s-1.3,3.3-2.8,4.1c-3,1.4-6.8-0.6-9-2.7c-2.7-2.5-4.7-5.8-6.8-8.8c-2.1-3-4.9-6.8-7.2-10.2
	c-0.8-1.3-1.7-2.5-2.5-3.8c0-0.2-0.1-0.3-0.2-0.5c-1.1-1.9-2.3-3.7-3.6-5.5c-2.1-3.5-4.2-7.1-6.3-10.7s-4-7.2-6.1-10.7
	c-0.9-1.7-2.2-3.1-3.3-4.7c-0.4-0.7-0.7-1.5-1-2.2c-0.4-0.7-1.3-1.5-1.9-2.3c-3.7-5.4-7.9-10.2-13.5-13.8s-12.2-5.4-18.7-7
	c-6.4-1.6-13.4-2.6-19.7,0c-2.8,1.2-6,3-6.8,6.1s0.3,6.4,1.4,9c0.6,1.3,1,2.7,1.8,3.9c0.8,1.3,1.9,2.3,3.1,3.2
	c2.3,1.6,5.2,2.4,8,2.9c5.9,1,11.9,1.4,17.8,2c12.2,1.2,25,3.4,33.4,13.2c0.4,0.4,0.8,0.9,1.1,1.4c0,0.2,0.1,0.3,0.2,0.5
	c0.6,1.1,1.2,2.2,1.9,3.2c0.2,2.2-2.7,4.5-4.1,5.7c-1.9,1.5-3.9,2.9-6.1,4.1c-4.3,2.4-8.8,4-12,7.9c-6.9,8.4-7.9,20.1-8.8,30.4
	c-0.2,2.3,3.3,2.3,3.5,0c0.5-5.8,1.1-11.7,2.6-17.3c1.3-4.9,3.6-10.1,7.8-13.2c1.9-1.5,4.2-2.4,6.4-3.5c2.2-1.1,4.3-2.4,6.4-3.8
	s5-3.6,6.6-6.2l0.2,0.3c0.8,1.2,1.7,2.3,2.6,3.5c0.8,1.2,1.9,3.1,2.9,4.6c4.5,7.1,9.5,13.9,14.5,20.7c1.9,2.5,4,5,6.8,6.6
	s6.6,2.4,9.6,1s4.8-4.6,5.1-7.8C316,105,313.8,100.7,311.9,98z M51.8,89.8c-2,7.6-4.3,15.1-7.7,22.1c-2.8,6-6.4,12.8-13.1,15.3
	c-2.8,1-6.8,1.1-8.4-2c-1.5-3.1-0.2-8,2.3-10.7c1.3-1.4,2.1-3.1,3-4.7c1.1-1.7,2-3.5,2.7-5.4c1.3-3.4,1.8-7,2.2-10.6
	c0.5-3.9,0.3-7.8-0.4-11.7c-0.8-3.9-1.9-7.8-2.7-11.7c-1.4-6.7,0.9-13.3,5.9-17.9s12.6-5.3,19.1-7.7c3.8-1.4,6.8-3.5,9.8-6.1
	c3-2.6,5.8-5.5,9-8c6-4.6,14.4-5.2,21.5-3.2c1.4,0.4,2.9,0.9,4.2,1.6c-3.8-0.4-7.7,0.2-11.2,1.6c-1.4,0.6-2.6,1.4-4.1,1.7
	s-3,1.4-4.4,2.4c-0.7,0.5-1.3,1.1-1.9,1.6s-1.1,0.7-1.8,1.1c-1.4,0.9-2.5,2.4-3.8,3.5c-4.2,3.8-8,7.4-9.9,12.9
	c-1.5,4.4-3,8.7-4.4,13.1C55.6,74.5,53.9,82.2,51.8,89.8z M114.9,46.3c0,5.5-6,7.8-10.4,9.7l0,0c-5.7,2.4-11.7,4.2-17.4,6.5
	c-9.8,4-18.6,9.7-25.8,17.5c-1.7,1.9-3.4,3.9-4.9,6l1.6-6.3c1.6-6.3,3.5-12.5,5.7-18.6c1.7-4.8,2.8-9.6,6.4-13.3
	c2-2,4.2-3.8,6.3-5.8c0.5-0.5,1.1-1.2,1.7-1.6c0.6-0.4,1.2-0.6,1.9-1.2c1.3-1.2,2.8-2.7,4.5-3.3c0.7-0.3,1.4-0.3,2-0.5
	c0.6-0.3,1.4-0.7,2.1-1.1c1.5-0.7,3.1-1.3,4.8-1.6c3.1-0.6,6.3-0.4,9.4,0.5c2.9,0.8,5.7,2.3,7.8,4.4
	C112.6,39.7,114.2,43.1,114.9,46.3z M255.6,57.3c-11.7-4.2-24.4-3.7-36.5-5.6l0,0c-2.7-0.4-5.7-1-7.9-2.7s-3.5-4.7-4.2-7.4
	c-0.4-1.4-0.8-2.9-0.6-4.3c0.2-1.4,1.8-2.6,3.2-3.4c3-1.7,6.3-2.2,9.7-2.1s6.9,0.9,10.2,1.8s6.7,1.8,9.9,2.9
	c6.3,2.2,11.6,6.4,15.9,11.5c1.1,1.3,2.1,2.7,3.1,4.1c0.4,0.7,0.9,1.4,1.4,1.9c0.6,0.7,0.9,1.4,1.4,2.3c0.8,1.8,2.3,3.2,3.4,4.9
	l0.5,0.8C261.9,60,258.8,58.4,255.6,57.3z"/>
</svg>
