<?xml version="1.0" encoding="utf-8"?>
<!-- Generator: Adobe Illustrator 27.9.0, SVG Export Plug-In . SVG Version: 6.00 Build 0)  -->
<svg version="1.1" id="Layer_1" xmlns="http://www.w3.org/2000/svg" xmlns:xlink="http://www.w3.org/1999/xlink" x="0px" y="0px"
	 viewBox="0 0 330.3 154.1" style="enable-background:new 0 0 330.3 154.1;" xml:space="preserve">
<g>
	<path style="stroke:#000000;stroke-width:3;stroke-linecap:round;stroke-linejoin:round;stroke-miterlimit:10;" d="M311,33.1
		c-0.5-0.8-1.6-1.2-2.5-0.6c-0.4,0.3-0.9,0.6-1.4,0.9l-0.7,0.4l-0.3,0.1l-0.3,0.1c-1.1,0.4-2.2,0.7-3.3,0.9H302l-0.9,0.1
		c-0.6,0-1.2,0-1.8,0l-0.8-0.1h-0.1l-0.4-0.1c-0.6-0.1-1.1-0.3-1.7-0.4l-0.9-0.3L295,34l-1.2-0.6c-0.8-0.4-1.6-0.9-2.4-1.5l-0.3-0.2
		l0,0l-0.6-0.5l-1.1-1c-0.7-0.6-1.4-1.3-2-2c-2.7-2.8-5.1-5.8-8.1-8.3c-1.5-1.3-3.2-2.4-4.9-3.3c-2.3-1.1-4.8-1.7-7.4-1.8
		c-10.2-0.5-18.9,5.5-27.1,10.5c-2.1,1.3-4.2,2.5-6.4,3.6l-1.5,0.7l-0.3,0.1l-0.3,0.1l-0.9,0.4l-3.4,1.1c-4.5,1.2-9.1,1.8-13.4,3.6
		c-2.3,0.9-4.3,2.2-6.2,3.8c-1.5,1.5-2.9,3.1-4,4.9c-2.3,3.7-3.7,7.9-4.8,12.1c-0.3,0.9-0.5,1.9-0.7,2.8c-0.3,0.4-0.6,0.8-0.7,1.3
		l-0.1,0.1l-0.2,0.2l-1,0.7l-0.5,0.3l0,0h-0.2l-0.2,0.1l-0.6,0.2l-0.3,0.1h-0.1c-0.5,0-1,0.1-1.4,0h-0.5l-0.9-0.2l-1-0.3l-0.5-0.2
		h-0.1l-0.2-0.1c-0.8-0.4-1.5-0.6-2.3-0.8c-1.5-0.2-2.9,0.1-4.4,0.4l-0.9,0.2l-0.5,0.1h-1.8c-1.4-0.3-2.9-0.7-4.3-1.1
		c-2.8-0.9-5.5-2-8.4-2.5c-1.5-0.3-3.1-0.4-4.6-0.4c-1.6,0.1-3.1,0.4-4.6,0.9c-1.5,0.4-2.9,1-4.3,1.4c-0.7,0.2-1.4,0.4-2.2,0.5H151
		l-0.6,0.1h-2.7l-0.4-0.1c-0.8-0.1-1.5-0.3-2.2-0.5c-1.5-0.4-3-1-4.4-1.5s-3.1-1.1-4.6-1.5c-5-7.3-11-13.8-18-19.3
		c-7.1-5.7-15-10.3-23.4-13.6c-4.7-1.9-9.5-3.2-14.4-4.5l-7.8-2.1c-2.7-0.8-5.2-1.7-7.9-2c-5.1-0.6-9.8,2.1-14,4.7
		c-4.1,2.6-7.2,5.2-10.6,8l-5,4.1c-1.8,1.4-3,2.4-4.9,3.7c-1.7,1.3-3.5,2.4-5.4,3.5c-0.9,0.5-1.8,1-2.7,1.5
		c-0.4,0.3-0.9,0.5-1.4,0.6c-0.2,0.1-0.5,0.3-0.7,0.3h-0.1L19.3,41c-1,0.4-1.9,0.7-2.9,1s-1.5,1.3-1.2,2.2c0.1,0.4,0.4,0.8,0.8,1
		c6.2,4.4,14.2,4.9,21.5,3.7c1.8-0.3,3.6-0.7,5.4-1.2l0.4,0.2l5.7,1.8c-3,1.1-5.9,2.6-8.5,4.5c-0.6,0.5-1.1,1.2-0.8,2
		c0.2,0.8,0.9,1.3,1.7,1.3c1.3,0,2.5,0.1,3.8,0.2l0.4,0.1h0.1l0.9,0.1l1.9,0.4l1.3,0.3c-0.7,0.4-1.3,0.9-1.9,1.4
		c-2.1,1.9-3.7,4.4-4.8,6.9c-0.7,1.5-1.3,3-1.8,4.5c-0.2,0.8,0.1,1.6,0.8,2s1.6,0.3,2.2-0.3l0.1-0.1l0.4-0.3l0.7-0.5
		c0.5-0.3,1-0.5,1.5-0.8l0.7-0.4l0,0l0.4-0.1c0.5-0.2,1-0.4,1.6-0.5l1.6-0.4h0.8c-3.4,4.3-5.1,9.9-6.1,15.3c-0.4,2-0.6,4-0.9,6
		c0,1,0.8,1.8,1.8,1.8c0.5,0,0.9-0.2,1.3-0.5l1.3-1.2l0.6-0.5l0.4-0.3c0,0,0.1,0,0.1-0.1c0.9-0.7,1.8-1.3,2.8-1.8l1.5-0.8l0.3-0.1
		l0.2-0.1l0.3-0.1c-2.2,5.1-3.4,10.6-3.7,16.1c-0.1,1.9,0,3.8,0.1,5.7c0,0.8,0.5,1.5,1.3,1.7s1.6-0.1,2-0.8c0.6-1.2,1.3-2.4,2.1-3.4
		l0.1-0.1c0.1-0.1,0.3-0.3,0.3-0.4l0.7-0.8c0.4-0.5,0.9-1,1.4-1.5s1-0.9,1.5-1.3l0.3-0.3c0.1,0,0.2-0.1,0.3-0.2l0.7-0.5
		c1.1-0.8,2.3-1.4,3.4-2l0.9-0.4l0.4-0.2l0.2-0.1l1.9-0.7c1.3-0.4,2.6-0.8,3.9-1l0.5-0.1h0.2l1-0.1c0.6-0.1,1.3-0.1,2-0.1
		s1.4,0,2,0.1l0.9,0.1H80l0.6,0.1c2.2,0.4,4.2,1,6.3,1.5c-4.4,2.5-8.5,5.3-12.8,8c-2.6,1.7-5.2,3.3-7.9,4.9
		c-1.4,0.8-2.8,1.5-4.2,2.2c-0.7,0.3-1.4,0.7-2.2,1l-0.5,0.2l-0.2,0.1l-1.2,0.5c-1.8,0.7-3.6,1.3-5.5,1.7l-1.4,0.3l-0.8,0.1
		l-0.3,0.1l0,0c-1,0.1-2,0.2-3,0.2c-0.9,0-1.6,0.7-1.8,1.5c-0.1,0.9,0.4,1.7,1.3,2c6.5,2.5,13.5,1.6,19.9-0.7
		c6.4-2.3,12.1-5.8,18.1-8.6c0.9-0.4,1.8-0.8,2.6-1.2h0.1l0.4-0.2l0.7-0.3l1.3-0.5c-1.9,2.8-3.3,5.8-4.7,8.9
		c-1.2,2.6-2.5,5.2-4.1,7.6c-0.4,0.6-0.8,1.2-1.2,1.8l-0.1,0.2l-0.1,0.1l-0.2,0.2l-0.7,0.9c-0.9,1.1-2,2.1-3.1,2.9c0,0,0,0,0,0.1
		l-0.2,0.1l-0.5,0.4l-1,0.7c-0.7,0.5-1.5,0.9-2.2,1.3l-1.1,0.5L70,136l0,0l-0.5,0.2c-0.8,0.3-1.6,0.6-2.5,0.8
		c-0.8,0.2-1.3,0.9-1.3,1.7c0,0.7,0.5,1.6,1.3,1.7c2.4,0.4,4.8,0.3,7.1-0.3c2.1-0.6,4.2-1.5,6-2.7c3.7-2.4,6.9-5.5,10.1-8.4
		c1-0.9,2-1.8,3-2.6l0.4-0.3l0.1-0.1l0.1-0.1l0.9-0.7c0.6-0.5,1.3-0.9,1.9-1.3c0.8-0.5,1.1-1.6,0.6-2.4s-1.6-1.2-2.5-0.6
		c-4.1,2.5-7.5,5.9-11.1,9.1l-2.4,2.1l-0.5,0.4c0.7-0.8,1.4-1.6,2-2.5c3.4-4.7,5.3-10.1,8-15.1l1.2-2c0.2-0.3,0.4-0.6,0.6-0.9
		c0.1-0.2,0.2-0.4,0.4-0.5l0.1-0.2c0.8-0.9,1.6-1.8,2.5-2.7l0,0c0.8-0.1,1.3-1,1.3-1.9c0-0.5-0.1-1-0.5-1.4
		c-0.8-0.7-1.6-0.6-2.4-0.1c-6.7,1.3-12.8,4.7-18.8,7.7c-1.5,0.8-3,1.5-4.5,2.3l-2.2,1l-1,0.4l-0.4,0.1l-0.6,0.3
		c-1.5,0.6-3.1,1.1-4.7,1.6l-2.3,0.6l-1.1,0.2h-0.2c2.8-1,5.4-2.3,8-3.7c5.6-3,10.8-6.7,16.1-10c3-2,6.1-3.8,9.3-5.4l0.3-0.1l0,0
		c0.9,0.1,1.8-0.9,1.8-1.8s-0.8-1.7-1.8-1.8l0.2-0.4l-0.7-0.1L90,95.8c-0.9-0.2-1.7-0.4-2.6-0.6c-1.7-0.5-3.4-1-5.2-1.3
		c-3-0.6-6.1-0.7-9.1-0.3c-5.7,0.8-11,3.3-15.3,7.1c-0.9,0.8-1.8,1.8-2.6,2.7c0-0.5,0-1,0.1-1.6l0.1-1.2c0-0.2,0-0.4,0.1-0.5v-0.2
		c0-0.1,0-0.1,0-0.2c0.5-3.3,1.3-6.5,2.5-9.5c0.2-0.4,0.3-0.8,0.5-1.3c0.1-0.1,0.1-0.3,0.2-0.4c0.1-0.2,0.1-0.4,0.3-0.6
		c0.4-0.9,0.8-1.7,1.3-2.6c0.4-0.6,0.3-1.4-0.1-2c-0.4-0.6-1.2-0.8-1.9-0.6c-3.3,0.6-6.3,2-9.1,3.9v-0.1c0.3-1.6,0.6-3.2,1-4.8
		c0.2-0.8,0.4-1.6,0.7-2.3l0.4-1.2c0.1-0.1,0.1-0.3,0.2-0.5c0.1-0.2,0.1-0.4,0.3-0.6c0,0-0.1,0.4,0,0l0.1-0.3l0.2-0.5l0.6-1.1
		c0.4-0.7,0.8-1.4,1.2-2c0.3-0.4,0.5-0.8,0.8-1.1l0.1-0.2l0.1-0.1c0.1-0.2,0.3-0.4,0.4-0.5c0.6-0.7,1.2-1.3,1.9-1.9
		c0.9-0.8,0.5-2.8-0.8-3c-3.3-0.5-6.8-0.1-9.9,1.1c0.4-0.7,0.8-1.4,1.2-2.1l0.5-0.8c0.1-0.1,0.2-0.3,0.3-0.4l0.1-0.1
		c0.2-0.2,0.4-0.4,0.6-0.7c0.2-0.3,0.4-0.5,0.7-0.8l0.6-0.6c0.1-0.1,0.2-0.2,0.3-0.3c-0.4,0.4,0,0,0.2-0.1c0.2-0.2,0.5-0.4,0.8-0.5
		L52,61l0.3-0.1h0.1l0.3-0.1l0.4-0.1c0.3-0.1,0.6-0.1,0.8-0.2c0.1,0,0.1,0,0.1,0h0.9c0.4,0,0.8,0,1.2,0.1c0.8,0,1.5-0.5,1.7-1.3
		c0.2-0.7-0.1-1.7-0.8-2c-3.2-1.5-6.6-2.5-10.1-3.1l0.3-0.1l0.9-0.4l0.4-0.2h0.1c2.4-1,4.9-1.6,7.5-2c0.8-0.1,1.4-1,1.3-1.7
		c0-0.8-0.6-1.5-1.3-1.7l-7.4-2.4c3.8-1.4,7.6-2.9,11.5-4.2c1.9-0.6,3.9-1.2,5.9-1.7c1.9-0.5,3.9-0.8,5.8-0.9c1.9-0.1,3.7-0.1,5.6,0
		l1.3,0.1l0.6,0.1l0.5,0.1c0.9,0.1,1.8,0.3,2.7,0.5c1.8,0.4,3.6,0.9,5.3,1.5c1.7,0.6,3.4,1.3,5,2.1c3.4,1.6,6.6,3.7,9.6,6
		c0.6,0.4,1.3,1,2,1.6l2.2,1.9c1.4,1.3,2.8,2.7,4.2,4c3,2.8,6.8,4.9,11,4.1c0.6-0.1,1.3-0.4,1.9-0.7c0.3-0.1,0.6-0.2,0.9-0.4l0,0
		c0,0,0.1,0,0.1-0.1l0.4-0.3c0.3-0.1,0.5-0.3,0.8-0.4l0.1-0.1l0.4-0.2l1-0.3l0.8-0.2h0.2l0.5-0.1c0.6,0,1.3,0,1.9,0l1,0.1h0.2
		l0.5,0.1l1.9,0.5c1.4,0.4,2.7,0.8,4,1.3c3,1.1,6,2.3,9.2,2.6s6.1-0.5,9.1-1.5c1.4-0.5,2.8-0.9,4.3-1.2h3.4l0.4,0.1
		c2.9,0.5,5.6,1.4,8.3,2.3c1.4,0.5,2.8,0.9,4.3,1.3c0.8,0.2,1.6,0.3,2.4,0.4c0.8,0,1.5-0.1,2.3-0.2c0.6-0.1,1.3-0.3,2-0.4l0.8-0.2
		h0.1c0.2,0,0.1,0,0,0h1.3c0,0,0,0,0.1,0h0.2l0.4,0.1l0,0l0.2,0.1l0.7,0.3l1.2,0.5c2.2,0.8,4.8,1,7,0.1c1.5-0.7,2.9-1.6,4.2-2.8
		c1.5-0.7,2.9-1.6,4.2-2.8c1.5-1.4,2.8-2.9,3.9-4.6l0.8-1.1c0,0,0.1,0,0.1-0.1l0.2-0.2l0.5-0.6l0.5-0.5l0.3-0.2l0,0l0,0l1.4-0.9
		c3.6-2.4,7.3-4.7,11.3-6.5c0.9-0.4,1.8-0.8,2.8-1.1c1-0.4,2.1-0.7,3.1-1s2-0.5,3-0.7L234,41l0.8-0.1h0.6c8.7-1.1,17.5-0.1,26.1,0.9
		c5.8,0.7,11.7,1.5,17.6,1.6c0.2,0.5,0.6,0.8,1.1,0.9c0.9,0.1,1.8,0.3,2.7,0.6c0.5,0.1,0.9,0.3,1.4,0.4l0.6,0.3l0,0l0.4,0.1l0.4,0.2
		c-3.6,0.6-7.1,1.7-10.4,3.3c-1.3,0.7-2.6,1.4-3.8,2.3c-0.6,0.4-1.1,1.2-0.8,2s0.9,1.3,1.8,1.3c1.3,0.1,2.6,0.1,3.9,0.3h0.3l0.5,0.1
		l1,0.2l1.9,0.5c0.6,0.2,1.3,0.4,1.9,0.6h0.1l0.4,0.2l0.7,0.3c-4.4,1.3-8.5,3.4-12,6.4c-0.5,0.5-0.6,1.3-0.4,1.9s0.9,1.1,1.6,1.1
		c0.5,0,1.1,0,1.6,0.1h0.4l0.8,0.1c0.5,0.1,1.1,0.2,1.6,0.4l0.7,0.2l0.4,0.2l0.2,0.1c0.5,0.2,0.9,0.4,1.4,0.7
		c-3.6,0.5-7.1,1.4-10.4,2.8c-0.6,0.3-0.9,1.2-0.8,1.8c0.1,0.6,0.6,1.2,1.3,1.5l0.3,0.1l0.2,0.1l0.9,0.4l1.6,0.9l0.8,0.5l0.1,0.1
		l0,0l0.4,0.4c0.5,0.4,0.9,0.8,1.4,1.2c0.4,0.4,0.9,0.9,1.3,1.4c0,0.1,0.1,0.1,0.1,0.1l0,0l0.3,0.4l0.5,0.8c0.4,0.5,0.6,1,0.9,1.6
		c0.1,0.3,0.3,0.5,0.4,0.8c0.1,0.1,0.1,0.2,0.1,0.3l0.1,0.3c0.1,0.4,0.3,0.8,0.4,1.1c-4-1.2-8.4-1.7-11.9,0.6
		c-1.1,0.7-1.3,2.4,0,3.1c1.1,0.6,2.2,1.2,3.2,1.9c0,0,0.1,0.1,0.2,0.2l0.3,0.2l0.7,0.6c0.4,0.4,0.9,0.8,1.3,1.3l0.5,0.6l0.1,0.1
		L274,94c0.4,0.5,0.6,1.1,0.9,1.6l0.1,0.3l0.1,0.3c0.1,0.3,0.2,0.6,0.3,0.9l0.2,0.9c0,0.1,0,0.3,0.1,0.4v0.1c0,0.4,0.1,0.7,0.1,1.1
		s0,0.3,0,0.4c-5.4-3.1-10.9-6.1-16.9-8c-3.3-1.1-6.8-1.8-10.3-1.9c-3.6-0.2-7.4,0.3-10.6,2c-1.5,0.8-2.8,1.9-4.3,2.8
		c-0.7,0.5-1.4,0.9-2.1,1.3l-0.6,0.3l0,0l-0.2,0.1l-1.3,0.4c-0.8,0.2-1.3,0.9-1.3,1.7c0,0.9,0.5,1.4,1.3,1.7
		c1.4,0.6,2.8,0.8,4.3,0.7c1.4-0.1,2.8-0.3,4.2-0.4c0.8,0,1.5,0,2.2,0.1h1.4l0.6,0.1c1.5,0.3,3,0.7,4.4,1.3l1.1,0.4l0.5,0.2h0.1
		l0.2,0.1c0.8,0.3,1.5,0.6,2.2,1c1.4,0.7,2.8,1.4,4.1,2.2c2.8,1.5,5.6,3,8.5,4.2c1,0.4,2,0.8,3.1,1.1h-0.7c-0.9,0.1-1.8,0.1-2.7,0.1
		c-0.9,0-1.7,0-2.6-0.1l-0.7-0.1h-0.3l-1.6-0.3c-1.9-0.4-3.8-0.9-5.6-1.5c-2.1-0.7-4.2-1.5-6.3-2.3c-0.9-0.3-2,0.4-2.2,1.3
		s0.3,1.8,1.3,2.2l1.1,0.5l0,0l0.2,0.1l0.6,0.3c0.8,0.4,1.5,0.7,2.3,1.1s1.5,0.8,2.2,1.3l1,0.7l0.4,0.3c0.1,0,0.2,0.1,0.3,0.2
		l0.2,0.1c1.3,1,2.4,2.1,3.5,3.3l0.4,0.5l0.1,0.2c0.3,0.3,0.5,0.6,0.7,0.9c0.5,0.7,0.9,1.4,1.3,2.1c0.2,0.4,0.4,0.7,0.5,1.1
		c0,0.1,0.1,0.3,0.2,0.4l0.1,0.3c-5.5-1.3-11.2-2-16.9-1.9c-1.9,0-3.7,0.1-5.6,0.3c-0.9,0.1-1.8,0.8-1.8,1.8s0.8,1.9,1.8,1.8
		c3.2-0.3,6.5-0.4,9.7-0.3c1.6,0.1,3.3,0.2,4.9,0.4h0.9l1.2,0.2l2.4,0.5c1.8,0.4,3.6,0.8,5.3,1.3c0.6,0.2,1.3,0,1.8-0.4
		c0.5-0.5,0.6-1.1,0.5-1.8c-0.8-4.5-3.2-8.4-6.4-11.6c3.4,0.6,6.9,0.6,10.3-0.1c2.1-0.4,4.1-1.2,6-2.3c0.9-0.5,1.1-1.6,0.6-2.5
		c-0.3-0.5-0.9-0.9-1.5-0.9c-0.8,0-1.5-0.1-2.3-0.2h0l-0.6-0.1l-1.1-0.2c-1.4-0.4-2.9-0.8-4.3-1.4l-0.5-0.2l-0.3-0.1l-0.9-0.4
		l-2.1-1c-1.4-0.6-2.7-1.4-4.1-2.1c-5.6-3-11.4-6-17.8-6.2c-0.9,0-1.8,0-2.8,0.1l1.9-1.3c0.6-0.4,1.3-0.8,1.9-1.1l0.5-0.2l0.4-0.2
		l1.3-0.4c0.4-0.1,0.8-0.2,1.3-0.3l0.5-0.1h0.4c0.9-0.1,1.8-0.1,2.6-0.1s1.7,0,2.5,0.1l1.2,0.1h0.3l0.6,0.1c1.6,0.3,3.3,0.6,4.9,1.1
		c1.6,0.5,3.2,1,4.8,1.7l0.5,0.2c-0.1-0.1,0.3,0.1,0.3,0.1l1.2,0.6c0.8,0.3,1.5,0.7,2.3,1.1c3.4,1.7,6.7,3.6,10.1,5.6
		c0.5,0.3,1.1,0.4,1.6,0.1c0.5-0.2,0.9-0.6,1-1.1c1.1-2.7,0.9-5.8-0.2-8.5s-2.9-5-5.1-6.7l-0.9-0.6h0.8c0.6,0,1.1,0,1.7,0.1h0.5
		l0.9,0.2c0.6,0.1,1.1,0.3,1.7,0.4c1.1,0.3,2.2,0.7,3.3,1.1c1.1,0.4,2.4-0.6,2.3-1.7c-0.7-5.8-3.9-11.1-8.6-14.5l-0.4-0.3
		c1-0.3,2-0.5,3-0.8l1.7-0.3h0.6l0.9-0.1c1.2-0.1,2.4-0.2,3.7-0.2c1.2,0,2.3-1.9,1.3-3c-2.3-2.4-5.2-4.2-8.5-5
		c1-0.6,2.1-1.2,3.2-1.7l0.4-0.1l0.3-0.1l1-0.4c0.6-0.3,1.3-0.5,1.9-0.6c1.3-0.4,2.7-0.6,4.1-0.8c0.6-0.1,1.1-0.7,1.3-1.3
		c0.2-0.6,0-1.3-0.5-1.8c-2.8-2.9-6.6-4.3-10.5-4.9l0.4-0.2l0.1,0l0.6-0.3c0.7-0.3,1.5-0.6,2.3-0.8c1.5-0.5,3.1-0.9,4.7-1.1l0.5-0.1
		h0.3l1.2-0.1c0.8-0.1,1.7-0.1,2.5-0.1c1,0,1.8-0.9,1.8-1.9c0-0.4-0.2-0.9-0.5-1.2c-1.3-1.1-2.7-2-4.2-2.8
		c6.9-0.6,13.8-2.3,19.7-5.9c0.8-0.5,1.6-1,2.3-1.5S311.5,33.9,311,33.1z M57.3,106.5C57.3,106.5,57.3,106.6,57.3,106.5L57.3,106.5z
		 M124.2,55.7l-0.8,0.5c-0.1,0-0.3,0.1-0.4,0.2l-0.5,0.3l-0.4,0.2l-0.5,0.2l-0.3,0.1h-2l-0.4-0.1c-0.4-0.1-0.8-0.2-1.1-0.3l-0.2-0.1
		h-0.1l-0.7-0.4c-0.8-0.4-1.5-0.9-2.2-1.5c-1.5-1.3-2.8-2.7-4.2-3.9c-1.4-1.3-2.8-2.5-4.3-3.7c-6-4.7-12.8-8.5-20.1-10.5
		c-3.6-1-7.4-1.5-11.2-1.5c-4.1,0-8.1,0.6-11.9,1.7c-7.7,2.1-15,5.8-22.9,7.6c-3.4,0.9-6.9,1.2-10.4,1.1l-1.3-0.1l-1.1-0.1h-0.6
		L26,45.3L24.7,45c-0.9-0.2-1.7-0.4-2.5-0.8L21.6,44l-0.1-0.1h-0.1l-0.2-0.1c6.7-2.8,12.6-7.4,18.2-12l4.9-4l1.2-1l0.6-0.5l0.3-0.2
		l0.1-0.1l0,0l2.5-1.9c1.7-1.3,3.5-2.4,5.3-3.5s4-2.3,6.2-2.8c2.2-0.6,4.7-0.2,7.1,0.5s5.1,1.5,7.6,2.2c5,1.4,10.1,2.5,15,4.3
		l3.2,1.1l2.8,1.1c2,0.9,3.9,1.8,5.9,2.9c3.9,2,7.6,4.4,11.1,7c1,0.7,1.5,1.1,2.4,1.8c0.8,0.7,1.7,1.4,2.5,2.1
		c1.6,1.4,3.2,2.9,4.8,4.4c1.5,1.5,3.1,3.2,4.5,4.8s2.4,2.9,3.6,4.5C128.6,54.3,126.3,54.7,124.2,55.7z M293.9,38.6l-2.7,0.5h-0.4
		l-0.6,0.1l-1.4,0.1c-7.5,0.7-15,0.1-22.4-0.8c-8.3-1-16.6-2.2-25.1-1.9c-4.2,0.1-8.4,0.6-12.4,1.7c-4.1,1.1-8.1,2.8-11.7,4.9
		c-1.8,1-3.6,2.1-5.3,3.3c-1.8,1.1-3.5,2.1-4.8,3.7c-0.6,0.8-1.1,1.5-1.7,2.3l-0.7,1l-0.3,0.4l-0.5,0.5c-0.5,0.6-1,1.1-1.6,1.6
		c0.2-0.9,0.5-1.8,0.8-2.7s0.7-2,1-3l0.3-0.7l0.1-0.3l0.1-0.3l0.6-1.4c0.5-0.9,1-1.9,1.5-2.8c0.3-0.4,0.5-0.8,0.8-1.2l0.3-0.4
		l0.2-0.3l0.3-0.4c0.6-0.8,1.4-1.5,2.2-2.2l0.4-0.3l0.3-0.2l0.3-0.2c0.5-0.3,1-0.6,1.5-0.9c0.5-0.3,0.9-0.5,1.4-0.7l0.3-0.2h0.1
		l0.9-0.4c1.1-0.4,2.2-0.7,3.3-1c2.3-0.6,4.5-1,6.8-1.5s4.5-1.2,6.7-2c2.3-1,4.6-2.1,6.8-3.4c4.2-2.4,8.2-5.2,12.6-7.5
		c2-1.1,4.2-2,6.3-2.7c1.1-0.4,2.3-0.6,3.5-0.9l0.8-0.1l0.5-0.1h0.1l1.8-0.2c1.1,0,2.3,0,3.4,0.1h0.1l0.5,0.1l0.7,0.1l1.8,0.5
		l0.9,0.3l0.1,0.1l0.2,0.1l1.3,0.7c0.8,0.5,1.5,1,2.3,1.5l0.1,0.1l0.3,0.2l0.5,0.4l1.1,1c0.7,0.6,1.4,1.3,2,2
		c1.3,1.4,2.6,2.8,3.9,4.2c2.6,2.8,5.5,5.6,9.1,7.2c1,0.5,2.1,0.8,3.2,1.1L293.9,38.6z"/>
	<path style="stroke:#000000;stroke-width:3;stroke-linecap:round;stroke-linejoin:round;stroke-miterlimit:10;" d="M123.9,70.8
		c0.9-0.3,1.5-1.3,1.3-2.2c-0.3-0.9-1.3-1.5-2.2-1.3c-8.7,2.3-17,6.1-24.2,11.5c-2.1,1.6-4.2,3.3-6.1,5.1c-0.6,0.6-0.7,1.6-0.1,2.4
		c0.5,0.7,1.5,0.9,2.3,0.4l0.8-0.4l0.4-0.2l0.2-0.1l1.7-0.6l1.9-0.5l0.9-0.1h0.6c1.2-0.1,2.4-0.1,3.7,0l0.8,0.1h0.3l0.5,0.1l0,0
		c-1.5,4.1-2.8,8.1-4.1,12.3c-0.3,0.9,0.3,1.9,1.3,2.2c1,0.3,1.9-0.3,2.2-1.3c1.4-4.7,2.9-9.4,4.7-14c0.4-0.9-0.4-2-1.3-2.2
		c-2.5-0.7-5.2-1-7.8-0.7c1.3-0.9,2.5-1.8,3.9-2.6c1.4-0.8,3.8-2.2,5.7-3.2l2.9-1.3l0.4-0.1l0,0l0.9-0.4l1.5-0.6
		C119.2,72.2,121.5,71.4,123.9,70.8z"/>
	<path style="stroke:#000000;stroke-width:3;stroke-linecap:round;stroke-linejoin:round;stroke-miterlimit:10;" d="M212.4,84.8
		l-2.8-2.3l0.9-0.2h0.2l0.6-0.1c0.4-0.1,0.7-0.1,1.1-0.1l2.4-0.1c1.5,0,3,0,4.5,0.2l1.2,0.1h0.3l0.6,0.1c0.8,0.1,1.5,0.3,2.3,0.4
		c1,0.3,1.9-0.3,2.2-1.3c0.2-0.6,0-1.3-0.4-1.7c-5.3-5.5-11.7-9.9-18.7-13.1c-2.1-0.9-4.2-1.7-6.3-2.4c-1-0.3-1.9,0.3-2.2,1.3
		c-0.2,0.9,0.3,1.9,1.3,2.2l2.7,0.9l1.2,0.5l0.6,0.3l0.1,0.1l0.3,0.1c1.7,0.8,3.4,1.5,5,2.4s3.2,1.9,4.7,2.9l2.3,1.6l0.4,0.3L217,77
		l0.3,0.2l1.1,0.9l0.5,0.4c-4.6-0.4-9.3,0.1-13.7,1.3c-0.7,0.2-1.2,0.8-1.3,1.5c-0.1,0.8,0.3,1.3,0.9,1.8l1.3,1l0.3,0.3l0,0
		c0.3,0.2,0.5,0.4,0.7,0.6l2.5,1.9c1.7,1.4,3.3,2.8,4.9,4.2c1.6,1.4,3,2.9,4.4,4.6l0.9,1.1l0.3,0.3c0,0.1,0.4,0.4,0.1,0.1
		c-0.3-0.3,0.3,0.4,0.5,0.6c0.6,0.8,1.1,1.7,1.7,2.5c0.6,1,1.1,2,1.6,3c0.1,0.3,0.3,0.5,0.4,0.8l0.2,0.5c0.2,0.6,0.4,1.1,0.6,1.7
		c0.3,0.9,1.3,1.5,2.2,1.3c0.9-0.3,1.6-1.3,1.3-2.2C225.6,97,219.2,90.4,212.4,84.8z"/>
	<path style="stroke:#000000;stroke-width:3;stroke-linecap:round;stroke-linejoin:round;stroke-miterlimit:10;" d="M144.6,85.7
		c-7.7,1.3-15.8,2.8-22.5,7.2c-1.9,1.3-3.7,2.8-5.3,4.4c-0.5,0.5-0.6,1.3-0.4,2c0.3,0.6,0.9,1.1,1.6,1.1h1.7l0.9,0.1h0.7
		c1.1,0.2,2.2,0.4,3.2,0.8l1.6,0.6h0.1l0.4,0.2l0.6,0.3c-3.9,1.6-7.5,3.9-10.6,6.8c-0.8,0.6-0.8,1.8-0.2,2.5s1.8,0.8,2.5,0.2
		c0.1-0.1,0.1-0.1,0.2-0.2c0.5-0.4,1-0.9,1.5-1.3c0.1-0.1,0.2-0.2,0.4-0.3c0,0,0.1-0.1,0.2-0.2l0.6-0.5c1-0.8,2.1-1.4,3.2-2.1
		c1.1-0.6,2.3-1.2,3.4-1.7l0.3-0.1l0.3-0.1l0.9-0.3l1.9-0.6c0.7-0.2,1.2-0.8,1.3-1.5s-0.3-1.4-0.9-1.8c-2.9-2.2-6.3-3.6-9.9-4.2
		c0.4-0.3,0.7-0.6,1.1-0.8c1.6-1.1,3.2-2,5-2.7l0.3-0.1l0,0l0.6-0.3l1.4-0.5c0.9-0.3,1.8-0.6,2.7-0.9c1.9-0.5,3.8-1,5.7-1.4
		s4.2-0.8,6.3-1.1c0.9-0.2,1.5-1.4,1.3-2.2C146.5,86,145.6,85.5,144.6,85.7z"/>
	<path style="stroke:#000000;stroke-width:3;stroke-linecap:round;stroke-linejoin:round;stroke-miterlimit:10;" d="M211.9,107.6
		c-5.1-3.7-10.9-6.4-16.8-8.8l1.6-0.1c1.3-0.1,2.5,0,3.8,0l0.9,0.1l0.5,0.1h0.3c0.6,0.1,1.3,0.2,1.9,0.3c0.8,0.2,1.6-0.1,2-0.8
		c0.4-0.7,0.3-1.6-0.3-2.2c-3.2-3.9-7.2-7-11.8-9c-1.4-0.6-2.8-1.1-4.2-1.6c-1-0.3-2,0.3-2.2,1.3c-0.3,1,0.3,2,1.3,2.2
		c0.8,0.2,1.5,0.4,2.2,0.7l0.9,0.4l0.4,0.2l0.5,0.2c1.4,0.6,2.7,1.4,3.9,2.2c0.3,0.2,0.6,0.4,0.9,0.6l0.5,0.3l0.3,0.3
		c0.5,0.4,0.9,0.7,1.4,1.1c-3.8-0.1-7.7,0.3-11.4,1.5c-0.7,0.3-1.4,0.9-1.3,1.7c0,0.8,0.6,1.5,1.3,1.8l4.4,1.7l2.2,0.9l0.4,0.1
		l0.4,0.2l1.1,0.5c2.9,1.3,5.8,2.7,8.6,4.3c1.5,0.9,3,1.9,4.5,2.9c0.8,0.6,2,0.1,2.4-0.6C213.1,109.1,212.8,108.1,211.9,107.6z"/>
</g>
</svg>
