<?xml version="1.0" encoding="utf-8"?>
<!-- Generator: Adobe Illustrator 27.9.0, SVG Export Plug-In . SVG Version: 6.00 Build 0)  -->
<svg version="1.1" id="Layer_1" xmlns="http://www.w3.org/2000/svg" xmlns:xlink="http://www.w3.org/1999/xlink" x="0px" y="0px"
	 viewBox="0 0 290.7 178.7" style="enable-background:new 0 0 290.7 178.7;" xml:space="preserve">
<g>
	<path style="stroke:#000000;stroke-width:3;stroke-linecap:round;stroke-linejoin:round;stroke-miterlimit:10;" d="M278.4,71.6
		c-0.4-2-0.9-4-1.1-6c-0.2-2-0.2-3.6-0.3-5.4c-0.1-3.3-0.2-6.7-1.4-9.8c-0.6-1.6-1.5-3.1-2.7-4.4c-1.3-1.3-2.9-2.3-4.5-3.1
		c-6.8-3.7-14.6-4.5-22.1-5.7c-3.8-0.6-7.6-1.4-11.2-2.7c-1.9-0.7-3.7-1.5-5.6-2.3c-1.8-0.8-3.5-1.5-5.2-2.3
		c-3.5-1.6-6.9-3.6-9.9-6.1c-2.9-2.6-6-5-9.6-6.6s-7.6-2.4-11.5-1.5c-3.6,0.8-6.7,2.9-8.8,5.9c-0.8,1.1-1.4,2.2-1.8,3.5
		c-0.8-0.3-1.6-0.6-2.4-0.7c-2.9-0.5-6-0.1-8.7,1c-0.9-0.6-1.8-1.2-2.8-1.6c-2.8-1.2-5.8-1.9-8.9-2.1c-1.6-0.1-3.3-0.1-4.8-0.1
		c-1.6,0-3.3-0.1-4.9,0c-1.7,0.1-3.4,0.3-5.1,0.6l-2.4,0.4l-0.6,0.1h-0.4l-1.2,0.1c-1.7,0.1-3.3,0.1-4.9,0.1c-1.6,0-3.1,0.2-4.7,0.3
		c-2.2,0.2-4.4,0.7-6.5,1.4c-3.1-1.6-6.8-1.6-10.1-0.4l-1.2,0.5c-0.7-3.3-2.5-6.2-5-8.3c-2.9-2.4-6.5-3.5-10.3-2.8
		c-3.8,0.6-7.1,2.8-10.1,4.9s-6.2,4.8-9.5,6.9c-6.5,4.2-14.1,7.9-21.9,8.5c-7.9,0.6-15.8-1-23.5,0.8c-3.7,0.9-7.2,2.6-10.2,5.1
		c-2.6,2.4-4.8,5.2-6.3,8.4c-0.8,1.6-1.4,3.3-1.9,5c-0.5,1.9-0.7,3.8-1,5.6c-0.6,4-1.2,8-0.9,12s1.5,8,2.7,11.9s2.4,7.6,3.8,11.3
		c2.9,7.4,6.4,14.6,10.4,21.5c2,3.4,4.1,6.7,6.4,9.9c2.2,3.2,4.9,6.3,6.9,9.7c2.1,3.4,2.9,6.9,3.4,10.7c0.4,3.8,0.6,7.9,1.3,11.7
		c0.3,1.9,0.9,3.7,1.6,5.5c0.4,1,1.7,1.7,2.6,0.7c6.7-8.1,10.4-18,12.3-28.1c1-5.2,1.6-10.5,2-15.8c0.4-5.3,0.6-10.7,0.6-16.1
		c0-10.9-1-22,1.3-32.8c0.5-2.6,1.3-5.2,2.3-7.7c0.9-2.2,2.1-4.8,3.4-6.6c1.4-1.8,3.2-3.2,4.9-4.6c1.7-1.4,3.6-2.8,5.1-4.5
		c0.9-1,1.7-2.1,2.5-3.1l3.1-3.9c1.8-2.2,3.5-4.5,5.4-6.6c3.3-3.7,7.7-7.5,13-7.2c0.7,0,1.5,0.2,2.2,0.4l-1.9,2l-0.6,0.6l-0.3,0.2h0
		l-0.1,0.1h-0.1l-0.1,0.1l-0.7,0.5l-0.2,0.1h-0.2l-0.2,0.1h-0.2c0.1,0,0,0-0.1,0.1h-0.2l-1.1,0.1c-0.8,0.1-1.5,0.2-2.3,0.4
		c-2.6,0.8-4.6,2.6-6.2,4.7c-1.6,2.1-2.9,4.6-4.3,6.9c-0.4,0.7-0.2,1.7,0.6,2.1c0.7,0.4,1.7,0.2,2.1-0.6c1.3-2,2.4-4.1,3.7-6
		l0.5-0.7l0.1-0.1c0.1-0.1,0.2-0.2,0.3-0.3c0.4-0.4,0.7-0.8,1.1-1.2l0.6-0.5h0.1l0.4-0.2l0.7-0.4l0.4-0.2l0.2-0.1
		c0.1,0,0.2-0.1,0.4-0.2l0.4-0.1l1-0.2l0.4-0.1h0.2l1-0.1c1.4-0.2,2.8-0.8,3.8-1.7c0.9-0.7,1.7-1.7,2.5-2.5c0.4-0.5,0.9-0.9,1.3-1.3
		c0.1-0.1,0.2-0.2,0.3-0.3l0.1-0.1c0.2-0.2,0.5-0.3,0.8-0.5l0.5-0.2l0,0l0.4-0.2l1.3-0.4c0.4-0.1,0.9-0.2,1.3-0.3l0.2-0.1h0.1
		l0.7-0.1h1.7c-2.1,1.2-4,2.6-6,4.1c-1.2,0.9-2.4,1.7-3.6,2.5c-0.6,0.4-1.3,0.8-2,1.1l-0.9,0.4l-0.3,0.1h-0.1l-0.6,0.2
		c-0.7,0.2-1.4,0.5-2.1,0.6c-0.8,0.2-1.3,1.1-1.1,1.9c0.2,0.8,1.1,1.3,1.9,1.1c6-1.3,10.4-5.8,15.5-8.9c0.6-0.4,1.3-0.7,1.9-1.1
		l0.9-0.4l0.2-0.1h0l0.6-0.2c1.4-0.6,2.9-1,4.4-1.2l1.1-0.2l0.2-0.1h0l0.7-0.1l2.3-0.2c1.6-0.1,3.2-0.1,4.8-0.1c1.7,0,3.3-0.2,5-0.5
		l2.4-0.4l1.2-0.2l0.6-0.1h0l0.4-0.1c1.6-0.2,3.3-0.3,4.9-0.2c1.7,0.1,3.3,0,5,0.1c0.8,0,1.6,0,2.4,0.1l1,0.1h0.5l0.3,0.1
		c1.4,0.2,2.9,0.6,4.2,1l0.5,0.2l0.2,0.1h0.1l0.2,0.1l0.2,0.1l0.6,0.3c0.6,0.3,1.3,0.7,1.9,1.1l0.8,0.6l0.3,0.2l0.1,0.1l0.3,0.2
		l1.6,1.4c4.3,3.9,8.2,8.8,14.1,10.3c0.8,0.2,1.6,0.3,2.4,0.4c0.9,0,1.5-0.7,1.5-1.5c0-0.8-0.7-1.5-1.5-1.5h-0.5l-0.3-0.1
		c-0.4-0.1-0.7-0.1-1-0.2l-1-0.3L186,37l-0.3-0.2c-0.6-0.3-1.3-0.6-1.9-1l-0.9-0.6l-0.4-0.3l-0.2-0.1l-0.1-0.1
		c-2.3-1.8-4.2-3.9-6.3-5.9l-1.5-1.4c0.4-0.1,0.9-0.2,1.3-0.3h0.2l0.4-0.1l1-0.1c0.6,0,1.2,0,1.8,0.1h0.2l0.4,0.1
		c0.3,0.1,0.6,0.2,1,0.3l0.4,0.1l0,0l0.2,0.1l0.8,0.4l0.4,0.2h0.1l0.6,0.6c0.4,0.4,0.8,0.8,1.1,1.3c-0.2-0.3,0,0.1,0.1,0.1
		c0.1,0.1,0.1,0.2,0.2,0.3c0.2,0.3,0.4,0.5,0.6,0.8c0.2,0.3,0.7,1,1,1.4c0.7,1,1.6,2,2.6,2.9c0.9,0.7,1.7,1.4,2.6,2.2l2.3,2.2
		c2.1,2.1,4.5,4,6.9,5.6c0.7,0.4,1.6,0.2,2.1-0.5l0,0c0.4-0.7,0.2-1.7-0.6-2.1c-0.6-0.4-1.3-0.8-1.9-1.3l-0.8-0.6l-0.2-0.2l-0.4-0.3
		c-0.9-0.8-1.8-1.5-2.6-2.4c-1.6-1.6-3.2-3.2-4.9-4.5c-0.5-0.4-0.9-0.8-1.4-1.2l-0.6-0.7l-0.3-0.4l0,0l-0.2-0.2
		c-0.8-1-1.5-2.1-2.3-3.1c1.8-0.3,3.8,0.2,5.4,0.9c2.5,1.1,4.5,2.9,6.3,4.9c1.8,2,3.3,4.2,4.8,6.4s2.6,4.8,3.8,7.2
		c1.2,2.5,2.1,4,3.7,5.7c1.7,1.7,3.3,2.9,5,4.3c1.7,1.4,3.3,2.7,4.7,4.3c0.2,0.2,0.4,0.5,0.6,0.8c0.3,0.5,0.6,1,0.8,1.5
		c0.6,1.2,1,2.4,1.4,3.7c3.2,10.7-0.2,21.9-2.4,32.4c-1.2,5.7-1.9,11.5-2.1,17.3c-0.1,5.6,0.2,11.1,0.9,16.6
		c1.4,11,4.6,22,10.4,31.5c0.7,1.2,1.4,2.3,2.2,3.4c0.6,0.9,2.1,1.1,2.6,0c3.7-7,3.1-15.2,5.9-22.6c0.6-1.6,1.5-3.2,2.6-4.5
		c1.2-1.4,2.5-2.6,3.6-4c1.1-1.4,1.8-3.4,2.6-5.1c0.8-1.7,1.9-4,2.9-6c3.9-7.6,8.4-15,13-22.3l6.8-10.7l3.3-5.3
		c1.1-1.8,2.4-3.6,3.1-5.6C279.8,79.5,279.1,75.4,278.4,71.6z M96.5,27.6C92,31.1,88.7,36,85.1,40.4c-1.7,2.1-3.3,4.4-5.3,6.2
		c-2,1.8-3.7,3.1-5.6,4.6c-1.8,1.6-3.3,3.1-4.5,5.1c-1.4,2.4-2.6,5-3.5,7.6c-3.7,10.6-3.3,22-3.1,33.1s0,21.7-1.5,32.4
		c-1.5,10.7-4.2,20.5-10.2,29.1l-0.6,0.9c-1.7-6.3-1.1-13.1-2.8-19.5c-1-3.8-3.1-7.1-5.4-10.3c-2.3-3.2-4.6-6.2-6.7-9.5
		C27.4,107.4,21,93.3,17,78.5c-0.6-2-1-4-1.4-6c-0.2-1.8-0.3-3.7-0.2-5.6c0.2-3.9,0.7-7.7,1.5-11.5c1.3-6.4,5-12.6,10.9-15.7
		c6.8-3.7,14.5-2.9,22-2.7c3.9,0.1,7.9,0,11.7-0.9s7.6-2.5,11.1-4.2c3.5-1.7,6.8-3.7,10-6c3.1-2.2,6-4.7,9.3-6.8
		c2.8-1.7,6-3.3,9.4-2.8c3.3,0.5,5.8,2.6,7.4,5.3c0.5,0.7,0.8,1.5,1,2.3C105.1,22.8,100.2,24.8,96.5,27.6z M276.1,79.5
		c-0.1,1.7-0.6,3.4-1.6,4.8c-1.1,1.8-2.1,3.6-3.3,5.3l-6.6,10.4c-4.5,7.1-8.9,14.2-13,21.6c-2,3.7-3.9,7.3-5.6,11.1
		c-0.8,1.7-1.5,3.2-2.7,4.6c-1.2,1.4-2.3,2.4-3.4,3.7c-2.3,3-3.4,6.8-4.1,10.5c-0.7,3.7-1.2,7.5-2.1,11.2c-0.2,0.9-0.5,1.7-0.8,2.5
		c-5.4-8.7-8.6-18.6-10.3-28.7c-0.9-5.5-1.3-11.1-1.2-16.7c0-5.8,0.6-11.6,1.7-17.3c2.2-11,5.8-22.4,3.2-33.6
		c-0.3-1.4-0.7-2.7-1.3-4.1c-0.4-1.2-1-2.5-1.6-3.6c-1.1-1.7-2.7-3.2-4.3-4.5c-1.5-1.3-3.6-2.9-5.3-4.5c-0.7-0.6-1.4-1.3-2.1-2.1
		l-0.3-0.3l-0.3-0.5c-0.4-0.6-0.7-1.2-1.1-1.8c-1.4-2.5-2.4-5.2-3.8-7.6c-1.4-2.4-3-4.7-4.8-6.8c-3.5-4.3-8.4-8.3-14.2-8.2
		c-0.5,0-1,0.1-1.6,0.2c1-2.4,2.9-4.4,5.2-5.6c3-1.7,6.6-1.7,9.8-0.7c3.2,1,6.7,3,9.5,5.3c1.5,1.3,3,2.6,4.6,3.8
		c1.5,1.1,3.1,2.1,4.8,3c3.4,1.8,6.9,3.2,10.5,4.7c3.5,1.5,7.2,2.7,10.9,3.5c7.3,1.5,14.9,1.9,21.9,4.5c1.6,0.6,3.2,1.3,4.7,2.2
		c1.4,0.8,2.7,1.7,3.7,2.9c1.8,2.4,2.2,5.5,2.4,8.4c0.2,3.6,0.2,7.1,0.8,10.7C275.1,71.5,276.4,75.6,276.1,79.5L276.1,79.5z"/>
	<path style="stroke:#000000;stroke-width:3;stroke-linecap:round;stroke-linejoin:round;stroke-miterlimit:10;" d="M162.7,33.2
		c-0.8-0.2-1.6-0.6-2.3-0.9l-0.2-0.1l-0.2-0.1l-0.6-0.2l-1.1-0.5c-1.5-0.7-2.9-1.6-4.3-2.5s-2.7-1.8-4.2-2.4
		c-1.7-0.6-3.5-0.8-5.2-0.3c-1.8,0.4-3.4,1.2-5.1,1.9l-4.8,2.1c-3.6,1.7-7.2,3.4-10.7,5.3c-0.7,0.4-1,1.4-0.6,2.1
		c0.4,0.7,1.4,1,2.1,0.6c3-1.6,6.1-3.2,9.2-4.6l4.6-2.1l1.2-0.5l0.6-0.2l0.2-0.1h0.1l0.1-0.1c0.8-0.3,1.5-0.6,2.3-0.9l1.2-0.4
		l0.6-0.1l0.3-0.1h0.1l1.1-0.1c0.1,0,0.6,0,0.2,0c0.2,0,0.4,0.1,0.6,0.1l1,0.3l0,0l0.3,0.1l0.5,0.3c0.6,0.3,1.3,0.7,1.9,1.2
		c1.3,0.9,2.7,1.7,4.1,2.5c1.5,0.8,3,1.5,4.6,2.1c1.5,0.6,3.1,1,4.7,1.6l0.6,0.2l0.2,0.1h0.1c0.3,0.1,0.6,0.3,0.9,0.5l0.4,0.3h0.1
		l0.1,0.1l0.1,0.1l0.3,0.3l0.1,0.1l0.1,0.1c0.4,0.7,1.4,1,2.1,0.6s1-1.4,0.6-2.1C168.8,34.7,165.6,34.2,162.7,33.2z"/>
</g>
</svg>
