<?xml version="1.0" encoding="utf-8"?>
<!-- Generator: Adobe Illustrator 27.9.0, SVG Export Plug-In . SVG Version: 6.00 Build 0)  -->
<svg version="1.1" id="Layer_1" xmlns="http://www.w3.org/2000/svg" xmlns:xlink="http://www.w3.org/1999/xlink" x="0px" y="0px"
	 viewBox="0 0 239.6 135.3" style="enable-background:new 0 0 239.6 135.3;" xml:space="preserve">
<g>
	<path style="stroke:#000000;stroke-width:3;stroke-linecap:round;stroke-linejoin:round;stroke-miterlimit:10;" d="M226.6,80.2
		c-3.1-16.4-16.4-27.9-28.8-37.9c-3.4-2.7-6.8-5.5-10.1-8.4c0.4-0.3,0.7-0.6,0.9-1c0.4-0.5,0.1-1.3-0.4-1.6
		c-2.7-1.7-5.6-3.2-8.5-4.7c1.1-0.7,2.2-1.2,3.4-1.7c0.9-0.3,1.2-1.6,0.3-2.1c-3.5-1.9-7.4-2.5-11.3-2.4c-3.9,0.1-7.8,1.1-11.6,1.8
		c-3.8,0.7-7.7,1.3-11.5,0.5c-3.1-0.7-8.4-3.1-6.7-7.1c0.3-0.8-0.4-1.5-1.1-1.5c-3.1-0.1-5.8,1.4-8.7,2c-1.6,0.3-3.1,0.2-4.5-0.7
		s-2.3-1.7-3.6-2.3c-2.9-1.3-6.5-0.8-9.1,1c-2.6,1.8-4.7,4.7-8.2,4.3c-3.6-0.4-6.2-2.2-9.6-2.1c-1,0-1.3,1-1,1.8
		c0.7,1.6-0.4,3.3-1.5,4.4c-1.2,1.1-3.1,1.9-4.9,2.4c-3.9,0.9-8,0.3-11.9-0.4c-7.4-1.4-15.9-3.7-22.9,0.5c-0.9,0.5-0.7,1.8,0.3,2.1
		c1.2,0.4,2.3,1,3.4,1.7c-2.9,1.4-5.8,3-8.5,4.7c-0.5,0.3-0.8,1.1-0.4,1.6c0.3,0.4,0.6,0.7,0.9,1C39,46.5,25.1,55.5,17,69.5
		c-2.3,4-4,8.4-4.9,12.9c-0.2,0.6,0.2,1.3,0.8,1.4c0.2,0,0.4,0,0.6,0l1.5-0.3c0.5,5.8,1,11.7,1.5,17.5c0.5,5.8,1.2,12.3,3.2,18.1
		c0.2,0.6,0.8,1,1.5,0.8c0.2,0,0.4-0.2,0.5-0.3c4-3.5,9.7-4.4,13.8-7.8c2.4-1.9,3.6-4.8,4.8-7.5c1.5-3.2,2.9-6.5,3.9-9.9
		c0.5-1.9,1-3.9,1.3-5.9c0.4,0,0.7-0.1,1-0.3c0.2-0.2,0.3-0.4,0.5-0.5l0.1-0.1c-0.1,2.9,0.3,5.8,1.1,8.6c0.2,0.7,1.1,1.2,1.7,0.7
		c0.4-0.3,0.7-0.5,1.1-0.7l0.6-0.3l0.3-0.1l0.1-0.1l0.1,0h0l0.1,0h0.1c0,0.7,0,1.4,0,2.1c0,0.8,0.1,1.7,0.2,2.5
		c0.5,3.1,1.7,6.1,3.6,8.6c1.2,1.5,2.5,2.8,4,3.9c0.5,0.4,1.3,0.1,1.6-0.4c0.3-0.6,0.1-1.3-0.4-1.6l-0.2-0.1l-0.1-0.1l-0.5-0.4
		l-0.9-0.8c-0.6-0.5-1.1-1.1-1.6-1.8c0,0,0,0,0-0.1l-0.2-0.2l-0.4-0.5c-0.2-0.3-0.4-0.7-0.6-1c-0.2-0.3-0.4-0.7-0.6-1
		c-0.1-0.2-0.2-0.4-0.3-0.5c-0.1-0.2-0.1-0.2-0.1-0.3c0,0,0-0.1,0-0.1c-0.3-0.7-0.6-1.5-0.8-2.3c-0.1-0.4-0.2-0.8-0.3-1.2
		c0-0.2-0.1-0.4-0.1-0.5c0-0.1,0-0.2,0-0.3c0,0,0,0,0-0.1c-0.1-0.8-0.1-1.6-0.1-2.4c0-0.8,0.1-1.6-0.1-2.3c-0.3-1.2-1.5-1.8-2.6-1.5
		c-0.1,0-0.2,0.1-0.4,0.1c-0.5,0.2-1.1,0.4-1.6,0.7l-0.2-0.9c-0.1-0.4-0.1-0.8-0.2-1.2v0c0,0,0,0,0-0.1c0,0,0-0.2,0-0.3L49.5,91
		c-0.1-1.7-0.1-3.3,0-5c0.1-0.6-0.6-1.2-1.2-1.2c-0.5,0.1-1.1,0.2-1.6,0.4c0-1.5,0-3.1,0-4.6c0-1.1,0-2.2,0.1-3.3l0.2-1.8
		c0.8-6.3,2.2-12.4,5.8-17.8c3.9-5.8,9.2-11.1,16.3-12.5c1.5-0.3,0.8-2.5-0.6-2.3c-6.3,1.2-11.5,5.4-15.4,10.3c-1.9,2.4-3.7,5-5,7.9
		c-1.2,2.9-2.2,5.9-2.7,9c-0.2,0.9-0.3,1.9-0.5,2.8c0,0,0,0.1,0,0.1c-0.2,1.2-0.4,2.5-0.5,3.8c-0.5,4.3-0.8,8.6-1.6,12.9
		c-0.6,3.3-1.7,6.4-3,9.5c-0.7,1.8-1.5,3.6-2.3,5.3c-0.7,1.4-1.3,2.9-2.2,4c-1.8,2.3-4.8,3.6-7.4,4.8c-2.2,1-4.4,2-6.4,3.4
		c-1.6-5.3-2.2-10.8-2.7-16.3c-0.5-6.2-1.1-12.4-1.6-18.5c-0.1-0.8-0.7-1.3-1.5-1.2l-1,0.2c3.9-15.4,16.7-26.1,28.6-35.7
		c3.5-2.8,7-5.7,10.4-8.7c0.7-0.6,0.3-1.7-0.5-1.9L53,34.7c2.8-1.7,5.8-3.2,8.8-4.6c0.7-0.3,0.8-1.4,0.2-1.9c-1-0.9-2.2-1.6-3.4-2.3
		c5.5-2.1,12.1-0.6,17.7,0.6c6.1,1.2,13.8,2.5,19.2-1.5c2.1-1.5,3.6-3.8,3.4-6.3c2.4,0.3,4.6,1.4,6.9,1.9c1.4,0.3,2.9,0.3,4.3-0.1
		s2.8-1.4,4-2.5c1.2-1,2.6-2.3,4.2-2.9c1.6-0.5,3.2-0.6,4.8,0c1.4,0.5,2.5,1.6,3.8,2.4c1.3,0.7,2.8,1.1,4.3,1.1
		c2.9-0.1,5.6-1.6,8.5-2.1c-0.2,2.4,1.3,4.7,3.2,6.1c2.4,1.9,6,2.6,9,2.8s6.4-0.4,9.5-0.9s6.5-1.5,9.8-1.7s6,0,8.7,1
		c-1.2,0.6-2.3,1.3-3.3,2.2c-0.5,0.5-0.4,1.6,0.2,1.9c3,1.4,5.9,2.9,8.8,4.6l-0.2,0.1c-0.8,0.3-1.2,1.3-0.5,2
		c11.9,10.7,26.3,19.4,34.5,33.6c2,3.4,3.5,7,4.4,10.8l-1-0.2c-0.8-0.2-1.4,0.4-1.5,1.1c-0.4,3.9-4.2,6.6-5,10.4
		c-0.2,1.2,0,2.3,0,3.5c0.1,0.5,0.1,1.1,0,1.6c0,0,0,0.1,0,0.1h0c-1.2-0.4-2.6-1.2-3.4,0.2s-0.2,2.7-0.4,4c-0.4,2-2,4-3.3,5.6
		c-1.3,1.6-3.2,3.7-4.9,5.5c-1.7,1.8-3.7,3.9-5.6,6c-1.2,1.4-2.5,2.9-3.4,4.5c-1.2-2.3-0.5-5.3,0.3-7.6c1.1-3.4,2.7-6.6,4.3-9.9
		c1.5-3.3,2.7-6,3.6-9.1c0.8-2.7,0.9-5.8-1.4-7.8c-2.3-2-5.3-3.4-7-5.9c-1.7-2.5-3.5-5.6-4.6-8.9c-1-3.2-1.7-6.5-2.1-9.8
		c-0.2-1.6-0.4-3.3-0.5-4.9c-0.1-1.6,0-3.2-0.7-4.8c-1.3-3.4-3.5-5.8-6.6-7.5c-3.3-1.9-6.8-3.3-10.5-4.1c-1.5-0.3-2.1,1.9-0.6,2.3
		c3.2,0.7,6.4,1.9,9.3,3.5c1.5,0.8,2.8,1.6,3.9,2.8c1.1,1.2,1.7,2.3,2.2,3.7c0.6,1.4,0.5,3.2,0.6,4.8c0.1,1.6,0.3,3.3,0.5,4.9
		c0.4,3.2,1.1,6.5,2.1,9.6l0.3,0.9c-0.4,2.8,0.8,5.4,2,7.8c0.7,1.3,1.4,2.5,2,3.9c0.1,0.3,0.3,0.6,0.4,0.9h0c0,0.1,0,0.2,0.1,0.3
		c0.1,0.2,0.1,0.4,0.2,0.5c0.2,0.6,0.4,1.3,0.5,1.9v0c0,0,0,0.1,0,0.1l0,0l0,0v0v0c-0.5-0.1-1-0.2-1.4-0.1c-0.6,0.1-1.1,0.5-1.4,1
		c-0.4,0.8-0.6,1.6-0.6,2.4c0,0.4,0.1,0.8,0.1,1.3c0,0.2,0.1,0.4,0.1,0.7c0,0.1,0,0.2,0,0.3c0,0,0,0.3,0,0.3
		c0.1,0.8,0.2,1.7,0.2,2.5s0.1,1.6,0.1,2.4c0,0.4,0,0.7-0.1,1v0c0,0.1,0,0.2,0,0.3s-0.1,0.4-0.2,0.7c-0.1,0.2-0.1,0.4-0.2,0.6
		l-0.1,0.2c0,0-0.1,0.1-0.1,0.2c-0.1,0.2-0.2,0.4-0.3,0.6c0,0,0,0,0,0l-0.3,0.1l-0.4,0.1l-0.9,0.2c-0.6,0.2-1.2,0.4-1.8,0.7
		c-0.6,0.3-1.1,0.8-1.4,1.3c-0.4,0.8-0.4,1.6-0.2,2.5c0.2,0.6,0.8,1,1.4,0.8c0.6-0.2,1-0.8,0.8-1.5c0,0,0-0.2,0-0.2
		c0-0.1,0-0.1,0-0.2c0,0,0,0,0-0.1c0,0,0,0,0-0.1v0v0c0-0.1,0-0.1,0-0.1v0h0l0.2-0.2l0.1-0.1l0.4-0.2h0l-0.1,0l0.2-0.1l0.3-0.1
		l0.8-0.2l1.4-0.4c0.5-0.2,1-0.5,1.3-1c0.3-0.4,0.5-0.9,0.7-1.4c0.3-0.8,0.5-1.7,0.6-2.6c0.2-1.6,0-3.1-0.2-4.7
		c-0.1-1-0.2-2-0.4-2.9l-0.1-0.4c0-0.2,0-0.4,0-0.5c0-0.1,0-0.3,0-0.4v-0.1c0-0.1,0.1-0.2,0.1-0.3l0.1-0.2h0l0.5,0.1
		c0.5,0.1,1.1,0.1,1.6-0.2c0.5-0.3,0.9-0.8,1-1.3c0.2-0.8,0-1.6-0.2-2.4c-0.2-0.7-0.4-1.3-0.6-1.9c-0.3-0.6-0.5-1.2-0.8-1.8
		c0.4,0.4,0.8,0.8,1.2,1.2c1.1,1,2.3,1.8,3.5,2.7c1.2,0.9,2.4,1.7,2.7,3.2c0.3,1.5-0.2,2.8-0.6,4.1c-1,3.2-2.4,6.3-3.9,9.4
		c-1.5,3.1-3.5,7-4.3,10.6c-0.8,3.7-0.9,7.1,1.8,9.7c0.7,0.6,1.6,0.3,2-0.5c0.8-2.2,2.5-4.1,4.1-5.8c1.6-1.7,3.4-3.6,5.1-5.4
		c1.7-1.8,3.5-3.7,5.1-5.7c1.6-1.9,2.8-3.5,3.6-5.6c0.3-0.7,0.4-1.4,0.4-2.2c0-0.4,0-0.8,0-1.2c0-0.4,0-0.3,0-0.4l0.5,0.2
		c0.6,0.2,1.4,0.2,2-0.1c2.2-1.1,1-4.4,1.1-6.3c0.1-1.9,1.6-3.7,2.5-5.2c1-1.6,1.9-3.1,2.3-4.8l1.6,0.4c0.6,0.2,1.3-0.2,1.5-0.8
		C226.7,80.7,226.7,80.4,226.6,80.2z M192.7,91C192.7,91,192.7,91,192.7,91L192.7,91z"/>
</g>
</svg>
