<?xml version="1.0" encoding="utf-8"?>
<!-- Generator: Adobe Illustrator 27.9.0, SVG Export Plug-In . SVG Version: 6.00 Build 0)  -->
<svg version="1.1" id="Layer_1" xmlns="http://www.w3.org/2000/svg" xmlns:xlink="http://www.w3.org/1999/xlink" x="0px" y="0px"
	 viewBox="0 0 247.8 162.4" style="enable-background:new 0 0 247.8 162.4;" xml:space="preserve">
<g>
	<path style="stroke:#000000;stroke-width:3;stroke-linecap:round;stroke-linejoin:round;stroke-miterlimit:10;" d="M233,73.6
		c-0.8-3.1-1.8-6.2-3.1-9.2c-3.7-8.6-9.7-16.1-17.2-21.7l1.1-0.5c0.5-0.3,0.7-1.1,0.4-1.6c-3.3-5.3-8.5-9.1-14.6-10.6
		c0.1-0.2,0.2-0.4,0.2-0.5c0.2-1.1-0.6-2-1.4-2.6c-1.9-1.4-4.3-2.2-6.5-2.7c-5.1-1-10.4-0.5-15.5-1c-5.7-0.5-11.5-1.3-16.8-3.3
		c-2.5-1-5-2.1-7.5-2.9c-2.7-0.9-5.5-1.5-8.3-1.8c-2.7-0.3-5.5-0.2-8.2,0.3c-1.3,0.2-2.6,0.6-3.9,1c-1.4,0.4-3,0.3-4.4-0.3
		c-2.5-1-4.9-1.9-7.6-2.3c-2.8-0.4-5.5-0.5-8.3-0.2c-5.2,0.5-10,2.2-14.8,4.2s-9.5,4.1-14.5,4.6c-10.3,1.1-21.5-2.9-30.4,4.2
		c-0.6,0.4-0.4,1.4,0.1,1.8c-6.1,1.5-11.3,5.4-14.6,10.7c-0.3,0.5-0.1,1.3,0.4,1.6l0,0l1.1,0.5C30.1,47.3,23,55.3,17.9,64.4
		c-0.5,0.8,0.1,1.7,1,1.8l1.1,0.1c-5.1,10.5-4.2,23.4,1.7,33.4c0.4,0.6,1.4,0.8,1.9,0.2l0.3-0.4c1.7,2.4,3.4,4.8,4.7,7.4
		c1.5,3,2.8,6,4.4,9c1.3,2.4,2.7,4.6,4.3,6.8c1.3,1.7,2.9,3,5,3.1c2.2,3.6,4.1,7.5,6,11.2c1,2,2,4,3.2,5.8c0.9,1.4,2.4,2.4,4,2.7
		c3.5,0.7,6.7-1.6,8.2-4.7c0.9-1.8,1.4-3.8,1.9-5.7c0.5-1.9,0.9-4.3,1.2-6.5c1.1-8.7,0.7-17.6,0.8-26.4C67.7,93.5,69.2,85,73,77
		c2.2-4.6,4.5-9,5.8-13.9c1.3-4.9,1.8-10,2.7-15c0.2-1.5-2-2.1-2.3-0.6c-0.7,4.2-1.2,8.4-2.1,12.6c-0.9,4.2-2.4,8.2-4.3,12.1
		c-1.9,3.7-3.7,7.4-4.9,11.4c-1.2,4-1.9,8-2.3,12.1c-0.4,4.1-0.3,8.2-0.3,12.3c0,4.1,0,8.3-0.1,12.5c-0.2,4.2-0.6,8.4-1.4,12.6
		c-0.7,3.3-1.3,7.7-4.4,9.6c-1.5,1-3.5,1.1-4.9,0c-0.8-0.6-1.3-1.7-1.8-2.6c-0.5-0.9-1.2-2.2-1.8-3.3c-2.2-4.3-4.3-8.6-6.8-12.7
		c-0.2-0.4-0.6-0.6-1-0.6c-2.2,0.1-3.5-1.6-4.6-3.3c-1.5-2.2-2.9-4.4-4.1-6.8c-1.2-2.4-2.6-5.5-4-8.2c-1.4-2.7-3.4-5.4-5.3-8.1
		c-0.4-0.6-1.3-0.9-1.9-0.2L23,97c-5-9.6-5.4-21.7-0.1-31.2c0.5-0.8-0.1-1.7-1-1.8l-1-0.1c5.2-8.7,12.2-16.2,20.5-22
		c0.7-0.5,0.9-1.6,0-2l-1.6-0.8c3.4-4.8,8.5-8,14.3-8.9c0.6-0.1,1-0.9,0.8-1.5c-0.1-0.5-0.3-1-0.6-1.4c7.2-4.8,16.6-2.4,24.7-2.6
		c4.8-0.1,9.2-1.3,13.6-3c4.4-1.7,8.8-3.8,13.5-5c4.7-1.2,10.4-1.4,15.4-0.2c1.2,0.3,2.4,0.7,3.6,1.2c1.2,0.5,2.3,1,3.6,1.2
		c2.6,0.4,5.2-0.9,7.8-1.3c5.3-0.8,10.8,0.1,15.8,1.9c2.4,0.9,4.8,2,7.3,2.9c2.4,0.9,4.9,1.5,7.5,1.9c5.8,1,11.6,1.5,17.5,1.6
		c2.8,0,5.6,0.1,8.2,0.8c1.2,0.4,2.3,0.8,3.4,1.4l0.7,0.4c0.1,0,0.5,0.5,0.6,0.4c0.1,0-0.8,0.7-0.9,0.9c-0.5,0.6-0.5,1.8,0.5,2
		c5.8,1,10.9,4.2,14.3,8.9l-1.6,0.8c-0.9,0.4-0.7,1.6,0,2c9.3,6.5,16.2,15.8,19.8,26.5c0.5,1.5,1,3,1.3,4.6c0.1,0.4,0.5,1.4-0.1,1.7
		c0.3-0.2-0.7-0.5-0.8-0.5c-0.4-0.2-0.8-0.2-1.2-0.3c-0.5,0-1.1,0.4-1.2,0.9s-0.4,1.1-0.3,1.8c0.1,0.7,0.3,1.5,0.5,2.2
		c0.4,1.7,0.9,3.4,1.2,5.1c0.7,3.1,0.9,6.1,0.1,9.1c-0.2-0.1-0.5-0.3-0.6-0.3c-0.5-0.2-1-0.2-1.4,0c-1.2,0.5-1.8,2.4-2.4,3.4
		c-1.4,2.7-2.7,5.5-3.7,8.4c-1.1,3-1.8,6.1-2.9,9.1c-0.5,1.4-1.2,2.7-1.9,3.9c-0.7,1-1.5,2.7-2.7,3.3c-2.2,1-5-1.3-7,0.1
		c-0.9,0.6-1.3,2-1.7,3c-0.6,1.5-1.2,3.1-1.7,4.7c-0.5,1.6-1.1,3.3-1.7,4.9c-0.3,0.7-0.7,1.5-0.9,2.3c0,0.2,0,0.6,0,0.7
		c0,0.1-0.2,0.5-0.3,0.7c-1,2-1.9,4.4-3.9,5.6c-2,1.2-5,0-6.2-2.2c-0.7-1.4-1.2-2.9-1.8-4.4c-0.6-1.5-1.1-3-1.7-4.5
		c-2.3-6.4-3.4-13.2-4-20c-0.5-6.8-0.6-13.4-0.7-20.1c0-3.4-0.1-6.9-0.3-10.3c-0.2-3-0.3-6.3-2.1-8.9c-3.2-4.5-6.4-9.6-7.1-15.2
		c-0.5-4.4-0.7-9.3-4.5-12.3c-1-0.8-2.4-1.3-2.7-2.7c-0.3-1.4-2.7-0.9-2.3,0.6c0.7,2.7,3.6,3.4,5,5.5c1.4,2.2,1.5,4.1,1.8,6.3
		c0.3,2.1,0.4,4.7,1.1,6.9c0.9,2.9,2.5,5.7,4.1,8.3c0.9,1.4,1.9,2.7,2.7,4.1c0.9,1.4,1.2,3,1.4,4.5c0.4,3.4,0.4,6.9,0.5,10.3
		c0.1,6.9,0.1,13.8,0.5,20.7c0.5,6.9,1.3,13.9,3.4,20.5c1,3.2,2.2,6.3,3.5,9.3c1,2.6,2.2,4.9,5,6c2.8,1.1,5.2,0.2,7.1-1.7
		s2.7-4,3.7-6.1c0.3-0.5,0.2-1.1,0.3-1.7c0.2-0.5,0.7-1.7,1-2.5c0.6-1.6,1.1-3.3,1.6-4.9c0.5-1.6,1.1-3.1,1.8-4.6
		c0.1-0.2,0.4-0.6,0.4-0.9c0-0.2,0,0,0-0.1c0.3,0,0.5,0,0.8,0l1,0.1c1.3,0.2,2.6,0.5,3.9,0.2c1.3-0.3,2.4-1.2,3.3-2.3
		c1.8-2.3,3.1-4.9,4.1-7.7s1.8-6.2,3-9.2c0.6-1.5,1.2-3,1.9-4.4c0.3-0.7,0.7-1.4,1-2c0.4-0.7,1-1.4,1.2-2.2l0.1-0.2l0.6,0.2
		c0.5,0.2,1.1,0.2,1.7,0.1c0.4,0,0.7-0.5,0.8-0.8c1.2-3.2,1.1-6.6,0.5-10c-0.3-1.7-0.7-3.3-1.1-4.9l-0.6-2.6c0-0.2-0.1-0.3-0.1-0.5
		c0.4,0.2,0.7,0.3,1.1,0.3c0.8,0.1,1.3-0.2,1.8-0.8C233.8,76.5,233.4,75.1,233,73.6z M207.8,124.6L207.8,124.6z M227.8,96.7
		L227.8,96.7C227.7,96.9,227.7,96.5,227.8,96.7z"/>
	<path style="stroke:#000000;stroke-width:3;stroke-linecap:round;stroke-linejoin:round;stroke-miterlimit:10;" d="M52.7,66.5
		L52.7,66.5L52.7,66.5c0.1-0.2,0.1-0.4,0.2-0.5c0.1-0.4,0.3-0.7,0.5-1s0.6-1.3,1-2c0.7-1.3,1.4-2.6,2.2-3.8c0.4-0.6,0.8-1.2,1.2-1.8
		l0.6-0.9l0.3-0.4c0,0,0,0,0,0v0c0.1-0.1,0.1-0.1,0.2-0.2c1-1.3,2.1-2.5,3.3-3.8c0.5-0.4,0.5-1.2,0-1.6c0,0,0,0,0,0
		c-0.5-0.5-1.2-0.5-1.7,0c-4.3,4.3-7.6,9.4-10,15c-0.7,1.6-1.3,3.3-1.8,5c-0.2,0.6,0.2,1.3,0.9,1.5c0.2,0,0.4,0,0.6,0l0.9-0.3
		c-0.1,2.8,0,5.6,0.1,8.4c0,0.5,0.4,1,0.9,1.1c0.3,0.1,0.5,0,0.8,0c0,0.2,0.1,0.3,0.1,0.5c0.2,1,0.5,2,0.7,3c0.4,2,0.8,4,1.3,6
		c0.3,1.1,0.5,2.3,0.7,3.4c0.2,0.6,0.8,1,1.5,0.8c0.6-0.2,1-0.8,0.8-1.4c-0.5-2.3-1-4.6-1.5-6.8L55.8,83c-0.1-0.6-0.3-1.2-0.4-1.7
		c-0.1-0.5-0.2-1.1-0.5-1.6c-0.3-0.6-0.8-1-1.4-1.2c-0.1-2.9-0.1-5.7,0-8.6c0-0.7-0.5-1.2-1.2-1.2c-0.1,0-0.2,0-0.3,0l-0.3,0.1
		l0.8-2.1L52.7,66.5z"/>
	<path style="stroke:#000000;stroke-width:3;stroke-linecap:round;stroke-linejoin:round;stroke-miterlimit:10;" d="M98.4,37.4
		L90,36.1c-2.9-0.5-5.8-0.8-8.7-0.7c-1.7,0-3.3,0.2-4.9,0.5c-0.4,0.1-0.7,0.4-0.8,0.8c-0.3,1.2,0.5,2.1,1.6,2.5
		c0.3,0.1,0.6,0.2,1,0.3h0.1c0,0,0,0,0,0c0,0,0,0,0,0l0,0v0.2c0,0.1,0,0.1,0,0.2c0,0,0,0.1,0,0.1c-0.1,0.1-0.3,0.3-0.1,0.1l-0.4,0.4
		h-0.1l-0.2,0.1c-0.3,0.2-0.7,0.4-1,0.5c-0.6,0.3-0.8,1.1-0.4,1.6c0.3,0.5,1,0.7,1.6,0.4c0.7-0.4,1.5-0.8,2-1.4
		c0.6-0.6,1-1.5,0.9-2.4c0-0.7-0.3-1.3-0.8-1.8l1.2-0.1c1.4,0,2.7,0,4.1,0.1l2,0.2l0.5,0.1h0l0.3,0l1,0.1l4.1,0.7l4.7,0.7
		c0.6,0.1,1.3-0.1,1.5-0.8S99.1,37.5,98.4,37.4z M78.2,40.2C78.2,40.2,78.2,40.1,78.2,40.2C78.3,40.1,78.2,40.2,78.2,40.2z"/>
	<path style="stroke:#000000;stroke-width:3;stroke-linecap:round;stroke-linejoin:round;stroke-miterlimit:10;" d="M196.5,51.5
		c0,0,0.1,0,0.1,0l0.3-0.1l0.5-0.1l1-0.2c0.6-0.1,1-0.9,0.8-1.5c-0.3-0.8-0.8-1.4-1.5-1.9c-0.6-0.4-1.2-0.6-1.9-0.8
		c-1.5-0.5-3-0.9-4.5-1.3c-3.1-0.7-6.3-1-9.5-1.1c-1.8,0-3.6,0.1-5.3,0.3c-0.6,0.1-1.2,0.5-1.2,1.2c0,0.7,0.5,1.3,1.2,1.2
		c3-0.3,6-0.4,9-0.1l1,0.1l0.5,0.1h0.5l2.2,0.4c1.4,0.3,2.9,0.6,4.3,1.1l1.3,0.4l0.4,0.1h0c-0.5,0.2-1,0.5-1.4,0.8
		c-0.7,0.6-0.8,1.5-0.4,2.3c0.4,0.8,0.6,1,1,1.5c1.3,2,2.4,4,3.4,6.1l0.4,0.9c0,0,0,0,0,0.1l0,0c0,0.1,0,0.1,0,0.2
		c-0.4,0.2-0.6,0.6-0.6,1c0,0.6,0.5,1.2,1.2,1.2c0.6,0,1.2-0.3,1.5-0.9c0.3-0.6,0.3-1.2,0.2-1.8c-0.1-0.5-0.4-1-0.6-1.5l-0.8-1.6
		c-1-2-2.2-3.9-3.4-5.8l0.1-0.1L196.5,51.5z"/>
</g>
</svg>
