<?xml version="1.0" encoding="utf-8"?>
<!-- Generator: Adobe Illustrator 27.9.0, SVG Export Plug-In . SVG Version: 6.00 Build 0)  -->
<svg version="1.1" id="Layer_1" xmlns="http://www.w3.org/2000/svg" xmlns:xlink="http://www.w3.org/1999/xlink" x="0px" y="0px"
	 viewBox="0 0 302.6 200" style="enable-background:new 0 0 302.6 200;" xml:space="preserve">
<g>
	<path style="stroke:#000000;stroke-width:3;stroke-linecap:round;stroke-linejoin:round;stroke-miterlimit:10;" d="M284.2,29.7
		c-0.6-3.7-1.5-8.9-6-9.4c-5.6-0.7-11.7,1.4-16.5,4c-2.6,1.4-5.2,2.7-7.7,4.3c-2.5,1.6-5,3.3-7.6,4.8c-5.1,3.1-10.3,6.1-15,10
		c-4.3,3.6-8.4,7.5-12.2,11.7c-2,2.1-3.8,4.3-5.7,6.5c-1.9,2.2-3.8,4.2-5.2,6.6c-1.4,2.4-3.6,4.8-5.5,7.1c-0.8,1-2,2-2.5,3.2
		c-0.2,0.6-0.5,1.1-0.8,1.7c-0.4,0.7-0.9,1.3-1.3,2c-0.4,0.7-0.7,1.3-1.1,2c-0.3,0.5-0.7,1-1.1,1.4c-0.9,1.1-1.4,2.7-2,4
		c-1,2.6-1.6,5.4-2.8,8c-0.9,1.9-2.3,4-4.3,4.7c-2.6,0.8-5.8-0.5-8.2-1.3c-5.5-1.9-11.3-4.2-17.2-4.3c-3-0.1-5.9,0.5-8.7,1.2
		c-1.4,0.3-2.9,0.8-4.3,0.9c-1.4,0.1-2.9-0.3-4.3-0.6c-6-1.3-11.7-0.4-17.4,1.5c-2.5,0.8-4.6,2.1-7.1,3c-1,0.3-2,0.7-3.1,0.5
		c-0.4-0.1-0.8-0.2-1.2-0.4c-0.7-0.4-0.7-0.8-0.9-1.6c-1.4-5.4-3.8-10.5-6.5-15.3c-2.7-4.8-6.1-9.5-9.5-14c-1.7-2.2-3.4-4.5-5.1-6.6
		c-0.4-0.5-0.5-0.9-0.8-1.4c-0.3-0.4-0.6-0.8-1-1.1c-1-1.1-2-2.2-2.9-3.4c-1.8-2.5-3.4-4.9-5.2-7.3c-1.8-2.4-3.5-4.6-5.7-6.3
		c-4.4-3.3-9.9-4.7-14.4-7.9c-0.9-0.7-1.9-1.7-3.1-1.8h-0.2l-0.5-0.4c-0.6-0.4-1.2-0.8-1.8-1.2c-2.3-1.5-4.3-3.4-6.6-4.9
		c-4.3-3.1-9-5.5-14-7.4c-4.6-1.7-10.4-3.8-14.5,0.1c-1.9,1.8-2.5,4.7-2.8,7.2c-0.4,3-0.5,6-0.4,9c0.1,6.3,0.8,12.6,1.9,18.7
		c0.5,3.1,1.1,6.1,1.8,9.2c0.3,1.5,0.7,3,1,4.5c0.3,1.5,0.5,2.9,1,4.3c0.1,0.3,0.2,0.6,0.4,0.8l0.3,0.5c0.1,0.5,0.2,1,0.3,1.5
		c0.1,0.6,0.2,1.1,0.4,1.6c0.1,0.2,0.2,0.4,0.3,0.7c0.1,0.1,0.3,0.7,0.3,0.6c0.3,1,0.3,2.2,0.6,3.2c0.1,0.2,0.2,0.4,0.3,0.7
		c0,0,0.4,0.7,0.4,0.6c0.1,0.4,0.2,1.4,0.3,1.9c0.3,1.4,0.9,2.7,1.3,4c0.4,1.3,0.9,3,1.4,4.4c0.9,2.9,1.7,5.8,2.4,8.7
		c1.5,6.2,2.5,12.5,2.9,18.9c0.4,6.3,0.5,12.6,1.1,18.9c0.3,2.6,0.5,5.1,1.5,7.5c1,2.2,2.4,4.3,4.2,6c3.6,3.5,8.2,6,12.2,8.8
		c4.1,2.9,7.5,5.9,9.7,10.1c0.9,1.8,3.7,0.2,2.7-1.6c-2.2-4.3-5.8-7.6-9.7-10.5c-3.9-2.9-8.5-5.3-12.2-8.6c-1.8-1.5-3.2-3.4-4.2-5.6
		c-1.1-2.4-1.2-5.1-1.4-7.7c-0.5-6.1-0.6-12.3-1-18.4c-0.4-6.1-1.4-12.2-2.9-18.2c-0.7-2.8-1.4-5.6-2.3-8.4
		c-0.9-2.8-2.1-5.8-2.8-8.8c-0.3-1.1-0.2-2.3-0.8-3.3c-0.6-1-0.6-2-0.8-3.1c-0.2-1.1-0.8-1.7-1-2.8c-0.1-0.5-0.2-1.1-0.3-1.6
		c-0.1-0.5-0.4-1.1-0.8-1.7s-0.6-2.6-0.9-3.8c-0.3-1.2-0.8-3.3-1.1-5c-0.6-3-1.2-6-1.8-8.9c-1.1-6.1-1.7-12.2-1.8-18.4
		c0-2.9,0-5.9,0.5-8.8c0.5-2.9,1.2-5.3,4.1-6c2.3-0.6,5,0.5,7.1,1.2c2.6,0.8,5,1.8,7.4,3.1c4.7,2.4,9.1,5.3,13.2,8.7
		c1,0.8,2,1.4,3,2.1c0.4,0.4,0.9,0.7,1.4,0.9h0.5c0,0,0.3,0.3,0.5,0.4c2.2,1.6,4.5,3,6.9,4.2c2.4,1.1,4.8,2.1,7,3.4s4.5,3.7,6.3,6.1
		c1.8,2.4,3.3,4.6,5,7c0.8,1.1,1.6,2.2,2.5,3.2c0.4,0.4,0.7,0.9,1.1,1.3c0.4,0.4,0.7,0.9,1,1.4c0.5,1,1.5,2,2.2,2.9l2.8,3.7
		c1.7,2.2,3.3,4.3,4.8,6.6c3.2,4.5,6.1,9.2,8.4,14.2c1.1,2.4,2.1,4.9,2.8,7.5c0.4,1.2,0.5,2.7,1.4,3.6c0.9,0.9,2,1.4,3.3,1.7
		c2.3,0.4,4.5-0.4,6.5-1.3c2-0.9,4.8-2.1,7.3-2.9c2.6-0.8,5.7-1.5,8.7-1.4c3,0,5.5,0.9,8.3,1.2c2.8,0.3,5.8-0.7,8.6-1.3
		s5.8-1,8.7-0.5c5.8,1,11.1,3.3,16.7,4.8c2.3,0.7,5.2,1.2,7.6,0.3c2.4-0.9,3.7-2.6,4.9-4.5c1.2-1.9,2-4.8,2.8-7.2
		c0.4-1.3,0.9-2.6,1.4-3.8c0.2-0.6,0.5-1.1,0.8-1.7c0.4-0.6,1-1.1,1.4-1.8c0.7-1.2,1.3-2.4,2-3.5s1.2-2.5,2.1-3.6
		c2-2.3,3.8-4.8,5.8-7.2c0.9-1,1.4-2.1,2.1-3.1c0.7-1.1,1.7-2.2,2.6-3.2c1.9-2.2,3.8-4.4,5.7-6.6c3.7-4.2,7.6-8.1,11.7-11.7
		c4.4-3.8,9.3-6.9,14.3-9.9c5-3,9.9-6.4,15-9.1s10.4-5.3,16.2-4.8c2.1,0.2,2.7,1.6,3.2,3.5c0.6,2.4,0.9,4.8,1.1,7.3
		c0.1,3.1,0.1,6.1-0.1,9.2c-0.2,3-0.2,6-0.6,9c-0.4,3-1,5.9-1.7,8.8c-0.3,1.4-0.6,2.9-1,4.3c-0.1,0.5-0.2,1-0.4,1.5
		c-0.3,0.5-0.4,1-0.6,1.5c-0.6,2.8-1.5,5.5-2.4,8.2c-0.4,1.3-0.7,2.7-0.9,4c-0.1,0.5-0.2,1.3-0.4,1.8s-0.5,0.8-0.6,1.2
		c-0.4,1.2-0.6,2.5-0.8,3.7c-0.3,1.2-0.8,1.9-1,3c-0.6,2.9-1.3,5.9-1.9,8.8c-1.1,5.9-1.4,12-1.7,18c-0.3,6.2-1.1,12.4-2.3,18.5
		c-1.1,5.5-2.2,11.1-5.7,15.6c-3.5,4.5-8.2,7.4-12.8,10.2c-4.6,2.8-7.9,6-10.5,10.2c-2.5,4-3.8,8.6-3.8,13.3c0,2,3.2,2,3.1,0
		c-0.1-5,1.7-9.7,4.7-13.6c1.5-1.9,3.2-3.7,5.2-5.2c2.2-1.7,4.7-3,7-4.6c4.5-3.1,8.9-6.6,11.7-11.5c2.7-4.9,3.7-10.9,4.7-16.4
		c1.2-6.3,1.6-12.7,2-19.1c0.2-3.2,0.3-6.4,0.7-9.6c0.3-3.2,0.9-5.9,1.6-8.8l0.9-4.3c0.1-0.6,0.1-1.2,0.3-1.8
		c0.2-0.5,0.5-0.8,0.6-1.2c0.4-1.3,0.5-2.6,0.9-3.9c0.1-0.4,0.3-0.8,0.5-1.2c0.2-0.6,0.4-1.3,0.5-1.9c0.6-2.9,1.5-5.7,2.3-8.5
		c0.4-1.4,0.7-2.8,1.1-4.1s0.8-1.9,1-3c1.4-6,2.7-11.9,3.1-18S285.1,35.9,284.2,29.7z"/>
	<path style="stroke:#000000;stroke-width:3;stroke-linecap:round;stroke-linejoin:round;stroke-miterlimit:10;" d="M88.1,133.8
		c-0.1-0.6-0.2-1.2-0.3-1.7c0.7-0.1,1.4-0.1,2.2,0c1,0.1,1.8-1.1,1.5-2c-0.1-0.2-0.1-0.4-0.1-0.6c1-0.1,2-0.4,2.7-1
		c1.4-1.1,1.8-2.8,2-4.5c0.1-1.6,0.1-3.2,0-4.8c-0.1-1.7-0.6-3.4-1.4-4.8c-1-1.7-3.7-0.2-2.7,1.6c1,1.8,1.1,4.4,1.1,6.8
		c0,1-0.1,2.3-0.6,3L92,126c0,0-0.4,0.2-0.3,0.2l-0.3,0.1H91c-0.7-0.4-1.8-0.2-2.2,0.6c-0.3,0.6-0.5,1.3-0.6,2c-1,0.1-2,0.2-2.9,0.4
		c-0.8,0.2-1.3,1.1-1.1,1.9c0.7,2.1,1,4.4,0.8,6.7c-0.2,2-1,3.9-2.4,5.4c-1.4,1.5-3.1,2.6-4.9,3.5c-1,0.5-2,0.9-3,1.4l-0.5,0.2
		l-0.8,0.3l-0.1,0.1h-0.1c-0.2-0.2-0.3-0.3-0.5-0.5c-6.2-7.1-12.3-14.5-16.3-23c-2-4.3-3.3-8.8-3.8-13.5c-0.6-5.4-0.8-11-1.4-16.4
		c-0.6-5.4-1.4-10.9-2.5-16.3c-0.5-2.5-1.2-5-2.1-7.4c-0.9-2.5-2.1-4.9-3.5-7.2c-1.3-2.2-2.6-4.5-3.7-6.8c-1.1-2.2-2-4.5-2.7-6.9
		c-1.5-4.8-2.6-9.7-3.3-14.7l-0.3-2c6-0.2,11.5,4.1,15.9,7.9c2.6,2.3,5.2,4.7,8.1,6.8c2.9,2.1,5.8,3.8,8.6,6
		c9.4,7.1,16.8,16.8,21.5,27.6c2.6,6.1,4.3,12.5,5.1,19.1c0.1,0.9,0.7,1.6,1.6,1.6s1.7-0.7,1.6-1.6c-0.7-6.2-2.2-12.3-4.5-18.1
		c-2.3-5.8-5.3-11.3-9-16.3c-3.7-5-8-9.6-12.8-13.5c-2.8-2.2-5.7-4.1-8.7-6.1c-2.9-2-5.6-4.3-8.2-6.7C47,36.1,41,31.3,33.6,31.1
		c-0.9,0-1.8,0.1-2.7,0.2c-0.9,0.1-1.2,1.2-1.1,1.9c0.7,5.2,1.6,10.4,3,15.4c1.4,5.1,3.4,10,6.1,14.7c1.3,2.3,2.7,4.6,3.9,7
		c1.1,2.4,1.9,4.8,2.5,7.4c1.3,5.3,2,10.8,2.7,16.3c0.3,2.8,0.6,5.7,0.9,8.5c0.2,2.8,0.4,5.6,0.7,8.4c0.3,2.7,0.8,5.4,1.4,8.1
		c0.7,2.4,1.5,4.8,2.6,7c4,9,10.5,16.7,16.9,24.2c1,1.1,2,2,3.7,1.7c1.6-0.3,2.4-0.9,3.5-1.4c2.1-0.9,4.1-2,6-3.5
		c1.9-1.5,3.3-3.4,4.1-5.7C88.4,138.9,88.5,136.3,88.1,133.8z M73.4,148.7L73.4,148.7C72.8,148.9,73.4,148.7,73.4,148.7z"/>
	<path style="stroke:#000000;stroke-width:3;stroke-linecap:round;stroke-linejoin:round;stroke-miterlimit:10;" d="M112,120.6
		c-0.7-0.3-1.8-0.2-2.1,0.6c-0.3,0.6-0.6,1.2-0.9,1.8l-0.5,0.8c-0.1,0.1-0.2,0.3-0.3,0.4l-0.1,0.2h0c-0.9,1.1-1.8,2.1-2.8,3
		c-2.1,1.9-4.4,3.6-6.5,5.4c-2.1,1.8-4.3,4-5.9,6.5c-1.5,2.5-2.8,6.2-3.5,9.4c-0.8,3.8-1.3,7.7-2.3,11.5c-0.2,0.9,0.3,1.7,1.1,2
		c0.9,0.2,1.7-0.3,2-1.1c0.9-3.4,1.4-6.8,2-10.2c0.3-1.6,0.7-3.2,1.2-4.8c0.3-0.8,0.5-1.5,0.8-2.2c0-0.1,0-0.1,0-0.2l0.1-0.2
		l0.2-0.5c0.2-0.4,0.4-0.8,0.6-1.2c0.4-0.7,0.8-1.4,1.3-2c0.1-0.1,0.2-0.2,0.3-0.3h0l0.1-0.2l0.7-0.8c0.9-1,1.9-2,3-2.9
		c2.1-1.9,4.4-3.5,6.5-5.4s4.5-4.4,5.8-7.3C112.9,122,112.8,121,112,120.6z"/>
	<path style="stroke:#000000;stroke-width:3;stroke-linecap:round;stroke-linejoin:round;stroke-miterlimit:10;" d="M237.1,154.6
		c0.9-1,1.7-2.1,2.6-3.1c3.6-4.5,6.8-9.3,9.6-14.4c2.7-4.9,5.1-10.2,6.6-15.6c0.7-2.4,1.2-4.9,1.7-7.3c0.5-2.5,1.1-5.2,1.4-7.8
		s0.5-5.9,0.8-8.8c0.2-2.9,0.6-6.3,1-9.4s0.9-6,1.2-9s0.7-5.6,1.7-8.2c0.6-1.3,1-2.7,1.4-4.1c0.3-1.3,0.4-2.6,0.8-3.9
		c0.3-1.3,1-2.6,1.6-3.9c0.6-1.3,1.3-2.8,1.8-4.3c2.1-5.5,3.4-11.4,4.3-17.2c0.2-1.5,0.4-2.9,0.6-4.4c0.1-0.8-0.2-1.8-1.1-1.9
		c-7.7-1.1-14.4,3.4-19.9,8.2c-2.7,2.4-5.4,4.9-8.4,7c-3,2.1-6,4-8.8,6.2c-5.3,3.9-10.3,8.2-14.9,13c-4.7,4.8-8.9,10-12.4,15.7
		c-3.5,5.7-5.8,11.4-6.9,17.6c-0.1,0.8-0.3,1.6-0.3,2.5c-0.1,0.8,0.8,1.6,1.6,1.6s1.5-0.7,1.6-1.6c0.1-0.9,0.4-2.8,0.8-4.2
		c0.3-1.4,0.8-2.8,1.3-4.2c1-2.9,2.2-5.6,3.7-8.2c3.1-5.5,7-10.5,11.3-15.2c4.4-4.7,9.2-9,14.2-12.9c2.5-2,5.3-3.9,8-5.7
		c3.1-2,6-4.3,8.7-6.7c2.9-2.6,5.9-5.4,9.3-7.4c2.7-1.6,5.9-2.8,9.1-2.7c-0.7,5.1-1.7,10.2-3.1,15.1c-0.8,2.7-1.8,5.4-3,7.9
		c-0.6,1.4-1.4,2.6-1.8,4c-0.4,1.3-0.6,2.6-0.8,3.8c-0.2,1.3-0.5,2.6-1,3.8c-0.6,1.4-1,2.7-1.4,4.2c-0.6,2.8-0.9,5.6-1.2,8.5
		c-0.3,2.8-0.9,6-1.2,8.9c-0.3,3-0.6,6.1-0.9,9.2c-0.3,3.1-0.4,5.2-0.8,7.7c-0.4,2.5-0.9,5-1.5,7.5c-0.5,2.4-1,4.8-1.8,7.2
		c-0.8,2.5-1.7,4.9-2.8,7.3c-2.4,5.1-5.1,10-8.3,14.6c-1.5,2.2-3.1,4.3-4.8,6.4c-0.8,1-1.6,2-2.4,2.9c-0.1,0.1-0.3,0.4-0.5,0.5
		c-0.2,0-0.3-0.1-0.3-0.1l-0.3-0.1l-0.2-0.1l-0.6-0.3l-0.1-0.1l-0.1-0.1l-0.5-0.4c-0.2-0.1-0.3-0.3-0.4-0.4l-0.3-0.3c0,0,0,0,0-0.1
		c0,0,0,0-0.1-0.1c-0.6-0.8-1.1-1.6-1.6-2.5c-1-1.8-1.8-3.7-2.7-5.7c-0.8-1.8-1.8-3.6-3-5.1l-2.2-2.6l-0.3-0.3l-0.1-0.1l-0.5-0.6
		l-0.4-0.6l-0.2-0.3c-0.1-0.1-0.1-0.2-0.1-0.3c-0.1-0.2-0.1-0.4-0.2-0.6c0-0.1-0.1-0.5-0.1-0.4v-0.7c0.1-0.2,0.1-0.3,0.1-0.5
		c0.2-0.8-0.3-1.7-1.1-1.9c-0.9-0.2-1.9-0.4-2.9-0.4c-0.1-0.7-0.3-1.4-0.6-2c-0.4-0.8-1.5-0.9-2.2-0.6h-0.1c0,0,0,0,0,0h-0.4
		l-0.2-0.1l-0.3-0.2c-0.1,0-0.1-0.1,0,0l-0.1-0.1l-0.2-0.2l-0.1-0.2c-0.1-0.1-0.1-0.2-0.1-0.3c-0.1-0.3-0.2-0.5-0.2-0.8
		c-0.1-0.5-0.2-1.1-0.2-1.7c0-2.3-0.1-4.8,1.1-6.9c1.2-2-1.7-3.3-2.7-1.6c-0.8,1.5-1.3,3.2-1.4,4.9c-0.2,1.6-0.2,3.2,0,4.8
		c0.2,1.7,0.7,3.4,2.1,4.5c0.8,0.6,1.7,0.9,2.6,1l-0.1,0.6c-0.3,0.9,0.5,2.1,1.5,2c0.8-0.1,1.6,0,2.4,0.1c0,1.7,0.8,3.3,1.9,4.8
		c1.1,1.4,3.1,3.4,4.2,5.3c2,3.5,3.2,7.6,5.6,10.9c1.3,1.8,3.1,3.6,5.4,3.7C235.1,157,236.1,155.8,237.1,154.6z"/>
	<path style="stroke:#000000;stroke-width:3;stroke-linecap:round;stroke-linejoin:round;stroke-miterlimit:10;" d="M218.7,156.7
		c-3.1-2.6-6.4-5-9.1-8c-0.4-0.4-0.7-0.8-1.1-1.3c-0.3-0.4,0,0,0-0.1c0,0,0,0.1,0,0c-0.1-0.1,0,0-0.1-0.1h0
		c-0.1-0.1-0.2-0.2-0.2-0.3l-0.5-0.6c-0.6-0.9-1.1-1.9-1.6-2.9c-0.3-0.8-1.5-1-2.2-0.6c-0.7,0.4-0.9,1.4-0.6,2.1
		c1.6,3.7,4.5,6.7,7.5,9.3s6.4,5,9.4,7.8c0.8,0.8,1.6,1.5,2.3,2.4l0.6,0.6l0.2,0.3h0.1c0,0,0,0,0,0.1c0,0,0.7,0.9,1,1.4
		s1.4,1,2.1,0.6c0.8-0.4,1-1.4,0.6-2.2C225,162,221.8,159.3,218.7,156.7z"/>
</g>
</svg>
