<?xml version="1.0" encoding="utf-8"?>
<!-- Generator: Adobe Illustrator 27.9.0, SVG Export Plug-In . SVG Version: 6.00 Build 0)  -->
<svg version="1.1" id="Layer_1" xmlns="http://www.w3.org/2000/svg" xmlns:xlink="http://www.w3.org/1999/xlink" x="0px" y="0px"
	 viewBox="0 0 236.1 195.1" style="enable-background:new 0 0 236.1 195.1;" xml:space="preserve">
<g>
	<path style="stroke:#000000;stroke-width:3;stroke-linecap:round;stroke-linejoin:round;stroke-miterlimit:10;" d="M199.7,148.5
		c-1.2-1.3-2.6-2.5-4-3.6l-0.5-0.4l-0.1-0.1H195l-1-0.9c-0.3-0.3-0.5-0.5-0.7-0.8l-0.2-0.3c0,0-0.2-0.3-0.3-0.5
		c0-0.1-0.1-0.1-0.1-0.2l-0.1-0.4c0,0,0,0,0-0.1l0,0l0,0l0,0c0,0,0,0,0,0l0,0c0,0,0,0,0,0s0,0,0,0v0c0-0.1,0-0.2,0-0.3v-0.2
		c0-0.1,0.1-0.3,0-0.2c0-0.1,0-0.2,0.1-0.3c-0.1,0.1,0,0,0,0c0,0,0,0,0-0.1v0c0,0,0,0,0,0l0.1-0.2c0,0,0.1-0.1,0.1-0.1
		c1.1-0.7,1.3-2.6,0-3.2c-3.6-1.8-7.5-2.4-11.5-2.5H177l-0.8-0.2l-0.2-0.1l-0.1-0.1h-0.1c0,0,0,0,0,0l0,0l-0.1-0.1h0l-0.1-0.1
		c0,0,0-0.1,0-0.1c0,0,0,0,0-0.1c0,0,0-0.1,0-0.1l0.2-0.3c0,0,0.1-0.1,0.1-0.1l0.4-0.4l0.7-0.8c0.7-0.7,1.2-1.6,1.4-2.5
		c0.1-0.9-0.3-2.1-1.3-2.3c-6.9-1.5-14.1,0.4-19.6,4.8c-1.5,1.2-2.8,2.6-4,4.2c-0.6,0.8-0.1,2.1,0.7,2.6c0.9,0.5,2,0.2,2.5-0.7
		l0.3-0.4l0.1-0.1l0.8-0.9c0.5-0.6,1.1-1.1,1.6-1.6l0.4-0.3l0.2-0.1l1-0.7c0.6-0.4,1.3-0.8,1.9-1.2l1-0.5l0.4-0.2l0.4-0.2
		c0.7-0.3,1.4-0.5,2.1-0.7l2.2-0.5l0.5-0.1c0.1,0,0.2,0,0.3,0c0.4-0.1,0.8-0.1,1.2-0.1h2.1l-0.8,1c-1.2,1.8-0.9,4.2,0.7,5.6
		c1.7,1.5,3.9,1.6,6.1,1.5c2,0,4,0,6,0.3l0.5,0.1l0.8,0.1l1.6,0.4l0.9,0.3c-0.3,0.8-0.4,1.6-0.3,2.4c0.2,2,1.3,3.7,2.8,5
		c0.7,0.6,1.5,1.2,2.3,1.8l0.2,0.1h0.1l0.5,0.4l1,0.9c0.6,0.6,1.3,1.3,1.9,2c0.1,0.2,0.2,0.3,0.4,0.5l0.2,0.3
		c0.3,0.4,0.6,0.7,0.8,1.1c0.6,0.9,1,1.7,1.5,2.6c0.1,0.2,0.2,0.4,0.3,0.7l0.1,0.2l0.1,0.1c0.2,0.5,0.4,1,0.5,1.5
		c0.1,0.5,1.3,1.6,2.3,1.3c1-0.3,1.5-1.3,1.3-2.3C204,154.5,202.1,151.2,199.7,148.5z"/>
	<path style="stroke:#000000;stroke-width:3;stroke-linecap:round;stroke-linejoin:round;stroke-miterlimit:10;" d="M82.3,121.9
		c-5.1-1.1-10.4-1.5-15.7-1c-2.6,0.2-5.3,0.6-7.8,1.3c-1.3,0.3-2.5,0.6-3.7,1c-1.2,0.4-2.7,0.8-3.8,1.7c-1.1,0.9-1.6,3.3-0.2,4.5
		c0.4,0.3,0.9,0.6,1.3,0.9c-4.8,2.9-9.3,6.5-13.2,10.6c-0.5,0.4-0.7,1.2-0.5,1.8c0.2,0.6,0.7,1.1,1.3,1.3l0.9,0.4
		c-1.7,2.1-3.4,4.2-5.1,6.2c-1.7,2.1-4.3,5.1-4.8,8.3c-0.2,0.9-0.2,1.9,0,2.8c0.2,1,0.7,1.9,1.3,2.6c0.6,0.8,2,0.7,2.6,0
		c0.6-0.7,0.6-1.8,0-2.6l0,0c0,0,0-0.1-0.1-0.1c-0.1-0.1-0.1-0.2-0.2-0.3c0,0,0-0.1,0-0.1c-0.1-0.1-0.1-0.3-0.1-0.4v-0.6
		c0-0.1,0.1-0.3,0-0.4c0-0.1,0-0.1,0-0.2l0.2-0.9c0.1-0.1,0.1-0.3,0.1-0.4c0,0,0-0.1,0-0.1l0.1-0.1c0.3-0.6,0.6-1.2,1-1.8
		c0.3-0.6,0.3-0.5,0.5-0.7c0.1-0.1,0.2-0.3,0.3-0.4l0.1-0.1c0.5-0.6,1-1.2,1.5-1.9l3.1-3.8l3.5-4.4c0.9-1.2,0.6-2.6-0.8-3.1
		l-0.6-0.3l1.5-1.4c0.6-0.5,1.2-1.1,1.9-1.6l1-0.8l0.5-0.4h0l0.2-0.1c2.6-2,5.3-3.8,8.2-5.4c0.9-0.5,1.2-1.7,0.6-2.6
		c-0.1-0.3-0.4-0.5-0.6-0.6l-2.5-1.3l0.6-0.2l1.8-0.6l3.4-0.9c1.1-0.3,2.3-0.5,3.4-0.7l0.8-0.1h0l0.5-0.1l1.8-0.1
		c2.3-0.2,4.6-0.2,6.9-0.1l1.9,0.1l1,0.1h1l0.5,0.1l1,0.2l2,0.4c1,0.2,2.1-0.3,2.3-1.3C83.8,123.1,83.3,122.1,82.3,121.9z
		 M34.7,159.8C34.6,159.9,34.6,160,34.7,159.8C34.6,159.8,34.6,159.8,34.7,159.8C34.6,159.8,34.6,159.8,34.7,159.8L34.7,159.8z
		 M53.7,127.7C53.7,127.8,53.7,127.8,53.7,127.7C53.6,127.8,53.6,127.8,53.7,127.7L53.7,127.7L53.7,127.7
		C53.7,127.7,53.7,127.7,53.7,127.7z"/>
	<path style="stroke:#000000;stroke-width:3;stroke-linecap:round;stroke-linejoin:round;stroke-miterlimit:10;" d="M217.8,168.1
		c-1.3-6.3-2.8-12.6-5.3-18.5c-0.7-1.7-1.5-3.3-2.5-4.9c0.4-0.3,0.7-0.7,0.9-1.2c0.6-1,1-2.2,1.2-3.4c0.5-2.5,0.9-5.1,1-7.7
		c0.1-1.7,0.2-3.3,0.3-5c0-0.1,0-0.1,0-0.2c0-1.6,0-3.1-0.2-4.7c-0.3-2.3-0.7-4.6-1.2-6.9c-0.5-2.1-1.3-4-1.9-6
		c-0.2-0.5-0.3-1-0.4-1.5c0-0.2-0.1-0.5-0.1-0.7v-0.1c0-0.1,0-0.3,0-0.4c0-0.2,0-0.5,0-0.7c0-0.1,0-0.2,0-0.4v-0.1
		c0.1-0.2,0.1-0.4,0.2-0.7V105l0-0.1l0,0c0,0,0,0,0,0l0,0l0.1-0.3l0.1-0.2l0.1-0.1l0.5-0.4l0.3-0.2l0.3-0.1l0.3-0.1h0l0.4-0.1
		c0.1,0,0.2,0,0.3,0l0.2,0.1h0.1l0.1,0.1h0.1c0.5,0.5,1.3,0.7,2,0.4c0.3-0.1,0.5-0.3,0.7-0.5c0.3-0.3,0.5-0.7,0.4-1.2
		c-0.4-4-1.6-7.9-3.4-11.5c-0.8-1.8-1.8-3.5-2.8-5.2l-0.7-1.3c0-0.1-0.1-0.1-0.1-0.2c0,0-0.1-0.1-0.1-0.1c-0.1-0.3-0.1-0.5-0.2-0.7
		c0-0.1,0-0.2-0.1-0.3l0,0c0,0,0,0,0-0.1v0l0,0l0,0c0,0,0,0,0-0.1c0-0.1,0.1-0.3,0.1-0.3l0.3-0.4c0.1-0.1,0.1-0.1,0.1-0.2l0.2-0.1
		l0.5-0.3l0.2-0.1c0.4-0.1,0.8-0.3,1.2-0.3h1c1,0,1.9-0.9,1.9-1.9c0-0.1,0-0.3-0.1-0.5c-0.5-3.4-1.4-6.7-2.8-9.9
		c-0.3-0.7-0.7-1.5-1.1-2.1c-0.4-0.7-0.4-0.8-0.7-1.1l-0.6-0.7l-0.3-0.3c-0.1-0.2-0.2-0.2-0.1-0.1c-0.5-0.6-0.9-1.4-1.4-2.1
		l-1.4-1.5c-0.2-0.2-0.4-0.4-0.5-0.6c0,0-0.1,0-0.1-0.1s0,0,0-0.1c-0.1-0.1-0.2-0.3-0.3-0.4l-0.2-0.4c0-0.1-0.1-0.2-0.1-0.3
		c0-0.1-0.1-0.2-0.1-0.3c0-0.1,0-0.1,0-0.2v0c0,0,0,0,0,0V58h0v-0.2l0.2-0.1c0.4-0.3,0.9-0.5,1.3-0.9c0.6-0.4,1.1-1,1.3-1.7
		c0.2-0.9-0.1-1.7-0.4-2.5c-0.6-1.5-1.5-2.8-2.5-3.9c-1.9-2-4.4-3.4-6.8-4.8l0.1-0.3l0.2-0.3l0.1-0.2l0.8-0.8l0.4-0.3l0.1-0.1
		l0.9-0.6l1.9-1.2c0.7-0.4,1.8-1,2.2-1.7c0.5-0.7,0.4-2.3-0.1-3.4c-0.2-0.4-0.5-0.8-0.9-1.1l-0.2-0.1c0,0,0,0-0.2-0.1
		c-0.3-0.2-0.5-0.4-0.8-0.6c-0.8-0.5-1.7-0.8-2.6-1c-1.8-0.3-3.5,0-5.2,0.1c0,0,0,0,0-0.1c0-0.1,0-0.1-0.1-0.2
		c0-0.1-0.1-0.3-0.1-0.5c0-0.2,0-0.5,0-0.7c0-1.1,0.1-2.1,0-3.2c0-0.6-0.2-1.2-0.4-1.8c-0.4-0.8-0.9-1.5-1.7-2
		c-0.4-0.3-1-0.5-1.5-0.7c-0.3-0.1-0.6-0.1-1-0.2h-0.3L189,23l-0.3,0.1l-0.2,0.1l-0.3,0.1l-0.7,0.2c-0.3,0.1-0.7,0.3-1,0.4l-0.6,0.4
		l-0.1,0.1l-0.1,0.1l-3.1,2.3c-2,1.5-3.9,3.1-5.8,4.7c-3.7,3.1-7,6.6-10.2,10.2c-0.8,1-1.6,2-2.3,2.9c-0.8,0.9-1.7,1.8-2.4,2.8
		c-1.7,2.2-3.4,4.4-5,6.7c-1.6,2.3-2.9,4.8-4.4,7.3c-1.5,2.5-2.5,4.4-3.3,6.9c-1.2,1-1.6,2.9-1.7,4.4c0,1.5,0.1,3.1,0.3,4.6
		c-0.9-0.8-1.9-1.4-3.1-1.8c-1.5-0.5-3.4-0.7-4.5,0.6c-1.1,1.3-0.8,2.8-0.6,4.3v0.1c0,0.2,0.1,0.4,0.1,0.6c0,0.4,0.1,0.8,0.1,1.2
		c0,0.9,0,1.8,0,2.6c0,0.1,0,0.2,0,0.3l-0.1,0.6c-0.1,0.4-0.2,0.8-0.3,1.2s-0.1,0.4-0.2,0.6l-0.1,0.1v0.1l-0.6,1l-0.1,0.1
		c-0.9-5.7-3.3-11.1-7-15.6c-0.6-0.6-1.5-0.7-2.3-0.3c-0.7,0.4-1,1.3-0.9,2.1c0,0,0,0.1,0,0.1v0.1c0,0.1,0,0.1,0,0.1
		c0,0.1,0,0.1,0,0.2c0,0.3,0,0.6,0,0.9c0,0.1,0,0.3,0,0.4v0.1V77c-0.1,0.3-0.1,0.6-0.2,0.8c-0.1,0.6-0.4,1.2-0.6,1.8
		c0,0.1-0.1,0.1-0.1,0.2c0,0,0-0.1,0.1-0.1l-0.1,0.1v0c0,0,0,0.1,0,0.1l0,0c0,0.1,0,0.1,0,0l-0.1,0.3c-0.1,0.3-0.3,0.6-0.4,0.9
		c-1,2-2.1,4-2.7,6.2c0,0,0,0,0-0.1c0-0.1-0.1-0.3-0.1-0.4c-0.1-0.2-0.1-0.5-0.3-0.7c-0.1-0.5-0.3-0.9-0.4-1.4
		c-0.3-0.9-0.4-1.8-0.5-2.7c0,0,0,0,0-0.1c0-0.1,0-0.3,0-0.4c0-0.2,0-0.4-0.1-0.6l-0.1-1.5c-0.1-1-0.1-2-0.2-2.9c-0.1-2-0.3-4-0.7-6
		c-0.4-2.2-1.2-4.4-2.3-6.4c-0.4-0.6-1.1-1-1.8-0.9c-0.7,0.1-1.5,0.6-1.6,1.3c-0.6,3.4-1.8,6.6-2.9,9.8c-2-5.1-4.2-10.1-6.7-15
		c-1.5-3-3.1-6-4.8-8.9c-1.7-2.9-3.2-5.5-5.1-8c-1.9-2.5-4.6-4.9-7.9-6c-1.3-0.4-2.8,1-2.3,2.3l0.2,0.7l-1.8-2.6
		c-1.6-2.4-3.3-4.8-5.1-7c-3.2-4-7-7.7-11.7-9.9c-2.7-1.3-5.6-2.1-8.6-2.2c-1,0-1.9,0.9-1.9,1.9c0,0.1,0,0.3,0,0.4
		c0.6,1.8,1.2,3.7,1.7,5.5c-2.3,0.2-4.4,0.9-6.5,1.9c-0.7,0.4-1.1,1.3-0.9,2.1c0.4,1.6,0.7,3.2,0.9,4.9c0,0.1,0,0.2,0,0.3
		c0,0,0,0.1,0,0.1v0.1c0,0.1,0,0.2,0,0.3c0,0.1,0.1,0.9,0.1,1.3s0.1,1.6,0.2,2.4c0.1,3.3,0,6.6-0.4,9.8v0.1c0,0.1,0,0.3,0,0.3
		l-0.1,0.6l-0.2,1.3c-0.1,0.5-0.2,1-0.3,1.5c-0.9,0.1-1.6,0.4-2.4,0.9c-0.6,0.3-1.1,0.8-1.5,1.3c-0.3,0.3-0.6,0.7-0.7,1.2
		c-0.1,0.5,0,1,0.1,1.5c0.1,0.5,0.1,0.9,0.1,0.2c0,0.2,0,0.3,0,0.5v0.6c0,0.1,0,0.2,0,0.3c0,0.4-0.1,0.7-0.3,1.1l-0.2,0.6
		c0,0,0,0,0,0c0,0.1-0.1,0.2-0.1,0.3c-0.8,1.8-2,3.4-3.1,4.9h0l-0.2,0.3l-0.4,0.5l-1,1.3c-0.7,0.9-1.3,1.8-2,2.6
		c-1.3,1.8-2.5,3.7-3,5.9c-0.3,1,0.3,2,1.3,2.3c0.4,0.1,0.9,0.1,1.2-0.1h0.4c0.5,0,1,0,1.5,0h0.4l0.9,0.2l1.3,0.4l0.2,0.1h0.1
		l0.3,0.2l0.1,0.1l0,0c0,0,0,0,0,0s0,0,0,0c-0.5,0.6-0.9,1.2-1.2,1.8c-1.5,2.9-2.2,6.2-3.3,9.3c-1.1,3.1-2.6,7.1-3.1,10.9
		c-0.6,4.4-0.1,8.7,0.5,13c-2.8,2.9-4.9,6.5-6.2,10.4c-0.7,2.4-1.2,5-1.8,7.5c-0.6,2.5-1.3,4.7-2,7c-0.7,2.3-1.3,3.8-2.1,5.7
		c-0.2,0.4-0.3,0.8-0.5,1.3l-0.2,0.6h0c0,0.1-0.1,0.3-0.1,0.4c-0.3,0.8-0.7,1.5-1,2.3c-1.2,2.6-2.5,5.1-3.8,7.7
		c-1.2,2.3-2.3,4.8-3.2,7.3c-0.4,1.2-0.8,2.5-1.1,3.8c-0.4,1.9-0.9,3.9-0.8,5.9c0,1.4,0.4,2.8,1.1,4c0.5,0.9,1.6,1.2,2.5,0.7
		c0.9-0.5,1.2-1.6,0.7-2.5c0,0,0,0,0,0l-0.3-0.4V176c-0.1-0.3-0.2-0.6-0.2-0.9c0,0,0-0.2-0.1-0.3v-0.3c0-0.4,0-0.7,0-1.1
		s0-0.6,0.1-0.8c0-0.3,0-0.2,0-0.3c0-0.1,0-0.1,0-0.2c0-0.4,0.1-0.8,0.2-1.2c0.3-1.3,0.6-2.6,1-4c0.2-0.6,0.4-1.2,0.6-1.8l0.3-0.8
		c0-0.1,0.1-0.3,0.1-0.4l0.1-0.4c0.5-1.1,1-2.1,1.5-3.2c1.2-2.4,2.5-4.8,3.7-7.2c1.6-3.2,2.9-6.4,4.2-9.7c1.6-4.5,2.9-9.1,4-13.7
		c0.3-1.2,0.5-2.4,0.8-3.5c0.1-0.4,0.3-0.8,0.4-1.3l0.2-0.6l0.1-0.3c0,0,0-0.1,0-0.1c0.7-1.7,1.7-3.3,2.8-4.7c0-0.1,0.3-0.4,0,0
		l0.2-0.2l0.4-0.6l1-1.2c0.6-0.7,1.3-1.3,2-2l1.1-0.9l0.5-0.4l0.3-0.2c-0.4,0.3,0,0,0.1,0c0.8-0.6,1.6-1.2,2.5-1.8
		c1.7-1.1,3.5-2.1,5.3-3.1l2.8-1.3l1.3-0.6h0.1l0.4-0.1l0.9-0.3c3.8-1.5,7.7-2.8,11.7-3.8l3-0.7l2-0.4l1-0.2h0.4l0.4-0.1h0
		c1.3-0.2,2.7-0.3,4.1-0.3h0.7c-1.5,0.6-3,1.4-4.4,2.2c-3.4,1.9-6.6,4.3-9,7.4c-1.3,1.8-2.2,3.8-2.4,6c0,0.7,0.4,1.3,0.9,1.6
		c0.6,0.4,1.2,0.3,1.9,0l7.7-3.4l3.8-1.7l3.4-1.5c4.8-2,9.7-3.8,14.8-4.6l2.6-0.3c-1.4,1.5-2.4,3.4-2.8,5.4
		c-0.3,1.3,0.9,2.8,2.3,2.3c0.9-0.3,1.9-0.6,2.9-0.8l0.4-0.1h0.7c0.5-0.1,1-0.1,1.5-0.1h2.1l0.4,0.1h0.3c0.9,0.1,1.9,0.3,2.8,0.6
		c1.9,0.5,3.7,1.2,5.5,2.1c1.8,0.9,3.5,2,5.2,3.1l2.9,2l1.4,1l0.7,0.5l0.3,0.2c0.3,0.6,0.9,1,1.6,1c1-0.1,1.9-0.8,1.9-1.9
		c-0.1-1-0.5-1.5-1.2-2.1l-1.5-1.1l-2.6-1.9c-1.8-1.3-3.7-2.5-5.6-3.5c-4-2.2-8.5-3.7-13-3.9c-1.3,0-2.5,0-3.8,0.2l0.2-0.3l0.4-0.4
		c0.3-0.3,0.6-0.6,0.9-0.8c0.1-0.1,0.2-0.2,0.3-0.3l0.4-0.3c0.4-0.2,0.7-0.4,1.1-0.6l0.2-0.1h0.1l0.6-0.2c0.9-0.3,1.5-1.1,1.3-2.1
		c-0.1-1-0.9-1.5-1.8-1.6c-10.9-1.4-21.4,3.5-31.1,7.8l-4.6,2c0-0.1,0.1-0.2,0.2-0.3c0,0,0-0.1,0.1-0.1l0.1-0.1l0.4-0.5l0.9-0.9
		c0.6-0.6,1.2-1.2,1.9-1.7l0.2-0.2h0.1l0.4-0.3L76,108c0.7-0.5,1.5-1,2.3-1.5c1.6-0.9,3.2-1.8,5-2.5h0.1l0.4-0.1l0.7-0.3l1.5-0.5
		c1-0.4,2-0.7,3.1-0.9c0.8-0.2,1.4-0.9,1.4-1.8c0-0.8-0.6-1.6-1.4-1.8c-5.5-1.9-11.5-1.6-17.1-0.3c-4.1,0.9-8.2,2.1-12.2,3.5
		c-6.5,2.3-13.1,5.4-18.5,9.8c0-0.2-0.1-0.4-0.1-0.7c-0.1-1-0.2-2-0.3-3c-0.1-1.8-0.1-3.5,0.1-5.3c0,0,0-0.1,0-0.1v-0.1
		c0,0.1,0,0.1,0-0.1c0-0.1,0.1-0.3,0.1-0.4c0.1-0.4,0.2-0.9,0.3-1.3c0.1-0.4,0.4-1.8,0.7-2.7c0.6-2.1,1.4-4.1,2.1-6.1
		c0.5-1.5,0.9-2.9,1.4-4.4c0.3-0.8,0.6-1.7,0.9-2.5l0.2-0.6h0c0-0.1,0-0.1,0.1-0.2c0.1-0.4,0.3-0.7,0.5-1.1l0.5-0.8l-0.1,0.1
		l0.1-0.1l0.6-0.7c0.4-0.6,0.6-1.3,0.6-2.1c-0.1-1.5-1.2-2.6-2.4-3.2c-1.5-0.7-3-1.1-4.6-1.2h-0.1c0.2-0.4,0.5-0.8,0.7-1.2l1.4-2.1
		l0.4-0.5l0.1-0.2h0l0.8-1c2.1-2.7,4.4-5.4,5.6-8.8c0.5-1.4,0.6-2.9,0.3-4.4l0.1-0.1l0.2-0.1c0.1-0.1,0.3-0.3,0.5-0.3H52l0.3-0.1
		c0.1,0,0.2-0.1,0.3-0.1c0,0,0.1,0,0.1,0h0.3l0.6,0.1c0.7,0.1,1.6-0.7,1.8-1.4c1.6-6.7,1.9-13.6,1-20.4c-0.2-1.5-0.4-2.9-0.7-4.4
		L56,30l1.9-0.5l0.9-0.2h0.2l0.4-0.1c0.7,0,1.4-0.1,2.1,0c1.1,0,1.9-0.9,1.9-2c0-0.1,0-0.3,0-0.4l-1.6-5l0.6,0.1l1.7,0.5l0.7,0.3
		l0.3,0.1l0.3,0.1c1.1,0.5,2.2,1.1,3.2,1.8l1.4,1l0.4,0.3h0.1l0.7,0.6c1.9,1.6,3.7,3.5,5.3,5.5c0.2,0.3,0.4,0.5,0.6,0.8l0.1,0.1
		l0.2,0.3l1.3,1.8l2.3,3.2c1.8,2.6,3.6,5.3,5.6,7.8c0.4,0.5,1.2,0.6,1.8,0.5c0.6-0.2,1.1-0.7,1.3-1.3c0.4-1.2,0.6-2.3,0.6-3.6
		c0.3,0.2,0.5,0.4,0.7,0.6l0.7,0.7c0.4,0.5,0.9,1,1.3,1.5l0.3,0.4l0.1,0.1l0.7,0.9l1.2,1.7c0.8,1.3,1.6,2.7,2.4,4
		c3.4,5.7,6.4,11.5,9,17.6c0.4,0.8,0.7,1.6,1.1,2.5l0.1,0.4l0.3,0.7c0.1,0.4,0.3,0.8,0.5,1.2c0.7,1.8,1.4,3.5,2,5.3
		c0.1,0.2,0.2,0.4,0.4,0.6c-0.6,2.2-0.9,4.5-1,6.9c-0.3,7.4,2.3,14.5,6.9,20.2c2.3,2.9,5.2,5.2,8.4,7c0.9,0.5,2.1,0.3,2.5-0.7
		c0.5-0.9,0.2-2-0.6-2.5l0,0l-2-1.2l-0.9-0.6l-0.4-0.3l-0.3-0.2c-1.2-1-2.3-2-3.3-3.2l-0.7-0.8l-0.3-0.4l-0.2-0.3
		c-0.4-0.6-0.9-1.2-1.3-1.9c-0.4-0.6-0.8-1.3-1.1-2s-0.3-0.7-0.5-1c-0.1-0.2-0.2-0.4-0.3-0.6c0-0.1-0.3-0.7-0.1-0.3
		c-0.7-1.7-1.3-3.4-1.6-5.2l-0.2-1.3c0-0.1,0-0.1,0-0.2V91c0-0.3-0.1-0.5-0.1-0.7c-0.1-0.9-0.1-1.8-0.1-2.6c0-0.9,0-1.8,0.1-2.7
		c0-0.2,0.1-0.5,0.1-0.7c0,0,0-0.1,0-0.1v-0.1c0.1-0.5,0.2-1,0.3-1.5c0.4-1.8,0.9-3.6,1.5-5.3c0.7-2,1.4-4,2.1-6
		c0.1,0.4,0.1,0.7,0.2,1.1c0,0.1,0,0.1,0,0.2s0,0.1,0,0.2c0,0.3,0,0.5,0.1,0.7c0.1,1,0.2,1.9,0.3,2.9c0.3,4,0.4,8.1,1.9,11.8
		c0.9,2.2,2.2,4.3,4,5.8c0.6,0.5,1.5,0.7,2.3,0.3c0.7-0.4,1-1.3,0.9-2.1c-0.1-0.3-0.2-0.6-0.2-0.9v-0.1c0-0.2,0-0.3,0-0.5
		c0-0.3,0-0.6,0-0.9c0-0.1,0-0.2,0-0.4c0,0,0-0.1,0-0.1c0.1-0.6,0.3-1.2,0.5-1.8c0.1-0.3,0.2-0.6,0.3-0.9h0l0.2-0.5
		c0.9-2.1,2.1-4.1,2.9-6.3c0.3,0.5,0.6,1.1,0.9,1.6l0.4,1c0,0.1,0.1,0.1,0.1,0.2c0.1,0.1,0.1,0.3,0.2,0.5c0.6,1.4,1,2.9,1.4,4.4
		c0.1,0.7,0.3,1.4,0.4,2.1c0,0.1,0,0.2,0,0.3c0,0.1,0,0.3,0,0.5l0.1,1.2c0,1,0.9,1.9,2,1.8c0.1,0,0.3,0,0.4,0
		c1.9-0.4,3.6-1.5,4.5-3.2c1-1.6,1.4-3.4,1.6-5.2c0.1-1.6,0.1-3.2-0.1-4.8c-0.1-0.4-0.1-0.9-0.2-1.3c0-0.1,0-0.1,0-0.1l0.3,0.1
		l0.3,0.1l0.4,0.2l0.7,0.5h0l0.3,0.3c0.2,0.2,0.4,0.4,0.6,0.6c0.1,0.1,0.1,0.1,0.2,0.3c0.1,0.1,0.2,0.2,0.3,0.4
		c0.7,1,1.2,2.3,2.1,3.3c0.6,0.6,1.3,1,2.2,1.1c1.3,0,2.3-1,2.3-2.3c0-1.5-0.6-2.9-0.9-4.3c-0.1-0.6-0.3-1.2-0.4-1.9
		c-0.1-0.7-0.1-0.6-0.1-0.9c-0.1-0.3,0-0.3,0-0.3c0,0,0-0.3,0-0.5c-0.1-0.7-0.1-1.3-0.1-2v-0.8c0-0.1,0-0.1,0-0.1v-0.1
		c0-0.2,0.1-0.4,0.1-0.6l0.1-0.3v-0.1c0.1,0.1,0.3,0.1,0.4,0.3l0.3,0.2l0.1,0.1l0.7,0.6l1.5,1.2c1.1,0.9,2.2,1.9,3.2,2.9
		c0.5,0.5,1,1,1.4,1.5l0.7,0.9l0.2,0.3c0.1,0.1,0.1,0.1,0.2,0.3c0.9,1.2,1.7,2.5,2.3,3.9c0.3,0.7,0.6,1.4,0.9,2.1v0.1l0.1,0.1
		c0.1,0.2,0.1,0.4,0.3,0.6c0,0.1,0.1,0.3,0.2,0.5c0,0.2,0,0.4,0,0.7c0.3,1,1.4,1.7,2.4,1.4c0.5-0.1,0.9-0.4,1.2-0.9
		c0.6-1,0.1-1.9-0.3-2.8c-0.4-0.9-1.2-2.8-1.9-4.2c-1.3-2.5-3.1-4.8-5.1-6.8c-2-2-4.1-3.8-6.4-5.4c-0.3-0.2-0.6-0.4-0.9-0.5
		c1.2-2.7,2.8-5.2,4.3-7.8c1.9-3.6,4.6-7,7-10.2c1.2-1.5,2.6-2.9,3.8-4.4c1.2-1.5,2.6-3.1,4-4.5c2.6-2.7,5.3-5.3,8.2-7.8
		c1.6-1.4,3.2-2.7,4.8-3.9c1-0.7,1.9-1.3,2.9-2.1l0.2-0.2h0l0.1-0.1l0.4-0.1l0.9-0.3l0.3,0.1l0.2,0.1l0.2,0.2
		c0.1,0.1,0.1,0.3,0.1,0.5v0.2c0,0.4,0,0.9,0,1.4c-0.1,2.1-0.1,4.1,1.3,5.9c0.5,0.6,1.3,1,2.1,0.9l1.5-0.1c0.9-0.1,1.9-0.2,2.8-0.2
		h0.6l0.5,0.1L200,36h0.1l0.3,0.2l0.4,0.2l0.1,0.1l0.1,0.1c-1.4,0.9-2.8,1.8-4.2,2.8c-1.8,1.3-2.9,3.3-3.2,5.5
		c0,0.7,0.4,1.3,0.9,1.6c1.2,0.7,2.4,1.3,3.6,2.1l1.7,1.2l0.3,0.2l0.3,0.2l0.7,0.6c0.4,0.4,0.9,0.9,1.3,1.4l0.2,0.2l0.3,0.4
		c0.1,0.3,0.3,0.5,0.4,0.8c0,0,0,0.1,0.1,0.1v0.1l0.1,0.3l-0.3,0.1c-1.5,0.9-2.5,2.1-2.6,3.9c-0.1,1.8,0.7,3,1.7,4.3
		c0.4,0.5,0.9,1,1.3,1.5l0.6,0.6l0.2,0.2l0.2,0.4c0.4,0.7,0.9,1.3,1.4,2c0.5,0.6,0.9,1.3,1.3,2.1c1.3,2.6,2.2,5.3,2.7,8.1
		c-1.2,0.3-2.3,0.7-3.2,1.5c-0.7,0.6-1.3,1.5-1.7,2.4c-0.4,1-0.4,2.1,0,3.1c0.3,1.1,0.8,2.1,1.5,3.1l1.6,2.9
		c0.9,1.7,1.7,3.5,2.4,5.3c0.4,1.1,0.7,2.2,1,3.4c0,0.2,0.1,0.4,0.1,0.7c-0.9,0.1-1.7,0.3-2.5,0.8c-1.9,1.1-3.2,3.1-3.4,5.3
		c-0.3,2,0.3,4,1,5.9c0.7,2.1,1.4,4.2,1.9,6.3c0.8,3.7,1.2,7.6,1,11.4c0,0.1,0,0.2,0,0.2c0,0.5-0.1,1-0.1,1.5
		c-0.1,0.9-0.1,1.7-0.2,2.6s-0.1,1.2-0.1,1.8l-0.1,0.9c0,0.1,0,0.2,0,0.3c0,0,0,0,0,0.1c0,0,0,0.1,0,0.1v0c0,0,0,0.1,0,0.1
		c-0.2,1.4-0.5,2.8-0.9,4.2l-0.1,0.1l0,0l0,0l0,0c0,0.1-0.1,0.1-0.1,0.2l0,0l0,0l0,0c0,0,0-0.1,0-0.1c0,0.1,0,0.1,0,0.1
		c0,0,0,0,0,0.1l-0.1,0.1c0,0,0,0,0-0.1c-1-1.3-2.2-2.6-3.4-3.8c-0.6-0.6-1.2-1.1-1.9-1.6l-1-0.9c-0.1-0.1-0.3-0.3-0.4-0.4l-0.2-0.2
		l-0.1-0.1l-0.3-0.5c0,0,0-0.1-0.1-0.1c0,0-0.1-0.2-0.1-0.4c0-0.1,0-0.3,0-0.3c0-0.2,0.1-0.3,0.1-0.3c0.2-0.2,0.3-0.3,0.3-0.3
		c0.8-0.6,1.6-1.2,2-2.1c0.4-0.9,0.2-2.5-0.5-3.5c-2.1-3.1-5.5-5.3-9-6.5l-2.5-0.7l-1.2-0.4l-0.3-0.1l-0.6-0.3l-0.1-0.1c0,0,0,0,0,0
		l0,0l0,0l0,0l0,0l0,0c0,0-0.1-0.1-0.1-0.1l-0.1-0.2l-0.1-0.2c0-0.1,0-0.2-0.1-0.3v0v0v0l0,0l0,0v-0.1c0,0,0,0,0,0l0,0v0l0,0
		c0,0,0,0,0,0s0,0,0,0s0,0,0-0.1l0,0v0.1c0,0,0-0.1,0-0.1h0c0,0,0,0,0,0l0.1-0.1c0,0,0,0,0,0l0.1-0.1l0.5-0.3
		c0.4-0.2,0.8-0.5,1.1-0.8c0.9-0.9,1.3-2.2,0.8-3.4c-0.7-2-2.9-3-4.8-3.6c-6.3-2.1-12.8,0-19.2-0.1l0.3-0.2c1.7-1.2,3.1-3.2,2.5-5.4
		c-0.3-1.2-1.3-2.1-2.5-2.5c-0.9-0.3-1.9-0.3-2.9-0.3c-1.8,0-3.6,0-5.4,0.2c-7.5,0.7-14.7,3.1-21.1,7c-3.6,2.2-6.9,4.8-9.8,7.8
		c-0.7,0.7-0.7,1.9,0,2.6c0.7,0.7,1.9,0.7,2.6,0c1.2-1.2,2.5-2.4,3.8-3.5l1-0.8c0,0,0.1-0.1,0.1-0.1h0.1l0.5-0.4
		c0.7-0.5,1.4-1,2.2-1.5c1.4-0.9,2.9-1.8,4.4-2.5l2.3-1.1l0.6-0.3l0.3-0.1l1.2-0.5c3.2-1.2,6.5-2.1,9.9-2.6h0.2l0.6-0.1l1.3-0.1
		l2.5-0.1c0.9,0,1.8,0,2.6,0h1.7c0,0,0,0,0,0.1s0,0.1,0,0.1c0,0,0,0.1,0,0.1l0,0h0l-0.2,0.4c0,0,0,0,0,0.1l-0.2,0.1l-0.3,0.3h-0.1
		L165,106c-1.7,1.1-3.5,2.1-4.1,4.1c-0.3,1,0.3,2,1.3,2.3h0c3.5,0.8,7.1,0.6,10.7,0.2c1.7-0.2,3.4-0.4,5.1-0.4c0.8,0,1.6-0.1,2.5,0
		h1.3l0.6,0.1h0.3c0.8,0.1,1.6,0.3,2.4,0.6l0.5,0.2l0.3,0.1c0.4,0.1,0.8,0.3,1.2,0.6l0.1,0.1l-0.7,0.4c-1.8,1.2-2.2,3.4-1.4,5.3
		c0.8,1.9,2.5,2.9,4.4,3.5l2.5,0.7l1.2,0.4l0.1,0.1h0.1l0.7,0.3c0.8,0.4,1.5,0.8,2.2,1.3l0.4,0.3l0.3,0.3c0.4,0.3,0.7,0.6,1,0.9
		c0.3,0.3,0.6,0.6,0.9,0.9l0.4,0.4c0,0,0.1,0.1,0.1,0.1l0.1,0.2c-0.7,0.5-1.5,1-2,1.9c-0.5,1-0.7,2.1-0.5,3.1
		c0.3,1.9,1.7,3.4,3.1,4.5c1.3,1,2.5,2.1,3.5,3.3l0.7,0.9l0.4,0.4l0.1,0.2c0.5,0.6,0.9,1.3,1.4,1.9c0.8,1.3,1.6,2.6,2.3,4.1
		c0.4,0.7,0.7,1.5,1,2.2c-0.2-0.4,0,0.1,0.1,0.2l0.2,0.5l0.4,1.2c0.6,1.5,1.1,3.1,1.5,4.7c0.9,3.1,1.6,6.2,2.3,9.4
		c0.1,0.6,0.3,1.2,0.4,1.8c-0.1,0.3-0.1,0.6,0,0.9c0.1,0.8,0.9,1.3,1.5,1.6c0.9,0.3,1.8,0,2.3-0.7
		C218.6,169.9,218.5,168.8,217.8,168.1z M41.3,76C41.4,76,41.4,76,41.3,76L41.3,76z M45.3,79.3C45.3,79.3,45.3,79.3,45.3,79.3
		l-0.1,0.1l0,0L45.3,79.3z M197.6,44.2C197.6,44.2,197.6,44.2,197.6,44.2C197.6,44.2,197.6,44.2,197.6,44.2z M204.1,53.8L204.1,53.8
		L204.1,53.8L204.1,53.8C204.1,53.7,204.1,53.7,204.1,53.8z M166.1,105C166.1,105.1,166.1,105,166.1,105c0-0.1,0-0.1,0-0.1l0,0l0,0
		C166.2,104.9,166.1,105,166.1,105z M187.5,114.2L187.5,114.2L187.5,114.2L187.5,114.2z M199.4,128.9
		C199.4,128.8,199.4,128.8,199.4,128.9L199.4,128.9C199.5,128.8,199.5,128.8,199.4,128.9z"/>
</g>
</svg>
