<?xml version="1.0" encoding="utf-8"?>
<!-- Generator: Adobe Illustrator 27.9.0, SVG Export Plug-In . SVG Version: 6.00 Build 0)  -->
<svg version="1.1" id="Layer_1" xmlns="http://www.w3.org/2000/svg" xmlns:xlink="http://www.w3.org/1999/xlink" x="0px" y="0px"
	 viewBox="0 0 261 180" style="enable-background:new 0 0 261 180;" xml:space="preserve">
<g>
	<path style="stroke:#000000;stroke-width:3;stroke-linecap:round;stroke-linejoin:round;stroke-miterlimit:10;" d="M243.1,142.4
		c-0.4-2.6-1.2-5.1-2.4-7.4c-1.3-2.4-3-4.4-4.6-6.6c-0.8-1.1-1.6-2.2-2.1-3.5c-0.5-1.3-0.7-2.8-0.7-4.2c0-2.9,0.9-5.6,1.8-8.3
		c0.9-2.7,2-5.3,2.6-8.1c0.6-3.1,1-6.3,1.1-9.4c0.1-1.5,0.2-3,0.1-4.6s-0.1-3-0.1-4.5c0-1.5,0.1-3,0.1-4.5c-0.1-1.5-0.2-3.1-0.4-4.6
		c-0.8-5.8-2.7-11.3-3.6-17.1c-0.2-1.1-0.2-2.3-0.5-3.4c-0.2-0.8-0.4-1.5-0.7-2.2c-0.7-1.5-1.6-2.8-2.6-4.1
		c-2.3-2.9-5.3-5.2-8.3-7.4c-3-2.1-6.3-4-9.7-5.5c-2.6-1.2-5.4-2.3-8.2-2.5h-0.6c-2.4-2.3-5.3-4.1-8.2-5.7
		c-5.6-3.2-11.7-4.5-18.1-5.4c-9.6-1.3-19.1-3.3-28.8-3.8c-8.5-0.5-16.9-0.1-25.4,0.5c-7.9,0.5-15.8,1-23.7,1.7
		c-5.8,0.5-11.5,1.5-17,3.3c-4.3,1.4-8.3,3.4-12.1,5.8l-0.4-0.2c-4.4-1.3-9.2-0.7-13.3,1.1c-4.2,1.8-7.6,4.7-10.3,8.3
		c-2.4,3.2-4.4,6.7-6,10.3c-2.3,3.3-4.3,6.7-5.9,10.3c-1.5,3.2-2.9,6.5-4.4,9.8c-0.3,0.8-0.7,1.5-1.2,2.2l-0.4,0.5
		c0,0-0.1,0.1-0.1,0.1l-0.1,0.1l-0.9,1c-0.6,0.7-1.2,1.4-1.7,2.2c-0.5,0.8-0.9,1.7-1.2,2.6c-0.6,1.8-0.9,3.7-1.1,5.6l-0.3,2.8
		l-0.1,0.7v0.2c0,0.1-0.1,0.2-0.1,0.3c-0.1,0.4-0.1,0.9-0.2,1.3c-0.2,0.9-0.4,1.8-0.7,2.7c0,0-0.2,0.4-0.2,0.4
		c-0.1,0.2-0.2,0.4-0.3,0.5c-0.2,0.4-0.4,0.8-0.7,1.2l-0.7,1.1l-0.4,0.5L20.3,97c0,0,0,0.1,0,0.1l-0.1,0.1c-0.6,0.7-1.2,1.4-1.7,2.1
		c-2.4,2.9-4.7,6.2-5.4,10c-1.3,7.3,3,14.1,8.3,18.7c2.7,2.4,5.8,4.4,8.8,6.4c1.5,1,2.9,2,4.4,3.1l0.5,0.4l0.3,0.3l1.1,0.9
		c0.6,0.6,1.3,1.2,1.9,1.8c0.6,0.6,1.2,1.2,1.7,1.9c-0.7,3.5-1,7.2,0.3,10.6c0.4,1.1,0.9,2,1.6,3h0c0.1,0.4,0.4,0.8,0.7,1.1
		c1.6,1.2,4,0.4,5.1-1.2c1.1-1.5,1.2-3.7,1.4-5.6c0.4-3.2,0.8-6.4,1.2-9.6c1.2,4.7,2.3,9.4,3.8,14c0.8,2.6,1.8,5.1,3,7.5
		c0.4,0.8,1.4,1,2.2,0.6c0.7-0.5,1-1.4,0.6-2.2l-0.7-1.5c-0.1-0.1-0.1-0.3-0.2-0.4c-0.1-0.1-0.1-0.2-0.1-0.3l-0.3-0.7
		c-0.4-1.1-0.8-2.1-1.2-3.2c-0.7-2.2-1.3-4.4-1.9-6.5c-1-3.7-1.9-7.4-2.8-11.1c-0.5-2-1-3.9-1.5-5.9c-0.1-1.7-0.3-3.5-0.6-5.2
		c-0.3-2-0.7-3.9-1-5.9c-0.3-2-0.5-3.9-0.6-5.8c-0.3-3.9-0.5-7.9-0.7-11.9c-0.2-4-0.3-7.7-0.2-11.6c0.1-7.6,1-15.2,3.6-22.4
		c1.3-3.6,3-7.1,4.7-10.6c1.7-3.5,3.6-7.3,5.4-11l1.4-2.8c0.4-0.8,0.2-1.7-0.6-2.2c-0.7-0.4-1.8-0.2-2.2,0.6l-5.4,10.9
		c-1.7,3.5-3.5,6.9-5,10.5c-1.5,3.6-2.8,7.3-3.6,11c-0.8,3.7-1.3,7.5-1.5,11.3c-0.5,7.6-0.1,15.1,0.4,22.7c0.1,0.8,0.1,1.5,0.2,2.3
		c-1-4.2-2.3-8.2-3.6-12.3c-1.2-4.1-2.5-9-3-13.6s-0.5-9.3-0.1-13.9c0.6-6.4,2.2-12.7,4.7-18.7l0.1-0.1c0.1-0.2,0.2-0.4,0.2-0.6
		c0.9-2,2-4,3.1-6c2.1-3.5,4.8-6.8,8.3-9.1c3.4-2.3,7.4-3.6,11.5-3.2l0.7,0.1l-1.3,1c-1.1,1-2.2,2-3.2,3.1c-0.6,0.6-0.6,1.6,0,2.3
		c0.6,0.6,1.7,0.6,2.3,0c1.9-2.2,4.2-4.1,6.7-5.7c2.6-1.8,5.2-3.2,8.1-4.5c5.6-2.4,11.7-3.6,17.8-4.4c3.2-0.4,6.5-0.6,9.8-0.8
		l12.9-0.9c8-0.5,16-1.1,24.1-0.9c2.6,0.1,5.1,0.2,7.6,0.4l3.2,0.3l1.5,0.2l0.7,0.1h0.2l0.4,0.1c4.5,0.6,9.1,1.4,13.6,2.1
		c6.1,0.9,12.3,1.5,18.1,3.7c2.7,1,5.2,2.5,7.6,4.1s4.4,3,6,5.1c0.8,1,1.5,2.1,2,3.2c0.4,0.8,1.5,1,2.2,0.6c0.8-0.4,1-1.4,0.6-2.2
		c-0.3-0.6-0.7-1.3-1.1-1.9c0.8,0.3,1.7,0.5,2.5,0.9l0.5,0.2l0.4,0.2l1,0.4c0.8,0.4,1.6,0.7,2.3,1.2c1.6,0.8,3.2,1.7,4.7,2.7
		c0.8,0.5,1.6,1,2.4,1.6l1.1,0.8l0.6,0.4l0.2,0.1l0.3,0.2c1.4,1.1,2.7,2.3,3.9,3.5c0.6,0.6,1.1,1.2,1.6,1.9l0,0
		c0.1,0.1,0.1,0.1,0.2,0.2l0.3,0.4l0.6,1l0.5,0.9l0.2,0.5l0.1,0.2l-0.1-0.2c0,0.1,0,0.1,0,0.2c0.1,0.3,0.2,0.6,0.3,0.9
		c0.1,0.2,0.2,0.5,0.2,0.7v0.1c0,0.2,0,0.4,0.1,0.5l0.1,1l0.4,2.5c0.3,1.4,0.5,2.8,0.9,4.2c0.6,2.8,1.4,5.5,1.9,8.3
		c0.6,2.7,1,5.4,1,8.1c0,1.5-0.1,2.9-0.2,4.4s0.1,3,0.1,4.6c0,3-0.2,6-0.6,8.9c-0.4,2.8-1,5.6-1.9,8.2c-1.9,5.4-4.3,11.2-2.5,17
		c0.8,2.7,2.7,4.9,4.4,7.2c1.7,2.2,3,4.2,3.9,6.5c0.4,1.1,0.7,2.2,0.9,3.3c0.1,0.5,0.2,1,0.2,1.5c0,0.6,0.1,1.2,0.1,1.8
		c0,1.1-0.1,2.2-0.3,3.3c-0.2,1.1-0.6,2.1-1,3c-0.3,0.7-0.7,1.3-1.2,1.9l-0.8-0.5l-0.2-0.2c-0.2-0.1-0.3-0.2-0.4-0.4
		c-0.3-0.3-0.5-0.5-0.8-0.9l-0.2-0.3l-0.3-0.4c-0.2-0.3-0.4-0.7-0.5-1c-0.1-0.3-0.2-0.5-0.3-0.8c-0.1-0.4-0.2-0.7-0.3-1.1
		c-0.1-0.4-0.1-0.5-0.1-0.7c0-0.3,0-0.9,0-1.4c0-0.5,0-1.8,0-2.6c0-1.8-0.1-3.6-0.4-5.3c-0.3-1.8-0.7-3.6-1.4-5.2
		c-0.7-1.7-1.9-3.1-2.8-4.7c-1.7-2.9-2.6-6.4-2.9-9.8c-0.8-7.9-1.7-16-3.8-23.7c-1-3.7-2.4-7.4-3.4-11.1c-1-3.7-1.7-7.6-2.8-11.3
		c-2.1-7.6-3-15.5-4.6-23.3c-0.2-1-0.4-1.9-0.6-2.9c-0.2-0.8-1.1-1.3-2-1.1c-0.8,0.2-1.3,1.1-1.1,2c1.8,7.8,2.8,15.7,4.5,23.6
		c0.4,2,1.1,3.9,1.6,5.9c0.5,2,0.8,3.8,1.3,5.7c0.9,3.8,2.3,7.5,3.4,11.3c0.8,2.8,1.5,5.5,2,8.3c-0.7,2.5-1.7,4.9-2.5,7.3
		c-0.9,2.5-1.5,5.1-1.8,7.7c-0.2,2.9,0.2,5.7,0.4,8.6c0.3,2.8,0.3,5.5,0.1,8.3c0,0.4-0.1,0.8-0.1,1.2c0,0.1,0,0.2,0,0.3l-0.1,0.6
		c-0.1,0.8-0.3,1.5-0.4,2.3c-0.4,1.5-0.8,3-1.3,4.5c-0.2,0.9,0.3,1.7,1.1,2c0.8,0.2,1.7-0.3,2-1.1c1.9-5.3,2.6-10.9,2.2-16.5
		c-0.2-2.8-0.6-5.7-0.6-8.6c0-0.7,0-1.4,0.1-2.1c0-0.1,0-0.2,0-0.2l0,0c0-0.2,0.1-0.3,0.1-0.4l0.2-1c0.3-1.2,0.6-2.4,1-3.6l0.8-2.3
		c0.4,2.8,0.7,5.7,1,8.5c0.2,2,0.4,3.9,0.9,5.8c0.4,1.8,1,3.6,1.7,5.3c0.8,1.7,1.9,3.2,2.8,4.8c0.8,1.5,1.4,3.2,1.7,4.9
		c0.3,1.6,0.4,3.3,0.5,4.9v2.7c0,0.8,0,1.7,0.1,2.5c0.4,3.4,2.2,6.4,5,8.3c0.7,0.5,1.4,0.9,2.2,1.2c0.5,0.1,1.2,0,1.6-0.4
		C242.7,152.9,243.8,147.6,243.1,142.4z M46.6,127.7c0.2-1.6,0.3-3.3,0.3-5c0.6,3.1,1.2,6.2,1.2,9.4c0,4-0.7,8-1.2,12l-0.8,6
		c-0.1,0.9-0.2,1.8-0.4,2.6c0,0.4-0.1,0.7-0.3,1l-0.2,0.4v0.1h0l-0.1,0.1l-0.2,0.1h-0.1c-2.6-3.5-2.3-7.9-1.4-12
		c0.5-2.4,1.3-4.8,1.9-7.3C45.9,132.6,46.3,130.2,46.6,127.7z M41.9,109.3c1.3,4.8,1.9,9.8,1.8,14.8c-0.2,5-1.3,9.8-2.6,14.7
		c-4.5-4.6-10.3-7.6-15.4-11.5l-0.3-0.2l-0.4-0.3l-1-0.9c-0.6-0.6-1.3-1.2-1.9-1.7c-0.6-0.6-1.2-1.3-1.8-2l-0.4-0.4v-0.1l-0.2-0.2
		l-0.8-1.1c-0.5-0.7-0.9-1.4-1.3-2.1c-0.2-0.4-0.3-0.7-0.5-1.1l0,0c0-0.1-0.1-0.2-0.1-0.3c-0.1-0.2-0.2-0.4-0.2-0.7
		c-0.3-0.7-0.4-1.5-0.6-2.3c0-0.1,0-0.2-0.1-0.3l0,0c0-0.2,0-0.4,0-0.5c0-0.2-0.1-0.8-0.1-1.2l0.1-1.2l0,0c0-0.1,0-0.2,0.1-0.3
		c0-0.3,0.1-0.5,0.2-0.8c0.1-0.4,0.2-0.8,0.3-1.2c0.1-0.2,0.2-0.4,0.2-0.6c0.1-0.1,0.1-0.2,0.1-0.3c0-0.1,0.1-0.1,0.1-0.2
		c0.4-0.8,0.8-1.6,1.3-2.4c0.2-0.4,0.5-0.8,0.8-1.2l0.4-0.5l0.2-0.2l0.1-0.1l0.1-0.1c2.3-2.9,4.9-5.7,6.1-9.2
		c0.6-1.8,0.9-3.7,1.1-5.6l0.3-2.8c0-0.2,0.1-0.4,0.1-0.6v-0.1c0-0.1,0-0.2,0-0.2c0.1-0.4,0.1-0.9,0.2-1.3c0.2-0.9,0.4-1.8,0.7-2.6
		c0-0.1,0.1-0.4,0.1-0.4c0-0.1,0.2-0.3,0.3-0.5l0.7-1.1l0.2-0.2l0,0l0.4-0.4l0.9-1c0.6-0.7,1.1-1.4,1.6-2.2c0.9-1.4,1.5-3.1,2.1-4.6
		l1.9-4.3c0,0.2-0.1,0.4-0.1,0.7c-1.6,9.6-1.2,19.4,1.2,28.8C38.9,99.7,40.6,104.4,41.9,109.3L41.9,109.3z M216.8,134.8L216.8,134.8
		C216.8,134.8,216.8,134.7,216.8,134.8z"/>
</g>
</svg>
