<?xml version="1.0" encoding="utf-8"?>
<!-- Generator: Adobe Illustrator 27.9.0, SVG Export Plug-In . SVG Version: 6.00 Build 0)  -->
<svg version="1.1" id="Layer_1" xmlns="http://www.w3.org/2000/svg" xmlns:xlink="http://www.w3.org/1999/xlink" x="0px" y="0px"
	 viewBox="0 0 253.7 168.1" style="enable-background:new 0 0 253.7 168.1;" xml:space="preserve">
<g>
	<path style="stroke:#000000;stroke-width:3;stroke-linecap:round;stroke-linejoin:round;stroke-miterlimit:10;" d="M241,71
		c-0.2-1.8-0.5-3.7-0.8-5.5c-0.3-1.8-0.9-3.8-1.4-5.7c-0.5-1.9-1-3.6-1.6-5.3c-0.7-1.9-1.5-3.7-2.5-5.5c-1.7-3.5-3.5-6.9-5.1-10.5
		c-1.6-3.5-3.3-6.9-4-10.6c-0.3-1.7-0.4-3.4,0-5.1c0.5-1.7,1.2-3.8,0.6-5.6s-1.5-2.8-3.2-3.2c-1.6-0.4-4.2-0.2-6.1,0.1
		c-6.8,1.2-13.2,3.9-18.6,8.1c-5.2,4-9.4,9-13.2,14.2c-1,1.3-1.8,2.6-3,3.7c-1.2,1.1-2.5,2.2-3.9,3.1c-1.4,0.9-2.8,1.8-4.2,2.8
		c-1.4,1.1-2.7,2.4-3.7,3.9c-0.7,1.1-1.2,2.2-1.4,3.4l-2-0.7c-3.9-1.2-8.1-1.4-12.1-1.6c-2.2,0-4.5-0.1-6.7,0
		c-2.2,0.1-4.7,0.3-6.9,1.1h-0.1c-3.1-1.1-6.2-1.8-9.5-2.2c-6.2-0.8-12.8-0.3-18.7,1.9c-3.7-1.3-7.8-1.2-11.7-1.2
		c-3.9,0-8.3,0.1-12.4,1c-1.1,0.3-2.2,0.6-3.3,1c-0.6-2.8-2.3-5.1-4.6-7s-5.4-3.6-7.7-6c-2.3-2.3-4.3-5.7-6.4-8.6
		c-2.1-2.9-4.6-5.4-7.2-7.8c-5.1-4.7-11.2-8.7-18.1-10.2c-1.7-0.4-3.5-0.6-5.2-0.7c-0.9,0-1.7,0-2.6,0c-0.9,0.1-2,0.1-2.8,0.5
		c-1.6,0.7-2.1,2.5-2.2,4.1c0,0.9,0.2,1.8,0.4,2.7c0.2,1,0.3,2,0.3,3c0,2.1-0.3,4.3-1,6.3c-0.6,2.1-1.3,4.1-2.2,6.1
		c-1.7,3.7-4,7.1-5.8,10.8c-1.8,3.7-3.4,8.1-4.7,12.3c-1.3,4.2-2.2,8.5-2.8,12.9c-1.1,8.3-0.7,16.7,0.7,25c1.2,7.4,3.7,14.7,8,20.9
		c0.7,0.9,1.2,1.7,2.3,2.2c1.1,0.4,1.6,0.1,2.3,0.5c0.7,0.3,0.8,0.8,0.9,1.4c0.2,0.8,0.3,1.6,0.3,2.4c0,3.3-0.2,6.7,0.4,10
		c0.6,3.3,2.2,6.4,4.9,8.6c2.7,2.2,5.9,3.3,6.1,6.7c0.2,1.9-0.2,3.8-0.4,5.7c-0.1,0.8,0.8,1.6,1.6,1.6c0.7,0,1.5-0.7,1.6-1.6
		c0.4-3.8,1.1-7.8-1.7-10.9c-2.2-2.3-5.4-3.4-7.2-6.1c-1.8-2.7-2-5.6-2.1-8.6c0-1.6,0-3.2,0-4.8c0-1.6-0.1-3.5-0.8-5.1
		c-0.4-0.8-1.1-1.5-1.9-2c-0.8-0.4-1.7-0.5-2.6-0.6c0,0-0.5-0.1-0.3-0.1l-0.1-0.1c0,0,0-0.1-0.1-0.1c-0.1-0.1-0.6-0.8-0.8-1.2
		c-0.3-0.4-1-1.6-1.5-2.5c-1.8-3.1-3.2-6.4-4.2-9.9c-0.9-3.4-1.6-6.9-2.1-10.5c-0.5-4-0.7-8.1-0.7-12.1c0.1-8.5,1.7-16.7,4.6-24.7
		c1.4-3.9,3.1-7.7,5.1-11.4c1-1.8,2.1-3.6,3-5.4c0.9-1.9,1.7-3.8,2.4-5.7c1.4-4,2.4-8.2,1.8-12.4c-0.1-0.5-0.2-1.1-0.3-1.6
		c-0.1-0.3-0.2-0.7-0.2-1.1c0-0.3,0-0.5,0-0.8l0.1-0.3c0-0.2,0.1-0.3,0.2-0.4c0.1-0.1,0.2-0.3,0.1-0.2l0.1-0.1h0.1
		c-0.3,0.1,0.4,0,0.5,0c0.9-0.1,1.7-0.1,2.6-0.1c3.3,0,6.5,0.7,9.6,1.9c0.1,0.2,0.2,0.3,0.3,0.4c1,0.9,1.9,1.8,2.8,2.8
		c0.5,0.5,0.9,1,1.3,1.6l0.7,0.8c0.1,0.1,0.2,0.2,0.2,0.3c0.1,0.1,0.2,0.2,0.2,0.3c1.8,2.3,3.3,4.8,4.7,7.4c0.3,0.7,0.6,1.3,0.9,2
		c0.1,0.1,0.1,0.2,0.2,0.3c0,0,0,0.1,0.1,0.1l0.1,0.2c0.1,0.3,0.2,0.7,0.4,1c0.5,1.3,0.9,2.7,1.2,4.1c0.2,0.7,0.3,1.3,0.4,2l0.1,0.5
		v0.1c0.1,0.3,0.1,0.7,0.1,1c0.1,1.3,0.1,2.6,0,3.9c0,0,0,0.1,0,0.2c0-0.1,0-0.2,0,0v0c0,0.1-0.1,0.2-0.1,0.3
		c-0.1,0.3-0.1,0.6-0.2,0.9c-0.1,0.3-0.2,0.6-0.3,0.9s-0.1,0.2-0.1,0.4L58,49.4c-0.5,1.1-1.1,2.2-1.8,3.3c-1.4,2.2-3,4.2-4.3,6.3
		c-1.3,2.2-2.5,4.7-2.7,7.3c-0.1,1.7,0,3.4-0.1,5c0,0.2,0,0.4-0.1,0.7v0.1c0,0.1,0,0.2,0,0.2l-0.3,1.3c-0.1,0.3-0.2,0.6-0.3,0.9
		c0,0.1-0.1,0.2-0.1,0.3c0,0,0,0,0,0.1l0,0c0,0,0,0.1,0,0.1c-0.1,0.1-0.1,0.1-0.1,0.2c-2.2,4.8-6.6,8.7-7.3,14.2
		c-0.1,0.4-0.1,0.9-0.1,1.3l-2,2c-0.1,0.1-0.2,0.2-0.3,0.3c-0.2-0.2-0.5-0.3-0.8-0.3L37,92.7c0.2,0-0.3-0.1-0.4-0.1l-1.3-0.2
		c-0.8-0.2-1.7-0.3-2.5-0.6l-1.2-0.4h-0.1l-0.2-0.1l-0.7-0.3c-0.3-0.2-0.7-0.4-1-0.6L29.2,90l-0.3-0.2c-0.6-0.5-1.1-1-1.6-1.6h0
		L27.2,88l-0.2-0.4c-0.2-0.3-0.4-0.7-0.6-1l-0.5-1c0-0.1-0.1-0.2-0.1-0.2l-0.2-0.6c-0.2-0.7-0.5-1.5-0.6-2.2
		c-0.1-0.4-0.2-0.7-0.2-1.1v-0.1c0,0,0-0.1,0-0.1c0-0.3,0-0.6-0.1-0.8c-0.1-0.9-0.1-1.9,0-2.8c0-0.5,0-0.9,0.1-1.4
		c0-0.2,0-0.4,0.1-0.7c0-0.1,0-0.2,0-0.4s0-0.2,0-0.2c0.1-0.9,0.3-1.9,0.5-2.8c0.7-3.5,1.5-7,2.6-10.4c0.3-0.9,0.6-1.8,0.9-2.6
		l0.3-0.7c0,0,0.1-0.1,0.1-0.2l0.1-0.3c0.2-0.4,0.4-0.8,0.6-1.2c0.4-0.8,0.8-1.7,1.3-2.5c0.2-0.4,0.5-0.8,0.8-1.2l0.4-0.6l0.2-0.2
		l0.1-0.2c0.3-0.3,0.4-0.7,0.5-1.1c0-0.5-0.2-0.9-0.5-1.2c-0.6-0.5-1.7-0.7-2.2,0c-4.6,5.9-6.5,13.3-8.1,20.4
		c-0.8,4.1-1.4,8.2-0.7,12.3c0.5,3.3,2,6.6,4.4,8.9c2.7,2.6,6.2,3.7,9.8,4.2c-1.8,2-3.4,4.2-4.3,6.6c-0.7,1.9-1,3.9-1.2,5.9
		c-0.2,2-0.2,4.1-0.2,6.2c0.1,4.7,0.6,9.5,1.7,14.1c0.1,0.8,0.9,1.4,1.8,1.3s1.4-0.9,1.3-1.8c0-0.1,0-0.2-0.1-0.3
		c-0.2-1-0.4-2-0.6-3c-0.1-0.5-0.2-0.9-0.2-1.4l-0.1-0.7c0-0.1-0.1-0.2-0.1-0.3c0,0,0-0.2,0-0.3c-0.2-2-0.4-4-0.5-6
		c-0.1-2,0-4.1,0.1-6.1c0.1-0.9,0.1-1.8,0.2-2.8c0-0.1,0-0.1,0-0.2c0-0.1,0-0.2,0-0.3s0.1-0.5,0.1-0.7c0.1-0.5,0.2-1,0.3-1.4
		c0.1-0.4,0.2-0.8,0.4-1.2c0.1-0.1,0.1-0.3,0.2-0.4l0.4-0.7c0.4-0.8,0.9-1.6,1.5-2.3h0.1l0.2-0.3l0.4-0.5l0.9-1
		c0.6-0.7,1.3-1.4,1.9-2.1c2.6-2.8,5.3-5.4,8.2-7.8l2.4-1.9l0.3-0.2l0.2-0.2l0.6-0.5l1.2-0.9c1.7-1.2,3.5-2.5,5.3-3.6
		c0.7-0.5,1-1.4,0.6-2.2s-1.4-1-2.2-0.6c-4.2,2.7-8.2,5.7-12,9.1l0.1-0.1c0.1-0.2,0.2-0.3,0.2-0.5s0.6-1.1,0.9-1.7
		c1.4-2.3,3-4.4,4.3-6.8c0.7-1.2,1.2-2.6,1.6-4c0.4-1.8,0.4-3.7,0.5-5.5c0-0.8,0-1.5,0.1-2.3c0,0,0.1-0.3,0-0.1v-0.1l0.1-0.4
		l0.2-0.9l0.3-0.9l0.2-0.4c0,0,0,0,0-0.1c0,0,0-0.1,0.1-0.1c0.2-0.6,0.5-1.1,0.8-1.7c2.5-4.4,6.5-8.3,7.6-13.4
		c0.6-2.7,0.4-5.6-0.1-8.4c-0.6-2.9-1.4-5.7-2.7-8.4c-1.4-3.3-3.2-6.4-5.4-9.2l0.2,0.2c2.7,2,5.1,4.3,7.4,6.8
		c1.2,1.2,2.3,2.4,3.3,3.8c1,1.4,2,3,3,4.4c2.1,3,4.5,5.6,7.5,7.7c2.3,1.6,5,3.2,6.5,5.4c0.7,1,1.2,2.2,1.4,3.5
		c-4.4,2.1-8.3,5.1-11.8,8.5c-2.8,2.7-5.4,5.6-8,8.6c-0.6,0.6-0.7,1.6,0,2.2c0.7,0.6,1.6,0.7,2.2,0c2.3-2.6,4.6-5.1,7-7.5
		c1.2-1.2,2.4-2.3,3.7-3.5l1-0.8l0.4-0.4l0.2-0.2h0.1l2-1.5c1.4-0.9,2.8-1.8,4.3-2.5l1.1-0.5l0.3-0.2l0.7-0.2
		c0.8-0.3,1.6-0.6,2.4-0.8c0.9-0.2,1.9-0.5,2.9-0.7l1.4-0.2H93l0.8-0.1c2-0.2,4-0.2,5.9-0.3c2,0,4.4-0.1,6.6,0.1
		c0.6,0,1.1,0.1,1.7,0.1l0.7,0.1c-1.7,1-3.3,2.2-4.7,3.7c-0.6,0.6-0.6,1.7,0,2.2c0.6,0.6,1.6,0.6,2.2,0c0.5-0.5,1.1-1,1.6-1.5
		l0.4-0.3l0.1-0.1h0.1l0.9-0.7c1.2-0.8,2.5-1.5,3.9-2.1l0.2-0.1h0l0.5-0.2l1.1-0.4l2.1-0.7c0.8-0.2,1.5-0.4,2.3-0.5l1.1-0.2l0.5-0.1
		h0.3c3.1-0.4,6.2-0.4,9.3-0.1l1.1,0.1h0.2l0.6,0.1c0.7,0.1,1.5,0.2,2.2,0.4c1.4,0.3,2.9,0.7,4.3,1.1c0.8,0.2,1.5,0.5,2.2,0.8
		l0.3,0.2h0.2l0.4,0.2l1.4,0.7c0.9,0.5,1.8,1.1,2.7,1.7h0l0.3,0.2l0.6,0.5c0.4,0.4,0.8,0.7,1.2,1.2c0.6,0.6,1.6,0.6,2.2,0
		c0.6-0.6,0.6-1.6,0-2.2c-1.4-1.4-3-2.7-4.7-3.7h0.2l1.6-0.1c1.9-0.1,3.8-0.1,5.8,0c1.9,0,4,0.1,6,0.3l1.3,0.1l0.7,0.1h0.2l0.4,0.1
		c1,0.2,1.9,0.3,2.9,0.6c1,0.2,1.7,0.5,2.6,0.8l1.2,0.4l0.3,0.1h0c0.2,0.1,0.4,0.2,0.6,0.3c1.5,0.7,3,1.5,4.4,2.4l2,1.4l0.5,0.4h0
		l0.2,0.2l1,0.8c1.3,1.1,2.6,2.2,3.8,3.4c2.7,2.7,5.2,5.6,7.7,8.5c0.6,0.6,1.6,0.6,2.2,0c0.6-0.6,0.6-1.6,0-2.2
		c-4.6-5.3-9.3-10.6-15-14.6c-1.4-1-3-1.9-4.6-2.7c0.3-3.2,3-5.5,5.5-7.1c2.5-1.7,5.9-3.8,8.2-6.5c1.2-1.3,2.1-2.9,3.2-4.3
		c1.1-1.4,1.9-2.5,3-3.8c2.1-2.5,4.3-4.8,6.7-6.9c0.9-0.7,1.7-1.4,2.7-2.1c-1.6,2.1-2.9,4.3-4.2,6.6c-2.6,5-4.6,10.8-4.2,16.5
		c0.1,1.3,0.3,2.6,0.8,3.8c0.5,1.3,1.1,2.5,1.8,3.7c1.3,2.2,2.9,4.3,4.3,6.5c0.3,0.5,0.7,1.1,1,1.7l0.4,0.7c0.1,0.1,0.2,0.2,0.2,0.4
		l0.1,0.2c0,0,0,0.1,0.1,0.1c0,0,0,0,0,0.1l0.1,0.2l0.2,0.4c0.1,0.3,0.2,0.6,0.2,0.9s0.2,0.6,0.2,0.9v0.2c0,0,0,0,0,0.1
		c0,0,0,0.1,0,0.1v0.2c0.2,1.7,0,3.3,0.1,5c0.1,1.6,0.4,3.2,1,4.7c1,2.6,2.6,4.9,4.1,7.2c0.7,1.1,1.4,2.3,2,3.5l0.2,0.4
		c0,0,0,0.1,0,0.1l-1.4-1.2c-3.3-2.9-6.8-5.6-10.5-8c-0.7-0.4-1.7-0.2-2.1,0.6c-0.4,0.7-0.2,1.7,0.6,2.2c1.6,1,3.1,2.1,4.7,3.2
		l1,0.8l0.2,0.1l0.2,0.2l0.6,0.5c0.7,0.6,1.5,1.2,2.2,1.7c2.9,2.4,5.6,5,8.2,7.7c1.3,1.4,2.6,2.7,3.7,4.2l0.4,0.5h0l0.2,0.3l0.8,1.1
		l0.3,0.6c0,0.1,0,0.2,0,0.3c0,0.6,0.3,1.1,0.8,1.4c0.3,0.9,0.5,1.8,0.7,2.7l0.1,0.7v0.1c0,0.1,0,0.1,0,0.1v0.2
		c0.1,0.5,0.1,1,0.2,1.5c0.2,2,0.2,4.1,0.1,6.1c0,2.2-0.2,4.5-0.5,6.7v0.1c0,0.2,0,0.3-0.1,0.5c0,0.2-0.1,0.5-0.1,0.8
		s-0.2,1.1-0.3,1.7c-0.2,1.1-0.4,2.2-0.7,3.4c-0.3,1.1,0.2,1.7,1.1,1.9c0.8,0.2,1.7-0.3,1.9-1.1c1-4.1,1.6-8.3,1.8-12.6
		c0.1-2.1,0.1-4.2,0-6.3c0-2-0.3-4-0.7-6c-0.1-0.2-0.1-0.5-0.2-0.7c2.9-0.5,5.7-1.3,8.1-3.2c2.4-1.9,4.4-5.2,5.2-8.5
		c1-3.9,0.7-8,0-11.9c-0.6-3.7-1.5-7.3-2.6-10.9c-1.2-3.9-2.8-7.7-5.3-11c-0.5-0.7-1.4-1.1-2.1-0.6c-0.7,0.5-1.1,1.4-0.6,2.1
		c1,1.4,1.9,2.8,2.7,4.4c0.2,0.3,0.3,0.7,0.5,1.1s0.2,0.3,0.2,0.5l0.1,0.2l0.1,0.3c0.3,0.8,0.6,1.6,0.9,2.4
		c1.1,3.3,1.9,6.7,2.6,10.1c0.2,1,0.3,1.9,0.5,2.8c0,0.2,0.1,0.5,0.1,0.7v0.1c0,0.1,0,0.2,0,0.2c0.1,0.5,0.1,1,0.2,1.5
		c0.1,1,0.1,2,0.1,2.9c0,0.5,0,0.9-0.1,1.4c0,0.2,0,0.4-0.1,0.6v0.2c0,0.1,0,0.2-0.1,0.2c-0.1,0.7-0.3,1.5-0.5,2.2
		c-0.1,0.3-0.2,0.7-0.3,1c-0.1,0.2-0.1,0.4-0.2,0.6V94l-0.1,0.2c-0.3,0.7-0.7,1.3-1.1,2l-0.3,0.5l-0.1,0.1l-0.1,0.1
		c-0.2,0.3-0.5,0.6-0.8,0.9c-0.3,0.3-0.6,0.6-0.9,0.8l-0.3,0.2l-0.6,0.4c-0.4,0.2-0.8,0.5-1.3,0.7l-0.2,0.1l-0.1,0.1l-0.7,0.2
		c-0.9,0.3-1.8,0.5-2.7,0.7l-1.4,0.2c-0.3-0.6-0.7-1.2-1.1-1.8c-1.2-1.6-2.5-3.1-3.9-4.6c-0.9-1.1-1.9-2.1-2.9-3.1
		c0.1-5.3-3.9-9.6-6.3-13.9c-0.3-0.6-0.6-1.2-0.9-1.7h0v-0.1c0,0,0,0,0-0.1l-0.2-0.5c-0.1-0.3-0.2-0.6-0.3-0.9
		c-0.1-0.4-0.2-0.7-0.2-1.2v-0.1c0-0.1,0-0.2,0-0.2c0-0.2,0-0.5-0.1-0.7c0-0.9,0-1.7,0-2.7c0.1-1.5,0-3-0.3-4.4
		c-0.3-1.2-0.8-2.5-1.4-3.6c-1.2-2.3-2.7-4.4-4.2-6.5c-0.7-1.1-1.4-2.1-2-3.2c-0.2-0.3-0.3-0.5-0.4-0.8l-0.2-0.4l-0.1-0.2
		c-0.2-0.6-0.4-1.1-0.6-1.7c-0.1-0.3-0.2-0.6-0.2-0.8c0,0,0-0.1,0-0.2c0,0,0-0.1,0-0.1v-0.1c0-0.1,0-0.2,0-0.2
		c-0.1-0.7-0.1-1.3-0.1-2c0-0.6,0-1.2,0.1-1.9c0-0.2,0-0.3,0.1-0.5v-0.2l0.2-1c0.2-1.3,0.6-2.7,1-4c0.2-0.7,0.5-1.4,0.7-2.1l0.2-0.4
		c0-0.1,0.2-0.5,0.1-0.2c0.1-0.4,0.3-0.7,0.5-1.1c1.2-2.6,2.7-5.1,4.3-7.5l0.6-0.8l0.3-0.5l0.2-0.2h0l1.3-1.6c0.9-1,1.8-2,2.8-3
		l1.2-1.2c2.2-0.8,4.4-1.5,6.7-2c1.8-0.4,3.7-0.6,5.6-0.4c0.3,0,0.5,0.1,0.8,0.2c0,0,0.1,0,0.1,0.1l0.1,0.1l0.1,0.1
		c0.3,0.6,0.5,1.3,0.3,1.9c-0.2,0.8-0.4,1.6-0.6,2.4c-0.3,1-0.4,2-0.4,3.1c0,2,0.2,4,0.8,5.9c1,3.8,2.9,7.5,4.6,11.1
		c1.7,3.6,3.5,7.1,5.2,10.7c1.7,3.6,2.6,7.2,3.6,10.9c0.3,0.9,0.5,1.8,0.7,2.7l0.5,3.1c0.2,1.8,0.5,3.7,0.7,5.5c0.4,4,0.6,8,0.3,12
		c-0.2,3.7-0.7,7.5-1.5,11.1c-0.7,3.6-1.7,7.1-3,10.5c-0.7,1.7-1.4,3.3-2.3,4.9c-0.7,1.4-1.5,2.9-2.6,4.1c-0.4,0.5-0.9,0.8-1.5,1
		c-0.9,0.2-1.7,0.2-2.6,0.7c-1.4,0.9-1.9,2.9-2.1,4.4c-0.3,4-0.1,8-0.8,11.9c-0.6,3-2.8,5.4-5.5,6.6c-1.4,0.7-3.7,1.6-3.8,3.4
		c-0.1,1.2-0.6,2.3-1.4,3.1c-0.9,0.9-2.1,1.5-3.3,1.9c-1.9,0.6-1.1,3.6,0.8,3c3.5-1.1,6.6-3.6,7-7.3c0.9-0.8,2.2-1.2,3.3-1.8
		c1.4-0.8,2.6-1.8,3.5-3.1c1.1-1.3,1.9-2.9,2.4-4.7c0.4-2,0.6-3.9,0.7-5.9c0.1-2,0.1-4,0.2-6c0-0.7,0.2-1.4,0.3-2.1
		c0-0.2,0.1-0.4,0.2-0.6c0,0,0.1-0.1,0.1-0.1c0.2-0.1,0.3-0.1,0.5-0.2c0.8-0.2,1.5-0.2,2.3-0.6c0.8-0.4,1.5-0.9,2.1-1.6
		c1.1-1.2,1.9-2.7,2.7-4.2c3.5-6.4,5.5-13.5,6.5-20.6c0.6-3.9,1-7.8,1.1-11.7C242,78.8,241.6,74.9,241,71z M201.4,64.3
		C201.4,64.2,201.4,64.2,201.4,64.3C201.4,64.2,201.4,64.2,201.4,64.3z M222.7,17.1C222.7,17.1,222.6,17,222.7,17.1L222.7,17.1z"/>
</g>
</svg>
