<?xml version="1.0" encoding="utf-8"?>
<!-- Generator: Adobe Illustrator 27.9.0, SVG Export Plug-In . SVG Version: 6.00 Build 0)  -->
<svg version="1.1" id="Layer_1" xmlns="http://www.w3.org/2000/svg" xmlns:xlink="http://www.w3.org/1999/xlink" x="0px" y="0px"
	 viewBox="0 0 320.7 181.6" style="enable-background:new 0 0 320.7 181.6;" xml:space="preserve">
<g>
	<path style="stroke:#000000;stroke-width:3;stroke-linecap:round;stroke-linejoin:round;stroke-miterlimit:10;" d="M306.4,71
		c-2.5-6.1-8.3-9.6-13.9-12.4c-3.1-1.6-6.3-3.1-9.1-5.3s-5.3-4.6-8.1-6.7c-5.6-4.3-12.5-6.2-19-8.6c-3.3-1.2-6.5-2.7-9.5-4.5
		c-3.1-1.8-6-3.9-9.1-5.6c-6.2-3.5-13-5.5-20-3.3c-1.9,0.6-3.6,0.9-5.7,0.7c-2.1-0.2-4.1-0.6-6.2-0.9l-11.6-1.9
		c-7.7-1.3-15.5-2.6-23.2-3.6c-7.7-1.1-15.2-2.1-22.9-1.8s-14.8,1.6-22,3.5c-3.6,1-7.1,2.1-10.6,3.4c-1.7,0.6-3.3,1.2-4.9,1.9
		s-3.4,1.7-5.1,1.9c-1.7,0.2-2.4-1.3-3.5-2.2c-1.2-0.9-2.5-1.4-4-1.7c-3-0.5-6.1,0.3-8.9,1.4c-6.4,2.5-12.6,5.8-18.7,8.9
		s-12.5,6.4-18.6,10s-11.9,7.5-17.4,11.9c-5.4,4.2-11.1,8.8-14.6,14.8c-7.3,12.3-2,27.2,5.6,37.9c8,11.3,19.5,20.9,24.3,34.3
		c1.3,3.5,1.9,7.2,2.7,10.9c0.7,3.6,1.3,6.7,3,9.5c1.7,2.9,4.2,4.4,7.4,4.2c3.1-0.2,6.1-2,8.6-4c9.5-7.7,14.4-19.7,16.5-31.5
		c3.5-19.9-1.4-41.6,1.8-61.6c0.1-0.2,0.1-0.3,0.2-0.5c1.7-12,13-19.5,19.3-29.1c0.6-1,1.9-2.4,1.6-3.6c-0.3-1.2-1.9-2-3.2-1.8
		c-2.8,0.3-5.2,3-7.1,4.9c-4.4,4.4-7.5,9.8-9.9,15.5c-1.4,3.5-2.5,7.2-3.2,10.9c-0.2,0.8-0.4,1.6-0.5,2.5c0,0.1,0,0.1,0,0.2
		c-4,23.6,3.3,48.7-4.4,71.9c-1.9,5.8-4.8,11.4-8.9,16c-3.6,4-11.6,11.4-15.6,4c-1.7-3.1-2.1-6.9-2.8-10.4c-0.7-3.4-1.6-7.5-3.1-11
		c-2.8-6.7-7.2-12.5-11.8-18c-9-10.9-20.2-22.1-20.6-37.1c-0.1-3.5,0.5-7,1.9-10.2c1.4-3.2,3.9-6.1,6.5-8.6
		c5.2-5.1,11.1-9.6,17.2-13.7C56.9,44,70,37.5,83.1,31.3c4.9-2.3,12.9-7.4,17.8-2.5c1.2,1.1,2.3,2,4,2s3.4-0.8,5-1.5
		c3.6-1.5,7.2-2.8,10.9-4c7.4-2.4,15.1-4.2,22.9-4.9c7.8-0.7,15.6,0,23.4,1s16.2,2.3,24.2,3.7l12.1,2l6,0.9c2,0.3,3.9,0.7,5.9,0.4
		s3.5-1,5.2-1.4c1.9-0.4,3.9-0.4,5.8-0.1c3.7,0.5,7.1,2.1,10.3,3.9s6.3,4,9.6,5.9c3.1,1.8,6.4,3.3,9.8,4.5
		c6.7,2.5,13.4,4.5,19.1,9.1c2.8,2.3,5.5,4.8,8.5,6.9s6.5,3.5,9.7,5.3c3.2,1.7,5.8,3.5,8,6c2.2,2.6,3.3,6,3.1,9.6
		c-0.5,7.7-2.6,15.2-5.9,22.1c-5.8,11.9-15.7,21.2-22.6,32.6c-1.7,2.9-3.2,5.9-4.4,8.9c-1.3,3.4-2.3,7-3.8,10.3
		c-2.5,5.3-8.7,12-15.1,8.6c-2.7-1.5-4.5-4.3-5.8-7c-1.5-3.2-2.7-6.5-3.7-9.9c-2.1-6.7-3.4-13.6-4.2-20.5
		c-1.8-14.4-1.8-28.9-3.3-43.3l-0.3-2.7c0.1-0.3,0.1-0.7,0-1l-0.2-0.5c-0.7-5.7-1.7-11.4-3.1-17c-1.7-6.6-3.8-13.6-7.8-19.2
		s-9.7-9.3-16.3-8.6c-1,0.1-1.8,0.9-1.5,2c1.9,8.2,8.9,14.1,13.6,20.7c5,7.1,9.1,14.8,12.1,22.9c1.1,9.6,1.5,19.3,2.1,29
		c0.8,13.6,2,27.3,6.3,40.4c1.9,5.7,4.1,12.7,9.2,16.5c5.1,3.8,11.7,2,16-2.1c5-4.6,6.5-11.6,8.9-17.8c2.4-6.1,6.1-11.6,10-16.8
		c3.9-5.2,8-10,11.6-15.3s6.8-11.6,8.7-18.1c1.1-3.6,1.8-7.2,2.3-10.9C307.5,77.8,307.7,74.3,306.4,71z M96.7,49.8
		c1.5-2.4,3.2-4.7,5.1-6.8c1-1,2-2,3.1-2.9c0.5-0.4,0.9-0.8,1.4-1.2c-3.1,4.8-7.3,9-11.1,13.4C95.7,51.5,96.2,50.7,96.7,49.8z
		 M223,52.9c-2.4-3.5-5.1-6.7-7.8-10c-2.2-2.7-4.3-5.6-5.5-8.8c6.1,0.4,10.9,5.2,13.7,10.5c3.1,6,5,12.8,6.4,19.3
		c0,0.2,0.1,0.4,0.1,0.6C227.9,60.4,225.6,56.6,223,52.9L223,52.9z"/>
</g>
</svg>
