<?xml version="1.0" encoding="utf-8"?>
<!-- Generator: Adobe Illustrator 27.9.0, SVG Export Plug-In . SVG Version: 6.00 Build 0)  -->
<svg version="1.1" id="Layer_1" xmlns="http://www.w3.org/2000/svg" xmlns:xlink="http://www.w3.org/1999/xlink" x="0px" y="0px"
	 viewBox="0 0 237.1 230" style="enable-background:new 0 0 237.1 230;" xml:space="preserve">
<g>
	<path style="stroke:#000000;stroke-width:3;stroke-linecap:round;stroke-linejoin:round;stroke-miterlimit:10;" d="M221.2,174.9
		c-0.1-2-0.3-3.9-0.6-5.8c-0.7-3.8-2-7.5-3.7-10.9c-0.8-1.7-1.8-3.3-2.8-4.8c-0.1-0.2-0.2-0.3-0.2-0.4c0.2-0.1,0.5-0.4,0.7-0.5
		c0.7-0.6,1.2-1.5,1.2-2.5c0-0.9-0.2-1.8-0.3-2.7c-0.1-0.9,0-2.1,0-3.1c0-2.1,0-4.1-0.4-6.2c-0.7-3.7-2.6-7.1-3.4-10.8
		c-0.1-0.6-0.3-1.3,0-2c0.3-0.6,1-1.7,1.3-2.6c0.7-1.9,0.6-3.7,0.4-5.7c-0.6-4-1.3-8-2.2-12c-1.9-8.2-4.6-16.2-8-23.9
		c0.8-0.4,1.4-0.9,2-1.6c1.3-1.6,1.4-3.7,0.9-5.6c-0.3-1-0.6-1.9-1.1-2.8c-0.4-0.8-0.7-1.7-0.9-2.5c-0.5-1.6-1-3.1-1.6-4.7
		c-2.3-6.2-5.7-11.9-10.5-16.5c-1.4-1.3-2.8-2.5-4.4-3.6c-0.6-0.4-1.2-0.8-1.9-1.2c0.9-0.6,0.9-2.2-0.1-2.8
		c-4.2-2.4-8.9-3.5-13.5-4.6c-2.1-0.4-4.1-1.1-6.1-1.7c-1.4-0.5-2.9-1.2-3.8-2.4c-0.5-0.6-0.9-1.4-1.3-2c-0.7-1-1.5-1.9-2.4-2.8
		c-1.6-1.5-3.4-2.7-5.4-3.8c-4.1-2.1-8.5-3.4-13-4.4c-2.7-0.6-5.4-0.9-8.1-0.6c-2.9,0.3-5.5,1-8.2,1.9c-2.7,0.9-4.7,0.7-7.2,0.2
		c-2.5-0.4-5.5-1.3-8.3-1.8s-5.5-0.6-8.3,0c-2.4,0.5-4.8,1.4-7,2.6c-4.3,2.3-8.1,5.4-12.4,7.7c-4.2,2.3-9.7,3.5-14.7,4.8
		c-5,1.3-9.9,3.1-13.3,7c-0.8,0.9-0.4,2.9,1.1,2.7h0.2c-4.1,4.4-8,9-11.5,13.9c-2,2.8-3.9,5.7-5.7,8.7c-0.9,1.5-1.7,3-2.6,4.5
		c-0.8,1.5-1.6,3.1-1.9,4.8c-0.4,2.7,0.8,5.5,3.1,6.5c-6.1,13.7-9.8,28.4-11.1,43.4c-0.1,1.4,1.8,2.1,2.7,1.2c0,0.1,0,0.3,0,0.4
		c0,1.1-0.4,2.2-0.5,3.2c-0.4,2.4-0.8,4.8-1.3,7.2l-2.5,14.2c-0.1,0.6,0.1,1.5,0.7,1.8l1.3,0.6c-3.7,5.3-6.1,11.4-7,17.8
		c-0.3,1.8-0.4,3.6-0.4,5.4c0,1.6,0.1,3.4,0.9,4.8c0.9,1.7,2.8,2.7,4.7,2.5c0.6,4.1,1.3,8.3,2.3,12.4c0.5,2.4,1.2,4.8,1.8,7.1
		c0.6,2,1,4.8,2.7,6.3c1.7,1.5,3.9,0.4,4.7-1.6c0.2-0.6,0.3-1.3,0.7-1.9c0.4-0.5,1-0.9,1.6-1.1c1.5-0.5,3.2-0.6,4.8-0.4
		c2.4,0.1,4.8,0.4,7.2,0.3c4.4-0.2,9.2-1.9,11.4-6c6.7-1.6,12.7-5.7,16.6-11.4c4.4-6.4,5.8-14.6,4.1-22.1c-0.7-3.1-2.3-5.9-3.4-8.9
		l0.9,0.5c0.8,0.5,1.7,0.1,2.2-0.6c4.4-6,2.9-14,0-20.3c-0.7-1.6-1.8-3.1-2.5-4.7c-0.1-0.4-0.5-1.2-0.3-1.5c0.2-0.4,0.2-0.1,0.3-0.2
		c0.1,0,1-0.4,1.4-0.8c2.9-2.8-1.6-7.1-3.4-9.1c-1.8-2-4.4-4.8-4.7-8.2s0.9-6.8,1.3-10.2c0.2-1.6,0.2-3.3-0.1-4.9
		C72,94.1,71,92.8,70,91.2s-0.6-3.8-0.4-5.6s0.5-4.1,0.8-6.2c1.6-9.3,4.4-18.4,8.4-26.9c0.4-0.8,0.1-1.8-0.7-2.2
		C77.7,50,77,50,76.5,50.4c-0.1-0.1-0.3-0.2-0.4-0.4c-0.1-0.2,0.1-0.7,0.3-1c0.7-1.1,1.9-1.9,2.9-2.6c6.9-5,15.5-7.1,24-5.7
		c0.8,0.1,1.7-0.2,2-1.1s-0.3-1.8-1.1-2c-8.7-1.5-17.7,0.4-25.1,5.1c-2.2,1.4-5.3,3.3-6,6.1c-0.4,1.7,0.4,3.6,1.9,4.4
		c-3.1,6.9-5.4,14.2-7,21.6c-0.9,4.2-1.5,8.4-1.8,12.7c-0.2,2.1,0,3.9,1.2,5.7c1.2,1.8,1.8,2.6,2,4.2c0.4,3.3-0.7,6.6-1.1,9.8
		c-0.4,3.2-0.2,7,1.8,10.1c2,3.1,4.7,5,6.5,8c0.2,0.3,0.3,0.6,0.4,1l-0.2,0.1c-0.9,0.3-1.6,0.9-2.1,1.7c-0.8,1.6-0.2,3.4,0.5,4.8
		c0.7,1.5,1.9,3.3,2.6,5.1c0.8,1.8,1.4,3.8,1.7,5.7c0.6,3.2,0.4,6.5-1.2,9.3l-3.1-1.8c-1.3-0.8-2.6,0.5-2.4,1.8
		c0.7,3.9,3.1,7.4,4.2,11.1c1.1,3.6,1.3,7.4,0.7,11.1c-1.1,7-5.2,13.2-11.3,17c-1.4,0.9-2.9,1.6-4.5,2.2l-2.3,0.7
		c-1,0.3-1.9,0.3-2.4,1.3c-1.7,3.1-5,4.4-8.4,4.7c-3.4,0.2-7.6-0.7-11.3-0.1c-2.8,0.4-5.7,2-6.3,5l-0.1-0.2
		c-0.5-1.1-0.7-2.4-1.1-3.6c-0.7-2.3-1.3-4.6-1.8-6.9c-1.1-4.8-2-9.7-2.7-14.6c-0.2-1.5-2.1-2.2-3-0.8c-0.3,0.4-1.2,0-1.4-0.3
		c-0.8-0.8-0.8-2.3-0.8-3.4c0-2.8,0.3-5.5,1-8.2c1.3-5.5,3.7-10.7,7.1-15.1c0.5-0.6,0.1-1.9-0.6-2.2l-2-0.9c1-5.7,2-11.4,3.1-17.1
		l0.8-4.5c0.3-1.4,0.6-2.9,0.1-4.2c-0.4-1-1.2-1.7-2.2-2C29.1,107.8,33,93.8,39,80.6c0.6-1.3-0.4-2.6-1.8-2.4s-1.9-1.7-1.8-2.6
		c0.1-1.9,1.2-3.6,2.1-5.2c1.8-3.3,3.8-6.6,5.9-9.7c4.3-6.3,9.1-12.1,14.4-17.6c0.6-0.5,0.7-1.7,0-2.2c-0.3-0.3-0.6-0.4-0.9-0.6
		c2.6-2,5.7-3.1,8.9-3.9c4.4-1.2,8.9-2,13.1-3.8c8.7-3.7,15.8-12.5,25.9-11.9c2.7,0.1,5.3,0.8,7.9,1.4c2.6,0.6,5.4,1.3,8.1,1.1
		c2.7-0.2,4.6-1.2,7-1.8c2.8-0.7,5.6-1,8.4-0.7c2.3,0.3,4.5,0.8,6.7,1.5c2.2,0.5,4.2,1.3,6.3,2.1c3.9,1.7,7.4,4,9.6,7.7
		s6.6,4.8,10.4,5.8s7.5,1.6,11,3c-0.4,0.4-0.4,1-0.3,1.5c0.3,1,1.3,1.3,2.1,1.8c3.1,1.7,6,3.9,8.5,6.5c4.7,4.8,7.8,11,9.9,17.4
		l0.9,2.9c0.3,1.1,1,2.1,1.4,3.2s0.6,2,0.2,2.9c-0.4,0.9-0.9,1.5-1.7,1.3c-1.4-0.2-2.4,1-1.8,2.4c3.1,6.8,5.7,13.9,7.6,21.2
		c1,3.6,1.8,7.3,2.4,11s1.6,7-0.2,10.2c-0.4,0.7-0.8,1.3-0.9,2.1c-0.1,0.9-0.1,1.9,0.2,2.8c0.4,1.7,0.9,3.4,1.5,5
		c0.7,1.7,1.2,3.4,1.7,5.2c0.4,1.8,0.5,3.6,0.4,5.4c0,1.8-0.1,3.9,0.2,5.8c0,0.2,0.2,0.7,0.1,0.8c-0.2,0.2-0.4,0.3-0.7,0.4
		c-0.6,0.5-1,1.2-1.2,2c-0.3,1.8,1.1,3.1,2,4.6c0.9,1.5,1.7,3.1,2.4,4.7c1.5,3.7,2.5,7.5,2.9,11.5c0.2,1.8,0.4,3.8-0.1,5.6
		c-0.1,0.5-0.4,1.2-1,1.4c-0.6,0.3-0.8,0.3-1,0c-0.9-1.4-2.8-0.7-3,0.8c-0.6,4.6-1.4,9.1-2.4,13.6c-0.5,2.3-1.1,4.5-1.7,6.7
		c-0.3,1.1-0.6,2.1-0.9,3.1l-0.5,1.6l-0.1,0.3l-0.2-0.8c-0.3-0.8-0.7-1.6-1.3-2.2c-1.1-1.2-2.5-2.1-4-2.5c-1.5-0.4-3.2-0.4-4.8,0.1
		c-1.7,0.6-3.3,1.6-5.2,1.8c-1.9,0.3-2.5-0.3-3.5-1.5c-1-1.2-2.4-1.8-3.8-2.4c-1.4-0.6-2.6-1-3.2-2.1c-0.3-0.4-0.4-0.8-0.8-1
		c-0.4-0.2-0.9-0.3-1.4-0.4c-0.9-0.2-1.9-0.5-2.8-0.9c-6.8-2.5-12.4-8.2-14.6-15.1c-1.4-4.2-1.7-8.7-0.8-13.1
		c0.5-2.2,1.2-4.4,2.2-6.4c1-2.2,2.1-4.5,2.5-6.9c0.2-1.3-1.1-2.6-2.4-1.8l-3.1,1.8c-3.4-6.2-0.4-13.8,2.8-19.5
		c0.8-1.5,1.6-3.4,1-5.2c-0.3-0.9-1-1.6-1.8-1.9l-0.5-0.2c0.1-0.4,0.3-0.7,0.4-1.1c0.5-1.7,1.4-3.3,2.5-4.7c1-1.3,2.2-2.5,3.3-3.7
		c1.1-1.2,2.2-2.4,2.7-3.9c0.5-1.4,0.7-3,0.6-4.5c-0.3-3.2-1.5-6.2-1.8-9.4c-0.1-1.3-0.1-2.8,0.6-3.9c1-1.9,2.5-3.2,2.4-5.5
		c-0.1-0.4-0.1-0.9-0.1-1.3c0.1-0.4,0.3-0.9,0.4-1.3c0.3-0.9,0.5-1.9,0.6-2.9c0.3-2,0.4-3.9,0.2-5.9c-0.8-8.9-5.2-17.2-9.7-24.9
		c0.3-0.2,0.5-0.4,0.7-0.5c1.4-1.3,1.4-3.3,0.6-4.9c-1.3-2.3-3.8-3.8-6.2-4.8c-5.2-2.2-10.9-3.3-16.4-4.3c-2.5-0.4-5.1-0.8-7.7-1.2
		c-0.9-0.1-1.6,0.8-1.6,1.6c0,0.8,0.7,1.5,1.6,1.6l0.8,0.1l1.3,0.2l2.9,0.4c2.3,0.4,4.5,0.8,6.7,1.2c4.3,0.9,8.9,1.8,12.7,3.9
		c0.9,0.4,1.7,1.1,2.4,1.8c0.4,0.4,1,1,0.8,1.6c0,0.2-0.1,0.3-0.2,0.4l-0.1,0.1c-1.3-0.9-3.3,0.4-2.3,2.1
		c4.3,7.5,8.9,15.3,10.3,23.9c0.3,1.9,0.4,3.9,0.3,5.9c-0.1,0.9-0.2,1.8-0.4,2.6c-0.2,0.9-0.6,1.8-0.8,2.7c-0.2,0.9,0.2,2-0.1,2.8
		c-0.3,0.9-1.2,1.8-1.7,2.7c-0.8,1.4-1.2,3-1.2,4.6c0,3.2,1.2,6.4,1.7,9.5c0.2,1.3,0.3,2.7-0.1,4c-0.4,1.3-1.4,2.4-2.3,3.4
		c-2.4,2.6-4.9,5.2-6.1,8.6c-0.6,1.8-1.6,3.9,0.1,5.4c0.4,0.3,1.3,0.4,1.5,0.9s-0.4,1.7-0.6,2.1c-2.1,3.9-4,7.7-4.7,12.1
		c-0.7,4.4-0.1,8.7,2.5,12.3c0.5,0.7,1.4,1.1,2.2,0.6l0.9-0.5c-1,2.5-2.3,4.9-3.1,7.5c-1.1,3.8-1.3,7.7-0.8,11.6
		c1.6,11.4,10,20.7,21.2,23.4c0.9,1.4,2.3,2.2,3.8,2.9c0.8,0.3,1.5,0.7,2.2,1.1c0.8,0.4,1.3,1.1,1.9,1.7c1.4,1.5,3.4,2,5.4,1.8
		c1.1-0.1,2.2-0.4,3.2-0.8c1.1-0.4,2.1-1,3.1-1.3c1.5-0.4,3.1,0,4.4,0.9c0.5,0.4,1,1,1.2,1.6c0.3,0.9,0.4,1.9,1.1,2.6
		c0.7,0.8,1.8,1.1,2.9,0.8c1.4-0.3,2.1-1.5,2.4-2.7c0.8-2.6,1.6-5.3,2.3-8c1.3-5.2,2.3-10.4,3.1-15.7c0.5,0.1,1,0.1,1.4,0
		c1.7-0.3,2.9-1.5,3.5-3.1C221.3,178.7,221.3,176.7,221.2,174.9z M26.9,125.3C26.8,125.4,26.9,125,26.9,125.3L26.9,125.3z
		 M76.6,50.5C76.6,50.5,76.6,50.5,76.6,50.5L76.6,50.5z M77,126.2C77,126.3,77,126.3,77,126.2L77,126.2z M162,50.4
		C161.9,50.5,161.9,50.4,162,50.4L162,50.4z M207.4,206.8C207.5,206.8,207.4,207,207.4,206.8L207.4,206.8z"/>
	<path style="stroke:#000000;stroke-width:3;stroke-linecap:round;stroke-linejoin:round;stroke-miterlimit:10;" d="M52,98.3
		l0.1-0.2l0.1-0.3c0.2-0.5,0.5-1,0.7-1.5c1-2.1,2.1-4.1,2.2-6.4c0.1-1.2-0.2-2.4-0.8-3.5c-0.6-1.1-1.5-2-2.6-2.7
		c-0.9-0.6-1.9-1.1-2.9-1.5L48.5,82l-0.3-0.1l-0.4-0.2l-0.2-0.1h-0.1c0-0.1,0.1-0.1,0.1-0.2c0.1-0.1,0.1-0.2,0.1-0.3
		c0-0.1,0-0.1,0.1-0.2l0.2-0.4c0.1-0.3,0.3-0.6,0.4-0.9c0.2-0.3,0.6-1.2,1-1.7c0.6-1.1,1.3-2.2,2.1-3.2l0.5-0.7l0.3-0.4l0.2-0.3
		l1.2-1.4c0.8-1,1.7-1.9,2.6-2.8c0.9-0.9,0.9-0.9,1.4-1.3c0.6-0.6,0.6-1.6,0-2.3c-0.6-0.6-1.6-0.6-2.3,0c-3.9,3.7-7.3,8-9.8,12.7
		c-0.7,1.3-1.7,3-1.2,4.5c0.3,0.8,0.9,1.5,1.7,1.9l0.3,0.2l0.2,0.1l0.2,0.1l0.8,0.3l1.5,0.7l0.7,0.4l0.3,0.2l0.2,0.1l0.6,0.5
		l0.2,0.3l0.1,0.1c0,0,0,0,0,0.1c0.2,0.2,0.3,0.4,0.4,0.7c0,0,0,0,0,0.1c0,0,0.1,0.3,0.1,0.4c0,0.1,0.1,0.3,0.1,0.4c0,0,0,0,0,0.1
		c0,0,0,0.5,0,0.7c0,0.1,0,0.2,0,0.4c-0.1,0.2-0.1,0.5-0.2,0.7c-0.1,0.2-0.2,0.5-0.2,0.7L51.4,92c0,0.1,0,0.1,0,0.2l-0.1,0.1
		l-0.1,0.2c-0.1,0.1-0.1,0.2-0.2,0.4l-0.4,0.8c-1.1,2.2-2.2,4.3-2.5,6.7c-0.2,1.4,0.1,2.9,0.1,4.3c0,0.4,0,0.7,0,1.1v0.3
		c0,0,0,0.1,0,0.1s0,0.2-0.1,0.3c-0.1,0.3-0.1,0.5-0.2,0.8c0,0.1-0.1,0.3-0.1,0.4c0,0,0,0.1,0,0.1l-0.1,0.1
		c-0.3,0.6-0.6,1.1-0.9,1.6l-0.3,0.4l-0.2,0.2l-0.6,0.7c-0.8,1-1.8,1.8-2.7,2.7c-2,1.9-3.9,3.9-4.9,6.5c-1.1,2.6-1,5,0.2,7.3
		c0.3,0.5,0.7,1.1,1.1,1.5c0.6,0.6,1.6,0.6,2.3,0c0.6-0.6,0.6-1.6,0-2.3l-0.3-0.3c0,0,0,0,0,0c-0.2-0.2-0.3-0.4-0.4-0.7h0v-0.1
		c-0.1-0.1-0.1-0.2-0.1-0.4c-0.1-0.2-0.1-0.4-0.1-0.6c0-0.1,0-0.1,0-0.1v-0.1v-0.1c0-0.1,0-0.3,0-0.4c0-0.3,0-0.5,0-0.8v-0.1
		c0-0.1,0-0.3,0.1-0.4l0.2-0.8c0.1-0.1,0.1-0.3,0.1-0.4l0.2-0.4c0-0.1,0-0.1,0-0.1l0.2-0.4c0.3-0.5,0.6-1.1,1-1.5l0.1-0.2l0.3-0.3
		l0.7-0.8l1.3-1.3c1.8-1.8,3.8-3.5,5.1-5.8c0.7-1.1,1.1-2.4,1.3-3.7c0.2-1.5,0-3-0.1-4.5v-1c0-0.2,0-0.4,0-0.5v-0.3
		c0.1-0.5,0.2-1,0.4-1.5C51.8,98.8,51.9,98.6,52,98.3z"/>
	<path style="stroke:#000000;stroke-width:3;stroke-linecap:round;stroke-linejoin:round;stroke-miterlimit:10;" d="M55.9,171.2
		c0-0.1,0-0.2,0-0.3c0,0,0-0.1,0-0.1c0-0.1,0-0.3,0.1-0.4c0.1-0.7,0.3-1.4,0.4-2.1c0.2-0.7,0.4-1.3,0.6-2c0.1-0.1,0.1-0.3,0.2-0.4
		l0.1-0.1l0.1-0.3c0.2-0.4,0.4-0.9,0.6-1.3c0.8-1.8,1.7-3.6,2.2-5.5c0.5-1.9,0.9-3.9,1.1-5.9c0.2-1.9,0.4-3.9,0.4-5.8
		c0.1-4.5-0.3-9-1.1-13.4c-0.2-0.8-1.2-1.3-2-1.1c-0.8,0.3-1.3,1.1-1.1,2c0.2,1,0.3,1.9,0.4,2.9c0,0.1,0,0.1,0,0.2
		c0,0.1,0,0.3,0,0.4l0.1,0.7c0,0.5,0.1,1,0.1,1.5c0.2,2,0.3,3.9,0.3,5.9c0,2-0.1,3.9-0.3,5.9c0,0.5-0.1,1-0.1,1.5l-0.1,0.6
		c0-0.1,0,0,0,0.1l0,0l0,0v0.1c0,0.1,0,0.3-0.1,0.4c-0.1,1-0.3,1.9-0.6,2.8c-0.2,0.9-0.5,1.8-0.9,2.7c0,0.1,0,0.1-0.1,0.2l-0.1,0.3
		L56,161c-0.2,0.4-0.4,0.9-0.6,1.3c-0.8,1.5-1.4,3.1-2,4.8c-0.9,3-1.1,6.1-0.7,9.2c0.5,3.3,2,6.5,4.6,8.7c0.6,0.5,1.7,0.7,2.3,0
		s0.7-1.7,0-2.2c-0.5-0.4-1-1-1.5-1.5l-0.1-0.1c0,0,0,0,0,0l-0.3-0.4l-0.6-0.9l-0.4-0.9v-0.1c0,0,0-0.1,0-0.1l-0.2-0.6
		c-0.2-0.6-0.4-1.3-0.5-2c0-0.2,0-0.3-0.1-0.5c0-0.1,0-0.1,0-0.2c0-0.4-0.1-0.7-0.1-1.1c0-0.4,0-1.4,0-2.2
		C55.9,171.5,55.9,171.5,55.9,171.2z"/>
	<path style="stroke:#000000;stroke-width:3;stroke-linecap:round;stroke-linejoin:round;stroke-miterlimit:10;" d="M186.9,88.1
		l0.2-0.3c0.1-0.1,0.1-0.2,0.2-0.3l0.1-0.2l0.6-0.5c0,0,0.2-0.1,0.2-0.2h0l0.3-0.2c1-0.7,2.1-1.1,3.1-1.6l0.4-0.1l0.4-0.2
		c0.4-0.2,0.7-0.4,1-0.7c0.7-0.8,1-1.8,0.7-2.9c-0.2-0.8-0.5-1.5-0.9-2.2c-0.3-0.6-0.6-1.2-1-1.8c-0.7-1.2-1.4-2.4-2.2-3.5
		c-1.6-2.3-3.4-4.5-5.4-6.6l-1.5-1.4c-0.6-0.5-1.7-0.6-2.3,0c-0.6,0.6-0.6,1.7,0,2.3c0.6,0.6,2,1.9,2.9,2.9l1.3,1.5l0.6,0.8l0.3,0.4
		h0l0.2,0.2c1.6,2.2,3.1,4.5,4.3,6.9c0.2,0.3,0.3,0.6,0.4,0.9c0,0.1,0,0.1,0.1,0.1c0,0,0,0.1,0,0.1c0,0.1,0,0.1,0.1,0.2l-0.1,0.1
		l-0.5,0.2h0l-0.4,0.1l-0.4,0.2l-0.8,0.4c-0.5,0.2-1.1,0.5-1.6,0.8c-2.1,1.3-3.9,3.3-3.8,5.9c0.1,2.6,1.2,3.9,2.4,5.6l1.8,2.5
		c0.3,0.4,0.5,0.9,0.8,1.3l0.3,0.6l0.1,0.1l0.1,0.2l0.2,0.7c0,0.1,0,0.2,0.1,0.3v0.1c0.1,0.7,0.1,1.4,0,2.2
		c-0.1,0.8-0.1,1.5-0.1,2.2c0,0.7,0.1,1.3,0.1,2c0.1,1.3,0.3,2.5,0.6,3.8c0.4,1.3,1,2.5,1.9,3.5c0.9,1,1.9,1.8,2.8,2.8
		c0.4,0.4,0.9,0.9,1.3,1.4l0.2,0.2c0.1,0.1,0.2,0.2,0.3,0.4c0.2,0.3,0.4,0.5,0.5,0.8c0.2,0.3,0.3,0.5,0.4,0.8c0.1,0.3,0,0.1,0.1,0.2
		v0.1l0.1,0.3c0.1,0.3,0.2,0.5,0.3,0.8l0.1,0.4v0.2h0v0.2c0,0.1,0,0.2,0,0.2v0.4c0,0.3,0,0.5,0,0.8c0,0,0,0.1,0,0.1
		c0,0.1,0,0.3-0.1,0.4c0,0.1-0.1,0.3-0.1,0.4c0,0.1,0,0.1-0.1,0.2c-0.1,0.2-0.2,0.4-0.4,0.7v0.1c-0.1,0.1-0.2,0.2-0.3,0.3
		c-0.6,0.6-0.6,1.6,0,2.3c0.6,0.6,1.6,0.6,2.3,0c2-2,2.3-4.9,1.7-7.5c-0.6-2.6-2.5-4.9-4.5-6.8l-1.5-1.5l-0.7-0.6l-0.3-0.3l-0.2-0.2
		l-0.4-0.7l-0.1-0.2c0,0,0,0,0-0.1v-0.1c0-0.1-0.1-0.1-0.1-0.2c-0.2-0.5-0.3-1.1-0.4-1.7v-0.3c0-0.1,0-0.2,0-0.2l-0.1-1
		c-0.1-0.7-0.2-1.3-0.2-2c0-1.5,0.3-3,0.2-4.5c-0.2-2.3-1.3-4.2-2.6-6c-0.6-0.9-1.2-1.7-1.8-2.6c-0.3-0.4-0.5-0.8-0.8-1.3
		c-0.1-0.2-0.2-0.4-0.3-0.5c0,0,0-0.1,0-0.1l0,0l-0.1-0.3c-0.1-0.2-0.1-0.4-0.2-0.6v-0.6l-0.1,0C186.7,88.6,186.8,88.4,186.9,88.1
		C186.9,88.2,186.9,88.1,186.9,88.1z M190.9,81.2L190.9,81.2C190.9,81.1,190.9,81.2,190.9,81.2L190.9,81.2z"/>
	<path style="stroke:#000000;stroke-width:3;stroke-linecap:round;stroke-linejoin:round;stroke-miterlimit:10;" d="M177.5,152.2
		c-0.5,0.8-0.8,1.8-0.7,2.7c0.2,1,0.4,2,0.9,2.9c0.2,0.4,0.4,0.7,0.5,1.1c0,0,0.1,0.2,0.1,0.2v0.1c0.1,0.2,0.2,0.4,0.2,0.6
		c0.7,2,1.8,3.9,2.6,5.9v0.1l0.1,0.3l0.2,0.5l0.4,1.1c0.2,0.7,0.4,1.5,0.5,2.3l0.1,0.6c0,0,0,0.1,0,0.1v0.1c0.1,0.4,0.1,0.8,0.1,1.3
		c0.1,0.8,0.1,1.6,0,2.4c0,0.2,0,0.4-0.1,0.6c0,0.1,0,0.2,0,0.3c-0.1,0.4-0.1,0.9-0.2,1.3c-0.1,0.4-0.2,0.8-0.4,1.2l-0.2,0.6
		l-0.1,0.3c-0.3,0.8-0.8,1.5-1.3,2.2c0,0-0.1,0.1-0.1,0.1l0.1-0.1l-0.2,0.3l-0.4,0.5c-0.3,0.3-0.6,0.6-1,0.9c-0.6,0.6-0.6,1.6,0,2.2
		c0,0,0,0,0,0c0.7,0.6,1.6,0.6,2.3,0c5.3-4.4,5.7-12.4,3.7-18.5c-0.6-1.9-1.5-3.7-2.4-5.5c-0.1-0.2-0.2-0.5-0.3-0.7
		c-0.1-0.1-0.1-0.2-0.1-0.3c0,0-0.1-0.1-0.1-0.2s-0.4-0.9-0.5-1.3s-0.4-0.9-0.6-1.4c-0.2-0.5-0.2-0.4-0.3-0.5l-0.1-0.3
		c0,0,0,0,0-0.1c-0.1-0.4-0.3-0.8-0.4-1.2c0-0.1,0-0.1,0-0.2v-0.3h0c0,0,0,0,0,0c0,0,0-0.1,0-0.1c0.1-0.2,0.3-0.4,0.4-0.5
		c0.3-0.4,0.6-0.9,0.8-1.3c0.9-1.9,1.4-3.9,1.3-6c0-2.2-0.5-4.3-0.9-6.5l-0.3-1.5c0-0.3-0.1-0.5-0.1-0.8c0-0.1,0-0.3,0-0.4h0V137
		c-0.1-1-0.2-2-0.1-3.1c0-0.9-0.7-1.6-1.5-1.6c0,0,0,0-0.1,0c-0.9,0-1.6,0.7-1.6,1.6c0,1.9,0.1,3.8,0.5,5.7c0.2,0.9,0.4,1.8,0.5,2.7
		l0.2,1.2c0,0.1,0.1,0.3,0.1,0.4h0c0,0.3,0,0.5,0.1,0.7c0.1,0.9,0.1,1.8,0,2.7c0,0.1,0,0.8,0,0.4c0,0.2-0.1,0.4-0.1,0.7
		c-0.1,0.5-0.2,1-0.4,1.4l-0.1,0.3c0,0-0.1,0.1-0.1,0.2s-0.1,0.2-0.1,0.2c-0.1,0.1-0.1,0.2-0.2,0.3
		C178.1,151.3,177.8,151.7,177.5,152.2z"/>
	<path style="stroke:#000000;stroke-width:3;stroke-linecap:round;stroke-linejoin:round;stroke-miterlimit:10;" d="M134.3,33.6
		C134.4,33.6,134.4,33.6,134.3,33.6l0.3-0.2c0.8-0.6,1.6-1.1,2.5-1.6c0.8-0.4,1-1.4,0.6-2.2s-1.4-1-2.2-0.6
		c-1.7,0.9-3.3,2.1-4.7,3.4c-0.7,0.6-1.3,1.3-1.9,2c-0.7,0.8-1.5,1.8-1.8,2.9c-0.1,0.6-0.1,1.2,0.1,1.7c0.1,0.2,0.2,0.4,0.3,0.6
		l-0.3,0.3l-0.9,1.1c-1.3,1.5-2.3,3.3-3.1,5.1c-0.9,2.1-1.5,4.6-0.3,6.7c0.4,0.8,1.4,1,2.2,0.6c0.8-0.4,1-1.4,0.6-2.2l-0.2-0.3
		l-0.2-0.5v-0.2c0-0.2,0-0.4,0-0.7c0-0.1,0-0.2,0.1-0.3c0-0.2,0.1-0.4,0.2-0.6c0.1-0.2,0.1-0.3,0.2-0.5c0-0.1,0.1-0.2,0.1-0.3v-0.1
		c0.4-0.8,0.8-1.6,1.3-2.4c0.2-0.4,0.4-0.7,0.7-1.1l0.4-0.5l0.2-0.2l0.2-0.2c0.6-0.7,1.3-1.4,1.9-2.2c0.5-0.8,0.5-2.2-0.2-3.1
		c0-0.1,0-0.1,0.1-0.2l0.1-0.2c0-0.1,0.1-0.2,0.1-0.3l0.2-0.2c-0.2,0.3,0.1-0.2,0.2-0.2c0.5-0.7,1.1-1.3,1.7-1.9l1-1L134.3,33.6z
		 M127.8,39.9c0,0.1,0.1,0.1,0.1,0.1L127.8,39.9z"/>
	<path style="stroke:#000000;stroke-width:3;stroke-linecap:round;stroke-linejoin:round;stroke-miterlimit:10;" d="M114,44.1
		c-0.2-0.4-0.5-0.7-0.8-1.1l-0.6-0.7l-0.2-0.2l-0.1-0.2l-0.2-0.2c0-0.1-0.1-0.4,0-0.1l-0.1-0.3v-0.1c0-0.2,0-0.4,0-0.6v-0.1l0.1-0.5
		c0.2-1.1,0.4-2.2,0-3.4c-0.4-1.1-0.9-2-1.6-2.9c-0.6-0.8-1.3-1.6-2-2.3c-1.6-1.8-3.3-3.6-5-5.2c-0.6-0.6-1.6-0.6-2.2,0
		c-0.6,0.6-0.6,1.6,0,2.3c1.5,1.4,2.9,2.9,4.3,4.4c0.7,0.8,1.4,1.6,2.1,2.4c0.1,0.2,0.3,0.4,0.4,0.5l0.1,0.1l0.2,0.2l0.4,0.5
		c0,0.1,0.1,0.2,0.1,0.2l0.1,0.3c0,0.1,0,0.2,0.1,0.2l0.1,0.2c0,0.1,0,0.1,0,0.2s0,0.1,0,0.2c0,0.2,0,0.4,0,0.5c0,0.2,0,0.2,0,0.3
		c0,0.1-0.1,0.3-0.1,0.4c-0.2,1.1-0.4,2.2,0,3.3c0.2,0.5,0.4,1,0.7,1.3l0.6,0.7l0.2,0.2l0.1,0.2c0.5,0.7,1,1.5,1.4,2.4l0.2,0.3
		c0,0.1,0.1,0.1,0.1,0.2c0.1,0.2,0.2,0.4,0.3,0.7c0.2,0.5,0.3,1,0.4,1.5c0.1,0.2,0.1,0.5,0.2,0.7c0,0.1,0.1,0.3,0.1,0.4
		c0,0,0,0.1,0,0.1c0.1,0.5,0.1,1.1,0.1,1.6c0,0.9,0.7,1.7,1.6,1.6c0.9,0,1.6-0.7,1.6-1.6c0-2-0.4-4-1.2-5.9
		C115,46,114.5,45,114,44.1z"/>
</g>
</svg>
