<?xml version="1.0" encoding="utf-8"?>
<!-- Generator: Adobe Illustrator 27.9.0, SVG Export Plug-In . SVG Version: 6.00 Build 0)  -->
<svg version="1.1" id="Layer_1" xmlns="http://www.w3.org/2000/svg" xmlns:xlink="http://www.w3.org/1999/xlink" x="0px" y="0px"
	 viewBox="0 0 202.1 155.2" style="enable-background:new 0 0 202.1 155.2;" xml:space="preserve">
<g>
	<path style="stroke:#000000;stroke-width:3;stroke-linecap:round;stroke-linejoin:round;stroke-miterlimit:10;" d="M192.2,97.7
		c-0.2-4.6,0.2-9.2-0.9-13.7c-0.4-1.6-0.9-3.1-1.6-4.5c-0.4-0.9-1-2.2-1.9-3c0-2.8-0.3-5.6-0.8-8.4c-0.8-4.2-2.1-8.4-3.7-12.4
		c-1.6-3.9-3.8-7.6-6.7-10.7c-1.4-1.5-3-2.9-4.7-4c-1.9-1.3-4-2.2-6-3.2s-4.2-1.9-6.1-3.3c-1.8-1.4-3.5-3.5-5.3-5.2
		c-3.3-3.3-6.9-6.2-10.8-8.8c-3.9-2.5-8-4.6-12.4-6.3c-4.8-1.8-10-3.2-15.2-3.1c-5.2,0.1-9.7,1.7-14.6,2.3c-2.4,0.3-4.9,0.3-7.2-0.3
		c-2.4-0.6-5-1.3-7.5-1.7c-9.6-1.5-19.5-0.3-28.1,4.4c-3,1.6-5.7,3.6-8.1,6c0,0,0,0,0,0c-0.7,0.7-1.4,1.4-2,2.1
		c-1.5,1.7-2.7,3.7-4,5.5c-1.4,2-3.2,3.6-5.3,4.7c-2,1-4.1,1.9-6,3.1c-1.8,1.1-3.5,2.4-5.1,3.8c-3.2,2.8-5.9,6.1-8.1,9.8
		c-2.9,4.9-4.7,10.4-5.5,16c-0.2,0.1-0.3,0.4-0.4,0.6c-0.8,4.3-1.8,8.5-2.8,12.8c-0.9,4.3-1.7,8.4-2,12.8c-0.2,4.3,0.1,8.4,1.3,12.4
		c1.1,3.6,3,6.9,4.9,10.2c0.9,1.6,1.8,3.2,2.6,4.8c0.2,0.4,0.4,0.8,0.6,1.3c0,0,0,0.1,0,0.1c0,0.1,0.1,0.2,0.1,0.3
		c0.1,0.2,0.2,0.4,0.3,0.7c0.3,0.8,0.6,1.7,0.8,2.5c0.1,0.4,0.2,0.9,0.3,1.4c0,0.2,0.1,0.4,0.3,0.5c-1.1,3.6-2.6,7.2-3.9,10.8
		c-0.7,2-1.6,4.3,0.1,6.2s3.8,1.8,5.8,1.1c3.7-1.3,5.9-4.6,7.1-8.2c1.4-4.2,1.7-8.9,1.4-13.4c-0.3-5-1.5-9.9-3.5-14.5
		c-1-2.3-2.5-4.3-2-6.9c0.4-2.6,1.4-5.1,2.2-7.5c1.7-4.9,3.4-9.8,4.3-15c0.9-5.2,1.4-10.1,3.2-14.9c1.6-4.2,4-8.1,5.8-12.3
		s2.8-8.2,2.1-12.5c-0.1-0.7-0.9-1-1.5-0.8s-0.9,0.8-0.8,1.5c0.7,4.3-0.9,8.6-2.7,12.4s-4.3,8.1-5.7,12.4c-1.6,4.9-1.9,10.1-3,15.1
		c-1,5-2.9,9.8-4.5,14.7c-0.6,1.7-1.2,3.4-1.6,5.2c-1.5-4.9-3.8-9.5-5.1-14.4c-2.5-9.5-2.4-19.7,1.3-28.9c3.1-7.7,8.8-14.5,16-18.5
		c2-1.1,4.1-1.9,6.1-3.1c2-1.2,3.5-2.9,4.9-4.8c1.4-1.9,2.5-3.7,4-5.4c0.7-0.8,1.5-1.6,2.3-2.3c0,0,0,0,0,0c0.8-0.7,1.6-1.4,2.4-2
		c7.4-5.6,16.7-8,26-7.6c2.6,0.1,5.1,0.5,7.7,1c2.5,0.5,4.9,1.4,7.4,1.6c4.9,0.5,9.7-1,14.5-1.8c2.4-0.5,4.7-0.7,7.1-0.6
		c2.6,0.1,5.2,0.6,7.7,1.4c4.5,1.3,8.9,3.1,13,5.4c4,2.3,7.8,4.9,11.3,8c3.5,3.1,6.3,7.1,10.4,9.5c4.1,2.4,8.3,3.5,11.8,6.4
		s5.6,6,7.5,9.6c1.9,3.7,3.2,7.8,4.2,11.9c0.9,3.7,1.5,7.5,1.4,11.3c0,0.1,0,0.3,0,0.4c0,0.5-0.1,1.1-0.1,1.6
		c-0.2,2.2-0.9,4.4-2,6.4c-1,1.8-2.4,3.4-3.8,5c-2.7,2.9-5.8,6-6.5,10c-0.7-1.2-1.3-2.4-1.8-3.6c0,0,0-0.1,0-0.1c0,0,0,0,0,0
		c-0.1-0.1-0.1-0.3-0.2-0.4c-0.1-0.3-0.2-0.6-0.3-0.9c-0.2-0.6-0.3-1.2-0.5-1.8L170,93c0,0,0,0,0-0.1c0-0.1,0-0.1,0-0.2
		s-0.1-0.7-0.1-1c0-0.7,0-1.5,0-2.2c0.2-2.6,0.7-5.1,0.6-7.7c-0.1-2.6-0.7-4.6-1.9-6.5c-1.3-2-2.6-3.2-3.9-4.7
		c-1.3-1.6-2.6-3.2-3.9-4.8l-1.6-2l-0.3-0.3l-0.1-0.1v0c0.2,0.3,0.1,0.1,0,0c-0.1-0.1-0.2-0.3-0.3-0.4c0,0,0-0.1,0-0.1l-0.1-0.3
		c0-0.2-0.1-0.3-0.1-0.5v0v0v0l0,0l0,0c0,0,0,0,0,0c0,0.1,0,0,0-0.1l0,0c0-0.1,0-0.2,0-0.2c0-0.4,0-0.8,0-1.3c0,0,0,0,0,0
		c0-0.1,0-0.2,0-0.4l0.1-0.7c0.1-0.5,0.3-0.9,0.4-1.4c0.6-2,1.5-4,2.1-6c0.6-2,1-3.9,0.5-5.8c-0.1-0.5-0.3-0.9-0.6-1.3
		c-0.3-0.6-1.1-0.8-1.7-0.4c-0.6,0.3-0.8,1.1-0.4,1.6l0.2,0.3c0,0,0,0,0,0c0,0,0.1,0.4,0.2,0.6c0,0.2,0,0.2,0,0.3v0
		c0,0.2,0,0.4,0,0.6c0,0.2,0,0.4,0,0.6c0,0.1,0,0.2,0,0.3c0,0,0,0.1,0,0.1c-0.1,0.5-0.2,0.9-0.3,1.4c-0.5,2-1.3,3.9-2,5.9
		c-0.7,2-1.3,3.8-1.1,5.8c0.1,1,0.4,1.9,0.9,2.7c0.4,0.6,0.9,1.2,1.4,1.7l3.9,4.9c0.6,0.7,1.1,1.4,1.7,2c0.6,0.7,1.3,1.3,1.8,2
		l0.3,0.3l0,0l0.1,0.2l0.5,0.8c0.3,0.5,0.6,1,0.8,1.5c0,0,0.1,0.3,0.2,0.5c0.1,0.3,0.2,0.5,0.2,0.8c0.1,0.2,0.1,0.5,0.2,0.7l0.1,0.4
		c0,0,0,0.1,0,0.1v0c0.3,2.4,0,4.8-0.3,7.2c-0.2,1.5-0.3,2.9-0.2,4.4c0.1,1.4,0.4,2.7,0.8,4c0.9,2.6,2.3,4.9,3.7,7.3l1,1.7
		c0,1-0.1,2-0.4,3c-0.8,2.3-1.4,4.6-1.6,7c-0.4,3.7,0.2,7.5,1.7,11c1.4,3.3,3.4,6.2,5.5,9c0.5,0.7,1,1.4,1.5,2.1
		c0.5,0.7,0.9,1.4,1.8,1.6c1.5,0.5,3.1-0.2,3.8-1.6c0.4-0.9,0.3-1.7,0.1-2.7l-0.7-4.3c-0.4-2.5-1.2-5.1-1-7.7
		c0.2-2.5,1.7-3.9,3.1-5.6c1.5-1.7,2.6-3.7,3.5-5.7C192,106.9,192.4,102.3,192.2,97.7z M23.7,125.9c0.4-1.5,0.7-3.1,1-4.7
		c0.1-0.6,0.2-1.3,0.3-1.9c0.2-1.3,0.3-2.5,0.4-3.8c0.1-1.5,0.1-3,0-4.5c0-0.5,0-1-0.1-1.5l0.1,0.3c0.6,1.3,1.1,2.6,1.6,4
		c0.2,0.5,0.3,1.1,0.5,1.6c0.1,0.3,0.1,0.6,0.2,0.8c0.2,0.8,0.4,1.7,0.6,2.5c0.1,0.6,0.2,1.1,0.3,1.7c0.1,0.8,0.2,1.7,0.3,2.6
		c0,0.3,0,0.6,0.1,0.9c0.1,2.7,0.1,5.5-0.3,8.3c-0.1,0.6-0.2,1.1-0.3,1.6c0,0.3-0.1,0.5-0.2,0.8c-0.1,0.5-0.3,1.1-0.5,1.6
		c-0.1,0.3-0.2,0.5-0.3,0.8c-0.6,1.6-1.5,3.1-2.7,4.3s-3.1,2.2-4.7,1.8c-0.2,0-0.3-0.1-0.4-0.1c-0.1,0-0.2-0.1-0.3-0.2
		c-0.1-0.1-0.2-0.1-0.3-0.2s-0.1-0.2-0.2-0.3s-0.1-0.2-0.1-0.3c0-0.1,0-0.2-0.1-0.3c0-0.2,0-0.5,0-0.7c0-0.2,0.1-0.5,0.2-0.8
		c0-0.1,0.1-0.3,0.1-0.4c0-0.1,0.1-0.3,0.1-0.4c0-0.1,0.1-0.2,0.1-0.4c0-0.1,0.1-0.2,0.1-0.4c0-0.1,0.1-0.2,0.1-0.3
		c0-0.1,0.1-0.2,0.1-0.3c0.2-0.6,0.5-1.3,0.7-1.9c0.5-1.2,0.9-2.5,1.4-3.7c0.2-0.6,0.5-1.3,0.7-1.9c0.3-0.9,0.6-1.8,0.9-2.7
		C23.4,127.1,23.6,126.5,23.7,125.9z M22,122.6c-0.8-2.4-2-4.7-3.2-6.9c-0.9-1.6-1.8-3.2-2.7-4.8c-0.4-0.8-0.8-1.6-1.2-2.4
		c-0.2-0.4-0.4-0.8-0.6-1.2c0,0,0-0.1-0.1-0.2c0-0.1-0.1-0.1-0.1-0.2c-0.1-0.2-0.2-0.4-0.3-0.6c-0.7-1.9-1.2-3.8-1.5-5.8l-0.1-0.4v0
		v0c0,0,0-0.1,0-0.1l-0.1-0.8c0-0.5-0.1-1-0.1-1.5c0-0.1,0-0.2,0-0.3c0-0.9,0-1.9,0-2.8c0,0,0,0,0,0c0-0.9,0-1.7,0.1-2.6
		c0-0.1,0-0.3,0-0.4l0.1-1.5c0-0.1,0-0.1,0-0.2c0-0.2,0-0.4,0.1-0.5c0,0,0,0,0,0c0-0.3,0-0.2,0-0.3h0c0,0,0-0.2,0-0.2
		c0.3-2.1,0.7-4.2,1.1-6.3c0.3-1.4,0.6-2.8,0.9-4.2v0c0.5,5,1.7,10,3.6,14.7c1.9,4.9,4,9.8,4.6,15.1c0.2,1.5,0.3,3.1,0.3,4.6
		C23,116,22.7,119.3,22,122.6z M189.9,100.9L189.9,100.9c0,0.3,0,0.6,0,0.8c0,0.8-0.1,1.7-0.2,2.5c0,0.3-0.1,0.6-0.1,0.8
		c-0.1,0.6-0.2,1.1-0.3,1.6c-0.1,0.3-0.1,0.6-0.2,0.8c-0.1,0.3-0.1,0.5-0.2,0.8c-0.3,0.9-0.7,1.9-1.1,2.7c-0.4,0.9-0.9,1.7-1.5,2.6
		l0,0c-0.1,0.2-0.3,0.4-0.4,0.5c-1.1,1.5-2.4,2.8-3.4,4.4c-0.1,0.1-0.1,0.2-0.2,0.4l0,0c-1,1.9-1.1,4.7-0.7,7.2l0,0
		c0.2,1.2,0.4,2.5,0.7,3.9c0,0.1,0,0.2,0,0.3c0.2,1.3,0.4,2.5,0.7,3.8c0,0.3,0.2,0.8,0.3,1.2c0,0.1,0,0.1,0,0.2s0,0.1,0,0.2
		s0,0.1,0,0.2c0,0.2-0.1,0.3-0.2,0.4c-0.2,0.2-0.6,0.2-0.8,0.1c-0.2-0.1-0.3-0.5-0.5-0.7l-0.8-1.1l-1.6-2.2c-1-1.5-2-3-2.9-4.5
		c-1-1.8-1.9-3.7-2.4-5.7c-0.1-0.3-0.2-0.7-0.2-1c0-0.1,0-0.2,0-0.3c-0.1-0.6-0.2-1.2-0.3-1.8c0-0.5-0.1-0.9-0.1-1.4v0l0,0
		c0-0.2,0-0.4,0-0.6c0-0.6,0-1.3,0.1-1.9c0-0.5,0.1-0.9,0.2-1.4c0-0.1,0-0.2,0-0.3c0.1-0.7,0.3-1.4,0.5-2c0-0.1,0-0.1,0-0.2l0,0
		c0.3-1.1,0.8-2.2,1-3.3l0,0c0-0.1,0.1-0.3,0.1-0.5c0,0,0-0.1,0-0.1c0-0.1,0-0.2,0-0.3c0.1-0.9,0.1-2,0-2.9l0,0l0,0
		c0-0.8-0.1-1.4-0.1-2.1c0-0.4,0-0.8,0.1-1.2l0,0c0.2-1.1,0.7-2.2,1.3-3.2c1.1-1.8,2.5-3.3,3.9-4.8l0,0c1.4-1.5,2.9-3.1,4.1-4.8
		c0,0,0,0,0,0c1.2-1.9,2.1-3.9,2.6-6.1c0.1-0.5,0.2-1,0.3-1.5c0.2,0.4,0.4,0.9,0.6,1.3c0.7,1.8,1.2,3.6,1.4,5.5
		c0.2,1.9,0.2,3.8,0.2,5.7c0,0.3,0,0.6,0,0.8l0,0l0,0c0,1.9,0.1,4.1,0.1,6.2C189.9,100.3,189.9,100.6,189.9,100.9z"/>
</g>
</svg>
