<?xml version="1.0" encoding="utf-8"?>
<!-- Generator: Adobe Illustrator 27.9.0, SVG Export Plug-In . SVG Version: 6.00 Build 0)  -->
<svg version="1.1" id="Layer_1" xmlns="http://www.w3.org/2000/svg" xmlns:xlink="http://www.w3.org/1999/xlink" x="0px" y="0px"
	 viewBox="0 0 255.1 146" style="enable-background:new 0 0 255.1 146;" xml:space="preserve">
<g>
	<path style="stroke:#000000;stroke-width:3;stroke-linecap:round;stroke-linejoin:round;stroke-miterlimit:10;" d="M242.3,20.4
		c-0.2-0.7-0.6-1.3-1.1-1.9c-2-2.5-5.1-3-8.1-2.8c-7,0.5-13.6,4-19.7,7.3c-4.2,2.4-8.3,5-12.2,7.8c-0.2,0-0.4,0.1-0.5,0.3l-0.2,0.2
		c-7.4,5.3-14.4,11.2-21.5,16.8c-2.6,2.1-5.3,4.1-8.3,5.5c-3.1,1.4-6.4,1.9-9.8,1.7c-3.4-0.2-7.2-1-10.8-1.6
		c-3.8-0.6-7.7-0.9-11.5-0.9c-3.9-0.1-7.8,0-11.7,0c-2,0-4,0.1-6,0.1c-1.8,0-3.8-0.2-5.6,0.1c-7.4,1.2-14.7,3.1-22.2,2
		c-1.8-0.2-3.6-0.7-5.1-1.6c-1.5-0.9-2.8-1.9-4.2-2.9c-3-2.1-5.9-4.2-8.8-6.5c-5.2-4-10.3-8.2-15.6-12.1c-0.3-0.3-0.5-0.6-0.8-0.9
		c-0.2-0.2-0.6-0.4-0.9-0.3c-2.6-1.9-5.4-3.7-8.2-5.5c-1.4-0.9-2.7-1.9-4.1-2.8c-1.5-0.9-3.1-1.7-4.7-2.4c-3.1-1.4-6.3-2.6-9.6-3.6
		c-3-0.9-6.3-1.4-9.4-0.4c-1.3,0.4-2.8,1.1-3.7,2.2c-0.9,1-1,2.8-1,4.4c0,3.7,0.4,7.2,1,10.9c1.1,7.3,2.3,14.5,3.9,21.7
		c0.8,3.6,1.7,7.1,2.8,10.6c1,3.5,2,6.9,3.6,10s3.6,5.8,5.7,8.5c1,1.3,2.3,2.6,2.9,4.2c0.6,1.6,0.7,2.9,1,4.3
		c1.3,5.9,3.4,11.6,8.3,15.5c2.6,2.1,5.7,3.4,8.8,4.7c3.1,1.4,5.3,2.6,7.2,5.1c1.9,2.5,2.9,4.8,4.2,7.3c0.7,1.4,2.9,0.2,2.1-1.2
		c-1.5-2.9-2.9-5.9-5.1-8.4c-0.1-0.2-0.3-0.4-0.5-0.6c0-0.2-0.1-0.5-0.3-0.7c-0.6-0.6-1.1-1.3-1.6-2.1c-0.4-0.7-0.6-1.4-0.8-2.2
		c-0.1-0.3-0.1-0.7-0.1-1c0-0.4,0-0.9,0-1.3c0-0.1,0-0.2,0-0.3v0c0,0,0,0,0-0.1s0.1-0.3,0.1-0.5c0-0.1,0.1-0.4,0.2-0.6
		c0-0.1,0-0.2,0.1-0.2l0.1-0.2c0.1-0.3,0.3-0.6,0.5-0.9l0.1-0.2l0,0l0.3-0.4c0.2-0.2,0.5-0.4,0.7-0.6h0l0.2-0.2l0.4-0.3
		c1.3-0.9,2.8-1.9,3.3-3.4c0.5-1.5-0.3-2.8-0.9-4.1c-0.1-0.1-0.1-0.2-0.2-0.4c0,0,0-0.1,0-0.1L65,94.9l-0.1-0.5L64.8,94
		c0,0,0-0.1,0-0.1v-0.1c0-0.2,0-0.3,0-0.5c0-0.1,0-0.2,0-0.3c0,0,0,0,0-0.1c0-0.1,0-0.3,0.1-0.5c0-0.1,0.1-0.2,0.1-0.4
		s0.1-0.2,0.1-0.2c0.7-1.5,1.7-2.4,3.2-3.2c1.4-0.8,3.2-1.3,4.9-2s3.2-1.3,4-2.8c0.5-0.9,0.6-1.9,0.4-2.9c0-0.4-0.2-0.8-0.3-1.3
		l-0.1-0.6c0-0.2-0.1-0.3-0.1-0.5V78c0,0,0-0.1,0-0.1c0,0,0-0.1,0-0.1c0-0.1,0.1-0.3,0.1-0.4h0c0-0.1,0-0.2,0.1-0.2
		c0.1-0.3,0.3-0.5,0.5-0.8l0.3-0.4h0l0.2-0.3c1-1.2,2-2.3,2.6-3.8c0.7-1.9,0.2-4-0.5-5.8c-0.7-1.8-1.4-3.5-2.2-5.2
		c-1.5-3.3-3.2-6.6-5.1-9.8c-2.1-3.6-4.4-7.1-7-10.5c3.1,2.4,6.2,4.9,9.4,7.3c3.1,2.4,6.6,5,10.1,7.2c3.5,2.2,7.5,2.8,11.4,2.9
		c4.3,0.1,8.6-0.6,12.7-1.4c2.1-0.4,4.3-1,6.5-1.1c2.1-0.1,4.5,0,6.7,0c9-0.1,18.2-0.7,27.1,0.9c4,0.7,8,1.6,12.2,1.6
		c3.8,0,7.5-0.9,10.9-2.7c3.4-1.8,6.4-4.4,9.5-6.8c3-2.4,6.6-5.3,9.9-7.9l0.9-0.7c-1.7,2.3-3.4,4.7-5,7.1
		c-3.6,5.6-6.7,11.5-9.3,17.6c-0.7,1.6-1.4,3.3-1.4,5.1c0,1.8,0.6,2.9,1.5,4.1c0.4,0.6,0.9,1.1,1.3,1.6l0.3,0.3L181,76c0,0,0,0,0,0
		l0.5,0.8l0.2,0.4l0,0.1l0,0.1c0,0.1,0.1,0.3,0.1,0.4c0,0,0,0.1,0,0.2c0,0,0,0.1,0,0.1v0.4c0,0.1,0,0.2,0,0.3v0.1l-0.3,1.2
		c-0.2,0.9-0.3,1.8-0.2,2.7c0.2,0.8,0.5,1.5,1.1,2.1c1,1.1,2.5,1.6,3.9,2.1c1.4,0.5,3,1,4.4,1.8l0.9,0.6l0.1,0.1l0.2,0.1l0.9,0.9
		l1,1.2l0.1,0.2c0,0,0,0,0,0.1l0,0.1l0.1,0.2l0.5,0.7c0.6,0.9,1.2,1.9,1.7,2.9c0,0.1,0.2,0.4,0,0.1c0,0.1,0.1,0.2,0.1,0.3l0.2,0.6
		c0,0.1,0,0.2,0,0.3c0,0.1,0,0.2,0,0.2c-0.1,0.3-0.1,0.6-0.3,0.9l-0.1,0.2c0,0,0,0.1,0,0.1c0,0-0.2,0.3-0.3,0.5
		c-0.3,0.7-0.7,1.4-0.9,2.1c-0.2,0.7-0.4,1.5-0.3,2.3c0,0.5,0.4,1,0.9,1.2c0.9,0.2,1.9,0.6,2.7,1.2c0.8,0.5,1.4,1.1,1.9,1.9
		c0.1,0.1,0.2,0.3,0.2,0.5c0,0.1,0.1,0.2,0.1,0.3c0,0.1,0,0.2,0,0.3c0,0,0,0.2,0,0.3v0.4c0,0,0,0,0,0.1c0,0.1,0,0.2-0.1,0.3
		c0,0,0,0.1,0,0.1l0,0.1c0,0.1-0.1,0.2-0.2,0.3l-0.2,0.3c0,0-0.1,0.2-0.1,0.2c-0.3,0.4-0.7,0.7-1.1,1.1c-0.1,0.1-0.2,0.2-0.2,0.3
		c-2,1.3-3.8,2.9-4.7,5.3c-0.7,1.8-0.7,3.9-0.7,5.8c0,1.9,0,4.1-0.4,6.2c-0.3,1.6,2.1,2.2,2.4,0.6c0.5-2.7,0.4-5.4,0.5-8.1
		c0-1.2,0-2.5,0.5-3.6c0.4-1,1.1-1.9,1.9-2.6c3.6-3.4,8.9-4.2,13-6.8c3.6-2.3,6.9-5.9,7.9-10.2c0.6-2.7,1.5-5.3,2.1-8
		c0.6-2.7,1.8-4.5,3.4-6.5c0.4-0.5,0.8-0.9,1.1-1.4c0.2-0.5,0.5-1,0.9-1.4c0.9-1,1.7-2.1,2.4-3.3c0.7-1.2,1.4-2.4,1.9-3.7
		c0.5-1,1.1-2,1.2-3.2c0.7-1.1,1.1-2.7,1.4-3.9c0.4-1.8,0.7-3.6,1.1-5.3c0.9-3.8,1.9-7.6,2.8-11.4c1.7-7.4,3.1-14.9,3.9-22.4
		c0.2-1.9,0.3-3.7,0.4-5.6C242.3,22.3,242.5,21.3,242.3,20.4z M75.1,82.5C75.1,82.6,75,82.6,75.1,82.5L75.1,82.5z M69.9,50.2
		c1.9,3.1,3.7,6.3,5.3,9.6c0.8,1.6,1.5,3.3,2.2,4.9c0.7,1.6,1.6,3.4,1.5,5.1c0,0.2,0,0.3,0,0.5l-0.1,0.5c0,0,0,0.1,0,0.1l-0.1,0.1
		c-0.1,0.2-0.2,0.3-0.3,0.5l-0.5,0.8h0l-0.1,0.2l-0.4,0.5c-0.8,1-1.7,2-2.1,3.1c-0.7-0.7-1.4-1.3-2.1-1.9c-0.5-0.4-1.1-0.8-1.7-1.2
		L71,73l-0.1,0l-0.4-0.3c-0.3-0.2-0.5-0.4-0.8-0.7c-0.3-0.2-0.5-0.5-0.7-0.7l-0.3-0.4l-0.1-0.2h0c-0.2-0.2-0.3-0.5-0.5-0.8l-0.2-0.4
		v0c0,0-0.1-0.1-0.1-0.2c-0.1-0.3-0.2-0.7-0.3-1.1c0,0,0,0,0,0v-0.2c0-0.2,0-0.4,0-0.5v-0.3c0-0.1,0.1-0.3,0.1-0.5l0.1-0.2
		c0,0,0,0,0,0l0.3-0.5c0.3-0.5,0.2-1.1-0.2-1.5c-1.1-1.1-2.7-1.2-4.1-1.5l-0.4-0.1l-0.1,0h0l-0.2-0.1l0,0l0,0h0c0,0,0,0,0,0v0v-0.1
		c0,0,0,0,0,0v0c0,0,0-0.1,0-0.1c0,0,0,0,0,0l0.2-0.2c0,0,0,0,0-0.1l0.2-0.1c0.2-0.1,0.4-0.2,0.6-0.3h0.1l0.3-0.1l0.7-0.2
		c0.7-0.2,1.2-1.2,0.7-1.8c-1.8-2.6-3.9-5-5.9-7.4l-1.6-1.9L57.3,49L57,48.6c0-0.1-0.1-0.2-0.2-0.2l-0.1-0.2
		c-0.9-1.2-1.8-2.5-2.6-3.8c-0.4-0.7-0.8-1.5-1.2-2.2c0-0.1,0-0.2-0.1-0.2c0,0,0,0,0,0c-0.1-0.2-0.2-0.4-0.2-0.6
		c-0.1-0.4-0.3-0.8-0.4-1.2c-0.2-0.6-1-1-1.6-0.7c-0.5,0.2-0.9,0.8-0.8,1.4c0.8,3,2.5,5.7,4.4,8.2c1.9,2.5,4.2,5.1,6.3,7.6l1.6,2
		l0.2,0.2l0.1,0.1h0l0.2,0.3c-1.4,0.7-2.7,1.9-2.3,3.6c0.2,0.9,0.8,1.6,1.6,2c0.7,0.3,1.5,0.5,2.3,0.6l1.1,0.2
		c-0.8,2.4,0.2,5.2,1.9,7.1c1,1.1,2.2,2,3.4,2.9l0.8,0.6l0.2,0.2h0l0.5,0.4c0.5,0.4,1,0.9,1.5,1.4l0.4,0.4l0.1,0.1L74,79
		c0.2,0.3,0.4,0.6,0.6,0.9l0.1,0.2c0,0,0,0,0,0.1c0.1,0.1,0.1,0.3,0.2,0.5c0,0.2,0.1,0.4,0.1,0.5v0.2v0.1c0,0.2,0,0.3,0.1,0.5
		c0,0,0,0,0,0.1l-0.1,0.3L75,82.6c0,0,0,0.1-0.1,0.1c0,0-0.1,0.1-0.1,0.1l-0.3,0.3l-0.1,0.1l-0.2,0.2l-0.4,0.2L73.1,84H73l-0.3,0.1
		c-3.4,1.3-7.2,2.3-9.4,5.5c-1,1.5-1.4,3.4-1,5.2c0.2,0.8,0.5,1.5,0.9,2.3c0.1,0.2,0.2,0.5,0.3,0.7c0.1,0.2,0.1,0.2,0.1,0.3
		c0,0.1,0.1,0.3,0.1,0.5c-0.1-0.3,0,0,0,0.1c0,0.1,0,0.1,0,0.2c0,0,0,0,0,0c0,0,0,0,0,0c0,0,0,0,0,0l-0.1,0.2h0l-0.2,0.2
		c-0.2,0.2-0.5,0.5-0.7,0.7l-0.2,0.2c-0.1,0.1-0.3,0.2-0.4,0.3c-1.2,0.9-2.4,1.7-3.2,3c-1.5,2.3-1.7,5.5-0.9,8.2
		c-1.1-0.5-2.3-1-3.4-1.6c-3.5-1.5-6.9-3.3-9.5-6.3c-2.5-3-3.4-5.9-4.3-9.2c-0.4-1.7-0.8-3.4-1.2-5.1c-0.3-1.7-1-3.3-2.1-4.7
		c-2.4-3.1-4.9-6.2-6.8-9.7c-1.8-3.5-3.1-8.1-4.2-12.1s-2.1-8.1-3-12.3c-0.8-4.1-1.6-8.3-2.3-12.5c-0.7-4.2-1.5-8.5-1.7-12.7
		c0-1-0.1-2-0.1-3.1c0-1-0.2-2,0.2-2.6c1.1-1.3,3.3-1.9,4.9-2c3.8-0.2,7.6,1.4,11.1,2.7c3.5,1.3,7.5,3,10.6,5.4
		c1.6,1.2,3.3,2.2,5,3.3c1.7,1.1,3.5,2.3,5.2,3.5l1.1,0.8C62.2,38.8,66.3,44.4,69.9,50.2z M62.6,62.3C62.6,62.4,62.6,62.3,62.6,62.3
		L62.6,62.3z M239.8,23.3c-0.1,1.1-0.1,2.3-0.2,3.4c-0.4,4.4-1,8.7-1.8,13.1c-1.6,8.7-4,17.2-5.8,25.9c-0.2,1-0.4,2-0.8,3
		c-0.1,0.4-0.3,0.9-0.4,1.3s-0.4,0.6-0.5,1c-0.1,0.3-0.1,0.8-0.3,1.3c-0.2,0.4-0.4,0.8-0.5,1.2c-0.4,0.9-0.9,1.8-1.4,2.7
		c-0.5,0.9-0.9,1.6-1.5,2.4c-0.5,0.8-1.3,1.5-1.9,2.3c-0.6,0.8-0.6,1.2-1,1.8c-0.4,0.5-1.2,1.5-1.8,2.3c-2.3,3.4-3,7.5-4.1,11.4
		c-0.5,1.9-0.9,3.7-2,5.4c-0.9,1.4-2,2.7-3.3,3.8c-2.4,2-5.6,3.2-8.7,4.6c0.2-1.1,0-2.3-0.5-3.3c-1-2-3.1-3.4-5.2-4.2
		c0.1-0.3,0.1-0.6,0.3-0.9c0,0,0-0.1,0-0.1l0.1-0.2l0.2-0.4c0.2-0.3,0.3-0.6,0.5-1c0.5-1.2,0.9-2.3,0.6-3.6c-0.3-1-0.7-2-1.2-2.9
		c-0.6-1-1.2-2-2-2.9c-0.6-0.9-1.4-1.7-2.1-2.5c-0.9-0.8-2-1.5-3.1-2c-1.5-0.7-3.2-1.2-4.8-1.8l-0.4-0.1l-0.3-0.1
		c-0.3-0.1-0.6-0.3-0.9-0.5l-0.1-0.1c0,0-0.1,0-0.1-0.1c-0.1-0.1-0.2-0.2-0.3-0.3c0,0-0.1-0.1-0.1-0.1l-0.1-0.1l-0.1-0.2
		c0,0,0,0,0,0v0l-0.1-0.2c0,0,0-0.1,0-0.1c0.1-0.1,0.1-0.3,0.1-0.5v-0.2c0-0.1,0-0.3,0.1-0.5c0-0.1,0.1-0.3,0.1-0.4l0.1-0.2
		c0,0,0-0.1,0-0.1c0.1-0.3,0.3-0.6,0.5-0.8l0.3-0.4c0,0,0,0,0-0.1s0.1-0.1,0.1-0.1c0.4-0.5,0.9-1,1.5-1.5l0.8-0.6c0,0,0,0,0,0
		l0.2-0.2l0.4-0.3c2.4-1.8,4.9-3.6,5.7-6.6c0.4-1.2,0.3-2.5,0-3.7l0.8-0.2c0.7-0.1,1.5-0.2,2.2-0.5c0.7-0.3,1.7-0.9,2-1.9
		s-0.1-2.2-0.9-3c-0.4-0.4-1-0.7-1.5-1c1.2-2.2,2-4.7,2.5-7.2c0.7-3.1,1.1-6.3,1.6-9.5c0.2-1.7,0.6-3.3,1-4.9c0.1-0.7-0.3-1.3-1-1.4
		c-0.6-0.1-1.1,0.2-1.4,0.8c-1.7,6-1.7,12.3-3.7,18.2c-0.1,0.4-0.3,0.8-0.4,1.2c0,0.1,0,0.2-0.1,0.2c0.2-0.3,0,0,0,0.1
		c-0.1,0.2-0.1,0.4-0.2,0.6c-0.3,0.7-0.7,1.4-1.2,2.1c-0.4,0.6,0,1.6,0.7,1.8c0.4,0.1,0.7,0.2,1.1,0.3h0.1l0.2,0.1
		c0.1,0.1,0.3,0.2,0.5,0.3c0,0,0,0,0,0l0.2,0.2l0.1,0.1c0,0,0,0.1,0,0.1c0,0,0,0.1,0,0.1l-0.1,0.1l-0.2,0.1l0,0h-0.1l-0.2,0.1
		c-0.6,0.2-1.3,0.2-2,0.4c-0.9,0.2-1.7,0.6-2.4,1.2c-0.4,0.4-0.5,1-0.2,1.5l0.2,0.4v0c0,0,0,0.1,0.1,0.1c0,0.1,0.1,0.3,0.1,0.4
		c0,0.1,0,0.1,0,0.2v0c0,0.3,0,0.6,0,0.9c0,0,0,0.1,0,0.1v0.1c0,0.2-0.1,0.3-0.1,0.5l-0.1,0.4l-0.1,0.2c-0.1,0.2,0,0,0,0
		c-0.1,0.3-0.3,0.6-0.5,0.9l-0.2,0.4v0c0,0-0.1,0.1-0.1,0.1l-0.8,0.8c-0.5,0.5-1,0.9-1.5,1.3l-0.1,0l-0.2,0.2l-0.4,0.3l-0.8,0.6
		c-0.9,0.6-1.8,1.4-2.5,2.2c-0.3-0.6-0.6-1.3-1.1-1.8c-0.4-0.6-0.9-1.1-1.3-1.6l-0.3-0.3c0,0,0,0,0-0.1l-0.1-0.1
		c-0.2-0.2-0.4-0.5-0.5-0.8l-0.2-0.4l-0.1-0.1c0-0.1-0.1-0.3-0.1-0.4l-0.1-0.3c0-0.2,0,0,0-0.2c0-0.8,0.1-1.6,0.3-2.3
		c0.5-1.5,1.1-3,1.8-4.4c0.6-1.5,1.4-3,2.1-4.5c1.4-2.9,3-5.8,4.7-8.5c3.4-5.5,7.3-10.8,11.6-15.6l1.3-1.5c3.4-2.4,6.8-4.7,10.4-6.8
		c3.6-2.1,7.3-4,11.1-5.7c3.7-1.6,7.8-2.8,11.9-2.5c1.6,0.1,3.1,0.9,4,2.2C240.1,21.3,239.8,22.3,239.8,23.3z"/>
</g>
</svg>
