<?xml version="1.0" encoding="utf-8"?>
<!-- Generator: Adobe Illustrator 27.9.0, SVG Export Plug-In . SVG Version: 6.00 Build 0)  -->
<svg version="1.1" id="Layer_1" xmlns="http://www.w3.org/2000/svg" xmlns:xlink="http://www.w3.org/1999/xlink" x="0px" y="0px"
	 viewBox="0 0 265.7 175.6" style="enable-background:new 0 0 265.7 175.6;" xml:space="preserve">
<g>
	<path style="stroke:#000000;stroke-width:3;stroke-linecap:round;stroke-linejoin:round;stroke-miterlimit:10;" d="M247.4,75.3
		c-0.8-3-2-5.8-3-8.7c-0.6-1.5-1.1-3-1.6-4.5c-0.2-0.7-0.4-1.5-0.5-2.2c-0.1-0.3-0.2-0.8-0.3-1.2l0.4,0.1c0.5,0.1,1.1,0.2,1.6-0.2
		c0.5-0.3,0.8-1.3,0.8-2c0.1-1.4-0.2-2.8-0.4-4.2c-0.2-1.4-0.4-2.5-0.7-3.7c-1-5-2.3-9.9-4.7-14.4c-2.3-4.5-5.8-8.6-10.6-10.7
		c-5.2-2.2-10.7-3.6-16.3-4.2c-3-0.3-5.9-0.3-8.9,0.1c-1.4,0.2-2.8,0.5-4.2,0.9c-0.8,0.2-1.5,0.5-2.2,0.8l-0.4,0.2
		c0.1-0.5,0.2-0.9,0.3-1.4c0.1-0.6-0.1-1.3-0.6-1.6c-0.7-0.4-1.4-0.2-2.1,0c-1.5,0.3-2.9,0.8-4.2,1.4c-4.7,2-8.8,5.2-12.1,9.1
		c-1.9,2.2-3.5,4.6-4.9,7.1c-0.1,0.1-0.1,0.3-0.2,0.5c-1.3,1-2.6,2.1-3.8,3.3c-2.1,2.2-4,4.6-5.6,7.3c0,0.1-0.1,0.2-0.1,0.3
		c-2.8,0-5.6,0.1-8.3,0.1c-2.8,0-5.9,0.6-8.8,1.2c-1.4,0.3-2.7,0.2-4.1,0.4c-1.3,0.2-2.7,0.7-4,0.9c-5.7,0.9-11.5-0.2-17-1.4
		c-5.5-1.2-11.4-1.9-17.2-1.5h0c-2.5-4.3-5.9-8-9.9-11c0-0.1-0.1-0.1-0.1-0.2c-2.5-4.4-5.6-8.5-9.5-11.7c-1.9-1.6-4-3-6.3-4
		c-1.4-0.6-2.7-1.1-4.2-1.6c-1.2-0.3-3.4-1.2-3.9,0.6c-0.2,0.6,0.2,1.5,0.3,2.1h0c-0.6-0.3-1.3-0.5-2-0.8c-1.2-0.4-2.5-0.7-3.8-1
		c-2.6-0.4-5.2-0.6-7.9-0.4c-5.6,0.3-11.2,1.5-16.4,3.6c-2.5,1-4.8,2.1-6.9,3.9s-3.4,3.8-4.7,5.9c-2.6,4.4-4.2,9.3-5.2,14.2
		c-0.6,2.8-1.3,5.8-1.4,8.7c0,1.4,0,3.5,1.9,3.3c0.3,0,0.6-0.1,0.8-0.2c-0.1,0.3-0.1,0.5-0.2,0.8c-0.1,0.7-0.3,1.4-0.5,2.1
		c-0.4,1.4-0.8,2.7-1.3,4c-0.9,2.6-2,5.1-2.8,7.7c-1.6,5.2-2.2,10.6-1.3,16c0.5,2.7,1.3,5.3,2.5,7.7c0.1,0.2,0.2,0.4,0.3,0.6
		c0,0.2,0,0.5,0,0.8c0.2,0.7,0.5,1.3,0.9,2c0.6,1,1.3,2.4,2.6,2.6c0.5,0,1,0,1.5-0.3c0.4-0.2,0.8-0.6,1.2-0.7s1.4,0.4,1.6,1
		c0.5,1.1,0.5,2.4,0.7,3.5c0.2,1.1,0.5,2.7,0.8,4c1.1,5.2,2.6,10.4,5,15.1c0.2,0.5,0.4,1,0.7,1.4l0.2,0.3c0.1,0.2,0.2,0.3,0.4,0.5
		l0.1,0.1H37c0,0,0,0,0,0h0.5c0.5-0.1,0.8-0.4,1-0.9c0.2-0.4,0.4-0.9,0.4-1.4c2.1-7,2.7-14.2,3.7-21.4c0.5,1.5,0.7,3.1,0.7,4.6
		c0.1,3.1,0,6.2,0.2,9.4c0.1,3.4,0.5,6.8,1,10.3c0.3,1.7,0.6,3.4,1,5.1c0.2,0.7,0.3,1.7,0.8,2.2c0.6,0.6,1.5,0.6,2.1,0
		c0.5-0.5,0.5-1.4,0.6-2.1c0.1-0.8,0.3-1.5,0.5-2.3c0.1-0.4,0.3-0.9,0.5-1.3c0,0.8,0.1,1.7,0.2,2.5c0.2,1.8,0.4,3.7,0.6,5.5
		c0.4,3.7,0.6,7.4,1.2,11.1c0.1,0.9,0.3,1.8,0.4,2.6c0.2,1,0.5,2,0.8,3c0.5,1.4,1,2.7,1.7,4.1c0.3,0.7,0.7,1.3,1.2,1.8
		c0.5,0.5,1.2,1.3,2,1.3c1.7,0,2.5-1.9,2.7-3.2c0.3-1.8,1-3.5,1.5-5.2s1.1-3.8,1.7-5.6c0.8-2.5,1.8-4.9,2.7-7.4
		c0.1-0.2,0.2-0.5,0.3-0.7l0.5-1.1c0.3-0.7,0.6-1.4,1-2.1c0.6-1.3,1.2-2.6,1.9-3.8c1.8-3.2,3.8-6.3,6-9.3c1.1-1.6,2.3-3.2,3.6-4.8
		c1.2-1.6,2.5-3.3,4-4.6c1.5-1.3,2.7-2.7,4.1-4.1c1.4-1.3,3.1-2.7,4.5-4.1c0.8-0.9,1.8-1.8,2-3.1c0-0.7,0.1-1.3,0.1-2
		c0-0.7,0.1-1.5,0.2-2.2c0.3-2.6,0.9-5.2,1.6-7.8c0.7-2.6,1.6-5,2.5-7.5c0.7-2,1.4-3.9,2.2-5.8c1.7-3.8,3.9-7.4,6.9-10.3
		c3.5-3.3,7.8-4.9,12.4-5.9c3.1-0.7,6.2-0.9,9.4-1.4c1.4-0.2,2.8-0.3,4.2-0.1c1.6,0.2,3.1,0.5,4.6,0.5c2.4,0,4.7,0.4,7,0.9
		c2,0.4,3.9,1,5.8,1.8c1.7,0.8,3.3,1.7,4.8,2.8c1.5,1.1,3,2.4,4.1,3.8c1.3,1.7,2.5,3.5,3.6,5.4c0.5,1,1,2.1,1.4,3.1c0.5,1,1,2,1.3,3
		c1.5,4.3,2.9,8.6,3.9,13c0.5,2.4,0.9,4.9,1,7.4c0.1,0.8,0,1.7,0.3,2.5c0.3,0.9,1,1.6,1.8,2c1.3,1.2,2.7,2.4,4,3.6
		c1.3,1.2,2.3,2.6,3.6,3.7c0.6,0.5,1.3,1.1,1.8,1.7c0.5,0.6,1.2,1.5,1.8,2.2c1.2,1.5,2.3,3,3.5,4.5c2.3,3.1,4.4,6.2,6.3,9.5
		c1.4,2.4,2.7,5,3.8,7.5l0.4,1l0.1,0.2c0.2,0.5,0.4,1,0.6,1.6c0.2,0.5,0.6,1.8,1,2.6c1.6,3.7,2.5,7.6,3.7,11.5
		c0.2,0.8,0.5,1.6,0.8,2.4c0.2,0.8,0.2,1.5,0.5,2.2c0.3,0.7,0.8,1.2,1.5,1.6c0.9,0.4,1.7-0.1,2.4-0.7c1.1-1,1.8-2.5,2.3-3.9
		c0.5-1.4,1.4-3.2,1.7-4.9c0.4-2.2,0.7-4.4,1-6.6c0.3-2.2,0.3-4.3,0.5-6.4c0.1-0.9,0.2-1.9,0.4-2.7c0.1-0.9,0.2-2.2,0.3-3.3
		s0.3-2.1,0.3-3.2v-0.1c0.1,0.2,0.2,0.5,0.3,0.7c0.5,1.3,0.6,2.6,0.9,3.9c0.1,0.7,0.7,1.3,1.5,1.3s1.3-0.6,1.6-1.3
		c0.5-1.6,0.9-3.3,1.2-5c1.2-6.6,1.3-13.3,1.4-20c0-1.9,0.1-3.8,0.8-5.6c1,7.2,1.6,14.4,3.7,21.4c0.1,0.5,0.2,1,0.4,1.4
		c0.1,0.5,0.5,0.8,1,0.8c0.2,0.1,0.5,0,0.7,0l0.1,0h0c0.2-0.1,0.3-0.3,0.4-0.5l0.2-0.3c0.3-0.4,0.5-0.9,0.7-1.4
		c2.1-4.2,3.5-8.6,4.6-13.1c0.6-2.7,1.1-5.3,1.6-8.1c0.1-0.8,0.2-1.8,1-2.4c0.7-0.5,1.5,0.1,2.1,0.5c1.1,0.6,2.3,0.5,3.1-0.5
		c0.8-1,1.7-2.3,2-3.6c0.1-0.3,0-0.6,0.1-0.8c0.1-0.2,0.1-0.3,0.2-0.5c0.3-0.7,0.6-1.4,0.9-2.1c0.5-1.2,0.9-2.5,1.2-3.8
		C249,85.9,248.7,80.5,247.4,75.3z M194.4,19.5C194.4,19.5,194.4,19.5,194.4,19.5C194.4,19.3,194.4,19.4,194.4,19.5z M167.4,44.9
		l0.3-0.4h0l0.1-0.2l0.6-0.8c0.4-0.5,0.9-1,1.3-1.5c0.9-1,1.9-1.9,2.9-2.8c0.5-0.4,1-0.8,1.5-1.2h0l0.1-0.1l0.4-0.3
		c0.3-0.2,0.5-0.4,0.8-0.6c2.2-1.5,4.5-2.8,6.9-3.9h0l0.2-0.1l0.5-0.2l0.9-0.4L186,32c1.2-0.4,2.5-0.7,3.8-1l1-0.2l0.5-0.1h0l0.3,0
		c0.7-0.1,1.5-0.1,2.2-0.2h1l-0.5,0.4c-0.4,0.2-0.7,0.5-1,0.8c-0.7,0.8-0.8,2-0.1,2.9c0.5,0.6,1,1.2,1.6,1.7c1,0.9,2.1,1.7,3.1,2.7
		l0.7,0.7c0.1,0.1,0.2,0.2,0.3,0.4c0.1,0,0.1,0.1,0.2,0.2c0,0,0,0.1,0,0.1s0.4,0.5,0.5,0.8c0.1,0.1,0.1,0.2,0.2,0.3h-0.8l-3.1,0
		c-0.7,0-1.4,0.8-1.1,1.5c1.3,3.5,3.4,6.4,5.5,9.4c1,1.5,2,3,2.9,4.5c0.2,0.4,0.4,0.8,0.6,1.2c0.1,0.2,0.2,0.4,0.3,0.6
		c0,0,0,0.1,0,0.1c0,0,0,0,0,0c0,0.1,0.1,0.2,0.1,0.3c0.3,0.8,0.6,1.7,0.8,2.6l0.1,0.7c0,0.1,0,0.2,0.1,0.4c0,0,0,0.1,0,0.2
		c0,0.5,0.1,1,0.1,1.5c0,0.5,0,0.5,0,0.7s0,0.1,0,0.2l-0.5-0.4l-1-0.8c-0.2-0.2-0.5-0.4-0.7-0.5c-0.5-0.3-1.1-0.2-1.5,0.2
		c-0.2,0.3-0.4,0.6-0.4,1c-0.1,0.5-0.1,1-0.2,1.4c-0.1,0.8-0.2,1.7-0.2,2.5c0,0.4,0,0.8,0,1.2c0.1,0.9,0.2,1.9,0.4,2.8
		c0,0.2,0.1,0.4,0.1,0.6v0.1c0,0,0,0,0,0c0,0.1,0,0.2,0,0.4c0.1,0.5,0.1,0.9,0.1,1.3c0.1,0.8,0.1,1.7,0,2.5c0,0,0,0.1,0,0.1
		c0,0,0,0.2,0,0.2s-0.1,0.3-0.1,0.5s-0.1,0.4-0.2,0.6l-0.3,0.7l-0.1,0.2l-0.2,0.4l-0.2,0.4l-0.1,0.1l-0.1,0.1h0
		c0-0.2-0.1-0.4-0.2-0.6c-0.4-1.5-0.7-3-1.2-4.5s-1.4-3.5-2.6-4.9c-1.2-1.5-2.5-2.4-3.9-3.2l-1.3-2.3c-2.3-4-5.1-7.8-8.5-10.9
		c-1.8-1.6-3.7-3-5.7-4.2c-0.3-0.2-0.5-0.3-0.9-0.4h-0.3l-0.1-0.1c-0.6-0.4-1.3-0.7-2-0.9c-1.2-0.5-2.4-0.9-3.7-1.1
		c-1.5-0.3-3-0.5-4.5-0.6C166.2,46.6,166.8,45.7,167.4,44.9z M200.4,81.3C200.4,81.3,200.4,81.3,200.4,81.3L200.4,81.3z M92,37.7
		l0.8,0.6l0,0l0.2,0.2l0.4,0.3c1,0.8,2,1.7,3,2.7c1,1,2,2.2,2.9,3.4l0,0.1l0.1,0.2l0.3,0.5c0.2,0.3,0.4,0.6,0.6,0.9
		c0.2,0.3,0.4,0.5,0.5,0.8c-1.9,0.3-3.8,0.6-5.6,1.1c-2.5,0.7-4.9,1.4-7.2,2.6c-4.5,2.4-7.9,6.7-10.7,10.9c-1.2,1.8-2.4,3.7-3.4,5.7
		h0c-1.4,0.8-2.6,1.7-3.7,2.9c-1.2,1.2-2,2.7-2.6,4.2c-0.6,1.5-1,3-1.4,4.5l-0.3,1.1c0,0.2-0.1,0.3-0.1,0.5l-0.1,0.2c0,0,0,0,0,0
		c0,0,0-0.1-0.1-0.1h0l-0.2-0.4c-0.1-0.1-0.1-0.2-0.2-0.3c0-0.1,0-0.1-0.1-0.2V80c0-0.1-0.1-0.2-0.1-0.3L65,79.2
		c-0.1-0.2-0.1-0.4-0.2-0.6c-0.1-0.2-0.1-0.3-0.1-0.5l-0.1-0.3c0-0.4-0.1-0.9-0.1-1.3c0-0.9,0.1-1.7,0.2-2.6c0-0.1,0-0.2,0-0.4
		c0-0.1,0-0.2,0-0.2l0.1-0.5l0.2-1.6c0.1-0.7,0.2-1.4,0.2-2.1c0-0.7-0.1-1.5-0.2-2.2L65,65.5c0-0.4-0.1-0.7-0.2-1.1
		c-0.1-0.3-0.3-0.6-0.5-0.7c-0.5-0.3-1-0.2-1.5,0.2l-1.2,0.9l-0.8,0.6c0-0.2,0-0.4,0-0.6s0-0.9,0-1.3l0.1-0.6v-0.1l0.1-0.4
		c0.1-0.9,0.4-1.7,0.7-2.6c0.1-0.2,0.2-0.4,0.2-0.6l0.1-0.3c0,0,0-0.1,0-0.1c0,0,0,0,0,0c0.2-0.4,0.4-0.8,0.6-1.2c1.6-3.2,4-6,5.9-9
		c1.1-1.7,2.1-3.6,2.8-5.5c0.3-0.7-0.4-1.5-1.1-1.5l-2.7,0h-1.1c0.1-0.2,0.3-0.5,0.4-0.7c0.1-0.1,0.2-0.3,0.3-0.4l0.1-0.2l0,0
		l0.1-0.1l0.7-0.8c1-1,2.1-1.9,3.1-2.8c1-0.9,3-2.3,2.4-4.1c-0.3-0.9-1.1-1.4-1.9-2h0.6l1.9,0.1l1,0.1h0.2l0.5,0.1
		c2.6,0.4,5.2,1.1,7.6,2.1l0.5,0.2l0.2,0h0l1,0.4l1.8,0.9c1.2,0.6,2.4,1.3,3.5,2.1C90.9,36.9,91.5,37.3,92,37.7z M66,81.2
		C66,81.2,66.1,81.3,66,81.2c0.2,0.1,0.2,0.1,0.1,0.1S66.1,81.3,66,81.2L66,81.2L66,81.2z M64.6,77.9C64.6,77.7,64.6,77.8,64.6,77.9
		L64.6,77.9z M62.5,65.2C62.4,65,62.5,65,62.5,65.2L62.5,65.2z M71.1,33.2C71.1,33.3,71.2,33.4,71.1,33.2L71.1,33.2z M71.1,33.1
		C71.1,33.1,71.1,33.1,71.1,33.1L71.1,33.1z M72.1,19.5C72.1,19.4,72.1,19.3,72.1,19.5L72.1,19.5z M70.4,23.1
		C70.5,23.2,70.4,23.3,70.4,23.1L70.4,23.1z M25.1,100.6L25.1,100.6C25.2,100.6,25.4,100.6,25.1,100.6z M85.9,109.1
		c-0.8,0.8-1.5,1.6-2.2,2.4c-0.8,0.7-1.7,1.4-2.4,2.2c-3.1,3.6-6,7.5-8.7,11.5c-2.4,3.5-4.5,7.2-6.3,11.1c-0.7,1.6-1.5,3.2-2.1,4.8
		l-0.7,2c0,0,0,0.1,0,0.2l-0.3,0.7c-0.2,0.6-0.5,1.2-0.7,1.8c-1,2.7-1.7,5.4-2.5,8.2c-0.4,1.3-0.9,2.5-1.2,3.8
		c-0.1,0.4-0.1,1.5-0.5,1.9c-0.3-0.3-0.5-0.5-0.7-0.8c-0.3-0.5-0.6-1.1-0.9-1.7c-0.5-1.3-1-2.5-1.5-3.8s-0.7-3.4-1-5
		s-0.4-3.4-0.6-5.1c-0.2-1.7-0.2-3.1-0.4-4.7s-0.3-3.2-0.5-4.8c-0.2-1.6-0.5-3.5-0.3-5.2c0.1-0.8,0.4-1.5,0-2.2
		c-0.5-0.7-1.4-0.9-2.1-0.5c-0.7,0.4-1.2,1.3-1.7,1.9c-0.4,0.7-0.8,1.5-1.1,2.2l-0.3,0.9c-0.2-1.2-0.5-2.4-0.6-3.6
		c-0.4-2.5-0.6-5-0.7-7.6c-0.1-2.5-0.2-5-0.2-7.5c0-2,0-4-0.3-6c-0.2-1.3-0.5-2.6-1.1-3.7c0-0.2,0-0.5-0.1-0.7
		c-0.2-0.4-0.5-0.8-0.9-1.1c0-0.1-0.1-0.2-0.2-0.2l-0.4-0.5c-0.5-0.5-1.3-0.5-1.7,0c-0.1,0.1-0.2,0.3-0.3,0.5c0,0.1,0,0.1,0,0.2v0.1
		c-1.2,7.6-1.7,15.4-3.7,22.9c-2-4.3-3.3-8.9-4.3-13.5c-0.3-1.4-0.6-2.8-0.9-4.3c-0.3-1.4-0.3-2.7-0.9-3.9c-0.5-1.2-1.3-1.9-2.5-2.2
		c-1.1-0.3-2.3,0.1-3.3,0.7l-0.3,0.2l-0.2-0.3c-0.5-0.6-0.8-1.3-1.2-2c-0.2-0.5-0.2-1-0.4-1.5c-0.2-0.5-0.7-1.4-1-2.1
		c-1.1-2.6-1.8-5.4-2-8.3c-0.4-5.9,1.1-11.4,3.2-16.9c1.2-3.1,2.4-6.3,3.1-9.6c0.2-1.3,0.8-4.1-1.5-3.8c-0.4,0.1-0.8,0.2-1.1,0.3
		c0-0.4,0-0.9,0.1-1.1c0-0.7,0.2-1.4,0.3-2.1c0.2-1.2,0.4-2.5,0.6-3.7c0.5-2.5,1.1-5,1.8-7.4c1.5-4.7,3.7-9.6,7.3-13
		c1.9-1.9,4.2-3,6.7-4c2.7-1,5.5-1.9,8.3-2.4c5.2-1,10.7-1.6,15.8-0.4c1.4,0.3,2.7,0.8,4,1.4c0.7,0.3,1.4,0.9,2.1,1
		c0.8,0.1,1.5-0.5,1.6-1.2c0.1-0.6-0.2-1.4-0.3-2c0-0.1-0.1-0.3-0.1-0.5L73,21l1.8,0.5c1.1,0.4,2.2,0.9,3.2,1.4
		c1.9,1,3.7,2.3,5.4,3.7c2.1,1.9,4,4,5.6,6.3c-3.6-2.1-7.5-3.5-11.6-4.3c-3-0.6-6.1-0.8-9.2-0.5c-0.5,0-1,0.3-1.1,0.9
		c-0.1,0.5,0.1,1,0.5,1.3l2.1,1.7l1,0.8l0.1,0h0l0.2,0.2l0,0c0,0,0,0,0,0h0L70.2,34l-1.6,1.4c-1,0.9-2.1,1.8-3,2.9s-2.6,3.4-1.1,4.8
		c0.7,0.7,1.8,0.7,2.7,0.7h1.3L68,44.6c-0.4,0.8-0.9,1.6-1.4,2.3c-1,1.6-2.1,3-3.1,4.5c-2.1,3-4.1,6.3-4.9,9.9
		c-0.5,2.1-0.4,4.3,0.2,6.4c0.1,0.4,0.4,0.7,0.8,0.8c0.5,0.1,0.8,0,1.2-0.3l1.9-1.4c0.1,0.6,0.1,1.3,0.2,1.9c0,0.3,0,0.6,0,0.9
		c0,0.4-0.1,0.8-0.1,1.1c0,0.4,0,0.2,0,0.3v0.1c0,0.2-0.1,0.5-0.1,0.7c-0.2,1.6-0.5,3.3-0.5,5c0,1.3,0.3,2.5,0.7,3.7
		c0.4,1,1,2.3,2.1,2.8c0.9,0.4,2,0.2,2.6-0.6c0.5-0.7,0.7-1.5,0.9-2.3c0.3-1.4,0.8-2.8,1.2-4.2l0.2-0.6l0.1-0.2
		c-0.1,0.3,0.1-0.1,0.1-0.2c0.1-0.4,0.3-0.7,0.5-1c0.2-0.3,0.4-0.7,0.6-1h0c-0.4,0.8-0.7,1.6-0.8,2.5c-0.3,1.4-0.1,2.8,0.5,4
		c0.2,0.4,0.6,0.6,1,0.6c1,0,1.7-0.5,2.6-0.8c0,0.1,0.1,0.3,0,0.5c0,0.9-0.6,1.8-0.8,2.7s-0.4,2.4-0.6,3.5C72.3,91.1,71,96,70.8,101
		c-0.1,2.3,0,4.6-0.1,6.8c0,0,0,0.1,0,0.1c-0.1,0.5-0.2,0.9-0.1,1.4c0,0.1,0,0.2,0,0.2c0,0.3,0.2,0.6,0.5,0.8l0.4,0.2h0.4
		c0.3,0,0.5-0.1,0.7-0.3c1.1-0.9,1.8-2.1,2.5-3.4c0-0.1,0.1-0.2,0.1-0.3c0-0.1,0.1-0.2,0.1-0.3c3.6-6,6.6-13.6,13.1-16.8
		c0.9,5.1,1.6,10.2,2.2,15.4C89.1,106.3,87.4,107.6,85.9,109.1z M173,93.5c-1-4.4-2.3-8.8-3.9-13c-0.4-1.1-1-2.2-1.5-3.3
		c-0.5-1.1-0.9-2.1-1.5-3.2c-1-1.9-2.2-3.6-3.5-5.3c-2.3-3.1-5.7-5.6-9.1-7.2c-2.1-1-4.2-1.7-6.5-2.2c-2.7-0.6-5.4-1.1-8.2-1.1
		c-2.8,0-5.4-0.9-8.1-0.5s-5.7,0.7-8.4,1.2c-5,0.8-10,2.3-14.1,5.5c-7.2,5.6-10.3,14.7-13,23c-1,2.9-1.7,5.9-2.3,8.9
		c-0.2,1.4-0.4,2.7-0.5,4.1c-0.5-4.3-1.2-8.6-2-12.9c-0.1-0.6-0.9-1.1-1.5-0.8c-6.2,2.4-9.9,8-13,13.6c-1,1.7-1.9,3.4-2.9,5.1
		c0-1.3,0-2.5,0-3.8c0.1-2.6,0.4-5.3,0.9-7.9c0.5-2.7,1-5.3,1.5-8c0.2-1.2,0.3-2.3,0.7-3.5c0.4-1.1,0.7-2.1,0.4-3.2
		s-1.1-2.1-2.4-1.9c-0.6,0.1-1.2,0.4-1.7,0.7c-0.4-2,1.1-4.2,1.9-5.8c1.1-2.2,2.3-4.3,3.6-6.4c1.2-2.1,2.6-4,4.1-5.9
		c1.5-1.9,3.2-3.8,5.2-5.2c2-1.3,4.1-2.3,6.4-3c2.5-0.8,5-1.4,7.6-1.7c5.3-0.7,10.8-0.4,16.1,0.6c2.7,0.5,5.4,1.2,8.2,1.6
		c2.8,0.4,5.6,0.8,8.4,0.7c1.4,0,2.8-0.2,4.2-0.4c1.3-0.2,2.6-0.6,3.9-0.9c1.3-0.3,2.6-0.2,4-0.4c1.3-0.2,2.6-0.5,3.9-0.7
		c2.6-0.4,5.3-0.4,8-0.5c2.7-0.1,5-0.1,7.4,0c2.5,0.1,4.9,0.6,7.2,1.4c0.5,0.2,1.1,0.5,1.6,0.7c0.5,0.3,1.2,0.8,1.7,0.6l0.1,0
		l0.3,0.2l0.7,0.4l1.5,1c3.6,2.5,6.5,5.8,8.9,9.4c1.2,1.8,2.4,3.7,3.4,5.7c0.5,1,1,1.9,1.5,2.9c0.5,1,1.1,2.1,1.3,3.2
		c0.1,0.7,0.2,1.4,0.1,2.1c-0.3-0.2-0.6-0.4-0.9-0.6c-0.5-0.2-1-0.3-1.5-0.1c-0.1,0-0.3,0.1-0.4,0.2l0,0c-0.4,0.2-0.6,0.5-0.8,0.8
		c-0.6,1-0.1,2.5,0,3.5s0.4,2.5,0.6,3.8c0.4,2.6,0.9,5.1,1.3,7.6c0.5,2.5,0.9,5.1,1.1,7.7c0.1,1.7,0.2,3.4,0.3,5.1
		c-3.4-5.4-5.6-11.6-10.5-15.8c-1.6-1.4-3.4-2.4-5.4-3.1c-0.6-0.2-1.2,0.1-1.4,0.8c0,0,0,0,0,0.1c-0.8,4.2-1.4,8.3-2,12.5
		C173.8,97.8,173.4,95.6,173,93.5z M74.7,79.5L74.7,79.5L74.7,79.5C74.8,79.5,74.8,79.5,74.7,79.5z M244.8,92.6
		c-0.5,1.4-1.2,2.7-1.7,4.1c-0.2,0.5-0.1,1-0.4,1.5c-0.3,0.7-0.7,1.3-1.1,2l-0.2,0.3l-0.3-0.2c-0.5-0.3-0.9-0.6-1.5-0.8
		c-1.2-0.3-2.5,0-3.4,0.9c-0.9,0.8-1.3,2-1.5,3.1c-0.2,1.1-0.5,2.9-0.8,4.3c-1.1,5.3-2.4,10.7-4.7,15.7c-2-7.5-2.5-15.2-3.7-22.9
		c0,0,0-0.1,0-0.1s0-0.1,0-0.2c-0.1-0.4-0.4-0.7-0.8-0.8c-0.4-0.2-0.9,0-1.2,0.3c-0.1,0.1-0.3,0.3-0.4,0.5c-0.1,0-0.2,0.1-0.2,0.2
		c-0.4,0.3-0.7,0.7-0.9,1.1c-0.1,0.2-0.2,0.5-0.1,0.7c-1.3,2.7-1.4,5.9-1.4,9c0,5-0.2,10-0.8,14.9c-0.2,1.3-0.4,2.7-0.7,4
		c0,0.2-0.1,0.4-0.1,0.5l-0.1-0.5c-0.4-1.4-1.1-2.6-2.1-3.7c-0.4-0.5-0.9-1.1-1.7-1.1c-0.8,0-1.5,0.7-1.5,1.6c0,0.5,0.2,0.9,0.2,1.4
		c0,0.5,0,0.9,0,1.3c0,0.9-0.1,1.8-0.2,2.7c-0.2,1.6-0.3,3.2-0.5,4.8c-0.2,1.6-0.3,3.2-0.5,4.7c-0.3,3.3-0.7,6.6-1.3,9.9
		c-0.3,1.7-1,3.2-1.6,4.8c-0.2,0.6-0.5,1.2-0.9,1.8c-0.2,0.4-0.5,0.8-0.8,1.1c-0.3-0.4-0.4-1.2-0.4-1.6c-0.2-1.1-0.7-2.2-1-3.3
		c-0.8-2.5-1.4-5.1-2.2-7.6c-0.4-1.2-0.9-2.5-1.4-3.6c0-0.1-0.1-0.2-0.1-0.3c0-0.1,0-0.1-0.1-0.2l-0.4-0.9c-0.5-1.3-1-2.6-1.5-3.9
		c-1.6-3.6-3.5-7.2-5.6-10.5c-2.7-4.2-5.6-8.2-8.7-12c-0.8-1-1.6-2.1-2.6-2.9c-0.5-0.4-1-0.8-1.5-1.3c-0.5-0.5-0.8-1-1.3-1.4
		c-1.7-1.8-3.7-3.4-5.5-5.1c0.6-5.2,1.3-10.3,2.2-15.4c5.8,2.6,8.7,9.1,11.6,14.4c1.2,2.3,2.6,4.4,4.2,6.4c0.7,0.8,2.1,0.1,2.1-0.9
		c-0.2-4.1-0.1-8.3-0.8-12.4c-0.7-4.1-1.4-8-2.1-12c-0.2-1.1-0.4-2.2-0.5-3.3l-0.3-1.8c0-0.2,0-0.3,0-0.5l0.4,0.3
		c0.6,0.5,1.5,0.7,2.3,0.6c0.4,0,0.7-0.5,0.8-0.8c0.4-1.3,0.5-2.7,0.3-4.1c-0.1-0.6-0.3-1.2-0.5-1.7c0,0,0.1,0.1,0.1,0.1
		c0.2,0.3,0.4,0.6,0.5,0.9l0.2,0.5c0,0.1,0,0.1,0.1,0.2c0,0.1,0,0.2,0.1,0.2l0,0.1l0.1,0.3c0,0.1,0.1,0.3,0.2,0.5
		c0.1,0.4,0.3,0.7,0.4,1.1c0.2,0.7,0.4,1.4,0.6,2.1c0.4,1.5,0.6,3.6,2.4,3.9c1.8,0.4,2.5-1,3.1-2.1c0.5-1.1,0.9-2.3,1-3.5
		c0.2-1.6,0-3.1-0.2-4.7c0-0.5-0.1-0.9-0.2-1.4l-0.1-0.6v-0.2c0-0.1,0-0.2,0-0.3c-0.1-0.6-0.1-1.2-0.1-1.7c0-0.7,0.1-1.5,0.2-2.2
		l1.9,1.5c0.4,0.3,0.7,0.4,1.2,0.3c0.4-0.1,0.7-0.4,0.8-0.8c1.1-3.7,0.2-7.6-1.5-11s-4-6.2-6-9.2c-0.6-0.8-1.1-1.7-1.6-2.6
		c-0.2-0.4-0.4-0.8-0.6-1.1h0.9c0.9,0,1.7,0,2.5-0.3c1-0.5,1.4-1.6,1-2.6c-0.3-0.7-0.6-1.4-1.1-2c-0.9-1.1-1.9-2.2-3.1-3.1l-1.6-1.4
		l-0.7-0.7c-0.1-0.1-0.3-0.3-0.4-0.4l-0.1-0.1l0-0.1l0.1-0.1l0.1-0.1l0.2-0.1l0.6-0.5l2.4-1.9c0.4-0.3,0.7-0.8,0.5-1.3
		c-0.2-0.5-0.6-0.9-1.1-0.9c-5.4-0.5-10.9,0.5-15.8,2.4c-1.8,0.7-3.6,1.6-5.3,2.6c1.7-2.4,3.6-4.6,5.8-6.6c1.6-1.5,3.5-2.7,5.4-3.7
		c1-0.5,2.1-1,3.2-1.4l1.8-0.5l0.6-0.2c0,0,0,0.1,0,0.1c-0.1,0.6-0.3,1.1-0.4,1.7c-0.3,1.4,1.1,2.3,2.3,1.7c1.2-0.6,2.4-1.1,3.6-1.6
		c5.1-1.6,10.5-1.4,15.6-0.5c2.9,0.5,5.7,1.2,8.4,2.1c2.6,0.9,5.1,1.9,7.3,3.5c3.9,3,6.4,7.9,8,12.4c0.9,2.7,1.6,5.4,2.2,8.2
		c0.3,1.4,0.5,2.8,0.8,4.2c0.1,0.7,0.2,1.5,0.3,2.2c0,0.5,0.1,0.9,0.1,1.3c0,0.1,0,0.2,0,0.3l-0.9-0.3c-0.5-0.1-1.1,0-1.6,0.4
		c-0.5,0.5-0.5,1.3-0.4,2.1c0.4,3,1.4,5.9,2.5,8.8c1,2.8,2.2,5.6,3,8.4c0.7,2.7,1.1,5.6,1.1,8.4C246.2,87.1,245.7,89.9,244.8,92.6z"
		/>
</g>
</svg>
