<?xml version="1.0" encoding="utf-8"?>
<!-- Generator: Adobe Illustrator 27.9.0, SVG Export Plug-In . SVG Version: 6.00 Build 0)  -->
<svg version="1.1" id="Layer_1" xmlns="http://www.w3.org/2000/svg" xmlns:xlink="http://www.w3.org/1999/xlink" x="0px" y="0px"
	 viewBox="0 0 319.4 186.2" style="enable-background:new 0 0 319.4 186.2;" xml:space="preserve">
<g>
	<path style="stroke:#000000;stroke-width:3;stroke-linecap:round;stroke-linejoin:round;stroke-miterlimit:10;" d="M126.2,59.5
		c-12.2-1.9-24.8,0.8-35.1,7.6c-3.5,2.3-6.9,5.1-9.5,8.5c-1.4,1.9-2.2,4-2.8,6.3c-0.1,0.5-0.3,1-0.5,1.5c-0.1,0.2-0.1,0.5-0.2,0.7
		c0,0.1,0,0.2-0.1,0.2c0,0,0,0.1,0,0.1v0.1c-0.2,0.5-0.4,0.9-0.7,1.3l-0.1,0.2c0,0-0.1,0.1-0.1,0.1l-0.6,0.6c-0.7,0.6-0.7,1.9,0,2.5
		c0.7,0.7,1.8,0.7,2.5,0c1.5-1.3,2.3-3.2,2.9-5.1c0.3-0.9,0.5-1.8,0.8-2.7s0.2-0.8,0.4-1.2c0-0.1,0.1-0.2,0.1-0.3l0.4-0.8
		c0.2-0.4,0.5-0.8,0.8-1.3l0.4-0.5c0,0,0,0,0-0.1l0.4-0.4c0.6-0.8,1.3-1.5,2.1-2.2c0.7-0.7,1.4-1.3,2.2-1.9l1-0.8l0.4-0.3l0.7-0.5
		c1.6-1.1,3.3-2.2,5-3.1c0.9-0.5,1.7-0.9,2.7-1.3l1.3-0.6h0.1l0.2-0.1l0.8-0.3c1.8-0.7,3.6-1.3,5.5-1.8c1-0.2,1.9-0.5,2.9-0.6
		l1.4-0.2l0.7-0.1l0.4-0.1h0.1c2.2-0.3,4.4-0.4,6.6-0.4c1.1,0,2.1,0.1,3.2,0.1l1.7,0.2h0.5l0.8,0.1c0.9,0.2,1.9-0.2,2.2-1.2
		C127.7,60.7,127.2,59.6,126.2,59.5z"/>
	<path style="stroke:#000000;stroke-width:3;stroke-linecap:round;stroke-linejoin:round;stroke-miterlimit:10;" d="M306.6,115.6
		c-0.3-6-3-11.5-6.6-16.2c-1.8-2.5-3.9-4.8-5.9-7.1l-2.9-3.5l-0.1-0.1c0,0,0-0.1-0.1-0.1l-0.3-0.4l-0.7-1c-0.4-0.6-0.8-1.2-1.2-1.8
		l-0.4-0.8c-0.1-0.1-0.2-0.3-0.2-0.5c0-0.1-0.1-0.4-0.2-0.4c-0.2-0.6-0.4-1.2-0.6-1.7c-0.4-1.3-0.7-2.7-0.9-4c0-0.3-0.1-0.6-0.1-0.9
		v-0.2c0-0.2-0.1-0.4-0.1-0.6c-0.1-0.7-0.2-1.4-0.2-2.1c-0.1-1.3-0.2-2.7-0.4-4c-0.1-0.8-0.2-1.6-0.4-2.3c0-0.2-0.1-0.4-0.3-0.6
		c1-6.5,1-13.1-1.4-19.3c-1.8-4.9-5.2-9.1-9.6-12s-9.6-4.3-14.7-5c-6.3-0.8-12.7-0.2-19.1-0.3c-6.3-0.1-12.8-1.7-19.1-3.9
		s-12.4-4.4-18.6-6.6c-6.2-2.2-12.5-4.3-18.6-6.8c-2.8-1.1-5.6-2.3-8.5-2.7c-3-0.4-6-0.2-8.9,0c-6.2,0.6-12.4,1.3-18.6,2.2
		c-12.5,2-24.7,5.3-36.5,9.9C99.9,27.5,89,33.7,76.9,37.1c-6,1.7-12.2,2-18.4,3c-5.3,0.8-10.3,2.9-14.6,6.1
		c-8.5,6.4-13.4,16.5-13.3,27.2c0.1,3.4,0.6,6.7,1.7,9.9L32,83.7L31.8,84c0,0-0.1,0.1-0.1,0.1s-0.7,0.8-1,1.2c-1.5,1.6-3,3-4.7,4.3
		h-0.1l-0.3,0.2c-0.2,0.2-0.4,0.4-0.7,0.5l-1.3,1l-2.9,2.2c-1.7,1.3-3.3,2.7-4.8,4.3c-1.6,1.7-2.9,3.7-3.7,5.8
		c-1.1,2.7-1.3,5.7-0.7,8.6c0.6,2.9,2,5.6,4,7.8c1.8,2,4.1,3.6,5.9,5.7l0.3,0.4c0.1,0.1,0.1,0.1,0.2,0.2c0.2,0.2,0.4,0.5,0.5,0.8
		c0.4,0.6,0.7,1.2,1,1.8c0,0.1,0,0.1,0.1,0.2c0,0.1,0.1,0.3,0.2,0.5l0.3,1c0.2,0.6,0.4,1.3,0.5,2c0.6,2.8,1,5.6,1.9,8.2
		c0.3,0.7,0.6,1.5,1,2.2c0.5,0.8,1.6,1.1,2.4,0.6c0,0,0,0,0,0c0.8-0.5,1.1-1.6,0.6-2.4c-0.2-0.3-0.3-0.6-0.5-0.9c0-0.1,0-0.1,0-0.1
		c0,0,0,0,0,0c-0.1-0.2-0.1-0.4-0.2-0.5c-0.1-0.2-0.4-1.3-0.6-2c-0.4-1.3-0.6-2.7-0.9-4.1c-0.5-2.8-1.2-5.7-2.8-8.1
		c-1.6-2.5-3.7-4.2-5.7-6c-0.5-0.5-1-0.9-1.5-1.4l-0.7-0.7l-0.3-0.4l-0.1-0.1l-0.2-0.2c0,0,0,0,0,0l-0.1-0.2l-0.3-0.4l-0.5-0.9
		c-0.2-0.3-0.3-0.6-0.4-0.9h0l0-0.1l-0.2-0.5c-0.2-0.6-0.4-1.3-0.5-2c0-0.2,0-0.3-0.1-0.5c0-0.1,0-0.1,0-0.1c0,0-0.1-0.8-0.1-1.1
		c0-0.7,0-1.3,0.1-2v-0.1c0-0.1,0-0.1,0-0.1c0-0.1,0-0.3,0.1-0.4c0.1-0.4,0.1-0.7,0.2-1.1c0.1-0.3,0.2-0.6,0.3-0.9l0.1-0.3v-0.1
		c0,0,0,0,0,0c0.2-0.5,0.4-0.9,0.7-1.3c0.2-0.4,0.5-0.9,0.8-1.3l0.2-0.3l0.1-0.2l0.1-0.1l0.3-0.3c1.4-1.6,2.9-3,4.6-4.4l0.6-0.5
		l0.1-0.1c0.1,0,0.2-0.1,0.2-0.2l1.3-1l2.6-1.9c2.2-1.7,4.5-3.5,6.4-5.7c0.4,0.8,0.7,1.6,1.2,2.3c2.5,4.6,6.1,8.3,9.3,12.5
		c3.1,4.1,5.8,8.6,5.5,13.9c-0.1,0.9-0.2,1.8-0.4,2.8c0,0.1-0.1,0.2-0.1,0.3c-1,4.2-3.6,8.1-6.3,11.4c-6.9,8.2-16.8,14.7-19.9,25.5
		c-0.7,2.6-1,5.5,0.1,8c1.1,2.5,3.6,4.2,6.1,5.2c5.1,2.2,10.9,1.2,13.9-3.7c3-5,2.5-10.5,3.3-15.7c0.8-5.8,2.1-11.5,3.4-17.2
		c1-4.3,2.3-8.5,3.4-12.7l0.9-0.5l0.4-0.1h0.2l1-0.4l2.2-0.8c2.9-1,6-1.8,9-2.5l0.4-0.1c-1.2,6.1-2.4,12.3-2.1,18.5
		c0.2,4.5,1.2,8.9,3.3,12.8c0.5,0.8,1.6,1.1,2.4,0.6c0.8-0.5,1.1-1.6,0.6-2.4c-0.2-0.4-0.4-0.8-0.6-1.2l-0.3-0.6
		c-0.1-0.1-0.1-0.2-0.2-0.4c-0.4-0.9-0.6-1.8-0.8-2.7c-0.2-0.9-0.5-1.8-0.6-2.8l-0.1-0.6c0-0.1,0-0.3,0-0.4s-0.1-1-0.1-1.5
		c-0.1-1.9-0.1-3.9,0-5.8c0-1,0.1-1.9,0.2-2.9c0.1-1,0.1-0.9,0.1-1.4c0-0.1,0-0.2,0.1-0.4l0.1-0.8c0.5-3.4,1.2-6.7,1.9-10l0.1-0.4
		c1-5,1.8-10,1.7-15.1c0-4.9-1.1-9.7-3.3-14.1c-0.5-0.8-1.6-1.1-2.4-0.6c-0.8,0.5-1.1,1.6-0.6,2.4l0.6,1.3c0,0,0,0.1,0,0.1
		c0,0,0,0.1,0,0.1l0.1,0.3c0.1,0.2,0.2,0.5,0.3,0.8c0.4,1,0.6,1.9,0.8,2.9c0.1,0.5,0.2,1,0.3,1.4c0.1,0.5,0.1,0.5,0.1,0.8
		c0,0.3,0,0.2,0,0.3s0,0.2,0.1,0.3c0.1,1,0.2,2,0.2,3c0.1,2.1,0,4.3-0.2,6.4c-0.1,0.5-0.1,1-0.2,1.5c0,0.1,0,0.2,0,0.4
		c0,0,0,0.1,0,0.1v0.1c0,0.3-0.1,0.6-0.1,0.8c-0.1,1.1-0.3,2.2-0.5,3.2c-0.2,1.1-0.2,1.3-0.4,1.9c-2.1,0.4-4.1,1-6.1,1.5
		c-2,0.5-5,1.4-7.5,2.4c1.5-5.6,3.3-11.2,3.2-17c-0.1-6.4-2.8-12.6-2.1-19.1c0.5-4.7,3-9.1,6.4-12.2c3.4-3.1,7.8-5,12.4-5.2
		c2.3-0.1,2.3-3.6,0-3.5c-9.6,0.3-18.1,6.9-21.3,15.8c-1.9,5.3-1.1,10.9-0.1,16.4c0.5,3,1.2,6,1.1,9.1c-0.1,3.1-0.8,6-1.6,8.9
		l-0.2,0.7c-0.6-1.9-1.5-3.8-2.6-5.6c-2.6-4.2-6-7.7-8.9-11.7c-1.9-2.5-3.4-5.4-4.5-8.3l0.2-0.4c0.3-0.6,0.5-1.2,0.7-1.8
		c0.3-0.8-0.4-2-1.2-2.2c-0.3-0.1-0.6-0.1-1,0c-1.3-5.9-0.9-12,1.3-17.7c3.6-9.1,11.8-15.8,21.3-17.8c5.9-1.2,11.9-1.2,17.8-2.7
		s11.2-3.5,16.6-5.9c5.4-2.3,10.8-5,16.3-7.3c5.6-2.3,11.3-4.4,17.1-6.1c11.7-3.6,23.7-5.8,35.9-7c5.8-0.6,11.5-1.7,17.2,0.1
		c2.7,0.9,5.3,2.1,8,3.1l9,3.2l18.6,6.6c5.7,2.1,11.5,4.2,17.5,5.4c11.6,2.1,23.6-1.1,34.9,2.8c4.6,1.6,8.9,4.3,11.7,8.4
		s3.9,8.9,4,13.8c0.4,11.3-4.1,21.9-5.9,32.9c-1,6-1.2,12.2,0.4,18.1c0.4,1.3,0.8,2.6,1.3,3.9c0,0.1,0,0.1,0,0.2
		c-0.9,3.3-0.9,6.8-0.5,10.2c-4.6-3.6-10-6.1-15.8-7.1c-1.8-0.3-3.6-0.4-5.5-0.5l-0.6-0.1l-0.2-0.1l-0.6-0.1l-0.4-0.1h0l-0.3-0.2h0
		l-0.1-0.1l-0.2-0.2l-0.1-0.1c0,0,0,0,0-0.1c-0.1-0.1-0.2-0.3-0.3-0.4l-0.1-0.1c0-0.2-0.1-0.4-0.2-0.5l-0.1-0.6v-0.1
		c0-0.1,0-0.1,0-0.2c0-0.2,0-0.4,0-0.5c0,0,0-0.2,0-0.3c0,0,0-0.1,0-0.1c0-0.1,0-0.2,0.1-0.3l0.2-0.7l0.2-0.6l0.1-0.2c0,0,0,0,0-0.1
		c0.2-0.4,0.4-0.8,0.6-1.2c0.5-0.8,1-1.7,1.4-2.5c3.9-6.4,7.6-13.2,8.8-20.7c1-6.9,0-14.5-4.7-20c-4.1-4.7-11-7.4-17.2-5.6
		c-0.8,0.2-1.6,0.6-2.3,0.9c-0.8,0.5-1.1,1.6-0.6,2.4c0.5,0.8,1.6,1.1,2.4,0.6l0.2-0.1l0.2-0.1h-0.1l0.3-0.1
		c0.4-0.1,0.7-0.2,1.1-0.3c0.3-0.1,0.6-0.2,1-0.2l0.1,0c0,0,0.1,0,0.1,0l0,0h0c0.2,0,0.3,0,0.5,0c0.7,0,1.5,0,2.2,0l0.4,0.1h0.2
		c0,0,0.1,0,0.1,0l1.1,0.2c0.7,0.1,1.4,0.4,2.1,0.6h0.1c0,0,0,0,0.1,0.1l0.5,0.2l1,0.5c0.6,0.4,1.2,0.8,1.8,1.2l0.2,0.1l0.4,0.4
		l0.8,0.7l0.7,0.8l0.4,0.5l0.1,0.1c0,0,0,0,0,0v0h0v0h0c0.5,0.6,0.9,1.3,1.3,2l0.5,1.1l0.2,0.6l0.1,0.3c0.3,0.8,0.5,1.6,0.7,2.3
		c0.2,0.8,0.3,1.6,0.5,2.4c0,0.1,0,0.2,0,0.3c0,0.2,0,0.4,0.1,0.6s0.1,0.8,0.1,1.3s0,1.7,0,2.5s0,0.8-0.1,1.2c0,0.4,0,0.4-0.1,0.6
		c0,0.1,0,0.2,0,0.3v0.1c-0.2,1.7-0.6,3.4-1.1,5.1c-0.3,0.9-0.6,1.8-0.9,2.6c-0.3,0.8-0.4,0.8-0.5,1.3c-0.1,0.4-0.1,0.2-0.1,0.3
		l-0.3,0.7c-1.6,3.4-3.3,6.7-5.3,9.9l-0.7,1.2c-0.3-3.1-0.7-6.2-1.1-9.3c0-0.5-0.2-0.9-0.5-1.2c-0.3-0.4-0.8-0.5-1.2-0.5
		c-0.8,0-1.9,0.8-1.8,1.8c0.8,5.8,1.6,11.7,1.7,17.6c0.1,2.9,0,5.9-0.4,8.8c0,0.2,0,0.4-0.1,0.5v0.2l-0.2,1.2
		c-0.1,0.7-0.2,1.4-0.4,2.1c-0.3,1.4-0.6,2.8-0.9,4.2c-0.7,3.4-1.1,6.7-0.4,10.1c0.2,1,1.2,1.5,2.2,1.2c1-0.2,1.5-1.2,1.2-2.2
		c-0.1-0.3-0.1-0.6-0.2-0.9c0,0.1,0-0.2,0-0.2s0-0.5-0.1-0.7c0-0.7,0-1.4,0-2.1l0.1-1c0-0.2,0-0.4,0-0.5c0-0.1,0-0.1,0-0.2v-0.2
		c0.1-0.7,0.2-1.4,0.4-2.1c0.5-2.8,1.3-5.6,1.7-8.5c0.2-1.7,0.4-3.3,0.4-5l0.2,0.1c1.8,0.9,3.7,0.8,5.7,1l1.1,0.1l0.6,0.1l0.4,0.1
		c0.9,0.1,1.7,0.3,2.6,0.6c1.7,0.4,3.3,0.9,4.9,1.5l0.5,0.2l0.2,0.1l1.2,0.5c0.8,0.4,1.6,0.8,2.3,1.2l2.1,1.3l1,0.7l0.4,0.3l0.5,0.4
		c0.6,0.5,1.3,1.1,1.9,1.6l0.4,0.3c0.2,1.3,0.5,2.6,0.8,3.9c1.2,6,2.7,12.2,4.9,18c0.9,2.4,2.1,4.7,3.8,6.6c1.7,1.9,4.1,3.9,6.7,3.2
		c2.6-0.7,3.8-3.2,4.4-5.5c0.6-2.4,0.8-5,0.5-7.4c1.3-2.5,1.6-5.4,1.5-8.3c0-1.4-0.1-2.8-0.1-4.1c0-0.7,0-1.4,0.1-2.1
		c0-0.1,0-0.3,0-0.5c0-0.1,0-0.1,0-0.2c0-0.4,0,0,0,0.1s0.1-0.4,0.1-0.5l0.1-0.6c0.1-0.3,0.2-0.6,0.3-1c0-0.1,0.1-0.3,0.1-0.5
		l0.1-0.2v-0.1c0.3-0.6,0.6-1.3,1-1.9c0.7-1.3,1.6-2.5,2.3-3.8C306.2,121.5,306.8,118.6,306.6,115.6z M44.4,140.7
		c-1.1,5.6-1.8,11.2-2.5,16.8c-0.6,4.5-2.6,9.6-7.9,9.2c-2.4-0.2-5.3-1.3-6.9-3.2c-1.6-1.8-1.1-5.1-0.4-7.4
		c1.5-4.9,4.9-8.9,8.3-12.6s7.9-7.7,11.4-11.9C45.6,134.6,45,137.7,44.4,140.7z M295.3,154.7c-0.2,0.8-0.6,1.8-1.3,2.3
		c-0.7,0.5-2.2-0.5-2.9-1.2c-1.8-1.7-2.9-3.9-3.8-6.2c-2.2-5.6-3.5-11.5-4.7-17.3c-0.9-4.4-2-9.1-1.8-13.6c1,1.8,2.2,3.5,3.3,5.2
		c3.1,4.7,6.5,9.2,8.9,14.3C295.3,143.3,296.9,149.2,295.3,154.7z M303.1,117.4c0,0.3,0,0.7-0.1,1v0.1c0,0,0,0.1,0,0.1
		c0,0.2-0.1,0.4-0.1,0.5c-0.1,0.6-0.3,1.3-0.5,1.9c0,0.2-0.1,0.4-0.2,0.5c0,0.1,0,0.1-0.1,0.2l-0.5,1c-0.4,0.6-0.7,1.3-1.1,1.9
		c-0.8,1.2-1.5,2.5-2.2,3.8c-1.2,2.8-1.3,5.7-1.2,8.7c0,0.8,0.1,1.7,0.1,2.5c-3.3-8.6-9.8-15.7-14.3-23.7c-2.9-5.4-4.4-11-4.1-17.2
		c0.2-6.1,1.9-12.7,3.5-18.9c0.2-0.7,0.4-1.5,0.6-2.3c0.2,2.4,0.8,4.9,1.7,7.2c0.5,1.4,1.2,2.7,2.1,4c0.9,1.3,1.9,2.5,2.9,3.7
		c1.9,2.3,3.9,4.5,5.7,6.8l0.6,0.8l0.3,0.4l0.2,0.2l0.1,0.1l0.1,0.1c0.1,0.1,0.1,0.1,0.1,0.2l0.4,0.4l0.7,1c0.8,1.2,1.6,2.4,2.3,3.6
		l0.9,1.8l0.2,0.5c0,0,0,0.1,0.1,0.2c0.1,0.4,0.3,0.7,0.4,1c0.5,1.3,0.8,2.7,1.1,4c0,0.2,0.1,0.3,0.1,0.5h0v0.2l0.1,1.1
		C303.1,116.1,303.1,116.7,303.1,117.4z"/>
	<path style="stroke:#000000;stroke-width:3;stroke-linecap:round;stroke-linejoin:round;stroke-miterlimit:10;" d="M223.4,64.2
		l-5-2.2c-1.6-0.7-3.2-1.5-4.8-2.1c-1.9-0.7-3.8-1.1-5.8-1.1c-1,0-1.7,0.8-1.8,1.8c0,1,0.8,1.8,1.8,1.8l1.1,0.1h0.2
		c0.2,0,0.4,0,0.6,0.1c0.8,0.1,1.5,0.4,2.3,0.6l1.1,0.4l0.5,0.2l0.2,0.1l0.2,0.1l0.1,0.1l0.2,0.1l0.5,0.2l1.2,0.5c3,1.3,6,2.6,9,4
		c0.2,0.1,1.9,0.9,1.8,1.1l0.2,0.2l0.4,0.4l0,0c0,0,0,0,0.1,0.1c0.1,0.1,0.2,0.3,0.3,0.5c0.5,0.8,1.6,1.1,2.4,0.6
		c0.8-0.5,1.1-1.6,0.6-2.4C229.5,66.5,226.1,65.4,223.4,64.2z"/>
</g>
</svg>
