<?xml version="1.0" encoding="utf-8"?>
<!-- Generator: Adobe Illustrator 27.9.0, SVG Export Plug-In . SVG Version: 6.00 Build 0)  -->
<svg version="1.1" id="Layer_1" xmlns="http://www.w3.org/2000/svg" xmlns:xlink="http://www.w3.org/1999/xlink" x="0px" y="0px"
	 viewBox="0 0 307.5 220" style="enable-background:new 0 0 307.5 220;" xml:space="preserve">
<g>
	<path style="stroke:#000000;stroke-width:3;stroke-linecap:round;stroke-linejoin:round;stroke-miterlimit:10;" d="M137,72.3
		l-0.1-0.1l-3-1c-0.5-0.2-1.1-0.4-1.7-0.4c-0.8,0-1.5,0.7-1.9,1.3c-0.9,1.5-0.5,3.2-0.5,4.8c0,0.1,0,0.1,0,0.2h0.1c0,0,0,0-0.1,0.1
		v0c0,0,0,0.1,0,0.1l-0.1,0.1h0c-0.1,0.1-0.1,0.1-0.1,0c0-0.1-0.1,0.1-0.1,0.1h-0.1l-0.8,0.3c-1.3,0.3-2.6,0.4-3.9,1
		c-0.6,0.3-1.1,0.7-1.5,1.2c-0.7,0.8-1.1,1.9-1.1,3c0,0.4-0.1,0.7-0.1,1V84c0,0.1-0.1,0.1-0.1,0.2v0.1c0,0,0,0,0,0.1h0l-0.1,0.1
		h-0.1l-0.6,0.1c-0.9,0.1-1.8,0.4-2.5,1c-0.7,0.5-1.2,1.4-1.5,2.2c-0.1,0.7-0.2,1.5-0.2,2.2v1.5c0,0,0,0.1,0,0.1c0,0,0,0.1,0,0.1
		c0,0,0,0,0,0.1l-0.2,0.1c-1,0.3-1.9,0.8-2.6,1.4c-1.2,1.1-2.2,2.6-3,4c-0.8,1.4-1.5,2.5-2.3,3.7l-0.3,0.4c0,0,0,0,0,0
		c0,0,0,0,0,0.1c-0.2,0.3-0.4,0.5-0.7,0.8l-0.3,0.3l-0.2,0.1l-0.7,0.4H106h0h-0.1l-0.3,0.1h-0.8c-1,0-2,0.1-3,0.3
		c-1.5,0.2-3,0.5-4.4,1c-2.7,1-5.2,2.5-7.2,4.5c-1,1-1.9,2.1-2.7,3.3c-0.2,0.3-0.4,0.7-0.7,1v0.1l-0.1,0.1l-0.4,0.5
		c-0.5,0.6-1.1,1.2-1.6,1.7c-2.4,2.3-4.9,4.4-6.9,7c-0.5,0.6-0.9,1.3-1.2,2c-0.4,0.8-0.3,2,0.7,2.5c0.9,0.5,2.1,0.3,2.5-0.7
		c0.3-0.7,0.7-1.3,1.2-1.9l0.2-0.2c0,0,0,0,0,0c0.1-0.1,0.2-0.3,0.3-0.3c0.3-0.3,0.5-0.6,0.8-0.9c1-1.1,2.2-2.1,3.3-3.1
		c1.2-1,2.3-2.1,3.3-3.2c0.6-0.7,1.1-1.4,1.6-2.1l0.5-0.8l0.3-0.4l0.2-0.3l0.2-0.2l0.3-0.4l0.7-0.7c0.4-0.4,0.8-0.8,1.3-1.2l0.7-0.5
		l-0.1,0.1l0.2-0.1l0.4-0.3c0.5-0.4,1.1-0.7,1.6-1l0.8-0.4h0.1c0,0,0,0,0,0h0.1c0.2-0.1,0.1,0,0,0l0.4-0.2c0.7-0.3,1.3-0.4,2-0.6
		c0.7-0.2,1.4-0.3,2.2-0.4l0.5-0.1h0.2l1.3-0.1c0.8-0.1,1.7,0,2.5-0.3c0.7-0.2,1.3-0.5,1.9-0.9c1.2-0.9,2.3-2.1,3.1-3.4
		c0.8-1.2,1.4-2.4,2.2-3.6c0.4-0.7,0.8-1.3,1.2-1.9c0.1-0.1,0.1-0.1,0.1-0.3l0.3-0.4c0.1-0.1,0.2-0.3,0.4-0.4l0.2-0.2l0.2-0.1
		l0.2-0.1l0.2-0.1c0.5-0.1,1-0.3,1.5-0.5c0.8-0.4,1.4-1.2,1.7-2.1c0.4-1.2,0.2-2.6,0.3-3.9v-0.1l0.1-0.3h0l0,0l0,0c0,0,0,0,0,0h0.1
		l0.2-0.1l1.1-0.2c0.9-0.2,1.8-0.6,2.5-1.3c0.7-0.8,1-1.8,1.1-2.9l0.1-1V83c0.1-0.2,0.1-0.4,0.1-0.6l0.1-0.1l0,0h0.1c0,0,0,0,0-0.1
		s0.1,0,0.1,0l0.1-0.1l0.1-0.1l0.3-0.1c0.3-0.1,0.6-0.2,0.9-0.2l1.7-0.3c1.5-0.3,2.8-0.9,3.7-2.2c0.9-1.2,0.7-2.9,0.6-4.4l2.6,0.8
		c1,0.1,1.9-0.5,2.1-1.5C138.3,73.4,137.8,72.6,137,72.3z M125.6,82.4L125.6,82.4C125.5,82.5,125.5,82.6,125.6,82.4z M129.6,77.1
		C129.6,77.1,129.6,77.1,129.6,77.1L129.6,77.1z"/>
	<path style="stroke:#000000;stroke-width:3;stroke-linecap:round;stroke-linejoin:round;stroke-miterlimit:10;" d="M73.9,90.8
		c-0.1-0.1-0.1-0.1-0.3-0.1c-0.9-0.5-2-0.2-2.5,0.7l-0.2,0.3c0,0,0,0,0,0l-0.4,0.5L70,92.4h0l-0.7,0.4c-0.9,0.6-1.8,1-2.7,1.6
		c-1.9,1.3-3.6,3.4-3.5,5.8c0,1.2,0.6,2.4,1.6,3.2l0.4,0.4l-0.2,0.2l-0.1,0.1l-0.1,0.1l-0.1,0.1l-0.7,0.5c-0.5,0.4-1.1,0.7-1.6,1.2
		c-1,0.7-1.7,1.7-2.1,2.8c-0.3,1.2-0.1,2.5,0.4,3.7l0.4,0.5c-0.9,1-1.7,2.1-2.5,3.2s-1.1,1.7-1.6,2.6c-0.4,0.6-0.5,1.2-0.5,1.9
		c0,0.9,0.5,1.8,1.2,2.2l0.6,0.3l0.3,0.1c0,0,0,0,0,0.1v-0.1h0v0.1v0c0,0,0,0,0,0h0c0,0,0,0,0,0.1v0h0c0,0,0,0,0,0l0,0
		c0,0.1-0.1,0.3-0.1,0.5v0.1h0c0,0,0,0.1,0,0.1c-0.4,0.8-1,1.5-1.4,2.3s-0.9,2.3-0.5,3.6s1.6,2.3,2.9,2.7c-1.1,2.9-1.8,5.9-2,9
		c-0.1,1,0.9,1.8,1.8,1.8h1.8c0.1,2.1,0.5,4.2,1.5,6.1c1.2,2.3,3.5,3.8,6,4c1,0,1.8-0.8,1.8-1.8c0-1-0.8-1.8-1.8-1.8h-0.1
		c0.3,0.1-0.1,0-0.1,0c-0.2,0-0.4-0.1-0.6-0.2h0.1l-0.1-0.1l-0.3-0.1l-0.3-0.2h0c-0.1-0.1-0.1-0.1,0,0c0.1,0-0.8-0.8-0.9-0.9h0
		c0,0,0,0,0-0.1l-0.1-0.2l-0.4-0.6c0-0.1-0.1-0.2-0.1-0.3h0c-0.1-0.3-0.2-0.5-0.3-0.8c-0.1-0.3-0.2-1.1-0.3-1.6c0-0.1,0-0.3-0.1-0.4
		s0-0.5,0-0.8l-0.1-1.7c0-1-0.8-1.8-1.8-1.8h-1.6c0-0.2,0.1-0.4,0.1-0.5c0.1-0.8,0.3-1.7,0.5-2.5c0.2-0.8,0.5-1.6,0.8-2.5l0.2-0.6
		l0.1-0.3c0,0,0,0,0-0.1l0.5-1.2c0.6-1.2-0.1-2.7-1.6-2.7c-0.1,0-0.8,0-1-0.1l-0.2,0l-0.5-0.1h-0.2c0,0,0.1,0.1,0,0h0
		c0,0.1,0,0.1,0,0h0v-0.1c0,0,0-0.1,0-0.1c0-0.1,0.1-0.2,0.1-0.3c0.1-0.1,0.1-0.1,0.1-0.3c0.1-0.2,0.3-0.4,0.4-0.7
		c0.5-0.7,0.9-1.5,1.3-2.2c0.7-1.8,0.5-4-1.2-5.1l-0.3-0.1l0.3-0.5l0.8-1.2c0.3-0.4,0.6-0.9,0.9-1.3l0.4-0.5c0,0,0,0,0.1-0.1
		l0.3-0.3c0.7-0.8,1.4-1.6,2.1-2.4c0.5-0.5,0.7-1.3,0.4-2c-0.2-0.6-1-1.2-1.6-1.1h-0.1c0-0.1,0-0.3-0.1-0.4v-0.2c0,0,0-0.1,0-0.1
		c0,0,0,0,0,0s0-0.1,0-0.1c0-0.1,0.1-0.1,0.1-0.1c0,0,0-0.1,0.1-0.1c0-0.1,0.1-0.1,0.1-0.1c0.1-0.2,0.3-0.3,0.5-0.5l0.3-0.2l0.7-0.5
		c1-0.7,2-1.4,2.7-2.3c0.9-1.3,0.8-3-0.3-4.2c-0.3-0.3-0.7-0.6-1-0.8l-0.1-0.1c0,0,0,0,0-0.1c0,0,0,0,0,0h0c0-0.1,0-0.1,0-0.1
		c0,0,0-0.1,0-0.1v-0.1h0v-0.1c0-0.1,0-0.1,0-0.1v0c0-0.1,0-0.1,0-0.2v0c0-0.1,0-0.1,0-0.2c0-0.1,0,0,0-0.1v0.1
		c0.1-0.2,0.2-0.5,0.3-0.7l0.1-0.2l0,0c-0.1,0.2,0.3-0.4,0.4-0.5c0.1-0.1,0.3-0.4,0.4-0.4l0,0c0,0,0,0,0.1,0l0.4-0.2
		c2-1.3,4.2-2.2,5.5-4.4C74.8,92.6,74.7,91.4,73.9,90.8z M59.9,129c0,0,0,0.1,0,0.1S59.9,129.1,59.9,129z M60,129
		C59.9,128.7,60,128.9,60,129L60,129z M60.1,128.6C60,128.9,60.1,128.7,60.1,128.6L60.1,128.6z M64,109.5L64,109.5
		C64.1,109.4,64.1,109.4,64,109.5z M64.7,104.3l0.1-0.1C64.9,104.2,64.8,104.3,64.7,104.3z M65.4,104.2
		C65.4,104.2,65.4,104.2,65.4,104.2C65.4,104.2,65.4,104.2,65.4,104.2z M67.5,98.9C67.5,98.8,67.6,98.7,67.5,98.9L67.5,98.9z"/>
	<path style="stroke:#000000;stroke-width:3;stroke-linecap:round;stroke-linejoin:round;stroke-miterlimit:10;" d="M286.7,176.4
		c-0.3-2.1-0.7-4.1-1.2-6.1c-0.9-3.6-2.1-7.2-3.6-10.7c1.4-0.7,2.4-1.9,2.9-3.3c0.9-2.7-0.3-5.5-1.1-8.1c-0.9-2.5-2-5.3-2.7-8
		c-0.3-1-0.5-2.2,0-2.9l0.5-0.5l0.3-0.1h0.1l0.1,0.1c0.9,0.5,2.1,0.1,2.5-0.7c0.2-0.4,0.3-0.9,0.2-1.4c-2.2-7.7-5.5-15-9.7-21.8
		c0.6-0.5,1-1.2,1.2-1.9c0.7-2.1-0.6-4.1-2-5.5c-2.7-2.7-5.6-5.4-8.4-8.1l2.1-1.4c0.8-0.5,1.2-1.7,0.7-2.5c-2.2-3.1-4.8-5.8-7.8-8.2
		c0.5-1.4,0.2-3.2-0.6-4.4c-0.3-0.5-0.7-1-1.1-1.4l-0.2-0.3c0,0,0,0,0,0c-0.2-0.3-0.4-0.5-0.5-0.8c0-0.1,0-0.1-0.1-0.2
		c0,0,0-0.1,0-0.1c0,0,0-0.1,0-0.1v-0.3c0.1-0.2,0.1-0.3,0.1-0.5c0.1-0.1,0.2-0.6,0.3-0.9c0.5-2.1-0.2-4-1.4-5.7
		c-0.4-0.7-1-1.3-1.4-2.1l-0.3-0.5c0,0,0,0,0,0c0,0,0,0,0,0v0c0,0,0,0,0-0.1c-0.1-0.1-0.1-0.3-0.1-0.4v-0.2c0,0,0-0.1,0-0.2
		c0-0.1,0-0.1,0.1-0.2c0-0.1,0.1-0.1,0,0c0.4-0.6,0.6-1.2,0.8-1.9c0.2-1.2-0.1-2.5-1-3.4c-0.7-0.8-1.6-1.3-2.4-1.8
		c-0.1-0.1-1-0.6-1-0.7l0.2,0.1l-0.2-0.2c-0.1-0.1-0.2-0.1-0.3-0.3c-0.1,0-0.1-0.1-0.2-0.2l-0.1-0.1l-0.3-0.6c0,0,0,0,0,0V58
		c0-0.1,0-0.1,0-0.1c-0.1-0.2-0.1-0.4-0.1-0.6c0-0.1,0-0.1,0-0.2c0,0,0,0,0,0v-0.8c0,0,0-0.2,0-0.2s0.1-0.5,0.2-0.7v-0.1l0.1-0.3
		c0.3-0.4,0.4-0.8,0.4-1.2c0-0.6-0.2-1.1-0.6-1.5c-0.5-0.5-1.2-0.8-1.9-0.8c-0.4,0-0.8,0-1.2,0h-0.3l-0.2-0.1l-0.1-0.1
		c-0.1-0.1-0.1-0.1,0,0s-0.1-0.1-0.1-0.1l-0.1-0.1h0c-0.3-0.4-0.5-0.9-0.8-1.3l-0.1-0.4c0,0,0-0.1,0-0.1c-0.1-0.2-0.2-0.4-0.3-0.6
		c-0.3-0.7-0.5-1.3-0.8-1.9c-1-2.2-2-4.4-3.1-6.6c-2.3-4.3-4.9-8.5-7.8-12.4c-2.7-3.7-5.7-7.6-9.8-9.9c-2.2-1.2-4.7-1.9-7.2-1.7
		c-2.7,0.2-5.3,1-7.8,1.9c-9.3,3.3-18.2,7.8-26.3,13.3c-1,0.7-2,1.4-3,2.1c-0.1,0.1-0.3,0.2-0.4,0.4c-0.9-0.3-1.8-0.5-2.7-0.7
		c-2.6-0.3-5.2,0.1-7.8,0.5c-2.7,0.4-5.3,0.9-7.9,1.6c-2.8,0.7-5.5,1.7-8.2,2.8c-4.8-2-9.8-3.4-14.9-4.2c-3.7-0.6-8.1-1.4-11.8-0.1
		l-0.4-0.3c-8-5.8-16.8-10.6-26-14.2c-2.3-1-4.6-1.8-7.1-2.5c-2.6-0.7-5.4-1-8.1-0.3c-4.5,1.2-7.9,4.8-10.7,8.3
		c-3.1,3.8-5.9,7.9-8.3,12.2c-1.2,2.1-2.3,4.3-3.4,6.5c-0.5,1.1-1,2.2-1.5,3.3s-0.5,1.3-0.8,1.9c-0.1,0.2-0.2,0.5-0.3,0.7l-0.2,0.5
		c-0.2,0.4-0.4,0.8-0.7,1.2l-0.1,0.1l-0.1,0.1l-0.2,0.2c0,0,0,0,0,0h-0.5c-0.5,0-1,0-1.5,0c-0.6,0.1-1.2,0.3-1.7,0.8
		c-0.4,0.4-0.6,1-0.6,1.5c0,0.5,0.1,0.9,0.4,1.3c0,0,0.1,0.1,0.1,0.1v0.1l0.2,0.7v0.1c0,0,0,0.1,0,0.1v0.7c0,0,0,0,0,0.1v-0.1
		c0,0,0,0.1,0,0.1c0,0.1,0,0.1,0,0.2c0,0.2-0.1,0.4-0.1,0.6c0,0.1,0,0.1-0.1,0.2c0,0,0,0,0,0.1c-0.1,0.3-0.3,0.5-0.4,0.7l-0.1,0.1
		l-0.1,0.1c-0.1,0.1-0.1,0.2-0.3,0.3c-0.1,0.1-0.3,0.3-0.1,0.1l-0.1,0.1l-0.3,0.2l-0.6,0.4c-0.8,0.5-1.6,1.1-2.3,1.8
		c-0.9,1-1.2,2.3-1,3.6c0.2,0.6,0.5,1.2,0.8,1.8c0,0.1,0,0.1,0.1,0.2c0,0,0,0,0,0.1v0c0,0,0,0,0,0.1v0.2c0,0.1-0.1,0.3-0.1,0.4
		c0,0,0,0,0,0l0,0.1l-0.4,0.7c-0.9,1.5-2,2.8-2.6,4.5c-0.3,1.1-0.4,2.2,0,3.3l0.2,0.7l0.1,0.5h0c0,0,0,0,0,0.1V78c0,0,0,0.1,0,0.1
		c0,0,0,0.1,0,0.1v0.1l-0.1,0.1c-0.1,0.3-0.3,0.5-0.5,0.7l-0.2,0.3c-0.4,0.5-0.8,1-1.1,1.5c-0.6,0.9-0.9,2-0.8,3.1
		c0,0.4,0.1,0.8,0.3,1.2c-3,2.3-5.6,5.1-7.8,8.2c-0.6,0.8-0.1,2,0.7,2.5l2.1,1.4c-2.8,2.7-5.7,5.3-8.4,8.1c-1.4,1.5-2.7,3.4-2,5.5
		c0.2,0.7,0.7,1.4,1.2,1.9c-4.2,6.8-7.5,14.2-9.7,21.9c-0.3,1,0.4,2,1.4,2.3c0.4,0.1,1,0,1.4-0.2c0,0,0.1,0,0.1-0.1h0.1l0.4,0.1
		c0.2,0.1,0.4,0.3,0.5,0.5c0.5,0.7,0.3,1.9,0,2.9c-0.7,2.7-1.8,5.3-2.7,8c-0.9,2.6-2.1,5.3-1.1,8.1c0.5,1.4,1.5,2.6,2.9,3.3
		c-1.2,3-2.3,6-3.2,9.2c-0.5,2-1,4.1-1.4,6.1s-0.7,3.8,0.6,5.2c0.7,0.7,1.7,1,2.7,0.9c0.4,0,0.7-0.1,1.1-0.1h0.2
		c0.2,0.1,0.1,0,0.3,0.2c0.4,0.3,0.7,0.6,0.9,1c0.3,0.5,0.5,1.1,0.6,1.8c0.2,1.6-0.4,3.5-0.7,5.1c-0.3,1.6-0.4,4,0.3,5.8
		c1.5,3.6,5.1,6.2,9,6.2c2.3-0.1,2.3-3.7,0-3.7c-2.5,0-4.8-1.6-5.7-4c-1.1-3.1,1-6.5,0.6-9.8c-0.4-3.3-2.2-6.2-5.6-6.4l-1,0.1
		c-0.1,0-0.1,0-0.1,0c0-0.3,0-0.6,0.1-0.9c0.3-1.8,0.7-3.7,1.2-5.5c1.1-4.1,2.5-8.1,4.2-11.9c0.7-1.4-0.4-3.1-2.1-2.7
		c-0.3,0.1-0.5,0-0.7-0.1c-0.3-0.2-0.6-0.5-0.8-0.9c-0.4-0.9-0.1-2.1,0.1-3c0.8-2.8,1.9-5.5,2.8-8.3c1-2.7,2.2-5.6,0.7-8.2
		c-0.6-1.1-1.6-2-2.8-2.4c2.3-7.3,5.7-14.2,10-20.6c0.4-0.7,0.3-1.6-0.3-2.2c-0.5-0.5-1.2-0.7-1.8-0.4l-0.1-0.1
		c-0.1-0.3,0-0.6,0.3-1c0.8-1.2,2.2-2.2,3.2-3.3l7.6-7.3c0.9-0.8,0.6-2.3-0.4-2.9L41,94.1c3.8-4.8,8.7-8.5,14.4-10.9
		c1.3-0.5,1.1-2.5,0-3.1C55.2,80,55,79.9,55,79.7l-0.2-0.4c0,0-0.1-0.4-0.1-0.4h0v-0.6c0.1-0.8,0.5-1.6,1.1-2.2
		c2-1.6,4.8-1.5,7.2-1.9c1.3-0.2,2.5-0.8,3.5-1.7c1.1-1.2,1.3-2.9,1.2-4.5c-0.1-0.6-0.1-1.2,0-1.8c0.1-0.4,0.3-0.8,0.6-1.1
		c0.7-0.7,1.6-1.2,2.6-1.4c1.4-0.4,2.9-0.3,4.4-0.3s3.8-0.1,5.5-0.7c1-0.3,1.5-1.3,1.2-2.3c-0.1-0.3-0.3-0.5-0.4-0.8
		c-0.8-0.9-1-2.3-0.6-3.5c0.2-0.6,0.5-1.1,1-1.6c0.5-0.5,1.2-0.8,1.9-0.9c1.7-0.4,3.7,0,5.4,0.1s4,0.3,6-0.3
		c1.2-0.3,1.6-1.6,1.1-2.7l-1.1-2.3c4.3-0.4,8.7-0.1,12.9,1c1.5,0.4,2.5-0.9,2.3-2.3l-0.5-3.8c4-1.2,8.2-1.3,12.2-0.2
		c1,0.3,2-0.3,2.3-1.2c0.1-0.3,0.1-0.7,0-1c-0.3-0.8-0.1-1.8,0.4-2.5c0.5-0.8,1.2-1.5,2.1-1.9c2.3-1.1,5.2-0.7,7.6-0.4
		c5.7,0.8,11.5,2.1,16.9,4.5c0.4,0.2,0.9,0.3,1.4,0.1c0.5,0.1,1,0,1.4-0.1c5.3-2.4,11.1-3.6,16.8-4.5c2.5-0.3,5.3-0.8,7.7,0.4
		c0.9,0.4,1.6,1.1,2.1,1.9c0.5,0.7,0.7,1.7,0.4,2.5c-0.3,1,0.3,2,1.3,2.2c0.3,0.1,0.6,0.1,0.9,0c4-1.1,8.2-1,12.2,0.2
		c-0.1,1.2-0.3,2.5-0.5,3.8s0.8,2.7,2.2,2.3c4.2-1.1,8.6-1.5,12.9-1c-0.4,0.7-0.7,1.5-1.1,2.3c-0.4,0.8-0.1,2.3,1.1,2.7
		c1.9,0.6,4,0.5,6,0.3c2-0.2,3.7-0.5,5.4-0.1c0.7,0.1,1.3,0.4,1.8,0.8c0.5,0.4,0.9,1,1.1,1.6c0.4,1.2,0.1,2.5-0.7,3.5
		c-1,1.1-0.5,2.6,0.8,3c1.5,0.5,3.2,0.7,4.8,0.7c1.4,0,3-0.1,4.2,0.1c1.1,0.1,2.2,0.5,3,1.2c0.3,0.2,0.5,0.5,0.7,0.8
		c0.3,0.4,0.4,0.9,0.4,1.4c0,1.6-0.3,3.2,0.5,4.7c0.7,1.2,1.9,2.1,3.3,2.4c2.5,0.7,5.1,0.3,7.4,1.6c0.4,0.3,0.9,0.7,1.2,1.1
		c0.3,0.4,0.4,0.9,0.5,1.4c0.1,0.7-0.1,1.6-0.7,1.9c-0.5,0.3-1.3,2.6,0,3.1c5.6,2.3,10.5,6.1,14.3,10.9l-2.4,1.5
		c-0.9,0.5-1.2,1.7-0.6,2.6c0.1,0.1,0.1,0.2,0.3,0.3l7.6,7.3c1,1,2.3,2,3.1,3.1c0.1,0.2,0.3,0.4,0.3,0.7c0,0.1,0.1,0.3,0.1,0.4
		c0,0-0.1,0.1-0.1,0.2c-0.7-0.2-1.4,0-1.8,0.4c-0.6,0.6-0.7,1.5-0.3,2.2c4.2,6.4,7.6,13.3,10,20.6c-1.2,0.4-2.2,1.2-2.8,2.3
		c-1.5,2.6-0.2,5.7,0.7,8.3c0.9,2.6,2,5.4,2.8,8.1c0.3,1,0.5,2.2,0.1,3.1c-0.2,0.4-0.4,0.7-0.8,0.9c-0.2,0.2-0.5,0.2-0.7,0.1
		c-1.6-0.4-2.7,1.3-2.1,2.7c1.5,3.4,2.8,6.8,3.8,10.4c0.5,1.9,1,3.7,1.3,5.6c0.1,0.7,0.3,1.4,0.3,2.1v0.2c-0.6-0.3-1.6-0.1-2.2,0.1
		c-0.8,0.2-1.5,0.7-2.2,1.2c-1.1,1-1.8,2.3-2.1,3.7c-0.4,1.7-0.3,3.4,0,5.1c0.3,1.7,0.8,3.3,0.6,4.9c-0.3,2.9-3.1,5.1-5.9,5.1
		c-2.8,0-2.3,3.6,0,3.7c3.5,0,6.7-1.9,8.5-4.9c0.9-1.6,1.3-3.6,1.1-5.4c-0.1-1.9-0.8-3.8-0.9-5.8c0-1.2,0.3-2.5,1-3.3
		c0.3-0.3,0.6-0.5,1-0.7c0,0,0.3,0,0.3,0l0.6,0.1c0.5,0,1.1,0,1.6-0.1C286.5,180.4,286.9,178.2,286.7,176.4z M250.8,55.1
		c0,0,0,0.1,0,0.1C250.8,55.1,250.8,55.1,250.8,55.1z M22.2,177.7C22.3,177.8,22.2,177.8,22.2,177.7L22.2,177.7z M32.8,110.3
		C32.8,110.2,32.8,110.3,32.8,110.3L32.8,110.3z M47,78.5l0.1-0.2C47.1,78.3,47.1,78.4,47,78.5z M120.5,39.6
		c-4.4-0.8-9-0.4-13.3,1.2c-1,0.4-1.4,1.2-1.3,2.3c0.1,1.1,0.3,1.8,0.4,2.7c-4.8-0.9-9.6-1-14.4-0.1c-1.3,0.2-1.5,1.7-1.1,2.7
		l1.1,2.3c-1.4,0-2.9-0.1-4.3-0.3c-2.3-0.2-4.7-0.2-6.8,0.8c-3.3,1.7-4.4,5.6-3.4,8.8c-2.5,0.3-5.1-0.1-7.5,0.5
		c-2.5,0.6-5.6,2.7-6,5.8c0,0.8,0,1.6,0,2.4c0,0.6,0.1,1.3-0.3,1.6c-0.3,0.3-0.7,0.4-1.1,0.5c-0.6,0.1-1.2,0.3-1.8,0.3
		c-3.2,0.3-6.7,1.1-8.6,3.9c-1.3,1.8-1.5,4.1-0.7,6.2c-1.1,0.5-2.1,1.1-3.1,1.8c0.1-0.1,0.1-0.1,0.1-0.2l0.1-0.1
		c0.2-0.3,0.4-0.5,0.6-0.7c0.6-0.7,1.1-1.5,1.4-2.3c0.3-0.9,0.4-1.8,0.1-2.7l-0.3-1.1l-0.1-0.3v-0.4c0-0.1,0-0.1,0.1-0.2
		c0-0.1,0-0.2,0.1-0.3l0.1-0.1c0.3-0.5,0.5-1,0.8-1.4c1.3-2,3.1-4.2,2.2-6.8c-0.2-0.4-0.4-0.9-0.6-1.3l-0.1-0.2c0,0,0-0.1,0-0.1
		l0-0.1l0,0h0c0.1,0,0.1-0.1,0.1-0.1l0.3-0.2h0.1l0.8-0.5c0.6-0.4,1.2-0.8,1.8-1.2c2.1-1.7,2.9-4.6,2.3-7.2c0.5,0,1-0.2,1.5-0.4
		c1.3-0.6,2.2-1.8,2.8-3s0.6-1.4,0.9-2.1c0.1-0.3,0.2-0.6,0.4-0.9c0,0,0.1-0.3,0.1-0.3c0.1-0.2,0.2-0.4,0.3-0.6
		c0.6-1.4,1.3-2.8,2-4.2c1.4-2.8,2.9-5.5,4.5-8.1c0.8-1.3,1.6-2.6,2.5-3.9l1.4-1.9l0.6-0.8l0.4-0.4v-0.1l0.1-0.2
		c1.7-2.2,3.6-4.3,5.7-6.2l0.2-0.1l0.4-0.3l0.8-0.5c0.3-0.2,0.6-0.3,0.9-0.5l0.4-0.2h-0.1l0.3-0.1c0.6-0.3,1.3-0.4,1.9-0.5h0.8
		c0.4,0,0.8,0,1.3,0h0.9l1.2,0.2c0.8,0.2,1.6,0.4,2.5,0.7c1.5,0.5,3,1,4.5,1.6l2.1,0.8l1.1,0.4l0.5,0.2h0.1l0.2,0.1l4.2,1.9
		c5.6,2.7,11,5.8,16.1,9.4l0.8,0.6C121.6,36.5,120.8,38,120.5,39.6z M252.1,63.7C252.3,63.9,252.2,63.8,252.1,63.7L252.1,63.7z
		 M253.7,81c0.7-1.8,0.7-3.7-0.1-5.4c-1.4-2.8-4.7-4-7.7-4.4c-1.3-0.2-2.8-0.2-3.8-0.7c-0.4-0.1-0.6-0.3-0.7-0.6
		c-0.1-0.3,0-1.6,0-2.4c0.1-3.3-2.1-5.7-5.1-6.8s-5.7-0.4-8.5-0.8c1.1-3.2-0.1-7.1-3.4-8.8c-2.1-1.1-4.5-1.1-6.8-0.8
		c-1.4,0.2-2.9,0.3-4.3,0.3l1.1-2.3c0.4-1,0.2-2.5-1.1-2.7c-4.8-0.8-9.6-0.8-14.4,0.1c0.1-0.9,0.3-1.8,0.4-2.7
		c0.1-0.9-0.2-1.9-1.2-2.3c-4.2-1.6-8.8-2-13.3-1.2c-0.3-1.4-0.9-2.7-1.8-3.7l-0.4-0.5c4.7-3.4,9.7-6.4,14.9-9
		c1.4-0.7,2.8-1.4,4.2-2l2.2-1h0.1l0.5-0.2l1.1-0.5c2.9-1.2,5.9-2.4,9-3.1c0.4-0.1,0.8-0.2,1.2-0.2h0.2l0.7-0.1h2c0.1,0,0.1,0,0.1,0
		c0.7,0.1,1.3,0.3,1.9,0.5h0.1l0.4,0.2l1,0.5l0.8,0.5l0.4,0.3l0.3,0.2c0.5,0.4,1,0.8,1.5,1.3c1,1,1.9,2,2.8,3.1
		c0.5,0.5,1,1.1,1.4,1.7l0.2,0.2l0.3,0.4l0.7,1c0.9,1.2,1.8,2.5,2.7,3.8c1.7,2.6,3.3,5.2,4.7,8c0.7,1.4,1.4,2.7,2.1,4.1
		c0.3,0.7,0.6,1.4,0.9,2.1c0.1,0.2,0.2,0.4,0.3,0.5l0.1,0.3c0,0,0,0,0,0.1v0.1l0.1,0.3c0.1,0.2,0.2,0.4,0.3,0.6
		c0.5,1.4,1.1,2.7,2.1,3.8c0.8,0.9,1.9,1.5,3.1,1.6c-0.5,2.3,0.1,4.7,1.6,6.5c0.8,1,2.1,1.6,3.2,2.4h0.1c0.1,0.1,0.2,0.2,0.3,0.2
		l0.2,0.2c0,0,0,0.1,0.1,0.1c-0.1,0.1-0.1,0.2-0.1,0.3c-0.4,0.7-0.7,1.5-0.8,2.4c0,0.6,0,1.2,0.2,1.8c0.3,1.1,1,2.2,1.7,3.1l1,1.4
		l0.3,0.7c0,0,0,0,0,0.1l0.1,0.4c0,0.1,0,0.1,0,0.2c0,0,0,0.1,0,0.1c0,0,0,0.3,0,0.4s0,0.1-0.1,0.2c-0.2,0.9-0.5,1.7-0.5,2.6
		c0,1,0.4,2,1,2.8l1,1.2l0.3,0.4c0,0,0,0,0,0l0.1,0.2C255.8,82,254.8,81.5,253.7,81z M258.1,78.1C258.1,78.1,258.1,78.1,258.1,78.1
		C258.1,78.2,258.1,78.1,258.1,78.1z M283,177.8C283,177.8,283,177.8,283,177.8C283.1,177.8,283.1,177.8,283,177.8z"/>
	<path style="stroke:#000000;stroke-width:3;stroke-linecap:round;stroke-linejoin:round;stroke-miterlimit:10;" d="M221.1,118.6
		c-0.1-0.1-0.3-0.2-0.4-0.3l0,0h0c-0.1-0.1-0.1-0.1-0.2-0.1l-0.8-0.7c-0.5-0.4-1-0.9-1.5-1.4l-0.3-0.3l-0.1-0.1c0,0,0,0,0,0
		c-0.2-0.3-0.3-0.5-0.5-0.8l-0.2-0.4v0.1c0,0,0,0,0-0.1h0c0-0.1-0.1-0.1-0.1-0.2h0l0,0l0,0c-0.1-0.3-0.2-0.7-0.3-1
		c-0.3-1.5-0.8-3-1.6-4.4c-0.8-1.2-2-2.3-3.3-3c-2.7-1.5-5.8-2-8.8-2.3l-2.4-0.2l-1.1-0.1h-0.8l-0.4-0.1l-0.2-0.1l-0.4-0.2l-0.5-0.3
		c-0.1,0-0.3-0.2-0.1-0.1c0.3,0.1,0,0-0.1-0.1l-0.4-0.3c-0.3-0.3-0.5-0.6-0.8-0.9l-0.1-0.1h0l-0.3-0.5l-0.7-1
		c-0.4-0.7-0.8-1.3-1.2-2c-0.9-1.5-1.9-3.1-3.1-4.3c-0.8-0.7-1.7-1.3-2.7-1.5l-0.3-0.1h0c0,0,0-0.1,0-0.1h0v0h0c0,0,0-0.1,0-0.1
		c0,0,0-0.1,0-0.1v-1.5c0-0.8-0.1-1.6-0.3-2.3c-0.3-1-1-1.8-1.9-2.3c-0.8-0.4-1.7-0.5-2.6-0.8h0c0,0-0.1,0-0.1-0.1v0.1h-0.1
		c0,0,0,0,0,0c0-0.1-0.1-0.4-0.1-0.4c0,0,0-0.1,0-0.1V84c0,0,0-0.1,0-0.1c0-0.1,0-0.3-0.1-0.5c0-0.5-0.1-1.1-0.3-1.6
		c-0.5-1.8-2-2.8-3.7-3.2c-0.7-0.2-1.3-0.3-1.9-0.4l-0.9-0.2l-0.4-0.1h-0.1l-0.3-0.1l-0.1-0.1c0,0,0,0,0-0.1l-0.1-0.1
		c0-0.1,0-0.2-0.1-0.3v-0.5c0-0.4,0-0.8,0.1-1.2c0.1-1-0.1-2-0.5-2.9c-0.3-0.5-0.6-1-1.1-1.2c-0.8-0.5-1.6-0.1-2.5,0.1l-3.1,1
		c-0.9,0.3-1.6,1.3-1.3,2.2c0.3,1,1.3,1.6,2.2,1.3l2.6-0.8c-0.1,0.7-0.1,1.4,0,2.2c0.1,1,0.5,2,1.1,2.8c0.5,0.6,1.2,1,2,1.2
		c1.2,0.4,2.4,0.5,3.6,0.8l0.4,0.1h0l0.3,0.1l0.1,0.1l0.1,0.1l0.1,0.5c0,0.1,0,0.2,0,0.3c0,1,0.2,1.9,0.6,2.9c0.5,1,1.4,1.7,2.5,2
		l1,0.3l0.5,0.1l0.3,0.1l0.1,0.1l-0.1-0.1h0c0,0,0,0,0,0h0c0,0,0,0,0,0.1c0,0.1,0,0.1,0,0.2s0,0,0,0.1v0.2c0,0,0,0,0-0.1v0.1
		c0,0.1,0,0.3,0,0.5v1c0,0.7,0.1,1.5,0.3,2.2c0.3,1,1,1.7,1.9,2.2l0.9,0.3l0.3,0.1h0.3l0.3,0.2l0.2,0.1l0.1,0.1
		c0.3,0.3,0.5,0.5,0.8,0.8l0.1,0.1l0.1,0.1l0.4,0.5l1.2,1.9c0.8,1.3,1.6,2.6,2.5,3.8c1.1,1.4,2.3,2.6,4,3.3c1.7,0.7,3.1,0.5,4.6,0.6
		l2.2,0.2l0.5,0.1h0.1c0.4,0.1,0.8,0.1,1.1,0.2l2,0.4l0.9,0.3l0.4,0.1l0.3,0.1h0l0.3,0.1l0.4,0.2l0.8,0.5l0.3,0.2h0l0.1,0.1h0.1
		l0.1,0.1c0.2,0.2,0.4,0.4,0.6,0.6l0.3,0.3v-0.1l0.1,0.1c0,0,0,0,0,0.1c0.2,0.3,0.4,0.5,0.5,0.8l0.2,0.4v0.2c0.1,0.3,0.2,0.6,0.3,1
		c0.2,0.7,0.3,1.4,0.5,2.1c0.3,0.7,0.5,1.4,1,2c0.8,1.1,1.7,2.1,2.8,3l1.9,1.5c0.5,0.4,1.1,0.8,1.6,1.2c-0.4-0.3,0,0,0.1,0.1
		l0.4,0.3l0.8,0.7c0.5,0.4,1,0.9,1.4,1.4c0,0,0.1,0,0.1,0.1h0l0.3,0.4l0.5,0.8c0.5,0.9,1.6,1.2,2.5,0.7c0.8-0.5,1.1-1.6,0.7-2.5
		C226.1,122.2,223.5,120.4,221.1,118.6z M204.3,107.5h0.1C204.7,107.5,204.4,107.5,204.3,107.5z"/>
	<path style="stroke:#000000;stroke-width:3;stroke-linecap:round;stroke-linejoin:round;stroke-miterlimit:10;" d="M248.7,127.4
		c-0.4-0.9-1-1.7-1.6-2.6l-0.3-0.4l-0.1-0.1v-0.1c-0.1-0.2-0.1-0.4-0.2-0.5v-0.1v-0.1c0,0,0,0,0-0.1h0.1c0.7-0.2,1.2-0.7,1.7-1.2
		c0.4-0.7,0.5-1.5,0.3-2.3c-0.3-1.1-1.1-2-1.6-2.9c-0.9-1.3-1.9-2.6-2.9-3.8c0.7-0.9,1-2.1,1-3.2c-0.3-2.7-2.5-4-4.4-5.4l-0.3-0.2
		c0,0-0.1-0.1-0.1-0.1l-0.2-0.2l0.9-0.8c0.5-0.5,0.8-1.1,1-1.8c0.5-2.3-0.7-4.8-2.5-6.2c-1-0.7-2.1-1.4-3.2-2l-0.7-0.4l-0.3-0.2
		h-0.1c0,0,0,0-0.1-0.1l-0.6-0.5l-0.1-0.1c-0.1-0.1-0.1-0.2-0.2-0.4c-0.5-0.8-1.7-1.2-2.5-0.7c-0.8,0.5-1.1,1.6-0.7,2.5
		c1.2,1.9,3.1,2.9,4.9,4l0.6,0.4l0.4,0.2c0,0,0,0.1,0.1,0.1l0.3,0.2c0.1,0.1,0.3,0.3,0.4,0.4l0.1,0.1l0.1,0.3
		c0.1,0.2,0.2,0.4,0.3,0.5c0,0.1,0,0.2,0.1,0.3c0,0.1,0,0.2,0.1,0.3v0.1c0,0.1,0,0.1,0,0.2c0-0.1,0-0.1,0-0.1v0.1h0c0,0,0,0,0,0.1
		v0.1c0,0.1,0,0.1,0,0.1v0.1c0,0-0.1,0.1-0.1,0.1c0,0,0,0,0,0l-0.5,0.5c-1.1,0.9-1.8,2.3-1.3,3.7c0.5,1.4,1.5,2.1,2.6,2.9l1.2,0.8
		l0.2,0.1l0.1,0.1c0.2,0.2,0.4,0.4,0.6,0.6l0.1,0.2l0.1,0.1c0,0.1,0,0.1,0.1,0.2v0.4c0,0,0,0.1,0,0.1c0,0.1,0,0.1,0,0.2c0,0,0,0,0,0
		h-0.1c-0.7-0.1-1.4,0.5-1.7,1.1c-0.3,0.7-0.1,1.5,0.4,2c0.6,0.7,1.2,1.4,1.8,2.1c0.1,0.1,0.3,0.3,0.4,0.5c0.1,0,0.1,0.1,0.1,0.2
		l0.1,0.1c0.3,0.4,0.6,0.8,0.9,1.2c0.5,0.8,1,1.5,1.5,2.3c-1.7,0.9-2.2,3-1.6,4.8c0.3,0.8,0.6,1.5,1.1,2.2l0.7,1.1l0.2,0.5
		c0,0,0,0,0,0c0,0.1,0,0.2,0.1,0.3v0.1c0,0,0,0.1,0,0.1h-0.1l-0.2,0.1l-0.3,0.1l-0.5,0.1h-1c-1.5,0-2.2,1.5-1.6,2.7
		c0.2,0.4,0.4,0.8,0.6,1.2c0,0,0,0,0,0.1l0,0.1v0l0.1,0.2l0.2,0.6c0.3,0.8,0.5,1.6,0.8,2.5c0.2,0.8,0.4,1.7,0.5,2.5l0.1,0.5h-1.6
		c-1,0-1.8,0.8-1.8,1.8c0,0.5,0,1.1-0.1,1.6c0,0.5,0,0.5,0,0.8c0,0.3,0,0.3-0.1,0.5c0,0,0,0,0,0.1c-0.1,0.5-0.2,1-0.3,1.5
		c-0.1,0.3-0.1,0.5-0.3,0.8c0,0,0,0,0,0.1v0.1c-0.1,0.1-0.1,0.2-0.1,0.3c-0.1,0.2-0.2,0.4-0.4,0.6l-0.2,0.3
		c-0.3,0.3-0.6,0.6-0.9,0.9l-0.3,0.1l-0.3,0.2h-0.1l-0.2,0.1L237,150h-0.4c-1,0-1.8,0.8-1.8,1.8c0,0.9,0.8,1.9,1.8,1.8
		c2.6-0.2,4.8-1.8,6-4c1.3-2.2,1.4-4,1.5-6.1h1.8c1,0,1.9-0.8,1.8-1.8c-0.2-3.1-0.8-6.1-2-9c2.2-0.5,3.5-2.6,3-4.8
		C248.8,127.8,248.7,127.6,248.7,127.4z M246.6,123.2C246.6,123.2,246.6,123.2,246.6,123.2C246.6,123.3,246.6,123.3,246.6,123.2
		C246.6,123.2,246.6,123.2,246.6,123.2z M239.8,104.2C239.8,104.4,239.8,104.3,239.8,104.2L239.8,104.2z M245,120.6
		c0,0.1,0.1,0.1,0.1,0.1L245,120.6z M245.4,119.9C245.6,119.8,245.6,119.8,245.4,119.9L245.4,119.9z"/>
</g>
</svg>
