<?xml version="1.0" encoding="utf-8"?>
<!-- Generator: Adobe Illustrator 27.9.0, SVG Export Plug-In . SVG Version: 6.00 Build 0)  -->
<svg version="1.1" id="Layer_1" xmlns="http://www.w3.org/2000/svg" xmlns:xlink="http://www.w3.org/1999/xlink" x="0px" y="0px"
	 viewBox="0 0 250 208.2" style="enable-background:new 0 0 250 208.2;" xml:space="preserve">
<g>
	<path style="stroke:#000000;stroke-width:3;stroke-linecap:round;stroke-linejoin:round;stroke-miterlimit:10;" d="M222.6,120.7
		c-0.5-1.3-0.7-2.8-0.7-4.2c0.1-1.9,0.9-3.7,0.5-5.6c-0.2-0.8-0.5-1.6-0.9-2.4c-0.2-0.5-0.8-1.3-0.6-1.9l0.3-0.4
		c0.3-0.4,0.6-0.9,0.7-1.3c0.2-1.2,0.2-2.4-0.1-3.5c-0.5-2.5-1.9-4.6-2.8-6.9s-1.8-5.1-3-7.5c1-10.1-11.8-12.4-17.5-18.1
		c0.1-5.4-1.8-10.6-5.8-14.3c-1-0.9-2.1-1.6-3-2.5c-0.9-1-1.2-2.7-2.4-3.4c-0.5-0.3-1-0.5-1.5-0.6c-0.5-0.1-1.1,0-1.6-0.1
		c-0.5-0.2-0.7-0.6-1.1-0.9c-0.6-0.4-1.2-0.8-1.9-1.1c-2.4-1-5.1-0.7-7.6-0.6c0.2-2.5-0.6-5.3-1.7-7.4c-2.3-4.2-7.5-2.7-11.1-1.3
		c-0.2,0-0.5,0.1-0.7,0.2c-0.3,0.2-0.6,0.6-0.8,0.9c0.4-2.1,0.6-4.2,0.4-6.2s-1-3.2-2.5-4c-2.2-1.2-4.7-2.2-7.2-2.2
		c-2.5,0-4.3,0.8-6,2.5s-2.7,2.9-4.7,2.4c-1-0.2-1.9-1-2.7-1.7c-0.8-0.7-1.7-1.8-3-2.4c-2-1-4.4-1.8-6.7-1.3c-1.2,0.4-2.3,1-3.3,1.7
		c-0.8,0.6-1.9,1.3-2.4,2.1c-0.3,0.7-0.6,1.4-0.8,2.1l-0.8-1.3c-0.7-1.1-1.4-2.4-2.5-3.2c-2.5-1.9-5.5,0.3-7.2,2.3
		c-1,1.1-1.7,2.3-2.8,3.3l-0.8,0.7l-0.1-0.1c0,0,0,0,0-0.1c-0.2-0.3-0.5-0.5-0.8-0.7c-0.4-0.5-1-0.9-1.5-1.3
		c-0.7-0.4-1.7-0.5-2.4-0.6c-2-0.5-4-1-6.1-0.7c-3.6,0.5-5.9,3.5-6.3,6.8L88.8,36c-2.5-0.8-5.1-1.2-7.6,0c-1.8,0.9-3.4,2.7-3.7,4.7
		c-0.2,0.2-0.4,0.5-0.5,0.8c-2.2,0.3-4.3,1-6.1,2.2c-1.3,0.9-2.5,1.9-3.5,3.1c-0.4,0.6-0.9,1.1-1.4,1.7c-0.5,0.4-1,0.8-1.6,1.1
		c-0.6,0.4-1.2,0.8-1.7,1.3c-0.5,0.6-0.8,1.2-1.3,1.7c-0.5,0.5-2.1,1.5-3.3,2c-2.2,1.1-4.5,2.3-6.4,4c-1.9,1.7-3.3,4.3-3.3,7.1
		c-3,3.6-6.4,6.7-8.3,11.1c-0.8,1.8-0.5,4.1-0.5,6.1c0,1.9,0.3,4-0.6,5.3l-0.2,0.2l-1,0.8l-2,1.7c-1.1,0.9-2.1,1.9-3.1,2.9
		c-1.6,1.7-3,3.7-3.7,6c-0.3,1-0.4,2.1-0.4,3.1c0.1,1.1,0.2,2.9,1.2,3.6c0.3,0.2,0.8,0.4,1,0.8c0.2,0.4-0.1,1.3-0.3,1.8
		c-0.6,1.3-1.3,2.5-2.2,3.7c-2,2.9-3.5,6.2-4.7,9.5s-2.1,7-2,10.6c0,1,1,1.8,1.9,1.5l1.5-0.5c-1,3.4-1.6,6.9-1.6,10.4
		c0,4.3,0.7,8.7,2.3,12.8l0.1,0.2c0,0,0,0,0,0.1l0.1,0.2h0c0.4,0.6,1.2,0.9,1.9,0.6h0.1c0.2-0.1,0.3-0.2,0.4-0.4
		c0.2-0.2,0.4-0.5,0.6-0.8c0.2,0.5,0.4,1,0.6,1.6c1,3.1,1.6,6.4,2.3,9.5c0.7,3.2,1.3,6.2,2.5,9.1c1.1,2.9,3.1,5.3,5.7,7
		c3,2,6.6,2.9,10,4c0.8,0.2,1.7-0.3,1.9-1.1c0.1-0.4,0.2-0.7,0.2-1c0-0.1,0-0.1,0-0.2c0.6,0.3,1.5,0.4,2.1,0.6
		c1.9,0.7,3.8,1.6,6,1.2c2.1-0.4,3.9-1.6,4.6-3.3c0.6,0.4,1.2,0.8,1.8,1.2c0.6,0.4,1.6,0.8,2.4,0.3c0.4-0.2,0.7-0.6,0.7-1
		c3.5-1.5,6.2-4.3,7.2-8c0.6-2.1-0.8-3.1-2.2-4.4c-0.1-0.1-0.4-0.3-0.5-0.5v-0.1c0-0.3,0-0.6,0-0.9c0.1-1.1,0.7-2.2,1-3.3
		c0.3-1,0.7-2.3,0.1-3.5c-0.5-1.1-1.1-2.2-1.8-3.2c-1.3-1.9-2.9-3.7-4.2-5.5c-1.4-1.9-2.5-4.1-3.1-6.4c-0.7-2.5-1-5.1-1.7-7.6
		c-0.3-1.1-0.6-2.3-1.4-3.1c-0.7-0.6-1.6-1-2.5-1.2c-1.5-0.3-3.1-0.2-4.6-0.6c-0.6-3.4,0.8-7.1,1.7-10.3c0.6-1.9,1.3-3.8,1.4-5.8
		c0.1-0.7,0.2-1.4-0.1-2.1c-0.2-0.7-1.2-1.1-1.9-1.7c-0.7-0.6-1-2.5-0.6-3.8c0.5-1.3,1-2.6,1.6-3.9c0.4-0.9,0.9-1.9,1.2-2.8l1.1-2.3
		c0.1,0.2,0.2,0.5,0.3,0.7c0.2,0.4,0.6,0.6,1,0.7c0.4,0.1,0.8,0,1.1-0.2c1.7-1,3.4-2.1,4.9-3.4c0.8-0.6,1.5-1.3,2.2-2
		c0.6-0.5,1.1-1.1,1.6-1.7l0.5,0.6c0.5,0.6,1,1.1,1.7,1.3c0.9,0.3,1.8,0,2.5-0.6c0.8-0.8,1.3-1.8,1.3-3c0-0.3,0-0.5,0-0.8h0
		c0.9-0.2,1.5-0.8,2-1.5c0.5-0.7,1.1-2.3,1.3-3.6c1,0.3,1.9,0.3,2.7-0.6c0.8-0.9,0.9-1.5,1.2-2.3c0.3-0.8,0.3-1,0.5-1.4
		c0-0.2,0.1-0.3,0.2-0.4c0-0.1,0.1-0.2,0.1-0.2c0.1-0.3,0.2-0.6,0.4-0.8c1-2,2.1-4,3.3-5.8c0.5-0.7,0.9-1.4,1.3-2.1l0.7-1.1
		c0,0,0,0,0-0.1l1.1-1.1l0.2-0.2l0.6-0.4l0.2-0.1H94l0.2-0.1l0.9-0.2h0.2l0.5-0.1H97c0.6,0.5,1.5,0.4,2.1-0.1
		c0.9-0.8,0.5-2.2-0.5-2.7c-1-0.5-1.5-0.2-2.2-0.2c-1.3,0-2.6,0.3-3.8,0.8c-1.8,0.8-3,2.5-4,4.2c-0.5,0.7-0.9,1.5-1.4,2.2
		c-0.5,0.7-1.3,1.9-1.9,2.9c-0.6,1-1.1,2.1-1.6,3.2c-0.1,0.1-0.1,0.2-0.2,0.3c-0.3,0.7-0.4,0.9-0.6,1.4l-0.3,0.8
		c-0.1,0.1-0.1,0.3-0.1,0.4c0,0,0,0,0,0.1v0.1l-0.3,0.7H82l-0.3-0.2L80.9,87c-0.1,0-0.1-0.1-0.2-0.1c-0.7-0.2-1.5,0-1.9,0.6
		c-0.1,0.2-0.2,0.5-0.2,0.8c0,0.2,0,0.5,0,0.7c0,0.2,0,0.3-0.1,0.5c0,0.1-0.3,1.6-0.6,2.3L77.8,92c-0.1,0.2-0.2,0.3-0.4,0.6L77,92.4
		c-0.9-0.6-2.4,0.2-2.3,1.3l0.2,1.4c0,0.2,0.1,0.3,0.1,0.5v0.1c0,0.1,0,0.2,0,0.3v0.5c0,0.1,0,0.1,0,0.2v0.1L74.3,96
		c-0.4-0.5-0.9-0.9-1.5-1.2c0,0-0.1-0.1-0.2-0.1c-1.1-0.3-2,0.2-2.6,1.1l-0.6,0.8v0.1l-0.1,0.1l-0.5,0.5c-0.7,0.7-1.3,1.3-2.1,1.9
		l-1.2,1h-0.1l-0.3,0.2l-0.6,0.4l-1.3,0.9c0,0,0,0,0-0.1l-0.1-0.3c-0.1-0.2-0.1-0.4-0.2-0.6c0,0,0-0.1,0-0.1v-0.4c0-0.1,0-0.3,0-0.4
		c0-0.1,0-0.1,0-0.1l0.1-0.3l0.6-1.4c0,0,0-0.1,0-0.1c0.1-0.1,0.1-0.2,0.2-0.3c0.6-1.4,1.1-2.9,1.4-4.5c0.5-2.3,0.3-4.5,0-6.8
		c-0.2-2.1-0.1-4.2,0.5-6.3c0.9-3.7,2.9-7.1,5.3-10.1s5.6-5.9,8.7-8.5c0.7-0.6,1.5-1,2.2-1.5c0.3-0.3,0.7-0.6,1.1-0.8
		c0.4-0.2,0.9-0.3,1.2-0.6c0.4-0.2,1.2-1.1,1.9-1.6c0.7-0.5,1.6-0.8,2.4-1c1.7-0.4,3.6-0.1,4.9,1.2c0.7,0.7,1.3,1.6,2.1,2.2
		c0.8,0.6,2.2,1.1,3.5,0.9c2.3-0.2,4.5-0.2,6.6,1c1.9,1.2,3.2,3.2,3.4,5.4c0.1,2,3.2,2,3.1,0c-0.4-6.3-6.4-10.3-12.4-9.6
		c-0.6,0.1-1.4,0.3-2,0.1c-0.6-0.2-0.9-0.9-1.3-1.3c-0.8-1-1.8-1.9-3-2.5c-2.3-1.1-5-1-7.3,0c-1.2,0.5-2.3,1.2-3.2,2
		c-0.4,0.3-0.9,0.6-1.4,0.9c-0.6,0.3-1,0.6-1.5,1c-0.5,0.4-1.1,0.7-1.7,1.1c-0.5,0.4-1.2,1-1.8,1.5l-3.1,2.8
		c-4,3.8-7.7,8.1-9.8,13.3c-1,2.6-1.8,5.6-1.7,8.4c0.1,1.5,0.4,3.1,0.5,4.6c0.1,1.6-0.2,3.2-0.6,4.7c-0.3,1.1-0.7,2.2-1.2,3.3
		c-0.1,0.2-0.2,0.4-0.3,0.6c-0.8,1.7-1.7,3.4-2.4,5.2c-1.4,3.1-2.8,6.2-4,9.3c-0.2,0.6-0.3,1.2-0.4,1.8c-0.2,1.8,0.4,3.7,1.7,4.9
		c0.3,0.4,0.7,0.7,1.2,0.9v0.6c-0.2,1.2-0.4,2.3-0.8,3.4c-0.8,2.7-1.7,5.4-2.2,8.2c-0.2,1.3-0.3,2.7-0.3,4.1
		c0.1,1.3,0.2,2.9,1.6,3.4c1.9,0.7,4,0.3,5.9,0.9c0.9,0.3,1,0.9,1.2,1.9c0.5,1.5,0.7,3.1,1,4.6c0.6,3,1.3,6,3,8.7
		c1.7,2.7,3.4,4.5,5.1,6.9c0.7,1,1.4,2.1,1.9,3.3c-0.4,2-1.5,3.8-1.5,5.9c0,2.1,1.3,2.9,2.6,4.2l0.2,0.2c0,0.1,0,0.2-0.1,0.3
		c-0.1,0.3-0.2,0.6-0.3,0.8c-0.3,0.8-0.8,1.6-1.4,2.3c-1.2,1.4-2.8,2.4-4.6,2.9l-0.2,0.1l-1.2-0.8c-1-0.7-2.1-1.4-3.4-1.2
		c-1.3,0.2-1.3,1.5-0.9,2.3c0.4,0.8-0.7,1.3-1.3,1.6c-1.5,0.6-2.9,0.2-4.4-0.4c-1.4-0.6-3.1-1.4-4.7-1.3c-1.6,0.1-1.9,1-2.2,2
		c-2.6-0.8-5.2-1.6-7.5-3.1c-2.3-1.5-4.2-4.1-5.2-7c-2.1-6.3-2.3-13.1-5-19.1c-0.6-1.5-1.5-3.3-3.4-3.4c-0.3,0-0.6,0-0.8,0.1
		c-0.9-3.8-1.2-7.7-0.7-11.5c0.3-3,1.1-6,2.2-8.8c0.5-1.1-0.9-2.2-1.9-1.9l-2.4,0.7c0.4-5,2.4-9.8,4.8-14.1
		c1.9-3.5,7.3-9.3,2.5-12.5c-1.1-5.6,4.2-9.7,8-12.9c1.1-0.9,1.8-1.6,2.2-2.9c0.3-1.2,0.4-2.4,0.4-3.6c0-1.3,0-2.5,0-3.8
		s-0.1-2.1,0.2-3c0.9-2.5,2.7-4.6,4.4-6.5c1-1,1.9-2.1,2.9-3.2s1.3-1.3,1.3-2.3c-0.1-0.6,0-1.3,0.1-1.9c0.6-2.4,2.6-3.9,4.6-5.1
		s4.9-2.3,6.9-4c0.7-0.6,1-1.3,1.6-2c0.6-0.7,1.1-0.9,1.7-1.3c0.7-0.4,1.4-0.9,1.9-1.5c0.6-0.7,1.2-1.5,1.9-2.2
		c2.3-2.4,5.6-3.7,9-3.7c0.3,0,0.6-0.1,0.8-0.2l0.1-0.1l0.2-0.2c0.4-0.4,0.6-1,0.4-1.5c-0.7-1.8,0.9-3.6,2.6-4
		c2.3-0.6,4.8,0.5,6.9,1.3c0.6,0.2,1.2,0,1.5-0.5c0.3-0.4,0.4-0.9,0.3-1.4c-0.3-1.7,0.2-3.4,1.4-4.6c1.5-1.4,3.5-1.3,5.4-0.9
		c0.9,0.2,1.8,0.5,2.8,0.7l0.7,0.2h0.1c0.1,0.2,0.5,0.4,0.6,0.6c1,1,2.1,2.3,3.7,1.9c1.6-0.4,2.5-1.7,3.3-2.7c0.8-1,1.8-2.4,2.9-3.4
		c0.3-0.4,0.7-0.6,1.2-0.9c0.2-0.1,0.5-0.2,0.8-0.2l0.2,0.1c1,0.7,1.6,2.1,2.2,3.2c0.6,1,1.4,2.4,2.6,3c1.2,0.6,2.5-0.7,2.9-2
		c0.2-0.6,0.3-1.1,0.5-1.7c0.1-0.3,0.2-0.6,0.2-0.8l0.1-0.1c1.3-1,2.6-2.5,4.4-2.7c0.9-0.1,1.7,0.3,2.6,0.6c0.9,0.3,1.8,0.6,2.5,1.2
		c0.7,0.6,1.4,1.5,2.2,2.1c0.8,0.7,1.8,1.2,2.8,1.5c1.8,0.5,3.8,0.2,5.3-0.9c1.3-0.9,2.3-2.4,3.7-3.2s4.4-0.6,6.3,0.2
		c1.9,0.7,2.9,1,3.2,2.8c0.5,3.2-0.7,6.6-1.3,9.6c-0.2,1,0.7,2.4,1.9,1.9c1.3-0.5,2.4-1.3,3.3-2.4c0.4-0.4,0.7-0.8,1-1.3l0.2-0.2
		c1.7-0.6,3.4-1.3,5.1-1.3c0.5,0,1,0.1,1.5,0.2l0.3,0.1c0.3,0.3,0.6,0.7,0.8,1.1c0.6,1.1,0.9,2.3,1.1,3.6c0.1,0.6,0.1,1.1,0.1,1.7
		c0,0.2,0,0.5-0.1,0.7c0,0.1-0.2,0.6-0.1,0.5c-0.5,1,0.1,2.3,1.3,2.3c2.3,0,4.6-0.5,6.9-0.1c1,0.2,2,0.6,2.8,1.2
		c0.9,0.7,1.5,1.3,2.7,1.4c0.5,0.1,0.9,0.1,1.3,0.1h0.2l0.1,0.1c0.7,1.1,1.2,2.3,2.2,3.2c1,0.9,1.7,1.3,2.5,2c0.7,0.6,1.4,1.3,2,2.1
		c1.3,1.7,2.2,3.7,2.7,5.7c0.2,1,0.4,2,0.5,3.1c0.1,1.3-0.2,2.5,0.7,3.5c2.4,2.5,5.6,4.2,8.5,5.9c3,1.7,5.7,3.2,7.4,5.9
		c0.7,1.2,1.1,2.7,1,4.1c-0.1,1.2,0.6,2.2,1,3.3c0.5,1.1,1,2.7,1.5,4c0.9,2.3,2.1,4.5,2.9,6.9c0.2,0.6,0.4,1.1,0.5,1.7
		c0.1,0.5-0.1,1,0,1.5c0,0.1,0,0.1,0,0.2l-0.1,0.1c-0.2,0.2-0.4,0.4-0.5,0.7c-0.3,0.5-0.4,1-0.5,1.5c-0.2,1.8,1,3.2,1.5,4.8
		c0.3,0.9-0.1,1.7-0.2,2.5c-0.2,1.1-0.3,2.2-0.3,3.3c0,3.6,1.6,6.6,3.9,9.3c0.5,0.6,1,1.1,1.4,1.6c0.4,0.4,0.7,0.9,1.1,1.3
		c0.2,0.3,0.5,0.7,0.7,1.1l-1.8-0.6c-1-0.3-2.4,0.8-1.9,1.9c2.7,6.4,3.2,13.6,1.6,20.4l-0.2-0.1c-1.6-0.4-2.8,0.9-3.5,2.1
		c-1.4,2.5-3.8,4-5.6,6.1c-4.4,5-2,12.5-5.2,18c-1.6,2.7-4.4,4.9-7.4,6.2c-0.3-0.9-0.7-1.6-1.8-1.9c-1.7-0.4-3.7,0.9-5.3,1.5
		c-1.6,0.6-2.7,0.9-4.1,0.2c-1-0.4-1.6-1-1.3-1.9c0.1-0.1,0.1-0.2,0.1-0.3c0.2-0.5,0-1-0.3-1.3c-0.1-0.1-0.1-0.2-0.2-0.2h-0.1
		l-0.1-0.1h0l-0.3-0.1c-2.6-0.7-6-1.5-7.6-3.9c-0.9-1.4-0.8-3-0.9-4.6c0-1.6-0.2-3.5-1.1-5c0.1-1.7,0.7-3.9,2-5.1
		c1.3-1.1,2.4-1.4,3.7-2c1.3-0.6,2.8-1.2,3.9-2.3s1.7-2.6,1.8-4.1c0.4-3.4-0.5-6.9-0.4-10.3c0-0.7,0.1-1.4,0.3-2.1
		c0.2-0.8,0.8-1.4,1.4-2c0.6-0.7,1.3-1.3,2.1-1.7c0.4-0.2,1-0.4,1.3-0.7c0.3-0.3,0.5-1.2,0.6-1.8c0.6-4.5,0.3-9.1-0.2-13.6
		c0.2-0.1,0.3-0.3,0.4-0.5c0.2-0.4,0.4-0.9,0.4-1.3c0.6-0.6,1.2-1.4,1.5-2.2c0.7-1.9,0.3-4.2-0.3-6.1c-1.3-4-3.4-7.9-5.2-11.7
		c-0.3-0.6-0.6-1.2-0.8-1.7c-0.2-0.5-0.3-1-0.6-1.4l-0.1-0.1c-0.3-0.8-0.6-1.6-0.9-2.4c-0.3-1-0.6-1.9-0.7-2.9c-0.2-1.1,0-2,0.2-3.1
		c0.8-4.1,0-8.2-1.8-12c-0.9-1.9-2-3.7-3.2-5.4c-1.2-1.6-2.3-3.5-4-4.7c-2.7-2-6.5-1.8-9.1-4.1c-2.5-2.3-3.6-5.3-5.6-7.7
		c-2.5-3-6.7-4.3-10.6-4.1c-2.5,0.1-4.9,0.8-7,2.1c-0.4,0.3-0.9,0.6-1.4,0.9c-0.5,0.2-1,0.2-1.6,0.4c-1,0.2-1.9,0.6-2.8,1.1
		c-3.7,2.1-6.2,5.9-6.7,10.2c-0.1,0.8,0.8,1.5,1.5,1.5c0.8,0,1.4-0.7,1.5-1.5c0.4-3.1,2.5-5.9,5.1-7.4c0.6-0.4,1.3-0.7,2-0.9
		c0.9-0.3,1.9-0.3,2.7-0.8c0.9-0.5,1.5-1,2.4-1.4c0.9-0.4,1.8-0.7,2.7-0.9c3.3-0.6,7.3,0.3,9.6,2.8c2.3,2.5,3.1,4.9,5,7.1
		c1,1.2,2.3,2.1,3.7,2.8c1.4,0.6,3,1,4.5,1.5c1.4,0.5,2.6,1.3,3.5,2.5c1.2,1.5,2.3,3,3.3,4.6c1.9,3.1,3.4,6.6,3.4,10.3
		c0,1.9-0.8,3.7-0.6,5.6c0.2,1.9,0.5,3.7,1.2,5.5c0.4,1.1,0.8,2.1,1.3,3.2c0,0.1,0.1,0.2,0.1,0.3c0,0,0,0,0,0v0.2c0,0.1,0,0.2,0,0.4
		c0,0.3,0,0.6-0.1,0.9c0,0.1,0,0.1,0,0.2l-0.1,0.4c0,0.2-0.1,0.4-0.1,0.6l-1.4-1l-0.6-0.4l-0.2-0.2l-0.3-0.3
		c-0.5-0.4-0.9-0.8-1.3-1.2s-0.9-0.8-1.3-1.2c-0.2-0.2-0.4-0.4-0.6-0.6c-0.1-0.1-0.1-0.1-0.1-0.2c-0.2-0.4-0.5-0.8-0.8-1.2
		c-0.4-0.5-1-0.8-1.6-1c-0.5-0.1-1,0-1.4,0.3h-0.8l-0.3-0.1h0l-0.1-0.1l-0.1-0.2c0-0.1,0-0.1,0-0.1c0,0,0-0.2-0.1-0.3s0-0.1,0-0.1
		v-0.2l0,0c0,0.1,0,0.1,0-0.2v-0.1c0-0.3,0-0.7,0-1c0.1-1.1-1.4-2-2.3-1.3v-0.5c0.1-1.1-1.3-2-2.3-1.3l-0.5,0.3c0.1-0.1,0.1,0,0,0
		h-0.3l-0.2-0.1h0l-0.2-0.1h0c0,0,0,0,0,0l-0.1-0.1c-0.1-0.1-0.1-0.1,0-0.1l-0.3-0.3l-0.2-0.2c0,0,0,0-0.1-0.1l-0.1-0.2l-0.2-0.3
		c-0.2-0.4-0.5-0.8-0.6-1.2l-0.3-0.5l-0.1-0.2c-0.5-1.3-1.1-2.6-1.7-3.8c-0.7-1.4-1.5-2.8-2.3-4.2c-0.4-0.7-1.4-1-2.1-0.6
		c-0.7,0.4-1,1.4-0.6,2.1c0.8,1.3,1.5,2.6,2.2,4c0.3,0.7,0.6,1.4,1,2.1c0,0.1,0.1,0.2,0.1,0.2l0.2,0.5c0.2,0.3,0.3,0.6,0.4,1
		c0.3,0.8,0.8,1.6,1.3,2.4c0.6,0.9,1.3,1.8,2.3,2.3c0.5,0.2,1.1,0.4,1.7,0.4c0.1,0.3,0.2,0.7,0.3,1c0.4,0.7,1.1,1.1,1.9,1h0.2
		c0.2,1,0.7,1.8,1.5,2.4c0.7,0.4,1.5,0.6,2.3,0.7c0.4,0,0.8,0,1.2,0h0.3c0.2,0.3,0.3,0.6,0.5,0.8c0.7,0.9,1.6,1.7,2.5,2.5
		c1.8,1.6,3.8,3,5.9,4.2c0.4,0.2,0.9,0.2,1.3,0.1c0.4-0.2,0.8-0.5,0.9-1c0.1-0.2,0.2-0.5,0.3-0.8c0.6,1.2,1.1,2.3,1.7,3.5
		c0.8,2,1.8,3.9,2.3,6c0.2,1,0.6,4.1-1.2,3.9c-0.5,0-0.9,0.2-1.2,0.6c-0.1,0.2-0.2,0.3-0.3,0.5c0,0.2-0.1,0.3,0,0.5
		c0.6,5.2,1.2,10.6,0.5,15.8c-1.9,1-3.8,2.7-4.8,4.5c-1,1.9-1,3.9-0.9,5.8c0.1,1.9,0.4,4.2,0.5,6.4c0.1,1.6,0.1,3.4-1.3,4.5
		c-1.3,1.1-3.1,1.6-4.6,2.3c-1.5,0.7-3.3,2-4.2,3.8c-0.6,1.2-1,2.5-1.3,3.8c-0.1,0.6-0.2,1.2-0.2,1.8c0,0.7,0.5,1.1,0.8,1.7
		c0.8,2.1,0.1,4.6,0.7,6.9c1,3.6,4.2,5.5,7.6,6.6c0,0.1,0,0.2,0.1,0.3c0.2,0.8,0.9,1.4,1.7,1.5c0.8,1.8,3,3.1,5,3.4
		c2,0.3,3.7-0.5,5.5-1.2l1.3-0.5l0.9-0.2c0,0,0,0.1,0,0.1c0,0,0.1,0.7,0.2,1.1c0.2,0.8,1.1,1.3,1.9,1.1c5.6-1.7,10.8-6.3,12.3-12.1
		c0.7-2.8,0.8-5.7,1.3-8.6c0.2-1.2,0.5-2.7,1.1-3.8c0.6-1.1,1.6-1.9,2.5-2.8c0.9-0.8,2.1-1.9,3-3c0.3-0.4,0.6-0.7,0.9-1.1
		c0.2,0.3,0.4,0.6,0.6,0.9c0.1,0.2,0.3,0.3,0.5,0.4h0.1c0.8,0.3,1.6,0,2-0.8l0.1-0.2c2.8-7.5,3.1-15.6,0.7-23.3l1.5,0.5
		c0.8,0.2,1.7-0.3,1.9-1.1c0-0.1,0.1-0.2,0.1-0.4C229.4,127.6,224.4,125.1,222.6,120.7z"/>
	<path style="stroke:#000000;stroke-width:3;stroke-linecap:round;stroke-linejoin:round;stroke-miterlimit:10;" d="M71.9,131.4
		c0-0.1,0-0.2,0-0.2v-0.2c0-0.1,0-0.2,0.1-0.3c0.1-0.6,0.2-1.3,0.4-2c0.3-1.3,0.6-2.5,1-3.8l1.3-4.5c0.2-0.8-0.3-1.7-1.1-1.9
		c-0.4-0.1-0.8,0-1.1,0.2l-2.9,1.6c1.3-2,2.4-4.2,3.2-6.5c0.5-1.4,0.9-2.9,1.1-4.4c0.1-0.4,0-0.8-0.2-1.2c-0.2-0.3-0.5-0.6-0.9-0.7
		c-0.7-0.2-1.8,0.2-1.9,1.1c-0.2,1.5-0.6,2.9-1,4.4c-0.1,0.3-0.2,0.7-0.4,1l-0.1,0.2l-0.1,0.1c0,0,0,0.1,0,0.1l-0.2,0.4
		c-0.3,0.7-0.7,1.4-1,2.1c-0.4,0.7-0.8,1.3-1.2,2l-0.7,1l-0.4,0.5l-0.2,0.2l-0.2,0.3c-0.6,1-0.2,2.1,0.4,2.9c0.6,0.8,2,1,3,0.5
		s1.3-0.7,2-1.1c-0.4,1.3-0.7,2.6-1.1,4c-0.6,2.4-1.1,4.9-0.8,7.4c0.1,0.7,0.2,1.5,0.5,2.2c0,0.1,0,0.2,0,0.2
		c-0.4,0.4-0.6,0.9-0.4,1.4c0.2,0.7,1.1,1.4,1.9,1.1c0.8-0.2,1.3-0.9,1.5-1.6c0.1-0.6,0.1-1.3-0.1-1.9c-0.1-0.3-0.2-0.6-0.2-0.9
		c0-0.1-0.1-0.3-0.1-0.4c0-0.1,0-0.2,0-0.2h0v-0.1c0-0.6-0.1-1.3,0-1.9C71.8,131.7,71.8,131.7,71.9,131.4z"/>
	<path style="stroke:#000000;stroke-width:3;stroke-linecap:round;stroke-linejoin:round;stroke-miterlimit:10;" d="M181.8,120.1
		l-0.2-0.2l-2.5-1.4c-0.8-0.4-1.7-0.1-2.1,0.7c-0.2,0.3-0.2,0.7-0.1,1.1l1.5,5.4c0.5,1.7,0.9,3.4,1.2,5.2c0,0,0,0.1,0,0.1
		c0,0.1,0,0.2,0,0.3c0,0.2,0,0.4,0.1,0.6c0,0.5,0,1,0,1.4c0,0.2,0,0.4,0,0.6c0,0.1,0,0.2,0,0.3v0.1c-0.1,0.4-0.2,0.9-0.3,1.3
		c-0.3,1.2,0.3,2.2,1,3.1c0.7,0.9,1.5,2.1,2.7,2.6c1.2,0.4,1.7-0.3,1.9-1c0.2-0.7-0.1-1.4-0.7-1.7c0,0,0,0,0,0c0,0,0,0,0,0h0
		c0,0,0,0,0,0l-0.4-0.4l-0.4-0.5l-0.2-0.2l-0.1-0.2c-0.2-0.3-0.5-0.6-0.7-1c0-0.2,0.1-0.3,0.1-0.3c0.8-3.5-0.1-7.1-1-10.5l-0.6-2.4
		l0.8,0.4c0.5,0.3,1.1,0.7,1.7,0.8c0.7,0.1,1.4-0.3,1.7-1l0.3-0.1c0.6-0.2,1-0.6,1.1-1.1c0.1-0.3,0.1-0.7,0-1
		c-0.1-0.7-0.2-1.4-0.3-2.1c-0.6-2.5-1.7-4.9-3.1-7.1c-0.7-1.2-1.6-2.4-2.4-3.6c-0.5-0.6-1.4-1-2.1-0.6c-0.7,0.5-1,1.4-0.6,2.1
		c1.4,1.9,2.6,3.9,3.7,6l0.4,0.8l0.2,0.4v0.1c0,0,0,0,0,0.1c0.2,0.5,0.4,1,0.6,1.6c0.2,0.6,0.2,0.6,0.2,0.9
		C182.4,119.4,182,119.7,181.8,120.1z M182.2,135.9C182.2,135.9,182.2,135.9,182.2,135.9C182.1,135.9,182.1,135.9,182.2,135.9z"/>
</g>
</svg>
