<?xml version="1.0" encoding="utf-8"?>
<!-- Generator: Adobe Illustrator 27.9.0, SVG Export Plug-In . SVG Version: 6.00 Build 0)  -->
<svg version="1.1" id="Layer_1" xmlns="http://www.w3.org/2000/svg" xmlns:xlink="http://www.w3.org/1999/xlink" x="0px" y="0px"
	 viewBox="0 0 221.2 251.9" enable-background="new 0 0 221.2 251.9" xml:space="preserve">
<g>
	<path stroke="#000000" stroke-width="3" stroke-linecap="round" stroke-linejoin="round" stroke-miterlimit="10" d="M204.3,195.3
		c-0.6-2.7-1.5-5.4-2.8-7.8c-1.2-2.4-2.8-4.6-4.5-6.8c-0.8-1.1-1.6-2.2-2.3-3.4l-0.4-0.9l-0.1-0.2l-0.2-0.5
		c-0.2-0.7-0.4-1.4-0.5-2.1c0-0.1,0-0.3-0.1-0.4c0-0.1,0-0.3,0-0.4l-0.1-1.1c-0.1-0.8-0.1-1.5-0.2-2.3c-0.1-1.6-0.4-3.1-0.9-4.6
		c-1-2.8-3-5.1-4.8-7.4c-0.5-0.5-0.9-1.1-1.4-1.6l-0.3-0.4l-0.1-0.2l0,0c0,0-0.5-0.6-0.7-0.9c-0.9-1.2-1.7-2.4-2.5-3.7
		s-1.5-2.5-2.1-3.9c-0.1-0.3-0.3-0.6-0.4-0.9c0,0-0.1-0.1-0.1-0.2l0,0c-0.1-0.2-0.2-0.4-0.2-0.6c-0.1-0.2-0.5-1.4-0.7-2.1
		c-0.5-1.5-0.8-2.9-1-4.4c0-0.1,0-0.2,0-0.3s0-0.3,0-0.6c0-0.2-0.1-0.8-0.1-1.2s0-1.5,0-2.2s0-0.7,0.1-1c0-0.3,0-0.3,0.1-0.6v-0.1
		c0-0.1,0-0.1,0-0.2c0.1-0.9-0.2-1.9-1.2-2.2s-2,0.3-2.1,1.2c-1,6.3,0.5,12.6,3.4,18.3c1.3,2.6,2.9,5,4.7,7.3
		c0.9,1.2,1.9,2.4,2.9,3.6l0.6,0.7l0.3,0.4l0.2,0.2c0.5,0.6,0.8,1.1,1.2,1.7c0.3,0.6,0.6,1.1,0.9,1.7c0,0.1,0.1,0.2,0.1,0.3l0.2,0.5
		c0.1,0.3,0.2,0.7,0.3,1.1l0.2,1.1c0,0.1,0,0.2,0,0.2s0,0.4,0,0.6c0.1,0.7,0.1,1.5,0.2,2.2c0.1,1.6,0.3,3.2,0.7,4.7
		c0.5,1.4,1,2.7,1.8,3.9c1.5,2.3,3.3,4.4,4.8,6.7c0.7,1.1,1.3,2.3,1.8,3.5c0.1,0.1,0.1,0.3,0.2,0.5l0.1,0.2c0.1,0.3,0.2,0.7,0.4,1
		c0.1,0.3,0.4,1.2,0.6,1.9c0.4,1.3,0.7,2.6,0.9,3.9c0,0.1,0,0.3,0.1,0.5c0,0.1,0,0.1,0,0.2l0.1,1c0.1,0.7,0.1,1.3,0.1,1.9
		c0,0.2,0,0.4,0,0.6c-0.4-1.9-0.9-3.9-1.5-5.8c-0.8-2.3-2.1-4.4-3.6-6.2c-0.7-0.8-1.4-1.7-2.1-2.5l-1-1.2l-0.5-0.6l-0.2-0.3
		l-0.1-0.1l0,0c-0.7-1-1.4-2-1.9-3.1c-0.1-0.1-0.1-0.2-0.1-0.3l-0.1-0.2l-0.3-0.8c-0.1-0.2-0.1-0.5-0.2-0.8c0-0.1,0-0.2-0.1-0.3
		c0-0.1,0-0.3,0-0.3c-0.1-0.9-0.8-1.8-1.7-1.7c-1,0-1.8,0.7-1.7,1.7c-0.5-1.1-1.1-2.1-1.7-3.1c-0.5-0.8-1.6-1.1-2.4-0.6
		c-0.8,0.5-1.1,1.6-0.6,2.4c0.6,0.8,0.8,1.3,1.2,2l0.5,1.1l0.2,0.5c0.1,0.1,0.1,0.2,0.1,0.3c0.6,1.5,1,3,1.3,4.6l0.1,0.6v0.1
		c0.1,0.4,0.1,0.9,0.1,1.3c0.1,0.8,0.1,1.6,0,2.4c0,0.4,0,0.7-0.1,1.1c0,0.2-0.1,0.3-0.1,0.5v0.1c0,0.1,0,0.2-0.1,0.3
		c-0.1,0.7-0.3,1.5-0.5,2.2s-0.4,1.5-0.7,2.2l-0.2,0.6v0.1l0,0c0-0.1,0-0.1,0,0l0,0l0,0l0,0l-0.5,1c-0.3,0.7-0.7,1.4-1.1,2l-0.6,0.9
		l-0.3,0.5l-0.1,0.1c0,0,0,0.1-0.1,0.1c-2.1,2.5-4.7,4.6-7,6.9c-1,1.1-2,2.2-2.9,3.4l0.1-0.9c0-0.1,0-0.2,0-0.2l0.1-0.6
		c0.3-1.3,0.7-2.6,1.1-3.8c0-0.1,0.1-0.1,0.1-0.2l0.2-0.5l0.4-0.9c0.3-0.7,0.6-1.3,0.9-1.9c2.1-4.9,2.9-10.2,2.3-15.5
		c-0.3-3-1-5.9-2.2-8.7c-0.3-0.8-1.2-1.5-2.1-1.2c-0.9,0.3-1.6,1.2-1.2,2.1c0.5,1.2,0.9,2.4,1.2,3.6c0.2,0.6,0.3,1.3,0.4,1.9
		c0.1,0.3,0.1,0.7,0.2,1l0.1,0.5v0.2c0.3,2.5,0.3,5,0,7.6c0,0.1,0,0.1,0,0.1c0,0.1,0,0.3-0.1,0.5c0,0.3-0.1,0.7-0.2,1
		c-0.1,0.6-0.2,1.3-0.4,1.9c-0.3,1.3-0.7,2.5-1.2,3.7v0.1v0.1l-0.2,0.4L170,204l-0.8,1.8c-0.6,1.3-1,2.7-1.3,4.1
		c-0.7,3.2-0.7,6.4,0,9.6c0.2,0.8,0.9,1.3,1.7,1.3s1.5-0.5,1.7-1.3l0.3-0.9c0.1-0.1,0.1-0.2,0.2-0.3c0.1-0.2,0.2-0.4,0.3-0.6
		c0.3-0.7,0.7-1.3,1.1-1.9c0.2-0.3,0.4-0.7,0.7-0.9l0.2-0.3l0.4-0.5c0.5-0.6,0.9-1.1,1.4-1.6c0,0.4,0,0.8,0,1.2
		c-0.1,1.4-0.2,2.8-0.2,4.1c0,2.5,0.5,5,1.3,7.4l-0.6-0.4c-0.9-0.6-1.9-1.1-2.9-1.5s-2.1-0.7-3.2-0.9c-1.1-0.2-2.1-0.3-3.2-0.6
		c-0.5-0.1-0.9-0.3-1.4-0.5h-0.1l-0.3-0.2l-0.7-0.3c-0.4-0.2-0.7-0.5-1.1-0.7h-0.1l-0.2-0.2l-0.6-0.5c-0.3-0.3-0.6-0.7-0.9-1
		l-0.2-0.2l-0.5-0.6c-0.3-0.4-0.5-0.9-0.7-1.4l0,0c0-0.1-0.1-0.2-0.1-0.3l-0.2-0.7c-0.1-0.2-0.1-0.5-0.2-0.7c0-0.1,0-0.1,0-0.2
		c0,0.1,0,0,0-0.1v-0.1l0,0c0-0.4,0-0.8,0-1.2c0.6-1.8,1.3-3.6,1.9-5.4c0.8-2.4,1.5-4.8,2.1-7.2s1.1-5.7,1.5-8.6
		c0.1-0.9-0.9-1.8-1.7-1.7c-0.8,0-1.6,0.8-1.7,1.7c0,0.1,0,0.2-0.1,0.3c0,0.1,0,0.3,0,0.3s-0.1,0.7-0.1,1l-0.3,1.9
		c-0.2,1.3-0.5,2.5-0.8,3.7c-0.6,2.4-1.3,4.9-2,7.3s-1.8,4.6-2.4,7c-0.6,2.6-0.6,5.3,0,7.9c0.3,1.4,0.8,2.7,1.3,4l-1.4-0.6l-0.3-0.1
		l0,0l-0.6-0.2l-1.3-0.6c-0.7-0.3-1.5-0.7-2.1-1.2l-0.5-0.3l-0.2-0.2c-0.3-0.3-0.7-0.6-0.9-0.9c-0.1-0.1-0.1-0.1-0.2-0.2l-0.3-0.5
		l-0.2-0.5l-0.1-0.2l-0.3-1v-0.2c0-0.2,0-0.4,0-0.6v-0.1c0-0.1,0-0.1,0-0.1s0.1-0.4,0.1-0.6l0.1-0.1l0.1-0.2l0.3-0.6
		c0.5-0.9,1.1-1.9,1.3-2.9c0.2-1.2,0.1-2.4-0.4-3.6c-2.6-7.5-0.3-15.4,3.7-22c2.1-3.4,4.7-6.5,7.6-9.4c2.8-2.8,5.7-5.6,7.3-9.3
		s1.6-8,0.8-12.1s-2.1-7.8-2.3-11.9c-0.2-4,1.1-7.8,3.2-11.3c2.1-3.6,4.5-7,6.1-10.9c6.4-15.6,0.9-32.7-7.1-46.6
		c-1.9-3.3-3.9-6.6-5.6-10.1c-0.8-1.7-1.4-3.4-1.9-5.2c-0.5-1.9-0.8-3.8-1.3-5.7c-1.9-8.1-6.8-15-11.8-21.6c-2.3-3-4.8-5.8-7.6-8.4
		c-2.9-2.6-6.2-4.7-9.7-6.3c-3.9-1.9-8-3.3-12.4-3.9c-2.2-0.3-4.2-0.2-6.4-0.3c-2.2-0.1-4.4-0.1-6.5,0.1c-8.4,0.8-16.3,4.1-22.9,9.4
		c-6,4.9-10.5,11.5-14.7,18c-2.3,3.6-4.2,7.2-5.3,11.2s-1.5,7.6-3,11.3c-1.5,3.7-3.5,6.8-5.4,10.1c-2,3.3-3.8,6.8-5.4,10.4
		c-3.3,7.6-5.6,15.9-5.3,24.2c0.1,3.1,0.6,6.2,1.5,9.3c0,0.1,0,0.3,0,0.4c0,0.2,0,0.5,0,0.7c0,0.5,0,0.9,0,1.4s0,0.4-0.1,0.6
		c0,0.1,0,0.2,0,0.3l-0.3,1.4c-0.5,1.8-1.1,3.5-1.8,5.2c-0.7,1.6-1.4,3.2-1.9,4.9s-0.9,3.1-1.3,4.7c-0.2,0.8-0.5,1.5-0.7,2.3
		l-0.4,1.1v0.1c0,0,0,0,0,0.1l-0.3,0.6l-0.6,1l-0.3,0.5c-0.1,0.2-0.2,0.3-0.3,0.5l0,0l-0.1,0.2l-0.3,0.3l-0.3,0.3l0,0l-0.1,0.1h-0.1
		c-2.2,1.6-5.1,2.5-6.5,4.9c-0.9,1.6-1.1,3.7-1.3,5.4c-0.1,0.9-0.1,1.9-0.2,2.9c0,0.2,0,0.4-0.1,0.6c0,0.1,0,0.2,0,0.2v0.1
		c-0.1,0.5-0.2,1-0.3,1.5c0,0.2-0.1,0.3-0.1,0.5c0,0.1-0.1,0.2-0.2,0.3c0,0,0,0,0,0.1l-0.5,0.4l0.1-0.1l-0.1,0.1l0,0l-0.4,0.2
		l-0.7,0.3l-0.3,0.2l-0.1,0.1l-1.7,0.6c-1.2,0.4-2.4,0.9-3.4,1.6c-1.1,0.8-2.1,1.9-2.7,3.2c-1.5,2.8-2.2,5.8-2.4,8.9
		c-0.2,3.2-0.1,6.4,0.4,9.6c0.5,3,1.1,6,1.9,9c0.2,0.7,0.4,1.3,0.6,2c0.2,0.8,0.9,1.3,1.7,1.3c0.8,0,1.5-0.5,1.7-1.3l1.8-7.8
		c0.8,1.4,1.8,2.8,2.7,4.2l0.7,1.4c0.1,0.2,0.2,0.5,0.3,0.7v0.1c0.1,0.1,0.1,0.2,0.2,0.4c0.2,0.5,0.3,1,0.4,1.5
		c0,0.2,0.1,0.5,0.1,0.7v0.1c0,0.2,0,0.3,0,0.5c0.1,1.1,0.1,2.3-0.1,3.4c0,0.1,0,0.1,0,0.2c0,0,0,0.2,0,0.3s-0.1,0.6-0.1,0.9
		c0,0.3-0.2,1.2-0.4,1.7c-0.3,1.2-0.6,2.3-1,3.5l-0.6,1.7l-0.3,0.8l0,0v0.1l-0.2,0.5c-0.5,1-0.9,2.1-1.5,3.1s-1.3,2.3-1.9,3.4
		c-0.6,1.1-0.6,1.3-0.9,1.9c-0.3,0.6-0.7,1.9-0.2,2.9s2.8,1.5,4.1,1.6c2.6,0.1,5.2-0.5,7.5-1.9c0.6-0.4,1.1-0.8,1.7-1.3l0.2-0.1h0.1
		c0-0.1,0.2-0.2,0.2-0.2l0.8-0.6l0.5-0.2l0.2-0.1l0,0h0.1l0.2-0.1l0.5-0.2l1.8-0.5c1.3-0.4,2.6-1,3.7-1.9c0,1,0,2-0.1,3
		c0,0.1,0,0.3,0,0.4c0,0.1,0,0.2,0,0.2c0,0.3-0.1,0.6-0.1,0.9c-0.1,0.6-0.2,1.2-0.4,1.8c-0.1,0.4-0.2,0.7-0.3,1.1
		c-0.1,0.1-0.1,0.3-0.2,0.5l0,0l-0.1,0.1c-0.3,0.7-0.6,1.3-1,1.9c-0.3,0.6-0.3,1.4,0.1,1.9c0.5,0.6,1.1,0.8,1.8,0.6
		c1.3-0.3,2.4-1,3.3-2c0.4-0.4,0.7-0.8,1.1-1.2l1.1-1.1l0.1-0.1l0.3-0.2l0.3-0.2h0.1l0.3-0.1h1.5l0.4,0.1h0.2l1.7,0.3
		c1.2,0.2,2.4,0.4,3.7,0.5c1.2,0,2.4-0.3,3.4-0.9c0.7-0.4,1.3-0.9,1.9-1.4l-0.3,0.7c-0.3,0.6-0.6,1.2-0.9,1.8
		c-0.7,1.3,0.5,3,1.9,2.5c1.8-0.6,3.7-1.2,5.5-1.9c1.7-0.7,3.4-1.5,5-2.5c1.5-1,2.9-2.3,3.7-4c0.8-1.7,1.1-3.8,0.3-5.6
		c-0.4-1-0.8-1.9-1.4-2.8c0,0,0,0,0-0.1c0,0-0.1-0.2-0.1-0.4c0-0.1,0-0.1,0-0.2c0.7-0.1,1.3-0.6,1.5-1.3c2.4-6.4,1.6-13.3-0.9-19.5
		c1-1.5,1.1-3.4,0.9-5.2c-0.1-1.1-0.3-2.2-0.5-3.3c-0.1-0.5-0.2-1.1-0.3-1.6v-0.1c0-0.1,0-0.3,0-0.5c0-0.3-0.1-0.6-0.1-0.8
		c0-0.3,0-0.5,0-0.8v-0.3l0,0c0.1-0.2,0.1-0.5,0.2-0.7c0-0.1,0.1-0.2,0.1-0.3c-0.2,0.4,0.1-0.1,0.1-0.2l0.2-0.3v-0.1l0.5-0.6
		l1.2-1.3c1.2-1.5,2.1-3.3,2.6-5.2c0.6-1.9,0.8-3.9,0.8-5.8c-0.1-1.8-0.5-3.8-1.4-5.4c-1-1.6-2.7-3-4.4-4l-2.3-1.4
		c-0.4-0.2-0.7-0.5-1.1-0.7l-0.3-0.2l-0.2-0.1l-0.4-0.3c-0.3-0.3-0.7-0.7-1-1l-0.3-0.4l-0.5-0.8c-0.3-0.5-0.6-1-0.9-1.6l-0.4-0.8
		v-0.1c-0.1-0.1-0.1-0.3-0.2-0.5c-0.2-0.6-0.4-1.2-0.5-1.8c0-0.1-0.1-0.3-0.1-0.4c0-0.1,0-0.1,0-0.2c0-0.3-0.1-0.6-0.1-0.9
		c2.6,2.2,6,3.4,9.4,4c0.7,0.2,1.4-0.1,1.8-0.6c0.5-0.6,0.5-1.3,0.1-1.9c-1.4-2-3-4-4.3-6c-0.7-1-1.3-2.1-1.9-3.2l-0.4-0.8l0,0
		c-0.1-0.1-0.1-0.3-0.2-0.5c-0.2-0.6-0.4-1.1-0.5-1.7c-0.1-0.3-0.1-0.6-0.2-0.8c0-0.1,0-0.1,0-0.2s0-0.3,0-0.4
		c-0.1-0.6-0.1-1.1,0-1.7c0-0.3,0-0.6,0.1-0.8c0-0.2,0-0.2,0.1-0.4c0,0,0,0,0-0.1v-0.1c0-0.1,0-0.1,0-0.2c0.1-0.5,0.2-0.9,0.3-1.4
		c0.1-0.6,0.3-1.1,0.5-1.6c0-0.1,0.1-0.3,0.1-0.4v-0.1c0,0,0.2-0.5,0.3-0.7c0.1-0.2,0.3-0.5,0.5-0.7c0,0,0,0,0-0.1l0.2-0.3
		c0.5-0.5,0.9-0.9,1.4-1.5c1.6-1.9,2.8-4.1,2.9-6.6s-0.7-4.2-1.8-6s-3.1-4-4.9-5.7l-1.6-1.4l-0.7-0.6c-0.1-0.2-0.3-0.3-0.4-0.5
		l-0.2-0.3l-0.3-0.6l-0.1-0.3c-0.1-0.2-0.1-0.5-0.2-0.7s-0.1-0.5-0.1-0.7V98c0-0.1,0-0.2,0-0.3c0-0.1,0-1,0-1.5s0-1,0.1-1.6
		c0-0.5,0-0.2,0.1-0.4v-0.5c0-0.1,0-0.2,0-0.2c0-0.1,0.1-0.3,0.1-0.5c0.4-2.2,0.9-4.4,1.5-6.5c0.1-0.5,0.2-1,0.4-1.5
		c0.2-0.9-0.3-1.9-1.2-2.2c-0.9-0.3-1.9,0.3-2.2,1.2c-0.5,2.1-1.1,4.2-1.6,6.4c-0.5,2.2-0.8,4.5-0.6,6.8c0.2,2.3,0.9,4.4,2.5,6
		c1,0.9,2,1.8,3,2.8c0.9,0.9,1.8,1.8,2.6,2.8l0.2,0.3l0,0l0,0l0.5,0.7c0.3,0.5,0.6,0.9,0.8,1.3c0.1,0.2,0.2,0.5,0.3,0.7
		c0.1,0.1,0.1,0.3,0.1,0.4c0.1,0.2,0.1,0.4,0.2,0.6l0.1,0.3v0.1c0,0.4,0.1,0.8,0,1.3v0.2c0,0,0,0,0,0.1v0.1c0,0.2-0.1,0.5-0.2,0.7
		s-0.2,0.5-0.2,0.7l-0.2,0.4c-0.2,0.5-0.6,1-0.9,1.5l-0.1,0.2l0,0l-0.1,0.1l-0.1,0.2c-0.2,0.3-0.5,0.5-0.7,0.8c-0.5,0.5-1,1-1.4,1.6
		c-0.7,1-1.2,2.1-1.5,3.3c-0.3,1.2-0.6,2.5-0.7,3.7c-0.2,1.1-0.2,2.3-0.1,3.4c0.5,4.2,2.7,7.8,5.2,11.2l-0.1-0.1h-0.1l0,0
		c-0.8-0.3-1.6-0.8-2.4-1.3l-0.3-0.2l-0.5-0.5c-0.3-0.3-0.7-0.6-0.9-1l0,0l-0.2-0.2l-0.3-0.5c-0.2-0.4-0.5-0.8-0.6-1.2
		c0-0.1-0.1-0.2-0.1-0.2s0,0,0-0.1l-0.2-0.6c-0.1-0.5-0.3-0.9-0.4-1.4c-0.1-0.4-0.2-0.8-0.2-1.3V134c0-0.1,0-0.1,0-0.2
		c0-0.3-0.1-0.6-0.1-0.8c-0.1-0.9-0.1-1.8-0.1-2.8c0.1-4.5,0.9-8.9,0.8-13.3c-0.1-2.1-0.1-6.5-3.3-6.3c-1,0-1.8,0.5-2.7,0.8
		l-0.7,0.2l-0.4,0.1h-1.1l-0.5-0.1c-0.9-0.2-1.9,0.3-2.1,1.2c-0.2,0.9,0.3,1.9,1.2,2.1c1.3,0.3,2.7,0.3,4,0c0.7-0.2,1.3-0.5,1.9-0.7
		c0,0.2,0.1,1.9,0.2,2.8c0.1,4.5-0.6,8.8-0.8,13.3c-0.1,3.1,0.3,6.5,1.7,9.3c-1.5,4.3,0.2,9.2,2.8,12.7c1.2,1.7,2.8,3.1,4.5,4.1
		l2.3,1.4l1.1,0.7l0.3,0.2l0.5,0.4c0.3,0.3,0.6,0.6,0.9,0.9c0,0,0,0.1,0.1,0.1l0.1,0.1c0.1,0.2,0.3,0.4,0.4,0.7
		c0.1,0.1,0.1,0.2,0.1,0.3l0.1,0.1l0.1,0.3c0.1,0.4,0.2,0.8,0.3,1.2c0,0.1,0,0.2,0,0.3c0,0.2,0,0.4,0.1,0.6c0,0.5,0.1,0.9,0,1.4
		c0,0.5,0,0.9-0.1,1.3c0,0.1,0,0.2,0,0.3v0.1c-0.1,0.2-0.1,0.5-0.1,0.7c-0.2,0.9-0.4,1.8-0.8,2.7c0,0.1,0,0.1-0.1,0.2v0.1
		c-0.1,0.1-0.2,0.4-0.2,0.5c-0.1,0.1-0.4,0.7-0.6,1.1l-0.3,0.5l-0.2,0.2c-0.4,0.5-0.8,0.8-1.2,1.3c-0.9,0.9-1.6,2.1-1.9,3.3
		c-0.7,2.6,0,5.2,0.5,7.8c0.1,0.2,0.1,0.5,0.1,0.8v0.1c0,0.1,0,0.2,0,0.3c-1.8-3-3.9-5.8-6.2-8.4c-1.1-1.2-2.2-2.5-3.6-3.4
		c-1.1-0.7-2.3-1.4-3.6-1.9c-1.3-0.6-2.6-1.2-3.9-1.9c-1.2-0.7-1.8-1.2-2.3-2.1c-1.1-2.2-0.3-4.8,0.7-7c2.6-5.6,7.6-10.8,6.7-17.3
		c-0.5-4-2.3-7.9-4.1-11.4c-1.9-3.5-4.3-6.6-6-10.3c-0.7-1.6-1.3-3.2-1.8-4.9l0,0c0-0.1,0-0.2-0.1-0.3c-1.6-5.7-1.6-11.9-0.5-17.8
		c1.5-7.9,4.8-15.3,8.8-22.2c1.9-3.3,3.9-6.5,5.5-10c0.8-1.7,1.5-3.5,2.1-5.4c0.5-1.8,0.8-3.7,1.2-5.6c0.4-1.9,1-3.9,1.7-5.7
		c0.8-1.8,1.7-3.6,2.7-5.2c2.1-3.5,4.5-6.9,6.9-10.2c2.2-2.9,4.7-5.6,7.4-8c2.9-2.5,6.1-4.5,9.5-6c3.9-1.7,8-2.8,12.2-3.2
		c2.1-0.2,4.2-0.2,6.3,0c2.1,0.1,4.2-0.1,6.3,0.2c4.2,0.6,8.1,2.2,11.9,4.1c3.3,1.6,6.3,3.8,9,6.3c2.6,2.5,5,5.3,7.1,8.3
		c2.5,3.4,4.8,6.9,6.9,10.5c2,3.5,3,7.2,3.8,11.1c0.7,3.7,2,7.3,3.7,10.7s3.8,6.6,5.6,9.9c1.9,3.5,3.6,7.1,5,10.8
		c2.8,7.5,4.4,15.6,3.1,23.5c-0.6,3.8-1.8,7.5-3.6,10.9c-1.9,3.6-4.4,6.8-6.1,10.4c-1.8,3.8-2.4,8.1-1.8,12.3
		c0.5,4,1.8,7.8,2.4,11.7c0.6,4,0.1,7.6-2.2,10.9c-2.2,3.3-5.2,5.7-7.7,8.6c-2.8,3-5.2,6.4-7.1,10.1c-0.1-0.2-0.1-0.4-0.1-0.6
		c0,0,0-0.4,0-0.1c0-0.1,0-0.1,0-0.1s0-0.9,0-1.3c0-0.4,0-0.7,0.1-1.1v-0.1c0-0.1,0-0.2,0.1-0.4l0.1-0.7c0.2-1.1,0.4-2.2,0.5-3.3
		c0.2-2.2-0.3-4.4-1.7-6.2l-0.9-1l-0.5-0.5l-0.2-0.2l-0.1-0.1c-0.2-0.3-0.4-0.7-0.6-1c-0.1-0.1-0.1-0.1-0.1-0.2l-0.2-0.7
		c-0.1-0.3-0.1-0.7-0.2-1v-0.1v-0.1c0-0.1,0-0.2,0-0.3v-0.7c0-0.4,0-0.8,0.1-1.2c0-0.1,0-0.2,0-0.3s0.1-0.5,0.1-0.7s0.2-0.8,0.3-1.2
		l0.2-0.6c0.1-0.1,0.1-0.2,0.1-0.3s0-0.1,0.1-0.2c0.4-0.8,0.8-1.6,1.4-2.4l0.8-1.1l0.2-0.3l0.1-0.1l0.5-0.6l1.9-2.3
		c1.4-1.6,2.7-3.2,3.9-4.9c2.4-3.6,4.1-8.4,2.6-12.6c0.9-1.9,1.5-4,1.6-6.1c0.3-3.8-0.3-7.6-0.7-11.3c-0.1-1-0.1-2.1-0.1-3.1
		c0-0.5,0-0.9,0-1.4s0-0.5,0.1-0.8c0-0.3,0-0.2,0-0.3v-0.1c0.1-0.8,0.3-1.6,0.5-2.3c0.2-0.8,0.2-0.8,0.4-1.1l0.2-0.6
		c0-0.1,0.1-0.1,0.1-0.2c0,0,0,0,0.1-0.1c0.4-0.8,0.8-1.6,1.3-2.4c0.2-0.3,0.5-0.7,0.7-1.1l0.2-0.2l0.1-0.1l0.4-0.5
		c0.6-0.7,1.2-1.4,1.9-1.9l0.5-0.4l0.1-0.1l0.1-0.1l1.2-0.8c0.8-0.5,1.1-1.6,0.6-2.4s-1.5-1.1-2.4-0.6c-2.9,1.8-5.4,4.4-7,7.4
		c-1.8,3.2-2.7,6.8-2.7,10.4c0,3.9,0.9,7.8,0.9,11.8c0,0.8,0,1.7-0.1,2.5c0,0.2,0,0.5-0.1,0.6l0,0c0,0.1,0,0.2,0,0.2
		c-0.1,0.5-0.2,0.9-0.3,1.3l-0.3,1.1l-0.2,0.6c0,0,0,0,0,0.1v0.1c0,0,0,0.1-0.1,0.2c-0.3,0.7-0.7,1.3-1.1,1.9l-0.1,0.1l-0.2,0.3
		l-0.5,0.5l-0.5,0.5l-0.3,0.2l-0.1,0.1c-0.7,0.6-1.6,1-2.4,1.4l-0.2,0.1h0.1l-0.2,0.1l-0.2,0.1c1.5-2.3,2.9-4.8,3.7-7.5
		c0.7-2.1,0.9-4.2,0.7-6.3c-0.2-2.4-1-4.6-1.5-6.9c0-0.3-0.1-0.5-0.1-0.8c0-0.1-0.1-0.2-0.1-0.4c0-0.1,0-0.1,0-0.2s-0.1-1.1-0.1-1.6
		s0-1,0-1.6s0-0.5,0.1-0.8c0-0.2,0-0.3,0-0.4s0-0.2,0-0.2c0.3-2.2,0.9-4.4,1.7-6.5c0.4-1,0.8-2.1,1.2-3.2l0.6-1.5V105
		c0-0.1,0.1-0.2,0.2-0.4l0.5-1.1c0.9-2,1.6-4.1,2.3-6.2c0.7-2.4,1.1-4.8,1.3-7.3c0.1-2.6-0.4-5.2-1.4-7.6c-0.3-0.8-1.7-1.1-2.4-0.6
		s-1,1.5-0.6,2.4c-0.2-0.3,0,0.1,0,0.2l0.1,0.3c0.1,0.2,0.2,0.5,0.2,0.7c0.1,0.6,0.3,1.1,0.4,1.6s0,0.2,0,0.3v0.1
		c0,0.2,0,0.5,0.1,0.7c0,0.5,0,1,0,1.6c0,0.5,0,1-0.1,1.4l-0.1,0.8V92c0,0.2,0,0.3-0.1,0.5c-0.2,1-0.4,2.1-0.7,3.1
		c-0.6,2.1-1.3,4.1-2.2,6.1l-0.3,0.7l-0.1,0.2l-0.1,0.2l-0.8,1.8c-0.4,1-0.9,2.1-1.3,3.1c-1.6,4.1-2.8,8.6-2.3,13
		c0.3,2.3,1,4.5,1.5,6.8c0.1,0.3,0.1,0.5,0.2,0.8c0,0.1,0,0.3,0.1,0.5c0.1,0.6,0.1,1.1,0.1,1.6s0,1-0.1,1.5c0,0.1,0,0.1,0,0.2
		c0,0.1,0,0.1,0,0.2c0,0.2-0.1,0.5-0.1,0.7c-0.2,1.1-0.6,2.2-1,3.2v0.1c0,0.1-0.1,0.3-0.2,0.4l-0.4,0.8c-0.2,0.5-0.5,1-0.8,1.5
		c-1.2,2-2.5,3.9-3.9,5.8c-0.3,0.6-0.3,1.4,0.1,1.9c0.5,0.6,1.1,0.8,1.8,0.6c3.3-0.6,6.7-1.7,9.3-3.9v0.5c0,0.1,0,0.2,0,0.3
		c0,0,0,0,0,0.1c0,0.3-0.1,0.6-0.1,0.8c0,0.3-0.2,0.9-0.4,1.3c-0.1,0.5-0.1,0.4-0.2,0.6c0,0.1-0.1,0.2-0.1,0.3l-0.1,0.2
		c-0.4,0.9-0.9,1.7-1.4,2.5c-0.2,0.4-0.5,0.8-0.8,1.2l-0.2,0.2c0,0,0,0,0,0.1l-0.1,0.1l-0.5,0.6c-0.6,0.8-1.3,1.6-2,2.3
		c-1.4,1.6-2.7,3.2-3.9,4.9c-2.2,3.3-3.5,7.2-2.8,11.2c0.4,1.9,1.3,3.7,2.7,5.1l0.9,1l0.2,0.2l0.1,0.1c0.1,0.1,0.1,0.2,0.2,0.3
		l0.1,0.1c0.2,0.4,0.3,0.8,0.3,1.2c0-0.1,0-0.1,0-0.1c0,0.1,0,0.1,0,0.2c0,0.1,0,0.2,0,0.3v0.8c0,0.2,0,0.5-0.1,0.8
		c0,0.1,0,0.2,0,0.4v0.1c-0.1,0.6-0.2,1.1-0.3,1.7c-0.2,1-0.4,2.1-0.4,3.2c-0.1,2.1,0.4,4.4,1.9,5.9c-0.9,2.4-1.5,4.8-1.9,7.3
		c-0.5,3.9-0.1,7.8,1.3,11.5c0,0.1,0.1,0.2,0.1,0.3v0.1c0,0.1,0,0.1,0,0.1v0.1c0,0.1,0,0.2,0,0.3l0,0c0,0.2-0.1,0.5-0.2,0.7l0,0
		c-0.1,0.1-0.1,0.2-0.1,0.3c-0.1,0.2-0.2,0.3-0.3,0.5c-0.2,0.4-0.5,0.8-0.6,1.2c-0.8,1.8-1,3.7-0.3,5.6c0.7,1.8,1.9,3.4,3.5,4.5
		c1.5,1,3,1.9,4.7,2.5c2.1,0.9,4.2,1.7,6.3,2.3c1.5,0.5,2.7-1.3,1.9-2.5c-0.7-1.3-1.1-2.1-1.5-3.2c0-0.1-0.1-0.2-0.1-0.2
		c0-0.2-0.1-0.3-0.2-0.5l-0.2-0.7c-0.1-0.3-0.2-0.7-0.3-1.1c0.7,0.7,1.4,1.3,2.1,1.9c1.8,1.3,3.9,2,6.1,2.4c1.1,0.2,2.2,0.4,3.3,0.7
		l0.9,0.3l0.3,0.1h0.1c0.5,0.2,1,0.5,1.4,0.8l2.8,1.8c1,1.5,2.3,2.8,4,3.7c1,0.6,2.1,1,3.3,1.3l1.6,0.5l0.3,0.1l0.2,0.1
		c0.2,0.1,0.5,0.2,0.7,0.3l0.8,0.5l0.3,0.2l0,0c0.6,0.4,1.1,0.9,1.7,1.3c1,0.7,2.1,1.2,3.3,1.5c1.1,0.3,2.3,0.5,3.6,0.5
		c1.1,0.1,2.3-0.1,3.4-0.4c0.8-0.3,1.5-0.8,1.8-1.7c0.2-0.9-0.2-1.8-0.6-2.7c-0.5-1.1-1-2.1-1.7-3.1c-0.6-1-1.1-2.1-1.6-3.1l0,0
		l-0.1-0.3c-0.1-0.3-0.2-0.6-0.3-0.8c-0.2-0.5-0.3-1.1-0.5-1.6c-0.1-0.5-0.2-1-0.3-1.5c-0.1-0.3-0.1-0.6-0.1-0.9c0,0,0,0,0-0.1v0.2
		c0-0.1,0-0.3,0-0.5c-0.1-1.1-0.2-2.3-0.1-3.4c0-0.6,0-1.1,0.1-1.6c0-0.2,0-0.5,0.1-0.8c0,0,0-0.2,0-0.3s0-0.3,0.1-0.5
		c0.2-1.1,0.4-2.2,0.7-3.3c0.6-2,1.3-4,1.9-6c0.4,1.8,0.8,3.5,1.2,5.3c0.2,0.8,0.9,1.3,1.7,1.3s1.5-0.5,1.7-1.3
		C205.2,206.5,205.5,200.8,204.3,195.3z M48.4,125.2c1.2,2.3,2.5,4.4,3.9,6.6c2.1,3.4,4,7.1,5,11c0.5,1.6,0.5,3.3,0.1,5
		c-0.4,1.3-0.9,2.6-1.6,3.9c-2.7,5-7.6,10.8-5.9,16.9c0.8,2.9,3,4.5,5.6,5.8s5.3,2.1,7,3.8c3.9,3.9,7.3,8.4,9.6,13.4l0.1,0.3
		c0.9,2.2,1.6,4.4,2.1,6.7c0.6,3.3,0.4,6.6-0.5,9.8c-0.6-0.1-1.3,0.3-1.6,0.8c-0.6,1-0.7,2.2-0.6,3.4c0.2,0.9,0.6,1.8,1,2.6l0.5,1
		c0.1,0.1,0.1,0.2,0.1,0.3c0,0,0,0,0,0.1c0.1,0.2,0.1,0.4,0.2,0.6c0,0.1,0,0.1,0,0.2c0,0.2,0,0.4,0,0.6c0,0.1,0,0.2,0,0.2v0.2l0,0
		c0,0.1,0,0.2-0.1,0.3c0,0.2-0.1,0.3-0.2,0.5v0.1v0.1c-0.2,0.3-0.4,0.7-0.7,1l0,0l0,0l-0.1,0.1l-0.1,0.1l-0.4,0.4l-0.4,0.4l-0.2,0.2
		l0,0c-1.4,0.9-2.9,1.7-4.4,2.4h-0.1l-0.4,0.2l-0.7,0.3l-0.6,0.2c1.4-3.4,2.2-7.1,1.5-10.9c-0.4-2.4-1.4-4.7-2.2-7
		c-0.8-2.3-1.6-4.9-2.2-7.4c-0.3-1.4-0.6-2.8-0.9-4.2c-0.1-0.7-0.2-1.4-0.3-2.1c-0.1-0.7-0.1-0.7-0.1-1s0-0.2-0.1-0.4
		c0-0.1,0-0.4,0-0.5c-0.1-0.9-0.7-1.8-1.7-1.7c-1,0-1.9,0.8-1.7,1.7c0.6,5.1,1.7,10.1,3.3,15c0.7,2.1,1.6,4.1,2.2,6.2
		c0,0.4,0,0.8,0,1.2c0,0.3,0,0.5,0,0.8c0,0,0,0,0,0.1s0,0.3-0.1,0.4c-0.1,0.6-0.2,1.1-0.4,1.7c-0.1,0.2-0.2,0.5-0.3,0.8
		c0,0.1-0.1,0.2-0.1,0.4c0,0,0,0.1-0.1,0.1c-0.2,0.5-0.5,1-0.8,1.5l-0.4,0.7c-0.1,0.1-0.2,0.2-0.2,0.3l-0.1,0.1
		c-0.1,0.1-0.1,0.1,0,0.1c-0.1,0.2-0.3,0.3-0.5,0.5l-0.6,0.6l-0.5,0.4c-0.1,0-0.1,0.1-0.1,0.1l-0.4,0.2l-0.6,0.4l-0.2,0.1l-0.2,0.1
		l-0.3,0.1h-2.3l-0.3-0.1l-0.9-0.1c-2.3-0.4-4.8-1-7,0.2c-0.3,0.1-0.5,0.3-0.8,0.5c0.1-0.4,0.2-0.9,0.2-1.3c0.2-1.3,0.2-2.6,0.2-4
		s-0.1-2.7,0-4c0-0.4,0-0.8,0.1-1.2c0-0.1,0-0.2,0-0.2c0-0.2,0-0.4,0.1-0.6c0,0,0,0,0-0.1c0.3,0.3,0.7,0.8,1,1.1l0.8,1l0.1,0.2
		l0.1,0.1l0.4,0.5c0.5,0.7,1,1.5,1.4,2.3l0.5,1.1c0.1,0.1,0.1,0.2,0.1,0.3l0.2,0.7c0.2,0.8,0.9,1.3,1.7,1.3c0.7,0,1.5-0.5,1.7-1.3
		c0.6-2.8,0.7-5.7,0.2-8.6c-0.4-2.8-1.6-5.3-2.8-7.8c-0.1-0.1-0.1-0.3-0.2-0.4l-0.1-0.2c-0.1-0.3-0.2-0.6-0.3-0.9l-0.6-1.8
		c-0.3-1.3-0.7-2.5-0.9-3.8c0-0.1,0-0.3-0.1-0.5v-0.1l-0.1-1c-0.1-0.6-0.1-1.3-0.1-1.9c0-1.3,0-2.5,0.1-3.8l0.1-0.9
		c0-0.1,0-0.2,0-0.3l0.1-0.6c0.1-0.7,0.3-1.4,0.5-2.1c0.3-1.4,0.8-2.8,1.4-4.1c0.3-0.8-0.4-1.9-1.2-2.1c-0.8-0.2-1.8,0.3-2.2,1.2
		c-2,4.8-2.7,10.1-2.1,15.3c0.3,2.6,0.9,5.3,1.8,7.7c0.5,1.3,1.1,2.6,1.7,3.9c0,0.1,0.1,0.3,0.2,0.5c0,0.1,0.1,0.2,0.1,0.2
		c0.1,0.3,0.2,0.6,0.3,0.9c0.2,0.6,0.5,1.3,0.6,1.9c0.1,0.4,0.2,0.7,0.2,1.1l0.1,0.5v0.1c0,0,0,0.1,0,0.2s0,0.5,0.1,0.7
		c-0.7-0.9-1.4-1.7-2.1-2.5c-2.2-2.4-4.8-4.5-7-6.9l-0.7-0.8l-0.1-0.1c0,0,0,0-0.1-0.1l-0.4-0.5c-0.5-0.6-0.9-1.3-1.2-1.9
		c-0.4-0.7-0.7-1.4-1-2.1l-0.1-0.1l0,0l-0.2-0.6c-0.1-0.4-0.3-0.8-0.4-1.1c-0.1-0.4-0.4-1.5-0.6-2.2l-0.2-1.1c0-0.1,0-0.2,0-0.3
		c0-0.2,0-0.4-0.1-0.5c-0.1-1.6-0.1-3.2,0-4.7c0-0.1,0-0.1,0-0.2c0,0,0,0,0-0.1v-0.1l0.1-0.7c0.1-0.4,0.2-0.9,0.3-1.3
		c0.2-0.9,0.5-1.7,0.8-2.6l0.2-0.6c0-0.1,0.1-0.2,0.1-0.3v-0.1c0,0,0,0,0-0.1c0.2-0.4,0.3-0.8,0.6-1.1c0.4-0.8,0.9-1.6,1.4-2.4
		c0.5-0.8,0.2-1.9-0.6-2.4s-1.9-0.2-2.4,0.6l0,0c-5.7,8.6-5.5,19.8,0.6,28.1c1.5,2,3.3,3.7,5,5.3c-0.3,1-0.5,2.1-0.7,3.1
		c-0.1,0.1-0.1,0.2-0.1,0.3v0.1l0,0c0,0.1-0.1,0.3-0.2,0.4c-0.1,0.2-0.2,0.5-0.4,0.7l-0.2,0.2l-0.1,0.2l-0.6,0.6l-0.5,0.5l-0.2,0.1
		l-0.3,0.2l-0.7,0.4l-0.2,0.1l-0.2,0.1c-1.1,0.4-2.3,0.7-3.4,1.1c-1.3,0.6-2.5,1.3-3.6,2.2l-0.1,0.1l0,0l-0.3,0.3l-0.6,0.4l-0.7,0.5
		l-0.4,0.2l-0.2,0.1c0,0,0,0-0.1,0l-1.5,0.5l-0.8,0.1l0,0h-0.7c-0.5,0-1,0-1.6,0h-0.3l0.9-1.6c1.1-2,2.2-4,3.1-6.1
		c1-2.2,1.8-4.5,2.4-6.8s1-4.6,1-7c-0.1-2.2-0.6-4.4-1.6-6.4s-2.3-3.8-3.4-5.7c-0.2-0.5-0.5-0.9-0.7-1.4c0-0.1-0.1-0.1-0.1-0.2
		c0-0.1-0.1-0.1-0.1-0.2c-0.1-0.3-0.2-0.5-0.2-0.8c-0.1-0.2-0.1-0.5-0.2-0.7c0-0.1,0-0.2,0-0.3v-0.1c0-0.3,0-0.5,0-0.8v-0.2
		c0-0.1,0-0.2,0-0.2c0-0.1,0-0.2,0-0.3l0.1-0.3c0.1-0.2,0.1-0.3,0.2-0.5c0,0,0,0,0-0.1c0.1-0.2,0.2-0.4,0.3-0.6l0.1-0.1
		c-0.1,0.2,0.1-0.1,0.1-0.1c0.1-0.2,0.3-0.3,0.5-0.5l0.5-0.5c0-0.1,0.3-0.2,0.3-0.2c0.8-0.6,1.7-1.1,2.6-1.7
		c0.9-0.6,1.8-1.2,2.6-1.9c0.9-0.8,1.7-1.8,2.1-3c1-2.5,0.7-5.4,0.9-8.1c0-0.9-0.8-1.7-1.7-1.7c-1,0-1.7,0.8-1.7,1.7
		c-0.1,1.2-0.1,2.4-0.1,3.6c0,0.2-0.2,1.7-0.1,1.7c0,0.1,0,0.3-0.1,0.4l-0.2,0.9c-0.1,0.1-0.1,0.2-0.1,0.3l0,0
		c-0.1,0.3-0.2,0.6-0.4,0.8l-0.1,0.1l-0.1,0.2l-0.5,0.5l-0.5,0.4l-0.3,0.3l-1.2,0.8c-1.8,1.1-3.7,2.2-5,3.9
		c-0.8,1.1-1.3,2.3-1.6,3.5c-0.4,1.4-0.7,2.8-1,4.2s-0.5,2.1-0.7,3.1c-0.1-0.6-0.2-1.2-0.4-1.8c-0.1-0.6-0.2-1.6-0.3-2.4
		c0-0.1,0-0.2,0-0.2c0-0.2-0.1-0.4-0.1-0.6c-0.1-0.4-0.1-0.8-0.1-1.2c-0.1-1.6-0.2-3.1-0.2-4.7c0-0.7,0.1-1.5,0.1-2.2
		c0-0.2,0-0.4,0.1-0.6c0-0.2,0-0.2,0-0.2c0.1-0.3,0.1-0.7,0.2-1.1c0.1-0.7,0.3-1.4,0.5-2.1c0.1-0.3,0.2-0.6,0.3-0.9l0.2-0.5l0.1-0.3
		c0.3-0.6,0.6-1.2,0.9-1.8c0.2-0.2,0.3-0.5,0.5-0.8l0.3-0.3l0.1-0.1c0.1,0,0.2-0.1,0.2-0.2l0.7-0.4l0.8-0.3h0.1l0.5-0.2
		c2.3-0.9,5.1-1.6,6.4-3.9c0.4-0.7,0.7-1.5,0.8-2.2c0.2-1,0.3-2.1,0.4-3.1l0.2-2.8c0-0.2,0.1-0.5,0.1-0.7c0-0.1,0.1-0.2,0.1-0.4
		c0.1-0.5,0.2-0.9,0.3-1.4c0-0.2,0.1-0.4,0.2-0.6l0,0l0.2-0.3l0.1-0.1l0,0l0,0l0,0c0.2-0.2,0.3-0.4,0.6-0.6l0.1-0.1l0.4-0.3
		c1.1-0.7,2.3-1.3,3.4-2c1.3-0.8,2.4-1.9,3.3-3.2c0.9-1.5,1.6-3,2-4.6c0.5-1.6,0.9-3.2,1.3-4.7c0.5-1.6,1-3.1,1.6-4.6
		C46.9,129.4,47.8,127.3,48.4,125.2z M196.8,200.3c0,0.2,0,0.5-0.1,0.8v0.1c0,0.1,0,0.2,0,0.3c-0.1,0.6-0.2,1.2-0.4,1.7
		c-0.6,2.3-1.4,4.4-2.1,6.6c-1.4,4.2-2.1,8.7-1.5,13.1c0.3,2.3,0.9,4.6,1.8,6.8c0.8,2,2.1,3.8,3.1,5.8c0,0.1,0,0.1,0.1,0.2h-1.1
		c-0.3,0-0.5,0-0.8,0h-0.7c-0.5-0.1-0.9-0.2-1.4-0.3l-0.7-0.2l-0.3-0.1l-0.2-0.1c-0.5-0.2-0.9-0.5-1.3-0.7l-0.7-0.5l-0.2-0.1
		l-0.3-0.3c-1.1-0.9-2.3-1.6-3.7-2.1c-0.6-0.2-1.1-0.3-1.7-0.5l-0.9-0.2l-0.4-0.1c-0.1,0-0.9-0.4-1.3-0.7c0.2-0.5,0.1-1.1-0.1-1.5
		c-0.3-0.5-0.7-1.1-0.9-1.6l-0.4-0.8l-0.2-0.5v-0.1c0,0,0-0.1-0.1-0.1c-0.5-1.2-0.8-2.4-1.1-3.6c-0.1-0.3-0.1-0.6-0.2-0.9
		c0-0.1,0-0.3-0.1-0.4V220c-0.1-0.7-0.1-1.3-0.1-2c0-1.3,0.1-2.6,0.2-3.9c0.1-1.5,0-3-0.3-4.5c1.5-1.3,2.9-2.7,4.1-4.2
		c4.2-5.2,6.3-11.9,5.5-18.6c-0.1-0.6-0.2-1.2-0.3-1.8l0.5,0.8c1.3,1.9,2.9,3.6,4.4,5.3l1,1.2l0.3,0.3l0,0c0.2,0.2,0.4,0.5,0.6,0.8
		c0.3,0.4,0.6,0.9,0.8,1.3c0.1,0.2,0.3,0.5,0.4,0.7l0.2,0.3c0,0.1,0.1,0.2,0.1,0.3c0.1,0.2,0.2,0.5,0.2,0.7c0,0.1,0,0.2,0,0.4
		l0.1,0.5v0.1c0,0.3,0,0.6,0.1,0.9C196.9,199.2,196.9,199.8,196.8,200.3z"/>
</g>
</svg>
