<?xml version="1.0" encoding="utf-8"?>
<!-- Generator: Adobe Illustrator 27.9.0, SVG Export Plug-In . SVG Version: 6.00 Build 0)  -->
<svg version="1.1" id="Layer_1" xmlns="http://www.w3.org/2000/svg" xmlns:xlink="http://www.w3.org/1999/xlink" x="0px" y="0px"
	 viewBox="0 0 256 204.9" style="enable-background:new 0 0 256 204.9;" xml:space="preserve">
<g>
	<path style="stroke:#000000;stroke-width:3;stroke-linecap:round;stroke-linejoin:round;stroke-miterlimit:10;" d="M175,93.2
		c0,0.1,0,0.1,0,0.2v0.1c0,0.1,0,0.3-0.1,0.4c-0.1,0.9-0.3,1.6-0.4,2.3c-0.3,0.8,0.2,1.7,1,2c0.7,0.2,1.5-0.1,1.8-0.7c0,0,0,0,0,0
		h0.3l0.4,0.1l0.2,0.1l0.2,0.1l0.2,0.3c0,0,0,0,0.1,0.1l0.1,0.2l0.1,0.4c0,0.1,0,0.2,0.1,0.3v0.3c0,0.3,0,0.5,0,0.7c0,0,0,0.3,0,0.3
		l-0.1,0.4l-0.2,0.9c-0.2,0.5-0.3,1.1-0.5,1.7c-0.7,2.4-1,4.8-1,7.2c0,1.3,0.1,2.5,0.3,3.8c0.1,0.5,0.1,1.1,0.3,1.6
		c0.2,0.9,1,1.4,1.9,1.6c0.6,0.1,1.2,0.1,1.8,0l0.7-0.1l0.3-0.1h0.6l0.1,0.1h0.1c0,0,0,0,0,0h0c0.2,0.1,0.1,0.1,0.1,0.1l0.1,0.1
		c0-0.1,0-0.1,0.1,0.1h0l0.1,0.1l0.2,0.4l0.1,0.2l0.2,0.6l0.6,2.2c0.5,1.7,1.4,3.3,3.1,4.1c1.7,0.8,3.7,0.9,5.4,0.3
		c2.2-0.8,3.9-2.4,4.9-4.4c1.1-2.1,1.6-4.4,2-6.7c0.1-0.8-0.2-1.7-1.1-2s-1.8,0.3-2,1.1c-0.2,1.2-0.4,2.4-0.7,3.5
		c-0.2,0.6-0.3,1.2-0.6,1.7c0,0-0.1,0.1-0.1,0.1l-0.2,0.4c-0.1,0.3-0.3,0.5-0.4,0.8l-0.5,0.7l-0.1,0.1c0,0,0,0,0,0h0l-0.3,0.4
		c-0.2,0.2-0.3,0.3-0.5,0.5h0l-0.3,0.2l-0.6,0.3h-0.1c-0.1,0-0.3,0.1-0.3,0.1c-0.2,0.1-0.4,0.2-0.7,0.2l-0.3,0.1h-1.2l-0.6-0.1
		l-0.3-0.1h-0.1L189,122c0,0,0,0,0-0.1l-0.3-0.3c0,0,0,0,0-0.1l-0.2-0.2c-0.1-0.2-0.2-0.3-0.3-0.5c0,0,0,0,0-0.1
		c-0.1-0.1-0.1-0.2-0.1-0.3l-0.2-0.7c-0.1-0.4-0.3-0.9-0.3-1.3c-0.2-0.9-0.6-1.8-1-2.6c-0.6-1.1-1.7-1.8-2.9-2
		c-0.8-0.1-1.6,0-2.3,0.2h-0.4l-0.1-0.6c0-0.1,0-0.2-0.1-0.3l-0.1-0.8c-0.1-1-0.1-1.9-0.1-2.9c0-0.4,0-0.9,0.1-1.3
		c0-0.3,0-0.5,0.1-0.7c0-0.1,0-0.2,0-0.3V107c0.2-0.9,0.3-1.8,0.6-2.7c0.5-1.9,1.3-3.8,1-5.8c-0.1-1-0.5-1.9-1.1-2.7
		c-0.4-0.5-1-1-1.6-1.3c-0.5-0.2-1-0.4-1.6-0.4c0.6-4.4,0.3-8.9,0.1-13.2c-0.1-2.7-0.3-5.5-0.2-8.2c0-1.3,0.1-2.6,0.2-3.9l0.1-0.9
		c0,0,0-0.1,0-0.1v-0.1l0.1-0.5c0.1-0.6,0.2-1.2,0.3-1.8c0.2-0.7,0.3-1.3,0.6-2c0.1-0.3,0.2-0.6,0.3-0.9c0-0.1,0.1-0.1,0.1-0.2l0,0
		l0.2-0.5c0.3-0.6,0.6-1.2,1-1.8c0.2-0.3,0.4-0.6,0.6-0.9c0,0,0,0,0-0.1l0.1-0.1l0.4-0.4c0.5-0.6,0.7-1.6,0-2.2
		c-0.7-0.6-1.7-0.7-2.2,0c-3.5,4.1-4.6,9.5-4.9,14.7c-0.2,5.3,0.4,11,0.4,16.5c0,1.5,0,3-0.2,4.5C175.1,92.5,175.1,92.8,175,93.2z
		 M180.8,113.4C180.8,113.4,180.8,113.5,180.8,113.4L180.8,113.4z"/>
	<path style="stroke:#000000;stroke-width:3;stroke-linecap:round;stroke-linejoin:round;stroke-miterlimit:10;" d="M220.8,160.9
		l-1.9-0.7l-0.9-0.4l-0.1-0.1l-0.6-0.3c-1.2-0.5-2.4-1.1-3.6-1.7c-2.4-1.2-4.7-2.6-6.9-4.2c-0.6-0.4-1.1-0.8-1.6-1.2
		c-0.3-0.2-0.6-0.4-0.8-0.6l-0.2-0.1l-0.4-0.3c-1-0.8-2.1-1.7-3.1-2.6c-2-1.8-3.9-3.7-5.6-5.7c-0.4-0.5-0.9-1-1.3-1.6
		c-0.2-0.2-0.4-0.5-0.6-0.7c0,0,0-0.1-0.1-0.1l-0.1-0.1l-0.3-0.4c-0.8-1.1-1.6-2.1-2.3-3.2c-1.5-2.2-2.9-4.4-4.3-6.6
		c-2.8-4.5-5.7-8.9-9.3-12.9c-3.6-3.9-8.6-7.6-14.1-9.1c-0.7-0.2-1.4-0.3-2.1-0.5s-1.7,0.2-1.9,1.1c-0.2,0.9,0.2,1.8,1.1,1.9
		c1.4,0.3,2.8,0.7,4.2,1.2l0.4,0.2h0l0.2,0.1l1.1,0.5l1.9,1c0.6,0.4,1.3,0.8,1.8,1.2l0.8,0.6c0,0.1,0.1,0.1,0.2,0.1l0.4,0.3
		c1,0.8,1.9,1.7,2.8,2.6c0.9,0.9,1.8,1.9,2.6,2.8l0.6,0.7l0.3,0.3l0.2,0.2l0.1,0.1l1.1,1.5c1.5,2.1,2.9,4.3,4.3,6.5
		c2.9,4.6,5.7,9.1,9.1,13.3c7,8.5,16,15,26.2,19.1l1.9,0.7c0.8,0.3,1.7-0.3,1.9-1.1C222.1,161.9,221.6,161.1,220.8,160.9z"/>
	<path style="stroke:#000000;stroke-width:3;stroke-linecap:round;stroke-linejoin:round;stroke-miterlimit:10;" d="M65,122.2
		l-0.6-0.3l-0.3-0.2c0,0,0,0,0,0H64l-0.5-0.4l-0.3-0.3l-0.1-0.1c-0.4-0.5-0.7-1.1-1-1.7l-0.1-0.2h0c-0.1-0.2-0.1-0.3-0.2-0.4
		c-0.1-0.3-0.2-0.6-0.3-1c-0.4-1.3-0.7-2.6-0.9-4c-0.1-0.8-1.2-1.3-1.9-1.1c-0.8,0.3-1.3,1.1-1.1,2c0.7,3.9,1.8,8.5,5.5,10.6
		c1.7,0.9,3.6,1.2,5.5,0.8c0.9-0.2,1.8-0.7,2.5-1.3c0.7-0.7,1.2-1.5,1.5-2.4c0.3-0.7,0.5-1.4,0.7-2.1c0.1-0.3,0.2-0.7,0.3-1
		c0.1-0.2,0.1-0.3,0.2-0.5l0.1-0.3h0l0.2-0.4l0.1-0.1c0,0,0,0,0,0c0.1-0.2,0.1-0.1,0.1-0.1c0.1,0,0.1-0.1,0.2-0.2h0.1c0,0,0,0,0,0
		h0.9l0.8,0.2c1.3,0.2,3.3,0.1,3.7-1.5c0.3-1.2,0.5-2.5,0.5-3.7c0.2-2.4,0-4.9-0.5-7.3c-0.3-1.3-0.7-2.5-1-3.8
		c-0.1-0.3-0.2-0.7-0.2-1v-0.1c0-0.2,0-0.3,0-0.5V99l0.1-0.4c0-0.1,0-0.1,0-0.1c0.1-0.1,0.1-0.1,0.1-0.2h0c0.1-0.1,0.3-0.2,0.4-0.3
		l0.3-0.2h0.2l0.2-0.1h0c0,0,0,0,0.1,0h0.4c0.4,0.6,1.1,0.9,1.8,0.7c0.7-0.2,1.1-0.8,1.2-1.5c0.3-3.5,0.7-7,1.1-10.4
		c0.3-3.5,0.6-7.6,0.7-11.3c0.1-3.7-0.1-7.4-0.7-11.1c-0.5-3.1-1.4-6.3-3.1-9c-1.6-2.7-4-4.9-7-6l-1.1-0.3c-0.8-0.2-1.7,0.3-1.9,1.1
		c-0.2,0.8,0.3,1.7,1.1,1.9l1,0.3l0.4,0.2l0.3,0.1c0.6,0.3,1.2,0.7,1.8,1l0.1,0.1l0.4,0.3c0.3,0.2,0.5,0.4,0.7,0.7l0.7,0.7l0.1,0.1
		l0.3,0.4c0.4,0.6,0.8,1.2,1.1,1.8s0.3,0.7,0.4,1c0,0.1,0.1,0.1,0.1,0.2c0.1,0.2,0.2,0.3,0.2,0.5c0.5,1.4,0.9,3,1.2,4.5
		c0.1,0.4,0.2,0.8,0.2,1.2c0,0.2,0,0.3,0.1,0.5c0,0.1,0,0.3,0.1,0.4c0.1,0.9,0.2,1.7,0.2,2.6c0.1,1.8,0.2,3.6,0.2,5.4
		c-0.1,3.7-0.3,7.4-0.7,11.2c-0.3,3.1-0.6,6.1-0.9,9.2c-0.5,0-1.1,0-1.6,0.2c-1.6,0.5-2.8,1.7-3.2,3.3c-0.5,2,0.1,4.1,0.7,6
		c0.3,0.9,0.5,1.8,0.6,2.7l0.1,0.7h0v0.1c0,0.1,0,0.1,0,0.2c0,0.5,0.1,1,0.1,1.5c0,1.1,0,2.1-0.1,3.2c0,0.3,0,0.5-0.1,0.7
		c0,0.2,0,0.3,0,0.4v0.1c0,0,0,0.1,0,0.1c0,0.3-0.1,0.5-0.1,0.8h-0.2c-0.6-0.2-1.3-0.2-1.9-0.3c-1.2,0-2.3,0.4-3,1.3
		c-1.3,1.5-1.5,3.5-2.1,5.3c0,0.1-0.1,0.2-0.1,0.3c-0.1,0.2-0.2,0.4-0.3,0.6l-0.2,0.3l-0.3,0.2c0,0,0,0.1-0.1,0.1h0
		c-0.2,0.2-0.1,0,0,0l-0.5,0.3h-0.1l-0.3,0.1l-0.6,0.2h-1.4l-0.7-0.2L65,122.2C65.3,122.3,65.1,122.2,65,122.2z"/>
	<path style="stroke:#000000;stroke-width:3;stroke-linecap:round;stroke-linejoin:round;stroke-miterlimit:10;" d="M231.9,178.6
		c-0.9-0.7-2.5-1.6-2.8-2.9c-0.1-0.3,0-1.8,0.6-1.7c1.3,0.2,2.5-1,1.8-2.3c-1.2-2.1-2.6-4-4.2-5.9c0.9-0.1,1.6-1,1.4-2
		c-1.1-6.2-3.8-11.9-7.8-16.8c1.4-0.3,2.8-0.2,4.2,0.3c1.1,0.4,2.4-0.8,2-1.9c-1.1-3.2-3.5-5.9-6.5-7.4c-0.8-0.4-1.5-0.7-2.4-0.9
		c-0.3-0.1-0.9-0.1-1.1-0.3c0-0.2,0-0.4,0-0.6c0.1-1.7,0.4-3.3,0.8-5c1.7-6.8,5.6-12.9,11.2-17.2c1.3-1-0.1-3-1.5-2.6l-3.9,1.1
		l2.2-4.2c0.8-1.5-0.8-2.7-2.1-2.1c-1.5,0.6-3.2,1-4.8,1.2c1.4-2.6,2.7-5.4,3.8-8.1c0.4-0.9-0.6-2-1.5-2l-2.2,0.1
		c2-8.5,4.9-16.8,8.7-24.7c0.8-1.7-1.1-3-2.5-1.9c-0.5,0.4-1,0.8-1.5,1.2c0.2-12.4-6.1-23.8-8.6-35.7c-0.8-3.6-1.1-7.4-0.9-11.1
		c0.1-1.3-1.4-1.8-2.4-1.4c-18.2,8-32.3,23-42.9,39.5c-2.6,4-5,8.1-7.3,12.4c-1-1.4-1.8-2.8-2.4-4.4c-0.5-1.2-2.2-1.7-2.9-0.4
		c-3.4,6.6-3.9,14.1-5.7,21.1c-1.5,6.1-4.4,12.5-10.8,14.6c-2.6,0.9-5.5,1-8.3,1c-1.5,0-3-0.1-4.6-0.2c-1.5-0.1-3.5,0-5.3,0
		c-3.2-0.1-6.2-2-8.4-4.3c-2.2-2.3-3.7-5.5-4.7-8.7c-2.4-7.8-2.5-16.2-6.3-23.5c-0.7-1.3-2.4-0.8-2.9,0.4c-0.5,1.3-1.1,2.6-1.9,3.7
		c-2.4-9.2-6-18.2-11.5-26S72.5,34,63.7,29.4c-5.6-2.8-11.5-4.8-17.7-5.9c-0.9-0.2-2.1,0.4-2,1.5c1.2,16.3-2.2,32.6-0.7,48.9h-0.7
		c-1,0.1-2,0.3-2.8-0.2c-1.4-0.9-2.8,0.9-2.2,2.1c3.3,7.1,6.2,14.3,8.1,21.9L42,97.5c-1.3-0.1-1.8,1.4-1.4,2.4
		c1.3,3.1,3.5,5.5,5.5,8.2c-2.1,0.3-4.1,0.5-6.1-0.3c-1.4-0.5-2.4,1.2-1.8,2.3c2.4,4.5,5.3,8.7,7.4,13.3c0.4,0.9,0.8,1.8,0.8,2.7
		c0,0.9-0.2,0.9-0.9,1c-2,0.4-4.1-1.1-5.9-2c-1.3-0.6-3,0.7-2.1,2.2c0.9,1.4,1.7,2.7,2.7,4c1,1.3,2.1,2.1,3.2,3.3s3,4.2,0.8,4.9
		c-2.1,0.8-4.6,0.7-6.8,1.2c-2.2,0.5-4.9,1.9-6.2,4.2c-0.3,0.5-0.3,1.3,0.1,1.7c0.4,0.5,1,0.8,1.7,0.6c1.6-0.4,3.7-0.4,5,0.8
		c1.3,1.2,1.3,4.3,1.1,6.6c-4.9,1.8-8.6,5.7-11.6,9.9c-0.8,1.1-1.5,2.2-2.2,3.3s-0.7,1.2-0.7,1.9c0,0.8-0.4,1-0.7,1.6
		c-1.4,2.6-2.3,5.4-2.6,8.3v0.1c0,0.1,0,0.2,0,0.3c0,0.2,0,0.3,0,0.4c0,0.1,0,0.2,0,0.2c0,0.5,0.3,0.9,0.7,1.1
		c0.5,0.3,1.1,0.3,1.6,0c1.2-0.9,2.5-1.5,3.8-2c0.7-0.3,1.4-0.4,2.1-0.5l0.3-0.1h0.3c0.8-0.1,1.7-0.2,2.5-0.2c0.3,0,0.7,0,1,0.1h0.2
		c0.3,0.5,0.8,0.9,1.4,0.9c0.8,0,1.7-0.7,1.6-1.6c-0.4-2.8-3.7-2.7-5.9-2.5c-2.1,0.2-4.1,0.7-6,1.5c0.4-1.7,1.1-3.3,2-4.8
		c0.3-0.6,0.7-1.1,0.9-1.8c0.2-0.7,0-0.8,0.4-1.4c0.4-0.6,1.3-2.1,2-3.1c2.7-3.9,6.2-7.7,10.9-9c0.7-0.2,1.1-0.8,1.2-1.5
		c0-3.4,0.7-7.6-2.1-10.1c-0.9-0.7-1.9-1.3-3-1.5c1.1-0.3,2.2-0.6,3.4-0.7c2.2-0.3,5.2-0.3,6.8-2.1c1.6-1.9,0.7-5.7-0.9-7.8
		c-0.9-1.2-2.1-2.1-3.1-3.2l-0.1-0.1c0.9,0.2,2,0.3,2.9,0.1c2.7-0.5,3.7-2.8,3.2-5.3c-0.5-2.6-2.1-5.4-3.4-7.7
		c-1.3-2.4-2.3-3.8-3.4-5.7c2.1,0,4.2-0.4,6.2-0.6c1.1-0.1,2-1.3,1.4-2.4c-1.6-2.7-3.8-5-5.5-7.7c1,0.1,2.1,0.2,3.1,0.2s1.7-1,1.5-2
		c-1.7-7.6-4.4-14.8-7.6-21.8c0.9-0.1,1.8-0.3,2.6,0.2c0.8,0.5,2.5-0.2,2.4-1.4c-2-16.4,1.5-32.7,0.6-49.1c9.2,2,17.9,5.9,25.2,12
		s13.1,14.4,17.1,23.3c2.3,5.3,4.1,10.8,5.3,16.4c0.3,1.1,1.9,1.5,2.6,0.7c1.2-1.3,2.2-2.7,3-4.2c2.3,6.1,2.7,12.9,4.5,19.2
		c1.8,6.3,6,13.2,13,15.5c2,0.6,3.9,0.5,5.9,0.4c2-0.1,3.3,0.1,4.9,0.2c3.1,0.2,6.2,0.1,9.3-0.5c3-0.6,5.9-1.9,8.2-4
		c2.6-2.4,4.4-5.6,5.6-8.9c2.7-7.1,2.7-14.9,5.5-21.9c0.9,1.5,1.9,2.9,3,4.2c0.6,0.6,1.7,0.6,2.3,0c0.1-0.1,0.2-0.2,0.2-0.3
		c8.9-17,20.4-33.4,36.1-44.7c3.7-2.6,7.5-4.9,11.6-6.9c0,12.7,6.6,24.3,8.9,36.6c0.7,3.7,0.9,7.4,0.5,11.1
		c-0.1,1.3,1.2,1.7,2.2,1.4c-3,7.1-5.3,14.4-7,21.8c-0.2,1,0.4,2,1.5,2l1.8-0.1c-1.2,2.6-2.5,5.2-4,7.7c-0.6,1.1,0.2,2.3,1.4,2.4
		c1.7,0.1,3.5-0.1,5.2-0.4l-2.1,4c-0.6,1.2,0.4,2.7,1.8,2.3l1.3-0.4c-2.4,2.9-4.4,6.1-5.9,9.5c-1.1,2.7-1.9,5.6-2.3,8.5
		c-0.2,1.4-0.5,3.1,0.3,4.3c0.8,1.3,2.2,1.4,3.5,1.8c1.9,0.6,3.5,1.8,4.7,3.4c-1.8,0-3.6,0.4-5.1,1.3c-0.8,0.5-1,1.4-0.5,2.2
		c0.1,0.1,0.1,0.2,0.2,0.3c4,4.2,6.8,9.5,8.2,15.2c-0.7,0.2-1.3,0.4-1.8,0.8c-0.8,0.6-1.1,1.7-0.3,2.5c1.7,1.7,3.3,3.6,4.6,5.6
		c-1.6,1.2-2.2,3.9-1.2,6s2.5,2.7,3.9,3.8c0.9,0.8,2.7,2.3,2,3.7c-0.8,1.4,1.8,3.4,2.7,1.6C236.7,183.4,234.3,180.4,231.9,178.6z"/>
	<path style="stroke:#000000;stroke-width:3;stroke-linecap:round;stroke-linejoin:round;stroke-miterlimit:10;" d="M102.5,108.3
		c-6.5,1.2-12.3,5.1-16.5,10.1c-4.3,4.9-7.1,10.1-9.5,15.8c-1.3,2.9-2.4,5.8-3.4,8.7c-0.5,1.5-1,3-1.6,4.5c-0.3,0.7-0.5,1.4-0.8,2.1
		l-0.4,1c0,0.1-0.1,0.2-0.1,0.3c-0.1,0.2-0.2,0.3-0.2,0.5c-1.1,2.5-2.3,5-3.7,7.4c-0.6,1.1-1.3,2.1-2.1,3.1l-0.3,0.3
		c0,0-0.1,0.1-0.1,0.1L63,163l-1.2,1.3c-0.8,0.8-1.6,1.5-2.5,2.2l-0.3,0.2c0,0.1-0.1,0.1-0.1,0.1l-0.7,0.5l-1.4,0.9
		c-0.5,0.3-0.9,0.5-1.4,0.8l-0.7,0.3h-0.1c0,0-0.1,0-0.1,0l-0.4,0.2c-1,0.4-2.1,0.7-3.2,0.9l-1.6,0.3c-0.8,0.1-1.4,1.2-1.1,1.9
		c0.3,0.7,1.1,1.2,2,1.1c4.6-0.7,8.9-2.7,12.3-5.8c3.8-3.4,6.5-7.9,8.7-12.4c1.4-2.8,2.6-5.7,3.6-8.6c1.1-2.9,2-5.8,3.2-8.6l0.4-1
		l0.2-0.4v-0.1c0.1-0.1,0.1-0.2,0.2-0.3c0.3-0.7,0.6-1.4,0.9-2.1c0.6-1.4,1.3-2.8,2-4.1c1.4-2.7,3.1-5.3,4.9-7.8l0.1-0.1l0.4-0.5
		l0.7-0.8c0.5-0.6,1-1.1,1.5-1.7c1-1.1,2-2,3.2-3c0.1-0.1,0.6-0.5,0.3-0.2l0.4-0.3l1.1-0.8l2.1-1.3c0.7-0.4,1.5-0.8,2.2-1.1h0.1
		l0.3-0.1l0.6-0.2l1.3-0.4c0.8-0.2,1.6-0.4,2.4-0.6c0.8-0.2,1.3-1.1,1.1-1.9C104.2,108.6,103.3,108.1,102.5,108.3z"/>
</g>
</svg>
