<?xml version="1.0" encoding="utf-8"?>
<!-- Generator: Adobe Illustrator 27.9.0, SVG Export Plug-In . SVG Version: 6.00 Build 0)  -->
<svg version="1.1" id="Layer_1" xmlns="http://www.w3.org/2000/svg" xmlns:xlink="http://www.w3.org/1999/xlink" x="0px" y="0px"
	 viewBox="0 0 202.1 128.9" style="enable-background:new 0 0 202.1 128.9;" xml:space="preserve">
<g>
	<path style="stroke:#000000;stroke-width:3;stroke-linecap:round;stroke-linejoin:round;stroke-miterlimit:10;" d="M191.2,54.4
		c-0.2-7.3-2.4-14.4-4.4-21.3c-0.5-1.6-1.1-3.2-1.4-4.9c-0.3-1.7,0.3-3.3,0.4-5c0.3-2.9-1.3-5.5-3.5-7.2c-5.5-4.1-12.4-1.1-17.1,2.7
		c-10.9,8.6-15.9,22.3-25.6,31.9c-4.4,4.3-10.1,7.9-16.3,8.5c-3.7,0.3-7.1-0.6-10.5-1.8c-3.4-1.2-6.9-1.7-10.3-0.2
		c-1.6,0.7-3,1.5-4.7,1.9c-1.6,0.4-3.6,0.4-5.3,0.2c-3.6-0.4-7.1-1.6-10.7-1.9c-1.9-0.1-3.8,0-5.6,0.2c-1.6,0.2-3.5,0.5-5-0.1
		c-1.5-0.6-2.1-1.5-2.8-2.5c-0.7-1-1.7-2.8-2.6-4.1c-3.9-6.1-8.1-11.9-12.6-17.6c-4.2-5.3-8.9-10.3-14.2-14.5
		c-4-3.2-10-6.9-14.9-3.3c-2.5,1.8-3.4,4.6-4.2,7.4c-0.9,3.3-2.4,6.3-4,9.4s-3.2,6.3-4.1,9.7c-0.9,3.4-0.6,7.3,0.1,11
		c0.8,3.6,1.7,7,1.6,10.6c-0.1,3.6-0.9,7.2-1.7,10.8c-1.3,6.3-2.5,13.1,0.1,19.2c0.6,1.5,1.5,2.8,2.5,4c1,1.1,2.3,1.7,3.2,2.8
		c0.9,1.1,0.8,2.9,0.4,4.2s-1.2,3-2,4.5c-1.6,3.1-3,6.3-4.1,9.7c-0.5,1.5,1.9,2.2,2.4,0.7c1.1-3.4,2.6-6.6,4.3-9.8
		c1.4-2.7,3.1-6.1,1.9-9.3c-0.5-1.3-1.5-2.2-2.7-3c-1.2-0.9-2.2-2-3-3.3c-1.6-2.7-2.1-5.9-2.1-9c0.1-6.8,2.7-13.3,3.1-20.1
		c0-0.3,0-0.6,0-0.9c0.1,0.1,0.1,0.2,0.2,0.3c0,0,0,0,0,0.1c0,0,0,0.1,0.1,0.2c0.1,0.2,0.1,0.3,0.2,0.5l0.2,1c0,0.1,0,0.1,0,0.2
		c0,0,0,0.1,0,0.2c0,0,0,0.1,0,0.1c0,0.1,0,0.2,0,0.3c0.1,1.5,0.1,3.1,0,4.6c0,0.3,0,0.7-0.1,1.1c0,0.2,0,0.4,0,0.6
		c0,0.1,0,0.2,0,0.3c0,0.1,0,0.2,0,0.2c-0.1,0.8-0.2,1.5-0.4,2.2c-0.3,1.3-0.7,2.6-0.9,3.9c-0.2,1.3-0.2,2.8,0.4,4.1
		c0.4,1.1,1,2.1,1.8,3.1c0.8,1,1.8,1.7,3,2c0.8,0.2,1.6,0.3,2.4,0.2c1.1,0,2.1-0.2,3.1-0.6c0.6-0.2,1.2-0.6,1.6-1
		c0.1-0.1,0.2-0.2,0.4-0.4c0,0,0,0.1,0,0.1c0,0.1,0,0.2,0,0.3c0,0,0,0,0,0l0,0.1c-0.1,0.9-0.1,1.8-0.3,2.8c-0.1,0.7,0.3,1.3,1,1.5
		c0.6,0.1,1.3-0.3,1.5-1c0.5-3.1,0.5-6.2,0.1-9.3l0.1,0l0.2,0.2c0.1,0.1,0.2,0.3,0.3,0.5c0.1,0.2,0.4,0.8,0.6,1.1
		c0.5,0.8,1.1,1.7,2,2c0.9,0.3,2.1,0,2.7-1c0.4-0.8,0.5-1.7,0.3-2.5c-0.1-0.3-0.2-0.7-0.3-1c0-0.1-0.1-0.2-0.1-0.3c0,0,0-0.1,0-0.1
		l0-0.2c0,0,0-0.1,0-0.2v0c0,0,0-0.1,0-0.1c0,0,0.1-0.1,0.1-0.1l0.1-0.1l0.2-0.1h0L37,79l0.1,0l0.1,0c0.3,0,0.7-0.1,1-0.1
		c0.1,0,0.3,0,0.4,0l0.6,0.1c0.5,0,1,0.1,1.5,0.1c1,0,1.9-0.2,2.8-0.8c0.4-0.2,0.6-0.7,0.5-1.1c-0.1-1.1-0.8-1.9-1.5-2.7L42.1,74
		l-0.2-0.2l-0.1-0.1l-0.3-0.4c0,0,0,0,0-0.1l0-0.1c0-0.1,0-0.1,0-0.2v0c0,0,0-0.1,0-0.1c0,0,0,0,0,0.1v0h0c0,0,0,0,0-0.1
		c0-0.1,0-0.1,0,0c0,0,0-0.1,0-0.1c0,0,0.1-0.1,0.1-0.1l0.1-0.1c0,0,0,0-0.1,0.1h0l0.1-0.1c0.1,0,0.2-0.1,0.3-0.2
		c0.1,0,0.1,0,0.2-0.1l0.7-0.2l0.1,0c0.1,0,0.3,0,0.4-0.1l1.5-0.2c1.1-0.2,2.3-0.6,3-1.5c0.3-0.3,0.5-0.6,0.6-1c0-0.4,0-0.8-0.2-1.1
		c-0.2-0.5-0.5-0.9-0.8-1.3c-0.6-0.7-1.3-1.3-2-1.9l-0.3-0.4l0-0.1L45.2,64L45,63.8c0,0,0,0,0-0.1l-0.1-0.2c0,0,0-0.1,0-0.1v0
		c0,0,0-0.1,0-0.1c0,0,0-0.1,0-0.1c0,0,0-0.1,0-0.1l0-0.3c0,0,0.1-0.1,0.1-0.1v0c0,0-0.1,0.1,0,0l0.2-0.3l0,0h0l0.3-0.2l0.2-0.1h0
		l0.2-0.1c0.3-0.1,0.5-0.2,0.8-0.3c0.2-0.1,0.4-0.1,0.7-0.2c0,0,0,0,0.1,0l0.2,0l0.4-0.1c0.4,0,0.8-0.3,1-0.7
		c0.2-0.4,0.2-0.8-0.1-1.2l-4.3-5.3c-0.3-0.4-0.6-0.8-0.9-1.2l0-0.1c0,0-0.1-0.4,0-0.2c0.1,0.2,0,0,0-0.1c0-0.1,0-0.1,0-0.2h0
		c0-0.1,0-0.1,0.1-0.2c0,0,0,0,0,0l0.1-0.1l0.1-0.1c0.1,0,0.2-0.1,0.3-0.2l0.1,0l0.3-0.1h0c0,0,0,0,0,0h0.2l0.4,0.1
		c0.5,0.4,1.3,0.4,1.7-0.1c0.4-0.5,0.4-1.3-0.1-1.7c-1.7-1.5-4.4-0.6-5.4,1.3c-0.6,1.1-0.4,2.3,0.2,3.4c0.3,0.5,0.7,1,1.1,1.4
		l1.2,1.5l1.6,2c-1.6,0.5-3,1.4-3.6,3.1c-0.3,1.1-0.1,2.2,0.5,3.1c0.5,0.8,1.2,1.4,1.9,2l0.5,0.5l0.2,0.3l0.1,0h0l0.3,0.4L46,68.6
		c0,0-0.1,0-0.1,0h0l-0.2,0.1l-0.3,0.1L45,69l-0.1,0l-0.1,0c-1.1,0.2-2.2,0.2-3.3,0.7c-1,0.4-2.3,1.4-2.5,2.8
		c-0.2,1.4,0.5,2.2,1.3,3.1l0.5,0.5l0.2,0.2l0.1,0.1l-0.1,0c-0.2,0-0.4,0-0.6,0h-0.3h0l-0.6,0l-1.3-0.1c-1.5-0.1-3.2,0.3-4.2,1.6
		c-0.7,0.9-0.7,1.9-0.5,3c0.1,0.3,0.2,0.7,0.3,1c0,0.1,0.1,0.2,0.1,0.3l0,0c0,0,0,0.2,0,0.2l0,0.1l0,0l-0.1-0.1
		c-0.2-0.3-0.5-0.7-0.7-1.1c-0.5-0.8-0.9-1.7-1.7-2.3c-0.8-0.6-2.1-1.1-3.3-0.8c-0.4,0.1-0.9,0.7-0.8,1.3c0.3,1.5,0.5,2.9,0.6,4.4
		c0,0-0.1,0-0.1,0c-0.6-0.1-1.3,0.2-1.5,0.8c0,0,0,0.1-0.1,0.2l-0.1,0.2c0,0,0,0,0,0l-0.2,0.2l-0.1,0.1l-0.2,0.1
		c-0.1,0-0.1,0.1-0.2,0.1l-0.1,0.1c-0.4,0.1-0.8,0.2-1.2,0.3c0,0-0.1,0-0.1,0h-0.1c-0.2,0-0.2,0,0,0h-0.1l-0.6,0c-0.4,0-0.8,0-1.1,0
		h-0.6l-0.4-0.1l-0.2,0h-0.1l-0.1,0L20.5,86l-0.3-0.2L20,85.7l-0.2-0.2c-0.2-0.2-0.4-0.4-0.5-0.6l-0.1-0.1h0l-0.2-0.3
		c-0.1-0.2-0.3-0.4-0.4-0.7s-0.2-0.4-0.3-0.6l-0.1-0.2L18,82.8l-0.2-0.6c0-0.1-0.1-0.3-0.1-0.4c0-0.1,0-0.1,0-0.2c0,0,0,0,0,0.1
		v-0.1c0-0.3,0-0.6,0-1c0-0.1,0-0.3,0-0.4c0,0,0-0.1,0-0.1c0,0.1,0-0.1,0-0.2c0.2-1.3,0.6-2.5,0.8-3.8c0.3-1.5,0.5-3.1,0.6-4.7
		c0.1-1.6,0.1-3.3,0-4.9c-0.2-1.6-0.5-3.2-1.5-4.5c-0.4-0.5-1.1-0.8-1.7-0.4c0,0-0.1,0.1-0.1,0.1c-0.1-2.5-0.7-5-1.2-7.5
		c-0.8-3.5-1.5-7.1-0.8-10.6c1.4-6.9,6.1-12.6,8.1-19.3c0.7-2.5,1.3-5.5,3.7-7s4.9-0.8,7.1,0.3c2.2,1.1,4.6,3,6.7,4.8
		c2.6,2.3,5.1,4.7,7.4,7.3c1.7,1.9,3.4,3.8,5,5.9c-0.8-0.8-1.7-1.6-2.7-2.4c-1.5-1.2-3.2-2.2-5-3c-0.6-0.2-1.4-0.2-1.7,0.4
		s-0.2,1.4,0.4,1.7c1.5,0.7,3,1.5,4.4,2.5l0.5,0.4c0,0,0,0,0,0h0l0.3,0.2l1,0.8c0.6,0.6,1.2,1.2,1.8,1.8c0.3,0.3,0.5,0.6,0.8,0.9
		l0.2,0.2l0,0c0.1,0.2,0.2,0.3,0.4,0.5c0.5,0.7,1,1.5,1.4,2.2c0.5,0.8,0.9,1.7,1.3,2.5c0,0.1,0.1,0.2,0.1,0.3v0.1l0.3,0.7l0.5,1.3
		c0.7,2,1.3,4,1.9,6.1c0.1,0.7,0.8,1.1,1.5,1c0.7-0.1,1.1-0.8,1-1.5c0,0,0-0.1,0-0.2c-1.1-3.7-2.2-7.5-4-11c-0.2-0.3-0.3-0.7-0.5-1
		c1.4,1.9,2.8,3.8,4.1,5.8c2,2.9,3.9,5.9,5.8,8.9c0.7,1.1,1.4,2.1,2.3,3c-0.4,0.5-0.4,1.2,0.1,1.6l0.1,0.2l0.1,0.1
		c0.1,0.1,0.2,0.3,0.3,0.5c0,0,0,0,0,0c0,0,0,0,0,0.1l0.1,0.3l0.1,0.3c0,0,0,0.1,0,0.1c0,0.2,0,0.9,0,1.1c0,0.3,0,0.1,0,0.1
		l-0.1,0.3c0,0.2-0.1,0.4-0.2,0.6c0,0.1-0.1,0.2-0.1,0.3h0v0l0,0c0,0,0,0,0,0.1c-0.2,0.4-0.4,0.7-0.6,1.1c0,0.1-0.1,0.2-0.2,0.2
		l0,0.1c-0.3,0.4-0.7,0.7-1,1l-0.5,0.4l-0.3,0.2l-0.1,0.1C63.7,68,62,69,60.4,70.3c-1.4,1.2-2.6,2.4-3.8,3.8
		c-2.4,2.8-4.4,5.9-6.6,8.8l-0.8,1.1c0,0.1-0.1,0.2-0.2,0.3L49,84.3l-0.4,0.5c-0.5,0.7-1.1,1.4-1.7,2c-0.6,0.7-1.2,1.3-1.9,1.9
		l-1,0.9l-0.5,0.4l-0.3,0.2h0l-0.1,0.1c-0.8,0.6-1.6,1.2-2.5,1.6c-0.4,0.2-0.9,0.5-1.4,0.7L38.6,93h0l-0.2,0.1L38,93.2
		c-0.9,0.3-1.9,0.6-2.9,0.9l-1.5,0.3l-0.4,0H33l-0.7,0.1c-0.5,0-1,0.1-1.5,0.1c-0.7,0-1.2,0.6-1.2,1.2c0,0.7,0.5,1.3,1.2,1.2
		c4.4-0.1,8.6-1.4,12.3-3.8c3.3-2.1,5.9-5,8.2-8.1c1.1-1.5,2.2-3,3.3-4.5l1.6-2.3l0.4-0.5l0.2-0.2l0.1-0.1l0.9-1.1
		c1.2-1.4,2.4-2.8,3.8-4c0.3-0.3,0.7-0.6,1-0.8c-0.3,0.2,0.1,0,0.1-0.1l0.3-0.2l0.6-0.4l2.5-1.7c1.6-1.2,3.3-2.6,4.1-4.5
		c0.7-1.6,1-3.4,0.4-5.1c0.3,0.1,0.7,0.2,1,0.2c1.8,0.2,3.6,0,5.3-0.2c1.8-0.2,3.7-0.2,5.5,0c3.6,0.5,7.1,1.6,10.7,1.9
		c1.7,0.1,3.5,0,5.2-0.4c1.6-0.4,3.1-1.2,4.6-1.9c3.5-1.6,6.8-0.6,10.2,0.6s6.8,1.9,10.3,1.5c3.1-0.4,6.2-1.3,9-2.7
		c0.8-0.4,1.6-0.9,2.4-1.4c0.4,3,2.2,5.7,4.4,7.8c1.4,1.3,3,2.4,4.5,3.5l2.3,1.6l0.6,0.4l0.1,0.1l0.3,0.2l1.1,0.9
		c0.7,0.6,1.3,1.3,1.9,2l0.4,0.5l0.1,0.1c0.1,0.1,0.1,0.2,0.2,0.3c0.3,0.4,0.5,0.8,0.8,1.1c1,1.5,1.8,3.1,2.7,4.8
		c1.6,3.2,3.3,6.5,6.1,8.9c2.7,2.5,6.2,4.1,9.8,3.5c0.4-0.1,0.8-0.2,1.2-0.3c0.4-0.1,0.7-0.4,0.8-0.7c0.1,0,0.2,0,0.3,0
		c0.9-0.1,1.5-0.9,1.4-1.7c-0.1-0.6-0.6-1-1.2-1c-0.1-0.4-0.2-0.7-0.3-1.1c-0.4-1-1-1.8-1.8-2.5c-1.1-0.9-2.4-1.2-3.7-1
		c-0.2-0.9-0.7-1.8-1.4-2.5c-0.6-0.5-1.3-0.8-2-0.8l0.1-1.2c0-0.5,0.1-1,0.2-1.5c0-0.2,0.1-0.5,0.1-0.7l0.1-0.4c0,0,0,0,0-0.1l0-0.1
		c0.2-0.9,0.6-1.8,1-2.7l0.6-1.3l0.4-0.6l0.1-0.1c0.1-0.1,0.1-0.2,0.2-0.3c0.4-0.5,0.3-1.3-0.2-1.7c-0.1-0.1-0.2-0.1-0.2-0.1
		c-0.9-0.4-1.8-0.6-2.8-0.6l0.2-0.4c0.2-0.4,0.4-0.8,0.6-1.2c0.1-0.1,0.1-0.3,0.3-0.5l0.1-0.2c0-0.1,0.1-0.2,0.1-0.3
		c0.5-0.8,1-1.5,1.5-2.2l0.9-1l0.5-0.5l0.1-0.2c0,0,0.2-0.1,0.2-0.2c0.4-0.3,0.6-0.9,0.4-1.5c-0.2-0.5-0.8-0.8-1.3-0.7l-1.8,0.2
		l0-0.1l1-1.1l0.4-0.5l0.3-0.3l0,0l0.1,0c1.4-1.3,2.8-2.6,4.4-3.6c0.4-0.3,0.6-0.9,0.4-1.5c-0.2-0.3-0.3-0.6-0.5-0.9
		c-0.2-0.5-0.8-0.8-1.3-0.7c-2.2,0-4.3,0.4-6.4,1.2c-0.6,0.3-0.9,1-0.7,1.6c0.3,0.6,1,0.9,1.6,0.7l0.8-0.3l0.3-0.1l0.2,0l1.4-0.3
		l0.5-0.1c-2.4,2-4.5,4.2-6.2,6.7c-0.4,0.6-0.2,1.4,0.3,1.7c0.2,0.2,0.5,0.2,0.8,0.2l1.5-0.1c-1.7,2.2-3,4.6-3.9,7.3
		c-0.2,0.4-0.1,1,0.3,1.3c0.4,0.3,0.9,0.4,1.4,0.3l0.5-0.2l1.1-0.1l0.4,0c-1.8,3.4-2.7,7.1-2.7,10.9c0,0.9,1.3,1.4,2,0.8l0.1-0.1
		l0.1,0l0.3,0l0.1,0l0.1,0h0l0.1,0.1c0,0,0,0.1,0.1,0.1l0,0c0,0,0,0,0,0c0,0,0,0,0,0l0.1,0.2c0,0,0.1,0.1,0.1,0.1
		c0.1,0.2,0.2,0.4,0.2,0.6c0,0.1,0,0.1,0,0.2c0,0.1,0,0.3,0.1,0.4l0.1,0.8c0.1,0.9,1.3,1.5,2,0.8l0.2-0.2l0.1,0l0.2-0.1l0.1,0
		c0.1,0,0.2,0,0.3,0c0.2,0,0.3,0,0.5,0c0,0,0,0,0.1,0l0.1,0l0.3,0.1h0l0.3,0.2c0.1,0,0.1,0.1,0.2,0.2l0.1,0.1
		c0.1,0.2,0.3,0.4,0.4,0.6c0,0,0,0.1,0.1,0.1c0,0,0.1,0.2,0.2,0.3c0.1,0.2,0.1,0.4,0.2,0.6c0,0,0.2,0.5,0,0.1c0,0.1,0,0.2,0.1,0.3
		c0,0.1,0,0.3,0.1,0.4c-0.3,0.1-0.6,0.2-0.9,0.2h-0.1h0h0c0,0,0,0,0,0h-1.7c-0.2,0-0.4-0.1-0.5-0.1l-0.6-0.1l-0.6-0.2l-0.2-0.1
		l-0.1,0h-0.1l-0.2-0.1l-0.2-0.1l-0.6-0.3c-0.4-0.2-0.7-0.4-1-0.7l-0.5-0.3l-0.2-0.1l-0.2-0.1c-0.6-0.5-1.3-1.1-1.8-1.7
		c-0.3-0.3-0.6-0.6-0.8-1l0,0c-0.1-0.1-0.1-0.2-0.2-0.3c-0.1-0.1-0.2-0.3-0.3-0.5c-1-1.5-1.9-3-2.7-4.6c-1.6-3.2-3.3-6.5-5.8-9.1
		c-1.3-1.4-2.9-2.5-4.4-3.6l-2.2-1.6c-0.4-0.2-0.7-0.5-1.1-0.8l-0.2-0.2h0l-0.1-0.1l-0.5-0.4c-0.7-0.5-1.3-1.1-1.9-1.7
		c-0.3-0.3-0.6-0.6-0.8-1c-0.1-0.2-0.2-0.2-0.2-0.2c0,0,0,0-0.1-0.1c-0.1-0.2-0.3-0.4-0.4-0.6c-0.2-0.3-0.4-0.7-0.6-1.1
		c-0.1-0.2-0.2-0.3-0.2-0.5l0-0.1c0-0.1-0.1-0.2-0.1-0.3c-0.1-0.4-0.3-0.8-0.4-1.2c0-0.2-0.1-0.4-0.1-0.5v-0.1c0-0.1,0-0.2,0-0.3
		c0-0.3,0-0.6,0-0.9c5.5-4.1,9.6-9.8,13.5-15.6c-0.6,1.1-1.2,2.3-1.7,3.4c-1.5,3.5-2.6,7.2-3.6,10.9c-0.1,0.6,0.2,1.3,0.9,1.5
		c0.7,0.2,1.3-0.2,1.5-0.8c0.9-3.2,1.7-6.4,3-9.5l0.2-0.5c0,0,0-0.1,0-0.1l0.1-0.1l0.5-1.1c0.3-0.7,0.6-1.3,1-1.9
		c0.7-1.3,1.4-2.5,2.2-3.7c0.4-0.6,0.9-1.2,1.3-1.8l0-0.1l0.1-0.1l0.3-0.4l0.7-0.8c0.9-1.1,1.9-2.1,3-3l0.8-0.7l0.4-0.4l0.2-0.1
		l0.1-0.1c0.6-0.4,1.2-0.9,1.8-1.3c1.2-0.8,2.5-1.5,3.8-2.1l0.3-0.1L168,27l0.5-0.2c0.4-0.2,0.8-0.3,1.2-0.4
		c0.8-0.2,1.5-0.5,2.4-0.7c0.8-0.2,1.6-0.3,2.4-0.4h0l0.4,0l0.6,0c0.4,0,0.8-0.1,1.2-0.1c0.7,0,1.2-0.6,1.2-1.2
		c0-0.7-0.5-1.3-1.2-1.2c-6.2,0.2-12.2,2.7-17,6.6c-1.7,1.4-3.3,3-4.7,4.6c1.1-1.6,2.2-3.1,3.3-4.7c2-2.7,4.3-5.1,6.7-7.4
		c2.3-2,4.9-3.9,7.8-4.9c3-0.9,5.9-0.7,8.2,1.2c1,0.8,1.8,2,2.1,3.3c0.3,1.5-0.2,3-0.3,4.4c-0.4,3.4,1.2,6.9,2.1,10.2
		c0.9,3.2,2,6.9,2.7,10.4s1.2,7,1,10.6c-0.1,3.5-0.9,7-1.6,10.4s-1.4,6.9-1.5,10.5s-0.1,7-0.4,10.5c-0.3,3.5-0.9,6.8-2.4,9.9
		c-1.5,3.1-3.2,5.7-3.1,9c0.1,3.3,1.7,5.8,3,8.5c0.6,1.5,2.8,0.2,2.1-1.2c-1.3-2.8-3.2-5.7-2.5-8.9c0.7-3.2,2.7-5.8,3.7-8.7
		c2.4-6.9,1.6-14.2,2.3-21.3C188.9,68.4,191.5,61.6,191.2,54.4z M34,83C33.9,83,33.9,83,34,83L34,83z M25.3,85.9
		C25.1,86,25.2,85.9,25.3,85.9L25.3,85.9z"/>
</g>
</svg>
