<?xml version="1.0" encoding="utf-8"?>
<!-- Generator: Adobe Illustrator 27.9.0, SVG Export Plug-In . SVG Version: 6.00 Build 0)  -->
<svg version="1.1" id="Layer_1" xmlns="http://www.w3.org/2000/svg" xmlns:xlink="http://www.w3.org/1999/xlink" x="0px" y="0px"
	 viewBox="0 0 210.9 174.7" style="enable-background:new 0 0 210.9 174.7;" xml:space="preserve">
<g>
	<path style="stroke:#000000;stroke-width:3;stroke-linecap:round;stroke-linejoin:round;stroke-miterlimit:10;" d="M198.3,100.5
		c-0.1-3.1,0-6.3-0.2-9.4c-0.4-5.1-2.1-10-4.5-14.5c-5.2-9.9-13.1-18.1-20.2-26.8c-1.7-2.2-3.4-4.3-5.1-6.6s-3-4.7-4.8-6.9
		c-1.8-2.2-4.3-3.6-7.3-4.2c-1.5-0.3-3.1-0.5-4.5-1.2c-1.4-0.7-2.5-1.8-3.7-2.9c-2.6-2.2-5.3-4.2-8.1-6c-2.9-1.9-5.8-3.8-9-5.3
		c-6.3-3-13-4.6-19.9-5.5c-1.7-0.2-3.5-0.4-5.2-0.5c-1.8-0.1-3.5,0.1-5.2,0.2c-3.5,0.3-7,0.8-10.4,1.6c-6.6,1.5-13,4.2-18.7,7.8
		c-2.9,1.8-5.6,3.7-8.3,5.8s-4.6,4.5-7.8,5.3c-1.5,0.4-3,0.5-4.4,1c-1.4,0.4-2.7,1.1-3.8,2.1c-2.2,1.9-3.7,4.5-5.2,6.9
		c-6.5,10.1-14.4,19.3-20.9,29.4c-2.3,3.5-4.3,7.2-6.1,11c-0.1,0.1-0.1,0.2-0.1,0.3c-0.7,1.4-1.3,2.9-1.8,4.4
		C11,92.5,9.8,98.7,9.7,105c-0.2,12.7,3.9,25.3,11.2,35.7c3.5,4.9,7.6,9.3,12.2,13.1c4.3,3.5,10.1,8.4,16.1,6.4
		c2.9-1,4.5-3.4,5.4-6.3c1-3.3,1.7-6.7,2.5-10c0.8-3.3,1.6-6.8,2.5-10.2c0.9-3.3,2.1-6.4,3.3-9.6c1.2-3.2,2.5-6.4,3.1-9.7
		c0.6-3.3,0.8-6.7,0.4-10.1c-0.6-6.9-2.8-13.5-5.1-20c-0.4-1-0.7-1.9-1.1-2.9c-1.3-7.1-2.9-14.4-2.2-21.7c0.6-6.2,2.9-12,7.3-16.4
		c2.2-2.2,4.8-4.5,5.4-7.8c0.1-0.6-0.2-1.3-0.8-1.4c-6-1.2-11.5,2.3-14.4,7.3c-3.2,5.5-4,12.2-3.4,18.5c0.7,7.6,3.2,14.7,5.8,21.9
		c0,0,0,0.1,0,0.1c0,0.2,0.1,0.3,0.2,0.4c2,5.5,3.9,10.9,5.1,16.7c0.7,3.3,1,6.7,0.9,10c-0.1,3.4-0.8,6.7-1.9,9.9
		c-1.1,3.2-2.4,6.2-3.6,9.4c-1.1,3.2-2,6.5-2.8,9.9s-1.5,6.7-2.3,10c-0.4,1.6-0.8,3.2-1.2,4.7c-0.5,1.6-0.9,2.9-2,3.9
		c-2.2,2.1-5.6,1.7-8,0.5c-2.5-1.1-5.2-3.2-7.6-5.1c-9.3-7.6-16.6-17.6-20.3-29c-3.5-10.9-3.6-22.6-0.2-33.5c0,1.9,0.1,3.8,0.3,5.7
		c0.5,4.4,1.4,8.8,2.8,13.1c1.3,4.1,3,8.2,4.9,12.1c1.8,3.8,3.9,7.5,6.1,11.1s4.5,6.7,7.5,9.5l1.1,1c0.4,0.4,1.2,0.5,1.6,0
		c0.4-0.5,0.5-1.2,0-1.6c-1.5-1.3-2.9-2.7-4.2-4.2l-0.9-1.1l-0.1-0.2l-0.2-0.3l-0.5-0.7c-0.6-0.8-1.1-1.6-1.7-2.4
		c-2.2-3.5-4.2-7.1-6.1-10.8c-0.9-1.9-1.8-3.8-2.7-5.7c-0.1-0.1-0.1-0.2-0.2-0.3c0-0.1-0.1-0.2-0.1-0.2c-0.1-0.2-0.2-0.5-0.3-0.7
		s-0.4-1-0.6-1.5c-0.4-1-0.7-2-1.1-3c-1.4-4.1-2.4-8.3-3-12.5c0,0,0-0.1,0-0.2c0-0.1,0-0.2,0-0.4c0-0.3-0.1-0.6-0.1-0.8
		c0-0.3-0.1-1.1-0.2-1.7c-0.1-1.1-0.1-2.1-0.1-3.2c0-2.2,0-4.4,0.3-6.5c0-0.1,0-0.2,0-0.4c0-0.1,0-0.2,0-0.2v-0.1c0-0.1,0-0.2,0-0.2
		l0.1-0.4c4.4-9.5,10.9-18,17.1-26.4c3.6-4.7,7.1-9.5,10.3-14.5c1.5-2.3,3-4.9,5.4-6.4c2.4-1.5,5.8-1.3,8.6-2.7
		c1.4-0.7,2.5-1.7,3.6-2.7s2.5-2.1,3.8-3.1c2.7-2,5.5-3.8,8.3-5.6C80,18,86.4,15.7,93,14.4c3.4-0.6,6.9-1.1,10.4-1.3
		c3.4-0.2,7,0.3,10.4,0.9c6.8,1.1,13.4,3.1,19.4,6.5c2.9,1.7,5.8,3.5,8.5,5.5c1.4,1,2.7,2,4.1,3.1c1.3,1.1,2.2,2,3.5,2.9
		c2.6,1.9,5.6,1.9,8.5,2.9c2.9,1,4.4,3.3,5.9,5.6c6.2,9.3,13.9,17.4,20.7,26.2c3.2,4.2,6.2,8.6,8.4,13.5c0.6,1.2,1.1,2.4,1.5,3.7
		c-0.7,3.8-1.5,7.7-2.4,11.5c-0.9,3.8-2.1,7.6-3.5,11.3c-0.3,0.9-0.7,1.8-1.1,2.7l-0.2,0.3c0,0,0,0.1,0,0.1v0
		c-0.1,0.2-0.2,0.5-0.3,0.7l-0.6,1.3c-0.8,1.8-1.7,3.6-2.7,5.4s-1.9,3.6-2.8,5.4c-0.5,1-0.9,2-1.3,2.9c-0.2,0.4-0.3,0.9-0.5,1.3
		c-0.2,0.4-0.2,0.4-0.2,0.6l-0.1,0.3l-0.1,0.1c0,0,0,0.1,0,0.2l0,0.1c0,0,0,0.1,0,0.1l-0.1,0.3c-0.1,0.2-0.2,0.4-0.3,0.7
		s-0.4,0.8-0.7,1.2l-0.3,0.5l-0.2,0.3l0,0l-0.1,0.1c-0.2,0.3-0.5,0.6-0.8,0.9l-0.2,0.2c-0.1,0.1-0.2,0.2-0.1,0.1
		c-0.2,0.1-0.3,0.3-0.5,0.4l-0.5,0.3l-0.3,0.1l-0.1,0h0c-0.4,0.1-0.7,0.2-1.1,0.2h-1c0,0,0,0,0,0l-0.3,0c-0.2,0-0.4-0.1-0.6-0.2
		c-0.5-0.2-1.3,0.2-1.4,0.8c-0.1,0.5,0.2,1.1,0.8,1.4c1.8,0.7,3.7,0.3,5.3-0.6c1.6-0.9,2.9-2.4,3.8-4c0.5-0.9,0.9-1.8,1.3-2.7
		c0.2-0.4,0.3-0.9,0.5-1.3s0.2-0.4,0.2-0.6l0.1-0.3l0.1-0.2v0c0.8-1.9,1.8-3.8,2.8-5.6c1-1.8,2-3.7,2.9-5.5c0.9-1.9,1.7-3.7,2.5-5.7
		c1.5-3.7,2.7-7.5,3.8-11.4c0.7-2.8,1.4-5.6,1.9-8.4c0.3,1.9,0.4,3.9,0.4,5.8c0.1,6.5,0.5,13.1,0,19.6c-0.2,3.3-0.8,6.6-1.7,9.8
		c-0.9,2.9-2.1,5.7-3.5,8.4c-2.8,5.2-6.3,10-10.4,14.3c-2.1,2.1-4.2,4.1-6.6,6c-2.3,1.9-4.9,3.9-7.7,4.9s-5.9,1-7.8-1.4
		c-0.9-1.2-1.3-2.7-1.7-4c-0.4-1.6-0.7-3.3-0.9-5c-0.6-6.4,0.4-13.3-2.2-19.3c-1-2.3-2.7-4.2-4.2-6.2s-3.2-3.9-3.6-6.3
		c-0.3-1.5-0.2-3.2-0.1-4.7c0-1.5,0.1-3.2,0.2-4.8c0.2-3.1,0.7-6.1,1.3-9.2c1-4.9,2.4-9.8,4-14.5l0.1-0.2c0.2-0.8,0.5-1.5,0.8-2.3
		c2-5.8,4.5-11.5,5.6-17.5c0.6-2.8,0.8-5.7,0.5-8.6c-0.1-1.4-0.4-2.7-0.9-4c-0.5-1.4-1.2-2.7-1.9-4.1c-1.2-2.4-2.1-4.9-3.8-7
		c-0.9-1.1-1.9-2-3.1-2.7c-1.2-0.7-2.6-1.5-4-1.6c-2.2-0.2-4.2,1.7-4.1,4c0,1.3,0.8,2.2,1.7,3.2c0.9,0.9,2.4,2.3,3.4,3.5
		c3.8,4.5,5.6,10.5,5.9,16.2c0.4,6.8-1,13.5-2.3,20.2c0,0.1,0,0.2,0,0.2c-0.7,2.1-1.4,4.2-2,6.4c-1.7,5.9-2.9,12-3.4,18.1
		c-0.1,1.7-0.2,3.3-0.2,5s-0.1,3.2,0.2,4.8c0.4,2.4,2,4.6,3.5,6.5c1.5,1.9,3.3,4,4.4,6.3c1.4,2.9,1.6,6.4,1.7,9.6
		c0.1,3.2,0,6.6,0.4,9.8c0.4,3.3,0.9,6.5,2.7,9.1c1.7,2.6,4.5,3.6,7.4,3.3c2.9-0.2,5.9-1.9,8.5-3.7c4.9-3.4,9.3-7.5,13.1-12
		c3.9-4.6,7.1-9.7,9.5-15.2c2.7-6.1,3.6-12.6,3.8-19.2C198.5,107.2,198.4,103.8,198.3,100.5z M56.4,45.2c2-4.8,6.5-9.3,12-8.9
		c-0.9,2.3-2.9,4-4.7,5.7c-2.2,2.2-4,4.8-5.2,7.6c-2.5,5.7-3.1,12-2.7,18.2C54,60.2,53.4,52.5,56.4,45.2z M147.7,44.4
		c-1-1.2-2.1-2.4-3.2-3.5c-0.8-0.7-2.2-1.7-2-2.9c0.4-2.9,4.5-0.2,5.6,0.6c2.2,1.7,3.2,4.1,4.4,6.5c0.6,1.4,1.4,2.7,2.1,4.1
		c0.6,1.3,1,2.7,1.2,4.1c0.9,5.5-0.7,11.1-2.4,16.3c0.3-2.8,0.4-5.7,0.2-8.6C153.1,55.1,151.4,49.1,147.7,44.4z"/>
</g>
</svg>
