<?xml version="1.0" encoding="utf-8"?>
<!-- Generator: Adobe Illustrator 27.9.0, SVG Export Plug-In . SVG Version: 6.00 Build 0)  -->
<svg version="1.1" id="Layer_1" xmlns="http://www.w3.org/2000/svg" xmlns:xlink="http://www.w3.org/1999/xlink" x="0px" y="0px"
	 viewBox="0 0 274.3 226.1" style="enable-background:new 0 0 274.3 226.1;" xml:space="preserve">
<g>
	<path style="stroke:#000000;stroke-width:3;stroke-linecap:round;stroke-linejoin:round;stroke-miterlimit:10;" d="M106.8,82.7
		c-0.5-0.6-1.6-0.5-2,0c-0.5,0.5-0.5,1.4,0,2l0.1,0.2c0.1,0.1,0.2,0.3,0.3,0.4l0.5,0.7l1,1.5c0.6,1,1.2,2.1,1.8,3.2
		c0.3,0.5,0.5,1.1,0.7,1.6l0.1,0.2l0.2,0.4l0.3,0.9c0.1,0.2,0.1,0.4,0.2,0.6c-0.7-0.3-1.5-0.5-2.2-0.7c-2.2-0.6-4.3-1-6.5-1.2
		c-2-0.3-4.1-0.3-6.1-0.1c-0.9,0.1-1.9,0.2-2.8,0.5c-0.5,0.1-0.9,0.3-1.3,0.5c-0.9,0.5-0.9,1.7-0.5,2.5c0.3,0.5,0.7,0.8,1.2,1
		c0.2,0.1,0.5,0.3,0.7,0.3h0l0.2,0.1c0,0,0,0,0,0h0v0h-0.1l-0.4,0.1c-0.7,0.2-1.4,0.5-2.1,0.7c-1.2,0.5-2.3,1.2-3.3,1.9
		c-1.2,0.9-2.9,2-2.8,3.7c0,0.8,0.4,1.4,0.8,2c0.1,0.3,0.3,0.6,0.5,0.8c0.3,0.4,0.6,0.8,1,1.2l0.4,0.5l0.2,0.2l0.1,0.1
		c0.3,0.3,0.5,0.7,0.7,1l0.1,0.1c-0.4,0.3-0.9,0.6-1.3,1c-0.9,0.8-1.8,1.6-2.6,2.5c-1.7,2-3,4.2-3.9,6.6c-0.2,0.6-0.4,1.1-0.5,1.7
		c-0.3,0.7,0.1,1.6,0.9,1.8c0.7,0.3,1.6-0.1,1.8-0.9c0-0.1,0.1-0.1,0.1-0.2c0.2-0.7,0.4-1.5,0.7-2.2L83,120c0.1-0.2,0.1-0.3,0.2-0.5
		c0.1-0.1,0.3-0.7,0.5-1.1c0.3-0.7,0.7-1.4,1.2-2c0.1-0.1,0.2-0.3,0.3-0.4l0.2-0.3l0.7-0.9c0.5-0.6,1-1.1,1.6-1.6l0.8-0.7h0.1
		l0.1-0.1l0.5-0.3c0.4-0.2,0.7-0.5,0.9-0.9c0.2-0.3,0.3-0.7,0.3-1c0-0.6-0.1-1.2-0.4-1.6c-0.5-1-1.3-1.9-2-2.8
		c-0.2-0.2-0.3-0.4-0.5-0.6s0,0,0-0.1l-0.3-0.3l-0.3-0.4l-0.3-0.4c0,0,0,0,0,0h0c0.1-0.1,0.1-0.1,0.2-0.2c0.3-0.3,0.6-0.6,0.9-0.8
		l0.1-0.1l0.2-0.1l0.5-0.3c0.3-0.2,0.7-0.4,1-0.6l1.1-0.5l0.5-0.2h0.1l0.3-0.1c0.8-0.3,1.6-0.5,2.3-0.8c0.7-0.3,1.6-1.1,1.8-2
		s-0.2-2-1-2.5h0.4c1.4-0.1,2.8-0.1,4.3,0c0.7,0,1.5,0.1,2.2,0.2h0l0.3,0.1l0.5,0.1l1.2,0.2c1.4,0.3,2.8,0.6,4.2,1l2,0.7l0.5,0.2
		l0.2,0.1h0l0.8,0.4c0.5,0.3,1.2,0.2,1.6-0.1c0.5-0.4,0.6-1,0.5-1.5C112.3,91.6,110,86.8,106.8,82.7z"/>
	<path style="stroke:#000000;stroke-width:3;stroke-linecap:round;stroke-linejoin:round;stroke-miterlimit:10;" d="M250,152.3
		l2.8,1.1c0.5,0.1,1,0,1.4-0.4c0.4-0.4,0.4-0.9,0.4-1.4c-1.2-8.7-6.4-16-10.2-23.6c-0.7-1.4-1.4-2.8-1.9-4.3l4,0.8
		c0.8,0.2,1.6-0.3,1.8-1.1c0.1-0.2,0.1-0.5,0-0.7c-0.9-4.6-2.9-8.9-5.8-12.5c-2-2.5-5-5.1-6-8.3c1.8-0.1,3.6-0.6,5.2-1.4
		c0.7-0.3,0.9-1.3,0.5-2c-3.9-6.6-8.5-12.7-13.8-18.3c-1.5-1.6-3-3.1-4.6-4.6c0,0-0.1,0-0.1-0.1c-0.4-1-0.9-2-1.4-3
		c-1.1-2.3-2.4-4.5-3.8-6.6l3.4-1c0.8-0.2,1.2-1,1-1.8c0-0.1-0.1-0.2-0.1-0.3c-3.6-6.3-9-11.3-15.6-14.4l1.7-1
		c0.7-0.4,0.9-1.3,0.5-2c-0.1-0.1-0.1-0.2-0.2-0.3c-4.7-4.5-10.8-7.2-17.3-7.7l3.3-3.1c0.8-0.7,0.4-2.1-0.6-2.4
		c-5.5-1.4-11.2-1.8-16.8-0.9c1.4-1.3,3-2.4,4.7-3.3c1.2-0.7,0.7-2.2-0.3-2.6c-3.3-1.4-6.8-1.2-10.1-0.2c-1.2,0.4-2.4,1-3.7,1
		c-0.3,0-0.6-0.1-0.9-0.2c-0.1-0.1-0.2-0.1-0.1-0.1l-0.1-0.1c-0.1-1,1-2.1,1.2-3.1c0.4-1.6-0.7-3-2.2-3.3c-2.7-0.6-5.6,1.4-7.7,3
		c-2,1.6-3.8,3.6-6,4.9c-0.4-0.8-0.9-1.6-1.4-2.4c-0.8-1.1-1.7-2-2.7-2.9c-1.9-1.6-4.2-3.7-6.8-3.6c-2.6,0-4.3,2-5.6,4
		c-0.7,1.1-1.4,2.3-2.1,3.5c-0.3,0.6-0.6,1.1-1,1.6l-0.3,0.4c0,0.1-0.1,0.1-0.1,0.1c-0.5-0.2-1-0.7-1.5-1c-0.5-0.3-1.1-0.8-1.7-1.2
		c-1.2-0.7-2.5-1.4-3.7-2c-2.6-1.4-5.2-2.6-7.9-3.7c-1.7-0.7-4.1-1.4-5.8-0.5c-0.9,0.6-1.5,1.6-1.6,2.6c-0.1,1.2,0.5,2.3,0.9,3.4
		c0.1,0.3,0.1,0.1,0,0.2l-0.3,0.3c-0.3,0.2-0.7,0.3-1,0.3c-0.5,0-0.9-0.2-1.4-0.4c-0.7-0.3-1.5-0.5-2.2-0.7
		c-3.1-0.8-6.5-0.8-9.6,0.2c-1.1,0.4-1.5,2-0.3,2.6c1.7,0.9,3.3,2,4.7,3.3c-5.6-0.8-11.3-0.5-16.8,0.9c-1,0.3-1.4,1.7-0.6,2.4
		l3.3,3.1c-6.5,0.5-12.6,3.3-17.3,7.7c-0.5,0.6-0.5,1.5,0.1,2.1c0.1,0.1,0.2,0.1,0.3,0.2l1.7,1c-6.5,3.1-12,8.1-15.6,14.4
		c-0.4,0.7-0.1,1.6,0.5,2c0.1,0.1,0.2,0.1,0.3,0.1l3.5,1c-1.2,1.7-2.3,3.5-3.2,5.4c-0.7,1.3-1.5,2.7-2,4.1l-0.1,0.1
		c-5.6,5.2-10.6,11-14.9,17.3c-1.2,1.8-2.4,3.7-3.5,5.5c-0.4,0.6-0.2,1.6,0.5,2c1.6,0.8,3.4,1.3,5.2,1.4c-1,3.2-4,5.8-6,8.3
		c-2.9,3.7-4.9,7.9-5.8,12.5c-0.2,0.8,0.3,1.6,1.1,1.8c0.2,0.1,0.5,0.1,0.7,0l4-0.8c-2.9,7.2-7.6,13.7-10.3,21
		c-0.8,2.2-1.5,4.6-1.8,6.9c-0.1,0.5,0,1,0.4,1.4c0.4,0.4,0.9,0.5,1.4,0.4l2.8-1.1c-3.2,8.6-4.8,17.7-5,27c0,1,0.9,1.5,1.8,1.4
		l2.2-0.4c0.2,4.7,0.6,9.4,1.2,14.1c0.3,2.7,0.7,5.3,1.2,8c0.2,1.2,0.4,2.4,1.2,3.3c0.7,0.8,1.7,1.3,2.8,1.3
		c1.8-0.1,3.4-1.4,4.5-2.8c1.3,1,2.6,1.9,4.2,2.3c1.6,0.4,4,0.3,5.6-1c1.6-1.3,1.9-2.8,2.1-4.5c0.1-0.9,0.2-1.5,0.3-2.4
		c0.1-0.1,0.1-0.3,0.1-0.4c0.9,0.8,1.9,1.6,3.1,1.9c1.7,0.5,3.8,0.1,4.9-1.4c0.6-0.8,0.9-1.8,1.1-2.8c0.3-1,0.5-2,0.7-3
		c0.3-1.6,0.5-3.1,0.7-4.6c1.3,0.3,2.6,0.4,3.9,0.3c1.5-0.2,2.9-0.8,4.1-1.6c1.6-1.1,2.9-2.7,3.7-4.5c0.4,0.6,0.9,1.1,1.4,1.5
		c0.8,0.5,1.7,0.9,2.6,0.9c1.4,0.1,2.6-0.5,3.5-1.6c1.4,1,2.3,2.7,3.3,4s1.6,2,2.7,2.6c1.1,0.6,2.6,1.4,4.1,1.3
		c1.5-0.1,2.7-0.9,3.1-2.2c0.2-0.8-0.1-1.4-0.4-2c-0.3-0.7-0.5-1.5-0.7-2.2c-0.7-2.8-1.1-5.7-1-8.6c0.1-3.2,0.5-6.4,1.3-9.6
		c0.4-1.8-2.4-2.6-2.8-0.7c-1.8,7.4-2.1,15.3,0.7,22.5c-0.2,0.1-0.4,0.1-0.7,0.1c-0.7-0.1-1.3-0.5-1.9-0.8c-1.1-0.6-1.8-1.5-2.6-2.5
		c-1.5-2-2.9-4.2-5.5-4.9c-0.7-0.2-1.6,0.3-1.8,1c-0.2,1.1-0.9,1.3-2,0.8s-1.1-0.9-1.5-1.6c-0.5-0.9-1-1.9-1.5-2.8
		c-1.5-3.3-2.3-6.8-3-10.3c-0.1-0.5-0.2-1.1-0.3-1.5c0-0.1-0.1-0.1-0.1-0.2h0c0-0.1,0-0.1-0.1-0.2c0,0,0,0,0,0l-0.1-0.1l-0.1-0.1h0
		l-0.1-0.1h0c-0.2-0.1-0.5-0.2-0.7-0.2c-0.4,0-0.9,0.1-1.2,0.4c-0.4,0.3-0.7,0.7-1,1.1l-0.1,0.2c-0.1-0.5-0.3-1-0.4-1.5
		c-0.1-0.5-0.2-1.5-0.3-2.2c-0.6-3-0.1-6.2,1.1-9c0.6-1.3-0.6-2.6-2-2c-1.4,0.6-2.8,1.6-4.3,2l-0.4,0.1h-0.1c0-0.1,0-0.1,0-0.2
		c-0.3-1.2-0.1-2.5,0.1-3.7c0.8-5.8,2.6-11.2,6-16.1c0.3-0.4,0.3-0.9,0-1.4c-0.2-0.5-0.7-0.8-1.3-0.8c-0.5,0-1.1,0-1.6,0.1
		c-0.2,0-0.6,0.1-0.8-0.1c-0.2-0.1-0.6-1.6-0.6-2.2c0-1.7,0.9-3.3,1.8-4.8c0.9-1.4,2.1-3.1,2.9-4.8c0.4-0.8,0.7-1.8,1.1-2.6
		c0.4-0.9,0.6-1.8,0.5-2.8c0-0.2,0-0.4-0.1-0.6c-0.1-0.2-0.2-0.3-0.4-0.5l-0.1-0.1c-0.3-0.2-0.6-0.3-0.9-0.3c-1.7,0.2-4,0.1-5.3-1.2
		c-0.7-0.7-0.8-1.6-0.5-2.6c0.3-1,1.4-2.2,1.9-3.4c0.2-0.5,0.5-0.9,0.8-1.3c0.5-0.5,1.1-1.1,1.3-1.8c0.2-0.7,0.2-2.2-0.4-3
		c-1-1.4-2.8-1.3-4.2-1.9l-0.3-0.1c0,0,0,0,0,0c-0.1,0-0.1-0.1-0.1-0.1c-0.3-0.3-0.5-0.7-0.6-1.2c-0.3-0.9-0.1-1.7,0.2-2.6
		c0.7-2.1,2.2-3.9,3.5-5.7c0.5-0.8,1.6-2,1.6-3.1c0-1.2-0.4-2.3-1.2-3.1c-0.6-0.6-1.4-1-2.3-1.2c-0.8-0.2-1.8-0.2-2.4-0.3
		c-0.7-0.1-1.4-0.5-1.6-1.6c-0.2-1.1,0.6-2.6,1.2-3.8c1.4-2.9,2.8-5.9,5-8.3c0.5-0.6,0.5-1.5-0.1-2.1c-0.2-0.1-0.4-0.3-0.6-0.3
		l-3.7-1.1c3.7-5.8,9.2-10.2,15.6-12.7c1.1-0.4,1.5-2,0.3-2.6L73.2,46c4.9-4,11.1-6,17.4-5.7c1.2,0.1,1.9-1.6,1-2.4l-3.9-3.7
		c5.6-1.1,11.4-0.9,17,0.5c1.1,0.3,2.4-1.1,1.6-2.1c-1.5-2-3.3-3.8-5.4-5.3c1.4-0.1,2.9,0,4.3,0.4c1.2,0.3,2.4,0.9,3.6,1.2
		c1,0.2,2,0.1,3-0.3s1.7-1.1,2.2-2c0.5-1.2,0.1-2.2-0.4-3.3c-0.2-0.3-0.3-0.7-0.3-1.1c0-0.1,0.1-0.2,0.1-0.3h0.1
		c0.5-0.2,1.4,0.1,2,0.2c2.4,0.6,4.8,1.9,7.1,3c2.3,1.1,4.9,2.5,7.1,4.1c1.1,0.7,2,1.6,3.4,1.4c1.4-0.2,2-1.1,2.6-2
		c1.4-2,2.2-4.4,3.8-6.2c0.7-0.8,1.5-1.5,2.6-1.4c1.1,0.1,2.4,1.2,3.3,1.9c1.1,0.9,2.2,1.9,3.1,3c0.9,1.1,1.5,2.5,2.2,3.8
		c0.3,0.5,1.1,0.9,1.6,0.7c2.6-1.1,4.5-2.8,6.6-4.7c0.9-0.9,1.9-1.6,3-2.4c0.9-0.6,2.2-1.3,3.3-1.3h0.3c-0.3,0.5-0.6,1-0.8,1.6
		c-0.5,1.1-0.7,2.4-0.1,3.5c1.2,2,4,2.1,5.9,1.5c2-0.6,3.3-1.2,5.1-1.4c0.8-0.1,1.5-0.1,2.3,0c-2.1,1.5-4,3.4-5.6,5.5
		c-0.8,1.1,0.5,2.4,1.6,2.1c5.6-1.4,11.4-1.6,17-0.5l-3.9,3.7c-0.9,0.8-0.2,2.5,1,2.4c6.3-0.3,12.5,1.7,17.4,5.7l-2.5,1.5
		c-1.1,0.7-0.8,2.2,0.3,2.6c6.4,2.5,11.9,6.9,15.6,12.7l-3.7,1.1c-0.8,0.2-1.2,1-1,1.8c0.1,0.3,0.2,0.5,0.4,0.7
		c1.8,2,3.1,4.4,4.3,6.8c0.6,1.2,1.3,2.3,1.7,3.5c0.2,0.7,0.5,1.8-0.1,2.4c-0.6,0.6-1.2,0.6-1.8,0.8s-1.6,0.5-2.4,0.8
		c-1.5,0.6-3.2,1.6-3.3,3.4c0,0.9,0.3,1.8,0.8,2.5c0.8,1.2,1.6,2.3,2.4,3.5c0.7,1.1,1.3,2.2,1.9,3.4c0.4,0.9,1.2,2,0.7,3
		c-0.5,1-2.1,0.9-3,1c-1.2,0.1-2.3,0.9-2.7,2.1c-1.1,2.4,0.6,4.5,2.1,6.4c1.4,1.8,2.9,3.7,1.5,5.4c-1.4,1.8-3.8,1.6-5.6,1.4
		c-0.1,0-0.3,0-0.4,0.1c-0.1,0-0.3,0.1-0.4,0.2c-0.4,0.3-0.6,0.7-0.6,1.2c-0.2,1.8,0.9,3.4,1.5,5.1c0.3,0.9,1.1,1.8,1.6,2.6
		c0.5,0.9,1,1.7,1.4,2.6c0.8,1.7,1.6,3.6,1.7,5.5c0.1,1.4-1.6,1.6-2.6,1.4h-0.4c-0.5,0-1,0.3-1.2,0.7c-0.3,0.4-0.3,1,0,1.4
		c3.3,6,6.8,12.9,5.8,20c-1.6-0.2-3.1-1.4-4.5-2.1c-0.7-0.4-1.6-0.1-2,0.6c-0.1,0.2-0.1,0.4-0.1,0.6c0,0.3,0.1,0.5,0.2,0.7l0.2,0.4
		c1.2,2.5,1.8,5.4,1.4,8.2c-0.2,1.4-0.6,2.6-1.4,3.8l-0.1-0.1c-0.4-0.5-1-0.9-1.6-1.2c-0.4-0.1-0.8-0.1-1.1,0.1
		c-0.2,0.1-0.4,0.3-0.5,0.5c-0.1,0.1-0.1,0.3-0.2,0.4c-0.7,3-1.2,6-2.2,8.9c-0.5,1.5-1.1,2.8-1.8,4.2c-0.7,1.2-1.5,2.6-2.6,3.4
		c-0.4,0.3-0.6,0.3-0.8,0.1c-0.3-0.3-0.6-0.8-1-1.2c-0.8-1-2-1.3-3.2-0.6c-1.2,0.7-1.7,1.8-2.4,2.7c-0.7,0.9-1.3,1.8-2,2.7
		c-0.7,0.9-1.5,1.8-2.6,2.2c-0.4,0.1-0.8,0.2-1.2,0.2c-0.2,0-0.4-0.1-0.6-0.1c2.5-7.2,2.7-15,0.6-22.3c-0.5-1.8-3.3-1-2.8,0.7
		c1.5,5.1,1.8,10.6,0.8,15.9c-0.2,1.3-0.6,2.6-1,3.9c-0.4,1.3-1,2.4-0.1,3.6c0.9,1.2,3.7,1.6,5.2,0.9c3.4-1.3,4.9-4.9,7.1-7.5
		l0.1-0.2l0.1,0.1c0.6,0.8,1.2,1.6,2.3,1.9c2.2,0.7,4-1.3,5.2-2.9c0.7,1.9,2.1,3.6,3.8,4.8c1.2,0.9,2.6,1.4,4.1,1.6
		c1.3,0.1,2.7,0.1,4-0.3c0.2,1.5,0.4,3,0.7,4.5c0.3,1.5,0.4,2.1,0.7,3.2c0.3,1.1,0.5,2,1.1,2.8c1.1,1.4,3.1,1.8,4.8,1.4
		c1.2-0.3,2.2-1.1,3.2-1.9c0,0.1,0.1,0.2,0.1,0.3c0.2,0.9,0.2,1.5,0.4,2.4c0.2,1.7,0.7,3.4,2.1,4.5s3.7,1.5,5.6,1
		c1.9-0.5,2.9-1.3,4.2-2.3c0.9,1.2,2.2,2.3,3.6,2.6c1.1,0.3,2.2,0.1,3.1-0.6c0.9-0.7,1.4-1.8,1.7-2.9c0.5-2.6,0.9-5.2,1.2-7.8
		c0.3-2.6,0.7-5.2,0.9-7.9s0.4-4.9,0.5-7.3l2.2,0.4c0.9,0.1,1.8-0.4,1.8-1.4C254.8,170.1,253.1,161,250,152.3z M67.2,166.1
		C67.2,166.2,67.2,166.2,67.2,166.1L67.2,166.1z M59.7,82.9c0.8,0.1,1.3,0,2,0.3l0.2,0.1l0.2,0.1c0.2,0.3,0.3,0.5,0.3,0.8
		c-1.3,2.6-3.3,4.7-4.5,7.3c-1.2,2.6-1.4,6.5,1.5,8.2c0.9,0.5,2,0.7,3,0.9l0.3,0.1h0.1l0.1,0.1c0,0,0,0,0,0h0c0.1-0.1,0.1-0.1,0,0
		l0.1,0.1H63c0,0.3-0.1,0.4-0.3,0.7c-0.2,0.3-1.2,1.2-1.6,2.1c-0.4,0.8-1,1.5-1.4,2.3c-0.9,1.6-1.5,3.7-0.9,5.5
		c0.9,2.6,3.5,3.8,6.2,4c0.1,0.3,0.1,0.6,0.3,0.8l0.1,0.2l-0.3,0.5c-0.4,0.9-0.8,1.9-1.3,2.7c-1.1,1.8-2.4,3.5-3.2,5.5
		c-0.8,2-1.2,4.1-0.4,6.1c0.4,1.1,1,2.1,2.2,2.6l0.4,0.1c0,0.2-0.1,0.4,0,0.6c-2.1,3.8-3.5,7.9-4.3,12.2c-0.4,2.3-0.9,4.9-0.3,7.2
		c0.6,2.3,2.4,2.5,4.2,2c0.6-0.1,1.1-0.3,1.6-0.6c-0.2,0.9-0.4,1.8-0.5,2.8c-0.1,1-0.1,2.1,0,3.1c0.1,1,0.4,1.9,0.5,2.9
		c0.2,1.7,0.5,4.1,2.5,4.7c0.7,0.2,1.4,0.1,2-0.2l0.2,0.2c0.6,3.3,1.6,6.6,2.9,9.6c-0.1,0.1-0.1,0.3-0.1,0.5
		c-0.1,2.1-1.4,4.2-3.2,5.5c-0.9,0.6-1.9,1-3,1.2c-1.4,0.2-2.9-0.2-4.3-0.6c-0.9-0.3-1.7,0.5-1.8,1.4c-0.2,1.7-0.4,3.4-0.7,5.1
		s-0.6,3.3-1.1,4.9c-0.4,1-1.2,1.2-2.2,0.9c-0.9-0.3-2.2-1.6-3.1-2.5c-0.9-0.9-1.5-0.5-2,0c-1.2,1.1-1.6,2.6-1.8,4.1
		c-0.2,1.6-0.2,2.9-0.9,3.9s-2.1,1.2-3.2,0.9c-1.7-0.4-3.1-1.6-4.4-2.8c-0.7-0.6-1.8-0.5-2.2,0.3c-0.4,0.7-0.9,1.3-1.5,1.9
		c-0.4,0.4-0.9,0.7-1.5,0.9c-0.1,0,0,0-0.2,0s-0.1,0-0.2-0.1c-0.2-0.2-0.4-0.4-0.5-0.7c-0.3-1-0.4-2.1-0.6-3.1
		c-0.7-4.5-1.3-9.1-1.6-13.6c-0.2-2.6-0.4-5.3-0.5-7.9c0-1-0.9-1.6-1.8-1.4l-2,0.3c0.4-9.4,2.4-18.7,6-27.4c0.4-1-0.8-2.2-1.8-1.8
		l-3.4,1.3c1.8-7.4,6.2-13.9,9.6-20.7c1.1-2.2,2.1-4.5,2.9-6.9c0.4-1.1-0.8-2-1.8-1.8l-4.3,0.8c1-3.6,2.8-6.9,5.1-9.8
		c2.8-3.3,6-6.4,6.5-11c0-0.8-0.6-1.4-1.4-1.4c-1.4,0.1-2.8-0.1-4.1-0.5c4.2-6.8,9.2-13.2,15-18.8c0.3,1,1,1.9,1.9,2.5
		C57.9,82.6,58.8,82.9,59.7,82.9z M165.8,21.8C165.8,21.9,165.8,21.7,165.8,21.8C165.9,21.7,165.9,21.6,165.8,21.8z M187.6,187.9
		C187.3,187.9,187.5,187.8,187.6,187.9L187.6,187.9z M197.4,182.6C197.4,182.6,197.4,182.6,197.4,182.6
		C197.4,182.6,197.4,182.6,197.4,182.6z M250,177.2c-0.9-0.2-1.8,0.4-1.8,1.4c-0.2,4.7-0.5,9.3-1.1,13.9c-0.3,2.2-0.5,4.5-0.9,6.7
		c-0.2,1.1-0.3,2.2-0.5,3.3c-0.1,0.4-0.2,0.7-0.3,1c-0.1,0.1-0.1,0.2-0.2,0.3l-0.2,0.1l-0.2,0.1c0.3-0.1-0.1-0.1,0,0l-0.4-0.1
		c-0.3-0.1-0.6-0.3-0.9-0.5c-0.7-0.6-1.3-1.4-1.8-2.2c-0.5-0.9-1.6-0.9-2.3-0.3c-1.3,1.1-2.6,2.3-4.3,2.8c-1.2,0.3-2.6,0.1-3.3-0.9
		c-0.7-0.9-0.7-2.6-0.9-3.9c-0.2-1.3-0.6-3.1-1.8-4.2c-0.5-0.5-1.5-0.6-2,0c-0.5,0.6-1.8,2.2-3.1,2.5c-1.3,0.4-1.8,0.1-2.2-0.9
		c-0.5-1.5-0.8-3.3-1.1-4.9c-0.3-1.6-0.5-3.4-0.7-5.1c-0.1-0.9-0.9-1.7-1.8-1.4c-1.4,0.4-2.8,0.8-4.3,0.6c-1.1-0.2-2.1-0.6-3-1.2
		c-1.8-1.2-3.1-3.3-3.2-5.5c0-0.2-0.1-0.4-0.1-0.6c1.4-3,2.2-6.2,2.9-9.4c0.1-0.1,0.2-0.2,0.3-0.4c0.6,0.4,1.5,0.5,2.2,0.1
		c0.8-0.5,1.4-1.6,1.8-2.5c0.4-0.9,0.8-1.9,1-2.8c0.5-2.6,0.4-5.3-0.3-7.8h0c1.3,0.6,2.8,0.8,4.2,0.6c0.5-0.1,0.9-0.5,1-1
		c1.5-7.1-1-13.9-4.3-20.1c0.1-0.3,0.1-0.7,0-1c0,0,0-0.1,0-0.1c0.9-0.2,1.7-0.8,2.2-1.5c1.4-1.8,0.6-4.5-0.1-6.5
		c-0.7-2-1.9-4.2-3-6.2c-0.3-0.5-0.6-0.9-0.9-1.4c-0.2-0.5-0.4-1-0.6-1.5l-0.2-0.4c0,0,0-0.1,0-0.1c0.1-0.3,0.3-0.5,0.3-0.8
		c1.4-0.1,2.8-0.5,3.9-1.2c2.1-1.4,3-3.7,2.3-6.1c-0.7-2.4-2.5-4-3.7-6c-0.3-0.5-0.9-1.5-0.1-1.9h0.4l1.1-0.1
		c0.8-0.1,1.5-0.4,2.2-0.7c1.3-0.5,2-2.1,2.2-3.4c0.1-1.4-0.7-2.7-1.3-3.9c-0.6-1.3-1.3-2.5-2-3.6c-0.8-1.2-1.7-2.4-2.4-3.6
		c-0.1-0.1-0.1-0.3-0.2-0.4c0-0.1-0.1-0.1-0.1-0.2c0,0,0-0.1,0-0.1c0,0,0,0,0,0c0,0,0.2-0.2,0.1,0l0.1-0.1l0.1-0.1
		c0.1-0.1,0.3-0.2,0.5-0.3c0.3-0.2,0.6-0.3,0.9-0.4c1.7-0.6,3.9-1,5.1-2.4c0.3-0.3,0.5-0.7,0.7-1.1c5.7,5.6,10.7,11.9,14.9,18.8
		c-1.3,0.4-2.7,0.6-4.1,0.5c-0.7-0.1-1.5,0.7-1.4,1.4c0.4,4.5,3.7,7.7,6.5,11c2.4,2.9,4.1,6.2,5.1,9.8l-4.4-0.8
		c-1-0.2-2.1,0.6-1.8,1.8c2.8,8.2,8.1,15.2,11.2,23.3c0.5,1.4,0.9,2.8,1.3,4.3l-3.4-1.3c-0.9-0.4-2.2,0.8-1.8,1.8
		c3.6,8.7,5.6,18,6,27.4L250,177.2z"/>
	<path style="stroke:#000000;stroke-width:3;stroke-linecap:round;stroke-linejoin:round;stroke-miterlimit:10;" d="M187.2,102.9
		l0.4,0.3h0.1l0.2,0.1c0.3,0.2,0.6,0.5,0.8,0.7l0.1,0.2l0.1,0.1c-0.1,0.1-0.1,0.2-0.2,0.2c-0.9,1.6-0.3,3.3,0.9,4.5
		c1.2,1.2,2.2,1.7,3.3,2.4l1.6,1.1l0.7,0.5l0.4,0.3l0.2,0.1c1.1,0.9,2.2,1.8,3,2.9h0c0,0.1,0.1,0.1,0.1,0.2l0.3,0.4
		c0.2,0.3,0.4,0.6,0.5,0.9c0.1,0.1,0.2,0.3,0.2,0.5l0.1,0.2c0,0,0,0,0,0.1c0.1,0.3,0.2,0.7,0.3,1c0.2,0.7,1,1.2,1.8,1
		c0.7-0.2,1.2-1,1-1.8c-1-3.7-3.9-6.3-6.9-8.5c-0.7-0.5-1.4-1-2.1-1.5l-1.1-0.7l-0.5-0.3l-0.3-0.2c0,0,0,0-0.1-0.1l-0.1-0.1
		l-0.9-0.8h0c-0.1-0.1-0.1-0.2-0.1-0.3l-0.1-0.1c0-0.1,0-0.1,0-0.1v-0.1h0l0.2-0.3c0.4-0.6,0.6-1.4,0.4-2.1
		c-0.3-1.1-1.2-1.9-2.1-2.5c-0.9-0.7-1.8-1.3-2.7-1.8c-0.9-0.5-1.9-0.9-2.9-1.2l-0.6-0.2l-0.3-0.1h0c0,0.1-0.1,0-0.1,0h0l0.2-0.1
		l0.4-0.2c0.3-0.1,0.5-0.2,0.7-0.4c0.9-0.6,1.5-1.8,0.9-2.8c-0.4-0.6-1.2-0.8-1.9-1.1l-1.5-0.5c-3.5-0.9-7.3-0.8-10.8,0.3
		c0.1-0.2,0.2-0.4,0.2-0.7c0.1-0.3,0.2-0.5,0.3-0.8c0.1-0.1,0.1-0.3,0.2-0.5l0.1-0.2l0.7-1.6c0.5-1.1,1.1-2.1,1.8-3.2
		c0.3-0.5,0.6-1,0.9-1.5l0.5-0.7l0.3-0.4c0,0,0.3-0.4,0.1-0.2c0.3-0.3,0.4-0.6,0.4-1c0-0.4-0.1-0.7-0.4-1c-0.5-0.5-1.5-0.7-2,0
		c-3.2,4.1-5.6,8.8-6.9,13.8c-0.1,0.6,0.1,1.2,0.5,1.5c0.5,0.3,1.1,0.4,1.6,0.1l0.8-0.4l0.3-0.1l0.4-0.2c0.6-0.2,1.2-0.4,1.8-0.5
		l0.9-0.2l0.5-0.1l0.3-0.1l1.8-0.1c0.6,0,1.3,0,1.9,0.1l0.9,0.1h0.3l0.4,0.1l1.2,0.3c-1.1,0.7-1.6,2-1,3.3c0.6,1.3,2.2,1.7,3.5,2.1
		l0.5,0.2c0.1,0,0.2,0.1,0.3,0.1l0.9,0.5C186,102.2,186.6,102.5,187.2,102.9z M182.5,98.2L182.5,98.2
		C182.4,98.3,182.5,98.2,182.5,98.2z M182.6,98.2L182.6,98.2L182.6,98.2L182.6,98.2L182.6,98.2z"/>
</g>
</svg>
