<?xml version="1.0" encoding="utf-8"?>
<!-- Generator: Adobe Illustrator 27.9.0, SVG Export Plug-In . SVG Version: 6.00 Build 0)  -->
<svg version="1.1" id="Layer_1" xmlns="http://www.w3.org/2000/svg" xmlns:xlink="http://www.w3.org/1999/xlink" x="0px" y="0px"
	 viewBox="0 0 281.8 202" style="enable-background:new 0 0 281.8 202;" xml:space="preserve">
<g>
	<path style="stroke:#000000;stroke-width:3;stroke-linecap:round;stroke-linejoin:round;stroke-miterlimit:10;" d="M270.1,183.9
		l-7.6-11.8c-0.6-0.9-1.3-1.9-1.8-2.8c-0.6-1-0.6-1.7-0.5-2.9c0.1-1.3-0.4-2.6-1.3-3.6c-1.6-2-4.1-3.2-6.1-4.6
		c-0.5-0.3-0.9-0.6-1.3-1l-0.5-0.6c0.1,0.1-0.2-0.3-0.2-0.3c-0.2-0.6,0-1.3,0.1-1.9s0.5-2.2,0.5-3.4c0.1-3.5-2.1-6.1-4.6-8.1
		c1.6-1.7,3.1-3.7,4.3-5.7c1.9-3,3.5-6.2,4.6-9.6c0.5-1.4,0.8-2.8,0.8-4.2c0-0.6,0-1.2-0.2-1.8c-0.2-0.7-0.7-1.2-0.9-1.8
		c-0.5-1.3,0-2.7,0.6-3.9s1.7-3.1,2.3-4.8c0.6-1.7,0.6-3.5,0.1-5.2c-0.4-1.2-0.4-2.3-0.5-3.7c-0.2-3.3-0.1-6.6,0-9.8
		c0.3-8.6,0-17-1.5-25.4c-0.6-3.3-1.3-6.5-2.7-9.6s-3-5.6-4.5-8.4c-2.2-3.9-4.1-7.9-5.8-12c-2-4.8-2.9-9.9-4.4-14.9
		c-0.6-2.1-1.3-4.3-2.8-5.9c-1.5-1.6-3.4-2.8-5.5-3.3c-4.9-1.4-9.5,1-12.7,4.6c-3.3,3.6-5.4,8.5-7.5,13c-2.4,5.2-4.6,10.5-6.8,15.8
		s-3.9,10.3-5.9,15.4c-1.8,4.5-3.8,9.1-6.9,12.9c-5.3,6.6-13.6,10.4-18.1,17.7c-0.8,1.2-1.4,2.5-1.9,3.8c-3.6-0.7-7.4-0.6-11.1-0.9
		c-3.7-0.3-8.3,0.1-12.1,1.8c-1.7,0.8-3.3,1.8-5.1,2.3c-1.8,0.5-3.6-0.5-5.4-1.3c-3.7-1.4-7.6-2.3-11.5-2.7
		c-3.9-0.4-7.8-0.2-11.6,0.7c-2.1-5.8-7-9.8-11.7-13.6c-2.6-2.2-5.3-4.3-7.5-6.9c-2.2-2.6-4.6-6.6-6.3-10.3c-1.6-3.7-3-7.8-4.5-11.7
		c-1.4-3.9-3.3-8.5-5.1-12.8c-1.8-4.3-3.6-8.4-5.6-12.6c-1.7-3.6-3.5-7.2-6.1-10.3S61,11.9,57,12.2c-4,0.2-7.4,3-9.8,6
		c-2.4,3-4.5,6.9-6.2,10.7c-1.7,3.8-3.5,8.2-5.2,12.3C29.6,57,24.6,75.1,31.2,91.6c0.8,1.9,1.6,3.7,2.6,5.4c0.5,0.9,1.1,1.7,1.3,2.7
		c0.2,1-0.3,2.2-0.6,3.1c-1.6,4-2.7,7.9-2.4,12.3c0.2,2.2,0.6,4.3,1.3,6.3c0.6,1.9,1.6,3.9,1.6,6c0.1,3.7-1.7,7.3-2.1,10.9
		c-0.1,1.3,0,2.6,0.3,3.8c-2.5,1.9-4.9,4.1-5.4,7.3c-0.3,2.3,0.8,4.4,0.5,6.6c-0.2,1.6-1.3,3.1-2.1,4.4c-0.8,1.4-1.6,3.2-1.7,5
		c0,0.9,0.2,1.9-0.1,2.8c-0.3,0.9-1.2,2-1.8,2.9l-8,12.4c-1.3,2.1,1.9,4,3.3,1.9l7.6-11.8c1.1-1.7,2.6-3.6,2.8-5.7
		c0.1-0.9-0.1-1.9,0-2.8c0.2-0.8,0.5-1.6,0.9-2.3c0.8-1.5,1.8-2.9,2.4-4.5c0.6-1.6,0.6-3.8,0.3-5.8c-0.3-2-0.5-3.4,0.7-5
		c1.2-1.6,2.5-2.4,3.8-3.3c1.4-0.9,1.1-1.6,0.6-2.6c-1.4-3.1,0.4-6.9,1.1-9.9c0.5-1.7,0.6-3.6,0.5-5.4c-0.2-2.1-0.9-4-1.6-6
		c-1.4-3.8-1.6-7.9-0.7-11.8c0.5-2,1.4-3.8,2.1-5.7c0.8-2,0.7-4.2-0.2-6.2c-0.8-1.8-1.9-3.4-2.7-5.2c-0.8-1.8-1.5-3.7-2-5.6
		c-1-3.8-1.6-7.7-1.6-11.6c0-8.4,1.9-16.6,4.6-24.4c1.4-4.1,3-8,4.6-12c1.6-3.9,3.1-7.6,4.9-11.2s3.8-6.9,6.8-9.3
		c1.3-1,3-1.9,4.7-1.8c1.7,0,3.4,1,4.7,2.1c2.8,2.4,4.7,5.7,6.4,9c1.6,3.3,3.6,7.8,5.3,11.7c3.4,7.9,6.3,15.9,9.4,23.8
		c2.8,7.1,6.3,13.6,12,18.7c4.7,4.2,10.5,7.7,13.7,13.1c0.8,1.3,1.3,2.6,1.6,4.1c0.3,1,1.3,1.6,2.4,1.3c7.3-2.1,15.4-1.3,22.5,1.4
		c1.7,0.7,3.4,1.6,5.3,1.7c1.9,0.1,3.8-0.6,5.5-1.4c1.7-0.8,3.4-1.7,5.3-2.3c1.9-0.5,3.8-0.7,5.7-0.6c2.3,0,4.6,0.3,6.9,0.3
		c2.4,0,4.9,0.3,7.2,0.9c1,0.3,2.1-0.3,2.4-1.3c1.9-7.8,9.7-12.2,15.3-17.2c3.4-3,6.2-6.6,8.3-10.5c2.3-4.3,4-8.8,5.7-13.4
		c3.7-10.1,7.8-20.2,12.6-30c1.9-4,4.3-8.4,8.4-10.6c3.4-1.9,8.3-0.5,9.9,3.1s2.4,8.9,3.7,13.2s3.5,9.2,5.7,13.5
		c2.8,5.5,6.6,10.7,8.1,16.7c1.8,7.2,2.3,14.7,2.4,22c0,3.9-0.2,7.8-0.2,11.7c0,3-0.2,6.4,0.6,9.3c0.4,1.4,0.5,2.3,0,3.7
		c-0.5,1.4-1.4,2.8-2.1,4.3c-0.6,1.5-1.2,3.2-1,4.9c0.1,0.9,0.4,1.7,0.8,2.5c0.1,0.2,0.3,0.4,0.4,0.6c0,0.1,0.1,0.3,0.1,0.4
		c0,0,0,0.3,0,0.5c0,0.3,0,0.5,0,0.8c0-0.2-0.1,0.4-0.1,0.5c0,0.2-0.2,0.8-0.3,1.2c-0.4,1.4-0.9,2.8-1.6,4.2c-1.4,3.1-3.2,6-5.2,8.6
		c-0.8,1-1.6,1.9-2.6,2.7c-1.2,0.9-1.3,2.4,0,3.3c1.4,0.9,2.7,2,3.7,3.2c1.1,1.4,1.2,2.9,0.9,4.7c-0.3,1.7-0.7,3.5-0.1,5.1
		c0.5,1.1,1.3,2.1,2.2,2.8c1.9,1.6,4.3,2.7,6.1,4.4c0.3,0.3,0.5,0.5,0.7,0.9l0.1,0.1c0,0,0,0,0,0c-0.1-0.3,0,0.3,0,0.3
		c0,0,0,0.6,0,0.9c-0.1,2.3,0.9,3.9,2.1,5.8l8.4,13.1C268.1,187.8,271.4,185.9,270.1,183.9z"/>
	<path style="stroke:#000000;stroke-width:3;stroke-linecap:round;stroke-linejoin:round;stroke-miterlimit:10;" d="M74.8,81.5
		c-0.2-1.2-0.4-2.5-0.6-3.7c0-0.1,0-0.2,0-0.3v-0.2c-0.1-0.3-0.1-0.6-0.2-0.9c-0.1-0.6-0.1-1.3-0.2-1.9c-0.5-5-0.4-10.1,0.1-15.2
		c0.1-0.7,0.2-1.4,0.3-2.1v-0.2c0,0,0.1-0.5,0.1-0.5c0.1-0.3,0.1-0.7,0.2-1c0.2-1.4,0.5-2.8,0.8-4.2c0.2-0.9-0.3-2.1-1.3-2.3
		c-1-0.2-2.1,0.3-2.3,1.3c-2.2,10.3-2.4,21-0.6,31.4c0.3,1.7,0.7,3.5,1.1,5.2c-1.2,0.3-2.2,1.1-2.8,2.2c-0.8,1.8-0.6,3.7,0,5.5
		c0.3,1,0.6,2.1,1,3.1c-1.4,0.5-2.6,1.5-3.5,2.7c-0.8,1.3-1.1,2.9-0.9,4.4c-0.5,0.2-0.9,0.4-1.3,0.7c-1.3,0.9-2.3,2.3-2.8,3.8
		c-0.4,1.3-0.5,2.7-0.6,4.1l-0.9-0.1c-2.8,0.3-4.2,2.8-4.9,5.3c-0.4,1.1-0.6,2.3-1.1,3.5c-0.1,0.3-0.2,0.5-0.3,0.8l-0.1,0.2
		c-0.1,0.2-0.1,0.3-0.2,0.5c-0.1,0.2-0.6,1.2-0.9,1.7c-0.3,0.6-0.7,1.2-1.1,1.7l-0.3,0.5l-0.2,0.2l-0.7,0.8c-1,1.1-2.1,2.1-3.2,3
		c-0.8,0.6-0.7,2.1,0,2.7c0.7,0.6,1.8,0.6,2.7,0c4.1-3.2,7.1-7.7,8.5-12.8c0.2-0.5,0.3-1,0.4-1.5l0.2-0.7c0-0.1,0.1-0.2,0.2-0.3
		c0,0,0-0.1,0-0.2l0.3-0.6c0.2-0.2,0.3-0.4,0.4-0.6c0.1-0.1,0.1-0.2,0.2-0.2l0.1-0.1h0.1c0,0,0,0,0,0h0h0H61
		c0.9,0.2,1.9,0.2,2.7-0.4c1.4-0.9,1.5-2.6,1.6-4.1c0-0.2,0-0.3,0-0.5v-0.3c0-0.4,0.1-0.7,0.2-1.1c0-0.2,0.1-0.3,0.2-0.4
		c0-0.1,0-0.2,0.1-0.3h0c0.1-0.3,0.3-0.6,0.5-0.8l0.2-0.1c0.1-0.1,0.2-0.2,0.3-0.3h0l0,0l0,0l0.2-0.1l0.5-0.3h0.1
		c0.1,0,0.4-0.2,0.5-0.1h0.2c0.7,0.2,1.5-0.1,2-0.7c0.5-0.6,0.6-1.4,0.2-2.1l-0.3-0.5l-0.1-0.1v-0.1c-0.1-0.2-0.1-0.4-0.2-0.6v-0.8
		c0-0.1,0-0.2,0.1-0.3c0-0.1,0-0.2,0.1-0.3c0,0,0-0.1,0-0.1c0,0,0-0.1,0-0.1l0.2-0.3l0.1-0.1h0v-0.1v0l0.3-0.3l0,0c0,0,0,0,0,0
		l0.2-0.1c0.1-0.1,0.3-0.2,0.4-0.3c0,0,0,0,0,0c0,0,0.1,0,0,0h0.2L72,101h0.8c1.2,0.2,2.2-1.3,1.8-2.4l-1.3-4.1l-0.6-2L72.6,92
		c0-0.1,0-0.1,0-0.2v-0.3c0-0.2,0-0.3,0-0.5v0c0-0.1,0-0.1,0-0.2v0l0.1-0.3c-0.1,0.3,0,0.1,0,0l0.1-0.1H73c0,0,0,0,0.1,0h0.1
		c0,0,0,0,0,0c0.4,0.8,1.3,1.2,2.2,0.9c1-0.3,1.6-1.3,1.3-2.3C75.9,86.5,75.3,84,74.8,81.5z M70.6,101.5
		C70.7,101.4,70.7,101.5,70.6,101.5L70.6,101.5z M72.8,90.3C72.8,90.3,72.9,90.3,72.8,90.3C72.9,90.3,72.9,90.3,72.8,90.3z
		 M73.3,90.3C73.4,90.5,73.3,90.4,73.3,90.3L73.3,90.3z"/>
	<path style="stroke:#000000;stroke-width:3;stroke-linecap:round;stroke-linejoin:round;stroke-miterlimit:10;" d="M235.6,148.8
		c-1.6-2.1-4.3-2.3-6.5-3.1l-0.3-0.1l-0.2-0.1c-0.2-0.1-0.4-0.2-0.6-0.3c-0.1,0-0.2-0.2-0.3-0.2h0l-0.2-0.2l-0.1-0.2l-0.2-0.4
		c0,0,0-0.1,0-0.2l-0.1-0.4c0-0.1,0-0.2,0-0.2c0-0.6,0-1.3,0-2c0.2-1.4,0.1-2.7-0.1-4.1c-0.2-1.3-0.8-2.5-1.7-3.5
		c-0.5-0.5-1.2-0.9-1.9-1.1c-0.8-0.2-1.6-0.3-2.5-0.2h-0.5l-0.1-0.1h0c0,0,0,0,0-0.1h0c-0.1-0.1-0.1-0.1,0,0l-0.1-0.2
		c-0.1-0.1-0.2-0.3-0.2-0.4c0,0,0,0,0-0.1c-0.6-1.6-0.8-3.2-1.2-4.9l-1.3-5.7c-0.2-0.9-1.4-1.7-2.4-1.3l-3.8,1.6L211,121v-0.2
		c0-0.2,0-0.3,0-0.5c-0.1-1.2,0-2.4,0.2-3.6l0.1-0.9v0c0-0.1,0-0.1,0-0.2c0-0.1,0-0.2,0-0.3c0.1-0.8,0.2-1.5,0.3-2.2
		c0.2-1.2,0.2-2.4,0.1-3.6c-0.1-1.6-0.5-3.1-1.2-4.4c-0.7-1.3-2.7-1.1-3.3,0.1H207c0-0.1-0.1-0.2-0.2-0.3c0,0,0,0,0-0.1
		c0,0,0-0.1,0-0.1c-0.1-0.3-0.2-0.7-0.2-1c0,0,0-0.1,0-0.2c0-0.2,0-0.4,0-0.6l-0.1-1.4c-0.2-3.4-0.3-6.8-0.2-10.3
		c0.1-1.7,0.2-3.4,0.3-5.1c0.1-0.8,0.2-1.7,0.3-2.6c0-0.1,0-0.2,0-0.3v-0.1c0,0,0-0.2,0-0.2c0,0,0-0.2,0-0.3s0.1-0.9,0.2-1.4
		c0.5-3.4,1.3-6.7,2.2-10c1-3.8,2.3-7.4,3.8-11c0.4-0.9-0.4-2.1-1.3-2.3c-0.9-0.2-1.9,0.3-2.4,1.3c-5.8,13.9-8.1,28.9-6.8,43.8
		c0.2,2,0.6,4.4,2.7,5.4c0.8,0.3,1.6,0.5,2.4,0.4c0,0.1,0,0.1,0,0.2c0,0,0,0.1,0,0.1c0,0.1,0,0.3,0,0.4c0.1,1.2,0,2.4-0.2,3.5
		l-0.1,0.9c0,0.2,0,0.3,0,0.4s0,0.1,0,0.2c-0.1,0.8-0.2,1.5-0.3,2.2c-0.2,1.2-0.2,2.4-0.2,3.6c0.1,1.6,0.5,3.1,1.2,4.5
		c0.3,0.6,1.4,1.1,2.1,0.9l3.6-1.4l0.7,3c0.3,1.6,0.6,3.1,1,4.6s1.1,2.7,2.2,3.6c0.7,0.5,1.6,0.8,2.5,0.8c0.4,0,0.7,0,1.1,0
		c0.1,0,0.2,0,0.3,0h0.3c0,0,0,0,0,0l0.2,0.2l0.1,0.1c-0.1-0.1-0.2-0.3,0-0.1c0,0,0,0,0,0.1l0.3,0.6c0.1,0.2,0.1,0.3,0.2,0.5
		c0.1,0.2,0.1,0.5,0.2,0.7v0.1c0,0.2,0,0.3,0,0.5c0,0.6-0.1,1.3-0.1,2c-0.1,1.4-0.1,3,0.4,4.3c0.5,1.4,1.6,2.7,2.9,3.4
		c1.3,0.5,2.6,1,3.9,1.3l0.9,0.3l0.4,0.2h0.1l0.4,0.2l0.3,0.2h0.1l0.3,0.4c0.7,0.8,1.9,0.9,2.7,0.2c0.8-0.7,0.9-1.9,0.2-2.7
		C235.8,149,235.7,148.9,235.6,148.8z M207,105.4C206.9,105.5,206.9,105.6,207,105.4L207,105.4z"/>
</g>
</svg>
