<?xml version="1.0" encoding="utf-8"?>
<!-- Generator: Adobe Illustrator 27.9.0, SVG Export Plug-In . SVG Version: 6.00 Build 0)  -->
<svg version="1.1" id="Layer_1" xmlns="http://www.w3.org/2000/svg" xmlns:xlink="http://www.w3.org/1999/xlink" x="0px" y="0px"
	 viewBox="0 0 309.5 209.2" style="enable-background:new 0 0 309.5 209.2;" xml:space="preserve">
<g>
	<path style="stroke:#000000;stroke-width:3;stroke-linecap:round;stroke-linejoin:round;stroke-miterlimit:10;" d="M291.5,111.3
		c-0.1-3.1-0.2-6.3-0.5-9.5s-1.6-6.2-2.8-9.1c-1.8-4.3-3.9-8.5-6.1-12.5c-2.2-4.1-4.8-8-7.6-11.7c-2.2-2.9-4.6-5.9-7.8-7.7
		c-1.2-0.7-2.5-1.1-3.8-1c-1.3,0.1-2.2,0.3-3.5,0.2h-0.2l-0.4-0.1l-0.8-0.2c-0.6-0.2-1.2-0.4-1.7-0.6c-5-2.4-8.5-7.2-11.5-11.7
		c-1.6-2.4-3.1-4.8-4.6-7.2c-0.1-0.1-0.2-0.3-0.3-0.3c-1.1-1.7-2.3-3.4-3.5-5.1l-4.2-5.8c-1.1-1.5-2.3-3.1-3.7-4.4
		c-1.4-1.3-3-2.2-4.9-2.5c-2.4-0.3-4.6,0.4-6.9,1c-3.7,1-7.2,0.3-10.7-1c-3.5-1.4-6.8-3.2-10.3-4.6c-3.8-1.6-8-2.2-12.1-1.8
		c-4.8,0.5-9.5,1.3-14.4,0.4c-2.3-0.4-4.4-1.2-6.6-1.8c-2.1-0.6-4.4-0.9-6.6-0.8c-4.3,0.2-8.4,1.5-12.5,2.4c-2,0.5-4.1,0.8-6.1,0.8
		c-2.4,0-4.7-0.3-7-0.6c-4.4-0.5-8.5-0.4-12.7,1.1c-3.7,1.3-7,3.2-10.6,4.7c-3.6,1.5-6.6,2.4-10.1,1.8c-2.2-0.4-4.4-1.3-6.6-1.5
		c-2-0.1-3.9,0.5-5.5,1.7c-3.4,2.4-5.7,6.4-8.1,9.7C75,36,73,38.6,71.4,41.3c-5.7,8.4-13.7,14.8-23,19c-5,2.3-9.9,4.6-13.3,9.2
		c-1.8,2.5-3.1,5.4-4.7,8.1c-1.4,2.5-3,4.8-4.9,6.9c-3.2,3.5-7.3,6.5-8.7,11.2c-0.9,2.9-0.4,6,0.1,8.9c0.6,2.9,1.3,6.4,2.1,9.6
		c3.1,12.7,7.3,25.1,11,37.6c2.8,9.6,4.4,20.1,10.5,28.2c3.3,4.3,7.8,7.9,13.3,9c6,1.2,11.8-0.9,16.9-3.9c5.1-3,9.7-6.4,13.5-10.7
		c2-2.2,3.6-4.6,4.8-7.3c1.2-2.7,2-5.6,2.3-8.6c1.5-12.7-4.5-24.8-8.5-36.5c-4-11.7-7.4-24.6-6.4-37.4c0.5-6.3,2.3-12.4,4.5-18.3
		s4.8-11,8.3-15.9c1.7-2.4,3.6-4.5,5.8-6.4c0.6-0.6,0.6-1.7,0-2.2c-0.6-0.6-1.6-0.6-2.2,0c-4.5,3.9-8,9-10.8,14.3
		c-2.8,5.4-5.1,11.1-6.8,17c-1.7,6.1-2.4,12.3-2.2,18.6c0.3,6.4,1.3,12.7,2.9,18.8c1.6,6.1,3.6,12.1,5.8,18.1
		c2.2,6,4.5,11.7,5.7,17.8c1.3,6.1,1.3,11.7-0.6,17.2c-1.8,5.5-5.5,9.5-9.7,13c-2.2,1.8-4.5,3.4-6.9,4.9c-2.4,1.6-5,2.8-7.7,3.7
		c-2.6,0.8-5.3,1.2-7.9,0.7c-2.6-0.5-5-1.6-7.1-3.1c-8.1-5.8-10.6-16.4-12.9-25.4c-3.1-11.8-7.1-23.3-10.4-35.1
		c-1.7-6.2-3.4-12.5-4.5-18.8c-0.5-2.5-0.8-5.3,0.2-7.7c1-2.4,2.4-3.7,3.9-5.2c1.5-1.5,3.3-3.2,4.8-5c1.9-2.4,3.6-4.9,5-7.6
		c1.4-2.5,2.7-5.3,4.6-7.5c1.7-1.9,3.8-3.5,6-4.7c2.3-1.3,4.7-2.3,7.1-3.4c2.4-1.2,4.7-2.4,6.9-3.9c3-2,5.9-4.3,8.5-6.8
		c-1.6,4.9-2.9,10-5.5,14.5c-0.9,1.6-2,3-3.2,4.3c-1.4,1.5,0.8,3.7,2.2,2.2c5.3-5.5,7.1-13.1,9.4-20.1c1.1-3.4,2.5-6.7,4.4-9.8
		l0.6-0.9c0.1-0.1,0.1-0.2,0.1-0.3c2.5-3.8,5.3-7.5,8-11.2c1-1.4,2.2-2.9,3.6-3.9c1.4-1.1,3.3-1.5,5.1-1.1c2.1,0.4,4.1,1.2,6.2,1.4
		c1.8,0.2,3.6,0,5.4-0.4c7.2-1.6,13.3-6.9,20.7-7.5c4.6-0.4,9.2,1,13.8,0.9c4.6-0.1,8.4-1.3,12.5-2.3c2-0.5,4-0.8,6.1-0.9
		c2.1,0,4.2,0.3,6.1,0.9c2.1,0.7,4.2,1.4,6.4,1.8c2.4,0.4,4.8,0.5,7.2,0.4c4.5-0.3,9.1-1.5,13.7-0.7c3.6,0.7,7,2.3,10.2,3.9
		c3.3,1.5,6.6,3.2,10.3,3.7c1.8,0.3,3.8,0.3,5.6-0.1c2.2-0.4,4.3-1.4,6.5-1.3c3.7,0.2,6.1,4.2,8,6.8c2.3,3.2,4.7,6.3,6.8,9.6
		l0.2,0.3c0.5,0.8,0.9,1.5,1.4,2.2c2,3.4,3.5,7.1,5.3,10.7c1.8,3.6,3.6,7.1,5.9,10.2c1.2,1.7,2.5,3.3,4,4.7c1.4,1.4,3.6-0.8,2.2-2.2
		c-2.7-2.8-4.9-6-6.8-9.3c3.4,3.1,7.6,5.6,12.3,5.1l1.2-0.2h0.5l0.8,0.2l0.3,0.1l0.2,0.1c0.6,0.3,1.2,0.7,1.7,1.1h0
		c0.1,0.1,0.2,0.1,0.1,0.1l0.1,0.1l0.4,0.3l0.9,0.8c1.3,1.3,2.6,2.8,3.8,4.3v0.1c0,0,0,0,0.1,0.1l0.3,0.3l0.4,0.6l1,1.4
		c0.7,0.9,1.3,1.9,1.9,2.9c2.5,3.9,4.9,8.1,6.9,12.3c1,1.9,1.9,3.9,2.7,5.9c0,0,0,0,0,0c0.1,0.1,0.1,0.3,0.2,0.4l0.3,0.6
		c0.2,0.4,0.3,0.9,0.5,1.3c0.2,0.5,0.6,1.6,0.9,2.4c0.3,0.8,0.4,1.3,0.6,2l0.2,0.9c0,0.1,0.1,0.3,0.1,0.4c0,0,0,0.1,0,0.1
		c0.1,1.2,0.2,2.4,0.2,3.5c0.2,4.3,0.3,8.5,0.4,12.8c0.1,5.4,0.1,10.8-0.2,16.2c-0.3,5.4-0.6,9.8-1.4,14.5c-0.4,2.1-1,4.2-1.7,6.3
		c-0.9,3-1.7,6.2-2.4,9.3c-1.5,5.8-3.5,11.4-8.1,15.5c-1.3,1.1-2.6,2.1-4,3.1c-1.2,0.9-2.5,1.7-3.9,2.3c-2.9,1.2-6,0.5-8.9-0.3
		c-3.2-0.8-6.4-1.9-9.4-3.3c-3-1.5-5.7-3.5-8.1-5.7c-2.5-2.2-5-5.1-6.7-8.2c-1.6-3.2-2.6-6.6-2.8-10.2c-0.3-3.8,0.1-7.6,0.9-11.2
		c0.8-3.9,2-7.7,3.4-11.3c1.3-3.1,3.1-5.8,4.4-8.9c0.7-1.5,1.2-3.1,1.5-4.7c0.3-1.9,0.1-3.6-0.3-5.5c-1.3-7.9-2.7-15.9-2.9-23.9
		c-0.1-3.6,0-7.2,0.5-10.8c0.6-3.7-0.3-7.3-1.8-10.7c-0.7-1.8-1.6-3.6-2.4-5.3c-0.8-1.8-1.5-3.4-2.3-5.2c-1.5-3.4-3.3-6.7-5.4-9.9
		c-2-3.1-4.5-6-7.3-8.4c-0.6-0.6-1.6-0.6-2.2,0c-0.6,0.6-0.6,1.7,0,2.2c5.8,5.1,9.7,11.9,12.8,18.9c1.5,3.4,3.2,6.7,4.5,10.2
		c0.7,1.7,1,3.4,1.2,5.1c0.1,1.8-0.3,3.6-0.5,5.4c-0.8,7.8,0.1,15.7,1.2,23.4c0.3,2.1,0.6,4.1,1,6.2s0.8,3.9,0.9,5.8
		c0.2,3.2-1.4,6.2-2.9,9c-0.8,1.5-1.7,3-2.4,4.6c-0.8,1.7-1.4,3.5-2,5.3c-1.3,3.8-2.3,7.7-2.9,11.7c-1,7.6-0.1,15.5,4.2,21.9
		c2.1,3,4.6,5.8,7.5,8.1c2.7,2.2,5.5,4.1,8.7,5.5c3.2,1.4,6.5,2.5,10,3.3c1.7,0.4,3.4,0.8,5.1,0.8c1.7,0,3.4-0.4,4.9-1.1
		c1.4-0.7,2.8-1.4,4-2.4c1.4-1,2.9-2.1,4.2-3.2c2.4-2.1,4.4-4.7,5.9-7.6c2.9-5.7,3.9-12.1,5.6-18.2c0.6-2.2,1.4-4.4,1.8-6.6
		c0.4-2.3,0.8-4.8,1-7.1c0.6-5.4,0.8-10.8,0.8-16.2C291.7,121.3,291.6,116.5,291.5,111.3z"/>
</g>
</svg>
