<?xml version="1.0" encoding="utf-8"?>
<!-- Generator: Adobe Illustrator 27.9.0, SVG Export Plug-In . SVG Version: 6.00 Build 0)  -->
<svg version="1.1" id="Layer_1" xmlns="http://www.w3.org/2000/svg" xmlns:xlink="http://www.w3.org/1999/xlink" x="0px" y="0px"
	 viewBox="0 0 266.8 266.3" style="enable-background:new 0 0 266.8 266.3;" xml:space="preserve">
<g>
	<path style="stroke:#000000;stroke-width:3;stroke-linecap:round;stroke-linejoin:round;stroke-miterlimit:10;" d="M238.5,189.2
		c0.3-3.6,1-6.9,0.4-10.5c-0.6-3.2-1.8-6.2-3.2-9.1c-1.4-2.9-2.7-6.1-3.9-9.2c-2.5-6.5-4.6-13.1-5.8-19.9c-0.3-1.8-0.5-3.6-0.8-5.4
		c-0.3-1.8-0.7-3.6-0.9-5.4c-0.6-3.5-1.1-7-1.7-10.5c-1.2-6.9-2.7-13.6-4.9-20.3c-1-3.3-2-6.5-2.9-9.9c-0.9-3.3-1.9-6.9-2.1-10.4
		c-0.5-7,0.8-13.9,0.8-20.8c0-3.3-0.4-6.8-0.8-10.1c-0.2-3.4-0.8-6.7-1.7-10c-0.5-1.6-1.1-3.1-1.8-4.6c0,0,0-0.1,0-0.1
		c0,0,0-0.1,0-0.1c-0.4-0.8-1.3-1.2-2.1-0.8c-0.5,0.2-0.9,0.5-1.2,0.8c-1.2,1.6-2.3,3.2-3.2,5c-0.8,1.7-1.3,3.6-1.8,5.4
		c-1.1,3.8-2,7.6-3,11.3c-1.9,7.6-3.9,15.1-6.7,22.4c-2.8,7.3-5.9,14-9.3,20.9c-3.3,6.9-6.9,13.8-10.6,20.5
		c-4,7.4-8.3,14.7-12.7,21.9c-2,0.6-4.2-0.7-5.9-1.5c-2.3-1.2-4.9-2.1-7.5-2.4c-2.8-0.2-5.6-0.1-8.4,0.5c-2.5,0.5-4.9,1.4-7.4,2.1
		c-2.4,0.7-5,1.2-7.5,0.9s-5.5-1-8.4-1.3c-5.5-0.5-11.3,0-16.3,2.6c-0.6,0.3-1.1,0.7-1.6,1.1c-2.3-2.9-4.8-5.6-7.2-8.4
		c-1.2-1.3-2.4-2.7-3.4-4.1c-0.4-0.6-0.4-1.1-0.4-1.8c0-0.8,0.2-2.2,0.2-3.2c0-2.1-0.7-4.2-1.1-6.3c-0.4-2.1-0.8-4.2-1.1-6.4
		c-0.6-4.2-0.9-8.4-1-12.6c0-2.2,0-4.4,0-6.6c0.1-2.2-0.6-4.3-1.1-6.4c-0.9-4.1-2-8.2-3.3-12.2c-1.4-3.8-2.3-7.8-2.7-11.9
		c-0.4-4.3-0.4-8.7-0.6-13S73,39.9,72.5,35c-0.5-4.8-1.4-9-3.7-13c-0.2-0.3-0.5-0.6-0.9-0.8c-0.5-0.3-1.2-0.3-1.7,0.1
		c-1,0.6-2.4,1.3-3,2.3c-0.1,0.2-0.2,0.4-0.3,0.6c-2.5,3.3-3.5,7.6-4.1,11.8c-1.1,7.5-2.1,15-3.2,22.5s-2.2,16-3.4,24
		c-1.2,7.3-2.5,14.7-5.3,21.6c-2.7,7-6.9,12.6-9.8,19.3c-2.9,6.6-4.1,14.6-4.5,22.2c-0.4,7.6-0.3,15.2-1.8,22.7
		c-1.5,7.5-4.7,14.7-7.3,21.9s-4.7,14.8-3.7,22.5c1,7.7,4.9,13.7,8,20.3c0.8,1.7,1.5,3.3,2,5c0.8,2.3,4.4,1.3,3.6-1
		c-2.2-6.8-6.5-12.7-8.7-19.5s-1.4-14.6,0.9-21.6c2.2-7.1,5.5-14.1,7.6-21.4s2.6-14.9,2.9-22.4c0.3-7.5,0.4-15,2.6-22.2
		s6-12.7,9.2-18.9s5.3-13.4,6.7-20.5c1.5-7.7,2.4-15.5,3.5-23.3s2.3-15.8,3.4-23.7c0.5-3,0.8-6,1.4-9s1.2-5.2,2.6-7.4
		c0.2-0.3,0.4-0.6,0.7-0.8l0.4-0.2c1.1,2.9,1.9,5.9,2.1,8.9c0.5,4.3,1.2,8.6,1.5,12.9c0.3,4.3,0.3,8.6,0.6,12.9
		c0.3,4.1,1,8.2,2.2,12.2c0.6,2,1.4,4,1.9,6c0.6,2,1.1,4.1,1.5,6.1c0.5,2,1,4.1,1.4,6.2c0.2,1.1,0,2.1,0,3.2c0,1.1,0,2.2,0,3.3
		c0,4.3,0.3,8.5,0.8,12.7c0.3,2.2,0.6,4.4,1,6.7c0.4,2.1,1,4.2,1.4,6.3c0.3,2.1-0.5,4.4,0,6.5c0.5,2.1,2.1,3.3,3.2,4.7
		c2.9,3.5,6.1,6.7,8.8,10.2c-1.9,2.5-3.4,5.4-5.5,7.7s1,4.4,2.6,2.6c1.6-1.8,3.3-4.4,4.9-6.6s2.8-3.6,5-4.6c5.9-2.6,12.4-2,18.6-0.9
		c1.7,0.3,3.3,0.6,5,0.6c1.5,0,3-0.2,4.5-0.5c2.9-0.6,5.7-1.7,8.6-2.4c2.9-0.7,6.3-1.1,9.3-0.5c3,0.6,5.2,2.1,7.9,3.2
		c1.3,0.6,2.7,0.8,4.1,0.7c0.8-0.1,1.5-0.2,2.2-0.5c1-0.4,1.4-1.2,1.9-2c1.8-2.9,3.5-5.8,5.2-8.8c3.4-5.8,6.7-11.7,9.9-17.7
		c6.4-12,12.5-24.3,17.4-37c2.4-6.4,4.3-13,6-19.6l2.6-10c0.4-1.7,0.9-3.3,1.3-4.9c0.5-1.6,0.8-3.1,1.6-4.6l0.5-0.8l0.2,0.3
		c0.1,0.2,0.3,0.3,0.5,0.4c1.4,4.9,1.6,10.2,2.1,15.2c0.6,6.8-0.7,13.7-0.8,20.5c0,6.8,1.8,13.9,3.9,20.6c1,3.3,2.1,6.5,3,9.9
		c0.9,3.3,1.7,6.7,2.3,10c1.4,7,2.4,13.9,3.6,20.9c0.6,3.5,1,7,1.8,10.4c0.8,3.3,1.8,6.6,2.9,9.8c1.1,3.3,2.4,6.5,3.6,9.6
		c1.3,3.2,2.8,5.9,4,9c1.1,3.1,1.8,6.1,1.4,9.2c-0.4,3.2-0.8,7.1-1,10.7s-0.2,7.2-0.1,10.8c0,0.8,0.1,1.7,0.1,2.5
		c0.1,0.9,0.1,1.7,0.1,2.6c-0.2,1.5-1.1,3-1.9,4.2c-1.6,2.5-3.6,4.7-5.2,7.1c-1.6,2.5-2.6,5.8-3.1,9c-0.3,1.7-0.4,3.3-0.5,5
		c-0.2,2.4,3.6,2.4,3.8,0c0.2-3.3,0.6-6.6,1.9-9.7s3-4.8,4.7-7c1.7-2.2,4-5.5,4.1-8.7c0.1-1.8-0.1-3.6-0.2-5.3c0-1.8-0.1-3.6,0-5.4
		C238.1,196.3,238.2,192.7,238.5,189.2z"/>
	<path style="stroke:#000000;stroke-width:3;stroke-linecap:round;stroke-linejoin:round;stroke-miterlimit:10;" d="M78.5,149.9
		c-4.7,3.8-8.4,8.7-11.5,14c0-1.8,0.2-3.6,0.4-5.5c0-0.2,0-0.4,0.1-0.6c0-0.2,0-0.1,0-0.1v-0.1c0.1-0.5,0.1-0.9,0.2-1.4l0.5-2.6
		c0.3-1.7,0.6-3.3,1-5c1.5-6.7,3.5-13.3,4.9-20.1c1.4-6.7,2.3-13.6,1.6-20.4c-0.8-7.6-3.6-14.7-5.3-22.1c-0.4-1.9-0.8-3.8-1.1-5.7
		c-0.2-0.9-0.2-1.5-0.3-2.6c-0.1-1.1-0.2-1.8-0.3-2.7c-0.3-3.8-0.4-7.6-0.2-11.4c0-1,0.1-1.9,0.2-2.9c0-1.1-0.8-1.9-1.9-1.9
		c-1,0-1.8,0.9-1.9,1.9c-0.6,7.7-0.2,15.4,1.1,23c0.7,3.7,1.6,7.4,2.7,11.1c1.1,3.6,2.1,7.2,2.8,11l0.1,0.7c0,0.2,0,0.3,0.1,0.4
		l0.1,1.2c0.1,0.9,0.2,1.7,0.2,2.6c0.1,1.7,0.1,3.3,0,5c-0.1,1.7-0.3,3.3-0.5,5c0,0.1,0,0.1,0,0.2c0,0.2,0,0.4-0.1,0.6
		c-0.1,0.4-0.1,0.8-0.2,1.3l-0.5,2.5c-1.3,6.7-3.2,13.4-4.9,20.1c-1.6,6.7-2.9,13.6-2.9,20.5c0,0.8,0,1.7,0.1,2.6
		c0,0.5,0.2,0.9,0.5,1.2l-0.4,0.7C59.2,179,56,188,50.9,195.9c-2.8,4.4-6.2,8.3-9,12.6c-0.5,0.9-0.2,2,0.6,2.5l0,0
		c0.9,0.5,2,0.2,2.6-0.7c2.5-3.9,5.5-7.4,8.1-11.2c2.6-3.8,4.8-8,6.7-12.2c3.9-8.1,7.1-16.5,12-24c0.7-1,1.4-2,2.1-3l0.2-0.3
		l0.2-0.3l0.2-0.2l0.3-0.4l1.1-1.4c1.6-1.8,3.3-3.5,5.2-5c0.8-0.6,0.7-2,0-2.6S79.3,149.2,78.5,149.9z"/>
	<path style="stroke:#000000;stroke-width:3;stroke-linecap:round;stroke-linejoin:round;stroke-miterlimit:10;" d="M36.4,193.2
		l0.1-0.6c0-0.4,0.1-0.8,0.2-1.2c0.2-0.8,0.3-1.5,0.5-2.2c1.5-5.8,4.3-11.1,5.9-16.8c1.7-5.7,2.2-11.2,2.4-16.8
		c0.2-5.6,0.2-11.2,0.6-16.8c0.1-1.4,0.2-2.7,0.4-4.1c0-0.1,0-0.3,0-0.4c0-0.2,0-0.2,0-0.2s0.1-0.7,0.2-1c0-0.3,0.2-1.4,0.4-2
		c0.5-2.6,1.3-5.2,2.3-7.8c0,0,0.1-0.1,0.1-0.2l0.2-0.5l0.5-0.9c0.4-0.9,0.3-2.1-0.7-2.6c-0.9-0.5-2.1-0.3-2.6,0.7
		c-2.6,5.2-3.8,10.8-4.4,16.6c-0.6,5.7-0.6,11.3-0.8,17c-0.1,2.8-0.2,5.6-0.5,8.5l-0.2,2c0,0.1,0,0.1,0,0.2c0,0.2-0.1,0.4-0.1,0.6
		c-0.1,0.3-0.1,0.7-0.2,1c-0.2,1.4-0.5,2.8-0.9,4.1c-1.5,5.8-4.3,11.2-6,16.9c-1.7,5.7-2.1,12.6-1.4,18.9c0.1,0.9,0.2,1.8,0.3,2.6
		c0.1,0.9,1.4,1.6,2.3,1.3c0.9-0.3,1.5-1.3,1.3-2.3c-0.1-0.4-0.1-0.8-0.2-1.1c0-0.1,0-0.1,0-0.2c0-0.2,0-0.4-0.1-0.6
		c-0.1-0.8-0.2-1.5-0.2-2.3c-0.3-3.1-0.2-6.2,0.2-9.3L36.4,193.2L36.4,193.2z"/>
	<path style="stroke:#000000;stroke-width:3;stroke-linecap:round;stroke-linejoin:round;stroke-miterlimit:10;" d="M210.3,196.1
		c-0.8-0.4-1.6-0.9-2.4-1.4l-1.1-0.7l-0.5-0.4l-0.2-0.2l-0.2-0.1c-1.4-1.1-2.7-2.4-3.9-3.8c-0.3-0.3-0.5-0.6-0.8-0.9l-0.3-0.3
		l-0.5-0.6c-0.5-0.7-1-1.4-1.5-2.2c-0.9-1.5-1.8-3.2-2.6-4.8c-1.6-3.3-3-6.6-4.6-9.8c-1.4-2.8-3-5.5-4.8-8c3-5.7,3-12.5,2.6-18.7
		c-0.3-3.8-0.8-7.6-0.6-11.4c0-0.9,0.1-1.8,0.2-2.7c0-0.2,0-0.3,0-0.5c0,0,0,0,0,0c0-0.1,0-0.2,0-0.3c0-0.4,0.1-0.8,0.2-1.2
		c0.3-1.6,0.7-3.2,1.1-4.7s1-3,1.6-4.6l0.5-1.1l0.2-0.4l0.2-0.5l1-2.3c1.4-3,2.9-5.9,4.4-8.9c3.1-6.2,5.9-12.6,7.5-19.4
		c1.7-7,2.4-14.2,2-21.4c0-0.9-0.1-1.8-0.2-2.7s-0.8-1.9-1.9-1.9s-2,0.9-1.9,1.9c0.3,3.5,0.4,7,0.2,10.6c-0.1,1.8-0.3,3.5-0.5,5.3
		c0,0.1,0,0.2,0,0.3l-0.1,0.6c0,0.5-0.1,0.9-0.2,1.4c-0.1,0.5-0.3,1.7-0.5,2.6c-0.8,3.5-1.7,6.9-2.9,10.2c-0.3,0.8-0.6,1.6-0.9,2.4
		l-0.2,0.5c0,0,0,0.1,0,0.1c0,0.1,0,0.2-0.1,0.2c-0.2,0.4-0.3,0.8-0.5,1.2c-0.6,1.5-1.4,2.9-2.1,4.4c-2.9,5.9-6.1,11.8-8.3,18
		c-1.1,3.1-1.9,6.4-2.3,9.7c-0.5,3.6-0.2,7.3,0.1,11c0.3,3.7,0.7,7.1,0.5,10.7c0,0.8-0.1,1.6-0.2,2.4c0,0.2,0,0.4-0.1,0.6
		c0,0.1,0,0.2,0,0.3c0,0.4-0.1,0.8-0.2,1.2s-0.4,1.6-0.6,2.4c-0.2,0.8-0.3,0.7-0.4,1.1l-0.2,0.5c-1.9-2-4.2-3.6-6.7-4.8
		c-0.9-0.4-2.1-0.3-2.6,0.7s-0.3,2.1,0.7,2.6c0.8,0.3,1.5,0.7,2.1,1.2l1,0.6l0.5,0.3c0.1,0.1,0.2,0.1,0.2,0.2h0l0.1,0.1
		c1.2,0.9,2.3,2,3.3,3.2c0.1,0.4,0.4,0.8,0.8,1l0.1,0.1l0.2,0.3l0.4,0.6c0.5,0.6,0.9,1.3,1.4,2c0.9,1.4,1.7,2.9,2.4,4.4
		c3.3,6.5,5.7,13.5,10.3,19.3c2.6,3.2,5.9,5.9,9.6,7.8c0.9,0.5,2,0.2,2.6-0.6C211.4,197.8,211.2,196.6,210.3,196.1z"/>
	<path style="stroke:#000000;stroke-width:3;stroke-linecap:round;stroke-linejoin:round;stroke-miterlimit:10;" d="M223.1,186.9
		l-0.2-0.4l-0.1-0.2l-0.6-1.5c-0.3-1.1-0.6-2.1-0.9-3.2l-0.1-0.8c0-0.1,0-0.2-0.1-0.3v-0.2c-0.1-0.6-0.2-1.2-0.2-1.8
		c-0.1-1.1,0-2.3,0-3.4l0.1-0.9v-0.2c0,0,0-0.2,0-0.3c0-0.1,0.2-1.2,0.3-1.8c0.1-0.6,0.5-2.3,0.8-3.4c0.6-2.4,1-4.8,1.3-7.2
		c0.9-8.6-2.6-16.7-5.2-24.6c-0.8-2.2-1.4-4.5-2-6.8l-0.3-1.7c0-0.3-0.1-0.5-0.2-0.8c0-0.2,0-0.3-0.1-0.5c0-0.1-0.1-0.5,0-0.1
		c-0.1-0.5-0.1-1.1-0.2-1.7c-0.1-0.5,0-1.2-0.1-1.8c0-1.1-0.8-1.9-1.9-1.9c-1,0-1.8,0.9-1.9,1.9c0.2,8.7,4,16.6,6.4,24.7
		c0.6,2,1.1,4,1.4,6.1c0,0.1,0,0.2,0,0.4c0,0,0,0.1,0,0.2c0,0.1,0,0.2,0,0.3c0,0.1,0,0.2,0,0.3c0,0.5,0.1,1.1,0.1,1.7
		c0.1,1,0.1,2,0,3c0,0.6-0.1,1.2-0.2,1.7v0.1c0,0.2,0,0.3-0.1,0.5c0,0.3-0.1,0.6-0.2,0.9c-0.2,1.2-0.5,2.4-0.7,3.5
		c-0.6,2.4-1.1,4.8-1.4,7.3c-0.6,5.3,0.3,10.8,2.8,15.6c0.4,0.9,1.7,1.2,2.6,0.7c0.9-0.5,1.2-1.7,0.7-2.6
		C223.4,187.4,223.2,187.2,223.1,186.9z"/>
</g>
</svg>
