<?xml version="1.0" encoding="utf-8"?>
<!-- Generator: Adobe Illustrator 27.9.0, SVG Export Plug-In . SVG Version: 6.00 Build 0)  -->
<svg version="1.1" id="Layer_1" xmlns="http://www.w3.org/2000/svg" xmlns:xlink="http://www.w3.org/1999/xlink" x="0px" y="0px"
	 viewBox="0 0 251.3 211.5" style="enable-background:new 0 0 251.3 211.5;" xml:space="preserve">
<g>
	<path style="stroke:#000000;stroke-width:3;stroke-linecap:round;stroke-linejoin:round;stroke-miterlimit:10;" d="M76.9,74.5
		l0.4-0.1h0.1c-0.1,0-0.1-0.1-0.1,0h0.1c0.2,0,0,0.1-0.1,0c0.8,0.8,2.2,0.3,2.5-0.7l0.5-1.5l0.3-0.6c0,0,0-0.1,0-0.1l0.2-0.4
		c0.4-1,1-1.8,1.6-2.7l0.1-0.1l0.2-0.3c0.2-0.2,0.3-0.4,0.6-0.6l0.6-0.5h0c0-0.1,0-0.1,0-0.1c0,0,0,0,0.1-0.1h0l0.3-0.2L85,66
		l0.3-0.2l0.1-0.1h0.1l0.2-0.1l0.2,0.6l0.4,1.1l0.8,2.3c0.2,0.8,1.1,1.3,1.9,1c0.2-0.1,0.5-0.2,0.6-0.4l0.6-0.6c0,0,0,0,0,0h0.1
		l0.4-0.3c0.5-0.3,1-0.6,1.5-0.9l1.5-0.8H94l0.4-0.2l0.9-0.3c0.6-0.2,1.1-0.3,1.7-0.5l0.8-0.2l0.5-0.1h0.2c1.2-0.2,2.4-0.2,3.6-0.1
		l1,0.1h0.2l0.5,0.1c0.7,0.1,1.4,0.3,2,0.5c0.8,0.2,1.7-0.2,1.9-1.1s-0.2-1.7-1.1-1.9c-5.2-1.5-10.8-1-15.6,1.5
		c-0.6,0.3-1.2,0.7-1.7,1c-0.3-0.8-0.6-1.6-0.9-2.3c-0.3-0.8-1.2-1.8-2.4-1.8s-1.6,0.3-2.3,0.6c-2.3,1.1-4,3.2-5.2,5.5
		c-0.4,0.8-0.8,1.6-1.1,2.5c-0.9,0-1.8,0.2-2.5,0.7c-1.3,0.8-2.3,2-3.2,3.1c-1.9,2.4-3.5,5-4.8,7.8c-0.7,1.6-1.3,3.2-1.8,4.9
		c-0.2,0.8,0.3,1.7,1.1,1.9c0.8,0.2,1.7-0.3,1.9-1.1c0.3-1.3,0.8-2.5,1.3-3.7c0,0,0-0.1,0-0.1l0.1-0.2l0.2-0.4l0.4-0.9
		c0.3-0.6,0.6-1.2,1-1.8c0.6-1.2,1.4-2.3,2.2-3.4l0.3-0.4l0.1-0.1c0,0,0.1-0.1,0.1-0.1l0.7-0.8c0.4-0.5,0.9-1,1.4-1.5l0.3-0.3
		l0.1-0.1l0.1-0.1l0.4-0.3L76.9,74.5L76.9,74.5C77.1,74.3,77,74.4,76.9,74.5z M85.6,65.4C85.5,65.3,85.5,65.3,85.6,65.4L85.6,65.4z"
		/>
	<path style="stroke:#000000;stroke-width:3;stroke-linecap:round;stroke-linejoin:round;stroke-miterlimit:10;" d="M185.7,79.7
		l0.2,0.2c0.2,0.3,0.5,0.7,0.6,1.1c0,0,0,0,0,0.1l0.1,0.2l0.2,0.6l0.1,0.5c0,0.1,0,0.2,0.1,0.2c0,0.1,0.1,0.7,0.1,1.1
		c0,0.9,0,1.7,0.1,2.6c0.1,1.2,0.2,2.4,0.6,3.6c0.3,0.8,1.2,1.2,2,0.9c0.7-0.3,1.1-1,1-1.7c-0.1-0.6-0.2-1.1-0.3-1.6
		c0-0.1,0-0.2,0-0.4c0-0.2-0.1-0.5-0.1-0.7c-0.1-0.8,0-1.6-0.1-2.5c0-1.8-0.4-3.6-1.4-5.2c-0.5-0.8-1.1-1.5-1.8-2.1
		c-0.5-0.4-1-0.7-1.5-1c-1.4-0.8-2.9-1.5-4.4-2.1c-0.6-0.2-1.3-0.5-1.9-0.6c-0.1-0.8-0.3-1.6-0.6-2.3c-0.6-1.1-1.4-2-2.5-2.5
		c-2.1-1.1-4.6-1.3-6.8-0.5c-0.6,0.2-1.1,0.5-1.6,0.8c-1.8-2.2-3.9-4.2-6.6-5.2c-2.6-1-5.5-1-8,0.1c-1.6,0.7-3,1.6-4.3,2.8
		c-0.6,0.6-0.6,1.6,0,2.2c0.6,0.6,1.6,0.6,2.2,0l0.8-0.7h0.1l0.1-0.1l0.5-0.3c0.5-0.3,1-0.6,1.6-0.9c0.2-0.1,0.3-0.1,0.4-0.2
		c-0.4,0.2,0,0,0.2,0c0.3-0.1,0.6-0.2,0.9-0.3l0.8-0.2h0.1l0.5-0.1h1.4l0.2,0.1c0.5,0.1,1,0.2,1.5,0.4c0.1,0.1,0.3,0.1,0.4,0.2
		l0.1,0.1l0.9,0.5l0.8,0.5l0.4,0.3h0l0.2,0.2c0.6,0.6,1.3,1.1,1.8,1.8c0.3,0.3,0.6,0.7,0.9,1.1h0l0.2,0.3l0.5,0.7c0.6,0.9,2,1,2.7,0
		c0.1-0.1,0.1-0.2,0.1-0.2l0.4-0.4l0.2-0.2c0.2-0.1,0.3-0.2,0.5-0.3h0.1l0.3-0.1l0.6-0.2l0.3-0.1h1.4l0.3,0.1l0.6,0.2l0.3,0.1h0.1
		l0.5,0.3l0.2,0.2l0.1,0.1l0.5,0.4l0.1,0.1l0.1,0.1l0.2,0.3c0,0.1,0,0.1,0,0.1c0.1,0.2,0.2,0.5,0.2,0.7v0.1c0,0.1,0,0.3,0,0.4v0.5
		c0,0.1,0,0.1,0,0.2v0.1c-0.1,0.6,0.1,1.4,0.7,1.7c0.5,0.2,1,0.3,1.5,0.1h0c0.6,0.1,1.2,0.3,1.8,0.5l0.4,0.2l0.2,0.1h0.1l1,0.5
		l1.9,1c0.5,0.3,0.9,0.6,1.4,0.9l0.1,0.1l0.5,0.6C185.6,79.5,185.7,79.6,185.7,79.7C185.8,79.8,185.6,79.6,185.7,79.7z"/>
	<path style="stroke:#000000;stroke-width:3;stroke-linecap:round;stroke-linejoin:round;stroke-miterlimit:10;" d="M234.7,139.9
		c-1.6-6.4-3.6-12.6-4.6-19.1c-0.5-3.5-0.7-7-0.4-10.5l0.3,0.1c0.6,0.2,1.2,0.5,1.8,0.6c1.1,0.2,2.2,0.2,3.2-0.4
		c1.4-0.9,1.6-2.6,1.3-4.1c-0.3-1.5-1.2-3.4-2.1-4.9c-1.2-2.1-2.6-4-4.2-5.9c-3.2-3.9-7-7.5-11.4-10l-1.5-0.8l-0.6-0.3
		c-0.3-0.1-0.7-0.2-1-0.4c-0.2-0.2-0.1-0.2,0.2-0.3c0.7-0.6,1.3-1.1,1.6-2c0.5-1.7-0.5-3.1-1.1-4.6c-0.6-1.5-1-2.9-1.6-4.3
		c-2.6-5.6-7.3-9.9-12.4-13.3l1.4-0.4c0.9-0.2,1.2-1.1,1.1-1.9c-1.6-9.2-8.7-15.8-16.6-20c-1.9-1-3.9-1.9-5.9-2.7
		c0.9-0.5,1.8-0.9,2.7-1.2c1-0.3,1.6-1.8,0.7-2.6c-8-6.6-18.5-8.6-28.7-7.8l1-2c0.3-0.7,0.2-1.7-0.6-2.1c-3.3-1.8-6.7-3.6-10.4-4.1
		s-6.7,0.2-9.8,1.6c-4.1-3.2-9.8-4.2-14.9-4.4c-5.9-0.3-12.2,0.5-17.8,2.5c-2.6,0.9-5.1,2.1-7.2,4c-0.5,0.5-0.6,1.3-0.2,1.9
		c0.3,0.7,0.6,1.4,1,2.1c-5-0.3-10,0.1-14.8,1c-5.1,1.1-10,3.1-13.9,6.7c-0.6,0.6-0.6,1.6,0,2.2c0.2,0.2,0.4,0.3,0.6,0.4
		c1,0.3,2,0.7,2.9,1.3c-5.1,2.6-9.6,6.4-13.7,10.3c-2.1,1.9-4,4-5.8,6.2c-1.2,1.5-2.6,3.1-3.2,4.9c-0.2,0.7-0.3,1.6,0.1,2.3
		c0.4,0.7,1.1,0.8,1.8,1l1.4,0.4c-4,3.5-8.3,6.8-11.8,10.9c-0.9,1-1.8,2-2.5,3.2c-0.5,1-0.9,2.1-1.2,3.1c-0.5,1.9-1.2,4.8,0.6,6.2
		c0.6,0.5,1.3,0.9,2,1.2l-1.2,1c-2.7,2.1-5.4,4.3-8,6.7c-2.8,2.5-5.5,5.1-8,7.9c-1.7,2-3.9,4.3-4.6,7c-0.3,1.2-0.1,2.5,0.9,3.3
		c1,0.9,2.1,0.9,3.2,0.7c0.4-0.1,0.8-0.2,1.2-0.3c-5.7,11.3-11.7,23.6-9.5,36.5c0.7,3.9,2.2,7.6,4.3,11c0.4,0.7,1.4,1,2.1,0.5
		c0.1-0.1,0.2-0.1,0.3-0.2l0.9-0.8c1.9,10.2,6.6,19.7,13.2,27.7c2.1,2.6,4.4,4.9,6.9,7.2c0.9,0.8,2.8,0.3,2.7-1.1c0-0.1,0-0.2,0-0.3
		c0,0,0,0,0,0v-0.1h0c0-0.1,0.1-0.2,0.2-0.2l0.1-0.1l0.3-0.3l0.6-0.4c1-0.7,2.2-1.2,3.4-1.5c0.5-0.1,1-0.2,1.5-0.1
		c0.3,0,0.6,0.1,0.7,0.3c0.9,0.8,1.1,2.5,1.4,3.6c0.5,2.3,1,4.6,2.6,6.5c0.9,1,2.1,1.7,3.5,1.2c1.3-0.5,2.1-1.7,2.7-2.9
		c0.7-1.6,1.3-3.3,1.7-5.1c1.1-4.5,1.8-9.1,2.5-13.7c0.6-3.9,1-7.8,1.7-11.7l0.6,0.1l0.9,0.1c-0.1,0-0.1,0,0,0h0c0.1,0,0.1,0,0.1,0
		h0.2c0.7,0.5,1.7,0.3,2.2-0.4c0.4-0.6,0.4-1.3-0.1-1.8c-0.7-0.7-1.5-0.9-2.5-1h-0.9c0,0,0,0,0-0.1c0-0.1,0-0.2,0-0.3l-0.2-1.4
		c-0.1-1-0.2-1.9-0.4-2.9l-0.4-2.6c0-0.1,0-0.2,0-0.2c0,0,0-0.2,0-0.3l-0.1-0.7c-0.1-0.6-0.1-1.1-0.2-1.6c-0.3-1.4-0.9-2.8-2.2-3.5
		c-0.7-0.4-1.6-0.5-2.4-0.4c0-0.5,0-1,0.1-1.6l0.1-0.9v-0.2l0.1-0.6c0.1-0.6,0.2-1.3,0.4-1.9c0.6-2.6,1.4-5,2.2-7.5
		c0.5-1.4,0.9-2.8,1.3-4.3c0.2-0.7-0.2-1.8-1.1-1.9c-1.3-0.2-2.6-0.2-3.9,0l-0.9,0.2v-0.1c0.1-0.3,0.1-0.6,0.2-0.9
		c0.2-1.1,0.6-2.2,1-3.3l0.2-0.7v0c0-0.1,0.1-0.2,0.1-0.2l0.2-0.5l0.8-1.5c0.6-1,1.2-1.9,1.9-2.9h0c0,0,0,0,0,0l0.1-0.2l0.3-0.3
		c0.2-0.2,0.4-0.4,0.6-0.7c0.2-0.2,0.8-0.9,1.2-1.3c0.9-0.9,1.8-1.7,2.7-2.4l0.3-0.2l0.2-0.1l0.7-0.6c0.5-0.3,1-0.7,1.5-1
		c1-0.7,2.1-1.3,3.2-1.9L77,111l0.5-0.2h0.1l0.2-0.1l1-0.4c1.3-0.5,2.6-0.9,3.9-1.3c1.3-0.3,1.5-2.1,0.4-2.8l-4-2.5l0.5-0.1l1-0.2
		l0.5-0.1h1.3l1.1-0.1c1.4-0.1,2.8-0.1,4.2-0.1l2.1,0.1l1,0.1l0.5,0.1h0.3c1.6,0.2,3.1,0.6,4.6,1c0.8,0.2,1.7-0.3,1.9-1.1
		c0.1-0.2,0.1-0.5,0-0.8c-0.4-1.6-0.8-3.2-1.1-4.8l-0.1-0.5c0-0.1,0-0.2,0-0.2v-0.1c0-0.3-0.1-0.6-0.1-0.9c0-0.3,0-0.7,0-1
		c0-0.1,0-0.2,0-0.3v-0.2c0-0.1,0-0.2,0.1-0.3c0-0.1,0.1-0.3,0.1-0.4l0.1-0.2l0.1-0.1c0.1-0.1,0.2-0.1,0.1-0.1l0.1-0.2
		c-0.1,0-0.1,0,0-0.1h0.1l0.1-0.1l0.4-0.2l0.2-0.1c0.2,0,0.3-0.2,0.5-0.2c0.3-0.1,0.7-0.2,1.1-0.3l0.3-0.1c0,0,0,0,0.1,0l0.4-0.1
		c0.8-0.1,1.5-0.1,2.3,0l0.6,0.1h0.1l0.3,0.1l1.2,0.2l1.2,0.3l0.2,0.1h0.1l0.5,0.2c0.7,0.4,1.7,0.2,2.1-0.6c0.3-0.5,0.3-1.1,0-1.6
		c-1.1-1.5-2.1-3.2-2.8-5c-0.3-0.7-1.5-1-2.1-0.6c-0.7,0.5-1,1.4-0.6,2.1c0.2,0.6,0.5,1.1,0.8,1.6l-0.9-0.1
		c-1.7-0.2-3.5-0.1-5.2,0.3c-1.6,0.4-3.3,1.3-4.1,2.9c-0.7,1.6-0.7,3.5-0.4,5.3c0.2,1.1,0.4,2.2,0.6,3.3c-4.9-1-10-1-14.9-0.2
		c-1.6,0.3-3.1,0.6-4.7,1.1c-0.8,0.2-1.3,1.1-1,2c0.1,0.4,0.3,0.7,0.7,0.9l4.2,2.6c-3.8,1.3-7.3,3.2-10.5,5.6
		c-4.1,3.1-7.5,7.1-9.5,11.9c-1.1,2.6-1.7,5.3-1.7,8.1c0,1.2,1.3,1.8,2.3,1.3l0.1-0.1l0.2-0.1l0.7-0.2c0.5-0.1,0.9-0.2,1.4-0.3h0.9
		c-1.3,4.6-3.2,9.1-3.6,13.9c-0.2,1.7-0.1,3.3,0.3,5c0.2,0.7,0.8,1.1,1.5,1.1c0.6,0,1.3-0.4,1.5-1.1h0.6c-0.1-0.1-0.1-0.1,0,0H63
		l0.1,0.1c0,0,0,0.1,0.1,0.1s0,0.1,0,0.1c0.1,0,0.1,0.1,0.1,0.2c0,0,0,0.1,0.1,0.1l0.1,0.3c0,0.1,0.3,0.7,0.2,0.8c0,0.1,0,0.2,0,0.3
		c0,0.2,0,0.5,0.1,0.7c0.2,1.7,0.5,3.5,0.7,5.1c0.1,0.4,0.1,0.8,0.2,1.1v0.3l0.1,0.7c0.1,0.4,0.1,0.7,0.1,1.1s0,0.2-0.1,0.2
		c-1.6,8.5-2.2,17.3-4.2,25.8c-0.4,1.8-0.9,3.6-1.6,5.3c0,0.1,0,0.1,0,0.1s0,0.1-0.1,0.1c-0.1,0.1-0.2,0.3-0.2,0.4
		c-0.2,0.3-0.3,0.6-0.5,0.9c0,0,0,0,0,0.1l0,0c-0.1,0.1-0.1,0.1-0.1,0.1l-0.1,0.2h0c-0.1-0.1-0.1-0.2-0.2-0.2l-0.1-0.2
		c-0.1-0.2-0.2-0.3-0.3-0.5c-1.4-2.2-1.3-4.9-2.2-7.3c-0.6-1.5-1.6-3-3.2-3.5s-3.1-0.2-4.5,0.3c-1.4,0.5-3.7,1.5-5,3
		c-7.4-7.1-13.1-15.9-16.1-25.7c-0.9-2.9-1.5-5.9-2-8.9c-0.2-1.2-1.8-1.4-2.6-0.7l-1.5,1.5c-2.7-5-3.8-10.8-3.2-16.4
		c0.6-6.4,2.9-12.5,5.5-18.2c1.6-3.5,3.3-6.9,5.1-10.3c0.2-0.5,0.3-1.1,0-1.5c-0.8-1.2-2-1.4-3.3-1.1c-1.3,0.3-2,0.8-2.8,0.8h0
		c0-0.1,0-0.2,0-0.2c0,0.1,0,0.1,0,0.2c0-0.1,0-0.2,0.1-0.4l0.1-0.3c0,0,0,0,0-0.1c0.2-0.5,0.5-1,0.8-1.4l1.1-1.6l0.2-0.2l0.3-0.4
		l0.8-0.9c4.5-5.2,9.8-9.8,15.3-14.1l0.5-0.4c0,0,0,0,0-0.1l0.1-0.1l0.8-0.6l1.4-1l0.8-0.5H44c1-0.3,1.3-1.4,0.9-2.3
		c-0.4-0.9-1-0.8-1.5-1.1L41,81l-0.6-0.4l-0.1-0.2c0-0.1,0-0.2,0-0.3c0-0.3,0-0.5,0-0.8c0.1-0.5,0.2-1,0.3-1.4c0.2-1,0.5-1.8,1-2.7
		c0.5-1,1.3-1.9,2-2.7c1.9-2.1,4-4.1,6.1-5.9c2.6-2.2,5.2-4.3,7.6-6.7c0.6-0.6,0.6-1.6,0-2.2c-0.2-0.2-0.4-0.3-0.6-0.4l-3.1-0.9
		l-0.6-0.1c0.8-1.4,1.7-2.6,2.7-3.8c3.6-4.3,7.7-8.1,12.2-11.4c2.6-2,5.4-3.8,8.4-5.2c1-0.4,0.9-1.8,0.3-2.4c-1-1-2.2-1.9-3.4-2.6
		c3.2-2.3,7-3.6,10.9-4.4c5.3-1.1,10.9-1.1,16.2-0.7c1.3,0.1,1.8-1.4,1.3-2.3l-1.6-3.4l0.1-0.1c0.4-0.3,0.9-0.6,1.4-0.9
		c1-0.5,1.9-1,2.9-1.4c2.6-1,5.2-1.6,7.9-2c5.4-0.9,11.2-1,16.6,0.3c2.5,0.6,5,1.6,6.8,3.3c0.3,0.3,0.7,0.4,1.1,0.4
		c0.2,0,0.5-0.1,0.7-0.2c2.8-1.3,5.9-2.2,9-1.7c3.1,0.6,5.4,1.7,7.9,3.1l-1.5,3.1c-0.5,0.9,0.1,2.5,1.3,2.3c9.2-1.1,19.2-0.2,27,5.1
		c-1.2,0.6-2.3,1.5-3.3,2.5c-0.8,0.9-0.4,2.2,0.7,2.6c8.1,3,16.7,7.6,20.9,15.5c0.8,1.5,1.4,3.1,1.7,4.7l-3.3,1
		c-0.8,0.2-1.3,1.1-1,1.9c0.1,0.4,0.3,0.7,0.7,0.9c4.2,2.4,8.1,5.3,11.2,9c1.3,1.7,2.5,3.5,3.3,5.5c0.4,1,0.7,1.9,1,2.9
		s1.1,1.9,1.3,2.9c0,0.4-0.2,0.4-0.6,0.8c-0.5,0.4-0.9,0.9-1.1,1.4c-0.4,1.2-0.1,2.5,0.7,3.4c0.7,0.7,1.7,0.9,2.4,1.3
		c0.7,0.3,1.4,0.7,2.1,1.1c3.1,1.9,5.8,4.4,8.3,7c2.5,2.6,4.4,5.1,6,8.1c0.6,1.1,1,1.8,1.2,3.1c0,0.1,0.1,0.2,0.1,0.3v0.1
		c0,0.2-0.1,0.7,0,0.3c0,0.1,0,0.2-0.1,0.3h0c-0.2,0-0.3,0.1-0.4,0c-0.9-0.1-1.8-0.6-2.6-0.8c-0.9-0.2-2.1-0.2-2.9,0.6
		c-0.8,0.8-0.7,2.7-0.8,3.9c-0.2,5.1,0.5,10.2,1.7,15.2c1.1,5,2.5,9.3,3.7,14s1.9,8.7,1.7,13.1v0.1l-0.7-0.7
		c-0.7-0.7-2.4-0.5-2.6,0.7c-1.5,10.8-6.1,21-13.1,29.3c-1.6,1.9-3.3,3.7-5.1,5.4c-1-1.1-2.7-1.7-4.3-1.7c-3.5,0-5.6,2.4-7.5,5
		c-0.8,1.1-1.7,2.4-3,3c-1,0.5-2.1,0.6-3.1,0.4c-0.3-0.1-0.5-0.2-0.7-0.4c-0.3-0.4-0.1-1.2,0.1-1.8c0.5-1.8,0.6-3.5-0.2-5.2
		c-1-2.2-3.4-3.5-5.7-3.4c1.5-6,0.9-12.5,2.8-18.5c0.6-0.7,0.8-1.8,0.8-2.7c0.1-0.9,0.2-2.4,0.3-3.6c0.1-0.3,0.1-0.6,0.1-1l0.1-0.3
		c0-0.1,0-0.2,0-0.2c0.1-0.6,0.2-1.3,0.3-1.9c0.1-0.6,0.3-1.4,0.5-2l0.1-0.4l0.2-0.2c0,0,0,0,0,0h0.1l0.3-0.2h0.4
		c0.1,0.2,0.2,0.4,0.4,0.6c0.3,0.4,0.8,0.5,1.3,0.4c0.5-0.1,0.9-0.3,1.1-0.7c0.2-0.3,0.4-0.6,0.5-0.9c2.4-4.9,2.5-10.6,0.6-15.7
		c-0.2-0.6-0.5-1.2-0.7-1.8c0.8,0.3,1.7-0.1,2-0.9c0.1-0.3,0.1-0.6,0.1-0.9c-1-4.8-3.8-9-7.4-12.2c-3.6-3.2-8.4-6-13.1-7.9
		c-1.6-0.6-3.2-1.2-4.8-1.7c-0.1-0.2-0.3-0.4-0.5-0.5c0.3-0.2,0.6-0.3,0.8-0.5l0.3-0.1l0.1-0.1l0.7-0.2c1.9-0.6,3.9-0.9,5.8-1.2
		c0.6-0.1,1-0.7,1.1-1.3c0.1-0.6-0.2-1.2-0.7-1.5c-5-3.6-11.1-6.4-17.4-5.3c-0.9,0.1-1.7,0.3-2.5,0.6c0.2-2.4,0-4.9-1.1-7.2
		c-0.3-0.7-0.9-1.4-1.5-1.9c-0.7-0.5-1.4-0.9-2.2-1.2c-1.4-0.5-2.8-0.7-4.3-0.7c-0.7,0-1.5,0.1-2.2,0.2c0-0.2-0.1-0.4-0.2-0.6
		c-0.5-0.9-1.4-1.5-2.4-1.8c-1.8-0.6-4.4-0.3-6,0.8c-0.6,0.5-1,1.4-0.6,2.1c0.5,0.8,1.4,1,2.1,0.6l0.5-0.3l0.2-0.1
		c0.3-0.1,0.7-0.2,1-0.3h1.3l0.3,0.1l0.4,0.1l0.2,0.1c0,0,0,0.1,0.1,0.1l0,0h0.1c0-0.1-0.1-0.1,0,0h0c0,0,0,0,0,0.1v0.1
		c0,0.1,0,0.1,0,0.2h0c0,0.2-0.1,0.2,0,0.1s-0.1,0.2-0.1,0.2c-0.3,0.6-0.2,1.4,0.2,1.9c0.5,0.5,1.3,0.6,1.9,0.2l0.3-0.2h0.1
		c0.3-0.1,0.6-0.2,0.8-0.3l0.8-0.2h0.7c0.6,0,1.3,0,1.9,0h0.1l0.4,0.1l0.9,0.2l0.4,0.2h0.1c0,0,0,0,0,0l0.8,0.4l0.2,0.1
		c0,0,0,0,0,0.1l0.2,0.1c0.1,0.1,0.1,0.1,0.2,0.2l0.3,0.5c0.1,0.2,0.2,0.3,0.2,0.5l0.2,0.4c0.1,0.3,0.2,0.6,0.3,0.9
		c0.1,0.3,0.2,0.7,0.2,1.1c0,0.1,0,0.1,0,0.2c0,0.2,0,0.4,0.1,0.6c0,0.8,0,1.6-0.1,2.4c0,0.2,0,0.4,0,0.5s0,0,0,0.1
		c0,0.1,0,0.2,0,0.3c-0.1,0.4-0.1,0.8-0.2,1.2c-0.2,0.8,0.2,1.7,1.1,1.9c0.4,0.1,0.8,0.1,1.2-0.2l1-0.5l0.3-0.1h0.1l0.2-0.1l0.4-0.2
		c0.7-0.2,1.4-0.4,2.1-0.6l0.5-0.1h0.2l1.1-0.1c0.7,0,1.4,0,2.1,0.1h0.7l1,0.2c0.7,0.2,1.4,0.3,2,0.6l1,0.4l0.6,0.2l0.3,0.1
		c0.6,0.3,1.3,0.6,1.9,0.9l0.8,0.4c-3.1,0.7-6.2,1.8-7.9,4.7c-0.1,0.1-0.1,0.2-0.2,0.3c-0.2,0.4-0.1,0.9,0.2,1.2
		c0.2,0.3,0.4,0.5,0.7,0.6h0.2l0.8,0.2c2.1,0.6,4.2,1.2,6.3,2l1.7,0.7c0,0,0,0,0,0h0.1l0.4,0.2l0.9,0.4c1.1,0.5,2.2,1,3.3,1.7
		c1.1,0.6,2.1,1.2,3.1,1.9l1.4,1l0.1,0.1l0.3,0.3l0.7,0.6c0.9,0.7,1.7,1.5,2.5,2.4l1.1,1.3c0,0,0.1,0.1,0.1,0.1
		c0.1,0.1,0.2,0.2,0.2,0.3c0.2,0.2,0.3,0.5,0.5,0.7c0.7,1,1.3,2.2,1.8,3.3l0.1,0.2l0.2,0.4l0.1,0.3c-0.5,0-1,0-1.5,0.1
		c-1,0.2-1.4,1.5-0.9,2.3c0.4,0.6,0.7,1.1,1,1.7c0.1,0.3,0.2,0.6,0.4,0.8l0.1,0.2l0.1,0.2c0,0,0,0,0,0.1l0.1,0.3
		c0.5,1.2,0.8,2.5,1.1,3.7c0.1,0.3,0.1,0.6,0.2,0.9c0,0.1,0,0.2,0,0.2c0,0.2,0,0.3,0.1,0.5c0.1,0.6,0.1,1.3,0.1,1.9
		c0,0.6-0.1,1.3-0.1,1.9c0,0.1,0,0.1,0,0.2s0,0.3-0.1,0.4s-0.2,0.6-0.2,1c-0.2,0.7-0.4,1.4-0.7,2.1c0,0,0,0.1,0,0.1
		c-0.3-0.1-0.5-0.1-0.8-0.1c-1.5-0.1-2.9,0.6-3.8,1.9c-0.4,0.6-0.5,1.4-0.7,2s-0.3,1.4-0.4,2.2c-0.2,1.5-0.4,3-0.6,4.6
		c-0.1,0.8-0.2,1.6-0.2,2.3v0.1l-0.2,0.3l-0.1,0.2h-0.2l-0.4,0.1c-0.6,0-1.3,0.2-1.8,0.3c-0.7,0.2-1.4,0.7-1.8,1.4
		c-0.4,0.6-0.6,1.5-0.7,2.3c-0.3,1.5-0.6,3-1.1,4.4c-0.1,0.4-0.2,0.7-0.4,1.1c0,0.2-0.1,0.3-0.2,0.4c0,0.1,0,0.1-0.1,0.2l-0.1,0.1
		c-0.3,0.7-0.7,1.5-1.2,2.2c-0.4,0.7-0.2,1.7,0.6,2.1c0.7,0.4,1.7,0.2,2.1-0.6c1.4-2,2.2-4.4,2.7-6.8c0.2-1.1,0.5-2.3,0.7-3.4
		c0-0.2,0.1-0.3,0.1-0.4v-0.1l0.1-0.1h0l0.6-0.2c-1.5,6.5-0.8,13.3-3.2,19.6c-0.6,1.5,1.5,2.5,2.6,1.5c1-1,2-0.8,3-0.4
		c0.9,0.4,1.6,1.5,1.7,2.6c0.1,1.6-0.9,3.1-0.6,4.8c0.2,1.2,1,2.3,2.2,2.8c2.2,1,5.1,0.6,7.1-0.7c2.4-1.7,3.5-4.7,5.8-6.4
		c0.9-0.6,2-0.9,3.1-0.7c0.5,0,1,0.2,1.3,0.5c0.2,0.1,0.2,0.3,0.2,0.3c-0.2,1.5,1.3,2.6,2.6,1.5c8.6-7.6,15.1-17.4,18.6-28.4
		c0.7-2.1,1.2-4.3,1.6-6.4l0.8,0.8c0.8,0.8,2.4,0.5,2.6-0.7C237.2,151.9,236.2,145.8,234.7,139.9z M67.7,163L67.7,163
		C67.6,163,67.5,162.9,67.7,163z M62.1,152.3C62.1,152.3,62.1,152.3,62.1,152.3C62.1,152.4,62.1,152.4,62.1,152.3z M62.2,152.2
		c0-0.1,0-0.1,0-0.2C62.3,152.1,62.3,152.1,62.2,152.2z M25.5,109.7L25.5,109.7C25.4,109.7,25.5,109.7,25.5,109.7z M21.5,107.5
		C21.4,107.5,21.5,107.5,21.5,107.5L21.5,107.5z M42.5,85.1C42.9,85.3,42.7,85.4,42.5,85.1L42.5,85.1z M145.9,91.1h0.2
		C146.1,91.2,145.9,91.1,145.9,91.1z"/>
</g>
</svg>
