<?xml version="1.0" encoding="utf-8"?>
<!-- Generator: Adobe Illustrator 27.9.0, SVG Export Plug-In . SVG Version: 6.00 Build 0)  -->
<svg version="1.1" id="Layer_1" xmlns="http://www.w3.org/2000/svg" xmlns:xlink="http://www.w3.org/1999/xlink" x="0px" y="0px"
	 viewBox="0 0 239.2 205.2" style="enable-background:new 0 0 239.2 205.2;" xml:space="preserve">
<g>
	<path style="stroke:#000000;stroke-width:3;stroke-linecap:round;stroke-linejoin:round;stroke-miterlimit:10;" d="M65.1,110.4
		c0.7-1,1.2-2.1,1.5-3.2l1.3-3.9c0.8-2.7,1.7-5.4,2.5-8.1c0.9-2.7,1.7-5.4,1.8-8.3s-0.5-5.4-1.5-7.9s-2.1-5.1-3.2-7.6
		c-2.3-4.9-4.8-9.6-7.5-14.2c-0.3-0.6-0.7-1.1-1-1.7c-0.5-0.8-1.4-1-2.2-0.6c-0.7,0.5-1.1,1.4-0.6,2.2c2.8,4.5,5.3,9.2,7.6,13.9
		c0.6,1.2,1.2,2.4,1.7,3.6l0.8,1.8l0.3,0.8c0,0.1,0.1,0.2,0.1,0.2c0.1,0.2,0.2,0.4,0.2,0.5c0.5,1.2,1,2.4,1.4,3.7
		c0.2,0.6,0.4,1.2,0.5,1.9c0.1,0.3,0.1,0.6,0.2,0.9c0,0.1,0,0.1,0,0.2c0,0.2,0,0.4,0,0.5c0.1,0.7,0.1,1.4,0,2.1c0,0.2,0,0.3,0,0.5
		c0,0.2,0,0.2,0,0.2v0.2c0,0.1,0,0.2,0,0.2l-0.1,0.6c-0.3,1.3-0.6,2.6-1,3.9l-2.5,8l-1.3,4l-0.5,1.8l-0.3,0.7v0.1l-0.2,0.4l-0.4,0.6
		c0,0,0,0,0,0.1l-0.1,0.1l-0.2,0.2l-0.3,0.2l-0.2,0.1l-0.3,0.2h-0.2c-1.1,0.4-2.3,0.7-3.4,1.3c-3.7,2-5.2,6.2-5.9,10
		c-0.1,0.5-0.2,0.9-0.3,1.4c-0.1,0.5,0.2,1.8,1.1,2c0.9,0.2,1.8-0.3,2-1.1c0.3-1.9,0.7-3.7,1.4-5.5h0l0.1-0.3
		c0.1-0.2,0.2-0.5,0.4-0.6c0.1-0.2,0.5-0.8,0.7-1.2h0l0.2-0.2c0.2-0.2,0.3-0.4,0.5-0.5l0.5-0.5h0l0.4-0.3l0.5-0.3l0.4-0.2
		c0,0,0,0,0.1-0.1c0.3-0.1,0.5-0.2,0.8-0.3l0.8-0.3C63.1,112.2,64.2,111.5,65.1,110.4z"/>
	<path style="stroke:#000000;stroke-width:3;stroke-linecap:round;stroke-linejoin:round;stroke-miterlimit:10;" d="M70.8,120.5
		c-3,3.7-5.3,7.9-6.8,12.4c-0.2,0.9,0.3,1.7,1.1,2c0.9,0.2,1.7-0.3,2-1.1c0.2-0.5,0.3-1.1,0.5-1.6l0.3-0.7l0.2-0.4c0,0,0-0.1,0-0.1
		c0.4-1,0.9-2,1.4-3c0.5-1,1.1-1.9,1.7-2.8l0.9-1.4l0.5-0.7v-0.1h0c0.1-0.2,0.2-0.3,0.3-0.4c0.5-0.6,0.7-1.6,0-2.3
		C72.4,119.9,71.3,119.8,70.8,120.5z"/>
	<path style="stroke:#000000;stroke-width:3;stroke-linecap:round;stroke-linejoin:round;stroke-miterlimit:10;" d="M221.2,103.4
		c-0.4-1.8-1.2-3.5-2.1-5.2c-0.8-1.6-1.6-3.2-1.7-5c-0.1-1.8,0.3-3.6,0.6-5.3c0.4-1.9,0.5-3.8,0.4-5.7c-0.5-8.3-3.1-16.4-5.2-24.3
		c-2.1-8-4.1-16.2-6.5-24.2c-1-3.7-2.3-7.3-3.8-10.8c-0.8-1.8-1.6-3.5-2.5-5.2c-0.9-1.7-1.7-3.3-3.2-4.2c-4-2.3-7,3-8.9,5.6
		c-2.4,3.2-4.7,6.6-6.9,9.9c-2.2,3.4-4,6.5-6.6,9.3c-2.6,2.8-5.3,5.3-7.8,8c-4.8,5.3-8.2,11.6-10.8,18.2c-1.3,3.2-2.3,6.5-3.3,9.8
		l-1.4,5c-0.4,1.4-0.6,2.8-1.3,4.1c-0.7,1.3-1.1,2-2.1,1.8c-1-0.2-1.8,0.2-2,1.1c-0.7,3.3-2.3,8.3-6.4,8.5
		c-6.6,0.3-13.3-0.2-19.9-0.1c-5.6,0.1-11.1,1.2-16.7,2l-2.4,0.4l-1.2,0.2h-0.8c-1,0.1-1.9,0.3-2.9,0.3c-0.2-0.1-0.4-0.1-0.5-0.1
		c-4.1-0.2-5.7-5.2-6.4-8.5c-0.2-0.9-1.2-1.3-2-1.1c-0.8,0.2-1.7-1-2.1-1.8c-0.5-0.9-0.9-2.8-1.3-4.2c-1.1-3.5-2.4-6.9-4-10.2
		c-3.2-6.7-7.2-12.9-12-18.5c-4.9-5.7-11.2-10.4-14.8-17.2c-1.6-3.1-2.8-6.5-4.1-9.7c-0.7-1.7-1.5-3.3-2.3-5
		c-0.8-1.5-1.8-3.2-3.2-4.3c-1.4-1.2-3.4-1.9-5.2-0.9s-2.5,2.9-3.3,4.4c-1.9,3.4-3.4,7.1-4.7,10.8c-2.6,7.7-4.5,15.8-6.6,23.7
		L20,67.7c-1.1,4.1-2.2,8.1-2.8,12.3c-0.4,2.1-0.6,4.2-0.6,6.3c-0.1,2,0,4,0,5.9c0,2-0.3,3.9-0.9,5.7c-0.7,1.8-1.7,3.4-2.4,5.1
		c-1.3,2.9-1.5,6.1-0.6,9.2c0.8,2.9,2.3,5.6,3.8,8.3c1.5,2.6,3.1,5.2,4,8c0.5,1.4,0.7,2.9,0.8,4.3c0.2,1.9,0.5,3.9,2,5.2
		c0.5,0.5,1.2,0.9,1.9,1.2c-0.2,0.5-0.2,1-0.3,1.5c0,0.8,0,1.5,0.5,2.1s1,1.2,1.5,1.9c1.7,2.2,3.3,4.5,4.7,6.9
		c1.5,2.4,2.8,5,3.9,7.6c0.3,0.6,0.5,1.2,0.7,1.8c0.2,0.6,0.5,1.3,0.4,1.9c-0.2,0.6-1.8,1.9-2.6,2.5l-8.3,7c-0.6,0.6-0.6,1.6,0,2.3
		c1.2,1,0.3,2.8-0.4,3.9c-1.2,2.3-2.5,4.6-3.7,6.8c-0.9,1.7-1.7,3.3-1.8,5.3c-0.1,1.9,0.7,3.7,2.4,4.4c0.8,0.3,1.7,0.2,2.2-0.6
		c0.5-0.8,0.2-1.9-0.6-2.2c-0.8-0.4-0.8-0.4-0.9-1.1c0-0.6,0.1-1.3,0.3-1.9c0.6-2,1.9-3.9,3-5.7c1.4-2.6,4.4-6.9,2.8-10l5.8-4.8
		c2-1.6,5-3.4,5-6.3c0-1.4-0.5-2.6-1.1-3.8c-0.2-0.4-0.3-0.7-0.5-1.1c0.3,0.2,0.6,0.3,0.9,0.3c0.9,0,1.6-0.7,1.6-1.6
		c0-0.1,0-0.3,0-0.4c0.1-0.3,0.1-0.5,0.2-0.8c0.1-0.5,0.3-1,0.4-1.5c0.1-0.2,0.2-0.5,0.3-0.7c0,0,0-0.1,0-0.1c0,0,0,0,0-0.1
		c0-0.1,0.1-0.2,0.1-0.3s0.5-1,0.7-1.4c1-1.9,2.1-3.7,3.2-5.5c2.2-3.6,4.6-7.1,7.1-10.6l1.1-1.4c0.2-0.2,0.3-0.5,0.5-0.6l0.2-0.2
		c0.1-0.1,0.2-0.2,0.3-0.4l2.3-2.9c0.5-0.7,0.7-1.7,0-2.3s-1.7-0.7-2.3,0c-5.6,6.8-10.8,14.1-14.9,21.9c-1.2,2.3-2.2,4.6-2.4,7.1
		l-0.6-1.2c-2.4-5-5.5-9.7-9-14c0-0.9,0.3-1.8,0.9-2.5c0.9-1.2-0.5-2.7-1.8-2.3c-1.3,0.4-2.3-0.9-2.5-2c-0.3-1.1-0.3-3.3-0.7-5
		c-0.6-2.9-2.1-5.6-3.5-8.2c-2.5-4.5-6.4-9.8-4.9-15.2c0.5-1.7,1.4-3.2,2.2-4.8c0.8-1.7,1.4-3.6,1.7-5.5c0.5-3.8,0.1-7.7,0.4-11.5
		s1.3-8,2.3-11.9c1-3.9,2.1-8.1,3.2-12.1c2.1-7.8,4-15.7,6.3-23.5c1-3.6,2.3-7,3.7-10.4c0.8-1.7,1.7-3.4,2.7-5
		c0.3-0.5,0.7-1.5,1.3-1.9c0.6-0.3,1,0,1.4,0.4c1.3,1,2.1,2.6,2.8,4c0.8,1.4,1.5,2.9,2.1,4.5c1.3,3.2,2.5,6.6,4.1,9.7
		c3.5,6.6,9.5,11.3,14.3,16.8C68.9,59.8,72.9,65.7,76,72c1.5,3.1,2.9,6.3,4,9.6c0.9,2.8,1.3,6.2,3.6,8.3c0.7,0.6,1.6,1.1,2.5,1.3
		c1.2,4.2,3.5,8.6,7.9,9.5c0.3,0.2,0.6,0.4,1,0.4c2.6-0.1,5.1-0.5,7.7-0.9l9-1.4l1-0.1l0.5-0.1h0.3l1.8-0.2c1.2-0.1,2.3-0.2,3.4-0.2
		c3.3-0.1,6.7,0,10.1,0.1c3.3,0.1,7.3,0.2,11,0c5.3-0.3,8-5.1,9.3-9.7c2.3-0.4,3.9-2.6,4.7-4.9c0.5-1.4,0.8-3,1.2-4.4
		s0.9-3.2,1.4-4.9c1.9-6.4,4.2-12.7,7.7-18.5c1.7-2.9,3.7-5.6,6-8c2.6-2.7,5.3-5.2,7.7-8c2.4-2.8,4.3-6,6.3-9.1
		c2-3.1,4.4-6.5,6.7-9.6l1.6-2.2c0.5-0.7,1.1-1.5,1.8-2.1c0.7-0.5,0.9-0.6,1.4-0.4c0.5,0.3,1,1.3,1.4,1.9c1.9,3.1,3.4,6.5,4.6,9.9
		c2.6,7.2,4.3,14.8,6.3,22.2c1.1,4.1,2.2,8.1,3.2,12.2c1.1,4.1,2.2,7.8,3,11.7c0.8,4,1.5,7.6,1.1,11.4c-0.5,3.8-1.6,7-0.5,10.5
		c1.2,3.5,3.4,5.9,3.6,9.4c0.1,2.9-0.8,5.6-1.9,8.2c-1.1,2.6-2.7,5.5-3.9,8.4c-0.6,1.4-1.1,2.9-1.4,4.4c-0.4,1.6-0.3,3.4-0.6,5
		c-0.3,1.1-1.2,2.4-2.5,2c-1.3-0.4-2.7,1.2-1.8,2.3c0.5,0.7,0.9,1.6,0.9,2.5c-1.6,2-2.8,4.3-3.6,6.8c-0.8,2.4-1.4,5-2.1,7.5
		c-0.4,1.4-0.8,2.7-1.3,4c-0.5,1.4-0.9,3-0.2,4.5c0.7,1.5,1.8,1.9,2.7,2.9c0.6,0.8,1,1.6,1.2,2.6c0.6,2,1,4.1,2.2,5.9
		c-0.5,0.5-0.9,1.2-1.1,1.9c-0.4,1.3,0,2.5,0.6,3.7c1.4,2.7,3.1,5.1,4.4,7.8c0,0,0,0,0,0.1c0.1,0.2,0.1,0.4,0.2,0.6
		c0,0.3,0,0.6,0,0.9c0,0.9-0.1,1.7-0.3,2.5c-0.2,0.9-0.5,1.7-0.9,2.5c-0.4,0.7-0.5,1-1.2,1.2s-1,1.5-0.6,2.2
		c0.4,0.7,1.4,0.9,2.2,0.6c1.7-0.7,2.6-2.8,3.2-4.4c0.6-1.9,0.9-4,0.6-6c-0.2-0.9-0.5-1.8-1-2.7l-2.3-4.1l-1.2-2
		c-0.3-0.5-0.7-1.1-0.8-1.7s0.7-1.4,1.4-1.9c0.6-0.5,0.6-1.7,0-2.3c-1.8-1.5-2-3.9-2.6-6c-0.4-1.2-1-2.4-1.7-3.4
		c-0.6-0.8-2.1-1.4-2.3-2.5c-0.3-1,0.2-1.4,0.5-2l0.8-2.2c0.4-1.4,0.8-2.7,1.1-4.1c0.6-2.5,1.3-5.1,2.4-7.5c0.4-0.7,0.8-1.4,1.2-2.1
		c0.5-0.7,1.3-1.5,1.5-2.3c0.2-1,0.2-2-0.1-2.9c0.7-0.3,1.4-0.7,2-1.3c1.4-1.4,1.7-3.2,1.9-5.1c0.3-3.2,1.2-6.1,2.6-9
		C219,115.5,222.5,109.8,221.2,103.4z"/>
	<path style="stroke:#000000;stroke-width:3;stroke-linecap:round;stroke-linejoin:round;stroke-miterlimit:10;" d="M179.9,118.6
		c0.1,0.5,0.2,1,0.3,1.4c0.1,0.5,1.2,1.4,2,1.1c0.8-0.2,1.3-1.1,1.1-2c-0.7-4.2-2-8.8-5.8-11.2c-1.1-0.7-2.3-1-3.5-1.4l-0.3-0.1
		c-0.1,0-0.2-0.1-0.3-0.1l-0.4-0.2l0,0l0,0l0,0c0,0,0,0,0,0c-0.1-0.1-0.1-0.1-0.1,0c0,0,0,0,0,0l-0.1-0.1l0,0c0,0-0.1-0.2-0.2-0.3
		c-0.1-0.2-0.3-0.5-0.4-0.7l-0.1-0.2l-0.1-0.3c-0.1-0.4-0.3-0.7-0.5-1c-0.3-0.5-0.6-1.1-1-1.5c-0.8-1.2-1.7-2.4-2.4-3.6
		c-0.4-0.6-0.7-1.2-1-1.8l-0.4-0.9v-0.1c0,0,0,0,0-0.1l-0.2-0.5c-0.2-0.6-0.4-1.2-0.5-1.9c0-0.1,0-0.3,0-0.3c0,0,0-0.2,0-0.3
		c0-0.3,0-0.7,0-1c0.1-3-0.2-5.9,0-8.9c0.1-1.4,0-2.7,0-4.1c0-0.3,0-0.6,0-1c0-0.1,0-0.3,0-0.4c0,0,0-0.1,0-0.1v-0.1
		c0.1-0.7,0.4-1.4,0.6-2c0.9-2.3,1.7-4.7,2.4-7c0.7-2.3,1.5-4.9,2.3-7.3c0.4-1.2,0.8-2.4,1.3-3.6l0.1-0.3c0.1-0.1,0.1-0.2,0.1-0.3
		l0.4-0.9l0.8-1.6c0.3-0.5,0.6-1.1,0.9-1.6c0.5-0.7,0.2-1.7-0.5-2.2l0,0c-0.8-0.5-1.7-0.2-2.2,0.6c-2.7,4.4-4.2,9.5-5.8,14.4
		c-0.7,2.4-1.5,4.9-2.3,7.3c-0.5,1.2-1,2.3-1.3,3.6c-0.2,1.4-0.3,2.9-0.2,4.3c0,1.5-0.1,2.9-0.1,4.4c0,1.5,0.1,3,0.1,4.4
		s-0.1,3,0.1,4.4c0.2,1.4,0.7,2.7,1.3,3.9c0.6,1.3,1.3,2.5,2.1,3.7c0.4,0.6,0.8,1.2,1.2,1.8s0.8,1.1,1.2,1.7
		c0.1,0.2,0.2,0.5,0.3,0.7h0c0,0.1,0.1,0.3,0.2,0.4c0.2,0.6,0.5,1.2,0.8,1.7c0.9,1.3,2.2,1.8,3.6,2.3l0.9,0.3l0.2,0.1h0l0.3,0.1
		c0.2,0.1,0.5,0.2,0.7,0.4l0.3,0.2l0.1,0.1c0,0,0,0,0,0c0,0,0,0-0.1,0c0.1,0,0.5,0.4,0.5,0.5l0.5,0.5l0.2,0.3c0,0,0,0.1,0.1,0.1
		l0.4,0.6c0.3,0.5,0.5,0.9,0.7,1.4c0,0,0,0,0,0.1c0,0.1,0.1,0.2,0.1,0.3c0.1,0.3,0.2,0.5,0.3,0.8
		C179.4,116.6,179.7,117.6,179.9,118.6z"/>
	<path style="stroke:#000000;stroke-width:3;stroke-linecap:round;stroke-linejoin:round;stroke-miterlimit:10;" d="M195.3,148.8
		c-1-1.9-2.1-3.8-3.1-5.7c-2-3.8-3.9-7.6-6.1-11.3c-1.4-2.2-2.8-4.2-4.4-6.2c-0.5-0.6-1.7-0.6-2.3,0c-0.5,0.6-0.6,1.6,0,2.3l0.5,0.7
		l0.2,0.2c0,0,0,0,0,0.1c0,0,0,0.1,0.1,0.1l0.9,1.3c0.6,0.9,1.2,1.7,1.8,2.6c1.1,1.7,2.1,3.6,3.1,5.4c2,3.7,3.8,7.4,5.8,11
		c0.3,0.5,0.6,1.1,0.8,1.6l0.4,0.8l0.1,0.3c0,0.1,0.1,0.2,0.1,0.3c0.2,0.5,0.4,1.1,0.5,1.6l0.2,0.8c0,0,0,0.2,0,0.3
		c0,0.1,0,0.3,0,0.5c0.1,0.8,0.7,1.6,1.6,1.6c0.9,0,1.7-0.7,1.6-1.6C197.2,153.1,196.4,150.9,195.3,148.8z"/>
	<path style="stroke:#000000;stroke-width:3;stroke-linecap:round;stroke-linejoin:round;stroke-miterlimit:10;" d="M172.9,119.4
		c-1.1-1.2-2.3-2.2-3.6-3.1c-2.8-2.2-5.9-4-8.7-6l-2-1.4l-0.2-0.2l-0.4-0.3l-0.7-0.6c-0.6-0.6-1.6-0.6-2.3,0c-0.6,0.6-0.6,1.6,0,2.3
		c1,1,2.1,1.9,3.3,2.6c1.4,1,2.8,1.9,4.1,2.8c1.4,0.9,2.9,1.9,4.4,3l1,0.8l0.2,0.1l0.5,0.4c0.6,0.5,1.1,0.9,1.6,1.4
		c0.3,0.3,0.5,0.5,0.7,0.8l0.1,0.1l0.2,0.4c0.1,0.1,0.2,0.2,0.2,0.3c0,0,0,0.1,0,0.1c0,0.1,0,0.2,0.1,0.2v0c0,0,0,0.1,0,0.1
		c0.1,0.8,0.8,1.4,1.6,1.4c0.8,0,1.7-0.7,1.6-1.6C174.6,121.6,173.8,120.5,172.9,119.4z"/>
	<path style="stroke:#000000;stroke-width:3;stroke-linecap:round;stroke-linejoin:round;stroke-miterlimit:10;" d="M29.6,100.8
		c-0.1-0.8-0.2-1.6-0.3-2.5c-0.2-1.7-0.4-3.3-0.5-5l-1.1-11.7c-0.1-0.8-0.7-1.6-1.6-1.6c-0.9,0-1.7,0.7-1.6,1.6
		c0.6,7,1.1,14.1,2.1,21.1c0.9,6.3,2.4,12.6,5.3,18.4c1.6,3.1,3.6,5.9,6,8.3c0.6,0.7,1.6,0.7,2.3,0.2c0.7-0.6,0.7-1.6,0.2-2.3
		c-0.1-0.1-0.1-0.1-0.2-0.2c-0.5-0.5-1-1.1-1.5-1.6l-0.6-0.8l-0.1-0.1h0c0-0.1,0-0.1-0.1-0.1l0,0l-0.4-0.5c-0.8-1.2-1.6-2.3-2.3-3.6
		c-0.4-0.6-0.7-1.3-1-2c-0.3-0.7-0.3-0.6-0.5-1l-0.2-0.5h0c0-0.1-0.1-0.2-0.1-0.3c-0.5-1.3-1-2.7-1.4-4.1c-0.9-3.2-1.6-6.3-2.1-9.6
		c-0.1-0.4-0.1-0.8-0.2-1.2c0-0.1,0-0.2-0.1-0.3L29.6,100.8z"/>
	<path style="stroke:#000000;stroke-width:3;stroke-linecap:round;stroke-linejoin:round;stroke-miterlimit:10;" d="M194.5,126.9
		c-0.2,0.3-0.5,0.6-0.8,0.9c-0.2-0.1-0.4-0.1-0.5-0.1c-0.4,0-0.8,0.2-1.1,0.5c-0.5,0.6-0.7,1.7,0,2.3c0.5,0.4,1.1,0.6,1.7,0.6
		c0.6,0,1.1-0.2,1.6-0.5c0.7-0.5,1.3-1.2,1.8-1.9c1.1-1.4,2.1-2.9,3-4.4c1.7-3,3.1-6.1,4-9.4c0.9-3.4,1.4-7,1.4-10.5
		c0-0.9,0-1.8,0.1-2.7c0-0.4,0.1-0.8,0.1-1.2c0-0.4,0-0.1,0-0.2c0-0.1,0-0.2,0.1-0.4c0-0.2,0.1-0.5,0.2-0.7c0.1-0.5,0.2-0.9,0.4-1.3
		c0.1-0.2,0.1-0.4,0.2-0.5c0,0,0,0,0-0.1c0.1-0.1,0.1-0.3,0.2-0.4c0.4-0.8,0.8-1.6,1.3-2.3c1.1-1.8,2-3.7,2.8-5.7
		c0.7-2,1.2-4.1,1.4-6.2c0.1-0.8-0.8-1.6-1.6-1.6c-0.8,0-1.5,0.7-1.6,1.6c0,0.1,0,0.3-0.1,0.4l-0.1,0.6c-0.1,0.4-0.2,0.9-0.3,1.3
		c-0.1,0.4-0.5,1.7-0.7,2.5c-0.1,0.4-0.3,0.7-0.4,1.1l-0.1,0.3c0,0-0.1,0.1-0.1,0.2c0,0.1,0,0.1-0.1,0.1c0,0.2-0.1,0.3-0.2,0.4
		c-0.4,0.8-0.7,1.5-1.2,2.3c-0.9,1.5-1.8,3.1-2.5,4.8c-0.6,1.7-0.9,3.6-1,5.4c-0.1,1.8-0.1,3.5-0.2,5.2c0,0.8-0.1,1.6-0.2,2.3
		c0,0.1,0,0.3,0,0.3l-0.1,0.6c-0.1,0.4-0.2,0.8-0.2,1.2c-0.3,1.5-0.7,3.1-1.3,4.6c-0.3,0.7-0.5,1.5-0.8,2.2h0l-0.1,0.3
		c-0.1,0.2-0.2,0.4-0.3,0.5s-0.4,0.7-0.5,1.1c-0.8,1.6-1.7,3.2-2.8,4.6l-0.8,1.1l-0.2,0.2c0,0,0,0,0,0c0,0-0.1,0.1-0.1,0.2
		L194.5,126.9z"/>
</g>
</svg>
