<?xml version="1.0" encoding="utf-8"?>
<!-- Generator: Adobe Illustrator 27.9.0, SVG Export Plug-In . SVG Version: 6.00 Build 0)  -->
<svg version="1.1" id="Layer_1" xmlns="http://www.w3.org/2000/svg" xmlns:xlink="http://www.w3.org/1999/xlink" x="0px" y="0px"
	 viewBox="0 0 221.6 154.4" style="enable-background:new 0 0 221.6 154.4;" xml:space="preserve">
<g>
	<path style="stroke:#000000;stroke-width:3;stroke-linecap:round;stroke-linejoin:round;stroke-miterlimit:10;" d="M53.4,58.9
		c0-0.1,0-0.2,0-0.3v0c0-0.2,0-0.4,0.1-0.6c0.1-0.7,0.2-1.4,0.4-2.1c0.3-1.4,0.6-2.8,1-4.2c0.4-1.4,0.8-2.7,1.3-4.1l0.8-2
		c0,0,0,0,0,0h0c0-0.1,0.1-0.2,0.1-0.2c0.1-0.2,0.2-0.3,0.2-0.5l0.5-1c1.4-2.9,3-5.7,4.9-8.3c0.4-0.5,0.1-1.2-0.4-1.5
		c-0.5-0.3-1.2-0.1-1.5,0.4c-3.5,4.8-6.1,10.1-7.8,15.8c-1.7,5.6-2.4,11.5-2.2,17.4c0.1,3.3,0.6,6.7,1.4,9.9
		c0.1,0.4,0.5,0.7,0.9,0.8c0.4,0.1,0.9-0.2,1.1-0.5l0.2-0.3l0-0.1h0c0,0.9-0.1,1.7-0.3,2.5c-0.4,1.6-0.9,3.2-1.6,4.8l0,0.1L52.5,85
		c-0.1,0.2-0.2,0.4-0.2,0.6l-0.5,1.2l-1.1,2.3c-0.7,1.6-1.5,3.1-2.3,4.7c-0.8,1.5-1.8,3.4-2.7,5.1c-0.3,0.5-0.1,1.2,0.4,1.5
		c0.5,0.3,1.2,0.1,1.5-0.4c1.7-3.1,3.4-6.2,4.8-9.4c0.7-1.6,1.5-3.2,2.2-4.8c0.7-1.6,1.3-3.3,1.7-5c0.4-1.7,0.6-4,0-6
		c-0.2-0.6-1-1.1-1.6-0.7c-0.6,0.4-0.6,0.5-0.9,0.7c-0.1-0.7-0.3-1.5-0.4-2.2c0-0.2-0.1-0.4-0.1-0.5c0-0.1,0-0.2,0-0.3l0,0l0,0l0,0
		v-0.1l-0.1-1.1c-0.1-0.7-0.1-1.4-0.2-2.1c-0.2-2.9-0.1-5.8,0.2-8.6C53.3,59.5,53.4,59.2,53.4,58.9z"/>
	<path style="stroke:#000000;stroke-width:3;stroke-linecap:round;stroke-linejoin:round;stroke-miterlimit:10;" d="M37.5,68.4
		c-0.4,1.5-0.9,3.1-1.5,4.5c0,0.1-0.1,0.2-0.1,0.2l0,0.1l-0.3,0.6c-0.2,0.4-0.3,0.7-0.5,1.1c-0.4,0.7-0.7,1.5-1.1,2.2
		c-0.8,1.4-1.6,2.7-2.6,4c-0.2,0.3-0.5,0.7-0.7,1l-0.1,0.1l-0.2,0.2l-0.4,0.5c-0.5,0.6-1.1,1.2-1.6,1.8c-1.2,1.3-2.6,2.7-3.3,4.4
		C25,89.3,25,89.6,25,89.9c0.1,0.3,0.3,0.5,0.5,0.7c0.5,0.3,1.3,0.2,1.5-0.4c0.2-0.4,0.3-0.7,0.5-1c0.1-0.2,0.2-0.3,0.3-0.5l0.2-0.3
		c0,0,0,0,0-0.1v0c0.5-0.6,1.1-1.2,1.6-1.8c1.1-1.2,2.2-2.5,3.2-3.8c1.9-2.6,3.5-5.4,4.8-8.4c0.7-1.7,1.4-3.5,1.9-5.3
		c0.2-0.6-0.2-1.2-0.8-1.4C38.2,67.5,37.7,67.8,37.5,68.4z"/>
	<path style="stroke:#000000;stroke-width:3;stroke-linecap:round;stroke-linejoin:round;stroke-miterlimit:10;" d="M209.2,86.1
		c0.7,1.1,2.2,0.3,2-0.9c-0.7-3.9-3.2-7.1-5.4-10.3c-1.1-1.5-2.2-3.1-2.9-4.9c-0.7-1.7-0.9-3.8-1.3-5.7c-1.8-7.7-7.2-13.7-13.1-18.6
		c-1.8-1.5-3.7-2.9-5.5-4.4c0.5-0.2,0.7-0.7,0.6-1.3c-1.2-5.3-4.3-9.8-8.8-12.8c1.6-0.2,3.2,0.1,4.7,0.7c1,0.4,1.9-1.2,1.1-1.8
		c-4-3.4-8.9-5.5-14-6.3c-2.6-0.4-5.2-0.4-7.8,0c-2.9,0.4-5.6,1.3-8.4,2l-1.6,0.4c0-0.3-0.1-0.5-0.3-0.7c-1.8-1.7-3.8-3.1-6.1-4
		c-1.1-0.5-2.3-0.7-3.4-0.9l-1.7-0.4l-0.4-0.1c0.4-0.6,0.7-1.3,0.9-2c0.2-0.6-0.2-1.2-0.8-1.4c-0.2,0-0.4,0-0.5,0
		c-3.1,0.9-6.2,1.5-9.4,1.6c-1.6,0.1-3.3,0.1-5,0.1c-0.7,0-1.5,0-2.3-0.1c-0.8-0.1-1.6-0.3-2.5-0.4c-3.2-0.4-6.5-0.4-9.8,0
		c-1.6,0.2-3.3,0.4-4.9,0.5c-1.7,0-3.3,0-5,0c-3.6-0.2-7-0.6-10.5-1.7c-0.6-0.2-1.2,0.2-1.4,0.8c0,0.2,0,0.4,0,0.5
		c0.2,0.7,0.5,1.4,0.9,2l-0.4,0.1l-1.7,0.4c-1.2,0.2-2.3,0.4-3.4,0.9c-2.3,0.9-4.4,2.3-6.1,4c-0.2,0.2-0.3,0.5-0.3,0.8
		c-2.7-0.5-5.4-1.5-8.1-2c-8.4-1.8-17.2,0.3-23.8,5.9c-0.8,0.7,0.1,2.2,1.1,1.8c1.5-0.6,3.1-0.8,4.7-0.6c-4.5,2.9-7.7,7.5-8.8,12.7
		c-0.2,0.6,0.2,1.2,0.8,1.3c0.4,0.1,0.8,0,1.1-0.3c0.4-0.3,0.8-0.6,1.2-0.9c-4.2,4.8-8.5,9.6-12.6,14.5c-4.9,6-9.8,12.1-13.7,18.8
		c-2.1,3.6-3.7,7.5-4.4,11.6c-0.2,1.2,1.3,2,2,0.9c0.9-1.6,2.2-3,3.6-4.2c-2.3,7.7-4.3,15.6-3.9,23.7c0.1,2.3,0,4.5,1.7,6.3
		c0.3,0.3,0.8,0.4,1.2,0.2c0.2-0.1,0.3-0.2,0.4-0.3c0,0,0,0,0,0l0.1-0.1c0,0,0-0.1,0-0.1h0c0-0.1,0-0.1,0-0.2
		c0.4-2.3,1.3-4.5,2.7-6.3c0.2-0.2,0.3-0.4,0.5-0.6l0.1-0.1c0.2,0.2,0.3,0.4,0.5,0.5c0.7,0.9,1.2,1.9,1.6,3c0.8,2.5,0.9,5.1,1.3,7.6
		c0.4,2.6,0.9,5.1,1.7,7.6c0.9,2.8,2,5.4,3.4,8c0.5,0.9,1.7,0.6,2-0.3c0.5-1.8,1.1-3.6,1.6-5.4c1.4,2.1,2.2,4.7,2.6,7.2
		c0.5,2.5,0.9,5.8,3.1,7.7c0.6,0.5,1.3,1,2.2,1c0.7,0,1.4-0.4,1.9-0.9c1.2-1.1,1.8-2.7,2.3-4.2c0.5-1.5,1-3.5,1.9-5.1
		c0.1-0.3,0.3-0.5,0.5-0.8c0-0.1,0.2-0.2,0.1-0.2h0c0,0,0.1,0.2,0.1,0.2c0.1,0.1,0.2,0.2,0.2,0.4c0.6,1.1,1.2,2.3,2.6,2.5
		c1.7,0.3,3.4-0.6,4.1-2.1c0.3-0.6,0.5-1.4,0.7-2c0.3-0.6,0.6-1.3,1-1.8c0.7-1.1,1.6-2,2.6-2.8c2.1-1.7,4.5-2.9,6.8-4.3
		c0.6-0.4,1.1-0.7,1.7-1.1s1.3-0.9,1.8-1.5s1.2-1.1,1.8-1.7c0.5-0.7,1.1-1.4,1.5-2.1c1.7-3,2.3-6.4,2.6-9.8c0.2-1.8,0.4-3.6,0.4-5.4
		c0-2-0.1-4-0.3-6c-0.1-1-0.2-2-0.3-3c-0.1-0.5-0.4-1-1-1.1L74,88.6l-0.3-0.3c-0.2-0.2-0.4-0.4-0.6-0.6l-0.5-0.6l0,0L72.5,87
		l-0.3-0.4c-0.3-0.5-0.6-0.9-0.8-1.4L71,84.5l-0.2-0.4c0-0.1-0.1-0.2-0.1-0.2c-0.9-2.2-1.4-4.5-1.9-6.7c-0.3-1.4-0.6-2.7-0.8-4.1
		C68,72.7,68,72.3,67.9,72c0-0.1,0-0.1,0-0.2v0c0-0.2-0.1-0.4-0.1-0.6c-0.1-0.7-0.2-1.4-0.2-2.1c-0.1-1.3-0.1-2.7,0-4
		c0-0.1,0-0.2,0-0.3c0.2,5.5,1.7,10.9,4.3,15.8l0,0.1c0.1,0.5,0.5,0.9,1.1,0.9c0.5,0,1.1-0.5,1.1-1.1c-0.6-6.2-1.4-12.4-1-18.7
		c0-0.7,0.1-1.5,0.2-2.2l0.1-0.5c0-0.1,0-0.2,0-0.3h0c0-0.4,0.1-0.7,0.2-1.1c0.2-1.3,0.4-2.7,0.7-4c0.6-2.7,1.4-5.4,2.4-7.9
		c0.1-0.2,0.1-0.4,0.2-0.5l0.1-0.2l0.1-0.1l0.5-1.1c0.3-0.7,0.7-1.4,1.1-2.1c0.7-1.4,1.5-2.7,2.4-4c0.3-0.5,0.1-1.2-0.4-1.5l0,0
		c-0.5-0.3-1.2-0.1-1.5,0.4c-3.2,4.7-5.4,10-6.7,15.5c-0.7,2.8-1.1,5.6-1.4,8.4c-0.3,3.1-0.2,6.2-0.1,9.3c0.1,1.2,0.2,2.3,0.3,3.4
		c-0.3-1.1-0.6-2.2-0.8-3.4c-0.1-0.4-0.2-0.8-0.2-1.3c0-0.2-0.1-0.4-0.1-0.6c0,0,0-0.1,0-0.1c0-0.1,0-0.2,0-0.4
		c-0.1-0.8-0.2-1.7-0.2-2.5c-0.1-1.7,0-3.5,0.1-5.2L70,59c0-0.1,0-0.2,0-0.3c0-0.1,0-0.2,0-0.2c0.1-0.5,0.2-1,0.2-1.5
		c0.2-1,0.4-1.9,0.7-2.9c0-0.1,0-0.2,0-0.3c0.3-0.5,0.1-1.2-0.4-1.5c-0.5-0.3-1.2-0.1-1.5,0.4c-3,4.5-4,10-3.7,15.3
		c0.2,3,0.6,5.9,1.2,8.8c0.5,2.4,1,4.8,1.9,7.1c0.4,1.3,1.1,2.5,1.8,3.6c0.7,1.1,1.6,2.1,2.7,2.9c0.4,3.8,0.7,7.7,0.3,11.6
		c-0.4,3.4-0.7,6.9-2.2,10c-0.4,0.9-0.9,1.7-1.5,2.4c-0.6,0.7-1.5,1.3-2,2.1c-3.1,2.3-6.6,3.8-9.6,6.2c-1.5,1.2-2.9,2.6-3.8,4.3
		c-0.5,0.9-0.9,1.9-1.2,2.9c-0.2,0.8-0.9,1.5-1.7,1.4c-0.3,0-0.4-0.1-0.6-0.4c-0.2-0.3-0.4-0.6-0.5-0.9c-0.4-0.8-0.9-1.7-1.8-1.9
		c-0.9-0.2-2,0.5-2.6,1.3c-0.6,0.9-1.1,1.9-1.5,2.9c-0.8,2.1-1.1,4.7-2.7,6.5c-0.1,0.1-0.3,0.2-0.4,0.4l-0.2,0.1
		c-0.3,0-0.7-0.4-0.9-0.6c-0.6-0.6-1.1-1.4-1.3-2.2c-0.3-1.1-0.6-2.2-0.8-3.3c-0.2-1.2-0.5-2.4-0.9-3.6c-0.8-2.6-1.9-5.1-3.7-7.1
		c-0.6-0.6-1.6-0.3-1.8,0.5l-1.4,4.8c-2-4.4-3.3-9-3.9-13.8c-0.4-2.8-0.6-5.6-1.8-8.2c-0.5-1.1-1.2-2.2-2.1-3.1
		c-0.4-0.4-0.9-0.7-1.5-0.7c-0.7,0-1.1,0.4-1.5,0.9c-1.3,1.5-2.3,3.1-3,4.9c-0.1-0.8,0-1.6-0.1-2.3c-0.1-2.2,0-4.3,0.2-6.4
		c0.4-4.2,1.3-8.3,2.4-12.4c0.7-2.3,1.4-4.7,2.1-7c0.3-1-0.8-1.6-1.6-1.3c-1.3,0.7-2.5,1.5-3.6,2.5c1.9-5.3,5.2-10.1,8.5-14.7
		c4.5-6.1,9.4-11.9,14.3-17.6c2.8-3.2,5.7-6.5,8.5-9.7c0.6-0.7,0.2-1.9-0.8-1.9c-1.2,0.1-2.3,0.4-3.4,0.8c1.7-4.4,5-8,9.3-10
		c0.7-0.3,0.7-1.6,0-1.9c-1.2-0.5-2.5-0.9-3.9-0.9c5.5-3.1,11.9-4.1,18-2.7c2.5,0.5,5.1,1.4,7.6,1.9c3,0.6,6.1,0.9,9.1,0
		c1.4-0.4,0.8-2.5-0.6-2.1c-1.7,0.4-3.4,0.6-5.2,0.4c1.5-1.4,3.2-2.4,5.1-3.2c2.2-0.8,4.7-0.9,6.9-1.9c0.7-0.3,0.6-1.2,0.2-1.7
		l-0.3-0.4c2.5,0.5,4.9,0.9,7.4,1.1c3.3,0.3,6.7,0.2,10-0.2c1.6-0.2,3.2-0.4,4.7-0.4c1.7,0,3.4,0,5,0.2c0.7,0,1.5,0.2,2.2,0.3
		c0.8,0.2,1.6,0.3,2.5,0.3c1.7,0,3.4,0,5.1,0c2.9-0.1,5.8-0.5,8.7-1.1l-0.3,0.4c-0.4,0.5-0.5,1.4,0.2,1.7c2.2,1,4.6,1.1,6.9,1.9
		c0.5,0.2,1,0.4,1.4,0.6c0.5,0.3,1,0.5,1.5,0.9c0.7,0.5,1.5,1,2.1,1.6c-1.7,0.2-3.5,0.1-5.2-0.4c-1.4-0.4-2,1.7-0.6,2.1
		c5.6,1.6,11.1-0.7,16.5-1.9c4.9-1.1,10-0.7,14.7,1.1c1.2,0.4,2.3,1,3.4,1.6c-1.3,0.1-2.7,0.4-3.9,0.9c-0.7,0.3-0.7,1.6,0,1.9
		c4.3,2,7.6,5.6,9.3,10c-1.1-0.5-2.2-0.7-3.4-0.8c-0.9,0-1.5,1.3-0.8,1.9c5.9,4.9,12.5,9.1,17.5,15.1c2.4,2.8,4.2,6.1,5.2,9.7
		c0.5,1.9,0.6,3.9,1.2,5.7s1.5,3.5,2.6,5.1c1.1,1.6,2.5,3.5,3.6,5.4c-0.8-0.6-1.6-1.1-2.4-1.5c-0.5-0.3-1.2-0.1-1.5,0.4
		c-0.1,0.2-0.2,0.5-0.1,0.8c0.9,4,1,8.2,1.7,12.2c0.4,2.2,0.9,4.3,1.7,6.4c0.8,2,2,3.8,2.1,6c0,1.3-0.3,2.6-0.7,3.8
		c-0.8-2.2-2.1-4.2-3.8-5.9c-0.4-0.4-0.9-0.4-1.3-0.2c-3.3,2.3-2.7,6.4-3.6,9.9c-0.2,0.8-0.5,1.6-1,2.2c-0.7,0.9-1.4,1.7-1.9,2.7
		c-1,2-1.5,4.2-1.8,6.3c-0.2,1.3-0.4,2.5-0.7,3.8l-1.2-4c-0.2-0.6-0.8-0.9-1.4-0.8c-0.1,0-0.2,0.1-0.2,0.1c-2.7,1.7-4.7,4.3-5.8,7.3
		c-0.5,1.4-0.8,2.9-1,4.4c0,0.4-0.1,0.7-0.1,1.1c-0.3-0.3-0.7-0.5-1.1-0.6c-1,0-1.5,1.2-1.7,2.1l-0.1-0.3c-0.4-1.1-0.7-2.3-1.1-3.4
		c-0.4-1.1-0.9-2.3-1.6-3.3c-0.3-0.4-0.7-0.8-1.2-1.1c-0.3-0.2-0.5-0.4-0.9-0.5c-0.5-0.2-0.9,0.1-1.3,0.4c-0.7,0.6-1,1.5-1.4,2.3
		l-0.3,0.5c0,0,0,0,0,0l-0.1,0c0,0-0.1,0.1-0.1,0.1c-0.1,0.1-0.2,0.1-0.3,0.1c-0.3,0.1-0.6,0-0.8-0.2c-1-0.7-1.2-2.1-1.7-3.1
		c-0.5-1.2-1.2-2.3-2-3.3c-3.3-3.8-8.3-5.4-12.1-8.6c-1.8-1.5-3.1-3.4-3.9-5.6c-0.8-2.4-1.3-5-1.1-7.5c0.1-1.5,0.8-3.3,1.2-4.8
		c0.5-2,1.1-4,1.5-6.1c0.5-2,0.9-4.1,1.2-6.1c0.4-2.1,0.8-4.1,0.2-6c-0.3-1.1-1.8-1-2.1,0c-1.2,3.1-2.7,6.1-4.6,8.9
		c0.5-1.8,1.1-3.7,1.5-5.6c0.9-3.7,1.7-7.4,2.3-11.2c0.6-3.8,0.9-7.6,1-11.4c0.1-3.8-0.1-7.6-0.6-11.4c-0.4-3.2-0.9-6.9-3.2-9.4
		c-0.3-0.3-0.5-0.5-0.8-0.7c-0.2-0.2-0.5-0.3-0.8-0.3c-0.3,0-0.6,0.1-0.8,0.3c-0.4,0.4-0.5,1.2,0,1.6c0.3,0.2,0.5,0.5,0.8,0.7
		l0.2,0.2l0.1,0.1l0,0c0.1,0.1,0.2,0.3,0.3,0.4c0.2,0.3,0.4,0.6,0.5,1c0,0.1,0.1,0.2,0.1,0.3h0l0.2,0.5c0.5,1.5,0.8,3.1,1.1,4.7
		c0,0.2,0.1,0.4,0.1,0.7c0,0.1,0,0.2,0,0.4c0,0,0,0.1,0,0.2c0.1,0.5,0.1,0.9,0.2,1.4c0.1,0.9,0.2,1.8,0.2,2.8
		c0.1,1.8,0.2,3.7,0.2,5.5c0,1.8-0.1,3.7-0.2,5.6c-0.1,0.9-0.2,1.9-0.3,2.8c0,0.5-0.1,0.9-0.2,1.4s0,0.4-0.1,0.7c0,0.1,0,0.2,0,0.3
		v0.2c-0.5,3.7-1.2,7.4-2.1,11c-0.9,3.6-1.9,7.3-3,10.8c-0.1,0.5-0.3,0.9-0.4,1.3c-0.2,0.6,0.2,1.2,0.8,1.4c0.5,0.1,0.9-0.1,1.2-0.5
		c0.2-0.1,0.3-0.2,0.4-0.3c2.2-2.5,4.1-5.2,5.6-8.2c-0.2,1.2-0.4,2.4-0.7,3.6c-0.6,3-1.4,6-2.2,9c-0.3,1.2-0.7,2.4-0.9,3.7
		c-0.2,1-0.2,2.1-0.1,3.1c0.2,2.3,0.7,4.6,1.6,6.7c0.7,1.9,1.9,3.7,3.4,5.1c1.6,1.5,3.4,2.6,5.3,3.8c3.3,2,7.2,4,9,7.7
		c0.5,1.1,0.8,2.4,1.6,3.4c0.8,1,2.1,1.9,3.6,1.5c1-0.2,1.7-1,2.2-1.9c0.2-0.4,0.3-0.7,0.5-1.1l0.1-0.2c1.6,1.4,2,3.8,2.6,5.8
		c0.4,1.3,1,2.6,1.8,3.6c0.4,0.5,1,1.1,1.7,0.9c0.7-0.2,0.9-0.8,0.9-1.4c0-0.6,0-1.1,0-1.6l0.5,0.7c0.3,0.5,0.7,1,1.3,1
		c1.2,0,1.1-1.3,1.1-2.1c0-3.2,0.4-6.4,2-9.2c0.7-1.2,1.6-2.3,2.7-3.1c0.6,2,1.2,4,1.8,5.9c0.2,0.8,1.6,1.2,2,0.3
		c1.8-3.9,1.5-8.3,3.1-12.3c0.4-1,0.9-1.9,1.6-2.8c0.6-0.8,1.2-1.5,1.6-2.5c0.7-1.6,0.8-3.4,1-5.1c0.2-1.4,0.4-3,1.3-4.1
		c1.7,2,2.8,4.4,3.3,7c0.2,1,1.6,1,2,0.3c1.2-1.8,1.9-3.9,2.2-6.1c0.2-1.1,0.1-2.2-0.1-3.2c-0.2-1.1-0.8-2.1-1.3-3.1
		c-1.9-4.1-2.5-8.5-3-13c-0.2-1.6-0.4-3.1-0.6-4.7C206.8,82.8,208.2,84.4,209.2,86.1z M47.7,130.2C47.7,130,47.7,130.2,47.7,130.2
		C47.7,130.2,47.7,130.2,47.7,130.2z M47.3,130.1L47.3,130.1C47.4,130.1,47.3,130.1,47.3,130.1z M181.9,136.5L181.9,136.5
		C182,136.6,181.9,136.5,181.9,136.5z"/>
	<path style="stroke:#000000;stroke-width:3;stroke-linecap:round;stroke-linejoin:round;stroke-miterlimit:10;" d="M170.1,78.2
		c0.4,0,0.7-0.2,0.9-0.5c1.3-2.8,2.4-5.7,3.1-8.7c0.5-2.4,0.8-4.8,0.5-7.2c-0.2-2.3-0.9-4.5-2-6.5c-1.1-2.1-2.6-4-4.2-5.8
		c-1.9-2-4-4-6.2-5.7c-0.3-0.3-0.6-0.5-0.9-0.7c-0.3-0.2-1.1-0.5-1.6,0s-0.5,1.2,0,1.5c2.2,1.8,4.3,3.7,6.3,5.7
		c0.8,0.9,1.6,1.8,2.4,2.7c0.1,0,0.1,0.1,0.2,0.2l0.3,0.4l0.5,0.7c0.3,0.5,0.6,0.9,0.9,1.4c0.3,0.5,0.5,0.9,0.8,1.4
		c0,0.1,0.1,0.2,0.2,0.3l0.1,0.2l0.1,0.1c0,0,0,0,0,0l0.1,0.2l0.1,0.4c0.4,1,0.6,2,0.8,3l0.1,0.4c0,0.1,0,0.1,0,0.2
		c0,0.1,0.1,0.5,0.1,0.8c0,0.5,0.1,1.1,0,1.6c0,0.6,0,1.2-0.1,1.7c0,0.2,0,0.3,0,0.4c0,0,0,0.1,0,0.1v0.1c-0.1,0.3-0.1,0.6-0.2,0.9
		c-0.2,1.3-0.6,2.6-1,3.8c-0.2,0.7-0.5,1.4-0.7,2.1c-0.3,0.7-0.3,0.7-0.4,1.1c-0.1,0.2-0.1,0.4-0.2,0.5c0,0,0,0,0,0
		c-0.4-0.4-0.7-0.7-1.1-1c-0.6-0.4-1.5,0-1.6,0.7c-0.7,2.5,0.1,4.9,0.8,7.3c0.2,0.6,0.4,1.2,0.5,1.7c0.1,0.3,0.2,0.6,0.2,0.9
		c0,0.1,0.1,0.2,0.1,0.4c0,0.1,0,0.2,0,0.2c0,0,0,0.1,0,0.2c0,0.1,0,0.3,0,0.4c0,0,0,0.1,0,0.2l0.1,0.4c0,0.3,0.1,0.6,0.2,0.9
		s0.2,1.1,0.4,1.6c0.5,1.8,1.2,3.4,2.2,5c0.8,1.2,1.8,2.3,2.9,3.3c1,1,2.1,1.9,3,3c0.4,0.4,1.2,0.4,1.6,0c0.4-0.4,0.4-1.1,0-1.6
		c-0.8-0.9-1.7-1.7-2.6-2.6c-0.5-0.4-0.9-0.9-1.4-1.3l-0.7-0.8l-0.3-0.4h0v0l-0.2-0.2c-0.5-0.6-0.9-1.3-1.2-2l-0.2-0.5l-0.2-0.3
		c0,0,0-0.1,0-0.1c-0.2-0.4-0.3-0.8-0.5-1.3c-0.3-1-0.6-2-0.7-3.1l-0.1-0.4c0,0,0-0.1,0-0.2c0,0,0-0.1,0-0.1c0,0,0-0.3,0-0.4
		s0-0.1,0-0.2l-0.1-0.5c-0.1-0.6-0.3-1.2-0.4-1.7c-0.4-1.3-0.8-2.5-1.1-3.8c-0.1-0.3-0.1-0.6-0.2-0.9s0-0.2,0-0.3l0.2,0.2
		C169.4,78,169.7,78.2,170.1,78.2z"/>
	<path style="stroke:#000000;stroke-width:3;stroke-linecap:round;stroke-linejoin:round;stroke-miterlimit:10;" d="M186.2,72.8
		c0-0.3-0.1-0.5-0.1-0.8c-0.1-1.1-0.2-2.2-0.2-3.3c0-0.6-0.5-1.1-1.1-1.1c-0.6,0-1.1,0.5-1.1,1.1c0.1,3.8,0.5,7.7,2,11.3
		c0.6,1.5,1.6,2.9,2.8,4c1.3,1.2,3,2,4.7,2.4l0.7,0.1l0.1,0l0.3,0.2l0.1,0h0c0.1,0.1,0.2,0.2,0.2,0.2l0.1,0.1h0
		c0.1,0.1,0.1,0.2,0.2,0.3c0.3,0.4,0.5,0.9,0.7,1.3c0.1,0.1,0.1,0.2,0.2,0.3v0c0,0.1,0.1,0.1,0.1,0.2c0,0.1,0.2,0.5,0.3,0.7
		c0.2,0.6,0.8,0.9,1.3,0.8c0,0,0,0,0,0c0.5-0.2,1-0.8,0.8-1.3c-0.4-0.9-0.7-1.8-1.2-2.7c-0.5-0.8-1.1-1.6-2-2.1
		c-0.4-0.2-0.9-0.3-1.4-0.4c-0.4-0.1-0.8-0.2-1.3-0.4l-0.3-0.1h-0.1l-0.5-0.2c-0.3-0.2-0.7-0.4-1-0.6c-0.3-0.2-0.2-0.2-0.2-0.1
		l-0.1-0.1l-0.4-0.4c-0.3-0.3-0.5-0.5-0.8-0.8l-0.1-0.2l-0.1-0.1l-0.4-0.5c-0.2-0.3-0.4-0.7-0.6-1l-0.3-0.5l-0.1-0.2l-0.1-0.2
		c-0.2-0.4-0.3-0.8-0.4-1.2c-0.3-0.8-0.5-1.7-0.6-2.6c-0.1-0.5-0.2-1-0.2-1.5v0c0-0.1,0-0.2,0-0.2C186.2,73.1,186.2,72.9,186.2,72.8
		z"/>
</g>
</svg>
