<?xml version="1.0" encoding="utf-8"?>
<!-- Generator: Adobe Illustrator 27.9.0, SVG Export Plug-In . SVG Version: 6.00 Build 0)  -->
<svg version="1.1" id="Layer_1" xmlns="http://www.w3.org/2000/svg" xmlns:xlink="http://www.w3.org/1999/xlink" x="0px" y="0px"
	 viewBox="0 0 373.3 169.4" style="enable-background:new 0 0 373.3 169.4;" xml:space="preserve">
<g>
	<path style="stroke:#000000;stroke-width:3;stroke-linecap:round;stroke-linejoin:round;stroke-miterlimit:10;" d="M128.9,76.8
		L128.9,76.8l-0.3,0.1l-0.4,0.1l-0.6,0.1l-0.2,0.1h-1.5l-0.3-0.1c-0.7-0.1-1.6,0.1-1.9,0.8c-0.4,0.8-0.6,1.7-0.6,2.6l-8-0.8
		c-0.5,0-1,0.2-1.3,0.7c-0.3,0.4-0.4,1-0.3,1.4c0.5,3,1,6,1.4,9c-3.5-0.8-7.2-1.4-10.8-1.9c-0.5,0-1,0.2-1.3,0.7
		c-0.3,0.4-0.4,0.9-0.3,1.4c0.6,3.7,1.4,7.3,2.5,10.8l-5.7-0.3c-2.3-0.1-5.4-0.7-7.2,1.3c-1.7,2-1.4,5.1-0.9,7.5
		c0.1,0.6,0.2,1.1,0.4,1.7s0.1,0.5,0.1,0.7c0,0.1,0,0.2,0,0.3c0,0,0.1,0.4,0.1,0.4c0,0.5,0,1,0,1.5c0,0.1,0,0.2,0,0.3
		c0,0.1-0.1,0.4-0.2,0.6c-0.1,0.2-0.1,0.4-0.2,0.7v0.1c0,0,0,0,0-0.1c0,0,0,0.1,0,0.1l0,0c0,0,0,0,0,0.1l0,0c0,0,0,0.1,0,0
		c0,0,0,0.1-0.1,0.1c-0.2,0.4-0.5,0.9-0.7,1.2l-0.2,0.3c0,0,0,0,0,0.1c0,0,0.1-0.1,0.1-0.1c-0.1,0.2-0.3,0.4-0.4,0.5
		c-0.3,0.4-0.7,0.7-1.1,1.1l-0.3,0.2h0c-0.2,0.2-0.4,0.3-0.6,0.4l-1.2,0.8l-0.6,0.3L86,122h0c-0.4,0.2-0.9,0.4-1.3,0.5l-1.3,0.4
		c-0.2,0.1-0.4,0.1-0.7,0.1h-0.8l-0.1-0.1c0,0.1,0,0.1-0.1,0h0c0-0.1,0-0.1-0.1-0.2l-0.1-0.3v-0.3c0-0.2,0-0.4,0-0.6h0v-0.2
		c0,0,0-0.1,0-0.1c0-0.2,0.1-0.5,0.2-0.7c0.3-1.2,0.7-2.4,1.1-3.6c1.5-5,3.3-9.9,5.1-14.7s3.6-10,5.4-15l5.4-14.9
		c0.9-2.5,1.8-5.1,2.7-7.6c0.4-1.2,0.9-2.4,1.3-3.6c0.1-0.2,0.2-0.5,0.3-0.7c0-0.1,0.1-0.2,0.1-0.3c0,0,0.1-0.1,0.1-0.1
		c0.2-0.5,0.4-0.9,0.7-1.3l0.2-0.3h0c0,0,0,0,0,0c0.1-0.2,0.3-0.4,0.5-0.5l0.1-0.1l0.1-0.1l0.2-0.1l0.4-0.2l0.2-0.1l0.6-0.2h1.3
		c0.1,0,0.5,0,0.1,0l0.5,0.1c1.1,0.2,2.1,0.5,3.1,1h0.1l0.4,0.2l0.7,0.3l1.3,0.8c0.9,0.5,1.8,1.1,2.6,1.7c0.4,0.3,0.8,0.6,1.2,0.9
		h0.1l0.3,0.3l0.7,0.6c1.7,1.3,3.4,2.7,5.2,3.9c0.9,0.6,1.7,1.1,2.7,1.6c0.8,0.5,1.8,0.2,2.3-0.6c0.5-0.8,0.2-1.8-0.6-2.3
		c-1-0.5-1.9-1.1-2.8-1.7l-1.3-0.9c-0.2-0.2-0.4-0.3-0.6-0.5l-0.3-0.3H123l-0.1-0.1c-1.8-1.4-3.5-2.8-5.4-4.1
		c-1.8-1.3-3.8-2.4-5.9-3.2c-2.2-0.9-4.9-1.6-7.2-0.8c-2.3,0.8-3.8,3-4.7,5.4c-0.9,2.3-1.8,5-2.7,7.4c-1.8,5.1-3.6,10.2-5.5,15.3
		c-1.9,5.1-3.7,10.3-5.6,15.4c-1.9,5.1-3.7,10.1-5.4,15.2c-0.4,1.3-0.8,2.6-1.2,3.8c-0.4,1.1-0.7,2.3-1,3.5
		c-0.5,2.1-0.3,4.8,1.9,5.8c1.3,0.6,2.7,0.4,4.1,0.1c1.1-0.2,2.1-0.6,3.1-1c1.9-0.8,3.6-2,5-3.5c1.4-1.5,2.4-3.4,2.7-5.5
		c0.2-1.3,0.2-2.6-0.1-3.9c-0.2-1.2-0.5-2.4-0.7-3.6c0,0,0-0.2,0-0.3c0-0.1,0-0.2,0-0.3c0-0.3,0-0.6,0-0.9c0-0.1,0-0.3,0-0.4v-0.1
		c0-0.3,0.1-0.5,0.2-0.8v-0.1c0,0,0,0,0,0c0.1-0.1,0.1-0.2,0.2-0.3h0c0,0,0,0,0,0l0.1-0.1l0.2-0.1l0.2-0.1l0.4-0.1h0.2
		c1.2-0.1,2.5,0.1,3.7,0.1l4.1,0.2l3.9,0.2c1.1,0,1.9-1.1,1.6-2.1c-1.2-3.5-2.1-7.1-2.8-10.7l0.9,0.2l3.2,0.5
		c2.1,0.4,4.2,0.9,6.2,1.4c0.9,0.3,1.8-0.3,2-1.1c0.1-0.3,0.1-0.6,0-0.9c-0.5-3.1-1-6.2-1.5-9.4L125,84c1.1,0.1,1.9-1.1,1.6-2.1
		c0-0.2-0.1-0.3-0.1-0.4s0-0.2,0-0.3c0-0.2,0-0.4,0-0.6c0,0,0-0.1,0-0.1c1.4,0,2.9-0.3,4.1-0.9c0.8-0.4,1-1.5,0.6-2.2
		C130.7,76.7,129.8,76.4,128.9,76.8z"/>
	<path style="stroke:#000000;stroke-width:3;stroke-linecap:round;stroke-linejoin:round;stroke-miterlimit:10;" d="M325.9,138.3
		c-1.8-0.2-3.6-1.2-5.3-2.2c-0.9-0.5-1.8-0.9-2.7-1.3c1.1-1.1,2.2-2.2,3.1-3.4c1.5-2,2.9-4.2,4.3-6.4c0.5-0.9,0-2.2-1-2.4
		c-2.8-0.5-5.5-1.3-8.4-1.9c2.5-2.2,5.3-4.2,7.3-6.9c1.1-1.4,1.8-3.3,0.7-4.9c-0.7-1.1-1.9-1.5-3.1-2c-1.5-0.7-3.1-1.2-4.7-1.6
		c-2.2-0.6-4.4-0.8-6.7-0.8c2.6-3.3,4.5-7.1,5.3-11.2c0.2-0.7-0.1-1.4-0.8-1.8c-1.5-0.9-3.3-1.3-5-1.2c-1.4,0-3,0.2-4.3-0.1
		c-0.5-0.1-1.1-0.2-1.6-0.4l-0.4-0.2c-0.2-0.2-0.4-0.5-0.5-0.8c-0.8-1.7-1.6-3.3-2.4-5c-3-6.5-5.8-13.1-8.7-19.6s-5.7-13.1-8.9-19.6
		c-1.6-3.3-3.3-6.6-5.1-9.8c-0.9-1.6-1.8-3.2-2.8-4.8c-1-1.6-1.9-3.3-3-4.8c-1.9-2.6-4.1-5-7.1-6.2c-3-1.2-7.6,0-10.6,1.7
		c-3,1.7-5.8,3.6-8.5,5.6c-1.3,1.1-2.7,2.2-3.9,3.4c-1.3,1.2-2.2,2.5-3.4,3.5c-0.6,0.5-1.2,1-1.8,1.5c-0.7,0.7-1.3,1.4-1.9,2.2
		c-1.1,1.4-2.3,2.8-3.4,4.2c-2.2,2.9-4.4,5.8-6.5,8.8s-4.1,5.8-6.2,8.7c-1.1,1.5-2.1,3-3.2,4.5c-0.4,0.5-0.8,1.1-1.3,1.5
		s-0.9,1-1.3,1.5c-0.2,0.2-0.3,0.5-0.5,0.8l-0.2,0.3l-1.2,1.5c-0.9,0.9-1.6,1.7-2.6,2.2l-0.1,0.1h-0.1l-0.2,0.1h-0.3l-0.3-0.1
		c-0.1-0.1-0.2-0.3-0.3-0.3s-0.1-0.1-0.1-0.1l-0.2-0.4c-0.6-1.4-1.5-2.7-2.8-3.6c-2.7-1.9-6.5-1.1-9.2,0.2c-1.3,0.7-2.6,1.5-3.8,2.4
		l-1.8,1.3l-0.9,0.7c-0.2,0.2-0.5,0.4-0.8,0.5c-0.7,0.3-1.4,0.4-2,0.8l-0.2,0.1l-0.4,0.1c-0.3,0.1-0.6,0.1-0.9,0.1
		c-1-0.1-2,0-3.1-0.1h-0.6l-0.3-0.1l-0.1-0.1l-0.5-0.3c-0.4-0.2-0.8-0.3-1.2-0.4c-1.1-0.3-2.4-1.6-3.5-2.4c-1.2-1-2.6-1.8-4-2.5
		c-2.8-1.3-6.6-2.2-9.3-0.2c-1.4,1-2.2,2.4-2.9,4l-0.1,0.1l-0.1,0.1l-0.3,0.3l-0.3,0.1h-0.2l-0.3-0.1l-0.3-0.1
		c-1-0.6-1.9-1.6-2.8-2.6c-0.2-0.2-0.4-0.4-0.5-0.6l-0.3-0.3c0-0.4-0.4-0.9-0.5-1.1c-0.3-0.4-0.7-0.8-1.1-1.1
		c-0.6-0.6-1.2-1.3-1.7-2l-1.8-2.5c-1.1-1.5-2.1-2.9-3.1-4.4c-4.3-6-8.5-12.1-13.2-17.9c-1.1-1.3-2.2-2.9-3.5-4
		c-0.6-0.5-1.2-1-1.8-1.5c-0.6-0.6-1.2-1.4-1.9-2c-2.4-2.5-5.1-4.7-8-6.6s-5.9-4.1-9.2-5.2c-1.8-0.6-3.8-0.8-5.7-0.5
		c-1.6,0.3-3.1,1.1-4.4,2.1c-2.7,2.2-4.6,5.2-6.4,8.1c-1.8,2.9-3.9,6.5-5.6,9.9c-3.4,6.5-6.5,13.1-9.4,19.8s-5.7,13.4-8.7,20
		c-1.5,3.4-3.1,6.8-4.7,10.1c-0.1,0.3-0.2,0.6-0.4,0.8c0,0-0.2,0.2,0,0.1l-0.4,0.2l-0.5,0.1l-1,0.2c-1.4,0.3-3,0.1-4.5,0.1
		s-3.4,0.3-4.9,1.2c-0.7,0.4-1,1.1-0.8,1.8c0.8,4.4,3,8.3,5.7,11.7c-4.6,0.2-9.1,0.6-13.6,1.1c-1.2,0.2-2.1,1.3-1.4,2.5
		c2.4,4.2,5.2,8.1,8.2,11.9c-3.5,0.4-6.9,1-10.3,1.5c-1,0.2-1.5,1.6-1,2.4c2.3,3.6,5.2,7,8.4,9.9l-7.9,0.5c-0.9,0-1.6,0.8-1.6,1.6
		c0,0.8,0.8,1.7,1.6,1.6l12.1-0.8c1.7-0.1,2.1-2.1,0.8-3.1c-3.5-2.7-6.6-5.8-9.2-9.4c3.4-0.6,6.8-1.1,10.2-1.4
		c1.4-0.2,2.2-1.7,1.2-2.8c-3.1-3.6-5.9-7.4-8.4-11.5c4.8-0.5,9.6-0.9,14.4-0.9c0.9,0,1.6-0.7,1.6-1.6c0-0.4-0.2-0.9-0.5-1.1
		c-3.2-3.3-5.7-7.2-6.9-11.6c1.1-0.4,2.2-0.3,3.4-0.3c1.5,0.1,3,0,4.5-0.3c1.4-0.3,2.9-0.9,3.6-2.2c0.8-1.3,1.5-3.2,2.3-4.7
		c3.1-6.6,6-13.3,8.9-20s5.8-13.4,9-19.9c1.6-3.3,3.3-6.6,5.2-9.9c0.9-1.7,1.9-3.3,2.9-5c0.9-1.6,1.9-3.2,3-4.7
		c1.5-2.1,3.8-4.8,6.6-5.1c3.4-0.4,6.6,1.7,9.4,3.4c2.9,1.7,5.5,3.7,8,6c1.3,1.1,2.5,2.4,3.7,3.6c0.5,0.6,1.1,1.1,1.6,1.5
		c0.7,0.6,1.4,1.2,2,1.9c4.7,5.5,8.9,11.5,13.1,17.4c2.1,3,4.3,6.1,6.4,9.1c0.6,0.8,1.2,1.6,1.9,2.3l1,1l0.3,0.3v0.1l0.1,0.3
		c0.5,1.2,1.7,2.4,2.6,3.3c2,2,5,3.7,7.5,1.5c0.6-0.5,1.1-1.2,1.3-1.9c0.3-0.6,0.7-1.2,1.1-1.7c1-1,2.4-1.1,3.7-1
		c2.8,0.4,5.3,2.4,7.5,4.1l1.8,1.3c0.6,0.5,1.3,0.6,2,0.8s0.8,0.6,1.4,0.7c0.6,0.1,1.2,0.2,1.9,0.2l2.2,0.1l0.4,0.1h0.5
		c0.7,0,1.3-0.1,1.9-0.3c0.4-0.1,0.8-0.3,1.1-0.6c0.3-0.2,0.6-0.3,0.9-0.3c1.4-0.4,2.6-1.5,3.7-2.3c2.2-1.6,4.7-3.5,7.4-3.8
		c1.3-0.1,2.6,0.1,3.4,1.1c0.4,0.5,0.8,1,1,1.6c0.3,0.7,0.8,1.4,1.3,1.9c2.5,2.2,5.4,0.6,7.4-1.4c0.9-0.9,1.8-1.9,2.5-2.9
		c0.3-0.5,0.6-0.9,0.9-1.4l0.4-0.4l0.6-0.6c0.6-0.7,1.2-1.4,1.7-2.2l1.8-2.4l3.1-4.3c4.1-5.8,8.1-11.6,12.5-17.1
		c1.1-1.4,2.2-3,3.6-4.1c0.6-0.5,1.2-0.9,1.7-1.5c0.5-0.6,1.1-1.3,1.8-1.9c2.3-2.4,4.9-4.5,7.7-6.4c1.4-1,2.8-1.8,4.2-2.7
		c1.4-0.9,3-1.7,4.7-2.2c1.7-0.5,3.1-0.5,4.5,0.1c1.3,0.6,2.4,1.4,3.3,2.5c2.4,2.5,4.1,5.6,5.8,8.5s3.6,6.4,5.3,9.7
		c3.3,6.4,6.2,12.9,9.1,19.5s5.6,13.1,8.6,19.6c0.8,1.6,1.5,3.2,2.2,4.8c0.4,0.8,0.8,1.6,1.1,2.4c0.4,0.8,0.7,1.6,1.2,2.3
		c0.5,0.7,2.2,1.6,3.6,1.9c1.6,0.3,3.2,0.4,4.7,0.3c1-0.1,2,0,3,0.3c-1.2,4.4-3.7,8.3-6.9,11.6c-1.2,1.2,0,3,1.6,2.7
		c2.7-0.5,5.5-0.5,8.2,0c1.4,0.3,2.8,0.7,4.1,1.2l1.9,0.8l0.8,0.4l0.2,0.1h0c0,0,0,0,0,0h0l0,0l0,0L321,111c0,0.1-0.1,0.3-0.1,0.3
		l-0.3,0.4c-0.1,0.1-0.1,0.2-0.1,0.2h-0.1c-1.3,1.4-2.7,2.8-4.2,4c-1.7,1.4-3.4,2.9-4.9,4.5c-1,1.1-0.3,2.6,1.1,2.8
		c3,0.4,5.8,1.2,8.7,1.9c-2.1,3.3-4.4,6.5-7.6,9c-1.3,1-0.9,2.9,0.8,3.1c1.7,0.1,3.6,1.2,5.3,2.1s3.9,2,6.1,2.2
		c0.9,0.1,1.6-0.8,1.6-1.6C327.4,139,326.7,138.3,325.9,138.3z"/>
	<path style="stroke:#000000;stroke-width:3;stroke-linecap:round;stroke-linejoin:round;stroke-miterlimit:10;" d="M285.9,118.5
		c-0.8-2.6-1.7-5.2-2.9-7.7l-1.6-3.6c-0.1-0.3-0.3-0.6-0.4-0.9c0,0,0-0.1,0-0.1l0,0l0,0c0-0.1,0-0.1,0,0l0,0
		c-0.1-0.2-0.2-0.3-0.2-0.5c-0.3-0.6-0.5-1.2-0.8-1.9c-1.1-2.7-2-5.5-3-8.3c-2-5.6-4-11.1-6-16.7L265,62c-0.9-2.3-1.6-5.1-3.6-6.8
		c-1.1-1-2.5-1.5-4-1.5c-1.3,0-2.7,0.2-4,0.6c-2.6,0.8-5.2,1.9-7.7,3c-2.5,1.1-5.4,2.3-8,3.6c-1.2,0.6-2.5,1.2-3.7,1.9
		c-0.8,0.4-1.1,1.4-0.6,2.2c0,0,0,0,0,0c0.5,0.8,1.4,1.1,2.2,0.6c2.5-1.3,5-2.5,7.5-3.6l1.9-0.8l0.9-0.4l0.3-0.2l0.5-0.2
		c1.2-0.5,2.5-1.1,3.8-1.5c1.3-0.5,2.5-1,3.7-1.4l1.7-0.5h0.6c0.3,0,0.6,0,0.9,0h0.2c0,0,0,0,0,0l0.2,0.1l0.5,0.1h0.1c0,0,0,0,0.1,0
		h0l0.4,0.2l0.1,0.1l0.2,0.2l0.3,0.4l0.1,0.1c0,0,0.1,0.2,0.1,0.2c0.2,0.2,0.3,0.5,0.5,0.7c0.1,0.2,0.2,0.5,0.4,0.7
		c0,0.1,0.1,0.1,0.1,0.1v-0.1c0.1,0.1,0.1,0.3,0.2,0.5c1,2.6,1.9,5.3,2.9,7.9l3,8.2c2,5.4,3.9,10.8,5.9,16.3c2,5.5,3.8,10.7,6,16
		c0.5,1.1,1,2.3,1.5,3.5c0.1,0.1,0.1,0.2,0.1,0.3c0,0,0.1,0.2,0.1,0.3l0.4,1l0.7,1.7c0.7,1.9,1.2,3.9,2,5.8c0.3,0.7,0.6,1.5,0.9,2.2
		h-0.3l-0.3-0.1c-0.8-0.1-1.5-0.4-2.2-0.5c-0.9-0.2-1.8-0.4-2.7-0.6l-0.7-0.2l-0.2-0.1l-0.3-0.1c-0.5-0.2-1-0.5-1.4-0.8l-0.6-0.4
		l-0.3-0.2l-0.2-0.1l-0.2-0.2l-0.3-0.3c-0.2-0.2-0.4-0.3-0.6-0.5l-0.5-0.5l-0.2-0.3l-0.1-0.1c0,0,0,0,0,0h0
		c-0.3-0.4-0.5-0.8-0.8-1.2l-0.1-0.3c0-0.1-0.2-0.4-0.1-0.2l-0.1-0.2c0-0.1-0.1-0.2-0.1-0.4c-0.1-0.2-0.1-0.5-0.2-0.7
		c0-0.1-0.1-0.2-0.1-0.3c0,0,0-0.1,0-0.1c0-0.6,0-1.1,0-1.7c0-0.1,0-0.2,0-0.3c0-0.1,0-0.3,0.1-0.4l0.2-0.9c0.3-1.3,0.6-2.7,0.7-4.1
		c0.1-1-0.1-2-0.1-3c0-1-0.2-2.5-1.2-3.3c-1-0.8-2.4-0.6-3.6-0.3l-0.7,0.2l-0.3,0.1h-0.1c-0.7,0-1.3,0-1.9,0.1l-4.3,0.2l-2,0.1
		c0.9-3.3,1.6-6.7,2-10.1c0.1-0.5,0-1-0.3-1.4c-0.3-0.4-0.8-0.7-1.3-0.7c-3.5,0.5-7,0.6-10.5,1.2c0.2-2.3,0.4-4.6,0.6-6.9l0.1-1.3
		c0.1-0.9-0.8-1.6-1.6-1.6l-7-0.3c0-1-0.2-2-0.7-2.9c-0.3-0.7-1.2-0.9-1.8-0.8l-0.3,0.1h-1.5l-0.2-0.1l-0.5-0.1l-0.5-0.2l-0.2-0.1
		h-0.1c-0.8-0.4-1.8-0.3-2.2,0.6s-0.3,1.9,0.6,2.2c1.3,0.6,2.7,0.9,4.1,0.9v0.1c0,0.2,0,0.4,0,0.7c0,0,0,0.2-0.1,0.2l-0.1,0.4
		c-0.3,1.1,0.6,2,1.6,2.1l7.1,0.3c-0.2,2.5-0.4,4.9-0.7,7.4l-0.1,1.3c-0.1,1.1,1.1,1.8,2.1,1.6c1-0.2,2-0.5,3.1-0.6L251,94l0.4-0.1
		h0.1l1.5-0.2l4.2-0.4c-0.5,3.4-1.3,6.7-2.4,10c-0.2,0.9,0.3,1.8,1.1,2c0.1,0,0.3,0.1,0.4,0.1l8.9-0.4c0.8,0,1.5-0.1,2.2-0.2
		c0.5-0.1,1-0.2,1.4-0.3l0.6-0.1c0,0.2,0,0.5,0,0.7c0,0.5,0,0.9,0,1.3c0.1,0.6,0,1.3,0,1.9v0.2l-0.1,0.5l-0.2,1
		c-0.6,2.6-1.1,5.1-0.2,7.6c1.6,4.4,5.8,7.4,10.2,8.4c0.8,0.2,1.5,0.3,2.3,0.5c0.9,0.3,1.9,0.4,2.9,0.5c1,0.1,2.1-0.2,2.8-1
		s0.7-1.9,0.4-2.9C287.2,121.5,286.4,120.1,285.9,118.5z"/>
</g>
</svg>
