<?xml version="1.0" encoding="utf-8"?>
<!-- Generator: Adobe Illustrator 27.9.0, SVG Export Plug-In . SVG Version: 6.00 Build 0)  -->
<svg version="1.1" id="Layer_1" xmlns="http://www.w3.org/2000/svg" xmlns:xlink="http://www.w3.org/1999/xlink" x="0px" y="0px"
	 viewBox="0 0 274.4 132.6" style="enable-background:new 0 0 274.4 132.6;" xml:space="preserve">
<g>
	<path style="stroke:#000000;stroke-width:3;stroke-linecap:round;stroke-linejoin:round;stroke-miterlimit:10;" d="M205.9,70.9
		c-0.4-0.6-0.9-1.1-1.3-1.7l-0.3-0.4l-0.1-0.1l-0.1-0.1l-0.7-0.9c-0.9-1.2-1.7-2.3-2.5-3.5c-1.6-2.4-2.9-5-4.3-7.6
		c-2.3-4.4-5.5-8.5-9.2-11.8c-3.7-3.3-7.9-5.9-12.5-7.8c-2.2-0.9-4.5-1.5-6.8-2.2c-1.1-0.3-2.3-0.7-3.4-1.1l-0.2-0.1l-0.3-0.2
		l-0.9-0.4c-0.5-0.3-0.9-0.6-1.4-0.9l0,0h0l-0.1-0.1l-0.3-0.3l-0.7-0.6c-0.6-0.6-1.6-0.6-2.2,0c-0.6,0.6-0.6,1.6,0,2.2
		c3.4,3.7,8.7,4.3,13.3,5.8l1.7,0.6l0.8,0.3l0.1,0.1l0.4,0.2c1.1,0.5,2.2,1,3.3,1.6c1,0.6,2,1.2,3,1.9l1.4,1l0.7,0.5h-0.1l0.2,0.2
		l0.4,0.3c1.8,1.5,3.5,3.2,5.1,5c0.4,0.4,0.8,0.9,1.2,1.4h0c0,0,0.1,0.1,0.1,0.1c0.1,0.1,0.2,0.2,0.3,0.3c0.2,0.3,0.4,0.5,0.5,0.7
		c0.7,1,1.4,2.1,2,3.2c1.4,2.5,2.6,5.1,4.1,7.6c1.6,2.5,3.3,4.9,5.1,7.1c3.7,4.7,7.5,9.3,11.3,13.9l1.5,1.8c0.6,0.6,1.6,0.6,2.2,0
		c0.6-0.7,0.6-1.5,0-2.2C213.6,80.3,209.7,75.6,205.9,70.9z"/>
	<path style="stroke:#000000;stroke-width:3;stroke-linecap:round;stroke-linejoin:round;stroke-miterlimit:10;" d="M267.9,36.4
		c-0.4-2-1.9-3.6-3.4-4.9c-1.5-1.3-3.1-2.6-4.8-3.7c-3.3-2.2-6.8-4-10.6-5.4c-3.9-1.4-8-2.3-12.1-2.7c-4.4-0.5-8.9-0.6-13.3-1.2
		l-0.9-0.1h-0.6l-1.7-0.3c-1-0.2-2.1-0.4-3.1-0.6c-2.1-0.5-4.1-1.1-6.1-1.8c-4-1.3-8-2.7-12.2-3.4c-2.2-0.4-4.6-0.8-6.8-0.2
		c-2.2,0.6-3.6,2-5.1,3.4c-0.5,0.6-1.1,1.1-1.7,1.7l-0.2,0.2l-0.5,0.3l-1,0.7c-1.4,0.8-2.8,1.5-4.2,2.3s-2.2,1.2-3.1,2.1
		c-0.1,0.1-0.2,0.2-0.2,0.3c-1.2-0.6-2.6-0.9-4-0.9c-0.5,0.1-1,0.1-1.5,0.3l-0.3,0.1h-0.3l-2.4,0.2c-8.8,0.3-17.5-0.9-26.3,0.2
		c-1,0.1-2,0.3-3,0.5c-3.3,0.2-6.8,0-10.1-0.1c-4.5-0.2-9-0.5-13.5-0.9c-2-0.2-4-0.3-6-0.6l-2.6-0.3h-0.2l-0.5-0.1l-1-0.2
		c-1.5-0.3-3-0.3-4.4,0.3L99.4,22c-0.1-0.1-0.1-0.2-0.2-0.3c-0.9-0.9-2.2-1.6-3.3-2.2S93,18,91.6,17.2l-1-0.7l-0.4-0.3c0,0,0,0,0,0
		l-0.3-0.2c-0.7-0.6-1.2-1.2-1.8-1.8c-1.5-1.5-3.3-2.8-5.5-3.2c-2.1-0.3-4.7,0-7,0.5c-2.1,0.4-4.2,1-6.3,1.7
		c-4.2,1.3-8.3,2.7-12.5,3.7c-1.1,0.2-2.2,0.4-3.3,0.6h-0.5l-0.8,0.1l-1.8,0.2c-2.3,0.2-4.5,0.3-6.8,0.5c-4.4,0.3-8.9,0.8-13.2,2
		c-3.9,1.1-7.7,2.7-11.2,4.7c-1.7,1-3.4,2.1-5,3.3c-1.6,1.2-3.3,2.5-4.6,4c-1.3,1.5-2.3,3.8-1.6,5.9c0.7,2.1,2,3.1,3.5,4.1
		s3.1,1.7,4.6,2.6l2.1,1.2c0.1,0.3,0.2,0.5,0.3,0.7c0.3,0.4,0.7,0.8,1,1.2c0.2,0.2,0.3,0.3,0.4,0.5c0.1,0.1,0.2,0.2,0.3,0.3
		c0,0,0.1,0,0.1,0.1l0.1,0.1c0.6,0.8,1.2,1.6,1.8,2.5c1.2,1.6,2.3,3.4,3.3,5.1c1,1.8,2,3.6,2.9,5.4c0.2,0.4,0.4,0.9,0.6,1.3
		c0.1,0.2,0.2,0.5,0.3,0.7c0,0,0,0,0,0.1l0.2,0.5c0.2,0.5,0.3,0.9,0.4,1.4V66c0,0,0,0,0,0.1c0,0.1,0,0.2,0,0.3c0,0.3,0,0.6,0.1,0.9
		c0.2,3.1,0.3,6.2,0.6,9.2c0.3,3.1,0.8,6.2,2.1,9.1c0.6,1.5,1.5,2.8,2.6,4c1.1,1.2,2.5,2.1,4,2.7c-0.7,1.7-1.4,3.4-1.9,5.2
		c-0.8,2.8-1.2,6,0.4,8.6c1,1.6,2.5,2.6,3.9,3.7l4.6,3.4l0.1,0.1c-0.1,1.4-0.2,2.8-0.2,4.2c-0.1,1.4-0.2,2.7-0.3,4.1
		c-0.1,0.8,0.8,1.6,1.6,1.6c0.9,0,1.5-0.7,1.6-1.6c0.5-5.6,0.6-11.3,0.9-16.9c0.2-2.8,0.4-5.6,0.8-8.4c0-0.2,0-0.3,0-0.5
		c0-0.2,0-0.2,0.1-0.3v-0.1c0,0,0-0.1,0-0.1c0-0.1,0-0.2,0-0.3c0-0.2,0-0.3,0.1-0.5c0.1-0.7,0.2-1.4,0.3-2.1
		c0.2-1.3,0.5-2.7,0.8-3.9c0.3-1.3,0.7-2.6,1.1-3.9l0.7-1.9l0.2-0.5l0.1-0.2c0,0,0,0,0-0.1V82l0.1-0.2l0.3-0.5
		c1.1-2.5,2.7-4.7,4.1-7c3.1-5,5.4-10.5,8.5-15.5c0.8-1.2,1.5-2.5,2.4-3.6c0.2-0.3,0.4-0.6,0.6-0.9l0.3-0.4l0.1-0.1
		c0-0.1,0.2-0.2,0.2-0.2c0.4-0.6,0.9-1.2,1.4-1.7c2.1-2.4,4.3-4.7,6.3-7.2c2-2.5,3.3-4.5,4.8-6.8c0.7-1.1,1.4-2.1,2.2-3.1l0.2-0.2
		l0.3-0.3l0.6-0.8c0.4-0.5,0.8-0.9,1.3-1.3l0.7-0.6l0.3-0.3l0.2-0.2c0.5-0.4,1-0.7,1.5-1l0.8-0.4l0.4-0.2l0.3-0.1
		c0.7-0.3,1.4-0.5,2.1-0.7c1.5-0.4,3-0.9,4.2-1.9c0.6-0.4,1.2-0.9,1.8-1.4l0.2-0.2c0.2-0.1,0.3-0.2,0.5-0.3c0.3-0.2,0.5-0.3,0.9-0.4
		c1.1-0.3,1.7-0.3,2.8-0.1l2.4,0.3c1.8,0.2,3.6,0.4,5.4,0.6c4.4,0.4,8.8,0.7,13.3,0.9c3.8,0.2,7.6,0.4,11.5,0.3l1.9-0.1h0.4l1.4-0.3
		l0.7-0.1h0.5c1.1-0.1,2.1-0.3,3.2-0.3c2.3-0.2,4.5-0.2,6.8-0.2c4.4,0,8.8,0.3,13.2,0.3c1.7,0,3.4,0,5-0.2c0.8-0.1,1.6-0.2,2.4-0.3
		h0.8c0.2,0,0.4,0.1,0.6,0.1c0.6,0.1,1.2,0.4,1.8,0.8l0.2,0.2l0.2,0.2l0.7,0.6c0.6,0.5,1.1,0.9,1.8,1.3c1.3,0.7,2.6,1,4,1.5
		c0.5,0.2,1.1,0.3,1.6,0.5l0.2,0.1l0.4,0.2l0.9,0.5c0.4,0.3,0.8,0.5,1.2,0.8l0.2,0.1l0.3,0.3l0.6,0.6c0.8,0.8,1.6,1.6,2.3,2.5
		l0.2,0.2l0.2,0.3l0.4,0.6c0.4,0.5,0.7,1,1.1,1.6c1.3,1.9,2.5,3.9,3.9,5.7c1.7,2.4,3.6,4.6,5.5,6.8c1.9,2.1,4,3.9,5.8,6.1
		c1.6,1.9,3.1,3.9,4.4,5.9c1.3,2.2,2.5,4.5,3.6,6.8c1.1,2.3,1.9,4.3,2.9,6.8s2,5.3,2.7,8c3.3,11.2,4.5,22.7,5.5,34.2l0.4,4.2
		c0.1,0.8,0.7,1.6,1.6,1.6c0.9,0,1.6-0.7,1.6-1.6c-0.2-2.7-0.5-5.5-0.7-8.2l0.3-0.2l3.9-2.9c1.2-0.9,2.6-1.8,3.7-2.9
		c1-1.1,1.6-2.4,1.9-3.8c0.2-1.5,0.2-2.9-0.1-4.4c-0.5-2.3-1.4-4.6-2.3-6.8c3.8-5.2,6.5-11.1,8-17.4c0.4-1.7,0.7-3.4,0.9-5.2
		c0.1-0.8,0.2-1.6,0.3-2.5l0.1-1.2c0-0.1,0-0.1,0-0.2c0-0.1,0-0.3,0-0.3c0-0.2,0.1-0.5,0.2-0.7l0.2-0.6l0.1-0.3c0-0.1,0-0.1,0.1-0.2
		c0.2-0.4,0.3-0.7,0.5-1.1s0.8-1.6,1.2-2.4c0.8-1.5,1.6-3.1,2.5-4.6c0.9-1.5,2.1-3.3,3.2-4.8c0.6-0.8,1.1-1.6,1.7-2.3h0l0.3-0.3
		c0.2-0.2,0.3-0.4,0.4-0.5l1-1.2c0.2-0.2,0.3-0.4,0.3-0.7c1.5-0.9,3-1.7,4.5-2.5s3-1.6,4.1-2.8C267.4,40.5,268.3,38.4,267.9,36.4z
		 M19.2,43.1c-1.5-1.1-3.2-1.9-4.8-2.7l-0.9-0.6l-0.5-0.3l-0.3-0.2l-0.1-0.1l-0.8-0.7c-0.1-0.1-0.2-0.3-0.3-0.3l-0.2-0.3l-0.1-0.2
		L11,37.5C11,37.3,11,37.2,10.9,37c0-0.1,0-0.2,0-0.2v0c0-0.2,0-0.6,0-0.7c0-0.1,0,0.1,0,0s0-0.2,0.1-0.3l0.1-0.3c0,0,0,0,0,0
		l0.3-0.6c0-0.1,0.1-0.2,0.2-0.3l0.1-0.2c0.6-0.7,1.3-1.3,2-2l1.1-0.9l0.5-0.4l0.3-0.2l0.3-0.2c1.5-1.2,3.2-2.2,4.8-3.2
		c0.9-0.5,1.8-1,2.7-1.4l1.2-0.6l0.7-0.3l0.3-0.1h0.2c3.8-1.5,7.7-2.6,11.7-3.2h0.1L38,22l0.7-0.1l1.8-0.2l3.3-0.3
		c2.2-0.2,4.5-0.3,6.7-0.5s4.6-0.5,6.9-1c2.3-0.4,4.1-1,6.1-1.6c4.1-1.3,8.2-2.7,12.4-3.6c0.5-0.1,0.9-0.2,1.5-0.3l0.8-0.2h0.3
		l0.3-0.1c0.5-0.1,1.1-0.1,1.6-0.1h1.1l0.3,0.1c0.4,0.1,0.8,0.2,1.2,0.3l0.3,0.1l0.3,0.1l0.7,0.4c0,0,0,0,0,0
		c-1.3-0.1-2.5,0-3.8,0.1c-1.9,0.2-3.7,0.5-5.5,0.9c-1.6,0.3-3.3,0.8-4.8,1.4C68.5,18,67,19,65.7,20.2c-1.1,1.1-2.1,2.4-2.8,3.8
		c-0.8,1.4-1.4,2.9-2.1,4.4c-0.6,1.5-1.5,3.6-1.8,5.5c-0.8,4-0.6,8-0.8,12c0,1-0.1,2-0.2,2.9c0,0.2,0,0.4-0.1,0.6v0.1
		c0,0.1,0,0.2-0.1,0.3c0,0.1-0.2,0.9-0.3,1.4l-0.4,1.2L57,53c0,0.1-0.1,0.2-0.1,0.3c0,0.1,0,0.1-0.1,0.2c-0.4,0.8-0.8,1.6-1.2,2.4
		c-1.8,3.2-4.1,6.1-6.2,9.1c-0.5,0.8-1,1.5-1.5,2.3c-0.2,0.3-0.4,0.7-0.6,1.1c-0.1,0.2-0.2,0.3-0.3,0.5l-0.2,0.3l-0.1,0.1h0
		l-0.4,0.4c-0.1,0.1-0.4,0.3-0.1,0.1l-0.2,0.1h0l-0.3,0.1h-0.2l-0.3-0.1H45l-0.6-0.4c0,0-0.1-0.1-0.1-0.1l-0.2-0.2l-0.7-0.6
		c-0.7-0.7-1.4-1.4-2.1-2.1l-0.9-1.1l-0.4-0.6L40,64.8l-0.3-0.3c-1.2-1.6-2.3-3.3-3.4-4.9c-2.2-3.3-4.8-6.4-7.6-9.2
		C25.8,47.6,22.6,45.2,19.2,43.1z M38.9,88.6l-0.4-0.2l-0.2-0.1l-0.8-0.7c-0.2-0.3-0.4-0.5-0.6-0.7l-0.1-0.1v-0.1l-0.3-0.4
		c-0.4-0.6-0.7-1.1-1-1.8l-0.1-0.3c0-0.1-0.1-0.2-0.1-0.3l-0.4-1c-0.2-0.7-0.4-1.4-0.6-2.1c-0.2-0.7-0.3-1.5-0.4-2.2l-0.1-0.6v-0.2
		c-0.1-0.4-0.1-0.8-0.2-1.2c-0.3-3-0.4-6.1-0.6-9.1c0-1.1-0.1-2.2-0.4-3.3c-0.3-1.1-0.8-2.1-1.3-3.1c-0.9-1.8-1.8-3.6-2.8-5.4
		c-0.5-1-1.1-1.9-1.7-2.9c0.9,0.9,1.8,1.8,2.6,2.8c0.3,0.3,0.6,0.7,0.9,1.1l0.5,0.6l0.2,0.2l0.2,0.3h0l0.2,0.2l0.2,0.3l0.4,0.6
		c0.3,0.4,0.6,0.9,0.9,1.3c1.2,1.6,2.3,3.3,3.5,5c1.2,1.7,2.5,3.3,3.9,4.8c1.1,1.1,2.4,2.3,3.9,2.8v0.1c0,0.2,0.1,0.3,0.1,0.5
		c0,0.1,0,0.2,0,0.3l0.1,1.1c0,0.7,0,1.5,0,2.2c0,0.2,0,0.3-0.1,0.5c0,0.1,0,0.2,0,0.3c0,0.1,0,0.1,0,0.2c0,0.1,0,0.2,0,0.3
		l-0.1,0.6c-0.2,0.7-0.3,1.5-0.5,2.2c-0.4,1.5-0.9,2.9-1.5,4.3l-0.4,1l-0.2,0.5v0.1L41.5,87l-0.9,2.1c0,0.1-0.1,0.2-0.1,0.3
		l-0.2-0.1l-0.5-0.2L38.9,88.6z M96.7,24L96.6,24h-0.1l-0.1,0.1l-0.8,0.5l-0.5,0.3h0L94.8,25c-0.7,0.3-1.4,0.5-2.1,0.7
		c-1.4,0.4-2.7,0.9-3.9,1.6c-4.6,2.7-7.3,7.6-10.2,11.9C76.8,41.6,75,43.9,73,46c-2.1,2.4-4.3,4.7-6.2,7.3
		c-3.4,4.9-5.9,10.3-8.7,15.5c-0.7,1.3-1.4,2.6-2.2,3.9c-0.8,1.3-1.5,2.4-2.3,3.6c-1.4,2.4-2.6,4.9-3.4,7.6
		c-1.8,5.4-2.6,11-3.1,16.7c-0.3,3.1-0.4,6.1-0.6,9.2l-2.7-2l-1-0.7l-0.5-0.3c0-0.1-0.1-0.1-0.2-0.1c0,0,0,0,0,0
		c-0.5-0.4-1-0.9-1.5-1.4c-0.1-0.1-0.1-0.2-0.2-0.3l-0.3-0.4c-0.1-0.1-0.2-0.3-0.2-0.4c0,0,0.2,0.3,0,0c-0.1-0.3,0-0.2-0.1-0.2
		c0-0.1-0.2-0.6-0.2-0.9c0,0,0,0,0-0.1v-0.1c0-0.2,0-0.3,0-0.5c0-0.3,0-0.6,0-0.9c0-0.2,0-0.3,0-0.5c0-0.1,0-0.2,0-0.2
		c0.1-0.7,0.3-1.3,0.5-2c0.4-1.3,0.9-2.6,1.4-3.9l0.4-0.9c0.1-0.2,0.1-0.3,0.2-0.5c0-0.1,0.1-0.2,0.1-0.3c0.3-0.7,0.6-1.4,0.9-2.1
		c1.2-2.8,2.5-5.6,3.3-8.6c0.9-3,1.3-6.4,0.8-9.7c1.4-0.8,2.2-2.4,3.1-3.8c0.9-1.4,2.1-3.1,3.2-4.6c2.2-3.1,4.5-6.2,6-9.8
		c0.7-1.8,1.2-3.6,1.4-5.5c0.2-2,0.3-3.9,0.3-5.9c0.1-2,0.1-4,0.3-6.1c0-0.2,0.1-0.4,0.1-0.7c0-0.1,0-0.2,0.1-0.3v-0.1
		c0.1-0.5,0.2-1,0.3-1.5c0.2-0.9,0.4-1.9,0.8-2.8c0.1-0.2,0.2-0.4,0.3-0.6v-0.1l0.1-0.3l0.6-1.3c0.3-0.8,0.7-1.5,1-2.2
		c0.3-0.7,0.7-1.4,1.1-2.1c0.2-0.3,0.3-0.6,0.6-0.9l0.3-0.5l0.1-0.2h0c0,0,0,0,0-0.1c0.5-0.6,1-1.1,1.6-1.6l0.1-0.1l0.1-0.1l0.5-0.3
		l1.1-0.6l0.4-0.2l0.5-0.2l1.2-0.3c0.8-0.3,1.6-0.5,2.5-0.7l2.6-0.6l1.3-0.2l0.7-0.1l0.4-0.1c1.7-0.2,3.5-0.3,5.2-0.1h0.3l0.6,0.1
		l1,0.3c0.3,0.1,0.7,0.2,1,0.3l0.2,0.1l0.5,0.3c0.2,0.1,0.5,0.2,0.7,0.2l0.6,0.4c1.4,0.9,2.8,1.6,4.2,2.3l1.7,1l0.6,0.4
		c0,0,0,0.1,0.1,0.1L96.7,24L96.7,24z M236,103.8L236,103.8L236,103.8v0.2c0,0.2-0.1,0.3-0.1,0.5c0,0.1-0.1,0.3-0.1,0.4
		c0,0.1,0,0.2-0.1,0.2c0,0,0,0.1,0,0.1l-0.1,0.3l-0.3,0.4l-0.1,0.2c0,0.1-0.3,0.3,0,0.1l-0.3,0.4c-0.3,0.3-0.5,0.5-0.8,0.8l-0.4,0.3
		l-0.3,0.2l-1,0.8l-3.4,2.6c-0.8-8-1.9-15.9-3.9-23.6c-1.4-5.6-3.3-11-5.6-16.2c-2-4.8-4.4-9.4-7.4-13.7c-1.6-2.2-3.4-4.3-5.4-6.3
		c-2.1-2-4-4.1-5.9-6.4c-1.5-1.9-3-4-4.4-6.1c-1.4-2.1-2.7-4-4.2-5.9c-1.5-1.8-3.2-3.4-5.2-4.6c-1.1-0.6-2.3-1.1-3.6-1.5l-1.9-0.6
		c-0.6-0.2-1.1-0.4-1.6-0.7c-0.3-0.2-0.6-0.4-0.9-0.7l0.2-0.1c0,0,0-0.1,0.1-0.1l0.7-0.5l1.7-1c1.4-0.7,2.8-1.5,4.2-2.3l0.6-0.4
		c0.3,0,0.5-0.1,0.7-0.2l0.4-0.3l0.2-0.1c0.3-0.2,0.7-0.3,1-0.3l1-0.3l0.6-0.1h0.3c1.7-0.2,3.4-0.1,5.1,0.1l0.6,0.1l0.4,0.1l1.4,0.3
		c0.9,0.2,1.7,0.3,2.5,0.5c1.6,0.3,3.2,0.8,4.8,1.4l0.3,0.1h0.1l0.5,0.3l1.3,0.7c0.7,0.4,1.5,0.9,2.1,1.4h0.1l0.3,0.2l0.5,0.4l1,1
		c0.6,0.6,1.2,1.2,1.7,1.9h0l0.2,0.3l0.3,0.5c0.3,0.4,0.5,0.8,0.7,1.1c0.2,0.3,0.4,0.7,0.6,1.1l0.3,0.6c0,0.1,0.1,0.2,0.1,0.3
		l0.1,0.3c0.8,1.9,1.3,3.9,1.6,5.9c0.1,0.3,0.1,0.5,0.1,0.8c0,0.1,0,0.2,0.1,0.3c0,0.1,0,0.2,0,0.3c0,0.1,0,0.2,0,0.3
		c0,0.1,0,0.2,0,0.3l0.1,0.9c0.1,1,0.2,2.1,0.3,3.1c0.2,2.2,0.4,4.3,0.7,6.5c0.6,4.1,1.6,8.1,3,12c0.8,2,1.6,4,2.6,5.9
		c0.5,0.9,0.9,1.8,1.5,2.7c0.5,0.9,1,1.7,1.8,2.4c0.3,0.3,0.6,0.5,0.9,0.6v0.3c0.9,6,2.3,11.9,4.2,17.6c0.2,0.6,0.4,1.1,0.6,1.7
		c-0.1,0.6,0.1,1.1,0.5,1.5l0.4,1c0.5,1.2,1,2.5,1.4,3.8c0.2,0.6,0.3,1.2,0.4,1.9c0,0.1,0.1,0.3,0.1,0.4l0,0c0,0.2,0,0.2,0,0.3
		C236,102.5,236,103.2,236,103.8z M239.2,82.7C239.2,82.8,239.2,82.7,239.2,82.7L239.2,82.7z M243.9,63.4c-0.4,0.9-0.7,1.8-0.9,2.7
		c-0.2,1-0.2,2-0.3,3c0,0.4-0.1,0.8-0.1,1.2c0,0.2-0.1,0.3-0.1,0.5c0,0.1,0,0.2,0,0.2c0,0.1,0,0.2,0,0.2c-0.1,0.8-0.3,1.6-0.4,2.5
		c-0.3,1.6-0.7,3.3-1.2,4.8c-0.3,0.8-0.5,1.6-0.8,2.4l-0.4,1.1c-0.1,0.2-0.1,0.3-0.2,0.5c0,0.1-0.1,0.3-0.2,0.3
		c-1,2.4-2.3,4.7-3.7,6.9c-0.7-2.1-1.3-4.3-1.9-6.5c-0.8-3.2-1.5-6.4-1.9-9.6c0.8-0.3,1.5-0.8,2.2-1.3c1.5-1.3,2.8-2.7,4-4.2
		c1.3-1.6,2.4-3.3,3.6-5l1.6-2.4l0.9-1.2l0.3-0.5l0.2-0.2l0.2-0.3c1.3-1.6,2.7-3.2,4.2-4.7C246.9,57.1,245.3,60.2,243.9,63.4z
		 M264.9,37.5c0,0.1,0,0.2,0,0.3v0.1c0,0,0,0.1,0,0.1c0,0-0.1,0.3-0.1,0.5c-0.1,0.1-0.1,0.1-0.1,0.2l-0.3,0.5h0l-0.2,0.2l-0.3,0.3
		c-0.1,0.2-0.3,0.3-0.4,0.4l-0.1,0.1l-0.2,0.1c-1.4,1-2.9,1.7-4.4,2.5c-1.5,0.8-3.3,1.9-4.8,3c-3.2,2.2-6.2,4.8-8.8,7.6
		c-2.7,2.9-4.8,6.1-7,9.2c-0.6,0.8-1.1,1.6-1.7,2.4l-0.4,0.6l-0.2,0.2c-0.1,0.1-0.2,0.2-0.2,0.2l-0.9,1.2c-0.6,0.7-1.3,1.4-2,2.1
		l-1,0.9l-0.1,0.1c0,0-0.3,0.2-0.3,0.2l-0.6,0.3c0,0,0,0-0.1,0l-0.3,0.1h-0.1l-0.2-0.1h0l-0.2-0.1c0.3,0.2,0,0-0.1-0.1
		c-0.2-0.1-0.3-0.3-0.4-0.4c0.1,0.1-0.1-0.2-0.2-0.3c-0.1-0.1-0.5-0.8-0.8-1.2c-1-1.8-1.9-3.6-2.7-5.5l-0.1-0.2
		c0-0.1-0.1-0.1-0.1-0.2l-0.3-0.7c-0.2-0.5-0.4-1-0.6-1.5c-0.3-0.9-0.7-1.9-1-2.9c-0.6-1.9-1-3.9-1.4-5.9c-0.1-0.5-0.2-1-0.3-1.5
		l-0.1-0.7c0-0.1,0-0.2-0.1-0.3c0-0.1,0-0.3,0-0.3c-0.1-1-0.2-2.1-0.3-3.1c-0.2-2-0.3-4-0.6-6.1c-0.5-4.1-1.3-8.1-3.4-11.7
		c-1.8-3.1-4.4-5.7-7.4-7.7c-2.9-1.9-6.3-2.8-9.7-3.5c-3.3-0.7-5.9-1.1-8.8-0.9c0.3-0.2,0.7-0.4,1-0.6l0.2-0.1h0.1
		c0.3-0.1,0.5-0.2,0.8-0.2l0.3-0.1h0.9c0.5,0,1.1,0,1.6,0.1h0.3c0,0,0.1,0,0.1,0h0l0.8,0.1l1.6,0.3c2,0.4,4,0.9,6,1.5
		c4,1.2,8,2.7,12,3.6c4.1,0.9,8.8,1.3,13.2,1.6c2.1,0.2,4.3,0.3,6.5,0.6l0.8,0.1h0.5l1.7,0.3c1,0.2,2,0.4,2.9,0.6
		c1.9,0.4,3.8,1,5.6,1.7l1.2,0.5l0.3,0.1c0,0,0.1,0,0.1,0h0l0.8,0.3l2.6,1.3c1.7,0.9,3.3,1.9,4.9,2.9l1.1,0.8L260,32l0.2,0.2
		l0.3,0.2c0.8,0.6,1.5,1.2,2.2,1.9l0.9,0.9l0.4,0.5h0c0,0,0,0,0,0.1l0.2,0.3c0.1,0.2,0.2,0.3,0.3,0.5l0.1,0.2c0,0,0,0.1,0,0.1
		c0,0.1,0.1,0.2,0.1,0.3l0.1,0.2L264.9,37.5L264.9,37.5z"/>
	<path style="stroke:#000000;stroke-width:3;stroke-linecap:round;stroke-linejoin:round;stroke-miterlimit:10;" d="M212.6,92.7
		c-0.1-0.1-0.1-0.2-0.1-0.3c0,0,0-0.1,0-0.1c0,0,0-0.1,0-0.1v0.1c-0.1-0.4-0.3-0.8-0.6-1.1l-2-2.9c-2.8-3.9-5.8-7.6-9.6-10.5
		c-2-1.5-4.1-2.7-6.2-4c-1-0.6-2.1-1.3-3.1-2l-1.5-1.1l-0.3-0.3H189l-0.1-0.1l-0.8-0.6c-1.8-1.5-3.4-3.1-5.2-4.6
		c-1.7-1.5-3.8-2.9-6.1-3.3c-5-0.8-9.5,2.1-13.3,5c-0.4,0.3-0.9,0.7-1.3,1.1c-0.4,0.4-0.6,1.7,0,2.2c0.6,0.6,1.6,0.6,2.2,0l1.1-0.9
		l0.5-0.4h0.1l0.4-0.3c0.8-0.6,1.6-1.2,2.5-1.7l1.2-0.7l0.6-0.3l0.3-0.1l0.2-0.1c0.9-0.3,1.7-0.6,2.7-0.8h2.1
		c0.4,0.1,0.9,0.2,1.3,0.3l0.3,0.1h0c0.2,0.1,0.4,0.2,0.6,0.3c0.4,0.2,0.8,0.4,1.1,0.7l0.6,0.4c0,0,0,0,0,0l0.3,0.3
		c0.7,0.6,1.4,1.2,2.1,1.9c3,2.8,6.3,5.4,9.8,7.6c1.8,1.1,3.6,2.1,5.3,3.3l1.3,0.9l0.1,0.1L199,81l0.6,0.5c0.7,0.6,1.4,1.3,2.1,2
		s1.5,1.5,2.1,2.3l1,1.2l0.5,0.6c0,0.1,0.1,0.2,0.1,0.2l0.3,0.3c1.3,1.7,2.5,3.4,3.7,5.2c0.2,0.7,0.6,1.4,0.9,2
		c0.3,0.6,0.4,0.8,0.6,1.3l0.1,0.2c0,0.1,0,0.1,0.1,0.1c0.2,0.7,0.8,1.3,1.5,1.3c0.9,0,1.6-0.7,1.6-1.6c0-0.7-0.4-1.3-0.7-1.9
		S212.9,93.3,212.6,92.7z M212.4,92.4C212.4,92.5,212.5,92.8,212.4,92.4L212.4,92.4z"/>
	<path style="stroke:#000000;stroke-width:3;stroke-linecap:round;stroke-linejoin:round;stroke-miterlimit:10;" d="M72.2,71.5
		c1.4-2.3,2.4-4.9,3.5-7.3c0.6-1.3,1.3-2.5,1.9-3.7c0.7-1.2,1.4-2.7,2.1-4c0.7-1.3,1.3-2.4,2.1-3.6l0.5-0.7l0.3-0.3l0.1-0.2l1.1-1.3
		c0.8-0.9,1.7-1.8,2.6-2.6l1.4-1.2l0.6-0.5l0.1-0.1l0.4-0.3c2-1.5,4.1-2.7,6.3-3.9c1.1-0.6,2.2-1.1,3.3-1.6l0.4-0.2l0.1-0.1l0.9-0.4
		l1.7-0.6c2.3-0.8,4.6-1.5,6.9-2.1c2.3-0.7,4.8-1.5,6.8-3c0.6-0.4,1.1-0.9,1.5-1.4c0.6-0.6,0.6-1.6,0-2.2c-0.6-0.6-1.6-0.6-2.2,0
		l-0.6,0.6l-0.3,0.3l-0.1,0.1l-0.1,0.1c-0.5,0.3-1,0.7-1.5,0.9l-0.8,0.4l-0.4,0.2c0.4-0.1-0.2,0.1-0.2,0.1l-1.7,0.6
		c-2.3,0.7-4.7,1.3-6.9,2.1c-4.7,1.6-9.3,3.8-13.4,6.5c-4.1,2.8-7.9,6.3-10.4,10.6c-0.8,1.3-1.5,2.6-2.1,4c-0.7,1.4-1.4,2.6-2.1,3.9
		c-1.3,2.4-2.3,5-3.5,7.4c-0.6,1.2-1.3,2.4-2,3.5L68,72.2l-0.2,0.2l-0.4,0.4l-1.5,1.9l-6,7.3l-1.5,1.8c-0.5,0.6-0.7,1.6,0,2.2
		c0.7,0.6,1.7,0.7,2.2,0c2-2.5,4-4.9,6-7.4C68.7,76.3,70.7,74.1,72.2,71.5z"/>
	<path style="stroke:#000000;stroke-width:3;stroke-linecap:round;stroke-linejoin:round;stroke-miterlimit:10;" d="M115.8,63.2
		c-3.4-2.8-8-3.5-12.2-3.2c-2.1,0.1-4.2,0.5-6.2,1.2c-2.4,0.9-4.2,2.6-6.1,4.3l-2.8,2.5l-1.6,1.3l-0.1,0.1h-0.1l-0.3,0.3l-0.9,0.6
		c-2.1,1.5-4.4,2.9-6.6,4.2c-2.3,1.4-4.4,2.9-6.3,4.7c-1.8,1.8-3.5,3.7-5,5.7c-0.7,1-1.5,2-2.1,3l-1.1,1.5l-0.5,0.7l-0.2,0.3
		c-0.1,0.2-0.2,0.4-0.2,0.6c0-0.2,0,0-0.1,0.1v0.1l-0.5,0.9c-0.3,0.7-0.7,1.3-0.9,2c-0.2,0.3-0.3,0.7-0.3,1c0,0.9,0.7,1.5,1.6,1.6
		c0.8,0,1.4-0.6,1.5-1.3l0.1-0.1c0-0.1,0-0.1,0.1-0.2l0.6-1.3c0.4-0.6,0.7-1.3,0.9-2c1.1-1.7,2.3-3.4,3.5-5l0.5-0.7v-0.1l0.2-0.3
		l1-1.3c0.7-0.8,1.4-1.6,2.1-2.3c0.7-0.8,1.5-1.5,2.2-2.1l0.5-0.4l0.3-0.3h0.1c0,0,0,0,0.1-0.1c0.4-0.3,0.9-0.7,1.4-1
		c1.8-1.2,3.7-2.3,5.6-3.5c2-1.2,3.9-2.6,5.6-4c1.7-1.3,3.2-2.8,4.8-4.3c0.3-0.3,0.7-0.6,1.1-0.9l0.2-0.2c0.1,0,0.1-0.1,0.2-0.1
		l0.6-0.4c0.4-0.3,0.8-0.5,1.2-0.7l0.3-0.1l0.2-0.1l0.6-0.2c0.8-0.2,1.6-0.4,2.4-0.6l1.2-0.2h0.4l0.7-0.1c1-0.1,2-0.1,3,0l1.4,0.1
		l0.4,0.1l0.7,0.1c0.5,0.1,0.9,0.2,1.4,0.4l0.7,0.2l0.3,0.1h0.1c0.4,0.2,0.8,0.4,1.2,0.6l0.5,0.3l0.2,0.2l0.1,0.1
		c0.6,0.5,1.6,0.7,2.2,0C116.4,64.8,116.5,63.8,115.8,63.2z"/>
	<path style="stroke:#000000;stroke-width:3;stroke-linecap:round;stroke-linejoin:round;stroke-miterlimit:10;" d="M167.5,46.9
		c0.5-0.6,0.7-1.7,0-2.2c-4.1-3.3-8.2-6.5-12.3-9.7c-1.9-1.4-3.8-2.8-6.1-3.7c-2.3-0.9-4.7-0.7-6.9-0.1c-2.3,0.6-4.2,1.5-6.3,2.1
		l-0.8,0.2l-0.4,0.1c0,0-0.1,0-0.1,0c-0.6,0.1-1.3,0.1-1.9,0.1l-1.8-0.1l-0.4-0.1h-0.3l-0.9-0.1c-2.4-0.4-4.8-0.7-7.3-0.4
		c-2.3,0.3-4.6,0.9-6.7,1.9c-4.6,2-8.6,5.3-12.3,8.6c-0.6,0.6-0.6,1.6,0,2.2c0.6,0.6,1.6,0.6,2.2,0l2.5-2.1l1.2-1l0.2-0.2l0.2-0.2
		l0.7-0.5c1.7-1.3,3.6-2.5,5.5-3.4c0.4-0.3,0.9-0.5,1.4-0.7c0.1,0,0.3-0.1,0.2-0.1h0.1l0.9-0.3c1-0.4,2-0.7,3.1-0.9l0.8-0.1h0.3
		l1.7-0.1l1.7,0.1l0.9,0.1h0.7c2.5,0.3,5,0.9,7.4,0.6c2.5-0.3,4.4-1.1,6.5-1.8c1-0.3,2-0.6,3-0.9l0.4-0.1h0.1l0.8-0.1h1.4
		c0.5,0.1,0.9,0.2,1.4,0.4l0.4,0.2h0.1l0.9,0.4c0.9,0.5,1.9,1.1,2.7,1.8c1.1,0.8,2.2,1.7,3.3,2.5l1.5,1.2l0.2,0.2l0.5,0.4l0.9,0.7
		c2.2,1.7,4.4,3.5,6.6,5.3C165.8,47.4,166.8,47.5,167.5,46.9z M134.5,33.5C134.4,33.5,134.3,33.6,134.5,33.5L134.5,33.5z"/>
</g>
</svg>
