<?xml version="1.0" encoding="utf-8"?>
<!-- Generator: Adobe Illustrator 27.9.0, SVG Export Plug-In . SVG Version: 6.00 Build 0)  -->
<svg version="1.1" id="Layer_1" xmlns="http://www.w3.org/2000/svg" xmlns:xlink="http://www.w3.org/1999/xlink" x="0px" y="0px"
	 viewBox="0 0 218 147.6" style="enable-background:new 0 0 218 147.6;" xml:space="preserve">
<g>
	<path style="stroke:#000000;stroke-width:3;stroke-linecap:round;stroke-linejoin:round;stroke-miterlimit:10;" d="M206,29.1
		c-2.5-5.5-6.7-10-11.9-13c-3-1.7-6.4-3-9.9-2.5s-6.2,3-8.8,5.2c-5.1,4.4-9.7,9.4-13.6,15c-1.6,2.4-3.1,4.8-4.5,7.3
		c-0.2,0.2-0.4,0.4-0.5,0.6c-0.1,0.2-0.1,0.4-0.2,0.6c-1.3,2.4-2.6,4.7-4,7.1c-2.9,5-6.1,9.9-10.4,13.9c-1,0.9-2.1,1.8-3.3,2.6
		c-0.1,0.1-0.2,0.1-0.3,0.2c-3.8-1.1-7.9-1.4-11.8-0.9c-4.1,0.5-8.3,0.9-12.5,0.8c-1.9-0.1-3.7-0.7-5.6-0.9
		c-0.9-0.1-1.9-0.2-2.8-0.1c-1.1,0.1-2,0.4-3,0.7c-7.5,1.9-15-1.6-22.1-3.3l-1.2-0.3c-1.9-5.4-4.3-10.7-7.2-15.7
		c-3-5.1-6.3-9.9-10-14.5c-3.7-4.6-7.6-8.9-11.9-13c-2.1-2.1-4.3-4.1-6.5-6c-2.2-2-4.5-4.3-7.4-5.1c-1.5-0.4-3.2-0.3-4.7,0.4
		c-1.3,0.6-2.5,1.6-3.6,2.6c-2,1.9-3.8,4.1-5.2,6.4c-3,4.7-4.8,10.1-6.1,15.5c-0.6,2.9-1.2,5.8-1.6,8.7C15,45,14.7,48.5,14.6,52
		c-0.1,3.4,0.2,6.9,0.8,10.3c0.6,3.3,1.6,6.6,2.3,9.8c0.7,3.3,0.8,6,0.9,9c0.1,3,0.1,5.9,0.6,8.8c0.5,2.9,1.6,5.6,3.4,7.9
		c1,1.2,2,2.4,2.7,3.8c0.7,1.4,1.2,2.9,2.2,4.1c0.7,1,1.8,1.7,2.9,2.1c0.3,1.8,0.7,3.6,1.1,5.3c0.4,1.8,1.1,4.1,1.2,6.1
		s-0.1,3.9-0.6,5.8c-0.4,1.9-1,3.8-1.5,5.7c-0.4,1.5,1.9,2.1,2.2,0.6c0.9-3.8,2.3-7.5,2.2-11.5c-0.1-2-0.6-4-1-6c-0.4-2-0.9-4-1.3-6
		c-0.6-3.6,0.3-7.1,1.8-10.4c1.6-3.2,3.6-6.2,6.1-8.8c5.1-5.5,11.2-10,16.8-15c2.7-2.4,4.9-5.2,7.9-7.2c1.4-0.9,2.9-1.6,4.4-2.2
		c1.7-0.6,3.6-0.7,5.5-0.6c3.7,0.2,7.4,1.5,10.9,2.5s7.2,2,11,2.2c1.9,0.1,3.7,0,5.6-0.4c0.8-0.2,1.7-0.5,2.5-0.7c1-0.2,2-0.2,3-0.1
		c1.9,0.2,3.7,0.9,5.6,1c2,0.1,3.9,0,5.9-0.1c2-0.1,4-0.3,6-0.6c2-0.2,3.9-0.5,6-0.4c1.9,0.1,3.8,0.4,5.6,0.9
		c0.9,0.2,1.8,0.5,2.7,0.8c0.9,0.4,1.7,0.8,2.5,1.3c1.6,0.9,3.3,1.9,4.7,3.1c1.4,1.2,2.8,2.6,4.2,3.9c2.8,2.6,5.5,5.3,7.8,8.3
		c4.5,5.8,9.3,11.5,13,17.9c1.8,3.2,3.8,6.7,3.9,10.5c0.1,2.1-0.2,4.2-0.6,6.4c-0.1,0.2-0.2,0.4-0.2,0.7c0,0.1,0,0.2,0,0.3
		c-0.3,1.5-0.6,2.9-0.8,4.4c-0.3,1.9-0.6,3.8-0.9,5.7c-0.3,1.5,2,2.1,2.2,0.6c0.4-2,0.7-4.1,1-6.1c0.2-1.3,0.4-2.6,0.7-3.9
		c1.2-0.4,2.3-1.2,3-2.2c1.1-1.4,1.5-3,2.3-4.5c1.5-2.8,4.1-4.8,5.7-7.4c1.6-2.7,2.2-6.4,2.6-9.7c0.3-3.4,1-6.7,1.9-10
		c1.9-6.7,5-12.9,7.8-19.2s5.6-12.9,6.9-19.8C209,42.4,208.8,35.4,206,29.1z M53,74.6l-0.1,0.2L52,75.6c-2.9,2.5-5.9,4.9-8.7,7.5
		c-1.5,1.3-2.9,2.7-4.2,4.1c-0.6,0.7-1.2,1.3-1.8,2c-0.3,0.3-0.6,0.7-0.9,1.1c-0.2,0.4-0.4,0.8-0.7,1.1c-0.3,0.3-0.6,0.6-0.8,1
		c-0.3,0.4-0.5,0.8-0.7,1.2c-0.5,0.9-1,1.8-1.5,2.7c-0.8,1.6-1.5,3.3-1.9,5.1c-0.3,1.2-0.5,2.5-0.5,3.7c-1.8-1.2-2.4-3.8-3.4-5.6
		c-0.8-1.3-1.8-2.5-2.7-3.7c-0.8-1.1-1.5-2.3-1.9-3.5c-1.8-5.3-1-11-1.5-16.4c-0.3-3.3-1.2-6.4-1.9-9.6c-0.8-3.2-1.5-6.4-1.7-9.6
		c-0.5-6.4,0.3-12.9,1.4-19.2c0.9-5.2,2.3-10.5,4.6-15.4c1.1-2.4,2.5-4.6,4.1-6.7c0.8-1,1.7-2,2.7-2.9c1-0.9,2-1.9,3.3-2.4
		c2.6-1.1,5.1,0.8,7,2.4c1.9,1.6,4.3,3.8,6.4,5.8c3.8,3.5,7.4,7.2,10.8,11.1c1.1,2.8,1.7,5.8,2.4,8.8c0.3,1.5,0.7,3,1.2,4.5
		c0.4,1.5,0.9,3.1,1.2,4.7l0.2,1.2c0,0.2,0.1,0.4,0.1,0.6c0,0.1,0,0.2,0,0.3c0,0,0,0.1,0,0.2c0.1,0.8,0.2,1.6,0.2,2.4
		c0,0.8,0,1.6-0.1,2.4c0,0.1,0,0.2,0,0.3c0,0.1,0,0,0,0c0,0.2,0,0.4-0.1,0.6c-0.1,0.4-0.1,0.8-0.2,1.1c-0.2,0.8-0.4,1.5-0.7,2.2
		l-0.4,1.1c0,0.1-0.1,0.2-0.1,0.3l-0.3,0.6c-0.7,1.5-1.4,2.9-2.1,4.3C56.7,68.4,54.9,71.5,53,74.6z M69.4,62.1
		c-0.8,0.3-1.5,0.7-2.2,0.9c-0.9,0.4-1.8,0.9-2.7,1.4c-1.5,1-2.9,2.1-4.2,3.4c-0.5,0.5-1,1-1.5,1.5l1.2-2.2c1.5-2.8,3-5.8,4-8.8
		c0.5-1.6,0.8-3.3,0.9-4.9c0-1.7-0.1-3.4-0.4-5.1c-0.5-3.2-1.6-6.3-2.3-9.4c-0.4-1.6-0.7-3.3-1.2-4.9c2.7,3.3,5.1,6.7,7.4,10.3
		c3,4.7,5.6,9.7,7.6,14.8c0.3,0.9,0.7,1.7,1,2.5C74.4,61.3,71.8,61.4,69.4,62.1z M153.3,75.8c-1.5-1.3-2.9-2.7-4.4-4
		c-1.5-1.2-3.1-2.2-4.7-3.2c-0.9-0.6-1.9-1-2.9-1.5c4.2-3.2,7.6-7.4,10.5-11.8c0.9-1.4,1.8-2.8,2.6-4.2c-0.3,1.8-0.6,3.6-0.8,5.4
		c-0.3,2.7-0.5,5.4-0.5,8.1c0,2.7,0.2,5.4,0.8,8c0.4,1.8,1,3.5,1.7,5.3l0.1,0.2L153.3,75.8z M206.1,44c-0.4,6.7-2.6,13.3-5.2,19.5
		c-2.6,6.2-5.8,12.3-8.2,18.7c-1.2,3.1-2.2,6.4-2.9,9.7c-0.6,3.2-0.8,6.5-1.3,9.7c-0.3,1.6-0.7,3.1-1.4,4.5s-1.7,2.5-2.6,3.6
		c-1,1.1-2.1,2.3-2.9,3.6s-1.4,3-2.2,4.4c-0.3,0.6-0.7,1-1.1,1.5c0.6-3.8,0.5-7.6-1-11.2c-3-7-7.6-13.1-12.2-19.1
		c-1.7-2.1-3.3-4.4-5.1-6.5c-0.6-1.5-1.2-3.1-1.8-4.6c-0.6-1.5-1.1-3.1-1.5-4.6c-0.2-0.8-0.4-1.6-0.6-2.4c0-0.2-0.1-0.4-0.1-0.6
		c0-0.1,0-0.1,0-0.2c0-0.3-0.1-0.6-0.1-0.9c-0.1-1.2-0.2-2.5-0.2-3.7c-0.1-2.7,0-5.3,0.3-8c0.1-0.7,0.1-1.3,0.2-2c0-0.1,0-0.2,0-0.3
		l0.1-0.5l0.1-1c0.2-1.3,0.4-2.6,0.7-3.9c0.4-2.2,1-4.3,1.7-6.4c0.6-1.1,1.2-2.2,1.9-3.3c3.2-5.4,7-10.5,11.4-15
		c2.3-2.3,4.7-4.5,7.3-6.5c1.2-0.9,2.5-1.9,4-2.4c1.6-0.5,3.3-0.5,4.8,0c2.8,0.7,5.5,2.3,7.8,4c2.2,1.7,4.1,3.7,5.7,6.1
		C205.3,31.5,206.5,37.7,206.1,44z"/>
</g>
</svg>
