<?xml version="1.0" encoding="utf-8"?>
<!-- Generator: Adobe Illustrator 27.9.0, SVG Export Plug-In . SVG Version: 6.00 Build 0)  -->
<svg version="1.1" id="Layer_1" xmlns="http://www.w3.org/2000/svg" xmlns:xlink="http://www.w3.org/1999/xlink" x="0px" y="0px"
	 viewBox="0 0 305.4 166.8" style="enable-background:new 0 0 305.4 166.8;" xml:space="preserve">
<g>
	<path style="stroke:#000000;stroke-width:3;stroke-linecap:round;stroke-linejoin:round;stroke-miterlimit:10;" d="M289,78.5
		c-0.6-1.7-2.4-3-3.8-4.1c-1.4-1.1-3.5-2.8-5.1-4.4c-0.7-0.8-0.7-1-1-2c-0.5-1.6-1.3-3.1-2.3-4.3c-4.4-5.7-11.4-7.7-17.2-11.5
		c-3-2-5.6-4.6-8.5-6.8c-2.9-2.2-6.1-3.8-9.4-5.2c-3.4-1.3-6.6-2.3-9.8-3.6c-3.2-1.3-6.5-3.1-9.6-5c-6-3.8-12.6-8.1-20.1-7.3
		c-1.7,0.2-3.3,0.7-4.9,1.2c-0.8,0.2-1.5,0.3-2.3,0.4c-1.1,0.1-1.8,0-2.7-0.6c-2.8-1.6-5.6-3.1-8.6-4.3c-6.4-2.6-13.2-4.3-19.9-5.5
		c-6.6-1.2-13.3-2-20-2.5c-7.1-0.5-14.3,1.2-21,3.7c-6.7,2.5-13.3,5.7-19.8,8.6c-1.6,0.7-3.1,1.4-4.7,2c-0.9,0.3-1.9,0.8-2.8,0.3
		c-0.9-0.5-1.1-1.1-1.7-1.6c-2.4-2-5.6-2.1-8.5-1.5c-2.9,0.6-6.1,2.2-9,3.6c-2.9,1.4-6.6,3.1-9.8,4.7c-6.6,3.3-13.2,6.7-19.5,10.5
		c-6.2,3.7-12,7.8-17.5,12.4c-5.4,4.5-10.9,9.6-12.7,16.7c-1.7,6.6-0.5,13.7,2.3,19.9c2.2,5,3.8,10.2,5.6,15.4
		c1.8,5.2,3.4,10.1,6.6,14.3c1.7,2.1,3.9,3.8,6.4,4.8c2.1,0.9,4.5,1.4,6.4,2.8c2.5,1.8,3.1,5,3.7,7.8c0.8,3.6,1.2,7.3,2.5,10.7
		c1,2.7,2.7,5.3,5.6,6.2c2.9,0.8,6.6-0.7,9.1-2.7c10.2-7.7,14.8-20.5,16.3-32.7c0.5-3.3,0.6-6.7,1-10c0.4-3.3,1-7.2,1.4-10.8
		c0.7-5.7,1.1-11.5,0.3-17.1c0.8-5.8,2.9-11.4,5-16.8c2.5-6.4,5.3-12.6,8.3-18.7c1.2-2.5,2.4-4.9,3.7-7.3c0.8-1.4,0.4-2.9-1.3-3.2
		s-3.2,0.6-4.5,1.3c-6.1,3-11.8,7.4-15.3,13.3c-2.9,5.1-4,11-3.1,16.9c0.5,3.2,1.9,6.1,2.9,9.2c0.6,1.8,1.1,3.6,1.3,5.5
		c0,0.2,0,0.4,0.1,0.6c0.3,2,0.4,4.1,0.4,6.1c0,8.5-1.9,16.9-2.5,25.4c-0.6,7.5-1.8,14.9-4.9,21.9c-1.4,3.3-3.3,6.4-5.6,9.3
		c-2.3,2.8-5.2,5.8-8.6,7.1c-1.8,0.6-3.6,0.6-5.1-0.8c-1.4-1.4-1.9-2.8-2.3-4.4c-1.3-4.3-1.7-8.8-3-13.2c-0.9-3-2.7-5.3-5.5-6.6
		c-2.8-1.4-5.3-1.8-7.7-3.4s-4-4.2-5.3-6.8c-1.3-2.6-2.5-6.1-3.6-9.2s-2.1-6.3-3.2-9.5c-1.1-3.1-2.5-5.8-3.5-8.7
		c-2.8-8-2.6-16.7,3-23.4c2.7-3.2,5.9-6,9.2-8.6c3.3-2.7,6.7-5.2,10.3-7.5c7.1-4.7,14.5-8.7,22.1-12.5c3.8-1.9,7.7-3.8,11.5-5.6
		s7.1-3.8,11-4.1c1.7-0.1,3.4,0.2,4.7,1.4c1.3,1.2,2.5,2.4,4.6,2.2c2.1-0.2,3.8-1.3,5.6-2.1c1.8-0.8,3.8-1.7,5.7-2.6
		c7.7-3.6,15.5-7.3,23.8-9.2c8.4-1.9,16-0.8,24.1,0.3s15.8,2.6,23.4,5.3c3.6,1.2,7.1,2.8,10.5,4.7c1.8,1,2.9,1.7,5,1.5
		c2.1-0.2,4-0.9,6-1.4c8.8-2,16.5,5,23.5,9c7,4,15.5,5.3,22.4,9.7c3.6,2.2,6.6,5.4,10,7.9c3.4,2.5,7.6,4.2,11.4,6.4
		c3.2,1.9,6.4,4.4,7.9,8c0.5,1.2,0.6,2.2,1.4,3.2c0.8,0.9,1.6,1.7,2.5,2.4c1.9,1.6,4.3,3.1,5.9,5.1c0.6,0.8,0.7,2.2,0.6,3.4
		c-0.1,1.5-0.5,3-1.2,4.3c-1.3,2.8-3.1,5.3-3.9,8.3c-0.4,1.4-0.5,2.8-0.9,4.2c-0.4,1.3-1,2.5-1.7,3.7c-3,5.1-7.9,9-12.6,12.4
		c-4.7,3.4-10.4,7-15.1,11.1c-2.4,2.1-4.5,4.2-5.7,7.1c-1.2,3-1.6,7-3.6,10c-2,3-5.4,5.5-9,5.4c-3.6-0.1-6.2-3.3-7.8-6.4
		c-3.8-7.2-5.7-15.6-6.9-23.5s-1.8-16.6-2.3-25c-0.1-0.7-0.1-1.4-0.1-2.2c0.1-0.2,0-0.4,0-0.6c-0.9-15.6-1.8-31.7-8-46.2
		c-2.9-7-8.3-14-16.6-14.3c-0.8,0-1.9-0.1-2.5,0.4c-0.6,0.5-0.9,1.2-1.2,1.8c-0.5,1.3-0.7,2.7-0.6,4.1c0.2,3.2,1.4,6.2,2.9,9
		c1.4,2.8,2.9,4.6,4.5,6.8c1.6,2.1,2.9,4.4,4.2,6.7c3.2,5.7,5.9,11.6,8.5,17.6c2.1,4.9,4.2,9.8,6,14.9c0.3,5.7,0.6,11.4,1.2,17
		c0.6,7,1.6,14.1,3.4,20.9c0.9,3.4,1.9,6.7,3.3,10c1.2,2.9,2.5,5.9,4.6,8.3c2.1,2.4,4.8,3.8,7.9,3.7s5.9-1.5,8.1-3.5
		c2.3-1.9,3.9-4.7,4.8-7.6c0.9-2.9,1.3-6.2,3.2-8.6c1.5-2,3.6-3.6,5.5-5.2c1.9-1.5,4.2-3.2,6.3-4.7c4.5-3.1,9-6.2,13.1-9.8
		c4.1-3.6,6.9-7.1,8.7-11.7c0.9-2.3,0.9-4.8,1.9-7.1s2.7-4.8,3.7-7.4S289.9,81.1,289,78.5z M80,68.3c-0.6-2.4-0.9-4.8-0.8-7.3
		c0.2-5.1,2.3-9.9,5.7-13.7c1.8-2.1,3.9-4,6.2-5.5c1.3-0.8,2.6-1.7,4-2.4c0.8-0.4,1.6-0.8,2.4-1.2l0.2-0.1
		c-2.5,4.7-4.9,9.6-7.1,14.5c-2.8,6.3-5.5,12.6-7.5,19.2c-0.3,0.9-0.6,1.9-0.8,2.9C81.6,72.6,80.6,70.5,80,68.3z M205.6,67.6
		c-1.9-4.1-4-8.1-6.2-11.9c-1.9-3.2-4.3-6-6.2-9.1c-1.9-3.2-5-8.9-2.9-12.9c7-0.2,11.9,5.8,14.5,11.7c2.9,6.4,4.5,13.4,5.6,20.3
		c1,5.6,1.5,11.4,1.9,17.1C210.2,77.6,207.9,72.6,205.6,67.6z"/>
</g>
</svg>
