<?xml version="1.0" encoding="utf-8"?>
<!-- Generator: Adobe Illustrator 27.9.0, SVG Export Plug-In . SVG Version: 6.00 Build 0)  -->
<svg version="1.1" id="Layer_1" xmlns="http://www.w3.org/2000/svg" xmlns:xlink="http://www.w3.org/1999/xlink" x="0px" y="0px"
	 viewBox="0 0 239.8 187.9" style="enable-background:new 0 0 239.8 187.9;" xml:space="preserve">
<g>
	<path style="stroke:#000000;stroke-width:3;stroke-linecap:round;stroke-linejoin:round;stroke-miterlimit:10;" d="M219.6,102.6
		c-0.1-0.5-0.1-0.9-0.1-1.3c0-0.1,0-0.2,0.1-0.4l0.5,0.4c0.7,0.5,1.4,1.2,2.3,0.9c0.9-0.2,1.6-1.9,1.7-2.9c0-0.7,0-1.3-0.1-2
		c0-0.8,0.1-1.5,0.2-2.3c0.1-1.4,0.2-2.9,0.2-4.4c-0.1-5.2-1.2-10.3-3.2-15.1c-3.9-8.9-11.4-15.6-19.3-20.9l-1.5-1
		c0.7-1.3,0.5-3.2-0.2-4.5c-1.3-2.7-2.7-5.5-4.6-7.9c-1.9-2.4-4.8-4-7.9-5.3c-3-1.2-6.4-2.4-9.7-3.4c-3.3-1.1-6.2-2-9.1-3.3
		c0.8-1.3,0.7-3.3-0.4-4.5s-4.1-0.9-5.8-0.6c-1.7,0.2-2.7,0.4-4,0.6c-0.7,0.1-2,0.3-2.5,0.2c-0.5-0.1-1.3-0.4-1.9-0.6
		c-1.1-0.4-2.1-0.8-3.2-1.1c-2-0.6-4-1.1-6.1-1.1c-2.1,0-4.5,0.7-6.6,1.7c-1.4,0.7-2.8,1.4-4.1,2.2c0.1-0.4,0.2-0.8,0.4-1.2
		c0.3-1.1,0.7-2.2,1.1-3.3c0.8-2.1,1.7-4.2,2.6-6.3c0.4-0.9-0.3-2.3-1.4-1.9c-2.6,0.9-4.7,2.5-6.8,4.3c-2,1.7-3.9,3.6-5.6,5.5
		c-0.9,1-1.7,2-2.5,3l-1.2,1.5l-0.5,0.7c-0.3,0.4-0.3,0.6-0.8,0.7c-0.5,0.1-1.3-0.2-1.9-0.4c-0.5-0.2-1.4-0.5-2.1-0.7
		c-1.3-0.4-2.6-0.9-3.9-1.2c-1.3-0.3-2.6-0.6-4-0.9c-1.3-0.2-3-0.2-4.5-0.4c-2.9-0.5-5.8-0.8-8.7-1.2c-2.9-0.3-6.2-0.7-9.3-0.9
		s-5.7-0.5-8.6-0.5c-2.3,0-5.1,0.8-5.7,3.3c-0.2,1-0.1,2.1,0.5,3c-5.8,2.9-11.5,6-17.2,9.1c-5,2.7-11.4,5.5-14.2,10.8
		c-0.8,1.5-0.9,3.7,0.1,4.9c-5.7,7-11.3,14-15.9,21.8c-2.4,4-4.4,8.2-6,12.6c-0.8,2.2-1.4,4.5-2,6.8c-0.4,2-0.8,4.2,0.4,6
		c0.6,0.9,1.7,1.1,2.3,2c0.6,0.8,0.4,2.1,0.3,3c-0.4,2.4-1,4.8-1.2,7.2c-0.5,5.3-0.2,10.6,0.9,15.7c0.2,0.9,0.4,2,1,2.7
		c0.6,0.8,1.9,0.9,3,0.6c1.9-0.4,3.1,1.9,3.8,3.4c1.7,3.8,3,7.7,4.6,11.5c1.8,4.2,3.9,8.4,7,11.9c1.9,2.2,6.2,6.3,9.5,5.2
		c1.5,4,4.5,7.9,8.4,9.8c2.3,1.2,4.7,0.6,6.2-1.6c1.5-2.2,1.2-4.2,1.8-6.3c1.6,0.3,3.4-0.3,4.6-1.4c2-1.8,2.4-4.5,2.3-7
		c-0.1-5-1-10.2-2.2-15.1c0.4,0.3,1,0.6,1.4,0.6c0.4,0,0.7-0.2,1-0.4l0.1,0.1c0.3,0.6,0.7,1.2,1,1.8c0.8,1.5,1.5,2.9,2.3,4.4
		c0.4,0.6,1.1,0.8,1.8,0.5c0.6-0.4,0.8-1.1,0.5-1.8c-0.6-1-1.2-2.1-1.7-3.1s-1-1.9-1.5-2.8c-0.5-0.9-1-1.7-2.1-2.1
		c-0.6-0.2-1.3,0-1.7,0.5c-0.8-0.4-1.6-0.9-2.3-1.4l-0.4-0.3l-0.1-0.1l-0.1-0.1l-0.8-0.7c-0.5-0.4-1-0.9-1.4-1.4l-0.6-0.7l-0.3-0.4
		c0,0-0.1-0.1-0.1-0.1c-0.1-0.1-0.1-0.1-0.1-0.2c-0.4-0.5-0.7-1.1-1.1-1.6c-0.2-0.3-0.3-0.6-0.5-0.8l-0.2-0.5l-0.1-0.2
		c-0.1-0.1-0.1-0.1-0.1-0.2c-0.3-0.6-0.5-1.3-0.7-2c-0.2-0.8-0.4-1.5-0.5-2.3l-0.1-0.5c0,0,0,0,0-0.1c0,0,0-0.1,0-0.1v0
		c0-0.1,0-0.2,0-0.2c0-0.1-0.1-0.8-0.1-1.2c-0.2-1.6-0.3-3.2-0.5-4.8c-0.1-0.4-0.1-0.7-0.2-1.1v-0.1c0-0.1,0-0.2,0-0.3
		c0-0.2,0-0.4-0.1-0.7c-0.1-0.8-0.1-1.5-0.1-2.3c0-0.1,0-0.2,0-0.3v-0.1h0c0.1-0.2,0.1-0.4,0.1-0.6l0.1-0.1l0.1-0.2
		c0.1-0.2,0.2-0.3,0.3-0.5l0.1-0.1h0l0.1-0.1c0,0,0,0,0,0l0.1,0.1l0.4,0.4l0.2,0.3c0,0,0,0,0,0.1l0.1,0.1c0.1,0.2,0.3,0.3,0.4,0.5
		c0.5,0.7,1,1.4,1.4,2.1c0.8,1.2,1.5,2.5,2.2,3.8c0.1,0.2,0.2,0.3,0.3,0.5c0.2,0.3,0.5,0.5,0.8,0.6c0.2,0.1,0.5,0.1,0.7,0
		c0.2-0.1,0.4-0.2,0.5-0.3c0.3-0.2,0.4-0.6,0.4-0.9c-0.5-4.3-0.7-8.6-0.6-12.8c0-2.2,0.1-4.3,0.2-6.5c0.1-0.9,0.1-1.8,0.1-2.6
		c0-0.6,0-1.2,0.1-1.9v-0.2v0c0,0,0,0,0,0c0-0.1,0-0.1,0.1-0.1c0-0.2,0.1-0.3,0.1-0.5l0.2-0.5c0,0,0.1-0.1,0.1-0.1
		c0.5,2.2,1.4,4.3,2.8,6.2c0.3,0.4,0.9,0.8,1.4,0.6c0.5-0.2,0.9-0.7,0.9-1.2c0-0.1,0-0.2,0-0.3c0,0,0-0.1,0-0.1c0-0.1,0-0.1,0-0.2
		c0-0.1,0-0.2,0-0.2s0.1-0.7,0.2-1c0.1-0.3,0.3-1.3,0.5-2c0.3-1.2,0.7-2.4,1.2-3.6c0.5-1.1,1-2.1,1.5-3.1c0.6-1,1.2-2,1.9-2.9
		l0.3-0.4l0.1-0.1l0.1-0.1l0.6-0.7c0.4-0.5,0.8-0.9,1.2-1.3c0.8-0.9,1.7-1.7,2.6-2.5c0.2-0.2,0.4-0.4,0.7-0.6l0.3-0.3l0.2-0.1
		l0.1-0.1l1.5-1.1c1-0.7,2-1.3,3.1-1.8l0.9-0.4l0.5-0.2l0.2-0.1l0.2-0.1h0.1l0.3-0.1l0.5-0.2l1-0.4c1.3-0.4,2.6-0.8,3.9-1
		c0.7-0.1,1.1-1,0.9-1.6c-0.2-0.7-0.9-1-1.5-0.9C90.7,76,86,78.4,82,81.6c-3.9,3.1-7,7.1-9,11.6c-0.8,1.8-1.4,3.6-1.9,5.5L71,98.5
		c-0.1-0.1-0.1-0.2-0.1-0.3c-0.2-0.6-0.4-1.3-0.6-1.9c-0.1-0.4-0.2-0.7-0.2-1c-0.1-0.3,0-0.2,0-0.3h0c0-0.2,0-0.4-0.1-0.6
		c-0.1-0.7-0.8-1.5-1.6-1.2c-1.6,0.6-2.8,1.9-3.2,3.6c-0.4,1.4-0.2,2.9-0.3,4.3c-0.3,4.4-0.4,8.9-0.3,13.4l0.1,2.1
		c-0.3-0.6-0.7-1.1-1.1-1.6c-0.5-0.8-1.1-1.5-1.7-2.1c-0.8-0.7-2-0.7-2.8-0.1h0l-0.1,0.1l-0.4,0.3c-0.2,0.2-0.3,0.4-0.5,0.6
		c-0.3,0.4-0.5,0.9-0.7,1.3c-0.3,0.9-0.4,1.8-0.4,2.7c0,0.4,0.1,0.8,0.1,1.2c0,0.4,0,1.1,0.1,1.6c0.2,1,0.3,1.5,0.4,2.4
		c0.1,0.9,0.2,1.8,0.3,2.7c0.1,1.8,0.4,3.6,0.9,5.4c0.9,3.1,2.6,5.9,4.9,8.1c0.7,0.7,1.4,1.3,2.2,1.9c1.3,4.7,2.2,9.6,2.7,14.5
		c0.2,2.1,0.5,4.5-0.4,6.4c-0.7,1.4-2.4,2.7-3.9,1.9c-0.6-0.3-1.4-0.2-1.8,0.5c-0.9,2-0.8,4.1-1.6,6.1c-0.3,0.7-0.7,1.5-1.4,1.9
		s-2-0.1-2.8-0.6c-3.3-2.2-5.7-5.5-6.8-9.4c-0.2-0.7-0.9-1.1-1.6-0.9c-0.2,0.1-0.4,0.2-0.5,0.3c-1.2,1.3-3.5-0.4-4.5-1.2
		c-1.5-1.2-2.9-2.5-4-4.1c-2.3-3-4-6.5-5.5-9.9c-1.5-3.5-2.8-7.4-4.4-11c-0.8-1.8-1.6-3.6-3.2-4.7c-0.7-0.5-1.5-0.8-2.3-0.9
		c-0.4,0-0.9,0-1.3,0.1c-0.1,0-0.5,0.2-0.5,0.3c0-0.1-0.2-0.6-0.2-0.7c-1.2-4.7-1.5-9.8-1.2-14.6c0.2-2.5,0.6-4.9,1.1-7.4
		c0.4-1.8,0.7-4-0.4-5.6c-0.5-0.8-1.3-1.2-2.1-1.8c-0.7-0.6-0.8-1.7-0.7-2.6c0.3-2.1,0.9-4.2,1.5-6.2c1.3-4.2,3.1-8.3,5.3-12.1
		c4.9-8.9,11.3-16.8,17.7-24.5c0.7-0.8,0.3-2.1-0.9-2.2c-0.1,0,0.1,0.2-0.1-0.1C42,52.2,42,52,42,51.8c0-0.5,0.1-0.9,0.4-1.4
		c0.7-1.4,1.9-2.6,3.1-3.6c2.5-2.1,5.5-3.6,8.4-5.2c6.9-3.8,13.9-7.4,20.9-11c1.1-0.6,0.6-2.4-0.6-2.4c-0.5,0-0.6-0.5-0.6-0.9
		c0-0.9,0.7-1.3,1.5-1.5c0.8-0.2,1.8-0.2,2.7-0.2c1.5,0.1,2.9,0.2,4.4,0.2c5.6,0.4,11.1,0.9,16.6,1.6l3.6,0.5
		c1.4,0.2,2.7,0.2,4.1,0.4c2.4,0.3,4.9,0.9,7.2,1.7c1.2,0.4,2.3,0.9,3.5,1.2c1.2,0.3,2.6,0.7,3.7,0.3c1.1-0.4,1.4-1.3,2-2.1
		c0.6-0.8,1.6-2.1,2.5-3.1c1.8-2.1,3.7-4.1,5.7-5.9c1.2-1.1,2.5-2.2,3.9-3.2c-0.6,1.4-1.2,2.8-1.7,4.3c-0.5,1.4-0.9,2.6-1.2,3.9
		c-0.3,1.3-0.7,2.4,0,3.6c0.4,0.6,1.1,0.8,1.7,0.5c1.5-1,2.9-1.7,4.5-2.6c1.5-0.9,3.1-1.6,4.7-2c3.5-0.8,7.1,0.5,10.4,1.7
		c1.1,0.4,2.1,0.9,3.3,0.9c0.8,0,1.6-0.1,2.4-0.2c2-0.3,4.1-0.7,6.1-0.8c0.5,0,0.9,0,1.4,0c0,0,0.1,0.1,0.2,0.1
		c0.2,0.5,0.5,1.8-0.3,1.7c-0.9-0.1-1.8,1.8-0.6,2.4c5.5,2.7,11.4,4.3,17.1,6.3c2.8,1,5.6,2,8.1,3.5c2.5,1.5,3.6,3.7,4.8,5.9l2.1,4
		c0.3,0.5,0.4,1,0.4,1.5c0,0.2,0,0.4-0.1,0.6c-0.1,0.3-0.1,0.1-0.1,0.1c-0.7,0-1.3,0.6-1.2,1.3c0,0.4,0.2,0.9,0.6,1.1
		c7.7,4.8,15.1,10.6,19.7,18.6c2.4,4.1,3.9,8.6,4.4,13.3c0.3,2.6,0.3,5.3,0.1,8c-0.1,1.4-0.1,2.7-0.1,4.1c0,0.1,0,0.3-0.1,0.4
		l-0.1-0.1c-0.6-0.5-1.3-1.2-2.1-1.4c-0.8-0.2-1.7,0.4-2.1,1.2c-0.8,1.8-0.2,4.1,0.3,5.9c0.6,2.3,1.8,4.3,2.6,6.5
		c1.1,2.7,1.7,5.6,1.6,8.6c-0.1,2.9-1,5.8-2.6,8.3c-0.2,0.4-0.5,0.7-0.7,1c-0.2,0.4-0.2,0.6-0.3,0.8c-0.2,0.2-0.2-0.1-0.5-0.2
		c-0.3-0.1-0.6-0.1-0.9-0.1c-1,0.1-1.9,0.5-2.6,1.3c-0.7,0.8-1.1,1.7-1.8,2.4c-0.7,0.8-1.7,1.1-2.6,1.8c-1.8,1.3-3.4,2.9-4.6,4.8
		c-2.3,3.5-3.4,7.7-4.5,11.7c-0.5,1.9-1.2,3.7-2,5.5c-0.8,1.6-1.9,3.5-3.4,4.4c-0.8,0.5-2,0.8-2.8,0c-0.5-0.5-1.3-0.5-1.8,0.1
		c-0.1,0.2-0.3,0.3-0.3,0.5c-1.1,3.8-3.5,7.2-6.8,9.4c-0.8,0.5-1.8,1.1-2.7,0.7c-0.9-0.4-1.2-1.1-1.5-1.8c-0.8-2-0.7-4.2-1.6-6.2
		c-0.3-0.7-1.2-0.8-1.8-0.5c-1.5,0.8-3.2-0.5-3.8-1.8c-1-2-0.7-4.5-0.5-6.6c0.5-4.8,1.3-9.5,2.6-14.1c0.8-0.6,1.6-1.1,2.4-1.8
		l1.8-1.4c0.7-0.5,1.4-1.1,2-1.7c1.2-1.2,2.2-2.6,2.7-4.2s0-3.7-0.6-5.5c-0.1-0.4-0.3-0.8-0.4-1.2c-0.1-0.4,0-0.1,0-0.1
		c0-0.1,0-0.2,0-0.3c0-0.2,0-0.5,0-0.7c0-0.2,0-0.1,0.1-0.1c0-0.1,0-0.2,0.1-0.3s0.1-0.5,0.2-0.7c0.1-0.2,0.2-0.9,0.2-1.4
		c0.3-1.9,0.4-3.7,0.3-5.6c-0.1-0.9-0.1-1.8-0.6-2.6c-0.5-0.8-1.3-1.5-2.2-1.6c-0.8-0.1-1.5,0.1-2.1,0.6c0.4-0.9,0.7-1.8,0.9-2.8
		c0.4-2.2,0.4-4.4-0.3-6.6c-0.3-1-0.8-2-1.3-2.9c-0.4-0.8-0.8-1.6-1.2-2.4c-1.1-2-2.4-3.7-4.2-5c-0.4-0.2-0.9-0.2-1.3,0
		c-0.4,0.2-0.6,0.6-0.6,1.1c0,0.2,0,0.3-0.1,0.5s-0.1,0.3-0.1,0.4s-0.1,0.7-0.2,1c-0.1,0.4-0.2,0.8-0.3,1.2
		c-0.5-4.6-1.9-9.1-3.9-13.2c-1.4-2.8-3.1-5.5-5-8c-1.8-2.3-4.2-4.2-6.8-5.5c-3-1.5-6.3-2.2-9.7-1.8c-0.7,0.1-1.3,0.5-1.3,1.3
		c0,0.7,0.6,1.4,1.3,1.3c0.7-0.1,1.4-0.1,2.1-0.1h1l0.5,0.1h0.2c0.1,0,0.2,0,0.2,0c0.7,0.1,1.3,0.3,2,0.4l0.9,0.3l0.4,0.2l0.2,0.1
		l0.2,0.1l0.1,0.1l0.3,0.1l0.4,0.2l0.9,0.5c0.6,0.3,1.2,0.7,1.8,1.1l0.2,0.2l0.1,0.1l0.1,0.1l0.2,0.2l0.8,0.7c0.5,0.5,1,1,1.5,1.5
		c0.5,0.5,0.9,1.1,1.3,1.6c0.5,0.6,0.9,1.2,1.3,1.9c0.8,1.2,1.6,2.5,2.2,3.9c1.3,2.5,2.4,5.3,3.1,8c0.2,0.8,0.4,1.6,0.5,2.4
		c0.1,0.4,0.2,0.8,0.2,1.1c0.1,0.2,0.1,0.4,0.1,0.6v0.1c0,0.1,0.1,0.3,0.1,0.4c0.2,1.6,0.3,3.3,0.3,4.9c0,0.6,0.4,1.1,0.9,1.2
		c0.6,0.1,1.1-0.1,1.4-0.6c1.3-1.8,2.2-3.8,2.7-6l0.2,0.3h0.1c0,0,0,0,0,0.1l0.2,0.2l0.3,0.5c0.3,0.4,0.5,0.8,0.7,1.2
		c0.5,0.8,0.8,1.6,1.2,2.4l0.5,1.1c0.2,0.4,0.4,0.7,0.5,1.1c0.2,0.5,0.3,1,0.4,1.5c0.1,0.4,0.2,0.9,0.2,1.3c0,0.5,0,0.9,0,1.4
		s0,0.5-0.1,0.7v0.3l-0.1,0.4c-0.4,2.1-1.3,3.8-2.2,5.8c-0.7,1.8-1.3,3.6-1.7,5.4c-0.1,0.5-0.2,1-0.2,1.5c0,0.6,0.4,1.1,0.9,1.2
		l0.3,0.1h0.3c0,0,0,0,0,0c0.3-0.1,0.6-0.3,0.8-0.6c0.9-1.4,1.8-2.8,2.6-4.2l1.2-2.1c0.2-0.3,0.3-0.5,0.5-0.8c0,0,0,0,0,0l0.1-0.2
		l0.3-0.3l0.1-0.1h0.1l0.1,0.1h0c0,0,0,0,0,0.1l0.2,0.2l0.2,0.2l0.1,0.1c0,0,0,0.1,0,0.1c0,0,0,0,0,0.1v0.1c0,0.1,0,0.3,0,0.4
		c0.1,1.6,0.1,3.1-0.1,4.7c-0.1,0.4-0.1,0.5-0.2,1s-0.2,0.8-0.2,1.2c-0.1,0.4-0.2,0.8-0.3,1.2c-0.1,0.4-0.1,0.8,0,1.3
		c0,0.8,0.3,1.6,0.5,2.4c0.2,0.7,0.4,1.4,0.5,2.1c0,0,0,0.1,0,0.1c0,0.1,0,0.1,0,0.1c0,0.1,0,0.1,0,0.2c0,0.1,0,0.4,0,0.5
		c0,0.3-0.1,0.6-0.2,0.9c-0.1,0.3-0.2,0.5-0.3,0.8l-0.5,0.9c0,0.1-0.2,0.3-0.2,0.3l-0.3,0.3c-0.2,0.3-0.4,0.5-0.7,0.7
		c-0.2,0.3-0.5,0.5-0.7,0.7l-0.7,0.6l-2,1.5l-0.5,0.4l-0.1,0.1l-0.2,0.2l-1,0.7l-0.5,0.3c-0.3,0.1-0.6,0.2-0.8,0.5l-0.7,0.4
		c-0.3,0.2-0.7,0.4-1,0.5h-0.1c-0.3-0.6-1.1-0.9-1.7-0.6c0,0-0.1,0-0.1,0.1c-0.7,0.4-1.5,0.7-1.9,1.5c-0.4,0.8-0.6,1.3-1,1.9
		c-0.7,1.3-1.4,2.6-2.2,3.9c-0.4,0.6-0.2,1.3,0.4,1.7l0,0c0.6,0.4,1.4,0.2,1.7-0.5c0.7-1.2,1.4-2.4,2.1-3.6l0.9-1.8
		c0-0.1,0.1-0.1,0.1-0.1c0.4,0.3,0.9,0.4,1.4,0.3c0.4-0.1,0.7-0.2,1-0.4c-1.2,4.9-2.1,9.9-2.2,14.9c-0.1,2.5,0.3,5.2,2.2,7
		c1.3,1.2,3,1.8,4.7,1.5c0.7,2.1,0.5,4.4,1.8,6.3c1.3,1.9,3.8,2.7,6.2,1.6c3.9-1.9,6.9-5.8,8.4-9.8c1.7,0.6,3.8-0.1,5.2-1.2
		c1.4-1.2,2.7-3.1,3.6-4.9c1.9-3.9,2.7-8.2,4.2-12.3c0.7-2,1.7-3.9,3-5.6c0.7-0.9,1.5-1.7,2.4-2.4c0.9-0.7,2-1.2,3-2
		c0.9-0.7,1.4-1.6,2.1-2.5c0.2-0.3,0.5-0.8,0.9-1s0.6-0.1,1,0.1c0.7,0.2,1.4,0.1,2-0.2c0.6-0.4,0.8-0.9,1.1-1.5
		c0.7-1.4,1.6-2.6,2.3-4.1c2.5-5.9,1.4-12.3-1.1-18C220.8,106.8,220,104.8,219.6,102.6z M166.6,26.6
		C166.7,26.6,166.6,26.6,166.6,26.6L166.6,26.6z"/>
	<path style="stroke:#000000;stroke-width:3;stroke-linecap:round;stroke-linejoin:round;stroke-miterlimit:10;" d="M71.6,62.5
		c1.1-1.2,2.2-2.3,3.3-3.4C76,58,77.2,57,78.5,56l0.5-0.4c0,0,0.1-0.1,0.1-0.1l0.1-0.1l1-0.8l2-1.3c0.7-0.5,1.5-1,2.3-1.4l0.5-0.3
		l0.2-0.1h0.1l0.3-0.1h0.1l0.1,0.1c0.5,0.4,1.4,0.1,1.7-0.5c0.3-0.6,0.1-1.3-0.5-1.7c-0.6-0.4-2.1-0.4-3,0c-0.7,0.4-1.4,0.8-2.1,1.2
		c-1.4,0.9-2.8,1.9-4.1,2.9c-2.7,2.1-5.3,4.4-7.5,6.9c-1.3,1.4-2.6,3-3.8,4.6c-0.3,0.4-0.2,1,0.1,1.4c0.3,0.4,0.8,0.6,1.3,0.5H68
		c0,0,0,0,0,0h0.1c0.1,0.1,0.1,0,0,0h0l0.2,0.1c0,0,0,0,0,0.1l0.2,0.2v0.1l0.1,0.2l0.1,0.2v0.1h0V68l-0.2,0.6c0,0.1-0.1,0.1-0.1,0.2
		c0,0-0.1,0.2-0.1,0.2c-0.2,0.4-0.4,0.7-0.6,1l-1.4,2.1l-3,4.5c-0.9,1.4-2,2.8-2.7,4.3c-0.3,0.6-0.8,1.7-1,2.5c-0.3,1-0.5,2.1-0.3,3
		c0.1,0.6,0.5,1.3,1.3,1.3s1.3-0.6,1.3-1.3c-0.1-0.4-0.1-0.8-0.1-1.2l0.2-1c0.1-0.2,0.1-0.4,0.2-0.6l0.1-0.3c0,0,0-0.1,0.1-0.1
		c0.2-0.4,0.4-0.8,0.6-1.1c0.9-1.6,2-3.1,3-4.6l3.2-4.8c1-1.5,2.1-3,2.1-4.8c0-1.2-0.6-2.4-1.6-3.1l0.3-0.4L71.6,62.5z"/>
	<path style="stroke:#000000;stroke-width:3;stroke-linecap:round;stroke-linejoin:round;stroke-miterlimit:10;" d="M108.8,56
		l-1.5-1.5l-0.3-0.3l-0.1-0.2c0,0,0,0,0,0s-0.1-0.1-0.1-0.1c0,0,0,0,0-0.1v-0.2c0-0.1,0.1-0.1,0.1-0.2c0.1-0.1,0.1-0.2,0.2-0.3
		l0.1-0.1l0.1-0.1l0.3-0.3l0.1-0.1h0.1c0.2-0.2,0.5-0.3,0.7-0.4c1.2-0.6,2.4-1.1,3.2-2.3c0.4-0.6,0.1-1.4-0.5-1.7
		c-4.8-3-10.7-4-16.3-3.8c-1.9,0.1-3.7,0.2-5.6,0.5c-0.7,0.1-1.1,1-0.9,1.6c0.2,0.6,0.9,1,1.6,0.9h0.4l0.6-0.1l1.2-0.1l2.3-0.2
		c1.4-0.1,2.9,0,4.3,0.1l1,0.1l0.5,0.1h0.3c0.7,0.1,1.3,0.2,2,0.4c1.3,0.3,2.5,0.6,3.7,1.1l0.5,0.2l0.2,0.1l0.1,0.1l1,0.4l0.2,0.2
		l-1.3,0.6c-1.2,0.6-2.4,1.7-2.6,3c-0.2,0.8,0,1.6,0.5,2.3c0.5,0.6,1,1.1,1.5,1.6l3.2,3.1l3.6,3.6c0.5,0.5,1.3,0.5,1.8,0
		c0.5-0.5,0.5-1.3,0-1.8L108.8,56z"/>
	<path style="stroke:#000000;stroke-width:3;stroke-linecap:round;stroke-linejoin:round;stroke-miterlimit:10;" d="M171.5,67.3
		C171.5,67.3,171.5,67.3,171.5,67.3c0.1-0.1,0.1-0.2,0.1-0.2c0-0.1,0-0.1,0.1-0.1l0.2-0.2l0.1-0.1l0.1-0.1h0.2l0.1,0.1
		c1,0.3,2-0.9,1.4-1.9c-2-3.1-4.2-6-6.8-8.6c-2.3-2.3-4.9-4.4-7.9-5.8c-0.8-0.4-1.7-0.7-2.6-1c-1.1-0.4-2.3-0.9-3.3-0.2
		c-0.5,0.4-0.8,1.1-0.4,1.7c0.4,0.6,1.2,0.9,1.7,0.5l0.1-0.1l0.3,0.1l1.1,0.4l0.9,0.4l0.1,0.1l0.2,0.1l0.6,0.3
		c1.3,0.6,2.6,1.4,3.8,2.3l0.5,0.4l0.1,0.1l0.1,0.1l1,0.8c0.6,0.5,1.1,1,1.7,1.6c1.2,1.2,2.3,2.4,3.4,3.7l0.4,0.5l0.1,0.2
		c0.1,0.1,0.1,0.2,0.2,0.3l0.8,1.1l0.7,1c-0.4,0.3-0.8,0.6-1.1,1c-0.7,1-0.9,2.3-0.3,3.5c0.2,0.4,0.4,0.7,0.7,1
		c0.1,0.2,0.2,0.3,0.3,0.5c0.1,0.1,0.1,0.1,0.1,0.2c0,0,0,0.1,0.1,0.1v-0.1c0,0,0,0,0,0.1h0c-0.1,0.2-0.1,0.4-0.2,0.7
		c-0.1,0.5-0.2,1-0.2,1.5c0.1,1.8,1.2,3.3,2.5,4.4c0.7,0.6,1.4,1.1,2.2,1.6l0.5,0.4l0.2,0.1c0,0,0,0,0,0l0.2,0.1
		c0.4,0.3,0.7,0.6,1,0.9c0,0.1,0.3,0.3,0.3,0.3l0.1,0.2c0.2,0.3,0.3,0.5,0.4,0.7c0.1,0.1,0.2,0.3,0.2,0.4l0.1,0.2
		c0,0.1,0.1,0.1,0.1,0.2l0.1,0.2c0.1,0.1,0.1,0.3,0.1,0.4s0.2,0.6,0.2,0.8c0.1,0.1,0.1,0.3,0.1,0.4c0,0,0,0,0,0c0,0.1,0,0.2,0,0.2
		c0.1,0.6,0,1.2-0.1,1.8c-0.1,0.7,0.7,1.3,1.3,1.3c0.7,0,1.2-0.6,1.3-1.3c0.3-2.1-0.2-4.3-1.3-6.1c-0.5-0.9-1.2-1.6-2-2.3
		c-0.7-0.6-1.4-1-2.1-1.5l-0.5-0.4l-0.2-0.2c-0.1,0-0.2-0.1-0.2-0.2c-0.2-0.2-0.5-0.4-0.7-0.6l-0.4-0.4l-0.2-0.2l-0.1-0.1l-0.3-0.4
		c0-0.1-0.1-0.1-0.1-0.2l-0.1-0.1v-0.1c0,0,0-0.1,0-0.1l-0.1-0.3c0-0.1,0-0.1-0.1-0.2v-0.1c0,0,0,0,0,0c0,0,0,0,0,0s0,0,0,0
		c0-0.2,0-0.4,0-0.6v-0.1l0.1-0.4c0.1-0.5,0.3-0.9,0.2-1.4c-0.1-0.5-0.2-1-0.5-1.5c-0.2-0.4-0.5-0.7-0.8-1.1l-0.2-0.3
		c0,0.1,0,0.1,0-0.1v0l0,0c0-0.1,0-0.1,0-0.1l0-0.2L171.5,67.3C171.5,67.3,171.5,67.3,171.5,67.3z"/>
	<path style="stroke:#000000;stroke-width:3;stroke-linecap:round;stroke-linejoin:round;stroke-miterlimit:10;" d="M144.9,45.8
		l0.5,0.1h0.1l0.3,0.1c1.6,0.3,3.2,0.7,4.7,1.3c0.6,0.3,1.4-0.3,1.6-0.9c0.2-0.6-0.2-1.3-0.9-1.6c-2.8-1.1-5.8-1.7-8.8-1.6
		c-3,0.2-5.9,0.9-8.6,2.3c-1.5,0.8-3,1.7-4.4,2.7c-0.5,0.4-0.9,1.1-0.4,1.7c0.5,0.7,1,1.2,1.8,1.6c0.6,0.3,1.1,0.6,1.7,0.9
		c0.2,0.1,0.3,0.2,0.4,0.3l0.1,0.1l0.2,0.1l0.4,0.4c0,0,0,0.1,0.1,0.1c0.1,0.1,0.1,0.2,0.1,0.3l0.1,0.1c0,0,0,0.1,0,0.1
		c0,0.1,0,0.1,0,0.2l-0.1,0.1c-0.3,0.3-0.6,0.7-0.7,1.1c-0.1,0.2-0.1,0.3-0.1,0.4l-0.1,0.2c0,0.1-0.1,0.2-0.1,0.2v0.1l-0.1,0.2
		l-0.2,0.4c-0.2,0.3-0.3,0.5-0.5,0.8c0,0.1,0,0.1-0.1,0.1l-0.1,0.1l-0.3,0.3l-0.6,0.6l-0.7,0.6l-0.2,0.2c-0.1,0.1-0.3,0.2-0.4,0.3
		c-1.1,0.8-2.4,1.6-3.6,2.4c-0.6,0.4-0.8,1.1-0.5,1.7c0.4,0.6,1.1,0.9,1.7,0.5c2.2-1.5,4.7-2.8,6.4-5c0.5-0.5,0.8-1.1,1.1-1.8
		c0.2-0.4,0.4-0.7,0.5-1.1c0.1-0.1,0.1-0.2,0.1-0.3l0.1-0.1c0.7-0.7,1-1.6,0.8-2.6c-0.2-0.8-0.7-1.6-1.3-2.1c-0.7-0.5-1.4-1-2.2-1.3
		l-0.5-0.3c0.8-0.5,1.6-1,2.4-1.4l0.9-0.5l0.4-0.2l0.2-0.1l0.2-0.1l2-0.7c0.7-0.2,1.3-0.3,2-0.5l0.5-0.1l0.3-0.1h0l1-0.1
		c0.7-0.1,1.4-0.1,2.1,0L144.9,45.8z"/>
</g>
</svg>
