<?xml version="1.0" encoding="utf-8"?>
<!-- Generator: Adobe Illustrator 27.9.0, SVG Export Plug-In . SVG Version: 6.00 Build 0)  -->
<svg version="1.1" id="Layer_1" xmlns="http://www.w3.org/2000/svg" xmlns:xlink="http://www.w3.org/1999/xlink" x="0px" y="0px"
	 viewBox="0 0 301.2 204.1" style="enable-background:new 0 0 301.2 204.1;" xml:space="preserve">
<g>
	<path style="stroke:#000000;stroke-width:3;stroke-linecap:round;stroke-linejoin:round;stroke-miterlimit:10;" d="M55.5,123.2
		c0.1,3.5,0.6,7.1,1.9,10.4c0.1,0.5,0.5,0.8,1,1c0.5,0.1,1,0,1.4-0.4l1.3-1.4c0.8,2,2,3.9,3.6,5.5c0.5,0.6,1.4,0.6,2,0.1
		c0.6-0.5,0.6-1.4,0.1-2c-0.1-0.1-0.1-0.1-0.1-0.1c-0.2-0.3-0.4-0.5-0.6-0.7l-0.4-0.4l-0.1-0.2c-0.4-0.5-0.8-1.1-1.1-1.7l-0.5-0.9
		c-0.1-0.2-0.1-0.3-0.2-0.4c-0.1-0.2-0.1-0.2,0-0.1l-0.1-0.2c-0.2-0.6-0.4-1.3-0.6-1.9c-0.2-0.8-1-1.2-1.7-0.9
		c-0.2,0.1-0.4,0.2-0.6,0.3l-1.3,1.4c-0.2-0.8-0.4-1.6-0.6-2.4c-0.1-0.4-0.1-0.8-0.2-1.2c0-0.2,0-0.2,0-0.2c0-0.1,0-0.1,0-0.1
		c0-0.2-0.1-0.4-0.1-0.6c-0.1-0.8-0.1-1.6-0.2-2.4c-0.1-3.3,0.1-6.6,0.4-9.9c0.3-3.3,0.6-6.7,0.5-10c0-1.6-0.1-3.3-0.3-4.9
		c-0.2-1.6-0.4-3.3-1-4.7c-0.3-0.9-0.9-1.7-1.6-2.3c-0.8-0.6-1.8-0.9-2.8-0.7c-1.4,0.2-2.7,1.1-3.7,2.1v-0.1c0,0-0.1-0.1-0.1-0.2
		c-0.1-0.1-0.1-0.2-0.1-0.3s-0.2-0.6-0.3-0.9v-0.1c0-0.1,0-0.3-0.1-0.4v-1c0-0.3,0-0.6,0.1-0.9c0-0.1,0.1-0.3,0.1-0.4
		c0,0.2,0-0.2,0-0.3c0.5-3.1,1.2-6.2,2-9.2c0.4-1.5,0.9-3,1.4-4.5c0.3-0.7,0.5-1.4,0.8-2.1c0.3-0.7,0.3-0.7,0.4-1.1l0.1-0.3
		c0,0,0-0.1,0-0.1l0.3-0.6c1.2-2.9,2.6-5.6,4.2-8.3c0.9-1.5,1.8-3,2.8-4.4l1.5-2.1l0.3-0.4c0.4,0.2,0.9,0.2,1.3-0.1
		c0.8-0.5,1.1-1.6,0.6-2.5c-0.2-0.3-0.4-0.5-0.7-0.6c-1.1-0.6-2.2,0-2.9,0.9c-1.1,1.4-2.2,2.9-3.2,4.3c-5.9,8.8-9.9,18.7-11.6,29.2
		c-0.6,3.2-1,7.6,2.3,9.6c0.5,0.3,1.3,0.3,1.7-0.2c0.5-0.6,1-1.1,1.6-1.6l0.1-0.1l0.1-0.1l0.4-0.3l0.3-0.1l0.4-0.1h0.5
		c0,0,0.1,0.1,0.1,0.1c0,0,0,0,0,0l0.2,0.1c-0.2-0.1,0,0,0.1,0.1s0.3,0.4,0.1,0.1l0.2,0.3l0.2,0.4l0.1,0.3c0.2,0.7,0.4,1.3,0.5,2
		l0.2,1.2v0.1c0,0.1,0,0.2,0,0.3c0,0.2,0.1,0.4,0.1,0.6c0.2,1.6,0.2,3.1,0.2,4.7C56.4,110.5,55.3,116.9,55.5,123.2z"/>
	<path style="stroke:#000000;stroke-width:3;stroke-linecap:round;stroke-linejoin:round;stroke-miterlimit:10;" d="M283.1,84
		c-2.7-3.4-6.3-5.7-9.9-7.9c-3.6-2.3-6.7-4.3-9.7-6.9c-1.4-1.1-2.6-2.5-3.6-3.9c-0.9-1.4-1.6-2.9-2-4.5c-1.1-4.1-3-7.9-5.2-11.4
		c-2.2-3.6-4.8-7-7.4-10.4c-2-2.7-3.8-5.7-6-8.2c-2-2.3-4.5-4-7.4-5c-1.9-0.7-4-1-6-1.4c-2.2-0.5-4.4-1.1-6.5-2
		c-2.1-0.8-4.2-1.6-6.4-2.3s-4.7-1.1-7-1.4c-4.9-0.7-9.9-1.1-14.8-1.5c-6.4-0.5-12.8-1-19.2-1.4s-13.7-0.9-20.5-0.8
		c-1.3,0-2.5,0.1-3.8,0.2c-13,0.9-26.1,1.3-39.1,2.3c-8.3,0.6-16.6,1.6-24.7,4c-7.3,2.2-14.8,5.3-20.8,10.1
		c-5.5,4.5-9,10.6-12.1,16.9c-1.6,3.1-3.1,6.3-4.8,9.4c-1.8,3.1-4,6-6.5,8.6c-2.6,2.6-5.4,5.1-8.4,7.4c-2.9,2.3-5.9,4.3-8.8,6.7
		c-2.9,2.3-5.3,5-6.3,8.5s-0.3,7.1,2.3,9.7c1.2,1.2,2.7,2.2,3.8,3.6c0.9,1.1,1.5,2.4,1.9,3.8c0.9,3,0.8,6.2,0.9,9.2
		c0.1,3.1,0.2,6.4,1.2,9.5c0.5,1.5,1.3,3.1,3.1,3.2c1.2,0.1,2.3-0.7,3.1-1.5c0.9-0.8,1.2-1.1,1.9-1.5c3,3.1,4.1,7.3,5.2,11.4
		c1.1,4.6,2.1,9.4,4.8,13.4c0.5,0.8,1.5,0.9,2.2,0.3l3.3-2.6c2.5,9.3,2.3,19,4.3,28.4c0.5,2.5,1.3,4.9,2.2,7.3
		c0.5,1.2,1,2.4,1.6,3.6c0.6,1.1,1.2,2.1,2.2,2.7c2.6,1.4,4.5-1.6,5.4-3.6c1-2.3,1.7-4.7,2-7.1c0.6-4.9,0.3-9.9,1.2-14.7
		c1.9,0.8,4.3,0.5,6.1-0.8c3.1-2.2,3.6-6.2,3.6-9.7c0.2-9.1,0.3-18.2,0.4-27.3l0.1-5.5c1.4,3.8,3.1,7.5,4.9,11.1
		c0.2,0.4,0.4,0.9,0.6,1.4l0.1,0.2c0,0,0,0.1,0,0.1c0,0,0.1,0.1,0.1,0.1c0.1,0.2,0.2,0.4,0.3,0.7c0.2,0.4,0.3,0.9,0.4,1.4l0.2,0.7
		c0,0.1,0,0.1,0,0.2s0,0.3,0,0.3c0.1,0.7,0.6,1.4,1.4,1.4c0.8-0.1,1.5-0.6,1.4-1.4c-0.4-3.8-2.5-7.1-4-10.4l-1.2-2.6l-0.3-0.6
		l-0.2-0.3V123c-0.2-0.4-0.4-0.9-0.6-1.3c-0.7-1.8-1.3-3.5-1.8-5.3c-0.6-1.9-1-3.9-1.3-5.8L79.2,99c0.1-8.7,0.3-17.5,2.4-25.9
		c2-8,5.8-15.6,12.1-21.1c1.4-1.2-0.6-3.1-2-2C79.7,60.3,77,76.9,76.5,91.9c-0.3,8.7-0.3,17.4-0.4,26.1c-0.1,8.7-0.3,17.6-0.4,26.5
		c-0.1,2.5-0.1,5-0.1,7.5c0,1.9,0,3.9-0.5,5.7c-0.5,1.9-1.2,3-2.8,3.6c-1,0.4-2.6,0.6-3.4-0.5s-2.2-0.9-2.5,0.3
		c-1.2,4.6-1.1,9.3-1.4,14c-0.1,2.3-0.5,4.5-1,6.7c-0.3,1-0.6,2-1.1,2.9c-0.2,0.4-1,2.3-1.6,2.2c-0.5-0.1-0.5-0.6-0.6-0.8
		c-0.1-0.2-0.5-1-0.8-1.5c-0.5-1.1-1-2.2-1.4-3.3c-0.8-2.1-1.4-4.3-1.8-6.5c-1-4.7-1.4-9.4-1.9-14.2c-0.6-5.4-1.3-10.8-2.9-16
		c-0.3-1.1-1.5-1.3-2.3-0.6l-3.7,3c-3-5.5-3.2-12.1-5.6-17.8c-0.6-1.5-1.4-3-2.3-4.3c-0.5-0.7-1-1.3-1.6-1.8
		c-0.8-0.8-1.4-1.3-2.5-0.9c-1.1,0.4-2.5,1.6-3.6,2.5l-0.6,0.4c-0.2,0.1-0.1,0.1-0.3,0.1c0.3,0.1,0-0.1-0.1-0.2
		c-0.2-0.4-0.4-0.9-0.5-1.3c-2.1-6.8,0.2-14.3-3-20.9c-0.8-1.6-2-3.1-3.5-4.3c-1.4-1.2-3-2.5-3.6-4.3c-1.2-3.7,1-7.4,3.6-9.9
		c2.6-2.5,6.6-5.2,9.9-7.8c3.3-2.6,6.6-5.3,9.5-8.4c2.8-2.9,5.2-6.2,7.2-9.7c2-3.5,3.6-7.1,5.4-10.6c1.8-3.6,3.7-7,6.2-10
		c2.6-3.1,5.8-5.7,9.3-7.6c7.7-4.5,16.5-7.2,25.3-8.6s16.8-1.8,25.3-2.3c7.5-0.4,15-0.8,22.5-1.2l4.7-0.3c7.2-0.6,14.6,0,21.8,0.5
		s14.8,1.1,22.2,1.6c5.6,0.4,11.1,0.9,16.6,1.9c5.5,1,9.6,3.2,14.5,4.6c2.4,0.7,4.8,0.9,7.2,1.6c1.7,0.5,3.3,1.2,4.7,2.2
		c2.7,1.9,4.4,4.7,6.2,7.3c5.3,7.5,11.9,14.8,14.3,24c1.1,4,3.4,7.1,6.5,9.8c3.6,3.1,7.6,5.5,11.6,8s8,5.2,9.6,9.6
		c0.7,1.9,1,4.5-0.2,6.3c-0.2,0.3-0.2,0.3-0.3,0.3c-0.2,0.1-0.4,0.2-0.7,0.2c-0.9,0.1-1.8,0.1-2.7,0.1c-0.9,0.1-1.7,0.2-2.5,0.6
		s-1.4,1.3-1.9,2c-1,1.6-1.4,3.4-1.6,5.2c-0.5,3.9,0.2,7.8,0.5,11.7c0.2,1.9,0.2,3.8,0.1,5.7c-0.1,0.8-0.2,1.6-0.4,2.4
		c-0.1,0.4-0.2,0.8-0.4,1.1c-0.1,0.1-0.1,0.3-0.3,0.4c-0.2,0.2,0,0.1-0.2,0c-0.1,0-0.3-0.1-0.4-0.3c-0.3-0.2-0.5-0.4-0.8-0.6
		c-0.7-0.6-1.4-1.2-2.1-1.7c-0.8-0.5-1.8-0.8-2.7-0.4c-0.9,0.5-1.7,1-2.5,1.7c-5.8,4.8-5.6,13.1-7.1,19.8c-0.2,1.1-0.5,2.1-0.9,3.1
		l-3.5-2.8c-0.7-0.5-1.7-0.6-2.2,0.3c-5.7,10.4-6.3,22.3-7.8,33.8c-0.3,2.8-0.8,5.6-1.3,8.3c-0.1,0.8-0.3,1.5-0.4,2.3
		c0,0.1-0.1,0.3-0.1,0.4c-0.1-0.2-0.2-0.4-0.3-0.5c-0.4-0.7-0.7-1.4-1.1-2.1c-1.2-2.1-2-4.5-2.3-6.9c-0.8-6.1,0.2-12.4-1.3-18.4
		c-0.3-1.3-1.9-1.3-2.5-0.3c-0.7,0.9-2.3,0.9-3.4,0.5c-1.5-0.6-2.3-2.1-2.8-3.6c-0.5-2-0.5-4.1-0.5-6.1c0-2.6-0.1-5.1-0.1-7.7
		l-0.4-29.9c-0.1-9.8,0.1-19.6-0.8-29.4c-0.4-4.5-1.2-8.8-2.1-13.2c-0.6-3-1.2-5.9-2-8.9c-1.6-5.8-4.6-13-11.7-13.1
		c-1.8,0-1.8,2.8,0,2.8c5.6,0.1,7.8,6.6,9,11.2c0.8,3,1.4,6,2,9c1,4.4,1.7,8.9,2,13.4c0.4,4.9,0.4,9.9,0.5,14.8
		c0.1,5,0.2,10.2,0.2,15.3c0.1,10.2,0.3,20.4,0.4,30.6c0,2.7,0,5.5,0.1,8.2c0.1,2.3,0.5,4.6,1.8,6.5c1.7,2.5,5.2,3.7,7.8,2.6
		c0.8,5,0.2,10.1,0.8,15.1c0.3,2.8,0.9,5.6,2.4,8.1c0.9,1.6,1.6,3.4,2.8,4.8c0.6,0.8,1.6,1.2,2.5,0.7c0.9-0.6,1.2-1.5,1.4-2.3
		c0.6-2,0.9-4.2,1.3-6.3c1-6.2,1.5-12.4,2.4-18.5s2.3-12.6,5.1-18.3l3.6,2.9c0.6,0.5,1.8,0.6,2.2-0.3c1.7-3.4,2.2-7.1,2.8-10.8
		s1.1-7.2,3-10.2c1-1.6,2.3-2.9,3.9-3.8c1,0.4,1.8,1.3,2.6,2c0.8,0.6,2.7,1.5,4.1,0.6s1.9-3.1,2.1-4.8c0.2-1.7,0.3-3.5,0.2-5.2
		c-0.2-3.6-0.8-7.1-0.8-10.7c-0.1-1.5,0.1-3.1,0.5-4.5c0.3-1,0.9-2.7,1.8-3.2c0.9-0.5,2.7-0.3,3.9-0.4c1.9-0.3,3-1.2,3.8-3
		C287.2,91.7,285.7,87.3,283.1,84z"/>
</g>
</svg>
