<?xml version="1.0" encoding="utf-8"?>
<!-- Generator: Adobe Illustrator 27.9.0, SVG Export Plug-In . SVG Version: 6.00 Build 0)  -->
<svg version="1.1" id="Layer_1" xmlns="http://www.w3.org/2000/svg" xmlns:xlink="http://www.w3.org/1999/xlink" x="0px" y="0px"
	 viewBox="0 0 367.1 145.8" style="enable-background:new 0 0 367.1 145.8;" xml:space="preserve">
<g>
	<path style="stroke:#000000;stroke-width:3;stroke-linecap:round;stroke-linejoin:round;stroke-miterlimit:10;" d="M347.7,83.8
		c-1-2.7-4.3-4-6.7-5s-5.6-2.3-8.4-3.7c-11-5.3-21.2-12.8-28.1-23c-3.4-5.1-5.9-10.7-7.4-16.6c-0.4-1.7-0.8-3.3-1.5-4.8
		c-0.7-1.6-1.7-3-2.8-4.3c-2.2-2.6-5-4.7-8.1-6c-3.5-1.5-7.1-1.6-10.7-1.2s-7.2,1.3-10.9,1.1c-1.8-0.1-3.4-0.6-5.1-1.3
		c-1.7-0.6-3.6-1.4-5.5-1.4c-1.9,0-3.7,0.8-4.9,2.2c-1.2,1.3-1.8,2.9-2.5,4.5c-1.4,3.4-3.4,6.6-5.8,9.4c-1.1,1.3-2.3,2.7-4.1,3
		c-0.6,0.1-1.3,0.1-1.9-0.1c-0.7-0.2-1.3-0.9-1.9-1.4c-5.7-4.2-12.4-6.7-19.2-8.3c-3.5-0.8-7.1-1.4-10.7-1.7h-0.6
		c-6.7-0.4-13.3-1.1-20-1.1c-3.6,0-7.2,0.3-10.8,0.6c-4.1,0.4-8.3,0.8-12.3,1.6c-7.6,1.6-14.8,4.4-21.5,8.4c-1.3,0.8-3,1.1-4.4,0.3
		c-1.4-0.8-2.6-2.4-3.7-3.7c-2.3-2.8-3.9-6-5.3-9.3s-3.6-5.9-7.4-5.6c-3.7,0.3-6.6,2.5-10.2,2.7c-7,0.4-14-3-20.9-0.2
		c-6.2,2.6-9.6,8.7-12.9,14.1c-3.8,6.1-8,11.9-12.7,17.4c-4.7,5.5-9.8,10.6-15.2,15.4c-2.7,2.3-5.4,4.6-8.2,6.7
		c-1.5,1.1-2.9,2.2-4.4,3.2c-1.5,1.1-3,1.9-4.3,3.1c-2.5,2.1-4.5,5.4-2.8,8.7c0.7,1.5,2.1,2.6,3,4c0.9,1.3,1.6,2.7,2.2,4.1
		c2.4,6.2,2.4,13,1.9,19.5c-0.1,1.7-0.3,3.3-0.4,5c-0.1,1.7-0.1,3.7,1,5.3c1.9,2.7,5.5,2.8,8.4,2.1c6.5-1.5,11.9-6.5,15.9-11.6
		c2.7-3.5,5-7.3,7-11.2c2.8,1.5,5.9,2.4,9,2.8c1.8,0.2,3.6,0.2,5.4,0.1l2.9-0.1h1.3l0.5,0.1h0.4c0.4,0.1,0.9,0.2,1.3,0.3l0.6,0.2
		l0.3,0.1l0.2,0.1l0.2,0.1l0.3,0.2c0.2,0.1,0.4,0.2,0.5,0.3l0.4,0.2c-0.6,1.4-1,2.8-1.2,4.3c-0.6,4.2,0.3,8.8,3.5,11.8
		c0.6,0.6,1.6,0.6,2.2,0c0.6-0.6,0.6-1.6,0-2.2c-0.3-0.3-0.6-0.6-0.9-0.9c0,0,0,0,0-0.1l-0.2-0.3c-0.1-0.2-0.2-0.4-0.3-0.6
		c-0.2-0.3-0.4-0.7-0.6-1.1c0-0.1-0.1-0.2-0.1-0.3c-0.1-0.2-0.2-0.4-0.2-0.6s-0.2-0.8-0.3-1.2l-0.1-0.6v-0.1c0-0.1,0-0.3-0.1-0.4
		c-0.1-0.8-0.1-1.7,0-2.5c0-0.1,0-0.2,0-0.3v-0.1c0-0.2,0.1-0.4,0.1-0.6c0.1-0.5,0.2-0.9,0.3-1.3c0.1-0.5,0.2-0.9,0.4-1.3l0.3-0.7
		c0-0.1,0.1-0.1,0.1-0.2c0.1-0.1,0.1-0.2,0.2-0.3c0.9-1.9,1.9-3.6,3.1-5.3c0.6-0.8,1.2-1.7,1.8-2.5l0.5-0.6l0.2-0.3l1.1-1.5l3.7-4.9
		c2.4-3.3,4.7-6.7,6.7-10.3c2.3-4.1,4.1-8.4,5.3-12.9c0.2-0.8-0.2-1.7-1.1-1.9c-0.3-0.1-0.6,0-0.9,0.1h-0.2l-1.9,0.4l-0.6,0.1h-0.2
		l-1,0.1c-1.4,0.1-2.7,0.2-4.1,0.2c-2.7,0-5.4-0.2-8.1-0.5c-0.8-0.1-1.6,0.8-1.5,1.5c0,0.8,0.7,1.5,1.5,1.5
		c4.7,0.5,9.6,0.8,14.3,0.1c-0.4,1.2-0.8,2.4-1.3,3.6c-0.1,0.2-0.1,0.4-0.2,0.5c0,0.1-0.1,0.2-0.1,0.2c0,0.1-0.1,0.2-0.2,0.4
		l-0.6,1.5l-1.4,2.8c-2,3.7-4.3,7.2-6.8,10.5c-1.2,1.7-2.4,3.3-3.7,5l-0.5,0.6l-0.2,0.3h-0.1c0,0,0,0,0,0.1l-1.1,1.5l-1.9,2.5
		c-0.9,1.3-1.8,2.6-2.5,3.9c-2.5-1.6-5.7-1.9-8.7-1.8c-1.9,0.1-3.7,0.2-5.6,0.1l-1.2-0.1H72l-0.3-0.1l-0.7-0.1
		c-0.8-0.2-1.7-0.4-2.5-0.6l-1.4-0.5l-0.6-0.2l-0.1-0.1l-0.2-0.1l-1.8-0.9c0.8-1.8,1.5-3.7,2.1-5.5c1.2-3.6,2.2-7.3,2.8-11.1
		c0.1-0.6,0.2-1.1,0.7-1.4c0.6-0.3,1.4-0.3,2.1-0.4c1.5-0.2,3-0.9,4.2-1.9c2.5-2.1,3.8-5.3,4.9-8.3c1.1-3,2.2-6,4.9-7.9
		c1.4-0.9,2.9-1.7,4.2-2.8c1.3-1.1,2.4-2.4,2.9-4c1.2-3,1-6.2,1.8-9.3c0.9-3.1,3.6-5.5,6.2-7.5s5.8-4.3,9.1-4
		c3.3,0.3,4.3,3.2,4.7,5.9c0.4,2.7,0.1,6,0.8,9c0.3,1.4,0.8,2.8,1.6,3.9c0.4,0.6,0.9,1.1,1.5,1.6l0.7,0.5c-0.2,0.7,0.1,1.4,0.7,1.7
		c1.1,0.5,2.3,0,2.8-1.1c0.3-0.7,0.2-1.5-0.2-2.1c-0.4-0.6-1.1-0.8-1.7-1.3c-0.6-0.3-1-0.8-1.3-1.4c-1.5-2.4-1.4-5.4-1.5-8.1
		c-0.1-2.7-0.5-6.5-2.5-9c-2-2.5-5.8-3.3-9.1-2.3c-3.3,1-6.4,3.3-9.1,5.6c-2.8,2.3-4.9,4.9-5.7,8.4c-0.8,3.5-0.4,6.5-1.9,9.2
		c-1.5,2.8-5.2,3.7-7.4,5.9c-2.3,2.2-3.5,5.8-4.6,9c-1,2.6-2.4,5.8-5.1,6.9c-1.4,0.6-2.9,0.4-4.2,1.1s-2.1,2.5-2.4,4.2
		c-0.7,3.8-1.7,7.5-3,11.1c-2.4,6.7-5.9,13.3-10.5,18.8c-2.1,2.6-4.5,4.8-7.3,6.6c-2.5,1.5-5.5,3.1-8.5,3c-1.1-0.1-2.3-0.5-2.8-1.6
		c-0.5-1.1-0.2-3.5-0.1-5c0.3-3.3,0.5-6.6,0.5-10c-0.1-6.6-1.2-13.5-5.2-18.8c-0.5-0.7-1.1-1.4-1.6-2c-0.5-0.6-1-1.2-1.2-1.9
		c-0.3-1.3,0.6-2.6,1.5-3.5c0.9-0.9,2.5-2.1,3.8-3c1.3-0.9,3-2.1,4.5-3.2c5.8-4.3,11.3-9.1,16.5-14.2c5.2-5.1,10-10.7,14.4-16.5
		c2.1-2.8,4.2-5.8,6.1-8.8c1.9-3,3.5-5.7,5.4-8.4c2-2.7,3.9-4.6,6.6-5.9c2.7-1.3,6.6-1.3,9.9-0.8s7,1.2,10.5,1
		c1.8-0.2,3.6-0.6,5.3-1.2c1.5-0.6,3.2-1.4,4.9-1.5c3.4-0.1,4.3,3.9,5.4,6.4c1.6,3.4,3.7,6.5,6.2,9.3c1.2,1.3,2.6,2.6,4.3,3.1
		c1.8,0.5,3.8,0.3,5.5-0.5c1.7-0.9,3.2-1.9,4.9-2.7c1.7-0.8,3.3-1.6,5-2.3c7.5-3,15.3-4.3,23.2-5c3.6-0.3,7.1-0.6,10.7-0.6
		c3.6,0,7.1,0.2,10.6,0.5l9.5,0.7c7.1,0.7,14.2,2.1,20.7,5c3.1,1.4,5.9,3.1,8.6,5.1c1.6,1.3,3.3,1.5,5.3,1.2c2-0.3,3.5-1.5,4.8-2.8
		c2.7-2.8,4.9-6,6.6-9.6c1.1-2.5,2-6.7,5.5-6.6c1.8,0.1,3.5,1,5.1,1.6c1.8,0.6,3.6,1.1,5.5,1.1c3.7,0.2,7.2-0.7,10.8-1.1
		c3.6-0.4,6.8-0.3,9.9,1.2c2.9,1.4,5.5,3.6,7.4,6.2c0.9,1.3,1.6,2.7,2.1,4.2c0.5,1.5,0.8,3.1,1.2,4.7c0.9,3,2.1,6,3.5,8.8
		c5.4,11.2,14.7,20,25.2,26.4c2.8,1.7,5.6,3.2,8.5,4.6s5.8,2.4,8.4,3.6c1.1,0.5,2.6,1.2,3.4,1.9c0.4,0.3,0.7,0.6,0.9,1
		c0,0,0,0.1,0.1,0.1c0,0.1,0,0.2,0,0.2v0.1c0,0.1,0,0.1,0,0.2l-0.1,0.1l-0.1,0.1l-0.5,0.5c-0.5,0.5-1.1,0.9-1.6,1.3
		c-0.5,0.4-1.9,1.4-2.6,2.3c-4.4,5.6-5.8,12.7-5.8,19.6c0,3.5,0.2,7,0.6,10.5c0,0.7,0.2,1.3,0.3,2c0.2,0.6,0.6,1.3,0.9,1.9
		c0.3,0.6,0.6,1.1,0.8,1.7c0.1,0.2,0.2,0.4,0.3,0.7c0.1,0.2,0.1,0.3,0.1,0.4c0,0,0,0.1,0.1,0.1c0,0.1,0-0.1,0,0h-0.1l-0.2,0.1
		l-0.2,0.1l-0.3,0.1h-0.3c-1.4,0.1-2.4-0.2-3.8-0.5c-2.8-0.7-5.5-1.6-8-3c-6.1-3.5-10.5-9.4-13.9-15.3c-3.9-6.9-6.6-14.4-8-22.1
		c-0.2-0.9-0.3-1.8-0.9-2.6c-0.6-0.8-1.4-1.3-2.3-1.6c-1.5-0.5-2.9-0.4-4.3-1.2c-2.6-1.7-3.7-5-4.7-7.9c-1.2-3.5-2.7-6.7-5.8-8.9
		c-1.3-1-2.9-1.7-4.1-2.7c-1.2-1-1.9-2.4-2.3-3.8c-0.9-3.4-0.6-6.9-2.2-10.1s-4.7-5.6-7.6-7.7c-2.9-2.1-6.4-4.1-10.1-3.7
		c-3.7,0.4-6.2,3.1-7.1,6.5s-0.5,6.4-0.9,9.5c-0.2,1.3-0.5,2.7-1.2,3.9c-0.3,0.5-0.7,1-1.1,1.4c-0.6,0.4-1.4,0.7-1.9,1.3
		c-0.5,0.6-1,2-1.3,2.9c-0.2,0.4-0.3,0.9-0.3,1.3c0,1.2,1.4,2,2.4,1.4c0.5-0.3,0.7-0.8,0.7-1.3v0.2c0-0.1,0-0.2,0.1-0.2
		c0.1-0.2,0.2-0.4,0.2-0.6l0.6-1.5l0.1-0.1l0.6-0.4c0.7-0.4,1.3-0.9,1.8-1.5c2.1-2.5,2.6-5.9,2.7-9.1c0.1-3.2,0-6.2,1.7-8.6
		c1.7-2.4,5.4-2,8-0.6c1.6,0.8,3.2,1.8,4.6,3c1.4,1,2.7,2.2,3.8,3.5c1.1,1.2,1.9,2.7,2.3,4.3c0.4,1.7,0.5,3.4,0.8,5.1
		c0.2,1.7,0.7,3.4,1.4,4.9c0.9,1.6,2.2,2.8,3.7,3.8c1.5,1,2.9,1.6,4.1,2.7c1.2,1.1,2,2.7,2.7,4.2c1.3,3.1,2.1,6.5,4.2,9.2
		c1.1,1.4,2.3,2.5,3.9,3.2c0.7,0.3,1.5,0.5,2.4,0.6c0.6,0.1,1.6,0.2,2.1,0.6c0.5,0.4,0.5,1.2,0.6,1.8c0.2,1,0.4,2,0.6,3
		c0.4,1.9,0.9,3.8,1.5,5.7c0.6,1.9,1.3,3.8,2,5.7l-1,0.1l-1.2,0.2l-0.3,0.1h-0.2l-0.7,0.1l-1.3-0.1l-0.6-0.1l-0.5-0.1l-2.7-0.5
		c-1-0.2-2-0.3-3-0.3c-1,0-2,0.1-2.9,0.3c-1.7,0.3-3.4,0.9-5,1.8c-1.4,0.7-2.6,1.7-3.7,2.9c-1-0.9-2.1-1.9-3-2.8
		c-0.6-0.6-1.2-1.3-1.8-2l-0.1-0.1l-0.2-0.3l-0.6-0.7l-1.1-1.4c-2.8-3.7-5.4-7.4-7.8-11.4c-1.1-2-2.2-4-3.2-6.1
		c-0.1-0.2-0.2-0.5-0.3-0.7l-0.2-0.4c0-0.1,0-0.1-0.1-0.2c-0.2-0.5-0.5-1.1-0.6-1.6c-0.2-0.5-0.4-1.1-0.6-1.6
		c3.5,1.3,7.3,1.7,11,0.6c1.3-0.4,2.6-1,3.8-1.7c0.7-0.4,1-1.4,0.6-2.1c-0.4-0.7-1.4-1-2.1-0.6l-1,0.5l-0.5,0.2l-0.3,0.1
		c-0.6,0.2-1.1,0.4-1.8,0.6l-1,0.2l-0.5,0.1h-0.2c-0.6,0.1-1.3,0.1-1.9,0.1h-1l-0.5-0.1h-0.2c-0.7-0.1-1.4-0.2-2.1-0.5l-0.9-0.3
		l-0.5-0.2l-0.4-0.1c-0.6-0.3-1.3-0.6-1.9-1l-0.5-0.2c-0.3-0.1-0.6-0.2-1-0.1c-0.8,0.2-1.3,1.1-1.1,1.9c1.2,4.4,2.9,8.6,5.2,12.6
		c2.2,3.9,4.7,7.7,7.4,11.3c1.4,1.9,2.8,3.7,4.2,5.5c1.4,1.8,2.5,2.6,3.8,3.8c1.4,1.2,2.8,2.6,4.1,4c0.2,0.2,0.3,0.3,0.4,0.5h0
		c0.1,0.1,0.2,0.2,0.2,0.3c0.2,0.3,0.5,0.7,0.7,1.1l0.3,0.5c0,0.1,0.1,0.2,0.1,0.3c0.1,0.4,0.2,0.8,0.3,1.2c0,0.1,0,0.1,0,0.1v1
		c0,0.1,0,0.2,0,0.3c0,0,0,0.1,0,0.1c0,0.2-0.1,0.5-0.1,0.7c-0.1,0.5-0.2,1-0.4,1.4c0,0.1-0.1,0.2-0.1,0.3v-0.1l-0.1,0.2
		c-0.1,0.2-0.2,0.5-0.3,0.7c-0.5,0.9-1,1.8-1.6,2.6l-0.2,0.3c0,0-0.1,0.1-0.1,0.1l-0.5,0.6c-0.3,0.4-0.6,0.7-1,1.1s-0.6,0.7-1,1
		c-0.6,0.6-0.6,1.6,0,2.2c0.6,0.6,1.6,0.6,2.2,0c3.1-2.9,5.9-6.7,6.4-11c0.4-3.6-1.7-6.6-4.1-9.1l0.1-0.1c0.3-0.3,0.6-0.6,0.9-0.8
		l0.4-0.3c0,0,0.3-0.2,0.4-0.3c0.3-0.2,0.7-0.4,1-0.6c0.3-0.2,0.7-0.4,1.1-0.6l0.2-0.1l0.2-0.1l0.2-0.1l0.3-0.1
		c0.8-0.3,1.5-0.5,2.4-0.7c0.3-0.1,0.7-0.2,1.1-0.2h1.2l1.2,0.1h0.4l0.7,0.1c1.8,0.3,3.7,0.8,5.5,0.8c1,0,2-0.2,3.1-0.4h0.5l0.6-0.1
		l0.9-0.1c0.4,0.8,0.8,1.6,1.2,2.5c3.3,6.5,7.6,12.8,13.4,17.3c2.6,2,5.6,3.6,8.8,4.5c2.5,0.8,5.4,1.7,8,1.5
		c1.3-0.1,2.7-0.6,3.5-1.8c0.7-1.2,0.2-2.7-0.3-4c-0.2-0.6-0.5-1.1-0.8-1.7c-0.3-0.6-0.3-0.5-0.4-0.8l-0.2-0.4l-0.1-0.2l-0.1-0.1
		c0-0.2-0.1-0.3-0.1-0.4c0-0.2-0.1-0.3-0.1-0.4c0-0.2-0.1-0.5-0.1-0.7c-0.1-0.9-0.2-1.8-0.2-2.7c-0.5-6.7-0.7-13.9,1.9-20.2
		c0.6-1.5,1.4-2.9,2.3-4.2c0.7-1,1.5-1.8,2.5-2.5c1-0.7,2-1.5,2.8-2.4C348,86.5,348.2,85.1,347.7,83.8z M120.3,58.9
		C120.4,59,120.3,59,120.3,58.9L120.3,58.9z M248.2,60.3C248.2,60.3,248.2,60.3,248.2,60.3L248.2,60.3z M337.1,126.9
		C337.1,126.9,337.1,126.9,337.1,126.9L337.1,126.9z M337.2,126.8C337.2,126.9,337.1,127,337.2,126.8L337.2,126.8z M337.2,126.8
		C337.2,126.8,337.2,126.9,337.2,126.8L337.2,126.8z"/>
</g>
</svg>
