<?xml version="1.0" encoding="utf-8"?>
<!-- Generator: Adobe Illustrator 27.9.0, SVG Export Plug-In . SVG Version: 6.00 Build 0)  -->
<svg version="1.1" id="Layer_1" xmlns="http://www.w3.org/2000/svg" xmlns:xlink="http://www.w3.org/1999/xlink" x="0px" y="0px"
	 viewBox="0 0 255.6 179.5" style="enable-background:new 0 0 255.6 179.5;" xml:space="preserve">
<g>
	<path style="stroke:#000000;stroke-width:3;stroke-linecap:round;stroke-linejoin:round;stroke-miterlimit:10;" d="M233.7,143.6
		c-1.3-2.4-2.9-4.6-4.3-6.9c-0.5-1-1-1.9-0.9-3c0-1.1,0.4-2,0.8-3c0.8-2.1,1.9-4.2,1.5-6.4c-0.2-1.3-1-2.4-1.7-3.5
		c-0.9-1.3-1.6-2.6-2.3-4c-1.1-2.2-1.8-5-0.1-7c2.5-3,3.7-6.7,4.3-10.5c0.6-4.4,0.5-8.9,0-13.3c-0.9-8.2-2.7-16.2-5.5-24
		c-0.3-1-0.7-2-1.2-3.1c0,0,0-0.1,0-0.1c-0.7-2.6-1.7-5-3.2-7.3c-1.6-2.4-3.4-4.5-5.3-6.5c-2.6-2.6-5.4-5.1-8.7-6.6
		c-3.3-1.6-6.6-3-10-4.3c-4-1.5-8.1-3-12.4-3.7c-1.6-0.3-3.3-0.5-4.9-0.4c-0.9-0.7-1.8-1.3-2.8-1.9c-1.1-0.6-2.2-1.2-3.3-1.8
		s-2.1-1.3-3.1-1.9s-2.1-1.3-3.2-1.8c-1-0.4-2.1-0.7-3.1-0.9c-5-1.2-10.2-2.1-15.3-2.6c-7.3-0.8-14.7-1-22.1-0.8h-1
		c-3.4,0.2-6.8,0.8-10.2,1.5c-3.4,0.7-7,1.6-10.3,2.8c-1.9,0.7-3.6,1.6-5.4,2.6c-0.9,0.5-1.8,1-2.7,1.4c-1.1,0.4-2.2,0.7-3.4,0.9
		c-2.3,0.4-4.6,0.6-6.7,1.6c-1.3,0.6-2.6,1.4-3.7,2.3h-0.2c-4.3,0-8.7-0.2-13,0.6c-1.1,0.2-2.2,0.5-3.3,0.9l-1.5,0.6l-0.5,0.2
		l-0.3,0.1c-1.2,0.5-2.5,0.9-3.7,1.4C53.6,38.2,49,45.5,47,52.9c-0.3,1.1-0.6,2.3-0.9,3.4s-0.6,1.5-0.9,2.2c-0.4,1.1-0.7,2.3-1,3.4
		c-0.5,2.4-0.8,4.8-0.8,7.2l-0.1,0.2c-2.9,7.1-4.5,14.8-3.2,22.4c0.8,4.4,2.6,8.6,3,13.1c0.4,4.5-1.2,8.6-3.5,12.4
		c-4.8,7.7-12.5,13.8-14.5,23c-0.9,4.3-0.4,9,2.3,12.6c2.4,3.3,6.4,6.2,10.7,5.9c2.1-0.1,4.1-1.2,5.3-2.9c1.2-1.6,1.8-3.5,2.9-5.1
		s2.9-3.4,4.3-5.2c1.3-1.7,2.5-3.6,3.4-5.6c4-8.3,4.6-17.8,2.8-26.8c-0.4-2-0.9-4.1-1.5-6c-0.1-1.9,0.3-3.6,1-5.4s1.7-3.6,2.6-5.4
		c1-2,1.8-4.1,2.4-6.2c0.6-2.3,0.9-4.6,1.2-7c0.5-4.4,0.8-8.9,1.2-13.3S65,61.1,66.6,57s3.9-7.6,6.5-11c2.6-3.4,5.4-6.6,8.3-9.7
		c1.3-1.5,2.8-2.9,4.3-4c1.6-1.1,3.6-1.8,5.7-2.2c2.1-0.4,4.5-0.6,6.7-1.5c2.1-0.9,3.9-2.1,5.9-3.1l0.7-0.3h0.1l0.2-0.1l1-0.4
		l2.2-0.7c1.7-0.5,3.5-1,5.3-1.4s3.6-0.8,5.4-1.1c0.9-0.2,1.7-0.3,2.6-0.4l0.6-0.1h0.4l1.2-0.1l2.1-0.2h0.2
		c6.3-0.2,12.6-0.1,18.8,0.4c4.9,0.3,9.8,1,14.6,2c2.4,0.5,4.8,0.9,7,1.8l0.2,0.1l0.2,0.1l0.6,0.3l1.7,1c1.1,0.7,2.2,1.4,3.3,2
		s2.2,1.1,3.2,1.7l1.5,0.9l0.7,0.5l0.3,0.2l0.3,0.2c0.7,0.6,1.4,1.2,2,1.8l0.4,0.5l0.2,0.2l0.1,0.1l0.7,0.9c0.4,0.7,0.8,1.4,1.2,2.2
		c0.5,1,1.1,2,1.8,3c1.3,1.9,2.6,3.8,4,5.6c1.4,1.8,2.7,3.8,3.8,5.7c1.1,2,2,4.1,2.6,6.3c1.3,5,1.5,10.1,1.6,15.2
		c0.1,5.1,0.1,10.6,1,15.9c0.5,2.6,1.2,5,2.2,7.4c0.5,1.1,0.9,2.2,1.3,3.3c0.2,0.5,0.3,1,0.4,1.5c0.1,0.3,0.1,0.5,0.2,0.8l0.1,0.4
		c0,0.1,0,0.2,0,0.3c0,0,0,0.1,0,0.1c0.1,1.1,0.1,2.2,0,3.3v0.1c-1.1,2.7-1.7,5.7-2.1,8.6s-0.4,5.6-0.5,8.4
		c-0.1,2.8,0.4,5.6,1.5,8.2c2.3,5.7,6.2,10.6,9.9,15.4c0.9,1.2,1.9,2.4,2.8,3.6c0.9,1.3,1.4,2.6,2,3.9c0.6,1.3,1.2,2.6,2.3,3.6
		c1,1,2.4,1.7,3.8,1.9c2.9,0.4,5.8-0.6,8.1-2.3c2.3-1.7,4.7-4.2,5.5-7C236,148.3,234.9,145.9,233.7,143.6z M54.9,130.2
		c-0.8,4.2-2.3,8.2-4.5,11.8c-1.1,1.8-2.5,3.5-3.9,5.1c-0.8,0.9-1.6,1.8-2.3,2.8c-0.5,0.8-0.9,1.6-1.3,2.5c-0.8,1.6-1.7,3.4-3.5,4
		c-1.8,0.6-3.7,0.2-5.3-0.6c-3.6-1.8-6.2-5.3-6.8-9.3c-0.6-4.3,0.9-8.6,3-12.2s5.4-7.3,8.2-10.9c2.8-3.6,5.2-7.4,6.4-11.7
		c0.6-2.2,0.8-4.5,0.6-6.8c-0.2-2.4-0.8-4.7-1.4-6.9c-0.6-2.3-1.2-4.3-1.6-6.4c-0.2-1.3-0.4-2.7-0.4-4c-0.1-3.6,0.4-7.2,1.3-10.7
		c0-0.1,0.1-0.3,0.1-0.4c0.2,4.6,0.8,9.2,2.2,13.5c1.5,4.4,3.8,8.7,5.6,13.2c0.7,1.6,1.2,3.3,1.7,5c0,0,0,0,0,0.1
		C55.4,115.1,56.3,122.7,54.9,130.2z M77.6,36.9c-1.5,1.7-2.9,3.3-4.3,5c-2.8,3.4-5.5,7.1-7.5,11.1c-2,4-3.2,8.5-3.9,12.9
		s-0.9,9-1.3,13.5c-0.4,4.5-0.9,9.2-2.6,13.5c-1.2,3.1-3.2,6.1-4.2,9.3c-0.4-0.9-0.8-1.8-1.1-2.7c-1.9-4.4-4.2-8.7-5.3-13.5
		c-1.2-4.7-1.3-9.4-1.4-14c-0.1-4.7,0.3-9.2,2-13.6c1-2.5,1.4-5.2,2.3-7.7c1.4-3.9,3.7-7.7,6.8-10.4c1.4-1.2,2.9-2.2,4.5-3
		c1.1-0.5,2.3-0.9,3.5-1.4c1.8-0.7,3.5-1.4,5.4-1.8c2.2-0.4,4.4-0.6,6.6-0.7h3.7C79.6,34.6,78.6,35.7,77.6,36.9z M201,92.9
		c-0.8-2.5-1.2-5.1-1.4-7.7c-0.2-2.7-0.3-5.3-0.4-8c-0.1-5.3-0.1-10.6-1-15.8c-0.4-2.6-1.1-5.1-2.1-7.6c-0.9-2.1-2.1-4.1-3.4-6
		c-2.6-3.9-5.7-7.5-7.9-11.7c-0.7-1.4-1.5-2.6-2.5-3.8c0.7,0.1,1.3,0.2,2.1,0.3c2.1,0.4,4.2,1,6.2,1.7c4,1.3,7.9,2.8,11.8,4.5
		c2.4,1,4.7,2.1,6.9,3.7c2.2,1.7,4.2,3.5,6,5.5c1.9,2,3.5,4.2,4.8,6.6c0.8,1.5,1.3,3,1.7,4.7c0,0.1,0,0.2,0.1,0.4
		c0.2,1,0.5,2.1,0.7,3.1c0.6,3.2,0.9,6.5,0.5,9.8c-0.1,1.3-0.4,2.6-0.9,3.9l-0.1,0.4l-0.1,0.2l-0.4,0.9c-0.8,1.6-1.7,3.1-2.6,4.5
		c-2.3,3.7-4.8,7.3-7.4,10.8c-1.8,2.5-3.5,4.9-5.7,7.1c-0.6,0.6-1.2,1.3-1.7,2c-0.1-0.9-0.4-1.8-0.7-2.6
		C202.9,97.5,201.8,95.3,201,92.9z M232.7,150.6c-0.9,2.6-3.2,4.8-5.4,6.1s-5.1,2-7.2,0.5c-1.1-0.7-1.7-1.9-2.3-3.1
		c-0.5-1.2-1.1-2.6-1.9-3.9c-0.8-1.2-1.9-2.5-2.9-3.7l-2.6-3.4c-1.9-2.5-3.7-4.9-5.2-7.6c-1.6-2.7-2.7-5.1-3.3-7.8
		c-0.6-2.8-0.3-5.3-0.1-7.9c0.2-4.1,0.7-8.4,2.3-12.2c0-0.1,0.1-0.2,0.1-0.3c0.4-1,1-2,1.6-2.9c0.9-1.3,2.1-2.4,3.1-3.6
		c1-1.2,2.1-2.6,3.1-4c2.6-3.4,5.1-6.9,7.4-10.5c1.9-2.8,3.9-5.8,5.1-9c0.7-1.9,1-3.8,1.1-5.8c0.7,2.8,1.3,5.5,1.8,8.3
		c0.8,4.4,1.3,8.9,1.3,13.4c0,2-0.1,4.1-0.5,6c-0.1,1-0.4,2-0.6,2.9c-0.2,0.9-0.5,1.7-0.9,2.5c-0.4,0.8-0.8,1.5-1.2,2.2
		c-0.1,0.2-0.3,0.4-0.4,0.6c0,0.1-0.1,0.2-0.2,0.3c-0.4,0.5-0.8,1-1.2,1.6c-1.4,2.6-0.7,5.6,0.5,8.2c0.6,1.3,1.4,2.6,2.2,3.9
		c0.7,1,1.6,2.1,1.8,3.3c0.1,0.8-0.1,1.8-0.4,2.7c-0.3,0.9-0.8,2-1.2,3c-0.4,1.1-0.7,2.2-0.7,3.4c0,1.3,0.4,2.5,1,3.6
		c1.3,2.3,2.9,4.4,4.2,6.8C232.3,146.1,233.5,148.5,232.7,150.6z"/>
</g>
</svg>
