<?xml version="1.0" encoding="utf-8"?>
<!-- Generator: Adobe Illustrator 27.9.0, SVG Export Plug-In . SVG Version: 6.00 Build 0)  -->
<svg version="1.1" id="Layer_1" xmlns="http://www.w3.org/2000/svg" xmlns:xlink="http://www.w3.org/1999/xlink" x="0px" y="0px"
	 viewBox="0 0 275.3 251.3" style="enable-background:new 0 0 275.3 251.3;" xml:space="preserve">
<g>
	<path style="stroke:#000000;stroke-width:3;stroke-linecap:round;stroke-linejoin:round;stroke-miterlimit:10;" d="M79.1,98.5
		l0.2,0.1c0.8,0.4,1.8,0.2,2.2-0.6c0.4-0.8,0.3-1.8-0.5-2.2c-2.1-1.1-4.5-1.3-6.7-0.2c-2.2,1.2-3.3,3-4.2,4.9
		c-1.2,2.5-2,5.1-2.6,7.8c-0.7,3-1.2,6.1-1.6,9.2c-0.4,3.1-0.7,5.9-1.1,8.9c-0.1,0.6-0.2,1.3-0.2,1.9s-0.1,0.6-0.1,0.9
		c0,0.3,0,0.3,0,0.4v0.1c0,0,0,0.1,0,0.1v0.1c-0.4,2.6-0.7,5.2-1,7.8c-1.2,10.1-2.3,20-4.8,29.9c-1.1,4.4-2.5,8.7-4.2,13l-0.3,0.6
		l-0.3,0.7l-0.8,1.6c-0.5,1-1,2-1.5,3l-0.4,0.7c0.5-2.6,0.9-5.2,1.2-7.8c0.3-2.8,0.4-5.6,0.4-8.4c0-1.2-0.3-2.6-1.2-3.5
		c-0.8-0.9-2.1-1.2-3.2-0.7c-0.8,0.4-1.5,0.9-2.1,1.5V168l0.1-1.2c0-0.2,0-0.4,0.1-0.6c0-0.1,0.1-0.3,0.1-0.4
		c0.3-1.6,0.7-3.2,1.2-4.8c0.3-0.8,0.5-1.6,0.9-2.4c0.1-0.2,0.2-0.4,0.3-0.6c0-0.1,0.1-0.1,0.1-0.1s0,0,0,0c0-0.1,0-0.1,0.1-0.1
		l0.5-1.2c0.7-1.6,1.5-3.1,2.2-4.7c1.5-3.2,3-6.5,4.1-9.9c0.5-1.8,0.9-3.5,1.2-5.3c0.2-1.6,0.2-3.2,0.1-4.8c0-0.6,0-1.2,0-1.9
		c0,0,0-0.1,0-0.1l0.1-0.5c0.1-0.1,0.1-0.3,0.2-0.4v-0.1c0,0,0.1-0.1,0.1-0.1l0.3-0.4l0.1-0.2c0.3-0.3,0.5-0.6,0.8-0.8l0.2-0.2h0.1
		l0.1-0.1l0.6-0.4c0.5-0.4,1.1-0.6,1.6-0.9c0.7-0.5,0.9-1.5,0.4-2.2c-0.4-0.6-1.2-0.8-2-0.5c-1.7,0.9-3.4,1.9-4.5,3.5
		c-0.8,1.2-1.2,2.5-1.2,3.9c-0.1,1.3,0.1,2.7,0,4.1c0,0.4,0,0.9-0.1,1.3c0,0.2,0,0.4-0.1,0.6v0.2c0,0.1-0.1,0.2-0.1,0.3
		c-0.1,0.9-0.3,1.7-0.5,2.6c-0.4,1.7-1,3.4-1.7,5.1l-0.2,0.6l-0.2,0.4c-0.2,0.4-0.4,0.8-0.5,1.2c-0.2,0.4-0.7,1.7-1.1,2.5
		c-1.5,3.3-3.2,6.5-4.4,9.8c-1.2,3.4-2.2,7.7-1.9,11.7c0,0.6,0.3,1.1,0.8,1.4c1,0.5,2.1,0.4,3-0.1c0.7-0.4,1.3-1,1.9-1.6l0.3-0.2
		c-0.1,0-0.1,0,0-0.1h0.1c0-0.1,0.1-0.1,0.2-0.1c0,0,0,0,0.1-0.1c0,0,0,0.1,0,0.1l0.1,0.3c0,0.1,0,0.3,0,0.3v0.2
		c0.1,2.7,0,5.3-0.4,8c-0.3,2.7-0.6,5.3-1.2,7.9c-0.6,3-1.3,6-2.3,8.9c-0.2,0.7,0.1,1.4,0.7,1.8c0.6,0.3,1.5,0.3,1.9-0.3
		c5.7-7.3,9.6-15.7,12.2-24.6c2.8-9.5,4.2-19.4,5.4-29.2c0.9-7.4,1.8-14.6,2.7-22l0.3-2.2c0-0.4,0.1-0.7,0.1-1.1v-0.2l0.1-0.7
		c0.2-1.5,0.4-3,0.7-4.5c0.5-2.8,1.2-5.5,2-8.2l0.3-0.8c0-0.2,0.1-0.3,0.2-0.4l0.1-0.2c0.2-0.5,0.4-1,0.7-1.5
		c0.3-0.4,0.5-0.9,0.8-1.3l0.2-0.3h0c0.1,0,0.1-0.1,0.1-0.1l0.5-0.5l0.5-0.4l0.3-0.2c0.2-0.1,0.3-0.2,0.5-0.3l0.3-0.1l0.5-0.1h0.9
		l0.4,0.1l0.7,0.2h0.1C78.9,98.4,79,98.5,79.1,98.5C79.1,98.5,79.2,98.5,79.1,98.5z M45.2,169.2h-0.1H45.2
		C45.2,169.2,45.2,169.2,45.2,169.2z"/>
	<path style="stroke:#000000;stroke-width:3;stroke-linecap:round;stroke-linejoin:round;stroke-miterlimit:10;" d="M118.1,67.9
		l3.6,0.4c0.5,0,1-0.3,1.2-0.6c0.4-0.4,0.4-0.9,0.3-1.4c-0.1-0.5-0.4-1.9-0.5-2.9c0-0.2-0.1-0.5-0.1-0.7c0,0,0-0.1,0-0.2
		c0-0.1,0-0.2,0-0.2c-0.1-0.5-0.1-1,0-1.5c0-0.9-0.7-1.6-1.6-1.6c-0.9,0-1.6,0.7-1.6,1.6c-0.1,1.4,0.2,2.8,0.4,4.1l-8.6-0.9
		c-0.6-0.1-1.4,0.5-1.5,1.2c-0.2,0.7,0.1,1.4,0.7,1.8c2.1,1.1,4.2,2.4,6.2,3.7l0.4,0.3l0.1,0.1l0.7,0.6c0.4,0.4,0.9,0.8,1.2,1.2
		l0.6,0.6l0.2,0.3l0.1,0.1L120,74c0.3,0.4,0.6,0.9,0.8,1.3c-4.6-2.3-9.6-4.1-14.7-4c-5.2,0.1-10.3,2.5-14.7,5.5
		c-3.1,2.2-6.1,4.6-8.9,7.1c-0.6,0.6-0.6,1.6,0,2.2c0,0,0,0,0,0c0.6,0.6,1.6,0.6,2.3,0l4-3.4l1.8-1.4c0,0,0.2-0.1,0.2-0.2h0l0.4-0.3
		l0.9-0.7c2.1-1.6,4.5-2.9,6.9-4.1l0.1-0.1l0.4-0.2l0.9-0.3L102,75l1.7-0.4l0.4-0.1h0.2l0.9-0.1c1.2-0.1,2.4,0,3.6,0.1
		c0.1,0,0.6,0.1,0.1,0l0.5,0.1l1,0.2l2,0.5c0.8,0.2,1.6,0.5,2.4,0.8l1.2,0.4l0.6,0.3l0.4,0.1c1.9,0.8,3.7,1.8,5.4,2.8
		c0.8,0.4,1.8,0.1,2.2-0.7c0.1-0.2,0.2-0.5,0.2-0.7C124.9,73.8,121.6,70.4,118.1,67.9z"/>
	<path style="stroke:#000000;stroke-width:3;stroke-linecap:round;stroke-linejoin:round;stroke-miterlimit:10;" d="M250.9,192
		c-2.3-3.5-4.9-7.2-5.8-11.3c0.4,0.7,0.8,1.4,1.2,2.1c1.2,2.2,3.4,4.5,6.1,4.5c3.5,0.1,3.2-4.8,3.4-7.1c0.8-10.6,0.7-21.3-0.4-31.9
		c-0.4-3.2-0.8-6.4-1.5-9.6c-0.3-1.4-0.6-2.8-1.1-4.1c-0.1-0.3-0.2-0.5-0.2-0.7l0.4,0.2c0.8,0.4,1.6,0.8,2.5,0.4
		c0.9-0.4,1.4-1.5,1.6-2.3c0.5-2-0.3-4.1-0.8-5.9c-0.5-1.9-1.2-4.5-1.9-6.6c-2.8-8.9-6.5-17.4-11-25.6c-1.2-2.3-2.6-4.5-4-6.8
		c-1-1.6-2.7-3.5-2.9-5.5l2.7,0.1c1.3,0.1,2.7,0.2,3.8-0.6c2-1.5,1.2-4.1-0.1-5.7c-2.9-3.7-5.8-7.4-9-10.8
		c-6.1-6.6-13.2-12.4-21-16.8c-7.5-4.3-15.9-7.1-24.5-8.2c-1.6-0.2-3.3-0.3-4.9-0.4c1.1-0.9,2.2-1.8,3.1-2.8c0.9-1.1,1.3-2,1-3.1
		c-0.3-1.2-1.4-1.9-2.7-2.1c-3.1-0.6-6.1-0.3-9.2,0.3c-1.5,0.3-3,0.6-4.5,1l-2.3,0.6c-0.5,0.1-1.2,0.4-1.8,0.4c0-0.2,0-0.4,0.1-0.6
		c0.1-0.5,0.4-1,0.6-1.4c0.6-0.9,1.3-1.8,2.1-2.5c1.7-1.6,3.5-3.2,4.4-5.4c0.5-1.2-0.4-2.7-1.8-2.3c-8.6,2-16.5,6.7-23.8,11.7
		l-0.4,0.2l-2.6,1.6c-0.6,0.4-1.5,1.2-2.3,1.2s-1.3-0.6-1.7-1.2c-0.4-0.5-1.2-1.1-2-1.1c-1.6,0-3.3,1.6-4.4,2.6c-1,0.9-1.9,2-2.7,3
		l-0.8-0.7c-0.4-0.4-0.9-0.9-1.3-1.3c-0.9-1-1.7-2-2.5-2.9c-1.8-2.1-3.9-4-6.1-5.7c-4.3-3.3-9.3-5.6-14.6-6.8
		c-0.2-0.1-0.4-0.1-0.5,0h-0.2c-0.3,0-0.5,0.2-0.7,0.3c-0.6,0.3-0.8,1-0.6,1.7c1.3,3.3,2.8,6.5,4,9.8c0.2,0.4,0.3,0.8,0.4,1.3
		c0.1,0.3,0.1,0.5,0.1,0.8c-0.4-0.1-1.2-0.2-1.6-0.3c-3.7-0.9-7.4-2-11.2-2.3c-2.3-0.1-7.3-0.5-7.5,2.8c-0.1,1.5,1,2.7,1.9,3.7
		l2.2,2.5c-4.9,1.3-9.8,3-14.5,4.9c-2.8,1.2-5.5,2.4-8.2,3.7c-2.7,1.3-4.9,2.8-7.4,4.1c-5.1,2.8-9.9,6-14.5,9.5
		c-4.5,3.4-8.7,7-12.7,11c-1.8,1.8-4.4,4.7-2.8,7.4c0.8,1.3,2.9,1.5,4.2,1.4c0.9-0.1,1.7-0.2,2.6-0.3l0.6-0.1
		c-0.1,1.5-1.3,2.9-2,4.1c-1.1,1.7-2.1,3.4-3.1,5.2c-2,3.3-3.8,6.7-5.5,10.2c-3.4,6.9-6.3,14.1-8.5,21.5c-0.6,2-1.2,4.2-1.7,6.3
		c-0.5,2.1-0.3,4.1,1.3,5.4c0.5,0.5,1.3,0.6,2,0.3c0.4-0.2,0.9-0.4,1.3-0.5c0,0.4,0,0.9,0,1.3c0,0.4,0.1,0.7,0.3,1
		c-0.9,7.4-1.7,14.8-2.3,22.2c-0.3,4.5-0.6,9-0.7,13.5c-0.1,2.2-0.1,4.5-0.1,6.7s0.2,4,1.6,5.3c1.4,1.3,3.9,2.2,5.8,1.2
		c0.7-0.4,1.2-0.9,1.8-1.4l0.4-0.5c0,0.4-0.1,0.9-0.1,1.1c-0.1,0.9-0.3,1.9-0.5,2.8c-0.4,1.9-1.1,3.7-1.8,5.5
		c-1.4,3.7-3.3,7.1-4.7,10.7c-0.7,1.7-1.2,3.4-1.6,5.2c-0.4,1.5-0.8,3.1-0.7,4.7c0.1,1.6,0.6,2.8,1.7,3.6c0.6,0.5,1.2,0.8,2,0.9
		c1.1,0.2,1.9-0.4,2.7-1.1c2.2-1.7,4.1-3.7,5.6-6c0,0.4-0.1,0.8-0.1,1.2c-0.4,1.8-0.5,3.7-0.6,5.5c0,1.6-0.1,3.6,0.5,5.1
		c0.5,1.2,1.3,2.4,2.2,3.3c2.3,2.2,5.6,2.2,8.2,0.3s3.4-4.4,4.4-7.1c0.9-2.7,1.6-5.2,3.5-7c1,0.7,1.4,2.1,1.7,3.2s1,2.9,1.6,4.4
		c0.5,1.3,1.4,2.5,2.6,3.3c1.5,0.9,3.2,1,4.9,0.6c2.1-0.4,3.9-1.9,5.3-3.5c1.5-1.8,2.9-3.7,4.2-5.7c3-4.4,5.6-8.9,7.9-13.7
		c1.2-2.4,2.3-4.9,3.4-7.4c1.1-2.5,2-5,2.3-7.8c0.7-5.4-0.7-10.6-1.8-15.9s-2.2-11-3-16.5c-0.8-5.5-1.4-10.7-1.4-16.1
		c0.1-10,2.7-19.8,7.7-28.4C93,102.6,99.7,95.3,107,89l2.8-2.4c0.7-0.5,0.6-1.7,0-2.3c-0.6-0.6-1.6-0.5-2.2,0
		c-7.6,6.2-14.3,13.2-19.8,21.3c-5.7,8.5-9.2,18.3-10.2,28.4c-0.5,5.2-0.2,10.4,0.4,15.6s1.5,11,2.5,16.5c0.5,2.8,1.1,5.5,1.6,8.2
		c0.6,2.7,1.2,5.2,1.4,7.8c0.3,2.4,0.2,4.7-0.3,7.1c-0.6,2.6-1.7,5-2.8,7.4c-2.1,4.8-4.5,9.5-7.3,14c-1.4,2.3-2.8,4.5-4.4,6.6
		c-1.2,1.6-2.3,3.4-3.9,4.6c-0.6,0.5-1.4,0.9-2.2,1c-1.3,0.3-2.3,0.1-3-0.9c-0.7-0.9-1.2-2.4-1.7-3.7c-0.4-1.2-0.9-3.1-1.7-4.5
		c-0.5-0.9-1.3-1.6-2.1-2.2c-0.5-0.3-1.1-0.5-1.6-0.6c-0.7,0-1.3,0.5-1.8,1c-3.1,2.7-3.8,6.9-5.3,10.5c-0.7,1.7-1.7,3.5-3.6,4.1
		c-1.9,0.6-3.1-0.5-4-2.1c-0.9-1.6-0.7-2.3-0.7-3.6c0-1.5,0.1-2.9,0.3-4.4c0.2-1.5,0.6-2.9,0.4-4.4c0-0.4-0.1-0.7-0.1-1V211
		c0-1-0.7-2-1.1-2.8c0-0.1-0.1-0.1-0.1-0.2c-0.3-0.4-0.7-0.6-1.2-0.6c-0.6-0.1-1.2,0.3-1.4,0.8c-1.7,3.4-4.1,6.5-7.2,8.7
		c-1.5-0.8-0.6-3.5-0.3-4.9c0.7-3.1,1.9-5.9,3.2-8.8s2.9-6.1,3.9-9.3c0.5-1.5,1-3.1,1.2-4.7c0.3-1.5,0.7-3.3,0.4-4.8
		s-1.3-2.4-2.9-2.3c-1.5,0.2-2.2,0.9-3,1.8c-0.3,0.3-0.6,0.8-1,0.9s-1.2-0.2-1.5-0.4c-1.2-0.8-1.1-2.5-1.1-3.8c0-7.3,0.4-14.7,1-22
		c0.6-7.3,1.3-14.3,2.3-21.4c0.3-1.1,0.3-2.4,0.4-3.3c0.1-0.5-0.2-1.1-0.7-1.3c-0.4-0.3-0.9-0.4-1.3-0.3c-0.1,0-0.3,0.1-0.4,0.2
		c-0.6,0.4-1.4,0.4-2.1,0.5c-0.7,0.1-0.8,0.2-1.2,0.3c-0.4-1.3,0.5-3.2,0.8-4.3c0.6-2.2,1.2-4.4,1.9-6.5c1.3-4.2,2.9-8.4,4.7-12.4
		c1.8-4.1,3.8-8.1,6-12c1.1-2,2.3-4,3.5-5.9c1.2-2,2.6-3.8,3.5-5.9c0.5-1,0.7-2,0.6-3.1c-0.1-1.2-0.5-2-1.7-2.4
		c-1.1-0.4-2-0.1-2.9,0.1c-1,0.2-2.3,0.4-3.4,0.1c0-0.1,0.1-0.4,0.1-0.3c0.2-0.4,0.4-0.9,0.8-1.2c0.7-0.9,1.4-1.7,2.2-2.4
		c1.6-1.6,3.3-3.2,5.1-4.7c3.5-3,7.1-5.8,10.8-8.4c3.7-2.7,7.8-5,12-7.3c2.3-1.2,4.5-2.6,6.9-3.7c2.4-1.2,4.8-2.2,7.3-3.2
		c5.1-2,10.3-3.7,15.6-5c1.2-0.3,1.5-1.8,0.7-2.7c-1.2-1.4-2.4-2.8-3.7-4.2c-0.3-0.4-0.6-0.6-0.9-1c0,0-0.1-0.1-0.1-0.2l1.2-0.2h2.1
		c1.8,0.1,3.6,0.3,5.4,0.7c1.8,0.4,3.6,0.9,5.3,1.4c1.8,0.4,2.8,0.8,4.2,0.3c2.3-0.8,2-3.6,1.4-5.5c-0.9-2.5-2-5-3-7.5
		c5.9,1.9,11.1,5.3,15.3,9.8c1.2,1.3,2.3,2.7,3.5,4c1.2,1.3,2.6,2.9,4.1,3.1c1.6,0.2,2.8-2,3.8-3.2c0.5-0.6,1.1-1.1,1.7-1.6l1-0.7
		l0.4-0.2c0.4,0.5,1.7,1.3,1.9,1.4c0.9,0.4,1.9,0.6,2.9,0.4c1-0.2,2-0.8,2.9-1.4l2.1-1.3c0.2-0.1,0.4-0.1,0.6-0.3
		c6-4,12.2-8,19.1-10.4c-1.8,1.8-3.7,3.4-4.6,5.9c-0.9,2.5-0.3,4.9,2.4,5.2c1.1,0.1,2.2-0.3,3.2-0.5l4.1-1.1c2.7-0.6,5.4-1.2,8.1-1
		c0.6,0,1.2,0.1,1.9,0.2h0.1c-0.4,0.5-0.9,0.9-1.4,1.3c-1.2,1-2.4,1.8-3.4,2.9c-1,1.1-1.4,3,0.4,3.6c0.8,0.3,1.6,0.1,2.4,0.1
		s2.3,0.1,3.4,0.2c2.1,0.2,4.2,0.4,6.2,0.8c4.1,0.8,8.2,2,12,3.6c7.9,3.3,15.1,8.2,21.5,13.9c3.8,3.4,7.3,7.1,10.6,11.1
		c0.9,1,1.7,2,2.5,3.1c0.8,0.9,1.4,1.8,2.1,2.7c0.2,0.3,0.3,0.5,0.4,0.9H241c-0.4,0-0.7,0-1.1,0l-4.8-0.2c-0.7,0-1.3,0.5-1.5,1.2
		c-0.8,4,2,7.3,4,10.5c2,3.2,3.8,6.6,5.5,9.9c3.5,6.9,6.3,14,8.6,21.3c0.6,2,1.2,4.1,1.8,6.1c0.2,0.9,0.9,2.5,0.7,3.7
		c-0.8-0.4-1.7-0.9-2.5-1.2c-0.8-0.4-3.1-0.3-3.1,1.5c0,0.6,0.3,1.1,0.5,1.6c0.2,0.5,0.5,1.3,0.7,1.9c0.4,1.3,0.8,2.6,1.1,3.9
		c1.4,6.1,1.9,12.4,2.2,18.6c0.3,6.2,0.3,11.8,0,17.7c-0.1,2.1-0.2,4.2-0.4,6.3c-0.1,0.7-0.2,1.4-0.2,2.1v0.1c0,0.2,0,0.2,0,0
		c0,0.1,0,0.2,0,0.3v0.1c-0.6-0.3-1.2-0.5-1.8-0.9l-0.5-0.5c0.2,0.2,0.1,0.1,0,0l0,0c0,0,0,0,0-0.1c-0.1-0.1-0.2-0.3-0.3-0.4
		c-0.4-0.6-0.7-1.2-1.1-1.8c-1.2-2.1-3-6.5-6.1-5.2c-0.5,0.3-0.7,0.9-0.8,1.4c-1.1,10.2,8.3,17.3,11.5,26.2c0.5,1.5,1,3.1,0.9,4.7
		c-0.1,1.6-0.4,3.2-0.6,4.8c-0.2,1.6-0.6,3.8-0.9,5.8c-0.1,0.3-0.1,0.5-0.2,0.7c-0.7-1.3-1.5-2.6-2.3-3.9c-1.9-3-4.5-5.6-6.2-8.8
		c-0.5-1-2.2-1.1-2.8,0c-2.3,4.3-4.4,9.3-2.7,14.1c0.6,1.8,1.4,3.5,2,5.2c0.4,0.8,0.6,1.7,0.9,2.5c0.2,0.6,0.3,1.3,0.4,2
		c-0.1,0-0.3,0-0.2,0c-0.4-0.1-0.7-0.2-1.1-0.4c-1.8-0.8-3.3-2.4-4.6-3.9c-1.3-1.5-2.3-2.9-2.8-4.3s-1-3.3-1.5-4.9
		c-0.6-2.2-1.3-4.5-2.2-6.6c-0.8-1.9-1.7-3.8-3.4-5c-0.5-0.3-1.1-0.3-1.6,0c-2,1-2.8,3.8-3.3,5.8c-0.5,2-0.8,4.4-1.4,6.5
		c-0.5,2.2-0.5,4.5-0.9,6.7c-0.1,0.5-0.2,1-0.4,1.4c-0.1,0.2-0.2,0.3-0.3,0.5l-1-0.4c-2.4-1.3-4.6-3-6.3-5.3
		c-1.7-2.3-3.4-5.6-4.5-8.7c-2.4-6.2-4.2-12.8-8.2-18.2c-1.6-2.1-2.6-4.1-2.8-6.8c-0.2-2.7,0.1-5.9,0.6-8.7
		c1.2-6.3,3.1-12.5,4.1-18.8c1.2-7.4,3.2-14.7,4-22.2c0.4-3.7,0.4-7.4-0.1-11c-0.5-3.3-1.5-6.6-2.9-9.7
		c-5.3-12.2-15.7-21.4-25.6-29.9l-3.7-3.1c-1.5-1.3-3.8,0.9-2.2,2.3c10.1,8.6,20.8,17.4,27.2,29.3c1.5,2.8,2.7,5.9,3.5,9
		c0.9,3.6,1,7.2,0.7,10.8c-0.5,7.7-2.7,15.1-3.9,22.7c-1.1,6.5-2.9,12.8-4.1,19.2c-1.1,5.5-2,12.1,1.2,17c0.8,1.3,1.9,2.5,2.7,3.9
		c0.9,1.4,1.7,2.9,2.3,4.5c1.3,3,2.3,6.2,3.5,9.3c1.2,3.1,2.5,6.3,4.3,9.2c1.6,2.6,3.8,4.9,6.3,6.7c1.7,1.1,4.2,3,6.2,1.9
		s2.3-3.9,2.5-5.9c0.3-2,0.5-4,1-6.1c0.4-2,0.8-4.9,1.7-7.2c0.1-0.3,0.2-0.6,0.4-0.9l0.3,0.5c0.5,0.8,0.9,1.7,1.2,2.6
		c0.8,2.1,1.4,4.2,2,6.3c0.6,2.1,0.9,3.4,1.6,5c0.9,1.9,2.1,3.6,3.6,5.2c1.4,1.6,3.1,3.2,5,4.1s3.8,1.3,5.3,0
		c1.4-1.4,1.1-2.9,0.7-4.4c-0.4-1.5-1.2-3.7-2-5.4c-0.4-1-0.8-2-1.2-3l-0.4-1.2c0-0.2-0.1-0.4-0.1-0.5c0-0.1,0-0.4,0-0.4
		c-0.1-2.4,0.7-4.8,1.7-7c1.4,2,2.9,3.8,4.3,5.8c1,1.5,1.8,3,2.7,4.5c0.4,0.6,0.7,1.2,1.1,1.9l1.1-0.4c-0.3,0.2-0.7,0.4-1,0.5
		c0.2,0.3,0.4,0.6,0.7,0.9c0.7,0.8,1.8,1.1,2.7,0.4c0.9-0.7,0.7-1.1,0.9-1.8c0.4-1.7,0.6-3.4,0.9-5c0.4-2.1,0.7-4.3,1-6.5
		c0.2-1.3,0.4-2.7,0.4-4C257,201.1,253.7,196.2,250.9,192z M25.5,137.1C25.5,137.2,25.4,137.2,25.5,137.1L25.5,137.1z M36.6,81
		C36.8,81.1,36.5,81.5,36.6,81L36.6,81z M110.4,35.9C110.5,35.9,110.5,36,110.4,35.9L110.4,35.9z M181.8,41
		C181.8,41,181.8,41,181.8,41L181.8,41z M181.8,41C181.7,41,181.7,41,181.8,41L181.8,41L181.8,41z M217.9,225.7
		C217.9,225.6,217.9,225.6,217.9,225.7C217.9,225.6,217.9,225.7,217.9,225.7z M242.1,229.6L242.1,229.6
		C242,229.6,242,229.6,242.1,229.6z M241.9,229.6C241.9,229.6,241.9,229.7,241.9,229.6L241.9,229.6
		C241.8,229.6,241.8,229.6,241.9,229.6z"/>
	<path style="stroke:#000000;stroke-width:3;stroke-linecap:round;stroke-linejoin:round;stroke-miterlimit:10;" d="M213.1,126
		c-0.8-6.2-1.5-12.5-3.3-18.5c-1.6-5.3-4.3-11-9.6-13.3c-0.7-0.3-1.4-0.5-2.1-0.7c-0.8-0.2-1.7,0.3-2,1.1c-0.2,0.8,0.3,1.7,1.1,2
		l0.9,0.3l0.4,0.2c0,0,0.3,0.1,0.1,0c-0.2,0,0.1,0,0.1,0.1c0.5,0.3,1.1,0.5,1.6,0.9l0.4,0.3h0.1l0.7,0.6c0.4,0.4,0.9,0.9,1.3,1.4
		l0.1,0.1c0,0,0,0,0,0c0,0,0.1,0.1,0.1,0.1c0,0,0,0,0,0c0.1,0.1,0.1,0.2,0.2,0.3l0.6,0.8c0.4,0.6,0.7,1.2,1,1.8l0.4,0.9l0.2,0.4
		c0,0.1,0,0.2,0.1,0.2h0c0.3,0.7,0.5,1.4,0.8,2.1c1,2.9,1.7,5.9,2.2,8.9c0.3,1.5,0.5,3.1,0.7,4.6l0.1,0.6c0,0.1,0,0.4,0,0.4
		c0,0,0.1,0.7,0.2,1c0.1,0.4,0.2,1.5,0.3,2.2l0.3,2.2c0,0.2,0.1,0.3,0.1,0.5c0,0.2,0.1,0.4,0.1,0.5c0,0,0,0.1,0,0.1
		c0,0.1,0,0.2,0,0.2c0,0,0,0.3,0,0.4l0.1,0.8c0.2,2,0.3,4.1,0.2,6.2c-0.1,4.3-0.5,8.6-0.7,12.8c-0.2,4.3-0.3,8.5,0.3,12.7
		c0.5,4,1.8,8,3.6,11.6c3.5,7.2,8.8,13.5,13.8,19.7l1.8,2.2c0.4,0.5,1.4,0.6,1.9,0.3c0.6-0.4,0.9-1.1,0.7-1.8
		c-2.4-7.7-3.7-15.6-3.8-23.6v-1.9v-0.1h0c0,0,0-0.1,0.1-0.1h0.1l0.3,0.2h0c0.1,0.1,0.2,0.2,0.4,0.3c0.4,0.4,0.7,0.7,1.1,1
		c0.5,0.4,1.1,0.7,1.7,0.9c1.1,0.2,2.3-0.1,2.7-1.2c0.1-0.4,0.1-0.8,0.1-1.2c0-0.3,0-0.6,0.1-1c0-0.3,0.1-1.2,0.2-1.9
		c0.4-5.3,0.9-10.5,0.4-15.8c-0.5-5.3-1.8-10.5-5.3-14.6c-1.7-2-3.9-3.7-6.3-4.8l-0.4-0.2l-0.6-0.3l-0.8-0.5l-0.2-0.2l-0.3-0.3
		c-0.1-0.1-0.3-0.3-0.4-0.4l-0.2-0.3c-0.2-0.3-0.4-0.6-0.5-0.9l-0.3-0.5c0-0.1,0-0.1-0.1-0.2c0,0,0-0.1,0-0.1h0
		c-0.3-0.7-0.5-1.4-0.7-2.1c-0.2-0.7-0.4-1.4-0.5-2.1c-0.3-0.9-1.1-1.3-2-1.1c-0.8,0.3-1.3,1.1-1.1,2c0.4,2,1,3.9,1.9,5.7
		c0.4,0.9,1.1,1.7,1.8,2.4c0.4,0.4,0.8,0.7,1.2,1l0.5,0.3l0.4,0.2l0.4,0.2c0.8,0.4,1.6,0.8,2.3,1.2l1,0.7l0.2,0.1l0.1,0.1l0.5,0.4
		c0.6,0.5,1.2,1.1,1.7,1.7l0.4,0.4h0c0,0.1,0.1,0.1,0.1,0.2l0.7,1c0.4,0.7,0.8,1.3,1.1,2c0,0.1,0.1,0.3,0.2,0.4l0.2,0.4
		c0.2,0.4,0.3,0.8,0.4,1.2c0.5,1.6,0.9,3.2,1.1,4.8c0,0.1,0,0.2,0,0.3c0,0,0,0,0,0.1c0,0.2,0,0.4,0.1,0.6c0,0.4,0.1,0.9,0.1,1.3
		c0,0.4,0.1,1.7,0.1,2.6c0.1,1.7,0,3.5,0,5.2c-0.1,3.1-0.4,6.1-0.7,9.2c-0.4-0.4-0.9-0.8-1.3-1.2c-0.8-0.6-1.8-0.8-2.7-0.6
		c-1.5,0.4-2.5,1.7-2.6,3.2c-0.1,1.4,0,2.9,0.1,4.3c0,1.4,0.1,2.8,0.3,4.1c0.3,3,0.7,5.9,1.2,8.8c0.1,0.7,0.3,1.3,0.4,2l-2.7-3.5
		c-2.5-3.2-4.7-6.5-6.7-10c-0.5-0.9-0.9-1.8-1.4-2.7c-0.2-0.4-0.4-0.8-0.5-1.2c-0.2-0.4-0.3-0.7-0.5-1.2c-0.7-1.8-1.2-3.7-1.6-5.5
		c-0.1-0.5-0.2-1-0.3-1.5c0-0.2,0-0.3-0.1-0.5l-0.1-0.9c-0.1-1.1-0.2-2.1-0.2-3.2c-0.1-2.1-0.1-4.2,0-6.2c0.2-4.3,0.6-8.6,0.7-12.9
		c0.1-2.1,0.1-4.2,0-6.3c-0.1-1-0.2-2.1-0.3-3.1c0-0.3-0.1-0.5-0.1-0.8v-0.2C213.2,126.7,213.1,126.3,213.1,126z M232.6,166.9
		C232.7,166.9,232.7,166.9,232.6,166.9L232.6,166.9z M232.5,166.8L232.5,166.8L232.5,166.8C232.5,166.8,232.5,166.8,232.5,166.8z"/>
	<path style="stroke:#000000;stroke-width:3;stroke-linecap:round;stroke-linejoin:round;stroke-miterlimit:10;" d="M173.4,71.2
		l0.2,0.1l0.5,0.2l1.9,1c1.2,0.7,2.5,1.5,3.6,2.3l0.4,0.3c0,0,0.1,0.1,0.2,0.1c0,0,0,0,0,0l0.9,0.7l1.7,1.5c1.2,1.2,2.4,2.4,3.6,3.7
		l0.8,1l0.4,0.5l0.2,0.2l0.1,0.1c0.5,0.7,1.1,1.4,1.6,2.1c0.5,0.7,1.4,1.1,2.2,0.6c0.8-0.5,1.1-1.4,0.6-2.2
		c-3.7-5.3-8.2-10-13.7-13.3c-5.3-3.3-11.6-4.7-17.8-4.3c-2.8,0.2-5.4,0.8-8,1.7c0.3-0.6,0.5-1.2,0.8-1.8c0.4-0.8,0.8-1.5,1.3-2.2
		l0.2-0.2l0.4-0.5c0.3-0.3,0.6-0.6,0.9-0.9c0.1-0.1,0.4-0.5,0.6-0.5l-0.1,0.1l0.2-0.1l0.4-0.3c0.5-0.4,1-0.7,1.6-1
		c0.6-0.4,0.9-1.1,0.7-1.8c-0.2-0.6-0.8-1.2-1.5-1.2c-1.2,0.1-2.4,0.3-3.6,0.4c-0.4,0-0.9,0-1.4-0.1H153c0,0,0,0,0,0h-0.3
		c0-1.2-0.3-2.5-0.8-3.6c-0.4-0.9-1-1.6-1.8-2.1c-1.1-0.6-2.3-0.7-3.5-0.4c-0.8,0.2-1.3,1.1-1.1,1.9c0.3,0.8,1.1,1.3,2,1.1h0.6
		l0.4,0.1l0.1,0.1l0.2,0.1l0.1,0.1h0l0.1,0.1h0l0.2,0.4l0.1,0.2c0.1,0.3,0.2,0.6,0.3,1c0,0,0,0.1,0,0.1v0.1c0-0.1,0,0.3,0,0.4
		c0,0.6,0,1.2,0,1.8c-0.1,0.6,0.5,1.4,1.2,1.5c0.6,0.1,1.6,0.3,2.5,0.4l-0.6,0.7c-1.1,1.5-2,3.1-2.7,4.8c-0.5,1.1-1,2.2-1.5,3.4
		s-0.3,1.4,0.3,2c0.5,0.5,1.3,0.6,2,0.2l0.6-0.3c0,0,0,0,0,0h0l0.3-0.1l1.2-0.5c0.8-0.3,1.6-0.6,2.5-0.8l2.4-0.6l1.2-0.2l0.5-0.1
		h0.3c1.5-0.2,3.1-0.3,4.6-0.2c0.7,0,1.4,0.1,2.1,0.2c0.1,0,0.2,0,0.3,0l0.4,0.1l1.2,0.2c1.4,0.3,2.8,0.7,4.1,1.2L173.4,71.2z"/>
</g>
</svg>
