<?xml version="1.0" encoding="utf-8"?>
<!-- Generator: Adobe Illustrator 27.9.0, SVG Export Plug-In . SVG Version: 6.00 Build 0)  -->
<svg version="1.1" id="Layer_1" xmlns="http://www.w3.org/2000/svg" xmlns:xlink="http://www.w3.org/1999/xlink" x="0px" y="0px"
	 viewBox="0 0 297.3 170.2" style="enable-background:new 0 0 297.3 170.2;" xml:space="preserve">
<g>
	<path style="stroke:#000000;stroke-width:3;stroke-linecap:round;stroke-linejoin:round;stroke-miterlimit:10;" d="M270.3,149
		c-0.2-0.2-0.4-0.3-0.5-0.6l-0.1-0.1c0-0.1-0.1-0.1-0.1-0.2c-0.1-0.1-0.2-0.3-0.3-0.4l-0.5-0.8c-0.1-0.1-0.2-0.3-0.2-0.5
		c0-0.1,0-0.1-0.1-0.2s-0.1-0.2-0.1-0.1s-0.2-0.6-0.2-0.8c-0.1-0.3-0.2-0.7-0.3-1c-0.2-0.6-0.3-1.3-0.4-2c0-0.2,0-0.3-0.1-0.5
		s-0.1-0.7-0.1-1c0-0.7-0.1-1.4,0-2.1c0-1.4,0.1-2.9,0.3-4.3c0.3-3.2,0.7-6.5,0.4-9.7c-0.1-1.4-0.4-2.7-0.8-4c0,0,0,0,0,0
		c2.5-1.8,3-5,2.1-7.9c-0.2-0.8-0.5-1.6-0.9-2.3l-0.4-0.9l-0.2-0.6l-0.1-0.2c0,0,0,0,0,0c-0.6-1.4-0.9-2.9-1.2-4.4
		c-0.6-3-1.1-6.1-1.7-9.1c-0.6-3-1.4-5.9-2.2-8.9c-1.6-5.9-3.5-11.7-5.8-17.3c-2.3-5.7-5.1-11.2-8.3-16.4c-2.9-4.7-6.2-9.1-9.9-13.2
		c-3.6-4.1-7.7-7.8-12-11.1c-4.2-3.3-8.9-6-13.7-8.3c-2.4-1.1-4.9-2.2-7.7-2.3c-1.3-0.1-2.6,0.2-3.7,0.8c-1.3,0.8-2.3,2.1-2.7,3.5
		c-0.5,1.5-0.5,3-0.6,4.5l-0.3,5.1l-0.7,10c-0.1,1.2-0.2,2.4-0.3,3.7c0,0.1,0,0.3,0,0.4v0.1c0,0.3-0.1,0.6-0.1,0.9
		c-0.1,0.6-0.2,1.2-0.3,1.8c-0.1,0.6-0.3,1.2-0.5,1.7c-0.1,0.3-0.2,0.5-0.2,0.8c-0.1,0.1-0.1,0.3-0.2,0.5c0,0,0,0,0,0.1
		c0,0,0,0,0,0.1c-0.2,0.5-0.5,1-0.8,1.5l-0.4,0.7l-0.2,0.3c0,0-0.1,0.1-0.1,0.1c-0.3,0.4-0.7,0.8-1.1,1.2c-0.1,0.1-0.2,0.2-0.3,0.2
		l-0.1,0.1l-0.7,0.5c-0.3,0.2-0.5,0.4-0.6,0.7c-1.7-1.3-3.7-2.1-5.9-2.3c-2.9-0.3-5.9,0.6-8.4,2l-0.3,0.2c-3.6-2.2-7.8-3.5-12-4.1
		c-6.9-1-14.2-0.9-21,0.8c-2.6,0.6-5.1,1.5-7.5,2.8c-5-2.6-11.2-3-16.4-1c-0.9,0.3-1.8,0.8-2.6,1.2h-0.2c-0.2,0-0.5,0-0.8,0h-0.5
		l-0.9-0.2l-0.9-0.3l-0.4-0.1h-0.2l-0.7-0.3l-0.3-0.2l-0.2-0.1l-0.2-0.1l-0.2-0.2c-0.1-0.2-0.2-0.3-0.3-0.6
		c-0.1-0.1-0.2-0.3-0.2-0.5c0-0.1-0.1-0.2-0.1-0.3c-0.1-0.3-0.2-0.7-0.3-1c-0.2-0.7-0.4-1.5-0.5-2.2l-0.2-1.2V49c0-0.1,0-0.1,0-0.2
		l-0.1-0.8c-0.4-3.5-0.4-7-0.1-10.5c0.1-0.8,0.2-1.7,0.3-2.6v-0.3c0-0.1,0-0.2,0-0.2c0-0.2,0.1-0.3,0.1-0.5c0.1-0.3,0.1-0.7,0.1-1
		c0.2-1.5,0.4-3,0.4-4.5c0-2.9-0.8-6-3.2-7.9c-2.4-1.9-5.2-2.2-8-1.9c-2.8,0.3-5.7,1.3-8.5,2.3c-2.8,1-6,2.4-8.9,3.8
		c-5.7,2.7-11.2,5.9-16.2,9.8c-4.9,3.7-9.4,8-13.3,12.7c-3.9,4.7-7.1,9.8-9.6,15.3c-1.3,2.9-2.4,5.8-3.3,8.9c-0.9,3-1.6,6-2.4,9
		c-0.7,3-1.6,6.1-2.7,9l-0.4,1L33.6,91c0,0.1,0,0.1-0.1,0.2v0.1c-0.3,0.7-0.7,1.4-1,2.2c-0.7,1.4-1.5,2.7-2.3,4
		c-0.9,1.4-1.7,2.8-2.3,4.3c-0.4,1-0.7,2.1-0.8,3.2c-0.3,2.2,0.1,4.6,1.5,6.4c0.5,0.6,1.1,1,1.8,1.4c-1.9,2.1-3.3,4.5-3.8,7.3
		s-0.2,6.5,0.1,9.7s0.6,6.6,0.7,9.9c0,0.8,0,1.7,0,2.5c0,1,0.8,1.7,1.7,1.7c1,0,1.7-0.8,1.7-1.7c0.1-3.3,0-6.6-0.4-10
		c-0.3-3.2-0.8-6.4-0.7-9.7l0.1-1.2c0,0,0-0.1,0-0.1c0-0.2,0-0.3,0.1-0.5c0.1-0.6,0.3-1.2,0.5-1.8l0.1-0.2c0,0,0,0,0-0.1v-0.1
		l0.1-0.1c0.1-0.3,0.2-0.6,0.4-0.8c0.3-0.5,0.6-1,1-1.5c0,0,0-0.1,0.1-0.1l0.2-0.3l0.6-0.7l1.3-1.3c0.5-0.4,0.9-0.8,1.4-1.2h0.1
		l0.3-0.3c0.2-0.2,0.5-0.4,0.8-0.6c5.1-3.6,10.7-6.4,16-9.7c4.4-2.8,8.6-5.9,12.1-9.8c3.5-3.9,6.3-8.5,7.3-13.6
		c0.1-0.8,0.2-1.5,0.3-2.3c0.1-0.7-0.9-1.8-1.7-1.7s-1.6,0.8-1.7,1.7v0.1c0,0.1,0,0.3-0.1,0.5s-0.1,0.7-0.2,1
		c-0.1,0.3-0.3,1.3-0.5,1.9c-0.2,0.6-0.4,1.2-0.6,1.7l-0.2,0.4c0,0,0,0.1,0,0.1l-0.4,0.9c-0.5,1.1-1.2,2.2-1.9,3.2
		c-0.3,0.6-0.7,1-1.1,1.6l-0.1,0.1l-0.3,0.3l-0.6,0.8c-1.7,1.9-3.5,3.7-5.5,5.3l-0.7,0.6l-0.4,0.3l-0.1,0.1h-0.1l-1.5,1.1
		c-1,0.8-2.1,1.5-3.1,2.1c-1,0.7-2.8,1.8-4.3,2.6c0-0.1,0-0.1-0.1-0.2c-0.1-0.2-0.1-0.5-0.2-0.8c0-0.1,0-0.2-0.1-0.3v-0.1
		c0-0.3-0.1-0.6-0.1-0.8c0-0.6,0-1.2,0.1-1.7v-0.1c0-0.1,0-0.3,0.1-0.3c0,0,0.1-0.6,0.1-0.8l0.2-0.7c0.1-0.2,0.2-0.5,0.2-0.7
		c0,0,0,0,0-0.1l0.2-0.5l0.5-0.9c0.6-1.2,1.4-2.3,2-3.5c1.3-2.3,2.3-4.9,2.8-7.5c0.5-2.6,0.9-5.3,1.2-8L55,73c0-0.1,0-0.2,0-0.3
		c0-0.1,0-0.3,0.1-0.4c0-0.1,0.2-1.3,0.3-1.9c0.2-1.3,0.5-2.5,0.9-3.7c0.2-0.6,0.4-1.3,0.6-1.9c0.1-0.3,0.2-0.6,0.3-0.9
		c0-0.1,0.1-0.2,0.1-0.2c0-0.1,0.1-0.3,0.2-0.4c0.5-1.2,1.1-2.4,1.7-3.5c1.3-2.3,2.7-4.5,4.2-6.7c0.7-1.1,1.5-2.1,2.3-3.2l1.1-1.5
		l0.1-0.2c0.1-0.1,0.2-0.2,0.3-0.4l0.6-0.8c3.3-4.1,6.8-7.8,10.7-11.3c0.5-0.5,0.9-0.9,1.4-1.3c0.7-0.7,0.7-1.8,0-2.5
		c-0.7-0.7-1.8-0.7-2.5,0c-4,3.5-7.7,7.3-11.1,11.3c-3.4,4.1-6.5,8.5-9.3,13.1c-1.4,2.4-2.7,4.9-3.7,7.6c-0.8,2.5-1.4,5.1-1.8,7.7
		l-0.5,4.2c0,0.3-0.1,0.7-0.1,1v0.2h0v0.1c0,0.1,0,0.2,0,0.3l-0.3,2c-0.2,1.3-0.5,2.6-0.9,3.8c-0.2,0.6-0.4,1.3-0.7,1.9
		C49,85.2,49,85.3,49,85.3c0,0.1-0.1,0.2-0.1,0.3c-0.1,0.3-0.3,0.7-0.5,1c-1.3,2.4-2.9,4.6-3.8,7.2c-0.8,2.3-0.9,4.9-0.4,7.3
		c0.1,0.6,0.3,1.1,0.6,1.6c-3,1.7-5.9,3.4-8.8,5.4c-0.9,0.6-1.9,1.3-2.8,2.1c-0.1-0.1-0.3-0.2-0.5-0.2l-0.4-0.1h-0.1
		c-0.2-0.2-0.4-0.3-0.7-0.4h0l-0.2-0.2l-0.1-0.1l-0.1-0.2c-0.1-0.1-0.1-0.3-0.2-0.5v-0.1l-0.1-0.3c0-0.2-0.1-0.4-0.1-0.7
		c0-0.2,0-0.2,0-0.3c0-0.5,0-0.9,0-1.3c0-0.1,0-0.2,0-0.4c0-0.2,0-0.3,0.1-0.5c0.1-0.5,0.2-0.9,0.3-1.3c0.1-0.2,0.1-0.3,0.2-0.5
		c0,0,0-0.1,0-0.1c0,0,0.1-0.1,0.1-0.1l0.6-1.1c0.7-1.3,1.6-2.6,2.4-3.9c0.8-1.3,1.5-2.6,2.1-4c1.3-2.9,2.3-5.9,3.1-9
		c1.6-5.9,2.8-11.9,5-17.6c0.1-0.3,0.3-0.7,0.4-1l0.2-0.5c0-0.1,0.1-0.2,0.1-0.2c0.3-0.7,0.6-1.4,0.9-2c0.6-1.3,1.3-2.6,2-3.8
		c1.4-2.6,3-5,4.8-7.4l0.6-0.8l0.2-0.2l0.4-0.5c0.5-0.6,0.9-1.2,1.4-1.7c0.9-1.1,1.9-2.2,2.9-3.3c2-2.2,4.2-4.2,6.5-6.1
		c0.6-0.5,1.2-1,1.8-1.5l0.2-0.1h0l0.1-0.1l0.4-0.3l0.9-0.7c1.3-0.9,2.6-1.8,3.8-2.7c2.6-1.7,5.2-3.2,8-4.7c1.4-0.7,2.8-1.4,4.2-2.1
		l2.1-1l1-0.4h0l0.2-0.1l0.6-0.2c2.7-1.2,5.5-2.2,8.3-3c0.7-0.1,1.3-0.3,2-0.4h0.6l1-0.1c0.6,0,1.2,0,1.9,0.1h0.2l0.4,0.1l0.9,0.2
		l0.1,0.1c0,0,0.1,0,0.1,0h0.1l0.2,0.1l0.8,0.5l0.1,0.1l0.3,0.3l0.3,0.4l0.1,0.1c0,0,0,0,0,0c0.2,0.2,0.3,0.5,0.5,0.8l0.1,0.2
		c0,0,0,0,0,0.1l0.1,0.3c0.1,0.3,0.1,0.6,0.2,0.9l0.1,0.5c0,0,0,0.1,0,0.2c0.1,1.4,0.1,2.7-0.1,4.1l-0.1,1c0,0,0,0.1,0,0.1
		c0,0.2,0,0.4-0.1,0.6c-0.1,0.8-0.2,1.7-0.3,2.6c-0.4,3.5-0.5,6.9-0.2,10.4c0.1,1.8,0.3,3.6,0.6,5.3h0c0,0,0,0,0,0
		c-0.1-0.1-0.1-0.2-0.2-0.2l-0.3-0.4c-0.1,0-0.1-0.1-0.1-0.1l-0.6-0.9c-0.4-0.6-0.8-1.2-1.1-1.8c-0.1-0.3-0.3-0.6-0.5-0.9
		c-0.1-0.3-0.1-0.2-0.1-0.4l-0.1-0.3c-0.5-1.3-0.9-2.7-1.1-4.1v-0.2c0-0.2-0.1-0.3-0.1-0.5c0-0.4-0.1-0.7-0.1-1.1c0-0.4,0-1.5,0-2.3
		c0.1-3.1,0.5-6.4-0.6-9.4c-0.3-0.9-0.8-1.7-1.5-2.4c-0.8-0.7-1.7-1.1-2.8-1.2c-1.7-0.1-3.4,0.7-4.8,1.7c-0.7,0.5-1.2,1.5-0.6,2.4
		c0.5,0.8,1.6,1.2,2.4,0.6c0.8-0.6,0.6-0.4,0.8-0.5l0.4-0.2l0.2-0.1l0.2-0.1l0.2-0.1l0.5-0.1h0.8l0.1,0.1l0.1,0.1l0.1,0.1
		c0.1,0.2,0.2,0.3,0.3,0.6c0,0,0,0,0,0.1l0.1,0.2c0.1,0.2,0.1,0.4,0.2,0.6c0.1,0.3,0.2,0.7,0.2,1.1c0,0.1,0,0.1,0,0.2v0
		c0,0.2,0,0.4,0.1,0.6c0,0.8,0,1.5,0,2.3c0,1.5-0.2,3.1-0.2,4.6c0,3,0.6,6.1,1.8,8.9c0.6,1.3,1.3,2.5,2.1,3.7
		c0.7,0.9,1.3,1.9,2.3,2.6l2.3,1.4c0.4,0.2,0.8,0.5,1.2,0.7c0.6,1,1.4,1.8,2.4,2.3c0.6,0.4,1.3,0.7,2,0.9c-0.2,0.2-0.5,0.4-0.7,0.6
		l-3.3,2.7l-0.3,0.3l-0.2,0.2H108c-0.1,0.1-0.1,0.1-0.2,0.2c-0.1,0.1-0.3,0.2-0.4,0.3c-0.6,0.4-1.2,0.8-1.7,1.2
		c-0.7,0.4-1.4,0.8-2.1,1.1l-0.2,0.1h0c0,0,0,0,0,0l-0.6,0.2l-1,0.3l-1.1,0.2h-2.6l-0.3-0.1c-0.9-0.2-2,0.2-2.2,1.2s0.3,2,1.2,2.1
		c3.1,0.6,6.1,0,8.9-1.4c2.8-1.3,4.9-3.1,7.1-4.9l1.6-1.4c0.3-0.2,0.5-0.4,0.8-0.6l0.2-0.1h0.1l0.1-0.1l0.2-0.2
		c0.8-0.6,1.6-1.2,2.5-1.7l0.3-0.2l0.7-0.4l0.8-0.4h0.2l0.5-0.2l2-0.6l0.9-0.2l0.5-0.1h0.2c0.7-0.1,1.3-0.1,2-0.1
		c0.7,0,1.5,0,2.2,0.1l0.5,0.1h0.3l1.1,0.2c0.7,0.1,1.4,0.3,2,0.6c-0.6,0.6-0.9,1.5-0.4,2.2c0.5,0.7,1.6,1.2,2.4,0.6
		c1.4-0.9,2.8-1.8,4.4-2.5l0.6-0.3l0.1-0.1h0.1l1.3-0.5c0.8-0.3,1.5-0.5,2.3-0.7c1.6-0.5,3.3-0.8,5-1.1h0.6l0.3-0.1l1.4-0.1l2.5-0.2
		c3.3-0.1,6.5,0,9.8,0.3l0.5,0.1h0.2l1.2,0.2l2.3,0.5c1.5,0.4,3,0.8,4.4,1.4l0.2,0.1h-0.1c0.1,0,0.1,0,0.1,0.1l0.6,0.2l1.2,0.6
		c0.7,0.4,1.4,0.8,2.1,1.3l0.5,0.4l0.2,0.1h0.1l1,0.8c0.6,0.6,1.2,1.2,1.7,1.9c0.7,0.7,1.8,0.7,2.5,0c0.7-0.8,0.6-1.7,0-2.5
		c-0.6-0.7-1.3-1.4-2-2l0.2-0.1h0.1c0,0,0,0,0,0c0.6-0.2,1.2-0.5,1.9-0.6l0.7-0.2l0.4-0.1h0.1c0.6,0,1.3-0.1,1.9,0h0.5l0.8,0.2
		l0.8,0.2c0,0,0.1,0,0.1,0l0.4,0.2c0.4,0.2,0.8,0.5,1.2,0.7l0.3,0.2h0.1c0.2,0.2,0.5,0.3,0.7,0.6c1.6,1.4,2.9,3,4.3,4.5
		c1.6,1.7,3.5,3.1,5.6,4.2c2.6,1.3,5.4,1.8,8.3,1.7c1,0,1.7-0.8,1.7-1.7c0-1-0.8-1.7-1.7-1.7h-1.7l-0.7-0.1c-0.1,0-0.2,0-0.3,0
		l-0.6-0.1c-0.6-0.1-1.1-0.2-1.7-0.4l-0.8-0.3l-0.4-0.2l-0.2-0.1c-1-0.5-2-1-2.9-1.7l-0.2-0.1l-0.3-0.3c-0.2-0.1-0.4-0.3-0.6-0.5
		c-0.4-0.4-0.8-0.8-1.2-1.2c-0.9-1-1.8-2.1-2.8-3c1.2-0.7,2.2-1.6,3-2.7c0,0.2,0.1,0.5,0.3,0.6c0.6,0.8,1.6,1,2.4,0.4
		c3.4-2,4.6-6.1,5.6-9.7c0.6-2.1,1.1-4.1,1.6-6.2c0.1-0.5,0.3-1,0.4-1.5l0.2-0.7c0,0,0,0,0,0v-0.1c0,0,0-0.1,0-0.1l0.1-0.5
		c0.3-1,0.7-2,1-3c0.2-0.5,0.4-1,0.6-1.4c0-0.1,0.1-0.2,0.1-0.3l0.1-0.1c0-0.1,0.1-0.2,0.2-0.2h0.1c0.4,0.8,1.3,1.1,2.1,0.8
		c0.9-0.3,1.4-1.4,1-2.3c-0.3-1.2-1.4-2-2.6-2.1c-1.3-0.1-2.5,0.4-3.3,1.4c-0.8,0.8-1.2,1.9-1.6,2.9c-0.4,1-0.8,2.2-1.1,3.3
		c-0.7,2.3-1.3,4.7-2,7c-0.3,1.1-0.6,2.2-0.9,3.3l-0.2,0.7c0,0.1-0.1,0.4-0.2,0.4c0,0.1-0.3,0.9-0.5,1.3c-0.2,0.5-0.4,1-0.6,1.4
		c-0.1,0.3-0.2,0.5-0.3,0.7c0,0.1-0.1,0.1-0.1,0.2l-0.1,0.1c-0.3,0.4-0.6,0.8-1,1.2l-0.1,0.1c1.1-2.2,1.7-4.6,2.1-7
		c0.4-2.7,0.5-5.4,0.7-8.2l0.6-9.8c0.1-1.6,0.2-3.1,0.3-4.7c0-0.1,0.1-0.5,0-0.2l0.1-0.5c0-0.3,0.1-0.6,0.2-0.9l0.1-0.2l0.2-0.4
		c0,0,0-0.1,0.1-0.1l0.3-0.3c0,0,0,0,0,0l0.3-0.2l0.2-0.1h0l0.2-0.1l0.7-0.2h1.9c0.6,0.1,1.2,0.2,1.7,0.4l0.8,0.3l0.4,0.1l0.2,0.1
		l1.7,0.8c1.2,0.6,2.4,1.1,3.6,1.7c2.3,1.2,4.5,2.6,6.7,4.1c1,0.7,2.1,1.5,3.1,2.3l0.4,0.3l0.1,0.1l0.8,0.6l1.5,1.3
		c2,1.7,3.9,3.5,5.8,5.4s3.6,3.8,5.3,5.9l1.2,1.5l0.3,0.4h0.1c0,0,0,0,0,0.1c0.2,0.3,0.5,0.6,0.7,0.9c0.8,1,1.5,2.1,2.3,3.2
		c3.2,4.7,6.1,9.7,8.5,14.9c0.6,1.3,1.2,2.7,1.7,4l0.1,0.2c0.1,0.2,0.1,0.3,0.2,0.5c0.2,0.3,0.3,0.7,0.5,1.1c0.3,0.7,0.5,1.4,0.8,2
		c1,2.8,2,5.6,2.9,8.4c1.7,5.7,3.2,11.5,4.3,17.4c0.6,3,0.9,6,1.9,8.9c0.2,0.8,0.6,1.6,0.9,2.3l0.4,0.9l0.2,0.5
		c0.1,0.1,0.1,0.2,0.1,0.3c0.3,0.6,0.5,1.3,0.7,2c0,0.1,0,0.2,0.1,0.4c0,0,0,0.1,0,0.1v0.9c0,0.1,0,0.1,0,0.1c0,0.1,0,0.2-0.1,0.3
		l-0.1,0.4c0,0,0,0.1,0,0.1l-0.2,0.3l-0.1,0.1l-0.6-1c-1.9-3-4.5-5.4-7.3-7.5c-0.6-5-1.4-10-2.5-15c-0.6-2.5-1.2-4.9-2.1-7.3
		c-0.9-2.8-2.2-5.5-3.4-8.1c-0.7-1.4-1.3-2.9-1.9-4.3c-0.1-0.2-0.2-0.4-0.2-0.6s-0.1-0.2,0-0.1l-0.1-0.1l-0.5-1.2l-0.7-2
		c-0.9-2.6-1.7-5.2-2.6-7.8c-1.8-5.4-4-10.7-7.8-15c-2-2.2-4.4-4-6.8-5.8c-2.4-1.8-5.1-3.8-7.7-5.7l-2-1.4c-0.7-0.6-2-0.1-2.4,0.6
		c-0.5,0.8-0.2,1.9,0.6,2.4l7.8,5.9l1.8,1.3l0.8,0.6l0.4,0.3h0l0.2,0.2c1.1,0.9,2.2,1.8,3.2,2.7c1,0.9,1,1,1.5,1.5
		c0.5,0.5,0.5,0.5,0.7,0.8l0.3,0.3l0.2,0.2c0.8,1.1,1.5,2.2,2.2,3.4c0.3,0.6,0.6,1.2,0.9,1.8c0.1,0.3,0.3,0.6,0.4,0.8l0.2,0.5v0.2
		c0,0,0,0,0,0.1c0.5,1.2,1,2.5,1.4,3.7c0.9,2.6,1.6,5.2,2.5,7.7c1,2.9,2.1,5.7,3.4,8.5c0.6,1.4,1.3,2.8,1.9,4.3
		c0.3,0.7,0.7,1.4,0.9,2.1l0.2,0.5c0,0.1,0.1,0.1,0.1,0.2c0,0,0,0.1,0,0.1c0.1,0.3,0.2,0.6,0.3,0.8c0.8,2.2,1.6,4.5,2.1,6.9
		c0.7,2.6,1.2,5.1,1.6,7.8c0.2,1.2,0.4,2.5,0.6,3.7c0.1,0.6,0.2,1.2,0.3,1.8l-0.7-0.5c-2.3-1.5-4.7-3.1-6.9-4.8l-0.8-0.6l-0.4-0.3h0
		l-0.2-0.2l-1.8-1.4c-1.2-1-2.3-2-3.5-3c-2.3-2.1-4.4-4.2-6.5-6.4l-3-3.5l-0.7-0.8l-0.3-0.3c0,0,0-0.1-0.1-0.1l-0.2-0.2l-0.6-0.9
		l-0.2-0.5l-0.1-0.2c-0.1-0.2-0.1-0.4-0.2-0.6s0-0.1,0-0.2s0-0.1,0-0.1v-0.4c0,0,0-0.1,0-0.1c0.2-0.9-0.3-2-1.2-2.2
		c-0.9-0.2-2,0.3-2.1,1.2c-0.8,3.6,2,6.5,4.1,9s4.1,4.6,6.3,6.8c4.4,4.3,9.3,8.1,14.4,11.5c2.2,1.5,4.4,2.9,6.6,4.5l0.4,0.3h0
		c0,0,0.1,0.1,0.1,0.1c0.3,0.2,0.5,0.4,0.8,0.6l1.5,1.3c0.9,0.9,1.8,1.8,2.7,2.8l0.1,0.2c0.1,0,0.1,0.1,0.1,0.1l0.1,0.2l0.6,0.8
		c0.3,0.5,0.6,1.1,0.9,1.6l0.2,0.4c0,0.1,0.1,0.3,0.2,0.4c0,0,0,0,0,0c0.1,0.1,0,0.1,0,0.1l0.2,0.6c0.2,0.7,0.5,1.5,0.6,2.2l0.1,0.6
		c0,0,0,0.2,0,0.3s0.1,0.8,0.1,1.2c0.1,0.8,0.1,1.6,0,2.4c0,1.6-0.2,3.3-0.3,4.9c-0.6,5.6-1.1,12,2.2,16.9c0.4,0.7,0.9,1.3,1.4,1.8
		c0.7,0.7,1.8,0.7,2.5,0C271,150.7,271,149.7,270.3,149z M32.3,115.9C32.3,115.9,32.3,115.9,32.3,115.9
		C32.2,116,32.2,116,32.3,115.9z M209.6,33.7C209.8,33.8,209.7,33.8,209.6,33.7L209.6,33.7z M204.3,21.4c0,0,0.1,0,0.1,0L204.3,21.4
		z"/>
</g>
</svg>
