<?xml version="1.0" encoding="utf-8"?>
<!-- Generator: Adobe Illustrator 27.9.0, SVG Export Plug-In . SVG Version: 6.00 Build 0)  -->
<svg version="1.1" id="Layer_1" xmlns="http://www.w3.org/2000/svg" xmlns:xlink="http://www.w3.org/1999/xlink" x="0px" y="0px"
	 viewBox="0 0 347.9 236" style="enable-background:new 0 0 347.9 236;" xml:space="preserve">
<g>
	<path style="stroke:#000000;stroke-width:3;stroke-linecap:round;stroke-linejoin:round;stroke-miterlimit:10;" d="M150.3,31.3
		c-1.1,0.4-1.5,1.3-1.4,2.5c0,0.1,0,0.1,0,0.2c0,0.2,0,0.4,0,0.6c0,0.4,0,0.7,0,1.1c0,0.4,0,0.8-0.1,1.2c0,0.1,0,0.2,0,0.4
		c0,0.1,0,0.2,0,0.3c-0.2,0.8-0.4,1.5-0.6,2.2c0,0.1-0.1,0.2-0.2,0.4l-0.2,0.4l-0.4,0.9c-1.3,2.5-2.8,6.1-0.2,8.2
		c0.8,0.7,2.1,0.8,2.8,0s0.8-2.1,0-2.8c0,0-0.2-0.1-0.2-0.2v-0.1h0v-0.4c0.1-0.5,0.3-1,0.5-1.5c0,0,0-0.1,0.1-0.2l0.2-0.4
		c0.3-0.6,0.6-1.1,0.9-1.7c1.3-3,1.8-6.3,1.3-9.5C152.6,31.7,151.3,31,150.3,31.3z"/>
	<path style="stroke:#000000;stroke-width:3;stroke-linecap:round;stroke-linejoin:round;stroke-miterlimit:10;" d="M145.3,70
		C145.8,70.3,145.3,70,145.3,70l-0.4-0.5h0l-0.2-0.4c0,0,0-0.1-0.1-0.1c0-0.2-0.1-0.3-0.2-0.4c0-0.1-0.1-0.2-0.1-0.4
		c0-0.1,0-0.1,0-0.2c0-0.2-0.1-0.6,0-0.8V67c0-0.1,0-0.3,0.1-0.4c0-0.1,0-0.2,0.1-0.4c0-0.1,0.1-0.1,0.1-0.2c0,0,0.3-0.4,0.4-0.6
		c0.4-0.4,0.5-1,0.4-1.6c-0.1-0.6-0.4-1.1-0.9-1.5c-2.6-1.6-5.8,0-8.3,1s-5,2.1-7.4,3.4c-4.7,2.5-9.2,5.4-13.4,8.7
		c-2.3,1.8-4.5,3.7-6.6,5.8c-0.8,0.8-0.8,2,0,2.8s2,0.8,2.8,0c1.8-1.8,3.7-3.5,5.7-5.1l1.3-1l0.2-0.2l0.4-0.3l0.8-0.6
		c1-0.8,2-1.5,3-2.1c4.2-2.8,8.6-5.1,13.2-7.1c0,0,0,0,0,0h0l0.5-0.2l0.9-0.4l2.1-0.8l0.8-0.2c-0.2,0.7-0.2,1.4-0.1,2.1
		c0.2,2.1,1.3,4,3,5.2c0.8,0.6,2.3,0.2,2.7-0.7C146.5,71.8,146.2,70.6,145.3,70z M144.4,66C144.4,66,144.4,66,144.4,66L144.4,66z"/>
	<path style="stroke:#000000;stroke-width:3;stroke-linecap:round;stroke-linejoin:round;stroke-miterlimit:10;" d="M322.5,113.7
		c-0.2-4.2-0.6-8.4-2.1-12.3c-1.3-3.4-3.1-6.7-5.4-9.6c-4.6-5.9-10.7-10.6-16.8-14.9c-6.8-4.7-13.9-8.9-21.3-12.6
		c-7.2-3.7-14.7-6.6-21.7-10.7c-1.7-1-3.4-2.1-5-3.2c-1.5-1.1-2.9-2.4-4.3-3.6c-2.8-2.5-6-4.9-9.8-5.6c-1.9-0.4-3.8-0.3-5.6,0.2
		c-0.9,0.3-1.7,0.7-2.5,1.2c-0.5,0.4-1,0.8-1.6,1.1c-2.8-2.8-5.7-5.7-8.7-8.3s-7.1-5.9-11.5-6.8c-1.3-0.2-2.5-0.4-3.8-0.3h-2.5
		l-0.3-0.1l-0.1-0.1l-0.3-0.2l-0.2-0.1h0l-1.1-1.1c-0.8-0.7-1.7-1.4-2.6-2c-1.8-1.2-3.8-2.1-5.8-2.6c-2.3-0.6-4.7-0.7-7.1-0.8
		c-1.3,0-2.6-0.1-3.9-0.3h-0.2l-0.6-0.1l-0.9-0.2l-1.8-0.4l-7.8-2c-0.3-0.1-0.7-0.1-1,0c-3.4-1.1-7.1-0.8-10.6,0.1
		c-4.5,1.1-8.7,3.1-13,4.8l-28,11c-2.3,0.9-4.6,1.9-6.9,2.7c-0.9,0.3-1.7,0.6-2.6,0.2c-0.9-0.4-2-1-3.1-1.3c-4.3-1-8.6,1.1-11.7,4
		s-5.4,6.8-8.5,9.8c-3.1,3-6.5,5.7-10.1,8.3C64.3,63.4,57,68.8,50.1,74.9C43.3,80.9,37,87,31.8,94.2c-5.3,7.2-8.7,15.2-8.2,24.1
		c0.2,4.9,1.3,9.7,2.1,14.6c0.9,4.8,1.7,9,2.7,13.5c2,8.9,4.7,17.8,8.8,26c4.2,8.2,9.3,15.4,14.6,22.6c4.6,6.2,9.6,12.3,16.2,16.5
		s16.5,6.9,24,2.3c3.6-2.2,6.6-5.6,9.1-8.9c2.5-3.3,4.6-6.8,6.2-10.6c3.4-7.9,4.9-16.5,4.2-25.1c-0.8-9.3-3.6-18.3-6.5-27.1
		c-2.9-8.8-5.6-17.7-7.2-26.9c-1.6-9.1-2.3-18.4-2.1-27.7L107.7,60c1.8-4.2,4.1-8.7,3.7-13.4c-0.2-2.1-0.9-4.3-2.5-5.7l2-0.8
		l3.7-1.5l13.8-5.4l13.7-5.4c4.4-1.7,8.7-3.7,13.2-5c3.6-1.1,7.8-1.8,11.3,0c0.6,0.3,1.2,0.3,1.8,0l4.8,1.2c2.3,0.6,4.6,1,7,1.2
		l3.4,0.2l1.7,0.1l0.8,0.1h0.6c1,0.2,2,0.4,3,0.8l0.6,0.2l0.2,0.1h0.1l1.4,0.7l1.3,0.8l0.5,0.4l0.1,0.1l0.3,0.2
		c0.8,0.6,1.4,1.3,2.2,1.9c1,0.9,2.3,1.4,3.6,1.5c1.1,0.1,2.3-0.1,3.4,0h1.4c0.5,0.1,1,0.2,1.5,0.3l1.3,0.4l0.4,0.2l0.8,0.4
		c0.9,0.5,1.8,1,2.6,1.7c0.2,0.1,0.4,0.3,0.6,0.4l0.3,0.2h0.1l1.3,1.1c3.7,3,7.1,6.5,10.5,9.9l-0.2,0.2c-3,3-1.9,8.2-0.4,11.6
		s4.3,7,6.5,10.4l7.6,11.2l7.2,10.6l0.1,0.2c0,0,0,0.1,0.1,0.2c3.3,15.7,4,31.7,2.1,47.7c-1.9,16.3-5.2,33.4,1.2,49.2
		c2.7,6.6,6.7,12.7,11.8,17.8c2.6,2.7,5.6,5,8.7,6.9c3.8,2.2,7.8,3.1,12.1,2.5c6.9-1,13.1-5.5,17.5-10.8c4.4-5.3,7.6-11.3,10.5-17.5
		c3.5-7.4,6.9-15,9.3-22.8s3.5-16.9,3.9-25.4C322.8,130.2,322.8,122.2,322.5,113.7z M94.3,63.7c-3.4,18.3-3.3,37.1,0.2,55.4
		c1.7,9.1,4.6,17.8,7.5,26.5c2.8,8.6,5.4,17.4,5.7,26.5c0.3,8.2-1.6,16.4-5.4,23.7c-1.9,3.6-4.2,7-6.9,10c-2.7,3-5.9,5.8-10,6.5
		c-7.4,1.3-15-3-20.3-7.8c-5.3-4.7-10.3-11.7-14.7-18c-5.3-7.6-10.2-15.4-13.5-24.1c-3.2-8.7-5.1-17.3-6.8-26.1
		c-0.8-4.6-1.7-9.1-2.4-13.7c-0.6-4.6-0.7-9.1,0.6-13.5c2.3-8,7.8-14.7,13.4-20.7c6.2-6.5,12.9-12.5,20-18.1
		c6.9-5.4,14.5-10.1,21-16c1.6-1.5,3.1-3,4.5-4.7c1.4-1.7,2.7-3.4,4.1-5.1c2.3-2.7,5.9-5.6,9.7-4.6c0.5,0.2,1,0.4,1.5,0.6
		c-3.3,2.1-4.4,6.4-5.3,9.9C96.2,54.8,95.1,59.2,94.3,63.7z M104.1,58.4l-6,13.8c-0.5,1.3-1.1,2.5-1.6,3.7
		c0.5-5.1,1.3-10.3,2.4-15.4c0.5-2.3,1.1-4.6,1.7-6.9c0.5-2.2,1.1-4.3,1.9-6.4c0.5-1.3,1.4-2.9,2.6-3.5c0.3-0.2,0.7-0.2,0.9,0
		c0.7,0.4,0.9,1.4,1.1,2.1C108.2,50,105.7,54.6,104.1,58.4z M233.3,66.7l-3.7-5.4c-1.1-1.5-1.9-3.1-2.7-4.8c-0.6-1.5-1-3.3-0.7-4.9
		c0.1-0.6,0.3-1.2,0.8-1.5s0.1-0.1,0.4-0.1h0.2L228,50l0.3,0.2l0.5,0.3l0.7,0.6c0.6,0.5,1,1.1,1.4,1.7c1,1.7,1.9,3.4,2.7,5.1
		c1.7,3.5,3.4,7.1,4.8,10.8c1.4,3.7,2.7,7.4,3.9,11.2L233.3,66.7z M318.7,130.9c-0.1,8.3-0.5,16.6-2.1,24.8s-4.7,16.1-8.2,23.9
		c-2.8,6.3-5.6,12.5-9.4,18.3c-3.8,5.7-8,9.9-13.8,12.5c-3.5,1.5-7.4,2.1-11,0.8c-3.6-1.3-6.3-3.5-8.9-5.8
		c-5.2-4.6-9.4-10.2-12.3-16.5c-6.9-15.1-3.9-31.7-1.9-47.5c1-8,1.5-16,1.2-24.1c-0.2-8-1.1-16-2.7-23.8c-1.5-7.8-3.6-15.4-6.4-22.8
		c-1.4-3.8-2.9-7.5-4.6-11.2c-0.8-1.8-1.7-3.5-2.6-5.3c-0.8-1.7-1.8-3.3-3-4.8c-1-1.2-2.2-2.1-3.6-2.7c0.8-0.6,1.7-1.1,2.7-1.4
		c1.5-0.4,3.2-0.1,4.7,0.4c3.4,1.2,6,3.9,8.6,6.2c6.1,5.1,13.4,8.4,20.6,11.7c7.4,3.4,14.7,7.3,21.7,11.5c6.6,4,13.1,8.4,18.7,13.6
		s9.6,10.6,11.1,17.7c0.9,3.9,0.9,8,1,12C318.7,122.2,318.7,126.6,318.7,130.9z"/>
	<path style="stroke:#000000;stroke-width:3;stroke-linecap:round;stroke-linejoin:round;stroke-miterlimit:10;" d="M184.6,52.1
		L184.6,52.1L184.6,52.1l-0.2-0.1l-0.1-0.1h0l-0.1-0.1c-0.1-0.1-0.2-0.3-0.2-0.3c0-0.1-0.1-0.2-0.1-0.2c0,0,0,0,0,0
		c-0.2-0.7-0.4-1.4-0.6-2.2c-0.5-1.6-1.2-3.2-2.1-4.6c-0.9-1.3-1.8-2.6-2.7-3.9l-0.6-1l-0.2-0.5l-0.2-0.4v-0.1c0-0.1,0-0.2-0.1-0.3
		c-0.1-0.2-0.1-0.4-0.2-0.5c-0.1-0.2-0.1-0.4-0.2-0.6c0-0.1-0.1-0.3-0.1-0.4v-0.1c0-0.2,0-0.3,0-0.4v-0.8c0-0.6,0.1-1.1,0.2-1.7
		c0-0.6,0.2-2.5-0.3-3.6c-0.4-1.1-1.3-1.7-2.4-1.4c-1.1,0.4-1.7,1.4-1.4,2.4c0.1,0.2,0.1,0.5,0.2,0.7v0.4c0,0.5,0,1.1-0.1,1.6
		c-0.1,0.9-0.2,1.9-0.1,2.9c0.2,1.8,0.8,3.6,1.8,5.1c0.8,1.4,1.8,2.7,2.7,4.1c0.5,0.7,0.9,1.4,1.3,2.1l0.2,0.5l0.1,0.2
		c0.1,0.4,0.3,0.8,0.4,1.1c0.6,2.1,1.1,4.2,3,5.3c0.9,0.6,2.1,0.3,2.7-0.6C185.8,53.9,185.5,52.7,184.6,52.1z"/>
	<path style="stroke:#000000;stroke-width:3;stroke-linecap:round;stroke-linejoin:round;stroke-miterlimit:10;" d="M201.9,45.9
		l-5.3-4.8c-0.8-0.8-2-0.8-2.8,0c-0.7,0.8-0.8,2.1,0,2.8c1.5,1.3,3,2.7,4.4,4l1.1,1l0.5,0.4l0.2,0.2c-0.8,0.8-0.7,2.1,0.1,2.8
		c0.6,0.6,1.6,0.7,2.3,0.2c1.4-0.6,1.9-2.3,1.6-3.7S202.8,46.7,201.9,45.9z M200.1,49.8c0,0,0-0.1,0-0.1
		C200.1,49.7,200.1,49.7,200.1,49.8C200.2,49.9,200.2,49.8,200.1,49.8z M200.5,49.1C200.6,48.9,200.6,49,200.5,49.1L200.5,49.1z"/>
	<path style="stroke:#000000;stroke-width:3;stroke-linecap:round;stroke-linejoin:round;stroke-miterlimit:10;" d="M228.5,77.1
		c-5.1-1.6-11-0.4-14.7,3.6c-0.9,1-1.7,2.1-2.3,3.4l-0.5,1.3v0.1c-0.6-0.3-1.2-0.2-1.7,0.1c-0.8,0.6-1.3,1.8-0.7,2.7l1,1.4
		c0.8,1.1,2.1,1.3,3.1,0.4s1.5-2.1,2.1-3.4c0.1-0.2,0.2-0.5,0.3-0.7c0,0,0-0.1,0-0.1c0,0,0,0,0,0c0,0,0,0,0,0c0,0,0,0,0,0
		c0-0.1,0.1-0.2,0.1-0.2c0.2-0.5,0.6-1,0.9-1.4l0.2-0.2c0,0,0,0,0-0.1c0.2-0.2,0.3-0.4,0.5-0.5c0.2-0.2,0.3-0.4,0.5-0.5l0.3-0.3
		l0.3-0.3h0.1l0.4-0.3l0.6-0.4l0.7-0.4l0.3-0.2l0.2,0c0.5-0.2,0.9-0.4,1.5-0.5l0.9-0.2l0.6-0.1c0.6,0,1.1,0,1.7,0h0.9l0.6,0.1
		c0.6,0.1,1.1,0.3,1.7,0.5l0.4,0.2h0.2l0.8,0.4l1.5,0.9l0.6,0.4l0.1,0.1l0.4,0.4c0.5,0.4,0.9,0.8,1.3,1.3c0.2,0.2,0.4,0.4,0.6,0.7
		c-0.2-0.4,0,0,0.1,0.1l0.3,0.4c0.4,0.5,0.7,1,0.9,1.6l0.4,0.8c0,0,0,0,0,0c0.1,0.2,0.2,0.4,0.2,0.6c0.4,1,1.4,1.7,2.5,1.4
		c1.1-0.4,1.7-1.4,1.4-2.5C237.8,82.6,233.7,78.7,228.5,77.1z"/>
	<path style="stroke:#000000;stroke-width:3;stroke-linecap:round;stroke-linejoin:round;stroke-miterlimit:10;" d="M200.7,79
		c-0.1-0.1-0.1-0.3-0.2-0.4c-0.2-0.5-0.3-0.9-0.4-1.4c0-0.6,0-1.1,0-1.6c0.1-0.4,0.2-0.9,0.3-1.3c0.4-1-0.1-2.2-1.1-2.6
		c-1-0.4-2.2,0.1-2.6,1.1c0,0.1-0.1,0.3-0.1,0.4c-1,2.9-0.6,6.1,1.1,8.6c0.6,0.9,1.8,1.3,2.7,0.7c0.9-0.6,1.3-1.8,0.7-2.7
		C201,79.6,200.8,79.3,200.7,79z"/>
</g>
</svg>
