<?xml version="1.0" encoding="utf-8"?>
<!-- Generator: Adobe Illustrator 27.9.0, SVG Export Plug-In . SVG Version: 6.00 Build 0)  -->
<svg version="1.1" id="Layer_1" xmlns="http://www.w3.org/2000/svg" xmlns:xlink="http://www.w3.org/1999/xlink" x="0px" y="0px"
	 viewBox="0 0 256.9 187.6" style="enable-background:new 0 0 256.9 187.6;" xml:space="preserve">
<g>
	<path style="stroke:#000000;stroke-width:3;stroke-linecap:round;stroke-linejoin:round;stroke-miterlimit:10;" d="M244.1,167.4
		c-1.1-4.5-2.2-9.1-3.4-13.6c-0.9-3.8-1.7-7.9-3.6-11.4c-0.9-1.7-2.1-3.1-3.6-4.3c-0.7-0.6-1.5-1.1-1.9-1.8
		c-0.5-0.7-0.6-1.4-0.6-2.2c-0.3-4.5-0.3-9.1-0.3-13.6c0-9.3,0.2-18.6-1.4-27.7c-1.6-9.1-4.7-17.3-7.6-25.8
		c-1.5-4.3-3.1-8.6-4.9-12.8c-0.9-2-1.8-4.1-2.8-6.1s-1.9-3.6-2.7-5.6c-1.6-3.9-1.8-8.3-3.4-12.2s-3.7-7.3-6.2-10.5
		c-1.3-1.7-2.6-3.3-3.9-4.9c-1.3-1.6-2.7-3.3-4.9-3.5c-2.2-0.2-4.1,1.2-5.7,2.4c-1.5,1.1-3,2.3-4.3,3.5c-5.6,5-9.9,11.2-13.6,17.7
		c-3.6,6.5-6.8,13.5-9.9,20.4c-1.9,4.4-3.9,8.9-5.4,13.5c-3.9,0-8-0.2-11.7,0.9c-1.7,0.5-3.4,1.3-5,1.8c-0.9,0.3-1.7,0.6-2.6,0.8
		l-0.7,0.1h-0.3l-1.4,0.1c-0.9,0-1.9,0-2.8-0.1l-0.6-0.1h-0.3l-1.5-0.2c-1.8-0.3-3.7-0.8-5.5-1.3c-3.3-0.8-6.6-1.6-9.9-1.7
		c-1.8,0-3.6,0.1-5.4,0.6c-1.6,0.5-3.2,1.2-4.6,2.2c-1.1-3.4-2.6-6.6-4.7-9.5c-2.4-3.4-5.3-6.5-7.8-9.8c-2.5-3.3-4.7-7.2-6.7-10.9
		c-3.8-7.2-7.3-14.8-12.9-21c-1.4-1.5-2.9-2.9-4.5-4.1c-1.5-1.2-3.1-2.4-5-2.9c-4.2-1.3-7.9,1.6-10.7,4.5c-2.7,2.9-5.2,6.3-7.4,9.6
		c-2.3,3.5-4.4,7.2-6.2,11c-3.6,7.8-6.4,15.9-8.1,24.3c-1.9,8.7-2.8,17.6-3.3,26.5s-0.2,18-0.3,27c0,2.2,0,4.3,0.1,6.4
		c0.2,2.1,0.4,4.1,1.2,6c0.3,0.8,0.8,1.6,1.3,2.4c0.5,0.7,1.2,1.4,1.5,2.2c0.6,1.5-0.3,3.2-0.8,4.8c-2.5,8.3-4.2,17-5,25.6
		c-0.2,2.2-0.3,4.4-0.5,6.6c-0.1,2.2,3.4,2.2,3.5,0c0.3-8.5,1.6-17,3.6-25.2c0.5-2,1.1-4,1.7-6c0.6-2,1.3-3.8,1-5.8
		c-0.3-2-1.5-3.1-2.5-4.6c-0.9-1.5-1.4-3.3-1.5-5c-0.5-4.1-0.2-8.3-0.3-12.5c-0.1-4.2-0.1-8.9,0-13.3c0-0.8,0-1.5,0-2.3
		c0.2,0.9,0.4,1.9,0.7,2.8c2.2,8.3,5.4,15.9,9.2,23.5l0.9,1.8l0.4,0.8c0,0,0,0.1,0,0.1l-0.1-0.1c0.1,0.2,0.2,0.5,0.3,0.6
		c0.9,1.4,2.3,2.3,3.9,2.6c-0.2,0.5-0.4,0.9-0.4,1.5c0,0,0,0.1,0,0.1c-2.2,5-3.9,10.2-4.9,15.5c-0.4,2-0.7,4-0.9,6
		c-0.1,0.9,0.3,1.9,1.4,2c1,0.2,1.9-0.4,2-1.4c0.3-3.5,1-7.1,1.9-10.5c0.2-0.9,0.4-1.7,0.7-2.5c0.2-0.8,0.2-0.9,0.4-1.3
		c0.1-0.4,0.1-0.5,0.2-0.7c0-0.1,0-0.2,0.1-0.3c0.6-1.7,1.3-3.3,1.9-5l0.8-1.7c-0.1,0-0.1,0-0.2-0.1l0.1-0.1l0.3-0.5
		c0,0.1,0,0.1,0,0.2c0.6-1.1,1.1-2.2,1.7-3.3l0.1-0.2c0-0.1,0.1-0.2,0-0.2c0-0.1,0-0.2,0-0.2l0-0.2c0-0.1,0-0.1,0-0.2
		c-0.1-0.3-0.2-0.6-0.5-0.8l-0.4-0.2l-0.5-0.1c-0.4-0.1-0.9,0-1.3,0.3l-0.5,0.3h-0.2l-0.2,0.1h-0.1c-0.1,0-0.1,0-0.1,0l-0.6,0
		l-0.5-0.1l-0.2-0.1l-0.5-0.2h-0.1l-0.1-0.1l-0.3-0.3c0,0,0,0,0,0c0,0,0,0,0,0l-0.1-0.1l-0.1-0.2c0-0.1-0.1-0.1-0.1-0.2
		c0,0.1,0,0.1,0,0.2c-0.2-0.3-0.3-0.5-0.4-0.8c-0.1-0.2-0.2-0.5-0.3-0.6l-0.3-0.5c0-0.1-0.1-0.1-0.1-0.2c-0.1-0.1-0.1-0.3-0.2-0.5
		c-1.8-3.6-3.5-7.3-5-11c-1.5-3.8-2.8-7.5-3.9-11.4c-0.3-0.9-0.5-1.9-0.7-2.9l-0.3-1.4v-0.1c0-0.1-0.1-0.2-0.1-0.4L30.3,93
		c-0.3-1.9-0.7-3.9-0.9-5.9c-0.3-2.3-0.4-4.5-0.4-6.8c0-0.5,0-1.1,0-1.6l0-0.9c0-0.1,0-0.2,0-0.3v-0.2c0.1-1.1,0.2-2.3,0.3-3.4
		c0.1-0.5,0-0.8-0.1-1.1c0-0.1,0-0.2,0-0.3c2.5-16.3,7.7-32.3,17.5-45.8c2.2-3,4.4-6,7.3-8.2c1.3-1,2.8-1.8,4.5-1.4
		c1.6,0.4,3,1.5,4.3,2.5c6.2,4.9,10.1,12.1,13.7,19c1.9,3.6,3.8,7.3,5.9,10.8c2.2,3.5,4.6,6.8,7.3,9.9c2.5,3,4.9,6,6.6,9.6
		c1.8,3.5,2.6,7.4,3.2,11.3c0.3,2,0.5,4.1,0.6,6.2c0,0,0,0.1,0,0.1c-1.5,0.6-3,1.3-4.4,2c-1.6,0.8-3.1,1.7-4.5,2.7
		c-0.8,0.5-1.2,1.6-0.6,2.4c0.6,0.8,1.6,1.2,2.4,0.6c1.3-0.9,2.6-1.7,4-2.5l2.1-1l1-0.5l0.5-0.2h0l0.3-0.1c2.9-1.2,5.9-2,9-2.6
		c1.7-0.3,3.6-0.3,4.9-1.7c0.6-0.7,0.7-1.8,0-2.5c-0.7-0.7-1.8-0.7-2.5,0l-0.1,0.1h0l-0.3,0.1l-0.2,0.1l-0.6,0.1
		c-0.7,0.1-1.4,0.2-2.1,0.3c-1.5,0.2-3,0.6-4.5,1l-1,0.3c-0.2-3.3-0.7-6.6-1.3-9.9c0.4-0.1,0.7-0.2,1-0.5c-0.3,0.3,0.1-0.1,0.2-0.1
		l0.4-0.3l1-0.6c0.1,0,0.3-0.2,0.5-0.2h0l0.2-0.1l1.1-0.3l1-0.2l0.5-0.1h0.3c0.7-0.1,1.5-0.1,2.2-0.1s1.6,0,2.3,0.1l1.1,0.1h0.2
		l0.7,0.1c1.6,0.2,3.2,0.7,4.8,1c3.6,0.9,7.4,1.9,11.2,2c1.9,0,3.8-0.2,5.6-0.8c1.7-0.5,3.3-1.3,4.9-1.8c0.9-0.3,1.9-0.6,2.9-0.8
		l0.8-0.1h0.5c0.5-0.1,1-0.1,1.6-0.1c1.8-0.1,3.6-0.1,5.4-0.1c-0.7,2.6-1.3,5.4-1.6,8.1c-0.2,1.8-0.3,3.5-0.3,5.3
		c-1.6-0.6-3.2-1.1-4.8-1.6c-0.9-0.2-1.9,0.3-2.2,1.2c-0.2,0.9,0.3,1.9,1.2,2.2c3.3,1,6.5,2.1,9.7,3.3l1.1,0.5l0.6,0.2l0.4,0.1
		l2.3,1c1.6,0.7,3.1,1.4,4.7,2.2c0.8,0.4,1.9,0.2,2.4-0.6c0.5-0.9,0.2-1.9-0.6-2.4c-3.7-1.8-7.4-3.5-11.3-4.9c0-0.1,0-0.3,0-0.4
		c-0.1-8.5,2.5-16.6,5.7-24.4c2.9-7,6-14,9.5-20.7c3.4-6.7,7-12.5,11.7-17.9c2.4-2.6,5-5,7.8-7.1c1-0.7,2.8-2.4,4.1-1.4
		c0.7,0.5,1.3,1.3,1.8,2l1.9,2.4c2.5,3,4.7,6.2,6.5,9.6c0.8,1.6,1.5,3.4,2,5.1c0.6,2.2,0.9,4.3,1.5,6.5c1,3.6,2.8,6.9,4.5,10.2
		c-0.2,0.3-0.3,0.6-0.2,1c1.1,8.1,1.8,16.3,2.3,24.5s0.6,16.4,0.3,24.7c-0.1,3.6-0.2,7.2-0.5,10.8c-0.1,0.2-0.2,0.3-0.3,0.5
		c0,0,0,0.1-0.1,0.1c-0.5-0.1-1.1-0.1-1.6,0c-0.5,0.1-0.9,0.2-1.3,0.5l-0.3,0.2c0,0,0,0.1-0.1,0.1c-0.5,0.3-0.9,0.7-1.3,1.1
		c-0.5,0.7-0.7,1.5-0.5,2.3c0.1,0.8,0.6,1.4,1,2c0.8,1.3,1.6,2.5,2.3,3.8c1.5,2.5,2.8,5,4,7.6c0.6,1.3,1.2,2.6,1.8,3.9l0.2,0.5
		c0,0.1,0.1,0.1,0.1,0.2l0.4,1c0.3,0.7,0.5,1.3,0.8,1.9c1.2,3,2.2,6,3.1,9.1c0.2,0.9,1.2,1.5,2.2,1.3c0.9-0.2,1.5-1.2,1.3-2.2
		c-3.2-10.3-7.5-20.3-13.5-29.4c0,0,0-0.1-0.1-0.1l0.6-0.4h0.2l0.3,0.1h0.1l0.5,0.2l1.2,0.5c0.7,0.2,1.5-0.1,1.9-0.8l0.1-0.1
		c0,0,0,0,0-0.1c0,0,0-0.1,0-0.1c0-0.1,0,0,0-0.1c0,0,0-0.1,0-0.1c0,0,0-0.1,0-0.1c0,0,0-0.1,0-0.1c0-0.1,0-0.1,0-0.2
		c0-0.2,0-0.5,0-0.8c0.6-8,0.8-16,0.7-24c-0.1-8-0.5-16.2-1.2-24.6c-0.1-1.6-0.3-3.3-0.5-4.9c0.5,1.2,0.9,2.4,1.3,3.6
		c1.5,4.1,2.9,8.4,4.3,12.6c1.4,4.2,2.6,8.3,3.6,12.5c2,8.7,2.3,17.6,2.3,26.5c0,4.5-0.1,9,0.1,13.4c0.1,2.2,0,4.5,0.5,6.6
		c0.4,2.2,1.8,3.4,3.4,4.7c1.3,1,2.4,2.3,3.2,3.8c0.8,1.5,1.4,3.1,1.8,4.8c1.1,4.2,2.1,8.4,3.1,12.6c0.6,2.2,1.1,4.3,1.6,6.5
		C241.2,170.3,244.7,169.5,244.1,167.4z M212.1,115.9L212.1,115.9C212.4,115.6,212.2,115.8,212.1,115.9z"/>
	<path style="stroke:#000000;stroke-width:3;stroke-linecap:round;stroke-linejoin:round;stroke-miterlimit:10;" d="M82.5,60.9
		c-0.6-1.3-1.2-2.5-1.7-3.8c-0.1-0.3-0.2-0.6-0.4-0.9l-0.2-0.5c0-0.1,0-0.1-0.1-0.2C80,55.6,80,55.4,80,55.3h0l-0.1-0.2
		c-0.1-0.1-0.1-0.3-0.2-0.5c-0.1-0.2-0.3-0.6-0.4-0.9c-2.1-5.1-3.8-10.4-5.2-15.8c-0.2-0.7-0.3-1.4-0.5-2c-0.2-0.9-1.2-1.5-2.1-1.2
		c0,0,0,0,0,0c-0.9,0.3-1.4,1.3-1.2,2.2c1.3,5.4,2.8,10.6,4.8,15.7c2,5.2,4.3,10.3,6.9,15.2c0.6,1.2,1.3,2.3,1.8,3.5l0.4,0.8
		c0.1,0.1,0.1,0.3,0.2,0.4v0.1l0.1,0.1c0.2,0.6,0.5,1.3,0.7,1.9c0.2,0.6,0.3,1.2,0.5,1.8s0.1,0.6,0.1,0.9c0,0,0,0.1,0,0.1
		s0,0.4,0,0.6c0,0.6,0,1.2,0,1.8c0,0,0,0.1,0,0.1c0,0.1,0,0.3-0.1,0.4c-0.1,0.3-0.1,0.6-0.2,0.9c0,0.1-0.1,0.3-0.1,0.4l-0.1,0.2
		l-0.4,0.8c-0.1,0.2-0.3,0.5-0.4,0.7l-0.2,0.3l-0.1,0.1l-0.1,0.1c-0.7,0.8-1.5,1.6-2.4,2.4L81,86.5l-0.2,0.2h0l-0.2,0.2l-1.4,1
		c-1,0.8-2,1.6-3,2.5c-1.4,1.3-2.7,2.6-3.9,4l0.2-0.5l0.1-0.3c0.6-1.2,1.1-2.4,1.8-3.6c0.8-1.3,1.6-2.6,2.5-3.8
		c0.6-0.7,0.1-2-0.6-2.4c-0.8-0.4-1.8-0.1-2.4,0.6c-3.4,4.6-5.7,9.8-6.9,15.3c-0.3,1.7-0.6,3.3-0.7,5c-0.1,0.9,0.7,1.6,1.5,1.7
		c0.8,0.1,1.6-0.4,1.9-1.3c-0.1,0.3,0,0,0.1-0.1c0-0.1,0.1-0.3,0.2-0.4l0.4-0.9c0.3-0.6,0.6-1.1,0.9-1.7c0.6-1.1,1.3-2.2,1.9-3.2
		c0.3-0.5,0.7-1,1.1-1.5h0c0,0,0,0,0-0.1l0.3-0.3l0.6-0.8c0.8-0.9,1.7-1.8,2.5-2.7c0.9-0.9,1.8-1.7,2.8-2.4l0.3-0.2H81l0.8-0.6
		l1.6-1.2c1.9-1.5,3.7-3.1,4.8-5.3c2.7-5.2,0.5-10.9-1.9-15.8C85,65.8,83.7,63.4,82.5,60.9z"/>
	<path style="stroke:#000000;stroke-width:3;stroke-linecap:round;stroke-linejoin:round;stroke-miterlimit:10;" d="M176.9,77.6
		c0-0.1,0-0.1-0.1-0.2l-0.1-0.1l-0.2-0.6c-0.1-0.4-0.2-0.8-0.3-1.2c-0.1-0.3-0.2-0.7-0.2-1v-0.1c0-0.1,0-0.2,0-0.4v-0.7
		c0-0.9-0.8-1.7-1.7-1.7c-1,0-1.7,0.8-1.7,1.7c0,3.2,1.4,6,2.9,8.8c0.7,1.3,1.5,2.5,2.2,3.8l0.5,1l0.3,0.6c0,0.1,0.1,0.2,0.1,0.2
		c0,0,0.1,0.1,0.1,0.1c0.3,0.7,0.5,1.4,0.7,2c0.1,0.4,0.2,0.7,0.2,1.1l-8.5-7.7l-2.7-2.4c-0.5-0.4-0.9-0.8-1.3-1.2l-0.5-0.5
		l-0.2-0.2l-0.1-0.2l-0.2-0.3h0c-0.1-0.2-0.1-0.5-0.2-0.7v-0.1c0-0.1,0-0.2,0-0.4c0-0.3,0-0.6,0-0.9c0-0.5,0.1-1,0.1-1.6l0.1-0.7
		c0-0.1,0-0.2,0-0.2c0-0.1,0-0.3,0.1-0.5c0.6-4.3,1.5-8.6,2.8-12.8c0.6-2.2,1.3-4.3,2.1-6.4c0.4-1,0.8-2,1.2-3l0.2-0.6
		c0-0.1,0.1-0.2,0.1-0.2c0.1-0.1,0.1-0.2,0.2-0.3c0.1-0.1,0.5-1.1,0.7-1.6c2-4.5,4.4-8.8,7.2-12.9c0.5-0.8,0.2-1.9-0.6-2.4
		c-0.8-0.5-1.9-0.2-2.4,0.6c-5,7.6-8.9,15.9-11.6,24.6c-1.3,4.3-2.4,8.6-3,13c-0.2,1.2-0.4,2.4-0.5,3.6c-0.2,1.2-0.2,2.4,0,3.6
		c0.5,2.5,2.8,4.1,4.6,5.7l12.8,11.5c0.7,0.7,1.8,0.7,2.5,0c0.2-0.2,0.3-0.5,0.4-0.7c1-3.3,0.1-6.6-1.3-9.6
		C179.8,82.5,178.2,80.4,176.9,77.6z"/>
</g>
</svg>
