<?xml version="1.0" encoding="utf-8"?>
<!-- Generator: Adobe Illustrator 27.9.0, SVG Export Plug-In . SVG Version: 6.00 Build 0)  -->
<svg version="1.1" id="Layer_1" xmlns="http://www.w3.org/2000/svg" xmlns:xlink="http://www.w3.org/1999/xlink" x="0px" y="0px"
	 viewBox="0 0 312.4 169.3" style="enable-background:new 0 0 312.4 169.3;" xml:space="preserve">
<g>
	<path style="stroke:#000000;stroke-width:3;stroke-linecap:round;stroke-linejoin:round;stroke-miterlimit:10;" d="M292,36.3
		c-3.5-5.6-9.1-9.2-15.2-11.4c-6.1-2.2-13.3-2.9-20-2.9c-8.2,0-16.6,0.7-24.8-0.4c-4-0.5-8-1.6-11.7-3.2c-3.9-1.6-7.7-3.6-11.8-4.7
		c-4.1-1.1-8.4-1.4-12.3,0.1c-3.4,1.3-6.1,3.9-7.5,7.3c-0.5,1.2-0.7,2.4-0.7,3.7c-1.3,2.1-2,4.6-1.4,7.1c0.1,0.2,0.1,0.5,0.2,0.8
		c-1.6-0.7-3.3-1.3-5-1.8c-7.6-2.2-15.6-2.6-23.4-3.3c-8.7-0.8-17.6-2.1-26.3-0.2c-7.5,1.6-14.4,5.1-21.1,8.7c2-4.3,2-9.3,0.2-13.6
		c-2.5-5.8-8.6-9.9-14.9-10.1c-3.9-0.1-7.6,1.1-11.1,2.6s-7.1,3.4-10.6,5.1l-22,10.7c-7.2,3.5-14.5,7-21.7,10.6
		c-6.3,3.1-12.7,6.9-16.2,13.3c-1.7,3-2.6,6.5-2.3,9.9c0.2,2.4,1,4.8,2.3,6.9c2.4,4.1,6.2,7.2,9.8,10.2c1.8,1.5,3.7,3.1,5.4,4.7
		c0.8,0.8,1.7,1.7,2.4,2.6l0.5,0.6c0.1,0.1,0.2,0.2,0.2,0.3L33,90c0.4,0.4,0.7,0.9,0.9,1.4c0.3,0.5,0.6,0.9,0.8,1.5l0.3,0.7
		c0,0,0,0.1,0.1,0.1c0.1,0.1,0.1,0.3,0.1,0.4c0.4,1.1,0.7,2.3,0.8,3.4c0.2,1.9,0.2,3.9,0.7,5.8c0.5,1.7,1.5,3.3,3,4.4
		c0.9,0.7,1.9,1,3,1.1l1.1,2.6c1,2.3,2,4.7,3.1,6.9c0.5,1,1.1,2,2.2,2.5c1.1,0.5,2.3,0.4,3.4-0.1c1.9-1,3-3,3.9-4.8
		c1.4-3.1,2.8-6.1,4.1-9.2c1.2,3,2.7,5.9,4.4,8.6c1.2,1.8,2.4,3.4,3.7,5.1l0.1,0.1l0.1,0.2c0.2,0.2,0.3,0.4,0.5,0.7
		c0.3,0.4,0.5,0.8,0.8,1.3l0.3,0.5l0.1,0.3c0,0.1,0,0.1,0.1,0.1c0.1,0.4,0.3,0.9,0.4,1.3c0.1,0.4,0.2,0.8,0.3,1.2l0.1,0.6
		c0,0.1,0.1,0.2,0.1,0.3c0-0.4,0,0.1,0,0.2c0.1,0.9,0.1,1.8,0.1,2.7c0,1.9-0.1,3.8-0.2,5.7c-0.2,3.8-0.2,7.7,0.9,11.3
		c1.3,4.1,3.6,7.8,6.9,10.6c0.6,0.6,1.5,0.6,2.1,0c0.5-0.6,0.7-1.6,0-2.1s-1.3-1.2-1.9-1.9c-0.6-0.7-0.6-0.7-0.8-1h0c0,0,0,0,0-0.1
		l-0.2-0.3l-0.4-0.6c-0.5-0.7-1-1.5-1.4-2.3l-0.6-1.2c0,0-0.1-0.2-0.1-0.2l0-0.1c-0.1-0.3-0.2-0.5-0.3-0.8c-0.3-0.9-0.6-1.7-0.7-2.6
		c-0.1-0.4-0.2-0.9-0.3-1.3c0-0.1,0-0.1,0-0.2v-0.1l-0.1-0.8c-0.1-1.8-0.1-3.7,0-5.5c0.2-3.8,0.5-7.6-0.2-11.4
		c-0.4-1.8-1.1-3.6-2.1-5.2c-0.6-0.9-1.3-1.8-2-2.7l-0.2-0.2c0,0-0.1-0.2-0.1-0.2l-0.4-0.5c-0.3-0.4-0.6-0.8-0.9-1.3
		c-1.3-1.8-2.4-3.7-3.4-5.7l-0.7-1.5l-0.4-0.8c-0.1-0.1-0.1-0.2-0.1-0.3c-0.1-0.1-0.1-0.2-0.1-0.3c-0.4-1-0.8-2.1-1.2-3.1
		c-0.1-0.1-0.1-0.3-0.2-0.4c0.1-0.4,0.3-0.7,0.5-1.1c2.1-4.6,4.2-9.2,6.2-13.9c0.9-2.2,1.7-4.4,2.2-6.8c0.6-2.5,0.9-5.1,1-7.7
		c0.2-4.7,0.1-9.3,0.7-13.9c0-0.1,0-0.3,0.1-0.4v-0.1c0.1-0.2,0.1-0.5,0.1-0.7l0.3-1.7c0.2-1,0.4-2,0.6-3.1c0.5-2,1-4.1,1.7-6.1
		c0.7-1.9,1.4-3.8,2.3-5.6c0.9-1.9,1.9-3.6,3.1-5.4c1.1-1.7,2.4-3.4,3.7-4.9c0.7-0.8,1.4-1.5,2.1-2.2c0.4-0.4,0.7-0.7,1.2-1l0.4-0.4
		l0.6-0.4c0.9-0.6,1.7-1.2,2.7-1.6l0.6-0.3l0.3-0.1l0.2-0.1l1.5-0.5l1.3-0.3h2.5c0.4,0.1,0.9,0.1,1.3,0.3l0.7,0.2h0.1l0.3,0.1
		c0.4,0.2,0.8,0.4,1.1,0.7l0.3,0.2l0.4,0.3c0.3,0.3,0.7,0.6,0.9,1l0.1,0.1h0c0,0,0.1,0.1,0.1,0.1c0.1,0.2,0.2,0.4,0.3,0.5
		c0.2,0.4,0.5,0.7,0.7,1.1c0.1,0.2,0.2,0.4,0.3,0.6h0c0,0.1,0.1,0.2,0.1,0.3c0.1,0.4,0.3,0.8,0.4,1.2c0.1,0.4,0.2,0.8,0.3,1.2
		c0.1,0.4,0,0.2,0,0.3c0,0.1,0,0.1,0,0.2c0,0.2,0.1,0.4,0.1,0.5c0.1,0.9,0.1,1.8,0,2.7c0,0.1,0,0.1,0,0.2v0.1
		c-0.1,0.2-0.1,0.4-0.1,0.6c-0.1,0.5-0.2,1-0.4,1.5c-0.1,0.4-0.3,0.9-0.5,1.4l-0.1,0.4v0.1l-0.4,0.8c-0.4,0.9-1,1.8-1.5,2.7
		c-0.6,0.8-1.2,1.6-1.8,2.4c-1.4,1.7-2.8,3.2-4.4,4.7c-3.2,3-6.5,5.9-9.3,9.3c-1.4,1.7-2.6,3.6-3.6,5.7c-1,2.1-1.8,4.3-2.3,6.5
		c-1.2,4.3-1.7,8.8-2.8,13.1c-1.1,4.4-2.7,8.6-4.8,12.5c-1.1,1.9-2.2,3.8-3.5,5.6c-0.4,0.7-0.1,1.7,0.5,2c0.7,0.4,1.6,0.1,2-0.5
		c2.7-3.8,4.9-7.9,6.6-12.3c1.6-4.2,2.6-8.6,3.4-13.1c0.4-2.2,0.9-4.4,1.4-6.6c0.3-1,0.6-2.1,0.9-3.1c0.4-1,0.8-2,1.2-3
		c0.9-1.9,2-3.6,3.4-5.2c1.5-1.7,3-3.3,4.6-4.8c5-4.7,10.8-9.7,13.3-16.3c0.3,0.1,0.7,0,1-0.1c6.9-3.9,13.9-7.8,21.5-10
		c3.9-1.1,7.9-1.7,12-1.6c4.4,0.1,8.8,0.6,13.2,0.9c4.4,0.4,8.4,0.7,12.5,1.2c3.6,0.3,7.2,0.9,10.7,1.7c3.6,0.8,6.9,2,10.1,3.8
		s5.3,3.8,7.7,6.3c4.6,5,8.4,10.7,14,14.7c0.7,0.5,1.4,0.9,2.1,1.4c0.7,0.4,1.6,0.2,2-0.5c0.4-0.7,0.2-1.6-0.5-2l0,0
		c-2.9-1.7-5.2-3.9-7.5-6.4c-2.3-2.6-4.4-5.2-6.7-7.8c-2.3-2.6-4.8-5.1-7.7-7c-0.6-0.4-1.1-0.7-1.7-1c0.3-0.4,0.3-1,0-1.5l-0.4-0.5
		l-0.2-0.3c0,0,0-0.1,0-0.1c-0.1-0.4-0.2-0.7-0.3-1.1v-0.4c0-0.2,0-0.4,0-0.6c0-0.2,0-0.4,0-0.6l0.1-0.4c0.1-0.6,0.3-1.2,0.6-1.7
		c0.7-0.2,0.9-0.9,0.9-1.5c0.2-0.3,0.5-0.6,0.8-0.9l0.5-0.4l0.1-0.1l0.2-0.2c0.4-0.2,0.7-0.5,1.1-0.7l0.2-0.1l0.2-0.1l0.7-0.2
		c0.5-0.1,0.9-0.2,1.4-0.3c2.1-0.2,4.2,0.2,6.2,1c4,1.7,7.3,4.9,9.9,8.3c2.6,3.4,4.7,7.6,6.5,11.7c1.8,4.1,3.8,8.9,5.5,13.4
		c1.7,4.5,3.2,9.8,3.6,14.9c0.9,10.6-1.3,21.1-0.1,31.7c0.7,5.7,2.3,11.2,4.9,16.4c-1,0.7-1.8,1.6-2.4,2.7c-0.9,1.5-1.6,3.1-2.1,4.8
		c-1.1,3.4-1.6,7-1.4,10.6c0.1,2.1,0.4,4.2,0.9,6.2c0.2,0.8,1,1.2,1.8,1s1.2-1,1-1.8s-0.4-1.6-0.5-2.4l-0.1-0.7v-0.1
		c0,0,0-0.1,0-0.1c-0.1-0.4-0.1-0.9-0.1-1.3c-0.1-1.7-0.1-3.3,0-5l0.1-0.7v-0.1c0,0,0-0.1,0-0.1v-0.1c0.1-0.4,0.1-0.9,0.2-1.3
		s0.4-1.6,0.6-2.4c0.2-0.8,0.5-1.6,0.8-2.4c0.1-0.2,0.1-0.4,0.2-0.6l0.1-0.2c0,0,0,0,0-0.1c0.1-0.4,0.3-0.7,0.5-1.1
		c0.2-0.4,0.4-0.7,0.6-1.1l0.3-0.5l0.1-0.1l0.1-0.1l0.6-0.7c1.3,2.3,2.8,4.4,4.5,6.5c0.7,0.9,1.5,1.7,2.3,2.6s2.3,0.4,2.5-0.7
		c1.3-6.6,5-12.2,9.5-17.2c4.4-5,10.2-9.9,15.2-14.9c5.8-5.8,11-12.1,15.7-18.8c4.6-6.6,8.9-13.6,10.9-21.5
		C296.6,50.9,296.2,42.9,292,36.3z M109.5,29.2c0,0.3,0,0.7-0.1,1c0,0.3,0,0.3,0,0.5s-0.1,0.3-0.1,0.4c-0.1,0.7-0.3,1.5-0.5,2.2
		l-0.2,0.5c-0.1-2.7-1-5.5-2.6-7.7c-1.1-1.5-2.5-2.7-4.2-3.5c-1.9-0.9-3.9-1.3-6-1.1c-4.3,0.4-8.2,2.8-11.3,5.7
		c-3.1,2.9-5.7,6.5-7.8,10.1c-4.3,7.5-6.5,16-7.3,24.6c-0.4,4.8-0.1,9.7-0.6,14.5c-0.5,4.8-2.3,9.2-4.1,13.4c-2,4.7-4.2,9.3-6.2,14
		c-1.1,2.3-2.1,4.7-3.1,7l-1.6,3.6c-0.2,0.4-0.4,0.9-0.7,1.3c-0.1,0.2-0.2,0.4-0.4,0.6l-0.2,0.3l-0.1,0.1c0,0,0,0-0.1,0.1l-0.5,0.5
		l-0.2,0.2l-0.1,0.1l-0.4,0.3h0l-0.3,0.1h-0.1l-0.2-0.1h-0.1l-0.2-0.2c0-0.1-0.1-0.1-0.1-0.2l-0.3-0.4c-0.5-1.1-1-2.2-1.5-3.3
		l-1.5-3.5c-0.4-1-0.9-2-1.3-3c0.1-0.2,0.1-0.5,0-0.7c-0.1-0.4-0.4-0.7-0.7-0.9l-0.1-0.3c-0.1-0.3-0.2-0.5-0.2-0.8c0,0,0-0.1,0-0.1
		v-0.4c0-0.1,0-0.2,0.1-0.3c0,0,0.1-0.2,0.1-0.3c0.1-0.2,0.2-0.4,0.3-0.6c0.3-0.5,0.6-0.9,1-1.4c0.4-0.5,1.2-1.8,1.8-2.7
		c4.9-7.6,8.5-16.1,10.4-24.9c0.5-2.2,0.9-4.4,1.2-6.7c0.1-0.8-0.8-1.5-1.5-1.5c-0.7,0.1-1.4,0.7-1.5,1.5c0,0.1-0.1,0.3-0.1,0.6
		c0,0.3-0.1,0.6-0.1,0.8c0,0.3-0.2,1.2-0.3,1.7c-0.2,1.1-0.4,2.2-0.7,3.3c-0.5,2.2-1.1,4.3-1.7,6.4c-1.3,4.2-3.1,8.2-5.2,12.1
		c-1.1,2-2.2,3.9-3.5,5.8l-1.9,2.7c-0.7,1-1.3,2.1-1.3,3.3c0,0.4,0,0.8,0.1,1.2l-0.2-0.1c0,0,0,0,0,0l-0.5-0.4l-0.2-0.2l-0.1-0.1
		l-0.2-0.3c-0.1-0.1-0.2-0.3-0.3-0.5c-0.1-0.1-0.2-0.4-0.2-0.3c-0.3-0.7-0.4-1.5-0.5-2.3c-0.2-1.8-0.2-3.6-0.6-5.4
		c-0.2-1.2-0.6-2.3-1.1-3.3c-1.8-4.2-5.2-7.4-8.6-10.4C25.8,79,22,76.1,19,72.5c-0.2-0.2-0.4-0.4-0.5-0.6l-0.1-0.1l-0.3-0.4
		c-0.3-0.4-0.6-0.8-0.9-1.3c-0.3-0.4-0.5-0.9-0.8-1.4c-0.1-0.2-0.2-0.5-0.3-0.7h0L16,67.7c-0.2-0.5-0.3-1-0.4-1.5
		c-0.1-0.2-0.1-0.5-0.2-0.8L15.3,65v-0.2c-0.1-0.8-0.1-1.6-0.1-2.4c0-0.2,0-0.4,0.1-0.6v-0.2h0c0.1-0.4,0.1-0.8,0.2-1.2
		c0.2-0.8,0.4-1.5,0.7-2.3l0.3-0.8l0.6-1.1c0.7-1.4,1.6-2.6,2.7-3.8c2.3-2.5,4.9-4.3,7.9-6c3-1.7,6.3-3.3,9.5-4.8l10.6-5.2L69.2,26
		l10.5-5.1c3.3-1.6,6.6-3.3,10-4.4c0.8-0.3,1.7-0.5,2.5-0.7c0.8-0.2,1.6-0.3,2.4-0.3c0.9-0.1,1.8,0,2.7,0.1h0.2l0.5,0.1l1.1,0.2
		l1,0.3l0.5,0.1l0.2,0.1h0.2c0.6,0.3,1.2,0.6,1.8,1l0.9,0.6l0.4,0.3h0.1l0.3,0.2c0.6,0.5,1.1,1,1.6,1.5l0.6,0.7h0.1
		c0,0.1,0.1,0.1,0.1,0.2l0.3,0.4c0.4,0.6,0.7,1.2,1.1,1.9c0.1,0.1,0.1,0.3,0.2,0.5c0.1,0.1,0.1,0.1,0.1,0.2l0.4,1.1
		c0.1,0.4,0.2,0.7,0.3,1l0.1,0.5c0,0.1,0,0.2,0.1,0.3V27C109.4,27.7,109.5,28.4,109.5,29.2z M189.3,29.3
		C189.4,29.1,189.4,29.2,189.3,29.3L189.3,29.3z M231.9,126.4C231.9,126.5,231.9,126.4,231.9,126.4L231.9,126.4z M292.5,54.7
		c-1.2,7.7-5,14.7-9.2,21.1c-4.3,6.6-9.3,12.8-14.7,18.5c-4.9,5.2-10.3,9.8-15.3,14.9c-5,5.1-9.1,10.2-11.5,16.6
		c-0.3,0.7-0.5,1.3-0.7,2c-5.4-6.4-8.9-14.2-10.2-22.5c-1.6-10.6,0.8-21.6,0-32.4c-0.4-5.5-1.7-10.7-3.6-15.9s-3.7-9.5-5.8-14.2
		c-1.9-4.2-3.9-8.3-6.7-12c-2.7-3.7-6.3-7.3-10.6-9.3c-3.8-1.7-8.6-2.5-12.4-0.4c0.7-1.1,1.5-2.1,2.5-2.9c2.8-2.2,6.5-2.6,10-2.2
		c4,0.5,7.7,2.2,11.3,3.8s7.6,3.3,11.7,4.2c8,1.7,16.3,1.3,24.5,1.2c3.7-0.1,7.4-0.1,11.2,0.1c3.1,0.2,6.2,0.7,9.2,1.5
		c5.8,1.5,11.4,4.1,15.4,8.7c2.1,2.5,3.6,5.5,4.4,8.7C292.9,47.5,293,51.1,292.5,54.7z"/>
</g>
</svg>
