<?xml version="1.0" encoding="utf-8"?>
<!-- Generator: Adobe Illustrator 27.9.0, SVG Export Plug-In . SVG Version: 6.00 Build 0)  -->
<svg version="1.1" id="Layer_1" xmlns="http://www.w3.org/2000/svg" xmlns:xlink="http://www.w3.org/1999/xlink" x="0px" y="0px"
	 viewBox="0 0 300.3 172.9" style="enable-background:new 0 0 300.3 172.9;" xml:space="preserve">
<g>
	<path style="stroke:#000000;stroke-width:3;stroke-linecap:round;stroke-linejoin:round;stroke-miterlimit:10;" d="M116.7,45.7
		c-0.6-0.6-1.6-0.6-2.2,0c-0.6,0.6-0.6,1.6,0,2.2c0.4,0.4,0.7,0.8,1.1,1.2l0.2,0.3l0.2,0.3l0.5,0.7l0.1,0.1c-0.5,0-1,0.2-1.5,0.4
		c-1.5,0.7-2.5,2.5-2,4.1c0.2,0.8,1.1,1.4,1.9,1.1c0.8-0.2,1.3-1.1,1.1-1.9c0-0.1,0-0.1,0-0.1v-0.1l0.1-0.2h0c0,0,0-0.1,0.1-0.1
		l0.2-0.1c0,0,0,0,0,0l0.2-0.1h0.5l0.3,0.1l0.4,0.1l0.2,0.1l0.2,0.1l0.4,0.2c0.6,0.3,1.2,0.2,1.7-0.1c0.4-0.3,0.8-1.1,0.6-1.6
		C120.1,50,118.6,47.7,116.7,45.7z"/>
	<path style="stroke:#000000;stroke-width:3;stroke-linecap:round;stroke-linejoin:round;stroke-miterlimit:10;" d="M276.1,121.8
		c-1.5-2-3.2-3.8-5-5.5l1.1-0.1c1.1-0.1,1.6-0.9,1.5-2c-0.7-5-2.6-9.7-5.7-13.7c-2.9-3.7-6.8-6.6-10.9-8.8c-1.1-0.6-2.2-1.1-3.3-1.6
		c0.8-0.3,1.2-1.2,0.9-2.1c-0.1-0.2-0.2-0.3-0.3-0.5c-1.3-1.3-2.7-2.5-4.2-3.5c0.1-0.2,0.1-0.4,0.1-0.6c0-0.8-0.4-1.5-0.8-2.2
		l-0.2-0.3c0,0,0,0,0-0.1l-0.1-0.3c-0.2-0.5-0.3-0.9-0.4-1.4c-0.2-0.4-0.3-0.9-0.4-1.4l-0.2-0.7c0-0.1,0-0.2-0.1-0.3
		c0,0,0-0.1,0-0.1v-0.1c0-0.2,0-0.4,0-0.7c0-0.2,0-0.2,0-0.3c0-0.1,0,0,0-0.1c0-0.2,0.1-0.4,0.2-0.6c0-0.1,0.1-0.2,0.1-0.3
		c0-0.1,0.1-0.2,0.1-0.2c0.5-0.9,0.8-1.9,1-2.9c0.3-2-0.1-4-0.9-5.8c-0.8-1.9-1.8-3.6-2.8-5.4c-0.4-0.8-0.8-1.6-1.2-2.5l-0.6-1.3
		l-0.3-0.6c0-0.1-0.1-0.2-0.1-0.2c-0.1-0.1-0.1-0.2-0.1-0.3c-1.5-3.6-2.6-7.3-3.3-11c-0.2-1-0.4-1.9-0.5-2.9l-0.1-0.7
		c0-0.1,0-0.2,0-0.3c0,0.4,0-0.1,0-0.1c-0.1-0.5-0.1-1-0.2-1.5c-0.2-1.9-0.3-3.8-0.3-5.8c0-4.1,0.4-8.2-0.7-12.3
		c-0.9-3.3-2.9-6.7-6-8.3s-7.1-1.5-10.5-0.2c-3.4,1.2-6.7,3.5-9.6,5.8s-6.2,5.2-9.1,7.9l-0.6,0.6c-0.3,0.1-0.6,0.2-0.7,0.4
		c-0.3,0.3-0.7,0.7-0.9,1.1c-3.6,0.9-6.7,3.1-9.1,5.9c-0.1-1.4,0-2.8,0.1-4.2c0-0.6,0.1-1.1,0.1-1.6c0-0.9-0.7-1.6-1.6-1.5
		c-0.4,0-0.8,0.2-1.1,0.4c-1.7,1.5-3,3.4-4.2,5.3c-1.2,1.9-2.5,4-3.8,6c-0.3,0.5-0.6,0.9-0.9,1.4l-0.4,0.6c-0.1,0.1-0.1,0.2-0.2,0.3
		l-0.1,0.1h0c-0.2,0.2-0.3,0.3-0.4,0.5l-0.6,0.7c-0.4,0.5-0.8,0.9-1.3,1.4l-0.3,0.3l-0.1,0.1h0c-0.2,0.2-0.5,0.4-0.8,0.5l-0.1,0.1h0
		l-0.4,0.1h-0.2l-0.3-0.3l-0.2-0.2h0c-0.3-0.4-0.5-0.8-0.7-1.3c0,0-0.1-0.1-0.1-0.2c0-0.1-0.1-0.2-0.1-0.2c-0.1-0.2-0.2-0.5-0.2-0.7
		c-0.1-0.2-0.1-0.5-0.2-0.7v-0.1c0-0.1,0-0.2,0-0.2c0-0.2,0-0.3,0-0.5c0-0.1,0-0.2,0.1-0.2c0.2-0.7-0.1-1.4-0.7-1.8
		c-0.6-0.3-1.4-0.2-1.9,0.2c-1,0.9-1.8,2-2.5,3.1s-1.5,2.4-2.3,3.6l-0.6,0.8c-0.1,0.1-0.2,0.2-0.2,0.3l-0.2,0.2
		c-0.2,0.2-0.4,0.4-0.6,0.7l-0.2,0.2c-0.1,0.1-0.5,0.5-0.2,0.2c-0.1,0.1-0.2,0.2-0.3,0.2h-0.1l-0.2-0.1l-0.1-0.1c0,0,0,0,0,0
		l-0.1-0.1c-0.1-0.1-0.1-0.1-0.1-0.2c0,0,0-0.1-0.1-0.1h0v0l0,0c0-0.1,0-0.1,0-0.1c0-0.1-0.1-0.2-0.1-0.3c-0.2-0.7-0.2-1.3-0.3-1.9
		c0-0.1-0.1-0.2-0.1-0.3c0-0.1,0-0.3-0.1-0.5c0-0.2,0-0.5,0-0.7c0-1.1-1.3-2-2.3-1.3c-1.7,1.1-3.3,2.5-4.9,3.6
		c-0.4,0.3-0.8,0.6-1.3,0.8l-0.7,0.4l-0.3,0.1l-0.1,0.1c-0.4,0.2-0.9,0.3-1.4,0.4l-0.3,0.1h0c-0.2,0.1-0.3,0.1-0.5,0.1
		c-0.1,0-0.2,0-0.3,0h-1.8l-0.6-0.1c-0.4-0.1-0.9-0.2-1.3-0.4l-0.7-0.2l-0.3-0.1c0.3,0.1-0.1,0-0.1,0c-1.8-0.8-3.5-1.8-5.1-2.9
		c-1-0.7-2.3,0.2-2.3,1.3c0,0.3,0,0.6,0,0.9c0,0.1,0,0.3,0,0.4c0,0.1,0,0.1,0,0.1l-0.1,0.5l-0.1,0.2c0,0.1,0,0.1-0.1,0.2l-0.2,0.2h0
		l-0.2,0.1h-0.1l-0.2-0.1h0l-0.2-0.1l-0.3-0.3l-6.3-5.3c-0.5-0.4-1.3-0.6-1.9-0.2s-1,1.1-0.7,1.7c0,0.1,0,0.1,0.1,0.2v0.1
		c0,0,0,0,0,0c0,0,0,0,0,0c0,0.1-0.1,0.2-0.1,0.2c0,0,0,0,0,0l-0.1,0.1c0,0,0,0,0,0.1h-0.1l-0.1,0.1l-0.1,0.1l-0.4,0.2h-0.2
		l-0.4,0.1h-0.4c0,0,0,0-0.1,0h-0.1l-0.6-0.2h-0.1l-0.2-0.1l-0.4-0.2l-0.3-0.2l-0.1-0.1c-0.1-0.1-0.2-0.2-0.4-0.3
		c-1.2-1.1-2.3-2.5-3.4-3.8c-1.1-1.3-2.5-2.8-3.8-4.2c-1.3-1.3-3-2.9-4.6-4.3c-0.6-0.6-1.6-0.6-2.2,0c-0.3,0.3-0.4,0.7-0.4,1.1
		c0,0.2,0,0.3,0,0.5c0,0.1,0,0.2,0,0.3c0,0.2-0.1,0.4-0.1,0.7c-2.4-2.5-5.3-4.2-8.6-5.1c-0.1-0.1-0.2-0.2-0.3-0.4
		c-2.9-2.9-5.9-5.6-9.1-8.2c-3.2-2.6-5.9-4.8-9.3-6.5s-7-2.7-10.6-1.7s-6.3,3.8-7.7,7.2s-1.5,7.7-1.4,11.6c0,2,0,4-0.1,6
		c-0.1,1-0.1,2-0.2,2.9c0,0.2,0,0.5-0.1,0.7c0,0.2,0,0.2-0.1,0.3v0.1c-0.1,0.5-0.2,1-0.2,1.5c-0.6,3.8-1.6,7.5-2.9,11.2l-0.5,1.3
		l-0.3,0.7c0,0.1-0.1,0.2-0.2,0.4c0,0-0.1,0.1-0.1,0.2c-0.4,0.9-0.8,1.8-1.2,2.6c-0.8,1.7-1.8,3.4-2.7,5.1s-1.7,3.7-2,5.7
		c-0.1,1-0.1,2,0.2,3c0.2,0.5,0.3,1,0.6,1.5c0.1,0.2,0.2,0.4,0.2,0.6c0.1,0.1,0.1,0.2,0.1,0.3c0,0.1,0.1,0.2,0.1,0.2
		c0.1,0.2,0.1,0.4,0.2,0.6c0,0.1,0,0.1,0,0.2c0,0.1,0,0.2,0,0.2v0.7c0,0.1,0,0.2-0.1,0.3c0,0.1,0,0.2,0,0.3c-0.2,1-0.6,1.9-0.8,2.9
		c-0.5,1.6-0.8,3.5-0.2,5.1c0.1,0.2,0.1,0.3,0.2,0.4c-1.6,1-3,2.2-4.3,3.6c-0.6,0.6-0.6,1.6,0,2.2c0.2,0.2,0.4,0.3,0.7,0.4l0.6,0.2
		c-7,4.2-13,9.9-17.2,16.9c-1.4,2.3-2.5,4.6-3.5,7.1c-0.4,1,0.6,1.9,1.5,2l2.5,0.2c-5.1,10.4-12.6,19.5-16.5,30.5
		c-1.2,3.3-1.9,6.7-2.2,10.1c-0.1,1.6,2.2,2,2.9,0.8c2.2-3.8,5.7-6.6,9.8-7.9c0.1,1.5,0.7,2.9,1.7,4.1c0.6,0.6,1.6,0.6,2.2,0
		c0.6-0.6,0.6-1.6,0-2.2c-0.9-1-1-2.3-0.6-3.5c0.5-1.2-0.9-2.1-1.9-1.9c-3.8,0.7-7.3,2.5-10.1,5.1c2.5-9.6,8.5-18.1,13.5-26.5
		c1.8-3,3.4-6,4.8-9.1c0.5-1.1-0.1-2.2-1.3-2.3l-2.6-0.2c3.3-7.3,8.6-13.5,15.1-18.1c2.2-1.6,4.5-2.9,6.8-4.1
		c1.2-0.6,0.9-2.5-0.4-2.8l-1.6-0.4c2.5-2,5.3-3.4,8.3-4.2c1-0.2,1.9-0.4,2.9-0.5c1-0.1,2.1-0.2,3.1-0.5c1.1-0.3,2.1-1.1,2.6-2.2
		c0.5-1.1,0.8-2.3,1.1-3.5c0.6-2.3,1.2-4.6,1.8-6.9c1.9,0.9,3.6,2.3,4.8,4c0.4,0.7,1.4,1,2.1,0.5c0.5-0.3,0.7-0.8,0.7-1.3L80.3,59
		l5.6,5.5c1.1,1,3.1,0,2.6-1.5c-0.5-1.5-0.8-2.5-0.8-3.8c-0.1-0.6,0-1.1,0.1-1.7c0.1-0.2,0.1-0.4,0.2-0.7l0.2-0.3h0c0,0,0,0,0-0.1
		c0.2-0.3,0.5-0.5,0.8-0.6l0.2-0.1l0.2-0.1c0.1,0,0.5-0.1,0.4-0.1h0.5l0.3,0.1h0l0.1,0.1c0,0,0,0,0.1,0.1c0,0,0.1,0.1,0.1,0.2
		c0.6,0.9,2.2,1.1,2.7,0c1.2-2.8,1.5-5.9,0.8-8.8c2.8,0.7,5.2,2.3,7,4.5c0.8,1,2.3,0.3,2.6-0.7c2-6.6,0.4-14.1-4-19.4l0.2,0.1
		L101,32l0.3,0.2l-0.2-0.1l0.2,0.1c0.9,0.4,1.9,0.9,2.7,1.5l0.6,0.5h0.1l0.3,0.2c0.7,0.7,1.5,1.4,2.1,2.1l0.2,0.3v0.1
		c0.2,0.2,0.3,0.4,0.5,0.7c0.5,0.7,1.4,1,2.2,0.5c0.2-0.1,0.4-0.3,0.5-0.5c0.4-0.7,0.8-1.4,1.1-2.2c2.3,2.1,4.5,4.4,6.5,6.8
		c1.2,1.4,2.3,2.9,3.7,4c1.4,1.1,3.6,2,5.5,1.3c1-0.4,1.9-1,2.5-1.9l1.6,1.4l1.9,1.6c0.6,0.5,1.2,1.1,1.9,1.5c1.5,1,3.4,0.7,4.5-0.7
		c0.5-0.5,0.8-1.2,1-1.9c1,0.7,2.1,1.2,3.3,1.7c1.9,0.8,4,1.5,6.1,1.2c3.7,0,6.5-2.3,9.3-4.5c0.1,0.4,0.2,0.8,0.2,1.2
		c0.1,0.7,0.4,1.3,0.8,1.9c0.7,1,1.8,1.6,3,1.6c1.8,0,3.2-1.6,4.2-3c1-1.3,1.7-2.5,2.6-3.8l0.4-0.7c0.2,0.6,0.5,1.1,0.8,1.7
		c0.5,1,1.2,1.8,2.1,2.4c1.2,0.7,2.4,0.5,3.6-0.1c1.2-0.6,2.3-1.6,3.2-2.6c0.8-0.9,1.6-1.9,2.3-2.9c1.4-2,2.7-4.2,4-6.3
		c0.6-0.9,1.1-1.7,1.7-2.6c0,0.9,0.1,1.9,0.2,2.8c0.3,1.4,1.2,2.7,2.8,2.7c1,0,1.4-0.9,1.9-1.6l0.1-0.1l0.2-0.2l0.5-0.7
		c0.7-0.7,1.3-1.4,2-2l0.3-0.2l0.2-0.1l0.7-0.5l0.9-0.6c-1.5,3.8-1.9,8.2-1.5,12.1c0.2,1.7,0.5,3.4,1,5.1c0.4,1.4,2.7,1.6,3,0
		l0.2-0.7h0l0.2-0.3l0.2-0.3c0.1-0.2,0.3-0.3,0.4-0.5c0.6-0.5,1.3-0.9,2.1-1.2c1-0.3,2-0.6,2.9-0.8c0.2-0.1,0.4-0.1,0.6-0.1
		c-0.8,3-0.5,6.2,0.7,9c0.2,0.5,1,0.8,1.6,0.7c0.6-0.1,1.1-0.5,1.3-1.1c0,0,0.2-0.3,0.2-0.4l0.2-0.2l0.2-0.2l0.2-0.1h0.5l0.2,0.1
		l0.4,0.1l0.2,0.1l0.8,0.5l0.2,0.1l0.4,0.3l0.6,0.6l0.3,0.3c0,0,0,0,0,0h0c0.2,0.2,0.3,0.4,0.4,0.7c0.1,0.1,0.1,0.3,0.1,0.5
		c0,0.2,0,0.2,0,0.1c0,0,0,0.1,0,0.1l-0.1,0.3c0,0,0,0.1-0.1,0.1c-0.6,1.4-1.8,2.8-2.4,4.4c-0.5,1.6,1.5,2.5,2.6,1.5
		c2-2,4.9-3.4,6.8-5.6c0.7,2.1,1.2,4.3,1.2,6.6c0,3-0.5,6-1.6,8.7c-0.3,0.7,0.2,1.6,0.9,1.8c0.7,0.3,1.5,0,1.9-0.6
		c1.2-1.7,2.9-3.1,4.8-4.1c0.5,2,1,3.9,1.5,5.8c0.5,1.9,0.9,5.1,3,6.4s4.1,0.8,6.1,1.2c2,0.4,3.9,1.1,5.7,2c1.3,0.7,2.5,1.5,3.6,2.4
		l-1.6,0.4c-0.7,0.2-1.1,0.8-1.1,1.5c0,0.7,0.5,1.3,1.1,1.5c8.2,3.1,16.3,7.8,20.1,16c0.5,1.1,1,2.4,1.3,3.6
		c0.2,0.8,0.4,1.6,0.6,2.4l-3,0.3c-0.6,0-1.2,0.4-1.4,1c-0.2,0.5-0.2,1.3,0.3,1.7c4.8,3.8,8.8,8.6,11.7,14c2.9,5.3,4.8,11,6,16.9
		c0.2,1.1,0.4,2.1,0.6,3.1c-0.5-0.7-1-1.3-1.5-2c-1.9-2.4-4.5-4.6-7.6-5.1c-1-0.2-2.2,0.7-2,1.8l-0.5,0.9c-0.5,0.7-1.1,1.4-1.6,2.2
		c-1.2,2-1.4,4.4,0.5,6.1c0.6,0.6,1.6,0.6,2.2,0c0.6-0.6,0.6-1.6,0-2.2l-0.3-0.3c0,0-0.1-0.1-0.1-0.1c-0.1-0.1-0.1-0.2-0.2-0.2h0
		V151c0,0,0-0.1,0,0V151c0,0,0-0.1,0-0.1c0-0.1,0-0.1,0-0.2c0-0.1,0.1-0.2,0.1-0.3c0,0,0.1-0.1,0.1-0.2l0.1-0.2
		c0-0.1,0.1-0.2,0.2-0.3c0.2-0.4,0.5-0.8,0.7-1.1c0.4-0.6,1.1-1.3,1.5-2.1c0.7,0.3,1.3,0.7,1.9,1.1c1.1,0.9,2,1.8,2.9,2.9
		c1.8,2.2,3.2,4.8,4.7,7.3c0.7,1.3,3,0.8,2.9-0.8C287.3,144.6,283.9,131.9,276.1,121.8z M101.8,47.5c-2.7-2.2-6-3.5-9.5-3.8
		c-1.3-0.1-1.8,1.4-1.3,2.4c1,2.1,1.2,4.4,0.7,6.7c-1.7-0.6-3.9,0-5.3,1.3c-1.4,1.3-1.9,3-1.8,4.8L80,54.4c-1-1-2.6-0.2-2.7,1.1
		c-0.2,5.1-0.5,10.3-0.7,15.4c-1.6-1.4-3.4-2.4-5.5-3.1c-0.8-0.2-1.7,0.3-1.9,1.1l-2,7.4c-0.3,1.2-0.6,2.4-1,3.6
		c-0.1,0.7-0.7,1.2-1.3,1.3c-0.8,0.2-1.7,0.2-2.6,0.3c-1.1,0.1-2.1,0.3-3.2,0.6c-1.6,0.4-3,1-4.5,1.7l0,0l0,0c0,0,0,0,0-0.1
		c0,0,0,0,0-0.1l0,0l-0.1-0.3v-0.1c0,0,0-0.1,0-0.1c0,0,0,0,0,0.1c0,0,0-0.3,0-0.4s0-0.4,0-0.5c0-0.1,0.1-0.2,0.1-0.3
		c0.4-1.9,1.2-3.6,1.4-5.5c0.1-1.1-0.2-2.1-0.6-3.1c-0.2-0.4-0.3-0.8-0.5-1.2c0-0.1-0.1-0.1-0.1-0.2l-0.1-0.3
		c-0.1-0.2-0.2-0.5-0.2-0.8c0,0,0-0.1,0-0.2c0,0,0-0.1,0-0.1v-0.6c0-0.2,0-0.4,0-0.7v-0.1c0-0.1,0.1-0.2,0.1-0.4
		c0.1-0.4,0.2-0.8,0.3-1.2l0.2-0.6l0.2-0.4c0,0,0-0.1,0-0.1v-0.1c0.7-1.7,1.7-3.3,2.6-5s1.7-3.5,2.5-5.3c1.5-3.5,2.6-7.1,3.3-10.9
		c0.8-3.8,1.2-7.6,1.3-11.4c0-2,0-3.9,0-5.9c0-1,0-2,0.1-3c0-0.5,0.1-0.9,0.1-1.4c0-0.1,0-0.1,0-0.2c0-0.1,0-0.2,0.1-0.4
		c0-0.1,0.1-0.5,0.1-0.7c0.2-0.8,0.4-1.6,0.7-2.3c0-0.1,0.1-0.4,0.2-0.4c0-0.1,0.1-0.2,0.2-0.4c0.2-0.4,0.4-0.7,0.6-1.1
		c0.2-0.3,0.3-0.6,0.5-0.8c0,0,0,0,0.1-0.1l0.2-0.2l0.4-0.5l0.9-0.8h0l0.2-0.2l0.6-0.3c0.2-0.1,0.3-0.2,0.5-0.2l0.3-0.2h0.1
		c0.4-0.2,0.7-0.3,1.1-0.4l0.5-0.1l0.3-0.1c0.4-0.1,0.8-0.1,1.2-0.1l1.2,0.1h0.2l0.7,0.1c0.8,0.2,1.6,0.4,2.4,0.7l0.6,0.2H79
		l0.2,0.1c0.4,0.2,0.8,0.4,1.2,0.6c0.8,0.4,1.6,0.8,2.3,1.3c0.7,0.4,1.4,0.9,2.1,1.4l0.5,0.4l0.2,0.2h0.1l1.1,0.9
		c3.1,2.5,6.1,5.1,8.9,7.8l1.6,1.6c-0.1,0.1-0.1,0.2-0.2,0.3C97,30.4,97,30.7,97,31c-0.4,0.6-0.4,1.4,0.2,1.9
		C100.9,36.9,102.5,42.3,101.8,47.5z M127.1,44.3C127,44.3,127.1,44.2,127.1,44.3L127.1,44.3z M163.3,47.5
		C163.2,47.5,163.2,47.5,163.3,47.5L163.3,47.5z M173.4,40.8C173.3,40.7,173.4,40.8,173.4,40.8L173.4,40.8z M246.3,70.9
		c0,0.3,0,0.2-0.1,0.3c0,0.1-0.1,0.4-0.2,0.6l-0.2,0.4v0.1c-0.1,0.2-0.2,0.4-0.3,0.7c-0.4,1-0.8,2-0.8,3.1c0,1,0.2,2,0.5,3
		c0.2,0.9,0.5,1.8,0.8,2.6c0,0.2,0.1,0.3,0.2,0.4c-0.9-0.4-1.9-0.7-2.9-1.1c-1-0.3-2-0.5-3-0.7c-0.9-0.1-2.1-0.2-2.9-0.3
		c-0.8-0.2-1.3-0.2-1.7-0.9c-0.4-0.7-0.6-2.1-0.9-3.1c-0.7-2.8-1.5-5.6-2.2-8.3c-0.2-0.8-1.1-1.3-1.9-1.1c-1.4,0.5-2.7,1.1-3.9,1.9
		c0.2-1.5,0.3-3,0.3-4.5c-0.1-3.7-1.1-7.3-2.8-10.6c-0.6-1.3-2.5-0.8-2.8,0.4c-0.2,0.7-0.6,1.3-1.1,1.9c-0.3,0.3-0.6,0.7-1,0.9
		L219,57c0.1-1-0.2-2-0.7-2.8c-1.3-2-3.8-4.1-6.4-3.9c-0.6,0.1-1.2,0.2-1.8,0.6c-0.3-2.1,0-4.2,0.9-6.1c0.5-1-0.1-2.4-1.3-2.3
		c-3,0.2-7.2,0.8-9.7,2.9c-0.3-2.3-0.3-4.6,0-6.9c0.4-2.7,1.2-5.6,2.8-7.8l0.2-0.2c2.8-2.8,5.7-5.4,8.7-7.9l2.3-1.8l1.1-0.9
		c0,0,0.1-0.1,0.1-0.1c0,0,0.1-0.1,0.1-0.1l0.6-0.4c1.4-1,2.9-1.9,4.4-2.7l1.2-0.6l0.2-0.1l0.2-0.1h0.1l0.3-0.2
		c0.8-0.3,1.6-0.5,2.4-0.7l0.6-0.1l0.3-0.1l1.2-0.1c0.4,0,0.8,0,1.1,0h0.3l0.6,0.1l1.1,0.3l0.2,0.1l0.1,0.1l0.6,0.3
		c0.3,0.2,0.7,0.4,0.9,0.6l0.1,0.1l0.2,0.2l0.5,0.5c0.2,0.2,0.5,0.5,0.7,0.8h0l0.2,0.2l0.4,0.6l0.6,1l0.2,0.5v0.1
		c0.1,0.1,0.1,0.2,0.1,0.3c0.3,0.7,0.5,1.5,0.7,2.3c0.1,0.4,0.2,0.9,0.2,1.3v0.1c0,0.1,0,0.2,0,0.3l0.1,0.8c0.2,2,0.1,4,0.1,6
		c-0.1,3.9,0.2,7.8,0.8,11.7c0.6,3.7,1.5,7.3,2.7,10.8c1.3,3.6,2.9,7.1,4.7,10.4c0.4,0.8,0.9,1.6,1.3,2.5l0.2,0.5
		c0,0.1,0.1,0.2,0.1,0.2l0.1,0.2c0.2,0.5,0.3,0.9,0.4,1.4c0.1,0.2,0.1,0.4,0.1,0.6c0,0.1,0,0.2,0.1,0.2v0.1
		C246.4,70,246.4,70.5,246.3,70.9z M273.4,151.3C273.5,151.4,273.4,151.3,273.4,151.3L273.4,151.3z M273.5,145.1
		C273.5,145.2,273.5,145.3,273.5,145.1L273.5,145.1z"/>
	<path style="stroke:#000000;stroke-width:3;stroke-linecap:round;stroke-linejoin:round;stroke-miterlimit:10;" d="M186.4,51.4
		c-0.7-0.3-1.4-0.6-2.2-0.7c0,0,0-0.1,0.1-0.1l0.5-0.7l0.2-0.3l0.2-0.2l0.1-0.1l0.2-0.2l0.2-0.3l0.6-0.7c0.6-0.6,0.6-1.6,0-2.2
		c-0.6-0.6-1.6-0.6-2.2,0c-1.9,2-3.3,4.3-4.3,6.9c-0.2,0.6,0.1,1.3,0.6,1.6c0.5,0.4,1.2,0.4,1.7,0.1l0.6-0.3l0.2-0.1l0.2-0.1
		l0.6-0.2h0.6l0.3,0.1h0.1l0.1,0.1h0l0.1,0.1l0.2,0.1c0.3,0.1,0.5,0.3,0.8,0.5l0.1,0.1c0.1,0.1,0.2,0.2,0.3,0.3l0.2,0.2l0.1,0.1
		l0.1,0.1c0,0.1,0.1,0.2,0.2,0.3c0,0.1,0.1,0.1,0.1,0.2c0.2,0.8,1.1,1.3,1.9,1.1c0.8-0.2,1.3-1.1,1.1-1.9
		C189.4,53.4,187.9,52.1,186.4,51.4z M186.7,55.6C186.7,55.6,186.7,55.5,186.7,55.6L186.7,55.6z"/>
</g>
</svg>
