<?xml version="1.0" encoding="utf-8"?>
<!-- Generator: Adobe Illustrator 27.9.0, SVG Export Plug-In . SVG Version: 6.00 Build 0)  -->
<svg version="1.1" id="Layer_1" xmlns="http://www.w3.org/2000/svg" xmlns:xlink="http://www.w3.org/1999/xlink" x="0px" y="0px"
	 viewBox="0 0 220.6 167.7" style="enable-background:new 0 0 220.6 167.7;" xml:space="preserve">
<g>
	<path style="stroke:#000000;stroke-width:3;stroke-linecap:round;stroke-linejoin:round;stroke-miterlimit:10;" d="M209.4,120.4
		c-1.3-6.8-3.2-13.6-6.5-19.8c-1.1-2-2.3-3.9-3.6-5.7l-1.8-2.4c-0.3-0.3-0.5-0.7-0.8-1l-0.2-0.3h0l-0.4-0.5l-0.6-0.8
		c0.8,0.1,1.7-0.1,2.2-0.8c0.5-0.8,0.5-2,0.4-3c-0.6-5.2-3.1-9.6-6.2-13.7c-0.8-1.1-1.7-2.3-2.5-3.4h0.4c0.6,0,1.1-0.5,1.1-1.2
		c0-0.3-0.1-0.6-0.3-0.8c-1.4-1.6-2.8-3.2-3.9-4.9c-0.4-0.5-0.7-1.1-1-1.7l-0.1-0.3c0-0.1,0-0.1-0.1-0.2c-0.1-0.2-0.2-0.5-0.2-0.7
		c-0.5-1.7-0.5-3.4-1.2-5.1c-0.3-0.8-0.7-1.6-1.1-2.3l1.5,0.5c0.8,0.3,1.7-0.6,1.4-1.4c-0.7-2-2.8-3.6-4.4-4.9s-3.9-3-5.8-4.5
		c1,0.2,2,0.4,2.8,1c0.5,0.3,1.1,0.1,1.5-0.3c0.4-0.5,0.3-1-0.1-1.5c-2.6-3.1-6.1-5.5-9.5-7.7c-3.8-2.4-7.7-4.6-11.7-6.9l-3-1.8h1.4
		c1.1,0.1,1.6-1.7,0.6-2.1c-5.9-2.6-12.1-4.5-18.4-5.7c0.1-0.1,0.3-0.3,0.4-0.4c0.6-0.7,0.2-2-0.8-2l-18,1.5c0.4-0.7,0.9-1.4,1.4-2
		c0.4-0.5,0.4-1.2-0.1-1.6c-0.3-0.3-0.7-0.4-1-0.3c-2.3,0.6-4.4,1.5-6.5,2.6c0-0.5,0.1-0.9,0.3-1.4c0.3-0.9-0.9-1.9-1.7-1.3
		c-1.4,1-2.5,2.4-3.2,4c-5-1.6-10.1-3-15.2-4.2c-1.3-0.3-1.9,1.3-0.9,2.1c0.5,0.4,1.3,0.9,1.5,1.6c0.1,0.2,0.1,0.5,0,0.7
		c0,0.1-0.3,0-0.6,0c-2.1-0.3-4.2-0.4-6.3-0.6l-13.6-1.2c-1-0.1-1.5,1.3-0.8,2l0.6,0.6C68,18,61.4,20.1,55.1,22.8
		c-1,0.5-0.5,2.2,0.6,2.1c0.7,0,1.3,0,2,0c-6.7,4.9-12.8,10.6-18,17c-0.4,0.4-0.5,1-0.1,1.5c0.3,0.5,1,0.6,1.5,0.3
		c0.7-0.5,1.5-0.9,2.3-1.3c-1.2,1.9-2.1,4-2.8,6.2c-0.3,0.8,0.6,1.7,1.4,1.4l2.6-0.9c-4.2,10.5-9.8,20.3-16.7,29.3
		c-2.1,2.7-4.2,5.3-6.4,7.8c-0.4,0.5-0.4,1.2,0,1.6c0.2,0.2,0.5,0.3,0.8,0.3h0.6c-4.1,7.4-6.7,15.6-7.4,24c0,0.5,0.3,1,0.8,1.1
		c0.5,0.2,1-0.1,1.3-0.5l1.2-1.6c0.4,5.5,0,11-0.9,16.4c-0.2,1,1.1,2.1,1.9,1.1c1.5-1.8,2.9-3.5,4.4-5.2
		c-0.9,10.6-1.8,21.1-2.6,31.7c-0.1,1,1.3,1.5,1.9,0.8c3.9-4,7.3-8.3,10.6-12.8c-0.3,3.4-0.3,6.8,0.1,10.2c0.1,0.8,0.7,1.3,1.4,1.1
		c1.9-0.3,3.6-1.6,5.1-2.8c2.1-1.7,4-3.7,5.8-5.7c4.5-5.1,8.6-10.8,12.3-16.5c3.2-4.9,6.4-10,8.8-15.3c1.9-4.2,3.7-8.5,4.9-12.9
		c0.7-2.6,1.2-5.2,1.3-7.8c0.1-2.3,0-4.6-0.4-6.9c-0.7-4.2-1.8-8.3-2.6-12.4c-0.4-2.1-1.3-4.1-2-6.2S67.5,64,67.6,62
		c0.1-0.9,0.4-1.7,0.8-2.4c0.5-0.8-0.4-2.1-1.3-1.7L67,58c2.1-5,6.4-8.7,11.5-10.7c0.6-0.2,1-0.8,0.8-1.4c-0.2-0.6-0.8-1-1.4-0.8
		l-2.4,1c-0.2,0.1-0.4,0.2-0.6,0.4c-5.2,2.8-9.4,7.4-10.8,13.2c-0.2,0.8,0.5,1.8,1.4,1.4c-0.5,3.1,0.8,6.4,1.9,9.3c0.4,1,0.7,2,1,3
		c0.3,1,0.5,2.4,0.8,3.6C69.5,79,70,81,70.5,83c1,4.2,1.5,8.5,0.9,12.8c-0.8,5.1-2.6,10.1-4.6,14.8c-2.2,5.3-5.1,10.2-8.2,15
		c-3.6,5.7-7.5,11.3-11.8,16.5c-1.8,2.3-3.8,4.4-5.9,6.4c-0.8,0.8-1.6,1.5-2.5,2.1c-0.4,0.3-0.8,0.6-1.3,0.8l-0.6,0.3l-0.1,0
		c-0.4-4.2-0.2-8.4,0.5-12.5c0.2-1.3-1.3-1.9-2.1-0.9c-3.4,4.6-6.9,9.2-10.7,13.5c0.9-10.7,1.8-21.3,2.6-32c0.1-1-1.3-1.5-1.9-0.8
		l-4.1,4.9c0.6-5.3,0.7-10.7,0.1-16c-0.1-1.2-1.4-1.5-2.1-0.6l-0.4,0.5c1.3-7.4,3.9-14.5,7.9-21c0.5-0.8-0.2-1.6-0.9-1.7
		c7.3-8.6,13.5-18.1,18.4-28.3c1.5-3.1,2.9-6.4,4.1-9.6c0.3-0.8-0.6-1.7-1.4-1.4l-2.7,1c0.9-2.2,2.1-4.3,3.6-6.2
		c0.7-0.8-0.4-1.8-1.3-1.7l-1,0.3c4.9-5.4,10.4-10.1,16.3-14.2c0.8-0.5,0.7-1.8-0.3-2.1l-0.4-0.1c5.5-2.1,11.2-3.6,17-4.6
		c0.8-0.1,1-1.2,0.6-1.8l13.3,1.1l3.5,0.3c1.1,0.1,2.2-0.2,2.7-1.3c0.4-0.7,0.4-1.6,0.1-2.3c4.3,1.1,8.6,2.3,12.8,3.6
		c0.6,0.2,1.2-0.2,1.4-0.8c0.2-0.5,0.4-1.1,0.7-1.6c0,0.2,0.1,0.4,0.2,0.7c0.2,0.6,0.8,1,1.4,0.8c0.1,0,0.2-0.1,0.3-0.1
		c1.4-0.9,2.8-1.6,4.3-2.2c-0.2,0.5-0.3,0.9-0.4,1.4c-0.1,0.4,0.1,0.9,0.4,1.2c0.2,0.3,0.6,0.5,1,0.5l16.4-1.4
		c-0.3,0.6-0.1,1.5,0.7,1.7c5.4,0.9,10.7,2.3,15.8,4.2l-0.2,0c-1,0.3-1.1,1.5-0.3,2.1c7,4.8,14.9,8.2,21.7,13.4
		c0.4,0.3,0.8,0.6,1.2,1c-0.9-0.1-1.8-0.3-2.6-0.4c-0.8-0.2-1.8,1-1.1,1.9c0.5,0.6,1.2,1.2,1.8,1.7c1,0.8,2,1.6,3,2.3
		c1.7,1.3,3.5,2.6,5.1,4.1l-0.7-0.3c-0.9-0.3-1.8,0.9-1.3,1.7c1.6,2.3,3,4.4,3.4,7.2c0.1,0.8,0.3,1.6,0.4,2.4
		c0.3,1.1,0.8,2.2,1.5,3.2c0.7,1.2,1.5,2.3,2.4,3.3c-0.7,0.1-1.3,0.9-0.8,1.7c1.1,2.1,2.6,3.9,3.9,5.8c1.6,2.3,3.2,4.6,4.3,7.2
		c0.6,1.4,1,2.9,1.3,4.4c0.2,0.7,0.2,1.4,0.3,2.1c0,0.1,0,0.3,0,0.4l-0.1,0l-0.2-0.1l-0.2-0.1l-0.6-0.3c-0.5-0.3-1.1-0.8-1.7-1
		c-0.6-0.2-1.3,0.1-1.5,0.8c0,0,0,0,0,0c-0.1,0.5,0.1,0.9,0.3,1.3c0.2,0.5,0.5,1,0.8,1.5c0.8,1.2,1.5,2.3,2.4,3.3l0.6,0.8l0.6,0.8
		c0.5,0.7,1,1.4,1.5,2.1c1.1,1.6,2.1,3.3,3.1,5c2.2,4.2,3.8,8.6,4.9,13.2c-1.6-2.4-3.1-4.8-4.7-7.2c-0.5-0.7-1-1.5-1.5-2.2
		c-0.5-0.7-2-0.6-2.1,0.6c-0.6,5.5,0.8,11,2,16.4c-0.8-0.6-1.8-1.1-2.6-1.6c-1.7-1-3.7-2.1-5-3.6c-0.5-0.5-1.5-0.4-1.8,0.3
		c-1.7,4-1.1,8.2,0.4,12.2c1.6,4.3,3.9,8.3,5.7,12.6c0.5,1.2,1,2.5,1.3,3.8c-1.8-1.8-3.6-3.7-5.4-5.5c-2.6-2.7-5.2-5.5-7.4-8.5
		c-0.8-1-2.3-0.4-2.1,0.9c0.3,1.3,0.9,2.7,1.5,3.9c0.6,1.2,1.6,2.8,2.4,4.3c0.8,1.4,2.2,3.6,2.7,5.5c-1.9-1.1-4-1.9-6-2.6
		c-3.3-1.3-6.7-2.5-9.8-4.3c-6.9-4-11.5-11-13.9-18.5c-0.9-2.7-1.4-5.5-2.2-8.3c-0.5-1.8-1-3.5-1.4-5.3c-0.3-2.1-0.5-4.1-0.5-6.2
		c0-3.6,0.3-7.2,0.9-10.7c0.2-1.2,0.4-2.4,0.6-3.6c0.2-1.2,0.3-2.5,0.6-3.7c0.3-1.2,0.9-3.1,1.3-4.6c0.5-1.9,0.6-3.9,0.8-5.9
		c0.3-3.8,0.3-8-1.1-11.6l1.3,0.4c0.9,0.3,1.6-0.6,1.4-1.4c-0.8-3.5-3-6.5-5.8-8.7c-1.4-1.1-2.9-2-4.5-2.7c-0.8-0.4-1.6-0.7-2.5-1
		c-0.8-0.3-1.5-0.7-2.1-0.5c-0.6,0.2-1,0.8-0.8,1.4c0.1,0.3,0.3,0.5,0.5,0.7c0.3,0.2,0.8,0.3,1.2,0.5l1.5,0.6c0.1,0.1,0.3,0.1,0.5,0
		l1,0.4c1.4,0.7,2.7,1.5,3.9,2.4c1.9,1.4,3.3,3.3,4.3,5.4c-0.6-0.1-1.1-0.3-1.7-0.5c-0.9-0.4-1.8,0.9-1.3,1.7
		c2.1,3.2,2.2,7.3,2.1,10.9c-0.1,1.9-0.1,3.9-0.5,5.8c-0.3,1.9-0.8,3.2-1.3,4.8c-0.2,0.9-0.4,1.8-0.5,2.7c-0.1,0.5-0.1,0.9-0.2,1.4
		c0,0.1,0,0.2,0,0.3c-0.2,1-0.4,2.1-0.6,3.2c-0.7,3.5-1,7-1.2,10.5c-0.1,4.2,0.2,8.6,1.5,12.6c0.8,2.6,1.4,5.3,2.1,8
		c2.1,7.7,6.2,14.9,12.6,19.8c3.1,2.3,6.6,3.9,10.1,5.2c2.9,1.1,6,2.1,8.8,3.6c0.5,0.3,1,0.7,1.5,1c0.8,0.7,1.8,0.2,1.9-0.8
		c0.1-1-0.3-2.7-0.7-4c-0.6-1.6-1.4-3.1-2.3-4.5l-0.1-0.1c3.2,3.4,6.5,6.7,9.8,10c0.6,0.7,2,0.2,1.9-0.8c-0.4-4.6-2.3-8.8-4.3-12.9
		s-3.9-7.7-4.6-11.9c-0.3-1.5-0.3-3.1,0.1-4.6c1.2,1,2.6,1.7,3.9,2.5c1.7,1,3.7,2.1,5,3.6c0.8,1,2.1-0.1,1.9-1.1
		c-0.9-5.1-2.5-10.3-2.7-15.6l1.4,2.1l4.7,7.2c0.5,0.7,1,1.5,1.5,2.2C208.1,122.3,209.6,121.7,209.4,120.4z M196,87.7
		c0,0,0.1,0,0.1,0C196.1,87.8,196.1,87.8,196,87.7l0.1,0L196,87.7C195.9,87.6,195.9,87.6,196,87.7z"/>
	<path style="stroke:#000000;stroke-width:3;stroke-linecap:round;stroke-linejoin:round;stroke-miterlimit:10;" d="M65.4,41.8
		c2-1.9,4.1-3.7,6.3-5.5c0.5-0.4,0.4-1.2,0-1.6c-0.4-0.4-1.1-0.4-1.6,0c-4,3.1-7.7,6.6-11,10.4c-3.4,3.8-6.4,8-9.1,12.3
		c-1.6,2.6-3.4,5.5-3,8.7c0.1,0.5,0.6,0.8,1.1,0.8h0.1c-0.4,2.7-0.7,5.4-1.1,8c-0.5,3.2-1.2,6.3-2.4,9.3s-2.7,5.6-4.2,8.2
		c-1.5,2.7-3.2,5.6-4.9,8.4c-1.9,3.2-4,6.2-6.1,9.3c-0.3,0.5-0.1,1.2,0.4,1.6c0,0,0,0,0,0c0.5,0.3,1.2,0.1,1.5-0.4
		c1.9-2.8,3.7-5.5,5.5-8.3c1.8-2.8,3.3-5.6,4.9-8.5c1.6-2.8,3.1-5.5,4.4-8.4c1.3-3,2.2-6.2,2.7-9.4c0.6-3.7,1-7.4,1.5-11.1
		c0.1-0.5,0-1-0.5-1.3c-0.3-0.2-0.6-0.2-0.9-0.1c0-0.1,0-0.3,0.1-0.3c0.1-0.6,0.3-1.2,0.6-1.7c0.5-1.1,1.2-2.3,1.9-3.3
		c1.3-2.1,2.6-4.2,4.1-6.2C58.6,48.9,61.8,45.2,65.4,41.8z"/>
	<path style="stroke:#000000;stroke-width:3;stroke-linecap:round;stroke-linejoin:round;stroke-miterlimit:10;" d="M58.5,95.6
		c-0.5,3.6-1.1,7.2-2.2,10.6c-0.2,0.4-0.3,0.8-0.5,1.3c-0.2,0.4-0.2,0.4-0.3,0.6l-0.1,0.2c0,0.1-0.1,0.2-0.1,0.3
		c-0.4,0.8-0.8,1.7-1.3,2.5c-0.9,1.6-2,3.2-3.1,4.8l-3.7,5.6c-0.3,0.5-0.2,1.2,0.4,1.6c0.5,0.3,1.2,0.2,1.6-0.4l0,0l3.3-5
		c1-1.6,2.1-3.2,3.1-4.8c1.9-3.2,3.1-6.7,3.9-10.4c0.4-2,0.7-4.1,1-6.1c0.1-0.6-0.2-1.3-0.8-1.4C59.3,94.7,58.6,95,58.5,95.6z"/>
</g>
</svg>
