<?xml version="1.0" encoding="utf-8"?>
<!-- Generator: Adobe Illustrator 27.9.0, SVG Export Plug-In . SVG Version: 6.00 Build 0)  -->
<svg version="1.1" id="Layer_1" xmlns="http://www.w3.org/2000/svg" xmlns:xlink="http://www.w3.org/1999/xlink" x="0px" y="0px"
	 viewBox="0 0 239.6 170.4" style="enable-background:new 0 0 239.6 170.4;" xml:space="preserve">
<g>
	<path style="stroke:#000000;stroke-width:3;stroke-linecap:round;stroke-linejoin:round;stroke-miterlimit:10;" d="M224.9,83.3
		c-1.8-5.4-5.7-9.3-9.7-13.2c-2.1-2-4.1-4.1-6-6.3c-1.9-2.2-3.5-4.6-5.4-6.8c-1.9-2.2-3.3-4.4-4.9-6.6c-1.6-2.2-3.1-4.2-4.7-6.2
		c-3.4-4.1-7.3-7.8-11.6-11c-2.3-1.7-4.8-3.1-7.4-4.1c-2.7-1-5.6-1.6-8.2-2.7s-4.6-3.1-6.8-5.1c-2-1.9-4.2-3.6-6.5-5.1
		c-2.5-1.6-5.1-2.5-8-3.4c-1.4-0.5-2.7-1.1-4.2-1.4c-1.5-0.3-3.1-0.4-4.6-0.7c-11.9-2.2-24.6,0-36,3.7c-5.6,1.8-11.1,4-16.4,6.5
		c-2.7,1.3-5.4,2.7-8.1,4.1c-2.7,1.4-5.1,2.8-8,3.6c-2.8,0.8-5.6,0.4-8.3,0.9c-2.8,0.5-4.8,2.2-6.8,4.3C49,38,44.9,42.4,40.9,46.9
		c-4,4.5-8.5,9.3-12.5,14.1c-0.9,1.1-1.8,2.1-2.6,3.3c-0.4,0.5-0.9,0.9-1.4,1.3c-0.5,0.4-0.8,1-1.2,1.5c-1.6,1.9-3.3,3.8-4.9,5.8
		c-3.3,3.8-6.4,7.9-7.8,12.8c-1.7,5.8-0.6,11.9,1.4,17.5c1.8,5.1,4.2,9.9,7.4,14.3c3.2,4.4,7.1,8.2,11.3,11.6
		c4.2,3.4,8.5,6.5,11.7,10.8c-0.1,3,0,5.9,0.4,8.9c0.2,1.6,0.4,3.2,1.1,4.6c0.7,1.5,1.9,2.5,3.5,2.3c0.6,0,1-0.4,1.2-0.9
		c3.9-9.3,5.6-19.4,6.4-29.5c0.5,2.6,1.1,5.2,1.8,7.7c0.8,3.1,1.6,6.1,2.7,9.1c0.7,2.3,1.6,4.5,2.6,6.6l0.3,0.5
		c0.4,0.6,1.1,0.8,1.8,0.5c0.6-0.4,0.8-1.1,0.5-1.8l0,0c-0.2-0.4-0.4-0.8-0.6-1.1l-0.3-0.7c0,0,0-0.1,0-0.1l-0.2-0.4
		c-0.5-1.1-0.9-2.2-1.3-3.4c-1-2.9-1.9-5.8-2.6-8.8c-0.9-3.4-1.7-6.9-2.3-10.4c-0.4-1.8-0.6-3.6-0.9-5.4l-0.1-0.7
		c0-0.1-0.1-0.2-0.1-0.3c0-0.1,0-0.1,0-0.2l0,0l-0.2-1.4c-0.1-0.9-0.2-1.7-0.3-2.6c-0.1-0.9-0.1-1.2-0.2-1.8c0-1.9,0-3.8,0-5.7
		c0-5.9,0.1-11.9-0.9-17.8c-0.5-2.6-1.1-5.1-1.8-7.6c0-0.1,0.1-0.3,0.1-0.4C52.4,67.4,61,57.9,66.3,47.9c1.4-2.6,2.5-5.3,2.9-8.2
		c0.2-1.3,0.3-3-0.7-4.1c-1.1-1-2.5-0.8-3.7-0.3s-2.1,1.4-3,2.3c-0.9,0.9-1.8,1.9-2.6,3c-1.6,2.1-2.8,4.4-3.9,6.7
		c-2.5,5.2-4.8,10.6-5.9,16.3c-0.6,2.9-0.8,5.9-0.6,8.9c0.2,2.9,0.9,5.8,1.6,8.7s1.5,5.7,1.9,8.6s0.5,6.1,0.5,9.2c0,0.9,0,1.8,0,2.7
		l0,0c-0.3,3.1-0.3,6.2,0,9.2c0,1.8-0.1,3.6-0.1,5.5c-0.3,11.4-1.4,22.9-5.2,33.7c-0.3,0.9-0.7,1.9-1,2.8l-0.1-0.1
		c-0.3-0.4-0.5-0.7-0.7-1.2c-0.4-1.3-0.5-2.7-0.7-4c-0.3-3-0.3-6-0.2-9c0.2-6,0.7-12,0.1-17.9c-0.4-3.3-1.3-6.6-2.6-9.7
		c-0.3-0.6-1.2-0.8-1.8-0.5c-0.6,0.3-0.7,1.1-0.5,1.7c2.5,5.6,2.7,11.8,2.6,17.7c-0.1,2-0.2,3.9-0.2,5.9c-2.9-3.2-6.3-5.8-9.7-8.6
		c-4.2-3.3-8.1-7-11.2-11.4c-3.2-4.4-5.7-9.2-7.4-14.4c-1.8-5.5-2.7-11.3-0.6-16.9c1.7-4.6,5.1-8.5,8.3-12.2l2.4-2.8
		c0.8-0.9,1.5-2,2.5-2.7c1-0.7,1.8-2.2,2.6-3.2c0.8-1,1.9-2.3,2.9-3.4c7.9-8.9,15.7-18.1,24.3-26.4c2.1-2,4.8-2.5,7.6-2.5
		c2.8-0.1,5.6-0.6,8.2-1.8c2.7-1.1,5.3-2.7,7.9-4c2.6-1.4,5.3-2.7,7.9-3.9c10.6-4.8,21.9-8.4,33.5-9.4c6.2-0.5,12.5-0.1,18.6,1.1
		c1.4,0.3,2.7,0.8,4,1.3c1.4,0.5,2.8,0.8,4.2,1.4c2.6,1,5,2.7,7.2,4.4c2.2,1.7,4.1,3.9,6.3,5.6s4.8,2.7,7.4,3.5
		c2.6,0.8,5.4,1.6,7.9,2.8c2.5,1.3,4.8,3,6.9,4.8c4,3.3,7.5,7.2,10.6,11.3c1.6,2.1,3.1,4.3,4.6,6.4c1.5,2.2,3.6,4.5,5.3,6.8
		c3.4,4.5,7.5,8.3,11.4,12.4c1.9,2,3.8,4,5.1,6.4c1.3,2.3,2,4.9,2.2,7.5c0.3,5.3-2.4,10.2-5.7,14.1c-3.7,4.4-8.4,7.7-12.7,11.5
		c-2.2,1.9-4.4,3.9-6.3,6.2c-1.8,2.3-3.7,5-5.1,7.6c-2.6,5.1-4.3,10.6-5.8,16.1c-0.4,1.4-0.7,2.7-1,4.1l-0.5,1.9l-0.3,1.1
		c-0.1,0.3-0.1,0.8-0.3,1.1c-0.7,0.9-1.5,0.3-1.8-0.6c-0.1-0.3-0.1-0.8-0.2-1.3c-0.2-0.9-0.4-1.9-0.6-2.8
		c-1.1-6.1-0.9-12.3-0.2-18.5c0.7-5.7,1.7-11.3,2.9-16.9c0-0.1,0.1-0.1,0.1-0.2c0.3-0.7,0.5-1.3,0.6-2c0.8-3.3,1.4-6.6,1.9-10
		c0.5-2.2,0.9-4.4,1.3-6.6c1-5.8,1.8-11.7,1.9-17.7c0.1-5.9-0.5-12.1-1.7-18.1c-0.6-3-1.4-5.8-2.6-8.6c-1.2-2.7-2.7-5.2-4.4-7.6
		c-1.4-2-3.1-4.1-5.5-5c-1-0.4-2.1-0.4-3,0.1c-1.4,0.8-1.6,2.1-1.6,3.5c-0.1,2.8,0.9,5.5,2.1,8c1.3,2.7,2.8,5.2,4.5,7.6
		c3.3,4.6,6.4,9.8,7.7,15.3c1.4,5.5,1.2,11.2,0.4,16.7c-0.5,3.8-1,7.6-1.5,11.3c-0.1,0.8-0.2,1.6-0.3,2.3c-0.7,3.3-1.4,6.6-2,9.8
		v0.1c-0.1,0.1-0.1,0.2-0.1,0.3c-0.1,0.3-0.2,0.5-0.3,0.8c-0.4,1-0.7,1.9-1,2.9c-2.2,6.6-4.3,13.2-6.5,19.8
		c-0.8,2.4-1.6,4.8-2.5,7.1c-0.6,1.5,1.9,2.2,2.5,0.7c1.9-4.7,3.4-9.5,5-14.3c-0.6,4.7-0.8,9.5-0.5,14.2c0.1,1.5,0.3,2.9,0.5,4.3
		c0.1,0.8,0.3,1.6,0.4,2.4c0.2,0.8,0.3,1.7,0.4,2.6s1,2.1,1.7,2.6c1,0.7,2.3,0.8,3.3,0.2c1-0.5,1.7-1.3,2-2.3s0.7-3,1.1-4.4
		c0.7-2.8,1.4-5.6,2.3-8.3c0.8-2.9,1.9-5.7,3.1-8.4c0.6-1.3,1.2-2.5,1.9-3.7c0.8-1.4,1.9-2.7,2.8-4c3.5-4.9,8.4-8.6,13-12.3
		c4.6-3.8,8.2-7.4,10.8-12.3C225.9,93.8,226.6,88.5,224.9,83.3z M54.8,54.4c1-2.5,2.1-4.9,3.3-7.3c1.2-2.4,2.4-4.4,4-6.2
		c0.8-0.9,1.6-1.8,2.6-2.5c0.4-0.3,0.7-0.6,1.2-0.8l0.5-0.1h0.2c0.2,1-0.1,2.3-0.3,3.3c-0.3,1.3-0.7,2.5-1.3,3.7
		c-2.4,5.3-5.8,10-8.7,15c-2.1,3.7-4,7.5-5.1,11.6c0-0.2,0-0.4,0-0.6C51.1,65,52.7,59.5,54.8,54.4z M180.9,53.7
		c-1.7-2.4-3.2-5-4.4-7.8c-0.6-1.3-1.1-2.7-1.4-4.2c-0.1-0.8-0.5-3.2,0.6-3.2c1.2,0,1.9,0.9,2.5,1.5c1.1,1,1.9,2.2,2.8,3.4
		c1.7,2.4,3.1,5,4.2,7.7c1.3,2.9,1.8,6.2,2.4,9.3c0.5,2.5,0.8,5,1,7.5C187,62.8,184.1,58,180.9,53.7L180.9,53.7z"/>
</g>
</svg>
