<?xml version="1.0" encoding="utf-8"?>
<!-- Generator: Adobe Illustrator 27.9.0, SVG Export Plug-In . SVG Version: 6.00 Build 0)  -->
<svg version="1.1" id="Layer_1" xmlns="http://www.w3.org/2000/svg" xmlns:xlink="http://www.w3.org/1999/xlink" x="0px" y="0px"
	 viewBox="0 0 322.5 241.3" style="enable-background:new 0 0 322.5 241.3;" xml:space="preserve">
<g>
	<path style="stroke:#000000;stroke-width:3;stroke-linecap:round;stroke-linejoin:round;stroke-miterlimit:10;" d="M69.3,97.2
		l1.9-2.7c0.2-0.2,0.3-0.4,0.5-0.6l0.3-0.4c0,0,0.1-0.1,0.1-0.2c0.1-0.1,0.7-0.9,1-1.3c1.6-2,3.2-3.9,5-5.7c0.7-0.8,0.6-1.9-0.2-2.6
		c-0.7-0.6-1.7-0.6-2.4,0c-6.5,6.6-11.8,14.3-15.8,22.7c-1.1,2.4-2.2,4.9-3.1,7.4c-0.3,0.9,0.3,2,1.2,2.3c0.7,0.2,1.4,0,1.9-0.5
		c0.4-0.5,0.9-1,1.3-1.5l0.7-0.7l0.4-0.3l0.3-0.2c0.9-0.8,2-1.4,3.1-1.9c-0.1,0.3-0.3,0.6-0.4,0.9c-0.3,0.7-0.6,1.3-0.8,2
		c-2.1,5.6-3.3,11.6-3.5,17.6c-0.1,3.4,0.1,6.8,0.6,10.2c0.1,0.9,1.4,1.6,2.2,1.3c0.8-0.3,1.4-1.2,1.3-2.2c0-0.1,0-0.2,0-0.3
		c0-0.2,0-0.4-0.1-0.6l-0.1-1.2c-0.1-0.8-0.1-1.6-0.2-2.4c-0.1-1.5-0.1-3.1,0-4.6c0.1-1.6,0.2-3.1,0.4-4.6c0-0.2,0-0.4,0.1-0.6v-0.3
		l0.2-1.2c0.1-0.7,0.3-1.5,0.4-2.3c0.7-3,1.5-6,2.7-8.9l0.2-0.5c0.1-0.1,0.1-0.2,0.1-0.3l0.4-1c0.4-0.7,0.6-1.5,0.6-2.3
		c0.1-1-0.4-2-1.2-2.5c-0.9-0.6-2-0.5-3-0.1c-0.8,0.3-1.7,0.7-2.5,1.1c0.9-1.8,1.8-3.6,2.8-5.4C66.8,101.1,68,99,69.3,97.2z"/>
	<path style="stroke:#000000;stroke-width:3;stroke-linecap:round;stroke-linejoin:round;stroke-miterlimit:10;" d="M298.6,114
		c-1.3-1.9-3.3-3.8-3.7-6.2c-0.3-2.4,0.3-4.9,0.4-7.3s-0.6-4.8-1.6-7.1c-4-8.6-12.4-14.4-20.6-18.7c-3-1.6-6.1-3-9.2-4.3l3.5-0.7
		c1.1-0.2,1.7-1.7,1.1-2.7c-6.6-10.4-16.6-17.8-28.2-21.9c-1.9-0.7-3.8-1.3-5.8-1.8c1.6-0.7,3.4-1.2,5.2-1.5c1.4-0.2,1.7-2.2,0.8-3
		c-8.8-8.1-20.1-12.6-32.1-12.3c-1.8,0-3.7,0.2-5.5,0.4c1.7-1.7,3.7-3.2,5.9-4.3c1.5-0.8,0.9-2.8-0.4-3.3c-6.4-2.2-13.3-2-19.8-0.6
		c-6.7,1.5-12.9,4.5-18.3,8.8c-2.2,1.8-4.1,3.8-5.8,6c-3.6-4.6-8.6-8-13.9-10.4c-6.6-2.9-13.8-4.5-21-4.4c-3.8,0-7.5,0.6-11.1,1.8
		c-1.4,0.5-1.9,2.5-0.4,3.3c2.4,1.2,4.6,2.9,6.4,4.8c-10.3-0.4-20.5,1.7-29.7,6.2c-2.8,1.4-5.5,3-8,4.8c-0.6,0.4-1,1.1-0.9,1.8
		c0.1,0.7,0.6,1.4,1.3,1.5c2.1,0.4,4.2,1,6.2,2c-9.7,4.4-18.7,9.9-27.1,16.4c-2.6,2.1-5.2,4.2-7.7,6.5c-1,0.9-0.5,2.8,0.8,3l3.8,0.8
		c-6.6,3.1-12.8,6.9-18.1,11.9c-3.2,3-5.8,6.6-7.9,10.5c-1.1,2.1-2,4.4-2.6,6.8c-0.7,2.5-1.2,5-2.1,7.4c-1.9,4.9-7.4,8.7-6,14.4
		c0.3,1,1.3,1.5,2.3,1.2c0.3-0.1,0.5-0.2,0.7-0.4c1-1.1,2.2-1.9,3.5-2.5c-1.5,5.4-1.5,11.1-0.2,16.6c0.6,2.7,1.5,5.5,1.9,8.3
		c0.4,2.8,0.2,5.2-1.4,7.2c-0.5,0.7-0.7,1.6-0.1,2.4c0.5,0.7,1.6,0.9,2.3,0.5c1.7-1.1,3.2-2.3,4.6-3.6c-1.3,3.8-3.5,7.3-4.7,11.1
		c-1.5,5-1.6,11.3,2.5,15.1c1.3,1.2,3.6,0,3-1.8c-0.4-1.5-0.1-3.1,0.8-4.3c4.7,11.1,6.4,23.2,4.8,35.1c-0.1,0.8,0.7,1.5,1.3,1.7
		c6.6,2.6,13.2-2,18.1-6c4.8-4,9.4-8.3,13.3-13.3c3.9-5,6.9-10.2,8-16.3c0.6-3.3,0.6-6.7,0.1-10.1c-0.5-3.6-1.4-7.2-1.5-10.8
		c-0.2-6.9,2.6-13.5,7.7-18.2c1.4-1.2-0.1-3.4-1.8-3c-6.1,1.5-10.7,5.7-14.6,10.4c0.7-3.2,1.7-6.3,3.3-9.2c2.6-5,6.4-8.9,10.8-12.5
		c2.3-1.9,4.6-3.6,6.8-5.6c2-2,3.9-4.1,5.7-6.3c3.4-4.3,6.9-8.6,11.8-11.3c5.4-3,11.7-4.3,17.7-5.6c0.9-0.3,1.5-1.3,1.3-2.3
		c-0.3-1.1-1.3-1.4-2.3-1.3c-4.1,0.6-8.6-0.8-12.7-1.7c-2.7-0.6-5.5-1.3-8.3-1.5c2.8-1.8,6-2.8,9.2-3.5c5.2-1.2,10.5-1.7,15.5-3
		c1.6-0.4,1.6-2.4,0.6-3.2c-0.1-0.2-0.2-0.4-0.4-0.5c-4.2-4.8-9.5-8.5-15.5-10.6l0.3-0.1l0.5-0.1h0.3c1.3-0.1,2.7-0.2,4-0.2l1.8,0.1
		l1,0.1h0.8c1.3,0.2,2.5,0.4,3.7,0.8l0.8,0.3l0.4,0.1l1.5,0.8c0.9,0.5,1.8,1,2.6,1.6l0.5,0.4c0,0,0.2,0.1,0.3,0.2
		c0.4,0.3,0.7,0.5,1,0.8c0.6,0.5,1.1,1,1.7,1.6l0.3,0.3c0.1,0.3,0.4,0.6,0.7,0.8c1.1,0.6,2.5,0,2.7-1.3c0.1-0.5,0-0.9-0.3-1.3
		c-0.4-0.5-0.8-0.9-1.2-1.3c-1.4-1.4-2.9-2.6-4.6-3.7c-2.1-1.4-4.5-2.5-6.9-3.1c-3-0.7-6.1-0.9-9.3-0.8c-3.4,0.2-6.9,0.9-10.1,2.2
		c-0.7,0.3-1.4,0.9-1.3,1.7c0,0.8,0.5,1.6,1.3,1.8c1.6,0.3,3.1,0.7,4.6,1.1c0.8,0.2,1.5,0.5,2.3,0.8l0.5,0.2h0.1l0.1,0.1l1.1,0.5
		c1.4,0.7,2.8,1.5,4.1,2.3c0.7,0.4,1.3,0.9,2,1.4l0.4,0.3c0,0,0.2,0.1,0.3,0.2l0.9,0.8c0.8,0.7,1.6,1.4,2.3,2.2
		c-9.4,1.9-20.4,2-26.9,9.9c-1.2,1.5,0,3.3,1.8,3c4.1-0.5,8.6,0.8,12.7,1.7l2.2,0.5c-2.1,0.7-4.2,1.5-6.2,2.4
		c-2.6,1.2-5.1,2.8-7.3,4.8c-2.1,2-4,4.1-5.8,6.4c-1.7,2.3-3.6,4.5-5.6,6.6c-2.1,2.2-4.5,4.1-6.9,6c-4.7,3.7-8.9,7.7-11.9,12.9
		c-3.2,5.6-5,12-5.2,18.5c0,1,0.8,1.8,1.9,1.8c0.6,0,1.2-0.3,1.5-0.9c2.8-3.7,5.8-7.7,9.6-10.5c-1.7,3-2.9,6.2-3.3,9.7
		c-0.5,3.4-0.2,6.7,0.3,10.1s1.3,6.9,1.3,10.4c-0.1,12-9.1,21.7-17.5,29.2c-2.6,2.3-5.2,4.6-8.3,6.4c-2.5,1.5-5.2,2.4-8,1.9
		c1.4-12.9-0.8-25.9-6.3-37.6c-0.4-0.9-1.7-1.1-2.5-0.7c-1.5,0.8-2.6,2-3.4,3.4c-0.4-2.7,0.3-5.8,1.2-8.3c2.1-5.6,5.6-10.7,5.5-16.9
		c0-1.9-2.4-2.3-3.4-0.9c-0.9,1.3-2,2.6-3.2,3.7c0.2-3.6-0.7-7.3-1.6-10.7c-0.9-3.5-1.3-6.2-1.2-9.4c0.1-3.4,0.8-6.8,2-9.9
		c0.4-1-0.6-2.4-1.7-2.3c-1.8,0.2-3.5,0.7-5.1,1.5c0.4-0.6,0.8-1.2,1.2-1.8c1.3-1.9,2.7-3.7,3.6-5.8c1.9-4.3,2.3-9.1,4.3-13.4
		c3.6-7.7,10-13.5,17-17.9c4.1-2.5,8.3-4.7,12.8-6.5c0.8-0.3,1.3-0.9,1.3-1.7c0-0.8-0.5-1.5-1.3-1.8l-5.8-1.1
		C71.5,61.5,80,55.7,89,51c2.8-1.5,5.7-2.8,8.6-4.1c1.5-0.6,1.8-2.4,0.4-3.3c-1.9-1.3-3.9-2.4-6.1-3.2c8-4.9,17.1-7.7,26.4-8.2
		c3.3-0.2,6.6-0.1,9.9,0.2c1.3,0.1,2.3-1.6,1.6-2.7c-1.7-2.6-3.9-5-6.5-6.9c4.7-0.9,9.7-0.8,14.4,0.1c6.5,1.2,12.8,3.6,18.1,7.4
		c2.7,2,5,4.4,6.9,7.2c0.3,0.5,0.9,0.9,1.6,0.9c0.7,0,1.3-0.3,1.6-0.9c3.2-5.2,8.2-9,13.6-11.8c5.6-2.9,11.7-4.4,18-4.5
		c1.9,0,3.8,0.1,5.7,0.5c-2.5,1.9-4.7,4.2-6.5,6.9c-0.9,1.4,0.6,3,2.1,2.6c10.7-2.3,21.9-1.1,31.4,4.4c1.7,1,3.4,2.2,5,3.4
		c-2.4,0.7-4.6,1.9-6.7,3.3c-1.2,0.8-1.2,3,0.4,3.3c11.3,2.3,22.1,7,30.3,15.4c1.7,1.7,3.2,3.6,4.6,5.5l-6.7,1.3
		c-0.8,0.1-1.3,1-1.3,1.7s0.6,1.5,1.3,1.8c8.3,3.4,16.8,6.9,23.9,12.4c3.4,2.6,6.5,5.8,8.6,9.5c0.9,1.7,1.9,3.6,2,5.6
		c0.1,2-0.4,4.8-0.4,7.1c0,1.3,0.1,2.6,0.6,3.8c0.6,1.3,1.3,2.5,2.2,3.6c0.8,1.1,1.5,2.1,2.2,3.3c-1.6-0.8-3.3-1.4-5.2-1.6
		c-1.1-0.1-2.1,1.3-1.7,2.3c1,2.6,2.3,5.2,3.4,7.7c1.1,2.6,2,5,2.1,7.6c0.1,5-3.8,9-5.2,13.6c-0.2,0.6-0.3,1.2-0.4,1.9
		c-1.5-1.3-2.8-2.8-4-4.4c-1-1.4-3.3-1-3.4,0.9c-0.1,6.2,3.4,11.2,5.4,16.8c0.9,2.5,1.6,5.6,1.2,8.3c-0.8-1.5-1.9-2.6-3.4-3.4
		c-0.7-0.4-1.6-0.3-2.2,0.3c-5.3,5.2-7.9,12.2-7.9,19.7s2.3,13.9,5.2,20.3c1.1,2.3,2.2,4.4,3.4,6.6c-0.9-0.3-1.7-0.6-2.5-1
		c-2.8-1.4-5.4-3.1-7.9-5c-4.7-3.5-9.3-7.4-13.6-11.3c-6.1-5.5-12.2-11.8-15.2-19.6c-1.3-3.4-2.4-7.6-1.7-11.2s2.9-7.2,2.8-11.1
		c0-1.1-0.3-2.2-0.7-3.2c-0.5-0.9-1.1-1.7-1.7-2.5c-1.5-2-2.8-4.1-4.2-6.1c-1.4-2-2.8-4.2-4.4-6.2c2,0.9,3.8,2,5.7,3
		c3.7,2.3,7.5,5,10.2,8.5c0.5,0.7,1.2,1.1,2.1,0.8c0.8-0.3,1.3-1,1.3-1.8c-0.1-6.2-2.6-11.7-5.2-17.2c-1.3-2.6-2.4-5.3-3.3-8
		c-0.9-2.7-2.4-5.3-4.2-7.5c-3.5-4.3-8-7.6-12.4-10.7c-2.5-1.9-5.2-3.6-7.8-5.4c-2.6-1.8-4.9-3.5-7.6-4.9c-2.7-1.3-5.7-2.3-8.6-3.2
		c3.9,0.4,7.7,1.6,11.1,3.5c0.9,0.5,2,0.2,2.5-0.7c0.3-0.5,0.3-1.2,0-1.8c-2.3-4.2-5.7-7.8-9.5-10.8c-4.1-3.3-8.8-5.8-13.8-7.4
		c-1.6-0.5-3.3-0.9-4.9-1.2c0.3-0.3,0.7-0.6,1-0.9L192,70l0.5-0.4l0.3-0.3l1.8-1.3c1.3-0.9,2.7-1.7,4.1-2.4l1.1-0.5l0.4-0.2l0.3-0.1
		h0.1c0.7-0.3,1.4-0.6,2.2-0.8c1.7-0.6,3.4-1,5.2-1.3c0.8-0.2,1.4-0.9,1.3-1.7c0-0.9-0.5-1.4-1.3-1.7l-0.2-0.1l-0.3-0.1l-0.9-0.4
		l-1.7-0.8c-1.3-0.6-2.5-1.2-3.8-1.8c-2.5-1.2-5.3-2.3-8.1-2.4c-1.6-0.1-3.3,0.3-4.8,0.5c-1.5,0.3-3,0.7-4.4,1.3
		c-2.5,1.1-4.7,2.8-6.8,4.6c-1.2,1-2.3,2-3.4,3l-1.7,1.5l-0.4,0.3c0,0.1-0.1,0.1-0.1,0.1l-1,0.7c-0.8,0.5-1.2,1.6-0.7,2.5
		s1.7,1.2,2.5,0.7c2.2-1.6,4.2-3.4,6.2-5.3l1.5-1.3l0.7-0.6l0.4-0.3l0.1-0.1l0.1-0.1l0.3-0.2l0.3-0.3l0.8-0.6c0.5-0.4,1.1-0.7,1.6-1
		l0.8-0.4l0.1-0.1l0.4-0.2l2-0.5c0.8-0.2,1.6-0.3,2.4-0.4l0.6-0.1h0.3l1.2-0.1h1.4c0.6,0.1,1.2,0.2,1.7,0.4c0.6,0.2,1.2,0.4,1.9,0.6
		l0.9,0.3l0.2,0.1l0.4,0.2l3.3,1.6c-4.8,1.6-9.1,4-13,7.3c-1.4,1.2-2.7,2.5-4,3.9c-0.6,0.7-0.7,1.9,0,2.6c0.1,0.1,0.2,0.1,0.3,0.2
		c0.3,0.3,0.8,0.5,1.3,0.5c5.9,0.4,11.7,2.8,16.6,5.9c3.1,1.9,5.9,4.3,8.3,7c-2.1-0.7-4.4-1.2-6.6-1.4c-3.6-0.4-7.3,0-10.9,0.4
		c-2.1,0.3-2.4,2.8-0.5,3.6c5.2,2.1,10.7,2.9,15.9,5c2.7,1.1,5.1,2.7,7.5,4.4l7.3,5c4.3,3,8.7,6.1,12.4,9.9c1.9,1.9,3.4,4,4.5,6.4
		c0.5,1.2,0.9,2.5,1.4,3.7c0.5,1.2,1.1,2.7,1.7,4.1c1.9,4.1,4,8.3,5.1,12.7c-2.2-1.9-4.6-3.7-7.1-5.2c-4.1-2.5-8.7-4.8-13.4-6
		c-1.7-0.4-3.2,1.8-1.8,3c3.2,2.9,5.7,6.5,8.1,10c1.3,1.9,2.5,3.8,3.8,5.6s2.5,2.9,2.8,4.5c0.3,1.6-0.4,3.6-0.9,5.2
		c-0.5,1.6-1.3,3.7-1.7,5.7c-0.8,4.1,0,8.5,1.3,12.3c2.9,8.2,8.8,15,15.1,20.8c4.6,4.3,9.5,8.4,14.6,12.2c2.9,2.2,5.8,4.3,9.1,5.9
		c2.4,1.1,5.5,2.5,8.1,1.5c1-0.4,1.8-1.6,1.1-2.7c-3.4-5.1-6.1-10.7-7.9-16.6c-1.9-6.1-2.8-12.7-0.9-18.9c0.9-3.1,2.5-6,4.7-8.3
		c1.3,1.2,1.8,3.1,1.3,4.8c-0.5,1.8,1.7,3,3,1.8c4.1-3.9,4-10.1,2.5-15.1c-1.2-3.8-3.3-7.3-4.7-11.1c1.5,1.3,3,2.5,4.6,3.6
		c0.8,0.4,1.8,0.3,2.4-0.5c0.6-0.8,0.4-1.6-0.1-2.4c-1.2-1.5-0.7-3.3-0.1-5c0.6-1.7,2.1-4.2,3.1-6.4c1-2.1,2-4.8,1.9-7.4
		s-0.9-5.4-1.9-7.9c-0.7-1.7-1.5-3.4-2.3-5.2c1.2,0.6,2.2,1.4,3.1,2.3c0.7,0.7,1.9,0.7,2.6-0.1c0.2-0.2,0.4-0.5,0.4-0.7
		C301,118.8,300.1,116.3,298.6,114z"/>
	<path style="stroke:#000000;stroke-width:3;stroke-linecap:round;stroke-linejoin:round;stroke-miterlimit:10;" d="M263.9,111.5
		l0.4,0.3l0.3,0.3l0.8,0.7c0.6,0.5,1.1,1.1,1.6,1.7c0.6,0.6,1.5,0.7,2.2,0.3c0.7-0.4,1.1-1.3,0.8-2.1c-3.3-8.8-7.9-17-13.8-24.3
		c-1.6-2-3.3-4-5.1-5.8c-0.7-0.7-1.9-0.7-2.6,0c-0.7,0.7-0.7,1.9,0,2.6c1.6,1.6,3.1,3.3,4.5,5.1l1,1.2l0.5,0.6v0.1h0.1l0.3,0.4
		c0.7,0.9,1.3,1.8,2,2.7c2.5,3.7,4.8,7.6,6.8,11.6c0,0.1,0,0.1,0.1,0.2l-1.2-0.6c-0.8-0.4-1.7-0.8-2.6-0.8c-1.2-0.1-2.3,0.7-2.7,1.8
		c-0.6,1.5,0.3,3.1,0.9,4.4l0.1,0.2c0.1,0.2,0.1,0.4,0.2,0.5c0.2,0.4,0.3,0.8,0.4,1.2c0.3,0.7,0.5,1.5,0.8,2.2
		c0.5,1.5,0.9,3,1.2,4.5c0.4,1.5,0.6,3,0.9,4.6c0,0.1,0,0.3,0,0.4c0,0.1,0,0.3,0,0.4s0.1,0.8,0.1,1.2c0,0.4,0.1,1.6,0.2,2.4
		c0.1,1.7,0.1,3.4,0,5.2c0,0.9-0.1,1.7-0.1,2.6s-0.1,0.9-0.1,1.3s0,0.4-0.1,0.6c0,0,0,0.1,0,0.1c0,0,0,0.3,0,0.3
		c-0.1,0.5,0,0.9,0.2,1.4c0.3,0.4,0.7,0.7,1.1,0.8c0.9,0.2,2.1-0.3,2.3-1.3c0.9-6.1,0.7-12.2-0.3-18.2c-0.5-2.9-1.3-5.7-2.2-8.5
		c-0.5-1.4-1-2.7-1.6-4c0.3,0.1,0.5,0.3,0.8,0.4C262.7,110.6,263.3,111,263.9,111.5z M259.8,109.3L259.8,109.3
		C259.8,109.3,259.8,109.3,259.8,109.3z M260.8,108.6c0-0.1,0-0.1,0-0.1C260.8,108.5,260.8,108.5,260.8,108.6L260.8,108.6z"/>
</g>
</svg>
