<?xml version="1.0" encoding="utf-8"?>
<!-- Generator: Adobe Illustrator 27.9.0, SVG Export Plug-In . SVG Version: 6.00 Build 0)  -->
<svg version="1.1" id="Layer_1" xmlns="http://www.w3.org/2000/svg" xmlns:xlink="http://www.w3.org/1999/xlink" x="0px" y="0px"
	 viewBox="0 0 258.8 181.8" style="enable-background:new 0 0 258.8 181.8;" xml:space="preserve">
<path style="stroke:#000000;stroke-width:3;stroke-linecap:round;stroke-linejoin:round;stroke-miterlimit:10;" d="M246.4,94.3
	c-2.9-8.3-7.7-15.9-9.7-24.5c-0.9-4.1-1-8.3-3.2-11.9c-1.9-3.1-4.7-5.4-6.9-8.2c-1.1-1.3-2-2.7-2.6-4.3c-0.6-1.7-0.9-3.4-1.3-5.1
	c-0.8-3.4-2.3-6.8-5.7-8.4s-7-1.2-10.5-2c-3.5-0.8-6-3.4-8.2-6.3c-2.1-2.9-4.3-6-7-8.5c-2.8-2.5-6.1-4.5-9.6-5.8
	c-3.5-1.3-7.3-1.8-11-1.4c-2.3,0.2-4.5,0.8-6.8,1.1c-4.7,0.7-9.9,1.1-14.9,1.5c-6,0.4-12.1,0.7-18.1,0.8c-6.1,0.2-12,0.2-18,0.1
	c-4.9-0.1-9.8-0.3-14.6-0.8l-1.4-0.2h-0.3l-0.7-0.1l-2.1-0.4l-0.3-0.1h-0.1C85.3,8.9,77,12.1,70.7,17c-3,2.3-5.7,5.1-7.7,8.4
	c-1.8,2.8-3.3,6.4-6.3,8.1c-3,1.7-7,1-10.4,1.4c-1.7,0.2-3.5,0.6-5,1.7c-1.5,1.1-3,2.9-4.2,4.6c-1.2,1.8-2.2,3.7-3.1,5.7
	c-0.8,1.8-1.6,3.6-2.9,5.2c-2.3,2.9-5.2,5.5-6.3,9.2c-1,3.2-1,6.7-1.4,10.1c-0.4,3.3-2.3,6.9-4.3,10s-4.7,6.4-6.3,10.1
	c-1.8,4.1-2.4,8.6-2.3,13c0.1,4,0.5,8.2,1.6,12c0.9,2.9,2.3,5.8,3.7,8.5c3.1,5.6,6.8,10.9,10.7,15.9c1,1.3,2,2.7,3.2,3.9
	c1.1,1.2,2.1,2.6,2.7,4.2c0.6,1.5,0.9,3,1.3,4.5c0.8,3.3,2,6.5,3.7,9.5c0.7,1.4,1.6,2.8,2.5,4.2c0.8,1.1,1.9,2,3.1,2.6
	c1.5,0.8,3.2,1.4,4.8,1.9c0.8,0.2,1.6,0.4,2.3,0.5c0.9,0,1.9,0,2.8-0.2c3.5-0.5,6.6-1.7,9.6-3.3c1.6-0.9,3.1-1.7,4.7-2.5
	c1.6-0.8,3.5-1.6,5.2-2.5c3.3-1.7,6.4-3.8,8.9-6.5c2.5-2.7,4.1-6.1,4.7-9.7c0.7-4.6,0.5-9.3-0.5-13.9c-1.9-9.2-6.6-17.5-11.5-25.4
	c-1.4-2.2-2.8-4.4-4.2-6.6L70,101c-1.1-1.8-2.3-3.7-3.4-5.5c-1.8-3.1-3.6-6.2-4.7-9.6c-2-6.1-2.8-12.6-3.4-19
	c-0.5-5.7-0.7-11.4-1.1-17c-0.1-1.6-0.2-3.4-0.7-5c-0.8-2.3-3.8-3.9-5.9-2.4c-1.4,1-2.2,2.7-2.5,4.4c-0.4,2.3-0.7,4.6-0.9,6.9
	c-0.4,4.7-0.3,9.4,0.5,14c1.6,9.1,6.3,17,11.8,24.3c2.6,3.5,5.4,6.9,8.1,10.3l0,0c4.1,6.5,8.4,12.9,11.6,19.9
	c1.9,4.1,3.3,8.4,4.1,12.8c0.7,4.2,0.9,8.7-0.1,12.9c-1.7,7-8,11.1-14.1,14c-1.7,0.8-3.4,1.5-5,2.4c-1.6,0.9-2.7,1.6-4.2,2.3
	c-1.3,0.7-2.7,1.2-4.1,1.6c-1.7,0.5-3.6,1-5.3,0.9c-1.3-0.1-2.9-0.6-4.2-1.1c-0.7-0.3-1.4-0.6-2.1-1c-0.5-0.2-1-0.6-1.4-0.9
	c-0.9-0.8-1.6-2.1-2.2-3.3s-1.4-2.6-2.1-3.9c-1.5-3-2-6.3-2.9-9.5c-0.5-1.7-1.2-3.2-2.2-4.7c-0.7-1-1.4-1.8-2.2-2.7
	c-3.1-3.7-6-7.6-8.7-11.7c-1.8-2.7-3.5-5.5-5-8.4c-1.3-2.5-2.5-5.1-3.1-7.8c-1.8-7.8-2-16.8,2-24c1.9-3.4,4.4-6.4,6.4-9.8
	c1-1.6,1.8-3.3,2.4-5.1c0.5-1.6,0.9-3.2,1-4.9c0.2-1.7,0.3-3.3,0.5-5c0.2-1.7,0.4-3.1,0.9-4.2c1.4-3.5,4.4-5.8,6.4-8.8
	c1.1-1.7,1.9-3.5,2.7-5.4c0.9-1.9,1.9-3.7,3.1-5.3c1-1.4,2.3-3,3.9-3.6c1.6-0.7,3.1-0.7,4.7-0.8c3.5-0.2,7.3,0,10.2-2
	c3-2.1,4.5-5.3,6.4-8.2C69,20.7,75.4,16,82.5,13.7c3.4-1.1,7-1.6,10.6-1.2c3.7,0.8,7.6,1.1,11.3,1.3c5.4,0.3,10.9,0.4,16.4,0.4
	c11.7,0,23.4-0.4,35-1.5c4.3-0.4,8.6-1,12.8-1.8c7-1.4,14.2,0.8,19.7,5.3c2.9,2.3,5,5.2,7.1,8.1s4.5,5.9,7.9,7.3s7,1.1,10.5,2
	c1.5,0.4,3,1,4,2.2c1,1.2,1.6,2.8,2,4.4c0.9,3.4,1.4,6.7,3.5,9.7c2.1,2.9,4.7,5.1,6.8,7.9c1.1,1.5,2,3.2,2.5,5
	c0.5,2,0.8,4.1,1.1,6.1c0.8,4.3,2.3,8.3,4,12.3c3.4,7.8,7.9,15.7,8.1,24.5c0.1,3.8-0.7,8.1-3.3,11c-1.4,1.6-3.1,2.8-4.7,4.2
	c-1.4,1.3-2.6,2.8-3.7,4.4c-4.7,6.7-6.6,14.8-8.8,22.5c-1.2,4.1-2.4,8.3-4.3,12.2c-0.8,1.7-1.8,3.5-3.3,4.7
	c-1.5,1.2-3.3,1.8-5.2,2.2c-7.5,1.9-15.7,0.6-22.4-3.3c-6.3-3.8-10.9-9.8-13.1-16.8c-5.2-16.8,5.5-33.1,14.1-46.6
	c1-1.5,1.9-3,2.9-4.6c10.1-13.7,19-29.4,18.1-46.9c-0.1-2.4-0.2-5-1.2-7.2c-0.8-1.8-2.5-3.5-4.6-2.8c-0.5,0.2-1,0.7-1,1.3
	c1.4,17.3-2.5,34.7-11,49.8c-0.8,1.4-1.6,2.8-2.5,4.2l-2.5,3.3c-0.2,0.3-0.2,0.6-0.1,1c-7.7,12.1-15.9,24.4-16.1,39.1
	c-0.1,7.9,2.6,15.5,7.6,21.6c5.1,6,12.2,10,20,11.1c4.1,0.6,8.2,0.5,12.2-0.5c2-0.5,3.9-1.1,5.7-2.2c1.7-1.1,3.1-2.8,4.1-4.6
	c4.2-7.6,5.6-16.4,8.3-24.6c1.3-3.8,2.8-7.4,5-10.7c1-1.6,2.2-3,3.5-4.3c1.5-1.5,3.2-2.7,4.6-4.2C250.3,112.5,249,102.1,246.4,94.3z
	 M53.9,45.5C54,45.6,54.1,45.8,53.9,45.5z M50,53.8c0.2-2.1,0.5-4.2,0.9-6.3c0.2-0.9,0.7-2.8,1.9-2.8h0.1l0.3,0.2l0.8,0.5l0.1,0.1
	c0,0,0,0,0,0l0,0c0.2,0.5,0.3,1.1,0.4,1.6l0.1,0.5l0,0c0,0.1,0,0.2,0.1,0.3c0,0.1,0.1,0.9,0.1,1.4c0.1,1.1,0.2,2.2,0.2,3.3
	c0.2,2.7,0.3,5.4,0.5,8.2c0.4,6.3,1,12.7,2.2,19c0.5,2.5,1.1,5,2,7.4c-1.8-2.5-3.4-5.1-4.9-7.9C50.4,71.5,49.2,62.7,50,53.8L50,53.8
	z M208.3,52.2c0.2-3.4,0.2-6.9,0-10.3c0.3,0.6,0.5,1.3,0.7,2c0.4,2,0.6,4.1,0.6,6.2c0.1,4.2-0.4,8.4-1.4,12.4
	c-0.9,3.7-2.1,7.4-3.7,10.9C206.5,66.5,207.8,59.4,208.3,52.2L208.3,52.2z"/>
</svg>
