<?xml version="1.0" encoding="utf-8"?>
<!-- Generator: Adobe Illustrator 27.9.0, SVG Export Plug-In . SVG Version: 6.00 Build 0)  -->
<svg version="1.1" id="Layer_1" xmlns="http://www.w3.org/2000/svg" xmlns:xlink="http://www.w3.org/1999/xlink" x="0px" y="0px"
	 viewBox="0 0 354.7 233.7" style="enable-background:new 0 0 354.7 233.7;" xml:space="preserve">
<g>
	<path style="stroke:#000000;stroke-width:3;stroke-linecap:round;stroke-linejoin:round;stroke-miterlimit:10;" d="M337,124
		c-0.9-3.2-1.9-6.3-3.2-9.4c-2.4-5.8-6.3-10.8-9.7-16c-0.9-1.4-2-2.7-3-4.1c-3.7-4.7-7.6-9.3-11.5-13.9
		c-5.1-6.1-10.2-12.2-15.3-18.2l-13-15.3l-3.7-4.3c-1.9-2.2-3.8-4.4-6.2-6.2c-2.4-1.8-5.3-3-8.4-3.4c-3.1-0.4-6.3-0.3-9.4-0.7
		c-3-0.3-5.9-1.1-8.7-2.4c-2.8-1.2-5.5-2.6-8.3-3.9c-3-1.4-6.1-2.6-9.2-3.5c-6.4-1.8-13.1-2.6-19.6-3.9s-12.8-2.7-19.4-3.4
		c-3.3-0.3-6.6-0.4-9.9-0.2c-9.8-0.1-19.7,1.4-29.4,3c-4.9,0.8-9.7,1.6-14.6,2.4c-4.9,0.9-10.3,2.2-15.1,4.2c-4.8,2-9,4.4-13.7,6.1
		c-2.2,0.8-4.5,1.3-6.9,1.5c-2.4,0.2-4.9,0.2-7.3,0.4c-2.4,0.2-5.1,0.8-7.5,2c-2.3,1.2-3.8,2.7-5.5,4.3c-1.6,1.7-3.2,3.6-4.8,5.4
		c-1.6,1.8-3.5,3.7-5.4,5.6c-3.7,3.7-7.7,7.2-11.8,10.5c-3.9,3.1-8.1,5.8-11.3,9.6s-5.4,8.4-7.6,12.8c-2.3,4.7-4.8,9.2-7.7,13.6
		c-2.8,4.2-5.8,8.3-8.3,12.6c-2.6,4.4-4.3,9.3-5.1,14.3c-0.4,2.8-0.7,5.6-0.9,8.4c-0.2,2.8-0.4,5.5,0,8.2c0.8,4.9,3.6,9.2,6.6,13.1
		c9.1,11.6,20.2,21.5,32.8,29.2c3.6,2.2,7.4,4.2,10.6,7c1.5,1.3,2.8,2.8,3.8,4.4l0.1,0.1c0,0.2,0,0.4,0,0.6c-0.3,4-1,8-2,11.9
		c-0.5,2-1.2,4-1.5,5.9s0,4,1.8,5.2c3.1,2.2,6.9,0.4,9.1-2.2c2.2-2.7,4-5.8,5.1-9.1c2.4-6.4,3.2-13.4,4.2-20.2
		c0.5-3.4,1-6.9,1.8-10.3c0.9-3.6,2.1-7.2,3.5-10.6c2.7-7,5.9-13.9,7.2-21.4c1.4-8,0.1-16-1.3-23.9c-0.7-3.9-1.2-7.8-1.5-11.7
		c-0.2-3.8,0-7.7,0.7-11.5c1.4-7.7,4.4-15,7.7-22c3.4-7,7.2-14.2,7.9-22.1c0.2-1.9,0.2-3.8-0.1-5.7c-0.1-0.9-0.7-1.7-1.7-1.7
		s-1.9,0.8-1.7,1.7c1,7.5-2,14.7-5.1,21.3c-3.2,6.6-6.7,13.9-8.9,21.2c-1.1,3.7-1.9,7.5-2.2,11.3c-0.3,3.9-0.2,7.8,0.3,11.7
		c0.9,7.7,2.9,15.3,3.1,23.1c0.2,14.8-8.9,27.5-11.8,41.7c-1.3,6.6-1.9,13.4-3.2,20.1c-0.6,3.2-1.5,6.3-2.8,9.3
		c-0.7,1.5-1.4,2.9-2.3,4.3c-0.8,1.3-1.8,2.8-3.1,3.6c-1.3,0.9-2.1,0.9-3,0.2c-0.3-0.3-0.5-0.7-0.3-1.1c0.1-1,0.5-2,0.7-2.9
		c1-3.9,2-7.8,2.5-11.8c1.1-7.7,0.6-15.6-1.6-23.2c-0.5-1.8-1.1-3.6-1.8-5.3c-0.3-0.9-1.2-1.5-2.2-1.2c-1,0.3-1.6,1.3-1.2,2.2
		c2.2,5.4,3.4,11.1,3.8,16.9c-4.8-5-11.7-8-17.4-11.8c-8-5.5-15.3-11.8-21.8-19c-3.2-3.5-6.4-7.2-8.9-11.4c-1.2-2-2-4.2-2.4-6.5
		c-0.4-2.6-0.1-5.3,0.1-7.9c0.4-5.1,0.9-10.2,2.8-15c1.9-4.8,4.5-8.6,7.3-12.5c2.7-4,5.7-8.5,8.2-13c2.5-4.5,4.4-9,6.9-13.3
		c1.1-2,2.4-3.8,3.8-5.6c1.7-1.8,3.5-3.5,5.5-4.9c4-3.1,8-6.2,11.8-9.6c3.8-3.5,7.5-7.1,11-11c2.9-3.3,5.7-7.3,9.9-9.2
		c4.1-1.9,9.4-1.3,14-1.9c4.6-0.6,9.5-2.6,14-4.8c4.5-2.2,9-4.1,13.9-5.4c4.9-1.3,9.9-2.1,15-2.9c9.5-1.6,19-3.3,28.7-3.8
		c2.2-0.1,4.3-0.2,6.5-0.2h0.5c6.4-0.4,12.8,0.4,19.1,1.6c3.1,0.6,6.3,1.3,9.5,1.9s6.5,1.2,9.8,1.7c6.4,1.2,12.6,2.8,18.4,5.5
		c5.9,2.8,11.1,5.6,17.3,6.3c6.2,0.7,12-0.3,16.9,3.7c2.7,2.2,4.8,5,7.1,7.6c3.8,4.4,7.6,8.9,11.4,13.3c5,6,10.1,12,15.1,18
		c4.3,5.1,8.6,10.3,12.9,15.5l2.2,2.7l0.9,1.2c0.1,0.1,0.2,0.3,0.3,0.5l0.1,0.1c2.2,2.9,4.2,6,6.2,9.1c1.7,2.5,3.2,5.2,4.5,8
		c1.3,2.9,2.1,6,3,9s2,6.4,1.6,9.5c-0.2,1.5-0.7,3-1,4.5c-0.3,1.5-0.6,3-1.1,4.4c-1,2.8-2.7,5.3-4.4,7.6c-1.7,2.2-3.6,4.3-5.8,6.1
		c-4.1,3.5-9.1,6-13.9,8.4c-4.8,2.4-10.1,4.8-14.3,8.3c-4.2,3.5-7.3,8.2-10.2,12.7c-0.6,0.8-1.1,1.7-1.6,2.6
		c-0.2-2.3-0.2-4.7-0.1-7.1c0-1.4,0.2-2.8,0.5-4.1c0.1-0.6,0.3-1.2,0.5-1.8c0-0.1,0.1-0.2,0.1-0.3c0-0.1,0-0.1,0.1-0.2
		c0.1-0.3,0.3-0.6,0.5-0.9c0-0.1,0.1-0.2,0.1-0.2v-0.1h0.1l0.6-0.6l0.1-0.1l0.2-0.2c0.1-0.1,0.8-0.4,0.5-0.3
		c0.9-0.3,1.5-1.2,1.2-2.1s-1.3-1.6-2.1-1.2c-5.6,2.3-6.1,9.4-6,14.6c0,3.1,0.3,6.3,0.7,9.4c0.4,3.8,0.9,7.7,1.7,11.5
		c0.5,2.3,1.1,4.6,1.7,6.9c0.2,0.8,0.7,1.9,0.4,2.8c-0.3,0.9-0.6,0.7-1.1,0.8c-0.5,0.1-1.1,0-1.6-0.2c-0.8-0.4-1.5-1-2.1-1.7
		c-1.2-1.4-2.2-3-3-4.7c-3.5-6.9-4.3-14.8-5.4-22.3c-0.6-3.9-1.1-7.8-2.1-11.6c-0.9-3.8-2.4-6.7-4.2-9.7
		c-3.7-6.3-8.5-11.9-11.3-18.6c-1.3-3.1-1.9-6.3-1.6-9.7c0.3-3.4,1.7-7.2,3-10.6c2.9-7,6.6-14,6.4-21.7c-0.2-9.1-3-17.8-6.6-26.1
		c-1.5-3.5-3.5-6.9-4.6-10.6c-0.2-0.7-0.3-1.3-0.5-2c0-0.1,0-0.2-0.1-0.3c0-0.1,0-0.2,0-0.3c0-0.4,0-0.7,0-1.1
		c0-1.4,0.1-2.8,0.3-4.1c0.2-1.6,0.5-3.5,0.7-5.2c0.1-0.9-0.2-1.9-1.2-2.2s-2,0.3-2.1,1.2c-0.5,3.4-1.3,6.9-1.2,10.3
		c0.1,3.5,1.1,6.3,2.4,9.2c1.9,4.1,3.8,8.2,5.4,12.4c1.6,4.2,2.7,8.5,3.4,12.9c0.6,4,0.8,8-0.1,11.9c-0.9,3.9-2.4,7.2-3.9,10.6
		c-3,7-6.3,14.4-4.5,22.3c1.6,7.2,6.4,13.4,10.4,19.4c2,3,3.9,6,5.2,9.3c1.3,3.3,2,7.3,2.6,11.1c1.2,7.8,1.8,15.9,4.6,23.3
		c1.4,3.6,3.3,7.5,6.1,10.2c1.5,1.4,3.4,2.4,5.5,2.2c2.1-0.2,3.9-1.4,4.5-3.4c0.3-1.2,0.1-2.4-0.1-3.6c-0.3-1.2-0.7-2.4-1-3.6
		c-0.6-2.2-1.1-4.4-1.5-6.7c-0.4-2.3-0.8-4.8-1-7.2c0.1-0.1,0.2-0.2,0.2-0.3c2.8-4.5,5.5-9.1,8.9-13.2c1.5-2,3.3-3.9,5.3-5.5
		c2.2-1.7,4.7-3,7.1-4.3c4.9-2.6,10.1-4.8,14.8-7.8c2.4-1.4,4.6-3.1,6.7-5c2.2-2.1,4.2-4.4,5.9-6.9c1.9-2.4,3.3-5.1,4.3-8
		c0.5-1.5,0.7-3.1,1.1-4.6c0.5-1.6,0.8-3.2,1-4.9C339,130.7,338,127.1,337,124z"/>
</g>
</svg>
