<?xml version="1.0" encoding="utf-8"?>
<!-- Generator: Adobe Illustrator 27.9.0, SVG Export Plug-In . SVG Version: 6.00 Build 0)  -->
<svg version="1.1" id="Layer_1" xmlns="http://www.w3.org/2000/svg" xmlns:xlink="http://www.w3.org/1999/xlink" x="0px" y="0px"
	 viewBox="0 0 280 231" style="enable-background:new 0 0 280 231;" xml:space="preserve">
<g>
	<path style="stroke:#000000;stroke-width:3;stroke-linecap:round;stroke-linejoin:round;stroke-miterlimit:10;" d="M261.1,105.9
		c-2.3-6.6-6.2-12.6-11.3-17.3c-4.4-4.1-9.6-7.5-13.8-11.9c-1.8-1.8-3.2-3.8-4.4-6l3.6,0.3c1.5,0.1,1.9-1.7,1.1-2.7
		c-4.6-5.8-4.6-13.8-7.5-20.4c-1.8-4.2-5-8.5-9.3-10.3c1.8-0.7,3.7-1.1,5.6-1.5c1.3-0.2,1.6-2.3,0.4-2.9c-4.8-2.2-9.9-3.5-15.2-3.7
		c-2.7-0.1-5.4,0.1-8,0.6c-2.7,0.5-5.4,1.4-8.1,1.7c-5.3,0.6-10.2-2.1-15-3.9c-4.8-1.8-9.2-3.2-13.9-4.5c-9.6-2.7-19.6-4.5-29.6-4.7
		c-4.9-0.1-9.8,0.3-14.6,1.1c-4.8,0.9-9.4,2.4-13.8,4.3c-2.7,1.2-5.6,2.2-8.6,2.1c-3-0.2-5.8-1.4-8.5-2.4
		c-4.9-1.9-10.8-3.4-15.5-0.3c-0.7,0.4-0.9,1.4-0.5,2.1c0.1,0.2,0.2,0.3,0.4,0.4c-5.2,2.7-10,6-14.4,9.9c-0.8,0.8-0.4,2.4,0.7,2.6
		l1.1,0.2c-3.9,4.8-7.3,9.9-10.4,15.3c-0.5,0.9,0.2,2.2,1.1,2.4c-0.1,0.2-0.2,0.4-0.3,0.6c-0.2,0.4-0.4,0.8-0.6,1.2l-1.5,2.7
		c-1,1.8-1.9,3.5-3,5.2c-0.9,1.7-2.2,3.2-3.6,4.5c-1.5,1.3-3.2,2.4-4.8,3.6c-6.1,4.2-10.9,9.8-14,16.5c-0.6,1.4,0.7,3,2.1,2.1
		c0.4-0.2,0.8-0.4,1.2-0.4c-3.1,9.6-4.9,19.6-5.4,29.7c-0.1,1.3,1.4,1.9,2.4,1.4l2.2-1.1c-1,6.9-1.1,13.9-0.1,20.8
		c0.1,1,1.5,1.4,2.3,0.9c0.6-0.4,1.2-0.7,1.8-0.9c-0.6,6.4-0.9,12.9,0.7,19.1c0.8,3.1,2.2,6.1,3.2,9.1c1,3.1,1.6,6.1,0,8.9
		c-0.8,1.5,1.2,3.2,2.5,1.9c0.7-0.8,1.3-1.6,1.9-2.4c-0.4,4-1.5,7.9-3.2,11.6c-0.4,0.8-0.1,1.8,0.7,2.2c0.3,0.2,0.7,0.3,1.1,0.2
		c0.9-0.2,1.6-0.6,2.4-1c-0.1,5.6,1.4,11.1,4.2,15.9c0.6,1.1,2.6,1,2.9-0.4c0.5-2.2,1.2-4.4,2.1-6.5c1.6,4.7,4.7,8.7,8.8,11.4
		c0.8,0.5,2.1,0,2.3-0.9c0.6-3,2.1-5.8,3.8-8.4c-0.1,0.3-0.2,0.7-0.3,1c-0.3,1.5,1.5,2.6,2.6,1.5c3.5-3.2,6.6-6.8,9.4-10.8
		c0.8,0.7,1.8,1.1,2.8,1.2c2.7,0.1,4.8-2,6.4-3.9c7.2-8.2,10.8-19,10.1-29.9c-0.4-6.1-2.6-11.8-3.8-17.7c-1.3-6.9-0.9-14.1,1.4-20.8
		c0.5-1.5-1.6-2.7-2.6-1.5c-1,1.2-2.4,3-3.4,4.5c1.4-4.1,2.5-8.4,2.5-12.8c0-6.2-1.7-12.3-1.9-18.5s0.9-11.6,2.7-17.2
		c2.1-6.4,5.2-12.5,8.6-18.3c1-1.7-1.7-3.3-2.7-1.6c-6,10.3-11.2,21.7-11.7,33.8c-0.3,6.3,1.3,12.5,1.7,18.8
		c0.3,3.1,0.1,6.2-0.5,9.2c-0.6,2.7-1.4,5.3-2.4,7.9c-2.2,6-4.8,12-5,18.4c-0.1,1.8,2.6,2.1,3.1,0.4c1.5-5.8,3.8-11.3,7-16.3
		c-0.4,3-0.6,6-0.4,9.1c0.3,5.6,2,10.8,3.3,16.1c2.3,9.6,1.1,19.6-3.7,28.2c-1.3,2.4-2.9,4.6-4.7,6.7c-0.8,0.9-1.7,2-2.9,2.4
		c-0.7,0.3-2.1,0-1.8-1c0.6-1.7-2-2.7-2.9-1.2c-0.9,1.5-2.4,3.5-3.7,5.2c0.3-0.6,0.7-1.2,1-1.9c1.8-3.8,2.7-8,0.9-11.9
		c-0.7-1.4-3.1-0.8-3,0.8c0.5,5.2-2.4,9.7-5.4,13.7c-2.9,4.1-5.5,7.5-7,11.8c-3.6-3-5.9-7.2-6.6-11.8c-0.2-1.5-2.1-2.3-2.9-0.8
		c-1.3,2.2-2.4,4.5-3.2,6.9c-2-4.9-2.5-10.2-1.5-15.3c0.2-0.9-0.4-1.7-1.3-1.9c-0.5-0.1-1,0-1.4,0.3c1.5-5.3,1.8-10.8,0.9-16.2
		c-0.3-1.8-3-1.3-3.1,0.4c0,0.9-0.1,1.8-0.3,2.6c-0.7-3.5-2.3-7-3.4-10.3c-2.2-7.1-1.5-14.6-0.9-21.9c0.1-0.8-0.8-1.6-1.6-1.6
		c-1,0.1-2.1,0.3-3,0.6c-0.7-6.8-0.4-13.7,0.9-20.3c0.2-0.9-0.3-1.7-1.2-2c-0.4-0.1-0.8,0-1.2,0.2l-2.6,1.3c0.7-9.6,2.6-19,5.7-28
		c0.3-0.8-0.3-1.7-1.1-1.9c-0.5-0.2-1.1-0.3-1.6-0.3c2.8-4.8,6.5-9,11.1-12.1c2.9-2.1,5.7-3.9,7.9-6.7c2.2-2.8,3.9-6.3,5.7-9.6
		c0.9-1.6,2.6-3.7,2.1-5.7c-0.1-0.5-0.4-0.9-0.7-1.2c3.1-5.3,6.7-10.4,10.7-15.1c0.7-0.8,0.6-2.4-0.7-2.6l-0.5-0.1
		c4.2-3.4,8.8-6.2,13.7-8.5c0.8-0.3,1-1.5,0.6-2.1l-0.2-0.3c3.5-0.8,7.3,0.6,10.6,1.9c2.4,0.9,4.8,1.8,7.3,2.2
		c2.6,0.4,5.2,0.2,7.7-0.6c2.4-0.8,4.7-1.9,7.1-2.8c2.1-0.9,4.4-1.5,6.6-2.1c4.6-1.1,9.4-1.7,14.2-1.8c9.8-0.2,19.6,1.3,29.1,3.8
		c4.7,1.2,9.3,2.6,13.8,4.2c2.1,0.8,4.3,1.6,6.4,2.4c2.1,0.9,5,2.1,7.7,2.5c6.1,1.1,11.8-1.7,17.8-2c4.2-0.2,8.4,0.3,12.4,1.5
		c-2.1,0.7-4,1.6-5.9,2.6c-1.3,0.7-0.8,3.1,0.8,2.9c6.3-0.5,10.5,5.8,12.3,11.1c1.8,5.3,2.7,11.5,5.5,16.7l-3-0.3
		c-0.9,0-1.6,0.7-1.6,1.6c0,0.1,0,0.3,0.1,0.4c4.2,12.1,17.4,17,24.7,26.7c1.8,2.3,3.2,4.9,4.4,7.5l-4.3-1.5
		c-1.7-0.6-2.4,1.5-1.5,2.6c4.1,5.2,5.5,12.2,3.9,18.6l-4.1-3.6c-0.7-0.6-1.7-0.5-2.3,0.1c-0.3,0.4-0.5,0.9-0.4,1.4
		c1.1,5.4,2,10.8,2.8,16.1c-1.3-2.7-3.4-5-6.1-6.6c-1.7-1-3,1.1-1.9,2.5c2,2.6,1.8,6.2,1.1,9.1c-0.9,3.7-2.4,7.3-2.9,11.1
		s0.2,7.7,0,11.5c-0.3-1.2-0.8-2.3-1.3-3.4c-0.6-1.3-2.5-0.9-2.9,0.4c-2.2,6.9,0.3,14,2.3,20.7c1.2,4.1,2.2,8.7,1.3,13
		c-1-3.6-2.8-6.8-5.3-9.6c-1-1.1-2.6-0.2-2.7,1.1c-0.2,3.2-0.7,6.3-1.5,9.4c-0.1-0.1-0.3-0.2-0.4-0.3l-1.1-1c-1.7-1.4-3.4-2.8-5-4.3
		c-1.6-1.5-3.1-3.1-4.5-4.8l-0.5-0.6l-0.1-0.1c-0.1-0.1-0.2-0.2-0.2-0.3c-0.3-0.4-0.6-0.9-0.9-1.3c-0.6-0.9-1.2-1.8-1.7-2.7
		c-0.3-0.5-0.6-1.1-0.8-1.6c-0.1-0.1-0.1-0.3-0.2-0.4l0,0c0,0,0,0.1,0,0.1c0,0,0,0,0-0.1l0,0c0,0,0-0.1,0-0.1l-0.3-0.9
		c-0.4-1.1-0.7-2.3-0.9-3.5c-0.2-0.7-0.8-1.2-1.5-1.2c-0.7,0-1.3,0.5-1.5,1.2c-1.7,5.3-1.1,10.9-0.7,16.3c-0.2-0.3-0.5-0.7-0.8-0.9
		c-0.6-0.6-1.2-1.1-1.8-1.6c-0.3-0.3-0.6-0.5-0.8-0.8l-0.3-0.4l0,0l-0.1-0.1l-0.2-0.2c-0.1-0.1-0.2-0.3-0.2-0.4l-0.1-0.2
		c-0.1-0.4-0.1-0.9-0.3-1.3c-0.3-1-0.8-2-1.4-2.8c-1.3-1.9-2.9-3.5-4.6-5.1c-0.3-0.3-0.6-0.4-1-0.4c-0.5-1.3-1-2.6-1.5-3.9
		c-0.2-0.7-0.4-1.5-0.6-2.2l-0.2-1c0-0.1,0-0.2,0-0.3l-0.1-0.6c-0.1-1.5-0.1-3,0-4.4c0-0.2,0-0.4,0.1-0.6c0-0.1,0-0.1,0-0.1
		c0-0.1,0-0.2,0-0.3c0-0.1,0.1-0.8,0.2-1.2c0.2-0.8,0.4-1.6,0.6-2.4c0.1-0.4,0.3-0.8,0.4-1.2l0.2-0.6l0.2-0.3
		c0.3-0.8,0.7-1.5,1.2-2.2c0.4-0.7,0.2-1.8-0.6-2.1c-0.8-0.4-1.7-0.2-2.1,0.6c-3.2,5.5-4.2,11.9-2.8,18.1c0.7,3.1,2.1,5.9,3.1,8.8
		c0.3,0.7,0.5,1.5,0.7,2.2c0.1,0.4,0.2,0.7,0.3,1.1l0.1,0.6c0,0.1,0,0.2,0.1,0.3v0.1c0.1,0.9,0.1,1.7,0.1,2.6c0,0.4,0,0.8-0.1,1.2
		c0,0.4,0,0.4-0.1,0.6c0,0.1,0,0.2,0,0.3c0,0,0,0.1,0,0.1v0.1c-0.3,2-0.7,3.9-1.1,5.8l-0.5,2.8c-1.8-2.2-2.2-5.4-2.3-8.3
		c-0.1-4.4,0.7-8.8-0.2-13.2c-0.5-2.5-1.7-4.8-3.6-6.5c-0.9-0.8-2.4-0.4-2.6,0.8c-0.5-1.3-1-2.7-1.4-4.1c-1.1-3.8-1.5-7.8-1.1-11.8
		c0.3-4,1.3-8,2.2-11.9c0.9-3.9,2-7.8,3-11.6c4.2-15.2,8.7-30.8,8.3-46.7c-0.2-8.1-1.4-17-6.8-23.4c-0.6-0.6-1.7-0.6-2.2,0
		c-0.6,0.6-0.6,1.6,0,2.2c4.6,5.4,5.6,13.1,5.9,19.9c0.3,7.7-0.6,15.5-2.1,23.1s-3.7,15.5-5.7,23.1c-2.1,7.6-4.5,15.6-5.5,23.5
		c-0.6,4.5-0.4,9.1,0.7,13.5c1.1,4.4,3,8.5,4.9,12.5c0.7,1.5,2.9,0.7,2.9-0.8v-1.3c0.5,2.2,0.5,4.7,0.4,7c-0.2,4.3-0.7,8.7,0.9,12.8
		c0.7,2,2,3.8,3.7,5.1c0.1,0.6,0.5,1.1,1.1,1.2c0.8,0.2,1.8-0.2,1.9-1.1c0.7-3.4,1.4-6.8,2-10.3c0.3-1.8,0.5-3.6,0.6-5.5
		c0-1.3-0.2-2.6-0.4-3.8l0.2,0.3c0,0,0.1,0.1,0.1,0.2l0.2,0.3c0.3,0.4,0.5,0.8,0.8,1.2c0.3,0.4,0.2,0.4,0.3,0.6c0,0.1,0,0.1,0,0.1
		c0.1,0.1,0.1,0.2,0.1,0.3c0.1,0.4,0.2,0.8,0.3,1.2c0.1,0.5,0.3,0.9,0.5,1.4c0.8,1.5,2.2,2.5,3.4,3.6c0.3,0.3,0.5,0.5,0.8,0.8
		l0.1,0.2l0.2,0.4c0,0,0.1,0.1,0.1,0.1l0.1,0.3c0.1,0.2,0.1,0.4,0.2,0.7c0.1,0.2,0.2,0.9,0.3,1.5c0.3,2.1,0.6,4.5,2.4,6
		c0.6,0.6,1.7,0.6,2.3-0.1c0.3-0.3,0.4-0.7,0.4-1c0.6-6.4-1-12.7-0.7-19.1c0.9,2,2.1,3.8,3.4,5.6c2.6,3.5,5.8,6.6,9.2,9.4
		c0.9,0.7,1.9,1.5,2.7,2.4l0.1,0.2l0.1,0.1l0.5,1.5c-0.4,0.8-0.1,1.7,0.6,2.1l0.3,0.1c0.6,0.6,1.7,0.6,2.3-0.1
		c0.2-0.2,0.3-0.4,0.4-0.6c1.2-3.4,2.1-6.9,2.6-10.5c1.8,3,2.9,6.3,3.1,9.8c0,0.9,0.7,1.6,1.6,1.5c0.5,0,1.1-0.3,1.3-0.8
		c3.7-5.4,3-12.3,1.5-18.3c-0.8-2.9-1.8-5.9-2.6-8.9c0.6,0,1.1-0.3,1.4-0.8c4.4-6.2,1.8-13.9,2.8-20.8c0.5-4,2.4-7.8,3-11.8
		c0.2-1.2,0.3-2.4,0.2-3.6c3.8,5.9,3.6,14.6,5.8,20.8c0.5,1.6,3.2,1.5,3.1-0.4c-1-11.2-2.5-22.3-4.5-33.3l2.6,2.2
		c0.9,0.8,2.2,0.4,2.6-0.7c2.4-6.5,1.9-13.8-1.3-19.9l3.2,1.1C260.3,108.3,261.5,107,261.1,105.9z M198.3,157.8
		C198.4,157.7,198.4,157.8,198.3,157.8L198.3,157.8z"/>
	<path style="stroke:#000000;stroke-width:3;stroke-linecap:round;stroke-linejoin:round;stroke-miterlimit:10;" d="M70.6,64.2
		c0.7-1.2,1.5-2.4,2.4-3.5l0.2-0.3l0.2-0.3l0.7-0.9l1.3-1.5c0.9-1,1.9-2,2.9-3c1-1,2-1.9,3-2.7l1.6-1.3l0.2-0.1l0.4-0.3l0.8-0.6
		c2.5-1.8,5.2-3.4,8-4.8c0.8-0.4,1-1.4,0.6-2.2c-0.5-0.7-1.4-1-2.2-0.6c-5.1,2.6-9.8,5.9-14,9.8c-2.1,1.9-4,4-5.7,6.2
		c-1.8,2.3-3.5,4.8-4.7,7.5c-1.2,2.7-2.1,6.4-1.8,9.7c0.1,0.8,0.5,1.5,1.4,1.5c0.8,0.1,1.5-0.3,1.7-1.1c0-0.1,0-0.1,0-0.1
		c-0.4,2.4-0.6,4.7-0.6,7.1c0,1.9,0.2,3.7,0.5,5.6c0.1,0.6,0.8,1,1.3,1.1c0.6,0.1,1.2-0.2,1.6-0.8l3.7-6.7c0,0.1,0,0.3,0,0.4v0.1h0
		c0,0.2,0,0.4-0.1,0.5c-0.1,0.6-0.3,1.3-0.4,1.9c-0.8,3.4-1.2,7-1.2,10.5c0.1,3.5,0.7,7,1.2,10.5c0,0.2,0.1,0.4,0.1,0.6
		c0,0,0,0.1,0,0.1c0,0.1,0,0.2,0,0.3c0.1,0.4,0.1,0.9,0.2,1.3c0.1,0.4,0.2,1.7,0.2,2.6c0.1,1.4,0.1,2.8-0.1,4.3c0,0.1,0,0.2,0,0.3
		c0,0,0,0.1,0,0.1l-0.1,0.6c-0.1,0.4-0.2,0.8-0.3,1.2c-0.2,0.8-0.4,1.5-0.7,2.3l-0.2,0.4l-0.2,0.4c-0.2,0.3-0.3,0.7-0.5,1
		c-0.2,0.3-0.4,0.7-0.6,1l-0.2,0.2c0,0,0,0,0,0.1h0l-0.4,0.5c-0.5,0.6-0.6,1.6,0,2.2c0.6,0.6,1.7,0.7,2.2,0c4.4-5,4.7-11.9,3.9-18.2
		c-0.3-1.9-0.6-3.8-0.8-5.7l-0.1-0.6v-0.1c0-0.1,0-0.2,0-0.3l-0.2-1.4c-0.1-0.9-0.2-1.7-0.2-2.6c-0.1-1.8,0-3.6,0.1-5.4
		c0.1-0.4,0.1-0.9,0.2-1.3c0-0.2,0-0.2,0-0.2c0-0.1,0-0.1,0-0.2c0.1-0.3,0.1-0.5,0.1-0.8c0.2-0.9,0.3-1.7,0.5-2.6c0.7-3,1.8-7-1.5-9
		c-0.8-0.4-1.7-0.2-2.1,0.6l-2.7,5c0-1.3,0.1-2.6,0.2-3.8c0-0.3,0.1-0.7,0.1-1c0.1-0.3,0-0.3,0-0.3l0.1-0.6c0.1-0.7,0.3-1.5,0.4-2.2
		c0.3-1.5,0.8-2.9,1.3-4.4l0.5-1.2V69c0.1-0.1,0.1-0.2,0.2-0.3l0.2-0.5c0.4-0.8,0.8-1.6,1.2-2.4c0.4-0.7,0.2-1.5-0.4-2.1
		c-0.6-0.5-1.5-0.4-2.1,0.1c-0.9,0.8-1.7,1.6-2.5,2.4l0.2-0.3C69.9,65.4,70.3,64.8,70.6,64.2z"/>
	<path style="stroke:#000000;stroke-width:3;stroke-linecap:round;stroke-linejoin:round;stroke-miterlimit:10;" d="M64.6,161.1
		c-0.1,0.6-0.2,1.1-0.3,1.6s-0.2,0.6-0.3,0.9s-0.1,0.3-0.1,0.4c-0.1,0.1-0.1,0.2-0.1,0.3c-0.6,0.1-1.1,0.5-1.3,1.1
		c-0.2,0.8,0.3,1.7,1.1,1.9c0.9,0.3,1.8,0,2.4-0.7c0.5-0.5,0.8-1.3,1-2c0.4-1.3,0.7-2.5,0.9-3.8c0.4-2.8,0.3-5.7-0.2-8.5
		c-0.2-0.8-1.2-1.3-2-1.1c-0.8,0.3-1.3,1.1-1.1,1.9c0.1,0.3,0.1,0.6,0.2,0.9v0.2c0,0.2,0,0.3,0,0.4c0,0.2,0.1,1.1,0.1,1.7
		c0,1.1,0,2.3-0.2,3.4c0,0.1,0,0.2,0,0.3c0,0.1,0,0.2,0,0.3C64.7,160.6,64.7,160.8,64.6,161.1z"/>
	<path style="stroke:#000000;stroke-width:3;stroke-linecap:round;stroke-linejoin:round;stroke-miterlimit:10;" d="M119.3,41.2
		C119.3,41.2,119.3,41.2,119.3,41.2c-3.9-0.2-7.7,1.1-10.7,3.6c-0.7,0.5-0.6,1.7,0,2.2c0.6,0.6,1.6,0.6,2.2,0l0.3-0.2h0.1l0.5-0.3
		l1-0.7l1.1-0.5h0.1l0.2-0.1l0.6-0.2l1.1-0.3l0.7-0.1h2.8c0.9,0,1.6-0.7,1.6-1.6C120.9,42,120.2,41.2,119.3,41.2z"/>
	<path style="stroke:#000000;stroke-width:3;stroke-linecap:round;stroke-linejoin:round;stroke-miterlimit:10;" d="M221,81.3
		c0.4-0.5,0.4-1.1,0.1-1.7c-2.3-5.3-4.8-10.5-7.6-15.6c-2.6-4.8-5.4-9.9-10-13.1c-2.4-1.7-5.4-2.7-8.4-2.6c-0.8,0.1-1.6,0.7-1.6,1.6
		c0,0.9,0.7,1.6,1.6,1.6c0.6,0,1.2,0,1.8,0.1h0.2l0.4,0.1l0.9,0.2l0.9,0.3l0.3,0.2l0.2,0.1c0.5,0.3,1.1,0.5,1.6,0.9
		c0.3,0.2,0.5,0.3,0.8,0.5l0.2,0.1l0.1,0.1h0l0.2,0.2c0.5,0.4,0.9,0.8,1.4,1.3c0.5,0.5,0.9,1,1.3,1.5l0.3,0.3l0.1,0.1v0.1l0.6,0.8
		c1.5,2.2,2.8,4.5,4.1,6.8c1.3,2.3,2.6,5,3.9,7.5c0.9,1.7,1.6,3.4,2.4,5.1l-5.3-2c-0.8-0.3-1.7,0.2-2,1c-0.2,0.6,0,1.2,0.4,1.6
		c0.6,0.5,1.2,1,1.7,1.6l0.7,0.9c0,0,0,0,0,0l0.1,0.1l0.4,0.5c0.4,0.6,0.8,1.2,1.2,1.9c0.2,0.3,0.3,0.7,0.5,1l0.2,0.4l0.1,0.3v0.1
		c0.6,1.5,1,2.9,1.4,4.4c0.2,0.7,0.3,1.5,0.4,2.2l0.2,1.1l0.1,0.5c0,0.1,0,0.2,0,0.2c0,0,0,0.2,0,0.3c0.9,7.3,0.7,14.8,3.4,21.8
		c1.5,3.7,3.5,7.2,6,10.2c0.5,0.6,1.7,0.6,2.2,0c0.6-0.6,0.6-1.6,0-2.2l-0.4-0.5l-0.2-0.3l-0.8-1c-0.5-0.7-0.9-1.4-1.4-2.1
		c-0.4-0.7-0.8-1.5-1.2-2.2c-0.4-0.8-0.3-0.7-0.5-1.1l-0.2-0.5c-0.1-0.1-0.1-0.2-0.1-0.3l-0.1-0.1c-0.6-1.5-1.2-3.2-1.6-4.8
		c-0.2-0.9-0.4-1.8-0.5-2.7c-0.1-0.4-0.2-0.9-0.2-1.3v-0.2c0,0,0-0.2,0-0.2c0,0-0.1-0.5-0.1-0.8c-0.8-6.9-0.6-14-3.1-20.5
		c-0.5-1.5-1.2-2.8-2-4.1l3.2,1.2C219.9,82,220.6,81.8,221,81.3z"/>
	<path style="stroke:#000000;stroke-width:3;stroke-linecap:round;stroke-linejoin:round;stroke-miterlimit:10;" d="M206.5,121.4
		c0-0.1,0-0.1,0-0.2v-0.2c0-0.1,0-0.2,0.1-0.3c0-0.2,0.1-0.4,0.2-0.6c0.2-0.8-0.3-1.8-1.1-2c-0.9-0.2-1.7,0.3-2,1.1
		c-0.7,3-0.4,6.1,0.2,9.1c0.5,2.5,1.1,5,1.9,7.4c2.6,7.8,6.7,15,12.1,21.2c0.6,0.6,1.6,0.6,2.2,0c0.6-0.6,0.6-1.6,0-2.2
		c-0.4-0.4-0.8-0.9-1.2-1.4l-0.6-0.7l-0.3-0.3l-0.1-0.2h0c-0.8-1-1.5-2-2.2-3c-1.4-2.1-2.6-4.3-3.8-6.5c-0.5-1.1-1-2.2-1.5-3.4
		c0-0.1-0.1-0.1-0.1-0.2c-0.1-0.1-0.1-0.3-0.2-0.4l-0.4-0.9c-0.2-0.6-0.4-1.2-0.6-1.8c-0.9-2.3-1.5-4.7-2.1-7.2
		c-0.2-0.7-0.3-1.5-0.4-2.2l-0.1-0.5c0-0.1,0-0.2,0-0.3v-0.1l-0.1-1.1c-0.1-0.8-0.1-1.6-0.1-2.4c0-0.2,0-0.3,0-0.5
		C206.5,121.6,206.5,121.5,206.5,121.4z"/>
	<path style="stroke:#000000;stroke-width:3;stroke-linecap:round;stroke-linejoin:round;stroke-miterlimit:10;" d="M165.5,44.8
		c-0.8,0.1-1.4,1.2-1.1,2c0.3,0.8,1.1,1.2,1.9,1.1h0.5l0.8-0.1h0.8c0.3,0,0.5,0,0.8,0.1h0l0.4,0.1l0.8,0.2c0.5,0.1,1,0.3,1.5,0.5
		h0.1l0.4,0.2l0.7,0.3c0.5,0.3,0.9,0.6,1.3,0.9h0.1l0.1,0.1l0.3,0.2l0.6,0.6l0.6,0.6l0.2,0.3l0.2,0.2h0c0.5,0.6,1.4,1,2.1,0.5
		s1.1-1.5,0.6-2.2C176,46.1,170.7,44,165.5,44.8z"/>
</g>
</svg>
