<?xml version="1.0" encoding="utf-8"?>
<!-- Generator: Adobe Illustrator 27.9.0, SVG Export Plug-In . SVG Version: 6.00 Build 0)  -->
<svg version="1.1" id="Layer_1" xmlns="http://www.w3.org/2000/svg" xmlns:xlink="http://www.w3.org/1999/xlink" x="0px" y="0px"
	 viewBox="0 0 304.6 173.4" style="enable-background:new 0 0 304.6 173.4;" xml:space="preserve">
<path style="stroke:#000000;stroke-width:3;stroke-linecap:round;stroke-linejoin:round;stroke-miterlimit:10;" d="M284.3,91
	c-0.3-1.4-0.6-2.7-1-4.1c-0.7-2.7-1.5-5.3-2.4-8c-1.5-4.4-3-8.8-5.1-12.9c-1.7-3.4-4-6.5-6.7-9.2c-3.3-3.3-7.2-5.8-11.2-8.3
	c-4-2.5-8-5.8-11.6-9s-7.3-6.8-11.1-10c-1.9-1.6-3.8-3.2-5.8-4.7c-2-1.5-4.4-2.6-6.9-2.4c-2.5,0.2-4.5,1.3-6.7,2.3s-4,1.4-6.3,0.9
	c-2.2-0.5-4.4-1.7-6.4-2.8c-1.6-0.8-3.3-1.5-5-2.2c-6.9-2.3-14.3-3.1-21.5-3.8c-7.8-0.8-15.7-1.1-23.6-1.3l-9-0.2
	c-13.4,0.3-26.7,3.1-39.1,8.4c-3.8,1.6-7.8,3.9-12.2,3.8s-7.5-2.9-11.6-2.7c-2.1,0.1-4,1-5.7,2.2s-3.6,2.7-5.4,4.1
	C62.8,37.1,55.7,42.9,48.7,49c-6.4,5.5-12.8,11.1-17.9,17.9c-2.5,3.4-4.6,7-6.2,10.9c-1.7,4.1-2.8,8.3-3.7,12.6
	c-0.2,1.1-0.5,2.2-0.7,3.2c-0.2,1.1-0.4,2-0.3,3.1c0.1,1,0.6,2,1.5,2.6c0.6,0.6,1.3,1,1.6,1.8c0.7,1.7,0.6,3.6,0.9,5.4
	c0.3,1.8,0.8,3.6,1.3,5.3c2.9,8.9,9,16.4,17,21.2c1.5,0.9,3,1.7,4.5,2.6c2.8,1.8,5.2,4,5.4,7.5c0.1,2.3-0.1,4.5,0.3,6.8
	c0.3,2.3,0.8,4.5,1.6,6.6c0.7,1.9,1.5,3.7,3.2,4.9c1.6,1.2,3.6,1.2,5.4,0.3c4.1-2.1,4.1-7,3.6-11c-0.5-4.7-1.2-9.4-1.8-14.1
	c-1.2-9.3-2.3-18.7-2.3-28.1c0-8.1,1-16.3,3.4-24.1c1.2-3.8,2.7-7.5,4.7-11c2.1-3.7,4.7-7,7.4-10.2c5.5-6.4,11.5-12.7,14.3-20.8
	c0.6-2,1.1-4,1.2-6c0.1-1.7,0.1-3.7-1.3-4.9c-1.4-1.2-4-0.3-5.7,0.8c-1.6,1.1-3,2.4-4.3,3.8c-5.4,6.2-7.2,14.3-9.9,21.9
	c-1.5,4-3.5,7.7-6,11.2c-2.5,3.5-5.2,6.8-7.2,10.6c-3.8,7.4-5.2,15.8-3.9,24c0.6,4.3,2.4,8.4,2.8,12.8c0.3,4.4-0.5,8.1-1.7,12
	c-0.9,3-2,5.9-3.1,8.8c-1.5-2-3.6-3.4-5.8-4.7c-2.9-1.8-5.9-3.4-8.5-5.6c-2.7-2.3-5-5-6.9-8c-1.9-3-3.3-6.2-4.3-9.6
	c-0.5-1.6-0.8-3.3-1-5c-0.2-1.8-0.3-3.7-1.3-5.3c-0.5-0.8-1.2-1.3-1.9-1.9s-0.6-1.3-0.4-2.1c0.4-2,0.9-4.1,1.4-6.1
	c1-4.1,2.2-8.3,3.9-12.1c3.3-7.3,8.8-13.2,14.6-18.6c6.4-6,13.1-11.6,19.9-17.1c3.5-2.8,6.9-5.6,10.5-8.4C75.8,30.4,79,27.2,83,28
	c1.9,0.4,3.6,1.2,5.5,1.7c2,0.7,4.1,1,6.2,0.7c4.2-0.5,8.1-2.6,11.9-4.2c8-3.3,16.5-5.7,25.1-6.9c4.1-0.6,8.2-0.9,12.3-1
	c6.7,0.1,13.4,0.3,20.2,0.6c7.7,0.4,15.5,0.9,23.2,2.2c3.2,0.6,6.4,1.2,9.5,2.2c0.6,0.2,1.3,0.4,1.9,0.7l0.4,0.1l0.4,0.2
	c0.5,0.3,1.1,0.5,1.6,0.8c2.2,1.1,4.3,2.2,6.5,3c1.7,0.5,3.5,0.7,5.2,0.4c-0.2,0.1-0.4,0.3-0.6,0.5c-0.7,0.9-1,2-1,3.1
	c-0.1,2.4,0.4,4.9,1.2,7.1c1.5,4.7,4.2,9.1,7.3,12.9c2.8,3.3,6.5,5.8,9.8,8.5c1.7,1.4,3.3,2.8,4.6,4.5c1.3,1.8,2.5,3.7,3.4,5.8
	c1.9,4.1,3,8.6,3.7,13.1c0.7,4.5,0.9,9.5,1,14.2c0.1,4.8,0.3,9.5-0.4,14.3c-0.5,4-1.7,7.7-2.9,11.5s-2.5,8.1-3.1,12.3
	c-0.2,1.1-0.4,2.2-0.4,3.4c0,0.8,0.1,1.6,0.3,2.4c0.4,1.8,0.9,3.6,1.5,5.4c1,2.8,2.2,5.6,3.6,8.2c0.7,1.3,1.7,2.8,3,3.4
	c2,1,4-0.8,5.1-2.4c1.3-2.1,2.1-4.7,2.6-7.1s0.7-5.3,0.7-8.1c0-2.2,0.3-4.1,1.8-5.8s3-2.6,4.7-3.6c1.7-1,3.6-2,5.4-3.2
	c1.9-1.3,3.6-2.7,5.2-4.3c3.2-3.1,5.8-6.7,7.8-10.8c1-2,1.8-4.1,2.4-6.2c0.6-2.1,1.2-4.4,1.3-6.6c0-0.9-0.3-1.9-0.5-2.8
	c-0.1-0.4-0.2-0.8-0.3-1.2c0-0.2-0.1-0.3-0.1-0.5v-0.4c0,0,0-0.1,0.1-0.1c0-0.1-0.1,0.1,0,0l0,0c0,0.1,0,0.1,0,0h0l1.2-0.6
	c0.4-0.2,0.7-0.4,1.1-0.6c0.4-0.3,0.7-0.7,1-1.1C284.4,93,284.5,92.2,284.3,91z M57.4,92.8c0.5-3.9,1.7-7.6,3.4-11.1
	c1.8-3.7,4.4-7,6.8-10.3c2.5-3.3,4.6-6.9,6.2-10.7c1.6-3.9,2.7-8,4.2-12c1.3-3.4,2.8-6.8,5-9.7c1-1.4,2.2-2.6,3.6-3.7
	c0.6-0.5,1.3-1,2.1-1.4c0.3-0.2,0.7-0.4,1.1-0.4c0.3,0,0.3,0,0.4,0.3c0.2,0.5,0.3,1,0.2,1.6c0,1-0.1,2-0.3,3
	c-0.4,1.9-0.9,3.7-1.7,5.4c-1.6,3.6-3.9,7-6.5,10.1c-2.5,3.1-5.6,6.4-8.3,9.7c-2.6,3.1-4.9,6.5-6.7,10c-3.7,7.2-5.8,15-6.8,23
	c-0.6,4.6-0.8,9.3-0.8,14c-0.5-2.1-1.1-4.2-1.5-6.3C57,100.6,56.9,96.7,57.4,92.8L57.4,92.8z M60,123.4c0.8,8.8,2.2,17.5,3.2,26.2
	c0.4,3,1.4,8.2-2.2,9.7c-1.5,0.6-2.7-0.4-3.4-1.7c-0.7-1.3-1.5-3.7-2-5.6c-0.4-2.1-0.7-4.2-0.6-6.3c0-1.7,0-3.4-0.4-5l0.1-0.2
	C56.7,135,59.1,129.3,60,123.4L60,123.4z M223.2,51.8c-1.5-1.6-2.9-3.3-4-5.2c-1.3-1.9-2.4-4-3.3-6.2c-0.9-2.1-1.5-4.4-1.7-6.7
	c-0.1-0.8-0.2-1.8,0.2-2.5c0.1-0.2,0.1-0.3,0.4-0.3c0.3,0,1,0.4,1.4,0.7c3.7,2.2,6.3,5.8,8.2,9.6c1,2.1,1.8,4.3,2.8,6.4
	c0.9,2.1,2.2,4.8,3.5,7.2c1.3,2.3,2.3,4.2,3.5,6.3c-0.4-0.4-0.7-0.7-1.1-1.1C229.9,57.2,226.2,54.9,223.2,51.8z M240.6,70.8
	c0-0.1-0.1-0.1-0.1-0.2c2.2,2.9,4.3,5.8,6,9c1.7,3.2,2.5,6.9,2.2,10.7s-1.1,7.2-1.9,10.7l-1.6,6.9c0.1-3.3,0-6.6,0-9.9
	C245,88.8,244.3,79.4,240.6,70.8L240.6,70.8z M249.4,146.3c-0.3,2.6-0.9,5.1-1.9,7.5c-0.3,0.9-0.8,1.7-1.4,2.4
	c-0.3,0.3-0.5,0.4-0.8,0.6l-0.2-0.1l-0.1-0.1c-0.1-0.1-0.3-0.2-0.4-0.4l-0.3-0.3c-0.5-0.6-0.9-1.3-1.2-2c-0.7-1.3-1.3-2.7-1.9-4
	c-0.1-0.1-0.1-0.2-0.1-0.3c0-0.1-0.1-0.1-0.1-0.2l-0.4-0.9c-0.3-0.8-0.6-1.6-0.8-2.4c-0.6-1.7-1.1-3.4-1.4-5.1
	c-0.1-0.3-0.1-0.5-0.1-0.8c0-0.3,0-0.6,0.1-1c0.1-1.2,0.3-2.4,0.5-3.5c0.8-4,2-7.9,3.3-11.8c0.6-1.9,1.1-3.7,1.6-5.6
	c0.1,2,0.4,4,1,6c1.2,4.7,3.4,9.2,5.1,13.7c0,0.1,0,0.1,0.1,0.1l-0.1,0.3C249.2,140.9,249.7,143.6,249.4,146.3z M280.9,92.7
	L280.9,92.7C280.9,92.7,281,92.7,280.9,92.7L280.9,92.7z M280.9,92.6l-0.1,0.1c-0.2,0.1-0.3,0.2-0.4,0.3l-0.7,0.3
	c-0.8,0.4-1.6,0.8-2,1.6c-0.9,1.7,0,3.8,0.3,5.5c0.3,1.7-0.3,3.8-0.7,5.5c-1.6,6.2-4.8,11.8-9.2,16.4c-1.5,1.5-3.1,2.9-4.9,4.2
	c-1.7,1.2-3.5,2.2-5.3,3.2c-2.3,1.3-4.7,2.9-6.4,5.1c-1.6-4-3.4-7.9-4.4-12.1c-0.6-2.4-0.8-4.9-0.6-7.4c0.1-1.3,0.5-2.8,0.8-4.2
	c0.8-3.6,1.6-7.1,2.4-10.7s1.8-7.8,1.8-11.7c0-9.4-6.9-16.6-11.9-23.9c-1.4-2-2.6-4.2-3.8-6.4c-1.2-2.2-2.7-4.7-3.9-7.1
	c-1.2-2.4-2.3-4.8-3.3-7.2c-0.8-2.2-1.8-4.2-3-6.2s-2.6-3.8-4.2-5.5c-1.6-1.6-3.6-3.3-5.8-3.9c-0.3-0.1-0.5-0.1-0.8-0.1
	c2.1-0.7,4-1.9,6-2.5c0.9-0.3,1.9-0.4,2.9-0.3c1.1,0.3,2.2,0.7,3.1,1.4c2,1.3,3.8,2.8,5.6,4.4c7.4,6.3,14.1,13.5,22.2,18.9
	c2,1.4,4.2,2.6,6.2,3.9c1.7,1.2,3.4,2.5,5,4c2.7,2.5,4.9,5.3,6.7,8.5c2.1,3.7,3.5,7.8,4.9,11.8c0.9,2.5,1.7,5.1,2.4,7.7
	c0.4,1.3,0.7,2.6,1,3.9l0.4,1.9c0,0,0,0.2,0.1,0.3l-0.1,0.1C281.3,92.2,281.1,92.4,280.9,92.6L280.9,92.6z"/>
</svg>
