<?xml version="1.0" encoding="utf-8"?>
<!-- Generator: Adobe Illustrator 27.9.0, SVG Export Plug-In . SVG Version: 6.00 Build 0)  -->
<svg version="1.1" id="Layer_1" xmlns="http://www.w3.org/2000/svg" xmlns:xlink="http://www.w3.org/1999/xlink" x="0px" y="0px"
	 viewBox="0 0 319.8 214" style="enable-background:new 0 0 319.8 214;" xml:space="preserve">
<g>
	<path style="stroke:#000000;stroke-width:3;stroke-linecap:round;stroke-linejoin:round;stroke-miterlimit:10;" d="M297.7,39.8
		c-0.4-5.7-0.7-11.9-3.8-16.9c-2.5-4.1-6.9-7.4-11.8-7.2c-5.6,0.2-10.4,4.2-14.8,7.3c-19,13.1-37.4,27.9-50.8,46.9
		c-6.4,9-11.6,18.9-14.8,29.5c-1.8,5.8-2.9,11.8-3.9,17.7c-0.5,3.1-1,6.2-1.6,9.4c-0.2,1.3-0.3,2.8-0.8,4s-2.1,1.4-3.4,1.6
		c-12.7,1.7-25.5,2.4-38.3,2.1c-6.4-0.1-12.8-0.6-19.2-1.3c-2.4-0.3-5-0.9-6.7-2.7c-1.7-1.9-2.2-4.4-2.8-6.7
		C119,100.7,109,79.2,96.3,59.6c-11-16.9-24.8-33.6-44-41.2c-4.7-1.9-10.2-3.7-15.3-3c-5.1,0.7-8.2,4.5-9.6,9.2
		c-1.6,5.4-1.3,11.5-0.9,17c0.4,6.3,1.4,12.5,2,18.7s0.6,12.6,0.5,18.9c-0.2,6.3-0.4,12.8,0.4,19.1c0.7,5.9,2.2,11.7,4.5,17.2
		c0.6,1.3,1.1,2.7,1.7,4s1.5,2.7,1.7,4.2c0.2,1.5-0.4,2.7-0.7,4c-0.3,1.3-0.6,2.8-0.9,4.2c-0.9,5.4-1.2,11,0.2,16.3
		c1.4,5.3,4.2,9.4,8.1,12.8s8.3,6,12.7,8.7c2.5,1.5,5,3.2,7.4,4.8c2.4,1.7,5.1,3.3,7.2,5.4c2.1,2.1,1.1,4.1,1,6.3
		c-0.1,2.2,0.2,4.3,1.8,5.8s3.8-0.9,2.3-2.3c-1.5-1.5-0.8-3.9-0.7-5.7c0.1-2.4-0.4-4.6-2.1-6.3c-1.8-1.7-4.6-3.7-7-5.4
		c-2.4-1.7-5-3.4-7.5-5c-8.4-5.2-17.7-10.2-20.1-20.6c-1.2-5.3-0.7-10.9,0.4-16.1c0.6-2.7,1.7-5.4,1-8.2c-0.7-2.7-2.3-5.2-3.4-7.7
		c-2.3-5.4-3.8-11.2-4.5-17c-0.6-6.2-0.4-12.4-0.3-18.6c0.1-6.2,0.2-12.2-0.5-18.4c-0.6-6.1-1.5-12.3-2-18.4
		c-0.4-5.4-0.8-11.4,0.8-16.7c0.6-2,1.5-4,3.2-5.4s4.8-1.7,7.3-1.4c4.8,0.6,9.7,2.4,14,4.6c4.4,2.2,8.6,4.9,12.4,7.9
		c7.8,6.3,14.5,13.9,20.4,22c13.2,18.2,23.7,38.6,30.6,60c0.9,2.7,1.6,5.3,2.4,8s1.2,5.1,2.2,7.5c1,2.4,2.3,4.2,4.4,5.4
		c2.1,1.2,4.7,1.6,7.2,1.9c12.5,1.5,25.2,1.7,37.7,1c6.3-0.4,12.5-0.9,18.7-1.7c2.6-0.3,5.5-0.4,6.9-3c1.4-2.6,1.3-5.3,1.7-7.8
		c1.9-11.6,3.8-23.1,8.6-34c9-20.4,24.5-37,41.7-50.8c4.6-3.7,9.2-7.2,14-10.5c2.3-1.6,4.6-3.2,7-4.9c2.3-1.6,4.6-3.2,7.1-4.4
		c2.6-1.1,4.9-1.3,7.3-0.4c2.4,1,3.9,2.5,5.2,4.3c3.2,4.8,3.4,10.9,3.8,16.4c0.7,12.3,0.5,24.7-0.8,36.9c-0.7,6.2-1.6,12.4-2.7,18.5
		c-0.6,2.9-1.1,5.8-1.9,8.7c-0.7,2.9-1.5,4.9-3.5,6.7c-3.3,2.9-7.5,4.2-10.2,7.9c-0.9,1.3,0.6,2.7,1.9,2.4c2.8-0.5,4.6,2.4,5.3,4.6
		c0.6,2.3,0.9,5.4,1,8.1c0.1,2.7,0.1,5.8-0.8,8.6c-1,2.8-2.8,4.7-4.8,6.6c-8.6,7.8-19,13.5-26.4,22.7c-3.8,4.7-6.8,10.1-7.8,16.1
		c-0.3,2.1,2.8,3,3.2,0.9c2-12.3,12-20.8,21.5-28c2.5-1.9,5.1-3.8,7.6-5.8c2.5-2,4.9-3.9,6.9-6.3c4.1-5.1,4.3-11.3,3.7-17.5
		c-0.3-3.2-0.5-6.7-2.3-9.5c-1-1.5-2.4-2.7-4.1-3.3c2.8-2.2,6.4-3.5,8.8-6.2c1.8-2,2.7-4.5,3.3-7.1c0.6-2.6,1.3-6.1,1.9-9.2
		c2.4-12.4,3.7-25,3.9-37.7C298.1,52.2,298,46,297.7,39.8z"/>
	<path style="stroke:#000000;stroke-width:3;stroke-linecap:round;stroke-linejoin:round;stroke-miterlimit:10;" d="M102.8,86.2
		c-2-5.1-4.3-10-6.8-14.9c-0.3-0.6-0.6-1.2-0.9-1.7c-0.5-0.8-1.5-1.1-2.3-0.6c-0.8,0.5-1,1.4-0.6,2.2c1.1,2.4,2.3,4.7,3.4,7.1
		c0.6,1.2,1.1,2.4,1.6,3.6l0.8,1.8l0.4,0.9l0.2,0.4l0.1,0.2v0.1h0c2.1,4.8,3.8,9.8,5.2,14.9c0.7,2.5,1.2,5.1,1.6,7.6
		c0,0.3,0.1,0.7,0.1,1c0,0.2,0.1,0.3,0.1,0.5c0,0.1,0,0.1,0,0.2c0.1,0.6,0.2,1.2,0.2,1.9c0.1,1.3,0.2,2.6,0.3,3.9
		c0.1,2.7,0,5.3-0.3,7.9l-0.1,1c0,0.2,0,0.3-0.1,0.5c0,0.1,0,0.2,0,0.3v0.1c-0.1,0.7-0.2,1.4-0.3,2.1c-0.2,1.4-0.5,2.8-0.8,4.1
		c-1.1,5.2-2.2,10.4-3.3,15.5c-3.8-4.5-8.2-8.8-14.2-9.9c-2-0.4-4.1-0.4-6.1,0c-0.9,0.3-1.4,1.1-1.1,2c0.3,0.9,1.1,1.3,2,1.1
		l0.5-0.1h0.3l1.1-0.1c0.4,0,0.8,0,1.1,0H86l0.3,0.1c0.8,0.1,1.5,0.3,2.3,0.6l1,0.4l0.3,0.2l0.7,0.3c0.7,0.4,1.4,0.8,2,1.2l1,0.7
		l0.1,0.1l0.1,0.1l0.6,0.5c1.2,1.1,2.4,2.2,3.5,3.4c1.3,1.4,2.5,2.9,3.6,4.3c0.8,0.9,2.5,0.4,2.7-0.7c1.2-5.6,2.4-11.2,3.6-16.8
		c1.1-5.5,2.1-11.2,2.1-16.8c-0.1-5.4-0.7-10.7-2-15.9C106.5,96.2,104.9,91.1,102.8,86.2z"/>
	<path style="stroke:#000000;stroke-width:3;stroke-linecap:round;stroke-linejoin:round;stroke-miterlimit:10;" d="M91.8,149.3
		c-1.8,0.1-3.6,0.4-5.4,0.7l-1.1,0.2h-1.1l-0.5-0.1l-0.2-0.1h-0.1l-0.2-0.2c-0.2-0.2-0.4-0.5-0.6-0.7l-0.2-0.3l-0.4-0.6l-1.5-2l-3-4
		c-2-2.7-3.9-5.4-5.8-8.2c-1.8-2.8-4.1-6.4-5.9-9.7c-0.5-0.8-1.4-1.1-2.2-0.6s-1.1,1.5-0.6,2.3c3.2,5.8,7,11.4,10.9,16.8
		c2,2.7,3.9,5.3,6,8c0.5,0.8,1.1,1.4,1.9,2c0.8,0.5,1.7,0.8,2.6,0.8c1.6,0.1,3.3-0.4,5-0.7h0.4l0.8-0.1l1.4-0.1h1.8
		c-0.1,0-0.2,0,0,0h0.3l0.5,0.1c0.1,0.1,0.3,0.1,0.5,0.2H95l0.3,0.3l0.1,0.1h0.1l0.1,0.2c0.3,0.9,1.1,1.4,2,1.1
		c0.8-0.3,1.4-1.1,1.1-2C97.7,149.8,94.5,149.1,91.8,149.3z"/>
	<path style="stroke:#000000;stroke-width:3;stroke-linecap:round;stroke-linejoin:round;stroke-miterlimit:10;" d="M91.2,155.4
		c-3.7,1.5-7.6,2.7-11.5,3.5l-0.8,0.2h-0.2c0,0-0.2,0-0.2,0h-1.6l-0.3-0.1l-0.3-0.1c-0.2-0.1-0.4-0.2-0.5-0.3
		c-0.2-0.1-0.4-0.3-0.6-0.4l-0.2-0.1c0,0,0,0,0,0H75l-0.4-0.3l-1-0.9c-0.7-0.7-1.5-1.3-2.3-1.9c-1.7-1.3-3.7-2.3-5.7-3
		c-0.9-0.2-1.8,0.3-2,1.1c-0.2,0.9,0.3,1.8,1.1,2l0.7,0.2l0.3,0.1l0.2,0.1l1.2,0.6c0.9,0.5,1.6,1,2.4,1.5l0.2,0.2h0.1
		c0,0,0,0,0.1,0.1l0.5,0.4l1,0.9c0.7,0.7,1.4,1.3,2.2,1.9c0.8,0.6,1.6,1,2.5,1.2c1.1,0.3,2.4,0.3,3.5,0.1c2-0.4,4-0.9,6-1.4
		c2.2-0.7,4.4-1.4,6.6-2.3c0.8-0.3,1.4-1.1,1.1-2C93,155.6,92.1,155,91.2,155.4z"/>
	<path style="stroke:#000000;stroke-width:3;stroke-linecap:round;stroke-linejoin:round;stroke-miterlimit:10;" d="M238.3,153.7
		l-0.2-0.1l-0.2-0.1l-0.4-0.3l-0.8-0.7c-0.6-0.6-1.4-1-2.2-1.2c-0.7-0.2-1.4-0.3-2.2-0.3c-0.8,0-1.5,0.1-2.3,0.2l-0.9,0.1h-0.3l0,0
		c-0.1,0-0.2,0-0.2,0h-0.3c-0.7,0.1-1.3,0-2,0h-0.2l-0.4-0.1l-0.2-0.1l-0.5-0.3c-0.1,0-0.1-0.1-0.2-0.1h0c-0.1-0.1-0.3-0.2-0.4-0.4
		l-0.3-0.3c0,0-0.1-0.1-0.1-0.1l-0.2-0.3c-0.4-0.7-0.8-1.3-1.1-2c-0.7-1.4-1.3-2.8-2-4.2c-1.3-2.8-3-5.6-5.4-7.7l-1.1-0.8l-0.2-0.2
		l-0.5-0.4l-0.3-0.3c0,0,0-0.1,0-0.1c-0.1-0.1-0.1-0.1-0.1-0.2l-0.1-0.3v-0.1c0-0.1,0-0.2,0-0.3c0-0.9,0.1-1.7,0.1-2.6
		c0-0.9,0.1-1.7,0.1-2.6c0.2-3.6,0.4-7.1,0.6-10.7c0.3-3.6,0.6-7.1,1-10.6c0.1-0.9,0.2-1.8,0.3-2.7c0-0.1,0-0.2,0-0.3v-0.1l0.1-0.6
		l0.2-1.3c0.2-1.8,0.5-3.5,0.9-5.3c1.2-6.9,3.2-13.7,5.8-20.2l0.1-0.2c0,0,0-0.1,0-0.1c0.1-0.2,0.2-0.4,0.3-0.6
		c0.2-0.4,0.4-0.8,0.6-1.2c0.2-0.4,0.3-1.8-0.6-2.3s-1.9-0.2-2.2,0.6c-3,6.7-5.3,13.8-6.7,21c-1.5,7.2-2.3,14.6-2.9,21.9
		c-0.3,3.7-0.5,7.4-0.7,11c-0.1,1.8-0.2,3.7-0.3,5.5c-0.1,1-0.1,1.9,0.1,2.8c0.3,1,0.9,1.8,1.7,2.4l0.7,0.5l0.2,0.2l0.1,0.1l0.2,0.1
		l0.2,0.2l0.5,0.4c0.6,0.5,1.1,1.1,1.6,1.8c-0.2-0.3,0.1,0.1,0.1,0.2l0.3,0.5l0.7,1c0.4,0.7,0.8,1.4,1.2,2.1c0.7,1.4,1.4,2.9,2,4.3
		c0.7,1.4,1.4,3,2.5,4.3c1.1,1.3,2.8,2.1,4.5,2.1c0.7,0,1.4,0,2.1-0.1l1.3-0.2l0.5-0.1h0.2c0.7-0.1,1.3-0.1,2-0.1h0.5l0.5,0.2
		l0.2,0.1l0.2,0.1l0.1,0.1l0.2,0.2l0.8,0.7c0.7,0.6,1.4,1.1,2.2,1.3c1,0.3,2,0,2.7-0.8c0.7-0.6,0.7-1.7,0-2.3
		C239.8,153.3,238.9,153.2,238.3,153.7z M213.6,133.8C213.5,133.6,213.6,133.8,213.6,133.8L213.6,133.8z M213.7,134
		c0,0,0.1,0.1,0.1,0.1L213.7,134z"/>
</g>
</svg>
