<?xml version="1.0" encoding="utf-8"?>
<!-- Generator: Adobe Illustrator 27.9.0, SVG Export Plug-In . SVG Version: 6.00 Build 0)  -->
<svg version="1.1" id="Layer_1" xmlns="http://www.w3.org/2000/svg" xmlns:xlink="http://www.w3.org/1999/xlink" x="0px" y="0px"
	 viewBox="0 0 333.6 220" style="enable-background:new 0 0 333.6 220;" xml:space="preserve">
<g>
	<path style="stroke:#000000;stroke-width:3;stroke-linecap:round;stroke-linejoin:round;stroke-miterlimit:10;" d="M212.1,68.7
		c0.3-1.1-0.3-1.9-1.3-2.3c0.5,0.2-0.1-0.1-0.2-0.2l-0.2-0.1l-0.4-0.3l-0.2-0.2c0,0,0,0-0.1-0.1c-0.1-0.2-0.6-0.8-0.6-0.9l-0.6-1
		c-0.9-1.7-2-3.1-3.6-4.2c-3-2.2-7.1-2.7-10.7-3.1c-4.5-0.5-9-0.9-13.4-0.1c-0.9,0.2-1.7,0.4-2.5,0.6l0.1-0.1l0.3-0.6
		c0.4-0.8,0.8-1.6,1.3-2.3l0.5-0.6l0.2-0.3h0.1l0.9-1.1c0.7-0.8,1.4-1.5,2.2-2.1l0.5-0.4l0.1-0.1l0.4-0.3l1.2-0.9
		c0.9-0.6,1.9-1.1,2.9-1.5c0.7-0.3,1.1-1.4,0.9-2.1c-0.3-0.8-1-1.4-1.8-1.4c-4.4,0.2-8.9,0.8-13.2,1.8c-2.1,0.5-4.1,1.1-6.1,1.9
		c-1.8,0.7-3.6,1.4-5.1,2.4c-0.9,0.6-1.8,1.4-2.5,2.4c-0.6,0.9-1,2-1.1,3.1c-0.1,1,1,1.9,1.9,1.9s1.8-0.8,1.9-1.9c0,0.6,0,0,0.1-0.1
		c0-0.1,0-0.2,0.1-0.3c0,0,0,0,0-0.1l0.1-0.2l0.2-0.2l0.1-0.2c0.1-0.1,0.2-0.2,0.2-0.3c0.2-0.1,0.3-0.3,0.4-0.4
		c0.2-0.1,0.3-0.2,0.4-0.3l0.2-0.2c0.7-0.5,1.4-0.8,2.1-1.2l0.5-0.2h0c0,0,0,0,0.1,0l0.1,0c0.5-0.2,1-0.4,1.5-0.6
		c3.5-1.3,7.1-2.2,10.8-2.8c-1.1,1-2.1,2.1-3.1,3.3c-1.2,1.6-2.1,3.3-2.9,5.2c-0.5,1.3-0.7,2.7,0.4,3.8c0.8,0.7,1.9,1.1,3,0.9
		c1.1-0.1,2.1-0.4,3.1-0.6l1.5-0.3h0.5l1.1-0.1c2.3-0.1,4.6,0,6.9,0.2c1.1,0.1,2.2,0.2,3.3,0.3l0.6,0.1h0.5l1.3,0.2
		c0.9,0.2,1.8,0.4,2.7,0.6c0.5,0.1,0.9,0.3,1.3,0.5l0.3,0.1h0l0.6,0.3l1.2,0.8l0.1,0.1h-0.1c0.1,0,0.2,0.2,0.3,0.2l0.5,0.5l0.4,0.5
		c0,0,0,0,0,0l0,0l0,0l0,0l0.2,0.3l0.7,1.2c0.5,0.9,1,1.8,1.7,2.6c0.7,0.9,1.7,1.7,2.8,2C210.7,70.4,211.9,69.6,212.1,68.7z
		 M165.4,52.4C165.4,52.3,165.4,52.3,165.4,52.4C165.5,52.3,165.2,52.6,165.4,52.4z"/>
	<path style="stroke:#000000;stroke-width:3;stroke-linecap:round;stroke-linejoin:round;stroke-miterlimit:10;" d="M316.7,145.8
		c0-0.6-0.2-1.1-0.3-1.7l-0.1-0.2c-0.6-2.8-1.5-5.6-2.8-8.2c-1.5-2.9-3.3-5.6-5.5-7.9c-2.1-2.4-4.4-4.5-6.7-6.7s-4.8-4.5-7.4-6.6
		c-1.5-1.2-3.1-2.4-4.7-3.6h0.4c2,0.1,4.1,0.2,6.1,0.4c1,0.1,1.9-0.9,1.9-1.9c0-1-0.9-1.8-1.9-1.9c-2.3-0.2-4.7-0.3-7-0.4
		c-0.3-3.5-1.1-6.9-2.4-10.2c-0.8-2-1.9-3.9-3.2-5.7c-1.5-1.9-3.2-3.7-5-5.3c-2.8-2.6-5.7-5-8.5-7.6l8.3,0.4
		c1.7,0.1,2.4-2.1,1.3-3.2s-2.5-3.6-3.9-5.3s-3.3-3.2-5.3-4.4s-3.9-2.1-5.8-3.1c-1-0.5-2-1.1-2.9-1.7c-0.7-0.4-1.3-1-1.7-1.7
		l-0.1-0.2c0-0.1,0-0.2-0.1-0.3c0-0.1,0-0.2,0-0.3c0-0.1,0.1-0.3,0.1-0.4c0-0.1,0.1-0.1,0.1-0.2l0.2-0.3c0.2-0.2,0.3-0.4,0.5-0.5h0
		l0.2,0.1c1.4,1,3.1-0.6,2.7-2.1c-0.6-3.6-3.5-6.2-6.4-8c-1.4-0.9-2.9-1.7-4.3-2.6l-1-0.7l-0.5-0.3l-0.3-0.3
		c-0.3-0.3-0.6-0.6-0.8-0.9l-0.3-0.6l-0.2-0.3v-0.1c-0.7-2-0.5-3.9,0.2-5.9s-1.4-2.8-2.8-2.1c-4.5,2.3-8.9,4.7-13.2,7.4
		c0.1-2,0.6-3.9,1.5-5.7c0.8-1.5,1.5-2.9,2.4-4.2c0.9-1.4,1.9-3,1.1-4.6c-0.5-0.8-1.2-1.3-2.1-1.5c-1.1-0.3-2,0-2.9,0.3l-4.7,1.6
		c-3,1.1-6.1,2.2-9.2,3.1c-1.6,0.4-3.2,0.8-4.8,1.1c3-1.8,6.3-3,9.7-3.9c2.1-0.6,1.6-3.6-0.5-3.7c-9.5-0.4-19.1,0.6-28.4,2.6
		l-3.3,0.8c1.4-1.8,3.2-3.4,5.2-4.5c1.3-0.8,1.2-3.1-0.5-3.4c-4.4-0.8-8.8-0.2-13,1.5c-2.7,1.1-5.4,2.4-8,3.9l0.1-0.3
		c0,0,0-0.1,0-0.1v-0.1l0.5-0.9l0.8-1.8c0.6-1.2,1-2.6,1.2-3.9c0.2-1.6,0-3.2-0.7-4.6c-0.6-1.2-2.1-1-3-0.4
		c-4.7,3.6-9.1,7.5-13.2,11.7c-0.6-3.3-2.1-6.4-4.3-8.9c-1.1-1.2-3.2-0.3-3.2,1.3c0.1,2.6,0.1,5.1,0,7.7c-2.6-3.5-5.5-6.7-8.7-9.6
		c-1.4-1.2-3.6-0.1-3.2,1.8c0.8,3,0.6,6.2-0.5,9.1c-2.9-2.1-6.1-3.6-9.4-4.6c-1.1-0.3-2.4,0.6-2.4,1.8c0.1,2.3-0.3,4.7-1.2,6.8
		c-2.4-1.5-4.7-3.2-6.9-5c-0.6-0.6-1.5-0.7-2.3-0.3c-6.1,3.3-11.3,8.6-14.1,15c-0.6,1.4-1.1,2.9-2.7,3.6c-1.5,0.6-3.5,0.7-5.2,1.1
		c-3.7,0.7-7.3,1.9-10.8,3.4c-3.9,1.7-7.5,3.9-10.7,6.6c-1.4,1.1,0.1,3.8,1.8,3.1c0.5-0.3,1.2-0.1,1.4,0.4c0.3,0.3,0.3,0.7,0,1.3
		c-0.9,1.8-3.3,2.5-5.1,3.2c-4.2,1.6-7.9,4.4-9.7,8.6c-0.5,1.2,0.1,2.9,1.7,2.9l8.8-0.3c-2.5,2.6-5.5,4.7-8.3,7
		c-4,3.3-7.6,7.1-10.8,11.3c-3.1,4-6.4,8.7-7.1,13.8c-0.4,2.6,0.1,5.3-0.3,7.9c-0.3,2.1-1.1,4.2-2.3,6.1c-2.7,4.4-7,7.8-10.9,11.1
		c-0.5,0.5-0.7,1.4-0.4,2.1c0.3,0.7,0.9,1.1,1.7,1.1c2.3,0.3,4.5,0.8,6.7,1.5c-7,6.8-13.2,14.5-18.4,22.8c-1.6,2.6-3,5.2-4.4,7.9
		c-0.8,1.6,0.9,3.6,2.6,2.6c2.3-1.5,5-2.4,7.7-2.7c-0.2,4.9,1.4,9.7,4.5,13.5c0.9,1.2,2.7,0.3,3.1-0.8c3.3-8.9,8.8-16.8,15.7-23.3
		c-2.1,13-2.7,26.8,4.8,38.1c2.1,3.2,5,7.2,9.3,6.7c1.4-0.2,1.6-1.8,1.1-2.8c-2.9-6.4-3.5-13.6-1.8-20.4c0.1-0.6,0.3-1.1,0.6-1.6
		c0.1-0.2,0.3-0.4,0.4-0.5l0.3-0.2c0.3,0,0.5,0.2,0.6,0.4c0.5,0.6,0.9,1.3,1.3,2c1.8,2.6,3.9,4.9,6.3,6.9c2.9,2.4,6.2,4.2,9.7,5.6
		c1.4,0.5,2.7-1.1,2.3-2.3c-1.7-6.4-5.5-11.7-8.1-17.7c-2.1-4.8-3.2-10.6-0.6-15.3c3.2-0.1,6.4,0.7,9.2,2.4
		c-0.8,4.7-0.5,9.4,0.7,13.9c0.3,1,1.3,1.6,2.3,1.3c0.8-0.3,1.5-0.8,2-1.5l0.1-0.2c0,0.1,0,0.2,0,0.3c0,0.5,0,1,0,1.5
		c0.1,3.8,0.8,7.5,2,11c0.3,0.9,1.3,1.7,2.3,1.3c1-0.3,1.7-1.3,1.3-2.3c-0.6-1.7-1.1-3.5-1.4-5.3l-0.1-0.7c0-0.1,0-0.3-0.1-0.4v-0.1
		c-0.1-0.5-0.1-0.9-0.2-1.4c0-0.5-0.1-1.8-0.2-2.7s0-2.2-0.4-3.2c-0.3-0.8-0.8-1.5-1.5-1.9c-0.8-0.5-1.7-0.6-2.6-0.4
		c-0.3,0.1-0.6,0.2-0.8,0.3c0-0.2,0-0.3-0.1-0.5v-0.2c0-0.2,0-0.3-0.1-0.5s0-0.6-0.1-0.9s-0.1-1.3-0.1-2c0-1.2,0-2.5,0.2-3.7
		c0-0.2,0.1-0.3,0.1-0.5v-0.1c0-0.3,0.1-0.6,0.2-0.9c0.1-0.6,0.2-1.3,0.4-1.9c0.1-0.2,0.1-0.5,0-0.7c0.9-3.5,1.5-7.1,1.8-10.7
		c0.3-3.9-0.1-8-0.5-11.8c-0.2-1.4-0.2-2.8-0.2-4.2c0.1-0.9,0.5-2.2,1-2.8s2.5-1.1,3.8-1.8s2.5-2.8,2.6-4.7
		c0.6-7.4-3.6-14.1-3.8-21.4c-0.1-7.3,5.7-12.6,11-16.8c3.5-2.8,7.3-5.3,11.3-7.4c-3,3.3-5.5,6.9-7.5,10.8c-0.7,1.3,0.5,3.3,2.1,2.7
		l20.1-7c1-0.3,1.6-1.3,1.3-2.3c-0.3-0.9-1.4-1.7-2.3-1.3l-15.4,5.4c3.4-5.1,7.7-9.5,12.7-13c0.8-0.6,1.2-1.5,0.8-2.4
		c-0.4-0.9-1.3-1.3-2.2-1.1c-7.3,2.5-14.2,6.1-20.5,10.6c-3.1,2.2-6,4.7-8.7,7.4c-2.6,2.7-4.9,5.9-5.9,9.6c-2,7.6,2,14.7,3,22.1
		c0.1,0.8,0.2,1.5,0.2,2.3s0.1,1.7-0.2,2.5s-0.7,0.7-1.2,0.9c-0.9,0.2-1.7,0.6-2.5,1c-2.7,1.7-3.6,4.9-3.6,7.9c0,1.7,0.2,3.4,0.5,5
		c0.3,2.4,0.4,4.7,0.4,7.1c-0.1,3.9-0.6,7.8-1.5,11.5c-2.4-1.3-5.1-2-7.8-2.2c-0.9-0.1-1.7-0.1-2.6,0c-0.5,0-1.1,0.1-1.5,0.3
		c-0.5,0.3-0.9,0.9-1.2,1.4c-0.8,1.5-1.4,3-1.7,4.7c-1.4,7.2,1.8,14,5.1,20.2c1.3,2.3,2.4,4.7,3.5,7.1c-1.8-1-3.5-2.1-5.1-3.5
		c-1.3-1.1-2.5-2.4-3.6-3.7c-1-1.2-1.8-2.7-2.7-4s-2.9-2.6-4.8-2.1s-2.8,2-3.5,3.6s-1,3.8-1.3,5.7c-0.2,1.9-0.3,3.8-0.2,5.7
		c0.1,2.9,0.6,5.7,1.4,8.5c-0.9-1.1-1.8-2.2-2.6-3.4c-1.6-2.5-2.8-5.2-3.6-8.1c-1.9-6.4-2-13.1-1.4-19.7c0.4-4.1,1.1-8.2,1.9-12.2
		c0.3-1.9-1.7-3-3.2-1.8c-8.4,6.7-15,15.2-19.4,25c-1.6-3-2.1-6.4-1.5-9.7c0.2-1.2-0.5-2.4-1.8-2.4c-2.2,0.1-4.3,0.4-6.4,1
		c4.3-7.4,9.4-14.2,15.2-20.5c2.1-2.2,4.2-4.4,6.4-6.4c0.8-0.8,0.7-2.5-0.4-3c-2.2-0.9-4.4-1.7-6.8-2.2c2.7-2.4,5.4-4.9,7.5-7.8
		c1.3-1.8,2.4-3.8,3.2-5.9c0.8-2.5,0.9-5.1,0.8-7.7c-0.1-2.6,0.5-5.2,1.6-7.6c1.1-2.3,2.4-4.4,3.9-6.5c3-4.2,6.5-7.9,10.3-11.3
		c4.4-3.8,9.2-7,12.6-11.6c0.8-1.2-0.3-2.9-1.6-2.8l-9.7,0.3c0.8-0.9,1.7-1.7,2.6-2.4c2.4-1.6,5.2-2,7.6-3.6c2.4-1.5,4.2-4,3.4-6.8
		c-0.3-0.9-0.8-1.7-1.5-2.3c5-3.3,10.7-5.7,16.6-6.8c3.6-0.7,7.4-0.8,9.5-4.4c0.8-1.4,1.4-3,2.2-4.5c0.8-1.4,1.7-2.8,2.7-4
		c2.2-2.6,4.8-4.8,7.7-6.5c2.6,2.1,5.3,4,8.2,5.7c0.9,0.5,2,0.2,2.5-0.6l0,0c1.4-2.4,2.3-5.1,2.5-7.9c2.7,1.1,5.3,2.6,7.5,4.4
		c0.9,0.8,2.3,0.8,3-0.4c1.4-2.6,2.2-5.5,2.3-8.5c2.8,2.9,5.3,6.2,7.4,9.7c0.2,0.4,0.6,0.8,1.1,0.8h0c0.9,0.2,2.1-0.3,2.3-1.3
		c0.1-0.2,0.1-0.4,0.1-0.6c0.3-1.8,0.4-3.6,0.5-5.4c0.3,1.5,0.4,3,0.2,4.5c-0.2,1.6,2.2,2.4,3.2,1.3c4.2-4.6,8.7-8.9,13.5-12.8
		c-0.2,0.6-0.3,1.2-0.6,1.7l-0.1,0.3l-0.1,0.3l-0.4,0.9c-1.1,2.4-2.4,4.9-2.1,7.6c0.2,1.4,1.5,2.4,2.8,1.6
		c5.2-2.9,10.9-6.5,16.8-7.1c-1.9,1.8-3.5,4-4.5,6.5c-0.3,0.7-0.4,1.5,0.2,2.1c0.5,0.6,1.2,0.9,2,0.7c8.2-2.3,16.5-3.7,25-4.2
		c-2.4,1.2-4.5,2.9-6.3,4.8c-1.1,1.2-0.3,3.2,1.3,3.2c6.4,0,12.6-1.8,18.5-3.9l4.2-1.6l2.1-0.8l0.4-0.2l-0.6,1
		c-0.8,1.3-1.6,2.7-2.2,4.1c-1.5,3.3-2.3,7-1.2,10.5c0.4,1.1,1.7,1.8,2.8,1.1c3.9-2.6,8-4.9,12.1-7.1c-0.1,3.1,0.9,6.2,3.5,8.2
		c1.4,1.1,2.9,2,4.4,2.9l2.2,1.4l1,0.7l0.2,0.2l0.1,0.1l0.5,0.4l0.9,0.9c0,0.1,0.3,0.3,0.3,0.4c0.1,0.1,0.2,0.3,0.3,0.4
		c-1.1,0.6-2,1.6-2.6,2.7c-1.2,2.6,0.1,5.3,2.2,7c4,3.2,9.2,4.5,12.9,7.9c1.1,1,2,2.1,2.7,3.4l-9.2-0.4c-1.7-0.1-2.4,2.1-1.3,3.2
		c3.2,3.6,7,6.6,10.6,9.8c1.8,1.6,3.7,3.2,5.3,5.1c1.3,1.6,2.3,3.3,3.2,5.2c1.3,2.9,2,6.2,2.4,9.4c-1.4,0-3,0-3.5,1.7
		c-0.3,1,0.3,2,1.3,2.3h0.1l2.5,1.6c0,0.9,0,1.8,0,2.6c-0.1,2,0.2,4.1,0.7,6.1c1.4,4,4,7.5,7.5,9.8c1,2.6,2.3,5.1,3.4,7.6
		c0.5,0.9,0.9,1.9,1.3,2.8c0,0,0,0,0,0l0.1,0.3l0.3,0.7l0.6,1.5c0.3,0.9,0.6,1.9,0.8,2.9l0.1,0.7c0,0.2,0.1,0.3,0.1,0.5
		c0,0,0,0,0,0.1c0.1,0.5,0.1,1,0.1,1.5s0,0.8,0,1.2l-0.5-0.3c-1.3-2.8-3-5.4-4.8-7.9c-3.2-4.3-7-8.1-10.8-11.9
		c-2.1-2-4.2-4.1-6.2-6.2c-0.3-0.4-0.7-0.8-1.1-1.1c-0.3-0.3-0.6-0.5-1.1-0.5h-0.9l-0.1,0.1h-0.3l-0.2,0.1h-0.1l-0.2,0.1
		c-0.3,0.3-0.5,0.8-0.5,1.3c0.1,1.1,0.1,2.1,0.4,3.1c0.2,0.4,0.3,0.7,0.5,1.1c1.6,6.2,4.4,12.1,5.4,18.5c0,0.2,0.1,0.3,0.1,0.5
		c0,0.2,0,0.4,0.1,0.6l0.1,1.4c0,0.9,0,1.9,0,2.8L280,154c0,0.2,0,0.5-0.1,0.7s0,0.2,0,0.3v0.1c-0.2,0.9-0.3,1.8-0.5,2.8
		c-0.5,1.8-1.1,3.7-1.8,5.4l-0.1,0.3l-0.1,0.3c0,0,0,0.1-0.1,0.1l-0.1,0.3l-0.6,1.3c-0.4,0.9-0.9,1.7-1.3,2.6s-1.1,2.1-1.8,3.1
		c-0.3-1.3-0.6-2.6-1.1-3.9c-0.9-2.7-2.1-5.3-3.6-7.6c-0.5-0.9-1.7-1.2-2.6-0.6c-0.4,0.3-0.7,0.6-0.8,1.1c-0.5,1.4-1,2.8-1.5,4.1
		l-0.2,0.5c0,0.1,0,0.1-0.1,0.2l-0.5,1c-0.3,0.7-0.6,1.4-0.9,2c-1.1,2.3-2.4,4.4-3.8,6.5c0.2-2.7,0.2-5.5-0.3-8.2
		c-0.8-4.4-2.9-8.3-6.5-10.9c-1.6-1.1-3.4-1.9-5.3-2.2c-0.4-1.6-0.8-3.2-1.1-4.8l-0.2-1.4v-0.1c0,0,0-0.1,0-0.2c0-0.3,0-0.5-0.1-0.8
		c-0.1-0.9-0.2-1.8-0.2-2.8s0-1.8,0-2.7s0-0.9,0.1-1.3c0-0.4,0-0.9,0.1-1.3c0-0.3,0-0.2,0-0.2c0-0.1,0-0.2,0-0.2l0.1-0.7
		c0.1-0.5,0.2-0.9,0.3-1.4c0.2-0.9,0.5-1.7,0.8-2.6l0.2-0.5l0.1-0.3c0.2-0.4,0.4-0.9,0.6-1.3c0.2-0.4,0.4-0.8,0.6-1.1
		c0.3-0.6,0.5-1.2,0.5-1.8c0.2-1.5-0.3-3-1.3-4.2c-1.7-2.1-4.7-3-7.1-3.9l-0.9-0.3l0.1-0.1c0.9-1.9,1.8-3.8,2.7-5.7
		c0.5-0.9,1-1.9,1.5-2.8s1.1-1.9,1.5-2.9c0.9-2,1.6-4,2.1-6.1c0.5-2,0.9-3.9,1.3-6s0.8-4.2,0.6-6.4s-1-4.5-2.4-6.4
		c-0.5-0.7-1.2-1.3-1.8-1.9l-0.8-0.9c-0.5-0.5-1-0.9-1.5-1.3c-3.2-2.5-6.9-4.3-10.3-6.6c-0.9-0.6-1.8-1.3-2.7-1.8
		c-0.9-0.5-1.8-1.1-2.7-1.5c-1.9-1-3.9-1.9-5.9-2.7l-2.9-1.1c-0.9-0.3-1.9,0.2-2.2,1.1s0,1.8,0.8,2.4l1,0.7l0.3,0.3l0.3,0.3l1.8,1.5
		c1.2,1.1,2.3,2.1,3.4,3.3c1.1,1.1,2.1,2.3,3,3.5l0.1,0.2c0.2,0.2,0.3,0.3,0.4,0.5l0.7,0.9l1.3,2.2c0,0,0,0.1,0,0.1l-15.4-5.6
		c-1-0.3-2,0.3-2.3,1.3c-0.2,1,0.3,2,1.3,2.3l20,7.2c0.8,0.2,1.5-0.1,2-0.7c0.4-0.6,0.5-1.4,0.1-2.1c-1.9-3.9-4.3-7.5-7.1-10.7
		l0.3,0.2c0.9,0.6,1.8,1.2,2.7,1.8c0.9,0.6,1.8,1.2,2.7,1.7c1.7,1.1,3.4,2,5.1,3.1l1.3,0.9l0.5,0.4l0.3,0.2l0.2,0.2
		c0.7,0.6,1.3,1.2,1.9,1.9l0.8,0.8l0.4,0.5l0.1,0.1l0.2,0.3c0.2,0.3,0.4,0.7,0.6,1.1v0.1l0.1,0.3c0.1,0.3,0.2,0.6,0.3,0.8
		s0.2,0.5,0.2,0.8c0,0.2,0,0.3,0.1,0.4c0,0.5,0.1,1,0.1,1.5c0,0.5,0,0.9-0.1,1.4c0,0.2,0,0.3,0,0.4V93l-0.1,0.8
		c-0.4,2-0.8,3.9-1.2,5.9c-0.5,2-1.1,3.9-1.8,5.8l-0.2,0.6v0.1c-0.1,0.1-0.1,0.2-0.2,0.3c-0.2,0.5-0.5,1-0.8,1.5
		c-0.3,0.5-1,1.8-1.5,2.8c-1,1.8-1.9,3.7-2.8,5.6c-0.4,0.9-1,1.8-1.2,2.7c-0.3,1.2,0,2.4,0.9,3.2c0.6,0.6,1.5,0.8,2.3,1.1l1.8,0.6
		l0.9,0.3l0.3,0.2l0.2,0.1c0.6,0.3,1.1,0.6,1.6,0.9l0.3,0.2l0.1,0.1c0.2,0.2,0.4,0.3,0.5,0.5c0,0,0,0,0.1,0.1l0.2,0.3
		c0,0.1,0.1,0.2,0.1,0.3c0-0.1,0-0.1,0,0c0,0.1,0,0.1,0,0.2h0c0,0.1,0,0.2,0,0.3v0.1h0c0,0,0,0.1,0,0.1v0.2v0.1l-0.3,0.3l-0.3,0.5
		l-0.6,1.3c-3.1,7-2.8,14.9-1.1,22.2c0.2,0.9,0.4,1.7,0.7,2.5c0,0.1,0,0.1,0,0.2c0.3,2.1,0.3,4.2,0.2,6.3c0,0.5-0.1,1-0.2,1.5
		c0,0,0,0,0,0.1c0,0,0,0.3,0,0.4l-0.1,0.7c-1.5-1-3.6-0.3-4.5,1.1s-0.8,2.7-0.9,4.1s-0.2,1.7-0.3,2.6c0,0.2-0.1,0.4-0.1,0.6
		c0,0.1,0,0.1,0,0.2l-0.2,1.4c-0.3,2-0.8,3.8-1.5,5.7c-0.3,0.9,0.4,2.1,1.3,2.3s1.9-0.3,2.3-1.3c1.2-3.1,1.7-6.3,2.1-9.6l0.2-2.3
		c0-0.3,0.1-0.6,0.1-0.9l0.1,0.2c0.5,0.8,1.2,1.3,2,1.6c1,0.2,2-0.3,2.3-1.3c1-3.5,1.5-7.2,1.3-10.9l0.5,0.2l0.3,0.1l0.6,0.3
		c0.4,0.2,0.8,0.5,1.2,0.7l0.5,0.3l0.3,0.2c0.3,0.3,0.7,0.6,1,0.9l0.8,0.9l0.2,0.2l0.4,0.6c0.3,0.4,0.5,0.8,0.7,1.2
		c0.1,0.3,0.2,0.5,0.3,0.7c0,0,0,0,0,0l0.2,0.5c0.4,0.9,0.6,1.9,0.8,2.9l0.1,0.7c0,0.1,0,0.2,0,0.2v0.2c0.1,0.5,0.1,1.1,0.2,1.6
		c0,1.1,0,2.2,0,3.3c-0.1,2.6-0.4,5.3-0.6,7.9c0,0.8,0.5,1.4,1.2,1.7c0.7,0.3,1.5,0.2,2.1-0.4c4-4.9,7.3-10.4,9.8-16.2l0.3-0.8
		l0.2,0.3c0,0.1,0.1,0.3,0.2,0.4c0,0.1,0.1,0.2,0.1,0.3c0.2,0.5,0.4,1,0.6,1.5c0.8,2.2,1.3,4.5,1.7,6.8c0,0.1,0,0.2,0,0.2h0L270,175
		c-0.9,0.3-1.7,1.3-1.3,2.3c0.3,0.9,1.1,1.4,2,1.4c0.1,0.9,0.1,1.8,0.2,2.7c0,0.9,0.1,2.5,0.1,3.8c0,0.6,0,1.2-0.1,1.9
		s0,0.6-0.1,0.9c0,0.3,0,0.3,0,0.3c0,0.2-0.1,0.3-0.1,0.5c-0.5,2.9-1.5,5.7-2.4,8.5c-0.3,1,0.3,2,1.3,2.3c0,0,0,0,0,0
		c1,0.2,2-0.3,2.3-1.3c0.9-2.6,1.7-5.1,2.3-7.8c0.6-2.7,0.6-5.5,0.5-8.3c0-1.8-0.2-3.7-0.4-5.5c1.5-1.4,2.5-3.2,3.5-5
		c1.9-3.4,3.6-6.9,4.7-10.6c1.2-3.9,1.7-7.9,1.4-11.9c-0.3-4.1-1.5-8-2.8-12c-0.7-2-1.4-4.1-2-6.1c2.4,2.4,4.8,4.7,7.2,7.1
		c1.8,1.8,3.5,3.8,5,5.7l0.3,0.4c0,0,0,0,0,0.1h0l0.6,0.8c0.4,0.5,0.8,1.1,1.2,1.7s1.4,2,2,3.1c0.6,1.1,0.7,1.2,1,1.9l0.5,1
		c0.1,0.2,0.2,0.3,0.2,0.4l0.1,0.2c0,0.1,0,0.1,0,0.2c0,0.5,0.1,0.9,0.3,1.4c0.2,0.6,0.4,1.1,0.6,1.6l0.1,0.3c0,0,0,0,0,0.1
		c0,0,0.1,0.2,0.1,0.2l0.1,0.3c0.4,1.5,2.7,1.9,3.4,0.5c1.4-2.1,2.2-4.5,2.3-7.1c0.1-2.2-0.2-4.5-0.8-6.6c-1.2-4.2-3.3-8-5.1-11.9
		l-0.3-0.8c0,0-0.1-0.2-0.1-0.2c0-0.1-0.1-0.2-0.1-0.3c0,0,0-0.1,0-0.1c0.1-0.2,0.1-0.3,0.2-0.5l0.4,0.3l0.6,0.4l0.3,0.3l1.1,0.9
		c0.7,0.7,1.3,1.4,2,2.1c2.6,2.9,4.8,6,7.3,9c0.7,0.8,1.3,1.7,2.1,2.3c0.9,0.6,1.7,1.2,2.5,1.9c0.2,0.1,0.3,0.2,0.5,0.2
		c0.3,0.1,0.6,0.1,0.9,0l0.4-0.2c0.6-0.3,1-0.9,1-1.5C316.7,146,316.7,145.9,316.7,145.8z M95.1,168C95.1,168,95.1,168,95.1,168
		C95.1,168,95.1,168,95.1,168z M92,167C92,167,92,167,92,167C92,167,92,167,92,167z M235.2,27.2L235.2,27.2L235.2,27.2z M235.1,27.3
		C235.1,27.2,235.3,26.9,235.1,27.3L235.1,27.3z M244.2,87.3C244.2,87.4,244.2,87.4,244.2,87.3L244.2,87.3z M238.7,120.1
		c0,0,0-0.1,0-0.1c0,0,0,0,0-0.1C238.7,119.9,238.7,120,238.7,120.1z M308.8,137c-1.2-1.5-2.4-3.1-3.7-4.6c-1.3-1.6-2.8-3.1-4.4-4.4
		c-1.7-1.2-3.6-2.1-5.4-3c-0.2-0.1-0.4-0.2-0.6-0.3c-0.6-0.2-1.3,0-1.8,0.5l-0.2,0.2c-1.3-1.4-2.3-3-2.9-4.8c-0.7-2-0.8-3.3-0.7-5.3
		l0.1,0.1h0c0,0.1,0.1,0.1,0.2,0.2l1,0.8c2.6,2,5,4.2,7.3,6.4c2.3,2.2,4.6,4.3,6.7,6.6l1.6,1.7l0.7,0.9l0.3,0.5l0.1,0.1l0.1,0.2
		c0.9,1.2,1.7,2.5,2.5,3.8c0.4,0.8,0.8,1.6,1.2,2.4l0.1,0.3c0,0,0,0.1,0,0.1c0.1,0.2,0.2,0.4,0.3,0.6l0.2,0.4L308.8,137z"/>
</g>
</svg>
