<?xml version="1.0" encoding="utf-8"?>
<!-- Generator: Adobe Illustrator 27.9.0, SVG Export Plug-In . SVG Version: 6.00 Build 0)  -->
<svg version="1.1" id="Layer_1" xmlns="http://www.w3.org/2000/svg" xmlns:xlink="http://www.w3.org/1999/xlink" x="0px" y="0px"
	 viewBox="0 0 369.8 218.8" style="enable-background:new 0 0 369.8 218.8;" xml:space="preserve">
<g>
	<path style="stroke:#000000;stroke-width:3;stroke-linecap:round;stroke-linejoin:round;stroke-miterlimit:10;" d="M165.7,99.6
		C165.6,99.6,165.6,99.7,165.7,99.6L165.7,99.6z"/>
	<path style="stroke:#000000;stroke-width:3;stroke-linecap:round;stroke-linejoin:round;stroke-miterlimit:10;" d="M267,185.8
		C267,185.8,267,185.8,267,185.8L267,185.8z"/>
	<path style="stroke:#000000;stroke-width:3;stroke-linecap:round;stroke-linejoin:round;stroke-miterlimit:10;" d="M340.6,131.9
		c-0.8-3-1.9-6-3.1-8.9c-0.6-1.6-1.3-3.1-1.9-4.6s-1.1-2.9-2-4.1c-0.8-1.3-1.7-2.5-2.4-3.8c-0.7-1.3-1.4-2.7-2.2-4
		c-1.5-2.6-3-5.2-4.6-7.8c-1.6-2.5-3.3-5-5.1-7.5c-1.7-2.5-3.6-5.2-5.7-7.6c-3.8-4.4-8.1-8.1-12.7-11.6c-2.2-1.7-4.5-3.4-6.9-5.1
		c-2.4-1.7-4.8-3.2-6.8-5.1c-4-3.6-6.9-8.2-9.8-12.8s-5.9-9.6-10.7-12.8c-4.7-3.2-10.4-4-15.6-1.8c-2.5,1.1-4.8,2.7-7.3,3.6
		c-2.5,1-5.8,1-8.8,0.8l-2.4-0.2l-0.8-0.1v-0.1c0.3-0.5,0.6-0.8,0.9-1.1c1.1-1.1,0.3-3.2-1.3-3.2c-10.2,0.2-20.2,2.6-29.2,7.3h-0.6
		c1.7-3.4,4-6.5,6.6-9.1c0.6-0.6,0.7-1.5,0.3-2.2c-0.4-0.7-1.3-1.2-2.1-0.8c-4,1.6-7.7,3.7-11.2,6c-1.8,1.2-3.5,2.5-5.2,3.8
		l-2.4,2.1l-1.1,1h0l-0.3-0.6c-0.3-0.8-0.6-1.6-0.9-2.4c-0.6-1.5-1-3-1.4-4.5c-0.8-3.1-1.2-6.3-1.3-9.5c-0.1-1.5-2.1-2.5-3.2-1.3
		c-4.5,4.9-6,11.6-5.4,18.1c-5.7-4.1-12-7.4-19.1-7.9c-1.3-0.1-2.5,1.7-1.6,2.8s2.1,2.5,3,3.8c-7.6-4.1-16.1-6.3-24.8-6.5
		c-1.7,0-2.4,2.1-1.3,3.2c0.3,0.3,0.6,0.8,0.8,1.1l-2,0.2c-1.6,0.2-3.2,0.2-4.7,0.1c-1.4-0.1-2.7-0.4-4.1-0.9
		c-1.3-0.6-2.5-1.3-3.6-2.1c-2.5-1.6-5.2-2.9-8.3-2.6c-2.5,0.2-4.9,1-7,2.3c-7.5,4.5-10.6,13.4-14.9,20.6
		c-2.8,4.5-6.7,7.9-10.9,11.1c-4.8,3.7-9.3,7.4-13.3,12.1c-8.1,9.3-14.1,20.2-19.5,31.1c-5.4,10.9-10,22.8-9.8,35.3
		c0,1.6,0.2,3.1,0.3,4.6c0.1,0.8,0.4,1.4,1.1,1.7c0.7,0.3,1.5,0.1,2.1-0.4c0.9-0.9,1.8-1.8,2.6-2.7c0.1,8.1,2.6,15.8,7.2,22.5
		c0.5,0.9,1.7,1.1,2.5,0.6c0.4-0.3,0.7-0.6,0.8-1.1l2.8-9c3.3,8.8,8.7,16.7,14.7,23.9c0.1,0.2,0.3,0.3,0.5,0.4
		c0.3,0.2,0.6,0.2,0.8,0.2c0.6,0,1.2-0.4,1.6-0.9c0.5-0.7,0.8-1.5,1-2.3c1-3.7-0.2-7.8-1.9-11.2c-0.4-0.8-0.8-1.7-1.3-2.5
		c4.6,6.7,9.6,13.1,14.9,19.3c0.8,1,2.9,0.5,3.1-0.8c0.5-2.6,0.8-5.3,0.9-7.9c0.6,1,1.4,1.9,2.4,2.7c2.9,2.6,7.4,3.6,10.9,1.8
		c4.1-2.1,4.8-7.7,4.6-11.9c-0.2-2.2-0.4-4.5-0.6-6.7c-0.2-2.4-0.6-4.8-1.1-7.1c-2.1-9.3-5.7-18.4-5-28.1c0.6-8.3,3.9-16.4,8.2-23.4
		c1.8-2.9,3.7-5.6,5.8-8.2c-1.4,3.4-2.5,6.8-3.5,10.4c-0.3,1.1,0.7,2.4,1.7,2.4c-1,1.9-1.8,3.8-2.6,5.7c-2.2,5.2-3.8,10.8-4.2,16.4
		c-0.3,2.8-0.2,5.6,0.5,8.3c0.4,1.9,3.1,1.7,3.6,0c0.3-1,0.6-1.9,1-2.9s0.6-1.5,0.8-2.3c-0.1,0.8-0.2,1.7-0.3,2.5
		c-0.4,3.8-0.6,7.5-0.5,11.3c0,0.8,0.6,1.6,1.3,1.8c0.8,0.2,1.8-0.1,2.1-0.8c3.5-8.3,7-16.6,10.9-24.7c2.9-6,6.6-12.9,12.8-16.1
		c3.6-1.9,8.2-2,11.7,0.3c0.8,0.6,2.1,0.2,2.5-0.7c0.5-0.8,0.2-2-0.6-2.5l0,0c-3.8-2.5-8.6-2.8-12.9-1.4c-3.6,1.2-6.7,3.7-9.2,6.6
		c-5.4,6.3-8.7,14.3-12,21.8c-0.8,1.9-1.7,3.8-2.5,5.7l0.1-1c0.3-3.6,0.8-7.2,1.6-10.7c0.3-1.3-0.9-2.8-2.3-2.3
		c-2.4,0.8-3.7,3.3-4.7,5.6c0.2-1.7,0.6-3.4,1-5.1c1.3-5.1,3.2-10.1,5.8-14.7c1.2-2.3,2.6-4.4,4.2-6.5c0.6-0.7,0.8-1.7,0.2-2.5
		c-0.6-0.8-1.6-1-2.4-0.5l-2.3,1.8c2.4-7,5.8-13.5,10.3-19.3c0.6-0.8,0.2-1.9-0.5-2.4c-0.8-0.6-1.7-0.5-2.4,0.2
		c-11.2,11.4-22.1,24.1-25.8,40c-1.1,4.5-1.4,9.1-1,13.7c0.4,4.8,1.6,9.5,2.9,14.2c1.3,4.6,2.5,8.6,3,13.1c0.3,2.2,0.4,4.3,0.6,6.5
		s0.4,4,0,5.9c-0.4,1.9-1.1,4-3,4.6c-1.6,0.5-3.3,0.3-4.8-0.5c-3.4-1.8-4.8-6.2-6-9.6c-0.7-1.9-3.7-1.7-3.6,0.5
		c0.1,3.8-0.1,7.4-0.5,11.2c-6.5-7.9-12.5-16.2-17.9-24.9c-0.8-1.2-3.1-1.2-3.4,0.5c-0.8,4.9,1.4,9.2,3.6,13.5
		c1.3,2.5,2.8,5.6,2.6,8.5c-5.9-7.6-11-16-13.5-25.4c-0.5-1.8-3.1-1.7-3.6,0c-1.1,3.6-2.2,7.2-3.3,10.8c-3.6-6.5-5.3-14-4.3-21.5
		c0.1-0.8-0.1-1.7-0.8-2.1c-0.8-0.4-1.7-0.3-2.3,0.3L37,146c-0.3-11.1,3.6-21.9,8.4-31.9c5.4-11.2,11.4-22.6,19.7-32.1
		c2-2.4,4.1-4.5,6.4-6.6c2.3-2.1,4.7-3.9,7.1-5.7c2.5-1.8,4.8-3.8,6.9-5.9c1.7-1.9,3.3-3.9,4.6-6c2.3-3.8,4.1-7.8,6.5-11.6
		c2.4-3.8,4.8-6.7,8.7-8.3c1-0.5,2.1-0.8,3.1-0.9c1.3-0.2,2.7,0,4,0.5c1.3,0.6,2.5,1.4,3.7,2.2c1.3,0.8,2.5,1.4,4,2
		c3.1,1.1,6.6,1.1,9.9,0.8l2.2-0.2l1.1-0.2h0.2l0.5-0.1c1.6-0.5,1.7-2.5,1.3-3.8c9.3,0.8,18.3,4.2,25.9,9.8c1.5,1.1,3.6-1.1,2.5-2.5
		l-0.1-0.2c0-0.2-0.1-0.3-0.2-0.5c-0.2-0.5-0.3-0.9-0.5-1.3c-0.4-0.8-1.1-1.7-1.6-2.5c-0.5-0.8-1-1.6-1.6-2.4
		c5.9,1.6,11.2,5.3,15.9,9.2c1.4,1.1,3.6,0.1,3.1-1.8c-1.3-4.9-1.3-10.6,0.8-15.3c0.6,4.8,2,9.4,4.1,13.8c0.8,1.6,2.5,2.5,4.2,1.6
		c0.6-0.4,1.2-0.9,1.7-1.5c0.6-0.5,1.1-1.1,1.8-1.6c2.3-2,4.7-3.8,7.3-5.4l1.8-1.1c-1.9,2.9-3.3,6-4.4,9.3c-0.2,0.8,0.1,1.7,0.8,2.1
		c0.8,0.5,1.6,0.2,2.2-0.3c0.7-0.5,1.4-1,2.1-1.5c0.3,0,0.6-0.1,0.8-0.3c8-4.5,17-7.3,26.2-7.9l-0.1,0.2c-0.4,1.5,0.1,3.5,1.8,3.9
		c0.8,0.2,1.7,0.2,2.6,0.3l2.5,0.2c1.6,0.1,3.2,0.2,4.9,0c1.6,0,3.2-0.3,4.7-0.8c1.4-0.5,2.9-1.2,4.2-1.9c2.3-1.2,4.6-2.6,7.2-2.9
		c5.2-0.6,9.9,2.4,13.1,6.3c3.3,3.9,6.1,9.3,9.3,13.9c1.7,2.5,3.5,4.7,5.7,6.8c2.2,2.1,4.7,3.8,7.2,5.5c4.7,3.3,9.3,6.7,13.6,10.6
		c2.2,2,4.3,4.1,6.3,6.5c2,2.4,3.8,5,5.5,7.5c3.6,5.1,6.9,10.4,9.9,15.8c0.8,1.4,1.4,2.8,2.2,4.1c0.8,1.3,1.8,2.5,2.4,4
		c1.3,2.9,2.5,5.8,3.7,8.8c2.2,5.9,3.9,12.2,3.8,18.6c0,0.4,0,0.8,0,1.2l-4.1-3.9c-0.5-0.6-1.3-0.7-2-0.4c-0.6,0.3-1.2,1-1.1,1.7
		c0.9,7.8-0.8,15.9-5,22.5l-3.3-9.5c-0.2-0.6-0.4-1.2-0.6-1.8c-0.3-1-1.3-1.6-2.3-1.3c-0.6,0.2-1.1,0.7-1.3,1.3
		c-1.3,3.9-2,7.9-2.5,12c-0.6,4.1-1.1,7.6-2.6,11.1c-0.8,1.9-1.7,3.6-2.4,5.5c-0.7,1.9-1.2,3.8-1.6,5.7v0.1l-0.1-0.3
		c-0.2-0.4-0.3-0.8-0.4-1.1c-0.1-0.4-0.7-1.8-1-2.7c-0.6-1.9-1.2-3.9-1.7-5.9c-0.2-0.9-0.4-1.8-0.6-2.7c-0.2-0.9-0.1-0.8-0.2-1.2
		c0,0,0-0.1,0-0.1v-0.1c0-0.2,0-0.4-0.1-0.6c0-0.4,0-0.8,0-1.1v-0.5h0c0,0,0,0,0-0.1V173h0v0c0.3-0.2,0.5-0.8,0.6-1.1l0.7-1.2
		c2.2-3.7,4.1-7.7,3.3-12.1c-0.2-0.7-0.8-1.3-1.6-1.3c-0.8-0.1-1.4,0.3-1.9,0.9c-6.1,8.5-12.7,16.7-19.8,24.4
		c0.2-1.3,0.6-2.5,0.8-3.6c0.7-2.9,1.6-5.8,1.6-8.7c0-1.3-1.6-2.4-2.8-1.6c-3,2.2-5.7,4.9-8.6,7.3l-2.4,2l-0.5,0.4h0l-0.2,0.2
		l-1.1,0.8c-1.4,1.2-2.6,2.7-3.9,4.1l-1,1l-0.5,0.5l-0.3,0.2h-0.1c0,0,0,0-0.1,0.1l-0.8,0.5l-0.3,0.1h-0.1c0,0,0,0,0,0h-0.1
		c0,0,0,0,0,0l-0.3-0.2l-0.1-0.2l-0.3-0.5c0-0.1,0-0.2-0.1-0.2c-0.2-0.4-0.3-0.8-0.4-1.2l-0.1-0.6c0-0.2-0.1-0.3-0.1-0.5
		c0-0.1,0-0.4-0.1-0.5s0-0.6,0-0.8c-0.1-1-0.1-2-0.1-3c0-1.8,0.2-3.6,0.3-5.4c0-2.4,0.3-4.8,0.6-7.2c0.5-3,1.2-5.9,2.2-8.8
		c1.7-4.9,4.6-9.2,6.5-14.1c1-2.4,1.6-4.9,1.7-7.4c0.1-2.6-0.3-5.2-1-7.8c-1.6-5.3-4.4-10.1-7.4-14.8c-2.9-4.6-6.1-9.4-9.7-13.7
		c-3.6-4.3-8-8.6-12.2-12.6l-3.3-3.1c-1.8-1.6-4.2,0.8-2.6,2.6c5.3,6.1,9.3,13.2,12,20.8l-0.8-0.3c-1.9-0.7-3,1.9-1.8,3.1
		c5.6,6,8.6,14.1,8.7,22.3c0,0.8,0,1.5-0.1,2.3c-1.3-1.2-2.9-2.1-4.6-2.6c-1-0.3-2,0.3-2.3,1.3c-0.1,0.3-0.1,0.7,0,1
		c0.8,2.7,1.3,5.5,1.6,8.4l-3.6-7c-1.3-2.5-2.5-5.1-3.6-7.6c-1.1-2.5-1.7-4.3-2.6-6.4c-2.9-6.8-7.4-14.9-15.5-16.3
		c-2.6-0.5-5.4-0.2-8,0.3c-2.9,0.5-5.6,1.6-8,3.1c-2.1,1.2-0.2,4.4,1.9,3.2c3.8-2.3,8.4-3.6,12.8-3.1h0.3l0.7,0.2l1.3,0.4l0.6,0.2
		l0.3,0.2c0.4,0.2,0.8,0.4,1.1,0.6c0.7,0.4,1.3,0.9,1.9,1.4c0.6,0.6,1.3,1.2,1.8,1.9c1.1,1.4,2.1,2.8,3,4.4c0.9,1.6,1.7,3.3,2.5,5.1
		c0.2,0.3,0.2,0.5,0.4,0.9c0.2,0.4,0.3,0.8,0.5,1.3c0.5,1.3,1,2.5,1.5,3.8c1,2.4,2.1,4.8,3.3,7.1c2.6,5.4,5.5,10.7,8.1,16.1
		c0.8,1.7,3.5,0.8,3.5-1c0.1-4.7-0.3-9.3-1.3-13.9c0.8,0.8,1.4,1.7,1.8,2.7c0.2,0.8,1,1.4,1.8,1.4c0.8,0,1.6-0.6,1.8-1.4
		c1.9-9,0.4-18.4-4.2-26.4l-1-1.6c0.8-0.4,1.3-1.3,1.1-2.3c-1.1-3.9-2.5-7.6-4.3-11.3l0.5,0.5c2,2.1,3.9,4.3,5.6,6.7
		c1.7,2.2,3.2,4.5,4.6,6.8c3,4.6,6,9.2,7.9,14.3c0.9,2.4,1.4,4.8,1.6,7.3c0.1,2.5-0.5,4.9-1.3,7.3c-1.8,4.9-4.8,9.3-6.6,14.2
		c-2.1,5.4-2.8,11.2-3.1,17c-0.2,3.8-0.6,7.7,0.1,11.5c0.3,1.7,0.9,3.5,2.2,4.6c1.3,1.1,3.7,1.3,5.5,0.2c1.7-1.1,3-2.7,4.4-4.2
		c0.6-0.7,1.2-1.4,1.9-2.1l0.5-0.4c-0.1,0.1-0.1,0.1-0.1,0.1c0.1-0.1,0.2-0.2,0.3-0.2l1.3-1c2.5-1.9,4.8-4.1,7.2-6.2
		c-1,4.3-2.7,8.7-1.9,13.1c0.3,1.4,2.2,1.7,3.1,0.8c6.5-6.8,12.5-13.9,18.2-21.3l-1.1,1.9c-0.6,0.9-1.3,1.9-1.5,3
		c-0.1,0.7-0.2,1.4-0.1,2.2c0.3,4,1.4,8,2.6,11.8c0.6,1.9,1.3,3.8,2.2,5.7c0.6,1.2,1.2,2.7,2.4,3.4c1.1,0.8,3.3-0.2,3.8-1.9
		s0.5-3,0.8-4.5c0.5-2,1.1-3.9,1.9-5.7c0.9-2.1,1.9-4.1,2.6-6.4c0.6-2.2,1.1-4.3,1.4-6.5c0.4-2.7,0.8-5.4,1.3-8.1
		c0.8,2.4,1.6,4.6,2.4,7c0.2,0.6,0.4,1.2,0.6,1.8c0.4,1.2,2.2,2,3.1,0.8c5.3-6.6,8.2-14.7,8.3-23.2l3.4,3.2c0.9,0.9,2.9,0.6,3.1-0.8
		C343,144.4,342.3,138.1,340.6,131.9z"/>
	<path style="stroke:#000000;stroke-width:3;stroke-linecap:round;stroke-linejoin:round;stroke-miterlimit:10;" d="M214.2,81.4
		c0.6-0.6,1-1.3,1.2-2.1c0.2-0.9,0-1.8-0.7-2.5c-0.9-1-2.4-1.3-3.7-1.5c-1.2-0.2-2.5-0.1-3.7,0c1.2-1.2,2.5-2.4,3.8-3.5l0.4-0.3h0
		l0.3-0.2l0.8-0.6c0.5-0.3,1.1-0.6,1.7-0.8h0.2l0.5-0.2l1-0.3c0.6-0.2,1.2-0.3,1.8-0.5l0.4-0.1h0.2l0.8-0.1c1.1-0.1,2.2,0,3.3,0
		c3,0.2,6,0.6,9.1,0.5c1,0,1.9-0.8,1.9-1.9c0-1-0.8-1.9-1.9-1.9c-2.8,0-5.6-0.1-8.3-0.4c-2.5-0.2-5-0.2-7.4,0.4
		c-2.4,0.6-4.5,1.6-6.4,3.1c-1.7,1.4-3.4,2.9-5,4.4c-0.8,0.8-1.6,1.7-2.4,2.6c-0.7,0.7-1.2,1.5-1.6,2.4c-0.3,0.8-0.4,1.6,0.3,2.3
		c0.6,0.6,1.5,0.7,2.3,0.3c0.3-0.2,0.6-0.3,0.8-0.5l0.4-0.2h0.1c-0.1,0.1-0.2,0.2,0,0h0.1c0.7-0.3,1.4-0.5,2.1-0.6
		c0.4,0,0.7-0.1,1.1-0.2h0.7c0.7-0.1,1.4-0.1,2.1,0h1c0,0,0,0-0.1,0.1c-0.3,0.3-0.5,0.5-0.8,0.7l-0.2,0.2l-0.5,0.3l-0.4,0.2
		l-0.5,0.2l-0.6,0.2c-1.7,0.6-3.4,1.4-5,2.4c-3.1,1.9-5.8,4.4-8,7.4c-2.4,3.2-4,6.9-4.7,10.8c-0.2,1,0.3,2.1,1.3,2.3
		c1,0.2,2.1-0.3,2.3-1.3c0.2-0.9,0.4-1.8,0.6-2.6c0.1-0.5,0.3-0.8,0.4-1.3l0.2-0.6l0.1-0.3c0-0.1,0-0.2,0.1-0.2
		c0.7-1.6,1.5-3.2,2.5-4.6l0.4-0.6l0.2-0.3l0.8-1c0.6-0.7,1.2-1.3,1.9-1.9l1-0.9l0.5-0.4l0.3-0.2h0.1c0.7-0.5,1.4-1,2.2-1.5
		c0.8-0.5,1.6-0.9,2.4-1.3l0.3-0.2h0.2l0.5-0.2c0.4-0.2,0.8-0.3,1.3-0.5C211.8,83.8,213.2,82.7,214.2,81.4z"/>
	<path style="stroke:#000000;stroke-width:3;stroke-linecap:round;stroke-linejoin:round;stroke-miterlimit:10;" d="M159.2,82.6
		c-0.9-0.6-1.8-1.3-2.7-1.8l1.9,0.1c1.1,0.1,2.2-1.3,1.8-2.4c-0.7-1.7-1.7-3.3-2.8-4.8c-1.1-1.6-2.3-3.1-3.8-4.3
		c-0.9-0.7-1.9-1.3-3-1.8c-1.1-0.6-2.4-1-3.6-1.4c-2.2-0.7-4.5-1-6.8-1.1c-2.7,0-5.5,0.1-8.2,0.5c-0.9,0.1-1.9,0.8-1.9,1.9
		s0.8,2,1.9,1.9c2.4-0.3,4.7-0.5,7.1-0.6c1.1,0,2.1,0,3.2,0.2h0.5l0.7,0.1l1.6,0.3l1.6,0.5l0.7,0.2l0.4,0.2h0.1l0.2,0.1
		c1.1,0.5,2.1,1,3,1.6L151,72l0.3,0.3c0.3,0.3,0.6,0.6,0.9,0.8L153,74l0.5,0.6l0.2,0.3l0.2,0.2c0.3,0.4,0.6,0.8,0.8,1.2l0.5,0.8
		c-1.6,0.1-3.2,0.3-4.8,0.7l-0.2,0.1h-1c-0.8-0.1-1.6,0-2.4,0.3c-0.6,0.3-0.9,0.9-0.9,1.6c0,0.8,0.6,1.6,1.4,1.8
		c0.5,0.2,1.2,0,1.7,0h0.1c0.8,0.2,1.6,0.4,2.4,0.7l0.3,0.1h0l0.7,0.3l1.4,0.7c1,0.6,2,1.2,2.9,1.8l0.7,0.5l0.3,0.3l0.1,0.1l1.4,1.2
		c0.9,0.8,1.8,1.7,2.6,2.6l0.6,0.7l0.2,0.2v0c0,0,0,0.1,0.1,0.2c0,0,0,0,0.1,0.1c0,0,0,0,0,0c0.3,0.5,0.7,0.9,1,1.4
		c0.3,0.5,0.6,1,0.8,1.5l0.3,0.7c0,0,0,0.1,0,0.1c0,0,0.1,0.3,0.2,0.5c0.2,0.6,0.4,1.1,0.5,1.7c0,0.1,0,0.2,0.1,0.3v0.2
		c0,0.3,0,0.6,0,0.8c0,0.3,0,0.6,0,1v0.1c0,0.1,0,0.2-0.1,0.4c-0.1,0.6-0.3,1.3-0.6,1.9c-0.4,0.9,0.4,2.1,1.3,2.3
		c0.9,0.2,1.9-0.3,2.3-1.3c2.2-5.2-0.2-10.6-3.5-14.6C163.4,86,161.4,84.1,159.2,82.6z M165.7,99.6
		C165.6,99.7,165.6,99.6,165.7,99.6L165.7,99.6z"/>
</g>
</svg>
