<?xml version="1.0" encoding="utf-8"?>
<!-- Generator: Adobe Illustrator 27.9.0, SVG Export Plug-In . SVG Version: 6.00 Build 0)  -->
<svg version="1.1" id="Layer_1" xmlns="http://www.w3.org/2000/svg" xmlns:xlink="http://www.w3.org/1999/xlink" x="0px" y="0px"
	 viewBox="0 0 219.9 188.3" style="enable-background:new 0 0 219.9 188.3;" xml:space="preserve">
<g>
	<path style="stroke:#000000;stroke-width:3;stroke-linecap:round;stroke-linejoin:round;stroke-miterlimit:10;" d="M201.1,120.4
		c-1.1-3.1-2.8-5.9-4.5-8.7l-5.4-8.9l-1.5-2.5c-0.4-0.7-1-1.4-1.1-2.2c-0.1-0.8,0.1-0.4,0.4-0.5h0.3c0.7,1.2,2.9,0.7,2.7-0.8
		c-0.6-4.9-2.1-9.6-4.6-13.9l0.9,0.3c1.2,0.4,2-0.8,1.8-1.8c-0.9-5.1-2.6-10.1-5-14.7c-0.6-1.2-1.2-2.3-1.9-3.5s-1.4-2.1-2-3.3
		c-0.2-0.4-0.4-0.8-0.4-1.2c0-0.1,0-0.1,0.1-0.2v0c0,0-0.1,0,0.2-0.2c0.2-0.1,0.4-0.2,0.7-0.2h0.3c0.5,0.7,1.4,0.8,2.1,0.3
		c0.6-0.4,0.8-1.2,0.4-1.9l-0.3-0.4c-4.6-6.1-9.8-11.7-15.6-16.7c1-0.2,2-0.1,2.9,0.3c0.7,0.4,1.4,0.2,1.9-0.4
		c0.4-0.6,0.4-1.5-0.1-2c-7.3-6.2-16-10.7-25.2-13.5c-2.2-0.7-4.3-1.2-6.6-1.7c0.5-0.7,1.1-1.3,1.8-1.7c1.3-0.7,0.7-2.7-0.7-2.7
		c-10.3-0.3-20.6,1.4-30.3,4.9c-0.2-0.1-0.4-0.3-0.6-0.4c-5.2-1.7-10.6-2.6-16-2.7c-1.5,0-2,2-0.8,2.8l0.5,0.3l0.1,0.1l0.2,0.1
		l0.4,0.4c-6.7,0.3-13.5,0.7-20,2.3c-2,0.5-4,1.2-5.9,2c-0.6,0.2-1.1,0.7-1.1,1.4c0,0.7,0.4,1.2,1.1,1.4c0.8,0.2,1.6,0.5,2.3,0.7
		c-4.4,2-8.6,4.3-12.5,7c-4.8,3.2-9.2,6.9-13.1,11.1c-2.2,2.3-4.2,4.8-6,7.4c-0.4,0.7-0.1,1.6,0.5,2c0.4,0.2,0.8,0.2,1.2,0.1
		l0.4-0.1h0.3c0.3,0,0.6-0.1,0.9,0h0.3l0.2,0.1c-0.1,0.4-0.4,0.9-0.5,1.3c-0.4,0.9-0.7,1.7-0.9,2.6c-1.1,3.5-1.6,7.2-1.5,11
		c0,1.8,0.2,3.5,0.5,5.3c-7,6.6-12.9,14.1-17.7,22.4c-0.7,1.2-1.3,2.3-1.8,3.5c-0.5,1.2-0.9,3.1,0.4,4.2c0.6,0.6,1.5,0.6,2.1,0
		l0.3-0.2l0.1-0.1c-0.4,1.2-0.8,2.4-1.2,3.6c-0.9,2.7-2,5.3-3,8c-2,5.3-3.8,10.7-4.6,16.3c-0.4,3.1-0.4,6.3,0.1,9.4
		c0.1,0.6,0.7,1,1.2,1.1c0.6,0.1,1.2-0.2,1.5-0.7c0.2-0.4,0.4-0.7,0.7-1.1l0.2-0.2l0.2-0.2l0.4-0.4c0.1,7.1,0.8,14.2,3.3,20.9
		c0.9,2.2,1.9,4.4,3.1,6.4c0.7,1.2,2.3,0.8,2.7-0.4l0.8-2.2c0.1-0.4,0.3-0.7,0.4-1.1l0.2-0.5c0,0,0-0.1,0-0.1h0.1l0.6,0.2l2.3,0.9
		l9.1,3.6l5.2,2c0.4,0.1,0.9,0,1.3-0.3c0.4-0.3,0.6-0.7,0.6-1.2c0-0.3,0.1-0.7,0.1-0.9c3-0.4,6-0.8,9-1.3c1.6-0.2,3.1-0.7,4.3-1.9
		c1.2-1.2,1.9-2.3,2.7-3.5c0.9-1.3,1.7-2.7,2.2-4.2c0.2-0.7,0.4-1.3,0.5-2c0-0.1,0-0.3,0.1-0.4v-0.1l0.1-0.4c0,0,0.1-0.3,0.1-0.3
		c0,0,0.1-0.1,0.1-0.1c0,0,0,0,0-0.1h0.1c0-0.1,0.1-0.1,0.1-0.1l0.3-0.2l0.2-0.1h0.1l0.3-0.1c0.6-0.2,1.2-0.3,1.8-0.4
		c1.4-0.3,2.6-0.9,3.7-1.7c1.2-0.9,1.9-2.2,2.2-3.6c1.9,1.2,3.8,2.2,5.9,3c0.5,0.2,1.2-0.1,1.5-0.5c0.3-0.4,0.4-1,0.1-1.5
		c0,0-0.1-0.3-0.1-0.4c-0.1-0.2-0.1-0.3-0.1-0.5c-0.1-0.2-0.1-0.4-0.1-0.5c0,0,0-0.1,0-0.1v-0.1c0-0.3,0-0.7,0-1
		c0-0.1,0.1-0.3,0.1-0.4c0-0.1,0-0.3,0.1-0.4c0.2-0.8-0.2-1.7-1-1.8c-0.8-0.2-1.6,0.3-1.8,1c-0.2,0.7-0.2,1.4-0.2,2.2l-0.3-0.2
		c-1-0.5-1.9-1.1-2.8-1.7c-0.4-0.3-0.9-0.6-1.3-0.9l-0.3-0.2l-0.1-0.1c0,0,0,0,0,0l-0.2-0.2l-0.1-0.1l-0.3-0.2
		c-0.8-0.7-1.6-1.4-2.4-2.1c-0.7-0.7-1.5-1.5-2.2-2.3l-1-1.2l-0.5-0.6v-0.1c-0.1-0.1-0.2-0.2-0.3-0.4c-1.3-1.7-2.4-3.4-3.5-5.2
		c-1.2-2-2.2-4-3.2-6.1c-0.3-0.5-0.7-0.7-1.3-0.7c-0.5,0-1,0.3-1.3,0.7c-0.3,0.4-0.6,0.9-0.8,1.4c-0.1-0.4-0.2-0.8-0.3-1.2l-0.2-0.9
		c0-0.1-0.1-0.3-0.1-0.4c0-0.1,0-0.2,0-0.3c-0.2-2.6-0.2-5.2,0.1-7.7c0-0.1,0-0.2,0.1-0.3v-0.2c0-0.1,0-0.2,0.1-0.3s0.1-0.7,0.2-1.1
		c0.1-0.4,0.2-1.4,0.4-2c0.3-1.4,0.7-2.7,1.3-4l0.1-0.1c0,0,0,0,0-0.1l0.2-0.5c0.1-0.3,0.3-0.7,0.5-1c0.3-0.5,0.6-1.1,0.9-1.6
		c0.3-0.5,0.7-0.9,1-1.4l0.1-0.1l0.3-0.3l0.6-0.7c0.5-0.5,0.9-1,1.5-1.4l0.7-0.6l0.2-0.1h0l0.4-0.3c1.2-0.8,2.4-1.5,3.7-2.1
		c0.7-0.3,0.9-1.4,0.5-2c-0.4-0.6-1.3-0.9-2-0.5c-4.8,2-8.6,6-10.8,10.6c-0.1-0.2-0.2-0.4-0.4-0.5c-0.9-0.7-1.7-1.5-2.4-2.3
		c0,0-0.1-0.1-0.1-0.1c-0.1-0.1-0.1-0.2-0.1-0.2l-0.4-0.7c-0.3-0.4-0.6-0.9-0.8-1.4c-0.3-0.5-0.4-0.9-0.7-1.3c0-0.1-0.1-0.2-0.1-0.2
		c0-0.1-0.1-0.2-0.1-0.3l-0.3-0.7c-0.3-0.9-0.6-2-0.8-2.9c-0.2-1-0.4-2-0.5-3c0,0,0-0.1,0-0.1c0-0.1,0-0.2,0-0.3l-0.1-0.8
		c-0.1-0.6-0.1-1.2-0.2-1.9c-0.2-2.5-0.4-4.9-0.7-7.4c-0.4-2.8-1.2-5.6-2.5-8.1c-0.3-0.4-0.7-0.7-1.3-0.7c-1.4,0-2.7,0.4-3.9,0.9
		c0-0.2,0-0.4-0.1-0.6c-0.1-0.9-0.1-1.9-0.2-2.9s0-1.9,0.1-2.9c0-0.5,0.1-1,0.1-1.4c0.1-0.5,0.1-0.6,0.2-1.2
		c0.3-1.9,0.8-3.8,1.4-5.7c0.3-0.9,0.7-1.8,1.1-2.7s0.2-2.2-0.5-3c-0.5-0.5-1.2-0.8-1.8-0.9v-0.1l0.2-0.2l0.4-0.4
		c0.8-1.1,1.7-2.1,2.6-3.1c1.9-2.1,3.8-4,5.9-5.9c1-0.9,2.1-1.8,3.2-2.7l0.2-0.1l0.1-0.1l0.1-0.1l0.2-0.2l0.9-0.7l1.7-1.2
		c2.4-1.6,4.8-3.1,7.3-4.5c1.4-0.8,2.8-1.5,4.3-2.2l2.3-1l0.5-0.2l0.3-0.1h0.1l1.2-0.5c0.6-0.2,1-0.7,1.1-1.2
		c0.1-0.6-0.2-1.2-0.7-1.5l-2-0.9c2.1-0.6,4.2-1.1,6.4-1.4c1.8-0.3,3.3-0.5,5.2-0.7s3.7-0.3,5.6-0.4l6.3-0.3c0.8,0,1.5-0.7,1.5-1.5
		c0-0.1,0-0.2-0.1-0.4c-0.1-0.5-0.4-1-0.6-1.5h0.4l1.9,0.2l0.8,0.1l1,0.1c2.6,0.4,5.1,1.1,7.6,1.9c0.2,0.1,0.5,0.1,0.7,0
		c0.4,0.4,0.9,0.5,1.4,0.3c8.3-3,17.1-4.6,25.9-4.8c-0.4,0.7-0.7,1.4-0.8,2.2c-0.1,0.7,0.2,1.7,1,1.8c9.2,1.7,18.1,5.1,26,10.2
		c0.8,0.5,1.6,1.1,2.4,1.7c-1,0.3-1.9,0.7-2.7,1.4c-0.6,0.5-0.6,1.6,0,2.1c5.6,4.6,10.7,9.7,15.2,15.4l-0.4,0.2
		c-2.2,1.3-2.1,3.8-1,5.9c0.6,1,1.3,2,1.9,3s1.2,2.1,1.8,3.2c1.1,2.1,2,4.3,2.8,6.5c0.7,1.8,1.2,3.7,1.6,5.6c-0.8,0-1.7,0-2.5,0.2
		l-0.1,0.1c-1.9-0.8-4-1.3-6.1-1.5c-1.5-0.1-3.4-0.3-4.5,1c-0.5,0.6-0.9,1.2-1.2,1.9c-0.4,0.6-0.7,1.3-1,1.9
		c-0.7,1.4-1.2,2.8-1.8,4.2l-0.8,2c-0.1,0.2-0.1,0.4-0.2,0.5c-0.1,0.1-0.1,0.1-0.1,0.2l-0.4,1.1c-0.5,1.2-1.1,2.3-1.7,3.4
		c-0.3,0.5-0.6,1-0.9,1.5l-0.5,0.7c-0.1,0.1-0.3,0.4-0.1,0.1c-0.1,0.1-0.1,0.2-0.3,0.3c-0.9,1.1-1.9,2-2.9,2.9v0.1l-0.2,0.1
		l-0.4,0.3l-0.9,0.6c-0.5,0.3-1.1,0.6-1.6,0.8l-0.1-0.1c-1.4-1.6-3.1-3-4.9-4.1c-2.4-1.6-5.1-2.8-7.7-4.1c-0.7-0.4-1.6-0.2-2,0.5
		c-0.4,0.7-0.2,1.7,0.5,2c2.3,1.2,4.7,2.3,6.9,3.6l1.2,0.8l0.6,0.4l0.3,0.2h0c0.8,0.6,1.5,1.3,2.2,2c0.9,0.9,1.6,1.8,2.4,2.7
		l0.6,0.8l0.4,0.4l0.1,0.2l0.2,0.2l0.1,0.1l0.1,0.2l0.4,0.5c0.2,0.3,0.4,0.7,0.6,1c0.2,0.3,0.4,0.6,0.5,0.9c0,0.1,0.1,0.1,0.1,0.1
		v0.1l0.2,0.5c0.2,0.6,0.3,1.2,0.4,1.8c-0.1-0.5,0,0,0,0.1c0,0.1,0,0.3,0,0.4v0.9c0,0.3,0,0.5-0.1,0.8c0,0.1,0,0.1,0,0.1l-0.1,0.5
		c-0.3,1.4-0.7,2.8-1.1,4.1l-0.8,2.4c-1.1-1.1-2.3-2-3.5-2.9c-0.7-0.5-2,0-2.2,0.9c-0.3,2.2-0.7,4.3-1.3,6.4c-0.3,1.1-0.6,2.1-1,3.1
		c-0.2,0.5-0.4,1-0.6,1.6c-0.1,0.1-0.1,0.3-0.1,0.4c0,0.1,0,0.1-0.1,0.1c0,0-0.2,0.5-0.3,0.7c-0.9,2-2,4-3.3,5.9l-0.9,1.3l-0.1,0.1
		l-0.2,0.3l-0.6,0.7c-0.7,0.9-1.5,1.7-2.3,2.4c-0.5,0.5-1,0.9-1.5,1.3l-0.7,0.6l-0.2,0.2l-0.4,0.3c-1.1,0.8-2.3,1.5-3.5,2.2
		c-0.7,0.4-0.9,1.3-0.5,2c0.4,0.7,1.3,0.9,2,0.5c2.7-1.5,5.3-3.4,7.5-5.6c0.2,0.3,0.4,0.5,0.6,0.8c1,1.3,2.2,2.5,3.4,3.5
		c0.6,0.5,1.1,1,1.5,1.7c0.4,0.8,0.6,1.6,0.5,2.5c0,2-0.7,4-1.2,6c-0.3,1.2-0.6,2.5-0.3,3.8c0.3,1.2,1.2,2.1,2.2,2.9
		c1.7,1.5,3.6,3,5.8,3.7c2.9,0.9,5.6,0,8.4-0.4c1-0.2,2.1-0.1,3.1,0.3c0.4,0.1,0.7,0.4,1,0.7l0.2,0.2c0,0,0,0.1,0,0.1
		c-0.2,1,0.7,2.2,1.8,1.8l7-2.8c0.4-0.2,0.9-0.4,1.4-0.4c-0.1,0,0.1,0.1,0.3,0.2s0.9,0.9,1.3,1.3c0.6,0.6,1.4,1,2.2,1.1
		c1.1,0.1,1.8-0.9,2.6-1.6c1.4-1.4,2.6-3,3.8-4.6c4.3-6.1,6.6-13.3,6.6-20.7c0-1.7-0.2-3.4-0.5-5.1c0,0.1,0,0.1,0.1,0.1
		c0.4,0.6,1.2,0.9,1.9,0.6c0.7-0.3,1-1,0.9-1.7c-0.5-3,0.6-5.9,1.2-8.8C202.1,126.8,202.2,123.4,201.1,120.4z M44.5,58.8
		c0,0,0.1,0,0.1,0H44.5z M75.8,149.1C75.7,149,75.7,149,75.8,149.1L75.8,149.1z M45.1,80.7l0.2-0.2l0.1-0.1l0.5-0.3l0.6-0.3l0.3-0.1
		h0.1c0.4-0.1,0.8-0.3,1.2-0.4l0.2-0.1c0.1,0.3,0.2,0.5,0.3,0.7s0.4,1.2,0.6,1.8c0.3,1.2,0.6,2.3,0.8,3.5c0.1,0.3,0.1,0.6,0.1,0.9
		s0,0.3,0,0.3s0,0.3,0.1,0.5l0.2,1.9c0.1,1.2,0.2,2.4,0.3,3.6c0.4,4.4,1,8.8,3,12.8c1.1,2.2,2.7,4.2,4.6,5.8
		c0.4,0.4,1.1,0.5,1.6,0.3c-0.8,2.2-1.4,4.5-1.7,6.8c-0.4,2.8-0.6,5.6-0.4,8.4c0.2,3.2,1.1,6.4,2.9,9c0.4,0.5,1,0.9,1.7,0.7
		c0.7-0.2,1.1-0.8,1.1-1.4c0-0.4,0-0.9,0-1.3v0l0,0c0,0,0,0,0,0s0,0,0-0.1c0-0.1,0-0.1,0.1-0.2c1.4,2.8,3,5.5,4.9,8
		c2.1,2.9,4.6,5.6,7.4,7.9l0.1,0.1c0,0,0,0.1,0,0.1c0.1,0.1,0.1,0.3,0.1,0.4c0,0.1,0,0.2,0,0.3c0,0.2,0,0.3,0,0.5v0.2l-0.1,0.3
		l-0.1,0.3c0,0.1,0,0.1-0.1,0.1c0,0,0,0,0.1-0.1l-0.1,0.1c0,0,0,0,0,0c-0.1,0.2-0.2,0.4-0.4,0.6c0,0.1-0.1,0.1-0.1,0.1l0.1-0.1
		l-0.2,0.3l-0.3,0.2l-0.2,0.2l-0.6,0.4l-0.4,0.2h-0.1l-0.2,0.1c-0.6,0.2-1.2,0.3-1.7,0.4c-1.2,0.3-2.5,0.6-3.5,1.4
		c-0.6,0.5-1,1.2-1.2,2c-0.1,0.3-0.1,0.6-0.2,0.9c0,0.1,0,0.3-0.1,0.4v0.1l-0.1,0.6c-0.1,0.3-0.2,0.7-0.3,1
		c-0.1,0.1-0.1,0.3-0.1,0.4c0,0-0.1,0.1-0.1,0.1c0,0.1-0.1,0.1-0.1,0.2c-0.3,0.7-0.6,1.3-1,1.9c-0.4,0.6-0.8,1.2-1.2,1.8l-0.7,0.9
		l-0.3,0.4l-0.1,0.1c0,0,0,0,0,0.1c-0.2,0.2-0.4,0.4-0.6,0.7l-0.4,0.4l-0.3,0.2l-0.4,0.2c-0.1,0.1-0.1,0,0,0l-0.2,0.1
		c-0.4,0.1-0.7,0.2-1.1,0.3c-1.7,0.3-3.5,0.5-5.2,0.8l-5.4,0.8c-0.7,0.1-1,0.8-1.1,1.4v0.2l-8.3-3.3l-5.1-2
		c-1.5-0.6-3.8-1.9-5.1-0.4c-0.6,0.6-0.8,1.5-1.1,2.2c-2.9-6-4-12.7-4.3-19.4c-0.1-2.2-0.1-4.5-0.1-6.7c0-1.1-1.3-1.9-2.2-1.3
		c-0.8,0.5-1.6,1.2-2.3,1.8v-0.7c0-1.4,0.1-2.9,0.3-4.3c0,0,0,0,0-0.1c0,0,0,0,0,0c0-0.1,0-0.2,0-0.2l0.1-0.5
		c0.1-0.4,0.1-0.7,0.2-1.1s0.3-1.4,0.4-2.2c0.3-1.4,0.7-2.8,1.2-4.2c1.8-5.8,4.2-11.3,6.1-17c0.3-0.8,0.5-1.6,0.8-2.4
		c0.2-0.8,0.4-2.1-0.4-2.9c-0.7-0.6-1.5-0.8-2.4-0.7c0.5-1,1-2,1.6-2.9c1.1-2,2.3-4,3.6-5.9c2.6-3.8,5.4-7.4,8.5-10.7
		c1.7-1.8,3.4-3.5,5.1-5.2L45.1,80.7z M44.9,58.7C44.9,58.6,44.9,58.6,44.9,58.7L44.9,58.7z M161,110.5L161,110.5
		C161,110.5,161,110.5,161,110.5z M148,142.9C147.9,142.8,147.9,142.7,148,142.9L148,142.9z M198.9,127.6c-0.3,2.3-1,4.6-1.4,6.9
		c-0.7-0.9-1.5-1.7-2.4-2.5c-0.5-0.4-1.2-0.6-1.8-0.2c-0.5,0.3-0.9,1.1-0.7,1.7c4,9.3,2.8,20-2.5,28.6l0,0c-1.4,2.3-3.2,4.4-5.1,6.4
		c0,0,0,0,0,0c-0.3-0.3-0.6-0.7-0.9-0.9c-0.8-0.8-1.7-1.5-2.9-1.5c-1.2,0-3.1,0.9-4.5,1.5l-3.2,1.3c-0.6-1-1.7-1.8-3-2.2
		c-2.4-0.9-4.8-0.3-7.2,0.2c-1.2,0.2-2.5,0.4-3.6,0.1c-1.1-0.2-2.1-0.7-3-1.4c-0.9-0.6-1.7-1.2-2.5-2c-0.4-0.3-0.9-0.7-1.1-1.1
		c-0.2-0.4-0.1-1,0-1.5c0.9-4.2,2.9-9-0.2-12.7c-1-1.2-2.4-2.2-3.5-3.4c-0.5-0.5-0.9-1-1.3-1.6L148,143c0,0,0-0.1,0-0.2v-0.1
		l0.1-0.1l0.4-0.3l0.3-0.3l0.3-0.2c0.7-0.4,1.3-0.9,1.9-1.4c1.2-1.1,1.5-2.5,0.8-3.7c1.4-2.7,2.6-5.4,3.4-8.3c0.5-1.7,0.9-3.3,1.2-5
		l0.7,0.6c0.8,0.8,1.5,1.6,2.2,2.4c0.7,0.9,2.2,0.4,2.5-0.7c0.7-2.8,1.8-5.6,2.5-8.5c0.3-1.2,0.4-2.5,0.4-3.8
		c-0.1-1.5-0.4-2.9-1-4.3c-0.7-1.5-1.7-2.8-2.7-4.1l-0.5-0.6c4.2-2,7.2-5.8,9.3-9.9c0.7-1.3,1.2-2.7,1.8-4c0.3-0.6,0.5-1.3,0.8-1.9
		c0.2-0.7,0.3-0.7,0.4-1l0.2-0.4L173,87v-0.1c0.6-1.3,1.2-2.6,1.8-3.8c0.1-0.3,0.3-0.6,0.5-0.9c0.1-0.1,0.1-0.3,0.2-0.4
		c0,0,0.1-0.1,0.1-0.1h0l0.1-0.1h1l1.2,0.1l0.5,0.1h0.3c0.7,0.1,1.5,0.3,2.2,0.5c0.4,0.1,0.8,0.2,1.1,0.4l0.5,0.2l0.2,0.1h0.1
		c0.4,0.2,0.9,0.4,1.2,0.6c2.2,3.5,3.7,7.3,4.5,11.3c-0.2,0-0.4,0-0.5,0.1c-1.5,0.3-2.6,1.7-2.6,3.2c0,1.9,1.3,3.5,2.2,5.1
		c0.9,1.5,2,3.4,3.1,5.1c2,3.2,4,6.4,5.8,9.7C198.4,121.2,199.4,124.1,198.9,127.6z"/>
	<path style="stroke:#000000;stroke-width:3;stroke-linecap:round;stroke-linejoin:round;stroke-miterlimit:10;" d="M98.8,57.3
		c-3.1-2-6.4-3.6-9.9-4.5c-3.3-0.8-6.7-1.1-10-0.7c-2.2,0.2-4.4,0.7-6.5,1.2c-1.4,0.3-1.4,2.5,0,2.8c1.7,0.4,3.3,0.9,4.9,1.6
		l0.2,0.1c0,0,0,0,0,0h0L78,58c-2.3,0.5-4.6,1.2-6.8,2.1c-2.9,1.2-5.5,3.2-7.2,5.9c-1,1.6-1.7,3.4-2.1,5.2c-0.1,0.8,0.2,1.7,1,1.8
		c0.5,0.1,1,0,1.4-0.3c-0.8,1.4-1.4,2.8-2,4.3c-0.7,1.9-1.2,3.9-1.5,5.9c-0.2,2.2,0,4.5,1.2,6.3c0.4,0.7,1.3,1,2,0.5
		c0.7-0.4,1-1.3,0.5-2l-0.4-0.6c0,0,0-0.1,0-0.1c0,0,0,0,0-0.1c0-0.1,0-0.1,0-0.1v-0.1c-0.1-0.4-0.3-0.9-0.4-1.3c0-0.1,0-0.2,0-0.3
		c0-0.3,0-0.5,0-0.8c0-0.5,0-1,0.1-1.4c0-0.1,0-0.2,0-0.3c0-0.1,0-0.1,0-0.1s0.1-0.5,0.1-0.8l0.4-1.5c0.3-1,0.6-2,1-2.9
		c0-0.1,0.1-0.2,0.1-0.3c0,0,0-0.1,0-0.1l0.3-0.7l0.5-1.2c0.3-0.6,0.7-1.2,1-1.8c0.1-0.1,0.1-0.2,0.2-0.3v-0.1l0.1-0.1h0
		c0.4-0.2,0.7-0.6,0.8-1c0.2-0.7-0.2-1.5-0.9-1.8s-1.4-0.5-2.2-0.5l0.2-0.4l0.1-0.3c0.1-0.3,0.3-0.6,0.5-0.9l0.6-0.9
		c0.1-0.1,0.1-0.2,0.2-0.3l0.2-0.2c0.4-0.5,0.9-1,1.5-1.4l0.3-0.3l0.3-0.2l0.9-0.6c0.7-0.4,1.3-0.7,2-1l0.5-0.2l0.3-0.1l1.1-0.4
		c0.8-0.3,1.6-0.5,2.4-0.7c2-0.6,4.1-1,6.2-1.4c0.6-0.1,1-0.7,1.1-1.2c0.1-0.6-0.2-1.2-0.7-1.5c-1.4-0.9-2.9-1.6-4.4-2.2
		c1.5-0.1,3-0.2,4.6-0.1c0.4,0,0.8,0,1.2,0.1l0.5,0.1h0.4l2.3,0.4c0.8,0.2,1.5,0.4,2.3,0.7l1.2,0.4l0.5,0.2c0,0,0.1,0,0.2,0.1
		l0.2,0.1c1.9,0.8,3.6,1.8,5.4,2.9c0.7,0.4,1.6,0.2,2-0.5C99.7,58.6,99.5,57.7,98.8,57.3z M66.3,70.2l-0.2,0.1L66,70.4
		C66.3,69.8,66.5,70.1,66.3,70.2z M65.8,72.5C65.4,72.5,65.6,72.5,65.8,72.5L65.8,72.5z"/>
	<path style="stroke:#000000;stroke-width:3;stroke-linecap:round;stroke-linejoin:round;stroke-miterlimit:10;" d="M141.8,54.1
		l0.4-0.1h0.1L143,54l1.6-0.1c1-0.1,2-0.1,3,0l0.6,0.1h0.3l1.3,0.3l1.2,0.4c-1.6,0.5-3,1.5-4.1,2.7c-0.6,0.6-0.6,1.5,0,2.1
		c0.2,0.2,0.4,0.3,0.6,0.4l0.8,0.3l0.2,0.1l0.4,0.2l1.5,0.7c1,0.5,1.9,1.1,2.8,1.7l0.7,0.5l0.1,0.1h0.1l0.4,0.3
		c0.4,0.3,0.8,0.7,1.2,1.1c0.7,0.7,1.3,1.3,2,2.1c-0.2,0-0.5,0.1-0.7,0.2c-1.1,0.4-1.9,1.4-1.9,2.6c0,1.1,0.7,2,1.3,2.7l0.8,0.9
		l0.4,0.5l0.3,0.4c0.5,0.7,0.9,1.4,1.3,2.1c0.2,0.4,0.4,0.7,0.5,1.1c0.1,0.1,0.2,0.3,0.2,0.5c0,0.1,0.1,0.2,0.1,0.3
		c0.3,0.8,0.5,1.6,0.7,2.4c0.1,0.4,0.2,0.9,0.2,1.3c0,0,0,0.1,0,0.1c0,0,0,0,0,0c0,0.1,0,0.2,0.1,0.4c0,0.2,0,0.4,0.1,0.7
		c0.1,0.9,0,1.8-0.1,2.7c-0.1,0.8,0.7,1.5,1.5,1.5c0.8,0,1.4-0.7,1.5-1.5c0.3-3.2-0.3-6.4-1.6-9.3c-0.6-1.4-1.4-2.7-2.3-4
		c-0.5-0.7-1.1-1.3-1.6-2l-0.2-0.2h0l-0.3-0.4h0.5l0.3,0.1l0.5,0.1l0.4,0.1l0.1,0.1l0.3,0.1c0.6,0.3,1.3,0.3,1.8-0.2
		c0.5-0.5,0.6-1.2,0.2-1.8c-2.2-4-5.8-7.3-9.9-9.5l-1.5-0.8l0.1-0.1l0.4-0.2l0.2-0.1l0.1-0.1c0.6-0.2,1.2-0.4,1.7-0.5l0.5-0.1h1.3
		c1.3,0,2-1.6,1.1-2.5c-2.8-2.7-7-3.5-10.8-3.4c-2.2,0.1-4.4,0.4-6.6,0.8c-1.8,0.3-3.6,0.7-5.3,1.2c-2,0.6-3.9,1.5-5.3,3
		c-0.6,0.6-0.6,1.5,0,2.1c0.6,0.6,1.5,0.6,2.1,0c0.1-0.1,0.2-0.3,0.4-0.4l0.2-0.2c0,0,0.1,0,0.1-0.1c0.3-0.2,0.6-0.4,0.9-0.6l1-0.5
		h0.1l0.2-0.1l0.7-0.2c1.6-0.5,3.3-0.9,4.9-1.2L141.8,54.1z M158,69.5L158,69.5C158,69.5,158,69.5,158,69.5
		C158,69.5,158,69.5,158,69.5z"/>
</g>
</svg>
