<?xml version="1.0" encoding="utf-8"?>
<!-- Generator: Adobe Illustrator 27.9.0, SVG Export Plug-In . SVG Version: 6.00 Build 0)  -->
<svg version="1.1" id="Layer_1" xmlns="http://www.w3.org/2000/svg" xmlns:xlink="http://www.w3.org/1999/xlink" x="0px" y="0px"
	 viewBox="0 0 356.6 233.1" style="enable-background:new 0 0 356.6 233.1;" xml:space="preserve">
<g>
	<path style="stroke:#000000;stroke-width:3;stroke-linecap:round;stroke-linejoin:round;stroke-miterlimit:10;" d="M326,30.8
		c-1.5-1.9-3.1-3.6-5.3-4.8c-2.2-1.1-4.6-1.7-7.1-2c-2.6-0.2-5.2-0.1-7.7,0.1c-2.5,0.2-5,0.5-7.5,1c-10.3,1.8-20,5.8-29.4,10.3
		c-4.7,2.3-9.4,4.7-14.1,7.1c-0.8,0.5-1.8,0.8-2.5,1.5l-0.7,0.7l-0.3,0.3h-0.2c-0.9,0.5-1.9,1-2.7,1.6c-1,0.6-1.9,1.2-2.9,1.8
		c-7.4,5-13.8,11.6-17.7,19.7c-0.7,1.5-1.4,3.1-2,4.7c-4.2-1.8-8.5-3.5-12.9-4.5c-4.4-1-9.9-1.3-14.8,0c-4.9,1.2-8.9,3.2-13.6,4
		l-0.9,0.1h-0.6l-2,0.2c-1.2,0.1-2.4,0.1-3.6,0c-1.2,0-2.4-0.1-3.6-0.3l-0.8-0.1h-0.6l-2-0.3c-5-0.9-10-2.3-15.1-2.9
		c-4.9-0.5-9.8-0.1-14.5,1.2c-2.7,0.7-5.5,1.7-7.9,3.3c-8-9.3-16.5-18-25.7-26.2c-4.6-4.2-9.5-8.1-14.6-11.8
		c-5.1-3.6-10.6-6.5-16.4-8.8c-5.8-2.2-11.7-3.8-17.8-4.8c-3.1-0.6-6.3-1-9.4-1.4l-4.6-0.5c-1.6-0.2-3.2-0.5-4.8-0.3
		c-6.3,0.4-8.9,8.1-10,13.2c-0.6,2.7-1,5.5-1.6,8.3c-0.2,1.1-0.4,2.3-0.6,3.4c-0.8,5.9-0.7,11.9-0.7,17.9c0.2,7.9,0.7,15.8,1.3,23.6
		c0.7,7.8,1.6,16.5,2.7,24.7c0.9,6.7,2,13.4,3.5,20c0.5,2.3,1.1,4.5,1.9,6.8c0.3,0.9,0.7,1.8,1.1,2.7c1,1.9,1.8,4,2.5,6.1
		c0.6,2.4,1,4.9,1.8,7.2c1.1,2.9,2.7,5.6,4.7,8c1.8,2.3,3.9,4.4,5,7.1c0.5,1.2,0.8,2.5,0.8,3.8c0,1.2-0.6,2.3-1.1,3.4
		c-1.3,2.4-2.7,4.8-1.9,7.7c0.2,0.7,0.7,1.3,1.4,1.4l0.5,0.2c-0.3,2.6,0.2,5.3,1.6,7.6c-1.1,1.3-1.5,3-1.1,4.7
		c0.2,1.4,1.1,2.6,1.8,3.7c0.7,1.1,1.1,2.4,1.3,3.8c0.3,2.8,1.7,5.5,3.8,7.3c2.2,1.9,5,2.9,7.9,2.8c1.1,0,2-0.9,2-2
		c0-1.1-0.9-2.1-2-2c-3.8,0.2-7-2.5-7.6-6.2c-0.2-1.2-0.2-2.4-0.7-3.6c-0.5-1.1-1.1-2.1-1.8-3.1c-0.2-0.4-0.5-0.9-0.7-1.3
		c-0.1-0.2-0.1-0.5-0.1-0.7c0,0.1,0.1-0.4,0.1-0.4c0-0.1,0.1-0.2,0.1-0.2c0,0.1,0,0.3,0,0h0c1.1-0.1,2-1.1,1.9-2.2
		c0-0.5-0.2-0.9-0.6-1.3c-1.8-2.1-2.4-5.1-1.5-7.7c0.3-1.1-0.4-2.2-1.4-2.5l-1.1-0.2c0.1-0.6,0.3-1.1,0.6-1.6
		c0.6-1.1,1.3-2.3,1.8-3.5c0.9-2.2,1-4.6,0.5-6.9c0.2-0.2,0.3-0.4,0.5-0.6c1.1-2.2,2.3-4.3,3.6-6.4c0.7-1,1.4-2,2.1-2.9
		c0.1-0.2,0.2-0.3,0.3-0.4h0.1l0.5-0.7c0.4-0.5,0.8-1,1.2-1.4c1.6-1.8,3.3-3.6,5.1-5.2c0.9-0.8,1.8-1.6,2.7-2.3l0.2-0.2l0.2-0.2
		l0.7-0.5l1.6-1.1c1.1-0.7,2.3-1.5,3.4-2.1c1.1-0.7,1.2-0.7,1.9-1l0.3-0.1l0.5-0.2l0.5-0.1l0.4-0.1c0.6,0,1.2-0.3,1.6-0.8
		c0.4-0.5,0.5-1.2,0.4-1.8c-0.7-2.2-1.6-4.3-2.7-6.4l0.8-0.2l1.6-0.3h0.5l0.8-0.1c0.9-0.1,1.8-0.6,2-1.5c0.2-0.9-0.2-1.8-0.9-2.3
		c-1-0.6-2-1.2-2.9-1.9l-1.2-0.9c0,0,0,0,0,0l-0.4-0.3l-0.7-0.6c-1.7-1.4-3.3-2.9-4.8-4.4c-0.8-0.8-1.5-1.6-2.3-2.5l-1-1.2l-0.5-0.6
		l-0.4-0.5c-1.3-1.8-2.5-3.6-3.6-5.5c-1.1-1.9-2.2-3.9-3.2-6c-0.5-1-0.9-2-1.4-3c0.2,0.5-0.1-0.2-0.2-0.3l-0.3-0.8
		c-0.2-0.5-0.5-1.1-0.7-1.6c-1.6-4.3-2.8-8.6-3.7-13.1c-0.3-1.3-0.5-2.5-0.7-3.8c-0.1-0.6-0.2-1.2-0.3-1.8l-0.1-1c0-0.1,0-0.2,0-0.2
		c0-0.1,0-0.2,0-0.3c-0.2-1.5-0.4-2.9-0.5-4.4l2.5,1.2c1.8,0.9,3.5,1.9,5.1,3c0.8,0.5,1.6,1.1,2.5,1.7l1.1,0.8l0.2,0.2h0l0.1,0.1
		l0.6,0.5c1.6,1.2,3,2.5,4.4,3.9c1.4,1.4,2.7,2.7,3.9,4.2l0.9,1.1l0.5,0.6l0.2,0.3l0.1,0.1l0.2,0.2l0.2,0.2l0.5,0.6l0.9,1.3
		c2.4,3.4,4.5,7,6.3,10.9c2.1,4.5,4.1,9.2,7.5,12.9c0.8,0.8,2.1,0.8,2.9,0c0.8-0.8,0.8-2.1,0-2.9l-1-1.4l-0.2-0.3
		c-0.2-0.2-0.4-0.5-0.6-0.8c-0.6-0.9-1.1-1.8-1.6-2.7c-1.1-1.9-2-3.9-2.9-5.9c-1.8-3.9-3.9-7.7-6.3-11.2
		C80,87.4,74.1,81.6,67.4,76.9c-3.9-2.6-8.1-4.8-12.5-6.5c-1.2-0.5-2.7,0.7-2.6,2c0.5,9.3,2.2,18.6,5.3,27.5s7.6,17.1,13.9,24
		c2.3,2.6,5,5,7.8,7.2c-0.9,0.3-1.6,0.7-2.4,1.2c-0.9,0.7-1.4,1.8-0.7,2.8c0.7,1.1,1.4,2.4,2,3.6l0.4,0.9c0.1,0.1,0.1,0.2,0.1,0.3
		c0.1,0.1,0.1,0.3,0.2,0.4h0c-1.9,0.7-3.7,1.7-5.4,2.9c-2.2,1.4-4.3,3-6.4,4.8c-3.9,3.4-7.3,7.2-10.2,11.4c-1.2,1.7-2.3,3.5-3.2,5.3
		c-2.5-4.1-6.3-7.3-8.1-11.9c-0.9-2.3-1.3-4.7-1.8-7c-0.7-2.5-1.6-4.9-2.8-7.2l-0.5-1c0,0,0,0.1,0,0.1c0-0.1-0.1-0.2-0.1-0.2
		c-0.1-0.2-0.2-0.4-0.2-0.7c-0.4-0.9-0.7-1.9-0.9-2.9c-1.6-5.7-2.7-11.6-3.6-17.5c-0.3-1.8-0.6-3.6-0.8-5.5c0-0.5-0.1-0.9-0.2-1.4
		c-0.1-0.5,0-0.5-0.1-1.2l-0.4-2.8c-0.5-4-0.9-8-1.4-12c-0.8-8-1.4-16-1.7-24c-0.3-6.6-0.5-13.3,0-20c0.1-1.2,0.2-2.5,0.3-3.8
		l0.1-0.8c0-0.2,0-0.2,0,0c0,0.2,0-0.2,0-0.3l0.2-1.5c0.5-2.2,0.9-4.3,1.3-6.5c0.4-2.2,1-5.2,2-7.7c1-2.4,2.2-5,4.7-5.2
		c1.5-0.1,3.2,0.2,4.7,0.4l4.4,0.5c6,0.7,12,1.8,17.9,3.4c5.8,1.5,11.4,3.7,16.6,6.6c5.2,2.9,10.1,6.5,14.7,10.3
		c9.6,8,18.6,16.6,27,25.9c1.7,1.8,3.4,3.8,5,5.7c-0.2,0.3-0.5,0.7-0.6,1.1c-1,2-1.4,4.2-2.2,6.3c-0.2,0.5-0.4,0.9-0.5,1.4
		c-0.2,0.5,0,0.1,0,0l-0.1,0.3l-0.4,0.9c-0.5,0.9-0.9,1.8-1.5,2.7l-0.8,1.3l-0.5,0.7l-0.2,0.3l-0.1,0.2c-0.6,0.8-1.3,1.6-2,2.4
		c-1.4,1.4-2.9,2.7-4.5,3.9c-2.9,2.3-6.1,4.7-7.7,8.2c-0.5,0.9-0.8,1.8-1,2.8c-0.2,1.1,0.3,2.3,1.4,2.5c1.1,0.3,2.3-0.3,2.5-1.4
		c0.1-0.4,0.2-0.9,0.3-1.3l0.2-0.5c-0.1,0.2,0.1-0.2,0.2-0.4c0-0.1,0.4-0.7,0.7-1.1l0.3-0.5l0.2-0.2c0,0,0.1-0.1,0.1-0.1
		c1.1-1.4,2.5-2.7,3.9-3.8c1.4-1.1,2.9-2.2,4.3-3.4c1.6-1.4,3-2.9,4.2-4.5c2.7-3.5,4.7-7.5,5.9-11.8c0.2-0.5,0.3-0.9,0.5-1.4
		c0.1-0.2,0.2-0.4,0.2-0.6c0-0.1,0.2-0.5,0.2-0.6c0.2-0.5,0.4-0.9,0.6-1.2l0.4-0.6l0.1-0.1l0.3-0.3c0.2-0.2,0.3-0.4,0.5-0.5l0.2-0.1
		l0.2-0.1l1.4-0.8l0.7-0.3l0.5-0.2l1.6-0.6c2.2-0.8,4.4-1.4,6.7-1.7l0.8-0.1h0.6l1.8-0.2c1.1-0.1,2.3-0.1,3.5-0.1
		c1.1,0,2.4,0.2,3.6,0.3h0.5l0.9,0.1l2,0.4l7.2,1.5c4.8,1,9.8,1.8,14.8,1.5c2.5-0.2,4.9-0.6,7.3-1.2c2.2-0.6,4.3-1.4,6.5-2.1
		c2.2-0.8,4.4-1.4,6.7-1.7h0.5l0.8-0.1h1.9c1.1,0,2.3,0.1,3.4,0.2h0.1l0.4,0.1l0.9,0.1l1.8,0.4c1.2,0.2,2.3,0.6,3.5,0.9
		c2.3,0.7,4.5,1.6,6.8,2.5l1.5,0.6l0.8,0.3l0.4,0.2l0.2,0.1c0.2,0.1,0.5,0.2,0.8,0.2c0.6,1.6,1.1,3.2,1.7,4.7
		c0.6,1.6,1.4,4.1,2.2,6.1c0.4,1.1,0.9,2,1.6,3c0.6,0.9,1.3,1.6,2.1,2.4c1.6,1.4,3.3,2.8,5,4c1.9,1.3,3.9,2.5,5.9,3.6
		c0.9,0.5,2.3,0.2,2.8-0.7c0.5-1,0.3-2.3-0.7-2.8c-1.8-0.9-3.4-1.9-5-3l-1.2-0.8l-0.6-0.5l-0.3-0.2l-0.2-0.2h-0.1l-0.3-0.2l-0.6-0.5
		l-1.1-0.9c-0.7-0.6-1.4-1.3-2-2l-0.2-0.2v-0.2l-0.4-0.5c-0.2-0.5-0.5-0.9-0.7-1.4c-0.2-0.5-0.1-0.1-0.1-0.2c0-0.1,0-0.1,0-0.2
		l-0.2-0.6c-0.2-0.5-0.4-1-0.6-1.6c-0.2-0.5-0.7-2-1.1-3c-0.7-2-1.4-4-2.1-6c2.7-8,7.9-14.9,14.3-20.3c1.6-1.4,3.3-2.6,5.1-3.7
		l2.7-1.7c0.9-0.5,2-0.9,2.7-1.6c0.8-0.7,0.7-0.8,1.1-1.1c0.1,0,0.2,0,0.3-0.1l0.8-0.4l2-1c2.2-1.1,4.5-2.3,6.7-3.4
		c9-4.6,18.3-8.8,28.1-11.4c4.8-1.3,9.7-2.1,14.6-2.4c4.2-0.2,9.4-0.4,12.7,2.7c3.4,3,5.5,6.8,7.1,10.6c1.6,3.8,2.6,7.7,3.1,11.8
		c1.1,8.6,0.3,17.5-0.9,26c-1.6,10.3-3.9,20.6-6.8,30.6c-2.9,10.4-6.2,20.6-9.1,30.9c-1.1,3.9-2.5,7.8-3.4,11.7
		c-1.7-2.3-3.7-4.1-6.1-5.7l-3.2-2.1l-1.5-1L299,143l-0.3-0.2l-0.3-0.2c-2.1-1.7-4.1-3.6-5.8-5.6l-1.2-1.4l-0.2-0.3L291,135
		l-0.6-0.8c-0.8-1.1-1.5-2.2-2.1-3.4c0,0,0,0,0-0.1v-0.1c0-0.1-0.1-0.6-0.1-0.5v-0.9c0-1-0.5-1.9-1.2-2.6l-0.3-0.2
		c4.8-4.8,8.9-10.2,12.4-16c4.1-6.9,7.2-14.3,9.2-22.1c1.1-4.4,1.9-8.9,2.3-13.4c0.1-1.2-1.4-2.5-2.6-2c-7.7,3-15.5,6.1-22.2,11.1
		c-3.4,2.5-6.4,5.6-8.9,9c-2.3,3.2-4.3,6.7-5.9,10.4c-1.6,3.6-2.9,7.3-4,11.1c-0.6-0.1-1.2-0.1-1.8-0.1l-0.1-0.5
		c0-0.2,0-0.4-0.1-0.5c0-0.1,0-0.2-0.1-0.3c0-0.3,0-0.7,0-1c0-0.4,0-0.8,0-1.1c0-0.2,0-0.4,0-0.5c0-0.1,0-0.2,0-0.3
		c0.1-0.7,0.3-1.4,0.5-2.1c0.3-1.1-0.3-2.2-1.4-2.5h0c-1.1-0.2-2.2,0.4-2.5,1.4c-1.1,3.4-1,7,0.3,10.3c0.5,1,1.4,1.7,2.5,1.4
		l0.5-0.1h0.1c0.2,0,0.8-0.2,1,0h-0.2l0.4,0.1c0.2,0,0.3,0,0.5,0.1l0.4,0.1l0.2,0.1c1,0.6,2.3,0.2,2.9-0.9c0-0.1,0.1-0.2,0.2-0.4
		c1-3.8,2.3-7.6,3.8-11.3l0.1-0.3c0-0.1,0-0.1,0.1-0.2c0,0,0,0,0-0.1l0.2-0.4c0.2-0.5,0.4-0.9,0.7-1.4c0.2-0.5,0.8-1.7,1.3-2.6
		c0.9-1.7,1.9-3.4,3-5c0.2-0.4,0.5-0.8,0.8-1.2c0.1-0.2,0.2-0.4,0.4-0.5l0.2-0.3c-0.3,0.4,0,0,0.1-0.1c0.6-0.8,1.2-1.5,1.8-2.2
		c1.4-1.5,2.8-2.8,4.4-4.1l0.4-0.3l0.4-0.3l1.3-0.9c0.8-0.6,1.6-1.1,2.5-1.6c1.7-1.1,3.4-2,5.2-2.9l3-1.4l1.5-0.7l0.8-0.3l0.3-0.1
		l0.2-0.1l3.3-1.3c0,0.1,0,0.2,0,0.4s0,0.3,0,0.4l-0.2,1.5c-0.3,1.9-0.7,3.8-1.1,5.7c-0.9,3.8-2,7.5-3.5,11.1
		c-0.2,0.5-0.3,0.9-0.5,1.3s0,0.2-0.1,0.2c-0.1,0.2-0.2,0.5-0.3,0.8l-1.2,2.6c-0.8,1.7-1.7,3.4-2.7,5.1c-0.9,1.6-2,3.4-3.1,5
		c-0.5,0.8-1.1,1.6-1.7,2.4l-0.8,1.1l-0.5,0.6l-0.2,0.2c0.2-0.3,0,0-0.1,0.1c-2.7,3.4-5.6,6.6-8.8,9.5c-1.2,1.2-0.3,3.6,1.5,3.5h0.8
		c0.2,0,0.4,0,0.6,0h0.1v0.7c0.1,0.9,0.3,1.7,0.7,2.5c0.6,1.2,1.3,2.3,2.1,3.4c0.8,1.1,1.6,2.2,2.5,3.2c1.7,2,3.5,3.8,5.5,5.5
		c2.1,1.7,4.2,3.2,6.5,4.6l1.8,1.2l0.2,0.2l0.4,0.2l0.7,0.5l1.6,1.4l0.7,0.7l0.2,0.3l0.2,0.3c0.7,0.9,1.8,1.4,2.8,0.7
		c0,0,0.1-0.1,0.2-0.1c-0.1,0.6-0.2,1.1-0.2,1.7c-0.3,2.6,0,5.2,0.9,7.7c0.7,2.1,1.8,4.1,2.6,6.2c0.2,0.5,0.4,1.1,0.5,1.7
		c0,0.2,0.1,0.4,0.1,0.6c0,0.7,0,1.3,0,1.9c0,0.3,0,0.7,0,1c0,0.1,0,0.1,0,0v0.1h-0.1l-0.1,0.3c-0.2,0.5-0.4,0.9-0.5,1.4
		c-0.3,1-0.3,1.7-0.5,2.6l-0.6,3c-0.2,0.8-0.3,1.6-0.5,2.4c-0.2,0.8-0.2,0.9-0.2,1.4c0,0,0,0.1,0,0.1v0.1l-0.2,0.9
		c-0.4,1.5-0.7,3-0.4,4.3c-0.3,0.4-0.7,0.7-1,1c-0.7,0.7-1.5,1.3-2.3,2c-1.7,1.5-3.1,3.3-3.3,5.7c-0.1,1.1,1,2,2,2c1.1,0,2-0.9,2-2
		l0.1-0.4v-0.1l0.1-0.1c0.1-0.2,0.2-0.3,0.3-0.5c0.1-0.1,0.1-0.2,0.1-0.2l0.2-0.2c0.6-0.7,1.3-1.3,2-1.9c1.4-1.2,3-2.5,3.9-4.2
		c0.4-0.7,0.3-1.6-0.2-2.3v-0.4c0,0,0-0.1,0-0.2c0-0.1,0.1-0.5,0.2-0.7c0.2-1,0.5-2,0.7-3c-0.1,0.5,0.1-0.5,0.2-0.7
		c0-0.2,0.2-0.9,0.3-1.3l0.6-3c0.2-0.9,0.4-1.7,0.5-2.6c0.1-0.4,0.2-0.8,0.3-1.2c0,0,0-0.1,0-0.1c0-0.1,0.1-0.2,0.2-0.3
		c0.7-1.5,0.5-2.9,0.5-4.5c0-4.4-3.1-8.1-4-12.3c-0.5-2.3-0.1-4.9,0.4-7.2c0.5-2.3,1.5-5.5,2.4-8.2c1.6-5.3,3-10.7,4.6-16
		c1.6-5.3,3.2-10.4,4.7-15.7c3-10.4,5.7-20.9,7.4-31.6C336,65.3,337.6,45.6,326,30.8z M317.3,178.2
		C317.4,178,317.5,177.9,317.3,178.2L317.3,178.2z"/>
</g>
</svg>
