<?xml version="1.0" encoding="utf-8"?>
<!-- Generator: Adobe Illustrator 27.9.0, SVG Export Plug-In . SVG Version: 6.00 Build 0)  -->
<svg version="1.1" id="Layer_1" xmlns="http://www.w3.org/2000/svg" xmlns:xlink="http://www.w3.org/1999/xlink" x="0px" y="0px"
	 viewBox="0 0 253.7 211.1" style="enable-background:new 0 0 253.7 211.1;" xml:space="preserve">
<g>
	<path style="stroke:#000000;stroke-width:3;stroke-linecap:round;stroke-linejoin:round;stroke-miterlimit:10;" d="M107.6,55.4h0.2
		l0.8,0.2l0.8,0.3l0.3,0.2l0.2,0.1h0c0.6,0.3,1.4,0.3,1.9-0.3c0.5-0.5,0.6-1.3,0.3-2c-2.1-3.4-5.6-5.2-9-7.1c0.8,0,1.5,0,2.3,0.1
		h0.3l0.4,0.1l0.8,0.1l1.7,0.4l1.6,0.6l0.1,0.1l0.4,0.2l0.9,0.4c0.7,0.4,1.8,0.2,2.2-0.6c0.4-0.8,0.2-1.8-0.6-2.2
		c-4.7-2.4-10-3-15.1-1.7c-0.6,0.2-1.1,0.7-1.2,1.3c-0.1,0.6,0.2,1.3,0.8,1.6c1.6,1.2,3.4,2.1,5.2,3c0.9,0.4,1.8,0.9,2.6,1.5
		l0.7,0.4c-1,0.1-2,0.6-2.7,1.3c-0.6,0.5-0.7,1.7,0,2.3c0.9,0.7,1.7,1.5,2.5,2.3c0.4,0.4,0.8,0.8,1.2,1.3l0.5,0.7l0.3,0.4h0
		c0,0,0,0,0,0.1c0.7,0.9,1.3,1.9,1.9,2.9c0.3,0.5,0.6,1,0.8,1.5l0.3,0.7c0.1,0.1,0.1,0.3,0.2,0.4l0.1,0.2c0.1,0.4,0.4,0.7,0.7,0.9
		c0.4,0.2,0.8,0.3,1.3,0.2c0.7-0.2,1.4-1.1,1.1-2C112.6,61.4,110.4,58.2,107.6,55.4z"/>
	<path style="stroke:#000000;stroke-width:3;stroke-linecap:round;stroke-linejoin:round;stroke-miterlimit:10;" d="M142.6,48.8
		l0.1-0.2l0.1-0.3l0.2-0.3l0.2-0.3c0,0,0,0,0-0.1l0.5-0.5l0.3-0.3c0,0,0.1,0,0.1-0.1c0.4-0.3,0.9-0.5,1.3-0.8l0.6-0.3h0.1l0.4-0.2
		c1.1-0.4,2.2-0.7,3.3-1c1.1-0.3,2.5-0.6,3.8-1c0.8-0.2,1.3-1,1.2-1.8c-0.1-0.8-0.8-1.4-1.6-1.4c-5.1-0.4-10.2,0.9-14.3,3.9
		c-0.7,0.5-1.1,1.4-0.6,2.2c0.4,0.5,0.9,0.8,1.5,0.8c-0.5,1.3-0.7,2.8-0.6,4.2c0,0.6,0.3,1.1,0.8,1.4c0.5,0.3,1.1,0.3,1.6,0l0.4-0.2
		c0,0,0,0,0.1-0.1h0.1l0.8-0.3l0.5-0.1h0.2l1.1-0.1h0.4c-2.3,2.2-4,4.9-4.5,8.2c-0.2,1.1-0.2,2.3-0.2,3.4c0.1,0.8,0.7,1.6,1.6,1.6
		c0.9,0,1.7-0.7,1.6-1.6c0-0.6,0-1.1,0-1.7c0-0.3,0-0.5,0.1-0.8v-0.1c0-0.1,0-0.2,0-0.3c0.1-0.5,0.2-1.1,0.4-1.6
		c0.1-0.3,0.2-0.5,0.3-0.7c0-0.1,0-0.1,0.1-0.1c0-0.1,0.1-0.3,0.2-0.4c0.3-0.5,0.5-1,0.9-1.4c0.1-0.1,0.2-0.3,0.3-0.4v-0.1
		c0,0,0-0.1,0.1-0.1c0.2-0.2,0.4-0.4,0.6-0.7c0.4-0.5,0.9-0.9,1.4-1.3l0.4-0.3l0.1-0.1l0.2-0.1l0.9-0.6c0.8-0.5,1-1.5,0.5-2.2
		c-0.1-0.2-0.3-0.4-0.5-0.5c-1.3-0.9-3-1.2-4.6-1.2c-0.7,0-1.5,0.1-2.2,0.2v-0.1L142.6,48.8z"/>
	<path style="stroke:#000000;stroke-width:3;stroke-linecap:round;stroke-linejoin:round;stroke-miterlimit:10;" d="M231.6,121.3
		c-0.5-0.8-1.1-1.6-1.6-2.4c0.5,0.1,1,0.4,1.4,0.6c1,0.6,2.5-0.2,2.4-1.4c-0.3-4-1-8.2-3.2-11.8c-1.1-1.7-2.4-3.2-4.1-4.4
		c-0.9-0.6-1.9-1.1-2.9-1.5h0h-0.1v0c0,0,0,0,0-0.1c0,0,0,0,0,0v0l0.5-0.3l0.4-0.1l0.7-0.2l0.6-0.1l0.3-0.1h0.1c0.4,0,0.8-0.1,1.2,0
		c1.1,0.1,1.9-1.1,1.6-2.1c-2.2-7.3-7.8-13.3-14.6-16.7c-1.7-0.9-3.5-1.6-5.3-2.1c-2.3-6.7-4.9-13.2-7.7-19.7
		c-0.5-1.2-1.1-2.4-1.6-3.6c0.7,0.1,1.4,0.4,2,0.9c0.6,0.4,1.5,0.2,2-0.3c0.5-0.5,0.6-1.3,0.3-1.9c-4.7-9.4-13.8-15.3-22.9-19.9
		l-2.2-1.1l1.2-0.2c0.6-0.1,1.1-0.8,1.2-1.3c0.1-0.6-0.2-1.3-0.8-1.6c-6.3-3.9-13.5-6.2-20.9-6.7l-2.4-0.1l2.1-2.3
		c0.9-1,0.3-2.7-1.1-2.7c-8-0.1-15.9,1.9-23,5.7c-1,0.5-2,1.1-2.9,1.7v-0.1c0-0.1,0-0.3,0.1-0.4c0.2-1.2,0.5-2.4,0.8-3.6
		c0.2-0.6,0.4-1.2,0.6-1.7c0.1-0.3,0.2-0.5,0.3-0.8c0-0.1,0.1-0.3,0.2-0.4l0.1-0.3l0.1-0.1l0.1-0.3l0.2-0.4l0.4-0.8
		c0.3-0.6,0.6-1.2,0.9-1.7c0.4-0.8,0.2-1.8-0.6-2.2c-0.5-0.3-1.1-0.3-1.6,0c-5.3,3.4-9.8,7.8-13.3,13c-0.7,1-1.3,2-1.9,3
		c-6.1-4.2-13.1-7-20.4-8c-2.2-0.3-4.5-0.4-6.8-0.4c-1.4,0-2.1,1.7-1.2,2.7l2.1,2.3c-6.2,0.1-12.3,1.4-17.9,3.9
		c-1.9,0.8-3.7,1.8-5.4,2.9c-0.5,0.3-0.9,0.9-0.8,1.6c0.1,0.6,0.5,1.3,1.2,1.3l1.2,0.2c-7.4,3.6-14.7,7.7-20.2,13.9
		c-2,2.2-3.6,4.5-4.9,7.1c-0.4,0.6-0.3,1.4,0.3,1.9c0.5,0.5,1.3,0.6,1.9,0.3c0.6-0.4,1.3-0.8,2-0.9c-2.8,6.2-5.4,12.4-7.8,18.8
		c-0.6,1.7-1.2,3.3-1.8,5c-0.2,0.1-0.3,0.2-0.4,0.3c-6.1,5.4-11.8,11.3-17.1,17.6c-0.4,0.5-0.6,1.2-0.3,1.8c0.2,0.6,0.8,1,1.4,1h1.1
		l0.5,0.1l0.4,0.1c-0.3-0.1,0,0,0.1,0.1c0,0.1-0.1,0.2-0.1,0.2l-0.5,0.5c-0.6,0.7-1.2,1.3-1.7,2.1c-2.2,2.8-4.1,5.7-5.6,9
		c-0.9,1.9-1.6,3.8-2.3,5.7c-0.4,1.3,1.2,2.6,2.3,1.8c0.6-0.4,1.4-0.7,2.2-0.7c-2.9,6.8-5,13.9-6.3,21.2c-0.2,1.3,1.1,2.5,2.4,1.8
		h0.1l0.2-0.1l0.3-0.1h0.5l0.4,0.1c0.5,0.2,1,0.5,1.4,0.9l0.2,0.2c0,0,0.1,0.1,0.1,0.1l0.1,0.1c0,0.1,0.1,0.2,0.2,0.3
		c0.1,0.1,0.1,0.3,0.2,0.4l0.2,0.7c0.1,0.8,0.1,1.6,0,2.4c-0.4,2-1.3,3.6-2.2,5.5c-0.5,1-0.9,2-1.3,3.1c-0.3,0.9-0.6,2-0.5,3
		c0.1,1.4,1.2,2.5,2.6,2.5c0.5,0,1.1-0.2,1.6-0.4l0.5-0.3l0.3-0.2l0.2-0.1l0.3-0.1h0.1l0.2,0.1l0.2,0.1l0.3,0.2l0.2,0.2l0.3,0.4
		l0.2,0.4c0.1,0.3,0.2,0.6,0.3,1c0,0,0,0.1,0,0.1v0.8c-0.1,0.9-0.2,1.9-0.3,2.8c-0.2,2.1,0,4.2,1.4,5.8c1.4,1.6,3.7,2.3,5.8,1.7
		c0.9-0.3,1.7-0.8,2.4-1.5c0.8,2,1.3,4.2,1.8,6.4c0.7,2.9,1.6,5.9,3.4,8.4c1,1.4,2.3,2.6,3.9,3.5c0.8,0.4,1.7,0.2,2.2-0.5l2.1-3.3
		l1-1.5l0.1-0.2l0.1,0.1l0.6,0.6c0.4,0.4,0.9,0.8,1.3,1.2c0.9,0.8,1.9,1.5,2.9,2.1c2,1.3,4.1,2.3,6.4,3c2.3,0.7,4.7,0.8,7-0.3
		c3.4-1.6,5.1-5.5,5.6-9c0.7-4.3-0.1-8.6-1.1-12.7c-0.5-2.1-1.2-4.2-1.7-6.4c-0.3-1.1-0.5-2.2-0.7-3.2c-0.1-0.3-0.1-0.5-0.1-0.8
		c0-0.1,0-0.2,0-0.3c0,0,0-0.1,0-0.1c-0.1-0.5-0.1-1.1-0.2-1.6c-0.1-1.1,0-2.1,0.1-3.1c0-0.1,0-0.2,0-0.3s0-0.1,0-0.2
		s0.1-0.5,0.1-0.7c0.1-0.5,0.3-1.1,0.4-1.6c0.2-0.5,0.4-1,0.5-1.6c0.1-0.5,0.1-1.1,0.1-1.6c0-2.4-0.7-4.7-1.4-7
		c-0.7-2.2-1.7-5.1-2.4-7.7c-0.4-1.2-0.7-2.4-0.9-3.7c-0.1-0.3-0.1-0.5-0.1-0.8c0,0,0,0,0,0c0-0.1,0-0.3,0-0.4c0-0.5-0.1-1,0-1.4
		v-0.4c0-0.1,0-0.1,0-0.2c0-0.1,0-0.1,0,0c0,0.1,0-0.3,0.1-0.4c0-0.1,0.1-0.2,0.1-0.3c0,0,0,0,0,0c0,0,0,0,0,0l0,0c0,0,0,0,0,0
		c0.1-0.1,0.2-0.4,0.2-0.4l0.1-0.1l0.2-0.2h0l0.2-0.1h0.1c0.1-0.1,0.1,0,0.1,0h0.1l0.4-0.1h0.2c1.3,3.3,2.8,6.5,4.4,9.7
		c0.4,0.6,1.1,0.9,1.8,0.7c1.3-0.5,2.3-1.5,2.9-2.7c0.5-1.2,0.8-2.4,1.1-3.7c0.1-0.3,0.2-0.5,0.2-0.8l0.2-0.4l0.1-0.2l0.4-0.7
		c0.1-0.1,0.3-0.4,0.1-0.1l0.4-0.4l0.2-0.2h0.1l0.4-0.2h0.2l0.5-0.1h0.3c0.2,0,0.4,0,0.5,0h0.5l0.3,0.1c1.7,0.3,3,1,4.5,1.9
		c1.5,0.9,2.5-0.2,2.4-1.4c-0.4-8.1-0.6-16.3,2-24.1c0.3-0.8,0.5-1.6,0.9-2.3c0-0.1,0-0.1,0-0.1l0.1-0.2l0.3-0.6
		c0.2-0.4,0.4-0.8,0.5-1.2c0.7-1.5,1.6-3,2.5-4.4c0.9-1.3,1.8-2.6,2.9-3.9c1.1-1.3,2.2-2.4,3.4-3.6c2.7-2.5,5.8-4.6,9.1-6.2
		c1.4-0.7,0.7-3-0.8-3c-0.6,0-1.2,0-1.7-0.2l-0.9-0.2l-0.8-0.3l-0.8-0.4l-0.4-0.3l-0.3-0.2h0c1-0.4,2.1-0.6,3.1-0.6
		c0.9,0,1.6-0.7,1.6-1.6c0-0.9-0.7-1.6-1.6-1.6c-2.3,0-4.6,0.7-6.5,2c-0.7,0.4-1.1,1.5-0.6,2.2c1.1,1.5,2.6,2.8,4.4,3.6
		c-4.7,2.9-8.8,6.6-12,11c-2,2.9-3.7,6-4.9,9.2c-1.4,3.7-2.2,7.5-2.6,11.4c-0.4,4.1-0.3,8.2-0.2,12.2c-2.2-1-4.6-1.6-6.8-0.7
		c-1.5,0.6-2.7,1.7-3.3,3.2c-0.5,1.3-0.9,2.6-1.2,3.9l-0.3,1c0,0.1-0.1,0.1-0.1,0.2h0c-2.9-6-5.3-12.3-7.2-18.7
		c-0.3-0.9-1.1-1.3-2-1.1c-0.4,0.1-0.7,0.4-0.9,0.7c-1.1,1.8-2.2,3.6-3.3,5.3c-0.3,0.4-0.5,0.9-0.8,1.3c-0.1,0.3-0.4,0.6-0.6,0.8
		l-0.1,0.1H56h0l-0.2-0.1l-0.2-0.2l-0.3-0.3c0,0-0.2-0.3-0.2-0.3l-0.3-0.5l-0.1-0.2c0,0,0-0.1,0-0.1c0-0.2-0.1-0.4-0.2-0.5
		c-0.1-0.4-0.2-0.8-0.3-1.3c-0.5-2.1-1-4.1-1.4-6.2c-0.4-2.1-0.9-4.7-1.3-7c-0.2-0.5-0.6-1-1.1-1.1c-0.5-0.2-1.2,0-1.6,0.4
		c-1.3,1.1-2.5,2.3-3.7,3.6c-1.1-6.9-0.1-13.9,1.2-20.7c0.4-2.3,1-4.6,1.5-6.8c0.2-0.9-0.4-1.8-1.3-2c-0.4-0.1-0.8,0-1.1,0.2
		L44,79.5c2-5.7,4.2-11.3,6.7-16.8c0.8-2,1.7-3.9,2.6-5.8c0.4-0.9,0.1-2.1-1-2.4c-0.7-0.2-1.4-0.3-2.2-0.3c2-2.8,4.4-5.3,7.1-7.4
		c1.9-1.5,3.9-2.9,5.9-4.1c2.2-1.3,4.4-2.5,6.7-3.7c2.3-1.2,5.1-2.5,7.7-3.6c1.5-0.7,0.7-3-0.8-3h-1.9c4.7-2.2,9.7-3.4,14.8-3.8
		c2-0.1,4-0.1,6,0c0.6,0.1,1.2-0.4,1.4-1c0.3-0.6,0.1-1.3-0.3-1.7l-2-2.3c6.2,0.5,12.3,2.3,17.7,5.3c1.8,1,3.5,2.1,5.2,3.3l0.3,0.2
		c0.4,0.3,1,0.3,1.4,0.1c0.3-0.1,0.5-0.3,0.7-0.5l0.1-0.2c0.7-1.3,1.5-2.6,2.4-3.9c0.4-0.6,0.8-1.2,1.3-1.8c0.1-0.2,0.2-0.3,0.3-0.4
		l0.2-0.3l0.7-0.8c1.6-2,3.4-3.9,5.4-5.6c-1.1,3-1.7,6.2-1.8,9.4v0.2c0,0.3,0,0.6,0.2,0.9c0.4,0.7,1.5,1.1,2.2,0.6
		c6-4.6,13.2-7.5,20.7-8.5l2.5-0.3l-2.1,2.3c-0.4,0.5-0.5,1.2-0.3,1.7c0.3,0.5,0.8,1.1,1.5,1c6.9-0.5,13.8,0.6,20.1,3.4l0.7,0.4
		h-1.9c-0.7,0-1.3,0.5-1.5,1.2c-0.2,0.6,0.1,1.5,0.7,1.8c4.6,2.1,9.2,4.2,13.6,6.8c4.4,2.6,8.1,5.3,11.5,9c0.4,0.5,0.9,1,1.3,1.5
		l0.4,0.6l0.6,0.8h0c-0.7,0-1.4,0.1-2.2,0.3c-1.1,0.3-1.4,1.4-1,2.4c3.1,6.7,6,13.5,8.5,20.4l0.8,2.2l-1.7-0.9
		c-0.8-0.4-1.8-0.2-2.2,0.6c-0.3,0.5-0.3,1.1,0,1.6c2,3.8,3.6,7.7,4.5,11.9c0.9,3.8,1,7.7,0.1,11.6c-0.3,1.3-0.7,2.5-1.2,3.7l-1-2.4
		c-0.7-1.9-1.5-4.2-3.1-5.5c-0.8-0.7-2.5-0.6-2.7,0.7c-0.1,0.4-0.1,0.8-0.3,1.2c0,0.2-0.1,0.3-0.2,0.5c0,0.1-0.1,0.2-0.1,0.3v0.1
		c-0.3,0.6-0.6,1.2-0.9,1.7c-0.7,1.2-1.4,2.4-1.7,3.8c-0.2,0.9-0.3,1.8-0.3,2.7c0,0.5,0.1,1.1,0.2,1.6l0.1,0.8c0.1,1,0.2,2,0.2,2.9
		c0,1,0,2.7,0,4c0,0.3,0,0.5,0,0.8c0,0.3-0.2-0.4-0.2-0.5c-0.6-1.6-1.4-3.1-2.5-4.4c-0.6-0.8-1.4-1.5-2.3-2
		c-1.1-0.6-2.4-0.8-3.7-0.5c-0.9,0.2-1.3,1.2-1.1,2c0.3,1.5,0.3,3,0.3,4.4c-0.1,0.9-0.2,1.7-0.4,2.6c0,0.1-0.1,0.2-0.1,0.3
		c-0.1,0.4-0.2,0.7-0.3,1.1l-0.3,0.9l-0.2,0.5l-0.1,0.2c0,0,0,0,0,0.1c-0.3,0.7-0.6,1.3-1,1.9c-0.4,0.6-0.7,1.3-1.1,1.9l-0.6,0.9
		c-0.1,0.1-0.2,0.3-0.3,0.4l-0.2,0.2c0,0,0,0,0,0.1h0c-0.6,0.7-1.2,1.4-1.8,2.2c0-0.8,0-1.6,0.1-2.4c0.3-2.4,0.7-4.7,0.7-7.2
		c0-1.1-0.2-2.1-0.6-3.1c-0.6-1-1.7-1.6-2.9-1.6c-2.4,0-4.7,2-6.5,3.4c-1.1,0.9-2.2,1.8-3.3,2.7c0.2-3.6,0.5-7.3,0.9-10.9
		c0.2-2.3,0.5-4.7,0.8-7c0.3-2,0.4-3.9,0.4-5.9c-0.1-3.4-0.9-6.9-2.6-9.8c-1.7-3-4.3-5.2-7.1-7c-2.5-1.5-5.3-2.8-8.1-3.6l0.3-0.2
		l1-0.8c0.1-0.1,0.1-0.1,0.2-0.2c0,0,0,0,0,0c0,0,0,0,0,0l0.5-0.4c0.4-0.2,0.7-0.4,1.1-0.6c0.1,0,0.1,0,0.1,0l0.2-0.1l0.7-0.2
		c1-0.2,1.5-1.5,1-2.4c-1.3-2-4-3-6.1-3.8c-2.2-0.8-5.2-1.6-7.8-1.7c-1.3,0-2.5,0.1-3.5,0.9c-1,0.8-0.6,1.7,0,2.3
		c0.5,0.5,1.4,0.6,2.1,0.2l0.2-0.2l-0.2,0.2h0.1c0.2-0.1,0.1,0,0,0l0.4-0.1h2.2l1.6,0.3c1.3,0.3,2.5,0.6,3.7,1l0.8,0.3l0.4,0.2
		l0.3,0.1l1.4,0.6h0.1c-0.7,0.4-1.3,0.9-2,1.5l-0.9,0.7h0l-0.2,0.2l-0.4,0.3l-0.5,0.3l-0.1,0.1h-0.1l-0.5,0.1h-0.3
		c-1.8,0-2.2,2.7-0.4,3.2c2,0.5,3.9,1.1,5.7,1.7l1.3,0.5l0.3,0.1h0.1l0.6,0.3c0.8,0.4,1.6,0.7,2.4,1.2c0.7,0.4,1.4,0.8,2.1,1.3
		l0.5,0.3l0.4,0.3c0.1,0.1,0.2,0.2,0.3,0.3l0.5,0.4c0.6,0.5,1.1,1.1,1.6,1.6c0.2,0.2,0.4,0.5,0.6,0.7l0.2,0.2
		c0.1,0.2,0.3,0.4,0.4,0.5c0.4,0.6,0.8,1.3,1.1,1.9c0.1,0.2,0.2,0.4,0.2,0.5v0.1l0.1,0.1c0.1,0.4,0.3,0.7,0.4,1.1
		c0.2,0.7,0.4,1.5,0.5,2.3l0.1,0.6c0,0.1,0,0.2,0,0.3c0.1,0.4,0.1,0.9,0.1,1.3c0.1,1.9,0,3.7-0.3,5.6c-0.3,2.2-0.5,4.5-0.8,6.8
		c-0.5,5.2-1,10.4-1.3,15.7c-0.1,1.2,1.4,2,2.4,1.4c2-1.2,3.7-2.9,5.5-4.4l0.7-0.6l0.4-0.3l0.1-0.1l0.2-0.1l0.3-0.2l0.4-0.3l0.7-0.5
		c0.5-0.3,1-0.6,1.5-0.9l0.3-0.1h0l0.7-0.2h0.1c0,0-0.1,0-0.1,0h0.1v0.1c0,0.1,0,0.2,0.1,0.2c0,0.1,0,0.2,0.1,0.3s0,0.1,0,0.2
		s0-0.2,0-0.2s0.1,0.5,0.1,0.6v0.8c-0.1,2.4-0.5,4.7-0.7,7c-0.2,2.3-0.3,5.4,2.2,6.4c0.5,0.2,1.2,0,1.5-0.4c2.6-2.7,5-5.6,6.6-8.9
		c0.3,1.3,0.5,2.6,0.7,3.9c0,0.1,0,0.2,0,0.3c0,0.2,0,0.4,0.1,0.5c0,0.4,0.1,0.9,0.1,1.4s0.2,1.6,0.2,2.4c0.1,1.6,0.1,3.3,0.1,4.9
		c0,0.7-0.1,1.5-0.1,2.3c-0.1,0.8-0.1,0.6-0.1,1c0,0.3,0,0.3,0,0.4l-0.1,0.5c-0.2,1.3-0.5,2.6-1,3.8l0,0v0c0,0,0,0.1,0,0.1
		c0,0,0,0,0,0c0,0.1-0.1,0.3-0.2,0.4l-0.4,0.7l-0.2,0.4c0,0-0.1,0.1-0.1,0.1c-0.1,0,0,0,0.1-0.1c-0.2,0.3-0.4,0.5-0.6,0.7
		c-1.1,1.3-1.9,2.8-2.2,4.5c-0.6,3.5,0.3,7.1,1.2,10.4c0.5,1.8,1,3.7,1.4,5.5c0.4,1.8,0.7,3.6,0.8,5.5c0,0.4,0,0.7,0,1.1
		c0,0.2,0,0.3,0,0.4c0,0.1,0,0.1,0,0.2c-0.1,0.7-0.3,1.4-0.5,2.1c-0.4,1.4-0.9,2.8-1.3,4.2c-0.7,2.3-1.7,5.6,0.4,7.5
		c1.4,1.4,3.8,1.3,5.6,0.9c1.8-0.4,4.2-1.3,6.1-2.3c1.8-1,3.6-2.2,5.1-3.6l1.1-1c0.1-0.1,0.2-0.3,0.4-0.4l0.3,0.4
		c0.3,0.5,0.7,1.1,1,1.6c0.6,1,1.3,2,1.9,3c0.5,0.7,1.4,1,2.2,0.5c2.8-1.5,4.6-4.2,5.7-7c1.2-2.9,1.7-6,2.6-9
		c0.3-1.2,0.7-2.3,1.2-3.4c0.5,0.2,1,0.4,1.5,0.5c1.9,0.5,3.8,0.8,5.8,0.9c1.5,0.1,3.3,0.2,4.7-0.5c0.9-0.5,1.3-1.6,0.9-2.6
		c-0.3-0.6-0.6-1.2-0.9-1.9l-0.3-0.7l-0.4-1.1c-0.4-1.3-0.8-2.6-1.1-3.9l-0.1-0.4v-0.1c0-0.3-0.1-0.5-0.1-0.8v-0.8l0.3,0.2
		c0.4,0.3,0.8,0.5,1.3,0.7c1.2,0.6,2.7,1.3,4,0.9c1.3-0.3,1.7-2,1.5-3.4c-0.3-1.4-0.5-1.8-0.7-2.8c-0.4-1.6-0.9-3.3-1.6-4.8
		c-0.6-1.5-1.3-3.1-2.2-4.5c-0.4-0.6-0.9-1.2-1.3-1.9s-0.4-0.6-0.5-0.9c0,0,0,0,0,0l-0.1-0.1c-0.1-0.2-0.1-0.4-0.2-0.5v-0.4
		c0,0,0,0,0,0c0-0.1,0-0.2,0.1-0.2c0.1-0.1,0.1-0.2,0,0l0.2-0.3h0c0,0,0,0,0,0l0.3-0.1l0.2-0.1l0.4-0.1c0.2,0,0.4,0,0.1,0h1.9
		l0.5,0.1l0.8,0.3l0.1,0.1h-0.1l0.4,0.2c1.2,0.6,2.3-0.2,2.4-1.4C236.3,133.6,234.9,127,231.6,121.3z M18.3,159.7
		C18.2,159.7,18.2,159.7,18.3,159.7L18.3,159.7z M46.9,186.5l0.1-0.1C47.1,186.4,47,186.5,46.9,186.5z M64.3,190.2
		C64.1,190.4,64.2,190.3,64.3,190.2L64.3,190.2z M44.2,83.1c-1.5,7.1-2.9,14.3-2.4,21.6c0.2,2.4,0.5,4.8,1.1,7.2
		c0.2,0.6,0.7,1.1,1.3,1.2c0.7,0.1,1.2-0.2,1.6-0.8c1-1.3,2.1-2.5,3.2-3.6c0.7,3.7,1.4,7.4,2.3,11.1c0.4,1.7,1.3,3.6,2.9,4.6
		c0.9,0.5,1.9,0.7,2.9,0.4c1.2-0.4,1.9-1.3,2.5-2.2s1.5-2.4,2.3-3.7c0.5,1.7,1.2,3.5,1.8,5.2c-1.6,0.4-2.8,1.5-3.4,3
		c-0.8,2.1-0.4,4.5,0,6.5c1.1,5.1,3.4,9.9,4.3,15c0,0.3,0.1,0.5,0.1,0.8c0,0.1,0,0.3,0,0.4c0,0.4,0,0.9,0,1.4c0,0.1,0,0.1,0,0.2
		c0,0.2-0.1,0.4-0.2,0.5c-0.4,1-0.6,2-0.8,3c-0.8,4.4,0.1,8.9,1.3,13.2c0.6,2.2,1.2,4.4,1.7,6.5c0.5,2.1,0.8,4.2,0.9,6.3
		c0,0.9,0,1.7-0.1,2.6c0,0,0,0.1,0,0.2c0,0.1,0,0.2-0.1,0.4l-0.1,0.6c-0.1,0.5-0.2,0.9-0.4,1.4s-0.3,0.8-0.4,1.2c0,0,0,0,0,0
		l-0.1,0.3l-0.3,0.6l-0.7,1l-0.2,0.2l-0.5,0.5c-0.1,0.2-0.3,0.3-0.4,0.4l-0.2,0.1l-0.6,0.4l-0.2,0.1h-0.1c-0.9,0.3-1.9,0.4-2.8,0.3
		c-2.1-0.3-4.3-1.3-6.2-2.4c-1.9-1.1-3.7-2.5-5.2-4.1c-1-1-2.4-1.8-3.8-1c-0.6,0.4-1,0.9-1.3,1.5l-1.2,1.8l-1.2,1.8l-0.2-0.2
		c-0.3-0.2-0.5-0.4-0.7-0.7c-0.1-0.1-0.2-0.2-0.3-0.4l-0.2-0.2h0c-0.4-0.6-0.8-1.2-1.1-1.8c-0.2-0.3-0.3-0.6-0.4-0.9
		c-0.1-0.3-0.1-0.3-0.2-0.4l-0.2-0.5c-1.1-2.9-1.5-5.9-2.4-8.9c-0.5-1.8-1.3-3.6-2.3-5.2c-0.4-0.6-1.1-0.9-1.8-0.7
		c-0.7,0.2-1.1,0.8-1.2,1.5c0-0.3-0.1,0.2-0.1,0.3c0,0.1-0.1,0.2-0.1,0.2h0c-0.1,0.2-0.2,0.3-0.3,0.4c-0.1,0.1,0,0,0,0.1
		c-0.1,0.1-0.2,0.2-0.3,0.3c0,0.1-0.3,0.3-0.3,0.3l-0.5,0.3c0,0,0,0-0.1,0l-0.2,0.1l-0.3,0.1H28l-0.2-0.1c0,0-0.4-0.1-0.4-0.1
		l-0.5-0.3h-0.1l-0.2-0.2l-0.2-0.2l-0.1-0.1c-0.2-0.3-0.3-0.5-0.4-0.8c-0.1-0.3-0.2-0.7-0.2-1c0-0.5,0-1,0.1-1.4
		c0-0.5,0.3-1.8,0.3-2.7c0.2-1.7-0.3-3.5-1.3-4.9c-1.1-1.5-2.7-2.5-4.6-2c-0.4,0.1-0.8,0.3-1.2,0.5l0.2-0.6c1.2-3.8,4-7.2,3.8-11.5
		c0-2.2-1.1-4.3-2.9-5.6c-0.8-0.6-1.9-1-2.9-1.1c1.3-6.9,3.5-13.7,6.4-20.1c0.4-1,0.1-2-1-2.4c-1-0.4-2-0.5-3-0.4
		c1-2.5,2.2-4.9,3.7-7.2c1-1.5,2.1-3,3.2-4.4c0.6-0.8,1.5-1.5,1.9-2.4c0.5-0.9,0.5-2.1,0-3c-0.4-0.7-1.1-1.2-1.8-1.5
		c4.6-5.2,9.4-10.2,14.6-14.8c0.3,0,0.5,0,0.7-0.2L44.2,83.1z M232.5,158.2h-0.2C232.4,158.1,232.5,158.1,232.5,158.2z M223.5,100.2
		C223.5,100.1,223.6,100.1,223.5,100.2L223.5,100.2z M196.2,121.5C196.2,121.5,196.2,121.5,196.2,121.5L196.2,121.5z M194.6,121.4
		c0,0-0.1,0.1-0.1,0.1C194.5,121.6,194.5,121.5,194.6,121.4z M186.7,152C186.7,152.1,186.7,152.1,186.7,152L186.7,152z M218.4,167.8
		c0.1,0.2,0.2,0.4,0.2,0.6C218.5,168.2,218.5,168,218.4,167.8z M232.5,138c-1.8-0.4-3.8-0.3-5.4,0.5c-1.3,0.7-2.1,2.1-2.1,3.5
		c0,1.6,0.9,3,1.7,4.3c0.4,0.6,0.8,1.2,1.2,1.8c0.4,0.7,0.7,1.3,1,2.1c0.7,1.5,1.2,3,1.7,4.5l0.8,3l-0.2-0.1h0c0,0,0,0,0,0
		c-0.5-0.2-0.9-0.4-1.3-0.7c-0.9-0.5-1.7-1.1-2.8-1.1c-2.5,0.1-2.8,3-2.6,4.9c0.3,2.8,1.2,5.6,2.4,8.2c-0.8,0-1.5,0-2.3-0.1
		l-1.4-0.1h-0.4l-0.7-0.1c-0.8-0.2-1.7-0.4-2.5-0.6l-0.9-0.3l-0.1-0.1c-0.1,0-0.1,0-0.1-0.1c-0.2-0.4-0.5-0.6-1-0.7
		c-0.7-0.2-1.4,0.1-1.8,0.7c-1.8,2.8-2.6,6-3.3,9.1c-0.4,1.4-0.7,2.9-1.2,4.3c-0.2,0.6-0.4,1.2-0.7,1.7c-0.3,0.6-0.6,1.3-1,1.9
		l-0.3,0.4l-0.1,0.2c0,0-0.1,0.1-0.1,0.1l-0.8,0.8l-0.4,0.4l-1.1-1.6c-0.3-0.5-0.6-0.9-0.9-1.4c-0.3-0.6-0.7-1.2-1.2-1.7
		c-1.1-1.1-2.7-0.9-3.8,0.1c-1.1,0.9-1.4,1.4-2.2,2c-1.5,1.3-3.2,2.4-4.9,3.3c-1.7,0.8-3.6,1.7-5.6,1.7c-0.4,0-0.8,0-1.2-0.1
		l-0.3-0.1l-0.1-0.1h0c0,0,0,0,0,0h0c0,0,0-0.1,0-0.1c0,0,0,0,0,0c0,0,0-0.1,0-0.1h0c0,0,0-0.1,0-0.1c0,0,0,0,0,0c0,0,0,0,0-0.1
		c0,0,0-0.1,0-0.1c0-0.1,0-0.1,0-0.1v-0.1c0-0.3,0-0.5,0-0.8v-0.3c0-0.1,0.1-0.3,0.1-0.4c0.1-0.4,0.2-0.7,0.3-1
		c0.7-2.9,1.9-5.6,2.3-8.5c0.2-1.8-0.1-3.6-0.4-5.4c-0.3-1.8-0.8-3.8-1.3-5.6c-0.5-1.8-1-3.6-1.4-5.3c-0.2-0.8-0.4-1.6-0.4-2.4
		c0-0.1,0-0.3-0.1-0.4c0-0.2,0-0.4,0-0.6s0-0.8,0-1.2c0-0.2,0-0.4,0-0.6c0,0,0-0.3,0-0.4c0-0.1,0-0.2,0.1-0.4c0-0.2,0.1-0.4,0.1-0.7
		c0.1-0.2,0.1-0.3,0.2-0.5c0.1-0.1,0.1-0.2,0.1-0.3c0,0,0-0.1,0.1-0.1l0.1-0.3l0.3-0.5l0.3-0.4c0-0.1,0.1-0.1,0.1-0.1l0.1-0.1
		l0.6-0.7c0.4-0.5,0.7-1,1-1.6c1.3-2.5,1.8-5.5,2.1-8.3c0.2-3.2,0.2-6.5-0.2-9.7c-0.3-3.2-0.9-6.3-1.7-9.4l-0.5-1.5
		c0.2-0.8,0.3-1.7,0.4-2.5c0.1-1.2,0.1-2.3,0-3.5l0.3,0.2l0.2,0.2c0.2,0.1,0.3,0.3,0.4,0.4l0.4,0.5h0c0.1,0.1,0.2,0.3,0.3,0.4
		c0.4,0.6,0.8,1.3,1.2,1.9c0,0.1,0.1,0.2,0.1,0.4c0,0.1,0.3,0.6,0.4,1c0.5,1.4,0.9,3,2,4.1c1,1.1,2.8,0.7,3.5-0.5
		c0.7-1.3,0.7-2.3,0.8-3.5c0.1-1.3,0.2-2.7,0.2-4.1c0-1.3,0-2.5-0.1-3.7c-0.1-1.2-0.4-2.5-0.4-4c0-0.1,0-0.2,0-0.3v-0.2
		c0-0.1,0-0.1,0-0.2c0-0.1,0.1-0.2,0.1-0.3c0.1-0.4,0.2-0.8,0.4-1.1v0c0-0.1,0-0.1,0.1-0.1l0.2-0.5c0.2-0.3,0.4-0.6,0.5-0.9l0.9-1.6
		l0.3,0.6l0.1,0.2c0.1,0.1,0.1,0.3,0.2,0.4c0.1,0.3,0.2,0.5,0.3,0.8c0.7,1.8,1.3,3.9,2.5,5.5c0.7,0.9,2.1,1.2,2.8,0
		c2.3-3.9,3.5-8.3,3.6-12.8c0.1-4.4-0.9-8.8-2.4-12.9c-0.4-1-0.7-1.9-1.2-2.8c0.4,0.2,0.7,0.4,1,0.5c0.5,0.3,1.2,0.2,1.7-0.1l1,0.4
		l1.1,0.4l0.2,0.1l0.3,0.1l0.7,0.3c1.6,0.8,3.1,1.7,4.6,2.7l0.5,0.4c0,0,0.1,0.1,0.1,0.1l0.2,0.2l1.1,0.9c0.6,0.6,1.3,1.2,1.9,1.8
		c0.6,0.6,0.5,0.6,0.8,0.9l0.4,0.4l0.2,0.3l0.1,0.2c0.5,0.7,1.1,1.4,1.5,2.2c0.5,0.8,0.9,1.6,1.3,2.5c0.1,0.1,0.1,0.2,0.1,0.3
		l0.1,0.1c0,0,0,0.1,0,0.1l0.1,0.2c-1.1,0.2-2.2,0.5-3.1,1.1c-0.9,0.5-1.7,1.4-1.7,2.5c-0.1,1.4,0.7,2.8,2.1,3.3l0.3,0.1h0.1
		l0.1,0.1l0.7,0.3c0.4,0.3,0.9,0.5,1.3,0.8l0.2,0.2c0,0,0,0,0,0h0h0l0.5,0.5c0.4,0.4,0.7,0.7,1.1,1.1l0.2,0.3h0.1l0.4,0.6
		c0.3,0.4,0.5,0.9,0.8,1.3l0.3,0.6c0.1,0.1,0.1,0.2,0.1,0.3c0,0,0,0,0,0.1c0.2,0.5,0.4,1,0.5,1.4c0.4,1.1,0.6,2.2,0.8,3.4
		c0,0.3,0.1,0.6,0.1,0.9c0,0,0,0.1,0,0.1c-1.3-0.2-2.6-0.1-3.9,0.3c-0.9,0.3-1.3,1.3-1.1,2.1c0.1,0.2,0.2,0.4,0.4,0.6
		c1,1.2,2,2.4,2.8,3.8c0.4,0.7,0.8,1.3,1.1,2l0.5,1l0.2,0.5c0,0.1,0.1,0.2,0.1,0.3c0,0,0,0.1,0,0.1c0.6,1.4,1,2.9,1.4,4.4
		c0.3,1.4,0.5,2.9,0.6,4.3C232.5,135.9,232.5,137,232.5,138z"/>
</g>
</svg>
