<?xml version="1.0" encoding="utf-8"?>
<!-- Generator: Adobe Illustrator 27.9.0, SVG Export Plug-In . SVG Version: 6.00 Build 0)  -->
<svg version="1.1" id="Layer_1" xmlns="http://www.w3.org/2000/svg" xmlns:xlink="http://www.w3.org/1999/xlink" x="0px" y="0px"
	 viewBox="0 0 285.8 228.8" style="enable-background:new 0 0 285.8 228.8;" xml:space="preserve">
<g>
	<path style="stroke:#000000;stroke-width:3;stroke-linecap:round;stroke-linejoin:round;stroke-miterlimit:10;" d="M90.4,52.9
		L90.4,52.9c-4.9-1.7-10.2-2.1-15.3-1.2c-5.1,0.8-9.8,2.7-14,5.7c-2.4,1.7-4.5,3.6-6.4,5.9c-0.5,0.6-0.6,1.3-0.1,2
		c0.5,0.6,1.3,0.7,2,0.4c1.3-0.8,2.6-1.6,4-2.3l2-0.9l0.3-0.1l0.5-0.2l1.1-0.4c1.5-0.5,2.9-0.9,4.4-1.3c0.8-0.2,1.5-0.3,2.3-0.4
		l0.6-0.1h0c0,0,0.1,0,0.1,0h0.2l1.1-0.1c-4.4,3.4-7.7,8-9.6,13.2c-0.7,1.9-1.2,3.8-1.5,5.8c-0.1,0.8,0.1,1.5,0.9,1.8
		c0.7,0.3,1.5,0,1.9-0.6l0.5-0.8c0-0.1,0.1-0.1,0.1-0.2l0.3-0.4c0.4-0.5,0.8-0.9,1.3-1.3l0.4-0.3l0.1-0.1h0.1l0.7-0.5
		c0.5-0.4,1.1-0.7,1.7-0.9c0.7-0.3,0.9-1.5,0.5-2.1c-0.4-0.6-1.3-0.9-2.1-0.5c-0.7,0.3-1.4,0.7-2.1,1.2l0.3-0.8
		c0.1-0.1,0.1-0.5,0.2-0.5l-0.1,0.2l0.1-0.2l0.2-0.4c0.4-0.8,0.7-1.5,1.1-2.3c0.4-0.8,0.9-1.5,1.4-2.1l0.7-1l0.1-0.1l0.2-0.3
		l0.5-0.5c1.1-1.3,2.3-2.5,3.6-3.6l0.6-0.5c0,0,0,0,0,0h0l0.3-0.2l1.2-0.8c0.8-0.5,1.7-1,2.5-1.5c0.6-0.3,0.9-1,0.7-1.7
		c-0.2-0.7-0.8-1.1-1.5-1.1c-4.4-0.2-8.7,0.3-12.9,1.6c0.9-0.5,1.8-0.9,2.7-1.3l0.3-0.1l0.2-0.1l0.9-0.3c0.6-0.2,1.2-0.4,1.8-0.6
		c1.1-0.4,2.3-0.7,3.5-0.9l0.9-0.2l0.4-0.1h0.2c0.6-0.1,1.2-0.2,1.8-0.2c1.2-0.1,2.4-0.1,3.7-0.1l2,0.2l0.5,0.1l0.3,0.1l1,0.2
		c1.4,0.2,2.7,0.6,4,1.1c0.8,0.2,1.7-0.2,1.9-1.1C91.7,54,91.2,53.2,90.4,52.9z"/>
	<path style="stroke:#000000;stroke-width:3;stroke-linecap:round;stroke-linejoin:round;stroke-miterlimit:10;" d="M267.1,63.5
		c-1.3-5.1-2.9-10.3-2.9-15.6c0-2.5,0.5-4.9,0.8-7.4c0.2-2.1,0.2-4.1-0.1-6.2c-0.5-3.6-2.1-7.1-4.7-9.8s-6.2-4.3-9.9-5.1
		c-2.5-0.5-5.1-0.7-7.6-0.9c-2.9-0.2-5.9-0.2-8.8,0.1c-5.5,0.7-10.7,3-15.6,5.4c-4.6,2.4-9,5.1-13.2,8.2
		c-9.3,6.8-17.7,14.8-25.9,22.9c-1.1-0.7-2.4-1.2-3.6-1.8c-1.7-0.7-3.6-1.2-5.4-0.8c-1.2,0.2-2.2,0.8-3,1.8c0.6-1.2,1.4-2.4,2.2-3.5
		c0.6-0.9-0.2-2.4-1.3-2.3c-1.1,0.2-2.5,0.8-3.6,1.5c-1.4,0.9-2.8,1.8-4.1,2.8c-2.4,1.8-4.8,3.7-6.1,6.4c-0.2,0.5-0.5,1.1-0.6,1.7
		V61c0-0.1,0-0.2,0-0.3c0-0.1,0-0.2,0-0.4c0-0.3-0.1-0.7-0.1-1c0-0.3,0-1.2,0.1-1.8c0-0.1,0-0.3,0-0.3s0-0.2,0.1-0.3
		c0-0.1,0.1-0.6,0.2-0.9c0.1-0.3,0.2-0.5,0.2-0.8l0.1-0.3l0.2-0.3c0.1-0.3,0.3-0.5,0.5-0.8l0.2-0.3l0.2-0.2l0.3-0.3l0.2-0.1
		c0.2-0.2,0.5-0.3,0.8-0.5c1.1-0.5,0.8-2,0-2.6c-2.6-1.9-5.9,0.1-8,1.8c-2.6,2.1-4.7,4.7-6.6,7.4l-0.7,1c-1.4-2.2-3.1-4.3-5.1-6.1
		c-1-0.9-2.5-0.2-2.6,1.1l-0.5,7.3c-0.7-1.1-1.3-2.4-1.9-3.6c-1.4-2.4-3.4-4.4-6.2-4.8c-1.1-0.2-1.9,1.4-1.3,2.3
		c1.1,1.4,1.6,3.2,1.5,5c-2.6-1.3-5.2-2.7-7.8-4c-2.1-1-4.6-1.9-6.9-1.7C96.6,42,82.3,28.2,64.3,20.9c-8.8-3.6-19.6-6-27.9,0.2
		c-6.8,5.1-9.9,13.5-12.2,21.3c-3.4,11.9-5.9,24.2-4,36.6c0.1,0.7,1,1.2,1.7,1.1s1.2-0.7,1.3-1.5c1.7-13.8,8.4-26.8,18.4-36.4
		l0.7-0.6c-0.8,2.3-1.5,4.6-2.1,6.9c-1,4-1.9,8-2.7,12.1c-0.8,3.8-1.5,7.6-1.9,11.5c-0.4,3.9-0.1,8,1.9,11.5
		c0.7,1.2,2.3,0.8,2.8-0.4c0.8-2.4,2-4.6,3.4-6.7c-7.7,16.2-14.2,33.1-15,51.2c-0.2,6,0.3,11.9,1.5,17.8c0.3,1.4,2.7,1.5,2.9,0
		c1.8-11.1,6.2-21.5,12.9-30.5c-1.2,5-1.8,10.2-1.9,15.3c0,3.8,0.2,7.5,0.8,11.2c0.5,3.2,1.5,6.4,3.8,8.8c0.6,0.6,2,0.6,2.4-0.3
		l0.6-1.4c0.1,0.5,0.2,1.1,0.3,1.7c0.2,1.7,0.4,3.4,0.5,5.1c0.2,3.7,0.2,7.3,0.2,11c0,7.2,0.2,14.6,2.4,21.5c0.5,1.7,2.8,1.3,3-0.4
		c0.5-4.8,2-9.5,4.4-13.7c0.3,4.8-0.4,9.9-1.1,14.6c-1,6-2.3,12.1-4.6,17.7c-0.4,0.9-0.8,1.8-1.4,2.7l-0.3,0.4
		c-0.1,0.1-0.2,0.2-0.3,0.3c-0.1,0.1-0.2,0.2-0.3,0.3c-0.2,0.1-0.5,0.3-0.6,0.6c-0.3,0.6-0.2,1.3,0.2,1.8c0.9,0.8,2.3,0.5,3.3,0.1
		c1.3-0.5,2.5-1.1,3.7-1.9c2.2-1.6,4.1-3.6,5.5-6c2.6-4,4.1-8.6,5.4-13.2l1.5,1.5c1.1,1.1,2.2,2.4,3.6,3.3c1.3,0.9,2.7,0.8,3.1-0.7
		c0.2-0.7-0.1-1.5-0.2-2.2c-1.2-4.7-3.1-9.3-2.8-14.1c0-0.5,0.1-1.1,0.3-1.5l0.1-0.4c0-0.1,0-0.1,0-0.1c0,0,0-0.1,0.1-0.2l0.3-0.5
		c0,0.1,0.5-0.4,0.4-0.3c0.1-0.1,0.3-0.2,0.5-0.3l0.2-0.1l0.5-0.2h0c0.6,0.8,1.3,1.3,2.1,1.7c0.8,0.3,1.6,0.2,2.1-0.5
		c0.4-0.8,0.2-1.7-0.5-2.1l-0.6-0.3l-0.2-0.2c-0.2-0.1-0.3-0.2-0.4-0.4l-0.1-0.1l-0.1-0.1c-0.4-0.5-0.7-1.2-0.8-1.8l-0.1-0.5
		c0,0,0-0.4,0-0.5c0-0.4,0-0.8,0-1.1c0.1-1,0.3-1.9,0.4-2.9c0.2-1.9-0.5-3.8-2.2-4.7c-0.5-0.3-1.1-0.4-1.7-0.5c0-1.7,0-3.3-0.1-5
		c0-1.1,0.1-2.3-0.2-3.3c-0.3-1.1-1-1.9-1.4-2.9c-1.6-3.5-0.8-7.7-0.1-11.3c0.3-1.5-1.4-2.5-2.5-1.5c-1.9,1.7-4.3,2.9-6.8,3.5
		L77.3,129c0.6-0.7,0.6-1.9-0.3-2.4c-0.1-0.1-0.2-0.1-0.2-0.1c3.6-3.1,6-7.5,7.6-12.1c2.1-6,2.7-12.5,4.3-18.6c0.9-3.5,2.2-7,4.3-10
		c0.6-0.9-0.1-1.9-0.9-2.2L90.3,83c0.9-2.9,2.9-5.3,5.5-6.8c0.8-0.5,1.8-0.8,2.4-1.5c0.9-0.8,1.1-2.2,0.4-3.2
		c-0.6-1-1.8-1.5-2.9-1.8c5.1-3.2,11.3-4.6,17.3-4c1.1,0.1,1.6-1.1,1.5-1.9c-0.3-2-1.3-3.9-2.6-5.4c1.6,0.2,3.2,1,4.5,1.7l8.9,4.5
		c0.7,0.4,1.6,0.2,2.1-0.5c0.1-0.1,0.1-0.2,0.2-0.3c0.5-1.4,0.6-2.9,0.5-4.4c0.4,0.5,0.7,1.1,1,1.7c1.2,2.2,2.4,4.5,4.5,5.9
		c1,0.7,2.2-0.2,2.3-1.3l0.5-7.3c1.3,1.6,2.5,3.4,3.5,5.2c0.1,0.2,0.2,0.3,0.3,0.4l0.2,0.2h0.1l0.2,0.1l0.2,0.1h0.8l0.2-0.1l0.2-0.1
		h0.1L142,64l0.2-0.2c0,0,0.1-0.1,0.1-0.1c0.5-0.9,1-1.7,1.6-2.5c0.4-0.6,0.8-1.1,1.2-1.7l0.2-0.2l0.1-0.1l0.3-0.4l0.8-0.9
		c1-1.2,2.1-2.3,3.2-3.4l0.8-0.7l0.3-0.2l0.4-0.3c0.2-0.2,0.5-0.3,0.7-0.5c-0.6,1.1-1,2.4-1.2,3.7c-0.4,2.7-0.3,5.7,0.8,8.2
		c0.5,1.1,1.1,2.3,2.3,2.8c1.1,0.5,2.3-0.1,2.3-1.3c-0.1-1.9,0-3.4,0.7-5.2l0.2-0.4l0.3-0.5c0.1-0.3,0.3-0.5,0.4-0.8h0l0.2-0.2
		l0.5-0.6c1-1,2.1-2,3.3-2.9l0.7-0.5l1.1-0.8l0.7-0.5l-1.1,2.4c-0.6,1.4-1.1,2.8-1.6,4.3c-0.3,1.1-0.5,2.5-0.2,3.6
		c0.2,0.8,1.1,1.3,1.9,1.1c0.1,0,0.2-0.1,0.3-0.2c2.5-1.4,3.5-4.5,4.8-6.9c0.2-0.3,0.3-0.6,0.5-0.9L169,57l0.1-0.2l0.1-0.2l0.2-0.2
		l0.3-0.3l0.1-0.1h0c0.2-0.1,0.3-0.2,0.4-0.2h0.1l0.2-0.1c0.2,0,0.3-0.1,0.4-0.1h1.2l0.6,0.1l1.3,0.4c1,0.4,2,0.8,2.9,1.3
		c-1.6,1.8-2.4,4.4-2.7,6.8c-0.1,0.8,0.4,2.1,1.5,1.9c3.5-0.4,7-1.3,10.4-1.6c1.6-0.2,3.2-0.1,4.7,0.2l-1.7,0.4
		c-1.4,0.3-2.8,0.8-4.2,1.3c-1,0.5-2.1,1.1-2.6,2.2c-0.5,1.1-0.5,1.6-0.1,2.3c0.3,0.4,0.6,0.7,1.1,0.9c1,0.5,2.1,1,3.2,1.5
		c1.4,0.6,2.8,1.2,4.1,1.7l1.5,0.6l0.3,0.2l0.2,0.1c2,0.9,3.8,1.5,5.7,2.6l0.7,0.4l-1-0.1c-1-0.1-2-0.1-3.1-0.1
		c-0.7,0-1.4,0.1-2.1,0.3c-0.8,0.3-1.5,1.4-0.9,2.2c1.7,2.4,3.8,4.5,6,6.4c0.2,0.1,0.3,0.3,0.5,0.4c0,0,0,0,0,0c0,0,0,0,0,0l0,0
		c0.8,0.7,1.7,1.5,2.5,2.2l1.4,1.4l0.5,0.7l0.5,0.7c0.7,1.1,1.3,2.3,1.6,3.6c0.4,1.5,0.6,3.1,0.8,4.6c0.4,2.8,0.7,5.6,1.6,8.3
		c0.5,1.5,1.3,3,2.3,4.3h0c-0.9-0.1-1.8-0.1-2.7-0.1s-1.6,0.1-2.3,0.4c-0.7,0.4-0.9,1.7-0.3,2.4c5.8,6.5,11.9,12.7,17.9,19
		c0.5,0.5,0.9,1,1.4,1.5c-3-0.5-6-1.5-8.2-3.4c-0.6-0.6-1.6-0.5-2.2,0.1c-0.3,0.4-0.5,0.9-0.4,1.4c0,0.1,0,0.2,0.1,0.2s0,0.4,0,0.6
		c0,0.2,0.1,0.9,0.1,1.4c0,1.1-0.1,2.3-0.1,3.4c-0.2,2.5-0.5,4.9-0.8,7.4c0,0.3-0.1,0.6-0.1,0.9c0,0.1,0,0.2,0,0.4v0.1
		c0,0,0,0.1,0,0.1c-0.1,0.5-0.1,1-0.2,1.5c-0.1,0.5-0.2,1.5-0.3,2.2c-0.1,0.4-0.2,0.8-0.2,1.3c0,0.8,0.4,1.7,0.7,2.5
		c0.5,1.3,0.9,2.7,1.3,4c0.1,0.3,0.2,0.5,0.2,0.8l-0.4-0.1c-1.6-0.4-3.2-0.5-4.8-0.2c-4.5,0.8-1.3,6.1-0.6,8.6v0.1c0,0,0,0.3,0,0.3
		v0.3c0,0.1,0,0.2,0,0.2c0,0,0,0.1,0,0.1h0c0,0.1-0.1,0.1-0.2,0.2c0.2-0.2-0.1,0.1-0.2,0.2l-0.5,0.3l-0.2,0.1l-0.3,0.1l-0.7,0.3
		c-0.2,0.1-0.4,0.1-0.5,0.2c-0.6,0.4-0.8,1.4-0.4,2c0.1,0.1,0.2,0.2,0.3,0.3c0.3,0.3,0.6,0.4,1,0.4h0.8l0.5,0.1l0.2,0.1h0.1l0.6,0.4
		l0.2,0.2l0.3,0.3l0.2,0.2l0.2,0.4l0.2,0.4l0.1,0.3c0.2,0.6,0.4,1.3,0.5,2c0,0.1,0,0.3,0,0.4s0,0.4,0.1,0.6c0,0.2,0,0.8,0.1,1.2
		c0,0.4,0,1.7-0.1,2.5c-0.1,1.6-0.3,3.1-0.5,4.7c-0.2,1.3-0.5,2.6-0.7,4c-0.2,0.9-0.4,1.9-0.2,2.8c0.4,1.6,2.2,1.5,3.1,0.5
		c0.9-1,1.7-2.4,2.4-3.6c1.1-1.9,2.2-3.8,3.4-5.7c0.2-0.4,0.5-0.8,0.7-1.1c0.8,3.8,1.5,7.7,2.6,11.5c1.3,4.7,3.1,9.8,6.7,13.2
		c0.9,0.9,1.9,1.6,3.1,2.1c1.1,0.5,2.9,1.1,4,0.2c0.5-0.5,0.6-1.2,0.2-1.8c-0.2-0.3-0.5-0.5-0.8-0.7l-0.2-0.1c0,0,0,0,0-0.1
		c-0.2-0.1-0.3-0.3-0.4-0.4l-0.2-0.3l-0.1-0.1c-0.7-1-1.3-2.1-1.8-3.2c-0.2-0.5-0.5-1.2-0.8-1.9c-0.2-0.7-0.5-1.6-0.8-2.4
		c-0.5-1.7-1-3.5-1.4-5.3c-1.8-7.8-2.8-15.9-2.3-23.9c0.1-1.8,0.3-3.7,0.7-5.4c0.2-0.8,0.4-1.7,0.7-2.5c0-0.1,0.1-0.1,0.1-0.2
		c2.1,2.4,2.8,6.4,3.3,9.3c0.7,4.6,0.7,9.3,0.1,13.9c-0.2,1.6,1.8,2.7,2.8,1.1c4.3-6.5,5.6-14.1,5.2-21.8c-0.2-3.8-0.7-7.5-1.2-11.2
		c-0.2-1.8-0.5-3.5-0.7-5.3c0-0.2,0-0.4,0-0.6c0-0.1,0-0.2,0.1-0.3c0.1-0.5,0.3-0.9,0.5-1.4c-0.1,0.6,0,1.2,0.2,1.8
		c0.4,1.1,1.7,1.5,2.5,0.7c2.4-2.3,5.3-4.2,7.1-7.1c1.8-2.9,2.3-5.5,2.7-8.4c1-6.6,0.2-13.4-1.2-19.8c-0.3-1.2-0.6-2.4-0.9-3.5
		c2.1,2.3,4.1,4.7,5.8,7.4c2.9,4.5,4.4,9.7,5.2,15c0.2,1.5,2.6,1.4,2.9,0c1.1-5.1,1.2-10.3,0.5-15.4c-0.7-4.9-2.2-9.6-3.7-14.4
		c-0.8-2.6-1.5-5.3-2.4-7.8c-0.8-2.4-1.8-4.7-2.8-6.9c-2.2-4.8-4.9-9.3-7.7-13.9c-1.5-2.4-2.9-4.8-4.4-7.3c0.7,0.7,1.4,1.5,2.1,2.2
		c2.4,2.7,5.1,5.8,6.4,9.3c0.4,1.1,2.1,1.5,2.8,0.4c1.8-3.2,2.4-6.8,2.8-10.4c0.2-1.8,0.2-3.6,0.3-5.5c0.1-1.8,0.1-3.3-0.2-5
		c-0.5-3.1-2.3-5.7-3.9-8.3c-1.8-3.2-3.1-6.6-4.8-9.8l-0.5-0.9c8.1,6.6,13.5,16.4,16.6,26.3c1.3,4.1,2.2,8.3,2.8,12.6
		c0.2,1.5,2.7,1.5,2.9,0C269.3,74,268.4,68.7,267.1,63.5z M96.1,72.5c0,0.1,0,0.1-0.1,0.1L96.1,72.5z M91.1,69.3
		c-0.5,0.4-0.6,1.1-0.3,1.6c0.2,0.5,0.8,0.9,1.4,0.9c1,0.1,1.9,0.3,2.8,0.7c0.2,0.1,0.4,0.2,0.6,0.3L95.4,73l-1.1,0.5
		c-0.8,0.5-1.5,1-2.1,1.5c-2.6,2.2-4.4,5.2-5.2,8.5c-0.2,0.8,0.3,1.6,1.1,1.9l1.2,0.5c-6,10.4-4.4,23.6-10.7,33.8
		c-1.5,2.6-3.7,4.7-6.3,6.3c-1.3,0.7-0.8,2.9,0.8,2.8h0.4c-4,4.4-8,8.9-11.9,13.3c-0.6,0.6-0.5,1.6,0.1,2.2c0.3,0.2,0.6,0.4,1,0.4
		c3.4,0.1,6.6-0.8,9.5-2.5c-0.4,2.9-0.5,6,0.5,8.7c0.4,1,1,1.9,1.4,2.9c0.5,1,0.2,2,0.2,2.9l0.1,7.2c0,1.5,2.1,2.1,2.8,0.8h0.1
		c0.1,0,0.3,0.1,0.3,0.1l0.2,0.1L78,165c0,0,0,0,0,0c0,0,0,0,0.1,0.1c0.1,0.1,0,0.1,0.1,0.1c0,0.1,0,0.1,0,0.2l0.1,0.4
		c0,0.4,0,0.9-0.1,1.3c-0.1,0.9-0.3,1.7-0.4,2.6c-0.1,1,0,2,0.2,3c-1.7,0.5-3,1.8-3.6,3.4c-0.9,2.3-0.6,5-0.2,7.4
		c0.5,2.5,1,5,1.8,7.5l-0.2-0.2c-1.2-1.3-2.4-2.6-3.6-3.9c-0.8-0.8-2.3-0.4-2.5,0.7c-1.2,4.8-2.5,9.7-5,14c-1.1,2-2.6,3.8-4.3,5.4
		c-0.5,0.4-0.9,0.7-1.4,1.1c1.1-2.5,2-5.2,2.7-7.9c1.9-6.7,3.1-13.7,3.5-20.7c0.2-3.5,0.2-7-0.5-10.5c-0.3-1.4-2.1-1.3-2.8-0.4
		c-2.5,3.5-4.4,7.5-5.6,11.6c-1.4-9.3-0.2-19-1.1-28.4c-0.3-2.6-0.5-6.2-3.1-7.5c-0.7-0.3-1.7-0.3-2.1,0.5l-0.5,1.2
		c-1-1.9-1.4-4.1-1.7-6.1c-0.5-3.4-0.6-7-0.5-10.4c0.2-7,1.4-14,3.8-20.7c0.5-1.5-1.5-2.5-2.5-1.5c-7.5,8-13,17.6-16.1,28.1
		c-0.1,0.4-0.2,0.7-0.3,1.1c-1.5-17.7,4-35.5,11.1-51.6c2.4-5.4,4.9-10.6,7.5-15.9c0.6-1.2-0.8-3.1-2.1-2.1c-4.1,3.1-7.3,7-9.6,11.6
		c-0.4-2-0.5-4-0.3-5.9c0.2-3.5,1-6.9,1.6-10.3c0.7-3.4,1.6-7.6,2.5-11.3c0.7-3,1.5-6,2.6-8.9c1.1-2.9,2.6-5.2,5-6.8
		c0.2-0.2,0.4-0.3,0.6-0.4c1.6-1,0.2-3.6-1.5-2.6l-0.8,0.5c-12.1,8-21.2,19.8-25.8,33.6c-0.1,0.2-0.1,0.5-0.2,0.7
		c0.3-6.8,1.7-13.5,3.5-20.1c2.1-7.7,4.4-16.2,10.2-21.9c3-3,7-4.7,11.2-4.9c4.8-0.2,9.5,1.1,13.9,2.8c8.6,3.2,16.5,8.1,23.8,13.8
		c7.8,6.1,14.9,12.9,22,19.9c-0.5,0.7-0.4,1.6,0.3,2.1c0,0,0.1,0.1,0.2,0.1c1.5,0.8,2.7,2.1,3.3,3.7C103.7,62.3,96.7,64.7,91.1,69.3
		z M208.8,164.3C208.8,164.4,208.8,164.4,208.8,164.3L208.8,164.3z M209.5,194.1C209.4,194.2,209.4,194.1,209.5,194.1L209.5,194.1z
		 M233.9,210C234,210.1,234,210.1,233.9,210L233.9,210z M185,70c0,0,0.1-0.1,0.1-0.1h0C185.1,70,185.1,70,185,70z M211.6,195
		C211.7,195.2,211.6,195.1,211.6,195L211.6,195z M251.2,40.9c-0.3-0.3-0.6-0.6-0.9-0.9c0,0-0.1-0.1-0.1-0.1c-0.4-0.3-0.7-0.6-1.1-1
		c-0.4-0.3-0.7-0.6-1.1-0.9c-1.3-1.1-2.7-2.1-4.1-2.9c-1.4-0.9-2.9-1.7-4.5-2.4c-0.3-0.1-0.5-0.2-0.8-0.2c0,0,0,0,0,0
		c-0.1,0-0.2,0-0.2,0c0,0-0.1,0-0.1,0c-0.1,0-0.2,0.1-0.3,0.1c-0.1,0.1-0.2,0.1-0.3,0.2l0,0c-0.7,0.6-0.9,1.8,0.2,2.4
		c5.6,3.3,7.2,10.6,10.1,15.9c0,0,0,0,0,0c1.3,2.5,3.2,4.9,4.1,7.7c0.1,0.4,0.2,0.7,0.3,1.1c0.5,2.5,0.2,5.5,0,8.2v0
		c-0.2,2.5-0.5,5.2-1.2,7.7c-0.6-1-1.2-1.9-1.9-2.8c-0.2-0.3-0.5-0.6-0.7-0.9c-0.9-1.2-1.9-2.3-2.9-3.4c-2.8-3.1-5.9-6-9.2-8.6
		c-1.1-0.8-2.2,0.2-2.2,1.3c0,0.2,0,0.5,0.2,0.7l0.1,0.1l0.1,0.2c-3.1-3.6-7-6.4-11.4-8.3c-4.7-2.1-9.9-3.1-15.1-2.9
		c-2.9,0.2-5.8,0.7-8.5,1.6c-0.4,0.2-0.8,0.5-1,0.8c-0.2,0.3-0.2,0.7-0.1,1c0.3,0.8,1.1,1.3,1.8,1.1c1.1-0.4,2.3-0.7,3.5-1l1.8-0.3
		h0.6l1-0.1c1.2-0.1,2.4-0.1,3.6-0.1l1.9,0.1l0.8,0.1h0.2l0.2,0l0.3,0.1c2.4,0.4,4.7,1,7,1.9l0.4,0.2l0.2,0.1l0.9,0.4
		c0.5,0.2,1.1,0.5,1.6,0.8l0.2,0.2c-0.1,0-0.2-0.1-0.3-0.1c-2.4-0.7-4.8-1.2-7.3-1.4c-1.8-0.2-3.5-0.2-5.3-0.1
		c-0.7,0-1.3,0.5-1.5,1.1c0,0.1,0,0.2,0,0.3c0,0.6,0.2,1.1,0.7,1.4c0.6,0.3,1.5,0.8,2.3,1.3l1,0.7l0.5,0.4l0.2,0.1l0.2,0.1
		c1.3,1.1,2.6,2.2,3.7,3.5c0.3,0.3,0.8,0.9,1,1.2l0.4,0.5c0.5,0.7,1,1.4,1.4,2.2c0.5,0.8,0.8,1.5,1.2,2.3c0.4,0.8,0.3,0.7,0.5,1.1
		c0,0.1,0.1,0.2,0.1,0.3l0.3,0.7c0,0.1,0,0.1,0.1,0.2l0,0c-0.6-0.5-1.3-0.8-2.1-1.2c-0.7-0.3-1.7-0.2-2.1,0.5
		c-0.3,0.5-0.3,1-0.1,1.5c0.1,0.3,0.3,0.5,0.6,0.6c0.6,0.2,1.1,0.5,1.7,0.9l0.7,0.5l0.1,0.1l0.4,0.3c0.5,0.4,0.9,0.8,1.3,1.3
		l0.3,0.4c0.1,0,0.1,0.1,0.1,0.2l0.5,0.8c0.4,0.6,1.2,0.9,1.9,0.6c0.6-0.3,0.9-0.8,0.9-1.5c0-0.1,0-0.2,0-0.3
		c-1.1-7.3-4.8-13.9-10.4-18.5l-0.5-0.5l-0.1-0.1h0.4l0.5,0.1h0.4c0.8,0.1,1.5,0.2,2.2,0.4c1.5,0.3,3,0.7,4.5,1.2l2.1,0.8l0.4,0.2
		l0.4,0.2l1.1,0.5c1.5,0.8,3.1,1.6,4.5,2.6c0.7,0.4,1.6,0.2,2-0.5c0.1-0.2,0.2-0.4,0.2-0.6c4.4,8.3,9.7,15.9,13.9,24.3
		c1.1,2.2,2.1,4.5,3.1,6.8c0.9,2.4,1.6,4.8,2.3,7.3c1.4,4.7,2.9,9.3,3.9,14c0.5,2.6,0.8,5.2,0.8,7.9c-0.5-1.5-1.1-2.9-1.8-4.3
		c-1.8-3.6-4.3-6.7-7-9.7c-1.8-2.1-3.8-4.1-5.7-6.1c-0.8-0.9-2.7-0.2-2.6,1c0,0.2,0,0.3,0.1,0.5c2.3,5.6,3.8,11.5,4.4,17.5
		c0.2,1.8,0.3,3.6,0.3,5.5c0,4-0.5,8.1-2.1,11.6c-0.9,2-2.5,3.5-4.1,4.9c0,0,0,0,0,0l0.1-0.5c0.2-1,0.6-2.3,0.6-3.4
		c0-0.4-0.1-0.8-0.2-1.2c-0.2-0.8-1.1-1.3-1.9-1.1c-0.1,0-0.2,0.1-0.3,0.2c-0.8,0.4-1.5,1.4-2,2.1c-0.7,1-1.4,2.1-1.9,3.3
		c-0.5,1.1-1,2.2-1.4,3.4c-0.2,0.5-0.2,1-0.2,1.5c0,0.8,0.2,1.6,0.2,2.4c0.7,5.6,1.7,11.3,1.8,16.9c0,1.9-0.1,3.7-0.3,5.6
		c-0.2,1.9-0.7,3.8-1.3,5.6c0-2.6-0.2-5.3-0.6-7.9c-0.7-4.3-2-9.5-5.9-12c-0.7-0.4-1.6-0.2-2.1,0.5c-1.5,2.9-2.1,6.3-2.4,9.5
		c-0.2,2-0.2,4.1-0.2,6.1c0,2,0.1,4.1,0.3,6c0.6,7.8,1.9,16,4.9,23.3l0.3,0.8c0,0-0.1-0.1-0.1-0.1c-1-1.3-1.8-2.8-2.5-4.3
		c-2-4.4-3-9.2-4-13.9c-0.5-2.4-1-4.8-1.6-7.2c-0.1-0.5-0.5-0.9-1-1c-0.1,0-0.1,0-0.2,0h0c-0.5-0.1-1,0-1.3,0.4
		c-0.7,0.8-1.6,2.3-2.3,3.4c-1,1.7-2,3.4-2.9,5c-0.1,0.1-0.2,0.3-0.2,0.4c0,0,0,0,0,0c0.1-0.5,0.2-0.9,0.2-1.4
		c0.3-2,0.5-4.1,0.5-6.2c0-1.3-0.1-2.5-0.4-3.8c-0.4-2.1-1.4-3.8-2.9-4.9c0,0,0,0-0.1,0c0.4-0.4,0.7-0.8,0.8-1.3
		c0.2-0.4,0.2-0.8,0.2-1.2c0-1.3-0.5-2.5-0.9-3.7c-0.4-0.8-0.6-1.6-0.8-2.4c0,0,0-0.1,0-0.2c0,0,0-0.1,0-0.1h2.4
		c0.8,0.1,1.5,0.3,2.2,0.5l0.2,0.1h0l0.3,0.2l0.1,0.1c0.8,1.2,2.8,0.6,2.8-0.8c0,0,0,0,0,0c0-2.4-1-5-1.7-7.3
		c-0.3-0.9-0.7-1.8-0.9-2.8v0l0,0c0-0.1,0-0.1,0-0.2c0.8-4.2,1.2-8.5,1.6-12.7c0.1-1.2,0.2-2.4,0.2-3.7c3.4,1.9,7.5,2.7,11.2,2.6
		c0.8,0,1.5-0.7,1.5-1.5c0,0,0-0.1,0-0.1c0-0.4-0.2-0.7-0.4-1c-5.9-6.4-12-12.6-17.9-19l-1.7-1.8l-0.1-0.1l1.1,0.1
		c1.4,0.1,2.8,0.3,4.3,0.4c1,0,1.5-0.9,1.4-1.8c0-0.1-0.1-0.2-0.2-0.4c-0.1-0.3-0.3-0.5-0.6-0.7c-1.1-0.6-2.2-1.5-3-2.5
		c0,0-0.2-0.2-0.2-0.2l-0.3-0.4c-0.2-0.3-0.3-0.5-0.5-0.8c-0.1-0.2-0.2-0.5-0.4-0.7s-0.2-0.5-0.3-0.8c-0.9-2.6-1.2-5.2-1.6-8.1
		c-0.2-1.7-0.5-3.5-1-5.1c-0.3-1.2-0.8-2.4-1.4-3.5c-1.5-2.6-3.3-4.2-5.3-6c-0.1-0.1-0.2-0.2-0.3-0.3c-1.8-1.5-3.1-2.7-4.4-4.1
		c0,0-0.1-0.1-0.1-0.1l1.5,0.1c0.9,0,1.8,0.2,2.6,0.4l0.7,0.2l0.4,0.2l0.4,0.2l0.2,0.1h0.1c0.4,0.4,0.9,0.5,1.4,0.4c0,0,0,0,0,0
		c0,0,0.1,0,0.1,0c0.2-0.1,0.4-0.2,0.5-0.4c0.1-0.2,0.2-0.3,0.3-0.5c0,0,0-0.1,0-0.1v0c0-0.1,0-0.2,0.1-0.3c0-0.1,0-0.3,0-0.4
		c-0.8-3.9-4.7-5.7-8-7.1l-3.4-1.5l-3-1.2l-1.9-0.8l-0.2-0.1l-0.5-0.2l-0.9-0.4l-1-0.5l-0.1,0l0.3-0.2l0.7-0.3h0.2l0.5-0.2
		c0.6-0.2,1.2-0.4,1.9-0.5c1.5-0.4,2.9-0.7,4.4-0.9l0.4-0.1h0.2l0.8-0.1l1.1-0.1c0.6,0,1.1-0.4,1.4-0.9c0.1-0.2,0.1-0.4,0.1-0.6
		c0-0.4-0.1-0.8-0.5-1.1c-1.5-1.3-3.2-2.1-5.1-2.6c-1.7-0.4-3.5-0.6-5.2-0.4c-3.1,0.2-6,0.9-9.1,1.4h0c0.2-0.5,0.3-1.1,0.5-1.6
		c0.2-0.3,0.3-0.6,0.5-0.9l0.3-0.4c0,0,0.2-0.3,0.2-0.3c0.3-0.5,0.8-0.8,1.3-1.1c0.4-0.2,0.6-0.5,0.7-0.9c7.1-6.9,14.2-13.9,22-20
		s16.6-11.7,26.2-14.8c5.4-1.8,11.1-1.5,16.7-0.9c3.7,0.4,7.3,1.1,10.4,3.3c2.6,1.9,4.4,4.6,5.2,7.7c0.4,1.6,0.6,3.2,0.6,4.9
		c0,0.2,0,0.4,0,0.6c-0.1,2.3-0.6,4.5-0.8,6.7c-0.1,0.8-0.1,1.6-0.1,2.4c0,3.3,0.5,6.5,1.3,9.8C259.7,51.3,256,45.7,251.2,40.9
		C251.3,41,251.2,41,251.2,40.9z M214.2,113.8c0.2,0.2,0.5,0.3,0.8,0.5c0.1,0,0.1,0.1,0.2,0.1c0,0-0.1,0-0.1-0.1
		C214.7,114.2,214.5,114,214.2,113.8z"/>
</g>
</svg>
