<?xml version="1.0" encoding="utf-8"?>
<!-- Generator: Adobe Illustrator 27.9.0, SVG Export Plug-In . SVG Version: 6.00 Build 0)  -->
<svg version="1.1" id="Layer_1" xmlns="http://www.w3.org/2000/svg" xmlns:xlink="http://www.w3.org/1999/xlink" x="0px" y="0px"
	 viewBox="0 0 313.5 193.6" style="enable-background:new 0 0 313.5 193.6;" xml:space="preserve">
<g>
	<path style="stroke:#000000;stroke-width:3;stroke-linecap:round;stroke-linejoin:round;stroke-miterlimit:10;" d="M75.2,89.8
		c-1.4,1-2.7,2.1-3.8,3.4c0.6-2.1,1.4-4.2,2.1-6.2c1.3-3.7,2-7.6,2.4-11.5C77,63.2,73.6,51,66.4,41.1c-0.6-0.8-1.7-1.3-2.6-0.7
		c-1,0.6-1.3,1.8-0.7,2.6c1.1,1.5,2.2,3.1,3.1,4.8l1.3,2.5l0.6,1.3c0.1,0.2,0.2,0.4,0.3,0.6c0,0.1,0.1,0.2,0.2,0.3c0,0,0,0,0,0.1
		c1.4,3.5,2.4,7.1,3.1,10.8c0.1,0.4,0.2,0.8,0.2,1.2s0,0.1,0,0.1c0,0.1,0,0.3,0,0.4c0,0.3,0.1,0.6,0.1,0.8c0.1,0.9,0.2,1.9,0.2,2.8
		c0.1,1.9,0.1,3.8-0.1,5.7c0,0.9-0.2,1.8-0.3,2.7c0,0,0,0.2,0,0.3v0.1l-0.1,0.6l-0.2,1.5c-0.4,1.8-0.8,3.7-1.4,5.5
		c-1.5,4.9-3.9,9.6-2.7,14.8c0.3,1.6,2.7,1.8,3.5,0.5c0.4-0.8,0.9-1.5,1.4-2.3l0.3-0.5l0.2-0.3l0.8-1c0.6-0.6,1.2-1.2,1.8-1.8l1-0.9
		l0.2-0.2l0.2-0.1c0,0,0.1,0,0.1-0.1l0.3-0.2c0.8-0.6,1.3-1.7,0.7-2.6C77.3,89.5,76.1,89.1,75.2,89.8z"/>
	<path style="stroke:#000000;stroke-width:3;stroke-linecap:round;stroke-linejoin:round;stroke-miterlimit:10;" d="M71.1,114.2
		c-0.9-0.5-2.1-0.2-2.6,0.7c-3.8,5.3-6.7,11.1-8.7,17.3c-0.6,1.8-1,3.5-1.5,5.3c-0.2,1,0.3,2.1,1.3,2.3c1,0.2,2.1-0.3,2.4-1.3
		c0.7-3.1,1.6-6.1,2.8-9c0.1-0.3,0.3-0.6,0.4-1l0.1-0.2c0.1-0.2,0.2-0.4,0.3-0.6s0.6-1.5,1-2.1c0.7-1.4,1.5-2.8,2.3-4.2
		c0.8-1.4,1.9-3,2.9-4.5C72.4,116,72,114.7,71.1,114.2z M65.3,128.4C65.4,128.2,65.3,128.4,65.3,128.4L65.3,128.4z"/>
	<path style="stroke:#000000;stroke-width:3;stroke-linecap:round;stroke-linejoin:round;stroke-miterlimit:10;" d="M104.2,86.2
		c-2.9,1.4-5.6,3.4-7.6,6c-0.7,0.7-0.8,1.9-0.1,2.6c0,0,0,0,0.1,0.1c0.7,0.6,2,0.8,2.7,0c1-1.1,2.1-2.2,3.2-3.1l0.2-0.2l0.4-0.3
		l1-0.6c0.6-0.4,1.3-0.8,2.1-1.1c0.9-0.5,1.2-1.7,0.7-2.6C106.3,86.1,105.1,85.7,104.2,86.2z"/>
	<path style="stroke:#000000;stroke-width:3;stroke-linecap:round;stroke-linejoin:round;stroke-miterlimit:10;" d="M297.9,104.9
		c-0.7-5.1-1.7-10.2-3-15.2c-1-3.8-2.6-7.4-4-11c-1-2.3-1.9-4.6-2.9-6.9c-0.9-2.3-1.9-4.8-2.9-7.2c-4-8.7-10.1-16.4-15.9-24
		c-2.9-3.8-5.7-7.6-8.4-11.5c-0.9-1.4-1.7-2.8-2.7-4.1c-1-1.3-1.9-2.4-2.9-3.6c-2.2-2.4-4.5-4.9-7.2-6.7c-1-0.7-2.2-1.2-3.5-0.8
		c-1.3,0.4-2.9,1.6-4,2.7c-1.4,1.3-2.7,2.6-3.9,4.1c-1.4,1.7-2.4,3.6-3.4,5.5c-2.3,4.4-4.5,8.8-6.6,13.3c-3.7,8.2-6.8,16.7-10,25.1
		c-0.2,0.5-0.4,1.1-0.6,1.7c-0.3,0.7-0.4,1.4-0.3,2.1c0,0.9,0,1.8,0,2.6c-2.7,0.6-5.2,2.3-6.7,4.7c-2.9-1.6-6-3-9.1-4.4
		c-4.8-2.1-9.8-4.1-15-4.6c-2.4-0.2-4.8,0-7.1,0.5c-2.3,0.6-4.5,1.3-6.7,2.3l-1.9,0.8L168,71h-0.1l-0.6,0.3
		c-1.3,0.5-2.6,1.1-3.9,1.6c-1.3,0.5-2.4,0.9-3.6,1.2l-1.8,0.4l-0.9,0.2h-0.6l-1.3-0.2c-0.2,0-1-0.2-0.3,0l-0.8-0.1l-3.2-0.5
		c-2.3-0.4-4.6-0.8-6.9-1.3c-4.4-0.8-8.7-1.8-13.1-2.5c-2.7-0.5-5.4-0.6-8.1-0.5c-2.9,0.1-5.7,0.6-8.5,1.3c-4.4,1.1-8.6,2.8-12.6,5
		c-1.5-2.4-3.9-4.1-6.6-4.7v-1.6c0-0.6,0.1-1.2,0-1.8c-0.1-0.6-0.2-1.1-0.5-1.6c-0.7-1.8-1.4-3.5-2.2-5.2c-1.6-3.2-3.4-6.3-5.3-9.3
		c-4.2-6.3-9.2-12-14.7-17c-3-2.7-6.1-5.2-9.3-7.5l-4.7-3.4c-1.6-1.1-3.6-1.8-5.5-1.1c-1.9,0.7-3.1,2.1-4.1,3.7
		c-1,1.8-1.9,3.6-2.8,5.4c-2,4-3.9,8.2-5.6,12.3C36.6,52.6,33.3,61,30,69.6s-6.5,17-8.5,25.9c-1.9,8.9-2.9,17.9-3.7,27
		c-0.3,4.1-1.2,8.6,0,12.6c0.1,0.3,0.2,0.6,0.3,0.9c0,0.5,0.2,0.9,0.5,1.2c0,0,0.1,0,0.1,0.1c1.6,2.6,4.2,4.3,6.7,6.1
		c2.7,1.7,4.8,4.1,6.2,6.9c0.6,1.4,1.2,2.8,1.6,4.3c0.5,1.6,0.9,3.2,1.3,4.9c0.8,3.3,1.5,6.7,2.5,10c1,3.3,2.4,6.8,5.2,9.1
		c1.4,1.2,3.2,1.9,5.1,2c2.4,0,2.4-3.8,0-3.8c-0.6,0-1.1-0.2-1.7-0.4c-0.6-0.3-1.1-0.8-1.6-1.3c-0.5-0.5-1-1.1-1.3-1.8
		c-0.4-0.6-0.8-1.5-1.1-2c-1.2-3.1-2-6.3-2.7-9.5c-1.4-6.3-2.7-13-7.1-18c-1.1-1.3-2.5-2.4-3.9-3.4l-1.6-1c0.8-0.2,1.6-0.5,2.3-1
		c1.2-0.7,2.3-1.7,3.1-2.8l0.6-0.8l0,0c0,0,0,0,0,0l0.1-0.2l0.5-0.6c0.5-0.7,1.1-1.4,1.7-2c4.5-5.3,9.5-10,14.5-14.7
		c2.8-2.7,5.7-5.3,8.4-8.1c0.7-0.8,0.7-1.9,0-2.7c-0.8-0.7-1.9-0.7-2.7,0c-4.7,4.8-9.6,9.2-14.4,13.9c-2.4,2.3-4.7,4.7-6.9,7.1
		c-1.1,1.3-2.2,2.5-3.2,3.9l-0.7,0.9l-0.5,0.6l-0.1,0.2c-0.3,0.5-0.7,0.9-1.1,1.3l-0.4,0.3l-0.1,0.1l-0.1,0.1h0
		c-0.2,0.1-0.3,0.2-0.4,0.3l-0.5,0.3l-0.2,0.1l-0.2,0.1l-0.4,0.2l-0.6,0.2l-0.3,0.1h0c-0.3,0.1-0.6,0.1-1,0c0,0,0,0,0,0l-0.4-0.1
		l-0.5-0.2h-0.2l-0.6-0.3l-0.2-0.1l-0.1-0.1c-0.2-0.3-0.3-0.6-0.4-1c-0.5-1.7-0.4-3.6-0.3-5.4c0.6-8.5,1.5-17.1,2.9-25.5
		c1.4-8.4,3.9-17,7-25.2s6.2-16.3,9.5-24.4c3.3-8.1,6.7-16,10.7-23.6c0.3-0.6,0.7-1.3,1.1-1.9c0.3-0.6,0.8-1.1,1.4-1.5
		c0.3-0.2,0.8-0.3,1.1-0.3c0.8,0.2,1.5,0.8,2.2,1.3c3,2.2,6,4.2,8.9,6.6C76.5,42.9,85.7,54.1,90.8,67c0.2,0.3,0.3,0.7,0.4,1.1
		c0,0.5,0,1,0,1.5c0,1.1,0,2.2,0,3.3c0,0.5,0.2,1,0.5,1.3c-0.8-0.3-2-0.1-2.4,0.8c-2.3,4.7-4.5,9.4-6.8,14c-0.4,0.8-0.3,1.7,0.3,2.3
		c0.6,0.5,1.6,0.8,2.3,0.3c4.5-3.4,8.9-6.7,13.7-9.7c2.3-1.5,4.7-2.8,7.2-4l1.9-0.9l0.3-0.1l0.2-0.1l1.1-0.5c1.3-0.5,2.6-1,3.9-1.3
		c1.3-0.4,2.6-0.7,3.9-1l1.9-0.3h0.7l1-0.1c1.4-0.2,2.7-0.2,4.1-0.2l1.9,0.1l1,0.1l0.5,0.1h0.3c4.3,0.6,8.5,1.6,12.7,2.4
		c4.2,0.8,9.5,1.9,14.3,2.4c0.2,0,0.4,0.1,0.6,0c0.2,0,0.4,0,0.6,0c2.1-0.3,4.2-0.8,6.2-1.6l3.4-1.3l1.6-0.7l0.8-0.3l0.5-0.2
		l0.4-0.2c2.2-0.9,4.4-1.8,6.6-2.6c1-0.3,2.1-0.6,3.2-0.8l0.7-0.2h0.5l1.8-0.1l1.6,0.1l0.9,0.1h0.1l0.5,0.1c1.3,0.2,2.5,0.4,3.7,0.8
		c1.2,0.3,2.4,0.7,3.6,1.1l1.8,0.7l0.8,0.3l0.3,0.2l0.4,0.2c2.3,1,4.5,2.1,6.8,3.1c2.2,1.1,4.7,2.3,7,3.7
		c5.3,3.1,10.2,6.8,15.1,10.5c0.8,0.4,1.7,0.3,2.3-0.3c0.6-0.6,0.7-1.6,0.3-2.3c-0.3-0.5-0.5-1-0.7-1.5c0-0.1-0.1-0.3-0.2-0.4
		c-0.2-0.3-0.3-0.6-0.4-0.9c-0.5-1.2-0.9-2.4-1.4-3.7c-0.9-2.6-1.6-5.1-2.3-7.8c-0.2-0.6-0.3-1.3-0.4-1.9c-0.1-0.6-0.1-0.6-0.2-0.9
		s0-0.3,0-0.4s0-0.1,0-0.2v-0.1c-0.2-0.9-0.8-1.8-1.9-1.8c-0.5,0-0.9,0.2-1.3,0.5c0-0.5,0-0.9,0-1.4c0-1.1,0.6-2.3,1-3.4l2.4-6.4
		c1.5-4,3-7.9,4.6-11.8s3.4-7.9,5.3-11.7c1.1-2.3,2.3-4.6,3.5-6.8c0.6-1.1,1.2-2.3,1.9-3.4c0.2-0.3,0.3-0.6,0.5-0.8l0.3-0.5l0.2-0.3
		c0,0,0.1-0.1,0.1-0.1c1.1-1.4,2.4-2.7,3.7-3.9l1-0.8l0.2-0.2l0.4-0.3l0.8-0.5l0.1-0.1c0.4,0.2,0.8,0.5,1.2,0.8l0.2,0.2l0.4,0.3
		l0.9,0.8l1.7,1.7c1.2,1.1,2.3,2.4,3.4,3.6c0.5,0.5,0.9,1.1,1.3,1.6l0.2,0.2l0.2,0.2l0.4,0.6c2.3,3.6,4.7,7.1,7.2,10.5
		c5.6,7.5,11.6,14.9,16.4,23c1.1,1.9,2.1,3.9,3.1,5.9c0.9,2.1,1.8,4.5,2.6,6.7c1.7,4,3.5,8,5,12.1c1.5,4.1,2.4,8,3.2,12.1
		c1,5,1.7,9.9,2.1,15c0.2,2.5,0.3,5,0.3,7.4c0,1.3,0,2.5-0.1,3.7l-0.1,1.6c0,0.3,0,0.5-0.1,0.8v0.3c0,0.1-0.1,0.2-0.1,0.2
		c-0.2,0.8-0.6,1.5-1.1,2.1c-0.5,0.8-1.1,1.5-1.8,2.1c-1,1-1.9,2.1-2.8,3.3l-0.2,0.2l-0.1,0.1l-0.2,0.1l-0.2,0.2l-0.6,0.3l-0.1,0
		l-0.3,0.1l-0.5,0.2h-1.3c-0.2,0-0.3-0.1-0.5-0.2l-0.5-0.2c0,0,0,0,0,0l-0.2-0.1l-0.6-0.3h-0.1l-0.4-0.3c-0.3-0.3-0.5-0.5-0.8-0.8
		c-0.4-0.5-0.9-1-1.4-1.4c-0.7-0.6-1.5-1.1-2.2-1.6l-0.2-0.1l-0.1-0.1l-0.5-0.4l-1-0.8l-1.9-1.8c-4.7-4.6-8.4-10-12.8-14.9
		c-2.2-2.5-4.6-4.8-7.5-6.5c-0.9-0.5-2.1-0.2-2.6,0.7c-0.5,0.9-0.2,2.1,0.7,2.6c0.6,0.3,1.2,0.7,1.7,1.1l0.2,0.1l0.4,0.3l0.8,0.7
		c1.1,1,2.2,2.1,3.2,3.2c2.2,2.4,4.2,5,6.3,7.6c2.1,2.7,4.4,5.3,6.8,7.7c1.4,1.3,2.8,2.6,4.3,3.7l0.9,0.7l0.6,0.4l0.2,0.1h0
		c0.5,0.5,1,1,1.4,1.5c0.8,0.9,1.8,1.6,2.9,2.2c-0.6,0.3-1.2,0.8-1.7,1.3c-0.6,0.6-1,1.4-1.1,2.2c-0.2,1.1,0,2.3-0.1,3.4
		c-0.1,2.2-0.4,4.4-0.9,6.5c-1,4.2-2.8,8.3-5.2,12c-1.2,1.9-2.5,3.7-3.9,5.4c-1.3,1.6-2.5,3.3-3.7,4.9c-0.2,0.3-0.4,0.5-0.6,0.8
		l-0.5,0.5l-0.3,0.3c-0.1,0.1-0.3,0.2-0.4,0.3c-0.1,0-0.5,0.3-0.2,0.2c-0.3,0.2-0.7,0.3-1.1,0.2c-2.4,0.1-2.4,3.9,0,3.8
		c4.6-0.1,6.5-4.6,9-7.5c3.1-3.6,5.8-7.5,7.9-11.8c2.1-4.4,3.3-9.1,3.7-13.9c0.1-1.2,0.1-2.4,0.1-3.6v-0.6c0,0,0-0.1,0-0.1
		c0,0,0,0,0-0.1s0.1-0.1,0.1-0.2h0l0.3-0.3c0,0,0,0,0-0.1l0.1-0.1l1-0.6l2.1-1c1.6-0.7,3.1-1.6,4.1-3.1c1-1.5,2.3-2.8,3.6-4.3
		c1.3-1.5,2.9-3.3,3.3-5.3c0.2-1.2,0.3-2.4,0.3-3.6c0.1-1.2,0.1-2.4,0.1-3.7C299.1,115.5,298.7,110.2,297.9,104.9z M89.2,83.8
		c1.1-2.3,2.3-4.6,3.4-6.9c0.4-0.7,0.3-1.6-0.2-2.3c0.2,0.1,0.5,0.2,0.7,0.2c2.1,0.1,4.1,1.2,5.3,3C95.2,79.6,92.2,81.7,89.2,83.8z
		 M220.5,79c0.5,1.7,1.1,3.6,1.8,5.4c-2.7-2-5.5-3.9-8.3-5.7c-0.5-0.3-1-0.6-1.6-1c1.2-1.8,3.1-2.9,5.3-3c0.6,0,1.3-0.4,1.6-0.9
		C219.6,75.6,220,77.3,220.5,79z"/>
	<path style="stroke:#000000;stroke-width:3;stroke-linecap:round;stroke-linejoin:round;stroke-miterlimit:10;" d="M240.3,84.7
		c-0.6-0.9-1.1-1.9-1.6-2.8c-0.2-0.5-0.5-0.9-0.6-1.4l-0.3-0.8v0.1c0,0,0-0.1,0-0.1c-0.1-0.2-0.2-0.3-0.2-0.5c-0.8-2-1.5-4.1-2-6.2
		c-0.5-2.1-0.9-4.2-1.2-6.4c0-0.2,0-0.3-0.1-0.4c0-0.3,0-0.5-0.1-0.8c-0.1-0.6-0.1-1.1-0.2-1.6c0-0.5-0.2-2.2-0.2-3.2
		c-0.1-2.1-0.1-4.1,0-6.1c0-1,0.1-2,0.2-3c0-0.4,0.1-0.8,0.2-1.3c0.1-0.5,0.1-1,0-0.3c0-0.2,0-0.5,0.1-0.7c0.3-1.9,0.6-3.7,1.2-5.6
		c0.2-0.8,0.5-1.6,0.8-2.4c0.1-0.2,0.2-0.4,0.2-0.6l0.1-0.2c0.2-0.3,0.3-0.6,0.4-1c0.2-0.3,0.3-2.1-0.6-2.6
		c-0.9-0.5-2.1-0.3-2.6,0.7c-1.4,2.9-2.3,5.9-2.8,9.1c-0.7,4-1,8-1,12c0.1,8.9,1.8,18,5.9,25.9c0.6,1.1,1.2,2.1,1.9,3.2
		c0.3,0.6,0.7,1.2,1,1.8l0.2,0.3c0,0,0.2,0.4,0.2,0.5c0.1,0.3,0.2,0.6,0.3,0.9c0.2,0.7,0.4,1.5,0.6,2.2c0,0.1,0,0.2,0.1,0.3
		c-1.3-1.5-2.8-2.7-4.4-3.9c-0.8-0.6-2.2-0.2-2.6,0.7c-0.5,0.9-0.2,2.1,0.7,2.6l0.5,0.4l0.3,0.2l1,0.9c0.6,0.6,1.3,1.2,1.8,1.9
		s0.6,0.6,0.8,1c0,0.1,0.1,0.2,0.2,0.3c0.2,0.2,0.3,0.3,0.4,0.5c0.5,0.8,1,1.5,1.4,2.3c0.8,1.4,3.1,1.1,3.5-0.5
		c0.6-2.7,0.6-5.5-0.1-8.2C242.7,89.2,241.6,86.9,240.3,84.7z M238,97.3C238.1,97.5,238,97.5,238,97.3L238,97.3z"/>
	<path style="stroke:#000000;stroke-width:3;stroke-linecap:round;stroke-linejoin:round;stroke-miterlimit:10;" d="M262.3,147.3
		c1-0.3,1.6-1.3,1.3-2.4c-1.1-6.4-3.4-12.4-6.8-17.9c-1.1-1.8-2.3-3.4-3.7-5c-0.7-0.7-1.9-0.8-2.6,0c0,0,0,0,0,0
		c-0.8,0.8-0.7,1.9,0,2.7l0.8,1l0.2,0.2c0.1,0.2,0.3,0.4,0.4,0.5l1.4,2.1c0.9,1.4,1.7,2.8,2.4,4.3c0.3,0.7,0.7,1.4,1,2.1
		c0,0,0,0.1,0.1,0.2l0.2,0.6c0.2,0.3,0.3,0.7,0.4,1.1c0.5,1.5,1,2.9,1.4,4.4c0.4,1.5,0.8,3.2,1.1,4.8
		C260.1,146.9,261.4,147.5,262.3,147.3z"/>
	<path style="stroke:#000000;stroke-width:3;stroke-linecap:round;stroke-linejoin:round;stroke-miterlimit:10;" d="M222.9,97.9
		c-1-0.5-2-0.9-3-1.4c-2.9-1.3-5.8-2.6-8.7-3.9c-0.9-0.5-2.1-0.3-2.6,0.7c-0.5,1-0.3,2.1,0.7,2.6c2.7,1.3,5.5,2.5,8.2,3.7l3.1,1.4
		l0.9,0.5l0.1,0.1c0.3,0.4,0.8,0.6,1.3,0.6c1,0,1.9-0.9,1.9-1.9C224.8,99,223.9,98.4,222.9,97.9z M221.4,101.3
		C221.4,101.3,221.4,101.3,221.4,101.3C221.4,101.4,221.4,101.3,221.4,101.3z"/>
</g>
</svg>
