<?xml version="1.0" encoding="utf-8"?>
<!-- Generator: Adobe Illustrator 27.9.0, SVG Export Plug-In . SVG Version: 6.00 Build 0)  -->
<svg version="1.1" id="Layer_1" xmlns="http://www.w3.org/2000/svg" xmlns:xlink="http://www.w3.org/1999/xlink" x="0px" y="0px"
	 viewBox="0 0 365.1 159.4" style="enable-background:new 0 0 365.1 159.4;" xml:space="preserve">
<g>
	<path style="stroke:#000000;stroke-width:3;stroke-linecap:round;stroke-linejoin:round;stroke-miterlimit:10;" d="M342.3,69.1
		c-2.9-5.1-6.2-10-9.6-14.7c-6.7-9.1-14.6-17.4-23.8-24c-9.2-6.6-19.5-11.3-30.4-13.2c-6.3-1-12.2-0.4-18.3,1.5
		c-4.9,1.5-9.7,3.4-14.3,5.5c-9.8,4.7-18.9,11.4-24.1,21.2c-16.6-0.8-33.3-0.8-49.9-0.2c-8.6,0.3-17.2,0.7-25.8,1.1l-6.3,0.3
		c-1.6,0.1-3.9,0.6-5.4-0.2c-1.5-0.9-1.9-2-2.6-3.1c-0.7-1.1-1.8-2.6-3-3.6c-2.8-2.4-6.5-3.7-9.8-5.1c-3.5-1.6-7-3-10.6-4.1
		c-7.7-2.4-15.6-2.7-23.6-1.6s-16.1,2.9-24.1,4.9c-3.5,0.9-6.9,1.9-9.8,4.1c-2.9,2.2-5.3,5.5-7.6,8.5c-5.1,6.8-9.5,14-13.1,21.6
		c-3.7,7.8-7.7,16.6-6.6,25.5c0.2,1.8,2.2,2.3,3.2,0.9c7.1-9.7,13.9-20,22.1-28.9c0,5.9,0.6,11.8,1.8,17.5c0.4,2,0.9,3.9,1.5,5.9
		c0.2,0.7,0.8,1.2,1.5,1.2c0,0,0,0,0,0.1c0,0,0,0,0,0.1h0c0,0.1,0,0.1,0.1,0.2l0.1,0.3c0.1,0.4,0.1,0.7,0.2,1.1
		c0.3,1.4,0.8,2.8,1.2,4.2c1,2.9,2.2,5.7,3.6,8.4c0.6,1,1.1,2,1.7,3c-0.4,0.4-0.7,0.8-0.9,1.3c-0.2,0.4-0.2,0.9-0.1,1.4
		c0,0.5,0.1,1,0.5,1.3c2,2.1,3.9,4.3,5.7,6.5l2.7,3.3c0,0.1,0.1,0.1,0.1,0.1c0,0,0,0,0.1,0.1L69,122l0.6,0.8l1.3,1.8
		c0.3,0.4,0.8,0.8,1.3,0.8c-0.3,2.4-0.6,4.7-0.8,7c-0.2,2.3-0.2,5.6,1,8.1c0.4,0.8,1.6,1.1,2.4,0.6c0.8-0.5,1.1-1.5,0.6-2.4
		c0-0.1-0.1-0.2-0.1-0.3c0-0.1-0.1-0.2-0.1-0.3c-0.1-0.2-0.2-0.4-0.2-0.7c0-0.2-0.1-0.5-0.1-0.7s0-0.2,0-0.3c0-0.1,0-0.3,0-0.4
		c-0.1-1.1-0.1-2.2,0.1-3.3c0.1-1.1,0.2-2.2,0.3-3.3l0.2-1.7l0.1-0.3v-0.2c0.1-0.3,0.1-0.5,0.1-0.8c0.6-4.5,1.5-9,2.9-13.2l0.6-1.7
		c0.1-0.3,0.2-0.6,0.4-0.9v-0.1c0.1-0.2,0.2-0.3,0.2-0.6c0.5-1.1,1.1-2.2,1.7-3.4c0.5-0.8,0.2-1.9-0.6-2.4c-0.8-0.5-1.9-0.2-2.4,0.6
		l0,0c-2.9,5.1-4.6,10.7-5.6,16.5c-3-4-6.3-7.9-9.7-11.6h0c0,0,0,0,0,0c0.1,0,0.3-0.2,0.3-0.2c0.4-0.2,0.8-0.5,1-0.9
		c0.2-0.5,0.2-1.1-0.1-1.5c-1.7-2.6-3.2-5.4-4.5-8.3L60,98.6l-0.2-0.6c-0.2-0.4-0.3-0.8-0.4-1.1c-0.1-0.4-0.6-1.5-0.8-2.3
		c-0.5-1.5-0.9-3-1.2-4.5c-0.1-0.7-0.4-1.5-0.8-2.1c-0.3-0.4-0.7-0.8-1.1-1.1h-0.1c-0.9-3.1-1.6-6.2-2.1-9.4c0-0.4-0.1-0.8-0.2-1.2
		v-0.2c0-0.1,0-0.1,0-0.2l-0.1-0.7c-0.1-0.9-0.2-1.8-0.2-2.6c-0.2-1.8-0.2-3.5-0.3-5.3c0-1.8,0-3.6,0.1-5.4
		c7.3-6.9,16.5-12.5,26.7-13.3c-0.1,0.7,0.2,1.4,0.8,1.7l1.1,0.7l0.2,0.2l0.1,0.1l0.6,0.5c0.7,0.6,1.3,1.3,1.9,2c0,0,0,0,0.1,0.1
		l0.1,0.1l0.4,0.6l0.8,1.3c0.5,0.9,1,1.8,1.4,2.7c1,1.9,2,3.8,2.8,5.7c0.2,0.4,0.4,0.9,0.6,1.3v0.1c0,0.1,0.1,0.2,0.2,0.4l0.3,0.8
		c0.3,0.9,0.7,1.9,1,2.8c0.3,1,0.8,2.8,1.1,4.2c-4.6-0.7-9.2-1.6-13.8-2.5c-0.8-0.2-1.7,0.2-2,1c-0.3,0.7-0.1,1.8,0.7,2.2l1.3,0.7
		l0.6,0.4l0.3,0.2h0l1.1,1l0.5,0.5l0.2,0.3h0c0,0,0,0,0,0.1c0.6,0.7,1.5,1.2,2.4,0.6c0.9-0.6,1.2-1.6,0.6-2.4
		c3.2,0.6,6.4,1.1,9.6,1.6c0.6,0.1,1.2,0,1.7-0.4c0.4-0.4,0.6-1.1,0.4-1.7c-0.8-4.3-2-8.4-3.8-12.3c-0.9-2-1.9-3.9-2.9-5.8
		c-1-1.9-1.9-3.7-3.1-5.4c-1-1.3-2.1-2.5-3.4-3.5c5.7,0.4,11.2,2.3,15.6,6c1.7,1.5,4.1-1,2.5-2.5c-9.3-7.9-22.6-8.7-33.7-4.4
		c-12.3,4.9-21.5,14.6-29.4,24.9c-3.9,5.1-7.7,10.3-11.5,15.5c0.6-6.1,3.2-12,5.7-17.5c3.1-6.6,6.8-13,11-19
		c2.1-3.1,4.4-6.2,6.9-8.9c2.6-2.7,5.6-4.4,9.2-5.4c7.7-2.1,15.5-3.8,23.3-5c7.8-1.2,15.7-1.3,23.3,0.9c3.7,1.1,7.4,2.5,10.9,4.1
		c3.1,1.4,6.9,2.6,9.5,4.9c2.5,2.3,2.9,4.7,5.2,6.5c2.9,2.2,7,1.2,10.3,1c8.2-0.4,16.3-0.8,24.5-1.1c18.7-0.7,37.3-0.8,56,0.1
		c0.6,0,1.2-0.3,1.5-0.9c4.1-8.4,11.3-14.4,19.4-18.8c4.1-2.2,8.3-4,12.7-5.6c5.3-1.9,10.7-3.7,16.3-3.5c10.3,0.2,20.7,4.6,29.3,9.9
		c8.6,5.3,16.8,12.7,23.5,20.8c3.8,4.6,7.3,9.5,10.5,14.5c1.6,2.6,3.2,5.3,4.7,7.9c0.8,1.3,1.9,3.4,1.8,5.1
		c-9-9.6-18-19.4-28.3-27.7s-21.8-14.7-35-15.9c-7.2-0.7-14.4,0.4-21,3.6c-1.3,0.6-1,2.9,0.4,3.1c1.9,0.4,3.7,1.1,5.3,2
		c-0.5,0.8-1.1,1.6-1.8,2.3c-1.2,1.1-0.2,2.9,1.2,3c2.3,0.1,1.2,3.6,0.5,4.7c-1.5,2.1-3.6,3.9-5.1,6c-3.2,4.3-5.3,9.3-6.2,14.5
		c-0.2,1.4,1.1,2.8,2.6,2c4.6-2.8,9.9-4.5,15.3-4.8c0.3,1.1,0.6,2.3,0.9,3.5c0.3,1.2,0.9,1.3,1.7,1.2l1.7-0.1
		c-0.1,1.6,0.1,3.3,1,4.7c0.6,1,1.6,1.7,2.7,2.1c1.3,0.4,2.4,0.5,3.2,1.7c1.5,2,1.7,4.6,3,6.7s3.5,4.1,6.3,3.8
		c2.2-0.3,2.2-3.7,0-3.5c-2.2,0.3-3.4-2-4-3.8c-0.7-1.8-1.2-3.8-2.4-5.4c-0.6-0.8-1.3-1.4-2.1-1.9c-0.9-0.6-2-0.6-3-1
		c-1.6-0.8-1.2-3.4-1-4.9c0.2-1.5-0.4-2.3-1.7-2.2l-2.3,0.2l-0.9-3.5c-0.2-0.8-0.9-1.3-1.7-1.3c-5.1,0.2-10.2,1.4-14.9,3.6
		c1.6-5.1,4.4-9.5,8.1-13.5c1.9-2,3.7-4.5,3.4-7.4c-0.2-1.5-0.9-2.8-2-3.8c0.7-1,1.3-2,1.7-3.2c0.3-0.7-0.2-1.6-0.8-1.9
		c-0.9-0.6-1.9-1.1-2.9-1.6c10.4-3.2,22-1.4,31.8,3.2c7.1,3.3,13.4,7.9,19.3,13.1H315c-1,0.3-2,0.9-2.8,1.7c-1.5,1.6-2.2,3.8-2,6
		c0.2,2.4,1,4.5,1.5,6.8c0,0.1,0,0.3,0.1,0.4c0,0.3,0.1,0.6,0.1,0.9v0.7c0,0.1,0,0.3,0,0.4v0.1c-0.2,1.1-0.6,2.1-1,3.1c0,0,0,0,0,0
		c0,0.1-0.1,0.2-0.1,0.3l-0.3,0.7c-0.2,0.5-0.4,0.9-0.7,1.4c-0.2,0.5-1,1.8-1.6,2.7c-0.6,0.9-0.5,0.8-0.8,1.1
		c-0.3,0.3-0.3,0.4-0.4,0.7l-0.2,0.2l-0.2,0.2c-0.6,0.8-1.2,1.5-1.9,2.2c-0.7,0.7-1.5,1.6-2.2,2.4c-0.8,0.8-0.7,0.8-1.1,1.1
		l-0.6,0.5l-0.1,0.1h-0.1l-0.3,0.3c-1.8,1.2-3.6,2.3-5.4,3.5c-1,0.7-1.9,1.5-2.8,2.5c-1,1.2-1.4,2.7-1.1,4.2c0.2,1.1,0.7,2,1,3
		l0.3,0.8c0,0.1,0,0.1,0,0.2c-0.1,0.3-0.2,0.6-0.2,0.9c-0.5,0.9-1,1.8-1.6,2.7l-0.4,0.6c0,0.1-0.1,0.1-0.1,0.2l-0.3,0.3l-1.2,1.5
		c-1.6,1.9-3,3.9-4.1,6.1c-2.2,4.6-2.8,9.7-2.8,14.8c0,2.8,0.2,5.6,0.2,8.3c0,1,0.8,1.7,1.7,1.7c0.9,0,1.7-0.8,1.7-1.7
		c-0.1-3.4-0.3-6.7-0.2-10.1c0-0.8,0.1-1.7,0.1-2.5s0.1-0.8,0.1-1.2c0-0.2,0-0.4,0.1-0.6c0-0.1,0-0.2,0-0.4c0.3-1.7,0.7-3.3,1.2-4.9
		l0.2-0.6l0.1-0.3c0.2-0.4,0.4-0.8,0.6-1.2c0.4-0.8,0.8-1.5,1.2-2.2l0.7-0.9c0.1-0.1,0.2-0.3,0.3-0.4l0.1-0.1l0.1-0.1l1.5-1.9
		c1.1-1.3,2.1-2.7,3-4.1c0.2-0.3,0.4-0.7,0.6-1c0.1-0.3,0.3-0.6,0.4-0.9c0-0.1,0-0.1,0-0.2c0-0.1,0-0.2,0-0.2
		c0.1-0.3,0.2-0.6,0.2-0.8c0.1-0.6,0.1-1.2-0.1-1.7c-0.2-0.7-0.5-1.3-0.8-2l-0.3-1c0-0.2-0.1-0.3-0.1-0.5c0-0.2,0-0.1,0-0.2v-0.5
		c0-0.1,0-0.1,0-0.2c0,0,0,0,0-0.1s0-0.1,0-0.1l0.2-0.2l0.1-0.1c0.5-0.6,1-1,1.6-1.5l0.2-0.1l0.5-0.4l1-0.7l2-1.3
		c1.6-0.9,3-2,4.3-3.2c2.3-2.3,4.4-4.8,6.3-7.4c1.8-2.6,3.3-5.5,4.3-8.5c0.6-1.8,0.7-3.7,0.3-5.5c-0.3-1.7-0.8-3.2-1.2-4.9l-0.1-0.6
		c0-0.1,0-0.2-0.1-0.3v-0.6c0-0.2,0-0.5,0-0.7v-0.6c0-0.3,0.1-0.6,0.2-0.9l0.1-0.1l0.1-0.2c0.1-0.1,0.2-0.3,0.2-0.4l0.1-0.2l0.3-0.4
		l0.2-0.1l0.1-0.1l0.3-0.2l0.4-0.2l0.2-0.1l0.3-0.1l0.1,0.1h0l0.2,0.1l0.5,0.3c0.7,0.4,1.5,0.3,2.1-0.2c2.1,2,4.1,4,6.2,6
		c5.6,5.6,11,11.3,16.5,17.1c0.7,0.7,1.8,0.7,2.5,0C348,78.6,344.6,73.1,342.3,69.1z M53.5,89.9L53.5,89.9
		C53.5,89.9,53.5,89.9,53.5,89.9C53.5,89.9,53.5,89.9,53.5,89.9L53.5,89.9l0.1,0.1C53.6,90,53.6,90,53.5,89.9
		C53.5,89.9,53.5,89.9,53.5,89.9L53.5,89.9z"/>
</g>
</svg>
