<?xml version="1.0" encoding="utf-8"?>
<!-- Generator: Adobe Illustrator 27.9.0, SVG Export Plug-In . SVG Version: 6.00 Build 0)  -->
<svg version="1.1" id="Layer_1" xmlns="http://www.w3.org/2000/svg" xmlns:xlink="http://www.w3.org/1999/xlink" x="0px" y="0px"
	 viewBox="0 0 354.6 170.2" style="enable-background:new 0 0 354.6 170.2;" xml:space="preserve">
<g>
	<path style="stroke:#000000;stroke-width:3;stroke-linecap:round;stroke-linejoin:round;stroke-miterlimit:10;" d="M335.4,149
		c-0.2-1.6-1.1-2.9-2.1-4.1c-1-1.2-1.7-2-2.6-3c-1.9-2-3.8-3.9-5.9-5.7l-0.4-0.3c0-0.2,0-0.3,0.1-0.5l0.1-0.8c0-0.1,0-0.3,0.1-0.4
		V134c0.2-1.2,0.4-2.5,0.6-3.8c0.4-2.6,0.8-5.3,1.2-7.9c0.9-5.3,1.8-10.6,2.4-15.9c0.7-6.3,0.7-12.6,0.2-18.9
		c-0.2-2.9-0.4-5.8-1.2-8.6c-0.8-2.5-1.9-4.8-3.3-7c-0.7-1.1-1.5-2.1-2.4-3c-0.9-0.9-1.9-1.6-2.9-2.3c-2.4-1.6-4.8-3-7.3-4.4
		c-5.1-2.9-10.2-5.6-15.1-8.8c-4.9-3.2-9.1-6.6-13.9-9.7c-2.4-1.6-4.9-3-7.5-4.2c-2.6-1-5.2-1.9-7.9-2.5c-1.1-0.3-2.3-0.5-3.4-0.9
		l-1.6-0.6l-0.4-0.1l-0.3-0.1L261,35c-2.2-1.1-4.1-2.8-6.3-4c-4.6-2.6-9.8-4.3-15.1-4.7c-1.1-0.1-2.2-0.1-3.3,0.1
		c-0.5-0.5-1-1-1.6-1.4c-3.9-3.5-8.5-6.5-13.9-6.8c-2.2-0.1-4.4,0.4-6.3,1.4c-1.2-0.9-2.6-1.7-4-2.4c-1.6-0.9-3.4-1.4-5.2-1.8
		c-1.9-0.3-3.8-0.5-5.7-0.4c-3.1,0.1-6.2-0.1-9.3,0c-2.9,0.1-5.8,0.6-8.5,1.4l-2.9,1l-2.2,0.4h-0.3l-0.6,0.1l-1.2,0.1
		c-1.5,0.1-3,0.1-4.4,0.1l-2.3-0.2l-0.6-0.1h-0.3l-1.1-0.2c-1.4-0.3-2.9-0.6-4.3-1c-3-0.8-5.9-1.6-9-1.6c-2.5,0-4.9,0.4-7.2,1.3
		c-2.2,0.9-4.2,2-6.1,3.3c-4.2-2.2-9.4-1.5-13.6,0.6c-3.1,1.5-5.7,3.9-8.3,6.3c-2.2-0.2-4.4-0.1-6.5,0.3c-2.3,0.4-4.5,1-6.7,1.9
		c-2.1,0.8-4.2,1.8-6.2,3c-2.1,1.3-4,2.8-5.9,4.5c-2,1.7-4,3.6-6,5.4c-2,1.8-3.9,3.4-5.9,4.9c-4.4,3.1-9.3,5.5-14.2,7.8
		c-4.9,2.3-9.8,4.8-14.6,7.4s-9.5,5.6-14.1,8.8c-4.6,3.1-8.6,6-11.2,10.6c-2.6,4.6-3,9.7-2.3,14.7c0.7,5,2.4,9.8,4.3,14.4
		c2.2,5.4,4.4,10.8,6.6,16.2l1.6,4c-2.4,2.1-4.9,4.2-7.4,6.3c-2,1.7-4,3.4-5.9,5.3c-0.9,0.9-1.8,1.9-2.7,2.9s-1.8,2.2-2.1,3.6
		c-0.6,2.9,1.5,4.9,4,5.8s5.3,0.9,7.8,0.4c5.3-0.9,10-4,14.3-6.9l14-9.6c7.7-5.3,15.4-10.9,21.8-17.8c3.2-3.4,5.9-7.2,8.1-11.3
		c1.9-3.6,3.3-7.6,4.2-11.6c1,4.9,2.8,9.6,5.3,14c1.1,2,2.4,4,3.4,6c0.3,0.5,0.6,1.1,0.8,1.6c0.1,0.2,0.3,0.5,0.4,0.8
		c0.1,0.1,0.1,0.2,0.1,0.3l0.1,0.2c0.4,1.1,0.8,2.2,1.1,3.3c0.2,0.9,1.1,1.4,2,1.1c0.9-0.3,1.4-1.1,1.1-2c-0.9-4.1-3.2-7.7-5.3-11.3
		c-1-1.7-2-3.4-2.8-5.2l-0.5-1.1c0-0.1-0.1-0.1-0.1-0.2c0-0.1-0.1-0.2-0.1-0.3c-0.1-0.3-0.2-0.5-0.3-0.8c-0.4-0.9-0.7-1.8-1-2.7
		c-0.6-1.8-1-3.7-1.3-5.6c-0.1-0.5-0.2-1-0.2-1.4s0-0.3-0.1-0.4c0-0.3-0.1-0.5-0.1-0.8c-0.1-0.9-0.2-1.9-0.2-2.8
		c-0.1-2,0-3.9,0.1-5.9c0-0.5,0.1-0.9,0.1-1.3c0-0.2,0.1-0.4,0.1-0.7v-0.1c0-0.1,0-0.3,0-0.4c0.2-1,0.3-1.9,0.5-2.9
		c0.5-2.1,1.1-4.2,1.8-6.2l0.6-1.5c0,0,0-0.1,0.1-0.2c0.1-0.1,0.1-0.2,0.1-0.3L99,70c0.5-1,1-2,1.5-3s0.2-1.8-0.6-2.2
		c-0.8-0.5-1.8-0.2-2.2,0.6c-1.2,2.2-2.3,4.6-3.2,7c0.1-3.2,0.3-6.3,0.8-9.5c0.7-4.7,1.9-9.5,4.1-13.7c2.2-4.2,5.7-7.8,9.5-10.9
		c1.9-1.6,4-3.2,5.9-4.8c1.9-1.6,3.8-3.5,5.6-5.2c3.4-3.2,7.4-6.4,12.1-6.8c1.3-0.2,2.7,0,4,0.3c-1.1,1-2.3,2-3.3,3.1
		c-1.8,1.8-3.5,3.7-5.2,5.6l-6.2,7l-6.2,7.1c-0.8,1-1.7,1.8-2.7,2.7l-0.1,0.1l-0.4,0.3l-0.8,0.5l-0.4,0.2h0l-0.9,0.3h-1
		c-0.1,0-0.6-0.1-0.2,0c-0.9-0.1-1.8,0.2-2,1.1c-0.2,0.9,0.2,1.9,1.1,2c1.5,0.2,3,0,4.4-0.6c1.2-0.6,2.3-1.3,3.3-2.3
		c1-0.9,1.9-1.9,2.7-2.9l3.2-3.5c2.1-2.4,4.2-4.8,6.3-7.1c2.1-2.4,3.6-4.2,5.5-6.2c1.7-1.9,3.5-3.6,5.5-5.3l0.7-0.6l0.3-0.3l0.2-0.2
		l1.5-1.1c1-0.7,2.1-1.3,3.2-1.8l0.8-0.4l0.3-0.1l0.1-0.1h0.1c0.6-0.2,1.1-0.4,1.7-0.6l1.7-0.4l0.8-0.1h0.7c0.6-0.1,1.1-0.1,1.7-0.1
		h1.1l0.5,0.1h0.5c1.4,0.2,2.8,0.6,4.2,0.9c3,0.8,6,1.5,9.1,1.8c3.1,0.3,6.2,0.2,9.3-0.2c0.6-0.1,1.2-0.2,1.8-0.3l0.4-0.1l0.3-0.1
		c1.6-0.6,3.3-1.1,4.9-1.5l2-0.4l0.5-0.1c-0.6,0.1-0.1,0,0.1,0l1-0.1c2.9-0.2,5.8-0.1,8.7,0c1.7,0,3.4-0.1,5.1,0l1.1,0.1h0l0.4,0.1
		l0.7,0.1c0.8,0.2,1.6,0.4,2.4,0.7l0.6,0.2l0.4,0.1h0l1.1,0.5c0.8,0.4,1.5,0.8,2.3,1.3c0.8,0.5,1.5,1,2.2,1.5l0.4,0.3l0.4,0.3
		l1.1,0.9c2.7,2.3,5.2,5,7.6,7.7c1.1,1.3,2.5,2.4,3.9,3.4c1.4,0.9,2.9,1.7,4.3,2.4c1.5,0.8,3,1.5,4.4,2.3l1,0.7l0.5,0.3
		c0.1,0,0.1,0.1,0.2,0.1l0.1,0.1c0.6,0.5,1.2,1.1,1.7,1.6c1.2,1.3,2.7,2.5,4,3.8c1.9,1.7,3.7,3.6,5.5,5.6l0.6,0.7l0.1,0.1l0.3,0.4
		c0.3,0.5,0.7,1,1,1.4c0.3,0.5,0.2,0.4,0.3,0.7l0.1,0.3c0,0,0,0.1,0.1,0.1l0.2,0.6c0,0.1,0,0.2,0.1,0.3v0.5c0,0.1,0,0.2-0.1,0.2
		c-0.2,0.9,0.3,1.8,1.1,2c0.9,0.2,1.8-0.3,2-1.1c0.7-2.2-0.6-4.6-1.8-6.4c-1.6-2.3-3.5-4.3-5.5-6.2c-2-1.9-3.3-3-4.9-4.6
		c-0.8-0.8-1.5-1.6-2.3-2.3c-1.4-1.1-2.9-2.1-4.5-2.9c-1.5-0.8-3-1.5-4.5-2.3l-2.2-1.2l-1-0.7l-0.2-0.2h-0.1
		c-0.2-0.2-0.3-0.3-0.5-0.5c-1.3-1.1-2.4-2.5-3.6-3.8c-1.2-1.3-2.6-2.7-3.9-4l-1.9-1.8c3.6-1.1,7.7,0.2,11,2.3
		c2.1,1.4,4,3.1,5.9,4.9c1.9,1.7,3.8,3.7,5.9,5.4c4,3.3,8.3,6.4,11.6,10.5s4.8,8.5,5.9,13.2c1.1,4.7,1.5,9.5,1.7,14.3
		c-0.9-2.4-1.9-4.7-3.1-6.9c-0.5-0.8-1.5-1.1-2.3-0.6c-0.8,0.5-1,1.4-0.6,2.2c0.5,0.9,0.9,1.7,1.3,2.6s0.4,0.9,0.6,1.3v0.1l0.1,0.3
		c0.1,0.2,0.2,0.5,0.3,0.7c0.7,1.9,1.3,3.8,1.9,5.7c0.5,2,1,4,1.3,6.1c0.1,0.5,0.2,1,0.2,1.4v0.2c0,0.1,0,0.2,0.1,0.3l0.1,0.9
		c0.1,1,0.2,2,0.3,3.1c0.3,4.2,0.3,8.3-0.1,12.5c-0.1,1-0.2,2-0.3,3c0,0,0,0.1,0,0.1c0,0.1,0,0.2,0,0.4l-0.1,0.6
		c-0.1,0.5-0.2,1.1-0.3,1.6c-0.3,2-0.8,4-1.3,6c-1.3,4.8-2.9,9.6-4.8,14.2c-0.3,0.8,0.4,1.8,1.1,2c0.8,0.2,1.7-0.3,2-1.1
		c3.4-8.1,5.9-16.5,6.9-25.3c0-0.2,0-0.4,0-0.6c0.4,1.1,0.8,2.1,1.2,3.2c1.9,4.4,4.6,8.4,7.6,12c6.3,7.5,14.2,13.3,22.2,18.8
		c4.7,3.3,9.5,6.5,14.2,9.8c4.8,3.3,9.3,6.4,14.7,7.6c2.7,0.6,5.5,0.7,8.1-0.1C333.5,153.6,335.7,151.8,335.4,149z M114.1,29.7
		c-3.7,3.3-7.8,6.2-11.4,9.7c-3.6,3.5-6.3,7.8-8.1,12.5c-3.6,9.5-3.3,19.9-3.6,29.9c-0.2,5.4-0.5,10.8-1.7,16c-1.1,4.6-3,9-5.5,13
		c-4.9,7.6-12,13.7-19.2,19.1c-3.9,2.9-7.8,5.6-11.9,8.3l-7.3,5c-2.2,1.5-4.5,3.1-6.8,4.5c-4.1,2.5-9,4.9-14,3.8
		c-1-0.2-1.9-0.5-2.5-1l-0.2-0.3H22c0,0,0,0,0,0l-0.2-0.3c0,0,0,0,0-0.1c-0.1-0.4,0-0.9,0.2-1.2c0.6-1.1,1.4-2,2.2-2.8
		c0.9-1,1.8-1.9,2.8-2.8c3.7-3.6,7.9-6.7,11.8-10.1s7.1-6.6,10.4-10.2c6.6-7.2,12.5-14.9,17.7-23.2c5.1-8.3,9.5-17.1,12.9-26.2
		c0.8-2.2,1.6-4.5,2.4-6.7c0.2-0.9-0.3-1.8-1.1-2c-0.9-0.2-1.8,0.3-2,1.1c-3,9.3-6.9,18.2-11.7,26.7c-4.8,8.4-10.3,16.4-16.6,23.7
		c-3.2,3.7-6.5,7.3-10.1,10.7l-1.4,1.3c-2-4.9-4-9.8-6-14.7c-1.9-4.8-3.9-9.5-5.2-14.5c-0.3-1.2-0.6-2.5-0.8-3.7v-0.1
		c0-0.2,0-0.3-0.1-0.5c0-0.3-0.1-0.6-0.1-0.9c-0.1-0.6-0.1-1.2-0.1-1.8c0-0.6,0-1.1,0-1.7s0-0.6,0.1-0.9c0-0.3,0-0.2,0-0.3
		s0.1-0.4,0.1-0.4c0.2-1.1,0.4-2.2,0.8-3.3c0.8-2.1,1.9-4.1,3.4-5.7c0.8-0.9,1.7-1.8,2.7-2.6c0.9-0.7,1.7-1.4,2.6-2.1
		c8.8-6.3,18.2-11.8,28-16.4c4.7-2.3,9.6-4.4,14.1-7.2c4.5-2.8,8.6-6.3,12.5-9.9c1.9-1.8,3.9-3.5,6-5.2l1-0.8l1.3-0.9
		c0.9-0.6,1.9-1.1,2.8-1.5l1.4-0.7l0.3-0.1l0.2-0.1l0.9-0.4c1.1-0.4,2.2-0.8,3.3-1.1c1.1-0.3,2.1-0.6,3.2-0.8l0.8-0.1h0.5
		L114.1,29.7L114.1,29.7z M332.1,149.6L332.1,149.6c0,0.1,0,0.1-0.1,0.2c-0.1,0.3-0.4,0.6-0.7,0.8c-0.9,0.5-1.9,0.9-2.9,1
		c-5.3,0.7-10.3-2.1-14.6-4.8c-4.9-3.2-9.7-6.6-14.5-9.9c-7.9-5.4-15.9-10.9-22.5-17.9c-3.3-3.3-6-7-8.3-11.1
		c-2.4-4.5-4-9.5-4.7-14.6c-1.6-10.7-0.4-21.7-2.1-32.4c-0.8-5-2.2-9.9-4.8-14.3c-2.5-4.4-6.3-8.1-10.3-11.4c-2-1.7-4.1-3.3-6-5
		c-0.3-0.2-0.5-0.5-0.8-0.7l0.9,0.1h0.6l1.9,0.3c1.3,0.3,2.5,0.6,3.8,1l1.7,0.6l0.9,0.4l0.3,0.1l0.4,0.2c2.2,1,4.3,2.1,6.2,3.6
		c2.1,1.5,4.4,2.7,6.9,3.4c2.3,0.8,4.8,1.2,7.1,1.9c2.6,0.8,5.1,1.8,7.4,3.2c5,2.8,9.5,6.3,14.1,9.6c4.7,3.3,9.5,6,14.4,8.7
		c2.5,1.4,5,2.8,7.5,4.3c1.1,0.7,2.3,1.4,3.4,2.2l1.5,1.1h0l0.1,0.1l0.3,0.3l0.7,0.6c0.4,0.4,0.8,0.8,1.1,1.2c0,0,0,0.1,0.1,0.1
		c0,0,0,0.1,0,0.1l0.2,0.3c0.2,0.3,0.5,0.6,0.7,1c0.7,1,1.2,2.1,1.7,3.2l0.2,0.5c0,0.1,0.1,0.2,0.1,0.3c0.1,0.2,0.2,0.4,0.3,0.7
		c0.2,0.6,0.4,1.2,0.6,1.8c0.1,0.5,0.3,1,0.4,1.5c0,0.1,0.1,0.3,0.1,0.4c0,0,0,0,0,0.1v0.1c0.1,0.5,0.1,0.9,0.2,1.4
		c0.8,6.2,1,12.5,0.5,18.7c-0.4,5.4-1.2,10.6-2.1,15.9c-0.9,5.3-1.6,10.2-2.3,15.3c-3.1-2.3-6.3-4.3-9.4-6.5
		c-3.3-2.4-6.6-4.9-9.6-7.6c-1.3-1.2-2.5-2.4-3.7-3.7c-0.5-0.6-1.1-1.2-1.6-1.8l-0.7-0.8l-0.2-0.3l-0.4-0.5
		c-0.9-1.2-1.6-2.4-2.3-3.7c-0.4-0.6-0.7-1.3-1-1.9l-0.4-0.9l-0.1-0.2L292,105c-1-2.8-1.8-5.6-2.2-8.6l-0.1-0.6v-0.2
		c-0.1-0.4-0.1-0.8-0.2-1.2c0-0.4-0.2-1.7-0.2-2.6c-0.1-1.8-0.2-3.6-0.2-5.4s0-3.8,0-5.8s-3.3-2.1-3.3,0c-0.1,7,0,14.1,1.7,20.9
		c1.5,5.9,4.4,11.3,8.5,15.8c5.4,6.1,12.2,11,19,15.5c2.1,1.4,4.2,2.8,6.2,4.4c0.2,0.7,0.8,1.3,1.6,1.3c1.6,1.3,3.1,2.8,4.5,4.3
		c1,1,1.9,2,2.8,3c0.9,1,1.7,1.8,2.1,2.9c0.1,0.2,0.1,0.4,0.1,0.6C332.2,149.4,332.1,149.6,332.1,149.6z"/>
</g>
</svg>
