<?xml version="1.0" encoding="utf-8"?>
<!-- Generator: Adobe Illustrator 27.9.0, SVG Export Plug-In . SVG Version: 6.00 Build 0)  -->
<svg version="1.1" id="Layer_1" xmlns="http://www.w3.org/2000/svg" xmlns:xlink="http://www.w3.org/1999/xlink" x="0px" y="0px"
	 viewBox="0 0 406.1 186" style="enable-background:new 0 0 406.1 186;" xml:space="preserve">
<g>
	<path style="stroke:#000000;stroke-width:3;stroke-linecap:round;stroke-linejoin:round;stroke-miterlimit:10;" d="M168,59
		c-4.8-2.3-10-3.7-15.3-3.9c-1.6-0.1-2.6,2.2-1.4,3.3c0.8,0.7,1.6,1.5,2.3,2.4c0.2,0.2,0.3,0.4,0.5,0.6h0v0.1l0.2,0.3
		c0.3,0.4,0.6,0.9,1,1.3s0.9,1.6,1.3,2.4c-8-1.9-16.4-2.4-24.6-1.6c-2.8,0.3-5.5,0.7-8.2,1.3c-0.8,0.2-1.4,1-1.4,1.8
		c0,0.8,0.6,1.6,1.4,1.8c3.1,0.9,6.2,1.9,9.2,3l4.5,1.8l0.2,0.1l0.6,0.3l1.1,0.5l2.2,1l0.2,0.1c-3.2,0.9-6.3,2.1-9.3,3.5
		c-0.6,0.4-1,1.1-0.9,1.9c0.1,0.7,0.6,1.3,1.4,1.6l0.5,0.2l0.2,0.1c0.2,0.1,0.5,0.2,0.7,0.3l0.4,0.3h0.1l0.7,0.7l0.3,0.4
		c0,0,0,0,0,0.1l0.2,0.2c-8.1,0.8-16.1,2.8-23.7,5.9c-2.5,1-4.9,2.1-7.2,3.3c-0.9,0.4-1.2,1.8-0.7,2.6c0.5,0.9,1.7,1.2,2.6,0.7
		l3-1.4l1.4-0.6l0.8-0.3l0.2-0.1l0.3-0.1c2-0.9,4.1-1.6,6.2-2.3c4.2-1.4,8.4-2.4,12.8-3.2l1.9-0.3h0.5l0.8-0.1l3.8-0.4
		c1.1,0,1.9-0.9,1.9-1.9c0-0.2,0-0.3-0.1-0.5c-0.4-2-1.4-3.8-3-5.1c1.1-0.4,2.1-0.8,3.2-1.1c2.3-0.8,4.7-1.3,7.1-1.7
		c0.7-0.1,1.3-0.9,1.4-1.6c0.1-0.8-0.3-1.5-0.9-1.9c-5.1-2.7-10.4-5-15.9-7c1.9-0.2,3.8-0.3,5.7-0.3c2.3,0,4.6,0,6.9,0.2
		c1.2,0.1,2.3,0.2,3.5,0.3h0.9l0.3,0.1l1.8,0.3c2.6,0.5,5.1,1,7.7,1.8c1.4,0.4,2.8-1,2.3-2.3c-0.9-2.9-2.4-5.7-4.2-8.2l2.1,0.5
		c1.1,0.3,2.3,0.6,3.4,1l1.6,0.6l0.3,0.1l0.3,0.2l1,0.4c0.9,0.5,2.1,0.3,2.6-0.6C169.1,60.7,168.9,59.5,168,59z"/>
	<path style="stroke:#000000;stroke-width:3;stroke-linecap:round;stroke-linejoin:round;stroke-miterlimit:10;" d="M130.6,43
		l0.6,0.2l0.4,0.2c0.9,0.4,1.8,0.9,2.6,1.4l0.5,0.4l0.3,0.2c0.1,0,0.2,0.1,0.2,0.2l0.2,0.1l0.3,0.2l0.5,0.5c0.8,0.7,1.4,1.4,2.1,2.2
		c0.6,0.8,2.1,0.7,2.7,0c0.6-0.7,0.6-1.8,0-2.7c-2.7-3.5-6.6-5.9-10.8-7c-1-0.3-2.1,0.3-2.4,1.3c-0.2,1,0.3,2,1.3,2.3L130.6,43z"/>
	<path style="stroke:#000000;stroke-width:3;stroke-linecap:round;stroke-linejoin:round;stroke-miterlimit:10;" d="M110.3,52.5
		c-0.9,0.5-1.2,1.7-0.6,2.6c0.5,0.9,1.7,1.2,2.6,0.6l1.2-0.6l0.4-0.2l0.3-0.1c0.8-0.3,1.6-0.6,2.4-0.8c1.6-0.5,3.3-0.9,5-1.1h0.2
		l0.6-0.1l1.3-0.1c0.8-0.1,1.7-0.1,2.5-0.1s1.7,0,2.5,0.1l1.1,0.2h0.5l0.6,0.1c1,0.2,2.1-0.3,2.4-1.3c0.3-1.1-0.3-2.1-1.3-2.3
		C124.7,48.1,117.1,49.2,110.3,52.5z"/>
	<path style="stroke:#000000;stroke-width:3;stroke-linecap:round;stroke-linejoin:round;stroke-miterlimit:10;" d="M102.9,75.4
		c0.8,0.7,1.9,0.7,2.7,0l0.4-0.3l0.2-0.2c0,0,0.1,0,0.1-0.1c0,0-0.1,0-0.2,0.1c0.3-0.2,0.6-0.4,0.9-0.6c0.6-0.4,1.3-0.7,1.9-1h0.2
		l0.5-0.2l1-0.3l1-0.3l0.5-0.1h0.2c0.5,0,1-0.2,1.4-0.6c0.3-0.4,0.5-0.8,0.5-1.3c0-1-0.8-2-1.9-1.9c-3.5,0.3-6.8,1.8-9.4,4.1
		C102.2,73.5,102.2,74.7,102.9,75.4z"/>
	<path style="stroke:#000000;stroke-width:3;stroke-linecap:round;stroke-linejoin:round;stroke-miterlimit:10;" d="M110.4,105.6
		c-6.1,2.1-11.7,5.5-16.2,10.1c-0.7,0.8-0.7,1.9,0,2.7c0.2,0.2,0.5,0.4,0.8,0.5l2.3,0.7l1,0.4l0.6,0.2h0.2l2,1l-0.7,0.4l-1.6,0.8
		h-0.1l-0.4,0.2l-1,0.3c-2.6,1-5.2,1.9-7.5,3.6c-1.4,1.1-2.8,2.4-4,3.7c-0.8,0.7-0.9,1.9-0.2,2.7c0.7,0.8,1.9,0.9,2.7,0.2
		c0.1-0.1,0.2-0.1,0.2-0.2c1.1-1.1,2.2-2.2,3.4-3.2l0.1-0.1c0,0,0.1,0,0.1-0.1l0.5-0.3l1-0.6l1.9-1h0.1l0.4-0.2l0.9-0.3l1.8-0.6
		c1.3-0.5,2.5-1,3.7-1.6c1.4-0.8,2.6-1.9,3.5-3.2c0.6-0.9,0.2-2.1-0.7-2.6c-1.9-1.1-3.8-2.1-5.9-2.9l1-0.8l0.4-0.3l0.3-0.2l0.9-0.6
		l1.9-1.3c1.3-0.8,2.6-1.5,4-2.1l1-0.5l0.5-0.2l0.3-0.1l2.1-0.8c1-0.3,1.6-1.3,1.3-2.3C112.4,105.9,111.4,105.2,110.4,105.6z
		 M101.3,120.9l-0.1,0.1h0C101.3,120.9,101.4,120.9,101.3,120.9z"/>
	<path style="stroke:#000000;stroke-width:3;stroke-linecap:round;stroke-linejoin:round;stroke-miterlimit:10;" d="M294.6,95.6
		c0.7-0.7,0.8-2,0-2.7c-3.5-2.9-7.4-5.3-11.7-6.9c-4.4-1.6-9.1-2.6-13.8-2.9c-1.2-0.1-2.4-0.1-3.7-0.1c0.8-0.5,1.6-0.9,2.4-1.3
		l1.4-0.7l0.2-0.1h0.1l0.7-0.3c0.8-0.3,1.6-0.6,2.4-0.8c0.7-0.2,1.3-0.8,1.4-1.6c0.1-0.7-0.2-1.6-0.9-1.9c-2.4-1.2-5.1-1.7-7.8-2
		s-5.9-0.6-8.8-1c1.1-0.8,2.2-1.5,3.4-2.1c0.7-0.4,1.4-0.7,2.1-1h0.2l0.5-0.2l1.2-0.5c1.6-0.5,3.3-1,5-1.3l1.6-0.3l0.3-0.1h0.2
		l0.7-0.1l3.5-0.3c1,0,1.8-0.7,1.9-1.6c0.2-1-0.5-1.8-1.4-2.1c-9.2-3.4-19.2-3.6-28.7-1.3c-1.3,0.3-2.6,0.7-3.9,1.1
		c0.3-0.6,0.7-1.3,1.1-1.9c0.3-0.5,0.6-0.9,0.9-1.3l0.3-0.4c0,0,0,0,0,0c0.2-0.2,0.3-0.4,0.5-0.6c0.7-0.9,1.5-1.7,2.3-2.4
		c1.2-1.1,0.3-3.3-1.4-3.2l-2-0.1h-0.7l-1-0.2l-4.5-0.9c-3.1-0.5-6.3-0.8-9.2,0.5c-0.9,0.4-1.2,1.8-0.7,2.6c0.6,0.9,1.7,1.2,2.6,0.7
		c0,0,0.1,0,0.1-0.1h0l0.5-0.2l0.8-0.2h1.6c0.7,0,1.4,0.1,2.1,0.2h0.2l0.6,0.1l1.1,0.2l4.6,0.9c-2.2,2.7-3.9,5.8-4.9,9.2
		c-0.4,1.3,1,2.9,2.3,2.3c2.2-0.9,4.5-1.6,6.7-2.2c1.1-0.3,2.2-0.6,3.4-0.8l1.7-0.3l0.8-0.1h0.6c2.3-0.3,4.6-0.4,6.9-0.4
		c1.1,0,2.3,0.1,3.4,0.2l0.9,0.1h0.8c-3.9,1-7.5,2.6-10.8,4.9c-1.5,1-2.9,2.2-4.2,3.4c-1,0.9-0.6,3,0.8,3.2c2.7,0.4,5.4,0.6,8.1,0.8
		l4.5,0.5h0.7l1.1,0.2l0.4,0.1c-2.1,1-4.1,2.1-5.8,3.6c-0.8,0.7-1.5,1.6-1.8,2.7c-0.2,1.1,0.5,2.5,1.8,2.4c2.5-0.2,5-0.2,7.5-0.1
		c1.2,0,2.4,0.2,3.5,0.3h0.5l0.8,0.1l1.7,0.3c2.2,0.4,4.3,1,6.4,1.7l1.4,0.5l0.6,0.3h0l0.5,0.2l2.8,1.4c1,0.6,2,1.2,3,1.8l1.4,1
		l0.4,0.3l0.7,0.6C292.7,96.3,293.9,96.4,294.6,95.6z"/>
	<path style="stroke:#000000;stroke-width:3;stroke-linecap:round;stroke-linejoin:round;stroke-miterlimit:10;" d="M387,164.2
		c-1.1-4.6-5.2-7.2-9.5-8.6c-2.1-0.6-4.2-1.1-6.4-1.5c-2.2-0.4-4.4-1-6.5-1.9l-0.3-0.1l-0.6-0.3l-1.4-0.7c-0.8-0.4-1.5-0.9-2.2-1.4
		l-0.5-0.4c-0.1-0.1-0.7-0.5-0.2-0.1l-1-0.8c-0.6-0.5-1.1-1-1.6-1.6c-0.5-0.5-0.9-1.1-1.4-1.6l-0.1-0.1c-0.1-0.2-0.2-0.3-0.3-0.4
		l-0.6-0.9c-0.7-1-1.3-2.1-1.9-3.1c-0.6-1.1-1.1-2.3-1.8-3.4l0.7-0.2h0.4l0.9-0.1l1.9-0.1c2.5,0,5,0.2,7.5,0.5l3.8,0.5
		c1.4,0.2,2.5-1.8,1.7-2.9c-3.2-4.1-7.4-7.2-11.9-9.6c-4-2-8.2-3.7-12.6-4.8c1.1,0,2.1-0.2,3.2-0.4c1.6-0.4,1.8-2.6,0.5-3.5
		c-2.4-1.5-4.7-3.3-7.1-5c-1-0.8-2.1-1.5-3.3-2.2l1.7,0.5l0.9,0.3c0.1,0,0.1,0,0.2,0.1l0.5,0.2c1.4,0.6,2.8,1.3,4.2,1.8
		c1.9,0.8,3.8,1.4,5.8,1.9c1,0.2,2.1-0.3,2.4-1.3c0.2-1-0.3-2-1.3-2.3l-2.1-0.8l-0.5-0.2H348l-1-0.5c-1.2-0.5-2.3-1.1-3.5-1.7
		c-2-1.1-4-2.3-6-3.5c-3.7-2.4-7.4-4.8-11.5-6.7c-1.1-0.5-2.3-1-3.4-1.4c1.1-0.3,2.3-0.5,3.5-0.7l0.5-0.1h0.3l1.1-0.1l2.2-0.1
		c1.6,0,3.1,0,4.7,0.2c0.8,0,1.6-0.6,1.9-1.4c0.2-0.8-0.1-1.8-0.9-2.2c-5.9-2.8-12.3-4.7-18.4-7.1l-1.2-0.5
		c-0.4-0.2-0.8-0.4-1.1-0.5h-0.2l-0.5-0.2l-0.1-0.1c-0.3-11.9,1.6-24-1.6-35.6c-0.8-2.8-1.8-5.5-3.1-8c-1-2.1-2-4.2-3.1-6.2
		c-2.3-4.2-5-8.3-8.3-11.8c-3.4-3.5-7.3-6-11.9-7.1c-1.2-0.3-2.4-0.4-3.6-0.4c-1.3,0.1-2.6,0.3-3.8,0.6c-2.5,0.6-5,1.4-7.4,2.4
		c-2.4,0.9-4.7,1.6-7.1,2.4c-2.9,1-5.8,2.2-8.7,3.5c-5.5,2.7-10.6,6-15.6,9.5c-2.7,1.8-5.3,3.7-8,5.4l-4.1,2.5
		c-0.6,0.4-1.2,0.8-1.9,1.1l-0.1,0.1H226l-0.5,0.2h-2.3l-0.4-0.1c-0.7-0.1-1.4-0.3-2.2-0.5c-0.6-0.3-1.3-0.5-2-0.6
		c-0.9-0.2-1.8-0.2-2.6-0.2c-2.7,0-5.6-0.2-8.3,0.1c-1.3,0.2-2.5,0.4-3.7,0.8c-1.9-0.5-4-0.5-6-0.3c-1.9,0.2-4.9,0.6-7.3,1.1
		c-2.4,0.5-4.7,1-7,1.6c-1.4,0.4-2.8,0.6-4.2,0.6h-0.7l-0.5-0.1h-0.2c-0.7-0.3-1.4-0.8-2-1.2c-2.7-1.6-5.3-3.3-8-5.1l-7.7-5.3
		c-4.8-3.4-10-6.2-15.4-8.5c-2.8-1.2-5.7-2.2-8.6-3c-3.1-0.7-6.3-1-9.5-0.9c-2.9,0-5.8,0.4-8.5,1.1c-2.4,0.7-4.8,1.7-7,2.9
		c-4.2,2.4-8,5.6-11.1,9.4c-3.2,4-5.9,8.5-7.7,13.4c-4.5,11-5.6,23.1-6.2,34.9c0,1-0.1,1.9-0.1,2.9c-4.7,2.3-9.2,5-13.9,7.5
		c-1.3,0.7-2.6,1.4-4,2.1c-0.8,0.4-1.1,1.3-0.9,2.1c0.2,0.8,1,1.5,1.8,1.4c1.5-0.2,3.1-0.2,4.7-0.2c0.8,0,1.5,0,2.2,0.1l1,0.1h0.3
		l0.5,0.1c1,0.2,2,0.3,2.9,0.6c-9.8,2.7-19.4,5.7-29,9c-3.3,1.1-6.6,2.3-9.8,3.5c-0.9,0.3-1.7,1.3-1.3,2.3c0.3,1,1.3,1.6,2.4,1.3
		c2-0.5,4-0.9,6.1-1.1h0.4l0.7-0.1l1.6-0.2l3.1-0.2c2.1-0.1,4.1,0,6.1,0.1c1,0,2.1,0.2,3.1,0.3l0.7,0.1h0.5l0.8,0.1
		c-4.2,1.4-8.3,3.1-12.2,5.1c-1.7,0.9-3.4,1.9-5,2.9s-1.2,3.1,0.5,3.5c1.1,0.3,2.2,0.6,3.2,1.1l0.7,0.3l0.1,0.1l0.4,0.2l1.6,0.8
		c0.8,0.4,1.5,0.8,2.2,1.3c-10.9,2.9-20.4,9.3-27.3,18.2c-0.8,1.1,0.3,3.1,1.6,2.9c1.3-0.2,2.6-0.2,3.9-0.2l2,0.1l0.8,0.1l0.5,0.1
		h0.3c1.2,0.2,2.4,0.4,3.5,0.7l0.5,0.2c0,0,0,0,0,0c-1,0.6-2.1,1.2-3.1,1.8c-2.1,1.1-4.4,2.1-6.6,3.1c-4.1,1.9-8.2,4.2-11.2,7.7
		c-1.8,1.9-3.1,4.3-3.7,6.9c-0.2,1.1,0.5,2.6,1.8,2.4l11.9-1.5c1-0.2,2-0.8,1.9-1.9s-0.8-2.1-1.9-1.9l-9,1.1
		c0.2-0.4,0.4-0.8,0.6-1.1l0.5-0.6c0,0,0,0,0-0.1l0.3-0.4c0.7-0.8,1.4-1.6,2.2-2.2l0.6-0.5l0.3-0.3l0.1-0.1l1.3-0.9
		c3.9-2.6,8.3-4.1,12.4-6.2c2.5-1.2,4.8-2.7,6.9-4.5c0.8-0.7,0.7-2.5-0.4-3c-3.9-1.7-8-2.6-12.2-2.7c0.6-0.7,1.2-1.3,1.8-1.9
		c0.6-0.6,1.7-1.6,2.6-2.3l1.3-1.1l0.2-0.2l0.2-0.2l0.7-0.5c1.9-1.3,3.8-2.6,5.9-3.6c1-0.6,2.1-1.1,3.2-1.6l0.7-0.3
		c0.1,0,0.2,0,0.2-0.1l0.4-0.2l1.7-0.6c2.5-0.9,5-1.5,7.5-2c1.3-0.2,1.9-2.3,0.8-3.2c-2.7-2.3-5.8-4.2-9.1-5.5
		c1.8-1,3.5-1.9,5.4-2.7l1.2-0.5l0.2-0.1l0.2-0.1h0l0.4-0.2l2.4-0.9c1.6-0.6,3.2-1.1,4.8-1.6c1.6-0.5,3.7-1,5.6-1.4
		c1-0.3,1.6-1.3,1.4-2.3c-0.2-0.7-0.7-1.2-1.4-1.4c-5.1-1.5-10.5-2.3-15.9-2.4c6.3-2.1,12.6-4,19-5.8c3.4-1,6.7-1.9,10-2.7
		c0.7-0.2,1.3-0.8,1.4-1.6c0.1-0.7-0.2-1.6-0.9-1.9c-3.6-1.6-7.5-2.7-11.4-3.1l8-4.4c1-0.5,1.9-1,2.9-1.5H88c1,0,1.9-0.9,1.9-1.9
		c0.2-5.8,0.5-11.6,1.1-17.3c0.2-1.4,0.3-2.4,0.5-4c0.2-1.5,0.5-2.9,0.8-4.3c0.6-2.9,1.3-5.7,2.2-8.5c1.6-4.8,3.6-9.3,6.6-13.5
		l1-1.4l0.2-0.2l0.2-0.2l0.6-0.8c0.8-0.9,1.6-1.8,2.4-2.6c0.8-0.8,1.6-1.6,2.5-2.3l0.6-0.5l0.3-0.3h0.1l1.5-1.1c1-0.6,2-1.3,3-1.8
		l1.5-0.7l0.8-0.4h0.1l0.5-0.2c1.1-0.5,2.2-0.8,3.4-1.1l1.7-0.4l0.9-0.2h0.8c3-0.3,6.1-0.3,9.1,0l0.3,0.1l0.5,0.1l1.1,0.2l2.4,0.6
		c1.4,0.4,2.8,0.9,4.2,1.4c2.6,1,5,2.1,7.5,3.4c2.6,1.3,5.1,2.8,7.5,4.4c5.2,3.3,10.1,7,15.3,10.2c1.3,0.8,2.6,1.6,3.9,2.4
		c1.4,0.8,2.9,1.3,4.5,1.3c3,0,5.8-1,8.7-1.6c2.1-0.5,4.2-0.9,6.4-1.3l0.8-0.2h0.6l1.7-0.2c1.1-0.1,2.1-0.1,3.2-0.1l0.7,0.1h0.3
		l1.1,0.3c0.3,0.2,0.7,0.2,1,0.1l0.3-0.1l1.7-0.5l1-0.2h0.1l0.6-0.1c1.3-0.1,2.7-0.1,4-0.1h4.4c0.3,0,0.6,0,0.8,0h0.4l0.5,0.1
		l2.1,0.6c1.5,0.5,3.1,0.7,4.7,0.6c1.7-0.1,3.3-0.6,4.7-1.6c2.7-1.6,5.3-3.3,7.9-5c5.1-3.5,10.1-7.1,15.4-10.2c2.6-1.4,5.3-2.8,8-4
		h0.1l0.5-0.2l1.1-0.4l2-0.8l3.9-1.2c2.4-0.8,4.7-1.8,7.1-2.6l3.5-1.3l1.7-0.4l0.9-0.2h0.5c0.5,0,1-0.1,1.5,0h0.3l1,0.2
		c1.1,0.3,2.1,0.6,3.1,1l0.4,0.2l0.6,0.3l1.5,0.8c0.5,0.3,0.9,0.6,1.3,0.9l0.7,0.5l0.4,0.3c1.7,1.4,3.3,3,4.7,4.7l0.3,0.3l0.2,0.2
		l0.3,0.5c0.4,0.5,0.7,1,1.1,1.5c0.7,1,1.3,1.9,1.9,2.9c1.2,2,2.2,4,3.3,6.1c0.5,1,1,2.1,1.5,3.1L307,43c0.1,0.3,0.3,0.6,0.4,1
		c0,0,0,0.1,0,0.1v0.1c0.1,0.2,0.2,0.5,0.3,0.7c1,2.7,1.8,5.5,2.2,8.3c0.1,0.4,0.1,0.8,0.2,1.1c0,0,0,0.1,0,0.1v0.1
		c0,0.2,0,0.3,0.1,0.5c0.1,0.8,0.2,1.5,0.2,2.3c0.2,1.4,0.2,2.9,0.2,4.4c0.2,5.9-0.2,11.8-0.3,17.7c0,1.4,0,2.8,0.1,4.3
		c0,0.2,0,0.3,0.1,0.5c-0.2,0.8,0.1,1.7,0.8,2.1c4.6,2.2,9.4,3.8,14.1,5.5c-3.4,0.5-6.7,1.5-9.8,2.9c-0.7,0.3-1,1.3-0.9,1.9
		c0.1,0.8,0.6,1.4,1.4,1.6c1.4,0.4,2.8,0.8,4.2,1.3c0.6,0.2,1.2,0.4,1.8,0.7l0.9,0.3h0.1l0.5,0.2c2.1,1,4.1,2,6.1,3.2l2.8,1.8
		c-1.8,0.2-3.6,0.5-5.4,1c-0.8,0.2-1.4,1-1.4,1.8c0,0.8,0.6,1.6,1.4,1.8c1.5,0.3,3,0.8,4.4,1.3l0.4,0.2h0.1l1,0.5
		c0.5,0.3,1.1,0.5,1.6,0.8c1.9,1.2,3.9,2.6,5.6,4l-1.8-0.1c-1.3-0.1-2.6,0-3.9,0.3c-1.4,0.3-2.6,0.9-3.7,1.8c-1.1,0.9-0.5,3,0.8,3.2
		c4.9,0.8,9.7,2.1,14.4,3.6c1.2,0.4,2.4,0.8,3.5,1.3l0.5,0.2l0.3,0.1l0.2,0.1l0.5,0.2c0.5,0.3,1.1,0.5,1.6,0.8
		c2.2,1.1,4.4,2.3,6.4,3.8l0.4,0.3l0.2,0.1c0.3,0.2,0.5,0.4,0.8,0.6l0.6,0.5c-3.4-0.4-6.8-0.6-10.2-0.1c-1.4,0.2-2.7,0.6-4,1.1
		c-1.2,0.5-1.1,2.2-0.4,3l0.3,0.3l0.2,0.2l0.7,1.1c0.5,0.9,1,1.8,1.4,2.7c1.2,2.4,2.6,4.7,4.3,6.7c2.2,2.6,4.9,4.7,8,6.2
		c2,1,4.1,1.7,6.2,2.3c2.2,0.6,4.4,0.8,6.6,1.4c1.1,0.3,2.3,0.6,3.4,1l0.3,0.2h0.2l0.8,0.4c0.5,0.2,1,0.5,1.4,0.8
		c0.2,0.2,0.5,0.3,0.7,0.5l0.4,0.3l0.6,0.6c0.1,0.2,0.3,0.4,0.5,0.5c-1.5,0.3-3,0.6-4.4,1c-1.2,0.3-2.4,0.6-3.7,0.8l-0.4,0.1h-0.2
		c-0.1,0.1-0.6,0.1-0.8,0.1c-0.5,0-1.1,0-1.6,0c-1-0.1-1.9,1-1.9,1.9s0.8,1.8,1.9,1.9c2.4,0.3,5-0.5,7.3-1.1
		c1.2-0.3,2.4-0.6,3.6-0.9l0.4-0.1h0.3c0.2,0,0.2,0-0.1,0s0.6-0.1,0.8-0.1c0.5,0,1.1,0,1.6,0C386.5,166.7,387.3,165.2,387,164.2z"/>
	<path style="stroke:#000000;stroke-width:3;stroke-linecap:round;stroke-linejoin:round;stroke-miterlimit:10;" d="M267.3,44.2
		L268,44c0.5-0.2,1-0.3,1.4-0.3h0.4l0.8-0.1c1.1,0,1.9-0.8,1.9-1.9c0-1.1-0.8-1.9-1.9-1.9c-2.4,0.2-4.8,0.7-6.9,2
		c-2.1,1.3-3.7,3.2-4.7,5.5c-0.2,0.5-0.3,1-0.2,1.5c0.2,0.5,0.5,0.9,0.9,1.1c0.8,0.4,2.2,0.3,2.6-0.7c0.2-0.5,0.5-1,0.8-1.5
		c0.1-0.2,0.2-0.4,0.4-0.6c0-0.1,0.3-0.4,0.1-0.2c0,0,0.1-0.1,0.1-0.1c0.3-0.4,0.7-0.7,1.1-1.1l0.2-0.2l0.1-0.1l0.6-0.4l0.6-0.3
		l0.5-0.3c0,0,0,0,0.2-0.1L267.3,44.2z"/>
	<path style="stroke:#000000;stroke-width:3;stroke-linecap:round;stroke-linejoin:round;stroke-miterlimit:10;" d="M299.5,50.2
		c-2.4-1.8-5.2-3.1-8.2-3.8c-2.9-0.6-5.8-0.7-8.7-0.3c-1.6,0.2-3.2,0.6-4.8,1c-1,0.3-1.7,1.3-1.3,2.4c0.3,1,1.3,1.6,2.3,1.3
		c1.3-0.4,2.6-0.7,3.9-0.9l0.5-0.1h0.1l1-0.1c0.6-0.1,1.3-0.1,2-0.1s1.3,0,1.9,0.1h0.6l1,0.2c0.6,0.1,1.3,0.3,1.9,0.5l0.9,0.3
		l0.5,0.2l0.2,0.1c1.5,0.6,2.9,1.5,4.2,2.5c0.8,0.6,2.2,0.2,2.6-0.7C300.7,51.8,300.4,50.7,299.5,50.2z"/>
	<path style="stroke:#000000;stroke-width:3;stroke-linecap:round;stroke-linejoin:round;stroke-miterlimit:10;" d="M304.7,74.9
		c0.7,0.7,1.9,0.8,2.6,0c0,0,0,0,0,0c0.7-0.7,0.8-2,0-2.7c-2.6-2.4-5.9-3.8-9.4-4.1c-1-0.1-1.9,1-1.9,1.9c0,1,0.9,1.9,1.9,1.9h0.2
		l0.5,0.1l1.1,0.3l1,0.3l0.5,0.2h0.2c0.6,0.3,1.3,0.6,1.9,1c0.3,0.2,0.6,0.4,0.8,0.6l0.2,0.2L304.7,74.9z"/>
	<path style="stroke:#000000;stroke-width:3;stroke-linecap:round;stroke-linejoin:round;stroke-miterlimit:10;" d="M318.6,129.7
		c-0.8-1.3-1.8-2.3-3-3.3c-1.3-1.3-2.7-2.5-4.1-3.7c-1.4-1.2-2.2-1.9-3.2-2.9c-1.3-1.4-2.7-2.8-4.3-3.9h0c1.1,0.2,2.1,0.6,3.1,1
		c0.8,0.2,1.6-0.1,2-0.7c0.5-0.6,0.5-1.4,0.2-2.1c-1.1-2.5-2.6-4.9-4.5-6.9c-1.6-1.8-3.5-3.3-5.5-4.7c-1.1-0.8-2.2-1.4-3.4-2.2
		c-0.9-0.5-2-0.2-2.6,0.6l0,0c-0.5,0.9-0.2,2.1,0.7,2.6l2.9,1.9l1.4,1l0.6,0.5l0.2,0.1h0l0.2,0.2c0.9,0.7,1.7,1.4,2.5,2.2
		c0.4,0.4,0.8,0.8,1.1,1.3l0.2,0.3l0.1,0.1l0.6,0.8c-0.8-0.2-1.7-0.3-2.6-0.3c-2.2-0.1-4.3,0.4-6,1.9s-0.5,2.9,0.8,3.2
		c1,0.2,2,0.5,2.9,0.9c0.2,0.1,0.3,0.1,0.5,0.2c0,0,0,0,0.1,0l0.3,0.2l1.2,0.6c0.4,0.2,0.8,0.5,1.2,0.8c0,0,0.2,0.1,0.2,0.2
		c0.2,0.2,0.4,0.3,0.6,0.5c0.8,0.7,1.6,1.5,2.3,2.3c0.9,1,1.9,1.9,2.9,2.7c1.3,1.2,2.7,2.3,4,3.5c0.6,0.6,1.3,1.2,1.9,1.9l0.6,0.7
		c0,0,0,0,0-0.1l0.1,0.1h0c0,0,0.1,0.1,0.1,0.2l0.2,0.3c0.5,0.9,1.7,1.2,2.6,0.7C318.9,131.8,319.2,130.6,318.6,129.7
		C318.7,129.7,318.6,129.7,318.6,129.7z"/>
</g>
</svg>
