<?xml version="1.0" encoding="utf-8"?>
<!-- Generator: Adobe Illustrator 27.9.0, SVG Export Plug-In . SVG Version: 6.00 Build 0)  -->
<svg version="1.1" id="Layer_1" xmlns="http://www.w3.org/2000/svg" xmlns:xlink="http://www.w3.org/1999/xlink" x="0px" y="0px"
	 viewBox="0 0 307.9 195.1" style="enable-background:new 0 0 307.9 195.1;" xml:space="preserve">
<g>
	<path style="stroke:#000000;stroke-width:3;stroke-linecap:round;stroke-linejoin:round;stroke-miterlimit:10;" d="M93.8,109.4
		c-3.9-0.9-6.6,2.2-8.9,4.8s-4.6,5.5-6.8,8.4c-1.2,1.6-2.3,3.2-3.4,4.9c-0.4,0.7-0.4,1.5,0,2.2c0.7,1.1,2.1,1.7,3.4,1.4
		c1.1-0.2,1.9-1.7,1.5-2.7c0-0.1,0-0.2-0.1-0.3c0.8-1.2,1.6-2.4,2.5-3.5l1-1.3l0.5-0.7l0.1-0.1l0.1-0.1c0.6-0.8,1.3-1.7,2-2.5
		c1.3-1.6,2.5-3.1,3.9-4.6l1-0.9l0.3-0.2l0.5-0.4c0.1-0.1,0.4-0.2,0.5-0.3c-0.3,0.1-0.3,0.1,0,0l0.3-0.1h0.5
		c1.1,0.3,2.4-0.4,2.7-1.5C95.6,110.9,94.9,109.7,93.8,109.4z"/>
	<path style="stroke:#000000;stroke-width:3;stroke-linecap:round;stroke-linejoin:round;stroke-miterlimit:10;" d="M241.3,109.8
		c-2.1-3.4-6-5.1-9.8-4.3c-0.7,0.2-1.4,0.5-2.2,0.7c0.1-0.1,0.1-0.2,0.2-0.4c0.3-0.4,0.5-0.9,0.6-1.4c0.2-1,0-1.9-0.7-2.6
		c-1.3-1.2-2.9-0.7-4.3-0.3l-0.2,0.1c0.5-2.5,1-5,1.5-7.6c0.3-1.2-0.4-2.4-1.5-2.7c-0.6-0.2-1.2-0.1-1.7,0.2c-1.3,0.7-2,2.1-2.3,3.4
		c-0.1,0.5-0.2,1-0.4,1.5l-0.3,0.8c0,0.2-0.1,0.3-0.2,0.5c-0.3,0.5-0.5,1-0.8,1.5c-0.1,0.3-0.3,0.6-0.5,0.8l0.1-0.2l-0.2,0.2
		l-0.3,0.4l-1.2,1.2l-0.3,0.2l-0.1,0.1l-0.7,0.5c-1,0.7-1.2,2.1-0.5,3.1c0.6,0.8,1.7,1.1,2.7,0.7c0.6-0.4,1.1-0.7,1.6-1.1
		c0.2,1.2,1.3,2,2.5,1.8c0.1,0,0.2,0,0.3,0l2.2-0.7c-0.2,1,0,2,0.5,2.8c0.7,1.1,1.9,1.8,3.2,1.8c0.9,0,1.8-0.3,2.7-0.6l1.1-0.4
		l0.5-0.1h0c0,0,0.1,0,0.1,0h1.1l0.6,0.1l0.6,0.2c0,0,0,0,0.1,0l0.1,0.1c0.4,0.2,0.7,0.4,1.1,0.6h0c0,0,0.1,0.1,0.1,0.1l0.4,0.4
		c0,0.1,0.1,0.1,0.2,0.2l0.4,0.5c0.6,1.1,1.9,1.4,3,0.8C241.6,112.3,241.9,110.9,241.3,109.8C241.4,109.8,241.3,109.8,241.3,109.8z
		 M225.8,103.4l0.1-0.2C225.9,103.2,225.9,103.3,225.8,103.4z"/>
	<path style="stroke:#000000;stroke-width:3;stroke-linecap:round;stroke-linejoin:round;stroke-miterlimit:10;" d="M284.6,138.5
		c-0.1,0-0.2-0.1-0.4-0.1c-2-0.6-4.1-1-6.2-1.2l0.2-0.3c0.6-1.4,0.1-2.7-1.3-3.2l-3.6-1.3l-1.8-0.6l-0.2-0.1l-0.2-0.1H271v-0.2h0
		c0,0,0,0,0-0.1v-0.2c0-0.1,0.1-0.2,0.1-0.3c0.1-0.1,0.2-0.3,0.2-0.4c0,0,0,0,0,0l0.5-0.5l1.3-1.1c1.1-0.8,0.7-2.9-0.4-3.4
		c-2.1-1.1-4.4-1.5-6.8-1.3c0-0.2,0.1-0.4,0.2-0.6l0.1-0.4c0-0.1,0.1-0.1,0.1-0.2c0.1-0.3,0.3-0.6,0.4-0.8l0.3-0.4
		c0,0,0.2-0.2,0.2-0.3l0.6-0.6c1.1-1.1,0.7-3.3-1-3.6l-1.6-0.3c0-0.1,0-0.1,0-0.2c1-6.7,0.1-13.3-1.6-19.8
		c-1.7-6.5-3.9-12.5-5.9-18.7c-2.1-6.2-4.2-12.6-6.2-19c-2.1-6.3-3.9-11.9-6.1-17.6c-1.2-3-2.4-5.9-3.9-8.8c-1.2-2.6-2.7-5-4.4-7.4
		c-3.4-4.5-8.3-8.6-14.4-7.5c-2.9,0.6-5.4,2.5-7.6,4.4s-4.1,4-6.1,6c-3.9,4.2-7.6,8.6-11,13.2c-6.8,9.2-12.3,19.2-16.6,29.8
		c-0.1,0.3-0.2,0.5-0.3,0.8c-3,1.8-6.1,3.6-9.2,5.4l-3.4,1.8c-0.4-0.4-1-0.6-1.6-0.7c-1-0.2-2,0-2.8,0.5c-1.1-0.8-2.3-1.2-3.6-1.1
		c-1.4,0.1-2.7,0.6-3.8,1.4c-0.4-0.5-0.7-1-1.1-1.5c-0.6-0.6-1.4-0.7-2.1-0.6c-0.8,0.2-1.2,0.8-1.5,1.5c0.2-0.5,0,0,0,0.1
		c-0.1,0.1-0.1,0.2-0.2,0.3l-0.4,0.8l-0.5,0.7c0,0.1,0,0.1-0.1,0.1l-0.3,0.3c-0.4,0.4-0.7,0.8-1.2,1.2l-0.3,0.3
		c-2.7-2.7-5.9-4.8-9.4-6.4c-2.2-0.9-4.4-1.6-6.8-2.1c-2.2-0.4-4.5-0.6-6.8-0.7l-0.8-0.1h-0.4c-0.6-0.1-1.1-0.2-1.6-0.4l-0.4-0.1
		H123l-0.7-0.4l-0.3-0.1c-0.2-0.2-0.5-0.4-0.7-0.7c-0.7-0.6-1.6-0.8-2.4-0.4c-0.2,0.1-0.4,0.2-0.6,0.4L98.2,47L86.8,32.9
		c-3.3-4-6.9-8.9-12.3-10c-1.6-0.4-3.2-0.3-4.7,0.2c-1.4,0.5-2.6,1.2-3.7,2.2c-2,1.8-3.4,4.1-4.8,6.3c-2.9,4.8-5,10.1-6.8,15.4
		c-3.7,11-6.5,22.3-8.9,33.7c-2.4,11.3-4.4,23.1-6.3,34.7l-0.7,3.8l-13.7-3.5c-1.5-0.4-3.3,1.1-2.7,2.7c2.1,5.5,4.5,10.8,7.2,16
		c-1.4,1.5-2,3.6-1.8,5.6c-1.1,0.9-1.9,2.1-2.3,3.5c-0.4,1.2-0.6,2.5-0.8,3.7c-0.3,1.3-0.5,2.5-0.7,3.8c-0.9,5.4-1.5,10.8-1.8,16.2
		c-0.1,3-0.2,6-0.2,9c0,1.2,1,2.2,2.2,2.2s2.2-1,2.2-2.2c0-5,0.2-9.9,0.6-14.8l0.4-3.6c0-0.6,0.1-1.1,0.2-1.7v-0.1
		c0-0.1,0-0.3,0-0.4c0-0.1,0.1-0.7,0.2-1.1c0.4-2.4,0.7-4.8,1.2-7.2c0.1-0.7,0.3-1.4,0.4-2.1c0-0.2,0.1-0.4,0.2-0.6
		c0-0.1,0-0.2,0.1-0.2l0.3-0.5c1.2,0.2,2.3-0.7,2.5-1.9c0-0.5,0-0.9-0.3-1.4l-0.1-0.4v-0.1c0,0,0-0.1,0-0.2V139c0,0,0-0.1,0-0.2
		l0.1-0.4c0-0.1,0-0.2,0-0.3c0,0,0,0,0-0.1c0.1-0.2,0.3-0.4,0.4-0.7c0.1-0.1,0.2-0.2,0.3-0.3L33,137l0.1-0.1h0.2c1-0.7,1.4-2,0.8-3
		c-1.5-2.7-2.9-5.5-4.2-8.3l-0.9-2.1l-0.5-1.1c0-0.1-0.1-0.2-0.1-0.4c0-0.1-0.1-0.3-0.2-0.4l-0.2-0.6l17.4,4.5
		c0.9,0.2,1.8-0.1,2.3-0.8c0.5-0.7,0.6-1.7,0.2-2.4l-0.1-0.2V122v0l0.1-0.2l0.1-0.2l0.1-0.1h0.4c1.1,0.1,2.3-1.1,2.2-2.2
		c0-0.1,0-0.2,0-0.3l3.6,1.9c1,0.5,2.4,0.3,3-0.8c0.6-1,0.3-2.3-0.7-2.9l0,0l-7.9-4.6c-0.9-0.5-2-0.4-2.7,0.4
		c-0.7,0.7-0.8,1.8-0.4,2.6c-0.2-0.4,0.1,0.2,0.1,0.3l0.1,0.4c0.1,0.4,0.2,0.7,0.3,1.1c0,0,0,0,0,0c-1.2,0.7-2.1,1.8-2.5,3.1
		l-0.7-0.2c1.8-11.2,3.7-22.5,5.9-33.6S53.7,64,57.1,53c0.8-2.6,1.6-5.2,2.5-7.8c0.5-1.2,0.9-2.5,1.4-3.7c0,0,0.1-0.3,0.1-0.4
		c0,0,0.1-0.1,0.1-0.2l0.4-0.9l0.9-1.9c1.1-2.4,2.5-4.7,4-6.9l0.4-0.7c0.1-0.1,0.1-0.2,0.2-0.3l0.1-0.1c0.4-0.5,0.8-1,1.3-1.4
		c0.2-0.2,0.4-0.4,0.6-0.6c0.1,0,0.2-0.2,0.3-0.2l0.1-0.1l0.7-0.4l0.4-0.2h0.1l0.8-0.2l0.4-0.1h1.3l0.7,0.1l0.8,0.3l0.3,0.1l0.3,0.1
		l1.6,1l0.4,0.3l0.2,0.1l0.6,0.5l1.4,1.3c0.9,0.9,1.7,1.8,2.5,2.8c3.7,4.5,7.4,9.1,11.1,13.7l22.6,27.7c0.1,0.2,0.2,0.4,0.4,0.5
		h-0.1l-0.5-0.2l-1.8-0.9c-1.1-0.6-3-0.2-3.2,1.3l-0.2,1.7l-2-0.7l-0.5-0.2h-0.2l-1.1-0.5l-2.1-1c-2.8-1.4-5.4-3-7.9-4.9
		c-0.7-0.6-2.1-0.3-2.7,0.4C92.7,71,92.6,72.1,93,73c1.4,2.3,2.6,4.7,3.8,7.2l0.4,0.9c0.1,0.1,0.1,0.3,0.2,0.4l0.1,0.3
		c0.3,0.6,0.5,1.1,0.7,1.7c0,0.2,0.1,0.4,0.2,0.6c0,0-0.1,0-0.1,0c-1.1-0.2-2.5,0.3-2.7,1.5c0,0.5-0.1,0.9-0.1,1.3l-1-0.4
		c-0.7-0.2-1.5,0-2.1,0.6c-0.6,0.6-0.8,1.4-0.6,2.2c0,0,0,0.1,0,0.2v0.9c0,0.1,0,0.2,0,0.3c0,0.2-0.2,0.7-0.2,0.9
		c0,0.2-0.1,0.4-0.2,0.6c0,0,0,0,0,0c-0.1,0.3-0.3,0.6-0.5,0.9l-0.1,0.2c-0.1,0.1-0.2,0.3-0.3,0.3s-0.5,0.7-0.7,0.7l0.1-0.1
		l-0.2,0.1l-0.5,0.3c-1.1,0.6-1.4,2-0.8,3c0.7,1,2,1.4,3,0.8c2.5-1.4,4.1-3.9,4.6-6.6l1.8,0.6c0.8,0.2,1.8,0,2.3-0.7
		c0.5-0.7,0.6-1.7,0.2-2.5V89c0-0.1-0.1-0.2-0.1-0.3l1,0.2c1.2,0.4,2.4-0.3,2.7-1.5c0.1-0.4,0.1-0.8,0-1.2c-0.9-2.8-2-5.5-3.2-8.1
		c3.3,1.8,6.8,3.2,10.4,4.3c1.1,0.3,2.5-0.4,2.7-1.5c0.2-1.1,0.1-0.9,0.2-1.4c1.7,0.7,3.5,1.3,5.3,1.8c1.2,0.3,2.4-0.4,2.7-1.5
		c0-0.2,0.1-0.4,0.1-0.6c0-0.5,0-1.1,0-1.7c2.8,0.9,6.1,0.7,8.8,1.1h0.4l0.9,0.2l1.6,0.4c1.1,0.3,2.2,0.6,3.2,1l0.6,0.3h0l0.4,0.2
		l1.6,0.7c1,0.5,1.9,1.1,2.9,1.7l0.7,0.5l0.4,0.3l0.3,0.2l0.2,0.2l0.4,0.3l0.7,0.6c1,0.8,1.8,1.8,2.7,2.7c0.8,0.9,2.2,0.9,3.1,0
		c0.3-0.3,0.4-0.7,0.5-1c1-0.7,1.9-1.6,2.7-2.5c0.6,1.1,1.9,1.5,3,1c0.2-0.1,0.4-0.2,0.6-0.4l0.9-0.9l0.5-0.5l0.2-0.2l0.9-0.6
		l0.2-0.1l0.5-0.1h0.2l0.3,0.1h0.1l0.2,0.1h0c0,0,0,0.1,0,0.2c0.4,1.6,2.6,2.2,3.7,1l0.5-0.6c0.1,0.2,0.3,0.4,0.5,0.6
		c0.7,0.6,1.7,0.6,2.5,0.2c4-2.1,8-4.3,11.9-6.6c0.2,0.1,0.4,0.3,0.7,0.4c1.2,0.3,2.4-0.4,2.7-1.5l0.4-1.2l2.5-1.6l0.8-0.6
		c-0.2,0.9-0.4,1.8-0.6,2.7c-0.7,2.5-1.4,5-2.4,7.5c-0.4,1.1,0.4,2.5,1.5,2.7l0.9,0.2c0.1,0.8,0.5,1.5,1.1,2.1
		c0.7,0.7,1.7,1.1,2.7,1c0.3,0,0.6,0,0.9-0.1l0.3-0.1h0c0.1,0.1,0.3,0.2,0.4,0.4l0.4,0.4l0.1,0.1c0.5,0.8,1.2,1.5,2,2
		c0.7,0.4,1.4,0.7,2.2,0.8c0.1,0.3,0.2,0.7,0.3,1c0.4,1.1,1.5,1.9,2.7,1.5s1.9-1.5,1.5-2.7c-0.4-1-0.7-2.1-0.9-3.2
		c-0.3-0.8-1-1.4-1.8-1.6c-0.6-0.1-1.1,0.1-1.6,0.4l-0.2-0.1l-0.3-0.3c0,0,0,0,0,0l-0.3-0.4c-0.3-0.3-0.5-0.7-0.8-1
		c-0.4-0.6-1-1.1-1.6-1.4c-0.8-0.4-1.8-0.6-2.8-0.4h0c0-0.1,0-0.3,0-0.4c0.1-0.7-0.1-1.5-0.6-2c-0.3-0.2-0.5-0.4-0.8-0.5
		c1.4-4.3,2.4-8.7,3-13.2c0.2-1.6-2-2.8-3.3-1.9l-2.2,1.5c1-2.1,2-4.2,3.1-6.3c2.5-4.9,5.4-9.6,8.4-14.1l2.4-3.3l1.2-1.6
		c0.2-0.2,0.4-0.5,0.6-0.7c0.1-0.1,0.2-0.2,0.2-0.3c0.1-0.1,0.3-0.3,0.4-0.4c1.7-2.2,3.4-4.2,5.2-6.2c1.8-2,3.7-4.1,5.6-6l3-2.9
		l1.4-1.2l0.8-0.7h0l0.6-0.4c0.6-0.4,1.1-0.7,1.7-1h0.1l0.4-0.1c0.3-0.1,0.7-0.2,1-0.3l0.4-0.1h1.8l0.5,0.1c0.3,0,0.6,0.1,0.9,0.3
		h0.1l0.2,0.1c0.6,0.3,1.2,0.6,1.7,1c0.2,0.1,0.4,0.3,0.7,0.5c-0.4-0.4,0.3,0.2,0.4,0.3c0.1,0.1,1,0.9,1.5,1.4l1.2,1.4l0.2,0.2
		l0.2,0.2l0.6,0.8c0.7,1.1,1.4,2.3,2.1,3.5c1.4,2.6,2.8,5.4,4,8.1v0.1h0c0,0,0,0,0,0c0,0,0.1,0.2,0,0s0.1,0.3,0.2,0.4l0.4,0.9
		c0.3,0.7,0.6,1.5,0.9,2.2c0.5,1.4,1.1,2.8,1.5,4.2c1,2.9,1.9,5.7,2.9,8.5c2.1,6.1,4.1,12.3,6.1,18.4c2,6.1,4.1,12.2,6,18.4
		c1,3,1.8,6.1,2.4,9.2c0.1,0.7,0.2,1.4,0.4,2.1s0,0.4,0.1,0.7v0.1c0,0,0,0.1,0,0.1l0.1,1.2c0.1,1.5,0.2,3.1,0.2,4.6v0.2
		c-4,0.5-7.9,2-11.3,4.2c-1,0.6-1.4,2-0.8,3c0.7,1,2,1.5,3,0.8c0.8-0.5,1.6-1,2.5-1.4l1.2-0.6l0.5-0.2l0.6-0.3
		c0.9-0.3,1.8-0.6,2.8-0.8h0.2c-0.1,0.4-0.2,0.7-0.3,1.1l-0.1,0.4l-0.3,0.5c-0.6,1.1-0.2,2.5,0.9,3c0.5,0.3,1.1,0.4,1.6,0.2l0.4-0.1
		c-0.8,1.8-1.1,3.7-1,5.6c0,0.7,0.3,1.3,0.8,1.7c0.5,0.4,1.3,0.6,1.9,0.4c0.6-0.2,1.2-0.4,1.8-0.5h1.5l-0.3,0.5
		c-0.7,1.5-0.7,3.3,0,4.8c0.8,1.6,2.5,2.2,4.1,2.7l1.5,0.6h-0.1c-0.1,0.1-0.3,0.2-0.5,0.3c-1.8,1.1-1.1,4.2,1.1,4.1
		c1.7,0,3.4,0.1,5.1,0.3h0.2l0.6,0.1l0.7,0.1c-0.6,0.7-1.2,1.4-1.8,2.1c-0.8,0.9-0.8,2.3,0.1,3.2c0.3,0.2,0.6,0.4,0.9,0.5
		c0.4,0,0.7,0.1,1,0.3H280l0.3,0.1l0.4,0.2h0c0,0,0,0,0.1,0.1h0c0,0.1,0,0.3-0.1,0.4c0,0.2-0.1,0.4-0.2,0.6l-0.4,1.2
		c-0.2,1.1-0.3,2.2-0.2,3.2c0.1,4.1,0.2,8.3,0.4,12.4c0,1.2,1,2.2,2.2,2.2s2.2-1,2.2-2.2c-0.1-4.4-0.4-8.9-0.4-13.4
		c0-0.2,0-0.4,0-0.7V152c0,0,0-0.1,0-0.2c0.1-0.5,0.3-1,0.4-1.4c0.4-1.1,0.5-2.3,0.1-3.4c-0.4-0.9-0.9-1.7-1.7-2.2
		c0.8-1,1.6-2.1,2.3-3.2C286.1,140.5,285.7,139.1,284.6,138.5z M47.7,121.6C47.8,121.3,47.8,121.5,47.7,121.6L47.7,121.6z
		 M47.7,121.7L47.7,121.7C47.6,121.7,47.6,121.7,47.7,121.7C47.6,121.6,47.7,121.6,47.7,121.7z M280.8,148.4
		C280.9,148.4,280.8,148.4,280.8,148.4L280.8,148.4z M280.8,148.6C280.8,148.6,280.9,148.6,280.8,148.6
		C280.9,148.6,280.9,148.6,280.8,148.6z"/>
</g>
</svg>
