<?xml version="1.0" encoding="utf-8"?>
<!-- Generator: Adobe Illustrator 27.9.0, SVG Export Plug-In . SVG Version: 6.00 Build 0)  -->
<svg version="1.1" id="Layer_1" xmlns="http://www.w3.org/2000/svg" xmlns:xlink="http://www.w3.org/1999/xlink" x="0px" y="0px"
	 viewBox="0 0 282.3 265.1" style="enable-background:new 0 0 282.3 265.1;" xml:space="preserve">
<g>
	<path style="stroke:#000000;stroke-width:3;stroke-linecap:round;stroke-linejoin:round;stroke-miterlimit:10;" d="M61,133.1
		c0-0.1,0-0.3,0.1-0.3c0-0.2,0-0.4,0.1-0.6c0.1-0.7,0.3-1.4,0.5-2.1s0.4-1.4,0.7-2.2c0.3-0.7,0.3-0.7,0.4-1l0.2-0.5
		c0-0.1,0-0.1,0.1-0.2c0,0,0,0,0-0.1c0.6-1.4,1.3-2.7,2-4c2.8-5.1,6.5-9.7,9.5-14.7c1.8-2.9,3.3-6,4.4-9.2c0.3-0.9-0.2-1.9-1.2-2.2
		c0,0-0.1,0-0.1,0c-1-0.3-2,0.3-2.2,1.3c-0.2,0.7-0.5,1.4-0.8,2c0,0.1,0,0.1-0.1,0.2c0,0.1,0,0.1-0.1,0.2h0c0,0.1,0,0.1-0.1,0.2
		c0,0.1-0.3,0.7-0.5,1.1c-0.6,1.3-1.3,2.6-2,3.8c-1.5,2.5-3.1,4.9-4.8,7.4c-3.4,5-6.8,10.2-8.6,16.1c-1.1,3.3-1.4,6.7-1,10.1
		c0.1,1,0.8,1.9,1.8,1.8c1.1,0,1.9-0.8,1.8-1.8c-0.2-1.4-0.2-2.9-0.1-4.4L61,133.1z"/>
	<path style="stroke:#000000;stroke-width:3;stroke-linecap:round;stroke-linejoin:round;stroke-miterlimit:10;" d="M259.7,165.8
		c-1.4-4.9-3.7-9.5-6.4-13.9c-2.7-4.4-5.4-8.1-7.1-12.7c-1.4-4-1.8-8.2-2.6-12.3c-0.4-2.2-1.1-4.4-2-6.4c2.9,1.7,5.1,4.4,6.4,7.5
		c0.2,0.7,0.4,1.4,0.6,2.1c0.7,2.3,4.1,1.3,3.5-1c-0.2-0.8-0.5-1.7-0.8-2.5c-2.9-9.1-6.3-18.4-13.6-24.8c-1.8-1.6-3.8-3-6-4
		c-2.2-1.1-4.5-1.7-6.8-2.5c-2.3-0.7-4.3-1.4-6.1-2.8c-1.8-1.4-3.1-3.6-4.5-5.5c-1.4-1.9-3.8-4.5-6.6-5.5l-0.8-0.3
		c0.7-1.1,1.1-2.3,1.4-3.6c0.3-1.6,0.3-3.3-0.6-4.6c-0.4-0.7-1.1-1.2-1.8-1.5c0.4-1.9,0.3-3.9-0.3-5.7c-0.4-1.4-1.2-2.6-2.1-3.7
		c-0.4-0.5-0.9-0.9-1.4-1.3c-0.4-0.3-1-0.7-1-1.2c0-0.5,0.2-1.1,0.4-1.5s0.5-1.4,0.7-2.2c0.3-1.5,0.3-3,0.1-4.5
		c-0.5-2.9-2.1-5.5-4.5-7.2c-1.9-1.4-4.2-2-6.6-2c0.1-1.9-0.4-3.8-1.4-5.4c-1.6-2.7-4.4-4.4-7.5-5c-1.6-0.3-3.2-0.4-4.8-0.4l-2,0.2
		c-0.7,0.1-1.2,0.2-1.6-0.3c-1-1-1.6-2.1-2.8-3c-1.2-1-2.5-1.7-3.9-2.3c-2.5-1-5.1-1.1-7.7-0.6c-1.2-2.7-4.1-4.4-7.1-4.4
		s-5.2,1.5-7,3.5c-1.6-2.4-4-4.1-7.2-3.8c-3.1,0.3-6.4,2.1-7.8,5c-0.8-0.6-1.7-1.1-2.6-1.5c-4-1.5-8.4,0.6-9.8,4.6
		c-0.1,0.4-0.3,0.8-0.4,1.3c-2.4-1.2-5-1.8-7.5-0.6c-1.6,0.8-2.8,2.1-3.4,3.7c-1.1-0.4-2.2-0.5-3.3-0.5c-2,0.2-4,1.1-5.5,2.5
		c-1.8,1.5-3.4,4.4-3.1,6.8c-1.6,0.3-3.3,0.1-4.9,0.3c-1.8,0.3-3.4,1.2-4.5,2.7c-1.6,2.3-3,6.3-1.4,8.9c0.5,0.7,1.2,1.1,1.9,1.5
		l0.2,0.1l-0.3,0.3c-1.3,1.3-2.9,2.1-3.8,3.8c-1,1.7-1.3,3.7-0.9,5.7c0.1,0.8,0.5,1.6,0.9,2.3c0.5,0.8,1.3,1.5,1.9,2.3l0.3,0.4
		c0.1,0.1,0,0.1,0,0.2L84,71.1l-0.5,0.3l-1.1,0.4c-1.7,0.6-3.3,1.4-3.9,3.3c-0.3,0.8,0.2,1.6,0.8,2.1l0.6,0.4
		c-9.4,5.3-17.9,12-25.2,19.9c-4.1,4.4-7.9,9.1-10.8,14.3c-1.4,2.6-2.5,5.4-3.3,8.2c-0.8,3.1-1.1,6.3-2.2,9.4
		c-2.1,5.7-6.8,10.3-8.1,16.4c-0.4,2,2.2,3.2,3.4,1.4c1.1-1.8,2.3-3.4,3.7-5c-2.5,4.2-4.9,8.4-7.3,12.6c-3.8,6.8-7.5,14-8.9,21.8
		c-0.8,4.4-0.7,8.8,0.3,13.1c0.5,2,3.6,1.5,3.6-0.5c0-3,0.6-6,1.6-8.9c0,0.9,0,1.8,0.1,2.7c0.4,3.1,1.3,6.2,2.7,9
		c2.8,5.5,6.9,10.2,9.8,15.6c1.5,2.9,2.7,5.9,2.9,9.2c0.1,2.3,3.6,2.4,3.7,0c0.3-7.2,0.3-14.4-0.1-21.7c-0.2-5.4-0.7-10.9,0.7-16.2
		l0.1-0.3c0.3,5.4,1.9,10.7,3.5,15.8l2.2,7c0.3,0.9,1.1,1.4,2,1.3c0.8-0.1,1.6-0.9,1.6-1.8c-0.1-0.9,0-1.1,0-1.6
		c0-0.5,0-0.5,0.1-0.7v-0.2l0.1-0.5c0.2-1.1,0.5-2.1,0.8-3.1c0.1-0.2,0.2-0.4,0.3-0.7c0,0,0,0,0-0.1l0.2-0.4l0.7-1.5
		c0.5-1,1.1-2,1.7-3c1.2-2,2.5-4,3.7-6c1.3-2.2,2.5-4.5,3.5-6.8v1.1c0,0.9-0.1,1.8-0.2,2.7c0,0.2,0,0.4-0.1,0.6c0,0.1,0,0.2,0,0.3
		c0,0.1-0.1,1-0.3,1.4c-0.3,1.8-0.7,3.5-1.2,5.2c-1,3.5-2.2,6.9-3.4,10.3c-2.2,6.8-4,14.3-2.2,21.5c0.2,0.8,0.5,1.6,0.8,2.5
		c0.2,0.8,0.9,1.4,1.8,1.4c0.8,0,1.5-0.5,1.8-1.4c0.3-0.9,0.6-1.8,1-2.7c0.1-0.2,0.2-0.4,0.3-0.6c0-0.1,0.1-0.3,0.2-0.4
		c0.2-0.4,0.4-0.9,0.6-1.4c0.8-1.7,1.7-3.4,2.7-4.9c0.5-0.8,1.1-1.6,1.6-2.4c0.1-0.1,0.3-0.3,0.4-0.5h0l0.2-0.3
		c0.3-0.4,0.7-0.8,1-1.2c1.2-1.4,2.5-2.8,3.9-4.1c-1.1,4.5-1.3,9.3-0.4,13.8c0.9,5.3,3.2,10.4,6.6,14.6c0.5,0.5,1.3,0.7,2,0.4
		c0.7-0.3,1.1-0.9,1.1-1.6c0-4.9,0-9.8,1.1-14.6c1.1-4.8,3-8.1,5.3-11.8c2.3-3.7,4.9-7.4,7-11.2c2.2-4.1,3.9-8.4,5-12.9
		c2.2-9.3,1.6-18.8-1.1-27.9c-2.7-9.1-7.1-17.4-9.7-26.4c-2.5-8.2-3.6-17.2-0.4-25.3c0.4-0.9,0.8-1.8,1.2-2.7c0.5-0.9,0.3-2-0.6-2.5
		c-0.9-0.5-2-0.3-2.5,0.6l0,0c-4.4,8.1-4.3,17.6-2.3,26.4c2,8.8,6.3,17.6,9.4,26.4c1.5,4.3,2.9,8.9,3.4,13.4s0.5,9-0.3,13.5
		c-0.7,4.5-2,8.8-4,12.9c-1.9,4-4.4,7.7-6.8,11.4c-2.4,3.7-4.8,7.8-6.3,12c-1.5,4.3-1.8,8.1-2,12.3c-1.1-2.3-1.9-4.7-2.5-7.1
		c-0.9-4.3-0.8-8.8,0.3-13.1c1.3-4.9,4-9,6.5-13.4s4.6-9.4,5.4-14.6c1-5.9,0.5-12-1.1-17.8c-0.3-1-1.3-1.5-2.3-1.3
		c-1,0.3-1.5,1.3-1.3,2.3c1.5,4.9,1.9,10.1,1.2,15.1c-0.6,5-2.5,9.8-5,14.2c-1.5,2.6-3.1,5.2-4.4,7.9c-6.5,4.5-11.8,10.6-15.4,17.7
		c-0.1,0.3-0.3,0.5-0.4,0.8c-0.1-1.4-0.1-2.8,0-4.2l0.1-1.2c0-0.2,0.1-0.4,0.1-0.6c0,0,0-0.1,0-0.1c0,0,0-0.3,0-0.3
		c0.1-0.8,0.3-1.7,0.5-2.6c0.4-1.7,0.8-3.4,1.3-5.1c2-6.9,4.9-13.6,5.8-20.8c0.4-3.8,0-7.5-0.5-11.2c-0.3-1.8-0.6-3.7-1-5.5
		c-0.1-0.4-0.1-0.9-0.2-1.3l-0.1-0.7c0-0.1,0-0.2,0-0.3c0-0.1,0-0.1,0-0.2l-0.2-2.3c-0.3-3.1-0.3-6.2,0-9.3l0.1-1.1
		c0-0.2,0-0.3,0-0.5c0-0.1,0-0.2,0-0.3c0,0,0-0.2,0-0.3c0-0.1,0-0.2,0.1-0.3c0-0.2,0-0.4,0.1-0.5c0.1-0.4,0.1-0.8,0.2-1.2
		c0.3-1.5,0.6-3,1-4.5c0.4-1.5,0.9-3,1.4-4.4l0.4-1l0.1-0.4c0,0,0.1-0.1,0.1-0.1c0-0.1,0.1-0.3,0.2-0.4c0.3-0.7,0.6-1.4,0.9-2
		c0.7-1.4,1.5-2.7,2.3-4.1c0.4-0.7,0.8-1.3,1.3-1.9l0.7-0.9l0.3-0.3c0,0,0,0,0,0l0.2-0.3l1.5-1.8c0.6-0.7,0.8-1.9,0-2.6
		c-0.7-0.7-1.9-0.7-2.6,0c-4.2,4.8-7.5,10.5-9.5,16.6c-2,6.1-3,12.5-2.7,18.9c0.1,3.5,0.7,7,1.2,10.5v0.1c-0.3,0.3-0.4,0.7-0.3,1
		c0,0.6,0,1.2,0,1.8v0.1c0,0,0,0.1,0,0.1c0,0.1,0,0.2-0.1,0.3c0,0.1-0.1,0.7-0.3,1.1c-0.1,0.4-0.3,1.1-0.5,1.6
		c-0.1,0.3-0.2,0.6-0.4,0.9v0.1c-0.1,0.2-0.2,0.4-0.3,0.6c-1.1,2.3-2.2,4.6-3.5,6.8c-2.4,4.1-5.2,7.9-6.9,12.3
		c-0.5-1.5-1-3.1-1.4-4.6c-0.4-1.5-1-3.8-1.4-5.8c-0.1-0.5-0.2-1-0.3-1.4c-0.1-0.5,0-0.2,0-0.3s0-0.1,0-0.2v-0.1
		c0-0.2,0-0.3-0.1-0.5c-0.1-1-0.2-2-0.2-3c0-1.1,0-2.1,0.1-3.2c0-0.1,0-0.1,0-0.2c0,0,0-0.3,0-0.3s0.1-0.5,0.1-0.8l0.2-1
		c0.8-0.9,0.4-2-0.4-2.6c-0.2-0.2-0.4-0.3-0.7-0.3c-0.8-0.2-1.7,0.2-2.1,1c-3.9,3.9-5.2,9.4-5.6,14.7c-0.1,2.8-0.1,5.6,0.1,8.4
		c0.1,3.7,0.3,7.4,0.3,11.1v1.7c-1.1-1.9-2.3-3.8-3.5-5.7c-3.3-4.8-7.1-9.7-8.3-15.6c-0.9-4.4,0.3-8.9,1.4-13.1
		c0.4-1.7-1.8-3.2-3.1-1.8c-1.5,1.7-2.7,3.5-3.8,5.5c0.7-2.6,1.5-5.1,2.6-7.6c3-7.2,7.2-13.9,11.1-20.6c2.3-4,4.7-8,7.2-12
		c0.9-1.5-1-3.4-2.5-2.5c-1.4,0.8-2.6,1.8-3.9,2.7c0.4-0.8,0.8-1.5,1.2-2.3c1.3-2.8,1.9-5.6,2.5-8.6c0.5-2.9,1.4-5.7,2.6-8.4
		c2.5-5.2,6-9.8,9.8-14c3.8-4.2,7.9-8.1,12.3-11.6c5-4,10.4-7.5,16.1-10.5c1.3-0.7,1-2.4,0-3.1l-1.2-0.8l1.2-0.4
		c1.5-0.5,2.9-1.4,3.4-3c0.5-1.6-0.8-3.8-2.1-5.3c-0.9-1-1.2-2.3-0.9-3.6c0.4-1.7,1.6-2.4,2.9-3.4c1.2-1,2.8-2.9,2.1-4.8
		c-0.3-1-1.1-1.6-2-2.1l-0.6-0.3L87,52.1c0-0.5,0-1,0.1-1.5c0.1-0.7,0.3-1.3,0.6-1.9c0.3-0.6,0.6-1.2,1-1.7l0.3-0.3l0.4-0.2
		c0.4-0.2,1-0.3,1.4-0.4c1.1-0.1,2.3,0,3.5-0.1c1.4-0.1,2.7-0.4,3.9-1.1c0.9-0.5,1.1-1.6,0.6-2.5c-0.1-0.1-0.1-0.3-0.3-0.3l-0.1-0.1
		V42c0-0.1,0-0.3-0.1-0.3c0-0.1,0-0.3,0-0.4c0,0.1,0.1-0.5,0.1-0.6c0-0.1,0.1-0.2,0.1-0.3l0.1-0.3l0.4-0.8c0.1-0.2,0.3-0.4,0.4-0.5
		c0.3-0.3,0.5-0.5,0.8-0.7c0.4-0.4,1-0.7,1.5-1l1.4-0.4c1.4-0.1,2.9,0.4,4,1.3c0.7,0.6,1.6,0.7,2.4,0.1c0.7-0.6,0.9-1.6,0.5-2.4
		c-0.3-0.5-0.3-1,0.1-1.5c0.4-0.7,1.1-1.1,1.9-1.4c2.3-0.6,4.8,1.3,6.6,2.5c1.2,0.8,3.3-0.5,2.7-2c-0.1-0.3-0.3-0.7-0.3-1.1
		c0,0,0-0.1,0-0.1v-0.1c0-0.1,0-0.3,0-0.4v-0.3c0-0.1,0-0.3,0-0.3c0-0.2,0.1-0.3,0.1-0.5l0.1-0.3c0.5-1.1,1-1.6,2.1-2.1h0.1l0.5-0.1
		l0.5-0.1h0.2c0.6,0,1.2,0,1.8,0.3c1.5,0.5,2.9,2,3.8,3.4c1.3,2,4.2,0.3,3.1-1.9v-0.1c0,0,0-0.1,0-0.1l-0.1-0.3V29
		c0-0.1,0-0.2,0-0.3c0-0.1,0.2-0.7,0.1-0.6l0.4-0.7l0.1-0.2l0.4-0.4l0.7-0.7l0.2-0.1l0.5-0.3l0.4-0.2l0.3-0.1
		c0.4-0.1,0.7-0.3,1.1-0.3l0.4-0.1h0.4c0.2,0,0.4,0,0.6,0h0.3l1,0.3h0.1l0.3,0.1l0.4,0.3l0.1,0.1l0.2,0.1c0.1,0.1,0.3,0.3,0.4,0.4
		c0.3,0.3,0.5,0.5,0.7,0.9c0.3,0.4,0.5,0.9,0.7,1.4c-0.4,1.8,2.3,3.2,3.4,1.3c1-1.9,3.2-4.4,5.6-4.6c1.1-0.1,2.2,0.1,3,0.8
		c0.8,0.5,1.2,1.2,1.4,2.1c0.1,1.1,1.1,2.2,2.3,1.8c4.3-1.5,9.1-0.1,11.9,3.6c1.1,1.4,2.3,2.2,4.1,2.2c1.8,0,2.7-0.3,4.1-0.3
		c2.4,0,5,0.6,6.8,2.3c0.8,0.8,1.5,1.9,1.8,3c0.3,1,0.3,2.1-0.1,3.1c-0.7,1.4,0.4,3.2,2.1,2.7c4.3-1.3,8.9,1.5,9.5,6.1
		c0.1,1.1,0,2.2-0.3,3.2c-0.4,1.4-1.1,2.6-1.1,4.1c0.1,1.5,0.9,2.7,2.1,3.7c2.7,2.1,3.7,5.7,2.4,8.9c-0.5,0.9-0.2,2,0.7,2.5
		c0.4,0.2,0.9,0.3,1.4,0.2c0.1,0,0.5,0,0.4-0.1h0.2l0.1,0.1v0.1c0.1,0.2,0.1,0.3,0.1,0.5c0,0.1,0,0.3,0,0.4c0,0.1,0,0.7,0,0.6
		c0,0.3-0.1,0.5-0.1,0.8c-0.1,0.3-0.2,0.6-0.3,0.9v0.1c0,0,0,0,0,0.1c-0.1,0.1-0.1,0.3-0.2,0.4l-0.5,0.9l-0.1,0.2l-0.2,0.2l-0.7,0.5
		c0.1-0.1-0.3,0.3-0.5,0.3l-0.2,0.1l-0.4,0.1c-0.4,0.1-0.9,0.3-1.2,0.6c-0.8,0.7-0.6,1.9,0,2.6s1.7,0.6,2.5,0.5
		c0.8,0,1.8-0.4,2.6-0.4c2,0,3.9,1.6,5.1,3.2c1.2,1.6,2.7,4,4.3,5.8c1.6,1.8,3.9,3.1,6.2,4c2.3,0.9,4.5,1.5,6.7,2.2
		c2.1,0.7,4.1,1.8,5.9,3.1c3.6,2.6,6.4,6.3,8.5,10.2c0.8,1.5,1.6,3,2.2,4.6c-2.3-1.6-4.9-2.6-7.7-3c-0.9-0.1-1.8,0.1-2.2,1.1
		c-0.3,0.8,0,1.8,0.8,2.3c1.3,1,2.3,2.3,3,3.8c0.7,1.6,1.3,3.4,1.6,5.2c0.8,4,1.2,8,2.4,11.9c1.5,4.6,4.1,8.7,6.6,12.7
		s5,8.3,6.6,12.9c0.1,0.3,0.2,0.7,0.3,1c-1-1.6-2-3.1-3.1-4.6c-4.4-6-9.3-11.7-12.7-18.3c-1.7-3.4-3-7.2-3.1-11c0-1-0.8-1.8-1.8-1.8
		c-1,0-1.8,0.8-1.8,1.8c0.4,7.5,4,14.2,8.2,20.2l0.8,1.2c-0.1,0.3-0.2,0.5-0.2,0.8c-0.5,8.2,2.5,16.1,5.7,23.6
		c1.5,3.7,3.1,7.2,4.3,11c0.6,1.9,1.1,3.7,1.5,5.6c0.1,0.5,0.2,0.9,0.3,1.4l0.1,0.7c0,0.1,0,0.2,0.1,0.3c0,0.1,0,0.2,0,0.3
		c0,0,0,0.3,0,0.3c0,0.1,0,0.2,0,0.3c0,0.2,0,0.5,0.1,0.7l0.1,1.4c0,0.8,0,1.5,0,2.3c-0.8-4.2-1.9-8.4-4.1-12.1
		c-3.6-6.1-9.7-9.9-15.2-14l-0.6-0.4l-0.3-0.2l-1-0.9c-0.7-0.6-1.4-1.2-2.1-1.8c-0.7-0.7-1.3-1.3-1.9-2l-0.4-0.5l-0.1-0.2h0
		l-0.9-1.2c-0.5-0.8-1.4-1.1-2.3-0.7c-0.9,0.4-1.2,1.2-1.1,2.2c0.9,5,1.8,10,3.4,14.9c0.8,2.5,1.9,4.9,3.1,7.1c1.1,2,2.5,4,3.8,5.9
		c1.3,1.9,2.7,3.8,3.9,5.9c0.6,1,1.2,2,1.6,3.1l0.3,0.7l0.1,0.3c0,0.1,0.1,0.2,0.1,0.3c0.3,0.6,0.4,1.2,0.7,1.8
		c0.4,1.2,0.7,2.4,0.8,3.7c0,0.1,0.1,0.3,0.1,0.5l0.1,1c0.1,0.7,0.1,1.3,0.1,1.9c0,1.2,0,2.5-0.1,3.8c0,0.6-0.1,1.2-0.2,1.8
		c0,0.1,0,0.2,0,0.2c0,0,0-0.1,0-0.1c0,0,0,0.3,0,0.4c0,0.1-0.1,0.8-0.2,1.1c-0.6,3.2-1.4,6.3-2.5,9.4c-1.3-6.4-3.7-12.5-7-18
		c-1.4-2.2-2.9-4.4-4.6-6.4c-0.5-0.5-1.3-0.7-2-0.4c-0.7,0.3-1.1,1-1.1,1.7c0,1.1-0.1,2.1-0.2,3.1c0,0.3-0.1,0.5-0.1,0.8
		c0,0.1,0,0.2-0.1,0.3c0,0.1-0.1,1.1-0.3,1.6c-0.4,2-1,4.1-1.8,6c-0.1,0.2-0.1,0.4-0.3,0.7l-0.1,0.3c-0.2,0.5-0.5,1-0.7,1.5
		c-0.3,0.5-1,1.8-1.5,2.7c-0.5,0.9-0.8,1.3-1.3,1.9c0.3-1.9,0.4-3.8,0.6-5.6c0.6-7.6,0.3-15.1-0.9-22.6c-0.7-4.2-1.6-8.3-2.9-12.3
		c-0.3-1-1.3-1.5-2.2-1.3c-1.1,0.3-1.5,1.3-1.3,2.2c2.3,14.9-0.5,30.1-7.9,43.2c-1,1.7-2,3.6-3.3,5c0,0,0,0,0,0
		c1.7-4,3.2-8,4.1-12.3c0.7-3,0.9-6.2,0.7-9.3c-0.2-3-0.9-6-1.3-9c-0.4-3-0.6-6,0.7-8.7c0.4-0.8,0.3-1.8-0.5-2.4
		c-0.7-0.5-1.8-0.5-2.4,0.1c-4.3,4.5-8.4,9.3-12.3,14.1c2.2-7.7,6.1-15,8.4-22.6c1.7-5.3,2.5-10.8,2.1-16.4
		c-0.4-5.6-1.9-11.9-2.4-17.9c-0.4-6,0.1-11.5,3.4-16.3c0.5-0.8,0.1-2-0.7-2.5c-0.8-0.4-1.9-0.1-2.5,0.6c-5.6,7.2-10.4,15-14.4,23.2
		c1-5.4,2.7-10.7,4.4-15.9c2.9-8.9,5.9-17.8,6.5-27.1c0.4-5.2-0.3-10.4-1.8-15.3c-0.3-1-1.3-1.5-2.2-1.3c-0.9,0.3-1.6,1.3-1.3,2.3
		c2.9,8.6,1.8,17.7-0.4,26.3s-5.8,17.5-8,26.4c-1.2,5.1-2,10.3-1.9,15.5c0,0.9,0.7,1.7,1.6,1.8c1,0.1,1.6-0.4,2-1.3
		c3.1-7.9,7-15.5,11.6-22.6c-0.5,7,1.2,14.3,2.1,21.1c0.4,3,0.5,6.1,0.3,9.2c-0.2,2.5-0.7,5-1.4,7.5c-1.4,5.2-3.5,10.1-5.6,15
		c-2.3,5.7-4.3,11.4-5,17.5c-0.1,0.8,0.7,1.6,1.4,1.8c0.7,0.2,1.6-0.2,2.1-0.8c3.9-5.2,8-10.1,12.3-14.9c0,3.6,0.9,7.2,1.4,10.8
		c0.8,6-0.5,11.9-2.5,17.5c-1.2,3.2-2.6,6.4-4,9.5c-0.5,1.2,0.1,2.8,1.6,2.7c4.2-0.3,6.8-3.8,8.9-7.1c2.2-3.4,4-7.1,5.5-10.9
		c2.1-5.3,3.6-10.8,4.4-16.4c0,0.2,0,0.5,0,0.7c0.2,3.5,0.2,7.1,0,10.6c-0.2,3.2-0.4,6.5-1.1,9.7c-0.3,1.4-0.7,2.7-1.4,4
		c-0.1,0.2-0.2,0.4-0.3,0.6c-0.1,0.1-0.3,0.2-0.4,0.3l-0.3,0.3c0,0-0.1,0.1-0.1,0.1l-0.8,0.5c-0.4,0.3-0.8,0.8-0.9,1.4
		c-0.7,0.6-0.9,1.6-0.5,2.4c0.5,0.8,1.6,1.1,2.5,0.7c1.3-0.8,2.4-1.9,3.2-3.2c6-5.2,10.2-12.2,11.9-20c0.2-0.9,0.4-1.8,0.5-2.7
		l0.9,1.3c1.1,1.8,2.2,3.7,3.1,5.7l0.7,1.5c0.1,0.1,0.1,0.3,0.1,0.4h0l0.3,0.8c0.4,1,0.8,2,1.1,3c0.7,2,1.2,4.2,1.6,6.3
		c0.1,0.6,0.2,1.2,0.3,1.8s0.1,0.6,0.1,0.9c0,0.3,0,0.3,0,0.4c0,0.1,0,0.1,0,0.2c0.1,1.2,0.3,2.5,0.3,3.7c0,0.9,0.7,1.7,1.6,1.8
		c0.9,0.1,1.8-0.4,2-1.3c3.7-9.7,7.4-20.4,5-30.9c-1.1-4.8-3.6-9-6.3-13c-1.3-1.9-2.7-3.9-4-5.9c-0.7-1-1.2-2.1-1.8-3.1
		c-0.3-0.5-0.5-1.1-0.8-1.6l-0.3-0.7c0-0.1-0.1-0.2-0.1-0.3l-0.2-0.6c-1.2-3.3-2.2-6.6-2.9-10l2.3,2c1.4,1.1,2.8,2.1,4.2,3.2l2,1.5
		l0.9,0.7l0.5,0.4l0.2,0.2h0.1c1.3,1,2.5,2,3.7,3.2c0.6,0.6,1.2,1.2,1.7,1.8l0.7,0.9h0l0.1,0.2l0.4,0.6c0.5,0.8,1,1.6,1.4,2.4
		l0.5,1.1l0.3,0.6c0,0.1,0,0.1,0.1,0.2l0.1,0.3c0.7,1.7,1.2,3.4,1.6,5.2c0.2,1,0.4,2,0.6,3l0.2,1.5c0,0.1,0,0.3,0,0.4s0,0,0,0.1
		l0.1,0.8c0.3,2.1,0.4,4.2,0.6,6.3c0.1,0.8,0.5,1.6,1.4,1.8c0.8,0.2,1.6-0.1,2-0.8c3.8-7.2,3.2-15.6,1-23.2
		c-2.2-7.6-6.1-14.9-8.6-22.6c-0.7-2.2-1.2-4.4-1.6-6.7c0-0.1,0-0.2,0-0.3c0-0.1,0-0.2,0-0.3c0-0.2-0.1-0.4-0.1-0.7
		c-0.1-0.5-0.1-1-0.1-1.4c3.1,4,6.1,8,8.6,12.5c1,1.7,1.8,3.5,2.4,5.3c0.3,1,0.6,1.9,0.8,2.9c0.2,0.9,0.4,1.9,0.5,2.8
		c0,1,0.8,1.8,1.8,1.8c1,0,1.8-0.8,1.8-1.8C261.8,176.1,261.2,170.8,259.7,165.8z M64.6,173.4C64.6,173.6,64.6,173.5,64.6,173.4
		L64.6,173.4z M86.2,55.8C86.2,55.7,86.5,55.6,86.2,55.8L86.2,55.8z M204.7,75.3C204.7,75.4,204.7,75.5,204.7,75.3L204.7,75.3z"/>
	<path style="stroke:#000000;stroke-width:3;stroke-linecap:round;stroke-linejoin:round;stroke-miterlimit:10;" d="M211.9,105.3
		c-0.2-0.4-0.6-0.7-1.1-0.8c-0.9-0.2-2.1,0.3-2.3,1.3c-0.5,3.8,0,7.6,1.4,11.1c1.4,3.4,3.3,6.7,5.5,9.7l1.6,2.2
		c0.3,0.3,0.5,0.7,0.8,1l0.6,0.8l0.2,0.3c0,0.1,0.1,0.1,0.1,0.2c1.1,1.4,2.2,2.9,3.2,4.3c1.1,1.5,2,3,2.9,4.6
		c0.4,0.8,0.8,1.6,1.2,2.4c0.1,0.2,0.2,0.4,0.3,0.6l0.1,0.2c0,0,0,0.1,0,0.1l0.5,1.4c0.7,1.9,1.2,3.8,1.6,5.8c0.1,0.5,0.2,1,0.3,1.5
		c0.1,0.3,0.1,0.5,0.1,0.7c0,0.1,0,0.1,0,0.1c0,0,0,0.3,0,0.3c0.1,1,0.2,2,0.3,3.1c0,1,0.8,1.8,1.8,1.8c1,0,1.9-0.8,1.8-1.8
		c-0.3-7.5-2.6-14.7-6.7-21c-1-1.5-2-3-3.1-4.4l-1.8-2.4l-0.4-0.5l-0.1-0.2l-0.1-0.1l-0.8-1.1c-2.2-2.9-4.3-5.8-5.8-9l-0.3-0.8
		l-0.1-0.2c0-0.1,0-0.1-0.1-0.2c-0.2-0.5-0.4-1-0.5-1.4c-0.3-1-0.6-1.9-0.8-2.9c0-0.2-0.1-0.4-0.1-0.7c0-0.3,0-0.2,0-0.3
		c0-0.1,0-0.2,0-0.3v-0.1c0-0.1,0-0.3,0-0.4c0-0.3-0.1-0.5-0.1-0.8c0-0.5,0-1,0-1.4c0-0.5,0-0.5,0-0.8c0-0.1,0-0.2,0-0.3
		c0-0.1,0.1-0.5,0-0.1C212.2,106.2,212.1,105.7,211.9,105.3z"/>
	<path style="stroke:#000000;stroke-width:3;stroke-linecap:round;stroke-linejoin:round;stroke-miterlimit:10;" d="M215.1,157.6
		c0-0.3,0.1-0.6,0.1-0.9l0.2-1.2c0.1-0.9-0.3-2-1.3-2.2s-2.1,0.3-2.3,1.3c-1.2,6.6-0.8,13.4,1.2,19.8c0.3,0.9,1.3,1.6,2.3,1.3
		s1.6-1.3,1.3-2.2c-0.5-1.5-0.9-3-1.2-4.6l-0.2-1.2c0-0.2,0-0.3-0.1-0.5c0-0.1,0-0.3-0.1-0.4l-0.2-2.2c-0.1-1.5-0.1-3.1,0-4.6
		C214.9,159.2,214.9,158.4,215.1,157.6z"/>
</g>
</svg>
