<?xml version="1.0" encoding="utf-8"?>
<!-- Generator: Adobe Illustrator 27.9.0, SVG Export Plug-In . SVG Version: 6.00 Build 0)  -->
<svg version="1.1" id="Layer_1" xmlns="http://www.w3.org/2000/svg" xmlns:xlink="http://www.w3.org/1999/xlink" x="0px" y="0px"
	 viewBox="0 0 300.5 173.8" style="enable-background:new 0 0 300.5 173.8;" xml:space="preserve">
<g>
	<path style="stroke:#000000;stroke-width:3;stroke-linecap:round;stroke-linejoin:round;stroke-miterlimit:10;" d="M292.8,119.2
		c-0.4-4-1.2-7.9-2.3-11.7c-1.1-3.8-2.4-7.5-4-11.1c-2.9-6.9-6.1-13.6-9.8-20c-6.9-12.1-16.3-23.3-29.4-28.8
		c-3.8-1.6-7.8-2.5-11.6-4.1c-0.7-0.2-1.4-0.6-2.1-0.9l0.5-0.7c1-1.7,2.2-3.3,3.5-4.8c1-1.2,0.7-2.9-0.9-3.4c-3.9-1.2-8-1.9-12.1-2
		l0.4-0.8c0.1-0.2,0.2-0.3,0.3-0.5l0.3-0.4c1.1-1.3,2.4-2.5,3.7-3.6c1.6-1.4,4.1-3,3.4-5.4c-0.4-1.4-1.8-1.9-3.1-2.2l-3-0.4
		c-3.9-0.4-7.8-0.2-11.6,0.6c-0.1-0.8-0.6-1.6-1.2-2.2c-2.2-2.4-5.7-1.9-8.6-1.5c-2,0.3-4,0.7-6,1.2c-0.8-1.4-1.7-2.6-2.8-3.7
		c-1.7-1.6-3.7-2.9-6-3.1c-2.3-0.2-4.5,0.8-6.6,1.5l-6.3,2c-2.1,0.6-4.2,1.3-6.3,2.1c-2.1,0.8-4,1.7-6,2.6l-0.6,0.2h0l-0.2,0.1
		l-1.3,0.5l-1.1,0.3l-0.6,0.1h-0.3c-0.4,0-0.8,0.1-1.3,0h-1.1c-0.6,0-1.1-0.2-1.6-0.3l-1.6-0.4c-2.1-0.6-4.1-1.4-6.2-1.8
		c-2.3-0.4-4.7-0.4-7,0.2c-2,0.5-4,1.2-5.9,2c-1,0.4-1.9,0.7-2.9,0.9l-1.2,0.2h-0.8c-0.3,0-0.7,0-1,0h-0.6c-0.7-0.2-1.3-0.4-1.9-0.6
		c0.6,0.2,0.1,0-0.1-0.1l-0.4-0.2l-0.9-0.5l-1.7-1.2h0l-0.4-0.3c-0.3-0.2-0.6-0.4-0.9-0.7l-1.6-1.4c-1.2-1-2.5-2-3.8-2.9
		c-1.4-0.9-2.9-1.6-4.4-2.2c-1.7-0.7-3.5-1.3-5.4-1.5c-1.9-0.1-4.2,0.8-4.7,2.9c-0.1,0.5-0.1,1,0,1.5c-4.5-1.4-9.1-2.4-13.8-2.8
		c-0.8-0.1-1.7,0.7-1.9,1.5c-0.2,0.9,0.2,1.8,0.9,2.3l0.8,0.5l0.3,0.2l0.2,0.2c0.3,0.2,0.6,0.6,0.8,0.8c-5.5-1-11.1-1.1-16.7-0.4
		c-0.8,0.1-1.5,0.4-1.9,1.3c-0.3,0.8-0.1,1.6,0.4,2.2l1.3,1.3c-7.6,1.3-15,3.8-21.8,7.4c-1,0.6-1.4,2.4-0.4,3.1l1.1,0.9L45,34.1
		c-1.1,0.3-1.7,1.4-1.4,2.5c0.1,0.5,0.4,0.9,0.9,1.2l4,2.9c-6.4,1.3-12.4,3.8-17.8,7.5c-1.2,0.8-1.4,2.7,0,3.5l1.9,1
		c-4.2,4-8,8.5-11.1,13.4c-3.6,5.7-6.4,11.9-8.2,18.3c-1,3.7-1.8,7.5-2.2,11.3c-0.1,1,0.9,1.9,1.9,2v0.4c0,0.2,0,0.3,0,0.4l-0.2,0.8
		c-0.4,1-0.7,2-1,3l-2.1,5.7C8.9,110,8,111.9,8.1,114c0,2.1,1.1,3.4,1.4,5.1c0,0.1,0,0.3,0.1,0.4c0,0.2,0,0.3,0,0.4v1.2
		c0,0.9-0.1,1.7-0.2,2.6c-0.3,3.4-0.6,7.6,2.1,10.2c1.5,1.4,3.6,1.7,5.5,1c1.8-0.7,3.4-1.9,4.8-3.1c2.7-2.3,5-4.9,6.9-7.8
		c1.5-2.3,2.9-4.8,4.6-7c0-0.1,0.1-0.2,0.2-0.3c0,0,0.2-0.2,0.2-0.2l0.6-0.8c0.5-0.5,1-1,1.5-1.5l0.6-0.5c0-0.1,0.1-0.1,0.2-0.2
		l0.4-0.3l0.8-0.5l0.4-0.2l0.4-0.2c0.6-0.3,1.3-0.5,2.1-0.6h2.9l0.7,0.1h0.6l0.5,0.1c-0.2,0.2-0.3,0.3-0.4,0.5l-7,10.1
		c-2.1,3-4.6,6.1-5.4,9.9c-0.2,0.9,0.2,1.8,0.9,2.3c0.8,0.4,1.8,0.3,2.4-0.3c0.9-1,1.8-1.9,2.8-2.7l1.5-1.2c0,0,0,0,0,0l0.1-0.1
		l0.4-0.3l0.8-0.6l1.8-1.1c-1,2.8-1.5,5.7-1.6,8.7c-0.1,1.5,1.7,2.5,3,1.7c0.6-0.4,1.2-0.7,1.8-1l0.5-0.2l0.2-0.1l0.9-0.4l1.6-0.5
		c0.4,6.7,2.9,13,7.1,18.2c0.6,0.8,2.1,0.8,2.8,0c0.8-0.8,0.8-2.1,0-2.8c-0.1-0.2-0.2-0.4-0.3-0.5c0,0-0.2-0.3-0.3-0.4l-0.7-1
		c-0.4-0.7-0.9-1.4-1.3-2.1c-0.4-0.7-0.8-1.5-1.1-2.3l-0.1-0.3l-0.2-0.6c-0.2-0.4-0.3-0.8-0.4-1.2c-0.5-1.6-0.9-3.3-1.2-4.9
		c0,0,0-0.1,0-0.2c0-0.2,0-0.4-0.1-0.6l-0.1-1.4c0-0.8,0-1.7,0-2.5c0-0.8-1-2.2-2-2c-1.9,0.2-3.8,0.7-5.7,1.4
		c0.2-0.9,0.4-1.9,0.6-2.8c0.3-1,0.6-2.1,1-3.1h0l0.2-0.4l0.4-0.7c0.2-0.5,0.5-1,0.8-1.5c0.4-0.7,0.3-1.6-0.2-2.2
		c-0.4-0.6-1.4-1-2.1-0.7c-1.9,0.8-3.8,1.7-5.6,2.8l0.3-0.5l6.9-10c0.4-0.6,0.3-1.4,0-2l1.3,0.2l13.3,2.4c0.8,0.2,1.6-0.1,2.1-0.7
		c0.5-0.6,0.6-1.5,0.2-2.2l-1.8-3.2l5.8-0.7c0.8,0,1.5-0.5,1.9-1.3c0.2-0.5,0.2-1.1,0-1.5c1.4,0.4,2.8,0.6,4.2,0.3
		c1-0.2,1.7-1.5,1.4-2.5c-0.3-0.9-1.4-1.6-2.5-1.4c0.3,0,0.2,0,0,0H74c0.2-0.5,0.4-1,0.7-1.5s0.7-1.3,1-1.9l0.6-0.9l0.3-0.4V97
		l0.1-0.1c0.4-0.5,0.8-1,1.3-1.4l0.7-0.6l0.1-0.1l0.4-0.2c0.2-0.2,0.5-0.4,0.8-0.5l0.4-0.2l0.3-0.1l0.2-0.1l0.4-0.2l1-0.2
		c1.5-0.2,2-2.5,0.9-3.4c-1-0.8-2.1-1.6-3.4-2.2l1.5-0.8l0.4-0.2l0.2-0.1c0.2,0,0.1,0-0.1,0.1c-0.2,0.1,0.6-0.2,0.8-0.3
		c0.6-0.2,1.1-0.4,1.7-0.5l0.8-0.2h0.5c0.6,0,1.2,0,1.8,0h0.9l0.5,0.1c0.8,0.2,1.9-0.1,2.3-0.9c0.4-0.8,0.3-1.8-0.3-2.4
		c-0.8-0.8-1.7-1.6-2.6-2.3h0.1l1.9-0.1c1.2,0,2.4,0,3.6,0.1l0.9,0.1h0.1l0.4,0.1l1.9,0.4c1,0.2,2-0.2,2.4-1.2c0.4-0.9,0-2-0.8-2.5
		l-0.8-0.6c3,0.5,5.9,1.3,8.7,2.5l0.3,0.1h0l0.6,0.3l1.2,0.6c0.8,0.4,1.6,0.8,2.4,1.3c0.8,0.5,2.3,0.2,2.7-0.7
		c0.6-1,0.2-2.2-0.7-2.8c-5.9-3.4-12.6-5.3-19.4-5.7c-1.9-0.1-3.7-0.1-5.6,0c-1,0-1.8,0.8-2,1.7c-0.1,1,0.5,1.9,1.5,2.2l0.4,0.2
		c-2,0.2-4,0.6-6,1.3c-0.9,0.2-1.5,1-1.5,1.9c0,1,0.6,1.6,1.5,1.9h0.1c0,0,0,0,0,0l0.5,0.2l0.7,0.4c-3.5,0.7-6.6,2.5-9,5.1
		c-0.5,0.5-0.7,1.3-0.5,2c0.2,0.7,0.7,1.2,1.4,1.4l1.5,0.4l0.3,0.1c-1.3,0.8-2.5,1.8-3.4,3c-2,2.5-3.3,5.3-4.6,8.2
		c-0.1,0.2-0.1,0.4-0.2,0.6l-4.4-5.6c-0.7-0.8-2.2-0.7-2.9,0c-0.7,0.7-0.7,2,0,2.9l3.7,4.6l-5.2,0.6c-0.7,0-1.4,0.4-1.7,1
		c-0.4,0.6-0.4,1.4,0,2c0.4,0.7,0.7,1.4,1.1,2.1l-7.6-1.3l-5.8-1c-1.9-0.4-4-0.5-5.9-0.3c-3.1,0.4-6.1,1.9-8.3,4.3
		c-2.1,2.1-3.6,4.6-5.2,7.1c-1.6,2.5-3.2,5-5.4,7.3c-0.6,0.6-1.2,1.2-1.8,1.7l-0.9,0.8l-0.5,0.4l-0.2,0.2l0,0c0,0-0.1,0-0.1,0.1
		c-0.6,0.5-1.3,1-2.1,1.4l-0.1,0.1h-0.1l-0.6,0.2h-0.5l-0.2-0.1l-0.2-0.2c0,0-0.1,0-0.1-0.1c0,0,0,0,0-0.1l-0.3-0.4c0,0,0-0.1,0-0.1
		c0,0,0,0,0-0.1l-0.2-0.6l-0.1-0.6c0-0.1-0.1-0.6-0.1-0.6c-0.2-1.6,0-3.3,0.2-4.9c0.2-1.8,0.2-3.6-0.1-5.3c-0.2-0.8-0.4-1.6-0.7-2.3
		c-0.2-0.4-0.3-0.8-0.4-1.2l-0.1-0.5c0-0.1,0-0.1,0-0.2c0-0.2,0-0.3,0-0.5c0-0.6,0.5-1.9,0.8-2.8s0.8-2.1,1.2-3.2
		c0.8-2.1,1.5-4.2,2.3-6.3c0.8-2.1,0.9-3.3,0.4-4.9c-0.2-0.8-0.7-1.6-1.5-2.1c0-0.2,0.1-0.4,0.1-0.5c0.1-0.8,0.2-1.6,0.4-2.4
		c0.3-1.6,0.6-3.1,1.1-4.7c0.4-1.6,0.8-3.1,1.4-4.6l0.8-2.3l0.4-1c0-0.2,0.1-0.4,0.2-0.6c0,0,0-0.1,0.1-0.2v-0.1
		c1.3-3,2.8-5.9,4.5-8.7c0.8-1.4,1.7-2.7,2.7-4c0.2-0.3,0.4-0.6,0.7-0.9c0.1-0.2,0.2-0.3,0.3-0.5l0.2-0.3l1.5-1.8
		c2.3-2.8,4.9-5.4,7.7-7.8c1-0.8,0.7-2.6-0.4-3.1l-1.5-0.8c0.7-0.4,1.4-0.8,2.1-1.2c1.6-0.8,3.2-1.5,4.9-2.1
		c1.8-0.6,3.6-1.2,5.5-1.6l2.9-0.6l0.6-0.1h0.5l1.5-0.2c2.1-0.2,2.7-2.5,1-3.8l-4.9-3.6l8-2.9c0.7-0.2,1.2-0.7,1.4-1.4
		c0.2-0.6,0-1.5-0.5-1.9l-1.5-1.2c2.9-1.4,5.8-2.5,8.8-3.4c2-0.6,4.1-1.2,6.2-1.6l3.1-0.6l1.4-0.2h0.6l0.9-0.1c1.1,0,2-1,2-2.1
		c0-0.5-0.2-1-0.6-1.3l-0.9-1c2-0.1,3.9-0.1,5.9,0c3.3,0.2,6.6,0.7,9.9,1.6c1.5,0.4,3-1,2.5-2.5c-0.4-1-0.8-2.1-1.4-3
		c1.6,0.3,3.2,0.7,4.7,1.1c1.5,0.4,3.5,1,5.2,1.7c1,0.4,2.1,0.8,3.1,1.3c-0.4-0.1-0.9-0.2-1.3-0.3c-1-0.3-2.2,0.3-2.5,1.3
		c-0.3,0.9,0.1,1.9,1,2.4l0.4,0.3h0c0,0,0,0,0,0l0.8,0.6c0,0,0,0,0,0.1c-1.7-0.2-3.7,0.1-4.5,1.9c-0.4,1-0.3,2.2,0.7,2.8
		s2.2,0.3,2.7-0.7h0.6c-0.1,0-0.2-0.1,0.1,0h0.4l4.7,1.3c1.1,0.3,2.2-0.3,2.5-1.4c0.2-0.5,0.1-1.1-0.2-1.6c-0.3-0.5-0.6-1-0.9-1.5
		l1.9,0.6l1.4,0.6l0.4,0.1h0l0.8,0.3c0.9,0.4,2.2,0.3,2.7-0.7s0.3-2.1-0.7-2.5c-2.4-1.1-4.8-2-7.3-2.7c0.4-0.2,0.7-0.4,0.9-0.8
		c0.5-1,0.3-2.3-0.7-2.7c-1-0.5-2.1-1-3.2-1.5l-0.4-0.4l-0.3-0.4c-0.2-0.3-0.3-0.6-0.5-0.8c-0.1-0.1-0.1-0.2-0.2-0.3
		c0-0.1-0.1-0.2-0.1-0.2v-0.1h0c0.1,0,0.2,0,0.1,0h0.3c0.1,0,0.5,0,0.6,0h0.2c0.4,0.1,0.9,0.2,1.3,0.4c0.8,0.2,1.5,0.5,2.3,0.8
		c0.3,0.2,0.6,0.3,0.8,0.4c-0.1,0-0.2-0.1,0,0h0.2l0.6,0.3c0.6,0.3,1.3,0.7,1.9,1.1l0.8,0.6l0.4,0.3l0.2,0.1l1.6,1.3
		c1,0.9,2.1,1.8,3.1,2.6c2.4,1.9,5,3.3,8.1,3.6c3.1,0.3,7.2-1.5,10.7-2.7c1-0.3,1.9-0.6,2.9-0.8l0.7-0.1h0.4c0.5,0,1-0.1,1.5,0h1.2
		l1.6,0.3c1,0.2,2,0.5,2.9,0.8c2.1,0.6,4.2,1.4,6.4,1.6c1.8,0.2,3.7,0,5.4-0.6c1.8-0.6,3.5-1.4,5.2-2.3l1.3-0.6h0.1l0.3-0.1l0.8-0.3
		l2.9-1.1c4-1.4,8.2-2.5,12.2-3.9l1.4-0.5l0.7-0.2h1.3l0.3,0.1l0.5,0.2l0.1,0.1l0.4,0.2l1,0.7c0.1,0,0.3,0.2,0.3,0.3l0.6,0.5
		c0.3,0.3,0.6,0.6,0.9,0.9l0.3,0.4l0.1,0.1c0,0.1,0.1,0.2,0.2,0.3l0.2,0.2c-2,0.7-3.9,1.4-5.9,2.3c-2.7,1.2-5.4,2.7-8,4.3
		c-0.4,0.2-0.7,0.6-0.9,1.1c-0.2,0-0.4,0-0.6,0c-3.3,0.5-6.4,1.7-9.2,3.6c-0.8,0.6-1.3,1.8-0.7,2.7c0.6,0.9,1.9,1.4,2.8,0.7l1.9-1.2
		l0.6-0.3c-0.2,0.5-0.4,1-0.6,1.5c-0.3,1.1,0.4,2.2,1.5,2.5c0.3,0.1,0.7,0.1,1,0l0.5-0.1h0.3l1-0.1c0.7,0,1.5,0,2.2,0h0.2l0.5,0.1
		l0.9,0.2c0.2,0.2,0.4,0.3,0.7,0.4l1.7,0.5c1,0.2,2-0.2,2.4-1.2c0.4-0.8,0.1-2.1-0.8-2.5l-0.5-0.2h0c-2-0.8-4.1-1.3-6.3-1.3l0.2-0.4
		c0,0,0,0,0,0l0.3-0.3l1.1-1.2c0.2-0.2,0.4-0.4,0.5-0.7c0.4,0,0.7,0,1-0.3c1.8-1.2,3.7-2.2,5.6-3.2l2.8-1.3l0.4-0.2h0l0.7-0.3
		l1.6-0.6c4-1.4,8.1-2.5,12.2-3.1h0.1l0.4-0.1l1-0.1h1.5l0.4,0.1h0.1c-0.1,0.2-0.3,0.3-0.4,0.4l-0.1,0.1c0,0,0,0,0,0l-0.5,0.3
		l-1,0.6c-0.3,0.1-0.6,0.4-0.7,0.6l-3.2,1.5c-3.8,2-7.3,4.6-10.2,7.8c-0.7,0.8-0.8,2.1,0,2.8c0.8,0.8,2.1,0.8,2.9,0
		c1.2-1.3,2.5-2.5,3.8-3.6l0.2-0.2c0,0,0-0.1,0.1-0.1l0.1-0.1l0.3-0.2l1.1-0.8c0.7-0.5,1.5-1,2.2-1.4c2.9-1.7,6.1-3,9.3-3.8l2.6-0.6
		l1.3-0.2h0.2l0.7-0.1c1.8-0.2,3.5-0.2,5.3-0.1l2.6,0.2h0.2l0.5,0.1l-1.5,1.3c-3,2.6-5.9,5.7-6.1,9.9c-0.1,1.1,1,2,2,2
		c3.6,0,7.1,0.4,10.6,1.2l-1.5,2.2c-1.1,1.7-2.6,3.8-1.2,5.7c0.6,0.8,1.4,1.3,2.3,1.7l3,1.3c1.7,0.6,3.5,1.2,5.2,1.8
		c3.5,1.1,6.3,2.1,9.5,3.9c1.4,0.8,2.8,1.7,4.2,2.6c1.4,1,2.4,1.8,3.8,3c10.9,9.5,17.5,22.7,23.5,35.7c1.8,3.9,3.4,7.9,4.7,12
		c0.6,2.1,1.1,4.1,1.6,6.2c0.3,1.4,0.6,2.9,0.8,4.3l-5.2,0.2c-1.3,0-2.4,1.3-1.9,2.6c1.4,4.2,1.9,8.6,1.5,12.9
		c-0.2,2.1-0.6,4.2-1.3,6.3c-0.1,0.4-0.2,0.8-0.4,1.2c0,0.1,0,0.2-0.1,0.2h0l-0.3,0.6c-0.2,0.4-0.4,0.7-0.6,1.1l-0.3,0.4l-0.3,0.4
		c-0.1,0.2-0.2,0.3-0.4,0.4c-0.1,0.1-0.5,0.4-0.2,0.2c-0.2,0.1-0.3,0.2-0.5,0.3l-0.3,0.2l-0.5,0.2l-0.3,0.1h0c-0.4,0-0.9,0-1.4-0.1
		c-2.2-0.5-4.2-1.5-6.2-2.4c-2-0.9-4.2-2-6.3-3.1c-0.9-0.4-1.7-0.9-2.5-1.5l-0.2-0.1l-0.1-0.1l-0.4-0.4c-0.1-0.2-0.3-0.3-0.4-0.4
		c0-0.1-0.1-0.2-0.2-0.3l-0.1-0.2c0-0.1,0-0.2-0.1-0.3c0-0.1,0-0.1,0-0.2v-0.1c0,0,0,0,0-0.1l0.1-0.2l0.2-0.2h0.1
		c0,0,0.1-0.1,0.2-0.2l0.3-0.2h0.2l0.1-0.1l0.4-0.1l0.6-0.1h2.3c1.4,0.1,2.8,0,4.2-0.4c1.1-0.3,2-1.9,1.2-2.9l-3.6-4.7l-0.5-0.7
		c0.8-0.2,1.6-0.4,2.4-0.7c1.6-0.8,2.4-2.7,1.9-4.5c-0.7-2.5-3-4.4-5.2-5.8s-4-2-5.9-3l-1.6-0.9l-0.3-0.2l-0.2-0.1l-0.6-0.5
		c-0.2-0.2-0.4-0.4-0.6-0.6v-0.1l-0.2-0.3c-0.2-0.2-0.3-0.5-0.4-0.8c-0.1-0.2-0.1-0.4-0.2-0.5c-0.3-1-1.4-1.7-2.5-1.4
		c-1,0.3-1.7,1.4-1.4,2.5c1.5,4.9,6.4,6.6,10.5,8.8c0.5,0.2,1,0.5,1.4,0.8l0.7,0.4l0.3,0.2l0.3,0.2l1,0.9l0.4,0.4
		c0.2,0.2,0.3,0.4,0.4,0.6l0.2,0.3c0,0,0,0,0,0.1l-0.3,0.1c-1,0.3-2.1,0.4-3,1c-0.7,0.4-1.2,1.2-1.4,2c-0.3,1.3,0.2,2.4,1,3.4
		c0.8,1,1.3,1.7,1.9,2.5h-0.1c-1.2-0.1-2.4,0-3.6,0.3c-2.1,0.5-3.8,1.9-4.4,3.9c-2.5-3.2-5.5-6-8.9-8.2c-1.1-0.7-2.3-1.4-3.4-1.9
		c0-0.3,0-0.6,0-0.8c-1.4-3.4-3.2-6.6-5.5-9.5h1.8c0.6,0.2,1.3,0.3,1.9,0.6c0.9,0.2,1.8-0.2,2.3-0.9c0.5-0.8,0.4-1.8-0.3-2.5
		c-3.7-3.5-7.9-6.4-12.4-8.8l0.2-0.4l0.2-0.2h0c0,0,0,0,0,0l0.1-0.1l0.2-0.3l0.4-0.4l0.2-0.2c0.2-0.1,0.3-0.2,0.4-0.3l0.6-0.3
		l0.2-0.2h0.2l0.4-0.1l0.6-0.2l0.2-0.1h0c0.2,0,0.2,0,0,0l0.5-0.1h0.7c0.9,0,1.7-0.6,1.9-1.5c0.2-0.9-0.2-1.8-0.9-2.3
		c-5.1-3.2-11.1-4.4-17.1-3.4H220c0.1-0.1,0.1-0.2,0.2-0.3l0.2-0.3l0.2-0.2c0.4-0.5,0.8-1,1.3-1.5c0.6-0.6,0.8-1.6,0.3-2.4
		c-0.5-0.8-1.4-1.1-2.3-0.9c-6.9,1-13.4,3.8-19,8c-1.7,1.3-3.2,2.6-4.6,4.1c-0.8,0.8-0.8,2.1,0,2.8c0.8,0.8,2.1,0.8,2.8,0
		c1.2-1.2,2.4-2.3,3.8-3.4h0.1l0.1-0.1l0.5-0.4l1-0.7c0.7-0.5,1.5-1,2.2-1.4c1.4-0.8,2.9-1.6,4.4-2.3l0.5-0.2l0.3-0.1l1.3-0.5
		l2.3-0.8l0.2-0.1c-0.5,1-1,2.1-1.3,3.1c-0.4,1.4,1,3.1,2.5,2.5c1.6-0.6,3.2-1.1,4.9-1.3h0.9l1.3-0.1c0.8,0,1.7,0,2.5,0.1h0.8
		l1.3,0.2l2.1,0.6c-2.1,1.3-3.5,3.4-4,5.8c-0.2,0.8,0.1,1.9,0.9,2.3c2.4,1.2,4.7,2.5,6.9,4l1.1,0.8c-0.7,0.1-1.5,0.3-2.2,0.6
		c-1.1,0.4-1.7,1.5-1.3,2.6c0.1,0.3,0.2,0.5,0.4,0.8c0.8,0.8,1.5,1.6,2.1,2.5c0,0,0.1,0.1,0.1,0.1l0.2,0.3l0.5,0.7
		c0.3,0.5,0.6,0.9,0.9,1.4c0.6,0.9,1.2,1.8,1.7,2.8l0.2,0.5h-1.5c-0.7-0.1-1.5-0.3-2.2-0.5c-0.4-0.1-0.7-0.2-1.1-0.4h-0.2l-0.6-0.3
		c-0.9-0.5-2.2-0.3-2.7,0.7c-0.5,1-0.3,2.2,0.7,2.7c2.7,1.4,5.7,2,8.6,1.9c0.2,0.4,0.4,0.8,0.9,1c1.3,0.6,2.6,1.3,3.8,2l1.9,1.3
		l0.7,0.5l0.2,0.2l0.5,0.4c1.1,0.9,2.2,1.9,3.1,3c0.5,0.5,1,1.1,1.5,1.7l0.3,0.4l0.2,0.3l0.2,0.2l0.3,0.4c-3.8-1.1-7.6-2.3-11.3-3.6
		c-1.1-0.3-2.2,0.4-2.5,1.5c-0.1,0.5,0,1,0.2,1.5c0.9,2,2.6,3.6,4.3,5l1.6,1.2l0.2,0.2l0.2,0.1l0.6,0.5l1.5,1.3
		c-2.1-0.2-4.3-0.1-6.4,0.7c-0.7,0.2-1.2,0.7-1.4,1.4c-0.2,0.7,0,1.5,0.5,2c0.4,0.3,0.8,0.7,1,1c0,0,0,0.1,0.1,0.1v0l0.2,0.2
		c0.2,0.2,0.3,0.4,0.4,0.6l0.4,0.6c0,0.1,0.1,0.3,0.2,0.4c0,0,0,0.2,0.1,0.2c0,0,0,0.1,0,0.1l0.1,0.4l0.2,0.8c0,0.2,0.1,0.5,0.2,0.7
		c0,0.1,0,0.2,0,0.3c0,0.5,0.1,1,0,1.5c0,0.3,0,0.5,0,0.8c0,0.1,0,0.2,0,0.3c0,0.1-0.3,1-0.4,1.5c-0.3,1.1,0.3,2.2,1.4,2.5
		c1,0.2,2.1-0.4,2.5-1.4c1.3-3.7,0.8-7.7-1.2-11h1.1l1.2,0.1h0.8l2.4,0.4c1.5,0.3,2.9-0.9,2.5-2.5c-0.6-2.3-2.1-4.2-3.9-5.7
		l-1.3-1.1c2.8,0.8,5.6,1.7,8.4,2.4c1,0.3,2.1-0.3,2.4-1.3v0c1.9,1.3,4,2.2,6.1,3.2s4.9,2.3,7.4,3.3c2.5,1,5.1,1.4,7.6,0.2
		c4-2,5.5-7.3,6.2-11.4c0.9-5,0.7-10.1-0.5-14.9l4.8-0.2C291.8,121.2,293,120.3,292.8,119.2z M107.8,12.1
		C107.8,12,107.9,11.9,107.8,12.1L107.8,12.1z M229.1,21.3C229.2,21.3,229.2,21.3,229.1,21.3L229.1,21.3z M264.4,125.3
		C264.2,125.6,264.3,125.4,264.4,125.3L264.4,125.3z M259.4,135.5C259.5,135.6,259.4,135.6,259.4,135.5L259.4,135.5z M259.5,135.8
		C259.6,135.8,259.6,135.9,259.5,135.8L259.5,135.8z"/>
</g>
</svg>
