<?xml version="1.0" encoding="utf-8"?>
<!-- Generator: Adobe Illustrator 27.9.0, SVG Export Plug-In . SVG Version: 6.00 Build 0)  -->
<svg version="1.1" id="Layer_1" xmlns="http://www.w3.org/2000/svg" xmlns:xlink="http://www.w3.org/1999/xlink" x="0px" y="0px"
	 viewBox="0 0 309.8 244.1" style="enable-background:new 0 0 309.8 244.1;" xml:space="preserve">
<g>
	<path style="stroke:#000000;stroke-width:3;stroke-linecap:round;stroke-linejoin:round;stroke-miterlimit:10;" d="M149.1,46.2
		L149.1,46.2c-6.9-4.3-14.8-6.7-22.9-6.9c-2.2-0.1-4.5,0.1-6.7,0.3c-0.9,0.1-1.6,0.5-1.7,1.5c-0.1,0.9,0.4,1.6,1.2,1.9l0.7,0.3
		l0.3,0.1h0.1l1.4,0.7l1.3,0.8l0.6,0.4l0.4,0.3l0.1,0.1c-1.9,0-3.8,0.1-5.7,0.5c-4.4,0.9-8.7,2.1-12.9,3.6c-2.5,0.9-4.9,2-7.2,3.1
		c-0.7,0.4-1,1.2-0.8,2c0.2,0.7,0.9,1.2,1.6,1.3l2.1,0.1l1,0.1l0.5,0.1h0.2l4,0.7l0.9,0.2c-3.2,0.9-6.3,2.3-9.2,4
		c-5,3.1-9.2,7.2-12.4,12.2c-1.8,2.8-3.1,5.8-4,8.9c-0.2,0.8,0.1,1.5,0.8,2c0.7,0.4,1.4,0.2,2.1-0.3l0.2-0.1l0.3-0.2
		c0.2-0.2,0.5-0.3,0.8-0.5c0.5-0.3,1-0.7,1.5-1c0.5-0.3,1-0.5,1.5-0.8l0.4-0.2l0.2-0.1l0.8-0.3c0.7-0.2,1.3-0.5,2-0.7
		c-2.5,3.6-3.8,7.9-3.7,12.2c0,1.7,0.3,3.4,0.8,5c0.2,0.6,0.6,1,1.2,1.2c0.6,0.2,1.3,0,1.7-0.4c1.2-1.5,2.6-3,4.2-4.3l0.5-0.5
		c0,0,0.1-0.1,0.1-0.1c0,0,0.1-0.1,0.2-0.1c0.1,0,0.8-0.6,1.2-0.9c0.8-0.5,1.6-1.1,2.5-1.5l1.3-0.7c0.2-0.1,0.4-0.2,0.7-0.3l0.2-0.1
		l0.2-0.1c0.9-0.4,1.8-0.7,2.8-1c1-0.3,1.9-0.5,2.8-0.7l1.4-0.2h0.3l0.8-0.1l1-0.1c-5.3,3.6-9.8,8.4-13.2,13.9
		c-2.2,3.6-3.9,7.5-5,11.5c-1.2,4.6-1.3,9.4-2.6,14c-0.2,0.6-0.4,1.3-0.6,1.9l-0.1,0.3c0,0.1-0.1,0.2-0.1,0.2l-0.4,0.8
		c-0.3,0.5-0.5,1-0.9,1.5l-0.5,0.7h0c0,0,0,0,0,0.1l-0.3,0.3c-0.4,0.4-0.8,0.8-1.2,1.2l-0.3,0.2l-0.1,0.1c0,0,0,0,0,0l-0.7,0.5
		l-0.7,0.4l-0.2,0.1h-0.2c-0.5,0.2-1,0.3-1.6,0.4c-0.9,0.1-1.5,1.3-1.2,2.1c0.2,0.9,1.2,1.4,2.1,1.2c4.3-0.7,7.6-4.3,9.3-8.2
		c2-4.7,2.1-9.8,3.2-14.6c0.4-2,1-3.9,1.7-5.8c0.2-0.5,0.3-0.9,0.5-1.4c0-0.1,0.1-0.1,0.1-0.2l0.1-0.2c0.1-0.3,0.2-0.5,0.3-0.8
		c0.4-0.9,0.9-1.8,1.4-2.7c1-1.8,2.1-3.5,3.3-5.2l0.4-0.6h0l0.3-0.3l1-1.2l2.1-2.2c0.8-0.8,1.6-1.6,2.5-2.4l1.3-1.1l0.3-0.2h0.1
		l0.1-0.1l0.7-0.5c1.9-1.4,3.8-2.6,5.9-3.6c0.6-0.3,0.9-1,0.8-1.7c-0.1-0.6-0.5-1.3-1.2-1.4c-8.6-1.2-17.4,1.2-24.2,6.6
		c-0.9,0.8-1.8,1.5-2.7,2.4v-0.3c0-0.7,0-1.3,0-2c0-0.3,0-0.7,0.1-1c0-0.1,0-0.2,0-0.2c0-0.1,0-0.3,0.1-0.4c0.2-1.3,0.6-2.7,1.1-3.9
		c0,0,0,0,0,0s0-0.1,0.1-0.1l0.2-0.4c0.1-0.3,0.3-0.6,0.4-0.9c0.3-0.6,0.7-1.2,1.1-1.7l0.3-0.5c0,0,0,0,0.1-0.1
		c-0.1,0.1,0.1-0.1,0.1-0.1c0-0.1,0.5-0.6,0.8-0.9c0.5-0.6,1.1-1.1,1.7-1.6c1.1-1,0.2-3-1.2-3c-3.5,0.2-6.9,1.1-10.1,2.7
		c0.4-0.9,0.9-1.8,1.4-2.7c0.7-1.2,1.4-2.3,2.3-3.4l0.1-0.1c0,0,0,0,0,0h0l0.3-0.4l0.7-0.9l1.3-1.5c1-1,2-1.9,3-2.8l0.8-0.7l0.1-0.1
		l0.4-0.3c0.5-0.4,1.1-0.8,1.7-1.2c1.1-0.8,2.3-1.4,3.5-2l1.9-0.9L105,62l0.4-0.2l1-0.4c1.4-0.5,3-0.9,4.5-1.2
		c0.7-0.2,1.4-0.3,2.1-0.4l0.3-0.1h0.5l1.2-0.1c0.9,0,1.5-0.7,1.7-1.5c0.1-0.9-0.4-1.6-1.2-1.9c-3.3-1.3-6.7-2.2-10.1-2.8l0.2-0.1
		c2-0.8,4.1-1.5,6.1-2.1c2.1-0.6,4.2-1.1,6.3-1.5l1.4-0.3l0.7-0.1l0.4-0.1h0.1c1-0.1,1.9-0.2,2.9-0.2c0.5,0,1,0,1.5,0.1h0l0.4,0.1
		l0.7,0.2l0.7,0.2l0.3,0.1h0.1c0.5,0.2,1,0.5,1.4,0.8c1.4,1,3.3-1,2.3-2.4c-1.4-2.2-3.2-4.1-5.3-5.6c0.8,0,1.6,0,2.5,0.1l1.3,0.1
		l0.7,0.1h0.5c1.9,0.3,3.8,0.7,5.7,1.2c1,0.3,1.9,0.6,2.8,0.9l1.2,0.4l0.7,0.3l0.2,0.1l0.3,0.1c2,0.9,3.9,1.9,5.8,3.1
		c0.9,0.4,1.9,0,2.3-0.9C150,47.5,149.8,46.7,149.1,46.2z"/>
	<path style="stroke:#000000;stroke-width:3;stroke-linecap:round;stroke-linejoin:round;stroke-miterlimit:10;" d="M62.3,122.4
		c0-0.1,0-0.2,0-0.2V122c0-0.1,0-0.2,0-0.3s0.2-1.2,0.4-1.9c0.3-1.1,0.7-2.2,1.1-3.3l0.1-0.2l0.2-0.4l0.4-0.8c0.2-0.5,0.5-1,0.8-1.5
		c0.6-1,1.2-2,1.9-2.9l0.3-0.4l0.1-0.1l0.7-0.8c0.4-0.5,0.9-1,1.3-1.5c0.4-0.5,1.9-1.9,2.8-2.9c0.7-0.7,0.7-1.8,0-2.4
		c-0.7-0.7-1.8-0.7-2.4,0c-3.5,3.3-6.8,7.1-8.8,11.5c-1.1,2.3-1.9,4.7-2.2,7.2c-0.4,2.9-0.4,5.7-0.4,8.5c0,1.5,0,3-0.1,4.5l-0.1,1.1
		c0,0.1,0,0.2,0,0.2v0.2c0,0,0,0,0,0.1c0,0.1,0,0.2,0,0.3l-0.2,1l-0.3,1.3c-0.1,0.9,0.2,1.9,1.2,2.1c0.9,0.2,1.9-0.3,2.1-1.2
		l0.3-1.3c0-0.1,0-0.2,0.1-0.2l0.1-0.3c0,0,0.1-0.1,0.1-0.1c0.1-0.2,0.2-0.4,0.3-0.6c0.2-0.4,0.5-0.9,0.8-1.3c0,0,0.1-0.2,0.2-0.2
		l0.1-0.2l0.5-0.5c0.3-0.4,0.7-0.7,1.1-1c0,0,0.1-0.1,0.1-0.1l0.3-0.2l0.7-0.4h0.1c-0.6,5-0.9,10.1,0.8,14.9
		c0.5,1.6,1.3,3.1,2.3,4.5c0.5,0.7,1.5,1.1,2.4,0.6c0.9-0.5,1.2-1.6,0.6-2.4c-0.4-0.5-0.8-1.1-1.1-1.7c-0.2-0.3-0.3-0.6-0.4-0.9
		l-0.2-0.4l-0.1-0.2c-0.5-1.3-0.8-2.5-1-3.9c0-0.1,0-0.2,0-0.3v-0.1c0-0.1,0-0.2,0-0.3c-0.1-0.3-0.1-0.7-0.1-1.1
		c0-0.3-0.1-1.4-0.1-2.1c0-1.4,0.1-2.8,0.2-4.2c0.1-0.8,0.2-1.5,0.3-2.3c0.1-0.8,0.1-0.8,0.1-1.2c0.1-0.4,0-0.2,0-0.3v-0.1l0.1-0.5
		c0.1-0.6,0-1.2-0.4-1.6c-0.4-0.4-1.1-0.6-1.7-0.4c-2,0.4-3.8,1.3-5.3,2.5c0.1-2.7,0-5.4,0.2-8.1C62.2,123,62.3,122.7,62.3,122.4z"
		/>
	<path style="stroke:#000000;stroke-width:3;stroke-linecap:round;stroke-linejoin:round;stroke-miterlimit:10;" d="M144.6,62.1
		c-5.2-1.1-10.5-0.9-15.6,0.7c-1.5,0.4-2.9,1.1-4.3,1.8c-0.8,0.4-1.1,1.6-0.6,2.3c0.5,0.8,1.5,1.1,2.3,0.6l1.1-0.5l0.4-0.2l0.4-0.2
		c0.7-0.3,1.4-0.5,2.1-0.7c0.8-0.2,1.5-0.4,2.3-0.6l1-0.2l0.6-0.1h0.3c1.5-0.2,3.1-0.2,4.7-0.2l2.2,0.2h0.3l0.6,0.1l1.2,0.2
		c0.9,0.1,1.8-0.5,2-1.4C145.8,63.1,145.3,62.4,144.6,62.1z"/>
	<path style="stroke:#000000;stroke-width:3;stroke-linecap:round;stroke-linejoin:round;stroke-miterlimit:10;" d="M139.5,68.7
		c-0.9,0.1-1.8,0.3-2.7,0.8c-2.2,1.1-3.7,3.1-4.3,5.5c-0.3,0.9,0.3,1.9,1.2,2.1c0,0,0,0,0,0c0.9,0.2,1.9-0.3,2.1-1.2
		c0.1-0.3,0.1-0.7,0.3-1c0.2-0.3,0.3-0.6,0.5-0.9c0.3-0.3,0.6-0.7,1-1c0.3-0.2,0.7-0.4,1-0.6c0.4-0.2,0.8-0.3,1.3-0.3l-0.3,0.1
		c0.4,0,0.9-0.2,1.2-0.5c0.3-0.3,0.5-0.8,0.5-1.2c0-0.5-0.2-0.9-0.5-1.2C140.4,68.9,139.9,68.7,139.5,68.7z"/>
	<path style="stroke:#000000;stroke-width:3;stroke-linecap:round;stroke-linejoin:round;stroke-miterlimit:10;" d="M290.7,123.7
		c-1.8-3.1-4.8-5.4-7.6-7.5c-2.1-1.5-4.4-3.1-6.3-5c4.3,0.3,8.6,0.8,12.7-0.2c0.9-0.2,1.4-1.2,1.2-2.1c-0.3-1-1.2-1.3-2.1-1.2
		c-0.3,0-0.6-0.1-0.9-0.5c-0.4-0.9-0.8-1.8-1-2.7c-0.6-2.3-1-4.9-2.5-6.8c-1.5-2-3.5-2.6-5.6-3.2c-1.2-0.3-2.4-0.6-3.6-0.8l0.3-0.1
		c2.1-0.2,4.3-0.1,5.9-1.5c1.7-1.4,2.5-4.7,2.4-7.2c0-0.9-0.8-1.8-1.7-1.7c-3.9,0.1-7.8,0.8-11.7,1.3l-2.1,0.2h-1.6l-0.6-0.2
		c0,0,0,0-0.1,0v-0.1c0-0.4,0-0.9,0.2-1.3c0.3-0.9,0.8-1.8,0.9-2.7c0.2-2.2-0.9-4.3-2.1-6c-1.2-1.8-1.8-2.8-3.2-3.7
		c-1.3-0.7-2.7-1.3-4.2-1.6l-1.6-0.4l1.5-0.1c1.7,0,3.4,0.1,5,0.5c1.3,0.3,2.7,0.8,3.5,1.6c0.8,0.8,3.3,0,2.9-1.7
		c-1.1-3.8-4.4-6.1-7.8-7.7c-3.4-1.6-7.3-2.3-11.2-3c-1.8-0.3-3.7-0.7-5.4-1.6c-1.6-0.9-2.5-2-3.5-3.3l-0.9-1.3c2.9,0.5,6,0,8.6-1.4
		c2.9-1.6,5.3-4.2,7.4-6.8c0.7-0.7,0.6-1.8-0.1-2.5c-0.3-0.3-0.7-0.4-1.1-0.4c-3.2-0.2-5.9,0.9-9,1.7c-1,0.3-2.1,0.4-3.1,0
		c-1.1-0.5-2.1-1.4-2.6-2.6c-0.8-1.3-1.3-2.8-2.1-4.1c-0.8-1.3-1.9-2.4-3.3-3.2c-3.1-1.8-6.8-2.5-10.4-2.4c-2.9,0.1-5.7,0.4-8.5,1
		c1-1.7,2.1-3.3,3.3-4.8c0.8-1,1.8-1.9,3-2.4c1.4-0.6,2.9-0.6,4.3-0.5c0.8,0.1,1.6-0.7,1.7-1.5c0.1-0.8-0.4-1.5-1.2-1.9
		c-4.7-2-9.7-4.4-15-2.9c-5.3,1.5-9.7,6.2-14.4,9.2c-1.6,1.1-3.3,2-5.2,2.7c1.4-3.7,1.4-7.8,0.1-11.5c-0.6-1.8-3.3-1.6-3.4,0.4
		c-0.1,2-1.4,5.1-3.3,6.8c-0.7,0.7-1.7,1.3-2.6,1.3c-0.9,0-1.5-0.5-2.2-0.8c-5.4-2.1-11.2-0.1-16.5,1.2c-1.4,0.3-2.7,0.7-4,1.3
		c-0.9,0.5-1.8,1.1-2.5,1.9c-3.5-3.1-8.5-3.9-13.1-3.8c-5.8,0.1-12.3,1.6-17.6-1.7c-2.1-1.3-3.9-3.5-4-6.1c-0.1-2-2.7-2.2-3.4-0.4
		c-1.3,3.8-1.3,7.9,0.2,11.7c-4.4-1.3-8.4-3.9-12.6-5.8c-5.6-2.6-11.6-3.8-17.8-3.3c-3.5,0.3-6.9,1.1-10.2,2.4
		c-0.8,0.3-1.4,1-1.2,1.9c0.1,0.9,0.8,1.6,1.7,1.5C86,25.3,91.7,27.2,96,31c-4.8-0.9-9.9-1.3-14.5,0.2c-3.4,1.1-6,3.3-8.4,5.9
		c-2.4,2.6-4.9,4.7-7.9,6.3c-3.3,1.8-6.9,2.8-10.6,3.1c-1.5,0.1-2.2,1.8-1.2,2.9c3.8,4.4,9.9,4.5,15.2,3.6l1.5-0.3
		c-3.1,1.3-6.2,2.9-9.3,4.3c-3.1,1.4-6.6,3-9.8,4.6c-3.2,1.7-5.8,3.8-6.8,7.2c-0.4,1.7,1.6,2.9,2.9,1.7c2.2-2,5.3-2.7,8.1-2
		c-1.1,0.6-2.1,1.4-2.9,2.3c-2.2,2.4-3.3,5.6-5,8.3c-2.9,4.6-8.2,6.4-13.3,7.1c-3,0.5-6.1,0.5-9.2,0.6c-0.9,0-1.7,0.8-1.7,1.7
		c0,3.8,3.6,5.9,7,6.6c1.5,0.3,3.4,0.3,5.2,0.6c-2.7,1.1-5,3.3-6.8,5.5c-1.8,2.2-2.7,3.6-4.4,5.1c-1.7,1.5-3.3,2.5-5.4,2.2
		c-0.9-0.1-1.8,0.2-2.1,1.2c-0.3,0.9,0.3,1.9,1.2,2.1c0,0,0,0,0,0c3.3,0.8,6.7,1.3,10.1,1.4c-5.3,10.6-9.1,22.6-4.1,34
		c1.3,3,3.2,5.6,5.6,7.8c1.2,1.1,3.5,0.1,2.9-1.6c-0.6-1.8-0.5-3.8,0.2-5.6c2.1,12,8.1,22.9,13.4,33.7c1.8,3.7,3.7,7.4,5.5,11.2
		c0.3,0.5,0.8,0.8,1.4,0.8c0.8,5.1,2.7,10,6.7,13.5c2.4,2.2,5.5,3.5,8.7,3.8c1.1,0.1,2-1.2,1.6-2.2c-1.2-3.5-1.3-7.2-0.5-10.8
		c4.1,8.3,10.8,15.2,19.1,19.4c2.7,1.4,5.6,2.5,8.6,3.3c1.6,0.4,2.9-1.6,1.6-2.9c-2.5-2.6-3.9-6.2-3.6-9.9c0.1-2.2-3.3-2.2-3.4,0
		c-0.1,2.7,0.4,5.4,1.5,7.8c-7.6-3.1-14-8.5-18.5-15.4c-1.5-2.4-2.8-4.9-3.8-7.6c-0.5-1.2-2.4-1.9-3.2-0.4
		c-2.2,4.5-2.9,9.7-1.9,14.6c-3.7-1.3-6.7-4.7-8.2-8.3c-2.5-5.7-1.9-12.4-1.4-18.4c0.3-3.9,0.6-7.8,0.9-11.6c0-0.9-0.6-1.6-1.5-1.7
		c-0.9-0.1-1.5,0.4-1.9,1.2c-1.9,4.9-3,10.1-3.1,15.4c-1.9-3.8-3.8-7.7-5.7-11.6c-2.9-5.8-5.6-11.6-7.5-17.8
		c-1.1-3.5-1.8-7.1-2.1-10.7c0-1-0.9-1.7-1.8-1.7c-0.4,0-0.8,0.2-1.1,0.5c-2,1.7-3.4,4.1-3.8,6.7c-1.9-2.9-3.1-6.2-3.5-9.7
		c-0.8-5.8,0.5-11.6,2.6-17.1c1.3-3.3,2.8-6.5,4.5-9.7c0.5-0.9,0.2-1.9-0.7-2.4c-0.2-0.1-0.5-0.2-0.8-0.2c-1.8,0-3.5-0.1-5.3-0.3
		c1.5-1.2,2.9-2.5,4-4.1c2.4-3,5.9-8.2,10.4-6.8c1.5,0.5,2.6-1.2,2-2.5c-1.8-3.3-5.6-3.9-8.9-4.2c-1.5-0.1-4.4-0.5-5.7-1.8
		c4.6-0.1,9.4-0.5,13.7-2.1c2.5-0.9,4.9-2.3,6.9-4.1c2.3-2.2,3.5-4.9,5-7.7c1.4-2.7,3.6-6,6.8-5.5c0.8,0.1,1.5-0.1,1.9-0.8
		c0.4-0.7,0.3-1.5-0.3-2.1c-2.4-2.3-5.6-3.4-8.9-3.2l0.3-0.2c2.9-1.6,6-2.9,9-4.3c6.1-2.9,12.4-6.5,19.2-7.6
		c3.9-0.6,7.9-0.1,11.7,0.6c0.9,0.2,1.9-0.4,2.1-1.3c0.1-0.5,0-1.1-0.4-1.5c-3.8-4.4-9.9-4.5-15.2-3.6S68.5,50.1,63,50
		c-1.4,0-2.8-0.3-4.2-0.8c5.2-1.2,10-3.6,13.9-7.1c2.6-2.3,4.6-5.3,7.7-6.9c3.1-1.6,5.7-1.7,8.7-1.6c3.7,0.1,7.3,0.9,11,1.8
		c1.4,0.3,2.8-1.2,1.9-2.5c-2.9-4.4-7.2-7.7-12.2-9.3c2.8-0.3,5.7-0.2,8.4,0.3c2.8,0.5,5.6,1.4,8.2,2.7c2.6,1.2,5.2,2.7,7.8,3.9
		c2.6,1.2,6.1,2.5,9.4,2.9c1.3,0.2,2.2-1.5,1.5-2.6c-1.3-1.9-2.1-4-2.3-6.3c2,2.2,4.7,3.8,7.6,4.5c6.3,1.5,12.8-0.6,19.1,0.5
		c2.9,0.5,5.6,1.6,7.5,3.9c0.7,0.7,1.7,0.7,2.4,0c0.9-1.1,1.8-2.1,3.1-2.7c1.2-0.6,2.3-0.7,3.4-1c3.4-0.9,6.6-1.9,10.1-1.9
		c1,0,2,0.1,3,0.3l1.1,0.3l0.3,0.1l0.4,0.2c2.7,1.3,5.5,0.4,7.7-1.6c0.5-0.5,1.1-1.1,1.5-1.7c-0.3,1.9-1.1,3.6-2.2,5.2
		c-0.7,1,0.2,2.7,1.5,2.6c5.7-0.6,10.3-3.9,14.8-7.4c3.9-3,8.2-6.7,13.5-5.7c0.9,0.2,1.9,0.5,2.8,0.8c-1.2,0.6-2.4,1.4-3.3,2.5
		c-2.5,2.8-4.2,6.3-6.2,9.4c-0.9,1.3,0.5,2.9,1.9,2.5c6.5-1.5,14.3-3.4,20.4,0.3c2.5,1.5,3,4.6,4.5,6.9s4.6,3.9,7.6,3.5
		c1.5-0.2,2.9-0.8,4.3-1.2l0.9-0.2c-1.2,1.2-2.6,2.3-4.1,3.1c-2.9,1.5-5.7,0.9-8.7-0.1l-2.8-1.1c-0.5-0.3-1.1-0.7-1.7-0.9
		c-1.6-0.7-3.4-1.1-5.2-1.2c-3-0.5-5.9,0-8.2,2.6c-0.6,0.6-0.7,1.5-0.1,2.2c0.5,0.6,1.5,1,2.2,0.4c1.7-1.2,3.7-1.9,5.8-1.9
		c0.7,0.1,1.3,0.3,2,0.5c1.2,0.4,2.5,0.8,3.7,1.3c2.1,1.5,3.5,3.7,5,5.8c1,1.3,2.1,2.5,3.4,3.5c1.4,1,3.2,1.6,4.9,2.1
		c3.5,0.9,7.3,1,10.7,2.2c1.4,0.5,2.7,1.2,3.9,2c-1.3-0.2-2.7-0.2-4-0.2c-3.7,0.1-8.2,0.7-11,3.4c-1.4,1.3,0.1,3.1,1.7,2.9
		c-0.5,0.1,0.3,0,0.4,0h0.9l2.1,0.1c1.6,0.1,3.1,0.4,4.6,0.8c1.3,0.3,2.6,0.7,3.8,1.4l0.3,0.2l0.1,0.1l0.1,0.1l0.4,0.5
		c0.7,0.9,1.3,1.8,1.9,2.7s1,1.7,0.9,2.6s-0.5,1.5-0.7,2.3c-0.2,0.8-0.6,2.7,0,3.9c1.1,2.3,4.2,2.2,6.3,2.1c3.7-0.3,7.3-1,11-1.3
		c-0.1,1.4-0.6,2.9-2.1,3.2s-3.4,0.3-5.1,0.6c-2.2,0.2-4.3,0.7-6.4,1.3c-1.6,0.5-3.6,1.3-4.5,2.9c-0.9,1.6,0.4,3,1.9,2.5
		c1.5-0.5,3.9-0.7,6.1-0.6c2.5,0,5.1,0.4,7.5,1.1c1,0.2,1.9,0.7,2.8,1.1c0.7,0.4,1.2,1,1.5,1.6c1,2,1.2,4.3,1.9,6.4
		c0.1,0.4,0.3,0.8,0.5,1.2c-1.1,0-2.2,0-3.3-0.1c-2.6-0.1-5.2-0.3-7.8-0.3c-1,0-1.7,0.8-1.7,1.7c0,0.3,0.1,0.6,0.2,0.9
		c3.3,6.1,10.6,8.6,14.9,13.8c2,2.4,2,4.9,1.9,7.9c-0.1,3.7-0.7,7.4-1.8,11c-0.5,2-1.3,3.9-2.2,5.8c-0.1-1.4-0.3-2.7-0.5-4.2
		c-0.6-4-1.4-8.1-2.8-11.9c-0.5-1.4-1.1-3.2-2.3-4.2c-1.2-1-3.1-0.4-2.9,1.2c0.8,9.4,2.9,18.7,2.1,28.2c-0.7,8.7-4.2,16.2-9.2,23.3
		c-1.8,2.5-3.8,5.1-6.3,7.1c0.5-3.8,0.9-7.7,1.1-11.5c0.2-5,0.3-10.6-1.6-15.4c-0.8-2-3.8-1.3-3.3,0.9c0.1,0.2,0.1,0.5,0.1,0.1
		c0,0.2,0,0.4,0,0.6s0,1,0,1.5c0,0.5-0.1,1.2-0.1,1.8c-0.1,0.6-0.1,1.1-0.2,1.9c-0.5,3.4-1.2,6.8-2.1,10.1s-1.7,6.6-2.7,9.8
		c-0.1-3.1-0.6-6.2-1.5-9.1c-0.7-2.2-1.8-4.5-3.4-6.1c-1-1-2.4-0.4-2.9,0.8c-2.5,6.9-4.4,14-6.8,20.9c-2.6,7.6-5.5,15.6-10.3,22.2
		c-0.6,0.8-1.3,1.6-2,2.4c0.1-0.5,0.3-0.9,0.4-1.4c0.7-2.7,1.2-5.6,1-8.4c-0.1-2.2-3.5-2.2-3.4,0c0.1,2.4-0.2,4.8-0.8,7.2
		c-0.5,2.2-1.3,4.6-2.9,6.3c-1.6,1.6,0,3.3,1.6,2.9c3.1-0.8,5.6-3,7.6-5.3c2.5-3,4.5-6.5,6.2-10c3.8-7.9,6.5-16.3,9.1-24.7
		c0.8-2.6,1.6-5.2,2.4-7.7c0.2,0.5,0.4,1,0.6,1.4c0.7,2,1.1,4.1,1.3,6.1c0.4,4.3,0.3,8.8-1,12.9c-0.2,0.9-0.6,1.7-1.1,2.5l-0.4,0.6
		c-0.1,0.1-0.1,0.2-0.2,0.3h0l-0.4,0.4c-0.1,0.1-0.5,0.5-0.3,0.3c-1.3,1-0.9,3.1,0.9,3.2c1.8,0.1,3.6-2.4,4.5-3.9
		c1.6-2.9,2.7-6,3.8-9.1c1.7-4.9,3.2-10,4.3-15.1c-0.3,4.7-0.8,9.4-1.5,14.1c-0.2,1.4,1.1,2.7,2.5,2c3.7-2.1,6.7-5.4,9.2-8.7
		c2.5-3.3,4.8-6.8,6.6-10.6c3-6,4.3-12.3,4.5-18.9c0.7,0.4,1.6,0.4,2.2-0.1c2.7-2.4,4.4-6,5.6-9.4c1.3-3.9,2.1-8,2.4-12.1
		C292.1,130.4,292.3,126.7,290.7,123.7z M260.3,73.6L260.3,73.6C260.5,73.8,260.4,73.7,260.3,73.6z M266.1,84.4L266.1,84.4
		C266.1,84.4,266.1,84.3,266.1,84.4C266.2,84.4,266.2,84.4,266.1,84.4z"/>
	<path style="stroke:#000000;stroke-width:3;stroke-linecap:round;stroke-linejoin:round;stroke-miterlimit:10;" d="M225.9,132.8
		l0.1,0.3c0.1,0.2,0.2,0.4,0.2,0.6c0.2,0.4,0.3,0.8,0.4,1.2c0.2,0.7,0.4,1.4,0.6,2.2l0.1,0.5v0.1c0.1,0.9,0.7,1.8,1.7,1.7
		s1.8-0.8,1.7-1.7c-0.4-3.6-2-7.1-3.7-10.3c-2.2-4.1-4.7-8.1-7.5-11.9c-3-4.3-6.1-8.4-9.4-12.5c-2.8-3.6-5.7-7.1-8.6-10.5l-3.7-4.5
		h0.2l0.4,0.1l1.5,0.3l1.5,0.5l0.6,0.2l0.2,0.1l0.3,0.2c1,0.4,1.9,0.9,2.9,1.5c1,0.6,1.9,1.2,2.9,1.9l0.6,0.4h0.1c0,0,0,0,0.1,0
		c0.1,0.1,0.2,0.2,0.3,0.3l1.3,1.1c1.8,1.5,3.4,3.1,5,4.8c1.6,1.8,3.2,3.6,4.7,5.5c0.4,0.5,1.1,0.6,1.7,0.4c0.6-0.2,1-0.6,1.2-1.2
		c0.5-1.8,0.8-3.6,0.8-5.4c0.1-2.1,0-4.3-0.1-6.4c-0.4-4.5-1.3-9.1-3.1-13.4l-0.2-0.4c0.6,0.3,1.2,0.7,1.7,1.1l0.8,0.5l0.3,0.3
		l0.2,0.1l1.5,1.2l2.9,2.4c0.6,0.4,1.4,0.7,2.1,0.3c0.7-0.4,1-1.2,0.8-2c-1.6-5.5-4.8-10.4-9.1-14.3c-4.4-3.9-9.7-6.7-15.3-8.4
		l-0.2-0.1c2.7-0.2,5.5-0.3,8.2-0.5c0.8,0,1.4-0.5,1.6-1.2c0.2-0.7-0.1-1.6-0.8-2c-4.2-2.1-8.1-4.8-12.3-6.9c-2.1-1.1-4.3-2-6.6-2.7
		l-0.8-0.2l0.6-0.3l0.8-0.3l0.2-0.1l0.4-0.2l1.5-0.5c0.8-0.2,1.3-1,1.2-1.9c-0.1-0.9-0.8-1.4-1.7-1.5c-0.1,0-0.1,0-0.2,0h-0.3
		l-0.7-0.1l-1.4-0.2l-2.6-0.5c-1.7-0.3-3.3-0.6-5-0.8c-3.4-0.4-6.8-0.6-10.1,0.3c-2,0.5-3.9,1.4-5.7,2.6c-0.8,0.5-1.1,1.5-0.6,2.3
		c0.5,0.8,1.5,1.1,2.3,0.6c0.8-0.5,1.6-0.9,2.4-1.3l0.4-0.2l0.4-0.2l1.2-0.4c0.8-0.2,1.5-0.4,2.3-0.5c0.1,0,0.4-0.1,0.3-0.1
		c0.1,0,0.3,0,0.4,0l1.2-0.1c1.5,0,3.1,0,4.6,0.2h0.2l0.6,0.1l1.3,0.2l2.5,0.4h0.3l-1,0.5c-2.4,1.2-4.8,2.7-6.9,4.4
		c-1,0.8-1.9,1.7-2.6,2.8c-0.4,0.7-0.3,1.5,0.3,2.1c0.5,0.5,1.4,0.7,2.1,0.3c1.8-1.3,3.6-2.6,5.6-3.5l0.4-0.2h0.1l0.8-0.3l1.5-0.4
		h1.5l0.8,0.2c1.1,0.2,2.1,0.6,3.1,1l0.4,0.1l0.1,0.1l0.7,0.3l1.6,0.8c2.1,1,4.1,2.2,6.1,3.4l1.4,0.8l-3,0.2
		c-3.1,0.3-6.2,0.7-9.1,1.8c-0.8,0.3-1.4,1-1.2,1.9c0.1,0.8,0.8,1.5,1.7,1.5l2,0.2l0.5,0.1h0.2l1,0.1c1.4,0.2,2.7,0.5,4.1,0.9
		c1.3,0.3,2.6,0.8,3.9,1.3l1,0.4l0.3,0.1l0.4,0.2l1.9,0.9c1.2,0.6,2.4,1.3,3.5,2l1.7,1.2l0.4,0.3h0c0,0,0,0,0,0l0,0l0,0l0.8,0.7
		c1,0.9,2,1.8,2.9,2.7l1.4,1.5c0.1,0.1,0.2,0.3,0.3,0.4l0.1,0.1h0c0.2,0.2,0.4,0.5,0.6,0.8c0.2,0.3,0.8,1.1,1.1,1.7
		c-2.6-1.9-5.4-3.4-8.7-3.7c-1.4-0.1-2.4,2-1.2,3c0.3,0.2,0.5,0.5,0.8,0.8l0.3,0.4l0.2,0.2c0.5,0.7,0.9,1.4,1.3,2.2
		c0.1,0.2,0.2,0.4,0.3,0.6h0l0.1,0.3l0.5,1.4c0.3,1,0.6,2,0.9,3c0.2,1,0.5,2.1,0.7,3.2c0.1,0.5,0.2,1.1,0.2,1.6v0.1
		c0,0.1,0,0.3,0.1,0.4l0.1,0.8c0.2,2.1,0.3,4.2,0.2,6.3l-0.1,1.6v0.2c-2.2-2.6-4.6-5-7.1-7.3c-3.6-3.1-7.6-5.9-12.2-7.3
		c-2.4-0.8-5-1-7.6-0.6c-0.6,0.2-1,0.6-1.2,1.2c-0.1,0.6,0,1.2,0.4,1.7c1.7,2.1,3.4,4.2,5.2,6.2c2.8,3.3,5.6,6.7,8.3,10.1l2.3,2.9
		l0.5,0.7c0.1,0.1,0.2,0.2,0.3,0.4c0.1,0,0.1,0.1,0.1,0.2c0,0,0.1,0.1,0.1,0.1c0.1,0.1,0.1,0.1,0.1,0.2c0.1,0.1,0.2,0.3,0.3,0.4
		l0.6,0.8c1.5,2,3.1,4.1,4.5,6.1c2.8,3.8,5.4,7.8,7.8,12C224.2,129.1,225.1,130.9,225.9,132.8z"/>
	<path style="stroke:#000000;stroke-width:3;stroke-linecap:round;stroke-linejoin:round;stroke-miterlimit:10;" d="M245.3,144.4
		c-0.7,1.6-1.5,3.1-2.6,4.5c-0.5,0.7-0.1,2,0.6,2.4s1.8,0.1,2.3-0.6c2.1-2.8,3.5-6.1,4.5-9.4c1.2-3.6,1.9-7.5,2.2-11.3
		c0-0.2,0-0.4,0-0.5c0,0.1,0,0.1,0,0.2c0.8,2.3,1.2,4.7,1.5,7.1c0,0.1,0.1,0.3,0.1,0.4v0.2c0,0.4,0.1,0.7,0.1,1.1
		c0,0.4,0.1,1,0.2,1.5c0.1,0.5,1.1,1.3,1.9,1.2c0.8-0.1,1.5-0.8,1.5-1.7c-0.2-5.3,1.3-10.6,0.7-16c-0.3-2.7-1.2-5.4-2.5-7.9
		c-1.3-2.3-2.8-4.5-4.5-6.5c-1.9-2.2-3.9-4.3-6-6.2c-0.7-0.6-1.8-0.5-2.4,0.2c-0.5,0.7-0.5,1.6,0,2.2c1.8,1.7,3.6,3.4,5.3,5.3
		c0.4,0.5,0.9,1,1.2,1.4l0.5,0.7l0.2,0.3l0.2,0.3c0.7,1,1.4,2,2,3.1c0.6,1,0.6,1.1,0.9,1.6c0.1,0.3,0.3,0.5,0.4,0.8
		c0,0.1,0.1,0.1,0.1,0.2l0.1,0.3c0.5,1.2,0.8,2.4,1,3.7v0.1c0,0.2,0,0.3,0.1,0.5c0,0.2,0,0.7,0.1,1c0,0.3,0,1.3,0,2
		c0,0.1,0,0.2,0,0.3c-0.2-0.6-0.6-1.2-1-1.8c-0.8-1.1-1.9-2.1-3.2-2.3c-0.6-0.2-1.2,0-1.7,0.4c-0.5,0.4-0.5,1-0.4,1.6
		c-0.1-0.6,0,0.1,0,0.2c0,0.1,0,0.3,0,0.5c0,0.1,0,0.8,0.1,1.2c0,0.4,0,1.6,0,2.4c0,0.8-0.1,1.7-0.2,2.6c0,0.1,0,0.2,0,0.3l-0.1,0.6
		c-0.1,0.4-0.1,0.9-0.2,1.4c-0.3,1.8-0.8,3.6-1.3,5.4c-0.3,0.9-0.5,1.7-0.9,2.5c-0.3,0.9-0.3,0.8-0.5,1.2l-0.1,0.2c0,0,0,0.1,0,0.1
		L245.3,144.4z"/>
	<path style="stroke:#000000;stroke-width:3;stroke-linecap:round;stroke-linejoin:round;stroke-miterlimit:10;" d="M183,57.7
		c-2.4-2.4-5.4-4.3-8.9-4.6c-2.1-0.2-4.2,0.4-6,1.4c-0.9,0.4-1.2,1.4-0.9,2.3c0.4,0.9,1.4,1.2,2.3,0.9c0.1,0,0.2-0.1,0.3-0.2
		l0.6-0.3h0.1l0.2-0.1l1.2-0.4l0.5-0.1h2l1,0.2l0.7,0.3h0.2l0.2,0.1l0.5,0.3c0.6,0.3,1.2,0.8,1.8,1.2l0.1,0.1l0.4,0.3l0.9,0.8
		c1.1,1.1,2.1,2.2,3,3.4l0.2,0.3L184,64l0.7,0.9c0.5,0.6,0.9,1.3,1.4,1.9c0.4,0.6,1.5,1.2,2.3,0.6c0.8-0.5,1.2-1.6,0.6-2.3
		C187.1,62.6,185.3,59.9,183,57.7z"/>
	<path style="stroke:#000000;stroke-width:3;stroke-linecap:round;stroke-linejoin:round;stroke-miterlimit:10;" d="M183.7,69.9
		c-0.7-0.9-1.5-1.8-2.4-2.5c-1.7-1.4-3.7-2.7-5.9-3.1c-0.4,0-0.9,0.2-1.2,0.5c-0.3,0.3-0.5,0.8-0.5,1.2c0,0.4,0.2,0.9,0.5,1.2
		c0.3,0.3,0.8,0.5,1.2,0.5c-0.7-0.1-0.1,0,0.1,0.1l0.5,0.2l0.3,0.1l0.6,0.3c0.4,0.2,0.8,0.5,1.2,0.8l0.3,0.2c0,0,0,0,0.1,0.1
		l0.5,0.4c0.4,0.3,0.7,0.7,1.1,1l0.5,0.5l0.3,0.3h0c0,0,0,0,0,0.1l0.1,0.1c0.2,0.3,0.4,0.5,0.5,0.8c0,0.1,0.1,0.2,0.1,0.2l0.1,0.4
		c0.2,0.9,1.1,1.4,2.1,1.2h0c0.9-0.2,1.4-1.2,1.2-2.1C184.7,71.6,184.3,70.7,183.7,69.9z"/>
</g>
</svg>
