<?xml version="1.0" encoding="utf-8"?>
<!-- Generator: Adobe Illustrator 27.9.0, SVG Export Plug-In . SVG Version: 6.00 Build 0)  -->
<svg version="1.1" id="Layer_1" xmlns="http://www.w3.org/2000/svg" xmlns:xlink="http://www.w3.org/1999/xlink" x="0px" y="0px"
	 viewBox="0 0 369.9 180.8" style="enable-background:new 0 0 369.9 180.8;" xml:space="preserve">
<g>
	<path style="stroke:#000000;stroke-width:3;stroke-linecap:round;stroke-linejoin:round;stroke-miterlimit:10;" d="M352.6,79.2
		c-4.2-6.5-11.6-10.7-18.2-14.3c-7.3-3.9-15-6.8-23-9c-8-2.3-15.7-4-23-7.5c-3.9-1.8-7.3-4.2-10.7-6.8c-3.4-2.6-7.1-4.8-10.9-6.6
		c-3.8-1.7-7.5-3.7-11-5.9c-3.2-2.1-6.3-4.3-9.6-6.3c-3.1-2-6.5-3.7-10.1-4.9c-4.1-1.3-8.4-1.7-12.7-1.7c-9.5,0.1-19,0.8-28.4,1.3
		c-9.4,0.4-18.6,1.3-27.9,0.8c-9.3-0.6-17.6-1.5-26.5-0.7c-6.8,0.6-13.9,1.9-19.9,5.5c-2.1,1.3-4.1,2.9-5.8,4.8
		c-0.2,0-0.3,0.1-0.5,0.2l-0.5,0.3c-5.1-1.9-10.6-1.8-15.7,0.2c-5.7,2.3-10.3,6.8-15.5,10.1C71.9,45.1,60,49.8,48,54
		c-5.7,2-11.7,3.6-17.3,6.1c-5,2.1-9.5,5.3-12.1,10.2c-5.1,9.4-2.4,21.2,2.7,29.9c6.2,10.7,15.5,19.2,20.9,30.5
		c2.7,5.8,4.6,11.9,5.4,18.3c0.4,2.8,0.2,5.6,0.6,8.4c0.3,2,1.1,4.3,3.1,5.2c2,1,4.9-0.6,6.6-2.4c1.8-2,3.3-4.2,4.6-6.5
		c2.6-5,4-10.4,5.3-15.8c2.9-12.1,6.4-23.9,11.2-35.4c4.9-11.6,10.8-22.6,17.6-33.1c3.5-5.3,7.2-10.4,11.1-15.4
		c3.8-4.9,7.7-10.1,9-16.3c0.5-2.5,0.6-5.1,0.1-7.6c6-6.9,15.9-8.8,24.5-9.5c12.1-0.9,24,1.4,36,1c12.6-0.5,25.2-1.3,37.8-1.9
		c6.1-0.3,12.5-0.9,18.4,0.8c4.9,1.3,9.3,4,13.5,6.7c4.2,2.8,8.6,5.9,13.2,8.3l1.5,0.7c-0.3,3.4,1.6,6.3,3.8,9
		c2.2,2.6,5,6.1,7.1,9.6c4.2,6.7,7.5,14,11.2,21.1c3.7,7,8.8,13.8,13.8,20.5c5,6.7,9,13.9,11.2,22.2c2.2,8.2,3,16.5,3.6,24.9
		c0.3,3.8,0.4,7.6,1.1,11.3c0.4,1.9,0.9,3.7,1.7,5.4c0.6,1.3,1.5,3.6,3.1,3.9c3,0.7,4.3-2.9,4.6-5.2c0.4-4,1.6-7.9,3.6-11.3
		s4.3-6.7,6.4-10s4.8-7.8,7.1-11.8c4.3-7.7,8.7-15.5,12.2-23.6C355.4,94.6,357.2,86.3,352.6,79.2z M51.3,156.9
		c-0.1-1.1-0.1-2.4-0.1-3.1c-0.6-11.7-4.3-23-10.8-32.7c-3.2-4.8-6.9-9.2-10.4-13.8c-6.3-8.3-12.1-18-10.7-28.9
		c0.7-5,3.2-9.6,7.4-12.5c4.2-2.9,9.9-4.7,15-6.4c11.2-3.7,22.4-7.7,33-13c5.3-2.7,10.3-5.7,15.1-9.2c4.8-3.6,9.5-7.2,15.8-7.4
		c1.7,0,3.5,0.1,5.2,0.6c-5.1,4.6-8.2,11.1-11.5,17.1c-4.8,8.8-11.6,16.2-17.1,24.5c-10.9,16.7-17.8,35.6-23.6,54.6
		c-1.7,5.4-3.2,10.9-4.7,16.4C52.7,147.6,51.5,152.2,51.3,156.9z M109.2,46.6c-3.3,5-7.3,9.5-10.7,14.3
		C84.9,80,74.6,101.2,68.1,123.7c-1.5,5.4-2.7,10.8-4.1,16.3c-1.4,5.4-2.9,10.2-5.8,14.6c-0.6,0.9-2.2,3.4-3.7,4.6
		c-0.1-4.7,1-9.2,2.2-13.7s2.7-9.5,4.1-14.3c2.7-9.4,5.7-18.6,9.2-27.7s7.7-17.9,12.8-26.2c2.5-4.1,5.3-8.1,8.2-11.9
		c3.1-4,6.3-8,8.9-12.4c4.3-7.1,7.4-15.9,14.1-21.2C114.5,37.1,112.1,42.2,109.2,46.6z M293.2,84.8c-5.1-7.3-8.8-15.5-13-23.4
		c-2.2-4.4-4.8-8.7-7.7-12.8c-1.5-2-3.1-3.9-4.7-5.8c-1.1-1.3-2.2-2.8-2.7-4.4c6.3,4,11.1,10.2,15.4,16.3c5,7.2,9.5,14.8,13.4,22.7
		c3.6,7.1,6.8,14.5,9.8,21.8C300.5,94.3,296.7,89.7,293.2,84.8z M316.2,148.8c-0.4-4.6-0.6-9.2-1.1-13.8c-0.4-3.7-0.9-7.3-1.5-10.9
		c0.4,1.1,0.7,2.1,1,3.2c3.2,10.4,3.3,21.5,4.2,32.2C317,156.3,316.4,152.5,316.2,148.8z M351.4,94.8c-1.5,5.6-4.4,10.7-7,15.8
		c-2.6,5.1-5.6,10.7-8.6,16c-3,5.2-6.1,9.9-9.4,14.8c-2,3.1-3.9,6.3-5.1,9.8c-0.5-7.1-1-14.2-2.7-21c-2.2-9-6.1-17.8-9.6-26.4
		c-6.7-16.9-14.1-33.7-24.3-48.7c-2.2-3.3-4.6-6.6-7.2-9.7c3.8,2.8,7.7,5.2,12.2,7.1s10.2,3.6,15.4,5c10.9,3,21.3,6.3,31,12.1
		c4.5,2.7,9.3,5.6,12.6,9.7C352.1,83.3,352.9,89.3,351.4,94.8L351.4,94.8z"/>
</g>
</svg>
