<?xml version="1.0" encoding="utf-8"?>
<!-- Generator: Adobe Illustrator 27.9.0, SVG Export Plug-In . SVG Version: 6.00 Build 0)  -->
<svg version="1.1" id="Layer_1" xmlns="http://www.w3.org/2000/svg" xmlns:xlink="http://www.w3.org/1999/xlink" x="0px" y="0px"
	 viewBox="0 0 346.4 265.7" style="enable-background:new 0 0 346.4 265.7;" xml:space="preserve">
<g>
	<path style="stroke:#000000;stroke-width:3;stroke-linecap:round;stroke-linejoin:round;stroke-miterlimit:10;" d="M103.9,111
		c-0.4-0.9-1.9-1.2-2.7-0.7c-0.8,0.5-1.1,1.6-0.7,2.5c0,0,0.1,0.1,0.1,0.2l0.1,0.3c0.1,0.2,0.2,0.4,0.3,0.7c0.1,0.2,0.4,1,0.5,1.5
		c0.2,0.5,0.7,1.9,0.9,2.9c0.6,1.9,1,3.8,1.4,5.7c0.1,0.5,0.2,0.9,0.3,1.4c0.1,0.5,0,0.5,0.1,0.7c0,0.2,0,0.2,0.1,0.3s0,0.2,0,0.2
		c0.1,1,0.2,2,0.3,3c0.1,1.9,0.2,3.9,0.1,5.8c0,1-0.1,2-0.2,3c-0.1,1-0.1,0.9-0.2,1.4c0,0.5,0,0.4-0.1,0.6v0.1c0,0.2,0,0.3-0.1,0.5
		c-0.2,0.9-0.3,1.8-0.6,2.7c-0.2,0.9-0.3,0.9-0.4,1.3l-0.1,0.3l-0.1,0.2l-0.1,0.2l-0.2,0.4c-0.4,0.8-0.9,1.6-1.5,2.3
		c0,0,0,0.1-0.1,0.1c0,0-0.1,0.1-0.1,0.1c-0.2,0.2-0.3,0.3-0.4,0.5l-0.9,1.1c-1.2,1.4-2.4,2.9-3.2,4.5c-0.8,1.7-1.3,3.8-1.7,5.8
		c-0.2,0.9-0.3,1.8-0.5,2.7l-0.3,1.3c-0.1,0.2-0.2,0.4-0.2,0.6l-0.1,0.3c0.1,0-1,2-1.2,2.1c-0.2,0.2,0,0.1-0.1,0.2l-0.4,0.4
		l-0.4,0.4l-0.2,0.2h0l-0.9,0.5h-0.2l-0.6,0.2h-0.9l-0.6-0.2l-0.3-0.1l-0.2-0.1h0l-0.3-0.1l-1.1-0.5c-1-0.5-2-0.8-3.1-0.9
		c-2-0.2-3.8,1-4.9,2.6c-1,1.5-1.4,3.3-1.3,5c0,1.1,0.2,2.2,0.4,3.3l0.1,0.7c0,0.1,0,0.2,0,0.3c0,0.1,0,0,0,0l0.1,1.6
		c0,2.1-0.6,4.1-0.4,6.2s0.9,4.3,1.4,6.5c1,4.2,2.1,8.4,3.2,12.6l0.8,3.1c0.3,1,1.3,1.6,2.3,1.4h0c1-0.3,1.6-1.4,1.4-2.4
		c-1-4.2-2.1-8.5-3.2-12.7c-0.5-2.1-1-4.2-1.6-6.3c-0.1-0.5-0.2-1-0.3-1.4c-0.1-0.5-0.1-0.5-0.2-0.7c0-0.1,0-0.2,0-0.1
		c0-0.1,0-0.3,0-0.5c0-1,0-2,0.2-3c0.2-1,0.2-2.1,0.2-3.1c-0.1-1.1-0.2-2.2-0.4-3.3l-0.1-0.7c0-0.1,0-0.2,0-0.3v-0.1
		c-0.1-0.5-0.1-1.1-0.1-1.7c0-0.2,0-0.3,0-0.5l0,0l0,0l0,0c0,0,0-0.1,0-0.2l0.1-0.5c0-0.1,0.1-0.2,0.1-0.3c0,0,0,0,0-0.1
		c0-0.1,0-0.1,0-0.2c0,0,0.1-0.1,0.1-0.2l0.3-0.5l0.1-0.1c0.1-0.2,0.2-0.3,0.4-0.4c-0.1,0.2,0.1,0,0.2-0.1l0.1-0.1h0.1
		c0.1,0,0.1,0,0,0l0.3-0.1H83l0.5,0.2l0.5,0.2l0.3,0.2c0.9,0.4,1.7,0.9,2.7,1.2c3.8,1.2,7.4-1.3,9.3-4.4c1.9-3.1,2-7.2,3.1-10.8
		c0-0.2,0.1-0.4,0.2-0.6l0.1-0.3c0.2-0.4,0.4-0.9,0.7-1.2c0.2-0.4,0.5-0.8,0.7-1.1l0.3-0.5l0.2-0.3c1.2-1.5,2.5-2.9,3.5-4.5
		c2.2-3.5,2.8-7.6,3.1-11.6c0.6-8.1-0.5-16.2-3.3-23.8C104.7,113.1,104.4,112.1,103.9,111z"/>
	<path style="stroke:#000000;stroke-width:3;stroke-linecap:round;stroke-linejoin:round;stroke-miterlimit:10;" d="M316,96.4
		c-1.2-7.6-4.9-14.4-7.6-21.5c-1.4-3.5-2.5-7.2-3-10.9c-0.5-3.8-0.4-8.5-0.7-12.8c-0.5-6.9-2.2-14.4-7.8-19.1
		c-2.6-2.3-5.9-3.6-9.3-3.7c-3.8-0.1-7.4,1.4-10.6,3.3c-3.2,1.9-6.2,4.6-9.1,7.3c-2.9,2.6-5.5,5.1-8.2,7.8
		c-10.8,10.7-20.7,22.6-26.7,36.7c-3.1,7.5-5.3,15.4-9.1,22.6c-3.5,6.6-8.4,12.4-10.4,19.7c-0.8,2.9-0.9,5.9-2.1,8.7
		c-0.5,1.2-1.3,2.1-2.3,2.8c-1.5,0.8-3.3,0.6-4.9,0.3c-4.1-0.7-8-1.4-12.2-1.3s-8.4,0.5-12.5,1c-4.1,0.5-8.5,1-12.7,1.1
		c-3.6,0.1-7.2-0.2-10.7-0.4c-7.1-0.4-14.4-1-21.3,0.7c-1.9,0.5-3.8,1.2-5.6,2.1c0.3-5.1-1.1-10.2-3.3-14.9c-2.8-5.8-7-10.8-11-15.8
		c-4-5.1-7.7-10.5-11.1-16.1c-3.4-5.7-6.7-11.4-10.3-17c-7.3-11-15.3-21.5-24-31.3c-3.8-4.3-7.9-8.6-13.1-11.1
		c-5.2-2.6-11.9-3.6-16.9,0c-4.1,3-5.9,8-6.8,12.9c-1.2,6.3-1.5,12.8-2.1,19.2c-0.7,7.1-1.4,14.2-2.1,21.2
		c-0.7,7.1-1.4,13.8-1.8,20.7c-0.3,6.9-0.3,13.8,0.7,20.6c0.9,6.8,3,13.5,5.2,20.2c2.2,6.7,4.1,13.1,6.4,19.6
		c2.2,6.5,4.4,12.2,7.7,17.7c2.9,5,6.8,9.3,11.4,12.8c2.3,1.7,4.8,3.1,7.4,4c1.3,0.5,2.7,0.9,4.1,1.2c1.4,0.4,2.4,0.7,3.3,1.8
		c0.9,1,1.5,2.2,2.3,3.4c0.8,1.1,1.7,2.3,2.6,3.4c1.7,2.1,3.5,4.2,4.7,6.7c2.7,5.3,0.6,11.1-0.3,16.5c-0.5,3-0.8,5.9-0.2,8.9
		c0.2,1,1.4,1.6,2.4,1.4c0.9-0.3,1.6-1.3,1.4-2.4c-1-5.7,1.6-11.4,2-16.9c0.3-2.9-0.2-5.9-1.4-8.5c-1.1-2.5-2.9-4.7-4.6-6.9
		c-1.7-2.2-3.1-4.1-4.6-6.2c-0.7-1.2-1.7-2.3-2.8-3.2c-1.2-0.9-2.7-1.3-4.2-1.7c-5.2-1.3-10-4-13.7-7.8c-8.6-8.6-12.3-20.6-16-31.8
		c-2.1-6.4-4.2-12.8-6.2-19.3c-2.1-6.4-3.3-13-3.7-19.7c-0.8-13.5,1.1-27,2.4-40.4L35,60.9c0.5-5.5,0.7-11.1,2.3-16.4
		c1.4-4.6,4.3-8.4,9.5-8.5c5.2-0.1,10.2,2.9,14.1,6.4c4.5,4,8.3,8.8,12.1,13.5c3.8,4.6,7.9,9.9,11.6,15c3.7,5.2,7.3,10.7,10.6,16.3
		s6.5,11.2,10.1,16.6c3.6,5.4,7.6,9.9,11.3,14.9c3.7,5,6.9,10.2,8.2,16.4c0.5,2.8,0.5,5.5,0,8.3c0,0.2,0,0.3,0,0.4
		c-0.3,0.6-0.3,1.3,0,1.9c0.5,0.9,1.8,1.3,2.6,0.7c5.6-4.1,12.4-4.9,19.2-4.8s14.2,1.1,21.3,0.8c8.4-0.3,16.6-2.1,25.1-2.1
		c2,0,4,0.1,6,0.4c1.9,0.3,3.8,0.8,5.8,1c3.6,0.5,7.1-0.6,9.2-3.6c1.7-2.4,2.2-5.5,2.7-8.4c0.6-3.4,1.8-6.6,3.5-9.7
		c1.7-3.2,3.8-6.2,5.7-9.4c2-3.5,3.8-7.1,5.2-10.8c2.9-7.3,5.2-14.7,8.9-21.7c3.6-6.4,7.8-12.5,12.7-18c4.9-5.7,10.2-11,15.7-16.1
		c2.7-2.5,5.4-5.2,8.4-7.3c3-2.2,6.1-4,9.5-4.2c6.6-0.5,11.1,4.7,13,10.4c2.6,7.7,1.2,16.1,2.7,24s4.9,14,7.6,20.9
		c1.3,3.4,2.5,7,2.9,10.6c0.4,3.7,0.2,7.5-0.4,11.2c-1.3,7.7-4,15.1-5.6,22.7c-0.8,4-1.2,8.1-1.3,12.2c-0.1,4-0.1,7.9-1,11.7
		c-3.2,14.2-14,25-23.9,35c-5,5.1-10,10.4-13.3,16.7c-0.5,0.9-0.9,1.7-1.3,2.6c-0.2-1-0.3-2-0.5-2.9l-2.1-11.8
		c-0.4-2.2-0.8-4.5-1.2-6.7c-0.3-1-1.4-1.6-2.4-1.4c-1,0.3-1.6,1.4-1.4,2.4c1.4,7.7,2.8,15.4,4.1,23c0.2,1,0.3,2.1,0.5,3.1
		c0,0.1,0,0.2,0,0.3h0v0.1c0,0.2,0,0.5,0,0.7c0,0.2,0,0.4,0,0.6v0.1l-0.1,0.5c-0.2,0.6-0.1,1.3,0.4,1.8c-0.3,3.2-0.2,6.4-0.1,9.6
		c0.1,3.9,0,7.7-1.1,11.5c-0.7,2.4,3,3.4,3.7,1c2.4-8,0.1-16.3,1.6-24.3c1.3-6.9,5.4-12.9,10-18.2c4.6-5.2,10.2-10.4,15.1-15.9
		c4.8-5.5,9.5-11.5,12.5-18.2c1.6-3.3,2.7-6.7,3.4-10.3c0.7-4.2,0.7-8.4,0.8-12.6c0.2-8.1,2.6-15.7,4.6-23.4
		C315.6,111.9,317.2,104.2,316,96.4z"/>
	<path style="stroke:#000000;stroke-width:3;stroke-linecap:round;stroke-linejoin:round;stroke-miterlimit:10;" d="M258.6,157.6
		h0.6c0.4,0,0.8,0,1.2,0h0.2l0.3,0.1c0.2,0.1,0.2,0.1,0.1,0l0.5,0.2c0.1,0.1,0.2,0.1,0.2,0.2c0,0.1,0.1,0.2,0.2,0.2l0.1,0.2
		c0,0,0,0.1,0.1,0.2c0,0.2,0.1,0.3,0.2,0.5l0.1,0.6c0,0.1,0,0.2,0,0.2c0,0.3,0,0.5,0,0.8c0,2-0.3,4-0.2,6c0.1,1.2,0.4,2.4,0.9,3.6
		c0.6,1.1,1.4,2.1,2.3,2.9c0.9,0.8,1.7,1.5,2.5,2.3l0.3,0.4h0l0.4,0.6c0.1,0.2,0.2,0.4,0.3,0.6c0,0.1,0,0.2,0.1,0.2
		c0,0.2,0.1,0.3,0.2,0.5s0,0.2,0.1,0.3v0.5c0,0,0,0.1,0,0.1v0c0,0,0,0.1,0,0.2c0,0.1-0.1,0.1-0.1,0.2l-0.1,0.1c0,0,0,0-0.1,0.1
		c-0.7,0.8-0.6,2.1,0.2,2.7c0.7,0.6,1.8,0.6,2.5,0c2-2.1,1.6-5.2,0.2-7.6c-0.7-1-1.5-2-2.4-2.8c-0.9-0.8-1.7-1.6-2.5-2.4h0l-0.2-0.3
		l-0.4-0.7c0-0.1,0-0.2-0.1-0.3c-0.1-0.3-0.2-0.5-0.2-0.8v-0.3c0-0.2,0-0.5-0.1-0.7s0-1.1,0-1.6c0.1-2.1,0.4-4.1-0.1-6.2
		c-0.5-2.2-2.2-4-4.5-4.5c-2-0.5-4.1,0-6.1,0.4l-1.4,0.3l-0.6,0.1H252c0,0-0.1,0-0.1,0h0l-0.3-0.1c0,0,0,0,0,0h-0.1l-0.1-0.1
		l-0.3-0.1l-0.2-0.2l-0.1-0.2c0,0-0.1-0.1-0.1-0.2l-0.1-0.2c0-0.1-0.1-0.3-0.1-0.4c-0.3-1.1-0.4-2.2-0.7-3.3c-1.2-4.3-5.5-6-8.8-8.3
		l-0.3-0.2h0l-0.2-0.2l-0.2-0.2c-0.4-0.3-0.7-0.7-1-1c0,0-0.3-0.3-0.1-0.1c0,0-0.1-0.1-0.1-0.1l-0.4-0.6c0-0.1-0.1-0.3-0.2-0.4
		c0-0.1-0.1-0.2-0.1-0.2c-0.1-0.3-0.2-0.5-0.3-0.9c-0.1-0.3-0.2-0.5-0.2-0.8c0-0.1,0-0.2-0.1-0.3v-0.1c-0.1-0.6-0.1-1.2-0.2-1.9
		c0-1.2-0.1-2.5-0.2-3.7c-0.1-1.3-0.3-2.6-0.8-3.8c-0.5-1.4-1.3-2.5-1.9-3.8l-0.4-0.8c0,0,0-0.1,0-0.1c0-0.2-0.1-0.3-0.2-0.5
		c-0.1-0.3-0.2-0.6-0.2-0.9c0-0.1,0-0.1,0-0.2c0,0,0-0.3,0-0.4c0-0.5,0-1,0-1.6c0-0.1,0.1-0.3,0.1-0.3c0-0.1,0-0.3,0.1-0.4
		c0.1-0.3,0.2-0.7,0.3-1l0.3-0.9l0.2-0.5c0,0,0,0,0-0.1c0.3-0.7,0.6-1.3,1-1.9c0.3-0.6,1.3-2.2,2-3.3c1.5-2.2,3-4.4,4.4-6.7
		c5.6-9.3,9.7-19.5,11.9-30.2c0.3-1.3,0.5-2.6,0.7-3.9c0.2-1.3-0.3-2.1-1.4-2.4c-1.1-0.2-2.2,0.3-2.4,1.4c-0.9,5.3-2.3,10.5-4,15.5
		c-0.5,1.3-0.9,2.6-1.4,3.9l-0.3,0.8c0,0.2-0.1,0.3-0.2,0.5c0,0-0.1,0.3-0.1,0.3s-0.5,1.2-0.8,1.7c-1.1,2.4-2.2,4.8-3.6,7.2
		c-1.3,2.3-2.7,4.7-4.1,6.9c-1.5,2.2-3,4.4-4.3,6.7c-1.2,2.3-2.3,5-2.3,7.8c0,1.3,0.2,2.6,0.7,3.9c0.5,1.4,1.4,2.5,2,3.8l0.2,0.3
		l0.2,0.3l0.2,0.7c0.2,0.5,0.3,1.1,0.3,1.7c0,0.1,0,0.3,0,0.3s0,0.2,0,0.3s0,0.6,0,0.9l0.1,2c0.1,2.5,0.3,5.2,1.7,7.4
		c1.4,2.2,2.9,3.1,4.7,4.3l2.5,1.5l1.2,0.8l0.2,0.2h0l0.5,0.5c0.2,0.2,0.7,0.6,0.8,0.9l0.1,0.1l0.1,0.2c0.2,0.2,0.3,0.5,0.4,0.7l0,0
		c0,0,0-0.1,0-0.1c0,0,0,0.1,0,0.1l0,0c0,0.1,0,0.2,0,0.3c0.1,0.3,0.2,0.5,0.2,0.8c0.1,0.5,0.2,1.1,0.3,1.7c0.5,2.4,1.9,4.5,4.4,5.1
		c2.5,0.5,4-0.1,5.9-0.5l1.4-0.3L258.6,157.6z"/>
</g>
</svg>
