<?xml version="1.0" encoding="utf-8"?>
<!-- Generator: Adobe Illustrator 27.9.0, SVG Export Plug-In . SVG Version: 6.00 Build 0)  -->
<svg version="1.1" id="Layer_1" xmlns="http://www.w3.org/2000/svg" xmlns:xlink="http://www.w3.org/1999/xlink" x="0px" y="0px"
	 viewBox="0 0 348.4 221.7" style="enable-background:new 0 0 348.4 221.7;" xml:space="preserve">
<g>
	<path style="stroke:#000000;stroke-width:3;stroke-linecap:round;stroke-linejoin:round;stroke-miterlimit:10;" d="M327,95.8
		c-0.4-3-1-6.2-2.4-9c-0.8-1.7-2.1-3.2-3.1-4.7s-2.8-3.9-4.4-5.7c-1.5-1.7-3-3.2-4.8-4.6c-1.5-1.1-3-2.1-4.6-3
		c-2-1.2-3.9-2.5-5.8-3.9c-5.5-4-10.9-8.1-16.5-12c-2.2-1.6-4.4-3.2-6.8-4.5c-1.7-1.1-3.6-1.9-5.5-2.8c-3-1.5-5.9-3-8.9-4.6
		c-2.9-1.6-5.4-3-7.8-4.9l-0.4-0.3l-0.6-0.5c-0.5-0.5-1-1.2-1.5-1.7c-1.4-1.6-2.9-3.2-4.8-4.1c-1.9-0.9-4.6-1-7-0.5
		c-2.3,0.5-4.6,1.1-6.9,1.9c-1,0.3-1.9,0.7-2.8,1c-0.7,0.2-1.5,0.4-2.2,0.5c-0.6,0-1.1-0.1-1.6-0.3c-0.7-0.4-1.4-0.8-2-1.3
		c-2.1-1.9-4.5-3.5-7.2-4.7c-6.5-2.9-13.7-4.2-20.7-5.1c-7.3-0.9-14.7-1.2-22.1-0.9c-2.8,0.1-5.7,0.3-8.5,0.7
		c-8,1-15.8,2.8-23.4,5.3c-3.8,1.2-7.6,2.7-11.2,4.3c-3.5,1.5-6.9,3.4-10.5,4.6c-3.6,1.2-6.7,1.5-9.7-0.4s-5.8-4-9.5-3
		c-3.7,0.9-5.6,3.7-7.8,6.2s-4.7,5.2-7.7,7.1c-2.9,1.9-6.6,2.8-10.2,3.8c-3.4,1-6.5,2.8-9.1,5.2C66.9,56,65,58.5,63,60.9
		c-2.1,2.4-4.5,4.6-7.5,5.9c-3,1.4-6.9,2.4-10.3,3.9c-3.2,1.4-6.1,3.3-8.6,5.8c-2.5,2.4-4.7,5.3-6.8,8.2c-2.1,2.9-4.2,5.9-5.9,9.2
		c-1.7,3.3-2.7,7.1-2,10.9c0.4,2.1,1.2,4,2.1,5.9c0.8,1.9,1.7,3.9,2.5,5.8l10.1,23.5c3.3,7.6,6.4,15.4,10.2,22.8
		c3.4,6.6,7.5,12.8,12.3,18.4c4.6,5.5,9.9,10.4,15.6,14.7c1.4,1.1,2.9,2.2,4.4,3.2c1.5,1,3.5,1.6,5.3,1c2.9-1,4.2-4.2,4.7-7
		c0.6-4,0.8-8.1,1.2-12.2c0.4-4,0.7-8.6,1-12.9c0.4-6.6,0.8-13.1,1.1-19.7l0.4,1.6c1.3,4.9,2.8,9.8,4.7,14.5
		c1.1,2.7,2.3,5.4,3.8,7.9c0.5,0.8,1.6,1.1,2.4,0.6c0.8-0.5,1.1-1.6,0.6-2.4c-0.6-1.1-1.2-2.2-1.8-3.4l-0.7-1.6
		c-0.1-0.2-0.2-0.5-0.4-0.7c0-0.2-0.1-0.3-0.2-0.5c0-0.1-0.1-0.3-0.2-0.4c-0.9-2.2-1.8-4.5-2.5-6.8c-1.6-4.7-2.8-9.6-4-14.4
		c-0.4-1.4-0.7-2.8-1-4.2c-0.2-0.8-0.3-1.5-0.5-2.3c0-0.1,0-0.2,0-0.3c0-0.2,0-0.3-0.1-0.5c0-0.4-0.1-0.8-0.1-1.2
		c0-0.2,0-0.4-0.1-0.5c0.1-5.6,0.4-11.2,0.9-16.7c0.2-2.6,0.6-5.2,1.1-7.8c5.6-15.5,11.9-30.7,21.1-44.5c1.8-2.8,3.8-5.4,5.7-8.1
		c1.9-2.7,3.4-4.7,4.6-7.3c0.9-2,1.8-5.2-1.1-6.1c-1.9-0.6-3.5,1.1-4.9,2.2c-1.5,1.3-3,2.7-4.3,4.2c-5.4,6.2-8.9,13.6-12.1,21.1
		c-4,9.1-7.8,18.2-10.2,27.8c-0.8,3.2-1.5,6.3-2.1,9.6l-0.1,0.2c-0.1,0.2-0.1,0.4-0.1,0.6c-1,6.4-1.6,12.9-1.8,19.3
		c-0.4,10.1-0.6,20.3-1.1,30.4c-0.6,10.1-1.3,20.5-2.3,30.8c-0.2,1.8-0.3,3.5-0.9,5.3c-0.2,0.6-0.5,1.1-0.9,1.6
		c-0.3,0.4-0.8,0.6-1.3,0.6c-1,0-1.8-0.6-2.6-1.2l-2.6-1.8c-1.7-1.2-3.3-2.5-4.9-3.9c-6.4-5.5-12.1-11.8-16.9-18.7
		c-5.4-7.9-9.2-16.6-13-25.3l-12-28l-3-7.1c-0.9-2.2-1.9-4.4-2.4-6.7c-0.9-4.2,1.2-8.2,3.4-11.7c4.3-6.8,9.1-14.3,16.5-18
		c3.9-1.9,8.1-2.8,12-4.7c3.9-1.9,6.4-4.5,9-7.5c2.5-3,4.6-5.9,7.6-8c3.6-2.5,8.1-2.8,12.1-4.5c4-1.7,7.5-4.4,10.5-7.5
		c1.4-1.5,2.7-3.1,4.1-4.6c1.4-1.5,2.6-2.6,4.3-2.9c1.7-0.3,3.3,0.7,4.7,1.6c1.4,0.9,3.5,2.2,5.6,2.7c4.6,0.9,9-0.7,13.1-2.6
		c4.1-1.8,8.4-4,12.8-5.6c4.5-1.7,9-3.1,13.6-4.2c4.4-1.1,8.8-1.9,13.3-2.5c7.5-1,15.2-1,22.7-0.5c8.1,0.5,16.3,1.6,24,4.2
		c1.6,0.5,3.1,1.2,4.5,1.9c0.6,0.3,1.3,0.7,1.9,1.1l0.9,0.6l0.3,0.2l0.3,0.2c1.6,1.4,3.1,2.9,5.2,3.5c2.1,0.6,3.8,0.2,5.6-0.4
		c2.4-0.8,4.8-1.8,7.3-2.4c2.5-0.6,4.7-1.2,6.8,0c2.1,1.2,3.3,3,4.8,4.6c1,1,2.1,1.9,3.3,2.7c5.8,4,12.3,6.9,18.5,10.1
		c5.5,2.7,10.3,6.6,15.2,10.2l9.4,6.9c2.2,1.7,4.5,3.2,6.8,4.7c1.7,1,3.4,2,4.9,3.3c1.9,1.7,3.7,3.5,5.3,5.6c1.6,2,3,4.1,4.5,6.3
		c0.4,0.6,0.8,1.3,1.2,2c0,0,0,0.1,0,0.1v0.1c0.1,0.2,0.1,0.4,0.2,0.5c0.1,0.4,0.3,0.7,0.4,1.1c1,3.5,1.6,7.2,1.7,10.8
		c0.1,1.5,0.1,3,0,4.5c0,0.1,0,0.2,0,0.3v0v0.1c0,0.2-0.1,0.4-0.1,0.5l-0.2,0.5c-0.1,0.2-0.2,0.5-0.3,0.7c-0.1,0.2-0.5,1.2-0.7,1.8
		c-3.3,9.8-3.5,20.3-5.9,30.2c-1.1,4.7-3,9-5,13.4c-2.1,4.4-4.6,9.3-7.1,13.8c-1.1,2-2.2,4-3.6,5.8c-1.4,1.8-3,3.4-4.8,4.8
		c-3.5,2.9-7.5,5-11.5,7.1s-8.5,4.3-12.4,6.9c-1.1,0.7-2.1,1.6-3.3,1.9c-0.4,0.1-0.8,0.1-1.2,0c-0.3-0.1-0.5-0.3-0.8-0.5
		c-1.1-1.2-1.5-3.4-1.7-5c-1.2-12.4-0.2-24.9,0.2-37.3c0.1-3.1,0.2-6.2,0.2-9.3s0.1-6-0.3-9c-0.4-2.8-1.1-5.5-1.9-8.2
		c0.2-2,0.5-4,0.5-6c0-1-0.8-1.7-1.8-1.8c-0.3,0-0.6,0.1-0.8,0.2l-0.1-0.6c-0.6-2.9-0.8-5.8-1.2-8.7c-0.1-0.6-0.2-1.1-0.3-1.7
		c0-0.2,0-0.3-0.1-0.5c-0.4-2.3-0.8-4.5-1.4-6.8c-1.4-6-3.3-11.9-5.5-17.6c-2-5.3-4.4-10.5-6.5-15.6c-1.7-4.1-3.2-8.2-5.1-12.1
		s-3.9-7.3-6.9-9.9c-1.4-1.2-3.1-2.2-4.9-2.8c-1-0.3-2.4-0.7-3.3-0.1c-0.8,0.6-1.5,1.4-1.8,2.3c-0.6,1.8,0,3.8,0.8,5.4
		s2.2,3.6,3.6,5.3c1.3,1.7,2.8,3.1,4.2,4.7c1.7,1.9,3.3,3.9,4.7,6c6,8.6,10,18.3,13.6,28.1c1.7,4.7,3.3,9.4,5,14.1
		c0.4,2.3,0.7,4.7,1,7.1c0.4,3.9,1.5,7.6,2.6,11.4c0,0.5-0.1,1-0.1,1.5c0,0.5-0.1,0.6-0.1,0.9c0,0.1,0,0.2,0,0.3v0.1v0.1h0
		c-0.1,0.9-0.2,1.8-0.4,2.7c-0.6,2.8-1.5,5.6-2.6,8.4c-0.1,0.3-0.2,0.6-0.4,0.9c-0.1,0.1-0.1,0.3-0.2,0.5c0,0.1-0.1,0.1-0.1,0.1v0.1
		c-0.3,0.6-0.5,1.2-0.8,1.8c-0.6,1.2-1.2,2.4-1.8,3.6c-1.6,3-3.4,6-5,9c-0.5,0.8-0.2,1.9,0.6,2.4c0.8,0.5,1.9,0.2,2.4-0.6l0,0
		c2.9-5.2,6-10.3,8.3-15.8c1-2.3,1.7-4.7,2.4-7.2c0,0.4,0.1,0.7,0.1,1.1c0.2,2.7,0.1,5.5,0.1,8.2c-0.1,10.9-1.1,21.8-1,32.7
		c0,2.8,0.1,5.6,0.2,8.4c0.2,2.8,0.2,4.8,0.7,7.1c0.5,2.3,1.2,3.8,2.7,5c1.5,1.2,4.3,1.5,6.4,0.4c2.1-1.1,3.7-2.4,5.5-3.5
		c1.8-1.1,3.8-2.1,5.7-3.1c3.6-1.9,7.3-3.8,10.8-5.9c3.5-2.2,6.7-4.7,9.3-7.8c2.6-3.1,4.7-7.1,6.7-10.9c2-3.8,4.1-8,6.1-12.1
		c1.9-4.1,3.4-7.9,4.4-12.1c2.2-8.9,2.7-18.2,5-27.1c0.5-2.1,1.2-4,2-6c0.4-1,0.6-2.1,0.6-3.2C327.9,102.2,327.5,98.9,327,95.8z
		 M107.7,70.5c2.7-6.1,5.7-12.3,10-17.5c1.6-1.9,3.4-3.8,5.4-5.3l-0.6,1.2c-0.5,0.8-1,1.6-1.5,2.4c-2.3,3.5-4.9,6.8-7.2,10.3
		c-2.8,4.2-5.4,8.5-7.8,12.9C106.5,73.2,107.1,71.9,107.7,70.5z M241.4,63.4c-1.5-2.2-3-4.2-4.7-6.2c-1.4-1.6-2.9-3.2-4.3-4.8
		c-1.5-1.7-2.8-3.5-3.8-5.4c-0.2-0.4-0.3-0.7-0.4-1.1c-0.1-0.2-0.1-0.4-0.2-0.6v-0.3c0-0.1,0-0.4,0-0.4l0.1-0.3
		c2.5,0.6,4.4,2.2,6.2,4.4c1.8,2.2,3.9,6.1,5.3,9.3c1.1,2.4,2.1,4.9,3,7.3L241.4,63.4z"/>
	<path style="stroke:#000000;stroke-width:3;stroke-linecap:round;stroke-linejoin:round;stroke-miterlimit:10;" d="M158.7,31.3
		c-0.9,0.3-1.6,1.2-1.2,2.2c0.3,1,0.3,0.9,0.4,1.4c0,0.2,0,0.4,0.1,0.5v0.1c0,0.1,0,0.3,0,0.5c0,0.5,0,0.9,0,1.3s0,0.5,0,0.7
		c0,0.1,0,0.2,0,0.3c0,0,0,0.1,0,0.1v0.1c-0.1,0.9-0.4,1.8-0.6,2.7c-0.1,0.4-0.3,0.8-0.5,1.3c0,0.1-0.1,0.1-0.1,0.2l-0.1,0.2
		l-0.3,0.7c-1.7,3.5-4.1,6.7-6.3,10l-4,5.9c-0.5,0.7-0.2,2,0.6,2.4c0.8,0.5,1.9,0.2,2.4-0.6l7.3-10.7c2.2-3.3,4.3-6.9,5-10.8
		c0.5-2.4,0.4-4.9-0.4-7.2C160.6,31.7,159.6,31,158.7,31.3z"/>
	<path style="stroke:#000000;stroke-width:3;stroke-linecap:round;stroke-linejoin:round;stroke-miterlimit:10;" d="M176.7,37.9
		c-0.4-0.8-1.6-1.1-2.4-0.6c-0.8,0.5-1.1,1.6-0.6,2.4l0.4,0.9c0,0,0,0.1,0,0.1l0.1,0.1c0,0.1,0.1,0.3,0.2,0.5
		c0.2,0.6,0.4,1.2,0.6,1.8c0.2,0.6,0.3,1.2,0.4,1.8c0.1,0.6,0,0.3,0.1,0.5v0.3c0,0.2,0.1,0.5,0.1,0.8c0.2,2.5,0.1,5-0.2,7.4
		c-0.1,0.9,0.9,1.8,1.8,1.8c1,0,1.8-0.8,1.8-1.8c0.3-2.6,0.4-5.2,0.2-7.8C178.8,43.3,178,40.5,176.7,37.9z"/>
	<path style="stroke:#000000;stroke-width:3;stroke-linecap:round;stroke-linejoin:round;stroke-miterlimit:10;" d="M218.6,55.5
		c-1-0.6-2.1-0.6-3.2-0.9l-1.2-0.4c-0.2,0-0.4-0.1-0.6-0.2l-0.4-0.1h0c-0.4-0.2-0.8-0.4-1.2-0.5l-1.2-0.7l-1.2-0.8l-0.4-0.3
		l-0.1-0.1l-0.3-0.2c-0.7-0.6-1.5-1.3-2.1-2c-0.4-0.4-0.7-0.7-1-1.1c-0.2-0.2-0.4-0.4-0.5-0.6h0c-0.1-0.1-0.1-0.2-0.2-0.4
		c-0.6-0.8-1.2-1.7-1.7-2.7c-0.5-0.9-1.2-2.3-1.8-3.4c-0.1-0.3-0.2-0.6-0.4-0.9l-0.1-0.2c-0.1-0.1-0.1-0.3-0.2-0.4
		c-0.3-0.7-0.5-1.4-0.8-2.1c-0.2-0.7-1.2-1.6-2.2-1.2c-1,0.3-1.6,1.2-1.2,2.2c1.6,4.5,3.8,8.9,6.9,12.5c2.6,3.1,6,5.4,9.8,6.7
		c1,0.3,2.1,0.5,3.1,0.7h0.1l0.4,0.2l0.2,0.1l0.3,0.3c0.5,0.5,0.9,1,1.4,1.4c0.7,0.7,1.8,0.7,2.5,0c0.7-0.7,0.7-1.8,0-2.5
		C220.4,57.1,219.7,56.1,218.6,55.5z M216.5,58.4L216.5,58.4C216.8,58.5,216.6,58.4,216.5,58.4z"/>
</g>
</svg>
