<?xml version="1.0" encoding="utf-8"?>
<!-- Generator: Adobe Illustrator 27.9.0, SVG Export Plug-In . SVG Version: 6.00 Build 0)  -->
<svg version="1.1" id="Layer_1" xmlns="http://www.w3.org/2000/svg" xmlns:xlink="http://www.w3.org/1999/xlink" x="0px" y="0px"
	 viewBox="0 0 321.5 244.5" style="enable-background:new 0 0 321.5 244.5;" xml:space="preserve">
<path style="stroke:#000000;stroke-width:3;stroke-linecap:round;stroke-linejoin:round;stroke-miterlimit:10;" d="M309,132.8
	c-0.6-2.3-1.4-4.6-2.1-6.9c-1.3-4.5-2.6-8.9-4-13.4c-0.7-2.1-1.4-4.3-2.2-6.3c-0.8-2.1-1.8-4.3-2.5-6.5c-0.7-2.2-1-4.1-1.6-6.1
	c-0.6-2-1.1-3.2-1.6-4.7c-1.2-3.6-2.7-7-4.3-10.4c-1.6-3.1-3.8-5.8-5.5-8.8c-3.8-6.4-6.7-13.3-10.4-19.7
	c-3.4-5.8-7.6-11.8-13.5-15.1c-6-3.4-12.1-4.5-18.5-5c-4-0.3-8.1-0.3-12.1,0.1h-0.1c-8.8-3.8-17.7-7.6-26.8-10.7s-19-5.3-28.9-5.5
	c-5-0.1-10,0.4-14.9,1.3c-4.8,0.9-9.6,2.2-14.5,2.8c-4.9,0.6-10.1,0.4-15.1,0.5c-4.7,0.1-9.3,0.5-13.9,1.3c-9,1.5-17.7,4.4-25.9,8.7
	l-2.9,1.6c-0.2,0.1-0.4,0.3-0.5,0.4c-9.1,0-18,3.2-25.1,8.9C51.6,47.8,47.2,61,40.5,72.1c-1.8,2.8-3.6,5.4-5.7,8
	c-2.2,2.8-4.3,5.6-5.8,8.8c-0.7,1.8-1.4,3.7-1.8,5.6c-0.4,1.9-1,3.7-1.8,5.4c-1.6,3.8-2.9,7.6-4.1,11.5s-2.3,7.8-3.5,11.6l-1.8,6
	c-0.7,2-1.2,4-1.5,6c-0.3,1.9-0.1,3.9,0.5,5.8c0.7,1.7,1.5,3.3,1.8,5.1c0.6,3.5-0.1,7.2,0.1,10.8c0.7,13.1,7.7,25.7,17.7,34l2.9,2.2
	c-0.3,2.9-0.6,5.7-0.8,8.6c-0.4,4.7-0.7,9.5-0.9,14.2c-0.1,2.2-0.4,4.5-0.2,6.7c0.2,2.2,1.3,4.6,3.8,5.1c5,1,8.2-5.4,9.4-9.2
	c1.4-4.4,1.5-9,1.6-13.6c0-4.5,0.1-10,0.9-15c0.8-5,2.4-10.3,3.6-15.6c0.6-2.6,1-5.2,1.1-7.8c0-2.6-0.1-5.2-0.5-7.7
	c-0.5-3.5-1.4-7.1-1.4-10.7c0-0.2,0-0.5,0-0.7c0-1,0.1-2,0.2-3c0.7-4.3,3.5-7.8,5.6-11.6c0.1-0.2,0.2-0.4,0.3-0.7
	c0.2,1.1,0.3,2.2,0.4,3.4c0.3,5.6-0.9,11.2-0.5,16.8c0.4,5.6,2.1,11.8,4.2,17.4c2.1,5.6,4.5,11.4,6.7,17.2c0.4,1,1.3,1.7,2.4,1.4
	c1.1-0.3,1.7-1.4,1.3-2.4c-2-5.2-4.2-10.3-6.1-15.6c-2-5.2-3.7-10.1-4.3-15.4c-0.7-5.3,0.1-11,0.3-16.5c0.2-5.5-1.1-10.3-2.6-15.4
	c-1.6-5-3.2-9.2-3.8-14c-0.5-4.8,0.5-10.4,2.1-15.3c3.3-9.6,8-18.8,13.5-27.3c3-4.7,6.3-9.1,9.9-13.4c2.8-3.4,8.1-9.2,3.6-13.4
	c-0.6-0.5-1.6-0.8-2.4-0.3l-13.6,9c-4,2.7-8.1,5.4-11.8,8.6c-3.6,3.1-6.5,6.8-8.7,10.9c-2.1,4.2-3.4,8.7-4,13.4
	c-1.3,9.6,0.9,19.4,4.5,28.2c1,2.5,2.1,4.9,3.3,7.2c1.2,2.4,2.3,4,3.1,6.2c1.3,4-0.7,7.5-2.8,10.9c-1.1,1.7-2.1,3.5-3,5.4
	c-1,2.3-1.5,4.8-1.6,7.3v0.8c-7,12.7-10.3,27-12.1,41.4c-8.8-7-15.1-17.4-16.8-28.5c-0.5-3-0.4-6.3-0.2-9.4c0.1-2,0-3.9-0.3-5.9
	c-0.4-1.8-1.2-3.3-1.8-5c-1.3-3.5,0.2-7.2,1.2-10.6s2.3-7.7,3.4-11.5s2.2-7.6,3.5-11.3s3-7.1,3.9-10.9c0.4-1.6,0.8-3.3,1.5-4.9
	c0.7-1.5,1.6-3,2.5-4.3c1.9-2.8,4.1-5.4,6.1-8.1C48.5,68,52.2,55.3,60.8,45.9s20.8-13.3,32.7-11.1c1.5,0.3,3,0.7,4.4,1.2
	c1.1,0.3,2.2-0.3,2.4-1.4s-0.3-2.2-1.4-2.4c-1.6-0.5-3.3-0.9-5-1.3c6.4-3.1,13.2-5.4,20.2-6.9c4.2-0.9,8.5-1.4,12.8-1.6
	c4.9-0.3,9.9,0,14.9-0.3c5-0.3,10-1.3,15-2.4c4.9-1.1,9.3-1.8,14.1-2c9.6-0.3,19.1,1.5,28.3,4.3c8.3,2.5,16.3,5.8,24.3,9.2h-0.1
	c-1.3,0.3-2.6,0.7-3.9,1.1c-1.1,0.3-1.6,1.4-1.4,2.4c0.3,1.1,1.4,1.6,2.4,1.4c5.8-1.9,11.4-2.5,17.4-2.4c1.6,0,3.2,0.1,4.8,0.2
	c1.7,0.2,2.9,0.3,4.5,0.5c3,0.5,6,1.3,8.8,2.4l0.4,0.1l0.1,0.1h0.1l0.9,0.4l2,1.1l1.5,1l0.4,0.3l0.3,0.2l0.7,0.6
	c2.5,2.3,4.7,4.9,6.5,7.8c4,6,6.9,12.7,10.3,19c1.6,3.2,3.4,6.2,5.5,9.2c1.8,2.7,3.4,5.6,4.6,8.6c1.3,3.2,2.5,6.5,3.5,9.8
	c0.6,2,1,4.1,1.6,6.1c0.6,2,1.6,4.2,2.4,6.2c1.6,4.2,2.9,8.6,4.2,13c1.3,4.3,2.6,8.8,4,13.2c0.4,1.4,0.5,2.8,0.2,4.2
	c-0.3,1.7-0.7,3.3-1.2,4.9c-0.2,0.7-0.4,1.5-0.7,2.2c-0.4,1-0.9,2-1.3,3c-0.7,2.1-0.9,4.3-0.8,6.5c0,2.2,0.2,4,0.2,6
	c-0.1,1.6-0.3,3.1-0.7,4.6c-0.8,3.1-2.2,6-4.1,8.6c-3.8,5.5-9.2,10.1-14.7,13.9l-2.9,2c-2.4-12.7-6-25.1-11.5-36.7
	c-0.9-2-1.9-3.9-3-5.8c-0.2-0.4-0.5-0.6-0.8-0.8c-0.4-1.6-0.9-3.2-1.4-4.7c-1.5-4.5-2.5-9-2.4-13.8c0.1-2.4,0.4-4.4,1.4-6.5
	c1-2.1,2.3-4.3,3.3-6.5c2.1-4.4,3.8-8.9,5.1-13.6c1.2-4.6,2.2-9.6,1.8-14.3c-0.7-9.4-5.4-17.7-11.1-25c-2.6-3.4-5.2-6.7-8.4-9.5
	c-3.2-2.8-8.1-5.8-12.3-8.6l-6.5-4.3c-0.7-0.5-1.8-0.3-2.4,0.3c-4,3.9,0,9.3,2.8,12.5c3.4,4,6.9,8,10.1,12.1
	c3.3,4.2,6.4,8.7,9.2,13.2c1.3,2.2,2.5,4.5,3.7,6.8c1.2,2.3,2.3,4.8,2.9,7.3c0.6,2.5,0.9,5.2,0.8,7.8c0,2.8-0.1,5.6-0.3,8.4
	c-0.4,5.1-2.2,9.9-3.7,14.7c-0.8,2.5-1.5,5.1-2.1,7.7c-0.5,2.5-0.8,5-0.4,7.5c0.4,2.5,1.3,4.6,2.1,6.8c0.8,2.2,1.6,4.1,1.8,6.2
	c0.2,2.9-0.3,5.8-0.9,8.6c-0.7,3.1-1.6,6.2-2.7,9.2c-2.2,6.1-4.7,12.1-7.1,18.1c-0.4,1,0.4,2.2,1.4,2.4c0.9,0.2,2-0.4,2.4-1.4
	c2.1-5.4,4.3-10.7,6.4-16.2c2-5.4,3.5-10.3,4.2-15.8c0.3,2.2,0.4,4.5,0.5,6.7c0.1,2.2,0.1,5.4,0.5,8.1c0.7,5.1,2.5,9.9,3.6,14.8
	c1.1,5.1,1.6,10.3,1.6,15.4c0.1,4.5,0,9.1,0.6,13.6s2.1,8.8,5.3,11.6c1.8,1.6,4.5,2.6,6.7,1.1c2.2-1.6,2.2-3.6,2.2-5.7
	c0-4.6-0.5-9.3-1-13.9c-0.5-4.6-1.1-9.2-1.8-13.8c11.4-7.8,24.4-17.8,25.5-32.7c0.3-4.1-0.8-8.3,0.5-12.2c0.4-0.9,0.8-1.8,1.2-2.7
	c0.3-0.9,0.6-1.7,0.8-2.6c0.5-1.6,0.9-3.3,1.2-5C309.3,136.5,309.5,134.6,309,132.8z M57.1,90.9c-1.7,4.7-3,9.7-3,14.8
	c-1.8-4.6-2.9-9.4-3.5-14.2c-0.9-9.1,0.8-18.6,6.3-26.1c2.7-3.8,6.5-6.9,10.3-9.6c3.8-2.7,8.6-5.8,12.9-8.7l4.9-3.3
	c-0.2,0.9-0.6,1.8-1.1,2.5c-1.2,1.9-2.8,3.5-4.2,5.2c-3.2,3.9-6.2,8-8.9,12.1C65.2,72.3,60.6,81.4,57.1,90.9z M39.9,215.5
	c0.1-2.2,0.3-4.8,0.4-7.2c0.4-5.3,0.8-10.5,1.4-15.8c0-0.1,0-0.2,0-0.3c0.4-3.9,1-7.8,1.7-11.8c1.6-8.9,3.9-17.7,7.6-25.9
	c0.3,2.1,0.7,4.2,1,6.3c0.3,2.4,0.4,4.9,0.2,7.3c-0.3,2.5-0.8,5-1.5,7.4c-1.3,5.1-2.7,10.2-3.4,15.5s-0.6,9.8-0.7,14.7
	c0,4.3-0.2,8.7-1.8,12.7c-0.7,1.7-1.6,3.8-3.1,4.9c-0.5,0.4-1.1,0.7-1.6,0.4c-0.1-0.2-0.2-0.3-0.2-0.5c-0.2-0.4-0.2-0.8-0.2-1.2
	C39.5,219.8,39.8,217.6,39.9,215.5z M259.6,81c-2.4-4.6-5.1-9.1-8.1-13.3c-3.4-4.9-7.2-9.6-11-14.1c-1.7-2-3.7-4-5.3-6.2
	c-0.7-0.9-1.3-2-1.6-3.1c0-0.1-0.1-0.2-0.1-0.4l11.6,7.8c3.6,2.4,6.9,5.3,9.6,8.7c5.8,7,11.2,14.7,12.8,23.7
	c0.9,4.6,0.2,9.3-0.8,13.8c-0.6,2.7-1.4,5.2-2.4,7.8c0-0.3,0-0.7,0-1c0.1-2.7,0.2-5.4,0.1-8.1c-0.1-2.7-0.6-5.4-1.5-8
	C262,85.9,260.9,83.4,259.6,81z M278.5,223.4c-0.1,0.3-0.5,0.5-0.8,0.4c0,0,0,0-0.1,0c-1.7-0.5-2.8-2.8-3.5-4.2
	c-0.8-1.8-1.4-3.8-1.7-5.8c-0.7-4.2-0.5-8.5-0.6-12.8c0-5.1-0.5-10.1-1.4-15c-0.9-5.1-2.7-9.9-3.6-14.9c-0.4-2.4-0.6-4.9-0.6-7.4
	c-0.1-1.9-0.2-3.8-0.3-5.6c5.9,13.4,9.2,28,11.2,42.5c0.6,4.7,1.1,9.3,1.4,14c0.2,2.2,0.3,4.4,0.4,6.6
	C278.8,221.9,278.7,222.6,278.5,223.4z"/>
</svg>
