<?xml version="1.0" encoding="utf-8"?>
<!-- Generator: Adobe Illustrator 27.9.0, SVG Export Plug-In . SVG Version: 6.00 Build 0)  -->
<svg version="1.1" id="Layer_1" xmlns="http://www.w3.org/2000/svg" xmlns:xlink="http://www.w3.org/1999/xlink" x="0px" y="0px"
	 viewBox="0 0 378.4 254.9" style="enable-background:new 0 0 378.4 254.9;" xml:space="preserve">
<g>
	<path style="stroke:#000000;stroke-width:3;stroke-linecap:round;stroke-linejoin:round;stroke-miterlimit:10;" d="M358.2,132.3
		c-1.5-5.5-5-10.2-8.8-14.5c-3.8-4.3-8.6-9.6-13-14.3c-4.3-4.8-9.8-10.8-14.7-16.2c-2.4-2.6-4.8-5.3-7.2-8c-1.1-1.3-2.2-2.5-3.3-3.9
		c-1.1-1.4-2.3-2.6-1.8-3.6c0.7-1.2,0.3-2.8-0.9-3.5c-3.4-2.1-7.4-2.1-11.3-2.1c-3.9,0.1-7.4,0.2-9.3-3.3c-1.1-1.9-1.8-4-3.4-5.6
		c-1.4-1.4-3.2-2.3-5-2.8c-3.8-1-7.7-0.2-11.5-1.1c-3.8-0.9-5.2-4.1-7.3-6.9c-1.2-1.5-2.4-2.9-4.1-3.8c-1.7-0.9-4.4-1.1-6.7-1.4
		c-4-0.4-6.3-4.7-9.2-6.8c-3.8-2.7-8.7-2.9-13.3-2.9c-4.9,0.2-9.8-0.4-14.5-1.6c-4.9-1.3-9.6-3.1-14.2-5.3
		c-4.8-2.2-9.2-4.6-14.6-5.2c-5.3-0.6-9.9,0.1-14.7,1.2c-10.8,2.5-21.4,6-32,9.1c-9.8,2.8-20.7,4.7-28.4,11.8
		c-3.7,3.4-6.8,6.8-11.3,9.1c-4.5,2.3-8.7,3.3-13.3,4.3c-7.4,1.6-16.3,3.5-19.9,10.9c-0.4,0.8-0.7,1.6-1.1,2.4l-0.7,1
		c-0.1,0.1-0.1,0.2-0.2,0.3c-1-0.2-2,0.3-2.5,1.2c-3.3,5.4-8.1,9.5-12.7,13.7c-4.7,4.3-9,8.9-13.1,13.8c-8.2,9.8-15.5,20.8-19.7,33
		s-4.5,24.4,1.6,35.4c5.4,9.9,14.8,17.4,19.1,28c3.7,9.3,4.3,21,12.7,27.7c2.3,1.9,5.3,3.5,8.4,2.7c3.1-0.8,4.6-3.1,5.6-5.5
		c2-4.6,3.5-9.3,4.4-14.2c0.9,4.7,2.2,9.4,3.8,14c0.2,0.7,0.9,1.1,1.6,0.9c0.7-0.2,1.1-0.9,0.9-1.6c-2.3-6.7-4-13.6-4.9-20.6
		c3.7-22.9,1.9-47,10.4-69c4.7-12.1,13.3-21.8,20.7-32.4s13.2-22.1,12.4-34.8c-0.2-3-0.8-6-1.8-8.9c-0.5-1.4-2-2.1-3.4-1.7
		c-0.1,0-0.1,0.1-0.1,0.1c2.9-2.4,5.5-5.3,8.5-7.7c3.9-3.2,8.7-4.5,13.5-5.8l32.2-9.3c9.5-2.7,19.8-6.4,29.5-2.6
		c4.8,1.9,9.4,4.4,14.2,6.3c4.7,1.9,9.7,3.2,14.7,3.9c4.7,0.6,9.5,0,14.1,0.6c2,0.2,4,0.9,5.6,2.1c1.5,1.2,2.7,2.8,4.2,4.1
		c1.5,1.5,3.3,2.5,5.3,3c2.1,0.5,4.6-0.1,6.5,1.1c2.9,1.7,4.3,5.5,6.6,7.9c2.3,2.3,6.9,3.7,10.9,3.8s7.8-0.4,9.9,2.9
		c1.2,1.8,1.9,4,3.3,5.6c1.3,1.5,2.9,2.5,4.8,3.1c3.7,1.2,7.7,0.5,11.4,0.8c1.1,0.1,2.2,0.2,3.2,0.6c0.1,1.8,0.7,3.6,1.8,5.1
		c1.9,2.6,4,5,6.1,7.4c4.4,4.9,8.9,9.8,13.3,14.7l13.7,15.1c4,4.4,8.4,8.7,11.5,13.9c3.1,5.1,3.8,11.2,3,17.4
		c-0.7,6.1-2,12.1-3.8,18c-1.8,5.7-4.5,11-8,15.8c-3.4,4.7-7.2,8.9-10.8,13.4c-6.7,8.2-12.8,17.8-13.3,28.4
		c-0.1-0.1-0.1-0.3-0.1-0.4c-3.5-11.3-1.6-23.1-0.1-34.5c1.6-11.4,2.6-21.8,0.5-32.8c-3.9-19.7-15-36.9-23.7-54.7
		c-4.9-10-9-20.3-10.9-31.4c-0.4-2.5-4.4-2.3-4.9,0c-2.5,11.6,1.6,23.1,7,33.3c2.7,5.3,5.9,10.4,8.5,15.8c2.5,5,4.4,10.3,5.8,15.8
		c5.8,21.9,4.1,44.9,6.8,67.2c0.7,5.9,1.5,12,3.4,17.8c0.2,0.5,0.3,1,0.5,1.5c-0.6,1.4-1.2,2.7-1.9,4c-1.8,3.3-4.1,6.4-6,9.5
		c-1.2,1.9-2.1,4-1.9,6.3c0.1,0.7,0.6,1.2,1.3,1.3c0.7,0,1.4-0.6,1.3-1.3c-0.2-1.8,0.7-3.5,1.6-4.9c0.9-1.5,2-3.1,3-4.6
		c1.5-2.2,2.8-4.6,4.1-7c1.7,3.3,4,6.2,7.4,8c1.3,0.7,2.8,0.2,3.5-1.1c0.3-0.6,0.4-1.2,0.3-1.8c-2.2-11.3,4.6-22.1,11.3-30.4
		c6.8-8.4,15-17.2,19.1-28c2.2-5.8,3.5-11.9,4.5-17.9C359.2,144.3,359.8,138.2,358.2,132.3z M98.4,88.2
		c-6.4,10.5-14.9,19.6-20.9,30.4c-11.6,21.1-11,45.7-13.5,69c-0.6,5.8-1.5,11.6-2.7,17.3c-0.7,2.9-1.5,5.8-2.4,8.7
		c-0.7,2-1.4,5.2-3.2,6.6c-1.8,1.3-4.6-1.3-5.9-2.6c-1.5-1.7-2.7-3.6-3.7-5.7c-2-4.4-3-9.2-4.5-13.9c-1.5-5.1-3.9-10-7-14.3
		c-3.2-4.4-6.8-8.5-10-12.9c-3.3-4.4-6-9.1-7.3-14.5c-1.3-5.4-1-11.4,0.2-17c2.7-11.9,9.2-22.6,16.4-32.3c3.7-4.9,7.7-9.6,12-13.9
		c4.2-4.2,8.9-8,13-12.3c1.7-1.8,3.3-3.8,4.7-5.9c3.1-0.7,4.1-4.2,5.8-7s5.3-4.6,8.5-5.7c3.3-1.1,8-1.9,12-2.9c4-1,9.5-3,13.5-5.7
		l1.3-0.9l-0.1,0.1L87.1,78.9c-5.6,8.3-11.2,16.6-15.4,25.7c-8.2,17.9-12.8,37.9-14.9,57.4c-1.3,11.3-1.6,22.7-1,34
		c0.2,3.3,5.3,3.3,5.1,0c-1-19.7,0.8-39.4,5.3-58.6c2.3-9.5,5.1-19,8.9-27.9c3.8-8.9,9.1-17.2,14.6-25.3l16.2-24
		C107.2,69.8,103.5,79.8,98.4,88.2z M313,182.8c-0.5,3.9-1.1,7.8-1.6,11.7c-0.9-9.1-1.2-18.3-1.7-27.5c-0.6-10.9-1.4-21.7-3.8-32.4
		c-0.3-1.5-0.7-2.9-1.1-4.3c3.2,6.6,5.7,13.5,7.5,20.6C314.9,161.5,314.5,172.1,313,182.8z"/>
</g>
</svg>
