<?xml version="1.0" encoding="utf-8"?>
<!-- Generator: Adobe Illustrator 27.9.0, SVG Export Plug-In . SVG Version: 6.00 Build 0)  -->
<svg version="1.1" id="Layer_1" xmlns="http://www.w3.org/2000/svg" xmlns:xlink="http://www.w3.org/1999/xlink" x="0px" y="0px"
	 viewBox="0 0 385.3 157.3" style="enable-background:new 0 0 385.3 157.3;" xml:space="preserve">
<g>
	<path style="stroke:#000000;stroke-width:3;stroke-linecap:round;stroke-linejoin:round;stroke-miterlimit:10;" d="M366,50.9
		c-2.2-4.1-6.9-6.2-11.1-7.5c-5.7-1.7-11.7-2.7-17.6-3.9c-12.7-2.8-25.4-5.7-37.6-10.2C288.1,25,277.2,18,264.8,15.9
		c-9.4-1.6-20.1,0-27.1,6.9c-0.8,0.8-1.5,1.6-2.2,2.5c-0.8,1.1-1.3,2.3-2.2,3.3c-1.7,1.9-4.6,1.3-6.8,0.7c-2.8-0.8-5.5-2-8.2-3
		c-3.2-1-6.4-1.9-9.6-2.5c-12.3-2.6-24.9-2.3-37.3-0.3c-6.2,0.9-12.3,2.5-18.1,4.7c-1.3,0.5-2.6,1-3.8,1.6c-1.3,0.6-3.2,1.8-4,0.9
		c-0.8-0.9-0.3-2.5-0.3-3.3c0-1.3-0.3-2.7-0.7-3.9c-1.8-4.9-6.4-8.4-11.4-9.4c-5.9-1.3-12.1,0.2-17.6,2.5
		c-5.5,2.3-10.3,5.8-14.9,9.5c-1.6,1.3-3.1,2.5-4.8,3.7c-1.1,0.6-2.2,1.3-3.2,2c-2.4,1.2-5,2.1-7.7,2.5c-5.9,1-12,0.8-18,1.6
		c-5.5,0.7-11,2.1-16.2,4.1c-10.5,3.9-20,10-27.9,17.9c-2,2-3.9,4.1-4.9,6.7c-1,2.7-0.5,5.6,0.3,8.3c1.2,4.2,3.1,8.2,5.6,11.9
		c5.1,7.6,11.9,13.8,18.2,20.4c6.3,6.6,12,13.2,14.4,21.8c0.6,2,1.1,4.7,3.4,5.4c2.3,0.7,4.4-2,5.7-4c1.9-2.8,3.8-5.7,5.6-8.6
		c1.3-0.1,2.5-0.1,3.8,0l0.6,0.1c-0.6,0,0,0,0.2,0l1.2,0.3c0.4,0.1,0.8,0.2,1.1,0.3l0.2,0.1l0.6,0.3l0.9,0.6h0l0.2,0.1l0.5,0.5
		l0.3,0.3c0-0.1,0-0.1,0,0l0.1,0.1l0.2,0.2c0.2,0.4,0.5,0.8,0.7,1.2l0.3,0.6c0,0.1,0.1,0.2,0.1,0.3l0.1,0.3c0.2,0.5,0.4,1.1,0.5,1.7
		c0.3,1.1,0.5,2.2,0.7,3.3c0,0.1,0,0.2,0.1,0.3c0,0.1,0,0.5,0,0.5l0.1,0.7c0.1,0.7,0.1,1.3,0.2,2c0.1,1.3,0.2,2.5,0.4,3.8
		s0.8,2,1.9,1.9c1.1-0.1,2-0.8,1.9-1.9c-0.5-5-0.7-10-2.7-14.7c-0.8-2-2.1-3.7-3.9-4.9c-1.6-1-3.3-1.6-5.2-1.8
		c-1-0.2-1.9-0.2-2.8-0.3l1.8-3.2c6-10.8,11.2-22,15.4-33.6c2.1-5.9,3.8-11.8,5.5-17.8s3.7-11.3,7.4-16.2c1.5-2,3.2-3.8,5.1-5.5
		c0.2,0,0.5-0.1,0.7-0.2l0.3-0.2h0l0.8-0.2h1.5l0.8,0.2l0.3,0.2h0.2l-0.2-0.1c0.3,0.1,0.5,0.2,0.7,0.4l0.7,0.4l0.3,0.2l0.1,0.1
		c0.4,0.4,0.8,0.8,1.2,1.2l0.1,0.1c0,0.1,0.1,0.2,0.2,0.3c0.2,0.2,0.3,0.5,0.5,0.7l0.3,0.6l0.1,0.3c0.1,0.2,0.1,0.3,0.2,0.5l0.2,1
		l0.1,0.5c0,0.1,0,0.2,0,0.3c0,0,0,0.1,0,0.2c0,0,0,0.3,0,0.3s0,0.3,0,0.5s0,0.8,0,1.2c0,0.4-0.1,1.4-0.2,2.1c0,0.1,0,0.2,0,0.3
		c0,0.2,0,0.3-0.1,0.5c0,0.3-0.1,0.7-0.2,1.1c-0.6,3-1.5,6-2.5,8.9c-0.5,1.5-1,2.9-1.6,4.3l-0.8,2.2l-0.1,0.2l-0.2,0.6l-0.5,1.1
		c-1.2,2.7-2.5,5.3-3.9,7.9c-2.7,5-5.5,10-7.7,15.3c-2.2,5.2-3.8,10.7-3.8,16.4c0,0.7,0,1.4,0.1,2.1s0.8,2,1.9,1.9s2-0.8,1.9-1.9
		c-0.1-1.4-0.1-2.8,0-4.2c0-0.3,0-0.7,0.1-1c0-0.2,0-0.3,0-0.5c0-0.1,0-0.2,0-0.3c0.1-0.7,0.2-1.4,0.4-2.1c0.6-2.8,1.4-5.4,2.5-8
		l0.3-0.9l0.1-0.2l0.3-0.6c0.3-0.7,0.6-1.3,0.9-2c0.6-1.3,1.3-2.7,2-4c1.3-2.6,2.7-5.2,4.1-7.7c3-5.5,5.6-11.3,7.6-17.2
		c1-3,1.9-6,2.6-9.1c0.6-3.2,0.8-6.5,0-9.6c-0.7-2.7-2.4-5.1-4.8-6.7c-0.8-0.5-1.6-1-2.5-1.2l1.6-0.9c4.9-2.5,11-4.5,15.7-0.6
		c3.6,3,5.4,7.8,6.9,12.2c0.8,2.3,4.5,1.3,3.7-1c-1.5-4.5-3.3-9.1-6.5-12.6c-3.2-3.5-8.7-5.3-13.9-4.3c-10.2,2-19.3,10.2-24.3,19.1
		c-3,5.4-4.5,11.3-6.2,17.2c-1.7,5.9-3.5,11.5-5.7,17.2c-4.2,11.2-9.4,22.1-15.6,32.4c-1.6,2.7-3.2,5.3-4.9,7.9
		c-0.8,1.2-1.6,2.4-2.4,3.6l-1.2,1.8c-0.2,0.2-0.4,0.5-0.5,0.8l-0.2,0.1c-0.4-0.8-0.5-1.8-0.7-2.6c-0.2-0.8-0.7-2.1-1-3.1
		c-0.8-2-1.8-4-2.9-5.9c-4.5-7.6-10.9-13.8-17-20C32.9,90.5,26.7,84,23.2,76c-0.9-2.1-1.6-4.3-2-6.5c-0.5-3.2,0.9-5.5,3-7.7
		c3.7-4,7.9-7.5,12.4-10.4c9.2-6.1,19.7-10.1,30.6-11.7c5.7-0.8,11.6-0.7,17.4-1.5l0.7-0.1c-3.1,3.5-5.8,7.2-8.1,11.3
		c-5,8.7-8.5,18.2-12.3,27.5l-0.8,2c-0.2,0.3-0.3,0.7-0.4,1c-0.1,0.2-0.2,0.3-0.2,0.5l-0.1,0.3c0,0,0,0.1,0,0.1
		c-0.6,1.3-1.2,2.7-1.8,4c-1.2,2.7-2.5,5.3-4,7.9c-0.5,0.9-0.2,2.1,0.7,2.7c0.9,0.5,2.1,0.2,2.6-0.7c5.2-9.2,8.6-19.3,12.7-29
		c0-0.2,0.1-0.3,0.2-0.5c0,0,0,0,0-0.1l0.4-1l0.8-1.8c0.5-1.1,1-2.2,1.5-3.3c1-2,2-4,3-6c1-2,2.2-3.9,3.5-5.8
		c0.6-0.9,1.2-1.8,1.9-2.7l0.5-0.7h0l0.2-0.3l1.1-1.4c1.5-1.8,3.3-3.5,5.1-5.1l0.7-0.6l0.3-0.3l0.1-0.1l1.5-1.1l0.9-0.6l1.6-1
		l0.7-0.4c0.2-0.1,0.3-0.2,0.4-0.3l1.8-1.4c4.7-3.6,9.1-7.4,14.4-10c5.3-2.7,11.4-4.8,17.3-3.6c5,1,9.5,4.8,9.6,10.2
		c0,2.3,0,4.9,2.3,6.2c2.2,1.3,5,0.2,7.2-0.8c11-4.9,23.4-6.9,35.4-7.4c12.8-0.6,25,1.9,36.9,6.4c4.4,1.7,9.9,2.8,13.3-1.3
		c1.6-1.9,2.6-4,4.4-5.8c1.7-1.5,3.6-2.8,5.7-3.7c9.8-4.4,20.7-1.8,30.2,2c5.6,2.3,11,5,16.6,7.4c5.9,2.4,11.9,4.5,17.9,6.2
		c12.2,3.5,24.7,5.9,37.1,8.7c4.4,1,9.5,1.9,12.8,5.1c4.4,4.3,1.5,10-1.6,14.1c-7.9,10.7-16.6,20.9-25,31.1
		c-3.4,4.2-6.9,8.3-10.4,12.5c-0.4-1.2-0.8-2.3-1.2-3.4c-2.7-8.2-4.6-16.7-6.9-25c-2.4-8.4-5.4-16.6-9-24.6
		c-3.1-6.8-6.5-13.5-11.3-19.2c-2.3-2.8-5-5.3-8-7.4c-3.3-2.2-6.9-3.8-10.7-4.9c-2-0.5-3.9-0.8-5.9-1.1c-1.8-0.2-3.6-0.5-5.4-0.7
		c-1.8-0.2-3.7-0.2-5.6,0c-1.8,0.2-3.5,0.9-4.9,1.9c-3.1,2.1-5.6,5.1-7,8.5c-1.7,3.9-2.2,8.2-2,12.5c0.6,8.3,3.7,16.6,8.3,23.5
		s10.2,12.5,15.5,18.7c0.7,0.7,1.3,1.5,1.9,2.3c0.6,0.8,0.6,0.7,0.9,1.1c0.2,0.2,0.2,0.3,0.2,0.2l0.5,0.7c1.2,1.6,2.3,3.2,3.3,4.9
		c1,1.6,1.9,3.3,2.7,5c0.1,0.2,0.2,0.4,0.3,0.7l0.1,0.2c0,0.1,0.1,0.1,0.1,0.2l0.5,1.4c0.3,0.9,0.6,1.8,0.8,2.7
		c0.3,0.9,0.5,1.8,0.6,2.7l0.1,0.7c0,0,0,0.1,0,0.2v0.1c0.1,0.5,0.1,1,0.2,1.5c0,0.5,0.8,2,1.9,1.9c1.1-0.1,2-0.8,1.9-1.9
		c-0.6-7.8-4.1-14.9-8.7-21.2c-4.5-6.3-10.3-12-15.3-18.1l-0.9-1.2l-0.3-0.4l-0.1-0.1l-0.3-0.4c-0.6-0.8-1.2-1.6-1.7-2.4
		c-1.1-1.6-2.2-3.3-3.1-5c-0.5-0.9-0.9-1.8-1.3-2.7l-0.6-1.3c0,0-0.1-0.2-0.1-0.2c0-0.1-0.1-0.1-0.1-0.2l-0.3-0.8
		c-0.7-1.9-1.3-3.8-1.8-5.7c-0.3-1-0.5-2-0.7-3c-0.2-1-0.2-0.9-0.3-1.4c-0.1-0.5,0-0.3,0-0.4l-0.1-0.8c-0.2-2-0.2-4,0-6.1
		c0-0.2,0-0.4,0-0.6c0-0.2,0.1-0.3,0.1-0.5c0.1-0.5,0.2-1,0.3-1.5c0.2-1,0.5-1.9,0.8-2.8c0.1-0.2,0.1-0.3,0.2-0.4
		c0.1-0.1,0.2-0.3,0.2-0.4c0.2-0.4,0.4-0.8,0.6-1.2c0.4-0.8,0.9-1.5,1.4-2.2h0l0.2-0.2l0.4-0.5l0.9-1l1-0.8l0.2-0.2l0.5-0.3
		c0.3-0.3,0.7-0.5,1.1-0.7l0.6-0.3l0.2-0.1h0c0.2-0.1,0.1,0,0,0l0.5-0.2l0.6-0.2l0.6-0.1l0.3-0.1c0.2,0,0.1,0,0,0h2.5
		c0.9,0,1.8,0.1,2.7,0.2l0.6,0.1h0.4l1.2,0.2l2.3,0.3c2,0.3,4,0.7,5.9,1.2c1,0.3,1.9,0.5,2.9,0.9l1.3,0.5l0.1,0.1l0.3,0.2l0.7,0.3
		c1.5,0.8,3,1.7,4.4,2.7l0.5,0.4l0.2,0.1h0l1,0.9c0.7,0.5,1.3,1.2,2,1.8c1.2,1.2,2.4,2.5,3.5,3.8l0.3,0.4l0.1,0.2l0.1,0.1l0.8,1.1
		c0.5,0.7,1,1.4,1.5,2.2c1.9,3,3.7,6,5.2,9.2c0.9,1.8,1.7,3.6,2.5,5.4c0.4,1,0.8,2,1.2,2.9c0.1,0.3,0.1,0.2,0,0.1
		c0.1,0.1,0.1,0.2,0.2,0.3c0.1,0.2,0.2,0.5,0.3,0.7c0.2,0.5,0.4,1,0.6,1.5c1.6,3.9,3,7.9,4.3,11.9c2.6,8.1,4.4,16.4,6.8,24.6
		c1.2,4,2.5,8,4,11.9c1.5,3.9,3.1,7.5,4,11.5c0.1,0.5,0.2,0.9,0.3,1.4c0,0.2,0.1,0.4,0.1,0.7c0,0.1,0,0.2,0,0.2c0,0,0,0.1,0,0.2
		c0,0.3,0,0.6,0.1,0.9l-1.1-0.3l-0.5-0.2l-0.1-0.1l-0.2-0.1l-0.9-0.5l-0.5-0.3l-0.3-0.2l-0.2-0.1c0,0,0,0,0,0l-0.3-0.2l-0.4-0.4
		l-0.8-0.9c0-0.1-0.1-0.2-0.2-0.3l-0.3-0.5l-0.7-1.2l-1.1-2.3c-0.2-0.4-0.3-0.7-0.5-1.1l-0.2-0.5c0-0.1-0.1-0.2-0.1-0.3
		c-0.3-0.7-0.6-1.5-0.9-2.2c-2.3-6-4-12.3-5.5-18.6c-1.5-6.3-2.8-12.6-4.5-18.9c-1.7-6.2-3.7-12.5-6.7-18.3
		c-1.4-2.9-3.1-5.7-5.1-8.3c-2-2.6-4.5-4.9-7.7-5.8c-0.8-0.2-1.7-0.3-2.5-0.4c-1.1,0-1.9,0.8-1.9,1.9c0,1,0.9,1.9,1.9,1.9h0.7l1,0.3
		l0.5,0.2l0.2,0.1l1,0.6l0.8,0.6l0.2,0.2c0.2,0.1,0.3,0.3,0.5,0.4c0.6,0.5,1.2,1.1,1.7,1.7L292,54l0.2,0.2l0.4,0.5
		c0.5,0.6,0.9,1.3,1.3,1.9c0.8,1.4,1.7,2.8,2.4,4.2c0.7,1.4,1.4,2.8,2,4.3c0.1,0.2,0.2,0.3,0.2,0.5h0c0,0.1,0,0.2,0.1,0.2l0.5,1.2
		c0.3,0.7,0.6,1.5,0.8,2.2c1.1,3,2,6.1,2.9,9.2c1.7,6.2,3,12.6,4.5,18.9c0.8,3.4,1.6,6.7,2.5,10.1c-2-0.4-4.3-0.2-6.3,0.1
		c-1.5,0.2-3,0.8-4.4,1.7c-1.2,0.9-2.3,2-3.2,3.3c-1.7,2.6-2.4,5.7-2.7,8.8c-0.2,1.6-0.2,3.2-0.4,4.8c0,0.8-0.1,1.6-0.2,2.5
		c0,0.2,0,0.3-0.1,0.5v0.2c0,0,0,0,0,0c0,0.4-0.1,0.8-0.2,1.2c-0.6,3.6-1.5,7.2-2.7,10.7c-0.3,1,0.2,2.1,1.2,2.5s2.1-0.2,2.5-1.2
		c0-0.1,0.1-0.2,0.1-0.3c1-2.9,1.8-5.9,2.3-8.9c0.6-3.2,1-6.4,1.2-9.5c0-0.7,0.1-1.5,0.2-2.3l0.1-1c0,0,0-0.2,0-0.3l0.1-0.6
		c0.1-0.7,0.3-1.5,0.5-2.2l0.3-0.8c0.1-0.1,0.1-0.2,0.1-0.3v0c0,0,0,0,0-0.1v0v-0.1c0,0,0,0,0-0.1c0.3-0.5,0.6-1.1,0.9-1.6l0.3-0.4
		l0.1-0.1l0,0l0,0l0.1-0.1c0,0,0,0,0,0c0.2-0.2,0.4-0.5,0.5-0.6l0.6-0.6h0.1l0.4-0.3l0.8-0.5c0.1,0,0.3-0.2,0.2-0.1l0.5-0.2l1.2-0.3
		l0.6-0.1h0.2c0.8-0.1,1.5-0.2,2.3-0.2h1.4c0.1,0,0.4,0.1,0.5,0.1l1,0.3l0.2,0.1l0.5,0.3l0.3,0.1c0.4,1.3,0.9,2.7,1.4,4
		c0.5,1.3,1.3,3.2,2,4.8c0.6,1.5,1.4,3,2.3,4.5c1.9,3,5,5.1,8.5,5.8c0.9,0.2,1.8,0.2,2.7,0.2c1,0,1.9-0.9,1.9-1.9
		c0-4.2-1.1-8.4-2.5-12.3c-0.5-1.5-1.1-2.9-1.7-4.3c8.5-10.1,17-20.3,25.3-30.7c4.1-5.1,8.4-10.2,12.2-15.6
		C366.5,62,368.9,56.2,366,50.9z M289.1,50.9C289.3,51.1,289.1,50.9,289.1,50.9L289.1,50.9z"/>
</g>
</svg>
