<?xml version="1.0" encoding="utf-8"?>
<!-- Generator: Adobe Illustrator 27.9.0, SVG Export Plug-In . SVG Version: 6.00 Build 0)  -->
<svg version="1.1" id="Layer_1" xmlns="http://www.w3.org/2000/svg" xmlns:xlink="http://www.w3.org/1999/xlink" x="0px" y="0px"
	 viewBox="0 0 324.1 274.6" style="enable-background:new 0 0 324.1 274.6;" xml:space="preserve">
<g>
	<path style="stroke:#000000;stroke-width:3;stroke-linecap:round;stroke-linejoin:round;stroke-miterlimit:10;" d="M113.3,86.3
		c-2.2-6.2-4.8-12.1-7.8-18c-2.9-5.8-6.1-11.3-9.7-16.7l-1.3-1.9c-0.9-1.3-2.5-1.3-3.4,0c-4.8,6.6-9.6,13.2-14.1,20.1
		c-4.5,6.9-8.5,14-11.7,21.4c-3.2,7.5-5.6,15.3-6.7,23.4c-1.1,8.1-0.9,16.3,1,24.2c1.7,7,5,13.9,10.3,19c0.6,0.6,1.3,1.2,2,1.7
		c0.7,0.5,2,0.9,2.8,0s0.9-2.1,0-2.8c-1.4-1.1-2.6-2.3-3.8-3.6l-0.8-0.9l-0.2-0.2l-0.4-0.6c-0.5-0.7-0.9-1.4-1.4-2.1
		c-0.9-1.5-1.7-3.1-2.5-4.7l-0.1-0.2c-0.1-0.2-0.2-0.4-0.2-0.6c-0.2-0.4-0.4-0.9-0.5-1.3L64,140c-0.5-1.7-0.9-3.5-1.3-5.2l-0.2-1.5
		c0-0.2-0.1-0.4-0.1-0.6c0-0.2,0-0.3-0.1-0.4v-0.1c-0.1-0.9-0.2-1.9-0.3-2.8c-0.3-4-0.2-7.9,0.2-11.9c0-0.4,0.1-0.9,0.2-1.3
		c0-0.2,0-0.4,0.1-0.6c0,0,0,0,0-0.1l0,0c0-0.2,0-0.3,0.1-0.4c0.1-1,0.3-2,0.5-3c0.4-1.9,0.8-3.9,1.3-5.8c1-3.8,2.3-7.6,3.8-11.3
		c0.2-0.4,0.4-0.9,0.6-1.3l0.1-0.3l0.4-0.8c0.4-0.9,0.8-1.9,1.3-2.8c0.9-1.8,1.7-3.6,2.7-5.4c1.9-3.5,3.9-7,6-10.4
		c4.3-6.8,9-13.3,13.7-19.8c3,4.5,5.8,9.3,8.3,14.1c1.5,2.8,2.9,5.7,4.2,8.6c0.3,0.8,0.7,1.5,1,2.3l0.4,0.9c0,0.1,0.1,0.2,0.2,0.3
		l0.2,0.6c0.6,1.5,1.2,3,1.8,4.5c2.3,6,4.2,12.2,5.7,18.4c0.2,0.8,0.4,1.5,0.5,2.2c0.1,0.2,0.1,0.5,0.2,0.8c0.1,0.3,0.2,0.6,0.2,0.9
		c0,0.1,0,0.3,0,0.4s0,0.6,0.1,0.9v1.7c0,0.3,0,0.6,0,0.8c0,0.1,0,0.2,0,0.3v0.2c-0.1,0.5-0.2,1-0.4,1.5l-0.1,0.4v0.1l-0.1,0.2
		l-0.2,0.4l-0.4,0.5h0l-0.3,0.3l-0.2,0.2c-0.2,0.2-0.4,0.3-0.6,0.4l-0.1,0.1h-0.2c-0.3,0.1-0.6,0.2-0.8,0.2h-0.4l-0.7,0.1
		c-0.4,0-0.9,0.1-1.3,0.2c-0.8,0.3-1.5,0.7-2.1,1.3c-1.7,1.9-1.5,4.4-0.7,6.7c-0.3,0-0.6,0.1-0.9,0.1c-1.5,0.4-2.9,1.3-3.8,2.6
		c-0.8,1.3-1.3,2.8-1.9,4.3l-1.7,4.5c-0.6,1.3-1.1,2.7-1.6,4.1l-0.7,1.7c-0.1,0.3-0.2,0.6-0.4,0.9l-0.2,0.6c-1,2.3-2.2,4.6-3.6,6.7
		c-0.4,0.6-0.7,1.1-1.1,1.6c-0.2,0.2-0.2,0.3-0.2,0.3l-0.4,0.4l-0.6,0.7c-0.5,0.5-1,1-1.5,1.5l-0.8,0.6h0l-0.1,0.1l-0.6,0.4
		c-0.8,0.6-1.3,1.8-0.7,2.7c0.6,0.9,1.8,1.3,2.7,0.7c4.3-3,7.3-7.4,9.5-12.1c2.2-4.7,4.3-10.8,6.4-16.1l0.2-0.5c0-0.1,0-0.1,0-0.2
		c0-0.1,0,0,0.1-0.1l0.5-0.9c0,0,0,0,0-0.1h0.1l0.2-0.2l0.2-0.2l0.2-0.1c0.3-0.1,0.6-0.2,0.9-0.2h0.6c0.7,0,1.4,0,2.1,0.1
		c1.5,0.1,2.5-1.8,1.7-3c-0.3-0.5-0.6-1-0.8-1.5l-0.1-0.2l-0.2-0.4c-0.1-0.3-0.2-0.6-0.2-0.9l-0.1-0.4c0-0.1,0-0.5,0-0.2
		c0,0.2,0-0.1,0-0.2v-0.4c0-0.1,0-0.2,0-0.3s0.1-0.2,0.1-0.2l0.1-0.1l0.1-0.1l0.2-0.1h0.3c0.2,0,0.4-0.1,0.5-0.1h0.2
		c0.5,0,1-0.1,1.5-0.2c1.3-0.2,2.5-0.8,3.5-1.7c1.9-1.6,2.6-4.2,2.8-6.5c0.2-2.4,0-4.9-0.6-7.2C117.5,98.6,115.6,92.4,113.3,86.3z
		 M110.3,120.9C110.3,120.9,110.3,120.9,110.3,120.9L110.3,120.9L110.3,120.9z"/>
	<path style="stroke:#000000;stroke-width:3;stroke-linecap:round;stroke-linejoin:round;stroke-miterlimit:10;" d="M304.8,249.4
		c-4-5.9-6.5-12.8-7.2-19.9c0-1.1-0.9-1.9-2-2c-1.1-0.1-1.9-1.3-2.4-2.2c-0.8-1.5-1.4-3-1.9-4.7c-1.1-3.6-1.9-7.3-2.2-11.1
		c-0.4-3.8-0.5-7.6-0.9-11.4c-0.3-2.5-1.1-4.9-2.2-7.2c-2.5-5.1-6-9.5-9.1-14.2c-1.5-2.2-2.8-4.5-4-7c-0.8-2.1-1.1-4.3-2.5-6.1
		c-2.4-3.3-6.2-3.6-9.8-4.5l-1.1-0.3l-0.3-0.1l-0.4-0.2l-0.4-0.2h0l-0.1-0.1l-0.2-0.2c-0.1-0.1-0.2-0.3-0.2-0.4c0-0.1,0-0.1,0-0.2
		c0-0.2-0.1-0.4-0.1-0.6c0,0,0-0.3,0-0.4c0-0.3,0-0.6,0-0.9c0-1,0.2-2.1,0.3-3c1.3-10.5,2.8-21,3.1-31.6c0.2-5.5-0.1-11-0.8-16.4
		c-0.3-2.3-0.9-4.6-1.7-6.9c-1-2.7-2.4-5.3-3.7-7.9c-6.1-12.1-13.5-23.5-21.9-34.2c-4.2-5.3-8.7-10.3-13.5-15
		c-2.4-2.3-4.9-4.6-7.4-6.8c-1.7-1.6-3.6-3-5.7-4.1c-3.7-2-7.8-4.5-12.2-3.8s-5.1,5.9-5.1,9.7c-0.2,11.8-3.1,23.2-6.7,34.4
		s-8.2,23.2-12.8,34.6l-2.5,6.3l-0.2-0.1c-0.5-0.1-1-0.1-1.5,0c-0.7,0.2-1.3,0.6-1.8,1.1l-0.5,0.5h0l-0.3,0.2l-0.2,0.1h0l-0.6,0.2
		h-1l-0.3-0.1h-0.2l-0.2-0.1c-1.3-0.7-3,0.2-3,1.7c0,0.1,0,0.2,0,0.4c-2.6-1.5-5.6-2.5-8.2-4.1c-0.4-0.3-1-0.4-1.5-0.2
		c-0.5,0.2-0.9,0.5-1.2,0.9c-0.6,0.7-0.9,1.5-1.2,2.3c-0.4-0.1-0.7-0.1-1.1-0.1c0-0.2-0.1-0.3-0.2-0.4c-4.5-9.8-8.4-19.8-12.5-29.8
		c-4.7-11.8-9.4-23.6-14.6-35.2c-2.1-4.9-4.3-9.7-6.8-14.5c-1.8-3.5-3.7-7-6.1-10c-1.5-1.9-3.4-4.2-6-4.3c-1.2,0-2.1,0.7-3,1.5
		c-0.8,0.8-2.1,2.2-3,3.3c-7.1,8.4-13.7,17.3-20.3,26.1c-2.8,3.7-5.6,7.5-8.4,11.2c-2.6,3.6-4.8,7.6-6.6,11.6
		c-2.8,6-5.2,12.2-7.2,18.5c-1.9,5.7-3.6,11.5-4.5,17.5c-0.9,6-0.3,12.2,0.3,18.2c0.8,7.6,1.9,15.1,4.1,22.4c0.4,1.5,0.9,3,1.5,4.5
		c0.2,0.7,0.5,1.3,0.8,2l-0.9,0.2c-1.1,0.2-2.1,0.3-3.2,0.5c-2.5,0.5-4.6,1.8-4.9,4.5c-0.2,2.7-0.7,5.7-1.1,8.6
		c-0.2,1.3-0.4,2.7-0.3,4.1c0.1,1.9,0.3,3.8,0.3,5.7c-0.2,3.2-0.9,6.4-2.3,9.3c-1.6,3.2-3.7,6.2-5.7,9.2c-1.2,1.7-2.4,3.4-3.5,5.1
		c-1.1,1.7-1.7,3.4-1,5.3c0.9,2.5,3.6,4,6.2,4.7L32,224.8c-1.1,3.8-2.1,7.8-4,11.3c-0.9,1.7-2.1,3.1-3.1,4.7c-1,1.6-0.9,3.9,0.2,5.8
		c2,3.4,2.6,7.2,1.6,11.1c-0.7,2.5,3.1,3.5,3.8,1.1c1.1-4,0.8-8.2-0.9-12c-0.4-0.8-0.8-1.7-1.3-2.5c-0.5-0.9-0.2-1.3,0.4-2.1
		c1.1-1.5,2.2-3.2,3-4.9c1.8-3.7,2.8-7.6,4-11.5s2.6-8.9,4-13.3c0.3-0.9-0.3-2.3-1.4-2.4c-1.8-0.3-6.6-1.3-5.2-4
		c1.9-3.4,4.5-6.4,6.6-9.7c2.1-3.3,3.5-5.7,4.5-8.9c1.1-3.4,1.5-7.1,1.3-10.7c-0.2-1.4-0.2-2.8-0.2-4.3c0.1-1.5,0.3-2.9,0.5-4.3
		c0.2-1.4,0.5-3.2,0.7-4.8c0.1-0.5,0.1-1.1,0.2-1.6v-0.2c0,0,0.1-0.1,0.1-0.2s0,0,0,0H47l0.4-0.2l1.4-0.4l3.1-0.5
		c2.2-0.4,4.5-1.6,4-4.2c-0.3-1.1-1-2.3-1.4-3.4c-0.4-1.1-1-2.9-1.4-4.4c-1-3.5-1.7-7.1-2.3-10.7c-1.2-7.1-2-14.4-2.2-21.6
		c-0.2-5,0.9-9.6,2.2-14.5C52.5,95.2,54.6,89,57,83c2-5.1,4.2-10.2,7-14.9c1.9-3.2,4.3-6.2,6.5-9.2c6.5-8.7,13-17.5,19.9-26.1
		c2.3-2.9,4.6-6,7.3-8.6l0.4-0.4L98,23.7h0.3c0,0,0.1,0,0.1,0.1h-0.1l0.2,0.1l0.5,0.4c-0.6-0.4,0.2,0.1,0.3,0.3
		c0.2,0.2,0.9,0.9,1.3,1.3l0.5,0.6l0.6,0.8c1.1,1.5,2,3,2.9,4.6c2.4,4.1,4.4,8.4,6.4,12.7c5.1,10.9,9.5,22,14,33.2s8.5,21.4,13,31.9
		c0.9,2,1.7,4,2.6,5.9c0.2,0.3,0.4,0.6,0.7,0.8l-0.6-0.1c-0.4-0.1-0.9-0.2-1.4-0.3c-0.8,0-1.6,0.2-2.3,0.6c-0.8,0.5-1.3,1.2-1.5,2.1
		c-0.3,1.1,0.2,2.3,1.2,2.9c0.9,0.6,2.1,0.2,2.7-0.7c0.1-0.2,0.2-0.5,0.2-0.8l0.6,0.2c0.8,0.2,1.5,0.2,2.3,0c0.8-0.2,1.5-0.8,2-1.5
		c0.1-0.1,0.1-0.3,0.2-0.4h0.1l0.3,0.3c0.1,0.1,0.4,0.4,0.1,0c0.5,0.8,1.3,1.1,2.2,0.9c0.8-0.2,1.6-1,1.5-1.9
		c-0.1-0.4-0.1-0.9,0-1.3c0,0,0-0.1,0-0.2c0,0,0,0,0,0c0-0.2,0-0.4,0.1-0.6c0,0,0,0,0-0.1c2.7,1.3,5.6,2.3,8,4.1
		c0.7,0.5,1.8,0.2,2.4-0.3c0.6-0.6,1.1-1.3,1.4-2.1c1.9,0.2,3.8-0.4,5.2-1.6l0.5-0.5l0.1-0.1l0.9,0.3c0.6,0.1,1.1,0.2,1.7,0.1
		c0.8,1.2,1.9,2.1,3.2,2.6c0.8,0.3,1.7,0.5,2.5,0.7l0.6,0.2l0.2,0.1l0.3,0.2h0.1l0.1,0.2v0c0.6,0.8,1.7,1.3,2.6,0.7
		c0.9-0.6,1.3-1.8,0.7-2.7c-0.6-0.9-1.3-1.5-2.3-2c-0.9-0.4-1.8-0.7-2.7-0.9l-0.6-0.1l-0.3-0.1h-0.2l-0.3-0.2l-0.2-0.2h-0.1
		l-0.2-0.3c0,0,0-0.1-0.1-0.1v-0.2c0.2-0.8,0-1.6-0.7-2.1l-0.4-0.2c4.1-10.1,8.2-20.2,11.8-30.4c4.1-11.6,7.8-23.5,9.4-35.7
		c0.3-2.6,0.5-5.3,0.6-8c0-2.1-0.1-4,0.5-5.8v-0.2h0l0.2-0.4l0.4-0.4l0.2-0.1l0.7-0.2c0.4,0,0.9-0.1,1.3,0h0.7
		c0.3,0.2,0.7,0.3,1,0.4c0.8,0.3,1.7,0.7,2.6,1.1c2,0.9,4,2,5.8,3.2l0.4,0.3h0.1l0.2,0.2l2,1.7c1.2,1.1,2.5,2.1,3.6,3.2
		c4.9,4.5,9.6,9.4,14,14.5c8.6,10.2,16,21.3,22.3,33.1c2.6,4.9,5.4,9.6,6.6,14.9c1.2,5.4,1.3,10.1,1.3,15.2
		c0,10.8-1.4,21.5-2.8,32.1c-0.5,3.6-1.9,8.7,1.4,11.5c1.3,1.1,3,1.6,4.6,1.9l2.5,0.5l1.2,0.3l0.6,0.2l0.4,0.1h0
		c1.5,0.5,2.6,1.7,3,3.2c0.7,2.4,1.6,4.6,2.7,6.8c2.7,4.9,6.2,9.3,9.1,14c1.3,2.1,2.7,4.3,3.5,6.7s0.9,5.5,1.1,8.5
		c0.6,7.6,1.3,15.2,4.4,22.3c1,2.2,2.5,4.2,4.6,5c0.9,7.3,3.5,14.3,7.6,20.4C302.8,253.5,306.2,251.5,304.8,249.4z M52,156.9v0.1
		C52.2,156.9,51.8,157.9,52,156.9z M172.5,113.4L172.5,113.4C172.5,113.4,172.5,113.4,172.5,113.4z"/>
	<path style="stroke:#000000;stroke-width:3;stroke-linecap:round;stroke-linejoin:round;stroke-miterlimit:10;" d="M233.8,163.6
		c0.9-0.3,1.8-1.4,1.4-2.5l-8.8-24.3c-0.4-1.1-1.7-1.9-2.9-1.2l-0.7,0.4l-0.3,0.2h0l-1.3,0.4H220c-0.4-1.5-0.9-3.1-1.6-4.5
		c-0.9-2-2.3-3.8-4-5.1c-1.7-1.3-3.7-2.1-5.7-2.8l-6.8-2.5l-6.8-2.5l-3.2-1.1h-0.1l-0.2-0.1l-0.5-0.3l-0.3-0.2l-0.1-0.1
		c0-0.1-0.3-0.4-0.3-0.3l-0.2-0.4c0-0.2-0.1-0.3-0.2-0.5c0-0.1,0-0.2,0-0.3v-0.7c0,0,0-0.1,0-0.1c0,0,0-0.3,0-0.4
		c0.1-0.3,0.1-0.5,0.2-0.8c0.1-0.5,0.2-1,0.3-1.6c0.4-2.1,0.9-4.3,1.3-6.4c1.8-8.8,3.8-17.6,5.3-26.4c0.8-4.6,1.4-9.3,1.9-13.9
		c0.2-2.3,0.4-4.7,0.5-7l0.1-1.4c0-0.2,0-0.3,0-0.4h0c0-0.3,0.1-0.7,0.2-1c0.2-1.4,0.5-2.7,0.9-4c0.1-0.3,0.2-0.6,0.3-0.9l0.2-0.4
		c0.1-0.2,0.2-0.3,0.3-0.5c0.9,0.6,1.7,1.2,2.5,1.8l0.1,0.1l0.4,0.2l0.8,0.7l1.5,1.2l2.5,2.1c0.8,0.8,1.6,1.5,2.4,2.4
		c1.4,1.5,2.7,3,4,4.5l1.8,2.3l0.8,1l0.4,0.6c0.1,0.1,0.1,0.2,0.1,0.1l0.2,0.2c1.1,1.5,2.2,3,3.3,4.5c2,2.9,3.9,6,5.6,9.1
		s3.3,6.3,4.8,9.6c0.8,1.7,1.5,3.4,2.3,5.1l0.2,0.6h0l0.1,0.3l0.6,1.4l1.1,2.7c3,7.6,6.1,15.2,8.1,23.2c0.5,2,0.9,4,1.2,6l0.1,0.8
		c0,0,0,0.1,0,0.1v0c0,0.1,0,0.2,0,0.4c0.1,0.5,0.1,1,0.2,1.5c0.1,0.5,0.2,2.1,0.2,3.1c0,2,0,4-0.2,5.9c0,0.1,0,0.2-0.1,0.4
		c0,0.1,0,0.4-0.1,0.6c0,0.2-0.2,1-0.3,1.5c-0.1,0.5-0.5,1.9-0.8,2.8c-0.3,0.9-0.3,0.9-0.5,1.4c0,0.2-0.1,0.3-0.2,0.5
		c0-0.1,0,0,0,0.1c0,0,0,0,0,0.1s-0.1,0.2-0.2,0.3c-0.4,0.9-0.9,1.8-1.4,2.6c-0.6,0.9-0.2,2.2,0.7,2.7c0.9,0.6,2.2,0.2,2.7-0.7
		c4.3-7.5,4.9-16.2,3.7-24.6c-1.2-8.4-4.2-16.4-7.2-24.2s-5.7-14.6-9.3-21.6c-3.4-6.7-7.4-13.1-11.9-19c-2.5-3.2-5.1-6.2-7.9-9.2
		c-1.5-1.5-3.1-3-4.8-4.3l-3.4-2.7c-0.8-0.6-1.6-1.2-2.5-1.7c-1.1-0.6-2.3-0.7-3.5,0c-1.1,0.8-1.9,2.2-2.5,3.6
		c-1,2.6-1.5,5.5-1.7,8.2c-0.2,2-0.2,4-0.4,6c-0.2,2-0.5,4.7-0.8,7.1c-0.1,0.7-0.1,0.8-0.2,1.4s-0.2,1.2-0.3,1.8
		c-0.1,0.6-0.4,2.3-0.6,3.5c-0.4,2.3-0.8,4.5-1.2,6.8c-0.9,4.5-1.8,9-2.8,13.5c-0.9,4.5-1.9,8.8-2.8,13.2c-0.2,1-0.4,2.1-0.6,3.2
		c-0.2,1.3-0.1,2.6,0.4,3.8c1,2.3,3.1,3.2,5.3,4.1l14,5l3.1,1.1l0.3,0.2h0.1l0.7,0.4c0.5,0.2,1,0.4,1.4,0.8l0.6,0.4l0.3,0.2
		c0,0,0,0,0.1,0.1c0.4,0.4,0.8,0.7,1.1,1.1l0.1,0.1l0.1,0.2l0.4,0.6c0.3,0.4,0.5,0.9,0.8,1.3l0.2,0.6c0,0.1,0.2,0.4,0.2,0.5l0.5,1.4
		c0.3,0.9,0.5,1.9,0.8,2.8c0.2,0.7,0.7,1.2,1.4,1.4c1.9,0.4,3.8,0.3,5.5-0.3c2.6,7.4,5.3,14.7,8,22.1
		C231.8,163.2,232.8,163.9,233.8,163.6z"/>
	<path style="stroke:#000000;stroke-width:3;stroke-linecap:round;stroke-linejoin:round;stroke-miterlimit:10;" d="M264.7,236.7
		C264.7,236.7,264.7,236.7,264.7,236.7c-0.1-0.1-0.2-0.7-0.4-0.9c-0.2-0.6-0.4-1.1-0.5-1.7c0-0.3-0.1-0.6-0.2-0.8s0-0.3-0.1-0.4
		c0-0.6-0.1-1.2-0.1-1.8c0-0.6,0-1.1,0-1.7s0-0.6,0.1-0.9c0,0,0-0.1,0-0.1c0-0.1,0-0.3,0.1-0.4c0.2-1.2,0.5-2.3,1-3.4
		c0.3-0.8-0.2-1.7-0.7-2.1c-0.6-0.5-1.5-0.6-2.1-0.2l-0.1-0.1l-0.1-0.1l-0.1-0.2c0,0,0,0,0,0v-0.2v-0.1c0,0,0-0.1,0.1-0.2
		c0-0.1,0-0.2,0.1-0.3c0-0.1,0-0.1,0-0.1c0.1-0.2,0.2-0.3,0.2-0.5c0.4-0.7,0.9-1.4,1.3-2.1c0.4-0.7,1.1-2.1,0.7-3.2
		c-0.4-1.1-1.3-1.7-2.1-2.4s-2.6-2.5-3.9-3.8c-1.3-1.3-2.4-2.7-3.5-4.1l-1.7-2.2l-0.4-0.5c0,0,0,0,0-0.1l-0.2-0.2l-0.9-1.1l-7-9.3
		l-8.1-10.8c-0.6-0.8-1.7-1.3-2.7-0.7c-1,0.6-1.3,1.8-0.7,2.7c4.9,6.6,9.8,13.2,14.7,19.7c2.3,3.1,4.7,6.1,7.4,9
		c1.3,1.4,2.6,2.7,4,4l1,0.9h0c0,0.1-0.1,0.2-0.2,0.4l-0.7,1.1c-1.2,1.9-2,4.2-0.8,6.2c0.4,0.8,1.1,1.4,1.9,1.9
		c-1.1,4.5-0.6,9.2,1.3,13.3c0.4,0.9,1.9,1.2,2.7,0.7c0.8-0.5,1.2-1.7,0.7-2.7L264.7,236.7z M260.3,215.8
		C260.3,215.7,260.5,215.5,260.3,215.8L260.3,215.8z M262.1,222.3L262.1,222.3C262.2,222.3,262.2,222.4,262.1,222.3z"/>
	<path style="stroke:#000000;stroke-width:3;stroke-linecap:round;stroke-linejoin:round;stroke-miterlimit:10;" d="M81.1,173.9
		c-0.9-0.2-2.3,0.3-2.4,1.4c-0.9,6.4-2.5,12.7-4.8,18.8c-0.3,0.8-0.6,1.5-0.9,2.3c-0.1,0.3-0.2,0.6-0.4,0.9c0,0.1-0.1,0.3-0.1,0.4
		c-0.1,0.2-0.2,0.4-0.3,0.6c-0.7,1.5-1.4,3-2.1,4.4c-1.5,2.9-3.1,5.7-4.8,8.4c-1.2,1.8-2.1,4-1.1,6.1c0.5,0.9,1.2,1.6,2.1,2
		l-0.2,0.4c0,0-0.1,0.1-0.1,0.1c-1,1.2-2.1,2.3-3,3.6c-0.5,0.7-0.8,1.4-1.1,2.1c-0.4,1.1-0.3,2.1-0.2,3.2c0,0.5,0,1,0,1.5v0.1
		c0,0.1,0,0.2,0,0.2c0,0.2-0.1,0.5-0.2,0.7c0,0.2-0.1,0.4-0.2,0.6l-0.1,0.4c-0.2,0.4-0.4,0.8-0.7,1.2c-0.3,0.5-0.6,0.9-0.9,1.4
		c0,0.1-0.1,0.2-0.2,0.2l-0.2,0.2c-0.2,0.2-0.4,0.4-0.5,0.6c-0.7,0.9-1.5,1.7-2.3,2.5c-0.8,0.8-0.8,2,0,2.8c0.8,0.8,2,0.8,2.8,0
		c3-3.1,6.1-6.6,6.4-11.2c0-0.5,0-1,0-1.5c0-0.3,0-0.6,0-0.9v-0.5l0.1-0.4c0,0,0-0.1,0-0.1c0,0,0,0,0-0.1v0c0.2-0.3,0.3-0.6,0.5-0.9
		l0.1-0.2h0c0,0,0,0,0-0.1s0,0,0,0l0.1-0.1l0.2-0.2l0.8-0.9l1.4-1.6c1.3-1.6,2.2-3.5,1.5-5.6c-0.4-1.1-1.5-1.8-2.6-1.3
		c0,0,0,0,0-0.1c0,0,0,0,0,0h0c0,0,0-0.1,0-0.1V215h0c0-0.1,0-0.2,0.1-0.4c0-0.1,0-0.2,0.1-0.2c0,0,0-0.1,0-0.1l0.1-0.2l0.3-0.6
		c0.4-0.7,0.8-1.3,1.3-2c1.6-2.6,3-5.2,4.4-7.9c2.7-5.5,4.9-11.3,6.5-17.3c0.9-3.3,1.5-6.7,2-10.1C82.8,175.3,82.2,174.2,81.1,173.9
		z M67.6,215.3C67.6,215.2,67.6,215.2,67.6,215.3L67.6,215.3z"/>
</g>
</svg>
