<?xml version="1.0" encoding="utf-8"?>
<!-- Generator: Adobe Illustrator 27.9.0, SVG Export Plug-In . SVG Version: 6.00 Build 0)  -->
<svg version="1.1" id="Layer_1" xmlns="http://www.w3.org/2000/svg" xmlns:xlink="http://www.w3.org/1999/xlink" x="0px" y="0px"
	 viewBox="0 0 369.5 255.6" style="enable-background:new 0 0 369.5 255.6;" xml:space="preserve">
<g>
	<path style="stroke:#000000;stroke-width:3;stroke-linecap:round;stroke-linejoin:round;stroke-miterlimit:10;" d="M109.5,62.8
		c-4.5-4.2-12.2-12.1-17.9-5.5c-5,5.8-6.3,14.5-7.2,21.8c-1.1,9-1.9,18-2.6,27c-0.9,10.4-1.5,20.8-1.9,31.2v0.3
		c-0.3,1.4,0.4,3.2,2.3,3.3c4.7,0.2,8.2-3.3,10-7.4s1.1-9.1,1.7-13.7c2.8,1,5.7,1.4,8.7,1.3c1.4,0,2.5-1.2,2.5-2.6
		c0-0.2,0-0.4-0.1-0.6c-1.5-5.7-2.4-11.6-2.7-17.5c2.1,1.1,4.2,2.5,6,4.1c0.9,0.9,2.5,1,3.5,0c1.1-1.2,1.7-2.8,1.5-4.5l1-0.1
		c1-0.2,1.9-0.5,2.8-1c3.5-2,5.2-6.1,4.3-10.1c-0.7-3.1-5.5-1.8-4.8,1.3c0.2,1.3-0.2,2.7-1.1,3.7c-1.3,1.3-2.6,0.9-4.2,1.4
		c-1.3,0.3-2.4,1.3-2.8,2.6c0,0.2,0,0.4,0,0.6c-2.5-1.8-5.3-3.2-8.2-4.4c-1.6-0.6-3.2,0.9-3.2,2.4c0,6.5,0.8,13,2.2,19.4
		c-2.1-0.2-4.2-0.9-6.1-1.8c-1.4-0.7-3.2-0.1-3.7,1.5c-1.2,4.4-0.6,8.9-1.3,13.4c-0.4,2.2-1.5,4.8-3.4,6.1
		c0.7-15.3,1.8-30.5,3.3-45.8c0.7-7.1,1.1-14.5,3.3-21.4c0.5-1.6,1.1-3.1,1.8-4.5c0.6-1.1,1.8-3.9,3.4-4c1.6-0.1,3,1.8,3.9,2.4
		c0.9,0.7,2.7,2.2,4.1,3.4c5.8,5.2,10.6,11.3,14.3,18.1c1.5,2.8,5.8,0.3,4.3-2.5C119.8,74.1,115.1,68.1,109.5,62.8z M113.3,100.1
		L113.3,100.1C113.2,99.1,113.5,99.8,113.3,100.1z"/>
	<path style="stroke:#000000;stroke-width:3;stroke-linecap:round;stroke-linejoin:round;stroke-miterlimit:10;" d="M277.5,127.4
		c-3.7,0.4-7.2-2.2-7.4-6c0-1.4-1.3-2.6-2.7-2.5c-0.1,0-0.3,0-0.4,0c-1.6,0.3-3.4,0.5-4.9,0.9c-0.1-0.4-0.1-0.8-0.2-1.1
		c-0.1-0.4-0.2-1.9-0.2-2.9c0-2.6,0.9-5.6-1.7-7.2c-0.9-0.5-2-0.8-3.1-0.6c-1.5,0.1-2.4,1.1-3.7,1.5c-1.3,0.4-0.7,0.4-1-0.5
		c-0.3-0.9,0-1.5,0-2.1c0.2-1.6,0.6-3.1,0.4-4.7c-0.2-1.6-1.4-2.8-3.2-2.4l-6.9,1.7l-2.6,0.6c0.3-1.2,0.5-2.6,0.7-3.6
		s0.7-3.1,1.1-4.7c1.5-6.4,3.6-12.8,8.4-17.4c2.7-2.6,6.5-5,10.1-2.9c3.6,2.1,5.2,5.5,6.5,8.9c1.2,3.5,2.2,7,2.9,10.6
		c0.4,2,0.9,4.1,1.2,6.1c0.2,1.1,0.4,2.3,0.6,3.5c0.2,1.1,0.2,1.1,0.2,1.7c0,0.5-0.1,0.6,0,0.6c-2.3,1.5-1,5.7,1.8,4.6
		c3.8-1.5,3.2-5.2,2.6-8.6c-0.8-4.5-1.7-9-2.8-13.4c-1.8-7.1-4.6-15.4-11.7-18.7c-7.1-3.3-14.9,2.9-18.8,8.6
		c-3.9,5.7-5.5,12.8-7.1,19.6c-0.7,3-3.4,8.9,0.8,10.4c1.9,0.7,4.5-0.4,6.4-0.9l4.6-1.1c-0.3,2.5-0.8,4.8,0.8,7.2
		c2.1,3.1,5.8,2.5,8.5,0.7c0,0.2,0,0.5,0,0.8c-0.1,1.2-0.1,2.4,0,3.6c0.2,1.8,0.3,4,1.2,5.5c1.6,2.6,4.9,1.9,7.8,1.2
		c1.3,3.7,4.5,6.8,8.3,7.7c0.3,0.4,0.9,0.8,1.4,0.9c1.7,0.5,3.5-0.3,4.3-1.8C280.5,129.7,279.5,127.3,277.5,127.4z"/>
	<path style="stroke:#000000;stroke-width:3;stroke-linecap:round;stroke-linejoin:round;stroke-miterlimit:10;" d="M346.3,214.9
		c-7.2-4.7-13.2-11.3-18.5-18c-2.6-3.3-4.6-6.6-7.9-9.2c-0.2-0.2-0.8-0.4-0.9-0.8c0-0.1,0-0.1,0-0.1v0c0.2-0.8,2.1-1.6,2.7-2
		l6.7-4.4c1.4-0.9,1.8-3.5,0-4.3c-5-2.2-10-4.3-14.9-6.6c-1.6-0.7-3.7-1.6-4.4-3.4c-0.7-1.8,1.1-5.2,2.4-7.1c0.6-0.8,0.5-2.4-0.4-3
		c-2.1-1.7-4.5-3.1-6.9-4.2l15.4-14.3c0.9-0.9,1-2.5,0-3.5c-4.8-4.2-10.4-7.3-16.4-9.3H303c-1.7-11.9-5.9-23.7-11.4-34.1
		S279.8,71,273.1,61.7c-2.6-3.7-5.3-8.5-10.1-9.8c-4.7-1.3-11.4,2.9-16,5.2L214,73.4c-0.4-0.3-0.9-0.5-1.4-0.5
		c-1.3-0.1-1.6-3.9-1.9-4.9c-0.6-2.1-1.8-4.3-3.7-5.4c-1.8-1-3.9-0.9-5.5,0.4c-0.8,0.6-1.4,1.4-1.9,2.2l-0.1-0.2
		c-0.9-1.7-1.7-3.4-3.6-4.1c-1.9-0.8-4.5-0.1-6.4,0.9c-4,2.1-7.6,5.3-10.7,8.7c-0.7-0.9-1.1-2.1-1.3-3.2c-0.2-0.9-0.9-1.5-1.8-1.8
		c-2.3-0.7-4.6,0-6.5,1.4c-1.9,1.3-3.3,3.3-5.2,3.9c-1.9,0.6-3.4-1.9-4.6-3.3c-1.2-1.3-3.6-3.1-6.1-2.6c-2.5,0.5-3.7,2.5-4.9,4.5
		l-0.8,1.2l-0.2,0.4c-1.5-0.7-2.7-2.2-4.2-2.9c-1.5-0.8-3.7-0.4-4.9,0.9c-6.2-5.8-12.5-11.5-19.4-16.4c-3.8-2.7-7.9-5-12.1-7
		c-4.1-1.8-8.7-3.7-13.2-3.9c-4.5-0.2-8.2,3.3-11,6.7c-2.8,3.5-5.3,7.2-7.3,11.1c-4.3,8.3-7,17.3-9.5,26.3
		c-3.3,11.5-6.3,23.1-9,34.8c-6.9-0.3-13.8,1-20.1,3.8c-1.9,0.8-1.3,3.3,0,4.3c4,3,8.2,5.5,12.7,7.7c-2.2,1.6-4.1,3.5-3.6,6
		c0.5,2.6,2,4.2,3,6c1,1.8,1.2,2.2,1.8,3.3c-2.8,0.8-5.5,2-8,3.7c-0.9,0.6-1.4,1.7-1.1,2.8c0.4,2.1,3.2,3.4,3.1,5.5
		c-0.1,2-2.6,5.3-4.1,7.3l-11.2,15.2c-5.7,7.8-16.2,18.4-11,28.9c1.4,2.9,5.7,0.4,4.3-2.5c-2.3-4.7,1.2-10.2,3.9-14
		c3.6-5.1,7.3-10,11-15c3.7-5,7.6-9.4,10.4-14.5c1.1-2,2-4.4,1.7-6.7c-0.1-1.1-0.6-2.2-1.3-3c-0.2-0.3-0.5-0.7-0.9-0.9
		c2.4-1.2,5-2.1,7.6-2.5c1.7-0.3,2.2-2.4,1.5-3.7c-1.5-2.7-3-5.5-4.5-8.2c-0.2-0.4-1.1-1.6-1.1-2c0-0.4,0.5-0.7,1-1l3.8-2.7
		c1.9-1.3,1.4-3.7-0.6-4.6c-4.2-1.8-8.2-3.9-12-6.4c5.1-1.6,10.4-2,15.7-1.5c1.7,0.1,2.5-1.2,2.4-2.5c0,0,0-0.1,0-0.2
		c2.3-9.8,4.8-19.6,7.4-29.3c2.3-8.5,4.6-17,7.9-25.2c1.6-4,3.5-7.8,5.8-11.5c2-3.3,4.6-7.4,8-9.6c3.3-2.1,9.2,0.6,12.7,1.9
		c4,1.7,7.8,3.7,11.4,6.2c7.7,5.1,14.6,11.4,21.2,17.8c-1.4,3-2.5,6.2-3.3,9.4c-0.8,3.1,4,4.4,4.8,1.3c0.8-3.5,2-6.8,3.6-10
		c0.3-0.4,0.5-0.8,0.7-1.1c0.4,0.3,0.8,0.5,1.2,0.8c1.1,0.9,2.7,2.3,4.1,2.6c2.2,0.4,4.1-1.4,5.2-3.1c0.5-0.8,1.5-3.4,2.6-3.3
		c1.1,0.1,1.6,1.5,1.9,1.9c0.7,0.8,1.4,1.6,2.2,2.3c1.7,1.4,3.7,2.1,5.9,1.7c2.1-0.5,3.7-1.8,5.2-3c1.5-1.3,2.1-2,3.3-2.4
		c0.9,2.4,2.5,4.4,4.6,5.9c0.8,0.6,2.4,0.4,3-0.4c3.1-3.7,6.9-7.6,11.3-9.8c2.5-1.2,2.4,0.2,3.5,2.1c1,1.9,2.2,2.6,4,2.6
		c1.8,0,3.1-1.1,4-2.5c0.4-0.5,0.8-1.4,1.1-1.3c0.3,0.1,1.2,1.9,1.4,2.6c0.6,2.4,1.2,4.8,2.7,6.4l-0.5,0.2c-2.8,1.4-0.3,5.7,2.5,4.3
		L242,65.1c5.2-2.6,10.4-5.4,15.7-7.6c2.4-1,4.4-1.2,6.4,0.6s3.3,4,4.7,6.1c11.7,16.5,23.3,33.6,27.7,53.7c2.4,10.7,3.2,22,0.7,32.7
		c-0.1,0.4-0.1,0.9,0,1.3c-0.4,1.4,0.4,2.7,1.7,3.2c2.5,0.8,4.9,1.9,7.1,3.4c-2.4,4.6-3.3,9.8,1.5,13.4c2.5,1.8,5.5,2.9,8.2,4.1
		l6.2,2.7l-4.3,2.8c-1.8,1.2-3.6,2.7-3.7,5c-0.2,2.3,1,3.6,2.6,4.8c0.9,0.6,1.7,1.2,2.4,1.9c0.9,1.1,1.7,2.2,2.5,3.4
		c6.3,8.4,13.6,16.7,22.4,22.5C346.5,221,349,216.7,346.3,214.9z M147.5,71C147.2,71.2,147.2,71,147.5,71L147.5,71z M303.6,130.2
		c3.7,1.4,7.3,3.3,10.4,5.7l-10.9,10.1C303.9,140.8,304,135.5,303.6,130.2z"/>
</g>
</svg>
