<?xml version="1.0" encoding="utf-8"?>
<!-- Generator: Adobe Illustrator 25.0.0, SVG Export Plug-In . SVG Version: 6.00 Build 0)  -->
<svg version="1.1" id="Layer_1" xmlns="http://www.w3.org/2000/svg" xmlns:xlink="http://www.w3.org/1999/xlink" x="0px" y="0px"
	 width="1567.251px" height="2326.86px" viewBox="0 0 1567.251 2326.86" style="enable-background:new 0 0 1567.251 2326.86;"
	 xml:space="preserve">
<style type="text/css">
	.st0{enable-background:new    ;}
	.st1{fill:none;stroke:#FF00FF;stroke-width:2;stroke-miterlimit:10;}
	.st2{fill:none;stroke:#000000;stroke-miterlimit:10;}
	.st3{fill:none;stroke:#000000;stroke-width:0.871;stroke-miterlimit:10;}
</style>
<g class="st0">
	<path class="st1" d="M800.679,2242.628v-148.096h80.936v-372.821h-80.936v-148.095h564.829v266.055H1257.88l-40.468-117.959
		h-120.543v109.35h107.627v110.21h-107.627v153.261h120.543l40.468-136.901h107.627v284.997L800.679,2242.628L800.679,2242.628z"/>
</g>
<path class="st2" d="M613.354,1721.711l40.468,117.959h107.627v-266.055H196.621v148.095h80.936v372.821h-80.936v148.096H761.45
	V1957.63H653.822l-40.468,136.901H492.811V1941.27h107.627v-110.21H492.811v-109.35L613.354,1721.711L613.354,1721.711z
	 M575.239,1856.261v59.811H467.611v203.661h164.572l40.468-136.901h63.599v234.597H221.821v-97.695h80.936v-423.222h-80.936v-97.695
	H736.25v215.655h-64.432l-40.468-117.96H467.611v159.75h107.628V1856.261z"/>
<polygon class="st2" points="613.354,1022.554 653.822,1140.514 761.449,1140.514 761.449,874.459 591.551,874.459 591.551,899.659 
	736.249,899.659 736.249,1115.314 671.818,1115.314 631.35,997.354 467.611,997.354 467.611,1157.104 575.239,1157.104 
	575.239,1216.915 467.611,1216.915 467.611,1420.576 632.183,1420.576 672.651,1283.674 736.249,1283.674 736.249,1518.271 
	221.821,1518.271 221.821,1420.576 302.756,1420.576 302.756,997.354 221.821,997.354 221.821,899.659 373.78,899.659 
	373.78,874.459 196.621,874.459 196.621,1022.554 277.557,1022.554 277.557,1395.375 196.621,1395.375 196.621,1543.471 
	761.449,1543.471 761.449,1258.474 653.822,1258.474 613.354,1395.375 492.811,1395.375 492.811,1242.114 600.439,1242.114 
	600.439,1131.904 492.811,1131.904 492.811,1022.554 "/>
<polygon class="st2" points="1217.412,1019.389 1257.88,1137.348 1365.508,1137.348 1365.508,871.294 1195.609,871.294 
	1195.609,896.494 1340.308,896.494 1340.308,1112.149 1275.876,1112.149 1235.408,994.189 1071.669,994.189 1071.669,1153.939 
	1179.297,1153.939 1179.297,1213.749 1071.669,1213.749 1071.669,1417.41 1236.241,1417.41 1276.709,1280.509 1340.308,1280.509 
	1340.308,1515.106 825.879,1515.106 825.879,1417.41 906.815,1417.41 906.815,994.189 825.879,994.189 825.879,896.494 
	977.839,896.494 977.839,871.294 800.679,871.294 800.679,1019.389 881.615,1019.389 881.615,1392.21 800.679,1392.21 
	800.679,1540.305 1365.508,1540.305 1365.508,1255.308 1257.88,1255.308 1217.412,1392.21 1096.869,1392.21 1096.869,1238.949 
	1204.497,1238.949 1204.497,1128.739 1096.869,1128.739 1096.869,1019.389 "/>
<polygon class="st2" points="613.354,281.124 653.822,399.084 761.449,399.084 761.449,133.029 196.621,133.029 196.621,281.124 
	277.557,281.124 277.557,653.945 196.621,653.945 196.621,802.041 350.051,802.041 350.051,817.144 608.019,817.144 
	608.019,802.041 761.449,802.041 761.449,517.044 653.822,517.044 613.354,653.945 492.811,653.945 492.811,500.685 
	600.439,500.685 600.439,390.474 492.811,390.474 492.811,281.124 "/>
<path class="st3" d="M796.437,681.079v126.508h608.929V681.079H796.437z M1230.972,722.649H972.787v-15.12h258.185L1230.972,722.649
	L1230.972,722.649z"/>
</svg>
