  0
SECTION
  2
HEADER
  9
$ACADVER
  1
AC1024
  9
$ACADMAINTVER
 70
     6
  9
$DWGCODEPAGE
  3
UNDEFINED
  9
$INSBASE
 10
0.0
 20
0.0
 30
0.0
  9
$EXTMIN
 10
1.000000000000000E+20
 20
1.000000000000000E+20
 30
1.000000000000000E+20
  9
$EXTMAX
 10
-1.000000000000000E+20
 20
-1.000000000000000E+20
 30
-1.000000000000000E+20
  9
$LIMMIN
 10
0.0
 20
0.0
  9
$LIMMAX
 10
12.0
 20
9.0
  9
$ORTHOMODE
 70
     0
  9
$REGENMODE
 70
     1
  9
$FILLMODE
 70
     1
  9
$QTEXTMODE
 70
     0
  9
$MIRRTEXT
 70
     1
  9
$LTSCALE
 40
1.0
  9
$ATTMODE
 70
     1
  9
$TEXTSIZE
 40
0.2
  9
$TRACEWID
 40
0.05
  9
$TEXTSTYLE
  7
Standard
  9
$CLAYER
  8
0
  9
$CELTYPE
  6
ByLayer
  9
$CECOLOR
 62
   256
  9
$CELTSCALE
 40
1.0
  9
$DISPSILH
 70
     0
  9
$DIMSCALE
 40
1.0
  9
$DIMASZ
 40
0.18
  9
$DIMEXO
 40
0.0625
  9
$DIMDLI
 40
0.38
  9
$DIMRND
 40
0.0
  9
$DIMDLE
 40
0.0
  9
$DIMEXE
 40
0.18
  9
$DIMTP
 40
0.0
  9
$DIMTM
 40
0.0
  9
$DIMTXT
 40
0.18
  9
$DIMCEN
 40
0.09
  9
$DIMTSZ
 40
0.0
  9
$DIMTOL
 70
     0
  9
$DIMLIM
 70
     0
  9
$DIMTIH
 70
     1
  9
$DIMTOH
 70
     1
  9
$DIMSE1
 70
     0
  9
$DIMSE2
 70
     0
  9
$DIMTAD
 70
     0
  9
$DIMZIN
 70
     0
  9
$DIMBLK
  1

  9
$DIMASO
 70
     1
  9
$DIMSHO
 70
     1
  9
$DIMPOST
  1

  9
$DIMAPOST
  1

  9
$DIMALT
 70
     0
  9
$DIMALTD
 70
     2
  9
$DIMALTF
 40
25.4
  9
$DIMLFAC
 40
1.0
  9
$DIMTOFL
 70
     0
  9
$DIMTVP
 40
0.0
  9
$DIMTIX
 70
     0
  9
$DIMSOXD
 70
     0
  9
$DIMSAH
 70
     0
  9
$DIMBLK1
  1

  9
$DIMBLK2
  1

  9
$DIMSTYLE
  2
Standard
  9
$DIMCLRD
 70
     0
  9
$DIMCLRE
 70
     0
  9
$DIMCLRT
 70
     0
  9
$DIMTFAC
 40
1.0
  9
$DIMGAP
 40
0.09
  9
$DIMJUST
 70
     0
  9
$DIMSD1
 70
     0
  9
$DIMSD2
 70
     0
  9
$DIMTOLJ
 70
     1
  9
$DIMTZIN
 70
     0
  9
$DIMALTZ
 70
     0
  9
$DIMALTTZ
 70
     0
  9
$DIMUPT
 70
     0
  9
$DIMDEC
 70
     4
  9
$DIMTDEC
 70
     4
  9
$DIMALTU
 70
     2
  9
$DIMALTTD
 70
     2
  9
$DIMTXSTY
  7
Standard
  9
$DIMAUNIT
 70
     0
  9
$DIMADEC
 70
     0
  9
$DIMALTRND
 40
0.0
  9
$DIMAZIN
 70
     0
  9
$DIMDSEP
 70
    46
  9
$DIMATFIT
 70
     3
  9
$DIMFRAC
 70
     0
  9
$DIMLDRBLK
  1

  9
$DIMLUNIT
 70
     2
  9
$DIMLWD
 70
    -2
  9
$DIMLWE
 70
    -2
  9
$DIMTMOVE
 70
     0
  9
$DIMFXL
 40
1.0
  9
$DIMFXLON
 70
     0
  9
$DIMJOGANG
 40
0.7853981633974483
  9
$DIMTFILL
 70
     0
  9
$DIMTFILLCLR
 70
     0
  9
$DIMARCSYM
 70
     0
  9
$DIMLTYPE
  6

  9
$DIMLTEX1
  6

  9
$DIMLTEX2
  6

  9
$DIMTXTDIRECTION
 70
     0
  9
$LUNITS
 70
     2
  9
$LUPREC
 70
     4
  9
$SKETCHINC
 40
0.1
  9
$FILLETRAD
 40
0.5
  9
$AUNITS
 70
     0
  9
$AUPREC
 70
     0
  9
$MENU
  1
.
  9
$ELEVATION
 40
0.0
  9
$PELEVATION
 40
0.0
  9
$THICKNESS
 40
0.0
  9
$LIMCHECK
 70
     0
  9
$CHAMFERA
 40
0.5
  9
$CHAMFERB
 40
0.5
  9
$CHAMFERC
 40
1.0
  9
$CHAMFERD
 40
0.0
  9
$SKPOLY
 70
     0
  9
$TDCREATE
 40
2459305.892604155
  9
$TDUCREATE
 40
2459306.142604167
  9
$TDUPDATE
 40
2459305.892604155
  9
$TDUUPDATE
 40
2459306.142604167
  9
$TDINDWG
 40
0.0000000116
  9
$TDUSRTIMER
 40
0.0000000116
  9
$USRTIMER
 70
     1
  9
$ANGBASE
 50
0.0
  9
$ANGDIR
 70
     0
  9
$PDMODE
 70
     0
  9
$PDSIZE
 40
0.0
  9
$PLINEWID
 40
0.0
  9
$SPLFRAME
 70
     0
  9
$SPLINETYPE
 70
     6
  9
$SPLINESEGS
 70
     8
  9
$HANDSEED
  5
144
  9
$SURFTAB1
 70
     6
  9
$SURFTAB2
 70
     6
  9
$SURFTYPE
 70
     6
  9
$SURFU
 70
     6
  9
$SURFV
 70
     6
  9
$UCSBASE
  2

  9
$UCSNAME
  2

  9
$UCSORG
 10
0.0
 20
0.0
 30
0.0
  9
$UCSXDIR
 10
1.0
 20
0.0
 30
0.0
  9
$UCSYDIR
 10
0.0
 20
1.0
 30
0.0
  9
$UCSORTHOREF
  2

  9
$UCSORTHOVIEW
 70
     0
  9
$UCSORGTOP
 10
0.0
 20
0.0
 30
0.0
  9
$UCSORGBOTTOM
 10
0.0
 20
0.0
 30
0.0
  9
$UCSORGLEFT
 10
0.0
 20
0.0
 30
0.0
  9
$UCSORGRIGHT
 10
0.0
 20
0.0
 30
0.0
  9
$UCSORGFRONT
 10
0.0
 20
0.0
 30
0.0
  9
$UCSORGBACK
 10
0.0
 20
0.0
 30
0.0
  9
$PUCSBASE
  2

  9
$PUCSNAME
  2

  9
$PUCSORG
 10
0.0
 20
0.0
 30
0.0
  9
$PUCSXDIR
 10
1.0
 20
0.0
 30
0.0
  9
$PUCSYDIR
 10
0.0
 20
1.0
 30
0.0
  9
$PUCSORTHOREF
  2

  9
$PUCSORTHOVIEW
 70
     0
  9
$PUCSORGTOP
 10
0.0
 20
0.0
 30
0.0
  9
$PUCSORGBOTTOM
 10
0.0
 20
0.0
 30
0.0
  9
$PUCSORGLEFT
 10
0.0
 20
0.0
 30
0.0
  9
$PUCSORGRIGHT
 10
0.0
 20
0.0
 30
0.0
  9
$PUCSORGFRONT
 10
0.0
 20
0.0
 30
0.0
  9
$PUCSORGBACK
 10
0.0
 20
0.0
 30
0.0
  9
$USERI1
 70
     0
  9
$USERI2
 70
     0
  9
$USERI3
 70
     0
  9
$USERI4
 70
     0
  9
$USERI5
 70
     0
  9
$USERR1
 40
0.0
  9
$USERR2
 40
0.0
  9
$USERR3
 40
0.0
  9
$USERR4
 40
0.0
  9
$USERR5
 40
0.0
  9
$WORLDVIEW
 70
     1
  9
$SHADEDGE
 70
     3
  9
$SHADEDIF
 70
    70
  9
$TILEMODE
 70
     1
  9
$MAXACTVP
 70
    64
  9
$PINSBASE
 10
0.0
 20
0.0
 30
0.0
  9
$PLIMCHECK
 70
     0
  9
$PEXTMIN
 10
1.000000000000000E+20
 20
1.000000000000000E+20
 30
1.000000000000000E+20
  9
$PEXTMAX
 10
-1.000000000000000E+20
 20
-1.000000000000000E+20
 30
-1.000000000000000E+20
  9
$PLIMMIN
 10
0.0
 20
0.0
  9
$PLIMMAX
 10
12.0
 20
9.0
  9
$UNITMODE
 70
     0
  9
$VISRETAIN
 70
     1
  9
$PLINEGEN
 70
     0
  9
$PSLTSCALE
 70
     1
  9
$TREEDEPTH
 70
  3020
  9
$CMLSTYLE
  2
Standard
  9
$CMLJUST
 70
     0
  9
$CMLSCALE
 40
1.0
  9
$PROXYGRAPHICS
 70
     1
  9
$MEASUREMENT
 70
     0
  9
$CELWEIGHT
370
    -1
  9
$ENDCAPS
280
     0
  9
$JOINSTYLE
280
     0
  9
$LWDISPLAY
290
     1
  9
$INSUNITS
 70
     1
  9
$HYPERLINKBASE
  1

  9
$STYLESHEET
  1

  9
$XEDIT
290
     1
  9
$CEPSNTYPE
380
     0
  9
$PSTYLEMODE
290
     1
  9
$FINGERPRINTGUID
  2
{B7F01242-6885-4426-B920-90968734F9DD}
  9
$VERSIONGUID
  2
{FAEB1C32-E019-11D5-929B-00C0DF256EC4}
  9
$EXTNAMES
290
     1
  9
$PSVPSCALE
 40
0.0
  9
$OLESTARTUP
290
     0
  9
$SORTENTS
280
   127
  9
$INDEXCTL
280
     0
  9
$HIDETEXT
280
     1
  9
$XCLIPFRAME
280
     2
  9
$HALOGAP
280
     0
  9
$OBSCOLOR
 70
   257
  9
$OBSLTYPE
280
     0
  9
$INTERSECTIONDISPLAY
280
     0
  9
$INTERSECTIONCOLOR
 70
   257
  9
$DIMASSOC
280
     2
  9
$PROJECTNAME
  1

  9
$CAMERADISPLAY
290
     0
  9
$LENSLENGTH
 40
50.0
  9
$CAMERAHEIGHT
 40
0.0
  9
$STEPSPERSEC
 40
2.0
  9
$STEPSIZE
 40
6.0
  9
$3DDWFPREC
 40
2.0
  9
$PSOLWIDTH
 40
0.25
  9
$PSOLHEIGHT
 40
4.0
  9
$LOFTANG1
 40
1.570796326794897
  9
$LOFTANG2
 40
1.570796326794897
  9
$LOFTMAG1
 40
0.0
  9
$LOFTMAG2
 40
0.0
  9
$LOFTPARAM
 70
     7
  9
$LOFTNORMALS
280
     1
  9
$LATITUDE
 40
37.795
  9
$LONGITUDE
 40
-122.394
  9
$NORTHDIRECTION
 40
0.0
  9
$TIMEZONE
 70
 -8000
  9
$LIGHTGLYPHDISPLAY
280
     1
  9
$TILEMODELIGHTSYNCH
280
     1
  9
$CMATERIAL
347
3C
  9
$SOLIDHIST
280
     1
  9
$SHOWHIST
280
     1
  9
$DWFFRAME
280
     2
  9
$DGNFRAME
280
     2
  9
$REALWORLDSCALE
290
     1
  9
$INTERFERECOLOR
 62
   256
  9
$CSHADOW
280
     0
  9
$SHADOWPLANELOCATION
 40
0.0
  0
ENDSEC
  0
SECTION
  2
CLASSES
  0
CLASS
  1
ACDBDICTIONARYWDFLT
  2
AcDbDictionaryWithDefault
  3
ObjectDBX Classes
 90
        0
 91
        4
280
     0
281
     0
  0
CLASS
  1
VISUALSTYLE
  2
AcDbVisualStyle
  3
ObjectDBX Classes
 90
     4095
 91
        4
280
     0
281
     0
  0
CLASS
  1
MATERIAL
  2
AcDbMaterial
  3
ObjectDBX Classes
 90
     1153
 91
        4
280
     0
281
     0
  0
CLASS
  1
SUN
  2
AcDbSun
  3
SCENEOE
 90
     1024
 91
        4
280
     0
281
     0
  0
ENDSEC
  0
SECTION
  2
TABLES
  0
TABLE
  2
VPORT
  5
8
330
0
100
AcDbSymbolTable
 70
     1
  0
VPORT
  5
29
330
8
100
AcDbSymbolTableRecord
100
AcDbViewportTableRecord
  2
*Active
 70
     0
 10
0.0
 20
0.0
 11
1.0
 21
1.0
 12
0.0
 22
0.0
 13
0.0
 23
0.0
 14
0.5
 24
0.5
 15
0.5
 25
0.5
 16
0.0
 26
0.0
 36
1.0
 17
12.20788100029128
 27
16.15875074598524
 37
0.0
 40
32.31750149197048
 41
0.7554965846183634
 42
50.0
 43
0.0
 44
0.0
 50
0.0
 51
0.0
 71
     0
 72
   100
 73
     1
 74
     3
 75
     0
 76
     0
 77
     0
 78
     0
281
     0
 65
     1
110
0.0
120
0.0
130
0.0
111
1.0
121
0.0
131
0.0
112
0.0
122
1.0
132
0.0
 79
     0
146
0.0
 60
     3
 61
     5
292
     1
282
     1
141
0.0
142
0.0
 63
   250
361
3F
  0
ENDTAB
  0
TABLE
  2
LTYPE
  5
5
330
0
100
AcDbSymbolTable
 70
     1
  0
LTYPE
  5
14
330
5
100
AcDbSymbolTableRecord
100
AcDbLinetypeTableRecord
  2
ByBlock
 70
     0
  3

 72
    65
 73
     0
 40
0.0
  0
LTYPE
  5
15
330
5
100
AcDbSymbolTableRecord
100
AcDbLinetypeTableRecord
  2
ByLayer
 70
     0
  3

 72
    65
 73
     0
 40
0.0
  0
LTYPE
  5
16
330
5
100
AcDbSymbolTableRecord
100
AcDbLinetypeTableRecord
  2
Continuous
 70
     0
  3
Solid line
 72
    65
 73
     0
 40
0.0
  0
ENDTAB
  0
TABLE
  2
LAYER
  5
2
330
0
100
AcDbSymbolTable
 70
     2
  0
LAYER
  5
10
330
2
100
AcDbSymbolTableRecord
100
AcDbLayerTableRecord
  2
0
 70
     0
 62
     7
  6
Continuous
370
    -3
390
F
347
3E
  0
LAYER
  5
40
330
2
100
AcDbSymbolTableRecord
100
AcDbLayerTableRecord
  2
Layer 1
 70
     0
 62
     7
  6
Continuous
370
    -3
390
F
347
3E
  0
ENDTAB
  0
TABLE
  2
STYLE
  5
3
330
0
100
AcDbSymbolTable
 70
     1
  0
STYLE
  5
11
330
3
100
AcDbSymbolTableRecord
100
AcDbTextStyleTableRecord
  2
Standard
 70
     0
 40
0.0
 41
1.0
 50
0.0
 71
     0
 42
0.2
  3
txt
  4

  0
ENDTAB
  0
TABLE
  2
VIEW
  5
6
330
0
100
AcDbSymbolTable
 70
     0
  0
ENDTAB
  0
TABLE
  2
UCS
  5
7
330
0
100
AcDbSymbolTable
 70
     0
  0
ENDTAB
  0
TABLE
  2
APPID
  5
9
330
0
100
AcDbSymbolTable
 70
     1
  0
APPID
  5
12
330
9
100
AcDbSymbolTableRecord
100
AcDbRegAppTableRecord
  2
ACAD
 70
     0
  0
ENDTAB
  0
TABLE
  2
DIMSTYLE
  5
A
330
0
100
AcDbSymbolTable
 70
     1
100
AcDbDimStyleTable
  0
DIMSTYLE
105
27
330
A
100
AcDbSymbolTableRecord
100
AcDbDimStyleTableRecord
  2
Standard
 70
     0
178
     0
340
11
  0
ENDTAB
  0
TABLE
  2
BLOCK_RECORD
  5
1
330
0
100
AcDbSymbolTable
 70
     3
  0
BLOCK_RECORD
  5
1F
330
1
100
AcDbSymbolTableRecord
100
AcDbBlockTableRecord
  2
*Model_Space
340
22
 70
     0
280
     1
281
     0
  0
BLOCK_RECORD
  5
1B
330
1
100
AcDbSymbolTableRecord
100
AcDbBlockTableRecord
  2
*Paper_Space
340
1E
 70
     0
280
     1
281
     0
  0
BLOCK_RECORD
  5
23
330
1
100
AcDbSymbolTableRecord
100
AcDbBlockTableRecord
  2
*Paper_Space0
340
26
 70
     0
280
     1
281
     0
  0
BLOCK_RECORD
  5
84
330
1
100
AcDbSymbolTableRecord
100
AcDbBlockTableRecord
  2
block 2
340
0
102
{BLKREFS
331
85
102
}
 70
     0
280
     1
281
     0
  0
BLOCK_RECORD
  5
DB
330
1
100
AcDbSymbolTableRecord
100
AcDbBlockTableRecord
  2
block 3
340
0
102
{BLKREFS
331
DC
102
}
 70
     0
280
     1
281
     0
  0
ENDTAB
  0
ENDSEC
  0
SECTION
  2
BLOCKS
  0
BLOCK
  5
20
330
1F
100
AcDbEntity
  8
0
100
AcDbBlockBegin
  2
*Model_Space
 70
     0
 10
0.0
 20
0.0
 30
0.0
  3
*Model_Space
  1

  0
ENDBLK
  5
21
330
1F
100
AcDbEntity
  8
0
100
AcDbBlockEnd
  0
BLOCK
  5
1C
330
1B
100
AcDbEntity
 67
     1
  8
0
100
AcDbBlockBegin
  2
*Paper_Space
 70
     0
 10
0.0
 20
0.0
 30
0.0
  3
*Paper_Space
  1

  0
ENDBLK
  5
1D
330
1B
100
AcDbEntity
 67
     1
  8
0
100
AcDbBlockEnd
  0
BLOCK
  5
24
330
23
100
AcDbEntity
  8
0
100
AcDbBlockBegin
  2
*Paper_Space0
 70
     0
 10
0.0
 20
0.0
 30
0.0
  3
*Paper_Space0
  1

  0
ENDBLK
  5
25
330
23
100
AcDbEntity
  8
0
100
AcDbBlockEnd
  0
BLOCK
  5
86
330
84
100
AcDbEntity
  8
0
100
AcDbBlockBegin
  2
block 2
 70
     0
 10
0.0
 20
0.0
 30
0.0
  3
block 2
  1

  0
POLYLINE
  5
88
330
84
100
AcDbEntity
  8
Layer 1
 62
     6
420
 15859967
370
    35
100
AcDb2dPolyline
 66
     1
 10
0.0
 20
0.0
 30
0.0
  0
VERTEX
  5
89
330
88
100
AcDbEntity
  8
Layer 1
 62
     6
420
 15859967
370
    35
100
AcDbVertex
100
AcDb2dVertex
 10
12.78414833060626
 20
1.170906704999349
 30
0.0
  0
VERTEX
  5
8A
330
88
100
AcDbEntity
  8
Layer 1
 62
     6
420
 15859967
370
    35
100
AcDbVertex
100
AcDb2dVertex
 10
12.78414833060626
 20
3.227781298098307
 30
0.0
  0
VERTEX
  5
8B
330
88
100
AcDbEntity
  8
Layer 1
 62
     6
420
 15859967
370
    35
100
AcDbVertex
100
AcDb2dVertex
 10
13.70495351995088
 20
3.227781298098307
 30
0.0
  0
VERTEX
  5
8C
330
88
100
AcDbEntity
  8
Layer 1
 62
     6
420
 15859967
370
    35
100
AcDbVertex
100
AcDb2dVertex
 10
15.30739763887449
 20
8.405851366457682
 30
0.0
  0
VERTEX
  5
8D
330
88
100
AcDbEntity
  8
Layer 1
 62
     6
420
 15859967
370
    35
100
AcDbVertex
100
AcDb2dVertex
 10
14.08762021374428
 20
8.405851366457682
 30
0.0
  0
VERTEX
  5
8E
330
88
100
AcDbEntity
  8
Layer 1
 62
     6
420
 15859967
370
    35
100
AcDbVertex
100
AcDb2dVertex
 10
14.08762021374428
 20
10.46273952292467
 30
0.0
  0
VERTEX
  5
8F
330
88
100
AcDbEntity
  8
Layer 1
 62
     6
420
 15859967
370
    35
100
AcDbVertex
100
AcDb2dVertex
 10
19.87557899466876
 20
10.46273952292467
 30
0.0
  0
VERTEX
  5
90
330
88
100
AcDbEntity
  8
Layer 1
 62
     6
420
 15859967
370
    35
100
AcDbVertex
100
AcDb2dVertex
 10
21.9444130875507
 20
3.227781298098307
 30
0.0
  0
VERTEX
  5
91
330
88
100
AcDbEntity
  8
Layer 1
 62
     6
420
 15859967
370
    35
100
AcDbVertex
100
AcDb2dVertex
 10
22.86523353568439
 20
3.227781298098307
 30
0.0
  0
VERTEX
  5
92
330
88
100
AcDbEntity
  8
Layer 1
 62
     6
420
 15859967
370
    35
100
AcDbVertex
100
AcDb2dVertex
 10
22.86523353568439
 20
1.170906704999349
 30
0.0
  0
VERTEX
  5
93
330
88
100
AcDbEntity
  8
Layer 1
 62
     6
420
 15859967
370
    35
100
AcDbVertex
100
AcDb2dVertex
 10
17.63932885903508
 20
1.170906704999349
 30
0.0
  0
VERTEX
  5
94
330
88
100
AcDbEntity
  8
Layer 1
 62
     6
420
 15859967
370
    35
100
AcDbVertex
100
AcDb2dVertex
 10
17.63932885903508
 20
3.227781298098307
 30
0.0
  0
VERTEX
  5
95
330
88
100
AcDbEntity
  8
Layer 1
 62
     6
420
 15859967
370
    35
100
AcDbVertex
100
AcDb2dVertex
 10
18.39271631020695
 20
3.227781298098307
 30
0.0
  0
VERTEX
  5
96
330
88
100
AcDbEntity
  8
Layer 1
 62
     6
420
 15859967
370
    35
100
AcDbVertex
100
AcDb2dVertex
 10
18.14159055065834
 20
4.220336704456814
 30
0.0
  0
VERTEX
  5
97
330
88
100
AcDbEntity
  8
Layer 1
 62
     6
420
 15859967
370
    35
100
AcDbVertex
100
AcDb2dVertex
 10
16.03688474011147
 20
4.220336704456814
 30
0.0
  0
VERTEX
  5
98
330
88
100
AcDbEntity
  8
Layer 1
 62
     6
420
 15859967
370
    35
100
AcDbVertex
100
AcDb2dVertex
 10
15.77380117620088
 20
3.227781298098307
 30
0.0
  0
VERTEX
  5
99
330
88
100
AcDbEntity
  8
Layer 1
 62
     6
420
 15859967
370
    35
100
AcDbVertex
100
AcDb2dVertex
 10
16.88595327581025
 20
3.227781298098307
 30
0.0
  0
VERTEX
  5
9A
330
88
100
AcDbEntity
  8
Layer 1
 62
     6
420
 15859967
370
    35
100
AcDbVertex
100
AcDb2dVertex
 10
16.88595327581025
 20
1.170906704999349
 30
0.0
  0
VERTEX
  5
9B
330
88
100
AcDbEntity
  8
Layer 1
 62
     6
420
 15859967
370
    35
100
AcDbVertex
100
AcDb2dVertex
 10
12.78414833060626
 20
1.170906704999349
 30
0.0
  0
SEQEND
  5
9C
330
88
100
AcDbEntity
  8
Layer 1
 62
     6
420
 15859967
370
    35
  0
POLYLINE
  5
9D
330
84
100
AcDbEntity
  8
Layer 1
 62
     6
420
 15859967
370
    35
100
AcDb2dPolyline
 66
     1
 10
0.0
 20
0.0
 30
0.0
  0
VERTEX
  5
9E
330
9D
100
AcDbEntity
  8
Layer 1
 62
     6
420
 15859967
370
    35
100
AcDbVertex
100
AcDb2dVertex
 10
16.335843412529
 20
5.631476298640842
 30
0.0
  0
VERTEX
  5
9F
330
9D
100
AcDbEntity
  8
Layer 1
 62
     6
420
 15859967
370
    35
100
AcDbVertex
100
AcDb2dVertex
 10
17.86653900985973
 20
5.631476298640842
 30
0.0
  0
VERTEX
  5
A0
330
9D
100
AcDbEntity
  8
Layer 1
 62
     6
420
 15859967
370
    35
100
AcDbVertex
100
AcDb2dVertex
 10
17.18490008028074
 20
8.477615146839627
 30
0.0
  0
VERTEX
  5
A1
330
9D
100
AcDbEntity
  8
Layer 1
 62
     6
420
 15859967
370
    35
100
AcDbVertex
100
AcDb2dVertex
 10
16.335843412529
 20
5.631476298640842
 30
0.0
  0
SEQEND
  5
A2
330
9D
100
AcDbEntity
  8
Layer 1
 62
     6
420
 15859967
370
    35
  0
ENDBLK
  5
87
330
84
100
AcDbEntity
  8
0
100
AcDbBlockEnd
  0
BLOCK
  5
DD
330
DB
100
AcDbEntity
  8
0
100
AcDbBlockBegin
  2
block 3
 70
     0
 10
0.0
 20
0.0
 30
0.0
  3
block 3
  1

  0
POLYLINE
  5
DF
330
DB
100
AcDbEntity
  8
Layer 1
 62
     7
420
 16777215
370
    35
100
AcDb2dPolyline
 66
     1
 10
0.0
 20
0.0
 30
0.0
  0
VERTEX
  5
E0
330
DF
100
AcDbEntity
  8
Layer 1
 62
     7
420
 16777215
370
    35
100
AcDbVertex
100
AcDb2dVertex
 10
10.79099367210145
 20
3.22778935134804
 30
0.0
  0
VERTEX
  5
E1
330
DF
100
AcDbEntity
  8
Layer 1
 62
     7
420
 16777215
370
    35
100
AcDbVertex
100
AcDb2dVertex
 10
8.722160426930007
 20
10.46273316509587
 30
0.0
  0
VERTEX
  5
E2
330
DF
100
AcDbEntity
  8
Layer 1
 62
     7
420
 16777215
370
    35
100
AcDbVertex
100
AcDb2dVertex
 10
2.934202281788417
 20
10.46273316509587
 30
0.0
  0
VERTEX
  5
E3
330
DF
100
AcDbEntity
  8
Layer 1
 62
     7
420
 16777215
370
    35
100
AcDbVertex
100
AcDb2dVertex
 10
2.934202281788417
 20
8.405857724286408
 30
0.0
  0
VERTEX
  5
E4
330
DF
100
AcDbEntity
  8
Layer 1
 62
     7
420
 16777215
370
    35
100
AcDbVertex
100
AcDb2dVertex
 10
4.153979918846239
 20
8.405857724286408
 30
0.0
  0
VERTEX
  5
E5
330
DF
100
AcDbEntity
  8
Layer 1
 62
     7
420
 16777215
370
    35
100
AcDbVertex
100
AcDb2dVertex
 10
2.551535376067389
 20
3.227787655927032
 30
0.0
  0
VERTEX
  5
E6
330
DF
100
AcDbEntity
  8
Layer 1
 62
     7
420
 16777215
370
    35
100
AcDbVertex
100
AcDb2dVertex
 10
1.630729868831332
 20
3.227787655927032
 30
0.0
  0
VERTEX
  5
E7
330
DF
100
AcDbEntity
  8
Layer 1
 62
     7
420
 16777215
370
    35
100
AcDbVertex
100
AcDb2dVertex
 10
1.630729868831332
 20
1.170913062828074
 30
0.0
  0
VERTEX
  5
E8
330
DF
100
AcDbEntity
  8
Layer 1
 62
     7
420
 16777215
370
    35
100
AcDbVertex
100
AcDb2dVertex
 10
5.732535131926751
 20
1.170913062828074
 30
0.0
  0
VERTEX
  5
E9
330
DF
100
AcDbEntity
  8
Layer 1
 62
     7
420
 16777215
370
    35
100
AcDbVertex
100
AcDb2dVertex
 10
5.732535131926751
 20
3.227787655927032
 30
0.0
  0
VERTEX
  5
EA
330
DF
100
AcDbEntity
  8
Layer 1
 62
     7
420
 16777215
370
    35
100
AcDbVertex
100
AcDb2dVertex
 10
4.620382608462124
 20
3.227787655927032
 30
0.0
  0
VERTEX
  5
EB
330
DF
100
AcDbEntity
  8
Layer 1
 62
     7
420
 16777215
370
    35
100
AcDbVertex
100
AcDb2dVertex
 10
4.883465748517462
 20
4.220343062285539
 30
0.0
  0
VERTEX
  5
EC
330
DF
100
AcDbEntity
  8
Layer 1
 62
     7
420
 16777215
370
    35
100
AcDbVertex
100
AcDb2dVertex
 10
6.988174102195848
 20
4.220343062285539
 30
0.0
  0
VERTEX
  5
ED
330
DF
100
AcDbEntity
  8
Layer 1
 62
     7
420
 16777215
370
    35
100
AcDbVertex
100
AcDb2dVertex
 10
7.239299437889207
 20
3.227787655927032
 30
0.0
  0
VERTEX
  5
EE
330
DF
100
AcDbEntity
  8
Layer 1
 62
     7
420
 16777215
370
    35
100
AcDbVertex
100
AcDb2dVertex
 10
6.485910715151577
 20
3.227787655927032
 30
0.0
  0
VERTEX
  5
EF
330
DF
100
AcDbEntity
  8
Layer 1
 62
     7
420
 16777215
370
    35
100
AcDbVertex
100
AcDb2dVertex
 10
6.485910715151577
 20
1.170913062828074
 30
0.0
  0
VERTEX
  5
F0
330
DF
100
AcDbEntity
  8
Layer 1
 62
     7
420
 16777215
370
    35
100
AcDbVertex
100
AcDb2dVertex
 10
11.71181412023513
 20
1.170913062828074
 30
0.0
  0
VERTEX
  5
F1
330
DF
100
AcDbEntity
  8
Layer 1
 62
     7
420
 16777215
370
    35
100
AcDbVertex
100
AcDb2dVertex
 10
11.71181412023513
 20
3.227787655927032
 30
0.0
  0
VERTEX
  5
F2
330
DF
100
AcDbEntity
  8
Layer 1
 62
     7
420
 16777215
370
    35
100
AcDbVertex
100
AcDb2dVertex
 10
10.79099367210145
 20
3.227787655927032
 30
0.0
  0
VERTEX
  5
F3
330
DF
100
AcDbEntity
  8
Layer 1
 62
     7
420
 16777215
370
    35
100
AcDbVertex
100
AcDb2dVertex
 10
10.79099367210145
 20
3.22778935134804
 30
0.0
  0
SEQEND
  5
F4
330
DF
100
AcDbEntity
  8
Layer 1
 62
     7
420
 16777215
370
    35
  0
POLYLINE
  5
F5
330
DB
100
AcDbEntity
  8
Layer 1
 62
     7
420
 16777215
370
    35
100
AcDb2dPolyline
 66
     1
 10
0.0
 20
0.0
 30
0.0
  0
VERTEX
  5
F6
330
F5
100
AcDbEntity
  8
Layer 1
 62
     7
420
 16777215
370
    35
100
AcDbVertex
100
AcDb2dVertex
 10
11.36181310298252
 20
1.520914080080678
 30
0.0
  0
VERTEX
  5
F7
330
F5
100
AcDbEntity
  8
Layer 1
 62
     7
420
 16777215
370
    35
100
AcDbVertex
100
AcDb2dVertex
 10
6.835924448061733
 20
1.520914080080678
 30
0.0
  0
VERTEX
  5
F8
330
F5
100
AcDbEntity
  8
Layer 1
 62
     7
420
 16777215
370
    35
100
AcDbVertex
100
AcDb2dVertex
 10
6.835924448061733
 20
2.877788334095435
 30
0.0
  0
VERTEX
  5
F9
330
F5
100
AcDbEntity
  8
Layer 1
 62
     7
420
 16777215
370
    35
100
AcDbVertex
100
AcDb2dVertex
 10
7.6888827034057
 20
2.877788334095435
 30
0.0
  0
VERTEX
  5
FA
330
F5
100
AcDbEntity
  8
Layer 1
 62
     7
420
 16777215
370
    35
100
AcDbVertex
100
AcDb2dVertex
 10
7.260646483787645
 20
4.570344079538144
 30
0.0
  0
VERTEX
  5
FB
330
F5
100
AcDbEntity
  8
Layer 1
 62
     7
420
 16777215
370
    35
100
AcDbVertex
100
AcDb2dVertex
 10
4.614146849998582
 20
4.570344079538144
 30
0.0
  0
VERTEX
  5
FC
330
F5
100
AcDbEntity
  8
Layer 1
 62
     7
420
 16777215
370
    35
100
AcDbVertex
100
AcDb2dVertex
 10
4.165507933982957
 20
2.877788334095435
 30
0.0
  0
VERTEX
  5
FD
330
F5
100
AcDbEntity
  8
Layer 1
 62
     7
420
 16777215
370
    35
100
AcDbVertex
100
AcDb2dVertex
 10
5.382521822871846
 20
2.877788334095435
 30
0.0
  0
VERTEX
  5
FE
330
F5
100
AcDbEntity
  8
Layer 1
 62
     7
420
 16777215
370
    35
100
AcDbVertex
100
AcDb2dVertex
 10
5.382521822871846
 20
1.520914080080678
 30
0.0
  0
VERTEX
  5
FF
330
F5
100
AcDbEntity
  8
Layer 1
 62
     7
420
 16777215
370
    35
100
AcDbVertex
100
AcDb2dVertex
 10
1.980729932409619
 20
1.520914080080678
 30
0.0
  0
VERTEX
  5
100
330
F5
100
AcDbEntity
  8
Layer 1
 62
     7
420
 16777215
370
    35
100
AcDbVertex
100
AcDb2dVertex
 10
1.980729932409619
 20
2.877788334095435
 30
0.0
  0
VERTEX
  5
101
330
F5
100
AcDbEntity
  8
Layer 1
 62
     7
420
 16777215
370
    35
100
AcDbVertex
100
AcDb2dVertex
 10
2.809604944277567
 20
2.877788334095435
 30
0.0
  0
VERTEX
  5
102
330
F5
100
AcDbEntity
  8
Layer 1
 62
     7
420
 16777215
370
    35
100
AcDbVertex
100
AcDb2dVertex
 10
4.628688475975145
 20
8.755857893828509
 30
0.0
  0
VERTEX
  5
103
330
F5
100
AcDbEntity
  8
Layer 1
 62
     7
420
 16777215
370
    35
100
AcDbVertex
100
AcDb2dVertex
 10
3.284216226626187
 20
8.755857893828509
 30
0.0
  0
VERTEX
  5
104
330
F5
100
AcDbEntity
  8
Layer 1
 62
     7
420
 16777215
370
    35
100
AcDbVertex
100
AcDb2dVertex
 10
3.284216226626187
 20
10.11273299555377
 30
0.0
  0
VERTEX
  5
105
330
F5
100
AcDbEntity
  8
Layer 1
 62
     7
420
 16777215
370
    35
100
AcDbVertex
100
AcDb2dVertex
 10
8.458216436858391
 20
10.11273299555377
 30
0.0
  0
VERTEX
  5
106
330
F5
100
AcDbEntity
  8
Layer 1
 62
     7
420
 16777215
370
    35
100
AcDbVertex
100
AcDb2dVertex
 10
10.52704968202983
 20
2.877788334095435
 30
0.0
  0
VERTEX
  5
107
330
F5
100
AcDbEntity
  8
Layer 1
 62
     7
420
 16777215
370
    35
100
AcDbVertex
100
AcDb2dVertex
 10
11.36181395069303
 20
2.877788334095435
 30
0.0
  0
VERTEX
  5
108
330
F5
100
AcDbEntity
  8
Layer 1
 62
     7
420
 16777215
370
    35
100
AcDbVertex
100
AcDb2dVertex
 10
11.36181395069303
 20
1.520914080080678
 30
0.0
  0
VERTEX
  5
109
330
F5
100
AcDbEntity
  8
Layer 1
 62
     7
420
 16777215
370
    35
100
AcDbVertex
100
AcDb2dVertex
 10
11.36181310298252
 20
1.520914080080678
 30
0.0
  0
SEQEND
  5
10A
330
F5
100
AcDbEntity
  8
Layer 1
 62
     7
420
 16777215
370
    35
  0
POLYLINE
  5
10B
330
DB
100
AcDbEntity
  8
Layer 1
 62
     7
420
 16777215
370
    35
100
AcDb2dPolyline
 66
     1
 10
0.0
 20
0.0
 30
0.0
  0
VERTEX
  5
10C
330
10B
100
AcDbEntity
  8
Layer 1
 62
     7
420
 16777215
370
    35
100
AcDbVertex
100
AcDb2dVertex
 10
6.322728885933934
 20
9.10819839497799
 30
0.0
  0
VERTEX
  5
10D
330
10B
100
AcDbEntity
  8
Layer 1
 62
     7
420
 16777215
370
    35
100
AcDbVertex
100
AcDb2dVertex
 10
5.184159477941042
 20
5.291600562404205
 30
0.0
  0
VERTEX
  5
10E
330
10B
100
AcDbEntity
  8
Layer 1
 62
     7
420
 16777215
370
    35
100
AcDbVertex
100
AcDb2dVertex
 10
7.236784392322281
 20
5.291600562404205
 30
0.0
  0
VERTEX
  5
10F
330
10B
100
AcDbEntity
  8
Layer 1
 62
     7
420
 16777215
370
    35
100
AcDbVertex
100
AcDb2dVertex
 10
6.322728885933934
 20
9.10819839497799
 30
0.0
  0
SEQEND
  5
110
330
10B
100
AcDbEntity
  8
Layer 1
 62
     7
420
 16777215
370
    35
  0
POLYLINE
  5
111
330
DB
100
AcDbEntity
  8
Layer 1
 62
     7
420
 16777215
370
    35
100
AcDb2dPolyline
 66
     1
 10
0.0
 20
0.0
 30
0.0
  0
VERTEX
  5
112
330
111
100
AcDbEntity
  8
Layer 1
 62
     7
420
 16777215
370
    35
100
AcDbVertex
100
AcDb2dVertex
 10
6.3015899529641
 20
8.337739749687191
 30
0.0
  0
VERTEX
  5
113
330
111
100
AcDbEntity
  8
Layer 1
 62
     7
420
 16777215
370
    35
100
AcDbVertex
100
AcDb2dVertex
 10
6.983228882543092
 20
5.491600901488406
 30
0.0
  0
VERTEX
  5
114
330
111
100
AcDbEntity
  8
Layer 1
 62
     7
420
 16777215
370
    35
100
AcDbVertex
100
AcDb2dVertex
 10
5.452534450814306
 20
5.491600901488406
 30
0.0
  0
VERTEX
  5
115
330
111
100
AcDbEntity
  8
Layer 1
 62
     7
420
 16777215
370
    35
100
AcDbVertex
100
AcDb2dVertex
 10
6.3015899529641
 20
8.337739749687191
 30
0.0
  0
SEQEND
  5
116
330
111
100
AcDbEntity
  8
Layer 1
 62
     7
420
 16777215
370
    35
  0
ENDBLK
  5
DE
330
DB
100
AcDbEntity
  8
0
100
AcDbBlockEnd
  0
ENDSEC
  0
SECTION
  2
ENTITIES
  0
POLYLINE
  5
41
330
1F
100
AcDbEntity
  8
Layer 1
 62
     7
420
 16777215
370
    35
100
AcDb2dPolyline
 66
     1
 10
0.0
 20
0.0
 30
0.0
  0
VERTEX
  5
42
330
41
100
AcDbEntity
  8
Layer 1
 62
     7
420
 16777215
370
    35
100
AcDbVertex
100
AcDb2dVertex
 10
17.19065266365149
 20
18.99581211301812
 30
0.0
  0
VERTEX
  5
43
330
41
100
AcDbEntity
  8
Layer 1
 62
     7
420
 16777215
370
    35
100
AcDbVertex
100
AcDb2dVertex
 10
16.05208336162241
 20
15.17921454535387
 30
0.0
  0
VERTEX
  5
44
330
41
100
AcDbEntity
  8
Layer 1
 62
     7
420
 16777215
370
    35
100
AcDbVertex
100
AcDb2dVertex
 10
18.10470838196746
 20
15.17921454535387
 30
0.0
  0
VERTEX
  5
45
330
41
100
AcDbEntity
  8
Layer 1
 62
     7
420
 16777215
370
    35
100
AcDbVertex
100
AcDb2dVertex
 10
17.19065266365149
 20
18.99581211301812
 30
0.0
  0
SEQEND
  5
46
330
41
100
AcDbEntity
  8
Layer 1
 62
     7
420
 16777215
370
    35
  0
POLYLINE
  5
47
330
1F
100
AcDbEntity
  8
Layer 1
 62
     7
420
 16777215
370
    35
100
AcDb2dPolyline
 66
     1
 10
0.0
 20
0.0
 30
0.0
  0
VERTEX
  5
48
330
47
100
AcDbEntity
  8
Layer 1
 62
     7
420
 16777215
370
    35
100
AcDbVertex
100
AcDb2dVertex
 10
17.16951415453691
 20
18.22533995734117
 30
0.0
  0
VERTEX
  5
49
330
47
100
AcDbEntity
  8
Layer 1
 62
     7
420
 16777215
370
    35
100
AcDbVertex
100
AcDb2dVertex
 10
17.8511530841159
 20
15.37920089721476
 30
0.0
  0
VERTEX
  5
4A
330
47
100
AcDbEntity
  8
Layer 1
 62
     7
420
 16777215
370
    35
100
AcDbVertex
100
AcDb2dVertex
 10
16.32045833449567
 20
15.37920089721476
 30
0.0
  0
VERTEX
  5
4B
330
47
100
AcDbEntity
  8
Layer 1
 62
     7
420
 16777215
370
    35
100
AcDbVertex
100
AcDb2dVertex
 10
17.16951415453691
 20
18.22533995734117
 30
0.0
  0
SEQEND
  5
4C
330
47
100
AcDbEntity
  8
Layer 1
 62
     7
420
 16777215
370
    35
  0
POLYLINE
  5
4D
330
1F
100
AcDbEntity
  8
Layer 1
 62
     7
420
 16777215
370
    35
100
AcDb2dPolyline
 66
     1
 10
0.0
 20
0.0
 30
0.0
  0
VERTEX
  5
4E
330
4D
100
AcDbEntity
  8
Layer 1
 62
     7
420
 16777215
370
    35
100
AcDbVertex
100
AcDb2dVertex
 10
6.330448538220265
 20
18.84594515442485
 30
0.0
  0
VERTEX
  5
4F
330
4D
100
AcDbEntity
  8
Layer 1
 62
     7
420
 16777215
370
    35
100
AcDbVertex
100
AcDb2dVertex
 10
5.191879130227372
 20
15.02934732185107
 30
0.0
  0
VERTEX
  5
50
330
4D
100
AcDbEntity
  8
Layer 1
 62
     7
420
 16777215
370
    35
100
AcDbVertex
100
AcDb2dVertex
 10
7.244504044608611
 20
15.02934732185107
 30
0.0
  0
VERTEX
  5
51
330
4D
100
AcDbEntity
  8
Layer 1
 62
     7
420
 16777215
370
    35
100
AcDbVertex
100
AcDb2dVertex
 10
6.330448538220265
 20
18.84594515442485
 30
0.0
  0
SEQEND
  5
52
330
4D
100
AcDbEntity
  8
Layer 1
 62
     7
420
 16777215
370
    35
  0
POLYLINE
  5
53
330
1F
100
AcDbEntity
  8
Layer 1
 62
     7
420
 16777215
370
    35
100
AcDb2dPolyline
 66
     1
 10
0.0
 20
0.0
 30
0.0
  0
VERTEX
  5
54
330
53
100
AcDbEntity
  8
Layer 1
 62
     7
420
 16777215
370
    35
100
AcDbVertex
100
AcDb2dVertex
 10
6.30930960525043
 20
18.07548650913405
 30
0.0
  0
VERTEX
  5
55
330
53
100
AcDbEntity
  8
Layer 1
 62
     7
420
 16777215
370
    35
100
AcDbVertex
100
AcDb2dVertex
 10
6.990948534829423
 20
15.22934766093527
 30
0.0
  0
VERTEX
  5
56
330
53
100
AcDbEntity
  8
Layer 1
 62
     7
420
 16777215
370
    35
100
AcDbVertex
100
AcDb2dVertex
 10
5.460254103100636
 20
15.22934766093527
 30
0.0
  0
VERTEX
  5
57
330
53
100
AcDbEntity
  8
Layer 1
 62
     7
420
 16777215
370
    35
100
AcDbVertex
100
AcDb2dVertex
 10
6.30930960525043
 20
18.07548650913405
 30
0.0
  0
SEQEND
  5
58
330
53
100
AcDbEntity
  8
Layer 1
 62
     7
420
 16777215
370
    35
  0
POLYLINE
  5
59
330
1F
100
AcDbEntity
  8
Layer 1
 62
     7
420
 16777215
370
    35
100
AcDb2dPolyline
 66
     1
 10
0.0
 20
0.0
 30
0.0
  0
VERTEX
  5
5A
330
59
100
AcDbEntity
  8
Layer 1
 62
     7
420
 16777215
370
    35
100
AcDbVertex
100
AcDb2dVertex
 10
21.5219507020395
 20
13.03184389524583
 30
0.0
  0
VERTEX
  5
5B
330
59
100
AcDbEntity
  8
Layer 1
 62
     7
420
 16777215
370
    35
100
AcDbVertex
100
AcDb2dVertex
 10
19.45311745686806
 20
20.26680263664581
 30
0.0
  0
VERTEX
  5
5C
330
59
100
AcDbEntity
  8
Layer 1
 62
     7
420
 16777215
370
    35
100
AcDbVertex
100
AcDb2dVertex
 10
18.21290936089366
 20
20.26680263664581
 30
0.0
  0
VERTEX
  5
5D
330
59
100
AcDbEntity
  8
Layer 1
 62
     7
420
 16777215
370
    35
100
AcDbVertex
100
AcDb2dVertex
 10
18.21290936089366
 20
19.9168026392949
 30
0.0
  0
VERTEX
  5
5E
330
59
100
AcDbEntity
  8
Layer 1
 62
     7
420
 16777215
370
    35
100
AcDbVertex
100
AcDb2dVertex
 10
19.18917346679644
 20
19.9168026392949
 30
0.0
  0
VERTEX
  5
5F
330
59
100
AcDbEntity
  8
Layer 1
 62
     7
420
 16777215
370
    35
100
AcDbVertex
100
AcDb2dVertex
 10
21.25800671196788
 20
12.68185813678229
 30
0.0
  0
VERTEX
  5
60
330
59
100
AcDbEntity
  8
Layer 1
 62
     7
420
 16777215
370
    35
100
AcDbVertex
100
AcDb2dVertex
 10
22.09275656955252
 20
12.68185813678229
 30
0.0
  0
VERTEX
  5
61
330
59
100
AcDbEntity
  8
Layer 1
 62
     7
420
 16777215
370
    35
100
AcDbVertex
100
AcDb2dVertex
 10
22.09275656955252
 20
11.32496947168897
 30
0.0
  0
VERTEX
  5
62
330
59
100
AcDbEntity
  8
Layer 1
 62
     7
420
 16777215
370
    35
100
AcDbVertex
100
AcDb2dVertex
 10
17.56686749077648
 20
11.32496947168897
 30
0.0
  0
VERTEX
  5
63
330
59
100
AcDbEntity
  8
Layer 1
 62
     7
420
 16777215
370
    35
100
AcDbVertex
100
AcDb2dVertex
 10
17.56686749077648
 20
12.68185813678229
 30
0.0
  0
VERTEX
  5
64
330
59
100
AcDbEntity
  8
Layer 1
 62
     7
420
 16777215
370
    35
100
AcDbVertex
100
AcDb2dVertex
 10
18.4198261699757
 20
12.68185813678229
 30
0.0
  0
VERTEX
  5
65
330
59
100
AcDbEntity
  8
Layer 1
 62
     7
420
 16777215
370
    35
100
AcDbVertex
100
AcDb2dVertex
 10
17.99158995035764
 20
14.374413882225
 30
0.0
  0
VERTEX
  5
66
330
59
100
AcDbEntity
  8
Layer 1
 62
     7
420
 16777215
370
    35
100
AcDbVertex
100
AcDb2dVertex
 10
15.34510387993664
 20
14.374413882225
 30
0.0
  0
VERTEX
  5
67
330
59
100
AcDbEntity
  8
Layer 1
 62
     7
420
 16777215
370
    35
100
AcDbVertex
100
AcDb2dVertex
 10
14.89646496392101
 20
12.68185813678229
 30
0.0
  0
VERTEX
  5
68
330
59
100
AcDbEntity
  8
Layer 1
 62
     7
420
 16777215
370
    35
100
AcDbVertex
100
AcDb2dVertex
 10
16.1134788528099
 20
12.68185813678229
 30
0.0
  0
VERTEX
  5
69
330
59
100
AcDbEntity
  8
Layer 1
 62
     7
420
 16777215
370
    35
100
AcDbVertex
100
AcDb2dVertex
 10
16.1134788528099
 20
11.32496947168897
 30
0.0
  0
VERTEX
  5
6A
330
59
100
AcDbEntity
  8
Layer 1
 62
     7
420
 16777215
370
    35
100
AcDbVertex
100
AcDb2dVertex
 10
12.71167318705198
 20
11.32496947168897
 30
0.0
  0
VERTEX
  5
6B
330
59
100
AcDbEntity
  8
Layer 1
 62
     7
420
 16777215
370
    35
100
AcDbVertex
100
AcDb2dVertex
 10
12.71167318705198
 20
12.68185813678229
 30
0.0
  0
VERTEX
  5
6C
330
59
100
AcDbEntity
  8
Layer 1
 62
     7
420
 16777215
370
    35
100
AcDbVertex
100
AcDb2dVertex
 10
13.54054819891993
 20
12.68185813678229
 30
0.0
  0
VERTEX
  5
6D
330
59
100
AcDbEntity
  8
Layer 1
 62
     7
420
 16777215
370
    35
100
AcDbVertex
100
AcDb2dVertex
 10
15.35963151868989
 20
18.55991370929205
 30
0.0
  0
VERTEX
  5
6E
330
59
100
AcDbEntity
  8
Layer 1
 62
     7
420
 16777215
370
    35
100
AcDbVertex
100
AcDb2dVertex
 10
14.01515926934093
 20
18.55991370929205
 30
0.0
  0
VERTEX
  5
6F
330
59
100
AcDbEntity
  8
Layer 1
 62
     7
420
 16777215
370
    35
100
AcDbVertex
100
AcDb2dVertex
 10
14.01515926934093
 20
19.9168026392949
 30
0.0
  0
VERTEX
  5
70
330
59
100
AcDbEntity
  8
Layer 1
 62
     7
420
 16777215
370
    35
100
AcDbVertex
100
AcDb2dVertex
 10
15.93023259099477
 20
19.9168026392949
 30
0.0
  0
VERTEX
  5
71
330
59
100
AcDbEntity
  8
Layer 1
 62
     7
420
 16777215
370
    35
100
AcDbVertex
100
AcDb2dVertex
 10
15.93023259099477
 20
20.26680263664581
 30
0.0
  0
VERTEX
  5
72
330
59
100
AcDbEntity
  8
Layer 1
 62
     7
420
 16777215
370
    35
100
AcDbVertex
100
AcDb2dVertex
 10
13.66515931172646
 20
20.26680263664581
 30
0.0
  0
VERTEX
  5
73
330
59
100
AcDbEntity
  8
Layer 1
 62
     7
420
 16777215
370
    35
100
AcDbVertex
100
AcDb2dVertex
 10
13.66515931172646
 20
18.20992773890089
 30
0.0
  0
VERTEX
  5
74
330
59
100
AcDbEntity
  8
Layer 1
 62
     7
420
 16777215
370
    35
100
AcDbVertex
100
AcDb2dVertex
 10
14.88493694878429
 20
18.20992773890089
 30
0.0
  0
VERTEX
  5
75
330
59
100
AcDbEntity
  8
Layer 1
 62
     7
420
 16777215
370
    35
100
AcDbVertex
100
AcDb2dVertex
 10
13.28247884263737
 20
13.03184389524583
 30
0.0
  0
VERTEX
  5
76
330
59
100
AcDbEntity
  8
Layer 1
 62
     7
420
 16777215
370
    35
100
AcDbVertex
100
AcDb2dVertex
 10
12.3616732294375
 20
13.03184389524583
 30
0.0
  0
VERTEX
  5
77
330
59
100
AcDbEntity
  8
Layer 1
 62
     7
420
 16777215
370
    35
100
AcDbVertex
100
AcDb2dVertex
 10
12.3616732294375
 20
10.97496930214687
 30
0.0
  0
VERTEX
  5
78
330
59
100
AcDbEntity
  8
Layer 1
 62
     7
420
 16777215
370
    35
100
AcDbVertex
100
AcDb2dVertex
 10
16.46347859849675
 20
10.97496930214687
 30
0.0
  0
VERTEX
  5
79
330
59
100
AcDbEntity
  8
Layer 1
 62
     7
420
 16777215
370
    35
100
AcDbVertex
100
AcDb2dVertex
 10
16.46347859849675
 20
13.03184389524583
 30
0.0
  0
VERTEX
  5
7A
330
59
100
AcDbEntity
  8
Layer 1
 62
     7
420
 16777215
370
    35
100
AcDbVertex
100
AcDb2dVertex
 10
15.35132607503212
 20
13.03184389524583
 30
0.0
  0
VERTEX
  5
7B
330
59
100
AcDbEntity
  8
Layer 1
 62
     7
420
 16777215
370
    35
100
AcDbVertex
100
AcDb2dVertex
 10
15.61440921508746
 20
14.0244137126829
 30
0.0
  0
VERTEX
  5
7C
330
59
100
AcDbEntity
  8
Layer 1
 62
     7
420
 16777215
370
    35
100
AcDbVertex
100
AcDb2dVertex
 10
17.71911756876585
 20
14.0244137126829
 30
0.0
  0
VERTEX
  5
7D
330
59
100
AcDbEntity
  8
Layer 1
 62
     7
420
 16777215
370
    35
100
AcDbVertex
100
AcDb2dVertex
 10
17.97024290445921
 20
13.03184389524583
 30
0.0
  0
VERTEX
  5
7E
330
59
100
AcDbEntity
  8
Layer 1
 62
     7
420
 16777215
370
    35
100
AcDbVertex
100
AcDb2dVertex
 10
17.21686774508963
 20
13.03184389524583
 30
0.0
  0
VERTEX
  5
7F
330
59
100
AcDbEntity
  8
Layer 1
 62
     7
420
 16777215
370
    35
100
AcDbVertex
100
AcDb2dVertex
 10
17.21686774508963
 20
10.97496930214687
 30
0.0
  0
VERTEX
  5
80
330
59
100
AcDbEntity
  8
Layer 1
 62
     7
420
 16777215
370
    35
100
AcDbVertex
100
AcDb2dVertex
 10
22.44277030246268
 20
10.97496930214687
 30
0.0
  0
VERTEX
  5
81
330
59
100
AcDbEntity
  8
Layer 1
 62
     7
420
 16777215
370
    35
100
AcDbVertex
100
AcDb2dVertex
 10
22.44277030246268
 20
13.03184389524583
 30
0.0
  0
VERTEX
  5
82
330
59
100
AcDbEntity
  8
Layer 1
 62
     7
420
 16777215
370
    35
100
AcDbVertex
100
AcDb2dVertex
 10
21.5219507020395
 20
13.03184389524583
 30
0.0
  0
SEQEND
  5
83
330
59
100
AcDbEntity
  8
Layer 1
 62
     7
420
 16777215
370
    35
  0
INSERT
  5
85
330
1F
100
AcDbEntity
  8
Layer 1
100
AcDbBlockReference
  2
block 2
 10
0.0
 20
0.0
 30
0.0
  0
POLYLINE
  5
A3
330
1F
100
AcDbEntity
  8
Layer 1
 62
     7
420
 16777215
370
    25
100
AcDb2dPolyline
 66
     1
 10
0.0
 20
0.0
 30
0.0
  0
VERTEX
  5
A4
330
A3
100
AcDbEntity
  8
Layer 1
 62
     7
420
 16777215
370
    25
100
AcDbVertex
100
AcDb2dVertex
 10
11.05936790322802
 20
23.30902820982437
 30
0.0
  0
VERTEX
  5
A5
330
A3
100
AcDbEntity
  8
Layer 1
 62
     7
420
 16777215
370
    25
100
AcDbVertex
100
AcDb2dVertex
 10
8.990535505767095
 20
30.54398728236126
 30
0.0
  0
VERTEX
  5
A6
330
A3
100
AcDbEntity
  8
Layer 1
 62
     7
420
 16777215
370
    25
100
AcDbVertex
100
AcDb2dVertex
 10
3.202576724842616
 20
30.54398728236126
 30
0.0
  0
VERTEX
  5
A7
330
A3
100
AcDbEntity
  8
Layer 1
 62
     7
420
 16777215
370
    25
100
AcDbVertex
100
AcDb2dVertex
 10
3.202576724842616
 20
28.48709827818374
 30
0.0
  0
VERTEX
  5
A8
330
A3
100
AcDbEntity
  8
Layer 1
 62
     7
420
 16777215
370
    25
100
AcDbVertex
100
AcDb2dVertex
 10
4.422354149972825
 20
28.48709827818374
 30
0.0
  0
VERTEX
  5
A9
330
A3
100
AcDbEntity
  8
Layer 1
 62
     7
420
 16777215
370
    25
100
AcDbVertex
100
AcDb2dVertex
 10
2.819910031049214
 20
23.30902820982437
 30
0.0
  0
VERTEX
  5
AA
330
A3
100
AcDbEntity
  8
Layer 1
 62
     7
420
 16777215
370
    25
100
AcDbVertex
100
AcDb2dVertex
 10
1.899104841704595
 20
23.30902820982437
 30
0.0
  0
VERTEX
  5
AB
330
A3
100
AcDbEntity
  8
Layer 1
 62
     7
420
 16777215
370
    25
100
AcDbVertex
100
AcDb2dVertex
 10
1.899104841704595
 20
21.25215361672541
 30
0.0
  0
VERTEX
  5
AC
330
A3
100
AcDbEntity
  8
Layer 1
 62
     7
420
 16777215
370
    25
100
AcDbVertex
100
AcDb2dVertex
 10
2.14252152193463
 20
21.25215361672541
 30
0.0
  0
VERTEX
  5
AD
330
A3
100
AcDbEntity
  8
Layer 1
 62
     7
420
 16777215
370
    25
100
AcDbVertex
100
AcDb2dVertex
 10
2.14252152193463
 20
21.04215368454225
 30
0.0
  0
VERTEX
  5
AE
330
A3
100
AcDbEntity
  8
Layer 1
 62
     7
420
 16777215
370
    25
100
AcDbVertex
100
AcDb2dVertex
 10
5.728421722672477
 20
21.04215368454225
 30
0.0
  0
VERTEX
  5
AF
330
A3
100
AcDbEntity
  8
Layer 1
 62
     7
420
 16777215
370
    25
100
AcDbVertex
100
AcDb2dVertex
 10
5.728421722672477
 20
21.25215361672541
 30
0.0
  0
VERTEX
  5
B0
330
A3
100
AcDbEntity
  8
Layer 1
 62
     7
420
 16777215
370
    25
100
AcDbVertex
100
AcDb2dVertex
 10
6.000921654855637
 20
21.25215361672541
 30
0.0
  0
VERTEX
  5
B1
330
A3
100
AcDbEntity
  8
Layer 1
 62
     7
420
 16777215
370
    25
100
AcDbVertex
100
AcDb2dVertex
 10
6.000921654855637
 20
23.30902820982437
 30
0.0
  0
VERTEX
  5
B2
330
A3
100
AcDbEntity
  8
Layer 1
 62
     7
420
 16777215
370
    25
100
AcDbVertex
100
AcDb2dVertex
 10
4.888769555246262
 20
23.30902820982437
 30
0.0
  0
VERTEX
  5
B3
330
A3
100
AcDbEntity
  8
Layer 1
 62
     7
420
 16777215
370
    25
100
AcDbVertex
100
AcDb2dVertex
 10
5.151853119156852
 20
24.30158361618287
 30
0.0
  0
VERTEX
  5
B4
330
A3
100
AcDbEntity
  8
Layer 1
 62
     7
420
 16777215
370
    25
100
AcDbVertex
100
AcDb2dVertex
 10
7.256562320545741
 20
24.30158361618287
 30
0.0
  0
VERTEX
  5
B5
330
A3
100
AcDbEntity
  8
Layer 1
 62
     7
420
 16777215
370
    25
100
AcDbVertex
100
AcDb2dVertex
 10
7.507688080094352
 20
23.30902820982437
 30
0.0
  0
VERTEX
  5
B6
330
A3
100
AcDbEntity
  8
Layer 1
 62
     7
420
 16777215
370
    25
100
AcDbVertex
100
AcDb2dVertex
 10
6.75429893350147
 20
23.30902820982437
 30
0.0
  0
VERTEX
  5
B7
330
A3
100
AcDbEntity
  8
Layer 1
 62
     7
420
 16777215
370
    25
100
AcDbVertex
100
AcDb2dVertex
 10
6.75429893350147
 20
21.25215361672541
 30
0.0
  0
VERTEX
  5
B8
330
A3
100
AcDbEntity
  8
Layer 1
 62
     7
420
 16777215
370
    25
100
AcDbVertex
100
AcDb2dVertex
 10
7.645580061431158
 20
21.25215361672541
 30
0.0
  0
VERTEX
  5
B9
330
A3
100
AcDbEntity
  8
Layer 1
 62
     7
420
 16777215
370
    25
100
AcDbVertex
100
AcDb2dVertex
 10
7.645580061431158
 20
21.04215368454225
 30
0.0
  0
VERTEX
  5
BA
330
A3
100
AcDbEntity
  8
Layer 1
 62
     7
420
 16777215
370
    25
100
AcDbVertex
100
AcDb2dVertex
 10
11.23148026216899
 20
21.04215368454225
 30
0.0
  0
VERTEX
  5
BB
330
A3
100
AcDbEntity
  8
Layer 1
 62
     7
420
 16777215
370
    25
100
AcDbVertex
100
AcDb2dVertex
 10
11.23148026216899
 20
21.25215361672541
 30
0.0
  0
VERTEX
  5
BC
330
A3
100
AcDbEntity
  8
Layer 1
 62
     7
420
 16777215
370
    25
100
AcDbVertex
100
AcDb2dVertex
 10
11.98018665594069
 20
21.25215361672541
 30
0.0
  0
VERTEX
  5
BD
330
A3
100
AcDbEntity
  8
Layer 1
 62
     7
420
 16777215
370
    25
100
AcDbVertex
100
AcDb2dVertex
 10
11.98018665594069
 20
23.30902820982437
 30
0.0
  0
VERTEX
  5
BE
330
A3
100
AcDbEntity
  8
Layer 1
 62
     7
420
 16777215
370
    25
100
AcDbVertex
100
AcDb2dVertex
 10
11.05936790322802
 20
23.30902820982437
 30
0.0
  0
SEQEND
  5
BF
330
A3
100
AcDbEntity
  8
Layer 1
 62
     7
420
 16777215
370
    25
  0
POLYLINE
  5
C0
330
1F
100
AcDbEntity
  8
Layer 1
 62
     7
420
 16777215
370
    25
100
AcDb2dPolyline
 66
     1
 10
0.0
 20
0.0
 30
0.0
  0
VERTEX
  5
C1
330
C0
100
AcDbEntity
  8
Layer 1
 62
     7
420
 16777215
370
    25
100
AcDbVertex
100
AcDb2dVertex
 10
5.450813486995394
 20
25.71270964699885
 30
0.0
  0
VERTEX
  5
C2
330
C0
100
AcDbEntity
  8
Layer 1
 62
     7
420
 16777215
370
    25
100
AcDbVertex
100
AcDb2dVertex
 10
6.299868459326123
 20
28.55886205856569
 30
0.0
  0
VERTEX
  5
C3
330
C0
100
AcDbEntity
  8
Layer 1
 62
     7
420
 16777215
370
    25
100
AcDbVertex
100
AcDb2dVertex
 10
6.981507388905116
 20
25.71270964699885
 30
0.0
  0
VERTEX
  5
C4
330
C0
100
AcDbEntity
  8
Layer 1
 62
     7
420
 16777215
370
    25
100
AcDbVertex
100
AcDb2dVertex
 10
5.450813486995394
 20
25.71270964699885
 30
0.0
  0
SEQEND
  5
C5
330
C0
100
AcDbEntity
  8
Layer 1
 62
     7
420
 16777215
370
    25
  0
POLYLINE
  5
C6
330
1F
100
AcDbEntity
  8
Layer 1
 62
     7
420
 16777215
370
    35
100
AcDb2dPolyline
 66
     1
 10
0.0
 20
0.0
 30
0.0
  0
VERTEX
  5
C7
330
C6
100
AcDbEntity
  8
Layer 1
 62
     7
420
 16777215
370
    35
100
AcDbVertex
100
AcDb2dVertex
 10
11.60829059943944
 20
26.88261320488004
 30
0.0
  0
VERTEX
  5
C8
330
C6
100
AcDbEntity
  8
Layer 1
 62
     7
420
 16777215
370
    35
100
AcDbVertex
100
AcDb2dVertex
 10
11.60829059943944
 20
25.12555940578065
 30
0.0
  0
VERTEX
  5
C9
330
C6
100
AcDbEntity
  8
Layer 1
 62
     7
420
 16777215
370
    35
100
AcDbVertex
100
AcDb2dVertex
 10
22.31723089349326
 20
25.12555940578065
 30
0.0
  0
VERTEX
  5
CA
330
C6
100
AcDbEntity
  8
Layer 1
 62
     7
420
 16777215
370
    35
100
AcDbVertex
100
AcDb2dVertex
 10
22.31723089349326
 20
26.88261320488004
 30
0.0
  0
VERTEX
  5
CB
330
C6
100
AcDbEntity
  8
Layer 1
 62
     7
420
 16777215
370
    35
100
AcDbVertex
100
AcDb2dVertex
 10
11.60829059943944
 20
26.88261320488004
 30
0.0
  0
SEQEND
  5
CC
330
C6
100
AcDbEntity
  8
Layer 1
 62
     7
420
 16777215
370
    35
  0
POLYLINE
  5
CD
330
1F
100
AcDbEntity
  8
Layer 1
 62
     7
420
 16777215
370
    35
100
AcDb2dPolyline
 66
     1
 10
0.0
 20
0.0
 30
0.0
  0
VERTEX
  5
CE
330
CD
100
AcDbEntity
  8
Layer 1
 62
     7
420
 16777215
370
    35
100
AcDbVertex
100
AcDb2dVertex
 10
15.74798650872764
 20
26.31908662746034
 30
0.0
  0
VERTEX
  5
CF
330
CD
100
AcDbEntity
  8
Layer 1
 62
     7
420
 16777215
370
    35
100
AcDbVertex
100
AcDb2dVertex
 10
12.16208546027929
 20
26.31908662746034
 30
0.0
  0
VERTEX
  5
D0
330
CD
100
AcDbEntity
  8
Layer 1
 62
     7
420
 16777215
370
    35
100
AcDbVertex
100
AcDb2dVertex
 10
12.16208546027929
 20
26.5290865596435
 30
0.0
  0
VERTEX
  5
D1
330
CD
100
AcDbEntity
  8
Layer 1
 62
     7
420
 16777215
370
    35
100
AcDbVertex
100
AcDb2dVertex
 10
15.74798650872764
 20
26.5290865596435
 30
0.0
  0
VERTEX
  5
D2
330
CD
100
AcDbEntity
  8
Layer 1
 62
     7
420
 16777215
370
    35
100
AcDbVertex
100
AcDb2dVertex
 10
15.74798650872764
 20
26.31908662746034
 30
0.0
  0
SEQEND
  5
D3
330
CD
100
AcDbEntity
  8
Layer 1
 62
     7
420
 16777215
370
    35
  0
POLYLINE
  5
D4
330
1F
100
AcDbEntity
  8
Layer 1
 62
     7
420
 16777215
370
    35
100
AcDb2dPolyline
 66
     1
 10
0.0
 20
0.0
 30
0.0
  0
VERTEX
  5
D5
330
D4
100
AcDbEntity
  8
Layer 1
 62
     7
420
 16777215
370
    35
100
AcDbVertex
100
AcDb2dVertex
 10
21.24720831048545
 20
26.31908662746034
 30
0.0
  0
VERTEX
  5
D6
330
D4
100
AcDbEntity
  8
Layer 1
 62
     7
420
 16777215
370
    35
100
AcDbVertex
100
AcDb2dVertex
 10
17.6613081097476
 20
26.31908662746034
 30
0.0
  0
VERTEX
  5
D7
330
D4
100
AcDbEntity
  8
Layer 1
 62
     7
420
 16777215
370
    35
100
AcDbVertex
100
AcDb2dVertex
 10
17.6613081097476
 20
26.5290865596435
 30
0.0
  0
VERTEX
  5
D8
330
D4
100
AcDbEntity
  8
Layer 1
 62
     7
420
 16777215
370
    35
100
AcDbVertex
100
AcDb2dVertex
 10
21.24720831048545
 20
26.5290865596435
 30
0.0
  0
VERTEX
  5
D9
330
D4
100
AcDbEntity
  8
Layer 1
 62
     7
420
 16777215
370
    35
100
AcDbVertex
100
AcDb2dVertex
 10
21.24720831048545
 20
26.31908662746034
 30
0.0
  0
SEQEND
  5
DA
330
D4
100
AcDbEntity
  8
Layer 1
 62
     7
420
 16777215
370
    35
  0
INSERT
  5
DC
330
1F
100
AcDbEntity
  8
Layer 1
100
AcDbBlockReference
  2
block 3
 10
0.0
 20
0.0
 30
0.0
  0
POLYLINE
  5
117
330
1F
100
AcDbEntity
  8
Layer 1
 62
     7
420
 16777215
370
    35
100
AcDb2dPolyline
 66
     1
 10
0.0
 20
0.0
 30
0.0
  0
VERTEX
  5
118
330
117
100
AcDbEntity
  8
Layer 1
 62
     7
420
 16777215
370
    35
100
AcDbVertex
100
AcDb2dVertex
 10
10.68747099901626
 20
13.03184389524583
 30
0.0
  0
VERTEX
  5
119
330
117
100
AcDbEntity
  8
Layer 1
 62
     7
420
 16777215
370
    35
100
AcDbVertex
100
AcDb2dVertex
 10
8.618637753844824
 20
20.26680263664581
 30
0.0
  0
VERTEX
  5
11A
330
117
100
AcDbEntity
  8
Layer 1
 62
     7
420
 16777215
370
    35
100
AcDbVertex
100
AcDb2dVertex
 10
7.378429657870432
 20
20.26680263664581
 30
0.0
  0
VERTEX
  5
11B
330
117
100
AcDbEntity
  8
Layer 1
 62
     7
420
 16777215
370
    35
100
AcDbVertex
100
AcDb2dVertex
 10
7.378429657870432
 20
19.9168026392949
 30
0.0
  0
VERTEX
  5
11C
330
117
100
AcDbEntity
  8
Layer 1
 62
     7
420
 16777215
370
    35
100
AcDbVertex
100
AcDb2dVertex
 10
8.35469376377321
 20
19.9168026392949
 30
0.0
  0
VERTEX
  5
11D
330
117
100
AcDbEntity
  8
Layer 1
 62
     7
420
 16777215
370
    35
100
AcDbVertex
100
AcDb2dVertex
 10
10.42352700894465
 20
12.68185813678229
 30
0.0
  0
VERTEX
  5
11E
330
117
100
AcDbEntity
  8
Layer 1
 62
     7
420
 16777215
370
    35
100
AcDbVertex
100
AcDb2dVertex
 10
11.25827686652929
 20
12.68185813678229
 30
0.0
  0
VERTEX
  5
11F
330
117
100
AcDbEntity
  8
Layer 1
 62
     7
420
 16777215
370
    35
100
AcDbVertex
100
AcDb2dVertex
 10
11.25827686652929
 20
11.32496947168897
 30
0.0
  0
VERTEX
  5
120
330
117
100
AcDbEntity
  8
Layer 1
 62
     7
420
 16777215
370
    35
100
AcDbVertex
100
AcDb2dVertex
 10
6.732387787753244
 20
11.32496947168897
 30
0.0
  0
VERTEX
  5
121
330
117
100
AcDbEntity
  8
Layer 1
 62
     7
420
 16777215
370
    35
100
AcDbVertex
100
AcDb2dVertex
 10
6.732387787753244
 20
12.68185813678229
 30
0.0
  0
VERTEX
  5
122
330
117
100
AcDbEntity
  8
Layer 1
 62
     7
420
 16777215
370
    35
100
AcDbVertex
100
AcDb2dVertex
 10
7.585346466952463
 20
12.68185813678229
 30
0.0
  0
VERTEX
  5
123
330
117
100
AcDbEntity
  8
Layer 1
 62
     7
420
 16777215
370
    35
100
AcDbVertex
100
AcDb2dVertex
 10
7.157110247334407
 20
14.374413882225
 30
0.0
  0
VERTEX
  5
124
330
117
100
AcDbEntity
  8
Layer 1
 62
     7
420
 16777215
370
    35
100
AcDbVertex
100
AcDb2dVertex
 10
4.5106241769134
 20
14.374413882225
 30
0.0
  0
VERTEX
  5
125
330
117
100
AcDbEntity
  8
Layer 1
 62
     7
420
 16777215
370
    35
100
AcDbVertex
100
AcDb2dVertex
 10
4.061985260897775
 20
12.68185813678229
 30
0.0
  0
VERTEX
  5
126
330
117
100
AcDbEntity
  8
Layer 1
 62
     7
420
 16777215
370
    35
100
AcDbVertex
100
AcDb2dVertex
 10
5.278999149786665
 20
12.68185813678229
 30
0.0
  0
VERTEX
  5
127
330
117
100
AcDbEntity
  8
Layer 1
 62
     7
420
 16777215
370
    35
100
AcDbVertex
100
AcDb2dVertex
 10
5.278999149786665
 20
11.32496947168897
 30
0.0
  0
VERTEX
  5
128
330
117
100
AcDbEntity
  8
Layer 1
 62
     7
420
 16777215
370
    35
100
AcDbVertex
100
AcDb2dVertex
 10
1.877193484028743
 20
11.32496947168897
 30
0.0
  0
VERTEX
  5
129
330
117
100
AcDbEntity
  8
Layer 1
 62
     7
420
 16777215
370
    35
100
AcDbVertex
100
AcDb2dVertex
 10
1.877193484028743
 20
12.68185813678229
 30
0.0
  0
VERTEX
  5
12A
330
117
100
AcDbEntity
  8
Layer 1
 62
     7
420
 16777215
370
    35
100
AcDbVertex
100
AcDb2dVertex
 10
2.706068495896691
 20
12.68185813678229
 30
0.0
  0
VERTEX
  5
12B
330
117
100
AcDbEntity
  8
Layer 1
 62
     7
420
 16777215
370
    35
100
AcDbVertex
100
AcDb2dVertex
 10
4.525151815666655
 20
18.55991370929205
 30
0.0
  0
VERTEX
  5
12C
330
117
100
AcDbEntity
  8
Layer 1
 62
     7
420
 16777215
370
    35
100
AcDbVertex
100
AcDb2dVertex
 10
3.180679566317697
 20
18.55991370929205
 30
0.0
  0
VERTEX
  5
12D
330
117
100
AcDbEntity
  8
Layer 1
 62
     7
420
 16777215
370
    35
100
AcDbVertex
100
AcDb2dVertex
 10
3.180679566317697
 20
19.9168026392949
 30
0.0
  0
VERTEX
  5
12E
330
117
100
AcDbEntity
  8
Layer 1
 62
     7
420
 16777215
370
    35
100
AcDbVertex
100
AcDb2dVertex
 10
5.095752887971508
 20
19.9168026392949
 30
0.0
  0
VERTEX
  5
12F
330
117
100
AcDbEntity
  8
Layer 1
 62
     7
420
 16777215
370
    35
100
AcDbVertex
100
AcDb2dVertex
 10
5.095752887971508
 20
20.26680263664581
 30
0.0
  0
VERTEX
  5
130
330
117
100
AcDbEntity
  8
Layer 1
 62
     7
420
 16777215
370
    35
100
AcDbVertex
100
AcDb2dVertex
 10
2.830679608703222
 20
20.26680263664581
 30
0.0
  0
VERTEX
  5
131
330
117
100
AcDbEntity
  8
Layer 1
 62
     7
420
 16777215
370
    35
100
AcDbVertex
100
AcDb2dVertex
 10
2.830679608703222
 20
18.20992773890089
 30
0.0
  0
VERTEX
  5
132
330
117
100
AcDbEntity
  8
Layer 1
 62
     7
420
 16777215
370
    35
100
AcDbVertex
100
AcDb2dVertex
 10
4.050457245761057
 20
18.20992773890089
 30
0.0
  0
VERTEX
  5
133
330
117
100
AcDbEntity
  8
Layer 1
 62
     7
420
 16777215
370
    35
100
AcDbVertex
100
AcDb2dVertex
 10
2.447999139614138
 20
13.03184389524583
 30
0.0
  0
VERTEX
  5
134
330
117
100
AcDbEntity
  8
Layer 1
 62
     7
420
 16777215
370
    35
100
AcDbVertex
100
AcDb2dVertex
 10
1.527193526414269
 20
13.03184389524583
 30
0.0
  0
VERTEX
  5
135
330
117
100
AcDbEntity
  8
Layer 1
 62
     7
420
 16777215
370
    35
100
AcDbVertex
100
AcDb2dVertex
 10
1.527193526414269
 20
10.97496930214687
 30
0.0
  0
VERTEX
  5
136
330
117
100
AcDbEntity
  8
Layer 1
 62
     7
420
 16777215
370
    35
100
AcDbVertex
100
AcDb2dVertex
 10
5.628998895473513
 20
10.97496930214687
 30
0.0
  0
VERTEX
  5
137
330
117
100
AcDbEntity
  8
Layer 1
 62
     7
420
 16777215
370
    35
100
AcDbVertex
100
AcDb2dVertex
 10
5.628998895473513
 20
13.03184389524583
 30
0.0
  0
VERTEX
  5
138
330
117
100
AcDbEntity
  8
Layer 1
 62
     7
420
 16777215
370
    35
100
AcDbVertex
100
AcDb2dVertex
 10
4.516846372008886
 20
13.03184389524583
 30
0.0
  0
VERTEX
  5
139
330
117
100
AcDbEntity
  8
Layer 1
 62
     7
420
 16777215
370
    35
100
AcDbVertex
100
AcDb2dVertex
 10
4.779929512064225
 20
14.0244137126829
 30
0.0
  0
VERTEX
  5
13A
330
117
100
AcDbEntity
  8
Layer 1
 62
     7
420
 16777215
370
    35
100
AcDbVertex
100
AcDb2dVertex
 10
6.884637865742611
 20
14.0244137126829
 30
0.0
  0
VERTEX
  5
13B
330
117
100
AcDbEntity
  8
Layer 1
 62
     7
420
 16777215
370
    35
100
AcDbVertex
100
AcDb2dVertex
 10
7.13576320143597
 20
13.03184389524583
 30
0.0
  0
VERTEX
  5
13C
330
117
100
AcDbEntity
  8
Layer 1
 62
     7
420
 16777215
370
    35
100
AcDbVertex
100
AcDb2dVertex
 10
6.382388042066395
 20
13.03184389524583
 30
0.0
  0
VERTEX
  5
13D
330
117
100
AcDbEntity
  8
Layer 1
 62
     7
420
 16777215
370
    35
100
AcDbVertex
100
AcDb2dVertex
 10
6.382388042066395
 20
10.97496930214687
 30
0.0
  0
VERTEX
  5
13E
330
117
100
AcDbEntity
  8
Layer 1
 62
     7
420
 16777215
370
    35
100
AcDbVertex
100
AcDb2dVertex
 10
11.60829059943944
 20
10.97496930214687
 30
0.0
  0
VERTEX
  5
13F
330
117
100
AcDbEntity
  8
Layer 1
 62
     7
420
 16777215
370
    35
100
AcDbVertex
100
AcDb2dVertex
 10
11.60829059943944
 20
13.03184389524583
 30
0.0
  0
VERTEX
  5
140
330
117
100
AcDbEntity
  8
Layer 1
 62
     7
420
 16777215
370
    35
100
AcDbVertex
100
AcDb2dVertex
 10
10.68747099901626
 20
13.03184389524583
 30
0.0
  0
SEQEND
  5
141
330
117
100
AcDbEntity
  8
Layer 1
 62
     7
420
 16777215
370
    35
  0
ENDSEC
  0
SECTION
  2
OBJECTS
  0
DICTIONARY
  5
C
330
0
100
AcDbDictionary
281
     1
  3
ACAD_GROUP
350
D
  3
ACAD_LAYOUT
350
1A
  3
ACAD_MATERIAL
350
3B
  3
ACAD_MLEADERSTYLE
350
143
  3
ACAD_MLINESTYLE
350
17
  3
ACAD_PLOTSETTINGS
350
19
  3
ACAD_PLOTSTYLENAME
350
E
  3
ACAD_TABLESTYLE
350
142
  3
ACAD_VISUALSTYLE
350
2A
  0
SUN
  5
3F
330
29
100
AcDbSun
 90
        1
290
     0
 63
     7
421
 16777215
 40
1.0
291
     1
 91
  2455826
 92
 54000000
292
     0
 70
     2
 71
   256
280
     1
  0
DICTIONARY
  5
D
102
{ACAD_REACTORS
330
C
102
}
330
C
100
AcDbDictionary
281
     1
  0
DICTIONARY
  5
1A
102
{ACAD_REACTORS
330
C
102
}
330
C
100
AcDbDictionary
281
     1
  3
Layout1
350
1E
  3
Layout2
350
26
  3
Model
350
22
  0
DICTIONARY
  5
3B
102
{ACAD_REACTORS
330
C
102
}
330
C
100
AcDbDictionary
281
     1
  3
ByBlock
350
3D
  3
ByLayer
350
3C
  3
Global
350
3E
  0
DICTIONARY
  5
143
102
{ACAD_REACTORS
330
C
102
}
330
C
100
AcDbDictionary
281
     1
  0
DICTIONARY
  5
17
102
{ACAD_REACTORS
330
C
102
}
330
C
100
AcDbDictionary
281
     1
  3
Standard
350
18
  0
DICTIONARY
  5
19
102
{ACAD_REACTORS
330
C
102
}
330
C
100
AcDbDictionary
281
     1
  0
ACDBDICTIONARYWDFLT
  5
E
102
{ACAD_REACTORS
330
C
102
}
330
C
100
AcDbDictionary
281
     1
  3
Normal
350
F
100
AcDbDictionaryWithDefault
340
F
  0
DICTIONARY
  5
142
102
{ACAD_REACTORS
330
C
102
}
330
C
100
AcDbDictionary
281
     1
  0
DICTIONARY
  5
2A
102
{ACAD_REACTORS
330
C
102
}
330
C
100
AcDbDictionary
281
     1
  3
2dWireframe
350
2F
  3
3D Hidden
350
31
  3
3dWireframe
350
30
  3
Basic
350
32
  3
Brighten
350
36
  3
ColorChange
350
3A
  3
Conceptual
350
34
  3
Dim
350
35
  3
Facepattern
350
39
  3
Flat
350
2B
  3
FlatWithEdges
350
2C
  3
Gouraud
350
2D
  3
GouraudWithEdges
350
2E
  3
Linepattern
350
38
  3
Realistic
350
33
  3
Thicken
350
37
  0
LAYOUT
  5
1E
102
{ACAD_REACTORS
330
1A
102
}
330
1A
100
AcDbPlotSettings
  1

  2
none_device
  4

  6

 40
0.0
 41
0.0
 42
0.0
 43
0.0
 44
0.0
 45
0.0
 46
0.0
 47
0.0
 48
0.0
 49
0.0
140
0.0
141
0.0
142
1.0
143
1.0
 70
   688
 72
     0
 73
     0
 74
     5
  7

 75
    16
 76
     0
 77
     2
 78
   300
147
1.0
148
0.0
149
0.0
100
AcDbLayout
  1
Layout1
 70
     1
 71
     1
 10
0.0
 20
0.0
 11
12.0
 21
9.0
 12
0.0
 22
0.0
 32
0.0
 14
1.000000000000000E+20
 24
1.000000000000000E+20
 34
1.000000000000000E+20
 15
-1.000000000000000E+20
 25
-1.000000000000000E+20
 35
-1.000000000000000E+20
146
0.0
 13
0.0
 23
0.0
 33
0.0
 16
1.0
 26
0.0
 36
0.0
 17
0.0
 27
1.0
 37
0.0
 76
     0
330
1B
  0
LAYOUT
  5
26
102
{ACAD_REACTORS
330
1A
102
}
330
1A
100
AcDbPlotSettings
  1

  2
none_device
  4

  6

 40
0.0
 41
0.0
 42
0.0
 43
0.0
 44
0.0
 45
0.0
 46
0.0
 47
0.0
 48
0.0
 49
0.0
140
0.0
141
0.0
142
1.0
143
1.0
 70
   688
 72
     0
 73
     0
 74
     5
  7

 75
    16
 76
     0
 77
     2
 78
   300
147
1.0
148
0.0
149
0.0
100
AcDbLayout
  1
Layout2
 70
     1
 71
     2
 10
0.0
 20
0.0
 11
0.0
 21
0.0
 12
0.0
 22
0.0
 32
0.0
 14
0.0
 24
0.0
 34
0.0
 15
0.0
 25
0.0
 35
0.0
146
0.0
 13
0.0
 23
0.0
 33
0.0
 16
1.0
 26
0.0
 36
0.0
 17
0.0
 27
1.0
 37
0.0
 76
     0
330
23
  0
LAYOUT
  5
22
102
{ACAD_REACTORS
330
1A
102
}
330
1A
100
AcDbPlotSettings
  1

  2
none_device
  4

  6

 40
0.0
 41
0.0
 42
0.0
 43
0.0
 44
0.0
 45
0.0
 46
0.0
 47
0.0
 48
0.0
 49
0.0
140
0.0
141
0.0
142
1.0
143
1.0
 70
  1712
 72
     0
 73
     0
 74
     0
  7

 75
     0
 76
     0
 77
     2
 78
   300
147
1.0
148
0.0
149
0.0
100
AcDbLayout
  1
Model
 70
     1
 71
     0
 10
0.0
 20
0.0
 11
12.0
 21
9.0
 12
0.0
 22
0.0
 32
0.0
 14
1.000000000000000E+20
 24
1.000000000000000E+20
 34
1.000000000000000E+20
 15
-1.000000000000000E+20
 25
-1.000000000000000E+20
 35
-1.000000000000000E+20
146
0.0
 13
0.0
 23
0.0
 33
0.0
 16
1.0
 26
0.0
 36
0.0
 17
0.0
 27
1.0
 37
0.0
 76
     0
330
1F
331
29
  0
MATERIAL
  5
3D
102
{ACAD_REACTORS
330
3B
102
}
330
3B
100
AcDbMaterial
  1
ByBlock
 72
     1
 94
      127
  0
MATERIAL
  5
3C
102
{ACAD_REACTORS
330
3B
102
}
330
3B
100
AcDbMaterial
  1
ByLayer
 72
     1
 94
      127
  0
MATERIAL
  5
3E
102
{ACAD_REACTORS
330
3B
102
}
330
3B
100
AcDbMaterial
  1
Global
 72
     1
 94
      127
  0
MLINESTYLE
  5
18
102
{ACAD_REACTORS
330
17
102
}
330
17
100
AcDbMlineStyle
  2
Standard
 70
     0
  3

 62
   256
 51
90.0
 52
90.0
 71
     2
 49
0.5
 62
   256
  6
BYLAYER
 49
-0.5
 62
   256
  6
BYLAYER
  0
ACDBPLACEHOLDER
  5
F
102
{ACAD_REACTORS
330
E
102
}
330
E
  0
VISUALSTYLE
  5
2F
102
{ACAD_REACTORS
330
2A
102
}
330
2A
100
AcDbVisualStyle
  2
2dWireframe
 70
     4
177
     2
291
     0
 71
     0
176
     1
 72
     2
176
     1
 73
     0
176
     1
 90
        0
176
     1
 40
-0.6
176
     1
 41
-30.0
176
     1
 62
     5
 63
     7
421
 16777215
176
     1
 74
     1
176
     1
 91
        4
176
     1
 64
     7
176
     1
 65
   257
176
     1
 75
     1
176
     1
175
     1
176
     1
 42
1.0
176
     1
 92
        0
176
     1
 66
   257
176
     1
 43
1.0
176
     1
 76
     1
176
     1
 77
     6
176
     1
 78
     2
176
     1
 67
     7
176
     1
 79
     5
176
     1
170
     0
176
     1
171
     0
176
     1
290
     0
176
     1
 93
        1
176
     1
 44
0.0
176
     1
173
     0
176
     1
  0
VISUALSTYLE
  5
31
102
{ACAD_REACTORS
330
2A
102
}
330
2A
100
AcDbVisualStyle
  2
3D Hidden
 70
     6
177
     2
291
     0
 71
     1
176
     1
 72
     2
176
     1
 73
     2
176
     1
 90
        0
176
     1
 40
-0.6
176
     1
 41
-30.0
176
     1
 62
     5
 63
     7
421
 16777215
176
     1
 74
     2
176
     1
 91
        2
176
     1
 64
     7
176
     1
 65
   257
176
     1
 75
     2
176
     1
175
     1
176
     1
 42
40.0
176
     1
 92
        0
176
     1
 66
   257
176
     1
 43
1.0
176
     1
 76
     1
176
     1
 77
     6
176
     1
 78
     2
176
     1
 67
     7
176
     1
 79
     3
176
     1
170
     0
176
     1
171
     0
176
     1
290
     0
176
     1
 93
        1
176
     1
 44
0.0
176
     1
173
     0
176
     1
  0
VISUALSTYLE
  5
30
102
{ACAD_REACTORS
330
2A
102
}
330
2A
100
AcDbVisualStyle
  2
3dWireframe
 70
     5
177
     2
291
     0
 71
     0
176
     1
 72
     2
176
     1
 73
     0
176
     1
 90
        0
176
     1
 40
-0.6
176
     1
 41
-30.0
176
     1
 62
     5
 63
     7
421
 16777215
176
     1
 74
     1
176
     1
 91
        4
176
     1
 64
     7
176
     1
 65
   257
176
     1
 75
     1
176
     1
175
     1
176
     1
 42
1.0
176
     1
 92
        0
176
     1
 66
   257
176
     1
 43
1.0
176
     1
 76
     1
176
     1
 77
     6
176
     1
 78
     2
176
     1
 67
     7
176
     1
 79
     5
176
     1
170
     0
176
     1
171
     0
176
     1
290
     0
176
     1
 93
        1
176
     1
 44
0.0
176
     1
173
     0
176
     1
  0
VISUALSTYLE
  5
32
102
{ACAD_REACTORS
330
2A
102
}
330
2A
100
AcDbVisualStyle
  2
Basic
 70
     7
177
     2
291
     1
 71
     1
176
     1
 72
     0
176
     1
 73
     1
176
     1
 90
        0
176
     1
 40
-0.6
176
     1
 41
-30.0
176
     1
 62
     5
 63
     7
421
 16777215
176
     1
 74
     0
176
     1
 91
        4
176
     1
 64
     7
176
     1
 65
   257
176
     1
 75
     1
176
     1
175
     1
176
     1
 42
1.0
176
     1
 92
        8
176
     1
 66
     7
176
     1
 43
1.0
176
     1
 76
     1
176
     1
 77
     6
176
     1
 78
     2
176
     1
 67
     7
176
     1
 79
     5
176
     1
170
     0
176
     1
171
     0
176
     1
290
     0
176
     1
 93
        1
176
     1
 44
0.0
176
     1
173
     0
176
     1
  0
VISUALSTYLE
  5
36
102
{ACAD_REACTORS
330
2A
102
}
330
2A
100
AcDbVisualStyle
  2
Brighten
 70
    12
177
     2
291
     1
 71
     2
176
     1
 72
     2
176
     1
 73
     0
176
     1
 90
        0
176
     1
 40
-0.6
176
     1
 41
-30.0
176
     1
 62
     5
 63
     7
421
 16777215
176
     1
 74
     1
176
     1
 91
        4
176
     1
 64
     7
176
     1
 65
   257
176
     1
 75
     1
176
     1
175
     1
176
     1
 42
1.0
176
     1
 92
        8
176
     1
 66
     7
176
     1
 43
1.0
176
     1
 76
     1
176
     1
 77
     6
176
     1
 78
     2
176
     1
 67
     7
176
     1
 79
     5
176
     1
170
     0
176
     1
171
     0
176
     1
290
     0
176
     1
 93
        1
176
     1
 44
50.0
176
     1
173
     0
176
     1
  0
VISUALSTYLE
  5
3A
102
{ACAD_REACTORS
330
2A
102
}
330
2A
100
AcDbVisualStyle
  2
ColorChange
 70
    16
177
     2
291
     1
 71
     2
176
     1
 72
     2
176
     1
 73
     3
176
     1
 90
        0
176
     1
 40
-0.6
176
     1
 41
-30.0
176
     1
 62
     5
 63
     8
421
  8421504
176
     1
 74
     1
176
     1
 91
        4
176
     1
 64
     7
176
     1
 65
   257
176
     1
 75
     1
176
     1
175
     1
176
     1
 42
1.0
176
     1
 92
        8
176
     1
 66
     8
424
  8421504
176
     1
 43
1.0
176
     1
 76
     1
176
     1
 77
     6
176
     1
 78
     2
176
     1
 67
     7
176
     1
 79
     5
176
     1
170
     0
176
     1
171
     0
176
     1
290
     0
176
     1
 93
        1
176
     1
 44
0.0
176
     1
173
     0
176
     1
  0
VISUALSTYLE
  5
34
102
{ACAD_REACTORS
330
2A
102
}
330
2A
100
AcDbVisualStyle
  2
Conceptual
 70
     9
177
     2
291
     0
 71
     3
176
     1
 72
     2
176
     1
 73
     0
176
     1
 90
        0
176
     1
 40
-0.6
176
     1
 41
-30.0
176
     1
 62
     5
 63
     7
421
 16777215
176
     1
 74
     2
176
     1
 91
        2
176
     1
 64
     7
176
     1
 65
   257
176
     1
 75
     1
176
     1
175
     1
176
     1
 42
40.0
176
     1
 92
        8
176
     1
 66
     7
176
     1
 43
1.0
176
     1
 76
     1
176
     1
 77
     6
176
     1
 78
     2
176
     1
 67
     7
176
     1
 79
     3
176
     1
170
     0
176
     1
171
     0
176
     1
290
     0
176
     1
 93
        1
176
     1
 44
0.0
176
     1
173
     0
176
     1
  0
VISUALSTYLE
  5
35
102
{ACAD_REACTORS
330
2A
102
}
330
2A
100
AcDbVisualStyle
  2
Dim
 70
    11
177
     2
291
     1
 71
     2
176
     1
 72
     2
176
     1
 73
     0
176
     1
 90
        0
176
     1
 40
-0.6
176
     1
 41
-30.0
176
     1
 62
     5
 63
     7
421
 16777215
176
     1
 74
     1
176
     1
 91
        4
176
     1
 64
     7
176
     1
 65
   257
176
     1
 75
     1
176
     1
175
     1
176
     1
 42
1.0
176
     1
 92
        8
176
     1
 66
     7
176
     1
 43
1.0
176
     1
 76
     1
176
     1
 77
     6
176
     1
 78
     2
176
     1
 67
     7
176
     1
 79
     5
176
     1
170
     0
176
     1
171
     0
176
     1
290
     0
176
     1
 93
        1
176
     1
 44
-50.0
176
     1
173
     0
176
     1
  0
VISUALSTYLE
  5
39
102
{ACAD_REACTORS
330
2A
102
}
330
2A
100
AcDbVisualStyle
  2
Facepattern
 70
    15
177
     2
291
     1
 71
     2
176
     1
 72
     2
176
     1
 73
     0
176
     1
 90
        0
176
     1
 40
-0.6
176
     1
 41
-30.0
176
     1
 62
     5
 63
     7
421
 16777215
176
     1
 74
     1
176
     1
 91
        4
176
     1
 64
     7
176
     1
 65
   257
176
     1
 75
     1
176
     1
175
     1
176
     1
 42
1.0
176
     1
 92
        8
176
     1
 66
     7
176
     1
 43
1.0
176
     1
 76
     1
176
     1
 77
     6
176
     1
 78
     2
176
     1
 67
     7
176
     1
 79
     5
176
     1
170
     0
176
     1
171
     0
176
     1
290
     0
176
     1
 93
        1
176
     1
 44
0.0
176
     1
173
     0
176
     1
  0
VISUALSTYLE
  5
2B
102
{ACAD_REACTORS
330
2A
102
}
330
2A
100
AcDbVisualStyle
  2
Flat
 70
     0
177
     2
291
     1
 71
     2
176
     1
 72
     1
176
     1
 73
     1
176
     1
 90
        2
176
     1
 40
-0.6
176
     1
 41
30.0
176
     1
 62
     5
 63
     7
421
 16777215
176
     1
 74
     0
176
     1
 91
        4
176
     1
 64
     7
176
     1
 65
   257
176
     1
 75
     1
176
     1
175
     1
176
     1
 42
1.0
176
     1
 92
        8
176
     1
 66
     7
176
     1
 43
1.0
176
     1
 76
     1
176
     1
 77
     6
176
     1
 78
     2
176
     1
 67
     7
176
     1
 79
     5
176
     1
170
     0
176
     1
171
     0
176
     1
290
     0
176
     1
 93
       13
176
     1
 44
0.0
176
     1
173
     0
176
     1
  0
VISUALSTYLE
  5
2C
102
{ACAD_REACTORS
330
2A
102
}
330
2A
100
AcDbVisualStyle
  2
FlatWithEdges
 70
     1
177
     2
291
     1
 71
     2
176
     1
 72
     1
176
     1
 73
     1
176
     1
 90
        2
176
     1
 40
-0.6
176
     1
 41
30.0
176
     1
 62
     5
 63
     7
421
 16777215
176
     1
 74
     1
176
     1
 91
        4
176
     1
 64
     7
176
     1
 65
   257
176
     1
 75
     1
176
     1
175
     1
176
     1
 42
1.0
176
     1
 92
        0
176
     1
 66
   257
176
     1
 43
1.0
176
     1
 76
     1
176
     1
 77
     6
176
     1
 78
     2
176
     1
 67
     7
176
     1
 79
     5
176
     1
170
     0
176
     1
171
     0
176
     1
290
     0
176
     1
 93
       13
176
     1
 44
0.0
176
     1
173
     0
176
     1
  0
VISUALSTYLE
  5
2D
102
{ACAD_REACTORS
330
2A
102
}
330
2A
100
AcDbVisualStyle
  2
Gouraud
 70
     2
177
     2
291
     1
 71
     2
176
     1
 72
     2
176
     1
 73
     1
176
     1
 90
        2
176
     1
 40
-0.6
176
     1
 41
30.0
176
     1
 62
     5
 63
     7
421
 16777215
176
     1
 74
     0
176
     1
 91
        4
176
     1
 64
     7
176
     1
 65
   257
176
     1
 75
     1
176
     1
175
     1
176
     1
 42
1.0
176
     1
 92
        0
176
     1
 66
     7
176
     1
 43
1.0
176
     1
 76
     1
176
     1
 77
     6
176
     1
 78
     2
176
     1
 67
     7
176
     1
 79
     5
176
     1
170
     0
176
     1
171
     0
176
     1
290
     0
176
     1
 93
       13
176
     1
 44
0.0
176
     1
173
     0
176
     1
  0
VISUALSTYLE
  5
2E
102
{ACAD_REACTORS
330
2A
102
}
330
2A
100
AcDbVisualStyle
  2
GouraudWithEdges
 70
     3
177
     2
291
     1
 71
     2
176
     1
 72
     2
176
     1
 73
     1
176
     1
 90
        2
176
     1
 40
-0.6
176
     1
 41
30.0
176
     1
 62
     5
 63
     7
421
 16777215
176
     1
 74
     1
176
     1
 91
        4
176
     1
 64
     7
176
     1
 65
   257
176
     1
 75
     1
176
     1
175
     1
176
     1
 42
1.0
176
     1
 92
        0
176
     1
 66
   257
176
     1
 43
1.0
176
     1
 76
     1
176
     1
 77
     6
176
     1
 78
     2
176
     1
 67
     7
176
     1
 79
     5
176
     1
170
     0
176
     1
171
     0
176
     1
290
     0
176
     1
 93
       13
176
     1
 44
0.0
176
     1
173
     0
176
     1
  0
VISUALSTYLE
  5
38
102
{ACAD_REACTORS
330
2A
102
}
330
2A
100
AcDbVisualStyle
  2
Linepattern
 70
    14
177
     2
291
     1
 71
     2
176
     1
 72
     2
176
     1
 73
     0
176
     1
 90
        0
176
     1
 40
-0.6
176
     1
 41
-30.0
176
     1
 62
     5
 63
     7
421
 16777215
176
     1
 74
     1
176
     1
 91
        4
176
     1
 64
     7
176
     1
 65
   257
176
     1
 75
     7
176
     1
175
     7
176
     1
 42
1.0
176
     1
 92
        8
176
     1
 66
     7
176
     1
 43
1.0
176
     1
 76
     1
176
     1
 77
     6
176
     1
 78
     2
176
     1
 67
     7
176
     1
 79
     5
176
     1
170
     0
176
     1
171
     0
176
     1
290
     0
176
     1
 93
        1
176
     1
 44
0.0
176
     1
173
     0
176
     1
  0
VISUALSTYLE
  5
33
102
{ACAD_REACTORS
330
2A
102
}
330
2A
100
AcDbVisualStyle
  2
Realistic
 70
     8
177
     2
291
     0
 71
     2
176
     1
 72
     2
176
     1
 73
     0
176
     1
 90
        0
176
     1
 40
-0.6
176
     1
 41
-30.0
176
     1
 62
     5
 63
     7
421
 16777215
176
     1
 74
     1
176
     1
 91
        0
176
     1
 64
     7
176
     1
 65
   257
176
     1
 75
     1
176
     1
175
     1
176
     1
 42
1.0
176
     1
 92
        8
176
     1
 66
     8
424
  7895160
176
     1
 43
1.0
176
     1
 76
     1
176
     1
 77
     6
176
     1
 78
     2
176
     1
 67
     7
176
     1
 79
     5
176
     1
170
     0
176
     1
171
     0
176
     1
290
     0
176
     1
 93
       13
176
     1
 44
0.0
176
     1
173
     0
176
     1
  0
VISUALSTYLE
  5
37
102
{ACAD_REACTORS
330
2A
102
}
330
2A
100
AcDbVisualStyle
  2
Thicken
 70
    13
177
     2
291
     1
 71
     2
176
     1
 72
     2
176
     1
 73
     0
176
     1
 90
        0
176
     1
 40
-0.6
176
     1
 41
-30.0
176
     1
 62
     5
 63
     7
421
 16777215
176
     1
 74
     1
176
     1
 91
        4
176
     1
 64
     7
176
     1
 65
   257
176
     1
 75
     1
176
     1
175
     1
176
     1
 42
1.0
176
     1
 92
       12
176
     1
 66
     7
176
     1
 43
1.0
176
     1
 76
     1
176
     1
 77
     6
176
     1
 78
     2
176
     1
 67
     7
176
     1
 79
     5
176
     1
170
     0
176
     1
171
     0
176
     1
290
     0
176
     1
 93
        1
176
     1
 44
0.0
176
     1
173
     0
176
     1
  0
ENDSEC
  0
EOF
