<?xml version="1.0" encoding="utf-8"?>
<!-- Generator: Adobe Illustrator 25.0.0, SVG Export Plug-In . SVG Version: 6.00 Build 0)  -->
<svg version="1.1" id="Layer_1" xmlns="http://www.w3.org/2000/svg" xmlns:xlink="http://www.w3.org/1999/xlink" x="0px" y="0px"
	 width="1757.935px" height="2326.86px" viewBox="0 0 1757.935 2326.86" style="enable-background:new 0 0 1757.935 2326.86;"
	 xml:space="preserve">
<style type="text/css">
	.st0{fill:none;stroke:#000000;stroke-miterlimit:10;}
	.st1{fill:none;stroke:#F200FF;stroke-miterlimit:10;}
	.st2{fill:none;stroke:#000000;stroke-width:0.7773;stroke-miterlimit:10;}
</style>
<path class="st0" d="M1237.727,959.162l-81.977,274.795h147.789L1237.727,959.162z M1236.205,1014.636l49.078,204.922h-110.21
	L1236.205,1014.636z"/>
<path class="st0" d="M455.792,969.952l-81.977,274.795h147.789L455.792,969.952z M454.27,1025.425l49.078,204.922h-110.21
	L454.27,1025.425z"/>
<polygon class="st0" points="1549.58,1388.567 1400.625,867.65 1311.329,867.65 1311.329,892.85 1381.62,892.85 1530.577,1413.766 
	1590.678,1413.766 1590.678,1511.462 1264.814,1511.462 1264.814,1413.766 1326.228,1413.766 1295.395,1291.902 1104.848,1291.902 
	1072.546,1413.766 1160.171,1413.766 1160.171,1511.462 915.24,1511.462 915.24,1413.766 974.919,1413.766 1105.893,990.546 
	1009.091,990.546 1009.091,892.85 1146.977,892.85 1146.977,867.65 983.891,867.65 983.891,1015.745 1071.715,1015.745 
	956.339,1388.567 890.04,1388.567 890.04,1536.662 1185.37,1536.662 1185.37,1388.567 1105.296,1388.567 1124.237,1317.102 
	1275.776,1317.102 1293.858,1388.567 1239.615,1388.567 1239.615,1536.662 1615.88,1536.662 1615.88,1388.567 "/>
<g>
	<path class="st1" d="M920.459,2242.555V2094.46h66.298l115.376-372.821h-87.824v-148.096h416.733l148.956,520.917h66.299v148.095
		h-376.265V2094.46h54.244l-18.081-71.464h-151.539l-18.942,71.464h80.075v148.095H920.459z M1176.181,1921.394h110.21
		l-49.078-204.922L1176.181,1921.394z"/>
</g>
<path class="st2" d="M796.274,648.61L647.319,127.693H230.586v148.096h87.824L203.034,648.61h-66.298v148.095h17.526v15.12h258.185
	v-15.12h19.62V648.61h-80.075l18.942-71.464h151.539l18.081,71.464H486.31v148.095h64.172v15.12h258.185v-15.12h53.907V648.61
	H796.274z M392.459,475.545l61.132-204.923l49.078,204.923H392.459z"/>
<path class="st0" d="M835.797,391.312V517.82h771.044V391.312H835.797z M1133.855,431.886H875.67v-15.12h258.185V431.886z
	 M1529.799,431.886h-258.185v-15.12h258.185V431.886z"/>
<g>
	<path class="st0" d="M776.952,2094.459l-148.956-520.916H211.263v148.095h87.824l-115.376,372.821h-66.298v148.095h295.33v-148.095
		h-80.075l18.942-71.464h151.539l18.081,71.464h-54.244v148.095h376.265v-148.095L776.952,2094.459L776.952,2094.459z
		 M818.051,2217.354H492.187v-97.695H553.6l-30.833-121.864H332.219l-32.302,121.864h87.625v97.695H142.613v-97.695h59.679
		l130.974-423.221h-96.802v-97.695h372.528l148.956,520.916h60.103L818.051,2217.354L818.051,2217.354z"/>
	<path class="st0" d="M455.236,1671.07l-81.977,274.795h147.789L455.236,1671.07z M453.714,1726.543l49.078,204.922h-110.21
		L453.714,1726.543z"/>
</g>
<polygon class="st0" points="769.498,1388.567 620.542,867.65 531.247,867.65 531.247,892.85 601.538,892.85 750.494,1413.766 
	810.596,1413.766 810.596,1511.462 484.732,1511.462 484.732,1413.766 546.145,1413.766 515.312,1291.902 324.765,1291.902 
	292.463,1413.766 380.088,1413.766 380.088,1511.462 135.158,1511.462 135.158,1413.766 194.837,1413.766 325.811,990.546 
	229.009,990.546 229.009,892.85 366.894,892.85 366.894,867.65 203.809,867.65 203.809,1015.745 291.633,1015.745 176.256,1388.567 
	109.958,1388.567 109.958,1536.662 405.288,1536.662 405.288,1388.567 325.213,1388.567 344.155,1317.102 495.694,1317.102 
	513.775,1388.567 459.532,1388.567 459.532,1536.662 835.797,1536.662 835.797,1388.567 "/>
</svg>
