<?xml version="1.0" encoding="utf-8"?>
<!-- Generator: Adobe Illustrator 25.0.0, SVG Export Plug-In . SVG Version: 6.00 Build 0)  -->
<svg version="1.1" id="Layer_1" xmlns="http://www.w3.org/2000/svg" xmlns:xlink="http://www.w3.org/1999/xlink" x="0px" y="0px"
	 width="1368px" height="2309.2px" viewBox="0 0 1368 2309.2" style="enable-background:new 0 0 1368 2309.2;" xml:space="preserve"
	>
<style type="text/css">
	.st0{fill:none;stroke:#000000;stroke-width:0.75;stroke-miterlimit:10;}
	.st1{fill:none;stroke:#000000;stroke-width:0.871;stroke-miterlimit:10;}
	.st2{fill:none;stroke:#000000;stroke-width:0.7491;stroke-miterlimit:10;}
	.st3{fill:none;stroke:#FF00FF;stroke-width:2;stroke-miterlimit:10;}
</style>
<path class="st0" d="M417.7,1042.5c29.2-17.1,35.3-48.6,35.3-72.1c0-24-7.8-44.1-23.3-59.6c-15.5-15.5-35.5-23.3-59.6-23.3h-84.6
	v171.8h48.4C370.9,1059.3,398.3,1053.8,417.7,1042.5z M310.6,912.7h59.4c17.2,0,31.1,5.3,41.8,15.9c10.6,10.6,15.9,24.5,15.9,41.8
	c0,24.7-7.6,41.5-22.8,50.4c-15.2,8.9-38.9,13.3-71,13.3h-23.2L310.6,912.7L310.6,912.7z"/>
<path class="st0" d="M426.9,1141.1c-18.6-15.2-45.3-22.9-79.2-22.9c-12.8,0-25.6,0.3-38.2,0.9l-24,1.1v190.5h40.7
	c38.3,0,67.7-5.6,89.9-17c18.8-9.7,41.2-31.7,41.2-81.4C457.2,1181.5,447,1157.6,426.9,1141.1z M404.5,1271.3
	c-18.4,9.5-44.5,14.2-78.4,14.2h-15.5v-141.2c12.1-0.6,24.4-0.9,37-0.9c56.2,0,84.4,23,84.4,68.9
	C432,1242.2,422.9,1261.8,404.5,1271.3z"/>
<path class="st0" d="M631.6,1145.6c-18.7-26.7-47.5-48.4-86.5-65c29.8-10.9,54.4-28.7,73.6-53.4c19.2-24.7,28.8-53.7,28.8-87
	c0-47.6-11.3-84.4-34-110.2c-22.7-25.8-53.2-43.3-91.7-52.5c-15.9-3.8-33.3-6.8-52.3-9v25.4c16.8,2.1,32.4,4.8,46.4,8.1
	c33.6,8,59.3,22.6,78.6,44.6c18.4,21,27.7,52.5,27.7,93.6c0,27.8-7.7,51.2-23.5,71.5c-16.4,21.1-36.8,35.9-62.4,45.2l-59.8,21.8
	l58.6,25c34.5,14.7,59.9,33.6,75.8,56.3c15.5,22.3,23.4,54.3,23.4,95.3c0,48.5-18.3,84.8-55.9,111.1c-40,27.8-98.7,42-174.6,42H51.9
	v-97.7h80.9V887.5H63.1v-98.6h192.7v-25.2H37.9v149h69.7v372.8H26.7v148.1h377.1c81.5,0,144.5-15.5,189-46.5
	c44.5-31,66.7-74.9,66.7-131.7C659.5,1208.9,650.2,1172.3,631.6,1145.6z"/>
<path class="st0" d="M404,1737c29.2-17.1,35.3-48.6,35.3-72.1c0-24-7.8-44.1-23.3-59.6c-15.5-15.5-35.5-23.3-59.6-23.3h-84.6v171.8
	h48.4C357.3,1753.8,384.7,1748.3,404,1737z M297,1607.2h59.4c17.2,0,31.1,5.3,41.8,15.9c10.6,10.6,15.9,24.5,15.9,41.8
	c0,24.7-7.6,41.5-22.8,50.4c-15.2,8.9-38.9,13.3-71,13.3H297L297,1607.2L297,1607.2z"/>
<path class="st0" d="M413.2,1835.7c-18.6-15.2-45.3-22.9-79.2-22.9c-12.8,0-25.6,0.3-38.2,0.9l-24,1.1v190.5h40.7
	c38.3,0,67.7-5.6,89.9-17c18.8-9.7,41.2-31.7,41.2-81.4C443.6,1876.1,433.3,1852.1,413.2,1835.7z M390.8,1965.8
	c-18.4,9.5-44.5,14.2-78.4,14.2H297v-141.2c12.1-0.6,24.4-0.9,37-0.9c56.2,0,84.4,23,84.4,68.9
	C418.4,1936.7,409.2,1956.4,390.8,1965.8z"/>
<path class="st0" d="M617.9,1840.1c-18.7-26.7-47.5-48.4-86.5-65c29.8-10.9,54.4-28.7,73.6-53.4c19.2-24.7,28.8-53.7,28.8-87
	c0-47.6-11.3-84.4-34-110.2c-22.7-25.8-53.2-43.3-91.7-52.5c-38.5-9.2-85.8-13.8-142.1-13.8H24.2v149h69.7v372.8H13v148.1h377.1
	c81.5,0,144.5-15.5,189-46.5c44.5-31,66.7-74.9,66.7-131.7C645.9,1903.4,636.5,1866.8,617.9,1840.1z M564.7,2061
	c-40,27.8-98.7,42-174.6,42H38.2v-97.7h80.9V1582H49.4v-98.6H366c54,0,99.8,4.4,136.2,13.1c33.6,8,59.3,22.6,78.6,44.6
	c18.4,21,27.7,52.5,27.7,93.6c0,27.8-7.7,51.2-23.5,71.5c-16.4,21.1-36.8,35.9-62.4,45.2l-59.8,21.8l58.6,25
	c34.5,14.7,59.9,33.6,75.8,56.3c15.5,22.3,23.4,54.3,23.4,95.3C620.7,1998.4,602.4,2034.7,564.7,2061z"/>
<path class="st1" d="M44.5,2148.5V2275h584.9v-126.5H44.5z M438.2,2190.1H180V2175h258.2L438.2,2190.1L438.2,2190.1z"/>
<path class="st2" d="M621.3,432.1c-18.7-26.7-47.5-48.4-86.5-65c29.8-10.9,54.4-28.7,73.6-53.4c19.2-24.7,28.8-53.7,28.8-87
	c0-47.6-11.3-84.4-34-110.2C580.5,90.7,550,73.2,511.5,64c-38.5-9.2-85.8-13.8-142.1-13.8H27.6v149h69.7V572H16.4v148.1h115.3v15.1
	h258.2v-15.1h3.6c81.5,0,144.5-15.5,189-46.5c44.5-31,66.7-74.9,66.7-131.7C649.3,495.4,639.9,458.8,621.3,432.1z M300.4,199.2h59.4
	c17.2,0,31.1,5.3,41.8,15.9c10.6,10.6,15.9,24.5,15.9,41.8c0,24.7-7.6,41.5-22.8,50.4c-15.2,8.9-38.9,13.3-71,13.3h-23.2V199.2z
	 M394.2,550c-18.4,9.5-44.5,14.2-78.4,14.2h-15.5V423c12.1-0.6,24.4-0.9,37-0.9c56.2,0,84.4,23,84.4,68.9
	C421.8,520.9,412.6,540.6,394.2,550z"/>
<path class="st3" d="M1298.9,1846.6c-18.7-26.7-47.5-48.4-86.5-65c29.8-10.9,54.4-28.7,73.6-53.4c19.2-24.7,28.8-53.7,28.8-87
	c0-47.6-11.3-84.4-34-110.2c-22.7-25.8-53.2-43.3-91.7-52.5c-38.5-9.2-85.8-13.8-142.1-13.8H705.2v149H775v372.8H694v148.1h377.1
	c81.5,0,144.5-15.5,189-46.5c44.5-31,66.7-74.9,66.7-131.7C1326.9,1909.9,1317.5,1873.3,1298.9,1846.6z M978,1613.7h59.4
	c17.2,0,31.1,5.3,41.8,15.9c10.6,10.6,15.9,24.5,15.9,41.8c0,24.7-7.6,41.5-22.8,50.4c-15.2,8.9-38.9,13.3-71,13.3H978L978,1613.7
	L978,1613.7z M1071.8,1963.7c-18.4,9.5-44.5,14.2-78.4,14.2H978v-141.2c12.1-0.6,24.4-0.9,37-0.9c56.2,0,84.4,23,84.4,68.9
	C1099.4,1934.6,1090.2,1954.2,1071.8,1963.7z"/>
<g>
	<path class="st0" d="M1075,1054.2c29.2-17.1,35.3-48.6,35.3-72.1c0-24-7.8-44.1-23.3-59.6c-15.5-15.5-35.5-23.3-59.6-23.3h-84.6
		V1071h48.4C1028.3,1071,1055.7,1065.5,1075,1054.2z M968,924.4h59.4c17.2,0,31.1,5.3,41.8,15.9c10.6,10.6,15.9,24.5,15.9,41.8
		c0,24.7-7.6,41.5-22.8,50.4c-15.2,8.9-38.9,13.3-71,13.3H968L968,924.4L968,924.4z"/>
	<path class="st0" d="M1084.2,1152.8c-18.6-15.2-45.3-22.9-79.2-22.9c-12.8,0-25.6,0.3-38.2,0.9l-24,1.1v190.5h40.7
		c38.3,0,67.7-5.6,89.9-17c18.8-9.7,41.2-31.7,41.2-81.4C1114.6,1193.2,1104.3,1169.2,1084.2,1152.8z M1061.8,1283
		c-18.4,9.5-44.5,14.2-78.4,14.2H968V1156c12.1-0.6,24.4-0.9,37-0.9c56.2,0,84.4,23,84.4,68.9
		C1089.4,1253.8,1080.2,1273.5,1061.8,1283z"/>
	<path class="st0" d="M1288.9,1157.3c-18.7-26.7-47.5-48.4-86.5-65c29.8-10.9,54.4-28.7,73.6-53.4c19.2-24.7,28.8-53.7,28.8-87
		c0-47.6-11.3-84.4-34-110.2c-22.7-25.8-53.2-43.3-91.7-52.5c-15.9-3.8-33.3-6.8-52.3-9v25.4c16.8,2.1,32.4,4.8,46.4,8.1
		c33.6,8,59.3,22.6,78.6,44.6c18.4,21,27.7,52.5,27.7,93.6c0,27.8-7.7,51.2-23.5,71.5c-16.4,21.1-36.8,35.9-62.4,45.2l-59.8,21.8
		l58.6,25c34.5,14.7,59.9,33.6,75.8,56.3c15.5,22.3,23.4,54.3,23.4,95.3c0,48.5-18.3,84.8-55.9,111.1c-40,27.8-98.7,42-174.6,42
		H709.2v-97.7h80.9V899.2h-69.7v-98.6H913v-25.2H695.2v149h69.7v372.8H684v148.1h377.1c81.5,0,144.5-15.5,189-46.5
		c44.5-31,66.7-74.9,66.7-131.7C1316.8,1220.5,1307.5,1183.9,1288.9,1157.3z"/>
</g>
</svg>
