  0
SECTION
  2
HEADER
  9
$ACADVER
  1
AC1024
  9
$ACADMAINTVER
 70
     6
  9
$DWGCODEPAGE
  3
UNDEFINED
  9
$INSBASE
 10
0.0
 20
0.0
 30
0.0
  9
$EXTMIN
 10
1.000000000000000E+20
 20
1.000000000000000E+20
 30
1.000000000000000E+20
  9
$EXTMAX
 10
-1.000000000000000E+20
 20
-1.000000000000000E+20
 30
-1.000000000000000E+20
  9
$LIMMIN
 10
0.0
 20
0.0
  9
$LIMMAX
 10
12.0
 20
9.0
  9
$ORTHOMODE
 70
     0
  9
$REGENMODE
 70
     1
  9
$FILLMODE
 70
     1
  9
$QTEXTMODE
 70
     0
  9
$MIRRTEXT
 70
     1
  9
$LTSCALE
 40
1.0
  9
$ATTMODE
 70
     1
  9
$TEXTSIZE
 40
0.2
  9
$TRACEWID
 40
0.05
  9
$TEXTSTYLE
  7
Standard
  9
$CLAYER
  8
0
  9
$CELTYPE
  6
ByLayer
  9
$CECOLOR
 62
   256
  9
$CELTSCALE
 40
1.0
  9
$DISPSILH
 70
     0
  9
$DIMSCALE
 40
1.0
  9
$DIMASZ
 40
0.18
  9
$DIMEXO
 40
0.0625
  9
$DIMDLI
 40
0.38
  9
$DIMRND
 40
0.0
  9
$DIMDLE
 40
0.0
  9
$DIMEXE
 40
0.18
  9
$DIMTP
 40
0.0
  9
$DIMTM
 40
0.0
  9
$DIMTXT
 40
0.18
  9
$DIMCEN
 40
0.09
  9
$DIMTSZ
 40
0.0
  9
$DIMTOL
 70
     0
  9
$DIMLIM
 70
     0
  9
$DIMTIH
 70
     1
  9
$DIMTOH
 70
     1
  9
$DIMSE1
 70
     0
  9
$DIMSE2
 70
     0
  9
$DIMTAD
 70
     0
  9
$DIMZIN
 70
     0
  9
$DIMBLK
  1

  9
$DIMASO
 70
     1
  9
$DIMSHO
 70
     1
  9
$DIMPOST
  1

  9
$DIMAPOST
  1

  9
$DIMALT
 70
     0
  9
$DIMALTD
 70
     2
  9
$DIMALTF
 40
25.4
  9
$DIMLFAC
 40
1.0
  9
$DIMTOFL
 70
     0
  9
$DIMTVP
 40
0.0
  9
$DIMTIX
 70
     0
  9
$DIMSOXD
 70
     0
  9
$DIMSAH
 70
     0
  9
$DIMBLK1
  1

  9
$DIMBLK2
  1

  9
$DIMSTYLE
  2
Standard
  9
$DIMCLRD
 70
     0
  9
$DIMCLRE
 70
     0
  9
$DIMCLRT
 70
     0
  9
$DIMTFAC
 40
1.0
  9
$DIMGAP
 40
0.09
  9
$DIMJUST
 70
     0
  9
$DIMSD1
 70
     0
  9
$DIMSD2
 70
     0
  9
$DIMTOLJ
 70
     1
  9
$DIMTZIN
 70
     0
  9
$DIMALTZ
 70
     0
  9
$DIMALTTZ
 70
     0
  9
$DIMUPT
 70
     0
  9
$DIMDEC
 70
     4
  9
$DIMTDEC
 70
     4
  9
$DIMALTU
 70
     2
  9
$DIMALTTD
 70
     2
  9
$DIMTXSTY
  7
Standard
  9
$DIMAUNIT
 70
     0
  9
$DIMADEC
 70
     0
  9
$DIMALTRND
 40
0.0
  9
$DIMAZIN
 70
     0
  9
$DIMDSEP
 70
    46
  9
$DIMATFIT
 70
     3
  9
$DIMFRAC
 70
     0
  9
$DIMLDRBLK
  1

  9
$DIMLUNIT
 70
     2
  9
$DIMLWD
 70
    -2
  9
$DIMLWE
 70
    -2
  9
$DIMTMOVE
 70
     0
  9
$DIMFXL
 40
1.0
  9
$DIMFXLON
 70
     0
  9
$DIMJOGANG
 40
0.7853981633974483
  9
$DIMTFILL
 70
     0
  9
$DIMTFILLCLR
 70
     0
  9
$DIMARCSYM
 70
     0
  9
$DIMLTYPE
  6

  9
$DIMLTEX1
  6

  9
$DIMLTEX2
  6

  9
$DIMTXTDIRECTION
 70
     0
  9
$LUNITS
 70
     2
  9
$LUPREC
 70
     4
  9
$SKETCHINC
 40
0.1
  9
$FILLETRAD
 40
0.5
  9
$AUNITS
 70
     0
  9
$AUPREC
 70
     0
  9
$MENU
  1
.
  9
$ELEVATION
 40
0.0
  9
$PELEVATION
 40
0.0
  9
$THICKNESS
 40
0.0
  9
$LIMCHECK
 70
     0
  9
$CHAMFERA
 40
0.5
  9
$CHAMFERB
 40
0.5
  9
$CHAMFERC
 40
1.0
  9
$CHAMFERD
 40
0.0
  9
$SKPOLY
 70
     0
  9
$TDCREATE
 40
2459306.407743044
  9
$TDUCREATE
 40
2459306.657743055
  9
$TDUPDATE
 40
2459306.407743044
  9
$TDUUPDATE
 40
2459306.657743055
  9
$TDINDWG
 40
0.0000000116
  9
$TDUSRTIMER
 40
0.0000000116
  9
$USRTIMER
 70
     1
  9
$ANGBASE
 50
0.0
  9
$ANGDIR
 70
     0
  9
$PDMODE
 70
     0
  9
$PDSIZE
 40
0.0
  9
$PLINEWID
 40
0.0
  9
$SPLFRAME
 70
     0
  9
$SPLINETYPE
 70
     6
  9
$SPLINESEGS
 70
     8
  9
$HANDSEED
  5
78
  9
$SURFTAB1
 70
     6
  9
$SURFTAB2
 70
     6
  9
$SURFTYPE
 70
     6
  9
$SURFU
 70
     6
  9
$SURFV
 70
     6
  9
$UCSBASE
  2

  9
$UCSNAME
  2

  9
$UCSORG
 10
0.0
 20
0.0
 30
0.0
  9
$UCSXDIR
 10
1.0
 20
0.0
 30
0.0
  9
$UCSYDIR
 10
0.0
 20
1.0
 30
0.0
  9
$UCSORTHOREF
  2

  9
$UCSORTHOVIEW
 70
     0
  9
$UCSORGTOP
 10
0.0
 20
0.0
 30
0.0
  9
$UCSORGBOTTOM
 10
0.0
 20
0.0
 30
0.0
  9
$UCSORGLEFT
 10
0.0
 20
0.0
 30
0.0
  9
$UCSORGRIGHT
 10
0.0
 20
0.0
 30
0.0
  9
$UCSORGFRONT
 10
0.0
 20
0.0
 30
0.0
  9
$UCSORGBACK
 10
0.0
 20
0.0
 30
0.0
  9
$PUCSBASE
  2

  9
$PUCSNAME
  2

  9
$PUCSORG
 10
0.0
 20
0.0
 30
0.0
  9
$PUCSXDIR
 10
1.0
 20
0.0
 30
0.0
  9
$PUCSYDIR
 10
0.0
 20
1.0
 30
0.0
  9
$PUCSORTHOREF
  2

  9
$PUCSORTHOVIEW
 70
     0
  9
$PUCSORGTOP
 10
0.0
 20
0.0
 30
0.0
  9
$PUCSORGBOTTOM
 10
0.0
 20
0.0
 30
0.0
  9
$PUCSORGLEFT
 10
0.0
 20
0.0
 30
0.0
  9
$PUCSORGRIGHT
 10
0.0
 20
0.0
 30
0.0
  9
$PUCSORGFRONT
 10
0.0
 20
0.0
 30
0.0
  9
$PUCSORGBACK
 10
0.0
 20
0.0
 30
0.0
  9
$USERI1
 70
     0
  9
$USERI2
 70
     0
  9
$USERI3
 70
     0
  9
$USERI4
 70
     0
  9
$USERI5
 70
     0
  9
$USERR1
 40
0.0
  9
$USERR2
 40
0.0
  9
$USERR3
 40
0.0
  9
$USERR4
 40
0.0
  9
$USERR5
 40
0.0
  9
$WORLDVIEW
 70
     1
  9
$SHADEDGE
 70
     3
  9
$SHADEDIF
 70
    70
  9
$TILEMODE
 70
     1
  9
$MAXACTVP
 70
    64
  9
$PINSBASE
 10
0.0
 20
0.0
 30
0.0
  9
$PLIMCHECK
 70
     0
  9
$PEXTMIN
 10
1.000000000000000E+20
 20
1.000000000000000E+20
 30
1.000000000000000E+20
  9
$PEXTMAX
 10
-1.000000000000000E+20
 20
-1.000000000000000E+20
 30
-1.000000000000000E+20
  9
$PLIMMIN
 10
0.0
 20
0.0
  9
$PLIMMAX
 10
12.0
 20
9.0
  9
$UNITMODE
 70
     0
  9
$VISRETAIN
 70
     1
  9
$PLINEGEN
 70
     0
  9
$PSLTSCALE
 70
     1
  9
$TREEDEPTH
 70
  3020
  9
$CMLSTYLE
  2
Standard
  9
$CMLJUST
 70
     0
  9
$CMLSCALE
 40
1.0
  9
$PROXYGRAPHICS
 70
     1
  9
$MEASUREMENT
 70
     0
  9
$CELWEIGHT
370
    -1
  9
$ENDCAPS
280
     0
  9
$JOINSTYLE
280
     0
  9
$LWDISPLAY
290
     1
  9
$INSUNITS
 70
     1
  9
$HYPERLINKBASE
  1

  9
$STYLESHEET
  1

  9
$XEDIT
290
     1
  9
$CEPSNTYPE
380
     0
  9
$PSTYLEMODE
290
     1
  9
$FINGERPRINTGUID
  2
{F88C678F-6F5D-C114-E85A-CFAE44300800}
  9
$VERSIONGUID
  2
{FAEB1C32-E019-11D5-929B-00C0DF256EC4}
  9
$EXTNAMES
290
     1
  9
$PSVPSCALE
 40
0.0
  9
$OLESTARTUP
290
     0
  9
$SORTENTS
280
   127
  9
$INDEXCTL
280
     0
  9
$HIDETEXT
280
     1
  9
$XCLIPFRAME
280
     2
  9
$HALOGAP
280
     0
  9
$OBSCOLOR
 70
   257
  9
$OBSLTYPE
280
     0
  9
$INTERSECTIONDISPLAY
280
     0
  9
$INTERSECTIONCOLOR
 70
   257
  9
$DIMASSOC
280
     2
  9
$PROJECTNAME
  1

  9
$CAMERADISPLAY
290
     0
  9
$LENSLENGTH
 40
50.0
  9
$CAMERAHEIGHT
 40
0.0
  9
$STEPSPERSEC
 40
2.0
  9
$STEPSIZE
 40
6.0
  9
$3DDWFPREC
 40
2.0
  9
$PSOLWIDTH
 40
0.25
  9
$PSOLHEIGHT
 40
4.0
  9
$LOFTANG1
 40
1.570796326794897
  9
$LOFTANG2
 40
1.570796326794897
  9
$LOFTMAG1
 40
0.0
  9
$LOFTMAG2
 40
0.0
  9
$LOFTPARAM
 70
     7
  9
$LOFTNORMALS
280
     1
  9
$LATITUDE
 40
37.795
  9
$LONGITUDE
 40
-122.394
  9
$NORTHDIRECTION
 40
0.0
  9
$TIMEZONE
 70
 -8000
  9
$LIGHTGLYPHDISPLAY
280
     1
  9
$TILEMODELIGHTSYNCH
280
     1
  9
$CMATERIAL
347
3C
  9
$SOLIDHIST
280
     1
  9
$SHOWHIST
280
     1
  9
$DWFFRAME
280
     2
  9
$DGNFRAME
280
     2
  9
$REALWORLDSCALE
290
     1
  9
$INTERFERECOLOR
 62
   256
  9
$CSHADOW
280
     0
  9
$SHADOWPLANELOCATION
 40
0.0
  0
ENDSEC
  0
SECTION
  2
CLASSES
  0
CLASS
  1
ACDBDICTIONARYWDFLT
  2
AcDbDictionaryWithDefault
  3
ObjectDBX Classes
 90
        0
 91
        4
280
     0
281
     0
  0
CLASS
  1
VISUALSTYLE
  2
AcDbVisualStyle
  3
ObjectDBX Classes
 90
     4095
 91
        4
280
     0
281
     0
  0
CLASS
  1
MATERIAL
  2
AcDbMaterial
  3
ObjectDBX Classes
 90
     1153
 91
        4
280
     0
281
     0
  0
CLASS
  1
SUN
  2
AcDbSun
  3
SCENEOE
 90
     1024
 91
        4
280
     0
281
     0
  0
ENDSEC
  0
SECTION
  2
TABLES
  0
TABLE
  2
VPORT
  5
8
330
0
100
AcDbSymbolTable
 70
     1
  0
VPORT
  5
29
330
8
100
AcDbSymbolTableRecord
100
AcDbViewportTableRecord
  2
*Active
 70
     0
 10
0.0
 20
0.0
 11
1.0
 21
1.0
 12
0.0
 22
0.0
 13
0.0
 23
0.0
 14
0.5
 24
0.5
 15
0.5
 25
0.5
 16
0.0
 26
0.0
 36
1.0
 17
10.88368733723958
 27
16.15875074598524
 37
0.0
 40
32.31750149197048
 41
0.6735475723544849
 42
50.0
 43
0.0
 44
0.0
 50
0.0
 51
0.0
 71
     0
 72
   100
 73
     1
 74
     3
 75
     0
 76
     0
 77
     0
 78
     0
281
     0
 65
     1
110
0.0
120
0.0
130
0.0
111
1.0
121
0.0
131
0.0
112
0.0
122
1.0
132
0.0
 79
     0
146
0.0
 60
     3
 61
     5
292
     1
282
     1
141
0.0
142
0.0
 63
   250
361
3F
  0
ENDTAB
  0
TABLE
  2
LTYPE
  5
5
330
0
100
AcDbSymbolTable
 70
     1
  0
LTYPE
  5
14
330
5
100
AcDbSymbolTableRecord
100
AcDbLinetypeTableRecord
  2
ByBlock
 70
     0
  3

 72
    65
 73
     0
 40
0.0
  0
LTYPE
  5
15
330
5
100
AcDbSymbolTableRecord
100
AcDbLinetypeTableRecord
  2
ByLayer
 70
     0
  3

 72
    65
 73
     0
 40
0.0
  0
LTYPE
  5
16
330
5
100
AcDbSymbolTableRecord
100
AcDbLinetypeTableRecord
  2
Continuous
 70
     0
  3
Solid line
 72
    65
 73
     0
 40
0.0
  0
ENDTAB
  0
TABLE
  2
LAYER
  5
2
330
0
100
AcDbSymbolTable
 70
     2
  0
LAYER
  5
10
330
2
100
AcDbSymbolTableRecord
100
AcDbLayerTableRecord
  2
0
 70
     0
 62
     7
  6
Continuous
370
    -3
390
F
347
3E
  0
LAYER
  5
40
330
2
100
AcDbSymbolTableRecord
100
AcDbLayerTableRecord
  2
Layer 1
 70
     0
 62
     7
  6
Continuous
370
    -3
390
F
347
3E
  0
ENDTAB
  0
TABLE
  2
STYLE
  5
3
330
0
100
AcDbSymbolTable
 70
     1
  0
STYLE
  5
11
330
3
100
AcDbSymbolTableRecord
100
AcDbTextStyleTableRecord
  2
Standard
 70
     0
 40
0.0
 41
1.0
 50
0.0
 71
     0
 42
0.2
  3
txt
  4

  0
ENDTAB
  0
TABLE
  2
VIEW
  5
6
330
0
100
AcDbSymbolTable
 70
     0
  0
ENDTAB
  0
TABLE
  2
UCS
  5
7
330
0
100
AcDbSymbolTable
 70
     0
  0
ENDTAB
  0
TABLE
  2
APPID
  5
9
330
0
100
AcDbSymbolTable
 70
     1
  0
APPID
  5
12
330
9
100
AcDbSymbolTableRecord
100
AcDbRegAppTableRecord
  2
ACAD
 70
     0
  0
ENDTAB
  0
TABLE
  2
DIMSTYLE
  5
A
330
0
100
AcDbSymbolTable
 70
     1
100
AcDbDimStyleTable
  0
DIMSTYLE
105
27
330
A
100
AcDbSymbolTableRecord
100
AcDbDimStyleTableRecord
  2
Standard
 70
     0
178
     0
340
11
  0
ENDTAB
  0
TABLE
  2
BLOCK_RECORD
  5
1
330
0
100
AcDbSymbolTable
 70
     5
  0
BLOCK_RECORD
  5
1F
330
1
100
AcDbSymbolTableRecord
100
AcDbBlockTableRecord
  2
*Model_Space
340
22
 70
     0
280
     1
281
     0
  0
BLOCK_RECORD
  5
1B
330
1
100
AcDbSymbolTableRecord
100
AcDbBlockTableRecord
  2
*Paper_Space
340
1E
 70
     0
280
     1
281
     0
  0
BLOCK_RECORD
  5
23
330
1
100
AcDbSymbolTableRecord
100
AcDbBlockTableRecord
  2
*Paper_Space0
340
26
 70
     0
280
     1
281
     0
  0
BLOCK_RECORD
  5
58
330
1
100
AcDbSymbolTableRecord
100
AcDbBlockTableRecord
  2
block 2
340
0
102
{BLKREFS
331
59
102
}
 70
     0
280
     1
281
     0
  0
BLOCK_RECORD
  5
60
330
1
100
AcDbSymbolTableRecord
100
AcDbBlockTableRecord
  2
block 3
340
0
102
{BLKREFS
331
61
102
}
 70
     0
280
     1
281
     0
  0
BLOCK_RECORD
  5
66
330
1
100
AcDbSymbolTableRecord
100
AcDbBlockTableRecord
  2
block 4
340
0
102
{BLKREFS
331
67
102
}
 70
     0
280
     1
281
     0
  0
BLOCK_RECORD
  5
6D
330
1
100
AcDbSymbolTableRecord
100
AcDbBlockTableRecord
  2
block 5
340
0
102
{BLKREFS
331
6E
102
}
 70
     0
280
     1
281
     0
  0
ENDTAB
  0
ENDSEC
  0
SECTION
  2
BLOCKS
  0
BLOCK
  5
20
330
1F
100
AcDbEntity
  8
0
100
AcDbBlockBegin
  2
*Model_Space
 70
     0
 10
0.0
 20
0.0
 30
0.0
  3
*Model_Space
  1

  0
ENDBLK
  5
21
330
1F
100
AcDbEntity
  8
0
100
AcDbBlockEnd
  0
BLOCK
  5
1C
330
1B
100
AcDbEntity
 67
     1
  8
0
100
AcDbBlockBegin
  2
*Paper_Space
 70
     0
 10
0.0
 20
0.0
 30
0.0
  3
*Paper_Space
  1

  0
ENDBLK
  5
1D
330
1B
100
AcDbEntity
 67
     1
  8
0
100
AcDbBlockEnd
  0
BLOCK
  5
24
330
23
100
AcDbEntity
  8
0
100
AcDbBlockBegin
  2
*Paper_Space0
 70
     0
 10
0.0
 20
0.0
 30
0.0
  3
*Paper_Space0
  1

  0
ENDBLK
  5
25
330
23
100
AcDbEntity
  8
0
100
AcDbBlockEnd
  0
BLOCK
  5
5A
330
58
100
AcDbEntity
  8
0
100
AcDbBlockBegin
  2
block 2
 70
     0
 10
0.0
 20
0.0
 30
0.0
  3
block 2
  1

  0
SPLINE
  5
5C
330
58
100
AcDbEntity
  8
Layer 1
 62
     7
420
 16777215
370
    70
100
AcDbSpline
210
0.0
220
0.0
230
1.0
 70
    11
 71
     3
 72
    26
 73
    22
 74
     0
 42
0.0000000001
 43
0.0000000001
 12
1.0
 22
0.0
 32
0.0
 13
1.0
 23
0.0
 33
0.0
 40
0.0
 40
0.0
 40
0.0
 40
0.0
 40
1.0
 40
1.0
 40
1.0
 40
2.0
 40
2.0
 40
2.0
 40
3.0
 40
3.0
 40
3.0
 40
4.0
 40
4.0
 40
4.0
 40
5.0
 40
5.0
 40
5.0
 40
6.0
 40
6.0
 40
6.0
 40
7.0
 40
7.0
 40
7.0
 40
7.0
 10
6.443386501736111
 20
8.156951904296875
 30
0.0
 10
6.167507595486111
 20
8.365013970269096
 30
0.0
 10
5.816948784722222
 20
8.47041490342882
 30
0.0
 10
5.401156955295138
 20
8.47041490342882
 30
0.0
 10
5.401156955295138
 20
8.47041490342882
 30
0.0
 10
4.116814507378472
 20
8.47041490342882
 30
0.0
 10
4.116814507378472
 20
8.47041490342882
 30
0.0
 10
4.116814507378472
 20
8.47041490342882
 30
0.0
 10
4.116814507378472
 20
5.816782633463541
 30
0.0
 10
4.116814507378472
 20
5.816782633463541
 30
0.0
 10
4.116814507378472
 20
5.816782633463541
 30
0.0
 10
5.279805501302083
 20
5.816782633463541
 30
0.0
 10
5.279805501302083
 20
5.816782633463541
 30
0.0
 10
5.789408365885416
 20
5.816782633463541
 30
0.0
 10
6.170518663194444
 20
5.914248996310763
 30
0.0
 10
6.444912380642361
 20
6.11472913953993
 30
0.0
 10
6.749471028645833
 20
6.337181939019096
 30
0.0
 10
6.903923882378471
 20
6.705807156032986
 30
0.0
 10
6.903923882378471
 20
7.210337320963541
 30
0.0
 10
6.903923882378471
 20
7.60191175672743
 30
0.0
 10
6.744669596354166
 20
7.929250081380208
 30
0.0
 10
6.443386501736111
 20
8.156951904296875
 30
0.0
  0
SPLINE
  5
5D
330
58
100
AcDbEntity
  8
Layer 1
 62
     7
420
 16777215
370
    70
100
AcDbSpline
210
0.0
220
0.0
230
1.0
 70
    11
 71
     3
 72
    26
 73
    22
 74
     0
 42
0.0000000001
 43
0.0000000001
 12
1.0
 22
0.0
 32
0.0
 13
1.0
 23
0.0
 33
0.0
 40
0.0
 40
0.0
 40
0.0
 40
0.0
 40
1.0
 40
1.0
 40
1.0
 40
2.0
 40
2.0
 40
2.0
 40
3.0
 40
3.0
 40
3.0
 40
4.0
 40
4.0
 40
4.0
 40
5.0
 40
5.0
 40
5.0
 40
6.0
 40
6.0
 40
6.0
 40
7.0
 40
7.0
 40
7.0
 40
7.0
 10
6.238424513075087
 20
6.397333780924479
 30
0.0
 10
6.027975294325087
 20
6.243572658962673
 30
0.0
 10
5.708490159776475
 20
6.166783650716146
 30
0.0
 10
5.279806349012587
 20
6.166783650716146
 30
0.0
 10
5.279806349012587
 20
6.166783650716146
 30
0.0
 10
4.466818067762587
 20
6.166783650716146
 30
0.0
 10
4.466818067762587
 20
6.166783650716146
 30
0.0
 10
4.466818067762587
 20
6.166783650716146
 30
0.0
 10
4.466818067762587
 20
8.120410495334202
 30
0.0
 10
4.466818067762587
 20
8.120410495334202
 30
0.0
 10
4.466818067762587
 20
8.120410495334202
 30
0.0
 10
5.401157803005642
 20
8.120410495334202
 30
0.0
 10
5.401157803005642
 20
8.120410495334202
 30
0.0
 10
5.740920172797309
 20
8.120410495334202
 30
0.0
 10
6.01792483859592
 20
8.039457533094618
 30
0.0
 10
6.232361687554253
 20
7.877727932400173
 30
0.0
 10
6.446608649359809
 20
7.715808444552951
 30
0.0
 10
6.553922017415364
 20
7.493409898546006
 30
0.0
 10
6.553922017415364
 20
7.210335625542534
 30
0.0
 10
6.553922017415364
 20
6.822036743164062
 30
0.0
 10
6.448697408040364
 20
6.550911797417534
 30
0.0
 10
6.238424513075087
 20
6.397333780924479
 30
0.0
  0
SPLINE
  5
5E
330
58
100
AcDbEntity
  8
Layer 1
 62
     7
420
 16777215
370
    70
100
AcDbSpline
210
0.0
220
0.0
230
1.0
 70
    11
 71
     3
 72
    83
 73
    79
 74
     0
 42
0.0000000001
 43
0.0000000001
 12
1.0
 22
0.0
 32
0.0
 13
1.0
 23
0.0
 33
0.0
 40
0.0
 40
0.0
 40
0.0
 40
0.0
 40
1.0
 40
1.0
 40
1.0
 40
2.0
 40
2.0
 40
2.0
 40
3.0
 40
3.0
 40
3.0
 40
4.0
 40
4.0
 40
4.0
 40
5.0
 40
5.0
 40
5.0
 40
6.0
 40
6.0
 40
6.0
 40
7.0
 40
7.0
 40
7.0
 40
8.0
 40
8.0
 40
8.0
 40
9.0
 40
9.0
 40
9.0
 40
10.0
 40
10.0
 40
10.0
 40
11.0
 40
11.0
 40
11.0
 40
12.0
 40
12.0
 40
12.0
 40
13.0
 40
13.0
 40
13.0
 40
14.0
 40
14.0
 40
14.0
 40
15.0
 40
15.0
 40
15.0
 40
16.0
 40
16.0
 40
16.0
 40
17.0
 40
17.0
 40
17.0
 40
18.0
 40
18.0
 40
18.0
 40
19.0
 40
19.0
 40
19.0
 40
20.0
 40
20.0
 40
20.0
 40
21.0
 40
21.0
 40
21.0
 40
22.0
 40
22.0
 40
22.0
 40
23.0
 40
23.0
 40
23.0
 40
24.0
 40
24.0
 40
24.0
 40
25.0
 40
25.0
 40
25.0
 40
26.0
 40
26.0
 40
26.0
 40
26.0
 10
9.017192416720919
 20
2.902643839518229
 30
0.0
 10
9.017192416720919
 20
2.902643839518229
 30
0.0
 10
9.017192416720919
 20
3.667102389865451
 30
0.0
 10
9.017192416720919
 20
3.667102389865451
 30
0.0
 10
9.017192416720919
 20
4.168594360351562
 30
0.0
 10
8.891677008734808
 20
4.587227715386285
 30
0.0
 10
8.641025967068142
 20
4.923016018337673
 30
0.0
 10
8.390185038248697
 20
5.258600870768229
 30
0.0
 10
7.981602138943142
 20
5.470948961046006
 30
0.0
 10
7.415453592936197
 20
5.560060289171006
 30
0.0
 10
8.046448601616753
 20
5.673260158962673
 30
0.0
 10
8.533712599012587
 20
5.895658704969618
 30
0.0
 10
8.877638922797308
 20
6.227452596028646
 30
0.0
 10
9.221388922797308
 20
6.559063381618923
 30
0.0
 10
9.393358866373697
 20
7.032302856445312
 30
0.0
 10
9.393358866373697
 20
7.647171020507812
 30
0.0
 10
9.393358866373697
 20
8.561226738823784
 30
0.0
 10
9.162795172797308
 20
9.216486612955729
 30
0.0
 10
8.701694912380642
 20
9.61293707953559
 30
0.0
 10
8.240594651963976
 20
10.00919765896267
 30
0.0
 10
7.52048831515842
 20
10.20752122667101
 30
0.0
 10
6.541782803005642
 20
10.20752122667101
 30
0.0
 10
6.541782803005642
 20
10.20752122667101
 30
0.0
 10
0.4867426554361979
 20
10.20752122667101
 30
0.0
 10
0.4867426554361979
 20
10.20752122667101
 30
0.0
 10
0.4867426554361979
 20
10.20752122667101
 30
0.0
 10
0.4867426554361979
 20
8.120410495334202
 30
0.0
 10
0.4867426554361979
 20
8.120410495334202
 30
0.0
 10
0.4867426554361979
 20
8.120410495334202
 30
0.0
 10
1.433221605088976
 20
8.120410495334202
 30
0.0
 10
1.433221605088976
 20
8.120410495334202
 30
0.0
 10
1.433221605088976
 20
8.120410495334202
 30
0.0
 10
1.433221605088976
 20
2.866239759657118
 30
0.0
 10
1.433221605088976
 20
2.866239759657118
 30
0.0
 10
1.433221605088976
 20
2.866239759657118
 30
0.0
 10
0.4867426554361979
 20
2.866239759657118
 30
0.0
 10
0.4867426554361979
 20
2.866239759657118
 30
0.0
 10
0.4867426554361979
 20
2.866239759657118
 30
0.0
 10
0.4867426554361979
 20
0.7791358100043402
 30
0.0
 10
0.4867426554361979
 20
0.7791358100043402
 30
0.0
 10
0.4867426554361979
 20
0.7791358100043402
 30
0.0
 10
5.413283454047309
 20
0.7791358100043402
 30
0.0
 10
5.413283454047309
 20
0.7791358100043402
 30
0.0
 10
5.413283454047309
 20
0.7791358100043402
 30
0.0
 10
5.413283454047309
 20
2.866239759657118
 30
0.0
 10
5.413283454047309
 20
2.866239759657118
 30
0.0
 10
5.413283454047309
 20
2.866239759657118
 30
0.0
 10
4.466818067762587
 20
2.866239759657118
 30
0.0
 10
4.466818067762587
 20
2.866239759657118
 30
0.0
 10
4.466818067762587
 20
2.866239759657118
 30
0.0
 10
4.466818067762587
 20
4.819866604275173
 30
0.0
 10
4.466818067762587
 20
4.819866604275173
 30
0.0
 10
4.466818067762587
 20
4.819866604275173
 30
0.0
 10
5.182733323838975
 20
4.819866604275173
 30
0.0
 10
5.182733323838975
 20
4.819866604275173
 30
0.0
 10
5.603265550401475
 20
4.819866604275173
 30
0.0
 10
5.892599317762587
 20
4.702502780490451
 30
0.0
 10
6.050341288248697
 20
4.46797858344184
 30
0.0
 10
6.208083258734809
 20
4.233250935872396
 30
0.0
 10
6.28696780734592
 20
3.873387654622396
 30
0.0
 10
6.28696780734592
 20
3.38802252875434
 30
0.0
 10
6.28696780734592
 20
2.538616604275174
 30
0.0
 10
6.357687208387587
 20
1.931900024414062
 30
0.0
 10
6.499315897623697
 20
1.567872789171007
 30
0.0
 10
6.640754699707031
 20
1.203831990559896
 30
0.0
 10
6.845141092936197
 20
0.9812435574001735
 30
0.0
 10
7.112095303005642
 20
0.9004737006293402
 30
0.0
 10
7.379049513075087
 20
0.8195139567057291
 30
0.0
 10
7.819872538248697
 20
0.7791358100043402
 30
0.0
 10
8.434740702311197
 20
0.7791358100043402
 30
0.0
 10
8.434740702311197
 20
0.7791358100043402
 30
0.0
 10
10.33983781602648
 20
0.7791358100043402
 30
0.0
 10
10.33983781602648
 20
0.7791358100043402
 30
0.0
 10
10.33983781602648
 20
0.7791358100043402
 30
0.0
 10
10.33983781602648
 20
2.902643839518229
 30
0.0
 10
10.33983781602648
 20
2.902643839518229
 30
0.0
 10
10.33983781602648
 20
2.902643839518229
 30
0.0
 10
9.017192416720919
 20
2.902643839518229
 30
0.0
 10
9.017192416720919
 20
2.902643839518229
 30
0.0
  0
SPLINE
  5
5F
330
58
100
AcDbEntity
  8
Layer 1
 62
     7
420
 16777215
370
    70
100
AcDbSpline
210
0.0
220
0.0
230
1.0
 70
    11
 71
     3
 72
    86
 73
    82
 74
     0
 42
0.0000000001
 43
0.0000000001
 12
1.0
 22
0.0
 32
0.0
 13
1.0
 23
0.0
 33
0.0
 40
0.0
 40
0.0
 40
0.0
 40
0.0
 40
1.0
 40
1.0
 40
1.0
 40
2.0
 40
2.0
 40
2.0
 40
3.0
 40
3.0
 40
3.0
 40
4.0
 40
4.0
 40
4.0
 40
5.0
 40
5.0
 40
5.0
 40
6.0
 40
6.0
 40
6.0
 40
7.0
 40
7.0
 40
7.0
 40
8.0
 40
8.0
 40
8.0
 40
9.0
 40
9.0
 40
9.0
 40
10.0
 40
10.0
 40
10.0
 40
11.0
 40
11.0
 40
11.0
 40
12.0
 40
12.0
 40
12.0
 40
13.0
 40
13.0
 40
13.0
 40
14.0
 40
14.0
 40
14.0
 40
15.0
 40
15.0
 40
15.0
 40
16.0
 40
16.0
 40
16.0
 40
17.0
 40
17.0
 40
17.0
 40
18.0
 40
18.0
 40
18.0
 40
19.0
 40
19.0
 40
19.0
 40
20.0
 40
20.0
 40
20.0
 40
21.0
 40
21.0
 40
21.0
 40
22.0
 40
22.0
 40
22.0
 40
23.0
 40
23.0
 40
23.0
 40
24.0
 40
24.0
 40
24.0
 40
25.0
 40
25.0
 40
25.0
 40
26.0
 40
26.0
 40
26.0
 40
27.0
 40
27.0
 40
27.0
 40
27.0
 10
9.98983425564236
 20
1.129133436414931
 30
0.0
 10
9.98983425564236
 20
1.129133436414931
 30
0.0
 10
8.434739854600695
 20
1.129133436414931
 30
0.0
 10
8.434739854600695
 20
1.129133436414931
 30
0.0
 10
7.715142144097221
 20
1.129133436414931
 30
0.0
 10
7.37353515625
 20
1.186926947699653
 30
0.0
 10
7.213670518663194
 20
1.235402425130208
 30
0.0
 10
7.055914984809028
 20
1.283131917317708
 30
0.0
 10
6.925408257378471
 20
1.437618679470486
 30
0.0
 10
6.825554741753471
 20
1.694617377387153
 30
0.0
 10
6.739488389756944
 20
1.915835910373264
 30
0.0
 10
6.636969672309028
 20
2.389048258463542
 30
0.0
 10
6.636969672309028
 20
3.388017442491319
 30
0.0
 10
6.636969672309028
 20
3.94956800672743
 30
0.0
 10
6.54010009765625
 20
4.36668226453993
 30
0.0
 10
6.340833875868055
 20
4.66319105360243
 30
0.0
 10
6.114678276909722
 20
4.999426947699653
 30
0.0
 10
5.725063747829861
 20
5.169864230685763
 30
0.0
 10
5.182732476128472
 20
5.169864230685763
 30
0.0
 10
5.182732476128472
 20
5.169864230685763
 30
0.0
 10
4.116814507378472
 20
5.169864230685763
 30
0.0
 10
4.116814507378472
 20
5.169864230685763
 30
0.0
 10
4.116814507378472
 20
5.169864230685763
 30
0.0
 10
4.116814507378472
 20
2.516231960720486
 30
0.0
 10
4.116814507378472
 20
2.516231960720486
 30
0.0
 10
4.116814507378472
 20
2.516231960720486
 30
0.0
 10
5.063279893663194
 20
2.516231960720486
 30
0.0
 10
5.063279893663194
 20
2.516231960720486
 30
0.0
 10
5.063279893663194
 20
2.516231960720486
 30
0.0
 10
5.063279893663194
 20
1.129133436414931
 30
0.0
 10
5.063279893663194
 20
1.129133436414931
 30
0.0
 10
5.063279893663194
 20
1.129133436414931
 30
0.0
 10
0.8367445203993055
 20
1.129133436414931
 30
0.0
 10
0.8367445203993055
 20
1.129133436414931
 30
0.0
 10
0.8367445203993055
 20
1.129133436414931
 30
0.0
 10
0.8367445203993055
 20
2.516231960720486
 30
0.0
 10
0.8367445203993055
 20
2.516231960720486
 30
0.0
 10
0.8367445203993055
 20
2.516231960720486
 30
0.0
 10
1.783223470052083
 20
2.516231960720486
 30
0.0
 10
1.783223470052083
 20
2.516231960720486
 30
0.0
 10
1.783223470052083
 20
2.516231960720486
 30
0.0
 10
1.783223470052083
 20
8.47041490342882
 30
0.0
 10
1.783223470052083
 20
8.47041490342882
 30
0.0
 10
1.783223470052083
 20
8.47041490342882
 30
0.0
 10
0.8367445203993055
 20
8.47041490342882
 30
0.0
 10
0.8367445203993055
 20
8.47041490342882
 30
0.0
 10
0.8367445203993055
 20
8.47041490342882
 30
0.0
 10
0.8367445203993055
 20
9.857513427734375
 30
0.0
 10
0.8367445203993055
 20
9.857513427734375
 30
0.0
 10
0.8367445203993055
 20
9.857513427734375
 30
0.0
 10
6.541781955295138
 20
9.857513427734375
 30
0.0
 10
6.541781955295138
 20
9.857513427734375
 30
0.0
 10
7.429816351996528
 20
9.857513427734375
 30
0.0
 10
8.079766167534721
 20
9.685923258463541
 30
0.0
 10
8.473578559027777
 20
9.34749009874132
 30
0.0
 10
8.851630316840277
 20
9.022430419921875
 30
0.0
 10
9.043355305989582
 20
8.450341118706596
 30
0.0
 10
9.043355305989582
 20
7.647172715928819
 30
0.0
 10
9.043355305989582
 20
7.126664903428819
 30
0.0
 10
8.909661187065971
 20
6.744666205512153
 30
0.0
 10
8.634636773003471
 20
6.47935316297743
 30
0.0
 10
8.343153211805555
 20
6.198143853081597
 30
0.0
 10
7.91217041015625
 20
6.004757351345486
 30
0.0
 10
7.353651258680555
 20
5.904551188151041
 30
0.0
 10
7.353651258680555
 20
5.904551188151041
 30
0.0
 10
7.361036512586805
 20
5.214311387803819
 30
0.0
 10
7.361036512586805
 20
5.214311387803819
 30
0.0
 10
7.831264919704861
 20
5.140296088324653
 30
0.0
 10
8.167595757378471
 20
4.97178480360243
 30
0.0
 10
8.36068386501736
 20
4.713470458984375
 30
0.0
 10
8.566887749565971
 20
4.437225341796875
 30
0.0
 10
8.667188856336805
 20
4.094899495442708
 30
0.0
 10
8.667188856336805
 20
3.66709730360243
 30
0.0
 10
8.667188856336805
 20
3.66709730360243
 30
0.0
 10
8.667188856336805
 20
2.552636040581597
 30
0.0
 10
8.667188856336805
 20
2.552636040581597
 30
0.0
 10
8.667188856336805
 20
2.552636040581597
 30
0.0
 10
9.98983425564236
 20
2.552636040581597
 30
0.0
 10
9.98983425564236
 20
2.552636040581597
 30
0.0
 10
9.98983425564236
 20
2.552636040581597
 30
0.0
 10
9.98983425564236
 20
1.129133436414931
 30
0.0
 10
9.98983425564236
 20
1.129133436414931
 30
0.0
  0
ENDBLK
  5
5B
330
58
100
AcDbEntity
  8
0
100
AcDbBlockEnd
  0
BLOCK
  5
62
330
60
100
AcDbEntity
  8
0
100
AcDbBlockBegin
  2
block 3
 70
     0
 10
0.0
 20
0.0
 30
0.0
  3
block 3
  1

  0
SPLINE
  5
64
330
60
100
AcDbEntity
  8
Layer 1
 62
     7
420
 16777215
370
    70
100
AcDbSpline
210
0.0
220
0.0
230
1.0
 70
    11
 71
     3
 72
    83
 73
    79
 74
     0
 42
0.0000000001
 43
0.0000000001
 12
1.0
 22
0.0
 32
0.0
 13
1.0
 23
0.0
 33
0.0
 40
0.0
 40
0.0
 40
0.0
 40
0.0
 40
1.0
 40
1.0
 40
1.0
 40
2.0
 40
2.0
 40
2.0
 40
3.0
 40
3.0
 40
3.0
 40
4.0
 40
4.0
 40
4.0
 40
5.0
 40
5.0
 40
5.0
 40
6.0
 40
6.0
 40
6.0
 40
7.0
 40
7.0
 40
7.0
 40
8.0
 40
8.0
 40
8.0
 40
9.0
 40
9.0
 40
9.0
 40
10.0
 40
10.0
 40
10.0
 40
11.0
 40
11.0
 40
11.0
 40
12.0
 40
12.0
 40
12.0
 40
13.0
 40
13.0
 40
13.0
 40
14.0
 40
14.0
 40
14.0
 40
15.0
 40
15.0
 40
15.0
 40
16.0
 40
16.0
 40
16.0
 40
17.0
 40
17.0
 40
17.0
 40
18.0
 40
18.0
 40
18.0
 40
19.0
 40
19.0
 40
19.0
 40
20.0
 40
20.0
 40
20.0
 40
21.0
 40
21.0
 40
21.0
 40
22.0
 40
22.0
 40
22.0
 40
23.0
 40
23.0
 40
23.0
 40
24.0
 40
24.0
 40
24.0
 40
25.0
 40
25.0
 40
25.0
 40
26.0
 40
26.0
 40
26.0
 40
26.0
 10
10.80058280913141
 20
2.86623991331021
 30
0.0
 10
10.80058280913141
 20
2.86623991331021
 30
0.0
 10
11.74706175878418
 20
2.86623991331021
 30
0.0
 10
11.74706175878418
 20
2.86623991331021
 30
0.0
 10
11.74706175878418
 20
2.86623991331021
 30
0.0
 10
11.74706175878418
 20
8.120410648987292
 30
0.0
 10
11.74706175878418
 20
8.120410648987292
 30
0.0
 10
11.74706175878418
 20
8.120410648987292
 30
0.0
 10
10.80058280913141
 20
8.120410648987292
 30
0.0
 10
10.80058280913141
 20
8.120410648987292
 30
0.0
 10
10.80058280913141
 20
8.120410648987292
 30
0.0
 10
10.80058280913141
 20
10.2075213803241
 30
0.0
 10
10.80058280913141
 20
10.2075213803241
 30
0.0
 10
10.80058280913141
 20
10.2075213803241
 30
0.0
 10
16.85562295670085
 20
10.2075213803241
 30
0.0
 10
16.85562295670085
 20
10.2075213803241
 30
0.0
 10
17.83432846885363
 20
10.2075213803241
 30
0.0
 10
18.55443480565918
 20
10.00919781261577
 30
0.0
 10
19.01553506607585
 20
9.612937233188681
 30
0.0
 10
19.47663532649252
 20
9.21648676660882
 30
0.0
 10
19.70719902006891
 20
8.561226892476876
 30
0.0
 10
19.70719902006891
 20
7.647171174160904
 30
0.0
 10
19.70719902006891
 20
7.032303010098404
 30
0.0
 10
19.53522907649252
 20
6.559063535272015
 30
0.0
 10
19.19147907649252
 20
6.227452749681738
 30
0.0
 10
18.8475527527078
 20
5.89565885862271
 30
0.0
 10
18.36028875531196
 20
5.673260312615765
 30
0.0
 10
17.72929374663141
 20
5.560060442824098
 30
0.0
 10
18.29544229263835
 20
5.470949114699098
 30
0.0
 10
18.70402519194391
 20
5.258601024421321
 30
0.0
 10
18.95486612076335
 20
4.923016171990765
 30
0.0
 10
19.20551716243002
 20
4.587227869039376
 30
0.0
 10
19.33103257041613
 20
4.168594514004655
 30
0.0
 10
19.33103257041613
 20
3.667102543518543
 30
0.0
 10
19.33103257041613
 20
3.667102543518543
 30
0.0
 10
19.33103257041613
 20
2.902643993171321
 30
0.0
 10
19.33103257041613
 20
2.902643993171321
 30
0.0
 10
19.33103257041613
 20
2.902643993171321
 30
0.0
 10
20.65367796972168
 20
2.902643993171321
 30
0.0
 10
20.65367796972168
 20
2.902643993171321
 30
0.0
 10
20.65367796972168
 20
2.902643993171321
 30
0.0
 10
20.65367796972168
 20
0.7791359636574321
 30
0.0
 10
20.65367796972168
 20
0.7791359636574321
 30
0.0
 10
20.65367796972168
 20
0.7791359636574321
 30
0.0
 10
18.74858085600641
 20
0.7791359636574321
 30
0.0
 10
18.74858085600641
 20
0.7791359636574321
 30
0.0
 10
18.13371269194391
 20
0.7791359636574321
 30
0.0
 10
17.6928896667703
 20
0.8195141103588209
 30
0.0
 10
17.42593545670085
 20
0.9004738542824321
 30
0.0
 10
17.15898124663141
 20
0.9812437110532654
 30
0.0
 10
16.95459485340224
 20
1.203832144212988
 30
0.0
 10
16.81315605131891
 20
1.567872942824099
 30
0.0
 10
16.6715273620828
 20
1.931900178067154
 30
0.0
 10
16.60080796104113
 20
2.538616757928265
 30
0.0
 10
16.60080796104113
 20
3.388022682407432
 30
0.0
 10
16.60080796104113
 20
3.873387808275488
 30
0.0
 10
16.52192341243002
 20
4.233251089525488
 30
0.0
 10
16.36418144194391
 20
4.467978737094932
 30
0.0
 10
16.2064394714578
 20
4.702502934143543
 30
0.0
 10
15.91710570409668
 20
4.819866757928265
 30
0.0
 10
15.49657347753418
 20
4.819866757928265
 30
0.0
 10
15.49657347753418
 20
4.819866757928265
 30
0.0
 10
14.7806582214578
 20
4.819866757928265
 30
0.0
 10
14.7806582214578
 20
4.819866757928265
 30
0.0
 10
14.7806582214578
 20
4.819866757928265
 30
0.0
 10
14.7806582214578
 20
2.86623991331021
 30
0.0
 10
14.7806582214578
 20
2.86623991331021
 30
0.0
 10
14.7806582214578
 20
2.86623991331021
 30
0.0
 10
15.72712360774252
 20
2.86623991331021
 30
0.0
 10
15.72712360774252
 20
2.86623991331021
 30
0.0
 10
15.72712360774252
 20
2.86623991331021
 30
0.0
 10
15.72712360774252
 20
0.7791359636574321
 30
0.0
 10
15.72712360774252
 20
0.7791359636574321
 30
0.0
 10
15.72712360774252
 20
0.7791359636574321
 30
0.0
 10
10.80058280913141
 20
0.7791359636574321
 30
0.0
 10
10.80058280913141
 20
0.7791359636574321
 30
0.0
 10
10.80058280913141
 20
0.7791359636574321
 30
0.0
 10
10.80058280913141
 20
2.86623991331021
 30
0.0
 10
10.80058280913141
 20
2.86623991331021
 30
0.0
  0
SPLINE
  5
65
330
60
100
AcDbEntity
  8
Layer 1
 62
     7
420
 16777215
370
    70
100
AcDbSpline
210
0.0
220
0.0
230
1.0
 70
    11
 71
     3
 72
    26
 73
    22
 74
     0
 42
0.0000000001
 43
0.0000000001
 12
1.0
 22
0.0
 32
0.0
 13
1.0
 23
0.0
 33
0.0
 40
0.0
 40
0.0
 40
0.0
 40
0.0
 40
1.0
 40
1.0
 40
1.0
 40
2.0
 40
2.0
 40
2.0
 40
3.0
 40
3.0
 40
3.0
 40
4.0
 40
4.0
 40
4.0
 40
5.0
 40
5.0
 40
5.0
 40
6.0
 40
6.0
 40
6.0
 40
7.0
 40
7.0
 40
7.0
 40
7.0
 10
15.5936465027078
 20
6.166783804369238
 30
0.0
 10
16.02233031347168
 20
6.166783804369238
 30
0.0
 10
16.3418154480203
 20
6.243572812615765
 30
0.0
 10
16.5522646667703
 20
6.397333934577571
 30
0.0
 10
16.76253756173557
 20
6.550911951070626
 30
0.0
 10
16.86776217111057
 20
6.822036896817154
 30
0.0
 10
16.86776217111057
 20
7.210335779195626
 30
0.0
 10
16.86776217111057
 20
7.493410052199098
 30
0.0
 10
16.76044880305502
 20
7.715808598206043
 30
0.0
 10
16.54620184124946
 20
7.877728086053265
 30
0.0
 10
16.33176499229113
 20
8.03945768674771
 30
0.0
 10
16.05476032649252
 20
8.120410648987292
 30
0.0
 10
15.71499795670085
 20
8.120410648987292
 30
0.0
 10
15.71499795670085
 20
8.120410648987292
 30
0.0
 10
14.7806582214578
 20
8.120410648987292
 30
0.0
 10
14.7806582214578
 20
8.120410648987292
 30
0.0
 10
14.7806582214578
 20
8.120410648987292
 30
0.0
 10
14.7806582214578
 20
6.166783804369238
 30
0.0
 10
14.7806582214578
 20
6.166783804369238
 30
0.0
 10
14.7806582214578
 20
6.166783804369238
 30
0.0
 10
15.5936465027078
 20
6.166783804369238
 30
0.0
 10
15.5936465027078
 20
6.166783804369238
 30
0.0
  0
ENDBLK
  5
63
330
60
100
AcDbEntity
  8
0
100
AcDbBlockEnd
  0
BLOCK
  5
68
330
66
100
AcDbEntity
  8
0
100
AcDbBlockBegin
  2
block 4
 70
     0
 10
0.0
 20
0.0
 30
0.0
  3
block 4
  1

  0
SPLINE
  5
6A
330
66
100
AcDbEntity
  8
Layer 1
 62
     7
420
 16777215
370
    70
100
AcDbSpline
210
0.0
220
0.0
230
1.0
 70
    11
 71
     3
 72
    26
 73
    22
 74
     0
 42
0.0000000001
 43
0.0000000001
 12
1.0
 22
0.0
 32
0.0
 13
1.0
 23
0.0
 33
0.0
 40
0.0
 40
0.0
 40
0.0
 40
0.0
 40
1.0
 40
1.0
 40
1.0
 40
2.0
 40
2.0
 40
2.0
 40
3.0
 40
3.0
 40
3.0
 40
4.0
 40
4.0
 40
4.0
 40
5.0
 40
5.0
 40
5.0
 40
6.0
 40
6.0
 40
6.0
 40
7.0
 40
7.0
 40
7.0
 40
7.0
 10
6.443386501736111
 20
18.0559045266106
 30
0.0
 10
6.167507595486111
 20
18.26396659258282
 30
0.0
 10
5.816948784722222
 20
18.36936752574254
 30
0.0
 10
5.401156955295138
 20
18.36936752574254
 30
0.0
 10
5.401156955295138
 20
18.36936752574254
 30
0.0
 10
4.116814507378472
 20
18.36936752574254
 30
0.0
 10
4.116814507378472
 20
18.36936752574254
 30
0.0
 10
4.116814507378472
 20
18.36936752574254
 30
0.0
 10
4.116814507378472
 20
15.71573525577726
 30
0.0
 10
4.116814507378472
 20
15.71573525577726
 30
0.0
 10
4.116814507378472
 20
15.71573525577726
 30
0.0
 10
5.279805501302083
 20
15.71573525577726
 30
0.0
 10
5.279805501302083
 20
15.71573525577726
 30
0.0
 10
5.789408365885416
 20
15.71573525577726
 30
0.0
 10
6.170518663194444
 20
15.81320161862449
 30
0.0
 10
6.444912380642361
 20
16.01368176185365
 30
0.0
 10
6.749471028645833
 20
16.23613456133282
 30
0.0
 10
6.903923882378471
 20
16.60475977834671
 30
0.0
 10
6.903923882378471
 20
17.10928994327726
 30
0.0
 10
6.903923882378471
 20
17.50086437904115
 30
0.0
 10
6.744669596354166
 20
17.82820270369393
 30
0.0
 10
6.443386501736111
 20
18.0559045266106
 30
0.0
  0
SPLINE
  5
6B
330
66
100
AcDbEntity
  8
Layer 1
 62
     7
420
 16777215
370
    70
100
AcDbSpline
210
0.0
220
0.0
230
1.0
 70
    11
 71
     3
 72
    26
 73
    22
 74
     0
 42
0.0000000001
 43
0.0000000001
 12
1.0
 22
0.0
 32
0.0
 13
1.0
 23
0.0
 33
0.0
 40
0.0
 40
0.0
 40
0.0
 40
0.0
 40
1.0
 40
1.0
 40
1.0
 40
2.0
 40
2.0
 40
2.0
 40
3.0
 40
3.0
 40
3.0
 40
4.0
 40
4.0
 40
4.0
 40
5.0
 40
5.0
 40
5.0
 40
6.0
 40
6.0
 40
6.0
 40
7.0
 40
7.0
 40
7.0
 40
7.0
 10
6.238424513075087
 20
16.2962864032382
 30
0.0
 10
6.027975294325087
 20
16.1425252812764
 30
0.0
 10
5.708490159776475
 20
16.06573627302987
 30
0.0
 10
5.279806349012587
 20
16.06573627302987
 30
0.0
 10
5.279806349012587
 20
16.06573627302987
 30
0.0
 10
4.466818067762587
 20
16.06573627302987
 30
0.0
 10
4.466818067762587
 20
16.06573627302987
 30
0.0
 10
4.466818067762587
 20
16.06573627302987
 30
0.0
 10
4.466818067762587
 20
18.01936311764792
 30
0.0
 10
4.466818067762587
 20
18.01936311764792
 30
0.0
 10
4.466818067762587
 20
18.01936311764792
 30
0.0
 10
5.401157803005642
 20
18.01936311764792
 30
0.0
 10
5.401157803005642
 20
18.01936311764792
 30
0.0
 10
5.740920172797309
 20
18.01936311764792
 30
0.0
 10
6.01792483859592
 20
17.93841015540834
 30
0.0
 10
6.232361687554253
 20
17.7766805547139
 30
0.0
 10
6.446608649359809
 20
17.61476106686667
 30
0.0
 10
6.553922017415364
 20
17.39236252085973
 30
0.0
 10
6.553922017415364
 20
17.10928824785626
 30
0.0
 10
6.553922017415364
 20
16.72098936547778
 30
0.0
 10
6.448697408040364
 20
16.44986441973126
 30
0.0
 10
6.238424513075087
 20
16.2962864032382
 30
0.0
  0
SPLINE
  5
6C
330
66
100
AcDbEntity
  8
Layer 1
 62
     7
420
 16777215
370
    70
100
AcDbSpline
210
0.0
220
0.0
230
1.0
 70
    11
 71
     3
 72
   176
 73
   172
 74
     0
 42
0.0000000001
 43
0.0000000001
 12
1.0
 22
0.0
 32
0.0
 13
1.0
 23
0.0
 33
0.0
 40
0.0
 40
0.0
 40
0.0
 40
0.0
 40
1.0
 40
1.0
 40
1.0
 40
2.0
 40
2.0
 40
2.0
 40
3.0
 40
3.0
 40
3.0
 40
4.0
 40
4.0
 40
4.0
 40
5.0
 40
5.0
 40
5.0
 40
6.0
 40
6.0
 40
6.0
 40
7.0
 40
7.0
 40
7.0
 40
8.0
 40
8.0
 40
8.0
 40
9.0
 40
9.0
 40
9.0
 40
10.0
 40
10.0
 40
10.0
 40
11.0
 40
11.0
 40
11.0
 40
12.0
 40
12.0
 40
12.0
 40
13.0
 40
13.0
 40
13.0
 40
14.0
 40
14.0
 40
14.0
 40
15.0
 40
15.0
 40
15.0
 40
16.0
 40
16.0
 40
16.0
 40
17.0
 40
17.0
 40
17.0
 40
18.0
 40
18.0
 40
18.0
 40
19.0
 40
19.0
 40
19.0
 40
20.0
 40
20.0
 40
20.0
 40
21.0
 40
21.0
 40
21.0
 40
22.0
 40
22.0
 40
22.0
 40
23.0
 40
23.0
 40
23.0
 40
24.0
 40
24.0
 40
24.0
 40
25.0
 40
25.0
 40
25.0
 40
26.0
 40
26.0
 40
26.0
 40
27.0
 40
27.0
 40
27.0
 40
28.0
 40
28.0
 40
28.0
 40
29.0
 40
29.0
 40
29.0
 40
30.0
 40
30.0
 40
30.0
 40
31.0
 40
31.0
 40
31.0
 40
32.0
 40
32.0
 40
32.0
 40
33.0
 40
33.0
 40
33.0
 40
34.0
 40
34.0
 40
34.0
 40
35.0
 40
35.0
 40
35.0
 40
36.0
 40
36.0
 40
36.0
 40
37.0
 40
37.0
 40
37.0
 40
38.0
 40
38.0
 40
38.0
 40
39.0
 40
39.0
 40
39.0
 40
40.0
 40
40.0
 40
40.0
 40
41.0
 40
41.0
 40
41.0
 40
42.0
 40
42.0
 40
42.0
 40
43.0
 40
43.0
 40
43.0
 40
44.0
 40
44.0
 40
44.0
 40
45.0
 40
45.0
 40
45.0
 40
46.0
 40
46.0
 40
46.0
 40
47.0
 40
47.0
 40
47.0
 40
48.0
 40
48.0
 40
48.0
 40
49.0
 40
49.0
 40
49.0
 40
50.0
 40
50.0
 40
50.0
 40
51.0
 40
51.0
 40
51.0
 40
52.0
 40
52.0
 40
52.0
 40
53.0
 40
53.0
 40
53.0
 40
54.0
 40
54.0
 40
54.0
 40
55.0
 40
55.0
 40
55.0
 40
56.0
 40
56.0
 40
56.0
 40
57.0
 40
57.0
 40
57.0
 40
57.0
 10
9.017192416720919
 20
12.80159674750434
 30
0.0
 10
9.017192416720919
 20
12.80159674750434
 30
0.0
 10
9.017192416720919
 20
13.56605529785156
 30
0.0
 10
9.017192416720919
 20
13.56605529785156
 30
0.0
 10
9.017192416720919
 20
14.06754726833767
 30
0.0
 10
8.891677008734808
 20
14.48618062337239
 30
0.0
 10
8.641025967068142
 20
14.82196892632378
 30
0.0
 10
8.390185038248697
 20
15.15755377875434
 30
0.0
 10
7.981602138943142
 20
15.36990186903212
 30
0.0
 10
7.415453592936197
 20
15.45901319715712
 30
0.0
 10
8.046448601616753
 20
15.57221306694878
 30
0.0
 10
8.533712599012587
 20
15.79461161295573
 30
0.0
 10
8.877638922797308
 20
16.12640550401476
 30
0.0
 10
9.221388922797308
 20
16.45801628960503
 30
0.0
 10
9.393358866373697
 20
16.93125576443142
 30
0.0
 10
9.393358866373697
 20
17.54612392849392
 30
0.0
 10
9.393358866373697
 20
18.46017964680989
 30
0.0
 10
9.162795172797308
 20
19.11543952094184
 30
0.0
 10
8.701694912380642
 20
19.5118899875217
 30
0.0
 10
8.240594651963976
 20
19.90815056694878
 30
0.0
 10
7.52048831515842
 20
20.10647413465712
 30
0.0
 10
6.541782803005642
 20
20.10647413465712
 30
0.0
 10
6.541782803005642
 20
20.10647413465712
 30
0.0
 10
6.154067993164062
 20
20.10647413465712
 30
0.0
 10
6.154067993164062
 20
20.10647413465712
 30
0.0
 10
6.154067993164062
 20
20.10647413465712
 30
0.0
 10
6.154067993164062
 20
19.75646633572049
 30
0.0
 10
6.154067993164062
 20
19.75646633572049
 30
0.0
 10
6.154067993164062
 20
19.75646633572049
 30
0.0
 10
6.541781955295138
 20
19.75646633572049
 30
0.0
 10
6.541781955295138
 20
19.75646633572049
 30
0.0
 10
7.429816351996528
 20
19.75646633572049
 30
0.0
 10
8.079766167534721
 20
19.58487616644965
 30
0.0
 10
8.473578559027777
 20
19.24644300672743
 30
0.0
 10
8.851630316840277
 20
18.92138332790799
 30
0.0
 10
9.043355305989582
 20
18.34929402669271
 30
0.0
 10
9.043355305989582
 20
17.54612562391493
 30
0.0
 10
9.043355305989582
 20
17.02561781141493
 30
0.0
 10
8.909661187065971
 20
16.64361911349826
 30
0.0
 10
8.634636773003471
 20
16.37830607096354
 30
0.0
 10
8.343153211805555
 20
16.09709676106771
 30
0.0
 10
7.91217041015625
 20
15.9037102593316
 30
0.0
 10
7.353651258680555
 20
15.80350409613715
 30
0.0
 10
7.353651258680555
 20
15.80350409613715
 30
0.0
 10
7.361036512586805
 20
15.11326429578993
 30
0.0
 10
7.361036512586805
 20
15.11326429578993
 30
0.0
 10
7.831264919704861
 20
15.03924899631076
 30
0.0
 10
8.167595757378471
 20
14.87073771158854
 30
0.0
 10
8.36068386501736
 20
14.61242336697049
 30
0.0
 10
8.566887749565971
 20
14.33617824978299
 30
0.0
 10
8.667188856336805
 20
13.99385240342882
 30
0.0
 10
8.667188856336805
 20
13.56605021158854
 30
0.0
 10
8.667188856336805
 20
13.56605021158854
 30
0.0
 10
8.667188856336805
 20
12.45158894856771
 30
0.0
 10
8.667188856336805
 20
12.45158894856771
 30
0.0
 10
8.667188856336805
 20
12.45158894856771
 30
0.0
 10
9.98983425564236
 20
12.45158894856771
 30
0.0
 10
9.98983425564236
 20
12.45158894856771
 30
0.0
 10
9.98983425564236
 20
12.45158894856771
 30
0.0
 10
9.98983425564236
 20
11.02808634440104
 30
0.0
 10
9.98983425564236
 20
11.02808634440104
 30
0.0
 10
9.98983425564236
 20
11.02808634440104
 30
0.0
 10
8.434739854600695
 20
11.02808634440104
 30
0.0
 10
8.434739854600695
 20
11.02808634440104
 30
0.0
 10
7.715142144097221
 20
11.02808634440104
 30
0.0
 10
7.37353515625
 20
11.08587985568576
 30
0.0
 10
7.213670518663194
 20
11.13435533311632
 30
0.0
 10
7.055914984809028
 20
11.18208482530382
 30
0.0
 10
6.925408257378471
 20
11.3365715874566
 30
0.0
 10
6.825554741753471
 20
11.59357028537326
 30
0.0
 10
6.739488389756944
 20
11.81478881835938
 30
0.0
 10
6.636969672309028
 20
12.28800116644965
 30
0.0
 10
6.636969672309028
 20
13.28697035047743
 30
0.0
 10
6.636969672309028
 20
13.84852091471354
 30
0.0
 10
6.54010009765625
 20
14.26563517252604
 30
0.0
 10
6.340833875868055
 20
14.56214396158854
 30
0.0
 10
6.114678276909722
 20
14.89837985568576
 30
0.0
 10
5.725063747829861
 20
15.06881713867188
 30
0.0
 10
5.182732476128472
 20
15.06881713867188
 30
0.0
 10
5.182732476128472
 20
15.06881713867188
 30
0.0
 10
4.116814507378472
 20
15.06881713867188
 30
0.0
 10
4.116814507378472
 20
15.06881713867188
 30
0.0
 10
4.116814507378472
 20
15.06881713867188
 30
0.0
 10
4.116814507378472
 20
12.4151848687066
 30
0.0
 10
4.116814507378472
 20
12.4151848687066
 30
0.0
 10
4.116814507378472
 20
12.4151848687066
 30
0.0
 10
5.063279893663194
 20
12.4151848687066
 30
0.0
 10
5.063279893663194
 20
12.4151848687066
 30
0.0
 10
5.063279893663194
 20
12.4151848687066
 30
0.0
 10
5.063279893663194
 20
11.02808634440104
 30
0.0
 10
5.063279893663194
 20
11.02808634440104
 30
0.0
 10
5.063279893663194
 20
11.02808634440104
 30
0.0
 10
0.8367445203993055
 20
11.02808634440104
 30
0.0
 10
0.8367445203993055
 20
11.02808634440104
 30
0.0
 10
0.8367445203993055
 20
11.02808634440104
 30
0.0
 10
0.8367445203993055
 20
12.4151848687066
 30
0.0
 10
0.8367445203993055
 20
12.4151848687066
 30
0.0
 10
0.8367445203993055
 20
12.4151848687066
 30
0.0
 10
1.783223470052083
 20
12.4151848687066
 30
0.0
 10
1.783223470052083
 20
12.4151848687066
 30
0.0
 10
1.783223470052083
 20
12.4151848687066
 30
0.0
 10
1.783223470052083
 20
18.36936781141493
 30
0.0
 10
1.783223470052083
 20
18.36936781141493
 30
0.0
 10
1.783223470052083
 20
18.36936781141493
 30
0.0
 10
0.8367445203993055
 20
18.36936781141493
 30
0.0
 10
0.8367445203993055
 20
18.36936781141493
 30
0.0
 10
0.8367445203993055
 20
18.36936781141493
 30
0.0
 10
0.8367445203993055
 20
19.75646633572049
 30
0.0
 10
0.8367445203993055
 20
19.75646633572049
 30
0.0
 10
0.8367445203993055
 20
19.75646633572049
 30
0.0
 10
3.130995008680555
 20
19.75646633572049
 30
0.0
 10
3.130995008680555
 20
19.75646633572049
 30
0.0
 10
3.130995008680555
 20
19.75646633572049
 30
0.0
 10
3.130995008680555
 20
20.10647413465712
 30
0.0
 10
3.130995008680555
 20
20.10647413465712
 30
0.0
 10
3.130995008680555
 20
20.10647413465712
 30
0.0
 10
0.4867426554361979
 20
20.10647413465712
 30
0.0
 10
0.4867426554361979
 20
20.10647413465712
 30
0.0
 10
0.4867426554361979
 20
20.10647413465712
 30
0.0
 10
0.4867426554361979
 20
18.01936340332031
 30
0.0
 10
0.4867426554361979
 20
18.01936340332031
 30
0.0
 10
0.4867426554361979
 20
18.01936340332031
 30
0.0
 10
1.433221605088976
 20
18.01936340332031
 30
0.0
 10
1.433221605088976
 20
18.01936340332031
 30
0.0
 10
1.433221605088976
 20
18.01936340332031
 30
0.0
 10
1.433221605088976
 20
12.76519266764323
 30
0.0
 10
1.433221605088976
 20
12.76519266764323
 30
0.0
 10
1.433221605088976
 20
12.76519266764323
 30
0.0
 10
0.4867426554361979
 20
12.76519266764323
 30
0.0
 10
0.4867426554361979
 20
12.76519266764323
 30
0.0
 10
0.4867426554361979
 20
12.76519266764323
 30
0.0
 10
0.4867426554361979
 20
10.67808871799045
 30
0.0
 10
0.4867426554361979
 20
10.67808871799045
 30
0.0
 10
0.4867426554361979
 20
10.67808871799045
 30
0.0
 10
5.413283454047309
 20
10.67808871799045
 30
0.0
 10
5.413283454047309
 20
10.67808871799045
 30
0.0
 10
5.413283454047309
 20
10.67808871799045
 30
0.0
 10
5.413283454047309
 20
12.76519266764323
 30
0.0
 10
5.413283454047309
 20
12.76519266764323
 30
0.0
 10
5.413283454047309
 20
12.76519266764323
 30
0.0
 10
4.466818067762587
 20
12.76519266764323
 30
0.0
 10
4.466818067762587
 20
12.76519266764323
 30
0.0
 10
4.466818067762587
 20
12.76519266764323
 30
0.0
 10
4.466818067762587
 20
14.71881951226128
 30
0.0
 10
4.466818067762587
 20
14.71881951226128
 30
0.0
 10
4.466818067762587
 20
14.71881951226128
 30
0.0
 10
5.182733323838975
 20
14.71881951226128
 30
0.0
 10
5.182733323838975
 20
14.71881951226128
 30
0.0
 10
5.603265550401475
 20
14.71881951226128
 30
0.0
 10
5.892599317762587
 20
14.60145568847656
 30
0.0
 10
6.050341288248697
 20
14.36693149142795
 30
0.0
 10
6.208083258734809
 20
14.13220384385851
 30
0.0
 10
6.28696780734592
 20
13.77234056260851
 30
0.0
 10
6.28696780734592
 20
13.28697543674045
 30
0.0
 10
6.28696780734592
 20
12.43756951226128
 30
0.0
 10
6.357687208387587
 20
11.83085293240017
 30
0.0
 10
6.499315897623697
 20
11.46682569715712
 30
0.0
 10
6.640754699707031
 20
11.10278489854601
 30
0.0
 10
6.845141092936197
 20
10.88019646538628
 30
0.0
 10
7.112095303005642
 20
10.79942660861545
 30
0.0
 10
7.379049513075087
 20
10.71846686469184
 30
0.0
 10
7.819872538248697
 20
10.67808871799045
 30
0.0
 10
8.434740702311197
 20
10.67808871799045
 30
0.0
 10
8.434740702311197
 20
10.67808871799045
 30
0.0
 10
10.33983781602648
 20
10.67808871799045
 30
0.0
 10
10.33983781602648
 20
10.67808871799045
 30
0.0
 10
10.33983781602648
 20
10.67808871799045
 30
0.0
 10
10.33983781602648
 20
12.80159674750434
 30
0.0
 10
10.33983781602648
 20
12.80159674750434
 30
0.0
 10
10.33983781602648
 20
12.80159674750434
 30
0.0
 10
9.017192416720919
 20
12.80159674750434
 30
0.0
 10
9.017192416720919
 20
12.80159674750434
 30
0.0
  0
ENDBLK
  5
69
330
66
100
AcDbEntity
  8
0
100
AcDbBlockEnd
  0
BLOCK
  5
6F
330
6D
100
AcDbEntity
  8
0
100
AcDbBlockBegin
  2
block 5
 70
     0
 10
0.0
 20
0.0
 30
0.0
  3
block 5
  1

  0
SPLINE
  5
71
330
6D
100
AcDbEntity
  8
Layer 1
 62
     7
420
 16777215
370
    70
100
AcDbSpline
210
0.0
220
0.0
230
1.0
 70
    11
 71
     3
 72
    26
 73
    22
 74
     0
 42
0.0000000001
 43
0.0000000001
 12
1.0
 22
0.0
 32
0.0
 13
1.0
 23
0.0
 33
0.0
 40
0.0
 40
0.0
 40
0.0
 40
0.0
 40
1.0
 40
1.0
 40
1.0
 40
2.0
 40
2.0
 40
2.0
 40
3.0
 40
3.0
 40
3.0
 40
4.0
 40
4.0
 40
4.0
 40
5.0
 40
5.0
 40
5.0
 40
6.0
 40
6.0
 40
6.0
 40
7.0
 40
7.0
 40
7.0
 40
7.0
 10
16.61629794564833
 20
18.0559045266106
 30
0.0
 10
16.34041903939833
 20
18.26396659258282
 30
0.0
 10
15.98986022863444
 20
18.36936752574254
 30
0.0
 10
15.57406839920736
 20
18.36936752574254
 30
0.0
 10
15.57406839920736
 20
18.36936752574254
 30
0.0
 10
14.28972595129069
 20
18.36936752574254
 30
0.0
 10
14.28972595129069
 20
18.36936752574254
 30
0.0
 10
14.28972595129069
 20
18.36936752574254
 30
0.0
 10
14.28972595129069
 20
15.71573525577726
 30
0.0
 10
14.28972595129069
 20
15.71573525577726
 30
0.0
 10
14.28972595129069
 20
15.71573525577726
 30
0.0
 10
15.45271694521431
 20
15.71573525577726
 30
0.0
 10
15.45271694521431
 20
15.71573525577726
 30
0.0
 10
15.96231980979764
 20
15.71573525577726
 30
0.0
 10
16.34343010710667
 20
15.81320161862449
 30
0.0
 10
16.61782382455458
 20
16.01368176185365
 30
0.0
 10
16.92238247255806
 20
16.23613456133282
 30
0.0
 10
17.07683532629069
 20
16.60475977834671
 30
0.0
 10
17.07683532629069
 20
17.10928994327726
 30
0.0
 10
17.07683532629069
 20
17.50086437904115
 30
0.0
 10
16.91758104026639
 20
17.82820270369393
 30
0.0
 10
16.61629794564833
 20
18.0559045266106
 30
0.0
  0
SPLINE
  5
72
330
6D
100
AcDbEntity
  8
Layer 1
 62
     7
420
 16777215
370
    70
100
AcDbSpline
210
0.0
220
0.0
230
1.0
 70
    11
 71
     3
 72
    26
 73
    22
 74
     0
 42
0.0000000001
 43
0.0000000001
 12
1.0
 22
0.0
 32
0.0
 13
1.0
 23
0.0
 33
0.0
 40
0.0
 40
0.0
 40
0.0
 40
0.0
 40
1.0
 40
1.0
 40
1.0
 40
2.0
 40
2.0
 40
2.0
 40
3.0
 40
3.0
 40
3.0
 40
4.0
 40
4.0
 40
4.0
 40
5.0
 40
5.0
 40
5.0
 40
6.0
 40
6.0
 40
6.0
 40
7.0
 40
7.0
 40
7.0
 40
7.0
 10
16.41133595698731
 20
16.2962864032382
 30
0.0
 10
16.20088673823731
 20
16.1425252812764
 30
0.0
 10
15.8814016036887
 20
16.06573627302987
 30
0.0
 10
15.45271779292481
 20
16.06573627302987
 30
0.0
 10
15.45271779292481
 20
16.06573627302987
 30
0.0
 10
14.63972951167481
 20
16.06573627302987
 30
0.0
 10
14.63972951167481
 20
16.06573627302987
 30
0.0
 10
14.63972951167481
 20
16.06573627302987
 30
0.0
 10
14.63972951167481
 20
18.01936311764792
 30
0.0
 10
14.63972951167481
 20
18.01936311764792
 30
0.0
 10
14.63972951167481
 20
18.01936311764792
 30
0.0
 10
15.57406924691787
 20
18.01936311764792
 30
0.0
 10
15.57406924691787
 20
18.01936311764792
 30
0.0
 10
15.91383161670953
 20
18.01936311764792
 30
0.0
 10
16.19083628250814
 20
17.93841015540834
 30
0.0
 10
16.40527313146648
 20
17.7766805547139
 30
0.0
 10
16.61952009327203
 20
17.61476106686667
 30
0.0
 10
16.72683346132759
 20
17.39236252085973
 30
0.0
 10
16.72683346132759
 20
17.10928824785626
 30
0.0
 10
16.72683346132759
 20
16.72098936547778
 30
0.0
 10
16.62160885195259
 20
16.44986441973126
 30
0.0
 10
16.41133595698731
 20
16.2962864032382
 30
0.0
  0
SPLINE
  5
73
330
6D
100
AcDbEntity
  8
Layer 1
 62
     7
420
 16777215
370
    70
100
AcDbSpline
210
0.0
220
0.0
230
1.0
 70
    11
 71
     3
 72
   176
 73
   172
 74
     0
 42
0.0000000001
 43
0.0000000001
 12
1.0
 22
0.0
 32
0.0
 13
1.0
 23
0.0
 33
0.0
 40
0.0
 40
0.0
 40
0.0
 40
0.0
 40
1.0
 40
1.0
 40
1.0
 40
2.0
 40
2.0
 40
2.0
 40
3.0
 40
3.0
 40
3.0
 40
4.0
 40
4.0
 40
4.0
 40
5.0
 40
5.0
 40
5.0
 40
6.0
 40
6.0
 40
6.0
 40
7.0
 40
7.0
 40
7.0
 40
8.0
 40
8.0
 40
8.0
 40
9.0
 40
9.0
 40
9.0
 40
10.0
 40
10.0
 40
10.0
 40
11.0
 40
11.0
 40
11.0
 40
12.0
 40
12.0
 40
12.0
 40
13.0
 40
13.0
 40
13.0
 40
14.0
 40
14.0
 40
14.0
 40
15.0
 40
15.0
 40
15.0
 40
16.0
 40
16.0
 40
16.0
 40
17.0
 40
17.0
 40
17.0
 40
18.0
 40
18.0
 40
18.0
 40
19.0
 40
19.0
 40
19.0
 40
20.0
 40
20.0
 40
20.0
 40
21.0
 40
21.0
 40
21.0
 40
22.0
 40
22.0
 40
22.0
 40
23.0
 40
23.0
 40
23.0
 40
24.0
 40
24.0
 40
24.0
 40
25.0
 40
25.0
 40
25.0
 40
26.0
 40
26.0
 40
26.0
 40
27.0
 40
27.0
 40
27.0
 40
28.0
 40
28.0
 40
28.0
 40
29.0
 40
29.0
 40
29.0
 40
30.0
 40
30.0
 40
30.0
 40
31.0
 40
31.0
 40
31.0
 40
32.0
 40
32.0
 40
32.0
 40
33.0
 40
33.0
 40
33.0
 40
34.0
 40
34.0
 40
34.0
 40
35.0
 40
35.0
 40
35.0
 40
36.0
 40
36.0
 40
36.0
 40
37.0
 40
37.0
 40
37.0
 40
38.0
 40
38.0
 40
38.0
 40
39.0
 40
39.0
 40
39.0
 40
40.0
 40
40.0
 40
40.0
 40
41.0
 40
41.0
 40
41.0
 40
42.0
 40
42.0
 40
42.0
 40
43.0
 40
43.0
 40
43.0
 40
44.0
 40
44.0
 40
44.0
 40
45.0
 40
45.0
 40
45.0
 40
46.0
 40
46.0
 40
46.0
 40
47.0
 40
47.0
 40
47.0
 40
48.0
 40
48.0
 40
48.0
 40
49.0
 40
49.0
 40
49.0
 40
50.0
 40
50.0
 40
50.0
 40
51.0
 40
51.0
 40
51.0
 40
52.0
 40
52.0
 40
52.0
 40
53.0
 40
53.0
 40
53.0
 40
54.0
 40
54.0
 40
54.0
 40
55.0
 40
55.0
 40
55.0
 40
56.0
 40
56.0
 40
56.0
 40
57.0
 40
57.0
 40
57.0
 40
57.0
 10
19.19010386063314
 20
12.80159674750434
 30
0.0
 10
19.19010386063314
 20
12.80159674750434
 30
0.0
 10
19.19010386063314
 20
13.56605529785156
 30
0.0
 10
19.19010386063314
 20
13.56605529785156
 30
0.0
 10
19.19010386063314
 20
14.06754726833767
 30
0.0
 10
19.06458845264703
 20
14.48618062337239
 30
0.0
 10
18.81393741098037
 20
14.82196892632378
 30
0.0
 10
18.56309648216092
 20
15.15755377875434
 30
0.0
 10
18.15451358285537
 20
15.36990186903212
 30
0.0
 10
17.58836503684842
 20
15.45901319715712
 30
0.0
 10
18.21936004552898
 20
15.57221306694878
 30
0.0
 10
18.70662404292481
 20
15.79461161295573
 30
0.0
 10
19.05055036670953
 20
16.12640550401476
 30
0.0
 10
19.39430036670953
 20
16.45801628960503
 30
0.0
 10
19.56627031028592
 20
16.93125576443142
 30
0.0
 10
19.56627031028592
 20
17.54612392849392
 30
0.0
 10
19.56627031028592
 20
18.46017964680989
 30
0.0
 10
19.33570661670953
 20
19.11543952094184
 30
0.0
 10
18.87460635629287
 20
19.5118899875217
 30
0.0
 10
18.4135060958762
 20
19.90815056694878
 30
0.0
 10
17.69339975907064
 20
20.10647413465712
 30
0.0
 10
16.71469424691787
 20
20.10647413465712
 30
0.0
 10
16.71469424691787
 20
20.10647413465712
 30
0.0
 10
16.32697943707629
 20
20.10647413465712
 30
0.0
 10
16.32697943707629
 20
20.10647413465712
 30
0.0
 10
16.32697943707629
 20
20.10647413465712
 30
0.0
 10
16.32697943707629
 20
19.75646633572049
 30
0.0
 10
16.32697943707629
 20
19.75646633572049
 30
0.0
 10
16.32697943707629
 20
19.75646633572049
 30
0.0
 10
16.71469339920736
 20
19.75646633572049
 30
0.0
 10
16.71469339920736
 20
19.75646633572049
 30
0.0
 10
17.60272779590875
 20
19.75646633572049
 30
0.0
 10
18.25267761144694
 20
19.58487616644965
 30
0.0
 10
18.64649000294
 20
19.24644300672743
 30
0.0
 10
19.0245417607525
 20
18.92138332790799
 30
0.0
 10
19.21626674990181
 20
18.34929402669271
 30
0.0
 10
19.21626674990181
 20
17.54612562391493
 30
0.0
 10
19.21626674990181
 20
17.02561781141493
 30
0.0
 10
19.08257263097819
 20
16.64361911349826
 30
0.0
 10
18.80754821691569
 20
16.37830607096354
 30
0.0
 10
18.51606465571778
 20
16.09709676106771
 30
0.0
 10
18.08508185406847
 20
15.9037102593316
 30
0.0
 10
17.52656270259278
 20
15.80350409613715
 30
0.0
 10
17.52656270259278
 20
15.80350409613715
 30
0.0
 10
17.53394795649903
 20
15.11326429578993
 30
0.0
 10
17.53394795649903
 20
15.11326429578993
 30
0.0
 10
18.00417636361708
 20
15.03924899631076
 30
0.0
 10
18.34050720129069
 20
14.87073771158854
 30
0.0
 10
18.53359530892958
 20
14.61242336697049
 30
0.0
 10
18.73979919347819
 20
14.33617824978299
 30
0.0
 10
18.84010030024903
 20
13.99385240342882
 30
0.0
 10
18.84010030024903
 20
13.56605021158854
 30
0.0
 10
18.84010030024903
 20
13.56605021158854
 30
0.0
 10
18.84010030024903
 20
12.45158894856771
 30
0.0
 10
18.84010030024903
 20
12.45158894856771
 30
0.0
 10
18.84010030024903
 20
12.45158894856771
 30
0.0
 10
20.16274569955458
 20
12.45158894856771
 30
0.0
 10
20.16274569955458
 20
12.45158894856771
 30
0.0
 10
20.16274569955458
 20
12.45158894856771
 30
0.0
 10
20.16274569955458
 20
11.02808634440104
 30
0.0
 10
20.16274569955458
 20
11.02808634440104
 30
0.0
 10
20.16274569955458
 20
11.02808634440104
 30
0.0
 10
18.60765129851292
 20
11.02808634440104
 30
0.0
 10
18.60765129851292
 20
11.02808634440104
 30
0.0
 10
17.88805358800944
 20
11.02808634440104
 30
0.0
 10
17.54644660016222
 20
11.08587985568576
 30
0.0
 10
17.38658196257542
 20
11.13435533311632
 30
0.0
 10
17.22882642872125
 20
11.18208482530382
 30
0.0
 10
17.09831970129069
 20
11.3365715874566
 30
0.0
 10
16.99846618566569
 20
11.59357028537326
 30
0.0
 10
16.91239983366917
 20
11.81478881835938
 30
0.0
 10
16.80988111622125
 20
12.28800116644965
 30
0.0
 10
16.80988111622125
 20
13.28697035047743
 30
0.0
 10
16.80988111622125
 20
13.84852091471354
 30
0.0
 10
16.71301154156847
 20
14.26563517252604
 30
0.0
 10
16.51374531978028
 20
14.56214396158854
 30
0.0
 10
16.28758972082194
 20
14.89837985568576
 30
0.0
 10
15.89797519174208
 20
15.06881713867188
 30
0.0
 10
15.35564392004069
 20
15.06881713867188
 30
0.0
 10
15.35564392004069
 20
15.06881713867188
 30
0.0
 10
14.28972595129069
 20
15.06881713867188
 30
0.0
 10
14.28972595129069
 20
15.06881713867188
 30
0.0
 10
14.28972595129069
 20
15.06881713867188
 30
0.0
 10
14.28972595129069
 20
12.4151848687066
 30
0.0
 10
14.28972595129069
 20
12.4151848687066
 30
0.0
 10
14.28972595129069
 20
12.4151848687066
 30
0.0
 10
15.23619133757542
 20
12.4151848687066
 30
0.0
 10
15.23619133757542
 20
12.4151848687066
 30
0.0
 10
15.23619133757542
 20
12.4151848687066
 30
0.0
 10
15.23619133757542
 20
11.02808634440104
 30
0.0
 10
15.23619133757542
 20
11.02808634440104
 30
0.0
 10
15.23619133757542
 20
11.02808634440104
 30
0.0
 10
11.00965596431153
 20
11.02808634440104
 30
0.0
 10
11.00965596431153
 20
11.02808634440104
 30
0.0
 10
11.00965596431153
 20
11.02808634440104
 30
0.0
 10
11.00965596431153
 20
12.4151848687066
 30
0.0
 10
11.00965596431153
 20
12.4151848687066
 30
0.0
 10
11.00965596431153
 20
12.4151848687066
 30
0.0
 10
11.95613491396431
 20
12.4151848687066
 30
0.0
 10
11.95613491396431
 20
12.4151848687066
 30
0.0
 10
11.95613491396431
 20
12.4151848687066
 30
0.0
 10
11.95613491396431
 20
18.36936781141493
 30
0.0
 10
11.95613491396431
 20
18.36936781141493
 30
0.0
 10
11.95613491396431
 20
18.36936781141493
 30
0.0
 10
11.00965596431153
 20
18.36936781141493
 30
0.0
 10
11.00965596431153
 20
18.36936781141493
 30
0.0
 10
11.00965596431153
 20
18.36936781141493
 30
0.0
 10
11.00965596431153
 20
19.75646633572049
 30
0.0
 10
11.00965596431153
 20
19.75646633572049
 30
0.0
 10
11.00965596431153
 20
19.75646633572049
 30
0.0
 10
13.30390645259278
 20
19.75646633572049
 30
0.0
 10
13.30390645259278
 20
19.75646633572049
 30
0.0
 10
13.30390645259278
 20
19.75646633572049
 30
0.0
 10
13.30390645259278
 20
20.10647413465712
 30
0.0
 10
13.30390645259278
 20
20.10647413465712
 30
0.0
 10
13.30390645259278
 20
20.10647413465712
 30
0.0
 10
10.65965409934842
 20
20.10647413465712
 30
0.0
 10
10.65965409934842
 20
20.10647413465712
 30
0.0
 10
10.65965409934842
 20
20.10647413465712
 30
0.0
 10
10.65965409934842
 20
18.01936340332031
 30
0.0
 10
10.65965409934842
 20
18.01936340332031
 30
0.0
 10
10.65965409934842
 20
18.01936340332031
 30
0.0
 10
11.6061330490012
 20
18.01936340332031
 30
0.0
 10
11.6061330490012
 20
18.01936340332031
 30
0.0
 10
11.6061330490012
 20
18.01936340332031
 30
0.0
 10
11.6061330490012
 20
12.76519266764323
 30
0.0
 10
11.6061330490012
 20
12.76519266764323
 30
0.0
 10
11.6061330490012
 20
12.76519266764323
 30
0.0
 10
10.65965409934842
 20
12.76519266764323
 30
0.0
 10
10.65965409934842
 20
12.76519266764323
 30
0.0
 10
10.65965409934842
 20
12.76519266764323
 30
0.0
 10
10.65965409934842
 20
10.67808871799045
 30
0.0
 10
10.65965409934842
 20
10.67808871799045
 30
0.0
 10
10.65965409934842
 20
10.67808871799045
 30
0.0
 10
15.58619489795953
 20
10.67808871799045
 30
0.0
 10
15.58619489795953
 20
10.67808871799045
 30
0.0
 10
15.58619489795953
 20
10.67808871799045
 30
0.0
 10
15.58619489795953
 20
12.76519266764323
 30
0.0
 10
15.58619489795953
 20
12.76519266764323
 30
0.0
 10
15.58619489795953
 20
12.76519266764323
 30
0.0
 10
14.63972951167481
 20
12.76519266764323
 30
0.0
 10
14.63972951167481
 20
12.76519266764323
 30
0.0
 10
14.63972951167481
 20
12.76519266764323
 30
0.0
 10
14.63972951167481
 20
14.71881951226128
 30
0.0
 10
14.63972951167481
 20
14.71881951226128
 30
0.0
 10
14.63972951167481
 20
14.71881951226128
 30
0.0
 10
15.3556447677512
 20
14.71881951226128
 30
0.0
 10
15.3556447677512
 20
14.71881951226128
 30
0.0
 10
15.7761769943137
 20
14.71881951226128
 30
0.0
 10
16.06551076167481
 20
14.60145568847656
 30
0.0
 10
16.22325273216092
 20
14.36693149142795
 30
0.0
 10
16.38099470264703
 20
14.13220384385851
 30
0.0
 10
16.45987925125814
 20
13.77234056260851
 30
0.0
 10
16.45987925125814
 20
13.28697543674045
 30
0.0
 10
16.45987925125814
 20
12.43756951226128
 30
0.0
 10
16.53059865229981
 20
11.83085293240017
 30
0.0
 10
16.67222734153592
 20
11.46682569715712
 30
0.0
 10
16.81366614361925
 20
11.10278489854601
 30
0.0
 10
17.01805253684842
 20
10.88019646538628
 30
0.0
 10
17.28500674691787
 20
10.79942660861545
 30
0.0
 10
17.55196095698731
 20
10.71846686469184
 30
0.0
 10
17.99278398216092
 20
10.67808871799045
 30
0.0
 10
18.60765214622342
 20
10.67808871799045
 30
0.0
 10
18.60765214622342
 20
10.67808871799045
 30
0.0
 10
20.5127492599387
 20
10.67808871799045
 30
0.0
 10
20.5127492599387
 20
10.67808871799045
 30
0.0
 10
20.5127492599387
 20
10.67808871799045
 30
0.0
 10
20.5127492599387
 20
12.80159674750434
 30
0.0
 10
20.5127492599387
 20
12.80159674750434
 30
0.0
 10
20.5127492599387
 20
12.80159674750434
 30
0.0
 10
19.19010386063314
 20
12.80159674750434
 30
0.0
 10
19.19010386063314
 20
12.80159674750434
 30
0.0
  0
ENDBLK
  5
70
330
6D
100
AcDbEntity
  8
0
100
AcDbBlockEnd
  0
ENDSEC
  0
SECTION
  2
ENTITIES
  0
POLYLINE
  5
41
330
1F
100
AcDbEntity
  8
Layer 1
 62
     7
420
 16777215
370
    70
100
AcDb2dPolyline
 66
     1
 10
0.0
 20
0.0
 30
0.0
  0
VERTEX
  5
42
330
41
100
AcDbEntity
  8
Layer 1
 62
     7
420
 16777215
370
    70
100
AcDbVertex
100
AcDb2dVertex
 10
10.21707076175699
 20
26.30413847892777
 30
0.0
  0
VERTEX
  5
43
330
41
100
AcDbEntity
  8
Layer 1
 62
     7
420
 16777215
370
    70
100
AcDbVertex
100
AcDb2dVertex
 10
10.21707076175699
 20
24.54708298440737
 30
0.0
  0
VERTEX
  5
44
330
41
100
AcDbEntity
  8
Layer 1
 62
     7
420
 16777215
370
    70
100
AcDbVertex
100
AcDb2dVertex
 10
20.95533259753013
 20
24.54708298440737
 30
0.0
  0
VERTEX
  5
45
330
41
100
AcDbEntity
  8
Layer 1
 62
     7
420
 16777215
370
    70
100
AcDbVertex
100
AcDb2dVertex
 10
20.95533259753013
 20
26.30413847892777
 30
0.0
  0
VERTEX
  5
46
330
41
100
AcDbEntity
  8
Layer 1
 62
     7
420
 16777215
370
    70
100
AcDbVertex
100
AcDb2dVertex
 10
10.21707076175699
 20
26.30413847892777
 30
0.0
  0
SEQEND
  5
47
330
41
100
AcDbEntity
  8
Layer 1
 62
     7
420
 16777215
370
    70
  0
POLYLINE
  5
48
330
1F
100
AcDbEntity
  8
Layer 1
 62
     7
420
 16777215
370
    70
100
AcDb2dPolyline
 66
     1
 10
0.0
 20
0.0
 30
0.0
  0
VERTEX
  5
49
330
48
100
AcDbEntity
  8
Layer 1
 62
     7
420
 16777215
370
    70
100
AcDbVertex
100
AcDb2dVertex
 10
14.847726500418
 20
25.72677811380191
 30
0.0
  0
VERTEX
  5
4A
330
48
100
AcDbEntity
  8
Layer 1
 62
     7
420
 16777215
370
    70
100
AcDbVertex
100
AcDb2dVertex
 10
11.23875331519664
 20
25.72677811380191
 30
0.0
  0
VERTEX
  5
4B
330
48
100
AcDbEntity
  8
Layer 1
 62
     7
420
 16777215
370
    70
100
AcDbVertex
100
AcDb2dVertex
 10
11.23875331519664
 20
25.93677804598506
 30
0.0
  0
VERTEX
  5
4C
330
48
100
AcDbEntity
  8
Layer 1
 62
     7
420
 16777215
370
    70
100
AcDbVertex
100
AcDb2dVertex
 10
14.84772480499699
 20
25.93677804598506
 30
0.0
  0
VERTEX
  5
4D
330
48
100
AcDbEntity
  8
Layer 1
 62
     7
420
 16777215
370
    70
100
AcDbVertex
100
AcDb2dVertex
 10
14.847726500418
 20
25.72677811380191
 30
0.0
  0
VERTEX
  5
4E
330
48
100
AcDbEntity
  8
Layer 1
 62
     7
420
 16777215
370
    70
100
AcDbVertex
100
AcDb2dVertex
 10
14.847726500418
 20
25.72677811380191
 30
0.0
  0
SEQEND
  5
4F
330
48
100
AcDbEntity
  8
Layer 1
 62
     7
420
 16777215
370
    70
  0
POLYLINE
  5
50
330
1F
100
AcDbEntity
  8
Layer 1
 62
     7
420
 16777215
370
    50
100
AcDb2dPolyline
 66
     1
 10
0.0
 20
0.0
 30
0.0
  0
VERTEX
  5
51
330
50
100
AcDbEntity
  8
Layer 1
 62
     7
420
 16777215
370
    50
100
AcDbVertex
100
AcDb2dVertex
 10
20.21308988770996
 20
25.72677811380191
 30
0.0
  0
VERTEX
  5
52
330
50
100
AcDbEntity
  8
Layer 1
 62
     7
420
 16777215
370
    50
100
AcDbVertex
100
AcDb2dVertex
 10
18.55841264840354
 20
25.72677811380191
 30
0.0
  0
VERTEX
  5
53
330
50
100
AcDbEntity
  8
Layer 1
 62
     7
420
 16777215
370
    50
100
AcDbVertex
100
AcDb2dVertex
 10
18.55841264840354
 20
25.93677804598506
 30
0.0
  0
VERTEX
  5
54
330
50
100
AcDbEntity
  8
Layer 1
 62
     7
420
 16777215
370
    50
100
AcDbVertex
100
AcDb2dVertex
 10
20.21308911037679
 20
25.93677804598506
 30
0.0
  0
VERTEX
  5
55
330
50
100
AcDbEntity
  8
Layer 1
 62
     7
420
 16777215
370
    50
100
AcDbVertex
100
AcDb2dVertex
 10
20.21308988770996
 20
25.72677811380191
 30
0.0
  0
VERTEX
  5
56
330
50
100
AcDbEntity
  8
Layer 1
 62
     7
420
 16777215
370
    50
100
AcDbVertex
100
AcDb2dVertex
 10
20.21308988770996
 20
25.72677811380191
 30
0.0
  0
SEQEND
  5
57
330
50
100
AcDbEntity
  8
Layer 1
 62
     7
420
 16777215
370
    50
  0
INSERT
  5
59
330
1F
100
AcDbEntity
  8
Layer 1
100
AcDbBlockReference
  2
block 2
 10
0.0
 20
0.0
 30
0.0
  0
INSERT
  5
61
330
1F
100
AcDbEntity
  8
Layer 1
100
AcDbBlockReference
  2
block 3
 10
0.0
 20
0.0
 30
0.0
  0
INSERT
  5
67
330
1F
100
AcDbEntity
  8
Layer 1
100
AcDbBlockReference
  2
block 4
 10
0.0
 20
0.0
 30
0.0
  0
INSERT
  5
6E
330
1F
100
AcDbEntity
  8
Layer 1
100
AcDbBlockReference
  2
block 5
 10
0.0
 20
0.0
 30
0.0
  0
SPLINE
  5
74
330
1F
100
AcDbEntity
  8
Layer 1
 62
     7
420
 16777215
370
    70
100
AcDbSpline
210
0.0
220
0.0
230
1.0
 70
    11
 71
     3
 72
   107
 73
   103
 74
     0
 42
0.0000000001
 43
0.0000000001
 12
1.0
 22
0.0
 32
0.0
 13
1.0
 23
0.0
 33
0.0
 40
0.0
 40
0.0
 40
0.0
 40
0.0
 40
1.0
 40
1.0
 40
1.0
 40
2.0
 40
2.0
 40
2.0
 40
3.0
 40
3.0
 40
3.0
 40
4.0
 40
4.0
 40
4.0
 40
5.0
 40
5.0
 40
5.0
 40
6.0
 40
6.0
 40
6.0
 40
7.0
 40
7.0
 40
7.0
 40
8.0
 40
8.0
 40
8.0
 40
9.0
 40
9.0
 40
9.0
 40
10.0
 40
10.0
 40
10.0
 40
11.0
 40
11.0
 40
11.0
 40
12.0
 40
12.0
 40
12.0
 40
13.0
 40
13.0
 40
13.0
 40
14.0
 40
14.0
 40
14.0
 40
15.0
 40
15.0
 40
15.0
 40
16.0
 40
16.0
 40
16.0
 40
17.0
 40
17.0
 40
17.0
 40
18.0
 40
18.0
 40
18.0
 40
19.0
 40
19.0
 40
19.0
 40
20.0
 40
20.0
 40
20.0
 40
21.0
 40
21.0
 40
21.0
 40
22.0
 40
22.0
 40
22.0
 40
23.0
 40
23.0
 40
23.0
 40
24.0
 40
24.0
 40
24.0
 40
25.0
 40
25.0
 40
25.0
 40
26.0
 40
26.0
 40
26.0
 40
27.0
 40
27.0
 40
27.0
 40
28.0
 40
28.0
 40
28.0
 40
29.0
 40
29.0
 40
29.0
 40
30.0
 40
30.0
 40
30.0
 40
31.0
 40
31.0
 40
31.0
 40
32.0
 40
32.0
 40
32.0
 40
33.0
 40
33.0
 40
33.0
 40
34.0
 40
34.0
 40
34.0
 40
34.0
 10
9.367194281684027
 20
23.88765631781684
 30
0.0
 10
9.367194281684027
 20
23.88765631781684
 30
0.0
 10
9.367194281684027
 20
24.65211486816406
 30
0.0
 10
9.367194281684027
 20
24.65211486816406
 30
0.0
 10
9.367194281684027
 20
25.15360683865017
 30
0.0
 10
9.241678873697916
 20
25.57224019368489
 30
0.0
 10
8.99102783203125
 20
25.90802849663628
 30
0.0
 10
8.740186903211805
 20
26.24361334906684
 30
0.0
 10
8.33160400390625
 20
26.45596143934462
 30
0.0
 10
7.765455457899305
 20
26.54507276746962
 30
0.0
 10
8.39645046657986
 20
26.65827263726128
 30
0.0
 10
8.883714463975695
 20
26.88067118326823
 30
0.0
 10
9.227640787760416
 20
27.21246507432726
 30
0.0
 10
9.571390787760416
 20
27.54407585991753
 30
0.0
 10
9.743360731336805
 20
28.01731533474392
 30
0.0
 10
9.743360731336805
 20
28.63218180338541
 30
0.0
 10
9.743360731336805
 20
29.54623752170139
 30
0.0
 10
9.512797037760416
 20
30.20149739583333
 30
0.0
 10
9.05169677734375
 20
30.59794786241319
 30
0.0
 10
8.590596516927082
 20
30.99420844184028
 30
0.0
 10
7.870490180121528
 20
31.19253200954861
 30
0.0
 10
6.89178466796875
 20
31.19253200954861
 30
0.0
 10
6.89178466796875
 20
31.19253200954861
 30
0.0
 10
0.8367445203993055
 20
31.19253200954861
 30
0.0
 10
0.8367445203993055
 20
31.19253200954861
 30
0.0
 10
0.8367445203993055
 20
31.19253200954861
 30
0.0
 10
0.8367445203993055
 20
29.1054212782118
 30
0.0
 10
0.8367445203993055
 20
29.1054212782118
 30
0.0
 10
0.8367445203993055
 20
29.1054212782118
 30
0.0
 10
1.783223470052083
 20
29.1054212782118
 30
0.0
 10
1.783223470052083
 20
29.1054212782118
 30
0.0
 10
1.783223470052083
 20
29.1054212782118
 30
0.0
 10
1.783223470052083
 20
23.85125223795573
 30
0.0
 10
1.783223470052083
 20
23.85125223795573
 30
0.0
 10
1.783223470052083
 20
23.85125223795573
 30
0.0
 10
0.8367445203993055
 20
23.85125223795573
 30
0.0
 10
0.8367445203993055
 20
23.85125223795573
 30
0.0
 10
0.8367445203993055
 20
23.85125223795573
 30
0.0
 10
0.8367445203993055
 20
21.76414828830295
 30
0.0
 10
0.8367445203993055
 20
21.76414828830295
 30
0.0
 10
0.8367445203993055
 20
21.76414828830295
 30
0.0
 10
1.432805379231771
 20
21.76414828830295
 30
0.0
 10
1.432805379231771
 20
21.76414828830295
 30
0.0
 10
1.432805379231771
 20
21.76414828830295
 30
0.0
 10
1.432805379231771
 20
21.55414835611979
 30
0.0
 10
1.432805379231771
 20
21.55414835611979
 30
0.0
 10
1.432805379231771
 20
21.55414835611979
 30
0.0
 10
5.014667087131076
 20
21.55414835611979
 30
0.0
 10
5.014667087131076
 20
21.55414835611979
 30
0.0
 10
5.014667087131076
 20
21.55414835611979
 30
0.0
 10
5.014667087131076
 20
21.76414828830295
 30
0.0
 10
5.014667087131076
 20
21.76414828830295
 30
0.0
 10
5.014667087131076
 20
21.76414828830295
 30
0.0
 10
5.763285319010416
 20
21.76414828830295
 30
0.0
 10
5.763285319010416
 20
21.76414828830295
 30
0.0
 10
5.763285319010416
 20
21.76414828830295
 30
0.0
 10
5.763285319010416
 20
23.85125223795573
 30
0.0
 10
5.763285319010416
 20
23.85125223795573
 30
0.0
 10
5.763285319010416
 20
23.85125223795573
 30
0.0
 10
4.816819932725694
 20
23.85125223795573
 30
0.0
 10
4.816819932725694
 20
23.85125223795573
 30
0.0
 10
4.816819932725694
 20
23.85125223795573
 30
0.0
 10
4.816819932725694
 20
25.80487908257378
 30
0.0
 10
4.816819932725694
 20
25.80487908257378
 30
0.0
 10
4.816819932725694
 20
25.80487908257378
 30
0.0
 10
5.532735188802083
 20
25.80487908257378
 30
0.0
 10
5.532735188802083
 20
25.80487908257378
 30
0.0
 10
5.953267415364583
 20
25.80487908257378
 30
0.0
 10
6.242601182725694
 20
25.68751525878906
 30
0.0
 10
6.400343153211805
 20
25.45299106174045
 30
0.0
 10
6.558085123697916
 20
25.21826341417101
 30
0.0
 10
6.636969672309028
 20
24.85840013292101
 30
0.0
 10
6.636969672309028
 20
24.37303500705295
 30
0.0
 10
6.636969672309028
 20
23.52362908257378
 30
0.0
 10
6.707689073350694
 20
22.91691250271267
 30
0.0
 10
6.849317762586805
 20
22.55288526746962
 30
0.0
 10
6.990756564670138
 20
22.18884446885851
 30
0.0
 10
7.195142957899305
 20
21.96625603569878
 30
0.0
 10
7.46209716796875
 20
21.88548617892795
 30
0.0
 10
7.729051378038194
 20
21.80452643500434
 30
0.0
 10
8.169874403211805
 20
21.76414828830295
 30
0.0
 10
8.784742567274305
 20
21.76414828830295
 30
0.0
 10
8.784742567274305
 20
21.76414828830295
 30
0.0
 10
8.753732469346788
 20
21.76414828830295
 30
0.0
 10
8.753732469346788
 20
21.76414828830295
 30
0.0
 10
8.753732469346788
 20
21.76414828830295
 30
0.0
 10
8.753732469346788
 20
21.55414835611979
 30
0.0
 10
8.753732469346788
 20
21.55414835611979
 30
0.0
 10
8.753732469346788
 20
21.55414835611979
 30
0.0
 10
10.38346354166667
 20
21.55414835611979
 30
0.0
 10
10.38346354166667
 20
21.55414835611979
 30
0.0
 10
10.38346354166667
 20
21.55414835611979
 30
0.0
 10
10.38346354166667
 20
21.76414828830295
 30
0.0
 10
10.38346354166667
 20
21.76414828830295
 30
0.0
 10
10.38346354166667
 20
21.76414828830295
 30
0.0
 10
10.68983968098958
 20
21.76414828830295
 30
0.0
 10
10.68983968098958
 20
21.76414828830295
 30
0.0
 10
10.68983968098958
 20
21.76414828830295
 30
0.0
 10
10.68983968098958
 20
23.88765631781684
 30
0.0
 10
10.68983968098958
 20
23.88765631781684
 30
0.0
 10
10.68983968098958
 20
23.88765631781684
 30
0.0
 10
9.367194281684027
 20
23.88765631781684
 30
0.0
 10
9.367194281684027
 20
23.88765631781684
 30
0.0
  0
SPLINE
  5
75
330
1F
100
AcDbEntity
  8
Layer 1
 62
     7
420
 16777215
370
    70
100
AcDbSpline
210
0.0
220
0.0
230
1.0
 70
    11
 71
     3
 72
    26
 73
    22
 74
     0
 42
0.0000000001
 43
0.0000000001
 12
1.0
 22
0.0
 32
0.0
 13
1.0
 23
0.0
 33
0.0
 40
0.0
 40
0.0
 40
0.0
 40
0.0
 40
1.0
 40
1.0
 40
1.0
 40
2.0
 40
2.0
 40
2.0
 40
3.0
 40
3.0
 40
3.0
 40
4.0
 40
4.0
 40
4.0
 40
5.0
 40
5.0
 40
5.0
 40
6.0
 40
6.0
 40
6.0
 40
7.0
 40
7.0
 40
7.0
 40
7.0
 10
6.588426378038194
 20
27.38234625922309
 30
0.0
 10
6.377977159288194
 20
27.22858513726128
 30
0.0
 10
6.058492024739583
 20
27.15179612901476
 30
0.0
 10
5.629808213975694
 20
27.15179612901476
 30
0.0
 10
5.629808213975694
 20
27.15179612901476
 30
0.0
 10
4.816819932725694
 20
27.15179612901476
 30
0.0
 10
4.816819932725694
 20
27.15179612901476
 30
0.0
 10
4.816819932725694
 20
27.15179612901476
 30
0.0
 10
4.816819932725694
 20
29.1054212782118
 30
0.0
 10
4.816819932725694
 20
29.1054212782118
 30
0.0
 10
4.816819932725694
 20
29.1054212782118
 30
0.0
 10
5.75115966796875
 20
29.1054212782118
 30
0.0
 10
5.75115966796875
 20
29.1054212782118
 30
0.0
 10
6.090922037760416
 20
29.1054212782118
 30
0.0
 10
6.367926703559028
 20
29.02446831597222
 30
0.0
 10
6.582363552517361
 20
28.86273871527778
 30
0.0
 10
6.796610514322916
 20
28.70081922743055
 30
0.0
 10
6.903923882378471
 20
28.47842068142361
 30
0.0
 10
6.903923882378471
 20
28.19534810384114
 30
0.0
 10
6.903923882378471
 20
27.80704922146267
 30
0.0
 10
6.798699273003471
 20
27.53592427571614
 30
0.0
 10
6.588426378038194
 20
27.38234625922309
 30
0.0
  0
ENDSEC
  0
SECTION
  2
OBJECTS
  0
DICTIONARY
  5
C
330
0
100
AcDbDictionary
281
     1
  3
ACAD_GROUP
350
D
  3
ACAD_LAYOUT
350
1A
  3
ACAD_MATERIAL
350
3B
  3
ACAD_MLEADERSTYLE
350
77
  3
ACAD_MLINESTYLE
350
17
  3
ACAD_PLOTSETTINGS
350
19
  3
ACAD_PLOTSTYLENAME
350
E
  3
ACAD_TABLESTYLE
350
76
  3
ACAD_VISUALSTYLE
350
2A
  0
SUN
  5
3F
330
29
100
AcDbSun
 90
        1
290
     0
 63
     7
421
 16777215
 40
1.0
291
     1
 91
  2455826
 92
 54000000
292
     0
 70
     2
 71
   256
280
     1
  0
DICTIONARY
  5
D
102
{ACAD_REACTORS
330
C
102
}
330
C
100
AcDbDictionary
281
     1
  0
DICTIONARY
  5
1A
102
{ACAD_REACTORS
330
C
102
}
330
C
100
AcDbDictionary
281
     1
  3
Layout1
350
1E
  3
Layout2
350
26
  3
Model
350
22
  0
DICTIONARY
  5
3B
102
{ACAD_REACTORS
330
C
102
}
330
C
100
AcDbDictionary
281
     1
  3
ByBlock
350
3D
  3
ByLayer
350
3C
  3
Global
350
3E
  0
DICTIONARY
  5
77
102
{ACAD_REACTORS
330
C
102
}
330
C
100
AcDbDictionary
281
     1
  0
DICTIONARY
  5
17
102
{ACAD_REACTORS
330
C
102
}
330
C
100
AcDbDictionary
281
     1
  3
Standard
350
18
  0
DICTIONARY
  5
19
102
{ACAD_REACTORS
330
C
102
}
330
C
100
AcDbDictionary
281
     1
  0
ACDBDICTIONARYWDFLT
  5
E
102
{ACAD_REACTORS
330
C
102
}
330
C
100
AcDbDictionary
281
     1
  3
Normal
350
F
100
AcDbDictionaryWithDefault
340
F
  0
DICTIONARY
  5
76
102
{ACAD_REACTORS
330
C
102
}
330
C
100
AcDbDictionary
281
     1
  0
DICTIONARY
  5
2A
102
{ACAD_REACTORS
330
C
102
}
330
C
100
AcDbDictionary
281
     1
  3
2dWireframe
350
2F
  3
3D Hidden
350
31
  3
3dWireframe
350
30
  3
Basic
350
32
  3
Brighten
350
36
  3
ColorChange
350
3A
  3
Conceptual
350
34
  3
Dim
350
35
  3
Facepattern
350
39
  3
Flat
350
2B
  3
FlatWithEdges
350
2C
  3
Gouraud
350
2D
  3
GouraudWithEdges
350
2E
  3
Linepattern
350
38
  3
Realistic
350
33
  3
Thicken
350
37
  0
LAYOUT
  5
1E
102
{ACAD_REACTORS
330
1A
102
}
330
1A
100
AcDbPlotSettings
  1

  2
none_device
  4

  6

 40
0.0
 41
0.0
 42
0.0
 43
0.0
 44
0.0
 45
0.0
 46
0.0
 47
0.0
 48
0.0
 49
0.0
140
0.0
141
0.0
142
1.0
143
1.0
 70
   688
 72
     0
 73
     0
 74
     5
  7

 75
    16
 76
     0
 77
     2
 78
   300
147
1.0
148
0.0
149
0.0
100
AcDbLayout
  1
Layout1
 70
     1
 71
     1
 10
0.0
 20
0.0
 11
12.0
 21
9.0
 12
0.0
 22
0.0
 32
0.0
 14
1.000000000000000E+20
 24
1.000000000000000E+20
 34
1.000000000000000E+20
 15
-1.000000000000000E+20
 25
-1.000000000000000E+20
 35
-1.000000000000000E+20
146
0.0
 13
0.0
 23
0.0
 33
0.0
 16
1.0
 26
0.0
 36
0.0
 17
0.0
 27
1.0
 37
0.0
 76
     0
330
1B
  0
LAYOUT
  5
26
102
{ACAD_REACTORS
330
1A
102
}
330
1A
100
AcDbPlotSettings
  1

  2
none_device
  4

  6

 40
0.0
 41
0.0
 42
0.0
 43
0.0
 44
0.0
 45
0.0
 46
0.0
 47
0.0
 48
0.0
 49
0.0
140
0.0
141
0.0
142
1.0
143
1.0
 70
   688
 72
     0
 73
     0
 74
     5
  7

 75
    16
 76
     0
 77
     2
 78
   300
147
1.0
148
0.0
149
0.0
100
AcDbLayout
  1
Layout2
 70
     1
 71
     2
 10
0.0
 20
0.0
 11
0.0
 21
0.0
 12
0.0
 22
0.0
 32
0.0
 14
0.0
 24
0.0
 34
0.0
 15
0.0
 25
0.0
 35
0.0
146
0.0
 13
0.0
 23
0.0
 33
0.0
 16
1.0
 26
0.0
 36
0.0
 17
0.0
 27
1.0
 37
0.0
 76
     0
330
23
  0
LAYOUT
  5
22
102
{ACAD_REACTORS
330
1A
102
}
330
1A
100
AcDbPlotSettings
  1

  2
none_device
  4

  6

 40
0.0
 41
0.0
 42
0.0
 43
0.0
 44
0.0
 45
0.0
 46
0.0
 47
0.0
 48
0.0
 49
0.0
140
0.0
141
0.0
142
1.0
143
1.0
 70
  1712
 72
     0
 73
     0
 74
     0
  7

 75
     0
 76
     0
 77
     2
 78
   300
147
1.0
148
0.0
149
0.0
100
AcDbLayout
  1
Model
 70
     1
 71
     0
 10
0.0
 20
0.0
 11
12.0
 21
9.0
 12
0.0
 22
0.0
 32
0.0
 14
1.000000000000000E+20
 24
1.000000000000000E+20
 34
1.000000000000000E+20
 15
-1.000000000000000E+20
 25
-1.000000000000000E+20
 35
-1.000000000000000E+20
146
0.0
 13
0.0
 23
0.0
 33
0.0
 16
1.0
 26
0.0
 36
0.0
 17
0.0
 27
1.0
 37
0.0
 76
     0
330
1F
331
29
  0
MATERIAL
  5
3D
102
{ACAD_REACTORS
330
3B
102
}
330
3B
100
AcDbMaterial
  1
ByBlock
 72
     1
 94
      127
  0
MATERIAL
  5
3C
102
{ACAD_REACTORS
330
3B
102
}
330
3B
100
AcDbMaterial
  1
ByLayer
 72
     1
 94
      127
  0
MATERIAL
  5
3E
102
{ACAD_REACTORS
330
3B
102
}
330
3B
100
AcDbMaterial
  1
Global
 72
     1
 94
      127
  0
MLINESTYLE
  5
18
102
{ACAD_REACTORS
330
17
102
}
330
17
100
AcDbMlineStyle
  2
Standard
 70
     0
  3

 62
   256
 51
90.0
 52
90.0
 71
     2
 49
0.5
 62
   256
  6
BYLAYER
 49
-0.5
 62
   256
  6
BYLAYER
  0
ACDBPLACEHOLDER
  5
F
102
{ACAD_REACTORS
330
E
102
}
330
E
  0
VISUALSTYLE
  5
2F
102
{ACAD_REACTORS
330
2A
102
}
330
2A
100
AcDbVisualStyle
  2
2dWireframe
 70
     4
177
     2
291
     0
 71
     0
176
     1
 72
     2
176
     1
 73
     0
176
     1
 90
        0
176
     1
 40
-0.6
176
     1
 41
-30.0
176
     1
 62
     5
 63
     7
421
 16777215
176
     1
 74
     1
176
     1
 91
        4
176
     1
 64
     7
176
     1
 65
   257
176
     1
 75
     1
176
     1
175
     1
176
     1
 42
1.0
176
     1
 92
        0
176
     1
 66
   257
176
     1
 43
1.0
176
     1
 76
     1
176
     1
 77
     6
176
     1
 78
     2
176
     1
 67
     7
176
     1
 79
     5
176
     1
170
     0
176
     1
171
     0
176
     1
290
     0
176
     1
 93
        1
176
     1
 44
0.0
176
     1
173
     0
176
     1
  0
VISUALSTYLE
  5
31
102
{ACAD_REACTORS
330
2A
102
}
330
2A
100
AcDbVisualStyle
  2
3D Hidden
 70
     6
177
     2
291
     0
 71
     1
176
     1
 72
     2
176
     1
 73
     2
176
     1
 90
        0
176
     1
 40
-0.6
176
     1
 41
-30.0
176
     1
 62
     5
 63
     7
421
 16777215
176
     1
 74
     2
176
     1
 91
        2
176
     1
 64
     7
176
     1
 65
   257
176
     1
 75
     2
176
     1
175
     1
176
     1
 42
40.0
176
     1
 92
        0
176
     1
 66
   257
176
     1
 43
1.0
176
     1
 76
     1
176
     1
 77
     6
176
     1
 78
     2
176
     1
 67
     7
176
     1
 79
     3
176
     1
170
     0
176
     1
171
     0
176
     1
290
     0
176
     1
 93
        1
176
     1
 44
0.0
176
     1
173
     0
176
     1
  0
VISUALSTYLE
  5
30
102
{ACAD_REACTORS
330
2A
102
}
330
2A
100
AcDbVisualStyle
  2
3dWireframe
 70
     5
177
     2
291
     0
 71
     0
176
     1
 72
     2
176
     1
 73
     0
176
     1
 90
        0
176
     1
 40
-0.6
176
     1
 41
-30.0
176
     1
 62
     5
 63
     7
421
 16777215
176
     1
 74
     1
176
     1
 91
        4
176
     1
 64
     7
176
     1
 65
   257
176
     1
 75
     1
176
     1
175
     1
176
     1
 42
1.0
176
     1
 92
        0
176
     1
 66
   257
176
     1
 43
1.0
176
     1
 76
     1
176
     1
 77
     6
176
     1
 78
     2
176
     1
 67
     7
176
     1
 79
     5
176
     1
170
     0
176
     1
171
     0
176
     1
290
     0
176
     1
 93
        1
176
     1
 44
0.0
176
     1
173
     0
176
     1
  0
VISUALSTYLE
  5
32
102
{ACAD_REACTORS
330
2A
102
}
330
2A
100
AcDbVisualStyle
  2
Basic
 70
     7
177
     2
291
     1
 71
     1
176
     1
 72
     0
176
     1
 73
     1
176
     1
 90
        0
176
     1
 40
-0.6
176
     1
 41
-30.0
176
     1
 62
     5
 63
     7
421
 16777215
176
     1
 74
     0
176
     1
 91
        4
176
     1
 64
     7
176
     1
 65
   257
176
     1
 75
     1
176
     1
175
     1
176
     1
 42
1.0
176
     1
 92
        8
176
     1
 66
     7
176
     1
 43
1.0
176
     1
 76
     1
176
     1
 77
     6
176
     1
 78
     2
176
     1
 67
     7
176
     1
 79
     5
176
     1
170
     0
176
     1
171
     0
176
     1
290
     0
176
     1
 93
        1
176
     1
 44
0.0
176
     1
173
     0
176
     1
  0
VISUALSTYLE
  5
36
102
{ACAD_REACTORS
330
2A
102
}
330
2A
100
AcDbVisualStyle
  2
Brighten
 70
    12
177
     2
291
     1
 71
     2
176
     1
 72
     2
176
     1
 73
     0
176
     1
 90
        0
176
     1
 40
-0.6
176
     1
 41
-30.0
176
     1
 62
     5
 63
     7
421
 16777215
176
     1
 74
     1
176
     1
 91
        4
176
     1
 64
     7
176
     1
 65
   257
176
     1
 75
     1
176
     1
175
     1
176
     1
 42
1.0
176
     1
 92
        8
176
     1
 66
     7
176
     1
 43
1.0
176
     1
 76
     1
176
     1
 77
     6
176
     1
 78
     2
176
     1
 67
     7
176
     1
 79
     5
176
     1
170
     0
176
     1
171
     0
176
     1
290
     0
176
     1
 93
        1
176
     1
 44
50.0
176
     1
173
     0
176
     1
  0
VISUALSTYLE
  5
3A
102
{ACAD_REACTORS
330
2A
102
}
330
2A
100
AcDbVisualStyle
  2
ColorChange
 70
    16
177
     2
291
     1
 71
     2
176
     1
 72
     2
176
     1
 73
     3
176
     1
 90
        0
176
     1
 40
-0.6
176
     1
 41
-30.0
176
     1
 62
     5
 63
     8
421
  8421504
176
     1
 74
     1
176
     1
 91
        4
176
     1
 64
     7
176
     1
 65
   257
176
     1
 75
     1
176
     1
175
     1
176
     1
 42
1.0
176
     1
 92
        8
176
     1
 66
     8
424
  8421504
176
     1
 43
1.0
176
     1
 76
     1
176
     1
 77
     6
176
     1
 78
     2
176
     1
 67
     7
176
     1
 79
     5
176
     1
170
     0
176
     1
171
     0
176
     1
290
     0
176
     1
 93
        1
176
     1
 44
0.0
176
     1
173
     0
176
     1
  0
VISUALSTYLE
  5
34
102
{ACAD_REACTORS
330
2A
102
}
330
2A
100
AcDbVisualStyle
  2
Conceptual
 70
     9
177
     2
291
     0
 71
     3
176
     1
 72
     2
176
     1
 73
     0
176
     1
 90
        0
176
     1
 40
-0.6
176
     1
 41
-30.0
176
     1
 62
     5
 63
     7
421
 16777215
176
     1
 74
     2
176
     1
 91
        2
176
     1
 64
     7
176
     1
 65
   257
176
     1
 75
     1
176
     1
175
     1
176
     1
 42
40.0
176
     1
 92
        8
176
     1
 66
     7
176
     1
 43
1.0
176
     1
 76
     1
176
     1
 77
     6
176
     1
 78
     2
176
     1
 67
     7
176
     1
 79
     3
176
     1
170
     0
176
     1
171
     0
176
     1
290
     0
176
     1
 93
        1
176
     1
 44
0.0
176
     1
173
     0
176
     1
  0
VISUALSTYLE
  5
35
102
{ACAD_REACTORS
330
2A
102
}
330
2A
100
AcDbVisualStyle
  2
Dim
 70
    11
177
     2
291
     1
 71
     2
176
     1
 72
     2
176
     1
 73
     0
176
     1
 90
        0
176
     1
 40
-0.6
176
     1
 41
-30.0
176
     1
 62
     5
 63
     7
421
 16777215
176
     1
 74
     1
176
     1
 91
        4
176
     1
 64
     7
176
     1
 65
   257
176
     1
 75
     1
176
     1
175
     1
176
     1
 42
1.0
176
     1
 92
        8
176
     1
 66
     7
176
     1
 43
1.0
176
     1
 76
     1
176
     1
 77
     6
176
     1
 78
     2
176
     1
 67
     7
176
     1
 79
     5
176
     1
170
     0
176
     1
171
     0
176
     1
290
     0
176
     1
 93
        1
176
     1
 44
-50.0
176
     1
173
     0
176
     1
  0
VISUALSTYLE
  5
39
102
{ACAD_REACTORS
330
2A
102
}
330
2A
100
AcDbVisualStyle
  2
Facepattern
 70
    15
177
     2
291
     1
 71
     2
176
     1
 72
     2
176
     1
 73
     0
176
     1
 90
        0
176
     1
 40
-0.6
176
     1
 41
-30.0
176
     1
 62
     5
 63
     7
421
 16777215
176
     1
 74
     1
176
     1
 91
        4
176
     1
 64
     7
176
     1
 65
   257
176
     1
 75
     1
176
     1
175
     1
176
     1
 42
1.0
176
     1
 92
        8
176
     1
 66
     7
176
     1
 43
1.0
176
     1
 76
     1
176
     1
 77
     6
176
     1
 78
     2
176
     1
 67
     7
176
     1
 79
     5
176
     1
170
     0
176
     1
171
     0
176
     1
290
     0
176
     1
 93
        1
176
     1
 44
0.0
176
     1
173
     0
176
     1
  0
VISUALSTYLE
  5
2B
102
{ACAD_REACTORS
330
2A
102
}
330
2A
100
AcDbVisualStyle
  2
Flat
 70
     0
177
     2
291
     1
 71
     2
176
     1
 72
     1
176
     1
 73
     1
176
     1
 90
        2
176
     1
 40
-0.6
176
     1
 41
30.0
176
     1
 62
     5
 63
     7
421
 16777215
176
     1
 74
     0
176
     1
 91
        4
176
     1
 64
     7
176
     1
 65
   257
176
     1
 75
     1
176
     1
175
     1
176
     1
 42
1.0
176
     1
 92
        8
176
     1
 66
     7
176
     1
 43
1.0
176
     1
 76
     1
176
     1
 77
     6
176
     1
 78
     2
176
     1
 67
     7
176
     1
 79
     5
176
     1
170
     0
176
     1
171
     0
176
     1
290
     0
176
     1
 93
       13
176
     1
 44
0.0
176
     1
173
     0
176
     1
  0
VISUALSTYLE
  5
2C
102
{ACAD_REACTORS
330
2A
102
}
330
2A
100
AcDbVisualStyle
  2
FlatWithEdges
 70
     1
177
     2
291
     1
 71
     2
176
     1
 72
     1
176
     1
 73
     1
176
     1
 90
        2
176
     1
 40
-0.6
176
     1
 41
30.0
176
     1
 62
     5
 63
     7
421
 16777215
176
     1
 74
     1
176
     1
 91
        4
176
     1
 64
     7
176
     1
 65
   257
176
     1
 75
     1
176
     1
175
     1
176
     1
 42
1.0
176
     1
 92
        0
176
     1
 66
   257
176
     1
 43
1.0
176
     1
 76
     1
176
     1
 77
     6
176
     1
 78
     2
176
     1
 67
     7
176
     1
 79
     5
176
     1
170
     0
176
     1
171
     0
176
     1
290
     0
176
     1
 93
       13
176
     1
 44
0.0
176
     1
173
     0
176
     1
  0
VISUALSTYLE
  5
2D
102
{ACAD_REACTORS
330
2A
102
}
330
2A
100
AcDbVisualStyle
  2
Gouraud
 70
     2
177
     2
291
     1
 71
     2
176
     1
 72
     2
176
     1
 73
     1
176
     1
 90
        2
176
     1
 40
-0.6
176
     1
 41
30.0
176
     1
 62
     5
 63
     7
421
 16777215
176
     1
 74
     0
176
     1
 91
        4
176
     1
 64
     7
176
     1
 65
   257
176
     1
 75
     1
176
     1
175
     1
176
     1
 42
1.0
176
     1
 92
        0
176
     1
 66
     7
176
     1
 43
1.0
176
     1
 76
     1
176
     1
 77
     6
176
     1
 78
     2
176
     1
 67
     7
176
     1
 79
     5
176
     1
170
     0
176
     1
171
     0
176
     1
290
     0
176
     1
 93
       13
176
     1
 44
0.0
176
     1
173
     0
176
     1
  0
VISUALSTYLE
  5
2E
102
{ACAD_REACTORS
330
2A
102
}
330
2A
100
AcDbVisualStyle
  2
GouraudWithEdges
 70
     3
177
     2
291
     1
 71
     2
176
     1
 72
     2
176
     1
 73
     1
176
     1
 90
        2
176
     1
 40
-0.6
176
     1
 41
30.0
176
     1
 62
     5
 63
     7
421
 16777215
176
     1
 74
     1
176
     1
 91
        4
176
     1
 64
     7
176
     1
 65
   257
176
     1
 75
     1
176
     1
175
     1
176
     1
 42
1.0
176
     1
 92
        0
176
     1
 66
   257
176
     1
 43
1.0
176
     1
 76
     1
176
     1
 77
     6
176
     1
 78
     2
176
     1
 67
     7
176
     1
 79
     5
176
     1
170
     0
176
     1
171
     0
176
     1
290
     0
176
     1
 93
       13
176
     1
 44
0.0
176
     1
173
     0
176
     1
  0
VISUALSTYLE
  5
38
102
{ACAD_REACTORS
330
2A
102
}
330
2A
100
AcDbVisualStyle
  2
Linepattern
 70
    14
177
     2
291
     1
 71
     2
176
     1
 72
     2
176
     1
 73
     0
176
     1
 90
        0
176
     1
 40
-0.6
176
     1
 41
-30.0
176
     1
 62
     5
 63
     7
421
 16777215
176
     1
 74
     1
176
     1
 91
        4
176
     1
 64
     7
176
     1
 65
   257
176
     1
 75
     7
176
     1
175
     7
176
     1
 42
1.0
176
     1
 92
        8
176
     1
 66
     7
176
     1
 43
1.0
176
     1
 76
     1
176
     1
 77
     6
176
     1
 78
     2
176
     1
 67
     7
176
     1
 79
     5
176
     1
170
     0
176
     1
171
     0
176
     1
290
     0
176
     1
 93
        1
176
     1
 44
0.0
176
     1
173
     0
176
     1
  0
VISUALSTYLE
  5
33
102
{ACAD_REACTORS
330
2A
102
}
330
2A
100
AcDbVisualStyle
  2
Realistic
 70
     8
177
     2
291
     0
 71
     2
176
     1
 72
     2
176
     1
 73
     0
176
     1
 90
        0
176
     1
 40
-0.6
176
     1
 41
-30.0
176
     1
 62
     5
 63
     7
421
 16777215
176
     1
 74
     1
176
     1
 91
        0
176
     1
 64
     7
176
     1
 65
   257
176
     1
 75
     1
176
     1
175
     1
176
     1
 42
1.0
176
     1
 92
        8
176
     1
 66
     8
424
  7895160
176
     1
 43
1.0
176
     1
 76
     1
176
     1
 77
     6
176
     1
 78
     2
176
     1
 67
     7
176
     1
 79
     5
176
     1
170
     0
176
     1
171
     0
176
     1
290
     0
176
     1
 93
       13
176
     1
 44
0.0
176
     1
173
     0
176
     1
  0
VISUALSTYLE
  5
37
102
{ACAD_REACTORS
330
2A
102
}
330
2A
100
AcDbVisualStyle
  2
Thicken
 70
    13
177
     2
291
     1
 71
     2
176
     1
 72
     2
176
     1
 73
     0
176
     1
 90
        0
176
     1
 40
-0.6
176
     1
 41
-30.0
176
     1
 62
     5
 63
     7
421
 16777215
176
     1
 74
     1
176
     1
 91
        4
176
     1
 64
     7
176
     1
 65
   257
176
     1
 75
     1
176
     1
175
     1
176
     1
 42
1.0
176
     1
 92
       12
176
     1
 66
     7
176
     1
 43
1.0
176
     1
 76
     1
176
     1
 77
     6
176
     1
 78
     2
176
     1
 67
     7
176
     1
 79
     5
176
     1
170
     0
176
     1
171
     0
176
     1
290
     0
176
     1
 93
        1
176
     1
 44
0.0
176
     1
173
     0
176
     1
  0
ENDSEC
  0
EOF
