<?xml version="1.0" encoding="utf-8"?>
<!-- Generator: Adobe Illustrator 25.0.0, SVG Export Plug-In . SVG Version: 6.00 Build 0)  -->
<svg version="1.1" id="Layer_1" xmlns="http://www.w3.org/2000/svg" xmlns:xlink="http://www.w3.org/1999/xlink" x="0px" y="0px"
	 width="1567.251px" height="2326.86px" viewBox="0 0 1567.251 2326.86" style="enable-background:new 0 0 1567.251 2326.86;"
	 xml:space="preserve">
<style type="text/css">
	.st0{fill:none;stroke:#000000;stroke-width:1.657;stroke-miterlimit:10;}
	.st1{enable-background:new    ;}
	.st2{fill:none;stroke:#000000;stroke-width:2;stroke-miterlimit:10;}
</style>
<path class="st0" d="M772.78,564.293v126.508h468.146V564.293H772.78z M1109.024,605.863H897.89v-15.12h211.133v15.12H1109.024z"/>
<g class="st1">
	<path class="st2" d="M267.364,2277.302l-151.539-520.917H46.081V1608.29h363.351v148.095h-48.218l84.381,303.94l74.047-303.94
		h-55.105V1608.29h291.887v148.095h-75.771l-167.038,520.917H267.364z"/>
	<polygon class="st2" points="286.277,2252.102 134.738,1731.186 71.281,1731.186 71.281,1633.49 384.231,1633.49 384.231,1731.186 
		328.064,1731.186 447.186,2160.259 551.718,1731.186 489.736,1731.186 489.736,1633.49 731.223,1633.49 731.223,1731.186 
		662.269,1731.186 495.231,2252.102 	"/>
</g>
<g class="st1">
	<path class="st2" d="M1028.66,2277.302l-151.539-520.917h-69.743V1608.29h363.351v148.095h-48.218l84.381,303.94l74.047-303.94
		h-55.105V1608.29h291.887v148.095h-75.771l-167.038,520.917H1028.66z"/>
</g>
<g>
	<polygon class="st2" points="409.432,893.097 313.486,893.097 313.486,918.297 384.231,918.297 384.231,1015.992 328.064,1015.992 
		447.185,1445.066 551.718,1015.992 489.736,1015.992 489.736,918.297 531.956,918.297 531.956,893.097 464.536,893.097 
		464.536,1041.193 519.642,1041.193 445.595,1345.132 361.214,1041.193 409.432,1041.193 	"/>
	<polygon class="st2" points="692.311,893.097 692.311,918.297 731.222,918.297 731.222,1015.992 662.269,1015.992 
		495.231,1536.908 286.277,1536.908 134.738,1015.992 71.281,1015.992 71.281,918.297 153.132,918.297 153.132,893.097 
		46.081,893.097 46.081,1041.193 115.824,1041.193 267.363,1562.109 513.614,1562.109 680.652,1041.193 756.423,1041.193 
		756.423,893.097 	"/>
</g>
<g>
	<polygon class="st2" points="1170.728,893.097 1074.783,893.097 1074.783,918.297 1145.528,918.297 1145.528,1015.992 
		1089.361,1015.992 1208.482,1445.066 1313.014,1015.992 1251.032,1015.992 1251.032,918.297 1293.252,918.297 1293.252,893.097 
		1225.833,893.097 1225.833,1041.193 1280.938,1041.193 1206.891,1345.132 1122.51,1041.193 1170.728,1041.193 	"/>
	<polygon class="st2" points="1453.607,893.097 1453.607,918.297 1492.519,918.297 1492.519,1015.992 1423.565,1015.992 
		1256.527,1536.908 1047.573,1536.908 896.034,1015.992 832.577,1015.992 832.577,918.297 914.428,918.297 914.428,893.097 
		807.377,893.097 807.377,1041.193 877.121,1041.193 1028.66,1562.109 1274.911,1562.109 1441.949,1041.193 1517.719,1041.193 
		1517.719,893.097 	"/>
</g>
<polygon class="st2" points="503.621,69.537 503.621,217.632 558.726,217.632 484.679,521.572 400.298,217.632 448.516,217.632 
	448.516,69.537 85.166,69.537 85.166,217.632 154.909,217.632 306.448,738.549 323.931,738.549 323.931,753.13 534.407,753.13 
	534.407,738.549 552.699,738.549 719.737,217.632 795.507,217.632 795.507,69.537 "/>
</svg>
