  0
SECTION
  2
HEADER
  9
$ACADVER
  1
AC1024
  9
$ACADMAINTVER
 70
     6
  9
$DWGCODEPAGE
  3
UNDEFINED
  9
$INSBASE
 10
0.0
 20
0.0
 30
0.0
  9
$EXTMIN
 10
1.000000000000000E+20
 20
1.000000000000000E+20
 30
1.000000000000000E+20
  9
$EXTMAX
 10
-1.000000000000000E+20
 20
-1.000000000000000E+20
 30
-1.000000000000000E+20
  9
$LIMMIN
 10
0.0
 20
0.0
  9
$LIMMAX
 10
12.0
 20
9.0
  9
$ORTHOMODE
 70
     0
  9
$REGENMODE
 70
     1
  9
$FILLMODE
 70
     1
  9
$QTEXTMODE
 70
     0
  9
$MIRRTEXT
 70
     1
  9
$LTSCALE
 40
1.0
  9
$ATTMODE
 70
     1
  9
$TEXTSIZE
 40
0.2
  9
$TRACEWID
 40
0.05
  9
$TEXTSTYLE
  7
Standard
  9
$CLAYER
  8
0
  9
$CELTYPE
  6
ByLayer
  9
$CECOLOR
 62
   256
  9
$CELTSCALE
 40
1.0
  9
$DISPSILH
 70
     0
  9
$DIMSCALE
 40
1.0
  9
$DIMASZ
 40
0.18
  9
$DIMEXO
 40
0.0625
  9
$DIMDLI
 40
0.38
  9
$DIMRND
 40
0.0
  9
$DIMDLE
 40
0.0
  9
$DIMEXE
 40
0.18
  9
$DIMTP
 40
0.0
  9
$DIMTM
 40
0.0
  9
$DIMTXT
 40
0.18
  9
$DIMCEN
 40
0.09
  9
$DIMTSZ
 40
0.0
  9
$DIMTOL
 70
     0
  9
$DIMLIM
 70
     0
  9
$DIMTIH
 70
     1
  9
$DIMTOH
 70
     1
  9
$DIMSE1
 70
     0
  9
$DIMSE2
 70
     0
  9
$DIMTAD
 70
     0
  9
$DIMZIN
 70
     0
  9
$DIMBLK
  1

  9
$DIMASO
 70
     1
  9
$DIMSHO
 70
     1
  9
$DIMPOST
  1

  9
$DIMAPOST
  1

  9
$DIMALT
 70
     0
  9
$DIMALTD
 70
     2
  9
$DIMALTF
 40
25.4
  9
$DIMLFAC
 40
1.0
  9
$DIMTOFL
 70
     0
  9
$DIMTVP
 40
0.0
  9
$DIMTIX
 70
     0
  9
$DIMSOXD
 70
     0
  9
$DIMSAH
 70
     0
  9
$DIMBLK1
  1

  9
$DIMBLK2
  1

  9
$DIMSTYLE
  2
Standard
  9
$DIMCLRD
 70
     0
  9
$DIMCLRE
 70
     0
  9
$DIMCLRT
 70
     0
  9
$DIMTFAC
 40
1.0
  9
$DIMGAP
 40
0.09
  9
$DIMJUST
 70
     0
  9
$DIMSD1
 70
     0
  9
$DIMSD2
 70
     0
  9
$DIMTOLJ
 70
     1
  9
$DIMTZIN
 70
     0
  9
$DIMALTZ
 70
     0
  9
$DIMALTTZ
 70
     0
  9
$DIMUPT
 70
     0
  9
$DIMDEC
 70
     4
  9
$DIMTDEC
 70
     4
  9
$DIMALTU
 70
     2
  9
$DIMALTTD
 70
     2
  9
$DIMTXSTY
  7
Standard
  9
$DIMAUNIT
 70
     0
  9
$DIMADEC
 70
     0
  9
$DIMALTRND
 40
0.0
  9
$DIMAZIN
 70
     0
  9
$DIMDSEP
 70
    46
  9
$DIMATFIT
 70
     3
  9
$DIMFRAC
 70
     0
  9
$DIMLDRBLK
  1

  9
$DIMLUNIT
 70
     2
  9
$DIMLWD
 70
    -2
  9
$DIMLWE
 70
    -2
  9
$DIMTMOVE
 70
     0
  9
$DIMFXL
 40
1.0
  9
$DIMFXLON
 70
     0
  9
$DIMJOGANG
 40
0.7853981633974483
  9
$DIMTFILL
 70
     0
  9
$DIMTFILLCLR
 70
     0
  9
$DIMARCSYM
 70
     0
  9
$DIMLTYPE
  6

  9
$DIMLTEX1
  6

  9
$DIMLTEX2
  6

  9
$DIMTXTDIRECTION
 70
     0
  9
$LUNITS
 70
     2
  9
$LUPREC
 70
     4
  9
$SKETCHINC
 40
0.1
  9
$FILLETRAD
 40
0.5
  9
$AUNITS
 70
     0
  9
$AUPREC
 70
     0
  9
$MENU
  1
.
  9
$ELEVATION
 40
0.0
  9
$PELEVATION
 40
0.0
  9
$THICKNESS
 40
0.0
  9
$LIMCHECK
 70
     0
  9
$CHAMFERA
 40
0.5
  9
$CHAMFERB
 40
0.5
  9
$CHAMFERC
 40
1.0
  9
$CHAMFERD
 40
0.0
  9
$SKPOLY
 70
     0
  9
$TDCREATE
 40
2459305.907037025
  9
$TDUCREATE
 40
2459306.157037037
  9
$TDUPDATE
 40
2459305.907037025
  9
$TDUUPDATE
 40
2459306.157037037
  9
$TDINDWG
 40
0.0000000116
  9
$TDUSRTIMER
 40
0.0000000116
  9
$USRTIMER
 70
     1
  9
$ANGBASE
 50
0.0
  9
$ANGDIR
 70
     0
  9
$PDMODE
 70
     0
  9
$PDSIZE
 40
0.0
  9
$PLINEWID
 40
0.0
  9
$SPLFRAME
 70
     0
  9
$SPLINETYPE
 70
     6
  9
$SPLINESEGS
 70
     8
  9
$HANDSEED
  5
106
  9
$SURFTAB1
 70
     6
  9
$SURFTAB2
 70
     6
  9
$SURFTYPE
 70
     6
  9
$SURFU
 70
     6
  9
$SURFV
 70
     6
  9
$UCSBASE
  2

  9
$UCSNAME
  2

  9
$UCSORG
 10
0.0
 20
0.0
 30
0.0
  9
$UCSXDIR
 10
1.0
 20
0.0
 30
0.0
  9
$UCSYDIR
 10
0.0
 20
1.0
 30
0.0
  9
$UCSORTHOREF
  2

  9
$UCSORTHOVIEW
 70
     0
  9
$UCSORGTOP
 10
0.0
 20
0.0
 30
0.0
  9
$UCSORGBOTTOM
 10
0.0
 20
0.0
 30
0.0
  9
$UCSORGLEFT
 10
0.0
 20
0.0
 30
0.0
  9
$UCSORGRIGHT
 10
0.0
 20
0.0
 30
0.0
  9
$UCSORGFRONT
 10
0.0
 20
0.0
 30
0.0
  9
$UCSORGBACK
 10
0.0
 20
0.0
 30
0.0
  9
$PUCSBASE
  2

  9
$PUCSNAME
  2

  9
$PUCSORG
 10
0.0
 20
0.0
 30
0.0
  9
$PUCSXDIR
 10
1.0
 20
0.0
 30
0.0
  9
$PUCSYDIR
 10
0.0
 20
1.0
 30
0.0
  9
$PUCSORTHOREF
  2

  9
$PUCSORTHOVIEW
 70
     0
  9
$PUCSORGTOP
 10
0.0
 20
0.0
 30
0.0
  9
$PUCSORGBOTTOM
 10
0.0
 20
0.0
 30
0.0
  9
$PUCSORGLEFT
 10
0.0
 20
0.0
 30
0.0
  9
$PUCSORGRIGHT
 10
0.0
 20
0.0
 30
0.0
  9
$PUCSORGFRONT
 10
0.0
 20
0.0
 30
0.0
  9
$PUCSORGBACK
 10
0.0
 20
0.0
 30
0.0
  9
$USERI1
 70
     0
  9
$USERI2
 70
     0
  9
$USERI3
 70
     0
  9
$USERI4
 70
     0
  9
$USERI5
 70
     0
  9
$USERR1
 40
0.0
  9
$USERR2
 40
0.0
  9
$USERR3
 40
0.0
  9
$USERR4
 40
0.0
  9
$USERR5
 40
0.0
  9
$WORLDVIEW
 70
     1
  9
$SHADEDGE
 70
     3
  9
$SHADEDIF
 70
    70
  9
$TILEMODE
 70
     1
  9
$MAXACTVP
 70
    64
  9
$PINSBASE
 10
0.0
 20
0.0
 30
0.0
  9
$PLIMCHECK
 70
     0
  9
$PEXTMIN
 10
1.000000000000000E+20
 20
1.000000000000000E+20
 30
1.000000000000000E+20
  9
$PEXTMAX
 10
-1.000000000000000E+20
 20
-1.000000000000000E+20
 30
-1.000000000000000E+20
  9
$PLIMMIN
 10
0.0
 20
0.0
  9
$PLIMMAX
 10
12.0
 20
9.0
  9
$UNITMODE
 70
     0
  9
$VISRETAIN
 70
     1
  9
$PLINEGEN
 70
     0
  9
$PSLTSCALE
 70
     1
  9
$TREEDEPTH
 70
  3020
  9
$CMLSTYLE
  2
Standard
  9
$CMLJUST
 70
     0
  9
$CMLSCALE
 40
1.0
  9
$PROXYGRAPHICS
 70
     1
  9
$MEASUREMENT
 70
     0
  9
$CELWEIGHT
370
    -1
  9
$ENDCAPS
280
     0
  9
$JOINSTYLE
280
     0
  9
$LWDISPLAY
290
     1
  9
$INSUNITS
 70
     1
  9
$HYPERLINKBASE
  1

  9
$STYLESHEET
  1

  9
$XEDIT
290
     1
  9
$CEPSNTYPE
380
     0
  9
$PSTYLEMODE
290
     1
  9
$FINGERPRINTGUID
  2
{E9301DAB-ECF9-20FD-C029-2427DC99BDFE}
  9
$VERSIONGUID
  2
{FAEB1C32-E019-11D5-929B-00C0DF256EC4}
  9
$EXTNAMES
290
     1
  9
$PSVPSCALE
 40
0.0
  9
$OLESTARTUP
290
     0
  9
$SORTENTS
280
   127
  9
$INDEXCTL
280
     0
  9
$HIDETEXT
280
     1
  9
$XCLIPFRAME
280
     2
  9
$HALOGAP
280
     0
  9
$OBSCOLOR
 70
   257
  9
$OBSLTYPE
280
     0
  9
$INTERSECTIONDISPLAY
280
     0
  9
$INTERSECTIONCOLOR
 70
   257
  9
$DIMASSOC
280
     2
  9
$PROJECTNAME
  1

  9
$CAMERADISPLAY
290
     0
  9
$LENSLENGTH
 40
50.0
  9
$CAMERAHEIGHT
 40
0.0
  9
$STEPSPERSEC
 40
2.0
  9
$STEPSIZE
 40
6.0
  9
$3DDWFPREC
 40
2.0
  9
$PSOLWIDTH
 40
0.25
  9
$PSOLHEIGHT
 40
4.0
  9
$LOFTANG1
 40
1.570796326794897
  9
$LOFTANG2
 40
1.570796326794897
  9
$LOFTMAG1
 40
0.0
  9
$LOFTMAG2
 40
0.0
  9
$LOFTPARAM
 70
     7
  9
$LOFTNORMALS
280
     1
  9
$LATITUDE
 40
37.795
  9
$LONGITUDE
 40
-122.394
  9
$NORTHDIRECTION
 40
0.0
  9
$TIMEZONE
 70
 -8000
  9
$LIGHTGLYPHDISPLAY
280
     1
  9
$TILEMODELIGHTSYNCH
280
     1
  9
$CMATERIAL
347
3C
  9
$SOLIDHIST
280
     1
  9
$SHOWHIST
280
     1
  9
$DWFFRAME
280
     2
  9
$DGNFRAME
280
     2
  9
$REALWORLDSCALE
290
     1
  9
$INTERFERECOLOR
 62
   256
  9
$CSHADOW
280
     0
  9
$SHADOWPLANELOCATION
 40
0.0
  0
ENDSEC
  0
SECTION
  2
CLASSES
  0
CLASS
  1
ACDBDICTIONARYWDFLT
  2
AcDbDictionaryWithDefault
  3
ObjectDBX Classes
 90
        0
 91
        4
280
     0
281
     0
  0
CLASS
  1
VISUALSTYLE
  2
AcDbVisualStyle
  3
ObjectDBX Classes
 90
     4095
 91
        4
280
     0
281
     0
  0
CLASS
  1
MATERIAL
  2
AcDbMaterial
  3
ObjectDBX Classes
 90
     1153
 91
        4
280
     0
281
     0
  0
CLASS
  1
SUN
  2
AcDbSun
  3
SCENEOE
 90
     1024
 91
        4
280
     0
281
     0
  0
ENDSEC
  0
SECTION
  2
TABLES
  0
TABLE
  2
VPORT
  5
8
330
0
100
AcDbSymbolTable
 70
     1
  0
VPORT
  5
29
330
8
100
AcDbSymbolTableRecord
100
AcDbViewportTableRecord
  2
*Active
 70
     0
 10
0.0
 20
0.0
 11
1.0
 21
1.0
 12
0.0
 22
0.0
 13
0.0
 23
0.0
 14
0.5
 24
0.5
 15
0.5
 25
0.5
 16
0.0
 26
0.0
 36
1.0
 17
10.88368733723958
 27
16.15875074598524
 37
0.0
 40
32.31750149197048
 41
0.6735475723544849
 42
50.0
 43
0.0
 44
0.0
 50
0.0
 51
0.0
 71
     0
 72
   100
 73
     1
 74
     3
 75
     0
 76
     0
 77
     0
 78
     0
281
     0
 65
     1
110
0.0
120
0.0
130
0.0
111
1.0
121
0.0
131
0.0
112
0.0
122
1.0
132
0.0
 79
     0
146
0.0
 60
     3
 61
     5
292
     1
282
     1
141
0.0
142
0.0
 63
   250
361
3F
  0
ENDTAB
  0
TABLE
  2
LTYPE
  5
5
330
0
100
AcDbSymbolTable
 70
     1
  0
LTYPE
  5
14
330
5
100
AcDbSymbolTableRecord
100
AcDbLinetypeTableRecord
  2
ByBlock
 70
     0
  3

 72
    65
 73
     0
 40
0.0
  0
LTYPE
  5
15
330
5
100
AcDbSymbolTableRecord
100
AcDbLinetypeTableRecord
  2
ByLayer
 70
     0
  3

 72
    65
 73
     0
 40
0.0
  0
LTYPE
  5
16
330
5
100
AcDbSymbolTableRecord
100
AcDbLinetypeTableRecord
  2
Continuous
 70
     0
  3
Solid line
 72
    65
 73
     0
 40
0.0
  0
ENDTAB
  0
TABLE
  2
LAYER
  5
2
330
0
100
AcDbSymbolTable
 70
     2
  0
LAYER
  5
10
330
2
100
AcDbSymbolTableRecord
100
AcDbLayerTableRecord
  2
0
 70
     0
 62
     7
  6
Continuous
370
    -3
390
F
347
3E
  0
LAYER
  5
40
330
2
100
AcDbSymbolTableRecord
100
AcDbLayerTableRecord
  2
Layer 1
 70
     0
 62
     7
  6
Continuous
370
    -3
390
F
347
3E
  0
ENDTAB
  0
TABLE
  2
STYLE
  5
3
330
0
100
AcDbSymbolTable
 70
     1
  0
STYLE
  5
11
330
3
100
AcDbSymbolTableRecord
100
AcDbTextStyleTableRecord
  2
Standard
 70
     0
 40
0.0
 41
1.0
 50
0.0
 71
     0
 42
0.2
  3
txt
  4

  0
ENDTAB
  0
TABLE
  2
VIEW
  5
6
330
0
100
AcDbSymbolTable
 70
     0
  0
ENDTAB
  0
TABLE
  2
UCS
  5
7
330
0
100
AcDbSymbolTable
 70
     0
  0
ENDTAB
  0
TABLE
  2
APPID
  5
9
330
0
100
AcDbSymbolTable
 70
     1
  0
APPID
  5
12
330
9
100
AcDbSymbolTableRecord
100
AcDbRegAppTableRecord
  2
ACAD
 70
     0
  0
ENDTAB
  0
TABLE
  2
DIMSTYLE
  5
A
330
0
100
AcDbSymbolTable
 70
     1
100
AcDbDimStyleTable
  0
DIMSTYLE
105
27
330
A
100
AcDbSymbolTableRecord
100
AcDbDimStyleTableRecord
  2
Standard
 70
     0
178
     0
340
11
  0
ENDTAB
  0
TABLE
  2
BLOCK_RECORD
  5
1
330
0
100
AcDbSymbolTable
 70
     5
  0
BLOCK_RECORD
  5
1F
330
1
100
AcDbSymbolTableRecord
100
AcDbBlockTableRecord
  2
*Model_Space
340
22
 70
     0
280
     1
281
     0
  0
BLOCK_RECORD
  5
1B
330
1
100
AcDbSymbolTableRecord
100
AcDbBlockTableRecord
  2
*Paper_Space
340
1E
 70
     0
280
     1
281
     0
  0
BLOCK_RECORD
  5
23
330
1
100
AcDbSymbolTableRecord
100
AcDbBlockTableRecord
  2
*Paper_Space0
340
26
 70
     0
280
     1
281
     0
  0
BLOCK_RECORD
  5
50
330
1
100
AcDbSymbolTableRecord
100
AcDbBlockTableRecord
  2
block 2
340
0
102
{BLKREFS
331
51
102
}
 70
     0
280
     1
281
     0
  0
BLOCK_RECORD
  5
78
330
1
100
AcDbSymbolTableRecord
100
AcDbBlockTableRecord
  2
block 3
340
0
102
{BLKREFS
331
79
102
}
 70
     0
280
     1
281
     0
  0
BLOCK_RECORD
  5
8E
330
1
100
AcDbSymbolTableRecord
100
AcDbBlockTableRecord
  2
block 4
340
0
102
{BLKREFS
331
8F
102
}
 70
     0
280
     1
281
     0
  0
BLOCK_RECORD
  5
BE
330
1
100
AcDbSymbolTableRecord
100
AcDbBlockTableRecord
  2
block 5
340
0
102
{BLKREFS
331
BF
102
}
 70
     0
280
     1
281
     0
  0
ENDTAB
  0
ENDSEC
  0
SECTION
  2
BLOCKS
  0
BLOCK
  5
20
330
1F
100
AcDbEntity
  8
0
100
AcDbBlockBegin
  2
*Model_Space
 70
     0
 10
0.0
 20
0.0
 30
0.0
  3
*Model_Space
  1

  0
ENDBLK
  5
21
330
1F
100
AcDbEntity
  8
0
100
AcDbBlockEnd
  0
BLOCK
  5
1C
330
1B
100
AcDbEntity
 67
     1
  8
0
100
AcDbBlockBegin
  2
*Paper_Space
 70
     0
 10
0.0
 20
0.0
 30
0.0
  3
*Paper_Space
  1

  0
ENDBLK
  5
1D
330
1B
100
AcDbEntity
 67
     1
  8
0
100
AcDbBlockEnd
  0
BLOCK
  5
24
330
23
100
AcDbEntity
  8
0
100
AcDbBlockBegin
  2
*Paper_Space0
 70
     0
 10
0.0
 20
0.0
 30
0.0
  3
*Paper_Space0
  1

  0
ENDBLK
  5
25
330
23
100
AcDbEntity
  8
0
100
AcDbBlockEnd
  0
BLOCK
  5
52
330
50
100
AcDbEntity
  8
0
100
AcDbBlockBegin
  2
block 2
 70
     0
 10
0.0
 20
0.0
 30
0.0
  3
block 2
  1

  0
POLYLINE
  5
54
330
50
100
AcDbEntity
  8
Layer 1
 62
     7
420
 16777215
370
    70
100
AcDb2dPolyline
 66
     1
 10
0.0
 20
0.0
 30
0.0
  0
VERTEX
  5
55
330
54
100
AcDbEntity
  8
Layer 1
 62
     7
420
 16777215
370
    70
100
AcDbVertex
100
AcDb2dVertex
 10
3.713389078776042
 20
0.6883069864908925
 30
0.0
  0
VERTEX
  5
56
330
54
100
AcDbEntity
  8
Layer 1
 62
     7
420
 16777215
370
    70
100
AcDbVertex
100
AcDb2dVertex
 10
1.608680725097656
 20
7.923265211317281
 30
0.0
  0
VERTEX
  5
57
330
54
100
AcDbEntity
  8
Layer 1
 62
     7
420
 16777215
370
    70
100
AcDbVertex
100
AcDb2dVertex
 10
0.6400139066908094
 20
7.923265211317281
 30
0.0
  0
VERTEX
  5
58
330
54
100
AcDbEntity
  8
Layer 1
 62
     7
420
 16777215
370
    70
100
AcDbVertex
100
AcDb2dVertex
 10
0.6400139066908094
 20
9.98013980441624
 30
0.0
  0
VERTEX
  5
59
330
54
100
AcDbEntity
  8
Layer 1
 62
     7
420
 16777215
370
    70
100
AcDbVertex
100
AcDb2dVertex
 10
5.686555650499131
 20
9.98013980441624
 30
0.0
  0
VERTEX
  5
5A
330
54
100
AcDbEntity
  8
Layer 1
 62
     7
420
 16777215
370
    70
100
AcDbVertex
100
AcDb2dVertex
 10
5.686555650499131
 20
7.923265211317281
 30
0.0
  0
VERTEX
  5
5B
330
54
100
AcDbEntity
  8
Layer 1
 62
     7
420
 16777215
370
    70
100
AcDbVertex
100
AcDb2dVertex
 10
5.016861385769314
 20
7.923265211317281
 30
0.0
  0
VERTEX
  5
5C
330
54
100
AcDbEntity
  8
Layer 1
 62
     7
420
 16777215
370
    70
100
AcDbVertex
100
AcDb2dVertex
 10
6.188819885253906
 20
3.701877136230475
 30
0.0
  0
VERTEX
  5
5D
330
54
100
AcDbEntity
  8
Layer 1
 62
     7
420
 16777215
370
    70
100
AcDbVertex
100
AcDb2dVertex
 10
7.217250400119357
 20
7.923265211317281
 30
0.0
  0
VERTEX
  5
5E
330
54
100
AcDbEntity
  8
Layer 1
 62
     7
420
 16777215
370
    70
100
AcDbVertex
100
AcDb2dVertex
 10
6.451903025309244
 20
7.923265211317281
 30
0.0
  0
VERTEX
  5
5F
330
54
100
AcDbEntity
  8
Layer 1
 62
     7
420
 16777215
370
    70
100
AcDbVertex
100
AcDb2dVertex
 10
6.451903025309244
 20
9.98013980441624
 30
0.0
  0
VERTEX
  5
60
330
54
100
AcDbEntity
  8
Layer 1
 62
     7
420
 16777215
370
    70
100
AcDbVertex
100
AcDb2dVertex
 10
10.50588904486762
 20
9.98013980441624
 30
0.0
  0
VERTEX
  5
61
330
54
100
AcDbEntity
  8
Layer 1
 62
     7
420
 16777215
370
    70
100
AcDbVertex
100
AcDb2dVertex
 10
10.50588904486762
 20
7.923265211317281
 30
0.0
  0
VERTEX
  5
62
330
54
100
AcDbEntity
  8
Layer 1
 62
     7
420
 16777215
370
    70
100
AcDbVertex
100
AcDb2dVertex
 10
9.453514099121094
 20
7.923265211317281
 30
0.0
  0
VERTEX
  5
63
330
54
100
AcDbEntity
  8
Layer 1
 62
     7
420
 16777215
370
    70
100
AcDbVertex
100
AcDb2dVertex
 10
7.133541531032986
 20
0.6883069864908925
 30
0.0
  0
VERTEX
  5
64
330
54
100
AcDbEntity
  8
Layer 1
 62
     7
420
 16777215
370
    70
100
AcDbVertex
100
AcDb2dVertex
 10
3.713389078776042
 20
0.6883069864908925
 30
0.0
  0
SEQEND
  5
65
330
54
100
AcDbEntity
  8
Layer 1
 62
     7
420
 16777215
370
    70
  0
POLYLINE
  5
66
330
50
100
AcDbEntity
  8
Layer 1
 62
     7
420
 16777215
370
    70
100
AcDb2dPolyline
 66
     1
 10
0.0
 20
0.0
 30
0.0
  0
VERTEX
  5
67
330
66
100
AcDbEntity
  8
Layer 1
 62
     7
420
 16777215
370
    70
100
AcDbVertex
100
AcDb2dVertex
 10
3.976069556342231
 20
1.03830630832249
 30
0.0
  0
VERTEX
  5
68
330
66
100
AcDbEntity
  8
Layer 1
 62
     7
420
 16777215
370
    70
100
AcDbVertex
100
AcDb2dVertex
 10
1.871361202663845
 20
8.273250969780822
 30
0.0
  0
VERTEX
  5
69
330
66
100
AcDbEntity
  8
Layer 1
 62
     7
420
 16777215
370
    70
100
AcDbVertex
100
AcDb2dVertex
 10
0.9900138643052843
 20
8.273250969780822
 30
0.0
  0
VERTEX
  5
6A
330
66
100
AcDbEntity
  8
Layer 1
 62
     7
420
 16777215
370
    70
100
AcDbVertex
100
AcDb2dVertex
 10
0.9900138643052843
 20
9.630140482584642
 30
0.0
  0
VERTEX
  5
6B
330
66
100
AcDbEntity
  8
Layer 1
 62
     7
420
 16777215
370
    70
100
AcDbVertex
100
AcDb2dVertex
 10
5.336541493733724
 20
9.630140482584642
 30
0.0
  0
VERTEX
  5
6C
330
66
100
AcDbEntity
  8
Layer 1
 62
     7
420
 16777215
370
    70
100
AcDbVertex
100
AcDb2dVertex
 10
5.336541493733724
 20
8.273250969780822
 30
0.0
  0
VERTEX
  5
6D
330
66
100
AcDbEntity
  8
Layer 1
 62
     7
420
 16777215
370
    70
100
AcDbVertex
100
AcDb2dVertex
 10
4.556444380018446
 20
8.273250969780822
 30
0.0
  0
VERTEX
  5
6E
330
66
100
AcDbEntity
  8
Layer 1
 62
     7
420
 16777215
370
    70
100
AcDbVertex
100
AcDb2dVertex
 10
6.210916731092665
 20
2.313903774685337
 30
0.0
  0
VERTEX
  5
6F
330
66
100
AcDbEntity
  8
Layer 1
 62
     7
420
 16777215
370
    70
100
AcDbVertex
100
AcDb2dVertex
 10
7.662750244140625
 20
8.273250969780822
 30
0.0
  0
VERTEX
  5
70
330
66
100
AcDbEntity
  8
Layer 1
 62
     7
420
 16777215
370
    70
100
AcDbVertex
100
AcDb2dVertex
 10
6.801888783772786
 20
8.273250969780822
 30
0.0
  0
VERTEX
  5
71
330
66
100
AcDbEntity
  8
Layer 1
 62
     7
420
 16777215
370
    70
100
AcDbVertex
100
AcDb2dVertex
 10
6.801888783772786
 20
9.630140482584642
 30
0.0
  0
VERTEX
  5
72
330
66
100
AcDbEntity
  8
Layer 1
 62
     7
420
 16777215
370
    70
100
AcDbVertex
100
AcDb2dVertex
 10
10.15587531195746
 20
9.630140482584642
 30
0.0
  0
VERTEX
  5
73
330
66
100
AcDbEntity
  8
Layer 1
 62
     7
420
 16777215
370
    70
100
AcDbVertex
100
AcDb2dVertex
 10
10.15587531195746
 20
8.273250969780822
 30
0.0
  0
VERTEX
  5
74
330
66
100
AcDbEntity
  8
Layer 1
 62
     7
420
 16777215
370
    70
100
AcDbVertex
100
AcDb2dVertex
 10
9.198180304633246
 20
8.273250969780822
 30
0.0
  0
VERTEX
  5
75
330
66
100
AcDbEntity
  8
Layer 1
 62
     7
420
 16777215
370
    70
100
AcDbVertex
100
AcDb2dVertex
 10
6.878208160400391
 20
1.03830630832249
 30
0.0
  0
VERTEX
  5
76
330
66
100
AcDbEntity
  8
Layer 1
 62
     7
420
 16777215
370
    70
100
AcDbVertex
100
AcDb2dVertex
 10
3.976069556342231
 20
1.03830630832249
 30
0.0
  0
SEQEND
  5
77
330
66
100
AcDbEntity
  8
Layer 1
 62
     7
420
 16777215
370
    70
  0
ENDBLK
  5
53
330
50
100
AcDbEntity
  8
0
100
AcDbBlockEnd
  0
BLOCK
  5
7A
330
78
100
AcDbEntity
  8
0
100
AcDbBlockBegin
  2
block 3
 70
     0
 10
0.0
 20
0.0
 30
0.0
  3
block 3
  1

  0
POLYLINE
  5
7C
330
78
100
AcDbEntity
  8
Layer 1
 62
     7
420
 16777215
370
    70
100
AcDb2dPolyline
 66
     1
 10
0.0
 20
0.0
 30
0.0
  0
VERTEX
  5
7D
330
7C
100
AcDbEntity
  8
Layer 1
 62
     7
420
 16777215
370
    70
100
AcDbVertex
100
AcDb2dVertex
 10
14.28694491916233
 20
0.6883069864908925
 30
0.0
  0
VERTEX
  5
7E
330
7C
100
AcDbEntity
  8
Layer 1
 62
     7
420
 16777215
370
    70
100
AcDbVertex
100
AcDb2dVertex
 10
12.18223656548394
 20
7.923265211317281
 30
0.0
  0
VERTEX
  5
7F
330
7C
100
AcDbEntity
  8
Layer 1
 62
     7
420
 16777215
370
    70
100
AcDbVertex
100
AcDb2dVertex
 10
11.21358405219184
 20
7.923265211317281
 30
0.0
  0
VERTEX
  5
80
330
7C
100
AcDbEntity
  8
Layer 1
 62
     7
420
 16777215
370
    70
100
AcDbVertex
100
AcDb2dVertex
 10
11.21358405219184
 20
9.98013980441624
 30
0.0
  0
VERTEX
  5
81
330
7C
100
AcDbEntity
  8
Layer 1
 62
     7
420
 16777215
370
    70
100
AcDbVertex
100
AcDb2dVertex
 10
16.26012505425347
 20
9.98013980441624
 30
0.0
  0
VERTEX
  5
82
330
7C
100
AcDbEntity
  8
Layer 1
 62
     7
420
 16777215
370
    70
100
AcDbVertex
100
AcDb2dVertex
 10
16.26012505425347
 20
7.923265211317281
 30
0.0
  0
VERTEX
  5
83
330
7C
100
AcDbEntity
  8
Layer 1
 62
     7
420
 16777215
370
    70
100
AcDbVertex
100
AcDb2dVertex
 10
15.5904303656684
 20
7.923265211317281
 30
0.0
  0
VERTEX
  5
84
330
7C
100
AcDbEntity
  8
Layer 1
 62
     7
420
 16777215
370
    70
100
AcDbVertex
100
AcDb2dVertex
 10
16.76238844129774
 20
3.701877136230475
 30
0.0
  0
VERTEX
  5
85
330
7C
100
AcDbEntity
  8
Layer 1
 62
     7
420
 16777215
370
    70
100
AcDbVertex
100
AcDb2dVertex
 10
17.79081895616319
 20
7.923265211317281
 30
0.0
  0
VERTEX
  5
86
330
7C
100
AcDbEntity
  8
Layer 1
 62
     7
420
 16777215
370
    70
100
AcDbVertex
100
AcDb2dVertex
 10
17.02547200520833
 20
7.923265211317281
 30
0.0
  0
VERTEX
  5
87
330
7C
100
AcDbEntity
  8
Layer 1
 62
     7
420
 16777215
370
    70
100
AcDbVertex
100
AcDb2dVertex
 10
17.02547200520833
 20
9.98013980441624
 30
0.0
  0
VERTEX
  5
88
330
7C
100
AcDbEntity
  8
Layer 1
 62
     7
420
 16777215
370
    70
100
AcDbVertex
100
AcDb2dVertex
 10
21.07945760091146
 20
9.98013980441624
 30
0.0
  0
VERTEX
  5
89
330
7C
100
AcDbEntity
  8
Layer 1
 62
     7
420
 16777215
370
    70
100
AcDbVertex
100
AcDb2dVertex
 10
21.07945760091146
 20
7.923265211317281
 30
0.0
  0
VERTEX
  5
8A
330
7C
100
AcDbEntity
  8
Layer 1
 62
     7
420
 16777215
370
    70
100
AcDbVertex
100
AcDb2dVertex
 10
20.02708265516493
 20
7.923265211317281
 30
0.0
  0
VERTEX
  5
8B
330
7C
100
AcDbEntity
  8
Layer 1
 62
     7
420
 16777215
370
    70
100
AcDbVertex
100
AcDb2dVertex
 10
17.70711093478733
 20
0.6883069864908925
 30
0.0
  0
VERTEX
  5
8C
330
7C
100
AcDbEntity
  8
Layer 1
 62
     7
420
 16777215
370
    70
100
AcDbVertex
100
AcDb2dVertex
 10
14.28694491916233
 20
0.6883069864908925
 30
0.0
  0
SEQEND
  5
8D
330
7C
100
AcDbEntity
  8
Layer 1
 62
     7
420
 16777215
370
    70
  0
ENDBLK
  5
7B
330
78
100
AcDbEntity
  8
0
100
AcDbBlockEnd
  0
BLOCK
  5
90
330
8E
100
AcDbEntity
  8
0
100
AcDbBlockBegin
  2
block 4
 70
     0
 10
0.0
 20
0.0
 30
0.0
  3
block 4
  1

  0
POLYLINE
  5
92
330
8E
100
AcDbEntity
  8
Layer 1
 62
     7
420
 16777215
370
    70
100
AcDb2dPolyline
 66
     1
 10
0.0
 20
0.0
 30
0.0
  0
VERTEX
  5
93
330
92
100
AcDbEntity
  8
Layer 1
 62
     7
420
 16777215
370
    70
100
AcDbVertex
100
AcDb2dVertex
 10
5.686555650499131
 20
19.91337666829428
 30
0.0
  0
VERTEX
  5
94
330
92
100
AcDbEntity
  8
Layer 1
 62
     7
420
 16777215
370
    70
100
AcDbVertex
100
AcDb2dVertex
 10
4.353972117106119
 20
19.91337666829428
 30
0.0
  0
VERTEX
  5
95
330
92
100
AcDbEntity
  8
Layer 1
 62
     7
420
 16777215
370
    70
100
AcDbVertex
100
AcDb2dVertex
 10
4.353972117106119
 20
19.56337649875218
 30
0.0
  0
VERTEX
  5
96
330
92
100
AcDbEntity
  8
Layer 1
 62
     7
420
 16777215
370
    70
100
AcDbVertex
100
AcDb2dVertex
 10
5.336541493733724
 20
19.56337649875218
 30
0.0
  0
VERTEX
  5
97
330
92
100
AcDbEntity
  8
Layer 1
 62
     7
420
 16777215
370
    70
100
AcDbVertex
100
AcDb2dVertex
 10
5.336541493733724
 20
18.20650139702692
 30
0.0
  0
VERTEX
  5
98
330
92
100
AcDbEntity
  8
Layer 1
 62
     7
420
 16777215
370
    70
100
AcDbVertex
100
AcDb2dVertex
 10
4.556444380018446
 20
18.20650139702692
 30
0.0
  0
VERTEX
  5
99
330
92
100
AcDbEntity
  8
Layer 1
 62
     7
420
 16777215
370
    70
100
AcDbVertex
100
AcDb2dVertex
 10
6.210902743869357
 20
12.24713979085287
 30
0.0
  0
VERTEX
  5
9A
330
92
100
AcDbEntity
  8
Layer 1
 62
     7
420
 16777215
370
    70
100
AcDbVertex
100
AcDb2dVertex
 10
7.662750244140625
 20
18.20650139702692
 30
0.0
  0
VERTEX
  5
9B
330
92
100
AcDbEntity
  8
Layer 1
 62
     7
420
 16777215
370
    70
100
AcDbVertex
100
AcDb2dVertex
 10
6.801888783772786
 20
18.20650139702692
 30
0.0
  0
VERTEX
  5
9C
330
92
100
AcDbEntity
  8
Layer 1
 62
     7
420
 16777215
370
    70
100
AcDbVertex
100
AcDb2dVertex
 10
6.801888783772786
 20
19.56337649875218
 30
0.0
  0
VERTEX
  5
9D
330
92
100
AcDbEntity
  8
Layer 1
 62
     7
420
 16777215
370
    70
100
AcDbVertex
100
AcDb2dVertex
 10
7.388277689615885
 20
19.56337649875218
 30
0.0
  0
VERTEX
  5
9E
330
92
100
AcDbEntity
  8
Layer 1
 62
     7
420
 16777215
370
    70
100
AcDbVertex
100
AcDb2dVertex
 10
7.388277689615885
 20
19.91337666829428
 30
0.0
  0
VERTEX
  5
9F
330
92
100
AcDbEntity
  8
Layer 1
 62
     7
420
 16777215
370
    70
100
AcDbVertex
100
AcDb2dVertex
 10
6.451889038085938
 20
19.91337666829428
 30
0.0
  0
VERTEX
  5
A0
330
92
100
AcDbEntity
  8
Layer 1
 62
     7
420
 16777215
370
    70
100
AcDbVertex
100
AcDb2dVertex
 10
6.451889038085938
 20
17.85648766411676
 30
0.0
  0
VERTEX
  5
A1
330
92
100
AcDbEntity
  8
Layer 1
 62
     7
420
 16777215
370
    70
100
AcDbVertex
100
AcDb2dVertex
 10
7.217250400119357
 20
17.85648766411676
 30
0.0
  0
VERTEX
  5
A2
330
92
100
AcDbEntity
  8
Layer 1
 62
     7
420
 16777215
370
    70
100
AcDbVertex
100
AcDb2dVertex
 10
6.188819461398654
 20
13.63511315239801
 30
0.0
  0
VERTEX
  5
A3
330
92
100
AcDbEntity
  8
Layer 1
 62
     7
420
 16777215
370
    70
100
AcDbVertex
100
AcDb2dVertex
 10
5.016860961914062
 20
17.85648766411676
 30
0.0
  0
VERTEX
  5
A4
330
92
100
AcDbEntity
  8
Layer 1
 62
     7
420
 16777215
370
    70
100
AcDbVertex
100
AcDb2dVertex
 10
5.686555650499131
 20
17.85648766411676
 30
0.0
  0
VERTEX
  5
A5
330
92
100
AcDbEntity
  8
Layer 1
 62
     7
420
 16777215
370
    70
100
AcDbVertex
100
AcDb2dVertex
 10
5.686555650499131
 20
19.91337666829428
 30
0.0
  0
SEQEND
  5
A6
330
92
100
AcDbEntity
  8
Layer 1
 62
     7
420
 16777215
370
    70
  0
POLYLINE
  5
A7
330
8E
100
AcDbEntity
  8
Layer 1
 62
     7
420
 16777215
370
    70
100
AcDb2dPolyline
 66
     1
 10
0.0
 20
0.0
 30
0.0
  0
VERTEX
  5
A8
330
A7
100
AcDbEntity
  8
Layer 1
 62
     7
420
 16777215
370
    70
100
AcDbVertex
100
AcDb2dVertex
 10
9.615430196126301
 20
19.91337666829428
 30
0.0
  0
VERTEX
  5
A9
330
A7
100
AcDbEntity
  8
Layer 1
 62
     7
420
 16777215
370
    70
100
AcDbVertex
100
AcDb2dVertex
 10
9.615430196126301
 20
19.56337649875218
 30
0.0
  0
VERTEX
  5
AA
330
A7
100
AcDbEntity
  8
Layer 1
 62
     7
420
 16777215
370
    70
100
AcDbVertex
100
AcDb2dVertex
 10
10.15586090087891
 20
19.56337649875218
 30
0.0
  0
VERTEX
  5
AB
330
A7
100
AcDbEntity
  8
Layer 1
 62
     7
420
 16777215
370
    70
100
AcDbVertex
100
AcDb2dVertex
 10
10.15586090087891
 20
18.20650139702692
 30
0.0
  0
VERTEX
  5
AC
330
A7
100
AcDbEntity
  8
Layer 1
 62
     7
420
 16777215
370
    70
100
AcDbVertex
100
AcDb2dVertex
 10
9.198180304633246
 20
18.20650139702692
 30
0.0
  0
VERTEX
  5
AD
330
A7
100
AcDbEntity
  8
Layer 1
 62
     7
420
 16777215
370
    70
100
AcDbVertex
100
AcDb2dVertex
 10
6.878208160400391
 20
10.97155758327909
 30
0.0
  0
VERTEX
  5
AE
330
A7
100
AcDbEntity
  8
Layer 1
 62
     7
420
 16777215
370
    70
100
AcDbVertex
100
AcDb2dVertex
 10
3.976069556342231
 20
10.97155758327909
 30
0.0
  0
VERTEX
  5
AF
330
A7
100
AcDbEntity
  8
Layer 1
 62
     7
420
 16777215
370
    70
100
AcDbVertex
100
AcDb2dVertex
 10
1.871361202663845
 20
18.20650139702692
 30
0.0
  0
VERTEX
  5
B0
330
A7
100
AcDbEntity
  8
Layer 1
 62
     7
420
 16777215
370
    70
100
AcDbVertex
100
AcDb2dVertex
 10
0.9900138643052843
 20
18.20650139702692
 30
0.0
  0
VERTEX
  5
B1
330
A7
100
AcDbEntity
  8
Layer 1
 62
     7
420
 16777215
370
    70
100
AcDbVertex
100
AcDb2dVertex
 10
0.9900138643052843
 20
19.56337649875218
 30
0.0
  0
VERTEX
  5
B2
330
A7
100
AcDbEntity
  8
Layer 1
 62
     7
420
 16777215
370
    70
100
AcDbVertex
100
AcDb2dVertex
 10
2.126833385891385
 20
19.56337649875218
 30
0.0
  0
VERTEX
  5
B3
330
A7
100
AcDbEntity
  8
Layer 1
 62
     7
420
 16777215
370
    70
100
AcDbVertex
100
AcDb2dVertex
 10
2.126833385891385
 20
19.91337666829428
 30
0.0
  0
VERTEX
  5
B4
330
A7
100
AcDbEntity
  8
Layer 1
 62
     7
420
 16777215
370
    70
100
AcDbVertex
100
AcDb2dVertex
 10
0.6400139066908094
 20
19.91337666829428
 30
0.0
  0
VERTEX
  5
B5
330
A7
100
AcDbEntity
  8
Layer 1
 62
     7
420
 16777215
370
    70
100
AcDbVertex
100
AcDb2dVertex
 10
0.6400139066908094
 20
17.85648766411676
 30
0.0
  0
VERTEX
  5
B6
330
A7
100
AcDbEntity
  8
Layer 1
 62
     7
420
 16777215
370
    70
100
AcDbVertex
100
AcDb2dVertex
 10
1.608666631910536
 20
17.85648766411676
 30
0.0
  0
VERTEX
  5
B7
330
A7
100
AcDbEntity
  8
Layer 1
 62
     7
420
 16777215
370
    70
100
AcDbVertex
100
AcDb2dVertex
 10
3.713375091552734
 20
10.62154300265843
 30
0.0
  0
VERTEX
  5
B8
330
A7
100
AcDbEntity
  8
Layer 1
 62
     7
420
 16777215
370
    70
100
AcDbVertex
100
AcDb2dVertex
 10
7.13352796766493
 20
10.62154300265843
 30
0.0
  0
VERTEX
  5
B9
330
A7
100
AcDbEntity
  8
Layer 1
 62
     7
420
 16777215
370
    70
100
AcDbVertex
100
AcDb2dVertex
 10
9.453499688042534
 20
17.85648766411676
 30
0.0
  0
VERTEX
  5
BA
330
A7
100
AcDbEntity
  8
Layer 1
 62
     7
420
 16777215
370
    70
100
AcDbVertex
100
AcDb2dVertex
 10
10.50587463378906
 20
17.85648766411676
 30
0.0
  0
VERTEX
  5
BB
330
A7
100
AcDbEntity
  8
Layer 1
 62
     7
420
 16777215
370
    70
100
AcDbVertex
100
AcDb2dVertex
 10
10.50587463378906
 20
19.91337666829428
 30
0.0
  0
VERTEX
  5
BC
330
A7
100
AcDbEntity
  8
Layer 1
 62
     7
420
 16777215
370
    70
100
AcDbVertex
100
AcDb2dVertex
 10
9.615430196126301
 20
19.91337666829428
 30
0.0
  0
SEQEND
  5
BD
330
A7
100
AcDbEntity
  8
Layer 1
 62
     7
420
 16777215
370
    70
  0
ENDBLK
  5
91
330
8E
100
AcDbEntity
  8
0
100
AcDbBlockEnd
  0
BLOCK
  5
C0
330
BE
100
AcDbEntity
  8
0
100
AcDbBlockBegin
  2
block 5
 70
     0
 10
0.0
 20
0.0
 30
0.0
  3
block 5
  1

  0
POLYLINE
  5
C2
330
BE
100
AcDbEntity
  8
Layer 1
 62
     7
420
 16777215
370
    70
100
AcDb2dPolyline
 66
     1
 10
0.0
 20
0.0
 30
0.0
  0
VERTEX
  5
C3
330
C2
100
AcDbEntity
  8
Layer 1
 62
     7
420
 16777215
370
    70
100
AcDbVertex
100
AcDb2dVertex
 10
16.26011149088541
 20
19.91337666829428
 30
0.0
  0
VERTEX
  5
C4
330
C2
100
AcDbEntity
  8
Layer 1
 62
     7
420
 16777215
370
    70
100
AcDbVertex
100
AcDb2dVertex
 10
14.92754109700521
 20
19.91337666829428
 30
0.0
  0
VERTEX
  5
C5
330
C2
100
AcDbEntity
  8
Layer 1
 62
     7
420
 16777215
370
    70
100
AcDbVertex
100
AcDb2dVertex
 10
14.92754109700521
 20
19.56337649875218
 30
0.0
  0
VERTEX
  5
C6
330
C2
100
AcDbEntity
  8
Layer 1
 62
     7
420
 16777215
370
    70
100
AcDbVertex
100
AcDb2dVertex
 10
15.91011047363281
 20
19.56337649875218
 30
0.0
  0
VERTEX
  5
C7
330
C2
100
AcDbEntity
  8
Layer 1
 62
     7
420
 16777215
370
    70
100
AcDbVertex
100
AcDb2dVertex
 10
15.91011047363281
 20
18.20650139702692
 30
0.0
  0
VERTEX
  5
C8
330
C2
100
AcDbEntity
  8
Layer 1
 62
     7
420
 16777215
370
    70
100
AcDbVertex
100
AcDb2dVertex
 10
15.13001335991753
 20
18.20650139702692
 30
0.0
  0
VERTEX
  5
C9
330
C2
100
AcDbEntity
  8
Layer 1
 62
     7
420
 16777215
370
    70
100
AcDbVertex
100
AcDb2dVertex
 10
16.7844729953342
 20
12.24713979085287
 30
0.0
  0
VERTEX
  5
CA
330
C2
100
AcDbEntity
  8
Layer 1
 62
     7
420
 16777215
370
    70
100
AcDbVertex
100
AcDb2dVertex
 10
18.23630608452691
 20
18.20650139702692
 30
0.0
  0
VERTEX
  5
CB
330
C2
100
AcDbEntity
  8
Layer 1
 62
     7
420
 16777215
370
    70
100
AcDbVertex
100
AcDb2dVertex
 10
17.37544420030382
 20
18.20650139702692
 30
0.0
  0
VERTEX
  5
CC
330
C2
100
AcDbEntity
  8
Layer 1
 62
     7
420
 16777215
370
    70
100
AcDbVertex
100
AcDb2dVertex
 10
17.37544420030382
 20
19.56337649875218
 30
0.0
  0
VERTEX
  5
CD
330
C2
100
AcDbEntity
  8
Layer 1
 62
     7
420
 16777215
370
    70
100
AcDbVertex
100
AcDb2dVertex
 10
17.96183268229166
 20
19.56337649875218
 30
0.0
  0
VERTEX
  5
CE
330
C2
100
AcDbEntity
  8
Layer 1
 62
     7
420
 16777215
370
    70
100
AcDbVertex
100
AcDb2dVertex
 10
17.96183268229166
 20
19.91337666829428
 30
0.0
  0
VERTEX
  5
CF
330
C2
100
AcDbEntity
  8
Layer 1
 62
     7
420
 16777215
370
    70
100
AcDbVertex
100
AcDb2dVertex
 10
17.02545844184028
 20
19.91337666829428
 30
0.0
  0
VERTEX
  5
D0
330
C2
100
AcDbEntity
  8
Layer 1
 62
     7
420
 16777215
370
    70
100
AcDbVertex
100
AcDb2dVertex
 10
17.02545844184028
 20
17.85648766411676
 30
0.0
  0
VERTEX
  5
D1
330
C2
100
AcDbEntity
  8
Layer 1
 62
     7
420
 16777215
370
    70
100
AcDbVertex
100
AcDb2dVertex
 10
17.79080539279514
 20
17.85648766411676
 30
0.0
  0
VERTEX
  5
D2
330
C2
100
AcDbEntity
  8
Layer 1
 62
     7
420
 16777215
370
    70
100
AcDbVertex
100
AcDb2dVertex
 10
16.76237487792969
 20
13.63511315239801
 30
0.0
  0
VERTEX
  5
D3
330
C2
100
AcDbEntity
  8
Layer 1
 62
     7
420
 16777215
370
    70
100
AcDbVertex
100
AcDb2dVertex
 10
15.59041680230035
 20
17.85648766411676
 30
0.0
  0
VERTEX
  5
D4
330
C2
100
AcDbEntity
  8
Layer 1
 62
     7
420
 16777215
370
    70
100
AcDbVertex
100
AcDb2dVertex
 10
16.26011149088541
 20
17.85648766411676
 30
0.0
  0
VERTEX
  5
D5
330
C2
100
AcDbEntity
  8
Layer 1
 62
     7
420
 16777215
370
    70
100
AcDbVertex
100
AcDb2dVertex
 10
16.26011149088541
 20
19.91337666829428
 30
0.0
  0
SEQEND
  5
D6
330
C2
100
AcDbEntity
  8
Layer 1
 62
     7
420
 16777215
370
    70
  0
POLYLINE
  5
D7
330
BE
100
AcDbEntity
  8
Layer 1
 62
     7
420
 16777215
370
    70
100
AcDb2dPolyline
 66
     1
 10
0.0
 20
0.0
 30
0.0
  0
VERTEX
  5
D8
330
D7
100
AcDbEntity
  8
Layer 1
 62
     7
420
 16777215
370
    70
100
AcDbVertex
100
AcDb2dVertex
 10
20.18898688422309
 20
19.91337666829428
 30
0.0
  0
VERTEX
  5
D9
330
D7
100
AcDbEntity
  8
Layer 1
 62
     7
420
 16777215
370
    70
100
AcDbVertex
100
AcDb2dVertex
 10
20.18898688422309
 20
19.56337649875218
 30
0.0
  0
VERTEX
  5
DA
330
D7
100
AcDbEntity
  8
Layer 1
 62
     7
420
 16777215
370
    70
100
AcDbVertex
100
AcDb2dVertex
 10
20.72943115234375
 20
19.56337649875218
 30
0.0
  0
VERTEX
  5
DB
330
D7
100
AcDbEntity
  8
Layer 1
 62
     7
420
 16777215
370
    70
100
AcDbVertex
100
AcDb2dVertex
 10
20.72943115234375
 20
18.20650139702692
 30
0.0
  0
VERTEX
  5
DC
330
D7
100
AcDbEntity
  8
Layer 1
 62
     7
420
 16777215
370
    70
100
AcDbVertex
100
AcDb2dVertex
 10
19.77173529730903
 20
18.20650139702692
 30
0.0
  0
VERTEX
  5
DD
330
D7
100
AcDbEntity
  8
Layer 1
 62
     7
420
 16777215
370
    70
100
AcDbVertex
100
AcDb2dVertex
 10
17.45176357693142
 20
10.97155758327909
 30
0.0
  0
VERTEX
  5
DE
330
D7
100
AcDbEntity
  8
Layer 1
 62
     7
420
 16777215
370
    70
100
AcDbVertex
100
AcDb2dVertex
 10
14.54962497287326
 20
10.97155758327909
 30
0.0
  0
VERTEX
  5
DF
330
D7
100
AcDbEntity
  8
Layer 1
 62
     7
420
 16777215
370
    70
100
AcDbVertex
100
AcDb2dVertex
 10
12.44491661919488
 20
18.20650139702692
 30
0.0
  0
VERTEX
  5
E0
330
D7
100
AcDbEntity
  8
Layer 1
 62
     7
420
 16777215
370
    70
100
AcDbVertex
100
AcDb2dVertex
 10
11.56356981065538
 20
18.20650139702692
 30
0.0
  0
VERTEX
  5
E1
330
D7
100
AcDbEntity
  8
Layer 1
 62
     7
420
 16777215
370
    70
100
AcDbVertex
100
AcDb2dVertex
 10
11.56356981065538
 20
19.56337649875218
 30
0.0
  0
VERTEX
  5
E2
330
D7
100
AcDbEntity
  8
Layer 1
 62
     7
420
 16777215
370
    70
100
AcDbVertex
100
AcDb2dVertex
 10
12.70038859049479
 20
19.56337649875218
 30
0.0
  0
VERTEX
  5
E3
330
D7
100
AcDbEntity
  8
Layer 1
 62
     7
420
 16777215
370
    70
100
AcDbVertex
100
AcDb2dVertex
 10
12.70038859049479
 20
19.91337666829428
 30
0.0
  0
VERTEX
  5
E4
330
D7
100
AcDbEntity
  8
Layer 1
 62
     7
420
 16777215
370
    70
100
AcDbVertex
100
AcDb2dVertex
 10
11.21356964111328
 20
19.91337666829428
 30
0.0
  0
VERTEX
  5
E5
330
D7
100
AcDbEntity
  8
Layer 1
 62
     7
420
 16777215
370
    70
100
AcDbVertex
100
AcDb2dVertex
 10
11.21356964111328
 20
17.85648766411676
 30
0.0
  0
VERTEX
  5
E6
330
D7
100
AcDbEntity
  8
Layer 1
 62
     7
420
 16777215
370
    70
100
AcDbVertex
100
AcDb2dVertex
 10
12.18223571777344
 20
17.85648766411676
 30
0.0
  0
VERTEX
  5
E7
330
D7
100
AcDbEntity
  8
Layer 1
 62
     7
420
 16777215
370
    70
100
AcDbVertex
100
AcDb2dVertex
 10
14.28694491916233
 20
10.62154300265843
 30
0.0
  0
VERTEX
  5
E8
330
D7
100
AcDbEntity
  8
Layer 1
 62
     7
420
 16777215
370
    70
100
AcDbVertex
100
AcDb2dVertex
 10
17.70709737141927
 20
10.62154300265843
 30
0.0
  0
VERTEX
  5
E9
330
D7
100
AcDbEntity
  8
Layer 1
 62
     7
420
 16777215
370
    70
100
AcDbVertex
100
AcDb2dVertex
 10
20.02706909179688
 20
17.85648766411676
 30
0.0
  0
VERTEX
  5
EA
330
D7
100
AcDbEntity
  8
Layer 1
 62
     7
420
 16777215
370
    70
100
AcDbVertex
100
AcDb2dVertex
 10
21.07943047417535
 20
17.85648766411676
 30
0.0
  0
VERTEX
  5
EB
330
D7
100
AcDbEntity
  8
Layer 1
 62
     7
420
 16777215
370
    70
100
AcDbVertex
100
AcDb2dVertex
 10
21.07943047417535
 20
19.91337666829428
 30
0.0
  0
VERTEX
  5
EC
330
D7
100
AcDbEntity
  8
Layer 1
 62
     7
420
 16777215
370
    70
100
AcDbVertex
100
AcDb2dVertex
 10
20.18898688422309
 20
19.91337666829428
 30
0.0
  0
SEQEND
  5
ED
330
D7
100
AcDbEntity
  8
Layer 1
 62
     7
420
 16777215
370
    70
  0
ENDBLK
  5
C1
330
BE
100
AcDbEntity
  8
0
100
AcDbBlockEnd
  0
ENDSEC
  0
SECTION
  2
ENTITIES
  0
POLYLINE
  5
41
330
1F
100
AcDbEntity
  8
Layer 1
 62
     7
420
 16777215
370
    60
100
AcDb2dPolyline
 66
     1
 10
0.0
 20
0.0
 30
0.0
  0
VERTEX
  5
42
330
41
100
AcDbEntity
  8
Layer 1
 62
     7
420
 16777215
370
    60
100
AcDbVertex
100
AcDb2dVertex
 10
10.7330559624566
 20
24.48009826660157
 30
0.0
  0
VERTEX
  5
43
330
41
100
AcDbEntity
  8
Layer 1
 62
     7
420
 16777215
370
    60
100
AcDbVertex
100
AcDb2dVertex
 10
10.7330559624566
 20
22.72304277208117
 30
0.0
  0
VERTEX
  5
44
330
41
100
AcDbEntity
  8
Layer 1
 62
     7
420
 16777215
370
    60
100
AcDbVertex
100
AcDb2dVertex
 10
17.2350836859809
 20
22.72304277208117
 30
0.0
  0
VERTEX
  5
45
330
41
100
AcDbEntity
  8
Layer 1
 62
     7
420
 16777215
370
    60
100
AcDbVertex
100
AcDb2dVertex
 10
17.2350836859809
 20
24.48009826660157
 30
0.0
  0
VERTEX
  5
46
330
41
100
AcDbEntity
  8
Layer 1
 62
     7
420
 16777215
370
    60
100
AcDbVertex
100
AcDb2dVertex
 10
10.7330559624566
 20
24.48009826660157
 30
0.0
  0
SEQEND
  5
47
330
41
100
AcDbEntity
  8
Layer 1
 62
     7
420
 16777215
370
    60
  0
POLYLINE
  5
48
330
1F
100
AcDbEntity
  8
Layer 1
 62
     7
420
 16777215
370
    60
100
AcDb2dPolyline
 66
     1
 10
0.0
 20
0.0
 30
0.0
  0
VERTEX
  5
49
330
48
100
AcDbEntity
  8
Layer 1
 62
     7
420
 16777215
370
    60
100
AcDbVertex
100
AcDb2dVertex
 10
15.40311177571614
 20
23.9027379014757
 30
0.0
  0
VERTEX
  5
4A
330
48
100
AcDbEntity
  8
Layer 1
 62
     7
420
 16777215
370
    60
100
AcDbVertex
100
AcDb2dVertex
 10
12.47069464789496
 20
23.9027379014757
 30
0.0
  0
VERTEX
  5
4B
330
48
100
AcDbEntity
  8
Layer 1
 62
     7
420
 16777215
370
    60
100
AcDbVertex
100
AcDb2dVertex
 10
12.47069464789496
 20
24.11273783365886
 30
0.0
  0
VERTEX
  5
4C
330
48
100
AcDbEntity
  8
Layer 1
 62
     7
420
 16777215
370
    60
100
AcDbVertex
100
AcDb2dVertex
 10
15.40309651692708
 20
24.11273783365886
 30
0.0
  0
VERTEX
  5
4D
330
48
100
AcDbEntity
  8
Layer 1
 62
     7
420
 16777215
370
    60
100
AcDbVertex
100
AcDb2dVertex
 10
15.40309651692708
 20
23.9027379014757
 30
0.0
  0
VERTEX
  5
4E
330
48
100
AcDbEntity
  8
Layer 1
 62
     7
420
 16777215
370
    60
100
AcDbVertex
100
AcDb2dVertex
 10
15.40311177571614
 20
23.9027379014757
 30
0.0
  0
SEQEND
  5
4F
330
48
100
AcDbEntity
  8
Layer 1
 62
     7
420
 16777215
370
    60
  0
INSERT
  5
51
330
1F
100
AcDbEntity
  8
Layer 1
100
AcDbBlockReference
  2
block 2
 10
0.0
 20
0.0
 30
0.0
  0
INSERT
  5
79
330
1F
100
AcDbEntity
  8
Layer 1
100
AcDbBlockReference
  2
block 3
 10
0.0
 20
0.0
 30
0.0
  0
INSERT
  5
8F
330
1F
100
AcDbEntity
  8
Layer 1
100
AcDbBlockReference
  2
block 4
 10
0.0
 20
0.0
 30
0.0
  0
INSERT
  5
BF
330
1F
100
AcDbEntity
  8
Layer 1
100
AcDbBlockReference
  2
block 5
 10
0.0
 20
0.0
 30
0.0
  0
POLYLINE
  5
EE
330
1F
100
AcDbEntity
  8
Layer 1
 62
     7
420
 16777215
370
    70
100
AcDb2dPolyline
 66
     1
 10
0.0
 20
0.0
 30
0.0
  0
VERTEX
  5
EF
330
EE
100
AcDbEntity
  8
Layer 1
 62
     7
420
 16777215
370
    70
100
AcDbVertex
100
AcDb2dVertex
 10
6.994736141628689
 20
31.35170975579156
 30
0.0
  0
VERTEX
  5
F0
330
EE
100
AcDbEntity
  8
Layer 1
 62
     7
420
 16777215
370
    70
100
AcDbVertex
100
AcDb2dVertex
 10
6.994736141628689
 20
29.29483473883735
 30
0.0
  0
VERTEX
  5
F1
330
EE
100
AcDbEntity
  8
Layer 1
 62
     7
420
 16777215
370
    70
100
AcDbVertex
100
AcDb2dVertex
 10
7.760083516438802
 20
29.29483473883735
 30
0.0
  0
VERTEX
  5
F2
330
EE
100
AcDbEntity
  8
Layer 1
 62
     7
420
 16777215
370
    70
100
AcDbVertex
100
AcDb2dVertex
 10
6.731652577718099
 20
25.07344560411242
 30
0.0
  0
VERTEX
  5
F3
330
EE
100
AcDbEntity
  8
Layer 1
 62
     7
420
 16777215
370
    70
100
AcDbVertex
100
AcDb2dVertex
 10
5.559694502088758
 20
29.29483473883735
 30
0.0
  0
VERTEX
  5
F4
330
EE
100
AcDbEntity
  8
Layer 1
 62
     7
420
 16777215
370
    70
100
AcDbVertex
100
AcDb2dVertex
 10
6.229388766818576
 20
29.29483473883735
 30
0.0
  0
VERTEX
  5
F5
330
EE
100
AcDbEntity
  8
Layer 1
 62
     7
420
 16777215
370
    70
100
AcDbVertex
100
AcDb2dVertex
 10
6.229388766818576
 20
31.35170975579156
 30
0.0
  0
VERTEX
  5
F6
330
EE
100
AcDbEntity
  8
Layer 1
 62
     7
420
 16777215
370
    70
100
AcDbVertex
100
AcDb2dVertex
 10
1.182861116197374
 20
31.35170975579156
 30
0.0
  0
VERTEX
  5
F7
330
EE
100
AcDbEntity
  8
Layer 1
 62
     7
420
 16777215
370
    70
100
AcDbVertex
100
AcDb2dVertex
 10
1.182861116197374
 20
29.29483473883735
 30
0.0
  0
VERTEX
  5
F8
330
EE
100
AcDbEntity
  8
Layer 1
 62
     7
420
 16777215
370
    70
100
AcDbVertex
100
AcDb2dVertex
 10
2.1515138414171
 20
29.29483473883735
 30
0.0
  0
VERTEX
  5
F9
330
EE
100
AcDbEntity
  8
Layer 1
 62
     7
420
 16777215
370
    70
100
AcDbVertex
100
AcDb2dVertex
 10
4.256222195095486
 20
22.05987630208334
 30
0.0
  0
VERTEX
  5
FA
330
EE
100
AcDbEntity
  8
Layer 1
 62
     7
420
 16777215
370
    70
100
AcDbVertex
100
AcDb2dVertex
 10
4.499041663275825
 20
22.05987630208334
 30
0.0
  0
VERTEX
  5
FB
330
EE
100
AcDbEntity
  8
Layer 1
 62
     7
420
 16777215
370
    70
100
AcDbVertex
100
AcDb2dVertex
 10
4.499041663275825
 20
21.85736250135634
 30
0.0
  0
VERTEX
  5
FC
330
EE
100
AcDbEntity
  8
Layer 1
 62
     7
420
 16777215
370
    70
100
AcDbVertex
100
AcDb2dVertex
 10
7.422319200303819
 20
21.85736250135634
 30
0.0
  0
VERTEX
  5
FD
330
EE
100
AcDbEntity
  8
Layer 1
 62
     7
420
 16777215
370
    70
100
AcDbVertex
100
AcDb2dVertex
 10
7.422319200303819
 20
22.05987630208334
 30
0.0
  0
VERTEX
  5
FE
330
EE
100
AcDbEntity
  8
Layer 1
 62
     7
420
 16777215
370
    70
100
AcDbVertex
100
AcDb2dVertex
 10
7.67637464735243
 20
22.05987630208334
 30
0.0
  0
VERTEX
  5
FF
330
EE
100
AcDbEntity
  8
Layer 1
 62
     7
420
 16777215
370
    70
100
AcDbVertex
100
AcDb2dVertex
 10
9.996347215440538
 20
29.29483473883735
 30
0.0
  0
VERTEX
  5
100
330
EE
100
AcDbEntity
  8
Layer 1
 62
     7
420
 16777215
370
    70
100
AcDbVertex
100
AcDb2dVertex
 10
11.04870859781901
 20
29.29483473883735
 30
0.0
  0
VERTEX
  5
101
330
EE
100
AcDbEntity
  8
Layer 1
 62
     7
420
 16777215
370
    70
100
AcDbVertex
100
AcDb2dVertex
 10
11.04870859781901
 20
31.35170975579156
 30
0.0
  0
VERTEX
  5
102
330
EE
100
AcDbEntity
  8
Layer 1
 62
     7
420
 16777215
370
    70
100
AcDbVertex
100
AcDb2dVertex
 10
6.994736141628689
 20
31.35170975579156
 30
0.0
  0
SEQEND
  5
103
330
EE
100
AcDbEntity
  8
Layer 1
 62
     7
420
 16777215
370
    70
  0
ENDSEC
  0
SECTION
  2
OBJECTS
  0
DICTIONARY
  5
C
330
0
100
AcDbDictionary
281
     1
  3
ACAD_GROUP
350
D
  3
ACAD_LAYOUT
350
1A
  3
ACAD_MATERIAL
350
3B
  3
ACAD_MLEADERSTYLE
350
105
  3
ACAD_MLINESTYLE
350
17
  3
ACAD_PLOTSETTINGS
350
19
  3
ACAD_PLOTSTYLENAME
350
E
  3
ACAD_TABLESTYLE
350
104
  3
ACAD_VISUALSTYLE
350
2A
  0
SUN
  5
3F
330
29
100
AcDbSun
 90
        1
290
     0
 63
     7
421
 16777215
 40
1.0
291
     1
 91
  2455826
 92
 54000000
292
     0
 70
     2
 71
   256
280
     1
  0
DICTIONARY
  5
D
102
{ACAD_REACTORS
330
C
102
}
330
C
100
AcDbDictionary
281
     1
  0
DICTIONARY
  5
1A
102
{ACAD_REACTORS
330
C
102
}
330
C
100
AcDbDictionary
281
     1
  3
Layout1
350
1E
  3
Layout2
350
26
  3
Model
350
22
  0
DICTIONARY
  5
3B
102
{ACAD_REACTORS
330
C
102
}
330
C
100
AcDbDictionary
281
     1
  3
ByBlock
350
3D
  3
ByLayer
350
3C
  3
Global
350
3E
  0
DICTIONARY
  5
105
102
{ACAD_REACTORS
330
C
102
}
330
C
100
AcDbDictionary
281
     1
  0
DICTIONARY
  5
17
102
{ACAD_REACTORS
330
C
102
}
330
C
100
AcDbDictionary
281
     1
  3
Standard
350
18
  0
DICTIONARY
  5
19
102
{ACAD_REACTORS
330
C
102
}
330
C
100
AcDbDictionary
281
     1
  0
ACDBDICTIONARYWDFLT
  5
E
102
{ACAD_REACTORS
330
C
102
}
330
C
100
AcDbDictionary
281
     1
  3
Normal
350
F
100
AcDbDictionaryWithDefault
340
F
  0
DICTIONARY
  5
104
102
{ACAD_REACTORS
330
C
102
}
330
C
100
AcDbDictionary
281
     1
  0
DICTIONARY
  5
2A
102
{ACAD_REACTORS
330
C
102
}
330
C
100
AcDbDictionary
281
     1
  3
2dWireframe
350
2F
  3
3D Hidden
350
31
  3
3dWireframe
350
30
  3
Basic
350
32
  3
Brighten
350
36
  3
ColorChange
350
3A
  3
Conceptual
350
34
  3
Dim
350
35
  3
Facepattern
350
39
  3
Flat
350
2B
  3
FlatWithEdges
350
2C
  3
Gouraud
350
2D
  3
GouraudWithEdges
350
2E
  3
Linepattern
350
38
  3
Realistic
350
33
  3
Thicken
350
37
  0
LAYOUT
  5
1E
102
{ACAD_REACTORS
330
1A
102
}
330
1A
100
AcDbPlotSettings
  1

  2
none_device
  4

  6

 40
0.0
 41
0.0
 42
0.0
 43
0.0
 44
0.0
 45
0.0
 46
0.0
 47
0.0
 48
0.0
 49
0.0
140
0.0
141
0.0
142
1.0
143
1.0
 70
   688
 72
     0
 73
     0
 74
     5
  7

 75
    16
 76
     0
 77
     2
 78
   300
147
1.0
148
0.0
149
0.0
100
AcDbLayout
  1
Layout1
 70
     1
 71
     1
 10
0.0
 20
0.0
 11
12.0
 21
9.0
 12
0.0
 22
0.0
 32
0.0
 14
1.000000000000000E+20
 24
1.000000000000000E+20
 34
1.000000000000000E+20
 15
-1.000000000000000E+20
 25
-1.000000000000000E+20
 35
-1.000000000000000E+20
146
0.0
 13
0.0
 23
0.0
 33
0.0
 16
1.0
 26
0.0
 36
0.0
 17
0.0
 27
1.0
 37
0.0
 76
     0
330
1B
  0
LAYOUT
  5
26
102
{ACAD_REACTORS
330
1A
102
}
330
1A
100
AcDbPlotSettings
  1

  2
none_device
  4

  6

 40
0.0
 41
0.0
 42
0.0
 43
0.0
 44
0.0
 45
0.0
 46
0.0
 47
0.0
 48
0.0
 49
0.0
140
0.0
141
0.0
142
1.0
143
1.0
 70
   688
 72
     0
 73
     0
 74
     5
  7

 75
    16
 76
     0
 77
     2
 78
   300
147
1.0
148
0.0
149
0.0
100
AcDbLayout
  1
Layout2
 70
     1
 71
     2
 10
0.0
 20
0.0
 11
0.0
 21
0.0
 12
0.0
 22
0.0
 32
0.0
 14
0.0
 24
0.0
 34
0.0
 15
0.0
 25
0.0
 35
0.0
146
0.0
 13
0.0
 23
0.0
 33
0.0
 16
1.0
 26
0.0
 36
0.0
 17
0.0
 27
1.0
 37
0.0
 76
     0
330
23
  0
LAYOUT
  5
22
102
{ACAD_REACTORS
330
1A
102
}
330
1A
100
AcDbPlotSettings
  1

  2
none_device
  4

  6

 40
0.0
 41
0.0
 42
0.0
 43
0.0
 44
0.0
 45
0.0
 46
0.0
 47
0.0
 48
0.0
 49
0.0
140
0.0
141
0.0
142
1.0
143
1.0
 70
  1712
 72
     0
 73
     0
 74
     0
  7

 75
     0
 76
     0
 77
     2
 78
   300
147
1.0
148
0.0
149
0.0
100
AcDbLayout
  1
Model
 70
     1
 71
     0
 10
0.0
 20
0.0
 11
12.0
 21
9.0
 12
0.0
 22
0.0
 32
0.0
 14
1.000000000000000E+20
 24
1.000000000000000E+20
 34
1.000000000000000E+20
 15
-1.000000000000000E+20
 25
-1.000000000000000E+20
 35
-1.000000000000000E+20
146
0.0
 13
0.0
 23
0.0
 33
0.0
 16
1.0
 26
0.0
 36
0.0
 17
0.0
 27
1.0
 37
0.0
 76
     0
330
1F
331
29
  0
MATERIAL
  5
3D
102
{ACAD_REACTORS
330
3B
102
}
330
3B
100
AcDbMaterial
  1
ByBlock
 72
     1
 94
      127
  0
MATERIAL
  5
3C
102
{ACAD_REACTORS
330
3B
102
}
330
3B
100
AcDbMaterial
  1
ByLayer
 72
     1
 94
      127
  0
MATERIAL
  5
3E
102
{ACAD_REACTORS
330
3B
102
}
330
3B
100
AcDbMaterial
  1
Global
 72
     1
 94
      127
  0
MLINESTYLE
  5
18
102
{ACAD_REACTORS
330
17
102
}
330
17
100
AcDbMlineStyle
  2
Standard
 70
     0
  3

 62
   256
 51
90.0
 52
90.0
 71
     2
 49
0.5
 62
   256
  6
BYLAYER
 49
-0.5
 62
   256
  6
BYLAYER
  0
ACDBPLACEHOLDER
  5
F
102
{ACAD_REACTORS
330
E
102
}
330
E
  0
VISUALSTYLE
  5
2F
102
{ACAD_REACTORS
330
2A
102
}
330
2A
100
AcDbVisualStyle
  2
2dWireframe
 70
     4
177
     2
291
     0
 71
     0
176
     1
 72
     2
176
     1
 73
     0
176
     1
 90
        0
176
     1
 40
-0.6
176
     1
 41
-30.0
176
     1
 62
     5
 63
     7
421
 16777215
176
     1
 74
     1
176
     1
 91
        4
176
     1
 64
     7
176
     1
 65
   257
176
     1
 75
     1
176
     1
175
     1
176
     1
 42
1.0
176
     1
 92
        0
176
     1
 66
   257
176
     1
 43
1.0
176
     1
 76
     1
176
     1
 77
     6
176
     1
 78
     2
176
     1
 67
     7
176
     1
 79
     5
176
     1
170
     0
176
     1
171
     0
176
     1
290
     0
176
     1
 93
        1
176
     1
 44
0.0
176
     1
173
     0
176
     1
  0
VISUALSTYLE
  5
31
102
{ACAD_REACTORS
330
2A
102
}
330
2A
100
AcDbVisualStyle
  2
3D Hidden
 70
     6
177
     2
291
     0
 71
     1
176
     1
 72
     2
176
     1
 73
     2
176
     1
 90
        0
176
     1
 40
-0.6
176
     1
 41
-30.0
176
     1
 62
     5
 63
     7
421
 16777215
176
     1
 74
     2
176
     1
 91
        2
176
     1
 64
     7
176
     1
 65
   257
176
     1
 75
     2
176
     1
175
     1
176
     1
 42
40.0
176
     1
 92
        0
176
     1
 66
   257
176
     1
 43
1.0
176
     1
 76
     1
176
     1
 77
     6
176
     1
 78
     2
176
     1
 67
     7
176
     1
 79
     3
176
     1
170
     0
176
     1
171
     0
176
     1
290
     0
176
     1
 93
        1
176
     1
 44
0.0
176
     1
173
     0
176
     1
  0
VISUALSTYLE
  5
30
102
{ACAD_REACTORS
330
2A
102
}
330
2A
100
AcDbVisualStyle
  2
3dWireframe
 70
     5
177
     2
291
     0
 71
     0
176
     1
 72
     2
176
     1
 73
     0
176
     1
 90
        0
176
     1
 40
-0.6
176
     1
 41
-30.0
176
     1
 62
     5
 63
     7
421
 16777215
176
     1
 74
     1
176
     1
 91
        4
176
     1
 64
     7
176
     1
 65
   257
176
     1
 75
     1
176
     1
175
     1
176
     1
 42
1.0
176
     1
 92
        0
176
     1
 66
   257
176
     1
 43
1.0
176
     1
 76
     1
176
     1
 77
     6
176
     1
 78
     2
176
     1
 67
     7
176
     1
 79
     5
176
     1
170
     0
176
     1
171
     0
176
     1
290
     0
176
     1
 93
        1
176
     1
 44
0.0
176
     1
173
     0
176
     1
  0
VISUALSTYLE
  5
32
102
{ACAD_REACTORS
330
2A
102
}
330
2A
100
AcDbVisualStyle
  2
Basic
 70
     7
177
     2
291
     1
 71
     1
176
     1
 72
     0
176
     1
 73
     1
176
     1
 90
        0
176
     1
 40
-0.6
176
     1
 41
-30.0
176
     1
 62
     5
 63
     7
421
 16777215
176
     1
 74
     0
176
     1
 91
        4
176
     1
 64
     7
176
     1
 65
   257
176
     1
 75
     1
176
     1
175
     1
176
     1
 42
1.0
176
     1
 92
        8
176
     1
 66
     7
176
     1
 43
1.0
176
     1
 76
     1
176
     1
 77
     6
176
     1
 78
     2
176
     1
 67
     7
176
     1
 79
     5
176
     1
170
     0
176
     1
171
     0
176
     1
290
     0
176
     1
 93
        1
176
     1
 44
0.0
176
     1
173
     0
176
     1
  0
VISUALSTYLE
  5
36
102
{ACAD_REACTORS
330
2A
102
}
330
2A
100
AcDbVisualStyle
  2
Brighten
 70
    12
177
     2
291
     1
 71
     2
176
     1
 72
     2
176
     1
 73
     0
176
     1
 90
        0
176
     1
 40
-0.6
176
     1
 41
-30.0
176
     1
 62
     5
 63
     7
421
 16777215
176
     1
 74
     1
176
     1
 91
        4
176
     1
 64
     7
176
     1
 65
   257
176
     1
 75
     1
176
     1
175
     1
176
     1
 42
1.0
176
     1
 92
        8
176
     1
 66
     7
176
     1
 43
1.0
176
     1
 76
     1
176
     1
 77
     6
176
     1
 78
     2
176
     1
 67
     7
176
     1
 79
     5
176
     1
170
     0
176
     1
171
     0
176
     1
290
     0
176
     1
 93
        1
176
     1
 44
50.0
176
     1
173
     0
176
     1
  0
VISUALSTYLE
  5
3A
102
{ACAD_REACTORS
330
2A
102
}
330
2A
100
AcDbVisualStyle
  2
ColorChange
 70
    16
177
     2
291
     1
 71
     2
176
     1
 72
     2
176
     1
 73
     3
176
     1
 90
        0
176
     1
 40
-0.6
176
     1
 41
-30.0
176
     1
 62
     5
 63
     8
421
  8421504
176
     1
 74
     1
176
     1
 91
        4
176
     1
 64
     7
176
     1
 65
   257
176
     1
 75
     1
176
     1
175
     1
176
     1
 42
1.0
176
     1
 92
        8
176
     1
 66
     8
424
  8421504
176
     1
 43
1.0
176
     1
 76
     1
176
     1
 77
     6
176
     1
 78
     2
176
     1
 67
     7
176
     1
 79
     5
176
     1
170
     0
176
     1
171
     0
176
     1
290
     0
176
     1
 93
        1
176
     1
 44
0.0
176
     1
173
     0
176
     1
  0
VISUALSTYLE
  5
34
102
{ACAD_REACTORS
330
2A
102
}
330
2A
100
AcDbVisualStyle
  2
Conceptual
 70
     9
177
     2
291
     0
 71
     3
176
     1
 72
     2
176
     1
 73
     0
176
     1
 90
        0
176
     1
 40
-0.6
176
     1
 41
-30.0
176
     1
 62
     5
 63
     7
421
 16777215
176
     1
 74
     2
176
     1
 91
        2
176
     1
 64
     7
176
     1
 65
   257
176
     1
 75
     1
176
     1
175
     1
176
     1
 42
40.0
176
     1
 92
        8
176
     1
 66
     7
176
     1
 43
1.0
176
     1
 76
     1
176
     1
 77
     6
176
     1
 78
     2
176
     1
 67
     7
176
     1
 79
     3
176
     1
170
     0
176
     1
171
     0
176
     1
290
     0
176
     1
 93
        1
176
     1
 44
0.0
176
     1
173
     0
176
     1
  0
VISUALSTYLE
  5
35
102
{ACAD_REACTORS
330
2A
102
}
330
2A
100
AcDbVisualStyle
  2
Dim
 70
    11
177
     2
291
     1
 71
     2
176
     1
 72
     2
176
     1
 73
     0
176
     1
 90
        0
176
     1
 40
-0.6
176
     1
 41
-30.0
176
     1
 62
     5
 63
     7
421
 16777215
176
     1
 74
     1
176
     1
 91
        4
176
     1
 64
     7
176
     1
 65
   257
176
     1
 75
     1
176
     1
175
     1
176
     1
 42
1.0
176
     1
 92
        8
176
     1
 66
     7
176
     1
 43
1.0
176
     1
 76
     1
176
     1
 77
     6
176
     1
 78
     2
176
     1
 67
     7
176
     1
 79
     5
176
     1
170
     0
176
     1
171
     0
176
     1
290
     0
176
     1
 93
        1
176
     1
 44
-50.0
176
     1
173
     0
176
     1
  0
VISUALSTYLE
  5
39
102
{ACAD_REACTORS
330
2A
102
}
330
2A
100
AcDbVisualStyle
  2
Facepattern
 70
    15
177
     2
291
     1
 71
     2
176
     1
 72
     2
176
     1
 73
     0
176
     1
 90
        0
176
     1
 40
-0.6
176
     1
 41
-30.0
176
     1
 62
     5
 63
     7
421
 16777215
176
     1
 74
     1
176
     1
 91
        4
176
     1
 64
     7
176
     1
 65
   257
176
     1
 75
     1
176
     1
175
     1
176
     1
 42
1.0
176
     1
 92
        8
176
     1
 66
     7
176
     1
 43
1.0
176
     1
 76
     1
176
     1
 77
     6
176
     1
 78
     2
176
     1
 67
     7
176
     1
 79
     5
176
     1
170
     0
176
     1
171
     0
176
     1
290
     0
176
     1
 93
        1
176
     1
 44
0.0
176
     1
173
     0
176
     1
  0
VISUALSTYLE
  5
2B
102
{ACAD_REACTORS
330
2A
102
}
330
2A
100
AcDbVisualStyle
  2
Flat
 70
     0
177
     2
291
     1
 71
     2
176
     1
 72
     1
176
     1
 73
     1
176
     1
 90
        2
176
     1
 40
-0.6
176
     1
 41
30.0
176
     1
 62
     5
 63
     7
421
 16777215
176
     1
 74
     0
176
     1
 91
        4
176
     1
 64
     7
176
     1
 65
   257
176
     1
 75
     1
176
     1
175
     1
176
     1
 42
1.0
176
     1
 92
        8
176
     1
 66
     7
176
     1
 43
1.0
176
     1
 76
     1
176
     1
 77
     6
176
     1
 78
     2
176
     1
 67
     7
176
     1
 79
     5
176
     1
170
     0
176
     1
171
     0
176
     1
290
     0
176
     1
 93
       13
176
     1
 44
0.0
176
     1
173
     0
176
     1
  0
VISUALSTYLE
  5
2C
102
{ACAD_REACTORS
330
2A
102
}
330
2A
100
AcDbVisualStyle
  2
FlatWithEdges
 70
     1
177
     2
291
     1
 71
     2
176
     1
 72
     1
176
     1
 73
     1
176
     1
 90
        2
176
     1
 40
-0.6
176
     1
 41
30.0
176
     1
 62
     5
 63
     7
421
 16777215
176
     1
 74
     1
176
     1
 91
        4
176
     1
 64
     7
176
     1
 65
   257
176
     1
 75
     1
176
     1
175
     1
176
     1
 42
1.0
176
     1
 92
        0
176
     1
 66
   257
176
     1
 43
1.0
176
     1
 76
     1
176
     1
 77
     6
176
     1
 78
     2
176
     1
 67
     7
176
     1
 79
     5
176
     1
170
     0
176
     1
171
     0
176
     1
290
     0
176
     1
 93
       13
176
     1
 44
0.0
176
     1
173
     0
176
     1
  0
VISUALSTYLE
  5
2D
102
{ACAD_REACTORS
330
2A
102
}
330
2A
100
AcDbVisualStyle
  2
Gouraud
 70
     2
177
     2
291
     1
 71
     2
176
     1
 72
     2
176
     1
 73
     1
176
     1
 90
        2
176
     1
 40
-0.6
176
     1
 41
30.0
176
     1
 62
     5
 63
     7
421
 16777215
176
     1
 74
     0
176
     1
 91
        4
176
     1
 64
     7
176
     1
 65
   257
176
     1
 75
     1
176
     1
175
     1
176
     1
 42
1.0
176
     1
 92
        0
176
     1
 66
     7
176
     1
 43
1.0
176
     1
 76
     1
176
     1
 77
     6
176
     1
 78
     2
176
     1
 67
     7
176
     1
 79
     5
176
     1
170
     0
176
     1
171
     0
176
     1
290
     0
176
     1
 93
       13
176
     1
 44
0.0
176
     1
173
     0
176
     1
  0
VISUALSTYLE
  5
2E
102
{ACAD_REACTORS
330
2A
102
}
330
2A
100
AcDbVisualStyle
  2
GouraudWithEdges
 70
     3
177
     2
291
     1
 71
     2
176
     1
 72
     2
176
     1
 73
     1
176
     1
 90
        2
176
     1
 40
-0.6
176
     1
 41
30.0
176
     1
 62
     5
 63
     7
421
 16777215
176
     1
 74
     1
176
     1
 91
        4
176
     1
 64
     7
176
     1
 65
   257
176
     1
 75
     1
176
     1
175
     1
176
     1
 42
1.0
176
     1
 92
        0
176
     1
 66
   257
176
     1
 43
1.0
176
     1
 76
     1
176
     1
 77
     6
176
     1
 78
     2
176
     1
 67
     7
176
     1
 79
     5
176
     1
170
     0
176
     1
171
     0
176
     1
290
     0
176
     1
 93
       13
176
     1
 44
0.0
176
     1
173
     0
176
     1
  0
VISUALSTYLE
  5
38
102
{ACAD_REACTORS
330
2A
102
}
330
2A
100
AcDbVisualStyle
  2
Linepattern
 70
    14
177
     2
291
     1
 71
     2
176
     1
 72
     2
176
     1
 73
     0
176
     1
 90
        0
176
     1
 40
-0.6
176
     1
 41
-30.0
176
     1
 62
     5
 63
     7
421
 16777215
176
     1
 74
     1
176
     1
 91
        4
176
     1
 64
     7
176
     1
 65
   257
176
     1
 75
     7
176
     1
175
     7
176
     1
 42
1.0
176
     1
 92
        8
176
     1
 66
     7
176
     1
 43
1.0
176
     1
 76
     1
176
     1
 77
     6
176
     1
 78
     2
176
     1
 67
     7
176
     1
 79
     5
176
     1
170
     0
176
     1
171
     0
176
     1
290
     0
176
     1
 93
        1
176
     1
 44
0.0
176
     1
173
     0
176
     1
  0
VISUALSTYLE
  5
33
102
{ACAD_REACTORS
330
2A
102
}
330
2A
100
AcDbVisualStyle
  2
Realistic
 70
     8
177
     2
291
     0
 71
     2
176
     1
 72
     2
176
     1
 73
     0
176
     1
 90
        0
176
     1
 40
-0.6
176
     1
 41
-30.0
176
     1
 62
     5
 63
     7
421
 16777215
176
     1
 74
     1
176
     1
 91
        0
176
     1
 64
     7
176
     1
 65
   257
176
     1
 75
     1
176
     1
175
     1
176
     1
 42
1.0
176
     1
 92
        8
176
     1
 66
     8
424
  7895160
176
     1
 43
1.0
176
     1
 76
     1
176
     1
 77
     6
176
     1
 78
     2
176
     1
 67
     7
176
     1
 79
     5
176
     1
170
     0
176
     1
171
     0
176
     1
290
     0
176
     1
 93
       13
176
     1
 44
0.0
176
     1
173
     0
176
     1
  0
VISUALSTYLE
  5
37
102
{ACAD_REACTORS
330
2A
102
}
330
2A
100
AcDbVisualStyle
  2
Thicken
 70
    13
177
     2
291
     1
 71
     2
176
     1
 72
     2
176
     1
 73
     0
176
     1
 90
        0
176
     1
 40
-0.6
176
     1
 41
-30.0
176
     1
 62
     5
 63
     7
421
 16777215
176
     1
 74
     1
176
     1
 91
        4
176
     1
 64
     7
176
     1
 65
   257
176
     1
 75
     1
176
     1
175
     1
176
     1
 42
1.0
176
     1
 92
       12
176
     1
 66
     7
176
     1
 43
1.0
176
     1
 76
     1
176
     1
 77
     6
176
     1
 78
     2
176
     1
 67
     7
176
     1
 79
     5
176
     1
170
     0
176
     1
171
     0
176
     1
290
     0
176
     1
 93
        1
176
     1
 44
0.0
176
     1
173
     0
176
     1
  0
ENDSEC
  0
EOF
