<?xml version="1.0" encoding="utf-8"?>
<!-- Generator: Adobe Illustrator 25.0.0, SVG Export Plug-In . SVG Version: 6.00 Build 0)  -->
<svg version="1.1" id="Layer_1" xmlns="http://www.w3.org/2000/svg" xmlns:xlink="http://www.w3.org/1999/xlink" x="0px" y="0px"
	 width="1567.251px" height="2326.86px" viewBox="0 0 1567.251 2326.86" style="enable-background:new 0 0 1567.251 2326.86;"
	 xml:space="preserve">
<style type="text/css">
	.st0{enable-background:new    ;}
	.st1{fill:none;stroke:#000000;stroke-width:0.75;stroke-miterlimit:10;}
	.st2{fill:none;stroke:#FF00FF;stroke-width:2;stroke-miterlimit:10;}
	.st3{fill:none;stroke:#000000;stroke-width:0.871;stroke-miterlimit:10;}
</style>
<g class="st0">
	<path class="st1" d="M61.631,2158.445h67.159v-372.82H61.631v-148.096h309.967c121.687,0,214.824,28.132,279.4,84.38
		c64.576,56.263,96.865,139.485,96.865,249.695c0,107.345-32.154,190.003-96.435,247.974
		c-64.294,57.984-157.862,86.963-280.692,86.963H61.631V2158.445z M370.736,2158.445c47.061,0,81.366-17.65,102.892-52.952
		s32.289-79.927,32.289-133.889c0-55.105-10.629-99.878-31.858-134.318c-21.243-34.441-55.684-51.661-103.322-51.661h-26.691v372.82
		H370.736z"/>
	<path class="st1" d="M86.831,2281.341v-97.695h67.159v-423.221H86.831v-97.695h284.767c58.087,0,109.844,6.735,153.831,20.021
		c42.91,12.96,79.589,32.527,109.018,58.161c29.023,25.287,51.131,57.159,65.706,94.729c14.938,38.503,22.511,84.248,22.511,135.964
		c0,50.281-7.536,95.152-22.398,133.368c-14.56,37.436-36.668,69.698-65.713,95.892c-29.261,26.39-65.925,46.531-108.976,59.868
		c-44.143,13.675-96.238,20.608-154.84,20.608H86.831z M318.845,2183.646h51.892c27.472,0,51.882-5.394,72.553-16.031
		c21.249-10.935,38.696-27.422,51.854-49.002c23.87-39.146,35.974-88.605,35.974-147.008c0-59.572-11.979-109.212-35.606-147.542
		c-13.073-21.195-30.55-37.364-51.945-48.062c-20.67-10.336-45.174-15.576-72.829-15.576h-51.892v423.221H318.845z"/>
</g>
<path class="st2" d="M763.263,2158.445h67.159v-372.82h-67.159v-148.096h309.967c121.687,0,214.824,28.132,279.4,84.38
	c64.576,56.263,96.865,139.485,96.865,249.695c0,107.345-32.154,190.003-96.435,247.974
	c-64.294,57.984-157.862,86.963-280.692,86.963H763.263V2158.445z M1072.369,2158.445c47.061,0,81.366-17.65,102.892-52.952
	s32.289-79.927,32.289-133.889c0-55.105-10.629-99.878-31.858-134.318c-21.243-34.441-55.684-51.661-103.322-51.661h-26.691v372.82
	H1072.369z"/>
<g>
	<path class="st1" d="M443.289,1465.424c21.249-10.935,38.696-27.422,51.854-49.002c23.87-39.146,35.974-88.605,35.974-147.008
		c0-59.572-11.979-109.212-35.606-147.542c-13.073-21.195-30.55-37.364-51.945-48.062c-20.67-10.336-45.174-15.576-72.829-15.576
		h-51.892v423.221h51.892C398.208,1481.455,422.618,1476.062,443.289,1465.424z M344.045,1083.435h26.691
		c47.639,0,82.079,17.22,103.322,51.661c21.229,34.44,31.858,79.213,31.858,134.318c0,53.962-10.763,98.587-32.289,133.889
		c-21.525,35.302-55.831,52.952-102.892,52.952h-26.691v-372.82H344.045z"/>
	<path class="st1" d="M650.998,1019.719c-45.289-39.448-104.647-65.047-178.027-76.831v25.54
		c18.519,3.125,36.031,7.171,52.458,12.132c42.91,12.96,79.589,32.527,109.018,58.161c29.023,25.287,51.131,57.159,65.706,94.729
		c14.938,38.503,22.511,84.248,22.511,135.964c0,50.281-7.536,95.152-22.398,133.368c-14.56,37.436-36.668,69.698-65.713,95.892
		c-29.261,26.39-65.925,46.531-108.976,59.868c-44.143,13.675-96.238,20.608-154.84,20.608H86.831v-97.695h67.159v-423.221H86.831
		v-97.695h152.641v-25.2H61.631v148.096h67.159v372.82H61.631v148.096h309.105c122.83,0,216.398-28.979,280.692-86.963
		c64.28-57.971,96.435-140.629,96.435-247.974C747.863,1159.204,715.574,1075.982,650.998,1019.719z"/>
</g>
<g>
	<path class="st1" d="M1136.371,1465.424c21.249-10.935,38.696-27.422,51.854-49.002c23.87-39.146,35.974-88.605,35.974-147.008
		c0-59.572-11.979-109.212-35.606-147.542c-13.073-21.195-30.55-37.364-51.945-48.062c-20.67-10.336-45.174-15.576-72.829-15.576
		h-51.892v423.221h51.892C1091.29,1481.455,1115.7,1476.062,1136.371,1465.424z M1037.127,1083.435h26.691
		c47.639,0,82.079,17.22,103.322,51.661c21.229,34.44,31.858,79.213,31.858,134.318c0,53.962-10.763,98.587-32.289,133.889
		c-21.525,35.302-55.831,52.952-102.892,52.952h-26.691L1037.127,1083.435L1037.127,1083.435z"/>
	<path class="st1" d="M1344.08,1019.719c-45.289-39.448-104.646-65.047-178.027-76.831v25.54
		c18.519,3.125,36.031,7.171,52.458,12.132c42.91,12.96,79.589,32.527,109.018,58.161c29.023,25.287,51.131,57.159,65.706,94.729
		c14.938,38.503,22.511,84.248,22.511,135.964c0,50.281-7.536,95.152-22.398,133.368c-14.56,37.436-36.668,69.698-65.713,95.892
		c-29.261,26.39-65.925,46.531-108.976,59.868c-44.143,13.675-96.238,20.608-154.84,20.608H779.913v-97.695h67.159v-423.221h-67.159
		v-97.695h152.641v-25.2H754.713v148.096h67.159v372.82h-67.159v148.096h309.105c122.83,0,216.398-28.979,280.692-86.963
		c64.28-57.971,96.435-140.629,96.435-247.974C1440.945,1159.204,1408.656,1075.982,1344.08,1019.719z"/>
</g>
<path class="st1" d="M657.847,252.549c-64.576-56.248-157.714-84.38-279.4-84.38H68.48v148.096h67.159v372.82H68.48v148.096h105.383
	V852.5h258.185v-15.384h-45.769c118.552-1.345,209.233-30.292,271.999-86.898c64.28-57.971,96.435-140.629,96.435-247.974
	C754.713,392.035,722.424,308.812,657.847,252.549z M480.477,636.133c-21.525,35.302-55.831,52.952-102.892,52.952h-26.691v-372.82
	h26.691c47.639,0,82.079,17.22,103.322,51.661c21.229,34.44,31.858,79.213,31.858,134.318
	C512.766,556.207,502.004,600.832,480.477,636.133z"/>
<path class="st3" d="M759.895,718.971v126.508h571.565V718.971H759.895z M1178.326,760.541H920.141v-15.12h258.185L1178.326,760.541
	L1178.326,760.541z"/>
</svg>
