  0
SECTION
  2
HEADER
  9
$ACADVER
  1
AC1024
  9
$ACADMAINTVER
 70
     6
  9
$DWGCODEPAGE
  3
UNDEFINED
  9
$INSBASE
 10
0.0
 20
0.0
 30
0.0
  9
$EXTMIN
 10
1.000000000000000E+20
 20
1.000000000000000E+20
 30
1.000000000000000E+20
  9
$EXTMAX
 10
-1.000000000000000E+20
 20
-1.000000000000000E+20
 30
-1.000000000000000E+20
  9
$LIMMIN
 10
0.0
 20
0.0
  9
$LIMMAX
 10
12.0
 20
9.0
  9
$ORTHOMODE
 70
     0
  9
$REGENMODE
 70
     1
  9
$FILLMODE
 70
     1
  9
$QTEXTMODE
 70
     0
  9
$MIRRTEXT
 70
     1
  9
$LTSCALE
 40
1.0
  9
$ATTMODE
 70
     1
  9
$TEXTSIZE
 40
0.2
  9
$TRACEWID
 40
0.05
  9
$TEXTSTYLE
  7
Standard
  9
$CLAYER
  8
0
  9
$CELTYPE
  6
ByLayer
  9
$CECOLOR
 62
   256
  9
$CELTSCALE
 40
1.0
  9
$DISPSILH
 70
     0
  9
$DIMSCALE
 40
1.0
  9
$DIMASZ
 40
0.18
  9
$DIMEXO
 40
0.0625
  9
$DIMDLI
 40
0.38
  9
$DIMRND
 40
0.0
  9
$DIMDLE
 40
0.0
  9
$DIMEXE
 40
0.18
  9
$DIMTP
 40
0.0
  9
$DIMTM
 40
0.0
  9
$DIMTXT
 40
0.18
  9
$DIMCEN
 40
0.09
  9
$DIMTSZ
 40
0.0
  9
$DIMTOL
 70
     0
  9
$DIMLIM
 70
     0
  9
$DIMTIH
 70
     1
  9
$DIMTOH
 70
     1
  9
$DIMSE1
 70
     0
  9
$DIMSE2
 70
     0
  9
$DIMTAD
 70
     0
  9
$DIMZIN
 70
     0
  9
$DIMBLK
  1

  9
$DIMASO
 70
     1
  9
$DIMSHO
 70
     1
  9
$DIMPOST
  1

  9
$DIMAPOST
  1

  9
$DIMALT
 70
     0
  9
$DIMALTD
 70
     2
  9
$DIMALTF
 40
25.4
  9
$DIMLFAC
 40
1.0
  9
$DIMTOFL
 70
     0
  9
$DIMTVP
 40
0.0
  9
$DIMTIX
 70
     0
  9
$DIMSOXD
 70
     0
  9
$DIMSAH
 70
     0
  9
$DIMBLK1
  1

  9
$DIMBLK2
  1

  9
$DIMSTYLE
  2
Standard
  9
$DIMCLRD
 70
     0
  9
$DIMCLRE
 70
     0
  9
$DIMCLRT
 70
     0
  9
$DIMTFAC
 40
1.0
  9
$DIMGAP
 40
0.09
  9
$DIMJUST
 70
     0
  9
$DIMSD1
 70
     0
  9
$DIMSD2
 70
     0
  9
$DIMTOLJ
 70
     1
  9
$DIMTZIN
 70
     0
  9
$DIMALTZ
 70
     0
  9
$DIMALTTZ
 70
     0
  9
$DIMUPT
 70
     0
  9
$DIMDEC
 70
     4
  9
$DIMTDEC
 70
     4
  9
$DIMALTU
 70
     2
  9
$DIMALTTD
 70
     2
  9
$DIMTXSTY
  7
Standard
  9
$DIMAUNIT
 70
     0
  9
$DIMADEC
 70
     0
  9
$DIMALTRND
 40
0.0
  9
$DIMAZIN
 70
     0
  9
$DIMDSEP
 70
    46
  9
$DIMATFIT
 70
     3
  9
$DIMFRAC
 70
     0
  9
$DIMLDRBLK
  1

  9
$DIMLUNIT
 70
     2
  9
$DIMLWD
 70
    -2
  9
$DIMLWE
 70
    -2
  9
$DIMTMOVE
 70
     0
  9
$DIMFXL
 40
1.0
  9
$DIMFXLON
 70
     0
  9
$DIMJOGANG
 40
0.7853981633974483
  9
$DIMTFILL
 70
     0
  9
$DIMTFILLCLR
 70
     0
  9
$DIMARCSYM
 70
     0
  9
$DIMLTYPE
  6

  9
$DIMLTEX1
  6

  9
$DIMLTEX2
  6

  9
$DIMTXTDIRECTION
 70
     0
  9
$LUNITS
 70
     2
  9
$LUPREC
 70
     4
  9
$SKETCHINC
 40
0.1
  9
$FILLETRAD
 40
0.5
  9
$AUNITS
 70
     0
  9
$AUPREC
 70
     0
  9
$MENU
  1
.
  9
$ELEVATION
 40
0.0
  9
$PELEVATION
 40
0.0
  9
$THICKNESS
 40
0.0
  9
$LIMCHECK
 70
     0
  9
$CHAMFERA
 40
0.5
  9
$CHAMFERB
 40
0.5
  9
$CHAMFERC
 40
1.0
  9
$CHAMFERD
 40
0.0
  9
$SKPOLY
 70
     0
  9
$TDCREATE
 40
2459305.89525463
  9
$TDUCREATE
 40
2459306.14525463
  9
$TDUPDATE
 40
2459305.89525463
  9
$TDUUPDATE
 40
2459306.14525463
  9
$TDINDWG
 40
0.0000000116
  9
$TDUSRTIMER
 40
0.0000000116
  9
$USRTIMER
 70
     1
  9
$ANGBASE
 50
0.0
  9
$ANGDIR
 70
     0
  9
$PDMODE
 70
     0
  9
$PDSIZE
 40
0.0
  9
$PLINEWID
 40
0.0
  9
$SPLFRAME
 70
     0
  9
$SPLINETYPE
 70
     6
  9
$SPLINESEGS
 70
     8
  9
$HANDSEED
  5
6C
  9
$SURFTAB1
 70
     6
  9
$SURFTAB2
 70
     6
  9
$SURFTYPE
 70
     6
  9
$SURFU
 70
     6
  9
$SURFV
 70
     6
  9
$UCSBASE
  2

  9
$UCSNAME
  2

  9
$UCSORG
 10
0.0
 20
0.0
 30
0.0
  9
$UCSXDIR
 10
1.0
 20
0.0
 30
0.0
  9
$UCSYDIR
 10
0.0
 20
1.0
 30
0.0
  9
$UCSORTHOREF
  2

  9
$UCSORTHOVIEW
 70
     0
  9
$UCSORGTOP
 10
0.0
 20
0.0
 30
0.0
  9
$UCSORGBOTTOM
 10
0.0
 20
0.0
 30
0.0
  9
$UCSORGLEFT
 10
0.0
 20
0.0
 30
0.0
  9
$UCSORGRIGHT
 10
0.0
 20
0.0
 30
0.0
  9
$UCSORGFRONT
 10
0.0
 20
0.0
 30
0.0
  9
$UCSORGBACK
 10
0.0
 20
0.0
 30
0.0
  9
$PUCSBASE
  2

  9
$PUCSNAME
  2

  9
$PUCSORG
 10
0.0
 20
0.0
 30
0.0
  9
$PUCSXDIR
 10
1.0
 20
0.0
 30
0.0
  9
$PUCSYDIR
 10
0.0
 20
1.0
 30
0.0
  9
$PUCSORTHOREF
  2

  9
$PUCSORTHOVIEW
 70
     0
  9
$PUCSORGTOP
 10
0.0
 20
0.0
 30
0.0
  9
$PUCSORGBOTTOM
 10
0.0
 20
0.0
 30
0.0
  9
$PUCSORGLEFT
 10
0.0
 20
0.0
 30
0.0
  9
$PUCSORGRIGHT
 10
0.0
 20
0.0
 30
0.0
  9
$PUCSORGFRONT
 10
0.0
 20
0.0
 30
0.0
  9
$PUCSORGBACK
 10
0.0
 20
0.0
 30
0.0
  9
$USERI1
 70
     0
  9
$USERI2
 70
     0
  9
$USERI3
 70
     0
  9
$USERI4
 70
     0
  9
$USERI5
 70
     0
  9
$USERR1
 40
0.0
  9
$USERR2
 40
0.0
  9
$USERR3
 40
0.0
  9
$USERR4
 40
0.0
  9
$USERR5
 40
0.0
  9
$WORLDVIEW
 70
     1
  9
$SHADEDGE
 70
     3
  9
$SHADEDIF
 70
    70
  9
$TILEMODE
 70
     1
  9
$MAXACTVP
 70
    64
  9
$PINSBASE
 10
0.0
 20
0.0
 30
0.0
  9
$PLIMCHECK
 70
     0
  9
$PEXTMIN
 10
1.000000000000000E+20
 20
1.000000000000000E+20
 30
1.000000000000000E+20
  9
$PEXTMAX
 10
-1.000000000000000E+20
 20
-1.000000000000000E+20
 30
-1.000000000000000E+20
  9
$PLIMMIN
 10
0.0
 20
0.0
  9
$PLIMMAX
 10
12.0
 20
9.0
  9
$UNITMODE
 70
     0
  9
$VISRETAIN
 70
     1
  9
$PLINEGEN
 70
     0
  9
$PSLTSCALE
 70
     1
  9
$TREEDEPTH
 70
  3020
  9
$CMLSTYLE
  2
Standard
  9
$CMLJUST
 70
     0
  9
$CMLSCALE
 40
1.0
  9
$PROXYGRAPHICS
 70
     1
  9
$MEASUREMENT
 70
     0
  9
$CELWEIGHT
370
    -1
  9
$ENDCAPS
280
     0
  9
$JOINSTYLE
280
     0
  9
$LWDISPLAY
290
     1
  9
$INSUNITS
 70
     1
  9
$HYPERLINKBASE
  1

  9
$STYLESHEET
  1

  9
$XEDIT
290
     1
  9
$CEPSNTYPE
380
     0
  9
$PSTYLEMODE
290
     1
  9
$FINGERPRINTGUID
  2
{58CDEAA5-53C1-19A7-EBF7-39CD9D4C7BE7}
  9
$VERSIONGUID
  2
{FAEB1C32-E019-11D5-929B-00C0DF256EC4}
  9
$EXTNAMES
290
     1
  9
$PSVPSCALE
 40
0.0
  9
$OLESTARTUP
290
     0
  9
$SORTENTS
280
   127
  9
$INDEXCTL
280
     0
  9
$HIDETEXT
280
     1
  9
$XCLIPFRAME
280
     2
  9
$HALOGAP
280
     0
  9
$OBSCOLOR
 70
   257
  9
$OBSLTYPE
280
     0
  9
$INTERSECTIONDISPLAY
280
     0
  9
$INTERSECTIONCOLOR
 70
   257
  9
$DIMASSOC
280
     2
  9
$PROJECTNAME
  1

  9
$CAMERADISPLAY
290
     0
  9
$LENSLENGTH
 40
50.0
  9
$CAMERAHEIGHT
 40
0.0
  9
$STEPSPERSEC
 40
2.0
  9
$STEPSIZE
 40
6.0
  9
$3DDWFPREC
 40
2.0
  9
$PSOLWIDTH
 40
0.25
  9
$PSOLHEIGHT
 40
4.0
  9
$LOFTANG1
 40
1.570796326794897
  9
$LOFTANG2
 40
1.570796326794897
  9
$LOFTMAG1
 40
0.0
  9
$LOFTMAG2
 40
0.0
  9
$LOFTPARAM
 70
     7
  9
$LOFTNORMALS
280
     1
  9
$LATITUDE
 40
37.795
  9
$LONGITUDE
 40
-122.394
  9
$NORTHDIRECTION
 40
0.0
  9
$TIMEZONE
 70
 -8000
  9
$LIGHTGLYPHDISPLAY
280
     1
  9
$TILEMODELIGHTSYNCH
280
     1
  9
$CMATERIAL
347
3C
  9
$SOLIDHIST
280
     1
  9
$SHOWHIST
280
     1
  9
$DWFFRAME
280
     2
  9
$DGNFRAME
280
     2
  9
$REALWORLDSCALE
290
     1
  9
$INTERFERECOLOR
 62
   256
  9
$CSHADOW
280
     0
  9
$SHADOWPLANELOCATION
 40
0.0
  0
ENDSEC
  0
SECTION
  2
CLASSES
  0
CLASS
  1
ACDBDICTIONARYWDFLT
  2
AcDbDictionaryWithDefault
  3
ObjectDBX Classes
 90
        0
 91
        4
280
     0
281
     0
  0
CLASS
  1
VISUALSTYLE
  2
AcDbVisualStyle
  3
ObjectDBX Classes
 90
     4095
 91
        4
280
     0
281
     0
  0
CLASS
  1
MATERIAL
  2
AcDbMaterial
  3
ObjectDBX Classes
 90
     1153
 91
        4
280
     0
281
     0
  0
CLASS
  1
SUN
  2
AcDbSun
  3
SCENEOE
 90
     1024
 91
        4
280
     0
281
     0
  0
ENDSEC
  0
SECTION
  2
TABLES
  0
TABLE
  2
VPORT
  5
8
330
0
100
AcDbSymbolTable
 70
     1
  0
VPORT
  5
29
330
8
100
AcDbSymbolTableRecord
100
AcDbViewportTableRecord
  2
*Active
 70
     0
 10
0.0
 20
0.0
 11
1.0
 21
1.0
 12
0.0
 22
0.0
 13
0.0
 23
0.0
 14
0.5
 24
0.5
 15
0.5
 25
0.5
 16
0.0
 26
0.0
 36
1.0
 17
10.88368733723958
 27
16.15875074598524
 37
0.0
 40
32.31750149197048
 41
0.6735475723544849
 42
50.0
 43
0.0
 44
0.0
 50
0.0
 51
0.0
 71
     0
 72
   100
 73
     1
 74
     3
 75
     0
 76
     0
 77
     0
 78
     0
281
     0
 65
     1
110
0.0
120
0.0
130
0.0
111
1.0
121
0.0
131
0.0
112
0.0
122
1.0
132
0.0
 79
     0
146
0.0
 60
     3
 61
     5
292
     1
282
     1
141
0.0
142
0.0
 63
   250
361
3F
  0
ENDTAB
  0
TABLE
  2
LTYPE
  5
5
330
0
100
AcDbSymbolTable
 70
     1
  0
LTYPE
  5
14
330
5
100
AcDbSymbolTableRecord
100
AcDbLinetypeTableRecord
  2
ByBlock
 70
     0
  3

 72
    65
 73
     0
 40
0.0
  0
LTYPE
  5
15
330
5
100
AcDbSymbolTableRecord
100
AcDbLinetypeTableRecord
  2
ByLayer
 70
     0
  3

 72
    65
 73
     0
 40
0.0
  0
LTYPE
  5
16
330
5
100
AcDbSymbolTableRecord
100
AcDbLinetypeTableRecord
  2
Continuous
 70
     0
  3
Solid line
 72
    65
 73
     0
 40
0.0
  0
ENDTAB
  0
TABLE
  2
LAYER
  5
2
330
0
100
AcDbSymbolTable
 70
     2
  0
LAYER
  5
10
330
2
100
AcDbSymbolTableRecord
100
AcDbLayerTableRecord
  2
0
 70
     0
 62
     7
  6
Continuous
370
    -3
390
F
347
3E
  0
LAYER
  5
40
330
2
100
AcDbSymbolTableRecord
100
AcDbLayerTableRecord
  2
Layer 1
 70
     0
 62
     7
  6
Continuous
370
    -3
390
F
347
3E
  0
ENDTAB
  0
TABLE
  2
STYLE
  5
3
330
0
100
AcDbSymbolTable
 70
     1
  0
STYLE
  5
11
330
3
100
AcDbSymbolTableRecord
100
AcDbTextStyleTableRecord
  2
Standard
 70
     0
 40
0.0
 41
1.0
 50
0.0
 71
     0
 42
0.2
  3
txt
  4

  0
ENDTAB
  0
TABLE
  2
VIEW
  5
6
330
0
100
AcDbSymbolTable
 70
     0
  0
ENDTAB
  0
TABLE
  2
UCS
  5
7
330
0
100
AcDbSymbolTable
 70
     0
  0
ENDTAB
  0
TABLE
  2
APPID
  5
9
330
0
100
AcDbSymbolTable
 70
     1
  0
APPID
  5
12
330
9
100
AcDbSymbolTableRecord
100
AcDbRegAppTableRecord
  2
ACAD
 70
     0
  0
ENDTAB
  0
TABLE
  2
DIMSTYLE
  5
A
330
0
100
AcDbSymbolTable
 70
     1
100
AcDbDimStyleTable
  0
DIMSTYLE
105
27
330
A
100
AcDbSymbolTableRecord
100
AcDbDimStyleTableRecord
  2
Standard
 70
     0
178
     0
340
11
  0
ENDTAB
  0
TABLE
  2
BLOCK_RECORD
  5
1
330
0
100
AcDbSymbolTable
 70
     4
  0
BLOCK_RECORD
  5
1F
330
1
100
AcDbSymbolTableRecord
100
AcDbBlockTableRecord
  2
*Model_Space
340
22
 70
     0
280
     1
281
     0
  0
BLOCK_RECORD
  5
1B
330
1
100
AcDbSymbolTableRecord
100
AcDbBlockTableRecord
  2
*Paper_Space
340
1E
 70
     0
280
     1
281
     0
  0
BLOCK_RECORD
  5
23
330
1
100
AcDbSymbolTableRecord
100
AcDbBlockTableRecord
  2
*Paper_Space0
340
26
 70
     0
280
     1
281
     0
  0
BLOCK_RECORD
  5
41
330
1
100
AcDbSymbolTableRecord
100
AcDbBlockTableRecord
  2
block 2
340
0
102
{BLKREFS
331
42
102
}
 70
     0
280
     1
281
     0
  0
BLOCK_RECORD
  5
4B
330
1
100
AcDbSymbolTableRecord
100
AcDbBlockTableRecord
  2
block 3
340
0
102
{BLKREFS
331
4C
102
}
 70
     0
280
     1
281
     0
  0
BLOCK_RECORD
  5
52
330
1
100
AcDbSymbolTableRecord
100
AcDbBlockTableRecord
  2
block 4
340
0
102
{BLKREFS
331
53
102
}
 70
     0
280
     1
281
     0
  0
ENDTAB
  0
ENDSEC
  0
SECTION
  2
BLOCKS
  0
BLOCK
  5
20
330
1F
100
AcDbEntity
  8
0
100
AcDbBlockBegin
  2
*Model_Space
 70
     0
 10
0.0
 20
0.0
 30
0.0
  3
*Model_Space
  1

  0
ENDBLK
  5
21
330
1F
100
AcDbEntity
  8
0
100
AcDbBlockEnd
  0
BLOCK
  5
1C
330
1B
100
AcDbEntity
 67
     1
  8
0
100
AcDbBlockBegin
  2
*Paper_Space
 70
     0
 10
0.0
 20
0.0
 30
0.0
  3
*Paper_Space
  1

  0
ENDBLK
  5
1D
330
1B
100
AcDbEntity
 67
     1
  8
0
100
AcDbBlockEnd
  0
BLOCK
  5
24
330
23
100
AcDbEntity
  8
0
100
AcDbBlockBegin
  2
*Paper_Space0
 70
     0
 10
0.0
 20
0.0
 30
0.0
  3
*Paper_Space0
  1

  0
ENDBLK
  5
25
330
23
100
AcDbEntity
  8
0
100
AcDbBlockEnd
  0
BLOCK
  5
43
330
41
100
AcDbEntity
  8
0
100
AcDbBlockBegin
  2
block 2
 70
     0
 10
0.0
 20
0.0
 30
0.0
  3
block 2
  1

  0
SPLINE
  5
45
330
41
100
AcDbEntity
  8
Layer 1
 62
     7
420
 16777215
370
    25
100
AcDbSpline
210
0.0
220
0.0
230
1.0
 70
    11
 71
     3
 72
    38
 73
    34
 74
     0
 42
0.0000000001
 43
0.0000000001
 12
1.0
 22
0.0
 32
0.0
 13
1.0
 23
0.0
 33
0.0
 40
0.0
 40
0.0
 40
0.0
 40
0.0
 40
1.0
 40
1.0
 40
1.0
 40
2.0
 40
2.0
 40
2.0
 40
3.0
 40
3.0
 40
3.0
 40
4.0
 40
4.0
 40
4.0
 40
5.0
 40
5.0
 40
5.0
 40
6.0
 40
6.0
 40
6.0
 40
7.0
 40
7.0
 40
7.0
 40
8.0
 40
8.0
 40
8.0
 40
9.0
 40
9.0
 40
9.0
 40
10.0
 40
10.0
 40
10.0
 40
11.0
 40
11.0
 40
11.0
 40
11.0
 10
0.8559861183166504
 20
2.339097730848531
 30
0.0
 10
0.8559861183166504
 20
2.339097730848531
 30
0.0
 10
1.788749906751844
 20
2.339097730848531
 30
0.0
 10
1.788749906751844
 20
2.339097730848531
 30
0.0
 10
1.788749906751844
 20
2.339097730848531
 30
0.0
 10
1.788749906751844
 20
7.51715423583985
 30
0.0
 10
1.788749906751844
 20
7.51715423583985
 30
0.0
 10
1.788749906751844
 20
7.51715423583985
 30
0.0
 10
0.8559861183166504
 20
7.51715423583985
 30
0.0
 10
0.8559861183166504
 20
7.51715423583985
 30
0.0
 10
0.8559861183166504
 20
7.51715423583985
 30
0.0
 10
0.8559861183166504
 20
9.574042392306865
 30
0.0
 10
0.8559861183166504
 20
9.574042392306865
 30
0.0
 10
0.8559861183166504
 20
9.574042392306865
 30
0.0
 10
5.161083645290798
 20
9.574042392306865
 30
0.0
 10
5.161083645290798
 20
9.574042392306865
 30
0.0
 10
6.851181030273438
 20
9.574042392306865
 30
0.0
 10
8.144749959309895
 20
9.183320753309468
 30
0.0
 10
9.041639539930555
 20
8.402097880045579
 30
0.0
 10
9.938528272840712
 20
7.620666469997836
 30
0.0
 10
10.3869866265191
 20
6.464806416829433
 30
0.0
 10
10.3869866265191
 20
4.934112514919712
 30
0.0
 10
10.3869866265191
 20
3.443210144042975
 30
0.0
 10
9.940403408474392
 20
2.295182935926656
 30
0.0
 10
9.047611660427517
 20
1.49002749972874
 30
0.0
 10
8.154639350043402
 20
0.6846957397461008
 30
0.0
 10
6.855083889431423
 20
0.2822095743815174
 30
0.0
 10
5.149111853705512
 20
0.2822095743815174
 30
0.0
 10
5.149111853705512
 20
0.2822095743815174
 30
0.0
 10
0.8559861183166504
 20
0.2822095743815174
 30
0.0
 10
0.8559861183166504
 20
0.2822095743815174
 30
0.0
 10
0.8559861183166504
 20
0.2822095743815174
 30
0.0
 10
0.8559861183166504
 20
2.339097730848531
 30
0.0
 10
0.8559861183166504
 20
2.339097730848531
 30
0.0
  0
SPLINE
  5
46
330
41
100
AcDbEntity
  8
Layer 1
 62
     7
420
 16777215
370
    25
100
AcDbSpline
210
0.0
220
0.0
230
1.0
 70
    11
 71
     3
 72
    26
 73
    22
 74
     0
 42
0.0000000001
 43
0.0000000001
 12
1.0
 22
0.0
 32
0.0
 13
1.0
 23
0.0
 33
0.0
 40
0.0
 40
0.0
 40
0.0
 40
0.0
 40
1.0
 40
1.0
 40
1.0
 40
2.0
 40
2.0
 40
2.0
 40
3.0
 40
3.0
 40
3.0
 40
4.0
 40
4.0
 40
4.0
 40
5.0
 40
5.0
 40
5.0
 40
6.0
 40
6.0
 40
6.0
 40
7.0
 40
7.0
 40
7.0
 40
7.0
 10
5.149111005995008
 20
2.339097730848531
 30
0.0
 10
5.802736070421006
 20
2.339097730848531
 30
0.0
 10
6.279194302029079
 20
2.584235263400615
 30
0.0
 10
6.57816653781467
 20
3.074540846082906
 30
0.0
 10
6.87713877360026
 20
3.564846428765198
 30
0.0
 10
7.026624891493055
 20
4.184638095431865
 30
0.0
 10
7.026624891493055
 20
4.934110819498705
 30
0.0
 10
7.026624891493055
 20
5.699457770453566
 30
0.0
 10
6.878999922010633
 20
6.321305982801656
 30
0.0
 10
6.584152645534939
 20
6.799638502332906
 30
0.0
 10
6.289110819498697
 20
7.277986280653218
 30
0.0
 10
5.810763888888888
 20
7.517152540418843
 30
0.0
 10
5.149124993218316
 20
7.517152540418843
 30
0.0
 10
5.149124993218316
 20
7.517152540418843
 30
0.0
 10
4.778416527642144
 20
7.517152540418843
 30
0.0
 10
4.778416527642144
 20
7.517152540418843
 30
0.0
 10
4.778416527642144
 20
7.517152540418843
 30
0.0
 10
4.778416527642144
 20
2.339097730848531
 30
0.0
 10
4.778416527642144
 20
2.339097730848531
 30
0.0
 10
4.778416527642144
 20
2.339097730848531
 30
0.0
 10
5.149111005995008
 20
2.339097730848531
 30
0.0
 10
5.149111005995008
 20
2.339097730848531
 30
0.0
  0
SPLINE
  5
47
330
41
100
AcDbEntity
  8
Layer 1
 62
     7
420
 16777215
370
    25
100
AcDbSpline
210
0.0
220
0.0
230
1.0
 70
    11
 71
     3
 72
    50
 73
    46
 74
     0
 42
0.0000000001
 43
0.0000000001
 12
1.0
 22
0.0
 32
0.0
 13
1.0
 23
0.0
 33
0.0
 40
0.0
 40
0.0
 40
0.0
 40
0.0
 40
1.0
 40
1.0
 40
1.0
 40
2.0
 40
2.0
 40
2.0
 40
3.0
 40
3.0
 40
3.0
 40
4.0
 40
4.0
 40
4.0
 40
5.0
 40
5.0
 40
5.0
 40
6.0
 40
6.0
 40
6.0
 40
7.0
 40
7.0
 40
7.0
 40
8.0
 40
8.0
 40
8.0
 40
9.0
 40
9.0
 40
9.0
 40
10.0
 40
10.0
 40
10.0
 40
11.0
 40
11.0
 40
11.0
 40
12.0
 40
12.0
 40
12.0
 40
13.0
 40
13.0
 40
13.0
 40
14.0
 40
14.0
 40
14.0
 40
15.0
 40
15.0
 40
15.0
 40
15.0
 10
1.205986128913032
 20
0.6322088962131147
 30
0.0
 10
1.205986128913032
 20
0.6322088962131147
 30
0.0
 10
1.205986128913032
 20
1.989084845648879
 30
0.0
 10
1.205986128913032
 20
1.989084845648879
 30
0.0
 10
1.205986128913032
 20
1.989084845648879
 30
0.0
 10
2.138749864366319
 20
1.989084845648879
 30
0.0
 10
2.138749864366319
 20
1.989084845648879
 30
0.0
 10
2.138749864366319
 20
1.989084845648879
 30
0.0
 10
2.138749864366319
 20
7.867153557671448
 30
0.0
 10
2.138749864366319
 20
7.867153557671448
 30
0.0
 10
2.138749864366319
 20
7.867153557671448
 30
0.0
 10
1.205986128913032
 20
7.867153557671448
 30
0.0
 10
1.205986128913032
 20
7.867153557671448
 30
0.0
 10
1.205986128913032
 20
7.867153557671448
 30
0.0
 10
1.205986128913032
 20
9.224027811686204
 30
0.0
 10
1.205986128913032
 20
9.224027811686204
 30
0.0
 10
1.205986128913032
 20
9.224027811686204
 30
0.0
 10
5.161083221435547
 20
9.224027811686204
 30
0.0
 10
5.161083221435547
 20
9.224027811686204
 30
0.0
 10
5.967847188313802
 20
9.224027811686204
 30
0.0
 10
6.68669425116645
 20
9.13048634847006
 30
0.0
 10
7.297624376085069
 20
8.945958421495233
 30
0.0
 10
7.89359622531467
 20
8.765958964029954
 30
0.0
 10
8.403027004665798
 20
8.49419484456381
 30
0.0
 10
8.811763339572483
 20
8.138166605631517
 30
0.0
 10
9.21486070421007
 20
7.786958448621968
 30
0.0
 10
9.521915859646267
 20
7.344290805392802
 30
0.0
 10
9.724346584743923
 20
6.82248599582249
 30
0.0
 10
9.931818644205729
 20
6.287721388075093
 30
0.0
 10
10.03699917263455
 20
5.652374233669712
 30
0.0
 10
10.03699917263455
 20
4.93409725613065
 30
0.0
 10
10.03699917263455
 20
4.235749952528218
 30
0.0
 10
9.932332356770832
 20
3.612542012532559
 30
0.0
 10
9.725915696885851
 20
3.08176333957249
 30
0.0
 10
9.523693508572048
 20
2.561818406846795
 30
0.0
 10
9.216637505425346
 20
2.113735588921448
 30
0.0
 10
8.81323496500651
 20
1.749928758409295
 30
0.0
 10
8.406832377115885
 20
1.383402472602004
 30
0.0
 10
7.897610134548611
 20
1.103664788140198
 30
0.0
 10
7.299679226345486
 20
0.9184298706054758
 30
0.0
 10
6.686581929524739
 20
0.7284986368815175
 30
0.0
 10
5.963040245903863
 20
0.6322088962131147
 30
0.0
 10
5.14912372165256
 20
0.6322088962131147
 30
0.0
 10
5.14912372165256
 20
0.6322088962131147
 30
0.0
 10
1.205986128913032
 20
0.6322088962131147
 30
0.0
 10
1.205986128913032
 20
0.6322088962131147
 30
0.0
  0
SPLINE
  5
48
330
41
100
AcDbEntity
  8
Layer 1
 62
     7
420
 16777215
370
    25
100
AcDbSpline
210
0.0
220
0.0
230
1.0
 70
    11
 71
     3
 72
    35
 73
    31
 74
     0
 42
0.0000000001
 43
0.0000000001
 12
1.0
 22
0.0
 32
0.0
 13
1.0
 23
0.0
 33
0.0
 40
0.0
 40
0.0
 40
0.0
 40
0.0
 40
1.0
 40
1.0
 40
1.0
 40
2.0
 40
2.0
 40
2.0
 40
3.0
 40
3.0
 40
3.0
 40
4.0
 40
4.0
 40
4.0
 40
5.0
 40
5.0
 40
5.0
 40
6.0
 40
6.0
 40
6.0
 40
7.0
 40
7.0
 40
7.0
 40
8.0
 40
8.0
 40
8.0
 40
9.0
 40
9.0
 40
9.0
 40
10.0
 40
10.0
 40
10.0
 40
10.0
 10
4.428402794731988
 20
1.989084845648879
 30
0.0
 10
4.428402794731988
 20
1.989084845648879
 30
0.0
 10
5.149124993218316
 20
1.989084845648879
 30
0.0
 10
5.149124993218316
 20
1.989084845648879
 30
0.0
 10
5.530680338541666
 20
1.989084845648879
 30
0.0
 10
5.869708167182075
 20
2.06400210910374
 30
0.0
 10
6.156805674235025
 20
2.211737704806865
 30
0.0
 10
6.451930575900607
 20
2.363613518608948
 30
0.0
 10
6.694250318739149
 20
2.592600470648879
 30
0.0
 10
6.877000172932942
 20
2.892320387098531
 30
0.0
 10
7.208528306749131
 20
3.436014777289504
 30
0.0
 10
7.376639472113715
 20
4.12294511583117
 30
0.0
 10
7.376639472113715
 20
4.934098951551656
 30
0.0
 10
7.376639472113715
 20
5.761488138834642
 30
0.0
 10
7.210264417860243
 20
6.450932786729608
 30
0.0
 10
6.88211186726888
 20
6.983293287489156
 30
0.0
 10
6.700542449951172
 20
7.277667541503913
 30
0.0
 10
6.457806481255425
 20
7.502237921820753
 30
0.0
 10
6.160653432210286
 20
7.65082122802735
 30
0.0
 10
5.873569912380642
 20
7.794377610948358
 30
0.0
 10
5.533236609564887
 20
7.867155253092455
 30
0.0
 10
5.149139404296875
 20
7.867155253092455
 30
0.0
 10
5.149139404296875
 20
7.867155253092455
 30
0.0
 10
4.428417205810547
 20
7.867155253092455
 30
0.0
 10
4.428417205810547
 20
7.867155253092455
 30
0.0
 10
4.428417205810547
 20
7.867155253092455
 30
0.0
 10
4.428417205810547
 20
1.989084845648879
 30
0.0
 10
4.428417205810547
 20
1.989084845648879
 30
0.0
 10
4.428417205810547
 20
1.989084845648879
 30
0.0
 10
4.428402794731988
 20
1.989084845648879
 30
0.0
 10
4.428402794731988
 20
1.989084845648879
 30
0.0
  0
ENDBLK
  5
44
330
41
100
AcDbEntity
  8
0
100
AcDbBlockEnd
  0
BLOCK
  5
4D
330
4B
100
AcDbEntity
  8
0
100
AcDbBlockBegin
  2
block 3
 70
     0
 10
0.0
 20
0.0
 30
0.0
  3
block 3
  1

  0
SPLINE
  5
4F
330
4B
100
AcDbEntity
  8
Layer 1
 62
     7
420
 16777215
370
    25
100
AcDbSpline
210
0.0
220
0.0
230
1.0
 70
    11
 71
     3
 72
    32
 73
    28
 74
     0
 42
0.0000000001
 43
0.0000000001
 12
1.0
 22
0.0
 32
0.0
 13
1.0
 23
0.0
 33
0.0
 40
0.0
 40
0.0
 40
0.0
 40
0.0
 40
1.0
 40
1.0
 40
1.0
 40
2.0
 40
2.0
 40
2.0
 40
3.0
 40
3.0
 40
3.0
 40
4.0
 40
4.0
 40
4.0
 40
5.0
 40
5.0
 40
5.0
 40
6.0
 40
6.0
 40
6.0
 40
7.0
 40
7.0
 40
7.0
 40
8.0
 40
8.0
 40
8.0
 40
9.0
 40
9.0
 40
9.0
 40
9.0
 10
6.156791687011719
 20
11.96439103868273
 30
0.0
 10
6.4519165886773
 20
12.11626685248481
 30
0.0
 10
6.69423590766059
 20
12.34525210910374
 30
0.0
 10
6.876986185709635
 20
12.6449737209744
 30
0.0
 10
7.208513895670572
 20
13.18866811116537
 30
0.0
 10
7.376625061035156
 20
13.87559844970704
 30
0.0
 10
7.376625061035156
 20
14.68675059000652
 30
0.0
 10
7.376625061035156
 20
15.5141397772895
 30
0.0
 10
7.210250006781684
 20
16.20358442518447
 30
0.0
 10
6.882097456190321
 20
16.73594492594402
 30
0.0
 10
6.700528038872612
 20
17.03031917995877
 30
0.0
 10
6.457792070176866
 20
17.25488956027561
 30
0.0
 10
6.160639021131727
 20
17.40347286648221
 30
0.0
 10
5.873555501302083
 20
17.54702924940322
 30
0.0
 10
5.533222198486328
 20
17.61980689154732
 30
0.0
 10
5.149124993218316
 20
17.61980689154732
 30
0.0
 10
5.149124993218316
 20
17.61980689154732
 30
0.0
 10
4.428402794731988
 20
17.61980689154732
 30
0.0
 10
4.428402794731988
 20
17.61980689154732
 30
0.0
 10
4.428402794731988
 20
17.61980689154732
 30
0.0
 10
4.428402794731988
 20
11.74173648410374
 30
0.0
 10
4.428402794731988
 20
11.74173648410374
 30
0.0
 10
4.428402794731988
 20
11.74173648410374
 30
0.0
 10
5.149124993218316
 20
11.74173648410374
 30
0.0
 10
5.149124993218316
 20
11.74173648410374
 30
0.0
 10
5.530666775173611
 20
11.74173817952475
 30
0.0
 10
5.869694603814019
 20
11.81664018419055
 30
0.0
 10
6.156791687011719
 20
11.96439103868273
 30
0.0
  0
SPLINE
  5
50
330
4B
100
AcDbEntity
  8
Layer 1
 62
     7
420
 16777215
370
    25
100
AcDbSpline
210
0.0
220
0.0
230
1.0
 70
    11
 71
     3
 72
    29
 73
    25
 74
     0
 42
0.0000000001
 43
0.0000000001
 12
1.0
 22
0.0
 32
0.0
 13
1.0
 23
0.0
 33
0.0
 40
0.0
 40
0.0
 40
0.0
 40
0.0
 40
1.0
 40
1.0
 40
1.0
 40
2.0
 40
2.0
 40
2.0
 40
3.0
 40
3.0
 40
3.0
 40
4.0
 40
4.0
 40
4.0
 40
5.0
 40
5.0
 40
5.0
 40
6.0
 40
6.0
 40
6.0
 40
7.0
 40
7.0
 40
7.0
 40
8.0
 40
8.0
 40
8.0
 40
8.0
 10
4.778402964274088
 20
17.26979231092665
 30
0.0
 10
4.778402964274088
 20
17.26979231092665
 30
0.0
 10
5.14911142985026
 20
17.26979231092665
 30
0.0
 10
5.14911142985026
 20
17.26979231092665
 30
0.0
 10
5.810764312744141
 20
17.26979231092665
 30
0.0
 10
6.289097679985893
 20
17.03062605116103
 30
0.0
 10
6.584139082166883
 20
16.55227827284072
 30
0.0
 10
6.878986358642578
 20
16.07394575330947
 30
0.0
 10
7.026611328125
 20
15.45209754096138
 30
0.0
 10
7.026611328125
 20
14.68675059000652
 30
0.0
 10
7.026611328125
 20
13.93727786593968
 30
0.0
 10
6.877125210232204
 20
13.31748619927301
 30
0.0
 10
6.578152974446614
 20
12.82718061659072
 30
0.0
 10
6.279194725884331
 20
12.33687503390843
 30
0.0
 10
5.802722507052951
 20
12.09173580593534
 30
0.0
 10
5.149097442626953
 20
12.09173580593534
 30
0.0
 10
5.149097442626953
 20
12.09173580593534
 30
0.0
 10
4.778388977050781
 20
12.09173580593534
 30
0.0
 10
4.778388977050781
 20
12.09173580593534
 30
0.0
 10
4.778388977050781
 20
12.09173580593534
 30
0.0
 10
4.778388977050781
 20
17.26979231092665
 30
0.0
 10
4.778388977050781
 20
17.26979231092665
 30
0.0
 10
4.778388977050781
 20
17.26979231092665
 30
0.0
 10
4.778402964274088
 20
17.26979231092665
 30
0.0
 10
4.778402964274088
 20
17.26979231092665
 30
0.0
  0
SPLINE
  5
51
330
4B
100
AcDbEntity
  8
Layer 1
 62
     7
420
 16777215
370
    25
100
AcDbSpline
210
0.0
220
0.0
230
1.0
 70
    11
 71
     3
 72
    89
 73
    85
 74
     0
 42
0.0000000001
 43
0.0000000001
 12
1.0
 22
0.0
 32
0.0
 13
1.0
 23
0.0
 33
0.0
 40
0.0
 40
0.0
 40
0.0
 40
0.0
 40
1.0
 40
1.0
 40
1.0
 40
2.0
 40
2.0
 40
2.0
 40
3.0
 40
3.0
 40
3.0
 40
4.0
 40
4.0
 40
4.0
 40
5.0
 40
5.0
 40
5.0
 40
6.0
 40
6.0
 40
6.0
 40
7.0
 40
7.0
 40
7.0
 40
8.0
 40
8.0
 40
8.0
 40
9.0
 40
9.0
 40
9.0
 40
10.0
 40
10.0
 40
10.0
 40
11.0
 40
11.0
 40
11.0
 40
12.0
 40
12.0
 40
12.0
 40
13.0
 40
13.0
 40
13.0
 40
14.0
 40
14.0
 40
14.0
 40
15.0
 40
15.0
 40
15.0
 40
16.0
 40
16.0
 40
16.0
 40
17.0
 40
17.0
 40
17.0
 40
18.0
 40
18.0
 40
18.0
 40
19.0
 40
19.0
 40
19.0
 40
20.0
 40
20.0
 40
20.0
 40
21.0
 40
21.0
 40
21.0
 40
22.0
 40
22.0
 40
22.0
 40
23.0
 40
23.0
 40
23.0
 40
24.0
 40
24.0
 40
24.0
 40
25.0
 40
25.0
 40
25.0
 40
26.0
 40
26.0
 40
26.0
 40
27.0
 40
27.0
 40
27.0
 40
28.0
 40
28.0
 40
28.0
 40
28.0
 10
9.041638692220051
 20
18.15473765055339
 30
0.0
 10
8.41262478298611
 20
18.70262651231554
 30
0.0
 10
7.588207668728298
 20
19.05816816541884
 30
0.0
 10
6.569041781955295
 20
19.22183478461372
 30
0.0
 10
6.569041781955295
 20
19.22183478461372
 30
0.0
 10
6.569041781955295
 20
18.86711286756728
 30
0.0
 10
6.569041781955295
 20
18.86711286756728
 30
0.0
 10
6.826250288221571
 20
18.8237100897895
 30
0.0
 10
7.069472418891059
 20
18.76751536051433
 30
0.0
 10
7.297625223795572
 20
18.6986126030816
 30
0.0
 10
7.893597073025173
 20
18.51861229790582
 30
0.0
 10
8.403027852376301
 20
18.24684902615018
 30
0.0
 10
8.811764187282986
 20
17.89082163492839
 30
0.0
 10
9.214861551920572
 20
17.53961347791884
 30
0.0
 10
9.52191670735677
 20
17.09694583468968
 30
0.0
 10
9.724347432454426
 20
16.57514102511936
 30
0.0
 10
9.931819491916231
 20
16.04037641737197
 30
0.0
 10
10.03700002034505
 20
15.40502926296659
 30
0.0
 10
10.03700002034505
 20
14.68675228542752
 30
0.0
 10
10.03700002034505
 20
13.98840498182509
 30
0.0
 10
9.932333204481337
 20
13.36519704182943
 30
0.0
 10
9.725916544596354
 20
12.83441836886936
 30
0.0
 10
9.523694356282551
 20
12.31447343614367
 30
0.0
 10
9.216639200846354
 20
11.86639061821832
 30
0.0
 10
8.813235812717014
 20
11.50258548312718
 30
0.0
 10
8.40683322482639
 20
11.13605750189888
 30
0.0
 10
7.897610982259114
 20
10.85632151285808
 30
0.0
 10
7.299680074055989
 20
10.67108489990235
 30
0.0
 10
6.686582777235243
 20
10.48115366617839
 30
0.0
 10
5.963041093614366
 20
10.38486223008898
 30
0.0
 10
5.149124569363064
 20
10.38486223008898
 30
0.0
 10
5.149124569363064
 20
10.38486223008898
 30
0.0
 10
1.205986128913032
 20
10.38486223008898
 30
0.0
 10
1.205986128913032
 20
10.38486223008898
 30
0.0
 10
1.205986128913032
 20
10.38486223008898
 30
0.0
 10
1.205986128913032
 20
11.74173648410374
 30
0.0
 10
1.205986128913032
 20
11.74173648410374
 30
0.0
 10
1.205986128913032
 20
11.74173648410374
 30
0.0
 10
2.138749864366319
 20
11.74173648410374
 30
0.0
 10
2.138749864366319
 20
11.74173648410374
 30
0.0
 10
2.138749864366319
 20
11.74173648410374
 30
0.0
 10
2.138749864366319
 20
17.61980519612631
 30
0.0
 10
2.138749864366319
 20
17.61980519612631
 30
0.0
 10
2.138749864366319
 20
17.61980519612631
 30
0.0
 10
1.205986128913032
 20
17.61980519612631
 30
0.0
 10
1.205986128913032
 20
17.61980519612631
 30
0.0
 10
1.205986128913032
 20
17.61980519612631
 30
0.0
 10
1.205986128913032
 20
18.97668029785157
 30
0.0
 10
1.205986128913032
 20
18.97668029785157
 30
0.0
 10
1.205986128913032
 20
18.97668029785157
 30
0.0
 10
3.326000213623047
 20
18.97668029785157
 30
0.0
 10
3.326000213623047
 20
18.97668029785157
 30
0.0
 10
3.326000213623047
 20
18.97668029785157
 30
0.0
 10
3.326000213623047
 20
19.32668046739367
 30
0.0
 10
3.326000213623047
 20
19.32668046739367
 30
0.0
 10
3.326000213623047
 20
19.32668046739367
 30
0.0
 10
0.8559861183166504
 20
19.32668046739367
 30
0.0
 10
0.8559861183166504
 20
19.32668046739367
 30
0.0
 10
0.8559861183166504
 20
19.32668046739367
 30
0.0
 10
0.8559861183166504
 20
17.26979231092665
 30
0.0
 10
0.8559861183166504
 20
17.26979231092665
 30
0.0
 10
0.8559861183166504
 20
17.26979231092665
 30
0.0
 10
1.788749906751844
 20
17.26979231092665
 30
0.0
 10
1.788749906751844
 20
17.26979231092665
 30
0.0
 10
1.788749906751844
 20
17.26979231092665
 30
0.0
 10
1.788749906751844
 20
12.09173580593534
 30
0.0
 10
1.788749906751844
 20
12.09173580593534
 30
0.0
 10
1.788749906751844
 20
12.09173580593534
 30
0.0
 10
0.8559861183166504
 20
12.09173580593534
 30
0.0
 10
0.8559861183166504
 20
12.09173580593534
 30
0.0
 10
0.8559861183166504
 20
12.09173580593534
 30
0.0
 10
0.8559861183166504
 20
10.03484764946832
 30
0.0
 10
0.8559861183166504
 20
10.03484764946832
 30
0.0
 10
0.8559861183166504
 20
10.03484764946832
 30
0.0
 10
5.14911142985026
 20
10.03484764946832
 30
0.0
 10
5.14911142985026
 20
10.03484764946832
 30
0.0
 10
6.855083889431423
 20
10.03484764946832
 30
0.0
 10
8.154639350043402
 20
10.43733381483291
 30
0.0
 10
9.047610812717013
 20
11.24266727023655
 30
0.0
 10
9.940388997395832
 20
12.04781931559245
 30
0.0
 10
10.38698577880859
 20
13.19584821912978
 30
0.0
 10
10.38698577880859
 20
14.68675059000652
 30
0.0
 10
10.38698577880859
 20
16.21744618733725
 30
0.0
 10
9.938527425130207
 20
17.37330624050565
 30
0.0
 10
9.041638692220051
 20
18.15473765055339
 30
0.0
  0
ENDBLK
  5
4E
330
4B
100
AcDbEntity
  8
0
100
AcDbBlockEnd
  0
BLOCK
  5
54
330
52
100
AcDbEntity
  8
0
100
AcDbBlockBegin
  2
block 4
 70
     0
 10
0.0
 20
0.0
 30
0.0
  3
block 4
  1

  0
SPLINE
  5
56
330
52
100
AcDbEntity
  8
Layer 1
 62
     7
420
 16777215
370
    25
100
AcDbSpline
210
0.0
220
0.0
230
1.0
 70
    11
 71
     3
 72
    32
 73
    28
 74
     0
 42
0.0000000001
 43
0.0000000001
 12
1.0
 22
0.0
 32
0.0
 13
1.0
 23
0.0
 33
0.0
 40
0.0
 40
0.0
 40
0.0
 40
0.0
 40
1.0
 40
1.0
 40
1.0
 40
2.0
 40
2.0
 40
2.0
 40
3.0
 40
3.0
 40
3.0
 40
4.0
 40
4.0
 40
4.0
 40
5.0
 40
5.0
 40
5.0
 40
6.0
 40
6.0
 40
6.0
 40
7.0
 40
7.0
 40
7.0
 40
8.0
 40
8.0
 40
8.0
 40
9.0
 40
9.0
 40
9.0
 40
9.0
 10
15.78293016221788
 20
11.96439103868273
 30
0.0
 10
16.07805548773872
 20
12.11626685248481
 30
0.0
 10
16.32037523057726
 20
12.34525210910374
 30
0.0
 10
16.5031246609158
 20
12.6449737209744
 30
0.0
 10
16.83465237087674
 20
13.18866811116537
 30
0.0
 10
17.00276353624132
 20
13.87559844970704
 30
0.0
 10
17.00276353624132
 20
14.68675059000652
 30
0.0
 10
17.00276353624132
 20
15.5141397772895
 30
0.0
 10
16.83638848198785
 20
16.20358442518447
 30
0.0
 10
16.50823635525174
 20
16.73594492594402
 30
0.0
 10
16.32666693793403
 20
17.03031917995877
 30
0.0
 10
16.08393012152778
 20
17.25488956027561
 30
0.0
 10
15.78677876790364
 20
17.40347286648221
 30
0.0
 10
15.49969482421875
 20
17.54702924940322
 30
0.0
 10
15.15936279296875
 20
17.61980689154732
 30
0.0
 10
14.77526516384549
 20
17.61980689154732
 30
0.0
 10
14.77526516384549
 20
17.61980689154732
 30
0.0
 10
14.05454338921441
 20
17.61980689154732
 30
0.0
 10
14.05454338921441
 20
17.61980689154732
 30
0.0
 10
14.05454338921441
 20
17.61980689154732
 30
0.0
 10
14.05454338921441
 20
11.74173648410374
 30
0.0
 10
14.05454338921441
 20
11.74173648410374
 30
0.0
 10
14.05454338921441
 20
11.74173648410374
 30
0.0
 10
14.77526516384549
 20
11.74173648410374
 30
0.0
 10
14.77526516384549
 20
11.74173648410374
 30
0.0
 10
15.15680609809028
 20
11.74173817952475
 30
0.0
 10
15.49583265516493
 20
11.81664018419055
 30
0.0
 10
15.78293016221788
 20
11.96439103868273
 30
0.0
  0
SPLINE
  5
57
330
52
100
AcDbEntity
  8
Layer 1
 62
     7
420
 16777215
370
    25
100
AcDbSpline
210
0.0
220
0.0
230
1.0
 70
    11
 71
     3
 72
    29
 73
    25
 74
     0
 42
0.0000000001
 43
0.0000000001
 12
1.0
 22
0.0
 32
0.0
 13
1.0
 23
0.0
 33
0.0
 40
0.0
 40
0.0
 40
0.0
 40
0.0
 40
1.0
 40
1.0
 40
1.0
 40
2.0
 40
2.0
 40
2.0
 40
3.0
 40
3.0
 40
3.0
 40
4.0
 40
4.0
 40
4.0
 40
5.0
 40
5.0
 40
5.0
 40
6.0
 40
6.0
 40
6.0
 40
7.0
 40
7.0
 40
7.0
 40
8.0
 40
8.0
 40
8.0
 40
8.0
 10
14.404541015625
 20
17.26979231092665
 30
0.0
 10
14.404541015625
 20
17.26979231092665
 30
0.0
 10
14.77524990505642
 20
17.26979231092665
 30
0.0
 10
14.77524990505642
 20
17.26979231092665
 30
0.0
 10
15.43690321180556
 20
17.26979231092665
 30
0.0
 10
15.91523573133681
 20
17.03062605116103
 30
0.0
 10
16.2102779812283
 20
16.55227827284072
 30
0.0
 10
16.50512525770399
 20
16.07394575330947
 30
0.0
 10
16.65275065104166
 20
15.45209754096138
 30
0.0
 10
16.65275065104166
 20
14.68675059000652
 30
0.0
 10
16.65275065104166
 20
13.93727786593968
 30
0.0
 10
16.50326538085938
 20
13.31748619927301
 30
0.0
 10
16.20429144965278
 20
12.82718061659072
 30
0.0
 10
15.90533277723524
 20
12.33687503390843
 30
0.0
 10
15.42886013454861
 20
12.09173580593534
 30
0.0
 10
14.77523634168837
 20
12.09173580593534
 30
0.0
 10
14.77523634168837
 20
12.09173580593534
 30
0.0
 10
14.40452745225694
 20
12.09173580593534
 30
0.0
 10
14.40452745225694
 20
12.09173580593534
 30
0.0
 10
14.40452745225694
 20
12.09173580593534
 30
0.0
 10
14.404541015625
 20
17.26979231092665
 30
0.0
 10
14.404541015625
 20
17.26979231092665
 30
0.0
 10
14.404541015625
 20
17.26979231092665
 30
0.0
 10
14.404541015625
 20
17.26979231092665
 30
0.0
 10
14.404541015625
 20
17.26979231092665
 30
0.0
  0
SPLINE
  5
58
330
52
100
AcDbEntity
  8
Layer 1
 62
     7
420
 16777215
370
    25
100
AcDbSpline
210
0.0
220
0.0
230
1.0
 70
    11
 71
     3
 72
    89
 73
    85
 74
     0
 42
0.0000000001
 43
0.0000000001
 12
1.0
 22
0.0
 32
0.0
 13
1.0
 23
0.0
 33
0.0
 40
0.0
 40
0.0
 40
0.0
 40
0.0
 40
1.0
 40
1.0
 40
1.0
 40
2.0
 40
2.0
 40
2.0
 40
3.0
 40
3.0
 40
3.0
 40
4.0
 40
4.0
 40
4.0
 40
5.0
 40
5.0
 40
5.0
 40
6.0
 40
6.0
 40
6.0
 40
7.0
 40
7.0
 40
7.0
 40
8.0
 40
8.0
 40
8.0
 40
9.0
 40
9.0
 40
9.0
 40
10.0
 40
10.0
 40
10.0
 40
11.0
 40
11.0
 40
11.0
 40
12.0
 40
12.0
 40
12.0
 40
13.0
 40
13.0
 40
13.0
 40
14.0
 40
14.0
 40
14.0
 40
15.0
 40
15.0
 40
15.0
 40
16.0
 40
16.0
 40
16.0
 40
17.0
 40
17.0
 40
17.0
 40
18.0
 40
18.0
 40
18.0
 40
19.0
 40
19.0
 40
19.0
 40
20.0
 40
20.0
 40
20.0
 40
21.0
 40
21.0
 40
21.0
 40
22.0
 40
22.0
 40
22.0
 40
23.0
 40
23.0
 40
23.0
 40
24.0
 40
24.0
 40
24.0
 40
25.0
 40
25.0
 40
25.0
 40
26.0
 40
26.0
 40
26.0
 40
27.0
 40
27.0
 40
27.0
 40
28.0
 40
28.0
 40
28.0
 40
28.0
 10
18.66777716742621
 20
18.15473765055339
 30
0.0
 10
18.03876410590278
 20
18.70262651231554
 30
0.0
 10
17.21436055501302
 20
19.05816816541884
 30
0.0
 10
16.19518025716146
 20
19.22183478461372
 30
0.0
 10
16.19518025716146
 20
19.22183478461372
 30
0.0
 10
16.19518025716146
 20
18.86711286756728
 30
0.0
 10
16.19518025716146
 20
18.86711286756728
 30
0.0
 10
16.45238918728299
 20
18.8237100897895
 30
0.0
 10
16.69561089409722
 20
18.76751536051433
 30
0.0
 10
16.92376369900174
 20
18.6986126030816
 30
0.0
 10
17.51973639594184
 20
18.51861229790582
 30
0.0
 10
18.02916632758246
 20
18.24684902615018
 30
0.0
 10
18.43790181477864
 20
17.89082163492839
 30
0.0
 10
18.84099833170573
 20
17.53961347791884
 30
0.0
 10
19.14805433485243
 20
17.09694583468968
 30
0.0
 10
19.35048590766059
 20
16.57514102511936
 30
0.0
 10
19.55795796712239
 20
16.04037641737197
 30
0.0
 10
19.66313849555121
 20
15.40502926296659
 30
0.0
 10
19.66313849555121
 20
14.68675228542752
 30
0.0
 10
19.66313849555121
 20
13.98840498182509
 30
0.0
 10
19.5584716796875
 20
13.36519704182943
 30
0.0
 10
19.35205586751302
 20
12.83441836886936
 30
0.0
 10
19.14983283148871
 20
12.31447343614367
 30
0.0
 10
18.84277852376302
 20
11.86639061821832
 30
0.0
 10
18.43937513563368
 20
11.50258548312718
 30
0.0
 10
18.03297254774305
 20
11.13605750189888
 30
0.0
 10
17.52374945746528
 20
10.85632151285808
 30
0.0
 10
16.92582024468316
 20
10.67108489990235
 30
0.0
 10
16.31272379557291
 20
10.48115366617839
 30
0.0
 10
15.58918084038628
 20
10.38486223008898
 30
0.0
 10
14.77526516384549
 20
10.38486223008898
 30
0.0
 10
14.77526516384549
 20
10.38486223008898
 30
0.0
 10
10.83212534586588
 20
10.38486223008898
 30
0.0
 10
10.83212534586588
 20
10.38486223008898
 30
0.0
 10
10.83212534586588
 20
10.38486223008898
 30
0.0
 10
10.83212534586588
 20
11.74173648410374
 30
0.0
 10
10.83212534586588
 20
11.74173648410374
 30
0.0
 10
10.83212534586588
 20
11.74173648410374
 30
0.0
 10
11.76488918728299
 20
11.74173648410374
 30
0.0
 10
11.76488918728299
 20
11.74173648410374
 30
0.0
 10
11.76488918728299
 20
11.74173648410374
 30
0.0
 10
11.76488918728299
 20
17.61980519612631
 30
0.0
 10
11.76488918728299
 20
17.61980519612631
 30
0.0
 10
11.76488918728299
 20
17.61980519612631
 30
0.0
 10
10.83212534586588
 20
17.61980519612631
 30
0.0
 10
10.83212534586588
 20
17.61980519612631
 30
0.0
 10
10.83212534586588
 20
17.61980519612631
 30
0.0
 10
10.83212534586588
 20
18.97668029785157
 30
0.0
 10
10.83212534586588
 20
18.97668029785157
 30
0.0
 10
10.83212534586588
 20
18.97668029785157
 30
0.0
 10
12.95213911268446
 20
18.97668029785157
 30
0.0
 10
12.95213911268446
 20
18.97668029785157
 30
0.0
 10
12.95213911268446
 20
18.97668029785157
 30
0.0
 10
12.95213911268446
 20
19.32668046739367
 30
0.0
 10
12.95213911268446
 20
19.32668046739367
 30
0.0
 10
12.95213911268446
 20
19.32668046739367
 30
0.0
 10
10.48212517632378
 20
19.32668046739367
 30
0.0
 10
10.48212517632378
 20
19.32668046739367
 30
0.0
 10
10.48212517632378
 20
19.32668046739367
 30
0.0
 10
10.48212517632378
 20
17.26979231092665
 30
0.0
 10
10.48212517632378
 20
17.26979231092665
 30
0.0
 10
10.48212517632378
 20
17.26979231092665
 30
0.0
 10
11.41488901774088
 20
17.26979231092665
 30
0.0
 10
11.41488901774088
 20
17.26979231092665
 30
0.0
 10
11.41488901774088
 20
17.26979231092665
 30
0.0
 10
11.41488901774088
 20
12.09173580593534
 30
0.0
 10
11.41488901774088
 20
12.09173580593534
 30
0.0
 10
11.41488901774088
 20
12.09173580593534
 30
0.0
 10
10.48212517632378
 20
12.09173580593534
 30
0.0
 10
10.48212517632378
 20
12.09173580593534
 30
0.0
 10
10.48212517632378
 20
12.09173580593534
 30
0.0
 10
10.48212517632378
 20
10.03484764946832
 30
0.0
 10
10.48212517632378
 20
10.03484764946832
 30
0.0
 10
10.48212517632378
 20
10.03484764946832
 30
0.0
 10
14.77524990505642
 20
10.03484764946832
 30
0.0
 10
14.77524990505642
 20
10.03484764946832
 30
0.0
 10
16.48122151692708
 20
10.03484764946832
 30
0.0
 10
17.78077697753906
 20
10.43733381483291
 30
0.0
 10
18.67375013563368
 20
11.24266727023655
 30
0.0
 10
19.5665283203125
 20
12.04781931559245
 30
0.0
 10
20.01312594943576
 20
13.19584821912978
 30
0.0
 10
20.01312594943576
 20
14.68675059000652
 30
0.0
 10
20.01312425401476
 20
16.21744618733725
 30
0.0
 10
19.56466674804688
 20
17.37330624050565
 30
0.0
 10
18.66777716742621
 20
18.15473765055339
 30
0.0
  0
ENDBLK
  5
55
330
52
100
AcDbEntity
  8
0
100
AcDbBlockEnd
  0
ENDSEC
  0
SECTION
  2
ENTITIES
  0
INSERT
  5
42
330
1F
100
AcDbEntity
  8
Layer 1
100
AcDbBlockReference
  2
block 2
 10
0.0
 20
0.0
 30
0.0
  0
SPLINE
  5
49
330
1F
100
AcDbEntity
  8
Layer 1
 62
     6
420
 16711935
370
    70
100
AcDbSpline
210
0.0
220
0.0
230
1.0
 70
    11
 71
     3
 72
    38
 73
    34
 74
     0
 42
0.0000000001
 43
0.0000000001
 12
1.0
 22
0.0
 32
0.0
 13
1.0
 23
0.0
 33
0.0
 40
0.0
 40
0.0
 40
0.0
 40
0.0
 40
1.0
 40
1.0
 40
1.0
 40
2.0
 40
2.0
 40
2.0
 40
3.0
 40
3.0
 40
3.0
 40
4.0
 40
4.0
 40
4.0
 40
5.0
 40
5.0
 40
5.0
 40
6.0
 40
6.0
 40
6.0
 40
7.0
 40
7.0
 40
7.0
 40
8.0
 40
8.0
 40
8.0
 40
9.0
 40
9.0
 40
9.0
 40
10.0
 40
10.0
 40
10.0
 40
11.0
 40
11.0
 40
11.0
 40
11.0
 10
10.60087500678168
 20
2.339097730848531
 30
0.0
 10
10.60087500678168
 20
2.339097730848531
 30
0.0
 10
11.53363884819878
 20
2.339097730848531
 30
0.0
 10
11.53363884819878
 20
2.339097730848531
 30
0.0
 10
11.53363884819878
 20
2.339097730848531
 30
0.0
 10
11.53363884819878
 20
7.51715423583985
 30
0.0
 10
11.53363884819878
 20
7.51715423583985
 30
0.0
 10
11.53363884819878
 20
7.51715423583985
 30
0.0
 10
10.60087500678168
 20
7.51715423583985
 30
0.0
 10
10.60087500678168
 20
7.51715423583985
 30
0.0
 10
10.60087500678168
 20
7.51715423583985
 30
0.0
 10
10.60087500678168
 20
9.574042392306865
 30
0.0
 10
10.60087500678168
 20
9.574042392306865
 30
0.0
 10
10.60087500678168
 20
9.574042392306865
 30
0.0
 10
14.90597195095486
 20
9.574042392306865
 30
0.0
 10
14.90597195095486
 20
9.574042392306865
 30
0.0
 10
16.5960693359375
 20
9.574042392306865
 30
0.0
 10
17.88963826497396
 20
9.183320753309468
 30
0.0
 10
18.78652784559462
 20
8.402097880045579
 30
0.0
 10
19.68341742621528
 20
7.620666469997836
 30
0.0
 10
20.13187493218316
 20
6.464806416829433
 30
0.0
 10
20.13187493218316
 20
4.934112514919712
 30
0.0
 10
20.13187493218316
 20
3.443210144042975
 30
0.0
 10
19.68529086642795
 20
2.295182935926656
 30
0.0
 10
18.79250081380208
 20
1.49002749972874
 30
0.0
 10
17.89952935112847
 20
0.6846957397461008
 30
0.0
 10
16.59997219509549
 20
0.2822095743815174
 30
0.0
 10
14.89400058322483
 20
0.2822095743815174
 30
0.0
 10
14.89400058322483
 20
0.2822095743815174
 30
0.0
 10
10.60087500678168
 20
0.2822095743815174
 30
0.0
 10
10.60087500678168
 20
0.2822095743815174
 30
0.0
 10
10.60087500678168
 20
0.2822095743815174
 30
0.0
 10
10.60087500678168
 20
2.339097730848531
 30
0.0
 10
10.60087500678168
 20
2.339097730848531
 30
0.0
  0
SPLINE
  5
4A
330
1F
100
AcDbEntity
  8
Layer 1
 62
     6
420
 16711935
370
    70
100
AcDbSpline
210
0.0
220
0.0
230
1.0
 70
    11
 71
     3
 72
    26
 73
    22
 74
     0
 42
0.0000000001
 43
0.0000000001
 12
1.0
 22
0.0
 32
0.0
 13
1.0
 23
0.0
 33
0.0
 40
0.0
 40
0.0
 40
0.0
 40
0.0
 40
1.0
 40
1.0
 40
1.0
 40
2.0
 40
2.0
 40
2.0
 40
3.0
 40
3.0
 40
3.0
 40
4.0
 40
4.0
 40
4.0
 40
5.0
 40
5.0
 40
5.0
 40
6.0
 40
6.0
 40
6.0
 40
7.0
 40
7.0
 40
7.0
 40
7.0
 10
14.89401414659288
 20
2.339097730848531
 30
0.0
 10
15.54763963487413
 20
2.339097730848531
 30
0.0
 10
16.0240970187717
 20
2.584235263400615
 30
0.0
 10
16.32306925455729
 20
3.074540846082906
 30
0.0
 10
16.62204149034288
 20
3.564846428765198
 30
0.0
 10
16.77152845594618
 20
4.184638095431865
 30
0.0
 10
16.77152845594618
 20
4.934110819498705
 30
0.0
 10
16.77152845594618
 20
5.699457770453566
 30
0.0
 10
16.62390306260851
 20
6.321305982801656
 30
0.0
 10
16.32905578613281
 20
6.799638502332906
 30
0.0
 10
16.03401353624132
 20
7.277986280653218
 30
0.0
 10
15.55566745334201
 20
7.517152540418843
 30
0.0
 10
14.89402770996094
 20
7.517152540418843
 30
0.0
 10
14.89402770996094
 20
7.517152540418843
 30
0.0
 10
14.52331882052951
 20
7.517152540418843
 30
0.0
 10
14.52331882052951
 20
7.517152540418843
 30
0.0
 10
14.52331882052951
 20
7.517152540418843
 30
0.0
 10
14.52331882052951
 20
2.339097730848531
 30
0.0
 10
14.52331882052951
 20
2.339097730848531
 30
0.0
 10
14.52331882052951
 20
2.339097730848531
 30
0.0
 10
14.89401414659288
 20
2.339097730848531
 30
0.0
 10
14.89401414659288
 20
2.339097730848531
 30
0.0
  0
INSERT
  5
4C
330
1F
100
AcDbEntity
  8
Layer 1
100
AcDbBlockReference
  2
block 3
 10
0.0
 20
0.0
 30
0.0
  0
INSERT
  5
53
330
1F
100
AcDbEntity
  8
Layer 1
100
AcDbBlockReference
  2
block 4
 10
0.0
 20
0.0
 30
0.0
  0
SPLINE
  5
59
330
1F
100
AcDbEntity
  8
Layer 1
 62
     7
420
 16777215
370
    25
100
AcDbSpline
210
0.0
220
0.0
230
1.0
 70
    11
 71
     3
 72
    50
 73
    46
 74
     0
 42
0.0000000001
 43
0.0000000001
 12
1.0
 22
0.0
 32
0.0
 13
1.0
 23
0.0
 33
0.0
 40
0.0
 40
0.0
 40
0.0
 40
0.0
 40
1.0
 40
1.0
 40
1.0
 40
2.0
 40
2.0
 40
2.0
 40
3.0
 40
3.0
 40
3.0
 40
4.0
 40
4.0
 40
4.0
 40
5.0
 40
5.0
 40
5.0
 40
6.0
 40
6.0
 40
6.0
 40
7.0
 40
7.0
 40
7.0
 40
8.0
 40
8.0
 40
8.0
 40
9.0
 40
9.0
 40
9.0
 40
10.0
 40
10.0
 40
10.0
 40
11.0
 40
11.0
 40
11.0
 40
12.0
 40
12.0
 40
12.0
 40
13.0
 40
13.0
 40
13.0
 40
14.0
 40
14.0
 40
14.0
 40
15.0
 40
15.0
 40
15.0
 40
15.0
 10
9.136763678656683
 20
28.80987651401097
 30
0.0
 10
8.239874945746527
 20
29.59109875149198
 30
0.0
 10
6.94629160563151
 20
29.98182081434462
 30
0.0
 10
5.256208207872178
 20
29.98182081434462
 30
0.0
 10
5.256208207872178
 20
29.98182081434462
 30
0.0
 10
0.9511111577351887
 20
29.98182081434462
 30
0.0
 10
0.9511111577351887
 20
29.98182081434462
 30
0.0
 10
0.9511111577351887
 20
29.98182081434462
 30
0.0
 10
0.9511111577351887
 20
27.92493181016711
 30
0.0
 10
0.9511111577351887
 20
27.92493181016711
 30
0.0
 10
0.9511111577351887
 20
27.92493181016711
 30
0.0
 10
1.883875105116102
 20
27.92493181016711
 30
0.0
 10
1.883875105116102
 20
27.92493181016711
 30
0.0
 10
1.883875105116102
 20
27.92493181016711
 30
0.0
 10
1.883875105116102
 20
22.74687615288629
 30
0.0
 10
1.883875105116102
 20
22.74687615288629
 30
0.0
 10
1.883875105116102
 20
22.74687615288629
 30
0.0
 10
0.9511111577351887
 20
22.74687615288629
 30
0.0
 10
0.9511111577351887
 20
22.74687615288629
 30
0.0
 10
0.9511111577351887
 20
22.74687615288629
 30
0.0
 10
0.9511111577351887
 20
20.68998714870877
 30
0.0
 10
0.9511111577351887
 20
20.68998714870877
 30
0.0
 10
0.9511111577351887
 20
20.68998714870877
 30
0.0
 10
2.414763980441623
 20
20.68998714870877
 30
0.0
 10
2.414763980441623
 20
20.68998714870877
 30
0.0
 10
2.414763980441623
 20
20.68998714870877
 30
0.0
 10
2.414763980441623
 20
20.47722368028429
 30
0.0
 10
2.414763980441623
 20
20.47722368028429
 30
0.0
 10
2.414763980441623
 20
20.47722368028429
 30
0.0
 10
6.000666724310981
 20
20.47722368028429
 30
0.0
 10
6.000666724310981
 20
20.47722368028429
 30
0.0
 10
6.000666724310981
 20
20.47722368028429
 30
0.0
 10
6.000666724310981
 20
20.69088996039497
 30
0.0
 10
6.000666724310981
 20
20.69088996039497
 30
0.0
 10
6.000666724310981
 20
20.69088996039497
 30
0.0
 10
5.364985995822482
 20
20.69088996039497
 30
0.0
 10
5.364985995822482
 20
20.69088996039497
 30
0.0
 10
7.011541578504774
 20
20.70957010904948
 30
0.0
 10
8.270999484592014
 20
21.11161207411025
 30
0.0
 10
9.1427493625217
 20
21.897806769477
 30
0.0
 10
10.03552754720052
 20
22.70295966254341
 30
0.0
 10
10.48212432861328
 20
23.85098771837023
 30
0.0
 10
10.48212432861328
 20
25.34189008924697
 30
0.0
 10
10.48212517632378
 20
26.87257085164389
 30
0.0
 10
10.0336668226454
 20
28.0284457397461
 30
0.0
 10
9.136763678656683
 20
28.80987651401097
 30
0.0
  0
SPLINE
  5
5A
330
1F
100
AcDbEntity
  8
Layer 1
 62
     7
420
 16777215
370
    25
100
AcDbSpline
210
0.0
220
0.0
230
1.0
 70
    11
 71
     3
 72
    26
 73
    22
 74
     0
 42
0.0000000001
 43
0.0000000001
 12
1.0
 22
0.0
 32
0.0
 13
1.0
 23
0.0
 33
0.0
 40
0.0
 40
0.0
 40
0.0
 40
0.0
 40
1.0
 40
1.0
 40
1.0
 40
2.0
 40
2.0
 40
2.0
 40
3.0
 40
3.0
 40
3.0
 40
4.0
 40
4.0
 40
4.0
 40
5.0
 40
5.0
 40
5.0
 40
6.0
 40
6.0
 40
6.0
 40
7.0
 40
7.0
 40
7.0
 40
7.0
 10
6.673291524251302
 20
23.48232096354167
 30
0.0
 10
6.374333275689018
 20
22.99201538085938
 30
0.0
 10
5.897861056857638
 20
22.74687615288629
 30
0.0
 10
5.244235992431641
 20
22.74687615288629
 30
0.0
 10
5.244235992431641
 20
22.74687615288629
 30
0.0
 10
4.873527526855469
 20
22.74687615288629
 30
0.0
 10
4.873527526855469
 20
22.74687615288629
 30
0.0
 10
4.873527526855469
 20
22.74687615288629
 30
0.0
 10
4.873527526855469
 20
27.92493181016711
 30
0.0
 10
4.873527526855469
 20
27.92493181016711
 30
0.0
 10
4.873527526855469
 20
27.92493181016711
 30
0.0
 10
5.244235992431641
 20
27.92493181016711
 30
0.0
 10
5.244235992431641
 20
27.92493181016711
 30
0.0
 10
5.905888875325521
 20
27.92493181016711
 30
0.0
 10
6.384222242567274
 20
27.68576512654623
 30
0.0
 10
6.679263644748263
 20
27.20741777208117
 30
0.0
 10
6.974110921223958
 20
26.72908440483942
 30
0.0
 10
7.121735466851128
 20
26.10723704020183
 30
0.0
 10
7.121735466851128
 20
25.34189008924697
 30
0.0
 10
7.121749877929688
 20
24.59240464952257
 30
0.0
 10
6.9722777472602
 20
23.97261298285591
 30
0.0
 10
6.673291524251302
 20
23.48232096354167
 30
0.0
  0
POLYLINE
  5
5B
330
1F
100
AcDbEntity
  8
Layer 1
 62
     7
420
 16777215
370
    30
100
AcDb2dPolyline
 66
     1
 10
0.0
 20
0.0
 30
0.0
  0
VERTEX
  5
5C
330
5B
100
AcDbEntity
  8
Layer 1
 62
     7
420
 16777215
370
    30
100
AcDbVertex
100
AcDb2dVertex
 10
10.55409749348958
 20
22.33179300944011
 30
0.0
  0
VERTEX
  5
5D
330
5B
100
AcDbEntity
  8
Layer 1
 62
     7
420
 16777215
370
    30
100
AcDbVertex
100
AcDb2dVertex
 10
10.55409749348958
 20
20.57473751491971
 30
0.0
  0
VERTEX
  5
5E
330
5B
100
AcDbEntity
  8
Layer 1
 62
     7
420
 16777215
370
    30
100
AcDbVertex
100
AcDb2dVertex
 10
18.49249945746528
 20
20.57473751491971
 30
0.0
  0
VERTEX
  5
5F
330
5B
100
AcDbEntity
  8
Layer 1
 62
     7
420
 16777215
370
    30
100
AcDbVertex
100
AcDb2dVertex
 10
18.49249945746528
 20
22.33179300944011
 30
0.0
  0
VERTEX
  5
60
330
5B
100
AcDbEntity
  8
Layer 1
 62
     7
420
 16777215
370
    30
100
AcDbVertex
100
AcDb2dVertex
 10
10.55409749348958
 20
22.33179300944011
 30
0.0
  0
SEQEND
  5
61
330
5B
100
AcDbEntity
  8
Layer 1
 62
     7
420
 16777215
370
    30
  0
POLYLINE
  5
62
330
1F
100
AcDbEntity
  8
Layer 1
 62
     7
420
 16777215
370
    30
100
AcDb2dPolyline
 66
     1
 10
0.0
 20
0.0
 30
0.0
  0
VERTEX
  5
63
330
62
100
AcDbEntity
  8
Layer 1
 62
     7
420
 16777215
370
    30
100
AcDbVertex
100
AcDb2dVertex
 10
16.36563958062066
 20
21.75443179660374
 30
0.0
  0
VERTEX
  5
64
330
62
100
AcDbEntity
  8
Layer 1
 62
     7
420
 16777215
370
    30
100
AcDbVertex
100
AcDb2dVertex
 10
12.7797359890408
 20
21.75443179660374
 30
0.0
  0
VERTEX
  5
65
330
62
100
AcDbEntity
  8
Layer 1
 62
     7
420
 16777215
370
    30
100
AcDbVertex
100
AcDb2dVertex
 10
12.7797359890408
 20
21.9644317287869
 30
0.0
  0
VERTEX
  5
66
330
62
100
AcDbEntity
  8
Layer 1
 62
     7
420
 16777215
370
    30
100
AcDbVertex
100
AcDb2dVertex
 10
16.36563788519965
 20
21.9644317287869
 30
0.0
  0
VERTEX
  5
67
330
62
100
AcDbEntity
  8
Layer 1
 62
     7
420
 16777215
370
    30
100
AcDbVertex
100
AcDb2dVertex
 10
16.36563958062066
 20
21.75443179660374
 30
0.0
  0
VERTEX
  5
68
330
62
100
AcDbEntity
  8
Layer 1
 62
     7
420
 16777215
370
    30
100
AcDbVertex
100
AcDb2dVertex
 10
16.36563958062066
 20
21.75443179660374
 30
0.0
  0
SEQEND
  5
69
330
62
100
AcDbEntity
  8
Layer 1
 62
     7
420
 16777215
370
    30
  0
ENDSEC
  0
SECTION
  2
OBJECTS
  0
DICTIONARY
  5
C
330
0
100
AcDbDictionary
281
     1
  3
ACAD_GROUP
350
D
  3
ACAD_LAYOUT
350
1A
  3
ACAD_MATERIAL
350
3B
  3
ACAD_MLEADERSTYLE
350
6B
  3
ACAD_MLINESTYLE
350
17
  3
ACAD_PLOTSETTINGS
350
19
  3
ACAD_PLOTSTYLENAME
350
E
  3
ACAD_TABLESTYLE
350
6A
  3
ACAD_VISUALSTYLE
350
2A
  0
SUN
  5
3F
330
29
100
AcDbSun
 90
        1
290
     0
 63
     7
421
 16777215
 40
1.0
291
     1
 91
  2455826
 92
 54000000
292
     0
 70
     2
 71
   256
280
     1
  0
DICTIONARY
  5
D
102
{ACAD_REACTORS
330
C
102
}
330
C
100
AcDbDictionary
281
     1
  0
DICTIONARY
  5
1A
102
{ACAD_REACTORS
330
C
102
}
330
C
100
AcDbDictionary
281
     1
  3
Layout1
350
1E
  3
Layout2
350
26
  3
Model
350
22
  0
DICTIONARY
  5
3B
102
{ACAD_REACTORS
330
C
102
}
330
C
100
AcDbDictionary
281
     1
  3
ByBlock
350
3D
  3
ByLayer
350
3C
  3
Global
350
3E
  0
DICTIONARY
  5
6B
102
{ACAD_REACTORS
330
C
102
}
330
C
100
AcDbDictionary
281
     1
  0
DICTIONARY
  5
17
102
{ACAD_REACTORS
330
C
102
}
330
C
100
AcDbDictionary
281
     1
  3
Standard
350
18
  0
DICTIONARY
  5
19
102
{ACAD_REACTORS
330
C
102
}
330
C
100
AcDbDictionary
281
     1
  0
ACDBDICTIONARYWDFLT
  5
E
102
{ACAD_REACTORS
330
C
102
}
330
C
100
AcDbDictionary
281
     1
  3
Normal
350
F
100
AcDbDictionaryWithDefault
340
F
  0
DICTIONARY
  5
6A
102
{ACAD_REACTORS
330
C
102
}
330
C
100
AcDbDictionary
281
     1
  0
DICTIONARY
  5
2A
102
{ACAD_REACTORS
330
C
102
}
330
C
100
AcDbDictionary
281
     1
  3
2dWireframe
350
2F
  3
3D Hidden
350
31
  3
3dWireframe
350
30
  3
Basic
350
32
  3
Brighten
350
36
  3
ColorChange
350
3A
  3
Conceptual
350
34
  3
Dim
350
35
  3
Facepattern
350
39
  3
Flat
350
2B
  3
FlatWithEdges
350
2C
  3
Gouraud
350
2D
  3
GouraudWithEdges
350
2E
  3
Linepattern
350
38
  3
Realistic
350
33
  3
Thicken
350
37
  0
LAYOUT
  5
1E
102
{ACAD_REACTORS
330
1A
102
}
330
1A
100
AcDbPlotSettings
  1

  2
none_device
  4

  6

 40
0.0
 41
0.0
 42
0.0
 43
0.0
 44
0.0
 45
0.0
 46
0.0
 47
0.0
 48
0.0
 49
0.0
140
0.0
141
0.0
142
1.0
143
1.0
 70
   688
 72
     0
 73
     0
 74
     5
  7

 75
    16
 76
     0
 77
     2
 78
   300
147
1.0
148
0.0
149
0.0
100
AcDbLayout
  1
Layout1
 70
     1
 71
     1
 10
0.0
 20
0.0
 11
12.0
 21
9.0
 12
0.0
 22
0.0
 32
0.0
 14
1.000000000000000E+20
 24
1.000000000000000E+20
 34
1.000000000000000E+20
 15
-1.000000000000000E+20
 25
-1.000000000000000E+20
 35
-1.000000000000000E+20
146
0.0
 13
0.0
 23
0.0
 33
0.0
 16
1.0
 26
0.0
 36
0.0
 17
0.0
 27
1.0
 37
0.0
 76
     0
330
1B
  0
LAYOUT
  5
26
102
{ACAD_REACTORS
330
1A
102
}
330
1A
100
AcDbPlotSettings
  1

  2
none_device
  4

  6

 40
0.0
 41
0.0
 42
0.0
 43
0.0
 44
0.0
 45
0.0
 46
0.0
 47
0.0
 48
0.0
 49
0.0
140
0.0
141
0.0
142
1.0
143
1.0
 70
   688
 72
     0
 73
     0
 74
     5
  7

 75
    16
 76
     0
 77
     2
 78
   300
147
1.0
148
0.0
149
0.0
100
AcDbLayout
  1
Layout2
 70
     1
 71
     2
 10
0.0
 20
0.0
 11
0.0
 21
0.0
 12
0.0
 22
0.0
 32
0.0
 14
0.0
 24
0.0
 34
0.0
 15
0.0
 25
0.0
 35
0.0
146
0.0
 13
0.0
 23
0.0
 33
0.0
 16
1.0
 26
0.0
 36
0.0
 17
0.0
 27
1.0
 37
0.0
 76
     0
330
23
  0
LAYOUT
  5
22
102
{ACAD_REACTORS
330
1A
102
}
330
1A
100
AcDbPlotSettings
  1

  2
none_device
  4

  6

 40
0.0
 41
0.0
 42
0.0
 43
0.0
 44
0.0
 45
0.0
 46
0.0
 47
0.0
 48
0.0
 49
0.0
140
0.0
141
0.0
142
1.0
143
1.0
 70
  1712
 72
     0
 73
     0
 74
     0
  7

 75
     0
 76
     0
 77
     2
 78
   300
147
1.0
148
0.0
149
0.0
100
AcDbLayout
  1
Model
 70
     1
 71
     0
 10
0.0
 20
0.0
 11
12.0
 21
9.0
 12
0.0
 22
0.0
 32
0.0
 14
1.000000000000000E+20
 24
1.000000000000000E+20
 34
1.000000000000000E+20
 15
-1.000000000000000E+20
 25
-1.000000000000000E+20
 35
-1.000000000000000E+20
146
0.0
 13
0.0
 23
0.0
 33
0.0
 16
1.0
 26
0.0
 36
0.0
 17
0.0
 27
1.0
 37
0.0
 76
     0
330
1F
331
29
  0
MATERIAL
  5
3D
102
{ACAD_REACTORS
330
3B
102
}
330
3B
100
AcDbMaterial
  1
ByBlock
 72
     1
 94
      127
  0
MATERIAL
  5
3C
102
{ACAD_REACTORS
330
3B
102
}
330
3B
100
AcDbMaterial
  1
ByLayer
 72
     1
 94
      127
  0
MATERIAL
  5
3E
102
{ACAD_REACTORS
330
3B
102
}
330
3B
100
AcDbMaterial
  1
Global
 72
     1
 94
      127
  0
MLINESTYLE
  5
18
102
{ACAD_REACTORS
330
17
102
}
330
17
100
AcDbMlineStyle
  2
Standard
 70
     0
  3

 62
   256
 51
90.0
 52
90.0
 71
     2
 49
0.5
 62
   256
  6
BYLAYER
 49
-0.5
 62
   256
  6
BYLAYER
  0
ACDBPLACEHOLDER
  5
F
102
{ACAD_REACTORS
330
E
102
}
330
E
  0
VISUALSTYLE
  5
2F
102
{ACAD_REACTORS
330
2A
102
}
330
2A
100
AcDbVisualStyle
  2
2dWireframe
 70
     4
177
     2
291
     0
 71
     0
176
     1
 72
     2
176
     1
 73
     0
176
     1
 90
        0
176
     1
 40
-0.6
176
     1
 41
-30.0
176
     1
 62
     5
 63
     7
421
 16777215
176
     1
 74
     1
176
     1
 91
        4
176
     1
 64
     7
176
     1
 65
   257
176
     1
 75
     1
176
     1
175
     1
176
     1
 42
1.0
176
     1
 92
        0
176
     1
 66
   257
176
     1
 43
1.0
176
     1
 76
     1
176
     1
 77
     6
176
     1
 78
     2
176
     1
 67
     7
176
     1
 79
     5
176
     1
170
     0
176
     1
171
     0
176
     1
290
     0
176
     1
 93
        1
176
     1
 44
0.0
176
     1
173
     0
176
     1
  0
VISUALSTYLE
  5
31
102
{ACAD_REACTORS
330
2A
102
}
330
2A
100
AcDbVisualStyle
  2
3D Hidden
 70
     6
177
     2
291
     0
 71
     1
176
     1
 72
     2
176
     1
 73
     2
176
     1
 90
        0
176
     1
 40
-0.6
176
     1
 41
-30.0
176
     1
 62
     5
 63
     7
421
 16777215
176
     1
 74
     2
176
     1
 91
        2
176
     1
 64
     7
176
     1
 65
   257
176
     1
 75
     2
176
     1
175
     1
176
     1
 42
40.0
176
     1
 92
        0
176
     1
 66
   257
176
     1
 43
1.0
176
     1
 76
     1
176
     1
 77
     6
176
     1
 78
     2
176
     1
 67
     7
176
     1
 79
     3
176
     1
170
     0
176
     1
171
     0
176
     1
290
     0
176
     1
 93
        1
176
     1
 44
0.0
176
     1
173
     0
176
     1
  0
VISUALSTYLE
  5
30
102
{ACAD_REACTORS
330
2A
102
}
330
2A
100
AcDbVisualStyle
  2
3dWireframe
 70
     5
177
     2
291
     0
 71
     0
176
     1
 72
     2
176
     1
 73
     0
176
     1
 90
        0
176
     1
 40
-0.6
176
     1
 41
-30.0
176
     1
 62
     5
 63
     7
421
 16777215
176
     1
 74
     1
176
     1
 91
        4
176
     1
 64
     7
176
     1
 65
   257
176
     1
 75
     1
176
     1
175
     1
176
     1
 42
1.0
176
     1
 92
        0
176
     1
 66
   257
176
     1
 43
1.0
176
     1
 76
     1
176
     1
 77
     6
176
     1
 78
     2
176
     1
 67
     7
176
     1
 79
     5
176
     1
170
     0
176
     1
171
     0
176
     1
290
     0
176
     1
 93
        1
176
     1
 44
0.0
176
     1
173
     0
176
     1
  0
VISUALSTYLE
  5
32
102
{ACAD_REACTORS
330
2A
102
}
330
2A
100
AcDbVisualStyle
  2
Basic
 70
     7
177
     2
291
     1
 71
     1
176
     1
 72
     0
176
     1
 73
     1
176
     1
 90
        0
176
     1
 40
-0.6
176
     1
 41
-30.0
176
     1
 62
     5
 63
     7
421
 16777215
176
     1
 74
     0
176
     1
 91
        4
176
     1
 64
     7
176
     1
 65
   257
176
     1
 75
     1
176
     1
175
     1
176
     1
 42
1.0
176
     1
 92
        8
176
     1
 66
     7
176
     1
 43
1.0
176
     1
 76
     1
176
     1
 77
     6
176
     1
 78
     2
176
     1
 67
     7
176
     1
 79
     5
176
     1
170
     0
176
     1
171
     0
176
     1
290
     0
176
     1
 93
        1
176
     1
 44
0.0
176
     1
173
     0
176
     1
  0
VISUALSTYLE
  5
36
102
{ACAD_REACTORS
330
2A
102
}
330
2A
100
AcDbVisualStyle
  2
Brighten
 70
    12
177
     2
291
     1
 71
     2
176
     1
 72
     2
176
     1
 73
     0
176
     1
 90
        0
176
     1
 40
-0.6
176
     1
 41
-30.0
176
     1
 62
     5
 63
     7
421
 16777215
176
     1
 74
     1
176
     1
 91
        4
176
     1
 64
     7
176
     1
 65
   257
176
     1
 75
     1
176
     1
175
     1
176
     1
 42
1.0
176
     1
 92
        8
176
     1
 66
     7
176
     1
 43
1.0
176
     1
 76
     1
176
     1
 77
     6
176
     1
 78
     2
176
     1
 67
     7
176
     1
 79
     5
176
     1
170
     0
176
     1
171
     0
176
     1
290
     0
176
     1
 93
        1
176
     1
 44
50.0
176
     1
173
     0
176
     1
  0
VISUALSTYLE
  5
3A
102
{ACAD_REACTORS
330
2A
102
}
330
2A
100
AcDbVisualStyle
  2
ColorChange
 70
    16
177
     2
291
     1
 71
     2
176
     1
 72
     2
176
     1
 73
     3
176
     1
 90
        0
176
     1
 40
-0.6
176
     1
 41
-30.0
176
     1
 62
     5
 63
     8
421
  8421504
176
     1
 74
     1
176
     1
 91
        4
176
     1
 64
     7
176
     1
 65
   257
176
     1
 75
     1
176
     1
175
     1
176
     1
 42
1.0
176
     1
 92
        8
176
     1
 66
     8
424
  8421504
176
     1
 43
1.0
176
     1
 76
     1
176
     1
 77
     6
176
     1
 78
     2
176
     1
 67
     7
176
     1
 79
     5
176
     1
170
     0
176
     1
171
     0
176
     1
290
     0
176
     1
 93
        1
176
     1
 44
0.0
176
     1
173
     0
176
     1
  0
VISUALSTYLE
  5
34
102
{ACAD_REACTORS
330
2A
102
}
330
2A
100
AcDbVisualStyle
  2
Conceptual
 70
     9
177
     2
291
     0
 71
     3
176
     1
 72
     2
176
     1
 73
     0
176
     1
 90
        0
176
     1
 40
-0.6
176
     1
 41
-30.0
176
     1
 62
     5
 63
     7
421
 16777215
176
     1
 74
     2
176
     1
 91
        2
176
     1
 64
     7
176
     1
 65
   257
176
     1
 75
     1
176
     1
175
     1
176
     1
 42
40.0
176
     1
 92
        8
176
     1
 66
     7
176
     1
 43
1.0
176
     1
 76
     1
176
     1
 77
     6
176
     1
 78
     2
176
     1
 67
     7
176
     1
 79
     3
176
     1
170
     0
176
     1
171
     0
176
     1
290
     0
176
     1
 93
        1
176
     1
 44
0.0
176
     1
173
     0
176
     1
  0
VISUALSTYLE
  5
35
102
{ACAD_REACTORS
330
2A
102
}
330
2A
100
AcDbVisualStyle
  2
Dim
 70
    11
177
     2
291
     1
 71
     2
176
     1
 72
     2
176
     1
 73
     0
176
     1
 90
        0
176
     1
 40
-0.6
176
     1
 41
-30.0
176
     1
 62
     5
 63
     7
421
 16777215
176
     1
 74
     1
176
     1
 91
        4
176
     1
 64
     7
176
     1
 65
   257
176
     1
 75
     1
176
     1
175
     1
176
     1
 42
1.0
176
     1
 92
        8
176
     1
 66
     7
176
     1
 43
1.0
176
     1
 76
     1
176
     1
 77
     6
176
     1
 78
     2
176
     1
 67
     7
176
     1
 79
     5
176
     1
170
     0
176
     1
171
     0
176
     1
290
     0
176
     1
 93
        1
176
     1
 44
-50.0
176
     1
173
     0
176
     1
  0
VISUALSTYLE
  5
39
102
{ACAD_REACTORS
330
2A
102
}
330
2A
100
AcDbVisualStyle
  2
Facepattern
 70
    15
177
     2
291
     1
 71
     2
176
     1
 72
     2
176
     1
 73
     0
176
     1
 90
        0
176
     1
 40
-0.6
176
     1
 41
-30.0
176
     1
 62
     5
 63
     7
421
 16777215
176
     1
 74
     1
176
     1
 91
        4
176
     1
 64
     7
176
     1
 65
   257
176
     1
 75
     1
176
     1
175
     1
176
     1
 42
1.0
176
     1
 92
        8
176
     1
 66
     7
176
     1
 43
1.0
176
     1
 76
     1
176
     1
 77
     6
176
     1
 78
     2
176
     1
 67
     7
176
     1
 79
     5
176
     1
170
     0
176
     1
171
     0
176
     1
290
     0
176
     1
 93
        1
176
     1
 44
0.0
176
     1
173
     0
176
     1
  0
VISUALSTYLE
  5
2B
102
{ACAD_REACTORS
330
2A
102
}
330
2A
100
AcDbVisualStyle
  2
Flat
 70
     0
177
     2
291
     1
 71
     2
176
     1
 72
     1
176
     1
 73
     1
176
     1
 90
        2
176
     1
 40
-0.6
176
     1
 41
30.0
176
     1
 62
     5
 63
     7
421
 16777215
176
     1
 74
     0
176
     1
 91
        4
176
     1
 64
     7
176
     1
 65
   257
176
     1
 75
     1
176
     1
175
     1
176
     1
 42
1.0
176
     1
 92
        8
176
     1
 66
     7
176
     1
 43
1.0
176
     1
 76
     1
176
     1
 77
     6
176
     1
 78
     2
176
     1
 67
     7
176
     1
 79
     5
176
     1
170
     0
176
     1
171
     0
176
     1
290
     0
176
     1
 93
       13
176
     1
 44
0.0
176
     1
173
     0
176
     1
  0
VISUALSTYLE
  5
2C
102
{ACAD_REACTORS
330
2A
102
}
330
2A
100
AcDbVisualStyle
  2
FlatWithEdges
 70
     1
177
     2
291
     1
 71
     2
176
     1
 72
     1
176
     1
 73
     1
176
     1
 90
        2
176
     1
 40
-0.6
176
     1
 41
30.0
176
     1
 62
     5
 63
     7
421
 16777215
176
     1
 74
     1
176
     1
 91
        4
176
     1
 64
     7
176
     1
 65
   257
176
     1
 75
     1
176
     1
175
     1
176
     1
 42
1.0
176
     1
 92
        0
176
     1
 66
   257
176
     1
 43
1.0
176
     1
 76
     1
176
     1
 77
     6
176
     1
 78
     2
176
     1
 67
     7
176
     1
 79
     5
176
     1
170
     0
176
     1
171
     0
176
     1
290
     0
176
     1
 93
       13
176
     1
 44
0.0
176
     1
173
     0
176
     1
  0
VISUALSTYLE
  5
2D
102
{ACAD_REACTORS
330
2A
102
}
330
2A
100
AcDbVisualStyle
  2
Gouraud
 70
     2
177
     2
291
     1
 71
     2
176
     1
 72
     2
176
     1
 73
     1
176
     1
 90
        2
176
     1
 40
-0.6
176
     1
 41
30.0
176
     1
 62
     5
 63
     7
421
 16777215
176
     1
 74
     0
176
     1
 91
        4
176
     1
 64
     7
176
     1
 65
   257
176
     1
 75
     1
176
     1
175
     1
176
     1
 42
1.0
176
     1
 92
        0
176
     1
 66
     7
176
     1
 43
1.0
176
     1
 76
     1
176
     1
 77
     6
176
     1
 78
     2
176
     1
 67
     7
176
     1
 79
     5
176
     1
170
     0
176
     1
171
     0
176
     1
290
     0
176
     1
 93
       13
176
     1
 44
0.0
176
     1
173
     0
176
     1
  0
VISUALSTYLE
  5
2E
102
{ACAD_REACTORS
330
2A
102
}
330
2A
100
AcDbVisualStyle
  2
GouraudWithEdges
 70
     3
177
     2
291
     1
 71
     2
176
     1
 72
     2
176
     1
 73
     1
176
     1
 90
        2
176
     1
 40
-0.6
176
     1
 41
30.0
176
     1
 62
     5
 63
     7
421
 16777215
176
     1
 74
     1
176
     1
 91
        4
176
     1
 64
     7
176
     1
 65
   257
176
     1
 75
     1
176
     1
175
     1
176
     1
 42
1.0
176
     1
 92
        0
176
     1
 66
   257
176
     1
 43
1.0
176
     1
 76
     1
176
     1
 77
     6
176
     1
 78
     2
176
     1
 67
     7
176
     1
 79
     5
176
     1
170
     0
176
     1
171
     0
176
     1
290
     0
176
     1
 93
       13
176
     1
 44
0.0
176
     1
173
     0
176
     1
  0
VISUALSTYLE
  5
38
102
{ACAD_REACTORS
330
2A
102
}
330
2A
100
AcDbVisualStyle
  2
Linepattern
 70
    14
177
     2
291
     1
 71
     2
176
     1
 72
     2
176
     1
 73
     0
176
     1
 90
        0
176
     1
 40
-0.6
176
     1
 41
-30.0
176
     1
 62
     5
 63
     7
421
 16777215
176
     1
 74
     1
176
     1
 91
        4
176
     1
 64
     7
176
     1
 65
   257
176
     1
 75
     7
176
     1
175
     7
176
     1
 42
1.0
176
     1
 92
        8
176
     1
 66
     7
176
     1
 43
1.0
176
     1
 76
     1
176
     1
 77
     6
176
     1
 78
     2
176
     1
 67
     7
176
     1
 79
     5
176
     1
170
     0
176
     1
171
     0
176
     1
290
     0
176
     1
 93
        1
176
     1
 44
0.0
176
     1
173
     0
176
     1
  0
VISUALSTYLE
  5
33
102
{ACAD_REACTORS
330
2A
102
}
330
2A
100
AcDbVisualStyle
  2
Realistic
 70
     8
177
     2
291
     0
 71
     2
176
     1
 72
     2
176
     1
 73
     0
176
     1
 90
        0
176
     1
 40
-0.6
176
     1
 41
-30.0
176
     1
 62
     5
 63
     7
421
 16777215
176
     1
 74
     1
176
     1
 91
        0
176
     1
 64
     7
176
     1
 65
   257
176
     1
 75
     1
176
     1
175
     1
176
     1
 42
1.0
176
     1
 92
        8
176
     1
 66
     8
424
  7895160
176
     1
 43
1.0
176
     1
 76
     1
176
     1
 77
     6
176
     1
 78
     2
176
     1
 67
     7
176
     1
 79
     5
176
     1
170
     0
176
     1
171
     0
176
     1
290
     0
176
     1
 93
       13
176
     1
 44
0.0
176
     1
173
     0
176
     1
  0
VISUALSTYLE
  5
37
102
{ACAD_REACTORS
330
2A
102
}
330
2A
100
AcDbVisualStyle
  2
Thicken
 70
    13
177
     2
291
     1
 71
     2
176
     1
 72
     2
176
     1
 73
     0
176
     1
 90
        0
176
     1
 40
-0.6
176
     1
 41
-30.0
176
     1
 62
     5
 63
     7
421
 16777215
176
     1
 74
     1
176
     1
 91
        4
176
     1
 64
     7
176
     1
 65
   257
176
     1
 75
     1
176
     1
175
     1
176
     1
 42
1.0
176
     1
 92
       12
176
     1
 66
     7
176
     1
 43
1.0
176
     1
 76
     1
176
     1
 77
     6
176
     1
 78
     2
176
     1
 67
     7
176
     1
 79
     5
176
     1
170
     0
176
     1
171
     0
176
     1
290
     0
176
     1
 93
        1
176
     1
 44
0.0
176
     1
173
     0
176
     1
  0
ENDSEC
  0
EOF
