<?xml version="1.0" encoding="utf-8"?>
<!-- Generator: Adobe Illustrator 25.0.0, SVG Export Plug-In . SVG Version: 6.00 Build 0)  -->
<svg version="1.1" id="Layer_1" xmlns="http://www.w3.org/2000/svg" xmlns:xlink="http://www.w3.org/1999/xlink" x="0px" y="0px"
	 width="1567.251px" height="2326.86px" viewBox="0 0 1567.251 2326.86" style="enable-background:new 0 0 1567.251 2326.86;"
	 xml:space="preserve">
<style type="text/css">
	.st0{enable-background:new    ;}
	.st1{fill:none;stroke:#000000;stroke-width:0.75;stroke-miterlimit:10;}
	.st2{fill:none;stroke:#FF00FF;stroke-width:2;stroke-miterlimit:10;}
</style>
<g class="st0">
	<path class="st1" d="M198.087,2258.574v-148.096h80.936v-372.821h-80.936v-148.095H750v270.359H628.597l-26.692-122.265H494.278
		v126.57h93.852v107.627h-93.852v138.624h80.075v148.096H198.087V2258.574z"/>
	<polygon class="st1" points="223.287,2233.374 223.287,2135.679 304.223,2135.679 304.223,1712.457 223.287,1712.457 
		223.287,1614.763 724.8,1614.763 724.8,1834.722 648.889,1834.722 622.197,1712.457 469.077,1712.457 469.077,1889.428 
		562.929,1889.428 562.929,1946.654 469.077,1946.654 469.077,2135.679 549.153,2135.679 549.153,2233.374 	"/>
</g>
<g class="st0">
	<path class="st2" d="M846.182,2258.574v-148.096h80.936v-372.821h-80.936v-148.095h551.913v270.359h-121.403L1250,1737.656
		h-107.627v126.57h93.852v107.627h-93.852v138.624h80.075v148.096H846.182V2258.574z"/>
</g>
<polygon class="st1" points="621.392,861.443 621.392,886.644 750,886.644 750,1106.603 674.089,1106.603 647.397,984.338 
	494.278,984.338 494.278,1161.309 588.129,1161.309 588.129,1218.535 494.278,1218.535 494.278,1407.56 574.353,1407.56 
	574.353,1505.255 248.488,1505.255 248.488,1407.56 329.424,1407.56 329.424,984.338 248.488,984.338 248.488,886.644 
	421.647,886.644 421.647,861.443 223.287,861.443 223.287,1009.538 304.223,1009.538 304.223,1382.359 223.287,1382.359 
	223.287,1530.455 599.553,1530.455 599.553,1382.359 519.478,1382.359 519.478,1243.735 613.329,1243.735 613.329,1136.108 
	519.478,1136.108 519.478,1009.538 627.105,1009.538 653.797,1131.803 775.2,1131.803 775.2,861.443 "/>
<polygon class="st1" points="1219.522,861.443 1219.522,886.644 1348.13,886.644 1348.13,1106.603 1272.219,1106.603 
	1245.527,984.338 1092.408,984.338 1092.408,1161.309 1186.259,1161.309 1186.259,1218.535 1092.408,1218.535 1092.408,1407.56 
	1172.483,1407.56 1172.483,1505.255 846.618,1505.255 846.618,1407.56 927.554,1407.56 927.554,984.338 846.618,984.338 
	846.618,886.644 1019.777,886.644 1019.777,861.443 821.417,861.443 821.417,1009.538 902.353,1009.538 902.353,1382.359 
	821.417,1382.359 821.417,1530.455 1197.683,1530.455 1197.683,1382.359 1117.608,1382.359 1117.608,1243.735 1211.459,1243.735 
	1211.459,1136.108 1117.608,1136.108 1117.608,1009.538 1225.235,1009.538 1251.927,1131.803 1373.33,1131.803 1373.33,861.443 "/>
<polygon class="st1" points="223.287,140.581 223.287,288.675 304.223,288.675 304.223,661.497 223.287,661.497 223.287,809.592 
	279.849,809.592 279.849,824.325 537.609,824.325 537.609,809.592 599.553,809.592 599.553,661.497 519.478,661.497 
	519.478,522.873 613.329,522.873 613.329,415.246 519.478,415.246 519.478,288.675 627.105,288.675 653.797,410.94 775.2,410.94 
	775.2,140.581 "/>
<path class="st1" d="M861.734,694.616v126.508h471.28V694.616H861.734z M1227.188,736.186H969.003v-15.12h258.185V736.186
	L1227.188,736.186z"/>
</svg>
