<?xml version="1.0" encoding="utf-8"?>
<!-- Generator: Adobe Illustrator 24.2.3, SVG Export Plug-In . SVG Version: 6.00 Build 0)  -->
<svg version="1.1" id="Layer_1" xmlns="http://www.w3.org/2000/svg" xmlns:xlink="http://www.w3.org/1999/xlink" x="0px" y="0px"
	 viewBox="0 0 4801 3601" style="enable-background:new 0 0 4801 3601;" xml:space="preserve">
<g transform="translate(0.000000,3601.000000) scale(0.100000,-0.100000)">
	<path d="M13925.3,6884.8c131.1-213.9,352.5-138.5,373.3-97.5c0.1,0.2,0.2,0.4,0.3,0.6c34,68,34,102,2,224c-26,98-40,166-66,328
		c-13,85-17,425-6,574c13,169,49,464,81,661c22,134,76,513,84,590c3,28,10,100,17,160c16,152,13,584-4,715c-14,104-14,106,14,220
		c97,402,259,746,739,1580c351,608,399,704,386,776c-16,88-57,137-140,169c-61,24-123,16-187-23c-27-17-49-29-49-26
		c0,9,162,286,238,409c320,512,679,986,1331,1760c107,126,205,246,218,266c33,49,41,126,19,183c-21,54-81,111-133,125
		c-85,24-285,61-403,75c-158,18-563,18-720,0c-120-14-341-55-422-79c-27-8-48-10-48-5s36,41,81,80c142,126,284,206,459,260
		c58,18,119,44,136,56c90,66,100,225,20,312c-29,32-129,90-315,181c-86,43-172,85-191,94c-19,10-27,16-18,13c59-17,141-18,183-2
		c52,20,111,83,125,135c25,91,5,147-96,266c-128,152-268,390-343,585c-18,45-49,144-70,221c-21,76-46,150-55,164
		c-51,77-179,108-266,63c-91-47-127-141-103-263c20-96,86-299,140-425c43-99,64-141,135-267c16-29,27-53,24-53c-35,0-239-49-318-76
		c-199-70-314-140-352-217c-32-64-33-117-2-183c36-77,69-97,236-139c228-57,641-202,639-224c0-3-33-27-72-53
		c-278-183-521-496-637-823c-25-70-30-100-26-134c14-107,102-186,206-185c45,0,76,9,170,53c233,108,570,202,830,230
		c134,15,355,19,489,10c62-4,115-10,118-13c2-2-75-100-173-218c-744-892-1198-1552-1524-2213c-155-315-290-644-290-707
		c0-48,43-131,81-161c41-30,97-47,144-42c19,2,35,2,35,1c0-2-36-68-81-147c-127-227-231-430-314-614c-42-93-78-171-79-173
		c-2-1-26,38-55,86c-69,117-159,235-266,351c-130,139-149,199-98,302c53,107,199,228,404,338c53,28,104,60,114,70
		c45,51,58,167,26,238c-50,110-201,295-314,384l-48,38l28,14c37,20,174,62,246,77c70,14,129,62,148,117c15,46,7,149-16,193
		c-28,56-212,229-313,295c-108,70-113,59,59,149c59,31,119,70,133,87c54,64,58,170,8,246c-15,23-71,93-126,155
		c-448,515-812,1165-1034,1849c-141,434-224,869-253,1334c-13,207-8,398,18,760c20,286,23,764,5,890c-33,228-77,391-186,688
		c-129,351-158,491-158,747c0,240,30,416,148,875c72,281,107,440,137,620c46,273,52,347,52,655c-1,318-14,457-70,751
		c-79,409-166,716-415,1459c-265,793-363,1169-417,1609c-24,191-23,602,0,766c61,416,223,804,457,1090c79,97,231,240,320,301
		c393,270,843,311,1533,138c1054-265,2039-851,2885-1719c577-592,1063-1290,1486-2135c245-491,384-830,642-1565
		c165-469,297-768,444-1003c36-57,127-186,203-288c217-291,309-436,330-519c38-152,177-389,422-720c65-88,184-250,263-360
		c146-203,236-318,357-457c36-43,63-78,58-79c-4,0-15-2-23-3c-8-2-60-6-115-10c-145-10-325-32-535-67c-670-110-1251-303-1660-551
		c-397-240-1015-853-1315-1306c-26-40-50-71-52-69c-5,6,34,190,72,332c128,490,352,935,680,1355c45,58,93,123,108,145
		c43,67,70,161,69,245c-1,135-58,236-202,351c-78,63-79,64-52,72c15,5,101,11,192,14c176,6,211,15,256,65c79,86,79,160,0,370
		c-19,51-34,93-33,95c2,1,32-3,67-9c81-13,135,0,186,44c78,69,88,124,100,581c5,217-5,604-21,744c-2,21-9,94-15,163
		c-42,449-144,973-282,1439c-58,195-84,241-158,279c-102,51-233,4-281-103c-28-60-24-99,31-280c165-547,266-1121,298-1700
		c11-179,10-691-1-701c-4-4-96,12-206,35c-211,45-241,46-313,10c-47-24-74-60-92-120c-14-46-14-63,0-132c3-16,37-62,77-105
		c105-113,187-226,187-259c0-6-26-14-57-18c-89-11-277-68-398-121c-160-70-205-125-205-251c0-69,24-101,155-202
		c61-47,163-127,228-179l118-93l-18-29c-10-15-70-97-134-182c-395-519-651-1114-769-1783c-41-236-52-358-56-640
		c-4-356,15-573,56-655c39-75,97-110,183-110c109,1,178,57,203,165c8,39,25,111,36,160c114,494,447,1014,979,1530
		c293,284,499,446,709,558c418,224,1103,412,1755,483c287,31,654,34,760,6c56-15,324-49,490-63c83-7,241-9,390-6
		c243,5,352,16,624,61c47,8,102,17,121,20c34,5,375,30,565,42c312,18,534,41,720,74c171,30,215,34,520,50c301,16,362,20,495,36
		c371,45,679,153,888,310l42,32l78-33c42-17,237-89,432-159c814-293,1087-408,1312-556c104-68,156-129,267-311
		c275-449,456-888,567-1374c29-130,49-173,97-209c78-58,186-56,260,5c49,40,62,68,92,191c77,323,74,725-10,1198
		c-14,80-57,287-95,460c-130,598-149,720-155,1020c-6,333,28,520,142,763c52,111,55,122,51,181c-6,95-53,153-151,185
		c-73,25-117,9-289-102l-57-37l18,53c29,85,84,186,153,282c76,105,92,147,86,221c-5,63-41,116-104,151c-76,43-105,41-270-22
		c-82-32-218-88-303-126s-157-67-159-64c-10,10,146,430,262,705c68,159,308,648,396,805c359,640,759,1198,1219,1703
		c66,73,129,147,138,165c11,21,17,55,18,99c0,58-4,72-30,109c-59,83-184,115-273,70c-58-30-404-424-638-726
		c-693-898-1226-1921-1559-2996c-98-317-111-373-96-428c29-110,140-185,240-162c23,5,105,47,184,93c159,94,307,172,307,163
		c0-4-9-41-19-83c-30-118-43-225-43-353c-1-101,2-123,22-163c24-50,64-86,123-111c57-24,99-19,173,21l67,35l-6-38
		c-27-169-30-375-11-618c15-194,74-520,178-998c25-114,46-211,46-215s-27,43-58,103c-123,231-269,457-354,545
		c-211,220-581,397-1528,735c-309,110-481,175-545,206l-50,24l-38,115c-48,145-47,200,5,281c76,118,213,235,449,380
		c214,132,271,173,345,251c114,118,189,256,279,508c98,278,211,529,347,775c238,428,867,1359,1436,2125
		c779,1048,1683,2126,2481,2959c592,619,1035,914,1531,1023c92,20,133,23,330,23c212,0,231-2,334-28c365-92,626-321,798-702
		c135-300,247-777,353-1502c60-415,89-732,121-1293c8-146,7-924-1-1073c-11-202-35-571-40-612c-2-22-11-107-19-190
		c-9-82-20-186-26-230c-90-675-181-1142-336-1723c-86-321-171-595-334-1067c-329-957-396-1263-394-1800c2-409,30-592,189-1235
		c164-658,187-798,189-1105c1-347-49-571-193-870c-203-420-562-813-1250-1368c-215-173-234-206-197-331c11-35,34-67,89-125
		c77-80,170-208,161-222c-2-4-39-26-82-48c-87-47-133-93-150-149c-34-112,6-205,111-259l49-24l-49-31c-143-91-249-224-302-382
		l-17-49l-68,104c-98,151-148,262-201,449c-54,195-95,301-181,470c-209,413-615,881-1132,1305c-84,69-80,76,33,61
		c90-11,139,1,192,47c67,59,91,155,58,233c-17,40-111,175-199,283c-33,41-54,71-46,66s89-61,180-124c443-311,724-449,1049-517
		c179-37,227-31,288,39c67,76,74,169,24,321c-44,134-89,230-156,332c-30,46-55,87-55,89c0,3,20,5,44,5c57,0,85,11,131,52
		c77,67,95,164,49,257c-19,38-57,80-139,155c-189,172-393,314-604,420c-87,44-91,48-80,69c65,122,264,332,399,419
		c116,76,248,141,351,173c50,15,101,39,122,56c98,81,101,233,6,313c-77,65-135,70-271,25c-472-157-861-512-1074-979
		c-50-108-55-159-25-226c27-60,70-89,220-149c119-48,344-166,380-200c11-10,4-16-37-29c-105-35-167-147-140-253
		c12-51,59-103,161-183c56-43,181-179,173-188c-7-7-196,94-308,165c-60,38-218,144-352,237c-316,217-449,300-621,386
		c-246,122-468,181-690,183c-150,2-203-12-260-67c-71-68-80-171-23-263c12-21,60-58,136-104c136-84,256-168,362-253
		c86-69,313-288,371-357l38-46l-67-27c-79-31-203-110-251-160c-55-57-72-167-36-236c17-32,54-67,185-170c348-278,725-633,918-867
		c128-155,243-329,328-495c80-158,103-218,155-405c22-80,53-180,69-222c57-148,189-355,380-596c252-318,230-282,267-434
		c128-519,204-1019,243-1586c6-88,13-194,15-235c10-148,6-516-6-565c-10-39-20-53-61-82c-67-48-102-111-103-183c0-84,25-123,136-206
		c255-192,417-445,490-764c26-112,33-356,13-455c-7-38-16-94-20-122c-19-149,116-259,277-226c43,8,111,77,126,128
		c40,135,60,407,42,575c-22,207-80,403-175,595c-77,156-169,287-287,411l-88,93l16,31c9,17,26,66,37,108c19,68,22,109,24,352
		c6,585-69,1288-211,1965c-20,94-41,199-46,235s-17,92-25,125c-53,208-62,270-60,390c3,135,16,182,71,257c19,26,54,60,76,75
		c38,25,50,27,138,28c87,1,102,4,144,28c52,31,94,92,101,149c8,67-44,211-113,313l-29,43l47,30c56,34,101,112,101,173
		c0,73-78,254-168,392c-26,40-50,77-54,84c-5,7,42,52,130,124c413,342,747,683,959,980c219,308,358,625,422,960
		c27,143,36,263,34,454c-3,311-37,509-199,1175c-144,594-180,811-188,1125c-11,433,67,800,345,1620c311,919,438,1363,554,1940
		c186,923,270,1753,270,2675c0,238-13,779-19,789c-2,3-6,62-10,131c-19,353-83,906-147,1260c-171,954-342,1433-633,1772
		c-206,241-507,411-863,489c-80,17-139,22-318,24c-121,2-236,1-255-1c-316-39-649-155-948-332c-438-260-849-644-1653-1547
		c-1039-1168-1984-2395-2904-3770c-451-674-585-927-785-1482c-70-193-107-269-173-358c-61-82-133-140-304-247
		c-215-134-311-207-424-318c-114-114-167-186-211-292c-62-147-61-304,3-506l33-104l-24-19c-48-36-196-107-290-137
		c-175-57-322-81-605-97c-428-25-640-44-827-75c-162-27-395-49-668-65c-214-13-551-46-751-75c-288-42-386-50-614-51
		c-192,0-475,20-600,42c-36,6-70,20-88,35c-16,13-39,27-52,30s-41,27-62,52c-20,26-105,126-188,222c-196,228-201,233-362,457
		c-76,105-199,274-273,375c-241,326-359,520-375,614c-20,117-109,268-348,587c-170,227-223,305-306,449c-115,201-221,457-396,963
		c-214,619-350,947-590,1425c-958,1904-2312,3232-3945,3867c-560,218-1087,335-1515,335c-445,1-794-110-1121-355
		c-350-263-620-658-774-1132c-208-640-194-1300,45-2194c54-202,138-473,319-1026c236-724,328-1070,375-1420c11-82,23-168,26-190
		c13-93,13-523,0-650c-27-257-47-361-159-814c-130-525-155-671-163-956c-9-324,18-465,177-925c96-278,140-441,161-600
		c19-136,16-467-6-740c-26-313-27-840-2-1080c122-1161,546-2214,1240-3080c33-41,64-80,69-86c5-7-12-25-49-49
		c-170-113-327-250-354-310c-51-111,15-255,131-284c122-32,272-90,285-111c3-5-29-27-70-49c-93-51-267-182-299-224
		c-54-72-52-160,5-243c25-37,47-52,142-97c113-55,204-117,264-179l33-34l-83-59c-355-257-495-569-386-861c31-81,104-184,224-314
		c266-286,393-586,436-1025c11-112,7-534-6-625c-2-19-14-111-26-205c-11-93-40-298-64-455c-75-496-95-680-100-965
		c-4.8-260.9,8.9-438.4,54.6-672.6C13863,7024.7,13925.3,6884.8,13925.3,6884.8z"/>
	<path d="M13078,26645.9c-58-16-110-55-131-98c-49-105-59-488-17-688c51-247,158-493,291-670c130-174,188-220,279-220
		c115,0,211,99,210,215c-1,52-26,102-82,167c-243,277-345,621-298,1008c15,124,6,171-42,226
		C13233,26647.9,13161,26668.9,13078,26645.9z"/>
	<path d="M34656,25884.9c-74-26-145-119-146-190c0-17,16-84,35-150c66-221,116-475,133-665c13-145,14-470,2-620
		c-13-157-40-330-76-485c-40-168-41-203-11-268c31-68,85-108,155-115c122-11,205,52,240,184c129,485,157,1058,77,1569
		c-45,285-127,597-176,664c-31,44-117,91-163,91C34709,25898.9,34678,25892.9,34656,25884.9z"/>
</g>
</svg>
