<?xml version="1.0" encoding="utf-8"?>
<!-- Generator: Adobe Illustrator 24.2.3, SVG Export Plug-In . SVG Version: 6.00 Build 0)  -->
<svg version="1.1" id="e87118e2-b586-4c09-98ff-135a4ecc7889"
	 xmlns="http://www.w3.org/2000/svg" xmlns:xlink="http://www.w3.org/1999/xlink" x="0px" y="0px" viewBox="0 0 1152 864"
	 style="enable-background:new 0 0 1152 864;" xml:space="preserve">
<path d="M1020.1,516.7c-5.9-8.2-13.6-15.3-20.5-22.6c-6.9-7.3-14.1-14.7-20.7-22.5c-12.6-14.9-23.8-32.3-25.8-52.1
	c-2.4-23,7.3-44.4,8.9-67c1.6-22.6-8.1-44.4-30.1-52.2c-23.8-8.5-49.6-1-73.6-9c-22-7.3-38.6-24.1-57.9-36.3
	c-19.3-12.2-45.3-18-68.2-11.8c-21,5.7-34.8,22.7-49.9,37.1c-9.2,8.8-20,9.3-32,8.2c-13.5-1-26.9-3.1-40.1-6.1
	c-12.3-3-24.3-7.1-36.5-10.7c-12.2-3.6-26.4-5.5-39.7-6c-25.8-1-51.8,3.7-76.3,11.8c-5.1,1.8-10.1,4-14.8,6.6
	c-5.8,3.2-12.6,5.1-18.6,7.9l-17.3,8c-6.2,2.8-12.8,6.5-19.8,6.1c-7-0.4-11.7-4.2-16.9-7.3c-5.2-3.1-11.6-7.1-17.6-10.3
	c-10.9-5.8-23.8-9.2-36-10.7c-23.6-3-47.4,3.8-65.8,18.9c-9.8,8.2-18.8,17.2-28.5,25.5s-20.8,13.6-33.2,17.3
	c-12.4,3.7-23,5.8-34,10.1c-9.9,3.9-18.7,10-25.8,17.9c-14.1,15.3-22.2,36.4-19.3,57.3c3.5,25.3,14.4,48.8,11.3,74.8
	c-1.5,12.2-3.3,24.6-7.8,36.1c-2.3,5.7-5.6,10.9-8.7,16.1c-1.6,2.6-3,5.5-4.8,8c-1.8,2.5-4.3,4.9-6.1,7.9c-6,10-9.7,21.7-7.1,33.4
	c2.2,10.6,10.4,18.8,20.9,21.2c20.6,5,40.7-10.4,52.5-25.8c14.6-19,23.8-42.8,31.5-65.3c1.2-3.6,2.4-7.1,3.5-10.7
	c3.9,5,11,8.2,16.4,11.3c5.4,3.1,13.6,7.3,19.7,11.9c24.1,18,34.2,47.3,41.9,75.1c1.9,7,12.8,4.1,10.9-2.9
	c-7-25.3-15.7-51.5-34.6-70.4c-4.7-4.7-9.1-9.3-14.7-13s-11.6-7-17.5-10.4c-4.3-2.4-13.1-5.6-14.2-10.9c-0.5-2.6-0.2-5.2,0.7-7.7
	c15.9-26.7,37-50.1,62.9-67.5c15.2-9.9,31.5-18.2,48.5-24.5c18.5-7,37.4-12.9,55.5-21.1c15.8-7.1,32.7-17.6,33.5-36.4
	c0.2-0.9,0.3-1.8,0.1-2.7c0-0.1-0.1-0.3-0.1-0.4v-0.5c-0.1-0.8-0.3-1.6-0.6-2.3c-2.7-11.6-8.4-22.2-16.6-30.8
	c4.1,0.1,8.1-0.5,12-1.8c12.4-4.1,24-11,36.1-16.1c5.3-2.3,10.7-4,15.6-7.1c4.9-3.1,12.6-5,18.8-6.8c24.5-7.1,50.1-10.4,75.6-7.8
	c25.5,2.6,50,14,75.7,18.4c12.6,2.2,26,4.2,38.8,4.5c10.6,0.1,20.9-3.8,28.9-10.8c15.7-13.5,27.8-31.9,49.5-36.4
	c25.2-5.4,48,4.7,67.9,19.3c17.5,12.8,35.3,26.8,57,31.6c12.8,2.9,25.8,2.5,38.7,2.7c11.4,0.1,23.8,1.1,33.7,7.2
	c21,13,15.8,41.6,11.3,61.5c-4.5,19.9-8,41.6-0.9,62.3c6.3,18.8,18.7,34.6,31.8,49.1s30.7,28.8,39.7,47.1c2.5,5.1,4.8,10.6,3.5,16.3
	s-4,10.6-8.9,13c-9.6,4.6-21.6-2-28.5-8.5c-8.6-8.1-15-18.4-21.8-27.9s-15.5-21.5-23-32.4c-2.7-4-5.4-8-8-12.1
	c-0.1-0.6-0.3-1.1-0.6-1.6c-3.4-6.1-7.2-11.9-11.5-17.4c-6.8-11.3-13.4-22.6-19.9-34c-6.5-11.4-12.8-22.8-19.3-34.1
	c-3-5.3-7.1-9.9-10.4-15.1c-1.4-2.2-2.1-4.7-3.3-7s-4-4.7-5.9-7.3c-11.9-17.2-25.2-32.6-42.9-44c-17.7-11.4-39-17.1-59.4-22.3
	c-20.4-5.2-42.6-8.4-62.7-0.1c-8.9,3.8-19.2,9.4-21.6,19.5c-2.4,10.1,0.8,20.4,4.6,28.6c1.9,4.2,3.2,8.6,5.8,12.4
	c2.7,4,6.1,7.4,10,10.2c7.4,5.2,16.6,7.7,25.4,9.2c18.8,3.3,37.9,4.5,56.8,6.4c38.8,3.8,79.7,10.9,106.5,41.9
	c1.3,1.4,2.4,2.9,3.5,4.4c0.1,0.6,0.3,1.1,0.6,1.6c1.8,3.6,3.8,7.1,6.2,10.3c0.5,7-8.5,14.2-13.2,18.1c-6,4.9-12.5,9.3-19.3,13
	c-13.6,7.6-28,12.8-38.2,25.1c-22.1,26.6-25.1,63.9-28,96.9c-0.6,7.3,10.6,7.2,11.3,0c1.6-18.5,3.5-37.2,8.3-55.2
	c4.2-15.5,11.6-32,24.7-42c6.2-4.8,13.5-7.8,20.5-11.3c7.1-3.5,13.8-7.6,20.3-12.1c6.6-4.6,15.8-11.5,21-19.7l0.6,0.9
	c2.6,3.8,5.5,7.4,8.2,11.2c2.7,3.8,6.1,9.9,9.3,14.8c14.4,22.5,30.1,44.4,46.1,65.8c6,8.1,12.7,15.9,21.5,20.9s21,7.5,30.7,3.2
	s15.2-14.8,16.1-24.8S1026.3,525.4,1020.1,516.7z M192.2,490.7c-6.5,24.2-13.8,48-24.5,70.5c-9,19-20.5,40.8-41.6,48.6
	c-8.8,3.2-21.8,3.6-26.6-6.4s-0.5-25.5,7.4-34.1c4-4.3,6.6-10,9.6-15c3.4-5.5,6.3-11.3,8.6-17.3c4-10.9,5.7-22.4,7.1-33.9
	c1.5-12.4,1.1-24.9-1.3-37.1c-2.4-12.5-6.2-24.7-8.7-37.2c-4.4-21.2,3-42.3,18.8-57s40.2-16.9,60.8-24.6c12-4.6,21.7-11.1,31.3-19.5
	c9.6-8.4,18.6-17.6,28.8-25.5c19.2-14.8,45.8-16.6,68.5-10.1c4.6,1.3,9.2,2.9,13.5,5c-12.2-1.3-24.5,0.5-35.8,5.1
	c-4.4,1.8-8.4,4.4-13.1,5.5c-4.7,1.1-9.7,4.4-13.9,7.6c-2.2,1.6-4.2,3.4-6.2,5.2c-1.8,1.7-3.5,2.3-5.6,3.6c-4.3,3-8.1,7.7-12,11.2
	c-13.4,12.1-25.4,23.5-31.4,41.1c-4.7,13.9-9.7,27.7-14.1,41.7C204.3,442,198.7,466.5,192.2,490.7z M393.1,352.1
	c-0.1,17.5-19.2,24.9-33,30.8h0c-18.1,7.7-37.1,13.4-55.4,20.7c-31.1,12.6-59.3,30.9-82.1,55.7c-5.5,6-10.7,12.4-15.5,19l5.1-20
	c5.2-20,11-39.7,18-59.1c5.5-15.2,8.9-30.5,20.4-42.4c6.3-6.5,13.4-12.2,19.9-18.4c1.7-1.6,3.4-3.8,5.3-5c1.9-1.2,3.9-2,5.9-3.8
	c4.2-3.8,8.9-8.5,14.4-10.5c2.1-0.8,4.3-0.9,6.3-1.7c2-0.8,4.4-2.3,6.6-3.4c4.9-2.3,10-4,15.3-5c9.9-1.9,20.2-1.3,29.9,1.5
	c9.1,2.6,18,7.3,24.7,14S390.8,342,393.1,352.1z M840.8,387.1c-37.2-13.3-77.6-11.9-116.3-17.9v0c-8.7-1.3-18.1-3.2-25.3-8.6
	c-7.2-5.4-11-15.1-13.4-23.7c-1.2-4.3-2.6-9.1-2-13.6s5.8-8.3,10.3-10.8c9.5-5.3,20.2-7,30.9-6.7s21.9,2.8,32.4,5.6
	c10.5,2.8,21.2,5.7,31.4,9.3c20,7,37,20.4,50.5,36.5c3.5,4.2,6.8,8.6,9.9,13.2c1.3,2.2,2.8,4.3,4.5,6.2c2,2.3,2.9,4.6,4.3,7.3
	c2.7,5.6,7.4,10.3,10.7,15.6l1.5,2.6C861.1,395.8,851.2,390.8,840.8,387.1z"/>
</svg>
