<?xml version="1.0" encoding="utf-8"?>
<!-- Generator: Adobe Illustrator 24.2.3, SVG Export Plug-In . SVG Version: 6.00 Build 0)  -->
<svg version="1.1" id="a716ea4e-e0a6-4f1f-b37f-e704cc2453f6"
	 xmlns="http://www.w3.org/2000/svg" xmlns:xlink="http://www.w3.org/1999/xlink" x="0px" y="0px" viewBox="0 0 1152 864"
	 style="enable-background:new 0 0 1152 864;" xml:space="preserve">
<path d="M916.9,244.8c-3-11.9-15.2-17.5-26.6-17.3c-6.9,0.1-13,2.6-19.4,5.1s-12.9,5.5-19.1,8.7c-12.2,6.6-23.9,14.2-34.9,22.7
	c-4.5,3.5-8.7,7.3-13.5,10.4c-4.8,3.1-9.2,5.8-13.4,9.2c-8,6.5-16.3,12.2-23.1,20.1c-2.7,3.3-5.3,6.7-8.1,10s-7.3,7.8-10.6,12
	c-5.5,6.9-10.3,13.2-15.7,20s-9.2,12.8-13.6,19.4c-3.4,4.9-6.6,10.2-12.4,12.4c-10.9,4.1-24-1-34.6-3.5c-15-3.6-29.9-3.1-45,0
	c-7.7,1.5-15.4,3.3-22.9,5.6c-7.9,2.5-15.5,5.4-23.7,6.7c-8.2,1.3-15.9,0.4-24-0.7l-24.6-3.5c-16.2-2-32.5-3-48.8-0.8
	c-5.4,0.7-10.6,2.3-16,3.3c-3.5,0.7-8.5,1.7-11.6-0.2c-3.1-1.9-3-6.9-2.3-10.2c1-5.4,2.7-11,1.1-16.4c-1.6-5.4-8-9.6-13.7-12.5
	c-5.7-2.9-12.5-6.2-17.4-11.5c-20-21.4-41.1-41.8-64.2-59.8c-11.9-9.3-24.2-18-36.9-26.1c-6.6-4.2-13.6-7.9-20.3-12.1
	c-6.7-4.2-13.1-8.4-20-12.3c-6.9-3.9-12.5-5.7-19.8-4.8c-7,0.6-13.3,4.2-17.4,9.9c-7.6,10.5-4,23-3.9,34.8c0.1,32.5,6.2,64.3,13,96
	c3.5,16,7,32.1,9.9,48.3c2.8,16.6,4.5,33.4,5.2,50.3c0.3,8.3,0.6,16.5,1,24.7c0.4,8.2,0.6,13.6,5.1,19.3c4.5,5.7,8.2,7.4,13.2,9.7
	c2.6,1.3,5.2,2.4,7.9,3.5c2.8,1.3,5.3,3.1,7.4,5.4c5.3,4.9,9.3,10.9,11.8,17.6c2.5,6.8,4.4,13.8,6.3,20.8c1.9,7,3.9,14.9,6.5,22.2
	c1.1,3.3,2.5,6.6,3.9,9.8c1.4,3.2,3.3,7.7,6.5,10.2c5,4,13.5,3.5,17.7-1.6s4.7-13.7,6-20.8c2.8-15.3,7.6-30.1,11.6-45.1
	c0.9-3.6,1.8-7.2,2.6-10.8c0.8-3.6,1.7-7.4,0.1-11.4c-1.2-2.9-3.2-5.5-5.8-7.3l-0.7-0.4c4.7-9.1,11.8-16.7,20.5-22
	c2.5-1.5,3.6-5.7,1-7.8l-9.3-7.7c9.8-6.6,20.8-11,32.3-13.1c-0.2,0.5-0.2,1-0.2,1.5c0.1,2.1,1.5,4.5,3.7,4.9
	c2.1,0.3,4.2,0.8,6.2,1.4l1.5,0.6l1,0.4l2.4,1.1l2.7,1.6c-2.2,1.1-4.2,2.4-6.2,3.9l-7.3,5.8l-1.7,1.4l-0.7,0.6l-0.3,0.2l-3.7,2.6
	c-2.2,1.4-3.3,4.5-1.8,6.8c1.4,2.4,4.5,3.2,6.9,1.8c2.5-1.7,4.9-3.5,7.3-5.4l3.3-2.8l1.5-1.2l0.9-0.7l0.5-0.3l0.3-0.3l0.8-0.6
	l1.7-1.1l3.2-2l0.8-0.4h0.1c0.6-0.1,1.2-0.3,1.7-0.6l1.7-0.4l1-0.3h0.2c2.8,0,5-2.3,4.9-5.1c0-1.3-0.5-2.5-1.4-3.4
	c-2.3-2.4-4.8-4.5-7.6-6.4h1.1c6.5-0.7,13-1,19.6-1.1c13.1,0,26.3,0.8,39.3,2.6h0.3l1.4,0.2l2.5,0.4l5.5,0.8l10.9,1.9
	c2.6,0.5,5.6-0.7,6.2-3.5s-0.8-5.8-3.5-6.3c-26.4-5-53.5-7.9-80.4-5.4c-7.1,0.6-14.1,1.7-21.1,3.2c0.4-2.1-0.4-4.6-2.2-5.9l-6.9-4.7
	c9.8-4.8,20.3-8,31.1-9.4c4.4-0.6,6.4-5,3.5-8.6c-3.8-4.6-8.3-8.5-13.3-11.7c8.7-2.3,17.7-3.1,26.6-2.6c6.4,0.3,6.4-9.7,0-10
	c-6.3-0.3-12.5,0-18.7,0.9c0.6-1.3,0.9-2.9,0.4-4.4c-0.7-2.5-3-4.8-4.6-6.8c-1.6-2-2.9-3.5-4.3-5.2c-6-6.8-12.3-13.3-19-19.5
	c-13.8-12.9-28.5-25-43.5-36.5c-8.4-6.5-17.1-12.7-25.8-18.8c-2.2-1.5-5.7-0.4-6.9,1.8c-1.3,2.4-0.5,5.4,1.8,6.9
	c6.9,4.7,13.7,9.6,20.4,14.6l5.1,3.9l1.1,0.8l0.5,0.4l2.6,2c3.3,2.6,6.6,5.2,9.8,7.9c12.8,10.2,25,21.1,36.6,32.6
	c3.2,3.2,6.3,6.5,9.3,9.9l4.2,5l1.7,2.2c-0.1,1.9,0.6,3.7,2,4.9c-5,1.2-9.9,2.9-14.7,4.9c-4.3,1.9-2.4,7.9,1.2,9.2
	c5,1.8,9.7,4.5,13.8,7.9c-11.6,2.5-22.7,6.8-32.9,12.9c-3.5,2-3.1,6.5,0,8.6l4.2,2.9c-11.7,3.6-22.7,9.3-32.3,16.9
	c-2,1.5-1.9,5.5,0,7c1.9,1.5,6.2,5,9.2,7.6c-10.2,7.8-17.9,18.3-22.1,30.4c-1.1,3.1,1.8,6.3,4.8,6.3c1.2,0,2.4-0.2,3.5-0.7
	c1.2,1.2,1.7,2.9,1.4,4.6c-0.7,4-1.7,8.1-2.8,12c-1.9,7-3.9,14-5.8,20.9c-1.9,6.9-4,14.5-5.5,21.9c-0.7,3.6-1.3,7.1-1.8,10.7
	s-0.6,6.4-2.3,9.1c-3.9,6-8.2-5.9-9.3-8.5c-2.7-6.6-4.9-13.4-6.7-20.3c-3.5-13.2-6-28.3-13.8-39.7c-3.8-5.5-8.3-10.4-13.5-14.5
	c-4.5-3.5-10.3-5-15.3-7.7s-7.7-4.6-9.4-8.7c-1.7-4.1-1-6-1.1-9c-0.1-3-0.4-8.6-0.6-13c-0.6-16-1.1-32.1-3.3-48
	c-2.2-15.9-5-30.5-8.2-45.6c-6.3-29.9-13.7-59.7-16.2-90.3c-0.6-7.9-0.8-15.8-0.9-23.7c-0.1-5.5-1.1-10.9-1.1-16.4
	s0.8-10.6,4.6-14.4c3.8-3.8,10.2-5,15.4-3.7c3.1,0.8,5.9,2.6,8.8,4.2c2.9,1.6,6.9,4.1,10.3,6.3c6.3,3.9,12.5,8,19,11.6
	c12.5,7.1,24.4,15.1,35.9,23.7c22.3,16.5,42.9,35.3,62.2,55.3c4.6,4.8,8.9,10.2,14,14.5c5.1,4.3,11.7,7.3,17.8,10.5
	c2.2,1.2,5.2,2.3,6.6,4.6c1.4,2.3,0.9,3.6,0.6,5.5c-0.6,4.8-2.5,9.6-1.9,14.6c0.6,5,2.7,10.1,7.1,13c4.4,2.9,8.7,2.9,13.1,2.5
	c5-0.5,9.9-1.5,14.8-2.8c6.3-1.4,12.7-2.1,19.2-2.3c15.4-0.6,30.7,1.4,46,3.6c8,1.1,16.2,2.8,24.3,3.3s14.7-0.6,21.6-2.2
	c6.9-1.6,15.1-4.8,22.8-6.8s14.2-3.8,21.5-5.1c7.5-1.4,15-1.9,22.6-1.5c6.2,0.4,12.2,1.9,18.1,3.4c10.9,2.7,23,6.1,34.1,2.7
	c4.6-1.4,8.3-3.9,11.6-7c0.1,1.1,0.6,2.1,1.4,2.9c2,1.9,5,1.9,7,0l7.7-6.4l3.6-2.8l1.8-1.4l0.6-0.5l0.9-0.6
	c5.1-4,10.4-7.8,15.7-11.5c10.6-7.4,21.6-14.4,32.9-20.8c6.5-3.6,13-7.1,19.6-10.4c2.4-1.4,3.2-4.5,1.8-6.9
	c-1.4-2.3-4.4-3.1-6.8-1.8c-23.5,11.8-45.9,25.7-66.8,41.6c-4.1,3.1-8.1,6.2-12,9.4c2.6-3.8,5-7.8,7.5-11.4
	c5.6-8.1,12.1-15.7,18.2-23.6c6.1-7.9,11.5-13.3,17-20.1c5.1-6.7,11.1-12.8,17.7-18.1c7.9-6,16.2-11.4,24.3-17.2
	c4.8-3.5,9.1-7.6,14-10.9s11-7.9,16.7-11.6c11-7,22.7-12.8,34.9-17.5c8.6-3.4,21.7-6.4,28.3,2.6c1.5,2,1.9,4.5,2.5,6.9
	c1,4.1,1.7,8.2,2.1,12.4c0.4,7.4-0.1,14.9-1.5,22.2c-2.9,15.8-7.7,31.1-11.9,46.6s-8.1,30.4-12.3,45.6s-9.6,29.1-9.6,44.6
	c-0.1,7.6,1.5,15,1.4,22.5c-0.2,7.7-1.3,15.3-3.3,22.7c-3.8,15-9.1,29.7-14.7,44.2c-2.7,7.1-5.6,14.3-8.7,21.3s-5.8,13.4-10.1,19.2
	s-7.9,11-12.4,15.9c-1.3,1.6-2.9,2.9-4.7,3.9l-1,0.4c-0.1-0.2-0.1-0.4-0.2-0.6c-0.1-0.5-0.3-1-0.6-1.4c-6-16.8-12.9-33.2-20.6-49.3
	c-1.5-3.1-3.1-6.2-4.7-9.3l0.7-0.2l3-0.7h2.3c2-0.1,3.7-1.3,4.5-3.1c0.8-1.9,0.4-4-1-5.5c-13.4-12.9-27.8-24.6-41.3-37.5
	c0.1-0.1,0.1-0.1,0.1-0.2l0.3-0.4c0.2-0.2,0.5-0.7,0.7-0.8c0.3-0.4,0.6-0.7,1-1h0.2l1.2-0.8l2.3-1.2l0.6-0.3l1.1-0.4l5.3-1.7
	c4.1-1.1,5-7,1.2-9.1c-12.2-6.8-24.7-13.1-37.5-18.8l12.5-15.5c1.3-1.3,1.7-3.1,1.3-4.8c-0.4-1.7-1.8-3.1-3.5-3.5
	c-17.1-4.5-34.5-7.5-52.1-9c-2.6-0.2-5.1,2.5-5,5c0.1,2.7,2.3,4.9,5,5l13,1.4l1.1,0.2h0.9l3.3,0.5l6.2,1c5.9,1,11.7,2.2,17.5,3.6
	l-11.7,14.4c-1,1.1-1.6,2.7-1.4,4.2c0.2,1.5,1.1,2.9,2.4,3.6c11.4,5,22.5,10.3,33.5,16.1l-2.1,1.3c-2.3,1.4-4.2,3.4-5.7,5.6
	c-1.2,1.9-2.4,4.8-2.3,7.3c-5.5-2.8-11.4-4.7-17.5-5.5c1.2-2.5,2.5-5,3.8-7.5s0.4-5.6-2.1-6.9c-0.7-0.4-1.4-0.6-2.2-0.6
	c-25.4-1.6-51-0.1-76,4.7c-7,1.3-13.9,2.9-20.8,4.7c-2.6,0.7-4.2,3.5-3.5,6.1c0.8,2.6,3.5,4.2,6.2,3.5c6-1.6,12.1-3,18.2-4.2
	l9.4-1.7l4.3-0.6l2.3-0.4h1.5c12.4-1.6,24.8-2.5,37.3-2.5c4.4-0.1,8.8,0,13.2,0.2l-3.5,7.5c-0.8,1.6-0.8,3.5,0,5.1
	c0.9,1.5,2.6,2.4,4.4,2.4c2.1,0,4.3,0.1,6.4,0.3l1.3,0.2l1.7,0.3l3.3,0.8l3.3,1.1l1.2,0.5l1.2,0.5c2.1,1,4.1,2.2,6,3.4
	c2.4,1.4,5.4,0.6,6.8-1.8c0.2-0.4,0.4-0.8,0.5-1.2l1.3,1.2l7.1,6.4c4.7,4.3,9.4,8.4,14.2,12.6l8.7,7.9c-1.7,0.6-3.4,1.3-5,2.2
	c-2.5,1.2-3,4.5-1.8,6.8c4.4,8.3,8.5,16.7,12.3,25.3c1,2.1,2,4.3,2.9,6.5s0.9,2,1.3,3l0.6,1.4c0.1,0.1,0.1,0.1,0.1,0.2
	c0.1,0.4,0.3,0.7,0.5,1.1c1.8,4.3,3.5,8.6,5.2,13s3.7,10,5.5,15.1c0.6,1.6,1.9,2.9,3.5,3.5c2.6,1.7,5.8,2,8.7,0.9
	c5.7-1.9,9.9-6.8,13.4-11.5s9.4-11.5,13.1-17.8s7-14.3,10.1-21.5c6.4-15.4,12.2-31,17.3-46.9c4.7-14.8,9-30.7,7.5-46.3
	c-0.8-8.3-1.7-16.3-0.7-24.6c1-8.3,3.6-15.1,5.8-22.5c4.7-16,8.8-32.3,13.2-48.5s9.4-32.5,12.9-49.1c1.8-7.7,2.8-15.7,3-23.6
	C920.3,261,919.2,252.7,916.9,244.8z M763.9,463.3l-0.1,0.2C763.8,463.4,763.8,463.4,763.9,463.3z"/>
</svg>
