<?xml version="1.0" encoding="utf-8"?>
<!-- Generator: Adobe Illustrator 24.2.3, SVG Export Plug-In . SVG Version: 6.00 Build 0)  -->
<svg version="1.1" id="a91fc1ac-96f0-46ce-9778-dd08c757b7e7"
	 xmlns="http://www.w3.org/2000/svg" xmlns:xlink="http://www.w3.org/1999/xlink" x="0px" y="0px" viewBox="0 0 1152 864"
	 style="enable-background:new 0 0 1152 864;" xml:space="preserve">
<path d="M964.8,468.4c2.2-17.6,5.6-36.1,4.2-53.9c-2.7-32.4-27.9-56.4-54.5-72c-14-8.1-29.1-14.2-44.8-17.9
	c-12.1-2.8-28.8-2.6-38.1-12.1c-5.3-5.4-5.8-13.6-9.3-20.1s-9.4-11.6-15.5-15.8c-13.7-9.2-28.7-16.9-43.7-23.8
	c-30.6-14-62.9-23.8-96.1-29.1c-34.5-5.5-69-5.4-103.7-3.3c-35.8,2-71.4,6.6-106.5,13.9c-17.6,3.7-35,8.2-52.2,13.6
	c-15.9,5-32.7,10-46.9,18.9c-6.6,4.1-12.5,9.2-17.5,15.2c-5.3,6.3-9.8,13.2-15.2,19.4c-11,12.5-26,18.4-41.3,23.9l-53.9,19.6
	c-16.3,6-33,11.6-48.3,20.1c-13.3,7.5-25.5,17.6-33.8,30.6c-9.2,14.7-10.6,31.6-10.7,48.6s0.6,34.2,5,50.6
	c4.4,16.4,11.8,29.4,22,41.7s19.8,20,31.1,28.4c-4.2,10.5-6.7,21.7-7.5,33c-0.5,6.7-0.6,14.6,4.3,19.9c2.3,2.7,6.1,3.6,9.4,2.4
	c3.8-1.3,6.4-4.7,8.8-7.8c4.8-6,9-12.6,13.6-18.9c4.6-6.3,9.5-13.2,14.2-19.9c17.6-25.3,33.9-51.5,46.4-79.7c0.9-2,1.7-3.9,2.5-5.9
	c0,3,0.1,6,0.4,9c0.7,8.1,2.3,16.1,3.7,24.1s2.6,15.1,2.7,23.1c-0.2,8.1-0.8,16.2-2,24.3c-1.1,7.9-1.9,15.8-2.2,23.7
	c0.1,2.7,2.3,4.9,5,5c2.8,0,5-2.2,5-5c0.4-16.3,4.4-32.3,4.2-48.6c-0.2-16.3-5.1-31.6-6.4-46.9c-0.4-3.6-0.5-7.3-0.3-10.9
	c0-1.7,0.1-3.4,0.3-5.1c0.2-2.3,0.3-2.8,0.6-4.8c1.2-6.8,3-13.5,5.4-20c1.3-3.4,2.3-5.7,3.9-9.2c1.6-3.5,3.3-6.4,5.1-9.5
	c3.5-6.1,7.3-12,11.4-17.7c8.3-11.5,18-22.5,27.5-33.6c9.5-11.1,19.5-23,27.7-35.5c4.1-6.1,7.8-12.5,11-19.2
	c3.2-7,5.7-14.4,5.8-22.2c0.1-3.4-0.4-6.8-1.3-10.1c-0.7-2.6-1.8-5.1-3.2-7.4c-2.3-3.2-5.9-4.6-9.4-2.5c-2.1,1.4-4.1,3-5.8,4.9
	c-4.7,4.7-9.5,9.1-13.8,14c-5.2,5.9-10.1,12-14.7,18.4c-8.7,12.3-16.3,25.2-22.8,38.7c-13.8,28.3-23.8,58.2-34.7,87.7
	c-5.9,5.1-11.3,10.8-16.8,16.4c-5.5,5.6-11.4,11.8-17.3,17.7c-10.9,10.8-22.4,20.9-32.5,32.6c-9.5,11-17.6,23.1-24.1,36.1
	c-18.7-14-36.1-31.4-44.5-53.7c-4.8-12.8-6.8-26.4-7.4-40c-0.6-13.6-1.3-29.2,1.7-43c5.6-26,28.5-41.9,51.5-52
	c13.2-5.8,26.9-10.4,40.5-15.3l43.1-15.7c12.1-4.4,24.6-8.7,35.3-16.1c10.7-7.4,17.7-17.9,25.7-28c8.2-10.3,19-18.3,31.2-23.3
	c12.9-5.5,26.4-9.6,39.8-13.6c55.3-16.2,112.8-23.5,170.3-25.5c27.3-0.9,54.5,0,81.5,4.6c26.8,4.5,53,12,78.1,22.3
	c12.5,5.1,24.7,11,36.5,17.6c5.8,3.2,11.5,6.5,17.1,10s10,6.9,13.1,12c3.1,5.1,4.2,11.7,7,17.2l1,1.7c-3.8-3.1-7.8-5.9-12-8.4
	c-2.7-1.6-7-4.8-10.3-4.8s-6.2,2.6-7.6,5c-3.1,4.9-2.3,11.3-0.5,16.4c2.6,7.2,7.3,13.6,11.5,19.9s9,13.4,13.6,20
	c13.5,19.2,27.7,38,40.8,57.4c0,0.4,0,0.8,0.1,1.2c1.9,10.2,3.9,20.4,5.9,30.6s4,19.9,5.4,30c0,0,0,0.1,0,0.1c0,0.1,0.1,0.7,0.1,1
	l0.3,1.9l0.3,3.9c0.2,2.5,0.4,5,0.4,7.5c0.1,4.9-0.2,9.8-0.8,14.6c0,0.5-0.1,1.1-0.2,1.6v0.5c0,0.2-0.1,0.3-0.1,0.5
	c-0.2,1.2-0.3,2.4-0.5,3.7s-0.9,4.7-1.4,7c-0.9,4.8-2.1,9.6-3.3,14.4c-2.6,10.6-5.5,21.3-7.6,32.1c-0.5,2.5,0.7,5.5,3.5,6.1
	s5.6-0.7,6.1-3.5c3.8-19.4,10.2-38.2,13-57.8c1.4-10.1,1.7-20.4,0.6-30.6c-1.2-10.6-3.4-21-5.4-31.5c-0.7-3.5-1.4-7-2-10.5l1.4,2.4
	c17.5,29.9,29.7,62.3,34.8,96.6c2.2,14.6,2.4,29.9,8,43.7c4.8,11.9,15.3,25.9,29.8,23.7c7-1,11.8-6.8,12.4-13.7s-3.3-14.5-5.3-21.5
	c-4.8-17.2-0.3-35.2,3.6-52C959.4,504.4,962.6,486.5,964.8,468.4z M319.2,402.1c5.5-14.2,11.8-28,18.9-41.5
	c6.8-13.1,14.8-25.5,23.8-37.1c5-6.2,10.3-12.1,16-17.6l5.3-5.1l0.9-0.9c0,0.3,0.1,0.5,0.2,0.8c0.9,2.5,1.4,5.1,1.3,7.8
	c0,0.9,0,1.8-0.1,2.7c0,0.3,0,0.7-0.1,1v0.6c-0.3,1.9-0.8,3.8-1.3,5.7c-1,3.2-2.3,6.4-3.8,9.4c-13,26.7-33.9,47.4-52.7,70.2
	c-4.7,5.7-9.3,11.6-13.6,17.8C315.7,411.3,317.4,406.7,319.2,402.1z M197.5,600.1c0.3-7.3,1.5-14.5,3.5-21.5
	c3.7-13.3,9.8-25.1,17.7-36.8c3.8-5.6,8-11,12.4-16.1c4.8-5.5,9.9-10.8,15.1-15.9c5.2-5.1,11.7-11,17.3-16.6
	c5.6-5.6,11.6-11.9,17.4-17.7l0.6-0.7c-3.1,7.8-6.4,15.6-10.1,23.3c-6.7,13.7-14,27.1-22.1,40.1c-8.2,13.2-16.9,26-25.9,38.7
	c-4.6,6.4-9.4,12.8-13.9,19.4c-1.9,2.8-4.3,6.3-6.1,8.6l-3.2,3.9l-1.5,1.5l-0.2-0.3l-0.2-0.6c-0.1-0.1-0.1-0.3-0.2-0.3
	c-0.2-0.6-0.4-1.3-0.5-1.9c-0.1-0.4-0.1-0.7-0.1-1.1C197.4,604.1,197.4,602.1,197.5,600.1z M808.5,334.7
	c-2.1-3.2-12.6-16.9-9.5-22.3c32.1,17,50.4,50.5,62.4,83.6c3.4,9.4,6.5,18.9,9.5,28.4C851.2,393.8,828.2,365.3,808.5,334.7z
	 M945.8,598.2c-3.2,3.5-9.6,0.2-12.4-2.2s-7.2-8.5-9.2-13.5c-4.3-10.7-5.1-22.5-6.5-33.9c-0.7-5.7-1.6-11.4-2.6-17.1
	c7.7,13.8,16,27.2,25.1,40.2c0.3,0.4,0.6,0.7,1,1c0.7,3.4,1.6,6.7,2.8,10C945.4,586.6,949.2,594.4,945.8,598.2z M945.2,521.7
	c-2.4,10.3-4.8,20.9-5.4,31.5c-15.8-24.4-29.4-50.2-40.4-77.1c-13.3-32.6-21.1-67.2-34.9-99.6c-8-18.5-18.5-36.7-32.5-51.4
	c9,5,19.6,6,29.6,8c25.3,5,49.6,16.3,69.2,33.2c9.4,8.1,17.8,17.6,23.1,28.9s5.9,26.3,4.6,39.8C955.9,464.2,951.8,493.2,945.2,521.7
	z"/>
</svg>
