<?xml version="1.0" encoding="utf-8"?>
<!-- Generator: Adobe Illustrator 24.2.3, SVG Export Plug-In . SVG Version: 6.00 Build 0)  -->
<svg version="1.1" id="b5c7da99-6eca-4499-8568-0490b180532e"
	 xmlns="http://www.w3.org/2000/svg" xmlns:xlink="http://www.w3.org/1999/xlink" x="0px" y="0px" viewBox="0 0 1152 864"
	 style="enable-background:new 0 0 1152 864;" xml:space="preserve">
<path d="M1023.9,450.1c-13.1-70-69.8-118.8-122.4-161.3c-14.4-11.6-28.9-23.3-42.8-35.6c1.5-1.3,2.8-2.7,4-4.3
	c1.6-2.2,0.3-5.6-1.8-6.9c-11.7-7.2-23.8-13.8-36.2-19.8c4.5-2.9,9.3-5.3,14.3-7.1c3.9-1.3,5.2-6.9,1.2-9.1
	c-14.7-8.2-31.4-10.5-48-10.1c-16.6,0.4-33,4.7-49.2,7.8c-16.2,3.1-32.9,5.5-49.1,2c-13.1-2.8-35.9-13-28.7-30.3
	c1.4-3.2-1.9-6.3-4.8-6.4c-13.1-0.3-24.5,6.1-37.1,8.5c-6.6,1.3-13.1,0.7-19-2.8s-9.7-7.3-15.3-9.7c-12.5-5.5-27.8-3.2-38.8,4.4
	s-19.9,20.1-35.1,18.2c-15.2-1.9-26.2-9.5-40.7-9.1c-4.1,0.1-5.7,4.1-4.3,7.5c3,7-1.5,14.1-6.4,18.8c-4.9,4.7-13.4,8.3-21,10.2
	c-16.7,4-34.2,1.4-50.8-1.7c-31.4-6.1-67.8-15.9-97.3,2.2c-3.8,2.3-2.8,7.7,1.2,9.1c5.1,1.8,9.9,4.2,14.4,7.1
	c-12.4,6-24.5,12.6-36.3,19.8c-2.1,1.3-3.4,4.6-1.7,6.8c1.1,1.6,2.5,3.1,4,4.3c-50.9,44-110.3,82.4-144.4,142
	c-9.8,17.1-16.9,35.7-20.8,55c-0.7,2.7,0.9,5.4,3.6,6.1c0.8,0.2,1.7,0.2,2.5,0l6.3-1.4c2.2,24.9,4.3,49.7,6.5,74.6
	c2.2,24.9,5.2,52.2,13.7,77c0.8,2.7,3.5,4.2,6.2,3.4c0.8-0.2,1.5-0.7,2.1-1.2c17.2-14.7,41.1-18.6,58.6-33
	c10.1-8.3,15.2-20.5,20.5-32.1c6.2-13.6,12.5-27.7,16.6-42.1c2.3-8.2,4.1-16.6,5.4-25c1.5,0.2,3-0.3,4.1-1.4
	c0.7-0.8,1.4-1.5,2.2-2.2l0.5-0.3c-0.5,12.4,1.1,24.8,4.5,36.8c0.9,2.8,4.7,4.9,7.4,3c1.5-1.1,3.1-2.2,4.7-3.1l2.4-1.3l1.1-0.5
	l0.6-0.3l0.5-0.2h0.2l0.6-0.2h0.3c0,2.9-0.2,5.9-0.1,8.9c0.1,3.6,0.4,7.2,0.9,10.7c2.1,13.3,7.4,25.9,15.5,36.7
	c4.9,6.4,10.6,12,17.1,16.8c2.1,1.5,5.7,0.4,6.9-1.8c1.2-2.4,0.4-5.4-1.8-6.9l-1-0.6l-0.3-0.3l-2-1.6l-3.8-3.5
	c-2.4-2.3-4.7-4.8-6.7-7.5c0-0.1-0.1-0.2-0.2-0.3l-0.7-0.9l-1.5-2.2c-1-1.4-1.9-2.9-2.7-4.4c-0.9-1.4-1.7-2.9-2.4-4.4
	c-0.4-0.7-0.7-1.5-1.1-2.2c-0.4-0.7-0.3-0.7-0.4-1.1c-0.1-0.1-0.2-0.3-0.2-0.4c-1.3-3.1-2.4-6.3-3.3-9.6c-0.4-1.7-0.8-3.4-1.1-5.1
	c-0.2-0.7-0.3-1.5-0.4-2.2c-0.1-0.5-0.2-0.9-0.2-1.4c-0.1-0.1-0.1-0.2-0.1-0.3c-0.4-3.4-0.6-6.8-0.5-10.2c0.1-3.3,0.5-6.6-0.5-9.8
	c-1.3-4.9-6.2-7.8-11.1-6.5c-0.5,0.1-1,0.3-1.5,0.5c-2.3,0.9-4.5,1.9-6.6,3.1l-0.9-4c-0.3-1.7-0.6-3.4-0.8-5.1v-0.2
	c0-0.1-0.1-0.2-0.1-0.3s-0.1-0.9-0.1-1.4l-0.3-2.6c-0.6-7.1-0.5-14.2,0.2-21.3c0.3-2.5-2.5-5.3-5-5c-2.3,0.3-4.6,0.9-6.8,1.7
	c0-6.5-0.2-13.1-0.2-19.6c0-4.7,0.1-9.3,0.4-14l0.9-7.5c3.4-26.9,9.3-52.8,24.7-75.6c16.7-24.7,39.2-47.2,69.5-53.1
	c6.3-1.2,3.6-10.8-2.7-9.6c-26.8,5.2-48.8,22.9-65.4,44c-8.2,10.3-15.9,21.4-21.3,33.5c-5.3,12.3-9.2,25.2-11.4,38.4
	c-0.7,4-1.4,7.9-2,11.8c0,0.2,0,0.3-0.1,0.5c-1,5.3-1.6,10.6-2,16c-2.1,18.3-3.6,36.8-7,55c-2.6,14.1-7.1,27.2-12.6,40.5
	c-3.1,7.7-6.4,15.3-10,22.7c-2.8,5.8-5.4,12.2-9.5,17.2c-7.8,9.8-20.4,15.2-31.5,20.4c-9.3,4.3-18.8,8.4-27.3,14.3
	c-6.7-22.5-9.2-46-11.3-69.3c-2.2-26.3-4.5-52.6-6.9-78.8c-0.3-3.4-2.9-5.6-6.3-4.9l-4.1,0.9c16.7-65.7,70.9-110.9,121.6-152.1
	c14.9-12.1,29.8-24.2,44.2-36.9c3-2.6,1.1-7.2-2.2-8.3l-1.1-0.5c12.1-7.1,24.6-13.6,37.4-19.5c2.8-1.3,3.4-5.9,1-7.9
	c-4.4-3.7-9.2-6.9-14.3-9.6c23.6-9.1,51.4-2.4,75.3,2.4c26,5.2,58.7,10.7,81.9-6.3c8.9-6.5,15.3-16.2,14.5-26.7
	c10.1,1.3,19.4,6,29.4,8c6,1.2,12.3,1.4,18.2-0.4s11.9-6.1,17.1-10.5c5.2-4.4,11-9.8,18-12.2c6.6-2.3,13.8-2.4,20.4-0.2
	c6,2.2,10.6,7,16,10.1c5.5,3.1,11.8,4.7,18.2,4.5c12.5-0.5,23.8-7,36-8.8c-0.8,10.1,5.6,19.8,13.6,26c10.4,8.2,25.5,11.2,38.4,11.8
	c12.9,0.6,27.1-1.5,40.4-4s27.8-6.5,41.8-7.1c14-0.6,25.4,0.1,37.2,4.2c-4.9,2.6-9.6,5.7-13.9,9.3c-2.3,2-1.8,6.6,1,7.9
	c12.8,5.9,25.3,12.4,37.4,19.6l-1,0.4c-3.4,1.2-5.2,5.7-2.2,8.4c50.5,45.6,111.9,82.7,147,142.9c8.5,14.4,14.9,29.9,18.9,46.1
	l-4.3-0.9c-3.4-0.8-5.9,1.5-6.3,4.8c-1.9,16.7-17.9,27.9-21.3,44.3c-1,4.9-0.2,9.8,0.1,14.7c0.3,2.2,0.4,4.5,0.1,6.7
	c0,0.2-0.1,0.3-0.1,0.5h-0.2c-4.9-1.9-11.2-5.3-14.5,0.8s-0.8,11.6-1.7,17.1c-1.5,8.7-8.7,17.1-14.2,23.7s-13.8,15.8-21,23.4
	s-15.9,16.8-23.7,25.5c-5.3,5.9-10.5,12.2-14.5,19.2c-4.9-9.7-2-22.4,1.4-32.4c4.8-14.6,11.6-28.2,18.1-42.1s11.6-25.4,15.4-38.8
	c3.4-11.7,3.9-24.5-6.1-33.2s-22.4-14.6-29.8-25.3c-7.4-10.7-15-23.9-19.7-37.8c-4.4-13.6-7.4-27.7-8.9-41.9c-0.9-7-1.5-14-2-21
	s-0.2-13.8-2.8-20.3c-5.5-14.3-14.8-24.6-28.1-32.1c-14-8-29.1-13.9-44.8-17.3c-6.2-1.3-8.9,8.3-2.6,9.7c13.8,3,27.2,7.9,39.6,14.7
	c6.2,3.3,12,6.8,16.8,12s7.1,10,9.5,15.8s2.2,13.8,2.7,20.6c0.5,6.8,1.1,14,2,21c1.6,13.8,4.6,27.5,8.8,40.8l1.2,3.7
	c-1.6,11.8,3.2,23,8.6,33.4c2.8,5.5,5.8,10.8,8.4,16.4c0.6,1.2,1.2,2.4,1.7,3.7h0.1c0.1,0.4,0.2,0.8,0.4,1.1
	c0.3,0.7,0.6,1.5,0.8,2.3c1,2.7,1.7,5.4,2.2,8.2v0.1c0.1,0.1,0.1,0.3,0.1,0.5c0,0,0,0,0,0c0,0,0,0,0,0c0,0,0,0.1,0,0.1
	c0,0,0-0.1,0-0.1c-2-0.6-4.1-0.7-6.1-0.4c-2.4,0.6-4.5,2.1-5.8,4.3c-1.7,3.2-2.6,6.7-2.6,10.3c0.1,1.8,0.3,3.6,0.6,5.4
	c0.2,0.9,0.3,1.9,0.5,2.9c0.1,0.5,0.2,0.9,0.2,1.4c0,0.1,0.2,1.1,0.2,1.3c0.5,3.6,0.7,7.2,1,10.7s0.5,6.8,0.5,10.3
	c0,1.5-0.2,2.9-0.3,4.4v0.2c-0.1,0.4-0.1,0.8-0.2,1.2s-0.4,1.9-0.7,2.9s-0.5,1.6-0.8,2.5l-0.3,0.9c-0.2,0.2-0.3,0.5-0.4,0.8
	c-0.4,0.8-0.9,1.6-1.3,2.5c0,0.1,0,0.1-0.1,0.2l-1.1,0.3l-1.8,0.5l-3.7,0.9c-2.6,0.7-5.1,1.7-7.5,2.9c-2.5,1.3-4.5,3.3-5.9,5.7
	c-1.7,3.3-1.7,7-0.9,10.6c0.7,2.6,3.5,4.2,6.1,3.5c2.6-0.8,4.2-3.5,3.5-6.2c0-0.1-0.1-0.7-0.1-0.9c-0.1-0.3-0.1-0.6,0-0.9
	c-0.1,0.1-0.1-0.1,0-0.5c0-0.1,0.1-0.2,0.1-0.3c0,0,0-0.1,0-0.1v-0.2c0.1-0.3,0.2-0.4,0.2-0.3v-0.2h0.1l0.8-0.7l0.4-0.3l1.5-0.8h0.1
	l-0.3,0.2l0.7-0.3l1.2-0.5l3.4-0.9l6.1-1.7c2.3-0.7,4.2-2.2,5.5-4.2c1.1-1.9,2-3.8,2.8-5.8c1.3-3.5,2.2-7.2,2.5-11
	c0.7-6.7-0.2-13.4-0.7-20c-0.3-4.2-0.8-8.4-1.6-12.5l-0.3-1.5c0-0.8-0.1-1.5-0.1-2.3c0-0.6,0.1-1.1,0.2-1.7v-0.4
	c0.1-0.5,0.3-1,0.4-1.4l0.3-1h0.1l2,0.4c2.3,0.6,4.7,0.3,6.8-0.9c2.1-1.2,3.7-3.2,4.4-5.5c0.9-3.2-0.1-7-0.9-10.1
	c-0.7-2.8-1.6-5.5-2.7-8.1c-1.1-2.7-2.3-5.2-3.5-7.8c1.5,1.8,3.2,3.5,5,5c4.7,4.1,9.9,7.6,14.9,11.4s10.4,7.3,11.6,13.7
	s-0.9,11.8-2.6,17.3c-4.3,13.7-10.3,26.8-16.5,39.8s-14.8,29.6-18.3,45.3s-4,30.3,7.7,41.2c2.9,2.7,7,1.3,8.4-2.2
	c3.6-9.4,10.6-17.3,17.3-24.7s14.4-15.4,21.6-23.1s14.7-15.8,21.6-24.1s11.8-14.9,15.3-23.8c1.2-2.9,1.8-6,1.9-9.2
	c0.1-1.6,0.1-3.3,0.1-5s0.1-1.1,0.2-1.9l2.2,0.7c2.7,0.7,5.8,0.9,8.4-0.4c9.4-4.7,4.3-18.7,4.8-26.7s6.6-15.7,10.8-22.3
	s8-13,9.9-20.3l6.8,1.5c2.7,0.8,5.5-0.8,6.3-3.5C1024.2,452.1,1024.2,451.1,1023.9,450.1z M879.6,496c0-0.1,0.1-0.1,0.2-0.1
	L879.6,496z"/>
</svg>
