<?xml version="1.0" encoding="utf-8"?>
<!-- Generator: Adobe Illustrator 24.2.3, SVG Export Plug-In . SVG Version: 6.00 Build 0)  -->
<svg version="1.1" id="bb8835fa-b2a1-4f30-a992-2188a7893bf1"
	 xmlns="http://www.w3.org/2000/svg" xmlns:xlink="http://www.w3.org/1999/xlink" x="0px" y="0px" viewBox="0 0 1152 864"
	 style="enable-background:new 0 0 1152 864;" xml:space="preserve">
<path d="M899.2,632.9l-20-31c-1.6-2.5-3.3-4.9-4.8-7.5s-1.5-4.6-1.4-7.7c0.2-3.5-1.1-6.9-3.4-9.5c-4.3-5.2-10.7-8.3-16.1-12.2
	c-1.2-0.8-2.3-1.7-3.3-2.6l-1.4-1.5c0.3,0.3-0.4-0.9-0.4-0.7c-0.5-1.6-0.1-3.5,0.2-5.1s1.2-5.9,1.2-9c0.3-9.3-5.5-16-12.2-21.4
	c4.3-4.6,8.2-9.7,11.4-15.1c5.1-7.8,9.1-16.3,12-25.2c1.3-3.6,2-7.3,2.1-11.1c0.1-1.6-0.1-3.2-0.6-4.7c-0.6-1.8-1.8-3.1-2.5-4.8
	c-1.4-3.4,0.1-7.1,1.6-10.2c1.5-3.1,4.5-8.2,6-12.7c1.6-4.4,1.7-9.2,0.3-13.6c-1.1-3.2-1.1-6.1-1.4-9.7c-0.5-8.7-0.3-17.3-0.1-25.9
	c0.7-22.6,0-44.8-3.9-67c-1.6-8.8-3.5-17.2-7.1-25.4s-7.8-14.8-11.9-22.2c-5.8-10.2-10.9-20.8-15.4-31.7c-5.2-12.7-7.7-26-11.6-39.2
	c-1.6-5.5-3.5-11.2-7.3-15.6c-3.9-4.2-8.9-7.3-14.4-8.8c-13-3.6-24.9,2.6-33.5,12.2s-14.2,22.3-19.7,34.2
	c-6.3,13.7-12.2,27.6-17.8,41.6s-10.2,27-15.5,40.5c-4.7,11.9-10.1,23.9-18.1,33.9c-14,17.5-35.7,27.5-47.8,46.6
	c-2,3.1-3.6,6.5-4.9,10c-9.6-1.8-19.5-1.5-29.3-2.3s-21.8,0.3-32,4.8c-4.5,2-8.7,4.8-13.4,6s-9.6-1.4-14.2-3.3
	c-9.7-3.8-19.9-6.1-30.3-7.1c-10.2-1-20.5-0.4-30.5,1.8c-5.5-15.2-18.4-25.9-30.7-35.9c-6.9-5.7-13.9-11.3-19.8-18.1
	c-5.9-6.8-12.2-17.5-16.5-27.2s-8-20.5-11.8-30.8s-8.8-22.5-13.5-33.7c-4.7-11.2-9.6-22.2-14.8-33.2c-4.4-9.5-9.1-19-16-27
	c-6.9-8-16.1-14.7-26.7-14.1c-10.6,0.6-19.5,7.8-25.9,15.8c-6.4,8-11.8,18.2-16.2,28.2s-9.2,21.6-13.6,32.5
	c-16.5,41.5-29.6,89.2-12.2,132.6c2,4.9,4.3,9.7,6.9,14.3c1.3,2.3,2.9,4.6,3.3,7.2c0.4,2.6-0.7,5.7-1.7,8.2
	c-4.3,10.6-7.2,20.9-6.4,32.5c0.4,5.7,1.5,11.2,3.4,16.6c1.7,5.1,4.1,10.3,4.3,15.8c0.3,9.8-4.5,19.1-5.5,28.8
	c-0.3,3.4,0,6.8,0.9,10.1c-6.6,4.9-12.8,10.8-14.1,19.3c-0.8,6,2,11.7,1.3,17.5c-0.5,4.3-3.4,8.1-5.6,11.7s-4.3,8.4-4.6,13.2
	c-0.1,2.5,0.6,5.1-0.3,7.5c-0.9,2.4-3.2,5.3-4.8,7.7l-21.1,32.7c-3.5,5.5,5.1,10.5,8.6,5.1l20.1-31.1c3-4.6,6.9-9.4,7.5-15.1
	c0.3-2.4-0.3-4.9,0-7.3c0.4-2.1,1.2-4.1,2.3-6c2.2-3.9,4.8-7.6,6.4-11.8c1.6-4.2,1.6-10,0.7-15.2c-0.9-5.2-1.2-8.9,1.9-13.2
	c3.1-4.3,6.5-6.3,10.1-8.8c3.6-2.5,2.9-4.2,1.7-6.9c-3.6-8.1,1.1-18.1,3-26.2c1.2-4.6,1.7-9.4,1.3-14.2c-0.6-5.5-2.5-10.5-4.3-15.7
	c-3.6-10-4.3-20.8-1.9-31.1c1.2-5.2,3.6-9.9,5.4-14.9c2-5.3,1.8-11.1-0.5-16.3c-2.1-4.7-5-9-7.2-13.6c-2.2-4.7-3.9-9.7-5.2-14.7
	c-2.7-9.9-4.1-20.2-4.1-30.5c-0.1-22.1,5.1-43.7,12.2-64.4c3.6-10.7,7.8-21.1,12.1-31.5c4.3-10.4,8.1-20,12.9-29.6
	c4.8-9.6,10-18.2,18-24.4c3.5-2.7,7.9-4.9,12.4-4.8c4.5,0.1,9,2.7,12.5,5.6c7.5,6.3,12.5,14.9,16.8,23.6s9.6,20.5,14,30.8
	c9,20.7,16.6,41.8,24.8,62.8c7.3,18.6,16.5,35.8,31.6,49.2c12.3,11,27.6,20.2,36,34.6c2,3.3,3.4,6.9,4.3,10.7
	c0.8,2.6,3.5,4.2,6.2,3.5c19.3-5.4,40.6-3.5,59.2,3.8c4.6,1.8,8.9,4.2,13.9,4.4s9.9-1.7,14.4-3.8s9-4.6,14-6
	c4.9-1.3,10-1.9,15.1-1.7c6.1,0.1,12.2,0.7,18.3,0.9c6.4,0,12.8,0.8,19,2.4c2.7,0.7,5.4-0.8,6.2-3.5c5-20.5,25.6-32.1,40.3-45.3
	c8.9-7.9,16.3-17.3,21.9-27.7c6.1-11.2,10.5-23.2,14.9-35.2c9.8-26.7,20.6-53.3,33.2-78.9c5.1-10.5,11.4-22,22-27.9
	c9-5,21.8-1.3,26.1,8.2s6.3,23.5,9.8,34.8s9.3,24.2,15.1,35.5c7.5,14.5,17.4,28.1,21.4,44.1c4.7,18.9,6.1,38.7,6.2,58
	c0,10.3-0.6,20.6-0.5,30.8c0,8-0.4,16.8,1.7,24.5c1,3.7,1.3,6-0.1,9.7s-3.8,7.5-5.5,11.4c-1.7,3.9-3.2,8.3-2.7,12.9
	c0.3,2.3,1,4.6,2.1,6.6c0.3,0.5,0.7,1,1,1.6c0.1,0.3,0.2,0.7,0.3,1c0,0.1,0.1,0.9,0.1,1.2c0,0.7,0,1.3-0.1,2c0-0.5-0.2,1-0.3,1.4
	c-0.1,0.4-0.4,2.1-0.7,3.1c-1.1,3.8-2.5,7.5-4.2,11.1c-3.6,8.1-8.3,15.7-13.8,22.7c-2,2.6-4.2,5-6.8,7c-3.2,2.3-3.3,6.4,0,8.7
	c3.7,2.3,7,5.2,9.8,8.5c2.9,3.8,3.2,7.7,2.3,12.3s-1.9,9.1-0.3,13.4c1.3,3,3.3,5.5,5.9,7.5c5.1,4.1,11.2,7,16,11.5
	c0.7,0.7,1.4,1.4,1.9,2.3l0.3,0.3c-0.1-0.1-0.1,0-0.1,0.1c-0.2-0.7,0,0.8,0,0.9c0,0.1-0.1,1.6-0.1,2.3c-0.2,6,2.4,10.4,5.5,15.2
	l22.2,34.4C894.1,643.4,902.7,638.4,899.2,632.9z"/>
<path d="M384.9,363.3c-0.6-3.2-1.1-6.5-1.6-9.7c0-0.3,0-0.6-0.1-0.9v-0.6c-0.2-0.8-0.3-1.7-0.4-2.5c-0.2-1.7-0.3-3.4-0.5-5.1
	c-1.2-13.3-1.1-26.7,0.2-40c0.2-1.8,0.4-3.7,0.7-5.5v-0.6c0,0.1,0.2-1.2,0.2-1.4c0.2-0.9,0.3-1.8,0.4-2.7c0.6-3.7,1.3-7.4,2.1-11.1
	c0.5-2.5-0.8-5.5-3.5-6.1c-2.7-0.6-5.6,0.7-6.1,3.5c-5.8,27.2-6.3,55.2-1.5,82.6c0.8,4.6,1.8,9.1,2.9,13.6c-3.2,0.7-5.8,2.8-7.3,5.7
	c-2.2,4.8-1.5,9.8,0.1,14.6c0.8,2.7,1.7,5.4,2.6,8.1c-3.7,1.3-6.9,3.9-9.1,7.2c-2.2,3.5-3,7.6-2.3,11.6c-1.2,0.4-2.3,1-3.3,1.8
	c-3.4,2.5-6,6-7.3,10c-1.1,3.5-1.2,7.1-1.5,10.8l-2.5-0.2c-7.4,0.8-11,7.5-13,13.9c-1,3-1.7,6.1-2.8,9.1c-0.2,0.7-0.5,1.3-0.7,2
	l-0.3,0.5c-0.2,0.4-0.3,0.9-0.5,1.3c-0.2,0.4-1.6,3.1-2.5,4.6c-0.9,1.6-1.9,3.1-3,4.6l-0.8,1.2l-0.4,0.5l-1.8,2.2
	c-2.6,2.9-5.4,5.5-8.4,7.9c-2.1,1.6-1.9,5.4,0,7c1.9,1.6,4.8,1.7,7,0c10.9-8.5,18.8-20.3,22.5-33.7c0.4-1.3,0.7-2.6,1.1-3.9l0.6-1.9
	c0.1-0.3,0.2-0.6,0.4-0.9c0-0.1,0.1-0.3,0.1-0.4l0.8-1.6c0.4-0.5,0.7-1,1-1.5c0.2-0.2,0.3-0.4,0.5-0.5l0.3-0.2h0.3
	c0-0.1,0-0.1-0.1-0.1h0.1h0.1h1c2.4,0.4,4.9,0.4,7-1.1c3.7-2.5,3.9-6.8,4.1-10.9c0-0.4,0.1-0.8,0.1-1.2v-0.8c0.1-1,0.3-1.9,0.6-2.9
	c0.1-0.4,0.3-0.8,0.4-1.1c0.1-0.2,0.1-0.5,0.2-0.7h0.1c0.3-0.8,0.7-1.5,1.2-2.2l0.4-0.3c0.2-0.3,0.4-0.5,0.7-0.7l-0.1,0l0.1-0.1
	c0,0,0.1-0.1,0.1-0.1l0.4-0.2l1.3-0.8h0.2c0.3-0.1,1.1-0.5,1.4-0.3h0.6c1.9,0.5,4-0.2,5.2-1.8c1.3-1.6,1.5-3.8,0.4-5.5l-0.8-1.3
	l-0.2-0.3v-0.3c-0.2-0.5-0.3-1.1-0.5-1.6v-2c0.1-0.2,0.1-0.5,0.2-0.7c0.1-0.2,0.1-0.5,0.2-0.7c0-0.1,0-0.2,0.1-0.3
	c0-0.1,0.1-0.2,0.1-0.3l0.5-0.8l0.2-0.3h0.1V417v-0.1l0.8-0.7l0.1-0.1c0.1-0.1,0.1-0.1,0.1-0.1l0.4-0.2c0.3-0.3,0.7-0.5,1.1-0.7
	c0.1,0,0.1,0,0.1-0.1c0-0.1,0.3-0.1,0.1,0h0.4l1.5-0.4h2.2c3.1,0.4,5.7-3.4,4.8-6.3l-3.5-10.9l-1.6-5.2l-0.3-1.3
	c0-0.2,0-0.3-0.1-0.5v-0.9c-0.1-0.4-0.1-0.8,0-1.2v-0.1c-0.1-0.2,0-0.3,0-0.4v-0.1l0.3-0.7c-0.2,0.8,0,0.2,0.1-0.1l0.2-0.2h0.5
	c0-0.1,0.1-0.1,0.2-0.1h0.2c-0.1,0-0.1,0-0.1,0.1c1.1,2,3.5,3.1,5.7,2.5c2.6-0.7,4.2-3.5,3.5-6.1
	C387.8,376.4,386.2,369.9,384.9,363.3z M373.9,416C374.1,415.8,374.1,415.9,373.9,416L373.9,416z M379.7,386.6
	c0-0.1,0.1-0.1,0.1-0.2C379.8,386.5,379.8,386.5,379.7,386.6z M380.8,386.6C381.2,386.9,381,386.8,380.8,386.6L380.8,386.6z"/>
<path d="M808.5,540.7c-4.3-5.4-11.2-6.1-17.2-8.1l-0.9-0.3l-0.4-0.2c-0.6-0.3-1.1-0.6-1.6-0.9c-0.2-0.1-0.4-0.4-0.7-0.5h-0.1
	l-0.6-0.6l-0.3-0.4l-0.6-1.1c0-0.1,0-0.3-0.1-0.4l-0.3-1.1c0-0.2,0-0.4-0.1-0.6c-0.1-1.7-0.1-3.5,0-5.2c0.4-3.6,0.3-7.2-0.3-10.8
	c-0.6-3.5-2.2-6.7-4.6-9.3c-1.4-1.4-3.1-2.4-4.9-3c-2.1-0.5-4.3-0.7-6.5-0.4h-1.2l-0.3-0.2h-0.1c0-0.1,0-0.1-0.1-0.2h-0.1
	c-0.3-0.3-0.2-0.3,0-0.1l-0.3-0.4c-0.2-0.3-0.4-0.7-0.5-1c-0.1,0-0.1-0.1-0.1-0.2c-1.5-4.1-2.2-8.5-3.1-12.8l-3.3-14.9
	c-0.6-2.4-3.8-4.4-6.2-3.5l-10.1,4.1l-0.3-1.3v-0.4c-0.1-0.4-0.1-0.8-0.1-1.2c-0.2-3.1,0-6.3,0.4-9.4l0.3-2.4v-0.1
	c0-0.2,0-0.3,0.1-0.4c0-0.3,0-0.6,0.1-0.9c0.2-2,0.5-3.9,0.7-5.8c0.5-3.1,0.6-6.3,0.3-9.5c-0.3-4.1-1.4-8.1-3.2-11.7
	c-1.9-3.5-7-3-8.8,0.2h-0.2c-0.1-0.2-0.2-0.5-0.4-0.7c0-0.1,0-0.1-0.1-0.2c0-0.1-0.1-0.2-0.1-0.3c-0.2-0.9-0.4-1.8-0.6-2.7
	c0-0.1,0-0.3-0.1-0.4c0-0.5,0-1-0.1-1.5l-0.3-3.6c-0.6-9-0.8-18-0.4-27c0.2-4.5,0.5-9,0.9-13.5c0.2-2.2,0.5-4.5,0.8-6.8
	c0-0.3,0.1-0.6,0.1-0.9v-0.2c0-0.1,0.1-0.4,0.1-0.5c0-0.1,0.1-0.5,0.1-0.7s0.3-2.4,0.5-3.6c1.4-8.9,3.3-17.7,5.7-26.4
	c2.7-9.9,6.1-19.5,10-29c1.1-2.4-1-5.6-3.4-6.1s-5.1,0.9-6.2,3.5c-15.3,36.5-21.4,76.1-17.8,115.5c0.5,5.2,1.7,11.7,7,14.1
	c2,0.9,4.1,1.3,6.3,1c0,0.2,0.1,0.3,0.1,0.5c0,0.1,0,0.2,0.1,0.3c0,0.3,0,0.7,0.1,1c0.2,3.1,0,6.2-0.4,9.3l-0.3,2.4
	c0,0.4-0.1,0.7-0.1,1s0,0.3-0.1,0.4c-0.2,2-0.5,3.9-0.7,5.8c-0.4,3.2-0.6,6.4-0.4,9.6c0.2,4.1,1.3,8.1,3.1,11.8
	c0.9,1.7,3.7,3,5.6,2.3l9.5-3.8l1.8,7.9c0.9,4.1,1.6,8.2,2.7,12.2s2.8,7.2,5.8,9.6c1.9,1.4,4.3,2.2,6.7,2.2c1,0,1.9,0,2.9-0.1
	c0.2,0,0.5-0.1,0.7,0h0.8c0,0.1,0,0.1,0.1,0.1l0.6,0.5l0.2,0.3c-0.2-0.3-0.4-0.7-0.1-0.2c0.1,0.1,0.1,0.1,0.1,0.2l0.9,1.6
	c0.2,0.4,0.3,0.9,0.4,1.3c0.2,0.6,0.3,1.3,0.5,1.9v0.3c0,0.4,0,0.9,0.1,1.3c0,1.7-0.2,3.4-0.3,5.2c-0.2,3.7-0.3,7.8,1.1,11.4
	c1.4,3.8,4.1,7,7.7,8.9c3.3,1.4,6.8,2.6,10.3,3.4l2.3,0.7l1.1,0.5h0.3l1,0.6l0.9,0.6h0.2l0.9,1c1.8,2.1,4.9,2.4,7,0.6s2.4-4.9,0.6-7
	C808.9,541.1,808.7,540.9,808.5,540.7z M733,426.3C732.9,426.6,732.8,426.7,733,426.3L733,426.3z"/>
</svg>
