<?xml version="1.0" encoding="utf-8"?>
<!-- Generator: Adobe Illustrator 24.2.3, SVG Export Plug-In . SVG Version: 6.00 Build 0)  -->
<svg version="1.1" id="bd3cda79-43e8-45b8-b8b8-bfbe25f1d642"
	 xmlns="http://www.w3.org/2000/svg" xmlns:xlink="http://www.w3.org/1999/xlink" x="0px" y="0px" viewBox="0 0 1152 864"
	 style="enable-background:new 0 0 1152 864;" xml:space="preserve">
<path d="M966.9,440.6l3.2-2.1c1.2,0.3,2.4,0.3,3.6,0c5-1.3,6-7,7-11.3c1.8-8.4,2-17,0.5-25.5c-0.6-3.9-1.7-7.8-3.1-11.5l-1.8-4.2
	c1.6-1,2.8-2.6,3.3-4.4c0.8-2.8-0.5-5.2-2.3-7.3s-6-6.6-9-9.9c-6.1-6.6-12.4-13-18.8-19.2s-12.1-11.9-19.7-15.7
	c-7.6-3.8-16.2-5.1-23.8-0.6c-3.4,1.9-6,5.1-9.4,7c-1,0.4-2,0.6-3,0.7c-1.5,0.1-3-0.1-4.5-0.5c-3.6-1-7.2-2.2-10.6-3.7
	c-3.3-1.3-6.5-2.5-9.8-3.6c-6.1-2.1-12.1-4.5-17.9-7.3c-12.8-6-25.3-12.7-37.4-20.1c-11.6-7-23.6-13.4-35.6-19.9
	c-6-3.1-11.8-6.5-17.3-10.3c-5.1-3.6-10.1-7.5-15.9-9.7c-8-2.9-16.6-2.2-24.8-0.7l-11.6,2.2c-3.8,0.6-7.7,1-11.6,1
	c-14.5,0.5-30.7,2-41.4,13s-11.9,27.6-11.9,42.3c0.1,6.3,0.1,12.6-0.4,18.9c-0.2,1.5-0.3,3-0.5,4.5v0.2c0,0.4-0.1,0.9-0.2,1.3
	c-0.1,0.9-0.3,1.8-0.4,2.7c-0.6,3.1-1.4,6.1-2.5,9.1l-0.3,0.9l-0.3,0.8l-0.3,0.7c-0.1,0.3-0.3,0.5-0.4,0.8s-1.3,2.4-2,3.6
	s-1,1.3-0.9,1.3l-1,1.1c-0.4,0.5-1,1.1-1.5,1.5c-0.2,0.1-0.3,0.3-0.4,0.4c-0.1,0.1-0.5,0.3-0.6,0.4l-0.3-0.2
	c-0.8-0.4-1.5-0.9-2.2-1.4l-1.2-0.9l-0.5-0.4c-1.7-1.3-3.3-2.7-5-3.9c-3.1-2.4-6.6-4.4-10.3-5.8c-6.9-2.8-14.6-3.5-22-3.6
	c-7.4-0.1-16.3,0-24.4,0.1l-26.6,0.2c-0.6-0.3-1.3-0.5-2-0.4c-6.3,0.7-12.7,1.4-19,2.5c-0.4-1.2-1.2-2.3-2.3-3.1L515,350l-0.4-0.4
	l-1.7-1.5l-1.3-1.5c-0.1-0.1-0.2-0.1-0.2-0.2c-0.3-0.3-0.6-0.7-0.8-1.1c-0.8-1.3-1.6-2.6-2.3-3.9c-0.1-0.2-0.5-1.2-0.6-1.3
	c-0.1-0.1-0.5-1.5-0.8-2.2c-1-3-1.7-6.1-2.2-9.2c-0.1-0.3-0.1-0.7-0.1-1c0-0.2,0-0.3-0.1-0.5c-0.1-0.8-0.2-1.6-0.2-2.4
	c-0.2-1.6-0.3-3.3-0.3-4.9c-0.6-13.4,1.1-27.4-3.6-40.4c-2.5-6.9-6.9-12.9-12.7-17.3c-5.4-4-12.1-6.3-18.8-7.5
	c-7-1.1-14.1-1.8-21.2-1.8c-8.1-0.3-16.3-0.2-24.4,0.4c-8.3,0.5-16.4,2.1-24.2,5c-8,3.1-15.4,7.6-22.9,11.7
	c-15.2,8.5-30.3,17-45.2,25.9c-14.9,8.9-27.5,17.5-42.3,24.4c-6.7,3.2-13.7,5.6-21,6.9l-1.9,0.2h-2.6c-1.7,0.1-3.4,0-5.1-0.2h-0.8
	l-1.1-0.3l-2.5-0.7c-1.4-0.5-2.7-1.2-4-2c-2.7-1.8-5.4-4.7-8.5-6.5c-3.4-1.9-7.1-2.9-11-2.9c-7.5,0.2-14.6,4-20.5,8.5
	c-5.9,4.5-12.2,10.8-17.9,16.6c-5.7,5.8-11.8,12.1-17.4,18.3l-8.5,9.5c-1.4,1.5-1.7,3.6-1,5.4c0.8,1.9,2.6,3.1,4.6,3.1h0.9
	c-6.6,15.2-7.1,32.3-1.4,47.9c0.7,1.9,2.6,4,4.8,3.7l2.3-0.3c4.9,27.5,17.5,53.1,33.1,76.1c8.5,12.4,17.7,24.3,27.5,35.7
	c4.6,5.4,9.5,10.5,13.4,16.2c3.9,5.7,6.4,12.1,6.5,19.7c0.1,4.6-0.2,9.2,0.3,13.8c0.4,4.7,1.2,9.4,2.4,14c2.4,8.9,5.9,17.5,9.3,26
	c1.1,2.5,3.4,4.2,6.2,3.5c2.8-0.7,4.5-3.7,3.5-6.2c-3.2-7.5-6.1-15.1-8.5-22.9c-2.3-7.7-3.3-15.6-3.2-23.6c0.1-4.3-0.1-8.7-0.7-13
	c-0.1-0.3-0.2-0.7-0.2-1c0.4,0.8,1,1.4,1.8,1.8c2.2,1.2,5.6,0.7,6.8-1.8c5.6-11.5,11.2-23,16.9-34.5c1.1-2.4,0.7-5.6-1.8-6.9
	s-5.6-0.7-6.9,1.8l-16.8,34.6c-0.4,0.8-0.6,1.8-0.6,2.7c-0.8-2.5-1.8-5-3-7.3c-3.3-6.6-8.2-12.3-13-17.8
	c-19.1-22.1-37.2-45.3-49.8-71.8c-7-14.5-11.8-30-14.2-46c-0.7-2.2-2.6-3.7-4.9-3.7l-2.9,0.4c-3.4-11.6-2.9-23.9,1.4-35.2
	c10.5,20.9,24.7,39.7,41.8,55.7c9.8,9.1,20.7,16.9,31.8,24.5l8.6,6.1c2.6,2,4.9,3.8,7.6,6.1c4.3,3.8,8.3,7.9,12.5,11.9
	c8.2,7.9,17.2,16.1,28.5,19.4c7.7,2.2,15.9,1.7,23.2-1.4c-9.7,19.2-18.6,38.7-26.9,58.5c-2.6,6.4-5.2,12.8-7.6,19.2
	c-1,2.5,1,5.6,3.4,6.2c2.7,0.7,5.4-0.9,6.2-3.5c2.6-6.7,5.2-13.4,8-20l0.9-2.3c0.2-0.3,0.4-0.7,0.5-1.1c0.1-0.1,0.2-0.3,0.2-0.5
	c0.7-1.7,1.5-3.3,2.2-5c1.4-3.3,2.8-6.6,4.3-9.9c5.8-13,11.9-25.8,18.4-38.5c3.2-6.3,6.5-12.6,9.9-18.9c4.2-5.4,7.7-11.2,10.7-17.4
	c1.3-2.7,2.5-5.3,3.7-8c5.8-10,11.9-19.8,18.1-29.4c16-24.9,33.1-48.9,50-73.1c8.4-12,16.7-24.1,24.8-36.4
	c3.7-5.6,7.5-11.7,8.9-18.4c1.4-6.7,0-14-5.2-18.9c-4.6-4.2-10.8-6.3-17-6c-6.8,0.4-13,3.3-18.3,7.4c-10.4,7.9-18.8,18.7-25.3,30
	c-13.8,23.8-19.9,50.9-25.9,77.4c-3.2,14.5-6.6,29-11.4,43c-2.1,6.4-4.4,12.7-7,18.8c-4.9,8.3-9.7,16.7-14.3,25.3l-1,1.2l-2.9,3.1
	l-3,2.8l-1.4,1.2h-0.1l-1.1,0.7l-3.1,1.9l-1.8,1l-0.7,0.3h-0.3c-1.2,0.5-2.4,0.9-3.7,1.2l-1.7,0.4h-0.9c1.3-0.2-0.2,0-0.5,0
	c-1.3,0.2-2.7,0.2-4,0.1h-2l-1.2-0.2c-1.2-0.2-2.4-0.6-3.6-0.9l-1.9-0.7h-0.2l-0.9-0.4c-2.5-1.2-4.9-2.6-7.1-4.2l-1.5-1.1l-0.7-0.5
	l-0.4-0.3l-3.4-2.8c-2.1-1.9-4.2-3.8-6.2-5.8c-4.2-4-8.3-8.2-12.7-12.1c-10.7-9.3-22.8-16.5-34.1-25l-6.7-5.3
	c-2.4-2-4.8-4.1-7.1-6.3c-4.6-4.3-9-8.8-13.2-13.5c-2.1-2.3-4.2-4.8-6.2-7.2l-1.4-1.8l-0.4-0.6l-0.6-0.7l-2.9-3.9
	c-3.7-5.1-7.1-10.4-10.3-15.8c-3.2-5.4-5.9-10.7-8.5-16.3c-0.2-0.4-0.4-0.8-0.8-1.1c-0.1-1.9-1.3-3.5-3-4.3
	c8.6-9.4,17.4-18.6,26.6-27.4c4.9-4.8,10.5-9.8,16.6-12.3l4.3-1.3h3.9c2.5,0.4,5,2,7.3,3.9c2.9,2.7,6.3,4.8,9.9,6.4
	c3.4,1.4,7.1,2.1,10.8,2.3c7.3,0.4,14.6-1.3,21.3-3.6c15.2-5.2,28.8-13.7,42.4-22c13.6-8.3,29.2-17.4,44.1-25.8l22.5-12.6
	c6.8-4,14.2-6.9,21.9-8.7c7.6-1.5,15.4-2.1,23.1-2c7.4-0.1,14.8,0,22.2,0.5s12.5,1.2,18.6,3.8l0.4,0.2l0.9,0.5l2.2,1.1
	c1.3,0.8,2.5,1.6,3.6,2.6c2.2,1.9,4.1,4.2,5.5,6.8c2.8,5,4.1,11.5,4.6,17.2s0.3,13.3,0.4,19.9c0,12.8,1.5,26.7,9.6,37
	c1,1.2,2,2.4,3.1,3.5c-8,1.9-15.7,4.5-23.2,7.8l-1.6,0.7l-0.6,0.3h-0.3l-3.3,1.2l-1.7,0.5l-0.9,0.2h-2.5c-0.1,0-0.9,0-0.9,0
	c-1.2-0.1-2.4,0-3.4,0.5c-1.1,0.7-1.9,1.8-2.3,3c-0.5,2.4,0.7,5.8,3.5,6.2c2.8,0.4,5.6,0.4,8.3-0.2c2.1-0.4,4.2-1.1,6.1-2l3.8-1.6
	l1.5-0.7l0.6-0.2l0.7-0.3h0.2l0.8-0.4l1.5-0.5c1.1-0.5,2.2-0.8,3.3-1.2c8.6-2.9,17.5-5,26.5-6.3l3.6-0.5h0.1l1.1-0.2l1.9-0.2
	l6.4-0.7l1.3,0.2c16.8-0.1,33.7-0.4,50.5-0.4c3.6,0,7.1,0.1,10.7,0.5l1,0.2h0.8l2.7,0.5c1.8,0.4,3.5,1,5.2,1.6l1.1,0.4h0.4l2.7,1.3
	c1.6,0.9,3.1,1.9,4.5,3l0.3,0.2h0.1l1.2,0.9l2.2,1.8c1.7,1.4,3.5,2.6,5.3,3.8c7.8,5.1,17.5,6.2,26.2,3c2.4-1,4.4-3.4,3.5-6.2
	c-0.9-2.8-3.6-4.5-6.2-3.5c-1.6,0.8-3.3,1.2-5.1,1.4h-1.7c6.4-7.9,8.8-18.8,10-28.8c0.6-5.9,0.9-11.9,0.9-17.8
	c-0.1-3.7-0.1-7.3,0-10.9c0.1-1.8,0.1-3.5,0.3-5.2s0.3-3.7,0.4-4.7c0.5-3.5,1.3-6.9,2.6-10.2c1.1-2.7,2.6-5.3,4.4-7.6
	c4.5-5.1,10-7.7,16.6-9.3s13.2-1.8,20.3-2s16.1-2.1,24.2-3.6c3.5-0.7,7.1-1.1,10.7-1.1c1.6,0.1,3.1,0.2,4.7,0.5l3.1,0.8l1.2,0.5h0.3
	c5.4,2.9,10.2,6.5,15.2,9.9c5.6,3.9,11.5,7.5,17.6,10.7l16.3,8.8c12.2,6.7,23.9,14.3,36.2,20.8s25.2,12.9,38.5,17.5
	c3.3,1.1,6.6,2.2,9.8,3.5c3.4,1.5,7,2.8,10.6,3.7c3.8,1.1,7.8,1.1,11.6,0.2c4.2-1.1,7.3-3.9,10.5-6.6c1.2-1.1,2.7-2,4.2-2.6
	c1.2-0.5,2.6-0.7,3.9-0.7c3.1,0.1,6,1,8.7,2.5c7.1,3.6,12.5,9.2,18.2,14.7s12.6,12.7,18.7,19.3l4.3,4.7l1.3,1.4
	c-0.5,0.5-1,1-1.4,1.6c-1.6,0-3.1,0.9-3.8,2.4c-5.5,11.9-12.2,23.2-20,33.8l-1.5,2l-0.6,0.8l-0.3,0.3l-3.3,4.2
	c-2.1,2.5-4.3,5-6.5,7.4c-4.4,4.8-9.1,9.4-13.9,13.7c-2.5,2.2-5,4.3-7.5,6.3l-1.9,1.5l-0.3,0.3l-0.9,0.6l-4.4,3.3l-17.8,12.4
	c-5.8,4.1-11.3,8.6-16.4,13.5l-13.1,12.5l-3.2,2.8l-1.7,1.4l-0.7,0.5l-0.5,0.4c-2.3,1.7-4.7,3.3-7.2,4.6l-1.6,0.8l-1,0.4
	c0,0.1,0,0.1-0.1,0.1l-4.3,1.4l-1.8,0.4h-0.5c0.1-0.1-0.2,0-0.4,0h-0.1c-1.5,0.2-3.1,0.2-4.6,0.2l-1.9-0.2h-0.1l-0.8-0.2
	c-1.5-0.3-2.9-0.7-4.3-1.2l-0.7-0.2h-0.2c-0.1,0-0.1,0-0.1-0.1l-1.7-0.7l-3.7-2.2l-1.3-1l-1.1-0.9c-1.1-0.9-2.2-1.9-3.3-3l-2.7-2.9
	l-1.3-1.5c-3.8-7-7.6-13.9-11.6-20.7l-2.4-4.3c-1.5-3.4-2.9-6.9-4.4-10.7c-5.4-14.3-9.2-29-12.7-43.9c-6.4-27.9-11.9-56.5-25.8-81.9
	c-6.4-11.7-14.6-23-24.9-31.4c-5.7-4.6-12-8.2-19.4-9c-6.4-0.7-12.9,1.4-17.7,5.7c-2.7,2.3-4.2,5.4-5.6,8.7
	c-1.3,3.4-2.1,6.9-2.5,10.5c-0.3,3.6,0,7.2,0.7,10.8c0.9,3.4,2.1,6.7,3.7,9.9c5.4,11.2,11.9,21.8,19.4,31.7
	c15.3,20.5,33.4,38.7,49.6,58.5l2.7,3.4c0.5,0.5,0.9,1,1.3,1.6l0.9,1.1l0.2,0.3c0.1,0.1,0.1,0.1,0.1,0.2c1.9,2.4,3.7,4.9,5.5,7.4
	c3.8,5.4,7.3,11,10.8,16.6c3.5,5.6,6.5,10.6,9.6,16c2.2,5.3,4.8,10.4,7.7,15.4c1.9,3.3,4.1,6.5,6.4,9.5
	c6.6,12.2,12.9,24.5,18.8,36.9c3.2,6.6,6.3,13.3,9.3,20l4.5,10.1l4,9.5c2.7,6.6,5.4,13.2,8,19.9c0.9,2.4,3.4,4.4,6.1,3.5
	s4.5-3.5,3.5-6.1c-10.2-26.5-21.8-52.5-34.6-77.8c5.2,2.2,10.9,3.1,16.6,2.6c6.1-0.6,12.1-2.7,17.3-5.9
	c10.3-6.3,18.4-15.5,27.2-23.7c5-4.6,10.2-8.8,15.8-12.6c5.9-4.1,11.9-8.1,17.7-12.4c21.5-15.9,39.7-36,53.3-59
	c2.2-3.7,4.2-7.5,6.2-11.3c0.4,1.1,0.7,2.2,1.1,3.2c1.1,3.5,1.8,7.1,2.2,10.7c0.4,4,0.4,8,0,12c-0.1,1.7-0.4,3.3-0.8,4.9
	c-0.3,1.4-0.9,3-1.2,4.5c-0.8-0.2-1.6-0.1-2.4,0.1c-1.6,0.6-3,1.4-4.3,2.5c-3.7,2.6-7.6,5.6-10.3,9.3c-1.8,2.1-2.1,5-0.9,7.4
	c1.5,2.7,4.2,2.9,7,3.2h0.3l1.3,0.3l2.6,0.7l0.4,0.1l0.2,0.1l0.3,0.2l0.9,0.5c0.4,0.4,0.8,0.8,1.2,1.1l0.4,0.7
	c0.1,0.2,0.2,0.4,0.2,0.6c0.1,0.3,0.1,0.6,0.2,0.9s0.1,1.2,0.1,1.8c-0.1,0.3-0.1,0.7-0.1,1c-0.4,1.6-0.8,3.2-1.3,4.7
	s-0.5,1.5-0.8,2.2c-0.1,0.1-0.2,0.3-0.2,0.4c-0.3,0.6-0.5,1.2-0.8,1.7s-1.9,3.7-2.9,5.5c-2.4,4.1-5.1,8.1-7.9,11.9
	c-1.5,2.1-3,4.2-4.6,6.2l-1,1.3l-1,1.3l-2.8,3.5c-3.7,4.5-7.4,8.9-11.2,13.2c-7.2,8.4-14.7,16.6-22.2,24.9
	c-3.2,3.6-6.5,7.2-9.7,10.9c-4.9,5.5-9.9,11.1-13.7,17.3c-0.6,1.1-1.2,2.1-1.7,3.2l-4.2-5.9c-3.8-5.2-7.8-10.4-11.4-15.8
	c-1.8-2.6-3.5-5.4-4.9-8.2c-1.1-2.4-4.7-3.2-6.8-1.8c-2.4,1.4-3.2,4.4-1.8,6.8c2.7,5.2,6,10.2,9.6,14.9c3.8,5.3,7.7,10.4,11.4,15.8
	c1.4,2.2,2.8,4.4,4,6.7c-0.4,2.9-0.5,5.8-0.5,8.7c0.2,4.4,0.1,8.9-0.4,13.3c-0.5,4-1.4,7.9-2.5,11.7c-2.5,8.2-5.4,16.2-8.7,24
	c-1.1,2.4,1.1,5.4,3.5,6.1s5.1-1,6.1-3.5c3.5-8.1,6.5-16.4,9-24.9c1.2-4.4,2.1-8.9,2.6-13.4s0.6-9.1,0.4-13.7
	c-0.1-4.1,0.4-8.1,1.6-12c1.2-3.4,2.9-6.6,5-9.5c3.7-5.1,7.8-10,12.1-14.6c14.8-16.7,30.1-32.8,43.9-50.2
	c6.4-8.1,12.7-16.4,17.7-25.4c3.6-6.7,7.2-14.6,5.9-22.3c-1.3-7.7-6-10.2-11.7-12l1.3-1L966.9,440.6z M975.5,384.3
	c0-0.4-0.2-0.8-0.5-1.1C975.4,383.4,975.6,383.9,975.5,384.3z M399.9,347.8l1.5-4.2c0.3-0.7,0.6-1.5,1-2.3l0.3-0.9
	c0.1,0,0.3-0.5,0.3-0.7c1.3-2.9,2.6-5.8,4-8.6c2.8-5.7,6-11.1,9.6-16.3l2.6-3.6h0.1c0.1,0,0.1-0.1,0.2-0.2l0.7-0.9l1.6-1.9
	c2-2.4,4.1-4.7,6.3-6.8l3.5-3.2l1.6-1.3l0.5-0.4l1.2-0.8c2.3-1.8,4.9-3.1,7.7-3.9l2.1-0.5h4.6c1.1,0.2,2.1,0.4,3.1,0.8
	c0.2,0,1.1,0.5,0.6,0.2l0.5,0.2l1.7,1.1c0.1,0,0.1,0,0.1,0.1h0.1l0.6,0.6l0.6,0.5c0.1,0.1,0.2,0.2,0.3,0.3l0.4,0.6
	c0.2,0.2,0.3,0.5,0.4,0.7l0.3,0.6l0.4,1l0.3,1.1v0.2c0.1,0.7,0.1,1.5,0.1,2.2v1.1l-0.6,2.6c-0.2,0.7-0.5,1.4-0.7,2.1
	c-0.1,0.3-0.2,0.6-0.4,1c0,0,0,0,0,0c0,0,0,0,0,0c0,0.1-0.1,0.1-0.1,0.2v0.2c-0.8,1.5-1.5,3-2.4,4.5c-0.9,1.5-3.6,5.8-5.4,8.6
	c-4.1,6.2-8.3,12.3-12.5,18.4c-16.6,24.2-33.7,48-50.1,72.4l-5.7,8.6C387.2,396.7,391.2,371.6,399.9,347.8z M720.9,379.5l-6-7.3
	l-2.9-3.6l-0.6-0.8l-0.2-0.2c0-0.1-0.1-0.2-0.2-0.3l-1.4-1.8c-3.7-5-7.3-10.1-10.6-15.4c-3.3-5.2-6.4-10.6-9-16.2
	c-0.7-1.4-1.3-2.8-1.9-4.2c-0.1-0.1-0.1-0.1-0.1-0.2l-0.6-1.5l-0.6-2.4c-0.2-0.7-0.3-1.4-0.4-2.1c-0.1-0.2-0.1-0.5-0.1-0.7
	c-0.1-0.4-0.1-0.9-0.1-1.3c-0.1-1.6,0-3.1,0.2-4.7c0-0.2,0.1-0.9,0.1-0.9s0.1-0.7,0.2-1l0.6-2.4c0.2-0.8,0.5-1.6,0.8-2.4
	c0-0.1,0.1-0.3,0.2-0.4c0.1-0.4,0.3-0.8,0.5-1.2c0.3-0.7,0.7-1.4,1.1-2l0.4-0.5l0.3-0.3c0.4-0.5,0.8-0.9,1.3-1.2h0.1l1-0.6l1.1-0.6
	h0.1l1.7-0.5l2-0.5h4.3c1.5,0.3,3,0.7,4.4,1.2l0.8,0.4l0.9,0.4l2.1,1.2l2.1,1.3l0.8,0.6l0.7,0.6c2.5,2,4.9,4.2,7.1,6.5
	c2.3,2.3,4.4,4.8,6.4,7.4l0.2,0.2c0.1,0.1,0.2,0.2,0.2,0.3l0.6,0.8l1.5,1.8l2.7,4.1c3.6,5.5,6.7,11.3,9.5,17.2l2,4.5v0.2
	c0.2,0.4,0.4,0.8,0.5,1.2c0.4,0.8,0.7,1.6,1,2.5c1.2,3.1,2.3,6.2,3.4,9.3c4.7,14,7.9,28.4,11.1,42.8c2.1,8.9,4.1,17.8,6.4,26.7
	C752.6,414.5,736.1,397.5,720.9,379.5z M971.9,376.9c1.6-0.8,0.8,0.2,0.3,0H971.9z M971.5,428.6C972,428.3,971.7,428.7,971.5,428.6
	L971.5,428.6z M965.3,453C965.9,453.3,965.6,453.2,965.3,453L965.3,453z M965.3,453c-0.1-0.1-0.1-0.1-0.2-0.2L965.3,453z"/>
</svg>
