<?xml version="1.0" encoding="utf-8"?>
<!-- Generator: Adobe Illustrator 24.2.3, SVG Export Plug-In . SVG Version: 6.00 Build 0)  -->
<svg version="1.1" id="e0da50ba-bb83-4066-adcf-40c84e556383"
	 xmlns="http://www.w3.org/2000/svg" xmlns:xlink="http://www.w3.org/1999/xlink" x="0px" y="0px" viewBox="0 0 1152 864"
	 style="enable-background:new 0 0 1152 864;" xml:space="preserve">
<path d="M984.4,473.7c-1.2-2.6-2.4-5.3-3.7-7.9c-2.3-5.1-4.7-10.2-7.4-15.1c-2.9-5.2-6.1-10.1-9.8-14.7c-1.4-1.9-2.8-3.9-4-5.9
	c-1.6-2.4-3.5-4.6-5.5-6.7c-8.1-9-15.4-18.7-23.4-27.7c-4.4-5-9.2-9.4-13.8-14.1s-8.4-9.3-13.1-13.5c-3.5-3.2-7.4-5.9-11.7-7.9
	l-2.5-1.2h-0.2c4.2-1.3,7.9-3.7,10.9-6.9c4-4.4,4.7-11,1.5-16.1c-1.7-2.8-4.3-4.8-6.4-7.2s-3.4-5.1-5.1-7.6c-3.4-5.2-7.1-10.2-11-15
	c-7.8-9.4-16.6-17.9-26.2-25.3c-10.2-7.6-21.3-14-33-18.9c-12.1-5.3-24.6-10.4-35-18.7c3.7-4.1,8.8-8.4,14.2-6.8
	c2.4,0.7,4.9-0.5,5.8-2.9c0.9-1.9,0.5-4.2-1.1-5.6l-0.8-0.7l-4.3-2.7c-37.9-24-81.5-38.5-126.1-43.1l-9.6-0.9
	c-2.9-0.2-6.1,0-8.9-0.5c-3.5-0.8-6.5-3.1-8.2-6.3c6.1-9.8,9.3-21,15.6-30.6c1.6-2.5,0.2-6.9-3-7.4c-9.5-1.2-17.5,2.7-25.2,7.7
	s-16.2,11.1-24.1,16.9c-3.8,2.8-7.5,5.7-11.4,8.4c-2.4,1.7-6.4,4.6-9.5,2.9s-3.8-4.9-4.5-7.5c-1.2-4.4-2-8.7-4-12.7s-5.9-3.5-7.9-1
	c-6.3,7.6-12.4,15.4-18.5,23.3c-21-8.1-42.1-16.2-63.9-22.3c-11.3-3.2-23.1-6.7-34.9-7.1c-5.1-0.3-13.4-0.1-13.1,7
	c0.1,2.5,1.7,5.1,2.8,7.3c0.8,1.8,1.8,3.4,3.1,4.8c2.7,3,6.4,4.1,10,5.6l0.8,0.4l-0.3,0.7c-0.3,0.4-0.7,0.8-1.2,1.1
	c-2.7,1.9-6.4,2.5-9.7,2.7l-16,1.2c-21.6,2.2-43,6.7-63.6,13.6c-23.4,7.9-45.8,18.7-66.6,32.1c-4.9,3.2-1.7,10.2,3.9,9.2
	c-0.6,0.1,0.1,0,0.2,0.1c0.3,0.1,0.6,0.4,0.7,0.7c0.5,0.7,0.8,1.4,1,2.2c0.5,2.7-1.9,5.2-4,6.9c-2.1,1.7-6.4,4.2-9.6,6.2
	s-7.2,4.5-10.7,6.9c-28.3,19.1-53.4,42.6-74.3,69.5c-5.5,7.1-11.4,15.6-4.5,23.8c1.4,1.6,5.2,3.8,5,6.1c-0.2,2.3-4.5,6.3-6.6,8.3
	c-23.6,23.7-47.8,47.4-65.9,75.7c-4.4,6.9-8.4,14-11.9,21.4c-1.9,3.8-3.6,7.7-5,11.7c-1.4,4.1,1.4,8,5.3,9c3.9,1,6.2-0.2,9.1-1.1
	c1.1-0.4,2.3-0.6,3.5-0.8c0.2,0,0.9,0.1,1,0l0.2,0.2c1.1,2.8,0.5,6.1,0.2,9.2c-0.5,4.7-0.8,9.3-0.9,14c-0.6,18.8,1.1,37.6,4.9,56
	c1.8,9.1,4.2,18.1,7.4,26.9c2.5,6.6,6.7,13.8,13.3,16.9c1.9,0.9,4,1.4,6.1,1.4c8,22.9,18.5,46.8,38.5,61.5
	c5.3,3.9,11.3,6.8,17.6,8.7c4.4,1.2,9,1.2,13.1-1c4.1-2.2,5.3-4,8.6-5.1c6.9-2.3,14.4-2.1,20.8-6.1c5.3-3.4,9.4-8.4,11.8-14.3
	c5.3-12.2,5.3-25.6,5.6-38.7c0.3-13.1,0.3-26.6,2.3-39.7s5.9-25.9,13.1-37.2c3.9-5.9,8.4-11.2,13.6-16c4.8-4.7,9.4-9.7,13.7-14.9
	c16.8-20,31.3-43.6,54.1-57.5c2.8-1.7,5.6-3.3,8.6-4.6c2.4-1.2,3.1-4.7,1.8-6.9c-1.3-2.2-4.4-2.9-6.8-1.8
	c-24,11.2-40.1,32.7-56,52.9c-4.1,5.2-8.3,10.4-12.7,15.3c-4.4,4.9-9.4,9.8-14.1,14.7c-9.5,10-16.5,22-20.7,35.1
	c-8.2,25.3-5.5,51.7-7.5,77.7c-0.8,10.2-3.5,23.4-13.7,28.3c-6.5,3.1-14.1,2.4-20.6,5.6c-2.7,1.4-5.2,4.4-8.2,5s-6.8-1.2-9.6-2.5
	c-25.4-11.4-36.8-40.9-45.1-65.5c-0.8-2.4-3.5-4.5-6.2-3.5c-2.7,1-5.6-0.7-7.9-3.5s-4.3-7.8-5.6-12.1c-7.2-22.5-10.6-46-10.3-69.6
	c0-6,0.3-12,0.9-18c0.4-4.7,1.2-9.5-0.7-14.1c-1.9-4.6-7.3-7.4-12.8-6.5c-1.5,0.2-2.9,0.6-4.3,1c17.1-40.4,50-71.4,80.4-102
	c4.2-4.3,8.6-9.6,7.4-16.1c-0.6-2.6-1.9-4.9-3.8-6.7c-1.3-1.3-3.7-2.7-4.2-4.5s1.3-4.2,2.2-5.6c0.9-1.4,3.5-4.7,5.3-6.9
	c3.7-4.7,7.5-9.2,11.4-13.6c15.5-17.4,32.9-32.9,51.8-46.5c5.3-3.8,10.7-7.4,16.2-10.8c5-3.1,10.8-5.9,14.7-10.3
	c3.9-4.4,6-10.5,3.7-16.4c-0.5-1.4-1.2-2.7-2.1-3.8c35.4-21.4,75-34.9,116.1-39.5c7.2-0.7,14.4-0.7,21.5-1.7c7.1-1,11.7-3,15.1-7.9
	c2-2.7,2.6-6.1,1.9-9.3c-1-3.6-4.3-5.5-7.5-6.8l-1.6-0.6l-1.2-0.4l-1.4-0.6c-0.5-0.3-1-0.7-1.5-1.1c-0.8-0.7-1.3-1.6-1.7-2.6h1.4
	c2.2,0,4.5,0.3,6.7,0.7c4.6,0.7,9.2,1.8,13.8,2.9c8.9,2.2,17.6,4.7,26.3,7.5c17.7,5.7,35,12.4,52.4,19.1c2.2,0.9,4.4-0.6,5.6-2.3
	c4.6-6.1,9.4-12.1,14.1-18c0.4,1.5,0.7,3,1.2,4.5c1.4,3.9,3.4,7.6,6.6,10.2c8.6,6.9,18.1,1,25.5-4.5s16.3-12.1,24.6-17.8
	c4.1-2.7,8.2-5.6,12.6-8c1.3-0.8,2.7-1.4,4.1-1.9c-3.8,7.6-6.8,15.7-11.4,22.9c-0.1,0-0.1,0-0.1,0.1c-1,1.3-1.4,3-1.1,4.6
	c1.1,5.3,5.1,9.7,9.6,12.5c1.8,1.2,3.7,2.1,5.8,2.7c3,0.9,6.4,0.6,9.5,0.8c11.8,0.8,23.6,2.3,35.2,4.5c23.2,4.4,45.9,11.6,67.3,21.6
	c8.2,3.8,16.2,8,23.9,12.6l-3.5,2.3c-2.4,1.8-4.5,3.9-6.5,6.1c-1.3,1.5-2.3,2.7-2.5,4.7s0.1,5.1,2.2,7.1
	c9.2,8.8,21.6,14.1,33.1,19.1s23.7,10.6,34.3,18.4c9.6,7,18.4,15.1,26.1,24.1c3.8,4.5,7.3,9.1,10.6,14c1.7,2.5,3.2,5,4.9,7.5
	c2.1,2.6,4.3,5.2,6.6,7.6c1.5,1.7,1.9,3,1.4,4.2s-2.7,3-4.6,4s-4.9,1.4-7.1,2.7c-2.2,1.3-4.1,5-4.1,7.8c0,4.8,4,7.8,8,9.7
	c1.6,0.8,3.2,1.4,4.8,2.3c2.3,1.4,4.4,3,6.4,4.9c4.7,4.3,8.9,9.1,13.3,13.7c4.4,4.6,10.3,10.1,15,15.6s10.2,12.3,15.4,18.4
	c2.7,3.2,5.4,6.3,8.2,9.4c2.8,3.1,3.5,5.2,5.4,7.8s4.3,5.6,6.3,8.6s3.9,6.5,5.7,9.8c2.7,5.3,5.2,10.6,7.6,16c-1-0.3-2-0.8-2.9-1
	c-2.7-0.8-5.5-0.9-8.2-0.1c-4.8,1.7-8.2,6.1-8.5,11.2c-0.1,2.8,0.9,5.5,1.7,8.2s1.6,6.2,2.3,9.4c1.2,5.3,2.7,10.9,3.3,16.3
	c1.1,11,0.5,22.1-2,32.8c-2.1,9.6-4.8,19.1-10.3,27.4c-1.4,2.3-3.1,4.4-5.1,6.3c-1.6,1.2-3.6,1.6-5.5,1.3c-5-0.5-9.8-3.1-14.5-4.6
	c-1.4-0.4-3-0.1-4.2,0.8h-0.1c-0.6,0.5-1.1,1.1-1.5,1.8l-0.2,0.3c-0.1,0.2-0.1,0.4-0.2,0.5l-0.9,2.8c-4.6,14.5-7.8,29.5-12.7,44
	c-4.2,12.4-10.3,26.3-22.1,33.3c-2.6,1.5-6.1,3.2-9.1,3.1s-4.9-2-7-3.4c-6.1-3.9-13.1-4.1-19.8-6.1c-14-4.3-15.5-20-17.3-32.5
	c-2.4-16.1-6-31.9-10.9-47.4c-5-15.7-10.7-31.1-15.1-47.1c-2-7.5-3.4-15.2-5.4-22.7c-1.7-6.4-4.2-12.7-7.2-18.6
	c-6-11.4-14.2-21.6-24-30c-23-19.7-52.6-30-81.8-36.5l-11.4-2.3c-2.7-0.7-5.4,0.9-6.2,3.5c-0.6,2.5,0.9,5.6,3.5,6.2
	c29.6,5.8,60.5,14.2,84.8,33c10.3,7.8,18.9,17.7,25.2,29c3.2,5.7,5.7,11.8,7.4,18.1c2.1,7.6,3.4,15.5,5.5,23.1
	c4.4,16.2,10.3,31.9,15.3,48c5,15.8,8.6,32,10.9,48.4c2,14.4,5.8,30,20.5,36.2c3.1,1.2,6.3,2.2,9.6,2.7c3.4,0.6,6.9,1.2,10,2.9
	s5.6,3.8,9,4.9c3.6,1,7.4,0.8,10.9-0.4c14.6-4.5,24.1-17.9,29.9-31.3s10-30.6,14.4-46.2l0.9-2.9l1.1-0.9c0.7-0.7,1.3-1.6,1.7-2.5
	c8.2,2.7,16.8,5.2,23.9-1.8s12.3-18,15.3-28.3c3.4-11.2,5.2-22.9,5.2-34.6c-0.1-12.5-2.9-24.7-6-36.8c-0.6-2.5-3.7-9,0.4-9.2
	c1.9-0.1,4.5,1.3,6.6,1.7s6.9,0.8,9.5-1.8S986,477.3,984.4,473.7z M458.5,168.7c0.1,0,0,0.1,0,0.3V168.7z"/>
</svg>
