<?xml version="1.0" encoding="utf-8"?>
<!-- Generator: Adobe Illustrator 24.2.3, SVG Export Plug-In . SVG Version: 6.00 Build 0)  -->
<svg version="1.1" id="ff379925-b3ab-4916-a045-deb90ac2ad9f"
	 xmlns="http://www.w3.org/2000/svg" xmlns:xlink="http://www.w3.org/1999/xlink" x="0px" y="0px" viewBox="0 0 1152 864"
	 style="enable-background:new 0 0 1152 864;" xml:space="preserve">
<path d="M991.8,408.4c-7-21.2-22.5-36.4-37.8-51.8c-8.1-8-16.1-16.1-23.6-24.6s-13.8-18.1-21.3-26.7s-12.8-17.2-19.1-25.9
	s-12.1-16.3-18.6-24.1c-13.3-16.2-28.6-30.7-45.5-43.1c-8.9-6.6-18.7-12-29.1-15.9c-10.6-3.9-21.8-6.3-32.2-10.6
	s-18.2-12.3-26.5-19.8c-8-7.3-16.5-14-25.6-19.9c-9.8-6.2-20.1-9.9-31.2-13.5c-5.5-1.8-10.7-4.3-16.4-5.5c-5.7-1.2-12-1.7-18-2.8
	c-46.6-8.5-96.3,0-140.9,14.3c-21.9,7.1-43.3,15.7-64.1,25.6c-10.7,5.1-21.2,10.4-31.6,16s-20.1,11-31.2,14.2s-21.8,1.4-32.7,3.5
	s-18.8,8.7-26.7,16.7c-16.6,16.8-32.7,34-48.5,51.5s-33.3,36.4-49,55.3c-3.5,4.2-6.9,8.4-10.1,12.8c-1.6,1.9-3.4,3.7-5.4,5.2
	c-1.8,1.6-3.2,3.8-4.8,5.7c-6.3,7.6-12.9,15-19.3,22.6c-12.8,14.9-24.9,31-30.4,50.1c-6.6,22.8-2.2,46.5,5.3,68.5
	c6.9,19.9,16.6,38.8,28.9,55.9c12.5,17.4,27.7,32.2,44.3,45.6s33.3,25.6,45.8,42.4c-0.3,11.7,0.1,23.3,1.4,34.9
	c0.8,6.2,1.5,12.5,4.3,18.2s7.6,9.8,13.7,9c2.2-0.1,4.1-1.6,4.8-3.7c15.3-36.6,22-76,24.9-115.5c2.1,10.1,4.3,20.2,6.9,30.2
	c3,12,6.4,24,10.4,35.7c2.8,8.9,6.1,17.5,10.1,25.9l1,2.1c1.4,2.4,4.4,3.2,6.9,1.9c2.4-1.4,3.2-4.4,1.9-6.9l0,0
	c-0.8-1.5-1.5-3-2.2-4.5l-1.2-2.6c0-0.1-0.1-0.3-0.1-0.4l-0.6-1.4c-1.8-4.4-3.4-8.8-4.9-13.3c-3.9-11.3-7.3-22.8-10.3-34.4
	c-3.6-13.4-6.7-27-9.2-40.7c-1.4-7-2.5-14.1-3.6-21.1l-0.3-2.7c-0.1-0.4-0.2-0.8-0.2-1.2c0-0.2-0.1-0.4-0.1-0.6l0,0l-0.6-5.3
	c-0.5-3.4-0.8-6.8-1.1-10.2s-0.4-4.7-0.6-7c0.1-7.5,0.1-15,0.1-22.5c-0.1-23.2,0.4-46.8-3.7-69.7c-1.8-10-4.5-19.8-6.9-29.6
	c0.1-0.5,0.2-1.1,0.2-1.6c-1.1-46.8,32.6-84.1,53.1-123.2c5.3-10.1,9.9-20.7,11.3-32.2c0.6-5.2,1.3-11.9-2.9-15.9s-9.9-3.2-14.6-1
	s-8.3,5.6-11.7,8.9c-3.7,3.6-7,7.5-10,11.6c-6.1,8.2-10.9,17.2-15.3,26.3c-9.8,20.3-18.8,41.4-23.1,63.7
	c-2.3,11.4-3.1,23.1-2.3,34.7c0.9,11.5,3.5,22.9,6.3,34.1s5.8,22.4,7.3,33.8s2,24,2.1,36c0.1,3.5,0.1,7.1,0.1,10.6l0,0
	c-1,12-1,24.2,0,36.2c-0.1,7.1-0.2,14.2-0.4,21.4c-1.2,44.6-5.5,89.6-20.3,132c-1.3,3.7-2.6,7.4-4.1,11l-0.2-0.2
	c-1.1-1.4-2-2.9-2.6-4.6c-1.7-4.9-2.1-10.4-2.7-15.5c-1-11.7-1.2-23.4-0.8-35.1c0.7-23.4,2.9-46.9,0.2-70.2
	c-1.4-13.1-4.9-25.9-10.2-38c-1.2-2.5-4.7-3.1-6.9-1.8s-2.9,4.4-1.8,6.8c9.9,21.8,10.7,46.1,10,69.5c-0.2,7.7-0.6,15.3-0.9,23
	c-11.4-12.5-24.8-22.9-38.1-33.7c-16.3-13.1-31.6-27.4-43.9-44.5c-12.5-17.2-22.2-36.2-28.8-56.4c-7.1-21.6-10.6-44.4-2.4-66.2
	c6.8-18.2,20-33.2,32.6-47.6l9.3-10.8c3.1-3.6,5.8-7.8,9.7-10.6s6.9-8.5,10.1-12.5s7.5-9,11.4-13.4c31-34.9,61.5-70.8,95-103.3
	c8.3-8,18.8-9.6,29.9-9.7c11.1-0.2,22-2.5,32.1-7c10.6-4.5,20.6-10.4,30.8-15.7s20.6-10.4,31.1-15.1c41.4-18.9,85.7-33,131.3-36.7
	c24.4-2,48.8-0.2,72.9,4.2c5.6,1,10.5,3.2,15.8,5s11,3.3,16.3,5.4c10.2,3.9,19.6,10.4,28.1,17.1s16.2,15.2,24.8,22.1
	s18.7,10.5,29,13.7s21,6.1,30.8,11s18.7,11.9,27.1,18.9c15.6,13,29.2,28.2,41.5,44.3c6.3,8.3,12.3,16.7,18.2,25.2s14,17.7,20.8,26.7
	c13.2,17.6,29.4,32.5,44.6,48.4c7.4,7.7,14.7,15.5,19.9,25.1c5.1,9,8,19,8.7,29.3c1,20.8-9.3,39.8-22.2,55.4
	c-14.4,17.4-32.8,30.3-49.8,44.9c-8.7,7.4-17.4,15.3-24.6,24.2s-14.6,19.4-20.1,29.9c-10.3,20-17,41.5-22.7,63.2
	c-1.4,5.3-2.8,10.6-4.1,15.9l-1.8,7.3l-1.2,4.4c-0.2,1.2-0.2,3.2-1,4.2c-2.9,3.7-5.9,1-7.2-2.2c-0.5-1.2-0.5-3.1-0.9-5.1
	c-0.8-3.6-1.6-7.3-2.3-11c-4.2-23.9-3.7-48.3-0.9-72.4c2.6-22.2,6.7-44.1,11.3-66.1c0.1-0.2,0.2-0.4,0.2-0.6c1-2.6,1.8-5.2,2.4-7.9
	c3.1-12.9,5.6-26,7.4-39.2c1.8-8.7,3.4-17.4,4.9-26c4-22.9,7.1-46,7.6-69.2s-2.1-47.5-6.8-71c-2.4-11.6-5.4-22.7-10.3-33.6
	c-4.8-10.4-10.6-20.4-17.2-29.7c-5.5-7.8-12.3-16-21.5-19.4c-3.9-1.5-8.2-1.7-11.9,0.4c-5.4,3-6.1,8.2-6.4,13.8
	c-0.4,11,3.7,21.5,8.3,31.3c4.9,10.4,10.8,20.3,17.5,29.6c12.9,18,24.9,38.2,30.2,59.9s4.7,44,1.7,65.5c-2.1,14.8-3.8,29.6-5.9,44.4
	c-0.4,3-0.9,6.1-1.3,9.2c-2.6,12.8-5.4,25.7-8,38.5v0.3c-0.2,0.3-0.3,0.7-0.4,1c-0.5,1-0.9,2.1-1.2,3.2c-1.4,3.8-2.7,7.6-3.9,11.5
	c-8.6,25.8-16.8,51.8-25.5,77.5c-3.1,9.3-6.1,18.7-9.9,27.7c-2.4,6,7.3,8.6,9.7,2.7c7.5-18.3,13.4-37.3,19.4-56.1
	c-2.4,18.5-3.1,37.1-1.8,55.7c0.5,5.7,1.2,11.3,2,17c0.5,3.1,1.1,6.3,1.7,9.4s1,6.8,1.7,10.2s3.8,8.2,6.7,10.3
	c3.8,2.8,8.9,3.1,13,0.8c3.9-2.1,6.7-4.9,7.9-9.2s2.7-11.6,4.2-17.4c2.8-10.9,5.6-21.9,8.9-32.7c3.3-11.3,7.4-22.3,12.2-33
	c2.2-5,4.7-9.9,7.5-14.6c3.3-5.5,7.4-10.6,11.1-15.8c13.7-19.1,32.8-33.5,50.9-48.2s32.2-29.1,42.4-48.2S998.5,428.9,991.8,408.4z
	 M325.8,295.3c4-9.7,8.3-19.3,13.1-28.6s9.4-17.1,15.7-24.4c3-3.6,6.4-6.9,10.1-9.8c1.4-1.2,2.9-2.2,4.6-3l2-0.5h0.8
	c0.9,3.8-0.3,9.1-1.2,13c-1.2,5-2.8,9.8-5,14.5c-9.4,20.7-22.8,39.3-34.1,58.9c-8.3,14.4-15.7,29.5-20.1,45.5c0-0.7-0.1-1.5-0.1-2.2
	C311.3,336.9,317.6,315.5,325.8,295.3z M819.6,292.6c-6.8-9.5-12.6-19.7-17.4-30.4c-2.5-5.2-4.3-10.7-5.3-16.4
	c-0.5-3.1-2.1-12.6,2.5-12.6s7.3,3.6,9.8,5.8c4.3,3.9,7.6,8.6,10.8,13.3c6.6,9.5,12.1,19.7,16.6,30.3c5,11.5,7.1,24.3,9.4,36.5
	c1.9,9.7,3.2,19.6,3.9,29.5C843.5,328.4,831.9,309.5,819.6,292.6L819.6,292.6z"/>
</svg>
