<?xml version="1.0" encoding="utf-8"?>
<!-- Generator: Adobe Illustrator 24.2.3, SVG Export Plug-In . SVG Version: 6.00 Build 0)  -->
<svg version="1.1" id="b9ed6248-06f3-4aea-897a-9b398de3f721"
	 xmlns="http://www.w3.org/2000/svg" xmlns:xlink="http://www.w3.org/1999/xlink" x="0px" y="0px" viewBox="0 0 1152 864"
	 style="enable-background:new 0 0 1152 864;" xml:space="preserve">
<path d="M506.7,258.4h0.5l2.4,0.6l2.4,0.8l1,0.5l0.7,0.2h-0.1c1.9,0.8,4.4,0.9,6-0.8c1.5-1.7,1.9-4.1,0.8-6.1
	c-6.5-10.6-17.6-16.3-28.2-22c2.4,0,4.8,0.1,7.1,0.3h0.8l1.1,0.2l2.5,0.4l5.2,1.3l5.1,1.8l0.4,0.2l1.2,0.5l2.7,1.3
	c2.3,1.2,5.5,0.7,6.8-1.8s0.7-5.5-1.8-6.8c-14.5-7.5-31.3-9.5-47.2-5.4c-2,0.5-3.4,2.2-3.6,4.2c-0.3,2,0.7,3.9,2.4,4.9
	c5.1,3.7,10.6,6.5,16.1,9.5c2.7,1.4,5.5,2.9,8.1,4.6l2.1,1.3c-3.2,0.4-6.1,1.8-8.4,4c-1.8,1.7-2.1,5.4,0,7.1
	c2.8,2.2,5.4,4.6,7.9,7.1c1.3,1.3,2.5,2.6,3.6,3.9l1.7,2.1l0.9,1.1h0.1c0,0.1,0.1,0.1,0.1,0.2c2.2,2.8,4.2,5.8,5.9,8.9
	c0.9,1.5,1.8,3.1,2.6,4.7l1,2.2c0.2,0.4,0.4,0.8,0.5,1.2l0.3,0.6c0.4,1.2,1.2,2.2,2.3,2.9c1.2,0.7,2.6,0.9,3.9,0.5
	c2.3-0.7,4.5-3.5,3.5-6.1C522.3,277.2,515.4,267,506.7,258.4z"/>
<path d="M615.7,237.7l0.3-0.6l0.3-0.8l0.6-1l0.6-0.9c0-0.1,0.1-0.1,0.1-0.2l1.5-1.6l0.9-0.8c0.1,0,0.2-0.1,0.2-0.2
	c1.3-0.9,2.7-1.7,4.1-2.5l2-0.9h0.2l1.3-0.5c3.4-1.3,6.9-2.2,10.4-3.2s7.9-1.9,11.7-3.1c2.4-0.7,3.9-3,3.6-5.5
	c-0.4-2.4-2.4-4.3-4.9-4.4c-15.9-1.4-31.8,2.9-44.7,12.3c-2.1,1.5-3.3,4.4-1.8,6.8c1.1,1.6,2.9,2.5,4.8,2.5
	c-1.6,4.2-2.3,8.7-1.8,13.2c0,1.8,1,3.4,2.5,4.3c1.5,0.9,3.5,0.9,5,0l1.2-0.6c-0.1,0-0.1-0.1,0.3-0.2h0.2l2.5-0.8l1.6-0.3h0.5
	l3.3-0.2h1.2c-7.2,6.8-12.6,15.3-14.1,25.4c-0.5,3.5-0.7,7.1-0.5,10.6c0.2,2.6,2.2,5.1,5,5c2.8-0.1,5.2-2.3,5-5
	c-0.1-1.8-0.1-3.5,0-5.3c0-0.8,0.1-1.7,0.2-2.5v-0.4c0-0.3,0.1-0.6,0.1-0.9c0.3-1.7,0.7-3.4,1.3-5c0.2-0.8,0.5-1.5,0.8-2.3
	c0.1-0.2,0.1-0.3,0.2-0.4c0.1-0.4,0.3-0.8,0.5-1.1c0.8-1.5,1.7-3,2.7-4.5c0.2-0.4,0.5-0.8,0.8-1.1v-0.2c0-0.1,0.1-0.2,0.2-0.2
	c0.5-0.7,1.2-1.4,1.8-2.1c1.4-1.5,2.8-2.9,4.3-4.2l1.3-1l0.2-0.2l0.5-0.3l2.8-2c2.4-1.5,3.2-4.6,1.7-7c-0.4-0.7-1-1.3-1.7-1.7
	c-4.1-2.8-9.5-3.6-14.4-3.6c-2.3,0-4.6,0.2-6.8,0.7v-0.3L615.7,237.7z"/>
<path d="M893.2,463.7c-1.6-2.6-3.3-5.1-5-7.6c1.5,0.4,3,1.1,4.3,2c3,2,7.9-0.6,7.5-4.3c-1-12.6-3.2-25.7-9.9-36.7
	c-3.3-5.4-7.6-10-12.8-13.6c-2.8-1.9-5.8-3.4-8.9-4.6h-0.1h-0.2v0.1c-0.1-0.1-0.1-0.1-0.1-0.3c0,0.1,0,0.1,0.1,0.1v0.1l1.6-0.9
	l1.1-0.4l2.3-0.6l2-0.4l1-0.2h0.2c1.2-0.1,2.4-0.2,3.6-0.1c3.3,0.2,5.8-3.4,4.9-6.4c-7-22.8-24.2-41.4-45.4-52.1
	c-5.3-2.7-10.8-4.9-16.5-6.6c-7.2-20.8-15.2-41.2-24.1-61.4c-1.6-3.7-3.3-7.5-5-11.2c2.3,0.4,4.4,1.4,6.2,2.8
	c1.8,1.3,4.6,0.7,6.1-0.8c1.6-1.6,1.9-4,0.8-6c-14.7-29.2-43-47.8-71.3-62l-6.8-3.4l3.8-0.6c1.9-0.3,3.4-2.4,3.6-4.2
	c0.3-2-0.6-3.9-2.4-4.9c-19.7-12.2-42.1-19.3-65.2-20.9l-7.6-0.2l6.4-7.1c2.9-3.2,1-8.5-3.5-8.5c-25-0.2-49.7,5.9-71.7,17.9
	c-3.1,1.7-6.1,3.5-9,5.4v-0.4c0.1-0.4,0.1-0.8,0.2-1.3c0.6-3.8,1.5-7.5,2.6-11.1c0.5-1.8,1.1-3.6,1.8-5.4c0.3-0.8,0.6-1.7,1-2.6
	c0.1-0.4,0.3-0.8,0.5-1.2l0.3-0.8l0.2-0.4l0.3-0.9l0.6-1.2l1.2-2.6c0.8-1.8,1.8-3.6,2.7-5.4c1.3-2.4,0.5-5.5-1.9-6.8
	c-1.5-0.8-3.3-0.8-4.9,0c-16.4,10.6-30.5,24.4-41.5,40.5c-2.1,3-4,6.1-5.9,9.2c-18.9-13.2-40.7-21.7-63.6-24.8
	c-7-0.9-14.1-1.4-21.2-1.3c-4.5,0-6.4,5.3-3.6,8.5l6.4,7.1c-19.3,0.2-38.3,4.4-55.9,12.2c-5.9,2.5-11.5,5.5-16.9,8.9
	c-1.7,1-2.7,2.9-2.4,4.9c0.3,1.8,1.7,3.9,3.6,4.2l3.8,0.6c-23.1,11.1-45.7,24-62.8,43.2c-6.1,6.7-11.2,14.1-15.2,22.2
	c-1.1,2-0.8,4.4,0.8,6c1.6,1.7,4.1,2,6,0.8c1.9-1.4,4-2.4,6.3-2.8c-8.8,19.2-16.9,38.7-24.2,58.6c-1.9,5.2-3.7,10.4-5.5,15.6
	c-0.5,0.3-1,0.6-1.4,1c-19.1,16.9-36.9,35.3-53.2,54.9c-1.4,1.5-1.8,3.6-1,5.5c0.7,1.9,2.5,3.1,4.5,3.1h3.3l1.6,0.3l1.2,0.4
	c-1-0.3,0,0,0.3,0.2c-0.1,0.2-0.2,0.5-0.3,0.7l-1.5,1.6c-1.9,2.1-3.6,4.2-5.3,6.4c-6.9,8.6-12.8,17.9-17.5,27.9
	c-2.7,5.8-5.1,11.8-7.1,17.9c-1.3,4,3.7,8,7.3,5.6c2-1.4,4.4-2.2,6.9-2.3c-9,21.2-15.6,43.4-19.6,66.1c-0.7,4.2,3.3,7.7,7.4,5.6h0.3
	l0.5-0.2l0.8-0.2h1.5l1.1,0.2c1.7,0.6,3.2,1.5,4.5,2.8l0.6,0.7c0,0.1,0.2,0.3,0.3,0.4l0.2,0.2c0.1,0.3,0.3,0.5,0.5,0.8
	c0.2,0.4,0.4,0.8,0.6,1.2l0.6,2.1c0.4,2.5,0.4,5.1,0,7.6c-1.3,6.2-4,11.3-6.8,17c-1.5,3.1-2.9,6.3-4,9.6c-1,2.9-2,6.2-1.6,9.3
	c0.2,4.3,3.7,7.7,8,7.7c1.7-0.1,3.4-0.5,4.9-1.3l1.5-0.8l1-0.5l0.7-0.3l0.8-0.2h0.4l0.5,0.2l0.6,0.3l0.9,0.7l0.5,0.7l0.9,1.3
	l0.6,1.3c0.4,1,0.7,2,0.9,3.1c0,0.1,0,0.3,0.1,0.4v2.6c-0.2,2.9-0.7,5.8-1,8.8c-0.7,6.4-0.1,13.1,4.3,18.2
	c4.5,5.1,11.6,7.2,18.2,5.3c2.8-0.8,5.4-2.4,7.4-4.6c2.5,6.3,3.9,13,5.6,19.8c2.1,9.1,5,18.5,10.5,26.1c3.2,4.5,7.3,8.2,12.1,10.9
	c2.4,1.4,5.4,0.6,6.8-1.7l6.6-10.4l3-4.7l0.4-0.5l0.3,0.2l1.8,1.9c1.3,1.3,2.7,2.5,4.1,3.7c2.8,2.4,5.8,4.6,8.9,6.6
	c6.2,4.1,12.9,7.3,20,9.5c7.2,2.2,14.8,2.4,21.7-0.9c10.5-5,15.8-17.1,17.6-27.9c2.3-13.4-0.2-26.7-3.5-39.7
	c-1.7-6.6-3.6-13.1-5.2-19.8c-0.9-3.3-1.6-6.7-2.2-10c-0.2-0.8-0.3-1.7-0.4-2.5c-0.1-0.3-0.1-0.6-0.1-0.9c-0.1-0.1-0.1-0.4-0.1-0.4
	c-0.2-1.7-0.4-3.4-0.5-5.1c-0.2-3.3-0.1-6.5,0.2-9.8c0-0.3,0.1-0.5,0.1-0.8s0.1-0.4,0.1-0.5s0.3-1.5,0.4-2.3
	c0.4-1.7,0.8-3.3,1.4-4.9c0.6-1.6,1.2-3.2,1.6-4.9c0.3-1.7,0.4-3.4,0.4-5.1c0-7.4-2.2-14.7-4.4-21.7c-2.2-7-5.2-15.8-7.6-23.9
	c-1.1-3.7-2.1-7.6-2.8-11.4c-0.2-0.9-0.3-1.7-0.4-2.5c0-0.1,0-0.1-0.1-0.1c0-0.4-0.1-0.9-0.1-1.4c-0.1-1.5-0.2-3-0.1-4.5v-1.1
	c0.1-0.2,0.1-0.4,0.1-0.6c0-0.3,0.1-0.2,0.1,0s0.1-0.9,0.2-1.2c0.1-0.3,0.2-0.5,0.2-0.8c0,0,0,0,0-0.1c0,0,0-0.1,0.1-0.1
	c0,0,0,0,0,0c0,0,0-0.1,0.1-0.1c0.2-0.4,0.6-1.1,0.7-1.3l0.3-0.4l0.6-0.5h0.1l0.7-0.4h0.4c0.4-0.2,0.3-0.1,0.2,0h0.2l1.1-0.3h0.6
	c4.1,10.3,8.6,20.4,13.6,30.3c1.1,2,3.5,2.9,5.7,2.3c4-1.5,7.2-4.6,8.9-8.5c1.7-3.7,2.5-7.6,3.5-11.5c0.2-0.8,0.5-1.6,0.7-2.4
	l0.5-1.4l0.2-0.5l1.2-2.3c0.3-0.3,1-1.1,0.3-0.4l1.1-1.1l0.5-0.5h0.2l1.2-0.7h0.5l1.5-0.3h0.8c0.5-0.1,1.1-0.1,1.6,0h1.6l1,0.2
	c5.3,1,9.2,3.1,13.9,5.9c4.7,2.8,7.7-0.5,7.6-4.3c-1.1-25.1-2-50.8,6.2-75c0.8-2.4,1.7-4.9,2.7-7.2c0.1-0.2,0.1-0.2,0.1-0.3l0.3-0.7
	l0.8-1.8c0.5-1.2,1.1-2.4,1.7-3.6c2.3-4.7,4.9-9.2,7.8-13.6c2.7-4.2,5.7-8.2,9-12c3.3-3.9,6.9-7.6,10.7-11.1
	c8.5-7.8,18-14.2,28.4-19.2c4.5-2.2,2.3-9.5-2.5-9.3c-1.8,0.1-3.6-0.1-5.4-0.5l-2.9-0.7l-2.4-1l-2.6-1.4l-1.1-0.8l-0.8-0.6h-0.1
	c3.1-1.2,6.4-1.8,9.7-1.9c2.8,0,5-2.2,5-5c-0.1-2.7-2.3-4.9-5-5c-7.2,0.1-14.3,2.3-20.4,6.2c-2.1,1.3-3.5,4.6-1.8,6.8
	c3.5,4.8,8.2,8.6,13.6,11.1c-14.6,8.9-27.3,20.6-37.5,34.4c-6.3,8.9-11.4,18.6-15.3,28.8c-4.3,11.5-7,23.4-8,35.6
	c-1.2,12.7-1,25.4-0.6,38.1c-6.7-3.1-14.3-4.9-21.1-2.3c-4.6,1.8-8.4,5.3-10.3,9.9c-1.5,3.9-2.8,8-3.7,12.1l-0.9,3.1
	c-0.1,0.2-0.2,0.4-0.2,0.6h-0.1c-9-18.8-16.5-38.3-22.3-58.3c-0.8-2.7-3.5-4.2-6.2-3.4c-1.2,0.3-2.3,1.1-2.9,2.2
	c-3.4,5.6-6.9,11.1-10.3,16.6c-0.8,1.4-1.6,2.7-2.5,4c-0.4,1-1.1,1.8-1.9,2.5l-0.3,0.2h-0.6H346l-0.5-0.3l-0.5-0.5l-0.8-0.8
	c0-0.1-0.5-0.8-0.5-0.9l-1-1.7l-0.3-0.6c0-0.1,0-0.2-0.1-0.2c-0.1-0.6-0.3-1.1-0.5-1.6c-0.4-1.3-0.7-2.6-1-3.9
	c-1.6-6.4-3-12.8-4.3-19.3s-2.8-14.5-3.9-21.8c-0.5-1.7-1.8-3-3.5-3.4c-1.7-0.5-3.6,0-4.9,1.2c-4.1,3.4-7.9,7.1-11.4,11.1
	c-3.3-21.4-0.4-43.3,3.8-64.4c1.4-7.1,3-14.2,4.6-21.3c0.6-2.7-1.1-5.5-3.9-6.1c-1.2-0.3-2.5-0.1-3.5,0.5l-5.2,2.8
	c6.3-17.7,13.2-35.2,20.8-52.3c2.6-6.1,5.4-12.1,8.2-18c1.3-2.9,0.3-6.5-3-7.4c-2.2-0.6-4.4-0.8-6.7-0.8c6.2-8.7,13.6-16.6,22-23.2
	c5.9-4.6,12.1-8.9,18.5-12.7c6.8-4.2,13.8-7.9,20.9-11.5c7.1-3.6,15.9-7.7,24-11.3c4.6-2.1,2.2-9.5-2.5-9.4H405
	c14.5-6.7,30.2-10.7,46.2-11.8c6.3-0.4,12.5-0.3,18.8,0.1c1.9,0.2,3.8-1.4,4.5-3.1c0.8-1.8,0.4-4-1-5.4l-6.3-7.1
	c19.4,1.5,38.2,7.1,55.2,16.4c5.6,3,11,6.5,16.1,10.3l0.9,0.6c1.3,0.9,3,1,4.4,0.3c0.8-0.3,1.5-0.8,2.1-1.5l0.4-0.6
	c2.3-4.1,4.7-8.1,7.4-12c1.2-1.9,2.6-3.8,3.9-5.6c0.3-0.5,0.6-0.9,1-1.3l0.7-1l2.1-2.6c5.1-6.2,10.7-12,16.7-17.3
	c-3.4,9.4-5.3,19.4-5.6,29.4v0.7c-0.1,1,0.1,2,0.7,2.9c1.2,2.2,4.6,3.5,6.8,1.8c18.8-14.2,41-23.3,64.4-26.5l7.9-0.8l-6.4,7.1
	c-1.4,1.5-1.7,3.6-1,5.4c0.8,1.7,2.6,3.3,4.6,3.1c21.5-1.6,43,2,62.7,10.6l2.3,1.1h-5.8c-2.2,0.1-4.2,1.6-4.8,3.7
	c-0.6,2,0.3,4.8,2.3,5.7c14.3,6.5,28.7,13.2,42.3,21.2s25.3,16.5,35.7,28.2c1.4,1.5,2.8,3.1,4.1,4.7l1.4,1.9l1.8,2.6h0.1
	c-2.3,0-4.5,0.2-6.7,0.8c-3.4,0.9-4.4,4.5-3,7.4c9.7,20.8,18.6,42,26.5,63.5l2.4,6.8l-5.2-2.8c-2.4-1.3-5.5-0.5-6.8,1.9
	c-0.8,1.5-0.8,3.3,0,4.9c6.1,11.8,11.2,24.1,14.1,37.1c2.8,11.8,3,24.1,0.4,36c-0.9,3.9-2.2,7.7-3.7,11.4l-3-7.6
	c-2.3-5.8-4.7-13-9.6-17.2c-2.6-2.1-7.7-1.8-8.4,2.2c-0.2,1.2-0.4,2.4-0.8,3.6c-0.1,0.5-0.3,1-0.5,1.5c-0.1,0.3-0.2,0.5-0.2,0.8v0.2
	c-0.9,1.8-1.8,3.6-2.8,5.3c-2.2,3.7-4.4,7.6-5.4,11.9c-0.6,2.7-0.9,5.5-0.8,8.3c0.1,1.7,0.2,3.3,0.5,5l0.3,2.4
	c0.3,3,0.5,6.1,0.6,9.1s0.1,8.4-0.1,12.5c0,0.9-0.1,1.7-0.1,2.5s-0.5-1.1-0.7-1.7c-1.8-5-4.5-9.6-7.9-13.7c-1.9-2.5-4.3-4.6-7.1-6.2
	c-3.5-1.8-7.5-2.4-11.4-1.7c-2.8,0.5-3.9,3.8-3.5,6.2c0.8,4.6,1,9.2,0.8,13.8c-0.2,2.7-0.6,5.4-1.2,8.1c-0.1,0.3-0.2,0.7-0.3,1
	c-0.3,1.1-0.6,2.3-1,3.4l-0.9,2.9l-0.6,1.5l-0.3,0.7c0,0.1,0,0.1-0.1,0.2c-0.9,2.1-1.9,4.1-3,6c-1.1,2-2.2,3.9-3.5,5.8l-1.9,2.8
	c-0.4,0.4-0.7,0.8-1,1.3l-0.5,0.6c0,0.1,0,0.1-0.1,0.2H735c-1.8,2.3-3.7,4.5-5.6,6.7c0-2.5,0.1-5,0.3-7.5c0.8-7.4,2.3-14.8,2.2-22.3
	c0.1-3.3-0.5-6.6-2-9.6c-1.8-3.2-5.2-5.1-8.9-5c-7.6,0.1-14.8,6.2-20.4,10.7c-3.5,2.7-6.9,5.7-10.2,8.5c0.7-11.3,1.7-22.6,2.9-33.9
	c0.7-7.3,1.5-14.6,2.4-21.8c1-6.1,1.4-12.3,1.4-18.5c-0.2-10.7-2.7-21.4-8.1-30.6s-13.3-16.2-22.1-21.7c-7.9-4.8-16.4-8.6-25.2-11.3
	l0.8-0.7l3-2.4c0.2-0.2,0.4-0.4,0.7-0.5c0-0.1,0-0.1,0.1-0.1s0-0.1,0.1-0.1l1.5-1.1c1.1-0.7,2.2-1.4,3.4-2c0.3-0.1,0.4-0.1,0.3-0.1
	l0.6-0.2l2.2-0.5c3.1-0.6,4.7-4.8,3-7.4c-4.2-6.1-12.4-9.2-19.1-11.7s-16.2-5.1-24.4-5.4c-3.9-0.1-7.8,0.4-10.9,2.9s-1.8,5.3,0,7.1
	c1.7,1.7,4.4,1.9,6.4,0.5l0.7-0.5l-0.6,0.5h0.2c0.6-0.4,0.2-0.1-0.1,0.1l1.1-0.4h6.9l4.9,0.9c3.9,0.9,7.7,1.9,11.4,3.2l2.6,1
	l1.3,0.5l1,0.4l4.3,2h0.2c-2.1,1.4-4.2,2.9-6.1,4.6l-2.8,2.3h-0.1l-0.7,0.5l-1.4,0.9l-1.6,0.9l-0.4,0.2H630l-1.5,0.4h-1
	c-5.6-0.1-6.8,8.5-1.3,9.9c6.1,1.5,12,3.3,17.9,5.4l3.9,1.5l0.9,0.4h0.2l2,0.9c2.5,1.1,5,2.3,7.4,3.7c2.2,1.2,4.3,2.6,6.4,4l1.5,1
	l1.1,0.9c0.4,0.2,0.7,0.5,1,0.8l1.5,1.2c1.8,1.6,3.5,3.3,5.1,5.1c0.7,0.7,1.3,1.5,2,2.3l0.5,0.7c0.4,0.5,0.8,1.1,1.1,1.7
	c1.3,1.9,2.5,3.9,3.5,5.9c0.2,0.6,0.5,1.2,0.7,1.7v0.2l0.2,0.4c0.4,1.1,0.9,2.3,1.3,3.5c0.7,2.3,1.3,4.7,1.7,7.1l0.3,1.8
	c0.1,0.3,0.1,0.5,0.1,0.8c0.2,1.3,0.3,2.7,0.4,4c0.2,5.8-0.1,11.6-0.9,17.4c-0.9,7-1.7,14.1-2.5,21.1c-1.7,16.2-3.2,32.5-3.9,48.8
	c-0.2,3.8,4.4,6.3,7.5,4.3c6.2-3.8,11.4-9.1,17-13.7l2.2-1.9l1.2-0.9l0.4-0.3l0.5-0.4l0.8-0.6l1.3-0.9l2.3-1.7c1.5-1,3-1.9,4.6-2.7
	l0.9-0.4h0.1l2.1-0.6h0.4c-0.1,0-0.2,0-0.2-0.1h0.3v0.2c0.1,0.2,0.1,0.5,0.2,0.7c0.1,0.2,0.1,0.5,0.2,0.8s0.1,0.3,0.1,0.5
	s-0.1-0.5-0.1-0.5s0.2,1.7,0.2,2v2.5c-0.2,7.4-1.6,14.6-2.3,21.9s-1,16.7,7,19.9c1.7,0.5,3.6,0.1,4.8-1.2
	c8.2-8.3,15.5-17.4,20.7-27.6c0.8,4,1.5,8,2.1,12c0,0.3,0,0.6,0.1,0.9c0,0.5,0.1,1.1,0.2,1.6c0.1,1.4,0.3,2.8,0.4,4.3s0.5,5,0.6,7.5
	c0.3,5.1,0.4,10.3,0.2,15.4c-0.1,2.3-0.2,4.7-0.4,7.1s-0.3,2-0.4,3s-0.1,0.9-0.1,1.1l-0.3,1.6c-0.7,4-1.7,8-3.2,11.8c0,0,0,0,0,0
	c0,0,0,0.1,0,0.1c0,0.1-0.1,0.2-0.1,0.3c-0.1,0-0.1,0-0.1,0.1c-0.1,0.4-0.3,0.8-0.5,1.1l-1.2,2.2l-0.7,1.1c-0.1,0.1-0.2,0.3-0.4,0.4
	s0.1,0,0.3-0.2c-0.6,0.8-1.2,1.5-1.9,2.1c-3.5,4-5.8,8.8-6.9,14c-2,10.9,0.8,22,3.7,32.5c1.5,5.7,3.2,11.4,4.5,17.2
	c1.4,5.6,2.3,11.3,2.5,17.1c0.1,1.1,0.1,2.3,0,3.4c0,0.5,0,0.9-0.1,1.4c0,0.2-0.1,0.3-0.1,0.5c-0.4,2.2-0.9,4.3-1.5,6.4
	c-1.2,4.4-2.7,8.7-4,13.1c-2.2,7.1-5.3,17.6,1.1,23.5c4.5,4.3,11.8,4,17.4,2.9s13.1-4.1,19-7.3c5.7-3.1,11.1-6.9,15.9-11.3l3.4-3.2
	c0.3-0.4,0.7-0.8,1.1-1.1l0.9,1.4c1,1.7,2.1,3.3,3.1,4.9c2,3.1,4,6.2,5.9,9.3c1.5,2.3,4.5,3.1,6.9,1.7c8.7-4.6,14.2-13,17.9-21.9
	s5.3-18.8,8-28.2c0.9-3.6,2.2-7.1,3.8-10.5c1.5,0.6,3.1,1.2,4.7,1.6c5.9,1.5,11.9,2.4,18,2.8c4.6,0.3,10.4,0.7,14.5-1.7
	c2.9-1.6,4.1-5.1,2.8-8.1c-0.8-1.9-1.9-3.8-2.7-5.8l-1-2.3l-1.2-3.3c-1.4-3.9-2.6-8-3.3-12.1l-0.3-1.4v-0.2
	c-0.1-0.8-0.2-1.7-0.2-2.5v-2.5l1,0.7c1.3,0.8,2.6,1.6,3.9,2.3c3.7,1.8,8.4,3.9,12.6,2.9s5.4-6.2,4.6-10.5s-1.6-5.7-2.2-8.6
	c-1.1-5.1-2.8-10.2-4.9-15c-2-4.8-3.9-9.7-6.7-14.1c-1.3-1.9-2.7-3.8-4-5.8s-1.1-1.9-1.5-2.9c-0.1,0-0.1,0-0.1-0.1l-0.2-0.4
	c-0.2-0.6-0.3-1.2-0.5-1.7v-1.1c0-0.1,0-0.1,0.1-0.1c0-0.2,0.1-0.5,0.2-0.7c0.2-0.4,0.4-0.6-0.1,0l0.6-0.8h0.1c0.1,0,0.1,0,0.1-0.1
	l0.8-0.4l0.7-0.2l1.1-0.3c0.5-0.1,1.3-0.1,0.4-0.1h5.8l1.7,0.4l2.5,0.8l0.4,0.2h-0.2l1.3,0.6c3.6,2,7.1-0.6,7.5-4.3
	C907.7,502,903.5,481.4,893.2,463.7z M228.5,583.4C228.2,583.4,228.2,583.3,228.5,583.4L228.5,583.4z M317.6,666.9l0.3-0.4
	C318.1,666.7,317.9,666.9,317.6,666.9z M371.8,678.6C371.1,679.1,371.6,678.7,371.8,678.6L371.8,678.6z M309.1,344.6
	c-4.8,22.1-8.9,44.7-7.5,67.3c0.5,7.6,1.6,15.1,3.4,22.5c0.5,1.9,2.2,3.4,4.2,3.6c2.2,0.3,3.7-0.7,5-2.4c3.1-4,6.5-7.7,10.1-11.2
	c2.1,11.6,4.5,23.2,7.3,34.6c1.4,5.4,4.1,11.3,8.9,14.3c2.7,1.6,5.9,2.1,8.9,1.2c3.6-1.2,5.9-3.9,7.9-6.9s4.8-7.6,7.2-11.5
	c1.7,5.4,3.6,10.8,5.5,16.1c-4.9,1.2-8.8,4.7-10.6,9.4c-2.6,6.4-1.4,14,0,20.4c3.4,15.9,10.6,30.8,13.5,46.8
	c0.1,0.8,0.2,1.6,0.4,2.4c0.1,0.4,0.1,0.9,0.1,1.3c0.1,1.4,0.1,2.9,0,4.3c0,0.2,0,0.4-0.1,0.6c-0.1,0.6-0.3,1.2-0.5,1.7
	c-1.2,3-2,6.1-2.6,9.2c-2.5,13.8,0.4,27.7,4,41c1.8,6.8,3.7,13.6,5.3,20.4c1.6,6.4,2.6,13,2.8,19.6c0,2.7-0.1,5.4-0.4,8.1
	c-0.1,0.1-0.1,0.3-0.1,0.5c-0.1,0.3-0.1,0.7-0.2,1.1l-0.3,1.8c-0.4,1.5-0.7,2.9-1.2,4.4s-0.8,2.4-1.3,3.6c0,0.1,0,0.1-0.1,0.1
	l-0.3,0.8l-1,2l-2.1,3.2l-0.5,0.6l-1.6,1.6c-0.4,0.5-0.9,0.9-1.4,1.3l-0.6,0.4l-1.8,1.1l-0.7,0.3h-0.3c-2.8,1-5.8,1.3-8.7,0.9
	c-6.6-0.8-13.3-4-19.2-7.5c-6-3.5-11.5-7.8-16.3-12.7c-3.1-3.2-7.5-5.6-11.8-3c-1.9,1.1-3,2.9-4.1,4.7l-3.6,5.6l-3.6,5.6l-0.6-0.6
	c-0.8-0.6-1.5-1.3-2.1-2.1c-0.4-0.3-0.7-0.7-1-1.1l-0.5-0.5h-0.1c-1.3-1.8-2.4-3.6-3.4-5.6c-0.5-0.9-1-1.8-1.4-2.7
	c-0.4-0.9-0.4-1-0.5-1.1l-0.6-1.5c-3.4-8.9-4.7-18.4-7.5-27.6c-1.6-5.7-4-11.2-7.2-16.2c-1.1-2-3.4-2.9-5.6-2.3
	c-2.3,0.6-3.4,2.6-3.7,4.8c0.1-1-0.2,0.7-0.2,1c-0.1,0.2-0.2,0.5-0.2,0.7h-0.1c-0.3,0.5-0.5,1-0.8,1.4s-0.1,0.1-0.1,0.2
	c-0.2,0.3-0.5,0.6-0.8,0.8c-0.1,0.2-0.9,0.8-0.8,0.8l-1.5,0.8c0,0.1-0.1,0.1-0.2,0.1l-0.6,0.2l-0.9,0.3h-2.1l-0.7-0.2
	c-0.1,0-1.2-0.4-1.2-0.3l-1.5-0.9H255l-0.6-0.5l-0.7-0.7l-0.3-0.4c-0.6-0.8-1-1.7-1.2-2.6c-0.4-1-0.5-2.1-0.5-3.2
	c0-1.5,0.1-3,0.2-4.5c0.1-1.5,0.8-5.7,1-8.5c0.5-5.4-0.9-10.8-4-15.2c-3.3-4.6-8.5-7.7-14.3-6.1c-1.2,0.4-2.5,0.9-3.6,1.5l0.6-1.9
	c3.6-11.9,12.4-22.5,11.8-35.7c-0.1-6.9-3.5-13.3-9-17.3c-2.6-2-5.8-3.2-9.1-3.4c4.2-21.6,10.9-42.6,19.9-62.6
	c1.4-3.2,0.2-6.2-3-7.4c-3-1.1-6.3-1.5-9.5-1.3c3.2-7.8,7-15.2,11.6-22.3c3.1-4.8,6.4-9.3,10.1-13.6c2-2.4,4.6-4.7,5.9-7.5
	c1.6-2.9,1.5-6.4-0.1-9.3c-1.3-2.2-3.3-3.8-5.7-4.7c14.2-16.3,29.4-31.7,45.5-46.1c0.8,0,1.5-0.1,2.2-0.5L309.1,344.6z M896,578.6
	h-0.5C895.7,578.5,896,578.4,896,578.6z M868,398.1C867.8,397.6,868.1,397.6,868,398.1L868,398.1z M782.9,464.3
	c-0.1,0-0.1,0-0.1-0.1L782.9,464.3z M777.9,464c-0.1,0.1-0.2,0.3-0.2,0.4C777.5,464.7,777.5,464.4,777.9,464z M753.3,559.5
	c0,0.1-0.1,0.1-0.1,0.2L753.3,559.5z M852,608.8c0.3,0.6,0.5,1.2,0.5,1.9C852.4,610,852.3,609.4,852,608.8z M895.9,515.8
	c-5.6-1.1-11.8-1-16.9,1.6c-4,2.2-6.5,6.4-6.6,11c0,5,2.7,9.5,5.4,13.5c1.3,1.9,2.6,3.7,3.7,5.7c1.2,2.1,2.2,4.2,3,6.4
	c2.1,4.6,3.8,9.3,5.3,14.1l2.4,9.5l-0.5-0.2h-0.1c0-0.1,0-0.1-0.1-0.1c-1.5-0.7-2.9-1.4-4.2-2.3c-2.7-1.7-5.3-3.5-8.6-3.3
	c-7.8,0.4-8.8,9.4-8.1,15.4c0.9,8.8,3.8,17.3,7.4,25.4c-2.4,0.1-4.7,0-7.1-0.2l-4.4-0.4h-1.1l-2.2-0.3c-2.6-0.5-5.2-1.1-7.8-1.8
	l-2.8-0.9l-0.4-0.3c-0.2,0-0.3-0.1-0.4-0.2c-0.6-1.2-1.7-2-3-2.3c-2.2-0.6-4.5,0.3-5.6,2.3c-5.6,8.6-8,18.6-10.3,28.5
	c-1.1,4.5-2.2,9.1-3.7,13.5c-0.6,1.8-1.4,3.6-2.2,5.3c-0.9,2-2,3.9-3.2,5.8l-1,1.4l-0.4,0.5c0,0.1-0.2,0.2-0.2,0.3l-2.4,2.6
	l-1.4,1.3l-3.3-5.1c-0.9-1.5-1.9-2.9-2.8-4.3c-1-1.9-2.2-3.6-3.6-5.2c-3.5-3.5-8.3-2.7-11.8,0.2s-4.4,4.3-6.7,6.3
	c-4.7,4-9.9,7.4-15.4,10.2c-5.2,2.6-11.3,5.3-17.3,5.4c-1.2,0.1-2.5,0-3.7-0.3l-0.8-0.3l-0.3-0.2h-0.1c-0.1,0-0.1,0-0.1-0.1h-0.1
	c0-0.1-0.1-0.2,0-0.2c0-0.1,0-0.1-0.1-0.1c0-0.1,0-0.2-0.1-0.3h0.1c-0.1-0.1-0.1-0.2-0.1-0.3c0,0.1,0,0.1-0.1,0.1
	c0.1,0,0.1-0.1,0.1-0.2c-0.1-0.1-0.1-0.2-0.1-0.3c-0.1-0.2-0.1-0.3,0-0.3v-0.2c-0.1-0.9,0-1.7,0.1-2.6V669c0.1-0.4,0.2-0.9,0.2-1.3
	c0.3-1.1,0.5-2.1,0.8-3.1c2.2-8.9,6-17.4,7.1-26.6c0.6-5.5-0.2-11.3-1.1-16.8s-2.5-11.7-4-17.4s-3.1-11.1-4.4-16.6
	c-0.6-2.5-1.1-5-1.4-7.5c0-0.4-0.1-0.9-0.2-1.3c0-0.6-0.1-1.2-0.1-1.8s-0.1-2.6-0.1-3.8c0-0.6,0-1.2,0.1-1.8c0-0.1,0.1-0.9,0.1-1.2
	c0-0.4,0.1-0.7,0.2-1.1c0.1-0.7,0.3-1.4,0.4-2.1c0.2-0.5,0.4-1,0.5-1.6c0.2-0.3,0.3-0.7,0.4-1c0.1-0.1,0.1-0.3,0.2-0.3l0.3-0.8
	l1-1.7l1-1.4c0.1-0.2,0.2-0.3,0.2-0.4l0.4-0.4l1.9-2.1c1.2-1.5,2.3-3.2,3.2-4.9c4.2-7.9,5.6-17.1,6.4-25.9
	c0.7-10.1,0.5-20.2-0.6-30.2c-0.9-9.9-2.7-19.7-5.2-29.3l-1.5-4.8c0.6-2.6,1-5.2,1.2-7.8c0.3-3.6,0.3-7.2,0-10.8l0.8,0.5l0.7,0.6
	c0.5,0.4,0.9,0.8,1.3,1.3l1.4,1.6h0.1c0.3,0.4,0.6,0.8,0.8,1.2c1.3,1.9,2.5,3.9,3.7,5.8c0.1,0.4,0.3,0.7,0.4,1.1
	c0.1,0.4,0.8,2,1.1,3c1.6,4.3,2.9,9.3,6.1,12.7s8.6,2.3,10.8-1.7s2.2-7.3,2.5-10.9c0.4-4.2,0.6-8.5,0.6-12.7c0-3.9-0.1-7.8-0.4-11.6
	c-0.3-3.8-1.3-7.9-1.1-12.4c0-0.3,0.1-0.6,0.1-0.9v-0.6c0.1-0.2,0.1-0.4,0.1-0.6c0.1-0.3,0.2-0.7,0.2-1c0.3-1.2,0.7-2.4,1.1-3.5V415
	c0-0.2,0.1-0.4,0.2-0.4l0.7-1.6c0.6-1,1.1-2,1.7-2.9l2.7-4.9l0.8,2l0.3,0.7c0.2,0.4,0.4,0.9,0.5,1.3c0.4,0.8,0.7,1.6,1,2.4
	c2.2,5.7,4,12.3,7.8,17.2c2.1,2.9,6.6,3.6,8.6,0c7.1-12.1,10.9-25.9,11.2-39.9c0.3-13.7-2.7-27.4-7.4-40.2c-1.1-3-2.3-5.9-3.6-8.8
	c1.1,0.5,2.1,1.1,3.1,1.7c1.7,0.9,3.7,0.7,5.2-0.3l3.2,1.1l3.3,1.3l0.7,0.3l0.9,0.4l2.1,1c5,2.4,9.7,5.2,14.2,8.4l1.7,1.2
	c0,0.1,0.2,0.2,0.3,0.3l0.6,0.5l3.3,2.7c2,1.8,4,3.7,5.9,5.7s1.7,1.9,2.6,2.9l1.1,1.3l0.6,0.8l0.4,0.5c1.7,2.2,3.3,4.4,4.7,6.8
	c1.5,2.5,2.9,5.1,4.1,7.8c0.2,0.3,0.3,0.6,0.4,0.9l0.2,0.3c0,0.1,0,0.2,0.1,0.3l0.3,0.7c-3.4,0.5-6.7,1.7-9.8,3.3
	c-2.8,1.7-5.2,4.4-5.3,7.8c-0.3,4.5,2.3,8.7,6.5,10.4l1,0.4h0.3l0.3,0.2l2.2,1c1.4,0.8,2.8,1.6,4.1,2.5l0.7,0.5
	c-0.1-0.1,0,0,0.1,0.1l0.1,0h0.1l1.7,1.5c1.1,1.1,2.3,2.2,3.3,3.4l0.7,0.9h0.2l1.2,1.8c0.9,1.3,1.7,2.7,2.5,4.1l0.9,2
	c0.2,0.3,0.3,0.5,0.4,0.8c0.1,0.1,0.1,0.1,0.1,0.2c0.6,1.5,1.2,3,1.7,4.5c1.1,3.4,1.9,7,2.6,10.5c0.1,1,0.3,1.9,0.4,2.9
	c0.1,0.1,0.1,0.2,0.1,0.3c-4-0.7-8.2-0.4-12,1c-2.7,0.9-4.2,3.9-3.3,6.6c0.2,0.7,0.6,1.3,1.1,1.8c3.2,3.7,6.1,7.6,8.7,11.8
	c1.2,2.1,2.4,4.2,3.5,6.3l1.6,3.2l0.7,1.5c0.1,0.3,0.2,0.6,0.4,0.9c0,0.1,0.1,0.3,0.1,0.4c1.8,4.4,3.2,9,4.3,13.6
	c1,4.4,1.6,8.9,1.8,13.4C896.1,509.4,896.1,512.6,895.9,515.8z"/>
</svg>
