<?xml version="1.0" encoding="utf-8"?>
<!-- Generator: Adobe Illustrator 24.2.3, SVG Export Plug-In . SVG Version: 6.00 Build 0)  -->
<svg version="1.1" id="a1f0ed79-dabd-47fc-bf34-0064d1cc1891"
	 xmlns="http://www.w3.org/2000/svg" xmlns:xlink="http://www.w3.org/1999/xlink" x="0px" y="0px" viewBox="0 0 1152 864"
	 style="enable-background:new 0 0 1152 864;" xml:space="preserve">
<path d="M392.2,437c-8.8-2-15,4.9-20.2,11c-5.2,6.1-10.5,12.6-15.4,19.2c-2.7,3.7-5.3,7.4-7.8,11.1c-0.9,1.6-0.9,3.5,0,5.1
	c1.7,2.6,4.8,3.9,7.8,3.3c2.6-0.5,4.3-3.8,3.5-6.2c0-0.2-0.1-0.4-0.2-0.6c1.8-2.7,3.7-5.4,5.6-8l2.3-3l1.1-1.5l0.2-0.2l0.2-0.2
	c1.4-1.9,2.9-3.8,4.5-5.7c2.9-3.6,5.8-7.1,8.9-10.5l2.2-2.1l0.6-0.5l1.2-0.8c0.3-0.3,0.8-0.5,1.2-0.6c-0.6,0.2-0.7,0.3-0.1,0.1
	l0.7-0.3h1.1c2.6,0.7,5.4-0.9,6.1-3.5C396.4,440.5,394.8,437.7,392.2,437z"/>
<path d="M728.3,438c-4.7-7.7-13.6-11.6-22.4-9.9c-1.7,0.4-3.3,1.1-5,1.6c0.2-0.2,0.3-0.5,0.4-0.8c0.6-1,1.1-2.1,1.4-3.2
	c0.5-2.2-0.1-4.4-1.7-6c-3-2.7-6.5-1.5-9.8-0.6l-0.5,0.2c1.1-5.7,2.3-11.4,3.5-17.2c0.7-2.7-0.8-5.4-3.5-6.1
	c-1.3-0.4-2.7-0.2-3.9,0.5c-2.9,1.6-4.5,4.7-5.3,7.8c-0.3,1.2-0.5,2.3-0.8,3.5l-0.6,1.8c-0.1,0.4-0.3,0.7-0.4,1.1
	c-0.6,1.2-1.2,2.3-1.9,3.4c-0.3,0.7-0.6,1.3-1.1,1.8l0.3-0.4l-0.4,0.4l-0.6,0.8l-2.7,2.7l-0.7,0.5l-0.3,0.2l-1.7,1.2
	c-2.2,1.6-2.7,4.8-1.1,7c1.4,1.9,3.9,2.6,6.1,1.6c1.3-0.8,2.5-1.7,3.7-2.6c0.4,2.7,3,4.5,5.6,4c0.2,0,0.4-0.1,0.6-0.1l5.1-1.5
	c-0.4,2.2,0,4.5,1.1,6.4c1.6,2.5,4.3,4,7.3,4.1c2.1-0.1,4.2-0.6,6.2-1.4l2.4-0.8l1.1-0.2h0.1c0.1-0.1,0.2-0.1,0.2,0h2.6l1.3,0.3
	l1.4,0.4c0,0.1,0.1,0.1,0.3,0.1l0.2,0.2c0.8,0.4,1.6,0.9,2.4,1.4h0.1c0.1,0.1,0.2,0.2,0.2,0.3l1,0.9c0.1,0.2,0.2,0.3,0.4,0.4
	l0.8,1.2c1.4,2.4,4.4,3.2,6.8,1.9c2.4-1.3,3.2-4.4,1.9-6.8C728.4,438,728.3,438,728.3,438z M693,423.4l0.2-0.5
	C693.2,423.1,693.1,423.2,693,423.4z"/>
<path d="M826.9,503.5c-0.3-0.1-0.5-0.2-0.8-0.3c-4.6-1.3-9.3-2.2-14.1-2.7l0.4-0.7c1.3-3.1,0.3-6.2-3-7.4l-8.3-2.9l-4.1-1.4
	l-0.4-0.2l-0.4-0.2h-0.3v-0.5h-0.1c0-0.1,0.1-0.1,0.1-0.2v-0.4c0.1-0.2,0.2-0.4,0.2-0.6c0.2-0.3,0.4-0.6,0.5-0.9
	c0.1,0,0.1,0,0.1-0.1l1.1-1.2l3-2.6c2.4-1.9,1.7-6.5-1-7.8c-4.8-2.4-10.1-3.4-15.4-2.9c0.1-0.4,0.2-0.9,0.4-1.3l0.2-0.8
	c0.1-0.2,0.2-0.3,0.3-0.4c0.3-0.7,0.6-1.3,1-1.9l0.6-0.9c0-0.1,0.4-0.5,0.4-0.6l1.3-1.4c2.6-2.6,1.5-7.5-2.2-8.3l-3.6-0.7
	c0-0.2,0-0.3,0.1-0.5c2.2-15.2,0.2-30.4-3.6-45.1s-8.8-28.4-13.5-42.5c-4.7-14.1-9.5-28.8-14.2-43.2s-8.8-27-13.9-40.2
	c-2.7-6.8-5.5-13.5-8.8-20c-2.8-5.9-6.2-11.5-10-16.8c-7.7-10.3-19-19.5-32.7-17c-6.7,1.3-12.3,5.7-17.2,10.1s-9.3,9-13.8,13.6
	c-8.9,9.5-17.3,19.6-25,30.1c-15.4,20.9-28.1,43.7-37.8,67.8c-0.3,0.6-0.5,1.2-0.7,1.8c-6.9,4.2-13.9,8.3-21,12.2l-7.7,4.1
	c-1-0.8-2.3-1.4-3.6-1.6c-2.2-0.4-4.5,0-6.4,1.2c-2.4-1.8-5.2-2.7-8.2-2.6c-3.1,0.2-6.1,1.4-8.6,3.3c-0.8-1.2-1.6-2.3-2.5-3.4
	c-1.3-1.3-3.1-1.7-4.8-1.3c-1.9,0.5-2.8,1.9-3.5,3.5c0.5-1.1-0.1,0.1-0.1,0.3c-0.2,0.2-0.3,0.5-0.4,0.7l-1,1.8l-1.1,1.6
	c-0.1,0.2-0.1,0.3-0.2,0.3l-0.6,0.7c-0.8,1-1.7,1.9-2.7,2.8l-0.7,0.6c-6.2-6.1-13.4-11-21.3-14.5c-4.9-2.1-10.1-3.7-15.4-4.8
	c-5.1-0.8-10.2-1.3-15.4-1.5l-1.9-0.2h-1c-1.3-0.2-2.5-0.4-3.7-0.8l-0.8-0.3h-0.2l-1.5-0.8l-0.6-0.3c-0.5-0.4-1.1-1-1.5-1.5
	c-1.5-1.4-3.6-1.8-5.5-1c-0.5,0.2-0.9,0.5-1.3,0.9l-46.1-56.8l-26.1-32.1c-7.5-9.2-15.7-20.3-28.1-22.7c-3.6-0.8-7.3-0.6-10.8,0.4
	c-3.1,1.1-5.9,2.8-8.4,5c-4.5,4-7.8,9.3-10.9,14.4c-6.6,10.9-11.4,22.9-15.4,35c-8.5,25.1-14.8,50.9-20.3,76.7s-10,52.7-14.3,79.1
	l-1.5,8.6l-31.2-8c-3.4-0.9-7.6,2.4-6.2,6.1c4.7,12.5,10.2,24.6,16.5,36.4c-3.1,3.5-4.6,8.1-4.2,12.7c-2.5,2-4.4,4.8-5.3,7.9
	c-0.8,2.8-1.4,5.6-1.8,8.4c-0.6,2.9-1.1,5.8-1.5,8.7c-2,12.2-3.4,24.5-4.1,36.8c-0.3,6.8-0.5,13.6-0.4,20.5c0,2.8,2.2,5,5,5
	c2.8,0,5-2.2,5-5c-0.1-11.3,0.4-22.5,1.4-33.7l0.9-8.2c0.1-1.3,0.3-2.6,0.5-3.9v-0.2c0-0.3,0.1-0.6,0.1-0.9s0.3-1.6,0.4-2.4
	c0.8-5.5,1.7-11,2.8-16.4c0.3-1.6,0.6-3.2,1-4.8c0.1-0.5,0.2-0.9,0.4-1.4c0-0.2,0.1-0.4,0.2-0.5l0.6-1.2c2.7,0.4,5.2-1.6,5.6-4.3
	c0.1-1.1-0.1-2.1-0.6-3.1l-0.3-1v-0.3c-0.1-0.1-0.1-0.3-0.1-0.4v-1.5c0.1-0.1,0.1-0.2,0.1-0.4l0.3-0.9c0-0.2,0-0.4,0.1-0.6
	c0-0.1,0.1-0.1,0.1-0.3c0.3-0.5,0.6-1,1-1.5c0.3-0.2,0.5-0.4,0.7-0.7l0.3-0.2l0.2-0.3h0.4c2.3-1.5,3.1-4.5,1.8-6.9
	c-3.5-6.2-6.7-12.5-9.6-18.9l-2.1-4.7l-1.1-2.4c-0.1-0.3-0.2-0.5-0.3-0.8c-0.1-0.3-0.2-0.6-0.4-0.8l-0.5-1.4l39.6,10.2
	c2,0.5,4-0.2,5.3-1.8c1.2-1.6,1.4-3.8,0.4-5.5l-0.3-0.5v-0.5v-0.1l0.3-0.5l0.3-0.4l0.3-0.3h0.9c2.5,0.3,5.2-2.5,5-5
	c0-0.2,0-0.4-0.1-0.6l8.2,4.3c2.3,1.2,5.5,0.7,6.8-1.8c1.4-2.3,0.6-5.3-1.7-6.7l-0.1-0.1L289.1,444c-2-1.1-4.5-0.8-6.1,0.8
	c-1.5,1.6-1.8,4-0.8,6c-0.4-0.9,0.2,0.5,0.2,0.6l0.3,0.9c0.3,0.8,0.5,1.6,0.7,2.4c0,0.1,0,0.1,0.1,0.1c-2.7,1.6-4.7,4.1-5.7,7.1
	l-1.5-0.4c4.2-25.6,8.5-51.2,13.5-76.6c5-25.4,11.2-51.2,18.9-76.3c1.8-5.9,3.7-11.9,5.8-17.7c1.1-2.8,2.1-5.6,3.3-8.4
	c0-0.1,0.3-0.7,0.3-0.8s0.2-0.3,0.2-0.5l0.9-2.1l2.1-4.4c2.6-5.5,5.6-10.7,9.1-15.7l1-1.5c0.2-0.2,0.3-0.4,0.4-0.6l0.3-0.3
	c0.9-1.1,1.9-2.2,2.9-3.2c0.4-0.5,0.9-1,1.4-1.4c0.2-0.1,0.4-0.4,0.6-0.4l0.2-0.2l1.5-0.9l0.8-0.4h0.2l1.9-0.5l0.8-0.2h2.9l1.5,0.3
	l1.9,0.6l0.6,0.3l0.6,0.2l3.7,2.2l0.8,0.6l0.4,0.2l1.3,1.1l3.1,3c2,2,3.8,4.1,5.6,6.3c8.5,10.3,16.9,20.8,25.3,31.1l51.4,63.2
	c0.2,0.4,0.5,0.8,0.8,1.1H442l-1.1-0.4l-4.1-2.1c-2.6-1.3-6.9-0.4-7.4,3l-0.5,3.9l-4.6-1.7l-1.2-0.5h-0.5l-2.4-1.1l-4.7-2.3
	c-6.3-3.2-12.3-6.9-18-11.1c-1.7-1.3-4.7-0.7-6.1,0.8c-1.5,1.6-1.8,4-0.8,6c3.2,5.3,6,10.8,8.6,16.4l0.9,2.1
	c0.2,0.3,0.3,0.6,0.4,0.9l0.3,0.7c0.6,1.3,1.1,2.6,1.6,3.9c0.1,0.4,0.3,0.9,0.5,1.3c-0.1,0-0.2,0-0.2-0.1c-2.4-0.4-5.8,0.6-6.2,3.5
	c-0.1,1.1-0.2,2.1-0.2,3L394,385c-1.7-0.4-3.5,0-4.8,1.3s-1.8,3.2-1.3,4.9c0,0.1,0,0.3,0.1,0.4v2.1c0,0.2,0,0.4,0,0.6
	c-0.1,0.5-0.4,1.7-0.5,2c-0.1,0.5-0.3,0.8-0.4,1.3c-0.1,0-0.1,0-0.1,0.1c-0.3,0.7-0.7,1.4-1.1,2l-0.3,0.4c-0.2,0.2-0.4,0.6-0.6,0.7
	c-0.2,0.1-1.1,1.5-1.7,1.7l0.3-0.2l-0.5,0.3l-1.2,0.7c-2.4,1.4-3.2,4.5-1.8,6.9c1.5,2.3,4.5,3.1,6.9,1.8c5.6-3.2,9.4-8.8,10.5-15.1
	l4,1.3c1.9,0.5,4-0.1,5.2-1.7c1.2-1.6,1.4-3.8,0.4-5.6v-0.2c-0.1-0.2-0.2-0.4-0.2-0.6l2.2,0.4c2.7,0.8,5.4-0.7,6.2-3.4
	c0.3-0.9,0.3-1.9,0-2.8c-2.1-6.3-4.5-12.5-7.2-18.5c7.5,4,15.4,7.3,23.6,9.9c2.4,0.7,5.8-0.9,6.2-3.5c0.4-2.6,0.3-2.1,0.4-3.2
	c3.9,1.6,7.9,3,12,4c2.7,0.7,5.4-0.9,6.1-3.5c0.1-0.4,0.2-0.8,0.2-1.3c0-1.2,0.1-2.5,0.1-3.8c6.3,2.1,13.8,1.7,20.1,2.4h0.9l2,0.4
	l3.7,0.8c2.5,0.6,5,1.4,7.4,2.3l1.4,0.6h0.1l0.9,0.4l3.6,1.7c2.2,1.2,4.4,2.4,6.5,3.8l1.6,1.2l0.8,0.6l0.6,0.4l0.5,0.4l0.9,0.7
	l1.5,1.3c2.2,1.9,4.2,4,6.1,6.2c1.9,2,5.1,2,7.1,0c0.6-0.7,1-1.5,1.2-2.3c2.3-1.6,4.4-3.6,6.2-5.8c1.3,2.5,4.3,3.5,6.8,2.3
	c0.5-0.2,0.9-0.5,1.3-0.9l2-2l1.2-1.1l0.5-0.4l2.1-1.3l0.4-0.2l1.1-0.2h0.5l0.7,0.2h0.3l0.5,0.3h0.1c0.1,0.1,0.1,0.3,0.1,0.4
	c0.8,3.7,5.9,5,8.4,2.3l1.2-1.3c0.3,0.5,0.7,1,1.2,1.4c1.6,1.3,3.8,1.4,5.6,0.4c9.2-4.7,18.3-9.7,27.2-15c0.5,0.3,1,0.6,1.6,0.8
	c2.7,0.7,5.4-0.9,6.2-3.5l1-2.7l5.6-3.6l1.9-1.3c-0.4,2.1-0.9,4.1-1.4,6.2c-1.5,5.8-3.3,11.5-5.4,17.1c-1,2.4,1,5.6,3.5,6.1l2,0.4
	c0.3,1.8,1.2,3.5,2.4,4.8c1.6,1.6,3.8,2.5,6.1,2.3c0.7,0,1.4-0.1,2.1-0.3l0.7-0.3h0.1c0.3,0.2,0.6,0.5,0.8,0.8l0.8,1l0.2,0.2
	c1.2,1.8,2.7,3.4,4.5,4.6c1.5,1,3.2,1.6,5,1.8c0.2,0.7,0.5,1.5,0.7,2.3c0.9,2.4,3.5,4.3,6.2,3.5s4.4-3.5,3.5-6.2
	c-0.9-2.3-1.6-4.7-2.1-7.2c-0.6-1.9-2.2-3.3-4.2-3.6c-1.3-0.2-2.6,0.2-3.6,1l-0.4-0.2l-0.7-0.7c-0.1,0-0.1,0-0.1-0.1l-0.6-0.8
	c-0.6-0.7-1.1-1.5-1.8-2.2c-1-1.3-2.2-2.4-3.6-3.2c-1.9-1-4.1-1.3-6.3-1h-0.1c0-0.3,0.1-0.6,0.1-0.9c0.3-1.7-0.2-3.4-1.4-4.6
	c-0.6-0.5-1.2-0.9-1.9-1.2c3.2-9.8,5.5-19.9,6.8-30.1c0.5-3.7-4.6-6.3-7.5-4.3l-5.1,3.4c2.2-4.8,4.5-9.6,7-14.3
	c5.8-11.1,12.2-21.8,19.2-32.1l5.4-7.6l2.7-3.7c0.5-0.5,0.9-1.1,1.3-1.7c0.2-0.2,0.4-0.4,0.5-0.7c0.3-0.3,0.6-0.6,0.8-0.9
	c3.8-4.9,7.7-9.6,11.8-14.2c4.1-4.6,8.4-9.3,12.8-13.7l6.8-6.6l3.1-2.7l1.8-1.5h0.1l1.3-0.9c1.3-0.8,2.6-1.6,3.9-2.3h0.2l0.9-0.3
	c0.7-0.3,1.5-0.5,2.3-0.6l0.9-0.2h4.1l1.1,0.3c0.7,0.1,1.4,0.3,2,0.6h0.3l0.5,0.2c1.4,0.6,2.7,1.3,3.9,2.2c0.5,0.3,1,0.7,1.5,1.1
	c-0.9-0.9,0.6,0.4,0.8,0.7s2.3,2.1,3.4,3.2l2.7,3.1l0.4,0.5l0.4,0.5l1.4,1.9c1.7,2.6,3.3,5.2,4.8,7.9c3.3,6,6.3,12.2,9,18.5v0.2
	h-0.1c0.1,0,0.1,0,0.1,0.1c0.1,0.1,0.2,0.4,0,0.1s0.3,0.7,0.5,1l0.8,2.1c0.7,1.7,1.4,3.4,2,5.1c1.2,3.2,2.4,6.3,3.5,9.5
	c2.3,6.5,4.4,12.9,6.5,19.4c4.7,14,9.3,28,13.9,42s9.4,27.8,13.7,41.8c2.2,6.9,4,13.8,5.4,20.9c0.3,1.6,0.5,3.2,0.8,4.7
	s0.1,1,0.2,1.5v0.2c0,0.1,0.1,0.2,0.1,0.3l0.3,2.8c0.3,3.5,0.5,7,0.5,10.5v0.4c-9.2,1.2-18,4.5-25.7,9.6c-2.2,1.4-3.3,4.5-1.8,6.8
	s4.5,3.4,6.8,1.8c1.8-1.2,3.7-2.3,5.7-3.3l2.8-1.3l1.2-0.5l1.4-0.6c2.1-0.7,4.2-1.3,6.3-1.8h0.4c-0.2,0.8-0.4,1.6-0.7,2.4l-0.3,1
	l-0.6,1.1c-1.4,2.5-0.4,5.6,2,6.9c1.1,0.6,2.4,0.8,3.7,0.5l1-0.2c-1.8,4-2.6,8.4-2.2,12.8c0,1.5,0.7,3,1.9,3.9
	c1.2,1,2.9,1.4,4.4,0.9c1.4-0.5,2.8-0.9,4.2-1.2h3.4l-0.6,1.1c-1.7,3.5-1.7,7.5,0,11c1.9,3.7,5.8,4.9,9.4,6.1l3.5,1.3h-0.3
	c-0.3,0.3-0.7,0.5-1.1,0.7c-4.2,2.5-2.5,9.5,2.5,9.3c3.9,0,7.8,0.2,11.7,0.6h0.5l1.4,0.2l1.6,0.3c-1.3,1.6-2.7,3.2-4.2,4.7
	c-1.9,2-1.9,5.3,0.2,7.2c0.6,0.5,1.3,1,2,1.2c0.8,0.1,1.6,0.3,2.3,0.7h-0.3l0.7,0.3l0.8,0.5h0.1c0.1,0,0.1,0.1,0.2,0.2h0.1
	c0,0.3-0.1,0.6-0.2,0.8c-0.1,0.4-0.2,0.9-0.4,1.3l-0.9,2.8c-0.4,2.4-0.6,4.9-0.4,7.4c0.3,9.4,0.5,18.8,0.8,28.2c0,2.8,2.2,5,5,5
	s5-2.2,5-5c-0.3-10.1-0.8-20.3-0.9-30.5c0-0.5,0-1,0.1-1.5v-0.5c0-0.1,0-0.3,0.1-0.4c0.3-1.1,0.7-2.2,1-3.3c1-2.5,1.1-5.2,0.3-7.8
	c-0.8-2-2.1-3.8-3.9-5.1c1.9-2.3,3.6-4.7,5.2-7.2C830.4,507.9,829.4,504.8,826.9,503.5z M287.3,464.9
	C287.5,464.3,287.5,464.6,287.3,464.9L287.3,464.9z M287.3,465.1v0.2C287.2,465.2,287.2,465.2,287.3,465.1
	C287.2,464.9,287.3,464.9,287.3,465.1z M818.2,525.9C818.4,526,818.2,526,818.2,525.9L818.2,525.9z M818.3,526.5
	c-0.1,0,0.1-0.1,0.1-0.2C818.4,526.4,818.4,526.5,818.3,526.5z"/>
</svg>
