<?xml version="1.0" encoding="utf-8"?>
<!-- Generator: Adobe Illustrator 24.2.3, SVG Export Plug-In . SVG Version: 6.00 Build 0)  -->
<svg version="1.1" id="ac74238e-1c29-4e49-aa6a-76c8730b5684"
	 xmlns="http://www.w3.org/2000/svg" xmlns:xlink="http://www.w3.org/1999/xlink" x="0px" y="0px" viewBox="0 0 1152 864"
	 style="enable-background:new 0 0 1152 864;" xml:space="preserve">
<path d="M350.2,405.3c0.1-0.2,0.1-0.7,0.2-0.9c0-0.6,0.1-1.1,0.2-1.7c0.4-1.9,0.9-3.8,1.4-5.7s1.1-3.9,1.8-5.9c0.7-2,0.7-1.8,1-2.6
	l0.6-1.5c0.1-0.2,0.1-0.4,0.2-0.6c0.1-0.1,0.1-0.1,0.1-0.2c1.7-3.8,3.5-7.4,5.5-11c7.7-14,17.8-26.6,26.1-40.3
	c4.9-7.9,8.9-16.3,11.9-25.1c0.8-2.5-0.6-5.2-3.2-6c-0.1,0-0.2-0.1-0.3-0.1c-2.6-0.7-5.4,0.9-6.1,3.5c-0.6,1.9-1.3,3.8-2.1,5.6
	c-0.1,0.2-0.1,0.4-0.2,0.6c0,0.2-0.1,0.3-0.2,0.5H387c-0.1,0.2-0.1,0.4-0.2,0.6c-0.1,0.2-0.9,2-1.4,2.9c-1.7,3.6-3.6,7.1-5.6,10.5
	c-4.1,6.9-8.6,13.5-13.2,20.2c-9.4,13.8-18.7,27.9-23.6,43.9c-2.9,8.9-3.8,18.4-2.8,27.7c0.3,2.6,2.1,5.1,5,5c2.9-0.1,5.3-2.2,5-5
	c-0.5-3.9-0.6-7.9-0.3-11.9L350.2,405.3z"/>
<path d="M893.3,494.7c-3.9-13.5-10.2-26-17.5-37.9c-7.3-11.9-14.7-22.2-19.3-34.6c-3.9-10.8-4.9-22.3-7.1-33.5
	c-1.2-6-3.1-11.9-5.6-17.5c7.9,4.7,14,11.9,17.4,20.5c0.5,1.9,1.1,3.8,1.7,5.7c1.9,6.2,11.1,3.6,9.7-2.6c-0.6-2.3-1.3-4.7-2.2-6.9
	c-7.8-24.8-17.1-50.3-37.1-67.8c-4.9-4.4-10.4-8.1-16.4-11c-6-2.9-12.3-4.7-18.6-6.7s-11.8-3.8-16.7-7.6c-4.9-3.8-8.5-9.8-12.2-15
	s-10.3-12.4-18.1-15l-2.3-0.7c1.9-3,3.1-6.3,3.8-9.8c0.7-4.3,0.8-9-1.7-12.7c-1.2-1.9-2.9-3.3-5-4c1.1-5.2,0.8-10.6-0.9-15.6
	c-1.2-3.7-3.2-7.2-5.7-10.2c-1.2-1.3-2.5-2.5-3.9-3.6c-1.1-0.9-2.6-1.9-2.7-3.4s0.6-2.9,1.1-4.1s1.5-3.9,2-5.9
	c0.9-4,0.9-8.2,0.2-12.2c-1.3-8-5.7-15.1-12.4-19.6c-5.3-3.7-11.6-5.6-18.1-5.4c0.3-5.2-1-10.3-3.7-14.7c-4.5-7.3-12.1-12-20.4-13.8
	c-4.3-0.9-8.7-1.2-13.1-1l-5.6,0.6c-1.8,0.2-3.2,0.5-4.4-0.7c-2.6-2.8-4.5-5.8-7.6-8.2c-3.2-2.6-6.8-4.7-10.7-6.2
	c-6.7-2.6-14-3.1-21-1.7c-3.2-7.3-11.1-12.1-19.3-12s-14.2,4.2-19.2,9.7c-4.3-6.6-11-11.1-19.6-10.4s-17.5,5.8-21.4,13.8
	c-2.2-1.7-4.6-3.1-7.2-4.1c-10.9-4-23,1.6-26.9,12.5c-0.4,1.1-0.7,2.3-1,3.5c-6.5-3.2-13.7-5-20.6-1.7c-4.3,2.1-7.7,5.7-9.3,10.2
	c-2.9-1-5.9-1.5-9-1.3c-5.6,0.6-10.9,2.9-15,6.7c-4.8,4.2-9.4,12-8.4,18.7c-4.3,0.7-9,0.2-13.3,0.9c-4.9,0.7-9.3,3.4-12.2,7.4
	c-4.3,6.2-8.1,17.2-3.8,24.2c1.3,2,3.2,3.1,5.2,4.2l0.5,0.3l-0.8,0.8c-3.5,3.6-7.9,5.8-10.4,10.3c-2.7,4.7-3.5,10.2-2.4,15.5
	c0.4,2.2,1.3,4.3,2.5,6.2c1.5,2.3,3.6,4.1,5.2,6.3l0.7,1.2c0.2,0.2-0.1,0.2,0,0.5l-0.4,0.4l-1.4,0.7l-3,1.1
	c-4.7,1.7-8.9,3.8-10.6,8.9c-0.8,2.3,0.5,4.4,2.3,5.7l1.7,1.2c-25.6,14.4-48.8,32.8-68.8,54.3c-11.1,11.9-21.6,24.8-29.4,39.1
	c-3.9,7.1-6.9,14.7-9,22.5c-2.2,8.5-2.9,17.3-5.9,25.6c-5.8,15.7-18.5,28.1-22.1,44.9c-1.1,5.4,6.1,8.8,9.2,3.8
	c3-4.8,6.4-9.4,10.2-13.7c-6.8,11.4-13.4,22.9-19.9,34.4c-10.5,18.7-20.6,38.4-24.4,59.7c-2.2,11.9-1.9,24.1,0.9,35.9
	c1.4,5.5,9.8,4.2,9.9-1.4c0.1-8.3,1.7-16.4,4.5-24.2c-0.1,2.4,0,4.9,0.3,7.3c1,8.6,3.5,16.9,7.5,24.5c7.6,15.1,18.8,27.9,26.9,42.7
	c4.2,7.8,7.5,16.2,7.9,25.1c0.4,6.4,9.8,6.5,10,0c0.7-19.7,0.7-39.5-0.2-59.2c-0.6-14.7-1.9-29.9,1.9-44.3l0.3-0.7
	c0.8,14.7,5.3,29.3,9.6,43.3l5.9,19.1c0.7,2.4,3,3.9,5.5,3.6c2.3-0.4,4.5-2.5,4.3-5s-0.1-3-0.1-4.5s0.1-1.3,0.2-2v-0.6l0.3-1.3
	c0.5-2.9,1.3-5.8,2.3-8.6c0.3-0.6,0.5-1.2,0.8-1.9c0-0.1,0-0.1,0.1-0.2l0.5-1.1l2-4.2c1.5-2.8,3.1-5.5,4.7-8.2
	c3.4-5.5,6.9-10.9,10.1-16.4c3.6-6.1,6.8-12.3,9.7-18.7v2.9c0,2.5-0.2,5-0.5,7.5c0,0.6-0.1,1.1-0.2,1.7c0,0.2-0.1,0.5-0.1,0.7
	s-0.4,2.6-0.7,3.9c-0.8,4.8-2,9.5-3.4,14.1c-2.7,9.5-6.1,18.8-9.2,28.2c-6.1,18.7-10.8,39.2-6,58.7c0.6,2.3,1.3,4.5,2.2,6.7
	c0.6,2.2,2.5,3.7,4.8,3.7c2.2,0,4.2-1.5,4.8-3.7c0.8-2.5,1.7-4.9,2.6-7.3c0.2-0.6,0.5-1.1,0.7-1.7c0.1-0.4,0.3-0.7,0.5-1.1
	c0.5-1.2,1.1-2.5,1.7-3.7c2.2-4.7,4.7-9.2,7.5-13.5c1.5-2.3,3-4.4,4.5-6.6c0.4-0.4,0.8-0.9,1.1-1.4h0.1l0.5-0.7
	c0.9-1.1,1.8-2.1,2.6-3.2c3.3-3.9,6.9-7.6,10.7-11.1c-3.1,12.4-3.5,25.3-1.2,37.8c2.5,14.6,8.7,28.3,18,39.8c1.5,1.4,3.6,1.8,5.5,1
	c1.8-0.8,3.1-2.5,3.1-4.5c0-13.3-0.1-26.8,3-39.8c3.1-13,8.2-22.1,14.5-32.3s13.3-20.1,19.1-30.6c6.1-11.1,10.7-23,13.6-35.3
	c6-25.4,4.5-51.3-2.9-76.2c-7.4-24.9-19.3-47.5-26.6-72.1c-6.7-22.4-9.9-46.9-1.2-69.1c1-2.5,2.1-4.9,3.4-7.3
	c1.4-2.4,0.7-5.4-1.6-6.9c-2.4-1.4-5.4-0.7-6.9,1.6l-0.1,0.1c-12.1,22.1-11.8,48.2-6.4,72.2c5.4,24,17.3,48.1,25.8,72.2
	c4.2,11.8,7.9,24.4,9.4,36.7c1.5,12.3,1.3,24.7-0.7,36.9c-1.9,12.2-5.6,24.1-11,35.3c-5.3,11-12.1,21.1-18.7,31.3
	c-6.6,10.2-13,21.2-17.1,32.9c-4.1,11.7-5,22.2-5.4,33.6c-3-6.2-5.3-12.8-6.7-19.5c-2.4-11.8-2.2-24,0.8-35.7
	c3.5-13.3,11-24.7,17.7-36.5s12.5-25.7,14.7-40c2.6-16.2,1.5-32.8-3-48.6c-0.8-2.6-3.5-4.2-6.2-3.5c-2.7,0.8-4.2,3.5-3.5,6.2
	c4,13.4,5.1,27.5,3.3,41.4c-1.7,13.7-6.7,26.8-13.6,38.9c-4.1,7.1-8.4,14.2-12.1,21.6c-17.9,12.4-32.3,29-42,48.5
	c-0.4,0.7-0.7,1.4-1,2.2c-0.3-3.9-0.3-7.7-0.1-11.6l0.3-3.4c0.1-0.6,0.2-1.1,0.2-1.7c0-0.1,0.1-0.2,0.1-0.3s0.1-0.8,0.1-0.9
	c0.3-2.3,0.8-4.7,1.3-7c1-4.7,2.2-9.3,3.6-13.9c5.6-18.9,13.5-37.1,15.8-56.9c1.1-10.3,0.1-20.5-1.5-30.7c-0.8-5-1.7-10-2.6-15
	c-0.2-1.2-0.3-2.4-0.5-3.6l-0.3-1.8c0-0.2-0.1-0.5-0.1-0.8c0-0.2,0-0.4-0.1-0.5l-0.6-6.3c-0.7-8.5-0.7-17,0.1-25.5l0.3-3
	c0-0.5,0.1-0.9,0.1-1.3c0.1-0.3,0.1-0.6,0.1-0.9c0-0.1,0.1-0.6,0.1-0.8c0.1-0.3,0.1-0.6,0.2-0.9c0-0.5,0.1-1,0.2-1.5
	c0.2-1.1,0.3-2.2,0.5-3.2c0.8-4.2,1.7-8.3,2.8-12.3s2.5-8.1,3.9-12l1.2-2.8l0.3-1c0.1-0.1,0.2-0.3,0.2-0.4c0.1-0.3,0.3-0.7,0.5-1
	c0.8-1.9,1.6-3.7,2.5-5.5c1.9-3.8,4-7.5,6.3-11.1c1.1-1.8,2.3-3.5,3.5-5.2l1.8-2.5l0.7-0.9c0-0.1,0-0.1,0.1-0.1l0.6-0.9l4.1-4.8
	c1.7-1.9,2.1-5.1,0-7c-1.9-2-5.1-2-7.1,0c-11.6,13.2-20.5,28.7-26,45.4c-5.5,16.6-8.1,34.1-7.5,51.6c0.3,9.6,1.8,19.1,3.4,28.6v0.2
	c-0.7,0.8-1,1.8-0.9,2.8c0.1,1.6,0,3.3-0.1,4.9v0.2c-0.1,0.1-0.1,0.2-0.1,0.3c-0.1,0.3-0.1,0.6-0.2,0.9c-0.1,0.3-0.4,2-0.7,3
	c-0.3,1-0.9,3-1.4,4.4c-0.3,0.9-0.6,1.7-1,2.5v0.2c-0.3,0.5-0.5,1-0.7,1.6c-2.9,6.4-6.1,12.6-9.6,18.7c-6.5,11.2-14.2,21.6-19,33.7
	c-1.3-4.2-2.6-8.5-3.8-12.7c-1.2-4.2-2.8-10.5-3.8-15.9c-0.2-1.3-0.5-2.6-0.7-3.9s-0.1-0.6-0.1-0.9s0-0.4-0.1-0.5V535
	c-0.1-0.5-0.1-0.9-0.2-1.4c-0.3-2.7-0.5-5.4-0.5-8.1c0-2.9,0.1-5.8,0.4-8.7c0.1-0.2,0.1-0.3,0.1-0.5c0-0.1,0.1-0.8,0.1-0.9
	s0.3-1.5,0.4-2.3l0.6-2.6c2.3-2.5,1.1-5.6-1.2-7.1c-0.5-0.5-1.1-0.8-1.8-0.9c-2.3-0.6-4.7,0.5-5.8,2.6
	c-10.6,10.6-14.2,25.6-15.2,40.2c-0.3,7.7-0.3,15.4,0.2,23.1c0.4,10.1,0.8,20.2,0.9,30.3v4.6c-2.9-5.3-6.2-10.4-9.6-15.5
	c-9-13.2-19.4-26.6-22.6-42.7c-2.5-12,0.8-24.2,3.9-35.8c1.2-4.6-5-8.7-8.4-4.9c-4,4.6-7.5,9.6-10.5,14.9c1.8-7.1,4.1-14,7-20.7
	c8.3-19.6,19.6-38,30.3-56.3c6.4-11,12.9-22,19.6-32.9c2.5-4.2-2.6-9.4-6.9-6.8c-3.7,2.3-7.2,4.8-10.6,7.5c1.2-2.1,2.3-4.2,3.3-6.3
	c3.6-7.6,5.3-15.4,6.9-23.6c1.4-7.9,3.7-15.7,7-23c6.7-14.2,16.3-26.8,26.7-38.4c10.3-11.5,21.5-22.1,33.6-31.8
	c13.7-11,28.4-20.6,43.9-28.7c3.6-1.9,2.8-6.5,0-8.6l-3.2-2.3l3.2-1.2c4-1.5,8-3.7,9.3-8.1c1.3-4.4-2.2-10.3-5.8-14.4
	c-2.4-2.7-3.4-6.4-2.5-9.9c1.1-4.6,4.5-6.6,7.9-9.4c3.4-2.8,7.6-7.8,5.8-13.1c-0.9-2.7-2.9-4.4-5.4-5.7l-1.7-0.8l-0.2-0.8
	c-0.1-1.3,0-2.7,0.3-4c0.3-1.8,0.8-3.5,1.6-5.1c0.7-1.7,1.7-3.2,2.8-4.6l0.7-0.7l1.1-0.5c1.2-0.6,2.6-0.9,3.9-1.1
	c3.1-0.4,6.3-0.1,9.5-0.4c3.7-0.2,7.3-1.2,10.6-2.9c2.4-1.4,3.1-4.5,1.7-6.9c-0.2-0.3-0.4-0.7-0.7-0.9l-0.3-0.3v-0.2
	c-0.1-0.3-0.1-0.9-0.2-0.8c0-0.3,0-0.7,0.1-1c0,0.2,0.3-1.3,0.4-1.6c0.1-0.2,0.2-0.5,0.2-0.7l0.4-0.8l1.2-2.1
	c0.3-0.5,0.7-1.1,1.2-1.5c0.7-0.7,1.4-1.4,2.1-2c1.2-1,2.6-1.9,4-2.6l3.9-1.2c3.9-0.3,7.8,1,10.8,3.6c2,1.6,4.5,2,6.6,0.4
	c2-1.6,2.5-4.3,1.3-6.5c-0.8-1.4-0.7-2.6,0.3-4.2c1.2-1.8,3-3.1,5.1-3.7c6.2-1.6,13.1,3.5,18.1,6.7c3.4,2.3,9.1-1.5,7.4-5.6
	c-0.4-0.9-0.7-1.9-0.9-2.9c-0.1-0.1-0.1-0.2-0.1-0.3v-0.2c-0.1-0.4-0.1-0.8,0-1.2v-0.8c0-0.2,0.1-0.7,0.1-0.8
	c0.1-0.5,0.2-0.9,0.4-1.4l0.3-0.8c1.3-3,2.8-4.3,5.7-5.8h0.4l1.3-0.4l1.3-0.3h0.5c1.7-0.1,3.4,0.1,5,0.7c4,1.4,7.8,5.4,10.3,9.3
	c3.5,5.4,11.5,0.7,8.6-5.1v-0.2c0-0.1,0-0.2-0.1-0.3l-0.2-0.8v-0.8c0-0.2,0-0.5,0.1-0.7c0.1-0.3,0.6-1.8,0.4-1.7l1.2-2l0.3-0.5l1-1
	l1.9-1.8l0.6-0.4l1.5-0.9l1.1-0.6l0.8-0.4c1-0.4,2-0.7,3-0.9l1-0.2h1.1c0.6-0.1,1.1-0.1,1.7,0h0.7l2.6,0.7h0.2l0.7,0.3l1.2,0.7
	l0.3,0.3l0.5,0.4c0.4,0.3,0.8,0.7,1.1,1.1c0.7,0.7,1.3,1.5,1.8,2.4c0.7,1.2,1.3,2.5,1.8,3.9c-1,5,6.4,8.7,9.2,3.6
	c2.8-5.1,8.7-12,15.2-12.7c2.9-0.4,5.9,0.4,8.2,2.2c2.1,1.3,3.4,3.4,3.7,5.8c0.2,3,3.1,6,6.4,4.9c11.8-4.2,25-0.2,32.5,9.9
	c2.9,3.7,6.2,6.1,11.1,6.1s7.5-0.9,11.3-0.8c6.6,0,13.8,1.7,18.5,6.3c2.3,2.3,4,5.1,4.8,8.2c0.9,2.8,0.7,5.8-0.4,8.5
	c-1.8,3.8,1.2,8.7,5.7,7.4c11.7-3.5,24.4,4.2,26,16.7c0.4,3,0.1,6-0.8,8.8c-1.1,3.7-3.1,7.2-2.9,11.2s2.5,7.4,5.7,10.1
	c7.5,5.7,10.2,15.7,6.5,24.4c-1.4,2.4-0.5,5.5,1.9,6.8c1.1,0.6,2.5,0.8,3.7,0.5c0.3-0.1,1.3-0.1,1.1-0.2h0.6l0.3,0.2v0.2
	c0.2,0.5,0.3,0.9,0.4,1.4c0.1,0.4,0.1,0.8,0,1.2c0,0.4-0.1,1.8-0.1,1.6c-0.1,0.7-0.2,1.5-0.4,2.2c-0.2,0.8-0.5,1.6-0.8,2.4v0.3
	c0,0.1-0.1,0.1-0.1,0.2c-0.2,0.3-0.4,0.7-0.5,1.1l-1.5,2.4l-0.4,0.6l-0.5,0.6l-2,1.5c0.4-0.4-0.9,0.7-1.3,0.9l-0.5,0.2l-1,0.4
	c-1.2,0.2-2.4,0.8-3.4,1.6c-2.2,1.8-1.6,5.2,0,7.1c1.6,1.9,4.7,1.6,6.9,1.5c2.2-0.1,4.8-1,7.2-1c5.6,0,10.6,4.5,14,8.8
	s7.3,10.9,11.7,15.8c4.4,4.9,10.6,8.4,16.9,10.9s12.2,4,18.3,6.1c5.8,2,11.2,4.8,16.2,8.4c9.8,7.2,17.5,17.2,23.3,27.9
	c2.3,4.1,4.3,8.3,6.1,12.6c-6.3-4.4-13.5-7.2-21-8.3c-2.4-0.3-4.8,0.4-5.9,2.9c-0.9,2.3,0,5,2.1,6.3c3.6,2.7,6.4,6.3,8.3,10.4
	c2,4.5,3.5,9.2,4.4,14.1c2.3,10.8,3.2,21.9,6.6,32.5c4.1,12.5,11.1,23.7,18.1,34.7s13.8,22.7,18.1,35.3c0.2,0.9,0.5,1.8,0.8,2.6
	c-2.7-4.3-5.5-8.5-8.4-12.5c-11.9-16.5-25.5-31.9-34.8-50.1c-4.7-9.2-8.1-19.8-8.6-30.1c0-2.8-2.2-5-5-5s-5,2.2-5,5
	c1,20.6,10.8,38.8,22.5,55.3l2.3,3.3c-0.3,0.7-0.5,1.4-0.6,2.2c-1.4,22.5,6.9,44.1,15.5,64.5c4.1,10,8.4,19.8,11.8,30.1
	c1.6,5.1,3,10.2,4.1,15.4c0.3,1.3,0.5,2.5,0.7,3.8l0.3,1.9c0.1,0.3,0.1,0.5,0.2,0.8c0,0.2,0,0.5,0.1,0.7c0,0.1,0.1,0.7,0.1,0.7
	c0,0.3,0,0.6,0.1,0.9c0,0.6,0.1,1.3,0.2,1.9l0.3,3.9c0.1,2.1,0.1,4.2,0.1,6.3c-2.1-11.6-5.3-22.9-11.3-33.1
	c-9.8-16.8-26.4-27-41.5-38.4l-1.6-1.2l-0.8-0.6l-2.8-2.4c-2-1.6-3.9-3.3-5.8-5c-1.8-1.8-3.6-3.6-5.2-5.6l-1.2-1.4l-0.4-0.5h-0.1
	l-2.4-3.3c-1.3-2.1-3.9-3-6.2-2c-2.4,1-3.3,3.4-2.9,5.9c2.4,13.7,4.9,27.4,9.4,40.6c2.3,6.7,5.1,13.3,8.6,19.5
	c3.1,5.6,6.7,10.9,10.3,16.2s7.3,10.5,10.6,16c1.7,2.7,3.2,5.5,4.5,8.4l0.9,1.8l0.3,0.8c0.1,0.2,0.2,0.5,0.3,0.7
	c0.7,1.6,1.2,3.2,1.8,4.9c1,3.3,1.8,6.6,2.3,10c0.1,0.4,0.2,0.9,0.2,1.3l0.3,2.6c0.2,1.8,0.3,3.5,0.3,5.3c0.1,3.4,0,6.9-0.3,10.3
	c-0.1,1.6-0.3,3.2-0.5,4.8c0,0.3-0.1,0.5-0.1,0.6c0-0.1,0-0.2,0-0.2c-0.1,0-0.1,0.8-0.1,1.2s-0.4,2.1-0.5,3.1
	c-1.7,8.7-3.9,17.2-6.7,25.6c-3.5-17.4-10-34.1-19.2-49.3c-3.7-6.1-7.9-11.9-12.5-17.4c-1.5-1.4-3.6-1.8-5.5-1c-1.8,0.8-3,2.6-3,4.6
	c-0.1,2.9-0.2,5.8-0.5,8.6c-0.1,0.7-0.2,1.5-0.2,2.2c-0.1,0.3-0.1,0.6-0.2,0.9s-0.4,2.9-0.7,4.4c-1.2,5.6-2.8,11.1-4.9,16.5
	c-0.2,0.6-0.4,1.2-0.7,1.8l-0.4,0.9c-0.6,1.4-1.3,2.8-2,4.2s-2.7,5-4.1,7.4s-2.3,3.5-3.5,5.2c0.8-5.3,1.2-10.5,1.7-15.4
	c1.7-20.7,0.8-41.4-2.5-61.9c-1.8-11.4-4.4-22.7-7.8-33.7c-0.8-2.6-3.5-4.1-6.1-3.5c-2.9,0.8-4,3.5-3.5,6.1
	c6.3,40.7-1.4,82.3-21.7,118.1c-2.7,4.6-5.6,9.8-8.9,13.7c0,0.1,0,0.1-0.1,0.1c4.6-10.9,8.7-22,11.1-33.6c1.8-8.3,2.5-16.9,2-25.4
	c-0.5-8.3-2.4-16.5-3.6-24.7s-1.7-16.4,1.9-23.7c1-2.3,0.8-4.9-1.3-6.5c-2-1.5-4.8-1.3-6.6,0.4c-11.7,12.4-22.9,25.3-33.6,38.6
	c6.1-21,16.6-41,23.1-61.9c4.6-14.6,6.9-29.6,5.7-44.9c-1.2-15.3-5.3-32.5-6.5-48.8s0.3-31.5,9.3-44.6c1.5-2.2,0.4-5.6-1.8-6.8
	c-2.2-1.2-5.2-0.4-6.9,1.7c-15.2,19.7-28.4,40.9-39.4,63.3c2.8-14.8,7.4-29.3,12.1-43.6c7.9-24.2,16.1-48.6,17.8-74.2
	c1-14.1-0.7-28.3-5-41.8c-0.8-2.6-3.5-4.1-6.1-3.5c-2.5,0.7-4.4,3.6-3.5,6.2c7.8,23.4,5,48.4-1,71.9s-15.8,47.8-21.8,72.3
	c-3.3,13.9-5.5,28.1-5.2,42.4c0.1,2.5,1.9,4.6,4.4,4.9c2.6,0.3,4.5-1.2,5.5-3.6c8.5-21.6,19.1-42.3,31.6-61.8
	c-1.4,19.1,3.4,39.2,5.7,57.8c1.1,8.3,1.4,16.7,0.8,25.1c-0.6,6.9-1.9,13.8-3.9,20.5c-3.9,14.1-9.7,27.5-15.2,41
	c-6.2,15.5-11.8,31.2-13.8,47.9c-0.2,2.2,1.8,4.3,3.7,4.9s4.3-0.6,5.7-2.3c10.6-14.1,21.9-27.7,33.6-40.8c0.1,9.8,2.5,19.7,3.8,29.4
	c2.2,16.4-1.3,32.5-6.8,47.8c-3.2,8.8-7,17.4-10.9,26c-1.4,3.2,0.2,7.7,4.4,7.5c11.6-0.7,18.7-10.4,24.4-19.4
	c5.9-9.4,11-19.4,15.1-29.7c5.8-14.4,9.9-29.5,12.1-44.9c0,0.6,0.1,1.3,0.1,2c0.6,9.7,0.6,19.4,0,29.1c-0.5,8.8-1.2,17.8-3.1,26.5
	c-0.8,3.8-2,7.5-3.7,11c-0.2,0.6-0.5,1.1-0.8,1.6c-0.4,0.2-0.7,0.5-1,0.8l-0.9,0.7c0,0.1-0.2,0.2-0.3,0.3l-2.1,1.5
	c-1.2,0.9-2.1,2.2-2.4,3.7c-2,1.6-2.5,4.3-1.3,6.5c1.5,2.3,4.5,3.1,6.9,1.8c3.5-2.3,6.5-5.3,8.8-8.8c16.4-14.3,27.8-33.4,32.6-54.6
	c0.5-2.4,1-4.8,1.3-7.3l2.4,3.6c3.1,5,6,10.2,8.5,15.5l1.8,4c0.2,0.3,0.3,0.7,0.4,1h0.1l0.9,2.2c1.1,2.7,2.1,5.5,3,8.3
	c1.9,5.6,3.4,11.4,4.5,17.2c0.4,1.6,0.6,3.2,0.9,4.8s0.3,1.7,0.4,2.5s0.1,0.7,0.1,1.1c0.1,0.2,0.1,0.3,0.1,0.5
	c0.4,3.3,0.7,6.7,0.9,10c0,2.5,1.9,4.6,4.3,4.9c2.4,0.4,4.8-1.1,5.5-3.5c10-26.6,20.2-55.7,13.7-84.4c-2.9-13.1-9.8-24.6-17.3-35.5
	c-3.6-5.3-7.4-10.6-10.8-16.1c-1.8-2.8-3.4-5.7-4.9-8.6c-0.8-1.4-1.5-2.9-2.2-4.4l-0.7-1.8c-0.1-0.3-0.2-0.5-0.4-0.8l-0.6-1.7
	c-3.4-8.9-6-18-7.8-27.3l6.4,5.5c3.8,3,7.7,5.8,11.5,8.7l5.6,4l2.5,1.9l1.5,1.1l0.6,0.5h0.2c3.5,2.7,6.9,5.6,10.1,8.7
	c1.7,1.6,3.2,3.2,4.7,4.9l1.9,2.4h0.1l0.4,0.6l1.2,1.7c1.4,2.1,2.7,4.3,3.9,6.5l1.5,3l0.8,1.7c0,0.2,0.1,0.4,0.2,0.5l0.3,0.7
	c1.8,4.7,3.3,9.4,4.4,14.3c0.6,2.8,1.2,5.5,1.7,8.3l0.6,4.1c0,0.4,0.1,0.7,0.1,1.1s0.1,0.1,0.1,0.2l0.3,2.2
	c0.7,5.7,1.1,11.4,1.6,17.2c0.2,2.1,1.4,4.3,3.7,4.8c2.2,0.6,4.5-0.4,5.6-2.3c10.4-19.7,8.7-42.7,2.8-63.5s-16.8-40.8-23.5-61.9
	c-1.9-5.9-3.4-12-4.4-18.2c0-0.2-0.1-0.5-0.1-0.8s-0.1-0.6-0.1-0.8c-0.1-0.6-0.2-1.2-0.2-1.8c-0.2-1.3-0.3-2.6-0.4-3.9
	c8.4,11,16.8,22,23.4,34.2c2.6,4.7,4.8,9.5,6.5,14.6c0.9,2.6,1.6,5.2,2.2,7.8c0.6,2.5,1,5.1,1.3,7.7c0,2.8,2.2,5,5,5s5-2.2,5-5
	C899.2,522.8,897.4,508.5,893.3,494.7z M360.1,515.6C360,516,360,515.8,360.1,515.6L360.1,515.6z M419,194.1
	C418.9,193.8,419.9,193.4,419,194.1L419,194.1z M742.9,247.3C743,247.6,743,247.8,742.9,247.3L742.9,247.3z"/>
<path d="M762.6,329.3c-0.6-1.2-1.6-2-2.9-2.3c-2.4-0.6-5.8,0.7-6.2,3.5c-1.3,10.3,0,20.8,3.9,30.4c3.8,9.4,8.9,18.3,15,26.4l4.4,5.9
	c0.8,0.9,1.5,1.9,2.2,2.8l1.6,2.1l0.6,0.7c0.1,0.2,0.2,0.4,0.4,0.5c3,3.9,5.9,7.8,8.7,11.8c2.9,4.1,5.6,8.3,7.9,12.7
	c1.2,2.1,2.3,4.3,3.3,6.6c0.3,0.5,0.5,1,0.7,1.6l0.3,0.5c0,0.1,0.1,0.2,0.1,0.3l1.5,3.8c1.9,5.1,3.4,10.4,4.5,15.8
	c0.3,1.4,0.5,2.8,0.7,4.2c0.2,0.7,0.3,1.3,0.4,2c0,0.2,0,0.3,0,0.4c0,0,0.1,0.8,0.1,0.9c0.4,2.8,0.6,5.6,0.7,8.4
	c0.1,2.7,2.3,4.9,5,5c2.6-0.1,5.2-2.2,5-5c-0.9-20.4-7.2-40.3-18.3-57.5c-2.7-4.1-5.6-8.1-8.5-12l-5-6.5l-1.1-1.4l-0.4-0.5l-0.2-0.3
	l-2.3-3c-6-7.8-11.7-15.9-15.9-24.7l-0.9-2.1l-0.3-0.5c0-0.2-0.1-0.3-0.2-0.5c-0.5-1.3-1-2.6-1.4-3.9c-0.9-2.6-1.7-5.2-2.2-7.9
	c-0.1-0.6-0.3-1.2-0.4-1.9c-0.1-0.7-0.1-0.6-0.1-0.8c0-0.2-0.1-0.6-0.1-0.8v-0.3c-0.1-0.4-0.1-0.7-0.1-1.1c-0.1-0.7-0.2-1.4-0.2-2.1
	c0-1.3-0.1-2.6,0-3.9s0.1-1.5,0.1-2.2c0.1-0.3,0.1-0.6,0.1-0.9c0-0.2,0.2-1.5,0.1-0.4C763.5,331.8,763.3,330.5,762.6,329.3z"/>
<path d="M771.3,472.4c0.1-0.8,0.2-1.6,0.3-2.4l0.6-3.2c0.4-2.5-0.8-5.5-3.5-6.1c-2.7-0.6-5.7,0.7-6.2,3.5c-3.4,18-2.3,36.6,3.4,54.1
	c0.9,2.5,3.5,4.4,6.2,3.5s4.4-3.5,3.5-6.1c-1.4-4.1-2.5-8.3-3.3-12.5l-0.6-3.2c-0.1-0.5-0.1-0.9-0.2-1.4c0-0.4-0.1-0.8-0.2-1.2
	l-0.6-5.9c-0.3-4.2-0.3-8.5,0-12.7C770.8,476.6,771,474.5,771.3,472.4z"/>
</svg>
