<?xml version="1.0" encoding="utf-8"?>
<!-- Generator: Adobe Illustrator 24.2.3, SVG Export Plug-In . SVG Version: 6.00 Build 0)  -->
<svg version="1.1" id="a6094de5-a817-4eb2-b0f5-807ddb6d0e55"
	 xmlns="http://www.w3.org/2000/svg" xmlns:xlink="http://www.w3.org/1999/xlink" x="0px" y="0px" viewBox="0 0 1152 864"
	 style="enable-background:new 0 0 1152 864;" xml:space="preserve">
<path d="M916.2,394.8c-3-10.9-9.9-20.1-17.3-28.5c-7.4-8.4-17-18.8-25.5-28.2s-19.2-21.3-28.9-31.9c-4.7-5.2-9.5-10.4-14.2-15.7
	c-2.2-2.5-4.4-5-6.5-7.7s-4.6-5.2-3.6-7.1c1.4-2.4,0.6-5.5-1.8-6.9c-6.7-4.2-14.6-4.2-22.2-4.1c-7.6,0.1-14.5,0.4-18.3-6.5
	c-2.1-3.7-3.6-7.8-6.6-11c-2.7-2.7-6.2-4.6-9.9-5.5c-7.4-1.9-15.2-0.4-22.6-2.1s-10.3-8-14.4-13.5c-2.3-2.9-4.7-5.7-8-7.5
	c-3.3-1.8-8.6-2.2-13.2-2.7c-7.8-0.8-12.3-9.2-18.2-13.4c-7.5-5.4-17.1-5.8-26.1-5.7c-9.6,0.3-19.2-0.8-28.5-3.1
	c-9.6-2.6-18.9-6.1-27.9-10.4c-9.5-4.3-18.2-9-28.7-10.2c-10.5-1.2-19.5,0.2-28.9,2.4c-21.2,5-42.1,11.9-63,18
	c-19.3,5.6-40.7,9.2-55.9,23.3c-7.2,6.6-13.4,13.4-22.3,17.9c-8.9,4.5-17.2,6.5-26.2,8.5c-14.5,3.1-32.1,6.9-39.2,21.5
	c-0.8,1.6-1.4,3.2-2.2,4.7l-1.3,2c-0.1,0.2-0.2,0.4-0.4,0.5c-2-0.4-4,0.6-5,2.3c-6.4,10.6-15.9,18.7-24.9,26.9
	c-9.2,8.5-17.8,17.5-25.8,27.1c-16.1,19.3-30.5,41-38.8,64.9c-8.3,23.9-8.8,48,3.2,69.7c10.7,19.5,29.2,34.3,37.5,55.2
	c7.3,18.3,8.5,41.3,24.9,54.5c4.6,3.7,10.4,6.9,16.5,5.3c6.1-1.6,9-6.1,11.1-10.9c3.9-9,6.8-18.4,8.7-28c1.8,9.3,4.3,18.5,7.5,27.5
	c0.4,1.3,1.8,2.1,3.1,1.8c1.3-0.4,2.1-1.8,1.7-3.1c-4.6-13.1-7.8-26.7-9.6-40.5c7.3-45.1,3.7-92.5,20.4-135.7
	c9.3-23.8,26.2-43,40.8-63.7s26-43.4,24.4-68.4c-0.4-6-1.5-11.9-3.5-17.5c-0.9-2.7-3.9-4.2-6.6-3.3c-0.1,0-0.1,0.1-0.2,0.1
	c5.8-4.8,10.8-10.5,16.7-15.2c7.6-6.2,17.2-8.8,26.5-11.5l63.4-18.4c18.6-5.4,38.9-12.6,58-5.1c9.5,3.7,18.5,8.7,28,12.4
	c9.3,3.8,19,6.3,28.9,7.7c9.3,1.2,18.6,0,27.8,1.1c4,0.4,7.8,1.8,11.1,4.2c3,2.4,5.4,5.5,8.3,8c2.9,2.9,6.5,5,10.5,6
	c4.1,1,9-0.1,12.7,2.1c5.7,3.4,8.4,10.9,13,15.5c4.6,4.6,13.5,7.2,21.4,7.5s15.3-0.8,19.4,5.7c2.3,3.6,3.7,7.8,6.5,11.1
	c2.5,2.9,5.7,5,9.4,6.1c7.3,2.3,15.1,1,22.5,1.5c2.1,0.1,4.3,0.4,6.3,1.1c0.1,3.6,1.3,7.1,3.5,10c3.8,5.1,7.8,9.9,12.1,14.5
	c8.7,9.7,17.5,19.3,26.2,28.9l26.9,29.7c7.9,8.7,16.6,17.2,22.7,27.3s7.4,22.1,5.9,34.2c-1.4,12-4,23.9-7.5,35.5
	c-3.5,11.2-8.9,21.7-15.8,31.1c-6.6,9.2-14.2,17.6-21.3,26.3c-13.1,16.1-25.1,35.1-26.2,55.8c-0.1-0.2-0.1-0.5-0.2-0.7
	c-6.9-22.2-3.2-45.4-0.1-67.9c3.1-22.5,5.1-42.9,0.9-64.6c-7.6-38.7-29.5-72.7-46.6-107.7c-9.6-19.6-17.8-40-21.4-61.7
	c-0.8-4.9-8.6-4.6-9.6,0c-5,22.9,3.2,45.4,13.8,65.5c5.4,10.5,11.6,20.5,16.8,31.1c4.9,9.9,8.7,20.3,11.5,31
	c11.4,43.1,8,88.3,13.4,132.3c1.4,11.7,3,23.7,6.6,35c0.3,1,0.6,2,1,2.9c-1.1,2.7-2.4,5.3-3.8,7.8c-3.6,6.5-8,12.5-11.9,18.7
	c-2.3,3.7-4.2,7.9-3.8,12.3c0.1,1.3,1.2,2.4,2.5,2.5c1.3,0,2.7-1.2,2.5-2.5c-0.3-3.6,1.3-6.8,3.1-9.7s4-6.1,6-9.1
	c3-4.4,5.6-9,8-13.8c3.3,6.5,7.9,12.2,14.5,15.8c2.5,1.3,5.6,0.4,6.9-2.1c0.6-1.1,0.8-2.3,0.5-3.5c-4.3-22.2,9-43.4,22.3-59.9
	s29.6-33.8,37.6-55.2c4.3-11.4,6.8-23.4,8.9-35.3C918.2,418.5,919.5,406.5,916.2,394.8z M405,308c-12.5,20.7-29.4,38.6-41.2,59.8
	c-22.9,41.5-21.6,90-26.5,135.7c-1.1,11.4-3,22.8-5.4,34c-1.4,5.8-2.9,11.5-4.8,17.1c-1.3,3.9-2.7,10.3-6.3,12.9s-9.1-2.5-11.6-5.1
	c-3-3.3-5.4-7.1-7.2-11.2c-4-8.7-6-18.2-8.8-27.4c-3-10.1-7.7-19.6-13.7-28.2c-6.2-8.7-13.3-16.8-19.7-25.4
	c-6.4-8.6-11.8-17.9-14.3-28.5c-2.5-10.6-2-22.5,0.4-33.4c5.3-23.4,18.1-44.5,32.3-63.5c7.2-9.7,15.2-18.8,23.7-27.4
	c8.3-8.3,17.5-15.7,25.5-24.3c3.4-3.6,6.5-7.5,9.2-11.6c6.1-1.4,8-8.2,11.4-13.7c3.4-5.5,10.4-9.1,16.8-11.2
	c6.4-2.1,15.8-3.7,23.7-5.7s18.6-5.9,26.6-11.2l2.5-1.8l-0.2,0.2l-34.7,51.6c-11,16.3-22.1,32.6-30.3,50.6
	c-16.2,35.3-25.1,74.5-29.3,112.9c-2.5,22.2-3.1,44.6-2,66.9c0.4,6.4,10.4,6.5,10,0c-2-38.7,1.5-77.6,10.4-115.3
	c4.5-18.6,10-37.3,17.5-54.9c7.5-17.6,18-33.9,28.7-49.8l31.9-47.3C422.3,271.9,415,291.6,405,308z M827.3,494.3
	c-1,7.6-2.2,15.3-3.1,23c-1.8-18-2.4-36.1-3.4-54.2c-1.1-21.4-2.8-42.8-7.5-63.7c-0.6-2.9-1.3-5.7-2.1-8.5
	c6.3,13,11.2,26.5,14.8,40.5C831.1,452.3,830.2,473.1,827.3,494.3z"/>
</svg>
