<?xml version="1.0" encoding="utf-8"?>
<!-- Generator: Adobe Illustrator 24.2.3, SVG Export Plug-In . SVG Version: 6.00 Build 0)  -->
<svg version="1.1" id="bb0ad4a7-5481-4d58-a40e-8cd5b8a604fd"
	 xmlns="http://www.w3.org/2000/svg" xmlns:xlink="http://www.w3.org/1999/xlink" x="0px" y="0px" viewBox="0 0 1152 864"
	 style="enable-background:new 0 0 1152 864;" xml:space="preserve">
<path d="M413.5,322.3l1-0.4l0.5-0.2l2.7-1.1l9.2-3.5c12.6-4.4,25.7-7.5,38.9-9.5l1.3-0.2l0.9-0.2h0.9l1.8-0.2l5.3-0.6l11.6-0.8
	c2.7-0.1,4.9-2.3,5-5c-0.2-2.6-2.2-5.1-5-5c-27.9,1.2-55.3,7.6-80.8,18.9c-7.1,3.1-13.9,6.6-20.6,10.5c-2.4,1.4-3.1,4.5-1.7,6.9
	c0.7,1.1,1.7,1.9,2.9,2.2l7.4,2.2c-11.4,13.2-21,27.8-28.8,43.4c-2.6,5.3-5,10.7-7.2,16.2c-0.9,2.5,1.1,5.6,3.5,6.2
	c2.7,0.7,5.4-0.9,6.2-3.5c0.4-1.1,0.8-2.2,1.3-3.2c0-0.1,0-0.2,0.1-0.2c0.1,0,0.1-0.4,0.2-0.6l0.9-2c1-2.2,2-4.5,3.1-6.7
	c2.1-4.3,4.3-8.6,6.7-12.8c2.4-4.2,5-8.2,7.7-12.2l4.2-6.1l2.1-2.7l1-1.4c0.3-0.4,0.3-0.5,0.3-0.4l0.5-0.6c3.4-4.3,7-8.5,10.7-12.5
	c1.9-2,1.9-5.3-0.2-7.2c-0.6-0.5-1.3-1-2-1.2l-3.4-1l7.3-3.5L413.5,322.3z"/>
<path d="M509.4,381.6c-6.5-1.8-13.1-3.1-19.8-3.8c-2.3,0-4.2,1.5-4.8,3.7c-0.5,2,0.2,4.7,2.3,5.7c1.7,0.8,3.3,1.7,4.8,2.8h0.2
	c0.4,0.3,0.8,0.6,1.1,1l1.7,1.6c-19.6-1.9-39.3,2-56.6,11.3c-5.7,3.2-11.1,6.9-16.1,11.1c-2,1.7-1.9,5.3,0,7.1c2,1.9,5,1.9,7,0
	l1.6-1.3l0.8-0.6h0.1l3.4-2.5c2.2-1.5,4.4-2.9,6.7-4.2c2.4-1.3,4.8-2.6,7.3-3.7l1.6-0.7h0.1l0.8-0.3l4.1-1.6c5-1.7,10.2-3,15.4-3.9
	l2-0.3h1.1l3.9-0.4c2.7-0.2,5.3-0.2,8-0.2c3,0,6.1,0.2,9.1,0.5h1.3l2.2,0.3l4.7,0.9c1.7,0.5,3.6,0,4.8-1.3c1.3-1.2,1.8-3.1,1.3-4.8
	c-0.9-2.5-2-4.8-3.4-7c2.2,0.7,4.5,1.3,6.6,2.1l3.7,1.4l1.8,0.8H518l0.5,0.2l1.1,0.4c5,2.3,9.9,4.9,14.5,7.9
	c2.3,1.5,4.6,3.1,6.8,4.8h0.2l0.6,0.5l1.5,1.3c1.2,0.9,2.3,1.8,3.3,2.8c4.6,4.1,8.9,8.6,12.7,13.4c1.6,2.1,5.4,1.9,7,0
	c1.6-1.9,1.8-4.8,0-7C551.6,401.4,531.8,388.1,509.4,381.6z"/>
<path d="M1004,408.2c-0.2-0.4-0.3-0.8-0.5-1.1c-19.3-29.1-48.2-49.8-78.7-65.9C890,323,852.5,310.4,817.7,292
	c-5.1-2.7-10.2-5.5-15.2-8.5s-7.3-4.4-10.3-7.4s-6.3-8.2-8.9-13l6.4-1.1c1.9-0.3,3.4-2.4,3.6-4.1c0.2-2-0.7-3.9-2.4-5l-27.1-18.8
	l0.9-0.5c3.1-1.8,3.4-6.9,0-8.6c-30.3-14.9-64.2-18.3-97.4-18.8h-22.1l0.6-3c0.5-2.9-1.4-6.7-4.9-6.3c-22.3,2-43.8,9.5-62.5,21.9
	c-0.3,0.2-0.6,0.4-0.8,0.7c-25.2-9.8-51.9-15.4-79-16.5c-3.4-0.1-5.3,3.1-4.9,5.9c-19.3,2.7-38.5,6.6-57.3,11.8
	c-2.2,0.7-3.7,2.8-3.7,5.1c-24.7,6.7-48.5,16-71.3,27.6c-7.2,3.7-14.2,7.6-21.1,11.7c-2.3,1.4-3.1,4.4-1.7,6.7
	c0.4,0.7,1.1,1.4,1.8,1.8c-1.8,2.7-3.4,5.6-4.8,8.5c-3.4,6.8-6.9,14.2-8.6,21.7c-0.5,1.8,0.2,3.8,1.6,5c-1.9,1.2-3.8,2.3-5.7,3.3
	c-5.9,3.1-11.7,5.3-17.7,7.9c-13.8,5.9-26.6,14.4-38.8,23c-7.2,5.1-14.2,10.4-21,16c-1.6,0.8-2.9,2.3-3.5,4
	c-0.2,0.6-0.3,1.3-0.2,1.9c-8.7,0.1-3.9,0.3,0.1,0.3c0.1,0.6,0.4,1.2,0.7,1.8l-3.1,2.1l-11.6,7.8c-7.6,5.4-15,11-22.1,16.8
	c-14.3,11.7-27.8,24.5-40.2,38.2c-7.1,7.9-13.8,16.1-20.2,24.5c-1.2,1.6-0.7,4.2,0.4,5.6c1.2,1.6,3.3,2.3,5.2,1.8l1.8-0.5l8.4,24.6
	c0.6,2.2,2.6,3.7,4.8,3.7c0.9,0.1,1.8,0,2.7-0.2c15.4,29.9,34.1,58,55.7,83.7c6.3,7.5,12.9,14.8,19.7,21.8c1.6,1.6,4.1,1.9,6,0.7
	h0.2l1.8,1.2l6.1,3.9l13,8.3l25.5,16.4c2.4,1.4,5.4,0.6,6.8-1.8c0.6-0.9,0.8-2,0.7-3.1l20.3,13.1c4.3,2.8,10.6,8,15.4,3.3
	c2.8-0.3,5.5-1.5,7.6-3.4c5.3-4.7,6.3-13.2,6.4-19.8c0.1-6.6-1.5-15.1-3-22.5c-0.8-3.5-1.5-7-2.1-10.5c-0.2-1.4-0.5-2.9-0.7-4.3
	c0-0.4-0.1-0.9-0.2-1.3c0-0.2,0-0.5-0.1-0.7c-0.1-0.8-0.2-1.5-0.2-2.3c-1.6-13.1-1.9-26.3-0.9-39.5c0.3-3.2,0.6-6.5,1-9.8
	c0-0.3,0.1-0.7,0.1-1.1s0.1-0.1,0.1-0.2v-0.2l0.3-2.1c0.3-1.8,0.5-3.5,0.8-5.2c1.2-6.5,2.6-13,4.4-19.3c1.9-7.1,4.2-14,6.9-20.8
	l1.1-2.7c0.1-0.3,0.2-0.7,0.4-1l0.3-0.8l2.2-4.8c1.6-3.5,3.3-6.9,5.1-10.2c0.9-1.8,0.8-4-0.4-5.6c-1.3-1.6-3.3-2.3-5.3-1.8
	c-8,2.9-15.6,6.9-22.6,11.7l0.3-0.4l1-1.1c0.7-0.8,1.4-1.7,2.2-2.5c6.2-6.6,12.7-12.9,19.3-19.1s13.6-12.5,20.7-18.4l10.6-8.7
	l5.4-4.2l0.6-0.5l1.3-1l2.9-2.2c8.3-6.3,16.7-12.2,25.4-18c2.2-1.4,3.3-4.5,1.8-6.8s-4.5-3.4-6.9-1.8c-16,10.7-31.5,22.2-46.3,34.5
	c-14.6,12-28.4,25-41.4,38.7c-3.5,3.7-6.9,7.6-9.2,12.1c-2.7,4.9-3.8,10.6-3,16.2c0.6,3.8,6,4.7,8.4,2.2c2.3-2.4,4.8-4.7,7.4-6.9
	l2-1.6h0.3l1-0.8l4.2-2.8c1.7-1.2,3.5-2.3,5.4-3.3c-8.7,19.5-14.4,40.3-16.9,61.5c-1.5,12.6-1.9,25.4-1,38.1
	c0.4,6.6,1.2,13.1,2.2,19.6s2.7,13.2,3.9,19.9c0.1,0.9,0.3,1.9,0.4,2.8c0.1,0.4,0.2,0.8,0.2,1.2s0.1,0.7,0.2,1.1c0.2,2,0.3,4,0.4,6
	c0,1.9,0,3.9-0.2,5.8c-0.1,0.2-0.1,0.4-0.1,0.6c-0.1,0.5-0.2,0.9-0.3,1.4c-0.1,0.7-0.3,1.5-0.5,2.2l-0.3,0.9c0,0.2,0,0.3-0.1,0.5
	c-0.2,0.7-0.6,1.4-1,2c-0.1,0-0.1,0-0.1,0.1h-0.1l-0.7,0.8H340l-0.6,0.2h-0.8l-0.5-0.2c0-0.1-0.1-0.2-0.1-0.3
	c-1.4-2.4-4.5-3.2-6.9-1.8l-1,0.8l-2.4-1.6l-9.2-5.9l-18.4-11.8c-1.8-1-4-0.9-5.6,0.4c-1.4,1-2.1,2.7-1.9,4.4l-21.9-14l-15.1-9.7
	c-2.2-1.4-4.6-2.5-7.2-2.2c-22.6-24-42.5-50.5-59.2-79c-5-8.5-9.6-17.1-14-25.8c-1.2-2.2-3.9-3.1-6.2-2.1
	c-2.8-8.1-5.5-16.1-8.2-24.2c-0.3-0.7-0.7-1.3-1.1-1.9c24-29.8,52.6-55.5,84.7-76.3c4.6-3,12.9-6.8,11-13.8c0-0.1,0-0.2-0.1-0.3
	c11.6-9.1,23.7-17.5,36.3-25.2c5.9-3.6,11.9-6.8,18.2-9.7c5.5-2.4,11.8-4.8,17.6-7.8c5.8-3,12.4-7.2,16.5-13.1
	c2.2-3.2-0.7-7.6-4.3-7.5h-1c0.2-0.4,0.3-0.9,0.5-1.3c1.6-4.2,2.5-6.4,4.5-10.6c1.7-3.6,3.7-7.1,5.9-10.5l0.5-0.6l0.3-0.5l1.6-1.6
	h0.1c0.1,0,0.1,0,0.1-0.1h0.2l0.4-0.2l-0.3,0.2c2.6-0.3,4.6-2.4,4.6-5c0-0.9-0.2-1.7-0.7-2.5c20.7-11.4,42.4-20.8,64.9-27.9
	c7.7-2.4,15.4-4.6,23.2-6.5c2.3-0.7,3.8-2.9,3.6-5.3c19.1-4.9,38.6-8.5,58.2-10.7c2.2-0.3,4.1-1.3,4.8-3.4
	c22.8,2.2,45.1,7.6,66.3,16.1c2,0.9,4.4-0.4,5.6-2.3l0.5-0.2c15.5-10.3,33-17.1,51.4-19.9c-0.1,0.8-0.3,1.5-0.4,2.3
	c-0.6,3.1,1.3,6.4,4.8,6.3c32-0.3,64.7-0.7,95.8,8.1c5.5,1.5,10.9,3.4,16.2,5.5c-2.6,2.2-2,6.3,0.7,8.2l23.6,16.4l-1.2,0.2
	c-3.3,0.5-4.3,4.7-3,7.3c3.5,6.4,6.6,13,11.3,18.6c4.7,5.6,13.1,10.7,20.3,14.8c17.7,10.1,36.2,18.4,54.9,26.4
	c33.7,14.5,68.1,28.4,97.8,50.2c13.4,9.7,25.3,21.3,35.2,34.5l-6.5,1.4c-4.3,1-4.7,7-1.2,9.1c0.5,0.3,0.8,0.7,1.1,1.2l0.3,0.4
	c0,0.1,0,0.3,0.1,0.4c0.1,0.5,0.3,1,0.4,1.6c0.1,0.4-0.1,1.4-0.1,1.7c-0.2,1.2-0.6,2.4-1.2,3.5c-2.5,4.7-6.6,8.5-9.7,12.7
	c-5.6,7.6-10.2,15.8-13.9,24.5c-7.9,17.6-13.2,36.1-22.4,52.9c-5.1,9.3-10.9,17.2-19.2,24c-0.2,0.1-0.3,0.3-0.5,0.5
	c-2.1,0.1-3.9,1.6-4.4,3.6c-0.5,2.6-1.2,5.2-2.1,7.7l-0.3,0.9h-0.1c-0.2,0.6-0.5,1.2-0.8,1.8c-0.6,1.2-1.2,2.4-1.9,3.6
	s-2.9,4.5-4.5,6.7l-0.6,0.7L902,567c-0.9,1.1-1.8,2.1-2.6,3.2c-7.5,8.6-15.8,16.6-22.3,26c-1.6,2.3-3.1,4.6-4.4,7.1
	c-11.6-20.6-23.7-40.9-36.8-60.5c-15.1-22.5-31.6-44.1-50.2-63.7c-10.5-10.9-21.6-21.1-33.4-30.6c-2.1-1.7-5.1-2.2-7.1,0
	s-2.2,5.3,0,7c20.8,16.8,39.6,35.9,56.2,56.9l2.9,3.6l1.6,2c0,0.1,0.1,0.1,0.1,0.2c0.1,0.1,0.1,0.1,0.1,0.2l1.1,1.3
	c2,2.6,3.9,5.2,5.8,7.9c4,5.4,7.9,10.9,11.7,16.5c7.6,11.1,14.8,22.5,21.8,34c7.8,13,15.3,26.1,22.7,39.2c2.1,3.8,7.9,2.9,9.1-1.2
	c0.4-1.3,0.8-2.5,1.3-3.8l0.3-0.9c0-0.1,0.1-0.3,0.2-0.4c0.2-0.5,0.4-1,0.7-1.5c1.2-2.4,2.6-4.8,4.1-7.1l2.3-3.3l0.6-0.8h0.1
	l1.3-1.7c1.7-2.1,3.5-4.2,5.4-6.3c7.5-8.4,15.7-16.4,21.7-26.1c3.1-5,5.3-10.4,6.6-16.1c1-0.2,1.9-0.6,2.7-1.3
	c15.9-13.1,24.6-32.2,32-50.9c7.4-18.7,13.4-37.9,25.6-53.3c4.2-5.3,9.7-10.3,11.2-17.2c0.7-3.1,0.6-6.4-0.4-9.5l6.5-1.4
	C1003.2,413.7,1004.7,410.9,1004,408.2z M903.4,565.3l0.2-0.3C903.6,565.1,903.5,565.2,903.4,565.3z"/>
<path d="M789.2,317.8c1-1.8,1-4.6-0.8-6.1c-22.8-18.8-49.6-32.1-78.3-38.8c-8.3-1.9-16.7-3.4-25.1-4.2c-2.6-0.3-5.1,2.5-5,5
	c0.1,2.7,2.3,4.9,5,5l5.3,0.6h1.6l2.7,0.5c3.5,0.5,6.9,1.2,10.3,1.9c6.9,1.6,13.6,3.5,20.3,5.8c3.4,1.1,6.7,2.3,9.9,3.6l1.4,0.6
	l0.4,0.2l2.5,1l4.8,2.3c6.3,3,12.5,6.4,18.5,10.1c3.3,2.1,6.6,4.2,9.8,6.5l4,3c-0.3,0.6-0.6,1.2-0.8,1.9c-1.6,4.1,0.1,8.4,3,11.5
	c2.9,3.1,5.8,4.5,8.7,6.6l2,1.5l0.7,0.5l0.6,0.5l4,3.3c5.1,4.5,9.8,9.4,14.1,14.7l0.9,1.1c0,0.1,0.1,0.1,0.1,0.2l1.6,2.1
	c1,1.3,1.9,2.7,2.9,4.1c1.9,2.9,3.6,5.8,5.3,8.8l2.7,5.2c0.4,0.9,0.8,1.7,1.1,2.5l0.6,1.3l0.3,0.7c0,0.1,0.1,0.3,0.2,0.4l0.3,0.8
	l0.5,1.2c0.3,1,0.7,1.9,1,2.8c0.3,0.9,1.3,3.7,1.9,5.6c0.7,2.6,3.5,4.2,6.1,3.5c2.6-0.8,4.2-3.5,3.5-6.2
	c-7.8-25.6-23.9-47.9-45.7-63.5L788,323l-0.9-0.6c-0.2-0.2-0.4-0.4-0.5-0.4l-0.8-0.8l-0.3-0.3c0-0.1,0-0.1-0.1-0.2l-0.2-0.3
	c0-0.1-0.1-0.2-0.1-0.2C786.8,320.2,788.4,319.3,789.2,317.8z"/>
<path d="M753.3,422.2c0,0.1,0.1,0.2,0.1,0.3c0.7,2.8,3.7,4.5,6.5,3.8s4.5-3.7,3.8-6.5c-0.4-1.6-1.8-2.9-2.8-4.1l-2.5-2.8
	c-3.2-3.5-6.6-6.7-10.2-9.8c-7.3-6.3-15.2-11.8-23.7-16.3c-3.3-1.7-6.7-3.3-10.2-4.7c0.2-0.3,0.4-0.6,0.7-0.9h0.2
	c0.2-0.4,0.5-0.7,0.8-1l1.6-1.4h0.2l0.9-0.6c0.6-0.4,1.2-0.8,1.9-1.1h0.1l1.2-0.4c2.4-0.7,3.9-3,3.6-5.5c-0.3-2.5-2.4-4.3-4.9-4.4
	c-27.2,0.9-53.7,9.1-76.6,23.9c-6.4,4.2-12.6,9-18.3,14.1c-2,1.9-2,5.1,0,7.1c2,1.9,5.1,1.9,7.1,0c2.4-2.2,5-4.3,7.6-6.4h0.2
	l0.7-0.5l2-1.5c1.3-1,2.7-1.9,4.1-2.8c5.4-3.7,11-6.9,16.8-9.8l4.1-1.9l2.3-1l0.7-0.4l0.7-0.3c3-1.2,6.1-2.3,9.1-3.3
	c6.1-2.1,12.3-3.7,18.6-4.9l5.3-0.9h0.3c-1.1,1.7-1.9,3.6-2.4,5.6c-0.8,2.7,1,5.2,3.5,6.1l2.7,1l1.5,0.7l0.7,0.3l5.4,2.5
	c3.6,1.8,7.1,3.7,10.6,5.9l5.1,3.4l2.4,1.7l1.1,0.8l1.1,0.8c3,2.2,6,4.7,8.9,7.4C748.5,416.9,751,419.5,753.3,422.2z"/>
</svg>
