<?xml version="1.0" encoding="utf-8"?>
<!-- Generator: Adobe Illustrator 24.2.3, SVG Export Plug-In . SVG Version: 6.00 Build 0)  -->
<svg version="1.1" id="ef683b8d-1a35-427a-b95b-61890a33df5c"
	 xmlns="http://www.w3.org/2000/svg" xmlns:xlink="http://www.w3.org/1999/xlink" x="0px" y="0px" viewBox="0 0 1152 864"
	 style="enable-background:new 0 0 1152 864;" xml:space="preserve">
<path d="M498.5,380.3c3.3-2.1,6.2-4.7,8.8-7.6c1.7-1.9,2.6-4.2,2.8-6.7c-0.1-2.6-1.6-4.9-3.9-6c-2.1-0.9-4.3-0.8-6.5-0.9h-2
	l-2.6-0.5l-2.3-0.7l-1.2-0.4l-0.6-0.3h-0.3c-1.6-0.7-3.1-1.6-4.6-2.5l-0.9-0.6l-0.7-0.6l-1.9-1.6l-1.9-1.9l-0.7-0.8l-0.4-0.6
	c-0.1,0-0.3-0.3-0.4-0.4V348c-0.2-0.2-0.3-0.4-0.4-0.6c-0.3-0.3-0.5-0.6-0.7-1l-1.5-2.4c-0.1-0.4-0.3-0.8-0.5-1.1
	c-0.1-0.2-0.2-0.3-0.2-0.5l-0.2-0.4h-0.1c-0.1-0.2-0.1-0.5-0.2-0.7c-0.2-0.4-0.3-0.9-0.5-1.3c-0.2-0.9-0.4-1.7-0.6-2.6l-0.3-1.2
	v-0.4c0-0.1-0.1-0.2-0.1-0.3c-0.2-2-1.5-3.9-3.7-3.8c-2.2,0.1-4,1.7-3.8,3.8c1.6,14.8,13.4,27.9,28.2,30.8c1.9,0.4,3.8,0.6,5.7,0.6
	h2.1c-0.4,0.7-0.8,1.3-1.4,1.8c-1.3,1.3-2.7,2.6-4.2,3.7c-0.1,0.1-0.1,0.1-0.1,0.2c-0.2,0.1-0.4,0.2-0.4,0.3l-1.1,0.7l-2.3,1.5
	c-1.5,1-3.1,1.8-4.8,2.6l-2.1,1l-2.3,0.9l-5.4,1.7c-3.5,1.1-7.1,1.9-10.7,2.6l-5.7,0.9l-2.7,0.4l-1.4,0.2h-1.1
	c-7.9,1-15.9,1.9-23.8,3.2c-16.2,2.3-32.1,6.2-47.6,11.6c-15.6,5.5-30.2,13.3-43.4,23.3c-1.6,1.2-3.1,2.5-4.6,3.8s-1.4,3.9,0,5.3
	c1.5,1.4,3.8,1.4,5.3,0c3-2.6,6.1-5,9.3-7.2c3.3-2.3,6.7-4.4,10.2-6.4s7.2-3.9,10.9-5.7c3.7-1.8,6.8-3,10.6-4.5
	c15.4-5.9,31.5-9.7,47.8-12.4l6.1-1l2.9-0.4l1.7-0.3h1.1l11.4-1.5c7.8-0.8,15.5-2.2,23.1-4C485.1,387.4,492.1,384.4,498.5,380.3z
	 M503,366.8h-0.2C503,366.6,503.1,366.7,503,366.8z M502.6,366.1C502.5,365.8,502.6,365.9,502.6,366.1L502.6,366.1z"/>
<path d="M750.7,407.2c2.5,2.1,4.9,4.3,7.2,6.5s4.8,4.8,8,6c3.2,1.1,6.7,0.5,9.3-1.7c1.8-1.8,2.9-4.3,3-6.9c0.6-5-1.5-9.7-4.4-13.7
	c-5.8-7.9-13.7-13.9-22.1-19.1s-16.7-9.2-24.8-14.2c-2-1.2-3.9-2.4-5.7-3.7l-2.6-1.9l-0.3-0.3l-0.6-0.5l-1.5-1.2
	c-1.7-1.4-3.3-3-4.8-4.6l-2.1-2.4c-0.1-0.1-0.4-0.6-0.4-0.5l-0.3-0.4l-1-1.5c-1.2-1.9-2.3-3.8-3.2-5.8c-0.9-1.9-3.5-2.3-5.2-1.4
	c-1.7,1.1-2.3,3.3-1.3,5.1c7.9,17.4,26,26.2,41.7,35c4,2.2,8,4.5,11.8,7c1.8,1.2,3.7,2.5,5.5,3.9l0.3,0.2l0.6,0.5l1.3,1.1l2.5,2.2
	c1.6,1.6,3.2,3.2,4.6,4.9l0.7,0.9c0.4,0.4,0.7,0.8,1,1.3c0.6,0.9,1.2,1.8,1.7,2.8l0.3,0.6c0.2,0.5,0.4,1,0.5,1.6
	c0.1,0.4,0.2,0.8,0.3,1.1c0,0,0.1,0.2,0.1,0.4v2.1c-0.1,0.3-0.2,0.7-0.2,1v0.2l-0.2,0.3c-0.1,0.1-0.2,0.1-0.3,0.2
	c-0.2,0.1-0.3,0.2,0,0.1l-0.2,0.2c-0.1,0-0.5,0-0.5,0.1h-0.9l-0.6-0.3l-0.7-0.4l-0.6-0.4l-0.3-0.2c-2.3-2.1-4.4-4.3-6.7-6.3
	c-4.7-4.2-9.5-8.2-14.6-11.9c-10.1-7.3-20.7-14-31.6-20c-21-11.8-42.8-22.3-62.6-36.2c-4.9-3.4-8.9-6.4-13.4-10.2
	c-4.5-3.8-8.6-7.6-12.5-11.7c-2-2.1-3.9-4.2-5.7-6.3l-2.4-3c-0.1-0.1-0.2-0.2-0.2-0.3s-0.1-0.1-0.2-0.2l-0.6-0.8
	c-0.5-0.6-1-1.3-1.4-2c-3.3-4.5-6.2-9.3-8.7-14.3c-1.3-2.7-2.1-4.6-3.1-7.1c-0.6-2-2.6-3.1-4.6-2.6c-1.8,0.5-3.3,2.7-2.6,4.6
	c8.7,22.7,25.4,40.7,44.6,55.3s41.7,26,63.3,37.8c11.3,6,22.2,12.6,32.8,19.8C741.2,399.5,746,403.2,750.7,407.2z M770.2,412.4
	c-0.1,0.1-0.2,0.2-0.2,0.1L770.2,412.4z"/>
<path d="M1051.3,399.2c-1.4-5.9-4.9-10.8-8.7-15.3s-8.6-9.5-12.9-14.2c-7.8-8.5-15.5-17-23.4-25.3c-14.9-15.4-31-30.1-49.9-40.3
	c-9.3-5.2-19.4-8.9-29.8-11c-11.7-2.4-23.7-2.6-35.1-6.1c-18.1-5.6-34-16.5-49.7-26.8s-31.8-20.9-50.1-25.8s-44.4-3.7-57.6,13.8
	c-2.3,3.2-4.1,6.7-5.2,10.5c-10-3-20.3-4.6-30.7-4.6c-5.8,0.1-11.5,0.6-17.2,1.5c-5.7,0.9-11.1,2.1-16.9,2.3
	c-4.9,0.1-9.8-0.5-14.5-1.8c-4.9-1.4-9.7-3-14.4-4.9c-9.8-3.9-19.4-8.2-29.8-10.1c-10.2-1.9-20.7-1.7-30.9,0.5
	c-7.7-10.4-18.4-18.3-30.6-22.6c-13.7-5.1-28.7-5.4-42.9-2.4c-14.6,3.1-28.2,9.5-40,18.6c-3,2.3-5.7,4.9-8.2,7.8
	c-0.6-0.8-1.6-1.2-2.6-1.1c-17.6,2.2-34.1,9.8-47.1,21.8c-31.5-8.4-64.7,0-93.3,14s-56.1,36-84.6,53.2
	c-14.7,8.9-30.2,16.2-45.8,23.3c-15.5,7-30.5,14.9-44.9,23.8c-13.9,8.8-27.5,18.5-39.6,29.5c-5.5,5.1-10.7,10.9-13.9,17.8
	c-3.3,7-4.5,14.9-3.4,22.6c2.1,15.9,11.3,29.5,21.4,41.6c10.1,12.1,20.3,22.5,25.7,36.6c5.4,14.1,5.9,30.9,7.6,46.4
	c0.6,8.1,2.1,16.1,4.5,23.8c1.2,3.7,2.7,7.9,6.3,9.9c0.9,0.5,1.9,0.8,2.9,1c5.6,1.4,11.3-0.5,16.2-3.4c-1,10.5,0.3,21.1,2,31.6
	c2,12.5,4,25,6.1,37.5c1.1,6.7,2,13.4,4.5,19.8c0.6,2,2.6,3.1,4.6,2.6c1.8-0.5,3.3-2.7,2.6-4.6c-2.1-5.5-3.1-11.3-4.1-17.1
	s-1.9-12.1-2.9-18.2c-2-12-4.4-24.1-5.4-36.1c-0.6-6.6-0.4-13.3,0.7-19.9c0.1-0.5,0.1-1.1,0.1-1.6c5.8-5.1,11.2-10.7,16.2-16.6
	c13.6-15.5,27.1-31,39.6-47.5c12.5-16.5,23.4-33.3,31.9-51.8c4.4-9.7,8.2-19.7,11.4-29.9c3.3-10.2,6.5-20.7,10.9-30.4
	c7.9-17.5,19.9-32.8,35.1-44.6v-0.2h0.3l0.6-0.5l1.3-1l3-2.1c1.8-1.1,2.4-3.4,1.4-5.2c-1-1.6-3.5-2.5-5.2-1.3
	c-16.1,11.1-29.4,25.7-38.9,42.8c-10.3,18.8-14.8,40-22.6,59.9c-7.3,18.1-17.8,35.8-29.3,51.9c-11.5,16.1-24.8,31.7-38.2,47
	c-6,6.9-11.9,14-18.6,20.4c-1.5,1.5-3.1,3-4.8,4.3l-1.3,1.1l-0.3,0.2c-0.2,0.2-0.6,0.5-0.6,0.4c-0.8,0.7-1.7,1.3-2.6,1.9l-2.3,1.4
	l-1.3,0.6l-0.6,0.3h-0.2l-2.5,0.8h-0.3c5.1-24.1,21.3-43.7,37.3-62c8.8-10,17.7-19.9,25.9-30.5c8.6-11.1,15.6-23.4,20.9-36.4
	c3.1-7.9,5.8-16,8.9-23.9c3.1-7.9,5.6-13.4,8.8-19.9c6.6-13.2,14.3-25.9,22.9-38c8.6-11.9,18.1-23.1,28.4-33.6
	c5.2-5.3,10.6-10.3,16.2-15.2c5.4-4.8,11.1-9.2,17-13.4c0.9-0.6,1.9-1.2,2.9-1.6l1.9-0.6c0.3-0.1,1.8-0.3,1.3-0.3h2.2
	c0,0.1,0.1,0.1,0.2,0.2c0-0.3,0-0.1,0.1,0h0c0,0.2,0,0.4,0.1,0.6c0.5,2,2.6,3.2,4.6,2.7c2-0.6,3.2-2.7,2.7-4.7
	c-1.3-5.9-7.5-7.1-12.6-6c-5.1,1.1-10.1,5.2-14.6,8.7c-10.1,7.8-19.6,16.3-28.5,25.4c-27,27.6-48.1,60.5-61.8,96.6
	c-5,12.9-9.1,26-16.1,38c-11.2,19.3-27,35.4-41.5,52.2s-27.9,34.6-33.5,56.1l-0.9,3.6c-0.9-1.9-1.6-3.9-2-5.9
	c-1.2-4.4-2.2-8.8-2.8-13.3c-1.3-8.7-1.7-17.6-2.6-26.3s-2.3-17.9-5.3-26.4c-3.1-8.2-7.4-15.8-12.7-22.7
	C109.3,489.2,96.3,477,89,460.9c-3.2-7.2-5.2-15.5-4-23.4c1.2-7.9,5.7-15,11.3-20.8c5.6-5.8,13-11.7,20-17s15.1-10.9,23-15.8
	c16.4-10.3,33.8-18.5,51.4-26.6c8.8-4.1,17.6-8.3,26.2-12.9c8.6-4.6,16.2-9.4,24-14.5c15.9-10.3,31.2-21.3,47.3-31.4
	c29.9-18.7,65.1-34.7,101.3-29.9c2.5,0.3,5,0.8,7.5,1.3c-2.8,3.1-5.3,6.4-7.5,9.9l-2.7,4.1l-1.5,2.2l-0.5,0.7l-0.5,0.6
	c-1,1.3-2.2,2.4-3.4,3.5l-0.3,0.3l-1.1,0.7c-0.7,0.4-1.4,0.8-2.2,1.1c-1.9,0.8-2.3,3.6-1.4,5.2c0.9,1.6,3.3,2.1,5.2,1.3
	c5.6-2.4,9.4-7.5,12.6-12.4c1.6-2.4,3.1-4.9,4.8-7.2c1.6-2.2,3.4-4.4,5.3-6.4c2-2.2,4.1-4.3,6.4-6.2c2.1-1.8,4.2-3.5,6.5-5
	c2.4-1.6,4.8-3.1,7.3-4.4l3.8-2l2.1-0.9l0.6-0.3l1-0.4c3.1-1.2,6.3-2.3,9.5-3.1c1.6-0.5,3.2-0.8,4.8-1.1l2.3-0.4l-0.4,0.6
	c-3.8,6.9-4.9,14.6-5.6,22.3s-0.8,13.5-3.2,20.1l-0.4,1l-0.2,0.3c-0.9,2-2,3.9-3.3,5.7c0,0.1-0.2,0.4-0.3,0.4
	c-0.2,0.3-0.4,0.6-0.7,0.8l-1.5,1.5l-0.7,0.6l-0.4,0.3l-1.9,1.2l-0.6,0.3l-0.6,0.2l-2.2,0.6c-2,0.6-3.2,2.6-2.6,4.6
	c0.6,2,2.6,3.2,4.6,2.6c6.2-1.3,11.2-5.6,14.5-10.9s5.2-11.8,6-18.3s0.8-14.9,2.6-22c1.6-6.1,4.8-11.6,9.3-16.1s9.6-8.3,15.2-11.2
	c6.1-3.5,12.6-6.4,19.4-8.5c6.8-2.1,13.9-3.4,21.1-3.7c3.6-0.1,7.3,0,10.9,0.4h1.6l2.3,0.4l4.9,1.1c1.7,0.4,3.4,1,5.1,1.6l4.5,1.7
	c3.3,1.5,6.4,3.2,9.4,5.2c1.5,1,2.7,2,3.8,2.8l4,3.6l3.6,3.9l0.5,0.7c-1.8,0.7-2.7,2.6-2.2,4.4c0.5,2,2.6,3.1,4.5,2.6c0,0,0,0,0.1,0
	c10.1-3.3,20.9-4.3,31.5-2.9c10.4,1.4,20,5.5,29.7,9.4c9.7,3.9,19.4,7.5,29.8,8c5.8,0.2,11.5-0.4,17.2-1.5c5.3-1,10.8-1.8,16.2-2.1
	c11.5-0.5,23,1,34,4.5c-0.2,3.5,0.3,7,1.5,10.3c0.5,2,2.6,3.2,4.6,2.7c2-0.6,3.2-2.7,2.6-4.7c-3.1-8.6-0.1-18.1,6.1-24.6
	s17.2-10.2,27-10.6c17.9-0.7,34.8,6.6,50,15.6s30.8,20.7,47.1,29.5c8.2,4.5,16.8,8.2,25.7,10.9c11.3,3.1,23.2,3.2,34.6,5.8
	c19.8,4.4,37.3,15.3,52.5,28.3s30.9,30.4,45.6,46.4c4.1,4.6,8.3,9,12.3,13.7s6.4,8.3,7.1,13.6c0.7,5.3-0.5,11.5-1.9,17
	s-2.8,10.3-4.5,15.3c-6.7,20.1-16.4,39.1-28.8,56.3c-6.1,8.6-12.9,16.6-20.3,24.1c-7.1,7.3-15.6,13.8-21.1,22.6
	c-2.9,4.5-4.7,9.7-5,15.1c-0.3,6.2,1.3,12.3,2.2,18.4s1,19.1-8.3,21.1s-17.9-7.7-23.1-14.8c-7.3-9.9-14.5-19.8-21.6-29.9
	s-13.9-20.3-20.3-30.8s-12.4-21.5-18.2-32.5c-11.9-22.6-23.5-45.3-35.2-67.9l-35.6-68.7c-1.9-3.7-3.8-7.5-6-11.2l-5.1-8.3
	c-3.7-6.2-7.6-12.4-9.1-19.2c0-0.3-0.1-0.7-0.2-1v-2.2c0.1-0.3,0.2-0.5,0.2-0.8h0.1l0.3-0.3l0.4-0.2h0.8l1,0.3l1.1,0.4
	c2,0.9,3.8,2.2,5.3,3.8c7,6.3,13.1,13.5,18.2,21.5c10.5,16.2,17.5,34.4,24.7,52.3c3.8,9.2,7.6,18.5,12,27.5c5,10,10.6,19.6,17,28.7
	c13.1,19.2,28.4,36.8,42.7,55.1c14.3,18.3,26.1,35.7,34.4,56c4.2,9.9,7,20.2,8.6,30.8c0.3,2,2.9,3.1,4.6,2.6c2-0.5,3.2-2.6,2.7-4.6
	c-3.4-22.8-13.4-43.9-25.7-63.1s-28.2-37.9-42.8-56.4S860.2,423,850.5,402c-8.6-18.5-15.2-37.9-24.1-56.2c-4.2-9-9.3-17.7-15.2-25.7
	c-2.9-4-6.1-7.8-9.6-11.4c-3.4-3.4-7.1-7.4-11.5-9.5c-4.4-2.1-10.6-2.9-13.8,2c-1.9,2.8-1.8,6.3-1.3,9.5c1.4,7.4,5.6,14.5,9.4,20.8
	l5.4,8.9c2.2,3.6,4.1,7.4,6,11.1l18.3,35.4l36.6,70.6c11.9,23,23.4,46.1,37.1,68.1c6.7,10.7,13.9,21.1,21.2,31.5
	c6.1,8.6,12.2,17.3,18.6,25.7c0,0.7,0.2,1.3,0.5,1.9c0.9,2.3,1.6,4.7,2.1,7.2c0.2,1,0.3,2,0.3,3c0.2,1.3,0.2,2.7,0.2,4
	c0.1,5.4-0.4,10.8-0.7,16.2c-0.4,5.6-0.2,11.2,0.6,16.7c0.9,5.4,2.5,10.7,4.9,15.6c2.6,5.5,5.7,10.7,9.3,15.6
	c1.1,1.7,3.4,2.3,5.2,1.3c1.6-0.9,2.5-3.5,1.3-5.1c-6.2-8.6-11.4-17.7-13.3-28.2c-0.9-4.6-0.8-10.3-0.5-15.5s0.8-10.8,0.8-16.2
	l-0.3-5c6.2,5.1,14.1,8.2,22.1,5.4c10.4-3.6,13.6-15,12.7-25c-0.6-6.1-2.3-12.1-2.6-18.3c-0.2-5.1,1.1-10.1,3.9-14.4
	c2.9-4.2,6.3-8,10.1-11.4c3.9-3.7,7.9-7.4,11.6-11.3c15.3-16,28.1-34.2,37.9-54c4.9-9.9,9-20.2,12.4-30.8c1.7-5.3,3.2-10.7,4.4-16.2
	S1052.7,405.5,1051.3,399.2z M782.4,305.2C782.3,305.6,782.2,305.5,782.4,305.2L782.4,305.2z"/>
<path d="M597.3,339.8c-2,0-3.7,1.7-3.7,3.7c-0.2,4.7-1.3,9.4-3.3,13.7c-1.1,2.2-2.3,4.4-3.7,6.5c-1.4,1.9-2.8,3.7-4.4,5.4
	c-7.4,7.8-16.7,13.2-26.4,18.1c-19.9,10.1-40.9,17.9-61.1,27.4c-11.4,5.1-22.4,11.1-32.8,18c-1.7,1.1-2.3,3.3-1.4,5.1
	c1.1,1.8,3.4,2.4,5.2,1.3c18.9-12.6,40-21.4,60.9-30.3c10.4-4.4,20.9-8.9,31-14c10.1-5.1,20.3-10.8,28.4-18.8s14.9-20,15.1-32.4
	C601,341.4,599.4,339.8,597.3,339.8z"/>
<path d="M387.5,476.4c-14.8,1.6-29.4,4.8-43.6,9.5c-14.1,4.6-27.4,11-39.8,19.1c-12.5,8.1-23.6,18.3-32.7,30.1
	c-10.4,13.5-17.6,28.9-24.7,44.3c-3.6,7.9-7.5,16-9,24.6c-0.8,4.3-0.7,8.6-1.7,12.5c-0.2,0.8-0.4,1.5-0.7,2.2l-0.6,1.1l-0.3,0.5
	c-0.1,0-0.1,0-0.1,0.1l-0.9,0.9l-0.4,0.3h-0.1l-0.4,0.3l-0.4,0.2l-0.6,0.3c0,0.1,0,0.1-0.1,0.1l-1.1,0.3h-0.8l-0.6-0.2
	c-1.8-1-4-0.4-5.1,1.3c-1.1,1.8-0.5,4,1.3,5.1c3.7,1.9,8.1,1.5,11.5-0.8c3.5-2.4,5.9-6.1,6.7-10.3c1-4.1,1-8.5,1.7-12.3
	c0.8-4.3,2.1-8.5,3.8-12.5c3-7.7,6.8-15.5,10.5-23.1c3.7-7.8,7.9-15.4,12.5-22.7c4.1-6.3,8.7-12.2,13.9-17.6c2.6-2.7,5.2-5.2,8-7.6
	l4.1-3.5l3.8-2.9c5.9-4.4,12.1-8.3,18.6-11.7c6.3-3.5,12.8-6.4,19.5-8.9c13.9-5.2,28.3-8.8,43-10.8h1.9l2.9-0.3
	c1.9-0.3,3.8-1.6,3.7-3.8C391.1,478,389.6,476.1,387.5,476.4z M231.5,622.6C231.7,622.5,231.7,622.6,231.5,622.6L231.5,622.6z"/>
<path d="M890.2,593.7c-0.1-0.1-0.6-0.8-0.7-0.8l-1-1.4c-1.1-1.6-2.2-3.3-3.1-5.1c-0.9-1.6-1.9-3.8-2.5-5.2c-0.1-0.2-0.2-0.3-0.2-0.5
	l-0.3-0.7c-0.2-0.4-0.4-0.9-0.5-1.4c-0.4-1-0.8-1.9-1.1-2.9c-2.7-8-4.5-16.3-6.7-24.5s-4.9-16.4-9.1-23.9c-4-7.1-9.2-13.4-15.3-18.8
	c-12.4-11.2-27.8-18.7-43.5-23.9c-7.8-2.5-15.7-4.6-23.7-6.3c-8-1.6-16-3.1-23.9-5c-3.9-1-7.8-2.1-11.7-3.4l-5.7-2l-1.3-0.6h-0.3
	l-0.5-0.2l-2.7-1.2c-3.5-1.7-6.8-3.6-9.9-5.9l-0.9-0.7l-0.8-0.6l-2.3-2c-1.4-1.2-2.7-2.6-3.9-4l-0.9-1.1l-0.2-0.3l-0.3-0.3l-1.7-2.5
	c-1-1.8-3.3-2.3-5.1-1.3s-2.3,3.3-1.3,5.1c9.1,14,24.2,21.6,39.8,26.2c15.6,4.6,31.9,6.6,47.6,11.1c4,1.1,8,2.4,11.9,3.8l5.9,2.3
	l1.2,0.5h0.3l0.6,0.3l3.1,1.3c3.7,1.7,7.3,3.6,10.8,5.7l5,3.2l2.4,1.6l1.1,0.9l0.6,0.4l0.5,0.4c3.1,2.4,6,5,8.7,7.8
	c1.3,1.4,2.6,2.9,3.8,4.4l0.9,1.1c0.2,0.2,0.3,0.3,0.3,0.3l0.2,0.3l1.9,2.6c2.2,3.4,4.2,6.9,5.8,10.6c0.4,0.7,0.7,1.5,0.9,2.3
	c0.5,1,0.8,2.1,1.2,3.1s1.3,4,1.9,6c4.8,16,7,33.7,17.1,47.5c1.3,1.8,2.7,3.6,4.2,5.2c1.5,1.5,3.8,1.5,5.3,0s1.5-3.8,0-5.3
	C891.4,595.2,890.8,594.4,890.2,593.7z M853.4,523.3l0.2,0.3C853.5,523.5,853.4,523.4,853.4,523.3z"/>
</svg>
