<?xml version="1.0" encoding="utf-8"?>
<!-- Generator: Adobe Illustrator 24.2.3, SVG Export Plug-In . SVG Version: 6.00 Build 0)  -->
<svg version="1.1" id="bb73754e-2f5e-460e-b73c-3fbf31a8db49"
	 xmlns="http://www.w3.org/2000/svg" xmlns:xlink="http://www.w3.org/1999/xlink" x="0px" y="0px" viewBox="0 0 1152 864"
	 style="enable-background:new 0 0 1152 864;" xml:space="preserve">
<path d="M898.8,628.6c-12-34.5-34.5-64.4-64.3-85.5c1.5-0.7,3.1-1.1,4.7-1.2c3.6-0.2,6.5-4.2,4.3-7.5c-3.4-5.3-8.6-8.3-13-12.6
	c-1.8-1.6-4-3.9-4.2-6.5s0.8-4,2.4-3.6c2.8,0.6,5.5-1.2,6-4c0.4-2-0.4-4.1-2.1-5.2l-19.5-12.7l9.6-3.4c2.7-0.9,4.1-3.8,3.2-6.4
	c-0.4-1.1-1.1-2-2-2.7c-5.8-4.3-12-7.8-18.6-10.6c10.7-1.8,21.6-2,32.3-0.6c4.1,0.6,5.9-4.5,4.3-7.5c-1.2-2.6-2.8-5-4.7-7.1
	c2.8,0.3,5.6,0.8,8.3,1.6c4.5,1.4,7.3-3.6,5.6-7.3c-4-8.8-10-16.4-17.6-22.4c7.2-29,14.2-58.3,15.8-88.2c0.9-15.3-0.1-30.7-2.8-45.8
	c-2.9-15.1-8.2-29.5-14.4-43.6c-6.2-14.1-11.8-26.5-19-38.9c-3.5-5.9-7.4-11.5-11.9-16.7c-4.3-4.9-9.6-10.6-16.2-12.1
	s-13.3,2.8-19,6.4s-11.8,7.6-17.5,11.6c-11.2,8-21.9,16.5-32.2,25.5c-21.5,19.2-40.9,40.7-57.7,64.2l-2-1.4
	c-2.2-1.5-5.5-0.3-6.8,1.8c-2.9,4.9-5.2,10.2-6.8,15.7l-2.6-3.9c-2.3-3.2-8.2-3.3-9.2,1.2c-4,19.8-9.7,39.2-17.3,58
	c-1.2,2.9-2.6,6.3-5.2,8.2s-8.9,2-13,2c-10.4,0.2-20.8,0.2-31.3,0.3c-20.7,0.2-41.5,0.5-62.2,1.9c-7.9,0.6-16.5,2.4-24.1-0.8
	c-7.6-3.2-8-12.2-9-19.9c-2.5-19.8-11.7-38.1-25.9-52c-3.3-3.3-8.1-0.7-8.5,3.5l-0.9,9.3l-14.5-21.5c-2.9-4.2-7.6-7.9-12.7-4.6
	c-0.7,0.5-1.4,1.1-2,1.7c-25-31.6-51.6-63-86.2-84.4c-4.7-2.8-9.4-5.4-14.3-7.8c-4.9-2.4-10.7-3.8-15.6,0.6
	c-7.7,6.8-12.1,18.5-14.8,28.1c-2.7,9.6-4.5,22.2-5.8,33.4c-1.6,12.8-2.7,25.7-3.4,38.6c-1.5,27-1.1,54.1,1.2,81
	c-5.8-0.2-11.4,1.3-16.4,4.2c-2.7,1.6-3.5,5.7-1.1,7.9c3.9,3.3,7.1,7.2,9.4,11.7l-1.3,0.9c-4.2,3.4-4.6,8.9-2.3,13.6
	c2.3,4.7,7.4,9.6,11.1,14c3.7,4.4,5.5,6.3,8.3,9.5c-7.4,4.6-13.3,11.3-17,19.2c-1.2,2.5-0.5,6.8,3,7.3c2.9,0.4,5.6,1.3,8.2,2.6
	c-5.3,6.6-8.9,14.4-10.3,22.7c-0.7,4.1,3,7.6,6.9,5.9c-3.8,10.1-6.3,20.6-7.6,31.3c-0.3,3.1,2.5,4.9,5.2,4.8l-15.2,34.7
	c-1,2.3-0.8,4.8,1.3,6.4c2,1.6,4.8,1.4,6.6-0.4c3.5-3.8,7.6-7,12.1-9.4c-18.3,25.2-31,53.9-37.3,84.4c-1.3,6.2,8.3,8.9,9.6,2.6
	c7-34.4,22.5-66.4,45.2-93.2c3.4-4,0.1-9.1-4.9-8.4c-5.6,0.8-11.1,2.6-16.1,5.2c4.2-9.8,8.5-19.6,12.8-29.4c2-4.5-2.1-9.3-6.8-6.8
	l-1.1,0.5c1.8-8.7,4.5-17.1,8.1-25.2c1.4-3,0.3-6.2-3-7.3c-1.3-0.5-2.7-0.7-4.1-0.8c2.1-5.7,5.4-10.8,9.7-15c1.8-1.7,2-5.3,0-7
	c-3.1-2.7-6.6-4.8-10.4-6.2c3.9-5.6,9.2-10,15.4-12.8c3.2-1.4,3-5.6,1.1-7.8l-15.1-17.4c-2.1-2.5-4.7-4.8-6.3-7.7
	c-0.3-0.5-0.6-1-0.8-1.6c3.4,2.1,8.7-1.6,7.3-5.7c-2-6.2-5.1-11.9-9.3-16.9c3-0.7,6.2-0.7,9.2,0.1c2.9,0.6,6.6-1.5,6.3-4.9
	c-2.2-24-3-48.2-2.2-72.3c0.7-23.5,2.4-47.2,6.4-70.3c1.8-9.8,4.2-19.8,9.1-28.6c1.1-2,2.4-3.9,3.8-5.8c1.6-2.1,2.3-3.3,4.9-2.2
	c4.6,2.2,9.1,4.6,13.4,7.3c17.3,10.4,32.6,23.6,46.7,38.1c16.1,16.5,30.5,34.5,44.7,52.6c2.8,3.5,8.6,0.5,8.5-3.5c0-0.3,0-0.7,0.1-1
	l1,1.3c0.5,0.7,1,1.4,1.4,2.2l4.1,6l15.1,22.3c2.9,4.3,8.8,2.5,9.3-2.5s0.8-7.8,1.1-11.7c8.9,11.3,14.4,24.9,15.9,39.2
	c1,9.5,2.2,18.5,10.6,24.2c8.4,5.7,16.1,5.2,24.4,4.5c22.2-1.9,44.5-2.3,66.8-2.5l33.2-0.2c9.8-0.2,19.2-0.5,25.2-9.4
	c2.9-4.4,4.6-9.7,6.4-14.6c1.8-4.9,3.9-10.8,5.7-16.3c2.5-8.1,4.8-16.2,6.7-24.4l2.8,4.1c3,4.3,8.8,2.4,9.4-2.5
	c0.7-6.4,2.4-12.5,5.2-18.3l1.5,1c2.3,1.6,5.4,0.3,6.8-1.8c29.3-42.3,67.2-78,111.1-104.8c2.5-1.5,5.2-3.5,8.2-2.5s5.3,3.5,7.4,5.6
	c4.3,4.4,8.1,9.3,11.3,14.6c7.2,11.3,12.7,23.7,18.3,35.8c5.6,12.1,11.5,26.7,14.9,40.8c3.2,13.9,4.6,28.1,4.2,42.3
	c-0.5,32.9-8.5,65.2-16.5,97c-0.6,2.2,0.4,4.5,2.3,5.6c4.6,3.2,8.6,7.2,11.8,11.8c-4.6-0.2-9.3,0.2-13.8,1.2c-4.2,1-4.9,7.1-1.2,9.2
	c1.7,0.9,3.3,2.1,4.8,3.3c-13.9-0.4-27.8,1.6-41,6c-4.4,1.5-5,8.4,0,9.6c8.5,2,16.7,5.2,24.3,9.5l-9.6,3.4c-2.7,0.8-4.2,3.7-3.4,6.4
	c0.4,1.2,1.1,2.2,2.2,2.8l20.3,13.2c-3.1,3.6-4.1,8.5-2.7,13c1.3,4.5,4.4,8.2,7.9,11.2l5.1,4c-3.1,1.6-5.8,3.9-7.9,6.7
	c-1.7,2.3-0.3,5.6,1.8,6.9c30.3,19.9,53.3,49.1,65.3,83.3C891.3,637.3,900.9,634.7,898.8,628.6z M412,292.1
	C412.2,291.5,412.4,292.1,412,292.1L412,292.1z"/>
<path d="M408.2,343.6c-10.7-12.6-22.5-24.4-35.1-35.1c-7.3-6.3-14.9-12.2-22.7-17.7c-2.1-1.5-5.6-0.5-6.8,1.8
	c-1.4,2.4-0.6,5.4,1.8,6.8l9.7,7.2l0.6,0.5l1.2,0.9l2.5,2l4.7,3.9c6.3,5.3,12.3,10.8,18.2,16.5s11.4,11.7,16.8,17.8
	c2.7,3.1,5.3,6.3,7.9,9.4c0.5,0.8,1.1,1.5,1.7,2.2l0.9,1.2l0.6,0.8l3.6,4.7c3.7,5,7.2,10.1,10.6,15.3c-12.7,0.5-25.2,3.5-36.9,8.6
	c-1.8,0.8-2.6,3.2-2.4,5c0.3,2,1.7,3.6,3.6,4.2c1.1,0.3,2.2,0.6,3.2,1.1h0.2l0.6,0.3l1.4,0.7c2.1,1,4,2.2,5.9,3.6l0.5,0.4l1.4,1.1
	h0.1c-2.3,0.6-4.6,1.5-6.7,2.6c-3.3,1.7-3.1,6.8,0,8.6h0.1c-0.1-0.2-0.1-0.3,0.1,0s0.1,0.1,0.2,0.2h0.1c0.2,0.2,0.4,0.7,0.4,0.7
	c0,0.1,0.1,0.3,0.1,0.4c0.1-0.1,0.1,0,0.1,0.2v0.2c0,0.1,0.1,0.2,0.1,0.3s-0.1-0.1-0.1-0.2v1.3l-0.3,1.4l-0.3,0.5
	c-0.1,0.3-0.3,0.6-0.5,0.9c-0.1,0-0.1,0.1-0.2,0.2l-1.4,1.3l-0.3,0.3h-0.2l-1.3,0.8l-1.4,0.7l-0.8,0.4h-0.1
	c-4.1,1.5-8.2,2.7-12.3,4.2s-8.1,2.9-12.1,4.6c-16.3,6.8-32,15.5-44.7,27.9c-7,6.8-12.8,14.8-17.1,23.5c-1.1,2.4-0.7,5.6,1.8,6.9
	s5.6,0.7,6.8-1.8c1.9-3.9,4.2-7.7,6.7-11.3c0.3-0.5,0.6-0.9,1-1.3l0.4-0.6c0.5-0.6-0.1,0.1-0.1,0.1s1.9-2.3,2.1-2.5s2.9-3.3,4.4-4.9
	l4.7-4.4l2.4-2c0.7-0.7,1.4-1.3,2.1-1.8l0.3-0.2l0.6-0.5l1.4-0.9l2.9-2.1l5.3-3.5c3.8-2.3,7.8-4.4,11.8-6.4l6-2.9l3.2-1.4h0.5
	l1.8-0.7c4.1-1.7,8.2-3.2,12.4-4.7c4.2-1.5,9.3-2.8,13.7-5s9.3-6.5,10.4-12.1c0.6-2.6,0.5-5.3-0.3-7.9h3.1c1.2,0,2.5,0,3.7,0.2
	c3.7,0.5,6.3-4.6,4.3-7.5c-3.7-5.3-8.4-9.8-13.8-13.3c3.2-0.9,6.4-1.7,9.7-2.3l2.7-0.4h1.8c1.8-0.3,3.7-0.4,5.5-0.5
	c3.6-0.2,7.3-0.2,10.9,0.1c3.8,0.2,6.2-4.5,4.3-7.6C429.1,370.2,419.2,356.5,408.2,343.6z"/>
<path d="M420.8,453.4c-15.3,3.7-27.4,15.1-37.5,26.6c-10.1,11.5-18.5,23.7-26.1,36.7c-7.6,13-13.8,25.5-20.6,38.4
	c-6.8,12.9-14,25.7-22.4,37.7l-3.3,4.5l-1.6,2.1h-0.1l-0.2,0.3l-0.9,1.1c-2.2,2.8-4.5,5.5-7,8.1l-3.9,3.8l-1.9,1.7l-0.9,0.7
	l-0.6,0.5c-2.9,2.2-6,4.1-9.3,5.7l-1.3,0.6h-0.5l-2.8,1c-2.4,0.8-4.3,3.5-3.5,6.1s3.5,4.4,6.2,3.5c7.6-2.6,14.6-6.6,20.6-12
	c5.5-4.9,10.4-10.3,14.8-16.2c9-11.7,16.5-24.4,23.6-37.4c7.1-13,13.4-25.8,20.4-38.5c3.6-6.3,7.2-12.6,11.2-18.6
	c2-3.1,4.1-6.2,6.2-9.2l3.4-4.5c0-0.1,0-0.1,0.1-0.1c0-0.1,0-0.1,0.1-0.1l0.8-1.1l1.8-2.2c4.7-5.9,9.9-11.4,15.5-16.5
	c1.3-1.3,2.7-2.5,4.2-3.6l0.9-0.8l0.4-0.3c0.7-0.6,1.5-1.1,2.3-1.6c1.5-1.1,3.1-2.1,4.8-3l2.3-1.2l1.4-0.6l0.5-0.2
	c1.8-0.7,3.7-1.3,5.6-1.8c2.6-0.7,4.2-3.5,3.5-6.1C426.2,454.2,423.5,452.7,420.8,453.4z"/>
<path d="M688,318.5c0.4-0.4,0.7-0.8,1-1.3l0.3-0.4l0.2-0.2c0.7-1,1.5-1.9,2.2-2.8c2.8-3.5,5.7-7,8.6-10.3c6-6.8,12.3-13.3,18.8-19.5
	c3.7-3.6,7.5-7,11.4-10.3c1.9-1.6,3.8-3.2,5.8-4.7l3.1-2.5l0.5-0.4l0.6-0.5l1.3-0.9c1.1-0.7,1.9-1.8,2.3-3c0.3-1.3,0.2-2.7-0.5-3.9
	c-1.3-2-4.6-3.5-6.9-1.8c-14.8,11.3-28.6,24-41.1,37.8c-12.4,13.8-23.5,28.7-33.1,44.5c-5.3,8.8-10.2,18-14.6,27.3
	c-1,1.8-0.8,4,0.4,5.6c1.2,1.6,3.3,2.3,5.2,1.8l3.5-0.7l1.7-0.3h0.8l6.6-0.5c4.6-0.1,9.2,0.1,13.7,0.6h0.6l1.7,0.3l3.5,0.7
	c2.2,0.5,4.4,1,6.5,1.7s4.3,1.4,6.4,2.2l0.5,0.2l-7.3,9.8c-2,2.7,0.2,6.4,3,7.3c7.9,2.5,15.8,5.2,23.6,8.1l-0.4,0.9
	c-1.6,3.7-2.2,7.7-1.5,11.7c1.2,8,7.7,14,13,19.5c2.8,2.8,5.4,5.8,8,8.8l1.7,2.2l0.3,0.4l1,1.4c1.2,1.5,2.3,3.1,3.4,4.7
	c4.5,6.5,8.4,13.3,11.7,20.5c0.5,1,0.9,2,1.4,3.1l0.3,0.7l0.6,1.5l2.4,6.3c1.4,4.2,2.7,8.5,3.8,12.8c0.7,2.6,3.5,4.2,6.1,3.5
	c2.7-0.8,4.2-3.5,3.5-6.2c-3.7-14.9-9.8-29.2-17.9-42.3c-4.2-6.6-8.9-12.9-14-18.8c-2.4-2.8-5-5.5-7.6-8.2c-1.3-1.3-2.5-2.6-3.7-4
	l-0.8-1l-0.4-0.5c-0.6-0.8-1.1-1.6-1.5-2.4c-0.3-0.4-0.5-0.8-0.7-1.2c-0.1-0.1-0.1-0.2-0.1-0.3c-0.1-0.1-0.1-0.3-0.2-0.4l-0.6-2.2
	V410l0.3-1.2c0.2-0.3,0.3-0.7,0.4-1.1c0.1-0.1,0.1-0.1,0.1-0.2l0.6-0.9c0-0.1,0.1-0.1,0.1-0.2c0.3-0.2,0.6-0.4,0.8-0.7
	c0.1,0,0.1,0,0.1-0.1l0.6-0.3c2-0.7,3.4-2.6,3.4-4.7c-0.1-2.2-1.5-4.2-3.6-4.9c-8.2-3.1-16.4-6.1-24.7-8.8c2.2-3.1,4.5-6.1,6.8-9.2
	c2.3-3.1,0.4-5.7-1.8-6.8c-13.9-7-29.4-10.2-44.9-9.3c-1.1,0-2.3,0.1-3.4,0.3c6.7-13.2,14.4-25.9,23.1-37.9
	C685.3,322.1,686.7,320.3,688,318.5z"/>
<path d="M803.6,605.6l-1.2-0.9l-0.8-0.6l-1.9-1.6l-4.4-3.7c-2.8-2.7-5.5-5.4-8-8.3c-1.3-1.4-2.6-2.9-3.8-4.4l-1.7-2.1l-0.6-0.8
	l-0.7-0.9c-2.4-3.1-4.6-6.3-6.7-9.5c-8.7-13.1-15.9-27-23.4-40.8s-16-28.4-26.2-41.1s-21.7-22.4-35.7-29.3
	c-14-6.9-29.7-10.1-45.3-7.4l-5.3,1.3c-2.6,0.7-4.4,3.6-3.5,6.1c0.7,2.6,3.5,4.2,6.1,3.5c1.8-0.5,3.6-0.9,5.4-1.2l1.1-0.2h0.4
	l2.8-0.2c3.6-0.3,7.2-0.2,10.8,0.1l1.2,0.2h0.4l2.7,0.5c1.8,0.3,3.6,0.8,5.3,1.2l5.3,1.7l2.4,0.9l1.3,0.5l0.5,0.2
	c6.7,2.9,13,6.7,18.8,11.1l0.7,0.5l0.9,0.8l2.3,1.9l4,3.6c2.8,2.8,5.5,5.7,8.1,8.8c1.2,1.4,2.5,2.9,3.6,4.4s0.3,0.4,0.5,0.5l0.8,1.2
	l1.8,2.4c2.3,3.2,4.5,6.4,6.6,9.7c4.3,6.7,8.2,13.6,12.1,20.6c7.4,13.6,14.5,27.5,22.9,40.6s18,25.5,30,35.3l5.3,4.1
	c2.1,1.6,5.7,0.4,6.9-1.8C806.7,610.1,805.9,607.1,803.6,605.6z"/>
</svg>
