<?xml version="1.0" encoding="utf-8"?>
<!-- Generator: Adobe Illustrator 24.2.3, SVG Export Plug-In . SVG Version: 6.00 Build 0)  -->
<svg version="1.1" id="a708a332-a189-4930-8ebb-b5e770664138"
	 xmlns="http://www.w3.org/2000/svg" xmlns:xlink="http://www.w3.org/1999/xlink" x="0px" y="0px" viewBox="0 0 1152 864"
	 style="enable-background:new 0 0 1152 864;" xml:space="preserve">
<path d="M526.2,269.8c-10.4-5.1-20.9-10.3-32.3-12.8c-11.4-2.5-24.1-1.9-35.9,0.4c-6.4,1.3-12.7,3.2-18.7,5.7
	c-1.9,0.8-3.3,2-3.6,4.1c-0.3,2.1,0.6,4.3,2.4,5c5.8,2.5,11.5,5.2,17.1,8.1l8.3,4.4l3.5,2l1.7,1l0.8,0.6l0.7,0.5l2.1,2l0.2,0.3
	l0.5,0.9c0.2,0.2,0.3,0.4,0.4,0.7l0.2,0.5c0.8,2.7,1.4,5.4,1.8,8.1c1.1,5.4,3.2,10.7,6.1,15.4c3.4,5.5,7.8,10.3,13,14.2
	c2.1,1.6,5.7,0.4,6.8-1.8c1.1-2.2,0.5-5.1-1.8-6.8c1,0.7-0.5-0.5-0.8-0.7l-1.4-1.3c-1-0.9-1.9-1.8-2.8-2.8l-1.3-1.5l-0.5-0.6
	c0-0.1,0-0.1-0.1-0.1h-0.1c-0.7-1.1-1.5-2.1-2.2-3.3l-1.8-3.2c-0.3-0.5-0.5-1.1-0.8-1.6l-0.4-0.9c0-0.2-0.1-0.3-0.1-0.4
	c-1-2.5-1.7-5-2.2-7.6c-0.6-2.7-0.9-5.5-1.9-8.1c-1-3-2.8-5.7-5.2-7.9c-4.5-4.1-10.2-6.8-15.5-9.6l-8.3-4.1l3.8-0.9l8-1.5h1.3
	l1.8-0.2c1.5-0.1,3-0.3,4.5-0.3c2.8-0.2,5.6-0.2,8.4-0.1l4.4,0.4h0.9l2.3,0.4c5.3,1,10.5,2.6,15.5,4.6l2.1,0.9h0.3l1.1,0.4l4.2,1.9
	l8.5,4.1c2.3,1.2,5.5,0.7,6.8-1.8S528.7,271,526.2,269.8z"/>
<path d="M439.7,344c-13.3-2.7-27.1-2.1-40,2c-13.2,4.4-25.3,11.5-35.6,20.8c-10.6,9.7-19.5,21-26.4,33.6
	c-7.3,13.1-12.7,27.3-17,41.6c-0.6,1.8-1.1,3.5-1.6,5.3c-0.5,2.2,0.4,4.5,2.3,5.7c1.9,0.9,4.7,0.9,6.1-0.8c9-10.9,17.8-22,26.9-32.7
	c4.1-4.8,8.6-9.3,13.4-13.3h0.3l1.1-0.8l1.7-1.2c1.3-0.8,2.6-1.6,4-2.3l2-1l0.5-0.2l0.8-0.3c1.4-0.6,2.8-1,4.3-1.4l2.4-0.6l1.2-0.2
	h3.4c-7.8,6.7-13,15.9-14.7,26c-0.4,2.6,0.6,5.5,3.5,6.1c2.9,0.6,5.7-0.7,6.1-3.5c0.3-1.6,0.6-3.1,1.1-4.6c0.2-0.7,0.4-1.4,0.7-2.1
	l0.4-1.2c0-0.1,0.1-0.2,0.1-0.3c1.3-2.8,2.9-5.5,4.7-8c0.1,0,0.1,0,0.1-0.1c0.2-0.3,0.5-0.6,0.8-0.8l1.6-1.8c1-1.1,2.2-2.2,3.4-3.1
	l0.6-0.6l0.5-0.4l2-1.3l4.2-2.3c3.3-1.5,3.3-7.1,0-8.6c-12.7-6.1-27.6-3.1-39.1,4.5c-11.4,7.5-19.6,18.4-28.1,28.9
	c0.3-0.7,0.5-1.4,0.9-2.2c0.1-0.3,0.2-0.6,0.3-0.8c0.2-0.4,0.3-0.9,0.5-1.3c1.4-3.2,2.9-6.3,4.5-9.5c3.2-6.4,6.9-12.5,11-18.3
	l1.6-2.1l0.7-1l0.3-0.4c1.1-1.3,2.1-2.6,3.2-3.8c2-2.4,4.1-4.8,6.4-7c2.4-2.3,4.8-4.6,7.4-6.7l1.8-1.5h0.2l0.7-0.5l4.2-3
	c2.7-1.8,5.5-3.5,8.4-5.1l3.9-1.9l2.1-1c0.2-0.1,1.4-0.6,0.3-0.1l1.4-0.6c3-1.1,6.1-2.2,9.2-3l4.3-1l2.2-0.4l1.2-0.2h0.5
	c3-0.4,6.1-0.6,9.1-0.6l4.5,0.2l2.3,0.2h1.7c3.4,0.4,6.7,1.2,10,2.1l4.9,1.7l1.1,0.4l0.5,0.2l2.4,1.1c3,1.5,5.9,3.2,8.7,5.1l0.9,0.7
	l0.5,0.3l2,1.7c1.4,1.1,2.6,2.3,3.8,3.6c1.9,2,5.1,2,7.1,0c1.9-2,1.9-5.1,0-7.1C464.8,353.5,452.8,346.8,439.7,344z"/>
<path d="M295.5,374.5c-2.6-0.6-5.3,0.9-6.1,3.5l-1.4,3.2l-0.2,0.6c-0.1,0.1-0.1,0.3-0.2,0.4l-0.7,1.8l-3,6.6
	c-1.9,4.5-4,8.8-6.4,13.1c-2.3,4.3-4.8,8.4-7.6,12.3l-1,1.4l-0.4,0.4v0.2l-2.5,3c-1.6,1.8-3.2,3.6-5,5.3c-1.8,1.7-3.6,3.4-5.5,4.9
	l-2.7,2.2l-0.3,0.2l-0.4,0.4c-0.6,0.4-1.2,0.8-1.7,1.3c-4,2.9-8.1,5.6-12.3,8.4c-8.1,5.3-16.3,10.7-23.7,17
	c-7.4,6.3-15.3,14.9-19.7,24.6c-1,2.3-0.7,5.5,1.8,6.8s5.7,0.8,6.9-1.8c0.9-2.1,2-4.1,3.2-6l1.9-2.9l0.9-1.3l0.5-0.6
	c0-0.1,0-0.1,0.1-0.1c2.9-3.6,6.1-7,9.6-10.1c1.7-1.5,3.5-3,5.4-4.4l0.3-0.2l0.3-0.3l1.3-0.9c0.9-0.8,1.9-1.5,2.9-2.2l12.1-8.2
	c8.5-5.6,17.1-11.3,24.6-18.2c7.2-6.9,13.4-14.8,18.3-23.5c5.6-9.8,10-20.3,14.3-30.7C300,378.3,297.9,375.1,295.5,374.5z"/>
<path d="M801.7,464.3c3.7-0.7,4.8-5.8,2.2-8.3c-4-3.9-7.8-7.9-11.4-12.2l-2.6-3.2l-0.4-0.5l-0.3-0.4l-1.4-1.9
	c-1.6-2.2-3.2-4.5-4.7-6.8c-3.1-4.7-5.9-9.6-8.4-14.7c-2.7-5.3-5.2-10.7-8.1-16c-10.3-18.9-27.1-34.9-48.4-40.2
	c-3.6-0.9-7.4-1.5-11.1-1.8h0.3c4.3-1.6,8.7-3,13.2-4c2.2-0.5,4.4-1,6.6-1.3l1.6-0.3h0.8l3.7-0.4c5.1-0.4,10.3-0.4,15.4,0
	c4.3,0.3,6.8-5.8,3.6-8.6c-18.8-16.3-42.2-26.4-67-28.9c-23.5-2.1-46.9,3.7-66.8,16.3c-5.6,3.6-10.8,7.7-15.6,12.3
	c-2.3,2.2-4.5,4.6-6.5,7.1c-2.6,3.2-4.8,6.9-4.6,11.2c0.2,2.6,2.2,5.1,5,5c2.8-0.1,5.2-2.2,5-5v-1.1l0.3-0.9h0.1
	c0.3-0.6,0.7-1.2,1.1-1.8l0.4-0.5l0.6-0.7c1.7-2,3.5-4,5.4-5.8c1.9-1.9,4-3.7,6-5.4l1.6-1.3h0.1l0.6-0.5l3.6-2.5
	c4.4-3.1,9.2-5.8,14.1-8l1.8-0.9l0.8-0.3c-1.2,0.4,0,0,0.2-0.1l3.8-1.4c2.6-1,5.2-1.8,7.9-2.6c2.7-0.8,5.2-1.3,7.8-1.8l3.9-0.6
	l0.8-0.2h0.2l2.2-0.3c5.5-0.5,11-0.6,16.5-0.3c1.4,0,2.8,0.2,4.1,0.3l2.1,0.2h1.6c2.7,0.4,5.5,0.9,8.2,1.5c5.5,1.3,11,3,16.3,5.1
	l2.3,0.9l1.3,0.6l4.4,2c2.9,1.4,5.7,3,8.4,4.6l3.5,2.3c-19.9,1.4-39,8.6-54.8,20.7c-0.1,0-0.1,0-0.1,0.1l-1,0.7
	c-2,1.6-1.8,4.9-0.4,6.6s4.1,2.3,6.4,1.3h0.3l1-0.4l1.6-0.5l4.2-1.2l3.8-0.8h0.8l2.4-0.2c2.7-0.2,5.4-0.2,8.1-0.1l3.5,0.4l1.2,0.2
	l2.4,0.4c2.6,0.6,5.2,1.3,7.7,2.2l1.9,0.7l0.9,0.3l3.6,1.7c2.1,1.1,4.2,2.3,6.2,3.6l2.9,2l0.6,0.5l0.4,0.3l0.5,0.4l0.9,0.7
	c3.8,3,7.3,6.5,10.4,10.2l1.1,1.4h0.1l0.5,0.7l2.2,3c1.5,2.3,2.9,4.6,4.2,6.9c5.5,9.9,9.8,20.3,15.8,29.9
	c4.6,7.2,9.8,14.1,15.5,20.5l-1.5-0.4l-4.4-1.3l-1-0.4l-0.8-0.3l-1.7-0.8l-4.3-2.3c-2.8-1.6-5.5-3.3-8.1-5.1
	c-5.3-3.6-10.5-7.4-16-10.5c-5.7-3.2-11.7-5.8-17.9-7.7c-7.1-2.2-14.4-3.6-21.8-4c-2.8,0-5,2.2-5,5c0.1,2.7,2.3,4.9,5,5l4.9,0.4h0.2
	l1.1,0.2l2.6,0.4c3,0.6,6.1,1.3,9.1,2.2s5.7,1.9,8.4,3l0.8,0.3c0.2,0.2,0.5,0.3,0.8,0.4l2.2,1l4.3,2.3c11.6,6.5,21.4,15.5,33.9,20.3
	C786.5,465,794.2,465.7,801.7,464.3z"/>
<path d="M992.6,501.1c-8.1-15.1-21.9-25.6-35.1-36c-6.9-5.5-13.8-11-19.8-17.4c-6-6.4-10.7-13.5-15.4-20.7s-9.8-15.1-15.7-22
	c-1.6-1.9-3.3-3.7-5.1-5.5c4.6,1.6,9.4,2.8,14.3,3.5c8.5,1.2,17.1,0.8,25.1-2.3c2.1-0.6,3.6-2.6,3.7-4.8c0-2.3-1.5-4.2-3.7-4.8
	c-13.6-3.8-26.4-10-37.8-18.3c-11.4-8.4-20.3-19.1-28.9-30.1s-18.1-22.8-30.6-30.5s-25.6-11-39.4-12.9c-12.6-1.5-25.3-1.9-38-1.4
	c6.6-8.1,16-13.3,26.3-14.6c3.7-0.4,6.2-3.9,4.3-7.5c-6.8-12.7-19.8-20-33.1-24.1c-7-2-14.2-3.5-21.4-4.3
	c-9.3-1.3-18.6-2.2-27.9-2.6l-12.9-0.4c11.8-5.5,24.5-8.6,37.5-9.4c5.5-0.2,7-8.3,1.4-9.8c-40.5-10.4-82.8-11-123.6-1.8
	c-11.2,2.6-22.2,5.9-33,9.9c-1,0.4-1.9,1-2.6,1.9l-8.2-5.3c-14.4-8.5-29.9-15.1-45.6-20.8c-10.4-3.8-21.2-7.2-32.4-4.9
	c-3.7,0.7-4.7,5.8-2.2,8.3l14.5,14.5l5.6,5.5c-19.5-3.6-39.3-5.6-59.1-6.1c-21.8-0.4-44.2,2.5-63.4,13.6
	c-10.2,5.9-19.4,13.6-27,22.6c-0.7,0.7-1.1,1.6-1.3,2.6c-9.5,4.2-18.6,9.5-27,15.6c-5.1,3.8-10.1,7.9-14.7,12.3
	c-2.3,2.1-4.5,4.4-6.7,6.7c-2.2,2.3-3.7,4.5-5.8,6.5c-1.7,1.6-3.6,3-5.7,4.1c-2.4,1.5-4.8,3.1-7,4.7c-4.9,3.5-9.5,7.3-13.8,11.4
	c-4.7,4.7-9.1,9.7-13.1,15.1c-4.2,5.7-8.1,11.7-10.1,18.6c-0.1,0.4-0.2,0.7-0.2,1.1c-5.3,4.8-10.3,9.9-15.1,15.2
	c-9.4,10.4-18.5,21.2-28.9,30.5c-10.4,9.3-22,15.8-32.7,24c-10.7,8.2-20.7,19.2-25.4,33c-9.8,28.8,1.4,59.1,15.8,84.2
	c1.9,3.3,3.9,6.6,5.9,9.8s6.7,2.7,8.5,0c4.5,10,10.6,19.1,18,27.2c8.1,8.9,18.3,15.5,26.8,24.1c4.6,4.6,7.6,9.4,10.6,15.3
	s6.7,11.5,13.2,14.2c3.4,1.4,7.6-2.8,6.2-6.1c-5.1-12.3-9-25.2-11.5-38.3c-2.5-12.4-4.3-25.6-0.6-38c6.7-22.3,26.5-38.1,37.3-58.6
	c6.5-12.4,10.4-26.7,6.5-40.7c-0.7-2.6-3.5-4.2-6.1-3.5c-2.6,0.8-4.2,3.5-3.5,6.2c3,10.9,0,22.3-5.2,32.4
	c-5.2,10.1-13.3,20-20.5,29.5s-13.8,19.1-17.6,30.4c-4.3,13-3.2,26.8-0.9,40.2c0.8,4.7,1.9,9.4,3,14.1l-1.4-1.7
	c-7.8-8.6-17.7-15-25.9-23.1c-11.5-11.6-20-25.8-24.6-41.5c-0.8-2.7-1.5-5.4-2.1-8.2c-0.3-1.3-0.5-2.6-0.7-3.9
	c-0.2-1.3-0.3-1.2-0.4-1.9s-0.1-0.7-0.1-1.1s-0.1-0.3-0.1-0.4c-0.8-6.2-1-12.5-0.7-18.8c0.3-6,1.3-12,2.9-17.8
	c1.4-5.5-6.2-8.8-9.2-3.9c-6.4,10.8-10,23.1-10.5,35.7c-5.7-14.6-8.7-30-5.5-45.6c1.2-6.4,3.6-12.6,7.1-18.1
	c3.5-5.3,7.7-9.9,12.6-13.9c9.9-8.4,21.9-15.1,32.2-23.4c21.5-17.2,36.5-41.3,58.5-58c11.2-8.3,23.4-15.1,36.3-20.3
	c6.5-2.7,13.2-5,19.9-7c6.2-1.8,12.5-3.2,18.5-5.4c6-2.2,12.2-5.2,16.6-10.2c4.4-5,6.7-12.3,9.7-18.6c5.2-11.3,13.3-21,23.4-28.3
	c2.6-1.9,5.4-3.6,8.2-5.1c3.6-2,3-8.2-1.2-9.1c-7.7-1.7-15.5-0.9-23.1,1.1l1.5-1.2l1.4-1.2l0.3-0.2l0.7-0.6c2-1.4,4-2.8,6.1-4.1
	c2.1-1.3,4.3-2.6,6.5-3.8l3.3-1.6l1.7-0.8l0.6-0.2l0.5-0.2c4.8-2,9.8-3.5,14.9-4.7c2.6-0.6,5.2-1,7.8-1.4l1.3-0.2h1.6l4-0.5
	c5.2-0.4,10.5-0.6,15.8-0.6c11,0.1,21.9,0.7,32.8,2l9.7,1.1l2.4,0.3h0.1l1.5,0.2l4.8,0.7c6.4,1,12.8,2.1,19.2,3.4
	c2.1,0.4,4.7-0.3,5.7-2.3c1.1-2.2,1.3-4.7,0.7-7c-0.7-2-1.7-3.8-3.1-5.3c-2.4-2.8-5.2-5.3-7.8-7.9l-7.9-7.7l1.2,0.2
	c4.5,0.9,8.8,2.2,13.1,3.9c3.8,1.3,7.6,2.7,11.4,4.2l5.5,2.2l1.1,0.5l0.7,0.3l2.9,1.2c7.3,3.2,14.5,6.8,21.4,10.8
	c3.5,2,6.9,4.2,10.2,6.4c1.6,1.1,3.3,2.2,4.8,3.4l2.3,1.7l0.4,0.3l1.3,1c5.4,4.3,10.4,9.1,15,14.2c-4,1.8-7.8,3.9-11.5,6.3
	c-26.3,17.1-40.7,47.6-37.2,78.8c0.3,2.5,2.1,5.1,5,5c2.9-0.1,5.3-2.3,5-5c-0.5-4.7-0.7-9.4-0.4-14.1l0.3-3.5
	c0.1-0.3,0.1-0.5,0.1-0.8v-0.7c0.1-0.4,0.1-0.7,0.2-1c0.4-2.3,0.8-4.6,1.4-6.9s1.2-4.5,2-6.7s0.8-2.3,1.2-3.3
	c0.1-0.3,0.2-0.5,0.4-0.8c0.2-0.6,0.4-1.2,0.7-1.7c1.9-4.2,4.3-8.3,6.9-12.1l1-1.4l0.6-0.8l0.3-0.4l0.2-0.2l0.5-0.6l1.1-1.4
	c1.5-1.7,3-3.3,4.6-4.8s3.2-3.1,4.9-4.5l1.4-1.1l0.5-0.4l2.8-2c3.6-2.5,7.5-4.7,11.5-6.5l1.7-0.8h0.6l3.1-1.2c2.1-0.8,4.2-1.4,6.3-2
	c2.1-0.6,5-1.2,7.5-1.6h2.7c-3.4,2.9-7,5.6-10.5,8.3c-8.2,6.6-16.3,13.9-21.3,23.3c-3,5.6-4.6,11.8-4.5,18.2c0.1,2.7,2.3,4.9,5,5
	c2.6-0.2,5.1-2.2,5-5c0-1.2,0-2.4,0.1-3.5v-0.3c0-0.2,0.1-0.5,0.1-0.7c0.1-0.6,0.2-1.3,0.4-1.9c0.3-1.1,0.6-2.2,1-3.3
	c0.2-0.5,0.3-0.9,0.4-1.2c0.3-0.5,0.5-1.1,0.8-1.5c1.1-2.3,2.4-4.4,3.9-6.4l0.5-0.6l1.2-1.4c0.8-1.1,1.7-2.1,2.7-3
	c7-7.5,15.7-13.1,23.4-19.8c4.7-4.2,8.8-9.1,12.3-14.4c1.4-2.4,0.6-5.4-1.8-6.8c-1.9-1.1-4.4-0.8-6,0.7c-0.1,0.1-0.3,0.2-0.4,0.4
	h-0.1l-1.4,0.9l-0.7,0.3l-1.6,0.6l-3.1,0.7l-1.6,0.3h-1c-4.8,0.4-9.5,1.2-14.2,2.2l-4,1.1c-5.8-6.9-12.4-13.2-19.5-18.8
	c36.7-13.1,75.9-17.6,114.6-13.1l7.7,1c-11.7,3.5-22.7,8.8-32.6,15.9c-1.9,1.2-2.8,3.4-2.3,5.6c0.6,2.2,2.6,3.7,4.9,3.7
	c18-0.9,36-0.3,53.9,1.8c13.2,1.5,26.9,3.9,38.1,10.4c3.7,2.1,7,4.8,9.7,8c-13.7,3.7-25.2,13-31.6,25.6c-1.6,3.3,0.3,7.7,4.3,7.6
	c26.4-1,55.5-2.1,79.2,11.2c12.3,6.9,21.2,17.5,29.7,28.5s17.7,22.2,29.2,31.1c7.1,5.6,14.9,10.4,23.1,14.3
	c-6.9-0.9-13.6-2.8-20-5.6c-13.4-5.5-25.6-13.4-39-18.9c-7.7-3.2-15.9-5.1-24.2-5.7c-2.5-0.1-4.6,1.8-4.9,4.3
	c-0.3,2.4,1.2,4.7,3.5,5.5c15,5.7,29.9,11.7,43.6,20.2c6.7,4.1,12.9,9,18.4,14.6c5.6,6,10.7,12.5,15,19.4
	c4.8,7.2,9.4,14.5,14.8,21.3c5.2,6.5,11.1,12.5,17.6,17.7c12.3,10.3,26.9,19.4,36.3,32.5c5,6.5,8.4,14.1,10,22.1
	c1.2,5.4,0.8,11.1-1,16.3c-17.1-11.8-37.8-17.4-58.5-15.8c-2.7,0.3-5,2.2-5,5c0.1,2.7,2.3,4.9,5,5c2.2,0.1,4.3,0.7,6.3,1.7
	c2.1,1.1,3.9,2.5,5.4,4.3c1.6,1.8,2.8,3.7,3.7,5.8c-0.1-0.1,0.4,1.2,0.5,1.4c0.2,0.7,0.4,1.3,0.5,2c0.3,1,0.4,2,0.4,3
	c0.1,2.2-0.3,4.3-1.1,6.3c-1.3,3-2.8,5.9-4.1,8.9c-1.6,3.4-2.3,7.2-2,10.9c-9.5,2-18.7,5.5-27.2,10.3c-4.8,2.6-10.6,5.7-13.7,10.4
	c-1.7,2.7-2.3,6.1-1.5,9.2c0.6,2.7,1.7,5,1.8,7.4c0.1,8.8-7.3,16.2-16,18.8c-10.3,3.1-21.9,1.4-32-1.6c-10-2.9-19-8.5-26-16.3
	c-5.9-7-9.8-15.7-12.5-24.6c-5.8-19.3-6-38.9-9.9-58.6s-12.6-42.9-31.7-54.6c-5.5-3.4-10.5,5.2-5,8.6c7.5,4.8,13.6,11.5,17.5,19.5
	c4.4,8.2,7.1,17.4,9.1,26.8s2.9,18.4,4.1,28.1s2.9,21,5.8,31.1s6.8,19.3,12.9,27.4c6.9,8.9,16.1,15.8,26.6,19.9
	c19.8,8.1,50.1,10.6,63-10.3c3.3-5.3,4.6-11.7,3.7-17.9c-0.3-1.5-0.6-2.9-1.1-4.3c-0.3-0.6-0.5-1.3-0.6-2c-0.1-0.2,0-0.8-0.1-0.7
	c0.7-1.9,3.7-3.4,5.5-4.6c10.8-7,23.1-11.6,35.9-13.4c3.8-0.6,4.8-6,2.3-8.4c-0.2-0.1-1.2-0.9-0.7-0.6c0.4,0.3-0.1-0.4-0.2-0.4
	c0-0.1-0.1-0.1-0.1-0.1v-0.4c-0.1-0.1-0.1-0.1-0.1-0.2v-0.7c0-0.1,0.1-0.7,0.1-0.8c0.4-2,1.1-3.9,2-5.7c2.2-4.8,4.6-9.3,5.2-14.6
	c0.5-7.2-1.7-14.4-6.2-20.1c13.3,2.2,25.8,7.6,36.5,15.9c2.5,2,6,2,7.8-1C1003,532.6,1000.1,515.2,992.6,501.1z M383.6,267.9
	l3.7-0.9c-6,5.1-11.2,11-15.6,17.6c-3.9,5.8-6.5,12-9.1,18.4c-1.1,2.9-2.6,5.5-4.5,7.9c-1.9,2.1-4.2,3.9-6.7,5.2
	c-5.1,2.8-11.3,4.3-17.3,5.9c-6,1.6-13.6,4-20.3,6.4c-12.9,4.6-25.2,10.7-36.7,18.1c2.7-3.7,5.7-7.2,9-10.5
	c3.7-3.8,7.6-7.3,11.8-10.6c4.3-3.2,8.9-5.7,13.2-8.8c4.3-3.1,8-8.1,12-12.2c12.3-12.6,26.7-22.7,42.7-30
	C371.6,271.8,377.5,269.6,383.6,267.9z"/>
<path d="M888.2,546c4.7,1.2,9.2,2.9,14,4c5.4,1.4,11,1.6,16.4,0.6c1.7-0.4,3-1.7,3.5-3.4c0.4-1.7-0.1-3.6-1.3-4.9l-1.6-2.1l-0.6-0.7
	l-0.4-0.5l-2.8-3.8c-2-2.5-3.9-5.2-5.7-7.9s-3.4-5.1-4.9-7.8s-1.5-2.8-2.2-4.3c-0.4-0.6-0.7-1.2-1-1.9c-0.2-0.4-0.4-0.8-0.5-1.2
	c-0.1-0.2-0.2-0.5-0.3-0.7c-5.2-12.4-6.2-25.9-9.3-38.8c-3-12.4-7.7-24.4-14-35.6c-5.9-10.6-13.2-20.9-22.2-29.1
	s-22.7-16.3-36.6-15.6c-2.8,0-5,2.2-5,5s2.2,5,5,5c1.4-0.1,2.9-0.1,4.3,0l1.6,0.2h0.1l1.5,0.3c1.3,0.2,2.5,0.5,3.7,0.9l1.8,0.6
	l1.1,0.4h0.3c2.6,1.1,5,2.4,7.3,3.9l3.4,2.4l0.2,0.2l0.6,0.5l1.9,1.5c4.3,3.8,8.2,8,11.7,12.5l0.8,1l1.3,1.8
	c0.9,1.3,1.8,2.5,2.7,3.9c0.9,1.4,3.3,5.1,4.9,7.8c1.6,2.7,3,5.4,4.3,8.2c1.3,2.8,1.3,2.6,1.9,3.9c0.3,0.6,0.6,1.3,0.8,2
	c0.1,0.1,0.3,0.7,0.4,0.8l0.3,0.8c2.3,5.7,4.3,11.6,5.8,17.6c3.3,12.8,4.3,26.2,9,38.7c4,10.4,10.1,19.7,16.8,28.6l-1.2-0.3
	c-4-0.8-7.8-2.1-11.6-3.2c-7.1-2.2-14.4-3.6-21.8-2.4c-4.2,0.7-8.1,2.5-11.3,5.2c-2,1.6-1.8,5.3,0,7c1.9,1.9,5,1.9,7,0.1l0.6-0.4
	l1.3-0.8l0.5-0.3l1.3-0.4l2.9-0.7h7.3v0.1C884.2,544.9,886.2,545.4,888.2,546z"/>
</svg>
