<?xml version="1.0" encoding="utf-8"?>
<!-- Generator: Adobe Illustrator 24.2.3, SVG Export Plug-In . SVG Version: 6.00 Build 0)  -->
<svg version="1.1" id="b6b998a7-4d85-4a16-a72c-06b8cd14842e"
	 xmlns="http://www.w3.org/2000/svg" xmlns:xlink="http://www.w3.org/1999/xlink" x="0px" y="0px" viewBox="0 0 1152 864"
	 style="enable-background:new 0 0 1152 864;" xml:space="preserve">
<path d="M857.7,501.9c-1-3.9-3.3-7.3-6.5-9.8c-2.3-1.9-5.6-3.7-7.1-6.2s-0.9-3.5-1.1-5.4c-0.2-1.9-0.5-6.1-0.7-9.2
	c-0.4-6.1-0.7-12.2-0.9-18.4c-0.9-21.3-1.4-42.8-5.2-63.9l2.2,0.5l6.8,1.3c1.7,0.5,3.4,1,4.2,1.8c4.3,4.2,10-1.1,7.8-6.1
	s-6.3-11.4-9.3-17.2c-3-5.8-5-13.8-7.6-20.6c-4.6-11.8-8.8-23.5-10-36c1.5,0.3,3.1,0.4,4.6,0.5c4.2,0.5,8.5,0.4,12.7-0.1
	c3.3-0.6,4.3-4.8,2.9-7.4c-11.5-22.1-27-41.8-45.7-58.2c-4.6-4-9.3-7.8-14.3-11.3c-5.1-3.6-10.2-7.5-15.6-10.7
	c-11-6.6-23-11.5-33.8-18.5c-5.1-3.2-9.9-7-14.3-11.2c-3.8-3.7-7.8-7.2-11.9-10.5c-8.8-6.8-18.1-12.7-27.9-17.8
	c-20-10.2-41.5-17.1-63.4-21.5c-42.6-8.7-87.6-9.2-130.6-3.4c-43,5.8-86.2,19.9-118.6,49.8c-4.4,4.1-8.6,8.2-13.6,11.7
	c-5,3.6-10.3,6.9-15.8,9.8c-11.3,6-23,11-33.2,19.1c-10.2,8.1-17.9,18.6-25.3,28.7c-7.4,10.1-13.6,19.9-20.3,29.9
	c-3.3,4.9-6.6,9.8-10.1,14.6c-1.8,2.4-0.1,6.9,3,7.4c2.8,0.4,5.7,0.4,8.5-0.2c-0.9,27.5-6.8,54.6-17.3,80c-1.9,4.7,5.2,8.3,8.4,4.9
	c0.5-0.6,1-1.2,1.6-1.7c-5.4,38-1.5,77-10.4,114.6c-0.7,2.7,1,5.4,3.6,6.1c1,0.2,2,0.2,3-0.2c-2.2,6.4-4.6,12.7-6.6,19
	c-4.6,15.1-6.4,31.7,1.2,46.2c1.6,3.2,6.9,3.3,8.6,0l8.7-17.3c2.6,15.9,1.4,32.2-3.6,47.6c-0.6,2.4,0.6,4.9,2.9,5.9
	c2.5,1,4.7,0,6.3-2.1c5.2-7,9.9-14.4,14.2-22c2,9.5,4.1,19.1,6.1,28.7c0.7,3.5,4.6,4.2,7.3,3c7.2-3.2,13.2-8.6,17.3-15.3
	c1.7,10.1-0.3,20.7-2.6,30.7c-3.6,15.5-7.6,30.8-5.3,46.8c0.7,4.6,7.1,4.4,9.2,1.2c9.8-14.8,17.9-30.7,23.9-47.4
	c4.5,5.1,9.4,9.9,14.6,14.3c3.8,3.4,9.7,6.2,13.9,1.8c1.7-2,3.1-4.2,4.1-6.6l1.2,0.8c0.8,0.4,1.8,0.6,2.7,0.6
	c11.6,8.7,24.4,15.7,38.4,19.5c4.3,1.1,8.6,1.9,13,2.5c4.6,0.5,8.4-1.2,8.8-6.4c0-1.1-0.1-2.1-0.3-3.2c-0.2-2-1.2-3.6-1.6-5.4
	c-0.7-2.3-0.3-4.9,1.1-6.9c5.7-7.7,16.5-0.4,22.8,2.4c2,1.2,4.5,0.8,6.1-0.9c1.7-1.5,2-4,0.8-5.9c-5.9-11.3-11.9-22.6-16.9-34.3
	s-9.4-24.3-10.1-37.2c-0.4-6.4-0.1-12.9,0.8-19.3c0.5-2.9,1-5.9,1.7-8.8s1.7-6.5,0.7-10.2c-1.9-6-7.6-8.6-12.2-12.4
	c-2.2-1.8-4.1-4-5.4-6.5c-1.2-2.8-2.1-5.7-2.6-8.7c-1.1-6-1.8-14.1-6.5-18.6s-9.2-3.1-13.5-0.7c-4.7-5-4.3-13.5-4.4-19.9
	c-0.1-11.2,0.6-22.5-1.5-33.6c-1.7-9.5-6.4-18-10.8-26.6c-4-7.9-8.8-15.4-14.3-22.3l-3.2-3.5c1.3-2.1,2.3-4.5,3-6.9
	c1.1-3.5,2-7,3-10.6c2.1-7.7,3.5-15.6,4-23.6c0.2-7.7-0.9-15.3-3.1-22.7c-1-3.5-1.8-7-2.4-10.6c-0.1-0.2-0.1-0.5-0.1-0.7
	c-0.1-0.4-0.1-0.8-0.1-1.2c-0.1-0.9-0.1-1.7-0.2-2.6c0-1.7,0-3.3,0.2-5c0-0.5,0.1-0.9,0.1-1.3c0-0.2,0-0.4,0.1-0.6v-0.2
	c0.1-0.8,0.3-1.6,0.4-2.5c0.1-0.9,1-3.8,1.6-5.7c0.3-0.9,0.6-1.7,1-2.5c0.3-0.5,0.5-1,0.7-1.5c0.9-1.8,1.9-3.5,3-5.2
	c1.4-2.4,0.6-5.4-1.8-6.8c-2.4-1.4-5.5-0.6-6.9,1.8c-3.9,5.9-6.5,12.6-7.6,19.6c-1.2,7.3-0.9,14.7,0.9,21.9
	c0.8,3.7,1.9,7.3,2.8,10.9c0.4,1.7,0.7,3.4,1,5.1c0,0.1,0,0.2,0.1,0.3v0.2c0,0.5,0.1,1,0.1,1.5c0.1,0.9,0.2,1.9,0.2,2.8
	c0.1,3.7,0,7.4-0.5,11c-0.1,0.3-0.2,0.5-0.2,0.8c0,0.5-0.1,0.9-0.2,1.4c-0.1,0.8-0.3,1.6-0.4,2.4c-0.1,0.8-0.8,4.1-1.3,6.1
	c-1,4.1-2.1,8.1-3.2,12.2c-0.5,1.7-1,3.3-1.6,5c0,0.1,0,0.1-0.1,0.1v0.2l-0.2,0.3c-4.1-3-8.6-5.4-13.3-7.2c-2.6-0.9-5.5,1.1-6.2,3.5
	c-0.7,2.4,1,5.2,3.5,6.2c16.1,5.9,25.4,21.2,32.9,35.8c4.4,8.5,8.7,16.7,10,26.4c1.3,9.7,0.4,22,0.8,32.9
	c0.4,10.9,2.5,19.9,11.5,25.4c2,1.2,4.5,0.9,6.1-0.7c0.6-0.7,1.3-1.3,2.2-1.6c0.4-0.2,1.2,0,1-0.2c1.5,1.2,2,5.2,2.4,6.9
	c1.2,5,1.7,10.2,3.6,15.1c1.9,4.9,6.2,9.9,11.1,13.8l3.5,2.6c0.9,0.6,2.5,1.4,3.1,2.4c0.6,1,0,3.9-0.4,5.6
	c-2.9,12.1-3.7,24.6-2.4,37c1.3,11.9,5.7,23.5,10.3,34.5c3.1,7.3,6.6,14.4,10.2,21.5c-0.2,0.4-0.3,0.9-0.4,1.4
	c-5.6-1.5-11.3-1.6-16.9,2.2c-7.5,5.1-9,13.7-6.4,21.6l-3-0.5c-2.6-0.5-5.2-1.2-7.7-1.9c-4.8-1.5-9.5-3.3-14-5.6
	c-9.3-4.6-18-10.4-25.9-17.3c-1-1-2.5-1.5-3.9-1.4c-1.7,0-3.2,0.9-3.9,2.4c-2.1,2.9-3.3,6.5-5.2,9.5l-0.6-0.5c-1-0.8-2-1.7-2.9-2.7
	l-6-5.7c-4-3.5-7.4-7.7-10.1-12.2c-2.2-3.8-7.9-2.8-9.1,1.2c-4.3,13.7-10,27-17,39.6c1.2-10.2,4.2-20.4,6.3-30.4
	c3.2-15.2,4.3-31-3.4-45c-2-3.7-8.3-3.1-9.1,1.1c-1.5,7.6-5.8,14.3-12,18.8c-2.4-11.9-4.9-23.8-7.4-35.6c-0.9-4.1-7.3-5-9.1-1.2
	c-1.8,3.8-4.3,8.4-6.6,12.4c1-13.7-0.5-27.4-4.5-40.5c-1.1-3.9-7.1-5.2-9.1-1.2l-9.5,18.9c-1.7-10.5,1.1-21.7,4.4-31.7
	c4.6-13.9,10.3-27.3,11.3-42c0.4-4.6-5.3-6.1-8.3-3.6c4.2-35.7,1.3-72.1,9.3-107.4c0.6-2.8-1.2-5.6-4-6.1c-0.6-0.1-1.2-0.1-1.8-0.1
	c7-22.7,10.6-46.4,10.5-70.2c-0.1-2.9-2.5-5.1-5.4-5c-0.1,0-0.1,0-0.2,0c11-16.2,21.1-33,34-47.7c3.9-4.4,8-9.1,12.6-12.8
	c5-3.8,10.3-7.1,15.9-9.9c11.3-6,22.7-11.2,33-18.8c8.8-6.4,16.1-14.6,24.8-21.2c8.5-6.3,17.6-11.8,27.1-16.5
	c18.9-9.3,39.3-15.2,60-19c20.8-3.6,41.9-5.6,63.1-5.7c20.9-0.5,41.8,0.8,62.5,3.7c42.2,6.4,84.8,20.9,115.9,51.3
	c8.8,8.6,20.2,15.2,31.1,20.6c5.7,2.9,11.4,5.7,16.9,8.9c5.5,3.2,9.9,6.7,14.9,10.1c19.6,13.6,36.3,31.8,49.2,51.9
	c1.7,2.6,3.3,5.2,4.8,7.9l-2.3-0.2c-1.7-0.1-3.3-0.4-5-0.7c-1.1-0.1-2.2-0.5-3.1-1.2c-3.2-2.2-7.6,0.8-7.6,4.3
	c0.1,16.2,5,30.8,10.8,45.7c2.7,7.2,4.7,14.8,8.1,21.8c1.1,2.3,2.4,4.6,3.7,6.9l-5.3-1.1c-1.5-0.3-2.9-0.9-4.2-1.7
	c-3.6-3.6-9.4,0-8.3,4.8c5.4,24,5.7,48.7,6.8,73.1c0.2,6.2,0.5,12.3,0.9,18.4c0.4,6.1,0.2,11.4,2.5,16.2c0.9,1.9,2.3,3.7,3.9,5.1
	c-3.2,0-6.3,0-9.5-0.2c-1.2-0.1-2.4-0.3-3.6-0.6l-0.7-0.2l-0.2-0.2h-0.2c-2.8-3.2-9.4-2.3-9,2.9c1.1,14.9,9.7,26.8,17.2,39.2
	c3.5,5.8,6.8,11.8,8.3,18.5c1,4.2,1.1,8.5,0.3,12.7c-3.2-6.4-6.3-12.7-9.5-19c-2-4-8-2.7-9.1,1.2c-4,13.1-5.5,26.8-4.5,40.5
	c-2.3-4-4.5-8.2-6.6-12.4s-8.2-2.9-9.1,1.2c-2.5,11.8-5,23.7-7.4,35.6c-6.2-4.5-10.5-11.2-12-18.8c-0.8-4.2-7.1-4.8-9.1-1.1
	c-7.7,14-6.6,29.8-3.4,45c2.1,10,5.1,20.2,6.3,30.4c-7-12.6-12.7-25.9-17-39.6c-1.2-4-6.9-5-9.1-1.2c-2.7,4.5-6.1,8.7-10.1,12.2
	l-5.6,5.3l-2.9,2.8l-1,0.8c-1.9-3-3.1-6.6-5.2-9.5c-0.7-1.5-2.2-2.4-3.9-2.4c-1.4-0.1-2.9,0.4-3.9,1.4c-7.9,6.9-16.6,12.7-25.9,17.3
	c-4.5,2.3-9.2,4.1-14,5.6c-2.5,0.7-5.1,1.4-7.7,1.9l-3,0.5c2.6-7.9,1.1-16.5-6.5-21.6c-5.6-3.8-11.2-3.7-16.8-2.2
	c-0.1-0.5-0.2-0.9-0.4-1.4c8.4-16.2,16.2-32.9,19.8-50.8c2.4-12.1,1.6-25.1-0.6-37.1c-0.5-2.8-1.8-5.7-1.9-8.5s1.7-3.2,3.5-4.6
	c4.6-3.4,9.6-7,12.5-12s4.1-11.6,5.3-17.6c0.6-2.8,1.4-5.5,2.4-8.2c0.3-0.9,0.3-0.9,1.1-0.5c0.9,0.4,1.8,1,2.5,1.7
	c1.6,1.6,4.1,1.9,6.1,0.7c11.7-7.1,13.3-23.3,9.9-35.4c-3.4-12.1-9.7-21.6-10.6-32.2c-0.4-1.8-0.2-3.7,0.4-5.4
	c0.2-0.3,0.4-0.6,0.5-0.9l0.3-0.4l0.2-0.2c0.7-0.8,1.6-1.5,2.5-2c4.4-3.4,8.6-7,12.8-10.7c9.6-8.4,19-17.2,29.1-25.1
	c4.8-3.8,10-7.2,15.5-10.1c2-1,4.1-1.7,6.3-2.2c1.4-0.3,2.8-0.3,4.2,0.1c6.2,1.8,8.8-7.9,2.7-9.7c-9.6-2.8-19.8,3.5-27.4,8.7
	c-2.1,1.4-4.1,2.9-6.1,4.4c-0.3-0.4-0.6-0.9-0.8-1.4c-0.2-0.2-0.3-0.5-0.4-0.7v-0.2l-0.2-0.4c-0.1-0.4-0.2-0.8-0.4-1.2
	c-0.8-2.3-1.4-4.7-2-7.1c-1.5-5.4-2.9-10.8-3.9-16.2l-0.3-1.9c0-0.3-0.1-0.7-0.1-1v-0.2c-0.2-1.4-0.4-2.8-0.5-4.1
	c-0.2-2.8-0.2-5.6-0.1-8.4c0.1-0.6,0.1-1.2,0.2-1.9c0-0.3,0-0.6,0.1-0.9c0-0.2,0.1-0.6,0.1-0.7c0.2-1.4,0.4-2.7,0.4-4.1
	c0-2.4-0.5-4.9-1.2-7.2l-0.9-2.8c-0.1-0.5-0.2-0.9-0.4-1.4c0-0.4-0.1-0.8-0.2-1.2V318v-0.2v-0.6c-0.1-0.4-0.1-0.8,0-1.2
	c0.1-0.5,0.2-1.1,0.2-1.6c0-0.3,0.1-0.6,0.1-0.9c-0.2-3.4-1.1-6.7-2.8-9.6c-3.3-6.4-8.9-11.8-14.8-15.7s-15.3-7.1-23.1-3.7
	c-2.4,1.1-3.1,4.8-1.8,6.9c1.3,2.1,4.3,2.9,6.9,1.8c-1.7,0.7,0.2,0,0.7-0.2h1.1c0.6-0.1,1.3-0.1,1.9,0h0.1l0.9,0.2l2.1,0.6l1,0.3
	l0.3,0.2c1.5,0.6,2.9,1.3,4.2,2.2l2,1.3l0.4,0.3l0.2,0.2h0.2c0,0.1,0,0.1,0.1,0.1l0.4,0.4c1.3,1,2.5,2.1,3.6,3.3l1.6,1.7l0.7,0.9
	h0.1c0.1,0.1,0.1,0.1,0.1,0.2c0,0.1,1.7,2.5,2.5,3.8l0.4,0.9c0.2,0.6,0.4,1.2,0.6,1.8l0.3,0.9v0.6c0.1,0.3,0.1,0.6,0,0.9v0.4
	c-0.1,0.6-0.2,1.3-0.2,1.9c0,1.4,0.1,2.8,0.3,4.2c0.4,2,1,4,1.6,5.9c0.3,0.9,0.6,1.8,0.7,2.8c0.1,0.1,0.1,0.5,0.2,0.7v2.3
	c-0.2,0.9-0.3,1.8-0.4,2.6c-0.1,0.8-0.3,2.7-0.4,4.1c-0.2,5.6,0.2,11.2,1.2,16.7c1.1,6,2.4,11.9,4.1,17.7c1.3,5,2.6,10.1,5.7,14.3
	c-5.7,4.7-11.2,9.7-16.7,14.6c-5.5,4.9-9.1,8.1-13.8,12c-4.7,3.9-8.7,5.7-11,10.5c-5.2,10.6,1.4,23.5,5.2,33.4
	c2.2,5.6,5,12.1,5.3,17.8c0.3,5.7-0.4,12-4.2,16c-3.5-2-7.7-2.8-11.5-0.6c-3.8,2.2-6.7,10.2-7.8,15.7c-1.1,5.5-1.6,11.9-5.4,16.3
	c-1.9,2-4,3.9-6.3,5.5c-2.5,1.9-5.8,3.7-7.5,6.4c-1.4,2.3-2.2,4.9-2.3,7.6c-0.1,3.5,1.6,7.3,2.2,10.8c1.2,6.2,1.8,12.4,1.8,18.7
	c0,6.6-0.9,13.2-2.5,19.6c-1.6,6.2-3.7,12.3-6.1,18.3c-5.2,13.3-12.1,25.8-18.6,38.5c-1.2,1.9-0.9,4.4,0.8,5.9c1.5,1.7,4,2.1,6,0.9
	c6.4-2.8,14.8-8.9,21.5-3.8s1.2,9.9,0.7,15c-0.3,3.5,0.8,7.3,4.6,8.3c2.1,0.6,4.7-0.1,6.9-0.4s4.6-0.8,6.8-1.3
	c8.7-2,17-5.2,24.8-9.4c6-3.1,11.7-6.8,17-10.9c0.9,0,1.9-0.2,2.7-0.6l1.2-0.8c1,2.4,2.4,4.6,4.1,6.6c4.1,4.4,10.1,1.6,13.9-1.8
	c5.2-4.4,10.1-9.2,14.6-14.3c6,16.7,14.1,32.6,23.9,47.4c2.1,3.1,8.5,3.4,9.2-1.2c2.3-16-1.7-31.3-5.3-46.8
	c-2.3-10-4.3-20.6-2.6-30.7c4.1,6.7,10.1,12.1,17.3,15.3c2.7,1.2,6.6,0.5,7.3-3l6.1-28.7c4.3,7.6,9,15,14.2,22
	c1.5,2,3.8,3.1,6.3,2.1c2.3-1,3.5-3.5,2.9-5.9c-5-15.4-6.2-31.7-3.6-47.6l8.7,17.3c1.7,3.3,7,3.2,8.6,0c4.3-8.1,6-17.2,4.9-26.3
	c-0.9-7.6-3.9-14.5-7.6-21.1c-5.5-9.8-13.4-19.4-16.8-30.4c2.3,0.2,4.7,0.3,7,0.3c3.4,0.1,6.8,0,10.1,0.3c1.2,0.1,2.4,0.3,3.6,0.6
	l0.7,0.2h0.4C852.2,510,859.2,507.5,857.7,501.9z M367.2,650.4C367.6,650.3,367.6,650.7,367.2,650.4L367.2,650.4z M824.6,493.7
	c0.1,0,0.2,0.1,0.3,0.3L824.6,493.7z"/>
<path d="M355.6,279.1c0.2-0.9,0.6-1.9,0.9-2.8l0.3-0.5c0.2-0.6,0.5-1.1,0.8-1.6c0.9-1.8,2-3.5,3.1-5.1l0.5-0.7l0.9-1.1l2.1-2.4
	c1.5-1.5,3-2.9,4.7-4.2l0.5-0.4l0.3-0.2l1.6-1.2l2.8-1.9c2.2-1.3,4.3-2.6,6.6-3.7c4.4-2.3,8.9-4.4,13.5-6.3c2.4-1.1,3.2-4.8,1.8-6.9
	s-4.2-2.9-6.8-1.8c-16.3,7-33.6,15.8-41.2,32.8c-2,4.3-3.2,8.8-3.6,13.5c-0.2,4.6,0.4,9.3,1.9,13.7c1.3,4.2,3.2,8.3,4.9,12.5
	c0.8,2.1,1.5,4.3,2.1,6.4c0.3,0.9,0.5,1.9,0.7,2.8l0.3,1.7v0.5c0,0.1,0,0.1,0.1,0.2c0.2,2.4,0.3,4.8,0.2,7.2c-0.1,1-0.1,2.2-0.3,3.2
	v0.2c-0.1,0.4-0.1,0.7-0.2,1.1c-0.1,0.6-0.2,1.2-0.4,1.8c-0.5,2.3-1.1,4.5-2,6.7c-0.1,0.2-0.1,0.4-0.2,0.6c-0.1,0.2-0.1,0.2-0.2,0.3
	c-0.2,0.6-0.5,1.2-0.8,1.7c-0.5,1.1-1.1,2.2-1.8,3.3c-1.4,2.4-0.6,5.5,1.9,6.9c2.5,1.4,5.5,0.6,6.9-1.9c4.7-7.8,7.1-16.6,7.2-25.7
	c0.1-4.5-0.5-9-1.7-13.4c-1.3-4.2-2.9-8.4-4.6-12.5c-0.9-2.1-1.7-4.2-2.4-6.3c-0.3-1-0.6-2.1-0.8-3.1c-0.2-0.5-0.3-1-0.4-1.5
	c0-0.2,0-0.4-0.1-0.6c0-0.2-0.1-0.5-0.1-0.7v-0.4c0-0.2-0.1-0.5-0.1-0.8v-1.4c-0.1-1,0-2.1,0.1-3.1l-0.1-0.3v-0.1v-0.1l0,0
	c0-0.1,0-0.1,0-0.2l0.3-1.1C355,281.2,355.3,280.1,355.6,279.1z"/>
<path d="M300.2,354.7c0.1-0.5,0.1-1,0.2-1.4v-0.2c0-0.2,0.1-0.8,0.1-0.8c0.3-2.1,0.6-4.1,1-6.1c1.3-7.5,3.3-14.8,5.9-21.9
	c0.1-0.3,0.2-0.7,0.4-1l0.2-0.4l0.9-2.1c0.7-1.4,1.4-2.9,2.2-4.3c0.8-1.4,1.6-2.7,2.5-4c0.4-0.6,0.8-1.2,1.3-1.7
	c0-0.1,0.1-0.2,0.1-0.3l0.9-1c1.1-1.3,2.3-2.6,3.6-3.7l0.9-0.8l0.3-0.3h0.1c0.7-0.4,1.3-0.9,1.9-1.4l2.2-1.2l1.1-0.5h0.3
	c1.6-0.7,3.3-1.1,5.1-1.4c2.6-0.5,4.2-3.8,3.5-6.2c-0.8-2.6-3.5-4.2-6.2-3.5c-14,2.5-23.7,14.7-29.2,27c-3.1,7.2-5.4,14.8-6.9,22.5
	c-4.1,18.9-4.6,38.3-1.6,57.4c0.3,1.9,2.5,3.3,4.2,3.6c2,0.2,3.9-0.7,5-2.4l1-1.5l0.4-0.6c0.1-0.1,0.1-0.1,0.1-0.2
	c0.8-0.9,1.8-1.9,2.7-2.7c0-0.1,0-0.1,0.1-0.1v1.7c0,1.4-0.1,2.8-0.2,4.1v0.4c-0.1,0.3-0.1,0.7-0.2,1c-0.1,0.9-0.3,1.7-0.5,2.6
	c-1.4,6.2-3.6,12.1-4.8,18.3c-2.3,12-1.3,24.3,3.1,35.7c2.6,6.7,6.2,12.9,10.8,18.4c1.7,2,5.4,1.8,7.1,0c1.8-2,1.8-5.1,0-7.1l-0.8-1
	h-0.1l-1.3-1.8l-2.3-3.7c-0.7-1.2-1.4-2.3-2-3.5l-0.8-1.8l-0.5-1.1h-0.1v-0.2c-1.1-2.7-2-5.4-2.7-8.2l-0.9-4.1l-0.3-1.9
	c0-0.5-0.1-1-0.1-1.4c-0.3-2.8-0.4-5.6-0.2-8.4c0-1.5,0.2-2.9,0.3-4.4c0.1-0.4,0.1-0.7,0.2-1c0.1-0.3,0.3-1.6,0.4-2.4
	c1.3-6.1,3.4-11.9,4.7-18c1.3-6.1,1.8-15.2-1.7-22.4c-1.2-2.5-4.5-2.9-6.8-1.7c-1.8,0.9-3.6,2-5.2,3.2c-0.1-0.5-0.1-1.1-0.2-1.6
	c-0.2-4.2-0.3-8.4-0.3-12.5c0-4.1,0.4-8.8,0.8-13L300.2,354.7z"/>
<path d="M352.1,494l0.6-1.7c0.1-0.3,0.1-0.5,0.2-0.8l0.2-0.3c0.5-1.2,1.1-2.4,1.8-3.5c1.6-2.2,1.1-5.4-1.1-7c-2.2-1.6-5.4-1.1-7,1.1
	c-0.2,0.3-0.4,0.6-0.5,0.9c-5.4,8.6-5.9,18.9-5.7,28.7c0.2,9.8,0.7,20,2.3,29.8c1.5,9.9,5.1,19.3,10.6,27.6
	c2.9,4.2,6.2,8.2,9.4,12.2l1.1,1.4l0.5,0.6l2.2,2.9c1.5,2,2.8,4.1,4,6.3c0.7,1.2,1.3,2.4,1.9,3.7c0.3,0.5,0.6,1.1,0.8,1.7
	c0.2,0.3,0.3,0.5,0.4,0.8c0,0.1,0,0.1,0.1,0.1c1,2.6,1.9,5.2,2.6,7.9s1.3,5.4,1.7,8.1c0,0.1,0.1,0.2,0.1,0.3v0.6
	c0.1,0.7,0.2,1.3,0.2,2c0.1,1.4,0.2,2.9,0.2,4.3c0.1,2.5,1.9,4.6,4.4,4.9c2.3,0.3,5-1.1,5.5-3.5c1-5.2,2-10.3,3.2-15.4l8.8,10.2
	c2,1.9,5.1,1.9,7.1,0s2-5.1,0-7.1l-15.1-17.3c-2.5-2.9-7.5-1.4-8.4,2.2l-0.3,1.3c-0.6-1.7-1.3-3.4-2-5c-4.2-9.2-10.7-16.6-16.8-24.5
	H365c0-0.1,0-0.1-0.1-0.1l-0.4-0.5l-1-1.4c-0.7-0.9-1.3-1.9-2-2.9c-1.4-2-2.6-4.1-3.6-6.3l-0.8-1.6l-0.3-0.7l-1.3-3.4
	c-0.7-2.2-1.3-4.5-1.9-6.8c-0.6-2.3-0.9-4.6-1.3-7c0-0.2-0.1-0.5-0.1-0.8c0-0.2-0.1-0.3-0.1-0.5v-0.3c-0.1-0.3-0.1-0.6-0.1-0.9
	c-0.2-1.2-0.3-2.4-0.4-3.7c-0.4-4.7-0.6-9.5-0.8-14.3c-0.3-5.3-0.3-10.5,0.1-15.8c0-0.6,0.1-1.3,0.2-1.9c-0.2,1.2,0.1-0.6,0.1-0.9
	L352.1,494z M356.9,554.4C357,554.6,357,554.8,356.9,554.4L356.9,554.4z"/>
<path d="M743.4,322.3c0-0.5,0.1-0.9,0.2-1.4c0.2-1.2,0.4-2.3,0.7-3.5s1.5-4.7,2.4-7c1.8-4.5,3.8-8.9,5.2-13.6s1.7-10.3,1.9-15.5
	c0.2-5-0.1-10-1.1-14.9c-1.7-8.5-6.5-16.5-11.2-23.8c-2.7-4.3-5.7-8.3-9.1-12c-2.9-3.3-6.5-6-10.5-8c-2.4-1-5.5-0.8-6.9,1.8
	c-1.4,2.6-0.7,5.7,1.8,6.8l2.2,1.1c0.2,0.2,2.1,1.2,2.3,1.5l0.3,0.3l1,0.9l2.1,2.1c1.4,1.4,2.7,2.9,3.9,4.5l0.3,0.3v0.2l0.9,1.2
	c0.7,0.9,1.3,1.8,1.9,2.8c2.2,3.3,4.2,6.7,6.1,10.1c0.9,1.7,1.9,3.4,2.7,5.1l0.4,0.9c0,0.1,0,0.1,0.1,0.2c0.2,0.5,0.4,1,0.5,1.5
	c0.5,1.1,0.8,2.3,1.1,3.5c0.3,1.1,0.5,2.2,0.7,3.3s0.1,0.5,0.1,0.7c0.1,0.6,0.1,1.2,0.2,1.8c0.2,2.4,0.2,4.7,0.1,7.1
	c-0.1,2.4-0.2,4.8-0.4,7.2c-0.1,0.6-0.1,1.2-0.2,1.7v0.4c0,0.2-0.1,0.3-0.1,0.5c-0.2,1.2-0.5,2.3-0.8,3.5c-1.4,4.7-3.1,9.2-5.1,13.7
	c-1.9,4.7-3.2,9.6-3.8,14.6c-1.2,11,1.2,22,6.9,31.5c1.4,2.2,4.6,3.3,6.9,1.8c2.3-1.4,3.1-4.4,1.8-6.8c-0.6-1-1.2-1.9-1.7-2.9
	l-0.7-1.5c-0.2-0.3-0.3-0.7-0.4-1H746c-0.8-2.2-1.5-4.4-2.1-6.7l-0.6-3.3v-0.7c0-0.7-0.1-1.4-0.1-2.1c-0.2-2.3-0.2-4.5,0-6.8
	C743.3,323.3,743.3,322.6,743.4,322.3z M741.1,262.4C741.2,262.6,741.2,262.8,741.1,262.4L741.1,262.4z"/>
<path d="M793.3,393.5c0.9,0.8,1.7,1.7,2.5,2.6c0.1,0,0.1,0.1,0.2,0.2c0.1,0.1,0.4,0.4,0.4,0.5c0.4,0.5,0.8,1.1,1.1,1.7
	c1.1,1.7,3,2.6,5,2.4c1.8-0.3,3.9-1.7,4.1-3.6c3.3-21.4,2.3-43.2-3-64.1c-0.9-3.5-1.9-6.9-2.7-10.5c-0.8-3.6-1.3-6.7-1.9-10.1
	c-1.2-7.4-2.7-14.7-4.7-21.9c-2.1-7.1-5.1-15-10.8-20c-2-1.7-5.2-2.1-7.1,0c-1.9,2.1-2.1,5.3,0,7.1l1.4,1.3l0.6,0.7
	c0.1,0.1,0.2,0.2,0.2,0.3s1.6,2.3,2.3,3.5l0.9,1.9c0.2,0.3,0.3,0.7,0.5,1v0.2h0.1c0.6,1.6,1.2,3.1,1.7,4.7c2.1,7,3.7,14.1,4.8,21.3
	c1.2,6.4,2.2,12.8,3.9,19.1c1.4,4.9,2.6,9.8,3.5,14.8l0.6,3.7l0.3,1.9c0,0.2,0.1,0.5,0.1,0.7v0.3c0.3,2.5,0.6,5.1,0.8,7.7
	c0.5,5.7,0.6,11.5,0.4,17.2c-0.1,2.1-0.2,4.2-0.4,6.3c-1.6-1.2-3.4-2.3-5.2-3.2c-2.3-1.2-5.6-0.8-6.8,1.7
	c-3.2,6.4-3.4,13.2-2.2,20.1c1.2,6.9,3.2,12.1,4.7,18.2c0.3,1.4,0.6,2.7,0.8,4.1c0.1,0.4,0.2,0.8,0.2,1.2l0.3,2.1
	c0.2,2.9,0.3,5.9,0.1,8.8c-0.1,1.3-0.2,2.6-0.4,3.8c0,0.2-0.1,0.4-0.1,0.5c0,0,0-0.1,0-0.1c0,0.3,0,0.5-0.1,0.8
	c-0.1,0.8-0.3,1.6-0.4,2.4c-0.6,2.8-1.4,5.5-2.4,8.2l-0.9,2.3l-0.6,1.2c-0.6,1.5-1.4,2.9-2.2,4.3c-0.8,1.4-1.6,2.8-2.5,4.1l-1.4,1.9
	l-0.2,0.3l-0.9,1.1c-1.6,2-2.1,5.1,0,7.1s5.3,2.1,7.1,0c8-9.7,13.1-21.5,14.6-34c0.8-6,0.6-12.1-0.4-18.1c-1-6.1-3.1-12-4.6-18
	c-0.4-1.7-0.7-3.4-1-5.1c-0.1-0.2-0.1-0.5-0.2-0.7v-0.9c0-0.8-0.1-1.6-0.1-2.5L793.3,393.5C793.3,393.5,793.3,393.5,793.3,393.5z"/>
<path d="M746.3,565.6l1.2-2.2c0.8-1.5,1.5-3,2.2-4.6c5.8-13.6,6.7-28.5,7.2-43.1c0.1-4.1-0.5-8.1-1.6-12c-1.2-4.6-2.8-9.2-4.4-13.6
	c-1.6-4.4-4.4-11.3-6.9-16.8c-1.6-3.8-3.5-7.5-5.6-11c-1.4-2.4-4.4-3.2-6.8-1.8c-2.4,1.4-3.2,4.4-1.8,6.8c1.8,3.1,3.5,6.2,4.9,9.5
	c0.4,1,0.9,1.9,1.3,2.9l0.7,1.6c0.1,0.3,0.2,0.6,0.4,0.9c0.1,0.3,0.6,1.6,0.1,0.2l2.8,7c1.8,4.7,3.5,9.4,4.9,14.2
	c0.6,2,1.1,4.1,1.5,6.2c0.2,0.7,0.3,1.5,0.5,2.3c0,0.4,0,0.8,0.1,1.2c0.1,2.9-0.2,5.9-0.3,8.8s-0.4,6.9-0.8,10.4l-0.3,2.6
	c0,0.3,0,0.5-0.1,0.8c0,0.3,0,0.5-0.1,0.8c-0.2,1.7-0.5,3.4-0.9,5.1c-0.7,3.5-1.6,6.9-2.8,10.3l-0.8,2c-0.1,0.1-0.1,0.1-0.1,0.2
	s0,0.1-0.1,0.2l-0.5,1.1c-0.8,1.7-1.7,3.2-2.5,4.8c-1.5,3.2-2.7,6.4-3.7,9.8c-0.9,3.1-1.7,6.3-2.8,9.3c-0.2,0.8-0.5,1.5-0.8,2.3
	c0,0.2-0.1,0.3-0.2,0.5c-0.1,0.3-0.2,0.6-0.4,0.8c-0.6,1.4-1.4,2.8-2.3,4.1c-0.1,0.3-0.2,0.5-0.4,0.7c0.3-0.4,0.3-0.4-0.2,0.2
	l-0.3,0.3l-1.5,1.7c-1,1-2.1,1.8-3.1,2.7l-0.9,0.7l-1.7,1.2l-3.8,2.9c-1.5,1.1-2.8,2.5-4,3.9l-0.7-0.8l-0.8-1l-0.5-0.7l-0.5-0.6
	l-0.9-1.3c-0.5-0.7-0.9-1.5-1.3-2.3c-0.1-0.2-0.2-0.3-0.2-0.5c-0.2-0.5-0.4-1.1-0.5-1.6c-0.8-3.3-4.5-4.4-7.3-3
	c-6.3,3.2-12,7.4-16.9,12.4c-5.3,5.3-10.7,13-8.4,20.9c1.4,5.1,5.7,8.7,10.2,11c2.4,1.2,5.6,0.7,6.9-1.8s0.7-5.6-1.8-6.9
	c-0.9-0.4-1.8-0.9-2.7-1.5l-0.4-0.2c0,0,0,0,0,0c0,0.1,0,0,0-0.1l-0.1,0l-0.2-0.2c-0.2-0.1-0.2-0.2-0.2-0.2l-0.5-0.4l-0.8-0.9
	l-0.6-1h-0.1c-0.1-0.2-0.1-0.5-0.2-0.8v-1.8l0.3-0.8c0-0.2,0.1-0.4,0.2-0.6h-0.1c0-0.1,0.1-0.2,0.1-0.3c0.1-0.1,0.1-0.2,0.1-0.3
	c0.1-0.1,0.1-0.1,0.1-0.2c0.7-1.3,1.6-2.5,2.4-3.8c-0.9,1.4,0,0.1,0.2-0.2l0.7-0.8l1.9-2l3.8-3.5l1.9-1.5c-1.3,1.1,0,0,0.3-0.2
	l1-0.8l3-2c1.2,2,2.6,3.8,4,5.7l0.9,1c0,0.1,0.1,0.2,0.2,0.3l1.6,2.3c0.4,0.6,0.7,1.5,1.1,2.1c0,0,0,0.1,0.1,0.1c0,0,0,0.1,0,0.1
	c0.1,0.2,0.2,0.5,0.2,0.7c0.2,0.5,0.3,1.1,0.4,1.6c0.7,2.4,3,3.9,5.5,3.6c2.4-0.3,4.3-2.4,4.3-4.9c0.1-0.4,0.1-0.7,0.1-1.1
	c0.2-0.6,0.3-1.1,0.3-1.7l0.3-0.7h0c0.1-0.3,0.2-0.5,0.3-0.5s0.3-0.7,0.5-1l0.4-0.6l1-1.1c0.8-0.8,1.6-1.4,2.4-2.1l0.7-0.5l1.4-1
	l3.9-2.9c2-1.6,3.9-3.3,5.5-5.3c4.6-5.6,6.7-12.2,8.6-19c0.4-1.4,0.9-2.8,1.3-4.3c0.4-1.7,1-3.3,1.7-4.9c-0.6,1.1,0,0,0.1-0.2
	L746.3,565.6z M683,618.7c0.1-0.1,0.1-0.3,0.1-0.4C683.1,619.3,682.9,619.2,683,618.7z M718,610.3L718,610.3
	C718,610.3,718,610.3,718,610.3z"/>
</svg>
