<?xml version="1.0" encoding="utf-8"?>
<!-- Generator: Adobe Illustrator 24.2.3, SVG Export Plug-In . SVG Version: 6.00 Build 0)  -->
<svg version="1.1" id="fd776017-040a-454a-bd04-534e087437aa"
	 xmlns="http://www.w3.org/2000/svg" xmlns:xlink="http://www.w3.org/1999/xlink" x="0px" y="0px" viewBox="0 0 1152 864"
	 style="enable-background:new 0 0 1152 864;" xml:space="preserve">
<path d="M645.7,416.1c-1.5-0.8-3.3-1.3-5-1.3l-1.6-0.2h-1.6c-2.8-0.5-5.5-1.3-8.2-2.2l-1.8-0.7h-0.2l-0.7-0.4
	c-1.5-0.6-2.9-1.3-4.3-2.1l-7.4-4.1c-5-2.9-10-6-15.3-8.6c-5.8-2.9-12.1-4.9-18.6-5.8c-6.4-0.7-12.8,0.2-18.7,2.8
	c-5.3,2.3-10.1,5.6-14.9,8.9s-9.4,6.4-14.3,9.4c-2.8,1.7-5.7,3.3-8.6,4.8l-4.2,2l-0.8,0.4l-0.6,0.2l-2.2,0.9c-2.9,1.1-5.9,2-8.9,2.7
	c-1.5,0.4-3,0.7-4.5,0.9h-1.7l-2.5,0.2c-2.6,0.1-5.2,2.2-5,5c0.1,2.7,2.3,4.9,5,5c11-0.6,21.3-4.2,31.1-9.2s17.9-11,26.6-16.8
	c2.1-1.5,4.4-2.9,6.7-4.1c1.1-0.6,2.2-1.1,3.3-1.6h0.2l0.8-0.3l2-0.7l3.5-0.7h3.4l3.5,0.2l1.2,0.2l2.2,0.4c2.6,0.6,5.1,1.5,7.6,2.5
	l0.8,0.3h0.3l1.9,0.9l3.6,1.8c4.8,2.5,9.3,5.4,13.9,8c5.3,3.2,10.8,5.8,16.6,7.9c2.7,0.9,5.4,1.5,8.2,1.9h0.9c0.5,1,1.2,1.9,2.2,2.5
	c1.9,1.1,4.2,1.1,6.1,0c3.1-1.5,4.4-5.1,2.9-8.2C648,417.6,647,416.6,645.7,416.1z"/>
<path d="M1013.2,539c-3.2-17.3-6.6-34.5-6.6-52.2s3.1-37,4.5-55.5c0.6-8.3-0.3-17-6.5-23.1c-6.2-6.1-13.8-7.9-21.1-10.4
	c-16.3-5.6-32.7-10.7-48.9-16.4c-16.2-5.7-31.4-11.9-46.1-20c-14.7-8.1-28.6-19.3-45.3-23.8c-8.6-2.3-17.6-3.1-26.4-3.5
	c-8.8-0.4-18.5-0.5-27.8-0.4c-18.9,0.2-37.8,1.2-56.6,2.6c-18.8,1.4-37.6,2.1-55.9,6.4l-13.1,3.1c-4.1,1-8.3,1.7-12.4,2.8
	c-7.6,2.2-14.8,5.4-21.6,9.5c-4.6,2.7-9,5.8-13.2,9.2c-8.7-0.2-17.4,0.2-26.1,0.6c-18.5,0.8-37.1,2.3-55.3,5.6l-1.7-0.2l-1.9-0.3
	l-4.5-1.1l-4.1-1.4l-2-0.8h-0.4l-1.4-0.7c-5.6-2.7-10.9-6-15.9-9.8c-4.6-3.4-9.8-7.9-14.6-12c-4.8-4.1-10.1-9-15.3-13.2
	c-10.2-8.2-21.3-15.8-34.1-19.3c-3.6-0.9-7.3-1.7-11-2.1c-0.5-0.1-1.1-0.2-1.6-0.1c-13.3-1.4-26.9-0.1-40.3-1.1
	c-8.2-0.6-16.2-2.6-23.7-6.1c-4.1-1.9-8.2-3.9-12.6-5c-4.5-1.1-9.2-1.2-13.8-0.4c-8.5,1.4-16.3,6.2-23.6,10.8c-7.3,4.6-14.4,9-22,13
	c-15.3,8-31.5,14.5-48.5,18.1c-15.2,3.2-30.7,2.7-46,4.7c-7.7,1.1-15.2,2.7-22.2,6.1c-6.9,3.4-12.7,8.5-17,14.8
	c-8.7,13-9.8,29.3-13.5,44.1c-7.8,31.5-29.6,59.6-29.1,93.1c0.1,4.3,0.2,9.1,3.6,12.2c3.4,3.1,7.7,3,11.5,1.8
	c3.8-1.2,7-3.3,10.2-5.4s6.7-4.7,9.9-7.2c12.1-9.4,22.6-20.8,32.5-32.5c3.1-3.7,6.2-7.4,9.2-11.2c4.9,7.4,9.6,15.1,13.8,22.9
	c2.5,4.7,4.9,9.5,7.2,14.3c1.1,2.4,2.3,4.9,3.3,7.4c0.3,0.5,0.5,1.1,0.8,1.6l0.3,0.9l0.3,0.7c0.1,0.2,0.2,0.3,0.2,0.4l0.3,0.8
	l0.9,2.1c2.2,5.6,4.3,11.3,6.3,17l-1.5,4.8c-3.8,13.9-4.8,28.3-4.4,42.7c0.4,14.4,2,28.3,2.5,42.6c0.1,3.5,0.1,7.1,0.1,10.7
	c0,2.8,2.2,5,5,5c2.7-0.1,4.9-2.3,5-5c0.2-14.2-1.2-28.3-2.1-42.4c-0.4-7-0.7-14-0.5-21c0-3.6,0.2-7.1,0.5-10.6
	c0.3-3.5,0.7-5.9,1.3-9.6c1.2-6.2,2.9-12.4,4.9-18.4c1-2.8,2.1-5.6,3.2-8.4c0.1-0.1,0.2-0.3,0.2-0.4c0.1-0.3,0.2-0.6,0.4-0.9
	c0.2-0.6,0.4-1.1,0.7-1.6l2.1-4.5c5.2-10.7,11.4-20.9,18.4-30.5l2.4-3.2l1.4-1.8l0.3-0.5l0.7-0.9l5.6-6.9c3.9-4.6,7.9-9.2,12-13.6
	c8.1-8.8,16.6-17.1,25.2-25.3c8.6-8.2,17.4-16.2,26.5-23.8l7-5.8l1.8-1.4l0.8-0.5l0.6-0.5l0.5-0.4l0.7-0.6l2.2-1.6
	c4.8-3.6,9.7-7,14.6-10.2c4.9-3.2,10.3-6.5,15.7-9.3c2.6-1.4,5.3-2.8,8.1-4.1l3.7-1.7l2-0.9l0.5-0.2l0.8-0.4
	c11.1-4.6,22.7-7.7,34.6-9.5h1.1l2.3-0.3l4.6-0.4c2.6-0.2,5.1-2.2,5-5c-0.1-2.8-2.2-5.2-5-5c-25,1.7-48.8,10.5-70.3,23.2
	c-21.5,12.7-40.2,28.5-58.2,45.2s-35,33.5-49.9,52.6c-11,14.1-20.7,29.4-27.8,45.9c-6.3-16.5-14-32.5-23.1-47.7
	c-2.9-4.8-5.9-9.4-9-14c4.7-5.7,9.3-11.4,14.1-16.9c10.6-12.1,22.1-23.3,34.6-33.4c24.4-19.7,52.1-35.2,80.9-47.3
	c14.9-6.3,30.2-11.7,45.6-16.6c13.1-4.2,26.3-7.9,39.3-12.4c4.9-1.7,9.8-3.5,14.8-5c4.4,0.5,8.7,1.4,12.9,2.8
	c2.6,0.9,5.1,1.9,7.5,3.2c2.9,1.5,5.6,3.1,8.3,4.9c10.5,6.8,19.7,15.5,29.6,23.9c9.9,8.4,18.6,15.4,29.4,20.5
	c-11.5,3-22.7,6.8-33.5,11.6c-2.4,1.1-3.2,4.8-1.8,6.9c1.5,2.3,4.4,3.1,6.8,1.8l2.1-1l0.9-0.3h0.2l4-1.6l8.3-3.1
	c5.5-1.8,11.1-3.5,16.7-4.9c5.6-1.4,11.2-2.7,16.8-3.7h0.3l1.4-0.2l6.8-1.2l4.1-0.6l2.2-0.3h1.4c11.5-1.5,23.2-2.4,34.8-2.9
	s24-1.1,36-0.7c3.4,0.1,6.8,0.3,10.2,0.7l1.3,0.2h1.1l2,0.3l5,0.9c6.6,1.4,13,3.4,19.2,5.9c2.4,1,5.6-1.1,6.2-3.5
	c0.6-2.4-0.9-5.1-3.5-6.2c-10-4-20.6-6.5-31.3-7.7l3.6-2.1c6.3-3.8,13.2-6.6,20.3-8.4l25.3-5.8c8.6-1.8,17.3-3,26-3.6h0.3
	c14.4,2.6,28.4,7,42.4,11c7.1,2,14.2,4,21.4,5.7s14.4,3.2,21.4,5.6c29,9.7,54.2,29,74.9,51.3c22.7,24.5,40.5,53,57.9,81.4
	c-12,11.3-23.4,23.1-34.2,35.6c-0.8-2.3-1.6-4.6-2.6-6.8c-5.9-14.3-14-27.4-22.3-40.4s-18.9-28.7-28.9-42.7
	c-8.4-11.7-16-24.3-27.8-33l-4.3-2.8c-2.4-1.4-5.5-0.6-6.9,1.8c-1.3,2.4-0.5,5.4,1.8,6.9c1.5,0.8,2.9,1.7,4.3,2.7l0.7,0.6l0.4,0.3
	l2,1.7c2.5,2.3,4.9,4.8,7.1,7.5l1.6,2l0.6,0.7l0.5,0.7l3.2,4.3l5.8,8.4c9.6,13.7,19.3,27.3,28.3,41.4c9,14.1,16.5,25.4,22.8,39.2
	c0.4,0.8,0.7,1.6,1.1,2.5s0.3,0.7,0.5,1l0.3,0.8c0.7,1.7,1.3,3.4,1.9,5.1c1.3,3.4,2.3,6.9,3.2,10.5c0.5,1.8,0.9,3.6,1.2,5.5
	c0.1,0.8,0.3,1.7,0.4,2.6c0.1,0.2,0.1,0.3,0.1,0.5c0.1,0.5,0.1,1,0.2,1.5c0.4,3.8,0.6,7.5,0.5,11.3c-0.2,8.5-1.5,17-1.3,25.6
	s1.9,17.8,3.4,26.7c0.4,2,0.7,4.1,1.1,6.2s3.7,4.3,6.1,3.5s3.9-3.4,3.5-6.2s-1.5-8.6-2.2-12.9c-0.1-1-0.3-2.1-0.5-3.1
	c0-0.5-0.1-0.9-0.2-1.4c0-0.3,0-0.5-0.1-0.8s-0.1-0.5-0.1-0.8v-0.2c-0.1-0.3-0.1-0.5-0.1-0.8c-0.1-0.6-0.2-1.1-0.2-1.7
	c-0.1-1.1-0.3-2.2-0.4-3.3c-0.7-8.8,0.1-17.6,0.8-26.4c0.6-9-0.1-18-2.2-26.8l0.3-0.2c11.3-13.4,23.3-26.1,36-38.1
	c16.6,27.1,33.4,54.2,54.3,78.3c2.8,3.2,5.6,6.4,8.5,9.4s5.9,6.9,10.1,7.8s8.3-1.2,10.6-4.8s2.6-7.1,2.9-10.8
	C1019.2,574.1,1016.4,556.3,1013.2,539z M392.9,323.5c-15.2,4.5-30.3,9-45.2,14.4c-29.5,10.7-58.3,23.9-84.5,41.2
	c-13.3,8.9-26,18.8-37.8,29.6c-11.5,10.6-21.7,22.2-31.6,34.3c-19,23.2-37.4,48.2-63.4,64l-2,1.2l-1.4,0.6l-1.3,0.4h-1.3
	c-0.1-0.5-0.2-1.1-0.2-1.6c-0.2-2.1-0.2-4.1-0.2-6.1c0.3-7.6,1.7-15.1,4-22.4c4.7-15.5,12.1-29.9,18.1-44.8c3-7.4,5.4-15,7.3-22.7
	c1.7-7.4,2.8-14.9,4.8-22.2c2-7.3,4-13.4,8.3-18.8c4.2-5,9.7-8.8,15.9-11c13.5-4.8,28-4.2,42.3-5.4c17.2-1.5,34-5.6,49.9-12.2
	c8.1-3.3,16-7.1,23.7-11.3c7.5-4,14.6-8.6,21.8-13.1c7.2-4.5,13.8-8.2,21.6-8.3c7.8-0.1,15.6,5.1,23.1,7.9c10.6,4,22,4.6,33.3,4.6
	L392.9,323.5z M1007.5,592.5c-0.1,0.5-0.2,0.9-0.2,1.4c-0.1,0.1-0.1,0.3-0.1,0.4c-0.2,0.7-0.4,1.4-0.6,2.1c-0.2,0.3-0.4,0.6-0.5,1
	c-0.1,0.1-0.1,0.1-0.1,0.2l-0.9-0.8l-4.3-4.5c-22.9-24.2-40.9-52.5-58.3-80.8s-34.9-57.8-56.4-83.9c-19.7-24-43.5-45.4-71.6-59
	c-7-3.4-14.3-6.3-21.7-8.6c-6.8-2.2-13.7-3.5-20.6-5.2c-11-2.7-21.9-6-32.8-9.1c26-1.8,52.1-2.8,78.1-1.6c8.2,0.3,16.4,1.4,24.4,3.5
	c7.8,2.3,14.8,6.1,21.7,10.3c6.9,4.2,14,9,21.4,12.9c7.3,4,14.9,7.6,22.6,10.8c15.6,6.6,31.6,12,47.6,17.3l23.9,7.9
	c6.4,2.2,14,4,18.6,8.7s3.6,13.4,3,20.1c-0.8,9.2-1.9,18.2-2.8,27.4c-0.9,8.9-1.3,17.9-1.3,26.9c0.3,8.9,1.1,17.9,2.5,26.7
	c2.6,16.9,6.7,33.5,8.3,50.5C1008.2,575.5,1008.2,584,1007.5,592.5z"/>
</svg>
