<?xml version="1.0" encoding="utf-8"?>
<!-- Generator: Adobe Illustrator 24.2.3, SVG Export Plug-In . SVG Version: 6.00 Build 0)  -->
<svg version="1.1" id="bb23c969-64d8-44b8-af01-cb59b4952c97"
	 xmlns="http://www.w3.org/2000/svg" xmlns:xlink="http://www.w3.org/1999/xlink" x="0px" y="0px" viewBox="0 0 1152 864"
	 style="enable-background:new 0 0 1152 864;" xml:space="preserve">
<path d="M544.3,208.2c-12.2-9.1-26.4-15.2-41.4-17.8c-4.5-0.7-9-1.2-13.5-1.4c-2.6-0.1-4.2,2.2-4.5,4.5c-0.9,7.3,6.3,11,10.4,15.6
	l0.6,0.6l0.2,0.3l0.5,0.8h0.1c0,0.2,0.1,0.3,0.1,0.4c0.1,0.2,0.1,0.4,0.1,0.6c0.1,0,0.1,0.2,0.1,0.3v0.7c-0.1,0.1-0.1,0.3-0.1,0.2
	c-0.1,0.5-0.3,1-0.5,1.5l-0.2,0.5l-0.7,1.1l-0.3,0.5l-1.2,1.2l-1,0.9l-0.4,0.4l-3,1.7c-3.7,2-7.7,3.3-11.3,5.6c-3.2,2-6,4.5-8.4,7.3
	c-4.7,5.9-8.1,12.7-10.1,20c-2,7.2-3.4,14.4-4.4,21.8c-1.5,9.5-2.8,19.2-2.4,28.8c0.3,8.9,2.4,17.6,6.2,25.6
	c3.1,6.6,6.7,12.9,10.8,19c4.1,5.9,7.9,12,11.4,18.3l1.4,2.9c-7.9-9.4-17.2-17.5-27.7-23.9c-8-4.9-17.3-9.3-27-7.7
	c-4.6,0.7-8.7,3.1-11.6,6.7c-2.6,3.4-4.5,7.3-5.4,11.5c-0.8,4.1-1.4,8.3-1.7,12.5l-0.3,3.2c-0.1,0.6-0.2,1.2-0.2,1.8
	c-0.1,0.3-0.1,0.6-0.1,0.9c-0.1,0.3-0.1,0.5-0.1,0.8l-1.2,7.2c-1.8,9.8-4.6,19.3-8.3,28.5h-0.1l-0.3,0.8c-0.3,0.5-0.5,1.1-0.8,1.6
	s-1,2.3-1.6,3.5c-0.6,1.2-2.2,4.4-3.5,6.5c-2.4,4.2-5,8.2-7.7,12.3c-5.3,8-10.9,15.9-15.3,24.5c-8,15.7-12.1,35.5-3.3,51.8
	c1.1,2,2.4,3.9,3.9,5.7c1.5,1.9,4.8,1.7,6.4,0c1.6-1.7,1.5-4.4,0-6.3h-0.1l-0.4-0.5l-0.8-1.3c-0.6-0.8-1-1.7-1.5-2.5
	c-0.2-0.5-0.4-1-0.7-1.4c0-0.1-0.1-0.3-0.2-0.4l-1-3c-0.5-1.8-0.9-3.6-1.2-5.4c0-0.1-0.1-0.6-0.1-0.9c-0.1-0.5-0.1-0.9-0.1-1.4
	c-0.1-1.1-0.1-2.1-0.1-3.1s0.1-4.1,0.3-6.1v-0.7c0.1-0.4,0.1-0.9,0.2-1.3c0.1-0.4,0.4-2.2,0.7-3.3c0.3-1.1,1-3.8,1.6-5.7
	c0.6-1.9,0.7-2,1-2.9l0.6-1.5l0.3-0.5c7.6-17.1,20.4-31.2,28.7-47.9c4.3-8.8,7.7-18.1,10-27.7c2.2-9.2,3.6-18.5,4.4-27.9
	c0.1-1,0.3-1.9,0.4-2.9v-0.3l0.3-1.6c0.3-1.9,0.7-3.7,1.3-5.5c0.1-0.4,0.3-0.9,0.5-1.3c0-0.1,0-0.2,0.1-0.3c0.4-0.9,0.8-1.7,1.3-2.5
	l0.6-0.9c0.2-0.1,0.3-0.3,0.4-0.4l0.8-0.9l0.5-0.4l0.5-0.4l2-1.1l0.6-0.2l1.6-0.5h5.9l1.6,0.3l3.3,1.1l1.3,0.5l0.5,0.2h0.3l2.9,1.4
	c3.8,2,7.5,4.3,11,6.8l2.5,1.8l0.7,0.4c0,0.1,0.2,0.2,0.3,0.3s0.3,0.2,0.3,0.3l0.8,0.6l5,4.2c3.1,2.9,6.1,5.9,8.9,9.1
	c0.7,0.8,1.3,1.6,2,2.3c0.3,0.5,0.6,0.9,1,1.3l0.5,0.6v0.2h0.1c1.2,1.7,2.5,3.4,3.6,5.1l3.5,5.5c1.8,2,3.9,3.7,6.1,5.1
	c2.5,0,4.5-2,4.5-4.5c0.8-14.8-6.8-28.1-14.7-40.1c-3.9-6.1-8-12-11.5-18.3c-0.9-1.6-1.8-3.2-2.5-4.8l-1.1-2.3
	c-0.1-0.3-0.5-1.2-0.2-0.4c-0.2-0.5-0.4-1-0.5-1.5c-1.5-3.9-2.6-7.9-3.2-12c-0.1-0.3-0.1-0.5-0.1-0.8c-0.1-0.5-0.1-1.1-0.2-1.6
	c-0.1-0.5-0.2-2.3-0.2-3.5s-0.1-4.7,0-7c0.1-2.3,0.2-4.7,0.5-7l0.3-3.6c0.1-0.5,0.2-1.1,0.2-1.6c0.1-0.3,0.1-0.6,0.2-0.9v-0.4
	c1-7.8,2.3-15.6,4.1-23.3c0.8-3.5,1.9-7,3.2-10.3c0.1-0.1,0.3-0.8,0.4-0.9l0.3-0.7c0.3-0.8,0.8-1.6,1.2-2.5c0.4-0.9,1.7-3,2.6-4.4
	c0.3-0.3,0.5-0.6,0.7-1l0.2-0.2h0.1l1.7-1.9l1.8-1.8l0.9-0.8l0.4-0.3c3.4-2.2,7-4.1,10.8-5.7c4.1-1.9,7.9-4.2,10.7-7.8
	c2.8-3.6,4.4-8.3,3.3-12.9c-1.1-4.6-3.2-6.4-5.8-8.7l-2.5-2.2h0.7l1.5,0.2c3.6,0.6,7.1,1.4,10.6,2.4c3.5,0.9,6.9,2.1,10.2,3.5
	l0.5,0.2l1.2,0.5l2.5,1.2l4.9,2.5c3.6,2,7.1,4.3,10.4,6.7c1.9,1.4,5.1,0.4,6.2-1.6S546.4,209.7,544.3,208.2z M493.9,194.9
	c0.1,0.1,0.2,0.2,0.2,0.4L493.9,194.9z M376.8,512.1C376.4,511.6,376.7,511.9,376.8,512.1L376.8,512.1z"/>
<path d="M954.2,408.3c-17.5-34.6-54.8-52-86.4-71c-19.1-11.4-37.1-24.4-53.8-39c-16.9-14.8-32.1-31.3-46.8-48.4
	c-14.7-17.1-28.8-34.5-44.5-50.6c-6.5-7-13.6-13.5-21.1-19.4c-6.3-4.7-12.9-8.9-19.8-12.5c-15.9-8.5-32.6-15.4-49.8-20.7
	c-17-5.5-34.5-9.3-52.3-11.5c-7.3-0.9-14.7-1.3-22.1-1.1h-0.4l-1-0.2c-19,0.2-37.8,3-56.1,8.1c-17.9,4.9-35.5,11.8-51.4,21.4
	c-12.7,7.6-25.5,17.5-33,30.7c-2.1,3.6-3.6,7.4-5.6,11.1c-2.2,4.2-4.8,8.2-7.5,12.1c-5.6,7.9-11.9,15.2-18.8,22
	c-13.8,14.1-29.1,26.6-43.3,40.2c-7.8,7.3-15,15.1-22.8,22.3c-8.2,7.7-16.8,15-25.7,21.9c-16.8,13-34.7,24-53.1,34.7
	c-16.3,9.5-32.8,19.2-46.9,32c-14.1,12.8-26,30.9-30.8,50.8c-4.8,19.9-5.1,41.6-2.1,62.2c6,40.3,25.6,77.3,55.6,104.9
	c15.8,14.4,33.7,26.4,48.9,41.5s25.9,34.8,36,54.3c4.5,8.5,8.9,20,18.2,24.2c9.3,4.2,20-0.5,21.2-11.3c0.6-5.1-0.7-10.4-1.4-15.4
	c-0.7-5-1.8-12.2-2.8-18.3c-1.7-11.2-3.5-22.4-5.2-33.7c2.1,4.6,4.6,9,7.3,13.3c2.1,3.3,4.5,6.4,7.2,9.2c1.6,1.4,3.2,2.7,5,3.9
	l1,0.6c0.2,1,0.7,1.9,1.4,2.6c1.2,1,2.7,1.6,4.3,1.5c3.3-0.1,5.8-2.8,5.7-6.1c0-0.4-0.1-0.9-0.2-1.3c-0.9-2.7-3-3.8-5.3-4.9
	l-2.3-1.4l-0.6-0.3l-0.2-0.2l-0.6-0.5c-1.3-1.2-2.5-2.5-3.7-3.8l-0.5-0.6l-0.6-0.9l-1.5-2.2c-1.5-2-2.8-4.1-3.9-6.3
	c-4.9-9.1-9-18.7-13.4-28c-1.3-3-2.7-6-4.2-8.8c-5.2-37.5-9.2-75.1-9.1-112.9c0-23.8,2-47.6,6.2-71.1c4.1-22.7,12.4-45,13.5-68.2
	c0.5-9.8-1-19.5-4.3-28.7l1-1.4l0.6-0.9c0.1,0,0.2-0.2,0.3-0.3l1.2-1.5c1.6-1.9,3.3-3.7,5-5.5s3.5-3.3,5.4-4.8l1.3-1.1l0.7-0.6h0.1
	l2.9-2.2c7.7-5.5,16-10.3,24-15.6c5.1-3.4,10-7,14.7-11c1.7-1.7,1.8-4.5,0.1-6.2l-0.1-0.1c-1.8-1.7-4.6-1.7-6.4,0l-3.1,2.5l-0.8,0.7
	h-0.2l-1.5,1.2c-2.1,1.5-4.3,3.1-6.5,4.5c-4,2.8-8.2,5.4-12.4,8c-8.3,5.2-16.6,10.6-23.7,17.5c-4.2,4-7.9,8.5-11.1,13.3l-0.4,0.6
	c-18.7,34.8-25.5,74.2-28.3,113.2c-1.4,19.4-2,38.9-2.4,58.3c-0.4,19.4-0.3,37.6,2.3,56.2s8.6,38.9,19.6,55.5
	c0.1,0.7,0.3,1.3,0.7,1.9c0.9,1.5,1.8,3.1,2.6,4.7c2.7,19,5.7,38,8.6,57c1.8,11.2,4.2,22.6,5.1,33.9c0.2,3.3,0.3,7.9-3.8,8.6
	s-7.4-2.1-9.7-5c-2.3-2.9-5.2-8.8-7.5-13.2s-5.1-9.7-7.7-14.6c-5-9.3-10.2-18.6-16.5-27.2c-12.3-17-28.6-30-45-43.1
	c-16.4-13.1-30.6-25.7-42.3-42.2c-11.2-15.8-19.7-33.4-25-52.1c-5.3-18.4-7.3-37.7-6.1-56.8c1.3-20.4,6.6-40.8,19.5-57
	c11.3-14.1,26.2-24.6,41.4-34c15.2-9.4,33.8-19.4,49.9-30.3c18.1-12.2,35.1-25.9,50.9-41c7.3-7,14.2-14.4,21.6-21.3l21.5-19.4
	c14.1-12.8,28.1-26.1,39.1-41.8c2.7-3.8,5.1-7.7,7.3-11.7c1.9-3.5,3.4-7.2,5.3-10.7c3.3-5.7,7.4-10.8,12.4-15.1
	c11.9-11,26.8-19,41.7-25c17.2-7,35.2-11.9,53.6-14.5c8.5-1.2,17-1.8,25.5-1.9h1.4c15.6-0.5,31.3,2,46.5,5.4
	c17.3,3.9,34.3,9.3,50.8,16c14.5,6,29,13.2,41.6,22.7c7.2,5.5,13.6,12,19.9,18.5s14.9,16,22.1,24.3c14.2,16.5,28,33.5,42.9,49.4
	c15,15.8,31.3,30.3,48.7,43.4c16.3,12.2,33.6,22.6,51.1,32.9c15.7,9.1,31.6,18.4,44.9,30.9c6.6,5.9,12.3,12.8,17,20.3
	c5.4,9,9.1,19,11.1,29.3c3.7,19.3,3.9,39.1,0.3,58.4c-6.8,38.5-26.6,73.4-56,99.1c-15.5,13.6-32.7,25.3-47.1,40.1
	s-25.2,34.2-35.1,53.1c-2.4,4.7-4.7,9.4-7.4,14s-4.9,7.6-9.3,8.5c-10.6,2.2-5.6-15.2-4.8-20.4c3.5-23,7.6-45.8,11.6-68.7
	c0.8-5.1,1.7-10.2,2.5-15.3c22.2-30.6,36.1-68.9,32.9-107.1c-0.8-9.6-3-19-4.6-28.5s-3.2-19.4-4.6-29.1c-2.8-19.5-5.5-39-9.6-58.2
	c-4.6-21.2-11.2-42-21.4-61.2l-0.3-0.7l-0.5-0.6c-5.8-8.4-13.1-15.8-21.4-21.8c-7.8-5.7-16.2-10.5-24.3-15.9
	c-2.4-1.5-4.7-3.1-6.9-4.8l-1.9-1.3l-0.6-0.5l-0.6-0.5l-3.6-2.9c-1.8-1.7-4.6-1.7-6.4,0c-1.5,1.6-1.9,4.7,0,6.3
	c8,6.8,16.7,12.4,25.5,17.9c4,2.5,8,5,11.8,7.7l2.8,2l1.3,1l0.9,0.7c1.8,1.5,3.7,3.1,5.4,4.7c2,1.9,3.9,3.8,5.7,5.9l1.5,2l0.5,0.6
	c-0.5-0.7,0.3,0.3,0.3,0.4l1.6,2.1c-7,19.6-0.5,39.9,5.7,59c7,21.7,11.5,44.2,13.2,67c3.9,47.4-1.6,94.9-9.1,141.6
	c-1.8,11.2-3.7,22.4-5.6,33.6c-0.5,0.4-0.9,0.9-1.3,1.4c-3.2,5.1-6.8,9.9-10.3,14.7c-4.5,6.3-9,12.5-13.4,18.8
	c-1.7,2.3-3.3,4.6-4.8,7c-1.4,2.4-0.6,5.4,1.8,6.8c2.4,1.3,5.3,0.6,6.8-1.7c3.2-5.1,6.8-9.9,10.3-14.7l7-9.8c-0.9,5-1.8,10-2.6,15
	c-2,11.7-3.9,23.5-5.6,35.3c-0.7,4.8-1,9.9,1.3,14.3s7,7,11.9,7.1c10.8,0.3,16.9-9.2,21.4-17.6s10.1-19.5,15.6-29.1
	s11.4-18.8,18.7-27c7.2-7.9,15.1-15.2,23.5-21.8c16.2-13.3,33.1-25.8,46.8-41.8c12.9-15.4,23.2-32.7,30.4-51.4
	c7.2-18.8,11.2-38.7,11.8-58.8C966.6,449.8,963.8,427.4,954.2,408.3z M359.8,674.1v0.2c-0.1-0.1-0.1-0.2-0.1-0.3
	C359.7,674.1,359.7,674.1,359.8,674.1z M307.8,468.2c-3.4,42.6-0.2,85.3,5.1,127.6c-12.1-26.6-13.2-57.4-12.8-86.4
	c0.5-37.7,1.2-76,8.7-113c3.3-17.5,8.7-34.5,16.1-50.7c3.8,17.8-1.1,36.9-5.4,54.1C313.7,422.2,309.8,445.1,307.8,468.2z
	 M821.6,482.4c0.2-22.8-1.8-45.6-5.9-68.1c-2-10.7-4.6-21.3-8-31.7c-3.2-10-6.7-20-8.5-30.3c-1.1-5.7-1.3-11.5-0.6-17.3
	c14.1,31,19.2,65.2,24,98.7c1.4,9.6,2.8,19.2,4.3,28.8s3.6,18.5,5,27.9c2.8,18.2,1.1,37.1-3.7,54.8c-3.7,13.1-9,25.8-15.7,37.6
	C817.6,549.6,821.5,516.1,821.6,482.4z"/>
<path d="M757.6,471.4L757,468c-0.1-0.6-0.1-1.1-0.2-1.6s-0.1-0.7-0.2-1.1c0-0.2,0-0.4-0.1-0.6v-0.6c-0.1-0.3-0.1-0.5-0.1-0.8
	c-0.1-0.5-0.2-1.1-0.2-1.6l-0.3-3.7c-0.1-2,0-4.1-0.3-6.1c-1.2-8.5-4.6-16.6-9.9-23.4c-3.1-4.1-6.5-8-10.1-11.7
	c-3.5-3.6-7.4-6.8-10.7-10.6c0-0.1-0.1-0.1-0.1-0.2l-0.2-0.3l-0.9-1.3c-0.6-0.9-1.2-1.8-1.7-2.8c-0.5-0.8-0.9-1.6-1.3-2.5l-0.3-0.6
	c0-0.2-0.1-0.3-0.2-0.5c0-0.1,0-0.2-0.1-0.2l-0.3-1c-1.5-4-2.6-8.2-3.3-12.4c-0.2-1.1-0.4-2.1-0.5-3.1c-0.1-0.5-0.2-1-0.2-1.5
	c0-0.1,0-0.1-0.1-0.1c0-0.3,0-0.6-0.1-0.9c-0.2-2.2-0.5-4.4-0.6-6.6l-1.2-13.2c-0.8-8.9-1.5-18.5-7.5-25.6c-6-7.1-18.6-7.8-27.7-4
	s-17.8,9.7-25.4,16.2l-1.5,1.3l4.1-4.6c5.5-6.3,11.2-12.6,16-19.5c4.8-6.9,8-13.3,8.4-21s-1.9-16.1-4.2-23.6s-5.3-15.7-7.6-23.6
	c-2.3-7.9-2.3-14.1-5-20.7c-1.3-3.3-3.1-6.3-5.5-8.9c-2.6-2.6-5.4-4.8-8.5-6.8c-4-2.6-8.2-4.9-12.6-6.8c-2.3-1-4.5-2.2-6.6-3.6
	l-0.8-0.7c-0.5-0.4-0.9-0.9-1.3-1.4l-0.2-0.2l-0.3-0.4l-0.9-1.6h-0.1c0-0.3-0.2-0.6-0.2-0.9c-0.1-0.2-0.2-0.5-0.2-0.7V201
	c0.1-0.1,0.1-0.6,0.1-0.7s0.1-0.4,0.2-0.6v-0.2c0.1-0.1,0.1-0.3,0.2-0.4l0.3-0.5l0.2-0.3l0.2-0.2l0.4-0.4l1-1.1
	c2.8-2.6,6.1-4.8,8-8.2c1.2-1.9,1.6-4.1,1.4-6.3c-0.1-2.4-2.1-4.4-4.5-4.5c-16-1.2-33.1,1.5-46.3,11.1c-3.5,2.6-6.7,5.5-9.5,8.8
	c-1.5,1.8-1.9,4.6,0,6.3c1.9,1.7,4.7,2,6.3,0s2.3-2.5,3.5-3.7l1.8-1.7l0.9-0.7l0.5-0.5l0.3-0.2l0.7-0.5l1.1-0.8l2.1-1.4
	c1.5-0.9,3.1-1.7,4.7-2.5l1.8-0.9l0.9-0.3l1.4-0.5c1.7-0.6,3.4-1.2,5.1-1.6l5.7-1.3l1.3-0.2h0.6l3-0.3c2.4-0.2,4.8-0.3,7.3-0.3
	l-1.7,1.5c-3.2,2.8-6.6,5.8-7.6,10.1c-1,4.3,1.1,11.2,5,15.2s9,5.7,13.8,8c4,1.9,7.7,4.2,11.2,6.8l0.4,0.3l0.8,0.7l1.8,1.6l1.4,1.4
	l0.6,0.8l0.2,0.3c0.8,1.2,1.4,2.4,2.1,3.6c0.6,1,0.2,0.5,0.1,0.4l0.3,0.9c0.3,0.9,0.6,1.8,0.8,2.6c1,3.7,1.4,7.4,2.2,11.1
	c1.6,7.6,4.5,14.9,6.9,22.3c1.3,4.1,2.7,8.2,3.8,12.4c0.5,1.9,0.9,3.8,1.3,5.8c0.2,0.9,0.4,1.9,0.5,2.8c0,0.2,0.1,0.3,0.1,0.5
	c0,0.5,0.1,0.9,0.2,1.4c0.1,1.7,0.2,3.5,0.1,5.2c0,0.4-0.1,0.7-0.1,1.1l-0.6,2.3c-0.2,0.8-0.5,1.5-0.8,2.3l-0.3,0.7
	c0,0.1-0.1,0.3-0.1,0.4l-0.4,0.8c-0.8,1.6-1.6,3.2-2.6,4.8s-2,3.2-3.1,4.8s-1.2,1.5-1.7,2.3l-0.4,0.5l-1,1.3c-2.6,3.2-5.3,6.3-8,9.4
	c-5.5,6.3-11.1,12.4-15.9,19.3c-4.8,6.9-8.1,13.6-9.1,21.5c-0.2,1.7-0.3,3.3-0.2,5c0,2.5,2,4.5,4.5,4.5c2.1-0.1,3.8-1.4,4.4-3.4
	c0.7-0.4,1.3-1,1.7-1.7c1.2-2,2.4-3.9,3.7-5.8l2-2.8c0.3-0.5,0.6-0.9,1-1.3l0.4-0.6c0.1-0.1,0.2-0.3,0.4-0.4
	c2.8-3.6,5.9-7.1,9.2-10.3c1.6-1.6,3.4-3.2,5.2-4.8c0.8-0.7,1.6-1.4,2.5-2l1.2-1h0.1l1-0.7c3.6-2.8,7.5-5.3,11.5-7.5l2.8-1.6
	l1.5-0.7l0.7-0.3h0.4c2.1-0.8,4.3-1.5,6.6-2l1.1-0.2h4.2l2.8,0.7l0.6,0.4l1.6,0.9l0.4,0.3l1,0.9l0.7,0.9l0.6,0.8l1.2,2.2
	c0.1,0.3,0.2,0.6,0.3,0.9c0.2,0.4,0.3,0.9,0.5,1.4c0.6,1.9,1,3.9,1.3,5.9c0,0.3,0.2,1.6,0.2,1.1c0,0.4,0,0.7,0.1,1.1l0.3,3.2
	c0.8,8.6,1.3,17.2,2.5,25.8s3.2,16.8,7.4,24.2c2.1,3.8,4.9,7.3,8.2,10.2c3.8,3.5,7.5,7.1,10.9,11l2.1,2.5l1,1.2l0.5,0.6l0.2,0.2h0.1
	c1.2,1.7,2.4,3.4,3.5,5.2c1.1,1.7,2,3.4,2.8,5.2c0.2,0.4,0.4,0.8,0.6,1.2l0.2,0.6l0.9,2.6c0.3,0.9,0.5,1.7,0.7,2.6
	c0.1,0.4,0.2,0.9,0.2,1.3c0.1,0.2,0.1,0.5,0.2,0.7v0.2c0,0.2,0.1,0.9,0.1,1c0.1,0.4,0.1,0.9,0.1,1.3c0.1,1,0.1,2.1,0.1,3.1
	c0.3,5,0.9,9.9,1.7,14.8c0.4,2.2,0.7,4.4,1,6.6c0,0.3,0.1,0.7,0.2,1c0,0.5,0.1,1.1,0.1,1.6l0.3,3.5c0.1,2.1,0,4.3-0.2,6.4
	c0,0.2,0,0.4-0.1,0.6l-0.3,1.4c-0.2,1.1-0.5,2.2-0.9,3.2c0,0.1-0.1,0.1-0.1,0.2c0,0.1-0.1,0.3-0.2,0.4c-0.2,0.5-0.4,1-0.7,1.4
	c-0.2,0.5-0.5,1-0.9,1.4c-0.1,0.3-0.2,0.5-0.4,0.7c-0.1,0.1-0.6,0.8-0.1,0.2c-1.5,1.8-2,4.5,0,6.3s4.8,2,6.3,0
	c3.2-3.9,5.3-8.5,6.1-13.5c0.7-4.7,0.7-9.5,0-14.2C758.4,476.7,758,474.1,757.6,471.4z M626.6,199.2c0,0.1-0.1,0.2-0.2,0.3
	L626.6,199.2z"/>
</svg>
