<?xml version="1.0" encoding="utf-8"?>
<!-- Generator: Adobe Illustrator 24.2.3, SVG Export Plug-In . SVG Version: 6.00 Build 0)  -->
<svg version="1.1" id="a6aee35b-1a5f-4630-bc8b-bfa35ef25823"
	 xmlns="http://www.w3.org/2000/svg" xmlns:xlink="http://www.w3.org/1999/xlink" x="0px" y="0px" viewBox="0 0 1152 864"
	 style="enable-background:new 0 0 1152 864;" xml:space="preserve">
<path d="M466.8,258.7c-15.2-3.8-31-4.1-46.4-1.1c-15,2.9-29.3,9-41.9,17.7c-7.1,5.1-13.6,11-19.3,17.6c-1.7,2-2.1,5.1,0,7.1
	c2.1,2,5.3,2.1,7.1,0c2.3-2.8,4.8-5.5,7.5-8l4-3.6l2.1-1.7l0.5-0.4c0.1-0.1,0.3-0.2,0.3-0.3l0.8-0.5c5.9-4.3,12.1-8,18.7-11.1l2.4-1
	c0.3-0.2,0.1-0.1-0.1,0l0.4-0.2l1.4-0.5l5.3-1.9c3.4-1.2,6.9-2.1,10.4-2.9l5.4-1.1l2.6-0.4h0.3l1.5-0.2c3.7-0.4,7.3-0.6,11-0.7
	c4,0,8,0.2,12,0.7h0.9l1.3,0.2l2.9,0.5l6.2,1.4c2.7,0.7,5.5-0.8,6.2-3.5S469.5,259.3,466.8,258.7z"/>
<path d="M336.9,392.2c-2.6-1.4-5.2-0.5-6.9,1.8l-9.3,12.8c-1.1,2-0.8,4.4,0.8,6c0.7,0.8,1.7,1.3,2.8,1.4v0.2c0,0.1-0.1,0.3-0.2,0.4
	l-0.6,1.4c-0.7,1.6-1.3,3.2-1.9,4.8c-1.8,5.1-3.3,10.4-4.3,15.7c-2.4,11.1-4.5,22.2-6.7,33.3l-3.9,19.5c-0.4,1.7,0.1,3.5,1.3,4.8
	c1.2,1.2,2.9,1.8,4.5,1.4c-2.8,13.9-4.3,28-4.3,42.2c0,4.8,0.1,9.6,0.5,14.4c0.1,2.8,2.5,5,5.3,4.9c1.2,0,2.3-0.5,3.2-1.3l1.2-1v1.5
	c-0.1,0.9-0.1,1.8-0.2,2.7c-0.1,0.9-0.1,0.7-0.1,0.9s-0.1,0.7-0.2,1c-0.3,1.8-0.7,3.6-1.3,5.4c-0.7,2.6,0.9,5.4,3.5,6.1
	c2.7,0.7,5.4-0.9,6.2-3.5c2.4-8.3,2.7-17,0.9-25.4c-0.4-1.7-1.8-3.1-3.5-3.5s-3.5,0-4.8,1.2l-0.7,0.6c-0.1-4.8,0-9.7,0.2-14.5
	s0.6-8.2,1.1-12.3l0.3-3.1c0.1-0.1,0.1-0.2,0.1-0.3v-0.2c0.1-0.6,0.2-1.1,0.2-1.7c0.4-2.1,0.7-4.1,1.1-6.2c0.8-4.6,1.8-9.2,2.9-13.8
	c1.1-4.6-2.3-7.3-6-6.2c1.9-9.8,3.8-19.6,5.8-29.4c1.2-5.9,2.3-11.8,3.6-17.6c0.7-2.9,1.4-5.9,2.3-8.8c0.4-1.3,0.9-2.6,1.3-3.9
	l0.9-2.2l0.3-0.8c-0.4,0.9,0.2-0.5,0.2-0.5c1.8-4,3.4-8.2,1-12.3l-0.7-1l5.9-8.1C340.2,396.9,339.1,393.3,336.9,392.2z"/>
<path d="M1054.2,418.5c-1-4.6-2.3-9-3.9-13.4c-1.7-5.4-3.6-10.6-5.5-15.9l-5.4-14.9c3-0.4,5.8-1.9,7.9-4.1c3.7-4,4.6-10.6,1.1-15.1
	l-1.3-1.8l3.6-0.6c3.7-0.7,4.9-6,2.2-8.4c-11.7-10.4-26-16.6-40.7-21.8c-14.7-5.2-30.2-10.4-44.9-17c-30.9-13.8-59.9-31.5-89.2-48.6
	c-29.3-17.1-58.6-33.2-90.2-44.8c-15.5-5.8-31.6-10.1-47.9-12.8c-17.5-2.8-35-2.7-52.7-3.5c-17.7-0.8-34.8-3.6-52.2-5.2
	c-17.4-1.6-34.5-2.9-51.9-4l-12.6-0.7h-1.9c-34.6,1.1-68.9,5-103.2,8.9c-17.9,2-35.9,1.1-53.8,2.9c-16.6,1.8-33,5.4-48.9,10.6
	c-32,10.2-61.9,25.9-91,42.6c-29.1,16.7-57.9,34.7-88.3,49.4c-14.8,7.1-30,13.2-45.5,18.4c-14.5,4.9-29.4,9.8-42.3,18.4
	c-3.3,2.2-6.4,4.6-9.4,7.2c-2.6,2.4-1.4,7.7,2.3,8.4l4.6,0.8c-1.5,2-3.2,3.8-5.1,5.5c-3.4,3.1-0.5,8.3,3.6,8.6
	c3.6,0.2,7.2,0.1,10.8-0.3c-5,18.4-9.6,36.8-13.7,55.4c-1.1,4.6,4.7,8.6,8.3,4.8c1.7-1.7,3.2-2.1,5.7-2c2.3,0.3,4.4,1.2,6.3,2.5
	c5.4,4.1,6.7,12.2,7.7,18.5c2.3,15.7,5.2,31.1,10,46.4c4.8,15.5,11.1,30.4,18.8,44.7c3.7,7,7.8,13.9,12.2,20.5
	c2.2,3.4,4.4,6.6,6.8,9.8s4.9,6.2,6.9,9.5c1.1,1.5,1.8,3.1,2.2,4.9c0.2,1.2,0.1,2.4-0.4,3.5c-0.6,2-2.7,5-4.2,6.9
	c-4.3,5.3-9.5,10.7-10.5,17.8c-0.4,2.8,1.2,6.8,4.8,6.3l12.6-1.7l30.6,24.3c5,4,10.3,7.7,14.9,12.2c4.6,4.5,6.6,6.9,4.8,11.5
	s2.8,7.4,6.1,6.1l18-6.9c8.5,9.5,22.7,10.3,34.8,7.2c14.7-3.8,28.3-13.7,38.8-24.5c11.5-11.8,20.1-26.2,25-42
	c5.3-17.1,6.3-35.2,5.7-53c-1-35.1-7.9-70.8,0.9-105.5c7.6-29.6,24.4-55.6,42-80.1c17.6-24.5,38-49.8,52.8-77.4
	c1.8-3.4,3.5-6.9,5.2-10.4s0.7-5.4-1.8-6.8c-2.5-1.4-5.7-0.7-6.8,1.8c-13.1,27.6-31.8,52-49.8,76.5s-35.4,49.1-46.1,77.5
	c-5.6,15-8.8,30.8-9.6,46.8c-1,17.7,0.6,35.4,1.8,53c2.5,33.2,4.1,68.4-14.5,97.6c-8.2,12.8-19.3,23.4-32.4,30.9
	c-5.6,3.5-11.8,5.8-18.3,6.9c-5.4,0.9-11.7,0.6-16.3-1.9c-2.2-1.2-4.1-3-5.4-5.1c-1.1-1.8-3.6-3.1-5.6-2.3l-14.4,5.5
	c-1-4.3-3.7-8.2-6.7-11.4c-2.8-2.7-5.8-5.3-8.9-7.6l-10.9-8.6l-21-16.7l-5.3-4.2c-2-1.6-3.8-3.6-6.6-3.5c-1.8,0.1-3.7,0.3-5.5,0.6
	c1.6-2.3,3.6-4.5,5.4-6.8c4.4-5.6,8-11.9,6.4-19.2c-0.9-4.2-3.4-7.8-5.9-11.2s-5.1-6.7-7.5-10.2c-4.9-7-9.4-14.2-13.5-21.6
	c-8.2-14.8-14.9-30.3-20-46.4c-2.5-8.1-4.7-16.4-6.4-24.7c-1.7-8.3-2.6-16.5-4.1-24.8s-5.2-17.8-13.3-22.3c-3.7-2-7.8-3-12-2.8
	c4.2-17.8,8.6-35.5,13.5-53.2c1.1-3.7-2.5-7-6.1-6.1c-1.7,0.4-3.5,0.7-5.2,0.9c1-1.5,1.9-3.1,2.7-4.8c1.3-2.6,0.4-6.7-3-7.3h-0.6
	c9.4-6.1,20-10.2,30.5-13.8c15.3-5.4,30.6-10.7,45.4-17.4c30.5-13.7,59.2-31.2,88.1-48s57.2-32.8,88.2-44.1
	c15.4-5.8,31.3-10.1,47.5-12.8c17.1-2.8,34.5-2.4,51.8-3.3s34.5-3.7,51.7-5.4c17.2-1.7,34.3-3.2,51.5-4l13-0.5
	c34.5,1.9,69,4.8,103.3,8.8c17.6,2,35.4,1.2,53,2.9c16.2,1.6,32.2,5.1,47.6,10.2c31.3,10,60.5,25.4,88.9,41.7
	c28.4,16.3,57.7,34.5,88,49.2c14.9,7.3,30.3,13.6,46,19c14,4.8,28.4,9.3,41,17.4h-0.6c-3.2,0.5-4.6,4.8-3,7.3c1.9,2.8,4,5.3,6.2,7.9
	c-0.2-0.2,0.4,0.5,0.5,0.7c0.3,0.5,0.3,1.1,0,1.6c-0.3,0.8-0.9,1.4-1.7,1.6c-1.8-2.1-3.3-4.6-5.3-6.6c-3.5-3.6-9.7,0-8.3,4.8
	c5,17.9,12.7,34.9,17.7,52.7c0.6,1.8,1.1,3.7,1.5,5.6c0.2,1-0.3,2-1.2,2.5c-0.5,0.3-0.7,0.2-1.3,0.3h-0.8c-0.1,0-0.3-0.1-0.4-0.1
	l-5.2-1.2c-3.6-0.9-7.6-2-11.2-0.8s-7.1,6.9-8.7,11.2c-1.6,4.3-2.5,9.6-3.1,14.5c-0.6,4.9-1.5,10.2-2.2,15.3
	c-1.6,10.2-3.2,20.3-5.4,30.4c-4.1,19.5-9.9,38.8-19.6,56.3c-2.8,5.2-5.9,10.2-9.4,15c-3.3,4.7-7.3,9-9.1,14.6
	c-2.9,9.1,0.8,18.4,3,27.4l-3.5-0.4c-1.4-0.3-2.9-0.5-4.3-0.6c-3.3-0.2-6.9,3.9-9.3,5.9l-21.1,16.7c-6.7,5.3-13.8,10.3-20,16.1
	c-4.5,4.2-8.8,10-9.2,16.2l-5.8,0.5l-7.5,0.6c-2.1,0.2-4.6,0.1-6.2,1.7s-1.6,2.5-2.9,3.6l-0.7,0.4l-1,0.6h-0.5l-1.3,0.4
	c-2.6,0.6-6.2,0.2-9.2-0.4c-4-0.9-8-2.1-11.9-3.4c-3.8-1.2-7.7-2.2-11.5-3.5c-14.8-5-25.3-17.8-32.4-31.2
	c-3.5-6.7-6.3-13.7-8.6-20.9c-3.2-9.8-6.6-19.5-10.1-29.2c-6.7-18.6-13.7-37.3-17.9-56.8c-2-9.2-3.1-18.6-3.3-28
	c-0.2-9.8,1.1-19.3,2.7-28.9c2.7-16.7,1.9-33.8-2.6-50.1c-4.3-16-11.4-31.1-19.5-45.5c-16.7-29.9-38.1-57.1-54.3-87.3
	c-1.9-3.7-3.8-7.4-5.6-11.1s-4.6-3.1-6.8-1.8c-2.4,1.4-3.2,4.4-1.8,6.8c13.5,28.5,32.6,53.9,49.3,80.6
	c15.7,25.1,30.8,52.7,32.8,82.9c0.5,7.4,0.1,14.8-1,22.1c-1.5,9.3-3.1,18.4-3.2,27.8c-0.3,18.1,3.2,36,8.3,53.3s12.1,35,18.2,52.5
	c5.3,15.2,9.6,30.7,18.1,44.5s19.2,24.1,33.8,29.5c3.4,1.2,6.9,2.1,10.4,3.2s7.5,2.4,11.3,3.4c7,1.9,14.7,2.9,21.4-0.4
	c2.4-1.2,4.5-2.9,6.1-5l19-1.6c2.9-0.2,6.1-3.1,4.8-6.3s1.7-8.5,4.8-11.5c4.6-4.5,9.9-8.2,14.9-12.2l30.6-24.3l12.6,1.7
	c2.5,0.3,5.3-2.5,5-5c-0.8-5.1-1.9-10.1-3.3-15c-1.1-4.5-2.2-9.3-1.6-14s4.8-8.5,7.4-12.1c3.1-4.2,6-8.6,8.6-13.1
	c10.2-17.6,16.8-37,21.4-56.8c2.3-10,4.1-20.1,5.6-30.2c1.5-10.1,2.4-20.7,4.8-30.7c0.5-2.2,1.2-4.4,2.2-6.4c0.4-0.9,1-1.7,1.5-2.6
	h1.7l1.4,0.3l5.6,1.4c4.1,1,8.3,1.5,12-0.7C1052.7,429,1055.1,423.7,1054.2,418.5z M1027.2,430.8h-0.2c-0.4-0.1,0-0.1,0.3,0H1027.2z
	 M1027.7,430.5C1028.4,429.4,1028,430.4,1027.7,430.5L1027.7,430.5z"/>
<path d="M687.1,265.4c1.7-0.5,3.5-0.9,5.3-1.2l2.5-0.5l1.1-0.2h0.6c3.3-0.5,6.7-0.7,10-0.7l4.8,0.2l2.3,0.2h1.6h0.2
	c0.4,0.1,0.3,0.1,0.1,0.1c1.4,0.3,2.9,0.5,4.3,0.7l4.6,1.1l4.4,1.4l4.4,1.7h0.3l1,0.4l2.2,1.1l4.2,2.2c2.8,1.6,5.6,3.3,8.2,5.2
	c0.7,0.4,1.3,0.9,1.9,1.4l1.1,0.8l0.3,0.2l3.9,3.2c6,5.3,11.6,11.1,16.6,17.3c1.7,2,5.4,1.8,7.1,0c1.9-2,1.9-5.1,0-7.1
	c-9.2-10.9-19.8-20.9-32.2-28.3c-11.8-7.1-25.2-11.1-39-11.7c-8.2-0.2-16.4,0.7-24.4,2.8c-2.7,0.7-4.3,3.5-3.6,6.1
	C681.7,264.5,684.4,266.1,687.1,265.4z"/>
<path d="M809.3,406.8L800,394c-1.6-2.2-4.5-3.4-6.9-1.8c-2.4,1.6-3.4,4.5-1.8,6.8l5.9,8.1c-0.3,0.3-0.5,0.6-0.7,1
	c-2.4,4-0.8,8.4,0.9,12.3c1.7,3.9,5.9,9.1,9.2,13.4c1.7,2.2,3.3,4.5,4.8,6.9c0.6,0.9,1.2,1.9,1.6,3c0.1,0.1,0.1,0.3,0.2,0.4
	c0.1,0.1,0.1,0.6,0.2,0.8c0.2,0.6,0.4,1.3,0.5,1.9c1.5,7,2.8,14,4.2,21c1.1,5.3,2.1,10.5,3.1,15.8c-3.7-1.1-6.9,2.6-6,6.2
	c0.9,3.6,1.9,8.1,2.6,12.2c0.4,2,0.8,4.1,1.1,6.1s0.3,1.9,0.4,2.9s0.1,0.9,0.1,0.9c0.1,0.5,0.2,1.1,0.2,1.6c1,8.2,1.5,16.4,1.5,24.7
	v3.7l-0.7-0.6c-1.3-1.2-3.1-1.6-4.8-1.2c-1.7,0.4-3.1,1.8-3.5,3.5c-1.9,8.4-1.5,17.1,0.9,25.4c0.8,2.5,3.6,4.4,6.2,3.5
	c2.6-0.7,4.2-3.5,3.5-6.1c-0.6-1.8-1-3.6-1.3-5.4c-0.1-0.3-0.1-0.7-0.2-1s-0.1-0.8-0.1-0.9s-0.1-1.8-0.2-2.7v-1.5l1.2,1
	c2,1.9,5.1,1.9,7.1-0.1c0.9-0.9,1.4-2.2,1.4-3.5c1.2-17.1,0.2-34.2-2.8-51.1c-0.3-1.8-0.7-3.7-1-5.5c1.6,0.4,3.3-0.2,4.5-1.4
	c1.2-1.3,1.7-3.1,1.3-4.8l-7.8-39.4c-0.6-2.7-0.9-5.6-1.9-8.3c-0.9-2.6-2.1-5.1-3.6-7.4c-2.8-4.3-6.2-8.3-9.2-12.5
	c-1.6-2.2-3.1-4.5-4.2-7c0-0.1-0.1-0.1-0.1-0.2l-0.2-0.5c1.1-0.1,2.1-0.6,2.9-1.4C809.9,411.3,810.6,408.6,809.3,406.8z"/>
<path d="M610.6,231c-4.9-1.6-10.3-1.1-15.3,0c-5,1.1-8.9,2.5-13.4,3.6l-3.1,0.7c-0.2,0-0.7,0.1-1,0.1c0.1,0,0.2,0,0.3,0l-1.7,0.2
	h-3.9l-1.7-0.4c-0.4-0.1-0.9-0.2-1.3-0.4l0.6,0.2l-0.5-0.2l-0.8-0.5l-1.6-0.9c0-0.1-0.2-0.2-0.3-0.3l-0.7-0.6
	c-1.9-1.7-3.6-3.6-5.3-5.4c-4.2-4.5-9.7-8.6-16.2-8.5c-6.1,0.2-11.4,4.3-13.1,10.1c-0.9,3-0.7,6.2,0.5,9.1c1.1,2.7,2.9,4.9,4.6,7.3
	c3.1,4.3,5.9,8.9,8.4,13.6c1.3,2.4,2.5,4.8,3.7,7.3l1.6,3.6c0.3,0.6,0.5,1.2,0.8,1.7c0,0.2,0.1,0.3,0.2,0.5l0.3,0.9
	c8.3,20.2,12.9,41.7,17,63.1l1.5,7.9c0.4,2.6,3.7,4.3,6.1,3.5c1.2-0.3,2.1-1.1,2.8-2.1c0.9-0.6,1.5-1.5,1.7-2.6
	c1.7-12.4,3.4-24.8,5.2-37.1c0.8-5.7,1.8-11.3,3.2-16.9c0.7-2.6,1.5-5.3,2.5-7.8c0.2-0.3,0.3-0.7,0.4-1.1c0.1-0.1,0.1-0.3,0.2-0.4
	l0.7-1.5c0.6-1.3,1.3-2.6,2-3.9c1.3-2.3,2.8-4.6,4.4-6.7c0.4-0.4,0.7-0.8,1-1.3h0.1c0-0.1,0.1-0.1,0.1-0.2l0.6-0.7l2.5-3.2
	c3.6-4.2,7-8.7,9.9-13.4c1.5-2.7,3.6-6,3.6-9.1C617.2,236.1,614.2,232.1,610.6,231z M606.4,240.2c-1.1,2.2-2.4,4.4-3.8,6.4
	c-0.7,1.1-1.4,2.1-2.1,3l-0.5,0.7h-0.1l-1.4,1.8c-3.4,4.2-6.8,8.3-9.9,12.8c-6.1,9.1-9.2,19.9-11.1,30.6c-1.1,6.3-2,12.6-2.9,19
	c-2.5-11.9-5.7-23.7-9.6-35.2c-3.5-10.1-7.8-19.9-13.1-29.2c-2.7-4.5-5.6-8.9-8.7-13.2c-0.7-1-1.3-2-1.9-3c-0.1-0.2-0.1-0.4-0.2-0.6
	H541V233c-0.1-0.4,0-0.3,0-0.2v-0.5V232c0.1-0.1,0.1-0.2,0.1-0.3c0.1-0.2,0.2-0.5,0.2-0.7c-0.1,0.1-0.1,0.2-0.1,0.2l0.1-0.2v0v-0.2
	l0.5-0.9c0.2-0.1,0.4-0.3,0.5-0.5l0.3-0.2h0.1l0.6-0.4l0.7-0.2h1.5l0.4,0.2l1,0.3h0.7l1.6,1l0.9,0.5l0.2,0.2h0.1
	c4.1,3.4,7.2,7.8,11.5,10.9c8.4,6,18.7,3.7,27.8,1l6.6-1.8l3.2-0.7h0.4c0.6-0.1,1.3-0.2,1.9-0.2h4.6V240.2z"/>
</svg>
