<?xml version="1.0" encoding="utf-8"?>
<!-- Generator: Adobe Illustrator 24.2.3, SVG Export Plug-In . SVG Version: 6.00 Build 0)  -->
<svg version="1.1" id="b306586e-9135-4de6-8f64-40d53d230bb4"
	 xmlns="http://www.w3.org/2000/svg" xmlns:xlink="http://www.w3.org/1999/xlink" x="0px" y="0px" viewBox="0 0 1152 864"
	 style="enable-background:new 0 0 1152 864;" xml:space="preserve">
<path d="M381.1,409.7c-11.3-2.5-22.9-3.4-34.4-2.5c-2,0.1-3.6,1.7-3.7,3.7c0.1,1.9,1.6,3.9,3.7,3.8c6.4-0.5,12.8-0.5,19.2,0.1
	c-8.4,4.6-15.6,11.2-20.9,19.3c-1,1.8-0.4,4.1,1.4,5.2c0.6,0.3,1.2,0.5,1.9,0.5c0.6-0.1,1.3-0.1,1.9,0h1.4l1.8,0.5l0.9,0.3h0.3
	l0.2,0.2c0.6,0.2,1.2,0.5,1.7,0.9l0.8,0.5h0.2c-10.1,7-17.3,17.3-22.9,28c-3.3,6.3-6.1,12.9-8.8,19.4c-2.7,6.5-6.3,15.2-8.2,23.1
	s-2.7,18.8,0.3,27.8c0.6,2,2.6,3.1,4.6,2.6s3.1-2.6,2.6-4.5c0,0,0,0,0-0.1c-2.3-7-2.2-14.4-0.7-21.6s4.5-15.3,7.5-22.7l1-2.4
	l0.5-1.1c0-0.1,0.1-0.2,0.1-0.4c0-0.2,0.1-0.2,0.1-0.2c0.7-1.6,1.3-3.1,2-4.6c1.3-3.1,2.7-6.1,4.2-9.1c2.9-5.8,6.3-11.2,10.1-16.4
	l0.6-0.7l0.8-1l1.8-2c1.2-1.3,2.4-2.6,3.7-3.8l2.1-1.8l0.5-0.3l0.3-0.3l0.2-0.2l0.6-0.4c1.5-1.1,3.1-2.1,4.7-3
	c1.7-1,2.6-3.5,1.4-5.2c-2.9-3.9-6.9-6.7-11.5-8.2c6.7-8,15.8-13.7,26-16.2C384.6,416.1,384.7,410.5,381.1,409.7z"/>
<path d="M895.1,477.9c-4.4-4.8-8.7-9.9-11.4-15.9c-1.2-2.6-1.9-5.5-2-8.4c0-2.9,1.1-5.3,1.6-8s0.1-6.3-2.8-8.2s-3.1-0.9-4.8-1
	c-0.8,0-1.6-0.2-2.2-0.8c-4.2-4,0.8-10.6,3.2-14.1s-1.2-6.5-4.2-5.5l-19.8,6.4c0.5-4.3,2.5-8.4,4.5-12.2c3.1-5.8,6.6-11.6,8.2-18.1
	c3.4-14.1-2.1-28.6-9.5-40.4s-17.6-23.3-23.3-36.9c-5.7-13.6-8.4-28.6-13.2-42.7c-2.5-7.2-5.4-14.3-8.5-21.3
	c-3.1-7-5.9-13-10.1-18.6c-4.2-5.6-10.3-9.4-17.5-8.7c-7.2,0.7-13.3,4.6-18.8,8.9s-11.4,9.7-17.1,14.6l-17.7,14.8
	c-12,9.8-24.2,19.4-36.5,28.8c-12.2,9.3-24.7,18.4-37.3,27.3c-6.2,4.5-12.6,8.8-18.9,13.2l-9.6,6.5c-2.5,1.6-5.5,3.5-8.6,3.4
	c-3.1-0.1-4.2-0.8-4.8-2.8c-0.5-1.8-2.2-3-4.1-2.7c-2,0.3-3,1.7-3.2,3.7c-0.8,5.6-6,10.9-11.7,11.4c-6.2,0.6-11.8-3.5-13.2-9.6
	c-0.8-3.5-6.6-3.7-7.2,0c-0.7,4.1-0.8,8.3-0.5,12.5c-8.9-9.8-18.4-19-28.3-27.7c-1.2-1.2-3-1.4-4.5-0.6c-3.7,2.4-6.2,6.2-6.9,10.6
	c-7.9-5.9-16.3-11.3-25.1-15.9c-2.6-1.4-6.7,1-5.5,4.2c2.3,6.2,5,12.3,8.1,18.2c-11.5-0.8-22.8-2.8-33.9-6l-0.8-0.2
	c1.8-11.4,0.8-23.1-2.9-34c-0.8-2.5-3.2-3.3-5.5-2.2l-8.1,3.7c-1.7-6.8-4.7-13.3-8.6-19.2c-1.2-1.8-4.2-2.7-5.9-0.8l-3.3,4
	c-17.4-25.4-35.6-51-59.5-70.7c-7.1-6-14.7-11.3-22.8-15.9c-2.7-1.5-5.3,0.5-5.7,3.3c-2,17.9-3.8,35.9-6.2,53.9s-5.2,33.4-11.7,49
	c-10.9,25.7-30.9,46.1-45.8,69.4c-8.3,13-15.1,27.1-17.3,42.4c-0.3,2.1,0.9,5.1,3.6,4.8c1.1-0.2,2.1-0.2,3.2,0
	c-3.3,3.6-6,7.9-5.7,12.9c0.3,4.3,2.7,8.2,6.5,10.3l-0.6,1.2c-1.7,3.4-3.5,6.8-5.3,10.1c-3.8,7.2-8.1,14.2-11.5,21.6
	c-3.3,7.1-6,14.4-8.1,21.9c-1,3.4,3.8,6.7,6.2,3.7c0.7-0.8,1.5-1.5,2.4-2c-0.4,10.4-0.7,20.7-1,31.1c-0.1,3.8,5.1,4.9,7,1.9
	c2.1-3.3,4.6-6.4,7.4-9.1c-5.4,23.7-6.4,48.2-3,72.2c0.4,2.9,4.5,3.5,6.3,1.7c3.3-3.4,6-7.2,8.1-11.4c1.6,2,2.7,4.2,3.4,6.6
	c1.4,4.6,8.6,2.7,7.2-2c-1.6-5.7-5.1-10.7-10-14.1c-2.1-1.5-4.8,0.2-5.5,2.2c-0.8,2.3-1.9,4.5-3.2,6.6c-2.2-23.7,0-47.6,6.6-70.4
	c0.5-2-0.8-4.1-2.9-4.6c-0.9-0.2-1.8-0.1-2.6,0.4c-4,2.4-7.7,5.4-11,8.7c0.3-8,0.5-16.1,0.8-24.1c0-2.1-1.6-3.7-3.7-3.8h-2.6
	c2-5.9,4.5-11.7,7.4-17.2c2.3-4.4,4.9-8.7,7.3-13.2l7.1-13.6c0.7-1.5,1.5-2.9,2.1-4.4c0.4-0.6,0.7-1.4,0.8-2.1
	c0.1-1.1-0.3-2.3-1.1-3.1c-1.1-1.1-2.3-1-3.6-1c-1.3,0-3.7-3.4-3.3-5.7c0.6-4.2,4.6-7.4,7.5-10.1c2.9-2.7,1.2-4.6-0.8-5.9
	c-2.2-1.4-4.8-2.4-7.4-2.8c5.4-25.4,22.8-46.2,37.9-66.7c8.3-11.3,16.4-22.9,22.3-35.6c7.2-15.5,10.8-32.2,13.2-49.1
	c0.4-2.6,0.8-5.2,1.1-7.9c2.4,15.1,0,30.6-3.6,45.6c-5.1,21.5-12.7,42.4-16.9,64.1c-2.4,12.3-3.6,25-2.4,37.5c0,1.5,0.9,2.9,2.3,3.5
	c1.4,0.5,3,0.2,4.1-0.8c3.1-3.7,6.6-7.1,10.4-10l0.8-0.6l1.5-1.2l3-2l6.2-3.5c8.5-4.6,17.2-7.7,26.8-10.6c5.3-1.7,10.7-3.1,16-4.6
	c1.6-0.5,2.7-1.9,2.8-3.6c-0.1-1.7-1.2-3.1-2.8-3.6l-8.2-3.4l10.7-3.6c2-0.6,3.1-2.6,2.6-4.6c-0.8-2.8-1.9-5.5-3.5-8l1.5,0.2
	c3,0.7,5.1-1.8,4.6-4.6c-1.1-7.1-2.9-14.1-5.3-20.9c2.9,1.2,5.8,2.2,8.8,3c2.7,0.7,5.6-1.8,4.7-4.6c-0.4-1-0.7-2-0.9-3v-1.2
	c0.1-0.1,0.1-0.1,0.1-0.2c1.3,0.6,2.8,0.5,3.9-0.4c1.2-0.9,1.8-2.5,1.4-4l-1.8-9.3c5,0.4,9.9,2,14.3,4.5c1.3,0.8,2.5,1.7,3.6,2.7
	c0.6,0.5,1.2,1.1,1.7,1.7c0.3,0.2,0.6,0.5,0.8,0.8l0.5,0.7c1,1.2,1.8,2.6,2.5,4c0.2,0.3,0.3,0.6,0.4,0.9c0.1,0.2,0.2,0.5,0.3,0.7
	c0.3,0.7,0.5,1.5,0.7,2.3c0.2,0.5,0.3,1,0.4,1.5c0,0.1,0.1,0.7,0.1,0.8c0.1,0.8,0.2,1.6,0.2,2.4c0,0.4-0.1,0.9-0.1,1.3v0.8h-0.1
	c-0.1,1-0.3,1.9-0.6,2.8c-0.5,2,0.7,4,2.6,4.6c2,0.5,4-0.6,4.6-2.6c2.3-7.5,0.6-15.8-3.7-22.2c-4.6-6.6-11.4-11.4-19.1-13.5
	c-4.4-1.3-9-2-13.6-2c-2.1,0-3.8,1.8-3.7,3.9c0,0.3,0.1,0.6,0.1,0.9l1.8,9.7c-1.1,0.5-2,1.2-2.8,2.1c-1.2,1.3-1.9,3-1.9,4.8
	c-3.6-1.3-7-2.9-10.3-4.9c-1.7-1.1-4-0.6-5.1,1.2c-0.8,1.2-0.8,2.7,0,3.9c3.2,7.6,5.7,15.5,7.4,23.6c-2.2,0.2-4.3,0.8-6.3,1.7
	c-2.4,1.1-2.3,4.3-0.8,5.9c1.7,1.9,3.1,4.1,4.2,6.5l-16.5,5.5c-1.6,0.6-2.7,2-2.8,3.7c0.1,1.7,1.2,3.1,2.8,3.6l7.4,3.1
	c-15.9,4.5-31.8,10-45,19.8c-2.3,1.7-4.6,3.5-6.7,5.5c-0.1-19.2,4.8-37.9,10.1-56.3c6-21,13-42.3,14.1-64.2
	c0.7-12-0.7-24.1-5.3-35.2c-0.2-0.4-0.4-0.8-0.7-1.2c1-9.4,2-18.7,3.1-28.1c25.2,15.7,44.7,39,62,62.9c5.3,7.4,10.5,14.8,15.6,22.3
	c1.3,1.9,4.2,2.8,5.9,0.8l3.1-3.7c2.9,5.4,4.9,11.2,6,17.2c0.5,2.6,3.5,3.2,5.5,2.2l8.4-3.8c3.3,12.3,2.9,25.3-1.2,37.3
	c0,0.1,0,0.3-0.1,0.4c-0.8-3.3-2.1-6.5-3.7-9.5c-1-1.8-3.2-2.4-5-1.4c0,0,0,0-0.1,0c-1.8,1-2.4,3.3-1.4,5.1c0.5,0.9,0.9,1.8,1.3,2.7
	c1.1,2.8,1.9,5.6,2.4,8.6c0.3,0.9,0.9,1.8,1.7,2.3c0.9,0.5,1.9,0.7,2.9,0.4s1.8-0.9,2.3-1.8c0.4-0.9,0.6-1.8,0.4-2.8
	c-0.1-0.3-0.1-0.6-0.2-0.8c1.6,1.9,5.6,2,6.7-1.2c0.5-1.4,0.9-2.8,1.3-4.3l0.4,0.2c13.8,4,28.1,6.2,42.5,6.6c2.1,0,3.8-1.7,3.8-3.8
	c0-0.6-0.2-1.2-0.5-1.8c-2.5-4.1-4.8-8.4-6.8-12.8c7.9,4.7,15.4,10.1,22.4,16c1.4,1.3,3.5,1.4,5,0.3c1.3-1.1,2.1-3.4,0.9-4.9
	c-2.1-2.9-2.2-6.8-0.1-9.7c12.8,11.5,24.8,24,35.8,37.3c1.2,1.4,3.6,1.3,5,0.3c1.4-1.2,1.8-3.3,0.9-4.9c-1.7-3.9-2.8-8-3.3-12.2
	c3.9,3.2,9,4.7,14,4.3c7-0.9,13.1-5.2,16.2-11.5c3.1,1.7,6.6,2.2,10.1,1.6c3.5-0.9,6.9-2.4,9.8-4.6c3.3-2.1,6.5-4.3,9.7-6.5
	c12.7-8.7,25.3-17.6,37.7-26.7c25-18.4,49.3-37.6,73-57.6c5.7-4.9,11.3-10,17.1-14.7s11-8,17.2-7.1c6.2,0.9,9.7,7.2,12.3,12.3
	c3.6,6.6,6.8,13.4,9.6,20.3c5.6,14,8.9,28.6,13.4,42.9c2.1,7.2,5,14.1,8.6,20.6c3.6,6.4,8,12.3,12.3,18.3
	c7.9,11.1,16.3,23.6,16.3,37.8c0,6.6-2.3,12.3-5.4,18.1c-3.1,5.8-6.4,11.1-7.7,17.3c-0.7,3.2-0.9,6.6-0.3,9.9
	c0.3,1.9,2.9,3.2,4.6,2.6l15.5-5c-1.4,3.3-1.5,7.1-0.2,10.5c1.1,3.1,3.5,5.5,6.6,6.7c1.3,0.4,2.6,0.6,4,0.6
	c-0.1,0.5-0.2,0.9-0.3,1.4c-1.1,3.2-1.6,6.5-1.4,9.9c0.3,3.5,1.3,7,2.8,10.2c2.2,4.8,5.2,9.3,8.7,13.3c-2.7,1.7-4.7,4.1-6,7
	c-2.7,6.2-1.6,12.5-0.5,18.9c0.7,3.3,0.9,6.7,0.7,10.1c-0.3,3.5-1.1,6.8-1.6,10.3c-1.2,7-1.6,14.2-1.2,21.3
	c0.3,8.1,1.6,16.2,3.7,24.1c1.3,4.7,8.6,2.7,7.3-2c-2.1-7.7-3.4-15.7-3.6-23.7c-0.1-8.1,0.6-16.3,2.1-24.3c0.8-4,1.1-8.1,0.7-12.2
	c-0.4-3.9-1.5-7.8-1.8-11.7s0.9-12.3,6.8-12.2C895.8,484.4,897.2,480.3,895.1,477.9z M283.4,443.2
	C283.5,442.6,283.5,442.9,283.4,443.2L283.4,443.2z M876.1,443.7C876,443.4,876.5,442.9,876.1,443.7L876.1,443.7z"/>
<path d="M776.3,360.3c-2.2,1.3-4.2,3.1-5.7,5.2c-0.9,1.5-0.6,3.4,0.6,4.6l19.1,20.4h-1.1c-2.9,0.2-5.6,0.8-7.8,2.8
	s-4.2,7.2-2.5,10.4c-0.2,0.2-0.3,0.5-0.4,0.7h-0.1c0,0.1,0,0.1-0.1,0.2l-0.5,0.6l-1.4,1.2c-1.5,1.3-1.3,3.9,0,5.3
	c1.5,1.4,3.8,1.4,5.3,0c2.5-2.1,4.3-4.8,5.5-7.8c0.4-1.5-0.1-3.1-1.4-4c0.1-0.2,0.2-0.5,0.3-0.7l0.3-0.3l0.3-0.3h0.4l1-0.3h4.3
	c2.5,0,5-0.6,7.2-1.8c1.8-1,2.4-3.3,1.4-5.1c-0.2-0.3-0.3-0.5-0.6-0.7L779,367.4h0.3l1.4-0.8l0.9-0.5l1-0.3l1.5-0.4h1
	c2.1-0.1,3.7-1.8,3.7-3.9c0-1.2-0.7-2.4-1.8-3.1c-8.3-5.8-17.8-9.7-27.8-11.5c3.4-1,6.9-1.4,10.4-1.3c3,0,5.2-4.3,2.6-6.4
	c-2.5-2.2-5.4-4-8.4-5.3l0.2-0.3l1.8-1.7l1-0.9c0.3-0.2,0.6-0.4,0.9-0.6c2.3-1.7,2.5-4.9,0-6.5c-8.7-5.5-17.9-10-27.6-13.5
	c0.7-1,1.4-2,2.3-2.9c1.4-1.4,1.4-3.8,0-5.2c-0.5-0.5-1.1-0.8-1.7-1c-2.9-0.8-6-1.3-9-1.5l1.3-2.2l2.3-3.3c0.7-1,1.2-1.6,2.2-2.8
	c3.6-4.2,7.5-8.3,11.6-12c4-3.7,8.1-7.3,12-11.2l6-5.9l3.1-2.7l3.1-2.4l3.9-2.6l2.1-1.2l0.9-0.4l0.8-0.4c1.4-0.5,2.8-1,4.3-1.3
	l0.8-0.2h0.8c6.8,17.9,12.5,36.2,17.1,54.8c4.7,19.6,8.1,39.6,10.2,59.7c0.5,5.6,1,11.2,1.4,16.8c0.1,2.9,0.3,5.8,0.4,8.7
	c0,0.7,0.1,1.4,0.1,2.1v0.7c-2,0.5-3.1,2.6-2.6,4.5c0,0,0,0,0,0.1c1.2,3.5,4.9,4.4,7.7,2c2.8-2.4,2.5-4.2,2.4-6.8
	c-0.2-5.5-0.5-11-0.9-16.5c-0.8-11-2.1-22-3.7-32.9c-3.1-21.6-7.8-42.9-14.1-63.7c-3.5-11.8-7.5-23.4-11.9-34.9
	c-0.5-1.6-1.9-2.7-3.6-2.7c-12.9,0.3-23,9.1-31.6,17.7s-17.2,15.4-24.8,24.1c-4.5,5.1-8.1,10.9-10.8,17.2c-0.9,2.2,1.4,4.8,3.6,4.7
	c2.4-0.1,4.9,0,7.3,0.3c-0.7,1.3-1.3,2.7-1.9,4.1c-0.6,1.4,0.9,4.1,2.7,4.6c8.9,3,17.4,6.8,25.5,11.6c-1.8,1.8-3.4,3.9-4.7,6.1
	c-1,1.8-0.4,4.1,1.4,5.2c0.2,0.1,0.5,0.2,0.8,0.3l0.8,0.2c-5.1,1.4-10,3.7-14.3,6.8c-1.4,0.9-2.1,2.6-1.7,4.2
	c0.4,1.6,1.9,2.8,3.6,2.7c6.7-0.1,13.5,0.8,19.9,2.8C769,356.9,772.7,358.4,776.3,360.3z M785.5,400.6c0-0.1,0-0.1,0.1-0.2
	C785.6,400.5,785.6,400.5,785.5,400.6z M785.7,399.8v-0.2C785.8,399.7,785.8,399.8,785.7,399.8z M816.1,395.1
	C816.1,394.9,816.2,394.7,816.1,395.1L816.1,395.1z"/>
<path d="M851.4,549.5c-5-5.1-9.6-10.6-13.8-16.5c-1.8-2.6-3.5-5.2-5.1-7.9c2.7-1.9,5.9-2.9,9.2-2.9c3.2-0.1,5-4.1,2.7-6.4
	c-5.5-5.4-11.6-10.1-18.1-14.1c8.1-1.5,16-3.7,23.7-6.7c1.5-0.6,2.9-1.9,2.8-3.6c0-1.7-1.2-3.2-2.8-3.7c-6.6-2.2-13-5.1-19-8.5
	c-3.1-1.7-6.2-3.5-9.1-5.5c-2.9-1.9-5.9-4.1-8.3-6c-5.6-4.4-10.7-9.3-15.4-14.6c-4.5-4.9-8.7-10-13.5-14.6
	c-4.8-4.6-11.9-9.8-19.3-12c-2-0.5-4.1,0.6-4.7,2.6c-0.5,2,0.7,4.1,2.7,4.6l2.1,0.7l0.5,0.2l0.5,0.2h0.2l0.7,0.3l4.2,2.3l1.9,1.3
	l0.9,0.6c0,0,0.1,0.2,0.2,0.2l0.3,0.3l3.8,3.2c4.8,4.5,9.1,9.7,13.5,14.6c9.6,10.7,20.8,19.9,33.3,27.1c4.1,2.3,8.4,4.4,12.7,6.3
	c-7.7,2.4-15.6,4-23.6,4.8c-1.6,0.1-3.3,1-3.6,2.7c-0.5,1.7,0.2,3.4,1.7,4.3c7.5,3.5,14.5,8,20.9,13.3c-3.2,1.2-6.1,3-8.6,5.4
	c-1.2,1.2-1.4,3-0.6,4.5c4.4,7.7,9.5,15,15.3,21.8c2.9,3.3,5.9,6.5,9,9.5l2.3,2l1,1.1l0.4,0.4c0,0.1,0.1,0.2,0.2,0.3l0.5,0.9
	l0.2,0.3c0,0.1,0,0.2,0.1,0.3c-1.4,1.5-1.4,3.8,0.1,5.2s3.8,1.4,5.3,0c3.1-2.9,2.4-7.5,0.1-10.7S853.9,552,851.4,549.5z"/>
</svg>
