<?xml version="1.0" encoding="utf-8"?>
<!-- Generator: Adobe Illustrator 24.2.3, SVG Export Plug-In . SVG Version: 6.00 Build 0)  -->
<svg version="1.1" id="fd300c21-5688-41ed-b081-09add525949b"
	 xmlns="http://www.w3.org/2000/svg" xmlns:xlink="http://www.w3.org/1999/xlink" x="0px" y="0px" viewBox="0 0 1152 864"
	 style="enable-background:new 0 0 1152 864;" xml:space="preserve">
<path d="M895.8,390.6c-4.4-7.4-9.1-14.7-13.8-21.9c-15.5-24.2-32.6-46.8-55.5-64.4c-13-9.8-26.8-18.3-41.4-25.6
	c-18.3-9.3-38-16.8-58.9-16.7s-39.8,6.7-57.8,15.6c-9.1,4.5-18.1,9.4-26.7,14.8c-3.8,2.3-7.6,4.8-12.1,5.1
	c-4.5,0.3-10.9-1.3-16.2-2.2c-21.9-3.5-44-5.7-66.2-6.6c-22-0.8-44.4-0.8-66.3,1.7l-15.6,1.7c-4.8,0.4-9.5,0.9-13.9-1.3
	c-8.1-4-15.5-9.6-23.2-14.3c-7.7-4.7-16.3-9.4-25.4-11.6c-9.1-2.2-18.5-1.6-27.7,0.4s-18.7,5.3-28.4,5.2c-9.7-0.1-17.8-5.2-26.4-9.1
	c-8.6-3.9-18.3-5.9-28.1-4.3c-9.4,1.5-18.1,5.8-24.9,12.4c-6.7,6.4-11.9,14.3-16.6,22.2s-10.8,18-15.9,27.1
	c-5.1,9.1-10.3,18.5-14.9,28.1c-4.6,9.6-9.3,19.1-12.6,29.1c-1.3,4.6-2.4,9.3-3.2,14c-0.9,4.3-1,8.7-0.3,13
	c1.3,6.5,5.7,12.2,12.3,14c4.3,1.1,8.6,1.5,12.8,3.1c4.2,1.6,10,4.1,15.1,6.1c10.1,4,20.2,8.3,30.1,12.8c9.9,4.5,18.9,9,28.2,13.8
	l1.1,0.5l0.6,1.9c0.4,1.5,0.7,3,1,4.4l0.3,2.3c0.1,0.5,0.1,0.9,0.2,1.4c0.5,6.4,0.4,12.8-0.4,19.2c-0.1,0.4-0.1,0.8-0.2,1.3
	c0-0.1,0,0,0,0.2v0.3l-0.3,2.7l-0.9,5.2c-0.6,3.5-1.3,7-1.9,10.5c-1.2,6.5-2.4,13.1-2.2,19.7c0.4,10.6,3.8,20.5,9,29.6
	c4.3,7.5,9.8,14.2,14.3,21.6c1.1,1.6,2,3.3,2.8,5.1c1.4,2.4,4.5,3.2,6.9,1.8c2.3-1.5,3.1-4.5,1.8-6.9c-3.7-7.3-8.9-13.8-13.4-20.6
	c-2.5-3.7-4.8-7.6-6.7-11.7c-0.2-0.5-0.5-1-0.7-1.4v-0.2c-0.1-0.2-0.2-0.4-0.3-0.6l-1.2-3.4c-0.8-2.3-1.4-4.8-1.8-7.2
	c-0.2-0.5-0.3-1.1-0.4-1.7c0-0.3,0-0.8,0-1c-0.2-1.4-0.3-2.8-0.3-4.2c0-2.6,0.1-5.3,0.5-7.9c0-0.2,0.1-0.9,0.1-0.9
	c0-0.4,0.1-0.7,0.2-1.1c0.1-0.9,0.2-1.7,0.4-2.6l0.9-5.3c0.6-3.5,1.3-7,1.9-10.5c2.2-13.1,3.6-26.5,0.4-39.6
	c-1.4-6.1-4-11.8-7.6-16.8c-2-2.8-4.2-5.2-6.4-7.8c-0.5-0.5-1-1-1.4-1.6l-0.6-0.7l-0.2-0.3c-0.9-1.3-1.7-2.6-2.4-4l-0.3-0.7
	c-0.3-0.6-0.5-1.2-0.7-1.8l-1.1-3.8c-0.6-2.6-1.1-5.2-1.7-7.7c-1.3-5.3-3.3-10.7-7.2-14.6c-2-1.9-4.2-3.6-6.6-4.9l-3-1.8l-0.7-0.5
	h-0.2c-0.3-0.4-0.7-0.8-1.1-1.1v-0.2c-0.1-0.1-0.2-0.2-0.2-0.3s-0.1-0.2-0.2-0.4c-0.1-0.2-0.1,0-0.1-0.1c-0.1-0.2-0.1-0.5-0.1-0.7
	c0-0.3,0-0.5-0.1-0.8c0-0.3,0.1-0.5,0.1-0.8s0.1-0.7,0.2-1c0.8-3.7,1.4-7.4,1.8-11.1c0.7-12.9-3.3-25.7-1.9-38.6v-0.4
	c0,0.4,0.1-0.5,0.1-0.7l0.3-1.6c0.3-1.5,0.7-2.9,1.1-4.3l0.6-1.5c0-0.1,0.2-0.7,0.3-0.7l0.1-0.3c0.6-1.2,1.2-2.4,1.9-3.5l0.6-0.8
	l1.4-1.5l1.3-1.2c0.1-0.2,0.3-0.3,0.4-0.4l0.6-0.4c1-0.7,2.1-1.4,3.2-1.9l0.6-0.3c-0.4,0.2-0.1,0.1,0.1,0h0.1l2.2-0.8l3.4-0.9l2-0.3
	h1.2l8-0.6c5.7-0.1,11.5-0.8,17.1-1.9c2-0.4,4-1,5.9-1.8c2.2,1.3,4.6,2.5,7,3.5c6.5,2.8,13.3,4.8,20,7.4c0.7,0.3,1.4,0.6,2.1,0.9
	l0.9,0.4c1.4,0.6,2.9,1.3,4.2,2.1c1.2,0.6,2.4,1.3,3.5,2.1l1.7,1.2h0.1l1,0.8c1.1,0.9,2.1,1.9,3,3l0.7,0.8c0.5,0.6,0.9,1.2,1.3,1.8
	c0.4,0.6,0.8,1.3,1.1,2c0.1,0.3,0.2,0.5,0.4,0.7v0.4c0.2,0.7,0.4,1.3,0.6,2c0,0.3,0.1,0.5,0.2,0.8v2l-0.2,0.4c0,0.2-0.2,0.5-0.2,0.8
	c-0.3,0.4-0.5,0.8-0.7,1.2h-0.1c-0.2,0.4-0.3,0.4-0.3,0.3l-0.4,0.5c-0.7,0.8-1.5,1.5-2.4,2.1l-0.8,0.6l-1.6,1.2
	c-2.6,1.6-4.9,3.6-6.9,5.9c-2.6,3-4,6.6-5.5,10.3l-0.3,0.7l-0.3,0.7l-1.2,2.2l-0.2,0.3h-0.1c-0.1,0.2-0.3,0.4-0.4,0.4l-0.3,0.4h-0.2
	l-0.5,0.4l-0.6,0.3H349l-0.7,0.2h-0.6c0-0.1-0.1-0.1-0.2-0.2c-1.9-1.9-5.1-1.9-7,0c-1.9,2-1.9,5.1,0,7.1c5.1,5.6,14.1,3,18.4-2.3
	c2.4-3,3.7-6.6,5.1-10.2c0-0.1,0.1-0.1,0.1-0.2c0.2-0.4,0.4-0.7,0.5-1.1l1.2-2h-0.1l0.2-0.3c0.2-0.3,0.2-0.2,0.1,0l0.3-0.5l1.7-1.5
	c0.2-0.3,0.4-0.5,0.7-0.7h0.2l1.2-0.9l3.4-2.5c2.6-1.8,4.9-4.1,6.7-6.7c4.1-6.6,2.1-14.9-2-21c-8.2-11.9-22.1-16.3-35.1-20.9
	l-4.7-1.7l-1.3-0.5l-0.7-0.3l-2.7-1.2c-3.1-1.5-6-3.3-8.8-5.2c-5.6-3.7-10.8-7.8-16.5-11.2c-7.1-4.1-15-6.6-23.2-7.1
	c-3.5-0.2-7,0-10.4,0.5c1.4-1.2,2.9-2.4,4.5-3.5c7.4-5,16.4-7,25.3-5.8c9.1,1.3,16.9,6.6,25.3,10.1c8.4,3.5,17.8,4.2,27.3,2.7
	s18.1-4.7,27.3-5.9c8.9-1,17.9,0.5,25.9,4.4c8.1,3.8,15.6,8.9,23.2,13.6c7.6,4.7,14.3,10.1,22.9,10.7c10.2,0.7,20.8-1.8,30.9-2.7
	c10.1-0.9,21.3-1.2,31.9-1.4c21.1-0.2,42.1,0.7,63.1,2.9c10.3,1.1,20.7,2.5,31,4.2c4.9,0.8,10,2.1,15,2.1c4.7,0,9.4-1.3,13.5-3.6
	c8.5-4.4,16.5-9.9,25-14.4c8.5-4.6,17.4-8.5,26.6-11.7c18.6-6.2,37.8-7.6,56.8-2.4s34.8,13.9,50.6,23.6
	c23.1,13.9,43.1,32.4,58.8,54.4c9,12.5,17.1,25.5,25.1,38.5c1.3,1.8,2.4,3.6,3.4,5.6c0.6,1.1,0.9,2.2,0.7,2.5s-1.7,1.3-2.2,1.8
	c-0.6,0.7-1.1,1.5-1.5,2.4c-0.8,1.5-1.5,3.2-2.2,4.8c-2.4,5.6-4.7,11.4-7.9,16.6c-19.6,31-60.1,14.7-89.3,15.7
	c-4.9,0.1-9.7,0.8-14.4,2.1l0.9-3l1.5-3.9c0.2-0.7,0.5-1.3,0.7-1.9l0.3-0.8v-0.2c0.1-0.1,0.1-0.1,0.1-0.2c1.1-2.5,2.3-5,3.6-7.5
	c2.5-5,5.4-9.8,8.6-14.3c0.8-1.2,1.7-2.3,2.5-3.4l0.8-1l1.3-1.6c1.9-2.3,3.9-4.5,6-6.8c4.3-4.6,8.2-9.6,11.5-15
	c3.1-5.3,5.6-11,7.4-16.9c3.6-11.8,4.5-24.8-2-35.8c-5.4-9-14.2-15-23.7-19s-20-5.4-30.3-5.5c-11.2-0.2-22.3,1.3-33,4.6
	c-2.7,0.8-5.3,1.8-7.9,3c-2.4,1-3.1,4.7-1.8,6.8c1.4,2.2,4.3,3,6.7,1.9h0.2c0.1,0,0.1,0,0.1-0.1l0.7-0.3l1.8-0.6l3.6-1.2
	c2.4-0.7,4.8-1.4,7.3-1.9l3.8-0.7l1.8-0.3h1.5c2.6-0.3,5.2-0.6,7.8-0.7c5.3-0.3,10.5-0.3,15.8,0.2l1.9,0.2h2.4l2,0.4
	c2.3,0.4,4.6,1,6.8,1.6l3.1,1.1l1.7,0.6l0.6,0.3h0.4c2.1,0.9,4.2,2,6.2,3.2l2.7,1.7l1.1,0.8h0.1l0.9,0.7c1.8,1.5,3.4,3.1,4.9,4.9
	l0.4,0.5l0.9,1.2c0.6,1,1.2,2,1.7,3l0.8,1.5c0,0,0,0.1,0,0.1l0,0c0,0,0,0,0,0c0,0,0,0,0,0.1c0,0,0,0.1,0.1,0.2
	c0,0.2,0.1,0.3,0.1,0.4c0.5,1.1,0.8,2.3,1.1,3.5c0.1,0.7,0.2,1.4,0.4,2.1v0.2c0,0.3,0.1,0.6,0.1,0.9s0.1,3.1,0.1,4.6
	s-0.1,1.6-0.2,2.4c0,0.2,0,0.4-0.1,0.5c0,0.2,0,0.6-0.1,0.7c-0.2,1.6-0.5,3.3-0.9,4.9c-0.7,2.7-1.6,5.5-2.5,8.2l-0.8,2l-0.3,0.9
	c-0.1,0-0.1,0-0.1,0.1l-2,4.2c-1.3,2.5-2.7,4.9-4.3,7.2l-1.2,1.8l-0.4,0.4c-0.1,0.2-0.2,0.4-0.4,0.6l-3,3.5c-4,4.6-8.1,9-11.8,13.9
	c-3.4,4.3-6.4,8.8-9.1,13.5c-5.5,9.8-9.7,20.4-12.4,31.3c-2.8,10.9-4.2,22.1-4,33.4c0.1,2.9,0,5.9-0.3,8.8c0,0.7-0.1,1.3-0.2,2
	c-0.1,0.3-0.1,0.7-0.2,1.1c-0.2,1.4-0.6,2.8-1.1,4.2l-0.3,0.9v0.2h-0.1c-0.3,0.5-0.5,1-0.7,1.5l-2.1,3.7c-1.6,2.5-2.9,5-4.1,7.7
	c-2.4,6.1-1.5,12.5,0.2,18.6c0.9,2.6,1.5,5.2,2,7.9v0.9c0.1,0.6,0.1,1.2,0.1,1.8v1.5c0,0.2,0,0.4,0,0.6c-0.1,0.2-0.1,0.3-0.1,0.5
	c0,0,0,0,0,0c0,0,0,0,0,0c0,0,0,0.1,0,0.1c-0.2,0.5-0.3,1-0.4,1.5c-0.1,0.1-0.1,0.2-0.2,0.4c0,0.1,0,0.1-0.1,0.2l-0.5,1l-0.2,0.2
	l-0.8,0.8c-1.9,1.9-1.9,5.1,0,7c2,1.9,5.1,1.9,7.1,0c4.2-3.9,5.6-10,5.1-15.6c-0.3-3-0.8-5.9-1.7-8.7l-1.2-4.5
	c-0.2-0.8-0.4-1.5-0.5-2.3c-0.1-0.3-0.2-0.6-0.2-0.9c0-0.2-0.1-0.7-0.1-0.8c-0.1-0.6-0.1-1.3-0.1-1.9v-1.2c0-0.1,0-0.3,0-0.5
	c0.1-1.2,0.4-2.3,0.9-3.3c0.1-0.2,0.3-0.4,0.3-0.6l0.3-0.7c0.3-0.6,0.6-1.2,1-1.7c0.6-1.2,1.3-2.4,2-3.5c1.6-2.6,3-5.3,4-8.2
	c0.9-3.1,1.5-6.3,1.8-9.5c0.5-5.9,0.1-11.8,0.4-17.7c0.1-2.8,0.4-5.5,0.7-8.3c0-0.2,0.1-0.3,0.1-0.5s0-0.5,0.1-0.7l0.3-2
	c0.2-1.4,0.5-2.8,0.7-4.1c0.2-0.6,0.3-1.3,0.4-1.9c15.7-6.4,33.7-2.6,49.9-0.9s36,1.7,51.3-8.5c6.1-4.2,11.2-9.6,15-16
	c3.3-5.5,5.5-11.5,8-17.3c0.5-1.3,1.1-2.5,1.8-3.7c1.3-1.4,2.7-2,3.7-3.8C900.4,399.8,898.3,394.7,895.8,390.6z M276.7,285.7h1.2
	c1.7-0.2,3.4-0.2,5.1-0.2c1.5,0,3,0.1,4.5,0.3h1.4l2.5,0.5l4.6,1.3l1.6,0.7l0.7,0.3l1.2,0.5c4.9,2.5,9.6,5.5,14,8.9h-0.4l-0.9,0.2
	H312l-4.1,0.4c-5.8,0.4-11.6,0.6-17.4,1.4s-10.9,2.5-15.4,5.8c-5,3.7-8.7,8.8-10.7,14.7c-4.4,11.9-2.1,24.5-0.9,36.7
	c0.4,3.6,0.6,7.2,0.5,10.8c0,3.2-0.4,6.4-1.2,9.5c-1,4.1-1.3,8,0.6,11.8c1.4,2.5,3.4,4.7,5.8,6.2c2,1.4,4.2,2.6,6.2,3.9
	c0.2,0.1,0.4,0.2,0.5,0.4h0.2l1.4,1.3l0.5,0.6h0.1c0.4,0.5,0.7,1,1,1.6l0.9,1.6l0.3,0.7v0.2c0.5,1.2,0.8,2.4,1.2,3.6
	s1.2,5.1,1.7,7.7c0.6,2.6,1.3,5.1,2.3,7.5c1.3,3.2,3,6.2,5.2,8.9c1,1.3,2.1,2.5,3.1,3.7c-14.2-7-28.7-13.5-43.5-19.4
	c-9.2-3.7-18.4-8.6-28.3-10.1c-2.5-0.4-4.9-0.6-6.6-2.7c-1.7-2.1-2-4.6-2.1-7c-0.1-4.3,1.1-8.3,2-12.4c1-4.9,2.5-9.6,4.4-14.2
	c3.8-9.4,8.1-18.6,12.8-27.7c9.1-17.6,19.1-35.1,29.7-51.9l1.6-2.4c0.8-0.1,1.5-0.3,2.2-0.6l0.8-0.3l0.8-0.4l2-0.7
	c1.6-0.5,3.3-1,5-1.3L276.7,285.7z M747.5,546.2l0.3-0.3C747.7,546.1,747.6,546.2,747.5,546.2z"/>
<path d="M756.6,399.1c0.7-2.7-0.8-5.4-3.5-6.2c-1.4-0.3-2.9,0-4.1,0.8l-0.3-0.4c-1.3-2.5-2.7-4.9-4.3-7.2
	c-3.7-5.2-8.2-9.7-13.3-13.5c-4.5-3.5-9.8-5.7-14.5-8.9l-1.4-0.9c-0.3-0.4-0.7-0.7-1.1-1l-1.4-1.4l-0.7-0.8c0-0.1-0.1-0.2-0.2-0.3
	c-0.7-1.1-1.3-2.2-1.8-3.3c0-0.1-0.1-0.1-0.1-0.2c-0.1-0.2-0.2-0.5-0.2-0.7c-0.3-0.7-0.5-1.4-0.7-2.1c-0.2-0.8-0.3-1.5-0.5-2.3
	s-0.1-0.7-0.2-1.1c-0.2-1.6-0.3-3.1-0.3-4.7c-0.1-3.1,0-6.3,0.2-9.4c0-2.8-2.2-5-5-5c-2.7,0.1-4.9,2.3-5,5
	c-0.4,6.4-0.5,12.9,0.9,19.2c1.4,6.7,5.3,12.6,10.8,16.7c5.1,3.8,11.1,6.2,16.2,10c0,0.1,0,0.1,0.1,0.1h0.2c0.2,0.3,0.5,0.5,0.8,0.7
	l1.6,1.4c1.2,1.1,2.4,2.3,3.5,3.5l2.7,3.1l0.4,0.6c0.3,0.3,0.5,0.7,0.7,1c0.5,0.6,0.9,1.3,1.3,2c2.1,3.3,3.5,7.3,6.9,9.5
	S755,404.2,756.6,399.1z"/>
</svg>
