<?xml version="1.0" encoding="utf-8"?>
<!-- Generator: Adobe Illustrator 24.2.3, SVG Export Plug-In . SVG Version: 6.00 Build 0)  -->
<svg version="1.1" id="fe285748-aaaf-4283-bef4-ddd0651a84e9"
	 xmlns="http://www.w3.org/2000/svg" xmlns:xlink="http://www.w3.org/1999/xlink" x="0px" y="0px" viewBox="0 0 1152 864"
	 style="enable-background:new 0 0 1152 864;" xml:space="preserve">
<path d="M476.5,377.9c-18.1,2.2-35.8,7.1-52.5,14.5l-4.7,2.2c2.2-1.5,4.4-3,6.7-4.4c1.6-0.9,2.5-2.5,2.5-4.3c-0.5-5-0.6-10-0.4-15
	c0.1-2.5,0.2-5,0.4-7.5c0.2-2.5,0.2-2.4,0.4-3.6c0-0.6,0.1-1.1,0.2-1.7v-0.2c0.1-0.4,0.1-0.8,0.2-1.1c1.4-9.9,3.9-19.6,7.5-28.9
	l1.5-3.9h0.1c0.1-0.5,0.3-0.9,0.5-1.3l0.8-1.8c1.2-2.6,2.5-5.2,3.9-7.7c1.4-2.5,0.6-5.6-1.8-6.9c-2.4-1.3-5.6-0.6-6.9,1.8
	c-10,18.7-15.7,39.4-16.7,60.6c-0.3,4.9-0.2,9.7,0.1,14.6c-18.4,11.9-34.9,26.5-48.8,43.4c-4.3,5.2-8.3,10.6-12.1,16.2
	c-1.2,2.2-0.7,4.9,1.2,6.5c1.9,1.4,5,1.5,6.6-0.4c5.5-6.6,11.6-12.9,18-18.6l4.9-4.2l2.5-2l1.1-0.9l0.6-0.5
	c-0.9,0.8,0.1-0.1,0.3-0.2c3.4-2.6,6.9-5.1,10.5-7.4c7.2-4.7,14.8-8.9,22.6-12.6l5.9-2.7c0,0,0,0.1,0,0.1l0.5-0.2l1.5-0.6l3.1-1.3
	c4-1.5,8.1-2.9,12.2-4.1c4.1-1.2,7.9-2.2,11.9-3.1c-1.9,2.7-3.4,5.6-4.7,8.6c-0.9,2.5,1.1,5.6,3.5,6.2c2.4,0.6,5.1-0.9,6.2-3.5v-0.2
	c0-0.1,0.1-0.3,0.1-0.4c0-0.1,0.5-0.9,0.7-1.4s0.9-1.6,1.4-2.4s1-1.5,1.5-2.2v-0.2l0.3-0.3l0.9-1.1c1.3-1.4,2.6-2.7,4-3.9l0.3-0.2
	l0.3-0.2l0.9-0.7l2.7-1.6c1.9-1.2,2.8-3.4,2.3-5.6C480.7,379.7,478.8,377.6,476.5,377.9z"/>
<path d="M875.5,396.8c-7-20.7-20.5-38.6-38.5-51c-0.2-1-0.3-2-0.5-3c-0.1-0.6-0.2-1.1-0.2-1.7c-0.1-0.4-0.1-0.7-0.2-1s0-0.4-0.1-0.5
	c-0.3-2.3-0.5-4.6-0.7-6.9c-0.5-4.7-0.8-9.5-0.9-14.3c-0.2-9.6,0.3-19.2,1.4-28.7c0.1-0.4,0.1-0.9,0.2-1.3c0.1-0.4,0.1-0.4,0.1-0.7
	v-0.2c0.2-1.1,0.3-2.2,0.5-3.3l0.9-6.5c0.7-4.7,1.4-9.3,1.8-14c0.8-8.9,0.7-18-1.6-26.6c-0.7-2.3-1.5-4.6-2.4-6.8
	c-0.8-2-2.1-3.8-3.6-5.3c-4.1-3.4-9-2.6-13.9-2c-8.8,1.1-17.6,2.6-26.2,4.6c-17,3.8-33.6,9.2-49.7,16c-15.7,6.7-30.8,14.7-45.1,24.1
	l-3.7,2.5h-2.6c0.9-1.1,1.4-2.5,1.2-3.9c-0.4-2.6-2.4-4-5-4.3c-13.2-1.5-26.6,0.5-38.7,6c-5.6,2.4-10.7,5.8-16.3,8.4
	c-2.5,1.2-5.2,2.1-7.9,2.5c-3.3,0.4-6.6,0.3-9.9-0.2c-13.9-1.8-28-2.9-42-3.2c-14-0.1-28.1,0.6-42,2.2c-7.2,0.9-14.3,1.9-21.4,3.2
	c-4.9,1-9.7,2.2-14.5,3.8c-5.1,1.8-10.4,3.2-15.7,4.4c-4.3,0.8-8.7,1.2-12.6-0.2c-1.7-0.8-3.3-1.8-4.7-2.9c-1.8-1.6-3.6-3.2-5.2-5
	c-3.6-3.8-7.1-7.7-11.3-10.7c-2-1.6-4.3-2.8-6.7-3.7c-0.1-1-0.6-2-1.3-2.8c-9.8-12-20.8-23.1-33.6-31.9c-12.8-8.8-28-14.7-43.3-18.6
	c-7.6-1.9-15.2-3.4-22.9-4.7l-11.6-1.9l-3.3-0.5c-2.1-0.3-3.7,0.8-5,2.3s-2.5,2.9-3.7,4.4c-8.9,11.5-14.4,25.1-18.2,39.1
	c-1.9,6.9-3.4,13.9-4.7,20.9l-1.8,10.6c-0.3,2.2-0.8,4.3-0.2,6.6c-7.4,6.2-13.7,13.7-18.5,22.1c-2,3.6,1.1,8.3,5.2,7.5
	c-8.1,14.2-15.1,29-20.8,44.3c-2.1,5.4-4,10.8-5.7,16.3c-0.6,2.2,0.3,4.6,2.3,5.7c1.8,1,4.7,0.9,6.1-0.8
	c7.4-9.2,15.5-17.8,24.3-25.7l-2.7,5.2c-1.1,2-0.8,4.4,0.8,6c1.6,1.6,4.1,1.9,6,0.8c6.2-3.7,12.6-7,19.2-9.9
	c-18.6,21.5-36.2,44.1-47.4,70.3c-4.2,9.7-7.3,19.8-9.4,30.2c-0.9,4.8,4.6,8.4,8.4,4.8c7.7-7.2,15.6-14.3,23.4-21.4
	c-0.7,1.4-1.4,2.9-2.2,4.3c-4.3,7.9-8.7,15.8-11.9,24.2c-6.9,18.3-8.2,38.6-7.8,57.9c0.3,11.7,1.2,23.3,2.2,34.9
	c0.2,2.5,1.7,4.6,4.3,4.9c2.5,0.3,4.8-1.2,5.5-3.6c0.4-1.3,0.9-2.5,1.4-3.8c0.2-0.5,0.4-0.9,0.5-1.4v-0.2c0.2-0.3,0.3-0.7,0.4-1
	c1.1-2.3,2.2-4.5,3.5-6.7s2.5-4.1,3.8-6l1.2-1.7l0.5-0.6l0.3-0.4l2.3-2.7c4.2-4.9,9-9.2,14.4-12.8c-0.5,2.9-1.2,5.7-2.1,8.5
	c-0.9,3.1-1.9,6.1-3.1,9.2c-0.5,1.3-1,2.6-1.6,4c-0.6,1.4-0.5,1.3-0.8,2c-0.1,0.1-0.1,0.2-0.1,0.3c-0.1,0.1-0.1,0.1-0.1,0.2
	l-0.6,1.3c-5,11.7-10.7,23.4-13.4,36c-1.8,8.1-2.8,16.8-0.2,24.8c0.8,2.6,3.5,4.2,6.2,3.5c2.6-0.7,4.1-3.4,3.4-6c0,0,0,0,0-0.1
	c-1.9-6.2-1.2-12.7,0.1-19c1.4-6,3.2-11.9,5.5-17.7c2.2-5.5,4.6-10.7,7.1-16.5s5.1-12.1,7-18.3c2.2-6.9,3.4-14.1,3.7-21.4
	c0.1-4.1-4.3-6-7.6-4.4c-13.6,6.9-25.1,17.4-33.1,30.4c-0.8-13.5-1.2-27,0.1-40.5c0.9-9.5,2.8-18.8,5.7-27.8
	c1.3-3.8,2.9-7.5,4.7-11.1c1.9-3.9,4-7.6,6-11.4c4.8-8.8,9.6-17.8,12-27.7c1.3-5-4.7-8.1-8.4-4.8c-9,7.9-17.9,15.9-26.8,23.9
	c8.9-27,25.8-50.9,44-72.5c6.2-7.4,12.6-14.5,19-21.7c3.2-3.6,0.1-9.7-4.9-8.3c-8.1,2.2-16,5.2-23.6,8.7c4.4-6.4,9.4-12.3,15-17.7
	c4-3.9-1.2-11-6.1-7.9c-13.8,8.9-26.7,19.2-38.4,30.8c6.5-15.9,14.4-31.2,23.6-45.8c2-3.2-0.7-7.4-4.1-7.5c2.2-2.6,4.6-5,7.2-7.3
	c1.4-1.3,2.8-2.4,4.3-3.5l1.1-0.8c1.2-0.9,2.4-1.7,3.6-2.4c1.7-1.1,3.6-2.1,5.4-3.1l2.8-1.4l1.2-0.5h0.2l0.8-0.3
	c2.5-1,4.3-3.3,3.5-6.2s-3.6-4.5-6.2-3.4c-3.9,1.5-7.7,3.4-11.3,5.6c0.4-2.1,0.7-4.2,1.1-6.3c1-5.6,2.1-11.2,3.5-16.7
	c1.3-5.5,2.8-10.9,4.7-16.2l1.5-3.9c0.2-0.6,0.5-1.2,0.7-1.9l0.6-1.3c1.1-2.5,2.3-5,3.7-7.4c1.4-2.7,3.1-5.3,4.8-7.9
	c0.5-0.6,1-1.2,1.4-1.9l0.3-0.3c-0.2,0.2,0.5-0.7,0.7-0.8c0.4-0.7,0.9-1.3,1.5-1.9c15.5,2.5,31.1,5.1,46.1,10.1l6,2.1l2.8,1.2
	l0.6,0.2h0.1l1.6,0.7c3.8,1.7,7.5,3.6,11.1,5.7c3.5,2.1,6.9,4.3,10.1,6.8l1,0.7c0.3,0.2,0.5,0.4,0.7,0.6c0.9,0.6,1.7,1.3,2.5,2
	l4.7,4.1c4.6,4.1,8.9,8.6,13,13.2c-5.4-0.1-10.7,0.2-16,1.1c-12,1.8-23.8,4.6-35.4,8.3c-11.4,3.6-22.5,8.5-32,15.7
	c-2.5,1.8-4.9,3.8-7.2,6c-1.9,2-1.8,5.2,0.2,7.1c1.2,1.2,3,1.6,4.6,1.2l10.5-1.7c-4.8,7-8.5,14.7-11,22.8c-1.4,4.8,5,8.5,8.4,4.9
	c10.4-11.1,22.6-20.4,36-27.6c-8.4,14.2-13.7,29.9-15.7,46.3c-0.5,4.2,6,6.8,8.6,3.6l16.8-21.3c1.7-2.1,2.1-5,0-7.1
	c-2.1-2.1-5.4-2.1-7,0l-3.9,4.9c4.2-12.8,10.7-24.7,19.3-35.1c1.6-1.6,1.9-4,0.8-6c-1-1.8-3.6-3.1-5.6-2.3
	c-13.1,4.9-25.5,11.7-36.7,20.1c1.7-2.4,3.6-4.7,5.6-6.8c3.6-3.9-0.1-9.2-4.9-8.4l-1.4,0.2c14-7.2,30.1-10.9,45.4-13.9
	c10.9-2.2,24.5-4.5,34.6,1.6c3.8,2.2,7,5.9,10.2,9.3c3.2,3.4,6.9,7.2,11.2,9.7c9.5,5.4,20.8,2.9,30.7,0c5.1-1.5,10.1-3.2,15.2-4.6
	c5.7-1.5,11.5-2.5,17.4-3.2c27.4-3.9,55.2-4.4,82.7-1.3c7,0.8,14,2.3,21,1.2s11.9-3.9,17.3-6.9c5.1-3,10.6-5.5,16.2-7.4
	c-3.5,3.4-0.3,9.3,4.8,8.4c9.4-1.8,18.9-2.6,28.4-2.5c1.1,0.4,2.2,0.5,3.3,0.1c14.8,0.8,29.2,4.6,41.7,13.3l3.2,2.3
	c-3.8-0.4-7.7-0.6-11.5-0.5c-3.6,0-6.5,4.3-4.3,7.5c9.7,14.2,16.9,29.9,21.5,46.5c-6.6-7.2-14-13.8-21.9-19.5
	c-4.1-3-9.3,2.8-6.8,6.8c10.4,16.9,16.1,36.3,16.3,56.2c-8-13.4-18.5-25.2-30.9-34.7c-2.1-1.7-5.6-0.3-6.8,1.8s-0.4,5.2,1.8,6.8
	c15.3,12,27.3,27.7,34.6,45.7c0.8,2.1,2.4,3.7,4.8,3.7s4.5-1.6,4.8-3.7c3.2-19.7,1.3-39.9-5.3-58.8c5.2,5.5,10,11.4,14.2,17.7
	c1.3,2.2,4,3,6.3,2c2.5-1,3.2-3.3,2.9-5.9c-3-21.8-10.5-42.8-21.8-61.7c5,0.5,10,1.4,14.9,2.8c4,1.2,8.3-3.7,5.7-7.3
	c-12-16.7-30.4-26-50-29.5c10-6.2,20.4-11.7,31.1-16.6l5.8-2.5l0.5-0.3h0.1l1.2-0.5l3.2-1.3c3.9-1.5,7.7-3,11.7-4.4
	c7.8-2.7,15.9-5.1,24-7.2c8.1-2.1,16.2-3.7,24.5-5l6.1-0.9h0.5l1.6-0.2l3.1-0.4h2.6l0.2,0.2l0.2,0.3l0.6,1.1
	c0.1,0.2,0.5,1.4,0.2,0.5l0.6,1.6c0.7,1.9,1.3,3.9,1.7,5.9l0.6,3c0,0.2,0,0.5,0.1,0.7c0,0.5,0.1,1.1,0.2,1.6
	c0.3,4.2,0.4,8.5,0.1,12.7c-0.1,2.1-0.3,4.1-0.6,6.2l-0.3,3.2c-0.1,0.4-0.1,0.8-0.2,1.2s-0.1,1-0.2,1.2l-1.8,13
	c-2.5,18-2.7,36.3-0.5,54.4l-2.5-1.3c-6.9-3.2-14.2-5.6-21.7-7.1c-2.5-0.4-5.5,0.8-6.1,3.5s0.7,5.7,3.5,6.2s6.4,1.4,9.5,2.3l4.2,1.5
	l1.9,0.7l1.1,0.5h0.2l0.5,0.2c5.7,2.5,11.1,5.6,16.2,9.2l2,1.4l0.6,0.5h0.3l3.7,3.2c2.3,2,4.6,4.2,6.7,6.4l3,3.4l1.6,1.8l0.7,1
	l0.4,0.4c1.9,2.6,3.7,5.2,5.4,7.9c0.4,0.7,0.8,1.4,1.3,2.1l-11.1-7.9c-2.4-1.4-5.4-0.6-6.8,1.8c-0.9,1.6-0.9,3.5,0,5.1
	c1.5,2.4,2.8,4.9,4,7.5c0.1,0.2,0.2,0.3,0.2,0.5c0.1,0.4,0.3,0.7,0.4,1.1l0.6,1.7c0.5,1.4,0.9,2.9,1.3,4.3l0.9,3.9l0.3,2
	c0.1,0.4,0.2,0.7,0.2,1.1c0,0.2,0.1,0.5,0.1,0.7c0.3,2.8,0.6,5.6,0.7,8.4c0.4,11.5-0.8,23.1-1.3,34.6c-0.1,2-0.1,4-0.1,6
	c-3-2.9-6.2-5.5-9.6-7.9c-2-1.1-4.4-0.8-6,0.8c-1.5,1.7-1.9,4.1-0.8,6.1c0.8,1.6,1.5,3.3,2.3,4.9c0.8,1.6,0.7,1.6,1,2.3l0.3,0.7
	c-0.1-0.1,0.5,1.2,0.5,1.3c1.4,3.3,2.6,6.5,3.8,9.8c2.3,6.8,4.4,13.7,6,20.7c1.7,7,3,14,4,21.1c0.1,0.1,0.1,0.2,0.1,0.3
	c0,0.5,0.1,0.9,0.2,1.4l0.3,2.5c0.2,1.8,0.4,3.6,0.5,5.5c0.3,3.5,0.6,7.1,0.7,10.7s0.2,7.8,0.2,11.8l-12.5-13.5
	c-1.8-1.7-4.6-1.9-6.6-0.4c-1.9,1.6-2.4,4.3-1.2,6.5c0.4,0.9,0.9,1.9,1.3,2.9c0.1,0.1,0.2,0.3,0.2,0.4l0.3,0.9
	c0.3,0.6,0.5,1.2,0.7,1.8c0.7,2.3,1.3,4.7,1.8,7l0.6,3.2c0,0.2,0.1,0.4,0.1,0.6c-0.1,0.8-0.1,1.6,0,2.4c0,2.5-0.1,5.1-0.2,7.7
	c-0.3,5.3-0.8,10.7-1.4,16.1c-0.2,1.2-0.3,2.5-0.5,3.7s-0.1,0.8-0.1,1.1c0,0.1,0,0.1,0,0.2l-0.3,2c-0.4,2.7-0.8,5.4-1.3,8.1
	c-0.9,6.1-2,12.2-3,18.3c-0.4,2.6,0.7,5.5,3.5,6.2s5.7-0.8,6.2-3.5c1.9-11.4,3.8-22.8,5.2-34.2c0.7-5.6,1.3-11.1,1.6-16.7l0.3-8.3
	c0-1.3-0.1-2.6-0.2-3.9l6.5,7c1.4,1.4,3.6,1.9,5.5,1.1c1.8-0.8,3-2.6,3.1-4.6c1.9-29.4-2-58.9-11.3-86.9l-0.3-0.7
	c1.2,1.6,3.3,2.4,5.3,1.8c1.9-0.6,3.8-2.6,3.6-4.8c-2.3-23.7,4.2-47.7-1.1-71.2l-0.6-2.3l11.6,8.3c1.7,1,3.9,0.8,5.5-0.4
	C875.2,400.6,875.9,398.7,875.5,396.8z"/>
<path d="M779.2,438.6c-1.8-4-3.8-7.9-6-11.7l1.9,0.7l1.6,0.6l0.5,0.2h0.3l2.8,1.3c2,1.1,4,2.2,5.9,3.5c1.8,1,4,0.9,5.6-0.4
	c1.5-1.2,2.2-3.3,1.8-5.2c-2.7-16.4-9.6-31.9-19.9-44.9c-1.7-2-5.4-1.8-7.1,0s-1.8,4.9,0,7.1l0.3,0.4l0.2,0.3l0.8,1l1.7,2.5l3,4.6
	c1.9,3.3,3.7,6.8,5.3,10.3c0,0.2,0.2,0.5,0.2,0.7l0.6,1.3l0.9,2.4c0.7,1.9,1.3,3.8,1.8,5.7c0.1,0.1,0.1,0.2,0.1,0.3
	c-5.9-2.5-12.2-4.1-18.6-4.8c-3.7-0.4-6.2,4.6-4.3,7.6c4,6,7.5,12.2,10.7,18.7c0.8,1.6,1.5,3.1,2.2,4.7l1.1,2.4l0.3,0.8l0.5,1.2
	c1.4,3.3,2.6,6.7,3.8,10.1c2.3,6.7,4.1,13.5,5.6,20.4c0.7,3.5,1.4,7,1.9,10.6c0.1,0.4,0.1,0.9,0.2,1.3c0.1,0.4,0.1,0.5,0.1,0.7
	l0.3,2.2c0.2,1.9,0.4,3.8,0.5,5.6c0.7,8,0.8,16.1,0.3,24.2c0.1,2.7,2.3,4.9,5,5c2.8,0,5-2.2,5-5c0.9-14.8-0.2-29.7-3.1-44.3
	C790.2,466.1,785.5,452,779.2,438.6z"/>
<path d="M690.6,406.9c-17.6-13.3-38.8-21.3-60.8-22.9h-1.6c4.7-1.5,9.4-3,14.1-4.3s9.2-2.5,13.9-3.5c2.7-0.7,4-3.6,3.5-6.2
	c-3.8-17.9-10.9-34.8-21.1-50c-3-4.5-6.3-8.8-9.8-12.9c-1.9-2-5.1-2-7.1,0c-1.9,2-1.9,5,0,7l2.1,2.5l0.9,1.2l0.4,0.5
	c0.1,0.1,0.2,0.2,0.2,0.3c1.4,1.8,2.7,3.5,3.9,5.4c2.5,3.5,4.8,7.2,6.9,11c2.1,3.8,4.1,7.8,5.8,11.8l0.5,1.1c0,0.1,0.4,0.9,0.4,1.1
	s0.9,2.1,1.3,3.1l2.1,6.1c1,3.1,1.9,6.2,2.7,9.3c-15,3.8-29.8,8.5-44.2,14.3c-4.7,2-9.5,4-14.1,6.1c-2.3,1-3,4.2-2.1,6.2
	c1,2.3,3.5,3.5,5.9,2.9c2.7-0.7,5.4-1.3,8.1-1.8l3.9-0.6h0.8l2.4-0.3c5.3-0.5,10.7-0.7,16-0.5c2.7,0.1,5.4,0.3,8.1,0.7h3l4.2,0.8
	c5.3,1,10.5,2.4,15.6,4.2l3.7,1.3l1.6,0.7l0.6,0.2l0.6,0.3c2.4,1,4.8,2.2,7.1,3.4c4.2,2.2,8.3,4.8,12.2,7.5l2.8,2.1
	c0.1,0,0.1,0,0.1,0.1l0.6,0.4l1.5,1.2l5.3,4.7c3.5,3.3,6.8,6.7,9.9,10.4l1.3,1.6l0.6,0.8c0.1,0.1,0.3,0.3,0.4,0.4l2.1,2.9
	c1.5,2.2,3,4.5,4.4,6.8s2.1,3.6,3.1,5.5c-6-0.1-11.9,1.5-17,4.8c-2.2,1.4-3.3,4.5-1.8,6.8c1.4,2.4,4.5,3.2,6.9,1.8
	c0.8-0.6,1.7-1.1,2.6-1.5l0.5-0.3l1.4-0.5l2.7-0.7l1.1-0.2h0.7c1.7-0.2,3.5-0.2,5.2,0l0.9,0.2l1.2,0.3l3,1c3.4,1.3,7.6-2.8,6.2-6.2
	C720,436.2,707.1,419.5,690.6,406.9z"/>
</svg>
