<?xml version="1.0" encoding="UTF-8"?><svg id="Layer_2" xmlns="http://www.w3.org/2000/svg" viewBox="0 0 1313.37 1337.14"><g id="Layer_1-2"><rect x="0" y="487.07" width="566.93" height="734.91" style="fill:#fff; stroke-width:0px;"/><rect x="449.29" y="886.35" width="102.05" height="48.19" rx="8.5" ry="8.5" transform="translate(1410.76 410.13) rotate(90)" style="fill:#606060; stroke-width:0px;"/><rect x="15.59" y="886.35" width="102.05" height="48.19" rx="8.5" ry="8.5" transform="translate(977.06 843.83) rotate(90)" style="fill:#606060; stroke-width:0px;"/><path d="m0,487.08v734.9h566.93V487.08H0Zm538.58,706.56H28.34v-678.22h510.24v678.22Z" style="fill:#fff; stroke-width:0px;"/><path d="m0,487.08v734.9h566.93V487.08H0Zm538.58,706.56H28.34v-678.22h510.24v678.22Z" style="fill:#5a4029; stroke-width:0px;"/><text transform="translate(230.93 1076.72) scale(.95 1)" style="fill:#5a4029; font-family:SVN-WeekdaysSanttuy-Regular, &apos;SVN-Weekdays Santtuy&apos;; font-size:91.37px; stroke:#5a4029; stroke-linecap:round; stroke-linejoin:round; stroke-width:1.34px;"><tspan x="0" y="0">asd</tspan></text><text transform="translate(248.03 1159.31) scale(.99 1)" style="fill:#161515; font-family:#9Slide03NanamiRoundedLight, &apos;#9Slide03 Nanami Rounded Light&apos;; font-size:27.78px; stroke:#00ff2a; stroke-miterlimit:10; stroke-width:.3px;"><tspan x="0" y="0">q</tspan><tspan x="15.7" y="0" style="letter-spacing:0em;">u</tspan><tspan x="29.67" y="0" style="letter-spacing:-.02em;">o</tspan><tspan x="45.2" y="0" style="letter-spacing:-.02em;">t</tspan><tspan x="56.14" y="0">e</tspan></text><rect x="75.12" y="549.31" width="416.69" height="277.8" style="stroke:red; stroke-miterlimit:10; stroke-width:.29px;"/><rect x="70.87" y="2.99" width="425.2" height="283.46" style="fill:#5a4029; stroke-width:0px;"/><rect x="879.52" y=".15" width="433.7" height="289.13" style="stroke:red; stroke-miterlimit:10; stroke-width:.31px;"/><path d="m163.44,1304.31c-1.83-1.04-3.88-1.57-6.13-1.57-.89,0-1.83.12-2.82.36-.99.24-1.81.55-2.46.92l.98-7.44h12.73c.82,0,1.5-.26,2.05-.79.55-.53.82-1.19.82-1.98s-.27-1.51-.82-2.05c-.55-.55-1.23-.82-2.05-.82h-14.84c-.79,0-1.46.23-2.03.69-.56.46-.92,1.05-1.05,1.77l-1.59,12.73c-.04.14-.05.38-.05.72,0,.99.28,1.85.85,2.57.57.72,1.51,1.08,2.85,1.08.38,0,.74-.07,1.1-.21.36-.14.85-.36,1.46-.67.86-.41,1.59-.72,2.21-.92.62-.21,1.32-.31,2.1-.31,1.75,0,3.25.58,4.52,1.75,1.27,1.16,1.9,2.67,1.9,4.52,0,1.27-.37,2.45-1.1,3.54-.74,1.1-1.72,1.97-2.95,2.62-1.23.65-2.55.97-3.95.97-1.1,0-2.36-.44-3.8-1.33-.92-.65-1.69-.98-2.31-.98-.86,0-1.55.25-2.08.74-.53.5-.8,1.05-.8,1.67,0,.55.14,1.13.41,1.75.27.62.62,1.1,1.03,1.44.89.72,2.04,1.28,3.46,1.69,1.42.41,2.8.62,4.13.62,2.5,0,4.83-.57,6.98-1.72,2.16-1.15,3.88-2.69,5.19-4.65,1.3-1.95,1.95-4.07,1.95-6.37s-.52-4.24-1.57-6.06c-1.04-1.81-2.48-3.24-4.31-4.29Z" style="stroke-width:0px;"/><path d="m207.92,1298.89c-2.02,0-3.83.58-5.42,1.75-1.59,1.16-2.78,2.46-3.57,3.9-1.2-3.76-3.95-5.65-8.26-5.65-1.75,0-3.33.44-4.75,1.31-1.42.87-2.59,1.93-3.52,3.16v-.82c0-.89-.29-1.63-.87-2.23s-1.32-.9-2.21-.9-1.63.3-2.21.9c-.58.6-.87,1.34-.87,2.23v21.2c0,.89.29,1.63.87,2.23.58.6,1.32.9,2.21.9s1.62-.3,2.21-.9.87-1.34.87-2.23v-13.14c0-1.75.54-3.19,1.62-4.34s2.58-1.72,4.49-1.72,3.14.54,3.88,1.62c.74,1.08,1.1,2.56,1.1,4.44v13.14c0,.89.29,1.63.87,2.23.58.6,1.32.9,2.21.9s1.62-.3,2.21-.9.87-1.34.87-2.23v-13.14c0-1.75.54-3.19,1.62-4.34s2.58-1.72,4.49-1.72,3.14.54,3.88,1.62c.74,1.08,1.1,2.56,1.1,4.44v13.14c0,.89.29,1.63.87,2.23.58.6,1.32.9,2.21.9s1.62-.3,2.21-.9.87-1.34.87-2.23v-13.14c0-3.66-.65-6.53-1.95-8.6-1.3-2.07-3.65-3.11-7.03-3.11Z" style="stroke-width:0px;"/><path d="m255.25,1298.89c-2.02,0-3.83.58-5.42,1.75-1.59,1.16-2.78,2.46-3.57,3.9-1.2-3.76-3.95-5.65-8.26-5.65-1.75,0-3.33.44-4.75,1.31-1.42.87-2.59,1.93-3.52,3.16v-.82c0-.89-.29-1.63-.87-2.23s-1.32-.9-2.21-.9-1.63.3-2.21.9c-.58.6-.87,1.34-.87,2.23v21.2c0,.89.29,1.63.87,2.23.58.6,1.32.9,2.21.9s1.62-.3,2.21-.9.87-1.34.87-2.23v-13.14c0-1.75.54-3.19,1.62-4.34s2.58-1.72,4.49-1.72,3.14.54,3.88,1.62c.74,1.08,1.1,2.56,1.1,4.44v13.14c0,.89.29,1.63.87,2.23.58.6,1.32.9,2.21.9s1.62-.3,2.21-.9.87-1.34.87-2.23v-13.14c0-1.75.54-3.19,1.62-4.34s2.58-1.72,4.49-1.72,3.14.54,3.88,1.62c.74,1.08,1.1,2.56,1.1,4.44v13.14c0,.89.29,1.63.87,2.23.58.6,1.32.9,2.21.9s1.62-.3,2.21-.9.87-1.34.87-2.23v-13.14c0-3.66-.65-6.53-1.95-8.6-1.3-2.07-3.65-3.11-7.03-3.11Z" style="stroke-width:0px;"/><path d="m296.58,1308.08h-8.93c-.89,0-1.63.29-2.23.87-.6.58-.9,1.3-.9,2.16s.3,1.63.9,2.21,1.34.87,2.23.87h8.93c.89,0,1.63-.28,2.23-.85.6-.56.9-1.27.9-2.13s-.3-1.63-.9-2.23c-.6-.6-1.34-.9-2.23-.9Z" style="stroke-width:0px;"/><path d="m332.46,1305.56c.82,0,1.51-.26,2.05-.8.55-.53.82-1.19.82-1.98s-.27-1.51-.82-2.05c-.55-.55-1.23-.82-2.05-.82h-3.64v-3.29c0-.89-.29-1.63-.87-2.23-.58-.6-1.3-.9-2.16-.9s-1.63.3-2.23.9c-.6.6-.9,1.34-.9,2.23v3.29h-2.36c-.82,0-1.51.27-2.05.8-.55.53-.82,1.19-.82,1.98s.27,1.51.82,2.05c.55.55,1.23.82,2.05.82h2.36v14.17c0,2.94.73,4.87,2.18,5.78,1.45.91,3.24,1.36,5.36,1.36,1.27,0,2.4-.32,3.41-.95,1.01-.63,1.51-1.41,1.51-2.34,0-.75-.2-1.36-.59-1.82s-.83-.69-1.31-.69c-.38,0-.77.08-1.18.26-.48.14-.86.21-1.13.21-.65,0-1.16-.16-1.54-.49-.38-.32-.56-.85-.56-1.57v-13.91h3.64Z" style="stroke-width:0px;"/><path d="m357.85,1299.76c-.7-.58-1.57-.87-2.59-.87-1.68,0-3.25.37-4.72,1.1s-2.6,1.81-3.39,3.21v-.67c0-.89-.29-1.63-.87-2.23s-1.32-.9-2.21-.9-1.63.3-2.21.9c-.58.6-.87,1.34-.87,2.23v21.2c0,.89.29,1.63.87,2.23.58.6,1.32.9,2.21.9s1.62-.3,2.21-.9.87-1.34.87-2.23v-12.17c0-1.54.26-2.87.8-3.98.53-1.11,1.21-1.94,2.03-2.49.82-.55,1.68-.82,2.57-.82.41,0,.8.05,1.16.15s.59.17.69.21c.65.24,1.23.36,1.75.36.75,0,1.4-.26,1.95-.8.55-.53.82-1.33.82-2.39,0-.79-.35-1.47-1.05-2.05Z" style="stroke-width:0px;"/><path d="m374.58,1289.65c.39.31.76.46,1.1.46.99,0,1.76-.29,2.31-.87l3.9-4.31c.58-.68.91-1.42.98-2.21.03-.75-.18-1.37-.64-1.85-.46-.48-1.16-.72-2.08-.72-.58,0-1.11.19-1.59.56-.48.38-.89.87-1.23,1.49l-2.98,5.24c-.21.34-.31.67-.31.98-.03.51.15.92.54,1.23Z" style="stroke-width:0px;"/><path d="m370.37,1296.02c1.42.82,3.11,1.23,5.06,1.23s3.64-.42,5.06-1.26c1.42-.84,2.46-2.04,3.11-3.62.14-.38.21-.74.21-1.08,0-.51-.16-.92-.49-1.21-.33-.29-.75-.44-1.26-.44-.69,0-1.24.15-1.67.44-.43.29-.9.76-1.41,1.41-.82.92-2,1.39-3.54,1.39s-2.72-.46-3.54-1.39c-.51-.65-.98-1.12-1.41-1.41-.43-.29-.98-.44-1.67-.44-.51,0-.93.15-1.26.46-.33.31-.49.72-.49,1.23,0,.31.08.69.26,1.13.62,1.54,1.63,2.72,3.05,3.54Z" style="stroke-width:0px;"/><path d="m384.87,1298.89c-.89,0-1.63.3-2.21.9-.58.6-.87,1.34-.87,2.23v.05c-.99-.92-2.21-1.69-3.64-2.28s-2.98-.9-4.62-.9c-2.29,0-4.39.61-6.29,1.82-1.9,1.22-3.4,2.91-4.49,5.08-1.1,2.17-1.64,4.63-1.64,7.37s.56,5.18,1.67,7.34,2.63,3.84,4.54,5.06c1.92,1.22,4.06,1.82,6.42,1.82,1.61,0,3.14-.35,4.59-1.05,1.45-.7,2.61-1.55,3.46-2.54.03.89.33,1.63.9,2.21.56.58,1.29.87,2.18.87s1.62-.3,2.21-.9c.58-.6.87-1.34.87-2.23v-21.71c0-.92-.29-1.68-.87-2.26-.58-.58-1.32-.87-2.21-.87Zm-4.93,20.41c-1.4,1.63-3.22,2.44-5.44,2.44s-4.03-.81-5.42-2.44c-1.39-1.62-2.08-3.67-2.08-6.13s.7-4.52,2.11-6.16c1.4-1.64,3.2-2.46,5.39-2.46s4.04.82,5.44,2.46,2.11,3.7,2.11,6.16-.7,4.51-2.11,6.13Z" style="stroke-width:0px;"/><path d="m409.31,1298.89c-1.78,0-3.41.45-4.9,1.33-1.49.89-2.7,1.95-3.62,3.18v-.87c0-.89-.29-1.63-.87-2.23s-1.32-.9-2.21-.9-1.63.3-2.21.9c-.58.6-.87,1.34-.87,2.23v21.2c0,.89.29,1.63.87,2.23.58.6,1.32.9,2.21.9s1.62-.3,2.21-.9.87-1.34.87-2.23v-13.14c0-1.75.56-3.19,1.69-4.34,1.13-1.15,2.69-1.72,4.67-1.72s3.27.54,4.06,1.62c.79,1.08,1.18,2.56,1.18,4.44v13.14c0,.89.29,1.63.87,2.23s1.32.9,2.21.9,1.62-.3,2.21-.9.87-1.34.87-2.23v-13.14c0-3.66-.67-6.53-2-8.6-1.33-2.07-3.75-3.11-7.24-3.11Z" style="stroke-width:0px;"/><path d="m450.17,1299.76c-.58-.58-1.32-.87-2.21-.87s-1.63.3-2.21.9-.87,1.34-.87,2.23v.56c-.92-1.03-2.14-1.9-3.65-2.62s-3.13-1.08-4.88-1.08c-2.36,0-4.51.61-6.44,1.82-1.93,1.22-3.46,2.91-4.57,5.08-1.11,2.17-1.67,4.63-1.67,7.37s.56,5.18,1.69,7.34c1.13,2.16,2.68,3.84,4.65,5.06,1.97,1.22,4.15,1.82,6.55,1.82,1.75,0,3.38-.43,4.9-1.28,1.52-.85,2.66-1.81,3.41-2.88v2.46c0,1.85-.62,3.28-1.87,4.29-1.25,1.01-3.14,1.51-5.67,1.51-1.27,0-2.68-.3-4.24-.9-1.56-.6-2.4-.92-2.54-.95-.31-.1-.63-.15-.98-.15-.58,0-1.12.2-1.62.59s-.85.97-1.05,1.72c-.1.31-.15.58-.15.82,0,1.27.84,2.26,2.52,2.98.75.34,2.03.68,3.82,1.03,1.8.34,3.21.51,4.24.51,3.97,0,7.25-1,9.83-3,2.58-2,3.88-5.09,3.88-9.27v-22.84c0-.92-.29-1.68-.87-2.26Zm-7.21,19.53c-1.46,1.63-3.33,2.44-5.62,2.44s-4.16-.81-5.6-2.44c-1.44-1.62-2.16-3.67-2.16-6.13s.72-4.52,2.16-6.16,3.3-2.46,5.6-2.46,4.17.82,5.62,2.46c1.45,1.64,2.18,3.7,2.18,6.16s-.73,4.51-2.18,6.13Z" style="stroke-width:0px;"/><path d="m953.17,1306.39c-1.46-1.03-3.12-1.57-5.01-1.64l6.88-7.6c.82-.82,1.23-1.64,1.23-2.46,0-.92-.27-1.67-.82-2.23-.55-.56-1.33-.85-2.36-.85h-15.71c-.82,0-1.51.27-2.05.8-.55.53-.82,1.19-.82,1.98s.27,1.51.82,2.05c.55.55,1.23.82,2.05.82h10.16l-7.96,8.68c-.41.45-.7.86-.87,1.23-.17.38-.26.8-.26,1.28,0,.79.22,1.45.67,1.98.44.53,1.04.8,1.8.8.58,0,1.32-.14,2.21-.41.1-.03.41-.12.92-.26.51-.14,1.11-.21,1.8-.21,1.57,0,2.92.51,4.03,1.54,1.11,1.03,1.67,2.46,1.67,4.31,0,1.3-.3,2.46-.9,3.47-.6,1.01-1.38,1.78-2.34,2.31-.96.53-1.97.8-3.03.8-1.78,0-3.41-.56-4.88-1.69-.79-.51-1.52-.77-2.21-.77-.82,0-1.52.34-2.1,1.03-.58.68-.87,1.44-.87,2.26,0,1.16.63,2.09,1.9,2.77.92.51,2,.92,3.23,1.23,1.23.31,2.46.46,3.7.46,2.74,0,5.13-.5,7.19-1.49,2.05-.99,3.65-2.42,4.77-4.29,1.13-1.86,1.69-4.05,1.69-6.54,0-1.88-.39-3.65-1.18-5.31-.79-1.66-1.91-3-3.36-4.03Z" style="stroke-width:0px;"/><path d="m994.77,1299.56c-2.02,0-3.83.58-5.42,1.75-1.59,1.16-2.78,2.46-3.57,3.9-1.2-3.76-3.95-5.65-8.26-5.65-1.75,0-3.33.44-4.75,1.31-1.42.87-2.59,1.93-3.52,3.16v-.82c0-.89-.29-1.63-.87-2.23s-1.32-.9-2.21-.9-1.63.3-2.21.9c-.58.6-.87,1.34-.87,2.23v21.2c0,.89.29,1.63.87,2.23.58.6,1.32.9,2.21.9s1.62-.3,2.21-.9.87-1.34.87-2.23v-13.14c0-1.75.54-3.19,1.62-4.34s2.58-1.72,4.49-1.72,3.14.54,3.88,1.62c.74,1.08,1.1,2.56,1.1,4.44v13.14c0,.89.29,1.63.87,2.23.58.6,1.32.9,2.21.9s1.62-.3,2.21-.9.87-1.34.87-2.23v-13.14c0-1.75.54-3.19,1.62-4.34s2.58-1.72,4.49-1.72,3.14.54,3.88,1.62c.74,1.08,1.1,2.56,1.1,4.44v13.14c0,.89.29,1.63.87,2.23.58.6,1.32.9,2.21.9s1.62-.3,2.21-.9.87-1.34.87-2.23v-13.14c0-3.66-.65-6.53-1.95-8.6-1.3-2.07-3.65-3.11-7.03-3.11Z" style="stroke-width:0px;"/><path d="m1042.11,1299.56c-2.02,0-3.83.58-5.42,1.75-1.59,1.16-2.78,2.46-3.57,3.9-1.2-3.76-3.95-5.65-8.26-5.65-1.75,0-3.33.44-4.75,1.31-1.42.87-2.59,1.93-3.52,3.16v-.82c0-.89-.29-1.63-.87-2.23s-1.32-.9-2.21-.9-1.63.3-2.21.9c-.58.6-.87,1.34-.87,2.23v21.2c0,.89.29,1.63.87,2.23.58.6,1.32.9,2.21.9s1.62-.3,2.21-.9.87-1.34.87-2.23v-13.14c0-1.75.54-3.19,1.62-4.34,1.08-1.15,2.58-1.72,4.49-1.72s3.14.54,3.88,1.62c.74,1.08,1.1,2.56,1.1,4.44v13.14c0,.89.29,1.63.87,2.23.58.6,1.32.9,2.21.9s1.62-.3,2.21-.9.87-1.34.87-2.23v-13.14c0-1.75.54-3.19,1.62-4.34s2.58-1.72,4.49-1.72,3.14.54,3.88,1.62c.74,1.08,1.1,2.56,1.1,4.44v13.14c0,.89.29,1.63.87,2.23.58.6,1.32.9,2.21.9s1.62-.3,2.21-.9.87-1.34.87-2.23v-13.14c0-3.66-.65-6.53-1.95-8.6-1.3-2.07-3.65-3.11-7.03-3.11Z" style="stroke-width:0px;"/><path d="m1083.43,1308.75h-8.93c-.89,0-1.63.29-2.23.87-.6.58-.9,1.3-.9,2.16s.3,1.63.9,2.21,1.34.87,2.23.87h8.93c.89,0,1.63-.28,2.23-.85.6-.56.9-1.27.9-2.13s-.3-1.63-.9-2.23c-.6-.6-1.34-.9-2.23-.9Z" style="stroke-width:0px;"/><path d="m1121.52,1299.56c-1.78,0-3.41.45-4.9,1.33-1.49.89-2.7,1.95-3.62,3.18v-.87c0-.89-.29-1.63-.87-2.23s-1.32-.9-2.21-.9-1.63.3-2.21.9c-.58.6-.87,1.34-.87,2.23v21.2c0,.89.29,1.63.87,2.23.58.6,1.32.9,2.21.9s1.62-.3,2.21-.9.87-1.34.87-2.23v-13.14c0-1.75.56-3.19,1.69-4.34,1.13-1.15,2.69-1.72,4.67-1.72s3.27.54,4.06,1.62c.79,1.08,1.18,2.56,1.18,4.44v13.14c0,.89.29,1.63.87,2.23s1.32.9,2.21.9,1.62-.3,2.21-.9.87-1.34.87-2.23v-13.14c0-3.66-.67-6.53-2-8.6-1.33-2.07-3.75-3.11-7.24-3.11Z" style="stroke-width:0px;"/><path d="m1159.67,1299.56c-.89,0-1.63.3-2.21.9-.58.6-.87,1.34-.87,2.23v.05c-.99-.92-2.21-1.69-3.64-2.28s-2.98-.9-4.62-.9c-2.29,0-4.39.61-6.29,1.82-1.9,1.22-3.4,2.91-4.49,5.08-1.1,2.17-1.64,4.63-1.64,7.37s.56,5.18,1.67,7.34,2.63,3.84,4.54,5.06c1.92,1.22,4.06,1.82,6.42,1.82,1.61,0,3.14-.35,4.59-1.05,1.45-.7,2.61-1.55,3.46-2.54.03.89.33,1.63.9,2.21.56.58,1.29.87,2.18.87s1.62-.3,2.21-.9c.58-.6.87-1.34.87-2.23v-21.71c0-.92-.29-1.68-.87-2.26-.58-.58-1.32-.87-2.21-.87Zm-4.93,20.41c-1.4,1.63-3.22,2.44-5.44,2.44s-4.03-.81-5.42-2.44c-1.39-1.62-2.08-3.67-2.08-6.13s.7-4.52,2.11-6.16c1.4-1.64,3.2-2.46,5.39-2.46s4.04.82,5.44,2.46,2.11,3.7,2.11,6.16-.7,4.51-2.11,6.13Z" style="stroke-width:0px;"/><path d="m1144.27,1296.79c.41,0,.75-.05,1.03-.15.27-.1.56-.28.85-.54.29-.26.5-.44.64-.54l2.93-2.41,2.72,2.41c.14.1.33.27.59.49.26.22.51.4.77.54.26.14.64.21,1.16.21.44,0,.81-.13,1.1-.38.29-.26.44-.56.44-.9,0-.31-.03-.56-.1-.77-.07-.21-.24-.48-.51-.82l-2.26-3.18c-.38-.58-.76-.98-1.16-1.18s-.93-.31-1.62-.31h-1.85c-1.3,0-2.34.5-3.13,1.49l-2.52,3.18c-.27.34-.45.62-.51.82-.07.21-.1.46-.1.77,0,.34.15.64.44.9s.66.38,1.1.38Z" style="stroke-width:0px;"/><path d="m1189.29,1300.07c-.89,0-1.63.3-2.21.9s-.87,1.34-.87,2.23v13.04c0,2.09-.46,3.64-1.39,4.65-.92,1.01-2.33,1.51-4.21,1.51s-3.23-.5-4.16-1.51c-.92-1.01-1.39-2.56-1.39-4.65v-13.04c0-.89-.29-1.63-.87-2.23s-1.32-.9-2.21-.9-1.63.3-2.21.9c-.58.6-.87,1.34-.87,2.23v13.04c0,3.7,1.01,6.59,3.03,8.68,2.02,2.09,4.91,3.13,8.68,3.13s6.66-1.04,8.7-3.13c2.04-2.09,3.05-4.98,3.05-8.68v-13.04c0-.89-.29-1.63-.87-2.23s-1.32-.9-2.21-.9Z" style="stroke-width:0px;"/><path d="m1221.89,1291.6c-.89,0-1.63.15-2.21.46l-7.75,4.62c-.48.27-.86.65-1.15,1.13-.29.48-.44.99-.44,1.54,0,.79.3,1.51.9,2.16.6.65,1.33.97,2.18.97.58,0,1.13-.15,1.64-.46l3.18-1.95v24.33c0,.89.31,1.63.92,2.23.62.6,1.4.9,2.36.9s1.76-.3,2.41-.9c.65-.6.98-1.34.98-2.23v-29.67c0-.89-.29-1.63-.87-2.23-.58-.6-1.3-.9-2.16-.9Z" style="stroke-width:0px;"/><path d="m1256.64,1299.89c-1.06-2.79-2.63-4.95-4.7-6.49-2.07-1.54-4.54-2.31-7.42-2.31s-5.35.77-7.42,2.31-3.64,3.71-4.7,6.49-1.59,6.01-1.59,9.68.53,6.89,1.59,9.68c1.06,2.79,2.63,4.95,4.7,6.49s4.54,2.31,7.42,2.31,5.35-.77,7.42-2.31c2.07-1.54,3.64-3.7,4.7-6.49,1.06-2.79,1.59-6.01,1.59-9.68s-.53-6.89-1.59-9.68Zm-6.96,18.87c-1.25,2.09-2.97,3.13-5.16,3.13s-3.91-1.04-5.16-3.13-1.87-5.15-1.87-9.19.62-7.1,1.87-9.19c1.25-2.09,2.97-3.13,5.16-3.13s3.91,1.04,5.16,3.13c1.25,2.09,1.87,5.15,1.87,9.19s-.62,7.1-1.87,9.19Z" style="stroke-width:0px;"/></g></svg>