<?xml version="1.0" encoding="utf-8"?>
<!-- Generator: Adobe Illustrator 24.2.3, SVG Export Plug-In . SVG Version: 6.00 Build 0)  -->
<svg version="1.1" id="Layer_1" xmlns="http://www.w3.org/2000/svg" xmlns:xlink="http://www.w3.org/1999/xlink" x="0px" y="0px"
	 viewBox="0 0 4801 3601" style="enable-background:new 0 0 4801 3601;" xml:space="preserve">
<g transform="translate(0.000000,3601.000000) scale(0.100000,-0.100000)">
	<path d="M28642,7486.8l357,6c196,4,376,9,401,12c25,2,101,9,170,15c845,73,1820,327,2376,620c611,322,982,766,1101,1320
		c27,129,25,399-5,540c-32,148-105,359-212,615c-167,397-246,618-345,955c-164,559-291,1261-350,1935c-3,39-8,88-10,110
		c-5,51-13,156-20,265c-3,47-8,110-10,140s-7,127-11,215c-3,88-10,246-14,350c-9,209-5,1516,6,2185c6,380-5,1020-22,1290
		c-20,323-42,562-80,875c-15,125-87,528-124,695c-109,494-184,747-656,2205c-444,1372-497,1520-626,1763c-205,387-528,707-843,833
		c-145,58-217,72-370,73l-140,1l-40,84c-70,148-234,450-340,627c-845,1406-2081,2471-3635,3134c-451,192-1044,386-1360,445
		c-203,38-481,53-670,38c-548-45-1343-225-1930-438c-867-315-1572-747-2130-1305c-158-158-262-280-408-480c-263-359-311-421-406-516
		c-125-125-168-157-381-279c-227-130-299-181-422-299c-202-193-345-399-568-821c-255-482-388-683-561-844c-92-86-187-150-404-271
		c-300-169-397-236-517-364c-140-147-276-378-418-706c-32-74-118-272-192-440c-424-960-577-1328-669-1605c-164-499-217-933-159-1320
		c8-53,33-170,54-260c77-315,77-316,96-1105c3-124,7-245,10-270c2-25,7-115,10-200s8-175,10-200s7-112,10-195c3-82,8-181,10-220
		c5-79,12-206,20-405c3-74,8-164,10-200s7-164,11-285s8-236,9-255s6-269,10-555c7-463-2-1049-20-1290c-2-33-9-130-15-215
		c-11-166-12-169-35-395c-94-899-286-1686-580-2375c-56-133-117-258-249-513c-92-180-127-293-133-432c-9-201,39-366,203-705
		c124-254,183-359,319-565c367-553,835-981,1365-1245c367-184,731-285,1205-335c101-11,473-13,600-4c915,67,1803,435,2595,1073
		c157,127,479,446,594,591c251,314,430,657,531,1014c37,132,81,339,109,516c132,821,113,1195-110,2235c-90,419-202,825-355,1282
		c-43,130-79,251-79,268c0,72-137,701-255,1170c-216,857-447,1576-818,2546c-355,925-465,1282-531,1719c-34,225-43,573-21,765
		c56,470,60,513,59,820c0,225-4,342-17,445c-9,77-20,163-23,190c-13,106-85,523-138,800c-113,582-147,735-216,990
		c-153,561-183,718-183,975c0,199,15,282,85,470c22,58,75,206,117,330c152,440,200,539,327,673c46,48,143,168,216,265
		c72,97,177,238,232,312c137,183,248,311,407,465c798,776,1915,1286,3352,1530c517,88,815,71,1341-77c608-170,1241-443,1801-776
		c907-539,1736-1312,2281-2128c122-183,180-339,191-519c10-163-27-300-167-616c-43-97-95-220-114-273c-71-188-109-414-100-581
		c5-75,60-675,69-753c18-141,84-831,100-1042c22-301,35-970,21-1075c-3-16-7-77-11-134c-24-404-120-837-292-1316
		c-36-99-145-382-243-630c-444-1123-704-1957-1148-3685c-60-234-119-444-130-465c-39-78-161-373-220-535c-195-534-331-1164-367-1700
		c-4-52-9-106-11-120s-7-149-10-300c-19-839,124-1697,413-2470c146-392,365-861,491-1050c266-403,470-493,1335-588L28642,7486.8z
		 M17851,25187.8c-64-188-111-308-161-408c-26-52-80-171-120-265c-190-448-258-556-545-870c-328-360-460-551-543-787
		c-44-122-63-235-63-365c-1-179,23-270,133-508c97-210,113-269,112-430c-1-162-15-241-105-576c-123-459-142-576-142-894
		c-1-385,59-710,203-1100c169-462,429-911,826-1431c115-151,202-259,657-819c354-436,660-861,859-1195c456-767,783-1525,1062-2460
		c170-572,334-1326,383-1768c14-121,7-556-10-722c-106-972-289-1424-782-1929c-420-430-887-759-1412-992c-422-188-801-288-1267-334
		c-78-8-446-8-521,0c-429,43-770,137-1100,303c-298,149-535,320-775,561c-272,273-492,585-693,987c-136,272-197,441-197,548
		c0,98,32,180,162,426c82,155,147,296,234,507c379,922,584,2009,634,3353c9,260,9,1082,0,1398c-11,361-41,1013-55,1212
		c-2,36-7,124-10,195c-4,72-8,148-10,170s-7,114-10,205c-4,91-8,186-10,211s-6,169-9,320c-15,693-33,902-106,1224
		c-52,233-61,293-66,465c-9,256,23,474,113,785c75,261,220,614,638,1560c76,171,169,384,207,475s100,230,139,310
		c167,345,283,460,684,680c287,157,380,225,535,386c170,178,321,405,524,789c174,327,302,538,415,677c59,74,206,218,222,218
		C17885,25299.8,17872,25248.8,17851,25187.8z M28843,24307.8c309-676,500-1315,607-2028c31-206,48-387,70-705c7-113,4-806-4-870
		c-2-16-7-79-10-140c-17-279-77-851-122-1160c-84-576-180-893-380-1260c-164-300-316-517-774-1100c-475-604-704-907-925-1222
		c-44-62-81-111-83-109c-3,4,17,79,109,401c244,852,453,1465,759,2230c260,650,363,960,445,1338c25,116,68,375,79,472
		c3,28,11,100,18,160c17,148,17,993,0,1210c-20,249-60,683-92,985c-16,151-38,372-50,490c-11,118-22,238-25,265c-3,28-5,111-6,185
		c0,207,24,294,189,665c43,99,90,210,103,248c13,37,26,67,30,67C28784,24429.8,28812,24374.8,28843,24307.8z M29547,24054.8
		c274-87,564-427,758-890c100-237,282-779,565-1680c78-247,175-555,216-683c286-893,433-1525,498-2142c16-150,39-450,53-695
		c4-77,7-824,7-1660c-2-1600,2-1835,37-2380c15-245,50-643,64-739c3-17,9-71,15-121c80-692,253-1464,451-2016c27-76,97-252,155-391
		c136-323,205-509,241-645c26-101,28-121,27-298c0-178-2-196-27-279c-96-312-323-593-652-808c-474-311-1440-593-2340-683
		c-316-31-376-33-815-30c-478,3-652,15-1020,70c-491,72-579,119-743,396c-95,159-293,564-367,747c-384,961-529,1990-425,3026
		c121,1195,561,2253,1465,3517c253,353,444,604,895,1174c500,631,669,879,845,1237c179,365,266,688,354,1323
		c121,870,162,1539,133,2175c-8,179-10,208-28,390c-69,719-240,1430-504,2093C29394,24088.8,29451,24085.8,29547,24054.8z
		 M17739,23635.8c23-93,68-267,101-385c80-295,100-381,176-775c190-985,209-1131,209-1571c-1-253-4-308-35-575
		c-63-540-44-913,71-1420c79-346,182-654,448-1346c255-665,386-1035,526-1492c42-136,83-267,91-292c19-58,14-52-101,130
		c-243,385-493,720-965,1295c-389,473-584,730-766,1005c-303,460-476,833-583,1256c-62,246-76,365-75,629c1,224,18,350,77,580
		c19,72,57,218,85,325c67,258,86,388,86,575c-1,219-22,298-148,576c-113,250-126,360-64,546c64,194,182,362,466,667
		c98,105,225,261,297,364c31,46,59,82,60,80C17697,23805.8,17717,23728.8,17739,23635.8z"/>
</g>
</svg>
