<?xml version="1.0" encoding="utf-8"?>
<!-- Generator: Adobe Illustrator 24.2.3, SVG Export Plug-In . SVG Version: 6.00 Build 0)  -->
<svg version="1.1" id="Layer_1" xmlns="http://www.w3.org/2000/svg" xmlns:xlink="http://www.w3.org/1999/xlink" x="0px" y="0px"
	 viewBox="0 0 4801 3601" style="enable-background:new 0 0 4801 3601;" xml:space="preserve">
<g transform="translate(0.000000,3601.000000) scale(0.100000,-0.100000)">
	<path d="M13675,13199.9c100-85,235-135,299.4-73.1c41.8,40.2,65.6,117.9,65.6,181.1c0,84-13,103-155,232c-252,228-454,465-638,746
		c-258,394-429,783-541,1231c-67,267-100,497-111,788c-13,350-18,413-41,542c-30,169-88,306-181,430c-69,91-134,151-248,224
		c-164,105-204,155-241,299c-22,86-14,206,20,325c27,92,121,291,243,515c175,321,250,546,259,770c3,84,0,116-15,159
		c-49,141-205,188-323,98c-60-46-80-92-79-177c3-200-57-376-237-700c-101-180-183-353-226-477c-39-113-75-286-77-366
		c-1-45-4-37-19,56c-22,131-55,202-122,262c-64,58-119,75-268,85c-69,5-144,15-168,24c-175,63-311,204-353,367c-11,42-9,55,25,170
		c200,664,620,1446,1102,2051c316,396,756,830,1132,1116c301,228,512,343,705,383c118,24,204,24,301-1c151-38,249-113,314-237
		c60-116,121-163,209-163c103,1,213,110,213,212c0,29-48,147-85,208c-110,181-340,342-555,389c-84,19-89,22-60,33
		c51,20,331,97,461,127c527,120,1041,140,1454,56c129-26,152-34,127-42c-27-10-75-58-88-89c-17-41-51-244-63-374
		c-13-144-11-358,5-520c23-230,41-280,117-325c85-49,178-42,247,21s84,150,53,304c-4,19-8,143-8,275c0,209,3,259,24,382
		c20,119,23,151,14,190c-6,27-10,50-7,52c5,5,126-50,213-99c86-46,124-60,171-60c111,0,193,75,207,188c7,63-28,147-78,185
		c-47,35-303,158-423,202c-192,71-439,129-649,154c-166,20-236,24-442,23c-698-2-1424-185-2350-595c-93-41-381-172-639-291
		c-258-120-562-257-675-305c-519-222-977-367-1381-435c-240-41-254-45-302-75c-90-58-113-174-54-275c15-25,45-58,67-73
		c51-33,110-33,311,1c596,102,1106,275,1963,668c143,66,267,122,275,125c20,8,17,5-130-119c-749-631-1401-1498-1814-2411
		c-178-393-286-702-431-1237c-53-195-121-429-152-520c-59-179-171-420-248-535c-175-260-409-413-740-484c-169-37-297-46-645-46
		c-323,1-405,6-690,41c-723,89-1452,297-2104,600c-682,318-1443,832-1593,1078c-147,240-63,612,200,878c90,92,164,144,312,219
		c229,116,459,178,1010,274c570,100,838,163,1190,280c735,244,1130,501,1909,1241c557,529,840,766,1212,1015
		c508,340,1014,570,1799,819c656,208,913,321,1210,529c127,89,259,203,497,430c248,238,324,303,451,385c194,127,427,207,677,233
		c121,12,470,7,665-11c99-9,207-18,240-21c86-8,128-12,335-35c674-75,1117-188,1512-386c221-110,317-176,670-462
		c222-179,323-250,461-323c203-106,379-151,604-153c138-1,143-2,137-21c-15-48-199-413-274-540c-46-77-138-221-205-320
		c-143-211-173-264-210-365c-38-101-40-236-7-321c44-111,128-178,224-179c60,0,95,13,137,53c70,66,89,163,50,244l-21,43l30,63
		c16,34,58,103,92,152c269,391,414,647,564,999c46,107,54,153,37,199c-9,24-7,26,83,60c249,95,564,187,829,241c263,54,359,65,557,62
		c196-4,205-5,545-106c213-63,311-86,495-119c120-21,126-22,305-43c155-18,713-17,930,2c94,8,258,14,365,14c211-1,302-16,414-68
		c66-30,136-82,136-100c0-27-84-140-165-220c-201-201-458-351-985-576c-272-116-564-259-702-343c-317-193-554-427-687-677
		c-65-124-101-220-101-273c1-137,142-239,271-196c68,23,95,54,154,176c73,152,129,235,223,331c210,214,466,365,1019,603
		c352,151,593,271,753,377c269,177,475,378,573,560l32,59l105-40c236-89,453-124,699-114c243,10,409,55,716,190
		c239,105,317,128,445,134c91,4,113,2,163-17c32-12,73-37,91-55c30-30,34-40,40-113c12-145,76-332,158-458c228-353,643-594,1392-810
		c260-74,586-147,666-148c104-1,184,54,212,145c22,75-15,185-78,232c-14,10-94,33-187,53c-621,134-1109,305-1382,485
		c-101,67-220,186-267,266c-20,34-49,95-64,135c-25,65-28,87-29,193c0,111,2,124,28,180c34,72,56,97,125,142c71,46,133,64,221,64
		c123-1,195-43,396-231c314-294,613-520,937-706c73-42,327-173,563-290c601-297,780-408,980-608c195-195,303-377,365-612
		c28-108,28-271,1-378c-26-98-26-129,0-186c24-54,44-77,84-98c107-55,245-13,292,90c91,195,85,545-12,818c-137,383-400,695-812,963
		c-179,117-257,159-710,385c-219,110-441,223-493,252c-94,52-326,196-371,231l-24,18l35-4c100-13,164-16,365-20
		c422-8,788,41,1206,160c105,30,200,55,210,55c11,0,28-19,46-52c15-28,45-65,67-82c37-30,41-31,134-29c145,2,209,35,248,128
		c19,47,22,132,4,166c-7,13-28,41-48,61c-31,32-35,44-35,83c2,99,69,176,189,214c128,41,210,39,879-24c404-37,541-44,865-40
		c367,4,525,22,935,105c262,53,313,60,466,61c241,1,390-52,619-219c84-61,141-112,380-332c398-368,714-574,1137-743
		c264-106,494-163,863-217c687-99,872-195,1134-593c51-78,159-242,240-365s190-279,241-348c52-68,91-124,87-124s-45-7-92-15
		c-87-16-338-21-441-9c-260,29-583,129-894,278c-258,124-445,236-1035,618c-302,195-455,288-646,392c-353,192-701,319-1031,377
		c-172,31-464,33-593,5c-187-40-331-111-447-219c-76-72-102-121-103-194c0-49-2-53-27-59c-276-60-445-264-419-505
		c15-150,90-283,236-422c81-77,148-129,534-416c289-213,447-409,507-628c22-79,22-145,3-328c-9-85,17-213,62-304
		c92-186,307-310,537-311c136,0,344,56,532,145c98,46,116,61,140,119c37,87,11,198-57,249c-82,61-152,59-298-8
		c-192-87-320-106-418-60c-79,36-87,63-73,229c20,238-9,408-105,600c-66,131-143,234-274,367c-128,130-220,204-520,424
		c-113,82-236,180-275,217c-79,75-125,150-108,176c64,105,435,41,778-133c413-210,708-447,1331-1069c567-568,984-1047,1168-1345
		c211-341,259-562,281-1284l5-188l-32,6c-50,9-166-12-233-44c-33-15-84-49-112-75l-53-48l-67,15c-38,9-138,21-223,27
		c-265,19-362,46-510,145c-113,75-264,242-350,386c-41,68-85,137-99,152c-41,45-93,67-159,67c-81,0-143-39-177-113
		c-48-102-30-168,102-367c240-363,536-586,866-654c41-9,155-22,252-30s178-16,181-18c10-11-107-168-174-235
		c-110-109-224-181-380-239c-110-42-184-85-242-140c-103-98-142-218-119-371c15-104,15-104,5-168c-9-57-33-101-89-162
		c-47-51-109-76-244-99c-297-50-440-158-487-366c-15-65-21-141-31-378c-22-507-147-1106-340-1626c-152-408-357-806-606-1174
		c-84-126-99-155-99-202c0-128,114-232,234-214c83,13,124,51,233,212c240,358,415,690,581,1106c241,603,395,1313,417,1923
		c3,88,8,184,11,213c7,64,5,63,188,98c214,42,313,90,439,212c138,135,207,288,215,477c2,61,0,135-6,165c-12,65-13,65,108,111
		c203,76,357,175,510,329c160,159,262,323,344,550c37,102,43,108,101,110c72,3,75,2,75-19c0-57,56-308,94-424
		c136-414,390-707,821-950c306-172,691-292,1185-371c129-20,406-54,510-61c47-4,101-9,120-12c87-12,722-15,902-4
		c887,54,1679,242,2498,594c489,210,760,371,978,581c185,179,294,358,354,581c18,65,22,108,22,230c1,176-13,242-79,381
		c-61,126-145,236-304,395c-158,159-288,264-485,393c-389,255-736,413-1626,741c-603,222-827,314-1115,457
		c-533,267-993,597-1416,1018c-346,344-548,601-843,1071c-75,119-170,262-210,316c-181,243-377,392-652,496c-162,62-297,91-749,163
		c-431,68-700,155-1026,330c-238,128-403,253-716,542c-308,283-458,399-647,496c-185,95-363,136-587,136c-169,0-307-17-594-75
		c-227-45-383-69-565-84c-107-10-653-6-770,5c-956,87-986,89-1132,75c-286-29-484-131-605-314c-27-40-57-99-68-132
		c-19-58-32-78-45-70c-15,10-165-20-284-56c-230-70-435-113-671-141c-144-17-656-17-785,0c-170,23-218,25-265,12
		c-57-16-112-64-129-113l-13-39l-128,119c-286,266-385,328-586,369c-98,20-259,15-354-11c-182-50-347-167-457-324l-15-21l-109,36
		c-98,33-123,38-239,42c-206,7-326-23-635-158c-212-93-248-107-364-138c-93-24-117-26-296-27c-182,0-202,2-303,28
		c-60,16-141,42-180,58c-99,41-160,52-211,38c-38-10-42-9-56,13c-75,116-252,239-430,296c-229,75-416,83-1025,42
		c-282-19-612-9-875,26c-162,22-305,53-530,117c-401,114-519,137-719,137c-372,0-951-126-1453-316c-111-42-119-44-163-33
		c-37,9-61,8-138-7c-131-27-333-25-442,5c-158,42-345,150-551,317c-300,244-389,313-504,389c-436,291-1000,474-1755,570
		c-236,30-248,31-390,45c-60,6-130,12-155,15c-324,31-607,43-835,33c-478-19-821-146-1182-436c-98-79-178-153-439-402
		c-395-378-659-520-1400-749c-983-304-1591-602-2278-1119c-261-197-378-299-841-737c-580-549-762-699-1068-881
		c-485-288-998-457-1837-604c-664-116-860-168-1130-297c-198-94-341-194-485-338c-67-66-144-155-173-197c-138-203-209-415-217-648
		c-13-395,155-675,600-999c935-681,1909-1110,3010-1325c724-142,1528-174,1983-80c703,145,1108,586,1378,1499c21,72,39,132,40,134
		c2,2,40-27,86-64c143-115,335-193,519-211l65-6l13-87c15-106,70-274,118-361c49-89,160-196,244-237c94-45,164-62,336-78
		c180-17,223-33,287-109c116-136,153-296,157-676c9-830,291-1700,777-2404c124-179,352-456,466-565L13675,13199.9z M34745,22515.9
		c244-52,442-124,715-261c228-113,441-240,878-523c185-121,405-260,487-309c545-328,1042-514,1503-564c284-30,706,16,826,90l32,20
		l125-125c457-463,969-834,1544-1121c292-147,563-257,1205-493c485-178,718-271,925-368c454-212,757-414,1021-678
		c180-181,235-280,241-433c4-80,1-109-19-177c-64-215-231-402-508-568c-472-282-1178-550-1829-695c-312-69-568-108-926-142
		c-274-25-995-22-1250,6c-560,62-1018,176-1336,336c-380,190-605,432-713,769c-74,230-88,356-106,967c-11,373-29,578-65,755
		c-88,431-261,739-708,1259c-279,325-516,580-821,885c-736,734-1234,1090-1771,1261c-167,54-160,46-84,82c103,49,180,61,359,56
		C34586,22541.9,34655,22534.9,34745,22515.9z"/>
	<path d="M20967,23645.9c-68-19-99-54-168-191c-237-468-439-718-844-1045c-319-258-529-485-671-727c-117-197-229-486-219-563
		c23-184,232-254,362-120c24,24,42,63,69,143c67,202,197,428,339,590c93,107,167,173,420,380c319,262,473,425,654,695
		c149,224,314,533,326,613C21258,23572.9,21120,23687.9,20967,23645.9z"/>
	<path d="M25603,22448.9c-73-36-123-112-123-185c0-78,220-538,354-739c104-157,280-335,410-414c214-132,415-181,741-181
		c199,0,343-13,499-46c307-64,552-156,946-354c108-53,214-101,237-104c51-9,118,8,162,41c91,69,96,240,9,319c-30,29-389,208-570,285
		c-448,191-846,279-1267,279c-188,0-300,13-386,44c-154,56-327,201-437,367c-73,109-163,282-239,455c-33,77-70,155-83,175
		C25807,22463.9,25688,22490.9,25603,22448.9z"/>
	<path d="M23982,21849.9c-45-11-109-55-125-87c-8-16-22-66-32-113c-37-185-127-353-259-485c-57-57-143-122-294-224
		c-242-163-341-240-428-333c-242-259-306-585-167-850c26-50,47-76,80-97c184-122,394,71,299,273c-34,71-40,117-26,178
		c35,151,143,263,441,461c112,73,228,153,257,176c268,213,442,490,507,806c23,112,6,192-52,247
		C24129,21852.9,24063,21868.9,23982,21849.9z"/>
</g>
</svg>
