<?xml version="1.0" encoding="utf-8"?>
<!-- Generator: Adobe Illustrator 24.2.3, SVG Export Plug-In . SVG Version: 6.00 Build 0)  -->
<svg version="1.1" id="a35929b8-7678-46e4-a866-33a3fb030d73"
	 xmlns="http://www.w3.org/2000/svg" xmlns:xlink="http://www.w3.org/1999/xlink" x="0px" y="0px" viewBox="0 0 1152 864"
	 style="enable-background:new 0 0 1152 864;" xml:space="preserve">
<path d="M863.6,514.2c-3.7-10.4-9.5-19.9-15.2-29.3l-18.3-30.2l-5.2-8.6c-1.3-2.2-3.4-4.8-3.6-7.4c-0.2-2.6,0.2-1.4,1.4-1.7h0.9
	c2.2,4.1,9.8,2.2,9.2-2.7c-1.9-16.6-7.2-32.6-15.6-47l3.2,0.9c3.9,1.4,6.7-2.7,6.1-6.1c-3.1-17.3-8.8-34.1-16.9-49.8
	c-2-4-4.2-7.9-6.5-11.8c-2.3-3.9-4.9-7.1-6.8-11c-0.8-1.3-1.2-2.7-1.2-4.2c0.1-0.3,0.1-0.5,0.2-0.6c0,0,0-0.1,0-0.1
	c-0.1,0-0.2-0.1,0.8-0.6c0.7-0.4,1.4-0.7,2.2-0.7h1c1.6,2.2,4.8,2.7,7,1.1c2-1.4,2.6-4.1,1.5-6.3l-1-1.4
	c-15.5-20.7-33.3-39.7-52.9-56.5c3.3-0.7,6.7-0.3,9.8,1.1c2.2,1.2,4.9,0.6,6.5-1.3c1.3-1.9,1.5-5-0.4-6.6
	c-24.7-21-54-36.3-85.1-45.6c-7.3-2.2-14.7-4.1-22.2-5.6c1.6-2.4,3.7-4.3,6.2-5.7c4.5-2.4,2.3-9.2-2.5-9.3
	c-34.9-0.9-69.7,4.8-102.6,16.7c-0.6-0.5-1.3-0.9-2-1.2c-17.5-5.7-35.8-8.7-54.2-9c-5.1,0-6.8,6.8-2.6,9.4l1.6,1l0.3,0.2l0.6,0.5
	l1.3,1.3c-22.7,0.9-45.7,2.2-67.8,7.9c-6.8,1.7-13.4,3.9-19.8,6.6c-2,0.8-3.8,2.4-3.7,4.8c0,2.2,1.5,4.2,3.7,4.8
	c2.7,0.7,5.3,1.6,7.9,2.5c-14.8,6.6-29,14.5-42.4,23.6c-16.2,10.8-31,23.5-44.2,37.7c-7.3,7.9-14.1,16.3-20.2,25.2
	c-1.4,2.4-0.5,5.5,1.8,6.8c1.2,0.7,2.6,0.8,3.9,0.5l1.4-0.3h1c1-0.1,2.1-0.2,3.1-0.1h1.1l0.6,0.2c-0.5,1.5-1.2,2.9-1.7,4.3
	c-1.2,2.9-2.2,5.9-3.1,8.9c-3.6,12-5.4,24.5-5.2,37.1c0.1,6,0.7,12,1.7,17.9c-23.6,22.2-43.7,47.8-59.8,75.9
	c-2.2,3.9-4.4,7.7-6.2,11.7c-1.8,4-3.2,10.4,1.2,14.2c2,1.9,5.1,1.9,7.1,0l0.9-0.8l0.4-0.3c-1.3,4.1-2.7,8.1-4.1,12.2
	c-3.2,9.1-6.7,18-10.1,27.1c-6.7,17.9-13,36.1-15.5,55.1c-1.4,10.6-1.4,21.3,0.2,31.9c0.3,1.9,2.4,3.4,4.1,3.6c2,0.3,4-0.6,5-2.4
	c0.7-1.3,1.5-2.5,2.4-3.6l0.6-0.7l0.6-0.8l1.4-1.5c0.4,23.9,2.6,48.1,11.1,70.6c2.9,7.6,6.4,14.9,10.6,21.8c2.3,3.9,7.7,2.8,9.1-1.2
	l2.7-7.4c0.5-1.3,0.9-2.5,1.4-3.7l0.6-1.8c0-0.1,0.1-0.2,0.1-0.4h0.2l2,0.8l7.7,3l30.9,12.1l17.7,6.9c1.5,0.5,3.2,0.1,4.4-0.9
	c1.2-1,1.9-2.4,1.9-3.9c0.1-1.1,0.3-2.2,0.4-3.2c10.1-1.5,20.2-2.8,30.4-4.4c5.5-0.8,10.6-2.4,14.6-6.4s6.3-7.9,9.1-12
	c3.1-4.4,5.6-9.1,7.5-14.1c0.8-2.2,1.4-4.5,1.7-6.9c0-0.4,0.1-0.9,0.2-1.3v-0.5l0.3-1.5c0-0.1,0.3-1.1,0.3-1.1
	c0.1-0.1,0.2-0.3,0.2-0.5c0.1-0.1,0.1-0.1,0.1-0.2h0.2c0.1-0.2,0.4-0.4,0.5-0.5l0.9-0.6l0.8-0.4h0.2l1-0.4c2.1-0.6,4.1-0.9,6.2-1.4
	c4.6-0.9,8.9-2.9,12.6-5.8c3.9-3,6.5-7.4,7.3-12.2c6.3,4,12.9,7.4,19.8,10.2c1.8,0.8,4.1-0.4,5.2-1.8c1.1-1.5,1.3-3.5,0.5-5.2
	c0-0.1-0.4-1.1-0.4-1.2c-0.2-0.6-0.4-1.1-0.5-1.7c-0.2-0.6-0.3-1.2-0.4-1.8c0-0.1,0-0.2-0.1-0.3v-0.3c-0.1-1.1-0.1-2.2-0.1-3.3
	c0.1-0.4,0.2-0.9,0.2-1.3s0.1-0.9,0.2-1.3c0.6-2.6-0.7-5.6-3.5-6.2c-2.6-0.7-5.4,0.9-6.1,3.5c-0.6,2.4-0.8,4.9-0.7,7.4l-1.1-0.6
	c-3.3-1.8-6.4-3.7-9.5-5.8c-1.5-1-3-2-4.4-3.1l-1.1-0.8l-0.2-0.2c-0.1,0-0.1,0-0.1-0.1l-0.8-0.6l-0.4-0.3l-0.9-0.7
	c-2.8-2.3-5.5-4.7-8-7.2s-5-5.1-7.4-7.8l-3.4-4L425,582v-0.2c-0.3-0.4-0.6-0.8-0.9-1.2c-4.3-5.6-8.2-11.5-11.8-17.6
	c-3.9-6.7-7.4-13.7-10.7-20.7c-0.9-1.6-2.5-2.5-4.3-2.5c-1.8,0-3.4,1-4.3,2.5c-1,1.5-1.9,3-2.6,4.6c-0.4-1.3-0.8-2.7-1.1-4.1
	l-0.6-3.2c-0.1-0.5-0.2-0.9-0.2-1.4c-0.1-0.3-0.1-0.7-0.1-1c-0.8-8.7-0.7-17.5,0.5-26.2c0.1-0.3,0.1-0.6,0.2-0.9v-0.7
	c0.1-0.3,0.1-0.6,0.2-0.9c0.1-0.3,0.4-2.5,0.6-3.7s0.8-4.6,1.4-6.9c1.1-4.6,2.5-9.2,4.3-13.6l0.2-0.5c0-0.1,0.1-0.1,0.1-0.2l0.7-1.6
	c0.5-1.1,1.1-2.2,1.7-3.3c0.9-1.8,1.9-3.6,3-5.3c1-1.6,2.2-3.2,3.3-4.7l0.3-0.4l0.9-1.1l2-2.3c1.6-1.7,3.2-3.3,5-4.9l2.5-2.1
	l0.6-0.5h0.1l1.4-1c3.9-2.8,8-5.1,12.4-7c2.4-1,3.1-4.7,1.8-6.8c-1.3-2.1-4.3-2.9-6.9-1.8c-16.1,6.9-29.2,20.2-36.6,36
	c-0.2-0.7-0.6-1.3-1.2-1.7c-2.9-2.3-5.6-5-8-7.9c0.1,0-0.2-0.3-0.4-0.5c-0.2-0.2-0.5-0.7-0.5-0.6l-1.5-2.3c-1-1.5-1.9-3-2.8-4.6
	c-0.9-1.6-1.5-2.9-2.2-4.4c-0.1-0.3-0.2-0.6-0.3-0.8c-0.1-0.3-0.2-0.6-0.4-0.9l-0.9-2.5c-1.1-3.2-2.1-6.6-2.8-9.9
	c-0.8-3.4-1.4-6.8-1.8-10.3c-0.1-0.1-0.1-0.4-0.1-0.5c-0.1-0.3-0.1-0.7-0.1-1l-0.3-2.7c-0.3-2.1-0.4-4.2-0.6-6.3
	c-0.7-8.3-1.3-16.7-2.5-25c-1.3-9.6-4.1-18.8-8.3-27.5c-0.9-1.5-2.5-2.4-4.3-2.4c-4.6,0.1-9.1,1.2-13.3,3.2c0-0.6-0.1-1.3-0.2-1.9
	c-0.3-3.2-0.5-6.5-0.6-9.7c-0.1-3.2,0.1-6.5,0.3-9.8c0.1-1.6,0.2-3.3,0.4-4.9c0.2-1.6,0.3-2.1,0.6-4c1-6.5,2.6-12.9,4.6-19.2
	c1.1-3.1,2.4-6.1,3.6-9.2c1.2-3.1,0.8-7.4-1.8-10c-1.7-1.6-3.9-2.7-6.2-3.1v-0.2l0.6-0.7l1.2-1.5c2.8-3.6,5.7-7.1,8.7-10.4
	c6.3-7,13-13.6,20-19.8c3.5-3.1,7.2-6.2,10.9-9.1l0.6-0.5l0.5-0.3l0.2-0.2l0.8-0.6l2.9-2.2l5.8-4.2c8-5.5,16.3-10.6,24.8-15.3
	c4.8-2.6,9.6-5.1,14.5-7.5l7.8-3.5l1.8-0.8l0.9-0.4h0.2l4.2-1.7c1.9-0.6,3.3-2.2,3.6-4.1c0.3-2-0.6-4-2.4-5l-6.7-3.1
	c7.1-2.1,14.3-3.7,21.6-4.9c6.2-1.1,11.2-1.7,17.7-2.3c6.5-0.6,12.6-1.1,18.9-1.4l21.3-0.9c2.8-0.1,5-2.4,5-5.2
	c0-0.4-0.1-0.8-0.2-1.2c-0.5-1.8-1.2-3.5-2.1-5.1h1.2l6.5,0.7l2.6,0.4l3.4,0.5c8.7,1.5,17.3,3.6,25.7,6.4c0.8,0.2,1.7,0.2,2.5,0
	c1.2,1.2,3,1.7,4.6,1.1c28.2-10.2,57.8-15.7,87.7-16.3c-1.4,2.3-2.3,4.8-2.7,7.4c-0.4,2.5,0.6,5.7,3.5,6.2
	c31.2,5.7,61.3,17.1,87.8,34.5c2.8,1.8,5.4,3.7,8.1,5.6c-3.4,0.9-6.5,2.5-9.2,4.7c-1.9,1.6-1.9,5.5,0,7c18.9,15.5,36.1,32.9,51.3,52
	l-1.4,0.6c-7.5,4.3-7,13-3.4,19.8c1.9,3.5,4.3,6.8,6.4,10.2s4.2,7.2,6.1,10.9c3.7,7.1,6.9,14.4,9.5,22c2.2,6.2,4,12.5,5.5,18.9
	c-2.8-0.1-5.6,0.1-8.4,0.6l-0.5,0.2c-6.5-2.8-13.4-4.5-20.5-5.1c-5.2-0.5-11.4-0.9-15.3,3.3c-1.6,1.9-3,4-4.1,6.3
	c-1.2,2.1-2.3,4.3-3.4,6.5c-2.2,4.7-4.2,9.5-6.2,14.3l-2.7,6.7c-0.2,0.6-0.5,1.2-0.7,1.7c-0.2,0.2-0.3,0.5-0.4,0.8l-1.5,3.6
	c-1.8,3.9-3.7,7.7-5.9,11.4c-1,1.7-2,3.4-3.2,5l-1.7,2.5c-0.2,0.3-0.9,1.5-0.4,0.5c-0.2,0.4-0.5,0.8-0.9,1.1
	c-2.9,3.6-6.3,6.9-9.9,9.8v0.2l-0.6,0.4l-1.4,1l-3,1.9c-1.7,1-3.6,1.9-5.4,2.8l-0.4-0.5c-4.9-5.4-10.4-10.1-16.5-14
	c-8.2-5.3-17.2-9.5-26-13.9c-2.3-1.2-5.5-0.7-6.8,1.8s-0.7,5.6,1.8,6.9c7.9,3.9,15.9,7.7,23.5,12.3l4.1,2.6l1.9,1.3l1,0.8h0.1
	c2.6,2.1,5.1,4.3,7.5,6.7c2.9,3,5.5,6.1,8.1,9.2l2.1,2.6l1.2,1.4l0.5,0.7l0.6,0.8l0.4,0.5l0.5,0.7l1.2,1.7c0.7,1.1,1.4,2.2,2,3.3
	s1.2,2.1,1.7,3.2c0.1,0.2,0.2,0.4,0.2,0.4v0.2l0.6,1.7c0.7,2,1,4,1.5,6c-0.4-1.6,0,0,0,0.5c0.1,0.4,0.1,0.9,0.1,1.3v3.1
	c0,0.9-0.1,1.8-0.2,2.7c0,0.2,0,0.3-0.1,0.5l-0.3,1.8c-0.9,4.7-2.2,9.4-3.7,14l-2.6,8c-3.7-3.6-7.7-6.9-11.9-9.9
	c-2.5-1.7-6.9-0.1-7.4,3c-1,7.3-2.5,14.6-4.5,21.7c-0.9,3.6-2,7.1-3.3,10.5c-0.6,1.8-1.3,3.5-2,5.3c-0.2,0.4-0.4,0.9-0.5,1.3
	c-0.1,0.2-0.1,0.3-0.2,0.4s-0.7,1.7-1.1,2.5c-3.1,6.9-6.8,13.6-11.1,19.8l-3.2,4.5l-0.4,0.4l-0.8,1l-2,2.4c-2.4,2.9-5,5.6-7.8,8.2
	c-1.6,1.6-3.3,3.1-5,4.5l-2.4,1.9l-0.8,0.6l-1.3,1c-3.8,2.7-7.7,5.1-11.7,7.3c-2.4,1.4-3.2,4.4-1.8,6.8c1.4,2.4,4.4,3.2,6.8,1.8
	c9.3-5.1,17.9-11.5,25.4-19c0.6,0.9,1.2,1.8,1.9,2.6c3.5,4.3,7.3,8.3,11.4,12c1.9,1.6,3.6,3.5,5,5.6c1.3,2.6,1.9,5.4,1.8,8.3
	c-0.1,6.9-2.3,13.6-4,20.2c-1,4.1-2,8.5-0.9,12.7s4.2,7.1,7.4,9.8c5.9,5.1,12.2,10,19.7,12.4c9.7,3.1,18.9,0,28.5-1.3
	c3.5-0.6,7.1-0.3,10.5,0.9c1.3,0.5,2.5,1.2,3.5,2.2l0.7,0.8c0,0.1,0.1,0.5,0.1,0.4c-0.6,3.3,2.2,7.6,6.1,6.2l23.7-9.5
	c1.5-0.6,3.2-1.5,4.9-1.4c-0.2,0,0.3,0.2,0.9,0.7s3,3.2,4.5,4.5c2.1,2,4.7,3.3,7.6,3.7c3.8,0.3,6.2-2.9,8.7-5.4
	c4.7-4.9,8.9-10.1,12.8-15.6c14.6-20.5,22.3-45,22.2-70.1c-0.1-5.8-0.7-11.6-1.6-17.4c0,0.2,0.1,0.3,0.2,0.5c1.3,2.1,4,3,6.3,2
	c2.2-1,3.5-3.5,2.9-5.9c-1.6-10,2-20.1,4-29.8S867.2,524.6,863.6,514.2z M333.8,306c0.1-0.1,0.3,0,0.5,0H333.8z M439.6,611.4
	C439.3,611.1,439.4,611.2,439.6,611.4L439.6,611.4z M335.7,380l0.7-0.6l0.2-0.2l1.6-1.1l1.9-1.1l0.9-0.4h0.4c1.3-0.5,2.6-0.9,4-1.2
	l0.7-0.2c0.3,0.9,0.7,1.6,1,2.5c0.3,0.9,1.4,3.9,2,6c1.1,3.9,2,7.8,2.6,11.8c0.2,1,0.3,1.9,0.5,2.9s0.1,1,0.1,1s0.1,1,0.2,1.6
	l0.6,6.3c0.4,4,0.7,8.1,1,12.1c1.3,14.9,3.4,29.8,10.2,43.3c3.7,7.5,9.1,14.2,15.6,19.5c1.5,1.3,3.6,1.7,5.5,1.1
	c-2.8,7.4-4.7,15.1-5.8,22.9c-1.5,9.4-2,18.9-1.5,28.4c0.8,10.9,3.7,21.5,9.9,30.6c1.2,1.7,3.4,3,5.6,2.3c2.2-0.6,3.7-2.6,3.7-4.9
	c-0.1-1.5,0-2.9,0.1-4.4c0,0,0-0.1,0-0.1c0,0,0,0,0,0c0,0,0,0,0-0.1c0-0.1,0-0.1,0-0.2c0-0.2,0.1-0.5,0.2-0.7
	c4.8,9.5,10.3,18.6,16.6,27.2c7.2,9.9,15.6,18.9,25.1,26.7l0.3,0.4c0.1,0.1,0.1,0.2,0.1,0.4c0.2,0.4,0.3,0.9,0.4,1.3
	c0.1,0.3,0.1,0.6,0.1,0.9c0.1,0.6,0.1,1.1,0.1,1.7v0.6l-0.3,1l-0.3,1.1c0,0.2-0.1,0.3-0.2,0.4c0.1,0,0.1-0.1,0.2-0.2l-0.2,0.3
	c0,0.1-0.1,0.1,0,0.1c-0.4,0.7-0.8,1.3-1.2,1.9c-0.1,0.2-0.3,0.4-0.3,0.5l0.2-0.2l-0.8,0.9l-0.9,0.8l-0.8,0.7l-1.9,1.3l-1.2,0.6
	h-0.3l-0.6,0.3c-1.9,0.6-3.9,1.1-5.9,1.5c-4.2,0.9-8.5,1.9-11.9,4.8c-1.9,1.8-3.3,4.1-3.9,6.6c-0.3,1.1-0.4,2.1-0.6,3.2
	c0,0.4-0.1,0.9-0.2,1.3v0.2l-0.3,1.9c-0.3,1.1-0.6,2.2-1,3.3c-0.2,0.5-0.4,1-0.5,1.5c-0.1,0.1-0.2,0.3-0.2,0.5
	c-0.1,0.2-0.2,0.4-0.3,0.6c-1,2.2-2.1,4.3-3.4,6.3c-1.3,2.1-2.7,4.1-4.1,6.1l-2.2,3l-0.9,1.3l-0.4,0.5c-0.1,0.1-0.1,0.1-0.1,0.2
	c-0.6,0.8-1.3,1.5-2,2.2l-1.2,1.2l-0.9,0.6l-1.4,0.7c-0.5,0.3-0.2,0.1-0.1,0l-0.8,0.3c-1.2,0.4-2.5,0.7-3.8,0.9
	c-5.8,1.1-11.7,1.7-17.5,2.6l-18.2,2.6c-2.3,0.3-3.4,2.8-3.7,4.8v0.6l-28-11l-17.2-6.8c-5.2-2-12.8-6.5-17.4-1.2
	c-1.9,2.1-2.7,5-3.6,7.6c-9.9-20.3-13.6-43-14.7-65.5c-0.4-7.6-0.5-15.2-0.4-22.8c0-3.6-4.3-6.4-7.5-4.3c-2.8,1.8-5.5,3.9-7.9,6.2
	v-2.5c0-4.8,0.4-9.7,1-14.5c0,0,0,0,0-0.2c0-0.1,0-0.1,0-0.1c0-0.2,0.1-0.6,0.1-0.8l0.3-1.6c0.2-1.3,0.4-2.5,0.7-3.8
	c0.3-1.3,0.9-4.9,1.5-7.3c1.1-4.8,2.5-9.5,3.9-14.3c6-19.5,14.2-38.3,20.7-57.6c0.9-2.7,1.8-5.4,2.6-8.1c0.8-2.7,1.5-7.2-1.5-9.8
	c-2.2-1.9-5.2-2.8-8.1-2.4c1.7-3.3,3.5-6.6,5.4-9.8c3.8-6.8,7.9-13.4,12.3-19.8c8.7-12.8,18.2-24.9,28.7-36.3
	c5.6-6.1,11.4-11.9,17.4-17.6L335.7,380z M335.3,305.5c-0.1-0.2-0.1-0.3,0-0.2V305.5z M727.9,480.9L727.9,480.9
	C727.9,480.9,727.9,480.8,727.9,480.9z M683.8,590.3C683.7,590.1,683.7,589.9,683.8,590.3L683.8,590.3z M856,538.7
	c-1.1,7.9-3.4,15.6-4.6,23.4c-2.5-2.9-5.2-5.7-8.1-8.3c-1.7-1.5-4.1-1.9-6.1-0.8c-1.7,1-3.1,3.7-2.3,5.7
	c13.5,31.5,9.6,67.7-8.6,96.9h0c-4.9,7.8-10.7,15-17.3,21.5c-0.1,0-0.1,0-0.1-0.1c-1.1-1-2.1-2.2-3.1-3.2c-2.6-2.8-5.9-5-9.9-5
	s-10.4,3.1-15.1,5l-10.8,4.3c-2-3.5-5.8-6.1-10-7.6c-8-3-16.2-0.9-24.2,0.6c-4.1,0.8-8.3,1.3-12.3,0.4c-3.7-0.8-7.1-2.4-10.2-4.6
	c-2.9-2-5.7-4.2-8.4-6.6c-1.3-1.1-2.9-2.3-3.6-3.8s-0.5-3.5-0.1-5.2c3-14.1,9.7-30.3-0.8-43c-3.5-4.2-8-7.6-11.7-11.6
	c-1.7-1.7-3.2-3.5-4.5-5.5l-0.2-0.3c0.1,0.1,0-0.4-0.1-0.6v-0.2l0.3-0.5l1.2-1.1l1.1-0.9l0.9-0.7c2.2-1.4,4.3-3,6.4-4.6
	c4.1-3.6,5.1-8.3,2.6-12.6c4.8-9,8.7-18.4,11.6-28.2c1.7-5.6,3-11.3,4.1-17l2.2,1.9c2.7,2.6,5.2,5.3,7.6,8.2c2.4,3,7.5,1.2,8.3-2.2
	c2.5-9.6,6.2-18.9,8.3-28.6c1.1-4.2,1.5-8.6,1.4-13c-0.3-5-1.4-9.9-3.5-14.4c-2.3-5.2-5.6-9.6-9.1-14l-1.6-2
	c14.1-6.9,24.5-19.6,31.6-33.5c2.2-4.4,4.2-9,6.1-13.6c0.9-2.1,1.8-4.3,2.6-6.5s1-2.2,1.4-3.3l0.6-1.5l0.4-0.8V401
	c1.9-4.4,3.9-8.7,6.2-12.9c0.5-1,1.1-2,1.7-3c0.2-0.5,0.5-1,0.8-1.5c0.1,0,0.2-0.2,0.3-0.4h0.1l0.2-0.3h3.4l4,0.2l1.7,0.2h1.1
	c2.5,0.4,5,0.9,7.5,1.6c1.3,0.3,2.6,0.7,3.8,1.2l1.8,0.7l0.8,0.3h0.2c1.4,0.6,2.9,1.3,4.2,2.1c7.5,11.7,12.6,24.7,15.3,38.3
	c-0.6,0-1.2,0.1-1.7,0.3c-5.1,1.1-8.7,5.7-8.7,10.9c0,6.3,4.5,12,7.6,17.1c3.1,5.1,6.9,11.6,10.4,17.3c6.6,10.9,13.6,21.6,19.5,32.8
	C854.5,517.1,857.7,527,856,538.7z"/>
<path d="M517.5,301c-10.4-6.6-21.5-12.2-33.4-15.3c-11.1-2.8-22.5-3.7-33.9-2.5c-7.4,0.8-14.8,2.2-22,4c-4.8,1.1-4.8,8.4,0,9.6
	c5.7,1.4,11.3,3.2,16.7,5.4l0.8,0.3c0.1,0,0.1,0,0.1,0.1h0.1l1.1,0.5c-7.9,1.7-15.6,4.1-23,7.2c-9.8,4.2-18.5,10.7-24.2,19.8
	c-3.3,5.4-5.7,11.4-7,17.6c-0.4,2.6,0.7,5.6,3.5,6.2c1.7,0.3,3.4-0.1,4.7-1.1c-2.6,4.6-4.8,9.4-6.7,14.4c-2.5,6.4-4.2,13.1-5,20
	c-0.8,7.3-0.1,15.2,4,21.4c1.5,2.2,4.5,3.3,6.9,1.8c2.4-1.5,3.3-4.5,1.8-6.8l-1.2-1.9c0-0.1,0-0.2-0.1-0.2c0,0-0.1,0-0.1-0.2
	c-0.1-0.2-0.1-0.3-0.1-0.5v-0.2c-0.5-1.5-0.9-3-1.2-4.5c0-0.4,0-0.7-0.1-1.1c0-0.9-0.1-1.8-0.1-2.6c0-1.6,0.1-3.3,0.3-4.9
	c0-0.3,0.1-0.7,0.1-1s0-0.3,0.1-0.4c0.1-0.1,0.3-1.8,0.4-2.7l1.2-5c1-3.3,2.1-6.6,3.4-9.8c0.1-0.4,0.2-0.8,0.4-1.1
	c0-0.1,0.1-0.2,0.1-0.3l1-2.2l1.8-3.9c1.1-2.1,2.2-4.1,3.5-6.1c0.2-0.4,0.5-0.8,0.8-1.1v-0.2l0.2-0.3h0.1c1.3-0.7,2.3-1.9,2.7-3.3
	c0.6-2.5-0.6-5-2.9-6.1c-2.3-1.1-4.9-1.7-7.5-1.7l0.6-1.5l0.4-1c0.5-1.1,1.1-2.1,1.7-3.2l2-3.1c0.2-0.4,0.5-0.8,0.8-1.1l0.6-0.7
	c1.5-1.8,3.2-3.4,5-4.9l1.1-1l0.9-0.6l2.9-2c2.2-1.3,4.4-2.4,6.6-3.5l1.7-0.7l1.1-0.4l3.7-1.4c2.7-0.9,5.4-1.8,8.2-2.5
	c6.9-1.9,14-3.3,21.1-4.6c2-0.3,3.4-2.4,3.6-4.1c0.3-2-0.6-4-2.4-5c-4.8-2.9-9.7-5.4-14.9-7.6c5.1-0.5,10.3-0.7,15.4-0.5
	c1.3,0.1,2.7,0.1,4,0.3l1.8,0.2h1.2l7.8,1.5c2.6,0.6,5.1,1.4,7.7,2.2l3.9,1.4l1.7,0.8c0.1,0,0.4,0.1,0.6,0.2l0.7,0.3
	c6.3,2.8,12.3,6.1,18.1,9.8c2.4,1.4,5.5,0.6,6.9-1.8C520.6,305.4,519.8,302.4,517.5,301z M407.7,344.6l-0.7,0.3l-0.5,0.4
	C407.6,343.3,408.2,344.2,407.7,344.6z M405.7,352.4C404.5,352.3,405.2,352.3,405.7,352.4L405.7,352.4z"/>
<path d="M663,290.1l1.2-0.2h0.5l2.3-0.2l5.4-0.5c3.3-0.2,6.7-0.2,10,0l2.1,0.2h1.1l4.4,0.9l4.2,1.2c-5.3,1.8-10.1,5-13.8,9.3
	c-1.9,2-1.9,5.1,0.1,7.1c0.6,0.6,1.3,1,2.1,1.2l2.6,1.1l0.6,0.2l1.4,0.6l5.1,2.5c3.3,1.7,6.5,3.7,9.6,5.8l2.2,1.6l0.2,0.2h0.2l1.2,1
	c1.4,1.1,2.8,2.3,4.2,3.6c2.3,2.2,4.5,4.5,6.6,7c-0.8,0.1-1.6,0.3-2.3,0.6c-3.7,1.3-6.3,4.8-6.4,8.7c0,3.6,2.2,6.7,4.4,9.3l2.7,3.2
	l1.4,1.6l0.9,1.2c1.6,2.3,3.1,4.7,4.5,7.2c0.7,1.2,1.3,2.4,1.8,3.7c0.3,0.5,0.6,1.1,0.8,1.7c0.1,0.4,0.3,0.7,0.5,1.1
	c1,2.7,1.8,5.4,2.5,8.1c0.3,1.5,0.6,2.9,0.8,4.3c0,0.1,0,0.3,0.1,0.4c-0.1,0-0.1,0-0.1-0.1c0.1,0.4,0.1,0.8,0.2,1.2
	c0,0.8,0.1,1.5,0.2,2.3c0.2,3.1,0.1,6.1-0.2,9.2c-0.2,2.6,2.5,5.1,5,5c2.7-0.1,4.9-2.3,5-5c0.9-10.8-0.9-21.6-5.3-31.5
	c-2-4.8-4.6-9.2-7.7-13.4c-1.7-2.3-3.6-4.5-5.5-6.7l-0.7-0.8H719l-0.9-1.4h1.7l1,0.2l1.7,0.5l1.2,0.4l0.3,0.2l1.1,0.5
	c1.9,0.9,4.5,0.9,6-0.8c1.6-1.6,1.9-4.1,0.8-6.1c-7.6-13.7-19.7-24.7-33.4-32.2l-5.1-2.6l0.5-0.3l1.4-0.7l0.7-0.4l0.3-0.2
	c1.9-0.8,3.9-1.4,5.9-1.7l1.6-0.3h4.4c4.3,0.1,6.7-5.5,3.6-8.5c-9.6-9.2-23.7-12-36.5-11.6c-7.5,0.3-14.9,1.2-22.3,2.6
	c-6.1,1-12.1,2.3-18,4c-6.6,2-13.1,5-18,10c-2,2-2,5.1,0,7.1c2,2,5.1,2,7.1,0c0.4-0.5,0.8-0.9,1.3-1.3l0.8-0.7
	c0.1-0.1,0.2-0.1,0.2-0.2c1-0.7,2-1.4,3.1-1.9l3.5-1.7h0.2l0.7-0.3l2.3-0.8c5.4-1.7,11-3,16.6-3.9L663,290.1z M717.9,342.1
	L717.9,342.1c0-0.1,0-0.1-0.1-0.2C717.9,342,717.9,342,717.9,342.1z"/>
</svg>
