<?xml version="1.0" encoding="utf-8"?>
<!-- Generator: Adobe Illustrator 24.2.3, SVG Export Plug-In . SVG Version: 6.00 Build 0)  -->
<svg version="1.1" id="f05596f1-409b-4614-99b5-5d95d212e013"
	 xmlns="http://www.w3.org/2000/svg" xmlns:xlink="http://www.w3.org/1999/xlink" x="0px" y="0px" viewBox="0 0 1152 864"
	 style="enable-background:new 0 0 1152 864;" xml:space="preserve">
<path d="M1008.1,324.6c-1.3-6.5-2.8-12.9-3.5-19.4s-0.8-11.8-1-17.7c-0.4-10.7-0.8-21.9-4.7-32c-2-5.3-5-10.1-8.8-14.3
	c-4.2-4.2-9.5-7.4-14.7-10.2c-22.3-11.9-47.5-14.6-72-18.6c-12.4-2.1-24.8-4.5-36.6-8.8c-6.2-2.2-12.2-4.9-18.2-7.5
	s-11.4-4.8-17-7.4c-11.4-5.3-22.6-11.6-32.2-20s-19.6-16.2-31.3-21.4s-24.7-7.8-37.4-5c-11.6,2.6-21.9,9.5-28.7,19.3
	c-2.5,3.5-4.5,7.3-5.9,11.3c-2.5-1.1-5.1-1.9-7.7-2.4c-9.6-1.6-19.4-0.4-28.4,3.3c-2.9-2-5.9-3.8-9.1-5.2c-9.2-4-19-6.3-29-7
	c-5.3-0.4-10.6-0.3-15.8-0.4s-10.7-0.3-16.1,0c-5.6,0.4-11.1,1-16.6,2l-7.8,1.3l-1.8,0.3h-1.4l-3.8,0.4c-5.4,0.4-10.8,0.2-16.1,0.3
	s-10.2,0.5-15.3,1.1c-7.2,0.7-14.3,2.3-21.2,4.6c-10.1-5.2-22.2-5.1-32.8-1.4l-3.9,1.5c-2.2-10.6-8-20.1-16.4-27
	c-9.6-7.8-21.3-11.3-33.6-9.2s-23,9-32.8,16.1s-20.3,15.7-31.1,22.6c-21.3,13.6-45.8,25.7-71.4,27.6s-51.4-3.3-76.7,2.6
	c-12.2,2.8-23.6,8.6-33.2,16.7c-8.6,7.7-15.5,17-20.4,27.4c-2.5,5.2-4.6,10.7-6.1,16.3c-1.6,6.1-2.4,12.3-3.4,18.4
	c-2,13-3.8,26-2.8,39.1s4.9,26.2,8.7,38.9s7.9,24.7,12.5,36.8c9.4,24.2,20.7,47.7,33.8,70.1c6.5,11,13.4,21.8,20.7,32.3
	s15.9,20.6,22.6,31.6s9.6,22.4,11,34.8s1.8,25.6,4.1,38.2c1,6.1,2.8,12.1,5.1,17.9c1.3,3.1,5.7,5.5,8.4,2.2
	c21.7-26.3,33.9-58.5,40.2-91.7c3.2-17,5.3-34.2,6.5-51.5c1.2-17.4,2-34.9,2-52.4c-0.1-35.6-3.3-71.8,4.1-106.9
	c1.7-8.5,4.2-16.9,7.4-25c2.8-7.3,6.7-15.7,11.1-21.5s10.5-10.5,16.1-15.1s11.7-9.1,16.7-14.5c3-3.2,5.6-6.8,8.3-10.2l10.1-12.6
	c5.8-7.2,11.5-14.5,17.7-21.5c10.8-12,25.1-24.4,42.4-23.5c2.4,0.1,4.8,0.6,7.1,1.4l-6.2,6.6l-2.1,1.9l-0.9,0.8h0.1l-0.2,0.2h-0.2
	l-0.3,0.3L446,191l-0.5,0.3h-0.6l-0.6,0.2h-0.8c0.2,0.1,0.1,0.1-0.2,0.2h-0.7l-3.7,0.3c-2.5,0.3-5,0.7-7.4,1.4
	c-8.5,2.7-15,8.4-20.3,15.4s-9.3,15.1-14.1,22.5c-1.4,2.4-0.6,5.4,1.8,6.8c2.4,1.3,5.4,0.5,6.8-1.8c4.2-6.4,7.7-13.3,12-19.6
	l1.5-2.2l0.3-0.4c0.4-0.3,0.7-0.7,1-1.1c1.2-1.4,2.4-2.7,3.7-4l1.9-1.6h0.4l1.2-0.8l2.3-1.4l1.3-0.7l0.6-0.3
	c0.4-0.1,0.8-0.3,1.2-0.5l1.4-0.4l3.2-0.8l1.4-0.2h0.7l3.4-0.2c4.6-0.5,9-2.5,12.5-5.6c3-2.4,5.5-5.4,8.2-8.2
	c1.4-1.5,2.8-2.9,4.3-4.3c0.4-0.3,0.7-0.6,1-0.9l0.4-0.2c0.8-0.6,1.7-1.1,2.6-1.6l1.5-0.7l0,0l1.2-0.5l4.1-1.3
	c1.4-0.4,2.8-0.7,4.3-0.9l0.8-0.2h0.3l2.3-0.2h5.7c-6.8,3.9-13,8.6-19.4,13.2c-3.8,2.8-7.7,5.6-11.8,8.1c-2.1,1.2-4.2,2.5-6.4,3.6
	l-3,1.4l-0.9,0.4h-0.2l-1.8,0.7c-2.3,0.8-4.6,1.5-7,2c-2.7,0.7-4.3,3.5-3.5,6.2c0.7,2.7,3.5,4.3,6.1,3.5c19.6-4.3,33.9-19,50.4-29.1
	c2.1-1.2,4.1-2.4,6.3-3.5l3-1.4l0.8-0.4h0.1l2.1-0.8c4.7-1.8,9.5-3.1,14.4-3.9l3.5-0.5l0.8-0.2h0.1l2.2-0.2l7.5-0.7
	c5.3-0.3,10.5-0.3,15.8-0.3c5.4-0.1,10.8-0.6,16.2-1.5l7.8-1.3l3.9-0.6l1.9-0.3h0.1l1.2-0.2c5.3-0.6,10.6-0.9,15.9-0.7
	c5.4,0.2,10.8,0.1,16.2,0.2c2.6,0,5.1,0.1,7.7,0.4l3.3,0.3h1.7l1.1,0.2c4.7,0.7,9.3,1.8,13.7,3.4l1.6,0.6l0.8,0.3h0.2l0.6,0.2
	l0.6,0.3l1.9,0.9c2.1,1.1,4.2,2.3,6.2,3.6l2.7,1.9l1.1,0.8l0.3,0.2l0.9,0.7l5.3,4.6c13.9,12.7,26.7,28.8,45.8,33.6
	c2.6,0.7,5.2,1.1,7.9,1.2c2.8,0,5-2.2,5-5c-0.1-2.7-2.3-4.9-5-5h-1.6l-1.1-0.2c-1.2-0.2-2.3-0.4-3.4-0.8l-3.4-1l-1.3-0.5l-1.1-0.6
	c-2.1-1-4.2-2.1-6.2-3.4l-3-1.9l-1.3-1l-0.6-0.4l-0.2-0.2c-7.4-5.8-13.8-12.6-20.6-19.1l-4.9-4.5c1.4-0.3,2.8-0.7,4.3-0.9h0.8
	l1.2-0.2l3.4-0.2c2-0.1,4,0,6,0.3h0.6l1.3,0.3c1.1,0.2,2.1,0.5,3.1,0.9l1.2,0.4l0,0l0.5,0.3l2.5,1.3l1.2,0.8h0.2l2.1,1.9
	c1.3,1.2,2.5,2.6,3.6,4.1c-0.7-1.1,0.1,0.2,0.3,0.4c0.2,0.3,0.4,0.7,0.7,1c0.7,0.9,1.2,1.7,1.8,2.6s2.2,3.1,3.4,4.6
	c2.4,3.4,5.2,6.5,8.4,9.3c2.8,2.3,5.7,4.7,8.4,7.2l7.4,7.2c6.9,6.8,14.5,12.9,22.6,18.1c2.3,1.4,5.3,0.6,6.7-1.7
	c0,0,0.1-0.1,0.1-0.1c1.4-2.4,0.6-5.4-1.8-6.8c-2.1-1.3-4.1-2.7-6.1-4.2l-2.6-1.9l-0.8-0.6l-1.3-1.1c-3-2.5-5.8-5-8.6-7.7
	c-5.3-5.1-10.3-10.3-16.1-14.8c-1.6-1.2-3-2.6-4.4-4l-1.9-2.2l-0.9-1.2l0,0l-0.5-0.6c-2.5-3.3-4.8-6.8-7.4-10.1
	c6-0.9,12.3,0.5,17.7,2.9c8,3.6,14.7,9.5,20.5,16s10.7,13.7,15.5,20.9s8.4,15.6,12.3,23.6s6.8,13.1,12.2,18.5s10.8,9.4,16.3,13.9
	s10.7,8.8,15.2,14c0.7,0.8,1.4,1.7,2,2.6c1,1.6,1.8,3.3,2.6,5c1.8,3.9,3.3,7.9,4.5,12c10.5,34.9-0.7,71.2-7.9,105.6
	c-3.9,18.5-6.3,37.4-6.9,56.3c-0.4,18.1,0.5,36.2,2.9,54.2c4.7,36,15,71.6,33.8,102.8c2.3,3.8,4.7,7.5,7.2,11.1c2,2.9,6.8,3.6,8.6,0
	c12.1-22.9,10.2-49.6,19.3-73.5c2-5.3,4.9-10.3,8.6-14.6c3.9-4.4,8.2-8.4,11.8-13.1s6-11,8.6-16.7s6.3-13,9.6-19.4
	c12.8-24.9,27.3-48.8,42.2-72.5l22.1-34.9l10.9-17.3c3.6-6,7.8-11.8,10.1-18.4C1012.8,350.4,1010.5,337,1008.1,324.6z M415.7,181.4
	c-14.7,11.5-25.7,27.3-37.3,41.7c-5.5,6.9-10.6,14.2-17.2,20.1s-12.1,10-18.1,15.1c-6,5.1-10.9,10.1-14.7,16.7
	c-4.7,7.9-8.5,16.2-11.5,24.9c-12.1,34.5-10.9,71.8-10.2,107.7s0,70.8-5,105.7s-13.8,66.9-33.2,94.9l-2,2.8
	c-5.7-20.5-3.5-42.7-9.1-63.4c-3.4-12.5-10.1-23.1-17.7-33.4s-15-20.2-21.9-30.8c-27.5-41.9-48.1-87.9-61.3-136.3
	c-1.8-6.4-3.3-12.9-4.5-19.4c-0.8-6-1.1-12.1-0.8-18.1c0.6-12.6,2.3-25.1,4.9-37.4c4.2-20.7,16.4-41,35.4-51.3
	c22.1-12.1,47.4-9.5,71.7-8.9c12.7,0.3,25.6-0.1,38.1-2.9s24.8-8,36.3-13.6c11.4-5.6,22.3-12.2,32.7-19.5
	c10.1-7.2,19.6-15.4,30.2-22c9-5.6,19.6-10.8,30.5-9.1s18.9,8.6,24,17.3c1.5,2.3,2.6,4.8,3.4,7.4
	C443.6,165.7,427.6,172.2,415.7,181.4z M1000.8,350.5c-0.4,5.6-2.1,11-5.1,15.7c-3.5,5.8-7,11.6-10.6,17.4l-21.6,34
	c-14.6,23.1-29.1,46.3-42.2,70.4c-6.5,11.9-12.6,23.9-18.2,36.2c-2.5,5.5-4.8,10.5-8.8,15s-7.6,7.9-11,12.2
	c-7.6,9.7-11.1,22.3-13.5,34.2s-3.8,24.5-7,36.4c-0.7,2.8-1.6,5.5-2.6,8.2c-17.7-28.3-28.1-60.5-33.4-93.4c-2.8-18-4.2-36.3-4-54.5
	c0-18.9,1.9-37.8,5.7-56.4c7.1-35.8,19-72.9,10.3-109.6c-1-4.5-2.4-8.9-4.1-13.2c-1.4-4-3.2-8-5.3-11.7c-3.6-5.7-8.9-10.3-13.9-14.6
	s-11.7-9.5-17.3-14.5c-2.4-2.1-4.7-4.3-6.8-6.7l-0.9-1l-1-1.5c-1.3-1.9-2.4-4-3.5-6c-4.4-8.2-7.7-16.8-12.4-24.7
	c-4.6-7.8-9.9-15.3-15.6-22.3c-11.3-14-27.4-27.1-46.4-26.6c-1.7,0-3.4,0.2-5.1,0.5c3.3-7.9,9.3-14.4,16.8-18.4
	c9.8-5.4,21.4-5.5,31.9-2.4s21.9,9.7,31,17.2c5,4.1,9.7,8.6,15,12.4c5,3.6,10.2,6.8,15.6,9.7c11,5.9,22.6,10.5,34.1,15.4
	c11.4,5,23.3,8.8,35.5,11.5c23.7,4.9,48.4,6.2,71.3,14.6c5.3,1.9,10.5,4.3,15.4,7.2c4.5,2.6,8.9,5.4,12.1,9.6
	c5.8,7.8,7.2,17.9,7.9,27.3c0.8,11.7,0.7,23.2,2.6,34.8S1001.6,337.8,1000.8,350.5L1000.8,350.5z"/>
<path d="M631.3,199.6c-2.5-0.8-5.1-1.8-7.6-2.8l-0.5-0.2l-0.5-0.3l-1.9-0.8l-3.6-1.7c-4.8-2.4-9.5-5.1-14-8
	c-4.5-2.9-8.9-5.8-13.8-7.8c-5.5-2.1-11.4-2.5-17.1-1.1c-5.8,1.2-11.2,3.8-16.6,6.1l-15.8,7c-11.8,5.4-23.4,11.2-34.8,17.4
	c-2.4,1.4-3.2,4.4-1.8,6.8c1.4,2.4,4.5,3.2,6.9,1.8c9.8-5.3,19.8-10.3,30-15.1l15-6.9l3.8-1.6l1.8-0.7l0.8-0.4h0.3l0.3-0.2
	c2.5-1,5-2.1,7.6-3l3.8-1.2l1.8-0.4l0.9-0.2h0.4l3.7-0.2c0.3,0,2,0.1,0.8,0.1c0.7,0,1.4,0.2,2,0.4l3.3,1l0,0l0.9,0.3l1.7,0.9
	c2.1,1.1,4.2,2.4,6.2,3.8c4.3,2.8,8.7,5.6,13.2,8c4.8,2.5,9.8,4.8,14.9,6.7c5,2,10.2,3.4,15.3,5.1l1.8,0.6l0.7,0.3h0.3
	c1,0.4,2,0.9,2.9,1.5l1.3,0.9h0.2l0.2,0.2l0.4,0.4l1.1,1.1l0.4,0.4l0.3,0.4c1.4,2.2,4.5,3.3,6.8,1.8s3.3-4.5,1.8-6.8
	C651.1,204.6,640.6,202.8,631.3,199.6z"/>
</svg>
