<?xml version="1.0" encoding="utf-8"?>
<!-- Generator: Adobe Illustrator 24.2.3, SVG Export Plug-In . SVG Version: 6.00 Build 0)  -->
<svg version="1.1" id="b0bdcfb8-520c-461d-8d1c-104886830f01"
	 xmlns="http://www.w3.org/2000/svg" xmlns:xlink="http://www.w3.org/1999/xlink" x="0px" y="0px" viewBox="0 0 1152 864"
	 style="enable-background:new 0 0 1152 864;" xml:space="preserve">
<path d="M778.3,569.2c-3.3-3.5-6.9-6.7-10.7-9.6l-1.3-1l-0.4-0.3h-0.2l-2.8-2.4c-0.7-0.7-1.3-1.4-1.9-2.1l-0.6-0.8
	c0-0.1-0.5-0.9-0.7-1.3c-0.1-0.2-0.2-0.4-0.2-0.6l-0.3-1.2c0-0.1,0-0.1,0-0.2c0,0,0,0,0,0c0,0,0,0,0,0c0,0,0,0,0,0c0,0,0,0,0-0.1
	c0,0,0,0,0,0c0,0,0,0,0-0.1c0-0.1,0-0.1,0,0c0,0,0,0.1,0,0.1c0-0.3-0.1-0.6-0.1-0.7v-0.6c0-0.2,0.2-0.7,0.1-0.6
	c0-0.2,0.1-0.5,0.2-0.7c-0.2,0.2-0.1,0.1,0-0.1c0-0.1,0.1-0.1,0.1-0.2v0.1c0-0.1,0.1-0.1,0.1-0.1l0.3-0.5c0.1-0.1,0.2-0.3,0.4-0.4
	c2.9-1.9,3.5-6.9,0-8.6c-9.6-4.8-20.2-6.4-30.8-6.6h-12l-2.1-0.5l-0.5-0.3l-0.4-0.3h-0.2c0.1,0,0.1,0,0.1,0.1l-0.1-0.1l-0.4-0.4
	h-0.1l-0.2-0.3c0-0.1-0.1-0.3-0.1-0.4s-0.1-0.1-0.1-0.2c0.1-0.1,0.1-0.2,0.1-0.3l0.5-0.8c0.1-0.1,0.3-0.3,0.3-0.4l1.1-1.1l2-2.2
	c1.8-1.9,3.1-4.2,3.7-6.7c0.4-2.5-0.7-5.5-3.5-6.1c-18.5-4.1-37.9,1-52.5,12.8c-4,3.3-7.6,7.1-10.6,11.3c-1.5,2.2-0.4,5.7,1.8,6.9
	c2.4,1.3,5.3,0.5,6.8-1.8l0.9-1.2l0.4-0.4l2.1-2.5c1.4-1.5,2.9-2.9,4.4-4.2l1.1-0.9l0.5-0.4l2.6-1.9c1.7-1.1,3.5-2.2,5.2-3.1
	l2.7-1.3l1.1-0.5l1.1-0.5c1.8-0.7,3.8-1.3,5.7-1.9l5.9-1.3l1.3-0.2c0.2,0,0.5,0,0.7,0c1.1-0.2,2.1-0.3,3.2-0.3h5.7l-2.2,2.6
	c-3.3,4.8-2.4,11.3,1.9,15.1c4.6,4.1,10.5,4.2,16.4,4.1c5.3-0.1,10.7,0.1,16,0.7l1.3,0.2l2.2,0.4l4.2,1l2.5,0.8
	c-0.8,2.1-1,4.3-0.8,6.5c0.6,5.4,3.4,9.8,7.4,13.4c2,1.7,4.1,3.3,6.2,4.9l0.6,0.4h0.2l1.4,1.2l2.7,2.4c1.7,1.7,3.4,3.5,5,5.3
	c0.3,0.5,0.6,0.9,1,1.3l0.5,0.7c0.8,1,1.5,2,2.1,3c1.5,2.3,2.8,4.6,4,7.1c0.3,0.6,0.6,1.2,0.8,1.8l0.3,0.6l0.2,0.4
	c0.5,1.3,1,2.7,1.4,4s3.5,4.4,6.2,3.5c2.6-0.8,4.1-3.5,3.5-6.1C789.8,585.2,784.9,576.5,778.3,569.2z"/>
<path d="M463.4,497.9c-13.8-3-27.9-4-42-2.8c-7.1,0.6-14.1,1.7-21,3.4c-3.4,0.8-6.7,1.7-10,2.8s-7.3,2.2-10.2,4.6
	c-2.9,2.4-4.3,8.8-0.5,12.1c1.1,0.9,2.3,1.7,3.5,2.3c-13,7.8-24.9,17.4-35.3,28.4c-1.3,1.2-1.8,3.1-1.3,4.8c0.5,1.7,1.8,3,3.5,3.5
	l2.5,1c-4.6,5.6-9.1,11.2-13.7,16.7c-4.6,5.5-11.5,13.6-12.9,22.2c-0.5,2.5-0.5,5,0,7.5c0.6,2.6,1.8,5,3.6,7c1.6,2.1,5.4,1.9,7.1,0
	s1.7-4.9,0-7.1c0,0,0.1,0.1,0.1,0.1c-0.1-0.1-0.1-0.2-0.2-0.3c-0.2-0.3-0.4-0.5-0.5-0.8c0-0.1-0.1-0.3-0.1-0.4
	c-0.2-0.3-0.3-0.7-0.3-1.1v-1.5c0-0.2,0.2-0.8,0.1-1c0-0.2,0-0.3,0.1-0.5l0.6-2.4c0.2-0.3,0.3-0.7,0.4-1.1c0.1-0.1,0.1-0.2,0.1-0.3
	l0.2-0.3c0.8-1.6,1.7-3.2,2.6-4.7c0.9-1.5,0.9-1.4,1.4-2c0.3-0.4,0.6-0.8,0.8-1.2l0.3-0.3c1.4-1.6,2.7-3.3,4.1-5l8.4-10.3l9.5-11.7
	c2.5-3.1,1.5-6.9-2.2-8.4l-1.7-0.7l4-3.7c1.6-1.4,3.3-2.9,5-4.2l2.7-2.2l1.3-1.1h0.1l0.5-0.3c6.9-5.4,14.3-10.3,22-14.5
	c2.4-1.4,3.2-4.5,1.7-6.9c-0.4-0.7-1-1.3-1.7-1.7l-6.7-3.6l1.6-0.5l4.7-1.6l9-2.3c3-0.7,6.1-1.3,9.1-1.8l2.2-0.3h0.1l1.4-0.2
	l4.7-0.4c6.2-0.5,12.4-0.6,18.6-0.3l5.2,0.4l2.7,0.3h2.7l1.4,0.2l2.7,0.5l5.3,1.1c2.6,0.5,5.6-0.8,6.2-3.5
	C467.5,501.1,466.1,498.5,463.4,497.9z M335.7,599.5C335.6,599.7,335.5,600.1,335.7,599.5C335.6,599.5,335.6,599.5,335.7,599.5
	C335.6,599.5,335.6,599.5,335.7,599.5C335.7,599.5,335.7,599.5,335.7,599.5z M386.8,513.5c-0.1,0.1-0.1,0.2-0.2,0.2
	C386.5,513.8,386.5,513.6,386.8,513.5L386.8,513.5L386.8,513.5C386.8,513.4,386.8,513.4,386.8,513.5z"/>
<path d="M827,621.9c-3.5-16.9-7.4-33.7-14.2-49.6c-1.9-4.5-4.1-8.9-6.6-13.2c1-0.8,1.9-1.9,2.5-3.1c1.6-2.8,2.7-5.9,3.3-9.1
	c1.4-6.8,2.3-13.7,2.7-20.7c0.3-4.5,0.6-8.9,0.7-13.4c0-0.2,0-0.3,0-0.5c0.1-4.2,0-8.3-0.5-12.5c-0.7-6.2-1.8-12.4-3.3-18.5
	c-1.4-5.5-3.4-10.8-5.1-16.2c-0.5-1.3-0.9-2.7-1.2-4.1c-0.1-0.6-0.3-1.3-0.4-1.9v-0.3c-0.1-0.4-0.1-0.7-0.1-1.1
	c-0.1-0.6-0.1-1.3-0.1-1.9c0-0.3,0.1-0.6,0.1-1v-0.2c0.2-0.6,0.3-1.2,0.5-1.8v-0.2l0.1-0.3l0,0c0-0.1,0-0.1,0-0.1c0,0,0,0,0,0
	l0.3-0.7l0.4-0.6l0.3-0.4l1.3-1.2l0.7-0.5l0.8-0.4l0.7-0.3h0.1l1.1-0.3c0.3,0.1,0.6,0.1,0.9,0l0.5,0.2h0.2l0.3,0.2h0.2
	c1.4,1.4,3.5,1.8,5.4,1.1c0.7-0.3,1.4-0.8,1.9-1.4c0.8-0.9,1.3-2,1.2-3.2c-1.2-10.7-4.2-21.1-9-30.8c-2.2-4.8-4.8-9.4-7.4-14l-2-3.4
	c-0.1-0.2-0.2-0.3-0.2-0.5c-0.1-0.1-0.2-0.3-0.2-0.4c-0.2-0.7-0.4-1.3-0.6-2c-0.1-0.2-0.1-0.5-0.2-0.7c0,0,0,0,0,0
	c0-0.1-0.1-0.1-0.1-0.2c0,0,0-0.1,0-0.1c0,0,0,0,0,0l0,0c0.1-0.1,0.1-0.1,0.1-0.2c0-0.2,0.3-0.8,0.2-0.9l0.7-1.1
	c0.2-0.2,0.4-0.4,0.4-0.5l0.5-0.4l1.4-0.8l0.6-0.3c1.1-0.3,2.1-0.7,3.2-0.9h2.8c2.8,0,5-2.3,5-5c0-0.4-0.1-0.9-0.2-1.3
	c-1.3-9.2-3.8-18.1-7.6-26.6c-0.9-1.9-1.9-3.9-2.9-5.7c-1-1.8-1.2-2.1-1.8-3l-1.5-1.8l-0.7-0.8c-0.4-0.5-0.5-0.6-0.2-0.3
	c-1.4-1.7-2.3-3.8-3.7-5.5l-3.7-4.1c-0.5-0.5-1-1.1-1.4-1.7c-0.1-0.1-0.2-0.1-0.2-0.2c0-0.1-0.1-0.1-0.1-0.2
	c-0.3-0.3-0.6-0.7-0.8-1.1l-0.6-1.1c-0.1-0.2-0.2-0.5-0.3-0.7c-0.1-0.2-0.2-0.5-0.2-0.7c0-0.2-0.1-0.4-0.1-0.6V327
	c0.1,0,0.1,0,0.1-0.1v-0.4h0.1V326l0.6-0.4c1.2-0.8,2.4-1.4,3.5-2.3c1.7-1,3-2.7,3.6-4.6c0.6-2.3-0.2-4.6-1-6.6
	c-1.6-3.9-3.9-7.5-6.8-10.5c-5.2-5.3-11.7-9.2-18.2-12.8l0.4-0.8l0.6-0.9l0.4-0.5l2.2-2.1l1-0.8l0.4-0.4l2.5-1.7l5-3.2
	c2-1.2,4.7-2.6,6-4.6s1.2-6.3-0.2-9c-0.5-1.2-1.4-2.2-2.5-3l-0.5-0.4c0.1,0.1,0.1,0.1-0.6-0.4c-0.7-0.6-1.4-1.1-2.1-1.5
	c-2.2-1.3-4.6-2.2-7.1-2.6c-4.7-0.7-9.3,0-13.9,0.3c-0.1-0.1-0.1-0.1-0.1-0.2c-0.1-0.2-0.1-0.4-0.2-0.5c-0.1-0.4-0.2-0.9-0.2-1.3
	c-0.1-0.6-0.1-1.3-0.1-1.9c0-2.9,0.4-5.7,0-8.6c-0.1-1.6-0.5-3.2-1-4.7c-1-2.2-2.5-4.1-4.5-5.4c-1.2-0.8-2.6-1.4-4-1.8
	c-0.8-0.3-1.7-0.4-2.6-0.5H751l-1.3,0.2l-0.9,0.3l-0.6,0.2l-0.9,0.3l-1.8,0.5c-0.9,0.3-1.8,0.7-2.6,1.2l-1.7,1.1l-0.2,0.2l-0.2,0.2
	l-8.4,6.1c-5.3,4-10.5,8.2-15.6,12.7c-9.8,8.4-18.9,17.6-27.3,27.4c-2.2,2.6-4.2,5.4-6.3,7.9s-4.5,4.9-6.5,7.5
	c-4.6,5.8-9.1,11.7-13.3,17.9c-4.2,6.2-7.8,12.9-11.7,19.5c-3.9,6.6-6.8,11.9-8.9,18.4c-3.3,2.8-4.3,7.8-4.6,11.8
	c-0.1,4.1,0.2,8.2,0.9,12.3c-2.4-2.1-5.2-3.8-8.2-4.9c-3.9-1.4-9.1-1.9-12.1,1.6s-2.2,7.4-1.5,11.5v0.4c0.1,0.5,0.2,1,0.2,1.5
	c0.1,1.1,0.2,2.2,0.2,3.2c0.1,2.3,0.1,4.7-0.1,7c-0.1,0.3-0.1,0.5-0.1,0.8l-0.3,1.5c-0.2,1.1-0.5,2.2-0.8,3.3s-0.3,1.1-0.5,1.6
	l-0.2,0.4v0.3l-1.6,2.6l-0.2,0.2c-2.4-15.4-8.9-29.8-18.8-41.9c-1.6-1.6-4.1-1.9-6.1-0.8c-1.9,1.2-2.8,3.5-2.3,5.7
	c0,0.1,0.1,0.2,0.1,0.3v0.3c0.1,0.4,0.1,0.3,0,0.2c0,0.2,0,0.4,0.1,0.6c0.1,0.8,0.1,1.7,0,2.5c0,0.4,0,0.7-0.1,1.1v0.2v0.2
	c-0.2,0.7-0.3,1.5-0.5,2.2c-0.4,1.6-1,3.2-1.6,4.7c-0.1,0.2-0.2,0.3-0.2,0.5c0.1-0.1,0.1-0.3,0.2-0.3l-0.2,0.4c0,0,0-0.1,0-0.1
	c0,0.1-0.1,0.2-0.1,0.2l0.1-0.1c-0.1,0.2-0.1,0.2-0.1,0.1l-0.3,0.7c-0.3,0.8-0.7,1.6-1.1,2.3c-2.6,5.4-5.6,10.8-7.3,16.5
	c0-0.1,0-0.1-0.1-0.2c-0.1-0.3-0.2-0.7-0.4-1c-0.2-0.6-0.4-1.3-0.7-1.9c-0.4-1.3-0.7-2.5-1-3.8c-0.7-2.4-1.1-4.8-1.4-7.3
	c0-0.1-0.1-0.1-0.1-0.2c0-0.3,0-0.7-0.1-1c0-0.5-0.1-1.1-0.2-1.6l-0.3-4.1c-0.2-2.7-0.4-5.3-0.5-7.9c-0.4-5.4-0.9-10.8-1.8-16.2
	c-1.1-6-3.2-11.8-6.2-17.1c-1-1.7-2.9-2.7-4.9-2.4c-1.8,0.2-3.9,1.7-4.2,3.6c-1.6,9-4.8,17.6-7.9,26.2c-5.4-13.7-11.3-27.1-18-40.2
	c-4.1-8.1-8.4-16.1-13-23.9s-8.6-14.7-13.8-21.4c-5.2-6.7-12.4-13.1-21.1-16c-3.4-1.2-7.4,2.6-6.1,6.1l0.6,1.8l-4.8-6.9
	c-4.4-6.4-8.9-12.8-13.8-18.9c-8.5-10.8-18.9-20.6-31.4-26.6c-7.2-3.5-15.1-5.5-23.1-5.8c-2.8,0-5.1,2.3-5,5.2
	c0,0.4,0.1,0.8,0.1,1.1c1.6,4.9,3.1,9.8,4.6,14.7c-6.1,0.6-11.9,2.3-17.4,5c-1.9,1.1-2.9,3.4-2.3,5.6c1,4.3,1.9,8.7,2.5,13.1
	c0,0.2,0.1,0.5,0.1,0.7c0,0.1,0,0.2,0.1,0.3v0.3c0,0.3,0.1,0.6,0.1,0.9s0.3,2.3,0.4,3.4c0.1,1.1,0.4,4.4,0.5,6.5
	c0.4,8.8,0.1,17.6-1,26.3v0.2c0,0.2-0.1,0.9-0.1,0.9l-0.3,1.7l-0.6,3.5c-0.2,1.4-0.5,2.7-0.8,4c-2.3,0.4-4.4,1.2-6.4,2.4
	c-1.5,0.9-2.9,2.1-4,3.5c-0.9,0.9-1.5,2-2,3.2c-0.4,1.4,0.1,2.6,0.4,4c0.3,1.4,0.3,2.3,0.2,0.5c0,0.5,0.1,0.9,0.1,1.4v1.6
	c0,0.3,0,0.5-0.1,0.8c-0.1,1-0.4,2-0.7,3l-0.6,1.6c0.1,0,0.1,0,0.1-0.1c-0.1,0.3-0.2,0.6-0.4,0.8c-2.1,4.7-5.3,9-8.4,13.1h-0.1
	l-0.6,0.8l-1.1,1.4l-2.8,3.5c-1.8,2.4-3.6,4.7-5.3,7.1c-3.4,4.8-6.6,10-8,15.8c-0.7,2.7,0.9,5.4,3.6,6.1c1.1,0.3,2.3,0.2,3.3-0.3h1
	c1.4-0.1,2.7,0,4.1,0.1h1.1l2.5,0.5l3.6,1.1l0.6,0.2h0.2l0.8,0.5l0.3,0.2l0.1-0.1c0,0,0,0,0,0.1c0,0.1,0,0.1-0.1,0.1
	c-1.3,1.5-2.4,3.1-3.3,4.8c-4,7.9-5.8,16.7-8.8,25s-7,19-8.4,29.2c-1.6,11.7-0.4,23.3,1.3,34.9c-7.6,7.9-13.2,17.4-16.5,27.8
	c-2,6.5-3.1,13.4-4.8,20c-1.7,6.6-3.4,12.7-5.4,18.9s-3.5,10.3-5.5,15.4c-0.5,1.1-0.9,2.2-1.4,3.4l-0.6,1.6h-0.1
	c-0.1,0.3-0.2,0.7-0.4,1c-0.9,2.1-1.8,4.1-2.8,6.2c-3.2,7-6.8,13.8-10.3,20.7c-3.3,6.3-6.2,12.9-8.7,19.6c-1.2,3.3-2.2,6.7-3,10.2
	c-1.2,5.1-2.4,10.5-2.2,15.8c0.1,3.8,1.2,7.5,3,10.8c1.4,2.4,4.4,3.2,6.8,1.9s3.2-4.4,1.9-6.8c0-0.1-0.1-0.1-0.1-0.1l-0.7-1.2v-0.2
	c-0.3-0.7-0.5-1.5-0.6-2.3c0,0.1-0.1-0.5-0.2-0.8v-0.7c-0.1-1-0.1-2-0.1-2.9s0.1-1.5,0.2-2.2c0.1-0.7,0.1-0.6,0.1-0.8
	c0-0.2,0-0.4,0.1-0.6c0.1-1,0.3-2.1,0.5-3.1c0.7-3.6,1.6-7.1,2.7-10.6c0.5-1.6,1-3.2,1.6-4.8l0.9-2.2c0.1-0.4,0.2-0.7,0.4-1l0.4-1
	c1.3-2.9,2.6-5.7,4-8.5c3.2-6.5,6.6-12.9,9.8-19.4c4.2-8.5,7.9-17.1,11.2-26c4.2-12.1,7.8-24.3,10.6-36.8c0.7-3.2,1.3-6.4,2.2-9.5
	c0.3-1.1,0.7-2.2,1.1-3.4l0.6-1.7l0.4-0.9c0-0.1,0.1-0.2,0.1-0.3c2-4.5,4.5-8.8,7.5-12.7c0.1-0.2,0.9-1.1,0.1-0.1l0.5-0.6l1.2-1.5
	l2.7-3.1c1.7-1.8,3.6-3.6,5.4-5.3l3-2.5l1.3-1.1l0.8-0.6c-1,0.8,0.1,0,0.2-0.1c2.2-1.7,4.4-3.2,6.6-4.7c4.6-3,9.4-5.7,14.3-8.2
	l7.4-3.5l3.6-1.6h0.3l1-0.4l2.3-0.9c10.2-4,20.7-7.4,31.3-10.2l8-2l5.3-1.1l2.7-0.5h1.1l1-0.2h0.1c3.6-0.5,7.3-0.8,11-0.8h2
	c-4,1.7-8,3.7-11.8,5.9c-9,5.2-17.8,11.5-24.1,19.8c-3.6,4.7-5.8,10.2-6.5,16.1c0,1.8,1,3.4,2.5,4.3c1.6,1,3.3,0.7,5,0l20.6-9.1
	l10.2-4.5l9-3.9c12.8-5.3,26-10.1,39.7-12.3l6.9-0.7c-3.8,4.1-6.4,9.2-7.6,14.6c-0.7,3.4,2.4,7.5,6.2,6.1c2.5-0.9,5.1-1.6,7.8-2.1
	l1.2-0.2h1.9c1.3-0.2,2.6-0.2,3.9-0.2h5.7l1.1,0.2h0.7c2.5,0.4,5,0.9,7.5,1.6c5.1,1.4,10,3.2,14.7,5.6c4.8,2.5,9.4,5.3,13.9,8.2
	l7.7,5.4l3.7,2.7l1.8,1.3l0.8,0.5c0.8,1.6,2.4,2.6,4.2,2.6c2.6-0.2,5.2-2.2,5-5s-1.3-4-3.2-5.5l-4-2.9l-7-5c-4.8-3.4-9.8-6.6-15-9.4
	c-10.8-5.9-22.7-10-35-10.5c-3.4-0.1-6.8,0.1-10.2,0.5l0.5-0.7l1-1.2c0.7-0.8,1.5-1.5,2.3-2.2c0.3-0.2,0.6-0.5,0.9-0.8l1.2-0.8
	c1-0.6,2-1.2,3-1.7l0.6-0.3h0.2l1.6-0.5c2.4-0.7,3.9-3,3.6-5.5c-0.4-2.7-2.4-4-4.9-4.3c-29.3-3.8-57.3,9.3-83.4,20.8L432,474
	c0.1-0.3,0.3-0.6,0.6-0.9c0-0.1,0.1-0.2,0.2-0.3l0.2-0.3l1.1-1.3l2.3-2.4c1.6-1.6,3.3-3.1,5.1-4.5l0.5-0.5h0.2l1.1-0.8l3.3-2.3
	c2-1.4,4-2.7,6.1-3.9c4.3-2.5,8.7-4.8,13.3-6.8h0.3l1-0.3l1.9-0.8l4-1.4c2.7-1,5.4-1.8,8.2-2.5c2.2-0.6,3.7-2.5,3.7-4.8
	c0-2.2-1.5-4.2-3.7-4.8c-14.7-5.2-30.8-4.2-45.8-0.9c-11,2.5-21.9,5.7-32.6,9.5c-17.4,6.2-35.1,14.4-49.5,26.3
	c-0.1-0.6-0.2-1.2-0.2-1.8c-0.3-2.7-0.6-5.4-0.7-8c-0.3-4.7-0.2-9.4,0.3-14.1c0-0.1,0.1-0.2,0.1-0.3v-0.2c0,0.3,0.1,0.2,0-0.3
	c0.1-0.4,0.2-0.8,0.2-1.2c0.2-1.2,0.5-2.3,0.7-3.5s1.1-4.8,1.8-7.2c1.6-5.6,3.7-11,5.6-16.4c1.4-3.9,2.5-7.9,3.8-11.9
	c0.7-2.2,1.5-4.5,2.3-6.7l0.6-1.5h0.1c0-0.2,0.1-0.4,0.2-0.5c0.4-1,0.9-2,1.4-2.9l1.3-2.1l-0.2,0.4l0.3-0.4l1.5-1.9
	c1.1-1.6,1.7-3.6,1.6-5.6c-0.2-4-3.1-7-6.5-8.7c-3.9-1.8-8.1-2.9-12.4-3.3h-0.2c0.6-1.1,1.3-2.2,2-3.3l3.8-5.5l1.1-1.3l0.4-0.6h0.1
	l2.1-2.7c5.7-7.2,11.9-14.6,14.9-23.5c1.3-3.8,1.5-7.8,0.8-11.7l0.3-0.2l0.5-0.4c0.3-0.2,0.9-0.7,1.3-0.7h-0.2l0.8-0.2
	c0.3-0.1,0.6-0.2,0.9-0.3c0,0,0.2,0,0.3,0h0.8l1.5,0.2c2,0.2,4.3-1.8,4.8-3.7c4.2-17.9,5.2-36.4,2.8-54.7c-0.6-3.9-1.2-7.8-2-11.7
	l0.9-0.4l5.1-1.4l2.5-0.5h0.5l1.2-0.2c1.8-0.1,3.7-0.2,5.5-0.1c2.9-0.1,5.1-2.5,5-5.4c0-0.4-0.1-0.7-0.1-1l-4.2-13.5l1.6,0.3
	l4.6,1.4l1.9,0.7l0.9,0.4l0.9,0.3c3,1.4,5.8,3,8.6,4.7l3.7,2.6l1,0.7h0.3l1.9,1.6c5.2,4.4,9.9,9.4,14.2,14.7
	c0.6,0.7,1.2,1.4,1.7,2.2l0.4,0.4l0.5,0.7l3.6,4.8l6.1,8.7c4.8,7.1,9.7,14.1,15,20.8c1.1,1.4,3.3,1.7,4.9,1.3c1.7-0.5,3-1.8,3.5-3.5
	c1.1-3.1,1.6-6.3,1.6-9.6c0.7,0.5,1.4,1,1.9,1.7l2,1.8c1.2,1.3,2.5,2.7,3.6,4.1l0.8,1l0.2,0.3l1.8,2.4l3.1,4.6
	c2.2,3.6,4.4,7.2,6.5,10.8c9,15.2,17.1,30.9,24.2,47.1c1,2.2,2,4.4,2.9,6.7l0.4,1l0.8,1.8c0.4,1,0.9,2.1,1.3,3.2
	c1.9,4.7,3.7,9.4,5.4,14.2c0.3,0.6,0.6,1.2,1,1.7c-1.5,6-2.5,12.2-2.8,18.4c-0.8,19.8,6.2,39,18.5,54.2c6.3,7.7,13.9,14,22.6,18.8
	c2.3,1.3,5.6,0.7,6.8-1.8c1.4-2.3,0.6-5.3-1.7-6.7c0,0-0.1-0.1-0.1-0.1l-5.3-3.2l-2.4-1.7l-1.2-0.9l-0.7-0.6
	c-3.2-2.6-6.2-5.4-8.9-8.5l-1.9-2.2l-0.9-1.2l-0.6-0.7c-1.2-1.6-2.3-3.3-3.4-5s-2.1-3.6-3-5.4s-0.9-1.8-1.3-2.6
	c-0.3-0.5-0.5-1-0.7-1.5c-0.1-0.3-0.9-1.8-0.3-0.7c-2-4.5-3.5-9.2-4.3-14l-0.6-3.4c0-0.2-0.1-0.4-0.1-0.6V415
	c-0.1-0.7-0.2-1.3-0.2-2c-0.3-2.4-0.4-4.7-0.3-7.1c0-2.5,0.1-4.9,0.3-7.3c0.1-0.6,0.2-1.3,0.2-1.9c0.1,0,0.1-0.3,0.1-0.4V396
	c0.2-1.3,0.5-2.6,0.7-3.9c1-4.8,2.4-9.6,4-14.2c1.8-5.3,3.8-10.6,5.6-16c0.2,1,0.4,2,0.5,3c0.1,0.2,0.1,0.3,0.1,0.5
	c0,0.2,0,0.4,0.1,0.6c0.1,0.7,0.1,1.3,0.2,2c0.3,2.6,0.5,5.2,0.7,7.8c0.7,10.6,1.1,21.6,5.1,31.6c2.5,5.9,5.8,11.4,10.8,15.6
	c1.7,1.3,4.1,2,6.1,0.7c1.9-1.2,2.8-3.4,2.3-5.6c-0.3-0.8-0.5-1.6-0.6-2.4v-0.2c0-0.5,0-0.9-0.1-1.4c0-0.8,0-1.5,0.1-2.3
	c0-0.3,0.1-0.6,0.1-1c0-0.1,0-0.3,0.1-0.4c0.3-1.6,0.7-3.2,1.3-4.7c0.2-0.8,0.5-1.5,0.8-2.3h0.1l0.6-1.3c2.5-5.6,5.7-11.1,7.7-16.9
	c0.8,1.4,1.6,2.9,2.3,4.4l1.2,2.7c0.1,0.2,0.2,0.4,0.3,0.6c0.2,0.4,0.4,0.9,0.5,1.3c1.5,3.8,2.8,7.8,3.7,11.8
	c0.4,1.9,0.8,3.8,1.1,5.7c0,0.2,0,0.5,0.1,0.7c0,0.4,0.1,0.8,0.1,1.3l0.3,3.3c0.1,2.8,2.4,5,5.3,4.9c0.4,0,0.7-0.1,1-0.1
	c5.1-1,9.6-4.1,12.2-8.6c2.6-4.2,3.7-9.1,4.3-14c0.4-4.3,0.3-8.6-0.2-12.9c-0.2-1.1-0.3-2.3-0.5-3.5c0-0.2-0.1-0.3-0.1-0.4l0.9,0.3
	l0.7,0.2l1.1,0.5l2,1.3h0.1l0.8,0.7c0.6,0.5,1.1,1.1,1.6,1.7c0.2,0.2,0.4,0.4,0.5,0.7c0.3,0.3,0.5,0.6,0.7,1
	c1.9,2.8,3.3,6.2,5.5,8.8c1.5,1.7,3.6,2.8,5.9,2.9c3.4-0.1,6.1-2.8,6.2-6.2c0.1-3.9-1.6-7.8-2.5-11.6c-0.4-1.7-0.8-3.3-1.1-5.1
	c-0.3-1.8-0.2-1.6-0.4-2.5c-0.2-0.9-0.1-0.7-0.1-0.8s-0.1-0.9-0.1-1.4c-0.2-1.8-0.3-3.6-0.3-5.4v-2.2c0.1-0.2,0.1-0.2,0.1-0.3v-0.2
	c0.1-0.6,0.2-1.1,0.4-1.7l0.3-0.9V362c0.4,0.2,0.8,0.4,1.1,0.7l0.7,0.5l0.3,0.2l2,1.6l4.1,3.3c3,2.5,5.9,5,8.7,7.8
	c1.3,1.3,2.6,2.6,3.8,4l2,2.3l0.5,0.7c0.2,0.2,0.4,0.4,0.5,0.7c2.4,3.2,4.5,6.7,6.3,10.4c0.8,1.8,1.7,3.7,2.4,5.5v0.2l0.2,0.3
	c0.2,0.6,0.4,1.2,0.7,1.7c0.1,0.4,0.3,0.9,0.5,1.3c-0.1,0.6,0,1.2,0.1,1.8c0.8,2.8,3.7,4.5,6.5,3.7c1.3-0.4,2.4-1.2,3.1-2.3
	c1.5-2.6,0.3-5.1-0.8-7.6s-3.1-7.6-5-11.3c-3.6-6.8-8.2-12.9-13.7-18.3c-5.3-5.3-11.1-10.1-17.1-14.6c-0.8-0.5-1.6-1-2.4-1.4
	c3.1-7.2,7.6-13.9,11.4-21c5.2-9.7,12.3-18.9,18.8-27.3c3.2-4.1,6.9-7.8,10.1-11.8s7-8.2,10.6-12.1c6.9-7.3,14.2-14.3,21.9-20.9
	c4.4-3.8,8.7-7.2,12.9-10.4c2.6-1.8,5.2-3.6,7.7-5.5l0.6-0.5h0.1l0.4-0.2l1.1-0.3l2.3-0.7l0.8,0.3l0.6,0.4l0.5,0.5
	c0.2,0.4,0.3,0.9,0.4,1.3v0.5c0.1,1.2,0.1,2.5,0.1,3.7c-0.3,5.7-0.3,11.1,3.5,15.7c1.3,1.7,3.4,2.6,5.5,2.5l4-0.3
	c2.5-0.2,5-0.5,7.6-0.5h1.6l1.4,0.3l1.4,0.5h0.2l0.9,0.5l1,0.6l0.3,0.2l0.2,0.2c-3.7,2.4-7.6,4.7-11.2,7.5
	c-4.7,3.6-7.8,8.9-8.5,14.8c0,1.8,1,3.4,2.5,4.3c3.3,1.8,6.5,3.5,9.7,5.5l4.6,3.1l0.9,0.6l0.7,0.6l2,1.7c1.2,1.2,2.3,2.4,3.4,3.7
	l0.5,0.6l0.7,1.1c0.4,0.7,0.8,1.4,1.2,2.2c0.1,0.1,0.1,0.2,0.2,0.2v0.2l0.3,0.7l-0.8,0.4c-4,2.4-6.6,5.6-6.9,10.4s1.9,8.1,4.5,11.4
	c1.1,1.4,2.3,2.7,3.5,4l1.5,1.6l0.5,0.6l0.6,1.2c1.1,1.9,2.4,3.6,3.8,5.3c1.4,1.7,2.5,3.6,3.5,5.6c3.4,6.9,5.8,14.2,7.2,21.7
	c-3.2,0.7-6.1,2-8.7,4c-2,1.7-3.6,4-4.5,6.5c-1,2.7-1,5.7-0.1,8.4c0.9,2.9,2.2,5.7,3.9,8.2l4.3,7.7c2.5,4.6,4.6,9.4,6.5,14.3
	c1,2.9,1.9,6,2.7,9c0.1,0.6,0.2,1.2,0.4,1.8c-2.3,0.2-4.6,0.9-6.6,2.2c-5.1,3-8.5,8.2-9.1,14.1c-0.7,5.3,0.9,10.7,2.6,15.7
	c2,5.6,3.8,11.2,5.2,17c2.2,10,3.1,20.3,2.6,30.5c0,0.2,0,0.5,0,0.5c-0.1,1.3-0.2,2.6-0.3,3.9c-0.2,2.3-0.3,4.6-0.5,6.9
	s-0.3,3.2-0.4,4.9l-0.3,2.5c0,0.2,0,0.5-0.1,0.7c0,0,0,0.1,0,0.2c0,0.1,0,0.2-0.1,0.3c0,0,0,0.1,0,0.1c0,0.1,0,0.3,0,0.4
	c-0.5,3.8-1.4,7.5-2.5,11.2l-0.2,0.3c0,0,0,0,0,0c0,0,0,0,0,0s0,0,0,0c-0.1,0.2-0.2,0.4-0.2,0.6c0,0,0,0,0,0c0,0,0,0,0,0
	c0,0,0,0,0,0c0-0.1,0-0.3,0.1-0.4c0,0.2-0.1,0.3-0.1,0.4c-0.1,0.1-0.1,0.1-0.1,0.2l-0.2,0.3c0-0.1-0.1-0.1-0.1-0.2
	c-2.8-3.6-5.8-7-9-10.2c-1.6-1.5-3.3-2.9-5-4.3l-2.7-2.3c-0.4-0.3-0.8-0.7-1.1-1.1l-0.6-0.6l-0.3-0.3l-0.8-1.3c0,0-0.1-0.3-0.2-0.4
	c0,0-0.3-0.6-0.3-1.2c0-0.2,0-0.7,0-0.7c0-0.5,0.2-0.8,0.4-0.9c0.6-0.5,0.9-0.7,0.9-0.7c2.2-1.5,4.2-3.1,5.3-5.6s0.5-6.6-1.4-9.4
	c-5.6-8.2-14.8-14.2-24.2-17.4l-6.7-1.9l-3.1-1l-0.7-0.3l-1.5-0.9l-0.4-0.4c0,0,0,0,0.1,0l0,0l-0.1-0.1l0,0c0,0,0,0,0,0l-0.1-0.1
	c-0.1-0.1-0.2-0.2-0.2-0.3l-0.4-0.6l-0.2-0.5c-0.1-0.2-0.1-0.5-0.2-0.7c0,0,0,0.1,0,0.1c0,0,0,0.1,0,0.1V487c0,0,0,0,0,0
	c0,0,0,0,0,0v-0.3c0,0.1,0,0,0-0.1c0,0,0,0,0,0c0,0,0,0.1,0,0.1c0,0,0,0,0,0c0-0.1,0-0.1,0-0.1c0,0,0,0,0-0.1c0-0.1,0-0.1,0-0.2h0
	v0.3c0-0.1,0-0.2,0-0.3h0.1c0.1,0,0.1,0,0.1-0.1l0.3-0.2c0,0,0,0,0,0.1l0.3-0.2l1.3-0.7c1.1-0.6,2.1-1.3,3-2.1
	c2.5-2.3,3.4-5.9,2.2-9.1c-2-5.4-7.9-8-13-9.7c-16.8-5.7-34.4,0-51.6-0.3l0.9-0.5c4.5-3.1,8.2-8.7,6.8-14.4
	c-0.9-3.2-3.4-5.7-6.6-6.7c-2.5-0.7-5.2-0.9-7.8-0.8c-4.8-0.1-9.7,0-14.5,0.5c-20,1.9-39.3,8.3-56.5,18.7
	c-9.7,5.8-18.6,12.9-26.4,21c-2,2-2,5.1,0,7.1c2,2,5.1,2,7.1,0c3.2-3.3,6.6-6.5,10.1-9.5l2.7-2.1c0.1-0.1,0.3-0.2,0.4-0.4h0.2l1.4-1
	c1.9-1.4,3.8-2.8,5.8-4.1c3.8-2.4,7.7-4.7,11.8-6.8l6.1-3l1.7-0.7l0.7-0.3l3.3-1.3c8.6-3.2,17.5-5.6,26.6-6.9h0.6l1.6-0.2l3.6-0.4
	l6.8-0.4c2.4-0.1,4.7-0.1,7.1,0h4.5c-0.1,0.1-0.1,0.1-0.1,0.2c0,0.1,0,0.2,0,0.2c0,0.1,0,0.2,0,0.2c0,0,0,0,0,0h-0.1l-0.6,1
	c-0.1,0.1-0.1,0.1-0.1,0.2L687,454l-0.7,0.8h-0.2l-0.9,0.5c-4.6,2.9-9.3,5.5-11.1,11c-0.7,2.6,0.8,5.3,3.4,6.1c0,0,0.1,0,0.1,0
	c9.5,2.1,19.1,1.5,28.6,0.6c4.6-0.5,9.2-1,13.8-1.2c2.2-0.1,4.4-0.2,6.6-0.1h3.4l1.5,0.2h0.8c2.2,0.3,4.4,0.8,6.5,1.5l1.4,0.5
	l0.8,0.3c1.1,0.3,2.2,0.8,3.1,1.5l0.4,0.3l-1.9,1.1c-4.8,3.2-6,9-3.8,14.2s6.7,7.8,11.9,9.4l6.7,1.9l3.1,1l0.3,0.2h0.3l1.9,0.9
	c2.1,1,4,2.2,5.9,3.5l1,0.7l0.8,0.7c1,0.7,1.9,1.5,2.7,2.4c0.8,0.7,1.5,1.5,2.3,2.3l1,1.2c0.1,0.1,0.2,0.3,0.2,0.4l0.3,0.5
	c-2,1.4-4.1,2.8-5.4,5c-1.4,2.6-1.8,5.5-1.3,8.4c0.8,5.2,4.6,9,8.4,12.1c3.4,2.7,6.6,5.7,9.5,8.9l1.9,2.3l1,1.1l0.4,0.6
	c1.3,1.7,2.5,3.4,3.7,5.2c2.2,3.5,4.3,7.1,6.1,10.9c1,1.9,1.9,3.9,2.7,5.8c-0.5-1.1,0.1,0.3,0.2,0.6l0.6,1.4l1.2,3.2
	c1.5,4.1,2.9,8.3,4.1,12.5c2.4,8.3,4.3,16.7,6.1,25.2c0.3,1.5,0.7,3.1,1,4.7c-0.2,0.8-0.2,1.5-0.1,2.3c0.3,2.1,2.3,3.6,4.1,4.2
	c2.3,0.7,4.7-0.1,6.2-2C828.9,626.6,828.7,623.8,827,621.9z M353.6,374.9C353.7,374.8,353.7,374.8,353.6,374.9L353.6,374.9z
	 M364.1,383.5c0,0.1,0,0.1-0.1,0.2l-0.2,0.2c0,0,0,0,0,0L364.1,383.5z M772.7,289.5C772.7,289.5,772.8,289.5,772.7,289.5
	C772.7,289.5,772.7,289.6,772.7,289.5z M790.1,315.1v-0.2h0.1h0C790.1,315,790.1,315,790.1,315.1z M688.2,452.6
	C688.2,452.7,688.2,452.6,688.2,452.6c0-0.2,0.1-0.3,0.1-0.4h0c0,0,0,0,0,0C688.4,452.3,688.3,452.5,688.2,452.6z M745.6,477.2
	L745.6,477.2C745.6,477.2,745.6,477.2,745.6,477.2C745.6,477.2,745.6,477.2,745.6,477.2z M777.6,516.6c0-0.1,0-0.1,0.1-0.2h0
	C777.7,516.5,777.7,516.5,777.6,516.6z"/>
</svg>
