<?xml version="1.0" encoding="utf-8"?>
<!-- Generator: Adobe Illustrator 24.2.3, SVG Export Plug-In . SVG Version: 6.00 Build 0)  -->
<svg version="1.1" id="f3810452-182d-46cc-b22e-47e0bd3c7af0"
	 xmlns="http://www.w3.org/2000/svg" xmlns:xlink="http://www.w3.org/1999/xlink" x="0px" y="0px" viewBox="0 0 1152 864"
	 style="enable-background:new 0 0 1152 864;" xml:space="preserve">
<path d="M1033.6,333.5c-8-19.5-26.6-30.7-44.5-39.8c-10-5.2-20.1-10.1-29.1-16.9s-17.1-14.8-26.1-21.5c-18.1-13.7-40-19.9-60.9-27.7
	c-10.6-3.8-20.8-8.7-30.5-14.4c-9.8-5.8-19.3-12.4-29.3-18c-19.9-11.2-41.7-17.5-64.2-10.6c-6.2,2-11.6,2.9-18.2,2.1
	s-13.2-1.9-19.8-2.9l-37.1-6.1c-24.8-4.1-49.6-8.2-74.4-11.6s-48.9-6.7-73.5-5.8s-47.6,5-70.6,11.2c-11.5,3.1-22.9,6.8-34.1,10.8
	c-5.3,1.9-10.6,3.9-15.8,6s-10.9,5.5-16.5,6.2s-7.6-4.3-11.3-7.1c-3.7-2.8-8.1-4.6-12.7-5.3c-9.6-1.5-19.5,1-28.5,4.5
	c-20.5,8.1-40.4,18.7-60.1,28.5s-40.1,20.5-59.5,32c-19.4,11.5-38.1,24.2-55.9,38.1c-17.2,13.5-35.6,28.3-46.9,47.4
	c-23.4,39.4-6.4,87.2,18.1,121.6c25.8,36.3,62.6,66.9,77.9,109.9c4.1,11.3,6.1,23.1,8.5,34.8s4.1,21.4,9.6,30.6s13.5,14.1,23.6,13.6
	s19.6-6.4,27.5-12.8c30.4-24.7,46.2-63.1,52.8-100.9c11.1-63.9-4.5-133.5,5.8-197.7c0.2-0.5,0.4-1.1,0.5-1.7
	c5.4-38.5,41.7-62.6,61.9-93.3c2-3.1,6.1-7.7,5.1-11.6s-6.1-6.4-10.3-5.9c-8.9,0.9-16.8,9.7-22.8,15.7c-14,14.1-24.2,31.3-31.6,49.7
	c-4.5,11.3-8,23-10.4,34.9c-0.7,2.6-1.2,5.2-1.5,7.9c-0.1,0.2-0.1,0.4-0.1,0.6c-12.7,75.8,10.6,156.1-14.2,230.7
	c-6.2,18.6-15.4,36.6-28.5,51.3c-11.4,12.8-37.3,36.5-50.1,12.7c-5.4-10-6.8-22.2-9-33.2s-5.2-24-10-35.4c-9-21.4-23-40.1-37.7-57.8
	c-28.8-34.8-64.9-70.8-66.2-119c-0.3-11.2,1.5-22.6,6.1-32.8s12.4-19.6,20.7-27.7c16.8-16.5,35.6-30.9,55.1-44
	c38.7-26,80.7-46.6,122.7-66.6c15.8-7.5,41.4-23.7,57-8.1c3.7,3.6,7.4,6.5,12.9,6.5s10.8-2.7,15.9-4.8c11.6-4.7,23.2-9,35-12.8
	c23.8-7.7,48.3-13.6,73.3-15.8s50,0,74.9,3.2s51.8,7.5,77.5,11.8l38.9,6.4l19.4,2.9c6.3,0.9,12.6,2.1,19,1.3s11.1-3.1,16.7-4.4
	c6.1-1.3,12.4-1.4,18.5-0.4c11.8,1.7,22.8,6.7,33,12.6s20.3,12.9,30.7,18.9c10.1,5.7,20.6,10.5,31.5,14.3
	c21.5,7.9,43.1,14.5,61.1,29.3c9,7.4,17.6,15.5,27.3,22s20.7,11.3,31,16.9s18.7,11.1,25.8,19.4s10.5,19.2,9.8,30.7
	c-1.7,24.7-8.2,48.8-19,71c-18.7,38.3-50.5,68-72.4,104.4c-5.5,9.2-10.3,18.8-14.2,28.7c-4.2,11-7.3,22.4-12.3,33
	c-8,17-27.8,38.5-48.5,27.5c-8.8-4.8-14.4-13.9-18.6-22.6c-4.8-10.2-8.8-20.8-12-31.6c-6.7-21.4-10.8-43.5-13.6-65.7
	c-5.7-46.1-5.8-92.6-10.5-138.8l-0.9-8.7c0.4-1,0.4-2.2,0-3.2l-0.6-1.5c-2.1-18.3-5.3-36.5-9.8-54.4c-5.4-21.1-12.2-43.7-25-61.6
	s-31.1-29.7-52.4-27.5c-3.3,0.3-5.7,2.9-4.8,6.3c6.2,26.2,28.5,45.1,43.5,66.4c16,22.7,29.1,47.4,38.9,73.4c3.6,30.9,4.9,62,6.8,93
	c2.6,43.6,6.5,87.7,20.1,129.4c6.1,18.4,13.3,40.8,29.5,52.9s37.4,6.5,51.4-6.6c16.1-14.9,20.9-37.3,28.5-57s19.5-37.3,32.1-54
	s25.6-32.2,37.2-49.2s21.9-37.2,28-58.1c3.4-11.5,5.8-23.2,7.4-35.1C1037.2,355.4,1037.9,344.1,1033.6,333.5z M361.1,265.7
	c4.7-7.8,10.2-15.2,16.4-21.8c3.1-3.3,6.4-6.4,9.9-9.3c1.5-1.3,3-2.6,4.6-3.7c-10,15.3-23.5,28.8-35.5,43
	C357.9,271.1,359.5,268.4,361.1,265.7z M766.2,275.4c-7.8-11.2-16.4-21.6-24.9-32.1c-7.1-8.7-13.8-17.8-17.6-28.3
	c19.6,1.2,34.8,16.7,43.8,33.6c10.1,19.2,16,40.9,20.5,62c0.1,0.7,0.2,1.3,0.4,2C781.8,299.7,774.4,287.3,766.2,275.4L766.2,275.4z"
	/>
</svg>
