<?xml version="1.0" encoding="utf-8"?>
<!-- Generator: Adobe Illustrator 24.2.3, SVG Export Plug-In . SVG Version: 6.00 Build 0)  -->
<svg version="1.1" id="b288f941-7a08-40ca-95e3-bcb24a4ad5cd"
	 xmlns="http://www.w3.org/2000/svg" xmlns:xlink="http://www.w3.org/1999/xlink" x="0px" y="0px" viewBox="0 0 1152 864"
	 style="enable-background:new 0 0 1152 864;" xml:space="preserve">
<path d="M415.8,317.3l1.2-0.4h0.3c-0.3-0.1-0.3-0.2-0.2-0.1h0.4c0.6,0,0.1,0.2-0.2,0.1c2.7,2.7,7.1,1.1,8.2-2.3l1.7-4.8l0.9-2.1
	c0-0.1,0-0.2,0.1-0.3l0.6-1.3c1.4-3.1,3.1-6,5.1-8.8l0.2-0.2l0.8-0.9c0.5-0.7,1.1-1.3,1.8-1.9l1.8-1.7h0.1c0-0.2,0-0.3,0-0.4
	c0.1,0,0.1-0.1,0.2-0.2h0.1l1-0.7l2.2-1.3l1-0.5l0.3-0.2h0.2l0.8-0.3l0.6,1.8l1.2,3.7l2.7,7.5c0.8,2.7,3.5,4.2,6.2,3.4
	c0.8-0.2,1.5-0.7,2.1-1.2l2.1-1.8c0.1,0,0.1,0,0.1-0.1h0.2l1.2-0.9c1.6-1.1,3.2-2.1,4.9-3l5-2.5h0.5l1.4-0.6l2.9-1
	c1.8-0.6,3.6-1,5.5-1.5l2.7-0.5l1.5-0.2h0.6c3.9-0.5,7.8-0.6,11.7-0.3l3.3,0.3h0.6l1.7,0.3c2.2,0.4,4.4,0.9,6.5,1.6
	c2.7,0.7,5.5-0.8,6.2-3.5s-0.8-5.5-3.5-6.2c-16.8-4.9-34.9-3.2-50.5,4.9c-1.9,1.1-3.8,2.2-5.6,3.4c-0.9-2.5-1.8-5.1-2.8-7.6
	s-4-5.9-7.8-6c-3.8-0.1-5.2,1-7.6,2.1c-7.5,3.6-13.1,10.4-16.8,17.7c-1.3,2.6-2.5,5.3-3.5,8c-2.9,0-5.7,0.8-8.1,2.4
	c-4.1,2.5-7.3,6.5-10.3,10.2c-6.3,7.7-11.5,16.2-15.6,25.3c-2.3,5.1-4.2,10.5-5.7,15.9c-0.7,2.6,0.9,5.4,3.5,6.1
	c2.7,0.7,5.4-0.9,6.2-3.5c1.1-4.1,2.5-8.2,4.1-12.1c0-0.1,0.1-0.2,0.1-0.3l0.2-0.5l0.6-1.3l1.4-3c1-2,2-3.9,3.1-5.8
	c2.1-3.8,4.5-7.5,7.1-11l0.9-1.2l0.3-0.4c0.1-0.1,0.2-0.2,0.2-0.3l2.2-2.7c1.4-1.7,2.9-3.3,4.5-4.9l0.9-1l0.3-0.2l0.3-0.2l1.3-0.9
	l0.6-0.2h0.1C416.4,316.9,416.1,317.2,415.8,317.3z M443.9,287.8C443.7,287.5,443.8,287.6,443.9,287.8L443.9,287.8z"/>
<path d="M768.7,334.3l0.6,0.7c0.8,1.1,1.5,2.3,2.1,3.6c0,0.1,0.1,0.1,0.1,0.2l0.2,0.5l0.6,1.9l0.3,1.5c0.1,0.3,0.1,0.6,0.2,0.8
	c0.1,0.2,0.2,2.3,0.2,3.5c0.1,2.8,0,5.6,0.2,8.4c0.2,3.9,0.8,7.8,1.8,11.6c1,2.6,3.9,3.9,6.5,2.9c2.2-0.9,3.5-3.1,3.1-5.5
	c-0.4-1.8-0.8-3.5-1.1-5.3c-0.1-0.4-0.1-0.8-0.1-1.2c-0.1-0.8-0.2-1.6-0.2-2.4c-0.2-2.7-0.1-5.3-0.2-8c-0.1-6-1.3-11.8-4.7-16.9
	c-1.6-2.6-3.6-4.9-6-6.9c-1.6-1.2-3.2-2.2-4.8-3.2c-4.6-2.6-9.4-4.9-14.3-6.8c-2-0.8-4.1-1.5-6.2-2c-0.2-2.6-0.9-5.1-2-7.4
	c-1.8-3.5-4.7-6.4-8.2-8.2c-6.8-3.6-14.8-4.3-22-1.7c-1.9,0.7-3.7,1.6-5.3,2.7c-5.7-7.2-12.7-13.5-21.4-17
	c-8.4-3.4-17.8-3.3-26.1,0.3c-5.1,2.3-9.7,5.3-13.8,9.1c-2,1.9-2,5.1,0,7.1c1.9,1.9,5.1,1.9,7,0l2.5-2.2h0.2l0.3-0.2l1.5-1.1
	c1.7-1.1,3.4-2.1,5.2-3c0.5-0.2,0.9-0.4,1.3-0.6c-1.3,0.8,0.1,0,0.5-0.1c0.9-0.4,1.8-0.7,2.8-0.9l2.6-0.6h0.3l1.5-0.2h4.7l0.5,0.2
	c1.6,0.3,3.2,0.7,4.8,1.2c0.4,0.2,0.9,0.4,1.4,0.5l0.4,0.2l2.9,1.5l2.6,1.7l1.2,0.9h0.1l0.8,0.7c2.1,1.8,4.1,3.7,5.9,5.8
	c1.1,1.1,2.1,2.3,3,3.5h0.1l0.8,1l1.6,2.3c2,3,6.6,3.4,8.6,0c0.2-0.2,0.3-0.5,0.4-0.7l1.3-1.2l0.8-0.5c0.5-0.4,1.1-0.7,1.7-0.9h0.2
	l0.9-0.3l2.1-0.5l1.1-0.2h4.5l1.1,0.2l2,0.5l1,0.4h0.3l1.7,0.9l0.8,0.5l0.3,0.2l1.5,1.4l0.3,0.4l0.3,0.4l0.7,1.1
	c0,0.2,0.1,0.3,0.1,0.4c0.3,0.7,0.5,1.5,0.7,2.3v0.3c0.1,0.4,0.1,0.9,0.1,1.3v1.6c0,0.2-0.1,0.4-0.1,0.6v0.2
	c-0.3,2.1,0.3,4.5,2.3,5.5c1.5,0.8,3.3,0.9,4.9,0.2h0.1c1.9,0.3,3.9,0.9,5.7,1.6l1.4,0.6l0.5,0.2h0.3l3.3,1.5l6.1,3.2
	c1.5,0.9,3,1.8,4.4,2.8l0.4,0.3l1.7,1.9c0.2,0.3,0.7,0.6,0.8,0.9S768.4,333.8,768.7,334.3z"/>
<path d="M927.7,529.7c-5.2-20.6-11.8-40.9-15-61.9c-1.7-11.2-2.2-22.6-1.4-33.9l1,0.2c2,0.7,3.9,1.5,5.9,2c3.5,0.7,7.2,0.7,10.3-1.3
	c4.6-2.9,5.2-8.5,4.3-13.4c-0.9-4.9-3.8-11.1-6.7-16c-4-6.7-8.5-13.1-13.6-19c-10.4-12.5-22.8-24.4-37.1-32.4l-4.8-2.5l-2-0.9
	c-1.1-0.3-2.3-0.7-3.3-1.3c-0.7-0.7-0.2-0.6,0.5-1.1c2.2-2,4.3-3.7,5.1-6.6c1.6-5.4-1.7-10-3.7-14.8s-3.1-9.3-5.2-13.9
	c-8.5-18.1-23.6-32.2-40.3-43.1l4.5-1.3c2.8-0.8,4-3.5,3.5-6.2c-5.2-29.7-28.3-51.3-53.9-65c-6.2-3.3-12.5-6.2-19-8.8
	c2.8-1.7,5.8-3,8.9-3.9c3.4-0.9,5.2-5.9,2.2-8.3c-26-21.4-60.1-27.9-93-25.3l3.1-6.6c1.1-2.4,0.8-5.5-1.8-6.8
	c-10.6-5.7-21.7-11.6-33.7-13.3s-21.7,0.8-31.8,5.2c-13.4-10.4-31.8-13.5-48.4-14.2c-19.3-0.9-39.5,1.6-57.7,8.1
	c-8.4,3-16.7,6.9-23.3,12.9c-1.6,1.6-2,4.1-0.8,6.1c1.1,2.3,2.1,4.6,3.2,6.8c-16.1-1-32.3,0.2-48.1,3.3c-16.5,3.5-32.6,10.1-45,21.8
	c-1.9,2-1.9,5.1,0.1,7.1c0.6,0.6,1.3,1,2.1,1.2c3.4,1,6.6,2.4,9.5,4.3c-16.5,8.5-31.3,20.8-44.6,33.5c-6.7,6.2-13,12.9-18.9,20
	c-3.9,4.9-8.3,10.1-10.5,16c-0.8,2.3-1.1,5.1,0.3,7.3c1.4,2.2,3.6,2.7,5.9,3.4l4.6,1.3c-13,11.5-26.9,22.1-38.2,35.2
	c-2.9,3.2-6,6.6-8,10.4c-1.7,3.3-3,6.7-4,10.2c-1.7,6.1-3.8,15.5,1.9,20.2c2,1.5,4.2,2.9,6.5,3.9l-3.9,3.1
	c-8.9,6.9-17.6,14.1-26,21.6c-9.2,8-17.9,16.6-26.1,25.6c-5.6,6.4-12.7,14-14.8,22.6c-0.9,3.9-0.4,8,2.8,10.8s6.7,3,10.4,2.3
	c1.4-0.2,2.7-0.6,4-1.1c-18.6,36.5-38.1,76.7-30.9,118.5c2.3,12.7,7,24.8,13.8,35.7c1.4,2.4,4.5,3.1,6.9,1.7
	c0.3-0.2,0.7-0.4,0.9-0.7l2.8-2.6c6.2,33,21.5,63.9,42.9,89.7c6.9,8.3,14.4,16,22.4,23.2c2.9,2.5,9.2,1.1,8.6-3.6
	c-0.1-0.3-0.1-0.6-0.1-0.9c0-0.1,0-0.1,0.1-0.1v-0.2h0.1c0.1-0.3,0.3-0.6,0.5-0.8l0.2-0.4l1.1-1.1l1.8-1.4c3.3-2.3,7.1-4,11.1-4.8
	c1.6-0.4,3.3-0.6,5-0.4c0.9,0,1.8,0.4,2.4,1.1c3,2.7,3.7,8,4.4,11.8c1.6,7.6,3.4,15,8.4,21.1c2.8,3.3,6.9,5.5,11.2,4
	s6.9-5.5,8.7-9.4c2.3-5.3,4.2-10.8,5.5-16.5c3.7-14.6,6-29.6,8.2-44.5c1.8-12.6,3.3-25.4,5.5-38.1l1.9,0.2l2.8,0.2
	c-0.2-0.1-0.3-0.1,0.1,0h-0.1c0.2,0,0.3,0.1,0.4,0h0.5c2.3,1.6,5.4,1.1,7-1.2c1.3-1.8,1.2-4.3-0.2-6c-2.2-2.2-5-2.9-8.1-3.1h-2.8
	c0-0.1,0-0.1-0.1-0.2c-0.1-0.3-0.1-0.6-0.1-0.9l-0.6-4.4c-0.4-3.1-0.8-6.3-1.3-9.4l-1.2-8.3c0-0.2-0.1-0.5-0.1-0.6s-0.1-0.6-0.1-0.9
	l-0.3-2.2c-0.2-1.8-0.3-3.6-0.6-5.3c-1-4.4-2.8-9.1-7.1-11.3c-2.4-1.2-5.1-1.7-7.8-1.4c0-1.7,0.1-3.4,0.2-5.2l0.3-3V551l0.3-1.8
	c0.3-2.1,0.7-4.1,1.2-6.1c1.9-8.3,4.6-16.3,7.2-24.4c1.5-4.6,2.9-9.2,4.1-13.8c0.6-2.4-0.8-5.7-3.5-6.2c-4.2-0.6-8.5-0.6-12.7,0.1
	l-3,0.5V499c0.2-1,0.3-2,0.5-2.9c0.7-3.7,1.8-7.2,3.1-10.7l0.8-2.2c0,0,0,0.1,0,0.1c0.1-0.2,0.2-0.5,0.3-0.6l0.6-1.5l2.6-4.9
	c1.8-3.2,3.9-6.3,6.1-9.3h-0.1c0-0.1,0-0.1,0.1-0.1l0.3-0.5l0.9-1.1c0.6-0.7,1.3-1.4,1.9-2.2c0.6-0.8,2.6-2.9,3.9-4.2
	c2.8-2.8,5.7-5.4,8.7-7.9l1-0.8l0.5-0.4l2.4-1.8c1.6-1.1,3.2-2.3,4.9-3.3c3.4-2.2,6.8-4.2,10.4-6.1l5.9-2.8l1.6-0.7h0.2l0.5-0.2
	l3.1-1.2c4.2-1.6,8.5-3,12.8-4.1c4.3-1.1,4.8-6.9,1.2-9.1l-13.1-8.1l1.6-0.3l3.2-0.6l1.6-0.2h4.2l3.5-0.4c4.5-0.3,9-0.4,13.5-0.3
	l6.7,0.4l3.2,0.3l1.7,0.2h0.9c5.1,0.8,10.1,1.8,15,3.1c2.7,0.7,5.4-0.9,6.1-3.6c0.2-0.8,0.2-1.7,0-2.5c-1.4-5.1-2.5-10.3-3.5-15.5
	l-0.3-1.7c0-0.3,0-0.5-0.1-0.8v-0.4c0-1-0.3-2.1-0.3-3c-0.1-1.1-0.1-2.2,0-3.3c0-0.3,0.1-0.6,0.1-1v-0.5c0.1-0.3,0.1-0.6,0.2-0.9
	c0.1-0.3,0.3-0.9,0.4-1.4l0.3-0.6l0.3-0.4c0.3-0.3,0.5-0.4,0.4-0.2l0.4-0.5c-0.2,0.1-0.4,0.1,0.1-0.2h0.2l0.4-0.3l1.2-0.7l0.6-0.3
	c0.6-0.1,1.1-0.5,1.6-0.6c1.1-0.4,2.3-0.7,3.5-0.9l1.1-0.2c0,0,0.1,0,0.3,0l1.3-0.2c2.5-0.2,5-0.2,7.5,0l2.1,0.2h0.2l0.9,0.2l4,0.8
	l3.8,1.1l0.7,0.3h0.2l1.5,0.7c2.4,1.4,5.4,0.6,6.8-1.8c0.9-1.6,0.9-3.5,0-5.1c-3.6-5-6.7-10.4-9.2-16.1c-1.1-2.4-4.8-3.2-6.9-1.8
	c-2.3,1.5-3.1,4.4-1.8,6.8c0.8,1.8,1.7,3.5,2.6,5.2l-2.8-0.4c-5.6-0.7-11.4-0.3-16.9,1c-5.3,1.4-10.8,4.2-13.2,9.5
	s-2.2,11.3-1.3,17.1c0.5,3.5,1.2,7.1,1.9,10.6c-15.9-3.2-32.3-3.4-48.3-0.6c-5.1,0.9-10.2,2.1-15.2,3.6c-2.7,0.8-4.2,3.7-3.4,6.4
	c0.4,1.2,1.1,2.2,2.2,2.8l13.7,8.4c-12.2,4.2-23.7,10.4-33.9,18.3c-13.2,10.2-24.3,23-30.7,38.5c-3.5,8.3-5.4,17.2-5.5,26.2
	c-0.1,4,4.2,5.9,7.5,4.3l0.4-0.2l0.8-0.3l2.3-0.7c1.5-0.4,3-0.7,4.5-0.9h2.9c-4.3,14.9-10.3,29.4-11.8,45.1
	c-0.6,5.4-0.3,10.8,1,16.1c0.6,2.2,2.5,3.7,4.8,3.7c1.9-0.1,4.3-1.4,4.8-3.5h2c-0.2-0.2-0.2-0.2,0.1,0h0.4l0.2,0.2
	c0.1,0.1,0.1,0.2,0.2,0.2c0.1,0,0.1,0.3,0,0.2c0.2,0.1,0.3,0.3,0.3,0.5c0.1,0,0.1,0.2,0.2,0.3l0.3,1.1c0.1,0.4,0.9,2.3,0.7,2.6
	c0,0.3,0,0.7,0.1,1c0,0.7,0.1,1.5,0.2,2.2c0.7,5.6,1.6,11.2,2.4,16.7c0.2,1.3,0.3,2.5,0.5,3.7v1l0.3,2.3c0.2,1.2,0.3,2.4,0.4,3.5
	c0.1,1.1-0.1,0.5-0.2,0.8c-5.3,27.7-7.2,56-13.5,83.6c-1.3,5.9-3,11.7-5.1,17.3c-0.1,0.3-0.1,0.3-0.1,0.4s-0.1,0.2-0.2,0.4
	c-0.3,0.4-0.5,0.9-0.7,1.4c-0.5,0.9-1,1.9-1.6,2.8c-0.1,0.1-0.1,0.1-0.1,0.2c0,0,0,0,0,0c-0.2,0.4-0.3,0.3-0.2,0.2l-0.4,0.5h-0.1
	c-0.2-0.3-0.4-0.5-0.7-0.7l-0.4-0.5c-0.4-0.5-0.8-1.1-1.1-1.7c-4.5-7.2-4.1-15.8-7.2-23.6c-1.9-4.9-5.2-9.7-10.5-11.2
	s-9.9-0.5-14.5,1c-4.6,1.5-12.1,4.9-16.1,9.8c-24-22.9-42.5-51.5-52.3-83.3c-2.9-9.5-5-19.2-6.4-29c-0.5-3.9-5.9-4.6-8.3-2.2
	l-4.9,4.8c-8.7-16.3-12.3-34.9-10.4-53.3c1.9-20.6,9.5-40.5,18-59.2c5.1-11.3,10.8-22.4,16.4-33.5c0.8-1.5,1.1-3.6,0-5
	c-2.7-3.8-6.5-4.7-10.8-3.6c-4.3,1.1-6.6,2.7-9,2.6H236c0-0.2,0.1-0.5,0.1-0.7c0,0.2,0,0.3,0,0.5c0-0.3,0-0.7,0.2-1.2l0.3-0.9
	c0-0.1,0-0.1,0.1-0.2c0.8-1.6,1.6-3.2,2.5-4.7l3.6-5.1l0.7-0.8l1-1.2l2.5-3c14.7-16.9,31.9-31.9,49.5-45.7l1.6-1.2
	c0-0.1,0.1-0.1,0.1-0.2l0.4-0.2l2.7-2.1l4.4-3.1l2.7-1.7h0.7c3.3-1,4.3-4.5,3-7.4c-1.3-2.9-3.4-2.7-5-3.5l-7.6-3.9l-2.1-1.3
	l-0.2-0.5c-0.1-0.3-0.1-0.7-0.1-1c0-0.9,0.1-1.7,0.1-2.5c0.2-1.6,0.6-3.1,1-4.6c0.7-3.1,1.7-6,3.1-8.8c1.6-3.3,4.2-6.1,6.6-8.9
	c6.2-6.9,12.9-13.3,19.9-19.3c8.3-7.1,16.8-14.1,24.7-21.7c1.9-2,1.9-5.1-0.1-7.1c-0.6-0.6-1.3-1-2.1-1.2l-9.9-2.9l-1.8-0.4
	c2.5-4.4,5.5-8.5,8.8-12.3c11.7-13.8,25-26.2,39.5-37c8.4-6.6,17.5-12.2,27.1-16.8c3.1-1.3,3-5.7,1-7.8c-3.2-3.4-7-6.2-11.1-8.3
	c10.3-7.4,22.8-11.7,35.3-14.2c17.3-3.5,35.2-3.7,52.7-2.2c4.1,0.3,5.8-4.4,4.3-7.5l-5.2-11.1l0.3-0.2c1.4-1,2.9-1.9,4.4-2.8
	c3.1-1.7,6.2-3.1,9.5-4.4c8.3-3.1,16.8-5.3,25.5-6.6c17.5-2.9,36.3-3.3,53.7,1.1c8,2,16.1,5.3,22,10.6c1,0.9,2.3,1.4,3.7,1.3
	c0.8,0,1.6-0.2,2.3-0.6c9.1-4.3,19-7.2,29.1-5.4c10.1,1.8,17.5,5.6,25.6,9.9l-4.8,10.2c-1.5,3,0.2,8,4.3,7.5
	c29.8-3.7,62.3-0.5,87.6,16.6c-4,2.1-7.6,4.8-10.7,8.1c-2.7,2.9-1.3,7,2.2,8.3c26.3,9.6,54.1,24.6,67.7,50.2
	c2.5,4.8,4.4,9.9,5.6,15.1l-10.8,3.2c-2.7,0.8-4.2,3.5-3.4,6.2c0.3,1.2,1.1,2.3,2.2,2.9c13.5,7.8,26.2,17.2,36.2,29.3
	c4.3,5.4,8,11.4,10.8,17.7c1.3,3.1,2.2,6.2,3.3,9.3s3.6,6.2,4.1,9.4c0.1,1.2-0.8,1.4-2.1,2.5c-1.6,1.2-2.8,2.8-3.6,4.7
	c-1.4,3.8-0.4,8,2.4,10.9c2.2,2.3,5.4,3,7.7,4.1c2.4,1.1,4.7,2.3,6.9,3.7c10,6.1,18.8,14.2,26.8,22.7s14.3,16.7,19.5,26.4
	c2,3.7,3.1,5.8,4,10.1c0.1,0.3,0.2,0.7,0.2,1v0.2c0,0.7-0.3,2.4,0.1,1c-0.1,0.3-0.1,0.7-0.2,0.9H923c-0.5,0.1-0.9,0.2-1.4,0.1
	c-3-0.3-5.7-1.9-8.5-2.5c-2.8-0.6-6.9-0.6-9.5,2c-2.6,2.6-2.4,8.6-2.6,12.5c-0.7,16.5,1.7,33.1,5.4,49.2
	c3.7,16.1,8.1,30.2,11.9,45.5s6.2,28.1,5.5,42.5v0.4l-2.3-2.2c-2.4-2.4-7.8-1.7-8.3,2.2c-5,35.1-19.7,68-42.5,95.1
	c-5.1,6.1-10.6,11.9-16.4,17.4c-3.2-3.6-8.6-5.5-14-5.6c-11.3-0.1-18.1,7.8-24.2,16.3c-2.7,3.6-5.5,7.7-9.6,9.7
	c-3.2,1.5-6.8,1.9-10.2,1.2c-0.9-0.2-1.7-0.7-2.4-1.3c-1-1.4-0.2-4,0.4-6c1.6-5.8,1.8-11.5-0.8-17c-3.3-7.2-11.1-11.3-18.6-10.9
	c4.8-19.6,3-40.5,9-59.9c2-2.3,2.5-5.9,2.7-8.9s0.7-7.9,1.1-11.8c0.2-1,0.3-2.1,0.4-3.1l0.2-1c0-0.3,0-0.5,0.1-0.8
	c0.3-2.1,0.6-4.1,1-6.2s0.9-4.5,1.5-6.6l0.3-1.2l0.7-0.8c0.1,0,0.1,0,0.1-0.1h0.2l0.9-0.5h1.3c0.2,0.7,0.7,1.4,1.2,1.9
	c1.1,1.2,2.7,1.7,4.3,1.4c1.5-0.2,2.8-1.1,3.6-2.4c0.7-0.9,1.2-1.9,1.5-3c7.8-15.9,8.1-34.4,2-51c-0.7-2-1.5-3.9-2.3-5.8
	c2.6,1,5.6-0.4,6.5-3c0.3-0.9,0.4-2,0.2-3c-3.3-15.5-12.3-29.2-24-39.7s-27.2-19.4-42.6-25.6c-5.1-2-10.3-3.9-15.6-5.5
	c-0.4-0.7-0.9-1.2-1.5-1.7c0.9-0.6,1.8-1.1,2.7-1.5l1-0.4l0.4-0.2l2.4-0.8c6.1-2,12.6-2.9,18.9-3.9c2-0.3,3.4-2.4,3.6-4.2
	c0.3-2-0.7-4-2.4-5c-16.3-11.6-36-20.6-56.5-17.3c-2.8,0.4-5.5,1.1-8.1,2c0.7-7.9,0-15.9-3.7-23.2c-1.1-2.4-2.8-4.6-4.8-6.3
	c-2.2-1.6-4.5-3-7-4c-4.4-1.7-9.2-2.4-13.9-2.3c-2.4,0.1-4.8,0.3-7.2,0.8c-0.1-0.7-0.4-1.4-0.7-2c-1.6-3-4.7-4.9-7.9-6
	c-6-1.9-14.2-1.1-19.4,2.7c-2.1,1.6-3.4,4.4-1.8,6.9s4.6,3.4,6.8,1.8l1.5-1l0.7-0.3c1.1-0.4,2.2-0.7,3.4-0.9h4.3l0.9,0.2l1.4,0.4
	l0.6,0.3c-0.1,0.1,0.1,0.2,0.4,0.4l-0.1-0.1h0.2c-0.1-0.2-0.2-0.4,0.1,0h-0.1c0,0.1,0.1,0.1,0.1,0.2v0.3c0,0.2-0.1,0.4-0.1,0.6h-0.1
	c-0.1,0.5-0.2,0.5-0.1,0.3s-0.3,0.6-0.4,0.7c-1.1,2-0.7,4.4,0.8,6.1c1.7,1.5,4.1,1.8,6.1,0.8l1.1-0.6h0.4c0.9-0.4,1.8-0.6,2.7-0.9
	l2.7-0.5h2.2c2-0.1,4.1-0.1,6.1,0.1h0.4l1.3,0.2l3,0.8l1.4,0.5h0.2c0,0.1,0,0.1,0.1,0.1l2.6,1.4l0.6,0.3c0,0.1,0,0.1,0.1,0.2
	l0.5,0.4c0.2,0.2,0.3,0.4,0.5,0.5l1,1.5c0.3,0.6,0.6,1.1,0.8,1.6l0.6,1.2c0.4,1,0.7,2,1,3s0.5,2.3,0.7,3.5c0.1,0.2,0.1,0.3,0.1,0.5
	c0.1,0.7,0.1,1.3,0.2,2c0.1,2.6,0,5.3-0.3,7.9c0,0.6-0.1,1.2-0.1,1.7s-0.1,0.1-0.1,0.2c0,0.3,0,0.6-0.1,0.9c-0.2,1.3-0.4,2.6-0.7,4
	c-0.7,2.7,0.8,5.4,3.5,6.1c1.3,0.4,2.7,0.2,3.9-0.5l3.1-1.7l1-0.4h0.2l0.6-0.2l1.2-0.5c2.2-0.8,4.4-1.4,6.7-1.8l1.6-0.3h0.7l3.5-0.3
	c2.3,0,4.6,0.1,6.9,0.3h2.4l3.4,0.7c2.2,0.5,4.4,1.1,6.5,1.8l3.1,1.2l1.8,0.7l1,0.4c2.1,0.9,4.1,1.9,6.1,3l2.5,1.4
	c-10.2,2.2-20.1,5.9-25.6,15.3c-0.2,0.3-0.4,0.7-0.5,1.1c-0.5,1.3-0.3,2.9,0.6,4c0.6,0.9,1.4,1.6,2.4,2h0.5l2.5,0.7
	c6.9,1.8,13.7,4,20.3,6.5l5.6,2.2c0.1,0,0.1,0,0.1,0.1h0.4l1.4,0.6l2.8,1.3c3.6,1.6,7.2,3.4,10.6,5.4c3.5,1.9,6.8,4,10.1,6.2
	l4.7,3.3l0.4,0.3l1.1,0.9l2.2,1.9c2.9,2.4,5.6,5,8.1,7.7l3.6,4.2c0.1,0.1,0.2,0.2,0.3,0.4c0.3,0.3,0.5,0.7,0.7,1
	c0.6,0.7,1.1,1.5,1.6,2.3c2.3,3.4,4.3,7,6,10.7l0.2,0.6l0.6,1.4l0.3,0.9c-1.7,0-3.3,0.1-5,0.4c-3.1,0.6-4.5,4.8-3,7.4
	c1.2,1.8,2.2,3.7,3.2,5.6c0.4,0.9,0.8,1.8,1.3,2.7l0.3,0.7l0.2,0.5c0,0.1,0,0.1,0.1,0.2l0.3,0.9c1.5,3.9,2.7,8,3.5,12.1
	c0.2,1,0.4,1.9,0.5,2.9c0.1,0.2,0.1,0.5,0.1,0.7c0.1,0.6,0.1,1.1,0.2,1.6c0.2,2.1,0.3,4.1,0.2,6.2c0,2.1-0.2,4.2-0.4,6.2
	c0,0.2-0.1,0.4-0.1,0.7s-0.1,0.9-0.2,1.3s-0.5,2.1-0.7,3.2c-0.6,2.3-1.3,4.7-2.2,6.9c0,0.1-0.1,0.2-0.1,0.4
	c-0.9-0.2-1.7-0.3-2.6-0.3c-4.8-0.2-9.5,2.1-12.2,6.1c-1.4,1.9-1.7,4.4-2.2,6.5s-1,4.6-1.4,7c-0.8,4.9-1.4,9.8-1.9,14.8
	c-0.2,2.5-0.5,5.1-0.7,7.6v0.4l-0.6,1.1l-0.3,0.8h-0.6l-1.4,0.2c-2,0.1-4.1,0.5-6,1.1c-2.4,0.8-4.4,2.4-5.8,4.5
	c-1.4,2.1-1.8,4.9-2.3,7.3c-1.1,4.8-2.1,9.6-3.5,14.3c-0.3,1.2-0.7,2.4-1.2,3.6c-0.1,0.5-0.3,1-0.5,1.4c-0.1,0.2-0.1,0.4-0.2,0.6
	L754,641c-1.1,2.4-2.4,4.8-3.9,7c-1.4,2.4-0.6,5.5,1.8,6.9c2.4,1.3,5.4,0.5,6.8-1.8c4.5-6.6,7-14.2,8.8-21.9
	c0.8-3.6,1.5-7.3,2.4-10.9c0.1-0.5,0.3-0.9,0.4-1.4v-0.2l0.3-0.3h0.1l1.9-0.5c-4.8,21-2.5,43.2-10.4,63.6c-1.9,4.8,5,8.2,8.3,4.9
	s6.6-2.6,9.6-1.2s5.2,4.9,5.5,8.4c0.3,5.3-2.9,10.1-1.9,15.5c0.8,4,3.4,7.3,7.1,9c7.1,3.4,16.6,1.9,23-2.4
	c7.9-5.4,11.2-15.2,18.8-20.9c2.8-2.1,6.4-2.9,9.9-2.2c1.6,0.1,3.1,0.7,4.3,1.7c0.5,0.3,0.8,1,0.8,0.9c-0.7,4.8,4.3,8.4,8.3,4.9
	c27.8-24.7,49.1-56.5,60.2-92c2.2-6.9,3.9-13.8,5.2-20.9l2.7,2.6c2.5,2.5,7.7,1.6,8.4-2.2C935.9,568.5,932.5,548.8,927.7,529.7z
	 M386.1,604.5H386C385.7,604.4,385.5,604.1,386.1,604.5z M367.8,569.9c0,0,0,0,0.1,0C367.8,570.1,367.8,570,367.8,569.9z
	 M368.3,569.4c0.1-0.2,0.1-0.3,0.1-0.5C368.5,569,368.4,569.2,368.3,569.4z M249,431.6h-0.3C248.9,431.5,249,431.5,249,431.6z
	 M236,424.6C235.9,424.5,236,424.5,236,424.6L236,424.6z M304.2,351.8C305.4,352.3,304.9,352.8,304.2,351.8L304.2,351.8z
	 M639.6,371.3h0.7C640.3,371.5,639.8,371.3,639.6,371.3z"/>
</svg>
