<?xml version="1.0" encoding="utf-8"?>
<!-- Generator: Adobe Illustrator 24.2.3, SVG Export Plug-In . SVG Version: 6.00 Build 0)  -->
<svg version="1.1" id="e9ce08c9-efaa-4c18-b260-9ebf1b1b8eda"
	 xmlns="http://www.w3.org/2000/svg" xmlns:xlink="http://www.w3.org/1999/xlink" x="0px" y="0px" viewBox="0 0 1152 864"
	 style="enable-background:new 0 0 1152 864;" xml:space="preserve">
<path d="M883.5,399.3c-3.5-8.1-7.3-16-10-24.5s-3.5-17.9-2.8-27.4s2.4-18,2.1-27.1c-0.4-8.6-2.3-17.1-5.8-25
	c-6.5-15.1-16.7-28.3-23.3-43.3c-6.6-15-10.5-33.3-20.6-47.6c-4.9-7.1-10.8-13.3-16.9-19.4s-12.4-12.2-20-16.3
	c-7.6-4.1-15.3-5.6-23.1-2.9s-12.5,8.6-16.9,14.9c-18.9,27.2-30.7,58.4-43.6,88.7c-6.5,15.2-13.2,30.4-21.3,44.8
	c-8.1,14.4-18.5,28.1-29.3,41.4s-21.3,28.6-21.1,46.4c0,4.2,0.7,8.3,2,12.3c0.6,1.3,1,2.8,1.3,4.2v0.7h-1.9
	c-8.4,0.1-16.9-0.5-25.2-1.7c-17.5-2.1-34.9-5.5-52.6-5.7c-8.6-0.2-17.2,0.7-25.6,2.6c-8.5,2-16.5,5.4-24.7,8.4
	c-6.6,2.4-13.2,4.4-20.2,5c-9-53.2-62.5-83.5-89.4-127c-14.2-23-23.5-48.6-36.1-72.5c-11.2-21.2-25.9-43-48.4-53.5
	c-5.6-2.7-11.5-4.5-17.6-5.4c-7-0.9-12.8,1.6-16.8,7.4s-7.4,12.9-11,19.3c-3.6,6.4-7.4,13.3-11.2,19.9c-7.3,13-14.7,25.9-21.8,39.1
	c-7.1,13.2-12.9,25.5-16,39.4c-6.2,28.7,2.2,58.9,10.6,86.3c1,3,2,6,3.1,8.9c-0.3,1-0.4,2.1-0.2,3.1c0.2,0.8,0.3,1.5,0.5,2.2
	c0.2,0.7,0.1,0.7,0.1,1.1v0.2c0.1,1.6,0.2,3.1,0.2,4.7c0.1,2.9-0.1,5.9-0.5,8.8c0,0.2,0,0.5-0.1,0.7c0,0.2,0,0.5-0.1,0.6l-0.3,2
	c-0.2,1.7-0.5,3.3-0.8,4.9l-1.8,8.9c-1.1,6.2-2.2,12.5-2.2,18.8c-0.1,6.1,0.8,12.1,2.5,17.9c1.9,6.8,5,13.1,9,18.9
	c0.5,0.7,1,1.2,1.7,1.7c2.6,14.8,8.6,29.3,16,41.7s16.1,22.1,25.8,32s19.2,19.1,24.1,31.6c2.2,5.8,3.3,12,2.2,18.2
	c-0.3,1.4,0.1,3,1,4.1c-1.3,3.5-2.3,7.1-3.2,10.8c-1.8,7.3-2.7,14.8-2.9,22.3c-0.1,8.5,0.8,17.1,2.8,25.4c0.7,2.6,3.5,4.2,6.1,3.5
	c2.6-0.8,4.2-3.5,3.5-6.2c-0.4-1.8-0.8-3.6-1.1-5.5c-0.3-1.9-0.3-1.5-0.4-2.3c-0.1-0.8-0.1-0.6-0.1-0.8s-0.1-1-0.2-1.5
	c-0.4-3.6-0.6-7.1-0.6-10.7c0-3.6,0.2-7.3,0.6-10.9c0-0.4,0.1-0.8,0.1-1.2c0.1-0.1,0.1-0.2,0.1-0.3v-0.2c0.1-0.9,0.3-1.9,0.4-2.8
	c0.1-0.9,0.7-3.7,1.1-5.5c1.7-7.1,4.4-14,6.6-21c2.2-7.1,3.3-14.4,3.3-21.8c0-8.3-1.5-16.6-4.5-24.4c-0.9-2.4-3.4-4.3-6.1-3.5
	s-4.5,3.6-3.5,6.2c1.3,3.4,2.3,6.9,3,10.5c0.2,0.7,0.3,1.5,0.4,2.2c0.1,0.3,0.1,0.6,0.2,0.9c0.1,0.3,0.1,0.8,0.1,0.9
	c0.2,1.8,0.3,3.6,0.4,5.4c0.1,1.8,0,3.1,0,4.7c-6.5-16.2-21.1-29.5-32.9-42l-2.4-2.6c4-0.1,7.9-0.9,11.7-2.1c4.7-1.8,9.1-4.3,13-7.4
	c7-5.4,12.6-12.4,18.7-18.9c1.5-1.6,3.1-3.2,4.8-4.7l2.3-2.1l1.1-0.9h-0.1l1-0.7c1.7-1.3,3.5-2.4,5.4-3.4l1.2-0.6h-0.1l0.6-0.3
	l3.3-1.1l3.1-0.6c0.1,0,0.2,0,0.2-0.1h0.8l2.2-0.3c3.3-0.2,6.4-0.9,9.4-2.3c1.4-0.6,2.6-1.6,3.6-2.8c1.1-1.4,2-2.9,2.8-4.5
	c0-0.2,0.1-0.4,0.2-0.6l0.4-0.4l0.3-0.3l0.5-0.2h0.2c0.5-0.3,0.4-0.1,0.1,0l1.3-0.4h2.8c-0.3,0-0.4-0.1,0.1,0h0.2l1.1,0.3l2,0.5
	l1,0.4c0.7,0.2,1.4,0.5,2,0.9l4,2.5c3.3,2.2,6.8,4,10.5,5.4c-5.8,3.8-11.6,7.5-16.6,12.3c-6.7,6.5-11.8,14.4-14.9,23.2
	c-0.7,2.6,0.8,5.3,3.4,6.1h0.1c2.6,0.7,5.3-0.8,6.1-3.4l0.9-2.4l0.3-0.5l0.6-1.5c0.9-1.7,1.8-3.4,2.8-5l1.5-2.2
	c0.2-0.4,0.5-0.8,0.8-1.1l0.4-0.5c0-0.1,0-0.1,0.1-0.1c0.1,0,2.5-3,3.8-4.4c1.4-1.4,2.8-2.7,4.3-3.9l1-0.8l0.3-0.2l0.2-0.2l2.4-1.7
	c3.2-2.3,6.6-4.4,9.9-6.6c6.9-4.5,13.4-9.4,18.5-15.9c2.6-3.4,5-6.9,7.3-10.4l3.4-5l1.8-2.5l0.7-0.9c0-0.1,0.1-0.1,0.1-0.2l0.6-0.7
	c6-7.5,13-14.1,19.9-20.6c1.8-2.1,1.6-5.2-0.5-7.1c-1.9-1.6-4.6-1.6-6.5,0c-6.4,5.8-12.4,11.9-18.1,18.4
	c-5.5,6.4-9.7,13.6-14.6,20.4c-1.6-4.8-2.8-9.8-3.7-14.8c-0.1-0.9-0.3-1.8-0.4-2.7v-0.3c0-0.5-0.1-1-0.2-1.5c-0.2-2-0.3-3.9-0.4-5.8
	c-0.2-3.8-0.2-7.6,0-11.4c0.1-1.9,0.2-3.8,0.5-5.7c0-0.5,0.1-0.9,0.1-1.4s0.1-0.2,0.1-0.3c0.1-1,0.3-2,0.5-3.1
	c0.6-3.7,1.5-7.4,2.5-11.1c2.3-7.5,5.8-14.8,7.2-22.6c1.2-7,0.5-14.2-2-20.9c-2.5-6.3-5.9-12.2-10-17.6c-4.2-5.6-8.8-11-13.1-16.5
	l-0.9-1.1c-0.1-0.2-0.3-0.5-0.5-0.6l-0.3-0.5l-0.9-1.1l-3.1-4.4c-2.1-3.1-4-6.3-5.7-9.6c-0.9-1.7-1.7-3.3-2.5-5.1
	c-0.4-0.7-0.7-1.5-1-2.3c-0.1-0.1-0.2-0.3-0.2-0.4l-0.6-1.4c-1.3-3.5-2.5-7-3.5-10.6c-0.9-3.5-1.7-7.1-2.2-10.7
	c-0.1-0.4-0.1-0.8-0.2-1.2c0-0.1,0-0.3-0.1-0.4l-0.3-3l-0.3-5.3c-0.1-1.8-0.1-3.7,0-5.5c0-2.7-2.4-5.2-5-5c-2.8,0-5,2.2-5,5
	c-0.3,15.3,2.8,30.5,9.1,44.5c3,6.8,6.8,13.3,11.2,19.4c4.2,5.7,8.7,11.1,13.1,16.6l1.5,1.8l0.3,0.4l0.8,1.1c1.1,1.4,2,2.7,3,4.1
	c1.9,2.6,3.5,5.4,5,8.3l1.1,2.1c0.1,0.3,0.2,0.7,0.4,1c0.1,0.1,0.1,0.2,0.1,0.3c0.6,1.5,1.1,3,1.5,4.5c0.2,0.7,0.3,1.4,0.5,2.1
	s0.1,0.7,0.2,1v0.5c0.2,1.5,0.3,3,0.2,4.5v1.3c-0.1,0.2-0.1,0.5-0.1,0.7v0.5c-0.1,0.1-0.1,0.1-0.1,0.2c0,0.2,0,0.5-0.1,0.7l-0.3,1.5
	c-0.4,2-1,3.9-1.6,5.8c-1.2,3.8-2.6,7.5-3.9,11.2c-2.6,7.5-4.2,15.4-5,23.3c-1.6,15.6,0.2,31.4,5.4,46.2c0.4,1.3,0.9,2.6,1.4,3.9
	l-0.3,0.3c-0.1,0.1-0.1,0.2-0.2,0.2c-1.1-0.5-2.3-0.7-3.5-0.4h-2.8c-1.4-0.2-2.7-0.6-3.9-1.2c1.1,0.4-0.1-0.1-0.3-0.2l-1.1-0.5
	l-1.8-1c-1.4-0.8-2.7-1.6-3.9-2.5c-5-3.2-10.3-5.6-16.3-6c-2.9-0.2-5.9,0.4-8.5,1.7c-2.9,1.5-4.6,4-6,6.9c-0.1,0.3-0.3,0.6-0.5,0.9
	c0,0.1-0.1,0.2-0.2,0.3v0.2l-0.3,0.2l-0.8,0.5c-0.1,0.1-0.2,0.1-0.2,0.1c-0.6,0.2-1.2,0.4-1.9,0.5l-1.4,0.2h-1.3l-5.3,0.6
	c-18.9,2.9-29.2,20.9-42.3,32.7l-2.7,2.3l-0.7,0.6h0.1c-0.5,0.4-1,0.8-1.6,1.1c-1.9,1.4-4,2.6-6.2,3.5l-0.8,0.3l-1.9,0.6
	c-1.5,0.5-3,0.8-4.6,1.1h-0.5l-1.6,0.2h-8.7c-12.3-16.4-21-35.8-22.8-56.3c-0.7-6.6-0.4-13.2,0.8-19.7c1.3-6.5,4-12.2,6.9-18.1
	c2.9-5.9,5.4-11.6,4.7-18c-0.7-6.4-4-11-8.1-15.5c-4.1-4.5-7.9-8.9-10.7-14.5c-2.5-5.7-4.6-11.6-6.1-17.7c-3.9-14.1-8-28.3-9.7-42.9
	c-1.7-14.6-0.8-28,3.6-41.5c4.4-13.5,11-25,17.6-36.8l22-39.2l10.8-19.4c2.5-4.4,5.1-12.8,11.2-12.9c6.1-0.1,11.5,2.4,16.4,4.8
	c5,2.4,9.7,5.5,13.9,9.1c8.7,7.3,15.7,16.3,21.7,25.9c13.9,22.3,23.1,47.1,35.1,70.4c6,11.9,13.2,23.3,21.4,33.8
	c8.3,10.6,17.7,20.4,27,30.1c17.6,18.4,36.4,37.7,45.3,62.1c2.2,5.7,3.6,11.6,4.4,17.6c0.3,2.8,2,5,5,5c17.9,0.3,33.2-9.2,50.1-13.5
	s33.7-2.6,50.2-0.5c16.5,2.1,34,5.4,51.1,5.3c3.9,0,7.9-0.4,10.6-3.4s2.7-7.3,1.8-11.1c-0.9-3.8-2.1-6.2-2.5-9.5
	c-0.5-4.4-0.2-8.8,1-13.1c4.4-16.6,17-29.2,27.4-42.3c5.3-6.8,10.2-13.9,14.8-21.3c-0.5,1.4-1,2.8-1.4,4.2
	c-2.2,6.6-4.3,13.3-4.7,20.3s1.9,13.7,5.1,20s6,11.2,9.2,16.7s6.4,11,10,16.2c3.7,5.5,7.8,10.8,12.2,15.8c2,2.4,4.2,4.7,6.3,7.1
	l2.9,3.4c0,0.1,0.6,0.9,0.5,0.7l0.3,0.5c0.5,0.7,1.1,1.4,1.5,2.1c1,1.4,1.8,2.9,2.6,4.4c0.4,0.7,0.8,1.5,1.1,2.3l0.2,0.3
	c0,0.1,0.4,1,0.4,1.2c1.1,2.9,1.9,6,2.4,9.1v0.2c0.1,0.4,0.1,0.9,0.2,1.3c0.1,0.4,0.1,1.6,0.1,2.4c0.1,1.6,0,3.3-0.1,4.9
	c0,0.4,0,0.7-0.1,1.1v0.5c0,0.5-0.1,1.1-0.3,1.6c-7.9-5.1-15.9-9.9-24-14.7l-9.7-5.7c-3.3-1.9-6.7-4-10.4-5c-2.6-1-5.5,0.3-6.5,2.9
	c-1,2.6,0.3,5.5,2.9,6.5c0.3,0.1,0.7,0.2,1,0.3l1.7,0.6l0.5,0.2l1,0.5l3.9,2.3l8.1,4.7c5.3,3.1,10.6,6.2,15.8,9.4
	c10.5,6.4,20.9,13.1,30.8,20.4l4.1,3l1.1,0.9l0.7,0.5l1.6,1.3l1.8,1.5l0.6,0.6l0.3,0.4c0.1,0.1,0.2,0.2,0.2,0.4
	c-0.9,2.3,0,4.9,2.1,6.2c2.4,1.4,5.4,0.6,6.8-1.8c2.3-3.6,1.2-7.7-1.2-10.9c-2.4-3.2-5-4.6-7.7-6.7c-2.7-2.1-7.2-5.4-10.9-8l1.1-1.5
	c0.2-0.2,0.4-0.4,0.5-0.7c0.1,0,0.1,0,0.1-0.1l1.5-1.8c1.8-2.1,3.8-4.1,5.9-5.9c0.9-0.9,1.9-1.7,3-2.6l0.7-0.5l0.9-0.5
	c0.3-0.1,1.3-0.4,0.2-0.1l0.8-0.3h1.3l2.1,0.7l0.8,0.3h0.1c0,0.1,0.1,0.1,0.2,0.1c2.2,1.1,4.4,2.3,6.4,3.7l1.6,1.1l0.6,0.4l0.5,0.4
	l0.3,0.3l0.6,0.5l1.7,1.3c3.8,3.3,7.4,6.7,11.2,9.9c3.8,3.2,7.9,6.1,12.3,8.4c4.4,2.2,9.1,3.9,13.9,5.1c9.6,2.2,19.6,2.4,29.3,0.6
	c4-0.7,7.9-1.7,11.6-3.2c-5.4,5.5-10.5,11.3-15.2,17.4c-10.1,13-18.2,27.4-24.1,42.8c-3.3,8.6-5.7,17.4-3.6,26.5s7.1,16,10.9,23.8
	c11.8,23.5,17.7,49.4,17.2,75.7c0,6.4,10,6.4,10,0c0.2-17.9-2.3-35.7-7.5-52.8c-2.7-8.8-6.1-17.4-10-25.8c-3.7-7.7-9-15.1-10.9-23.6
	s2-17.7,5.3-25.5c3.2-7.4,6.9-14.6,11.2-21.4c8.9-14.5,20.1-26.8,32.5-38.3c6.3-5.9,12.6-12.1,16.6-19.8c3.6-7,5.6-14.7,5.9-22.6
	C895.5,430.4,890,414.2,883.5,399.3z M352.3,486.7c0,0.1,0,0.2-0.1,0.2C352.3,486.8,352.3,486.8,352.3,486.7z M234.8,438
	c0.1-0.2,0.1-0.5,0.1-0.7c0.1-0.2,0.1-0.4,0.1-0.6l0.3-2l0.9-4.7c1.2-6.2,2.5-12.4,3.3-18.7c0.2-1.4,0.3-2.9,0.4-4.4
	c2.1,2.2,4.2,4.4,6.2,6.9c3.8,5.1,3.5,10.1,1,15.8c-2.5,5.7-6.3,12.3-8.2,19c-1.2,4.2-2,8.4-2.4,12.7c-0.7-2.3-1.2-4.6-1.6-6.9
	c-0.1-0.3-0.1-0.7-0.2-1c-0.1-0.7-0.2-1.4-0.2-2.1c-0.2-1.4-0.2-2.9-0.2-4.3C234.3,444,234.5,441,234.8,438z M875.6,471.6l-1.6,1.8
	h-0.1c-2.1-2-4.9-1.8-7.1,0l-0.9,0.8h-0.2l-0.7,0.5l-2.9,2c-1.9,1.2-3.9,2.3-6,3.2l-1.3,0.6h-0.1l-0.6,0.3l-3.4,1.2
	c-2.2,0.7-4.4,1.3-6.7,1.8l-3.4,0.6H840l-2,0.2c-2.2,0.2-4.5,0.3-6.8,0.3s-4.6-0.2-6.9-0.5h-0.8l-1.7-0.3l-3.6-0.7
	c-2.2-0.5-4.3-1.1-6.4-1.9l-1.5-0.6l-0.9-0.3h0.2c-1.1-0.4-2.1-0.9-3.1-1.5c-2-1-4-2.2-5.9-3.5l-1.4-1l-0.8-0.6h-0.1l-3-2.4
	c-7.7-6.7-15-14.4-24.5-18.5c-3.7-1.7-7.8-3-11.9-1.8s-6,3.3-8.6,5.5c-2.7,2.3-5.2,4.8-7.4,7.5c1-9.4-0.5-18.8-4.5-27.4
	c-2.9-5.7-6.6-11-11-15.6c-2-2.4-4.2-4.7-6.3-7.1c-2.1-2.4-2-2.3-2.9-3.5l-1.4-1.8l-0.2-0.2l-0.2-0.2c-0.2-0.4-0.5-0.8-0.8-1.1
	c-7.6-10.2-13.8-21.3-20-32.4c-1.6-2.8-3.1-5.6-4.5-8.5c-0.1-0.3-0.3-0.5-0.4-0.8l-0.3-0.8l-0.7-1.8c-0.6-1.6-1-3.2-1.3-4.8v-0.4
	c0-0.1-0.1-0.9-0.1-1c-0.1-1.5-0.1-3.1,0-4.6c0-0.3,0-0.7,0.1-1v-0.5c0.1-0.1,0.1-0.2,0.1-0.5c0.6-3.2,1.4-6.4,2.4-9.6
	c2.1-6.9,4.5-13.7,7.3-20.4h0.1V320l0.6-1.5l1.1-2.4c0.7-1.7,1.5-3.4,2.3-5.1c1.7-3.4,3.4-6.7,5.2-10c1.4-2.4,0.6-5.5-1.8-6.9
	c-0.9-0.5-2-0.7-3-0.6c11.4-24.7,20.8-50.3,32.9-74.7c3.6-7.3,7.4-14.4,11.6-21.4s7.9-13.7,13.6-18.8c13.5-12.1,29.8,5.2,39,14.3
	c6,6,11.9,12.2,16.5,19.4s7.7,15,10.5,23s5.6,16.1,9.2,23.8c3.6,7.7,7.7,14.5,11.9,21.6c4.2,7.1,8.2,13.9,11,21.4
	c2.9,7.8,4.2,16,3.7,24.3c-0.4,9.1-2.1,18.1-2.3,27.2c-0.2,8.9,1.2,17.8,4.2,26.2C874.3,407.9,898.4,443.4,875.6,471.6z"/>
</svg>
