<?xml version="1.0" encoding="utf-8"?>
<!-- Generator: Adobe Illustrator 24.2.3, SVG Export Plug-In . SVG Version: 6.00 Build 0)  -->
<svg version="1.1" id="a9d27c0e-af18-42d4-9678-a174cee70356"
	 xmlns="http://www.w3.org/2000/svg" xmlns:xlink="http://www.w3.org/1999/xlink" x="0px" y="0px" viewBox="0 0 1152 864"
	 style="enable-background:new 0 0 1152 864;" xml:space="preserve">
<path d="M381.6,348l0.7,0.3c2.4,1.1,5.5,0.7,6.8-1.8s0.8-5.6-1.7-6.8c-6.7-3.3-14.1-4.2-20.9-0.6c-6.8,3.6-10.2,9.4-13,15.4
	c-3.6,7.8-6.3,16-8,24.4c-2.1,9.4-3.6,19-4.9,28.6c-1.3,9.6-2.3,18.4-3.3,27.7c-0.3,2-0.5,4-0.7,6s-0.3,1.8-0.4,2.7
	c-0.1,0.9-0.1,0.8-0.1,1.2v0.2c-0.1,0.1-0.1,0.2-0.1,0.3v0.3c-1.1,8.1-2.2,16.2-3.2,24.3c-3.8,31.4-7.3,62.4-15.1,93.3
	c-3.4,13.8-7.8,27.3-13.2,40.5l-0.8,1.8l-0.9,2.2l-2.4,5.1c-1.5,3.2-3.1,6.3-4.8,9.4l-1.2,2.3c1.6-8.1,2.8-16.3,3.6-24.5
	c1-8.7,1.4-17.4,1.4-26.2c-0.1-3.8-0.9-8-3.6-10.8c-2.6-2.7-6.6-3.6-10.1-2.3c-2.5,1.1-4.8,2.7-6.7,4.7V565l0.3-3.6
	c0.1-0.7,0.1-1.3,0.2-2c0.1-0.4,0.2-0.9,0.2-1.3c0.9-5.1,2.2-10.1,3.9-15c0.8-2.5,1.7-4.9,2.7-7.4c0.3-0.6,0.5-1.3,0.8-2
	c0.1-0.3,0.2-0.4,0.2-0.4c0,0,0,0,0-0.1c0-0.2,0.1-0.3,0.2-0.3l1.6-3.9c2.3-4.9,4.6-9.8,7-14.7c4.7-10,9.5-20.2,12.7-30.8
	c1.6-5.5,2.8-11,3.6-16.7c0.5-4.9,0.7-9.9,0.4-14.9c0-2,0-3.9,0.1-5.8c0-0.1,0.1-0.3,0.1-0.4l0.3-1.5c0.2-0.4,0.3-0.9,0.5-1.3v-0.2
	c0.1-0.1,0.2-0.3,0.2-0.4l0.8-1.3l0.4-0.5c0.8-0.9,1.6-1.8,2.5-2.6l0.6-0.5h0.2l0.2-0.2l1.8-1.2c1.7-1.1,3.4-2,5.1-2.9
	c2.2-1.6,2.7-4.8,1.1-7c-1.4-1.9-3.9-2.6-6.1-1.6c-5.4,2.7-10.5,6-14,10.9c-2.4,3.6-3.7,7.9-3.8,12.2c-0.2,4.2,0.3,8.5,0.1,12.8
	c0,1.3-0.1,2.7-0.3,4c0,0.6-0.1,1.2-0.2,1.8v0.7c-0.1,0.3-0.2,0.6-0.2,0.9c-0.4,2.7-0.9,5.4-1.6,8c-1.3,5.4-3.1,10.7-5.2,15.8
	l-0.7,1.8l-0.5,1.1c-0.5,1.3-1.1,2.6-1.7,3.9c-0.6,1.3-2.3,5.2-3.5,7.7c-4.8,10.2-9.9,20.2-13.8,30.7c-3.9,10.5-7,24.1-6,36.6
	c0,1.8,0.9,3.4,2.4,4.3c3,1.5,6.6,1.4,9.4-0.4c2.3-1.3,4-3.2,5.9-5l0.9-0.6c-0.2,0.1-0.2,0,0.1-0.2h0.2c0.1-0.2,0.3-0.3,0.5-0.3
	c0-0.1,0.1-0.1,0.2-0.2c0.1,0.1,0.1,0.2,0.1,0.3l0.3,0.9c0,0.2,0.1,0.8,0.1,0.9v0.6c0.2,8.3-0.1,16.7-1.1,25
	c-0.8,8.3-2,16.5-3.6,24.6c-1.8,9.4-4.2,18.7-7.1,27.9c-0.6,2.2,0.3,4.5,2.3,5.7c1.8,0.9,4.7,1,6-0.8c17.9-22.7,29.9-49.1,38.1-76.7
	c8.8-29.7,13-60.5,16.8-91.2c2.9-23.2,5.7-45.6,8.4-68.8l0.9-7c0.1-1.1,0.3-2.2,0.4-3.3v-0.6l0.3-2.2c0.7-4.6,1.4-9.3,2.2-13.9
	c1.5-8.7,3.6-17.3,6.4-25.7l0.9-2.5c0.1-0.5,0.3-1,0.5-1.4l0.3-0.6c0.7-1.6,1.4-3.2,2.2-4.7c0.8-1.4,1.6-2.8,2.6-4.1l0.7-1h-0.1
	c0.2-0.1,0.2-0.2,0.2-0.3l1.5-1.6l1.5-1.4l0.9-0.5c0.5-0.4,1-0.7,1.5-0.9l1-0.4l1.6-0.4h2.9l1.2,0.2l2.2,0.7h0.2
	c0-0.1,0.2,0,0.4,0.1C381.7,348,381.8,348,381.6,348z M275.7,568.6h-0.4H275.7C275.8,568.6,275.8,568.6,275.7,568.6z"/>
<path d="M503.4,252.2l11.2,1.2c1.5,0,3-0.8,3.9-2c1.1-1.4,1.1-2.7,0.9-4.4s-1.1-5.9-1.6-8.9c-0.1-0.7-0.2-1.5-0.4-2.2
	c0,0,0-0.3,0-0.5c0-0.3-0.1-0.6-0.1-0.7c-0.2-1.6-0.2-3.2-0.1-4.8c0-2.8-2.2-5-5-5s-5,2.2-5,5c-0.3,4.4,0.5,8.6,1.3,12.9l-26.7-2.7
	c-2-0.3-4.3,1.7-4.8,3.6c-0.6,2.2,0.4,4.5,2.3,5.7c6.7,3.5,13.2,7.4,19.4,11.7l1.1,0.9l0.4,0.3l2.3,1.9c1.3,1.2,2.7,2.4,3.9,3.7
	l1.8,2l0.7,0.9l0.2,0.2l0.2,0.3c1,1.3,1.8,2.7,2.5,4.1c-14.3-7.3-29.9-12.9-46-12.6c-16.1,0.3-32.3,7.7-45.9,17.2
	c-9.6,7-18.9,14.4-27.8,22.3c-1.9,1.9-2,5-0.1,6.9c0,0,0,0,0.1,0.1c1.9,2,5.1,2,7.1,0l12.4-10.5l5.7-4.5c0-0.1,0.5-0.4,0.6-0.5h0.1
	l1.4-1l2.8-2.2c6.7-5,13.9-9.2,21.5-12.7l0.4-0.2l1.2-0.5l2.7-1l5.2-1.6l5.4-1.1l1.1-0.2h0.5l2.8-0.3c3.8-0.2,7.5-0.1,11.3,0.3
	c0.4,0.1,1.9,0.4,0.4,0l1.5,0.3l3.1,0.5l6.1,1.5c2.5,0.7,4.9,1.5,7.4,2.4l3.6,1.4l1.8,0.8l1.1,0.4c5.8,2.6,11.4,5.5,16.9,8.6
	c2.5,1.3,5.6,0.4,6.9-2.1c0.4-0.7,0.6-1.5,0.6-2.3C524.5,270.7,514.3,260.1,503.4,252.2z"/>
<path d="M918.1,639.8c-7.2-10.9-15.3-22.5-18-35.3c1.2,2.2,2.4,4.4,3.7,6.6c3.9,6.9,10.6,13.9,19.2,14.1c11,0.4,9.9-14.9,10.5-22.3
	c2.5-33.1,2.1-66.4-1.3-99.5c-1.1-10-2.5-20.1-4.6-30c-1-4.3-2-8.6-3.3-12.8c-0.3-0.8-0.5-1.5-0.7-2.2l1.3,0.6
	c2.5,1.2,5,2.5,7.7,1.1c2.7-1.4,4.3-4.6,5-7.3c1.5-6.1-0.8-12.7-2.4-18.5s-3.8-13.9-6-20.7c-8.8-27.7-20.3-54.4-34.3-79.8
	c-3.9-7.2-8.1-14.2-12.4-21.1c-3.1-4.9-8.3-11-9.2-17.1l8.5,0.3c4.1,0.2,8.3,0.7,11.8-1.9c6.2-4.6,3.7-12.8-0.2-17.9
	c-8.9-11.6-18-23-28-33.7c-19.2-20.5-41.1-38.8-65.6-52.6c-23.5-13.5-49.5-22.2-76.4-25.7c-5.1-0.6-10.2-1-15.3-1.2
	c3.4-2.8,7-5.5,9.8-8.8s4-6.1,3.1-9.7c-0.9-3.6-4.5-5.8-8.3-6.5c-9.6-1.8-19.2-1-28.8,0.9c-4.6,0.9-9.3,2-13.9,3.2l-7.2,1.9
	c-1.5,0.4-3.8,1.4-5.5,1.3c0-0.7,0.1-1.4,0.3-2c0.4-1.6,1.1-3.1,2-4.4c1.8-2.9,4.1-5.6,6.6-7.9c5.2-5.1,10.8-10,13.8-16.8
	c1.7-3.9-1.1-8.4-5.7-7.3c-27,6.2-51.4,21-74.2,36.4l-1.3,0.6l-8,4.9c-2,1.2-4.8,3.7-7.3,3.8c-2.5,0.1-4-2-5.4-3.6
	c-1.4-1.6-3.6-3.4-6.4-3.4c-4.9,0.1-10.2,5.1-13.7,8.1c-3.1,2.9-6,6.1-8.5,9.5l-2.4-2.1c-1.4-1.3-2.7-2.7-4-4.1
	c-2.7-3-5.2-6.1-7.8-9.1c-5.7-6.6-12.1-12.5-19.1-17.7c-13.4-10.4-29-17.6-45.6-21.2c-0.5-0.2-1.1-0.2-1.6-0.1h-0.5
	c-0.8,0.1-1.6,0.5-2.2,1c-1.8,1-2.6,3.2-1.9,5.2c4.2,10.2,8.7,20.4,12.6,30.7c0.5,1.3,1,2.6,1.4,4c0.2,0.8,0.3,1.7,0.3,2.6
	c-1.3-0.4-3.6-0.6-4.9-0.9c-11.6-2.8-23-6.4-35-7.1c-7.1-0.4-22.8-1.6-23.5,8.8c-0.3,4.6,3,8.3,6,11.4l6.9,7.8
	c-15.4,4.2-30.5,9.4-45.3,15.4c-8.7,3.6-17.2,7.4-25.6,11.5c-8.4,4.1-15.4,8.6-23.1,12.8c-15.8,8.8-31,18.7-45.3,29.8
	c-14,10.5-27.2,21.9-39.6,34.3c-5.6,5.7-13.8,14.6-8.6,23.1c2.4,4,8.9,4.6,13.2,4.5c2.7-0.2,5.4-0.5,8.1-1l1.8-0.4
	c-0.4,4.6-4.1,9.2-6.3,12.7c-3.4,5.3-6.6,10.7-9.8,16.1c-6.1,10.4-11.9,21-17.2,31.9c-10.7,21.6-19.6,44-26.4,67.1
	c-1.9,6.4-3.8,13-5.3,19.6c-1.5,6.6-0.9,12.8,4,16.9c1.6,1.6,4.1,1.9,6.1,0.8c1.3-0.7,2.7-1.2,4.2-1.5c-0.1,1.4-0.1,2.8,0,4.2
	c0.1,1.1,0.4,2.2,0.9,3.2c-2.9,23-5.3,46.1-7.1,69.3c-1,14-1.8,28.1-2.2,42.2c-0.2,6.9-0.3,13.9-0.3,20.8s0.7,12.6,5.1,16.7
	c4.4,4.1,12.2,6.9,18,3.8c2.1-1.2,3.9-2.7,5.5-4.5l1.4-1.5c-0.1,1.3-0.3,2.9-0.4,3.5c-0.4,2.9-0.9,5.8-1.5,8.7
	c-1.4,5.9-3.3,11.6-5.5,17.2c-4.4,11.4-10.2,22.1-14.8,33.4c-2.1,5.3-3.7,10.7-5,16.2c-1.1,4.7-2.5,9.7-2.1,14.6
	c0.4,4.9,1.9,8.6,5.4,11.3c1.8,1.5,3.9,2.5,6.1,2.9c3.5,0.6,5.8-1.4,8.4-3.4c6.9-5.2,12.8-11.5,17.6-18.6c0,1.2-0.2,2.5-0.4,3.7
	c-1.1,5.6-1.7,11.4-1.9,17.1c-0.1,5-0.3,11.3,1.7,15.9c1.7,3.9,4,7.4,7,10.4c7.1,6.8,17.6,6.9,25.5,1c7.9-5.9,10.7-13.7,13.6-22.2
	c2.9-8.5,4.9-16.3,10.9-21.9c3.1,2.2,4.3,6.6,5.4,10c1.1,3.4,3,9.2,5,13.6c1.7,4.2,4.5,7.7,8.2,10.3c4.6,2.9,10.1,3,15.3,1.8
	c6.7-1.3,12.3-5.8,16.6-10.9c4.7-5.6,9-11.5,13-17.7c9.3-13.6,17.5-27.9,24.7-42.7c3.7-7.6,7.3-15.2,10.6-23
	c3.3-7.8,6.2-15.7,7.3-24.2c2.1-16.8-2.3-33.2-5.6-49.5c-3.3-16.3-6.8-34.2-9.3-51.4s-4.3-33.5-4.3-50.3c0.2-31.2,8.5-61.8,24-88.8
	c15.1-26.3,35.9-49.2,58.7-68.9l8.7-7.4c2.1-1.7,1.8-5.3,0-7.1c-1.8-1.8-4.9-1.7-7,0c-23.6,19.3-44.8,41.3-61.7,66.6
	c-17.8,26.5-28.8,57-31.9,88.7c-1.5,16.2-0.5,32.5,1.2,48.6c1.7,16.1,4.6,34.4,7.8,51.5c1.6,8.6,3.3,17.2,5.1,25.7
	c1.8,8.5,3.7,16.1,4.4,24.2c0.9,7.4,0.5,14.8-0.9,22.1c-1.8,8-5.3,15.7-8.7,23.1c-6.6,15-14.2,29.6-22.7,43.7
	c-4.3,7.1-8.8,13.9-13.6,20.6c-3.6,5.1-7.2,10.7-12.3,14.4c-2,1.6-4.3,2.7-6.8,3.1c-4.1,0.9-7.1,0.2-9.4-2.7s-3.9-7.6-5.2-11.5
	c-1.3-3.9-2.8-9.8-5.4-14c-1.7-2.8-4-5.1-6.7-6.9c-1.5-1-3.3-1.6-5.1-1.8c-2.3,0-4.1,1.7-5.7,3.1c-9.6,8.3-11.8,21.5-16.4,32.8
	c-2.1,5.3-5.4,11-11.2,12.8c-5.8,1.8-9.8-1.7-12.6-6.6c-2.8-4.9-2.1-7.2-2.2-11.1c-0.1-4.6,0.2-9.1,0.9-13.6
	c0.6-4.6,1.8-9.1,1.4-13.8c-0.1-1.1-0.2-2.1-0.4-3.2v-0.3c0-3-2.1-6.2-3.5-8.7c-0.1-0.2-0.2-0.4-0.4-0.6c-0.8-1.2-2.2-1.9-3.7-1.8
	c-1.8-0.2-3.6,0.8-4.5,2.4c-5.4,10.6-12.7,20.2-22.5,27.1c-4.7-2.6-1.9-10.9-0.9-15.3c2.2-9.7,5.8-18.5,10-27.5
	c4.2-9,8.9-19,12.3-29c1.6-4.8,3-9.7,3.9-14.7c0.9-4.7,2.1-10.2,1.1-14.9s-4.1-7.6-8.9-7.1s-6.8,2.9-9.4,5.7c-0.9,0.8-2,2.4-3.2,2.7
	s-3.6-0.6-4.8-1.4c-3.7-2.5-3.4-7.8-3.3-11.8c0.1-22.9,1.2-45.8,3.1-68.6s4.2-44.5,7.1-66.7c0.8-3.5,0.9-7.4,1.3-10.4
	c0.2-1.7-0.6-3.3-2.1-4.1c-1.2-0.9-2.8-1.2-4.2-0.8c-0.4,0.1-0.8,0.3-1.2,0.5c-1.9,1.2-4.3,1.3-6.5,1.7s-2.4,0.6-3.6,0.9
	c-1.1-4,1.5-10,2.4-13.4c1.8-6.8,3.8-13.6,6-20.3c4.2-13.2,9.1-26.1,14.7-38.8c5.7-12.8,12-25.3,18.8-37.5
	c3.5-6.2,7.1-12.4,10.8-18.5c3.7-6.1,8-11.9,10.8-18.4c1.5-3,2.2-6.4,2-9.8c-0.3-3.8-1.7-6.1-5.2-7.4s-6.1-0.3-9.2,0.2
	c-3.1,0.5-7.1,1.1-10.5,0.2c0.1-0.3,0.4-1.1,0.4-0.9c0.6-1.4,1.4-2.7,2.4-3.9c2.1-2.7,4.5-5.3,7-7.6c5.1-5,10.4-9.9,15.8-14.6
	c10.8-9.3,22.1-18,33.7-26.3c11.6-8.3,24.5-15.7,37.4-22.8c7.2-3.9,14.2-8,21.6-11.6c7.4-3.6,15.1-6.8,22.8-9.9
	c15.8-6.3,32.1-11.5,48.6-15.7c3.8-1,4.6-5.6,2.2-8.4c-3.9-4.3-7.6-8.7-11.5-13c-1-1.1-2-2-2.9-3.2c-0.1-0.1-0.2-0.3-0.3-0.5
	l3.7-0.6h6.7c5.7,0.2,11.3,0.9,16.8,2.3c5.6,1.3,11.1,2.9,16.7,4.3c5.6,1.4,8.8,2.5,13,1c7.3-2.6,6.3-11.2,4.3-17.1
	c-2.7-7.9-6.1-15.7-9.5-23.5c18.3,5.9,34.8,16.5,47.8,30.7c3.7,4,7.1,8.4,10.8,12.5c3.7,4.1,8,9.1,12.9,9.8s8.7-6.4,12-9.9
	c1.6-1.8,3.4-3.4,5.3-4.9l3.2-2.3l1.2-0.7c1.3,1.6,5.2,4.1,5.8,4.5c2.8,1.4,6,1.9,9.1,1.3c3.2-0.6,6.1-2.6,9-4.3l6.6-4
	c0.7-0.2,1.3-0.4,1.9-0.8c18.6-12.6,38.2-25,59.6-32.5c-5.5,5.6-11.7,10.7-14.5,18.4s-1,15.3,7.4,16.2c3.4,0.3,6.9-0.9,10.1-1.7
	l12.7-3.3c8.3-2,16.8-3.6,25.4-3.2c2,0.1,3.9,0.3,5.9,0.6h0.4c-1.4,1.5-2.9,2.9-4.5,4.2c-3.6,3-7.5,5.7-10.6,9.2s-4.3,9.5,1.3,11.3
	c2.4,0.8,5.1,0.4,7.6,0.4s7.1,0.3,10.6,0.6c6.5,0.5,13.1,1.3,19.5,2.6c12.9,2.5,25.5,6.3,37.6,11.3c24.7,10.2,47.3,25.5,67.1,43.3
	c11.9,10.7,22.9,22.3,33,34.6c2.7,3.2,5.3,6.4,7.8,9.7c2.4,2.7,4.5,5.5,6.5,8.5c0.6,0.8,1,1.7,1.2,2.7h-0.3
	c-1.2,0.1-2.3,0.1-3.5-0.1l-15.1-0.6c-2.2,0-4.2,1.5-4.8,3.6c-2.5,12.5,6.4,22.8,12.5,32.7s12,20.5,17.3,31
	c10.8,21.4,19.8,43.6,26.8,66.5c2,6.3,3.8,12.7,5.5,19.1c0.7,2.7,2.8,7.9,2.1,11.4c-2.5-1.2-5.2-2.7-7.8-3.8s-9.8-1-9.8,4.7
	c0,1.9,0.9,3.3,1.5,4.9c0.6,1.6,1.5,4,2.1,6c1.3,4.1,2.4,8.2,3.4,12.3c4.3,19,6,38.6,6.9,58s0.8,37,0,55.4
	c-0.2,6.6-0.6,13.2-1.1,19.8c-0.2,2.2-0.5,4.5-0.7,6.7v0.3c-0.1,0.5-0.1,0.6-0.1,0.1c0,0.3,0,0.5-0.1,0.8v0.2
	c-1.9-0.8-3.8-1.7-5.5-2.9l-1.7-1.5c0.5,0.5,0.2,0.3,0,0l0,0c-0.1-0.1-0.1-0.1-0.1-0.2c-0.3-0.4-0.6-0.8-0.8-1.2
	c-1.2-1.9-2.2-3.8-3.3-5.7c-3.6-6.5-9.4-20.3-19-16.3c-1.7,0.8-2.3,2.7-2.5,4.4c-3.5,32,25.9,53.9,35.8,81.7
	c1.7,4.7,3.1,9.6,2.7,14.6s-1.1,10-1.8,14.9s-1.8,12-2.8,18c-0.2,0.8-0.3,1.5-0.5,2.3c-2.3-4.1-4.6-8.2-7.1-12.3
	c-5.8-9.5-13.9-17.6-19.3-27.6c-1.7-3.2-6.9-3.3-8.6,0c-7.1,13.4-13.7,29-8.4,44.1c1.9,5.5,4.3,10.8,6.4,16.1c1.1,2.6,2,5.2,2.8,7.9
	c0.7,2,1,4,1.1,6.1c-0.4,0-0.8,0-0.6,0.1c-1.2-0.2-2.3-0.6-3.4-1.1c-5.7-2.6-10.4-7.4-14.5-12.1s-7.2-9.1-8.8-13.3
	s-3.2-10.2-4.7-15.3c-1.9-7-4.2-14-7-20.7c-2.4-5.9-5.3-12-10.7-15.7c-1.5-0.9-3.5-0.9-5,0c-6.4,3.2-8.7,11.8-10.3,18.2
	s-2.6,13.6-4.3,20.4s-1.5,14-2.9,20.8c-0.3,1.5-0.7,3-1.2,4.4c-0.3,0.5-0.6,1-1,1.5l-3-1.4c-7.6-4.2-14.4-9.5-19.6-16.6
	s-10.5-17.6-14.2-27.1c-7.5-19.3-13-39.9-25.6-56.7c-4.9-6.5-8-12.8-8.6-21.1s0.3-18.3,2-27.3c3.6-19.7,9.6-38.9,12.7-58.7
	c3.6-23.2,9.9-46,12.5-69.4c1.3-11.5,1.3-23.1-0.2-34.5c-1.7-10.4-4.7-20.6-9-30.2c-16.6-38-49-66.9-79.8-93.4l-11.4-9.8
	c-4.8-4.1-11.9,2.9-7,7.1c31.4,26.8,65.1,54.4,84.9,91.5c4.8,8.8,8.4,18.3,10.8,28c2.7,11.1,3.1,22.5,2.3,33.8
	c-1.6,24.1-8.3,47.3-12.2,71c-3.4,20.2-9,39.9-12.9,60c-3.3,17.1-6.2,37.7,3.7,53.2c2.6,4.2,5.9,7.9,8.5,12.2
	c2.8,4.5,5.2,9.2,7.3,14.1c4.2,9.5,7.3,19.4,10.9,29.1s7.8,19.7,13.5,28.6c5.1,8.2,11.8,15.3,19.8,20.8c5.2,3.5,13,9.5,19.5,5.8
	s7.1-12.2,7.9-18.5s1.7-12.5,3-18.9s2.5-15.4,5.2-22.6c0.3-1,0.7-1.9,1.2-2.8l1,1.6c1.5,2.6,2.7,5.3,3.8,8.1
	c2.5,6.5,4.4,13.1,6.3,19.7s2.8,10.7,5,15.7c2.9,5.9,6.6,11.3,11.1,16.1c4.4,5,9.6,9.9,15.6,12.9s12,4.2,16.4-0.1s3.3-9.2,2.2-13.8
	s-3.9-11.5-6.2-17c-1.3-3.1-2.6-6.2-3.7-9.4l-1.2-3.8c-0.1-0.5-0.3-1.1-0.4-1.7c0-0.2-0.1-1.2-0.1-1.3c-0.3-7.5,2.1-14.9,5.3-21.8
	c4.3,6.1,9.2,11.9,13.3,18.1c3,4.6,5.6,9.4,8.3,14.1c1.1,1.9,2.2,3.9,3.5,5.8l3.3-1.4c-1,0.7-2.1,1.3-3.2,1.6c0.7,1,1.4,2,2.3,2.9
	c2.2,2.4,5.6,3.5,8.4,1.4s2.2-3.4,2.7-5.5c1.1-5.2,1.9-10.5,2.7-15.7c1.1-6.7,2.1-13.4,3-20.2c0.5-4.1,1.4-8.4,1.1-12.6
	C937.1,668.1,926.8,653,918.1,639.8z M214.2,468.4C214.1,468.6,213.9,468.6,214.2,468.4L214.2,468.4z M248.9,293.2
	C249.5,293.6,248.5,294.7,248.9,293.2L248.9,293.2z M479.5,152.5C479.7,152.4,479.8,152.6,479.5,152.5L479.5,152.5z M702.3,168.4
	C702.4,168.4,702.4,168.4,702.3,168.4L702.3,168.4z M702.2,168.4C702.1,168.4,702.1,168.4,702.2,168.4l0.3-0.3L702.2,168.4z
	 M815,745.1c0-0.2,0-0.3,0.1-0.3C815,744.9,815,745,815,745.1z M890.5,757.2h-0.3C890.3,757.1,890.4,757.1,890.5,757.2z
	 M889.9,757.3c0.1,0,0,0.2-0.1,0.2l-0.1-0.2C889.8,757.3,889.8,757.3,889.9,757.3z"/>
<path d="M799.9,433.7c-2.5-19.4-4.6-39.1-10.3-57.9c-5-16.4-13.5-34.3-30.1-41.5c-2.1-0.9-4.3-1.7-6.5-2.3c-2.6-0.7-5.4,0.9-6.1,3.5
	c-0.7,2.6,0.9,5.4,3.5,6.1l2.8,0.9l1.3,0.5c0.1,0,1,0.2,0.3,0.1c-0.7-0.1,0.2,0.1,0.4,0.2c1.7,0.8,3.4,1.7,5,2.8l1.2,0.8h0.4
	l2.2,1.9c1.4,1.4,2.7,2.8,4,4.3l0.3,0.4c-0.1-0.1-0.1-0.1-0.1-0.1c0.1,0.1,0.2,0.2,0.3,0.4c0.1,0.1,0.1,0.1,0,0
	c0.2,0.3,0.4,0.5,0.5,0.8l1.8,2.6c1.1,1.8,2.1,3.6,3.1,5.5l1.4,2.9l0.6,1.3c0.1,0.2,0.1,0.5,0.2,0.7h0.1c0.9,2.2,1.7,4.3,2.4,6.5
	c3,9.1,5.2,18.4,6.8,27.9c0.8,4.8,1.5,9.6,2.2,14.4l0.3,1.8c0,0.2,0.1,1.2,0.1,1.3s0.3,2.1,0.5,3.2c0.2,1.1,0.6,4.6,0.8,6.9l0.9,6.8
	c0.1,0.5,0.2,1,0.2,1.5c0.1,0.6,0.2,1.1,0.2,1.7c0.1,0,0.1,0.2,0.1,0.4c0,0.2,0.1,0.5,0.1,0.6c0,0.1,0.1,0.9,0.1,1.3l0.3,2.6
	c0.6,6.4,0.8,12.9,0.7,19.3c-0.2,13.4-1.5,26.8-2.2,40.1c-0.7,13.3-0.9,26.6,0.9,39.7c1.7,12.6,5.5,24.9,11.3,36.3
	c11,22.6,27.4,42.1,43.1,61.6l5.6,7c1.3,1.7,4.3,1.9,6,0.8c2-1.1,2.9-3.4,2.3-5.6c-7.5-23.9-11.5-48.8-11.8-73.8V564v-0.2h0.1
	c0.1-0.1,0.1-0.2,0.2-0.2h0.3l0.9,0.6h0.1c0.3,0.4,0.7,0.7,1.1,1c1.1,1.1,2.3,2.2,3.5,3.2c1.5,1.4,3.3,2.3,5.3,2.8
	c3.3,0.7,7.3-0.4,8.5-3.9c0.3-1.2,0.4-2.5,0.4-3.8c0.1-1,0.1-2,0.2-3s0.4-3.9,0.5-5.9c1.4-16.4,2.8-32.9,1.3-49.4
	c-1.5-16.5-5.7-32.7-16.4-45.5c-5.4-6.3-12.1-11.4-19.6-14.9l-1.3-0.6l-1.8-0.8l-2.6-1.5l-0.5-0.5l-1-1c-0.4-0.4-0.8-0.8-1.1-1.2
	l-0.6-0.9c-0.6-0.9-1.1-1.8-1.6-2.7l-0.8-1.5c0-0.2-0.1-0.4-0.2-0.5c-0.1-0.1-0.1-0.2-0.1-0.3h-0.1c-0.8-2.2-1.5-4.3-2.1-6.6
	c-0.6-2.3-1.1-4.3-1.5-6.5c-0.8-2.7-3.5-4.2-6.2-3.5c-2.6,0.8-4.2,3.5-3.5,6.2c1.1,6.2,3,12.3,5.9,17.9c1.4,2.9,3.3,5.4,5.6,7.6
	c1.2,1.1,2.5,2.1,3.9,3l1.7,0.9l1.2,0.5l1.1,0.5c2.5,1.1,4.9,2.4,7.2,3.9l3.1,2.1l0.5,0.4l0.2,0.2l1.7,1.4c1.9,1.6,3.6,3.4,5.2,5.3
	l1.1,1.3h0.1c0.1,0.2,0.2,0.4,0.4,0.6l2.1,3.2c1.3,2.1,2.5,4.2,3.5,6.4c0.1,0.4,0.3,0.8,0.5,1.2l0.5,1.1c0.5,1.3,0.9,2.5,1.3,3.7
	c1.6,4.9,2.7,9.9,3.5,15c0.1,0.3,0.1,0.6,0.1,0.9c0,0.1,0.1,0.1,0.1,0.2c0,0.6,0.1,1.3,0.2,1.9c0.1,1.3,0.3,2.7,0.4,4.1
	c0.1,1.4,0.4,5.3,0.4,8c0.2,5.4,0.1,10.8-0.1,16.2c-0.4,9.6-1.2,19.2-2.1,28.7c-1.3-1.3-2.7-2.5-4.2-3.6c-2.5-1.8-5.5-2.4-8.5-1.8
	c-4.6,1.3-7.8,5.4-8,10.1c-0.2,4.5-0.1,8.9,0.2,13.4c0.1,4.3,0.4,8.6,0.8,12.8c0.8,9.3,2.1,18.4,3.8,27.5c0.4,2.1,0.9,4.1,1.3,6.1
	l-8.3-10.8c-7.7-9.9-14.7-20.3-20.9-31.2c-1.5-2.7-2.9-5.5-4.3-8.3c-0.6-1.3-1.2-2.6-1.7-3.9s-1-2.3-1.6-3.9
	c-2.2-5.6-3.9-11.4-5-17.3c-0.4-1.5-0.6-3.1-0.9-4.6c0-0.5-0.1-1-0.2-1.5l-0.3-2.7c-0.3-3.3-0.6-6.6-0.7-9.9
	c-0.3-6.5-0.2-13,0.1-19.5c0.6-13.5,1.9-26.9,2.3-40.3c0.2-6.6,0.3-13.1-0.1-19.7c-0.2-3.2-0.5-6.5-0.9-9.7
	c-0.1-0.8-0.2-1.7-0.4-2.5v-0.7C800.2,436,800.1,434.8,799.9,433.7z M861,561.4C861.2,561.4,861.1,561.5,861,561.4L861,561.4z
	 M860.6,561.1l0.3,0.1L860.6,561.1C860.6,561.2,860.6,561.2,860.6,561.1z"/>
<path d="M676,262.6l0.7,0.3l1.7,0.7l6,3.1c3.9,2.2,7.7,4.6,11.3,7.3l1.4,1c0,0.1,0.3,0.3,0.5,0.4c0,0.1,0,0.1,0.1,0.1l2.7,2.2
	l5.2,4.6c3.9,3.7,7.6,7.5,11.1,11.6l2.5,3l1.3,1.6l0.5,0.7l0.2,0.2c1.7,2.2,3.3,4.5,4.9,6.7s4.5,3.4,6.9,1.8
	c2.4-1.6,3.4-4.5,1.8-6.8c-11.4-16.4-25.5-31.2-42.7-41.5c-16.7-10.2-36.2-14.8-55.7-13.3c-8.6,0.7-17,2.5-25.1,5.3
	c0.9-1.9,1.7-3.7,2.6-5.5c1.2-2.4,2.5-4.7,4.1-6.8l0.5-0.7l1.4-1.6c0.9-1,1.9-2,2.9-2.9c0.4-0.4,1.3-1.5,1.9-1.6l-0.4,0.3l0.6-0.4
	l1.1-0.8c1.6-1.1,3.2-2.1,4.9-3c1.9-1.2,2.8-3.5,2.3-5.7c-0.7-1.9-2.6-3.8-4.8-3.6c-3.8,0.4-7.5,1-11.2,1.2c-1.4,0-2.9,0-4.3-0.2
	h-0.5c-0.1,0-0.1,0-0.1-0.1h-0.9c0-3.9-0.8-7.7-2.4-11.2c-1.2-2.7-3.2-5-5.7-6.6c-3.3-1.8-7.1-2.3-10.8-1.4c-2.6,0.7-4.1,3.4-3.5,6
	c0.8,2.6,3.5,4.2,6.2,3.5h1.8l1.1,0.4l0.4,0.3l0.5,0.4l0.2,0.3h0.1l0.2,0.2h-0.1l0.6,1.2l0.3,0.5c0.3,1,0.6,2,0.8,3
	c0,0.1,0,0.3,0.1,0.4v0.2c0-0.4,0.1,0.9,0.1,1.4c0.1,1.8,0.1,3.7-0.1,5.5c-0.3,2,1.7,4.4,3.6,4.8s5.1,1,7.7,1.3l-1.8,2.2
	c-3.4,4.6-6.3,9.7-8.4,15c-1.6,3.5-3,7-4.6,10.5s-1,4.5,0.8,6.1c1.7,1.5,4.1,1.8,6.1,0.7l1.9-0.8c0.1,0,0.1,0,0.1-0.1h0.1l1-0.4
	l3.9-1.5c2.6-0.9,5.1-1.8,7.7-2.5l7.6-1.9l3.7-0.6l1.7-0.3h1c4.8-0.6,9.6-0.8,14.4-0.6c2.2,0.1,4.5,0.3,6.7,0.6
	c0.3,0,0.6,0.1,0.9,0.1l1.3,0.2l3.7,0.7c4.4,1,8.7,2.2,12.9,3.8L676,262.6z"/>
</svg>
