<?xml version="1.0" encoding="utf-8"?>
<!-- Generator: Adobe Illustrator 24.2.3, SVG Export Plug-In . SVG Version: 6.00 Build 0)  -->
<svg version="1.1" id="f8317eda-d50e-453f-83cc-3c1a32920799"
	 xmlns="http://www.w3.org/2000/svg" xmlns:xlink="http://www.w3.org/1999/xlink" x="0px" y="0px" viewBox="0 0 1152 864"
	 style="enable-background:new 0 0 1152 864;" xml:space="preserve">
<path d="M1078.9,325.9c-6.9-6.6-16.3-10-25.4-12.2c-11.1-2.8-22.4-4.7-33.6-7.1c-48.8-10.5-97.2-22.8-145.1-36.9
	c-23.8-7-47.5-14.4-71-22.3c-11.9-4-23.7-8.1-35.5-12.4c-9.2-3.2-19-6.9-28.9-4.8c-2,0.5-3.9,1.3-5.7,2.3
	c-5.2,0.7-10.2,2.4-14.8,4.8c-13.5,7.1-22,20.3-28.5,33.6c-1.6,3.2-3.1,6.6-4.6,9.9c-0.3,0.5-0.4,1.1-0.5,1.7
	c-8.1,2.1-15.9,5.5-23.1,9.9c-6.5,3.9-13.1,8.5-20,11.1c-3.4,1.3-6.9,2.1-10.5,2.3l-4.3-0.2h-1l-2.6-0.5l-4.3-1.3l-1.9-0.7l-1.1-0.5
	l-0.6-0.2c-2.8-1.3-5.6-2.7-8.3-4.2c-5.6-3.1-11-6.5-16.6-9.4c-5.6-2.9-11-5.4-16.9-6.4c-6.6-1.2-13.4-0.3-19.5,2.5
	c-2.4,1.1-4.6,2.5-6.7,4.1l-0.7,0.5c-3.4,2.7-6.5,5.9-9.6,8.8c-5.1,4.7-10.3,8.6-17.6,9.6s-14.3-1-21.2-3.3s-15.3-6-23.1-8.9
	c-8.1-3.1-16.6-5-25.3-5.7c-6.6-18.8-18.9-35-35.1-46.5c-8.7-6.2-18.9-11.3-29.4-13.6c-12.5-2.8-25-0.3-36.8,4.4
	c-11.8,4.7-23.1,10.3-34.6,15.5C303,255,291.1,260,279.4,265c-23.2,9.8-46.7,19.2-70.3,28c-23.6,8.8-47.7,17.1-71.8,24.7
	c-17.9,5.6-37.2,11.4-50.9,25c-6.7,6.5-11,15.1-12.1,24.4c-1.4,11.3,3,22.4,9,31.7c6,9.3,14.5,18.5,22.3,27.1
	c7.8,8.6,16.1,17.2,24.4,25.5c16.8,16.7,34.3,32.7,52.4,47.8c18.1,15.1,37.4,29.7,57,43.2c4,2.8,8,5.4,12,8.1
	c1.3,23.8,8.9,46.9,21.9,66.9c3.8,5.9,8.2,11.5,12.9,16.7c1.7,2,5.3,1.9,7.1,0c1.9-2,1.9-5,0-7c-2-2.2-3.8-4.4-5.7-6.7
	c0-0.1-0.1-0.1-0.1-0.2h-0.1l-0.5-0.7l-1.2-1.6c-0.9-1.3-1.8-2.5-2.6-3.8c-3.3-4.8-6.2-9.8-8.8-15l-1.8-3.7l-0.9-1.9l-0.4-1
	c0-0.1-0.1-0.2-0.2-0.4c-1.1-2.7-2.1-5.4-3.1-8.1c-1.8-5.5-3.3-11.1-4.5-16.8c-0.3-1.5-0.5-3-0.8-4.5c-0.1-0.8-0.2-1.7-0.4-2.5V560
	c-0.1-0.4-0.1-0.8-0.2-1.2c-0.3-2.8-0.5-5.5-0.6-8.3c49.4-38,78.7-96.5,79.4-158.8c0-3,0-6-0.1-9c1-0.6,1.8-1.6,2.1-2.8
	c3-13.1,12.1-23.2,20.7-33.6c2.2,0.7,4.6-0.2,5.8-2.2c1.5-3,3.3-5.9,5.2-8.6c1.7-2.6,3.6-5,5.7-7.3c4.3-4.8,9.2-9.1,14.5-12.8
	c10.9-7.5,23.3-12.5,36.4-14.6l1.9-0.3h2l5-0.4c3.4-0.1,6.7-0.1,10,0.1l4.4,0.4l4.8,0.9c3.4,0.7,6.7,1.6,9.9,2.7c3,1,6,2.2,9,3.4
	c-0.3,0.4-0.5,0.9-0.6,1.4c-1.8,7.5,1.9,14.4,6.7,19.9c2,2.2,4.1,4.3,6,6.5l0.5,0.6c0,0.1,0,0.1,0.1,0.1v0.2l1.1,1.6l0.9,1.7
	c0.1,0.1,0.1,0.1,0.1,0.2c0.2,0.3,0.3,0.7,0.4,1c0.2,0.5,0.3,1.1,0.4,1.6v0.4c0.1,0.1,0.1,0.2,0.1,0.3c0,0.9-0.1,1.7-0.1,2.6v0.6
	c-0.1,0.2-0.1,0.4-0.1,0.6c-0.2,0.5-0.3,1.1-0.4,1.6l-0.6,1.7c-0.2,0.4-0.4,0.8-0.5,1.2c0.1-0.1,0.1-0.1,0,0.2c0,0-0.1,0.1-0.1,0.1
	c0,0,0,0,0,0c0,0,0,0.1,0,0.1l-0.3,0.6L491,354l-1.8,3.4c-1.2,2.1-2.4,4.2-3.5,6.3c-2.5,4.5-4.8,9.3-5.5,14.4
	c-0.8,5.6,0.1,11.4,2.7,16.5c4.8,9.3,13.9,15.5,21.4,22.4c9,8.4,16.3,20.4,29.9,21.4c2.6,0.2,5.1-2.5,5-5c-0.1-2.7-2.3-4.9-5-5
	c-0.4-0.1-1.4-0.3-0.1,0h-0.7l-1.8-0.5l-0.8-0.2l-0.4-0.2h-0.3l-0.9-0.5l-3-1.9l-0.7-0.5l-1.6-1.5c-3.8-3.5-7-7.5-10.7-11.1
	c-3.7-3.6-7.5-6.7-11.2-10c-1.9-1.7-3.6-3.4-5.3-5.2l-2.3-2.5c0-0.1-0.2-0.3-0.3-0.4V393l-1.1-1.6l-1.6-2.9l-0.3-0.5l-0.6-1.8
	c-0.1-0.5-0.3-1-0.4-1.6c0-0.2,0-0.4-0.1-0.6c-0.1-1.2-0.1-2.4,0-3.6v-0.6c0.1-0.5,0.2-1.1,0.4-1.6c0.3-1.2,0.6-2.3,1-3.4l0.3-1
	c0.1-0.1,0.1-0.2,0.2-0.4l0.4-0.7c0.5-1.1,1-2.2,1.6-3.3c4.4-8.3,10.8-17,10-26.9c-0.3-3.4-1.3-6.7-3.1-9.7
	c-1.8-2.8-3.8-5.5-6.2-7.8l-3.3-3.6l-0.8-1c-0.1,0-0.1,0-0.1-0.1l-0.2-0.2l-1.4-2.1l-1.1-2.1c-0.2-0.5-0.4-1.1-0.5-1.6
	c-0.1-0.2-0.1-0.5-0.2-0.7V312c0.1-0.2,0.1-0.4,0.2-0.6v-0.3c9.3,3.7,18.8,7,28.8,7.1c7.5,0,14.9-2.2,21.1-6.5l-3.7,8.4
	c-1.5,3.2-3.3,6.5-4.1,9.9c-1,3.5-0.5,7.3,1.4,10.4c1.6,2.5,3.8,4.6,6.5,5.9c2.5,1.3,5.1,2.2,7.9,2.7l5.2,0.7h1l2.4,0.4l1.9,0.5
	l1.1,0.4h0.1c0.5,0.2,1,0.5,1.5,0.8l0.8,0.5l0.3,0.3l0.7,0.7l0.4,0.6h0.1l0.5,0.9l0.3,0.6h0.1c-0.1,0.5,0.5,1.5,0.6,2
	c0.2,0.6,0.3,1.2,0.4,1.8c0.1,0.3,0.1,0.5,0.1,0.8c0.1,1.3,0.1,2.7,0,4c0,0.4,0,0.7-0.1,1.1v0.4c-0.1,0.6-0.3,1.3-0.4,2
	s-0.8,3.5-1.3,5.2c-1.7,6.5-3.2,13-2.5,19.8c0.7,6.7,2.6,13.2,5.5,19.2c3.1,6.3,6.7,12.4,10.7,18.1c2.2,3.3,4.5,7,8.5,8.3
	c4.4,1.5,9.2-0.8,10.7-5.2v-0.1c0.6-2.7-1-5.4-3.7-6c-1.6-0.4-3.4,0.1-4.6,1.2c0-0.1,0-0.1-0.1-0.1s-0.3-0.5-0.4-0.5
	c-0.2-0.2-0.3-0.5-0.4-0.7l-1.2-1.7l-2.7-4.1c-3.3-4.9-6.1-10-8.6-15.3l-0.2-0.5l-0.3-0.7c-0.3-0.6-0.5-1.3-0.8-2s-0.9-2.6-1.3-4
	l-0.9-4.1c0-0.3-0.1-0.6-0.1-0.9c0-0.1-0.1-0.1-0.1-0.2c0-0.1-0.1-1.4-0.1-2.1c-0.1-1.4-0.1-2.9,0-4.3c0-0.6,0.1-1.3,0.1-2
	c0.1-0.1,0.1-0.1,0.1-0.2l0.3-1.6c0.6-3.2,1.5-6.2,2.2-9.3c1.5-5.9,2.4-11.8,1.1-17.8c-1-5.8-4.6-10.7-9.8-13.5
	c-2.7-1.2-5.5-2.1-8.4-2.5l-4.7-0.6H548l-2.1-0.4l-1.7-0.5l-0.6-0.2h-0.2c-0.2-0.1-0.4-0.2-0.5-0.2l-0.7-0.3l-1.7-1.1h-0.1l-0.4-0.4
	l-0.4-0.5h-0.1l-0.3-0.5v-0.3H539v-0.2c-0.1-0.1-0.1-0.4-0.2-0.6v-0.9c0.3-0.8,0.5-1.5,0.7-2.3c0.1-0.2,0.2-0.4,0.3-0.6l0.4-0.9
	l1.2-2.8l4.4-9.9c3-6.7,6-13.4,8.9-20.1c1.3-0.9,2.6-1.7,3.9-2.4c1.3-0.7,2.7-1.2,4.1-1.5l1.7-0.4h6.6l2.2,0.4
	c1.4,0.3,2.8,0.7,4.1,1.2l2,0.7l1.1,0.4c0,0.1,0,0.1,0.1,0.1h0.2l4.1,1.9c5,2.5,9.7,5.4,14.6,8.2c-4.2,5.1-7.4,10.8-9.7,17
	c-1.2,3.4-2.1,6.9-2.6,10.5c-0.3,2-0.5,4-0.7,6s-0.1,1.5-0.2,2.3c-0.1,0.4-0.2,0.9-0.2,1.3v0.3c-0.2,1-0.4,1.9-0.6,2.7
	c-0.1,0.5-0.2,1-0.4,1.4c-0.1,0.1-0.2,0.8-0.3,0.9l-0.3,0.7c-0.2,0.4-0.4,0.7-0.7,1c0,0.2-0.1,0.3-0.2,0.4l-1.1,1c-2,2-2,5.1,0,7.1
	s5.1,2,7.1,0c5.8-5.3,6.3-13.3,7-20.5l0.3-2.4v-0.2l0.3-1.4c0.3-1.8,0.7-3.6,1.3-5.4c0.2-0.9,0.5-1.7,0.8-2.6
	c0.1-0.4,0.3-0.7,0.4-1.1l0.3-0.6c0.1-0.2,0.1-0.5,0.2-0.7l0.3-0.5l0.5-1.2l1.4-2.5c1-1.8,2.1-3.5,3.3-5.2l0.3-0.5
	c0.1,0,0.1,0,0.1-0.1l0.9-1.1l1.5-1.6c3.4,1.7,7,3.2,10.7,4.3c6.9,2,14.1,2.3,21.1,0.6c7.9-1.9,15-6.2,21.9-10.4
	c6.9-4.2,14.1-8.5,22-11c8-2.6,16.5-3.2,24.8-1.9c9,1.5,18.2,4.1,27.2,2.1c7.2-1.5,14.5-6.5,17.6-13.3c1.7-3.7,2.1-7.9,1-11.8
	c-1.6-6.2-11.3-3.6-9.6,2.7c0.3,0.9,0.4,1.9,0.2,2.9l-0.3,1.2c-0.1,0.2-0.2,0.5-0.3,0.7l-1.1,1.9l-0.3,0.3l-0.9,1
	c-0.6,0.6-1.2,1.2-1.9,1.7c-1.2,0.7-2.4,1.4-3.6,2c-0.7,0.3-1.4,0.5-2.1,0.7l-1.3,0.4h-0.8c-2.2,0.3-4.3,0.3-6.5,0.1
	c-4.2-0.3-8.3-1.2-12.5-1.9c-5.6-1.1-11.3-1.6-17-1.3c5.1-11.2,10.9-22.6,20.5-30.5c3.5-2.8,7.4-5,11.7-6.4l0.9,0.7
	c2.6,1.5,5.3,0.4,6.9-1.7l0.5-0.6h0.1c4.5-0.1,9,1.1,12.9,3.4c5,3.1,8.7,7.8,11.5,13.2c2.8,5.4,5,13.5,6,20.7s1.4,14.9,2.3,22.4
	s1.8,14.9,3,22.3c4.7,28.6,12.6,56.7,23.3,83.6c10.8,27.1,24.6,53.1,40.9,77.3c8.4,12.3,17.5,24.2,27.2,35.6
	c9.9,11.8,20.1,23.3,28.9,35.9c2.2,3.1,4.3,6.2,6.2,9.4c0.5,0.7,1.1,1.3,1.8,1.8c-6.1,17.7-11.1,35.7-14.9,54
	c-0.5,2.6,0.8,5.5,3.5,6.2s5.6-0.8,6.2-3.5c4-19.3,9.3-38.4,15.9-57c0.2-0.6,0.2-1.2,0.1-1.8c35.5-14.3,66.8-37.5,90.6-67.5
	c6.3-7.8,12.1-16.1,17.2-24.8c5.7-9.5,10.3-19.6,15-29.7c4.7-10.1,10.2-21.3,17-31s14.3-18.1,21.1-27.4s12.7-18.8,14.7-29.8
	S1087.1,333.6,1078.9,325.9z M382.4,282.3c-2.3,16.4-8.3,32-17.5,45.7c-7.7,11.2-18.3,21.1-25.4,33.3c-0.6-9.2-1.2-18.4-1.2-27.7
	c0-4.8,0.1-9.5,0.5-14.2c0.2-3.6,0.7-7.2,1.4-10.8c0.6-3.5,1.4-7,2.5-10.4c0.5-1.7,1-3.4,1.6-5.1c0.6-1.7,1.3-3.4,1.7-4.2
	c1.4-3.2,3-6.4,4.8-9.4c1.6-2.9,3.5-5.6,5.7-8.1c2.2-2.7,4.7-5.2,7.4-7.4l0.7-0.6l0.3-0.2h0.1l1.9-1.4l4.8-2.9l2.1-1l1.2-0.6h0.2
	l2.9-1h0.3c0,0.1,0.2,0.1,0.8,0h0.7l0.6,0.3c-0.3-0.1,0.4,0.6,0.6,0.7l0.3,0.5l0.5,0.8c0,0.1,0,0.1,0.1,0.2c0,0.1,0,0.2,0.1,0.3
	c0.1,0.4,0.3,0.8,0.4,1.3l0.6,2.3c0,0.2,0,0.4,0.1,0.5c0,0.1,0.1,0.9,0.1,1c0.1,1.8,0.1,3.7,0.1,5.6
	C383.3,274,383,278.2,382.4,282.3z M434.9,290.1c-17.9,1.8-34.9,8.6-49.3,19.4c1.9-5.1,3.5-10.3,4.8-15.6c1.9-8.6,3-17.4,3-26.2
	c0-7.2-1.4-15.8-7.9-19.9c-4-2.6-8.8-2-12.9-0.3c-3.5,1.3-6.8,3-9.9,5c-6.2,4.2-11.7,9.5-16.2,15.5c-8.9,11.8-14.2,26.3-16.5,40.8
	c-3,19.1-1.4,38.5-0.1,57.6c1.1,17.1,1.4,35.1-1.1,51.4c-7.1,46.4-30.7,88.7-66.6,119c-2.1,1.8-4,3.4-6,4.9
	c-18.1-12-35.6-24.7-52.7-38.2s-34.4-28.5-52.1-45.2c-16.7-15.8-32.7-32.4-47.9-49.6c-6.7-7.7-13.8-16.4-17.2-25.9
	c-1.8-4.5-2.6-9.4-2.2-14.2c0-0.2,0.2-1.4,0.2-1.4c0-0.4,0.1-0.9,0.2-1.3c0.2-1.1,0.5-2.1,0.8-3.2c0.2-0.8,0.5-1.6,0.8-2.3
	c0.2-0.3,0.3-0.7,0.4-1l0.8-1.4c0.4-0.9,0.9-1.7,1.5-2.5l0.7-1.2l0.4-0.5v-0.2c0.1,0,0.1,0,0.1-0.1c1.3-1.6,2.6-3,4.1-4.4l2.2-2.1
	l1.1-0.9l0.3-0.2l0.4-0.3l5.5-3.7c3.8-2.2,7.7-4.2,11.7-5.9l0.9-0.5h0.4l1-0.4l3.3-1.3l6.2-2.3c10.8-3.7,21.7-6.9,32.4-10.4
	s23.4-7.9,34.9-12.1c23.3-8.3,46.4-17.3,69.3-26.7s45.9-19.4,68.6-29.8c10.6-4.9,21.3-10.4,32.8-12.9c5.3-1.2,10.7-1.5,16.1-0.6
	c5.3,1,10.4,2.7,15.2,5c17.3,8.1,31.3,21.6,40,38.6c1.3,2.5,2.3,4.8,3.3,7.1L434.9,290.1z M1070.9,370.6
	c-5.7,9.3-12.6,17.7-19.3,26.2c-7.4,9-13.8,18.8-19.2,29.1c-5.2,10.2-9.6,20.8-14.8,31c-4.3,8.6-9.3,16.8-14.8,24.7
	c-22.1,31.5-52.3,56.4-87.5,72.1c-3.1,1.4-6.2,2.6-9.4,3.9c-16.3-25-37.8-46.1-55.1-70.4c-17.1-24-31.5-49.8-42.8-77
	c-11.4-27.5-19.8-56.2-24.9-85.6c-1.2-7.1-2.2-14.2-3-21.3c-0.9-7.9-1.4-15.8-2.4-23.6c-1.7-12.9-5.3-26.3-14.3-35.9l8.6,3.1l17,6
	c23,7.9,46.2,15.3,69.5,22.4c46.3,14,93.1,26.3,140.4,36.9c11.7,2.6,23.5,5.1,35.3,7.5c9.2,1.9,18.8,3.4,27.6,7.1l1,0.4l1.4,0.7
	l2.8,1.5c1.8,1,3.4,2.2,4.8,3.6c1.3,1,2.4,2.3,3.2,3.7c1.3,1.9,2.2,4,2.8,6.2C1080.1,352.2,1075.8,362.5,1070.9,370.6z"/>
</svg>
