<?xml version="1.0" encoding="utf-8"?>
<!-- Generator: Adobe Illustrator 24.2.3, SVG Export Plug-In . SVG Version: 6.00 Build 0)  -->
<svg version="1.1" id="a8e75a00-6fcb-4649-ab90-5a29dffeb333"
	 xmlns="http://www.w3.org/2000/svg" xmlns:xlink="http://www.w3.org/1999/xlink" x="0px" y="0px" viewBox="0 0 1152 864"
	 style="enable-background:new 0 0 1152 864;" xml:space="preserve">
<path d="M355.4,280.4h0.9l1-0.2l2.3-0.2c2-0.3,4-0.5,6-0.6c14.7-1.3,29.4-1.2,44.1,0.4l3.3,0.3l1.4,0.2h0.6l6.3,0.9
	c4.2,0.7,8.3,1.5,12.4,2.4c2.5,0.6,5.5-0.7,6.1-3.4c0.6-2.7-0.7-5.6-3.5-6.2c-38.5-8.5-78.5-7.2-116.3,3.8c-1.9,0.6-3.3,2.2-3.6,4.2
	s0.7,4,2.4,5c8.6,6.1,19,8.6,29,11.5l7.3,2.3l1.3,0.5l0.7,0.3l0.6,0.3h0.1l0.8,0.4l1.7,0.8c2,1,3.9,2.1,5.7,3.3l1.2,0.9l0.5,0.4
	l2.6,2.3c0.5,0.5,1,1,1.5,1.5c-10.2-2.4-20.6-2.9-31-1.7c-14.4,1.5-28.2,6.3-40.5,13.9c-6.8,4.2-13,9.3-18.4,15.2
	c-2,1.9-2,5.1-0.1,7.1c1.3,1.3,3.1,1.8,4.9,1.3c3.8-1,7.7-2,11.6-2.7l3-0.5h0.6l1.5-0.2c1.9-0.2,3.8-0.3,5.7-0.3
	c1.8,0,3.7,0,5.5,0.2h0.5l1.4,0.2l0.9,0.2c-10,3.7-19.3,9-27.6,15.7c-11.3,9.2-20.5,20.7-26.7,33.9c-3.6,7.5-6.2,15.4-7.5,23.6
	c-0.4,2.2,0.2,4.6,2.3,5.7c2,1.1,4.4,0.8,6-0.8l4.6-4.2l2.3-1.8l0.6-0.5h0.1l0.4-0.3l0.8-0.6c3.3-2.4,6.7-4.7,10.2-6.7
	c3.6-2.1,7.3-3.9,11.1-5.6c0.1,0,0.1,0,0.1-0.1h0.4l1.3-0.6l2.9-1.1l5.9-1.9l4.2-1.2c-9.8,23.9-18.8,48.7-19.8,74.9
	c-0.3,8.3,0.3,16.6,1.9,24.8c0.9,2.7,3.8,4.1,6.4,3.2c1.1-0.4,2-1.1,2.7-2c0.9-1.7,1.9-3.3,3-4.9l1.7-2.4l0.2-0.3l1-1.1
	c2.4-2.8,5.1-5.5,8-7.8l0.4-0.2l1.2-0.9l2.2-1.5c1.6-1,3.3-2,5-2.8l2.4-1.1l0.3-0.2h0.2l1.4-0.5c1.8-0.7,3.6-1.2,5.5-1.7
	c2.7-0.7,4.2-3.5,3.5-6.2s-3.5-4.2-6.2-3.5c-11.9,3.2-22.6,9.8-30.7,19.1c-0.1-2.5-0.2-5.1-0.1-7.6c0.1-2.5,0.3-7.1,0.6-10.6
	l0.3-2.3c0-0.1,0.1-0.7,0.1-0.9c0-0.2,0.1-0.6,0.1-1l0.9-5c2.5-13.9,6.9-27.4,11.9-40.7c2.8-7.5,5.8-14.9,8.9-22.3
	c0.7-1.6-0.1-3.7-1.3-4.9c-1.3-1.3-3.1-1.7-4.8-1.3c-16.8,2.8-32.7,9.3-46.6,19.2l0.9-2.4c0.1-0.4,0.3-0.7,0.5-1.1l0.2-0.5
	c2.8-6.3,6.3-12.3,10.4-17.9l0.7-0.9l0.3-0.3l1.7-2.1c1.1-1.4,2.2-2.6,3.4-3.9c1.2-1.3,4.9-4.9,7.5-7.2l1.9-1.6l0.9-0.7l0.4-0.3
	l4.3-3.1c2.9-1.9,5.8-3.6,8.8-5.2l5.3-2.6l0.5-0.2l1.3-0.5l2.6-1c3.7-1.3,7.5-2.3,11.4-3.1c3.6-0.8,4.9-6,2.2-8.4
	c-8.7-8-20.1-9.3-31.3-8.2l0.4-0.3c2.7-1.8,5.6-3.5,8.5-5l4.5-2.2l1.1-0.4l0.4-0.2l2.4-0.9c6.2-2.4,12.7-4,19.3-5h0.3l1.2-0.2
	l2.6-0.2c1.7-0.2,3.3-0.3,5-0.3c3.3-0.1,6.6,0,9.9,0.3l2.7,0.2l1.3,0.2h0.7l5.4,1c3.7,0.8,7.3,1.9,10.9,3.2c1.7,0.5,3.6,0,4.9-1.3
	c1.2-1.3,1.7-3.1,1.3-4.8c-1.9-9.9-9.5-17.4-17.9-22.3c-8.4-4.9-19.2-7.2-29-10.3l-3.7-1.3l9.2-2C348,281.5,351.7,280.9,355.4,280.4
	z"/>
<path d="M469.6,385.3c-5.1-3.7-10.7-6.6-16.7-8.5c-12.2-4.2-25.1-4.6-37.5-7.8l-5.4-1.7l-2.6-0.9H407l-1.2-0.6
	c-1.6-0.8-3.2-1.6-4.7-2.6l-2.2-1.5h-0.1l-0.2-0.2l-1.2-1.1c-2-1.7-5.2-2-7.1,0c-1.9,2-2.1,5.2,0,7.1c10.4,9.3,24,12.2,37.3,14.4
	c6.1,1,12.3,1.8,18.3,3.5c2.8,0.7,5.5,1.6,8.1,2.7h0.2l0.9,0.4l1.9,0.9c1.3,0.7,2.6,1.4,3.9,2.2l2,1.4c0.3,0.1,0.6,0.3,0.8,0.6
	c-0.9-1,0.1,0,0.3,0.2c1.2,1,2.4,2.1,3.4,3.3c0.1,0.1,0.1,0.2,0.2,0.2c-12.8,0.9-25.3,4.5-36.6,10.5c-3.7,2-7.3,4.3-10.7,6.8
	c-1.8,1.3-3.1,3.4-2.3,5.6c0.7,2.1,2.6,3.6,4.8,3.7l12,1l1.2,0.2c0.1,0,1.1,0.1,1.2,0.1l2.2,0.4l5.9,1.1l5.7,1.6l2.6,0.9l1.3,0.5
	l0.4,0.2l1.4,0.7c-26.2,10-48.3,28.6-62.5,52.8c-1.4,2.4-0.7,5.4,1.6,6.9c2.4,1.4,5.4,0.7,6.9-1.6l0.1-0.1c1.5-2.6,3.1-5.1,4.8-7.5
	l2.4-3.3l0.6-0.8h0.1l1.5-1.8c3.7-4.5,7.6-8.7,11.9-12.6l6.5-5.6l0.9-0.7c-1,0.8,0.1,0,0.2-0.1l1.6-1.2l3.8-2.7
	c4.7-3.1,9.6-6,14.7-8.5l4.6-2.1h0.3l1-0.4l2.1-0.9c3.1-1.2,6.3-2.2,9.5-3.2s5.2-5.8,2.3-8.3c-9.6-8.2-21.3-11.5-33.4-13.2l1.1-0.5
	l2.3-1.1l0.9-0.4l1.1-0.4c3.3-1.4,6.8-2.5,10.3-3.4c1.8-0.5,3.6-0.9,5.4-1.2l2.5-0.5l1.3-0.2h0.5c4.2-0.4,8.3-0.6,12.5-0.6
	c3,0.1,6-3.3,4.9-6.3C478.7,394.8,474.8,389.4,469.6,385.3z"/>
<path d="M978,342.2c-4.2-5.7-8.7-11.2-13.2-16.7c3.6,0.3,7.1,1,10.6,1.9c3.5,0.9,6.8,2,10.1,3.5c2.8,1.2,5.4,2.9,7.7,5
	c4.2,4.2,10.1-1.1,7.8-6.1c-13.9-30.4-42.2-52.4-72.5-65.2c-4.8-2.1-9.6-3.9-14.6-5.5c7-2.9,14.5-4.3,22.1-4.4
	c5,0.1,6.8-6.8,2.5-9.3c-15.5-9.1-32-16.8-49.5-20.9c-17.5-4.1-33.1-4.5-49.8-3.2c-8.3,0.6-16.6,1.7-24.8,3c0.2-1.2,0.4-2.4,0.8-3.5
	c0.1-0.7,0.3-1.4,0.6-2.1l0.3-0.8h0.1c0.2-0.6,0.5-1.2,0.8-1.7l0.5-0.6l0.3-0.5l0.8-0.9l1.3-1.2h0.2l0.8-0.5l1.8-1.1
	c3-1.7,6.2-3,9.5-4.1c3.7-1.3,5.3-7.1,1.2-9.1c-13.5-6.8-27.9-7.2-42.4-3.8c-11.8,2.7-23.1,7.3-34.7,10.9c0-0.2,0.1-0.4,0.2-0.5
	l0.8-1.8c2.6-5.2,5.6-10.3,8.8-15.1c3-4.5,6.2-8.7,9.7-12.8c1.3-1.6,2.8-3.1,4.3-4.5c0.3-0.2,0.6-0.5,0.8-0.8h0.2l4.2-2.6
	c7.4-4.5,15.2-9.2,19.4-17.1c2.6-4.6-2.3-8.5-6.2-7l-0.4,0.2l-0.4,0.2l0.2-0.2l-1.2,0.3l-1.5,0.3h-0.5l-1.3,0.2l-11.4,1
	c-6.9,0.5-13.9,0.8-20.8,1.6c-6.1,0.9-12.2,2.3-18.1,4c-7.3,2-14.5,4.3-21.5,6.9c-13.1,4.9-25.4,11.5-37.5,18.5
	s-22.5,13.4-34.3,19.1c-0.9-19.4,12-37.5,24.2-51.5c3.9-4.5-1-10-6.1-7.8c-30.6,13.1-57.1,34.1-76.8,61c-3.2,4.4-6.3,8.9-9.1,13.6
	c-15.2-25.2-36.2-46.4-61.2-61.9c-7.9-4.9-16.1-9.1-24.6-12.7c-5.2-2.2-10,3.3-6.1,7.8c12.2,14,25,32.1,24.1,51.5
	c-22.8-10.9-43.4-26.2-66.9-35.7c-13.6-5.8-27.8-10.1-42.3-13c-6.5-1.1-13.2-1.2-19.6-1.6l-13.5-1.2l-2.5-0.3l-1.5-0.2l-1.7-0.4
	c0.5,0.4,1,0.8,1.4,1.3c-0.5-0.5-1-1-1.7-1.3h-0.1c-3.9-1.8-9.1,2.2-6.5,6.9c4.6,8.4,12.9,13.1,20.8,17.8
	c4.7,2.9,11.7,7.6,13.7,13.6c-29.1-5.6-59.2-1.5-85.6,11.9c-4.2,2.1-2.6,7.8,1.2,9.2c12.7,4.7,24.2,12,33.8,21.5
	c-36.3-4-72.9,1-106.9,14.3c-10.8,4.3-21.3,9.4-31.4,15.3c-4.3,2.5-2.5,9.3,2.5,9.3c7.2-0.1,14.4,1.1,21.2,3.6
	c-27,9.8-50.4,27.3-67.4,50.5c-5.4,7.4-10.1,15.3-13.9,23.7c-1.2,2.2-0.6,4.9,1.3,6.4c2,1.5,4.8,1.4,6.6-0.4
	c4.9-4.8,11.3-7.8,18.1-8.3c-20.1,25.2-33.9,54.7-40.4,86.3c-2,10-3.3,20.1-3.8,30.3c-0.2,4.8,7.2,7.1,9.3,2.6
	c3.2-6.8,8.6-12.4,15.4-15.8c-12.7,27.1-18,57-15.5,86.8c0.8,9.6,2.4,19.1,4.9,28.4c1.1,4.5,8.8,5,9.6,0c1.8-11.3,5.7-22.1,11.5-32
	c-0.9,23.4,7.5,46.2,23.5,63.3c2.4,2.6,7.7,1.6,8.3-2.2c4.5-27.4,9.8-56.3,25.6-79.8c2.3-3.4,4.9-6.6,7.6-9.7
	c-0.4,7.5-2.3,15-3.6,22.3c-1.8,10.4-2.8,21-3,31.6c-0.8,33.2,6.2,66.1,20.4,96.1c1.9,4,8.1,2.7,9.2-1.2c7.6-27.9,20-54.3,36.5-78
	c1.9,3.2,4.6,5.9,7.8,7.9c4.9,2.9,11.7,3.6,16.7,0.4s6.4-10.1,7.6-16.1c1-5.6,2.5-11.2,4.5-16.6c7.5-21.2,20.9-39.9,38.6-53.7
	c2.5-1.9,5-3.6,7.5-5.3c2.5-1.7,5.9-3.3,8.5-5.5c2.6-2.2,4.3-6.2,3.1-9.9c-1.2-4-5.3-6.4-9.3-5.4c-2.6,0.5-4.2,3.7-3.5,6.2
	c0.3,1,0.9,1.9,1.7,2.5l-0.9,0.7c-2.2,1.3-4.4,2.6-6.5,4c-4.2,2.8-8.2,5.9-12,9.2c-7.5,6.5-14.2,13.8-19.9,21.8
	c-5.7,8-10.6,16.7-14.4,25.8s-6,18.4-7.9,28c-0.4,2-0.8,4.8-2.7,5.9c-1.5,0.6-3.2,0.6-4.7-0.1c-4.8-1.8-7.2-7.6-9.3-11.8
	s-6.6-2.8-8.6,0c-16.7,22.5-29.7,47.5-38.5,74.1c-13.4-34.3-17.3-71.6-11.2-108c2.1-12.5,5.3-24.7,3-37.4c-0.7-4-5.7-4.4-8.3-2.2
	c-22.7,19.3-33,48.4-39.1,76.7c-1,4.8-1.9,9.6-2.8,14.5c-13.3-19-17.6-43.9-10.8-66.2c1.4-4.8-5-8.5-8.4-4.9
	c-8.6,9.2-15.4,19.9-20.1,31.6c-3-24.6-0.3-49.5,7.9-72.9c2.9-8.4,6.6-16.6,10.9-24.4c1.6-3-0.4-7.9-4.3-7.5
	c-8.3,1-16.2,4.3-22.7,9.6c3.9-27.8,13.8-54.5,29-78.2c5.2-8,10.9-15.5,17.2-22.6c2.3-2.7,1.6-7.5-2.3-8.4
	c-6.6-1.5-13.6-1.3-20.1,0.7c13.4-21.1,32.4-38,54.9-48.8c7.7-3.8,15.8-6.7,24.2-8.8c4.3-1.1,4.8-6.9,1.2-9.1
	c-6.5-4-13.5-6.9-20.9-8.6c30.4-14.9,63.9-22.5,97.8-22.1c10.9,0.2,21.8,1.1,32.6,2.9c2,0.5,4.1-0.2,5.3-1.8c1-1.4,1.6-3.9,0.3-5.5
	c-9.8-12.9-22.4-23.4-36.9-30.6c23.8-9.4,49.9-11.3,74.7-5.2c2.4,0.6,5.7-0.7,6.2-3.4c1.8-11.5-5.5-20.6-14.3-26.9
	c-3.8-2.7-8-4.9-12-7.4h0.7c7.6,0.6,15.2,1,22.7,1.7h1.1l1.2,0.3c3.8,0.7,7.5,1.6,11.3,2.5c7.5,1.9,14.8,4.1,22.1,6.7
	c13.1,4.7,25.4,11.2,37.4,18.2c13.7,7.9,27.1,16.3,41.7,22.5c2.7,1.2,6.7,0.5,7.4-3c3.5-17.9-2.9-34.7-12.5-49.5
	c20.8,11.9,38.9,27.9,53.2,47.1c-3.4-2-7.2-3.3-11.1-4c-2.7-0.4-5.4,0.7-6.2,3.5s0.8,5.7,3.5,6.2c11.6,1.9,19.7,11,27.1,19.4
	c1.3,1.3,3.1,1.7,4.8,1.3c1.7,0.4,3.6,0,4.9-1.3c7.4-8.4,15.5-17.5,27-19.4c2.7-0.5,4.2-3.8,3.5-6.2c-0.7-2.4-3.4-3.9-6.1-3.5
	c-3.9,0.7-7.6,2-11,3.9c13.2-17.7,29.6-32.7,48.3-44.3l4.8-2.8c-9.7,14.8-16,31.6-12.5,49.6c0.7,3.5,4.6,4.2,7.3,3
	c25.6-10.9,47.8-28.6,73.8-38.7c7.1-2.7,14.5-5.2,21.9-7.2c3.5-1,7.1-1.9,10.7-2.7l5.2-1.2l1.9-0.3l20.8-1.6l3.9-0.3l-7.1,4.3
	c-4.1,2.5-7.7,5.6-10.8,9.3c-7.9,9-14.6,19-19.9,29.8c-2.3,4.9-4.7,10.1-3.8,15.6c0.5,2.7,3.8,4.1,6.2,3.5
	c13.6-3.5,26.6-9.1,40.3-12.6c8.6-2.2,17.4-3.1,25.8-1.5c-2.7,1.6-5.2,3.6-7.2,6.1c-4.7,6.1-5.5,14.1-6.5,21.5
	c-0.4,3.5,3.6,5.3,6.4,4.8c16.9-2.9,34-5,51.2-4.3c15.6,0.7,30.9,3.9,45.4,9.7c4.7,1.8,9.2,3.9,13.6,6.1c-7.8,2-15.3,5.2-22.2,9.4
	c-3.5,2.2-3,8.1,1.2,9.1c30.3,7.7,59.6,23.4,79.7,47.7c1.7,2.1,3.4,4.3,4.9,6.6c-1.8-0.6-3.7-1.2-5.6-1.6c-7.9-2.1-16.8-3.5-25-1.6
	c-3.9,0.9-4.5,5.7-2.2,8.4c12.1,13.5,23,27.9,32.8,43.1c9.9,15.6,18.5,32.1,24,49.8c1.3,4.2,2.3,8.4,3.2,12.6
	c-7.5-5.1-16.1-8.3-25.1-9.3c-4-0.4-6,4.6-4.4,7.6c6.7,12,12.8,24.5,16.2,37.8c2.8,11.3,3.7,23,2.5,34.6
	c-2.8-10.9-7.1-21.3-14.9-29.8c-3.4-3.7-9.8,0.2-8.4,4.9c1.7,5.6,2.5,11.3,2.6,17.1c0.2,7.1-0.2,14.2-1.2,21.2
	c-1.8,14.2-5.7,27.9-11.7,40.9l-0.8,1.5c0.9-10,0.8-20.1-0.1-30.1c-1.3-12.7-4.9-25.7-14.3-34.9c-5.5-5.4-12.3-8.9-19.4-11.3
	c-2.2-0.6-4.5,0.4-5.7,2.3c-1.2,2.1-0.6,4.3,0.8,6.1c1,1.3,1.9,2.8,2.6,4.3c1,1.8,1.8,3.7,2.4,5.7c1.4,4,2.5,8.2,3,12.5
	c0.6,5,0,7.6-0.6,12.2s-1.5,12.1-2,18.1c-1.9,21.8-2,43.8-6.7,65.2c-1.4,6.1-3.2,12.1-5.4,18c-2.7-21.8-9.7-43.6-25.6-59.2
	c-5.1-5-11-9.1-17.4-12.2c-3.8-1.8-8.6,1.2-7.4,5.6c0.5,1.3,0.7,2.7,0.7,4.1c0.1,1.4-0.1,2.7-0.6,4l-0.3,0.6c0,0.2-0.2,0.4-0.2,0.5
	s-0.7,1.2-1,1.8l-0.5,0.6c-0.1,0.2-0.2,0.4-0.3,0.4c-0.5,0.7-1.1,1.3-1.7,1.8c-1.6,1.5-3.4,2.7-5.4,3.6l-1.4,0.5l-1.4,0.4h-1.1
	c0-1.9-0.1-3.9-0.3-5.8c-0.5-6.7-1.4-13.3-2.9-19.9c-3.5-14.9-8.8-29.3-15.7-43c-6.3-12.8-14-25.4-24.3-35.5c-8.7-8.6-21-16-33.7-12
	c-6.1,2-3.5,11.6,2.7,9.7l1.7-0.5l1.2-0.2h3.9l1.7,0.3l3.3,1.1l1.2,0.6l1.6,0.8l3.6,2.3l0.9,0.7h0.3l1.6,1.3l3.5,3.3
	c10.1,10.2,17.6,23.1,23.8,36.3c6.5,13.6,11.3,27.9,14.1,42.7c0.3,1.5,0.6,3.1,0.8,4.6c0.1,0.3,0.1,0.6,0.1,0.9
	c0.1,0.3,0.1,0.5,0.1,0.8l0.3,2.4c0.2,2.9,0.3,5.9,0.3,8.8c-0.1,2.9,0.1,5.5,2.3,7.7c2.1,1.7,4.7,2.6,7.4,2.5
	c6.5-0.1,13.1-3.7,17.5-8.2c3.4-3.4,5.7-7.8,6.5-12.6c6.6,4.5,12.2,10.4,16.5,17.2c6.7,10.7,10.5,23,12.7,35.4
	c1.4,8.1,2.1,16.3,2.3,24.5c0.1,4.9,6.7,6.9,9.3,2.5c12.1-20.5,16.6-43.7,18.7-67.1c1-11.7,1.5-23.3,2.4-35c0.5-6,1.1-12,1.9-18
	s1.5-9.2,1.1-14c-0.5-5.2-1.5-10.4-3.1-15.4l1.3,1.1c1,0.9,1.9,1.8,2.8,2.8c0.7,0.9,1.4,1.8,2,2.7c0.7,1.1,1.4,2.2,2,3.4
	c0.3,0.5,0.6,1,0.8,1.6c0.1,0.1,0.7,1.4,0.7,1.4c4.9,11.9,5,24.8,4.5,37.7c-0.3,9.4-1.1,18.7-2.1,28.1c-0.4,4.4,5.8,6.5,8.6,3.5
	c9.7-10.3,15.6-24,19.7-37.4c4.3-13.8,6.7-28.1,7.1-42.6c3,9.8,4.2,20.4,5.8,30.2c0.8,5,8.4,4.5,9.6,0c3.7-14.1,6.3-28.6,5.7-43.2
	c-0.6-13.3-3.6-26.4-8.7-38.7c-2-4.8-4.2-9.6-6.6-14.2c7.9,2.8,15,8,18.5,15.4c2.1,4.5,9.5,2.3,9.3-2.5
	C1020.9,407.8,1000.5,372.2,978,342.2z M367.6,144.1c0.2,0.2,0.3,0.3,0.3,0.5L367.6,144.1z"/>
<path d="M810.3,305.2l1.9-1.1l1.1-0.4l0.5-0.3l0.8-0.3l1.5-0.6c2.2-0.8,4.4-1.5,6.5-2.4c4-1.6,8.1-3,12.2-4.2l1.7-0.3h0.8
	c1.3-0.1,2.7-0.2,4-0.1h3.1c1.7,0.2,3.3,0.6,4.9,1c2.6,0.7,5.3-0.8,6.1-3.4c0.7-2.7-0.9-5.4-3.5-6.2c-3.5-1-7-2.3-10.4-3.7l-1-0.4
	h-0.3l-2.5-1.1l-4.9-2.3c-6.5-3.1-13-6.3-19.6-9.1c-6.6-2.8-13.5-4.9-20.5-6.2c-8.7-1.5-17.6-1.7-26.4-0.6
	c-13.3,1.7-26.1,5.6-38.6,10.6c-2.4,1-4.4,3.4-3.5,6.2c0.9,2.8,3.6,4.5,6.2,3.4c10.9-4.4,22.2-8.1,33.9-9.9l1.7-0.3h0.7l3.6-0.3
	l6.5-0.3c2.1-0.1,4.2,0,6.2,0.1l2.9,0.3h2c7.1,1.1,14,3,20.6,5.7l1.1,0.5h0.3l2.3,1l4.7,2.2l9.3,4.4l1.1,0.5l-5.8,2.2
	c-7.2,2.9-15.9,4.6-21.1,10.9c-3,3.7-5.1,8-7.3,12.2c-1.4,2.4-0.5,5.5,1.8,6.8c1.2,0.7,2.6,0.8,3.9,0.5c3-1.1,6.1-2.1,9.2-2.8
	l4.5-0.9l1.1-0.2h0.2l2.1-0.2c2.8-0.2,5.6-0.3,8.4-0.1c1.3,0,2.6,0.2,3.8,0.3l1.1,0.2l2.3,0.4c2.6,0.6,5.3,1.4,7.8,2.3l1.7,0.6
	l0.9,0.4h0.1l3.8,1.7c2.5,1.3,4.9,2.8,7.3,4.4l3.6,2.5l1.5,1.1h0.2l1.2,1c1.2,0.9,2.3,1.9,3.4,2.9l-3.3-0.4
	c-6.4-0.6-13.3-0.3-19.4,2c-3.9,1.5-7.5,3.6-10.6,6.4c-2.6,2.4-1.4,7.6,2.2,8.4c6.9,1.4,13.8,3,20.6,5c3.3,0.9,6.6,2,9.9,3.2
	l4.8,1.8l1.1,0.5h0.1l0.3,0.2l2.3,1c6.1,2.7,11.9,6,17.2,10l0.2,0.2l0.8,0.6l1.9,1.6c1.2,1,2.3,2.1,3.4,3.2c1.1,1.1,2.2,2.3,3.2,3.5
	l0.7,0.8h0.1c0.4,0.7,0.9,1.4,1.4,2c1,1.5,1.9,3,2.7,4.5c0.5,0.8,0.9,1.6,1.3,2.4c-12.8-5-28.1-4-41.5-4.3l-7.5-0.2l-3.8-0.3
	l-1.7-0.2h-1c-2.5-0.4-4.9,0.5-5.9,2.9c-1,2.3-0.1,5,2.1,6.3c5.7,3.8,11.6,7.6,17.2,11.7l1.9,1.3l0.8,0.7c0.3,0.2,1.5,1.2,0.2,0.1
	l3.4,2.8c2.1,1.7,4,3.7,5.8,5.7l1.2,1.3l0.6,0.9c0.7,1,1.3,2,1.9,3.1c0.3,0.5,0.6,1,0.8,1.6h0.1c0,0.2,0.1,0.5,0.2,0.7
	c0.5,1.2,0.8,2.4,1.1,3.6l0.3,1.7c0,0.3,0.1,0.7,0.1,1c0.1,1.4,0.1,2.8,0,4.2c0,0.8-0.1,1.5-0.1,2.2c0,0.4,0,0.4-0.1,0.3
	c-0.1,0.3-0.1,0.7-0.1,1c-0.3,1.6-0.7,3.2-1.1,4.8s-1.2,4-2,6c-0.3,1-0.6,2-1.1,2.9c-0.1,0.4-0.3,0.7-0.4,1.1
	c-0.3,0.5-0.6,1.1-0.8,1.7c-1.3,2.7-2.6,5.3-4,7.8c-2.7-3.7-5.9-6.9-9.6-9.6c-5.8-4.3-12.7-6.7-19.6-8.4c-2.6-0.7-5.4,0.9-6.1,3.5
	c-0.7,2.6,0.9,5.4,3.5,6.1l5.2,1.5l2.6,0.9c0.3,0.1,1.8,0.9,2.1,0.8l0.3,0.2l0.8,0.4l2.2,1.1c1.3,0.7,2.5,1.5,3.7,2.3l0.3,0.3
	c0-0.1-0.1-0.2-0.2-0.3c0.3,0.3,0.6,0.6,0.9,0.8l1.6,1.4c1.1,1.1,2.1,2.2,3.1,3.4c0.2,0.2,0.8,0.7,0.8,0.9c0,0.1,0,0-0.1,0l0.1,0.1
	c0.6,0.7,1.1,1.4,1.5,2.2c1,1.5,1.9,3.1,2.8,4.7c1.8,3.3,6.8,3.1,8.6,0c5.1-8.5,9.8-17.3,12.7-26.7c2.2-6.7,3-13.7,2.1-20.7
	c-1.7-12.4-11.1-21.3-20.6-28.4c-1.3-1.1-2.7-2.1-4.1-3h8.3c4.5,0.1,9,0.2,13.5,0.6l1.7,0.2h0.5c1.1,0.1,2.3,0.2,3.4,0.5
	c2.1,0.4,4.2,0.9,6.2,1.6l1.6,0.6l0.6,0.2c0.3,0.1,0.4,0.2,0.5,0.2c0.9,0.4,1.8,0.8,2.6,1.3l2.8,1.8h0.3l0.3,0.2l1.4,1.3
	c1.9,2,5.1,2,7.1,0.1c1.3-1.3,1.8-3.1,1.3-4.9c-2.4-13.7-9.8-26.1-20.7-34.8c-11.2-9.1-24.5-15-38.2-19.3c-3.4-1.1-6.7-2-10.1-2.9
	h0.8c0.1,0,0.2,0,0.2-0.1h0.2c1.9-0.2,3.7-0.2,5.6-0.2c1.9,0,3.7,0.1,5.6,0.3l1.6,0.2h0.5l3.1,0.5c3.9,0.7,7.7,1.7,11.5,2.7
	c2.1,0.7,4.4,0.1,5.7-1.7c1.1-2,0.7-4.4-0.8-6.1c-8.7-9.5-18.5-18.4-29.8-24.6S830,305.4,818,306c-3.4,0.2-6.6,0.7-9.9,1.3l1.5-1.6
	C809.9,305.6,810.1,305.4,810.3,305.2z"/>
<path d="M788.4,488.3c-13.7-7.3-26.4-16.4-39.3-25c-12.9-8.6-26.9-17.9-41.6-24.6c-5.5-2.4-11.1-4.5-16.8-6.2c0-0.1,0.1-0.2,0.2-0.3
	l0.4-0.2c1.2-0.9,2.4-1.6,3.7-2.2h0.1l0.8-0.3l2-0.6c1.3-0.4,2.7-0.7,4.1-0.9l2-0.3h1.4l10.2-1.3c4.1-0.6,8.1-1.5,12-2.9
	c2.7-0.8,4.2-3.5,3.4-6.2c-0.2-0.8-0.7-1.5-1.2-2.1c-7.9-8.3-18.4-13.3-30-13.2s-22.3,4.5-32.1,9.9l-6.7,4l0.3-0.8v0.2
	c0.1-0.2,0.1-0.5,0.2-0.7l0.8-1.6c0.5-1.1,1.1-2.1,1.6-3.2c0.5-1.1,2.5-4,3.9-6h0.1l0.5-0.6l1-1.2c0.8-1,1.6-1.9,2.5-2.7
	c0.7-0.8,1.5-1.5,2.3-2.2l1.3-1.1l0.3-0.2l0.5-0.3c1.8-1.3,3.6-2.4,5.6-3.4l0.7-0.3l1.3-0.5c1.1-0.3,2.2-0.7,3.3-0.9l1.3-0.3h0.6
	c1.2-0.2,2.3-0.2,3.5-0.2l8.2,0.2c5.4,0.1,10.7,0.1,16.1-0.1c9.5-0.3,19.4-1,28.5-4c4.7-1.5,9-3.8,12.9-6.9c3.6-3,6.4-6.9,8.1-11.3
	c1-2.4-1.1-5.6-3.5-6.2c-2.5-0.6-5,0.7-6,3.1v0.3c-0.1,0.1-0.2,0.3-0.2,0.5l-0.7,1.2c-0.4,0.7-1,1.4-1.4,2.2
	c0.7-1.3,0.1-0.1-0.3,0.2l-0.8,0.9c-0.6,0.7-1.3,1.3-2,1.9c-0.1,0-0.1,0-0.1,0.1h-0.2l-0.9,0.6l-2.7,1.6l-1.7,0.8
	c-0.1,0.1-0.2,0.2-0.4,0.2h-0.2l-0.5,0.2l-1.6,0.6c-4.2,1.3-8.4,2.2-12.7,2.9c1.4-0.3-0.5,0-0.8,0l-1.7,0.2l-3.9,0.4
	c-2.5,0.1-5,0.3-7.5,0.3c-5.4,0.2-10.8,0.2-16.1,0.1c-5.3-0.1-10.6-0.5-15.9,0.6c-9.3,2.1-17.5,8.3-23.4,15.7
	c-7.3,8.8-11.8,19.5-13,30.9c-0.3,3.6,4.6,6.5,7.6,4.4c4.7-3.5,9.5-6.7,14.5-9.7c2.4-1.4,4.8-2.7,7.3-3.9l3.7-1.7h0.1l0.7-0.3l2-0.7
	c2.3-0.9,4.7-1.7,7.2-2.2l3.4-0.7h0.7l2.1-0.2c2.3-0.2,4.6-0.1,6.9,0.1h0.8l1.5,0.3l3.5,1l0.7,0.3l0.6,0.2l0.5,0.2l0.9,0.5l2.7,1.5
	l-1.5,0.3l-2.3,0.3h-0.3l-1.4,0.2l-4.8,0.5c-6.5,0.8-13.1,1.9-18.7,5.7c-3.7,2.6-6.9,5.9-9.4,9.7c-1.7,2.6-0.1,6.8,3,7.4
	c3.6,0.6,7.1,1.5,10.5,2.6c1.8,0.5,3.5,1.1,5.2,1.8l2.6,0.9l1.2,0.6l0.6,0.2h0.1c7.2,3.1,14.1,6.7,20.8,10.8
	c14,8.2,27.2,17.7,40.7,26.6c7,4.6,14.1,9.1,21.6,13.1c2.4,1.3,5.4,0.5,6.8-1.8C791.4,492.8,790.9,489.6,788.4,488.3z M704,412
	c0.1-0.1,0.4,0,0.6,0H704z"/>
</svg>
