<?xml version="1.0" encoding="utf-8"?>
<!-- Generator: Adobe Illustrator 24.2.3, SVG Export Plug-In . SVG Version: 6.00 Build 0)  -->
<svg version="1.1" id="a32f7649-5d72-4e69-97bc-990a549dccb3"
	 xmlns="http://www.w3.org/2000/svg" xmlns:xlink="http://www.w3.org/1999/xlink" x="0px" y="0px" viewBox="0 0 1152 864"
	 style="enable-background:new 0 0 1152 864;" xml:space="preserve">
<path d="M332.8,474.7c6.4-17.7,13.5-35.1,22.6-51.6c8-14.5,17.1-27.7,28.5-39.5c2.8-2.9,5.7-5.7,8.7-8.4l4.8-4.1
	c1.6-1.3,2.6-2,4.4-3.3c3.3-2.4,6.7-4.7,10.2-6.8s7.2-4,11-5.5c1.9-0.7,3.9-1.1,6-1.3c2.1-0.1,3.7-1.7,3.7-3.8
	c-0.1-2-1.7-3.6-3.7-3.7c-4.9,0.4-9.7,1.9-14.1,4.2c-3.7,1.9-7.3,4-10.8,6.2c-7,4.6-13.7,9.8-19.8,15.5
	c-12.2,11.6-22.7,24.9-31.2,39.4c-9.7,16.2-17.3,33.5-24,51.1c-6.7,17.6-12.7,36.4-19.2,54.5s-12.6,33.6-23.1,48.4
	c-1.2,1.8-2.4,3.3-3.7,4.9c-1,1.1-1.3,2.7-0.7,4.1c0.5,1.4,1.9,2.3,3.4,2.3c4.4,0,8.7-0.8,12.8-2.2c-0.1,0.1-0.1,0.3-0.1,0.4
	c-0.3,1.8-0.8,3.6-1.5,5.4c-1.2,2.9-3,6.2-3.9,9.6c-1.7,6.4-1.2,14.2,5,18c1.7,1.3,4,1,5.3-0.6c1.3-1.7,1-4-0.6-5.3
	c-0.3-0.2-0.6-0.4-0.9-0.5l-0.4-0.3l-0.6-0.5c-0.1-0.1-0.1-0.1-0.1-0.2h-0.1c-0.1-0.3-0.2-0.7-0.5-0.9c0-0.1,0-0.1-0.1-0.1
	c0-0.3-0.1-0.6-0.2-0.9c-0.1-0.2-0.1-0.4-0.1-0.6c0,0-0.1-0.5-0.1-0.6v-2c0-0.2,0.1-0.5,0.1-0.7s0.1-0.7,0.1-0.8s0.7-2.8,1.1-4.1
	c0.3-1.1,0.3-0.7,0.3-0.6l0.4-0.9c0.4-0.8,0.7-1.6,1.1-2.5c0.9-1.9,1.7-3.9,2.3-5.9c1.1-3.7,1.5-7.8,0-11.4s-3.2-3.5-5.6-2.3
	c-1.7,0.9-3.6,1.6-5.5,2.1c8.5-12.6,14.8-26.5,20.1-40.7C320.7,510.4,326.4,492.4,332.8,474.7z"/>
<path d="M883.3,620.7c-12.3-31.3-23.7-62.9-34.4-94.8c-5.1-15.3-10-30.7-15.9-45.7c-5.3-13.4-11.1-27-19.6-38.7
	c-6.2-8.3-13.4-15.7-21.6-22.1c4.7-0.2,9.2-1.2,13.1-3.9c1.2-0.6,1.9-1.9,1.8-3.2c-0.6-5.6-2.8-10.8-3.9-16.4
	c-0.3-1.1-0.4-2.3-0.5-3.5c0-0.3,0.1-0.6,0.2-0.9c0.2-0.3,0.4-0.6,0.7-0.9c1.7-1.7,3-3.7,3.9-5.9c1.4-4.3,0.7-9-1.7-12.8
	c-1.3-1.9-3-3.5-5-4.7l-1.4-0.8l-0.5-0.3c0-0.1-0.3-0.3-0.4-0.3s-0.1-0.1-0.1-0.2l1.1-0.8l4-2.7l8.6-5.8c2.6-1.8,2.3-5.9-0.9-6.8
	c-2.9-0.9-5.9-1.4-8.9-1.5c0.3-1.4,0.7-2.7,1.3-3.9c1.3-2.9,3-5.7,5-8.2c1.7-2.3,3.9-5,5.9-7.5c2.2-2.8,4.3-5.6,6.3-8.6
	c1.9-2.9,3.3-6,4.4-9.3l4.5-12.8c2.7-7.8,5.4-15.6,8-23.4c5.2-15.6,10.1-31.5,13.2-47.6c3.1-16.1,4.5-31.4,6.3-47.1
	c1.1-9.5,2.4-19,3.9-28.4c0.8-4.9,1.5-9.7,2.3-14.6c0.6-4.3,1.8-8.4,3.6-12.3c0.9-1.8,0.3-4.1-1.4-5.2c-8.2-5.3-18.3-1.6-26.6,1.5
	c-8.3,3.1-17.5,7.1-26,11.3c-16.8,8.5-33,18.3-48.3,29.4c-15.6,11-30.4,22.9-45,35.2c-7.3,6.2-14.4,12.5-21.9,18.4
	c-7.5,5.9-12.7,9.5-19.3,14.1c-13.3,9.1-26.4,18.4-38.3,29.4l-5.1,4.8c-5.6,3.5-11.1,7.1-16.5,10.8l-8.3,6
	c6.4-7.9,14.5-14.3,23.7-18.7c3.8-1.9,1.1-8.3-2.9-6.9c-26.1,9.2-52.6,19.6-74.2,37.4c-4.8,3.9-9.2,8.2-13.3,12.8
	c-3.9-6.4-6.2-13.8-6.7-21.3c-0.3-3.9-4.8-4.9-7-1.9c-4.9,6.7-9.2,13.7-12.9,21.1c-3.4-9.1-8.5-17.4-15-24.6
	c-0.2-9.2-1.9-18.4-5.2-27c-2-5.3-4.7-10.3-8.1-14.9c-0.9-1.5-2.6-2.2-4.3-1.8c-1.6,0.5-2.7,2-2.7,3.7c-0.2,4.7-1.3,9.3-3.3,13.6
	c-4.5-13.8-12.6-26.1-23.4-35.7c-3.7-3.2-7.6-6.1-11.8-8.7c-0.7-0.4-1.4-0.5-2.2-0.5c-12.2-15.3-26.3-29-40.4-42.6
	c-7.4-7.2-14.9-14.3-23.2-20.3c-7.9-5.8-16.6-10.4-25.8-13.7c-4.5-1.7-9.1-3-13.8-4c-2.3-0.5-4.7-1-7.1-1.3c-2.5-0.4-5-0.7-7.5-0.8
	c-3,0-5.8,1.6-6.6,4.7c-0.8,3.1-0.2,5.7,0,8.4c0.2,5.3,0.9,10.5,1.5,15.8c2.2,21.1,2.9,42.3,1.9,63.5c-1,21-3.6,41.8-7.9,62.4
	l-0.9,4.3c-4.5-0.6-9-0.9-13.5-0.7c-2.7,0.1-3.9,2.3-3.6,4.7c0.4,2.1,1.5,4,3.1,5.5c1.2,1.1,2.7,2,3.9,3.2l0.3,0.4l0.2,0.3
	c0.1,0.1,0.3,0.6,0.4,0.6v0.2c-0.3,0.1-0.7,0.3,0,0.1l-1.9,0.6c-1.8,0.8-3.5,1.7-4.4,3.5c-0.8,1.6-0.6,3.6,0.6,5
	c0.7,0.9,1.4,1.8,2,2.8c1.9,2.8,3.7,5.7,5.2,8.7c-6.5,6-10.7,14.1-11.7,22.9c-0.3,2.4-0.3,4.7,0,7.1c0.3,2.8,0.7,5.7,2.7,7.9
	c0.8,0.7,1.7,1.4,2.6,1.9l1.9,0.8l0.7,0.2l0.4,0.2l0.8,0.4h0.1v0.2c0.1-0.3,0-0.2,0,0c0.1,0.1,0.1,0.1,0.1,0.2c0,0.1,0-0.1-0.1-0.2
	c0,0.1,0,0.2,0,0.3l-0.4,1.2c-1.1,2.9-1.3,6.1-0.8,9.2c0.6,3,2.1,5.8,4.3,7.9c0,0.1,0.1,0.1,0.2,0.2c-5.6,6.8-11,13.6-16.4,20.5
	c-1.3,1.6-1.6,3.8,0,5.3c1.5,1.4,3.8,1.4,5.3,0c10.3-10.9,22-19.8,34.3-28.1c-4.1,5.7-7.9,11.6-11.4,17.7
	c-7.5,12.9-13.6,26.5-18.3,40.7c-2.1,6.4-3.9,12.9-5.4,19.5c-1.1,0.6-1.8,1.8-1.7,3.1c0,0.7,0.2,1.4,0.6,2c0,1.4,0.6,2.7,1.7,3.6
	c-8.7,19-17.5,38-28.8,55.7c-11.3,17.7-25.1,33.4-45.2,38.4c-4.2,1.1-3.2,7.3,1,7.4c11,0.2,21.6-3.7,29.8-11.1
	c5.3,20.4-4,41.7-9.8,61.1c-2,6.7-3.5,13.6-4.5,20.5c-0.4,3,3.4,4.3,5.6,3.2c8.7-4.2,16.4-10.2,22.7-17.5c-1.8,11-4.8,21.7-9.1,31.9
	c-6.1,14.5-15,27.5-23,41c-2,3.4-4,6.9-5.9,10.4c-1.9,3.5-4.6,7.4-3.4,11.3c2.4,7.6,12.9,5.8,18.6,4.4c14.6-3.5,26.8-13.4,37.8-23
	c8.6-7.4,16.7-15.4,24.4-23.8c-2.2,8.5-3.4,17.2-3.7,26c-0.1,2.9,3.2,4.5,5.6,3.2c18.8-10.4,28.8-30.9,33.9-50.9
	c3.5-13.4,5.3-27.2,6.5-41c0.5-0.2,0.9-0.5,1.2-0.9c9.8-11.6,18.4-24.1,25.6-37.4c7.2-13.3,13-27.4,17.3-41.9
	c4.2-14.3,6.9-29,9.4-43.7s4.7-29.5,8.3-44c1.7-7.1,3.7-14.2,6.2-21.1c2.4-6.8,5.5-13.3,9-19.6l0.6-1c2.8-2.1,5.6-4.2,8.5-6.1
	l6.9-4.4c4.1-2.6,0.3-9.1-3.8-6.5c-4.1,2.6-7.8,5-11.6,7.7c-1.6-0.2-3.1,0.5-4,1.8l-1.7,2.4c-12,9.1-22.9,19.6-32.5,31.2
	c-14.2,17-25.2,36.5-32.4,57.5c-8.3,24.5-10.6,50.5-11.9,76.1s-1.6,51.9-6.3,77.4c-3.6,19.6-10.4,41.2-26.8,53.9
	c1.1-11.8,4.1-23.3,8.8-34.2c0.9-1.6,0.5-3.7-1-4.8c-1.3-1-3.7-1.2-4.9,0.3c-9.4,11.8-19.7,22.8-30.7,33
	c-10.1,9.3-21,19.2-33.9,24.4c-3.2,1.2-6.5,2.2-9.8,2.8c-1.4,0.2-2.9,0.3-4.3,0.3c-0.7-0.1-1.3-0.2-2-0.4v-0.2c0.4-0.6,0.7-1.3,1-2
	c0.9-1.8,1.9-3.6,2.9-5.4s3.6-6.4,5.5-9.5c7.7-12.9,16-25.5,22-39.4c6.8-15.7,10.7-32.5,11.7-49.6c0.2-3.8-5.2-5.1-7-1.9
	c-5.2,9.2-12.7,17.1-21.6,22.8c4.4-21.1,15.1-40.9,14.7-63c-0.1-6.7-1.4-13.2-3.9-19.4c-0.2-0.5-0.5-1-0.9-1.4
	c3.8-4,7.3-8.2,10.6-12.6c12.3-16.8,21.4-35.9,30.2-54.8c16.7-36.1,32.2-74.2,60.7-103c7.2-7.4,15.3-13.9,24.1-19.3
	c9.1-5.6,20.3-11.4,31.3-9.5c2,0.3,4-0.5,4.6-2.6c0.6-2.1-0.6-4.3-2.6-4.6c-11.1-1.9-21.7,1.8-31.4,7c-8.3,4.5-16,9.8-23.1,16
	c-14.4,12.4-26.2,27.8-36.1,44c-6.4,10.4-12,21.2-17.3,32.1c1.9-5.7,4.2-11.6,6.4-16.7c5.7-13.3,12.8-26,21.1-37.8
	c4.6-6.6,9.6-12.9,14.9-18.9c1.3-1.3,1.5-3.4,0.3-4.9c-1.1-1.5-3.2-1.9-4.8-1c-8.1,5.2-16.2,10.4-24.1,15.9c2.1-2.4,4.3-4.7,6.5-7.1
	c0.3-0.1,0.5-0.3,0.7-0.5c0.3-0.2,0.5-0.5,0.7-0.8c5.1-5.4,10.6-10.6,16.3-15.4c29-24.6,66.3-37.1,104.2-35c2.1,0,3.8-1.8,3.7-3.9
	c0-0.3-0.1-0.6-0.1-0.9c-0.4-1.7-1-3.3-1.7-4.9c4.8,2.1,9.5,4.4,14.1,6.9c1.8,1,4.2,0.3,5.1-1.6c0.4-0.8,0.6-1.8,0.4-2.6
	c-4.4-22.7-21.2-40.4-39.7-53c-2.1-1.5-4.3-2.8-6.4-4.1l7.3-0.9c2.1-0.1,3.7-1.8,3.7-3.9c0-1.2-0.7-2.4-1.8-3.1
	c-6-4.4-12.5-8.1-19.4-11.1c6.6,0.8,13.2,2,19.6,3.7c4.7,1.2,9.3,2.7,13.9,4.4c2,0.5,4-0.6,4.6-2.6c1-4.8,1-9.7,0-14.5
	c2.4,2.2,4.7,4.5,6.8,6.9l1.8,2.2l1.6,2.2c1.2,1.6,2.2,3.2,3.3,4.9l3,5.4l1.3,2.7l0.6,1.2l0.3,0.7v0.3c1.7,4.2,3.1,8.6,4.1,13.1
	c0.5,2.6,4.5,3.9,6.2,1.7c3.6-4.5,6.2-9.6,7.8-15.1c2.7,5.3,4.5,10.9,5.5,16.7c0.3,1.1,0.5,2.3,0.6,3.5c0.1,0.3,0.1,0.5,0.2,0.8v0.2
	c0.1,0.6,0.1,1.3,0.2,1.9c0.3,2.5,0.4,4.9,0.5,7.4c0.2,4.9,0.1,9.8-0.3,14.7c-0.1,2.6-0.4,5.3-0.7,8c-0.3,2.7-0.5,4.2-0.7,6.1
	c-0.2,0.6-0.4,1.2-0.7,1.7c-0.7,1.9,0.8,4.1,2.6,4.6c0.8,0.2,1.6,0.2,2.4-0.1c1.3-0.2,2.4-1.3,2.7-2.6c0.1-0.5,0.1-1.1,0.2-1.6
	c2-5.8,3.2-11.8,3.3-17.9c4.3,6.8,7.5,14.3,9.4,22.2c0.4,1.4,1.6,2.5,3.1,2.6c1.3,0.2,3.2-0.4,3.7-1.7c3.2-7.5,7-14.7,11.4-21.5
	c1.7,7,4.8,13.6,9.2,19.4c1.3,1.7,4.2,2.8,5.9,0.7c16.1-20,38.9-32.8,62.3-42.4c-6.4,6.8-11.5,14.7-15.2,23.3
	c-0.2,0.3-0.3,0.6-0.4,0.9c0,0.1,0,0.1-0.1,0.1c-0.2,0.8-0.2,1.6,0.2,2.3v0.3c0,0.1,0,0.1,0.1,0.1c0.1,0.4,0.3,0.7,0.6,0.9
	c0.6,0.6,1.4,1,2.2,1.1c0.8,0.1,1.7,0,2.4-0.5c14.3-8.9,31.8-10.5,48.2-7.4c16.4,3.1,32,10.2,46.3,18.6
	c12.8,7.5,24.7,16.5,35.4,26.8c9.6,9.2,18.3,19.3,25.9,30.3l0.5,0.7l2,3c6.7,10,12.3,20.7,17,31.8c-9.9-8.8-20.7-16.5-32.2-23
	c-4.4-2.4-8.8-4.7-13.4-6.7c-1.7-1.1-4-0.6-5.1,1.2c-0.8,1.2-0.8,2.7,0,3.9c7.2,12.9,12.3,26.9,15.1,41.4
	c2.4,12.9,2.2,26.5,5.4,39.5c1.6,7.3,4.8,14.1,9.5,19.9c1.3,1.6,4,1.3,5.3,0s1.3-3.7,0-5.3l-0.5-0.6l-0.6-0.8l-1.2-1.9
	c-0.9-1.4-1.7-2.9-2.4-4.4c-1.1-2.6-2-5.3-2.7-8.1c-0.8-3-1.4-6.1-1.8-9.2v-0.8c-0.1-0.3-0.1-0.7-0.1-1l-0.3-2.4l-0.6-5.1
	c-0.6-6.9-1.2-13.7-2.4-20.5c-1.4-7.2-3.2-14.3-5.6-21.3c-1.6-4.4-3.3-8.7-5.2-12.9c4.3,2.3,8.5,4.8,12.7,7.5
	c7.1,4.6,13.9,9.6,20.2,15.2c3.8,3.3,7.3,6.7,10.8,10.2l0.7,0.6c9.8,7.1,19.3,14.8,26.8,24.4c7.5,9.6,14.2,23.3,19.2,35.9
	c6,14.7,10.8,29.8,15.9,44.9c5.1,15.1,10.6,31.1,16.1,46.6s11.5,31.4,17.6,46.9c-9.4-1.6-18-6.3-24.5-13.3c-2.7-2.9-7.1,0.2-6.3,3.7
	c3.5,15.1,10.3,29.2,19.9,41.3c-17.8-6.9-33.8-17.5-47.1-31.2c-1.8-1.9-5.7-1.2-6.3,1.6c-1.7,9.1-1.4,18.5,0.8,27.5
	c-12-13.1-21.1-28.6-26.5-45.5c-0.5-2-2.5-3.2-4.5-2.7c-1.7,0.4-2.9,1.9-2.8,3.6c-1.3,15.4-2.5,30.8-3.8,46.1
	c-0.9,11.8-2.4,23.9-0.6,35.7c-11.2-14.8-19.4-31.6-24-49.6c-7.4-28.4-6-58.1-6.4-87.2c-0.2-14.5-0.9-29-3.2-43.4
	c-2-13-5.2-25.8-9.5-38.2c-8.7-25.1-21.9-48.3-38.9-68.7c-15.7-18.9-36.4-36.4-61.2-41.3c-3.2-0.7-6.4-1.1-9.6-1.3
	c-2-0.2-3.7,1.8-3.7,3.7c0,2.1,1.6,3.7,3.7,3.8c24.5,1.7,45.3,17.7,61.1,35.3c17.1,19.2,30.5,41.5,39.6,65.6
	c4.5,12.1,8,24.7,10.4,37.4c2.3,13.8,3.6,27.9,3.7,41.9c0.6,29.2-1,58.7,5.1,87.5c5.5,25.9,17.7,49.9,35.5,69.5
	c2.1,2.3,4.3,4.6,6.6,6.8c1.5,1.5,3.8,1.5,5.3,0s1.5-3.8,0-5.3c-7.2-8.8-8.1-20.9-7.8-31.8c0.4-13.8,2-27.6,3.1-41.4
	c0.3-2.8,0.5-5.7,0.7-8.6c5.8,12.6,13.7,24.1,23.2,34.2c3.7,4,7.7,7.8,12,11.2c1.5,1.2,3.4,1.6,5,0.3c1.5-1.1,1.8-3.2,0.9-4.8
	c-5.6-9.4-8.4-20.3-7.8-31.3c12.5,11.5,26.9,20.7,42.7,27c5.1,2,10.3,3.8,15.6,5.2c2,0.5,4.1-0.7,4.6-2.7c0.3-1.3,0-2.6-0.9-3.6
	c-10.8-10.2-19-22.8-24.1-36.8c7.6,4.9,16.4,7.6,25.5,7.9C881.9,625.5,884.1,622.9,883.3,620.7z M347,575.4
	c1.1-25.7,2.2-51.7,8.6-76.7c5.5-21.7,15.3-42,28.7-59.9c7.2-9.7,15.4-18.7,24.4-26.9l-0.5,1.1c-2.7,6.7-5.1,13.7-6.9,20.7
	c-3.9,14.2-6.4,28.9-8.8,43.5c-2.4,14.6-4.9,29.4-8.7,43.9c-3.7,14.2-8.9,28-15.5,41.1c-6.3,12.5-13.8,24.3-22.4,35.4
	C346.3,590.2,346.7,582.8,347,575.4z M229.3,712.7c0,0.1,0.1,0.1-0.1,0.3C229.2,712.9,229.2,712.8,229.3,712.7z M300.6,359.4
	C300.6,359.2,300.7,358.8,300.6,359.4L300.6,359.4z M443.5,230.4c-15.2-5.2-31.1-7.8-47.1-7.7c-4.9,0.1-9.8,0.4-14.7,1
	c-2,0.2-3.9,1.5-3.8,3.7c0.1,2.1,1.7,3.7,3.8,3.8c4.1,0.3,8.1,0.9,12.1,1.8c4.1,0.9,8.2,2.1,12.1,3.6c3.8,1.4,7.5,3.1,11,5.1
	l2.1,1.1l-8.6,1c-1.7,0-3.2,1.2-3.6,2.8c-0.4,1.6,0.3,3.3,1.7,4.2c4.8,2.5,9.6,5.3,14.1,8.2l7,4.9l1.4,1c0.1,0.1,0.6,0.5,0.5,0.5
	l0.6,0.4l3.3,2.7c4.1,3.5,8,7.3,11.4,11.5c1.7,1.9,3.2,3.9,4.6,6c1.5,2.2,2.8,4.4,4,6.6c1.4,2.7,2.6,5.4,3.6,8.3
	c-7.1-3.5-14.5-6.4-22-8.8c-4.1-1.3-6.4,4.7-2.8,6.8c1.1,0.7,2.1,1.4,3,2.3l1.5,1.5c0.3,0.2,0.6,0.5,0.8,0.8l0.2,0.2
	c0,0.1,0.1,0.2,0.1,0.3c0.6,0.8,1.1,1.6,1.6,2.4c-23.4-0.3-46.5,4.5-67.7,14.3c-19,8.6-35.4,21.2-50,35.8c0-0.1,0-0.1-0.1-0.2
	c-0.2-0.7-0.4-1.5-0.5-2.2c-0.1-0.2-0.1-0.4-0.1-0.6c0-0.1-0.1-0.3-0.1-0.4v-1.9c0-1.2,0.1-2.4,0.3-3.6c1.1-5.9,3.9-11.5,6-17
	c4.6-11.2,8-22.9,10.4-34.8c2.4-12.5,2.7-25.2,2.9-37.9c0.1-12.5,1.1-25,2.8-37.4c1-6.4,1.8-13,3.2-19.3c0.3-1.3,0.6-2.5,1-3.7
	l0.3-0.6c0-0.2,0.1-0.4,0.2-0.6c0.2-0.6,0.5-1.1,0.8-1.6c0.2-0.5,0.5-1,0.8-1.4h0.1l0.8-0.8l0.3-0.2c0.1-0.1,0.4-0.3,0.4-0.4
	l0.7-0.4l0.4-0.2c2-0.6,3.2-2.6,2.7-4.6c-0.5-1.8-2.7-3.4-4.6-2.6c-11,4-11.7,17.9-13.3,27.8c-2.1,13.1-3.5,26.3-4,39.5
	c-0.3,12.9-0.1,26.2-2.1,38.8s-5.7,24.5-10.1,36.3c-2.5,6.5-5.9,12.9-7.1,19.9s-0.4,11.2,2.4,15.9l-3.8,4c-1.9,2.2-3.8,4.3-5.6,6.5
	c-0.2-0.2-0.5-0.6-0.6-0.6l-0.8-1.3c0-0.1-0.1-0.3-0.2-0.4c0-0.1,0-0.3-0.1-0.4c-0.2-0.6-0.4-1.1-0.5-1.7V368c0-0.2-0.1-0.5-0.1-0.7
	c0-0.3,0-0.5,0.1-0.8v-0.4c0-0.2,0.1-0.3,0.1-0.5s0.1-0.5,0.2-0.7l0.6-2c0.9-2.9,0.8-6-1.2-8.4c-1.5-1.5-3.4-2.6-5.5-3.2h-0.5
	c-0.2-0.1-0.6-0.4-0.7-0.5c-0.1-0.1-0.1-0.1-0.2-0.1c0-0.1-0.1-0.2-0.1-0.3c-0.1-0.4-0.2-0.7-0.2-1.1c-0.1-0.3-0.1-0.5-0.2-0.8
	c-0.1-0.5-0.1-0.9-0.1-1.4c-0.1-1.2-0.1-2.3-0.1-3.4c0-1.1,0.1-1,0.1-1.5s0.1-0.9,0.1-1c0-0.1,0.4-2.1,0.7-3.1
	c0.3-1,0.5-1.9,0.8-2.8c0.3-0.9,0.5-1.3,1.1-2.6c0.5-1.1,1.1-2.2,1.8-3.2l0.9-1.4l0.4-0.6h0.1c0.1-0.1,0.1-0.1,0.1-0.2
	c0.8-0.9,1.6-1.8,2.5-2.7l1.4-1.3l0.6-0.5h0.1l0.3-0.2c1.9-1,2.6-3.3,1.6-5.1c-0.1-0.2-0.2-0.3-0.3-0.5c-2.1-4.4-4.5-8.6-7.3-12.6
	l1.7-0.7c2.8-1.5,4.3-4.8,3.6-7.9c-0.5-2.3-1.8-4.4-3.6-5.9c2.5,0.2,4.9,0.5,7.3,1c1.9,0.3,4.2-0.5,4.6-2.6
	c4.6-20.4,7.7-41.1,9.2-61.9c1.4-20.5,1.4-41.1-0.2-61.6c-0.8-10.4-2.6-20.8-2.8-31.3v-2.1h0.2l6.4,0.8c4.6,0.7,9.1,1.8,13.6,3.1
	c8.7,2.6,17.1,6.5,24.7,11.5c8.1,5.3,15.3,11.8,22.4,18.5c14.4,13.7,28.8,27.7,41.6,43l4.7,5.8c0.6,0.8,1.6,1.2,2.6,1.1
	c0.6,0.9,1.1,1.9,1.5,2.9l0.4,0.7c-0.2-0.3-0.1-0.2,0,0.2l0.5,1.2c0.3,1,0.6,2.1,0.8,3.1C443.4,225.6,443.6,228,443.5,230.4z
	 M719.6,311.7c-0.6,1.1-1,2.3-1.2,3.5c-0.2,0.8-0.2,1.7-0.2,2.5l-0.8-0.5c-2.8-1.9-5.6-4-8.5-5.6c-0.7-0.4-1.4-0.6-2.1-0.8l-6.8-4.4
	c-14.4-8.8-30.3-16.4-46.9-20.4c-12-3-24.5-3.6-36.7-1.5l3-2.2c6.4-4.5,12.9-8.7,19.5-12.9h0.1l7-4.3c14.8-8.8,29.8-17.1,45.1-24.9
	c-3.6,3-7.1,6.2-10.5,9.4l-5.9,5.7c-2.1,2.2-4.3,4.9-3.9,8.1c0.4,3.2,2.9,4.8,5.6,3.2c5.6-3.2,11.4-6,17.4-8.4
	c-3,3.2-5.7,6.7-8.1,10.4c-1.4,2.3,0.4,5.9,3.3,5.6c6.8-0.7,14.1-1.4,20.8-0.1c1.5,0.3,2.9,0.6,4.3,1.1c1.2,0.3,2.4,0.8,3.5,1.4
	l1.2,0.6c-8.2,2.5-15.9,6.4-22.8,11.6c-1.2,0.9-2.4,2.6-1.7,4.3c0.9,2.3,2.7,4.3,4.9,5.4c2,0.9,4.1,1.6,6.3,1.8l1.7,0.2
	c0,0.1,0.5,0.1,0.6,0.2l0.9,0.2l0.2,0.1c0,0,0.1,0,0.2,0.1h0.1l2,1.1l1.1,0.7l0.5,0.4l0.5,0.3c0.1,0.1,0.2,0.1,0.2,0.2l0.6,0.5
	l0.9,0.7l1.9,1.9l1.5,1.8l0.4,0.4l0.6,1l0.5,0.8L719.6,311.7z M707.2,300.5h0.3C708.3,300.7,707.3,300.6,707.2,300.5z M720.1,311.7
	C720.2,312,720.2,312.5,720.1,311.7L720.1,311.7z M784.2,412.2c-4.8-13.9-11.1-27.2-18.9-39.6l-3.8-6.5l0.5-0.4l0.4-0.2l1-0.6
	l0.6-0.2l1-0.3h0.5c2.1,0.2,4.2-0.6,5.7-2c1.4-1.7,1.9-4,1.1-6.1c-0.6-1.7-1.7-3.3-3-4.6c0-0.1-0.1-0.2-0.2-0.3l2.7-0.5
	c1.9-0.3,3.8-0.4,5.7-0.3c2.1-0.1,3.7-1.7,3.7-3.8c0-4.9-3.6-8-7.3-10.5l-1.2-0.8l-0.5-0.4H772l-0.8-0.8c-0.1,0-0.7-0.8-0.7-0.7
	l-0.7-1.2c-0.1-0.2-0.1-0.4-0.2-0.6v-0.2c0.8-0.8,1.5-1.6,2.1-2.4c0.8-1.4,1-3.1,0.5-4.6c-0.6-2.5-2.7-4.2-4.7-5.6
	c-2.5-1.6-5.2-2.9-8-3.7c4.7-7.2,11-13.3,16.8-19.8s13.7-15.7,20.2-23.8c13-16.3,25-33.5,34.6-52c5.5-10.4,10-21.3,13.7-32.5
	c0.6-2-0.6-4-2.6-4.6c-2-0.6-4,0.6-4.6,2.6c-6.3,19.3-15.7,37.4-27,54.5c-11.3,17.1-24,32.9-37.8,48.4c-3.8,4.3-7.8,8.5-11.6,12.9
	c-4.2,4.5-7.9,9.6-10.8,15c-1.4,2.7,0.4,5.3,3.3,5.6c-0.3,0-0.2,0,0.2,0.1h0.9l1.4,0.3l2.9,0.9l2.4,1.2c0.9,0.4,1.7,0.9,2.5,1.5
	l0.3,0.2l0.2,0.2c-1.6,1.5-2.5,3.6-2.5,5.8c0.1,4.2,3.2,7.8,6.5,10.1l2.1,1.4l0.4,0.3h-0.8c-2.1,0.2-4.2,0.7-6.2,1.5
	c-2.1,1.1-3.4,3.2-3.3,5.6c0.1,2.2,1.4,4.2,2.8,5.9l0.5,0.5l-1.4,0.2c-2,0.5-3.9,1.5-5.5,2.8c-6.3-8.6-13.2-16.8-20.7-24.4
	c-3.3-3.2-6.6-6.4-10.1-9.4c0.6-1.1,0.8-2.4,0.6-3.6c-0.3-1.2-0.9-2.4-1.2-3.7c-0.3-1.3-0.1-0.4-0.1-0.6c0-0.4,0-0.7-0.1-1.1
	c0.1-0.3,0.2-0.5,0.2-0.8l0.2-0.5l0.3-0.7c1.1-1.6,1.5-3.6,1-5.5c-0.8-3.4-3.5-6.4-5.9-8.8c-2.9-3-6.4-5.3-10.2-6.9
	c-1-0.4-2.1-0.6-3.2-0.8h-0.7c-0.1,0-0.1,0-0.1-0.1c-0.6,0-1.2-0.1-1.7-0.3l-1.5-0.3c7.3-4.8,15.4-8.2,24-9.8c3-0.5,3.4-4.3,1.7-6.2
	c-8.4-9.4-21-10.8-32.9-10.3c0-0.1,0.1-0.2,0.2-0.3c1.9-2.2,4-4.2,6.2-6.1c0.9-0.9,1.9-1.6,2.9-2.3l3.6-2.5c2.5-1.5,5.1-2.8,7.8-4
	c1.7-0.7,2.2-3.1,1.5-4.6c-0.7-1.7-2.6-2.7-4.4-2.2c-8.8,1.9-17.4,4.6-25.7,8.1c2.4-2.3,4.9-4.5,7.4-6.6c7-5.9,14.3-11.4,22-16.5
	c4.5-3,9-5.8,13.6-8.5c1.8-1,2.4-3.3,1.4-5.1c-1.1-1.9-3.3-2.2-5.2-1.4c-17.9,8-35.5,16.7-52.8,25.9l1.9-1.4
	c6.3-4.3,12.7-8.6,18.8-13.2c6.1-4.6,14.7-11.7,21.8-17.8c14-11.9,28.2-23.7,43-34.6c14.9-11.1,30.5-21.1,46.8-30
	c7.9-4.3,16-8.2,24.3-11.7c4.3-1.8,8.6-3.5,13-5s7.8-2.6,11.9-2.3l1.7,0.3c-2.4,6.6-3.1,13.5-4.3,20.4c-1.6,9.1-2.8,18.2-4,27.3
	c-1.9,15.9-3.3,31.6-6,47.2c-2.7,15.6-7.3,32.3-12.4,48c-2.5,7.8-5.2,15.5-7.9,23.2c-1.4,4.1-2.9,8.2-4.3,12.4
	c-1.4,4.2-2.4,7.4-4.1,10.5c-3.6,6.9-8.6,11.9-13.3,18.1s-8.2,12.8-8.2,20.5c0,2,1.7,3.7,3.7,3.7h0.1h1.6c-2.4,1.4-4.6,3-6.7,4.8
	c-2.2,1.9-3,4.9-2.1,7.6c1,2.6,3.2,4.1,5.5,5.5c0.5,0.2,0.9,0.5,1.3,0.8l0.4,0.2l0.3,0.3l0.6,0.6c0.3,0.5,0.6,1,0.9,1.5
	c0.1,0.1,0.1,0.1,0.1,0.2c0.1,0.2,0.2,0.4,0.2,0.6l0.3,1.3v0.8c0,0.5,0,1-0.1,1.5c0,0.3-0.1,0.7-0.2,1c-0.1,0.2-0.1,0.4-0.2,0.5
	c-0.1,0.1-0.1,0.2-0.1,0.3c-0.2,0.4-0.4,0.8-0.7,1.2l-0.2,0.2c-0.3,0.2-0.5,0.5-0.7,0.8c-2.3,2.1-3.5,5.1-3.2,8.2
	c0.5,5.8,3,11.2,4,16.9C794.4,412.6,789.2,412.5,784.2,412.2z M797.6,365.3c0,0.1-0.2-0.2-0.1-0.2
	C797.5,365,797.6,365.2,797.6,365.3z"/>
<path d="M800,583.2c-1,1.8-0.4,4.1,1.4,5.1l31.7,18.1c1.5,0.8,3.4,0.6,4.6-0.6c1-1.1,1.5-3.2,0.5-4.5c-6-8.1-9.8-16.6-12.8-26
	s-4.9-19.7-6.7-29.7c-3.4-18.3-7-36.9-16.7-53.2c-5.2-9-12.4-16.5-21.2-22c-1.8-0.9-4-0.3-5.1,1.4c-1,1.8-0.4,4,1.3,5.1
	c3.6,2.1,7,4.7,9.8,7.8c1.5,1.5,3,3.1,4.3,4.8h0.1c0.1,0.3,0.3,0.5,0.5,0.7l0.8,1.2c0.7,0.9,1.3,1.9,1.9,2.9
	c2.4,3.8,4.5,7.7,6.2,11.8c0,0.1,0.1,0.2,0.1,0.3l0.3,0.5l0.6,1.6l1.2,3.3c0.8,2.1,1.5,4.2,2.1,6.4c5.6,18.5,7.2,37.9,12.5,56.4
	c1.8,6.2,4.1,12.2,6.9,18c-6.4-3.6-12.8-7.2-19.1-10.9C803.3,580.7,801,581.4,800,583.2z"/>
<path d="M673.5,348.9c6.9,4.2,13,9.5,18.2,15.6c1.5,1.4,3.8,1.4,5.3,0c1.4-1.5,1.4-3.8,0-5.3c-9.9-11.6-23.1-19.8-37-25.7
	c-7.3-3.1-14.8-5.7-22.3-8.1c-7.5-2.4-15.8-4.8-23.8-6.9c-10.5-2.7-21.2-4.4-32.1-2.9c-2,0.3-3.1,2.8-2.6,4.6
	c0.5,1.8,2.6,2.9,4.6,2.6c8.6-1.1,17.4,0.3,25.8,2.4c8.4,2.1,15.8,4.3,23.6,6.7C647.5,336.3,660.8,340.9,673.5,348.9z"/>
</svg>
