<?xml version="1.0" encoding="utf-8"?>
<!-- Generator: Adobe Illustrator 25.0.0, SVG Export Plug-In . SVG Version: 6.00 Build 0)  -->
<svg version="1.1" id="Layer_1" xmlns="http://www.w3.org/2000/svg" xmlns:xlink="http://www.w3.org/1999/xlink" x="0px" y="0px"
	 width="2055.751px" height="2326.86px" viewBox="0 0 2055.751 2326.86" style="enable-background:new 0 0 2055.751 2326.86;"
	 xml:space="preserve">
<style type="text/css">
	.st0{fill:none;stroke:#000000;stroke-width:2.2639;stroke-miterlimit:10;}
	.st1{enable-background:new    ;}
	.st2{fill:none;stroke:#000000;stroke-width:2;stroke-miterlimit:10;}
	.st3{fill:none;stroke:#FF0BFF;stroke-width:2;stroke-miterlimit:10;}
</style>
<path class="st0" d="M988.296,473.358v126.508h1032.285V473.358H988.296z M1040.272,514.929v-15.12h258.674v15.12H1040.272z
	 M1676.579,514.929v-15.12h259.729v15.12H1676.579z"/>
<g class="st1">
	<path class="st2" d="M45.518,2286.257v-148.096h80.936v-372.82H45.518v-148.096h360.767l130.014,322.021l128.292-322.021h336.659
		v148.096h-80.937v372.82h80.937v148.096H650.814v-148.096h54.245v-249.694l-148.096,397.79H435.56l-174.787-407.262v259.166h67.16
		v148.096H45.518z"/>
	<polygon class="st2" points="676.014,2261.057 676.014,2163.361 730.259,2163.361 730.259,1888.467 715.72,1845.672 
		681.442,1879.675 539.455,2261.057 452.167,2261.057 283.93,1869.057 253.066,1837.459 235.572,1878.995 235.572,2163.361 
		302.732,2163.361 302.732,2261.057 70.718,2261.057 70.718,2163.361 151.654,2163.361 151.654,1740.141 70.718,1740.141 
		70.718,1642.445 389.283,1642.445 536.454,2006.964 681.677,1642.445 976.049,1642.445 976.049,1740.141 895.112,1740.141 
		895.112,2163.361 976.049,2163.361 976.049,2261.057 	"/>
</g>
<g class="st1">
	<path class="st3" d="M1041.479,2286.257v-148.096h80.936v-372.82h-80.936v-148.096h360.767l130.014,322.021l128.292-322.021
		h336.659v148.096h-80.937v372.82h80.937v148.096h-350.435v-148.096h54.245v-249.694l-148.096,397.79h-121.403l-174.787-407.262
		v259.166h67.16v148.096H1041.479z"/>
</g>
<g>
	<polygon class="st2" points="330.558,934.48 389.283,934.48 536.454,1298.998 681.677,934.48 731.331,934.48 731.331,909.28 
		664.59,909.28 536.298,1231.301 406.285,909.28 330.558,909.28 	"/>
	<polygon class="st2" points="1001.249,1057.375 1001.249,909.28 892.49,909.28 892.49,934.48 976.049,934.48 976.049,1032.175 
		895.112,1032.175 895.112,1455.396 976.049,1455.396 976.049,1553.091 676.014,1553.091 676.014,1455.396 730.259,1455.396 
		730.259,1180.501 715.72,1137.707 681.442,1171.709 539.455,1553.091 452.167,1553.091 283.93,1161.091 253.066,1129.494 
		235.572,1171.03 235.572,1455.396 302.732,1455.396 302.732,1553.091 70.718,1553.091 70.718,1455.396 151.654,1455.396 
		151.654,1032.175 70.718,1032.175 70.718,934.48 169.399,934.48 169.399,909.28 45.518,909.28 45.518,1057.375 126.454,1057.375 
		126.454,1430.196 45.518,1430.196 45.518,1578.291 327.932,1578.291 327.932,1430.196 260.772,1430.196 260.772,1171.03 
		435.56,1578.291 556.963,1578.291 705.059,1180.501 705.059,1430.196 650.814,1430.196 650.814,1578.291 1001.249,1578.291 
		1001.249,1430.196 920.312,1430.196 920.312,1057.375 	"/>
</g>
<g>
	<polygon class="st2" points="1326.519,934.48 1385.244,934.48 1532.415,1298.998 1677.638,934.48 1727.292,934.48 1727.292,909.28 
		1660.551,909.28 1532.259,1231.301 1402.246,909.28 1326.519,909.28 	"/>
	<polygon class="st2" points="1997.21,1057.375 1997.21,909.28 1888.451,909.28 1888.451,934.48 1972.01,934.48 1972.01,1032.175 
		1891.073,1032.175 1891.073,1455.396 1972.01,1455.396 1972.01,1553.091 1671.975,1553.091 1671.975,1455.396 1726.22,1455.396 
		1726.22,1180.501 1711.681,1137.707 1677.403,1171.709 1535.416,1553.091 1448.128,1553.091 1279.891,1161.091 1249.027,1129.494 
		1231.533,1171.03 1231.533,1455.396 1298.693,1455.396 1298.693,1553.091 1066.679,1553.091 1066.679,1455.396 1147.615,1455.396 
		1147.615,1032.175 1066.679,1032.175 1066.679,934.48 1165.36,934.48 1165.36,909.28 1041.479,909.28 1041.479,1057.375 
		1122.415,1057.375 1122.415,1430.196 1041.479,1430.196 1041.479,1578.291 1323.893,1578.291 1323.893,1430.196 1256.734,1430.196 
		1256.734,1171.03 1431.521,1578.291 1552.924,1578.291 1701.02,1180.501 1701.02,1430.196 1646.775,1430.196 1646.775,1578.291 
		1997.21,1578.291 1997.21,1430.196 1916.274,1430.196 1916.274,1057.375 	"/>
</g>
<polygon class="st2" points="1026.449,270.357 1026.449,122.261 689.791,122.261 561.499,444.282 431.485,122.261 70.718,122.261 
	70.718,270.357 151.654,270.357 151.654,643.177 70.718,643.177 70.718,791.273 81.517,791.273 81.517,806.81 339.702,806.81 
	339.702,791.273 353.132,791.273 353.132,643.177 285.973,643.177 285.973,384.011 460.76,791.273 582.163,791.273 730.259,393.483 
	730.259,643.177 676.014,643.177 676.014,791.273 718.16,791.273 718.16,806.81 976.345,806.81 976.345,791.273 1026.449,791.273 
	1026.449,643.177 945.513,643.177 945.513,270.357 "/>
</svg>
