<?xml version="1.0" encoding="utf-8"?>
<!-- Generator: Adobe Illustrator 25.0.0, SVG Export Plug-In . SVG Version: 6.00 Build 0)  -->
<svg version="1.1" id="Layer_1" xmlns="http://www.w3.org/2000/svg" xmlns:xlink="http://www.w3.org/1999/xlink" x="0px" y="0px"
	 width="1567.251px" height="2326.86px" viewBox="0 0 1567.251 2326.86" style="enable-background:new 0 0 1567.251 2326.86;"
	 xml:space="preserve">
<style type="text/css">
	.st0{fill:none;stroke:#000000;stroke-width:2.2639;stroke-miterlimit:10;}
	.st1{enable-background:new    ;}
	.st2{fill:none;stroke:#000000;stroke-width:1.6632;stroke-miterlimit:10;}
	.st3{fill:none;stroke:#000000;stroke-width:1.5651;stroke-miterlimit:10;}
	.st4{fill:none;stroke:#E000DB;stroke-width:1.6632;stroke-miterlimit:10;}
</style>
<path class="st0" d="M753.864,497.575v126.508h780.22V497.575H753.864z M811.191,539.145v-15.12H970.3v15.12H811.191z
	 M1295.217,539.145v-15.12h159.109v15.12H1295.217z"/>
<g class="st1">
	<path class="st2" d="M33.145,2263.123V2125.83H93.52v-345.626H33.145v-137.293h269.119l96.985,298.533l95.701-298.533h251.135
		v137.293h-60.376v345.626h60.376v137.293H484.673V2125.83h40.464v-231.482l-110.474,368.775h-90.562l-130.385-377.555v240.262
		h50.099v137.293H33.145z"/>
	<polygon class="st2" points="509.873,2237.923 509.873,2151.03 550.337,2151.03 550.337,1894.349 534.242,1845.453 
		500.997,1887.117 395.906,2237.923 342.059,2237.923 217.536,1877.343 187.47,1841.463 168.516,1885.568 168.516,2151.03 
		218.615,2151.03 218.615,2237.923 58.344,2237.923 58.344,2151.03 118.719,2151.03 118.719,1755.003 58.344,1755.003 
		58.344,1668.11 283.954,1668.11 399.408,2023.495 513.334,1668.11 720.884,1668.11 720.884,1755.003 660.508,1755.003 
		660.508,2151.03 720.884,2151.03 720.884,2237.923 	"/>
</g>
<polygon class="st3" points="753.864,345.955 753.864,208.662 502.729,208.662 407.028,507.195 310.043,208.662 40.925,208.662 
	40.925,345.955 101.3,345.955 101.3,691.582 40.925,691.582 40.925,828.875 65.262,828.875 65.262,844.413 223.364,844.413 
	223.364,828.875 251.595,828.875 251.595,691.582 201.497,691.582 201.497,451.32 331.881,828.875 422.443,828.875 532.917,460.1 
	532.917,691.582 492.453,691.582 492.453,828.875 549.764,828.875 549.764,844.413 707.867,844.413 707.867,828.875 
	753.864,828.875 753.864,691.582 693.488,691.582 693.488,345.955 "/>
<g class="st1">
	<path class="st4" d="M801.312,2263.123V2125.83h60.375v-345.626h-60.375v-137.293h269.119l96.985,298.533l95.701-298.533h251.135
		v137.293h-60.376v345.626h60.376v137.293H1252.84V2125.83h40.464v-231.482l-110.474,368.775h-90.562l-130.385-377.555v240.262
		h50.099v137.293H801.312z"/>
</g>
<g>
	<polygon class="st2" points="251.093,1015.144 291.734,1015.144 407.188,1370.529 521.114,1015.144 556.71,1015.144 
		556.71,989.945 502.729,989.945 407.029,1288.477 310.043,989.945 251.093,989.945 	"/>
	<polygon class="st2" points="753.864,1127.237 753.864,989.945 701.966,989.945 701.966,1015.144 728.664,1015.144 
		728.664,1102.037 668.288,1102.037 668.288,1498.064 728.664,1498.064 728.664,1584.957 517.653,1584.957 517.653,1498.064 
		558.117,1498.064 558.117,1241.383 542.022,1192.487 508.777,1234.151 403.686,1584.957 349.839,1584.957 225.316,1224.377 
		195.25,1188.497 176.296,1232.602 176.296,1498.064 226.395,1498.064 226.395,1584.957 66.124,1584.957 66.124,1498.064 
		126.499,1498.064 126.499,1102.037 66.124,1102.037 66.124,1015.144 105.836,1015.144 105.836,989.945 40.925,989.945 
		40.925,1127.237 101.3,1127.237 101.3,1472.864 40.925,1472.864 40.925,1610.157 251.595,1610.157 251.595,1472.864 
		201.497,1472.864 201.497,1232.602 331.881,1610.157 422.443,1610.157 532.917,1241.382 532.917,1472.864 492.453,1472.864 
		492.453,1610.157 753.864,1610.157 753.864,1472.864 693.488,1472.864 693.488,1127.237 	"/>
</g>
<g>
	<polygon class="st2" points="1014.939,1015.144 1055.58,1015.144 1171.034,1370.529 1284.96,1015.144 1320.556,1015.144 
		1320.556,989.945 1266.575,989.945 1170.874,1288.477 1073.889,989.945 1014.939,989.945 	"/>
	<polygon class="st2" points="1517.71,1127.237 1517.71,989.945 1465.812,989.945 1465.812,1015.144 1492.51,1015.144 
		1492.51,1102.037 1432.134,1102.037 1432.134,1498.064 1492.51,1498.064 1492.51,1584.957 1281.499,1584.957 1281.499,1498.064 
		1321.963,1498.064 1321.963,1241.383 1305.868,1192.487 1272.623,1234.151 1167.532,1584.957 1113.685,1584.957 989.162,1224.377 
		959.096,1188.497 940.142,1232.602 940.142,1498.064 990.241,1498.064 990.241,1584.957 829.97,1584.957 829.97,1498.064 
		890.345,1498.064 890.345,1102.037 829.97,1102.037 829.97,1015.144 869.682,1015.144 869.682,989.945 804.771,989.945 
		804.771,1127.237 865.146,1127.237 865.146,1472.864 804.771,1472.864 804.771,1610.157 1015.441,1610.157 1015.441,1472.864 
		965.343,1472.864 965.343,1232.602 1095.727,1610.157 1186.289,1610.157 1296.763,1241.382 1296.763,1472.864 1256.299,1472.864 
		1256.299,1610.157 1517.71,1610.157 1517.71,1472.864 1457.334,1472.864 1457.334,1127.237 	"/>
</g>
</svg>
