<?xml version="1.0" encoding="utf-8"?>
<!-- Generator: Adobe Illustrator 25.0.0, SVG Export Plug-In . SVG Version: 6.00 Build 0)  -->
<svg version="1.1" id="Layer_1" xmlns="http://www.w3.org/2000/svg" xmlns:xlink="http://www.w3.org/1999/xlink" x="0px" y="0px"
	 width="1567.251px" height="2326.86px" viewBox="0 0 1567.251 2326.86" style="enable-background:new 0 0 1567.251 2326.86;"
	 xml:space="preserve">
<style type="text/css">
	.st0{fill:none;stroke:#000000;stroke-width:2;stroke-miterlimit:10;}
	.st1{enable-background:new    ;}
	.st2{fill:none;stroke:#F806FF;stroke-width:2;stroke-miterlimit:10;}
</style>
<path class="st0" d="M745.919,596.062V722.57h608.929V596.062H745.919z M1179.734,637.632H920.908v-15.12h258.826V637.632
	L1179.734,637.632z"/>
<g class="st1">
	<path class="st2" d="M921.527,2232.618V2081.94h67.16v-370.238h-67.16v-148.095h349.574v148.095h-67.16v370.238h107.627
		l40.468-147.233h106.767v297.912L921.527,2232.618L921.527,2232.618z"/>
</g>
<path class="st0" d="M626.573,1934.706l-40.468,147.233H478.477v-370.238h67.16v-148.095H196.063v148.095h67.16v370.238h-67.16
	v150.679h537.276v-297.912L626.573,1934.706L626.573,1934.706z M708.139,2207.418H221.264V2107.14h67.16v-420.638h-67.16v-97.695
	h299.173v97.695h-67.16v420.638h152.036l40.468-147.233h62.358L708.139,2207.418L708.139,2207.418z"/>
<polygon class="st0" points="601.373,1212.166 560.905,1359.4 453.277,1359.4 453.277,989.162 520.437,989.162 520.437,841.067 
	423.607,841.067 423.607,866.267 495.237,866.267 495.237,963.962 428.077,963.962 428.077,1384.6 580.113,1384.6 620.581,1237.366 
	682.939,1237.366 682.939,1484.878 196.064,1484.878 196.064,1384.6 263.223,1384.6 263.223,963.962 196.064,963.962 
	196.064,866.267 268.531,866.267 268.531,841.067 170.863,841.067 170.863,989.162 238.023,989.162 238.023,1359.4 170.863,1359.4 
	170.863,1510.078 708.139,1510.078 708.139,1212.166 "/>
<polygon class="st0" points="1293.502,1204.213 1253.034,1351.446 1145.407,1351.446 1145.407,981.209 1212.567,981.209 
	1212.567,833.113 1115.736,833.113 1115.736,858.313 1187.367,858.313 1187.367,956.009 1120.207,956.009 1120.207,1376.646 
	1272.243,1376.646 1312.71,1229.413 1375.069,1229.413 1375.069,1476.925 888.193,1476.925 888.193,1376.646 955.353,1376.646 
	955.353,956.009 888.193,956.009 888.193,858.313 960.66,858.313 960.66,833.113 862.993,833.113 862.993,981.209 930.153,981.209 
	930.153,1351.446 862.993,1351.446 862.993,1502.125 1400.269,1502.125 1400.269,1204.213 "/>
<polygon class="st0" points="557.271,437.299 516.803,584.532 409.176,584.532 409.176,214.295 476.335,214.295 476.335,66.199 
	126.762,66.199 126.762,214.295 193.921,214.295 193.921,584.532 126.762,584.532 126.762,735.211 266.307,735.211 266.307,750.749 
	524.492,750.749 524.492,735.211 664.037,735.211 664.037,437.299 "/>
</svg>
