<?xml version="1.0" encoding="utf-8"?>
<!-- Generator: Adobe Illustrator 25.0.0, SVG Export Plug-In . SVG Version: 6.00 Build 0)  -->
<svg version="1.1" id="Layer_1" xmlns="http://www.w3.org/2000/svg" xmlns:xlink="http://www.w3.org/1999/xlink" x="0px" y="0px"
	 width="1757.935px" height="2326.86px" viewBox="0 0 1757.935 2326.86" style="enable-background:new 0 0 1757.935 2326.86;"
	 xml:space="preserve">
<style type="text/css">
	.st0{fill:none;stroke:#000000;stroke-width:1.7549;stroke-miterlimit:10;}
	.st1{enable-background:new    ;}
	.st2{fill:none;stroke:#000000;stroke-width:2;stroke-miterlimit:10;}
	.st3{fill:none;stroke:#DF00FF;stroke-width:2;stroke-miterlimit:10;}
</style>
<path class="st0" d="M815.779,590v126.508h650.205V590H815.779z M1269.838,632.029h-259.276v-15.12h259.276V632.029z"/>
<g class="st1">
	<path class="st2" d="M118.588,2267.084V2119.85l284.997-373.682H270.989l-33.58,130.875H116.005v-278.97h586.354v137.763
		l-284.137,380.57h129.153l45.634-141.207h117.96v291.886H118.588V2267.084z"/>
	<polygon class="st2" points="143.789,2241.884 143.789,2128.362 454.498,1720.968 251.438,1720.968 217.858,1851.842 
		141.206,1851.842 141.206,1623.272 677.159,1623.272 677.159,1727.467 367.959,2141.605 565.715,2141.605 611.349,2000.398 
		685.769,2000.398 685.769,2241.884 	"/>
</g>
<g class="st1">
	<path class="st3" d="M881.55,2254.299v-147.234l284.997-373.682H1033.95l-33.58,130.875H878.967v-278.97h586.354v137.763
		l-284.137,380.57h129.153l45.634-141.207h117.96V2254.3H881.55V2254.299z"/>
</g>
<polygon class="st2" points="579.088,435.38 533.454,576.587 404.301,576.587 688.438,196.018 688.438,58.254 102.084,58.254 
	102.084,337.224 223.487,337.224 257.067,206.35 389.664,206.35 104.667,580.032 104.667,727.266 270.474,727.266 270.474,742.804 
	528.658,742.804 528.658,727.266 697.048,727.266 697.048,435.38 "/>
<polygon class="st2" points="607.347,1244.284 561.713,1385.491 432.559,1385.491 716.696,1004.921 716.696,867.158 
	544.392,867.158 544.392,892.358 691.496,892.358 691.496,996.552 382.296,1410.691 580.052,1410.691 625.686,1269.484 
	700.106,1269.484 700.106,1510.969 158.126,1510.969 158.126,1397.448 468.835,990.053 265.776,990.053 232.196,1120.927 
	155.543,1120.927 155.543,892.358 304.193,892.358 304.193,867.158 130.343,867.158 130.343,1146.128 251.746,1146.128 
	285.326,1015.253 417.923,1015.253 132.926,1388.936 132.926,1536.17 725.307,1536.17 725.307,1244.284 "/>
<polygon class="st2" points="1361.55,1251.407 1315.916,1392.614 1186.763,1392.614 1470.9,1012.044 1470.9,874.281 
	1298.595,874.281 1298.595,899.481 1445.7,899.481 1445.7,1003.675 1136.5,1417.814 1334.256,1417.814 1379.89,1276.607 
	1454.31,1276.607 1454.31,1518.092 912.329,1518.092 912.329,1404.571 1223.038,997.176 1019.979,997.176 986.399,1128.05 
	909.746,1128.05 909.746,899.481 1058.397,899.481 1058.397,874.281 884.546,874.281 884.546,1153.251 1005.95,1153.251 
	1039.53,1022.376 1172.126,1022.376 887.129,1396.058 887.129,1543.293 1479.51,1543.293 1479.51,1251.407 "/>
</svg>
