<?xml version="1.0" encoding="utf-8"?>
<!-- Generator: Adobe Illustrator 25.0.0, SVG Export Plug-In . SVG Version: 6.00 Build 0)  -->
<svg version="1.1" id="Layer_1" xmlns="http://www.w3.org/2000/svg" xmlns:xlink="http://www.w3.org/1999/xlink" x="0px" y="0px"
	 width="1567.251px" height="2326.86px" viewBox="0 0 1567.251 2326.86" style="enable-background:new 0 0 1567.251 2326.86;"
	 xml:space="preserve">
<style type="text/css">
	.st0{fill:none;stroke:#000000;stroke-miterlimit:10;}
	.st1{enable-background:new    ;}
	.st2{fill:none;stroke:#FF00FF;stroke-width:2;stroke-miterlimit:10;}
</style>
<path class="st0" d="M973.145,1152.012v126.508h449.536v-126.508H973.145z M1068.82,1193.582v-15.12h258.185v15.12H1068.82z"/>
<g class="st1">
	<path class="st0" d="M194.869,2004.584v-148.096h67.16v-372.821h-67.16v-148.095h349.574v148.095h-67.16v372.821h67.16v148.096
		H194.869z"/>
	<polygon class="st0" points="220.069,1979.385 220.069,1881.689 287.229,1881.689 287.229,1458.468 220.069,1458.468 
		220.069,1360.773 519.243,1360.773 519.243,1458.468 452.082,1458.468 452.082,1881.689 519.243,1881.689 519.243,1979.385 	"/>
</g>
<g class="st1">
	<path class="st0" d="M1000.374,2004.584v-148.096h67.16v-372.821h-67.16v-148.095h349.574v148.095h-67.16v372.821h67.16v148.096
		H1000.374z"/>
</g>
<polygon class="st0" points="547.444,757.604 547.444,609.508 456.999,609.508 456.999,634.709 522.244,634.709 522.244,732.404 
	455.084,732.404 455.084,1155.625 522.244,1155.625 522.244,1253.32 223.071,1253.32 223.071,1155.625 290.23,1155.625 
	290.23,732.404 223.071,732.404 223.071,634.709 288.316,634.709 288.316,609.508 197.87,609.508 197.87,757.604 265.03,757.604 
	265.03,1130.424 197.87,1130.424 197.87,1278.52 547.444,1278.52 547.444,1130.424 480.284,1130.424 480.284,757.604 "/>
<polygon class="st0" points="940.541,757.604 940.541,609.508 850.096,609.508 850.096,634.709 915.341,634.709 915.341,732.404 
	848.181,732.404 848.181,1155.625 915.341,1155.625 915.341,1253.32 616.168,1253.32 616.168,1155.625 683.328,1155.625 
	683.328,732.404 616.168,732.404 616.168,634.709 681.413,634.709 681.413,609.508 590.968,609.508 590.968,757.604 
	658.127,757.604 658.127,1130.424 590.968,1130.424 590.968,1278.52 940.541,1278.52 940.541,1130.424 873.382,1130.424 
	873.382,757.604 "/>
<polygon class="st2" points="940.541,1483.668 940.541,1335.573 590.968,1335.573 590.968,1483.668 658.127,1483.668 
	658.127,1856.489 590.968,1856.489 590.968,2004.584 636.662,2004.584 636.662,2019.702 894.847,2019.702 894.847,2004.584 
	940.541,2004.584 940.541,1856.489 873.382,1856.489 873.382,1483.668 "/>
</svg>
