<?xml version="1.0" encoding="utf-8"?>
<!-- Generator: Adobe Illustrator 25.0.0, SVG Export Plug-In . SVG Version: 6.00 Build 0)  -->
<svg version="1.1" id="Layer_1" xmlns="http://www.w3.org/2000/svg" xmlns:xlink="http://www.w3.org/1999/xlink" x="0px" y="0px"
	 width="1567.251px" height="2326.86px" viewBox="0 0 1567.251 2326.86" style="enable-background:new 0 0 1567.251 2326.86;"
	 xml:space="preserve">
<style type="text/css">
	.st0{fill:none;stroke:#000000;stroke-width:2.0056;stroke-miterlimit:10;}
	.st1{enable-background:new    ;}
	.st2{fill:none;stroke:#000000;stroke-width:2;stroke-miterlimit:10;}
	.st3{fill:none;stroke:#F200FF;stroke-width:2;stroke-miterlimit:10;}
</style>
<path class="st0" d="M855.253,608.385v126.508h624.354V608.385H855.253z M1217.214,649.955H957.366v-15.12h259.846L1217.214,649.955
	L1217.214,649.955z"/>
<g class="st1">
	<path class="st2" d="M229.753,2222.197c-52.24-30.136-93.138-71.599-122.695-124.417c-29.57-52.805-44.343-112.215-44.343-178.23
		c0-68.882,14.06-129.436,42.19-181.675c28.117-52.227,68.155-92.694,120.112-121.404c51.943-28.696,112.928-43.051,182.966-43.051
		c70.025,0,130.875,14.354,182.536,43.051c51.661,28.709,91.551,69.177,119.682,121.404c28.118,52.239,42.19,112.793,42.19,181.675
		c0,68.881-16.077,130.592-48.218,185.118l1.723-0.86h68.021v151.539H506.14c-32.153,8.031-64.872,12.055-98.156,12.055
		C341.39,2267.401,281.979,2252.332,229.753,2222.197z M476.004,2061.186c16.063-40.468,24.108-88.819,24.108-145.081
		c0-53.384-7.749-98.439-23.247-135.18c-15.498-36.728-38.463-55.105-68.882-55.105c-30.996,0-54.244,18.377-69.742,55.105
		c-15.498,36.741-23.247,81.796-23.247,135.18c0,56.262,8.031,104.613,24.108,145.081c16.063,40.469,39.028,60.702,68.881,60.702
		C437.259,2121.888,459.928,2101.655,476.004,2061.186z"/>
	<path class="st2" d="M407.983,2242.2c-61.805,0-117.533-14.074-165.636-41.831c-48.017-27.699-86.135-66.355-113.299-114.896
		c-27.295-48.742-41.133-104.564-41.133-165.924c0-64.347,13.181-121.451,39.178-169.727
		c25.655-47.653,62.702-85.098,110.113-111.296c47.932-26.48,105.391-39.907,170.778-39.907c65.362,0,122.659,13.417,170.299,39.88
		c47.131,26.193,84.052,63.648,109.732,111.325c25.995,48.294,39.177,105.399,39.177,169.725
		c0,63.995-15.048,121.972-44.727,172.321l-43.281,73.428l72.657-36.291h36.877v101.139H503.04l-3.007,0.751
		C470.004,2238.397,439.035,2242.2,407.983,2242.2z M407.983,1700.619c-28.835,0-68.37,12.232-92.96,70.509
		c-16.741,39.688-25.229,88.465-25.229,144.977c0,59.202,8.71,111.146,25.889,154.386c13.869,34.939,41.143,76.598,92.3,76.598
		c50.427,0,77.559-41.655,91.44-76.599c17.179-43.279,25.888-95.22,25.888-154.385c0-56.512-8.488-105.288-25.228-144.974
		C475.493,1712.852,436.426,1700.619,407.983,1700.619z"/>
</g>
<g class="st1">
	<path class="st3" d="M946.206,2225.64c-52.24-30.136-93.138-71.599-122.695-124.417c-29.57-52.805-44.343-112.215-44.343-178.23
		c0-68.882,14.06-129.436,42.19-181.675c28.117-52.227,68.155-92.694,120.112-121.404c51.943-28.696,112.928-43.051,182.966-43.051
		c70.025,0,130.875,14.354,182.536,43.051c51.661,28.709,91.551,69.177,119.682,121.404c28.118,52.239,42.19,112.793,42.19,181.675
		c0,68.881-16.077,130.592-48.218,185.118l1.723-0.86h68.021v151.539h-267.777c-32.153,8.031-64.872,12.055-98.156,12.055
		C1057.842,2270.844,998.431,2255.776,946.206,2225.64z M1192.457,2064.63c16.063-40.468,24.108-88.819,24.108-145.081
		c0-53.384-7.749-98.439-23.247-135.18c-15.498-36.728-38.463-55.105-68.882-55.105c-30.996,0-54.244,18.377-69.742,55.105
		c-15.498,36.741-23.247,81.796-23.247,135.18c0,56.262,8.031,104.613,24.108,145.081c16.063,40.469,39.028,60.702,68.881,60.702
		C1153.711,2125.332,1176.38,2105.098,1192.457,2064.63z"/>
</g>
<g>
	<path class="st2" d="M695.134,1377.171l-1.723,0.86c32.141-54.526,48.218-116.237,48.218-185.118
		c0-68.882-14.072-129.436-42.19-181.675c-28.131-52.227-68.021-92.694-119.682-121.404c-30.018-16.674-63.145-28.496-99.366-35.484
		v25.755c31.786,6.6,60.922,17.2,87.129,31.757c47.131,26.193,84.052,63.648,109.732,111.325
		c25.995,48.294,39.177,105.399,39.177,169.725c0,63.995-15.048,121.972-44.727,172.321l-43.281,73.428l72.657-36.291h36.877
		v101.139H492.277l-3.007,0.751c-30.028,7.501-60.998,11.304-92.049,11.304c-61.805,0-117.533-14.074-165.636-41.831
		c-48.017-27.699-86.135-66.355-113.299-114.896c-27.295-48.742-41.133-104.564-41.133-165.924
		c0-64.347,13.181-121.451,39.178-169.727c25.655-47.653,62.702-85.098,110.113-111.296c23.669-13.076,49.666-22.963,77.789-29.628
		V856.35c-32.52,7.152-62.513,18.312-89.977,33.484c-51.957,28.709-91.995,69.177-120.112,121.404
		c-28.131,52.239-42.19,112.793-42.19,181.675c0,66.016,14.772,125.426,44.343,178.23c29.558,52.818,70.455,94.281,122.695,124.417
		c52.226,30.136,111.637,45.204,178.23,45.204c33.284,0,66.003-4.023,98.156-12.055h267.777V1377.17h-68.021V1377.171z"/>
	<path class="st2" d="M304.92,1343.854c13.869,34.939,41.143,76.598,92.3,76.598c50.427,0,77.559-41.655,91.44-76.599
		c17.179-43.279,25.888-95.22,25.888-154.385c0-56.512-8.488-105.288-25.228-144.974c-24.591-58.279-63.658-70.512-92.101-70.512
		c-28.835,0-68.37,12.232-92.96,70.509c-16.741,39.688-25.229,88.465-25.229,144.977
		C279.031,1248.67,287.741,1300.614,304.92,1343.854z M327.478,1054.288c15.498-36.728,38.746-55.105,69.742-55.105
		c30.419,0,53.384,18.377,68.882,55.105c15.498,36.741,23.247,81.796,23.247,135.18c0,56.262-8.045,104.613-24.108,145.081
		c-16.076,40.469-38.745,60.702-68.021,60.702c-29.853,0-52.817-20.233-68.881-60.702c-16.077-40.468-24.108-88.819-24.108-145.081
		C304.231,1136.085,311.98,1091.03,327.478,1054.288z"/>
</g>
<g>
	<path class="st2" d="M1411.586,1373.493l-1.723,0.86c32.141-54.526,48.218-116.237,48.218-185.118
		c0-68.882-14.072-129.436-42.19-181.675c-28.131-52.227-68.021-92.694-119.682-121.404c-30.018-16.674-63.145-28.496-99.366-35.484
		v25.755c31.786,6.6,60.922,17.2,87.129,31.757c47.131,26.193,84.052,63.648,109.732,111.325
		c25.995,48.294,39.177,105.399,39.177,169.725c0,63.995-15.048,121.972-44.727,172.321l-43.281,73.428l72.657-36.291h36.877
		v101.139H1208.73l-3.007,0.751c-30.028,7.501-60.998,11.304-92.049,11.304c-61.805,0-117.533-14.074-165.636-41.831
		c-48.017-27.699-86.135-66.355-113.299-114.896c-27.295-48.742-41.133-104.565-41.133-165.924
		c0-64.347,13.181-121.451,39.178-169.727c25.655-47.653,62.702-85.098,110.113-111.296c23.669-13.076,49.666-22.963,77.789-29.628
		v-25.912c-32.52,7.152-62.513,18.312-89.977,33.484c-51.957,28.709-91.995,69.177-120.112,121.404
		c-28.131,52.239-42.19,112.793-42.19,181.675c0,66.016,14.772,125.426,44.343,178.23c29.558,52.818,70.455,94.281,122.695,124.417
		c52.226,30.136,111.637,45.204,178.231,45.204c33.284,0,66.003-4.023,98.156-12.055h267.777v-151.539h-68.023V1373.493z"/>
	<path class="st2" d="M1021.373,1340.176c13.869,34.939,41.143,76.598,92.3,76.598c50.427,0,77.559-41.655,91.44-76.599
		c17.179-43.279,25.888-95.22,25.888-154.385c0-56.512-8.488-105.288-25.228-144.974c-24.591-58.279-63.658-70.512-92.101-70.512
		c-28.835,0-68.37,12.232-92.96,70.509c-16.741,39.688-25.229,88.465-25.229,144.977
		C995.484,1244.992,1004.194,1296.936,1021.373,1340.176z M1043.931,1050.61c15.498-36.728,38.746-55.105,69.742-55.105
		c30.419,0,53.384,18.377,68.882,55.105c15.498,36.741,23.247,81.796,23.247,135.18c0,56.262-8.045,104.613-24.108,145.081
		c-16.076,40.469-38.745,60.702-68.021,60.702c-29.853,0-52.817-20.233-68.881-60.702c-16.077-40.468-24.108-88.819-24.108-145.081
		C1020.684,1132.407,1028.433,1087.352,1043.931,1050.61z"/>
</g>
<path class="st2" d="M763.154,576.111h-68.021l-1.723,0.86c32.141-54.526,48.218-116.237,48.218-185.118
	c0-68.882-14.072-129.436-42.19-181.675c-28.131-52.227-68.021-92.694-119.682-121.404C528.095,60.078,467.245,45.723,397.22,45.723
	c-70.038,0-131.022,14.354-182.966,43.051c-51.957,28.709-91.995,69.177-120.112,121.404
	c-28.131,52.239-42.19,112.793-42.19,181.675c0,66.016,14.772,125.426,44.343,178.23c29.558,52.818,70.455,94.281,122.695,124.417
	c23.638,13.64,48.753,24.182,75.335,31.648h-35.707v29.094h258.185V727.65h246.352L763.154,576.111L763.154,576.111z
	 M327.479,253.229c15.498-36.728,38.746-55.105,69.742-55.105c30.419,0,53.384,18.377,68.882,55.105
	c15.498,36.741,23.247,81.796,23.247,135.18c0,56.262-8.045,104.613-24.108,145.081c-16.076,40.469-38.745,60.702-68.021,60.702
	c-29.853,0-52.817-20.233-68.881-60.702c-16.077-40.468-24.108-88.819-24.108-145.081
	C304.232,335.025,311.981,289.97,327.479,253.229z"/>
</svg>
