<?xml version="1.0" encoding="utf-8"?>
<!-- Generator: Adobe Illustrator 25.0.0, SVG Export Plug-In . SVG Version: 6.00 Build 0)  -->
<svg version="1.1" id="Layer_1" xmlns="http://www.w3.org/2000/svg" xmlns:xlink="http://www.w3.org/1999/xlink" x="0px" y="0px"
	 width="1567.251px" height="2326.86px" viewBox="0 0 1567.251 2326.86" style="enable-background:new 0 0 1567.251 2326.86;"
	 xml:space="preserve">
<style type="text/css">
	.st0{fill:none;stroke:#000000;stroke-width:0.871;stroke-miterlimit:10;}
	.st1{fill:none;stroke:#000000;stroke-width:2;stroke-miterlimit:10;}
</style>
<path class="st0" d="M843.93,583.68v126.508h570.797V583.68H843.93z M1231.899,625.25H973.714v-15.12h258.185L1231.899,625.25
	L1231.899,625.25z"/>
<path class="st1" d="M337.085,15.783v195.956h80.936v257.192c0,20.275-4.561,37.253-13.939,51.901
	c-9.498,14.826-19.492,16.728-27.138,16.728c-17.021,0-21.192-6.978-23.771-13.531c-4.359-11.059-9.556-34.077-9.556-80.928v-23.5
	H175.214v325.97h78.93v14.158h258.185v-15.12h-39.602c59.579-4.626,108.258-26.046,144.95-63.862
	c41.539-42.811,62.6-100.46,62.6-171.348v-297.66h67.16V15.783H337.085z M328.696,744.609l8.961-34.421
	c8.976,6.716,18.769,12.694,29.332,17.896c18.088,8.912,38.279,14.436,60.218,16.526L328.696,744.609L328.696,744.609z"/>
<path class="st1" d="M1036.455,1548.938v195.956h80.936v257.192c0,20.275-4.561,37.253-13.939,51.901
	c-9.498,14.826-19.492,16.728-27.138,16.728c-17.021,0-21.192-6.978-23.771-13.531c-4.359-11.059-9.556-34.077-9.556-80.928v-23.5
	H874.583v325.97h153.231l9.211-35.383c8.976,6.716,18.769,12.694,29.332,17.896c23.55,11.604,50.654,17.487,80.56,17.487
	c71.154,0,128.393-21.81,170.127-64.824c41.539-42.811,62.6-100.46,62.6-171.348v-297.66h67.16v-195.956H1036.455z"/>
<path class="st1" d="M422.085,1548.938v195.956h80.936v257.192c0,20.275-4.561,37.253-13.939,51.901
	c-9.498,14.826-19.492,16.728-27.138,16.728c-17.021,0-21.192-6.978-23.771-13.531c-4.359-11.059-9.556-34.077-9.556-80.928v-23.5
	H260.213v325.97h153.231l9.211-35.383c8.976,6.716,18.769,12.694,29.332,17.896c23.55,11.604,50.654,17.487,80.56,17.487
	c71.154,0,128.393-21.81,170.127-64.824c41.539-42.811,62.6-100.46,62.6-171.348v-297.66h67.16v-195.956H422.085z M807.234,1719.694
	h-67.16v322.86c0,64.108-18.668,115.854-55.486,153.8c-36.809,37.937-87.963,57.172-152.042,57.172
	c-26.009,0-49.366-5.011-69.422-14.893c-9.126-4.494-17.662-9.698-25.373-15.467l-30.034-22.473l-13.754,52.832h-108.55v-275.569
	h118.006c0.104,39.935,3.908,69.691,11.31,88.469c7.697,19.563,23.585,29.49,47.215,29.49c20.043,0,36.313-9.533,48.357-28.335
	c12.06-18.835,17.92-40.257,17.92-65.494v-282.393h-80.936v-145.556h359.95L807.234,1719.694L807.234,1719.694z"/>
<path class="st1" d="M543.136,788.911v25.2h86.636v145.556h-67.16v322.86c0,64.107-18.668,115.854-55.486,153.8
	c-36.809,37.937-87.963,57.172-152.042,57.172c-26.009,0-49.366-5.011-69.422-14.893c-9.126-4.494-17.662-9.698-25.373-15.467
	l-30.034-22.473l-13.754,52.832H107.95V1217.93h118.006c0.104,39.935,3.908,69.691,11.31,88.469
	c7.697,19.563,23.585,29.49,47.215,29.49c20.043,0,36.313-9.533,48.357-28.335c12.06-18.835,17.92-40.257,17.92-65.494V959.667
	h-80.936V814.111h99.039v-25.2H244.622v195.956h80.936v257.192c0,20.275-4.561,37.254-13.939,51.901
	c-9.498,14.826-19.492,16.728-27.138,16.728c-17.021,0-21.192-6.978-23.771-13.531c-4.359-11.059-9.556-34.077-9.556-80.928v-23.5
	H82.75v325.97h153.231l9.211-35.383c8.976,6.716,18.769,12.694,29.332,17.896c23.55,11.604,50.654,17.487,80.56,17.487
	c71.154,0,128.393-21.81,170.127-64.824c41.539-42.811,62.6-100.46,62.6-171.348v-297.66h67.16V788.911H543.136z"/>
<path class="st1" d="M1090.85,788.911v25.2h86.636v145.556h-67.16v322.86c0,64.108-18.668,115.854-55.486,153.8
	c-36.809,37.937-87.963,57.172-152.042,57.172c-26.009,0-49.366-5.011-69.422-14.893c-9.126-4.494-17.662-9.698-25.373-15.467
	l-30.034-22.473l-13.754,52.832h-108.55V1217.93h118.006c0.104,39.935,3.908,69.691,11.31,88.469
	c7.697,19.563,23.585,29.49,47.215,29.49c20.043,0,36.313-9.533,48.357-28.335c12.06-18.835,17.92-40.257,17.92-65.494V959.667
	h-80.936V814.111h99.039v-25.2h-124.24v195.956h80.936v257.192c0,20.275-4.561,37.254-13.939,51.901
	c-9.498,14.826-19.492,16.728-27.138,16.728c-17.021,0-21.192-6.978-23.771-13.531c-4.359-11.059-9.556-34.077-9.556-80.928v-23.5
	H630.465v325.97h153.231l9.211-35.383c8.976,6.716,18.769,12.694,29.332,17.896c23.55,11.604,50.654,17.487,80.56,17.487
	c71.154,0,128.393-21.81,170.128-64.824c41.539-42.811,62.6-100.46,62.6-171.348v-297.66h67.16V788.911H1090.85z"/>
</svg>
