  0
SECTION
  2
HEADER
  9
$ACADVER
  1
AC1024
  9
$ACADMAINTVER
 70
     6
  9
$DWGCODEPAGE
  3
UNDEFINED
  9
$INSBASE
 10
0.0
 20
0.0
 30
0.0
  9
$EXTMIN
 10
1.000000000000000E+20
 20
1.000000000000000E+20
 30
1.000000000000000E+20
  9
$EXTMAX
 10
-1.000000000000000E+20
 20
-1.000000000000000E+20
 30
-1.000000000000000E+20
  9
$LIMMIN
 10
0.0
 20
0.0
  9
$LIMMAX
 10
12.0
 20
9.0
  9
$ORTHOMODE
 70
     0
  9
$REGENMODE
 70
     1
  9
$FILLMODE
 70
     1
  9
$QTEXTMODE
 70
     0
  9
$MIRRTEXT
 70
     1
  9
$LTSCALE
 40
1.0
  9
$ATTMODE
 70
     1
  9
$TEXTSIZE
 40
0.2
  9
$TRACEWID
 40
0.05
  9
$TEXTSTYLE
  7
Standard
  9
$CLAYER
  8
0
  9
$CELTYPE
  6
ByLayer
  9
$CECOLOR
 62
   256
  9
$CELTSCALE
 40
1.0
  9
$DISPSILH
 70
     0
  9
$DIMSCALE
 40
1.0
  9
$DIMASZ
 40
0.18
  9
$DIMEXO
 40
0.0625
  9
$DIMDLI
 40
0.38
  9
$DIMRND
 40
0.0
  9
$DIMDLE
 40
0.0
  9
$DIMEXE
 40
0.18
  9
$DIMTP
 40
0.0
  9
$DIMTM
 40
0.0
  9
$DIMTXT
 40
0.18
  9
$DIMCEN
 40
0.09
  9
$DIMTSZ
 40
0.0
  9
$DIMTOL
 70
     0
  9
$DIMLIM
 70
     0
  9
$DIMTIH
 70
     1
  9
$DIMTOH
 70
     1
  9
$DIMSE1
 70
     0
  9
$DIMSE2
 70
     0
  9
$DIMTAD
 70
     0
  9
$DIMZIN
 70
     0
  9
$DIMBLK
  1

  9
$DIMASO
 70
     1
  9
$DIMSHO
 70
     1
  9
$DIMPOST
  1

  9
$DIMAPOST
  1

  9
$DIMALT
 70
     0
  9
$DIMALTD
 70
     2
  9
$DIMALTF
 40
25.4
  9
$DIMLFAC
 40
1.0
  9
$DIMTOFL
 70
     0
  9
$DIMTVP
 40
0.0
  9
$DIMTIX
 70
     0
  9
$DIMSOXD
 70
     0
  9
$DIMSAH
 70
     0
  9
$DIMBLK1
  1

  9
$DIMBLK2
  1

  9
$DIMSTYLE
  2
Standard
  9
$DIMCLRD
 70
     0
  9
$DIMCLRE
 70
     0
  9
$DIMCLRT
 70
     0
  9
$DIMTFAC
 40
1.0
  9
$DIMGAP
 40
0.09
  9
$DIMJUST
 70
     0
  9
$DIMSD1
 70
     0
  9
$DIMSD2
 70
     0
  9
$DIMTOLJ
 70
     1
  9
$DIMTZIN
 70
     0
  9
$DIMALTZ
 70
     0
  9
$DIMALTTZ
 70
     0
  9
$DIMUPT
 70
     0
  9
$DIMDEC
 70
     4
  9
$DIMTDEC
 70
     4
  9
$DIMALTU
 70
     2
  9
$DIMALTTD
 70
     2
  9
$DIMTXSTY
  7
Standard
  9
$DIMAUNIT
 70
     0
  9
$DIMADEC
 70
     0
  9
$DIMALTRND
 40
0.0
  9
$DIMAZIN
 70
     0
  9
$DIMDSEP
 70
    46
  9
$DIMATFIT
 70
     3
  9
$DIMFRAC
 70
     0
  9
$DIMLDRBLK
  1

  9
$DIMLUNIT
 70
     2
  9
$DIMLWD
 70
    -2
  9
$DIMLWE
 70
    -2
  9
$DIMTMOVE
 70
     0
  9
$DIMFXL
 40
1.0
  9
$DIMFXLON
 70
     0
  9
$DIMJOGANG
 40
0.7853981633974483
  9
$DIMTFILL
 70
     0
  9
$DIMTFILLCLR
 70
     0
  9
$DIMARCSYM
 70
     0
  9
$DIMLTYPE
  6

  9
$DIMLTEX1
  6

  9
$DIMLTEX2
  6

  9
$DIMTXTDIRECTION
 70
     0
  9
$LUNITS
 70
     2
  9
$LUPREC
 70
     4
  9
$SKETCHINC
 40
0.1
  9
$FILLETRAD
 40
0.5
  9
$AUNITS
 70
     0
  9
$AUPREC
 70
     0
  9
$MENU
  1
.
  9
$ELEVATION
 40
0.0
  9
$PELEVATION
 40
0.0
  9
$THICKNESS
 40
0.0
  9
$LIMCHECK
 70
     0
  9
$CHAMFERA
 40
0.5
  9
$CHAMFERB
 40
0.5
  9
$CHAMFERC
 40
1.0
  9
$CHAMFERD
 40
0.0
  9
$SKPOLY
 70
     0
  9
$TDCREATE
 40
2459305.89806713
  9
$TDUCREATE
 40
2459306.14806713
  9
$TDUPDATE
 40
2459305.89806713
  9
$TDUUPDATE
 40
2459306.14806713
  9
$TDINDWG
 40
0.0000000116
  9
$TDUSRTIMER
 40
0.0000000116
  9
$USRTIMER
 70
     1
  9
$ANGBASE
 50
0.0
  9
$ANGDIR
 70
     0
  9
$PDMODE
 70
     0
  9
$PDSIZE
 40
0.0
  9
$PLINEWID
 40
0.0
  9
$SPLFRAME
 70
     0
  9
$SPLINETYPE
 70
     6
  9
$SPLINESEGS
 70
     8
  9
$HANDSEED
  5
59
  9
$SURFTAB1
 70
     6
  9
$SURFTAB2
 70
     6
  9
$SURFTYPE
 70
     6
  9
$SURFU
 70
     6
  9
$SURFV
 70
     6
  9
$UCSBASE
  2

  9
$UCSNAME
  2

  9
$UCSORG
 10
0.0
 20
0.0
 30
0.0
  9
$UCSXDIR
 10
1.0
 20
0.0
 30
0.0
  9
$UCSYDIR
 10
0.0
 20
1.0
 30
0.0
  9
$UCSORTHOREF
  2

  9
$UCSORTHOVIEW
 70
     0
  9
$UCSORGTOP
 10
0.0
 20
0.0
 30
0.0
  9
$UCSORGBOTTOM
 10
0.0
 20
0.0
 30
0.0
  9
$UCSORGLEFT
 10
0.0
 20
0.0
 30
0.0
  9
$UCSORGRIGHT
 10
0.0
 20
0.0
 30
0.0
  9
$UCSORGFRONT
 10
0.0
 20
0.0
 30
0.0
  9
$UCSORGBACK
 10
0.0
 20
0.0
 30
0.0
  9
$PUCSBASE
  2

  9
$PUCSNAME
  2

  9
$PUCSORG
 10
0.0
 20
0.0
 30
0.0
  9
$PUCSXDIR
 10
1.0
 20
0.0
 30
0.0
  9
$PUCSYDIR
 10
0.0
 20
1.0
 30
0.0
  9
$PUCSORTHOREF
  2

  9
$PUCSORTHOVIEW
 70
     0
  9
$PUCSORGTOP
 10
0.0
 20
0.0
 30
0.0
  9
$PUCSORGBOTTOM
 10
0.0
 20
0.0
 30
0.0
  9
$PUCSORGLEFT
 10
0.0
 20
0.0
 30
0.0
  9
$PUCSORGRIGHT
 10
0.0
 20
0.0
 30
0.0
  9
$PUCSORGFRONT
 10
0.0
 20
0.0
 30
0.0
  9
$PUCSORGBACK
 10
0.0
 20
0.0
 30
0.0
  9
$USERI1
 70
     0
  9
$USERI2
 70
     0
  9
$USERI3
 70
     0
  9
$USERI4
 70
     0
  9
$USERI5
 70
     0
  9
$USERR1
 40
0.0
  9
$USERR2
 40
0.0
  9
$USERR3
 40
0.0
  9
$USERR4
 40
0.0
  9
$USERR5
 40
0.0
  9
$WORLDVIEW
 70
     1
  9
$SHADEDGE
 70
     3
  9
$SHADEDIF
 70
    70
  9
$TILEMODE
 70
     1
  9
$MAXACTVP
 70
    64
  9
$PINSBASE
 10
0.0
 20
0.0
 30
0.0
  9
$PLIMCHECK
 70
     0
  9
$PEXTMIN
 10
1.000000000000000E+20
 20
1.000000000000000E+20
 30
1.000000000000000E+20
  9
$PEXTMAX
 10
-1.000000000000000E+20
 20
-1.000000000000000E+20
 30
-1.000000000000000E+20
  9
$PLIMMIN
 10
0.0
 20
0.0
  9
$PLIMMAX
 10
12.0
 20
9.0
  9
$UNITMODE
 70
     0
  9
$VISRETAIN
 70
     1
  9
$PLINEGEN
 70
     0
  9
$PSLTSCALE
 70
     1
  9
$TREEDEPTH
 70
  3020
  9
$CMLSTYLE
  2
Standard
  9
$CMLJUST
 70
     0
  9
$CMLSCALE
 40
1.0
  9
$PROXYGRAPHICS
 70
     1
  9
$MEASUREMENT
 70
     0
  9
$CELWEIGHT
370
    -1
  9
$ENDCAPS
280
     0
  9
$JOINSTYLE
280
     0
  9
$LWDISPLAY
290
     1
  9
$INSUNITS
 70
     1
  9
$HYPERLINKBASE
  1

  9
$STYLESHEET
  1

  9
$XEDIT
290
     1
  9
$CEPSNTYPE
380
     0
  9
$PSTYLEMODE
290
     1
  9
$FINGERPRINTGUID
  2
{73FAEF10-1A36-5BB1-3F00-D7A23562AF60}
  9
$VERSIONGUID
  2
{FAEB1C32-E019-11D5-929B-00C0DF256EC4}
  9
$EXTNAMES
290
     1
  9
$PSVPSCALE
 40
0.0
  9
$OLESTARTUP
290
     0
  9
$SORTENTS
280
   127
  9
$INDEXCTL
280
     0
  9
$HIDETEXT
280
     1
  9
$XCLIPFRAME
280
     2
  9
$HALOGAP
280
     0
  9
$OBSCOLOR
 70
   257
  9
$OBSLTYPE
280
     0
  9
$INTERSECTIONDISPLAY
280
     0
  9
$INTERSECTIONCOLOR
 70
   257
  9
$DIMASSOC
280
     2
  9
$PROJECTNAME
  1

  9
$CAMERADISPLAY
290
     0
  9
$LENSLENGTH
 40
50.0
  9
$CAMERAHEIGHT
 40
0.0
  9
$STEPSPERSEC
 40
2.0
  9
$STEPSIZE
 40
6.0
  9
$3DDWFPREC
 40
2.0
  9
$PSOLWIDTH
 40
0.25
  9
$PSOLHEIGHT
 40
4.0
  9
$LOFTANG1
 40
1.570796326794897
  9
$LOFTANG2
 40
1.570796326794897
  9
$LOFTMAG1
 40
0.0
  9
$LOFTMAG2
 40
0.0
  9
$LOFTPARAM
 70
     7
  9
$LOFTNORMALS
280
     1
  9
$LATITUDE
 40
37.795
  9
$LONGITUDE
 40
-122.394
  9
$NORTHDIRECTION
 40
0.0
  9
$TIMEZONE
 70
 -8000
  9
$LIGHTGLYPHDISPLAY
280
     1
  9
$TILEMODELIGHTSYNCH
280
     1
  9
$CMATERIAL
347
3C
  9
$SOLIDHIST
280
     1
  9
$SHOWHIST
280
     1
  9
$DWFFRAME
280
     2
  9
$DGNFRAME
280
     2
  9
$REALWORLDSCALE
290
     1
  9
$INTERFERECOLOR
 62
   256
  9
$CSHADOW
280
     0
  9
$SHADOWPLANELOCATION
 40
0.0
  0
ENDSEC
  0
SECTION
  2
CLASSES
  0
CLASS
  1
ACDBDICTIONARYWDFLT
  2
AcDbDictionaryWithDefault
  3
ObjectDBX Classes
 90
        0
 91
        4
280
     0
281
     0
  0
CLASS
  1
VISUALSTYLE
  2
AcDbVisualStyle
  3
ObjectDBX Classes
 90
     4095
 91
        4
280
     0
281
     0
  0
CLASS
  1
MATERIAL
  2
AcDbMaterial
  3
ObjectDBX Classes
 90
     1153
 91
        4
280
     0
281
     0
  0
CLASS
  1
SUN
  2
AcDbSun
  3
SCENEOE
 90
     1024
 91
        4
280
     0
281
     0
  0
ENDSEC
  0
SECTION
  2
TABLES
  0
TABLE
  2
VPORT
  5
8
330
0
100
AcDbSymbolTable
 70
     1
  0
VPORT
  5
29
330
8
100
AcDbSymbolTableRecord
100
AcDbViewportTableRecord
  2
*Active
 70
     0
 10
0.0
 20
0.0
 11
1.0
 21
1.0
 12
0.0
 22
0.0
 13
0.0
 23
0.0
 14
0.5
 24
0.5
 15
0.5
 25
0.5
 16
0.0
 26
0.0
 36
1.0
 17
10.88368733723958
 27
16.15875074598524
 37
0.0
 40
32.31750149197048
 41
0.6735475723544849
 42
50.0
 43
0.0
 44
0.0
 50
0.0
 51
0.0
 71
     0
 72
   100
 73
     1
 74
     3
 75
     0
 76
     0
 77
     0
 78
     0
281
     0
 65
     1
110
0.0
120
0.0
130
0.0
111
1.0
121
0.0
131
0.0
112
0.0
122
1.0
132
0.0
 79
     0
146
0.0
 60
     3
 61
     5
292
     1
282
     1
141
0.0
142
0.0
 63
   250
361
3F
  0
ENDTAB
  0
TABLE
  2
LTYPE
  5
5
330
0
100
AcDbSymbolTable
 70
     1
  0
LTYPE
  5
14
330
5
100
AcDbSymbolTableRecord
100
AcDbLinetypeTableRecord
  2
ByBlock
 70
     0
  3

 72
    65
 73
     0
 40
0.0
  0
LTYPE
  5
15
330
5
100
AcDbSymbolTableRecord
100
AcDbLinetypeTableRecord
  2
ByLayer
 70
     0
  3

 72
    65
 73
     0
 40
0.0
  0
LTYPE
  5
16
330
5
100
AcDbSymbolTableRecord
100
AcDbLinetypeTableRecord
  2
Continuous
 70
     0
  3
Solid line
 72
    65
 73
     0
 40
0.0
  0
ENDTAB
  0
TABLE
  2
LAYER
  5
2
330
0
100
AcDbSymbolTable
 70
     2
  0
LAYER
  5
10
330
2
100
AcDbSymbolTableRecord
100
AcDbLayerTableRecord
  2
0
 70
     0
 62
     7
  6
Continuous
370
    -3
390
F
347
3E
  0
LAYER
  5
40
330
2
100
AcDbSymbolTableRecord
100
AcDbLayerTableRecord
  2
Layer 1
 70
     0
 62
     7
  6
Continuous
370
    -3
390
F
347
3E
  0
ENDTAB
  0
TABLE
  2
STYLE
  5
3
330
0
100
AcDbSymbolTable
 70
     1
  0
STYLE
  5
11
330
3
100
AcDbSymbolTableRecord
100
AcDbTextStyleTableRecord
  2
Standard
 70
     0
 40
0.0
 41
1.0
 50
0.0
 71
     0
 42
0.2
  3
txt
  4

  0
ENDTAB
  0
TABLE
  2
VIEW
  5
6
330
0
100
AcDbSymbolTable
 70
     0
  0
ENDTAB
  0
TABLE
  2
UCS
  5
7
330
0
100
AcDbSymbolTable
 70
     0
  0
ENDTAB
  0
TABLE
  2
APPID
  5
9
330
0
100
AcDbSymbolTable
 70
     1
  0
APPID
  5
12
330
9
100
AcDbSymbolTableRecord
100
AcDbRegAppTableRecord
  2
ACAD
 70
     0
  0
ENDTAB
  0
TABLE
  2
DIMSTYLE
  5
A
330
0
100
AcDbSymbolTable
 70
     1
100
AcDbDimStyleTable
  0
DIMSTYLE
105
27
330
A
100
AcDbSymbolTableRecord
100
AcDbDimStyleTableRecord
  2
Standard
 70
     0
178
     0
340
11
  0
ENDTAB
  0
TABLE
  2
BLOCK_RECORD
  5
1
330
0
100
AcDbSymbolTable
 70
     1
  0
BLOCK_RECORD
  5
1F
330
1
100
AcDbSymbolTableRecord
100
AcDbBlockTableRecord
  2
*Model_Space
340
22
 70
     0
280
     1
281
     0
  0
BLOCK_RECORD
  5
1B
330
1
100
AcDbSymbolTableRecord
100
AcDbBlockTableRecord
  2
*Paper_Space
340
1E
 70
     0
280
     1
281
     0
  0
BLOCK_RECORD
  5
23
330
1
100
AcDbSymbolTableRecord
100
AcDbBlockTableRecord
  2
*Paper_Space0
340
26
 70
     0
280
     1
281
     0
  0
ENDTAB
  0
ENDSEC
  0
SECTION
  2
BLOCKS
  0
BLOCK
  5
20
330
1F
100
AcDbEntity
  8
0
100
AcDbBlockBegin
  2
*Model_Space
 70
     0
 10
0.0
 20
0.0
 30
0.0
  3
*Model_Space
  1

  0
ENDBLK
  5
21
330
1F
100
AcDbEntity
  8
0
100
AcDbBlockEnd
  0
BLOCK
  5
1C
330
1B
100
AcDbEntity
 67
     1
  8
0
100
AcDbBlockBegin
  2
*Paper_Space
 70
     0
 10
0.0
 20
0.0
 30
0.0
  3
*Paper_Space
  1

  0
ENDBLK
  5
1D
330
1B
100
AcDbEntity
 67
     1
  8
0
100
AcDbBlockEnd
  0
BLOCK
  5
24
330
23
100
AcDbEntity
  8
0
100
AcDbBlockBegin
  2
*Paper_Space0
 70
     0
 10
0.0
 20
0.0
 30
0.0
  3
*Paper_Space0
  1

  0
ENDBLK
  5
25
330
23
100
AcDbEntity
  8
0
100
AcDbBlockEnd
  0
ENDSEC
  0
SECTION
  2
ENTITIES
  0
POLYLINE
  5
41
330
1F
100
AcDbEntity
  8
Layer 1
 62
     7
420
 16777215
370
    30
100
AcDb2dPolyline
 66
     1
 10
0.0
 20
0.0
 30
0.0
  0
VERTEX
  5
42
330
41
100
AcDbEntity
  8
Layer 1
 62
     7
420
 16777215
370
    30
100
AcDbVertex
100
AcDb2dVertex
 10
11.72124989827474
 20
24.21083489312067
 30
0.0
  0
VERTEX
  5
43
330
41
100
AcDbEntity
  8
Layer 1
 62
     7
420
 16777215
370
    30
100
AcDbVertex
100
AcDb2dVertex
 10
11.72124989827474
 20
22.45377939860026
 30
0.0
  0
VERTEX
  5
44
330
41
100
AcDbEntity
  8
Layer 1
 62
     7
420
 16777215
370
    30
100
AcDbVertex
100
AcDb2dVertex
 10
19.64898681640625
 20
22.45377939860026
 30
0.0
  0
VERTEX
  5
45
330
41
100
AcDbEntity
  8
Layer 1
 62
     7
420
 16777215
370
    30
100
AcDbVertex
100
AcDb2dVertex
 10
19.64898681640625
 20
24.21083489312067
 30
0.0
  0
VERTEX
  5
46
330
41
100
AcDbEntity
  8
Layer 1
 62
     7
420
 16777215
370
    30
100
AcDbVertex
100
AcDb2dVertex
 10
11.72124989827474
 20
24.21083489312067
 30
0.0
  0
SEQEND
  5
47
330
41
100
AcDbEntity
  8
Layer 1
 62
     7
420
 16777215
370
    30
  0
POLYLINE
  5
48
330
1F
100
AcDbEntity
  8
Layer 1
 62
     7
420
 16777215
370
    30
100
AcDb2dPolyline
 66
     1
 10
0.0
 20
0.0
 30
0.0
  0
VERTEX
  5
49
330
48
100
AcDbEntity
  8
Layer 1
 62
     7
420
 16777215
370
    30
100
AcDbVertex
100
AcDb2dVertex
 10
17.10970899793837
 20
23.63347368028429
 30
0.0
  0
VERTEX
  5
4A
330
48
100
AcDbEntity
  8
Layer 1
 62
     7
420
 16777215
370
    30
100
AcDbVertex
100
AcDb2dVertex
 10
13.52380540635851
 20
23.63347368028429
 30
0.0
  0
VERTEX
  5
4B
330
48
100
AcDbEntity
  8
Layer 1
 62
     7
420
 16777215
370
    30
100
AcDbVertex
100
AcDb2dVertex
 10
13.52380540635851
 20
23.84347361246745
 30
0.0
  0
VERTEX
  5
4C
330
48
100
AcDbEntity
  8
Layer 1
 62
     7
420
 16777215
370
    30
100
AcDbVertex
100
AcDb2dVertex
 10
17.10970730251736
 20
23.84347361246745
 30
0.0
  0
VERTEX
  5
4D
330
48
100
AcDbEntity
  8
Layer 1
 62
     7
420
 16777215
370
    30
100
AcDbVertex
100
AcDb2dVertex
 10
17.10970899793837
 20
23.63347368028429
 30
0.0
  0
VERTEX
  5
4E
330
48
100
AcDbEntity
  8
Layer 1
 62
     7
420
 16777215
370
    30
100
AcDbVertex
100
AcDb2dVertex
 10
17.10970899793837
 20
23.63347368028429
 30
0.0
  0
SEQEND
  5
4F
330
48
100
AcDbEntity
  8
Layer 1
 62
     7
420
 16777215
370
    30
  0
SPLINE
  5
50
330
1F
100
AcDbEntity
  8
Layer 1
 62
     7
420
 16777215
370
    70
100
AcDbSpline
210
0.0
220
0.0
230
1.0
 70
    11
 71
     3
 72
    68
 73
    64
 74
     0
 42
0.0000000001
 43
0.0000000001
 12
1.0
 22
0.0
 32
0.0
 13
1.0
 23
0.0
 33
0.0
 40
0.0
 40
0.0
 40
0.0
 40
0.0
 40
1.0
 40
1.0
 40
1.0
 40
2.0
 40
2.0
 40
2.0
 40
3.0
 40
3.0
 40
3.0
 40
4.0
 40
4.0
 40
4.0
 40
5.0
 40
5.0
 40
5.0
 40
6.0
 40
6.0
 40
6.0
 40
7.0
 40
7.0
 40
7.0
 40
8.0
 40
8.0
 40
8.0
 40
9.0
 40
9.0
 40
9.0
 40
10.0
 40
10.0
 40
10.0
 40
11.0
 40
11.0
 40
11.0
 40
12.0
 40
12.0
 40
12.0
 40
13.0
 40
13.0
 40
13.0
 40
14.0
 40
14.0
 40
14.0
 40
15.0
 40
15.0
 40
15.0
 40
16.0
 40
16.0
 40
16.0
 40
17.0
 40
17.0
 40
17.0
 40
18.0
 40
18.0
 40
18.0
 40
19.0
 40
19.0
 40
19.0
 40
20.0
 40
20.0
 40
20.0
 40
21.0
 40
21.0
 40
21.0
 40
21.0
 10
4.681735992431641
 20
32.0982931248347
 30
0.0
 10
4.681735992431641
 20
32.0982931248347
 30
0.0
 10
4.681735992431641
 20
29.3766820356581
 30
0.0
 10
4.681735992431641
 20
29.3766820356581
 30
0.0
 10
4.681735992431641
 20
29.3766820356581
 30
0.0
 10
5.80584716796875
 20
29.3766820356581
 30
0.0
 10
5.80584716796875
 20
29.3766820356581
 30
0.0
 10
5.80584716796875
 20
29.3766820356581
 30
0.0
 10
5.80584716796875
 20
25.80457132975261
 30
0.0
 10
5.80584716796875
 20
25.80457132975261
 30
0.0
 10
5.80584716796875
 20
25.52297419230144
 30
0.0
 10
5.742499881320529
 20
25.28716868082683
 30
0.0
 10
5.612250010172525
 20
25.08372409396702
 30
0.0
 10
5.480333540174696
 20
24.87780758327909
 30
0.0
 10
5.341527726915147
 20
24.85139038085938
 30
0.0
 10
5.235333336724175
 20
24.85139038085938
 30
0.0
 10
4.998930613199869
 20
24.85139038085938
 30
0.0
 10
4.941000196668837
 20
24.94830742730035
 30
0.0
 10
4.905180613199869
 20
25.03932101779515
 30
0.0
 10
4.844638824462891
 20
25.19291853162978
 30
0.0
 10
4.772458394368489
 20
25.5126126268175
 30
0.0
 10
4.772458394368489
 20
26.1633211432563
 30
0.0
 10
4.772458394368489
 20
26.1633211432563
 30
0.0
 10
4.772458394368489
 20
26.48971003214519
 30
0.0
 10
4.772458394368489
 20
26.48971003214519
 30
0.0
 10
4.772458394368489
 20
26.48971003214519
 30
0.0
 10
2.433527840508355
 20
26.48971003214519
 30
0.0
 10
2.433527840508355
 20
26.48971003214519
 30
0.0
 10
2.433527840508355
 20
26.48971003214519
 30
0.0
 10
2.433527840508355
 20
21.96234890407987
 30
0.0
 10
2.433527840508355
 20
21.96234890407987
 30
0.0
 10
2.433527840508355
 20
21.96234890407987
 30
0.0
 10
3.52977795071072
 20
21.96234890407987
 30
0.0
 10
3.52977795071072
 20
21.96234890407987
 30
0.0
 10
3.52977795071072
 20
21.96234890407987
 30
0.0
 10
3.52977795071072
 20
21.76570973714193
 30
0.0
 10
3.52977795071072
 20
21.76570973714193
 30
0.0
 10
3.52977795071072
 20
21.76570973714193
 30
0.0
 10
7.115680270724826
 20
21.76570973714193
 30
0.0
 10
7.115680270724826
 20
21.76570973714193
 30
0.0
 10
7.115680270724826
 20
21.76570973714193
 30
0.0
 10
7.115680270724826
 20
21.97570966932509
 30
0.0
 10
7.115680270724826
 20
21.97570966932509
 30
0.0
 10
7.115680270724826
 20
21.97570966932509
 30
0.0
 10
6.565652635362413
 20
21.97570966932509
 30
0.0
 10
6.565652635362413
 20
21.97570966932509
 30
0.0
 10
7.393138461642795
 20
22.03995934380426
 30
0.0
 10
8.06923590766059
 20
22.33745995415582
 30
0.0
 10
8.578847249348957
 20
22.86268188476563
 30
0.0
 10
9.155777825249565
 20
23.4572787475586
 30
0.0
 10
9.4482913547092
 20
24.25795996771919
 30
0.0
 10
9.4482913547092
 20
25.24251553005643
 30
0.0
 10
9.4482913547092
 20
25.24251553005643
 30
0.0
 10
9.4482913547092
 20
29.37668224758573
 30
0.0
 10
9.4482913547092
 20
29.37668224758573
 30
0.0
 10
9.4482913547092
 20
29.37668224758573
 30
0.0
 10
10.38106960720486
 20
29.37668224758573
 30
0.0
 10
10.38106960720486
 20
29.37668224758573
 30
0.0
 10
10.38106960720486
 20
29.37668224758573
 30
0.0
 10
10.38106960720486
 20
32.0982931248347
 30
0.0
 10
10.38106960720486
 20
32.0982931248347
 30
0.0
 10
10.38106960720486
 20
32.0982931248347
 30
0.0
 10
4.681735992431641
 20
32.0982931248347
 30
0.0
 10
4.681735992431641
 20
32.0982931248347
 30
0.0
  0
SPLINE
  5
51
330
1F
100
AcDbEntity
  8
Layer 1
 62
     7
420
 16777215
370
    70
100
AcDbSpline
210
0.0
220
0.0
230
1.0
 70
    11
 71
     3
 72
    20
 73
    16
 74
     0
 42
0.0000000001
 43
0.0000000001
 12
1.0
 22
0.0
 32
0.0
 13
1.0
 23
0.0
 33
0.0
 40
0.0
 40
0.0
 40
0.0
 40
0.0
 40
1.0
 40
1.0
 40
1.0
 40
2.0
 40
2.0
 40
2.0
 40
3.0
 40
3.0
 40
3.0
 40
4.0
 40
4.0
 40
4.0
 40
5.0
 40
5.0
 40
5.0
 40
5.0
 10
4.5652224222819
 20
21.97570966932509
 30
0.0
 10
4.5652224222819
 20
21.97570966932509
 30
0.0
 10
4.689680735270182
 20
22.45377939860026
 30
0.0
 10
4.689680735270182
 20
22.45377939860026
 30
0.0
 10
4.814347585042317
 20
22.3605015733507
 30
0.0
 10
4.95036146375868
 20
22.27747426350912
 30
0.0
 10
5.097069634331597
 20
22.20522389729818
 30
0.0
 10
5.348292032877604
 20
22.08144629584419
 30
0.0
 10
5.628722296820746
 20
22.00472425672744
 30
0.0
 10
5.933430565728082
 20
21.97569610595704
 30
0.0
 10
5.933430565728082
 20
21.97569610595704
 30
0.0
 10
4.5652224222819
 20
21.97569610595704
 30
0.0
 10
4.5652224222819
 20
21.97569610595704
 30
0.0
 10
4.5652224222819
 20
21.97569610595704
 30
0.0
 10
4.5652224222819
 20
21.97570966932509
 30
0.0
 10
4.5652224222819
 20
21.97570966932509
 30
0.0
  0
SPLINE
  5
52
330
1F
100
AcDbEntity
  8
Layer 1
 62
     7
420
 16777215
370
    70
100
AcDbSpline
210
0.0
220
0.0
230
1.0
 70
    11
 71
     3
 72
    65
 73
    61
 74
     0
 42
0.0000000001
 43
0.0000000001
 12
1.0
 22
0.0
 32
0.0
 13
1.0
 23
0.0
 33
0.0
 40
0.0
 40
0.0
 40
0.0
 40
0.0
 40
1.0
 40
1.0
 40
1.0
 40
2.0
 40
2.0
 40
2.0
 40
3.0
 40
3.0
 40
3.0
 40
4.0
 40
4.0
 40
4.0
 40
5.0
 40
5.0
 40
5.0
 40
6.0
 40
6.0
 40
6.0
 40
7.0
 40
7.0
 40
7.0
 40
8.0
 40
8.0
 40
8.0
 40
9.0
 40
9.0
 40
9.0
 40
10.0
 40
10.0
 40
10.0
 40
11.0
 40
11.0
 40
11.0
 40
12.0
 40
12.0
 40
12.0
 40
13.0
 40
13.0
 40
13.0
 40
14.0
 40
14.0
 40
14.0
 40
15.0
 40
15.0
 40
15.0
 40
16.0
 40
16.0
 40
16.0
 40
17.0
 40
17.0
 40
17.0
 40
18.0
 40
18.0
 40
18.0
 40
19.0
 40
19.0
 40
19.0
 40
20.0
 40
20.0
 40
20.0
 40
20.0
 10
14.39520772298177
 20
10.80447384304471
 30
0.0
 10
14.39520772298177
 20
10.80447384304471
 30
0.0
 10
14.39520772298177
 20
8.08286197238499
 30
0.0
 10
14.39520772298177
 20
8.08286197238499
 30
0.0
 10
14.39520772298177
 20
8.08286197238499
 30
0.0
 10
15.51931932237413
 20
8.08286197238499
 30
0.0
 10
15.51931932237413
 20
8.08286197238499
 30
0.0
 10
15.51931932237413
 20
8.08286197238499
 30
0.0
 10
15.51931932237413
 20
4.510750630696621
 30
0.0
 10
15.51931932237413
 20
4.510750630696621
 30
0.0
 10
15.51931932237413
 20
4.229153069390198
 30
0.0
 10
15.45597161187066
 20
3.993347134060337
 30
0.0
 10
15.32572258843316
 20
3.789903394911031
 30
0.0
 10
15.19380527072483
 20
3.5839877319336
 30
0.0
 10
15.05500115288628
 20
3.557569681803392
 30
0.0
 10
14.94880506727431
 20
3.557569681803392
 30
0.0
 10
14.71240234375
 20
3.557569681803392
 30
0.0
 10
14.65447150336371
 20
3.654486728244365
 30
0.0
 10
14.61865234375
 20
3.745500318739156
 30
0.0
 10
14.55811055501302
 20
3.899096984863288
 30
0.0
 10
14.48592970106337
 20
4.21879235161676
 30
0.0
 10
14.48592970106337
 20
4.869500020345058
 30
0.0
 10
14.48592970106337
 20
4.869500020345058
 30
0.0
 10
14.48592970106337
 20
5.195888909233948
 30
0.0
 10
14.48592970106337
 20
5.195888909233948
 30
0.0
 10
14.48592970106337
 20
5.195888909233948
 30
0.0
 10
12.14698621961806
 20
5.195888909233948
 30
0.0
 10
12.14698621961806
 20
5.195888909233948
 30
0.0
 10
12.14698621961806
 20
5.195888909233948
 30
0.0
 10
12.14698621961806
 20
0.6685282050238786
 30
0.0
 10
12.14698621961806
 20
0.6685282050238786
 30
0.0
 10
12.14698621961806
 20
0.6685282050238786
 30
0.0
 10
14.27519395616319
 20
0.6685282050238786
 30
0.0
 10
14.27519395616319
 20
0.6685282050238786
 30
0.0
 10
14.27519395616319
 20
0.6685282050238786
 30
0.0
 10
14.4031253390842
 20
1.159959547254781
 30
0.0
 10
14.4031253390842
 20
1.159959547254781
 30
0.0
 10
14.52779134114583
 20
1.066680874294712
 30
0.0
 10
14.66380649142795
 20
0.9836527167426286
 30
0.0
 10
14.81051466200087
 20
0.911404045952698
 30
0.0
 10
15.1375986735026
 20
0.7502373250325591
 30
0.0
 10
15.51404317220052
 20
0.6685282050238786
 30
0.0
 10
15.92940266927083
 20
0.6685282050238786
 30
0.0
 10
16.91765340169271
 20
0.6685282050238786
 30
0.0
 10
17.71263970269097
 20
0.9714456854926286
 30
0.0
 10
18.29227701822916
 20
1.568861185709642
 30
0.0
 10
18.86920844184028
 20
2.163458896213115
 30
0.0
 10
19.16172112358941
 20
2.964138420952698
 30
0.0
 10
19.16172112358941
 20
3.948694831000441
 30
0.0
 10
19.16172112358941
 20
3.948694831000441
 30
0.0
 10
19.16172112358941
 20
8.08286197238499
 30
0.0
 10
19.16172112358941
 20
8.08286197238499
 30
0.0
 10
19.16172112358941
 20
8.08286197238499
 30
0.0
 10
20.09449937608507
 20
8.08286197238499
 30
0.0
 10
20.09449937608507
 20
8.08286197238499
 30
0.0
 10
20.09449937608507
 20
8.08286197238499
 30
0.0
 10
20.09449937608507
 20
10.80447384304471
 30
0.0
 10
20.09449937608507
 20
10.80447384304471
 30
0.0
 10
20.09449937608507
 20
10.80447384304471
 30
0.0
 10
14.39520772298177
 20
10.80447384304471
 30
0.0
 10
14.39520772298177
 20
10.80447384304471
 30
0.0
  0
SPLINE
  5
53
330
1F
100
AcDbEntity
  8
Layer 1
 62
     7
420
 16777215
370
    70
100
AcDbSpline
210
0.0
220
0.0
230
1.0
 70
    11
 71
     3
 72
    65
 73
    61
 74
     0
 42
0.0000000001
 43
0.0000000001
 12
1.0
 22
0.0
 32
0.0
 13
1.0
 23
0.0
 33
0.0
 40
0.0
 40
0.0
 40
0.0
 40
0.0
 40
1.0
 40
1.0
 40
1.0
 40
2.0
 40
2.0
 40
2.0
 40
3.0
 40
3.0
 40
3.0
 40
4.0
 40
4.0
 40
4.0
 40
5.0
 40
5.0
 40
5.0
 40
6.0
 40
6.0
 40
6.0
 40
7.0
 40
7.0
 40
7.0
 40
8.0
 40
8.0
 40
8.0
 40
9.0
 40
9.0
 40
9.0
 40
10.0
 40
10.0
 40
10.0
 40
11.0
 40
11.0
 40
11.0
 40
12.0
 40
12.0
 40
12.0
 40
13.0
 40
13.0
 40
13.0
 40
14.0
 40
14.0
 40
14.0
 40
15.0
 40
15.0
 40
15.0
 40
16.0
 40
16.0
 40
16.0
 40
17.0
 40
17.0
 40
17.0
 40
18.0
 40
18.0
 40
18.0
 40
19.0
 40
19.0
 40
19.0
 40
20.0
 40
20.0
 40
20.0
 40
20.0
 10
5.862291547987196
 20
10.80447384304471
 30
0.0
 10
5.862291547987196
 20
10.80447384304471
 30
0.0
 10
5.862291547987196
 20
8.08286197238499
 30
0.0
 10
5.862291547987196
 20
8.08286197238499
 30
0.0
 10
5.862291547987196
 20
8.08286197238499
 30
0.0
 10
6.986402723524305
 20
8.08286197238499
 30
0.0
 10
6.986402723524305
 20
8.08286197238499
 30
0.0
 10
6.986402723524305
 20
8.08286197238499
 30
0.0
 10
6.986402723524305
 20
4.510750630696621
 30
0.0
 10
6.986402723524305
 20
4.510750630696621
 30
0.0
 10
6.986402723524305
 20
4.229153069390198
 30
0.0
 10
6.923055436876084
 20
3.993347134060337
 30
0.0
 10
6.792805565728081
 20
3.789903394911031
 30
0.0
 10
6.660889095730251
 20
3.5839877319336
 30
0.0
 10
6.522083282470703
 20
3.557569681803392
 30
0.0
 10
6.415888892279731
 20
3.557569681803392
 30
0.0
 10
6.179486168755425
 20
3.557569681803392
 30
0.0
 10
6.121555752224392
 20
3.654486728244365
 30
0.0
 10
6.085736168755425
 20
3.745500318739156
 30
0.0
 10
6.025194380018446
 20
3.899096984863288
 30
0.0
 10
5.953013949924045
 20
4.21879235161676
 30
0.0
 10
5.953013949924045
 20
4.869500020345058
 30
0.0
 10
5.953013949924045
 20
4.869500020345058
 30
0.0
 10
5.953013949924045
 20
5.195888909233948
 30
0.0
 10
5.953013949924045
 20
5.195888909233948
 30
0.0
 10
5.953013949924045
 20
5.195888909233948
 30
0.0
 10
3.614069620768229
 20
5.195888909233948
 30
0.0
 10
3.614069620768229
 20
5.195888909233948
 30
0.0
 10
3.614069620768229
 20
5.195888909233948
 30
0.0
 10
3.614069620768229
 20
0.6685282050238786
 30
0.0
 10
3.614069620768229
 20
0.6685282050238786
 30
0.0
 10
3.614069620768229
 20
0.6685282050238786
 30
0.0
 10
5.742278205023871
 20
0.6685282050238786
 30
0.0
 10
5.742278205023871
 20
0.6685282050238786
 30
0.0
 10
5.742278205023871
 20
0.6685282050238786
 30
0.0
 10
5.870208740234375
 20
1.159959547254781
 30
0.0
 10
5.870208740234375
 20
1.159959547254781
 30
0.0
 10
5.99487559000651
 20
1.066680874294712
 30
0.0
 10
6.130889468722873
 20
0.9836527167426286
 30
0.0
 10
6.27759763929579
 20
0.911404045952698
 30
0.0
 10
6.604680803087022
 20
0.7502373250325591
 30
0.0
 10
6.981125301784939
 20
0.6685282050238786
 30
0.0
 10
7.396486070421006
 20
0.6685282050238786
 30
0.0
 10
8.384735955132378
 20
0.6685282050238786
 30
0.0
 10
9.179722256130642
 20
0.9714456854926286
 30
0.0
 10
9.759361267089844
 20
1.568861185709642
 30
0.0
 10
10.33629184299045
 20
2.163458896213115
 30
0.0
 10
10.62880537245009
 20
2.964138420952698
 30
0.0
 10
10.62880537245009
 20
3.948694831000441
 30
0.0
 10
10.62880537245009
 20
3.948694831000441
 30
0.0
 10
10.62880537245009
 20
8.08286197238499
 30
0.0
 10
10.62880537245009
 20
8.08286197238499
 30
0.0
 10
10.62880537245009
 20
8.08286197238499
 30
0.0
 10
11.56158277723524
 20
8.08286197238499
 30
0.0
 10
11.56158277723524
 20
8.08286197238499
 30
0.0
 10
11.56158277723524
 20
8.08286197238499
 30
0.0
 10
11.56158277723524
 20
10.80447384304471
 30
0.0
 10
11.56158277723524
 20
10.80447384304471
 30
0.0
 10
11.56158277723524
 20
10.80447384304471
 30
0.0
 10
5.862291547987196
 20
10.80447384304471
 30
0.0
 10
5.862291547987196
 20
10.80447384304471
 30
0.0
  0
SPLINE
  5
54
330
1F
100
AcDbEntity
  8
Layer 1
 62
     7
420
 16777215
370
    70
100
AcDbSpline
210
0.0
220
0.0
230
1.0
 70
    11
 71
     3
 72
    68
 73
    64
 74
     0
 42
0.0000000001
 43
0.0000000001
 12
1.0
 22
0.0
 32
0.0
 13
1.0
 23
0.0
 33
0.0
 40
0.0
 40
0.0
 40
0.0
 40
0.0
 40
1.0
 40
1.0
 40
1.0
 40
2.0
 40
2.0
 40
2.0
 40
3.0
 40
3.0
 40
3.0
 40
4.0
 40
4.0
 40
4.0
 40
5.0
 40
5.0
 40
5.0
 40
6.0
 40
6.0
 40
6.0
 40
7.0
 40
7.0
 40
7.0
 40
8.0
 40
8.0
 40
8.0
 40
9.0
 40
9.0
 40
9.0
 40
10.0
 40
10.0
 40
10.0
 40
11.0
 40
11.0
 40
11.0
 40
12.0
 40
12.0
 40
12.0
 40
13.0
 40
13.0
 40
13.0
 40
14.0
 40
14.0
 40
14.0
 40
15.0
 40
15.0
 40
15.0
 40
16.0
 40
16.0
 40
16.0
 40
17.0
 40
17.0
 40
17.0
 40
18.0
 40
18.0
 40
18.0
 40
19.0
 40
19.0
 40
19.0
 40
20.0
 40
20.0
 40
20.0
 40
21.0
 40
21.0
 40
21.0
 40
21.0
 10
11.21158345540364
 20
8.432862989637593
 30
0.0
 10
11.21158345540364
 20
8.432862989637593
 30
0.0
 10
10.27880520290799
 20
8.432862989637593
 30
0.0
 10
10.27880520290799
 20
8.432862989637593
 30
0.0
 10
10.27880520290799
 20
8.432862989637593
 30
0.0
 10
10.27880520290799
 20
3.948696526421448
 30
0.0
 10
10.27880520290799
 20
3.948696526421448
 30
0.0
 10
10.27880520290799
 20
3.05830888536242
 30
0.0
 10
10.01952785915799
 20
2.339613138834642
 30
0.0
 10
9.508165995279947
 20
1.812584737141934
 30
0.0
 10
8.996929592556423
 20
1.28568179660374
 30
0.0
 10
8.28645748562283
 20
1.018527526855476
 30
0.0
 10
7.396471659342447
 20
1.018527526855476
 30
0.0
 10
7.035235510932075
 20
1.018527526855476
 30
0.0
 10
6.710832807752821
 20
1.088124559190545
 30
0.0
 10
6.432277255588107
 20
1.225375671386726
 30
0.0
 10
6.305527157253689
 20
1.287790900336379
 30
0.0
 10
6.186971876356337
 20
1.360070088704434
 30
0.0
 10
6.079874674479166
 20
1.440195685492629
 30
0.0
 10
6.079874674479166
 20
1.440195685492629
 30
0.0
 10
5.662735833062066
 20
1.752319302029087
 30
0.0
 10
5.662735833062066
 20
1.752319302029087
 30
0.0
 10
5.662735833062066
 20
1.752319302029087
 30
0.0
 10
5.471708085801866
 20
1.018541090223531
 30
0.0
 10
5.471708085801866
 20
1.018541090223531
 30
0.0
 10
5.471708085801866
 20
1.018541090223531
 30
0.0
 10
3.964069366455078
 20
1.018541090223531
 30
0.0
 10
3.964069366455078
 20
1.018541090223531
 30
0.0
 10
3.964069366455078
 20
1.018541090223531
 30
0.0
 10
3.964069366455078
 20
4.845887891981343
 30
0.0
 10
3.964069366455078
 20
4.845887891981343
 30
0.0
 10
3.964069366455078
 20
4.845887891981343
 30
0.0
 10
5.603041754828559
 20
4.845887891981343
 30
0.0
 10
5.603041754828559
 20
4.845887891981343
 30
0.0
 10
5.604486253526475
 20
4.291234300401483
 30
0.0
 10
5.65731938680013
 20
3.877956780327698
 30
0.0
 10
5.760125054253472
 20
3.617150166829434
 30
0.0
 10
5.867027706570095
 20
3.345441996256517
 30
0.0
 10
6.087694380018446
 20
3.207566969129781
 30
0.0
 10
6.415888892279731
 20
3.207566969129781
 30
0.0
 10
6.694263882107204
 20
3.207566969129781
 30
0.0
 10
6.920235951741536
 20
3.3399691772461
 30
0.0
 10
7.087513817681206
 20
3.601108093261725
 30
0.0
 10
7.255014207628038
 20
3.862704772949225
 30
0.0
 10
7.336402893066406
 20
4.1602325100369
 30
0.0
 10
7.336402893066406
 20
4.510747239854608
 30
0.0
 10
7.336402893066406
 20
4.510747239854608
 30
0.0
 10
7.336402893066406
 20
8.432871466742629
 30
0.0
 10
7.336402893066406
 20
8.432871466742629
 30
0.0
 10
7.336402893066406
 20
8.432871466742629
 30
0.0
 10
6.212291717529297
 20
8.432871466742629
 30
0.0
 10
6.212291717529297
 20
8.432871466742629
 30
0.0
 10
6.212291717529297
 20
8.432871466742629
 30
0.0
 10
6.212291717529297
 20
10.45448299831815
 30
0.0
 10
6.212291717529297
 20
10.45448299831815
 30
0.0
 10
6.212291717529297
 20
10.45448299831815
 30
0.0
 10
11.2115970187717
 20
10.45448299831815
 30
0.0
 10
11.2115970187717
 20
10.45448299831815
 30
0.0
 10
11.2115970187717
 20
10.45448299831815
 30
0.0
 10
11.2115970187717
 20
8.432862989637593
 30
0.0
 10
11.2115970187717
 20
8.432862989637593
 30
0.0
 10
11.2115970187717
 20
8.432862989637593
 30
0.0
 10
11.21158345540364
 20
8.432862989637593
 30
0.0
 10
11.21158345540364
 20
8.432862989637593
 30
0.0
  0
SPLINE
  5
55
330
1F
100
AcDbEntity
  8
Layer 1
 62
     7
420
 16777215
370
    70
100
AcDbSpline
210
0.0
220
0.0
230
1.0
 70
    11
 71
     3
 72
   137
 73
   133
 74
     0
 42
0.0000000001
 43
0.0000000001
 12
1.0
 22
0.0
 32
0.0
 13
1.0
 23
0.0
 33
0.0
 40
0.0
 40
0.0
 40
0.0
 40
0.0
 40
1.0
 40
1.0
 40
1.0
 40
2.0
 40
2.0
 40
2.0
 40
3.0
 40
3.0
 40
3.0
 40
4.0
 40
4.0
 40
4.0
 40
5.0
 40
5.0
 40
5.0
 40
6.0
 40
6.0
 40
6.0
 40
7.0
 40
7.0
 40
7.0
 40
8.0
 40
8.0
 40
8.0
 40
9.0
 40
9.0
 40
9.0
 40
10.0
 40
10.0
 40
10.0
 40
11.0
 40
11.0
 40
11.0
 40
12.0
 40
12.0
 40
12.0
 40
13.0
 40
13.0
 40
13.0
 40
14.0
 40
14.0
 40
14.0
 40
15.0
 40
15.0
 40
15.0
 40
16.0
 40
16.0
 40
16.0
 40
17.0
 40
17.0
 40
17.0
 40
18.0
 40
18.0
 40
18.0
 40
19.0
 40
19.0
 40
19.0
 40
20.0
 40
20.0
 40
20.0
 40
21.0
 40
21.0
 40
21.0
 40
22.0
 40
22.0
 40
22.0
 40
23.0
 40
23.0
 40
23.0
 40
24.0
 40
24.0
 40
24.0
 40
25.0
 40
25.0
 40
25.0
 40
26.0
 40
26.0
 40
26.0
 40
27.0
 40
27.0
 40
27.0
 40
28.0
 40
28.0
 40
28.0
 40
29.0
 40
29.0
 40
29.0
 40
30.0
 40
30.0
 40
30.0
 40
31.0
 40
31.0
 40
31.0
 40
32.0
 40
32.0
 40
32.0
 40
33.0
 40
33.0
 40
33.0
 40
34.0
 40
34.0
 40
34.0
 40
35.0
 40
35.0
 40
35.0
 40
36.0
 40
36.0
 40
36.0
 40
37.0
 40
37.0
 40
37.0
 40
38.0
 40
38.0
 40
38.0
 40
39.0
 40
39.0
 40
39.0
 40
40.0
 40
40.0
 40
40.0
 40
41.0
 40
41.0
 40
41.0
 40
42.0
 40
42.0
 40
42.0
 40
43.0
 40
43.0
 40
43.0
 40
44.0
 40
44.0
 40
44.0
 40
44.0
 10
7.543555365668403
 20
21.3604040866428
 30
0.0
 10
7.543555365668403
 20
21.3604040866428
 30
0.0
 10
7.543555365668403
 20
21.0104039171007
 30
0.0
 10
7.543555365668403
 20
21.0104039171007
 30
0.0
 10
7.543555365668403
 20
21.0104039171007
 30
0.0
 10
8.746832953559027
 20
21.0104039171007
 30
0.0
 10
8.746832953559027
 20
21.0104039171007
 30
0.0
 10
8.746832953559027
 20
21.0104039171007
 30
0.0
 10
8.746832953559027
 20
18.98879323323568
 30
0.0
 10
8.746832953559027
 20
18.98879323323568
 30
0.0
 10
8.746832953559027
 20
18.98879323323568
 30
0.0
 10
7.814054701063368
 20
18.98879323323568
 30
0.0
 10
7.814054701063368
 20
18.98879323323568
 30
0.0
 10
7.814054701063368
 20
18.98879323323568
 30
0.0
 10
7.814054701063368
 20
14.50462677001954
 30
0.0
 10
7.814054701063368
 20
14.50462677001954
 30
0.0
 10
7.814054701063368
 20
13.61425099690756
 30
0.0
 10
7.554777357313368
 20
12.89554338243273
 30
0.0
 10
7.043415917290581
 20
12.36851498074002
 30
0.0
 10
6.532179938422309
 20
11.84161204020183
 30
0.0
 10
5.821707831488715
 20
11.57445946587457
 30
0.0
 10
4.931721157497829
 20
11.57445946587457
 30
0.0
 10
4.570485009087457
 20
11.57445946587457
 30
0.0
 10
4.246082305908203
 20
11.64405649820964
 30
0.0
 10
3.967526753743489
 20
11.78130591498481
 30
0.0
 10
3.840776655409071
 20
11.84372283935548
 30
0.0
 10
3.722221374511719
 20
11.91600033230252
 30
0.0
 10
3.615124172634548
 20
11.99612592909072
 30
0.0
 10
3.615124172634548
 20
11.99612592909072
 30
0.0
 10
3.197985331217448
 20
12.30825124104818
 30
0.0
 10
3.197985331217448
 20
12.30825124104818
 30
0.0
 10
3.197985331217448
 20
12.30825124104818
 30
0.0
 10
3.006957583957248
 20
11.57447302924263
 30
0.0
 10
3.006957583957248
 20
11.57447302924263
 30
0.0
 10
3.006957583957248
 20
11.57447302924263
 30
0.0
 10
1.49930551317003
 20
11.57447302924263
 30
0.0
 10
1.49930551317003
 20
11.57447302924263
 30
0.0
 10
1.49930551317003
 20
11.57447302924263
 30
0.0
 10
1.49930551317003
 20
15.40180626763238
 30
0.0
 10
1.49930551317003
 20
15.40180626763238
 30
0.0
 10
1.49930551317003
 20
15.40180626763238
 30
0.0
 10
3.138277689615885
 20
15.40180626763238
 30
0.0
 10
3.138277689615885
 20
15.40180626763238
 30
0.0
 10
3.139722188313802
 20
14.84715267605252
 30
0.0
 10
3.192555533515082
 20
14.43387515597874
 30
0.0
 10
3.295360989040798
 20
14.17307023790148
 30
0.0
 10
3.402263853285048
 20
13.90136206732856
 30
0.0
 10
3.622930314805772
 20
13.76348704020183
 30
0.0
 10
3.951124827067057
 20
13.76348704020183
 30
0.0
 10
4.229499816894531
 20
13.76348704020183
 30
0.0
 10
4.455471886528863
 20
13.89588924831815
 30
0.0
 10
4.622749752468533
 20
14.15702816433377
 30
0.0
 10
4.790249718560113
 20
14.41862484402127
 30
0.0
 10
4.871638827853732
 20
14.71615258110895
 30
0.0
 10
4.871638827853732
 20
15.06666731092666
 30
0.0
 10
4.871638827853732
 20
15.06666731092666
 30
0.0
 10
4.871638827853732
 20
18.98879323323568
 30
0.0
 10
4.871638827853732
 20
18.98879323323568
 30
0.0
 10
4.871638827853732
 20
18.98879323323568
 30
0.0
 10
3.747527652316623
 20
18.98879323323568
 30
0.0
 10
3.747527652316623
 20
18.98879323323568
 30
0.0
 10
3.747527652316623
 20
18.98879323323568
 30
0.0
 10
3.747527652316623
 20
21.0104039171007
 30
0.0
 10
3.747527652316623
 20
21.0104039171007
 30
0.0
 10
3.747527652316623
 20
21.0104039171007
 30
0.0
 10
5.123069339328342
 20
21.0104039171007
 30
0.0
 10
5.123069339328342
 20
21.0104039171007
 30
0.0
 10
5.123069339328342
 20
21.0104039171007
 30
0.0
 10
5.123069339328342
 20
21.3604040866428
 30
0.0
 10
5.123069339328342
 20
21.3604040866428
 30
0.0
 10
5.123069339328342
 20
21.3604040866428
 30
0.0
 10
3.397527694702148
 20
21.3604040866428
 30
0.0
 10
3.397527694702148
 20
21.3604040866428
 30
0.0
 10
3.397527694702148
 20
21.3604040866428
 30
0.0
 10
3.397527694702148
 20
18.63879306369358
 30
0.0
 10
3.397527694702148
 20
18.63879306369358
 30
0.0
 10
3.397527694702148
 20
18.63879306369358
 30
0.0
 10
4.521638658311631
 20
18.63879306369358
 30
0.0
 10
4.521638658311631
 20
18.63879306369358
 30
0.0
 10
4.521638658311631
 20
18.63879306369358
 30
0.0
 10
4.521638658311631
 20
15.06668256971572
 30
0.0
 10
4.521638658311631
 20
15.06668256971572
 30
0.0
 10
4.521638658311631
 20
14.7850850084093
 30
0.0
 10
4.458291371663411
 20
14.54926550971138
 30
0.0
 10
4.328041500515408
 20
14.34583533393013
 30
0.0
 10
4.196125030517578
 20
14.13991797553169
 30
0.0
 10
4.057319217258029
 20
14.11350162082249
 30
0.0
 10
3.951124827067057
 20
14.11350162082249
 30
0.0
 10
3.714722103542751
 20
14.11350162082249
 30
0.0
 10
3.656791687011719
 20
14.21041866726346
 30
0.0
 10
3.620972103542751
 20
14.30143225775825
 30
0.0
 10
3.560430314805772
 20
14.45502892388238
 30
0.0
 10
3.488249884711371
 20
14.77472429063586
 30
0.0
 10
3.488249884711371
 20
15.42543195936416
 30
0.0
 10
3.488249884711371
 20
15.42543195936416
 30
0.0
 10
3.488249884711371
 20
15.75182084825305
 30
0.0
 10
3.488249884711371
 20
15.75182084825305
 30
0.0
 10
3.488249884711371
 20
15.75182084825305
 30
0.0
 10
1.149305555555556
 20
15.75182084825305
 30
0.0
 10
1.149305555555556
 20
15.75182084825305
 30
0.0
 10
1.149305555555556
 20
15.75182084825305
 30
0.0
 10
1.149305555555556
 20
11.22446014404298
 30
0.0
 10
1.149305555555556
 20
11.22446014404298
 30
0.0
 10
1.149305555555556
 20
11.22446014404298
 30
0.0
 10
3.277513927883572
 20
11.22446014404298
 30
0.0
 10
3.277513927883572
 20
11.22446014404298
 30
0.0
 10
3.277513927883572
 20
11.22446014404298
 30
0.0
 10
3.405444463094075
 20
11.71589148627388
 30
0.0
 10
3.405444463094075
 20
11.71589148627388
 30
0.0
 10
3.530111100938585
 20
11.62261450873481
 30
0.0
 10
3.666124979654948
 20
11.53958635118273
 30
0.0
 10
3.812833150227864
 20
11.4673359849718
 30
0.0
 10
4.139916314019097
 20
11.30616926405166
 30
0.0
 10
4.516360812717013
 20
11.22446014404298
 30
0.0
 10
4.931722005208333
 20
11.22446014404298
 30
0.0
 10
5.919971889919704
 20
11.22446014404298
 30
0.0
 10
6.714958190917969
 20
11.52737762451173
 30
0.0
 10
7.29459720187717
 20
12.12479312472874
 30
0.0
 10
7.871527777777778
 20
12.71939083523221
 30
0.0
 10
8.164041307237413
 20
13.5200703599718
 30
0.0
 10
8.164041307237413
 20
14.50462677001954
 30
0.0
 10
8.164041307237413
 20
14.50462677001954
 30
0.0
 10
8.164041307237413
 20
18.63879391140409
 30
0.0
 10
8.164041307237413
 20
18.63879391140409
 30
0.0
 10
8.164041307237413
 20
18.63879391140409
 30
0.0
 10
9.09681871202257
 20
18.63879391140409
 30
0.0
 10
9.09681871202257
 20
18.63879391140409
 30
0.0
 10
9.09681871202257
 20
18.63879391140409
 30
0.0
 10
9.09681871202257
 20
21.3604040866428
 30
0.0
 10
9.09681871202257
 20
21.3604040866428
 30
0.0
 10
9.09681871202257
 20
21.3604040866428
 30
0.0
 10
7.543555365668403
 20
21.3604040866428
 30
0.0
 10
7.543555365668403
 20
21.3604040866428
 30
0.0
  0
SPLINE
  5
56
330
1F
100
AcDbEntity
  8
Layer 1
 62
     7
420
 16777215
370
    70
100
AcDbSpline
210
0.0
220
0.0
230
1.0
 70
    11
 71
     3
 72
   137
 73
   133
 74
     0
 42
0.0000000001
 43
0.0000000001
 12
1.0
 22
0.0
 32
0.0
 13
1.0
 23
0.0
 33
0.0
 40
0.0
 40
0.0
 40
0.0
 40
0.0
 40
1.0
 40
1.0
 40
1.0
 40
2.0
 40
2.0
 40
2.0
 40
3.0
 40
3.0
 40
3.0
 40
4.0
 40
4.0
 40
4.0
 40
5.0
 40
5.0
 40
5.0
 40
6.0
 40
6.0
 40
6.0
 40
7.0
 40
7.0
 40
7.0
 40
8.0
 40
8.0
 40
8.0
 40
9.0
 40
9.0
 40
9.0
 40
10.0
 40
10.0
 40
10.0
 40
11.0
 40
11.0
 40
11.0
 40
12.0
 40
12.0
 40
12.0
 40
13.0
 40
13.0
 40
13.0
 40
14.0
 40
14.0
 40
14.0
 40
15.0
 40
15.0
 40
15.0
 40
16.0
 40
16.0
 40
16.0
 40
17.0
 40
17.0
 40
17.0
 40
18.0
 40
18.0
 40
18.0
 40
19.0
 40
19.0
 40
19.0
 40
20.0
 40
20.0
 40
20.0
 40
21.0
 40
21.0
 40
21.0
 40
22.0
 40
22.0
 40
22.0
 40
23.0
 40
23.0
 40
23.0
 40
24.0
 40
24.0
 40
24.0
 40
25.0
 40
25.0
 40
25.0
 40
26.0
 40
26.0
 40
26.0
 40
27.0
 40
27.0
 40
27.0
 40
28.0
 40
28.0
 40
28.0
 40
29.0
 40
29.0
 40
29.0
 40
30.0
 40
30.0
 40
30.0
 40
31.0
 40
31.0
 40
31.0
 40
32.0
 40
32.0
 40
32.0
 40
33.0
 40
33.0
 40
33.0
 40
34.0
 40
34.0
 40
34.0
 40
35.0
 40
35.0
 40
35.0
 40
36.0
 40
36.0
 40
36.0
 40
37.0
 40
37.0
 40
37.0
 40
38.0
 40
38.0
 40
38.0
 40
39.0
 40
39.0
 40
39.0
 40
40.0
 40
40.0
 40
40.0
 40
41.0
 40
41.0
 40
41.0
 40
42.0
 40
42.0
 40
42.0
 40
43.0
 40
43.0
 40
43.0
 40
44.0
 40
44.0
 40
44.0
 40
44.0
 10
15.15069410536024
 20
21.3604040866428
 30
0.0
 10
15.15069410536024
 20
21.3604040866428
 30
0.0
 10
15.15069410536024
 20
21.0104039171007
 30
0.0
 10
15.15069410536024
 20
21.0104039171007
 30
0.0
 10
15.15069410536024
 20
21.0104039171007
 30
0.0
 10
16.35397169325087
 20
21.0104039171007
 30
0.0
 10
16.35397169325087
 20
21.0104039171007
 30
0.0
 10
16.35397169325087
 20
21.0104039171007
 30
0.0
 10
16.35397169325087
 20
18.98879323323568
 30
0.0
 10
16.35397169325087
 20
18.98879323323568
 30
0.0
 10
16.35397169325087
 20
18.98879323323568
 30
0.0
 10
15.42119344075521
 20
18.98879323323568
 30
0.0
 10
15.42119344075521
 20
18.98879323323568
 30
0.0
 10
15.42119344075521
 20
18.98879323323568
 30
0.0
 10
15.42119344075521
 20
14.50462677001954
 30
0.0
 10
15.42119344075521
 20
14.50462677001954
 30
0.0
 10
15.42119344075521
 20
13.6142374335395
 30
0.0
 10
15.16191609700521
 20
12.89554338243273
 30
0.0
 10
14.65055508083767
 20
12.36851498074002
 30
0.0
 10
14.13931867811415
 20
11.84161204020183
 30
0.0
 10
13.42884657118056
 20
11.57445946587457
 30
0.0
 10
12.53886074490017
 20
11.57445946587457
 30
0.0
 10
12.17762502034505
 20
11.57445946587457
 30
0.0
 10
11.85322146945529
 20
11.64405649820964
 30
0.0
 10
11.57466634114583
 20
11.78130591498481
 30
0.0
 10
11.44791666666667
 20
11.84372283935548
 30
0.0
 10
11.32936096191406
 20
11.91600033230252
 30
0.0
 10
11.22226376003689
 20
11.99612592909072
 30
0.0
 10
11.22226376003689
 20
11.99612592909072
 30
0.0
 10
10.80512491861979
 20
12.30825124104818
 30
0.0
 10
10.80512491861979
 20
12.30825124104818
 30
0.0
 10
10.80512491861979
 20
12.30825124104818
 30
0.0
 10
10.61409674750434
 20
11.57447302924263
 30
0.0
 10
10.61409674750434
 20
11.57447302924263
 30
0.0
 10
10.61409674750434
 20
11.57447302924263
 30
0.0
 10
9.106458028157551
 20
11.57447302924263
 30
0.0
 10
9.106458028157551
 20
11.57447302924263
 30
0.0
 10
9.106458028157551
 20
11.57447302924263
 30
0.0
 10
9.106458028157551
 20
15.40180626763238
 30
0.0
 10
9.106458028157551
 20
15.40180626763238
 30
0.0
 10
9.106458028157551
 20
15.40180626763238
 30
0.0
 10
10.74542999267578
 20
15.40180626763238
 30
0.0
 10
10.74542999267578
 20
15.40180626763238
 30
0.0
 10
10.7468744913737
 20
14.84715267605252
 30
0.0
 10
10.7997080485026
 20
14.43387515597874
 30
0.0
 10
10.90251329210069
 20
14.17307023790148
 30
0.0
 10
11.00941636827257
 20
13.90136206732856
 30
0.0
 10
11.23008304172092
 20
13.76348704020183
 30
0.0
 10
11.5582775539822
 20
13.76348704020183
 30
0.0
 10
11.83665296766493
 20
13.76348704020183
 30
0.0
 10
12.06262461344401
 20
13.89588924831815
 30
0.0
 10
12.22990247938368
 20
14.15702816433377
 30
0.0
 10
12.39740244547526
 20
14.41862484402127
 30
0.0
 10
12.47879113091363
 20
14.71615258110895
 30
0.0
 10
12.47879113091363
 20
15.06666731092666
 30
0.0
 10
12.47879113091363
 20
15.06666731092666
 30
0.0
 10
12.47879113091363
 20
18.98879323323568
 30
0.0
 10
12.47879113091363
 20
18.98879323323568
 30
0.0
 10
12.47879113091363
 20
18.98879323323568
 30
0.0
 10
11.35468037923177
 20
18.98879323323568
 30
0.0
 10
11.35468037923177
 20
18.98879323323568
 30
0.0
 10
11.35468037923177
 20
18.98879323323568
 30
0.0
 10
11.35468037923177
 20
21.0104039171007
 30
0.0
 10
11.35468037923177
 20
21.0104039171007
 30
0.0
 10
11.35468037923177
 20
21.0104039171007
 30
0.0
 10
12.73022206624349
 20
21.0104039171007
 30
0.0
 10
12.73022206624349
 20
21.0104039171007
 30
0.0
 10
12.73022206624349
 20
21.0104039171007
 30
0.0
 10
12.73022206624349
 20
21.3604040866428
 30
0.0
 10
12.73022206624349
 20
21.3604040866428
 30
0.0
 10
12.73022206624349
 20
21.3604040866428
 30
0.0
 10
11.00466664632161
 20
21.3604040866428
 30
0.0
 10
11.00466664632161
 20
21.3604040866428
 30
0.0
 10
11.00466664632161
 20
21.3604040866428
 30
0.0
 10
11.00466664632161
 20
18.63879306369358
 30
0.0
 10
11.00466664632161
 20
18.63879306369358
 30
0.0
 10
11.00466664632161
 20
18.63879306369358
 30
0.0
 10
12.12877739800347
 20
18.63879306369358
 30
0.0
 10
12.12877739800347
 20
18.63879306369358
 30
0.0
 10
12.12877739800347
 20
18.63879306369358
 30
0.0
 10
12.12877739800347
 20
15.06668256971572
 30
0.0
 10
12.12877739800347
 20
15.06668256971572
 30
0.0
 10
12.12877739800347
 20
14.7850850084093
 30
0.0
 10
12.0654305352105
 20
14.54926550971138
 30
0.0
 10
11.935179816352
 20
14.34583533393013
 30
0.0
 10
11.80326334635417
 20
14.13991797553169
 30
0.0
 10
11.66445753309462
 20
14.11350162082249
 30
0.0
 10
11.55826314290364
 20
14.11350162082249
 30
0.0
 10
11.32186041937934
 20
14.11350162082249
 30
0.0
 10
11.26392957899306
 20
14.21041866726346
 30
0.0
 10
11.22811041937934
 20
14.30143225775825
 30
0.0
 10
11.16756863064236
 20
14.45502892388238
 30
0.0
 10
11.09538777669271
 20
14.77472429063586
 30
0.0
 10
11.09538777669271
 20
15.42543195936416
 30
0.0
 10
11.09538777669271
 20
15.42543195936416
 30
0.0
 10
11.09538777669271
 20
15.75182084825305
 30
0.0
 10
11.09538777669271
 20
15.75182084825305
 30
0.0
 10
11.09538777669271
 20
15.75182084825305
 30
0.0
 10
8.756458706325954
 20
15.75182084825305
 30
0.0
 10
8.756458706325954
 20
15.75182084825305
 30
0.0
 10
8.756458706325954
 20
15.75182084825305
 30
0.0
 10
8.756458706325954
 20
11.22446014404298
 30
0.0
 10
8.756458706325954
 20
11.22446014404298
 30
0.0
 10
8.756458706325954
 20
11.22446014404298
 30
0.0
 10
10.8846672905816
 20
11.22446014404298
 30
0.0
 10
10.8846672905816
 20
11.22446014404298
 30
0.0
 10
10.8846672905816
 20
11.22446014404298
 30
0.0
 10
11.0125978257921
 20
11.71589148627388
 30
0.0
 10
11.0125978257921
 20
11.71589148627388
 30
0.0
 10
11.13726467556424
 20
11.62261450873481
 30
0.0
 10
11.27327813042535
 20
11.53958635118273
 30
0.0
 10
11.41998630099826
 20
11.4673359849718
 30
0.0
 10
11.7470694647895
 20
11.30616926405166
 30
0.0
 10
12.12351396348741
 20
11.22446014404298
 30
0.0
 10
12.53887515597873
 20
11.22446014404298
 30
0.0
 10
13.5271250406901
 20
11.22446014404298
 30
0.0
 10
14.32211134168837
 20
11.52737762451173
 30
0.0
 10
14.90176391601562
 20
12.12479312472874
 30
0.0
 10
15.47869533962674
 20
12.71939083523221
 30
0.0
 10
15.77120802137587
 20
13.5200703599718
 30
0.0
 10
15.77120802137587
 20
14.50462677001954
 30
0.0
 10
15.77120802137587
 20
14.50462677001954
 30
0.0
 10
15.77120802137587
 20
18.63879391140409
 30
0.0
 10
15.77120802137587
 20
18.63879391140409
 30
0.0
 10
15.77120802137587
 20
18.63879391140409
 30
0.0
 10
16.70398627387153
 20
18.63879391140409
 30
0.0
 10
16.70398627387153
 20
18.63879391140409
 30
0.0
 10
16.70398627387153
 20
18.63879391140409
 30
0.0
 10
16.70398627387153
 20
21.3604040866428
 30
0.0
 10
16.70398627387153
 20
21.3604040866428
 30
0.0
 10
16.70398627387153
 20
21.3604040866428
 30
0.0
 10
15.15069410536024
 20
21.3604040866428
 30
0.0
 10
15.15069410536024
 20
21.3604040866428
 30
0.0
  0
ENDSEC
  0
SECTION
  2
OBJECTS
  0
DICTIONARY
  5
C
330
0
100
AcDbDictionary
281
     1
  3
ACAD_GROUP
350
D
  3
ACAD_LAYOUT
350
1A
  3
ACAD_MATERIAL
350
3B
  3
ACAD_MLEADERSTYLE
350
58
  3
ACAD_MLINESTYLE
350
17
  3
ACAD_PLOTSETTINGS
350
19
  3
ACAD_PLOTSTYLENAME
350
E
  3
ACAD_TABLESTYLE
350
57
  3
ACAD_VISUALSTYLE
350
2A
  0
SUN
  5
3F
330
29
100
AcDbSun
 90
        1
290
     0
 63
     7
421
 16777215
 40
1.0
291
     1
 91
  2455826
 92
 54000000
292
     0
 70
     2
 71
   256
280
     1
  0
DICTIONARY
  5
D
102
{ACAD_REACTORS
330
C
102
}
330
C
100
AcDbDictionary
281
     1
  0
DICTIONARY
  5
1A
102
{ACAD_REACTORS
330
C
102
}
330
C
100
AcDbDictionary
281
     1
  3
Layout1
350
1E
  3
Layout2
350
26
  3
Model
350
22
  0
DICTIONARY
  5
3B
102
{ACAD_REACTORS
330
C
102
}
330
C
100
AcDbDictionary
281
     1
  3
ByBlock
350
3D
  3
ByLayer
350
3C
  3
Global
350
3E
  0
DICTIONARY
  5
58
102
{ACAD_REACTORS
330
C
102
}
330
C
100
AcDbDictionary
281
     1
  0
DICTIONARY
  5
17
102
{ACAD_REACTORS
330
C
102
}
330
C
100
AcDbDictionary
281
     1
  3
Standard
350
18
  0
DICTIONARY
  5
19
102
{ACAD_REACTORS
330
C
102
}
330
C
100
AcDbDictionary
281
     1
  0
ACDBDICTIONARYWDFLT
  5
E
102
{ACAD_REACTORS
330
C
102
}
330
C
100
AcDbDictionary
281
     1
  3
Normal
350
F
100
AcDbDictionaryWithDefault
340
F
  0
DICTIONARY
  5
57
102
{ACAD_REACTORS
330
C
102
}
330
C
100
AcDbDictionary
281
     1
  0
DICTIONARY
  5
2A
102
{ACAD_REACTORS
330
C
102
}
330
C
100
AcDbDictionary
281
     1
  3
2dWireframe
350
2F
  3
3D Hidden
350
31
  3
3dWireframe
350
30
  3
Basic
350
32
  3
Brighten
350
36
  3
ColorChange
350
3A
  3
Conceptual
350
34
  3
Dim
350
35
  3
Facepattern
350
39
  3
Flat
350
2B
  3
FlatWithEdges
350
2C
  3
Gouraud
350
2D
  3
GouraudWithEdges
350
2E
  3
Linepattern
350
38
  3
Realistic
350
33
  3
Thicken
350
37
  0
LAYOUT
  5
1E
102
{ACAD_REACTORS
330
1A
102
}
330
1A
100
AcDbPlotSettings
  1

  2
none_device
  4

  6

 40
0.0
 41
0.0
 42
0.0
 43
0.0
 44
0.0
 45
0.0
 46
0.0
 47
0.0
 48
0.0
 49
0.0
140
0.0
141
0.0
142
1.0
143
1.0
 70
   688
 72
     0
 73
     0
 74
     5
  7

 75
    16
 76
     0
 77
     2
 78
   300
147
1.0
148
0.0
149
0.0
100
AcDbLayout
  1
Layout1
 70
     1
 71
     1
 10
0.0
 20
0.0
 11
12.0
 21
9.0
 12
0.0
 22
0.0
 32
0.0
 14
1.000000000000000E+20
 24
1.000000000000000E+20
 34
1.000000000000000E+20
 15
-1.000000000000000E+20
 25
-1.000000000000000E+20
 35
-1.000000000000000E+20
146
0.0
 13
0.0
 23
0.0
 33
0.0
 16
1.0
 26
0.0
 36
0.0
 17
0.0
 27
1.0
 37
0.0
 76
     0
330
1B
  0
LAYOUT
  5
26
102
{ACAD_REACTORS
330
1A
102
}
330
1A
100
AcDbPlotSettings
  1

  2
none_device
  4

  6

 40
0.0
 41
0.0
 42
0.0
 43
0.0
 44
0.0
 45
0.0
 46
0.0
 47
0.0
 48
0.0
 49
0.0
140
0.0
141
0.0
142
1.0
143
1.0
 70
   688
 72
     0
 73
     0
 74
     5
  7

 75
    16
 76
     0
 77
     2
 78
   300
147
1.0
148
0.0
149
0.0
100
AcDbLayout
  1
Layout2
 70
     1
 71
     2
 10
0.0
 20
0.0
 11
0.0
 21
0.0
 12
0.0
 22
0.0
 32
0.0
 14
0.0
 24
0.0
 34
0.0
 15
0.0
 25
0.0
 35
0.0
146
0.0
 13
0.0
 23
0.0
 33
0.0
 16
1.0
 26
0.0
 36
0.0
 17
0.0
 27
1.0
 37
0.0
 76
     0
330
23
  0
LAYOUT
  5
22
102
{ACAD_REACTORS
330
1A
102
}
330
1A
100
AcDbPlotSettings
  1

  2
none_device
  4

  6

 40
0.0
 41
0.0
 42
0.0
 43
0.0
 44
0.0
 45
0.0
 46
0.0
 47
0.0
 48
0.0
 49
0.0
140
0.0
141
0.0
142
1.0
143
1.0
 70
  1712
 72
     0
 73
     0
 74
     0
  7

 75
     0
 76
     0
 77
     2
 78
   300
147
1.0
148
0.0
149
0.0
100
AcDbLayout
  1
Model
 70
     1
 71
     0
 10
0.0
 20
0.0
 11
12.0
 21
9.0
 12
0.0
 22
0.0
 32
0.0
 14
1.000000000000000E+20
 24
1.000000000000000E+20
 34
1.000000000000000E+20
 15
-1.000000000000000E+20
 25
-1.000000000000000E+20
 35
-1.000000000000000E+20
146
0.0
 13
0.0
 23
0.0
 33
0.0
 16
1.0
 26
0.0
 36
0.0
 17
0.0
 27
1.0
 37
0.0
 76
     0
330
1F
331
29
  0
MATERIAL
  5
3D
102
{ACAD_REACTORS
330
3B
102
}
330
3B
100
AcDbMaterial
  1
ByBlock
 72
     1
 94
      127
  0
MATERIAL
  5
3C
102
{ACAD_REACTORS
330
3B
102
}
330
3B
100
AcDbMaterial
  1
ByLayer
 72
     1
 94
      127
  0
MATERIAL
  5
3E
102
{ACAD_REACTORS
330
3B
102
}
330
3B
100
AcDbMaterial
  1
Global
 72
     1
 94
      127
  0
MLINESTYLE
  5
18
102
{ACAD_REACTORS
330
17
102
}
330
17
100
AcDbMlineStyle
  2
Standard
 70
     0
  3

 62
   256
 51
90.0
 52
90.0
 71
     2
 49
0.5
 62
   256
  6
BYLAYER
 49
-0.5
 62
   256
  6
BYLAYER
  0
ACDBPLACEHOLDER
  5
F
102
{ACAD_REACTORS
330
E
102
}
330
E
  0
VISUALSTYLE
  5
2F
102
{ACAD_REACTORS
330
2A
102
}
330
2A
100
AcDbVisualStyle
  2
2dWireframe
 70
     4
177
     2
291
     0
 71
     0
176
     1
 72
     2
176
     1
 73
     0
176
     1
 90
        0
176
     1
 40
-0.6
176
     1
 41
-30.0
176
     1
 62
     5
 63
     7
421
 16777215
176
     1
 74
     1
176
     1
 91
        4
176
     1
 64
     7
176
     1
 65
   257
176
     1
 75
     1
176
     1
175
     1
176
     1
 42
1.0
176
     1
 92
        0
176
     1
 66
   257
176
     1
 43
1.0
176
     1
 76
     1
176
     1
 77
     6
176
     1
 78
     2
176
     1
 67
     7
176
     1
 79
     5
176
     1
170
     0
176
     1
171
     0
176
     1
290
     0
176
     1
 93
        1
176
     1
 44
0.0
176
     1
173
     0
176
     1
  0
VISUALSTYLE
  5
31
102
{ACAD_REACTORS
330
2A
102
}
330
2A
100
AcDbVisualStyle
  2
3D Hidden
 70
     6
177
     2
291
     0
 71
     1
176
     1
 72
     2
176
     1
 73
     2
176
     1
 90
        0
176
     1
 40
-0.6
176
     1
 41
-30.0
176
     1
 62
     5
 63
     7
421
 16777215
176
     1
 74
     2
176
     1
 91
        2
176
     1
 64
     7
176
     1
 65
   257
176
     1
 75
     2
176
     1
175
     1
176
     1
 42
40.0
176
     1
 92
        0
176
     1
 66
   257
176
     1
 43
1.0
176
     1
 76
     1
176
     1
 77
     6
176
     1
 78
     2
176
     1
 67
     7
176
     1
 79
     3
176
     1
170
     0
176
     1
171
     0
176
     1
290
     0
176
     1
 93
        1
176
     1
 44
0.0
176
     1
173
     0
176
     1
  0
VISUALSTYLE
  5
30
102
{ACAD_REACTORS
330
2A
102
}
330
2A
100
AcDbVisualStyle
  2
3dWireframe
 70
     5
177
     2
291
     0
 71
     0
176
     1
 72
     2
176
     1
 73
     0
176
     1
 90
        0
176
     1
 40
-0.6
176
     1
 41
-30.0
176
     1
 62
     5
 63
     7
421
 16777215
176
     1
 74
     1
176
     1
 91
        4
176
     1
 64
     7
176
     1
 65
   257
176
     1
 75
     1
176
     1
175
     1
176
     1
 42
1.0
176
     1
 92
        0
176
     1
 66
   257
176
     1
 43
1.0
176
     1
 76
     1
176
     1
 77
     6
176
     1
 78
     2
176
     1
 67
     7
176
     1
 79
     5
176
     1
170
     0
176
     1
171
     0
176
     1
290
     0
176
     1
 93
        1
176
     1
 44
0.0
176
     1
173
     0
176
     1
  0
VISUALSTYLE
  5
32
102
{ACAD_REACTORS
330
2A
102
}
330
2A
100
AcDbVisualStyle
  2
Basic
 70
     7
177
     2
291
     1
 71
     1
176
     1
 72
     0
176
     1
 73
     1
176
     1
 90
        0
176
     1
 40
-0.6
176
     1
 41
-30.0
176
     1
 62
     5
 63
     7
421
 16777215
176
     1
 74
     0
176
     1
 91
        4
176
     1
 64
     7
176
     1
 65
   257
176
     1
 75
     1
176
     1
175
     1
176
     1
 42
1.0
176
     1
 92
        8
176
     1
 66
     7
176
     1
 43
1.0
176
     1
 76
     1
176
     1
 77
     6
176
     1
 78
     2
176
     1
 67
     7
176
     1
 79
     5
176
     1
170
     0
176
     1
171
     0
176
     1
290
     0
176
     1
 93
        1
176
     1
 44
0.0
176
     1
173
     0
176
     1
  0
VISUALSTYLE
  5
36
102
{ACAD_REACTORS
330
2A
102
}
330
2A
100
AcDbVisualStyle
  2
Brighten
 70
    12
177
     2
291
     1
 71
     2
176
     1
 72
     2
176
     1
 73
     0
176
     1
 90
        0
176
     1
 40
-0.6
176
     1
 41
-30.0
176
     1
 62
     5
 63
     7
421
 16777215
176
     1
 74
     1
176
     1
 91
        4
176
     1
 64
     7
176
     1
 65
   257
176
     1
 75
     1
176
     1
175
     1
176
     1
 42
1.0
176
     1
 92
        8
176
     1
 66
     7
176
     1
 43
1.0
176
     1
 76
     1
176
     1
 77
     6
176
     1
 78
     2
176
     1
 67
     7
176
     1
 79
     5
176
     1
170
     0
176
     1
171
     0
176
     1
290
     0
176
     1
 93
        1
176
     1
 44
50.0
176
     1
173
     0
176
     1
  0
VISUALSTYLE
  5
3A
102
{ACAD_REACTORS
330
2A
102
}
330
2A
100
AcDbVisualStyle
  2
ColorChange
 70
    16
177
     2
291
     1
 71
     2
176
     1
 72
     2
176
     1
 73
     3
176
     1
 90
        0
176
     1
 40
-0.6
176
     1
 41
-30.0
176
     1
 62
     5
 63
     8
421
  8421504
176
     1
 74
     1
176
     1
 91
        4
176
     1
 64
     7
176
     1
 65
   257
176
     1
 75
     1
176
     1
175
     1
176
     1
 42
1.0
176
     1
 92
        8
176
     1
 66
     8
424
  8421504
176
     1
 43
1.0
176
     1
 76
     1
176
     1
 77
     6
176
     1
 78
     2
176
     1
 67
     7
176
     1
 79
     5
176
     1
170
     0
176
     1
171
     0
176
     1
290
     0
176
     1
 93
        1
176
     1
 44
0.0
176
     1
173
     0
176
     1
  0
VISUALSTYLE
  5
34
102
{ACAD_REACTORS
330
2A
102
}
330
2A
100
AcDbVisualStyle
  2
Conceptual
 70
     9
177
     2
291
     0
 71
     3
176
     1
 72
     2
176
     1
 73
     0
176
     1
 90
        0
176
     1
 40
-0.6
176
     1
 41
-30.0
176
     1
 62
     5
 63
     7
421
 16777215
176
     1
 74
     2
176
     1
 91
        2
176
     1
 64
     7
176
     1
 65
   257
176
     1
 75
     1
176
     1
175
     1
176
     1
 42
40.0
176
     1
 92
        8
176
     1
 66
     7
176
     1
 43
1.0
176
     1
 76
     1
176
     1
 77
     6
176
     1
 78
     2
176
     1
 67
     7
176
     1
 79
     3
176
     1
170
     0
176
     1
171
     0
176
     1
290
     0
176
     1
 93
        1
176
     1
 44
0.0
176
     1
173
     0
176
     1
  0
VISUALSTYLE
  5
35
102
{ACAD_REACTORS
330
2A
102
}
330
2A
100
AcDbVisualStyle
  2
Dim
 70
    11
177
     2
291
     1
 71
     2
176
     1
 72
     2
176
     1
 73
     0
176
     1
 90
        0
176
     1
 40
-0.6
176
     1
 41
-30.0
176
     1
 62
     5
 63
     7
421
 16777215
176
     1
 74
     1
176
     1
 91
        4
176
     1
 64
     7
176
     1
 65
   257
176
     1
 75
     1
176
     1
175
     1
176
     1
 42
1.0
176
     1
 92
        8
176
     1
 66
     7
176
     1
 43
1.0
176
     1
 76
     1
176
     1
 77
     6
176
     1
 78
     2
176
     1
 67
     7
176
     1
 79
     5
176
     1
170
     0
176
     1
171
     0
176
     1
290
     0
176
     1
 93
        1
176
     1
 44
-50.0
176
     1
173
     0
176
     1
  0
VISUALSTYLE
  5
39
102
{ACAD_REACTORS
330
2A
102
}
330
2A
100
AcDbVisualStyle
  2
Facepattern
 70
    15
177
     2
291
     1
 71
     2
176
     1
 72
     2
176
     1
 73
     0
176
     1
 90
        0
176
     1
 40
-0.6
176
     1
 41
-30.0
176
     1
 62
     5
 63
     7
421
 16777215
176
     1
 74
     1
176
     1
 91
        4
176
     1
 64
     7
176
     1
 65
   257
176
     1
 75
     1
176
     1
175
     1
176
     1
 42
1.0
176
     1
 92
        8
176
     1
 66
     7
176
     1
 43
1.0
176
     1
 76
     1
176
     1
 77
     6
176
     1
 78
     2
176
     1
 67
     7
176
     1
 79
     5
176
     1
170
     0
176
     1
171
     0
176
     1
290
     0
176
     1
 93
        1
176
     1
 44
0.0
176
     1
173
     0
176
     1
  0
VISUALSTYLE
  5
2B
102
{ACAD_REACTORS
330
2A
102
}
330
2A
100
AcDbVisualStyle
  2
Flat
 70
     0
177
     2
291
     1
 71
     2
176
     1
 72
     1
176
     1
 73
     1
176
     1
 90
        2
176
     1
 40
-0.6
176
     1
 41
30.0
176
     1
 62
     5
 63
     7
421
 16777215
176
     1
 74
     0
176
     1
 91
        4
176
     1
 64
     7
176
     1
 65
   257
176
     1
 75
     1
176
     1
175
     1
176
     1
 42
1.0
176
     1
 92
        8
176
     1
 66
     7
176
     1
 43
1.0
176
     1
 76
     1
176
     1
 77
     6
176
     1
 78
     2
176
     1
 67
     7
176
     1
 79
     5
176
     1
170
     0
176
     1
171
     0
176
     1
290
     0
176
     1
 93
       13
176
     1
 44
0.0
176
     1
173
     0
176
     1
  0
VISUALSTYLE
  5
2C
102
{ACAD_REACTORS
330
2A
102
}
330
2A
100
AcDbVisualStyle
  2
FlatWithEdges
 70
     1
177
     2
291
     1
 71
     2
176
     1
 72
     1
176
     1
 73
     1
176
     1
 90
        2
176
     1
 40
-0.6
176
     1
 41
30.0
176
     1
 62
     5
 63
     7
421
 16777215
176
     1
 74
     1
176
     1
 91
        4
176
     1
 64
     7
176
     1
 65
   257
176
     1
 75
     1
176
     1
175
     1
176
     1
 42
1.0
176
     1
 92
        0
176
     1
 66
   257
176
     1
 43
1.0
176
     1
 76
     1
176
     1
 77
     6
176
     1
 78
     2
176
     1
 67
     7
176
     1
 79
     5
176
     1
170
     0
176
     1
171
     0
176
     1
290
     0
176
     1
 93
       13
176
     1
 44
0.0
176
     1
173
     0
176
     1
  0
VISUALSTYLE
  5
2D
102
{ACAD_REACTORS
330
2A
102
}
330
2A
100
AcDbVisualStyle
  2
Gouraud
 70
     2
177
     2
291
     1
 71
     2
176
     1
 72
     2
176
     1
 73
     1
176
     1
 90
        2
176
     1
 40
-0.6
176
     1
 41
30.0
176
     1
 62
     5
 63
     7
421
 16777215
176
     1
 74
     0
176
     1
 91
        4
176
     1
 64
     7
176
     1
 65
   257
176
     1
 75
     1
176
     1
175
     1
176
     1
 42
1.0
176
     1
 92
        0
176
     1
 66
     7
176
     1
 43
1.0
176
     1
 76
     1
176
     1
 77
     6
176
     1
 78
     2
176
     1
 67
     7
176
     1
 79
     5
176
     1
170
     0
176
     1
171
     0
176
     1
290
     0
176
     1
 93
       13
176
     1
 44
0.0
176
     1
173
     0
176
     1
  0
VISUALSTYLE
  5
2E
102
{ACAD_REACTORS
330
2A
102
}
330
2A
100
AcDbVisualStyle
  2
GouraudWithEdges
 70
     3
177
     2
291
     1
 71
     2
176
     1
 72
     2
176
     1
 73
     1
176
     1
 90
        2
176
     1
 40
-0.6
176
     1
 41
30.0
176
     1
 62
     5
 63
     7
421
 16777215
176
     1
 74
     1
176
     1
 91
        4
176
     1
 64
     7
176
     1
 65
   257
176
     1
 75
     1
176
     1
175
     1
176
     1
 42
1.0
176
     1
 92
        0
176
     1
 66
   257
176
     1
 43
1.0
176
     1
 76
     1
176
     1
 77
     6
176
     1
 78
     2
176
     1
 67
     7
176
     1
 79
     5
176
     1
170
     0
176
     1
171
     0
176
     1
290
     0
176
     1
 93
       13
176
     1
 44
0.0
176
     1
173
     0
176
     1
  0
VISUALSTYLE
  5
38
102
{ACAD_REACTORS
330
2A
102
}
330
2A
100
AcDbVisualStyle
  2
Linepattern
 70
    14
177
     2
291
     1
 71
     2
176
     1
 72
     2
176
     1
 73
     0
176
     1
 90
        0
176
     1
 40
-0.6
176
     1
 41
-30.0
176
     1
 62
     5
 63
     7
421
 16777215
176
     1
 74
     1
176
     1
 91
        4
176
     1
 64
     7
176
     1
 65
   257
176
     1
 75
     7
176
     1
175
     7
176
     1
 42
1.0
176
     1
 92
        8
176
     1
 66
     7
176
     1
 43
1.0
176
     1
 76
     1
176
     1
 77
     6
176
     1
 78
     2
176
     1
 67
     7
176
     1
 79
     5
176
     1
170
     0
176
     1
171
     0
176
     1
290
     0
176
     1
 93
        1
176
     1
 44
0.0
176
     1
173
     0
176
     1
  0
VISUALSTYLE
  5
33
102
{ACAD_REACTORS
330
2A
102
}
330
2A
100
AcDbVisualStyle
  2
Realistic
 70
     8
177
     2
291
     0
 71
     2
176
     1
 72
     2
176
     1
 73
     0
176
     1
 90
        0
176
     1
 40
-0.6
176
     1
 41
-30.0
176
     1
 62
     5
 63
     7
421
 16777215
176
     1
 74
     1
176
     1
 91
        0
176
     1
 64
     7
176
     1
 65
   257
176
     1
 75
     1
176
     1
175
     1
176
     1
 42
1.0
176
     1
 92
        8
176
     1
 66
     8
424
  7895160
176
     1
 43
1.0
176
     1
 76
     1
176
     1
 77
     6
176
     1
 78
     2
176
     1
 67
     7
176
     1
 79
     5
176
     1
170
     0
176
     1
171
     0
176
     1
290
     0
176
     1
 93
       13
176
     1
 44
0.0
176
     1
173
     0
176
     1
  0
VISUALSTYLE
  5
37
102
{ACAD_REACTORS
330
2A
102
}
330
2A
100
AcDbVisualStyle
  2
Thicken
 70
    13
177
     2
291
     1
 71
     2
176
     1
 72
     2
176
     1
 73
     0
176
     1
 90
        0
176
     1
 40
-0.6
176
     1
 41
-30.0
176
     1
 62
     5
 63
     7
421
 16777215
176
     1
 74
     1
176
     1
 91
        4
176
     1
 64
     7
176
     1
 65
   257
176
     1
 75
     1
176
     1
175
     1
176
     1
 42
1.0
176
     1
 92
       12
176
     1
 66
     7
176
     1
 43
1.0
176
     1
 76
     1
176
     1
 77
     6
176
     1
 78
     2
176
     1
 67
     7
176
     1
 79
     5
176
     1
170
     0
176
     1
171
     0
176
     1
290
     0
176
     1
 93
        1
176
     1
 44
0.0
176
     1
173
     0
176
     1
  0
ENDSEC
  0
EOF
