  0
SECTION
  2
HEADER
  9
$ACADVER
  1
AC1006
  9
$EXTMIN
 10
0.000000
 20
0.000000
 30
0.000000
  9
$EXTMAX
 10
2991.000000
 20
2937.000000
 30
0.000000
  0
ENDSEC
  0
SECTION
  2
ENTITIES
  0
POLYLINE
  8
0
 66
1
 70
1
  0
VERTEX
  8
0
 10
1484.500000
 20
2894.337912
 42
-0.004811
  0
VERTEX
  8
0
 10
1483.274234
 20
2894.086636
 42
-0.000592
  0
VERTEX
  8
0
 10
1480.590625
 20
2893.566660
 42
-0.000700
  0
VERTEX
  8
0
 10
1477.401101
 20
2892.957202
 42
-0.000578
  0
VERTEX
  8
0
 10
1474.000000
 20
2892.316322
 42
0.045019
  0
VERTEX
  8
0
 10
1454.706534
 20
2886.871222
 42
0.044075
  0
VERTEX
  8
0
 10
1436.553984
 20
2878.032092
 42
0.043891
  0
VERTEX
  8
0
 10
1420.162655
 20
2866.106986
 42
0.043846
  0
VERTEX
  8
0
 10
1406.098366
 20
2851.500000
 42
0.019429
  0
VERTEX
  8
0
 10
1400.473879
 20
2843.945450
 42
0.021169
  0
VERTEX
  8
0
 10
1395.621473
 20
2836.185033
 42
0.012706
  0
VERTEX
  8
0
 10
1389.793592
 20
2825.286621
 42
0.002529
  0
VERTEX
  8
0
 10
1379.975870
 20
2805.500000
 42
0.000021
  0
VERTEX
  8
0
 10
1374.057297
 20
2793.417333
 42
0.000013
  0
VERTEX
  8
0
 10
1367.183044
 20
2779.381250
 42
0.000013
  0
VERTEX
  8
0
 10
1360.449063
 20
2765.629731
 42
0.000025
  0
VERTEX
  8
0
 10
1355.000000
 20
2754.500000
 42
-0.000087
  0
VERTEX
  8
0
 10
1349.549239
 20
2743.370305
 42
-0.000047
  0
VERTEX
  8
0
 10
1342.809868
 20
2729.618750
 42
-0.000046
  0
VERTEX
  8
0
 10
1335.927831
 20
2715.582684
 42
-0.000072
  0
VERTEX
  8
0
 10
1330.000000
 20
2703.500000
 42
0.000072
  0
VERTEX
  8
0
 10
1324.072169
 20
2691.417316
 42
0.000046
  0
VERTEX
  8
0
 10
1317.190132
 20
2677.381250
 42
0.000047
  0
VERTEX
  8
0
 10
1310.450761
 20
2663.629695
 42
0.000087
  0
VERTEX
  8
0
 10
1305.000000
 20
2652.500000
 42
-0.000087
  0
VERTEX
  8
0
 10
1299.549239
 20
2641.370305
 42
-0.000047
  0
VERTEX
  8
0
 10
1292.809868
 20
2627.618750
 42
-0.000046
  0
VERTEX
  8
0
 10
1285.927831
 20
2613.582684
 42
-0.000072
  0
VERTEX
  8
0
 10
1280.000000
 20
2601.500000
 42
0.000071
  0
VERTEX
  8
0
 10
1274.072134
 20
2589.417316
 42
0.000046
  0
VERTEX
  8
0
 10
1267.189989
 20
2575.381250
 42
0.000046
  0
VERTEX
  8
0
 10
1260.450460
 20
2561.629695
 42
0.000086
  0
VERTEX
  8
0
 10
1254.999511
 20
2550.500000
 42
-0.000057
  0
VERTEX
  8
0
 10
1246.774255
 20
2533.703338
 42
-0.000056
  0
VERTEX
  8
0
 10
1238.506842
 20
2516.830309
 42
-0.000032
  0
VERTEX
  8
0
 10
1226.934633
 20
2493.223043
 42
-0.000006
  0
VERTEX
  8
0
 10
1205.252528
 20
2449.000000
 42
0.000038
  0
VERTEX
  8
0
 10
1199.604358
 20
2437.478067
 42
0.000023
  0
VERTEX
  8
0
 10
1192.934215
 20
2423.867188
 42
0.000023
  0
VERTEX
  8
0
 10
1186.323763
 20
2410.374974
 42
0.000041
  0
VERTEX
  8
0
 10
1180.874891
 20
2399.250000
 42
-0.000000
  0
VERTEX
  8
0
 10
1175.469088
 20
2388.210680
 42
-0.000000
  0
VERTEX
  8
0
 10
1169.000000
 20
2375.000000
 42
0.000000
  0
VERTEX
  8
0
 10
1162.530912
 20
2361.789320
 42
0.000000
  0
VERTEX
  8
0
 10
1157.125109
 20
2350.750000
 42
-0.000045
  0
VERTEX
  8
0
 10
1151.659437
 20
2339.590985
 42
-0.000025
  0
VERTEX
  8
0
 10
1144.993322
 20
2325.985938
 42
-0.000025
  0
VERTEX
  8
0
 10
1138.244099
 20
2312.214784
 42
-0.000041
  0
VERTEX
  8
0
 10
1132.500788
 20
2300.500000
 42
0.000039
  0
VERTEX
  8
0
 10
1126.765979
 20
2288.802645
 42
0.000024
  0
VERTEX
  8
0
 10
1120.044083
 20
2275.087500
 42
0.000025
  0
VERTEX
  8
0
 10
1113.416858
 20
2261.562171
 42
0.000044
  0
VERTEX
  8
0
 10
1107.998438
 20
2250.500000
 42
-0.000013
  0
VERTEX
  8
0
 10
1085.585940
 20
2204.735666
 42
-0.000019
  0
VERTEX
  8
0
 10
1066.003023
 20
2164.755654
 42
-0.000022
  0
VERTEX
  8
0
 10
1048.594804
 20
2129.222915
 42
-0.000029
  0
VERTEX
  8
0
 10
1032.804018
 20
2097.000000
 42
0.000175
  0
VERTEX
  8
0
 10
1025.975928
 20
2083.056241
 42
0.000166
  0
VERTEX
  8
0
 10
1019.037341
 20
2068.862350
 42
0.000165
  0
VERTEX
  8
0
 10
1012.908557
 20
2056.303999
 42
0.000586
  0
VERTEX
  8
0
 10
1008.995300
 20
2048.254807
 42
-0.006541
  0
VERTEX
  8
0
 10
1006.050966
 20
2042.377652
 42
-0.009878
  0
VERTEX
  8
0
 10
1003.320219
 20
2037.346428
 42
-0.005114
  0
VERTEX
  8
0
 10
1000.905916
 20
2033.199776
 42
-0.185225
  0
VERTEX
  8
0
 10
1000.052826
 20
2032.528041
 42
-0.037452
  0
VERTEX
  8
0
 10
997.868234
 20
2032.026082
 42
-0.000800
  0
VERTEX
  8
0
 10
986.969043
 20
2030.385711
 42
-0.001440
  0
VERTEX
  8
0
 10
972.124250
 20
2028.219497
 42
-0.000458
  0
VERTEX
  8
0
 10
950.000000
 20
2025.076793
 42
0.000982
  0
VERTEX
  8
0
 10
946.204723
 20
2024.533629
 42
0.000341
  0
VERTEX
  8
0
 10
940.737500
 20
2023.736416
 42
0.000339
  0
VERTEX
  8
0
 10
934.718458
 20
2022.850374
 42
0.000395
  0
VERTEX
  8
0
 10
929.000000
 20
2022.000000
 42
-0.000395
  0
VERTEX
  8
0
 10
923.281542
 20
2021.149626
 42
-0.000339
  0
VERTEX
  8
0
 10
917.262500
 20
2020.263584
 42
-0.000341
  0
VERTEX
  8
0
 10
911.795277
 20
2019.466371
 42
-0.000982
  0
VERTEX
  8
0
 10
908.000000
 20
2018.923207
 42
0.000212
  0
VERTEX
  8
0
 10
897.250087
 20
2017.401609
 42
0.000692
  0
VERTEX
  8
0
 10
890.137177
 20
2016.381700
 42
0.000756
  0
VERTEX
  8
0
 10
883.363777
 20
2015.390447
 42
0.000294
  0
VERTEX
  8
0
 10
874.000000
 20
2014.000000
 42
-0.000294
  0
VERTEX
  8
0
 10
864.636223
 20
2012.609553
 42
-0.000756
  0
VERTEX
  8
0
 10
857.862823
 20
2011.618300
 42
-0.000692
  0
VERTEX
  8
0
 10
850.749913
 20
2010.598391
 42
-0.000212
  0
VERTEX
  8
0
 10
840.000000
 20
2009.076793
 42
0.000982
  0
VERTEX
  8
0
 10
836.204723
 20
2008.533629
 42
0.000341
  0
VERTEX
  8
0
 10
830.737500
 20
2007.736416
 42
0.000339
  0
VERTEX
  8
0
 10
824.718458
 20
2006.850374
 42
0.000395
  0
VERTEX
  8
0
 10
819.000000
 20
2006.000000
 42
-0.000395
  0
VERTEX
  8
0
 10
813.281542
 20
2005.149626
 42
-0.000339
  0
VERTEX
  8
0
 10
807.262500
 20
2004.263584
 42
-0.000341
  0
VERTEX
  8
0
 10
801.795277
 20
2003.466371
 42
-0.000982
  0
VERTEX
  8
0
 10
798.000000
 20
2002.923207
 42
0.000210
  0
VERTEX
  8
0
 10
787.264345
 20
2001.403665
 42
0.000683
  0
VERTEX
  8
0
 10
780.148195
 20
2000.383471
 42
0.000746
  0
VERTEX
  8
0
 10
773.367689
 20
1999.391621
 42
0.000291
  0
VERTEX
  8
0
 10
764.000000
 20
1998.001477
 42
-0.000334
  0
VERTEX
  8
0
 10
757.935202
 20
1997.102011
 42
-0.000308
  0
VERTEX
  8
0
 10
751.703125
 20
1996.185914
 42
-0.000307
  0
VERTEX
  8
0
 10
746.148913
 20
1995.376444
 42
-0.001024
  0
VERTEX
  8
0
 10
742.500000
 20
1994.854573
 42
0.000296
  0
VERTEX
  8
0
 10
732.504813
 20
1993.439904
 42
0.000592
  0
VERTEX
  8
0
 10
724.605781
 20
1992.307593
 42
0.000483
  0
VERTEX
  8
0
 10
715.753795
 20
1991.019235
 42
0.000137
  0
VERTEX
  8
0
 10
702.000000
 20
1989.000000
 42
-0.000136
  0
VERTEX
  8
0
 10
688.372000
 20
1986.999180
 42
-0.000507
  0
VERTEX
  8
0
 10
679.806205
 20
1985.752823
 42
-0.000589
  0
VERTEX
  8
0
 10
671.887136
 20
1984.618288
 42
-0.000233
  0
VERTEX
  8
0
 10
661.000000
 20
1983.076793
 42
0.000982
  0
VERTEX
  8
0
 10
657.204723
 20
1982.533629
 42
0.000341
  0
VERTEX
  8
0
 10
651.737500
 20
1981.736416
 42
0.000339
  0
VERTEX
  8
0
 10
645.718458
 20
1980.850374
 42
0.000395
  0
VERTEX
  8
0
 10
640.000000
 20
1980.000000
 42
-0.000395
  0
VERTEX
  8
0
 10
634.281542
 20
1979.149626
 42
-0.000339
  0
VERTEX
  8
0
 10
628.262500
 20
1978.263584
 42
-0.000341
  0
VERTEX
  8
0
 10
622.795277
 20
1977.466371
 42
-0.000982
  0
VERTEX
  8
0
 10
619.000000
 20
1976.923207
 42
0.000212
  0
VERTEX
  8
0
 10
608.250087
 20
1975.401609
 42
0.000692
  0
VERTEX
  8
0
 10
601.137177
 20
1974.381700
 42
0.000756
  0
VERTEX
  8
0
 10
594.363777
 20
1973.390447
 42
0.000294
  0
VERTEX
  8
0
 10
585.000000
 20
1972.000000
 42
-0.000258
  0
VERTEX
  8
0
 10
579.008594
 20
1971.109880
 42
-0.000256
  0
VERTEX
  8
0
 10
572.996875
 20
1970.223057
 42
-0.000251
  0
VERTEX
  8
0
 10
567.735438
 20
1969.452355
 42
-0.000993
  0
VERTEX
  8
0
 10
564.500000
 20
1968.986639
 42
-0.000002
  0
VERTEX
  8
0
 10
561.635186
 20
1968.580088
 42
-0.000001
  0
VERTEX
  8
0
 10
557.912500
 20
1968.051821
 42
-0.000001
  0
VERTEX
  8
0
 10
554.001284
 20
1967.496817
 42
-0.000001
  0
VERTEX
  8
0
 10
550.500000
 20
1967.000000
 42
0.000001
  0
VERTEX
  8
0
 10
546.998716
 20
1966.503183
 42
0.000001
  0
VERTEX
  8
0
 10
543.087500
 20
1965.948179
 42
0.000001
  0
VERTEX
  8
0
 10
539.364814
 20
1965.419912
 42
0.000002
  0
VERTEX
  8
0
 10
536.500000
 20
1965.013361
 42
0.000993
  0
VERTEX
  8
0
 10
533.264562
 20
1964.547645
 42
0.000251
  0
VERTEX
  8
0
 10
528.003125
 20
1963.776943
 42
0.000256
  0
VERTEX
  8
0
 10
521.991406
 20
1962.890120
 42
0.000258
  0
VERTEX
  8
0
 10
516.000000
 20
1962.000000
 42
-0.000338
  0
VERTEX
  8
0
 10
510.008594
 20
1961.110861
 42
-0.000335
  0
VERTEX
  8
0
 10
503.996875
 20
1960.226982
 42
-0.000328
  0
VERTEX
  8
0
 10
498.735381
 20
1959.460536
 42
-0.001301
  0
VERTEX
  8
0
 10
495.500000
 20
1959.000000
 42
0.001301
  0
VERTEX
  8
0
 10
492.264619
 20
1958.539464
 42
0.000328
  0
VERTEX
  8
0
 10
487.003125
 20
1957.773018
 42
0.000335
  0
VERTEX
  8
0
 10
480.991406
 20
1956.889139
 42
0.000338
  0
VERTEX
  8
0
 10
475.000000
 20
1956.000000
 42
-0.000338
  0
VERTEX
  8
0
 10
469.008594
 20
1955.110861
 42
-0.000335
  0
VERTEX
  8
0
 10
462.996875
 20
1954.226982
 42
-0.000328
  0
VERTEX
  8
0
 10
457.735381
 20
1953.460536
 42
-0.001301
  0
VERTEX
  8
0
 10
454.500000
 20
1953.000000
 42
0.001287
  0
VERTEX
  8
0
 10
451.264616
 20
1952.539556
 42
0.000325
  0
VERTEX
  8
0
 10
446.003125
 20
1951.773452
 42
0.000331
  0
VERTEX
  8
0
 10
439.991406
 20
1950.890050
 42
0.000335
  0
VERTEX
  8
0
 10
434.000000
 20
1950.001477
 42
-0.000334
  0
VERTEX
  8
0
 10
427.935202
 20
1949.102011
 42
-0.000308
  0
VERTEX
  8
0
 10
421.703125
 20
1948.185914
 42
-0.000307
  0
VERTEX
  8
0
 10
416.148913
 20
1947.376444
 42
-0.001024
  0
VERTEX
  8
0
 10
412.500000
 20
1946.854573
 42
0.000273
  0
VERTEX
  8
0
 10
402.619707
 20
1945.456638
 42
0.000703
  0
VERTEX
  8
0
 10
395.485540
 20
1944.433043
 42
0.000722
  0
VERTEX
  8
0
 10
388.462316
 20
1943.404939
 42
0.000302
  0
VERTEX
  8
0
 10
379.000000
 20
1942.000000
 42
-0.000338
  0
VERTEX
  8
0
 10
373.008594
 20
1941.110861
 42
-0.000335
  0
VERTEX
  8
0
 10
366.996875
 20
1940.226982
 42
-0.000328
  0
VERTEX
  8
0
 10
361.735381
 20
1939.460536
 42
-0.001301
  0
VERTEX
  8
0
 10
358.500000
 20
1939.000000
 42
0.001287
  0
VERTEX
  8
0
 10
355.264616
 20
1938.539556
 42
0.000325
  0
VERTEX
  8
0
 10
350.003125
 20
1937.773452
 42
0.000331
  0
VERTEX
  8
0
 10
343.991406
 20
1936.890050
 42
0.000335
  0
VERTEX
  8
0
 10
338.000000
 20
1936.001477
 42
-0.000334
  0
VERTEX
  8
0
 10
331.935202
 20
1935.102011
 42
-0.000308
  0
VERTEX
  8
0
 10
325.703125
 20
1934.185914
 42
-0.000307
  0
VERTEX
  8
0
 10
320.148913
 20
1933.376444
 42
-0.001024
  0
VERTEX
  8
0
 10
316.500000
 20
1932.854573
 42
0.000273
  0
VERTEX
  8
0
 10
306.619707
 20
1931.456638
 42
0.000703
  0
VERTEX
  8
0
 10
299.485540
 20
1930.433043
 42
0.000722
  0
VERTEX
  8
0
 10
292.462316
 20
1929.404939
 42
0.000302
  0
VERTEX
  8
0
 10
283.000000
 20
1928.000000
 42
-0.000338
  0
VERTEX
  8
0
 10
277.008594
 20
1927.110861
 42
-0.000335
  0
VERTEX
  8
0
 10
270.996875
 20
1926.226982
 42
-0.000328
  0
VERTEX
  8
0
 10
265.735381
 20
1925.460536
 42
-0.001301
  0
VERTEX
  8
0
 10
262.500000
 20
1925.000000
 42
0.001287
  0
VERTEX
  8
0
 10
259.264616
 20
1924.539556
 42
0.000325
  0
VERTEX
  8
0
 10
254.003125
 20
1923.773452
 42
0.000331
  0
VERTEX
  8
0
 10
247.991406
 20
1922.890050
 42
0.000335
  0
VERTEX
  8
0
 10
242.000000
 20
1922.001477
 42
-0.000334
  0
VERTEX
  8
0
 10
235.935202
 20
1921.102011
 42
-0.000308
  0
VERTEX
  8
0
 10
229.703125
 20
1920.185914
 42
-0.000307
  0
VERTEX
  8
0
 10
224.148913
 20
1919.376444
 42
-0.001024
  0
VERTEX
  8
0
 10
220.500000
 20
1918.854573
 42
0.000273
  0
VERTEX
  8
0
 10
210.619707
 20
1917.456638
 42
0.000703
  0
VERTEX
  8
0
 10
203.485540
 20
1916.433043
 42
0.000722
  0
VERTEX
  8
0
 10
196.462316
 20
1915.404939
 42
0.000302
  0
VERTEX
  8
0
 10
187.000000
 20
1914.000000
 42
-0.000338
  0
VERTEX
  8
0
 10
181.008594
 20
1913.110861
 42
-0.000335
  0
VERTEX
  8
0
 10
174.996875
 20
1912.226982
 42
-0.000328
  0
VERTEX
  8
0
 10
169.735381
 20
1911.460536
 42
-0.001301
  0
VERTEX
  8
0
 10
166.500000
 20
1911.000000
 42
0.001665
  0
VERTEX
  8
0
 10
147.709340
 20
1908.311327
 42
0.003810
  0
VERTEX
  8
0
 10
133.567152
 20
1906.129524
 42
0.004935
  0
VERTEX
  8
0
 10
122.785311
 20
1904.272539
 42
0.012107
  0
VERTEX
  8
0
 10
114.909076
 20
1902.637838
 42
0.042740
  0
VERTEX
  8
0
 10
97.811982
 20
1897.080279
 42
0.039800
  0
VERTEX
  8
0
 10
81.474030
 20
1888.589672
 42
0.039739
  0
VERTEX
  8
0
 10
66.663401
 20
1877.602367
 42
0.042288
  0
VERTEX
  8
0
 10
54.109281
 20
1864.618406
 42
0.016483
  0
VERTEX
  8
0
 10
50.101207
 20
1859.357853
 42
0.007702
  0
VERTEX
  8
0
 10
45.244128
 20
1852.299491
 42
0.002941
  0
VERTEX
  8
0
 10
40.483235
 20
1845.055445
 42
0.144888
  0
VERTEX
  8
0
 10
40.000000
 20
1843.422838
 42
-0.101652
  0
VERTEX
  8
0
 10
39.943775
 20
1843.149137
 42
-0.000933
  0
VERTEX
  8
0
 10
39.117487
 20
1841.232735
 42
-0.003126
  0
VERTEX
  8
0
 10
38.147215
 20
1839.031720
 42
-0.002010
  0
VERTEX
  8
0
 10
36.995699
 20
1836.490610
 42
0.050168
  0
VERTEX
  8
0
 10
31.104594
 20
1819.248932
 42
0.040888
  0
VERTEX
  8
0
 10
28.240894
 20
1799.942979
 42
0.040764
  0
VERTEX
  8
0
 10
28.553351
 20
1780.359925
 42
0.048939
  0
VERTEX
  8
0
 10
32.126584
 20
1762.290903
 42
-0.004370
  0
VERTEX
  8
0
 10
32.844134
 20
1759.835313
 42
-0.005841
  0
VERTEX
  8
0
 10
33.449684
 20
1757.593977
 42
-0.004170
  0
VERTEX
  8
0
 10
33.918439
 20
1755.709946
 42
-0.058947
  0
VERTEX
  8
0
 10
34.000000
 20
1755.020526
 42
0.113697
  0
VERTEX
  8
0
 10
34.625165
 20
1752.306819
 42
0.005151
  0
VERTEX
  8
0
 10
38.921945
 20
1743.702491
 42
0.009542
  0
VERTEX
  8
0
 10
43.607483
 20
1734.971316
 42
0.017689
  0
VERTEX
  8
0
 10
47.790608
 20
1728.102138
 42
0.033324
  0
VERTEX
  8
0
 10
53.543418
 20
1720.518760
 42
0.011892
  0
VERTEX
  8
0
 10
62.703644
 20
1710.474448
 42
0.007356
  0
VERTEX
  8
0
 10
76.931838
 20
1696.030989
 42
0.001758
  0
VERTEX
  8
0
 10
101.010691
 20
1672.462925
 42
-0.000118
  0
VERTEX
  8
0
 10
109.925333
 20
1663.794483
 42
-0.000068
  0
VERTEX
  8
0
 10
120.661975
 20
1653.346617
 42
-0.000068
  0
VERTEX
  8
0
 10
131.443914
 20
1642.848992
 42
-0.000113
  0
VERTEX
  8
0
 10
140.510691
 20
1634.014920
 42
0.000033
  0
VERTEX
  8
0
 10
149.542766
 20
1625.211846
 42
0.000020
  0
VERTEX
  8
0
 10
160.212531
 20
1614.814824
 42
0.000020
  0
VERTEX
  8
0
 10
170.789413
 20
1604.509978
 42
0.000036
  0
VERTEX
  8
0
 10
179.510691
 20
1596.014920
 42
-0.000036
  0
VERTEX
  8
0
 10
188.231968
 20
1587.519861
 42
-0.000020
  0
VERTEX
  8
0
 10
198.808850
 20
1577.215015
 42
-0.000020
  0
VERTEX
  8
0
 10
209.478615
 20
1566.817994
 42
-0.000033
  0
VERTEX
  8
0
 10
218.510691
 20
1558.014920
 42
0.000033
  0
VERTEX
  8
0
 10
227.542766
 20
1549.211846
 42
0.000020
  0
VERTEX
  8
0
 10
238.212531
 20
1538.814824
 42
0.000020
  0
VERTEX
  8
0
 10
248.789413
 20
1528.509978
 42
0.000036
  0
VERTEX
  8
0
 10
257.510691
 20
1520.014920
 42
-0.000036
  0
VERTEX
  8
0
 10
266.231968
 20
1511.519861
 42
-0.000020
  0
VERTEX
  8
0
 10
276.808850
 20
1501.215015
 42
-0.000020
  0
VERTEX
  8
0
 10
287.478615
 20
1490.817994
 42
-0.000033
  0
VERTEX
  8
0
 10
296.510691
 20
1482.014920
 42
0.000032
  0
VERTEX
  8
0
 10
305.542734
 20
1473.211845
 42
0.000020
  0
VERTEX
  8
0
 10
316.212397
 20
1462.814824
 42
0.000020
  0
VERTEX
  8
0
 10
326.789134
 20
1452.509978
 42
0.000035
  0
VERTEX
  8
0
 10
335.510236
 20
1444.014920
 42
-0.000006
  0
VERTEX
  8
0
 10
344.197200
 20
1435.554105
 42
-0.000003
  0
VERTEX
  8
0
 10
354.661333
 20
1425.362021
 42
-0.000003
  0
VERTEX
  8
0
 10
365.171003
 20
1415.125318
 42
-0.000005
  0
VERTEX
  8
0
 10
374.010236
 20
1406.515366
 42
0.000012
  0
VERTEX
  8
0
 10
382.848765
 20
1397.906335
 42
0.000007
  0
VERTEX
  8
0
 10
393.356132
 20
1387.672606
 42
0.000007
  0
VERTEX
  8
0
 10
403.816999
 20
1377.484765
 42
0.000013
  0
VERTEX
  8
0
 10
412.500000
 20
1369.029073
 42
-0.000087
  0
VERTEX
  8
0
 10
442.706057
 20
1339.604980
 42
-0.000293
  0
VERTEX
  8
0
 10
462.501216
 20
1320.292927
 42
-0.000397
  0
VERTEX
  8
0
 10
478.817443
 20
1304.330905
 42
-0.000311
  0
VERTEX
  8
0
 10
496.500000
 20
1286.983127
 42
0.000593
  0
VERTEX
  8
0
 10
509.032797
 20
1274.701481
 42
0.000264
  0
VERTEX
  8
0
 10
525.584375
 20
1258.537094
 42
0.000261
  0
VERTEX
  8
0
 10
543.124197
 20
1241.443504
 42
0.000353
  0
VERTEX
  8
0
 10
559.000000
 20
1226.009555
 42
-0.000134
  0
VERTEX
  8
0
 10
574.367590
 20
1211.082752
 42
-0.000119
  0
VERTEX
  8
0
 10
590.359375
 20
1195.533940
 42
-0.000119
  0
VERTEX
  8
0
 10
604.752383
 20
1181.526289
 42
-0.000365
  0
VERTEX
  8
0
 10
614.500000
 20
1172.021257
 42
0.000147
  0
VERTEX
  8
0
 10
623.149363
 20
1163.579792
 42
0.000086
  0
VERTEX
  8
0
 10
633.499573
 20
1153.487799
 42
0.000086
  0
VERTEX
  8
0
 10
643.849843
 20
1143.402727
 42
0.000148
  0
VERTEX
  8
0
 10
652.498545
 20
1134.983513
 42
-0.000640
  0
VERTEX
  8
0
 10
676.415815
 20
1111.654945
 42
-0.004387
  0
VERTEX
  8
0
 10
688.073890
 20
1100.052806
 42
-0.002338
  0
VERTEX
  8
0
 10
695.538227
 20
1092.421713
 42
-0.343433
  0
VERTEX
  8
0
 10
695.663711
 20
1091.264890
 42
0.086858
  0
VERTEX
  8
0
 10
695.216296
 20
1090.145664
 42
0.004830
  0
VERTEX
  8
0
 10
694.476605
 20
1086.446388
 42
0.005134
  0
VERTEX
  8
0
 10
693.493016
 20
1080.960978
 42
0.001290
  0
VERTEX
  8
0
 10
692.004776
 20
1072.000000
 42
-0.001450
  0
VERTEX
  8
0
 10
691.524495
 20
1069.113854
 42
-0.000420
  0
VERTEX
  8
0
 10
690.766895
 20
1064.664062
 42
-0.000422
  0
VERTEX
  8
0
 10
689.904859
 20
1059.651933
 42
-0.000451
  0
VERTEX
  8
0
 10
689.052953
 20
1054.750000
 42
-0.008180
  0
VERTEX
  8
0
 10
688.118388
 20
1049.401051
 42
-0.014210
  0
VERTEX
  8
0
 10
687.000000
 20
1043.000000
 42
0.014210
  0
VERTEX
  8
0
 10
685.881612
 20
1036.598949
 42
0.008180
  0
VERTEX
  8
0
 10
684.947047
 20
1031.250000
 42
0.000486
  0
VERTEX
  8
0
 10
684.095492
 20
1026.348067
 42
0.000455
  0
VERTEX
  8
0
 10
683.234508
 20
1021.335937
 42
0.000453
  0
VERTEX
  8
0
 10
682.478433
 20
1016.886128
 42
0.001562
  0
VERTEX
  8
0
 10
682.000000
 20
1014.000000
 42
-0.001568
  0
VERTEX
  8
0
 10
681.523759
 20
1011.127303
 42
-0.000465
  0
VERTEX
  8
0
 10
680.777660
 20
1006.737500
 42
-0.000467
  0
VERTEX
  8
0
 10
679.930074
 20
1001.806220
 42
-0.000504
  0
VERTEX
  8
0
 10
679.094378
 20
997.000000
 42
0.000079
  0
VERTEX
  8
0
 10
675.831959
 20
978.331310
 42
0.000378
  0
VERTEX
  8
0
 10
673.983728
 20
967.697828
 42
0.000641
  0
VERTEX
  8
0
 10
672.792577
 20
960.760941
 42
0.001905
  0
VERTEX
  8
0
 10
672.000000
 20
956.000000
 42
-0.001905
  0
VERTEX
  8
0
 10
671.207423
 20
951.239059
 42
-0.000641
  0
VERTEX
  8
0
 10
670.016272
 20
944.302172
 42
-0.000378
  0
VERTEX
  8
0
 10
668.168041
 20
933.668690
 42
-0.000079
  0
VERTEX
  8
0
 10
664.905622
 20
915.000000
 42
0.000504
  0
VERTEX
  8
0
 10
664.069926
 20
910.193780
 42
0.000467
  0
VERTEX
  8
0
 10
663.222340
 20
905.262500
 42
0.000465
  0
VERTEX
  8
0
 10
662.476241
 20
900.872697
 42
0.001568
  0
VERTEX
  8
0
 10
662.000000
 20
898.000000
 42
-0.001905
  0
VERTEX
  8
0
 10
661.207423
 20
893.239059
 42
-0.000641
  0
VERTEX
  8
0
 10
660.016272
 20
886.302172
 42
-0.000378
  0
VERTEX
  8
0
 10
658.168041
 20
875.668690
 42
-0.000079
  0
VERTEX
  8
0
 10
654.905622
 20
857.000000
 42
0.000481
  0
VERTEX
  8
0
 10
654.069708
 20
852.193780
 42
0.000446
  0
VERTEX
  8
0
 10
653.221464
 20
847.262500
 42
0.000445
  0
VERTEX
  8
0
 10
652.474413
 20
842.872707
 42
0.001499
  0
VERTEX
  8
0
 10
651.997018
 20
840.000000
 42
-0.001658
  0
VERTEX
  8
0
 10
651.574441
 20
837.462159
 42
-0.000907
  0
VERTEX
  8
0
 10
651.040351
 20
834.353125
 42
-0.000903
  0
VERTEX
  8
0
 10
650.486357
 20
831.196746
 42
-0.001440
  0
VERTEX
  8
0
 10
650.000000
 20
828.500000
 42
0.001440
  0
VERTEX
  8
0
 10
649.513643
 20
825.803254
 42
0.000903
  0
VERTEX
  8
0
 10
648.959649
 20
822.646875
 42
0.000907
  0
VERTEX
  8
0
 10
648.425559
 20
819.537841
 42
0.001658
  0
VERTEX
  8
0
 10
648.002982
 20
817.000000
 42
-0.001499
  0
VERTEX
  8
0
 10
647.525587
 20
814.127293
 42
-0.000445
  0
VERTEX
  8
0
 10
646.778536
 20
809.737500
 42
-0.000446
  0
VERTEX
  8
0
 10
645.930292
 20
804.806220
 42
-0.000481
  0
VERTEX
  8
0
 10
645.094378
 20
800.000000
 42
0.000079
  0
VERTEX
  8
0
 10
641.831959
 20
781.331310
 42
0.000378
  0
VERTEX
  8
0
 10
639.983728
 20
770.697828
 42
0.000641
  0
VERTEX
  8
0
 10
638.792577
 20
763.760941
 42
0.001905
  0
VERTEX
  8
0
 10
638.000000
 20
759.000000
 42
-0.001905
  0
VERTEX
  8
0
 10
637.207423
 20
754.239059
 42
-0.000641
  0
VERTEX
  8
0
 10
636.016272
 20
747.302172
 42
-0.000378
  0
VERTEX
  8
0
 10
634.168041
 20
736.668690
 42
-0.000079
  0
VERTEX
  8
0
 10
630.905622
 20
718.000000
 42
0.000504
  0
VERTEX
  8
0
 10
630.069926
 20
713.193780
 42
0.000467
  0
VERTEX
  8
0
 10
629.222340
 20
708.262500
 42
0.000465
  0
VERTEX
  8
0
 10
628.476241
 20
703.872697
 42
0.001568
  0
VERTEX
  8
0
 10
628.000000
 20
701.000000
 42
-0.001568
  0
VERTEX
  8
0
 10
627.523759
 20
698.127303
 42
-0.000465
  0
VERTEX
  8
0
 10
626.777660
 20
693.737500
 42
-0.000467
  0
VERTEX
  8
0
 10
625.930074
 20
688.806220
 42
-0.000504
  0
VERTEX
  8
0
 10
625.094378
 20
684.000000
 42
0.000079
  0
VERTEX
  8
0
 10
621.831959
 20
665.331310
 42
0.000378
  0
VERTEX
  8
0
 10
619.983728
 20
654.697828
 42
0.000641
  0
VERTEX
  8
0
 10
618.792577
 20
647.760941
 42
0.001905
  0
VERTEX
  8
0
 10
618.000000
 20
643.000000
 42
-0.001562
  0
VERTEX
  8
0
 10
617.521567
 20
640.113872
 42
-0.000453
  0
VERTEX
  8
0
 10
616.765492
 20
635.664062
 42
-0.000455
  0
VERTEX
  8
0
 10
615.904508
 20
630.651933
 42
-0.000486
  0
VERTEX
  8
0
 10
615.052953
 20
625.750000
 42
-0.000000
  0
VERTEX
  8
0
 10
614.118388
 20
620.401051
 42
-0.000000
  0
VERTEX
  8
0
 10
613.000000
 20
614.000000
 42
0.000000
  0
VERTEX
  8
0
 10
611.881612
 20
607.598949
 42
0.000000
  0
VERTEX
  8
0
 10
610.947047
 20
602.250000
 42
0.000486
  0
VERTEX
  8
0
 10
610.095492
 20
597.348067
 42
0.000455
  0
VERTEX
  8
0
 10
609.234508
 20
592.335938
 42
0.000453
  0
VERTEX
  8
0
 10
608.478433
 20
587.886128
 42
0.001562
  0
VERTEX
  8
0
 10
608.000000
 20
585.000000
 42
-0.001568
  0
VERTEX
  8
0
 10
607.523759
 20
582.127303
 42
-0.000465
  0
VERTEX
  8
0
 10
606.777660
 20
577.737500
 42
-0.000467
  0
VERTEX
  8
0
 10
605.930074
 20
572.806220
 42
-0.000504
  0
VERTEX
  8
0
 10
605.094378
 20
568.000000
 42
0.000077
  0
VERTEX
  8
0
 10
601.849453
 20
549.431775
 42
0.000362
  0
VERTEX
  8
0
 10
599.994272
 20
538.760745
 42
0.000608
  0
VERTEX
  8
0
 10
598.793724
 20
531.774926
 42
0.001824
  0
VERTEX
  8
0
 10
597.997018
 20
527.000000
 42
-0.001658
  0
VERTEX
  8
0
 10
597.574441
 20
524.462159
 42
-0.000907
  0
VERTEX
  8
0
 10
597.040351
 20
521.353125
 42
-0.000903
  0
VERTEX
  8
0
 10
596.486357
 20
518.196746
 42
-0.001440
  0
VERTEX
  8
0
 10
596.000000
 20
515.500000
 42
0.001440
  0
VERTEX
  8
0
 10
595.513643
 20
512.803254
 42
0.000903
  0
VERTEX
  8
0
 10
594.959649
 20
509.646875
 42
0.000907
  0
VERTEX
  8
0
 10
594.425559
 20
506.537841
 42
0.001658
  0
VERTEX
  8
0
 10
594.002982
 20
504.000000
 42
-0.001492
  0
VERTEX
  8
0
 10
593.523395
 20
501.113861
 42
-0.000432
  0
VERTEX
  8
0
 10
592.766368
 20
496.664062
 42
-0.000435
  0
VERTEX
  8
0
 10
591.904727
 20
491.651933
 42
-0.000464
  0
VERTEX
  8
0
 10
591.052953
 20
486.750000
 42
-0.000000
  0
VERTEX
  8
0
 10
590.118388
 20
481.401051
 42
-0.000000
  0
VERTEX
  8
0
 10
589.000000
 20
475.000000
 42
0.000000
  0
VERTEX
  8
0
 10
587.881612
 20
468.598949
 42
0.000000
  0
VERTEX
  8
0
 10
586.947047
 20
463.250000
 42
0.000486
  0
VERTEX
  8
0
 10
586.095492
 20
458.348067
 42
0.000455
  0
VERTEX
  8
0
 10
585.234508
 20
453.335938
 42
0.000453
  0
VERTEX
  8
0
 10
584.478433
 20
448.886128
 42
0.001562
  0
VERTEX
  8
0
 10
584.000000
 20
446.000000
 42
-0.001562
  0
VERTEX
  8
0
 10
583.521567
 20
443.113872
 42
-0.000453
  0
VERTEX
  8
0
 10
582.765492
 20
438.664062
 42
-0.000455
  0
VERTEX
  8
0
 10
581.904508
 20
433.651933
 42
-0.000486
  0
VERTEX
  8
0
 10
581.052953
 20
428.750000
 42
-0.000000
  0
VERTEX
  8
0
 10
580.118388
 20
423.401051
 42
-0.000000
  0
VERTEX
  8
0
 10
579.000000
 20
417.000000
 42
0.000000
  0
VERTEX
  8
0
 10
577.881612
 20
410.598949
 42
0.000000
  0
VERTEX
  8
0
 10
576.947047
 20
405.250000
 42
0.000464
  0
VERTEX
  8
0
 10
576.095273
 20
400.348067
 42
0.000435
  0
VERTEX
  8
0
 10
575.233632
 20
395.335938
 42
0.000432
  0
VERTEX
  8
0
 10
574.476605
 20
390.886139
 42
0.001492
  0
VERTEX
  8
0
 10
573.997018
 20
388.000000
 42
-0.001658
  0
VERTEX
  8
0
 10
573.574441
 20
385.462159
 42
-0.000907
  0
VERTEX
  8
0
 10
573.040351
 20
382.353125
 42
-0.000903
  0
VERTEX
  8
0
 10
572.486357
 20
379.196746
 42
-0.001440
  0
VERTEX
  8
0
 10
572.000000
 20
376.500000
 42
0.001440
  0
VERTEX
  8
0
 10
571.513643
 20
373.803254
 42
0.000903
  0
VERTEX
  8
0
 10
570.959649
 20
370.646875
 42
0.000907
  0
VERTEX
  8
0
 10
570.425559
 20
367.537841
 42
0.001658
  0
VERTEX
  8
0
 10
570.002982
 20
365.000000
 42
-0.001499
  0
VERTEX
  8
0
 10
569.525587
 20
362.127293
 42
-0.000445
  0
VERTEX
  8
0
 10
568.778536
 20
357.737500
 42
-0.000446
  0
VERTEX
  8
0
 10
567.930292
 20
352.806220
 42
-0.000481
  0
VERTEX
  8
0
 10
567.094378
 20
348.000000
 42
0.000079
  0
VERTEX
  8
0
 10
563.831959
 20
329.331310
 42
0.000378
  0
VERTEX
  8
0
 10
561.983728
 20
318.697828
 42
0.000641
  0
VERTEX
  8
0
 10
560.792577
 20
311.760941
 42
0.001905
  0
VERTEX
  8
0
 10
560.000000
 20
307.000000
 42
-0.001562
  0
VERTEX
  8
0
 10
559.521567
 20
304.113872
 42
-0.000453
  0
VERTEX
  8
0
 10
558.765492
 20
299.664062
 42
-0.000455
  0
VERTEX
  8
0
 10
557.904508
 20
294.651933
 42
-0.000486
  0
VERTEX
  8
0
 10
557.052953
 20
289.750000
 42
-0.000000
  0
VERTEX
  8
0
 10
556.118388
 20
284.401051
 42
-0.000000
  0
VERTEX
  8
0
 10
555.000000
 20
278.000000
 42
0.000000
  0
VERTEX
  8
0
 10
553.881612
 20
271.598949
 42
0.000000
  0
VERTEX
  8
0
 10
552.947047
 20
266.250000
 42
0.000551
  0
VERTEX
  8
0
 10
552.096152
 20
261.348067
 42
0.000516
  0
VERTEX
  8
0
 10
551.237150
 20
256.335938
 42
0.000514
  0
VERTEX
  8
0
 10
550.483947
 20
251.886095
 42
0.001772
  0
VERTEX
  8
0
 10
550.008994
 20
249.000000
 42
-0.002139
  0
VERTEX
  8
0
 10
549.505205
 20
245.952632
 42
-0.000467
  0
VERTEX
  8
0
 10
548.610293
 20
240.709375
 42
-0.000487
  0
VERTEX
  8
0
 10
547.563514
 20
234.646100
 42
-0.000467
  0
VERTEX
  8
0
 10
546.490364
 20
228.500000
 42
0.006927
  0
VERTEX
  8
0
 10
545.069944
 20
219.695071
 42
0.018828
  0
VERTEX
  8
0
 10
544.386240
 20
213.414735
 42
0.018630
  0
VERTEX
  8
0
 10
544.173220
 20
207.063893
 42
0.006662
  0
VERTEX
  8
0
 10
544.327780
 20
198.000000
 42
0.029229
  0
VERTEX
  8
0
 10
545.856342
 20
180.834886
 42
0.042035
  0
VERTEX
  8
0
 10
549.352141
 20
165.990283
 42
0.041650
  0
VERTEX
  8
0
 10
555.311125
 20
151.838883
 42
0.027999
  0
VERTEX
  8
0
 10
564.301362
 20
136.765384
 42
0.040135
  0
VERTEX
  8
0
 10
572.691344
 20
126.261919
 42
0.025817
  0
VERTEX
  8
0
 10
583.943507
 20
115.460808
 42
0.025977
  0
VERTEX
  8
0
 10
596.045203
 20
106.041777
 42
0.046393
  0
VERTEX
  8
0
 10
607.000000
 20
99.817094
 42
0.009492
  0
VERTEX
  8
0
 10
616.206297
 20
95.870172
 42
0.020677
  0
VERTEX
  8
0
 10
623.437344
 20
93.274096
 42
0.020850
  0
VERTEX
  8
0
 10
630.820558
 20
91.296999
 42
0.009815
  0
VERTEX
  8
0
 10
640.500000
 20
89.331660
 42
0.009566
  0
VERTEX
  8
0
 10
649.302913
 20
87.896975
 42
0.022509
  0
VERTEX
  8
0
 10
655.926826
 20
87.249655
 42
0.027860
  0
VERTEX
  8
0
 10
661.646808
 20
87.268543
 42
0.025538
  0
VERTEX
  8
0
 10
667.500000
 20
87.915443
 42
0.012171
  0
VERTEX
  8
0
 10
684.593565
 20
91.122836
 42
0.034328
  0
VERTEX
  8
0
 10
696.273927
 20
94.461984
 42
0.028734
  0
VERTEX
  8
0
 10
708.475052
 20
99.685831
 42
0.006555
  0
VERTEX
  8
0
 10
728.460354
 20
109.966096
 42
-0.000880
  0
VERTEX
  8
0
 10
732.042236
 20
111.860303
 42
-0.000300
  0
VERTEX
  8
0
 10
737.250854
 20
114.599074
 42
-0.000298
  0
VERTEX
  8
0
 10
743.006683
 20
117.616804
 42
-0.000343
  0
VERTEX
  8
0
 10
748.500000
 20
120.487927
 42
0.000483
  0
VERTEX
  8
0
 10
753.990417
 20
123.359484
 42
0.000420
  0
VERTEX
  8
0
 10
759.737500
 20
126.378505
 42
0.000422
  0
VERTEX
  8
0
 10
764.933892
 20
129.119414
 42
0.001245
  0
VERTEX
  8
0
 10
768.500000
 20
131.015631
 42
-0.001018
  0
VERTEX
  8
0
 10
771.932049
 20
132.842563
 42
-0.000416
  0
VERTEX
  8
0
 10
776.601562
 20
135.311050
 42
-0.000412
  0
VERTEX
  8
0
 10
781.621684
 20
137.954253
 42
-0.000527
  0
VERTEX
  8
0
 10
786.250000
 20
140.380074
 42
0.000102
  0
VERTEX
  8
0
 10
799.030614
 20
147.064888
 42
0.000154
  0
VERTEX
  8
0
 10
810.160440
 20
152.893518
 42
0.000177
  0
VERTEX
  8
0
 10
819.739040
 20
157.917854
 42
0.000300
  0
VERTEX
  8
0
 10
827.750000
 20
162.129663
 42
-0.000000
  0
VERTEX
  8
0
 10
831.960874
 20
164.346785
 42
0.048193
  0
VERTEX
  8
0
 10
837.000000
 20
167.000000
 42
-0.000000
  0
VERTEX
  8
0
 10
842.039126
 20
169.653215
 42
0.012739
  0
VERTEX
  8
0
 10
846.250000
 20
171.870337
 42
-0.000251
  0
VERTEX
  8
0
 10
850.579359
 20
174.147072
 42
-0.000128
  0
VERTEX
  8
0
 10
856.014063
 20
176.999830
 42
-0.000127
  0
VERTEX
  8
0
 10
861.614623
 20
179.935996
 42
-0.000192
  0
VERTEX
  8
0
 10
866.500000
 20
182.493243
 42
0.000405
  0
VERTEX
  8
0
 10
871.296314
 20
185.006477
 42
0.000296
  0
VERTEX
  8
0
 10
876.618750
 20
187.804912
 42
0.000299
  0
VERTEX
  8
0
 10
881.658623
 20
190.462441
 42
0.000661
  0
VERTEX
  8
0
 10
885.500000
 20
192.497443
 42
-0.000625
  0
VERTEX
  8
0
 10
889.341364
 20
194.532800
 42
-0.000282
  0
VERTEX
  8
0
 10
894.381250
 20
197.191499
 42
-0.000280
  0
VERTEX
  8
0
 10
899.703684
 20
199.991611
 42
-0.000382
  0
VERTEX
  8
0
 10
904.500000
 20
202.506834
 42
0.000054
  0
VERTEX
  8
0
 10
925.949768
 20
213.737277
 42
0.000258
  0
VERTEX
  8
0
 10
938.150474
 20
220.134896
 42
0.000335
  0
VERTEX
  8
0
 10
948.860057
 20
225.766835
 42
0.000134
  0
VERTEX
  8
0
 10
963.500000
 20
233.483221
 42
-0.000510
  0
VERTEX
  8
0
 10
967.465769
 20
235.569682
 42
-0.000197
  0
VERTEX
  8
0
 10
972.968750
 20
238.454965
 42
-0.000195
  0
VERTEX
  8
0
 10
978.936688
 20
241.578063
 42
-0.000241
  0
VERTEX
  8
0
 10
984.500000
 20
244.483232
 42
0.000626
  0
VERTEX
  8
0
 10
989.917169
 20
247.317399
 42
0.000588
  0
VERTEX
  8
0
 10
995.443750
 20
250.225919
 42
0.000584
  0
VERTEX
  8
0
 10
1000.340301
 20
252.817541
 42
0.002025
  0
VERTEX
  8
0
 10
1003.500000
 20
254.511054
 42
-0.001370
  0
VERTEX
  8
0
 10
1006.459432
 20
256.102223
 42
-0.000545
  0
VERTEX
  8
0
 10
1010.528125
 20
258.269752
 42
-0.000539
  0
VERTEX
  8
0
 10
1014.923348
 20
260.599014
 42
-0.000678
  0
VERTEX
  8
0
 10
1019.000000
 20
262.746751
 42
0.000094
  0
VERTEX
  8
0
 10
1030.247669
 20
268.655682
 42
0.000139
  0
VERTEX
  8
0
 10
1040.113311
 20
273.844438
 42
0.000159
  0
VERTEX
  8
0
 10
1048.692537
 20
278.363140
 42
0.000256
  0
VERTEX
  8
0
 10
1056.000000
 20
282.219743
 42
-0.000493
  0
VERTEX
  8
0
 10
1060.163940
 20
284.414786
 42
-0.000202
  0
VERTEX
  8
0
 10
1065.821875
 20
287.387354
 42
-0.000200
  0
VERTEX
  8
0
 10
1071.900427
 20
290.574677
 42
-0.000256
  0
VERTEX
  8
0
 10
1077.500000
 20
293.504344
 42
0.000225
  0
VERTEX
  8
0
 10
1085.984125
 20
297.942531
 42
0.000395
  0
VERTEX
  8
0
 10
1092.995887
 20
301.621588
 42
0.000291
  0
VERTEX
  8
0
 10
1101.304054
 20
305.995428
 42
0.000071
  0
VERTEX
  8
0
 10
1115.000000
 20
313.218348
 42
-0.000502
  0
VERTEX
  8
0
 10
1119.163943
 20
315.409732
 42
-0.000205
  0
VERTEX
  8
0
 10
1124.821875
 20
318.377158
 42
-0.000203
  0
VERTEX
  8
0
 10
1130.900427
 20
321.558856
 42
-0.000260
  0
VERTEX
  8
0
 10
1136.500000
 20
324.483232
 42
0.000523
  0
VERTEX
  8
0
 10
1141.917169
 20
327.315972
 42
0.000491
  0
VERTEX
  8
0
 10
1147.443750
 20
330.220208
 42
0.000488
  0
VERTEX
  8
0
 10
1152.340506
 20
332.805716
 42
0.001694
  0
VERTEX
  8
0
 10
1155.500000
 20
334.491611
 42
-0.001732
  0
VERTEX
  8
0
 10
1158.659517
 20
336.177211
 42
-0.000499
  0
VERTEX
  8
0
 10
1163.556250
 20
338.761617
 42
-0.000502
  0
VERTEX
  8
0
 10
1169.082831
 20
341.664314
 42
-0.000535
  0
VERTEX
  8
0
 10
1174.500000
 20
344.495232
 42
0.000504
  0
VERTEX
  8
0
 10
1179.990416
 20
347.363992
 42
0.000438
  0
VERTEX
  8
0
 10
1185.737500
 20
350.380651
 42
0.000440
  0
VERTEX
  8
0
 10
1190.933864
 20
353.119887
 42
0.001298
  0
VERTEX
  8
0
 10
1194.500000
 20
355.015631
 42
-0.001018
  0
VERTEX
  8
0
 10
1197.932049
 20
356.842563
 42
-0.000416
  0
VERTEX
  8
0
 10
1202.601562
 20
359.311050
 42
-0.000412
  0
VERTEX
  8
0
 10
1207.621684
 20
361.954253
 42
-0.000527
  0
VERTEX
  8
0
 10
1212.250000
 20
364.380074
 42
0.000102
  0
VERTEX
  8
0
 10
1225.030614
 20
371.064888
 42
0.000154
  0
VERTEX
  8
0
 10
1236.160440
 20
376.893518
 42
0.000177
  0
VERTEX
  8
0
 10
1245.739040
 20
381.917854
 42
0.000300
  0
VERTEX
  8
0
 10
1253.750000
 20
386.129663
 42
-0.000013
  0
VERTEX
  8
0
 10
1257.978050
 20
388.355687
 42
-0.000007
  0
VERTEX
  8
0
 10
1263.073438
 20
391.038088
 42
-0.000007
  0
VERTEX
  8
0
 10
1268.192574
 20
393.732796
 42
-0.000013
  0
VERTEX
  8
0
 10
1272.500000
 20
396.000000
 42
0.000008
  0
VERTEX
  8
0
 10
1288.499380
 20
404.421065
 42
0.000042
  0
VERTEX
  8
0
 10
1297.405131
 20
409.109639
 42
0.000074
  0
VERTEX
  8
0
 10
1303.678671
 20
412.414300
 42
0.000092
  0
VERTEX
  8
0
 10
1309.500000
 20
415.483221
 42
-0.000510
  0
VERTEX
  8
0
 10
1313.465769
 20
417.569682
 42
-0.000197
  0
VERTEX
  8
0
 10
1318.968750
 20
420.454965
 42
-0.000195
  0
VERTEX
  8
0
 10
1324.936688
 20
423.578063
 42
-0.000241
  0
VERTEX
  8
0
 10
1330.500000
 20
426.483232
 42
0.000523
  0
VERTEX
  8
0
 10
1335.917169
 20
429.315972
 42
0.000491
  0
VERTEX
  8
0
 10
1341.443750
 20
432.220208
 42
0.000488
  0
VERTEX
  8
0
 10
1346.340506
 20
434.805716
 42
0.001694
  0
VERTEX
  8
0
 10
1349.500000
 20
436.491611
 42
-0.001761
  0
VERTEX
  8
0
 10
1352.659534
 20
438.176985
 42
-0.000507
  0
VERTEX
  8
0
 10
1357.556250
 20
440.760553
 42
-0.000510
  0
VERTEX
  8
0
 10
1363.082831
 20
443.662080
 42
-0.000544
  0
VERTEX
  8
0
 10
1368.500000
 20
446.491611
 42
0.000544
  0
VERTEX
  8
0
 10
1373.917169
 20
449.321143
 42
0.000510
  0
VERTEX
  8
0
 10
1379.443750
 20
452.222669
 42
0.000507
  0
VERTEX
  8
0
 10
1384.340466
 20
454.806237
 42
0.001761
  0
VERTEX
  8
0
 10
1387.500000
 20
456.491611
 42
-0.001661
  0
VERTEX
  8
0
 10
1390.659475
 20
458.177759
 42
-0.000479
  0
VERTEX
  8
0
 10
1395.556250
 20
460.764203
 42
-0.000481
  0
VERTEX
  8
0
 10
1401.082831
 20
463.669747
 42
-0.000513
  0
VERTEX
  8
0
 10
1406.500000
 20
466.504035
 42
0.000284
  0
VERTEX
  8
0
 10
1412.099571
 20
469.430492
 42
0.000222
  0
VERTEX
  8
0
 10
1418.178125
 20
472.615107
 42
0.000224
  0
VERTEX
  8
0
 10
1423.836036
 20
475.585778
 42
0.000547
  0
VERTEX
  8
0
 10
1428.000000
 20
477.780257
 42
-0.000169
  0
VERTEX
  8
0
 10
1431.903732
 20
479.841361
 42
-0.000095
  0
VERTEX
  8
0
 10
1436.646875
 20
482.342451
 42
-0.000095
  0
VERTEX
  8
0
 10
1441.437550
 20
484.866279
 42
-0.000155
  0
VERTEX
  8
0
 10
1445.500000
 20
487.003866
 42
0.000150
  0
VERTEX
  8
0
 10
1449.731926
 20
489.230577
 42
0.000075
  0
VERTEX
  8
0
 10
1455.087500
 20
492.051602
 42
0.000074
  0
VERTEX
  8
0
 10
1460.632285
 20
494.974410
 42
0.000110
  0
VERTEX
  8
0
 10
1465.500000
 20
497.542610
 42
-0.000222
  0
VERTEX
  8
0
 10
1470.349207
 20
500.099652
 42
-0.000154
  0
VERTEX
  8
0
 10
1475.835915
 20
502.987585
 42
-0.000155
  0
VERTEX
  8
0
 10
1481.109051
 20
505.758944
 42
-0.000319
  0
VERTEX
  8
0
 10
1485.239285
 20
507.924642
 42
0.000000
  0
VERTEX
  8
0
 10
1493.978570
 20
512.500000
 42
0.000000
  0
VERTEX
  8
0
 10
1499.739285
 20
509.391499
 42
0.002675
  0
VERTEX
  8
0
 10
1502.924066
 20
507.694918
 42
0.000602
  0
VERTEX
  8
0
 10
1508.360915
 20
504.844220
 42
0.000625
  0
VERTEX
  8
0
 10
1514.643351
 20
501.569787
 42
0.000605
  0
VERTEX
  8
0
 10
1521.000000
 20
498.276530
 42
-0.000620
  0
VERTEX
  8
0
 10
1531.105624
 20
493.040614
 42
-0.001020
  0
VERTEX
  8
0
 10
1539.638685
 20
488.583896
 42
-0.000862
  0
VERTEX
  8
0
 10
1549.094972
 20
483.599584
 42
-0.000312
  0
VERTEX
  8
0
 10
1562.500000
 20
476.493647
 42
0.000414
  0
VERTEX
  8
0
 10
1566.243452
 20
474.510240
 42
0.000212
  0
VERTEX
  8
0
 10
1570.940625
 20
472.029055
 42
0.000211
  0
VERTEX
  8
0
 10
1575.780021
 20
469.477983
 42
0.000318
  0
VERTEX
  8
0
 10
1580.000000
 20
467.259139
 42
-0.000277
  0
VERTEX
  8
0
 10
1584.255165
 20
465.022242
 42
-0.000176
  0
VERTEX
  8
0
 10
1589.206250
 20
462.413785
 42
-0.000177
  0
VERTEX
  8
0
 10
1594.062351
 20
459.850992
 42
-0.000328
  0
VERTEX
  8
0
 10
1598.000000
 20
457.767823
 42
0.000305
  0
VERTEX
  8
0
 10
1601.971150
 20
455.666698
 42
0.000158
  0
VERTEX
  8
0
 10
1606.940625
 20
453.043249
 42
0.000157
  0
VERTEX
  8
0
 10
1612.052334
 20
450.348820
 42
0.000238
  0
VERTEX
  8
0
 10
1616.500000
 20
448.008892
 42
-0.000414
  0
VERTEX
  8
0
 10
1620.840679
 20
445.723293
 42
-0.000310
  0
VERTEX
  8
0
 10
1625.618750
 20
443.198538
 42
-0.000313
  0
VERTEX
  8
0
 10
1630.114928
 20
440.815562
 42
-0.000717
  0
VERTEX
  8
0
 10
1633.500000
 20
439.012523
 42
0.001257
  0
VERTEX
  8
0
 10
1637.066113
 20
437.117989
 42
0.000426
  0
VERTEX
  8
0
 10
1642.262500
 20
434.379738
 42
0.000424
  0
VERTEX
  8
0
 10
1648.009583
 20
431.363764
 42
0.000487
  0
VERTEX
  8
0
 10
1653.500000
 20
428.495232
 42
-0.000535
  0
VERTEX
  8
0
 10
1658.917169
 20
425.664314
 42
-0.000502
  0
VERTEX
  8
0
 10
1664.443750
 20
422.761617
 42
-0.000499
  0
VERTEX
  8
0
 10
1669.340483
 20
420.177211
 42
-0.001732
  0
VERTEX
  8
0
 10
1672.500000
 20
418.491611
 42
0.001694
  0
VERTEX
  8
0
 10
1675.659494
 20
416.805716
 42
0.000488
  0
VERTEX
  8
0
 10
1680.556250
 20
414.220208
 42
0.000491
  0
VERTEX
  8
0
 10
1686.082831
 20
411.315972
 42
0.000523
  0
VERTEX
  8
0
 10
1691.500000
 20
408.483232
 42
-0.000241
  0
VERTEX
  8
0
 10
1697.063312
 20
405.578063
 42
-0.000195
  0
VERTEX
  8
0
 10
1703.031250
 20
402.454965
 42
-0.000197
  0
VERTEX
  8
0
 10
1708.534231
 20
399.569682
 42
-0.000510
  0
VERTEX
  8
0
 10
1712.500000
 20
397.483221
 42
0.000077
  0
VERTEX
  8
0
 10
1716.259936
 20
395.500888
 42
0.000038
  0
VERTEX
  8
0
 10
1721.014063
 20
392.995788
 42
0.000038
  0
VERTEX
  8
0
 10
1725.933839
 20
390.404363
 42
0.000056
  0
VERTEX
  8
0
 10
1730.250000
 20
388.131926
 42
-0.000000
  0
VERTEX
  8
0
 10
1734.688489
 20
385.795721
 42
-0.000000
  0
VERTEX
  8
0
 10
1740.000000
 20
383.000000
 42
-0.000000
  0
VERTEX
  8
0
 10
1745.311511
 20
380.204279
 42
0.002625
  0
VERTEX
  8
0
 10
1749.750000
 20
377.868074
 42
-0.000056
  0
VERTEX
  8
0
 10
1754.066161
 20
375.595637
 42
-0.000038
  0
VERTEX
  8
0
 10
1758.985937
 20
373.004212
 42
-0.000038
  0
VERTEX
  8
0
 10
1763.740064
 20
370.499112
 42
-0.000077
  0
VERTEX
  8
0
 10
1767.500000
 20
368.516779
 42
0.000427
  0
VERTEX
  8
0
 10
1771.465730
 20
366.429491
 42
0.000165
  0
VERTEX
  8
0
 10
1776.968750
 20
363.541386
 42
0.000163
  0
VERTEX
  8
0
 10
1782.936686
 20
360.414272
 42
0.000202
  0
VERTEX
  8
0
 10
1788.500000
 20
357.504344
 42
-0.000230
  0
VERTEX
  8
0
 10
1794.081461
 20
354.584524
 42
-0.000183
  0
VERTEX
  8
0
 10
1800.104688
 20
351.427274
 42
-0.000185
  0
VERTEX
  8
0
 10
1805.685032
 20
348.496947
 42
-0.000464
  0
VERTEX
  8
0
 10
1809.750000
 20
346.355640
 42
0.000000
  0
VERTEX
  8
0
 10
1813.505645
 20
344.372824
 42
-0.000000
  0
VERTEX
  8
0
 10
1818.000000
 20
342.000000
 42
-0.000000
  0
VERTEX
  8
0
 10
1822.494355
 20
339.627176
 42
-0.015094
  0
VERTEX
  8
0
 10
1826.250000
 20
337.644360
 42
0.000519
  0
VERTEX
  8
0
 10
1830.314993
 20
335.503613
 42
0.000207
  0
VERTEX
  8
0
 10
1835.895312
 20
332.575188
 42
0.000204
  0
VERTEX
  8
0
 10
1841.918541
 20
329.420646
 42
0.000257
  0
VERTEX
  8
0
 10
1847.500000
 20
326.504035
 42
-0.000513
  0
VERTEX
  8
0
 10
1852.917169
 20
323.669747
 42
-0.000481
  0
VERTEX
  8
0
 10
1858.443750
 20
320.764203
 42
-0.000479
  0
VERTEX
  8
0
 10
1863.340525
 20
318.177759
 42
-0.001661
  0
VERTEX
  8
0
 10
1866.500000
 20
316.491611
 42
0.001761
  0
VERTEX
  8
0
 10
1869.659534
 20
314.806237
 42
0.000507
  0
VERTEX
  8
0
 10
1874.556250
 20
312.222669
 42
0.000510
  0
VERTEX
  8
0
 10
1880.082831
 20
309.321143
 42
0.000544
  0
VERTEX
  8
0
 10
1885.500000
 20
306.491611
 42
-0.000544
  0
VERTEX
  8
0
 10
1890.917169
 20
303.662080
 42
-0.000510
  0
VERTEX
  8
0
 10
1896.443750
 20
300.760553
 42
-0.000507
  0
VERTEX
  8
0
 10
1901.340466
 20
298.176985
 42
-0.001761
  0
VERTEX
  8
0
 10
1904.500000
 20
296.491611
 42
0.001694
  0
VERTEX
  8
0
 10
1907.659494
 20
294.805716
 42
0.000488
  0
VERTEX
  8
0
 10
1912.556250
 20
292.220208
 42
0.000491
  0
VERTEX
  8
0
 10
1918.082831
 20
289.315972
 42
0.000523
  0
VERTEX
  8
0
 10
1923.500000
 20
286.483232
 42
-0.000241
  0
VERTEX
  8
0
 10
1929.063312
 20
283.578063
 42
-0.000195
  0
VERTEX
  8
0
 10
1935.031250
 20
280.454965
 42
-0.000197
  0
VERTEX
  8
0
 10
1940.534231
 20
277.569682
 42
-0.000510
  0
VERTEX
  8
0
 10
1944.500000
 20
275.483221
 42
0.000092
  0
VERTEX
  8
0
 10
1950.321329
 20
272.414300
 42
0.000074
  0
VERTEX
  8
0
 10
1956.594869
 20
269.109639
 42
0.000042
  0
VERTEX
  8
0
 10
1965.500620
 20
264.421065
 42
0.000008
  0
VERTEX
  8
0
 10
1981.500000
 20
256.000000
 42
0.031250
  0
VERTEX
  8
0
 10
1985.824682
 20
253.723852
 42
0.000000
  0
VERTEX
  8
0
 10
1991.000000
 20
251.000000
 42
-0.000000
  0
VERTEX
  8
0
 10
1996.175318
 20
248.276148
 42
-0.000000
  0
VERTEX
  8
0
 10
2000.500000
 20
246.000000
 42
0.000055
  0
VERTEX
  8
0
 10
2004.841866
 20
243.715419
 42
0.000032
  0
VERTEX
  8
0
 10
2010.073437
 20
240.963859
 42
0.000032
  0
VERTEX
  8
0
 10
2015.328773
 20
238.200651
 42
0.000053
  0
VERTEX
  8
0
 10
2019.750000
 20
235.876966
 42
-0.000510
  0
VERTEX
  8
0
 10
2023.994744
 20
233.641083
 42
-0.000376
  0
VERTEX
  8
0
 10
2028.692188
 20
231.156106
 42
-0.000379
  0
VERTEX
  8
0
 10
2033.130756
 20
228.799490
 42
-0.000849
  0
VERTEX
  8
0
 10
2036.500000
 20
227.000000
 42
0.000849
  0
VERTEX
  8
0
 10
2039.869244
 20
225.200510
 42
0.000379
  0
VERTEX
  8
0
 10
2044.307812
 20
222.843894
 42
0.000376
  0
VERTEX
  8
0
 10
2049.005256
 20
220.358917
 42
0.000510
  0
VERTEX
  8
0
 10
2053.250000
 20
218.123034
 42
-0.000053
  0
VERTEX
  8
0
 10
2057.671227
 20
215.799349
 42
-0.000032
  0
VERTEX
  8
0
 10
2062.926563
 20
213.036141
 42
-0.000032
  0
VERTEX
  8
0
 10
2068.158134
 20
210.284581
 42
-0.000055
  0
VERTEX
  8
0
 10
2072.500000
 20
208.000000
 42
-0.000000
  0
VERTEX
  8
0
 10
2076.824682
 20
205.723852
 42
0.019048
  0
VERTEX
  8
0
 10
2082.000000
 20
203.000000
 42
0.000000
  0
VERTEX
  8
0
 10
2087.175318
 20
200.276148
 42
0.010363
  0
VERTEX
  8
0
 10
2091.500000
 20
198.000000
 42
0.000019
  0
VERTEX
  8
0
 10
2095.841860
 20
195.715026
 42
0.000011
  0
VERTEX
  8
0
 10
2101.073437
 20
192.962233
 42
0.000011
  0
VERTEX
  8
0
 10
2106.328767
 20
190.197242
 42
0.000019
  0
VERTEX
  8
0
 10
2110.750000
 20
187.871431
 42
-0.000208
  0
VERTEX
  8
0
 10
2115.083831
 20
185.589497
 42
-0.000138
  0
VERTEX
  8
0
 10
2120.059375
 20
182.965271
 42
-0.000139
  0
VERTEX
  8
0
 10
2124.892719
 20
180.412623
 42
-0.000270
  0
VERTEX
  8
0
 10
2128.750000
 20
178.371431
 42
0.000000
  0
VERTEX
  8
0
 10
2132.505645
 20
176.381426
 42
0.000000
  0
VERTEX
  8
0
 10
2137.000000
 20
174.000000
 42
0.020619
  0
VERTEX
  8
0
 10
2141.494355
 20
171.618574
 42
-0.019048
  0
VERTEX
  8
0
 10
2145.250000
 20
169.628569
 42
0.000270
  0
VERTEX
  8
0
 10
2149.107281
 20
167.587377
 42
0.000139
  0
VERTEX
  8
0
 10
2153.940625
 20
165.034729
 42
0.000138
  0
VERTEX
  8
0
 10
2158.916169
 20
162.410503
 42
0.000208
  0
VERTEX
  8
0
 10
2163.250000
 20
160.128569
 42
-0.000000
  0
VERTEX
  8
0
 10
2167.688489
 20
157.793892
 42
-0.012195
  0
VERTEX
  8
0
 10
2173.000000
 20
155.000000
 42
-0.000000
  0
VERTEX
  8
0
 10
2178.311511
 20
152.206108
 42
0.000000
  0
VERTEX
  8
0
 10
2182.750000
 20
149.871431
 42
-0.000266
  0
VERTEX
  8
0
 10
2187.066139
 20
147.598177
 42
-0.000180
  0
VERTEX
  8
0
 10
2191.985937
 20
145.001375
 42
-0.000181
  0
VERTEX
  8
0
 10
2196.739991
 20
142.487666
 42
-0.000361
  0
VERTEX
  8
0
 10
2200.500000
 20
140.494337
 42
0.000661
  0
VERTEX
  8
0
 10
2204.341376
 20
138.460822
 42
0.000299
  0
VERTEX
  8
0
 10
2209.381250
 20
135.805233
 42
0.000296
  0
VERTEX
  8
0
 10
2214.703686
 20
133.008842
 42
0.000405
  0
VERTEX
  8
0
 10
2219.500000
 20
130.497443
 42
-0.000423
  0
VERTEX
  8
0
 10
2224.296313
 20
127.985818
 42
-0.000309
  0
VERTEX
  8
0
 10
2229.618750
 20
125.188740
 42
-0.000313
  0
VERTEX
  8
0
 10
2234.658613
 20
122.532157
 42
-0.000691
  0
VERTEX
  8
0
 10
2238.500000
 20
120.497443
 42
0.001033
  0
VERTEX
  8
0
 10
2262.235725
 20
107.945805
 42
0.005703
  0
VERTEX
  8
0
 10
2275.106584
 20
101.359903
 42
0.010548
  0
VERTEX
  8
0
 10
2283.869636
 20
97.229544
 42
0.017106
  0
VERTEX
  8
0
 10
2291.500000
 20
94.136191
 42
0.040590
  0
VERTEX
  8
0
 10
2303.900816
 20
90.706703
 42
0.018488
  0
VERTEX
  8
0
 10
2320.537609
 20
88.163314
 42
0.016483
  0
VERTEX
  8
0
 10
2336.611002
 20
86.846079
 42
0.085292
  0
VERTEX
  8
0
 10
2345.429002
 20
87.921577
 42
-0.010272
  0
VERTEX
  8
0
 10
2347.183166
 20
88.408938
 42
-0.001967
  0
VERTEX
  8
0
 10
2350.388519
 20
89.215525
 42
-0.002096
  0
VERTEX
  8
0
 10
2354.137723
 20
90.126639
 42
-0.001928
  0
VERTEX
  8
0
 10
2358.000000
 20
91.032379
 42
0.070716
  0
VERTEX
  8
0
 10
2383.503874
 20
100.856599
 42
0.061021
  0
VERTEX
  8
0
 10
2406.704763
 20
117.800262
 42
0.060425
  0
VERTEX
  8
0
 10
2425.332746
 20
140.032025
 42
0.066457
  0
VERTEX
  8
0
 10
2437.397570
 20
165.395224
 42
0.030031
  0
VERTEX
  8
0
 10
2441.585313
 20
181.711195
 42
0.042167
  0
VERTEX
  8
0
 10
2443.189014
 20
196.653864
 42
0.035160
  0
VERTEX
  8
0
 10
2442.382436
 20
213.564583
 42
0.014086
  0
VERTEX
  8
0
 10
2439.007026
 20
236.500000
 42
-0.000530
  0
VERTEX
  8
0
 10
2438.132509
 20
241.497644
 42
-0.000501
  0
VERTEX
  8
0
 10
2437.252127
 20
246.590625
 42
-0.000497
  0
VERTEX
  8
0
 10
2436.481791
 20
251.100626
 42
-0.001757
  0
VERTEX
  8
0
 10
2436.000000
 20
254.000000
 42
0.001681
  0
VERTEX
  8
0
 10
2435.518660
 20
256.899387
 42
0.000476
  0
VERTEX
  8
0
 10
2434.749937
 20
261.409375
 42
0.000479
  0
VERTEX
  8
0
 10
2433.871827
 20
266.502356
 42
0.000507
  0
VERTEX
  8
0
 10
2433.000000
 20
271.500000
 42
-0.000514
  0
VERTEX
  8
0
 10
2432.128245
 20
276.497644
 42
-0.000486
  0
VERTEX
  8
0
 10
2431.250349
 20
281.590625
 42
-0.000482
  0
VERTEX
  8
0
 10
2430.481936
 20
286.100616
 42
-0.001704
  0
VERTEX
  8
0
 10
2430.000973
 20
289.000000
 42
0.001777
  0
VERTEX
  8
0
 10
2429.125275
 20
294.274140
 42
0.000349
  0
VERTEX
  8
0
 10
2427.510640
 20
303.749208
 42
0.000209
  0
VERTEX
  8
0
 10
2424.887808
 20
319.037642
 42
0.000036
  0
VERTEX
  8
0
 10
2419.904514
 20
348.000000
 42
-0.000269
  0
VERTEX
  8
0
 10
2418.685734
 20
355.103221
 42
-0.000297
  0
VERTEX
  8
0
 10
2417.514675
 20
361.975000
 42
-0.000276
  0
VERTEX
  8
0
 10
2416.521464
 20
367.843774
 42
-0.001529
  0
VERTEX
  8
0
 10
2415.999027
 20
371.000000
 42
0.001704
  0
VERTEX
  8
0
 10
2415.518064
 20
373.899384
 42
0.000482
  0
VERTEX
  8
0
 10
2414.749651
 20
378.409375
 42
0.000486
  0
VERTEX
  8
0
 10
2413.871755
 20
383.502356
 42
0.000514
  0
VERTEX
  8
0
 10
2413.000000
 20
388.500000
 42
-0.000507
  0
VERTEX
  8
0
 10
2412.128173
 20
393.497644
 42
-0.000479
  0
VERTEX
  8
0
 10
2411.250063
 20
398.590625
 42
-0.000476
  0
VERTEX
  8
0
 10
2410.481340
 20
403.100613
 42
-0.001681
  0
VERTEX
  8
0
 10
2410.000000
 20
406.000000
 42
0.001681
  0
VERTEX
  8
0
 10
2409.518660
 20
408.899387
 42
0.000476
  0
VERTEX
  8
0
 10
2408.749937
 20
413.409375
 42
0.000479
  0
VERTEX
  8
0
 10
2407.871827
 20
418.502356
 42
0.000507
  0
VERTEX
  8
0
 10
2407.000000
 20
423.500000
 42
-0.000507
  0
VERTEX
  8
0
 10
2406.128173
 20
428.497644
 42
-0.000479
  0
VERTEX
  8
0
 10
2405.250063
 20
433.590625
 42
-0.000476
  0
VERTEX
  8
0
 10
2404.481340
 20
438.100613
 42
-0.001681
  0
VERTEX
  8
0
 10
2404.000000
 20
441.000000
 42
0.001681
  0
VERTEX
  8
0
 10
2403.518660
 20
443.899387
 42
0.000476
  0
VERTEX
  8
0
 10
2402.749937
 20
448.409375
 42
0.000479
  0
VERTEX
  8
0
 10
2401.871827
 20
453.502356
 42
0.000507
  0
VERTEX
  8
0
 10
2401.000000
 20
458.500000
 42
-0.000507
  0
VERTEX
  8
0
 10
2400.128173
 20
463.497644
 42
-0.000479
  0
VERTEX
  8
0
 10
2399.250063
 20
468.590625
 42
-0.000476
  0
VERTEX
  8
0
 10
2398.481340
 20
473.100613
 42
-0.001681
  0
VERTEX
  8
0
 10
2398.000000
 20
476.000000
 42
0.001681
  0
VERTEX
  8
0
 10
2397.518660
 20
478.899387
 42
0.000476
  0
VERTEX
  8
0
 10
2396.749937
 20
483.409375
 42
0.000479
  0
VERTEX
  8
0
 10
2395.871827
 20
488.502356
 42
0.000507
  0
VERTEX
  8
0
 10
2395.000000
 20
493.500000
 42
-0.000507
  0
VERTEX
  8
0
 10
2394.128173
 20
498.497644
 42
-0.000479
  0
VERTEX
  8
0
 10
2393.250063
 20
503.590625
 42
-0.000476
  0
VERTEX
  8
0
 10
2392.481340
 20
508.100613
 42
-0.001681
  0
VERTEX
  8
0
 10
2392.000000
 20
511.000000
 42
0.001681
  0
VERTEX
  8
0
 10
2391.518660
 20
513.899387
 42
0.000476
  0
VERTEX
  8
0
 10
2390.749937
 20
518.409375
 42
0.000479
  0
VERTEX
  8
0
 10
2389.871827
 20
523.502356
 42
0.000507
  0
VERTEX
  8
0
 10
2389.000000
 20
528.500000
 42
-0.000507
  0
VERTEX
  8
0
 10
2388.128173
 20
533.497644
 42
-0.000479
  0
VERTEX
  8
0
 10
2387.250063
 20
538.590625
 42
-0.000476
  0
VERTEX
  8
0
 10
2386.481340
 20
543.100613
 42
-0.001681
  0
VERTEX
  8
0
 10
2386.000000
 20
546.000000
 42
0.001681
  0
VERTEX
  8
0
 10
2385.518660
 20
548.899387
 42
0.000476
  0
VERTEX
  8
0
 10
2384.749937
 20
553.409375
 42
0.000479
  0
VERTEX
  8
0
 10
2383.871827
 20
558.502356
 42
0.000507
  0
VERTEX
  8
0
 10
2383.000000
 20
563.500000
 42
-0.000507
  0
VERTEX
  8
0
 10
2382.128173
 20
568.497644
 42
-0.000479
  0
VERTEX
  8
0
 10
2381.250063
 20
573.590625
 42
-0.000476
  0
VERTEX
  8
0
 10
2380.481340
 20
578.100613
 42
-0.001681
  0
VERTEX
  8
0
 10
2380.000000
 20
581.000000
 42
0.001681
  0
VERTEX
  8
0
 10
2379.518660
 20
583.899387
 42
0.000476
  0
VERTEX
  8
0
 10
2378.749937
 20
588.409375
 42
0.000479
  0
VERTEX
  8
0
 10
2377.871827
 20
593.502356
 42
0.000507
  0
VERTEX
  8
0
 10
2377.000000
 20
598.500000
 42
-0.000507
  0
VERTEX
  8
0
 10
2376.128173
 20
603.497644
 42
-0.000479
  0
VERTEX
  8
0
 10
2375.250063
 20
608.590625
 42
-0.000476
  0
VERTEX
  8
0
 10
2374.481340
 20
613.100613
 42
-0.001681
  0
VERTEX
  8
0
 10
2374.000000
 20
616.000000
 42
0.001681
  0
VERTEX
  8
0
 10
2373.518660
 20
618.899387
 42
0.000476
  0
VERTEX
  8
0
 10
2372.749937
 20
623.409375
 42
0.000479
  0
VERTEX
  8
0
 10
2371.871827
 20
628.502356
 42
0.000507
  0
VERTEX
  8
0
 10
2371.000000
 20
633.500000
 42
-0.000514
  0
VERTEX
  8
0
 10
2370.128245
 20
638.497644
 42
-0.000486
  0
VERTEX
  8
0
 10
2369.250349
 20
643.590625
 42
-0.000482
  0
VERTEX
  8
0
 10
2368.481936
 20
648.100616
 42
-0.001704
  0
VERTEX
  8
0
 10
2368.000973
 20
651.000000
 42
0.001529
  0
VERTEX
  8
0
 10
2367.478536
 20
654.156226
 42
0.000276
  0
VERTEX
  8
0
 10
2366.485325
 20
660.025000
 42
0.000297
  0
VERTEX
  8
0
 10
2365.314266
 20
666.896779
 42
0.000269
  0
VERTEX
  8
0
 10
2364.095486
 20
674.000000
 42
-0.000036
  0
VERTEX
  8
0
 10
2359.112192
 20
702.962358
 42
-0.000209
  0
VERTEX
  8
0
 10
2356.489360
 20
718.250792
 42
-0.000349
  0
VERTEX
  8
0
 10
2354.874725
 20
727.725860
 42
-0.001777
  0
VERTEX
  8
0
 10
2353.999027
 20
733.000000
 42
0.001704
  0
VERTEX
  8
0
 10
2353.518064
 20
735.899384
 42
0.000482
  0
VERTEX
  8
0
 10
2352.749651
 20
740.409375
 42
0.000486
  0
VERTEX
  8
0
 10
2351.871755
 20
745.502356
 42
0.000514
  0
VERTEX
  8
0
 10
2351.000000
 20
750.500000
 42
-0.000507
  0
VERTEX
  8
0
 10
2350.128173
 20
755.497644
 42
-0.000479
  0
VERTEX
  8
0
 10
2349.250063
 20
760.590625
 42
-0.000476
  0
VERTEX
  8
0
 10
2348.481340
 20
765.100613
 42
-0.001681
  0
VERTEX
  8
0
 10
2348.000000
 20
768.000000
 42
0.001681
  0
VERTEX
  8
0
 10
2347.518660
 20
770.899387
 42
0.000476
  0
VERTEX
  8
0
 10
2346.749937
 20
775.409375
 42
0.000479
  0
VERTEX
  8
0
 10
2345.871827
 20
780.502356
 42
0.000507
  0
VERTEX
  8
0
 10
2345.000000
 20
785.500000
 42
-0.000507
  0
VERTEX
  8
0
 10
2344.128173
 20
790.497644
 42
-0.000479
  0
VERTEX
  8
0
 10
2343.250063
 20
795.590625
 42
-0.000476
  0
VERTEX
  8
0
 10
2342.481340
 20
800.100613
 42
-0.001681
  0
VERTEX
  8
0
 10
2342.000000
 20
803.000000
 42
0.001681
  0
VERTEX
  8
0
 10
2341.518660
 20
805.899387
 42
0.000476
  0
VERTEX
  8
0
 10
2340.749937
 20
810.409375
 42
0.000479
  0
VERTEX
  8
0
 10
2339.871827
 20
815.502356
 42
0.000507
  0
VERTEX
  8
0
 10
2339.000000
 20
820.500000
 42
-0.000507
  0
VERTEX
  8
0
 10
2338.128173
 20
825.497644
 42
-0.000479
  0
VERTEX
  8
0
 10
2337.250063
 20
830.590625
 42
-0.000476
  0
VERTEX
  8
0
 10
2336.481340
 20
835.100613
 42
-0.001681
  0
VERTEX
  8
0
 10
2336.000000
 20
838.000000
 42
0.001681
  0
VERTEX
  8
0
 10
2335.518660
 20
840.899387
 42
0.000476
  0
VERTEX
  8
0
 10
2334.749937
 20
845.409375
 42
0.000479
  0
VERTEX
  8
0
 10
2333.871827
 20
850.502356
 42
0.000507
  0
VERTEX
  8
0
 10
2333.000000
 20
855.500000
 42
-0.000514
  0
VERTEX
  8
0
 10
2332.128245
 20
860.497644
 42
-0.000486
  0
VERTEX
  8
0
 10
2331.250349
 20
865.590625
 42
-0.000482
  0
VERTEX
  8
0
 10
2330.481936
 20
870.100616
 42
-0.001704
  0
VERTEX
  8
0
 10
2330.000973
 20
873.000000
 42
0.001529
  0
VERTEX
  8
0
 10
2329.478536
 20
876.156226
 42
0.000276
  0
VERTEX
  8
0
 10
2328.485325
 20
882.025000
 42
0.000297
  0
VERTEX
  8
0
 10
2327.314266
 20
888.896779
 42
0.000269
  0
VERTEX
  8
0
 10
2326.095486
 20
896.000000
 42
-0.000060
  0
VERTEX
  8
0
 10
2324.722198
 20
903.983718
 42
-0.000035
  0
VERTEX
  8
0
 10
2323.074543
 20
913.573437
 42
-0.000035
  0
VERTEX
  8
0
 10
2321.424193
 20
923.186915
 42
-0.000059
  0
VERTEX
  8
0
 10
2320.041559
 20
931.250000
 42
0.000021
  0
VERTEX
  8
0
 10
2316.341346
 20
952.838329
 42
0.000035
  0
VERTEX
  8
0
 10
2313.220769
 20
971.032617
 42
0.000041
  0
VERTEX
  8
0
 10
2310.490428
 20
986.937218
 42
0.000053
  0
VERTEX
  8
0
 10
2307.987632
 20
1001.500000
 42
-0.000258
  0
VERTEX
  8
0
 10
2306.737027
 20
1008.794662
 42
-0.000287
  0
VERTEX
  8
0
 10
2305.539091
 20
1015.828125
 42
-0.000265
  0
VERTEX
  8
0
 10
2304.524772
 20
1021.823497
 42
-0.001522
  0
VERTEX
  8
0
 10
2303.999027
 20
1025.000000
 42
0.001704
  0
VERTEX
  8
0
 10
2303.518064
 20
1027.899384
 42
0.000482
  0
VERTEX
  8
0
 10
2302.749651
 20
1032.409375
 42
0.000486
  0
VERTEX
  8
0
 10
2301.871755
 20
1037.502356
 42
0.000514
  0
VERTEX
  8
0
 10
2301.000000
 20
1042.500000
 42
-0.000498
  0
VERTEX
  8
0
 10
2300.128087
 20
1047.497644
 42
-0.000471
  0
VERTEX
  8
0
 10
2299.249717
 20
1052.590625
 42
-0.000468
  0
VERTEX
  8
0
 10
2298.480618
 20
1057.100608
 42
-0.001653
  0
VERTEX
  8
0
 10
2297.998822
 20
1060.000000
 42
0.001502
  0
VERTEX
  8
0
 10
2295.941445
 20
1072.404103
 42
0.003031
  0
VERTEX
  8
0
 10
2294.231367
 20
1082.165149
 42
0.001105
  0
VERTEX
  8
0
 10
2292.766750
 20
1090.136541
 42
0.092678
  0
VERTEX
  8
0
 10
2292.321459
 20
1091.288885
 42
-0.347018
  0
VERTEX
  8
0
 10
2292.475085
 20
1092.625228
 42
-0.001435
  0
VERTEX
  8
0
 10
2303.663437
 20
1103.814433
 42
-0.002326
  0
VERTEX
  8
0
 10
2322.891511
 20
1122.756874
 42
-0.000148
  0
VERTEX
  8
0
 10
2379.511304
 20
1177.986319
 42
0.000011
  0
VERTEX
  8
0
 10
2388.612300
 20
1186.858961
 42
0.000006
  0
VERTEX
  8
0
 10
2399.506641
 20
1197.480675
 42
0.000006
  0
VERTEX
  8
0
 10
2410.403114
 20
1208.105004
 42
0.000011
  0
VERTEX
  8
0
 10
2419.511304
 20
1216.986319
 42
-0.000028
  0
VERTEX
  8
0
 10
2460.322780
 20
1256.778491
 42
-0.000058
  0
VERTEX
  8
0
 10
2492.080731
 20
1287.732568
 42
-0.000074
  0
VERTEX
  8
0
 10
2517.224588
 20
1312.226987
 42
-0.000150
  0
VERTEX
  8
0
 10
2537.010707
 20
1331.484760
 42
0.000151
  0
VERTEX
  8
0
 10
2545.462554
 20
1339.710952
 42
0.000087
  0
VERTEX
  8
0
 10
2555.650020
 20
1349.635873
 42
0.000087
  0
VERTEX
  8
0
 10
2565.885794
 20
1359.614780
 42
0.000145
  0
VERTEX
  8
0
 10
2574.500000
 20
1368.020586
 42
-0.000233
  0
VERTEX
  8
0
 10
2584.413191
 20
1377.690521
 42
-0.000070
  0
VERTEX
  8
0
 10
2599.521875
 20
1392.410603
 42
-0.000070
  0
VERTEX
  8
0
 10
2616.483715
 20
1408.926924
 42
-0.000076
  0
VERTEX
  8
0
 10
2633.000000
 20
1425.000000
 42
0.000086
  0
VERTEX
  8
0
 10
2649.552152
 20
1441.108610
 42
0.000078
  0
VERTEX
  8
0
 10
2666.621860
 20
1457.731795
 42
0.000078
  0
VERTEX
  8
0
 10
2681.876304
 20
1472.596486
 42
0.000253
  0
VERTEX
  8
0
 10
2691.989309
 20
1482.464175
 42
-0.000094
  0
VERTEX
  8
0
 10
2700.862181
 20
1491.127313
 42
-0.000055
  0
VERTEX
  8
0
 10
2711.481579
 20
1501.489476
 42
-0.000055
  0
VERTEX
  8
0
 10
2722.102066
 20
1511.848102
 42
-0.000095
  0
VERTEX
  8
0
 10
2730.978006
 20
1520.500000
 42
0.000031
  0
VERTEX
  8
0
 10
2739.889849
 20
1529.184672
 42
0.000018
  0
VERTEX
  8
0
 10
2750.627768
 20
1539.650894
 42
0.000018
  0
VERTEX
  8
0
 10
2761.414265
 20
1550.165946
 42
0.000029
  0
VERTEX
  8
0
 10
2770.488696
 20
1559.013681
 42
-0.000011
  0
VERTEX
  8
0
 10
2779.596886
 20
1567.894996
 42
-0.000006
  0
VERTEX
  8
0
 10
2790.493359
 20
1578.519325
 42
-0.000006
  0
VERTEX
  8
0
 10
2801.387700
 20
1589.141039
 42
-0.000011
  0
VERTEX
  8
0
 10
2810.488696
 20
1598.013681
 42
0.000023
  0
VERTEX
  8
0
 10
2838.710126
 20
1625.528370
 42
0.000060
  0
VERTEX
  8
0
 10
2859.004857
 20
1645.321483
 42
0.000081
  0
VERTEX
  8
0
 10
2875.192186
 20
1661.117660
 42
0.000106
  0
VERTEX
  8
0
 10
2890.000000
 20
1675.578475
 42
-0.000571
  0
VERTEX
  8
0
 10
2898.004411
 20
1683.380789
 42
-0.000592
  0
VERTEX
  8
0
 10
2905.930125
 20
1691.070539
 42
-0.000570
  0
VERTEX
  8
0
 10
2912.805375
 20
1697.710166
 42
-0.002567
  0
VERTEX
  8
0
 10
2916.847233
 20
1701.564793
 42
0.040680
  0
VERTEX
  8
0
 10
2936.685599
 20
1723.602615
 42
0.056702
  0
VERTEX
  8
0
 10
2950.277074
 20
1746.362992
 42
0.060379
  0
VERTEX
  8
0
 10
2957.836245
 20
1770.421643
 42
0.055445
  0
VERTEX
  8
0
 10
2959.730294
 20
1796.306053
 42
0.009328
  0
VERTEX
  8
0
 10
2959.417966
 20
1801.839042
 42
0.008479
  0
VERTEX
  8
0
 10
2958.892371
 20
1807.535847
 42
0.008534
  0
VERTEX
  8
0
 10
2958.248491
 20
1812.617924
 42
0.026608
  0
VERTEX
  8
0
 10
2957.575942
 20
1816.000000
 42
0.002544
  0
VERTEX
  8
0
 10
2955.938817
 20
1822.290924
 42
0.006425
  0
VERTEX
  8
0
 10
2954.665651
 20
1826.846370
 42
0.006517
  0
VERTEX
  8
0
 10
2953.653049
 20
1830.138327
 42
0.059379
  0
VERTEX
  8
0
 10
2953.028446
 20
1831.500000
 42
-0.036903
  0
VERTEX
  8
0
 10
2952.716361
 20
1832.106975
 42
-0.005998
  0
VERTEX
  8
0
 10
2952.213247
 20
1833.333908
 42
-0.006586
  0
VERTEX
  8
0
 10
2951.656339
 20
1834.795789
 42
-0.005755
  0
VERTEX
  8
0
 10
2951.111722
 20
1836.338836
 42
0.040825
  0
VERTEX
  8
0
 10
2948.780497
 20
1841.711408
 42
0.012381
  0
VERTEX
  8
0
 10
2944.396376
 20
1849.444284
 42
0.012818
  0
VERTEX
  8
0
 10
2939.325177
 20
1857.423435
 42
0.020418
  0
VERTEX
  8
0
 10
2934.545334
 20
1863.943182
 42
0.027777
  0
VERTEX
  8
0
 10
2929.837566
 20
1869.214460
 42
0.012243
  0
VERTEX
  8
0
 10
2923.071979
 20
1875.667822
 42
0.012275
  0
VERTEX
  8
0
 10
2915.793995
 20
1881.958332
 42
0.020968
  0
VERTEX
  8
0
 10
2909.382379
 20
1886.794853
 42
0.022588
  0
VERTEX
  8
0
 10
2905.167046
 20
1889.432810
 42
0.008655
  0
VERTEX
  8
0
 10
2899.085393
 20
1892.729199
 42
0.008756
  0
VERTEX
  8
0
 10
2892.627791
 20
1895.943703
 42
0.014602
  0
VERTEX
  8
0
 10
2887.071061
 20
1898.392996
 42
0.034866
  0
VERTEX
  8
0
 10
2877.974314
 20
1901.369771
 42
0.014112
  0
VERTEX
  8
0
 10
2865.226329
 20
1904.198074
 42
0.009909
  0
VERTEX
  8
0
 10
2847.458477
 20
1907.253292
 42
0.003359
  0
VERTEX
  8
0
 10
2821.500000
 20
1911.010755
 42
-0.001550
  0
VERTEX
  8
0
 10
2818.264664
 20
1911.467122
 42
-0.000391
  0
VERTEX
  8
0
 10
2813.003125
 20
1912.230141
 42
-0.000399
  0
VERTEX
  8
0
 10
2806.991406
 20
1913.111651
 42
-0.000403
  0
VERTEX
  8
0
 10
2801.000000
 20
1914.000000
 42
0.000338
  0
VERTEX
  8
0
 10
2795.008594
 20
1914.889139
 42
0.000335
  0
VERTEX
  8
0
 10
2788.996875
 20
1915.773018
 42
0.000328
  0
VERTEX
  8
0
 10
2783.735381
 20
1916.539464
 42
0.001301
  0
VERTEX
  8
0
 10
2780.500000
 20
1917.000000
 42
-0.001301
  0
VERTEX
  8
0
 10
2777.264619
 20
1917.460536
 42
-0.000328
  0
VERTEX
  8
0
 10
2772.003125
 20
1918.226982
 42
-0.000335
  0
VERTEX
  8
0
 10
2765.991406
 20
1919.110861
 42
-0.000338
  0
VERTEX
  8
0
 10
2760.000000
 20
1920.000000
 42
0.000286
  0
VERTEX
  8
0
 10
2750.695924
 20
1921.381748
 42
0.000756
  0
VERTEX
  8
0
 10
2744.036272
 20
1922.356601
 42
0.000677
  0
VERTEX
  8
0
 10
2736.978303
 20
1923.369108
 42
0.000192
  0
VERTEX
  8
0
 10
2726.000000
 20
1924.924523
 42
-0.001033
  0
VERTEX
  8
0
 10
2722.655444
 20
1925.404117
 42
-0.000672
  0
VERTEX
  8
0
 10
2718.793750
 20
1925.971305
 42
-0.000675
  0
VERTEX
  8
0
 10
2715.026955
 20
1926.534928
 42
-0.001287
  0
VERTEX
  8
0
 10
2712.000000
 20
1927.000000
 42
0.001287
  0
VERTEX
  8
0
 10
2708.973045
 20
1927.465072
 42
0.000675
  0
VERTEX
  8
0
 10
2705.206250
 20
1928.028695
 42
0.000672
  0
VERTEX
  8
0
 10
2701.344556
 20
1928.595883
 42
0.001033
  0
VERTEX
  8
0
 10
2698.000000
 20
1929.075477
 42
-0.000192
  0
VERTEX
  8
0
 10
2687.021697
 20
1930.630892
 42
-0.000677
  0
VERTEX
  8
0
 10
2679.963728
 20
1931.643399
 42
-0.000756
  0
VERTEX
  8
0
 10
2673.304076
 20
1932.618252
 42
-0.000286
  0
VERTEX
  8
0
 10
2664.000000
 20
1934.000000
 42
0.000338
  0
VERTEX
  8
0
 10
2658.008594
 20
1934.889139
 42
0.000335
  0
VERTEX
  8
0
 10
2651.996875
 20
1935.773018
 42
0.000328
  0
VERTEX
  8
0
 10
2646.735381
 20
1936.539464
 42
0.001301
  0
VERTEX
  8
0
 10
2643.500000
 20
1937.000000
 42
-0.001301
  0
VERTEX
  8
0
 10
2640.264619
 20
1937.460536
 42
-0.000328
  0
VERTEX
  8
0
 10
2635.003125
 20
1938.226982
 42
-0.000335
  0
VERTEX
  8
0
 10
2628.991406
 20
1939.110861
 42
-0.000338
  0
VERTEX
  8
0
 10
2623.000000
 20
1940.000000
 42
0.000338
  0
VERTEX
  8
0
 10
2617.008594
 20
1940.889139
 42
0.000335
  0
VERTEX
  8
0
 10
2610.996875
 20
1941.773018
 42
0.000328
  0
VERTEX
  8
0
 10
2605.735381
 20
1942.539464
 42
0.001301
  0
VERTEX
  8
0
 10
2602.500000
 20
1943.000000
 42
-0.001301
  0
VERTEX
  8
0
 10
2599.264619
 20
1943.460536
 42
-0.000328
  0
VERTEX
  8
0
 10
2594.003125
 20
1944.226982
 42
-0.000335
  0
VERTEX
  8
0
 10
2587.991406
 20
1945.110861
 42
-0.000338
  0
VERTEX
  8
0
 10
2582.000000
 20
1946.000000
 42
0.000286
  0
VERTEX
  8
0
 10
2572.695924
 20
1947.381748
 42
0.000756
  0
VERTEX
  8
0
 10
2566.036272
 20
1948.356601
 42
0.000677
  0
VERTEX
  8
0
 10
2558.978303
 20
1949.369108
 42
0.000192
  0
VERTEX
  8
0
 10
2548.000000
 20
1950.924523
 42
-0.001046
  0
VERTEX
  8
0
 10
2544.655445
 20
1951.404210
 42
-0.000681
  0
VERTEX
  8
0
 10
2540.793750
 20
1951.971685
 42
-0.000684
  0
VERTEX
  8
0
 10
2537.026956
 20
1952.535725
 42
-0.001304
  0
VERTEX
  8
0
 10
2534.000000
 20
1953.001294
 42
0.001252
  0
VERTEX
  8
0
 10
2531.040961
 20
1953.456731
 42
0.000736
  0
VERTEX
  8
0
 10
2527.500000
 20
1953.987333
 42
0.000736
  0
VERTEX
  8
0
 10
2523.958951
 20
1954.507296
 42
0.001256
  0
VERTEX
  8
0
 10
2521.000000
 20
1954.929746
 42
-0.001164
  0
VERTEX
  8
0
 10
2517.556602
 20
1955.420711
 42
-0.000322
  0
VERTEX
  8
0
 10
2512.150000
 20
1956.207996
 42
-0.000325
  0
VERTEX
  8
0
 10
2506.028117
 20
1957.107527
 42
-0.000340
  0
VERTEX
  8
0
 10
2500.000000
 20
1958.001477
 42
0.000255
  0
VERTEX
  8
0
 10
2494.008594
 20
1958.891031
 42
0.000252
  0
VERTEX
  8
0
 10
2487.996875
 20
1959.777377
 42
0.000247
  0
VERTEX
  8
0
 10
2482.735441
 20
1960.547737
 42
0.000979
  0
VERTEX
  8
0
 10
2479.500000
 20
1961.013361
 42
0.000002
  0
VERTEX
  8
0
 10
2476.635186
 20
1961.419912
 42
0.000001
  0
VERTEX
  8
0
 10
2472.912500
 20
1961.948179
 42
0.000001
  0
VERTEX
  8
0
 10
2469.001284
 20
1962.503183
 42
0.000001
  0
VERTEX
  8
0
 10
2465.500000
 20
1963.000000
 42
-0.000001
  0
VERTEX
  8
0
 10
2461.998716
 20
1963.496817
 42
-0.000001
  0
VERTEX
  8
0
 10
2458.087500
 20
1964.051821
 42
-0.000001
  0
VERTEX
  8
0
 10
2454.364814
 20
1964.580088
 42
-0.000002
  0
VERTEX
  8
0
 10
2451.500000
 20
1964.986639
 42
-0.000993
  0
VERTEX
  8
0
 10
2448.264562
 20
1965.452355
 42
-0.000251
  0
VERTEX
  8
0
 10
2443.003125
 20
1966.223057
 42
-0.000256
  0
VERTEX
  8
0
 10
2436.991406
 20
1967.109880
 42
-0.000258
  0
VERTEX
  8
0
 10
2431.000000
 20
1968.000000
 42
0.000286
  0
VERTEX
  8
0
 10
2421.695924
 20
1969.381748
 42
0.000756
  0
VERTEX
  8
0
 10
2415.036272
 20
1970.356601
 42
0.000677
  0
VERTEX
  8
0
 10
2407.978303
 20
1971.369108
 42
0.000192
  0
VERTEX
  8
0
 10
2397.000000
 20
1972.924523
 42
-0.001033
  0
VERTEX
  8
0
 10
2393.655444
 20
1973.404117
 42
-0.000672
  0
VERTEX
  8
0
 10
2389.793750
 20
1973.971305
 42
-0.000675
  0
VERTEX
  8
0
 10
2386.026955
 20
1974.534928
 42
-0.001287
  0
VERTEX
  8
0
 10
2383.000000
 20
1975.000000
 42
0.001287
  0
VERTEX
  8
0
 10
2379.973045
 20
1975.465072
 42
0.000675
  0
VERTEX
  8
0
 10
2376.206250
 20
1976.028695
 42
0.000672
  0
VERTEX
  8
0
 10
2372.344556
 20
1976.595883
 42
0.001033
  0
VERTEX
  8
0
 10
2369.000000
 20
1977.075477
 42
-0.000192
  0
VERTEX
  8
0
 10
2358.021697
 20
1978.630892
 42
-0.000677
  0
VERTEX
  8
0
 10
2350.963728
 20
1979.643399
 42
-0.000756
  0
VERTEX
  8
0
 10
2344.304076
 20
1980.618252
 42
-0.000286
  0
VERTEX
  8
0
 10
2335.000000
 20
1982.000000
 42
0.000294
  0
VERTEX
  8
0
 10
2325.636223
 20
1983.390447
 42
0.000756
  0
VERTEX
  8
0
 10
2318.862823
 20
1984.381700
 42
0.000692
  0
VERTEX
  8
0
 10
2311.749913
 20
1985.401609
 42
0.000212
  0
VERTEX
  8
0
 10
2301.000000
 20
1986.923207
 42
-0.000982
  0
VERTEX
  8
0
 10
2297.204723
 20
1987.466371
 42
-0.000341
  0
VERTEX
  8
0
 10
2291.737500
 20
1988.263584
 42
-0.000339
  0
VERTEX
  8
0
 10
2285.718458
 20
1989.149626
 42
-0.000395
  0
VERTEX
  8
0
 10
2280.000000
 20
1990.000000
 42
0.000395
  0
VERTEX
  8
0
 10
2274.281542
 20
1990.850374
 42
0.000339
  0
VERTEX
  8
0
 10
2268.262500
 20
1991.736416
 42
0.000341
  0
VERTEX
  8
0
 10
2262.795277
 20
1992.533629
 42
0.000982
  0
VERTEX
  8
0
 10
2259.000000
 20
1993.076793
 42
-0.000212
  0
VERTEX
  8
0
 10
2248.250087
 20
1994.598391
 42
-0.000692
  0
VERTEX
  8
0
 10
2241.137177
 20
1995.618300
 42
-0.000756
  0
VERTEX
  8
0
 10
2234.363777
 20
1996.609553
 42
-0.000294
  0
VERTEX
  8
0
 10
2225.000000
 20
1998.000000
 42
0.000338
  0
VERTEX
  8
0
 10
2219.008594
 20
1998.889139
 42
0.000335
  0
VERTEX
  8
0
 10
2212.996875
 20
1999.773018
 42
0.000328
  0
VERTEX
  8
0
 10
2207.735381
 20
2000.539464
 42
0.001301
  0
VERTEX
  8
0
 10
2204.500000
 20
2001.000000
 42
-0.001301
  0
VERTEX
  8
0
 10
2201.264619
 20
2001.460536
 42
-0.000328
  0
VERTEX
  8
0
 10
2196.003125
 20
2002.226982
 42
-0.000335
  0
VERTEX
  8
0
 10
2189.991406
 20
2003.110861
 42
-0.000338
  0
VERTEX
  8
0
 10
2184.000000
 20
2004.000000
 42
0.000294
  0
VERTEX
  8
0
 10
2174.636223
 20
2005.390447
 42
0.000756
  0
VERTEX
  8
0
 10
2167.862823
 20
2006.381700
 42
0.000692
  0
VERTEX
  8
0
 10
2160.749913
 20
2007.401609
 42
0.000212
  0
VERTEX
  8
0
 10
2150.000000
 20
2008.923207
 42
-0.000982
  0
VERTEX
  8
0
 10
2146.204723
 20
2009.466371
 42
-0.000341
  0
VERTEX
  8
0
 10
2140.737500
 20
2010.263584
 42
-0.000339
  0
VERTEX
  8
0
 10
2134.718458
 20
2011.149626
 42
-0.000395
  0
VERTEX
  8
0
 10
2129.000000
 20
2012.000000
 42
0.000395
  0
VERTEX
  8
0
 10
2123.281542
 20
2012.850374
 42
0.000339
  0
VERTEX
  8
0
 10
2117.262500
 20
2013.736416
 42
0.000341
  0
VERTEX
  8
0
 10
2111.795277
 20
2014.533629
 42
0.000982
  0
VERTEX
  8
0
 10
2108.000000
 20
2015.076793
 42
-0.000212
  0
VERTEX
  8
0
 10
2097.250087
 20
2016.598391
 42
-0.000692
  0
VERTEX
  8
0
 10
2090.137177
 20
2017.618300
 42
-0.000756
  0
VERTEX
  8
0
 10
2083.363777
 20
2018.609553
 42
-0.000294
  0
VERTEX
  8
0
 10
2074.000000
 20
2020.000000
 42
0.000338
  0
VERTEX
  8
0
 10
2068.008594
 20
2020.889139
 42
0.000335
  0
VERTEX
  8
0
 10
2061.996875
 20
2021.773018
 42
0.000328
  0
VERTEX
  8
0
 10
2056.735381
 20
2022.539464
 42
0.001301
  0
VERTEX
  8
0
 10
2053.500000
 20
2023.000000
 42
-0.001301
  0
VERTEX
  8
0
 10
2050.264619
 20
2023.460536
 42
-0.000328
  0
VERTEX
  8
0
 10
2045.003125
 20
2024.226982
 42
-0.000335
  0
VERTEX
  8
0
 10
2038.991406
 20
2025.110861
 42
-0.000338
  0
VERTEX
  8
0
 10
2033.000000
 20
2026.000000
 42
0.000409
  0
VERTEX
  8
0
 10
2021.300496
 20
2027.734543
 42
0.001135
  0
VERTEX
  8
0
 10
2013.071993
 20
2028.928517
 42
0.001417
  0
VERTEX
  8
0
 10
2005.936860
 20
2029.926682
 42
0.001045
  0
VERTEX
  8
0
 10
1998.031959
 20
2030.992883
 42
-0.010031
  0
VERTEX
  8
0
 10
1994.690859
 20
2031.504817
 42
-0.013061
  0
VERTEX
  8
0
 10
1991.656902
 20
2032.114218
 42
-0.010707
  0
VERTEX
  8
0
 10
1989.168416
 20
2032.738400
 42
-0.106791
  0
VERTEX
  8
0
 10
1988.220927
 20
2033.231610
 42
-0.095093
  0
VERTEX
  8
0
 10
1987.434635
 20
2034.187305
 42
-0.002520
  0
VERTEX
  8
0
 10
1984.825150
 20
2039.035125
 42
-0.005196
  0
VERTEX
  8
0
 10
1981.836498
 20
2044.798712
 42
-0.003522
  0
VERTEX
  8
0
 10
1978.546738
 20
2051.423097
 42
0.000254
  0
VERTEX
  8
0
 10
1974.375251
 20
2059.962628
 42
0.000093
  0
VERTEX
  8
0
 10
1968.483567
 20
2072.002410
 42
0.000093
  0
VERTEX
  8
0
 10
1962.045927
 20
2085.145469
 42
0.000111
  0
VERTEX
  8
0
 10
1955.988262
 20
2097.500000
 42
-0.000085
  0
VERTEX
  8
0
 10
1949.790571
 20
2110.138395
 42
-0.000062
  0
VERTEX
  8
0
 10
1942.924575
 20
2124.150000
 42
-0.000063
  0
VERTEX
  8
0
 10
1936.431431
 20
2137.409100
 42
-0.000140
  0
VERTEX
  8
0
 10
1931.494866
 20
2147.500000
 42
0.000077
  0
VERTEX
  8
0
 10
1926.654948
 20
2157.396511
 42
0.000038
  0
VERTEX
  8
0
 10
1920.502887
 20
2169.968750
 42
0.000038
  0
VERTEX
  8
0
 10
1914.116991
 20
2183.013861
 42
0.000055
  0
VERTEX
  8
0
 10
1908.491614
 20
2194.500000
 42
-0.000010
  0
VERTEX
  8
0
 10
1890.578747
 20
2231.067002
 42
-0.000031
  0
VERTEX
  8
0
 10
1878.427573
 20
2255.877420
 42
-0.000045
  0
VERTEX
  8
0
 10
1869.053669
 20
2275.024554
 42
-0.000059
  0
VERTEX
  8
0
 10
1860.502667
 20
2292.500000
 42
0.000089
  0
VERTEX
  8
0
 10
1855.278754
 20
2303.174362
 42
0.000047
  0
VERTEX
  8
0
 10
1848.811009
 20
2316.381250
 42
0.000047
  0
VERTEX
  8
0
 10
1842.200800
 20
2329.872620
 42
0.000073
  0
VERTEX
  8
0
 10
1836.500409
 20
2341.500000
 42
-0.000071
  0
VERTEX
  8
0
 10
1830.799960
 20
2353.127379
 42
-0.000046
  0
VERTEX
  8
0
 10
1824.189571
 20
2366.618750
 42
-0.000046
  0
VERTEX
  8
0
 10
1817.721565
 20
2379.825637
 42
-0.000086
  0
VERTEX
  8
0
 10
1812.497339
 20
2390.500000
 42
0.000057
  0
VERTEX
  8
0
 10
1800.605110
 20
2414.802252
 42
0.000052
  0
VERTEX
  8
0
 10
1788.304161
 20
2439.925843
 42
0.000052
  0
VERTEX
  8
0
 10
1776.100597
 20
2464.837398
 42
0.000061
  0
VERTEX
  8
0
 10
1764.502223
 20
2488.500000
 42
-0.000033
  0
VERTEX
  8
0
 10
1758.767872
 20
2500.197353
 42
-0.000020
  0
VERTEX
  8
0
 10
1752.046148
 20
2513.912500
 42
-0.000020
  0
VERTEX
  8
0
 10
1745.418821
 20
2527.437825
 42
-0.000037
  0
VERTEX
  8
0
 10
1740.000000
 20
2538.500000
 42
0.000030
  0
VERTEX
  8
0
 10
1734.589678
 20
2549.545208
 42
0.000017
  0
VERTEX
  8
0
 10
1727.990603
 20
2563.014062
 42
0.000017
  0
VERTEX
  8
0
 10
1721.309007
 20
2576.649036
 42
0.000027
  0
VERTEX
  8
0
 10
1715.622885
 20
2588.250000
 42
-0.000002
  0
VERTEX
  8
0
 10
1709.893549
 20
2599.937678
 42
-0.000001
  0
VERTEX
  8
0
 10
1703.072287
 20
2613.853125
 42
-0.000001
  0
VERTEX
  8
0
 10
1696.274402
 20
2627.721084
 42
-0.000002
  0
VERTEX
  8
0
 10
1690.623198
 20
2639.250000
 42
0.000007
  0
VERTEX
  8
0
 10
1684.930005
 20
2650.864296
 42
0.000004
  0
VERTEX
  8
0
 10
1677.993558
 20
2665.014062
 42
0.000004
  0
VERTEX
  8
0
 10
1670.975377
 20
2679.329974
 42
0.000007
  0
VERTEX
  8
0
 10
1665.008869
 20
2691.500000
 42
-0.000052
  0
VERTEX
  8
0
 10
1659.138344
 20
2703.476989
 42
-0.000035
  0
VERTEX
  8
0
 10
1652.425666
 20
2717.178125
 42
-0.000035
  0
VERTEX
  8
0
 10
1645.924024
 20
2730.453196
 42
-0.000069
  0
VERTEX
  8
0
 10
1640.761301
 20
2741.000000
 42
0.000702
  0
VERTEX
  8
0
 10
1618.672147
 20
2785.981004
 42
0.002404
  0
VERTEX
  8
0
 10
1604.129210
 20
2815.136180
 42
0.002653
  0
VERTEX
  8
0
 10
1593.937954
 20
2835.060163
 42
0.025926
  0
VERTEX
  8
0
 10
1589.158673
 20
2843.217884
 42
0.051846
  0
VERTEX
  8
0
 10
1575.044654
 20
2860.480046
 42
0.047799
  0
VERTEX
  8
0
 10
1557.316981
 20
2875.000626
 42
0.048220
  0
VERTEX
  8
0
 10
1537.324409
 20
2885.777248
 42
0.055073
  0
VERTEX
  8
0
 10
1516.500000
 20
2891.945775
 42
-0.000402
  0
VERTEX
  8
0
 10
1513.468778
 20
2892.493455
 42
-0.000306
  0
VERTEX
  8
0
 10
1510.146479
 20
2893.098585
 42
-0.000309
  0
VERTEX
  8
0
 10
1507.030561
 20
2893.670081
 42
-0.000722
  0
VERTEX
  8
0
 10
1504.700779
 20
2894.102359
 42
0.031318
  0
VERTEX
  8
0
 10
1500.323268
 20
2894.640358
 42
0.012004
  0
VERTEX
  8
0
 10
1494.191007
 20
2894.859166
 42
0.011383
  0
VERTEX
  8
0
 10
1488.181239
 20
2894.792420
 42
0.044516
  0
SEQEND
  0
POLYLINE
  8
0
 66
1
 70
1
  0
VERTEX
  8
0
 10
1613.130855
 20
1966.215796
 42
0.000280
  0
VERTEX
  8
0
 10
1672.277393
 20
1847.868112
 42
0.001108
  0
VERTEX
  8
0
 10
1708.872203
 20
1775.150472
 42
0.000486
  0
VERTEX
  8
0
 10
1735.284477
 20
1723.080796
 42
0.045455
  0
VERTEX
  8
0
 10
1739.789935
 20
1715.914385
 42
0.033627
  0
VERTEX
  8
0
 10
1746.668456
 20
1708.061061
 42
0.028993
  0
VERTEX
  8
0
 10
1754.870945
 20
1700.775379
 42
0.029029
  0
VERTEX
  8
0
 10
1763.848890
 20
1694.497022
 42
0.033971
  0
VERTEX
  8
0
 10
1773.047366
 20
1689.657757
 42
0.028953
  0
VERTEX
  8
0
 10
1782.473372
 20
1686.125934
 42
0.023635
  0
VERTEX
  8
0
 10
1792.902761
 20
1683.425656
 42
0.013838
  0
VERTEX
  8
0
 10
1807.784182
 20
1680.742098
 42
0.002895
  0
VERTEX
  8
0
 10
1834.000000
 20
1676.915335
 42
-0.000330
  0
VERTEX
  8
0
 10
1843.741763
 20
1675.544305
 42
-0.000774
  0
VERTEX
  8
0
 10
1851.024048
 20
1674.503014
 42
-0.000775
  0
VERTEX
  8
0
 10
1858.295746
 20
1673.440247
 42
-0.000333
  0
VERTEX
  8
0
 10
1868.000000
 20
1672.000000
 42
0.000258
  0
VERTEX
  8
0
 10
1873.991406
 20
1671.109880
 42
0.000256
  0
VERTEX
  8
0
 10
1880.003125
 20
1670.223057
 42
0.000251
  0
VERTEX
  8
0
 10
1885.264562
 20
1669.452355
 42
0.000993
  0
VERTEX
  8
0
 10
1888.500000
 20
1668.986639
 42
0.000002
  0
VERTEX
  8
0
 10
1891.364814
 20
1668.580088
 42
0.000001
  0
VERTEX
  8
0
 10
1895.087500
 20
1668.051821
 42
0.000001
  0
VERTEX
  8
0
 10
1898.998716
 20
1667.496817
 42
0.000001
  0
VERTEX
  8
0
 10
1902.500000
 20
1667.000000
 42
-0.000001
  0
VERTEX
  8
0
 10
1906.001284
 20
1666.503183
 42
-0.000001
  0
VERTEX
  8
0
 10
1909.912500
 20
1665.948179
 42
-0.000001
  0
VERTEX
  8
0
 10
1913.635186
 20
1665.419912
 42
-0.000002
  0
VERTEX
  8
0
 10
1916.500000
 20
1665.013361
 42
-0.000979
  0
VERTEX
  8
0
 10
1919.735441
 20
1664.547737
 42
-0.000247
  0
VERTEX
  8
0
 10
1924.996875
 20
1663.777377
 42
-0.000252
  0
VERTEX
  8
0
 10
1931.008594
 20
1662.891031
 42
-0.000255
  0
VERTEX
  8
0
 10
1937.000000
 20
1662.001477
 42
0.000334
  0
VERTEX
  8
0
 10
1943.064798
 20
1661.102011
 42
0.000308
  0
VERTEX
  8
0
 10
1949.296875
 20
1660.185914
 42
0.000307
  0
VERTEX
  8
0
 10
1954.851087
 20
1659.376444
 42
0.001024
  0
VERTEX
  8
0
 10
1958.500000
 20
1658.854573
 42
-0.000082
  0
VERTEX
  8
0
 10
1961.616911
 20
1658.414784
 42
-0.000054
  0
VERTEX
  8
0
 10
1965.206250
 20
1657.907344
 42
-0.000054
  0
VERTEX
  8
0
 10
1968.700806
 20
1657.412537
 42
-0.000104
  0
VERTEX
  8
0
 10
1971.500000
 20
1657.015286
 42
-0.000994
  0
VERTEX
  8
0
 10
1980.442553
 20
1655.726152
 42
-0.000129
  0
VERTEX
  8
0
 10
1999.523816
 20
1652.931683
 42
-0.000162
  0
VERTEX
  8
0
 10
2019.152504
 20
1650.045356
 42
-0.000405
  0
VERTEX
  8
0
 10
2033.500000
 20
1647.918981
 42
0.000385
  0
VERTEX
  8
0
 10
2039.026931
 20
1647.099638
 42
0.000324
  0
VERTEX
  8
0
 10
2044.884375
 20
1646.239784
 42
0.000326
  0
VERTEX
  8
0
 10
2050.233941
 20
1645.461591
 42
0.000904
  0
VERTEX
  8
0
 10
2054.000000
 20
1644.923207
 42
-0.000212
  0
VERTEX
  8
0
 10
2064.749913
 20
1643.401609
 42
-0.000692
  0
VERTEX
  8
0
 10
2071.862823
 20
1642.381700
 42
-0.000756
  0
VERTEX
  8
0
 10
2078.636223
 20
1641.390447
 42
-0.000294
  0
VERTEX
  8
0
 10
2088.000000
 20
1640.000000
 42
0.000302
  0
VERTEX
  8
0
 10
2097.462316
 20
1638.595061
 42
0.000722
  0
VERTEX
  8
0
 10
2104.485540
 20
1637.566957
 42
0.000703
  0
VERTEX
  8
0
 10
2111.619707
 20
1636.543362
 42
0.000273
  0
VERTEX
  8
0
 10
2121.500000
 20
1635.145427
 42
-0.001024
  0
VERTEX
  8
0
 10
2125.148913
 20
1634.623556
 42
-0.000307
  0
VERTEX
  8
0
 10
2130.703125
 20
1633.814086
 42
-0.000308
  0
VERTEX
  8
0
 10
2136.935202
 20
1632.897989
 42
-0.000334
  0
VERTEX
  8
0
 10
2143.000000
 20
1631.998523
 42
0.000291
  0
VERTEX
  8
0
 10
2152.367689
 20
1630.608379
 42
0.000746
  0
VERTEX
  8
0
 10
2159.148195
 20
1629.616529
 42
0.000683
  0
VERTEX
  8
0
 10
2166.264345
 20
1628.596335
 42
0.000210
  0
VERTEX
  8
0
 10
2177.000000
 20
1627.076793
 42
-0.000982
  0
VERTEX
  8
0
 10
2180.795277
 20
1626.533629
 42
-0.000341
  0
VERTEX
  8
0
 10
2186.262500
 20
1625.736416
 42
-0.000339
  0
VERTEX
  8
0
 10
2192.281542
 20
1624.850374
 42
-0.000395
  0
VERTEX
  8
0
 10
2198.000000
 20
1624.000000
 42
0.000395
  0
VERTEX
  8
0
 10
2203.718458
 20
1623.149626
 42
0.000339
  0
VERTEX
  8
0
 10
2209.737500
 20
1622.263584
 42
0.000341
  0
VERTEX
  8
0
 10
2215.204723
 20
1621.466371
 42
0.000982
  0
VERTEX
  8
0
 10
2219.000000
 20
1620.923207
 42
-0.000212
  0
VERTEX
  8
0
 10
2229.749913
 20
1619.401609
 42
-0.000692
  0
VERTEX
  8
0
 10
2236.862823
 20
1618.381700
 42
-0.000756
  0
VERTEX
  8
0
 10
2243.636223
 20
1617.390447
 42
-0.000294
  0
VERTEX
  8
0
 10
2253.000000
 20
1616.000000
 42
0.000258
  0
VERTEX
  8
0
 10
2258.991406
 20
1615.109880
 42
0.000256
  0
VERTEX
  8
0
 10
2265.003125
 20
1614.223057
 42
0.000251
  0
VERTEX
  8
0
 10
2270.264562
 20
1613.452355
 42
0.000993
  0
VERTEX
  8
0
 10
2273.500000
 20
1612.986639
 42
0.000010
  0
VERTEX
  8
0
 10
2285.620783
 20
1611.266747
 42
0.000050
  0
VERTEX
  8
0
 10
2292.424044
 20
1610.302217
 42
0.000086
  0
VERTEX
  8
0
 10
2297.185948
 20
1609.628420
 42
0.000116
  0
VERTEX
  8
0
 10
2301.500000
 20
1609.019776
 42
-0.001436
  0
VERTEX
  8
0
 10
2313.418318
 20
1607.306193
 42
-0.003032
  0
VERTEX
  8
0
 10
2322.650686
 20
1605.894480
 42
-0.000760
  0
VERTEX
  8
0
 10
2330.275227
 20
1604.669373
 42
-0.147801
  0
VERTEX
  8
0
 10
2330.968624
 20
1604.330726
 42
-0.426411
  0
VERTEX
  8
0
 10
2330.981021
 20
1603.596026
 42
-0.000226
  0
VERTEX
  8
0
 10
2313.248039
 20
1586.015299
 42
-0.001034
  0
VERTEX
  8
0
 10
2284.612840
 20
1557.768703
 42
-0.000082
  0
VERTEX
  8
0
 10
2208.500000
 20
1483.023265
 42
0.000155
  0
VERTEX
  8
0
 10
2184.213721
 20
1459.166280
 42
0.000081
  0
VERTEX
  8
0
 10
2154.008901
 20
1429.467230
 42
0.000076
  0
VERTEX
  8
0
 10
2120.647057
 20
1396.643301
 42
0.000071
  0
VERTEX
  8
0
 10
2086.500000
 20
1363.026997
 42
-0.000138
  0
VERTEX
  8
0
 10
2072.979974
 20
1349.720658
 42
-0.000085
  0
VERTEX
  8
0
 10
2057.081071
 20
1334.086978
 42
-0.000085
  0
VERTEX
  8
0
 10
2041.369667
 20
1318.648200
 42
-0.000154
  0
VERTEX
  8
0
 10
2028.478113
 20
1305.992445
 42
0.000655
  0
VERTEX
  8
0
 10
1965.338678
 20
1243.883303
 42
0.009662
  0
VERTEX
  8
0
 10
1943.604233
 20
1221.602650
 42
0.028619
  0
VERTEX
  8
0
 10
1932.294948
 20
1208.078467
 42
0.053791
  0
VERTEX
  8
0
 10
1925.081786
 20
1195.816612
 42
0.029072
  0
VERTEX
  8
0
 10
1921.718623
 20
1187.045206
 42
0.031904
  0
VERTEX
  8
0
 10
1919.516659
 20
1178.208884
 42
0.030507
  0
VERTEX
  8
0
 10
1918.390259
 20
1168.822991
 42
0.022754
  0
VERTEX
  8
0
 10
1918.255274
 20
1158.394338
 42
0.011227
  0
VERTEX
  8
0
 10
1918.576000
 20
1152.569871
 42
0.007001
  0
VERTEX
  8
0
 10
1919.200454
 20
1145.761634
 42
0.007020
  0
VERTEX
  8
0
 10
1920.007523
 20
1139.040449
 42
0.012253
  0
VERTEX
  8
0
 10
1920.890564
 20
1133.500000
 42
-0.000862
  0
VERTEX
  8
0
 10
1921.804285
 20
1128.502356
 42
-0.000816
  0
VERTEX
  8
0
 10
1922.717790
 20
1123.409375
 42
-0.000809
  0
VERTEX
  8
0
 10
1923.511641
 20
1118.899175
 42
-0.002864
  0
VERTEX
  8
0
 10
1924.000000
 20
1116.000000
 42
0.001557
  0
VERTEX
  8
0
 10
1924.476178
 20
1113.127302
 42
0.000462
  0
VERTEX
  8
0
 10
1925.222053
 20
1108.737500
 42
0.000463
  0
VERTEX
  8
0
 10
1926.069324
 20
1103.806220
 42
0.000500
  0
VERTEX
  8
0
 10
1926.904646
 20
1099.000000
 42
-0.000365
  0
VERTEX
  8
0
 10
1927.889698
 20
1093.341320
 42
-0.000146
  0
VERTEX
  8
0
 10
1929.230759
 20
1085.590625
 42
-0.000145
  0
VERTEX
  8
0
 10
1930.671701
 20
1077.233765
 42
-0.000182
  0
VERTEX
  8
0
 10
1932.000000
 20
1069.500000
 42
0.000182
  0
VERTEX
  8
0
 10
1933.328299
 20
1061.766235
 42
0.000145
  0
VERTEX
  8
0
 10
1934.769241
 20
1053.409375
 42
0.000146
  0
VERTEX
  8
0
 10
1936.110302
 20
1045.658680
 42
0.000365
  0
VERTEX
  8
0
 10
1937.095354
 20
1040.000000
 42
-0.000500
  0
VERTEX
  8
0
 10
1937.930676
 20
1035.193780
 42
-0.000463
  0
VERTEX
  8
0
 10
1938.777947
 20
1030.262500
 42
-0.000462
  0
VERTEX
  8
0
 10
1939.523822
 20
1025.872698
 42
-0.001557
  0
VERTEX
  8
0
 10
1940.000000
 20
1023.000000
 42
0.001681
  0
VERTEX
  8
0
 10
1940.481340
 20
1020.100613
 42
0.000476
  0
VERTEX
  8
0
 10
1941.250063
 20
1015.590625
 42
0.000479
  0
VERTEX
  8
0
 10
1942.128173
 20
1010.497644
 42
0.000507
  0
VERTEX
  8
0
 10
1943.000000
 20
1005.500000
 42
-0.000507
  0
VERTEX
  8
0
 10
1943.871827
 20
1000.502356
 42
-0.000479
  0
VERTEX
  8
0
 10
1944.749937
 20
995.409375
 42
-0.000476
  0
VERTEX
  8
0
 10
1945.518660
 20
990.899387
 42
-0.001681
  0
VERTEX
  8
0
 10
1946.000000
 20
988.000000
 42
0.001681
  0
VERTEX
  8
0
 10
1946.481340
 20
985.100613
 42
0.000476
  0
VERTEX
  8
0
 10
1947.250063
 20
980.590625
 42
0.000479
  0
VERTEX
  8
0
 10
1948.128173
 20
975.497644
 42
0.000507
  0
VERTEX
  8
0
 10
1949.000000
 20
970.500000
 42
-0.000507
  0
VERTEX
  8
0
 10
1949.871827
 20
965.502356
 42
-0.000479
  0
VERTEX
  8
0
 10
1950.749937
 20
960.409375
 42
-0.000476
  0
VERTEX
  8
0
 10
1951.518660
 20
955.899387
 42
-0.001681
  0
VERTEX
  8
0
 10
1952.000000
 20
953.000000
 42
0.001905
  0
VERTEX
  8
0
 10
1952.792577
 20
948.239059
 42
0.000641
  0
VERTEX
  8
0
 10
1953.983728
 20
941.302172
 42
0.000378
  0
VERTEX
  8
0
 10
1955.831959
 20
930.668690
 42
0.000079
  0
VERTEX
  8
0
 10
1959.094378
 20
912.000000
 42
-0.000504
  0
VERTEX
  8
0
 10
1959.930074
 20
907.193780
 42
-0.000467
  0
VERTEX
  8
0
 10
1960.777660
 20
902.262500
 42
-0.000465
  0
VERTEX
  8
0
 10
1961.523759
 20
897.872697
 42
-0.001568
  0
VERTEX
  8
0
 10
1962.000000
 20
895.000000
 42
0.001681
  0
VERTEX
  8
0
 10
1962.481340
 20
892.100613
 42
0.000476
  0
VERTEX
  8
0
 10
1963.250063
 20
887.590625
 42
0.000479
  0
VERTEX
  8
0
 10
1964.128173
 20
882.497644
 42
0.000507
  0
VERTEX
  8
0
 10
1965.000000
 20
877.500000
 42
-0.000507
  0
VERTEX
  8
0
 10
1965.871827
 20
872.502356
 42
-0.000479
  0
VERTEX
  8
0
 10
1966.749937
 20
867.409375
 42
-0.000476
  0
VERTEX
  8
0
 10
1967.518660
 20
862.899387
 42
-0.001681
  0
VERTEX
  8
0
 10
1968.000000
 20
860.000000
 42
0.001681
  0
VERTEX
  8
0
 10
1968.481340
 20
857.100613
 42
0.000476
  0
VERTEX
  8
0
 10
1969.250063
 20
852.590625
 42
0.000479
  0
VERTEX
  8
0
 10
1970.128173
 20
847.497644
 42
0.000507
  0
VERTEX
  8
0
 10
1971.000000
 20
842.500000
 42
-0.000507
  0
VERTEX
  8
0
 10
1971.871827
 20
837.502356
 42
-0.000479
  0
VERTEX
  8
0
 10
1972.749937
 20
832.409375
 42
-0.000476
  0
VERTEX
  8
0
 10
1973.518660
 20
827.899387
 42
-0.001681
  0
VERTEX
  8
0
 10
1974.000000
 20
825.000000
 42
0.001681
  0
VERTEX
  8
0
 10
1974.481340
 20
822.100613
 42
0.000476
  0
VERTEX
  8
0
 10
1975.250063
 20
817.590625
 42
0.000479
  0
VERTEX
  8
0
 10
1976.128173
 20
812.497644
 42
0.000507
  0
VERTEX
  8
0
 10
1977.000000
 20
807.500000
 42
-0.000507
  0
VERTEX
  8
0
 10
1977.871827
 20
802.502356
 42
-0.000479
  0
VERTEX
  8
0
 10
1978.749937
 20
797.409375
 42
-0.000476
  0
VERTEX
  8
0
 10
1979.518660
 20
792.899387
 42
-0.001681
  0
VERTEX
  8
0
 10
1980.000000
 20
790.000000
 42
0.001681
  0
VERTEX
  8
0
 10
1980.481340
 20
787.100613
 42
0.000476
  0
VERTEX
  8
0
 10
1981.250063
 20
782.590625
 42
0.000479
  0
VERTEX
  8
0
 10
1982.128173
 20
777.497644
 42
0.000507
  0
VERTEX
  8
0
 10
1983.000000
 20
772.500000
 42
-0.000507
  0
VERTEX
  8
0
 10
1983.871827
 20
767.502356
 42
-0.000479
  0
VERTEX
  8
0
 10
1984.749937
 20
762.409375
 42
-0.000476
  0
VERTEX
  8
0
 10
1985.518660
 20
757.899387
 42
-0.001681
  0
VERTEX
  8
0
 10
1986.000000
 20
755.000000
 42
0.001681
  0
VERTEX
  8
0
 10
1986.481340
 20
752.100613
 42
0.000476
  0
VERTEX
  8
0
 10
1987.250063
 20
747.590625
 42
0.000479
  0
VERTEX
  8
0
 10
1988.128173
 20
742.497644
 42
0.000507
  0
VERTEX
  8
0
 10
1989.000000
 20
737.500000
 42
-0.000507
  0
VERTEX
  8
0
 10
1989.871827
 20
732.502356
 42
-0.000479
  0
VERTEX
  8
0
 10
1990.749937
 20
727.409375
 42
-0.000476
  0
VERTEX
  8
0
 10
1991.518660
 20
722.899387
 42
-0.001681
  0
VERTEX
  8
0
 10
1992.000000
 20
720.000000
 42
0.001681
  0
VERTEX
  8
0
 10
1992.481340
 20
717.100613
 42
0.000476
  0
VERTEX
  8
0
 10
1993.250063
 20
712.590625
 42
0.000479
  0
VERTEX
  8
0
 10
1994.128173
 20
707.497644
 42
0.000507
  0
VERTEX
  8
0
 10
1995.000000
 20
702.500000
 42
-0.000507
  0
VERTEX
  8
0
 10
1995.871827
 20
697.502356
 42
-0.000479
  0
VERTEX
  8
0
 10
1996.749937
 20
692.409375
 42
-0.000476
  0
VERTEX
  8
0
 10
1997.518660
 20
687.899387
 42
-0.001681
  0
VERTEX
  8
0
 10
1998.000000
 20
685.000000
 42
0.001557
  0
VERTEX
  8
0
 10
1998.476178
 20
682.127302
 42
0.000462
  0
VERTEX
  8
0
 10
1999.222053
 20
677.737500
 42
0.000463
  0
VERTEX
  8
0
 10
2000.069324
 20
672.806220
 42
0.000500
  0
VERTEX
  8
0
 10
2000.904646
 20
668.000000
 42
-0.000391
  0
VERTEX
  8
0
 10
2003.764430
 20
651.566870
 42
-0.000416
  0
VERTEX
  8
0
 10
2006.539161
 20
635.468754
 42
-0.000257
  0
VERTEX
  8
0
 10
2008.958349
 20
621.319694
 42
-0.004564
  0
VERTEX
  8
0
 10
2009.694393
 20
616.750000
 42
-0.018871
  0
VERTEX
  8
0
 10
2009.888684
 20
615.035389
 42
-0.062060
  0
VERTEX
  8
0
 10
2009.833157
 20
613.899950
 42
-0.122396
  0
VERTEX
  8
0
 10
2009.544448
 20
613.247164
 42
-0.231720
  0
VERTEX
  8
0
 10
2009.039762
 20
613.000000
 42
-0.115194
  0
VERTEX
  8
0
 10
2007.663981
 20
613.321225
 42
-0.002649
  0
VERTEX
  8
0
 10
2001.633083
 20
616.339718
 42
-0.003433
  0
VERTEX
  8
0
 10
1992.353069
 20
621.126456
 42
-0.000565
  0
VERTEX
  8
0
 10
1974.500000
 20
630.516779
 42
0.000117
  0
VERTEX
  8
0
 10
1967.433168
 20
634.241856
 42
0.000065
  0
VERTEX
  8
0
 10
1958.791066
 20
638.793274
 42
0.000056
  0
VERTEX
  8
0
 10
1948.721763
 20
644.093219
 42
0.000038
  0
VERTEX
  8
0
 10
1937.250000
 20
650.128569
 42
-0.000266
  0
VERTEX
  8
0
 10
1932.933861
 20
652.401823
 42
-0.000180
  0
VERTEX
  8
0
 10
1928.014063
 20
654.998625
 42
-0.000181
  0
VERTEX
  8
0
 10
1923.260009
 20
657.512334
 42
-0.000361
  0
VERTEX
  8
0
 10
1919.500000
 20
659.505663
 42
0.000661
  0
VERTEX
  8
0
 10
1915.658624
 20
661.539178
 42
0.000299
  0
VERTEX
  8
0
 10
1910.618750
 20
664.194767
 42
0.000296
  0
VERTEX
  8
0
 10
1905.296314
 20
666.991158
 42
0.000405
  0
VERTEX
  8
0
 10
1900.500000
 20
669.502557
 42
-0.000421
  0
VERTEX
  8
0
 10
1895.703687
 20
672.014157
 42
-0.000308
  0
VERTEX
  8
0
 10
1890.381250
 20
674.811161
 42
-0.000311
  0
VERTEX
  8
0
 10
1885.341386
 20
677.467638
 42
-0.000688
  0
VERTEX
  8
0
 10
1881.500000
 20
679.502222
 42
0.000425
  0
VERTEX
  8
0
 10
1877.739975
 20
681.496248
 42
0.000213
  0
VERTEX
  8
0
 10
1872.985937
 20
684.009651
 42
0.000212
  0
VERTEX
  8
0
 10
1868.066134
 20
686.605348
 42
0.000313
  0
VERTEX
  8
0
 10
1863.750000
 20
688.876759
 42
-0.000052
  0
VERTEX
  8
0
 10
1859.328772
 20
691.200523
 42
-0.000031
  0
VERTEX
  8
0
 10
1854.073438
 20
693.963798
 42
-0.000031
  0
VERTEX
  8
0
 10
1848.841866
 20
696.715404
 42
-0.000054
  0
VERTEX
  8
0
 10
1844.500000
 20
699.000000
 42
0.000028
  0
VERTEX
  8
0
 10
1840.192567
 20
701.266760
 42
0.000017
  0
VERTEX
  8
0
 10
1835.073438
 20
703.960080
 42
0.000017
  0
VERTEX
  8
0
 10
1829.978042
 20
706.640474
 42
0.000029
  0
VERTEX
  8
0
 10
1825.750000
 20
708.864103
 42
-0.000233
  0
VERTEX
  8
0
 10
1821.591163
 20
711.053493
 42
-0.000145
  0
VERTEX
  8
0
 10
1816.720313
 20
713.622417
 42
-0.000146
  0
VERTEX
  8
0
 10
1811.920739
 20
716.157317
 42
-0.000265
  0
VERTEX
  8
0
 10
1808.000000
 20
718.232177
 42
0.000241
  0
VERTEX
  8
0
 10
1804.045570
 20
720.325105
 42
0.000127
  0
VERTEX
  8
0
 10
1799.132812
 20
722.920610
 42
0.000126
  0
VERTEX
  8
0
 10
1794.101450
 20
725.575515
 42
0.000195
  0
VERTEX
  8
0
 10
1789.750000
 20
727.868074
 42
0.000002
  0
VERTEX
  8
0
 10
1785.328763
 20
730.195174
 42
0.000001
  0
VERTEX
  8
0
 10
1780.073437
 20
732.961247
 42
0.000001
  0
VERTEX
  8
0
 10
1774.841855
 20
735.714788
 42
0.000002
  0
VERTEX
  8
0
 10
1770.500000
 20
738.000000
 42
0.000000
  0
VERTEX
  8
0
 10
1766.175318
 20
740.276148
 42
0.023952
  0
VERTEX
  8
0
 10
1761.000000
 20
743.000000
 42
-0.000000
  0
VERTEX
  8
0
 10
1755.824682
 20
745.723852
 42
-0.000000
  0
VERTEX
  8
0
 10
1751.500000
 20
748.000000
 42
0.000000
  0
VERTEX
  8
0
 10
1747.175318
 20
750.276148
 42
0.000000
  0
VERTEX
  8
0
 10
1742.000000
 20
753.000000
 42
-0.028571
  0
VERTEX
  8
0
 10
1736.824682
 20
755.723852
 42
-0.000000
  0
VERTEX
  8
0
 10
1732.500000
 20
758.000000
 42
0.000019
  0
VERTEX
  8
0
 10
1728.158140
 20
760.284974
 42
0.000011
  0
VERTEX
  8
0
 10
1722.926563
 20
763.037767
 42
0.000011
  0
VERTEX
  8
0
 10
1717.671233
 20
765.802758
 42
0.000019
  0
VERTEX
  8
0
 10
1713.250000
 20
768.128569
 42
-0.000266
  0
VERTEX
  8
0
 10
1708.933861
 20
770.401823
 42
-0.000180
  0
VERTEX
  8
0
 10
1704.014063
 20
772.998625
 42
-0.000181
  0
VERTEX
  8
0
 10
1699.260009
 20
775.512334
 42
-0.000361
  0
VERTEX
  8
0
 10
1695.500000
 20
777.505663
 42
0.000661
  0
VERTEX
  8
0
 10
1691.658624
 20
779.539178
 42
0.000299
  0
VERTEX
  8
0
 10
1686.618750
 20
782.194767
 42
0.000296
  0
VERTEX
  8
0
 10
1681.296314
 20
784.991158
 42
0.000405
  0
VERTEX
  8
0
 10
1676.500000
 20
787.502557
 42
-0.000421
  0
VERTEX
  8
0
 10
1671.703687
 20
790.014157
 42
-0.000308
  0
VERTEX
  8
0
 10
1666.381250
 20
792.811161
 42
-0.000311
  0
VERTEX
  8
0
 10
1661.341386
 20
795.467638
 42
-0.000688
  0
VERTEX
  8
0
 10
1657.500000
 20
797.502222
 42
0.000425
  0
VERTEX
  8
0
 10
1653.739975
 20
799.496248
 42
0.000213
  0
VERTEX
  8
0
 10
1648.985937
 20
802.009651
 42
0.000212
  0
VERTEX
  8
0
 10
1644.066134
 20
804.605348
 42
0.000313
  0
VERTEX
  8
0
 10
1639.750000
 20
806.876759
 42
-0.000000
  0
VERTEX
  8
0
 10
1635.311511
 20
809.209010
 42
0.021164
  0
VERTEX
  8
0
 10
1630.000000
 20
812.000000
 42
-0.000000
  0
VERTEX
  8
0
 10
1624.688489
 20
814.790990
 42
0.013072
  0
VERTEX
  8
0
 10
1620.250000
 20
817.123241
 42
-0.000340
  0
VERTEX
  8
0
 10
1615.933868
 20
819.394950
 42
-0.000230
  0
VERTEX
  8
0
 10
1611.014063
 20
821.991562
 42
-0.000232
  0
VERTEX
  8
0
 10
1606.260035
 20
824.506293
 42
-0.000462
  0
VERTEX
  8
0
 10
1602.500000
 20
826.501910
 42
0.000504
  0
VERTEX
  8
0
 10
1598.595585
 20
828.573731
 42
0.000210
  0
VERTEX
  8
0
 10
1593.325000
 20
831.360846
 42
0.000208
  0
VERTEX
  8
0
 10
1587.679964
 20
834.339933
 42
0.000269
  0
VERTEX
  8
0
 10
1582.500000
 20
837.067264
 42
-0.000252
  0
VERTEX
  8
0
 10
1577.176933
 20
839.869704
 42
-0.000169
  0
VERTEX
  8
0
 10
1571.087500
 20
843.082160
 42
-0.000170
  0
VERTEX
  8
0
 10
1565.187591
 20
846.199737
 42
-0.000334
  0
VERTEX
  8
0
 10
1560.500000
 20
848.682757
 42
0.004040
  0
VERTEX
  8
0
 10
1544.542141
 20
856.984784
 42
0.007929
  0
VERTEX
  8
0
 10
1531.688998
 20
863.285394
 42
0.009346
  0
VERTEX
  8
0
 10
1521.619811
 20
867.796842
 42
0.033952
  0
VERTEX
  8
0
 10
1515.000000
 20
870.098788
 42
0.022166
  0
VERTEX
  8
0
 10
1510.865000
 20
871.034113
 42
0.013955
  0
VERTEX
  8
0
 10
1505.967550
 20
871.775397
 42
0.012209
  0
VERTEX
  8
0
 10
1500.308184
 20
872.331206
 42
0.008290
  0
VERTEX
  8
0
 10
1493.843888
 20
872.699431
 42
0.037034
  0
VERTEX
  8
0
 10
1477.767293
 20
872.157263
 42
0.056884
  0
VERTEX
  8
0
 10
1464.193197
 20
869.102001
 42
0.032791
  0
VERTEX
  8
0
 10
1447.117900
 20
861.870681
 42
0.005189
  0
VERTEX
  8
0
 10
1414.750000
 20
845.161934
 42
-0.000188
  0
VERTEX
  8
0
 10
1410.328731
 20
842.823310
 42
-0.000112
  0
VERTEX
  8
0
 10
1405.073437
 20
840.047568
 42
-0.000113
  0
VERTEX
  8
0
 10
1399.841817
 20
837.287340
 42
-0.000196
  0
VERTEX
  8
0
 10
1395.500000
 20
835.000000
 42
-0.000003
  0
VERTEX
  8
0
 10
1391.192571
 20
832.732965
 42
-0.000002
  0
VERTEX
  8
0
 10
1386.073438
 20
830.038784
 42
-0.000002
  0
VERTEX
  8
0
 10
1380.978047
 20
827.357146
 42
-0.000003
  0
VERTEX
  8
0
 10
1376.750000
 20
825.132031
 42
-0.000253
  0
VERTEX
  8
0
 10
1368.604155
 20
820.850401
 42
-0.000149
  0
VERTEX
  8
0
 10
1358.871038
 20
815.744449
 42
-0.000132
  0
VERTEX
  8
0
 10
1347.726304
 20
809.905961
 42
-0.000094
  0
VERTEX
  8
0
 10
1335.250000
 20
803.377094
 42
0.000408
  0
VERTEX
  8
0
 10
1330.549658
 20
800.913641
 42
0.000294
  0
VERTEX
  8
0
 10
1325.307813
 20
798.157000
 42
0.000297
  0
VERTEX
  8
0
 10
1320.325326
 20
795.529235
 42
0.000643
  0
VERTEX
  8
0
 10
1316.500000
 20
793.502557
 42
-0.000625
  0
VERTEX
  8
0
 10
1312.674680
 20
791.475704
 42
-0.000288
  0
VERTEX
  8
0
 10
1307.692187
 20
788.847364
 42
-0.000286
  0
VERTEX
  8
0
 10
1302.450343
 20
786.089897
 42
-0.000396
  0
VERTEX
  8
0
 10
1297.750000
 20
783.625464
 42
0.000050
  0
VERTEX
  8
0
 10
1282.757465
 20
775.777966
 42
0.000130
  0
VERTEX
  8
0
 10
1271.957082
 20
770.119781
 42
0.000177
  0
VERTEX
  8
0
 10
1263.528392
 20
765.697485
 42
0.000274
  0
VERTEX
  8
0
 10
1256.250000
 20
761.870337
 42
0.004902
  0
VERTEX
  8
0
 10
1252.039126
 20
759.653215
 42
0.000000
  0
VERTEX
  8
0
 10
1247.000000
 20
757.000000
 42
-0.000000
  0
VERTEX
  8
0
 10
1241.960874
 20
754.346785
 42
-0.000000
  0
VERTEX
  8
0
 10
1237.750000
 20
752.129663
 42
-0.000251
  0
VERTEX
  8
0
 10
1233.420641
 20
749.852928
 42
-0.000128
  0
VERTEX
  8
0
 10
1227.985937
 20
747.000170
 42
-0.000127
  0
VERTEX
  8
0
 10
1222.385377
 20
744.064004
 42
-0.000192
  0
VERTEX
  8
0
 10
1217.500000
 20
741.506757
 42
0.000405
  0
VERTEX
  8
0
 10
1212.703686
 20
738.993523
 42
0.000296
  0
VERTEX
  8
0
 10
1207.381250
 20
736.195088
 42
0.000299
  0
VERTEX
  8
0
 10
1202.341377
 20
733.537559
 42
0.000661
  0
VERTEX
  8
0
 10
1198.500000
 20
731.502557
 42
-0.000625
  0
VERTEX
  8
0
 10
1194.674680
 20
729.475704
 42
-0.000288
  0
VERTEX
  8
0
 10
1189.692187
 20
726.847364
 42
-0.000286
  0
VERTEX
  8
0
 10
1184.450343
 20
724.089897
 42
-0.000396
  0
VERTEX
  8
0
 10
1179.750000
 20
721.625464
 42
0.000031
  0
VERTEX
  8
0
 10
1174.873536
 20
719.073230
 42
0.000019
  0
VERTEX
  8
0
 10
1169.073438
 20
716.036855
 42
0.000019
  0
VERTEX
  8
0
 10
1163.297096
 20
713.012372
 42
0.000032
  0
VERTEX
  8
0
 10
1158.500000
 20
710.500000
 42
-0.000047
  0
VERTEX
  8
0
 10
1153.702901
 20
707.987810
 42
-0.000027
  0
VERTEX
  8
0
 10
1147.926562
 20
704.963896
 42
-0.000027
  0
VERTEX
  8
0
 10
1142.126461
 20
701.928345
 42
-0.000045
  0
VERTEX
  8
0
 10
1137.250000
 20
699.377094
 42
0.000408
  0
VERTEX
  8
0
 10
1132.549658
 20
696.913641
 42
0.000294
  0
VERTEX
  8
0
 10
1127.307813
 20
694.157000
 42
0.000297
  0
VERTEX
  8
0
 10
1122.325326
 20
691.529235
 42
0.000643
  0
VERTEX
  8
0
 10
1118.500000
 20
689.502557
 42
-0.000625
  0
VERTEX
  8
0
 10
1114.658636
 20
687.467200
 42
-0.000282
  0
VERTEX
  8
0
 10
1109.618750
 20
684.808501
 42
-0.000280
  0
VERTEX
  8
0
 10
1104.296316
 20
682.008389
 42
-0.000382
  0
VERTEX
  8
0
 10
1099.500000
 20
679.493166
 42
0.000025
  0
VERTEX
  8
0
 10
1081.993466
 20
670.328543
 42
0.000123
  0
VERTEX
  8
0
 10
1072.075299
 20
665.132655
 42
0.000210
  0
VERTEX
  8
0
 10
1064.971367
 20
661.405046
 42
0.000247
  0
VERTEX
  8
0
 10
1058.250000
 20
657.870337
 42
-0.000011
  0
VERTEX
  8
0
 10
1054.004861
 20
655.635294
 42
-0.000006
  0
VERTEX
  8
0
 10
1048.853125
 20
652.923158
 42
-0.000006
  0
VERTEX
  8
0
 10
1043.653906
 20
650.186190
 42
-0.000010
  0
VERTEX
  8
0
 10
1039.250000
 20
647.868074
 42
0.000241
  0
VERTEX
  8
0
 10
1031.290663
 20
643.673756
 42
0.000228
  0
VERTEX
  8
0
 10
1023.184937
 20
639.392561
 42
0.000216
  0
VERTEX
  8
0
 10
1014.675682
 20
634.888548
 42
0.000173
  0
VERTEX
  8
0
 10
1005.500000
 20
630.022648
 42
-0.000316
  0
VERTEX
  8
0
 10
1001.690926
 20
628.004084
 42
-0.000149
  0
VERTEX
  8
0
 10
996.765625
 20
625.399859
 42
-0.000147
  0
VERTEX
  8
0
 10
991.604358
 20
622.674778
 42
-0.000208
  0
VERTEX
  8
0
 10
987.000000
 20
620.247916
 42
0.002491
  0
VERTEX
  8
0
 10
982.908111
 20
618.067229
 42
0.003572
  0
VERTEX
  8
0
 10
979.305313
 20
616.090727
 42
0.001942
  0
VERTEX
  8
0
 10
976.279435
 20
614.387046
 42
0.054752
  0
VERTEX
  8
0
 10
975.550000
 20
613.859576
 42
-0.118945
  0
VERTEX
  8
0
 10
974.435119
 20
613.252405
 42
-0.059526
  0
VERTEX
  8
0
 10
972.836716
 20
613.022255
 42
-0.067598
  0
VERTEX
  8
0
 10
971.448170
 20
613.176876
 42
-0.344965
  0
VERTEX
  8
0
 10
971.002866
 20
613.750000
 42
-0.040327
  0
VERTEX
  8
0
 10
971.094387
 20
614.831399
 42
-0.000320
  0
VERTEX
  8
0
 10
972.524164
 20
623.382003
 42
-0.000816
  0
VERTEX
  8
0
 10
974.559480
 20
635.386113
 42
-0.000191
  0
VERTEX
  8
0
 10
978.011526
 20
655.500000
 42
0.000259
  0
VERTEX
  8
0
 10
979.262454
 20
662.794662
 42
0.000289
  0
VERTEX
  8
0
 10
980.460662
 20
669.828125
 42
0.000266
  0
VERTEX
  8
0
 10
981.475180
 20
675.823499
 42
0.001529
  0
VERTEX
  8
0
 10
982.000973
 20
679.000000
 42
-0.001704
  0
VERTEX
  8
0
 10
982.481936
 20
681.899384
 42
-0.000482
  0
VERTEX
  8
0
 10
983.250349
 20
686.409375
 42
-0.000486
  0
VERTEX
  8
0
 10
984.128245
 20
691.502356
 42
-0.000514
  0
VERTEX
  8
0
 10
985.000000
 20
696.500000
 42
0.000507
  0
VERTEX
  8
0
 10
985.871827
 20
701.497644
 42
0.000479
  0
VERTEX
  8
0
 10
986.749937
 20
706.590625
 42
0.000476
  0
VERTEX
  8
0
 10
987.518660
 20
711.100613
 42
0.001681
  0
VERTEX
  8
0
 10
988.000000
 20
714.000000
 42
-0.001681
  0
VERTEX
  8
0
 10
988.481340
 20
716.899387
 42
-0.000476
  0
VERTEX
  8
0
 10
989.250063
 20
721.409375
 42
-0.000479
  0
VERTEX
  8
0
 10
990.128173
 20
726.502356
 42
-0.000507
  0
VERTEX
  8
0
 10
991.000000
 20
731.500000
 42
0.000514
  0
VERTEX
  8
0
 10
991.871755
 20
736.497644
 42
0.000486
  0
VERTEX
  8
0
 10
992.749651
 20
741.590625
 42
0.000482
  0
VERTEX
  8
0
 10
993.518064
 20
746.100616
 42
0.001704
  0
VERTEX
  8
0
 10
993.999027
 20
749.000000
 42
-0.001529
  0
VERTEX
  8
0
 10
994.521464
 20
752.156226
 42
-0.000276
  0
VERTEX
  8
0
 10
995.514675
 20
758.025000
 42
-0.000297
  0
VERTEX
  8
0
 10
996.685734
 20
764.896779
 42
-0.000269
  0
VERTEX
  8
0
 10
997.904514
 20
772.000000
 42
0.000037
  0
VERTEX
  8
0
 10
1002.900965
 20
801.039004
 42
0.000214
  0
VERTEX
  8
0
 10
1005.518179
 20
816.295885
 42
0.000360
  0
VERTEX
  8
0
 10
1007.125945
 20
825.733326
 42
0.001825
  0
VERTEX
  8
0
 10
1007.999516
 20
831.000000
 42
-0.001926
  0
VERTEX
  8
0
 10
1009.376785
 20
839.293002
 42
-0.000164
  0
VERTEX
  8
0
 10
1012.999642
 20
860.557059
 42
-0.000232
  0
VERTEX
  8
0
 10
1016.652343
 20
881.894249
 42
-0.000758
  0
VERTEX
  8
0
 10
1019.095840
 20
896.000000
 42
0.000506
  0
VERTEX
  8
0
 10
1019.930904
 20
900.806220
 42
0.000469
  0
VERTEX
  8
0
 10
1020.777804
 20
905.737500
 42
0.000467
  0
VERTEX
  8
0
 10
1021.523257
 20
910.127304
 42
0.001574
  0
VERTEX
  8
0
 10
1021.999027
 20
913.000000
 42
-0.001631
  0
VERTEX
  8
0
 10
1022.525478
 20
916.176468
 42
-0.000283
  0
VERTEX
  8
0
 10
1023.542724
 20
922.171875
 42
-0.000308
  0
VERTEX
  8
0
 10
1024.744659
 20
929.205337
 42
-0.000276
  0
VERTEX
  8
0
 10
1026.000000
 20
936.500000
 42
0.000276
  0
VERTEX
  8
0
 10
1027.255341
 20
943.794663
 42
0.000308
  0
VERTEX
  8
0
 10
1028.457276
 20
950.828125
 42
0.000283
  0
VERTEX
  8
0
 10
1029.474522
 20
956.823532
 42
0.001631
  0
VERTEX
  8
0
 10
1030.000973
 20
960.000000
 42
-0.001704
  0
VERTEX
  8
0
 10
1030.481936
 20
962.899384
 42
-0.000482
  0
VERTEX
  8
0
 10
1031.250349
 20
967.409375
 42
-0.000486
  0
VERTEX
  8
0
 10
1032.128245
 20
972.502356
 42
-0.000514
  0
VERTEX
  8
0
 10
1033.000000
 20
977.500000
 42
0.000514
  0
VERTEX
  8
0
 10
1033.871755
 20
982.497644
 42
0.000486
  0
VERTEX
  8
0
 10
1034.749651
 20
987.590625
 42
0.000482
  0
VERTEX
  8
0
 10
1035.518064
 20
992.100616
 42
0.001704
  0
VERTEX
  8
0
 10
1035.999027
 20
995.000000
 42
-0.001631
  0
VERTEX
  8
0
 10
1036.525478
 20
998.176468
 42
-0.000283
  0
VERTEX
  8
0
 10
1037.542724
 20
1004.171875
 42
-0.000308
  0
VERTEX
  8
0
 10
1038.744659
 20
1011.205337
 42
-0.000276
  0
VERTEX
  8
0
 10
1040.000000
 20
1018.500000
 42
0.000276
  0
VERTEX
  8
0
 10
1041.255341
 20
1025.794663
 42
0.000308
  0
VERTEX
  8
0
 10
1042.457276
 20
1032.828125
 42
0.000283
  0
VERTEX
  8
0
 10
1043.474522
 20
1038.823532
 42
0.001631
  0
VERTEX
  8
0
 10
1044.000973
 20
1042.000000
 42
-0.001704
  0
VERTEX
  8
0
 10
1044.481936
 20
1044.899384
 42
-0.000482
  0
VERTEX
  8
0
 10
1045.250349
 20
1049.409375
 42
-0.000486
  0
VERTEX
  8
0
 10
1046.128245
 20
1054.502356
 42
-0.000514
  0
VERTEX
  8
0
 10
1047.000000
 20
1059.500000
 42
0.000514
  0
VERTEX
  8
0
 10
1047.871755
 20
1064.497644
 42
0.000486
  0
VERTEX
  8
0
 10
1048.749651
 20
1069.590625
 42
0.000482
  0
VERTEX
  8
0
 10
1049.518064
 20
1074.100616
 42
0.001704
  0
VERTEX
  8
0
 10
1049.999027
 20
1077.000000
 42
-0.001631
  0
VERTEX
  8
0
 10
1050.525478
 20
1080.176468
 42
-0.000283
  0
VERTEX
  8
0
 10
1051.542724
 20
1086.171875
 42
-0.000308
  0
VERTEX
  8
0
 10
1052.744659
 20
1093.205337
 42
-0.000276
  0
VERTEX
  8
0
 10
1054.000000
 20
1100.500000
 42
0.000261
  0
VERTEX
  8
0
 10
1055.255559
 20
1107.794662
 42
0.000292
  0
VERTEX
  8
0
 10
1056.458151
 20
1114.828125
 42
0.000268
  0
VERTEX
  8
0
 10
1057.476339
 20
1120.823506
 42
0.001545
  0
VERTEX
  8
0
 10
1058.003955
 20
1124.000000
 42
-0.001162
  0
VERTEX
  8
0
 10
1058.423498
 20
1126.537862
 42
-0.000636
  0
VERTEX
  8
0
 10
1058.948949
 20
1129.646875
 42
-0.000634
  0
VERTEX
  8
0
 10
1059.490652
 20
1132.803268
 42
-0.001010
  0
VERTEX
  8
0
 10
1059.962600
 20
1135.500000
 42
0.003904
  0
VERTEX
  8
0
 10
1060.472508
 20
1138.516319
 42
0.001413
  0
VERTEX
  8
0
 10
1061.150966
 20
1142.806779
 42
0.001401
  0
VERTEX
  8
0
 10
1061.867347
 20
1147.508454
 42
0.001668
  0
VERTEX
  8
0
 10
1062.516017
 20
1151.948608
 42
0.051255
  0
VERTEX
  8
0
 10
1063.169073
 20
1168.553527
 42
0.048112
  0
VERTEX
  8
0
 10
1060.477013
 20
1185.313753
 42
0.048049
  0
VERTEX
  8
0
 10
1054.625950
 20
1201.271660
 42
0.050819
  0
VERTEX
  8
0
 10
1045.921845
 20
1215.500000
 42
0.031969
  0
VERTEX
  8
0
 10
1041.113197
 20
1221.044115
 42
0.001688
  0
VERTEX
  8
0
 10
1024.590031
 20
1237.687691
 42
0.002271
  0
VERTEX
  8
0
 10
1002.580172
 20
1259.509646
 42
0.000974
  0
VERTEX
  8
0
 10
973.000000
 20
1288.459029
 42
-0.000036
  0
VERTEX
  8
0
 10
945.207215
 20
1315.557255
 42
-0.000090
  0
VERTEX
  8
0
 10
924.873621
 20
1335.392689
 42
-0.000118
  0
VERTEX
  8
0
 10
908.367620
 20
1351.507690
 42
-0.000146
  0
VERTEX
  8
0
 10
892.989736
 20
1366.537132
 42
0.000323
  0
VERTEX
  8
0
 10
882.470179
 20
1376.811045
 42
0.000105
  0
VERTEX
  8
0
 10
866.915735
 20
1391.976301
 42
0.000105
  0
VERTEX
  8
0
 10
849.625418
 20
1408.819867
 42
0.000118
  0
VERTEX
  8
0
 10
833.000000
 20
1425.001307
 42
-0.000097
  0
VERTEX
  8
0
 10
816.483715
 20
1441.075164
 42
-0.000089
  0
VERTEX
  8
0
 10
799.521875
 20
1457.594910
 42
-0.000089
  0
VERTEX
  8
0
 10
784.413397
 20
1472.320083
 42
-0.000296
  0
VERTEX
  8
0
 10
774.500000
 20
1481.996877
 42
0.000110
  0
VERTEX
  8
0
 10
765.714326
 20
1490.579260
 42
0.000060
  0
VERTEX
  8
0
 10
754.913336
 20
1501.123168
 42
0.000059
  0
VERTEX
  8
0
 10
743.922675
 20
1511.847116
 42
0.000094
  0
VERTEX
  8
0
 10
734.502845
 20
1521.032702
 42
-0.000065
  0
VERTEX
  8
0
 10
725.013106
 20
1530.285389
 42
-0.000040
  0
VERTEX
  8
0
 10
713.797768
 20
1541.225172
 42
-0.000040
  0
VERTEX
  8
0
 10
702.676951
 20
1552.076210
 42
-0.000070
  0
VERTEX
  8
0
 10
693.502845
 20
1561.031713
 42
0.000120
  0
VERTEX
  8
0
 10
684.983362
 20
1569.346531
 42
0.000100
  0
VERTEX
  8
0
 10
675.924273
 20
1578.180196
 42
0.000101
  0
VERTEX
  8
0
 10
667.628445
 20
1586.263079
 42
0.000275
  0
VERTEX
  8
0
 10
661.750000
 20
1591.982015
 42
-0.002492
  0
VERTEX
  8
0
 10
657.245561
 20
1596.403268
 42
-0.003997
  0
VERTEX
  8
0
 10
653.451563
 20
1600.225121
 42
-0.000893
  0
VERTEX
  8
0
 10
650.165521
 20
1603.600671
 42
-0.194959
  0
VERTEX
  8
0
 10
650.000000
 20
1604.009037
 42
-0.353285
  0
VERTEX
  8
0
 10
650.221752
 20
1604.283709
 42
-0.003941
  0
VERTEX
  8
0
 10
652.717187
 20
1604.801311
 42
-0.009941
  0
VERTEX
  8
0
 10
655.703508
 20
1605.334727
 42
-0.006056
  0
VERTEX
  8
0
 10
659.250000
 20
1605.851745
 42
0.000230
  0
VERTEX
  8
0
 10
671.003099
 20
1607.425534
 42
0.000743
  0
VERTEX
  8
0
 10
678.815258
 20
1608.487104
 42
0.001099
  0
VERTEX
  8
0
 10
684.605073
 20
1609.295596
 42
0.001805
  0
VERTEX
  8
0
 10
689.500000
 20
1610.008131
 42
-0.001922
  0
VERTEX
  8
0
 10
692.396917
 20
1610.429133
 42
-0.000845
  0
VERTEX
  8
0
 10
696.234375
 20
1610.965153
 42
-0.000836
  0
VERTEX
  8
0
 10
700.306817
 20
1611.520040
 42
-0.001122
  0
VERTEX
  8
0
 10
704.000000
 20
1612.008526
 42
0.000400
  0
VERTEX
  8
0
 10
707.729046
 20
1612.496276
 42
0.000284
  0
VERTEX
  8
0
 10
711.912500
 20
1613.049278
 42
0.000286
  0
VERTEX
  8
0
 10
715.907192
 20
1613.581959
 42
0.000607
  0
VERTEX
  8
0
 10
719.000000
 20
1614.000000
 42
-0.000607
  0
VERTEX
  8
0
 10
722.092808
 20
1614.418041
 42
-0.000286
  0
VERTEX
  8
0
 10
726.087500
 20
1614.950722
 42
-0.000284
  0
VERTEX
  8
0
 10
730.270954
 20
1615.503724
 42
-0.000400
  0
VERTEX
  8
0
 10
734.000000
 20
1615.991474
 42
0.001201
  0
VERTEX
  8
0
 10
737.693182
 20
1616.480552
 42
0.000895
  0
VERTEX
  8
0
 10
741.765625
 20
1617.037235
 42
0.000904
  0
VERTEX
  8
0
 10
745.603071
 20
1617.575871
 42
0.002056
  0
VERTEX
  8
0
 10
748.500000
 20
1618.000000
 42
-0.002056
  0
VERTEX
  8
0
 10
751.396929
 20
1618.424129
 42
-0.000904
  0
VERTEX
  8
0
 10
755.234375
 20
1618.962765
 42
-0.000895
  0
VERTEX
  8
0
 10
759.306818
 20
1619.519448
 42
-0.001201
  0
VERTEX
  8
0
 10
763.000000
 20
1620.008526
 42
0.000400
  0
VERTEX
  8
0
 10
766.729046
 20
1620.496276
 42
0.000284
  0
VERTEX
  8
0
 10
770.912500
 20
1621.049278
 42
0.000286
  0
VERTEX
  8
0
 10
774.907192
 20
1621.581959
 42
0.000607
  0
VERTEX
  8
0
 10
778.000000
 20
1622.000000
 42
-0.000607
  0
VERTEX
  8
0
 10
781.092808
 20
1622.418041
 42
-0.000286
  0
VERTEX
  8
0
 10
785.087500
 20
1622.950722
 42
-0.000284
  0
VERTEX
  8
0
 10
789.270954
 20
1623.503724
 42
-0.000400
  0
VERTEX
  8
0
 10
793.000000
 20
1623.991474
 42
0.001201
  0
VERTEX
  8
0
 10
796.693182
 20
1624.480552
 42
0.000895
  0
VERTEX
  8
0
 10
800.765625
 20
1625.037235
 42
0.000904
  0
VERTEX
  8
0
 10
804.603071
 20
1625.575871
 42
0.002056
  0
VERTEX
  8
0
 10
807.500000
 20
1626.000000
 42
-0.002056
  0
VERTEX
  8
0
 10
810.396929
 20
1626.424129
 42
-0.000904
  0
VERTEX
  8
0
 10
814.234375
 20
1626.962765
 42
-0.000895
  0
VERTEX
  8
0
 10
818.306818
 20
1627.519448
 42
-0.001201
  0
VERTEX
  8
0
 10
822.000000
 20
1628.008526
 42
0.000400
  0
VERTEX
  8
0
 10
825.729046
 20
1628.496276
 42
0.000284
  0
VERTEX
  8
0
 10
829.912500
 20
1629.049278
 42
0.000286
  0
VERTEX
  8
0
 10
833.907192
 20
1629.581959
 42
0.000607
  0
VERTEX
  8
0
 10
837.000000
 20
1630.000000
 42
-0.000607
  0
VERTEX
  8
0
 10
840.092808
 20
1630.418041
 42
-0.000286
  0
VERTEX
  8
0
 10
844.087500
 20
1630.950722
 42
-0.000284
  0
VERTEX
  8
0
 10
848.270954
 20
1631.503724
 42
-0.000400
  0
VERTEX
  8
0
 10
852.000000
 20
1631.991474
 42
0.001201
  0
VERTEX
  8
0
 10
855.693182
 20
1632.480552
 42
0.000895
  0
VERTEX
  8
0
 10
859.765625
 20
1633.037235
 42
0.000904
  0
VERTEX
  8
0
 10
863.603071
 20
1633.575871
 42
0.002056
  0
VERTEX
  8
0
 10
866.500000
 20
1634.000000
 42
-0.002056
  0
VERTEX
  8
0
 10
869.396929
 20
1634.424129
 42
-0.000904
  0
VERTEX
  8
0
 10
873.234375
 20
1634.962765
 42
-0.000895
  0
VERTEX
  8
0
 10
877.306818
 20
1635.519448
 42
-0.001201
  0
VERTEX
  8
0
 10
881.000000
 20
1636.008526
 42
0.000400
  0
VERTEX
  8
0
 10
884.729046
 20
1636.496276
 42
0.000284
  0
VERTEX
  8
0
 10
888.912500
 20
1637.049278
 42
0.000286
  0
VERTEX
  8
0
 10
892.907192
 20
1637.581959
 42
0.000607
  0
VERTEX
  8
0
 10
896.000000
 20
1638.000000
 42
-0.000607
  0
VERTEX
  8
0
 10
899.092808
 20
1638.418041
 42
-0.000286
  0
VERTEX
  8
0
 10
903.087500
 20
1638.950722
 42
-0.000284
  0
VERTEX
  8
0
 10
907.270954
 20
1639.503724
 42
-0.000400
  0
VERTEX
  8
0
 10
911.000000
 20
1639.991474
 42
0.001201
  0
VERTEX
  8
0
 10
914.693182
 20
1640.480552
 42
0.000895
  0
VERTEX
  8
0
 10
918.765625
 20
1641.037235
 42
0.000904
  0
VERTEX
  8
0
 10
922.603071
 20
1641.575871
 42
0.002056
  0
VERTEX
  8
0
 10
925.500000
 20
1642.000000
 42
-0.002056
  0
VERTEX
  8
0
 10
928.396929
 20
1642.424129
 42
-0.000904
  0
VERTEX
  8
0
 10
932.234375
 20
1642.962765
 42
-0.000895
  0
VERTEX
  8
0
 10
936.306818
 20
1643.519448
 42
-0.001201
  0
VERTEX
  8
0
 10
940.000000
 20
1644.008526
 42
0.000400
  0
VERTEX
  8
0
 10
943.729046
 20
1644.496276
 42
0.000284
  0
VERTEX
  8
0
 10
947.912500
 20
1645.049278
 42
0.000286
  0
VERTEX
  8
0
 10
951.907192
 20
1645.581959
 42
0.000607
  0
VERTEX
  8
0
 10
955.000000
 20
1646.000000
 42
-0.000607
  0
VERTEX
  8
0
 10
958.092808
 20
1646.418041
 42
-0.000286
  0
VERTEX
  8
0
 10
962.087500
 20
1646.950722
 42
-0.000284
  0
VERTEX
  8
0
 10
966.270954
 20
1647.503724
 42
-0.000400
  0
VERTEX
  8
0
 10
970.000000
 20
1647.991474
 42
0.001201
  0
VERTEX
  8
0
 10
973.693182
 20
1648.480552
 42
0.000895
  0
VERTEX
  8
0
 10
977.765625
 20
1649.037235
 42
0.000904
  0
VERTEX
  8
0
 10
981.603071
 20
1649.575871
 42
0.002056
  0
VERTEX
  8
0
 10
984.500000
 20
1650.000000
 42
-0.002042
  0
VERTEX
  8
0
 10
987.396928
 20
1650.424212
 42
-0.000898
  0
VERTEX
  8
0
 10
991.234375
 20
1650.963116
 42
-0.000889
  0
VERTEX
  8
0
 10
995.306818
 20
1651.520185
 42
-0.001193
  0
VERTEX
  8
0
 10
999.000000
 20
1652.009721
 42
0.000592
  0
VERTEX
  8
0
 10
1002.729043
 20
1652.499450
 42
0.000419
  0
VERTEX
  8
0
 10
1006.912500
 20
1653.057466
 42
0.000423
  0
VERTEX
  8
0
 10
1010.907173
 20
1653.597154
 42
0.000897
  0
VERTEX
  8
0
 10
1014.000000
 20
1654.023322
 42
-0.000340
  0
VERTEX
  8
0
 10
1017.026903
 20
1654.443847
 42
-0.000178
  0
VERTEX
  8
0
 10
1020.793750
 20
1654.963197
 42
-0.000177
  0
VERTEX
  8
0
 10
1024.655425
 20
1655.492825
 42
-0.000272
  0
VERTEX
  8
0
 10
1028.000000
 20
1655.948474
 42
0.000213
  0
VERTEX
  8
0
 10
1033.354263
 20
1656.677276
 42
0.000194
  0
VERTEX
  8
0
 10
1038.885923
 20
1657.434812
 42
0.000129
  0
VERTEX
  8
0
 10
1046.115344
 20
1658.429605
 42
0.000036
  0
VERTEX
  8
0
 10
1057.500000
 20
1660.000000
 42
-0.000164
  0
VERTEX
  8
0
 10
1068.025740
 20
1661.449156
 42
-0.000500
  0
VERTEX
  8
0
 10
1075.175630
 20
1662.423853
 42
-0.000678
  0
VERTEX
  8
0
 10
1081.011440
 20
1663.205400
 42
-0.000629
  0
VERTEX
  8
0
 10
1087.000000
 20
1663.991474
 42
0.001201
  0
VERTEX
  8
0
 10
1090.693182
 20
1664.480552
 42
0.000895
  0
VERTEX
  8
0
 10
1094.765625
 20
1665.037235
 42
0.000904
  0
VERTEX
  8
0
 10
1098.603071
 20
1665.575871
 42
0.002056
  0
VERTEX
  8
0
 10
1101.500000
 20
1666.000000
 42
-0.002157
  0
VERTEX
  8
0
 10
1104.396936
 20
1666.423538
 42
-0.000949
  0
VERTEX
  8
0
 10
1108.234375
 20
1666.960260
 42
-0.000939
  0
VERTEX
  8
0
 10
1112.306818
 20
1667.514188
 42
-0.001260
  0
VERTEX
  8
0
 10
1116.000000
 20
1668.000000
 42
0.001260
  0
VERTEX
  8
0
 10
1119.693182
 20
1668.485812
 42
0.000939
  0
VERTEX
  8
0
 10
1123.765625
 20
1669.039740
 42
0.000949
  0
VERTEX
  8
0
 10
1127.603064
 20
1669.576462
 42
0.002157
  0
VERTEX
  8
0
 10
1130.500000
 20
1670.000000
 42
-0.002056
  0
VERTEX
  8
0
 10
1133.396929
 20
1670.424129
 42
-0.000904
  0
VERTEX
  8
0
 10
1137.234375
 20
1670.962765
 42
-0.000895
  0
VERTEX
  8
0
 10
1141.306818
 20
1671.519448
 42
-0.001201
  0
VERTEX
  8
0
 10
1145.000000
 20
1672.008526
 42
0.000408
  0
VERTEX
  8
0
 10
1148.729046
 20
1672.496340
 42
0.000290
  0
VERTEX
  8
0
 10
1152.912500
 20
1673.049537
 42
0.000292
  0
VERTEX
  8
0
 10
1156.907192
 20
1673.582503
 42
0.000620
  0
VERTEX
  8
0
 10
1160.000000
 20
1674.000883
 42
-0.000029
  0
VERTEX
  8
0
 10
1163.092771
 20
1674.422977
 42
-0.000014
  0
VERTEX
  8
0
 10
1167.087500
 20
1674.967817
 42
-0.000014
  0
VERTEX
  8
0
 10
1171.270948
 20
1675.538161
 42
-0.000019
  0
VERTEX
  8
0
 10
1175.000000
 20
1676.046305
 42
0.034871
  0
VERTEX
  8
0
 10
1196.973508
 20
1680.617497
 42
0.054733
  0
VERTEX
  8
0
 10
1214.840569
 20
1687.840504
 42
0.059135
  0
VERTEX
  8
0
 10
1229.722097
 20
1698.278420
 42
0.050020
  0
VERTEX
  8
0
 10
1242.704885
 20
1712.467195
 42
0.039838
  0
VERTEX
  8
0
 10
1247.033665
 20
1719.349460
 42
0.003196
  0
VERTEX
  8
0
 10
1256.855325
 20
1738.427532
 42
0.002456
  0
VERTEX
  8
0
 10
1272.380900
 20
1769.441716
 42
0.000397
  0
VERTEX
  8
0
 10
1302.265227
 20
1830.000000
 42
-0.000064
  0
VERTEX
  8
0
 10
1310.311066
 20
1846.331659
 42
-0.000035
  0
VERTEX
  8
0
 10
1320.121104
 20
1866.234375
 42
-0.000035
  0
VERTEX
  8
0
 10
1330.051639
 20
1886.374365
 42
-0.000057
  0
VERTEX
  8
0
 10
1338.499815
 20
1903.500000
 42
0.000024
  0
VERTEX
  8
0
 10
1346.932189
 20
1920.590759
 42
0.000015
  0
VERTEX
  8
0
 10
1356.811798
 20
1940.618750
 42
0.000015
  0
VERTEX
  8
0
 10
1366.549462
 20
1960.362005
 42
0.000028
  0
VERTEX
  8
0
 10
1374.507244
 20
1976.500000
 42
-0.000091
  0
VERTEX
  8
0
 10
1382.729129
 20
1993.168215
 42
-0.000043
  0
VERTEX
  8
0
 10
1393.372670
 20
2014.731250
 42
-0.000042
  0
VERTEX
  8
0
 10
1404.533145
 20
2037.331835
 42
-0.000060
  0
VERTEX
  8
0
 10
1414.497583
 20
2057.500000
 42
0.000040
  0
VERTEX
  8
0
 10
1424.462983
 20
2077.668159
 42
0.000029
  0
VERTEX
  8
0
 10
1435.626391
 20
2100.268750
 42
0.000029
  0
VERTEX
  8
0
 10
1446.274184
 20
2121.831748
 42
0.000062
  0
VERTEX
  8
0
 10
1454.501180
 20
2138.500000
 42
-0.000124
  0
VERTEX
  8
0
 10
1478.722060
 20
2187.557290
 42
-0.002800
  0
VERTEX
  8
0
 10
1485.782276
 20
2201.648977
 42
-0.003114
  0
VERTEX
  8
0
 10
1489.765007
 20
2209.368856
 42
-0.292361
  0
VERTEX
  8
0
 10
1490.809017
 20
2209.965796
 42
-0.270363
  0
VERTEX
  8
0
 10
1491.220576
 20
2209.697588
 42
-0.000006
  0
VERTEX
  8
0
 10
1527.026087
 20
2138.350125
 42
-0.000345
  0
VERTEX
  8
0
 10
1566.442299
 20
2059.670162
 42
-0.000207
  0
SEQEND
  0
ENDSEC
  0
EOF
