<?xml version="1.0" encoding="utf-8"?>
<!-- Generator: Adobe Illustrator 25.0.0, SVG Export Plug-In . SVG Version: 6.00 Build 0)  -->
<svg version="1.1" id="Layer_1" xmlns="http://www.w3.org/2000/svg" xmlns:xlink="http://www.w3.org/1999/xlink" x="0px" y="0px"
	 width="1368px" height="2309.162px" viewBox="0 0 1368 2309.162" style="enable-background:new 0 0 1368 2309.162;"
	 xml:space="preserve">
<style type="text/css">
	.st0{fill:none;stroke:#000000;stroke-width:0.871;stroke-miterlimit:10;}
	.st1{enable-background:new    ;}
	.st2{fill:none;stroke:#FF00FF;stroke-width:2;stroke-miterlimit:10;}
	.st3{fill:none;stroke:#000000;stroke-miterlimit:10;}
</style>
<path class="st0" d="M673.598,492.368v126.508h571.565V492.368H673.598z M1092.029,533.938H833.844v-15.12h258.185V533.938z"/>
<g class="st1">
	<path class="st2" d="M197.752,2115.623c-51.378-26.113-92.425-65.438-123.126-117.96c-30.714-52.521-46.064-116.95-46.064-193.299
		c0-64.28,11.624-122.399,34.872-174.356c23.248-51.944,57.392-93.125,102.461-123.556c45.056-30.418,99.448-45.634,163.163-45.634
		c32.719,0,61.994,7.614,87.824,22.817c25.831,15.216,44.477,34.588,55.966,58.119l17.221-68.021h130.875v274.666H486.623v-13.776
		c0-35.584-8.18-64.711-24.539-87.394c-16.359-22.669-40.616-34.01-72.756-34.01c-21.821,0-41.759,8.328-59.841,24.969
		c-18.082,16.655-32.288,38.464-42.621,65.438c-10.332,26.988-15.498,54.823-15.498,83.52c0,56.262,14.059,100.309,42.19,132.166
		c28.118,31.857,66.581,47.787,115.376,47.787c34.441,0,66.433-5.731,96.003-17.221c29.557-11.476,53.813-23.812,72.756-37.023
		l9.472,7.749v179.092c-35.598,20.664-73.187,35.02-112.794,43.051c-39.606,8.031-81.796,12.055-126.569,12.055
		C305.809,2154.8,249.117,2141.75,197.752,2115.623z"/>
</g>
<g>
	<path class="st3" d="M377.992,783.982c12.856,3.203,24.882,8.114,36.255,14.807c21.658,12.758,36.741,28.283,46.103,47.458
		l30.188,61.828l28.64-113.127V767.17h-18.963l-17.221,68.02c-11.489-23.53-30.135-42.903-55.966-58.119
		c-15.157-8.92-31.509-15.207-49.037-18.897v25.808H377.992z"/>
	<path class="st3" d="M631.09,1041.835V767.17h-25.2v25.2v23.978v200.287h-84.184c-1.688-35.833-11.435-66.307-29.035-90.71
		c-20.997-29.094-53.221-44.47-93.195-44.47c-28.229,0-54.104,10.641-76.906,31.627c-20.89,19.242-37.403,44.462-49.088,74.965
		c-11.391,29.753-17.166,60.885-17.166,92.534c0,62.322,16.318,112.401,48.5,148.846c32.976,37.361,78.15,56.308,134.266,56.308
		c37.428,0,72.799-6.369,105.13-18.932c17.606-6.836,33.618-14.068,47.901-21.628v133.115
		c-29.416,15.536-60.504,26.686-92.602,33.194c-37.802,7.665-78.702,11.552-121.562,11.552c-57.722,0-111.092-12.26-158.626-36.438
		c-46.768-23.771-84.715-60.178-112.795-108.216c-28.282-48.362-42.62-109.118-42.62-180.582c0-60.41,10.993-115.609,32.674-164.064
		c21.189-47.344,52.667-85.352,93.561-112.963c13.267-8.957,27.56-16.462,42.815-22.52v-26.982
		c-20.387,7.235-39.364,16.767-56.917,28.618C130.972,830.32,96.828,871.501,73.58,923.445
		c-23.248,51.957-34.872,110.076-34.872,174.356c0,76.349,15.351,140.777,46.064,193.299
		c30.701,52.522,71.748,91.847,123.126,117.96c51.365,26.127,108.058,39.177,170.051,39.177c44.773,0,86.963-4.023,126.569-12.055
		c39.607-8.031,77.196-22.387,112.794-43.051v-179.092l-9.472-7.749c-18.942,13.211-43.199,25.548-72.756,37.023
		c-29.57,11.489-61.562,17.221-96.003,17.221c-48.795,0-87.259-15.93-115.376-47.787c-28.131-31.857-42.19-75.904-42.19-132.166
		c0-28.696,5.166-56.531,15.498-83.519c10.333-26.974,24.539-48.782,42.621-65.438c18.082-16.642,38.02-24.969,59.841-24.969
		c32.14,0,56.397,11.341,72.756,34.01c16.359,22.683,24.539,51.81,24.539,87.393v13.776h134.32V1041.835z"/>
</g>
<g class="st1">
	<path class="st3" d="M832.38,2115.623c-51.378-26.113-92.425-65.438-123.126-117.96c-30.714-52.521-46.064-116.95-46.064-193.299
		c0-64.28,11.624-122.399,34.872-174.356c23.248-51.944,57.392-93.125,102.461-123.556c45.056-30.418,99.448-45.634,163.163-45.634
		c32.719,0,61.994,7.614,87.824,22.817c25.831,15.216,44.477,34.588,55.966,58.119l17.221-68.021h130.875v274.666h-134.319v-13.776
		c0-35.584-8.18-64.711-24.539-87.394c-16.359-22.669-40.616-34.01-72.756-34.01c-21.821,0-41.759,8.328-59.841,24.969
		c-18.082,16.655-32.288,38.464-42.621,65.438c-10.332,26.988-15.498,54.823-15.498,83.52c0,56.262,14.059,100.309,42.19,132.166
		c28.118,31.857,66.581,47.787,115.377,47.787c34.441,0,66.433-5.731,96.003-17.221c29.557-11.476,53.813-23.812,72.756-37.023
		l9.472,7.749v179.092c-35.598,20.664-73.187,35.02-112.794,43.051c-39.606,8.031-81.796,12.055-126.569,12.055
		C940.438,2154.8,883.745,2141.75,832.38,2115.623z"/>
	<path class="st3" d="M1002.432,2129.599c-57.722,0-111.092-12.26-158.626-36.438c-46.768-23.771-84.715-60.178-112.795-108.216
		c-28.282-48.362-42.62-109.118-42.62-180.582c0-60.41,10.993-115.609,32.674-164.064c21.189-47.344,52.667-85.352,93.561-112.963
		c40.61-27.417,90.762-41.319,149.061-41.319c28.39,0,52.937,6.325,75.042,19.335c21.658,12.758,36.741,28.283,46.103,47.458
		l30.188,61.828l29.293-115.705h86.06v224.265h-84.184c-1.688-35.833-11.435-66.307-29.035-90.71
		c-20.997-29.094-53.221-44.47-93.195-44.47c-28.229,0-54.104,10.641-76.906,31.627c-20.89,19.242-37.403,44.462-49.088,74.965
		c-11.391,29.753-17.166,60.885-17.166,92.534c0,62.322,16.318,112.401,48.5,148.846c32.976,37.361,78.15,56.308,134.266,56.308
		c37.428,0,72.799-6.369,105.13-18.932c17.606-6.836,33.618-14.068,47.901-21.628v133.115
		c-29.416,15.536-60.504,26.686-92.602,33.194C1086.191,2125.713,1045.291,2129.599,1002.432,2129.599z"/>
</g>
<path class="st3" d="M631.563,304.237V29.572H500.688l-17.221,68.021c-11.489-23.53-30.135-42.903-55.966-58.119
	c-25.831-15.203-55.105-22.817-87.824-22.817c-63.715,0-118.107,15.216-163.163,45.634
	c-45.069,30.432-79.213,71.612-102.461,123.556c-23.248,51.957-34.872,110.076-34.872,174.356
	c0,76.349,15.351,140.777,46.064,193.299c30.701,52.522,71.748,91.847,123.126,117.96c35.398,18.005,73.326,29.798,113.775,35.391
	c-0.004,0-0.008,0-0.012,0c-27.408,0.618-51.263,1.823-70.529,3.066c0,5.04,0,10.08,0,15.12H509.79v-15.12
	c-25.895-0.974-48.878-1.639-68.288-2.105c21.851-2.008,43.018-5.079,63.488-9.23c39.607-8.031,77.196-22.387,112.794-43.051
	V476.441l-9.472-7.749c-18.942,13.211-43.199,25.548-72.756,37.023c-29.57,11.489-61.562,17.221-96.003,17.221
	c-48.795,0-87.259-15.93-115.376-47.787c-28.131-31.857-42.19-75.904-42.19-132.166c0-28.696,5.166-56.531,15.498-83.52
	c10.333-26.974,24.539-48.782,42.621-65.438c18.082-16.642,38.02-24.969,59.841-24.969c32.14,0,56.397,11.341,72.756,34.01
	c16.359,22.683,24.539,51.81,24.539,87.394v13.776L631.563,304.237L631.563,304.237z"/>
<g>
	<path class="st3" d="M995.231,775.235c12.856,3.203,24.882,8.114,36.255,14.807c21.658,12.758,36.741,28.283,46.103,47.458
		l30.188,61.828l28.64-113.127v-27.778h-18.963l-17.221,68.02c-11.489-23.53-30.135-42.903-55.966-58.119
		c-15.157-8.92-31.509-15.207-49.037-18.897L995.231,775.235L995.231,775.235z"/>
	<path class="st3" d="M1248.33,1033.088V758.423h-25.2v25.2v23.978v200.287h-84.184c-1.688-35.833-11.435-66.307-29.035-90.71
		c-20.997-29.094-53.221-44.47-93.195-44.47c-28.229,0-54.104,10.641-76.906,31.627c-20.89,19.242-37.403,44.462-49.088,74.965
		c-11.391,29.753-17.166,60.885-17.166,92.534c0,62.322,16.318,112.401,48.5,148.846c32.976,37.361,78.15,56.308,134.266,56.308
		c37.428,0,72.799-6.369,105.13-18.932c17.606-6.836,33.618-14.068,47.901-21.628v133.115
		c-29.416,15.536-60.504,26.686-92.602,33.194c-37.802,7.665-78.702,11.552-121.562,11.552c-57.722,0-111.092-12.26-158.626-36.438
		c-46.768-23.771-84.715-60.178-112.795-108.216c-28.282-48.362-42.62-109.118-42.62-180.582c0-60.41,10.993-115.609,32.674-164.064
		c21.189-47.344,52.667-85.352,93.561-112.963c13.267-8.957,27.56-16.462,42.815-22.52v-26.982
		c-20.387,7.235-39.364,16.767-56.917,28.618c-45.069,30.432-79.213,71.612-102.461,123.556
		c-23.248,51.957-34.872,110.076-34.872,174.356c0,76.349,15.351,140.777,46.064,193.299
		c30.701,52.522,71.748,91.847,123.126,117.96c51.365,26.127,108.058,39.177,170.051,39.177c44.773,0,86.963-4.023,126.569-12.055
		c39.607-8.031,77.196-22.387,112.794-43.051v-179.092l-9.472-7.749c-18.942,13.211-43.199,25.548-72.756,37.023
		c-29.57,11.489-61.562,17.221-96.003,17.221c-48.795,0-87.259-15.93-115.376-47.787c-28.131-31.857-42.19-75.904-42.19-132.166
		c0-28.696,5.166-56.531,15.498-83.52c10.333-26.974,24.539-48.782,42.621-65.438c18.082-16.642,38.02-24.969,59.841-24.969
		c32.14,0,56.397,11.341,72.756,34.01c16.359,22.683,24.539,51.81,24.539,87.394v13.776h134.32L1248.33,1033.088L1248.33,1033.088z"
		/>
</g>
</svg>
