  0
SECTION
  2
HEADER
  9
$ACADVER
  1
AC1024
  9
$ACADMAINTVER
 70
     6
  9
$DWGCODEPAGE
  3
UNDEFINED
  9
$INSBASE
 10
0.0
 20
0.0
 30
0.0
  9
$EXTMIN
 10
1.000000000000000E+20
 20
1.000000000000000E+20
 30
1.000000000000000E+20
  9
$EXTMAX
 10
-1.000000000000000E+20
 20
-1.000000000000000E+20
 30
-1.000000000000000E+20
  9
$LIMMIN
 10
0.0
 20
0.0
  9
$LIMMAX
 10
12.0
 20
9.0
  9
$ORTHOMODE
 70
     0
  9
$REGENMODE
 70
     1
  9
$FILLMODE
 70
     1
  9
$QTEXTMODE
 70
     0
  9
$MIRRTEXT
 70
     1
  9
$LTSCALE
 40
1.0
  9
$ATTMODE
 70
     1
  9
$TEXTSIZE
 40
0.2
  9
$TRACEWID
 40
0.05
  9
$TEXTSTYLE
  7
Standard
  9
$CLAYER
  8
0
  9
$CELTYPE
  6
ByLayer
  9
$CECOLOR
 62
   256
  9
$CELTSCALE
 40
1.0
  9
$DISPSILH
 70
     0
  9
$DIMSCALE
 40
1.0
  9
$DIMASZ
 40
0.18
  9
$DIMEXO
 40
0.0625
  9
$DIMDLI
 40
0.38
  9
$DIMRND
 40
0.0
  9
$DIMDLE
 40
0.0
  9
$DIMEXE
 40
0.18
  9
$DIMTP
 40
0.0
  9
$DIMTM
 40
0.0
  9
$DIMTXT
 40
0.18
  9
$DIMCEN
 40
0.09
  9
$DIMTSZ
 40
0.0
  9
$DIMTOL
 70
     0
  9
$DIMLIM
 70
     0
  9
$DIMTIH
 70
     1
  9
$DIMTOH
 70
     1
  9
$DIMSE1
 70
     0
  9
$DIMSE2
 70
     0
  9
$DIMTAD
 70
     0
  9
$DIMZIN
 70
     0
  9
$DIMBLK
  1

  9
$DIMASO
 70
     1
  9
$DIMSHO
 70
     1
  9
$DIMPOST
  1

  9
$DIMAPOST
  1

  9
$DIMALT
 70
     0
  9
$DIMALTD
 70
     2
  9
$DIMALTF
 40
25.4
  9
$DIMLFAC
 40
1.0
  9
$DIMTOFL
 70
     0
  9
$DIMTVP
 40
0.0
  9
$DIMTIX
 70
     0
  9
$DIMSOXD
 70
     0
  9
$DIMSAH
 70
     0
  9
$DIMBLK1
  1

  9
$DIMBLK2
  1

  9
$DIMSTYLE
  2
Standard
  9
$DIMCLRD
 70
     0
  9
$DIMCLRE
 70
     0
  9
$DIMCLRT
 70
     0
  9
$DIMTFAC
 40
1.0
  9
$DIMGAP
 40
0.09
  9
$DIMJUST
 70
     0
  9
$DIMSD1
 70
     0
  9
$DIMSD2
 70
     0
  9
$DIMTOLJ
 70
     1
  9
$DIMTZIN
 70
     0
  9
$DIMALTZ
 70
     0
  9
$DIMALTTZ
 70
     0
  9
$DIMUPT
 70
     0
  9
$DIMDEC
 70
     4
  9
$DIMTDEC
 70
     4
  9
$DIMALTU
 70
     2
  9
$DIMALTTD
 70
     2
  9
$DIMTXSTY
  7
Standard
  9
$DIMAUNIT
 70
     0
  9
$DIMADEC
 70
     0
  9
$DIMALTRND
 40
0.0
  9
$DIMAZIN
 70
     0
  9
$DIMDSEP
 70
    46
  9
$DIMATFIT
 70
     3
  9
$DIMFRAC
 70
     0
  9
$DIMLDRBLK
  1

  9
$DIMLUNIT
 70
     2
  9
$DIMLWD
 70
    -2
  9
$DIMLWE
 70
    -2
  9
$DIMTMOVE
 70
     0
  9
$DIMFXL
 40
1.0
  9
$DIMFXLON
 70
     0
  9
$DIMJOGANG
 40
0.7853981633974483
  9
$DIMTFILL
 70
     0
  9
$DIMTFILLCLR
 70
     0
  9
$DIMARCSYM
 70
     0
  9
$DIMLTYPE
  6

  9
$DIMLTEX1
  6

  9
$DIMLTEX2
  6

  9
$DIMTXTDIRECTION
 70
     0
  9
$LUNITS
 70
     2
  9
$LUPREC
 70
     4
  9
$SKETCHINC
 40
0.1
  9
$FILLETRAD
 40
0.5
  9
$AUNITS
 70
     0
  9
$AUPREC
 70
     0
  9
$MENU
  1
.
  9
$ELEVATION
 40
0.0
  9
$PELEVATION
 40
0.0
  9
$THICKNESS
 40
0.0
  9
$LIMCHECK
 70
     0
  9
$CHAMFERA
 40
0.5
  9
$CHAMFERB
 40
0.5
  9
$CHAMFERC
 40
1.0
  9
$CHAMFERD
 40
0.0
  9
$SKPOLY
 70
     0
  9
$TDCREATE
 40
2459305.893749989
  9
$TDUCREATE
 40
2459306.14375
  9
$TDUPDATE
 40
2459305.893749989
  9
$TDUUPDATE
 40
2459306.14375
  9
$TDINDWG
 40
0.0000000116
  9
$TDUSRTIMER
 40
0.0000000116
  9
$USRTIMER
 70
     1
  9
$ANGBASE
 50
0.0
  9
$ANGDIR
 70
     0
  9
$PDMODE
 70
     0
  9
$PDSIZE
 40
0.0
  9
$PLINEWID
 40
0.0
  9
$SPLFRAME
 70
     0
  9
$SPLINETYPE
 70
     6
  9
$SPLINESEGS
 70
     8
  9
$HANDSEED
  5
69
  9
$SURFTAB1
 70
     6
  9
$SURFTAB2
 70
     6
  9
$SURFTYPE
 70
     6
  9
$SURFU
 70
     6
  9
$SURFV
 70
     6
  9
$UCSBASE
  2

  9
$UCSNAME
  2

  9
$UCSORG
 10
0.0
 20
0.0
 30
0.0
  9
$UCSXDIR
 10
1.0
 20
0.0
 30
0.0
  9
$UCSYDIR
 10
0.0
 20
1.0
 30
0.0
  9
$UCSORTHOREF
  2

  9
$UCSORTHOVIEW
 70
     0
  9
$UCSORGTOP
 10
0.0
 20
0.0
 30
0.0
  9
$UCSORGBOTTOM
 10
0.0
 20
0.0
 30
0.0
  9
$UCSORGLEFT
 10
0.0
 20
0.0
 30
0.0
  9
$UCSORGRIGHT
 10
0.0
 20
0.0
 30
0.0
  9
$UCSORGFRONT
 10
0.0
 20
0.0
 30
0.0
  9
$UCSORGBACK
 10
0.0
 20
0.0
 30
0.0
  9
$PUCSBASE
  2

  9
$PUCSNAME
  2

  9
$PUCSORG
 10
0.0
 20
0.0
 30
0.0
  9
$PUCSXDIR
 10
1.0
 20
0.0
 30
0.0
  9
$PUCSYDIR
 10
0.0
 20
1.0
 30
0.0
  9
$PUCSORTHOREF
  2

  9
$PUCSORTHOVIEW
 70
     0
  9
$PUCSORGTOP
 10
0.0
 20
0.0
 30
0.0
  9
$PUCSORGBOTTOM
 10
0.0
 20
0.0
 30
0.0
  9
$PUCSORGLEFT
 10
0.0
 20
0.0
 30
0.0
  9
$PUCSORGRIGHT
 10
0.0
 20
0.0
 30
0.0
  9
$PUCSORGFRONT
 10
0.0
 20
0.0
 30
0.0
  9
$PUCSORGBACK
 10
0.0
 20
0.0
 30
0.0
  9
$USERI1
 70
     0
  9
$USERI2
 70
     0
  9
$USERI3
 70
     0
  9
$USERI4
 70
     0
  9
$USERI5
 70
     0
  9
$USERR1
 40
0.0
  9
$USERR2
 40
0.0
  9
$USERR3
 40
0.0
  9
$USERR4
 40
0.0
  9
$USERR5
 40
0.0
  9
$WORLDVIEW
 70
     1
  9
$SHADEDGE
 70
     3
  9
$SHADEDIF
 70
    70
  9
$TILEMODE
 70
     1
  9
$MAXACTVP
 70
    64
  9
$PINSBASE
 10
0.0
 20
0.0
 30
0.0
  9
$PLIMCHECK
 70
     0
  9
$PEXTMIN
 10
1.000000000000000E+20
 20
1.000000000000000E+20
 30
1.000000000000000E+20
  9
$PEXTMAX
 10
-1.000000000000000E+20
 20
-1.000000000000000E+20
 30
-1.000000000000000E+20
  9
$PLIMMIN
 10
0.0
 20
0.0
  9
$PLIMMAX
 10
12.0
 20
9.0
  9
$UNITMODE
 70
     0
  9
$VISRETAIN
 70
     1
  9
$PLINEGEN
 70
     0
  9
$PSLTSCALE
 70
     1
  9
$TREEDEPTH
 70
  3020
  9
$CMLSTYLE
  2
Standard
  9
$CMLJUST
 70
     0
  9
$CMLSCALE
 40
1.0
  9
$PROXYGRAPHICS
 70
     1
  9
$MEASUREMENT
 70
     0
  9
$CELWEIGHT
370
    -1
  9
$ENDCAPS
280
     0
  9
$JOINSTYLE
280
     0
  9
$LWDISPLAY
290
     1
  9
$INSUNITS
 70
     1
  9
$HYPERLINKBASE
  1

  9
$STYLESHEET
  1

  9
$XEDIT
290
     1
  9
$CEPSNTYPE
380
     0
  9
$PSTYLEMODE
290
     1
  9
$FINGERPRINTGUID
  2
{E662C4A3-1F11-6290-4DD2-2EB84D602288}
  9
$VERSIONGUID
  2
{FAEB1C32-E019-11D5-929B-00C0DF256EC4}
  9
$EXTNAMES
290
     1
  9
$PSVPSCALE
 40
0.0
  9
$OLESTARTUP
290
     0
  9
$SORTENTS
280
   127
  9
$INDEXCTL
280
     0
  9
$HIDETEXT
280
     1
  9
$XCLIPFRAME
280
     2
  9
$HALOGAP
280
     0
  9
$OBSCOLOR
 70
   257
  9
$OBSLTYPE
280
     0
  9
$INTERSECTIONDISPLAY
280
     0
  9
$INTERSECTIONCOLOR
 70
   257
  9
$DIMASSOC
280
     2
  9
$PROJECTNAME
  1

  9
$CAMERADISPLAY
290
     0
  9
$LENSLENGTH
 40
50.0
  9
$CAMERAHEIGHT
 40
0.0
  9
$STEPSPERSEC
 40
2.0
  9
$STEPSIZE
 40
6.0
  9
$3DDWFPREC
 40
2.0
  9
$PSOLWIDTH
 40
0.25
  9
$PSOLHEIGHT
 40
4.0
  9
$LOFTANG1
 40
1.570796326794897
  9
$LOFTANG2
 40
1.570796326794897
  9
$LOFTMAG1
 40
0.0
  9
$LOFTMAG2
 40
0.0
  9
$LOFTPARAM
 70
     7
  9
$LOFTNORMALS
280
     1
  9
$LATITUDE
 40
37.795
  9
$LONGITUDE
 40
-122.394
  9
$NORTHDIRECTION
 40
0.0
  9
$TIMEZONE
 70
 -8000
  9
$LIGHTGLYPHDISPLAY
280
     1
  9
$TILEMODELIGHTSYNCH
280
     1
  9
$CMATERIAL
347
3C
  9
$SOLIDHIST
280
     1
  9
$SHOWHIST
280
     1
  9
$DWFFRAME
280
     2
  9
$DGNFRAME
280
     2
  9
$REALWORLDSCALE
290
     1
  9
$INTERFERECOLOR
 62
   256
  9
$CSHADOW
280
     0
  9
$SHADOWPLANELOCATION
 40
0.0
  0
ENDSEC
  0
SECTION
  2
CLASSES
  0
CLASS
  1
ACDBDICTIONARYWDFLT
  2
AcDbDictionaryWithDefault
  3
ObjectDBX Classes
 90
        0
 91
        4
280
     0
281
     0
  0
CLASS
  1
VISUALSTYLE
  2
AcDbVisualStyle
  3
ObjectDBX Classes
 90
     4095
 91
        4
280
     0
281
     0
  0
CLASS
  1
MATERIAL
  2
AcDbMaterial
  3
ObjectDBX Classes
 90
     1153
 91
        4
280
     0
281
     0
  0
CLASS
  1
SUN
  2
AcDbSun
  3
SCENEOE
 90
     1024
 91
        4
280
     0
281
     0
  0
ENDSEC
  0
SECTION
  2
TABLES
  0
TABLE
  2
VPORT
  5
8
330
0
100
AcDbSymbolTable
 70
     1
  0
VPORT
  5
29
330
8
100
AcDbSymbolTableRecord
100
AcDbViewportTableRecord
  2
*Active
 70
     0
 10
0.0
 20
0.0
 11
1.0
 21
1.0
 12
0.0
 22
0.0
 13
0.0
 23
0.0
 14
0.5
 24
0.5
 15
0.5
 25
0.5
 16
0.0
 26
0.0
 36
1.0
 17
9.5
 27
16.03584798177083
 37
0.0
 40
32.07169596354166
 41
0.5924226776656509
 42
50.0
 43
0.0
 44
0.0
 50
0.0
 51
0.0
 71
     0
 72
   100
 73
     1
 74
     3
 75
     0
 76
     0
 77
     0
 78
     0
281
     0
 65
     1
110
0.0
120
0.0
130
0.0
111
1.0
121
0.0
131
0.0
112
0.0
122
1.0
132
0.0
 79
     0
146
0.0
 60
     3
 61
     5
292
     1
282
     1
141
0.0
142
0.0
 63
   250
361
3F
  0
ENDTAB
  0
TABLE
  2
LTYPE
  5
5
330
0
100
AcDbSymbolTable
 70
     1
  0
LTYPE
  5
14
330
5
100
AcDbSymbolTableRecord
100
AcDbLinetypeTableRecord
  2
ByBlock
 70
     0
  3

 72
    65
 73
     0
 40
0.0
  0
LTYPE
  5
15
330
5
100
AcDbSymbolTableRecord
100
AcDbLinetypeTableRecord
  2
ByLayer
 70
     0
  3

 72
    65
 73
     0
 40
0.0
  0
LTYPE
  5
16
330
5
100
AcDbSymbolTableRecord
100
AcDbLinetypeTableRecord
  2
Continuous
 70
     0
  3
Solid line
 72
    65
 73
     0
 40
0.0
  0
ENDTAB
  0
TABLE
  2
LAYER
  5
2
330
0
100
AcDbSymbolTable
 70
     2
  0
LAYER
  5
10
330
2
100
AcDbSymbolTableRecord
100
AcDbLayerTableRecord
  2
0
 70
     0
 62
     7
  6
Continuous
370
    -3
390
F
347
3E
  0
LAYER
  5
40
330
2
100
AcDbSymbolTableRecord
100
AcDbLayerTableRecord
  2
Layer 1
 70
     0
 62
     7
  6
Continuous
370
    -3
390
F
347
3E
  0
ENDTAB
  0
TABLE
  2
STYLE
  5
3
330
0
100
AcDbSymbolTable
 70
     1
  0
STYLE
  5
11
330
3
100
AcDbSymbolTableRecord
100
AcDbTextStyleTableRecord
  2
Standard
 70
     0
 40
0.0
 41
1.0
 50
0.0
 71
     0
 42
0.2
  3
txt
  4

  0
ENDTAB
  0
TABLE
  2
VIEW
  5
6
330
0
100
AcDbSymbolTable
 70
     0
  0
ENDTAB
  0
TABLE
  2
UCS
  5
7
330
0
100
AcDbSymbolTable
 70
     0
  0
ENDTAB
  0
TABLE
  2
APPID
  5
9
330
0
100
AcDbSymbolTable
 70
     1
  0
APPID
  5
12
330
9
100
AcDbSymbolTableRecord
100
AcDbRegAppTableRecord
  2
ACAD
 70
     0
  0
ENDTAB
  0
TABLE
  2
DIMSTYLE
  5
A
330
0
100
AcDbSymbolTable
 70
     1
100
AcDbDimStyleTable
  0
DIMSTYLE
105
27
330
A
100
AcDbSymbolTableRecord
100
AcDbDimStyleTableRecord
  2
Standard
 70
     0
178
     0
340
11
  0
ENDTAB
  0
TABLE
  2
BLOCK_RECORD
  5
1
330
0
100
AcDbSymbolTable
 70
     5
  0
BLOCK_RECORD
  5
1F
330
1
100
AcDbSymbolTableRecord
100
AcDbBlockTableRecord
  2
*Model_Space
340
22
 70
     0
280
     1
281
     0
  0
BLOCK_RECORD
  5
1B
330
1
100
AcDbSymbolTableRecord
100
AcDbBlockTableRecord
  2
*Paper_Space
340
1E
 70
     0
280
     1
281
     0
  0
BLOCK_RECORD
  5
23
330
1
100
AcDbSymbolTableRecord
100
AcDbBlockTableRecord
  2
*Paper_Space0
340
26
 70
     0
280
     1
281
     0
  0
BLOCK_RECORD
  5
4F
330
1
100
AcDbSymbolTableRecord
100
AcDbBlockTableRecord
  2
block 2
340
0
102
{BLKREFS
331
50
102
}
 70
     0
280
     1
281
     0
  0
BLOCK_RECORD
  5
54
330
1
100
AcDbSymbolTableRecord
100
AcDbBlockTableRecord
  2
block 3
340
0
102
{BLKREFS
331
55
102
}
 70
     0
280
     1
281
     0
  0
BLOCK_RECORD
  5
5A
330
1
100
AcDbSymbolTableRecord
100
AcDbBlockTableRecord
  2
block 4
340
0
102
{BLKREFS
331
5B
102
}
 70
     0
280
     1
281
     0
  0
BLOCK_RECORD
  5
61
330
1
100
AcDbSymbolTableRecord
100
AcDbBlockTableRecord
  2
block 5
340
0
102
{BLKREFS
331
62
102
}
 70
     0
280
     1
281
     0
  0
ENDTAB
  0
ENDSEC
  0
SECTION
  2
BLOCKS
  0
BLOCK
  5
20
330
1F
100
AcDbEntity
  8
0
100
AcDbBlockBegin
  2
*Model_Space
 70
     0
 10
0.0
 20
0.0
 30
0.0
  3
*Model_Space
  1

  0
ENDBLK
  5
21
330
1F
100
AcDbEntity
  8
0
100
AcDbBlockEnd
  0
BLOCK
  5
1C
330
1B
100
AcDbEntity
 67
     1
  8
0
100
AcDbBlockBegin
  2
*Paper_Space
 70
     0
 10
0.0
 20
0.0
 30
0.0
  3
*Paper_Space
  1

  0
ENDBLK
  5
1D
330
1B
100
AcDbEntity
 67
     1
  8
0
100
AcDbBlockEnd
  0
BLOCK
  5
24
330
23
100
AcDbEntity
  8
0
100
AcDbBlockBegin
  2
*Paper_Space0
 70
     0
 10
0.0
 20
0.0
 30
0.0
  3
*Paper_Space0
  1

  0
ENDBLK
  5
25
330
23
100
AcDbEntity
  8
0
100
AcDbBlockEnd
  0
BLOCK
  5
51
330
4F
100
AcDbEntity
  8
0
100
AcDbBlockBegin
  2
block 2
 70
     0
 10
0.0
 20
0.0
 30
0.0
  3
block 2
  1

  0
SPLINE
  5
53
330
4F
100
AcDbEntity
  8
Layer 1
 62
     6
420
 16711935
370
    70
100
AcDbSpline
210
0.0
220
0.0
230
1.0
 70
    11
 71
     3
 72
    83
 73
    79
 74
     0
 42
0.0000000001
 43
0.0000000001
 12
1.0
 22
0.0
 32
0.0
 13
1.0
 23
0.0
 33
0.0
 40
0.0
 40
0.0
 40
0.0
 40
0.0
 40
1.0
 40
1.0
 40
1.0
 40
2.0
 40
2.0
 40
2.0
 40
3.0
 40
3.0
 40
3.0
 40
4.0
 40
4.0
 40
4.0
 40
5.0
 40
5.0
 40
5.0
 40
6.0
 40
6.0
 40
6.0
 40
7.0
 40
7.0
 40
7.0
 40
8.0
 40
8.0
 40
8.0
 40
9.0
 40
9.0
 40
9.0
 40
10.0
 40
10.0
 40
10.0
 40
11.0
 40
11.0
 40
11.0
 40
12.0
 40
12.0
 40
12.0
 40
13.0
 40
13.0
 40
13.0
 40
14.0
 40
14.0
 40
14.0
 40
15.0
 40
15.0
 40
15.0
 40
16.0
 40
16.0
 40
16.0
 40
17.0
 40
17.0
 40
17.0
 40
18.0
 40
18.0
 40
18.0
 40
19.0
 40
19.0
 40
19.0
 40
20.0
 40
20.0
 40
20.0
 40
21.0
 40
21.0
 40
21.0
 40
22.0
 40
22.0
 40
22.0
 40
23.0
 40
23.0
 40
23.0
 40
24.0
 40
24.0
 40
24.0
 40
25.0
 40
25.0
 40
25.0
 40
26.0
 40
26.0
 40
26.0
 40
26.0
 10
2.746555540296766
 20
2.688042500813809
 30
0.0
 10
2.032972123887804
 20
3.050723571777351
 30
0.0
 10
1.462874942355686
 20
3.596903449164504
 30
0.0
 10
1.036472214592828
 20
4.32637529161242
 30
0.0
 10
0.6098888715108235
 20
5.055833570692281
 30
0.0
 10
0.3966944482591417
 20
5.950680168999573
 30
0.0
 10
0.3966944482591417
 20
7.011082933213983
 30
0.0
 10
0.3966944482591417
 20
7.903861117892802
 30
0.0
 10
0.5581389003329806
 20
8.711069708930129
 30
0.0
 10
0.8810278044806585
 20
9.432693447536899
 30
0.0
 10
1.20391665564643
 20
10.15413747151693
 30
0.0
 10
1.678138944837782
 20
10.72609622531468
 30
0.0
 10
2.304097281561957
 20
11.14874942355686
 30
0.0
 10
2.929875055948893
 20
11.57122121175131
 30
0.0
 10
3.685319688585069
 20
11.78255544026693
 30
0.0
 10
4.570249769422743
 20
11.78255544026693
 30
0.0
 10
5.02468024359809
 20
11.78255544026693
 30
0.0
 10
5.431277381049262
 20
11.67680525037978
 30
0.0
 10
5.790027618408203
 20
11.4656524319119
 30
0.0
 10
6.1487914191352
 20
11.25431989881728
 30
0.0
 10
6.40776358710395
 20
10.98526336669923
 30
0.0
 10
6.567333221435547
 20
10.65844384087457
 30
0.0
 10
6.567333221435547
 20
10.65844384087457
 30
0.0
 10
6.806513892279731
 20
11.60317989773221
 30
0.0
 10
6.806513892279731
 20
11.60317989773221
 30
0.0
 10
6.806513892279731
 20
11.60317989773221
 30
0.0
 10
8.624221801757812
 20
11.60317989773221
 30
0.0
 10
8.624221801757812
 20
11.60317989773221
 30
0.0
 10
8.624221801757812
 20
11.60317989773221
 30
0.0
 10
8.624221801757812
 20
7.788374125162767
 30
0.0
 10
8.624221801757812
 20
7.788374125162767
 30
0.0
 10
8.624221801757812
 20
7.788374125162767
 30
0.0
 10
6.75865258110894
 20
7.788374125162767
 30
0.0
 10
6.75865258110894
 20
7.788374125162767
 30
0.0
 10
6.75865258110894
 20
7.788374125162767
 30
0.0
 10
6.75865258110894
 20
7.979707472059468
 30
0.0
 10
6.75865258110894
 20
7.979707472059468
 30
0.0
 10
6.75865258110894
 20
8.473929477267802
 30
0.0
 10
6.64504157172309
 20
8.87847218831381
 30
0.0
 10
6.417833116319444
 20
9.193513624403218
 30
0.0
 10
6.190624660915798
 20
9.508360087076829
 30
0.0
 10
5.853722042507595
 20
9.66587487114801
 30
0.0
 10
5.407333374023438
 20
9.66587487114801
 30
0.0
 10
5.104264153374566
 20
9.66587487114801
 30
0.0
 10
4.827347225613064
 20
9.55020816379124
 30
0.0
 10
4.576208326551649
 20
9.319083285861552
 30
0.0
 10
4.325069427490234
 20
9.087763434516065
 30
0.0
 10
4.127763960096571
 20
8.784861212836379
 30
0.0
 10
3.984249962700738
 20
8.410222337510858
 30
0.0
 10
3.840749952528212
 20
8.035388488769538
 30
0.0
 10
3.769000159369575
 20
7.648791809082038
 30
0.0
 10
3.769000159369575
 20
7.250222066243496
 30
0.0
 10
3.769000159369575
 20
6.468805914984816
 30
0.0
 10
3.964263916015625
 20
5.857042066786031
 30
0.0
 10
4.354972415500217
 20
5.414582960340718
 30
0.0
 10
4.745500352647569
 20
4.972123853895406
 30
0.0
 10
5.279708438449435
 20
4.75087480333117
 30
0.0
 10
5.957416958279079
 20
4.75087480333117
 30
0.0
 10
6.435764312744141
 20
4.75087480333117
 30
0.0
 10
6.880097283257378
 20
4.830471428765198
 30
0.0
 10
7.290791829427083
 20
4.99005462646485
 30
0.0
 10
7.701305813259548
 20
5.149442850748705
 30
0.0
 10
8.038194444444445
 20
5.32077701144749
 30
0.0
 10
8.30129157172309
 20
5.504262254503045
 30
0.0
 10
8.30129157172309
 20
5.504262254503045
 30
0.0
 10
8.43284691704644
 20
5.396636928982212
 30
0.0
 10
8.43284691704644
 20
5.396636928982212
 30
0.0
 10
8.43284691704644
 20
5.396636928982212
 30
0.0
 10
8.43284691704644
 20
2.909247470431865
 30
0.0
 10
8.43284691704644
 20
2.909247470431865
 30
0.0
 10
7.938429938422309
 20
2.622246602376309
 30
0.0
 10
7.416360643174913
 20
2.422858310275615
 30
0.0
 10
6.866263495551215
 20
2.31131656222874
 30
0.0
 10
6.316180335150825
 20
2.199774814181865
 30
0.0
 10
5.730208079020182
 20
2.143886956108948
 30
0.0
 10
5.108360714382595
 20
2.143886956108948
 30
0.0
 10
4.247347089979383
 20
2.143917473687073
 30
0.0
 10
3.459958394368489
 20
2.325168151855476
 30
0.0
 10
2.746555540296766
 20
2.688042500813809
 30
0.0
  0
ENDBLK
  5
52
330
4F
100
AcDbEntity
  8
0
100
AcDbBlockEnd
  0
BLOCK
  5
56
330
54
100
AcDbEntity
  8
0
100
AcDbBlockBegin
  2
block 3
 70
     0
 10
0.0
 20
0.0
 30
0.0
  3
block 3
  1

  0
SPLINE
  5
58
330
54
100
AcDbEntity
  8
Layer 1
 62
     7
420
 16777215
370
    35
100
AcDbSpline
210
0.0
220
0.0
230
1.0
 70
    11
 71
     3
 72
    38
 73
    34
 74
     0
 42
0.0000000001
 43
0.0000000001
 12
1.0
 22
0.0
 32
0.0
 13
1.0
 23
0.0
 33
0.0
 40
0.0
 40
0.0
 40
0.0
 40
0.0
 40
1.0
 40
1.0
 40
1.0
 40
2.0
 40
2.0
 40
2.0
 40
3.0
 40
3.0
 40
3.0
 40
4.0
 40
4.0
 40
4.0
 40
5.0
 40
5.0
 40
5.0
 40
6.0
 40
6.0
 40
6.0
 40
7.0
 40
7.0
 40
7.0
 40
8.0
 40
8.0
 40
8.0
 40
9.0
 40
9.0
 40
9.0
 40
10.0
 40
10.0
 40
10.0
 40
11.0
 40
11.0
 40
11.0
 40
11.0
 10
5.249888949924045
 20
21.18305711534289
 30
0.0
 10
5.428444332546658
 20
21.13857096354167
 30
0.0
 10
5.595472123887803
 20
21.07036248101129
 30
0.0
 10
5.753430684407552
 20
20.97740424262154
 30
0.0
 10
6.0542360941569
 20
20.80020985921225
 30
0.0
 10
6.263722313774956
 20
20.58458452012804
 30
0.0
 10
6.39375008477105
 20
20.3182652452257
 30
0.0
 10
6.39375008477105
 20
20.3182652452257
 30
0.0
 10
6.813027699788411
 20
19.45954298231337
 30
0.0
 10
6.813027699788411
 20
19.45954298231337
 30
0.0
 10
6.813027699788411
 20
19.45954298231337
 30
0.0
 10
7.210805257161458
 20
21.03075151231554
 30
0.0
 10
7.210805257161458
 20
21.03075151231554
 30
0.0
 10
7.210805257161458
 20
21.03075151231554
 30
0.0
 10
7.210805257161458
 20
21.4165572781033
 30
0.0
 10
7.210805257161458
 20
21.4165572781033
 30
0.0
 10
7.210805257161458
 20
21.4165572781033
 30
0.0
 10
6.947430080837673
 20
21.4165572781033
 30
0.0
 10
6.947430080837673
 20
21.4165572781033
 30
0.0
 10
6.947430080837673
 20
21.4165572781033
 30
0.0
 10
6.708249409993489
 20
20.47183478461372
 30
0.0
 10
6.708249409993489
 20
20.47183478461372
 30
0.0
 10
6.548679775661892
 20
20.79864074707032
 30
0.0
 10
6.289707607693142
 20
21.06770999484593
 30
0.0
 10
5.930943806966146
 20
21.27904337565105
 30
0.0
 10
5.72042973836263
 20
21.402932027181
 30
0.0
 10
5.493318769666883
 20
21.49025129530165
 30
0.0
 10
5.249874538845486
 20
21.54150132921007
 30
0.0
 10
5.249874538845486
 20
21.54150132921007
 30
0.0
 10
5.249874538845486
 20
21.18305711534289
 30
0.0
 10
5.249874538845486
 20
21.18305711534289
 30
0.0
 10
5.249874538845486
 20
21.18305711534289
 30
0.0
 10
5.249888949924045
 20
21.18305711534289
 30
0.0
 10
5.249888949924045
 20
21.18305711534289
 30
0.0
  0
SPLINE
  5
59
330
54
100
AcDbEntity
  8
Layer 1
 62
     7
420
 16777215
370
    35
100
AcDbSpline
210
0.0
220
0.0
230
1.0
 70
    11
 71
     3
 72
   146
 73
   142
 74
     0
 42
0.0000000001
 43
0.0000000001
 12
1.0
 22
0.0
 32
0.0
 13
1.0
 23
0.0
 33
0.0
 40
0.0
 40
0.0
 40
0.0
 40
0.0
 40
1.0
 40
1.0
 40
1.0
 40
2.0
 40
2.0
 40
2.0
 40
3.0
 40
3.0
 40
3.0
 40
4.0
 40
4.0
 40
4.0
 40
5.0
 40
5.0
 40
5.0
 40
6.0
 40
6.0
 40
6.0
 40
7.0
 40
7.0
 40
7.0
 40
8.0
 40
8.0
 40
8.0
 40
9.0
 40
9.0
 40
9.0
 40
10.0
 40
10.0
 40
10.0
 40
11.0
 40
11.0
 40
11.0
 40
12.0
 40
12.0
 40
12.0
 40
13.0
 40
13.0
 40
13.0
 40
14.0
 40
14.0
 40
14.0
 40
15.0
 40
15.0
 40
15.0
 40
16.0
 40
16.0
 40
16.0
 40
17.0
 40
17.0
 40
17.0
 40
18.0
 40
18.0
 40
18.0
 40
19.0
 40
19.0
 40
19.0
 40
20.0
 40
20.0
 40
20.0
 40
21.0
 40
21.0
 40
21.0
 40
22.0
 40
22.0
 40
22.0
 40
23.0
 40
23.0
 40
23.0
 40
24.0
 40
24.0
 40
24.0
 40
25.0
 40
25.0
 40
25.0
 40
26.0
 40
26.0
 40
26.0
 40
27.0
 40
27.0
 40
27.0
 40
28.0
 40
28.0
 40
28.0
 40
29.0
 40
29.0
 40
29.0
 40
30.0
 40
30.0
 40
30.0
 40
31.0
 40
31.0
 40
31.0
 40
32.0
 40
32.0
 40
32.0
 40
33.0
 40
33.0
 40
33.0
 40
34.0
 40
34.0
 40
34.0
 40
35.0
 40
35.0
 40
35.0
 40
36.0
 40
36.0
 40
36.0
 40
37.0
 40
37.0
 40
37.0
 40
38.0
 40
38.0
 40
38.0
 40
39.0
 40
39.0
 40
39.0
 40
40.0
 40
40.0
 40
40.0
 40
41.0
 40
41.0
 40
41.0
 40
42.0
 40
42.0
 40
42.0
 40
43.0
 40
43.0
 40
43.0
 40
44.0
 40
44.0
 40
44.0
 40
45.0
 40
45.0
 40
45.0
 40
46.0
 40
46.0
 40
46.0
 40
47.0
 40
47.0
 40
47.0
 40
47.0
 10
8.76513926188151
 20
17.60176591661242
 30
0.0
 10
8.76513926188151
 20
17.60176591661242
 30
0.0
 10
8.76513926188151
 20
21.4165572781033
 30
0.0
 10
8.76513926188151
 20
21.4165572781033
 30
0.0
 10
8.76513926188151
 20
21.4165572781033
 30
0.0
 10
8.415139092339409
 20
21.4165572781033
 30
0.0
 10
8.415139092339409
 20
21.4165572781033
 30
0.0
 10
8.415139092339409
 20
21.4165572781033
 30
0.0
 10
8.415139092339409
 20
21.0665571085612
 30
0.0
 10
8.415139092339409
 20
21.0665571085612
 30
0.0
 10
8.415139092339409
 20
21.0665571085612
 30
0.0
 10
8.415139092339409
 20
20.73352895100912
 30
0.0
 10
8.415139092339409
 20
20.73352895100912
 30
0.0
 10
8.415139092339409
 20
20.73352895100912
 30
0.0
 10
8.415139092339409
 20
17.95176523844401
 30
0.0
 10
8.415139092339409
 20
17.95176523844401
 30
0.0
 10
8.415139092339409
 20
17.95176523844401
 30
0.0
 10
7.245916578504774
 20
17.95176523844401
 30
0.0
 10
7.245916578504774
 20
17.95176523844401
 30
0.0
 10
7.222472296820746
 20
18.44944590250651
 30
0.0
 10
7.08709716796875
 20
18.87269588894315
 30
0.0
 10
6.842652638753255
 20
19.21162665473091
 30
0.0
 10
6.551027509901258
 20
19.61570990668404
 30
0.0
 10
6.103471967909071
 20
19.82926598442926
 30
0.0
 10
5.548277537027994
 20
19.82926598442926
 30
0.0
 10
5.156208038330078
 20
19.82926598442926
 30
0.0
 10
4.796833038330078
 20
19.6814744398329
 30
0.0
 10
4.480138566758897
 20
19.39000189887154
 30
0.0
 10
4.189999898274739
 20
19.12275183783638
 30
0.0
 10
3.960652669270833
 20
18.77247446695964
 30
0.0
 10
3.798360612657335
 20
18.34882097032336
 30
0.0
 10
3.640152401394314
 20
17.93558498806424
 30
0.0
 10
3.559944152832031
 20
17.50319583468968
 30
0.0
 10
3.559944152832031
 20
17.0636257256402
 30
0.0
 10
3.559944152832031
 20
16.19804209391277
 30
0.0
 10
3.786582946777344
 20
15.50250071207683
 30
0.0
 10
4.233555263943142
 20
14.99632090250652
 30
0.0
 10
4.691555447048611
 20
14.47741865370009
 30
0.0
 10
5.318971845838758
 20
14.21426557752822
 30
0.0
 10
6.098360697428385
 20
14.21426557752822
 30
0.0
 10
6.618194156222873
 20
14.21426557752822
 30
0.0
 10
7.10945807562934
 20
14.30272416856555
 30
0.0
 10
7.558499654134114
 20
14.47721011691624
 30
0.0
 10
7.803027682834201
 20
14.57215538872613
 30
0.0
 10
8.025416056315104
 20
14.67259891086155
 30
0.0
 10
8.223791334364149
 20
14.77759972466363
 30
0.0
 10
8.223791334364149
 20
14.77759972466363
 30
0.0
 10
8.223791334364149
 20
12.92878041585287
 30
0.0
 10
8.223791334364149
 20
12.92878041585287
 30
0.0
 10
7.815235561794704
 20
12.71300248887805
 30
0.0
 10
7.383457607693142
 20
12.55814103868273
 30
0.0
 10
6.937652587890625
 20
12.4677530585395
 30
0.0
 10
6.412624782986111
 20
12.36129418267145
 30
0.0
 10
5.844569312201606
 20
12.30730858696832
 30
0.0
 10
5.249291314019097
 20
12.30730858696832
 30
0.0
 10
4.447597079806857
 20
12.30730858696832
 30
0.0
 10
3.706346723768446
 20
12.47758650037978
 30
0.0
 10
3.04615232679579
 20
12.81339175754124
 30
0.0
 10
2.39659669664171
 20
13.14354448106555
 30
0.0
 10
1.869555155436198
 20
13.6491970147027
 30
0.0
 10
1.479555130004883
 20
14.31639265272353
 30
0.0
 10
1.086749606662326
 20
14.9880879380968
 30
0.0
 10
0.8876107003953722
 20
15.83192101372613
 30
0.0
 10
0.8876107003953722
 20
16.82447642008464
 30
0.0
 10
0.8876107003953722
 20
17.6635046725803
 30
0.0
 10
1.040291256374783
 20
18.43015709771051
 30
0.0
 10
1.341416252983941
 20
19.10314259847006
 30
0.0
 10
1.635707855224609
 20
19.7606980726454
 30
0.0
 10
2.072902255588108
 20
20.28858690049914
 30
0.0
 10
2.640874650743272
 20
20.6720733303494
 30
0.0
 10
2.825138515896267
 20
20.79647569444445
 30
0.0
 10
3.02365239461263
 20
20.9007118733724
 30
0.0
 10
3.23552746242947
 20
20.98485137939454
 30
0.0
 10
3.23552746242947
 20
20.98485137939454
 30
0.0
 10
3.23552746242947
 20
21.35960130479601
 30
0.0
 10
3.23552746242947
 20
21.35960130479601
 30
0.0
 10
2.952374776204427
 20
21.25911539713542
 30
0.0
 10
2.688805262247721
 20
21.12672590467665
 30
0.0
 10
2.445013682047526
 20
20.96212934705947
 30
0.0
 10
1.819055557250977
 20
20.53947360568577
 30
0.0
 10
1.344833374023438
 20
19.96751569959853
 30
0.0
 10
1.02194446987576
 20
19.24607082790799
 30
0.0
 10
0.6990555657280816
 20
18.52444624159072
 30
0.0
 10
0.5376111136542426
 20
17.71723765055339
 30
0.0
 10
0.5376111136542426
 20
16.82445946587457
 30
0.0
 10
0.5376111136542426
 20
15.76405670166016
 30
0.0
 10
0.7508194181654188
 20
14.86922366672093
 30
0.0
 10
1.177388932969835
 20
14.13975182427301
 30
0.0
 10
1.603791766696506
 20
13.41027998182509
 30
0.0
 10
2.173888948228624
 20
12.86409840901693
 30
0.0
 10
2.887472364637587
 20
12.5014190334744
 30
0.0
 10
3.600875006781684
 20
12.13854468451606
 30
0.0
 10
4.388277689615885
 20
11.95729400634766
 30
0.0
 10
5.249291737874349
 20
11.95729400634766
 30
0.0
 10
5.871139102511935
 20
11.95729400634766
 30
0.0
 10
6.457110934787326
 20
12.01316830105252
 30
0.0
 10
7.007194519042969
 20
12.12472530788846
 30
0.0
 10
7.557291666666666
 20
12.23626705593534
 30
0.0
 10
8.079360961914062
 20
12.43565534803603
 30
0.0
 10
8.573777940538195
 20
12.72265621609159
 30
0.0
 10
8.573777940538195
 20
12.72265621609159
 30
0.0
 10
8.573777940538195
 20
15.21004567464193
 30
0.0
 10
8.573777940538195
 20
15.21004567464193
 30
0.0
 10
8.573777940538195
 20
15.21004567464193
 30
0.0
 10
8.442222595214844
 20
15.31767100016277
 30
0.0
 10
8.442222595214844
 20
15.31767100016277
 30
0.0
 10
8.179139031304253
 20
15.1341840616862
 30
0.0
 10
7.842236836751302
 20
14.96283803304037
 30
0.0
 10
7.431722852918837
 20
14.80346337212457
 30
0.0
 10
7.021028306749131
 20
14.64389373779298
 30
0.0
 10
6.576694912380642
 20
14.56428354899089
 30
0.0
 10
6.098347981770833
 20
14.56428354899089
 30
0.0
 10
5.420639885796441
 20
14.56428354899089
 30
0.0
 10
4.886417388916016
 20
14.78553429497613
 30
0.0
 10
4.49590343899197
 20
15.22799170600044
 30
0.0
 10
4.105194939507379
 20
15.67045081244575
 30
0.0
 10
3.909931182861328
 20
16.28221466064454
 30
0.0
 10
3.909931182861328
 20
17.06363081190322
 30
0.0
 10
3.909931182861328
 20
17.46218699137371
 30
0.0
 10
3.981680976019965
 20
17.8487836710612
 30
0.0
 10
4.125180986192492
 20
18.22361667209202
 30
0.0
 10
4.268694983588325
 20
18.59825554741754
 30
0.0
 10
4.466000450981988
 20
18.90114420572917
 30
0.0
 10
4.717139350043403
 20
19.13247762044271
 30
0.0
 10
4.968278249104817
 20
19.36361690945096
 30
0.0
 10
5.245194753011067
 20
19.47926920572917
 30
0.0
 10
5.548264397515191
 20
19.47926920572917
 30
0.0
 10
5.9946534898546
 20
19.47926920572917
 30
0.0
 10
6.331556108262803
 20
19.3217552693685
 30
0.0
 10
6.558764139811197
 20
19.00690795898438
 30
0.0
 10
6.785972595214844
 20
18.69186652289497
 30
0.0
 10
6.899583604600694
 20
18.28732465955947
 30
0.0
 10
6.899583604600694
 20
17.79311621771919
 30
0.0
 10
6.899583604600694
 20
17.79311621771919
 30
0.0
 10
6.899583604600694
 20
17.60178287082249
 30
0.0
 10
6.899583604600694
 20
17.60178287082249
 30
0.0
 10
6.899583604600694
 20
17.60178287082249
 30
0.0
 10
8.76513926188151
 20
17.60178287082249
 30
0.0
 10
8.76513926188151
 20
17.60178287082249
 30
0.0
 10
8.76513926188151
 20
17.60178287082249
 30
0.0
 10
8.76513926188151
 20
17.60176591661242
 30
0.0
 10
8.76513926188151
 20
17.60176591661242
 30
0.0
  0
ENDBLK
  5
57
330
54
100
AcDbEntity
  8
0
100
AcDbBlockEnd
  0
BLOCK
  5
5C
330
5A
100
AcDbEntity
  8
0
100
AcDbBlockBegin
  2
block 4
 70
     0
 10
0.0
 20
0.0
 30
0.0
  3
block 4
  1

  0
SPLINE
  5
5E
330
5A
100
AcDbEntity
  8
Layer 1
 62
     7
420
 16777215
370
    35
100
AcDbSpline
210
0.0
220
0.0
230
1.0
 70
    11
 71
     3
 72
    83
 73
    79
 74
     0
 42
0.0000000001
 43
0.0000000001
 12
1.0
 22
0.0
 32
0.0
 13
1.0
 23
0.0
 33
0.0
 40
0.0
 40
0.0
 40
0.0
 40
0.0
 40
1.0
 40
1.0
 40
1.0
 40
2.0
 40
2.0
 40
2.0
 40
3.0
 40
3.0
 40
3.0
 40
4.0
 40
4.0
 40
4.0
 40
5.0
 40
5.0
 40
5.0
 40
6.0
 40
6.0
 40
6.0
 40
7.0
 40
7.0
 40
7.0
 40
8.0
 40
8.0
 40
8.0
 40
9.0
 40
9.0
 40
9.0
 40
10.0
 40
10.0
 40
10.0
 40
11.0
 40
11.0
 40
11.0
 40
12.0
 40
12.0
 40
12.0
 40
13.0
 40
13.0
 40
13.0
 40
14.0
 40
14.0
 40
14.0
 40
15.0
 40
15.0
 40
15.0
 40
16.0
 40
16.0
 40
16.0
 40
17.0
 40
17.0
 40
17.0
 40
18.0
 40
18.0
 40
18.0
 40
19.0
 40
19.0
 40
19.0
 40
20.0
 40
20.0
 40
20.0
 40
21.0
 40
21.0
 40
21.0
 40
22.0
 40
22.0
 40
22.0
 40
23.0
 40
23.0
 40
23.0
 40
24.0
 40
24.0
 40
24.0
 40
25.0
 40
25.0
 40
25.0
 40
26.0
 40
26.0
 40
26.0
 40
26.0
 10
11.56083340115017
 20
2.688042500813809
 30
0.0
 10
10.84725019666884
 20
3.050723571777351
 30
0.0
 10
10.27715301513672
 20
3.596903449164504
 30
0.0
 10
9.850750393337673
 20
4.32637529161242
 30
0.0
 10
9.424167209201388
 20
5.055833570692281
 30
0.0
 10
9.210972256130642
 20
5.950680168999573
 30
0.0
 10
9.210972256130642
 20
7.011082933213983
 30
0.0
 10
9.210972256130642
 20
7.903861117892802
 30
0.0
 10
9.372417026095919
 20
8.711069708930129
 30
0.0
 10
9.695305718315971
 20
9.432693447536899
 30
0.0
 10
10.01819441053602
 20
10.15413747151693
 30
0.0
 10
10.49241638183594
 20
10.72609622531468
 30
0.0
 10
11.11837514241536
 20
11.14874942355686
 30
0.0
 10
11.74415249294705
 20
11.57122121175131
 30
0.0
 10
12.49959733751085
 20
11.78255544026693
 30
0.0
 10
13.38452826605903
 20
11.78255544026693
 30
0.0
 10
13.83895874023438
 20
11.78255544026693
 30
0.0
 10
14.2455563015408
 20
11.67680525037978
 30
0.0
 10
14.60430569118924
 20
11.4656524319119
 30
0.0
 10
14.96307033962674
 20
11.25431989881728
 30
0.0
 10
15.22204250759549
 20
10.98526336669923
 30
0.0
 10
15.38161044650608
 20
10.65844384087457
 30
0.0
 10
15.38161044650608
 20
10.65844384087457
 30
0.0
 10
15.62079026963976
 20
11.60317989773221
 30
0.0
 10
15.62079026963976
 20
11.60317989773221
 30
0.0
 10
15.62079026963976
 20
11.60317989773221
 30
0.0
 10
17.43849860297309
 20
11.60317989773221
 30
0.0
 10
17.43849860297309
 20
11.60317989773221
 30
0.0
 10
17.43849860297309
 20
11.60317989773221
 30
0.0
 10
17.43849860297309
 20
7.788374125162767
 30
0.0
 10
17.43849860297309
 20
7.788374125162767
 30
0.0
 10
17.43849860297309
 20
7.788374125162767
 30
0.0
 10
15.57295735677083
 20
7.788374125162767
 30
0.0
 10
15.57295735677083
 20
7.788374125162767
 30
0.0
 10
15.57295735677083
 20
7.788374125162767
 30
0.0
 10
15.57295735677083
 20
7.979707472059468
 30
0.0
 10
15.57295735677083
 20
7.979707472059468
 30
0.0
 10
15.57295735677083
 20
8.473929477267802
 30
0.0
 10
15.45934549967448
 20
8.87847218831381
 30
0.0
 10
15.23213873969184
 20
9.193513624403218
 30
0.0
 10
15.00493028428819
 20
9.508360087076829
 30
0.0
 10
14.66802808973524
 20
9.66587487114801
 30
0.0
 10
14.22163899739583
 20
9.66587487114801
 30
0.0
 10
13.91856977674696
 20
9.66587487114801
 30
0.0
 10
13.64165327284071
 20
9.55020816379124
 30
0.0
 10
13.39051394992404
 20
9.319083285861552
 30
0.0
 10
13.13937547471788
 20
9.087763434516065
 30
0.0
 10
12.94206915961371
 20
8.784861212836379
 30
0.0
 10
12.79855600992838
 20
8.410222337510858
 30
0.0
 10
12.65505642361111
 20
8.035388488769538
 30
0.0
 10
12.58330620659722
 20
7.648791809082038
 30
0.0
 10
12.58330620659722
 20
7.250222066243496
 30
0.0
 10
12.58330620659722
 20
6.468805914984816
 30
0.0
 10
12.77857038709852
 20
5.857042066786031
 30
0.0
 10
13.16927846272786
 20
5.414582960340718
 30
0.0
 10
13.55980597601996
 20
4.972123853895406
 30
0.0
 10
14.09401448567708
 20
4.75087480333117
 30
0.0
 10
14.77173699273003
 20
4.75087480333117
 30
0.0
 10
15.25008477105035
 20
4.75087480333117
 30
0.0
 10
15.69441731770833
 20
4.830471428765198
 30
0.0
 10
16.10511271158854
 20
4.99005462646485
 30
0.0
 10
16.51562669542101
 20
5.149442850748705
 30
0.0
 10
16.8525153266059
 20
5.32077701144749
 30
0.0
 10
17.11561245388455
 20
5.504262254503045
 30
0.0
 10
17.11561245388455
 20
5.504262254503045
 30
0.0
 10
17.2471686469184
 20
5.396636928982212
 30
0.0
 10
17.2471686469184
 20
5.396636928982212
 30
0.0
 10
17.2471686469184
 20
5.396636928982212
 30
0.0
 10
17.2471686469184
 20
2.909247470431865
 30
0.0
 10
17.2471686469184
 20
2.909247470431865
 30
0.0
 10
16.75275166829427
 20
2.622246602376309
 30
0.0
 10
16.23068237304688
 20
2.422858310275615
 30
0.0
 10
15.68058607313368
 20
2.31131656222874
 30
0.0
 10
15.13050333658854
 20
2.199774814181865
 30
0.0
 10
14.54453023274739
 20
2.143886956108948
 30
0.0
 10
13.92268371582031
 20
2.143886956108948
 30
0.0
 10
13.06163872612847
 20
2.143917473687073
 30
0.0
 10
12.27423604329427
 20
2.325168151855476
 30
0.0
 10
11.56083340115017
 20
2.688042500813809
 30
0.0
  0
SPLINE
  5
5F
330
5A
100
AcDbEntity
  8
Layer 1
 62
     7
420
 16777215
370
    35
100
AcDbSpline
210
0.0
220
0.0
230
1.0
 70
    11
 71
     3
 72
    80
 73
    76
 74
     0
 42
0.0000000001
 43
0.0000000001
 12
1.0
 22
0.0
 32
0.0
 13
1.0
 23
0.0
 33
0.0
 40
0.0
 40
0.0
 40
0.0
 40
0.0
 40
1.0
 40
1.0
 40
1.0
 40
2.0
 40
2.0
 40
2.0
 40
3.0
 40
3.0
 40
3.0
 40
4.0
 40
4.0
 40
4.0
 40
5.0
 40
5.0
 40
5.0
 40
6.0
 40
6.0
 40
6.0
 40
7.0
 40
7.0
 40
7.0
 40
8.0
 40
8.0
 40
8.0
 40
9.0
 40
9.0
 40
9.0
 40
10.0
 40
10.0
 40
10.0
 40
11.0
 40
11.0
 40
11.0
 40
12.0
 40
12.0
 40
12.0
 40
13.0
 40
13.0
 40
13.0
 40
14.0
 40
14.0
 40
14.0
 40
15.0
 40
15.0
 40
15.0
 40
16.0
 40
16.0
 40
16.0
 40
17.0
 40
17.0
 40
17.0
 40
18.0
 40
18.0
 40
18.0
 40
19.0
 40
19.0
 40
19.0
 40
20.0
 40
20.0
 40
20.0
 40
21.0
 40
21.0
 40
21.0
 40
22.0
 40
22.0
 40
22.0
 40
23.0
 40
23.0
 40
23.0
 40
24.0
 40
24.0
 40
24.0
 40
25.0
 40
25.0
 40
25.0
 40
25.0
 10
13.92266676161024
 20
2.493930358886726
 30
0.0
 10
13.120972527398
 20
2.493930358886726
 30
0.0
 10
12.37972259521484
 20
2.664208272298184
 30
0.0
 10
11.71952819824219
 20
3.000013529459642
 30
0.0
 10
11.06997256808811
 20
3.330166252983948
 30
0.0
 10
10.54293145073785
 20
3.8358187866211
 30
0.0
 10
10.15293121337891
 20
4.503014424641933
 30
0.0
 10
9.760125901963976
 20
5.174709710015198
 30
0.0
 10
9.560986836751301
 20
6.018542785644538
 30
0.0
 10
9.560986836751301
 20
7.011098192003045
 30
0.0
 10
9.560986836751301
 20
7.850126444498705
 30
0.0
 10
9.71366712782118
 20
8.616778869628913
 30
0.0
 10
10.01479254828559
 20
9.289764370388461
 30
0.0
 10
10.30908457438151
 20
9.94731984456381
 30
0.0
 10
10.74627855088976
 20
10.47520952012805
 30
0.0
 10
11.31425052218967
 20
10.8586951022678
 30
0.0
 10
11.87827809651693
 20
11.23948666042752
 30
0.0
 10
12.57483418782552
 20
11.43256968180339
 30
0.0
 10
13.38454182942708
 20
11.43256968180339
 30
0.0
 10
13.77884758843316
 20
11.43256968180339
 30
0.0
 10
14.11977810329861
 20
11.34472313774957
 30
0.0
 10
14.42679172092014
 20
11.16402855767145
 30
0.0
 10
14.72759670681424
 20
10.98683332655166
 30
0.0
 10
14.93708292643229
 20
10.77120968288846
 30
0.0
 10
15.06711154513889
 20
10.50488956027561
 30
0.0
 10
15.06711154513889
 20
10.50488956027561
 30
0.0
 10
15.48638916015625
 20
9.646167297363288
 30
0.0
 10
15.48638916015625
 20
9.646167297363288
 30
0.0
 10
15.48638916015625
 20
9.646167297363288
 30
0.0
 10
15.89323594835069
 20
11.25318057590061
 30
0.0
 10
15.89323594835069
 20
11.25318057590061
 30
0.0
 10
15.89323594835069
 20
11.25318057590061
 30
0.0
 10
17.08851453993055
 20
11.25318057590061
 30
0.0
 10
17.08851453993055
 20
11.25318057590061
 30
0.0
 10
17.08851453993055
 20
11.25318057590061
 30
0.0
 10
17.08851453993055
 20
8.138388705783427
 30
0.0
 10
17.08851453993055
 20
8.138388705783427
 30
0.0
 10
17.08851453993055
 20
8.138388705783427
 30
0.0
 10
15.91929287380642
 20
8.138388705783427
 30
0.0
 10
15.91929287380642
 20
8.138388705783427
 30
0.0
 10
15.89584859212239
 20
8.636069369845927
 30
0.0
 10
15.76047261555989
 20
9.05931935628256
 30
0.0
 10
15.51602851019965
 20
9.398249274359815
 30
0.0
 10
15.22440422905816
 20
9.80233252631294
 30
0.0
 10
14.77684868706597
 20
10.01588775634766
 30
0.0
 10
14.22165340847439
 20
10.01588775634766
 30
0.0
 10
13.82958390977647
 20
10.01588775634766
 30
0.0
 10
13.47020890977647
 20
9.86809621175131
 30
0.0
 10
13.15351443820529
 20
9.57662451850044
 30
0.0
 10
12.86337534586588
 20
9.309375305175788
 30
0.0
 10
12.63402811686198
 20
8.959096238878045
 30
0.0
 10
12.47173648410373
 20
8.535444437662767
 30
0.0
 10
12.31352827284071
 20
8.122207607693149
 30
0.0
 10
12.23331960042318
 20
7.689819302029086
 30
0.0
 10
12.23331960042318
 20
7.250250888400615
 30
0.0
 10
12.23331960042318
 20
6.384667256673183
 30
0.0
 10
12.45995839436849
 20
5.689125874837246
 30
0.0
 10
12.90693071153429
 20
5.182946065266933
 30
0.0
 10
13.36493089463976
 20
4.66404381646051
 30
0.0
 10
13.99234771728516
 20
4.400890740288635
 30
0.0
 10
14.77173699273003
 20
4.400890740288635
 30
0.0
 10
15.29157002766927
 20
4.400890740288635
 30
0.0
 10
15.78283352322049
 20
4.489349331325962
 30
0.0
 10
16.23187594943576
 20
4.663835279676656
 30
0.0
 10
16.47640313042535
 20
4.758780551486552
 30
0.0
 10
16.69879319932726
 20
4.859224073621968
 30
0.0
 10
16.8971676296658
 20
4.964224887424052
 30
0.0
 10
16.8971676296658
 20
4.964224887424052
 30
0.0
 10
16.8971676296658
 20
3.115403883192281
 30
0.0
 10
16.8971676296658
 20
3.115403883192281
 30
0.0
 10
16.48861185709635
 20
2.899627651638462
 30
0.0
 10
16.05683390299479
 20
2.744764506022142
 30
0.0
 10
15.61102803548177
 20
2.654374830457906
 30
0.0
 10
15.0859866672092
 20
2.547905782063809
 30
0.0
 10
14.51793077256944
 20
2.493930358886726
 30
0.0
 10
13.92266676161024
 20
2.493930358886726
 30
0.0
  0
ENDBLK
  5
5D
330
5A
100
AcDbEntity
  8
0
100
AcDbBlockEnd
  0
BLOCK
  5
63
330
61
100
AcDbEntity
  8
0
100
AcDbBlockBegin
  2
block 5
 70
     0
 10
0.0
 20
0.0
 30
0.0
  3
block 5
  1

  0
SPLINE
  5
65
330
61
100
AcDbEntity
  8
Layer 1
 62
     7
420
 16777215
370
    35
100
AcDbSpline
210
0.0
220
0.0
230
1.0
 70
    11
 71
     3
 72
    38
 73
    34
 74
     0
 42
0.0000000001
 43
0.0000000001
 12
1.0
 22
0.0
 32
0.0
 13
1.0
 23
0.0
 33
0.0
 40
0.0
 40
0.0
 40
0.0
 40
0.0
 40
1.0
 40
1.0
 40
1.0
 40
2.0
 40
2.0
 40
2.0
 40
3.0
 40
3.0
 40
3.0
 40
4.0
 40
4.0
 40
4.0
 40
5.0
 40
5.0
 40
5.0
 40
6.0
 40
6.0
 40
6.0
 40
7.0
 40
7.0
 40
7.0
 40
8.0
 40
8.0
 40
8.0
 40
9.0
 40
9.0
 40
9.0
 40
10.0
 40
10.0
 40
10.0
 40
11.0
 40
11.0
 40
11.0
 40
11.0
 10
13.82265302870009
 20
21.304543355306
 30
0.0
 10
14.00120883517795
 20
21.26005720350478
 30
0.0
 10
14.1682366265191
 20
21.1918487209744
 30
0.0
 10
14.32619391547309
 20
21.09889048258464
 30
0.0
 10
14.62699890136719
 20
20.92169609917535
 30
0.0
 10
14.83648512098524
 20
20.70607076009115
 30
0.0
 10
14.96651373969184
 20
20.43975148518881
 30
0.0
 10
14.96651373969184
 20
20.43975148518881
 30
0.0
 10
15.3857913547092
 20
19.58102922227648
 30
0.0
 10
15.3857913547092
 20
19.58102922227648
 30
0.0
 10
15.3857913547092
 20
19.58102922227648
 30
0.0
 10
15.7835693359375
 20
21.15223775227865
 30
0.0
 10
15.7835693359375
 20
21.15223775227865
 30
0.0
 10
15.7835693359375
 20
21.15223775227865
 30
0.0
 10
15.7835693359375
 20
21.53804351806641
 30
0.0
 10
15.7835693359375
 20
21.53804351806641
 30
0.0
 10
15.7835693359375
 20
21.53804351806641
 30
0.0
 10
15.52019415961371
 20
21.53804351806641
 30
0.0
 10
15.52019415961371
 20
21.53804351806641
 30
0.0
 10
15.52019415961371
 20
21.53804351806641
 30
0.0
 10
15.28101433648003
 20
20.59332102457683
 30
0.0
 10
15.28101433648003
 20
20.59332102457683
 30
0.0
 10
15.12144470214844
 20
20.92012698703343
 30
0.0
 10
14.86247253417969
 20
21.18919623480904
 30
0.0
 10
14.50370958116319
 20
21.40052961561415
 30
0.0
 10
14.29319593641493
 20
21.5244182671441
 30
0.0
 10
14.06608496771918
 20
21.61173753526476
 30
0.0
 10
13.82264031304253
 20
21.66298756917318
 30
0.0
 10
13.82264031304253
 20
21.66298756917318
 30
0.0
 10
13.82265302870009
 20
21.304543355306
 30
0.0
 10
13.82265302870009
 20
21.304543355306
 30
0.0
 10
13.82265302870009
 20
21.304543355306
 30
0.0
 10
13.82265302870009
 20
21.304543355306
 30
0.0
 10
13.82265302870009
 20
21.304543355306
 30
0.0
  0
SPLINE
  5
66
330
61
100
AcDbEntity
  8
Layer 1
 62
     7
420
 16777215
370
    35
100
AcDbSpline
210
0.0
220
0.0
230
1.0
 70
    11
 71
     3
 72
   149
 73
   145
 74
     0
 42
0.0000000001
 43
0.0000000001
 12
1.0
 22
0.0
 32
0.0
 13
1.0
 23
0.0
 33
0.0
 40
0.0
 40
0.0
 40
0.0
 40
0.0
 40
1.0
 40
1.0
 40
1.0
 40
2.0
 40
2.0
 40
2.0
 40
3.0
 40
3.0
 40
3.0
 40
4.0
 40
4.0
 40
4.0
 40
5.0
 40
5.0
 40
5.0
 40
6.0
 40
6.0
 40
6.0
 40
7.0
 40
7.0
 40
7.0
 40
8.0
 40
8.0
 40
8.0
 40
9.0
 40
9.0
 40
9.0
 40
10.0
 40
10.0
 40
10.0
 40
11.0
 40
11.0
 40
11.0
 40
12.0
 40
12.0
 40
12.0
 40
13.0
 40
13.0
 40
13.0
 40
14.0
 40
14.0
 40
14.0
 40
15.0
 40
15.0
 40
15.0
 40
16.0
 40
16.0
 40
16.0
 40
17.0
 40
17.0
 40
17.0
 40
18.0
 40
18.0
 40
18.0
 40
19.0
 40
19.0
 40
19.0
 40
20.0
 40
20.0
 40
20.0
 40
21.0
 40
21.0
 40
21.0
 40
22.0
 40
22.0
 40
22.0
 40
23.0
 40
23.0
 40
23.0
 40
24.0
 40
24.0
 40
24.0
 40
25.0
 40
25.0
 40
25.0
 40
26.0
 40
26.0
 40
26.0
 40
27.0
 40
27.0
 40
27.0
 40
28.0
 40
28.0
 40
28.0
 40
29.0
 40
29.0
 40
29.0
 40
30.0
 40
30.0
 40
30.0
 40
31.0
 40
31.0
 40
31.0
 40
32.0
 40
32.0
 40
32.0
 40
33.0
 40
33.0
 40
33.0
 40
34.0
 40
34.0
 40
34.0
 40
35.0
 40
35.0
 40
35.0
 40
36.0
 40
36.0
 40
36.0
 40
37.0
 40
37.0
 40
37.0
 40
38.0
 40
38.0
 40
38.0
 40
39.0
 40
39.0
 40
39.0
 40
40.0
 40
40.0
 40
40.0
 40
41.0
 40
41.0
 40
41.0
 40
42.0
 40
42.0
 40
42.0
 40
43.0
 40
43.0
 40
43.0
 40
44.0
 40
44.0
 40
44.0
 40
45.0
 40
45.0
 40
45.0
 40
46.0
 40
46.0
 40
46.0
 40
47.0
 40
47.0
 40
47.0
 40
48.0
 40
48.0
 40
48.0
 40
48.0
 10
17.3379160563151
 20
17.72325130886502
 30
0.0
 10
17.3379160563151
 20
17.72325130886502
 30
0.0
 10
17.3379160563151
 20
21.53804351806641
 30
0.0
 10
17.3379160563151
 20
21.53804351806641
 30
0.0
 10
17.3379160563151
 20
21.53804351806641
 30
0.0
 10
16.98791673448351
 20
21.53804351806641
 30
0.0
 10
16.98791673448351
 20
21.53804351806641
 30
0.0
 10
16.98791673448351
 20
21.53804351806641
 30
0.0
 10
16.98791673448351
 20
21.18804334852431
 30
0.0
 10
16.98791673448351
 20
21.18804334852431
 30
0.0
 10
16.98791673448351
 20
21.18804334852431
 30
0.0
 10
16.98791673448351
 20
20.85501519097223
 30
0.0
 10
16.98791673448351
 20
20.85501519097223
 30
0.0
 10
16.98791673448351
 20
20.85501519097223
 30
0.0
 10
16.98791673448351
 20
18.07325147840712
 30
0.0
 10
16.98791673448351
 20
18.07325147840712
 30
0.0
 10
16.98791673448351
 20
18.07325147840712
 30
0.0
 10
15.81869506835938
 20
18.07325147840712
 30
0.0
 10
15.81869506835938
 20
18.07325147840712
 30
0.0
 10
15.79525078667535
 20
18.57093214246962
 30
0.0
 10
15.65987481011285
 20
18.99418212890626
 30
0.0
 10
15.4154307047526
 20
19.33311289469401
 30
0.0
 10
15.12380642361111
 20
19.73719614664714
 30
0.0
 10
14.67625088161892
 20
19.95075137668186
 30
0.0
 10
14.12105560302734
 20
19.95075137668186
 30
0.0
 10
13.72898610432943
 20
19.95075137668186
 30
0.0
 10
13.36961110432943
 20
19.80295983208551
 30
0.0
 10
13.05291663275825
 20
19.51148729112414
 30
0.0
 10
12.76277754041884
 20
19.24423723008898
 30
0.0
 10
12.53343031141493
 20
18.89395985921225
 30
0.0
 10
12.37113867865668
 20
18.47030636257596
 30
0.0
 10
12.21293046739366
 20
18.05707038031685
 30
0.0
 10
12.13272179497613
 20
17.62468122694228
 30
0.0
 10
12.13272179497613
 20
17.18511281331381
 30
0.0
 10
12.13272179497613
 20
16.31952918158638
 30
0.0
 10
12.35936058892144
 20
15.62398779975044
 30
0.0
 10
12.80633290608724
 20
15.11780799018013
 30
0.0
 10
13.26433308919271
 20
14.5989057413737
 30
0.0
 10
13.89174991183811
 20
14.33575266520183
 30
0.0
 10
14.67113918728299
 20
14.33575266520183
 30
0.0
 10
15.19097222222222
 20
14.33575266520183
 30
0.0
 10
15.68223571777344
 20
14.42421125623916
 30
0.0
 10
16.13127814398872
 20
14.59869720458985
 30
0.0
 10
16.3758053249783
 20
14.69364247639975
 30
0.0
 10
16.59819539388021
 20
14.79408599853516
 30
0.0
 10
16.79656982421875
 20
14.89908681233725
 30
0.0
 10
16.79656982421875
 20
14.89908681233725
 30
0.0
 10
16.79656982421875
 20
13.05026750352648
 30
0.0
 10
16.79656982421875
 20
13.05026750352648
 30
0.0
 10
16.3880140516493
 20
12.83448957655166
 30
0.0
 10
15.95623609754774
 20
12.67962812635634
 30
0.0
 10
15.51043023003472
 20
12.58924014621311
 30
0.0
 10
14.98540242513021
 20
12.48278127034506
 30
0.0
 10
14.41734653049045
 20
12.42879567464193
 30
0.0
 10
13.82206895616319
 20
12.42879567464193
 30
0.0
 10
13.02037472195095
 20
12.42879567464193
 30
0.0
 10
12.27912478976779
 20
12.59907358805339
 30
0.0
 10
11.61893039279514
 20
12.93487884521485
 30
0.0
 10
10.96937476264106
 20
13.26503156873916
 30
0.0
 10
10.4423336452908
 20
13.77068410237631
 30
0.0
 10
10.05233340793186
 20
14.43787974039714
 30
0.0
 10
9.659528096516926
 20
15.10957502577041
 30
0.0
 10
9.460389031304253
 20
15.95340810139975
 30
0.0
 10
9.460389031304253
 20
16.94596350775825
 30
0.0
 10
9.460389031304253
 20
17.78499176025391
 30
0.0
 10
9.613069322374132
 20
18.55164418538412
 30
0.0
 10
9.914194742838541
 20
19.22462968614367
 30
0.0
 10
10.20848676893446
 20
19.88218516031901
 30
0.0
 10
10.64568074544271
 20
20.41007398817275
 30
0.0
 10
11.21365271674262
 20
20.79356041802301
 30
0.0
 10
11.39791700575087
 20
20.91796278211806
 30
0.0
 10
11.59643046061198
 20
21.02219896104601
 30
0.0
 10
11.80830552842882
 20
21.10633846706815
 30
0.0
 10
11.80830552842882
 20
21.10633846706815
 30
0.0
 10
11.80830552842882
 20
21.48108839246962
 30
0.0
 10
11.80830552842882
 20
21.48108839246962
 30
0.0
 10
11.52515241834852
 20
21.38060248480904
 30
0.0
 10
11.26158311631944
 20
21.24821299235026
 30
0.0
 10
11.01779174804688
 20
21.08361643473308
 30
0.0
 10
10.39183383517795
 20
20.66094967312284
 30
0.0
 10
9.917611016167534
 20
20.08900533040365
 30
0.0
 10
9.594722323947481
 20
19.36756045871311
 30
0.0
 10
9.27183363172743
 20
18.64593502468534
 30
0.0
 10
9.110388861762152
 20
17.83872643364801
 30
0.0
 10
9.110388861762152
 20
16.9459499443902
 30
0.0
 10
9.110388861762152
 20
15.88554718017579
 30
0.0
 10
9.323597378200954
 20
14.99071414523655
 30
0.0
 10
9.750166998969183
 20
14.26124230278863
 30
0.0
 10
10.17656962076823
 20
13.53177046034072
 30
0.0
 10
10.74666680230035
 20
12.98558888753256
 30
0.0
 10
11.46025000678168
 20
12.62290951199002
 30
0.0
 10
12.17365264892578
 20
12.26003516303169
 30
0.0
 10
12.96105533175998
 20
12.07878448486329
 30
0.0
 10
13.82206895616319
 20
12.07878448486329
 30
0.0
 10
14.44391547309028
 20
12.07878448486329
 30
0.0
 10
15.02988857693142
 20
12.13465877956815
 30
0.0
 10
15.57997131347656
 20
12.24621578640409
 30
0.0
 10
16.13006930881076
 20
12.35775753445096
 30
0.0
 10
16.65213860405816
 20
12.55714582655166
 30
0.0
 10
17.14655388726128
 20
12.84414669460721
 30
0.0
 10
17.14655388726128
 20
12.84414669460721
 30
0.0
 10
17.14655388726128
 20
15.33153615315756
 30
0.0
 10
17.14655388726128
 20
15.33153615315756
 30
0.0
 10
17.14655388726128
 20
15.33153615315756
 30
0.0
 10
17.01499769422743
 20
15.43916147867839
 30
0.0
 10
17.01499769422743
 20
15.43916147867839
 30
0.0
 10
16.75191413031684
 20
15.25567454020183
 30
0.0
 10
16.41501193576389
 20
15.084328511556
 30
0.0
 10
16.00449795193142
 20
14.9249538506402
 30
0.0
 10
15.59380425347222
 20
14.7653842163086
 30
0.0
 10
15.14947001139323
 20
14.68577402750652
 30
0.0
 10
14.67112223307292
 20
14.68577402750652
 30
0.0
 10
13.99341413709852
 20
14.68577402750652
 30
0.0
 10
13.45919121636285
 20
14.90702477349176
 30
0.0
 10
13.06867811414931
 20
15.34948218451606
 30
0.0
 10
12.67797003851996
 20
15.79194129096138
 30
0.0
 10
12.48270585801866
 20
16.40370513916016
 30
0.0
 10
12.48270585801866
 20
17.18512129041884
 30
0.0
 10
12.48270585801866
 20
17.58367746988933
 30
0.0
 10
12.55445607503255
 20
17.97027414957683
 30
0.0
 10
12.69795566134983
 20
18.3451215616862
 30
0.0
 10
12.84146965874566
 20
18.71976043701173
 30
0.0
 10
13.03877512613932
 20
19.02264909532336
 30
0.0
 10
13.28991360134549
 20
19.2539825100369
 30
0.0
 10
13.54105292426215
 20
19.48512179904515
 30
0.0
 10
13.8179694281684
 20
19.60077409532336
 30
0.0
 10
14.12103864881727
 20
19.60077409532336
 30
0.0
 10
14.56742689344618
 20
19.60077409532336
 30
0.0
 10
14.90433078342014
 20
19.44326015896268
 30
0.0
 10
15.13153923882378
 20
19.12841284857857
 30
0.0
 10
15.35874769422743
 20
18.81337141248915
 30
0.0
 10
15.47235785590278
 20
18.40882954915365
 30
0.0
 10
15.47235785590278
 20
17.91460754394532
 30
0.0
 10
15.47235785590278
 20
17.91460754394532
 30
0.0
 10
15.47235785590278
 20
17.72327504475912
 30
0.0
 10
15.47235785590278
 20
17.72327504475912
 30
0.0
 10
15.47235785590278
 20
17.72327504475912
 30
0.0
 10
17.3379143608941
 20
17.72327504475912
 30
0.0
 10
17.3379143608941
 20
17.72327504475912
 30
0.0
 10
17.3379143608941
 20
17.72327504475912
 30
0.0
 10
17.3379143608941
 20
17.72325130886502
 30
0.0
 10
17.3379143608941
 20
17.72325130886502
 30
0.0
 10
17.3379143608941
 20
17.72325130886502
 30
0.0
 10
17.3379160563151
 20
17.72325130886502
 30
0.0
 10
17.3379160563151
 20
17.72325130886502
 30
0.0
  0
ENDBLK
  5
64
330
61
100
AcDbEntity
  8
0
100
AcDbBlockEnd
  0
ENDSEC
  0
SECTION
  2
ENTITIES
  0
POLYLINE
  5
41
330
1F
100
AcDbEntity
  8
Layer 1
 62
     7
420
 16777215
370
    30
100
AcDb2dPolyline
 66
     1
 10
0.0
 20
0.0
 30
0.0
  0
VERTEX
  5
42
330
41
100
AcDbEntity
  8
Layer 1
 62
     7
420
 16777215
370
    30
100
AcDbVertex
100
AcDb2dVertex
 10
9.355528089735243
 20
25.23325132581923
 30
0.0
  0
VERTEX
  5
43
330
41
100
AcDbEntity
  8
Layer 1
 62
     7
420
 16777215
370
    30
100
AcDbVertex
100
AcDb2dVertex
 10
9.355528089735243
 20
23.47619540744358
 30
0.0
  0
VERTEX
  5
44
330
41
100
AcDbEntity
  8
Layer 1
 62
     7
420
 16777215
370
    30
100
AcDbVertex
100
AcDb2dVertex
 10
17.29393174913194
 20
23.47619540744358
 30
0.0
  0
VERTEX
  5
45
330
41
100
AcDbEntity
  8
Layer 1
 62
     7
420
 16777215
370
    30
100
AcDbVertex
100
AcDb2dVertex
 10
17.29393174913194
 20
25.23325132581923
 30
0.0
  0
VERTEX
  5
46
330
41
100
AcDbEntity
  8
Layer 1
 62
     7
420
 16777215
370
    30
100
AcDbVertex
100
AcDb2dVertex
 10
9.355528089735243
 20
25.23325132581923
 30
0.0
  0
SEQEND
  5
47
330
41
100
AcDbEntity
  8
Layer 1
 62
     7
420
 16777215
370
    30
  0
POLYLINE
  5
48
330
1F
100
AcDbEntity
  8
Layer 1
 62
     7
420
 16777215
370
    30
100
AcDb2dPolyline
 66
     1
 10
0.0
 20
0.0
 30
0.0
  0
VERTEX
  5
49
330
48
100
AcDbEntity
  8
Layer 1
 62
     7
420
 16777215
370
    30
100
AcDbVertex
100
AcDb2dVertex
 10
15.16707017686632
 20
24.65589053683811
 30
0.0
  0
VERTEX
  5
4A
330
48
100
AcDbEntity
  8
Layer 1
 62
     7
420
 16777215
370
    30
100
AcDbVertex
100
AcDb2dVertex
 10
11.58116658528646
 20
24.65589053683811
 30
0.0
  0
VERTEX
  5
4B
330
48
100
AcDbEntity
  8
Layer 1
 62
     7
420
 16777215
370
    30
100
AcDbVertex
100
AcDb2dVertex
 10
11.58116658528646
 20
24.86589046902127
 30
0.0
  0
VERTEX
  5
4C
330
48
100
AcDbEntity
  8
Layer 1
 62
     7
420
 16777215
370
    30
100
AcDbVertex
100
AcDb2dVertex
 10
15.16707017686632
 20
24.86589046902127
 30
0.0
  0
VERTEX
  5
4D
330
48
100
AcDbEntity
  8
Layer 1
 62
     7
420
 16777215
370
    30
100
AcDbVertex
100
AcDb2dVertex
 10
15.16707017686632
 20
24.65589053683811
 30
0.0
  0
SEQEND
  5
4E
330
48
100
AcDbEntity
  8
Layer 1
 62
     7
420
 16777215
370
    30
  0
INSERT
  5
50
330
1F
100
AcDbEntity
  8
Layer 1
100
AcDbBlockReference
  2
block 2
 10
0.0
 20
0.0
 30
0.0
  0
INSERT
  5
55
330
1F
100
AcDbEntity
  8
Layer 1
100
AcDbBlockReference
  2
block 3
 10
0.0
 20
0.0
 30
0.0
  0
INSERT
  5
5B
330
1F
100
AcDbEntity
  8
Layer 1
100
AcDbBlockReference
  2
block 4
 10
0.0
 20
0.0
 30
0.0
  0
SPLINE
  5
60
330
1F
100
AcDbEntity
  8
Layer 1
 62
     7
420
 16777215
370
    35
100
AcDbSpline
210
0.0
220
0.0
230
1.0
 70
    11
 71
     3
 72
   104
 73
   100
 74
     0
 42
0.0000000001
 43
0.0000000001
 12
1.0
 22
0.0
 32
0.0
 13
1.0
 23
0.0
 33
0.0
 40
0.0
 40
0.0
 40
0.0
 40
0.0
 40
1.0
 40
1.0
 40
1.0
 40
2.0
 40
2.0
 40
2.0
 40
3.0
 40
3.0
 40
3.0
 40
4.0
 40
4.0
 40
4.0
 40
5.0
 40
5.0
 40
5.0
 40
6.0
 40
6.0
 40
6.0
 40
7.0
 40
7.0
 40
7.0
 40
8.0
 40
8.0
 40
8.0
 40
9.0
 40
9.0
 40
9.0
 40
10.0
 40
10.0
 40
10.0
 40
11.0
 40
11.0
 40
11.0
 40
12.0
 40
12.0
 40
12.0
 40
13.0
 40
13.0
 40
13.0
 40
14.0
 40
14.0
 40
14.0
 40
15.0
 40
15.0
 40
15.0
 40
16.0
 40
16.0
 40
16.0
 40
17.0
 40
17.0
 40
17.0
 40
18.0
 40
18.0
 40
18.0
 40
19.0
 40
19.0
 40
19.0
 40
20.0
 40
20.0
 40
20.0
 40
21.0
 40
21.0
 40
21.0
 40
22.0
 40
22.0
 40
22.0
 40
23.0
 40
23.0
 40
23.0
 40
24.0
 40
24.0
 40
24.0
 40
25.0
 40
25.0
 40
25.0
 40
26.0
 40
26.0
 40
26.0
 40
27.0
 40
27.0
 40
27.0
 40
28.0
 40
28.0
 40
28.0
 40
29.0
 40
29.0
 40
29.0
 40
30.0
 40
30.0
 40
30.0
 40
31.0
 40
31.0
 40
31.0
 40
32.0
 40
32.0
 40
32.0
 40
33.0
 40
33.0
 40
33.0
 40
33.0
 10
8.771708170572916
 20
27.84618204752605
 30
0.0
 10
8.771708170572916
 20
27.84618204752605
 30
0.0
 10
8.771708170572916
 20
31.66097370041742
 30
0.0
 10
8.771708170572916
 20
31.66097370041742
 30
0.0
 10
8.771708170572916
 20
31.66097370041742
 30
0.0
 10
6.953999837239583
 20
31.66097370041742
 30
0.0
 10
6.953999837239583
 20
31.66097370041742
 30
0.0
 10
6.953999837239583
 20
31.66097370041742
 30
0.0
 10
6.714819166395399
 20
30.71623756408692
 30
0.0
 10
6.714819166395399
 20
30.71623756408692
 30
0.0
 10
6.555249532063802
 20
31.04304310268827
 30
0.0
 10
6.296277364095052
 20
31.3121125623915
 30
0.0
 10
5.937513563368055
 20
31.52344589021471
 30
0.0
 10
5.578749762641059
 20
31.73459865570069
 30
0.0
 10
5.172166188557942
 20
31.84034866015117
 30
0.0
 10
4.717735714382595
 20
31.84034866015117
 30
0.0
 10
3.83280520968967
 20
31.84034866015117
 30
0.0
 10
3.07736078898112
 20
31.62901533232795
 30
0.0
 10
2.451583014594184
 20
31.20654314676921
 30
0.0
 10
1.825624677870008
 20
30.78387649112278
 30
0.0
 10
1.35140249464247
 20
30.21193204243978
 30
0.0
 10
1.028513590494792
 20
29.4904875946045
 30
0.0
 10
0.7056246863471137
 20
28.76886258443197
 30
0.0
 10
0.5441802342732747
 20
27.96165420532227
 30
0.0
 10
0.5441802342732747
 20
27.0688764444987
 30
0.0
 10
0.5441802342732747
 20
26.00847368028429
 30
0.0
 10
0.7573885387844509
 20
25.11364064534506
 30
0.0
 10
1.183958053588867
 20
24.38416795518664
 30
0.0
 10
1.610360887315538
 20
23.65469611273872
 30
0.0
 10
2.180458068847656
 20
23.10851538764107
 30
0.0
 10
2.894041273328993
 20
22.74583431667752
 30
0.0
 10
3.38568009270562
 20
22.49576480441624
 30
0.0
 10
3.912457784016927
 20
22.33197357177735
 30
0.0
 10
4.474249521891275
 20
22.25429277208117
 30
0.0
 10
4.474193996853298
 20
22.25429277208117
 30
0.0
 10
4.474138471815321
 20
22.25429277208117
 30
0.0
 10
4.474082946777344
 20
22.25429277208117
 30
0.0
 10
4.093416425916883
 20
22.24570970323351
 30
0.0
 10
3.762096828884548
 20
22.22897335476346
 30
0.0
 10
3.494513617621528
 20
22.21170973036025
 30
0.0
 10
3.494513617621528
 20
22.14171003553603
 30
0.0
 10
3.494513617621528
 20
22.07170949300131
 30
0.0
 10
3.494513617621528
 20
22.00170979817709
 30
0.0
 10
3.494513617621528
 20
22.00170979817709
 30
0.0
 10
7.080416785346137
 20
22.00170979817709
 30
0.0
 10
7.080416785346137
 20
22.00170979817709
 30
0.0
 10
7.080416785346137
 20
22.00170979817709
 30
0.0
 10
7.080416785346137
 20
22.21170973036025
 30
0.0
 10
7.080416785346137
 20
22.21170973036025
 30
0.0
 10
6.72076416015625
 20
22.22523749457466
 30
0.0
 10
6.401555803087022
 20
22.23447330050999
 30
0.0
 10
6.131972418891059
 20
22.240945570204
 30
0.0
 10
6.435458713107638
 20
22.26883439805773
 30
0.0
 10
6.729444715711805
 20
22.31148695203994
 30
0.0
 10
7.013750288221571
 20
22.36913974338108
 30
0.0
 10
7.563847859700521
 20
22.48068149142796
 30
0.0
 10
8.085917154947916
 20
22.68007063123915
 30
0.0
 10
8.580333285861546
 20
22.96707065158421
 30
0.0
 10
8.580333285861546
 20
22.96707065158421
 30
0.0
 10
8.580333285861546
 20
25.4544596862793
 30
0.0
 10
8.580333285861546
 20
25.4544596862793
 30
0.0
 10
8.580333285861546
 20
25.4544596862793
 30
0.0
 10
8.448777940538195
 20
25.56208458794488
 30
0.0
 10
8.448777940538195
 20
25.56208458794488
 30
0.0
 10
8.185694376627604
 20
25.37859849717882
 30
0.0
 10
7.848792182074653
 20
25.20725119696723
 30
0.0
 10
7.438278198242188
 20
25.04787611219619
 30
0.0
 10
7.027583652072482
 20
24.88830647786459
 30
0.0
 10
6.583250257703993
 20
24.808695441352
 30
0.0
 10
6.104903327094184
 20
24.808695441352
 30
0.0
 10
5.427195231119791
 20
24.808695441352
 30
0.0
 10
4.892972734239366
 20
25.02994533962674
 30
0.0
 10
4.502458784315321
 20
25.47240359836155
 30
0.0
 10
4.111750284830729
 20
25.91486185709636
 30
0.0
 10
3.916486528184679
 20
26.52662570529515
 30
0.0
 10
3.916486528184679
 20
27.30804270426433
 30
0.0
 10
3.916486528184679
 20
27.70659803602431
 30
0.0
 10
3.988236321343316
 20
28.09319556342231
 30
0.0
 10
4.131736331515842
 20
28.46804255167644
 30
0.0
 10
4.275250328911675
 20
28.84268142700196
 30
0.0
 10
4.472555796305338
 20
29.14557029724122
 30
0.0
 10
4.723694695366754
 20
29.37690371195476
 30
0.0
 10
4.974833594428168
 20
29.60804257710775
 30
0.0
 10
5.251750098334418
 20
29.72369529724122
 30
0.0
 10
5.554819742838541
 20
29.72369529724122
 30
0.0
 10
6.001208835177951
 20
29.72369529724122
 30
0.0
 10
6.338111453586154
 20
29.56618136088054
 30
0.0
 10
6.565319485134548
 20
29.25133426242405
 30
0.0
 10
6.792527940538194
 20
28.93629261440702
 30
0.0
 10
6.906138949924045
 20
28.53175096299914
 30
0.0
 10
6.906138949924045
 20
28.0375289577908
 30
0.0
 10
6.906138949924045
 20
28.0375289577908
 30
0.0
 10
6.906138949924045
 20
27.8461956108941
 30
0.0
 10
6.906138949924045
 20
27.8461956108941
 30
0.0
 10
6.906138949924045
 20
27.8461956108941
 30
0.0
 10
8.771708170572916
 20
27.84618204752605
 30
0.0
 10
8.771708170572916
 20
27.84618204752605
 30
0.0
 10
8.771708170572916
 20
27.84618204752605
 30
0.0
 10
8.771708170572916
 20
27.84618204752605
 30
0.0
 10
8.771708170572916
 20
27.84618204752605
 30
0.0
  0
INSERT
  5
62
330
1F
100
AcDbEntity
  8
Layer 1
100
AcDbBlockReference
  2
block 5
 10
0.0
 20
0.0
 30
0.0
  0
ENDSEC
  0
SECTION
  2
OBJECTS
  0
DICTIONARY
  5
C
330
0
100
AcDbDictionary
281
     1
  3
ACAD_GROUP
350
D
  3
ACAD_LAYOUT
350
1A
  3
ACAD_MATERIAL
350
3B
  3
ACAD_MLEADERSTYLE
350
68
  3
ACAD_MLINESTYLE
350
17
  3
ACAD_PLOTSETTINGS
350
19
  3
ACAD_PLOTSTYLENAME
350
E
  3
ACAD_TABLESTYLE
350
67
  3
ACAD_VISUALSTYLE
350
2A
  0
SUN
  5
3F
330
29
100
AcDbSun
 90
        1
290
     0
 63
     7
421
 16777215
 40
1.0
291
     1
 91
  2455826
 92
 54000000
292
     0
 70
     2
 71
   256
280
     1
  0
DICTIONARY
  5
D
102
{ACAD_REACTORS
330
C
102
}
330
C
100
AcDbDictionary
281
     1
  0
DICTIONARY
  5
1A
102
{ACAD_REACTORS
330
C
102
}
330
C
100
AcDbDictionary
281
     1
  3
Layout1
350
1E
  3
Layout2
350
26
  3
Model
350
22
  0
DICTIONARY
  5
3B
102
{ACAD_REACTORS
330
C
102
}
330
C
100
AcDbDictionary
281
     1
  3
ByBlock
350
3D
  3
ByLayer
350
3C
  3
Global
350
3E
  0
DICTIONARY
  5
68
102
{ACAD_REACTORS
330
C
102
}
330
C
100
AcDbDictionary
281
     1
  0
DICTIONARY
  5
17
102
{ACAD_REACTORS
330
C
102
}
330
C
100
AcDbDictionary
281
     1
  3
Standard
350
18
  0
DICTIONARY
  5
19
102
{ACAD_REACTORS
330
C
102
}
330
C
100
AcDbDictionary
281
     1
  0
ACDBDICTIONARYWDFLT
  5
E
102
{ACAD_REACTORS
330
C
102
}
330
C
100
AcDbDictionary
281
     1
  3
Normal
350
F
100
AcDbDictionaryWithDefault
340
F
  0
DICTIONARY
  5
67
102
{ACAD_REACTORS
330
C
102
}
330
C
100
AcDbDictionary
281
     1
  0
DICTIONARY
  5
2A
102
{ACAD_REACTORS
330
C
102
}
330
C
100
AcDbDictionary
281
     1
  3
2dWireframe
350
2F
  3
3D Hidden
350
31
  3
3dWireframe
350
30
  3
Basic
350
32
  3
Brighten
350
36
  3
ColorChange
350
3A
  3
Conceptual
350
34
  3
Dim
350
35
  3
Facepattern
350
39
  3
Flat
350
2B
  3
FlatWithEdges
350
2C
  3
Gouraud
350
2D
  3
GouraudWithEdges
350
2E
  3
Linepattern
350
38
  3
Realistic
350
33
  3
Thicken
350
37
  0
LAYOUT
  5
1E
102
{ACAD_REACTORS
330
1A
102
}
330
1A
100
AcDbPlotSettings
  1

  2
none_device
  4

  6

 40
0.0
 41
0.0
 42
0.0
 43
0.0
 44
0.0
 45
0.0
 46
0.0
 47
0.0
 48
0.0
 49
0.0
140
0.0
141
0.0
142
1.0
143
1.0
 70
   688
 72
     0
 73
     0
 74
     5
  7

 75
    16
 76
     0
 77
     2
 78
   300
147
1.0
148
0.0
149
0.0
100
AcDbLayout
  1
Layout1
 70
     1
 71
     1
 10
0.0
 20
0.0
 11
12.0
 21
9.0
 12
0.0
 22
0.0
 32
0.0
 14
1.000000000000000E+20
 24
1.000000000000000E+20
 34
1.000000000000000E+20
 15
-1.000000000000000E+20
 25
-1.000000000000000E+20
 35
-1.000000000000000E+20
146
0.0
 13
0.0
 23
0.0
 33
0.0
 16
1.0
 26
0.0
 36
0.0
 17
0.0
 27
1.0
 37
0.0
 76
     0
330
1B
  0
LAYOUT
  5
26
102
{ACAD_REACTORS
330
1A
102
}
330
1A
100
AcDbPlotSettings
  1

  2
none_device
  4

  6

 40
0.0
 41
0.0
 42
0.0
 43
0.0
 44
0.0
 45
0.0
 46
0.0
 47
0.0
 48
0.0
 49
0.0
140
0.0
141
0.0
142
1.0
143
1.0
 70
   688
 72
     0
 73
     0
 74
     5
  7

 75
    16
 76
     0
 77
     2
 78
   300
147
1.0
148
0.0
149
0.0
100
AcDbLayout
  1
Layout2
 70
     1
 71
     2
 10
0.0
 20
0.0
 11
0.0
 21
0.0
 12
0.0
 22
0.0
 32
0.0
 14
0.0
 24
0.0
 34
0.0
 15
0.0
 25
0.0
 35
0.0
146
0.0
 13
0.0
 23
0.0
 33
0.0
 16
1.0
 26
0.0
 36
0.0
 17
0.0
 27
1.0
 37
0.0
 76
     0
330
23
  0
LAYOUT
  5
22
102
{ACAD_REACTORS
330
1A
102
}
330
1A
100
AcDbPlotSettings
  1

  2
none_device
  4

  6

 40
0.0
 41
0.0
 42
0.0
 43
0.0
 44
0.0
 45
0.0
 46
0.0
 47
0.0
 48
0.0
 49
0.0
140
0.0
141
0.0
142
1.0
143
1.0
 70
  1712
 72
     0
 73
     0
 74
     0
  7

 75
     0
 76
     0
 77
     2
 78
   300
147
1.0
148
0.0
149
0.0
100
AcDbLayout
  1
Model
 70
     1
 71
     0
 10
0.0
 20
0.0
 11
12.0
 21
9.0
 12
0.0
 22
0.0
 32
0.0
 14
1.000000000000000E+20
 24
1.000000000000000E+20
 34
1.000000000000000E+20
 15
-1.000000000000000E+20
 25
-1.000000000000000E+20
 35
-1.000000000000000E+20
146
0.0
 13
0.0
 23
0.0
 33
0.0
 16
1.0
 26
0.0
 36
0.0
 17
0.0
 27
1.0
 37
0.0
 76
     0
330
1F
331
29
  0
MATERIAL
  5
3D
102
{ACAD_REACTORS
330
3B
102
}
330
3B
100
AcDbMaterial
  1
ByBlock
 72
     1
 94
      127
  0
MATERIAL
  5
3C
102
{ACAD_REACTORS
330
3B
102
}
330
3B
100
AcDbMaterial
  1
ByLayer
 72
     1
 94
      127
  0
MATERIAL
  5
3E
102
{ACAD_REACTORS
330
3B
102
}
330
3B
100
AcDbMaterial
  1
Global
 72
     1
 94
      127
  0
MLINESTYLE
  5
18
102
{ACAD_REACTORS
330
17
102
}
330
17
100
AcDbMlineStyle
  2
Standard
 70
     0
  3

 62
   256
 51
90.0
 52
90.0
 71
     2
 49
0.5
 62
   256
  6
BYLAYER
 49
-0.5
 62
   256
  6
BYLAYER
  0
ACDBPLACEHOLDER
  5
F
102
{ACAD_REACTORS
330
E
102
}
330
E
  0
VISUALSTYLE
  5
2F
102
{ACAD_REACTORS
330
2A
102
}
330
2A
100
AcDbVisualStyle
  2
2dWireframe
 70
     4
177
     2
291
     0
 71
     0
176
     1
 72
     2
176
     1
 73
     0
176
     1
 90
        0
176
     1
 40
-0.6
176
     1
 41
-30.0
176
     1
 62
     5
 63
     7
421
 16777215
176
     1
 74
     1
176
     1
 91
        4
176
     1
 64
     7
176
     1
 65
   257
176
     1
 75
     1
176
     1
175
     1
176
     1
 42
1.0
176
     1
 92
        0
176
     1
 66
   257
176
     1
 43
1.0
176
     1
 76
     1
176
     1
 77
     6
176
     1
 78
     2
176
     1
 67
     7
176
     1
 79
     5
176
     1
170
     0
176
     1
171
     0
176
     1
290
     0
176
     1
 93
        1
176
     1
 44
0.0
176
     1
173
     0
176
     1
  0
VISUALSTYLE
  5
31
102
{ACAD_REACTORS
330
2A
102
}
330
2A
100
AcDbVisualStyle
  2
3D Hidden
 70
     6
177
     2
291
     0
 71
     1
176
     1
 72
     2
176
     1
 73
     2
176
     1
 90
        0
176
     1
 40
-0.6
176
     1
 41
-30.0
176
     1
 62
     5
 63
     7
421
 16777215
176
     1
 74
     2
176
     1
 91
        2
176
     1
 64
     7
176
     1
 65
   257
176
     1
 75
     2
176
     1
175
     1
176
     1
 42
40.0
176
     1
 92
        0
176
     1
 66
   257
176
     1
 43
1.0
176
     1
 76
     1
176
     1
 77
     6
176
     1
 78
     2
176
     1
 67
     7
176
     1
 79
     3
176
     1
170
     0
176
     1
171
     0
176
     1
290
     0
176
     1
 93
        1
176
     1
 44
0.0
176
     1
173
     0
176
     1
  0
VISUALSTYLE
  5
30
102
{ACAD_REACTORS
330
2A
102
}
330
2A
100
AcDbVisualStyle
  2
3dWireframe
 70
     5
177
     2
291
     0
 71
     0
176
     1
 72
     2
176
     1
 73
     0
176
     1
 90
        0
176
     1
 40
-0.6
176
     1
 41
-30.0
176
     1
 62
     5
 63
     7
421
 16777215
176
     1
 74
     1
176
     1
 91
        4
176
     1
 64
     7
176
     1
 65
   257
176
     1
 75
     1
176
     1
175
     1
176
     1
 42
1.0
176
     1
 92
        0
176
     1
 66
   257
176
     1
 43
1.0
176
     1
 76
     1
176
     1
 77
     6
176
     1
 78
     2
176
     1
 67
     7
176
     1
 79
     5
176
     1
170
     0
176
     1
171
     0
176
     1
290
     0
176
     1
 93
        1
176
     1
 44
0.0
176
     1
173
     0
176
     1
  0
VISUALSTYLE
  5
32
102
{ACAD_REACTORS
330
2A
102
}
330
2A
100
AcDbVisualStyle
  2
Basic
 70
     7
177
     2
291
     1
 71
     1
176
     1
 72
     0
176
     1
 73
     1
176
     1
 90
        0
176
     1
 40
-0.6
176
     1
 41
-30.0
176
     1
 62
     5
 63
     7
421
 16777215
176
     1
 74
     0
176
     1
 91
        4
176
     1
 64
     7
176
     1
 65
   257
176
     1
 75
     1
176
     1
175
     1
176
     1
 42
1.0
176
     1
 92
        8
176
     1
 66
     7
176
     1
 43
1.0
176
     1
 76
     1
176
     1
 77
     6
176
     1
 78
     2
176
     1
 67
     7
176
     1
 79
     5
176
     1
170
     0
176
     1
171
     0
176
     1
290
     0
176
     1
 93
        1
176
     1
 44
0.0
176
     1
173
     0
176
     1
  0
VISUALSTYLE
  5
36
102
{ACAD_REACTORS
330
2A
102
}
330
2A
100
AcDbVisualStyle
  2
Brighten
 70
    12
177
     2
291
     1
 71
     2
176
     1
 72
     2
176
     1
 73
     0
176
     1
 90
        0
176
     1
 40
-0.6
176
     1
 41
-30.0
176
     1
 62
     5
 63
     7
421
 16777215
176
     1
 74
     1
176
     1
 91
        4
176
     1
 64
     7
176
     1
 65
   257
176
     1
 75
     1
176
     1
175
     1
176
     1
 42
1.0
176
     1
 92
        8
176
     1
 66
     7
176
     1
 43
1.0
176
     1
 76
     1
176
     1
 77
     6
176
     1
 78
     2
176
     1
 67
     7
176
     1
 79
     5
176
     1
170
     0
176
     1
171
     0
176
     1
290
     0
176
     1
 93
        1
176
     1
 44
50.0
176
     1
173
     0
176
     1
  0
VISUALSTYLE
  5
3A
102
{ACAD_REACTORS
330
2A
102
}
330
2A
100
AcDbVisualStyle
  2
ColorChange
 70
    16
177
     2
291
     1
 71
     2
176
     1
 72
     2
176
     1
 73
     3
176
     1
 90
        0
176
     1
 40
-0.6
176
     1
 41
-30.0
176
     1
 62
     5
 63
     8
421
  8421504
176
     1
 74
     1
176
     1
 91
        4
176
     1
 64
     7
176
     1
 65
   257
176
     1
 75
     1
176
     1
175
     1
176
     1
 42
1.0
176
     1
 92
        8
176
     1
 66
     8
424
  8421504
176
     1
 43
1.0
176
     1
 76
     1
176
     1
 77
     6
176
     1
 78
     2
176
     1
 67
     7
176
     1
 79
     5
176
     1
170
     0
176
     1
171
     0
176
     1
290
     0
176
     1
 93
        1
176
     1
 44
0.0
176
     1
173
     0
176
     1
  0
VISUALSTYLE
  5
34
102
{ACAD_REACTORS
330
2A
102
}
330
2A
100
AcDbVisualStyle
  2
Conceptual
 70
     9
177
     2
291
     0
 71
     3
176
     1
 72
     2
176
     1
 73
     0
176
     1
 90
        0
176
     1
 40
-0.6
176
     1
 41
-30.0
176
     1
 62
     5
 63
     7
421
 16777215
176
     1
 74
     2
176
     1
 91
        2
176
     1
 64
     7
176
     1
 65
   257
176
     1
 75
     1
176
     1
175
     1
176
     1
 42
40.0
176
     1
 92
        8
176
     1
 66
     7
176
     1
 43
1.0
176
     1
 76
     1
176
     1
 77
     6
176
     1
 78
     2
176
     1
 67
     7
176
     1
 79
     3
176
     1
170
     0
176
     1
171
     0
176
     1
290
     0
176
     1
 93
        1
176
     1
 44
0.0
176
     1
173
     0
176
     1
  0
VISUALSTYLE
  5
35
102
{ACAD_REACTORS
330
2A
102
}
330
2A
100
AcDbVisualStyle
  2
Dim
 70
    11
177
     2
291
     1
 71
     2
176
     1
 72
     2
176
     1
 73
     0
176
     1
 90
        0
176
     1
 40
-0.6
176
     1
 41
-30.0
176
     1
 62
     5
 63
     7
421
 16777215
176
     1
 74
     1
176
     1
 91
        4
176
     1
 64
     7
176
     1
 65
   257
176
     1
 75
     1
176
     1
175
     1
176
     1
 42
1.0
176
     1
 92
        8
176
     1
 66
     7
176
     1
 43
1.0
176
     1
 76
     1
176
     1
 77
     6
176
     1
 78
     2
176
     1
 67
     7
176
     1
 79
     5
176
     1
170
     0
176
     1
171
     0
176
     1
290
     0
176
     1
 93
        1
176
     1
 44
-50.0
176
     1
173
     0
176
     1
  0
VISUALSTYLE
  5
39
102
{ACAD_REACTORS
330
2A
102
}
330
2A
100
AcDbVisualStyle
  2
Facepattern
 70
    15
177
     2
291
     1
 71
     2
176
     1
 72
     2
176
     1
 73
     0
176
     1
 90
        0
176
     1
 40
-0.6
176
     1
 41
-30.0
176
     1
 62
     5
 63
     7
421
 16777215
176
     1
 74
     1
176
     1
 91
        4
176
     1
 64
     7
176
     1
 65
   257
176
     1
 75
     1
176
     1
175
     1
176
     1
 42
1.0
176
     1
 92
        8
176
     1
 66
     7
176
     1
 43
1.0
176
     1
 76
     1
176
     1
 77
     6
176
     1
 78
     2
176
     1
 67
     7
176
     1
 79
     5
176
     1
170
     0
176
     1
171
     0
176
     1
290
     0
176
     1
 93
        1
176
     1
 44
0.0
176
     1
173
     0
176
     1
  0
VISUALSTYLE
  5
2B
102
{ACAD_REACTORS
330
2A
102
}
330
2A
100
AcDbVisualStyle
  2
Flat
 70
     0
177
     2
291
     1
 71
     2
176
     1
 72
     1
176
     1
 73
     1
176
     1
 90
        2
176
     1
 40
-0.6
176
     1
 41
30.0
176
     1
 62
     5
 63
     7
421
 16777215
176
     1
 74
     0
176
     1
 91
        4
176
     1
 64
     7
176
     1
 65
   257
176
     1
 75
     1
176
     1
175
     1
176
     1
 42
1.0
176
     1
 92
        8
176
     1
 66
     7
176
     1
 43
1.0
176
     1
 76
     1
176
     1
 77
     6
176
     1
 78
     2
176
     1
 67
     7
176
     1
 79
     5
176
     1
170
     0
176
     1
171
     0
176
     1
290
     0
176
     1
 93
       13
176
     1
 44
0.0
176
     1
173
     0
176
     1
  0
VISUALSTYLE
  5
2C
102
{ACAD_REACTORS
330
2A
102
}
330
2A
100
AcDbVisualStyle
  2
FlatWithEdges
 70
     1
177
     2
291
     1
 71
     2
176
     1
 72
     1
176
     1
 73
     1
176
     1
 90
        2
176
     1
 40
-0.6
176
     1
 41
30.0
176
     1
 62
     5
 63
     7
421
 16777215
176
     1
 74
     1
176
     1
 91
        4
176
     1
 64
     7
176
     1
 65
   257
176
     1
 75
     1
176
     1
175
     1
176
     1
 42
1.0
176
     1
 92
        0
176
     1
 66
   257
176
     1
 43
1.0
176
     1
 76
     1
176
     1
 77
     6
176
     1
 78
     2
176
     1
 67
     7
176
     1
 79
     5
176
     1
170
     0
176
     1
171
     0
176
     1
290
     0
176
     1
 93
       13
176
     1
 44
0.0
176
     1
173
     0
176
     1
  0
VISUALSTYLE
  5
2D
102
{ACAD_REACTORS
330
2A
102
}
330
2A
100
AcDbVisualStyle
  2
Gouraud
 70
     2
177
     2
291
     1
 71
     2
176
     1
 72
     2
176
     1
 73
     1
176
     1
 90
        2
176
     1
 40
-0.6
176
     1
 41
30.0
176
     1
 62
     5
 63
     7
421
 16777215
176
     1
 74
     0
176
     1
 91
        4
176
     1
 64
     7
176
     1
 65
   257
176
     1
 75
     1
176
     1
175
     1
176
     1
 42
1.0
176
     1
 92
        0
176
     1
 66
     7
176
     1
 43
1.0
176
     1
 76
     1
176
     1
 77
     6
176
     1
 78
     2
176
     1
 67
     7
176
     1
 79
     5
176
     1
170
     0
176
     1
171
     0
176
     1
290
     0
176
     1
 93
       13
176
     1
 44
0.0
176
     1
173
     0
176
     1
  0
VISUALSTYLE
  5
2E
102
{ACAD_REACTORS
330
2A
102
}
330
2A
100
AcDbVisualStyle
  2
GouraudWithEdges
 70
     3
177
     2
291
     1
 71
     2
176
     1
 72
     2
176
     1
 73
     1
176
     1
 90
        2
176
     1
 40
-0.6
176
     1
 41
30.0
176
     1
 62
     5
 63
     7
421
 16777215
176
     1
 74
     1
176
     1
 91
        4
176
     1
 64
     7
176
     1
 65
   257
176
     1
 75
     1
176
     1
175
     1
176
     1
 42
1.0
176
     1
 92
        0
176
     1
 66
   257
176
     1
 43
1.0
176
     1
 76
     1
176
     1
 77
     6
176
     1
 78
     2
176
     1
 67
     7
176
     1
 79
     5
176
     1
170
     0
176
     1
171
     0
176
     1
290
     0
176
     1
 93
       13
176
     1
 44
0.0
176
     1
173
     0
176
     1
  0
VISUALSTYLE
  5
38
102
{ACAD_REACTORS
330
2A
102
}
330
2A
100
AcDbVisualStyle
  2
Linepattern
 70
    14
177
     2
291
     1
 71
     2
176
     1
 72
     2
176
     1
 73
     0
176
     1
 90
        0
176
     1
 40
-0.6
176
     1
 41
-30.0
176
     1
 62
     5
 63
     7
421
 16777215
176
     1
 74
     1
176
     1
 91
        4
176
     1
 64
     7
176
     1
 65
   257
176
     1
 75
     7
176
     1
175
     7
176
     1
 42
1.0
176
     1
 92
        8
176
     1
 66
     7
176
     1
 43
1.0
176
     1
 76
     1
176
     1
 77
     6
176
     1
 78
     2
176
     1
 67
     7
176
     1
 79
     5
176
     1
170
     0
176
     1
171
     0
176
     1
290
     0
176
     1
 93
        1
176
     1
 44
0.0
176
     1
173
     0
176
     1
  0
VISUALSTYLE
  5
33
102
{ACAD_REACTORS
330
2A
102
}
330
2A
100
AcDbVisualStyle
  2
Realistic
 70
     8
177
     2
291
     0
 71
     2
176
     1
 72
     2
176
     1
 73
     0
176
     1
 90
        0
176
     1
 40
-0.6
176
     1
 41
-30.0
176
     1
 62
     5
 63
     7
421
 16777215
176
     1
 74
     1
176
     1
 91
        0
176
     1
 64
     7
176
     1
 65
   257
176
     1
 75
     1
176
     1
175
     1
176
     1
 42
1.0
176
     1
 92
        8
176
     1
 66
     8
424
  7895160
176
     1
 43
1.0
176
     1
 76
     1
176
     1
 77
     6
176
     1
 78
     2
176
     1
 67
     7
176
     1
 79
     5
176
     1
170
     0
176
     1
171
     0
176
     1
290
     0
176
     1
 93
       13
176
     1
 44
0.0
176
     1
173
     0
176
     1
  0
VISUALSTYLE
  5
37
102
{ACAD_REACTORS
330
2A
102
}
330
2A
100
AcDbVisualStyle
  2
Thicken
 70
    13
177
     2
291
     1
 71
     2
176
     1
 72
     2
176
     1
 73
     0
176
     1
 90
        0
176
     1
 40
-0.6
176
     1
 41
-30.0
176
     1
 62
     5
 63
     7
421
 16777215
176
     1
 74
     1
176
     1
 91
        4
176
     1
 64
     7
176
     1
 65
   257
176
     1
 75
     1
176
     1
175
     1
176
     1
 42
1.0
176
     1
 92
       12
176
     1
 66
     7
176
     1
 43
1.0
176
     1
 76
     1
176
     1
 77
     6
176
     1
 78
     2
176
     1
 67
     7
176
     1
 79
     5
176
     1
170
     0
176
     1
171
     0
176
     1
290
     0
176
     1
 93
        1
176
     1
 44
0.0
176
     1
173
     0
176
     1
  0
ENDSEC
  0
EOF
