<?xml version="1.0" encoding="utf-8"?>
<!-- Generator: Adobe Illustrator 24.2.3, SVG Export Plug-In . SVG Version: 6.00 Build 0)  -->
<svg version="1.1" id="bbdfc5e4-87b7-4503-82ee-117f3651b0f6"
	 xmlns="http://www.w3.org/2000/svg" xmlns:xlink="http://www.w3.org/1999/xlink" x="0px" y="0px" viewBox="0 0 1152 864"
	 style="enable-background:new 0 0 1152 864;" xml:space="preserve">
<path d="M940.3,378.8c-1-29.7-9.6-58.5-18-86.8c-2-6.7-4.5-13.2-5.6-20.1c-1.1-6.9,1.2-13.6,1.8-20.5c1.2-11.7-5.2-22.5-14.4-29.3
	c-22.5-16.6-50.4-4.3-69.7,10.9c-44.5,34.9-64.5,90.6-104.1,129.8c-17.8,17.6-40.9,32.1-66.4,34.5c-14.9,1.4-28.7-2.6-42.6-7.5
	c-13.9-4.9-28.1-6.8-41.9-1c-6.4,2.7-12.4,6.2-19.1,7.9c-6.7,1.7-14.5,1.7-21.7,0.9c-14.7-1.6-28.9-6.4-43.7-7.7
	c-7.6-0.5-15.3-0.2-22.9,0.8c-6.5,0.7-14.1,2-20.4-0.5s-8.5-6.1-11.4-10.3c-2.9-4.2-7.1-11.2-10.7-16.7
	c-15.7-24.7-32.8-48.5-51.1-71.4c-17.2-21.5-36.2-41.9-57.7-59.1c-16.2-12.9-40.6-28.2-60.5-13.6c-10,7.4-13.7,18.8-17,30.3
	c-3.8,13.4-9.8,25.7-16.1,38.1c-6.3,12.4-13.2,25.6-16.7,39.6s-2.6,29.8,0.5,44.6c3.1,14.8,6.9,28.5,6.6,43.2s-3.7,29.4-6.8,43.8
	c-5.4,25.6-10.3,53.1,0.6,77.9c2.5,5.9,6,11.3,10.2,16.1c3.9,4.3,9.3,6.9,13.1,11.2s3.1,11.6,1.6,16.9s-5,12.3-8.1,18.2
	c-6.6,12.7-12.3,25.8-16.8,39.4c-2,6.2,7.6,8.8,9.6,2.7c4.6-13.7,10.4-27,17.3-39.7c5.8-11.1,12.5-25,7.8-37.7
	c-2.1-5.4-6.2-8.9-10.8-12.1c-4.9-3.6-9-8.2-12-13.5c-6.4-11.1-8.6-23.8-8.5-36.5c0.4-27.8,10.8-54.2,12.6-81.9
	c0.1-1.2,0.1-2.3,0.1-3.5c0.3,0.5,0.5,0.9,0.8,1.4c0,0.1,0.1,0.2,0.1,0.3c0.1,0.2,0.2,0.5,0.3,0.7c0.3,0.7,0.5,1.3,0.7,2l0.9,4
	c0,0.3,0.1,0.6,0.1,0.9c0,0.2,0.1,0.5,0.1,0.7c0,0.1,0,0.3,0.1,0.4c0,0.4,0.1,0.9,0.1,1.3c0.5,6.3,0.6,12.5,0.2,18.8
	c-0.1,1.4-0.2,2.9-0.4,4.3c0,0.8-0.1,1.6-0.2,2.4c-0.1,0.4-0.1,0.8-0.2,1.2c-0.1,0.4-0.1,0.8-0.1,1c-0.4,3.1-0.9,6.1-1.5,9.1
	c-1.2,5.3-2.8,10.6-3.5,16c-0.7,5.4-0.7,11.2,1.5,16.6c1.7,4.5,4.2,8.7,7.2,12.5c3.1,4,7.4,6.8,12.2,8.2c3.2,0.7,6.4,1.1,9.7,1
	c4.4,0,8.7-0.8,12.8-2.4c2.5-0.9,4.8-2.3,6.7-4.1c0.5-0.5,1-1,1.5-1.6c0,0.1,0,0.3,0,0.4c0,0.5,0,0.9-0.1,1.4
	c0.1,0.1,0.1,0.1,0.1,0.2l-0.1,0.3c-0.3,3.7-0.6,7.4-1.3,11.2c-0.4,2.7,1.3,5.3,3.9,5.9c2.6,0.3,5.4-1.2,5.9-3.9
	c2-12.5,2.1-25.4,0.4-38l0.5,0.1l0.7,1c0.5,0.6,0.9,1.3,1.3,2c0.5,0.7,1.6,3.1,2.6,4.6c1.9,3.2,4.5,6.8,8,8.1
	c3.5,1.3,8.7-0.2,11.1-4.1c1.8-3.1,2.2-6.8,1.3-10.2c-0.3-1.4-0.8-2.8-1.3-4.2c-0.1-0.3-0.3-0.7-0.3-1.1c-0.1-0.2-0.1-0.4-0.2-0.6
	l-0.1-0.8c-0.1-0.2,0-0.5-0.1-0.7l0-0.2c0-0.2,0.2-0.5,0.2-0.6s0.3-0.5,0.3-0.6l0.6-0.6l0.8-0.6l0.2,0l1.9-0.7l0.4-0.1l0.6-0.1
	c1.4-0.2,2.7-0.3,4-0.3c0.3-0.1,1.1,0.1,1.5,0.1l2.6,0.3c2.1,0.2,4.1,0.4,6.2,0.4c4.1,0.1,7.9-1,11.3-3.2c1.5-1,2.3-2.8,2.2-4.6
	c-0.4-4.5-3.1-7.8-6.1-11l-1.8-2l-0.7-0.7l-0.4-0.5l-1.2-1.7c0-0.1-0.1-0.2,0-0.3l-0.2-0.5c0-0.3,0-0.5,0-0.8l0-0.1
	c0.1-0.2,0.2-0.3,0.2-0.5c-0.1,0-0.1,0.2-0.2,0.3l0,0.1l-0.1,0c0-0.1,0.1-0.2,0.2-0.3c0.1-0.3,0.1-0.3,0.1-0.2
	c0-0.1,0.1-0.3,0.2-0.4c0.2-0.2,0.4-0.3,0.5-0.6l0.4-0.3c0.1,0,0,0.1-0.3,0.3l0.1,0l0.5-0.4c0.5-0.2,0.9-0.4,1.3-0.8
	c0.3,0,0.5-0.2,0.8-0.4l2.9-1l0.5-0.1c0.6,0,1.1-0.1,1.7-0.3l5.9-0.8c4.6-0.9,9.3-2.4,12.3-6.2c1.1-1.2,1.9-2.6,2.3-4.1
	c0.1-1.5-0.2-3.1-1-4.4c-0.9-1.9-1.9-3.5-3.2-5.1c-2.5-2.8-5.3-5.3-8-7.9l-1.4-1.5L347,419l-0.8-1.1l-0.7-0.8c0-0.1-0.1-0.2-0.1-0.3
	l-0.3-0.8c-0.1-0.1-0.1-0.3-0.1-0.4l0-0.1c0-0.1,0-0.3,0-0.4c-0.1-0.2,0-0.3-0.1-0.5c0-0.1,0.1-0.3,0-0.4l0.2-1.2
	c0.1-0.2,0.3-0.5,0.3-0.6l0-0.2c-0.1,0.2-0.3,0.3,0.1-0.2l0.8-1.1l0.2-0.2l0.1,0l1.3-1l0.9-0.6l0.2,0l1-0.4c1.1-0.4,2.2-0.8,3.3-1.1
	c0.9-0.3,1.8-0.6,2.8-0.8c0,0,0.1,0,0.3,0l0.9-0.2l1.8-0.3c1.8-0.2,3.3-1.2,4.1-2.8c0.7-1.6,0.7-3.4-0.4-5L345.2,377
	c-1.2-1.6-2.4-3.1-3.5-4.8l-0.2-0.5c-0.1-0.2-0.6-1.7-0.2-0.9s-0.1-0.2-0.1-0.5c0.1-0.3,0.1-0.5,0.2-0.8l0.1,0
	c0.1-0.3,0.2-0.6,0.4-0.8c0-0.1,0-0.1,0.1-0.2l0.5-0.6l0.3-0.3c0.5-0.2,0.9-0.5,1.3-0.9l0.5-0.2l1.1-0.4l0.1,0c0.1,0,0.1,0,0.1-0.1
	l0.9,0l1.5,0.3c2,1.6,5.4,1.8,7.1-0.4c1.7-2.1,1.5-5.2-0.5-7c-7.1-5.9-17.9-2.4-22,5.3c-2.4,4.5-1.6,9.5,0.9,13.7
	c1.3,2.1,2.8,4,4.5,5.8l5,6.1l6.7,8.2c-6.5,2-12.4,5.7-14.6,12.5c-1.1,4.3-0.4,8.9,2,12.5c2,3.2,5,5.8,7.7,8.3l2.2,2.1l1,1.1
	l0.3,0.1l0.1,0l1.4,1.8l-0.7,0.5c-0.1,0.1-0.3,0.1-0.5,0.2l-0.1,0l-0.7,0.3l-1.3,0.5l-1.4,0.4l-0.4-0.1l-0.3,0.1
	c-4.5,0.7-9.1,1-13.3,2.8c-4.2,1.8-9.3,5.8-10,11.3c-0.7,5.5,2,9.1,5.3,12.6l2,2.1l0.9,1l0.4,0.5l-0.3-0.1c-0.8,0-1.7,0.1-2.6,0.1
	l-1.1,0l-0.2,0l-2.3-0.2l-5.4-0.4c-6-0.3-13.2,1.4-16.9,6.5c-2.7,3.7-3,7.8-1.9,12.1c0.3,1.4,0.9,2.8,1.3,4.2
	c0.1,0.3,0.3,0.8,0.3,1.2l0.2,0.2c0,0.2,0.1,0.7,0,0.8l-0.1,0.6l-0.2,0.2l-0.5-0.6c-1-1.4-2-2.9-2.8-4.4c-1.9-3.3-3.8-6.8-6.9-9.2
	s-8.5-4.5-13.3-3.1c-1.8,0.6-3.8,3-3.4,5.2c1.2,5.9,2,11.8,2.3,17.8c-0.1,0-0.3-0.1-0.4-0.1c-2.5-0.6-5.1,0.8-6,3.2
	c-0.2,0.2-0.2,0.5-0.4,0.7l-0.6,1c-0.1,0-0.1,0-0.1,0.1l-1,1l-0.4,0.3l-0.8,0.5c-0.3,0.2-0.6,0.4-1,0.6l-0.5,0.3
	c-1.6,0.4-3.1,1-4.8,1.3c-0.2,0-0.4,0.1-0.6,0.1h-0.3c-0.7,0.1-0.8,0.1,0,0h-0.6l-2.5,0.2c-1.5,0-3.1,0-4.6-0.2h-2.3l-1.6-0.4
	l-0.7-0.2h-0.3l-0.3-0.2l-0.5-0.3l-1.4-0.8l-0.7-0.4l-1-0.9c-0.8-0.7-1.5-1.5-2.1-2.3l-0.4-0.5h-0.1l-0.8-1.2
	c-0.6-0.9-1.1-1.8-1.6-2.7s-0.9-1.7-1.4-2.6l-0.4-1l-0.3-0.6l-0.9-2.6c-0.1-0.6-0.3-1.1-0.4-1.7c-0.1-0.6-0.2-0.6-0.1-0.8
	c-0.1,0.1-0.1,0.2-0.1,0.3V489c-0.1-1.3-0.1-2.6,0-3.9c0-0.6,0.1-1.2,0.1-1.8c0.1-0.1,0.1-0.3,0.1-0.4c-0.1,0.3,0.1-0.6,0.1-0.8
	c0.8-5.2,2.4-10.3,3.4-15.4c1.3-6.3,2.2-12.7,2.6-19.1c0.5-6.7,0.5-13.4-0.1-20.1c-0.7-6.5-2-13.1-5.9-18.5
	c-1.5-2.1-4.4-3.3-6.8-1.8c-0.2,0.1-0.4,0.3-0.6,0.5c-0.6-10.3-2.7-20.5-5-30.7c-3.2-14.1-6.1-28.7-3.1-43.3
	c5.6-28.1,24.7-51.3,32.8-78.6c3-10.3,5.3-22.4,15-28.6s19.8-3.1,28.7,1.4s18.7,12.3,27.1,19.6c10.6,9.3,20.6,19.2,30,29.6
	c7,7.7,13.7,15.6,20.2,23.8c-3.4-3.4-7-6.6-10.8-9.6c-6.3-4.8-13.1-8.8-20.3-12c-2.4-1-5.5-0.8-6.8,1.8s-0.8,5.7,1.8,6.8
	c6.3,2.8,12.2,6.3,17.8,10.3l2,1.5c0.1,0,0.1,0,0.1,0.1h0.1l1.1,0.8l4,3.4c2.5,2.3,4.9,4.7,7.2,7.3c1.1,1.2,2.2,2.5,3.2,3.8l0.8,0.9
	l0.2,0.2c0.5,0.7,1,1.3,1.5,2.1c2.1,2.9,4,5.9,5.8,9c1.9,3.3,3.5,6.8,5.1,10.2c0.2,0.4,0.3,0.9,0.5,1.3v0.4l1.2,2.9l2,5.3
	c2.9,8.1,5.3,16.4,7.7,24.7c0.5,2.7,3.2,4.5,5.9,3.9c2.7-0.5,4.5-3.2,3.9-5.9c0-0.2-0.1-0.5-0.2-0.7c-4.4-15.2-8.9-30.5-16.3-44.6
	c-0.7-1.3-1.4-2.7-2.2-4c5.7,7.8,11.3,15.6,16.8,23.6c8.2,11.9,16,24.1,23.7,36.3c2.7,4.3,5.7,8.5,9.3,12c-1.6,2-1.5,4.8,0.3,6.7
	l0.6,0.7l0.3,0.4c0.4,0.6,0.7,1.2,1.1,1.9c0,0.1,0.1,0.1,0.1,0.2c0,0.1,0,0.2,0.1,0.3l0.3,1.2l0.3,1.1c0,0.2,0,0.3,0.1,0.5
	c0,0.8,0.1,3.5,0,4.5c-0.1,1.2-0.1,0.4-0.1,0.6l-0.3,1.2c-0.2,0.8-0.4,1.7-0.7,2.5c-0.1,0.4-0.3,0.8-0.4,1.2h-0.1v0.1v0
	c0,0-0.1,0.2-0.1,0.4c-0.8,1.5-1.6,2.9-2.5,4.3c-0.1,0.3-0.6,0.7-0.7,1L436,422c-1.3,1.5-2.7,2.9-4.1,4.2l-2,1.8l-1.3,1l-0.6,0.5
	c-6.5,4.8-13.5,8.9-19.8,14c-5.6,4.7-10.7,9.8-15.4,15.4c-9.7,11.3-18,23.8-26.8,35.8l-3.3,4.4c-0.2,0.4-0.5,0.8-0.8,1.1l-0.3,0.4
	l-1.7,2.2c-2.2,2.8-4.6,5.6-7,8.3c-2.4,2.7-4.9,5.3-7.6,7.8l-4,3.6l-2,1.7l-1.1,0.8h-0.1l-0.4,0.3c-3.3,2.5-6.7,4.7-10.3,6.6
	c-1.8,1-3.6,2-5.5,2.9l-2.5,1.1h-0.1l-0.7,0.3l-1.6,0.7c-3.8,1.4-7.7,2.6-11.6,3.6l-6.1,1.2l-1.5,0.2h-0.9l-2.9,0.4
	c-2,0.1-4.1,0.3-6.2,0.3c-2.7,0.1-4.9,2.3-5,5c0.2,2.7,2.2,5.1,5,5c17.8-0.4,35.1-5.7,50-15.3c13.3-8.6,23.8-20.5,33.3-33
	c4.6-6,8.9-12.2,13.3-18.3l6.7-9.2l1.6-2.2l0.8-1l0.5-0.6l3.6-4.5c4.7-5.8,9.8-11.2,15.4-16.1c1.3-1.2,2.7-2.3,4.2-3.4
	c-1.1,0.7,0.3-0.2,0.5-0.4l1.1-0.8l2.6-1.8l10.3-7c6.7-4.8,13.3-10.5,16.7-18.2c2.9-6.7,4-13.9,1.8-20.6c1.3,0.4,2.7,0.7,4.1,0.9
	c7.3,1,14.5-0.1,21.7-0.9c7.4-0.8,15-0.7,22.4,0.1c14.6,1.9,28.8,6.5,43.6,7.6c7,0.6,14.1,0,21-1.6c6.5-1.7,12.5-4.8,18.6-7.6
	c14.1-6.4,27.5-2.6,41.5,2.4s27.7,7.7,42,6.1c12.7-1.5,25.1-5.2,36.5-11.1c3.4-1.7,6.7-3.6,9.9-5.6c1.6,12.1,9.1,23.2,17.8,31.6
	c5.6,5.4,12,9.9,18.4,14.4l9.4,6.7l2.3,1.7l0.6,0.5l1.1,0.8l4.4,3.7c2.8,2.5,5.4,5.2,7.8,8l1.6,2.1l0.3,0.3c0.3,0.5,0.6,0.9,1,1.3
	c1.1,1.5,2.1,3.1,3.1,4.6c4,6.2,7.4,12.8,10.8,19.4c6.7,13.1,13.6,26.3,24.7,36.3s25.1,16.6,40,14.1c1.7-0.3,3.3-0.7,4.9-1.2
	c1.5-0.5,2.7-1.7,3.3-3c0.4,0,0.7,0,1.1,0c3.5-0.4,6-3.6,5.6-7.1c-0.4-2.4-2.4-4-4.7-4.2c-0.3-1.5-0.8-2.9-1.4-4.3
	c-1.5-3.9-3.9-7.5-7.2-10.2c-4.3-3.5-9.8-4.9-15.2-3.9c-0.7-3.8-2.8-7.4-5.7-10c-2.3-1.9-5.1-3.2-8-3.4l0.5-5c0.2-1.9,0.6-3.9,1-5.9
	c0.2-0.9,0.4-1.9,0.6-2.8l0.4-1.7c0.1-0.1,0.1-0.2,0.1-0.3l0.2-0.3c1-3.8,2.3-7.5,4-11.1l2.5-5.3l1.5-2.6l0.3-0.5
	c0.3-0.4,0.6-0.9,0.8-1.4c1.6-2.2,1.2-5.3-1-7c-0.3-0.3-0.7-0.4-1-0.6c-3.6-1.7-7.5-2.6-11.5-2.6l0.9-1.8c0.7-1.6,1.5-3.2,2.4-4.8
	c0.3-0.6,0.6-1.3,1.1-1.9l0.6-1c0.2-0.3,0.3-0.7,0.6-1.1c1.9-3.1,4-6,6.2-8.8l3.5-4.1l1.9-2.1l0.6-0.7c-0.2,0.2,0.7-0.6,0.8-0.8
	c1.6-1.4,2.6-3.7,1.5-5.9c-0.9-2.1-3.1-3.3-5.2-3l-7.5,0.7l0.2-0.3l3.9-4.3l1.8-2.1l1.1-1.1l0.2-0.2l0.3-0.2
	c5.5-5.4,11.4-10.4,17.8-14.8c1.7-1.3,2.4-3.8,1.5-5.9c-0.7-1.1-1.2-2.4-1.9-3.5c-1-2-3.1-3.2-5.2-3c-8.9,0.2-17.6,1.8-26,4.9
	c-2.6,1.1-3.7,4-2.7,6.6c1.1,2.5,4,3.7,6.6,2.7l3.1-1.1l1.4-0.4l0.8-0.1l5.8-1.4l2.1-0.3c-9.7,8-18.3,17.2-25.4,27.4
	c-1.6,2.3-1,5.5,1.3,7.1c1,0.7,2.1,0.9,3.2,0.9l6.3-0.5c-7,8.8-12.4,18.9-15.9,29.6c-0.8,1.8-0.3,4,1.1,5.4c1.5,1.4,3.6,1.8,5.5,1.1
	l1.9-0.7l4.5-0.6l1.7,0.2c-7.2,13.7-10.9,28.8-10.8,44.2c0,3.8,5.4,5.6,8,3.3l0.5-0.3l0.4-0.1l1.1,0.1l0.3,0.2l0.6,0.2l0.1,0
	l0.5,0.3c0.1,0.1,0.2,0.3,0.4,0.3l-0.1-0.1c0.1,0,0.1,0.1,0.2,0.2c0,0.1,0,0.1,0.1,0.2l0.6,0.8c0.1,0.2,0.3,0.4,0.3,0.6
	c0.4,0.9,0.7,1.7,1,2.6c0.1,0.3,0.2,0.6,0.2,0.9c0.1,0.5,0.2,1.1,0.3,1.6l0.4,3.4c0.4,3.6,5.1,5.9,8,3.3l1-0.8l0.5-0.1l0.9-0.3
	l0.5-0.1c0.5-0.2,0.9-0.2,1.4-0.2c0.7,0,1.3,0.1,1.9,0.2c0,0,0.1,0.1,0.3,0.2l0.6,0.2l1.3,0.5l0.2,0l1.1,1c0.3,0.2,0.6,0.4,0.8,0.7
	l0.6,0.5c0.6,0.7,1.1,1.5,1.6,2.3c0.1,0.2,0.2,0.4,0.3,0.6s0.4,1,0.7,1.4c0.3,0.9,0.6,1.7,1,2.6c0.1,0.2,0.7,1.9,0.2,0.6
	c0.2,0.4,0.2,0.8,0.4,1.2c0.1,0.6,0.2,1.2,0.4,1.7c-1.2,0.3-2.4,0.7-3.6,0.9h-0.5h-0.1h-0.1c-0.2,0.1-0.1,0,0,0h-7
	c-0.7-0.2-1.5-0.4-2.2-0.4l-2.3-0.6l-2.3-0.7l-1-0.4l-0.5-0.2H836l-0.7-0.3l-1-0.5l-2.4-1.2c-1.5-0.8-2.9-1.7-4.2-2.7l-1.9-1.3
	l-0.8-0.6l-0.7-0.5c-2.6-2.2-5.1-4.6-7.4-7.1c-1.2-1.2-2.3-2.5-3.3-3.9l-0.2-0.2c-0.3-0.3-0.6-0.7-0.8-1.1c-0.5-0.6-1-1.3-1.4-2
	c-4-6.1-7.6-12.4-10.9-18.9c-6.7-13-13.3-26.3-23.6-36.9c-5.4-5.5-11.7-10.2-18-14.7l-9.1-6.5c-1.5-1-3-2.1-4.5-3.3l-1-0.7H744
	l-0.5-0.3l-2.1-1.8c-2.7-2.2-5.3-4.6-7.7-7.1c-1.2-1.3-2.3-2.6-3.4-4c-0.6-0.7-0.8-1-0.8-1c-0.1-0.1-0.2-0.2-0.3-0.4
	c-0.6-0.7-1.1-1.5-1.6-2.3c-0.9-1.4-1.8-2.9-2.6-4.4c-0.4-0.7-0.7-1.4-1-2.1l-0.2-0.3c-0.2-0.4-0.4-0.9-0.5-1.4
	c-0.6-1.6-1.1-3.2-1.5-4.9c-0.1-0.7-0.3-1.5-0.4-2.2v-0.4c-0.1-0.5-0.1-0.9-0.2-1.4c-0.1-1.3,0-2.4,0-3.7
	c22.4-16.8,39-39.8,54.9-63.3c-2.5,4.6-4.7,9.2-6.8,14c-6.2,14.3-10.4,29.3-14.6,44.4c-0.6,2.6,0.9,5.3,3.5,6.1
	c2.7,0.8,5.4-0.7,6.2-3.4c3.5-13.1,7.1-26.1,12.1-38.6l0.9-2.2c0-0.1,0.2-0.3,0.2-0.5l0.3-0.6l1.9-4.3c1.2-2.7,2.5-5.3,3.9-7.9
	c2.7-5.1,5.7-10.1,8.9-15c1.7-2.5,3.5-5,5.4-7.4l0.2-0.3l0.5-0.6l1.3-1.7l3-3.4c3.8-4.4,7.9-8.5,12.2-12.4l3.3-2.8l1.8-1.5l0.7-0.5
	l0.5-0.4c2.4-1.8,4.8-3.5,7.3-5.1c4.9-3.2,10.1-6,15.5-8.4l1.1-0.5l0.6-0.3l2.1-0.8c1.5-0.7,3.1-1.2,4.7-1.8c3.1-1,6.3-2,9.6-2.8
	c3.2-0.8,6.4-1.4,9.6-1.8h0.1l1.7-0.2l2.5-0.2c1.7-0.2,3.3-0.3,5-0.3c2.7-0.1,4.9-2.3,5-5c-0.2-2.7-2.2-5.1-5-5
	c-25.4,0.8-49.5,11-69,26.8c-7.1,5.7-13.4,12.1-19,18.9c4.4-6.5,8.9-12.8,13.6-19c8.2-10.8,17.4-20.8,27.4-29.9
	c9.3-8.3,19.9-16,31.9-19.8s24-3,33.5,4.9c4.2,3.4,7.2,8.1,8.5,13.3c1.4,5.9-0.7,12.1-1.4,17.9c-1.8,14,4.7,28.1,8.5,41.3
	c3.8,13.2,8,27.9,10.9,42.1s4.7,28.6,4.1,43c-0.6,14.4-3.8,28.4-6.7,42.4s-5.6,28.2-6.3,42.6c-0.7,14.4-0.6,28.5-1.8,42.7
	s-3.8,27.6-9.9,40.1s-12.9,23.2-12.5,36.5s7.1,23.5,12.1,34.6c2.6,5.9,11.3,0.8,8.6-5c-5.1-11.3-12.9-23.1-10.2-36.1
	s10.9-23.4,15.1-35.5c9.8-27.9,6.4-57.6,9.2-86.6S941.3,408.1,940.3,378.8z M300.9,495.2C300.5,495.5,300.4,495.4,300.9,495.2
	L300.9,495.2z M265.2,507.2C264.5,507.5,264.8,507.3,265.2,507.2L265.2,507.2z"/>
</svg>
