<?xml version="1.0" encoding="utf-8"?>
<!-- Generator: Adobe Illustrator 24.2.3, SVG Export Plug-In . SVG Version: 6.00 Build 0)  -->
<svg version="1.1" id="b4a303bb-af97-4079-88db-0c5f56b7e162"
	 xmlns="http://www.w3.org/2000/svg" xmlns:xlink="http://www.w3.org/1999/xlink" x="0px" y="0px" viewBox="0 0 1152 864"
	 style="enable-background:new 0 0 1152 864;" xml:space="preserve">
<path d="M410.5,434.4c2.2-3,3.8-6.4,4.8-10l3.9-12.2c2.6-8.4,5.2-16.9,7.9-25.3c2.7-8.4,5.2-16.8,5.7-25.7s-1.7-16.7-4.7-24.6
	c-3-7.9-6.5-15.8-10-23.6c-7-15.1-14.8-29.9-23.3-44.2c-1-1.8-2.1-3.5-3.2-5.3c-1.4-2.4-4.4-3.2-6.8-1.8c-2.2,1.5-3.3,4.5-1.8,6.9
	c8.6,14,16.4,28.5,23.5,43.3c1.8,3.8,3.6,7.5,5.3,11.3l2.4,5.6l1,2.4c0.1,0.2,0.2,0.5,0.3,0.7c0.3,0.6,0.5,1.2,0.7,1.7
	c1.6,3.7,3.1,7.5,4.3,11.4c0.6,1.9,1.1,3.8,1.5,5.8c0.2,1,0.4,1.9,0.5,2.9c0.1,0.2,0.1,0.3,0.1,0.5c0.1,0.5,0.1,1.1,0.1,1.6
	c0.2,2.1,0.2,4.3,0,6.4c0,0.5-0.1,0.9-0.1,1.4s-0.1,0.5-0.1,0.7v0.6c0,0.2,0,0.5-0.1,0.7l-0.3,1.9c-0.8,4.1-1.9,8.1-3.1,12.1
	l-7.8,24.9l-3.9,12.4l-1.7,5.6l-0.9,2.2v0.2l-0.6,1.2l-1.2,2c-0.1,0.1-0.1,0.1-0.1,0.2l-0.3,0.3l-0.6,0.6l-0.8,0.7l-0.5,0.3l-1,0.6
	H399c-3.5,1.2-7.2,2.1-10.5,3.9c-11.4,6.3-16.1,19.2-18.4,31.2c-0.3,1.4-0.6,2.8-0.8,4.2c-0.2,1.4,0.7,5.5,3.5,6.2s5.7-0.8,6.2-3.5
	c0.8-5.8,2.3-11.6,4.3-17.1h0.1l0.3-0.9c0.4-0.7,0.7-1.4,1.1-2c0.4-0.6,1.5-2.6,2.3-3.8h0.1l0.5-0.7c0.5-0.6,1-1.2,1.6-1.7l1.5-1.4
	h0.1l1.1-0.8l1.7-1l1.1-0.5c0-0.1,0.1-0.1,0.2-0.2c0.8-0.2,1.7-0.5,2.5-0.8l2.6-0.8C404.1,439.8,407.8,437.9,410.5,434.4z"/>
<path d="M428.2,465.8c-9.3,11.5-16.5,24.6-21,38.7c-0.7,2.7,0.8,5.4,3.5,6.2c2.7,0.6,5.3-0.9,6.2-3.5c0.5-1.7,1-3.3,1.6-4.9l0.9-2.3
	l0.5-1.2c0-0.1,0.1-0.2,0.1-0.3c1.3-3.1,2.8-6.2,4.4-9.2c1.6-3,3.4-5.8,5.2-8.7l2.9-4.2l1.6-2.1v-0.2h0.1c0.3-0.5,0.6-0.9,1-1.3
	c1.6-2,2.1-5.1,0-7C433.1,463.9,429.9,463.6,428.2,465.8z"/>
<path d="M896,412.5c-1.1-5.7-3.8-11-6.4-16.1c-2.6-5.1-5.1-9.8-5.3-15.4c-0.2-5.6,1-11.1,1.9-16.6c1.1-5.9,1.5-11.8,1.2-17.8
	c-1.5-25.8-9.7-50.9-16.3-75.7s-12.9-50.3-20.1-75.2c-3.2-11.4-7.1-22.6-11.7-33.5c-2.4-5.5-5-10.9-7.9-16.1s-5.3-10.3-10.1-13
	c-12.3-7.2-21.8,9.2-27.8,17.3c-7.4,10.1-14.6,20.4-21.4,30.9s-12.5,20.1-20.5,28.9s-16.4,16.4-24.2,25
	c-15,16.4-25.5,36.1-33.5,56.7c-3.9,10-7.2,20.3-10.3,30.6l-4.4,15.5c-1.1,4.3-1.9,8.8-4,12.7s-3.4,6.1-6.4,5.5
	c-3-0.6-5.6,0.7-6.2,3.5c-2.3,10.4-7.1,25.8-20,26.5c-20.6,0.9-41.4-0.6-62-0.3c-17.4,0.3-34.6,3.6-51.8,6.3l-7.6,1.1l-3.6,0.5h-2.4
	c-3,0.4-6,0.8-9,1c-0.5-0.2-1.1-0.3-1.7-0.3c-12.8-0.7-17.6-16.1-19.9-26.5c-0.7-2.8-3.6-4-6.2-3.5c-2.6,0.5-5.2-3-6.6-5.7
	c-1.4-2.7-2.8-8.7-4.1-13c-3.4-10.8-7.5-21.4-12.4-31.7c-9.8-20.8-22.4-40.1-37.4-57.5c-15.3-17.7-34.9-32.4-45.9-53.4
	c-5.1-9.7-8.6-20.2-12.8-30.3c-2.1-5.3-4.6-10.4-7.3-15.4c-2.6-4.7-5.7-9.8-9.9-13.4c-4.2-3.6-10.6-5.9-16.2-2.7
	c-5.6,3.2-7.8,9-10.4,13.8c-5.9,10.7-10.7,22-14.5,33.6c-8.1,24.1-13.9,49.1-20.4,73.7l-10.3,38.9c-3.4,12.6-6.8,25.3-8.7,38.2
	c-1.1,6.5-1.8,13-1.9,19.6c-0.2,6.1,0.1,12.3,0,18.4c-0.1,6.1-0.8,12-2.9,17.7c-2.1,5.7-5.2,10.5-7.5,15.9c-4,9-4.6,19.1-1.9,28.6
	c2.6,9.1,7.3,17.5,11.9,25.7c4.6,8.2,9.6,16.1,12.5,25c1.4,4.4,2.2,8.9,2.5,13.5c0.5,6,1.6,12.1,6.2,16.3c1.7,1.6,3.7,2.8,5.9,3.6
	c-0.5,1.5-0.7,3-0.8,4.6c-0.1,2.4,0.1,4.6,1.6,6.5s3.1,3.8,4.6,5.8c5.4,6.8,10.3,14.1,14.7,21.6c4.6,7.6,8.7,15.5,12.2,23.6
	c0.8,1.8,1.6,3.6,2.3,5.5c0.7,1.9,1.7,3.9,1.2,5.8s-5.6,6-8,7.9L288.3,627c-2,1.9-2,5.1,0,7.1c3.7,3.1,0.8,8.7-1.1,12.2
	c-3.8,7.2-7.7,14.2-11.6,21.3c-2.8,5.2-5.4,10.4-5.7,16.4c-0.3,6,2.2,11.4,7.6,13.8c2.5,1,5.4,0.7,6.9-1.8s0.7-5.8-1.8-6.9
	s-2.5-1.3-2.8-3.3c0-2,0.3-3.9,1-5.8c2-6.3,6-12.1,9.2-17.8c4.4-8.2,13.6-21.4,8.7-31l17.9-14.8c6.2-5.1,15.5-10.5,15.6-19.5
	c0.1-4.2-1.7-8.1-3.3-11.8c-0.5-1.1-1-2.2-1.4-3.3c0.8,0.7,1.9,1,2.9,0.9c2.7-0.1,4.9-2.3,5-5c0-0.4,0-0.9,0.1-1.3
	c0.2-0.8,0.3-1.6,0.5-2.4c0.3-1.6,0.8-3.1,1.3-4.6c0.3-0.7,0.6-1.4,0.8-2.1c0.1-0.1,0.1-0.2,0.1-0.3c0.1-0.1,0.1-0.1,0.1-0.2
	c0.1-0.3,0.3-0.5,0.4-0.8c0.1-0.3,1.4-3,2.2-4.5c3-5.8,6.4-11.5,9.8-17.1c6.8-11.3,14.2-22.2,22.1-32.9l3.3-4.4c0.5-0.7,1-1.4,1.6-2
	l0.5-0.7c0.3-0.3,0.6-0.7,0.8-1.1l7.3-9c1.7-2.1,2.1-5.2,0-7.1c-2.1-1.9-5.3-2.2-7,0c-17.5,21.1-33.5,43.9-46.4,68
	c-3.7,7-6.8,14.3-7.5,22.2l-1.8-3.8c-7.5-15.6-17-30.3-28.1-43.6c0.1-2.8,1-5.5,2.7-7.8c2.7-3.6-1.7-8.4-5.6-7.3
	c-3.9,1.1-7-2.8-7.8-6.3s-0.9-10.4-2.1-15.5c-2-9-6.4-17.5-11-25.6c-7.8-13.9-19.9-30.5-15.1-47.4c1.5-5.3,4.5-10.1,6.9-15
	c2.6-5.4,4.4-11.2,5.3-17.1c1.6-11.9,0.2-23.9,1.2-35.9s3.9-24.8,7-36.9c3.1-12.1,6.6-25.1,9.9-37.7c6.5-24.4,12.5-48.9,19.7-73.1
	c3.1-11.1,7-21.9,11.6-32.4c2.4-5.4,5.2-10.6,8.3-15.7c1-1.7,2.3-4.8,4.1-5.8c1.8-1,3.2,0.1,4.5,1.1c3.9,3.2,6.5,8.2,8.8,12.5
	c2.5,4.5,4.6,9.1,6.5,13.9c4.1,10.1,7.7,20.5,12.7,30.2c10.8,20.6,29.4,35.1,44.6,52.2c14.7,16.5,27,34.8,36.8,54.6
	c4.8,9.7,8.9,19.6,12.3,29.9c2.8,8.6,4.1,19.3,11.2,25.8c2.2,2,4.9,3.4,7.8,3.9c3.6,13.2,10.8,26.8,24.7,29.6c0.9,0.7,2,1.1,3.1,1.1
	c8-0.4,15.9-1.7,23.9-2.9l27.9-4.3l3.2-0.4l1.4-0.2h0.9l5.6-0.7c3.6-0.4,7.1-0.6,10.7-0.7c10.4-0.3,20.9,0,31.3,0.2s22.8,0.5,34.1,0
	c16.6-0.9,24.9-15.8,28.8-30.3c7.3-1.2,12.1-8.1,14.7-15.3c1.6-4.5,2.6-9.2,3.8-13.8s2.9-10.1,4.4-15.1c6-19.9,13.2-39.5,23.9-57.4
	c5.3-8.9,11.6-17.3,18.8-24.8c8-8.3,16.5-16.2,24-24.9c7.5-8.7,13.4-18.7,19.7-28.4s13.6-20.2,20.8-30l5.1-6.8
	c1.7-2.3,3.3-4.8,5.5-6.5s2.8-2,4.3-1.2s3.2,4.1,4.3,5.9c5.8,9.7,10.6,20.1,14.3,30.8c8.1,22.5,13.5,46,19.6,69.1
	c3.3,12.6,6.7,25.2,10,37.9c3.3,12.7,6.7,24.2,9.3,36.5s4.8,23.7,3.4,35.4c-1.4,11.7-5.1,21.8-1.5,32.6
	c3.6,10.8,10.5,18.5,11.1,29.3c0.4,8.9-2.5,17.4-6,25.4s-8.5,17.1-12.1,26c-1.9,4.4-3.3,9-4.4,13.7c-1.1,5.1-0.8,10.5-2,15.6
	c-0.9,3.5-3.7,7.4-7.8,6.3c-4.1-1.1-8.3,3.7-5.7,7.3c1.7,2.2,2.7,5,2.7,7.8c-4.9,6.3-8.7,13.4-11.3,21s-4.2,15.6-6.4,23.3
	c-1.2,4.2-2.5,8.3-4.1,12.3c-1.7,4.5-2.7,9.3-0.6,13.9s5.5,5.9,8.3,9.1c1.8,2.4,3.1,5.1,3.8,8c1.9,6.3,3.2,12.9,6.9,18.2
	c-1.6,1.7-2.7,3.7-3.3,5.9c-1.1,4,0.1,7.8,1.9,11.4c4.3,8.3,9.6,16,13.8,24.4c0,0.1,0.1,0.1,0.1,0.2c0.2,0.6,0.4,1.3,0.5,1.9
	c0.1,0.9,0.1,1.9,0.1,2.8c0.1,2.7-0.2,5.3-0.8,7.9c-0.5,2.7-1.4,5.3-2.7,7.7c-1.2,2.1-1.7,3-3.6,3.8s-3,4.7-1.8,6.8s4.4,2.9,6.9,1.8
	c5.3-2.3,8.1-8.6,9.8-13.7c2-6,2.7-12.4,1.9-18.7c-0.6-2.9-1.6-5.7-3.2-8.3l-7.3-12.8l-3.6-6.3c-0.9-1.6-2.1-3.3-2.4-5.2
	s2.3-4.4,4.3-5.9s1.8-5.4,0-7.1c-5.5-4.7-6.1-12.1-8.2-18.6c-1.1-3.8-3-7.4-5.4-10.6c-2-2.4-6.4-4.5-7.2-7.7s0.7-4.5,1.5-6.3
	l2.4-6.7c1.3-4.2,2.4-8.5,3.5-12.8c2-7.8,3.9-15.8,7.4-23.2c1.2-2.2,2.4-4.4,3.8-6.5s4.1-4.6,4.8-7c0.7-3,0.6-6.1-0.4-9
	c2.3-0.8,4.5-2.1,6.2-3.9c4.3-4.3,5.3-10.1,5.8-15.9c0.8-10,3.8-19,8-28C889,450.3,900,432.5,896,412.5z"/>
<path d="M767.5,459.9c0.3,1.5,0.6,3,0.8,4.5s3.8,4.2,6.2,3.5s3.9-3.4,3.5-6.2c-2.2-13-6.2-27.3-18.1-34.7c-3.3-2.1-7.1-3.1-10.9-4.4
	l-0.8-0.3c-0.2-0.1-0.7-0.3-0.8-0.3l-1.2-0.7c0,0,0,0,0,0c0,0-0.1-0.1-0.1-0.1c0,0,0.1,0.1,0.1,0.1c-0.1,0-0.1,0-0.1-0.1
	c-0.2-0.2-0.2-0.2-0.2-0.1c0,0.1,0-0.1-0.1-0.1l-0.3-0.4c0,0,0,0,0,0c0,0.1-0.4-0.6-0.5-0.8c-0.4-0.7-0.8-1.4-1.1-2.1l-0.2-0.5
	l-0.3-0.8c-0.4-1.1-0.9-2.2-1.5-3.2c-0.8-1.7-1.8-3.3-3-4.8c-2.6-3.7-5.2-7.4-7.5-11.3c-1.1-1.8-2.2-3.7-3.1-5.5l-1.3-2.8v-0.2
	c0-0.1-0.1-0.1-0.1-0.2l-0.6-1.6c-0.7-1.9-1.2-3.8-1.6-5.8c0-0.2-0.1-0.8-0.1-0.9c0-0.1-0.1-0.7-0.1-0.8c-0.1-1-0.1-2.1,0-3.1
	c0.3-9.2-0.5-18.4,0-27.6c0.2-4.3,0-8.5,0-12.8c0-1,0.1-2,0.1-3c0.1-0.4,0.1-0.9,0.1-1.3c0-0.1,0.1-0.3,0.1-0.4v-0.4
	c0.4-2.1,1.1-4.2,1.9-6.2c2.9-7.1,5.2-14.5,7.5-21.8s4.6-15.3,7.2-22.8c1.3-3.7,2.6-7.5,4.1-11.1l0.4-0.9c0.2-0.3,0.3-0.7,0.4-1
	l1.3-2.8l2.4-5.1c0.9-1.7,1.9-3.3,2.8-4.9c1.4-2.3,0.6-5.3-1.7-6.7l-0.1-0.1c-2.4-1.4-5.4-0.6-6.8,1.8
	c-8.4,13.8-13.2,29.5-17.9,44.9c-2.3,7.6-4.6,15.2-7.3,22.7c-1.4,3.7-3.2,7.3-3.9,11.3c-0.7,4.4-0.9,8.9-0.6,13.3
	c0.1,4.6-0.3,9.1-0.3,13.7c0,4.6,0.2,9.2,0.2,13.8s-0.3,9.2,0.4,13.8c0.7,4.2,2.1,8.4,4,12.2c1.9,4,4.1,7.8,6.6,11.5
	c1.2,1.9,2.5,3.7,3.7,5.5s2.6,3.5,3.7,5.3c0.4,0.7,0.7,1.4,1,2.2h0.1c0.1,0.4,0.3,0.9,0.5,1.3c0.7,1.8,1.5,3.6,2.6,5.2
	c2.8,3.9,6.8,5.6,11.3,7l2.9,0.9l0.7,0.3h0.1l0.8,0.4c0.7,0.3,1.4,0.7,2.1,1.2l1,0.6l0.4,0.3c0,0,0,0,0.1,0c-0.1,0-0.1-0.1-0.2-0.1
	c0.3-0.1,1.4,1.3,1.7,1.5l1.5,1.6l0.7,0.8c0,0.1,0.1,0.2,0.2,0.3l1.3,2c0.8,1.4,1.5,2.8,2.2,4.2c0,0.1,0,0.1,0.1,0.2
	c0.1,0.3,0.2,0.6,0.4,0.9c0.3,0.9,0.5,1.7,0.8,2.5C766.1,453.5,766.9,456.7,767.5,459.9z"/>
<path d="M815.3,553.8c-3-6-6.4-11.8-9.5-17.7c-6.1-11.8-12-23.7-18.9-35c-4.2-6.7-8.7-13.2-13.7-19.3c-1.7-2-5.4-1.8-7.1,0
	s-1.8,4.9,0,7.1l1.7,2.1l0.6,0.7c0,0.1,0,0.1,0.1,0.2c0.1,0.1,0.1,0.2,0.2,0.2l2.9,4c1.9,2.7,3.7,5.4,5.5,8.2
	c3.4,5.4,6.6,11.1,9.7,16.8c6.1,11.4,11.9,23,18.1,34.3c0.9,1.7,1.8,3.4,2.6,5.1l1.2,2.4l0.3,0.8c0.1,0.3,0.2,0.7,0.4,1
	c0.6,1.6,1.2,3.3,1.6,5l0.6,2.6c0,0.1,0.1,0.6,0.1,0.8s0.1,0.9,0.1,1.4c0.2,2.6,2.2,5.1,5,5s5.2-2.2,5-5
	C821.3,567.1,818.7,560.3,815.3,553.8z"/>
<path d="M745.8,462.4c-3.4-3.6-7.2-6.8-11.2-9.6c-8.8-6.7-18.2-12.4-27.2-18.6l-6.3-4.5l-0.7-0.6l-1.3-1l-2.2-2c-1.9-2-5.1-2-7.1,0
	c-1.9,2-1.9,5,0,7c3.2,3,6.6,5.8,10.3,8.2c4.2,3,8.6,5.8,12.9,8.7s9.1,6,13.6,9.2l3.2,2.4l0.5,0.4l1.5,1.2c1.8,1.4,3.5,2.9,5.1,4.5
	c0.8,0.8,1.6,1.6,2.3,2.4l0.3,0.4l0.7,1.1c0.3,0.3,0.5,0.6,0.7,1c0,0.1,0,0.2,0.1,0.3c0,0.2,0.1,0.5,0.2,0.7v0.1
	c0.1,0.1,0.1,0.3,0.1,0.4c0.3,2.5,2.4,4.5,4.9,4.5c2.6-0.1,5.2-2.2,5-5C751.1,469.2,748.6,465.6,745.8,462.4z"/>
<path d="M299.9,404.5c-0.3-2.6-0.6-5.1-0.8-7.7c-0.6-5.2-1.1-10.4-1.5-15.6l-3.3-36.3c-0.2-2.6-2.1-5.1-5-5c-2.9,0.1-5.2,2.3-5,5
	c2,21.9,3.5,43.9,6.4,65.7c2.7,19.7,7.4,39.3,16.5,57.1c4.9,9.5,11.1,18.3,18.6,25.9c1.8,2.1,5,2.3,7.1,0.5c2.1-1.8,2.3-5,0.5-7.1
	c-0.2-0.2-0.4-0.4-0.5-0.5c-1.6-1.6-3.1-3.3-4.6-5l-2-2.4l-0.3-0.4h-0.1c-0.1-0.3-0.1-0.3-0.2-0.4h0l-1.2-1.7
	c-2.6-3.6-5-7.3-7.1-11.2c-1.1-2-2.1-4-3.1-6.1c-1-2.1-1-2-1.4-3l-0.6-1.4h-0.1c-0.1-0.3-0.2-0.7-0.4-1c-1.7-4.1-3.2-8.4-4.5-12.7
	c-2.8-9.8-5-19.7-6.4-29.8c-0.2-1.2-0.4-2.4-0.5-3.6c-0.1-0.3-0.1-0.6-0.2-0.9L299.9,404.5z"/>
<path d="M812.8,485.6c-0.7,0.9-1.6,1.8-2.4,2.7c-0.5-0.2-1.1-0.3-1.7-0.3c-1.3,0-2.6,0.6-3.5,1.5c-1.6,1.8-2.2,5.3,0,7.1
	c1.5,1.3,3.4,2,5.3,2c1.8,0,3.5-0.6,5-1.6c2.2-1.7,4.1-3.7,5.7-6c3.4-4.3,6.6-8.9,9.4-13.6c5.4-9.2,9.6-19,12.4-29.3
	c2.7-10.7,4.2-21.7,4.3-32.8c0-2.8,0.1-5.5,0.3-8.3c0.1-1.3,0.3-2.5,0.4-3.8s0.1-0.4,0.1-0.6s0.1-0.7,0.2-1.1
	c0.1-0.7,0.3-1.5,0.5-2.2c0.3-1.4,0.6-2.7,1.1-4c0.2-0.6,0.4-1.1,0.6-1.7c0-0.1,0-0.1,0.1-0.2c0.2-0.4,0.3-0.9,0.5-1.3
	c1.2-2.5,2.6-4.9,4-7.3c3.4-5.6,6.2-11.6,8.6-17.7c2.3-6.2,3.8-12.6,4.5-19.2c0.3-2.6-2.5-5.1-5-5c-2.5,0.1-4.6,2.2-5,5
	c-0.1,0.4-0.1,0.8-0.2,1.1l-0.3,2c-0.2,1.3-0.5,2.7-0.8,4s-1.4,5.2-2.2,7.8c-0.4,1.1-0.8,2.2-1.3,3.3l-0.3,0.9
	c0-0.1-0.2,0.4-0.3,0.7c-0.1,0.3-0.1,0.3-0.2,0.3c-0.1,0.5-0.3,0.9-0.5,1.3c-1.1,2.4-2.3,4.7-3.6,7c-2.8,4.8-5.7,9.6-7.7,14.9
	s-2.8,11.1-3.2,16.7c-0.4,5.6-0.3,10.9-0.7,16.3c-0.1,2.4-0.3,4.9-0.7,7.3c0,0.4-0.1,0.9-0.1,1l-0.3,1.9c-0.2,1.2-0.5,2.4-0.7,3.7
	c-1,4.8-2.3,9.6-3.9,14.3c-0.8,2.3-1.7,4.6-2.6,6.9h-0.1l-0.3,0.8c-0.3,0.6-0.5,1.2-0.8,1.7s-1.1,2.3-1.6,3.4
	c-2.5,5-5.4,9.8-8.6,14.4l-2.4,3.4l-0.5,0.7c0,0,0,0,0-0.1c-0.1,0.1-0.3,0.3-0.3,0.5L812.8,485.6z"/>
</svg>
