<?xml version="1.0" encoding="utf-8"?>
<!-- Generator: Adobe Illustrator 24.2.3, SVG Export Plug-In . SVG Version: 6.00 Build 0)  -->
<svg version="1.1" id="a0159ae5-dcdf-423a-ac87-25a5b9245276"
	 xmlns="http://www.w3.org/2000/svg" xmlns:xlink="http://www.w3.org/1999/xlink" x="0px" y="0px" viewBox="0 0 1152 864"
	 style="enable-background:new 0 0 1152 864;" xml:space="preserve">
<path d="M787.8,459.9c-1.4-1.8-2.8-3.5-4.1-5.3l-1-1.2l-0.3-0.4l-0.2-0.3l-2.1-2.7c-2.7-3.7-5.3-7.4-7.8-11.1
	c-5.1-7.7-9.2-15.9-13.5-24c-7.4-14.1-17.3-26.8-29.2-37.4c-11.7-10.4-25.1-18.8-39.7-24.6c-7.1-2.9-14.3-4.8-21.6-6.9
	c-3.6-1-7.2-2.1-10.7-3.5l-0.5-0.2l-1.1-0.5l-2.7-1.3c-1.6-0.9-3-1.9-4.5-2.9h0h-0.1l-0.2-0.2l-1-0.9l-2.1-2c-1.9-1.9-5.1-1.9-7,0
	c-1.9,2-1.9,5.1,0,7.1c10.9,11.8,27.7,13.6,42.1,18.5l5.3,2l2.5,1l0.4,0.2l1.4,0.6c3.5,1.5,7,3.2,10.3,5.1c3.2,1.8,6.4,3.8,9.6,5.9
	l4.5,3.2l2.2,1.6h-0.2l0.7,0.6l1.2,0.9c5.8,4.8,11.2,10,16.1,15.7c1.3,1.4,2.5,2.9,3.7,4.4h0.1c0,0.1,0.2,0.2,0.2,0.3
	c0.3,0.3,0.6,0.7,0.8,1.1c0.6,0.8,1.2,1.5,1.7,2.3c2.3,3.2,4.4,6.6,6.4,10c4.5,7.9,8.3,16.3,13.1,24.2c5,7.8,10.3,15.4,16.1,22.6
	c11.7,14.9,23.9,29.4,35.9,44.1l4.6,5.6c1.9,2,5.1,2,7.1,0c2-2.2,1.8-4.9,0-7.1C812.1,489.5,799.8,474.8,787.8,459.9z"/>
<path d="M984.3,350.7c-1.2-6.3-6-11.3-10.7-15.4c-4.8-4.2-9.9-8.2-15.2-11.8c-10.4-7.1-21.7-12.8-33.5-17.1
	c-12.3-4.4-25.2-7.4-38.2-8.7c-14-1.6-28.1-2-42-3.7l-2.7-0.3h-1.9l-5.3-0.9c-3.3-0.6-6.6-1.2-9.8-2c-6.6-1.6-13-3.6-19.4-5.6
	c-12.8-4.1-25.5-8.5-38.8-10.9c-7-1.3-14.6-2.5-21.7-0.5s-11.5,6.2-16.1,10.8c-1.7,1.8-3.5,3.6-5.4,5.3l-0.7,0.5l-1.5,1.1l-3.3,2.1
	c-4.4,2.6-8.9,4.8-13.3,7.2s-7.1,3.8-9.9,6.6c-0.3,0.3-0.5,0.7-0.7,1c-3.9-2-8.2-3-12.6-2.7c-1.6,0.2-3.2,0.4-4.8,0.8l-1.1,0.2h-1
	l-7.5,0.5c-27.8,0.8-55.6-3-83.2,0.7c-3.2,0.4-6.4,0.9-9.6,1.6c-10.6,0.5-21.4,0-32-0.4c-14.3-0.7-28.6-1.6-42.9-2.7
	c-6.4-0.6-12.8-1.1-19.1-1.8l-8.1-1h-0.7l-1.5-0.2l-3.1-0.5c-4.8-0.8-9.4-0.8-14,1l-2.6,1.1c-0.2-0.4-0.4-0.7-0.7-1
	c-2.9-3-6.9-5-10.5-6.9c-3.6-1.9-9.2-4.8-13.6-7.5l-3.3-2.2l-1.3-0.9c0-0.1,0-0.1-0.1-0.1l-0.8-0.7c-2.1-1.8-3.9-3.9-5.8-5.8
	c-4.8-4.7-10.5-8.9-17.3-10c-6.8-1.1-15,0.1-22.2,1.6c-6.8,1.4-13.4,3.2-20,5.3c-13.2,4-26.2,8.7-39.7,11.6c-3.5,0.7-7,1.4-10.6,1.9
	h-1.6l-2.4,0.3l-5.6,0.6c-7.2,0.7-14.4,1.1-21.6,1.7c-14,1-28.1,2.5-41.7,6.2c-12.4,3.5-24.4,8.5-35.6,14.9
	c-5.5,3.1-10.8,6.6-15.8,10.4c-5.1,3.8-10.4,7.9-14.5,12.8c-4.1,4.9-7.2,11.9-5.1,18.7c2.1,6.8,6.2,9.9,11,13.1
	c4.8,3.2,9.8,5.4,14.7,8.2l6.5,3.8c0.2,0.8,0.6,1.5,1.1,2.1c1.1,1.2,2.1,2.5,3.1,3.8c0.5,0.5,1,1.1,1.4,1.7c0.3,0.3,0.6,0.7,0.8,1.1
	c0.1,0,0.2,0.1,0.2,0.2l0.2,0.2c1.9,2.6,3.9,5.2,5.8,7.9c3.7,5.2,7.2,10.7,10.4,16.3s6.3,11.3,9.1,17.1c0.7,1.4,1.4,2.8,2,4.2
	c0.4,0.7,0.7,1.5,1,2.3c0.1,0.1,0.1,0.1,0.1,0.2l0.6,1.5c0.6,1.5,1,3,1.2,4.5v0.2c0.1,0.1,0.1,0.1,0.1,0.3c0,0.4,0,0.7,0.1,1.1
	c0,1,0.1,1.9,0.2,2.9c0.6,9.7,0.9,19.5,1.9,29.2s2.6,19.7,6.6,28.9c2,4.7,4.8,9,8.3,12.7c3.6,3.7,7.9,6.7,12.6,8.7
	c-2.3,5.4-4.4,10.8-6.1,16.4c-2.6,8.9-3.7,19.1,1.3,27.4c3.1,5,7.9,8.3,12.5,11.8l14.6,10.9l0.4,0.3c-0.2,4.5-0.5,9-0.7,13.4
	s-0.6,8.7-1,13c-0.2,2.6,2.5,5.1,5,5c2.7-0.1,4.9-2.3,5-5c1.5-17.9,2-35.8,3-53.7c0.6-8.9,1.3-17.9,2.4-26.7c0-0.6,0.1-1.1,0.1-1.6
	s0.1-0.6,0.2-1V538c0-0.1,0.1-0.2,0.1-0.3c0-0.3,0-0.5,0.1-0.8c0.1-0.6,0.1-1.1,0.2-1.7c0.4-2.2,0.7-4.5,1.1-6.7
	c0.7-4.2,1.6-8.4,2.6-12.5s2.2-8.3,3.6-12.3l2.1-5.9l0.6-1.5l0.3-0.7c0.1-0.1,0.1-0.1,0.1-0.2v-0.3l0.3-0.7l0.8-1.7
	c3.6-7.9,8.6-14.9,13-22.3c9.7-16,17.2-33.2,26.8-49.2c2.4-3.9,4.8-7.8,7.5-11.5c0.6-1,1.3-1.9,2-2.8l0.9-1.3l0.3-0.3
	c0.1-0.2,0.5-0.7,0.6-0.7c1.4-1.9,3-3.7,4.5-5.4c6.6-7.6,13.6-14.9,20-22.7c6.4-7.8,10.3-14.3,15.3-21.7c2.2-3.4,4.5-6.7,6.9-9.8
	l0.5-0.6l0.8-1l2-2.4c1.3-1.5,2.6-2.9,4-4.2l2.2-2l1-0.8l0.7-0.6c1.5-1.2,3.1-2.2,4.7-3.2l2.4-1.2l1.2-0.5l0.9-0.4
	c2.2-0.8,4.4-1.5,6.6-2.1c4.7-1.4,9.4-2.9,13.3-5.9c1.9-1.4,3.7-3,5.6-4.5l0.7-0.5c0.5-0.3,1-0.6,1.5-0.9c0.8-0.5,1.7-0.9,2.7-1.2
	c3.4-1.1,5.5-0.8,8.8-0.3l7.7,1.1c5.7,0.7,11.5,1.3,17.2,1.8c14,1.3,28,2.3,42.1,3c12.1,0.6,24.2,1.2,36.4,1.1l5.9-0.2h1.4l4.5-0.9
	l2.2-0.4h1.7c3.4-0.4,6.8-0.8,10.2-1c7.2-0.5,14.3-0.6,21.5-0.5c13.9,0.1,27.9,0.8,41.9,0.9c5.3,0.1,10.7,0,16-0.5
	c2.5-0.2,5-0.7,7.5-1.1h2.5c0.7,0,1.3,0.2,1.9,0.4c2,0.4,3.9,1.3,5.6,2.5l0.7,0.5l0.7,0.5l2.3,2c1.8,1.5,3.6,2.8,5.6,4
	c4,2.1,8.3,3.3,12.6,4.6c1.7,0.5,3.4,1,5.1,1.7l0.7,0.3l1.2,0.6l2.7,1.5c1.3,0.8,2.6,1.6,3.8,2.6l0.6,0.4l1,0.9l2,1.8
	c2.6,2.5,5,5.2,7.2,8l0.5,0.7l0.6,0.8l1.4,1.8c1.2,1.6,2.3,3.3,3.4,5c4.1,6,8,12.2,12.3,18c5.4,7.5,11.3,14.7,17.5,21.5
	c6,6.6,12.6,12.5,18.4,19.2c5.1,5.9,9.8,12.2,13.9,18.8c4.2,7,8,14.3,11.5,21.7s6.1,13.7,9.1,21.5s6.2,16.9,8.7,25.5
	c10.4,35.6,14.3,71.8,17.5,108.5l1.2,13.4c0.2,2.6,2.1,5.1,5,5s5.2-2.2,5-5c-0.7-8.7-1.5-17.4-2.3-26.1l1.1-0.6l12.3-9.3
	c3.9-2.9,8.2-5.7,11.6-9.3c3.1-3.4,5.2-7.6,6.1-12.1c0.7-4.6,0.6-9.3-0.3-13.9c-1.5-7.4-4.5-14.5-7.2-21.7
	c12-16.5,20.7-35.2,25.4-55.1c1.3-5.4,2.2-10.9,2.9-16.4c0.4-2.6,0.6-5.2,0.8-7.9l0.3-3.9c0-0.2,0-0.4,0.1-0.6
	c0-0.2,0.1-0.8,0.1-0.8c0.1-0.7,0.3-1.5,0.5-2.2l0.6-1.8l0.4-1c0-0.2,0.1-0.3,0.2-0.5c0.5-1.2,1-2.3,1.6-3.5s2.4-5.1,3.7-7.6
	c2.4-4.9,5.1-9.7,7.9-14.5s6.5-10.3,10-15.3c1.8-2.5,3.6-5,5.5-7.4h0.1l0.8-1.1c0.5-0.6,0.9-1.2,1.4-1.7l3.1-3.8
	c0.5-0.6,0.9-1.3,1.1-2.1c4.7-2.9,9.5-5.4,14.4-8c4.9-2.6,9.4-5.1,13-9C982.8,363.6,985.6,356.9,984.3,350.7z M196.2,371.8
	c-4.9-3.4-10.1-5.9-15.2-8.7l-3-1.8l-1.7-1.1l-0.8-0.6l-0.3-0.2l-2.6-2.3c-0.2-0.4-0.5-0.8-0.9-1.1l-0.7-1.1l-0.4-0.7l-0.2-0.3
	c-0.2-0.4-0.3-0.9-0.4-1.3c0-0.3-0.1-0.5-0.1-0.7c0,0,0-0.1,0-0.1c0-0.5,0-1.8,0-2.1c0-0.4,0,0.2,0.1,0c0.1-0.2,0.1-0.7,0.2-1
	l0.3-0.9c0.1,0,0.1,0,0.1-0.1l1.1-1.9c0.1-0.3,0.3-0.6,0.5-0.8l0.4-0.5c2-2.2,4.1-4.2,6.3-6.2l3.5-2.9l1.6-1.4l0.8-0.6l0.9-0.7
	c4.9-3.7,10-7,15.3-10.1c2.8-1.6,5.6-3.1,8.4-4.4l3.8-1.9l2.2-0.9l0.9-0.4h0.5c11.9-4.9,24.4-8.2,37.1-10h0.3l1.6-0.2l2.1-0.2
	l5.7-0.6l10.5-0.9c7.1-0.5,14.2-1,21.3-1.7s14.7-1.7,21.9-3.1c7.2-1.4,13-3.2,19.4-5.2c13.1-4,25.9-8.7,39.2-11.5
	c1.5-0.4,3-0.7,4.6-0.9l2.5-0.5h1l0.9-0.2c1.7-0.2,3.4-0.4,5.1-0.4h3.6l1,0.2c1.3,0.2,2.5,0.5,3.7,0.9l0.8,0.4l0.8,0.4l2.2,1.3
	c0,0.1,0,0.1,0.1,0.1c-4-0.2-8,0-12,0.4c-5.9,0.6-11.7,1.6-17.4,2.9c-5.2,1.1-10.3,2.6-15.3,4.3c-5.2,1.9-9.9,4.9-13.9,8.7
	c-3.5,3.6-6.5,7.6-8.8,12c-2.4,4.5-4.5,9.3-6.5,13.9c-2,4.6-4.7,11.4-5.8,17.5c-2.4,12.6-2,25.4-2.6,38.1c-0.1,3.1-0.3,6.2-0.7,9.2
	c0,0.7-0.1,1.3-0.2,2v0.2c-0.1,0.3-0.1,0.6-0.2,0.8c-0.1,0.2-0.6,3-0.9,4.4l-1.2,3.9L316,403c-0.1,0.3-0.2,0.7-0.4,1
	c0,0.2-0.1,0.4-0.2,0.6c-1.2,2.6-2.4,5.1-3.8,7.6c-5.7,10.1-13,19.3-19.7,28.8c-1.7,2.4-3.3,4.9-4.9,7.3c-0.7,1.1-1.4,2.2-2,3.4
	c-0.4,0.5-0.7,1.1-1.1,1.7l-0.6,0.9l-0.2,0.2H283l-1.2,1.3c-0.2,0.2-1.2,0.8-0.3,0.3l-0.6,0.4h-0.1l-0.8,0.3h-0.6l-1.1-0.4H278
	l-2-1.2c0-0.1-0.2-0.2-0.3-0.2l-0.5-0.5l-2.1-1.9c-2.3-2.1-4.5-4.3-6.5-6.6l-2.9-3.5l-1.4-1.8l-0.2-0.2l-0.8-1.1
	c-3.8-5-7.3-10.3-10.9-15.5c-7.1-10.5-15.2-20.2-24.2-29.1C217.1,386.1,207,378.3,196.2,371.8z M258.5,515.9l-1.2-0.6l-0.5-0.4
	l-2.4-2.2c-0.7-0.8-1.4-1.5-2-2.3l-0.2-0.2V510l-1-1.4c-1.2-1.8-2.3-3.6-3.2-5.6l-0.4-1c-0.1-0.2-0.3-0.6-0.4-0.8L246,498
	c-0.7-2.2-1.3-4.4-1.8-6.6c-0.5-2.3-0.9-4.6-1.3-6.9l-0.3-1.8v-0.6c-0.2-1.2-0.3-2.4-0.5-3.7c-1-9.6-1.2-19.2-1.9-28.8
	c0-3.5-0.4-7-1.2-10.5c-1.1-3.4-2.5-6.7-4.1-9.9c-2.7-5.8-5.6-11.5-8.8-17.1c-1.7-3.1-3.5-6.1-5.4-9.1c2.9,2.9,5.7,5.8,8.3,8.9
	c1,1.1,2,2.2,2.9,3.4l1.5,1.8l0.6,0.7l0.6,0.8h0.1l0.5,0.7l0.6,0.8l1.4,1.9c1,1.4,2,2.7,2.9,4.1c3.7,5.2,7.2,10.6,11,15.7
	c3.7,5.4,7.9,10.5,12.5,15.2c3.4,3.4,7.5,7.3,12.2,8.8v0.2c0.1,0.6,0.3,1.1,0.4,1.7c0,0.3,0,0.5,0.1,0.8l0.3,3.4
	c0.1,2.3,0.1,4.6-0.1,6.9c-0.1,0.6-0.1,1.1-0.2,1.7c0,0.3,0,0.5-0.1,0.8c0,0.2,0,0.4-0.1,0.5c0,0.3,0,0.5-0.1,0.8l-0.3,1.9
	c-0.5,2.3-1,4.6-1.7,6.9c-1.3,4.6-2.8,9.2-4.6,13.6l-1.4,3.3l-0.6,1.5v0.2l-0.4,1l-3,6.8c-0.1,0.3-0.2,0.7-0.4,1l-0.7-0.4l-1.5-0.7
	L258.5,515.9z M441.9,311.1l-0.5,0.3h-0.2l-0.2,0.2l-2.6,1.6l-1.7,0.8h-0.1l-0.9,0.3c-2.2,0.9-4.5,1.5-6.8,2.2
	c-4.4,1.2-8.6,2.9-12.5,5.1c-14.5,8.6-23.1,24-32.3,37.6c-5.3,7.7-11.2,15-17.5,21.8c-6.8,7.5-13.6,14.9-19.5,23.2
	c-10.9,15.4-18.8,32.6-27.7,49.2c-2.2,4.1-4.5,8.2-7,12.2s-4.9,7.6-7.2,11.4c-4.5,7.6-8.1,15.6-10.8,24c-5.8,17-8.2,35-9.8,52.8
	c-0.8,9.7-1.3,19.4-1.8,29.1l-8.5-6.4l-3.1-2.3l-1.5-1.1c-0.1-0.2-0.3-0.3-0.5-0.4c0-0.1,0-0.1-0.1-0.1c-1.7-1.4-3.2-2.8-4.7-4.4
	c-0.2-0.3-0.4-0.6-0.6-0.9L263,566c-0.3-0.4-0.5-0.8-0.7-1.3c0,0,0.5,1.1,0.1,0.1c-0.4-1-0.1-0.5-0.2-0.7c-0.1-0.2-0.5-1.9-0.7-2.9
	c-0.1-0.1-0.1-0.1-0.1-0.2v-0.3c-0.1-0.6-0.1-1.1-0.1-1.7c0-1,0-1.9,0.1-2.9c0-0.5,0.1-1.1,0.1-1.6c0-0.2,0.1-0.5,0.1-0.7
	c0.4-2.1,0.9-4.2,1.5-6.3c1.2-4.2,2.8-8.3,4.4-12.4l1.2-3c0.2-0.5,0.4-1,0.7-1.5c0.1-0.4,0.3-0.7,0.4-1.1c1-2.1,1.9-4.3,2.9-6.5
	c3.9-8.9,7.9-17.9,10.6-27.3c2.7-9.4,4.2-20.3,2.5-30.6c4.5-2.5,7.1-7.6,9.8-11.9c2.7-4.3,6.7-9.8,10.2-14.6
	c7.1-9.8,14.3-19.7,19-31c2.3-5.6,3.7-11.4,4.4-17.4c0.7-6.2,0.8-12.5,1-18.7s0.3-12.8,0.9-19.2c0.1-0.7,0.2-1.4,0.2-2.1
	c0.1-0.4,0.1-0.7,0.2-1.1v-0.2c0.2-1.6,0.5-3.3,0.8-4.9c0.6-3,1.4-5.9,2.4-8.8c0.3-0.6,0.5-1.3,0.8-1.9v-0.2l0.3-0.8l1.8-4.2
	c1.1-2.4,2.1-4.8,3.3-7.1c1-2.3,2.2-4.5,3.5-6.7c0.5-1,1.1-2,1.8-2.9l1-1.5l0.4-0.5h0.1c0-0.1,0.1-0.1,0.1-0.2c1.5-1.8,3.2-3.5,5-5
	l0.3-0.2l0.2-0.2l1.6-1.1l3.4-1.9l1.2-0.5l1.5-0.6l3.7-1.1c2.6-0.8,5.2-1.5,7.8-2.1l8.3-1.9l4.2-0.7l2.1-0.3l1.3-0.2
	c5.5-0.7,11-0.8,16.5-0.3h1l1.9,0.3l3.2,0.8c1.1,0.2,2.3,0.6,3.3,1.1l0.7,0.4l1.5,0.8c0.7,0.4,1.5,0.6,2.3,0.6l1.8,1.2
	c4.3,2.7,8.9,5,13.4,7.4l5.5,3.1l2,1.3c0.1,0.1,0.1,0.2,0.2,0.2l0.5,0.5L441.9,311.1z M883.2,564v0.3h0v0.2
	c-0.1,0.6-0.3,1.1-0.4,1.6c-0.1,0.4-0.2,0.9-0.4,1.3c0,0.2-0.1,0.5-0.2,0.7c-0.1,0.1-0.1,0.2-0.1,0.3l-0.4,0.8l-0.8,1.3l-0.4,0.6
	c-0.1,0.2-0.8,0.9-0.1,0.2l-1.1,1.2c-0.8,0.9-1.7,1.7-2.6,2.5l-1.4,1l-0.8,0.6l-3.2,2.5l-10.8,8.1c-2.6-25.2-6.1-50.3-12.2-74.8
	c-4.5-17.6-10.4-34.8-17.6-51.4c-6.4-15.2-13.9-29.9-23.6-43.3c-5.1-7.1-10.8-13.7-17-19.9c-6.6-6.4-12.8-13.1-18.6-20.2
	c-4.8-6-9.5-12.6-14-19.3c-4.5-6.7-8.4-12.8-13.2-18.8c-4.6-5.8-10.2-10.7-16.5-14.5c-3.6-2-7.4-3.6-11.3-4.7l-6.1-1.8
	c-1.8-0.6-3.5-1.4-5.1-2.3c-1-0.7-2-1.4-3-2.2l0.5-0.4c0.1-0.1,0.1-0.2,0.2-0.2l2.1-1.5l5.5-3.1c4.5-2.3,8.9-4.6,13.2-7.2l2-1.3
	c0.8,0,1.6-0.2,2.3-0.6l1.4-0.8l0.7-0.4c1-0.5,2.2-0.9,3.3-1.1l3.2-0.8l1.9-0.3h1c5.4-0.5,10.8-0.4,16.1,0.3l1.8,0.2l1.4,0.2
	l4.4,0.8c2.7,0.5,5.3,1,7.9,1.7c5.1,1.1,10.2,2.6,15.1,4.4l1,0.4h0.2l1.7,0.8l4,2.1c2.3,1.3,4.6,2.8,6.7,4.4h0.2l0.8,0.7l1.5,1.2
	l3.3,3.1c1.9,1.9,3.7,3.9,5.4,6h0.1l0.6,0.8l1.1,1.6c0.8,1.2,1.6,2.4,2.3,3.6c0.7,1.1,1.4,2.3,2,3.5l0.9,1.9
	c0.1,0.3,0.2,0.6,0.4,0.8l0.3,0.8c2.4,6,4.1,12.2,5.1,18.6c0.2,0.8,0.3,1.6,0.4,2.4c0.1,0.4,0.1,0.7,0.2,1c0,0.3,0,0.5,0.1,0.8
	c0,0.3,0,0.6,0.1,0.9c0,0.3,0.1,0.7,0.1,1l0.3,2.8c0.4,3.3,0.7,6.5,0.9,9.8c0.6,6.9,1.2,13.7,2.1,20.5c1.8,13,5,25.7,9.6,38
	c2.4,6.4,5.1,12.6,8.2,18.7c1.5,2.9,3,5.7,4.6,8.4c1.6,2.7,3.2,5.5,5.6,7.5c0.9,0.8,1.9,1.5,3,2v1.1c2.8,19,7.3,37.7,13.4,55.9
	c0.5,1.8,1.2,3.5,1.8,5.3c-0.3,1.8,0.3,3.6,1.7,4.8l1.2,3.3c1.6,3.9,3.1,7.9,4.3,11.9c0.5,1.9,1,3.9,1.4,5.9
	c0.1,0.4,0.2,0.8,0.2,1.2c0,0,0,0,0,0c0.1,0.6,0.1,0.6,0.1,0.8C883.3,560.1,883.3,562.1,883.2,564z M893.5,497.2
	C893.3,497.7,893.4,497.4,893.5,497.2L893.5,497.2z M908.1,436.2c-1.4,2.7-2.3,5.6-2.9,8.6c-0.5,3.1-0.7,6.3-0.9,9.5
	c-0.1,1.2-0.3,2.5-0.4,3.8c-0.1,0.6-0.2,1.1-0.2,1.7c0,0.2-0.1,0.5-0.1,0.7c-0.1,0.2-0.1,0.5-0.1,0.7c-0.4,2.6-0.8,5.2-1.4,7.8
	c-1,5.2-2.3,10.3-3.9,15.3c-0.8,2.5-1.7,5.1-2.6,7.6l-1.4,3.6c-0.2,0.6-0.4,1.1-0.7,1.6c-0.1,0.4-0.3,0.8-0.5,1.1
	c-3.3,7.6-7.2,14.9-11.7,21.9c-2.2-6.8-4.2-13.7-6-20.6c-2.5-10-4.6-20.2-6.1-30.4c2.5-1,4.8-2.4,6.9-4.2c4.7-4,9-8.5,12.8-13.4
	c4-5.1,7.7-10.4,11.4-15.8l5.2-7.5l2.8-3.8l1.1-1.6l0.6-0.7l0.6-0.8c4.1-5.2,8.6-10.2,13.3-14.8C917.9,416,912.6,425.9,908.1,436.2z
	 M974.7,354c0,0.4,0,0.7,0,1.1v0.3c0,0.1-0.1,0.3-0.1,0.4c0,0.1-0.3,1-0.4,1.5c-0.2,0.2-0.3,0.4-0.4,0.7l-0.9,1.5h-0.1l-0.6,0.7
	l-1,1c-0.4,0.5-0.9,0.9-1.4,1.3l-0.2,0.2l-0.6,0.4c-4.4,3.2-9.3,5.4-14.1,7.9s-10.3,6-15.2,9.4c-10.1,7-19.5,15.1-27.9,24.1
	c-8.4,9.1-15.3,19.2-22.3,29.3c-1.8,2.6-3.6,5.1-5.5,7.6l-1.2,1.8l-0.5,0.6c-0.2,0.2-0.5,0.7-0.5,0.6l-3,3.7c-2,2.3-4,4.5-6.2,6.6
	l-3.2,2.8l-0.4,0.4c-0.1,0.1-0.8,0.5-0.8,0.6l-1.9,1c0,0.1-0.1,0.1-0.2,0.1l-1.1,0.3h-0.4l-0.7-0.2h-0.1l-0.7-0.4
	c0.9,0.5,0,0-0.2-0.2c-0.5-0.4-0.9-0.8-1.3-1.3c0.2,0.2-0.4-0.7-0.6-0.9c-0.2-0.2-1.6-2.6-2.4-3.9c-3.2-5.7-6.1-11.5-8.7-17.5
	l-0.3-0.7c-0.1-0.2-0.2-0.3-0.2-0.5l-0.9-2.3c-0.7-1.5-1.3-3.1-1.8-4.7c-1.1-3-2.1-6-3.1-9.1c-1.8-6.1-3.3-12.3-4.5-18.6
	c-0.3-1.5-0.5-3.1-0.8-4.7l-0.3-2.2c0-0.3-0.1-0.6-0.2-0.9c0-0.3-0.1-0.9-0.1-1c-0.4-3.3-0.7-6.6-1-9.9c-0.6-6.4-1-12.8-1.8-19.2
	c-1.5-12.9-4.1-25.8-10.7-37.2c-5.8-9.8-13.8-18.2-23.4-24.3c-9.3-5.9-20-8.9-30.6-11.2c-10.6-2.3-18.6-3.4-27.9-2.9
	c1-0.7,2.1-1.3,3.2-1.9l0.6-0.3h0.3c0.8-0.3,1.7-0.6,2.6-0.7l1.1-0.2h3c1.7,0,3.5,0.1,5.2,0.3h1.1c0.1,0,0.2,0,0.3,0
	c0,0-0.1,0-0.1,0l2.5,0.4l5.1,1c6.4,1.3,12.7,3,19,4.9c12.7,3.9,25.2,8.4,38.1,11.4s27.9,4.2,41.9,5.2c6.8,0.5,13.7,1,20.5,1.8
	l2.4,0.3h1.6l5.4,0.8c3.1,0.5,6.2,1.2,9.2,1.9c6,1.4,11.9,3.2,17.7,5.4l3.9,1.5l0.9,0.4c0.1,0,0.2,0,0.2,0.1h0.1l2.4,1l8.1,4
	c5.3,2.8,10.4,5.9,15.4,9.3l3.6,2.6l1.7,1.2l0.7,0.6l0.8,0.5c2.4,1.9,4.7,3.9,7,6l2.9,2.8l1.3,1.5h0.1c0,0.1,0.1,0.1,0.1,0.2
	l0.7,1.1c0.4,0.5,0.7,1.1,1,1.7l0.3,0.6c0,0.1,0.1,0.2,0.1,0.4c0.1,0.3,0.2,0.5,0.2,0.8l0.2,0.5V354z"/>
<path d="M809,529c-0.2-0.3-0.3-0.6-0.4-0.9c-0.1-0.1-0.1-0.2-0.1-0.3c-0.1-0.1-0.1-0.2-0.1-0.3v0.2c-0.4-1.2-1-2.4-1.8-3.4l-6.3-9.1
	c-8.8-12.3-18.3-24.1-30.5-33.2c-6.3-4.7-13.1-8.5-19.8-12.6c-3.3-2-6.6-4.2-9.8-6.4l-4.7-3.4l-1.1-0.9h-0.2l-0.2-0.2l-2.6-2
	c-5.7-4.7-10.9-9.9-16.4-14.7c-5.5-4.8-11.9-9.2-19.4-10.5c-15.9-2.6-30.2,6.5-42.2,16c-1.4,1.1-2.8,2.2-4.1,3.4
	c-1.3,1.2-1.9,5.3,0,7c1.9,1.9,5.1,1.9,7,0l3.5-2.8l1.7-1.4h0.3l1.2-0.9c2.5-1.9,5.1-3.7,7.8-5.3l3.8-2.2l1.9-0.9l0.8-0.4l0.7-0.3
	c2.7-1,5.5-1.8,8.4-2.4h6.6c1.4,0.2,2.7,0.5,4,1l1.1,0.4h0.1c0.7,0.3,1.4,0.6,2,1c1.2,0.6,2.4,1.3,3.5,2.1l1.8,1.3
	c0,0.1,0,0.1,0.1,0.1l0.9,0.8c2.3,1.8,4.4,3.9,6.6,5.9c9.5,9,20,17.1,31.1,24.1c5.6,3.4,11.3,6.6,16.7,10.3l4,2.9l0.4,0.3l0.7,0.5
	l2,1.6c2.2,2,4.4,4,6.6,6.2s4.6,4.9,6.8,7.4l3.1,3.9l1.5,1.8c0.1,0.2,0.4,0.5,0.4,0.6l0.8,1c4,5.4,7.8,10.9,11.6,16.5
	c0.6,2.2,2,4.3,2.9,6.2s1.3,2.6,1.9,4l0.3,0.6c0.1,0.2,0.1,0.3,0.2,0.4c0.5,2.3,2.5,4,4.9,4c2.8,0,5-2.2,5-5
	c-0.1-2.2-1.2-4.2-2.1-6.1S809.9,531,809,529z M808.4,527.9C808.5,528.4,808.6,529.3,808.4,527.9L808.4,527.9z"/>
<path d="M364.1,461.7c4.4-7.4,7.6-15.4,11.2-23.2c1.9-4,4-7.8,6.1-11.7c2.1-3.9,4.5-8.5,6.7-12.7s4.2-7.7,6.6-11.3l1.5-2.1l0.8-1.1
	l0.4-0.5l3.6-4.2c2.6-2.9,5.3-5.6,8.1-8.2l4.4-3.7l2-1.6l0.4-0.3l1.4-1c6.3-4.6,13-8.7,19.9-12.2c3.4-1.8,6.9-3.5,10.5-5l1.4-0.6
	l0.4-0.2l2.9-1.2l5.3-2c7.3-2.6,14.6-4.6,22-6.8c7.4-2.2,15.3-4.7,21.6-9.6c1.8-1.3,3.4-2.7,4.9-4.3c2-1.9,2-5.1,0-7.1
	c-2-1.9-5-1.9-7,0l-2,2l-1,0.9l-0.3,0.2l-0.2,0.2c-1.5,1.1-3.1,2.1-4.8,2.9l-2.5,1.3l-1.2,0.5c1.2-0.4-0.5,0.2-0.7,0.3l-5.5,1.9
	c-7.3,2.3-14.8,4.1-22,6.6c-15,5-29.4,11.9-42.6,20.6c-13.1,8.9-24.9,19.9-33,33.6c-2.4,4.1-4.6,8.3-6.8,12.6
	c-2.2,4.3-4.5,8.2-6.6,12.3c-4.1,7.6-7.2,15.7-11.1,23.4c-1.9,3.8-4,7.5-6.4,11.1l-1.7,2.4l-0.6,0.7L349,466l-4.9,6l-18.9,23.1
	l-4.8,5.8c-1.6,2-2.1,5.1,0,7.1c2.1,2,5.3,2.2,7.1,0c6.4-7.8,12.7-15.6,19.1-23.3C353,477,359.3,470,364.1,461.7z"/>
<path d="M502.4,435.5c-10.7-8.8-25.3-11.1-38.8-10.1c-6.8,0.3-13.4,1.5-19.8,3.8c-7.5,2.9-13.4,8.2-19.2,13.7l-8.9,8l-5,4.1
	l-0.3,0.2h-0.2l-1.1,0.9l-2.8,2c-6.7,4.9-13.9,9.1-21,13.4c-7.2,4.3-13.9,9.3-20,15c-5.7,5.7-11.1,11.7-15.9,18.2
	c-2.3,3.1-4.6,6.3-6.8,9.5l-3.4,4.8l-1.6,2.3l-0.7,1.1c-0.4,0.5-0.6,1.2-0.7,1.8c0.1-0.6,0,0.1-0.2,0.4v0.2l-1.5,3
	c-1,2.1-2.1,4.2-3,6.4c-0.6,1-0.9,2.1-0.9,3.3c0.1,2.7,2.3,4.9,5,5c2.4,0,4.4-1.8,4.9-4.1l0.2-0.4c0.1-0.2,0.1-0.4,0.2-0.6l2-4.1
	c1.2-2,2.1-4,2.9-6.2c3.6-5.3,7.3-10.7,11.1-15.8l1.6-2.1V509l0.7-0.8l3.2-4c2.2-2.6,4.4-5.1,6.7-7.4c2.2-2.4,4.6-4.7,7.1-6.8
	l1.7-1.4l1-0.8h0.2c0-0.1,0.1-0.1,0.2-0.2c1.4-1.1,2.9-2.2,4.5-3.2c5.7-3.9,11.8-7.3,17.7-11c6.2-3.9,12.2-8.2,17.9-12.8
	c5.3-4.2,10.2-8.9,15.2-13.5c1.1-1,2.2-2,3.4-2.9l0.6-0.6c0.2-0.1,0.4-0.2,0.5-0.4l1.9-1.3c1.2-0.8,2.5-1.6,3.8-2.3l0.9-0.4l0.6-0.3
	l1.9-0.7c2.5-0.7,5.1-1.4,7.7-1.9l3.7-0.6h1.4l2.2-0.2c3.2-0.3,6.4-0.3,9.6-0.1l4.5,0.4l1.4,0.2l2.1,0.4c1.5,0.3,3,0.7,4.5,1.2
	l2.1,0.7l0.8,0.3h0.4c1.3,0.6,2.6,1.3,3.9,2l1.7,1.1l0.7,0.5l0.4,0.3c2,1.6,5.1,2.1,7,0C504.2,440.4,504.6,437.3,502.4,435.5z"/>
<path d="M666,383.7c1.6-1.9,2.1-5.3,0-7.1c-12.9-10.4-25.9-20.6-39.1-30.6c-6-4.5-12-9-19.2-11.7s-14.8-2.2-22-0.2s-13.2,4.8-20,6.5
	l-2.4,0.5l-1.2,0.2c-0.1,0-0.2,0.1-0.3,0.1c-2,0.3-4.1,0.4-6.1,0.3l-5.7-0.4l-1.4-0.2h-0.8l-3-0.4c-7.7-1.2-15.3-2.2-23.1-1.2
	c-7.3,0.9-14.5,3-21.2,6c-14.6,6.4-27.3,16.7-39.1,27.2c-2,1.9-2,5.1,0,7.1c2,1.9,5,1.9,7,0l8-6.8l3.9-3.2l0.7-0.5l0.6-0.5l2.1-1.6
	c5.5-4.1,11.3-7.8,17.4-10.9c1.4-0.8,2.9-1.5,4.4-2.1c0.2-0.1,1-0.4,0.7-0.4h0.4l2.7-1c3.2-1.2,6.4-2.1,9.7-2.8l2.4-0.4h1.1l5.3-0.4
	l5.3,0.2l2.8,0.3h2.3c7.8,1.1,15.7,2.7,23.6,1.8s13.8-3.4,20.6-5.8c3.1-1.1,6.3-2,9.5-2.7l1.2-0.2h0.3l2.4-0.2h4.4
	c1.5,0.3,3,0.7,4.5,1.2l1.2,0.5h0.3l2.7,1.4c3,1.7,5.9,3.5,8.6,5.6c3.6,2.6,7.1,5.3,10.6,8l4.9,3.8l0.6,0.5l1.6,1.2l2.7,2.1
	c7,5.5,14,11,21,16.7C660.9,385.3,664,385.8,666,383.7z M561.7,341.4C561.3,341.5,560.9,341.6,561.7,341.4L561.7,341.4z"/>
</svg>
