<?xml version="1.0" encoding="utf-8"?>
<!-- Generator: Adobe Illustrator 24.2.3, SVG Export Plug-In . SVG Version: 6.00 Build 0)  -->
<svg version="1.1" id="a2a7213d-756e-426e-bbe4-da06e8ca4ee8"
	 xmlns="http://www.w3.org/2000/svg" xmlns:xlink="http://www.w3.org/1999/xlink" x="0px" y="0px" viewBox="0 0 1152 864"
	 style="enable-background:new 0 0 1152 864;" xml:space="preserve">
<path d="M917.9,585.9c-0.3-15.5-2-31-5-46.2c-3.2-16.4-8.2-32.4-14.8-47.8c-5.6-12.5-12.8-25.4-23.3-34.5c-2.5-2-5.2-3.9-7.9-5.6
	l-0.9-0.6l-0.5-0.5c-0.7-0.6-1.4-1.3-2-2l-0.6-0.7c0.2,0.2-0.3-0.5-0.5-0.7c-0.2-0.3-1.1-1.6-1.6-2.4l-1.2-2.5
	c-0.1-0.1-0.1-0.1-0.1-0.2h-0.1l-0.6-1.6c-0.6-1.9-1.1-3.8-1.5-5.7c-0.2-0.9-0.4-1.9-0.5-2.8c0-0.1,0-0.1-0.1-0.2v-0.3
	c-0.1-0.5-0.1-1.1-0.2-1.7c-0.1-0.6-0.1-1.8-0.1-2.6c4.9,1.9,10.3,1.7,13.8-3.5c1-1.5,1-3.5,0-5c-9.4-14.4-16-31-28.2-43.4
	c-3.4-3.4-7.2-6.4-11.4-8.7c0.6-12.9,0.4-25.9-0.8-38.8c-1.5-16.4-4.4-33-12-47.8s-21.1-28.3-35.2-38.9
	c-16.1-12-33.8-21.6-50.5-32.6c-0.7-0.4-1.5-0.6-2.3-0.7c-5-8.1-10.9-15.5-17.7-22.2c-12.3-12.2-27.1-21.6-43.3-27.7
	c-17.4-6.7-36.1-9.7-54.7-10c-13.9-0.2-27.7,1.1-41.3,3.6c-17.6-4.8-35.7-7.5-54-8c-18.6-0.4-37.5,1.9-55.2,7.7
	c-16.7,5.3-32.2,14.1-45.3,25.7c-8.6,7.7-16.1,16.6-22.1,26.4c-0.8,0-1.6,0.2-2.3,0.7c-53.3,34.9-86.7,93.2-89.8,156.8
	c-0.2,3.9-0.2,7.9-0.2,11.9c-17.8,10.1-33,24.3-44.3,41.4c-0.9,1.6-0.9,3.5,0,5.1c3.4,4.9,8.4,5.3,13.2,3.7
	c-0.1,0.1-0.1,0.2-0.1,0.3c-0.4,1.6-0.8,3.2-1.3,4.7c-0.3,0.8-0.6,1.5-0.8,2.3c-0.2,0.4-0.4,0.8-0.5,1.2c-0.2,0.4-0.2,0.4-0.1,0.1
	l-0.3,0.8c-2.9,6.5-6.7,12.5-10.2,18.7c-21.6,38.3-33.6,81.2-34.9,125.1c-0.4,7,0.2,14,1.6,20.8c1.8,7.2,5.4,13.5,11.3,18
	c3,2.3,7.8-0.8,7.6-4.3c-0.8-9.6-0.2-19.3,1.8-28.7c1-4.9,2.4-9.7,4.1-14.4c0.1-0.1,0.3-0.7,0.4-0.8c0.1-0.3,0.2-0.6,0.4-0.8h0.3
	c0,0.1,0.1,0.1,0.1,0.2l0.5,0.4l0.2,0.4c0.1,0.3,0.2,0.5,0.2,0.8v0.5c0.1,1,0.1,2,0.1,3c-0.2,2.2-0.5,4.4-0.6,6.6
	c-0.5,12.9,2.4,25.7,8.4,37.2c4.5,8.5,10.6,16,18.1,22.1c3.9,3.2,9.2,0.2,8.3-4.9V632c0-0.1,0-0.1-0.1-0.2v-1.3c0-0.8,0-1.6,0.1-2.4
	c0-0.2,0.1-0.7,0.1-0.8c0.1-0.5,0.2-0.9,0.4-1.4c0.1-0.4,0.2-0.9,0.4-1.3c0-0.2,0.1-0.5,0.2-0.7c0.4-0.7,0.7-1.4,1.1-2
	c2.4,6.6,6,13,12.5,16.2c5.2,2.5,11.3,2.7,16.7,0.5l11.4,34.7c3.3,10.1,9.2,24.2,22.2,23.2c7.5-0.5,13.2-5.6,18.8-10
	s11.1-9,16.5-13.6c10-8.6,20.1-17.5,28.9-27.5s15.5-20.9,17.9-33.7l0.3-1c2.6-13.4,2.7-27.3,0.1-40.7c2.6-17-0.2-34.1-5.2-50.4
	c-2.5-8.2-5.3-16.2-8.6-24.1c-1.7-4.1-3.5-8.3-5.2-12.5l-2.4-5.6c-0.4-0.8-0.7-1.6-1-2.4l-0.5-1l-0.6-1.6c-6.9-16.2-12-33-15.4-50.3
	l-1.2-6.6c0-0.5-0.1-1-0.2-1.5c0-0.3-0.1-0.6-0.1-0.9c0-0.1,0-0.2-0.1-0.3v-0.3c0-0.2,0-0.5-0.1-0.7c-0.1-0.6-0.1-1.3-0.2-1.9
	c-0.5-4.4-0.9-8.8-1-13.2c-0.3-9,0-18,0.9-27c1.5-18,4.1-36.1,2.1-54.2c-0.2-2.5-0.6-5-1-7.5c-0.4-2.5-3.7-4.3-6.1-3.5
	c-2.6,0.8-4.2,3.5-3.5,6.2l0.3,1.7c0,0.2,0,0.5,0.1,0.7v0.7c0.1,0.3,0.1,0.6,0.2,1c0.1,0.4,0.1,1.1,0.1,1.7c0.3,2.2,0.4,4.4,0.5,6.7
	c0.2,4.4,0.2,8.9,0,13.3c-0.4,9.1-1.3,18.2-2.2,27.2s-1.6,18-1.6,27c0.1,8.9,0.9,17.9,2.2,26.7c2.8,17.4,7.4,34.4,13.9,50.7
	c1.6,4.2,3.4,8.5,5.2,12.7l2.3,5.6c0.2,0.5,0.4,1,0.7,1.5v0.5l1.2,2.9c3.3,7.8,6.4,15.6,9.1,23.6c2.8,8,5.1,16.1,6.7,24.4
	c0.1,0.8,0.3,1.7,0.4,2.5c-2.2-3.7-4.9-6.9-8.2-9.7c-3.5-2.8-7.5-4.8-11.8-5.9c-1.9-0.3-3.7-0.9-5.5-1.6c-1.3-0.6-2.5-1.5-3.4-2.7
	c-5-6.9-2.7-16.2-3.3-24.6c-0.4-5.1-1.3-11.7-7.1-13.3c-2.5-0.7-4.9-0.2-7.4,0.4l-0.9,0.2h-1.1l-0.9-0.2c0.2,0-1.1-0.8-1.1-0.6
	l-1.5-1.5c0-0.1-0.1-0.2-0.1-0.3l-0.5-0.7c-0.3-0.4-0.6-0.9-0.8-1.4c-0.1-0.1-0.4-0.9-0.5-0.9c-1.4-3.6-1.5-5.9-1.3-9.8
	c0.4-8.7,1.9-18.4-3.7-25.9c-1.6-2.3-4-4.1-6.7-4.9c-2.8-0.8-5.3,0.1-7.9,1l-1.1,0.3c0.1-0.1,0.1-0.1-0.1-0.1h-0.3l-0.3-0.5
	l-0.3-0.2v-0.3l-0.8-1.3l-0.6-1.7c-1.6-5-2.1-10.4-3-15.5l-3.2-17.3c-0.6-3.4-4.7-4.4-7.3-3l-16.3,8.7c-12-58.9,4.7-120,45-164.6
	c7.6-8.4,15.9-16,24.9-22.9c-5.3,13.6-8,28.3-6.5,43c0.2,2.2,0.5,4.5,0.9,6.8c0.4,2.3,3.8,4.2,6.1,3.5c2.6-0.8,4.2-3.5,3.5-6.2
	c-0.1-0.5-0.1-1-0.2-1.4c0-0.2,0-0.4-0.1-0.6l-0.3-2.9c-0.2-1.9-0.3-3.8-0.3-5.7c-0.1-3.8,0.1-7.6,0.6-11.4c0-0.2,0-0.6,0-0.9
	c0-0.3,0.1-0.6,0.2-0.9c0.2-1,0.3-2,0.5-3l1.2-5.5c1-3.7,2.1-7.4,3.5-11l1-2.5c0.1-0.1,0.1-0.3,0.2-0.4c0.1-0.1,0.5-1.1,0.7-1.7
	c0.2-0.6,1.7-3.4,2.6-5.1c1.8-3.5,3.8-6.8,5.9-10.1l3.4-4.7l0.9-1.2l-0.2,0.2l0.4-0.5l2-2.5c2.5-3,5.2-5.9,8-8.6
	c2.8-2.8,5.7-5.3,8.7-7.8l1.2-0.9l0.5-0.3l2.4-1.8l4.9-3.4c3.3-2.1,6.6-4,10.1-5.7l6.2-2.9l0.8-0.3l1.4-0.6l3.3-1.3
	c8.3-3.1,16.9-5.4,25.7-6.9l3.1-0.5l1.7-0.3h1l6.6-0.8c4.5-0.3,9-0.6,13.5-0.6c9.1-0.1,18.1,0.4,27.1,1.5l1.5,0.2h0.8l3.4,0.6
	l5.1,0.8c-2.6,1-3.9,3.9-3,6.4s3.9,3.9,6.5,2.9c6.1-1.7,12.3-3.2,18.5-4.4c1.1,0.2,2.3,0,3.3-0.6l4.8-0.8l3.2-0.5h0.9l1.8-0.3
	l6.7-0.7c4.5-0.4,9-0.6,13.6-0.7c9-0.3,18,0.2,26.9,1.3h0.8l1.5,0.3l3.4,0.5l6.6,1.3c4.4,1,8.7,2.2,13,3.5l6.2,2.2l3,1.1l1.2,0.6
	l1.1,0.4c4,1.7,7.8,3.6,11.5,5.8c3.3,1.9,6.6,4,9.7,6.2l2.5,1.8l0.4,0.3l1.2,1c1.6,1.2,3.1,2.5,4.6,3.9c2.9,2.5,5.6,5.3,8.3,8.1
	l3.9,4.5l1.8,2.2l0.2,0.3h0l0,0l0.2,0.3c0.1,0.1,0.1,0.1,0.1,0.1l0.8,0.9c4.6,6.3,8.6,13,11.9,20.1l0.6,1.4c0,0.1,0.1,0.2,0.1,0.3
	c0.1,0.5,0.3,1,0.6,1.4c0.1,0.4,0.3,0.9,0.5,1.3c0.7,1.9,1.3,3.7,1.9,5.6c1.2,3.6,2.1,7.3,2.8,11.1c0.2,0.9,0.4,1.8,0.5,2.7
	c0.1,0.4,0.1,0.9,0.2,1.3c0,0.2,0,0.4,0.1,0.6c0.2,1.9,0.3,3.9,0.4,5.8c0.2,3.8,0.1,7.7-0.2,11.5l-0.3,2.8c0,0.1-0.1,0.3-0.1,0.4
	c0,0.1-0.1,1-0.2,1.5c-0.4,2.5,0.7,5.5,3.5,6.1c2.8,0.6,5.7-0.7,6.1-3.5c2.6-16.3,1-32.9-4.9-48.3l-1.1-2.7
	c11.1,6.9,22.4,13.6,33.2,21.1c13.3,9.3,26.3,20.4,34.8,34.3c4,6.5,7,13.5,8.9,20.9c1.1,3.7,1.9,7.5,2.6,11.3
	c0.8,3.9,1.3,7.6,1.7,11.1c1.9,17.6,2.1,35.3,0.8,52.9c-0.9,15.7-3,31.2-6.2,46.6l-7.5-6.6c-4.5-4.1-9-8.7-14.4-11.6
	c-2.6-1.4-6.7-0.3-7.3,3c-1.2,6.2-4.4,11.8-6,18c-0.9,3.2-1.2,6.5-0.7,9.8c0.6,3.6,2.7,6.6,4.2,9.7c1.3,2.5,2.4,5.1,3.2,7.8l-9.4-7
	c-1.3-1-2.6-1.8-4.1-2.4c-3.1-1.4-6.6-0.1-9.2,2c-8.9,7.3-2.7,19.4,1.1,27.8l3.1,6.7c0,0.2,0.1,0.2,0.1,0.3l0.2,0.4
	c0.1,0.5,0.3,1,0.5,1.4c0.4,0.9,0.7,1.9,0.9,2.9c0.1,0.4,0.2,0.9,0.3,1.3v0.6c0-0.1,0.1-0.2,0.1-0.4v0.5h-0.1
	c-0.3,0.3-1.3,1-0.2,0.3l-1.1,0.7l-0.6,0.3h-0.1c-1,0.4-2,0.7-3.1,0.9l-1.5,0.3h-1.2c-2.4,0.2-4.8,0.3-7.2,0.2l-3-0.2l-1.1-0.2
	l-1.2-0.2c-4.3-0.9-8.4-1.8-11.8,1.7s-2.9,6.9-3.8,10.4s-1.7,6.8-2.3,10.3s-1,6.6-0.2,9.9c0.7,2.7,1.7,5.2,2.9,7.7
	c0,0.1,0.1,0.2,0.1,0.3l0.3,0.7l0.6,1.5c0,0.2,0.1,0.5,0.1,0.7h-0.2c-4.6,0.1-9.3-1.3-14-0.9s-11.8,5.3-15.6,10
	c-1.3,1.6-2.5,3.4-3.5,5.2c0-0.2,0-0.5,0.1-0.7c1.7-9.5,4.2-18.9,7.5-28c1.7-4.7,3.4-9.3,5.3-13.9c0.8-2.2,1.8-4.4,2.7-6.6
	s0.9-2.2,1.3-3.2s0.5-1.1,0.7-1.6v-0.2l0.4-1c3.4-8.2,7.2-16.3,11.4-24.1c8.6-15.6,18.5-30.8,23.7-48c2.6-8.2,3.7-16.9,3-25.5
	c-0.7-8.7-3-17.1-5.7-25.4s-5.7-16.6-8.1-25c-1.1-4-2.1-8-2.8-12.1l-0.3-1.6c0-0.2-0.1-0.6-0.1-0.7c0-0.1,0.2,0.9,0.1,0.3
	c-0.2-1.1-0.3-2.1-0.3-3.2c-0.2-2-0.2-3.9-0.2-5.9c0-0.9,0.1-1.9,0.2-2.8c0.1-0.5,0.1-0.9,0.1-1.4c0.1-0.2,0.1-0.4,0.1-0.6
	c0.5-2.6-0.6-5.5-3.5-6.2s-5.7,0.8-6.1,3.5c-2.9,17.5,3.4,34.7,8.9,51c2.7,8.1,5.4,16.3,7,24.7c0.1,1,0.3,2,0.4,2.9
	c0.1,0.2,0.1,0.4,0.1,0.6c0.1,0.5,0.1,1,0.2,1.5c0.2,2,0.3,4.1,0.2,6.1c0,2.2-0.2,4.3-0.4,6.5c-0.1,0.1-0.1,0.2-0.1,0.3l-0.3,1.6
	c-0.1,1.1-0.4,2.1-0.6,3.2c-0.9,4.2-2.2,8.2-3.8,12.2l-0.6,1.6c0,0.1-0.3,0.7-0.4,1l-1.2,2.7c-0.9,2-1.9,4-2.9,6
	c-4,8-8.6,15.7-13,23.5c-4.3,7.7-8.3,15.6-11.8,23.7c-3.9,9.2-7.8,18.4-11.3,27.8c-6.8,18.2-12.4,37.8-11.1,57.4
	c0.2,2.6,0.5,5.1,0.9,7.6c-1.9,9.7-2.4,19.6-1.5,29.4c0.3,3,0.7,5.9,1.2,8.9c0.1,0.8,0.3,1.6,0.4,2.4h0.1c1,4.8,3.3,9.3,6.7,12.9
	c3.9,4.1,8.8,7.1,13.5,9.9l7.6,4.5l3.5,2.3l1.7,1.2l0.4,0.3l0.9,0.8c5.7,4.7,10.5,10.5,15.2,16.2s9.7,11.4,15.5,16.1
	c4.3,3.5,8.9,6.6,13.8,9.3c4.9,2.6,10.7,5.5,16.4,3.7s9.9-7.6,12.4-13.3s5.1-14.5,7.5-21.8c1.4-4.1,2.7-8.3,4.1-12.4l3.8,3.9
	c4.1,3.9,9,7.9,14.5,9.6c2.7,0.9,5.7,0.7,8.3-0.6c2.3-1.6,4-4,4.7-6.7c1.6-5.4,1.3-11.4,1-16.9c-0.1-3.2-0.3-6.3-0.3-9.4
	c1.9,1,3.8,2,5.6,3.2l2.3,1.5l1,0.8l0.3,0.2h0.1c1.8,1.4,3.5,2.8,5.1,4.4c3.9,3.7,7.5,7.7,10.7,12c2.1,2.8,5.2,3.3,7.9,1.1
	c7.8-6.4,10.1-16.6,9.5-26.3s-3.7-20.6-6-30.8c-0.5-2.5-1-5-1.4-7.5l-0.3-1.7c0-0.2,0-0.3-0.1-0.5v-0.2c-0.1-1.4-0.3-2.8-0.4-4.2
	c-0.1-1.4-0.2-2.9-0.1-4.3c0,0.3,0.3-0.8,0.4-1.2l0.2-0.4h0.1c0.2-0.1,0.3-0.2,0.4-0.4h0.2c-0.1-0.1-0.1-0.1,0,0h0.2
	c0.2,0.4,0.5,1.2,0.4,0.8l0.5,1.2c0.5,1.3,1,2.6,1.6,3.8s1.9,4.1,3,6.1c2.3,4.5,4.8,8.9,7.2,13.4c1.3,2.6,2.7,5.2,3.9,7.9l1.7,3.6
	v0.2c0.1,0.4,0.3,0.7,0.4,1.1l0.7,1.8c0.9,2.4,1.7,4.8,2.2,7.3l0.3,1.7c0,0.2,0.1,0.5,0.1,0.8c0.1,1.1,0.1,2.3,0,3.4
	c0.1,2,1.3,3.8,3.1,4.6c1.9,0.7,4,0.3,5.4-1.1c5.5-4.2,7.5-11.9,8.4-18.4C917.8,600.9,918.2,593.4,917.9,585.9z M314.4,629.9
	C314,630.1,313.9,630,314.4,629.9L314.4,629.9z M349.7,439.7C349.8,439.8,349.7,439.8,349.7,439.7L349.7,439.7z M316.7,420.3
	l16.1-8.6c1.4,7.9,2.7,15.7,4.3,23.5s7.1,16.8,16.3,13.9l2.7-0.9l0.4-0.2c-0.3,0-0.6-0.4,0,0l0.2,0.2c1,0.9,1.7,2,2.2,3.3
	c1.4,3.8,1.1,7.9,0.8,12c-0.5,8.1-0.8,16.2,3.9,23.2c2,3.3,5,5.8,8.6,7.2c1.7,0.6,3.4,0.8,5.2,0.7l3.4-0.5l1.2-0.3l0.2,0.6
	c0.2,1,0.3,1.9,0.4,2.9c0.1,2.5,0.1,5,0.1,7.6c-0.1,4.7-0.1,9.4,1.1,14c0.9,4,2.8,7.7,5.6,10.8c3.4,3.5,7.8,4.9,12.4,6.1
	c3.4,0.7,6.6,2.3,9.2,4.7c2.7,2.5,4.9,5.4,6.5,8.7c4.6,8.5,7.4,18.7,8.7,28.5c1.2,9.3,1,18.7-0.5,27.9c-0.3,0.6-0.4,1.3-0.5,2
	c0,0.3-0.1,0.6-0.1,0.9c0,0.1,0,0.2-0.1,0.3l-0.3,2c-0.3,1.4-0.7,2.9-1.1,4.3c-0.4,1.4-0.8,2.6-1.3,3.8l-0.3,0.8l-0.2,0.3l-0.9,2.1
	c-1.3,2.5-2.7,4.9-4.2,7.2l-2.4,3.4l-0.8,1.1l-1.5,1.9c-7.8,9.5-17,17.7-26.1,25.8c-5,4.4-10.1,8.8-15.3,13l-7.7,6.2
	c-2.2,1.8-4.5,3.4-7,4.8c-0.1,0.1-1.8,0.8-1.2,0.6l-2,0.6c-1,0.2-0.4,0-0.2,0h-1.7c-0.2,0-0.4-0.1-0.5-0.1c-0.3-0.1-1.7-0.7-0.7-0.1
	l-1.3-0.8l-0.6-0.4c-0.5-0.3-0.9-0.7-1.3-1.2l-0.8-0.8c-0.1-0.2-0.2-0.3-0.2-0.4l-0.5-0.7c-0.7-1-1.3-2-1.8-3.1
	c-0.3-0.6-0.5-1.1-0.8-1.6c0-0.2-0.1-0.4-0.2-0.5c0-0.1-0.1-0.2-0.1-0.3c-0.5-1.2-0.9-2.4-1.3-3.7c-5-14.8-9.8-29.7-14.7-44.5
	c-0.6-1.9-2.2-3.3-4.2-3.6s-4,0.6-5,2.4c-0.1,0.3-0.3,0.7-0.5,1c0,0.1-0.1,0.2-0.2,0.3l-0.5,0.6h-0.1l-0.9,0.6c-0.1,0-0.2,0-0.2,0.1
	l-2,0.5h-2.6l-2.2-0.6l-0.4-0.2l-1-0.5l-0.9-0.6l-0.3-0.3c-0.7-0.6-1.4-1.3-2-2c-0.1-0.1-0.1-0.1-0.1-0.2l-0.3-0.3
	c-0.3-0.4-0.6-0.8-0.8-1.2c-0.5-0.9-1-1.7-1.4-2.6l-0.6-1.3c-0.1-0.2-0.2-0.4-0.2-0.6c-0.4-0.9-0.7-1.9-1-2.8s-1.2-4-1.7-5.9
	s-4.7-4.8-7.4-3c-5.3,3.4-9.2,8.6-10.9,14.7c-0.6-0.6-1.2-1.2-1.7-1.9l-1.1-1.3c-0.1-0.2-0.2-0.4-0.4-0.5c-0.6-1-1.3-1.9-1.9-2.8
	c-1.2-1.8-2.4-3.7-3.4-5.6l-1.5-3.1l-0.6-1.3l-0.3-0.7h-0.1c0-0.1,0-0.1-0.1-0.2c-0.8-2.1-1.5-4.1-2.2-6.2s-1.1-4.2-1.6-6.4
	s-0.3-2.1-0.5-3.1c-0.1-0.3-0.1-0.4-0.1-0.5c0,0,0,0,0,0c-0.1-0.6-0.1-1.3-0.2-1.9c-0.4-4.5-0.3-9,0.1-13.5c0.6-5.2,0.4-11.2-3.9-15
	s-11.1-4.5-14.9,0.5c-1.7,2.1-2.5,4.6-3.4,7.1c-0.9,2.5-1.7,5.2-2.4,7.9c-1.5,5.6-2.5,11.4-3.1,17.2c-0.1-0.4-0.2-0.9-0.2-1.3
	c0-0.2-0.2-1.1-0.2-1.3s-0.1-1.7-0.2-2.6c-0.2-2.8-0.2-5.7-0.2-8.6c0.2-7.1,0.7-14.3,1.4-21.4s1.6-12.8,2.9-19.8
	c2.6-13.9,6.4-27.7,11.2-41c4.6-13.1,10.4-25.7,17.1-37.8c7.6-13.6,17.7-27.8,16.1-44.1c0-2-1.2-3.8-3.1-4.6
	c-1.6-0.7-3.4-0.5-4.8,0.5l1.5-1.8c3.3-3.8,6.9-7.5,10.6-10.9c1.8-1.7,3.7-3.3,5.7-4.9c2-1.6,3.2-2.5,5.4-4.1l5.8-3.9
	c0.8,11.2,2.5,22.3,5.1,33.2C310.1,420.6,314,421.7,316.7,420.3z M541.3,155.2C541.9,155.3,541.5,155.3,541.3,155.2L541.3,155.2z
	 M831.7,649.5L831.7,649.5c-0.3,0.4-0.3,0.4-0.3,0.3c-0.1,0.1-0.2,0.1,0,0c0.2-0.3,0.2-0.4,0.4-0.5S831.7,649.4,831.7,649.5z
	 M831.9,649.1C831.8,649.1,831.8,649,831.9,649.1L831.9,649.1z M832.4,649.1c-0.1,0.1-0.1,0.1-0.2,0.1L832.4,649.1
	c0,0,0.1,0,0.2,0.1L832.4,649.1z M842.5,619.6v-0.7C842.6,619.1,842.6,619.4,842.5,619.6z M907.9,600.2c-0.1,1.9-0.2,3.7-0.4,5.6
	c-0.1,0.4-0.1,0.7-0.1,1.1c-0.1,0.2-0.1,0.4-0.1,0.6c-1.8-4.8-4-9.2-6.1-13.3c-2.4-4.8-5.1-9.6-7.6-14.3c-1.2-2.2-2.3-4.4-3.4-6.7
	l-1.3-2.7c-0.1-0.1-0.1-0.3-0.1-0.4c-0.1,0-0.1-0.1-0.1-0.2c-0.3-0.5-0.5-1.1-0.7-1.7c-1.4-3.5-3.5-6.6-7.4-7.6s-7.4,0.5-10,3
	c-5.5,5.1-4.1,13.4-3.2,20.1c1.5,10.6,4.8,20.9,6.6,31.4c0.2,0.7,0.3,1.5,0.4,2.2c0,0.3,0.1,0.6,0.1,0.9s0,0,0.1,0.4
	s0.3,2.8,0.3,4.2s0.1,2.8,0.1,4.1s-0.1,1.3-0.2,2v0.4c0,0.1,0,0.1,0,0.2c0,0.1-0.1,0.2-0.1,0.3c-0.2,1.2-0.5,2.3-0.8,3.5l-0.3,0.8
	c0,0.1-0.1,0.2-0.1,0.3l-0.3,0.6c-0.1,0.3-0.3,0.5-0.4,0.8l-0.7,1.2c-5.3-6.6-11.5-12.4-18.5-17.2c-4.2-2.8-8.9-4.7-13.3-7.2
	c-2.4-1.4-5.5-0.5-6.8,1.9c-0.2,0.4-0.4,0.7-0.5,1.1c-1.2,4.5-0.7,9.5-0.5,14.1c0.4,5.4,0.5,10.7,0.1,16.1v0.3
	c0,0.2-0.1,0.3-0.1,0.5l-0.3,1.4l-0.3,0.9h-0.7l-0.5-0.2c-1-0.5-2-1-2.9-1.6l-1.5-1l-1.1-0.8l-2.9-2.4c-2.2-2-4.3-4.1-6.2-6.4
	l-0.5-0.7h-0.1c-0.3-0.5-0.6-0.9-1-1.3c-0.5-0.9-1.1-1.8-1.5-2.7s-3.2-2.6-5-2.4c-1.9,0.3-3.5,1.7-4.1,3.6
	c-4.1,12.4-8.1,24.8-12.2,37.1l-1.4,3.9l-0.3,0.8c-0.1,0-0.1,0.1-0.1,0.2h-0.1l-0.9,1.9c-0.6,1.2-1.3,2.3-2,3.5h-0.1
	c-0.1,0.2-0.3,0.4-0.1,0.2l-0.3,0.4l-1.2,1.2c0.4-0.4-0.8,0.4-1.1,0.6l-0.7,0.3h-0.3c0.3,0,0,0.1-0.3,0.1h-0.5
	c-0.9-0.3-1.9-0.5-2.8-0.9h-0.7l-1.9-0.9c-4.4-2.2-8.5-4.8-12.4-7.7h-0.1l-1.1-0.9l-2.2-1.9c-1.4-1.2-2.7-2.5-4-3.8s-4.7-5.1-7-7.7
	c-4.7-5.5-9.2-11.1-14.4-16.2c-4.4-4.1-9.3-7.7-14.5-10.6l-7.6-4.6c-1.3-0.7-2.5-1.5-3.7-2.4l-1.5-1.1h-0.2c-0.3-0.3-0.6-0.6-1-0.8
	c-1-0.9-1.9-1.8-2.8-2.8l-0.4-0.6c-0.1,0-0.1,0-0.1-0.1c-0.1,0-0.1,0-0.1-0.1c-0.8-1.1-1.5-2.3-2.1-3.5c-0.1-0.1-0.1-0.4-0.1-0.4
	s-0.2-0.3-0.2-0.5c-0.2-0.6-0.4-1.2-0.5-1.8c0-0.2-0.1-0.5-0.1-0.8c-2.8-14.2-2.2-28.8,1.5-42.7c1.6-6.5,4.1-12.6,7.4-18.4
	c1.4-2.4,3.1-4.6,5.1-6.5c1.7-1.6,3.8-2.9,6-3.8h1.6l3.7,0.3c2.5,0.3,4.9,0.6,7.3,0.7c5.7,0.2,11.4-2.5,11.3-8.9
	c-0.1-2.5-0.7-5-1.8-7.3c-1-2.2-1.9-4.4-2.6-6.7c-0.1-0.2-0.2-1.3-0.3-1.2V517c0.1-1.6,0.4-3.1,0.7-4.7c0.7-3.5,1.6-7.1,2.5-10.6
	c0-0.2,0.6-2.3,0.8-3.5l1.2,0.3c2.5,0.5,5,0.9,7.6,1c5,0.4,10,0,14.8-1.2c4.6-1.2,9.4-3.9,10.9-8.7c1.5-4.8-0.4-8.7-1.9-12.6
	l-3.3-7.4c-0.5-1.1-1.1-2.2-1.6-3.4c-0.2-0.5-0.4-1-0.7-1.5l-0.3-0.7c0-0.1-0.1-0.2-0.1-0.3v-0.3c-0.8-2-1.6-4.1-2.1-6.2l-0.3-1.3
	v-1.5c-0.1,0.1-0.1,0.2-0.1,0.3c0-0.2,0-0.3,0.1-0.4V454h0.1l0.5-0.8l0.3-0.3l2,1.4c3.4,2.4,6.7,5,10.1,7.5s5.9,4.3,9.8,3.1
	c5.6-1.7,5.7-8.1,4.7-12.8c-0.8-3-1.8-6-3.1-8.9l-2.1-4.4c-0.8-1.3-1.6-2.7-2.2-4.2c-0.8-2.3-0.5-4.4,0.2-7c0.7-2.6,2.1-6,3.2-9
	c0.3-0.6,0.5-1.2,0.7-1.9l0.5,0.4c2.5,2.1,4.9,4.4,7.4,6.6c4.5,4.1,9,8.6,14.4,11.6c2.7,1.5,6.6,0.2,7.4-3c3.8-16.4,6.3-33,7.6-49.8
	l0.3-4.4l0.4,0.3h0.1l0.5,0.4c0.3,0.3,0.6,0.6,1,0.8l2.2,2.1c1.4,1.4,2.8,2.9,4.1,4.4l1.7,2.1l0.6,0.8l0.9,1.3
	c4.9,6.8,8.9,14.2,13,21.5l2.6,4.5h-0.2c-0.1,0-0.1,0-0.1-0.1h-0.1l-1.4-1.2c-1.4-1.5-3.6-1.9-5.5-1.1c-1.8,0.8-3,2.6-3,4.6
	c-1,8-0.2,16.2,2.1,23.9c2.6,8,7.2,14.7,14.4,19.2l1.7,1l0.9,0.6l0.5,0.4l0.4,0.4l0.8,0.6l1.7,1.5c2.2,2.1,4.2,4.3,6.1,6.7l0.6,0.7
	l0.3,0.4l1.5,2.1l2.9,4.3c1.9,3.1,3.7,6.3,5.3,9.5l2.4,4.9c0.4,0.8,0.8,1.6,1.1,2.5l0.6,1.4l0.4,0.8c1.5,3.7,2.9,7.3,4.2,11
	c2.7,7.8,4.9,15.7,6.8,23.7c1.9,7.9,3.4,15.9,4.5,24v0.5c0,0.5,0.1,1,0.2,1.5l0.3,3.1l0.6,5.8c0.3,3.7,0.5,7.3,0.6,11
	C907.9,586.7,908.2,593.5,907.9,600.2z"/>
</svg>
