<?xml version="1.0" encoding="utf-8"?>
<!-- Generator: Adobe Illustrator 24.2.3, SVG Export Plug-In . SVG Version: 6.00 Build 0)  -->
<svg version="1.1" id="bb0bfbe3-11ce-46a6-98c7-9dd3759baf26"
	 xmlns="http://www.w3.org/2000/svg" xmlns:xlink="http://www.w3.org/1999/xlink" x="0px" y="0px" viewBox="0 0 1152 864"
	 style="enable-background:new 0 0 1152 864;" xml:space="preserve">
<path d="M461,282.4c-1.9-2-5.1-2-7.1,0c-1.9,2-1.9,5.1,0,7.1c1.2,1.2,2.4,2.6,3.5,3.9l0.7,1l0.8,1l1.5,2.4l0.2,0.3
	c-1.7,0.1-3.3,0.5-4.9,1.2c-4.9,2.3-8.2,8.1-6.5,13.3c0.8,2.5,3.5,4.4,6.2,3.5c2.6-0.8,4.1-3.5,3.5-6.1c-0.1-0.2-0.1-0.2-0.1-0.3
	v-0.2l0.3-0.5h0.1c0-0.1,0.1-0.2,0.2-0.3l0.7-0.4c0-0.1,0-0.1,0.1-0.1l0.7-0.2h1.6l0.9,0.2l1.3,0.4l0.7,0.3l0.7,0.3l1.4,0.8
	c1.8,1,4,0.8,5.6-0.4c1.4-1.1,2.5-3.4,1.8-5.3C471.7,296.2,467,288.7,461,282.4z"/>
<path d="M974.7,527.8c-4.9-6.3-10.3-12.2-16.1-17.6l3.6-0.3c3.5-0.4,5.3-2.9,4.8-6.4c-2.1-16.1-8.4-31.4-18.4-44.2
	c-9.4-12-21.9-21.2-35.3-28.3c-3.5-1.9-7.1-3.6-10.8-5.3c2.6-1.1,3.9-4,2.8-6.7c-0.2-0.6-0.6-1.1-1-1.5c-4.1-4.3-8.6-8.1-13.5-11.3
	c0.2-0.6,0.3-1.2,0.3-1.8c0-2.6-1.3-4.9-2.5-7.1l-0.5-1c0-0.1,0-0.1-0.1-0.3l-0.3-1c-0.5-1.5-0.9-3-1.4-4.4c-0.5-1.4-0.9-3-1.3-4.4
	l-0.6-2.2c-0.1-0.4-0.1-0.8-0.2-1.1c0-0.1,0-0.2-0.1-0.3v-0.2c0-0.7-0.1-1.4-0.1-2.2c0-0.8,0.1-0.8,0.1-1.1c0-0.3,0-0.1,0.1-0.2
	c0.1-0.7,0.3-1.3,0.5-2c0.1-0.3,0.2-0.6,0.4-0.9c0-0.2,0.2-0.5,0.2-0.7c1.5-2.9,2.7-6.1,3.3-9.3c1-6.4-0.3-12.8-2.8-18.8
	s-5.9-11.6-9-17.4c-1.4-2.6-2.7-5.3-4-8l-1.8-4.1l-0.9-2c-0.1-0.3-0.2-0.5-0.3-0.8c-0.2-0.3-0.3-0.6-0.4-0.9
	c-4.7-11.5-8.3-23.4-10.8-35.6c-0.6-3.1-1.2-6.2-1.7-9.3l-0.3-2.2c0-0.3-0.1-0.6-0.1-0.9c0.1,1.2-0.1-0.3-0.1-0.4
	c-0.2-1.6-0.4-3.1-0.5-4.7c-0.7-6.2-1-12.4-1.1-18.6c-0.1-13.1,1.2-26.6-2.3-39.5c-2.9-10.8-9.3-21.5-19.5-26.8s-22.8-4.8-33.7-0.8
	s-21.5,11.2-31,18.8c-9.5,7.6-20.1,16.7-29.5,25.6l-1.8,1.8c-0.9,0.2-1.8,0.7-2.4,1.4c-1.1,1.1-2.1,2.3-3,3.5
	c-11.7,2.9-21.6,10-29.2,19.1c-0.2-4.5-0.1-9,0.4-13.5c0.1-1.8,0.3-3.5,0.3-5.2c0-2.8-2.3-5-5.1-4.9c-1.3,0-2.5,0.5-3.4,1.4
	c-5.4,4.8-9.6,10.9-13.6,17c-4,6.1-8,13-12.2,19.5c-0.9,1.5-1.9,3-2.9,4.5l-1.4,1.8c-0.2,0.3-0.4,0.7-0.7,1l-0.2,0.3h-0.1
	c-0.5,0.5-0.9,1.1-1.3,1.7l-2,2.3c-1.3,1.5-2.7,3-4.2,4.4l-1.1,0.9l-0.2,0.2h-0.1c-0.8,0.6-1.7,1.2-2.6,1.6l-0.4,0.2h-0.1l-1.2,0.4
	h-0.6l-1-1.1l-0.6-0.6H648c-0.9-1.3-1.7-2.7-2.4-4.2c-0.1-0.1-0.2-0.3-0.2-0.5c-0.1-0.3-0.2-0.5-0.4-0.8c-0.2-0.8-0.5-1.5-0.7-2.3
	s-0.4-1.6-0.6-2.4v-0.3c-0.1-0.3-0.1-0.5-0.1-0.8c0-0.5,0-1.1,0-1.6c0.1-0.3,0.1-0.6,0.2-0.8c0.7-2.2-0.3-4.6-2.3-5.7
	c-2-1-4.4-0.7-6,0.8c-3.2,2.8-5.7,6.4-8.1,9.9s-4.9,7.7-7.5,11.5l-1.8,2.7c-0.3,0.3-0.5,0.6-0.7,1l-0.6,0.6
	c-0.6,0.8-1.2,1.4-1.8,2.1l-0.8,0.7c-0.2,0.3-1.7,1.5-0.8,0.8c-0.3,0.3-0.6,0.5-1,0.7h-0.3l-0.5-0.2l-0.3-0.2c-0.1,0-0.1,0-0.1-0.1
	l-0.3-0.2c-0.2-0.2-0.3-0.4-0.4-0.7c-0.1-0.1-0.1-0.2-0.2-0.4h-0.1c0,0,0-0.1,0-0.1c0,0,0.1,0.1,0.1,0.1c-0.1-0.2-0.1-0.2-0.1-0.2
	c-0.1-0.4-0.2-0.8-0.4-1.1c-0.5-2.1-0.7-4.2-1-6.2c-0.1-0.3-0.2-0.8-0.2-1c0-0.4-0.1-1-0.2-1.6c-0.1-0.6-0.1-1.6-0.1-2.4
	c0-3.6-4.3-6.5-7.5-4.3c-5.5,3.6-10.5,7.9-15.9,11.5c-1.4,0.9-2.7,1.8-4.2,2.6l-2.1,1.2l-1.1,0.4l-0.3,0.2c-1.4,0.7-2.9,1.1-4.4,1.4
	l-1.1,0.2h-0.1c-0.5,0.2-1,0.3-1.5,0.2c-0.3-0.1-0.7-0.1-1,0h-5.9l-1.8-0.4c-1.4-0.3-2.8-0.7-4.2-1.2l-2.2-0.8l-1-0.4
	c1,0.4-0.3-0.1-0.4-0.1c-5.7-2.7-11.2-5.9-16.4-9.4c-3.2-2.1-7.5,0.6-7.5,4.3c0,1,0,2-0.1,3c0,0.4,0,0.9-0.1,1.3
	c0,0.2,0,0.3-0.1,0.4l-0.3,1.5l-0.4,0.7c0,0.2-0.1,0.4-0.2,0.5l-0.5,0.5h-0.1l-0.8,0.4h-0.4l-0.6-0.4H526l-0.5-0.4l-1.1-1
	l-20.3-17.1c-1.6-1.3-4.1-2-6-0.7c-1.9,1.3-3.1,3.5-2.3,5.6c0.1,0.2,0.1,0.4,0.2,0.6v0.3c0.1,0,0.1,0,0.1,0.1c0,0.1-0.1,0-0.1-0.1
	c-0.1,0.3-0.2,0.5-0.2,0.8c-0.1,0-0.1,0-0.1,0.1l-0.2,0.3c0.1-0.1,0.1-0.1-0.1,0.2h-0.2l-0.3,0.4l-0.4,0.3l-1.4,0.8h-0.7l-1.2,0.3
	H490c0.1,0.1,0.1,0.1-0.2,0h-0.2l-1.9-0.6h-0.3l-0.6-0.3l-1.3-0.8l-0.9-0.6l-0.3-0.2c-0.4-0.3-0.8-0.7-1.2-1.1
	c-4-3.6-7.3-8.1-10.9-12.2c-3.6-4.1-8.1-9.1-12.4-13.4s-9.8-9.5-14.9-14c-2-1.9-5.1-1.9-7.1,0.1c-0.9,0.9-1.4,2.1-1.4,3.4
	c0,0.6,0,1.1-0.1,1.7c0,0.4,0,0.7-0.1,1.1c-0.1,0.7-0.2,1.4-0.4,2.1c-7.6-7.9-17.2-13.6-27.8-16.5c-0.3-0.4-0.6-0.8-0.9-1.2
	c-9.3-9.2-19.1-18.1-29.3-26.5c-10.2-8.4-19-15.6-30-21c-11-5.4-22.6-8.6-34.2-5.6c-11.6,3-20.2,12.3-24.7,23.3s-4.8,24.8-4.6,37.3
	c0.1,6.5,0.1,12.9-0.4,19.4c-0.2,3.2-0.4,6.3-0.8,9.4c-0.1,0.7-0.1,1.5-0.2,2.2c-0.1,0.7-0.1,0.8-0.2,1.1v0.3
	c-0.2,1.6-0.5,3.2-0.7,4.8c-2,12.3-5.2,24.3-9.5,36l-1.5,4.2l-0.9,2.1c-0.1,0.4-0.3,0.8-0.5,1.2c0,0.1-0.2,0.4-0.2,0.6
	c-1.2,2.9-2.5,5.7-3.9,8.5c-2.7,5.6-5.8,11-8.7,16.5s-5.6,11.9-6.4,18.5c-0.4,3.2-0.2,6.5,0.6,9.7c0.5,1.6,1.1,3.3,1.8,4.8
	c0.3,0.6,0.6,1.2,0.8,1.9c0.2,0.3,0.3,0.6,0.4,0.9c0.1,0.2,0.2,0.5,0.3,0.7c0.2,0.7,0.4,1.3,0.6,2c0.1,0.2,0.1,0.4,0.1,0.6
	c0.1,0.2,0.1,0.5,0.1,0.7v2.2c0,0.3-0.1,0.6-0.2,0.9c0,0.3-0.1,0.6-0.1,0.9c-0.7,3.1-1.8,6.1-2.7,9.2c-1.6,5.2-2.6,11.2-0.5,16.4
	c0.2,0.5,0.4,0.9,0.7,1.3c-5,3.3-9.7,7.1-13.8,11.5c-2,1.9-2,5.1-0.1,7.1c0.6,0.6,1.4,1.1,2.3,1.3l1.9,0.5
	c-22.6,13.5-42,31.8-55.6,54.4c-4.4,7.3-8.1,14.9-11.2,22.8c-1.4,3.3,1.9,6,4.8,6.3l8,0.8c-16.5,33.4-40.6,62.9-53.2,98.3
	c-3.8,10.6-6.1,21.5-7.1,32.7c-0.4,5.1,7,6.6,9.3,2.5c7.1-12.1,18.3-21.2,31.7-25.5c0.3,4.9,2.3,9.5,5.6,13.1c1.8,2,5.2,1.8,7.1,0
	c1.9-2,1.9-5.1,0-7.1c-2.9-3.2-3.3-7.4-1.8-11.4s-2.8-6.7-6.2-6.1c-12.2,2.3-23.6,8-32.7,16.5c7.9-30.8,27.5-58.2,43.6-85.3
	c5.7-9.6,10.9-19.4,15.6-29.5c1.7-3.6-0.3-7.1-4.3-7.5l-8.4-0.8c10.8-23.4,27.6-43.5,48.6-58.3c7-5,14.4-9.4,22-13.3
	c3.9-2,2.8-8.1-1.2-9.1l-5.1-1.4c7.9-6.4,17-11,26.9-13.5c3.1-0.7,6.2-1.3,9.3-1.6c3.3-0.3,6.8-0.5,9.9-1.6c3.7-1.1,6.8-3.7,8.5-7.1
	c1.7-3.6,2.5-7.5,3.5-11.3c2-7.4,3.9-14.8,5.9-22.2c6.2,2.9,11.6,7.4,15.6,13c1.4,2.4,4.5,3.2,6.9,1.7c1.5-0.9,2.4-2.5,2.4-4.2
	l2.4-50.6l18.2,17.8c3.5,3.3,9.9,0,8.3-4.9c-1.6-4.9-2.5-7.9-2.7-12.1c-0.2-1.8,0-3.6,0.4-5.4c0.2-0.7,0.4-1.4,0.7-2.1l0.6-1h0.1
	c0-0.1,0.1-0.1,0.1-0.2c0.7-0.9,1.7-1.5,2.7-2l0.6-0.3l0.6-0.2c0.3-0.1,1.5-0.3,1.4-0.4h1.7l1.1,0.3h0.1l0.4,0.3
	c0,0.1,0.1,0.1,0.2,0.2c0.1,0.1,0.3,0.4,0.4,0.6c1.8,2.9,7.1,3.6,8.6,0c4-8.9,4.9-19,2.6-28.5c8.9,2.3,16.8,7.4,22.6,14.5
	c2.5,3.1,7.4,1.1,8.4-2.2c6.5-21.4,1.3-45.4-13-62.4l0.5,0.2l2.2,0.7l1.1,0.5l-0.5-0.3l0.7,0.4c3,1.3,6,2.9,8.7,4.8l2,1.5h0.2l1,0.7
	c2.4,2.1,4.7,4.4,6.8,6.8l0.8,0.9v0.2c0.6,0.7,1.1,1.4,1.6,2.2c1.5,2.4,4.6,3.2,7,1.7c0.7-0.4,1.3-1,1.7-1.7
	c1.4-2.2,2.5-4.6,3.4-7.1c7.4,6.9,14.5,14.3,21.1,22c3.9,4.4,7.4,9.3,12,12.9c4.6,3.6,11.5,6.4,17.8,4.1c3.2-1.2,6-3.3,8-6.1
	l5.2,4.4l6.1,5.2c2,1.6,3.9,3.4,6,4.9c4.7,3.1,10.9,2.2,14.6-2.1c1.5-1.7,2.6-3.8,3.2-6c3.3,2.1,6.9,3.9,10.5,5.5
	c6.2,2.7,12.9,4.7,19.8,4c11.8,0,21-7.5,30.1-14.4c0.2,1.4,0.5,2.7,0.8,4c0.4,2.2,1.3,4.3,2.5,6.1c2.2,3.1,5.8,5.1,9.6,5.3
	c5.9,0.1,10.4-5.3,13.6-9.6c3.2-4.3,5.6-8.2,8.3-12.4l1.4-2.2c0.7,1.9,1.5,3.7,2.5,5.4c1.6,3.1,3.9,5.7,6.7,7.7
	c3.8,2.4,7.8,1.6,11.6-0.2c3.8-1.8,7.5-5,10.4-8.3c2.6-3,5.1-6.1,7.4-9.3c4.6-6.5,8.6-13.4,12.8-20.2c1.8-2.8,3.6-5.6,5.5-8.4
	c-0.1,3,0.2,6,0.7,8.9c1,4.6,4,8.8,9.1,8.8c3.2,0,4.5-2.8,6.1-5l0.3-0.3l0.6-0.8l1.7-2.1c2.1-2.3,4.3-4.4,6.6-6.4l0.9-0.7l0.5-0.4
	l2.2-1.5l2.9-1.8c-4.8,12.3-6,26.4-4.8,39c0.5,5.6,1.6,11.1,3.2,16.4c1.3,4.4,8.6,5.1,9.6,0l0.6-2.3h0.1l0.5-1l0.8-1.1
	c0.4-0.6,0.9-1.1,1.4-1.5c2-1.7,4.3-3,6.7-4c3.1-1.1,6.3-1.9,9.5-2.5c0.6-0.2,1.3-0.3,1.9-0.3c-2.5,9.7-1.7,19.9,2.4,29
	c0.8,1.7,3.2,2.6,5,2.4c1.9-0.4,3.5-1.7,4.2-3.6c0,0,0.5-1.1,0.7-1.4l0.6-0.7l0.5-0.6l0.7-0.4h1.6l0.7,0.2l1.2,0.3l0.7,0.3l2.7,1.6
	l0.6,0.4l1.2,1l2,2l0.9,1.1c0.1,0,0.1,0,0.1,0.1h0.1c0.5,0.7,0.9,1.4,1.3,2.1c0.3,0.4,0.4,1,0.4,1.5c-0.1,0.5-0.1,0.5,0,0.4
	c-0.1,0.1-0.1,0.2-0.1,0.3l-0.3,1c0,0.1-0.1,0.3-0.2,0.4c-1.9,4.6-5.9,9-7.6,14.1c-1.7,5.1,4.9,8.1,8.4,4.8
	c6.6-6.3,15.7-10.9,21.8-17.9c2.4,6.8,3.8,14,4,21.2c0.1,9.6-1.6,19.2-5,28.2c-0.9,2.3,0.7,5.1,2.9,5.9c2.3,1,4.9,0.1,6.2-2
	c4-5.6,9.4-10.1,15.6-13.1c1.6,6.3,3.3,12.5,4.9,18.7s2.8,16.3,9.6,20.5s13.2,2.7,19.6,4c6.4,1.3,12.5,3.5,18.3,6.5
	c4.1,2.2,8,4.8,11.6,7.7l-5.2,1.3c-2.1,0.7-3.6,2.7-3.6,4.9c0.1,2.2,1.5,4.1,3.6,4.8c26.6,10,52.6,25,64.9,51.6
	c1.7,3.7,3.1,7.6,4.2,11.5c0.7,2.6,1.3,5.2,1.8,7.8l-9.8,1c-2,0-3.8,1.2-4.6,3.1c-0.7,1.7-0.5,4.2,1,5.4
	c15.5,12.3,28.3,27.7,37.7,45.1c9.3,17,15.4,35.5,19.3,54.5c0.7,3.4,1.3,6.7,1.9,10c-1.6-2.1-3.2-4.3-4.9-6.3
	c-6.2-7.7-14.4-14.7-24.4-16.6c-3.3-0.6-7.2,2.1-6.3,5.7l-1.7,2.8c-1.7,2.4-3.6,4.6-5.2,7.1c-3.9,6.5-4.5,14.1,1.5,19.6
	c2,1.9,5.1,1.9,7.1,0c1.8-1.9,2-5.3,0-7.1l-0.9-0.9c-0.1-0.1-0.2-0.2-0.2-0.3c-0.2-0.2-0.4-0.5-0.5-0.8h-0.1V622
	c-0.1-0.1-0.1-0.2,0,0v-0.2c-0.1-0.1,0-0.2,0-0.3c0-0.2,0-0.4,0.1-0.5c0.1-0.3,0.2-0.6,0.2-0.9c0.1-0.1,0.2-0.3,0.2-0.5l0.3-0.5
	c0.1-0.3,0.3-0.6,0.5-0.9c0.7-1.3,1.5-2.5,2.4-3.6c1.4-2,3.4-4.3,4.9-6.8c2.2,0.9,4.2,2.2,6.1,3.6c3.5,2.8,6.6,5.9,9.3,9.4
	c5.7,7,10.4,15.5,15,23.5c2.3,4.1,9.7,2.5,9.3-2.5C1011.1,601.1,1000,560.3,974.7,527.8z M412.8,288.2c-8.7-7.2-19.4-11.4-30.7-12.2
	c-4.1-0.2-5.8,4.4-4.3,7.6c3.2,6.7,4,14.3,2.3,21.6c-5.6-1.9-12.5,0-17,4.1c-4.5,4.1-6,9.7-5.9,15.5l-14.7-14.4
	c-3.2-3.1-8.3-0.7-8.6,3.6c-0.7,16.5-1.5,33.1-2.3,49.7c-5.2-4.4-11.1-7.8-17.6-9.9c-2.6-0.7-5.4,0.9-6.1,3.5l-6.3,23.7
	c-1,3.8-1.9,7.8-3.1,11.6c-0.4,2.2-2.1,3.8-4.3,4.2c-2.7,0.7-5.5,0.7-8.5,1.1c-3.5,0.4-6.9,1-10.3,1.9c-5,1.3-9.8,3.1-14.4,5.4
	l-0.1-0.1h0c0-0.1-0.1-0.1-0.1-0.2c0-0.1-0.1-0.1-0.1-0.2l0.1,0.1l-0.3-0.9v-0.3c0-0.1-0.1-0.2-0.1-0.3s0,0.1,0.1,0.2
	c0.1,0.1-0.1-1-0.1-1.4c0-0.4,0.1-1.2,0.1-1.7c0.1-0.3,0.2-0.7,0.2-1c1.2-6,3.9-11.5,4.4-17.7c0.2-3.4-0.5-6.8-1.9-9.9
	c-0.5-1.3-1.1-2.5-1.6-3.8c-0.1-0.2-0.2-0.4-0.3-0.6l-0.3-1c-0.3-0.8-0.5-1.6-0.6-2.5c-0.1-0.1-0.1-0.3-0.1-0.5
	c-0.1-0.1-0.1-0.3-0.1-0.4v-1.9c0-0.7,0-1.4,0.1-2.1v-0.2c0.1-0.4,0.2-0.8,0.2-1.2c0.3-1.4,0.7-2.7,1.1-4l0.6-1.8l0.5-1.2
	c0-0.1,0.1-0.2,0.1-0.3v-0.2c2.4-5.5,5.6-10.6,8.4-16c2.8-5.4,5.5-11.4,8-17.2c4.7-11.3,8.3-23,10.8-35c2.5-12.1,4-24.5,4.3-36.9
	c0.1-6.4-0.1-12.7-0.1-19.1c0-3.2,0.1-6.4,0.3-9.6c0.1-1.5,0.2-3,0.4-4.5c0.1-0.2,0.1-0.4,0.1-0.6c0.1-0.4,0.1-0.8,0.2-1.2
	c0.1-0.4,0.3-1.5,0.4-2.2c0.6-2.5,1.3-5,2.2-7.5c0.1-0.2,0.4-1.2,0.5-1.3c0.1-0.4,0.4-0.8,0.6-1.2c0.5-1.2,1.2-2.4,1.9-3.5
	c0.5-1,1-1.9,1.7-2.7c0,0,0.1,0,0.3-0.3l0.5-0.7l1.4-1.6l2.8-2.5h0.1l0.6-0.5l1.8-1.1c0.5-0.3,1-0.6,1.6-0.8l1-0.5h0.2
	c1.2-0.5,2.4-0.9,3.6-1.2l1.7-0.3l0.9-0.2c1.3-0.2,2.6-0.3,3.9-0.2l3.8,0.2h0.7l2.1,0.4c2.6,0.5,5.2,1.3,7.7,2.2l1.9,0.8h0.3
	l0.7,0.3c1.3,0.6,2.7,1.2,3.9,1.9c2.6,1.3,5.1,2.7,7.5,4.3c2.3,1.4,4.6,3,6.8,4.6l1.6,1.2l0.7,0.5h0.2l3.7,2.9
	c10,7.9,19.6,16.3,28.8,25l5.3,5.1c-0.2,0.3-0.4,0.6-0.5,0.9c-0.6,0.9-0.8,2-0.6,3.1c-1.4,1.9-1.2,4.5,0.5,6.2
	C409.8,253.9,415,271.5,412.8,288.2z M494.3,277.7c-0.1,0,0.1-0.1,0.2-0.2L494.3,277.7z M611.1,288.2
	C610.9,288.1,610.9,288.1,611.1,288.2L611.1,288.2z M643.6,266.6C643.5,266.3,643.6,266.4,643.6,266.6L643.6,266.6z M878.8,363.7
	c-0.1,0.9-0.1,0.7-0.2,1s-0.3,1.3-0.5,1.9l-0.5,1.2v0.2c-0.4,0.7-0.7,1.4-1,2.1c-1.4,3.3-2.6,6.4-2.7,10c0.1,3.3,0.6,6.6,1.7,9.7
	c0.8,2.8,1.6,5.7,2.6,8.4c0.1,0.5,0.3,0.9,0.5,1.3c-3-1.3-6.1-2.4-9.2-3.4c-3.2-0.9-6.4-1.6-9.7-2.1c-3-0.4-6.8-0.6-9.5-1.1
	s-4.3-0.8-5.5-3s-2-6.8-2.8-10c-2.4-8.9-4.7-17.9-7.1-26.8c-0.8-2.6-3.5-4.2-6.2-3.5c-4.5,1.5-8.7,3.6-12.6,6.2
	c0.7-4.8,1-9.6,0.9-14.4c-0.4-12-3.7-23.4-8.9-34.2c-1.9-4.1-7.9-2.6-9.1,1.2c-0.7,2.2-1.9,4.3-3.5,6.1c-1,1.1-2,2.1-3.1,3l-1.6,1.4
	c0.3-3.2-0.6-6.4-2.4-9.1c-4.3-6.4-12.3-13.3-20.5-12.7c-2,0.2-4,0.8-5.7,1.8c-1-6.7-0.1-13.5,2.8-19.6c1.5-3.1-0.3-7.7-4.3-7.5
	c-9.8,0.6-23.1,2.5-31.3,9.3c-1-7.4-0.9-14.8,0.1-22.2c1.2-8.7,4-18,9.1-25.2l0.5-0.5c9-8.9,18.5-17.4,28.2-25.6l7.3-5.9l3.5-2.8
	c0.1,0,0.3-0.2,0.4-0.3c0.1-0.1,0.3-0.2,0.4-0.3l1.9-1.4c4.5-3.3,9.2-6.2,14.1-8.8l3.8-1.9l0.7-0.3l0.7-0.3h0.4l1.1-0.5
	c2.5-0.9,5-1.7,7.6-2.3l1.9-0.3l1-0.2l3.8-0.2c1.2-0.1,2.5,0,3.7,0.1h0.9l2,0.4l3.5,1.1l0.6,0.2l0.3,0.2l1.9,1c1.1,0.5,2.1,1.2,3,2
	l0.2,0.2l0.6,0.5l1.6,1.5c0.8,0.8,1.5,1.7,2.2,2.5h0.1l0.5,0.6l1.2,1.9l1.8,3.2l0.7,1.5v0.2c0.2,0.3,0.3,0.7,0.4,1.1
	c0.9,2.4,1.7,4.8,2.2,7.3c0.3,1.4,0.5,2.8,0.8,4.2v0.3c0.1,0.3,0.1,0.7,0.1,1l0.3,2.6c0.5,6.4,0.4,12.9,0.3,19.3
	c-0.3,12.6,0.6,25.2,2.5,37.6c1.9,11.8,4.8,23.4,8.8,34.7c4.2,11.6,9.3,22.8,15.3,33.5c1.4,2.6,2.9,5.2,4.1,7.9l0.7,1.6
	c0.1,0.2,0.2,0.5,0.3,0.7l0.3,0.8c0.6,1.5,1.1,3,1.4,4.6c0.2,0.6,0.3,1.2,0.4,1.8c0.1,0.3,0.1,0.5,0.2,0.8v0.2
	C879,360.7,879,362.2,878.8,363.7z M966.3,622.7C966.5,623.2,966.2,622.8,966.3,622.7L966.3,622.7z M966.4,602.9
	C966.5,603.2,966.4,603.4,966.4,602.9L966.4,602.9z"/>
<path d="M685.6,300.6c-2.2-1.1-4.6-1.9-7-2.1c0-0.1,0.1-0.2,0.2-0.3l1.5-2.3l0.8-1.1l0.5-0.7l0.2-0.3l0.6-0.7l0.8-1l2-2.2
	c2-1.9,2-5.1,0-7.1c-2-1.9-5-1.9-7,0c-6,6.4-10.7,13.9-13.9,22.1c-0.7,1.8,0.4,4.1,1.8,5.2c1.6,1.3,3.8,1.4,5.5,0.4l1.8-0.9l0.5-0.2
	l0.6-0.3l1.9-0.5h2l1,0.3h0.3l0.2,0.2h0.1l0.3,0.2l0.5,0.2c0.9,0.4,1.7,0.9,2.5,1.5l0.4,0.3c0.4,0.3,0.8,0.6,1.1,1l0.8,0.8l0.2,0.2
	l0.3,0.4c0.1,0.4,0.3,0.7,0.5,1.1c0.1,0.2,0.2,0.4,0.2,0.6c0.8,2.6,3.5,4.2,6.2,3.5c2.6-0.8,4.1-3.6,3.4-6.2
	C695.2,307.3,690.4,303,685.6,300.6z M686.6,314.4C686.5,314.2,686.5,314,686.6,314.4L686.6,314.4z"/>
</svg>
