<?xml version="1.0" encoding="utf-8"?>
<!-- Generator: Adobe Illustrator 24.2.3, SVG Export Plug-In . SVG Version: 6.00 Build 0)  -->
<svg version="1.1" id="f4bcb58b-9902-422b-ba5e-3b949fceed32"
	 xmlns="http://www.w3.org/2000/svg" xmlns:xlink="http://www.w3.org/1999/xlink" x="0px" y="0px" viewBox="0 0 1152 864"
	 style="enable-background:new 0 0 1152 864;" xml:space="preserve">
<path d="M914.6,233.9c-3.7-4.6-7.6-8.9-12.9-11.7c-5.4-2.6-11.3-4.2-17.3-4.8c-6.3-0.4-12.6-0.3-18.9,0.3
	c-6.1,0.5-12.3,1.3-18.4,2.4c-25.1,4.5-48.9,14.2-71.8,25.1c-11.5,5.5-22.9,11.4-34.3,17.3c-2,1.1-4.4,2-6.1,3.6l-1.6,1.7l-0.7,0.7
	h-0.5c-2.3,1.1-4.6,2.4-6.7,3.9c-2.4,1.4-4.7,3-7,4.5c-18,12.3-33.6,28.4-43.3,48.1c-1.8,3.7-3.5,7.6-4.9,11.5
	c-10.3-4.3-20.7-8.6-31.5-11.1s-24.2-3.1-36.1-0.1s-21.7,7.8-33.1,9.8l-2.1,0.3H566l-4.8,0.4c-3,0.2-5.9,0.2-8.9,0
	c-2.9-0.1-5.9-0.3-8.9-0.7l-2-0.2h-1.5l-4.8-0.8c-12.3-2.2-24.4-5.6-36.9-7c-11.9-1.2-23.8-0.2-35.3,3c-6.5,1.8-13.5,4.1-19.2,8.1
	c-19.4-22.7-40.3-44-62.6-63.9c-11.3-10.3-23.3-19.8-35.7-28.7c-12.4-8.7-25.9-15.9-40-21.4c-14.1-5.3-28.6-9.3-43.4-11.8
	c-7.6-1.4-15.3-2.5-22.9-3.4l-11.3-1.3c-3.9-0.4-7.9-1.1-11.8-0.8c-15.4,0.9-21.7,19.7-24.4,32.3c-1.5,6.7-2.5,13.5-4,20.2
	c-0.6,2.7-1,5.5-1.4,8.3c-1.9,14.4-1.8,29.1-1.6,43.6c0.4,19.3,1.6,38.5,3.2,57.6c1.6,19.1,3.8,40.3,6.6,60.3
	c2.2,16.4,4.8,32.7,8.5,48.8c1.2,5.6,2.7,11.1,4.6,16.5c0.8,2.3,1.7,4.5,2.7,6.6c2.5,4.7,4.5,9.7,6,14.8c1.5,5.9,2.5,11.9,4.5,17.6
	c2.7,7.1,6.5,13.6,11.4,19.4c4.4,5.5,9.4,10.8,12.2,17.4c1.3,2.9,1.9,6.1,1.9,9.3c-0.1,3-1.4,5.6-2.8,8.2
	c-3.1,5.8-6.6,11.8-4.6,18.7c0.4,1.7,1.8,3.1,3.5,3.5l1.3,0.4c-0.8,6.4,0.5,12.9,3.8,18.5c-2.6,3.2-3.7,7.4-2.8,11.4
	c0.6,3.4,2.7,6.3,4.5,9.1c1.7,2.8,2.8,5.9,3.1,9.2c0.7,6.9,4.1,13.3,9.3,17.8c5.3,4.6,12.2,7.1,19.2,6.8c2.7-0.1,4.9-2.3,5-5
	c0-2.6-2.3-5.2-5-5c-9.2,0.5-17.2-6-18.6-15.1c-0.4-3-0.6-5.9-1.7-8.7c-1.2-2.6-2.7-5.1-4.3-7.5c-0.6-1-1.2-2.1-1.6-3.2
	c-0.3-0.5-0.3-1.2-0.2-1.7c0,0.2,0.2-0.9,0.2-1c0.1-0.2,0.2-0.4,0.2-0.6c0,0.2-0.1,0.7,0.1-0.1h0.1c2.8-0.2,4.8-2.6,4.6-5.3
	c-0.1-1.2-0.6-2.3-1.4-3.2c-4.5-5.2-5.9-12.4-3.7-18.9c0.7-2.7-0.9-5.4-3.5-6.2l-2.6-0.6c0.3-1.4,0.7-2.7,1.4-4
	c1.4-2.8,3.1-5.6,4.4-8.5c2.3-5.4,2.5-11.2,1.2-16.8c0.4-0.4,0.8-0.9,1.1-1.5c2.6-5.4,5.5-10.6,8.7-15.6c1.6-2.4,3.3-4.8,5.1-7.1
	c0.2-0.4,0.4-0.7,0.7-1h0.2l1.2-1.6c1-1.2,1.9-2.4,2.9-3.5c3.9-4.5,8-8.7,12.4-12.6c2.2-2,4.4-3.9,6.7-5.7l0.6-0.4l0.6-0.5l1.6-1.2
	l3.9-2.7c2.7-1.8,5.5-3.6,8.3-5.2c2.8-1.6,3-1.7,4.6-2.4l0.8-0.3l1.3-0.4l1.2-0.3l0.9-0.2c1.5,0,2.9-0.7,3.9-1.9s1.3-2.9,0.9-4.4
	c-1.7-5.4-3.9-10.6-6.6-15.6l1.9-0.5l3.8-0.8h1.1l2-0.2c2.2-0.3,4.3-1.4,4.9-3.7c0.5-2.2-0.4-4.5-2.3-5.7c-2.4-1.4-4.8-3-7.1-4.6
	l-2.9-2.2c0-0.1,0-0.1-0.1-0.1l-0.9-0.7l-1.7-1.4c-4.1-3.4-8-7-11.6-10.8c-1.9-2-3.7-4-5.5-6.1l-2.4-2.9l-1.2-1.5l-0.9-1.1
	c-3.2-4.3-6.2-8.7-8.9-13.3c-2.8-4.7-5.4-9.6-7.8-14.6c-1.1-2.4-2.3-4.9-3.3-7.4c0.5,1.3-0.3-0.6-0.4-0.8l-0.7-1.9
	c-0.6-1.3-1.1-2.7-1.6-4c-3.8-10.4-6.9-21.1-9.1-31.9c-0.7-3.1-1.3-6.2-1.8-9.2c-0.2-1.5-0.5-3-0.7-4.5l-0.3-2.4
	c-0.1-0.2-0.1-0.4-0.1-0.6c0-0.3-0.1-0.6-0.1-0.8c-0.5-3.6-0.9-7.1-1.2-10.7l6,2.9c4.3,2.2,8.5,4.6,12.5,7.3c2,1.3,4,2.6,6,4.1
	l2.6,1.9l0.6,0.5H285l0.3,0.2l1.4,1.2c3.8,3,7.4,6.1,10.8,9.5c3.3,3.3,6.5,6.7,9.5,10.3l2.3,2.7l1.1,1.4l0.6,0.7l0.2,0.3l0.5,0.6
	l0.4,0.6l1.2,1.5l2.2,3.1c5.9,8.4,11,17.2,15.4,26.5c5.2,11.1,10.1,22.4,18.4,31.6c2,2,5.1,2,7.1,0s2-5.1,0-7.1l-2.5-3.4l-0.6-0.8
	c-0.5-0.6-0.9-1.3-1.4-2c-1.5-2.1-2.8-4.3-4-6.6c-2.6-4.7-4.9-9.6-7.1-14.5c-4.3-9.5-9.5-18.7-15.4-27.3
	c-11.2-16.5-25.4-30.8-41.8-42.2c-9.5-6.4-19.7-11.8-30.4-15.9c-3-1.2-6.5,1.8-6.3,4.8c1.3,22.8,5.3,45.5,12.9,67.1
	c7.6,21.6,18.6,41.7,33.8,58.6c5.7,6.4,12.1,12.3,19,17.5c-2.1,0.7-4,1.6-5.8,2.9c-2.1,1.6-3.3,4.4-1.8,6.9c1.8,2.8,3.5,5.8,4.9,8.9
	l0.9,2.1c0.2,0.2,0.3,0.4,0.3,0.7c0.2,0.3,0.3,0.7,0.4,1h0.1c-4.6,1.8-9.1,4.2-13.2,7c-5.4,3.5-10.6,7.4-15.5,11.6
	c-9.5,8.2-17.8,17.5-24.8,27.9c-2.9,4.2-5.5,8.5-7.8,13c-6.2-9.9-15.4-17.8-19.7-29c-2.1-5.6-3.1-11.5-4.5-17.2
	c-1.6-6.1-4-11.9-6.9-17.5l-1.1-2.4c0,0.1,0.1,0.2,0.1,0.3c-0.1-0.2-0.2-0.4-0.2-0.6c-0.3-0.5-0.5-1-0.6-1.6
	c-0.9-2.3-1.6-4.7-2.3-7.1c-4-13.9-6.5-28.4-8.7-42.7c-0.7-4.4-1.4-8.9-2-13.3c-0.1-1.1-0.3-2.2-0.5-3.3s-0.1-1.3-0.3-2.9l-0.9-6.9
	c-1.2-9.7-2.3-19.4-3.3-29.2c-1.9-19.5-3.4-39-4.2-58.6c-0.7-16.2-1.1-32.5-0.1-48.7c0.2-3,0.4-6.1,0.7-9.2l0.3-2
	c0.1-0.5,0.1-0.5,0-0.1c-0.1,0.4,0.1-0.5,0.1-0.7l0.6-3.7c1.1-5.3,2.2-10.5,3.2-15.8c1-5.3,2.4-12.8,4.9-18.7
	c2.5-5.9,5.4-12.3,11.5-12.7c3.7-0.2,7.7,0.5,11.4,0.9l10.8,1.2c14.7,1.7,29.3,4.5,43.6,8.3c14.1,3.7,27.7,9.1,40.5,16
	c12.8,7.1,24.6,15.8,35.9,25.1c23.5,19.5,45.5,40.6,65.9,63.3c4.1,4.5,8.2,9.2,12.2,13.9c-0.6,0.8-1.1,1.7-1.5,2.6
	c-2.4,5-3.5,10.3-5.3,15.4c-0.4,1.2-0.9,2.3-1.3,3.5c-0.4,1.2-0.1,0.3-0.1,0.1l-0.3,0.8l-1,2.1c-1.1,2.3-2.3,4.5-3.7,6.7l-2,3.1
	l-1.1,1.6l-0.6,0.7l-0.3,0.4c-1.5,2-3.2,4-5,5.8c-3.4,3.4-7.1,6.6-10.9,9.5c-7.1,5.6-14.8,11.5-18.7,19.9c-1.1,2.2-1.9,4.5-2.4,6.9
	c-0.5,2.6,0.7,5.5,3.5,6.2s5.7-0.8,6.2-3.5c0.2-1,0.4-2.1,0.7-3.1l0.5-1.2c-0.2,0.6,0.3-0.6,0.4-0.9c0.1-0.3,1-1.8,1.6-2.7l0.8-1.3
	l0.4-0.4c0.1-0.1,0.2-0.2,0.2-0.2c2.8-3.4,6-6.5,9.5-9.2c3.5-2.8,7-5.4,10.4-8.3c3.8-3.3,7.2-7,10.3-10.9
	c6.6-8.5,11.4-18.3,14.3-28.7c0.4-1.1,0.7-2.3,1.1-3.5c0.2-0.5,0.4-1,0.5-1.5c0.1-0.2,0.5-1.3,0.6-1.4c0.4-1.1,0.9-2.1,1.5-3
	l0.9-1.4l0.2-0.2l0.8-0.8c0.4-0.5,0.8-0.9,1.3-1.3l0.4-0.3l0.4-0.3l3.3-2l1.7-0.8l1.1-0.5l3.8-1.5c5.3-1.9,10.8-3.3,16.3-4.2
	l1.9-0.3h1.4l4.4-0.4c2.8-0.2,5.7-0.2,8.5-0.2s5.8,0.4,8.7,0.7h1.2l2.1,0.3l4.9,0.9l17.5,3.7c11.8,2.5,23.9,4.3,36,3.6
	c6.1-0.4,12-1.4,17.9-3c5.4-1.5,10.6-3.4,15.9-5.2c5.3-1.9,10.8-3.3,16.4-4.2h1.2l1.9-0.2h4.7c2.8,0,5.5,0.2,8.3,0.5h0.3l0.9,0.2
	l2.1,0.3l4.3,0.9c2.9,0.6,5.7,1.4,8.5,2.3c5.6,1.7,11.1,3.8,16.5,6l3.7,1.5l1.9,0.8l1,0.4l0.5,0.2c0.6,0.3,1.2,0.5,1.9,0.5
	c1.4,3.9,2.7,7.7,4.1,11.5s3.4,10,5.4,14.8c0.9,2.6,2.2,5,3.8,7.3c1.5,2.1,3.2,4,5.1,5.8c3.9,3.5,8,6.8,12.2,9.8
	c4.6,3.2,9.4,6.2,14.4,8.9c2.3,1.2,5.6,0.6,6.8-1.8c1.2-2.4,0.7-5.6-1.7-6.9c-4.3-2.2-8.4-4.7-12.3-7.4l-2.9-2l-1.4-1.1l-0.8-0.5
	l-0.6-0.5h-0.2l-0.7-0.6l-1.4-1.2l-2.7-2.2c-1.8-1.5-3.4-3.1-4.9-4.9l-0.4-0.5V375l-0.9-1.2c-0.6-1.1-1.1-2.2-1.6-3.3
	s-0.2-0.3-0.3-0.4c0-0.2-0.1-0.3-0.1-0.5l-0.6-1.5c-0.5-1.2-0.9-2.5-1.4-3.8s-1.7-4.8-2.6-7.2c-1.7-4.9-3.4-9.7-5.2-14.6
	c6.5-19.6,19.2-36.4,35-49.5c3.9-3.3,8.1-6.3,12.4-9.1l6.6-4.1c2.2-1.3,4.8-2.3,6.7-4s1.7-1.9,2.6-2.7c0.2,0,0.5-0.1,0.7-0.2l2-1
	l4.8-2.5c5.4-2.8,10.9-5.7,16.4-8.4c22-11.2,44.6-21.5,68.5-27.8c11.7-3.2,23.6-5.1,35.7-5.8c10.3-0.5,22.9-0.9,31.1,6.5
	c8.2,7.4,13.3,16.7,17.3,25.9c3.8,9.2,6.4,18.8,7.6,28.7c2.7,21,0.8,42.6-2.3,63.4c-3.9,25.2-9.5,50.2-16.5,74.7
	c-7.1,25.3-15.1,50.3-22.2,75.5c-2.6,9.6-6.1,19-8.3,28.6c-4.1-5.7-9.1-10-14.8-13.9l-7.8-5.2l-3.6-2.5l-2-1.5l-0.7-0.5l-0.7-0.5
	c-5.1-4.1-9.9-8.7-14.2-13.7l-3-3.5l-0.5-0.7l-0.5-0.7l-1.5-2c-1.9-2.6-3.6-5.4-5.2-8.2c0-0.1,0-0.1-0.1-0.2v-0.2
	c-0.1-0.2-0.2-1.4-0.3-1.1v-2.2c-0.1-2.4-1.2-4.7-2.9-6.4l-0.8-0.6c11.6-11.7,21.8-24.8,30.2-39c10-16.8,17.6-35,22.4-54
	c2.8-10.8,4.6-21.7,5.5-32.8c0.3-3-3.4-6-6.3-4.8c-18.7,7.4-37.9,14.9-54.1,27.1c-8.3,6.2-15.6,13.6-21.7,21.9
	c-5.7,7.9-10.5,16.4-14.3,25.3c-3.9,8.8-7.1,17.9-9.8,27.2c-1.4-0.2-2.9-0.3-4.3-0.3l-0.3-1.2c-0.1-0.4-0.1-0.9-0.2-1.3
	c0-0.3-0.1-0.5-0.2-0.8c0-0.8-0.1-1.6-0.1-2.4c-0.1-0.9-0.1-1.9,0-2.8c0-0.4,0-0.9,0.1-1.3c0-0.2,0.1-0.6,0.1-0.8
	c0.3-1.7,0.7-3.4,1.2-5.1c0.7-2.6-0.8-5.3-3.4-6.1H763c-2.6-0.6-5.3,0.9-6.1,3.5c-2.7,8.2-2.5,17.1,0.8,25.1
	c1.1,2.5,3.3,4.2,6.2,3.5l1.2-0.3h0.3c0.6-0.1,2-0.4,2.5,0h-0.5l0.9,0.2c0.4,0,0.8,0.1,1.2,0.3l0.9,0.3l0.6,0.3
	c2.5,1.4,5.7,0.4,7-2.1c0.1-0.3,0.3-0.6,0.4-0.9c2.5-9.3,5.6-18.5,9.2-27.5l0.3-0.7c0-0.2,0.1-0.3,0.2-0.5c0-0.1,0-0.1,0.1-0.2
	l0.4-1c0.5-1.1,1-2.3,1.6-3.4c0.6-1.1,2-4.2,3.1-6.3c2.2-4.2,4.6-8.3,7.3-12.2c0.6-1,1.3-1.9,2-2.9c0.3-0.5,0.6-0.9,1-1.3l0.5-0.7
	c-0.7,1,0.1-0.1,0.2-0.2c1.4-1.9,2.9-3.6,4.5-5.4c3.3-3.6,6.9-6.9,10.7-9.9l1-0.8l0.9-0.7l3.1-2.2c2-1.4,4-2.8,6.1-4
	c4.1-2.6,8.3-4.9,12.7-7l7.4-3.5l3.7-1.7l1.9-0.8l0.8-0.3l0.5-0.3l8-3.2c0,0.2-0.1,0.6-0.1,0.9c0,0.3-0.1,0.7-0.1,0.9l-0.6,3.7
	c-0.8,4.7-1.7,9.3-2.8,13.9c-2.2,9.2-5,18.2-8.5,27c-0.4,1.1-0.8,2.1-1.3,3.2c-0.5,1.1-0.1,0.4-0.2,0.6c-0.3,0.6-0.6,1.2-0.8,1.9
	l-3,6.4c-2,4.2-4.2,8.4-6.5,12.4s-4.9,8.2-7.5,12.2c-1.3,2-2.7,3.9-4.1,5.8l-2,2.7l-1.1,1.5l-0.5,0.6c0.6-0.7,0.1,0-0.2,0.3
	c-6.5,8.4-13.7,16.1-21.5,23.3c-3,2.9-0.8,8.9,3.6,8.6h1.9c0.5,0.1,1,0.1,1.5,0.1h0.2v1.7c0.2,2.1,0.8,4.2,1.8,6.1
	c1.5,2.9,3.2,5.7,5.2,8.3c2,2.7,4,5.4,6.2,7.9c4.1,4.8,8.5,9.3,13.4,13.3c5.1,4.1,10.3,7.8,15.8,11.3l4.3,3l0.6,0.5l0.9,0.6l1.6,1.3
	l3.8,3.5l1.6,1.8l0.5,0.7l0.6,0.8c1.6,2.1,4.5,3.4,6.9,1.8c0.1-0.1,0.2-0.2,0.4-0.3c-0.2,1.4-0.4,2.8-0.6,4.2
	c-0.7,6.3,0,12.8,2.1,18.8c1.8,5.2,4.5,10,6.3,15.1c0.5,1.3,0.9,2.7,1.2,4.1c0.1,0.5,0.2,0.9,0.3,1.4c-0.1,1.6,0,3.1,0.1,4.7
	c0.1,0.8,0.1,1.7,0.1,2.5c0,0.2,0,0.2-0.1,0.1v0.2h-0.2l-0.3,0.7c-0.5,1.1-0.9,2.3-1.2,3.5c-0.7,2.4-0.8,4.1-1.3,6.4l-1.5,7.2
	c-0.4,2-0.8,3.9-1.3,5.9s-0.4,2.2-0.5,3.4c-0.1,0.1-0.1,0.2-0.1,0.3v0.2l-0.6,2.1c-0.9,3.6-1.8,7.2-0.9,10.6
	c-0.8,0.9-1.6,1.7-2.5,2.5c-1.8,1.7-3.7,3.2-5.6,4.9c-4.1,3.7-7.6,8-8.1,13.8c-0.2,2.7,2.5,5,5,5c2.7-0.1,4.9-2.3,5-5l0.3-0.9v-0.2
	l0.2-0.2c0.2-0.4,0.4-0.8,0.7-1.2c0.2-0.3,0.3-0.4,0.2-0.4l0.5-0.6c1.5-1.7,3.1-3.2,4.9-4.6c3.5-3,7.4-6,9.4-10.2
	c0.9-1.8,0.7-4-0.5-5.6v-1c0.1-0.1,0.1-0.2,0.1-0.4s0.3-1.1,0.4-1.7c0.6-2.5,1.2-4.9,1.6-7.4c-0.2,1.3,0.3-1.3,0.4-1.7
	s0.4-2.1,0.7-3.2l1.5-7.4c0.5-2.1,0.9-4.2,1.2-6.3c0.2-1,0.5-2,0.8-3c0-0.1,0.1-0.2,0.1-0.3c0.1-0.3,0.2-0.6,0.4-0.8
	c1.6-3.7,1.1-7,1.1-10.9c0-10.8-7.5-19.7-9.7-30c-1.2-5.7-0.3-11.9,1-17.5s3.7-13.4,5.8-19.9c4-12.9,7.3-26.1,11.2-39.1
	s7.7-25.5,11.4-38.3c7.4-25.4,13.9-51.1,18-77.2C939.1,317.9,942.9,269.9,914.6,233.9z M893.4,593.6
	C893.6,593,893.8,592.8,893.4,593.6L893.4,593.6z"/>
</svg>
