<?xml version="1.0" encoding="utf-8"?>
<!-- Generator: Adobe Illustrator 24.2.3, SVG Export Plug-In . SVG Version: 6.00 Build 0)  -->
<svg version="1.1" id="f7bac874-bed4-4be5-abfa-9730002d5b7c"
	 xmlns="http://www.w3.org/2000/svg" xmlns:xlink="http://www.w3.org/1999/xlink" x="0px" y="0px" viewBox="0 0 1152 864"
	 style="enable-background:new 0 0 1152 864;" xml:space="preserve">
<path d="M366.8,242.7v-0.3c-16.3-5.3-33.7-6.7-50.6-3.8c-16.7,2.6-32.5,9-46.3,18.7c-7.9,5.5-15,12-21,19.5c-1.5,2-2,4.4-0.4,6.6
	c1.6,1.9,4.3,2.4,6.5,1.2c4.2-2.8,8.6-5.3,13.2-7.6l6.6-3.1l1-0.4l1.8-0.7l3.7-1.4c4.8-1.7,9.7-3.1,14.6-4.2c2.5-0.5,5-1,7.5-1.3
	l1.9-0.3h-0.1c0.1,0,0.2,0,0.2-0.1h0.7l3.5-0.4c-14.4,11.4-25.5,26.6-31.9,43.8c-2.3,6.2-3.9,12.7-4.8,19.3
	c-0.4,2.5,0.4,4.8,2.9,5.9c2.3,0.9,4.9,0,6.2-2.1l1.8-2.6c0.1-0.2,0.2-0.4,0.4-0.5l1-1.2c1.3-1.5,2.7-2.9,4.2-4.2l1.2-1l0.4-0.3h0.2
	l2.2-1.6c1.8-1.2,3.6-2.2,5.6-3c2.4-1.1,3.1-4.8,1.8-6.9c-1.3-2.1-4.3-2.9-6.9-1.8c-2.4,1.1-4.7,2.4-6.9,4l0.9-2.5
	c0.2-0.3,0.4-1.5,0.7-1.7l-0.2,0.5l0.3-0.7l0.6-1.4c1.2-2.5,2.4-5,3.8-7.5c1.4-2.5,2.9-4.8,4.5-7.1l2.4-3.4l0.2-0.2l0.6-0.9l1.5-1.7
	c3.6-4.4,7.6-8.4,12-12l1.9-1.6c0.1,0,0.1,0,0.1-0.1h0.1l0.9-0.7l3.9-2.8c2.8-1.8,5.6-3.4,8.4-4.9c2-1.1,2.9-3.4,2.3-5.6
	c-0.6-2.2-2.6-3.7-4.8-3.7c-14.4-0.7-28.9,1.1-42.7,5.2c2.9-1.6,5.9-3,8.9-4.4l1.1-0.4l0.7-0.3l2.9-1.1c1.9-0.8,3.9-1.4,5.8-2
	c3.8-1.2,7.7-2.2,11.6-2.9l2.9-0.5l1.4-0.2h0.8c2-0.3,4-0.5,6-0.6c4-0.3,8.1-0.4,12.1-0.2l6.6,0.5l1.6,0.2l0.9,0.2l3.2,0.5
	c4.5,0.8,8.9,2,13.2,3.5c2.7,0.7,5.5-0.8,6.2-3.5C371,246.2,369.5,243.4,366.8,242.7z"/>
<path d="M951,277.5c-4.2-16.9-9.5-33.9-9.7-51.5c-0.1-8.3,1.8-16.3,2.6-24.6c0.7-6.8,0.5-13.6-0.4-20.4c-1.8-12-6.9-23.5-15.5-32.3
	c-8.6-8.8-20.5-14.3-32.7-16.8c-8.3-1.5-16.7-2.4-25.1-2.9c-9.7-0.8-19.4-0.7-29,0.4c-18.2,2.2-35.5,9.8-51.7,18
	c-15.3,7.9-29.9,16.9-43.8,27.1c-30.9,22.5-58.5,48.9-85.6,75.7c-3.8-2.2-7.8-4.1-11.8-5.8c-5.7-2.3-11.9-3.9-18-2.8
	c-3.9,0.8-7.3,2.8-9.9,5.8c2.1-4.1,4.5-8,7.2-11.7c2.1-2.9-0.7-8-4.3-7.5s-8.3,2.7-12,4.9c-4.7,2.9-9.3,6-13.6,9.4
	c-7.8,5.9-16,12.1-20.2,21.2c-0.8,1.8-1.5,3.8-2.1,5.7v-0.2c-0.1-0.3-0.1-0.7-0.1-1c-0.1-0.4-0.1-0.8-0.1-1.2
	c-0.1-1.1-0.2-2.2-0.2-3.2s0.1-4,0.3-6c0-0.3,0.1-1,0.1-1s0.1-0.7,0.2-1.1c0.1-0.4,0.4-2.1,0.7-3.1c0.2-0.9,0.5-1.7,0.8-2.6l0.3-0.9
	l0.5-1c0.4-0.9,0.9-1.8,1.5-2.7l0.6-0.9l0.6-0.6l1-1.1l0.5-0.4c0.8-0.6,1.7-1.1,2.6-1.5c3.7-1.8,2.7-6.7,0-8.7
	c-8.6-6.3-19.4,0.2-26.3,5.8c-8.5,6.9-15.6,15.7-21.9,24.6l-2.4,3.3c-4.7-7.4-10.3-14.2-16.7-20.3c-3.2-3-8.2-0.7-8.5,3.6l-1.5,24.2
	c-2.3-3.8-4.2-8.1-6.3-11.8c-4.6-8-11.1-14.6-20.6-15.9c-3.6-0.5-6.4,4.7-4.3,7.5c3.5,4.7,5.3,10.6,4.8,16.5
	c-8.6-4.4-17.1-8.9-25.8-13.1c-7.1-3.4-15.1-6.4-22.9-5.6c-45.1-44.6-92.4-90-152-114.3c-29.1-11.9-64.9-19.9-92.2,0.5
	c-22.5,16.7-32.9,44.6-40.4,70.5c-11.3,39.2-19.6,80.1-13.3,120.9c0.4,2.4,3.3,3.9,5.5,3.6c2.2-0.3,4.1-2.4,4.4-5
	c5.5-45.5,27.8-88.7,61-120.3l2.2-2c-2.7,7.5-5,15.1-6.8,22.8c-3.3,13.2-6.3,26.5-9,39.9c-2.5,12.5-5.1,25.1-6.3,37.9
	s-0.2,26.4,6.3,38.1c2.2,4,7.7,2.7,9.1-1.2c2.7-7.9,6.5-15.3,11.2-22.2c-25.4,53.6-47.1,109.6-49.5,169.4
	c-0.8,19.8,0.9,39.5,4.8,58.9c1,4.6,8.9,4.9,9.7,0c5.8-36.6,20.5-71.2,42.8-100.8c-3.9,16.6-6,33.6-6.3,50.6
	c-0.1,12.4,0.7,24.7,2.6,36.9c1.6,10.6,4.9,21.1,12.5,29c2,2.1,6.5,1.9,7.8-1l2.1-4.5c0.4,1.8,0.8,3.7,1,5.6
	c0.8,5.6,1.3,11.3,1.6,17c0.7,12.2,0.5,24.3,0.5,36.5c0,23.9,0.5,48.2,7.9,71.2c1.8,5.5,9.3,4.2,9.8-1.4
	c1.6-15.9,6.5-31.3,14.4-45.2c0.9,16-1.2,32.7-3.7,48.2c-3.2,19.8-7.5,40-15.2,58.6c-1.3,3.1-2.8,6-4.5,8.9l-0.9,1.4
	c-0.3,0.3-0.6,0.6-0.9,1c-0.3,0.3-0.6,0.6-0.9,0.9c-0.8,0.4-1.5,1.1-1.9,1.9c-1.1,2-0.8,4.4,0.8,6c2.9,2.7,7.6,1.5,10.9,0.3
	c4.3-1.6,8.4-3.7,12.1-6.4c7.3-5.4,13.5-12,18.3-19.7c8.6-13.3,13.6-28.5,17.7-43.8l4.8,5.1c3.7,3.8,7.4,7.8,11.8,10.8
	c4.4,3,8.9,2.6,10.2-2.3c0.6-2.4-0.2-5-0.8-7.3c-4-15.4-10.3-30.8-9.2-46.6c0-1.7,0.4-3.5,0.9-5.1l0.4-1.2c0.1-0.2,0.1-0.3,0.1-0.2
	s0.1-0.2,0.2-0.5l1.1-1.8c-0.1,0.3,1.5-1.3,1.2-1.1c0.4-0.4,0.9-0.7,1.5-0.9l0.7-0.3l1.8-0.5h0.1c1.9,2.5,4.3,4.4,7.1,5.7
	c2.5,1.1,5.4,0.7,6.8-1.8c1.4-2.5,0.7-5.7-1.7-6.8l-1.9-1l-0.8-0.6c-0.5-0.4-0.9-0.8-1.3-1.3l-0.3-0.3l-0.2-0.3
	c-1.3-1.8-2.2-3.9-2.5-6.1l-0.3-1.5c0-0.1-0.1-1.4-0.1-1.5c-0.1-1.3-0.1-2.5,0.1-3.8c0.3-3.2,1.1-6.3,1.4-9.5
	c0.5-6.2-1.5-12.4-7.3-15.4c-1.7-0.9-3.6-1.4-5.5-1.5c-0.1-5.5-0.1-11-0.2-16.5c0-3.6,0.2-7.5-0.7-11s-3.2-6.3-4.6-9.5
	c-5.2-11.6-2.6-25.3-0.3-37.3c0.9-4.9-4.5-8.3-8.3-4.8c-6.4,5.7-14.2,9.6-22.5,11.5l36.1-40.2c2-2.4,1.9-6.2-1.1-7.9
	c-0.2-0.2-0.5-0.3-0.8-0.4c12-10.3,19.9-24.9,25.1-39.9c7-20,8.9-41.2,14.2-61.6c3.1-11.7,7.3-23,14.1-33.1c1.9-2.9-0.2-6.3-3-7.3
	l-5.5-2c3.1-9.5,9.5-17.5,18.1-22.6c2.7-1.6,5.8-2.6,8-4.8c2.9-2.7,3.5-7.2,1.4-10.6c-2.1-3.2-6-4.8-9.5-6.1
	c17-10.7,37.2-15.3,57.2-13.1c3.5,0.4,5.2-3.5,4.8-6.3c-1.1-6.6-4.2-12.8-8.7-17.7c5.2,0.6,10.6,3.3,15,5.5l29.4,15
	c2.4,1.4,5.4,0.6,6.8-1.8c0.2-0.3,0.4-0.7,0.5-1.1c1.6-4.6,2.1-9.5,1.6-14.4c1.2,1.8,2.2,3.7,3.2,5.7c3.9,7.4,7.8,15,15,19.6
	c3.4,2.2,7.3-0.7,7.6-4.3l1.5-24.1c4.4,5.3,8.3,11.1,11.5,17.2c0.2,0.5,0.6,0.9,1,1.2l0.7,0.5h0.2l0.5,0.2l0.5,0.2h2.8l0.5-0.2
	l0.5-0.2h0.3l0.7-0.5l0.6-0.7c0.1-0.1,0.3-0.3,0.3-0.4c1.6-2.9,3.3-5.6,5.2-8.3c1.3-1.9,2.7-3.7,4-5.5l0.5-0.7l0.3-0.4l0.9-1.2
	l2.6-3.1c3.2-4,6.8-7.7,10.6-11.2l2.6-2.3l1-0.8l1.2-0.9c0.8-0.6,1.6-1.1,2.4-1.5c-2,3.8-3.3,7.9-3.9,12.2c-1.3,9-0.9,18.7,2.7,27.2
	c1.5,3.6,3.8,7.5,7.5,9.2s7.7-0.2,7.6-4.3c-0.2-6.4,0-11.3,2.3-17.1l0.5-1.2l0.9-1.7c0.4-0.9,0.9-1.8,1.4-2.6h0.1l0.6-0.8l1.8-1.9
	c3.4-3.4,7.1-6.6,10.9-9.5l2.3-1.8l3.5-2.6l2.3-1.6l-3.6,7.9c-2.1,4.6-3.8,9.4-5.2,14.3c-0.9,3.8-1.8,8.2-0.5,12
	c0.7,2.7,3.5,4.2,6.2,3.5c0.4-0.1,0.8-0.3,1.1-0.5c8.4-4.5,11.6-14.9,15.8-22.7c0.6-1,1.1-2,1.7-2.9l0.9-1.4l0.4-0.5l0.4-0.6
	l0.7-0.8l1-1l0.3-0.3h0.1c0.5-0.2,0.9-0.5,1.3-0.8h0.2l0.6-0.2c0.5-0.1,0.9-0.2,1.4-0.3h4.1l1.9,0.4l4.2,1.3
	c3.3,1.2,6.6,2.7,9.7,4.4c-5.3,6.1-7.8,14.7-9,22.5c-0.4,2.8,1.3,6.8,4.9,6.4c11.5-1.4,23-4.4,34.5-5.3c5.2-0.5,10.5-0.3,15.6,0.7
	l-5.6,1.2c-4.7,1-9.4,2.5-13.8,4.4c-3.4,1.5-7,3.8-8.7,7.3s-1.6,5.3-0.3,7.5c0.9,1.3,2.1,2.3,3.5,3c3.4,1.8,6.9,3.4,10.5,4.8
	c4.5,2,9.1,3.9,13.7,5.7l4.9,2l1.1,0.5l0.6,0.2c6.7,3.1,12.5,5,18.9,8.5l2.2,1.3l-3.3-0.3c-3.4-0.3-6.7-0.4-10.1-0.3
	c-2.4,0-4.7,0.3-7,0.9c-2.8,1-4.9,4.5-2.9,7.3c5.5,8.1,12.6,14.8,20,21.2c0.5,0.4,1.1,0.9,1.6,1.3c0,0,0,0,0.1,0c0,0,0,0,0.1,0.1
	l0.1,0.1c2.8,2.4,5.6,4.8,8.2,7.4l4.5,4.7l1.7,2.2l1.7,2.4c2.4,3.6,4.2,7.7,5.3,11.9c1.2,5,1.9,10.1,2.7,15.2
	c1.3,9.2,2.3,18.6,5.3,27.4c1.7,5.1,4.3,9.9,7.7,14.2h-0.1c-3-0.2-5.9-0.4-8.8-0.4s-5.2,0.2-7.5,1.4c-2.3,1.2-3,5.5-1,7.8
	c19.1,21.5,39.4,42,59.2,62.9c1.5,1.7,3.1,3.3,4.7,5c-10-1.5-20-5.1-27-11.4c-2.1-1.9-5.3-1.7-7.2,0.4c-1.1,1.2-1.6,2.9-1.2,4.5
	c0.1,0.2,0.1,0.5,0.2,0.7s0.1,1.3,0.1,1.9s0.2,3.1,0.2,4.6c0,3.7-0.2,7.5-0.4,11.2c-0.6,8.2-1.5,16.3-2.5,24.4
	c-0.1,1-0.2,1.9-0.4,2.9c0,0.4-0.1,0.8-0.1,1.2v0.2c-0.1,0.1-0.1,0.2-0.1,0.3c-0.2,1.7-0.4,3.3-0.7,4.9s-0.7,4.9-1.1,7.3
	c-0.4,1.4-0.6,2.8-0.6,4.2c0,2.8,1.4,5.7,2.2,8.3c1.5,4.4,3,8.8,4.3,13.3c0.2,0.9,0.5,1.8,0.7,2.7l-1.4-0.3
	c-5.2-1.4-10.7-1.6-16-0.8c-14.9,2.6-4.2,20.2-2,28.6v0.3c0,0,0.1,1,0.1,1.1v1c0,0.2-0.1,0.7-0.1,0.8s-0.1,0.2-0.1,0.3h-0.1
	c-0.1,0.2-0.3,0.4-0.5,0.5c0.8-0.8-0.4,0.3-0.8,0.5l-1.7,0.9l-0.6,0.2l-1,0.4l-2.2,0.9c-0.6,0.2-1.2,0.4-1.7,0.8
	c-2.1,1.2-2.6,4.6-1.4,6.6c0.2,0.4,0.6,0.8,0.9,1.1c0.9,0.9,2.1,1.4,3.4,1.4h2.7l1.6,0.4l0.6,0.2h0.2l2.1,1.2l0.8,0.8l1,1l0.5,0.7
	l0.8,1.3l0.7,1.4l0.3,0.9c0.8,2.1,1.3,4.4,1.7,6.6c0,0.2,0.1,1.1,0.1,1.2s0.1,1.3,0.2,1.9s0.1,2.7,0.2,4.1s-0.1,5.5-0.3,8.2
	c-0.3,5.2-0.9,10.3-1.7,15.4c-0.7,4.4-1.5,8.7-2.2,13.1c-0.5,2.9-1.4,6.4-0.6,9.3c1.3,5.3,7.2,5,10.3,1.6s5.6-7.9,8-12
	c3.8-6.3,7.4-12.6,11.1-19c0.8-1.2,1.5-2.5,2.3-3.8c2.7,12.7,5.1,25.5,8.6,38.1c4.3,15.4,10.1,32.5,22.2,43.8
	c3,2.9,6.4,5.2,10.2,6.9s9.7,3.7,13.2,0.6c1.6-1.6,1.9-4,0.8-6c-0.7-1-1.7-1.8-2.7-2.4l-0.7-0.4c0-0.1-0.1-0.1-0.1-0.2
	c-0.5-0.4-1-0.9-1.4-1.4l-0.8-0.9l-0.2-0.3c-2.3-3.3-4.2-6.8-5.8-10.5c-0.8-1.8-1.7-3.9-2.5-6.3s-1.8-5.2-2.7-7.8
	c-1.8-5.7-3.3-11.6-4.6-17.5c-6-25.7-9.2-52.6-7.7-79c0.3-6,1.1-12.1,2.2-18c0.6-2.8,1.3-5.5,2.2-8.2c0.1-0.2,0.2-0.3,0.2-0.5
	c6.8,7.8,9.3,21,10.8,30.6c2.2,15.2,2.4,30.7,0.3,45.9c-0.8,5.4,5.8,8.8,9.1,3.8c14.2-21.5,18.6-46.7,17.3-72.1
	c-0.6-12.4-2.3-24.7-4-37.1c-0.8-5.8-1.6-11.7-2.3-17.6c0-0.7-0.1-1.3-0.1-1.9c0-0.4,0.1-0.7,0.2-1.1c0.4-1.5,0.9-3,1.5-4.5
	c-0.3,2-0.1,4.1,0.5,6.1c1.3,3.5,5.5,5.1,8.3,2.2c7.9-7.7,17.5-14,23.4-23.5s7.5-18.3,8.8-27.7c3.2-21.7,0.8-44.2-4.1-65.5
	c-0.9-3.9-1.9-7.8-2.9-11.6c7,7.7,13.7,15.6,19.3,24.4c9.7,15,14.5,32,17.2,49.6c0.8,4.9,8.7,4.6,9.7,0c3.5-16.8,4.1-34,1.5-51
	c-2.4-16.2-7.4-31.9-12.1-47.5c-2.7-8.7-4.9-17.4-7.8-25.9c-2.7-7.8-5.9-15.4-9.4-22.9c-7.4-15.8-16.3-30.8-25.3-45.8
	c-4.8-8-9.7-16-14.5-24.1c2.4,2.4,4.7,4.9,7,7.4c8,9,17,19.2,21.1,30.8c1.3,3.8,6.9,5.1,9.1,1.2c5.8-10.5,8-22.5,9.2-34.3
	c0.5-6,0.8-12,1-18.1c0.2-6.1,0.2-11-0.8-16.5c-1.8-10.1-7.7-18.8-12.8-27.5c-6-10.5-10.3-21.7-15.8-32.5l-1.5-3
	c26.7,21.8,44.6,54.1,54.9,86.9c4.2,13.6,7.3,27.5,9.3,41.6c0.7,4.8,9,4.8,9.7,0C958.4,312.3,955.2,294.8,951,277.5z M385.7,307.3
	c0,0.2-0.1,0.3-0.3,0.4L385.7,307.3z M369,296.9c-1.5,1.4-1.9,3.6-1,5.4c0.8,1.8,2.5,3,4.5,3.1c3.2,0.2,6.3,1,9.2,2.2
	c0.7,0.3,1.4,0.6,2,1l-0.6,0.3l-3.5,1.8c-2.5,1.5-4.8,3.2-7.1,5c-8.6,7.3-14.6,17.1-17.1,28.1c-0.7,2.7,0.9,5.4,3.5,6.2l4.1,1.5
	c-19.9,34.3-14.6,77.9-35.3,111.7c-5,8.6-12.2,15.7-20.8,20.7c-4.2,2.4-2.5,9.5,2.5,9.3h1.4c-13.1,14.7-26.3,29.4-39.5,43.9
	c-1.9,2-1.8,5.3,0.2,7.2c0.9,0.8,2.1,1.3,3.3,1.4c11.1,0.2,21.9-2.7,31.5-8.2c-1.4,9.7-1.6,19.7,1.8,28.9c1.2,3.4,3.2,6.3,4.7,9.5
	s0.8,6.5,0.8,9.6l0.3,23.8c0,4.9,6.8,6.9,9.3,2.6h0.4c0.2,0,0.9,0.3,1,0.3l0.6,0.4l0.6,0.5c0,0.1,0,0.1,0.1,0.1c-0.1,0,0,0,0.2,0.3
	s0.1,0.2,0.2,0.2c0,0.2,0,0.3,0.1,0.5l0.3,1.4c0.1,1.4,0,2.9-0.2,4.3c-0.4,2.9-1.1,5.7-1.3,8.7c-0.3,3.3,0,6.7,0.8,9.9
	c-5.5,1.7-10,5.9-11.9,11.4c-3,7.7-2,16.6-0.8,24.6c1.5,8.4,3.4,16.6,5.9,24.8l-0.7-0.6c-4.1-4.2-8.1-8.6-12-13
	c-2.5-2.8-7.5-1.3-8.3,2.2c-4,15.9-8.4,32-16.5,46.3c-3.7,6.7-8.5,12.7-14.3,17.8c-1.5,1.3-3,2.4-4.6,3.5c3.6-8.4,6.6-17.1,9-26
	c6.2-22.3,10.1-45.3,11.5-68.4c0.7-11.6,0.6-23.3-1.5-34.7c-0.9-4.6-6.9-4.3-9.2-1.2c-8.3,11.7-14.6,24.7-18.6,38.5
	c-4.6-30.9-0.5-62.8-3.8-93.9c-1-8.6-1.5-20.5-10.4-24.8c-2.3-1.1-5.7-0.9-6.9,1.8l-1.8,4c-3.3-6.2-4.7-13.4-5.7-20.3
	c-1.5-11.4-2.1-23-1.8-34.5c0.6-23.3,4.7-46.3,12.4-68.3c1.6-4.8-5-8.4-8.4-4.9c-24.7,26.5-42.9,58.3-53.4,92.9
	c-0.4,1.2-0.7,2.4-1.1,3.7c-4.9-58.6,13.2-117.4,36.7-170.6c7.8-17.8,16.3-35.2,24.9-52.5c2-4-2.5-10.1-6.8-6.8
	c-13.4,10.1-24.3,23.2-31.7,38.2c-1.3-6.5-1.6-13.1-1-19.6c0.8-11.5,3.2-22.9,5.4-34.2c2.2-11.3,5.2-25.1,8.2-37.5
	c2.4-9.9,4.8-19.9,8.5-29.4s8.7-17.1,16.6-22.5c0.6-0.5,1.3-0.9,2-1.3c5.4-3.4,0.5-12-5.1-8.7l-2.6,1.7
	c-40.1,26.3-70.2,65.5-85.2,111.1c-0.2,0.8-0.4,1.5-0.7,2.2c1.1-22.4,5.7-44.7,11.5-66.4c6.8-25.3,14.5-53.5,33.8-72.4
	c9.9-9.8,23.1-15.6,37.1-16.1c15.8-0.7,31.3,3.6,46,9.1c28.5,10.6,54.7,26.9,78.7,45.5c25.9,20.1,49.4,42.8,72.7,65.8
	c-1.6,2.2-1.2,5.3,1,7c0.1,0.1,0.3,0.2,0.5,0.3c4.9,2.7,8.8,7,11,12.1C410.7,273.7,387.4,281.7,369,296.9z M758.1,611
	C758.2,611.1,758.1,611.1,758.1,611L758.1,611z M760.5,709.6C760.3,709.7,760.3,709.6,760.5,709.6L760.5,709.6z M841.2,761.9
	C841.6,762.2,841.5,762.2,841.2,761.9L841.2,761.9z M679.6,299.2c0.1-0.1,0.2-0.2,0.2-0.4h0.1C679.8,299.1,679.7,299.2,679.6,299.2z
	 M767.5,712.3C767.7,713,767.5,712.9,767.5,712.3L767.5,712.3z M898.4,203c-1-1-2-1.9-3-2.9c-0.1-0.1-0.3-0.2-0.4-0.4
	c-1.2-1.1-2.3-2.1-3.5-3.2s-2.4-2.1-3.7-3.1c-4.3-3.5-8.9-6.8-13.6-9.7c-4.7-2.9-9.7-5.5-14.8-7.8c-0.9-0.4-1.8-0.6-2.6-0.5
	c0,0,0,0-0.1,0c-0.3,0-0.5,0.1-0.8,0.1c-0.1,0-0.2,0-0.2,0.1c-0.3,0.1-0.6,0.2-0.9,0.4c-0.3,0.2-0.6,0.4-0.9,0.6l-0.1,0.1
	c-2.3,2-2.9,5.8,0.6,7.9c18.4,10.9,23.9,34.9,33.5,52.6c0,0,0,0,0,0.1c4.4,8.4,10.6,16.3,13.4,25.3c0.4,1.2,0.6,2.4,0.9,3.6
	c1.6,8.4,0.6,18.3,0,27v0.1c-0.5,8.4-1.5,17.3-4.1,25.5c-1.9-3.2-4-6.3-6.2-9.4c-0.7-1-1.5-2-2.3-3c-3.1-3.9-6.3-7.7-9.5-11.4
	c-9.2-10.4-19.5-20-30.5-28.5c-3.6-2.7-7.2,0.8-7.4,4.4c0,0.8,0.1,1.7,0.5,2.4l0.2,0.4l0.3,0.5c-10.3-11.9-23.2-21.3-37.6-27.6
	c-15.7-6.9-32.8-10.2-50-9.5c-9.6,0.5-19.1,2.2-28.2,5.2c-1.4,0.5-2.6,1.5-3.2,2.8c-0.5,1-0.7,2.2-0.3,3.4c0.9,2.7,3.5,4.4,6.1,3.5
	c3.8-1.3,7.7-2.4,11.7-3.2l5.8-1h2l3.2-0.3c4-0.3,7.9-0.4,11.9-0.2l6.2,0.4l2.8,0.4h0.5l0.6,0.1l1,0.2c8,1.2,15.7,3.4,23.2,6.4
	l1.3,0.5l0.5,0.2l3,1.4c1.8,0.8,3.5,1.8,5.3,2.7l0.8,0.5c-0.3-0.1-0.6-0.2-0.9-0.3c-7.9-2.3-16-3.9-24.2-4.6
	c-5.8-0.6-11.7-0.7-17.6-0.4c-2.3,0-4.2,1.5-4.9,3.7c-0.1,0.3-0.1,0.6-0.1,0.9c-0.1,1.9,0.7,3.8,2.4,4.7c2,1,5.1,2.8,7.5,4.3
	l3.4,2.3l1.8,1.4l0.6,0.4l0.5,0.4c4.4,3.5,8.5,7.4,12.3,11.7c0.9,1,2.6,3,3.4,4.1l1.3,1.8c1.7,2.3,3.3,4.7,4.7,7.2
	c1.5,2.5,2.8,5,4.1,7.6c1.3,2.6,1.1,2.3,1.6,3.5c0.1,0.4,0.3,0.7,0.4,1.1l0.9,2.2c0.1,0.2,0.1,0.4,0.2,0.6l-0.1-0.1
	c-2.1-1.5-4.4-2.8-6.8-3.9c-2.4-1-5.5-0.7-6.9,1.8c-0.9,1.6-0.9,3.4-0.2,4.9c0.4,0.9,1.1,1.6,2,2c2,0.8,3.8,1.8,5.6,3l2.4,1.6
	l0.4,0.3l1.2,1c1.5,1.3,2.9,2.7,4.2,4.2l1,1.2c0.2,0.1,0.3,0.3,0.4,0.5l1.8,2.6c1.3,2.1,3.9,3,6.2,2.1c2.1-0.9,2.9-2.7,3-4.8
	c0-0.4,0-0.7-0.1-1.1c-3.6-24-15.8-45.8-34.5-61.3l-1.8-1.5l-0.4-0.3h1.4l1.7,0.2h1.2c2.5,0.3,5,0.7,7.4,1.2c5,1.1,9.9,2.4,14.8,4
	l7.1,2.6l1.3,0.5l1.2,0.6l3.6,1.6c5.1,2.5,10.1,5.4,14.9,8.5c2.3,1.4,5.3,0.7,6.7-1.7c0.4-0.6,0.6-1.3,0.7-1.9
	c14.5,27.3,32.2,52.7,46.1,80.2c3.8,7.3,7.1,14.8,10.1,22.4c3,7.9,5.2,16,7.6,24.1c4.6,15.4,9.7,30.6,12.9,46.4
	c1.8,8.6,2.7,17.3,2.8,26.1c-1.7-4.9-3.7-9.7-6-14.3c-6-11.8-14.3-22.1-23.1-32c-6.1-6.8-12.5-13.5-18.8-20.3
	c-2.8-3-8.8-0.5-8.7,3.4c0,0.5,0.1,1,0.3,1.5c7.5,18.6,12.4,38.1,14.5,58c0.6,5.9,1,12,1.1,18.2c0.1,13.3-1.5,26.7-7,38.5
	c-3.1,6.6-8.3,11.6-13.6,16.2c0,0,0,0-0.1,0.1l0.3-1.5c0.7-3.2,2.1-7.5,2.1-11.3c0-1.4-0.2-2.7-0.6-3.9c-0.7-2.7-3.5-4.2-6.2-3.5
	c-0.4,0.1-0.8,0.3-1.1,0.5c-2.8,1.4-4.9,4.5-6.6,7c-2.3,3.4-4.5,7.1-6.3,10.8c-1.8,3.5-3.4,7.3-4.5,11.1c-0.5,1.6-0.6,3.2-0.6,4.9
	c0,2.6,0.5,5.2,0.8,7.8c2.3,18.5,5.7,37.3,5.8,56c0,6.2-0.3,12.3-1.1,18.5c-0.8,6.3-2.2,12.6-4.3,18.6c-0.1-8.7-0.8-17.4-2.1-26
	c-2.3-14.2-6.7-31.5-19.6-39.6c-2.4-1.4-5.4-0.6-6.9,1.7c-5.1,9.7-6.9,20.7-8,31.4c-0.6,6.7-0.8,13.4-0.7,20.1
	c0.1,6.7,0.4,13.4,1,20c2.1,25.9,6.4,52.8,16.2,77l1.1,2.6c-0.1-0.1-0.2-0.3-0.3-0.4c-3.3-4.4-6-9.2-8.2-14.2
	c-6.5-14.5-9.8-30.4-13.1-45.8c-1.7-8-3.2-16-5.2-23.9c-0.4-1.7-1.7-2.9-3.3-3.4c-0.2-0.1-0.4-0.1-0.5-0.1h-0.1
	c-1.6-0.3-3.2,0.1-4.3,1.4c-2.4,2.8-5.2,7.5-7.5,11.3c-3.3,5.5-6.5,11.1-9.7,16.6c-0.2,0.4-0.5,0.9-0.7,1.3c0,0,0,0.1-0.1,0.1
	c0.3-1.5,0.5-3,0.7-4.6c0.9-6.7,1.7-13.6,1.7-20.4c0-4.2-0.4-8.4-1.2-12.6c-1.4-6.8-4.6-12.7-9.6-16.3c-0.1,0-0.1-0.1-0.2-0.1
	c1.2-1.2,2.2-2.7,2.7-4.3c0.5-1.4,0.7-2.8,0.7-4.1c0.1-4.2-1.5-8.3-3-12.3c-1.2-2.6-2.1-5.3-2.8-8.1c-0.1-0.1-0.1-0.4-0.1-0.6
	c0-0.1,0-0.2-0.1-0.3h8.1c2.5,0.4,4.9,1,7.3,1.8l0.7,0.2h0.1l1.1,0.6l0.4,0.3c2.5,4.1,9.1,2.1,9.2-2.6c0,0,0,0,0-0.1
	c0-8.1-3.2-16.4-5.7-24c-1.1-3.1-2.2-6.1-3-9.3v-0.1l-0.1-0.1c0.1-0.2,0.1-0.4,0.1-0.6c2.5-13.9,4.1-28.1,5.2-42.1
	c0.3-4,0.6-8.1,0.6-12.1c11.2,6.2,24.7,8.8,37.1,8.6c2.7-0.1,4.8-2.3,4.9-5c0-0.1,0-0.2,0-0.3c0-1.2-0.5-2.4-1.4-3.3
	c-19.4-21.2-39.6-41.7-59.3-62.7l-5.6-6.1l-0.3-0.3l3.8,0.2c4.7,0.4,9.4,1,14.1,1.2c3.2,0.1,5.1-3.1,4.7-5.9
	c-0.1-0.4-0.3-0.8-0.5-1.2c-0.3-0.9-1-1.8-2-2.4c-3.8-2.1-7.2-4.9-9.9-8.3c-0.1-0.1-0.7-0.8-0.6-0.8l-0.9-1.3
	c-0.6-0.9-1.1-1.8-1.6-2.7c-0.4-0.8-0.8-1.5-1.2-2.3s-0.7-1.7-0.9-2.6c-3.1-8.6-4.1-17.1-5.4-26.8c-0.8-5.6-1.7-11.5-3.3-17
	c-1.1-4-2.5-7.9-4.6-11.5c-5-8.7-10.9-13.9-17.6-19.7c-0.4-0.3-0.7-0.6-1.1-0.9c-5.9-5.1-10.2-8.8-14.7-13.7
	c-0.1-0.1-0.2-0.2-0.3-0.3l5,0.2c2.9,0.1,5.9,0.5,8.7,1.3l2.2,0.6l1.4,0.5l1.3,0.7l0.6,0.4h0.2c1.3,1.2,3.1,1.6,4.7,1.2
	c0.1,0,0.1,0,0.1,0c0.1,0,0.3-0.1,0.4-0.1c0.7-0.3,1.3-0.6,1.8-1.2c0.4-0.5,0.8-1,1-1.6c0-0.1,0.1-0.3,0.1-0.4v-0.1
	c0.1-0.4,0.1-0.8,0.2-1.1c0-0.4,0-0.9-0.1-1.3c-2.8-12.9-15.4-18.7-26.4-23.4l-11.4-4.8l-10-4.1l-6.4-2.6l-0.8-0.4l-1.5-0.6l-3-1.3
	l-3.2-1.6l-0.3-0.1l0.9-0.5l2.2-1.1h0.5l1.8-0.7c2-0.7,4.1-1.3,6.2-1.8c4.8-1.3,9.7-2.2,14.7-2.9l1.4-0.2h0.6l2.6-0.3l3.5-0.3
	c2,0,3.8-1.2,4.6-3.1c0.2-0.6,0.4-1.3,0.4-1.9c0-1.3-0.4-2.7-1.5-3.5c-4.8-4.2-10.5-7.1-16.7-8.7c-5.7-1.4-11.5-1.9-17.3-1.4
	c-10.1,0.6-20,2.9-30.1,4.5h-0.1c0.5-1.8,1.1-3.6,1.8-5.4c0.5-1.1,1-2.1,1.6-3.1l0.9-1.4c0-0.1,0.7-1,0.6-0.9
	c1.1-1.5,2.5-2.7,4.2-3.6c1.2-0.6,2-1.8,2.3-3.1c23.4-22.9,46.9-45.8,72.7-66s55-38.7,86.5-49.1c17.9-5.8,36.8-4.8,55.3-2.9
	c12.3,1.2,24.2,3.6,34.4,10.9c8.5,6.2,14.6,15.2,17.1,25.4c1.3,5.3,2,10.7,2,16.1c0,0.7,0,1.4,0,2.1c-0.2,7.5-1.9,14.8-2.6,22.2
	c-0.3,2.7-0.4,5.3-0.4,8c-0.1,10.9,1.8,21.6,4.2,32.3c-9.1-19.7-21.3-38.3-36.8-53.7C898.6,203.2,898.5,203.1,898.4,203z M776,443.8
	c0.8,0.6,1.7,1.1,2.6,1.6c0.2,0.1,0.4,0.2,0.5,0.4c-0.1-0.1-0.2-0.1-0.3-0.2C777.8,445.1,776.9,444.5,776,443.8z"/>
</svg>
