<?xml version="1.0" encoding="utf-8"?>
<!-- Generator: Adobe Illustrator 24.2.3, SVG Export Plug-In . SVG Version: 6.00 Build 0)  -->
<svg version="1.1" id="b57fb222-2123-443b-bcc3-c8279cdeec6d"
	 xmlns="http://www.w3.org/2000/svg" xmlns:xlink="http://www.w3.org/1999/xlink" x="0px" y="0px" viewBox="0 0 1152 864"
	 style="enable-background:new 0 0 1152 864;" xml:space="preserve">
<path d="M1053.1,602.8c-0.5-4.9-3.2-8.8-6.3-12.5s-5.1-6.1-7.8-9c-5.7-6.2-11.7-12-18-17.4l-1.1-1c0-0.5,0.1-1,0.2-1.5l0.3-2.5
	c0-0.4,0.1-0.9,0.2-1.3V557c0.6-3.8,1.1-7.7,1.7-11.5c1.2-8,2.4-16,3.7-24.1c2.6-16.1,5.5-32.2,7.2-48.5c2-19.1,2.2-38.4,0.6-57.5
	c-0.7-8.7-1.3-17.7-3.8-26.1c-2.3-7.5-5.7-14.7-10.1-21.2c-2.2-3.3-4.6-6.4-7.4-9.2c-2.8-2.6-5.7-5-8.9-7.1
	c-7.2-4.8-14.7-9.2-22.1-13.5c-15.4-8.9-31-17.1-46-26.7c-15-9.6-27.8-20.1-42.3-29.5c-7.3-4.9-14.9-9.1-22.9-12.7
	c-7.8-3.1-15.9-5.7-24.1-7.6c-3.5-0.8-7-1.6-10.4-2.7l-4.8-1.7l-1.1-0.4l-0.8-0.4l-2.6-1.2c-6.8-3.5-12.6-8.6-19.2-12.3
	c-14-7.8-29.9-13.1-45.9-14.2c-3.4-0.2-6.8-0.2-10.2,0.2c-1.6-1.5-3.1-3-4.8-4.4c-11.9-10.7-25.8-19.8-42.3-20.6
	c-6.7-0.3-13.4,1.1-19.3,4.2c-3.8-2.8-7.9-5.3-12.2-7.3c-5-2.6-10.3-4.4-15.8-5.6c-5.7-1-11.5-1.5-17.3-1.3
	c-9.4,0.2-18.8-0.2-28.2,0c-8.8,0.2-17.6,1.7-26,4.3l-8.8,3l-6.8,1.2h-0.8l-1.7,0.2l-3.6,0.3c-4.5,0.3-9,0.4-13.5,0.2l-6.9-0.5
	l-1.7-0.2h-0.8l-3.5-0.6c-4.4-0.8-8.8-1.8-13.1-3c-9-2.4-18-4.9-27.4-4.9c-7.5,0-15,1.3-22,4.1c-6.6,2.6-12.8,6-18.5,10.1
	c-12.9-6.8-28.6-4.5-41.3,1.7c-9.5,4.7-17.5,11.8-25.2,19.1c-6.6-0.6-13.3-0.2-19.8,1c-7,1.2-13.8,3.1-20.4,5.7
	c-6.5,2.4-12.9,5.5-18.9,9c-6.3,4-12.3,8.6-17.9,13.7c-6.2,5.3-12.2,11-18.3,16.4c-6.1,5.4-11.9,10.4-18,14.8
	c-13.4,9.5-28.3,16.7-43.1,23.7c-14.8,7-29.9,14.5-44.4,22.6c-14.5,8.1-29,17.2-42.9,26.7c-13.9,9.5-26.3,18.4-34.1,32.3
	c-7.8,13.9-9,29.5-6.9,44.8c2.1,15.3,7.4,29.8,13.1,44c6.6,16.5,13.4,33,20.1,49.4l5,12.3c-7.4,6.5-15,12.8-22.6,19.2
	c-6.1,5.2-12.2,10.5-17.9,16.2c-2.8,2.8-5.5,5.8-8.1,8.9s-5.6,6.8-6.5,11c-1.8,8.8,4.5,15,12.2,17.8c7.7,2.8,16,2.6,23.7,1.2
	c16-2.8,30.4-12.1,43.6-21.1l42.6-29.2c23.5-16.2,47-33.1,66.4-54.1c9.7-10.3,18.1-21.8,24.8-34.3c5.8-11.1,10.1-23,12.7-35.3
	c3,15,8.4,29.3,16,42.6c3.4,6.1,7.2,12.1,10.5,18.3c0.8,1.6,1.7,3.2,2.4,4.8c0.4,0.7,0.8,1.5,1.1,2.3c0.2,0.3,0.3,0.7,0.4,1l0.3,0.5
	c1.3,3.3,2.4,6.7,3.2,10.2c0.7,2.6,3.5,4.2,6.1,3.5c2.6-0.8,4.2-3.5,3.5-6.2c-2.8-12.5-9.6-23.5-16-34.4c-3.1-5.2-6-10.5-8.6-15.9
	l-1.5-3.5c-0.1-0.2-0.2-0.4-0.3-0.6c-0.1-0.3-0.2-0.6-0.4-0.9c-0.3-0.8-0.6-1.5-0.8-2.3c-1.1-2.7-2-5.5-2.9-8.3
	c-1.7-5.6-3.1-11.2-4-17c-0.3-1.5-0.5-3-0.7-4.4c-0.2-1.4-0.1-0.8-0.2-1.2c-0.1-0.8-0.2-1.6-0.2-2.4c-0.3-2.8-0.6-5.7-0.7-8.5
	c-0.2-6-0.1-12,0.4-18c0.1-1.4,0.2-2.7,0.4-4.1c0.1-0.7,0.2-1.3,0.2-2v-0.2c0-0.4,0.1-0.8,0.1-1.2c0.5-2.9,1-5.9,1.6-8.8
	c1.4-6.4,3.2-12.7,5.5-18.8l1.8-4.5c0-0.1,0.1-0.4,0.2-0.6c0.2-0.3,0.3-0.6,0.4-0.9l1-2.2c1.4-3.1,3-6.1,4.6-9.1
	c1.6-3,0.6-5.6-1.8-6.8c-2.4-1.4-5.4-0.6-6.8,1.8c-3.8,6.8-7,14-9.6,21.4c0.3-9.6,1-19.2,2.3-28.8c2.1-14.4,5.7-28.8,12.4-41.7
	c6.7-12.9,17.4-23.7,28.9-33.3c5.9-4.9,12.1-9.7,17.9-14.7s11.6-10.6,17.2-15.9c10.4-9.7,22.5-19.4,37-20.7c4.1-0.5,8.2-0.1,12.1,1
	c-3.5,3-6.9,6.2-10.1,9.4c-5.5,5.5-10.6,11.2-15.7,17l-18.9,21.4l-18.9,21.5c-2.5,2.9-5.2,5.6-8.2,8.1l-0.4,0.3l-1.1,0.8l-2.5,1.5
	l-1.2,0.6H370l-2.7,0.8h-2.9c-0.3,0-1.8-0.2-0.5,0c-2.6-0.4-5.5,0.7-6.2,3.5s0.7,5.7,3.5,6.2c4.5,0.7,9.1,0,13.3-1.9
	c3.7-1.7,7.1-4.1,10-6.9c2.9-2.8,5.7-5.7,8.3-8.8l9.6-10.8c6.3-7.3,12.7-14.5,19.1-21.7c6.4-7.2,11.1-12.8,16.8-18.9
	c5.2-5.7,10.8-11,16.7-16l2.1-1.7l1-0.8l0.7-0.5l4.5-3.3c3.1-2,6.3-3.9,9.6-5.6l2.4-1.1l1-0.4l0.3-0.2h0.2c1.7-0.6,3.5-1.3,5.3-1.8
	l5.1-1.3l2.5-0.4h2.1c1.8-0.2,3.5-0.3,5.3-0.2h3.2l1.6,0.2h1.5c4.3,0.7,8.6,1.7,12.8,2.8c9.2,2.4,18.2,4.7,27.7,5.6
	c9.5,1,19,0.7,28.4-0.7c1.9-0.2,3.8-0.6,5.6-0.9l1.2-0.2l1-0.4c4.9-1.7,9.9-3.4,14.9-4.6l6.1-1.3l1.4-0.2c-1.8,0.3-0.2,0.1,0.2,0
	l3-0.3c8.8-0.6,17.8-0.2,26.6-0.1c5.1,0,10.3-0.3,15.4-0.1l3.4,0.4h0.1l1.1,0.2l2,0.4c2.5,0.5,5,1.2,7.4,2l1.7,0.7l1.1,0.4h0.1
	l3.5,1.6c2.4,1.2,4.7,2.5,6.9,4c2.3,1.4,4.6,2.9,6.7,4.6l1.2,0.8l1.2,1l3.4,2.8c8.3,7.1,15.8,15.2,23.1,23.4
	c3.5,4,7.5,7.4,11.9,10.3c4.3,2.7,8.7,5.1,13.2,7.2c4.5,2.3,9.1,4.5,13.5,7.1l3,2l1.5,1c0.2,0.1,0.4,0.2,0.5,0.4l0.4,0.3
	c1.9,1.5,3.7,3.2,5.3,5c3.8,4.1,8.2,7.7,12.3,11.6c5.9,5.3,11.4,11,16.6,17l1.8,2.1l0.3,0.3l0.9,1.3c1,1.4,2,2.9,2.9,4.4
	s0.7,1.3,1,2l0.4,0.8c0.1,0.1,0.1,0.2,0.2,0.4l0.6,1.9c0,0.3,0.1,0.6,0.2,0.9v1.4c-0.1,0.2-0.1,0.5-0.2,0.7
	c-0.7,2.7,0.9,5.4,3.5,6.2c2.7,0.7,5.4-0.9,6.2-3.5c2-6.8-1.8-14-5.6-19.4c-4.8-6.9-10.7-13-16.7-18.8s-10-9.2-14.9-14
	c-2.4-2.3-4.6-4.8-7.1-6.9c-4.3-3.4-8.9-6.4-13.7-8.9c-4.6-2.4-9.2-4.5-13.7-6.9l-6.8-3.8l-3.1-2.1l-0.5-0.5h-0.2
	c-0.5-0.5-1-1-1.6-1.4c-4-3.4-7.3-7.7-10.9-11.6c-3.6-3.9-7.8-8.3-12-12.2l-5.9-5.4c11-3.4,23.6,0.6,33.4,7
	c6.5,4.2,12.2,9.5,17.9,14.8c5.7,5.3,11.7,11.2,17.9,16.3c12.2,10.1,25.3,19.5,35.2,32s14.7,25.8,18.1,40.1
	c3.4,14.3,4.5,29,5.1,43.7c-2.6-7.3-5.8-14.3-9.5-21.1c-1.4-2.4-4.5-3.2-6.9-1.8c-2.3,1.4-3.1,4.4-1.8,6.8c1.5,2.6,2.8,5.2,4,7.8
	s1.3,2.7,1.9,4.1v0.2l0.4,1c0.3,0.7,0.6,1.4,0.8,2.1c2.2,5.7,4.1,11.6,5.7,17.5c1.6,6.1,2.9,12.3,3.9,18.5c0.3,1.4,0.5,2.9,0.7,4.3
	v0.5c0.1,0.3,0.1,0.7,0.2,1l0.3,2.8c0.4,3.1,0.7,6.2,0.9,9.4c0.9,12.7,0.8,25.4-0.3,38.1c-0.3,3.1-0.6,6.2-1,9.2
	c0,0.1,0,0.2-0.1,0.3c0,0.4-0.1,0.7-0.1,1.1l-0.3,1.9c-0.2,1.6-0.5,3.2-0.8,4.9c-1,6.1-2.4,12.2-4,18.2
	c-3.9,14.7-8.8,29.1-14.7,43.1c-1,2.4,1.1,5.6,3.5,6.1s5.1-0.9,6.1-3.5c10.3-24.7,18.1-50.3,21-77.1c0-0.5,0.1-1.1,0.1-1.7
	c1.1,3.2,2.4,6.4,3.7,9.6c5.8,13.3,14,25.5,23.3,36.6c19.1,22.7,43.3,40.5,67.5,57.4c14.4,10,28.9,19.8,43.4,29.7
	s28.2,19.5,44.8,23.3c8.1,1.9,16.7,2.2,24.8-0.2S1053.9,611.4,1053.1,602.8z M379,239.4c-11.3,10.1-23.8,18.8-34.7,29.4
	c-10.9,10.7-19.3,23.7-24.6,38c-10.9,29-10.1,60.5-10.9,91c-0.5,16.4-1.4,32.9-5.1,48.8c-3.4,14-9,27.4-16.8,39.5
	c-14.9,23.2-36.4,41.8-58.4,58.1c-11.8,8.8-23.9,17-36.1,25.3l-22.1,15.2c-6.8,4.7-13.6,9.4-20.7,13.7
	c-12.4,7.6-27.5,14.8-42.5,11.7c-2.9-0.6-5.8-1.5-7.6-3l-0.7-0.8h-0.2c0-0.1,0-0.1-0.1-0.1l-0.5-0.9c0-0.1,0-0.1-0.1-0.2
	c-0.3-1.3,0-2.6,0.7-3.7c1.9-3.2,4.2-6.1,6.8-8.6c2.7-3,5.5-5.8,8.5-8.6c11.4-10.9,24-20.5,35.9-30.9c11.9-10.4,21.6-20.2,31.7-31.1
	c20.2-21.8,38.2-45.5,53.9-70.7c15.6-25.3,28.8-52,39.4-79.8c2.5-6.8,4.9-13.6,7.2-20.5c0.7-2.6-0.9-5.4-3.5-6.1
	c-2.6-0.7-5.4,0.8-6.2,3.4c-9.1,28.2-21.1,55.4-35.6,81.2c-14.5,25.7-31.5,49.8-50.7,72.2c-9.7,11.4-19.9,22.2-30.7,32.5l-4.3,4
	c-6-14.9-12.1-29.8-18.2-44.7c-5.9-14.5-12-29-15.7-44.2c-1-3.7-1.7-7.5-2.3-11.3v-0.3c-0.1-0.5-0.1-1-0.2-1.4
	c-0.1-0.9-0.2-1.7-0.2-2.6c-0.2-1.8-0.3-3.7-0.4-5.6c-0.1-1.9,0-3.5,0.1-5.2c0.1-1.7,0.1-1.9,0.2-2.8c0.1-0.9,0.1-0.6,0.1-1
	c0-0.4,0.2-1.2,0.2-1.3c0.5-3.4,1.2-6.7,2.3-9.9c2.3-6.4,5.8-12.4,10.4-17.4c2.5-2.8,5.3-5.4,8.2-7.8c2.6-2.2,5.2-4.3,8-6.3
	c26.9-19.2,55.4-35.9,85.3-50c14.4-6.9,29.1-13.5,42.8-21.9c13.7-8.4,26.1-19.2,38.1-30.2c5.9-5.4,11.9-10.8,18.2-15.7l3.1-2.3
	l4.1-2.7c2.8-1.7,5.7-3.2,8.6-4.7l4.3-2l0.9-0.3l0.6-0.3l2.7-1.1c3.3-1.2,6.7-2.4,10.1-3.3c3.4-0.9,6.5-1.7,9.8-2.3l2.5-0.4h1.6
	l3.1-0.3L379,239.4z M1043.1,604.7v0.3c-0.1,0-0.1,0.1-0.2,0.2c-0.4,1-1.2,1.9-2.2,2.4c-2.7,1.6-5.8,2.6-8.9,2.9
	c-16,2.2-31.5-6.3-44.5-14.6c-15-9.6-29.6-20.1-44.3-30.1c-24.1-16.5-48.3-33.2-68.6-54.4c-9.9-10-18.4-21.4-25.3-33.7
	c-7.4-13.8-12.2-28.9-14.3-44.4c-4.9-32.7-1.2-66-6.4-98.7c-2.5-15.2-6.8-30.2-14.5-43.7s-19.3-24.6-31.5-34.6
	c-6.2-5.1-12.4-10-18.4-15.3c-0.8-0.6-1.5-1.4-2.3-2.1l2.6,0.3h1.8l5.7,1c3.9,0.8,7.7,1.9,11.5,3.1l5.2,1.8l2.6,1.1l1,0.3l1.2,0.6
	c6.7,2.9,13.1,6.5,19,10.9c6.3,4.7,13.4,8.2,20.9,10.5c7.1,2.3,14.5,3.6,21.6,5.8c7.9,2.3,15.4,5.5,22.5,9.6
	c15.2,8.5,28.8,19.3,43,29.3s29,18.2,43.9,26.6c7.7,4.3,15.3,8.6,22.9,13.2c3.5,2.1,7,4.4,10.5,6.7l4.7,3.2h0.1l0.2,0.2l0.9,0.8
	l2,1.9c1.2,1.2,2.3,2.5,3.4,3.8c0,0.1,0.1,0.2,0.2,0.2c0,0.1,0.1,0.2,0.1,0.3l0.6,0.8c0.7,0.9,1.4,1.9,2,2.9c2,3.1,3.8,6.3,5.3,9.6
	l0.7,1.4c0.1,0.3,0.2,0.6,0.3,0.9c0.3,0.6,0.6,1.3,0.8,2c0.7,1.8,1.3,3.6,1.8,5.4c0.4,1.6,0.8,3.1,1.1,4.7c0.1,0.4,0.2,0.8,0.2,1.2
	c0,0.1,0,0.1,0.1,0.2v0.3c0.2,1.4,0.4,2.8,0.5,4.2c2.3,18.9,2.9,38,1.6,57c-1.1,16.3-3.7,32.2-6.3,48.3c-2.6,16.1-5,31-7.1,46.6
	c-9.4-6.9-19.2-13.2-28.7-19.9c-10.2-7.2-20-15-29.3-23.3c-3.9-3.6-7.6-7.3-11.2-11.2c-1.6-1.8-3.3-3.6-4.8-5.5l-2-2.4l-0.6-0.8
	l-1.2-1.6c-2.6-3.6-5-7.4-7.1-11.3c-1.1-1.9-2.1-3.9-3.1-5.9l-1.2-2.7l-0.3-0.7l-0.6-1.6c-3.1-8.4-5.4-17.2-6.7-26.1l-0.3-1.8v-0.7
	c-0.2-1.3-0.4-2.5-0.5-3.8s-0.5-5.2-0.7-7.8c-0.4-5.4-0.6-10.9-0.7-16.3c-0.1-5.4-0.1-11.7-0.1-17.6c0-5.9-9.9-6.4-10,0
	c-0.2,21.2,0.1,42.9,5.2,63.6c4.6,17.9,13.4,34.4,25.8,48.1c16.5,18.6,37.3,33.4,57.8,47.3c6.4,4.4,12.9,8.6,19,13.5
	c0.6,2.2,2.5,3.9,4.8,4c4.8,4.1,9.4,8.4,13.7,13c2.9,2.9,5.7,6,8.4,9.1s5.2,5.5,6.4,8.8c0.3,0.6,0.4,1.2,0.4,1.9
	C1043.2,603.9,1043.1,604.6,1043.1,604.7z"/>
</svg>
