<?xml version="1.0" encoding="utf-8"?>
<!-- Generator: Adobe Illustrator 24.2.3, SVG Export Plug-In . SVG Version: 6.00 Build 0)  -->
<svg version="1.1" id="a2ffe2e4-e53c-4975-897b-cf7a6fbf2121"
	 xmlns="http://www.w3.org/2000/svg" xmlns:xlink="http://www.w3.org/1999/xlink" x="0px" y="0px" viewBox="0 0 1152 864"
	 style="enable-background:new 0 0 1152 864;" xml:space="preserve">
<path d="M441.9,446.4c-24.6-11.4-52.2-14.8-78.8-9.7c-7.2,1.3-14.2,3.3-21,5.9c-2.4,0.9-4,2.9-3.6,5.5c0.3,2.5,2.4,4.3,4.9,4.4
	c3.4,0.1,6.8,0.4,10.2,0.7c-5.5,6.5-9.4,14.3-11.3,22.6c-0.6,2.7,1.1,5.5,3.9,6.1c1.2,0.3,2.5,0.1,3.5-0.5l2.8-1.3l1.1-0.5l1.6-0.5
	l4.8-1.3c-3.1,2.6-6.1,5.4-9,8.4c-1.6,1.6-1.9,4.1-0.8,6.1c1.2,1.9,3.5,2.8,5.7,2.3l1.8-0.3l0.9-0.2h1.5l1.8-0.2
	c2.2-0.1,4.4-0.2,6.6-0.1l3.2,0.3h0.8c-15.6,17.9-25.7,40-29.1,63.5c-1,7.2-1.1,16.2,6.2,20.3c2.2,1.2,5.7,0.7,6.8-1.8
	c1-2.2,2.3-4.4,3.7-6.4l0.3-0.4l0.2-0.2l1.2-1.5c0.8-0.9,1.7-1.8,2.7-2.6c0.4-0.4,0.8-0.8,1.3-1.1c0.1-0.2,0.3-0.3,0.5-0.5h0.2
	c-2.3,12-1.9,24.4,1.2,36.2c0.7,2.6,3.3,4.2,6,3.5h0.1c2.6-0.7,4.2-3.5,3.5-6.1c-0.5-1.8-0.9-3.6-1.2-5.4c-0.2-0.9-0.3-1.8-0.4-2.7
	c-0.1-0.1-0.1-0.1-0.1-0.2v-0.2c-0.1-0.5-0.1-1-0.2-1.4c-0.4-3.7-0.5-7.5-0.3-11.2c0-1.8,0.2-3.6,0.4-5.4c0-0.4,0.1-0.9,0.1-1.3
	s0.1-0.4,0.1-0.6c0.1-0.9,0.3-1.8,0.5-2.7c0.7-3.7,1.6-7.3,2.8-10.8c1.3-3.5-2.6-7.3-6.1-6.1c-7.9,2.6-14.9,7.4-20.1,14
	c0-0.6,0.1-1.2,0.1-1.7s0.1-0.7,0.1-1s0.1-0.3,0.1-0.4c0.9-6.1,2.2-12.1,4-18c0.9-2.9,1.9-5.7,3-8.5l0.9-2l0.5-1.2l2.1-4.4
	c2.7-5.5,5.8-10.7,9.3-15.7c0.5-0.6,1-1.3,1.4-2l0.8-1c0.2-0.3,0.4-0.5,0.6-0.8c0.9-1.2,1.9-2.4,2.9-3.5c2.3-2.7,4.7-5.3,7.2-7.8
	c1.9-2,1.9-5.1-0.1-7.1c-0.6-0.6-1.3-1-2.1-1.2c-4.9-1.4-10.1-2.2-15.2-2.4l0.5-0.4l0.7-0.5h0.1l2.5-1.9c1.8-1.3,3.7-2.5,5.6-3.7
	c1.7-1.1,2.6-3,2.4-5c-0.3-2-1.7-3.6-3.6-4.2c-7.1-1.3-14.3-1.1-21.3,0.7c0.1-0.3,0.2-0.5,0.4-0.7c0.6-1.2,1.3-2.4,2-3.6l2.2-3.2
	h0.1l0.6-0.8l1.3-1.5c1.9-2,3.9-3.9,6-5.6c2.2-1.7,1.8-5.4-0.1-7.3l1.9-0.3l1.1-0.2h0.8c3.1-0.4,6.2-0.6,9.4-0.8
	c6.3-0.3,12.6-0.2,18.8,0.4l2.2,0.3h1.4l4.9,0.8c3.1,0.6,6.1,1.3,9.2,2.1c3.1,0.8,6.9,1.9,10.2,3.1l4.8,1.9l0.8,0.3l0.8,0.3l2.7,1.3
	c2.4,1.1,5.5,0.7,6.9-1.8C445.1,451.5,444.4,447.6,441.9,446.4z"/>
<path d="M423.5,485.7c-8,8.2-13,18.9-14.2,30.3c-0.3,1.9,1.4,3.8,3,4.5c1.5,0.6,3.2,0.6,4.6-0.2c0.1,0.1,0.1,0.1,0.1,0.2l0.6,2.3
	v0.5l0.3,2.3c0.3,2,0.9,4,2,5.7c1.6,2.2,4.8,2.7,7,1.1c1.9-1.4,2.6-3.9,1.6-6.1l-0.3-0.5c-0.2-0.5-0.3-1-0.4-1.5
	c-0.1-0.3-0.1-0.6-0.2-0.8v-0.2l-0.3-2.5c-0.3-2.6-1.3-5-3-7c-1.1-1.3-2.4-2.4-4-3l0.3-0.8c0.3-1.2,0.7-2.3,1.1-3.5l0.3-0.7
	c0.1-0.1,0.1-0.2,0.1-0.3c0.3-0.5,0.5-1,0.7-1.5c1.1-2.1,2.3-4.2,3.6-6.2l1-1.4l0.6-0.6c0.8-1,1.6-2,2.5-2.9
	c1.8-2.1,1.6-5.2-0.5-7.1C428.1,484.2,425.4,484.2,423.5,485.7z"/>
<path d="M363.2,408l1.8,1.3c-0.1,0,0.5,0.5,0.8,0.6l1.3,1.1c2.9,2.5,5.6,5.1,8.1,7.9l2,2.4l0.5,0.6c0.4,0.5,0.7,1,1,1.6
	c1.3,1.7,2.5,3.5,3.6,5.4c1.4,2.2,4.5,3.3,6.8,1.8c2.4-1.4,3.2-4.4,1.8-6.8c-8.6-14.1-21.2-25.3-36.3-32c-4.4-2-8.9-3.5-13.5-4.7
	c-2.4-0.6-4.9,0.6-5.9,2.9c-0.9,2.1-0.3,5.2,2,6.2c1.4,0.6,2.7,1.3,4,2.2l0.9,0.6h0.2l1.5,1.3c0.5,0.6,1.1,1.1,1.5,1.7l0.6,0.7h0.1
	c0,0.1,0,0.1,0.1,0.2c0.1,0.1,1.6,2.5,2.3,3.8c0,0.1,0.1,0.3,0.2,0.4l0.3,0.9l0.6,1.8c0.5,1.5,1.1,3,1.8,4.4
	c0.9,1.7,2.1,3.1,3.7,4.1c1.9,1.1,4.1,1.4,6.2,1c2.6-0.4,4.2-3.8,3.5-6.2c-0.6-2-2.4-3.4-4.5-3.5l-0.6-1.2l-0.3-0.8
	c-0.3-1-0.7-1.9-1-2.8h0.1C360.1,405.9,361.7,406.9,363.2,408z"/>
<path d="M416,280.9c0,0.1,0,0.1,0.1,0.2C416,280.6,416,280.5,416,280.9z"/>
<path d="M464.5,334.5c-6.1-17-14.4-33.2-24.5-48.1c-5.6-8.3-11.7-17-21.6-20.6c-1.9-0.5-4,0.2-5.2,1.8c-1.2,1.5-1.6,4-0.4,5.6
	c0.8,1.1,1.5,2.2,2.1,3.4v0.3c0,0.1,0.2,0.5,0.2,0.6c0.2,0.6,0.4,1.3,0.6,1.9c0.2,0.6,0.3,1.1,0.4,1.7l-5.2-0.7
	c-1.7-0.4-3.5,0-4.8,1.3c-1.3,1.2-1.8,3.1-1.3,4.8c0.2,1,0.5,2,0.8,2.9c-4.7,0-9.2,1.7-12.7,4.8c-5.8,5.7-7,14.6-2.9,21.6
	c1.4,2.2,4.5,3.3,6.8,1.8s3.3-4.5,1.8-6.9c-0.2-0.3-0.4-0.6-0.5-0.9c-0.1-0.2-0.3-1-0.2-0.3s-0.1-0.4-0.1-0.5
	c-0.1-0.3-0.2-0.6-0.2-0.9h-0.1v-1.9c0-0.1,0-0.2,0.1-0.3l0.3-1.4c0-0.1,0-0.3,0.1-0.4c0.1-0.2,0.2-0.3,0.2-0.5l0.9-1.5
	c0.1,0,0.1,0,0.1-0.1c0.3-0.2,0.5-0.4,0.7-0.7l0.4-0.3l0.3-0.2l0.9-0.6l0.5-0.2c0.4-0.1,0.2-0.1-0.3,0.2c0.5-0.3,1.1-0.5,1.7-0.6
	l1-0.2h2.9c0.7,0,1.3,0.2,1.9,0.5H409l0.4,0.2l1,0.5c3.7,2.3,8.5-1.4,7.3-5.6c-0.3-1.3-0.7-2.6-1.1-4l3,0.5c1.3,0.3,2.7,0,3.9-0.6
	c1.1-0.6,1.9-1.7,2.3-2.9c0.2-1.3,0.3-2.6,0.4-3.9l0.2,0.3h0.1l0.4,0.6l3.6,5.1c4.9,7,9.3,14.4,13.3,22c2,3.9,3.9,7.8,5.7,11.7
	l1.2,2.8l0.6,1.2c0.1,0.3,0.2,0.7,0.4,1c0.8,2,1.6,4,2.3,6c3.1,8,5.6,16.2,7.7,24.6c1.1,4.6,2.1,9.2,2.9,13.9
	c0.5,2.4,0.8,4.9,1.2,7.3c0,0.2,0,0.4,0.1,0.6c0.1,0.6,0.1,1.1,0.2,1.7c0.1,0.6,0.3,2.6,0.4,3.9c0.1,1.3,2.2,5.1,5,5
	c2.8-0.1,5.3-2.2,5-5C474.7,368.9,470.7,351.4,464.5,334.5z"/>
<path d="M721.8,278.6c-0.9-1.4-2.7-2.7-4.4-2.5l-4.7,0.6c0.6-1.2,1.3-2.3,2.1-3.4l1.8-2.6l0.8-1.1l0.7-0.8c1.4-1.8,2.8-3.4,4.4-5
	c1.7-1.8,1.9-4.6,0.4-6.6c-1.6-1.9-4.3-2.5-6.5-1.3c-11.8,6.9-22.6,15.3-32.3,25c-9.6,9.7-18,20.5-24.8,32.3
	c-4,6.7-7.4,13.8-10.3,21.1c-1,2.4,1.1,5.6,3.5,6.1s5.1-0.8,6.2-3.5c0.2-0.7,0.5-1.4,0.8-2.1l0.2-0.3c0.1-0.4,0.3-0.7,0.4-1.1
	c0.1-0.4,1.4-3.1,2.2-4.6s2.9-5.9,4.5-8.7c3.3-5.7,6.9-11.2,10.8-16.5l0.7-0.9l0.4-0.5l1.2-1.6l3.3-3.9c2-2.4,4.1-4.7,6.3-7
	s6.8-6.7,10.4-9.8c-0.2,0.5-0.4,1-0.7,1.5c-1.1,2.8,1.9,6.7,4.9,6.3l5.4-0.6c-4.7,10.8-9.3,21.5-13.9,32.3
	c-5.4,12.8-10.5,26.1-11.1,40.1c-0.4,7.9,1,15.7,4.2,22.9c1.1,2.4,4.8,3.2,6.9,1.8s2.9-4.3,1.8-6.8l-0.2-0.4
	c-0.2-0.4-0.3-0.8-0.5-1.3l-0.6-2c-0.5-1.5-0.9-3-1.1-4.5l-0.3-1.3c0-0.7-0.1-1.5-0.2-2.2c-0.1-1.7-0.1-3.3-0.1-4.9
	c0-1.4,0.1-2.9,0.3-4.3c0-0.5,0.1-0.9,0.1-1.3V355c0.1-0.8,0.3-1.7,0.4-2.6c0.6-3.1,1.4-6.2,2.2-9.3c1.9-6.2,4.2-12.4,6.7-18.4
	l0.3-0.5l0.3-0.9l1-2.2l2.1-5c1.5-3.4,2.9-6.7,4.3-10.1c3.2-7.4,6.4-14.9,9.7-22.4C722.6,282,722.6,280.2,721.8,278.6z"/>
<path d="M866.3,450.1c-0.8-4.8-5.1-8.1-9.1-10.1c-1.1-0.6-2.2-1.1-3.4-1.5l-2.5-1.1h-0.4c3.7-4,7.6-7.8,11.7-11.4
	c1.6-1.6,1.9-4.1,0.8-6.1c-1.4-2-3.1-3.9-4.9-5.5c1.4-2.7,2-6,2.6-8.9c0.9-4.7,1.6-9.4,1.8-14.2c0.1-1.7-0.1-3.4-0.4-5.1
	c-0.5-1.2-1.1-2.4-1.8-3.5l-1.1-2.3l-0.4-0.9c0-0.1-0.4-1-0.4-1.1c-2.7-6.8-4.9-13.7-9.2-19.6c-2.3-3.2-5-5.9-8.8-7.3
	c-1.7-0.5-3.4-0.7-5.1-0.6H835l1-1.5c2.4-3.7,3.7-8.3,2.7-12.6c-1-4.1-4.1-7.4-8.2-8.6c-2-0.6-4.2-0.5-6.2,0.3c-1,0.3-2,0.8-3,1.3
	h-0.1c0,0.1,0,0.1-0.1,0.1h-0.2l-0.3-0.3l-0.2-0.3l-0.2-0.3c0-0.2-0.1-0.5-0.1-0.6c-0.1-0.1-0.1-0.2-0.1-0.3v-0.6
	c0-0.2,0-0.4,0.1-0.5c0-0.4,0.1-0.7,0.3-1c0-0.2,0.1-0.4,0.1-0.6c0.8-1.5,1.6-2.9,2.6-4.3c1.2-1.9,2.5-3.7,3-5.9
	c0.8-2.8,0-5.7-2.1-7.7c-2.7-2.5-6.4-2.1-9.7-1.3c0.3-1.1,0.5-2.2,0.7-3.3l1.2-6.7c0.7-2.6-0.8-5.3-3.4-6c-0.4-0.1-0.7-0.2-1.1-0.2
	c0.2-0.7,0.4-1.5,0.7-2.2c1-3.5,1.4-7.4-0.4-10.7c-1.7-2.8-4.6-4.5-7.8-4.6c-1.3-0.1-2.5,0.2-3.7,0.7c-0.1-1.2-0.3-2.5-0.4-3.7
	c-1.7-16.2-3.6-32.4-7.5-48.1s-9.4-30.8-18.5-43.9c-4.4-6.3-10.4-12.7-18.3-14.3c-7.9-1.6-17.3,2.8-24.9,7
	c-13.4,7.5-25.8,16.7-36.8,27.5c-11.2,10.9-21.3,22.9-30,35.8l-2.8,4.2c-1.1-0.1-2.1,0.2-3,0.8h-0.1c-1.6-0.4-3.3-0.6-5-0.5
	c-2.6,0.2-5.1,1.3-6.9,3.3c-1.6,1.7-2.8,3.7-3.5,5.9c-0.5,1.5-0.9,3.1-1.5,4.6l-0.3,0.7c-0.3,0.4-1.2,1.6-0.2,0.3
	c-0.5,0.6-0.9,1.3-1.2,2.1l-1.9,1.6l-2.2,1.9l-0.8,0.6c0,0-0.6,0.4-0.8,0.5l-0.4,0.3h-0.3l-2.9-0.2c-2-0.2-4.1,0-6.1,0.4
	c-7.8,1.7-13.9,7.4-18.2,13.8c-0.7,1-1.3,2-1.9,3c-0.4-0.8-0.9-1.5-1.3-2.2c-1.5-2.3-3.6-3.9-6.4-3.9s-4.9,2.3-6.3,4.6
	c-1.8,3.2-3.2,6.5-4.2,10c0-0.2,0-0.3-0.1-0.5c0-0.1,0-0.3,0-0.5c-0.5-2.5-2.1-4.8-5-4.7c-2.8,0-5,2.2-5,5
	c0.3,10.4,0.9,20.8,5.2,30.4c1.8,4.2,4.3,7.9,7.6,11.1c3.1,2.9,6.7,5.2,10.6,6.7c-5.6,0-11.2,0.3-16.8,0.7
	c-11.7,0.8-23.3,2.4-34.8,4.6c-4.2,0.8-8.4,1.7-12.6,2.7c-0.1-0.6-0.2-1.1-0.5-1.6l-0.3-0.5l-0.6-6.3c-1.3-18.6-1.4-37.3-3.8-55.9
	c-0.8-5.7-1.6-11.4-2.8-17c-1.2-5.6-3.2-11.2-7.6-14.9c-1.9-2-5-2-6.9-0.1c-0.6,0.6-1,1.3-1.3,2l-0.5-0.3l-0.5-0.4
	c-2.9-2.5-5.8-5.3-8.7-7.9c-1.7-1.6-4.3-1.8-6.3-0.5H495c-1.5-0.4-3-0.8-4.6-1c-3.7-0.1-7.1,1.8-8.8,5.1c-0.5,1.1-0.9,2.3-1.2,3.5
	c-6.5-10-14-19.2-22.4-27.6c-5.6-5.5-11.5-10.6-17.8-15.3c-6.2-4.9-12.9-9.1-19.9-12.7c-14-7.2-30.7-11-45.8-4.7
	c-7.4,2.9-13.7,8.2-17.9,15c-4.2,7.1-6.5,15.4-9,23.2c-5.2,16.6-9.7,33.5-13.6,50.4c-3.9,16.9-7,34.1-9.5,51.3
	c-0.4,2.9-0.9,5.9-1.2,8.8c-9.5,0-18.5,3.9-25,10.8c-3.1,3.3-0.7,8.1,3.5,8.5h0.4l0.9,0.2l1,0.3c-0.8,0.9-1.6,1.9-2.3,2.9
	c-2.3,3.1-3.2,6.9-2.6,10.7c0.3,1.8,2,2.9,3.6,3.4c-9.3,20.6-15.1,42.6-17.3,65.1c-0.3,3.1,3.4,5.9,6.3,4.8c0.1,0,0.2,0,0.2-0.1
	l-2.4,27.4c-0.3,2.9,3.4,6,6.3,4.8c1.4-0.6,2.8-1.4,4.1-2.3c-0.1,1.8-0.3,3.7-0.6,5.5c-1.2,8.2-3,16.3-3.5,24.6
	c-1,16.2-0.9,32.9,2.5,48.8c1.9,8.8,4.4,17.4,6.3,26.2c0.7,2.6,3.3,4.2,5.9,3.6c0.9-0.2,1.7-0.7,2.4-1.4l10.7-8.9
	c1.6,8.6,2.2,17.4,1.8,26.1c-0.2,2.9,3.3,6,6.3,4.8l1.4-0.5h1.2l1.2,0.3c0,0.1,0.5,0.2,0.7,0.4l0.6,0.4l0.8,0.7l0.4,0.5l0.6,1.1
	c0-0.1,0.2,0.4,0.3,0.7v0.2c0.1,0.7,0.1,1.3,0,2c0,2.8,0,5.5-0.1,8.2c-0.4,10.8-1.2,21.5-1,32.3c0.1,6.5,0.7,13,1.8,19.4
	c0.5,2.6,3.8,4.1,6.2,3.5s3.9-3.5,3.5-6.2c-2-11.3-1.7-23.2-1.2-34.8c0.3-5.9,0.6-11.7,0.8-17.6c0-3,0.3-6-0.2-8.9
	c-1.4-6.5-6.7-11.4-13.2-12.2c-0.1-10.4-1.4-20.7-4-30.7c-1-4-5.6-4.6-8.4-2.3l-10.7,9c-1.3-5.6-2.8-11.2-4-16.8
	c-1-4-1.7-8.1-2.1-12.2c-0.4-4.2-0.7-8.3-0.9-12.5c-0.4-8.6-0.2-17.2,0.6-25.8c0.7-8.3,2.8-17.1,3.8-25.7c0.5-4.5-1.1-9.4-5.3-11.6
	c-1.3-0.7-2.8-0.9-4.3-0.8l2.4-26.8c0.3-3-3.4-5.9-6.3-4.8c0.4-3,0.9-6,1.5-9.3c1.1-5.7,2.4-11.4,4-17c3.2-11.1,7.4-21.9,12.5-32.3
	c1.3-2.5,0.4-5.6-2.1-6.9c-0.7-0.4-1.4-0.6-2.2-0.6l0.5-0.6c1.9-2,3.6-4.2,5.1-6.6c0.9-1.9,0.9-4.6-0.8-6.1
	c-0.9-0.8-1.8-1.5-2.8-2.1l0.7-0.4l1.2-0.5l1.1-0.4c1-0.4,2-0.7,3.1-0.9l1.5-0.3h2.3c-1.3,11.3-2.4,22.5-3.1,33.8
	c-1.2,17.3-1.6,34.7-1.4,52.1l0.3,12.9c0,2.8,2.2,5,5,5s5-2.2,5-5c-0.6-17.1-0.5-34.2,0.3-51.2s2.2-33.2,4.2-49.8
	c0.2-0.4,0.3-0.8,0.4-1.2c0.2-0.8,0.2-1.6,0-2.4c0.2-1.2,0.3-2.5,0.5-3.7s0.1-0.9,0.1-1c0.1-0.5,0.2-1,0.2-1.5
	c0.2-1.1,0.4-2.2,0.5-3.3c0.6-4.3,1.3-8.5,2-12.7c1.4-8.4,2.9-16.8,4.6-25.1c3.4-16.7,7.5-33.3,12.2-49.7c2.3-8.2,4.8-16.3,7.5-24.3
	c0.6-1.8,1.2-3.5,1.9-5.3c0.1-0.2,0.2-0.5,0.3-0.7c0.2-0.4,0.4-0.7,0.5-1.1l1.2-2.5l1.4-2.4l0.7-1.1l0.5-0.7l0.3-0.4h0.1l0.4-0.5
	l0.9-1l1.8-1.7l1-0.9h0.2l2.2-1.4l2-1.2l1.2-0.6l0.5-0.2h0.2l2-0.7l2.4-0.7l2.5-0.6l1.2-0.2h0.6c3.4-0.4,6.9-0.4,10.3,0h0.4l1.3,0.2
	l3.1,0.6l5.6,1.7l2.7,1l0.9,0.4h0.2l1,0.4l5.3,2.6c3.5,1.9,6.8,4,10.1,6.2c3,2,6,4.1,8.8,6.2l0.7,0.5c0.3,0.3,0.6,0.6,1,0.8l2.3,1.9
	l4.1,3.6c5.6,4.9,10.9,10.3,15.7,16c1.2,1.3,2.4,2.8,3.5,4.2l0.9,1.1l0.4,0.6l1.7,2.1c2.1,3,4.2,6,6.2,9.1c9,14,15.2,29.4,22.3,44.3
	c7.1,14.9,16.5,26.6,25.1,39.5c1.6,2.4,3.1,4.8,4.6,7.2l0.6,5.2c0.1,0.3,0.1,0.7,0.2,1c0.3,2.3,0.7,4.6,1.3,6.9
	c1.5,7.1,4.1,14.1,9,19.6c2,1.9,5.1,1.9,7.1,0c1.9-2,1.9-5.1,0-7.1l-0.6-0.7c-0.1,0-0.1,0-0.1-0.1l-1-1.4c-0.8-1.2-1.4-2.4-2-3.7
	v-0.3l-0.3-0.7c-0.3-0.8-0.6-1.6-0.8-2.3c-0.2-0.7-0.9-3.1-1.3-4.7c-0.3-1-0.5-1.9-0.6-2.9c4.2-1.1,8.5-2,12.7-2.9l8.6-1.5l4-0.7
	l2.2-0.3l1.2-0.2h0.6l0.9-0.2h1l1.9-0.2l4.8-0.6l8.6-0.7c5.8-0.4,11.6-0.7,17.4-0.8h9.6c1.5,0,2.9-0.1,4.4-0.3l-1.8,11
	c-0.4,1.3-0.2,2.7,0.5,3.9c0.7,1.1,1.8,1.9,3,2.3c2.4,0.5,5.7-0.7,6.1-3.5c0.9-5.8,1.9-11.6,2.8-17.3c0.2-0.8,0.2-1.7,0-2.5
	c0.2-0.2,0.2-0.4,0.3-0.7c0.1-0.6,0.2-1.2,0.1-1.8c0.1-0.1,0.1-0.3,0.2-0.5s0.1-0.4,0.2-0.6h0.1c0-0.1,0.1-0.3,0.2-0.4
	c0-0.2,0.1-0.4,0.2-0.6c0.4-0.9,0.9-1.7,1.3-2.6c1.8-3.4,3.7-6.7,5.3-10.1c3.9-7.9,6.8-16.2,10.2-24.3c0-0.2,0.4-1,0.4-1.1
	c0.1-0.4,0.3-0.8,0.5-1.1c0.4-1,0.9-2,1.3-3.1c0.4-1.1,1.7-3.7,2.6-5.6c1.8-3.8,3.6-7.5,5.5-11.2c3.7-7.4,7.7-14.6,11.9-21.7
	s8.6-13.6,13.4-20.1l1.6-2.1l0.8-1l0.4-0.5c0-0.1,0.1-0.1,0.1-0.1l3.4-4.4l7.3-8.4c4.9-5.7,10-11.1,15.5-16.2l4.2-3.6l2.1-1.6
	c0.3-0.3,0.6-0.6,1-0.8l0.4-0.4c0.2-0.1,0.4-0.2,0.5-0.4h0.1l0.5-0.3l1.2-0.9l2.3-1.7l4.5-3.1c6.1-4.1,12.5-7.8,19.1-11l1.4-0.7h0.1
	l0.4-0.2l3-1l1.5-0.3h1.8c0.5,0.1,1.1,0.1,1.6,0.1h0.2l1.2,0.3l1.1,0.3l0.3,0.2h0.2l2.1,1.2l0.9,0.7l0.5,0.3
	c1.3,1.2,2.5,2.4,3.6,3.7l0.8,0.9c0.2,0.2,1.1,1.1,0.3,0.4c0.6,0.7,1.1,1.4,1.6,2.1c2.1,3.1,3.9,6.3,5.7,9.6
	c0.9,1.7,1.7,3.4,2.5,5.1l1.2,2.5l0.6,1.4l0.2,0.5c1.4,3.6,2.7,7.2,3.9,10.8c2.3,7.3,4.1,14.7,5.5,22.2c0.7,3.8,1.4,7.7,1.9,11.5
	c0.2,0.9,0.3,1.9,0.4,2.8c0.1,0.5,0.2,1,0.2,1.5c0.1,0.2,0.1,0.3,0.1,0.5c0.3,1.9,0.5,3.8,0.7,5.7c1,8.1,1.8,16.3,2.8,24.4
	c1,8.1,2.2,17.1,3.3,25.6s2.1,17.4,3,26.1c0.5,4.2,0.9,8.4,1.2,12.6c0.3,3.3,0.3,6.7,0.7,9.9c0.4,3.2,1.6,8.5,2.3,12.7
	c0.3,1.2,0.5,2.4,0.7,3.6c0.1,0.5,0.2,1.1,0.2,1.6c0.1,0.2,0.1,0.5,0.1,0.7c0.2,1.7,0.4,3.4,0.4,5.1l-0.5,0.6
	c-3.8,0.5-7.6,1.3-11.2,2.5l-1.3,0.4c1.5-2.4,0.7-5.5-1.7-7c-1.5-0.9-3.4-1-5-0.2c-22.4,10.9-41.5,27.5-55.4,48.1
	c-3.7,5.5-7,11.2-9.9,17.1c-1.1,2.4-0.7,5.6,1.8,6.9s5.6,0.7,6.9-1.8c2.5-5.2,5.3-10.2,8.4-15.1c1.6-2.4,3.3-4.7,5-7l0.5-0.7
	c0-0.1,0.3-0.4,0.4-0.6l1.1-1.3c0.9-1.2,1.9-2.4,2.9-3.5c3.6-4.3,7.5-8.3,11.7-12.1c2.1-2,4.3-3.8,6.6-5.7l1.6-1.2h0.1
	c0.3-0.2,0.6-0.4,0.8-0.7l3.7-2.6l4.6-3.1c-0.3,2,0,3.9,1.8,5.2c1.6,1.3,3.8,1.4,5.5,0.4c1.9-1.2,3.9-2.3,5.9-3.3l1.4-0.6l0.6-0.3
	c1-0.5,2.1-0.8,3.1-1.2s4.2-1.3,6.3-1.8c1-0.3,2.1-0.5,3.1-0.6l1.5-0.3h1c4.3-0.5,8.7-0.6,13.1-0.2l1.5,0.2h0.7l3.3,0.6
	c2.1,0.4,4.2,1,6.3,1.6l3.5,1.3l0.5,0.2c-5.7,4.6-8.9,11.4-8.9,18.7c0,2.8,2.3,5,5,5c0.4,0,0.9-0.1,1.3-0.2l2-0.5h0.7
	c1.3-0.1,2.6-0.2,3.9-0.1h2.2l0.7,0.2c1.4,0.2,2.7,0.6,4,1l1.5,0.6c-0.2-0.1-0.2-0.2,0.3,0l1,0.4c1.1,0.6,2.2,1.3,3.3,2l0.6,0.4
	l0.2,0.2l0.7,0.6c-4.5,4.2-8.6,8.8-13.1,12.8c-2,1.9-2,5.1,0,7.1c0,0.1,0,0.1,0.1,0.1l0.7,0.6c1.3,1,2.8,1.8,4.3,2.5l3.6,1.6
	l1.4,0.5l0.3,0.2h0.1c1.8,0.7,3.6,1.6,5.2,2.7l0.3,0.2c0,0.1,0,0.1,0.1,0.1l0.2,0.2c0.2,0.1,0.3,0.2,0.3,0.3l0.3,0.3h0.1l0.3,0.5
	c-0.1-0.1-0.1-0.2-0.1-0.3c0.1,0,0.1,0,0.1,0.1c0.1,0,0.1,0,0.1,0.1c0.1,0.1,0.1,0.2,0.1,0.3v0.3c-0.1,0.6-0.3,1.1-0.5,1.6
	c0.3-1.1,0.1-0.4-0.1,0.1c-0.5,0.6-1.1,1.1-1.7,1.6l-0.5,0.3l-1.3,0.9c-1,0.7-2,1.3-3,1.8c-2.1,1.3-4.3,2.5-6.5,3.7
	c-4,2.1-8.3,4-12,6.7c-1.7,1-2.6,2.9-2.4,4.9c0.3,2,1.7,3.6,3.6,4.2l5.6,1.7c-1.6,2.5-2.8,5.2-3.5,8.1c-0.7,3.5,1.5,5.9,4.8,6.3
	c-0.1,0-0.3,0-0.4,0c0,0,0.1,0,0.2,0l0.8,0.2l1.4,0.4h0.5l0.9,0.6c-3.4,3.2-5.3,7.7-5,12.4c0.4,3.8,2,7.3,4.6,10
	c0.9,0.9,1.9,1.7,3,2.3l-1.6,2.3c-2.5,3.7-2.1,8.6,1,11.8c0.8,0.8,1.7,1.5,2.6,2.1l0.2,0.2l0.7,0.6c0.2,0.2,0.3,0.4,0.4,0.6
	c0.1,0.3,0.2,0.5,0.3,0.8c0.1,0.2,0.1,0.5,0.2,0.7c0,0.6-0.1,1.2-0.1,1.8c0,0.3-0.1,0.5-0.2,0.8c0,0.3-0.1,0.5-0.2,0.8
	c-0.1,0.1-0.1,0.1-0.1,0.2c-0.3,0.5-0.5,1-0.8,1.4l-0.2,0.2l-0.6,0.7h-0.1l-0.8,0.5l-1.2,0.3c-1.9,0.6-3.3,2.2-3.6,4.2
	c-0.2,1.7,0.6,4.2,2.4,4.9c0.4,0.2,0.8,0.4,1.1,0.7l0.3,0.2c0.1,0.2,0.2,0.5,0.4,0.7l0.2,0.3c0,0.1,0,0.2,0.1,0.3c0.3,1,0.5,2,0.7,3
	c0,0.2,0,0.5,0.1,0.7c0,0.6,0.1,1.1,0.1,1.7c0.3,5.7,0.4,11.4,0.5,17.1s0,11.3-0.3,17c-0.2,2.7-0.5,5.5-0.8,8.2c0,0.2,0,0.4-0.1,0.6
	c0,0.2-0.1,0.8-0.1,0.8l-0.3,2c-0.2,1.4-0.5,2.8-0.7,4.1c-0.7,3.1-1.4,6.1-2.3,9.1s-1,3.1-1.6,4.6l-0.8,2.1l-0.3,0.7
	c-0.1,0.3-0.4,0.9-0.4,1c-1.1,2.4-0.8,5.5,1.8,6.9s5.7,0.7,6.8-1.8c10.2-22.7,9.9-48.3,8.6-72.7c-0.1-3.6-0.9-7.1-2.4-10.4
	c3-3.1,4.8-7.3,4.9-11.6c0.1-3.7-1.2-7.2-3.6-10c-0.5-0.7-1.1-1.2-1.8-1.7l-1.4-1.1c0-0.1,0.1-0.2,0.1-0.3c0.3-0.3,0.6-0.7,0.8-1.1
	l1.5-2c1.3-1.6,2.1-3.4,2.5-5.4c0.5-3.5-1.3-5.9-4.8-6.3c0.5,0,0.8,0.1,0.1-0.1h-1.3l-1.2-0.7h-0.1l-0.5-0.5l-0.5-0.6l-0.8-1.3
	c-0.1-0.2-0.2-0.5-0.2-0.7c-0.1-0.2-0.1-0.4-0.2-0.6s0.1-1.2,0.1-1.5s0.1-0.5,0.1-0.7c0.1-0.2,0.2-0.4,0.2-0.6l0.8-1.4l0.3-0.4h0.2
	l0.5-0.5l0.5-0.4l0.7-0.4l0,0c0.5-0.3,0.3-0.1,0,0l0.8-0.3c2.7-0.8,4.2-3.6,3.5-6.3c-0.1-0.4-0.3-0.7-0.5-1.1
	c-2.1-3.5-5.3-6.3-9.1-8l0.5-0.8l0.9-1.3c-0.6,0.9,0.2-0.2,0.4-0.5l1.3-1.2c0.2-0.3,1.5-1.3,0.6-0.6c1.7-1.3,2.7-2.8,2.4-5
	c-0.2-2-1.7-3.7-3.6-4.2l-1.8-0.5l0.8-0.5c4.6-2.3,9-5,13.2-8c1.8-1.2,3.3-2.8,4.5-4.6C866.2,456.4,866.8,453.2,866.3,450.1z
	 M508.2,299.5c-4.1-7.1-7.3-14.5-10.7-21.9c-2.2-4.9-4.5-9.7-6.9-14.5c0.2-0.2,0.3-0.4,0.4-0.7c1.5-3.8,0.4-7.9-0.5-11.7l-0.3-1.1
	c0-0.1-0.1-0.4-0.1-0.6v-1.2c0.1-0.3,0.1-0.5,0.1-0.8v-0.4l1.7,0.4c1.6,0.5,3.4,0.7,5.1,0.5l3.6,3.2c2,1.8,4,3.9,6.4,5.1
	c2.6,1.3,5.7,1.5,8.5,0.4c0.1,0.1,0.1,0.1,0.1,0.2c0.1,0.2,0.1,0.3,0.2,0.4c0.2,0.6,0.4,1.1,0.5,1.7c0.3,1.1,0.6,2.1,0.8,3.2
	c0.2,1.1,1,4.9,1.5,7.4s0.3,2.3,0.5,3.4l0.3,1.7c0,0.4,0.1,0.7,0.1,1.1c0,0.4,0.1,0.4,0.1,0.6s0,0.3,0.1,0.4c0,0.3,0,0.6,0.1,0.9
	c0,0.6,0.1,1.1,0.2,1.7c0.1,1.3,0.3,2.5,0.4,3.8s0.5,4.9,0.7,7.3c0.4,4.8,0.7,9.5,0.9,14.3s0.6,11.6,0.9,17.4
	C517.9,314.5,512.8,307.2,508.2,299.5z M639,278.2c-3.9,8.2-7.3,16.6-10.7,25.1l-1.2,2.9l-0.6,1.5l-0.3,0.7c0,0.1-0.1,0.3-0.2,0.4
	c-0.8,1.9-1.6,3.8-2.5,5.6c-1.7,3.6-3.7,7-5.5,10.5l-1.5,3.2l-9.4-3l-3.2-1.1l-1.4-0.5l-0.5-0.2l-0.6-0.3l-2.7-1.4l-1.3-0.9h-0.1
	l-0.4-0.3l-2.1-2l-0.9-1l-0.5-0.6c-1.2-1.6-2.2-3.3-3.1-5.1l-0.6-1.3c-0.1-0.1-0.1-0.3-0.2-0.4c-0.1-0.1-0.7-1.9-1-2.9
	c-0.5-1.4-0.8-2.9-1.1-4.4c3.1,1.2,6.6-1.4,6.7-4.7c0-1.5,0.1-2.9,0.2-4.3c0-0.1,0-0.2,0.1-0.3c0-0.3,0.1-0.7,0.1-1.1
	c0-0.4,0.3-1.4,0.5-2.1c0.3-1.4,0.7-2.7,1.2-4c0.1-0.3,0.2-0.7,0.4-1c0-0.2,0.1-0.4,0.2-0.6l3.1,5.6c1.8,3.2,7,3.5,8.7,0
	c1.5-3.3,3.2-6.5,5.1-9.6l1.4-2.2l0.6-0.8l0.6-0.7c1.1-1.3,2.3-2.5,3.6-3.6h0.3l1-0.7l2.2-1.3l0.7-0.3h-0.2c0.1-0.2,0.8-0.3,1.1-0.4
	c0.8-0.3,1.7-0.5,2.5-0.6h1.4l2.8,0.2c2.4,0.2,4.8-0.3,6.9-1.4c2-1.3,3.8-2.8,5.6-4.4c1.1-0.8,2.1-1.7,3.1-2.6
	C644.4,266.9,641.6,272.5,639,278.2z M680.9,228.2C680.5,228.6,680.7,228.4,680.9,228.2L680.9,228.2z M841.3,364.2
	c-0.1-0.1-0.2-0.2-0.2-0.3S841.2,364.1,841.3,364.2z M829.1,339.4c-0.1-0.2-0.2-0.3-0.2-0.5L829.1,339.4z M828.5,338.3l-0.3-0.2
	C828.4,338.2,828.5,338.2,828.5,338.3z M820.4,329.4c-0.1,0.1-0.1,0-0.1-0.2C820.3,329.3,820.3,329.3,820.4,329.4z M851.9,400.3
	c-0.4,2.4-0.8,4.7-1.4,7.1l-0.6,1.9c-4.4-2-9.2-2.9-14-2.9l0.5-1l0.7-1.2c0.2-0.1,0.3-0.3,0.4-0.5l2-2.1l0.6-0.4l1.1-0.8l1.4-0.8
	h0.2c0,0,0.1-0.1,0.2-0.1h0.2l2.9-0.8c1.9-0.3,3.4-2.4,3.6-4.2c0.3-2-0.7-3.9-2.4-4.9c-10.2-6.4-21.9-9.8-33.9-10
	c0-0.9,0-1.9-0.1-2.8c-0.5-5.1-1.5-10.2-2.4-15.2l-1.2-5.8v-0.5c-0.2-2-0.3-4-0.4-6.1c-0.7-8.8-1.6-17.7-2.7-26.6
	c-0.3-2.7-0.6-5.5-1-8.2c1,1.1,2.3,2,3.8,2.4c1.5,0.4,3.2,0.4,4.7,0c-0.9,1.5-1.8,3-2.5,4.6c-1.6,3.6-2.2,7.5-0.8,11.2
	s4.8,7.1,9.3,7.6c2,0.1,4.1-0.4,5.9-1.3l1.1-0.5h0.2l0.4-0.2h0.2c0.1,0,0.1,0,0.1,0.1h0.1l0.4,0.4h0.1l0.3,0.4
	c0,0.2,0.1,0.4,0.1,0.6h0.1v0.2c0,0.3,0,0.5-0.1,0.8v0.4l-0.3,0.8c-0.1,0.2-0.2,0.5-0.3,0.7c-0.3,0.7-0.6,1.3-1,1.9
	c-1,1.4-1.9,2.8-2.7,4.3c-1,2-1.3,4.3-0.8,6.5c0.7,2.7,2.8,4.8,5.4,5.6c1.6,0.5,3.3,0.6,5,0.3l2.2-0.2h0.7l0.6,0.2l0.9,0.5h0.1
	l0.8,0.8l1.5,1.6l0.2,0.2c0.1,0.3,0.3,0.5,0.5,0.8c0.9,1.3,1.7,2.6,2.4,4l1.2,2.4l0.3,0.8c0.1,0.1,0.4,1,0.5,1.1
	c1.4,3.7,2.7,7.3,4.2,10.9c0.7,1.5,1.3,2.9,2.1,4.3l0.3,0.6c-0.2-0.9,0-0.7,0-0.3s0.1,0.3,0.1,0.5s0.1,0.3,0.3,0.4
	c0.2,0.1-0.1,0.7-0.3-0.1v1.2c0,1.1-0.1,2.1-0.2,3.2c-0.1,1.1-0.2,2.4-0.4,3.6s-0.1,0.5-0.1,0.7L851.9,400.3z M829.1,340.5
	c0,0.1-0.1,0.3-0.1,0.4C829,340.8,829,340.6,829.1,340.5z M847.4,506.7v-0.2C847.5,506.8,847.3,507.3,847.4,506.7z"/>
<path d="M787.4,539.6c-0.3-2.3-0.7-4.6-1.1-6.9c-0.1-0.6-0.1-1.1-0.2-1.7s0-0.2-0.1-0.2v-0.6c-0.2-1.2-0.3-2.4-0.3-3.6
	c-0.2-4.9,0.9-9.7-0.2-14.5c-1.8-8.6-9.5-14.6-17.5-17.2c-4.3-1.3-8.8-2-13.3-2.1l0.3-1.1c0.1-0.2,0.2-0.3,0.2-0.5s0.2-0.3,0.2-0.5
	c0.1-0.2,0.2-0.5,0.4-0.7c0.2-0.5,0.4-0.9,0.7-1.3l0.8-1.2l0.3-0.4c0-0.2,0.1-0.3,0.3-0.4l0.6-0.7l0.9-1.1l2.2-2.1l2.2-2l1.2-0.9
	l0.5-0.4l5.1-3.6c1.7-1.2,3-3.4,2.3-5.6c-0.7-2.1-2.7-3.6-4.9-3.7c-13.5-1-27.1,0-40.3,3c-2.7,0.8-4.2,3.5-3.5,6.2
	c0.8,2.6,3.5,4.1,6.1,3.5c3.2-0.7,6.3-1.3,9.5-1.8l1.3-0.2h0.2l2.3-0.3l5.1-0.5l5.2-0.2c-2.3,2.1-4.2,4.6-5.9,7.2
	c-2.2,3.6-4.2,8.6-3.4,13c0.6,2.9,2.8,5.2,5.7,5.8c2.1,0.4,4.3,0.7,6.5,0.7l1.6,0.2h0.9c1.1,0.2,2.2,0.3,3.3,0.6c1,0.2,2,0.5,3,0.9
	l1.4,0.5h0.1l0.8,0.4l2.4,1.4l1,0.7l0.5,0.4c0.7,0.6,1.3,1.2,1.8,1.9l0.2,0.2c0,0.1,0.1,0.2,0.2,0.2l0.7,1.3l0.6,1
	c0,0.2,0.1,0.4,0.2,0.4l0.3,1.3c0.1,0.2,0.1,0.5,0.2,0.7c0.1,2.4-0.1,4.8-0.2,7.2c-0.4,5.1,0.4,10.1,1.2,15.1c1.8,11,3.5,22,5.3,33
	c0.4,2.6,3.8,4.2,6.1,3.5s4-3.4,3.5-6.2L787.4,539.6z"/>
<path d="M803.1,451.5c-1.1-0.2-2.3-0.4-3.4-0.4c-0.1,0-0.1,0-0.1-0.1c-0.2-0.8-0.5-1.5-0.8-2.3c-0.7-2.1-1.5-4.1-2.4-6.1
	c-1.8-3.9-4-7.6-6.6-11c-0.7-1.1-1.8-1.9-3-2.3c-1.3-0.4-2.7-0.2-3.8,0.5c-2.1,1.3-3.5,4.6-1.8,6.8c2.3,3,4.2,6.2,5.9,9.5l0.5,1.2
	l0.3,0.6c0,0.1,0,0.1,0.1,0.2v0.2c0,0.2,0.1,0.4,0.2,0.6c0.2,0.5,0.4,1,0.5,1.5c0.7,1.8,1.2,3.6,2,5.4c0.8,1.9,2.3,3.4,4.1,4.3
	c1.3,0.7,2.8,1,4.3,1h1.3l0.3,0.2h0.2c0,0.1,0,0.1,0.1,0.1l0.4,0.8c0.1,0.2,0.2,0.5,0.2,0.7c0.1,0.2,0.1,0.4,0.1,0.6
	c0.1,0,0.1,0.1,0.1,0.2v2.5c-0.1,4.7-0.5,9.5-0.7,14.3c0,2.8,2.2,5,5,5c2.7-0.1,4.9-2.3,5-5l0.6-13c0.3-4.6-0.3-9-3.3-12.7
	C807,453.2,805.2,452,803.1,451.5z"/>
</svg>
