<?xml version="1.0" encoding="utf-8"?>
<!-- Generator: Adobe Illustrator 24.2.3, SVG Export Plug-In . SVG Version: 6.00 Build 0)  -->
<svg version="1.1" id="f51a254a-7de4-438e-9b3c-23c7979ffa5e"
	 xmlns="http://www.w3.org/2000/svg" xmlns:xlink="http://www.w3.org/1999/xlink" x="0px" y="0px" viewBox="0 0 1152 864"
	 style="enable-background:new 0 0 1152 864;" xml:space="preserve">
<path d="M897.2,674.6c-2.1-10.4-4.9-20.7-7.8-30.9c-0.7-2.6-1.5-5.2-2.3-7.8s-0.7-2.5-1.1-3.7l-0.6-1.9c-0.1-0.3-0.2-0.6-0.2-0.9
	l-0.2-0.6v-0.5c0-0.1,0-0.2,0.1-0.2l0.3-0.4l1.3-1.2c1.8-1.8,3.2-4,4-6.4c1.6-5.6-0.7-11.6-3.7-16.3c-1.4-2.1-2.9-4.1-4.1-6.2
	l-0.8-1.7H882c2.8-2.3,4.1-5.9,3.4-9.5c-1.1-4.8-5.6-7.9-9.1-10.9l-22.2-19.3c-4.3-7.8-7-16.3-9.2-24.9c-2.7-10.6-5.4-21.3-7.2-32
	c-3.5-22.3,1.8-44.6,0.1-66.9c-0.9-11.6-3.4-22.9-6.3-34.2c-2.9-11.3-5.7-21.7-7.7-32.8c-4-21.8-6.4-44-12-65.4
	c-5.3-20.4-11.8-40.4-19.4-60.1c-3.7-9.5-7.4-19.3-12.4-28.2c-5-8.9-11.4-16.6-17.8-24.3c-3.1-3.8-6.3-7.5-9.3-11.4
	c-3-3.9-5.9-7.8-10-10.6c-9.6-6.5-20.6-1.7-28.4,5.1c-3.7,3.3-7.2,6.9-10.5,10.6c-3.6,3.8-7.1,7.8-10.6,11.7
	c-7.1,8.1-13.9,16.4-20.5,25c-13,16.9-24.7,34.8-34,54.1s-16.6,39.2-25.4,58.5c-1.8,4-3.7,8-5.6,11.9c-1.1-0.1-2.3,0.1-3.4,0.4
	c-1.5,0.5-3,1-4.4,1.7l-1,0.3c-0.4-0.9-0.8-1.7-1.3-2.6l-1.6-3c-0.3-0.5-0.5-1-0.7-1.4l-0.3-0.7h-0.1c-0.8-1.7-2.5-3.5-4.6-3.3
	c-5.9,0.9-11.7,2.5-17.2,4.8c-5.4,2.2-10.9,4.6-15.6,8l-0.7,0.3v-8.4c0.1-0.6,0.1-1.2,0.1-1.8c0-0.2,0.2-1.1,0.2-1.3
	c0.1-1.1,0.4-2.2,0.7-3.3l0.6-1.7V330c0.2-0.2,0.3-0.4,0.4-0.7c2.1-4.5,5-8.8,7.5-13.2c1.1-1.9,0.8-4.4-0.8-6c-1.6-1.6-4-1.9-6-0.8
	c-6.5,4.3-12.5,9.1-18,14.6c-2.6,2.6-5.1,5.3-7.4,8.2l-3.9,5l-0.4,0.6c-1.1-1.1-2.1-2.2-3.1-3.4c-0.5-0.5-1-1.1-1.4-1.7l-0.2-0.2
	l-0.7-0.9l-2.7-4c-1.4-2.4-4.5-3.2-6.8-1.8c-1.1,0.6-1.9,1.7-2.3,2.9c-1.4,4-2,8.2-1.7,12.4c0.1,1.2,0.3,2.5,0.6,3.7l-4.7-2.2
	c-5.3-2.6-10.7-5.1-16.6-5.9c-2.3-0.3-4.1,1.8-4.8,3.7s-1.1,2.8-1.7,4.3l-0.5-0.2c-1.4-0.5-2.9-1.3-4.4-1.7
	c-1.2-0.3-2.4-0.5-3.6-0.5c-9.7-18.8-19.9-37.5-30.1-56.1c-10.2-18.6-20.3-37-31.1-55.1c-10.8-18.1-21.6-34.5-35-49.9
	c-6.3-7.3-13.3-15.6-23-18.4c-5-1.4-10.5-0.8-15,1.9c-4.1,2.5-7.1,6.3-9.9,10c-12.6,16.7-22.9,35-30.8,54.4
	c-8.1,19.7-14,40.3-19.5,60.8s-11.7,43.4-17.5,65.1c-3,10.9-5.9,21.8-8.9,32.7s-5.7,21.1-7.5,31.9c-1.7,11-2.2,22.2-1.5,33.3
	c0.7,11,1.8,22,1.4,33c-0.4,11-2.8,21.4-5.3,31.9s-4.5,19.7-8.1,29.1c-1.2,3.1-2.7,6.2-4.3,9.1L207,575.2c-3.5,3-7.9,6.1-9.1,10.9
	c-0.7,3.6,0.6,7.2,3.5,9.5c-0.1,0-0.1,0-0.1,0.1v0.2c-0.2,0.2-0.3,0.5-0.4,0.7c-1.1,2-2.3,4-3.6,5.8c-2.7,4-5.1,8.5-5.2,13.5
	c0,2.7,0.7,5.3,2.2,7.6c0.7,1,1.5,2,2.4,2.9c0.4,0.3,0.7,0.6,1,1c0.2,0.1,0.3,0.3,0.5,0.5l0.2,0.3v0.4c0,0.1-0.1,0.3-0.1,0.4
	c-0.1,0.3-0.2,0.6-0.2,0.9c-0.3,0.8-0.5,1.5-0.7,2.3c-0.8,2.5-1.6,5-2.3,7.5c-3,10.2-5.7,20.5-8.1,30.9c-2.3,10.3-4.2,21.4-1.1,31.7
	s9.9,18.5,20,21c2.7,0.4,5.3-1.4,5.7-4.1c0.4-2.3-0.9-4.6-3.1-5.5l-2.5-0.9l-0.4-0.2l-1.4-0.7l-1.1-0.7h0.1c-0.1,0-0.1,0-0.1-0.1
	H203l-0.2-0.2h-0.1l-2.2-2.1l-0.9-1.1h-0.1c-0.1-0.1-0.1-0.1-0.1-0.2c-0.6-0.8-1.2-1.7-1.7-2.6l-1.2-2.4v-0.2c0-0.1,0-0.1-0.1-0.1
	l-0.6-1.8c-0.2-0.8-0.4-1.6-0.6-2.4c-0.2-0.5-0.3-1.1-0.4-1.6c0-0.2,0-0.5-0.1-0.7v-0.5c-0.3-2.5-0.4-5.1-0.2-7.6l0.3-3.6
	c0-0.2,0.1-0.5,0.1-0.8V683c0.1-0.7,0.2-1.4,0.4-2.1c0.4-2.5,0.9-4.9,1.4-7.3c2.3-10.2,5-20.2,7.9-30.2l2.1-7.3
	c0.8-2.6,1.9-5.4,1.8-8.2c-0.2-2.9-1.6-5.6-3.7-7.6l-1.9-1.9h-0.1l-0.2-0.4c-0.1,0-0.1-0.1-0.1-0.2s-0.1-0.3-0.2-0.5s0-0.3-0.1-0.4
	v-1.3c0-0.1,0-0.1,0.1-0.2c0.1-0.4,0.1-0.7,0.2-1l0.6-1.7l0.3-0.8l0.9-1.6c0.6-1,1.3-2,2-3c3-4.5,6-9.5,5.7-15.1
	c-0.1-2.1-1.4-4-3.4-4.8l0.3-0.2c2.9-2.8,5.9-5.5,9.1-8l14.4-12.5c1.5-0.1,2.9-1,3.7-2.3l1.2-2c0.5-0.5,0.8-1.1,1-1.7
	c1.8-3.3,3.3-6.7,4.7-10.1c0.2-0.2,0.3-0.5,0.4-0.8c0.1-0.1,0.1-0.2,0.1-0.3c0.2-0.2,0.3-0.4,0.4-0.7c0.2-0.7,0.5-1.3,0.8-1.9
	l1.8-3.8c1.3-2.4,2.7-4.8,4.1-7.1c1.4-2.3,2.9-4.6,4.4-6.8l2.3-3.2l1.2-1.6h0.1l0.7-0.9c6.9-8.5,14.4-16.6,22.4-24.1l13.8-12.9
	c1.9-2,1.9-5.1,0-7.1c-2-1.9-5-2-7.1-0.2c-12.5,11.5-25.1,23.1-35.7,36.4c0.7-3.1,1.3-6.2,1.9-9.3c2-10.7,2.8-21.7,2.4-32.6
	c-0.4-10.7-1.6-21.4-1.7-32.2c0-21.5,6.7-42.3,12.3-62.8c5.5-20,11.2-41.7,16.8-62.6c0,5.5,0.1,11.1,0.5,16.6
	c1,15.6,3.6,31.2,7.6,46.4c0.8,3.6,1.9,7.3,3.2,10.7c0.9,2,2.1,3.8,3.7,5.3c2,1.6,4.6,2.4,7.1,2.2c1.1-0.1,2.3-0.3,3.4-0.5l1.5-0.5
	c0.7,0,1.5,0,2.2-0.1l1.2,0.2l1,0.2c0.2,0.2,0.4,0.2,0.6,0.2l-0.5-0.2c0.3-0.2,2,0.8,2.1,1l1.9,1.1l0.3,0.2l0.9,0.6
	c5,3.9,8.9,9.2,14,13.2c5,3.9,13.4,8.2,21,6.6c1.8-0.5,3.6-1.2,5.2-2.2c2.2-1.6,2.9-4.6,1.4-7c-1.5-2.3-4.6-2.9-6.9-1.5l-0.9,0.6
	l-1.5,0.5l-1.8,0.2l-0.2,0.1l-1.1-0.3c-0.3,0-1.8-0.6-2.1-0.5l-0.3-0.1l-1.2-0.6c-0.7-0.3-1.4-0.6-1.9-1.1L344,407l-0.5-0.3
	c-0.3-0.2-0.3-0.2-0.2-0.2c-0.6-0.4-1.1-0.8-1.5-1.2l-2-1.7c-1.2-1.1-2.2-2.2-3.3-3.4c-2.1-2.3-4.3-4.4-6.7-6.4
	c-5-4.4-11.3-7.9-18-7.4c-1.1,0.1-2.2,0.3-3.3,0.4c-1.1,0.1-0.9,0.1-1.1,0.2l-1.1,0.4l-0.3-0.1c0-0.1-0.2-0.4-0.2-0.4
	c0,0.1-0.2-0.4-0.3-0.4l-0.7-2.3c-0.6-1.8-1.1-3.5-1.6-5.4c-1.2-3.9-2-7.5-2.8-11.2c-0.4-1.9-0.8-3.6-1.2-5.5
	c-0.4-1.9-0.3-1.8-0.5-2.8s-0.1-0.8-0.3-1.2c0-0.2-0.1-0.5-0.1-0.7c-1.3-7.3-2.2-14.6-2.8-22.1s-0.9-14.8-0.7-22.2
	c0.1-3.7,0.1-7.4,0.4-11.2l0.4-5.6c0-0.1,0-0.3,0.1-0.4c0-0.4,0-0.9,0-1.3l0.4-2.7c1.6-14.8,4.5-29.4,9-43.6
	c0.5-1.8,1.1-3.6,1.6-5.4c0.1-0.4,0.1-0.9,0-1.4c5.8-15.6,12.7-30.2,21.4-44.2c2.7-4.2,5.5-8.4,8.4-12.5c2.9-4.1,5-7.2,8.3-10.2
	c2.3-2.4,5.9-3.3,9.1-2.3c3.9,1.1,7.3,3.8,10.2,6.7c6.9,6.5,13,14.1,18.7,21.7c5.7,7.6,11.5,16.3,16.8,24.7
	c10.8,17.2,20.4,35.1,30.3,52.8c9.9,17.7,21,38,31.1,57.1l6.9,13.3c-0.4,2.6-0.6,5.3-0.4,8v7.5c0.1,3.9,0.1,7.8,0.1,11.7
	c-24.3,4.4-49.4,9.7-69.4,25c-5.7,4.3-10.9,9.5-15.2,15.2c-1.2,1.5-0.8,3.8,0.2,5.5c-5.8,3.2-11,7.2-14.7,12.6
	c-1.4,2.2-2.5,4.6-3.2,7.1c-0.7,2.9-1,5.9-0.9,8.9v0.3c0,0.1,0,0.1-0.1,0.2c-0.1,0.2-0.1,0.4-0.1,0.6h0.1c-0.1,0-0.1,0.2-0.2,0.3
	c-0.1,0.1-0.1,0.1-0.1,0.2l-0.3,0.5c-0.1,0-0.1,0-0.1,0.1c-0.3,0.5-0.3,0.3-0.2,0.1l-0.7,0.9l-0.3,0.2c0.8-0.5-0.1,0.1-0.2,0.1
	c-0.4,0.3-0.8,0.6-1.3,0.8c-1,0.6-2,1.1-3,1.5h0.1l-0.9,0.4l-1.8,0.7l-4.1,1.7c-2.7,1.5-4.9,3.5-6.7,6c-2.5,3.3-3.8,8-2.5,11.9
	l-40.1,38.5c-2,1.9-2,5.1,0,7.1c2,1.9,5.1,1.9,7.1,0l43-41.3c1.8-1.8,2.1-5.5,0-7.1l-0.4-0.4v0.2c0-0.1,0-0.1-0.1-0.2v-0.1v-0.2
	c0-0.3,0.1-0.5,0.2-0.8l0.3-0.6l0.7-1.2c0.1-0.1,0.1-0.1,0.1-0.2l0.4-0.4l1-1c0.1,0,0.1-0.1,0.2-0.2l-0.1,0.1
	c0.1-0.2,0.2-0.3,0.3-0.2h0l2.7-1.4h0.5l1.3-0.5l4-1.7c4.6-2.1,8.6-5.1,10.4-9.9c1.1-2.8,0.9-5.8,1-8.7V446c-0.1,0.2,0-0.3,0-0.5
	c0.1-0.5,0.2-1,0.4-1.5c0.1-0.5,0.3-1,0.5-1.5v-0.3l0.3-0.4c0.5-0.9,1-1.8,1.6-2.7l0.2-0.3c0.1-0.1,0.2-0.2,0.2-0.3l1.2-1.3l2.4-2.3
	l1.1-0.9c0.1,0,0.1,0,0.1-0.1l0.9-0.6c1.9-1.3,3.9-2.5,5.9-3.6l3.2-1.5l1.6-0.7l0.8-0.4h0.4c5-2,10.1-3.7,15.3-5
	c2.7-0.7,5.3-1.2,8-1.7l1.9-0.3h1.1l4.1-0.5c6-0.5,11.9-0.6,17.9-0.2l4.5,0.5h1.5l2.2,0.4c3,0.5,6,1.1,9,1.8
	c2.7,0.4,5.3-1.4,5.7-4.1c0.4-2.3-0.9-4.6-3.1-5.5l0.1-0.2c-22.2-5.6-45.6-4.3-67.1,3.6c0.1-0.1,0.2-0.2,0.4-0.4
	c2-2,4.1-3.9,6.3-5.6l0.5-0.4l0.6-0.5l1.7-1.2l3.7-2.5c2.4-1.5,4.9-2.9,7.4-4.2l3.7-1.8l1.8-0.9l1-0.4l0.7-0.3l8.5-3.2
	c6.2-2,12.6-3.7,19-5.1c6.4-1.4,14.8-3,22.2-4.4c2.2-0.6,3.7-2.5,3.7-4.8c0-8.9-0.1-17.8-0.1-26.7v-0.8c2.7,0.9,5.1,2.2,8,2.5
	c1.1,0.1,2.1,0,3.2-0.2c1.1-0.3,2.2-1,2.9-1.9c0.6-0.9,1-1.8,1.3-2.8l1-2.7l2.9,1c0,0.1,0.2,0.1,0.3,0.2l0.6,0.2l1.9,0.9l3.8,1.8
	c2.3,1.1,4.7,2.3,7.1,3.3c2.2,1,4.5,1.8,6.9,2.3c2.6,0.4,5.5-0.6,6.2-3.5c0-0.2,0-0.4,0.1-0.6c0-0.4,0.1-0.8,0.1-1.2
	c-0.1-2.1-0.4-4.1-1-6.1c-0.2-0.8-0.5-1.5-0.7-2.3l0.4,0.5c1.6,1.9,3.4,3.5,5.5,4.9c1.9,1.1,4.3,0.9,6.1-0.3
	c1.3-0.9,2.4-2.2,3.2-3.6l1.9-2.5l0.9-1.2c0-0.1,0.1-0.2,0.2-0.3s0.4-0.5,0.4-0.6l4.2-5l3.3-3.4c-0.4,1.7-0.6,3.4-0.7,5.2
	c-0.3,4.5-0.3,8.9,0.2,13.4c0.4,3.3,1.3,6.9,5,8c3.7,1.1,4.9-0.4,7.2-1.8l2.4-1.3l0.8-0.4c2-1.1,4.1-2.2,6.1-3.5
	c0.3-0.1,0.5-0.3,0.7-0.6l3.2-1.5l2.1-0.9c0-0.1,0-0.1,0.1-0.1l1.1-0.4c2.7-1.1,5.4-2.1,8.2-2.9c1.1-0.4,2.2-0.7,3.4-0.9l2,3.6
	c0.6,1.2,1.2,2.3,1.7,3.5l0.2,0.3c0.2,0.7,0.6,1.3,1.1,1.8c1.2,1.1,2.9,1.7,4.6,1.6c2.8,0.1,5.2-1,7.7-2c-0.7,1.2-1.3,2.4-1.8,3.7
	c-1.1,3.1-1.6,6.4-1.3,9.7c0.3,3.5,1.1,7,2.4,10.3c0.7,2,1.6,3.9,2.6,5.8c1.7,2.7,5.2,2.8,8,3c5.1,0.4,9.7-0.8,14.6-1.9
	c0.5-0.1,1.1-0.2,1.6-0.3c0-0.1,0.2-0.2,0.5-0.2h3.4l0.5,0.2l1.3,0.2c1.6,0.3,3.2,0.9,4.7,1.5l1.3,0.5c-1.7-0.5,0,0,0.4,0.2l3.2,1.5
	l6.4,3.4c5,2.9,9.8,5.9,14.5,9.2c2.7,1.8,5.2,3.7,7.8,5.6l0.8,0.6l0.4,0.3l1.9,1.5l3.6,3c2.2,1.9,4.3,3.8,6.3,5.8
	c0.9,0.9,1.8,1.8,2.6,2.8l1.2,1.3l0.4,0.5c0.1,0.2,0.2,0.3,0.4,0.5c-7.9-1.8-15.9-3.2-24-4.1c-13-1.5-26.2-1.7-39.2-0.4
	c-2.5,0.3-5.1,2.1-5,5c0.1,2.9,2.3,5.3,5,5c11-1.1,22.1-1.1,33.2-0.2c2.8,0.2,5.5,0.5,8.3,0.9l1.5,0.2h0.5l0.9,0.2l4.3,0.6
	c5.3,0.9,10.6,2,15.8,3.3l7.7,2.2l1.6,0.5l0.6,0.3c-0.2-0.1-0.9-0.5-0.1-0.1h0.1c1,0.4,2,0.9,3,1.5c0.8,0.5,1.6,1,2.4,1.6l0.2,0.2
	l0.5,0.4l1.5,1.4l2,2.1c0.2,0.2,0.4,0.4,0.5,0.7l1,1.5l0.7,1.2l0.3,0.7c0.4,1.1,0.7,2.1,1,3.2c0.3,1,0.1,0.5,0.1,0.6c0,0,0,0,0,0.1
	c0,0,0,0.1,0,0.1c0.1,0.5,0.2,0.9,0.2,1.5c0,1.4,0,2.9,0.1,4.3c0.3,3.1,1.6,6,3.6,8.3c1.5,1.7,3.2,3,5.2,4.1
	c2.3,1.2,4.8,2.2,7.3,3.2l0.7,0.3h0.1l1.5,0.7l1.3,0.8h0.1l0.4,0.4c0.4,0.4,0.8,0.8,1.2,1.2c0.1,0,0.1,0,0.1,0.1l0.3,0.4
	c0.3,0.4,0.5,0.8,0.7,1.2l0.3,0.7c0,0.2,0.1,0.3,0.1,0.5v0.3l-0.6,0.6c-2.1,1.6-1.7,5.3,0,7.1l43.1,41.3c2,2,5.1,2,7.1,0
	s2-5.1,0-7.1L750,482.1c1-3.5,0.5-7.2-1.3-10.3c-1.2-2.1-2.8-3.9-4.7-5.4c-2.2-1.6-4.6-3-7.1-3.9l-1.6-0.6l-0.6-0.3l-0.6-0.2H734
	l-0.6-0.3c-0.5-0.2-1-0.4-1.5-0.7l-1.5-0.8l-0.8-0.5c0.7,0.4-0.1-0.1-0.2-0.2l-0.4-0.5l-0.5-0.4l-0.5-0.8c0,0,0,0,0-0.1l-0.1-0.2
	c0-0.3-0.1-0.7-0.2-1v-0.2c-0.1-0.3-0.1-0.6-0.1-0.9v-2.3c0-2.7-0.6-5.4-1.5-7.9c-3.8-10.2-12.6-17.1-22.8-20.1
	c-1.4-0.4-2.8-0.8-4.2-1.2c0.1,0,0.2-0.1,0.3-0.1c2.1-1.4,3.5-4.7,1.8-6.9c-4-5-8.4-9.5-13.4-13.5c-5.9-5-12.2-9.6-18.7-13.8
	c-5.6-3.9-11.5-7.3-17.6-10.4c-6-3-12.8-6-19.7-5.3c-3.1,0.5-6.2,1.1-9.3,2l-2,0.4h-5.6c-0.2-0.3-0.3-0.7-0.4-1
	c-0.1,0-0.1,0-0.1-0.1c-0.1-0.2-0.2-0.3-0.2-0.5l-0.6-1.4c-0.6-1.8-1-3.6-1.3-5.4c-0.1-0.2-0.1-0.5-0.1-0.7c0-0.4-0.1-0.8-0.1-1.3
	s0.1-1.5,0.1-2.3s0.1-0.3,0.1-0.4l0.3-1.2l0.3-1.2c0.1-0.1,0.1-0.2,0.2-0.4c0.4-0.7,0.8-1.4,1.2-2.1c0.2-0.4,0.4-0.7,0.7-1
	c-0.1,0.1-0.1,0.1-0.2,0.2c0,0,0-0.1,0.1-0.1l1.1-1.3c1.3-2.1,1.4-4.7,0.4-7c9.2-18.3,16.5-37.5,24.7-56.3
	c8.2-19.2,18.3-37.5,30.2-54.7c11.8-17,25.2-32.9,39.2-48.2c3.4-3.7,6.7-7.6,10.5-11c3.8-3.4,6.8-5.7,11-6.2s6.1,1.3,8.7,4
	c2.6,2.7,5.8,7.2,8.8,10.9c6.1,7.4,12.5,14.6,17.9,22.5c5.1,7.4,8.8,15.7,12.3,24.1c-0.1,0.6-0.1,1.2,0.1,1.8
	c3.6,13.7,6.1,27.7,7.5,41.8c0.4,3.8,0.7,7.7,1,11.5l0.4,5.9c0,0.9,0.1,1.8,0.2,2.7c0,0.5,0,1,0.1,1.5l-0.1,0.7
	c0.4,7.9,0.7,15.8,0.8,23.7c0.2,16-0.2,31.8-1,47.7c-0.2,3.8-0.4,7.6-0.7,11.4c-0.2,0.8-0.3,1.5-0.3,2.3c0,0.1-0.1,0.3-0.1,0.4
	c-0.1,0.1-0.1,0.3-0.1,0.4h-0.1l-0.3,0.2h-0.5l-0.6,0.2h-0.1c-3.8-0.1-7.4-0.3-11.1,0.5c-3.6,0.8-6.9,2.4-9.9,4.4
	c-2.7,1.9-4.8,4.3-6.4,7.1c-1.7,3.3-2.6,6.8-3,10.5l-0.1,0.7c0.1-0.7-0.1,0.5-0.3,0.8c-0.2,0.7-0.4,1.5-0.8,2.1h-0.1
	c0,0.1,0,0.1-0.1,0.2l-0.7,1c-0.1,0.3-0.3,0.6-0.6,0.9l-0.4,0.6c-0.1,0.2-0.2,0.2-0.1,0.2c-0.4,0.6-0.9,1.1-1.4,1.7l-0.6,0.6
	l-0.5,0.3c-0.6,0.4-1.5,0.6-2,0.9h-0.2l-1.3,0.2l-2-0.2l-0.7-0.3c-2.5-0.8-5.4,0.5-6.4,3c-0.9,2.6,0.4,5.4,3,6.5
	c8.1,2.7,16.4-1.1,21.3-7.9c2.4-3.3,3.8-7.1,4.1-11.2c0-0.4,0.1-0.9,0.2-1.3v-0.6c0-0.1,0-0.2,0.1-0.3V406l0.4-1.2l0.4-1.1
	c0-0.1,0.2-0.4,0.2-0.6s0.2-0.4,0.3-0.4c0.1-0.4,0.4-0.8,0.7-1c0.1-0.3,0.3-0.6,0.6-0.9c0.1-0.1,0.1-0.1,0.1-0.2
	c0-0.1,1.4-1.3,1.6-1.6c0.5-0.2,1-0.6,1.4-0.9c-0.2,0.1-0.4,0.2,0-0.1l0.3-0.2h0.1l1.4-0.6l1.9-0.9c0.1,0,0.2,0,0.2-0.1l1.3-0.3
	l2.4-0.4l1.6,0.1c4.6,0,9.4,0.6,13.1-2.7c3.8-3.3,3.8-8,4.2-12.5c1-16.2,1.5-32.3,1.6-48.4c0.1-14.8-0.5-30.6-1.8-45.9
	c0.7,2.5,1.4,4.9,2.1,7.4c2.9,10.3,5.4,20.7,7.3,31.2s3.6,21.7,5.4,32.6c1.6,10.8,3.8,21.5,6.5,32.1c2.8,10.8,5.9,21.6,7.7,32.6
	c1.5,10.7,1.9,21.5,1,32.2c-0.6,11.3-1.8,22.6-1.1,33.8c0.2,3.2,0.6,6.5,1,9.7c-1.3-1.9-2.7-3.8-4.1-5.6c-6-7.5-12.7-14.6-19.8-21.1
	l-13.5-12c-2-1.7-5.2-2-7.1,0s-2.1,5.2,0,7.1c7.5,6.8,15.1,13.6,22.2,20.8c3.3,3.3,6.5,6.8,9.4,10.5c0.4,0.4,0.8,0.9,1.1,1.4
	l0.2,0.3h0.1c0.1,0,0.1,0,0.1,0.1l2.2,3c1.4,1.9,2.7,3.9,4,6c1.3,2.1,2.8,4.9,4.1,7.4l1.8,3.7c0.4,0.7,0.7,1.4,1,2.1l0.3,0.8
	c0,0.1,0.1,0.1,0.1,0.2s0.1,0.3,0.2,0.5c0.6,1.6,1.9,2.9,3.4,3.5c2.1,8.7,4,16.5,7.2,24.5c1.4,3.2,2.8,6.4,4.5,9.5
	c0.2,0.8,0.6,1.4,1.1,2l1.2,1.9c0.8,1.3,2.2,2.2,3.7,2.3l14.3,12.4c3,2.6,6.1,5.1,8.9,7.8c0.2,0.1,0.3,0.3,0.4,0.4
	c-1.9,0.9-3.2,2.7-3.4,4.8c-0.3,5,2.1,9.6,4.8,13.7c1.3,1.7,2.4,3.5,3.5,5.4c0.2,0.4,0.4,0.8,0.6,1.3l0.3,0.7
	c0.2,0.4,0.3,0.9,0.4,1.3c0.1,0.2,0.1,0.5,0.2,0.8v1.8c-0.1,0.2-0.2,0.3-0.2,0.5v0.1c-0.2,0.8-0.1,0.3,0,0l-0.3,0.5
	c-1.7,1.4-3.1,3.1-4.3,4.9c-3.1,5.2-0.2,11.2,1.4,16.4c3,10,5.7,20.1,8,30.2c0.6,2.4,1.2,4.9,1.7,7.3l0.6,3.5
	c0.2,0.6,0.3,1.3,0.4,1.9c0,0.2,0,0.5,0.1,0.7v0.6c0.3,2.5,0.5,5.1,0.4,7.6c0,1.2-0.1,2.4-0.2,3.6c0,0.2,0,0.5-0.1,0.7v0.3
	c-0.1,0.6-0.2,1.2-0.4,1.8c-0.2,1-0.5,2-0.8,3l-0.6,1.5c-0.1,0.2-0.1,0.5-0.3,0.7c-0.4,1-0.9,2-1.5,2.9l-0.9,1.3l-0.4,0.5l-2.3,2.4
	l-0.9,0.8l-0.8,0.6l-2.6,1.4l-0.6,0.3l-1.8,0.5c-2.6,0.7-4.2,3.5-3.5,6.1c0.8,2.7,3.5,4.2,6.2,3.5c9.1-2.2,15.5-9.7,19-18.1
	S899.2,684.6,897.2,674.6z M194.8,683.2C194.8,683.4,194.7,683.6,194.8,683.2L194.8,683.2z M354,410.1
	C354.3,410,354.4,410,354,410.1L354,410.1z M351.5,472.3C351.6,471.7,351.6,472,351.5,472.3L351.5,472.3z M611.8,366.9
	C611.7,366.6,611.8,366.7,611.8,366.9L611.8,366.9z M884.9,628.5v-0.3C885,628.3,884.9,628.5,884.9,628.5z M880.6,710.9
	C879.8,711.5,880.4,711,880.6,710.9L880.6,710.9z"/>
</svg>
