<?xml version="1.0" encoding="utf-8"?>
<!-- Generator: Adobe Illustrator 25.0.0, SVG Export Plug-In . SVG Version: 6.00 Build 0)  -->
<svg version="1.1" id="Layer_1" xmlns="http://www.w3.org/2000/svg" xmlns:xlink="http://www.w3.org/1999/xlink" x="0px" y="0px"
	 width="1567.251px" height="2326.86px" viewBox="0 0 1567.251 2326.86" style="enable-background:new 0 0 1567.251 2326.86;"
	 xml:space="preserve">
<style type="text/css">
	.st0{enable-background:new    ;}
	.st1{fill:none;stroke:#000000;stroke-miterlimit:10;}
	.st2{fill:none;stroke:#FF00FF;stroke-width:2;stroke-miterlimit:10;}
	.st3{fill:none;stroke:#000000;stroke-width:0.871;stroke-miterlimit:10;}
</style>
<g class="st0">
	<path class="st1" d="M243.961,2228.3c-56.544-25.253-101.748-64.577-135.61-117.96c-33.875-53.383-50.8-120.543-50.8-201.478
		c0-64.28,13.346-121.969,40.038-173.065c26.691-51.082,65.438-91.119,116.237-120.112c50.8-28.979,110.641-43.481,179.522-43.481
		c29.275,0,57.689,4.883,85.242,14.637c27.552,9.767,49.36,24.108,65.437,43.051l13.776-44.773h145.513v247.113H573.302
		c-8.61-35.584-25.266-62.424-49.939-80.505c-24.687-18.082-50.518-27.122-77.491-27.122c-44.773,0-80.223,16.359-106.336,49.077
		c-26.126,32.719-39.176,77.788-39.176,135.181c0,57.984,12.915,103.471,38.746,136.472c25.831,33.015,62.276,49.509,109.35,49.509
		c12.054,0,24.108-1.144,36.162-3.444c12.055-2.287,21.809-4.735,29.275-7.318c7.453-2.584,12.336-4.157,14.637-4.736v-59.41
		h-80.936v-124.848h269.499v300.496c-43.051,22.965-89.264,40.468-138.624,52.521c-49.374,12.055-98.452,18.082-147.234,18.082
		C362.917,2266.185,300.493,2253.564,243.961,2228.3z"/>
	<path class="st1" d="M431.233,2240.984c-64.449,0-123.997-12.008-176.99-35.691c-51.681-23.081-93.604-59.568-124.613-108.451
		c-31.108-49.022-46.88-112.266-46.88-187.98c0-59.875,12.507-114.177,37.173-161.397c24.293-46.493,60.089-83.467,106.393-109.894
		c46.722-26.652,102.921-40.168,167.031-40.168c26.253,0,52.104,4.439,76.833,13.193c23.171,8.214,41.556,20.194,54.633,35.601
		l29.769,35.077l21.833-70.956h101.7v196.712h-85.943c-11.093-32.115-29.174-57.502-53.914-75.631
		c-28.987-21.232-60.069-31.996-92.387-31.996c-52.617,0-95.02,19.702-126.032,58.558c-29.646,37.127-44.681,87.898-44.681,150.9
		c0,63.476,14.838,114.617,44.102,152.004c30.721,39.266,74.189,59.177,129.194,59.177c13.604,0,27.359-1.31,40.887-3.892
		c13.288-2.521,24.022-5.223,32.789-8.256c9.773-3.389,12.294-4.05,12.55-4.114l19.049-4.794v-104.254h-80.936v-74.447h219.099
		v259.937c-37.264,18.555-77.357,33.132-119.402,43.399C525.302,2235.143,477.776,2240.984,431.233,2240.984z"/>
</g>
<g class="st0">
	<path class="st2" d="M949.261,2228.3c-56.544-25.253-101.748-64.577-135.61-117.96c-33.875-53.383-50.8-120.543-50.8-201.478
		c0-64.28,13.346-121.969,40.038-173.065c26.691-51.082,65.438-91.119,116.237-120.112c50.8-28.979,110.641-43.481,179.522-43.481
		c29.275,0,57.689,4.883,85.242,14.637c27.552,9.767,49.36,24.108,65.437,43.051l13.776-44.773h145.513v247.113h-130.014
		c-8.61-35.584-25.266-62.424-49.939-80.505c-24.687-18.082-50.518-27.122-77.491-27.122c-44.773,0-80.223,16.359-106.336,49.077
		c-26.126,32.719-39.176,77.788-39.176,135.181c0,57.984,12.915,103.471,38.746,136.472c25.831,33.015,62.276,49.509,109.35,49.509
		c12.054,0,24.108-1.144,36.162-3.444c12.055-2.287,21.809-4.735,29.275-7.318c7.453-2.584,12.336-4.157,14.637-4.736v-59.41
		h-80.936v-124.848h269.499v300.496c-43.051,22.965-89.264,40.468-138.624,52.521c-49.374,12.055-98.452,18.082-147.234,18.082
		C1068.217,2266.185,1005.793,2253.564,949.261,2228.3z"/>
</g>
<path class="st1" d="M447.593,1169.048v124.848h80.936v59.41c-2.301,0.579-7.184,2.152-14.637,4.736
	c-7.467,2.583-17.221,5.031-29.275,7.318c-12.054,2.301-24.108,3.444-36.162,3.444c-47.074,0-83.52-16.494-109.35-49.509
	c-25.831-33.001-38.746-78.487-38.746-136.472c0-57.393,13.05-102.462,39.176-135.181c26.113-32.718,61.563-49.077,106.336-49.077
	c26.974,0,52.805,9.04,77.491,27.122c24.674,18.081,41.329,44.921,49.939,80.505h130.014V859.081H557.803l-13.776,44.773
	c-16.076-18.942-37.885-33.284-65.437-43.051c-8.275-2.929-16.629-5.41-25.059-7.461v26.033c5.599,1.518,11.153,3.238,16.65,5.184
	c23.171,8.214,41.556,20.194,54.633,35.601l29.769,35.077l21.833-70.956h101.7v196.712h-85.943
	c-11.093-32.115-29.174-57.502-53.914-75.631c-28.987-21.232-60.069-31.996-92.387-31.996c-52.617,0-95.02,19.702-126.032,58.558
	c-29.646,37.127-44.681,87.898-44.681,150.9c0,63.476,14.838,114.617,44.102,152.004c30.721,39.266,74.189,59.177,129.194,59.177
	c13.604,0,27.359-1.31,40.887-3.892c13.288-2.521,24.022-5.223,32.789-8.256c9.773-3.389,12.294-4.05,12.55-4.114l19.049-4.794
	v-104.254h-80.936v-74.447h219.099v259.938c-37.264,18.555-77.357,33.132-119.402,43.399
	c-47.188,11.521-94.713,17.362-141.256,17.362c-64.449,0-123.997-12.008-176.99-35.691
	c-51.681-23.081-93.604-59.568-124.613-108.451c-31.108-49.022-46.88-112.267-46.88-187.98c0-59.875,12.507-114.177,37.173-161.397
	c24.293-46.493,60.089-83.467,106.393-109.894c14.029-8.003,28.918-14.812,44.613-20.435v-26.693
	c-20.157,6.617-39.195,15.025-57.104,25.242c-50.8,28.993-89.546,69.03-116.237,120.112
	c-26.691,51.097-40.038,108.785-40.038,173.065c0,80.936,16.925,148.096,50.8,201.479c33.862,53.383,79.066,92.707,135.61,117.96
	c56.531,25.265,118.955,37.885,187.272,37.885c48.782,0,97.86-6.027,147.234-18.082c49.36-12.054,95.573-29.557,138.624-52.521
	V1169.05H447.593V1169.048z"/>
<path class="st1" d="M1150.727,1169.048v124.848h80.936v59.41c-2.301,0.579-7.184,2.152-14.637,4.736
	c-7.467,2.583-17.221,5.031-29.275,7.318c-12.054,2.301-24.108,3.444-36.162,3.444c-47.074,0-83.52-16.494-109.35-49.509
	c-25.831-33.001-38.746-78.487-38.746-136.472c0-57.393,13.05-102.462,39.176-135.181c26.113-32.718,61.563-49.077,106.336-49.077
	c26.974,0,52.805,9.04,77.491,27.122c24.674,18.081,41.329,44.921,49.939,80.505h130.014V859.081h-145.513l-13.776,44.773
	c-16.076-18.942-37.885-33.284-65.437-43.051c-8.275-2.929-16.629-5.41-25.059-7.461v26.033c5.599,1.518,11.153,3.238,16.65,5.184
	c23.171,8.214,41.556,20.194,54.633,35.601l29.769,35.077l21.833-70.956h101.7v196.712h-85.943
	c-11.093-32.115-29.174-57.502-53.914-75.631c-28.987-21.232-60.069-31.996-92.387-31.996c-52.617,0-95.02,19.702-126.032,58.558
	c-29.646,37.127-44.681,87.898-44.681,150.9c0,63.476,14.838,114.617,44.102,152.004c30.721,39.266,74.189,59.177,129.194,59.177
	c13.604,0,27.359-1.31,40.887-3.892c13.288-2.521,24.022-5.223,32.789-8.256c9.773-3.389,12.294-4.05,12.55-4.114l19.049-4.794
	v-104.254h-80.936v-74.447h219.099v259.938c-37.264,18.555-77.357,33.132-119.402,43.399
	c-47.188,11.521-94.713,17.362-141.256,17.362c-64.449,0-123.997-12.008-176.99-35.691
	c-51.681-23.081-93.604-59.568-124.613-108.451c-31.108-49.022-46.88-112.267-46.88-187.98c0-59.875,12.507-114.177,37.173-161.397
	c24.293-46.493,60.089-83.467,106.393-109.894c14.029-8.003,28.918-14.812,44.613-20.435v-26.693
	c-20.157,6.617-39.195,15.025-57.104,25.242c-50.8,28.993-89.546,69.03-116.237,120.112
	c-26.691,51.097-40.038,108.785-40.038,173.065c0,80.936,16.925,148.096,50.8,201.479c33.862,53.383,79.066,92.707,135.61,117.96
	c56.531,25.265,118.955,37.885,187.272,37.885c48.782,0,97.86-6.027,147.234-18.082c49.36-12.054,95.573-29.557,138.624-52.521
	V1169.05h-269.498V1169.048z"/>
<path class="st1" d="M466.816,322.882V447.73h80.936v59.41c-2.301,0.579-7.184,2.152-14.637,4.736
	c-7.467,2.583-17.221,5.031-29.275,7.318c-12.054,2.301-24.108,3.444-36.162,3.444c-47.074,0-83.52-16.494-109.35-49.509
	c-25.831-33.001-38.746-78.487-38.746-136.472c0-57.393,13.05-102.462,39.176-135.181c26.113-32.718,61.563-49.077,106.336-49.077
	c26.974,0,52.805,9.04,77.491,27.122c24.674,18.081,41.329,44.921,49.939,80.505h130.014V12.915H577.026L563.25,57.688
	c-16.076-18.942-37.885-33.284-65.437-43.051C470.26,4.883,441.846,0,412.571,0C343.69,0,283.849,14.502,233.049,43.481
	c-50.8,28.993-89.546,69.03-116.237,120.112C90.12,214.69,76.774,272.378,76.774,336.659c0,80.936,16.925,148.096,50.8,201.479
	c33.862,53.383,79.066,92.707,135.61,117.96c17.464,7.805,35.491,14.399,54.08,19.791v32.826h257.76v-27.717
	c7.549-1.564,15.104-3.251,22.666-5.098c49.36-12.054,95.573-29.557,138.624-52.521V322.882H466.816z"/>
<path class="st3" d="M823.063,628.458v126.508h608.929V628.458H823.063z M1257.599,670.029H999.414v-15.12h258.185V670.029
	L1257.599,670.029z"/>
</svg>
