  0
SECTION
  2
HEADER
  9
$ACADVER
  1
AC1024
  9
$ACADMAINTVER
 70
     6
  9
$DWGCODEPAGE
  3
UNDEFINED
  9
$INSBASE
 10
0.0
 20
0.0
 30
0.0
  9
$EXTMIN
 10
1.000000000000000E+20
 20
1.000000000000000E+20
 30
1.000000000000000E+20
  9
$EXTMAX
 10
-1.000000000000000E+20
 20
-1.000000000000000E+20
 30
-1.000000000000000E+20
  9
$LIMMIN
 10
0.0
 20
0.0
  9
$LIMMAX
 10
12.0
 20
9.0
  9
$ORTHOMODE
 70
     0
  9
$REGENMODE
 70
     1
  9
$FILLMODE
 70
     1
  9
$QTEXTMODE
 70
     0
  9
$MIRRTEXT
 70
     1
  9
$LTSCALE
 40
1.0
  9
$ATTMODE
 70
     1
  9
$TEXTSIZE
 40
0.2
  9
$TRACEWID
 40
0.05
  9
$TEXTSTYLE
  7
Standard
  9
$CLAYER
  8
0
  9
$CELTYPE
  6
ByLayer
  9
$CECOLOR
 62
   256
  9
$CELTSCALE
 40
1.0
  9
$DISPSILH
 70
     0
  9
$DIMSCALE
 40
1.0
  9
$DIMASZ
 40
0.18
  9
$DIMEXO
 40
0.0625
  9
$DIMDLI
 40
0.38
  9
$DIMRND
 40
0.0
  9
$DIMDLE
 40
0.0
  9
$DIMEXE
 40
0.18
  9
$DIMTP
 40
0.0
  9
$DIMTM
 40
0.0
  9
$DIMTXT
 40
0.18
  9
$DIMCEN
 40
0.09
  9
$DIMTSZ
 40
0.0
  9
$DIMTOL
 70
     0
  9
$DIMLIM
 70
     0
  9
$DIMTIH
 70
     1
  9
$DIMTOH
 70
     1
  9
$DIMSE1
 70
     0
  9
$DIMSE2
 70
     0
  9
$DIMTAD
 70
     0
  9
$DIMZIN
 70
     0
  9
$DIMBLK
  1

  9
$DIMASO
 70
     1
  9
$DIMSHO
 70
     1
  9
$DIMPOST
  1

  9
$DIMAPOST
  1

  9
$DIMALT
 70
     0
  9
$DIMALTD
 70
     2
  9
$DIMALTF
 40
25.4
  9
$DIMLFAC
 40
1.0
  9
$DIMTOFL
 70
     0
  9
$DIMTVP
 40
0.0
  9
$DIMTIX
 70
     0
  9
$DIMSOXD
 70
     0
  9
$DIMSAH
 70
     0
  9
$DIMBLK1
  1

  9
$DIMBLK2
  1

  9
$DIMSTYLE
  2
Standard
  9
$DIMCLRD
 70
     0
  9
$DIMCLRE
 70
     0
  9
$DIMCLRT
 70
     0
  9
$DIMTFAC
 40
1.0
  9
$DIMGAP
 40
0.09
  9
$DIMJUST
 70
     0
  9
$DIMSD1
 70
     0
  9
$DIMSD2
 70
     0
  9
$DIMTOLJ
 70
     1
  9
$DIMTZIN
 70
     0
  9
$DIMALTZ
 70
     0
  9
$DIMALTTZ
 70
     0
  9
$DIMUPT
 70
     0
  9
$DIMDEC
 70
     4
  9
$DIMTDEC
 70
     4
  9
$DIMALTU
 70
     2
  9
$DIMALTTD
 70
     2
  9
$DIMTXSTY
  7
Standard
  9
$DIMAUNIT
 70
     0
  9
$DIMADEC
 70
     0
  9
$DIMALTRND
 40
0.0
  9
$DIMAZIN
 70
     0
  9
$DIMDSEP
 70
    46
  9
$DIMATFIT
 70
     3
  9
$DIMFRAC
 70
     0
  9
$DIMLDRBLK
  1

  9
$DIMLUNIT
 70
     2
  9
$DIMLWD
 70
    -2
  9
$DIMLWE
 70
    -2
  9
$DIMTMOVE
 70
     0
  9
$DIMFXL
 40
1.0
  9
$DIMFXLON
 70
     0
  9
$DIMJOGANG
 40
0.7853981633974483
  9
$DIMTFILL
 70
     0
  9
$DIMTFILLCLR
 70
     0
  9
$DIMARCSYM
 70
     0
  9
$DIMLTYPE
  6

  9
$DIMLTEX1
  6

  9
$DIMLTEX2
  6

  9
$DIMTXTDIRECTION
 70
     0
  9
$LUNITS
 70
     2
  9
$LUPREC
 70
     4
  9
$SKETCHINC
 40
0.1
  9
$FILLETRAD
 40
0.5
  9
$AUNITS
 70
     0
  9
$AUPREC
 70
     0
  9
$MENU
  1
.
  9
$ELEVATION
 40
0.0
  9
$PELEVATION
 40
0.0
  9
$THICKNESS
 40
0.0
  9
$LIMCHECK
 70
     0
  9
$CHAMFERA
 40
0.5
  9
$CHAMFERB
 40
0.5
  9
$CHAMFERC
 40
1.0
  9
$CHAMFERD
 40
0.0
  9
$SKPOLY
 70
     0
  9
$TDCREATE
 40
2459305.896423611
  9
$TDUCREATE
 40
2459306.146423611
  9
$TDUPDATE
 40
2459305.896423611
  9
$TDUUPDATE
 40
2459306.146423611
  9
$TDINDWG
 40
0.0000000116
  9
$TDUSRTIMER
 40
0.0000000116
  9
$USRTIMER
 70
     1
  9
$ANGBASE
 50
0.0
  9
$ANGDIR
 70
     0
  9
$PDMODE
 70
     0
  9
$PDSIZE
 40
0.0
  9
$PLINEWID
 40
0.0
  9
$SPLFRAME
 70
     0
  9
$SPLINETYPE
 70
     6
  9
$SPLINESEGS
 70
     8
  9
$HANDSEED
  5
60
  9
$SURFTAB1
 70
     6
  9
$SURFTAB2
 70
     6
  9
$SURFTYPE
 70
     6
  9
$SURFU
 70
     6
  9
$SURFV
 70
     6
  9
$UCSBASE
  2

  9
$UCSNAME
  2

  9
$UCSORG
 10
0.0
 20
0.0
 30
0.0
  9
$UCSXDIR
 10
1.0
 20
0.0
 30
0.0
  9
$UCSYDIR
 10
0.0
 20
1.0
 30
0.0
  9
$UCSORTHOREF
  2

  9
$UCSORTHOVIEW
 70
     0
  9
$UCSORGTOP
 10
0.0
 20
0.0
 30
0.0
  9
$UCSORGBOTTOM
 10
0.0
 20
0.0
 30
0.0
  9
$UCSORGLEFT
 10
0.0
 20
0.0
 30
0.0
  9
$UCSORGRIGHT
 10
0.0
 20
0.0
 30
0.0
  9
$UCSORGFRONT
 10
0.0
 20
0.0
 30
0.0
  9
$UCSORGBACK
 10
0.0
 20
0.0
 30
0.0
  9
$PUCSBASE
  2

  9
$PUCSNAME
  2

  9
$PUCSORG
 10
0.0
 20
0.0
 30
0.0
  9
$PUCSXDIR
 10
1.0
 20
0.0
 30
0.0
  9
$PUCSYDIR
 10
0.0
 20
1.0
 30
0.0
  9
$PUCSORTHOREF
  2

  9
$PUCSORTHOVIEW
 70
     0
  9
$PUCSORGTOP
 10
0.0
 20
0.0
 30
0.0
  9
$PUCSORGBOTTOM
 10
0.0
 20
0.0
 30
0.0
  9
$PUCSORGLEFT
 10
0.0
 20
0.0
 30
0.0
  9
$PUCSORGRIGHT
 10
0.0
 20
0.0
 30
0.0
  9
$PUCSORGFRONT
 10
0.0
 20
0.0
 30
0.0
  9
$PUCSORGBACK
 10
0.0
 20
0.0
 30
0.0
  9
$USERI1
 70
     0
  9
$USERI2
 70
     0
  9
$USERI3
 70
     0
  9
$USERI4
 70
     0
  9
$USERI5
 70
     0
  9
$USERR1
 40
0.0
  9
$USERR2
 40
0.0
  9
$USERR3
 40
0.0
  9
$USERR4
 40
0.0
  9
$USERR5
 40
0.0
  9
$WORLDVIEW
 70
     1
  9
$SHADEDGE
 70
     3
  9
$SHADEDIF
 70
    70
  9
$TILEMODE
 70
     1
  9
$MAXACTVP
 70
    64
  9
$PINSBASE
 10
0.0
 20
0.0
 30
0.0
  9
$PLIMCHECK
 70
     0
  9
$PEXTMIN
 10
1.000000000000000E+20
 20
1.000000000000000E+20
 30
1.000000000000000E+20
  9
$PEXTMAX
 10
-1.000000000000000E+20
 20
-1.000000000000000E+20
 30
-1.000000000000000E+20
  9
$PLIMMIN
 10
0.0
 20
0.0
  9
$PLIMMAX
 10
12.0
 20
9.0
  9
$UNITMODE
 70
     0
  9
$VISRETAIN
 70
     1
  9
$PLINEGEN
 70
     0
  9
$PSLTSCALE
 70
     1
  9
$TREEDEPTH
 70
  3020
  9
$CMLSTYLE
  2
Standard
  9
$CMLJUST
 70
     0
  9
$CMLSCALE
 40
1.0
  9
$PROXYGRAPHICS
 70
     1
  9
$MEASUREMENT
 70
     0
  9
$CELWEIGHT
370
    -1
  9
$ENDCAPS
280
     0
  9
$JOINSTYLE
280
     0
  9
$LWDISPLAY
290
     1
  9
$INSUNITS
 70
     1
  9
$HYPERLINKBASE
  1

  9
$STYLESHEET
  1

  9
$XEDIT
290
     1
  9
$CEPSNTYPE
380
     0
  9
$PSTYLEMODE
290
     1
  9
$FINGERPRINTGUID
  2
{EBE6A8BB-D9AF-155A-4A41-AB0AB43E5948}
  9
$VERSIONGUID
  2
{FAEB1C32-E019-11D5-929B-00C0DF256EC4}
  9
$EXTNAMES
290
     1
  9
$PSVPSCALE
 40
0.0
  9
$OLESTARTUP
290
     0
  9
$SORTENTS
280
   127
  9
$INDEXCTL
280
     0
  9
$HIDETEXT
280
     1
  9
$XCLIPFRAME
280
     2
  9
$HALOGAP
280
     0
  9
$OBSCOLOR
 70
   257
  9
$OBSLTYPE
280
     0
  9
$INTERSECTIONDISPLAY
280
     0
  9
$INTERSECTIONCOLOR
 70
   257
  9
$DIMASSOC
280
     2
  9
$PROJECTNAME
  1

  9
$CAMERADISPLAY
290
     0
  9
$LENSLENGTH
 40
50.0
  9
$CAMERAHEIGHT
 40
0.0
  9
$STEPSPERSEC
 40
2.0
  9
$STEPSIZE
 40
6.0
  9
$3DDWFPREC
 40
2.0
  9
$PSOLWIDTH
 40
0.25
  9
$PSOLHEIGHT
 40
4.0
  9
$LOFTANG1
 40
1.570796326794897
  9
$LOFTANG2
 40
1.570796326794897
  9
$LOFTMAG1
 40
0.0
  9
$LOFTMAG2
 40
0.0
  9
$LOFTPARAM
 70
     7
  9
$LOFTNORMALS
280
     1
  9
$LATITUDE
 40
37.795
  9
$LONGITUDE
 40
-122.394
  9
$NORTHDIRECTION
 40
0.0
  9
$TIMEZONE
 70
 -8000
  9
$LIGHTGLYPHDISPLAY
280
     1
  9
$TILEMODELIGHTSYNCH
280
     1
  9
$CMATERIAL
347
3C
  9
$SOLIDHIST
280
     1
  9
$SHOWHIST
280
     1
  9
$DWFFRAME
280
     2
  9
$DGNFRAME
280
     2
  9
$REALWORLDSCALE
290
     1
  9
$INTERFERECOLOR
 62
   256
  9
$CSHADOW
280
     0
  9
$SHADOWPLANELOCATION
 40
0.0
  0
ENDSEC
  0
SECTION
  2
CLASSES
  0
CLASS
  1
ACDBDICTIONARYWDFLT
  2
AcDbDictionaryWithDefault
  3
ObjectDBX Classes
 90
        0
 91
        4
280
     0
281
     0
  0
CLASS
  1
VISUALSTYLE
  2
AcDbVisualStyle
  3
ObjectDBX Classes
 90
     4095
 91
        4
280
     0
281
     0
  0
CLASS
  1
MATERIAL
  2
AcDbMaterial
  3
ObjectDBX Classes
 90
     1153
 91
        4
280
     0
281
     0
  0
CLASS
  1
SUN
  2
AcDbSun
  3
SCENEOE
 90
     1024
 91
        4
280
     0
281
     0
  0
ENDSEC
  0
SECTION
  2
TABLES
  0
TABLE
  2
VPORT
  5
8
330
0
100
AcDbSymbolTable
 70
     1
  0
VPORT
  5
29
330
8
100
AcDbSymbolTableRecord
100
AcDbViewportTableRecord
  2
*Active
 70
     0
 10
0.0
 20
0.0
 11
1.0
 21
1.0
 12
0.0
 22
0.0
 13
0.0
 23
0.0
 14
0.5
 24
0.5
 15
0.5
 25
0.5
 16
0.0
 26
0.0
 36
1.0
 17
10.88368733723958
 27
16.15875074598524
 37
0.0
 40
32.31750149197048
 41
0.6735475723544849
 42
50.0
 43
0.0
 44
0.0
 50
0.0
 51
0.0
 71
     0
 72
   100
 73
     1
 74
     3
 75
     0
 76
     0
 77
     0
 78
     0
281
     0
 65
     1
110
0.0
120
0.0
130
0.0
111
1.0
121
0.0
131
0.0
112
0.0
122
1.0
132
0.0
 79
     0
146
0.0
 60
     3
 61
     5
292
     1
282
     1
141
0.0
142
0.0
 63
   250
361
3F
  0
ENDTAB
  0
TABLE
  2
LTYPE
  5
5
330
0
100
AcDbSymbolTable
 70
     1
  0
LTYPE
  5
14
330
5
100
AcDbSymbolTableRecord
100
AcDbLinetypeTableRecord
  2
ByBlock
 70
     0
  3

 72
    65
 73
     0
 40
0.0
  0
LTYPE
  5
15
330
5
100
AcDbSymbolTableRecord
100
AcDbLinetypeTableRecord
  2
ByLayer
 70
     0
  3

 72
    65
 73
     0
 40
0.0
  0
LTYPE
  5
16
330
5
100
AcDbSymbolTableRecord
100
AcDbLinetypeTableRecord
  2
Continuous
 70
     0
  3
Solid line
 72
    65
 73
     0
 40
0.0
  0
ENDTAB
  0
TABLE
  2
LAYER
  5
2
330
0
100
AcDbSymbolTable
 70
     2
  0
LAYER
  5
10
330
2
100
AcDbSymbolTableRecord
100
AcDbLayerTableRecord
  2
0
 70
     0
 62
     7
  6
Continuous
370
    -3
390
F
347
3E
  0
LAYER
  5
40
330
2
100
AcDbSymbolTableRecord
100
AcDbLayerTableRecord
  2
Layer 1
 70
     0
 62
     7
  6
Continuous
370
    -3
390
F
347
3E
  0
ENDTAB
  0
TABLE
  2
STYLE
  5
3
330
0
100
AcDbSymbolTable
 70
     1
  0
STYLE
  5
11
330
3
100
AcDbSymbolTableRecord
100
AcDbTextStyleTableRecord
  2
Standard
 70
     0
 40
0.0
 41
1.0
 50
0.0
 71
     0
 42
0.2
  3
txt
  4

  0
ENDTAB
  0
TABLE
  2
VIEW
  5
6
330
0
100
AcDbSymbolTable
 70
     0
  0
ENDTAB
  0
TABLE
  2
UCS
  5
7
330
0
100
AcDbSymbolTable
 70
     0
  0
ENDTAB
  0
TABLE
  2
APPID
  5
9
330
0
100
AcDbSymbolTable
 70
     1
  0
APPID
  5
12
330
9
100
AcDbSymbolTableRecord
100
AcDbRegAppTableRecord
  2
ACAD
 70
     0
  0
ENDTAB
  0
TABLE
  2
DIMSTYLE
  5
A
330
0
100
AcDbSymbolTable
 70
     1
100
AcDbDimStyleTable
  0
DIMSTYLE
105
27
330
A
100
AcDbSymbolTableRecord
100
AcDbDimStyleTableRecord
  2
Standard
 70
     0
178
     0
340
11
  0
ENDTAB
  0
TABLE
  2
BLOCK_RECORD
  5
1
330
0
100
AcDbSymbolTable
 70
     3
  0
BLOCK_RECORD
  5
1F
330
1
100
AcDbSymbolTableRecord
100
AcDbBlockTableRecord
  2
*Model_Space
340
22
 70
     0
280
     1
281
     0
  0
BLOCK_RECORD
  5
1B
330
1
100
AcDbSymbolTableRecord
100
AcDbBlockTableRecord
  2
*Paper_Space
340
1E
 70
     0
280
     1
281
     0
  0
BLOCK_RECORD
  5
23
330
1
100
AcDbSymbolTableRecord
100
AcDbBlockTableRecord
  2
*Paper_Space0
340
26
 70
     0
280
     1
281
     0
  0
BLOCK_RECORD
  5
41
330
1
100
AcDbSymbolTableRecord
100
AcDbBlockTableRecord
  2
block 2
340
0
102
{BLKREFS
331
42
102
}
 70
     0
280
     1
281
     0
  0
BLOCK_RECORD
  5
47
330
1
100
AcDbSymbolTableRecord
100
AcDbBlockTableRecord
  2
block 3
340
0
102
{BLKREFS
331
48
102
}
 70
     0
280
     1
281
     0
  0
ENDTAB
  0
ENDSEC
  0
SECTION
  2
BLOCKS
  0
BLOCK
  5
20
330
1F
100
AcDbEntity
  8
0
100
AcDbBlockBegin
  2
*Model_Space
 70
     0
 10
0.0
 20
0.0
 30
0.0
  3
*Model_Space
  1

  0
ENDBLK
  5
21
330
1F
100
AcDbEntity
  8
0
100
AcDbBlockEnd
  0
BLOCK
  5
1C
330
1B
100
AcDbEntity
 67
     1
  8
0
100
AcDbBlockBegin
  2
*Paper_Space
 70
     0
 10
0.0
 20
0.0
 30
0.0
  3
*Paper_Space
  1

  0
ENDBLK
  5
1D
330
1B
100
AcDbEntity
 67
     1
  8
0
100
AcDbBlockEnd
  0
BLOCK
  5
24
330
23
100
AcDbEntity
  8
0
100
AcDbBlockBegin
  2
*Paper_Space0
 70
     0
 10
0.0
 20
0.0
 30
0.0
  3
*Paper_Space0
  1

  0
ENDBLK
  5
25
330
23
100
AcDbEntity
  8
0
100
AcDbBlockEnd
  0
BLOCK
  5
43
330
41
100
AcDbEntity
  8
0
100
AcDbBlockBegin
  2
block 2
 70
     0
 10
0.0
 20
0.0
 30
0.0
  3
block 2
  1

  0
SPLINE
  5
45
330
41
100
AcDbEntity
  8
Layer 1
 62
     7
420
 16777215
370
    35
100
AcDbSpline
210
0.0
220
0.0
230
1.0
 70
    11
 71
     3
 72
    89
 73
    85
 74
     0
 42
0.0000000001
 43
0.0000000001
 12
1.0
 22
0.0
 32
0.0
 13
1.0
 23
0.0
 33
0.0
 40
0.0
 40
0.0
 40
0.0
 40
0.0
 40
1.0
 40
1.0
 40
1.0
 40
2.0
 40
2.0
 40
2.0
 40
3.0
 40
3.0
 40
3.0
 40
4.0
 40
4.0
 40
4.0
 40
5.0
 40
5.0
 40
5.0
 40
6.0
 40
6.0
 40
6.0
 40
7.0
 40
7.0
 40
7.0
 40
8.0
 40
8.0
 40
8.0
 40
9.0
 40
9.0
 40
9.0
 40
10.0
 40
10.0
 40
10.0
 40
11.0
 40
11.0
 40
11.0
 40
12.0
 40
12.0
 40
12.0
 40
13.0
 40
13.0
 40
13.0
 40
14.0
 40
14.0
 40
14.0
 40
15.0
 40
15.0
 40
15.0
 40
16.0
 40
16.0
 40
16.0
 40
17.0
 40
17.0
 40
17.0
 40
18.0
 40
18.0
 40
18.0
 40
19.0
 40
19.0
 40
19.0
 40
20.0
 40
20.0
 40
20.0
 40
21.0
 40
21.0
 40
21.0
 40
22.0
 40
22.0
 40
22.0
 40
23.0
 40
23.0
 40
23.0
 40
24.0
 40
24.0
 40
24.0
 40
25.0
 40
25.0
 40
25.0
 40
26.0
 40
26.0
 40
26.0
 40
27.0
 40
27.0
 40
27.0
 40
28.0
 40
28.0
 40
28.0
 40
28.0
 10
3.38834720187717
 20
1.368889668782559
 30
0.0
 10
2.603013780381944
 20
1.71962480333117
 30
0.0
 10
1.975180519951714
 20
2.265791117350267
 30
0.0
 10
1.504874971177843
 20
3.00722245958117
 30
0.0
 10
1.034388860066732
 20
3.748653801812073
 30
0.0
 10
0.7993194262186686
 20
4.681430358886725
 30
0.0
 10
0.7993194262186686
 20
5.805528394911031
 30
0.0
 10
0.7993194262186686
 20
6.69830657958985
 30
0.0
 10
0.9846804936726887
 20
7.499542202419711
 30
0.0
 10
1.355402734544542
 20
8.209208136664504
 30
0.0
 10
1.726111094156901
 20
8.918680792914502
 30
0.0
 10
2.264264000786675
 20
9.474750061035163
 30
0.0
 10
2.969805399576823
 20
9.877431199815545
 30
0.0
 10
3.675360785590278
 20
10.27991736518013
 30
0.0
 10
4.506485833062066
 20
10.48133338080513
 30
0.0
 10
5.46316655476888
 20
10.48133338080513
 30
0.0
 10
5.869763692220052
 20
10.48133338080513
 30
0.0
 10
6.264402601453993
 20
10.41351314968534
 30
0.0
 10
6.647083282470703
 20
10.27804222954645
 30
0.0
 10
7.029749976264106
 20
10.14238989935981
 30
0.0
 10
7.332639058430989
 20
9.943208448621968
 30
0.0
 10
7.55593024359809
 20
9.680111321343322
 30
0.0
 10
7.55593024359809
 20
9.680111321343322
 30
0.0
 10
7.747263590494791
 20
10.30195783827041
 30
0.0
 10
7.747263590494791
 20
10.30195783827041
 30
0.0
 10
7.747263590494791
 20
10.30195783827041
 30
0.0
 10
9.768277486165363
 20
10.30195783827041
 30
0.0
 10
9.768277486165363
 20
10.30195783827041
 30
0.0
 10
9.768277486165363
 20
10.30195783827041
 30
0.0
 10
9.768277486165363
 20
6.86983232286242
 30
0.0
 10
9.768277486165363
 20
6.86983232286242
 30
0.0
 10
9.768277486165363
 20
6.86983232286242
 30
0.0
 10
7.962527804904513
 20
6.86983232286242
 30
0.0
 10
7.962527804904513
 20
6.86983232286242
 30
0.0
 10
7.842944675021701
 20
7.364054328070753
 30
0.0
 10
7.611611260308159
 20
7.736831631130649
 30
0.0
 10
7.268930223253038
 20
7.98795739067926
 30
0.0
 10
6.926055060492621
 20
8.239096713595927
 30
0.0
 10
6.567291259765625
 20
8.364651116265197
 30
0.0
 10
6.192666371663411
 20
8.364651116265197
 30
0.0
 10
5.570819007025825
 20
8.364651116265197
 30
0.0
 10
5.078458150227864
 20
8.137442660861552
 30
0.0
 10
4.715777503119575
 20
7.68302575005426
 30
0.0
 10
4.352916293674045
 20
7.228595275878913
 30
0.0
 10
4.171666463216146
 20
6.60263736300999
 30
0.0
 10
4.171666463216146
 20
5.805511440700962
 30
0.0
 10
4.171666463216146
 20
5.000177985297316
 30
0.0
 10
4.351041581895617
 20
4.368414950900615
 30
0.0
 10
4.709805382622613
 20
3.910066358778219
 30
0.0
 10
5.068569183349609
 20
3.451524488661031
 30
0.0
 10
5.574749840630425
 20
3.222442593044712
 30
0.0
 10
6.228555467393663
 20
3.222442593044712
 30
0.0
 10
6.39597193400065
 20
3.222442593044712
 30
0.0
 10
6.563388824462891
 20
3.238332078721795
 30
0.0
 10
6.730805291069878
 20
3.270277201334642
 30
0.0
 10
6.898235744900173
 20
3.302042609320754
 30
0.0
 10
7.033707936604817
 20
3.336042582194017
 30
0.0
 10
7.137402852376302
 20
3.371917690700962
 30
0.0
 10
7.240916781955295
 20
3.407806362575962
 30
0.0
 10
7.308736165364583
 20
3.429653557671448
 30
0.0
 10
7.340694851345486
 20
3.437696634928392
 30
0.0
 10
7.340694851345486
 20
3.437696634928392
 30
0.0
 10
7.340694851345486
 20
4.262835998535163
 30
0.0
 10
7.340694851345486
 20
4.262835998535163
 30
0.0
 10
7.340694851345486
 20
4.262835998535163
 30
0.0
 10
6.216583675808376
 20
4.262835998535163
 30
0.0
 10
6.216583675808376
 20
4.262835998535163
 30
0.0
 10
6.216583675808376
 20
4.262835998535163
 30
0.0
 10
6.216583675808376
 20
5.996836310492628
 30
0.0
 10
6.216583675808376
 20
5.996836310492628
 30
0.0
 10
6.216583675808376
 20
5.996836310492628
 30
0.0
 10
9.959625244140625
 20
5.996836310492628
 30
0.0
 10
9.959625244140625
 20
5.996836310492628
 30
0.0
 10
9.959625244140625
 20
5.996836310492628
 30
0.0
 10
9.959625244140625
 20
1.82327945285374
 30
0.0
 10
9.959625244140625
 20
1.82327945285374
 30
0.0
 10
9.3616943359375
 20
1.504319898817281
 30
0.0
 10
8.719847785101996
 20
1.261223653157559
 30
0.0
 10
8.034291585286457
 20
1.093821173773879
 30
0.0
 10
7.348541259765625
 20
0.9263915676540869
 30
0.0
 10
6.666902754041883
 20
0.8426818508572119
 30
0.0
 10
5.989374796549479
 20
0.8426818508572119
 30
0.0
 10
5.040513780381944
 20
0.842708977593323
 30
0.0
 10
4.173514048258463
 20
1.018001946343323
 30
0.0
 10
3.38834720187717
 20
1.368889668782559
 30
0.0
  0
SPLINE
  5
46
330
41
100
AcDbEntity
  8
Layer 1
 62
     7
420
 16777215
370
    35
100
AcDbSpline
210
0.0
220
0.0
230
1.0
 70
    11
 71
     3
 72
    95
 73
    91
 74
     0
 42
0.0000000001
 43
0.0000000001
 12
1.0
 22
0.0
 32
0.0
 13
1.0
 23
0.0
 33
0.0
 40
0.0
 40
0.0
 40
0.0
 40
0.0
 40
1.0
 40
1.0
 40
1.0
 40
2.0
 40
2.0
 40
2.0
 40
3.0
 40
3.0
 40
3.0
 40
4.0
 40
4.0
 40
4.0
 40
5.0
 40
5.0
 40
5.0
 40
6.0
 40
6.0
 40
6.0
 40
7.0
 40
7.0
 40
7.0
 40
8.0
 40
8.0
 40
8.0
 40
9.0
 40
9.0
 40
9.0
 40
10.0
 40
10.0
 40
10.0
 40
11.0
 40
11.0
 40
11.0
 40
12.0
 40
12.0
 40
12.0
 40
13.0
 40
13.0
 40
13.0
 40
14.0
 40
14.0
 40
14.0
 40
15.0
 40
15.0
 40
15.0
 40
16.0
 40
16.0
 40
16.0
 40
17.0
 40
17.0
 40
17.0
 40
18.0
 40
18.0
 40
18.0
 40
19.0
 40
19.0
 40
19.0
 40
20.0
 40
20.0
 40
20.0
 40
21.0
 40
21.0
 40
21.0
 40
22.0
 40
22.0
 40
22.0
 40
23.0
 40
23.0
 40
23.0
 40
24.0
 40
24.0
 40
24.0
 40
25.0
 40
25.0
 40
25.0
 40
26.0
 40
26.0
 40
26.0
 40
27.0
 40
27.0
 40
27.0
 40
28.0
 40
28.0
 40
28.0
 40
29.0
 40
29.0
 40
29.0
 40
30.0
 40
30.0
 40
30.0
 40
30.0
 10
5.989347245958116
 20
1.19272525363499
 30
0.0
 10
5.094222174750434
 20
1.19272525363499
 30
0.0
 10
4.267166561550564
 20
1.359503818088115
 30
0.0
 10
3.531152725219727
 20
1.688432447645406
 30
0.0
 10
2.813361061943902
 20
2.009002651638462
 30
0.0
 10
2.231097327338325
 20
2.51576738145617
 30
0.0
 10
1.800416734483507
 20
3.194695332845059
 30
0.0
 10
1.368361155192057
 20
3.875556064181865
 30
0.0
 10
1.149305555555556
 20
4.753945210774746
 30
0.0
 10
1.149305555555556
 20
5.805528394911031
 30
0.0
 10
1.149305555555556
 20
6.637125617133253
 30
0.0
 10
1.32301394144694
 20
7.391320088704433
 30
0.0
 10
1.665597279866536
 20
8.047153015136725
 30
0.0
 10
2.003000047471788
 20
8.692889709472663
 30
0.0
 10
2.500166787041558
 20
9.206417473687072
 30
0.0
 10
3.143277910020616
 20
9.573459167480475
 30
0.0
 10
3.792194790310329
 20
9.943625522189677
 30
0.0
 10
4.572736104329427
 20
10.13134762234159
 30
0.0
 10
5.463152991400825
 20
10.13134762234159
 30
0.0
 10
5.827777862548828
 20
10.13134762234159
 30
0.0
 10
6.186819712320963
 20
10.06969533284506
 30
0.0
 10
6.530278099907768
 20
9.948111606174052
 30
0.0
 10
6.85209740532769
 20
9.834028422037767
 30
0.0
 10
7.107444763183594
 20
9.66763980441624
 30
0.0
 10
7.289070129394531
 20
9.453653937445752
 30
0.0
 10
7.289070129394531
 20
9.453653937445752
 30
0.0
 10
7.702528211805555
 20
8.96647301567926
 30
0.0
 10
7.702528211805555
 20
8.96647301567926
 30
0.0
 10
7.702528211805555
 20
8.96647301567926
 30
0.0
 10
8.00576443142361
 20
9.951973775227872
 30
0.0
 10
8.00576443142361
 20
9.951973775227872
 30
0.0
 10
8.00576443142361
 20
9.951973775227872
 30
0.0
 10
9.418264600965712
 20
9.951973775227872
 30
0.0
 10
9.418264600965712
 20
9.951973775227872
 30
0.0
 10
9.418264600965712
 20
9.951973775227872
 30
0.0
 10
9.418264600965712
 20
7.219862162272142
 30
0.0
 10
9.418264600965712
 20
7.219862162272142
 30
0.0
 10
9.418264600965712
 20
7.219862162272142
 30
0.0
 10
8.22461191813151
 20
7.219862162272142
 30
0.0
 10
8.22461191813151
 20
7.219862162272142
 30
0.0
 10
8.07054222954644
 20
7.665903693305128
 30
0.0
 10
7.819417317708333
 20
8.018500400119365
 30
0.0
 10
7.475806342230903
 20
8.270292460123704
 30
0.0
 10
7.073209126790364
 20
8.565182122124572
 30
0.0
 10
6.641514672173393
 20
8.71468095567492
 30
0.0
 10
6.192653656005859
 20
8.71468095567492
 30
0.0
 10
5.461861928304036
 20
8.71468095567492
 30
0.0
 10
4.872931586371528
 20
8.441041700575093
 30
0.0
 10
4.442209031846788
 20
7.901375630696621
 30
0.0
 10
4.03045908610026
 20
7.38572350396051
 30
0.0
 10
3.821639590793186
 20
6.680570780436205
 30
0.0
 10
3.821639590793186
 20
5.805541958279087
 30
0.0
 10
3.821639590793186
 20
4.92393151177301
 30
0.0
 10
4.027723100450304
 20
4.213639967176656
 30
0.0
 10
4.434167226155599
 20
3.694376593695754
 30
0.0
 10
4.860847896999783
 20
3.149013909233948
 30
0.0
 10
5.464569939507379
 20
2.87247378879124
 30
0.0
 10
6.228528340657552
 20
2.87247378879124
 30
0.0
 10
6.417472839355469
 20
2.87247378879124
 30
0.0
 10
6.608514573838975
 20
2.890669047037767
 30
0.0
 10
6.796403249104817
 20
2.926530592176656
 30
0.0
 10
6.980958726671006
 20
2.961544426812073
 30
0.0
 10
7.130042182074653
 20
2.999070875379781
 30
0.0
 10
7.251805623372396
 20
3.041198696560337
 30
0.0
 10
7.387541876898871
 20
3.088266974555129
 30
0.0
 10
7.422555711534288
 20
3.09744937472874
 30
0.0
 10
7.42611100938585
 20
3.098337775336379
 30
0.0
 10
7.42611100938585
 20
3.098337775336379
 30
0.0
 10
7.690680609809028
 20
3.1649203491211
 30
0.0
 10
7.690680609809028
 20
3.1649203491211
 30
0.0
 10
7.690680609809028
 20
3.1649203491211
 30
0.0
 10
7.690680609809028
 20
4.612892964680996
 30
0.0
 10
7.690680609809028
 20
4.612892964680996
 30
0.0
 10
7.690680609809028
 20
4.612892964680996
 30
0.0
 10
6.566569434271918
 20
4.612892964680996
 30
0.0
 10
6.566569434271918
 20
4.612892964680996
 30
0.0
 10
6.566569434271918
 20
4.612892964680996
 30
0.0
 10
6.566569434271918
 20
5.646879374186205
 30
0.0
 10
6.566569434271918
 20
5.646879374186205
 30
0.0
 10
6.566569434271918
 20
5.646879374186205
 30
0.0
 10
9.609610663519964
 20
5.646879374186205
 30
0.0
 10
9.609610663519964
 20
5.646879374186205
 30
0.0
 10
9.609610663519964
 20
5.646879374186205
 30
0.0
 10
9.609610663519964
 20
2.036644795735684
 30
0.0
 10
9.609610663519964
 20
2.036644795735684
 30
0.0
 10
9.092055426703558
 20
1.778937411838115
 30
0.0
 10
8.535207960340712
 20
1.576477016872837
 30
0.0
 10
7.951249864366319
 20
1.433881937662767
 30
0.0
 10
7.295861138237846
 20
1.273847757975267
 30
0.0
 10
6.635777791341146
 20
1.19272525363499
 30
0.0
 10
5.989347245958116
 20
1.19272525363499
 30
0.0
  0
ENDBLK
  5
44
330
41
100
AcDbEntity
  8
0
100
AcDbBlockEnd
  0
BLOCK
  5
49
330
47
100
AcDbEntity
  8
0
100
AcDbBlockBegin
  2
block 3
 70
     0
 10
0.0
 20
0.0
 30
0.0
  3
block 3
  1

  0
SPLINE
  5
4B
330
47
100
AcDbEntity
  8
Layer 1
 62
     6
420
 16711935
370
    70
100
AcDbSpline
210
0.0
220
0.0
230
1.0
 70
    11
 71
     3
 72
    89
 73
    85
 74
     0
 42
0.0000000001
 43
0.0000000001
 12
1.0
 22
0.0
 32
0.0
 13
1.0
 23
0.0
 33
0.0
 40
0.0
 40
0.0
 40
0.0
 40
0.0
 40
1.0
 40
1.0
 40
1.0
 40
2.0
 40
2.0
 40
2.0
 40
3.0
 40
3.0
 40
3.0
 40
4.0
 40
4.0
 40
4.0
 40
5.0
 40
5.0
 40
5.0
 40
6.0
 40
6.0
 40
6.0
 40
7.0
 40
7.0
 40
7.0
 40
8.0
 40
8.0
 40
8.0
 40
9.0
 40
9.0
 40
9.0
 40
10.0
 40
10.0
 40
10.0
 40
11.0
 40
11.0
 40
11.0
 40
12.0
 40
12.0
 40
12.0
 40
13.0
 40
13.0
 40
13.0
 40
14.0
 40
14.0
 40
14.0
 40
15.0
 40
15.0
 40
15.0
 40
16.0
 40
16.0
 40
16.0
 40
17.0
 40
17.0
 40
17.0
 40
18.0
 40
18.0
 40
18.0
 40
19.0
 40
19.0
 40
19.0
 40
20.0
 40
20.0
 40
20.0
 40
21.0
 40
21.0
 40
21.0
 40
22.0
 40
22.0
 40
22.0
 40
23.0
 40
23.0
 40
23.0
 40
24.0
 40
24.0
 40
24.0
 40
25.0
 40
25.0
 40
25.0
 40
26.0
 40
26.0
 40
26.0
 40
27.0
 40
27.0
 40
27.0
 40
28.0
 40
28.0
 40
28.0
 40
28.0
 10
13.1841803656684
 20
1.368889668782559
 30
0.0
 10
12.39884694417318
 20
1.71962480333117
 30
0.0
 10
11.77101389567057
 20
2.265791117350267
 30
0.0
 10
11.3007083468967
 20
3.00722245958117
 30
0.0
 10
10.83022223578559
 20
3.748653801812073
 30
0.0
 10
10.59515296088325
 20
4.681430358886725
 30
0.0
 10
10.59515296088325
 20
5.805528394911031
 30
0.0
 10
10.59515296088325
 20
6.69830657958985
 30
0.0
 10
10.78051418728299
 20
7.499542202419711
 30
0.0
 10
11.15123664008246
 20
8.209208136664504
 30
0.0
 10
11.52194468180338
 20
8.918680792914502
 30
0.0
 10
12.06009758843316
 20
9.474750061035163
 30
0.0
 10
12.76563941107856
 20
9.877431199815545
 30
0.0
 10
13.47119479709201
 20
10.27991736518013
 30
0.0
 10
14.30232069227431
 20
10.48133338080513
 30
0.0
 10
15.25900099012587
 20
10.48133338080513
 30
0.0
 10
15.66559855143229
 20
10.48133338080513
 30
0.0
 10
16.06023661295573
 20
10.41351314968534
 30
0.0
 10
16.44291687011719
 20
10.27804222954645
 30
0.0
 10
16.82558356391059
 20
10.14238989935981
 30
0.0
 10
17.12847222222222
 20
9.943208448621968
 30
0.0
 10
17.35176425509983
 20
9.680111321343322
 30
0.0
 10
17.35176425509983
 20
9.680111321343322
 30
0.0
 10
17.54309760199653
 20
10.30195783827041
 30
0.0
 10
17.54309760199653
 20
10.30195783827041
 30
0.0
 10
17.54309760199653
 20
10.30195783827041
 30
0.0
 10
19.5641106499566
 20
10.30195783827041
 30
0.0
 10
19.5641106499566
 20
10.30195783827041
 30
0.0
 10
19.5641106499566
 20
10.30195783827041
 30
0.0
 10
19.5641106499566
 20
6.86983232286242
 30
0.0
 10
19.5641106499566
 20
6.86983232286242
 30
0.0
 10
19.5641106499566
 20
6.86983232286242
 30
0.0
 10
17.75836012098524
 20
6.86983232286242
 30
0.0
 10
17.75836012098524
 20
6.86983232286242
 30
0.0
 10
17.63877699110243
 20
7.364054328070753
 30
0.0
 10
17.40744357638889
 20
7.736831631130649
 30
0.0
 10
17.06476338704427
 20
7.98795739067926
 30
0.0
 10
16.72188822428385
 20
8.239096713595927
 30
0.0
 10
16.36312527126736
 20
8.364651116265197
 30
0.0
 10
15.98849995930989
 20
8.364651116265197
 30
0.0
 10
15.36665344238281
 20
8.364651116265197
 30
0.0
 10
14.8742913140191
 20
8.137442660861552
 30
0.0
 10
14.51161024305556
 20
7.68302575005426
 30
0.0
 10
14.14874945746528
 20
7.228595275878913
 30
0.0
 10
13.96749877929688
 20
6.60263736300999
 30
0.0
 10
13.96749877929688
 20
5.805511440700962
 30
0.0
 10
13.96749877929688
 20
5.000177985297316
 30
0.0
 10
14.14687347412109
 20
4.368414950900615
 30
0.0
 10
14.50563727484809
 20
3.910066358778219
 30
0.0
 10
14.86440192328559
 20
3.451524488661031
 30
0.0
 10
15.3705817328559
 20
3.222442593044712
 30
0.0
 10
16.02438693576389
 20
3.222442593044712
 30
0.0
 10
16.19180297851562
 20
3.222442593044712
 30
0.0
 10
16.35922071668837
 20
3.238332078721795
 30
0.0
 10
16.5266367594401
 20
3.270277201334642
 30
0.0
 10
16.6940680609809
 20
3.302042609320754
 30
0.0
 10
16.82953898111979
 20
3.336042582194017
 30
0.0
 10
16.93323432074653
 20
3.371917690700962
 30
0.0
 10
17.03674825032552
 20
3.407806362575962
 30
0.0
 10
17.10456848144531
 20
3.429653557671448
 30
0.0
 10
17.13652547200521
 20
3.437696634928392
 30
0.0
 10
17.13652547200521
 20
3.437696634928392
 30
0.0
 10
17.13652547200521
 20
4.262835998535163
 30
0.0
 10
17.13652547200521
 20
4.262835998535163
 30
0.0
 10
17.13652547200521
 20
4.262835998535163
 30
0.0
 10
16.01241387261285
 20
4.262835998535163
 30
0.0
 10
16.01241387261285
 20
4.262835998535163
 30
0.0
 10
16.01241387261285
 20
4.262835998535163
 30
0.0
 10
16.01241387261285
 20
5.996836310492628
 30
0.0
 10
16.01241387261285
 20
5.996836310492628
 30
0.0
 10
16.01241387261285
 20
5.996836310492628
 30
0.0
 10
19.75545586480035
 20
5.996836310492628
 30
0.0
 10
19.75545586480035
 20
5.996836310492628
 30
0.0
 10
19.75545586480035
 20
5.996836310492628
 30
0.0
 10
19.75545586480035
 20
1.82327945285374
 30
0.0
 10
19.75545586480035
 20
1.82327945285374
 30
0.0
 10
19.15752495659722
 20
1.504319898817281
 30
0.0
 10
18.51567755805121
 20
1.261223653157559
 30
0.0
 10
17.83012220594618
 20
1.093821173773879
 30
0.0
 10
17.14437188042535
 20
0.9263915676540869
 30
0.0
 10
16.46273295084635
 20
0.8426818508572119
 30
0.0
 10
15.7852054172092
 20
0.8426818508572119
 30
0.0
 10
14.83634779188368
 20
0.842708977593323
 30
0.0
 10
13.96934763590495
 20
1.018001946343323
 30
0.0
 10
13.1841803656684
 20
1.368889668782559
 30
0.0
  0
ENDBLK
  5
4A
330
47
100
AcDbEntity
  8
0
100
AcDbBlockEnd
  0
ENDSEC
  0
SECTION
  2
ENTITIES
  0
INSERT
  5
42
330
1F
100
AcDbEntity
  8
Layer 1
100
AcDbBlockReference
  2
block 2
 10
0.0
 20
0.0
 30
0.0
  0
INSERT
  5
48
330
1F
100
AcDbEntity
  8
Layer 1
100
AcDbBlockReference
  2
block 3
 10
0.0
 20
0.0
 30
0.0
  0
SPLINE
  5
4C
330
1F
100
AcDbEntity
  8
Layer 1
 62
     7
420
 16777215
370
    35
100
AcDbSpline
210
0.0
220
0.0
230
1.0
 70
    11
 71
     3
 72
   188
 73
   184
 74
     0
 42
0.0000000001
 43
0.0000000001
 12
1.0
 22
0.0
 32
0.0
 13
1.0
 23
0.0
 33
0.0
 40
0.0
 40
0.0
 40
0.0
 40
0.0
 40
1.0
 40
1.0
 40
1.0
 40
2.0
 40
2.0
 40
2.0
 40
3.0
 40
3.0
 40
3.0
 40
4.0
 40
4.0
 40
4.0
 40
5.0
 40
5.0
 40
5.0
 40
6.0
 40
6.0
 40
6.0
 40
7.0
 40
7.0
 40
7.0
 40
8.0
 40
8.0
 40
8.0
 40
9.0
 40
9.0
 40
9.0
 40
10.0
 40
10.0
 40
10.0
 40
11.0
 40
11.0
 40
11.0
 40
12.0
 40
12.0
 40
12.0
 40
13.0
 40
13.0
 40
13.0
 40
14.0
 40
14.0
 40
14.0
 40
15.0
 40
15.0
 40
15.0
 40
16.0
 40
16.0
 40
16.0
 40
17.0
 40
17.0
 40
17.0
 40
18.0
 40
18.0
 40
18.0
 40
19.0
 40
19.0
 40
19.0
 40
20.0
 40
20.0
 40
20.0
 40
21.0
 40
21.0
 40
21.0
 40
22.0
 40
22.0
 40
22.0
 40
23.0
 40
23.0
 40
23.0
 40
24.0
 40
24.0
 40
24.0
 40
25.0
 40
25.0
 40
25.0
 40
26.0
 40
26.0
 40
26.0
 40
27.0
 40
27.0
 40
27.0
 40
28.0
 40
28.0
 40
28.0
 40
29.0
 40
29.0
 40
29.0
 40
30.0
 40
30.0
 40
30.0
 40
31.0
 40
31.0
 40
31.0
 40
32.0
 40
32.0
 40
32.0
 40
33.0
 40
33.0
 40
33.0
 40
34.0
 40
34.0
 40
34.0
 40
35.0
 40
35.0
 40
35.0
 40
36.0
 40
36.0
 40
36.0
 40
37.0
 40
37.0
 40
37.0
 40
38.0
 40
38.0
 40
38.0
 40
39.0
 40
39.0
 40
39.0
 40
40.0
 40
40.0
 40
40.0
 40
41.0
 40
41.0
 40
41.0
 40
42.0
 40
42.0
 40
42.0
 40
43.0
 40
43.0
 40
43.0
 40
44.0
 40
44.0
 40
44.0
 40
45.0
 40
45.0
 40
45.0
 40
46.0
 40
46.0
 40
46.0
 40
47.0
 40
47.0
 40
47.0
 40
48.0
 40
48.0
 40
48.0
 40
49.0
 40
49.0
 40
49.0
 40
50.0
 40
50.0
 40
50.0
 40
51.0
 40
51.0
 40
51.0
 40
52.0
 40
52.0
 40
52.0
 40
53.0
 40
53.0
 40
53.0
 40
54.0
 40
54.0
 40
54.0
 40
55.0
 40
55.0
 40
55.0
 40
56.0
 40
56.0
 40
56.0
 40
57.0
 40
57.0
 40
57.0
 40
58.0
 40
58.0
 40
58.0
 40
59.0
 40
59.0
 40
59.0
 40
60.0
 40
60.0
 40
60.0
 40
61.0
 40
61.0
 40
61.0
 40
61.0
 10
6.216569264729817
 20
16.08072404649523
 30
0.0
 10
6.216569264729817
 20
16.08072404649523
 30
0.0
 10
6.216569264729817
 20
14.34672373453777
 30
0.0
 10
6.216569264729817
 20
14.34672373453777
 30
0.0
 10
6.216569264729817
 20
14.34672373453777
 30
0.0
 10
7.340680440266927
 20
14.34672373453777
 30
0.0
 10
7.340680440266927
 20
14.34672373453777
 30
0.0
 10
7.340680440266927
 20
14.34672373453777
 30
0.0
 10
7.340680440266927
 20
13.521584370931
 30
0.0
 10
7.340680440266927
 20
13.521584370931
 30
0.0
 10
7.308721754286024
 20
13.51354298909506
 30
0.0
 10
7.240902370876736
 20
13.49169579399957
 30
0.0
 10
7.137388441297743
 20
13.45580712212457
 30
0.0
 10
7.033679962158203
 20
13.41993201361763
 30
0.0
 10
6.898207770453559
 20
13.38593204074436
 30
0.0
 10
6.730791303846571
 20
13.35416832817926
 30
0.0
 10
6.563374837239583
 20
13.32220964219836
 30
0.0
 10
6.395957946777344
 20
13.30633541531034
 30
0.0
 10
6.228541480170356
 20
13.30633541531034
 30
0.0
 10
5.574735853407118
 20
13.30633541531034
 30
0.0
 10
5.068541632758246
 20
13.53541900634766
 30
0.0
 10
4.709791395399305
 20
13.99396087646485
 30
0.0
 10
4.351027594672309
 20
14.45230777316624
 30
0.0
 10
4.171652475992838
 20
15.08405893961589
 30
0.0
 10
4.171652475992838
 20
15.88940595838759
 30
0.0
 10
4.171652475992838
 20
16.68653018527561
 30
0.0
 10
4.352902306450738
 20
17.31248979356554
 30
0.0
 10
4.715763515896267
 20
17.76692026774089
 30
0.0
 10
5.078444163004557
 20
18.22133717854818
 30
0.0
 10
5.570805019802517
 20
18.44854563395183
 30
0.0
 10
6.192652384440104
 20
18.44854563395183
 30
0.0
 10
6.567291259765625
 20
18.44854563395183
 30
0.0
 10
6.926055060492621
 20
18.32299038357205
 30
0.0
 10
7.268915812174479
 20
18.07185190836589
 30
0.0
 10
7.611610412597656
 20
17.82072614881728
 30
0.0
 10
7.842929416232638
 20
17.44794884575738
 30
0.0
 10
7.962513393825954
 20
16.95372684054905
 30
0.0
 10
7.962513393825954
 20
16.95372684054905
 30
0.0
 10
9.768263075086805
 20
16.95372684054905
 30
0.0
 10
9.768263075086805
 20
16.95372684054905
 30
0.0
 10
9.768263075086805
 20
16.95372684054905
 30
0.0
 10
9.768263075086805
 20
20.38582099066841
 30
0.0
 10
9.768263075086805
 20
20.38582099066841
 30
0.0
 10
9.768263075086805
 20
20.38582099066841
 30
0.0
 10
7.747263590494791
 20
20.38582099066841
 30
0.0
 10
7.747263590494791
 20
20.38582099066841
 30
0.0
 10
7.747263590494791
 20
20.38582099066841
 30
0.0
 10
7.55593024359809
 20
19.76397362603082
 30
0.0
 10
7.55593024359809
 20
19.76397362603082
 30
0.0
 10
7.332652621799045
 20
20.02705718994141
 30
0.0
 10
7.029749552408854
 20
20.22625135633681
 30
0.0
 10
6.647082858615451
 20
20.36190453423395
 30
0.0
 10
6.532152387830946
 20
20.40258531358507
 30
0.0
 10
6.416124555799696
 20
20.43704305013021
 30
0.0
 10
6.299041324191623
 20
20.4655295138889
 30
0.0
 10
6.299041324191623
 20
20.4655295138889
 30
0.0
 10
6.299041324191623
 20
20.1039597913954
 30
0.0
 10
6.299041324191623
 20
20.1039597913954
 30
0.0
 10
6.376805199517143
 20
20.08287638346355
 30
0.0
 10
6.453943888346354
 20
20.0589879014757
 30
0.0
 10
6.530291239420572
 20
20.03195949978299
 30
0.0
 10
6.852110544840494
 20
19.91787631564671
 30
0.0
 10
7.107457902696397
 20
19.75148685031468
 30
0.0
 10
7.289082845052083
 20
19.53750098334419
 30
0.0
 10
7.289082845052083
 20
19.53750098334419
 30
0.0
 10
7.702540927463107
 20
19.0503200615777
 30
0.0
 10
7.702540927463107
 20
19.0503200615777
 30
0.0
 10
7.702540927463107
 20
19.0503200615777
 30
0.0
 10
8.005777147081163
 20
20.0358199734158
 30
0.0
 10
8.005777147081163
 20
20.0358199734158
 30
0.0
 10
8.005777147081163
 20
20.0358199734158
 30
0.0
 10
9.418277316623263
 20
20.0358199734158
 30
0.0
 10
9.418277316623263
 20
20.0358199734158
 30
0.0
 10
9.418277316623263
 20
20.0358199734158
 30
0.0
 10
9.418277316623263
 20
17.30370920817058
 30
0.0
 10
9.418277316623263
 20
17.30370920817058
 30
0.0
 10
9.418277316623263
 20
17.30370920817058
 30
0.0
 10
8.224624633789062
 20
17.30370920817058
 30
0.0
 10
8.224624633789062
 20
17.30370920817058
 30
0.0
 10
8.070554945203993
 20
17.74975073920357
 30
0.0
 10
7.819430033365885
 20
18.1023482937283
 30
0.0
 10
7.475819057888454
 20
18.35413950602214
 30
0.0
 10
7.073221842447916
 20
18.64902832031251
 30
0.0
 10
6.641527387830946
 20
18.79852800157336
 30
0.0
 10
6.192666371663411
 20
18.79852800157336
 30
0.0
 10
5.461874643961588
 20
18.79852800157336
 30
0.0
 10
4.872944302029079
 20
18.52488874647353
 30
0.0
 10
4.44222174750434
 20
17.98522267659506
 30
0.0
 10
4.030471801757812
 20
17.46957054985895
 30
0.0
 10
3.821652306450738
 20
16.76441782633464
 30
0.0
 10
3.821652306450738
 20
15.88938900417752
 30
0.0
 10
3.821652306450738
 20
15.00777855767145
 30
0.0
 10
4.027735816107856
 20
14.29748701307509
 30
0.0
 10
4.43417994181315
 20
13.77822194417318
 30
0.0
 10
4.860860612657334
 20
13.23286095513238
 30
0.0
 10
5.46458265516493
 20
12.95631913926867
 30
0.0
 10
6.228541056315104
 20
12.95631913926867
 30
0.0
 10
6.417485555013021
 20
12.95631913926867
 30
0.0
 10
6.608527289496528
 20
12.9745143975152
 30
0.0
 10
6.796415964762369
 20
13.01037424723308
 30
0.0
 10
6.980971442328559
 20
13.0453880818685
 30
0.0
 10
7.130054897732204
 20
13.08291622585721
 30
0.0
 10
7.251819186740451
 20
13.12504065619575
 30
0.0
 10
7.387555440266927
 20
13.17211062961155
 30
0.0
 10
7.422569274902344
 20
13.18129133436416
 30
0.0
 10
7.426124572753906
 20
13.1821797349718
 30
0.0
 10
7.426124572753906
 20
13.1821797349718
 30
0.0
 10
7.690694173177083
 20
13.24876230875652
 30
0.0
 10
7.690694173177083
 20
13.24876230875652
 30
0.0
 10
7.690694173177083
 20
13.24876230875652
 30
0.0
 10
7.690694173177083
 20
14.69673492431641
 30
0.0
 10
7.690694173177083
 20
14.69673492431641
 30
0.0
 10
7.690694173177083
 20
14.69673492431641
 30
0.0
 10
6.566582997639974
 20
14.69673492431641
 30
0.0
 10
6.566582997639974
 20
14.69673492431641
 30
0.0
 10
6.566582997639974
 20
14.69673492431641
 30
0.0
 10
6.566582997639974
 20
15.73072133382162
 30
0.0
 10
6.566582997639974
 20
15.73072133382162
 30
0.0
 10
6.566582997639974
 20
15.73072133382162
 30
0.0
 10
9.60962422688802
 20
15.73072133382162
 30
0.0
 10
9.60962422688802
 20
15.73072133382162
 30
0.0
 10
9.60962422688802
 20
15.73072133382162
 30
0.0
 10
9.60962422688802
 20
12.12047149658204
 30
0.0
 10
9.60962422688802
 20
12.12047149658204
 30
0.0
 10
9.092068990071613
 20
11.86276241726346
 30
0.0
 10
8.535221523708767
 20
11.6603054131402
 30
0.0
 10
7.951263427734375
 20
11.51770694308811
 30
0.0
 10
7.295874701605903
 20
11.3576931084527
 30
0.0
 10
6.635804918077256
 20
11.27656721327041
 30
0.0
 10
5.989374796549479
 20
11.27656721327041
 30
0.0
 10
5.094249725341797
 20
11.27656721327041
 30
0.0
 10
4.267194112141927
 20
11.44334577772353
 30
0.0
 10
3.531180275811089
 20
11.77227610270183
 30
0.0
 10
2.813388612535265
 20
12.09284630669488
 30
0.0
 10
2.231124877929688
 20
12.59960934109159
 30
0.0
 10
1.80044428507487
 20
13.27854068332249
 30
0.0
 10
1.36838870578342
 20
13.9594014146593
 30
0.0
 10
1.149333106146918
 20
14.83780412462023
 30
0.0
 10
1.149333106146918
 20
15.88937374538846
 30
0.0
 10
1.149333106146918
 20
16.72097096761068
 30
0.0
 10
1.323041492038303
 20
17.47516543918186
 30
0.0
 10
1.665624830457899
 20
18.13099836561415
 30
0.0
 10
2.003027598063151
 20
18.77673421223959
 30
0.0
 10
2.500194337632921
 20
19.290261976454
 30
0.0
 10
3.143305460611979
 20
19.6573036702474
 30
0.0
 10
3.338152779473198
 20
19.76845631917318
 30
0.0
 10
3.544944339328342
 20
19.86302605523004
 30
0.0
 10
3.762930552164713
 20
19.94112308078343
 30
0.0
 10
3.762930552164713
 20
19.94112308078343
 30
0.0
 10
3.762930552164713
 20
20.31185909695096
 30
0.0
 10
3.762930552164713
 20
20.31185909695096
 30
0.0
 10
3.482972251044379
 20
20.21995625813803
 30
0.0
 10
3.218555450439453
 20
20.1031782023112
 30
0.0
 10
2.96981938680013
 20
19.96127570258247
 30
0.0
 10
2.264263788859049
 20
19.55859541151259
 30
0.0
 10
1.726124975416395
 20
19.00252614339193
 30
0.0
 10
1.355416615804036
 20
18.29305348714193
 30
0.0
 10
0.9847082561916775
 20
17.58337229410808
 30
0.0
 10
0.7993333074781629
 20
16.78215023464627
 30
0.0
 10
0.7993333074781629
 20
15.88937374538846
 30
0.0
 10
0.7993333074781629
 20
14.7652621459961
 30
0.0
 10
1.034402741326226
 20
13.83248558892145
 30
0.0
 10
1.504888852437337
 20
13.09105424669055
 30
0.0
 10
1.975194295247396
 20
12.34962290445964
 30
0.0
 10
2.603027767605252
 20
11.80345659044055
 30
0.0
 10
3.388361189100477
 20
11.45272145589193
 30
0.0
 10
4.173514048258463
 20
11.10181847466363
 30
0.0
 10
5.040513780381944
 20
10.9265407647027
 30
0.0
 10
5.989361233181423
 20
10.9265407647027
 30
0.0
 10
6.666889190673828
 20
10.9265407647027
 30
0.0
 10
7.348527696397569
 20
11.01024878607856
 30
0.0
 10
8.034278021918402
 20
11.17768008761936
 30
0.0
 10
8.719833374023438
 20
11.3450961303711
 30
0.0
 10
9.361680772569445
 20
11.58819407145183
 30
0.0
 10
9.95961168077257
 20
11.90713836669923
 30
0.0
 10
9.95961168077257
 20
11.90713836669923
 30
0.0
 10
9.95961168077257
 20
16.08069522433811
 30
0.0
 10
9.95961168077257
 20
16.08069522433811
 30
0.0
 10
9.95961168077257
 20
16.08069522433811
 30
0.0
 10
6.216569264729817
 20
16.08069522433811
 30
0.0
 10
6.216569264729817
 20
16.08069522433811
 30
0.0
 10
6.216569264729817
 20
16.08069522433811
 30
0.0
 10
6.216569264729817
 20
16.08072404649523
 30
0.0
 10
6.216569264729817
 20
16.08072404649523
 30
0.0
  0
SPLINE
  5
4D
330
1F
100
AcDbEntity
  8
Layer 1
 62
     7
420
 16777215
370
    35
100
AcDbSpline
210
0.0
220
0.0
230
1.0
 70
    11
 71
     3
 72
   188
 73
   184
 74
     0
 42
0.0000000001
 43
0.0000000001
 12
1.0
 22
0.0
 32
0.0
 13
1.0
 23
0.0
 33
0.0
 40
0.0
 40
0.0
 40
0.0
 40
0.0
 40
1.0
 40
1.0
 40
1.0
 40
2.0
 40
2.0
 40
2.0
 40
3.0
 40
3.0
 40
3.0
 40
4.0
 40
4.0
 40
4.0
 40
5.0
 40
5.0
 40
5.0
 40
6.0
 40
6.0
 40
6.0
 40
7.0
 40
7.0
 40
7.0
 40
8.0
 40
8.0
 40
8.0
 40
9.0
 40
9.0
 40
9.0
 40
10.0
 40
10.0
 40
10.0
 40
11.0
 40
11.0
 40
11.0
 40
12.0
 40
12.0
 40
12.0
 40
13.0
 40
13.0
 40
13.0
 40
14.0
 40
14.0
 40
14.0
 40
15.0
 40
15.0
 40
15.0
 40
16.0
 40
16.0
 40
16.0
 40
17.0
 40
17.0
 40
17.0
 40
18.0
 40
18.0
 40
18.0
 40
19.0
 40
19.0
 40
19.0
 40
20.0
 40
20.0
 40
20.0
 40
21.0
 40
21.0
 40
21.0
 40
22.0
 40
22.0
 40
22.0
 40
23.0
 40
23.0
 40
23.0
 40
24.0
 40
24.0
 40
24.0
 40
25.0
 40
25.0
 40
25.0
 40
26.0
 40
26.0
 40
26.0
 40
27.0
 40
27.0
 40
27.0
 40
28.0
 40
28.0
 40
28.0
 40
29.0
 40
29.0
 40
29.0
 40
30.0
 40
30.0
 40
30.0
 40
31.0
 40
31.0
 40
31.0
 40
32.0
 40
32.0
 40
32.0
 40
33.0
 40
33.0
 40
33.0
 40
34.0
 40
34.0
 40
34.0
 40
35.0
 40
35.0
 40
35.0
 40
36.0
 40
36.0
 40
36.0
 40
37.0
 40
37.0
 40
37.0
 40
38.0
 40
38.0
 40
38.0
 40
39.0
 40
39.0
 40
39.0
 40
40.0
 40
40.0
 40
40.0
 40
41.0
 40
41.0
 40
41.0
 40
42.0
 40
42.0
 40
42.0
 40
43.0
 40
43.0
 40
43.0
 40
44.0
 40
44.0
 40
44.0
 40
45.0
 40
45.0
 40
45.0
 40
46.0
 40
46.0
 40
46.0
 40
47.0
 40
47.0
 40
47.0
 40
48.0
 40
48.0
 40
48.0
 40
49.0
 40
49.0
 40
49.0
 40
50.0
 40
50.0
 40
50.0
 40
51.0
 40
51.0
 40
51.0
 40
52.0
 40
52.0
 40
52.0
 40
53.0
 40
53.0
 40
53.0
 40
54.0
 40
54.0
 40
54.0
 40
55.0
 40
55.0
 40
55.0
 40
56.0
 40
56.0
 40
56.0
 40
57.0
 40
57.0
 40
57.0
 40
58.0
 40
58.0
 40
58.0
 40
59.0
 40
59.0
 40
59.0
 40
60.0
 40
60.0
 40
60.0
 40
61.0
 40
61.0
 40
61.0
 40
61.0
 10
15.98232014973958
 20
16.08072404649523
 30
0.0
 10
15.98232014973958
 20
16.08072404649523
 30
0.0
 10
15.98232014973958
 20
14.34672373453777
 30
0.0
 10
15.98232014973958
 20
14.34672373453777
 30
0.0
 10
15.98232014973958
 20
14.34672373453777
 30
0.0
 10
17.10643174913194
 20
14.34672373453777
 30
0.0
 10
17.10643174913194
 20
14.34672373453777
 30
0.0
 10
17.10643174913194
 20
14.34672373453777
 30
0.0
 10
17.10643174913194
 20
13.521584370931
 30
0.0
 10
17.10643174913194
 20
13.521584370931
 30
0.0
 10
17.07447306315104
 20
13.51354298909506
 30
0.0
 10
17.00665452745226
 20
13.49169579399957
 30
0.0
 10
16.90314059787326
 20
13.45580712212457
 30
0.0
 10
16.79943169487847
 20
13.41993201361763
 30
0.0
 10
16.66396077473958
 20
13.38593204074436
 30
0.0
 10
16.49654303656684
 20
13.35416832817926
 30
0.0
 10
16.3291269938151
 20
13.32220964219836
 30
0.0
 10
16.16170925564236
 20
13.30633541531034
 30
0.0
 10
15.99429321289062
 20
13.30633541531034
 30
0.0
 10
15.34048800998264
 20
13.30633541531034
 30
0.0
 10
14.83429294162326
 20
13.53541900634766
 30
0.0
 10
14.47554355197483
 20
13.99396087646485
 30
0.0
 10
14.11677975124783
 20
14.45230777316624
 30
0.0
 10
13.93740505642361
 20
15.08405893961589
 30
0.0
 10
13.93740505642361
 20
15.88940595838759
 30
0.0
 10
13.93740505642361
 20
16.68653018527561
 30
0.0
 10
14.11865488688151
 20
17.31248979356554
 30
0.0
 10
14.48151652018229
 20
17.76692026774089
 30
0.0
 10
14.84419759114583
 20
18.22133717854818
 30
0.0
 10
15.33655802408854
 20
18.44854563395183
 30
0.0
 10
15.95840454101562
 20
18.44854563395183
 30
0.0
 10
16.33304341634114
 20
18.44854563395183
 30
0.0
 10
16.69180806477864
 20
18.32299038357205
 30
0.0
 10
17.03466796875
 20
18.07185190836589
 30
0.0
 10
17.37736172146267
 20
17.82072614881728
 30
0.0
 10
17.60868157280816
 20
17.44794884575738
 30
0.0
 10
17.72826470269097
 20
16.95372684054905
 30
0.0
 10
17.72826470269097
 20
16.95372684054905
 30
0.0
 10
19.53401523166233
 20
16.95372684054905
 30
0.0
 10
19.53401523166233
 20
16.95372684054905
 30
0.0
 10
19.53401523166233
 20
16.95372684054905
 30
0.0
 10
19.53401523166233
 20
20.38582099066841
 30
0.0
 10
19.53401523166233
 20
20.38582099066841
 30
0.0
 10
19.53401523166233
 20
20.38582099066841
 30
0.0
 10
17.51300048828125
 20
20.38582099066841
 30
0.0
 10
17.51300048828125
 20
20.38582099066841
 30
0.0
 10
17.51300048828125
 20
20.38582099066841
 30
0.0
 10
17.32166714138455
 20
19.76397362603082
 30
0.0
 10
17.32166714138455
 20
19.76397362603082
 30
0.0
 10
17.098388671875
 20
20.02705718994141
 30
0.0
 10
16.79548645019531
 20
20.22625135633681
 30
0.0
 10
16.41281975640191
 20
20.36190453423395
 30
0.0
 10
16.29788886176215
 20
20.40258531358507
 30
0.0
 10
16.1818610297309
 20
20.43704305013021
 30
0.0
 10
16.06477864583333
 20
20.4655295138889
 30
0.0
 10
16.06477864583333
 20
20.4655295138889
 30
0.0
 10
16.06477864583333
 20
20.1039597913954
 30
0.0
 10
16.06477864583333
 20
20.1039597913954
 30
0.0
 10
16.14254252115885
 20
20.08287638346355
 30
0.0
 10
16.21968078613281
 20
20.0589879014757
 30
0.0
 10
16.29602898491753
 20
20.03195949978299
 30
0.0
 10
16.61784871419271
 20
19.91787631564671
 30
0.0
 10
16.87319607204861
 20
19.75148685031468
 30
0.0
 10
17.05482143825955
 20
19.53750098334419
 30
0.0
 10
17.05482143825955
 20
19.53750098334419
 30
0.0
 10
17.46828036838108
 20
19.0503200615777
 30
0.0
 10
17.46828036838108
 20
19.0503200615777
 30
0.0
 10
17.46828036838108
 20
19.0503200615777
 30
0.0
 10
17.77151658799913
 20
20.0358199734158
 30
0.0
 10
17.77151658799913
 20
20.0358199734158
 30
0.0
 10
17.77151658799913
 20
20.0358199734158
 30
0.0
 10
19.18401590983073
 20
20.0358199734158
 30
0.0
 10
19.18401590983073
 20
20.0358199734158
 30
0.0
 10
19.18401590983073
 20
20.0358199734158
 30
0.0
 10
19.18401590983073
 20
17.30370920817058
 30
0.0
 10
19.18401590983073
 20
17.30370920817058
 30
0.0
 10
19.18401590983073
 20
17.30370920817058
 30
0.0
 10
17.99036322699653
 20
17.30370920817058
 30
0.0
 10
17.99036322699653
 20
17.30370920817058
 30
0.0
 10
17.83629353841146
 20
17.74975073920357
 30
0.0
 10
17.58516947428385
 20
18.1023482937283
 30
0.0
 10
17.24155680338541
 20
18.35413950602214
 30
0.0
 10
16.83895874023438
 20
18.64902832031251
 30
0.0
 10
16.40726555718316
 20
18.79852800157336
 30
0.0
 10
15.95840454101562
 20
18.79852800157336
 30
0.0
 10
15.22761366102431
 20
18.79852800157336
 30
0.0
 10
14.63868204752604
 20
18.52488874647353
 30
0.0
 10
14.20796034071181
 20
17.98522267659506
 30
0.0
 10
13.79621039496528
 20
17.46957054985895
 30
0.0
 10
13.58739047580295
 20
16.76441782633464
 30
0.0
 10
13.58739047580295
 20
15.88938900417752
 30
0.0
 10
13.58739047580295
 20
15.00777855767145
 30
0.0
 10
13.79347398546007
 20
14.29748701307509
 30
0.0
 10
14.19991811116536
 20
13.77822194417318
 30
0.0
 10
14.62659878200955
 20
13.23286095513238
 30
0.0
 10
15.23032124837239
 20
12.95631913926867
 30
0.0
 10
15.99427964952257
 20
12.95631913926867
 30
0.0
 10
16.18322414822049
 20
12.95631913926867
 30
0.0
 10
16.37426588270399
 20
12.9745143975152
 30
0.0
 10
16.56215413411458
 20
13.01037424723308
 30
0.0
 10
16.74670918782552
 20
13.0453880818685
 30
0.0
 10
16.89579264322916
 20
13.08291622585721
 30
0.0
 10
17.01755777994791
 20
13.12504065619575
 30
0.0
 10
17.15329318576389
 20
13.17211062961155
 30
0.0
 10
17.1883070203993
 20
13.18129133436416
 30
0.0
 10
17.19186401367188
 20
13.1821797349718
 30
0.0
 10
17.19186401367188
 20
13.1821797349718
 30
0.0
 10
17.45643276638455
 20
13.24876230875652
 30
0.0
 10
17.45643276638455
 20
13.24876230875652
 30
0.0
 10
17.45643276638455
 20
13.24876230875652
 30
0.0
 10
17.45643276638455
 20
14.69673492431641
 30
0.0
 10
17.45643276638455
 20
14.69673492431641
 30
0.0
 10
17.45643276638455
 20
14.69673492431641
 30
0.0
 10
16.33232116699219
 20
14.69673492431641
 30
0.0
 10
16.33232116699219
 20
14.69673492431641
 30
0.0
 10
16.33232116699219
 20
14.69673492431641
 30
0.0
 10
16.33232116699219
 20
15.73072133382162
 30
0.0
 10
16.33232116699219
 20
15.73072133382162
 30
0.0
 10
16.33232116699219
 20
15.73072133382162
 30
0.0
 10
19.37536282009549
 20
15.73072133382162
 30
0.0
 10
19.37536282009549
 20
15.73072133382162
 30
0.0
 10
19.37536282009549
 20
15.73072133382162
 30
0.0
 10
19.37536282009549
 20
12.12047149658204
 30
0.0
 10
19.37536282009549
 20
12.12047149658204
 30
0.0
 10
18.85780673556858
 20
11.86276241726346
 30
0.0
 10
18.30095926920573
 20
11.6603054131402
 30
0.0
 10
17.71700202094184
 20
11.51770694308811
 30
0.0
 10
17.06161329481337
 20
11.3576931084527
 30
0.0
 10
16.40154351128472
 20
11.27656721327041
 30
0.0
 10
15.75511338975694
 20
11.27656721327041
 30
0.0
 10
14.85998874240451
 20
11.27656721327041
 30
0.0
 10
14.03293270534939
 20
11.44334577772353
 30
0.0
 10
13.29691908094618
 20
11.77227610270183
 30
0.0
 10
12.5791269938151
 20
12.09284630669488
 30
0.0
 10
11.99686347113715
 20
12.59960934109159
 30
0.0
 10
11.56618330213759
 20
13.27854068332249
 30
0.0
 10
11.13412814670139
 20
13.9594014146593
 30
0.0
 10
10.91507212320963
 20
14.83780412462023
 30
0.0
 10
10.91507212320963
 20
15.88937374538846
 30
0.0
 10
10.91507212320963
 20
16.72097096761068
 30
0.0
 10
11.08878072102864
 20
17.47516543918186
 30
0.0
 10
11.43136342366536
 20
18.13099836561415
 30
0.0
 10
11.76876661512587
 20
18.77673421223959
 30
0.0
 10
12.26593271891276
 20
19.290261976454
 30
0.0
 10
12.90904405381944
 20
19.6573036702474
 30
0.0
 10
13.10389116075304
 20
19.76845631917318
 30
0.0
 10
13.31068250868056
 20
19.86302605523004
 30
0.0
 10
13.52866872151693
 20
19.94112308078343
 30
0.0
 10
13.52866872151693
 20
19.94112308078343
 30
0.0
 10
13.52866872151693
 20
20.31185909695096
 30
0.0
 10
13.52866872151693
 20
20.31185909695096
 30
0.0
 10
13.24871063232422
 20
20.21995625813803
 30
0.0
 10
12.98429361979167
 20
20.1031782023112
 30
0.0
 10
12.73555755615234
 20
19.96127570258247
 30
0.0
 10
12.03000217013889
 20
19.55859541151259
 30
0.0
 10
11.49186282687717
 20
19.00252614339193
 30
0.0
 10
11.12115478515625
 20
18.29305348714193
 30
0.0
 10
10.75044674343533
 20
17.58337229410808
 30
0.0
 10
10.56507110595703
 20
16.78215023464627
 30
0.0
 10
10.56507110595703
 20
15.88937374538846
 30
0.0
 10
10.56507110595703
 20
14.7652621459961
 30
0.0
 10
10.80014038085938
 20
13.83248558892145
 30
0.0
 10
11.27062649197049
 20
13.09105424669055
 30
0.0
 10
11.74093204074436
 20
12.34962290445964
 30
0.0
 10
12.36876508924696
 20
11.80345659044055
 30
0.0
 10
13.15409851074219
 20
11.45272145589193
 30
0.0
 10
13.93925136990017
 20
11.10181847466363
 30
0.0
 10
14.8062506781684
 20
10.9265407647027
 30
0.0
 10
15.75509813096788
 20
10.9265407647027
 30
0.0
 10
16.43262566460503
 20
10.9265407647027
 30
0.0
 10
17.11426459418403
 20
11.01024878607856
 30
0.0
 10
17.80001491970486
 20
11.17768008761936
 30
0.0
 10
18.48557027180989
 20
11.3450961303711
 30
0.0
 10
19.1274176703559
 20
11.58819407145183
 30
0.0
 10
19.72534857855903
 20
11.90713836669923
 30
0.0
 10
19.72534857855903
 20
11.90713836669923
 30
0.0
 10
19.72534857855903
 20
16.08069522433811
 30
0.0
 10
19.72534857855903
 20
16.08069522433811
 30
0.0
 10
19.72534857855903
 20
16.08069522433811
 30
0.0
 10
15.98232014973958
 20
16.08069522433811
 30
0.0
 10
15.98232014973958
 20
16.08069522433811
 30
0.0
 10
15.98232014973958
 20
16.08069522433811
 30
0.0
 10
15.98232014973958
 20
16.08072404649523
 30
0.0
 10
15.98232014973958
 20
16.08072404649523
 30
0.0
  0
SPLINE
  5
4E
330
1F
100
AcDbEntity
  8
Layer 1
 62
     7
420
 16777215
370
    35
100
AcDbSpline
210
0.0
220
0.0
230
1.0
 70
    11
 71
     3
 72
    98
 73
    94
 74
     0
 42
0.0000000001
 43
0.0000000001
 12
1.0
 22
0.0
 32
0.0
 13
1.0
 23
0.0
 33
0.0
 40
0.0
 40
0.0
 40
0.0
 40
0.0
 40
1.0
 40
1.0
 40
1.0
 40
2.0
 40
2.0
 40
2.0
 40
3.0
 40
3.0
 40
3.0
 40
4.0
 40
4.0
 40
4.0
 40
5.0
 40
5.0
 40
5.0
 40
6.0
 40
6.0
 40
6.0
 40
7.0
 40
7.0
 40
7.0
 40
8.0
 40
8.0
 40
8.0
 40
9.0
 40
9.0
 40
9.0
 40
10.0
 40
10.0
 40
10.0
 40
11.0
 40
11.0
 40
11.0
 40
12.0
 40
12.0
 40
12.0
 40
13.0
 40
13.0
 40
13.0
 40
14.0
 40
14.0
 40
14.0
 40
15.0
 40
15.0
 40
15.0
 40
16.0
 40
16.0
 40
16.0
 40
17.0
 40
17.0
 40
17.0
 40
18.0
 40
18.0
 40
18.0
 40
19.0
 40
19.0
 40
19.0
 40
20.0
 40
20.0
 40
20.0
 40
21.0
 40
21.0
 40
21.0
 40
22.0
 40
22.0
 40
22.0
 40
23.0
 40
23.0
 40
23.0
 40
24.0
 40
24.0
 40
24.0
 40
25.0
 40
25.0
 40
25.0
 40
26.0
 40
26.0
 40
26.0
 40
27.0
 40
27.0
 40
27.0
 40
28.0
 40
28.0
 40
28.0
 40
29.0
 40
29.0
 40
29.0
 40
30.0
 40
30.0
 40
30.0
 40
31.0
 40
31.0
 40
31.0
 40
31.0
 10
6.483555687798393
 20
27.83302939520942
 30
0.0
 10
6.483555687798393
 20
27.83302939520942
 30
0.0
 10
6.483555687798393
 20
26.09902908325196
 30
0.0
 10
6.483555687798393
 20
26.09902908325196
 30
0.0
 10
6.483555687798393
 20
26.09902908325196
 30
0.0
 10
7.607666863335503
 20
26.09902908325196
 30
0.0
 10
7.607666863335503
 20
26.09902908325196
 30
0.0
 10
7.607666863335503
 20
26.09902908325196
 30
0.0
 10
7.607666863335503
 20
25.27389014350044
 30
0.0
 10
7.607666863335503
 20
25.27389014350044
 30
0.0
 10
7.5757081773546
 20
25.26584833780925
 30
0.0
 10
7.507888793945312
 20
25.24400114271376
 30
0.0
 10
7.404374864366319
 20
25.20811247083876
 30
0.0
 10
7.300666809082031
 20
25.17223778618707
 30
0.0
 10
7.165194193522135
 20
25.13823781331381
 30
0.0
 10
6.997777726915147
 20
25.1064732530382
 30
0.0
 10
6.830361260308159
 20
25.0745145670573
 30
0.0
 10
6.66294436984592
 20
25.05864034016928
 30
0.0
 10
6.495527903238932
 20
25.05864034016928
 30
0.0
 10
5.841722276475694
 20
25.05864034016928
 30
0.0
 10
5.335528055826822
 20
25.28772350735135
 30
0.0
 10
4.976777818467881
 20
25.74626537746854
 30
0.0
 10
4.618014017740885
 20
26.20461269802518
 30
0.0
 10
4.438638899061415
 20
26.83636259290908
 30
0.0
 10
4.438638899061415
 20
27.64171003553603
 30
0.0
 10
4.438638899061415
 20
28.43883511013455
 30
0.0
 10
4.619888729519314
 20
29.06479344685873
 30
0.0
 10
4.982749938964844
 20
29.51922392103408
 30
0.0
 10
5.345430586073133
 20
29.97364061991374
 30
0.0
 10
5.837791442871094
 20
30.20084886338976
 30
0.0
 10
6.45963880750868
 20
30.20084886338976
 30
0.0
 10
6.834277682834201
 20
30.20084886338976
 30
0.0
 10
7.193041483561197
 20
30.07529340108236
 30
0.0
 10
7.535902235243055
 20
29.82415450202095
 30
0.0
 10
7.878596835666232
 20
29.57302959018284
 30
0.0
 10
8.109915839301214
 20
29.20025165134007
 30
0.0
 10
8.229499816894531
 20
28.70602964613173
 30
0.0
 10
8.229499816894531
 20
28.70602964613173
 30
0.0
 10
10.03524949815538
 20
28.70602964613173
 30
0.0
 10
10.03524949815538
 20
28.70602964613173
 30
0.0
 10
10.03524949815538
 20
28.70602964613173
 30
0.0
 10
10.03524949815538
 20
32.13812645859189
 30
0.0
 10
10.03524949815538
 20
32.13812645859189
 30
0.0
 10
10.03524949815538
 20
32.13812645859189
 30
0.0
 10
8.014250013563368
 20
32.13812645859189
 30
0.0
 10
8.014250013563368
 20
32.13812645859189
 30
0.0
 10
8.014250013563368
 20
32.13812645859189
 30
0.0
 10
7.822916666666666
 20
31.51627923965455
 30
0.0
 10
7.822916666666666
 20
31.51627923965455
 30
0.0
 10
7.599639044867621
 20
31.7793625386556
 30
0.0
 10
7.29673597547743
 20
31.97855702294244
 30
0.0
 10
6.914069281684028
 20
32.11420977698432
 30
0.0
 10
6.531389024522569
 20
32.24968201504814
 30
0.0
 10
6.136750115288629
 20
32.31750145806207
 30
0.0
 10
5.730152977837457
 20
32.31750145806207
 30
0.0
 10
4.773472256130642
 20
32.31750145806207
 30
0.0
 10
3.942347208658854
 20
32.11608479340872
 30
0.0
 10
3.236791610717773
 20
31.71359869427152
 30
0.0
 10
2.531236012776692
 20
31.31091813829211
 30
0.0
 10
1.993097093370226
 20
30.75484865824382
 30
0.0
 10
1.62238883972168
 20
30.04537642584907
 30
0.0
 10
1.251666704813639
 20
29.33569586859809
 30
0.0
 10
1.066305584377713
 20
28.53447380913629
 30
0.0
 10
1.066305584377713
 20
27.64168206108942
 30
0.0
 10
1.066305584377713
 20
26.51757088555231
 30
0.0
 10
1.301375071207682
 20
25.5847930569119
 30
0.0
 10
1.771861182318793
 20
24.8433625623915
 30
0.0
 10
2.242166731092665
 20
24.1019320678711
 30
0.0
 10
2.870000203450521
 20
23.555765753852
 30
0.0
 10
3.655333624945746
 20
23.20502892388238
 30
0.0
 10
3.897889031304253
 20
23.09662624782987
 30
0.0
 10
4.14826414320204
 20
23.00504299587674
 30
0.0
 10
4.406444973415798
 20
22.9301537068685
 30
0.0
 10
4.406444973415798
 20
22.9301537068685
 30
0.0
 10
4.406444973415798
 20
22.47423719618056
 30
0.0
 10
4.406444973415798
 20
22.47423719618056
 30
0.0
 10
4.406444973415798
 20
22.47423719618056
 30
0.0
 10
7.986445109049479
 20
22.47423719618056
 30
0.0
 10
7.986445109049479
 20
22.47423719618056
 30
0.0
 10
7.986445109049479
 20
22.47423719618056
 30
0.0
 10
7.986445109049479
 20
22.85919525146485
 30
0.0
 10
7.986445109049479
 20
22.85919525146485
 30
0.0
 10
8.091292487250433
 20
22.88091783311632
 30
0.0
 10
8.196222941080729
 20
22.90434770372179
 30
0.0
 10
8.301250881618923
 20
22.93000111897787
 30
0.0
 10
8.986806233723957
 20
23.09741800944011
 30
0.0
 10
9.628653632269964
 20
23.34051510281034
 30
0.0
 10
10.22658454047309
 20
23.65945939805773
 30
0.0
 10
10.22658454047309
 20
23.65945939805773
 30
0.0
 10
10.22658454047309
 20
27.83302939520942
 30
0.0
 10
10.22658454047309
 20
27.83302939520942
 30
0.0
 10
10.22658454047309
 20
27.83302939520942
 30
0.0
 10
6.483555687798393
 20
27.83302939520942
 30
0.0
 10
6.483555687798393
 20
27.83302939520942
 30
0.0
  0
POLYLINE
  5
4F
330
1F
100
AcDbEntity
  8
Layer 1
 62
     7
420
 16777215
370
    30
100
AcDb2dPolyline
 66
     1
 10
0.0
 20
0.0
 30
0.0
  0
VERTEX
  5
50
330
4F
100
AcDbEntity
  8
Layer 1
 62
     7
420
 16777215
370
    30
100
AcDbVertex
100
AcDb2dVertex
 10
11.43143039279514
 20
23.58891801622179
 30
0.0
  0
VERTEX
  5
51
330
4F
100
AcDbEntity
  8
Layer 1
 62
     7
420
 16777215
370
    30
100
AcDbVertex
100
AcDb2dVertex
 10
11.43143039279514
 20
21.8318625217014
 30
0.0
  0
VERTEX
  5
52
330
4F
100
AcDbEntity
  8
Layer 1
 62
     7
420
 16777215
370
    30
100
AcDbVertex
100
AcDb2dVertex
 10
19.88877699110243
 20
21.8318625217014
 30
0.0
  0
VERTEX
  5
53
330
4F
100
AcDbEntity
  8
Layer 1
 62
     7
420
 16777215
370
    30
100
AcDbVertex
100
AcDb2dVertex
 10
19.88877699110243
 20
23.58891801622179
 30
0.0
  0
VERTEX
  5
54
330
4F
100
AcDbEntity
  8
Layer 1
 62
     7
420
 16777215
370
    30
100
AcDbVertex
100
AcDb2dVertex
 10
11.43143039279514
 20
23.58891801622179
 30
0.0
  0
SEQEND
  5
55
330
4F
100
AcDbEntity
  8
Layer 1
 62
     7
420
 16777215
370
    30
  0
POLYLINE
  5
56
330
1F
100
AcDbEntity
  8
Layer 1
 62
     7
420
 16777215
370
    30
100
AcDb2dPolyline
 66
     1
 10
0.0
 20
0.0
 30
0.0
  0
VERTEX
  5
57
330
56
100
AcDbEntity
  8
Layer 1
 62
     7
420
 16777215
370
    30
100
AcDbVertex
100
AcDb2dVertex
 10
17.46665276421441
 20
23.01154324001737
 30
0.0
  0
VERTEX
  5
58
330
56
100
AcDbEntity
  8
Layer 1
 62
     7
420
 16777215
370
    30
100
AcDbVertex
100
AcDb2dVertex
 10
13.88075002034505
 20
23.01154324001737
 30
0.0
  0
VERTEX
  5
59
330
56
100
AcDbEntity
  8
Layer 1
 62
     7
420
 16777215
370
    30
100
AcDbVertex
100
AcDb2dVertex
 10
13.88075002034505
 20
23.22154317220053
 30
0.0
  0
VERTEX
  5
5A
330
56
100
AcDbEntity
  8
Layer 1
 62
     7
420
 16777215
370
    30
100
AcDbVertex
100
AcDb2dVertex
 10
17.46665276421441
 20
23.22154317220053
 30
0.0
  0
VERTEX
  5
5B
330
56
100
AcDbEntity
  8
Layer 1
 62
     7
420
 16777215
370
    30
100
AcDbVertex
100
AcDb2dVertex
 10
17.46665276421441
 20
23.01154324001737
 30
0.0
  0
VERTEX
  5
5C
330
56
100
AcDbEntity
  8
Layer 1
 62
     7
420
 16777215
370
    30
100
AcDbVertex
100
AcDb2dVertex
 10
17.46665276421441
 20
23.01154324001737
 30
0.0
  0
SEQEND
  5
5D
330
56
100
AcDbEntity
  8
Layer 1
 62
     7
420
 16777215
370
    30
  0
ENDSEC
  0
SECTION
  2
OBJECTS
  0
DICTIONARY
  5
C
330
0
100
AcDbDictionary
281
     1
  3
ACAD_GROUP
350
D
  3
ACAD_LAYOUT
350
1A
  3
ACAD_MATERIAL
350
3B
  3
ACAD_MLEADERSTYLE
350
5F
  3
ACAD_MLINESTYLE
350
17
  3
ACAD_PLOTSETTINGS
350
19
  3
ACAD_PLOTSTYLENAME
350
E
  3
ACAD_TABLESTYLE
350
5E
  3
ACAD_VISUALSTYLE
350
2A
  0
SUN
  5
3F
330
29
100
AcDbSun
 90
        1
290
     0
 63
     7
421
 16777215
 40
1.0
291
     1
 91
  2455826
 92
 54000000
292
     0
 70
     2
 71
   256
280
     1
  0
DICTIONARY
  5
D
102
{ACAD_REACTORS
330
C
102
}
330
C
100
AcDbDictionary
281
     1
  0
DICTIONARY
  5
1A
102
{ACAD_REACTORS
330
C
102
}
330
C
100
AcDbDictionary
281
     1
  3
Layout1
350
1E
  3
Layout2
350
26
  3
Model
350
22
  0
DICTIONARY
  5
3B
102
{ACAD_REACTORS
330
C
102
}
330
C
100
AcDbDictionary
281
     1
  3
ByBlock
350
3D
  3
ByLayer
350
3C
  3
Global
350
3E
  0
DICTIONARY
  5
5F
102
{ACAD_REACTORS
330
C
102
}
330
C
100
AcDbDictionary
281
     1
  0
DICTIONARY
  5
17
102
{ACAD_REACTORS
330
C
102
}
330
C
100
AcDbDictionary
281
     1
  3
Standard
350
18
  0
DICTIONARY
  5
19
102
{ACAD_REACTORS
330
C
102
}
330
C
100
AcDbDictionary
281
     1
  0
ACDBDICTIONARYWDFLT
  5
E
102
{ACAD_REACTORS
330
C
102
}
330
C
100
AcDbDictionary
281
     1
  3
Normal
350
F
100
AcDbDictionaryWithDefault
340
F
  0
DICTIONARY
  5
5E
102
{ACAD_REACTORS
330
C
102
}
330
C
100
AcDbDictionary
281
     1
  0
DICTIONARY
  5
2A
102
{ACAD_REACTORS
330
C
102
}
330
C
100
AcDbDictionary
281
     1
  3
2dWireframe
350
2F
  3
3D Hidden
350
31
  3
3dWireframe
350
30
  3
Basic
350
32
  3
Brighten
350
36
  3
ColorChange
350
3A
  3
Conceptual
350
34
  3
Dim
350
35
  3
Facepattern
350
39
  3
Flat
350
2B
  3
FlatWithEdges
350
2C
  3
Gouraud
350
2D
  3
GouraudWithEdges
350
2E
  3
Linepattern
350
38
  3
Realistic
350
33
  3
Thicken
350
37
  0
LAYOUT
  5
1E
102
{ACAD_REACTORS
330
1A
102
}
330
1A
100
AcDbPlotSettings
  1

  2
none_device
  4

  6

 40
0.0
 41
0.0
 42
0.0
 43
0.0
 44
0.0
 45
0.0
 46
0.0
 47
0.0
 48
0.0
 49
0.0
140
0.0
141
0.0
142
1.0
143
1.0
 70
   688
 72
     0
 73
     0
 74
     5
  7

 75
    16
 76
     0
 77
     2
 78
   300
147
1.0
148
0.0
149
0.0
100
AcDbLayout
  1
Layout1
 70
     1
 71
     1
 10
0.0
 20
0.0
 11
12.0
 21
9.0
 12
0.0
 22
0.0
 32
0.0
 14
1.000000000000000E+20
 24
1.000000000000000E+20
 34
1.000000000000000E+20
 15
-1.000000000000000E+20
 25
-1.000000000000000E+20
 35
-1.000000000000000E+20
146
0.0
 13
0.0
 23
0.0
 33
0.0
 16
1.0
 26
0.0
 36
0.0
 17
0.0
 27
1.0
 37
0.0
 76
     0
330
1B
  0
LAYOUT
  5
26
102
{ACAD_REACTORS
330
1A
102
}
330
1A
100
AcDbPlotSettings
  1

  2
none_device
  4

  6

 40
0.0
 41
0.0
 42
0.0
 43
0.0
 44
0.0
 45
0.0
 46
0.0
 47
0.0
 48
0.0
 49
0.0
140
0.0
141
0.0
142
1.0
143
1.0
 70
   688
 72
     0
 73
     0
 74
     5
  7

 75
    16
 76
     0
 77
     2
 78
   300
147
1.0
148
0.0
149
0.0
100
AcDbLayout
  1
Layout2
 70
     1
 71
     2
 10
0.0
 20
0.0
 11
0.0
 21
0.0
 12
0.0
 22
0.0
 32
0.0
 14
0.0
 24
0.0
 34
0.0
 15
0.0
 25
0.0
 35
0.0
146
0.0
 13
0.0
 23
0.0
 33
0.0
 16
1.0
 26
0.0
 36
0.0
 17
0.0
 27
1.0
 37
0.0
 76
     0
330
23
  0
LAYOUT
  5
22
102
{ACAD_REACTORS
330
1A
102
}
330
1A
100
AcDbPlotSettings
  1

  2
none_device
  4

  6

 40
0.0
 41
0.0
 42
0.0
 43
0.0
 44
0.0
 45
0.0
 46
0.0
 47
0.0
 48
0.0
 49
0.0
140
0.0
141
0.0
142
1.0
143
1.0
 70
  1712
 72
     0
 73
     0
 74
     0
  7

 75
     0
 76
     0
 77
     2
 78
   300
147
1.0
148
0.0
149
0.0
100
AcDbLayout
  1
Model
 70
     1
 71
     0
 10
0.0
 20
0.0
 11
12.0
 21
9.0
 12
0.0
 22
0.0
 32
0.0
 14
1.000000000000000E+20
 24
1.000000000000000E+20
 34
1.000000000000000E+20
 15
-1.000000000000000E+20
 25
-1.000000000000000E+20
 35
-1.000000000000000E+20
146
0.0
 13
0.0
 23
0.0
 33
0.0
 16
1.0
 26
0.0
 36
0.0
 17
0.0
 27
1.0
 37
0.0
 76
     0
330
1F
331
29
  0
MATERIAL
  5
3D
102
{ACAD_REACTORS
330
3B
102
}
330
3B
100
AcDbMaterial
  1
ByBlock
 72
     1
 94
      127
  0
MATERIAL
  5
3C
102
{ACAD_REACTORS
330
3B
102
}
330
3B
100
AcDbMaterial
  1
ByLayer
 72
     1
 94
      127
  0
MATERIAL
  5
3E
102
{ACAD_REACTORS
330
3B
102
}
330
3B
100
AcDbMaterial
  1
Global
 72
     1
 94
      127
  0
MLINESTYLE
  5
18
102
{ACAD_REACTORS
330
17
102
}
330
17
100
AcDbMlineStyle
  2
Standard
 70
     0
  3

 62
   256
 51
90.0
 52
90.0
 71
     2
 49
0.5
 62
   256
  6
BYLAYER
 49
-0.5
 62
   256
  6
BYLAYER
  0
ACDBPLACEHOLDER
  5
F
102
{ACAD_REACTORS
330
E
102
}
330
E
  0
VISUALSTYLE
  5
2F
102
{ACAD_REACTORS
330
2A
102
}
330
2A
100
AcDbVisualStyle
  2
2dWireframe
 70
     4
177
     2
291
     0
 71
     0
176
     1
 72
     2
176
     1
 73
     0
176
     1
 90
        0
176
     1
 40
-0.6
176
     1
 41
-30.0
176
     1
 62
     5
 63
     7
421
 16777215
176
     1
 74
     1
176
     1
 91
        4
176
     1
 64
     7
176
     1
 65
   257
176
     1
 75
     1
176
     1
175
     1
176
     1
 42
1.0
176
     1
 92
        0
176
     1
 66
   257
176
     1
 43
1.0
176
     1
 76
     1
176
     1
 77
     6
176
     1
 78
     2
176
     1
 67
     7
176
     1
 79
     5
176
     1
170
     0
176
     1
171
     0
176
     1
290
     0
176
     1
 93
        1
176
     1
 44
0.0
176
     1
173
     0
176
     1
  0
VISUALSTYLE
  5
31
102
{ACAD_REACTORS
330
2A
102
}
330
2A
100
AcDbVisualStyle
  2
3D Hidden
 70
     6
177
     2
291
     0
 71
     1
176
     1
 72
     2
176
     1
 73
     2
176
     1
 90
        0
176
     1
 40
-0.6
176
     1
 41
-30.0
176
     1
 62
     5
 63
     7
421
 16777215
176
     1
 74
     2
176
     1
 91
        2
176
     1
 64
     7
176
     1
 65
   257
176
     1
 75
     2
176
     1
175
     1
176
     1
 42
40.0
176
     1
 92
        0
176
     1
 66
   257
176
     1
 43
1.0
176
     1
 76
     1
176
     1
 77
     6
176
     1
 78
     2
176
     1
 67
     7
176
     1
 79
     3
176
     1
170
     0
176
     1
171
     0
176
     1
290
     0
176
     1
 93
        1
176
     1
 44
0.0
176
     1
173
     0
176
     1
  0
VISUALSTYLE
  5
30
102
{ACAD_REACTORS
330
2A
102
}
330
2A
100
AcDbVisualStyle
  2
3dWireframe
 70
     5
177
     2
291
     0
 71
     0
176
     1
 72
     2
176
     1
 73
     0
176
     1
 90
        0
176
     1
 40
-0.6
176
     1
 41
-30.0
176
     1
 62
     5
 63
     7
421
 16777215
176
     1
 74
     1
176
     1
 91
        4
176
     1
 64
     7
176
     1
 65
   257
176
     1
 75
     1
176
     1
175
     1
176
     1
 42
1.0
176
     1
 92
        0
176
     1
 66
   257
176
     1
 43
1.0
176
     1
 76
     1
176
     1
 77
     6
176
     1
 78
     2
176
     1
 67
     7
176
     1
 79
     5
176
     1
170
     0
176
     1
171
     0
176
     1
290
     0
176
     1
 93
        1
176
     1
 44
0.0
176
     1
173
     0
176
     1
  0
VISUALSTYLE
  5
32
102
{ACAD_REACTORS
330
2A
102
}
330
2A
100
AcDbVisualStyle
  2
Basic
 70
     7
177
     2
291
     1
 71
     1
176
     1
 72
     0
176
     1
 73
     1
176
     1
 90
        0
176
     1
 40
-0.6
176
     1
 41
-30.0
176
     1
 62
     5
 63
     7
421
 16777215
176
     1
 74
     0
176
     1
 91
        4
176
     1
 64
     7
176
     1
 65
   257
176
     1
 75
     1
176
     1
175
     1
176
     1
 42
1.0
176
     1
 92
        8
176
     1
 66
     7
176
     1
 43
1.0
176
     1
 76
     1
176
     1
 77
     6
176
     1
 78
     2
176
     1
 67
     7
176
     1
 79
     5
176
     1
170
     0
176
     1
171
     0
176
     1
290
     0
176
     1
 93
        1
176
     1
 44
0.0
176
     1
173
     0
176
     1
  0
VISUALSTYLE
  5
36
102
{ACAD_REACTORS
330
2A
102
}
330
2A
100
AcDbVisualStyle
  2
Brighten
 70
    12
177
     2
291
     1
 71
     2
176
     1
 72
     2
176
     1
 73
     0
176
     1
 90
        0
176
     1
 40
-0.6
176
     1
 41
-30.0
176
     1
 62
     5
 63
     7
421
 16777215
176
     1
 74
     1
176
     1
 91
        4
176
     1
 64
     7
176
     1
 65
   257
176
     1
 75
     1
176
     1
175
     1
176
     1
 42
1.0
176
     1
 92
        8
176
     1
 66
     7
176
     1
 43
1.0
176
     1
 76
     1
176
     1
 77
     6
176
     1
 78
     2
176
     1
 67
     7
176
     1
 79
     5
176
     1
170
     0
176
     1
171
     0
176
     1
290
     0
176
     1
 93
        1
176
     1
 44
50.0
176
     1
173
     0
176
     1
  0
VISUALSTYLE
  5
3A
102
{ACAD_REACTORS
330
2A
102
}
330
2A
100
AcDbVisualStyle
  2
ColorChange
 70
    16
177
     2
291
     1
 71
     2
176
     1
 72
     2
176
     1
 73
     3
176
     1
 90
        0
176
     1
 40
-0.6
176
     1
 41
-30.0
176
     1
 62
     5
 63
     8
421
  8421504
176
     1
 74
     1
176
     1
 91
        4
176
     1
 64
     7
176
     1
 65
   257
176
     1
 75
     1
176
     1
175
     1
176
     1
 42
1.0
176
     1
 92
        8
176
     1
 66
     8
424
  8421504
176
     1
 43
1.0
176
     1
 76
     1
176
     1
 77
     6
176
     1
 78
     2
176
     1
 67
     7
176
     1
 79
     5
176
     1
170
     0
176
     1
171
     0
176
     1
290
     0
176
     1
 93
        1
176
     1
 44
0.0
176
     1
173
     0
176
     1
  0
VISUALSTYLE
  5
34
102
{ACAD_REACTORS
330
2A
102
}
330
2A
100
AcDbVisualStyle
  2
Conceptual
 70
     9
177
     2
291
     0
 71
     3
176
     1
 72
     2
176
     1
 73
     0
176
     1
 90
        0
176
     1
 40
-0.6
176
     1
 41
-30.0
176
     1
 62
     5
 63
     7
421
 16777215
176
     1
 74
     2
176
     1
 91
        2
176
     1
 64
     7
176
     1
 65
   257
176
     1
 75
     1
176
     1
175
     1
176
     1
 42
40.0
176
     1
 92
        8
176
     1
 66
     7
176
     1
 43
1.0
176
     1
 76
     1
176
     1
 77
     6
176
     1
 78
     2
176
     1
 67
     7
176
     1
 79
     3
176
     1
170
     0
176
     1
171
     0
176
     1
290
     0
176
     1
 93
        1
176
     1
 44
0.0
176
     1
173
     0
176
     1
  0
VISUALSTYLE
  5
35
102
{ACAD_REACTORS
330
2A
102
}
330
2A
100
AcDbVisualStyle
  2
Dim
 70
    11
177
     2
291
     1
 71
     2
176
     1
 72
     2
176
     1
 73
     0
176
     1
 90
        0
176
     1
 40
-0.6
176
     1
 41
-30.0
176
     1
 62
     5
 63
     7
421
 16777215
176
     1
 74
     1
176
     1
 91
        4
176
     1
 64
     7
176
     1
 65
   257
176
     1
 75
     1
176
     1
175
     1
176
     1
 42
1.0
176
     1
 92
        8
176
     1
 66
     7
176
     1
 43
1.0
176
     1
 76
     1
176
     1
 77
     6
176
     1
 78
     2
176
     1
 67
     7
176
     1
 79
     5
176
     1
170
     0
176
     1
171
     0
176
     1
290
     0
176
     1
 93
        1
176
     1
 44
-50.0
176
     1
173
     0
176
     1
  0
VISUALSTYLE
  5
39
102
{ACAD_REACTORS
330
2A
102
}
330
2A
100
AcDbVisualStyle
  2
Facepattern
 70
    15
177
     2
291
     1
 71
     2
176
     1
 72
     2
176
     1
 73
     0
176
     1
 90
        0
176
     1
 40
-0.6
176
     1
 41
-30.0
176
     1
 62
     5
 63
     7
421
 16777215
176
     1
 74
     1
176
     1
 91
        4
176
     1
 64
     7
176
     1
 65
   257
176
     1
 75
     1
176
     1
175
     1
176
     1
 42
1.0
176
     1
 92
        8
176
     1
 66
     7
176
     1
 43
1.0
176
     1
 76
     1
176
     1
 77
     6
176
     1
 78
     2
176
     1
 67
     7
176
     1
 79
     5
176
     1
170
     0
176
     1
171
     0
176
     1
290
     0
176
     1
 93
        1
176
     1
 44
0.0
176
     1
173
     0
176
     1
  0
VISUALSTYLE
  5
2B
102
{ACAD_REACTORS
330
2A
102
}
330
2A
100
AcDbVisualStyle
  2
Flat
 70
     0
177
     2
291
     1
 71
     2
176
     1
 72
     1
176
     1
 73
     1
176
     1
 90
        2
176
     1
 40
-0.6
176
     1
 41
30.0
176
     1
 62
     5
 63
     7
421
 16777215
176
     1
 74
     0
176
     1
 91
        4
176
     1
 64
     7
176
     1
 65
   257
176
     1
 75
     1
176
     1
175
     1
176
     1
 42
1.0
176
     1
 92
        8
176
     1
 66
     7
176
     1
 43
1.0
176
     1
 76
     1
176
     1
 77
     6
176
     1
 78
     2
176
     1
 67
     7
176
     1
 79
     5
176
     1
170
     0
176
     1
171
     0
176
     1
290
     0
176
     1
 93
       13
176
     1
 44
0.0
176
     1
173
     0
176
     1
  0
VISUALSTYLE
  5
2C
102
{ACAD_REACTORS
330
2A
102
}
330
2A
100
AcDbVisualStyle
  2
FlatWithEdges
 70
     1
177
     2
291
     1
 71
     2
176
     1
 72
     1
176
     1
 73
     1
176
     1
 90
        2
176
     1
 40
-0.6
176
     1
 41
30.0
176
     1
 62
     5
 63
     7
421
 16777215
176
     1
 74
     1
176
     1
 91
        4
176
     1
 64
     7
176
     1
 65
   257
176
     1
 75
     1
176
     1
175
     1
176
     1
 42
1.0
176
     1
 92
        0
176
     1
 66
   257
176
     1
 43
1.0
176
     1
 76
     1
176
     1
 77
     6
176
     1
 78
     2
176
     1
 67
     7
176
     1
 79
     5
176
     1
170
     0
176
     1
171
     0
176
     1
290
     0
176
     1
 93
       13
176
     1
 44
0.0
176
     1
173
     0
176
     1
  0
VISUALSTYLE
  5
2D
102
{ACAD_REACTORS
330
2A
102
}
330
2A
100
AcDbVisualStyle
  2
Gouraud
 70
     2
177
     2
291
     1
 71
     2
176
     1
 72
     2
176
     1
 73
     1
176
     1
 90
        2
176
     1
 40
-0.6
176
     1
 41
30.0
176
     1
 62
     5
 63
     7
421
 16777215
176
     1
 74
     0
176
     1
 91
        4
176
     1
 64
     7
176
     1
 65
   257
176
     1
 75
     1
176
     1
175
     1
176
     1
 42
1.0
176
     1
 92
        0
176
     1
 66
     7
176
     1
 43
1.0
176
     1
 76
     1
176
     1
 77
     6
176
     1
 78
     2
176
     1
 67
     7
176
     1
 79
     5
176
     1
170
     0
176
     1
171
     0
176
     1
290
     0
176
     1
 93
       13
176
     1
 44
0.0
176
     1
173
     0
176
     1
  0
VISUALSTYLE
  5
2E
102
{ACAD_REACTORS
330
2A
102
}
330
2A
100
AcDbVisualStyle
  2
GouraudWithEdges
 70
     3
177
     2
291
     1
 71
     2
176
     1
 72
     2
176
     1
 73
     1
176
     1
 90
        2
176
     1
 40
-0.6
176
     1
 41
30.0
176
     1
 62
     5
 63
     7
421
 16777215
176
     1
 74
     1
176
     1
 91
        4
176
     1
 64
     7
176
     1
 65
   257
176
     1
 75
     1
176
     1
175
     1
176
     1
 42
1.0
176
     1
 92
        0
176
     1
 66
   257
176
     1
 43
1.0
176
     1
 76
     1
176
     1
 77
     6
176
     1
 78
     2
176
     1
 67
     7
176
     1
 79
     5
176
     1
170
     0
176
     1
171
     0
176
     1
290
     0
176
     1
 93
       13
176
     1
 44
0.0
176
     1
173
     0
176
     1
  0
VISUALSTYLE
  5
38
102
{ACAD_REACTORS
330
2A
102
}
330
2A
100
AcDbVisualStyle
  2
Linepattern
 70
    14
177
     2
291
     1
 71
     2
176
     1
 72
     2
176
     1
 73
     0
176
     1
 90
        0
176
     1
 40
-0.6
176
     1
 41
-30.0
176
     1
 62
     5
 63
     7
421
 16777215
176
     1
 74
     1
176
     1
 91
        4
176
     1
 64
     7
176
     1
 65
   257
176
     1
 75
     7
176
     1
175
     7
176
     1
 42
1.0
176
     1
 92
        8
176
     1
 66
     7
176
     1
 43
1.0
176
     1
 76
     1
176
     1
 77
     6
176
     1
 78
     2
176
     1
 67
     7
176
     1
 79
     5
176
     1
170
     0
176
     1
171
     0
176
     1
290
     0
176
     1
 93
        1
176
     1
 44
0.0
176
     1
173
     0
176
     1
  0
VISUALSTYLE
  5
33
102
{ACAD_REACTORS
330
2A
102
}
330
2A
100
AcDbVisualStyle
  2
Realistic
 70
     8
177
     2
291
     0
 71
     2
176
     1
 72
     2
176
     1
 73
     0
176
     1
 90
        0
176
     1
 40
-0.6
176
     1
 41
-30.0
176
     1
 62
     5
 63
     7
421
 16777215
176
     1
 74
     1
176
     1
 91
        0
176
     1
 64
     7
176
     1
 65
   257
176
     1
 75
     1
176
     1
175
     1
176
     1
 42
1.0
176
     1
 92
        8
176
     1
 66
     8
424
  7895160
176
     1
 43
1.0
176
     1
 76
     1
176
     1
 77
     6
176
     1
 78
     2
176
     1
 67
     7
176
     1
 79
     5
176
     1
170
     0
176
     1
171
     0
176
     1
290
     0
176
     1
 93
       13
176
     1
 44
0.0
176
     1
173
     0
176
     1
  0
VISUALSTYLE
  5
37
102
{ACAD_REACTORS
330
2A
102
}
330
2A
100
AcDbVisualStyle
  2
Thicken
 70
    13
177
     2
291
     1
 71
     2
176
     1
 72
     2
176
     1
 73
     0
176
     1
 90
        0
176
     1
 40
-0.6
176
     1
 41
-30.0
176
     1
 62
     5
 63
     7
421
 16777215
176
     1
 74
     1
176
     1
 91
        4
176
     1
 64
     7
176
     1
 65
   257
176
     1
 75
     1
176
     1
175
     1
176
     1
 42
1.0
176
     1
 92
       12
176
     1
 66
     7
176
     1
 43
1.0
176
     1
 76
     1
176
     1
 77
     6
176
     1
 78
     2
176
     1
 67
     7
176
     1
 79
     5
176
     1
170
     0
176
     1
171
     0
176
     1
290
     0
176
     1
 93
        1
176
     1
 44
0.0
176
     1
173
     0
176
     1
  0
ENDSEC
  0
EOF
