<?xml version="1.0" encoding="utf-8"?>
<!-- Generator: Adobe Illustrator 25.0.0, SVG Export Plug-In . SVG Version: 6.00 Build 0)  -->
<svg version="1.1" id="Layer_1" xmlns="http://www.w3.org/2000/svg" xmlns:xlink="http://www.w3.org/1999/xlink" x="0px" y="0px"
	 width="1567.251px" height="2326.86px" viewBox="0 0 1567.251 2326.86" style="enable-background:new 0 0 1567.251 2326.86;"
	 xml:space="preserve">
<style type="text/css">
	.st0{fill:none;stroke:#000000;stroke-width:1.5297;stroke-miterlimit:10;}
	.st1{enable-background:new    ;}
	.st2{fill:none;stroke:#000000;stroke-width:2;stroke-miterlimit:10;}
</style>
<path class="st0" d="M926.324,660.624v126.508h356.237V660.624H926.324z M1233.746,702.194H975.35v-15.12h258.396V702.194z"/>
<g class="st1">
	<path class="st2" d="M256.055,2232.666c-50.8-29.84-89.412-71.034-115.807-123.557c-26.409-52.521-39.607-112.362-39.607-179.521
		c0-69.447,13.198-130.297,39.607-182.537c26.396-52.226,64.859-92.56,115.376-120.973c50.504-28.414,111.072-42.62,181.675-42.62
		s131.157,14.207,181.675,42.62c50.504,28.414,88.967,68.747,115.376,120.973c26.396,52.24,39.607,113.089,39.607,182.537
		c0,67.159-13.212,127-39.607,179.521c-26.409,52.522-65.007,93.717-115.807,123.557c-50.8,29.854-111.219,44.773-181.244,44.773
		C367.262,2277.44,306.856,2262.52,256.055,2232.666z M507.042,2073.378c16.063-36.729,24.109-85.807,24.109-147.234
		c0-59.693-7.75-106.901-23.248-141.638c-15.499-34.724-39.042-52.092-70.604-52.092c-31.575,0-55.105,17.368-70.604,52.092
		c-15.499,34.736-23.248,81.945-23.248,141.638c0,61.427,8.032,110.505,24.108,147.234c16.063,36.741,39.311,55.104,69.743,55.104
		C467.718,2128.483,490.966,2110.119,507.042,2073.378z"/>
	<path class="st2" d="M437.3,2252.239c-65.161,0-121.844-13.896-168.477-41.3c-46.318-27.207-82-65.273-106.058-113.146
		c-24.501-48.728-36.923-105.318-36.923-168.205c0-65.149,12.414-122.738,36.896-171.168
		c23.984-47.455,59.392-84.591,105.24-110.378c46.452-26.134,103.419-39.384,169.322-39.384c65.89,0,122.858,13.251,169.321,39.384
		c45.835,25.786,81.245,62.924,105.242,110.381c24.481,48.451,36.896,106.041,36.896,171.165
		c0,62.861-12.423,119.453-36.924,168.204c-24.075,47.882-59.758,85.95-106.054,113.145
		C559.144,2238.344,502.461,2252.239,437.3,2252.239z M437.3,1707.215c-29.061,0-68.892,11.628-93.615,67.021
		c-17.116,38.361-25.436,88.05-25.436,151.908c0,64.649,8.823,117.586,26.223,157.338c13.999,32.02,41.472,70.2,92.828,70.2
		c51.335,0,78.815-38.177,92.829-70.203c17.4-39.785,26.222-92.719,26.222-157.335c0-63.857-8.32-113.546-25.435-151.905
		C506.191,1718.843,466.36,1707.215,437.3,1707.215z"/>
</g>
<g class="st1">
	<path class="st2" d="M960.757,2232.666c-50.8-29.84-89.412-71.034-115.807-123.557c-26.409-52.521-39.607-112.362-39.607-179.521
		c0-69.447,13.198-130.297,39.607-182.537c26.396-52.226,64.859-92.56,115.376-120.973c50.504-28.414,111.072-42.62,181.675-42.62
		s131.157,14.207,181.675,42.62c50.504,28.414,88.967,68.747,115.376,120.973c26.396,52.24,39.607,113.089,39.607,182.537
		c0,67.159-13.212,127-39.607,179.521c-26.409,52.522-65.007,93.717-115.807,123.557c-50.8,29.854-111.219,44.773-181.244,44.773
		C1071.963,2277.439,1011.557,2262.519,960.757,2232.666z M1211.744,2073.378c16.063-36.729,24.109-85.807,24.109-147.234
		c0-59.693-7.75-106.901-23.248-141.638c-15.499-34.724-39.042-52.092-70.604-52.092c-31.575,0-55.105,17.368-70.604,52.092
		c-15.499,34.736-23.248,81.945-23.248,141.638c0,61.427,8.032,110.505,24.108,147.234c16.063,36.741,39.311,55.104,69.743,55.104
		C1172.42,2128.482,1195.667,2110.119,1211.744,2073.378z"/>
</g>
<g>
	<path class="st2" d="M302.66,1196.806c0,64.649,8.823,117.586,26.223,157.338c13.999,32.02,41.472,70.2,92.828,70.2
		c51.335,0,78.815-38.177,92.829-70.203c17.4-39.785,26.222-92.719,26.222-157.335c0-63.857-8.32-113.546-25.435-151.905
		c-24.726-55.396-64.557-67.024-93.617-67.024c-29.061,0-68.892,11.628-93.615,67.021
		C310.979,1083.26,302.66,1132.948,302.66,1196.806z M421.711,1003.077c31.562,0,55.105,17.368,70.604,52.092
		c15.498,34.736,23.248,81.945,23.248,141.638c0,61.427-8.045,110.505-24.109,147.234c-16.077,36.741-39.324,55.104-69.742,55.104
		c-30.432,0-53.679-18.363-69.743-55.104c-16.077-36.729-24.108-85.807-24.108-147.234c0-59.693,7.749-106.901,23.248-141.638
		C366.605,1020.445,390.136,1003.077,421.711,1003.077z"/>
	<path class="st2" d="M718.762,1017.714c-26.409-52.226-64.872-92.56-115.376-120.973c-28.059-15.781-59.218-27.173-93.471-34.189
		v25.822c29.749,6.569,56.867,16.691,81.118,30.331c45.835,25.786,81.245,62.924,105.242,110.381
		c24.481,48.451,36.896,106.041,36.896,171.165c0,62.861-12.423,119.453-36.924,168.204
		c-24.075,47.882-59.758,85.95-106.054,113.145c-46.637,27.406-103.32,41.302-168.481,41.302s-121.844-13.896-168.477-41.3
		c-46.318-27.207-82-65.273-106.058-113.146c-24.501-48.728-36.923-105.318-36.923-168.205c0-65.149,12.414-122.738,36.896-171.168
		c23.984-47.455,59.392-84.591,105.24-110.378c24.247-13.641,51.365-23.765,81.118-30.333v-25.821
		c-34.257,7.016-65.419,18.408-93.472,34.19c-50.518,28.414-88.981,68.747-115.376,120.973
		c-26.409,52.24-39.607,113.089-39.607,182.537c0,67.159,13.198,127,39.607,179.521c26.396,52.522,65.007,93.717,115.807,123.557
		c50.8,29.854,111.206,44.773,181.245,44.773c70.025,0,130.444-14.92,181.244-44.773c50.8-29.84,89.398-71.034,115.807-123.557
		c26.396-52.521,39.607-112.362,39.607-179.521C758.369,1130.803,745.158,1069.954,718.762,1017.714z"/>
</g>
<g>
	<path class="st2" d="M1022.95,1201.022c0,64.649,8.823,117.586,26.223,157.338c13.999,32.02,41.472,70.2,92.828,70.2
		c51.335,0,78.815-38.177,92.829-70.203c17.4-39.785,26.222-92.719,26.222-157.335c0-63.857-8.32-113.546-25.435-151.905
		c-24.726-55.396-64.557-67.024-93.617-67.024c-29.061,0-68.892,11.628-93.615,67.021
		C1031.27,1087.475,1022.95,1137.164,1022.95,1201.022z M1142.002,1007.292c31.562,0,55.105,17.368,70.604,52.092
		c15.498,34.736,23.248,81.945,23.248,141.638c0,61.427-8.045,110.505-24.109,147.234c-16.077,36.741-39.324,55.104-69.742,55.104
		c-30.432,0-53.679-18.363-69.743-55.104c-16.077-36.729-24.108-85.807-24.108-147.234c0-59.693,7.749-106.901,23.248-141.638
		C1086.896,1024.661,1110.426,1007.292,1142.002,1007.292z"/>
	<path class="st2" d="M1439.053,1021.93c-26.409-52.226-64.872-92.56-115.376-120.973c-28.059-15.781-59.218-27.173-93.471-34.189
		v25.822c29.749,6.569,56.867,16.691,81.117,30.331c45.835,25.786,81.245,62.924,105.242,110.381
		c24.481,48.451,36.896,106.041,36.896,171.165c0,62.861-12.423,119.453-36.924,168.204
		c-24.075,47.882-59.758,85.95-106.054,113.145c-46.637,27.406-103.32,41.302-168.481,41.302s-121.844-13.896-168.477-41.3
		c-46.318-27.207-82-65.273-106.058-113.146c-24.501-48.728-36.923-105.318-36.923-168.205c0-65.149,12.414-122.738,36.896-171.168
		c23.984-47.455,59.392-84.591,105.24-110.378c24.247-13.641,51.365-23.765,81.118-30.333v-25.821
		c-34.257,7.016-65.419,18.408-93.472,34.19c-50.518,28.414-88.981,68.747-115.376,120.973
		c-26.409,52.24-39.607,113.089-39.607,182.537c0,67.159,13.198,127,39.607,179.521c26.396,52.522,65.007,93.717,115.807,123.557
		c50.8,29.854,111.206,44.773,181.245,44.773c70.025,0,130.444-14.92,181.244-44.773c50.8-29.84,89.398-71.034,115.807-123.557
		c26.396-52.521,39.607-112.362,39.607-179.521C1478.66,1135.019,1465.448,1074.169,1439.053,1021.93z"/>
</g>
<path class="st2" d="M701.278,222.338c-26.409-52.226-64.872-92.56-115.376-120.973c-50.518-28.414-111.071-42.62-181.675-42.62
	s-131.171,14.207-181.675,42.62c-50.518,28.414-88.981,68.747-115.376,120.973c-26.409,52.24-39.607,113.089-39.607,182.537
	c0,67.159,13.198,127,39.607,179.521c26.396,52.522,65.007,93.717,115.807,123.557c16.383,9.628,33.771,17.693,52.152,24.214v36.097
	H533.32v-36.098c18.382-6.522,35.77-14.586,52.152-24.213c50.8-29.84,89.398-71.034,115.807-123.557
	c26.396-52.521,39.607-112.362,39.607-179.521C740.886,335.427,727.674,274.578,701.278,222.338z M333.623,259.792
	c15.498-34.724,39.028-52.092,70.604-52.092c31.562,0,55.105,17.368,70.604,52.092c15.498,34.736,23.248,81.945,23.248,141.638
	c0,61.427-8.045,110.505-24.109,147.234c-16.077,36.741-39.324,55.104-69.742,55.104c-30.432,0-53.679-18.363-69.743-55.104
	c-16.077-36.729-24.108-85.807-24.108-147.234C310.376,341.737,318.125,294.529,333.623,259.792z"/>
</svg>
