  0
SECTION
  2
HEADER
  9
$ACADVER
  1
AC1024
  9
$ACADMAINTVER
 70
     6
  9
$DWGCODEPAGE
  3
UNDEFINED
  9
$INSBASE
 10
0.0
 20
0.0
 30
0.0
  9
$EXTMIN
 10
1.000000000000000E+20
 20
1.000000000000000E+20
 30
1.000000000000000E+20
  9
$EXTMAX
 10
-1.000000000000000E+20
 20
-1.000000000000000E+20
 30
-1.000000000000000E+20
  9
$LIMMIN
 10
0.0
 20
0.0
  9
$LIMMAX
 10
12.0
 20
9.0
  9
$ORTHOMODE
 70
     0
  9
$REGENMODE
 70
     1
  9
$FILLMODE
 70
     1
  9
$QTEXTMODE
 70
     0
  9
$MIRRTEXT
 70
     1
  9
$LTSCALE
 40
1.0
  9
$ATTMODE
 70
     1
  9
$TEXTSIZE
 40
0.2
  9
$TRACEWID
 40
0.05
  9
$TEXTSTYLE
  7
Standard
  9
$CLAYER
  8
0
  9
$CELTYPE
  6
ByLayer
  9
$CECOLOR
 62
   256
  9
$CELTSCALE
 40
1.0
  9
$DISPSILH
 70
     0
  9
$DIMSCALE
 40
1.0
  9
$DIMASZ
 40
0.18
  9
$DIMEXO
 40
0.0625
  9
$DIMDLI
 40
0.38
  9
$DIMRND
 40
0.0
  9
$DIMDLE
 40
0.0
  9
$DIMEXE
 40
0.18
  9
$DIMTP
 40
0.0
  9
$DIMTM
 40
0.0
  9
$DIMTXT
 40
0.18
  9
$DIMCEN
 40
0.09
  9
$DIMTSZ
 40
0.0
  9
$DIMTOL
 70
     0
  9
$DIMLIM
 70
     0
  9
$DIMTIH
 70
     1
  9
$DIMTOH
 70
     1
  9
$DIMSE1
 70
     0
  9
$DIMSE2
 70
     0
  9
$DIMTAD
 70
     0
  9
$DIMZIN
 70
     0
  9
$DIMBLK
  1

  9
$DIMASO
 70
     1
  9
$DIMSHO
 70
     1
  9
$DIMPOST
  1

  9
$DIMAPOST
  1

  9
$DIMALT
 70
     0
  9
$DIMALTD
 70
     2
  9
$DIMALTF
 40
25.4
  9
$DIMLFAC
 40
1.0
  9
$DIMTOFL
 70
     0
  9
$DIMTVP
 40
0.0
  9
$DIMTIX
 70
     0
  9
$DIMSOXD
 70
     0
  9
$DIMSAH
 70
     0
  9
$DIMBLK1
  1

  9
$DIMBLK2
  1

  9
$DIMSTYLE
  2
Standard
  9
$DIMCLRD
 70
     0
  9
$DIMCLRE
 70
     0
  9
$DIMCLRT
 70
     0
  9
$DIMTFAC
 40
1.0
  9
$DIMGAP
 40
0.09
  9
$DIMJUST
 70
     0
  9
$DIMSD1
 70
     0
  9
$DIMSD2
 70
     0
  9
$DIMTOLJ
 70
     1
  9
$DIMTZIN
 70
     0
  9
$DIMALTZ
 70
     0
  9
$DIMALTTZ
 70
     0
  9
$DIMUPT
 70
     0
  9
$DIMDEC
 70
     4
  9
$DIMTDEC
 70
     4
  9
$DIMALTU
 70
     2
  9
$DIMALTTD
 70
     2
  9
$DIMTXSTY
  7
Standard
  9
$DIMAUNIT
 70
     0
  9
$DIMADEC
 70
     0
  9
$DIMALTRND
 40
0.0
  9
$DIMAZIN
 70
     0
  9
$DIMDSEP
 70
    46
  9
$DIMATFIT
 70
     3
  9
$DIMFRAC
 70
     0
  9
$DIMLDRBLK
  1

  9
$DIMLUNIT
 70
     2
  9
$DIMLWD
 70
    -2
  9
$DIMLWE
 70
    -2
  9
$DIMTMOVE
 70
     0
  9
$DIMFXL
 40
1.0
  9
$DIMFXLON
 70
     0
  9
$DIMJOGANG
 40
0.7853981633974483
  9
$DIMTFILL
 70
     0
  9
$DIMTFILLCLR
 70
     0
  9
$DIMARCSYM
 70
     0
  9
$DIMLTYPE
  6

  9
$DIMLTEX1
  6

  9
$DIMLTEX2
  6

  9
$DIMTXTDIRECTION
 70
     0
  9
$LUNITS
 70
     2
  9
$LUPREC
 70
     4
  9
$SKETCHINC
 40
0.1
  9
$FILLETRAD
 40
0.5
  9
$AUNITS
 70
     0
  9
$AUPREC
 70
     0
  9
$MENU
  1
.
  9
$ELEVATION
 40
0.0
  9
$PELEVATION
 40
0.0
  9
$THICKNESS
 40
0.0
  9
$LIMCHECK
 70
     0
  9
$CHAMFERA
 40
0.5
  9
$CHAMFERB
 40
0.5
  9
$CHAMFERC
 40
1.0
  9
$CHAMFERD
 40
0.0
  9
$SKPOLY
 70
     0
  9
$TDCREATE
 40
2459305.902465278
  9
$TDUCREATE
 40
2459306.152465278
  9
$TDUPDATE
 40
2459305.902465278
  9
$TDUUPDATE
 40
2459306.152465278
  9
$TDINDWG
 40
0.0000000116
  9
$TDUSRTIMER
 40
0.0000000116
  9
$USRTIMER
 70
     1
  9
$ANGBASE
 50
0.0
  9
$ANGDIR
 70
     0
  9
$PDMODE
 70
     0
  9
$PDSIZE
 40
0.0
  9
$PLINEWID
 40
0.0
  9
$SPLFRAME
 70
     0
  9
$SPLINETYPE
 70
     6
  9
$SPLINESEGS
 70
     8
  9
$HANDSEED
  5
6F
  9
$SURFTAB1
 70
     6
  9
$SURFTAB2
 70
     6
  9
$SURFTYPE
 70
     6
  9
$SURFU
 70
     6
  9
$SURFV
 70
     6
  9
$UCSBASE
  2

  9
$UCSNAME
  2

  9
$UCSORG
 10
0.0
 20
0.0
 30
0.0
  9
$UCSXDIR
 10
1.0
 20
0.0
 30
0.0
  9
$UCSYDIR
 10
0.0
 20
1.0
 30
0.0
  9
$UCSORTHOREF
  2

  9
$UCSORTHOVIEW
 70
     0
  9
$UCSORGTOP
 10
0.0
 20
0.0
 30
0.0
  9
$UCSORGBOTTOM
 10
0.0
 20
0.0
 30
0.0
  9
$UCSORGLEFT
 10
0.0
 20
0.0
 30
0.0
  9
$UCSORGRIGHT
 10
0.0
 20
0.0
 30
0.0
  9
$UCSORGFRONT
 10
0.0
 20
0.0
 30
0.0
  9
$UCSORGBACK
 10
0.0
 20
0.0
 30
0.0
  9
$PUCSBASE
  2

  9
$PUCSNAME
  2

  9
$PUCSORG
 10
0.0
 20
0.0
 30
0.0
  9
$PUCSXDIR
 10
1.0
 20
0.0
 30
0.0
  9
$PUCSYDIR
 10
0.0
 20
1.0
 30
0.0
  9
$PUCSORTHOREF
  2

  9
$PUCSORTHOVIEW
 70
     0
  9
$PUCSORGTOP
 10
0.0
 20
0.0
 30
0.0
  9
$PUCSORGBOTTOM
 10
0.0
 20
0.0
 30
0.0
  9
$PUCSORGLEFT
 10
0.0
 20
0.0
 30
0.0
  9
$PUCSORGRIGHT
 10
0.0
 20
0.0
 30
0.0
  9
$PUCSORGFRONT
 10
0.0
 20
0.0
 30
0.0
  9
$PUCSORGBACK
 10
0.0
 20
0.0
 30
0.0
  9
$USERI1
 70
     0
  9
$USERI2
 70
     0
  9
$USERI3
 70
     0
  9
$USERI4
 70
     0
  9
$USERI5
 70
     0
  9
$USERR1
 40
0.0
  9
$USERR2
 40
0.0
  9
$USERR3
 40
0.0
  9
$USERR4
 40
0.0
  9
$USERR5
 40
0.0
  9
$WORLDVIEW
 70
     1
  9
$SHADEDGE
 70
     3
  9
$SHADEDIF
 70
    70
  9
$TILEMODE
 70
     1
  9
$MAXACTVP
 70
    64
  9
$PINSBASE
 10
0.0
 20
0.0
 30
0.0
  9
$PLIMCHECK
 70
     0
  9
$PEXTMIN
 10
1.000000000000000E+20
 20
1.000000000000000E+20
 30
1.000000000000000E+20
  9
$PEXTMAX
 10
-1.000000000000000E+20
 20
-1.000000000000000E+20
 30
-1.000000000000000E+20
  9
$PLIMMIN
 10
0.0
 20
0.0
  9
$PLIMMAX
 10
12.0
 20
9.0
  9
$UNITMODE
 70
     0
  9
$VISRETAIN
 70
     1
  9
$PLINEGEN
 70
     0
  9
$PSLTSCALE
 70
     1
  9
$TREEDEPTH
 70
  3020
  9
$CMLSTYLE
  2
Standard
  9
$CMLJUST
 70
     0
  9
$CMLSCALE
 40
1.0
  9
$PROXYGRAPHICS
 70
     1
  9
$MEASUREMENT
 70
     0
  9
$CELWEIGHT
370
    -1
  9
$ENDCAPS
280
     0
  9
$JOINSTYLE
280
     0
  9
$LWDISPLAY
290
     1
  9
$INSUNITS
 70
     1
  9
$HYPERLINKBASE
  1

  9
$STYLESHEET
  1

  9
$XEDIT
290
     1
  9
$CEPSNTYPE
380
     0
  9
$PSTYLEMODE
290
     1
  9
$FINGERPRINTGUID
  2
{76F23CEA-A5C8-564B-7DB5-5AB904EC69DB}
  9
$VERSIONGUID
  2
{FAEB1C32-E019-11D5-929B-00C0DF256EC4}
  9
$EXTNAMES
290
     1
  9
$PSVPSCALE
 40
0.0
  9
$OLESTARTUP
290
     0
  9
$SORTENTS
280
   127
  9
$INDEXCTL
280
     0
  9
$HIDETEXT
280
     1
  9
$XCLIPFRAME
280
     2
  9
$HALOGAP
280
     0
  9
$OBSCOLOR
 70
   257
  9
$OBSLTYPE
280
     0
  9
$INTERSECTIONDISPLAY
280
     0
  9
$INTERSECTIONCOLOR
 70
   257
  9
$DIMASSOC
280
     2
  9
$PROJECTNAME
  1

  9
$CAMERADISPLAY
290
     0
  9
$LENSLENGTH
 40
50.0
  9
$CAMERAHEIGHT
 40
0.0
  9
$STEPSPERSEC
 40
2.0
  9
$STEPSIZE
 40
6.0
  9
$3DDWFPREC
 40
2.0
  9
$PSOLWIDTH
 40
0.25
  9
$PSOLHEIGHT
 40
4.0
  9
$LOFTANG1
 40
1.570796326794897
  9
$LOFTANG2
 40
1.570796326794897
  9
$LOFTMAG1
 40
0.0
  9
$LOFTMAG2
 40
0.0
  9
$LOFTPARAM
 70
     7
  9
$LOFTNORMALS
280
     1
  9
$LATITUDE
 40
37.795
  9
$LONGITUDE
 40
-122.394
  9
$NORTHDIRECTION
 40
0.0
  9
$TIMEZONE
 70
 -8000
  9
$LIGHTGLYPHDISPLAY
280
     1
  9
$TILEMODELIGHTSYNCH
280
     1
  9
$CMATERIAL
347
3C
  9
$SOLIDHIST
280
     1
  9
$SHOWHIST
280
     1
  9
$DWFFRAME
280
     2
  9
$DGNFRAME
280
     2
  9
$REALWORLDSCALE
290
     1
  9
$INTERFERECOLOR
 62
   256
  9
$CSHADOW
280
     0
  9
$SHADOWPLANELOCATION
 40
0.0
  0
ENDSEC
  0
SECTION
  2
CLASSES
  0
CLASS
  1
ACDBDICTIONARYWDFLT
  2
AcDbDictionaryWithDefault
  3
ObjectDBX Classes
 90
        0
 91
        4
280
     0
281
     0
  0
CLASS
  1
VISUALSTYLE
  2
AcDbVisualStyle
  3
ObjectDBX Classes
 90
     4095
 91
        4
280
     0
281
     0
  0
CLASS
  1
MATERIAL
  2
AcDbMaterial
  3
ObjectDBX Classes
 90
     1153
 91
        4
280
     0
281
     0
  0
CLASS
  1
SUN
  2
AcDbSun
  3
SCENEOE
 90
     1024
 91
        4
280
     0
281
     0
  0
ENDSEC
  0
SECTION
  2
TABLES
  0
TABLE
  2
VPORT
  5
8
330
0
100
AcDbSymbolTable
 70
     1
  0
VPORT
  5
29
330
8
100
AcDbSymbolTableRecord
100
AcDbViewportTableRecord
  2
*Active
 70
     0
 10
0.0
 20
0.0
 11
1.0
 21
1.0
 12
0.0
 22
0.0
 13
0.0
 23
0.0
 14
0.5
 24
0.5
 15
0.5
 25
0.5
 16
0.0
 26
0.0
 36
1.0
 17
10.88368733723958
 27
16.15875074598524
 37
0.0
 40
32.31750149197048
 41
0.6735475723544849
 42
50.0
 43
0.0
 44
0.0
 50
0.0
 51
0.0
 71
     0
 72
   100
 73
     1
 74
     3
 75
     0
 76
     0
 77
     0
 78
     0
281
     0
 65
     1
110
0.0
120
0.0
130
0.0
111
1.0
121
0.0
131
0.0
112
0.0
122
1.0
132
0.0
 79
     0
146
0.0
 60
     3
 61
     5
292
     1
282
     1
141
0.0
142
0.0
 63
   250
361
3F
  0
ENDTAB
  0
TABLE
  2
LTYPE
  5
5
330
0
100
AcDbSymbolTable
 70
     1
  0
LTYPE
  5
14
330
5
100
AcDbSymbolTableRecord
100
AcDbLinetypeTableRecord
  2
ByBlock
 70
     0
  3

 72
    65
 73
     0
 40
0.0
  0
LTYPE
  5
15
330
5
100
AcDbSymbolTableRecord
100
AcDbLinetypeTableRecord
  2
ByLayer
 70
     0
  3

 72
    65
 73
     0
 40
0.0
  0
LTYPE
  5
16
330
5
100
AcDbSymbolTableRecord
100
AcDbLinetypeTableRecord
  2
Continuous
 70
     0
  3
Solid line
 72
    65
 73
     0
 40
0.0
  0
ENDTAB
  0
TABLE
  2
LAYER
  5
2
330
0
100
AcDbSymbolTable
 70
     2
  0
LAYER
  5
10
330
2
100
AcDbSymbolTableRecord
100
AcDbLayerTableRecord
  2
0
 70
     0
 62
     7
  6
Continuous
370
    -3
390
F
347
3E
  0
LAYER
  5
40
330
2
100
AcDbSymbolTableRecord
100
AcDbLayerTableRecord
  2
Layer 1
 70
     0
 62
     7
  6
Continuous
370
    -3
390
F
347
3E
  0
ENDTAB
  0
TABLE
  2
STYLE
  5
3
330
0
100
AcDbSymbolTable
 70
     1
  0
STYLE
  5
11
330
3
100
AcDbSymbolTableRecord
100
AcDbTextStyleTableRecord
  2
Standard
 70
     0
 40
0.0
 41
1.0
 50
0.0
 71
     0
 42
0.2
  3
txt
  4

  0
ENDTAB
  0
TABLE
  2
VIEW
  5
6
330
0
100
AcDbSymbolTable
 70
     0
  0
ENDTAB
  0
TABLE
  2
UCS
  5
7
330
0
100
AcDbSymbolTable
 70
     0
  0
ENDTAB
  0
TABLE
  2
APPID
  5
9
330
0
100
AcDbSymbolTable
 70
     1
  0
APPID
  5
12
330
9
100
AcDbSymbolTableRecord
100
AcDbRegAppTableRecord
  2
ACAD
 70
     0
  0
ENDTAB
  0
TABLE
  2
DIMSTYLE
  5
A
330
0
100
AcDbSymbolTable
 70
     1
100
AcDbDimStyleTable
  0
DIMSTYLE
105
27
330
A
100
AcDbSymbolTableRecord
100
AcDbDimStyleTableRecord
  2
Standard
 70
     0
178
     0
340
11
  0
ENDTAB
  0
TABLE
  2
BLOCK_RECORD
  5
1
330
0
100
AcDbSymbolTable
 70
     5
  0
BLOCK_RECORD
  5
1F
330
1
100
AcDbSymbolTableRecord
100
AcDbBlockTableRecord
  2
*Model_Space
340
22
 70
     0
280
     1
281
     0
  0
BLOCK_RECORD
  5
1B
330
1
100
AcDbSymbolTableRecord
100
AcDbBlockTableRecord
  2
*Paper_Space
340
1E
 70
     0
280
     1
281
     0
  0
BLOCK_RECORD
  5
23
330
1
100
AcDbSymbolTableRecord
100
AcDbBlockTableRecord
  2
*Paper_Space0
340
26
 70
     0
280
     1
281
     0
  0
BLOCK_RECORD
  5
4F
330
1
100
AcDbSymbolTableRecord
100
AcDbBlockTableRecord
  2
block 2
340
0
102
{BLKREFS
331
50
102
}
 70
     0
280
     1
281
     0
  0
BLOCK_RECORD
  5
57
330
1
100
AcDbSymbolTableRecord
100
AcDbBlockTableRecord
  2
block 3
340
0
102
{BLKREFS
331
58
102
}
 70
     0
280
     1
281
     0
  0
BLOCK_RECORD
  5
5D
330
1
100
AcDbSymbolTableRecord
100
AcDbBlockTableRecord
  2
block 4
340
0
102
{BLKREFS
331
5E
102
}
 70
     0
280
     1
281
     0
  0
BLOCK_RECORD
  5
64
330
1
100
AcDbSymbolTableRecord
100
AcDbBlockTableRecord
  2
block 5
340
0
102
{BLKREFS
331
65
102
}
 70
     0
280
     1
281
     0
  0
ENDTAB
  0
ENDSEC
  0
SECTION
  2
BLOCKS
  0
BLOCK
  5
20
330
1F
100
AcDbEntity
  8
0
100
AcDbBlockBegin
  2
*Model_Space
 70
     0
 10
0.0
 20
0.0
 30
0.0
  3
*Model_Space
  1

  0
ENDBLK
  5
21
330
1F
100
AcDbEntity
  8
0
100
AcDbBlockEnd
  0
BLOCK
  5
1C
330
1B
100
AcDbEntity
 67
     1
  8
0
100
AcDbBlockBegin
  2
*Paper_Space
 70
     0
 10
0.0
 20
0.0
 30
0.0
  3
*Paper_Space
  1

  0
ENDBLK
  5
1D
330
1B
100
AcDbEntity
 67
     1
  8
0
100
AcDbBlockEnd
  0
BLOCK
  5
24
330
23
100
AcDbEntity
  8
0
100
AcDbBlockBegin
  2
*Paper_Space0
 70
     0
 10
0.0
 20
0.0
 30
0.0
  3
*Paper_Space0
  1

  0
ENDBLK
  5
25
330
23
100
AcDbEntity
  8
0
100
AcDbBlockEnd
  0
BLOCK
  5
51
330
4F
100
AcDbEntity
  8
0
100
AcDbBlockBegin
  2
block 2
 70
     0
 10
0.0
 20
0.0
 30
0.0
  3
block 2
  1

  0
SPLINE
  5
53
330
4F
100
AcDbEntity
  8
Layer 1
 62
     7
420
 16777215
370
    70
100
AcDbSpline
210
0.0
220
0.0
230
1.0
 70
    11
 71
     3
 72
    41
 73
    37
 74
     0
 42
0.0000000001
 43
0.0000000001
 12
1.0
 22
0.0
 32
0.0
 13
1.0
 23
0.0
 33
0.0
 40
0.0
 40
0.0
 40
0.0
 40
0.0
 40
1.0
 40
1.0
 40
1.0
 40
2.0
 40
2.0
 40
2.0
 40
3.0
 40
3.0
 40
3.0
 40
4.0
 40
4.0
 40
4.0
 40
5.0
 40
5.0
 40
5.0
 40
6.0
 40
6.0
 40
6.0
 40
7.0
 40
7.0
 40
7.0
 40
8.0
 40
8.0
 40
8.0
 40
9.0
 40
9.0
 40
9.0
 40
10.0
 40
10.0
 40
10.0
 40
11.0
 40
11.0
 40
11.0
 40
12.0
 40
12.0
 40
12.0
 40
12.0
 10
3.556319342719184
 20
1.308251241048184
 30
0.0
 10
2.850763744778103
 20
1.722696906195754
 30
0.0
 10
2.31448597378201
 20
2.294833679199226
 30
0.0
 10
1.947888692220052
 20
3.024319085015198
 30
0.0
 10
1.581097073025173
 20
3.753777364095059
 30
0.0
 10
1.397791544596354
 20
4.58490325927735
 30
0.0
 10
1.397791544596354
 20
5.517666252983948
 30
0.0
 10
1.397791544596354
 20
6.482208218044711
 30
0.0
 10
1.581097073025173
 20
7.327346767849399
 30
0.0
 10
1.947888692220052
 20
8.052902187771274
 30
0.0
 10
2.314499749077691
 20
8.77826263427735
 30
0.0
 10
2.848708258734809
 20
9.338456861707906
 30
0.0
 10
3.550333234998915
 20
9.733083055284295
 30
0.0
 10
4.251777648925781
 20
10.12772111680773
 30
0.0
 10
5.092999776204427
 20
10.3250274319119
 30
0.0
 10
6.073597378200954
 20
10.3250274319119
 30
0.0
 10
7.054194980197482
 20
10.3250274319119
 30
0.0
 10
7.895222134060329
 20
10.12770755343968
 30
0.0
 10
8.596861097547743
 20
9.733083055284295
 30
0.0
 10
9.29830593532986
 20
9.338444993760858
 30
0.0
 10
9.832513597276476
 20
8.778264329698358
 30
0.0
 10
10.19930521647135
 20
8.052902187771274
 30
0.0
 10
10.56591627332899
 20
7.327346767849399
 30
0.0
 10
10.74940236409505
 20
6.482221781412767
 30
0.0
 10
10.74940236409505
 20
5.517666252983948
 30
0.0
 10
10.74940236409505
 20
4.58490325927735
 30
0.0
 10
10.56590270996094
 20
3.753777364095059
 30
0.0
 10
10.19930521647135
 20
3.024319085015198
 30
0.0
 10
9.832513597276476
 20
2.294847242567281
 30
0.0
 10
9.296429951985676
 20
1.72269351535374
 30
0.0
 10
8.590874565972221
 20
1.308251241048184
 30
0.0
 10
7.885319179958767
 20
0.893612297905823
 30
0.0
 10
7.046166314019096
 20
0.6864047241211008
 30
0.0
 10
6.073596530490451
 20
0.6864047241211008
 30
0.0
 10
5.100861019558376
 20
0.6863911607530452
 30
0.0
 10
4.261888715955946
 20
0.893612297905823
 30
0.0
 10
3.556319342719184
 20
1.308251241048184
 30
0.0
  0
SPLINE
  5
54
330
4F
100
AcDbEntity
  8
Layer 1
 62
     7
420
 16777215
370
    70
100
AcDbSpline
210
0.0
220
0.0
230
1.0
 70
    11
 71
     3
 72
    29
 73
    25
 74
     0
 42
0.0000000001
 43
0.0000000001
 12
1.0
 22
0.0
 32
0.0
 13
1.0
 23
0.0
 33
0.0
 40
0.0
 40
0.0
 40
0.0
 40
0.0
 40
1.0
 40
1.0
 40
1.0
 40
2.0
 40
2.0
 40
2.0
 40
3.0
 40
3.0
 40
3.0
 40
4.0
 40
4.0
 40
4.0
 40
5.0
 40
5.0
 40
5.0
 40
6.0
 40
6.0
 40
6.0
 40
7.0
 40
7.0
 40
7.0
 40
8.0
 40
8.0
 40
8.0
 40
8.0
 10
7.042249891493055
 20
3.520585767957906
 30
0.0
 10
7.265346950954861
 20
4.030710822211378
 30
0.0
 10
7.37709723578559
 20
4.712349751790371
 30
0.0
 10
7.37709723578559
 20
5.565502556694885
 30
0.0
 10
7.37709723578559
 20
6.394571906195753
 30
0.0
 10
7.269458346896701
 20
7.050238681369365
 30
0.0
 10
7.054208543565538
 20
7.532697855631517
 30
0.0
 10
6.838944753011067
 20
8.014975619845927
 30
0.0
 10
6.511958652072482
 20
8.256198425292975
 30
0.0
 10
6.073597378200954
 20
8.256198425292975
 30
0.0
 10
5.635055541992188
 20
8.256198425292975
 30
0.0
 10
5.308250003390842
 20
8.014975619845927
 30
0.0
 10
5.092986212836371
 20
7.532697855631517
 30
0.0
 10
4.8777224222819
 20
7.050253940158427
 30
0.0
 10
4.770097520616319
 20
6.39457360161676
 30
0.0
 10
4.770097520616319
 20
5.565504252115892
 30
0.0
 10
4.770097520616319
 20
4.712351447211378
 30
0.0
 10
4.881653255886501
 20
4.030712517632385
 30
0.0
 10
5.104930877685547
 20
3.52058915879992
 30
0.0
 10
5.328027937147352
 20
3.010297953287767
 30
0.0
 10
5.650917053222656
 20
2.755255771213115
 30
0.0
 10
6.073583814832899
 20
2.755255771213115
 30
0.0
 10
6.496083153618706
 20
2.755238817003045
 30
0.0
 10
6.81897226969401
 20
3.010294562445754
 30
0.0
 10
7.042249891493055
 20
3.520585767957906
 30
0.0
  0
SPLINE
  5
55
330
4F
100
AcDbEntity
  8
Layer 1
 62
     7
420
 16777215
370
    70
100
AcDbSpline
210
0.0
220
0.0
230
1.0
 70
    11
 71
     3
 72
    41
 73
    37
 74
     0
 42
0.0000000001
 43
0.0000000001
 12
1.0
 22
0.0
 32
0.0
 13
1.0
 23
0.0
 33
0.0
 40
0.0
 40
0.0
 40
0.0
 40
0.0
 40
1.0
 40
1.0
 40
1.0
 40
2.0
 40
2.0
 40
2.0
 40
3.0
 40
3.0
 40
3.0
 40
4.0
 40
4.0
 40
4.0
 40
5.0
 40
5.0
 40
5.0
 40
6.0
 40
6.0
 40
6.0
 40
7.0
 40
7.0
 40
7.0
 40
8.0
 40
8.0
 40
8.0
 40
9.0
 40
9.0
 40
9.0
 40
10.0
 40
10.0
 40
10.0
 40
11.0
 40
11.0
 40
11.0
 40
12.0
 40
12.0
 40
12.0
 40
12.0
 10
6.07361094156901
 20
1.036404045952698
 30
0.0
 10
5.168596903483072
 20
1.036404045952698
 30
0.0
 10
4.381333245171441
 20
1.229403991699226
 30
0.0
 10
3.733652750651042
 20
1.610015835232212
 30
0.0
 10
3.090347290039062
 20
1.98789126925999
 30
0.0
 10
2.594763861762153
 20
2.516584574381517
 30
0.0
 10
2.260624991522895
 20
3.181488003200962
 30
0.0
 10
1.920333438449436
 20
3.858266160753045
 30
0.0
 10
1.747805489434136
 20
4.644237908257385
 30
0.0
 10
1.747805489434136
 20
5.517667948404955
 30
0.0
 10
1.747805489434136
 20
6.422515835232211
 30
0.0
 10
1.920222176445855
 20
7.222362908257385
 30
0.0
 10
2.260249879625108
 20
7.89500084771051
 30
0.0
 10
2.593360900878906
 20
8.55409745958117
 30
0.0
 10
3.085138744778103
 20
9.069875047471795
 30
0.0
 10
3.72191662258572
 20
9.428029344346795
 30
0.0
 10
4.367083231608072
 20
9.79100202772353
 30
0.0
 10
5.158291710747613
 20
9.97502980550131
 30
0.0
 10
6.07361094156901
 20
9.97502980550131
 30
0.0
 10
6.98875003390842
 20
9.97502980550131
 30
0.0
 10
7.779971652560763
 20
9.790988464355475
 30
0.0
 10
8.425291273328993
 20
9.428029344346795
 30
0.0
 10
9.061888800726996
 20
9.069890306260858
 30
0.0
 10
9.55369398328993
 20
8.554085591634122
 30
0.0
 10
9.886985778808594
 20
7.894960157606343
 30
0.0
 10
10.22699991861979
 20
7.222028910319017
 30
0.0
 10
10.39943016899957
 20
6.422168273925788
 30
0.0
 10
10.39943016899957
 20
5.517667948404955
 30
0.0
 10
10.39943016899957
 20
4.644599032931865
 30
0.0
 10
10.22688886854384
 20
3.858598463270406
 30
0.0
 10
9.8865966796875
 20
3.181501566569017
 30
0.0
 10
9.552221510145399
 20
2.516472676595059
 30
0.0
 10
9.056624518500433
 20
1.98775224473742
 30
0.0
 10
8.413624233669704
 20
1.610042961968323
 30
0.0
 10
7.765888637966579
 20
1.22939042833117
 30
0.0
 10
6.978624979654947
 20
1.036404045952698
 30
0.0
 10
6.07361094156901
 20
1.036404045952698
 30
0.0
  0
SPLINE
  5
56
330
4F
100
AcDbEntity
  8
Layer 1
 62
     7
420
 16777215
370
    70
100
AcDbSpline
210
0.0
220
0.0
230
1.0
 70
    11
 71
     3
 72
    29
 73
    25
 74
     0
 42
0.0000000001
 43
0.0000000001
 12
1.0
 22
0.0
 32
0.0
 13
1.0
 23
0.0
 33
0.0
 40
0.0
 40
0.0
 40
0.0
 40
0.0
 40
1.0
 40
1.0
 40
1.0
 40
2.0
 40
2.0
 40
2.0
 40
3.0
 40
3.0
 40
3.0
 40
4.0
 40
4.0
 40
4.0
 40
5.0
 40
5.0
 40
5.0
 40
6.0
 40
6.0
 40
6.0
 40
7.0
 40
7.0
 40
7.0
 40
8.0
 40
8.0
 40
8.0
 40
8.0
 10
6.07361094156901
 20
8.60618248833551
 30
0.0
 10
5.669985877143012
 20
8.60618248833551
 30
0.0
 10
5.116777631971571
 20
8.444681769477004
 30
0.0
 10
4.773402743869357
 20
7.67533532036676
 30
0.0
 10
4.535680558946397
 20
7.142544182671448
 30
0.0
 10
4.420124901665582
 20
6.452417975531691
 30
0.0
 10
4.420124901665582
 20
5.565502556694885
 30
0.0
 10
4.420124901665582
 20
4.667599114312073
 30
0.0
 10
4.542666541205512
 20
3.932362840440545
 30
0.0
 10
4.784333123101129
 20
3.3802523803711
 30
0.0
 10
4.978763580322266
 20
2.935529886881517
 30
0.0
 10
5.360332912868923
 20
2.405253058539504
 30
0.0
 10
6.07361094156901
 20
2.405253058539504
 30
0.0
 10
6.78659693400065
 20
2.405253058539504
 30
0.0
 10
7.168263753255208
 20
2.935489196777351
 30
0.0
 10
7.362902323404947
 20
3.380293070475267
 30
0.0
 10
7.604569329155815
 20
3.932862989637594
 30
0.0
 10
7.727096557617188
 20
4.668056877983948
 30
0.0
 10
7.727096557617188
 20
5.565500861273878
 30
0.0
 10
7.727096557617188
 20
6.452404412163635
 30
0.0
 10
7.611540900336371
 20
7.142528923882385
 30
0.0
 10
7.373832702636719
 20
7.675292934841586
 30
0.0
 10
7.030430687798393
 20
8.444681769477004
 30
0.0
 10
6.477222018771701
 20
8.60618248833551
 30
0.0
 10
6.07361094156901
 20
8.60618248833551
 30
0.0
  0
ENDBLK
  5
52
330
4F
100
AcDbEntity
  8
0
100
AcDbBlockEnd
  0
BLOCK
  5
59
330
57
100
AcDbEntity
  8
0
100
AcDbBlockBegin
  2
block 3
 70
     0
 10
0.0
 20
0.0
 30
0.0
  3
block 3
  1

  0
SPLINE
  5
5B
330
57
100
AcDbEntity
  8
Layer 1
 62
     7
420
 16777215
370
    70
100
AcDbSpline
210
0.0
220
0.0
230
1.0
 70
    11
 71
     3
 72
    41
 73
    37
 74
     0
 42
0.0000000001
 43
0.0000000001
 12
1.0
 22
0.0
 32
0.0
 13
1.0
 23
0.0
 33
0.0
 40
0.0
 40
0.0
 40
0.0
 40
0.0
 40
1.0
 40
1.0
 40
1.0
 40
2.0
 40
2.0
 40
2.0
 40
3.0
 40
3.0
 40
3.0
 40
4.0
 40
4.0
 40
4.0
 40
5.0
 40
5.0
 40
5.0
 40
6.0
 40
6.0
 40
6.0
 40
7.0
 40
7.0
 40
7.0
 40
8.0
 40
8.0
 40
8.0
 40
9.0
 40
9.0
 40
9.0
 40
10.0
 40
10.0
 40
10.0
 40
11.0
 40
11.0
 40
11.0
 40
12.0
 40
12.0
 40
12.0
 40
12.0
 10
13.3438474867079
 20
1.308251241048184
 30
0.0
 10
12.63829210069444
 20
1.722696906195754
 30
0.0
 10
12.10201432969835
 20
2.294833679199226
 30
0.0
 10
11.73541683620877
 20
3.024319085015198
 30
0.0
 10
11.36862521701389
 20
3.753777364095059
 30
0.0
 10
11.18531968858507
 20
4.58490325927735
 30
0.0
 10
11.18531968858507
 20
5.517666252983948
 30
0.0
 10
11.18531968858507
 20
6.482208218044711
 30
0.0
 10
11.36862521701389
 20
7.327346767849399
 30
0.0
 10
11.73541683620877
 20
8.052902187771274
 30
0.0
 10
12.10202789306641
 20
8.77826263427735
 30
0.0
 10
12.63623640272352
 20
9.338456861707906
 30
0.0
 10
13.33786095513238
 20
9.733083055284295
 30
0.0
 10
14.0393057929145
 20
10.12772111680773
 30
0.0
 10
14.88052707248264
 20
10.3250274319119
 30
0.0
 10
15.86112467447917
 20
10.3250274319119
 30
0.0
 10
16.84172227647569
 20
10.3250274319119
 30
0.0
 10
17.68274943033854
 20
10.12770755343968
 30
0.0
 10
18.38438924153646
 20
9.733083055284295
 30
0.0
 10
19.08583407931858
 20
9.338444993760858
 30
0.0
 10
19.62004258897569
 20
8.778264329698358
 30
0.0
 10
19.98683336046007
 20
8.052902187771274
 30
0.0
 10
20.35344441731771
 20
7.327346767849399
 30
0.0
 10
20.53693135579427
 20
6.482221781412767
 30
0.0
 10
20.53693135579427
 20
5.517666252983948
 30
0.0
 10
20.53693135579427
 20
4.58490325927735
 30
0.0
 10
20.35343085394965
 20
3.753777364095059
 30
0.0
 10
19.98683336046007
 20
3.024319085015198
 30
0.0
 10
19.62004089355469
 20
2.294847242567281
 30
0.0
 10
19.08395894368489
 20
1.72269351535374
 30
0.0
 10
18.37840270996094
 20
1.308251241048184
 30
0.0
 10
17.67284647623698
 20
0.893612297905823
 30
0.0
 10
16.83369445800781
 20
0.6864047241211008
 30
0.0
 10
15.86112467447917
 20
0.6864047241211008
 30
0.0
 10
14.88837517632378
 20
0.6864047241211008
 30
0.0
 10
14.04940287272135
 20
0.8936258612738786
 30
0.0
 10
13.3438474867079
 20
1.308251241048184
 30
0.0
  0
SPLINE
  5
5C
330
57
100
AcDbEntity
  8
Layer 1
 62
     7
420
 16777215
370
    70
100
AcDbSpline
210
0.0
220
0.0
230
1.0
 70
    11
 71
     3
 72
    29
 73
    25
 74
     0
 42
0.0000000001
 43
0.0000000001
 12
1.0
 22
0.0
 32
0.0
 13
1.0
 23
0.0
 33
0.0
 40
0.0
 40
0.0
 40
0.0
 40
0.0
 40
1.0
 40
1.0
 40
1.0
 40
2.0
 40
2.0
 40
2.0
 40
3.0
 40
3.0
 40
3.0
 40
4.0
 40
4.0
 40
4.0
 40
5.0
 40
5.0
 40
5.0
 40
6.0
 40
6.0
 40
6.0
 40
7.0
 40
7.0
 40
7.0
 40
8.0
 40
8.0
 40
8.0
 40
8.0
 10
16.82977803548177
 20
3.520585767957906
 30
0.0
 10
17.05287509494358
 20
4.030710822211378
 30
0.0
 10
17.1646253797743
 20
4.712349751790371
 30
0.0
 10
17.1646253797743
 20
5.565502556694885
 30
0.0
 10
17.1646253797743
 20
6.394571906195753
 30
0.0
 10
17.05698649088541
 20
7.050238681369365
 30
0.0
 10
16.84173583984375
 20
7.532697855631517
 30
0.0
 10
16.62647162543403
 20
8.014975619845927
 30
0.0
 10
16.29948594835069
 20
8.256198425292975
 30
0.0
 10
15.86112467447917
 20
8.256198425292975
 30
0.0
 10
15.4225836859809
 20
8.256198425292975
 30
0.0
 10
15.09577772352431
 20
8.014975619845927
 30
0.0
 10
14.88051350911458
 20
7.532697855631517
 30
0.0
 10
14.66524929470486
 20
7.050253940158427
 30
0.0
 10
14.55762396918403
 20
6.39457360161676
 30
0.0
 10
14.55762396918403
 20
5.565504252115892
 30
0.0
 10
14.55762396918403
 20
4.712351447211378
 30
0.0
 10
14.66917928059896
 20
4.030712517632385
 30
0.0
 10
14.89245775010851
 20
3.52058915879992
 30
0.0
 10
15.11555480957031
 20
3.010297953287767
 30
0.0
 10
15.43844434950087
 20
2.755255771213115
 30
0.0
 10
15.86111111111111
 20
2.755255771213115
 30
0.0
 10
16.28361172146267
 20
2.755252380371101
 30
0.0
 10
16.60648600260416
 20
3.010294562445754
 30
0.0
 10
16.82977803548177
 20
3.520585767957906
 30
0.0
  0
ENDBLK
  5
5A
330
57
100
AcDbEntity
  8
0
100
AcDbBlockEnd
  0
BLOCK
  5
5F
330
5D
100
AcDbEntity
  8
0
100
AcDbBlockBegin
  2
block 4
 70
     0
 10
0.0
 20
0.0
 30
0.0
  3
block 4
  1

  0
SPLINE
  5
61
330
5D
100
AcDbEntity
  8
Layer 1
 62
     7
420
 16777215
370
    70
100
AcDbSpline
210
0.0
220
0.0
230
1.0
 70
    11
 71
     3
 72
    29
 73
    25
 74
     0
 42
0.0000000001
 43
0.0000000001
 12
1.0
 22
0.0
 32
0.0
 13
1.0
 23
0.0
 33
0.0
 40
0.0
 40
0.0
 40
0.0
 40
0.0
 40
1.0
 40
1.0
 40
1.0
 40
2.0
 40
2.0
 40
2.0
 40
3.0
 40
3.0
 40
3.0
 40
4.0
 40
4.0
 40
4.0
 40
5.0
 40
5.0
 40
5.0
 40
6.0
 40
6.0
 40
6.0
 40
7.0
 40
7.0
 40
7.0
 40
8.0
 40
8.0
 40
8.0
 40
8.0
 10
4.203611161973742
 20
15.69519548204211
 30
0.0
 10
4.203611161973742
 20
14.7972920396593
 30
0.0
 10
4.326152801513672
 20
14.06205576578777
 30
0.0
 10
4.567819383409288
 20
13.50994530571832
 30
0.0
 10
4.762249840630425
 20
13.06522281222874
 30
0.0
 10
5.143819173177083
 20
12.53494598388673
 30
0.0
 10
5.85709720187717
 20
12.53494598388673
 30
0.0
 10
6.57008319430881
 20
12.53494598388673
 30
0.0
 10
6.951750013563368
 20
13.06518212212457
 30
0.0
 10
7.146388583713107
 20
13.5099876912435
 30
0.0
 10
7.388055589463975
 20
14.06255761040582
 30
0.0
 10
7.510582817925346
 20
14.79775149875218
 30
0.0
 10
7.510582817925346
 20
15.69519548204211
 30
0.0
 10
7.510582817925346
 20
16.58209903293186
 30
0.0
 10
7.395027160644531
 20
17.27222354465061
 30
0.0
 10
7.157318962944878
 20
17.80498755560982
 30
0.0
 10
6.813902113172743
 20
18.57437639024523
 30
0.0
 10
6.260693868001302
 20
18.73587626139323
 30
0.0
 10
5.857082790798611
 20
18.73587626139323
 30
0.0
 10
5.453457726372613
 20
18.73587626139323
 30
0.0
 10
4.900249481201172
 20
18.57437639024523
 30
0.0
 10
4.556874593098958
 20
17.80502824571398
 30
0.0
 10
4.31915283203125
 20
17.27222354465061
 30
0.0
 10
4.203611161973742
 20
16.58211259629992
 30
0.0
 10
4.203611161973742
 20
15.69519548204211
 30
0.0
  0
SPLINE
  5
62
330
5D
100
AcDbEntity
  8
Layer 1
 62
     7
420
 16777215
370
    70
100
AcDbSpline
210
0.0
220
0.0
230
1.0
 70
    11
 71
     3
 72
    29
 73
    25
 74
     0
 42
0.0000000001
 43
0.0000000001
 12
1.0
 22
0.0
 32
0.0
 13
1.0
 23
0.0
 33
0.0
 40
0.0
 40
0.0
 40
0.0
 40
0.0
 40
1.0
 40
1.0
 40
1.0
 40
2.0
 40
2.0
 40
2.0
 40
3.0
 40
3.0
 40
3.0
 40
4.0
 40
4.0
 40
4.0
 40
5.0
 40
5.0
 40
5.0
 40
6.0
 40
6.0
 40
6.0
 40
7.0
 40
7.0
 40
7.0
 40
8.0
 40
8.0
 40
8.0
 40
8.0
 10
5.85709720187717
 20
18.38587609185113
 30
0.0
 10
6.295458475748697
 20
18.38587609185113
 30
0.0
 10
6.622444576687283
 20
18.14465413411459
 30
0.0
 10
6.837708367241753
 20
17.66237552218968
 30
0.0
 10
7.052958170572916
 20
17.17993160671659
 30
0.0
 10
7.160597059461805
 20
16.52425126817492
 30
0.0
 10
7.160597059461805
 20
15.69518022325305
 30
0.0
 10
7.160597059461805
 20
14.84202741834853
 30
0.0
 10
7.048860761854383
 20
14.16038848876954
 30
0.0
 10
6.825749715169271
 20
13.65026343451606
 30
0.0
 10
6.602458106146918
 20
13.13997222900391
 30
0.0
 10
6.279582977294922
 20
12.88493004692926
 30
0.0
 10
5.857110765245225
 20
12.88493004692926
 30
0.0
 10
5.434444003634982
 20
12.88493004692926
 30
0.0
 10
5.111568874782986
 20
13.13997222900391
 30
0.0
 10
4.888458251953125
 20
13.65026343451606
 30
0.0
 10
4.665166642930772
 20
14.16038848876954
 30
0.0
 10
4.553624894883897
 20
14.84202741834853
 30
0.0
 10
4.553624894883897
 20
15.69518022325305
 30
0.0
 10
4.553624894883897
 20
16.52424957275391
 30
0.0
 10
4.661249796549479
 20
17.17991634792752
 30
0.0
 10
4.87651358710395
 20
17.66237382676867
 30
0.0
 10
5.091736263699001
 20
18.14465413411459
 30
0.0
 10
5.418555365668403
 20
18.38587609185113
 30
0.0
 10
5.85709720187717
 20
18.38587609185113
 30
0.0
  0
SPLINE
  5
63
330
5D
100
AcDbEntity
  8
Layer 1
 62
     7
420
 16777215
370
    70
100
AcDbSpline
210
0.0
220
0.0
230
1.0
 70
    11
 71
     3
 72
    83
 73
    79
 74
     0
 42
0.0000000001
 43
0.0000000001
 12
1.0
 22
0.0
 32
0.0
 13
1.0
 23
0.0
 33
0.0
 40
0.0
 40
0.0
 40
0.0
 40
0.0
 40
1.0
 40
1.0
 40
1.0
 40
2.0
 40
2.0
 40
2.0
 40
3.0
 40
3.0
 40
3.0
 40
4.0
 40
4.0
 40
4.0
 40
5.0
 40
5.0
 40
5.0
 40
6.0
 40
6.0
 40
6.0
 40
7.0
 40
7.0
 40
7.0
 40
8.0
 40
8.0
 40
8.0
 40
9.0
 40
9.0
 40
9.0
 40
10.0
 40
10.0
 40
10.0
 40
11.0
 40
11.0
 40
11.0
 40
12.0
 40
12.0
 40
12.0
 40
13.0
 40
13.0
 40
13.0
 40
14.0
 40
14.0
 40
14.0
 40
15.0
 40
15.0
 40
15.0
 40
16.0
 40
16.0
 40
16.0
 40
17.0
 40
17.0
 40
17.0
 40
18.0
 40
18.0
 40
18.0
 40
19.0
 40
19.0
 40
19.0
 40
20.0
 40
20.0
 40
20.0
 40
21.0
 40
21.0
 40
21.0
 40
22.0
 40
22.0
 40
22.0
 40
23.0
 40
23.0
 40
23.0
 40
24.0
 40
24.0
 40
24.0
 40
25.0
 40
25.0
 40
25.0
 40
26.0
 40
26.0
 40
26.0
 40
26.0
 10
9.982805887858072
 20
18.18258494059245
 30
0.0
 10
9.616014268663195
 20
18.90794623480904
 30
0.0
 10
9.081805759006075
 20
19.46814046223959
 30
0.0
 10
8.380361768934462
 20
19.86276580810548
 30
0.0
 10
7.990653143988715
 20
20.08194644504124
 30
0.0
 10
7.557889302571614
 20
20.24016821967232
 30
0.0
 10
7.0821533203125
 20
20.33761338975695
 30
0.0
 10
7.0821533203125
 20
20.33761338975695
 30
0.0
 10
7.0821533203125
 20
19.97897420247396
 30
0.0
 10
7.0821533203125
 20
19.97897420247396
 30
0.0
 10
7.495334201388888
 20
19.88773851182726
 30
0.0
 10
7.8719728257921
 20
19.74715504964193
 30
0.0
 10
8.208791944715712
 20
19.55771040174697
 30
0.0
 10
8.845389472113714
 20
19.19957136366103
 30
0.0
 10
9.337194654676649
 20
18.68376580132379
 30
0.0
 10
9.670486450195312
 20
18.02464121500651
 30
0.0
 10
10.01050059000651
 20
17.35170996771919
 30
0.0
 10
10.18293084038628
 20
16.55184933132596
 30
0.0
 10
10.18293084038628
 20
15.64734900580513
 30
0.0
 10
10.18293084038628
 20
14.77428009033204
 30
0.0
 10
10.01038953993056
 20
13.98827952067058
 30
0.0
 10
9.670097351074219
 20
13.31118262396919
 30
0.0
 10
9.335722181532118
 20
12.64615542941624
 30
0.0
 10
8.840125189887152
 20
12.11743330213759
 30
0.0
 10
8.197124905056423
 20
11.7397240193685
 30
0.0
 10
7.549388461642795
 20
11.3590850490994
 30
0.0
 10
6.762124803331163
 20
11.16608510335287
 30
0.0
 10
5.857110765245225
 20
11.16608510335287
 30
0.0
 10
4.952096727159288
 20
11.16608510335287
 30
0.0
 10
4.164833068847656
 20
11.3590850490994
 30
0.0
 10
3.517152362399631
 20
11.73969689263238
 30
0.0
 10
2.873846689860026
 20
12.11757232666016
 30
0.0
 10
2.378263473510742
 20
12.64626563178169
 30
0.0
 10
2.044124603271484
 20
13.31116906060113
 30
0.0
 10
1.703832944234212
 20
13.98794721815322
 30
0.0
 10
1.531305101182726
 20
14.77391896565756
 30
0.0
 10
1.531305101182726
 20
15.64734900580513
 30
0.0
 10
1.531305101182726
 20
16.55219689263238
 30
0.0
 10
1.703721788194444
 20
17.35204396565756
 30
0.0
 10
2.043749491373698
 20
18.02468190511068
 30
0.0
 10
2.376860512627495
 20
18.68377936469185
 30
0.0
 10
2.868638356526692
 20
19.19955695258247
 30
0.0
 10
3.505416022406684
 20
19.55770955403646
 30
0.0
 10
3.842180040147569
 20
19.74716776529948
 30
0.0
 10
4.218818664550781
 20
19.88777920193143
 30
0.0
 10
4.632054646809896
 20
19.97900132921007
 30
0.0
 10
4.632054646809896
 20
19.97900132921007
 30
0.0
 10
4.632054646809896
 20
20.3376261054145
 30
0.0
 10
4.632054646809896
 20
20.3376261054145
 30
0.0
 10
4.156263139512804
 20
20.24018178304037
 30
0.0
 10
3.723457336425781
 20
20.08195916069879
 30
0.0
 10
3.333832422892252
 20
19.86276496039497
 30
0.0
 10
2.632193459404839
 20
19.46812605116103
 30
0.0
 10
2.097985161675347
 20
18.90794538709853
 30
0.0
 10
1.731387986077203
 20
18.18258409288195
 30
0.0
 10
1.364596260918511
 20
17.45702782524957
 30
0.0
 10
1.181290732489692
 20
16.61190283881294
 30
0.0
 10
1.181290732489692
 20
15.64734731038412
 30
0.0
 10
1.181290732489692
 20
14.71458262125652
 30
0.0
 10
1.364596260918511
 20
13.88345842149523
 30
0.0
 10
1.73138788011339
 20
13.15400014241537
 30
0.0
 10
2.097998936971028
 20
12.42452829996745
 30
0.0
 10
2.634262932671441
 20
11.85237457275391
 30
0.0
 10
3.339818318684896
 20
11.43793060302735
 30
0.0
 10
4.045373704698351
 20
11.02329165988499
 30
0.0
 10
4.884346008300781
 20
10.81608408610027
 30
0.0
 10
5.857109917534722
 20
10.81608408610027
 30
0.0
 10
6.829679277208116
 20
10.81608408610027
 30
0.0
 10
7.668831719292534
 20
11.02330691867405
 30
0.0
 10
8.374387953016493
 20
11.43793060302735
 30
0.0
 10
9.079943339029947
 20
11.85237457275391
 30
0.0
 10
9.616026984320746
 20
12.42451304117839
 30
0.0
 10
9.982818603515625
 20
13.15400014241537
 30
0.0
 10
10.34942966037326
 20
13.88345842149523
 30
0.0
 10
10.53291575113932
 20
14.71458262125652
 30
0.0
 10
10.53291575113932
 20
15.64734731038412
 30
0.0
 10
10.53290303548177
 20
16.61190453423395
 30
0.0
 10
10.34941694471571
 20
17.45702952067058
 30
0.0
 10
9.982805887858072
 20
18.18258494059245
 30
0.0
  0
ENDBLK
  5
60
330
5D
100
AcDbEntity
  8
0
100
AcDbBlockEnd
  0
BLOCK
  5
66
330
64
100
AcDbEntity
  8
0
100
AcDbBlockBegin
  2
block 5
 70
     0
 10
0.0
 20
0.0
 30
0.0
  3
block 5
  1

  0
SPLINE
  5
68
330
64
100
AcDbEntity
  8
Layer 1
 62
     7
420
 16777215
370
    70
100
AcDbSpline
210
0.0
220
0.0
230
1.0
 70
    11
 71
     3
 72
    29
 73
    25
 74
     0
 42
0.0000000001
 43
0.0000000001
 12
1.0
 22
0.0
 32
0.0
 13
1.0
 23
0.0
 33
0.0
 40
0.0
 40
0.0
 40
0.0
 40
0.0
 40
1.0
 40
1.0
 40
1.0
 40
2.0
 40
2.0
 40
2.0
 40
3.0
 40
3.0
 40
3.0
 40
4.0
 40
4.0
 40
4.0
 40
5.0
 40
5.0
 40
5.0
 40
6.0
 40
6.0
 40
6.0
 40
7.0
 40
7.0
 40
7.0
 40
8.0
 40
8.0
 40
8.0
 40
8.0
 10
14.20763905843099
 20
15.63664072672527
 30
0.0
 10
14.20763905843099
 20
14.73873728434245
 30
0.0
 10
14.33018154568142
 20
14.00350270589193
 30
0.0
 10
14.57184685601128
 20
13.45139055040148
 30
0.0
 10
14.76627773708767
 20
13.0066680569119
 30
0.0
 10
15.14784749348958
 20
12.47639122856988
 30
0.0
 10
15.86112467447917
 20
12.47639122856988
 30
0.0
 10
16.57411024305555
 20
12.47639122856988
 30
0.0
 10
16.95577663845486
 20
13.00662736680773
 30
0.0
 10
17.1504160563151
 20
13.45143293592666
 30
0.0
 10
17.39208306206597
 20
14.00400285508898
 30
0.0
 10
17.51461113823785
 20
14.73919674343534
 30
0.0
 10
17.51461113823785
 20
15.63664072672527
 30
0.0
 10
17.51461113823785
 20
16.52354427761502
 30
0.0
 10
17.39905632866753
 20
17.21366878933377
 30
0.0
 10
17.16134643554688
 20
17.74643280029298
 30
0.0
 10
16.81793043348524
 20
18.51582163492839
 30
0.0
 10
16.2647213406033
 20
18.6773215060764
 30
0.0
 10
15.86111111111111
 20
18.6773215060764
 30
0.0
 10
15.45748562282986
 20
18.6773215060764
 30
0.0
 10
14.90427822536892
 20
18.51582163492839
 30
0.0
 10
14.56090291341146
 20
17.74647349039714
 30
0.0
 10
14.32319471571181
 20
17.21368235270183
 30
0.0
 10
14.20763905843099
 20
16.52355784098308
 30
0.0
 10
14.20763905843099
 20
15.63664072672527
 30
0.0
  0
SPLINE
  5
69
330
64
100
AcDbEntity
  8
Layer 1
 62
     7
420
 16777215
370
    70
100
AcDbSpline
210
0.0
220
0.0
230
1.0
 70
    11
 71
     3
 72
    29
 73
    25
 74
     0
 42
0.0000000001
 43
0.0000000001
 12
1.0
 22
0.0
 32
0.0
 13
1.0
 23
0.0
 33
0.0
 40
0.0
 40
0.0
 40
0.0
 40
0.0
 40
1.0
 40
1.0
 40
1.0
 40
2.0
 40
2.0
 40
2.0
 40
3.0
 40
3.0
 40
3.0
 40
4.0
 40
4.0
 40
4.0
 40
5.0
 40
5.0
 40
5.0
 40
6.0
 40
6.0
 40
6.0
 40
7.0
 40
7.0
 40
7.0
 40
8.0
 40
8.0
 40
8.0
 40
8.0
 10
15.86113823784722
 20
18.32733489990235
 30
0.0
 10
16.29949951171875
 20
18.32733489990235
 30
0.0
 10
16.62648518880208
 20
18.0861120944553
 30
0.0
 10
16.8417494032118
 20
17.60383433024089
 30
0.0
 10
17.05700005425347
 20
17.1213904147678
 30
0.0
 10
17.16463894314236
 20
16.46571007622613
 30
0.0
 10
17.16463894314236
 20
15.63664072672527
 30
0.0
 10
17.16463894314236
 20
14.78348792182075
 30
0.0
 10
17.05290222167969
 20
14.10184899224176
 30
0.0
 10
16.82979159884983
 20
13.59172393798829
 30
0.0
 10
16.60649956597222
 20
13.08143273247613
 30
0.0
 10
16.28362528483073
 20
12.82639055040148
 30
0.0
 10
15.86115349663628
 20
12.82639055040148
 30
0.0
 10
15.43848673502604
 20
12.82639055040148
 30
0.0
 10
15.11561245388455
 20
13.08143273247613
 30
0.0
 10
14.89250013563368
 20
13.59172393798829
 30
0.0
 10
14.66920810275608
 20
14.10184899224176
 30
0.0
 10
14.5576663547092
 20
14.78348792182075
 30
0.0
 10
14.5576663547092
 20
15.63664072672527
 30
0.0
 10
14.5576663547092
 20
16.46571007622613
 30
0.0
 10
14.66529168023003
 20
17.12137685139975
 30
0.0
 10
14.88055589463976
 20
17.60383433024089
 30
0.0
 10
15.09577772352431
 20
18.08609853108725
 30
0.0
 10
15.4225836859809
 20
18.32733489990235
 30
0.0
 10
15.86113823784722
 20
18.32733489990235
 30
0.0
  0
SPLINE
  5
6A
330
64
100
AcDbEntity
  8
Layer 1
 62
     7
420
 16777215
370
    70
100
AcDbSpline
210
0.0
220
0.0
230
1.0
 70
    11
 71
     3
 72
    83
 73
    79
 74
     0
 42
0.0000000001
 43
0.0000000001
 12
1.0
 22
0.0
 32
0.0
 13
1.0
 23
0.0
 33
0.0
 40
0.0
 40
0.0
 40
0.0
 40
0.0
 40
1.0
 40
1.0
 40
1.0
 40
2.0
 40
2.0
 40
2.0
 40
3.0
 40
3.0
 40
3.0
 40
4.0
 40
4.0
 40
4.0
 40
5.0
 40
5.0
 40
5.0
 40
6.0
 40
6.0
 40
6.0
 40
7.0
 40
7.0
 40
7.0
 40
8.0
 40
8.0
 40
8.0
 40
9.0
 40
9.0
 40
9.0
 40
10.0
 40
10.0
 40
10.0
 40
11.0
 40
11.0
 40
11.0
 40
12.0
 40
12.0
 40
12.0
 40
13.0
 40
13.0
 40
13.0
 40
14.0
 40
14.0
 40
14.0
 40
15.0
 40
15.0
 40
15.0
 40
16.0
 40
16.0
 40
16.0
 40
17.0
 40
17.0
 40
17.0
 40
18.0
 40
18.0
 40
18.0
 40
19.0
 40
19.0
 40
19.0
 40
20.0
 40
20.0
 40
20.0
 40
21.0
 40
21.0
 40
21.0
 40
22.0
 40
22.0
 40
22.0
 40
23.0
 40
23.0
 40
23.0
 40
24.0
 40
24.0
 40
24.0
 40
25.0
 40
25.0
 40
25.0
 40
26.0
 40
26.0
 40
26.0
 40
26.0
 10
19.98684692382812
 20
18.12402933756511
 30
0.0
 10
19.62005445692274
 20
18.84939063178169
 30
0.0
 10
19.08584764268663
 20
19.40958485921225
 30
0.0
 10
18.38440280490451
 20
19.80421020507813
 30
0.0
 10
17.99469502766927
 20
20.0233908420139
 30
0.0
 10
17.56193033854166
 20
20.18161261664497
 30
0.0
 10
17.08619520399305
 20
20.27905778672961
 30
0.0
 10
17.08619520399305
 20
20.27905778672961
 30
0.0
 10
17.08619520399305
 20
19.92041859944662
 30
0.0
 10
17.08619520399305
 20
19.92041859944662
 30
0.0
 10
17.49937608506944
 20
19.82918290879992
 30
0.0
 10
17.87601386176215
 20
19.68859944661459
 30
0.0
 10
18.21281941731771
 20
19.49915479871962
 30
0.0
 10
18.84941609700521
 20
19.14101576063369
 30
0.0
 10
19.34122212727864
 20
18.62521019829645
 30
0.0
 10
19.6745130750868
 20
17.96608476426867
 30
0.0
 10
20.0145263671875
 20
17.29315351698134
 30
0.0
 10
20.18695746527778
 20
16.49329288058811
 30
0.0
 10
20.18695746527778
 20
15.58879255506728
 30
0.0
 10
20.18695746527778
 20
14.71572363959419
 30
0.0
 10
20.01441616482205
 20
13.92972306993273
 30
0.0
 10
19.67412482367621
 20
13.25262617323134
 30
0.0
 10
19.33975050184462
 20
12.58759897867839
 30
0.0
 10
18.84415181477864
 20
12.05887685139975
 30
0.0
 10
18.20115322536892
 20
11.68116756863065
 30
0.0
 10
17.5534176296658
 20
11.30052859836155
 30
0.0
 10
16.76615397135416
 20
11.10752865261502
 30
0.0
 10
15.86113993326823
 20
11.10752865261502
 30
0.0
 10
14.95612589518229
 20
11.10752865261502
 30
0.0
 10
14.16886223687066
 20
11.30052859836155
 30
0.0
 10
13.52118174235026
 20
11.68114044189454
 30
0.0
 10
12.87787628173828
 20
12.05901587592231
 30
0.0
 10
12.38229285346137
 20
12.58770918104384
 30
0.0
 10
12.04815419514974
 20
13.25261260986329
 30
0.0
 10
11.70786285400391
 20
13.92939076741537
 30
0.0
 10
11.53533511691623
 20
14.71536251491971
 30
0.0
 10
11.53533511691623
 20
15.58879255506728
 30
0.0
 10
11.53533511691623
 20
16.49364044189454
 30
0.0
 10
11.70775180392795
 20
17.29348751491971
 30
0.0
 10
12.0477795071072
 20
17.96612545437284
 30
0.0
 10
12.38089074028863
 20
18.625222913954
 30
0.0
 10
12.87266879611545
 20
19.14100050184462
 30
0.0
 10
13.50944603814019
 20
19.49915310329862
 30
0.0
 10
13.84621005588108
 20
19.68861131456164
 30
0.0
 10
14.22284952799479
 20
19.82922275119358
 30
0.0
 10
14.6360846625434
 20
19.92044487847223
 30
0.0
 10
14.6360846625434
 20
19.92044487847223
 30
0.0
 10
14.6360846625434
 20
20.27906965467665
 30
0.0
 10
14.6360846625434
 20
20.27906965467665
 30
0.0
 10
14.16029273139106
 20
20.18162533230252
 30
0.0
 10
13.72748735215929
 20
20.02340270996094
 30
0.0
 10
13.33786265055338
 20
19.80420850965712
 30
0.0
 10
12.63622368706597
 20
19.40956960042318
 30
0.0
 10
12.10201517740885
 20
18.84938893636068
 30
0.0
 10
11.73541853162977
 20
18.1240276421441
 30
0.0
 10
11.36862691243489
 20
17.39847137451173
 30
0.0
 10
11.18532138400608
 20
16.55334638807509
 30
0.0
 10
11.18532138400608
 20
15.58879085964627
 30
0.0
 10
11.18532138400608
 20
14.65602617051867
 30
0.0
 10
11.36862691243489
 20
13.82490197075738
 30
0.0
 10
11.73541853162977
 20
13.09544369167752
 30
0.0
 10
12.10202958848741
 20
12.36597184922961
 30
0.0
 10
12.63829379611545
 20
11.79381812201606
 30
0.0
 10
13.34384918212891
 20
11.3793741522895
 30
0.0
 10
14.04940456814236
 20
10.96473520914714
 30
0.0
 10
14.88837687174479
 20
10.75752763536242
 30
0.0
 10
15.86114162868924
 20
10.75752763536242
 30
0.0
 10
16.83371141221788
 20
10.75752763536242
 30
0.0
 10
17.67286343044705
 20
10.9647504679362
 30
0.0
 10
18.37841966417101
 20
11.3793741522895
 30
0.0
 10
19.08397589789496
 20
11.79381812201606
 30
0.0
 10
19.62005784776476
 20
12.36595659044055
 30
0.0
 10
19.98685031467014
 20
13.09544369167752
 30
0.0
 10
20.35346137152778
 20
13.82490197075738
 30
0.0
 10
20.53694831000434
 20
14.65602617051867
 30
0.0
 10
20.53694831000434
 20
15.58879085964627
 30
0.0
 10
20.53694491916233
 20
16.5533480834961
 30
0.0
 10
20.35344441731771
 20
17.39848832872179
 30
0.0
 10
19.98684692382812
 20
18.12402933756511
 30
0.0
  0
ENDBLK
  5
67
330
64
100
AcDbEntity
  8
0
100
AcDbBlockEnd
  0
ENDSEC
  0
SECTION
  2
ENTITIES
  0
POLYLINE
  5
41
330
1F
100
AcDbEntity
  8
Layer 1
 62
     7
420
 16777215
370
    53
100
AcDb2dPolyline
 66
     1
 10
0.0
 20
0.0
 30
0.0
  0
VERTEX
  5
42
330
41
100
AcDbEntity
  8
Layer 1
 62
     7
420
 16777215
370
    53
100
AcDbVertex
100
AcDb2dVertex
 10
12.86561075846354
 20
23.1421677992079
 30
0.0
  0
VERTEX
  5
43
330
41
100
AcDbEntity
  8
Layer 1
 62
     7
420
 16777215
370
    53
100
AcDbVertex
100
AcDb2dVertex
 10
12.86561075846354
 20
21.38511230468751
 30
0.0
  0
VERTEX
  5
44
330
41
100
AcDbEntity
  8
Layer 1
 62
     7
420
 16777215
370
    53
100
AcDbVertex
100
AcDb2dVertex
 10
17.81334771050347
 20
21.38511230468751
 30
0.0
  0
VERTEX
  5
45
330
41
100
AcDbEntity
  8
Layer 1
 62
     7
420
 16777215
370
    53
100
AcDbVertex
100
AcDb2dVertex
 10
17.81334771050347
 20
23.1421677992079
 30
0.0
  0
VERTEX
  5
46
330
41
100
AcDbEntity
  8
Layer 1
 62
     7
420
 16777215
370
    53
100
AcDbVertex
100
AcDb2dVertex
 10
12.86561075846354
 20
23.1421677992079
 30
0.0
  0
SEQEND
  5
47
330
41
100
AcDbEntity
  8
Layer 1
 62
     7
420
 16777215
370
    53
  0
POLYLINE
  5
48
330
1F
100
AcDbEntity
  8
Layer 1
 62
     7
420
 16777215
370
    53
100
AcDb2dPolyline
 66
     1
 10
0.0
 20
0.0
 30
0.0
  0
VERTEX
  5
49
330
48
100
AcDbEntity
  8
Layer 1
 62
     7
420
 16777215
370
    53
100
AcDbVertex
100
AcDb2dVertex
 10
17.13536071777344
 20
22.56480743408204
 30
0.0
  0
VERTEX
  5
4A
330
48
100
AcDbEntity
  8
Layer 1
 62
     7
420
 16777215
370
    53
100
AcDbVertex
100
AcDb2dVertex
 10
13.54652743869358
 20
22.56480743408204
 30
0.0
  0
VERTEX
  5
4B
330
48
100
AcDbEntity
  8
Layer 1
 62
     7
420
 16777215
370
    53
100
AcDbVertex
100
AcDb2dVertex
 10
13.54652743869358
 20
22.7748073662652
 30
0.0
  0
VERTEX
  5
4C
330
48
100
AcDbEntity
  8
Layer 1
 62
     7
420
 16777215
370
    53
100
AcDbVertex
100
AcDb2dVertex
 10
17.13536071777344
 20
22.7748073662652
 30
0.0
  0
VERTEX
  5
4D
330
48
100
AcDbEntity
  8
Layer 1
 62
     7
420
 16777215
370
    53
100
AcDbVertex
100
AcDb2dVertex
 10
17.13536071777344
 20
22.56480743408204
 30
0.0
  0
SEQEND
  5
4E
330
48
100
AcDbEntity
  8
Layer 1
 62
     7
420
 16777215
370
    53
  0
INSERT
  5
50
330
1F
100
AcDbEntity
  8
Layer 1
100
AcDbBlockReference
  2
block 2
 10
0.0
 20
0.0
 30
0.0
  0
INSERT
  5
58
330
1F
100
AcDbEntity
  8
Layer 1
100
AcDbBlockReference
  2
block 3
 10
0.0
 20
0.0
 30
0.0
  0
INSERT
  5
5E
330
1F
100
AcDbEntity
  8
Layer 1
100
AcDbBlockReference
  2
block 4
 10
0.0
 20
0.0
 30
0.0
  0
INSERT
  5
65
330
1F
100
AcDbEntity
  8
Layer 1
100
AcDbBlockReference
  2
block 5
 10
0.0
 20
0.0
 30
0.0
  0
SPLINE
  5
6B
330
1F
100
AcDbEntity
  8
Layer 1
 62
     7
420
 16777215
370
    70
100
AcDbSpline
210
0.0
220
0.0
230
1.0
 70
    11
 71
     3
 72
    50
 73
    46
 74
     0
 42
0.0000000001
 43
0.0000000001
 12
1.0
 22
0.0
 32
0.0
 13
1.0
 23
0.0
 33
0.0
 40
0.0
 40
0.0
 40
0.0
 40
0.0
 40
1.0
 40
1.0
 40
1.0
 40
2.0
 40
2.0
 40
2.0
 40
3.0
 40
3.0
 40
3.0
 40
4.0
 40
4.0
 40
4.0
 40
5.0
 40
5.0
 40
5.0
 40
6.0
 40
6.0
 40
6.0
 40
7.0
 40
7.0
 40
7.0
 40
8.0
 40
8.0
 40
8.0
 40
9.0
 40
9.0
 40
9.0
 40
10.0
 40
10.0
 40
10.0
 40
11.0
 40
11.0
 40
11.0
 40
12.0
 40
12.0
 40
12.0
 40
13.0
 40
13.0
 40
13.0
 40
14.0
 40
14.0
 40
14.0
 40
15.0
 40
15.0
 40
15.0
 40
15.0
 10
9.739972432454426
 20
29.22947371588813
 30
0.0
 10
9.373180813259548
 20
29.95483479817709
 30
0.0
 10
8.83897230360243
 20
30.51502923753527
 30
0.0
 10
8.137528313530815
 20
30.90965426550972
 30
0.0
 10
7.435889350043403
 20
31.30429317474366
 30
0.0
 10
6.594875759548611
 20
31.50159869511923
 30
0.0
 10
5.614264594184028
 20
31.50159869511923
 30
0.0
 10
4.633653428819444
 20
31.50159869511923
 30
0.0
 10
3.792444864908854
 20
31.30427929348416
 30
0.0
 10
3.091000662909614
 20
30.90965426550972
 30
0.0
 10
2.3893616994222
 20
30.51501546223959
 30
0.0
 10
1.855153401692708
 20
29.95483479817709
 30
0.0
 10
1.488556226094564
 20
29.22947371588813
 30
0.0
 10
1.121764500935872
 20
28.50391808403863
 30
0.0
 10
0.9384589725070529
 20
27.658793097602
 30
0.0
 10
0.9384589725070529
 20
26.69423756917318
 30
0.0
 10
0.9384589725070529
 20
25.76147372775608
 30
0.0
 10
1.121764500935872
 20
24.93034868028429
 30
0.0
 10
1.488556120130751
 20
24.20089040120443
 30
0.0
 10
1.85516717698839
 20
23.47141855875651
 30
0.0
 10
2.391431172688802
 20
22.89926567925348
 30
0.0
 10
3.096986558702257
 20
22.48482086181641
 30
0.0
 10
3.324528164333767
 20
22.35109876844619
 30
0.0
 10
3.566028171115451
 20
22.23908484564888
 30
0.0
 10
3.821320003933376
 20
22.1485154554579
 30
0.0
 10
3.821320003933376
 20
22.1485154554579
 30
0.0
 10
3.821320003933376
 20
21.64716844346789
 30
0.0
 10
3.821320003933376
 20
21.64716844346789
 30
0.0
 10
3.821320003933376
 20
21.64716844346789
 30
0.0
 10
7.407223171657986
 20
21.64716844346789
 30
0.0
 10
7.407223171657986
 20
21.64716844346789
 30
0.0
 10
7.407223171657986
 20
21.64716844346789
 30
0.0
 10
7.407223171657986
 20
22.14852986653646
 30
0.0
 10
7.407223171657986
 20
22.14852986653646
 30
0.0
 10
7.662528991699219
 20
22.23911282009549
 30
0.0
 10
7.904028998480903
 20
22.35111317952475
 30
0.0
 10
8.131556193033854
 20
22.48482170952692
 30
0.0
 10
8.837111579047308
 20
22.89926652696398
 30
0.0
 10
9.373195224338106
 20
23.47140499538846
 30
0.0
 10
9.739986843532986
 20
24.20089124891494
 30
0.0
 10
10.10659790039062
 20
24.9303495279948
 30
0.0
 10
10.29008399115668
 20
25.76147457546659
 30
0.0
 10
10.29008399115668
 20
26.69423841688369
 30
0.0
 10
10.29008314344618
 20
27.658793097602
 30
0.0
 10
10.10658348931207
 20
28.50391808403863
 30
0.0
 10
9.739972432454426
 20
29.22947371588813
 30
0.0
  0
SPLINE
  5
6C
330
1F
100
AcDbEntity
  8
Layer 1
 62
     7
420
 16777215
370
    70
100
AcDbSpline
210
0.0
220
0.0
230
1.0
 70
    11
 71
     3
 72
    29
 73
    25
 74
     0
 42
0.0000000001
 43
0.0000000001
 12
1.0
 22
0.0
 32
0.0
 13
1.0
 23
0.0
 33
0.0
 40
0.0
 40
0.0
 40
0.0
 40
0.0
 40
1.0
 40
1.0
 40
1.0
 40
2.0
 40
2.0
 40
2.0
 40
3.0
 40
3.0
 40
3.0
 40
4.0
 40
4.0
 40
4.0
 40
5.0
 40
5.0
 40
5.0
 40
6.0
 40
6.0
 40
6.0
 40
7.0
 40
7.0
 40
7.0
 40
8.0
 40
8.0
 40
8.0
 40
8.0
 10
4.633652581108941
 20
28.70927934434679
 30
0.0
 10
4.848902384440104
 20
29.1915571085612
 30
0.0
 10
5.175708346896701
 20
29.43277927822538
 30
0.0
 10
5.614263746473524
 20
29.43277927822538
 30
0.0
 10
6.052625020345052
 20
29.43277927822538
 30
0.0
 10
6.379611121283637
 20
29.1915571085612
 30
0.0
 10
6.594874911838107
 20
28.70927934434679
 30
0.0
 10
6.810124715169271
 20
28.22683500501845
 30
0.0
 10
6.917763604058159
 20
27.57115424262153
 30
0.0
 10
6.917763604058159
 20
26.74208489312067
 30
0.0
 10
6.917763604058159
 20
25.88893208821615
 30
0.0
 10
6.806027306450737
 20
25.20729315863716
 30
0.0
 10
6.582916259765625
 20
24.69716810438369
 30
0.0
 10
6.359624650743272
 20
24.18687605116103
 30
0.0
 10
6.036749521891275
 20
23.93183471679688
 30
0.0
 10
5.614277309841579
 20
23.93183471679688
 30
0.0
 10
5.191610548231337
 20
23.93183471679688
 30
0.0
 10
4.86873541937934
 20
24.18687605116103
 30
0.0
 10
4.645624796549479
 20
24.69716810438369
 30
0.0
 10
4.422333187527126
 20
25.20729315863716
 30
0.0
 10
4.310791439480251
 20
25.88893208821615
 30
0.0
 10
4.310791439480251
 20
26.74208489312067
 30
0.0
 10
4.310777876112196
 20
27.57115424262153
 30
0.0
 10
4.418402777777778
 20
28.22682101779515
 30
0.0
 10
4.633652581108941
 20
28.70927934434679
 30
0.0
  0
ENDSEC
  0
SECTION
  2
OBJECTS
  0
DICTIONARY
  5
C
330
0
100
AcDbDictionary
281
     1
  3
ACAD_GROUP
350
D
  3
ACAD_LAYOUT
350
1A
  3
ACAD_MATERIAL
350
3B
  3
ACAD_MLEADERSTYLE
350
6E
  3
ACAD_MLINESTYLE
350
17
  3
ACAD_PLOTSETTINGS
350
19
  3
ACAD_PLOTSTYLENAME
350
E
  3
ACAD_TABLESTYLE
350
6D
  3
ACAD_VISUALSTYLE
350
2A
  0
SUN
  5
3F
330
29
100
AcDbSun
 90
        1
290
     0
 63
     7
421
 16777215
 40
1.0
291
     1
 91
  2455826
 92
 54000000
292
     0
 70
     2
 71
   256
280
     1
  0
DICTIONARY
  5
D
102
{ACAD_REACTORS
330
C
102
}
330
C
100
AcDbDictionary
281
     1
  0
DICTIONARY
  5
1A
102
{ACAD_REACTORS
330
C
102
}
330
C
100
AcDbDictionary
281
     1
  3
Layout1
350
1E
  3
Layout2
350
26
  3
Model
350
22
  0
DICTIONARY
  5
3B
102
{ACAD_REACTORS
330
C
102
}
330
C
100
AcDbDictionary
281
     1
  3
ByBlock
350
3D
  3
ByLayer
350
3C
  3
Global
350
3E
  0
DICTIONARY
  5
6E
102
{ACAD_REACTORS
330
C
102
}
330
C
100
AcDbDictionary
281
     1
  0
DICTIONARY
  5
17
102
{ACAD_REACTORS
330
C
102
}
330
C
100
AcDbDictionary
281
     1
  3
Standard
350
18
  0
DICTIONARY
  5
19
102
{ACAD_REACTORS
330
C
102
}
330
C
100
AcDbDictionary
281
     1
  0
ACDBDICTIONARYWDFLT
  5
E
102
{ACAD_REACTORS
330
C
102
}
330
C
100
AcDbDictionary
281
     1
  3
Normal
350
F
100
AcDbDictionaryWithDefault
340
F
  0
DICTIONARY
  5
6D
102
{ACAD_REACTORS
330
C
102
}
330
C
100
AcDbDictionary
281
     1
  0
DICTIONARY
  5
2A
102
{ACAD_REACTORS
330
C
102
}
330
C
100
AcDbDictionary
281
     1
  3
2dWireframe
350
2F
  3
3D Hidden
350
31
  3
3dWireframe
350
30
  3
Basic
350
32
  3
Brighten
350
36
  3
ColorChange
350
3A
  3
Conceptual
350
34
  3
Dim
350
35
  3
Facepattern
350
39
  3
Flat
350
2B
  3
FlatWithEdges
350
2C
  3
Gouraud
350
2D
  3
GouraudWithEdges
350
2E
  3
Linepattern
350
38
  3
Realistic
350
33
  3
Thicken
350
37
  0
LAYOUT
  5
1E
102
{ACAD_REACTORS
330
1A
102
}
330
1A
100
AcDbPlotSettings
  1

  2
none_device
  4

  6

 40
0.0
 41
0.0
 42
0.0
 43
0.0
 44
0.0
 45
0.0
 46
0.0
 47
0.0
 48
0.0
 49
0.0
140
0.0
141
0.0
142
1.0
143
1.0
 70
   688
 72
     0
 73
     0
 74
     5
  7

 75
    16
 76
     0
 77
     2
 78
   300
147
1.0
148
0.0
149
0.0
100
AcDbLayout
  1
Layout1
 70
     1
 71
     1
 10
0.0
 20
0.0
 11
12.0
 21
9.0
 12
0.0
 22
0.0
 32
0.0
 14
1.000000000000000E+20
 24
1.000000000000000E+20
 34
1.000000000000000E+20
 15
-1.000000000000000E+20
 25
-1.000000000000000E+20
 35
-1.000000000000000E+20
146
0.0
 13
0.0
 23
0.0
 33
0.0
 16
1.0
 26
0.0
 36
0.0
 17
0.0
 27
1.0
 37
0.0
 76
     0
330
1B
  0
LAYOUT
  5
26
102
{ACAD_REACTORS
330
1A
102
}
330
1A
100
AcDbPlotSettings
  1

  2
none_device
  4

  6

 40
0.0
 41
0.0
 42
0.0
 43
0.0
 44
0.0
 45
0.0
 46
0.0
 47
0.0
 48
0.0
 49
0.0
140
0.0
141
0.0
142
1.0
143
1.0
 70
   688
 72
     0
 73
     0
 74
     5
  7

 75
    16
 76
     0
 77
     2
 78
   300
147
1.0
148
0.0
149
0.0
100
AcDbLayout
  1
Layout2
 70
     1
 71
     2
 10
0.0
 20
0.0
 11
0.0
 21
0.0
 12
0.0
 22
0.0
 32
0.0
 14
0.0
 24
0.0
 34
0.0
 15
0.0
 25
0.0
 35
0.0
146
0.0
 13
0.0
 23
0.0
 33
0.0
 16
1.0
 26
0.0
 36
0.0
 17
0.0
 27
1.0
 37
0.0
 76
     0
330
23
  0
LAYOUT
  5
22
102
{ACAD_REACTORS
330
1A
102
}
330
1A
100
AcDbPlotSettings
  1

  2
none_device
  4

  6

 40
0.0
 41
0.0
 42
0.0
 43
0.0
 44
0.0
 45
0.0
 46
0.0
 47
0.0
 48
0.0
 49
0.0
140
0.0
141
0.0
142
1.0
143
1.0
 70
  1712
 72
     0
 73
     0
 74
     0
  7

 75
     0
 76
     0
 77
     2
 78
   300
147
1.0
148
0.0
149
0.0
100
AcDbLayout
  1
Model
 70
     1
 71
     0
 10
0.0
 20
0.0
 11
12.0
 21
9.0
 12
0.0
 22
0.0
 32
0.0
 14
1.000000000000000E+20
 24
1.000000000000000E+20
 34
1.000000000000000E+20
 15
-1.000000000000000E+20
 25
-1.000000000000000E+20
 35
-1.000000000000000E+20
146
0.0
 13
0.0
 23
0.0
 33
0.0
 16
1.0
 26
0.0
 36
0.0
 17
0.0
 27
1.0
 37
0.0
 76
     0
330
1F
331
29
  0
MATERIAL
  5
3D
102
{ACAD_REACTORS
330
3B
102
}
330
3B
100
AcDbMaterial
  1
ByBlock
 72
     1
 94
      127
  0
MATERIAL
  5
3C
102
{ACAD_REACTORS
330
3B
102
}
330
3B
100
AcDbMaterial
  1
ByLayer
 72
     1
 94
      127
  0
MATERIAL
  5
3E
102
{ACAD_REACTORS
330
3B
102
}
330
3B
100
AcDbMaterial
  1
Global
 72
     1
 94
      127
  0
MLINESTYLE
  5
18
102
{ACAD_REACTORS
330
17
102
}
330
17
100
AcDbMlineStyle
  2
Standard
 70
     0
  3

 62
   256
 51
90.0
 52
90.0
 71
     2
 49
0.5
 62
   256
  6
BYLAYER
 49
-0.5
 62
   256
  6
BYLAYER
  0
ACDBPLACEHOLDER
  5
F
102
{ACAD_REACTORS
330
E
102
}
330
E
  0
VISUALSTYLE
  5
2F
102
{ACAD_REACTORS
330
2A
102
}
330
2A
100
AcDbVisualStyle
  2
2dWireframe
 70
     4
177
     2
291
     0
 71
     0
176
     1
 72
     2
176
     1
 73
     0
176
     1
 90
        0
176
     1
 40
-0.6
176
     1
 41
-30.0
176
     1
 62
     5
 63
     7
421
 16777215
176
     1
 74
     1
176
     1
 91
        4
176
     1
 64
     7
176
     1
 65
   257
176
     1
 75
     1
176
     1
175
     1
176
     1
 42
1.0
176
     1
 92
        0
176
     1
 66
   257
176
     1
 43
1.0
176
     1
 76
     1
176
     1
 77
     6
176
     1
 78
     2
176
     1
 67
     7
176
     1
 79
     5
176
     1
170
     0
176
     1
171
     0
176
     1
290
     0
176
     1
 93
        1
176
     1
 44
0.0
176
     1
173
     0
176
     1
  0
VISUALSTYLE
  5
31
102
{ACAD_REACTORS
330
2A
102
}
330
2A
100
AcDbVisualStyle
  2
3D Hidden
 70
     6
177
     2
291
     0
 71
     1
176
     1
 72
     2
176
     1
 73
     2
176
     1
 90
        0
176
     1
 40
-0.6
176
     1
 41
-30.0
176
     1
 62
     5
 63
     7
421
 16777215
176
     1
 74
     2
176
     1
 91
        2
176
     1
 64
     7
176
     1
 65
   257
176
     1
 75
     2
176
     1
175
     1
176
     1
 42
40.0
176
     1
 92
        0
176
     1
 66
   257
176
     1
 43
1.0
176
     1
 76
     1
176
     1
 77
     6
176
     1
 78
     2
176
     1
 67
     7
176
     1
 79
     3
176
     1
170
     0
176
     1
171
     0
176
     1
290
     0
176
     1
 93
        1
176
     1
 44
0.0
176
     1
173
     0
176
     1
  0
VISUALSTYLE
  5
30
102
{ACAD_REACTORS
330
2A
102
}
330
2A
100
AcDbVisualStyle
  2
3dWireframe
 70
     5
177
     2
291
     0
 71
     0
176
     1
 72
     2
176
     1
 73
     0
176
     1
 90
        0
176
     1
 40
-0.6
176
     1
 41
-30.0
176
     1
 62
     5
 63
     7
421
 16777215
176
     1
 74
     1
176
     1
 91
        4
176
     1
 64
     7
176
     1
 65
   257
176
     1
 75
     1
176
     1
175
     1
176
     1
 42
1.0
176
     1
 92
        0
176
     1
 66
   257
176
     1
 43
1.0
176
     1
 76
     1
176
     1
 77
     6
176
     1
 78
     2
176
     1
 67
     7
176
     1
 79
     5
176
     1
170
     0
176
     1
171
     0
176
     1
290
     0
176
     1
 93
        1
176
     1
 44
0.0
176
     1
173
     0
176
     1
  0
VISUALSTYLE
  5
32
102
{ACAD_REACTORS
330
2A
102
}
330
2A
100
AcDbVisualStyle
  2
Basic
 70
     7
177
     2
291
     1
 71
     1
176
     1
 72
     0
176
     1
 73
     1
176
     1
 90
        0
176
     1
 40
-0.6
176
     1
 41
-30.0
176
     1
 62
     5
 63
     7
421
 16777215
176
     1
 74
     0
176
     1
 91
        4
176
     1
 64
     7
176
     1
 65
   257
176
     1
 75
     1
176
     1
175
     1
176
     1
 42
1.0
176
     1
 92
        8
176
     1
 66
     7
176
     1
 43
1.0
176
     1
 76
     1
176
     1
 77
     6
176
     1
 78
     2
176
     1
 67
     7
176
     1
 79
     5
176
     1
170
     0
176
     1
171
     0
176
     1
290
     0
176
     1
 93
        1
176
     1
 44
0.0
176
     1
173
     0
176
     1
  0
VISUALSTYLE
  5
36
102
{ACAD_REACTORS
330
2A
102
}
330
2A
100
AcDbVisualStyle
  2
Brighten
 70
    12
177
     2
291
     1
 71
     2
176
     1
 72
     2
176
     1
 73
     0
176
     1
 90
        0
176
     1
 40
-0.6
176
     1
 41
-30.0
176
     1
 62
     5
 63
     7
421
 16777215
176
     1
 74
     1
176
     1
 91
        4
176
     1
 64
     7
176
     1
 65
   257
176
     1
 75
     1
176
     1
175
     1
176
     1
 42
1.0
176
     1
 92
        8
176
     1
 66
     7
176
     1
 43
1.0
176
     1
 76
     1
176
     1
 77
     6
176
     1
 78
     2
176
     1
 67
     7
176
     1
 79
     5
176
     1
170
     0
176
     1
171
     0
176
     1
290
     0
176
     1
 93
        1
176
     1
 44
50.0
176
     1
173
     0
176
     1
  0
VISUALSTYLE
  5
3A
102
{ACAD_REACTORS
330
2A
102
}
330
2A
100
AcDbVisualStyle
  2
ColorChange
 70
    16
177
     2
291
     1
 71
     2
176
     1
 72
     2
176
     1
 73
     3
176
     1
 90
        0
176
     1
 40
-0.6
176
     1
 41
-30.0
176
     1
 62
     5
 63
     8
421
  8421504
176
     1
 74
     1
176
     1
 91
        4
176
     1
 64
     7
176
     1
 65
   257
176
     1
 75
     1
176
     1
175
     1
176
     1
 42
1.0
176
     1
 92
        8
176
     1
 66
     8
424
  8421504
176
     1
 43
1.0
176
     1
 76
     1
176
     1
 77
     6
176
     1
 78
     2
176
     1
 67
     7
176
     1
 79
     5
176
     1
170
     0
176
     1
171
     0
176
     1
290
     0
176
     1
 93
        1
176
     1
 44
0.0
176
     1
173
     0
176
     1
  0
VISUALSTYLE
  5
34
102
{ACAD_REACTORS
330
2A
102
}
330
2A
100
AcDbVisualStyle
  2
Conceptual
 70
     9
177
     2
291
     0
 71
     3
176
     1
 72
     2
176
     1
 73
     0
176
     1
 90
        0
176
     1
 40
-0.6
176
     1
 41
-30.0
176
     1
 62
     5
 63
     7
421
 16777215
176
     1
 74
     2
176
     1
 91
        2
176
     1
 64
     7
176
     1
 65
   257
176
     1
 75
     1
176
     1
175
     1
176
     1
 42
40.0
176
     1
 92
        8
176
     1
 66
     7
176
     1
 43
1.0
176
     1
 76
     1
176
     1
 77
     6
176
     1
 78
     2
176
     1
 67
     7
176
     1
 79
     3
176
     1
170
     0
176
     1
171
     0
176
     1
290
     0
176
     1
 93
        1
176
     1
 44
0.0
176
     1
173
     0
176
     1
  0
VISUALSTYLE
  5
35
102
{ACAD_REACTORS
330
2A
102
}
330
2A
100
AcDbVisualStyle
  2
Dim
 70
    11
177
     2
291
     1
 71
     2
176
     1
 72
     2
176
     1
 73
     0
176
     1
 90
        0
176
     1
 40
-0.6
176
     1
 41
-30.0
176
     1
 62
     5
 63
     7
421
 16777215
176
     1
 74
     1
176
     1
 91
        4
176
     1
 64
     7
176
     1
 65
   257
176
     1
 75
     1
176
     1
175
     1
176
     1
 42
1.0
176
     1
 92
        8
176
     1
 66
     7
176
     1
 43
1.0
176
     1
 76
     1
176
     1
 77
     6
176
     1
 78
     2
176
     1
 67
     7
176
     1
 79
     5
176
     1
170
     0
176
     1
171
     0
176
     1
290
     0
176
     1
 93
        1
176
     1
 44
-50.0
176
     1
173
     0
176
     1
  0
VISUALSTYLE
  5
39
102
{ACAD_REACTORS
330
2A
102
}
330
2A
100
AcDbVisualStyle
  2
Facepattern
 70
    15
177
     2
291
     1
 71
     2
176
     1
 72
     2
176
     1
 73
     0
176
     1
 90
        0
176
     1
 40
-0.6
176
     1
 41
-30.0
176
     1
 62
     5
 63
     7
421
 16777215
176
     1
 74
     1
176
     1
 91
        4
176
     1
 64
     7
176
     1
 65
   257
176
     1
 75
     1
176
     1
175
     1
176
     1
 42
1.0
176
     1
 92
        8
176
     1
 66
     7
176
     1
 43
1.0
176
     1
 76
     1
176
     1
 77
     6
176
     1
 78
     2
176
     1
 67
     7
176
     1
 79
     5
176
     1
170
     0
176
     1
171
     0
176
     1
290
     0
176
     1
 93
        1
176
     1
 44
0.0
176
     1
173
     0
176
     1
  0
VISUALSTYLE
  5
2B
102
{ACAD_REACTORS
330
2A
102
}
330
2A
100
AcDbVisualStyle
  2
Flat
 70
     0
177
     2
291
     1
 71
     2
176
     1
 72
     1
176
     1
 73
     1
176
     1
 90
        2
176
     1
 40
-0.6
176
     1
 41
30.0
176
     1
 62
     5
 63
     7
421
 16777215
176
     1
 74
     0
176
     1
 91
        4
176
     1
 64
     7
176
     1
 65
   257
176
     1
 75
     1
176
     1
175
     1
176
     1
 42
1.0
176
     1
 92
        8
176
     1
 66
     7
176
     1
 43
1.0
176
     1
 76
     1
176
     1
 77
     6
176
     1
 78
     2
176
     1
 67
     7
176
     1
 79
     5
176
     1
170
     0
176
     1
171
     0
176
     1
290
     0
176
     1
 93
       13
176
     1
 44
0.0
176
     1
173
     0
176
     1
  0
VISUALSTYLE
  5
2C
102
{ACAD_REACTORS
330
2A
102
}
330
2A
100
AcDbVisualStyle
  2
FlatWithEdges
 70
     1
177
     2
291
     1
 71
     2
176
     1
 72
     1
176
     1
 73
     1
176
     1
 90
        2
176
     1
 40
-0.6
176
     1
 41
30.0
176
     1
 62
     5
 63
     7
421
 16777215
176
     1
 74
     1
176
     1
 91
        4
176
     1
 64
     7
176
     1
 65
   257
176
     1
 75
     1
176
     1
175
     1
176
     1
 42
1.0
176
     1
 92
        0
176
     1
 66
   257
176
     1
 43
1.0
176
     1
 76
     1
176
     1
 77
     6
176
     1
 78
     2
176
     1
 67
     7
176
     1
 79
     5
176
     1
170
     0
176
     1
171
     0
176
     1
290
     0
176
     1
 93
       13
176
     1
 44
0.0
176
     1
173
     0
176
     1
  0
VISUALSTYLE
  5
2D
102
{ACAD_REACTORS
330
2A
102
}
330
2A
100
AcDbVisualStyle
  2
Gouraud
 70
     2
177
     2
291
     1
 71
     2
176
     1
 72
     2
176
     1
 73
     1
176
     1
 90
        2
176
     1
 40
-0.6
176
     1
 41
30.0
176
     1
 62
     5
 63
     7
421
 16777215
176
     1
 74
     0
176
     1
 91
        4
176
     1
 64
     7
176
     1
 65
   257
176
     1
 75
     1
176
     1
175
     1
176
     1
 42
1.0
176
     1
 92
        0
176
     1
 66
     7
176
     1
 43
1.0
176
     1
 76
     1
176
     1
 77
     6
176
     1
 78
     2
176
     1
 67
     7
176
     1
 79
     5
176
     1
170
     0
176
     1
171
     0
176
     1
290
     0
176
     1
 93
       13
176
     1
 44
0.0
176
     1
173
     0
176
     1
  0
VISUALSTYLE
  5
2E
102
{ACAD_REACTORS
330
2A
102
}
330
2A
100
AcDbVisualStyle
  2
GouraudWithEdges
 70
     3
177
     2
291
     1
 71
     2
176
     1
 72
     2
176
     1
 73
     1
176
     1
 90
        2
176
     1
 40
-0.6
176
     1
 41
30.0
176
     1
 62
     5
 63
     7
421
 16777215
176
     1
 74
     1
176
     1
 91
        4
176
     1
 64
     7
176
     1
 65
   257
176
     1
 75
     1
176
     1
175
     1
176
     1
 42
1.0
176
     1
 92
        0
176
     1
 66
   257
176
     1
 43
1.0
176
     1
 76
     1
176
     1
 77
     6
176
     1
 78
     2
176
     1
 67
     7
176
     1
 79
     5
176
     1
170
     0
176
     1
171
     0
176
     1
290
     0
176
     1
 93
       13
176
     1
 44
0.0
176
     1
173
     0
176
     1
  0
VISUALSTYLE
  5
38
102
{ACAD_REACTORS
330
2A
102
}
330
2A
100
AcDbVisualStyle
  2
Linepattern
 70
    14
177
     2
291
     1
 71
     2
176
     1
 72
     2
176
     1
 73
     0
176
     1
 90
        0
176
     1
 40
-0.6
176
     1
 41
-30.0
176
     1
 62
     5
 63
     7
421
 16777215
176
     1
 74
     1
176
     1
 91
        4
176
     1
 64
     7
176
     1
 65
   257
176
     1
 75
     7
176
     1
175
     7
176
     1
 42
1.0
176
     1
 92
        8
176
     1
 66
     7
176
     1
 43
1.0
176
     1
 76
     1
176
     1
 77
     6
176
     1
 78
     2
176
     1
 67
     7
176
     1
 79
     5
176
     1
170
     0
176
     1
171
     0
176
     1
290
     0
176
     1
 93
        1
176
     1
 44
0.0
176
     1
173
     0
176
     1
  0
VISUALSTYLE
  5
33
102
{ACAD_REACTORS
330
2A
102
}
330
2A
100
AcDbVisualStyle
  2
Realistic
 70
     8
177
     2
291
     0
 71
     2
176
     1
 72
     2
176
     1
 73
     0
176
     1
 90
        0
176
     1
 40
-0.6
176
     1
 41
-30.0
176
     1
 62
     5
 63
     7
421
 16777215
176
     1
 74
     1
176
     1
 91
        0
176
     1
 64
     7
176
     1
 65
   257
176
     1
 75
     1
176
     1
175
     1
176
     1
 42
1.0
176
     1
 92
        8
176
     1
 66
     8
424
  7895160
176
     1
 43
1.0
176
     1
 76
     1
176
     1
 77
     6
176
     1
 78
     2
176
     1
 67
     7
176
     1
 79
     5
176
     1
170
     0
176
     1
171
     0
176
     1
290
     0
176
     1
 93
       13
176
     1
 44
0.0
176
     1
173
     0
176
     1
  0
VISUALSTYLE
  5
37
102
{ACAD_REACTORS
330
2A
102
}
330
2A
100
AcDbVisualStyle
  2
Thicken
 70
    13
177
     2
291
     1
 71
     2
176
     1
 72
     2
176
     1
 73
     0
176
     1
 90
        0
176
     1
 40
-0.6
176
     1
 41
-30.0
176
     1
 62
     5
 63
     7
421
 16777215
176
     1
 74
     1
176
     1
 91
        4
176
     1
 64
     7
176
     1
 65
   257
176
     1
 75
     1
176
     1
175
     1
176
     1
 42
1.0
176
     1
 92
       12
176
     1
 66
     7
176
     1
 43
1.0
176
     1
 76
     1
176
     1
 77
     6
176
     1
 78
     2
176
     1
 67
     7
176
     1
 79
     5
176
     1
170
     0
176
     1
171
     0
176
     1
290
     0
176
     1
 93
        1
176
     1
 44
0.0
176
     1
173
     0
176
     1
  0
ENDSEC
  0
EOF
