<?xml version="1.0" encoding="utf-8"?>
<!-- Generator: Adobe Illustrator 25.0.0, SVG Export Plug-In . SVG Version: 6.00 Build 0)  -->
<svg version="1.1" id="Layer_1" xmlns="http://www.w3.org/2000/svg" xmlns:xlink="http://www.w3.org/1999/xlink" x="0px" y="0px"
	 width="1567.251px" height="2326.86px" viewBox="0 0 1567.251 2326.86" style="enable-background:new 0 0 1567.251 2326.86;"
	 xml:space="preserve">
<style type="text/css">
	.st0{fill:none;stroke:#000000;stroke-width:2.5543;stroke-miterlimit:10;}
	.st1{enable-background:new    ;}
	.st2{fill:none;stroke:#000000;stroke-width:2;stroke-miterlimit:10;}
	.st3{fill:none;stroke:#F800FF;stroke-width:2;stroke-miterlimit:10;}
	.st4{fill:none;stroke:#000000;stroke-width:0.8846;stroke-miterlimit:10;}
</style>
<path class="st0" d="M762.511,625.1v126.508h712.474V625.1H762.511z M824.872,666.67v-15.12h202.546v15.12H824.872z
	 M1217.363,666.67v-15.12h203.262v15.12H1217.363z"/>
<g class="st1">
	<path class="st2" d="M67.039,2266.37v-150.679h68.021v-371.099h-66.3v-148.095h309.106l209.228,397.79v-248.834h-67.159v-148.096
		h267.776v148.096h-66.298v520.916H466.551l-198.896-369.377v218.698h67.16v150.679L67.039,2266.37L67.039,2266.37z"/>
	<polygon class="st2" points="481.603,2241.17 289.844,1885.046 255.154,1847.483 242.456,1896.993 242.456,2140.892 
		309.615,2140.892 309.615,2241.17 92.239,2241.17 92.239,2140.892 160.259,2140.892 160.259,1719.393 93.96,1719.393 
		93.96,1621.698 362.647,1621.698 564.791,2006.019 597.784,2038.508 612.294,1994.288 612.294,1720.254 545.135,1720.254 
		545.135,1622.559 762.511,1622.559 762.511,1720.254 696.213,1720.254 696.213,2241.17 	"/>
</g>
<g class="st1">
	<path class="st3" d="M811.191,2266.37v-150.679h68.021v-371.099h-66.299v-148.095h309.106l209.228,397.79v-248.834h-67.159
		v-148.096h267.776v148.096h-66.298v520.916h-254.862l-198.895-369.377v218.698h67.16v150.679L811.191,2266.37L811.191,2266.37z"/>
</g>
<g>
	<polygon class="st2" points="749.609,886.445 749.609,911.646 782.671,911.646 782.671,1009.341 716.373,1009.341 
		716.373,1530.257 501.763,1530.257 310.004,1174.133 275.314,1136.57 262.616,1186.08 262.616,1429.979 329.775,1429.979 
		329.775,1530.257 112.399,1530.257 112.399,1429.979 180.419,1429.979 180.419,1008.479 114.121,1008.479 114.121,910.785 
		175.262,910.785 175.262,885.585 88.92,885.585 88.92,1033.68 155.219,1033.68 155.219,1404.778 87.199,1404.778 87.199,1555.457 
		354.976,1555.457 354.976,1404.778 287.816,1404.778 287.816,1186.08 486.711,1555.457 741.573,1555.457 741.573,1034.541 
		807.871,1034.541 807.871,886.445 	"/>
	<polygon class="st2" points="398.026,885.585 323.819,885.585 323.819,910.785 382.808,910.785 584.951,1295.105 617.944,1327.595 
		632.454,1283.375 632.454,1009.341 565.295,1009.341 565.295,911.646 601.052,911.646 601.052,886.445 540.095,886.445 
		540.095,1034.541 607.254,1034.541 607.254,1283.375 	"/>
</g>
<g>
	<polygon class="st2" points="1488.685,886.445 1488.685,911.646 1521.747,911.646 1521.747,1009.341 1455.449,1009.341 
		1455.449,1530.257 1240.839,1530.257 1049.08,1174.133 1014.39,1136.57 1001.692,1186.08 1001.692,1429.979 1068.852,1429.979 
		1068.852,1530.257 851.475,1530.257 851.475,1429.979 919.496,1429.979 919.496,1008.479 853.197,1008.479 853.197,910.785 
		914.338,910.785 914.338,885.585 827.997,885.585 827.997,1033.68 894.295,1033.68 894.295,1404.778 826.275,1404.778 
		826.275,1555.457 1094.052,1555.457 1094.052,1404.778 1026.892,1404.778 1026.892,1186.08 1225.788,1555.457 1480.65,1555.457 
		1480.65,1034.541 1546.947,1034.541 1546.947,886.445 	"/>
	<polygon class="st2" points="1137.103,885.585 1062.896,885.585 1062.896,910.785 1121.884,910.785 1324.027,1295.105 
		1357.02,1327.595 1371.53,1283.375 1371.53,1009.341 1304.371,1009.341 1304.371,911.646 1340.128,911.646 1340.128,886.445 
		1279.171,886.445 1279.171,1034.541 1346.33,1034.541 1346.33,1283.375 	"/>
</g>
<polygon class="st4" points="519.935,87.763 519.935,235.858 587.094,235.858 587.094,484.692 377.866,86.902 68.76,86.902 
	68.76,234.997 135.059,234.997 135.059,606.096 67.039,606.096 67.039,756.774 99.426,756.774 99.426,772.312 301.453,772.312 
	301.453,756.774 334.815,756.774 334.815,606.096 267.656,606.096 267.656,387.397 466.551,756.774 492.283,756.774 
	492.283,772.312 694.309,772.312 694.309,756.774 721.413,756.774 721.413,235.858 787.711,235.858 787.711,87.763 "/>
</svg>
