<?xml version="1.0" encoding="utf-8"?>
<!-- Generator: Adobe Illustrator 25.0.0, SVG Export Plug-In . SVG Version: 6.00 Build 0)  -->
<svg version="1.1" id="Layer_1" xmlns="http://www.w3.org/2000/svg" xmlns:xlink="http://www.w3.org/1999/xlink" x="0px" y="0px"
	 width="1567.251px" height="2326.86px" viewBox="0 0 1567.251 2326.86" style="enable-background:new 0 0 1567.251 2326.86;"
	 xml:space="preserve">
<style type="text/css">
	.st0{fill:none;stroke:#000000;stroke-width:2.0056;stroke-miterlimit:10;}
	.st1{enable-background:new    ;}
	.st2{fill:none;stroke:#000000;stroke-width:2;stroke-miterlimit:10;}
	.st3{fill:none;stroke:#F200FF;stroke-width:2;stroke-miterlimit:10;}
</style>
<path class="st0" d="M786.74,624.926v126.508h539.398V624.926H786.74z M1120.151,666.496H860.304v-15.12h259.846L1120.151,666.496
	L1120.151,666.496z"/>
<g class="st1">
	<path class="st2" d="M94.591,2115.668h65.438v-370.237H96.312v-148.956h358.184c82.079,0,149.669,13.924,202.77,41.759
		c53.087,27.849,79.644,78.501,79.644,151.97c0,85.537-23.248,147.1-69.742,184.688c-46.495,37.603-116.238,56.396-209.228,56.396
		c-22.965,0-43.912-1.426-62.854-4.305v88.685h61.132v150.679H94.591V2115.668z M413.167,1894.387
		c63.716,0,95.573-28.117,95.573-84.38c0-20.664-7.036-36.593-21.095-47.786c-14.072-11.193-32.867-16.79-56.397-16.79h-35.302
		v148.956H413.167z"/>
	<path class="st2" d="M119.791,2241.146v-100.278h65.438V1720.23h-63.716v-98.556h332.984c77.571,0,141.856,13.08,191.07,38.878
		c44.506,23.348,66.144,65.757,66.144,129.65c0,39.517-5.319,73.64-15.811,101.423c-10.107,26.765-24.688,47.591-44.575,63.669
		c-41.676,33.705-106.738,50.793-193.385,50.793c-21.649,0-41.522-1.352-59.067-4.019l-28.987-4.405v143.204h61.132v100.278
		L119.791,2241.146L119.791,2241.146z M370.747,1919.587h42.42c38.035,0,67.763-9.219,88.358-27.4
		c21.509-18.988,32.416-46.638,32.416-82.18c0-28.222-10.581-51.562-30.599-67.501c-18.585-14.783-42.838-22.275-72.093-22.275
		h-60.502L370.747,1919.587L370.747,1919.587z"/>
</g>
<g class="st1">
	<path class="st3" d="M786.281,2115.668h65.438v-370.237h-63.716v-148.956h358.185c82.079,0,149.669,13.924,202.77,41.759
		c53.087,27.849,79.645,78.501,79.645,151.97c0,85.537-23.248,147.1-69.742,184.688c-46.495,37.603-116.238,56.396-209.229,56.396
		c-22.965,0-43.911-1.426-62.854-4.305v88.685h61.132v150.679H786.281V2115.668z M1104.858,1894.387
		c63.716,0,95.573-28.117,95.573-84.38c0-20.664-7.036-36.593-21.095-47.786c-14.072-11.193-32.867-16.79-56.397-16.79h-35.302
		v148.956H1104.858z"/>
</g>
<g>
	<path class="st2" d="M657.288,920.021c-47.958-25.139-107.739-38.928-179.335-41.363v25.225
		c67.154,2.404,123.468,15.306,167.635,38.458c44.506,23.348,66.144,65.757,66.144,129.65c0,39.517-5.319,73.64-15.811,101.423
		c-10.107,26.765-24.688,47.591-44.575,63.669c-41.676,33.705-106.738,50.793-193.385,50.793c-21.649,0-41.522-1.352-59.067-4.019
		l-28.987-4.405v143.204h61.132v100.278H119.812v-100.278h65.438v-420.638h-63.716v-98.556h175.897v-25.2H96.334v148.956h63.716
		v370.237H94.612v150.679H456.24v-150.679h-61.132v-88.685c18.942,2.879,39.889,4.305,62.854,4.305
		c92.99,0,162.733-18.794,209.228-56.396c46.495-37.589,69.742-99.151,69.742-184.688
		C736.932,998.522,710.375,947.869,657.288,920.021z"/>
	<path class="st2" d="M501.547,1173.974c21.509-18.988,32.416-46.638,32.416-82.18c0-28.222-10.581-51.562-30.599-67.501
		c-18.585-14.783-42.838-22.275-72.093-22.275h-60.502v199.356h42.42C451.224,1201.374,480.952,1192.155,501.547,1173.974z
		 M395.969,1027.218h35.302c23.53,0,42.325,5.597,56.397,16.79c14.059,11.193,21.095,27.122,21.095,47.786
		c0,56.263-31.857,84.38-95.573,84.38h-17.22v-148.956H395.969z"/>
</g>
<g>
	<path class="st2" d="M1342.959,908.197c-47.958-25.139-107.739-38.928-179.335-41.363v25.225
		c67.154,2.404,123.468,15.306,167.635,38.458c44.506,23.348,66.144,65.757,66.144,129.65c0,39.517-5.319,73.64-15.811,101.423
		c-10.107,26.765-24.688,47.591-44.575,63.669c-41.676,33.705-106.738,50.793-193.385,50.793c-21.649,0-41.522-1.352-59.067-4.019
		l-28.987-4.405v143.204h61.132v100.278H805.484v-100.278h65.438V990.194h-63.716v-98.556h175.897v-25.2H782.005v148.956h63.716
		v370.237h-65.438v150.679h361.628v-150.679h-61.132v-88.685c18.942,2.879,39.889,4.305,62.854,4.305
		c92.99,0,162.733-18.794,209.228-56.396c46.495-37.589,69.742-99.151,69.742-184.688
		C1422.603,986.698,1396.046,936.046,1342.959,908.197z"/>
	<path class="st2" d="M1187.218,1162.15c21.509-18.988,32.416-46.638,32.416-82.18c0-28.222-10.581-51.562-30.599-67.501
		c-18.585-14.783-42.838-22.275-72.093-22.275h-60.502v199.356h42.42C1136.895,1189.55,1166.623,1180.332,1187.218,1162.15z
		 M1081.64,1015.394h35.302c23.53,0,42.325,5.597,56.397,16.79c14.059,11.193,21.095,27.122,21.095,47.786
		c0,56.263-31.857,84.38-95.573,84.38h-17.22L1081.64,1015.394L1081.64,1015.394z"/>
</g>
<path class="st2" d="M706.637,144.424c-53.101-27.835-120.69-41.759-202.77-41.759H145.683v148.956h63.716v370.237h-65.438v150.679
	h50.219v15.538h258.185v-15.538h53.224V621.859h-61.132v-88.685c18.942,2.879,39.889,4.305,62.854,4.305
	c92.99,0,162.733-18.794,209.229-56.396c46.494-37.589,69.742-99.151,69.742-184.688
	C786.281,222.925,759.724,172.273,706.637,144.424z M462.538,400.578h-17.221V251.621h35.302c23.53,0,42.325,5.597,56.397,16.79
	c14.059,11.193,21.095,27.122,21.095,47.786C558.111,372.46,526.254,400.578,462.538,400.578z"/>
</svg>
