  0
SECTION
  2
HEADER
  9
$ACADVER
  1
AC1024
  9
$ACADMAINTVER
 70
     6
  9
$DWGCODEPAGE
  3
UNDEFINED
  9
$INSBASE
 10
0.0
 20
0.0
 30
0.0
  9
$EXTMIN
 10
1.000000000000000E+20
 20
1.000000000000000E+20
 30
1.000000000000000E+20
  9
$EXTMAX
 10
-1.000000000000000E+20
 20
-1.000000000000000E+20
 30
-1.000000000000000E+20
  9
$LIMMIN
 10
0.0
 20
0.0
  9
$LIMMAX
 10
12.0
 20
9.0
  9
$ORTHOMODE
 70
     0
  9
$REGENMODE
 70
     1
  9
$FILLMODE
 70
     1
  9
$QTEXTMODE
 70
     0
  9
$MIRRTEXT
 70
     1
  9
$LTSCALE
 40
1.0
  9
$ATTMODE
 70
     1
  9
$TEXTSIZE
 40
0.2
  9
$TRACEWID
 40
0.05
  9
$TEXTSTYLE
  7
Standard
  9
$CLAYER
  8
0
  9
$CELTYPE
  6
ByLayer
  9
$CECOLOR
 62
   256
  9
$CELTSCALE
 40
1.0
  9
$DISPSILH
 70
     0
  9
$DIMSCALE
 40
1.0
  9
$DIMASZ
 40
0.18
  9
$DIMEXO
 40
0.0625
  9
$DIMDLI
 40
0.38
  9
$DIMRND
 40
0.0
  9
$DIMDLE
 40
0.0
  9
$DIMEXE
 40
0.18
  9
$DIMTP
 40
0.0
  9
$DIMTM
 40
0.0
  9
$DIMTXT
 40
0.18
  9
$DIMCEN
 40
0.09
  9
$DIMTSZ
 40
0.0
  9
$DIMTOL
 70
     0
  9
$DIMLIM
 70
     0
  9
$DIMTIH
 70
     1
  9
$DIMTOH
 70
     1
  9
$DIMSE1
 70
     0
  9
$DIMSE2
 70
     0
  9
$DIMTAD
 70
     0
  9
$DIMZIN
 70
     0
  9
$DIMBLK
  1

  9
$DIMASO
 70
     1
  9
$DIMSHO
 70
     1
  9
$DIMPOST
  1

  9
$DIMAPOST
  1

  9
$DIMALT
 70
     0
  9
$DIMALTD
 70
     2
  9
$DIMALTF
 40
25.4
  9
$DIMLFAC
 40
1.0
  9
$DIMTOFL
 70
     0
  9
$DIMTVP
 40
0.0
  9
$DIMTIX
 70
     0
  9
$DIMSOXD
 70
     0
  9
$DIMSAH
 70
     0
  9
$DIMBLK1
  1

  9
$DIMBLK2
  1

  9
$DIMSTYLE
  2
Standard
  9
$DIMCLRD
 70
     0
  9
$DIMCLRE
 70
     0
  9
$DIMCLRT
 70
     0
  9
$DIMTFAC
 40
1.0
  9
$DIMGAP
 40
0.09
  9
$DIMJUST
 70
     0
  9
$DIMSD1
 70
     0
  9
$DIMSD2
 70
     0
  9
$DIMTOLJ
 70
     1
  9
$DIMTZIN
 70
     0
  9
$DIMALTZ
 70
     0
  9
$DIMALTTZ
 70
     0
  9
$DIMUPT
 70
     0
  9
$DIMDEC
 70
     4
  9
$DIMTDEC
 70
     4
  9
$DIMALTU
 70
     2
  9
$DIMALTTD
 70
     2
  9
$DIMTXSTY
  7
Standard
  9
$DIMAUNIT
 70
     0
  9
$DIMADEC
 70
     0
  9
$DIMALTRND
 40
0.0
  9
$DIMAZIN
 70
     0
  9
$DIMDSEP
 70
    46
  9
$DIMATFIT
 70
     3
  9
$DIMFRAC
 70
     0
  9
$DIMLDRBLK
  1

  9
$DIMLUNIT
 70
     2
  9
$DIMLWD
 70
    -2
  9
$DIMLWE
 70
    -2
  9
$DIMTMOVE
 70
     0
  9
$DIMFXL
 40
1.0
  9
$DIMFXLON
 70
     0
  9
$DIMJOGANG
 40
0.7853981633974483
  9
$DIMTFILL
 70
     0
  9
$DIMTFILLCLR
 70
     0
  9
$DIMARCSYM
 70
     0
  9
$DIMLTYPE
  6

  9
$DIMLTEX1
  6

  9
$DIMLTEX2
  6

  9
$DIMTXTDIRECTION
 70
     0
  9
$LUNITS
 70
     2
  9
$LUPREC
 70
     4
  9
$SKETCHINC
 40
0.1
  9
$FILLETRAD
 40
0.5
  9
$AUNITS
 70
     0
  9
$AUPREC
 70
     0
  9
$MENU
  1
.
  9
$ELEVATION
 40
0.0
  9
$PELEVATION
 40
0.0
  9
$THICKNESS
 40
0.0
  9
$LIMCHECK
 70
     0
  9
$CHAMFERA
 40
0.5
  9
$CHAMFERB
 40
0.5
  9
$CHAMFERC
 40
1.0
  9
$CHAMFERD
 40
0.0
  9
$SKPOLY
 70
     0
  9
$TDCREATE
 40
2459305.902754618
  9
$TDUCREATE
 40
2459306.152754629
  9
$TDUPDATE
 40
2459305.902754618
  9
$TDUUPDATE
 40
2459306.152754629
  9
$TDINDWG
 40
0.0000000116
  9
$TDUSRTIMER
 40
0.0000000116
  9
$USRTIMER
 70
     1
  9
$ANGBASE
 50
0.0
  9
$ANGDIR
 70
     0
  9
$PDMODE
 70
     0
  9
$PDSIZE
 40
0.0
  9
$PLINEWID
 40
0.0
  9
$SPLFRAME
 70
     0
  9
$SPLINETYPE
 70
     6
  9
$SPLINESEGS
 70
     8
  9
$HANDSEED
  5
70
  9
$SURFTAB1
 70
     6
  9
$SURFTAB2
 70
     6
  9
$SURFTYPE
 70
     6
  9
$SURFU
 70
     6
  9
$SURFV
 70
     6
  9
$UCSBASE
  2

  9
$UCSNAME
  2

  9
$UCSORG
 10
0.0
 20
0.0
 30
0.0
  9
$UCSXDIR
 10
1.0
 20
0.0
 30
0.0
  9
$UCSYDIR
 10
0.0
 20
1.0
 30
0.0
  9
$UCSORTHOREF
  2

  9
$UCSORTHOVIEW
 70
     0
  9
$UCSORGTOP
 10
0.0
 20
0.0
 30
0.0
  9
$UCSORGBOTTOM
 10
0.0
 20
0.0
 30
0.0
  9
$UCSORGLEFT
 10
0.0
 20
0.0
 30
0.0
  9
$UCSORGRIGHT
 10
0.0
 20
0.0
 30
0.0
  9
$UCSORGFRONT
 10
0.0
 20
0.0
 30
0.0
  9
$UCSORGBACK
 10
0.0
 20
0.0
 30
0.0
  9
$PUCSBASE
  2

  9
$PUCSNAME
  2

  9
$PUCSORG
 10
0.0
 20
0.0
 30
0.0
  9
$PUCSXDIR
 10
1.0
 20
0.0
 30
0.0
  9
$PUCSYDIR
 10
0.0
 20
1.0
 30
0.0
  9
$PUCSORTHOREF
  2

  9
$PUCSORTHOVIEW
 70
     0
  9
$PUCSORGTOP
 10
0.0
 20
0.0
 30
0.0
  9
$PUCSORGBOTTOM
 10
0.0
 20
0.0
 30
0.0
  9
$PUCSORGLEFT
 10
0.0
 20
0.0
 30
0.0
  9
$PUCSORGRIGHT
 10
0.0
 20
0.0
 30
0.0
  9
$PUCSORGFRONT
 10
0.0
 20
0.0
 30
0.0
  9
$PUCSORGBACK
 10
0.0
 20
0.0
 30
0.0
  9
$USERI1
 70
     0
  9
$USERI2
 70
     0
  9
$USERI3
 70
     0
  9
$USERI4
 70
     0
  9
$USERI5
 70
     0
  9
$USERR1
 40
0.0
  9
$USERR2
 40
0.0
  9
$USERR3
 40
0.0
  9
$USERR4
 40
0.0
  9
$USERR5
 40
0.0
  9
$WORLDVIEW
 70
     1
  9
$SHADEDGE
 70
     3
  9
$SHADEDIF
 70
    70
  9
$TILEMODE
 70
     1
  9
$MAXACTVP
 70
    64
  9
$PINSBASE
 10
0.0
 20
0.0
 30
0.0
  9
$PLIMCHECK
 70
     0
  9
$PEXTMIN
 10
1.000000000000000E+20
 20
1.000000000000000E+20
 30
1.000000000000000E+20
  9
$PEXTMAX
 10
-1.000000000000000E+20
 20
-1.000000000000000E+20
 30
-1.000000000000000E+20
  9
$PLIMMIN
 10
0.0
 20
0.0
  9
$PLIMMAX
 10
12.0
 20
9.0
  9
$UNITMODE
 70
     0
  9
$VISRETAIN
 70
     1
  9
$PLINEGEN
 70
     0
  9
$PSLTSCALE
 70
     1
  9
$TREEDEPTH
 70
  3020
  9
$CMLSTYLE
  2
Standard
  9
$CMLJUST
 70
     0
  9
$CMLSCALE
 40
1.0
  9
$PROXYGRAPHICS
 70
     1
  9
$MEASUREMENT
 70
     0
  9
$CELWEIGHT
370
    -1
  9
$ENDCAPS
280
     0
  9
$JOINSTYLE
280
     0
  9
$LWDISPLAY
290
     1
  9
$INSUNITS
 70
     1
  9
$HYPERLINKBASE
  1

  9
$STYLESHEET
  1

  9
$XEDIT
290
     1
  9
$CEPSNTYPE
380
     0
  9
$PSTYLEMODE
290
     1
  9
$FINGERPRINTGUID
  2
{8B2D8D47-5320-ADA4-AD5C-1624927723D5}
  9
$VERSIONGUID
  2
{FAEB1C32-E019-11D5-929B-00C0DF256EC4}
  9
$EXTNAMES
290
     1
  9
$PSVPSCALE
 40
0.0
  9
$OLESTARTUP
290
     0
  9
$SORTENTS
280
   127
  9
$INDEXCTL
280
     0
  9
$HIDETEXT
280
     1
  9
$XCLIPFRAME
280
     2
  9
$HALOGAP
280
     0
  9
$OBSCOLOR
 70
   257
  9
$OBSLTYPE
280
     0
  9
$INTERSECTIONDISPLAY
280
     0
  9
$INTERSECTIONCOLOR
 70
   257
  9
$DIMASSOC
280
     2
  9
$PROJECTNAME
  1

  9
$CAMERADISPLAY
290
     0
  9
$LENSLENGTH
 40
50.0
  9
$CAMERAHEIGHT
 40
0.0
  9
$STEPSPERSEC
 40
2.0
  9
$STEPSIZE
 40
6.0
  9
$3DDWFPREC
 40
2.0
  9
$PSOLWIDTH
 40
0.25
  9
$PSOLHEIGHT
 40
4.0
  9
$LOFTANG1
 40
1.570796326794897
  9
$LOFTANG2
 40
1.570796326794897
  9
$LOFTMAG1
 40
0.0
  9
$LOFTMAG2
 40
0.0
  9
$LOFTPARAM
 70
     7
  9
$LOFTNORMALS
280
     1
  9
$LATITUDE
 40
37.795
  9
$LONGITUDE
 40
-122.394
  9
$NORTHDIRECTION
 40
0.0
  9
$TIMEZONE
 70
 -8000
  9
$LIGHTGLYPHDISPLAY
280
     1
  9
$TILEMODELIGHTSYNCH
280
     1
  9
$CMATERIAL
347
3C
  9
$SOLIDHIST
280
     1
  9
$SHOWHIST
280
     1
  9
$DWFFRAME
280
     2
  9
$DGNFRAME
280
     2
  9
$REALWORLDSCALE
290
     1
  9
$INTERFERECOLOR
 62
   256
  9
$CSHADOW
280
     0
  9
$SHADOWPLANELOCATION
 40
0.0
  0
ENDSEC
  0
SECTION
  2
CLASSES
  0
CLASS
  1
ACDBDICTIONARYWDFLT
  2
AcDbDictionaryWithDefault
  3
ObjectDBX Classes
 90
        0
 91
        4
280
     0
281
     0
  0
CLASS
  1
VISUALSTYLE
  2
AcDbVisualStyle
  3
ObjectDBX Classes
 90
     4095
 91
        4
280
     0
281
     0
  0
CLASS
  1
MATERIAL
  2
AcDbMaterial
  3
ObjectDBX Classes
 90
     1153
 91
        4
280
     0
281
     0
  0
CLASS
  1
SUN
  2
AcDbSun
  3
SCENEOE
 90
     1024
 91
        4
280
     0
281
     0
  0
ENDSEC
  0
SECTION
  2
TABLES
  0
TABLE
  2
VPORT
  5
8
330
0
100
AcDbSymbolTable
 70
     1
  0
VPORT
  5
29
330
8
100
AcDbSymbolTableRecord
100
AcDbViewportTableRecord
  2
*Active
 70
     0
 10
0.0
 20
0.0
 11
1.0
 21
1.0
 12
0.0
 22
0.0
 13
0.0
 23
0.0
 14
0.5
 24
0.5
 15
0.5
 25
0.5
 16
0.0
 26
0.0
 36
1.0
 17
10.88368733723958
 27
16.15875074598524
 37
0.0
 40
32.31750149197048
 41
0.6735475723544849
 42
50.0
 43
0.0
 44
0.0
 50
0.0
 51
0.0
 71
     0
 72
   100
 73
     1
 74
     3
 75
     0
 76
     0
 77
     0
 78
     0
281
     0
 65
     1
110
0.0
120
0.0
130
0.0
111
1.0
121
0.0
131
0.0
112
0.0
122
1.0
132
0.0
 79
     0
146
0.0
 60
     3
 61
     5
292
     1
282
     1
141
0.0
142
0.0
 63
   250
361
3F
  0
ENDTAB
  0
TABLE
  2
LTYPE
  5
5
330
0
100
AcDbSymbolTable
 70
     1
  0
LTYPE
  5
14
330
5
100
AcDbSymbolTableRecord
100
AcDbLinetypeTableRecord
  2
ByBlock
 70
     0
  3

 72
    65
 73
     0
 40
0.0
  0
LTYPE
  5
15
330
5
100
AcDbSymbolTableRecord
100
AcDbLinetypeTableRecord
  2
ByLayer
 70
     0
  3

 72
    65
 73
     0
 40
0.0
  0
LTYPE
  5
16
330
5
100
AcDbSymbolTableRecord
100
AcDbLinetypeTableRecord
  2
Continuous
 70
     0
  3
Solid line
 72
    65
 73
     0
 40
0.0
  0
ENDTAB
  0
TABLE
  2
LAYER
  5
2
330
0
100
AcDbSymbolTable
 70
     2
  0
LAYER
  5
10
330
2
100
AcDbSymbolTableRecord
100
AcDbLayerTableRecord
  2
0
 70
     0
 62
     7
  6
Continuous
370
    -3
390
F
347
3E
  0
LAYER
  5
40
330
2
100
AcDbSymbolTableRecord
100
AcDbLayerTableRecord
  2
Layer 1
 70
     0
 62
     7
  6
Continuous
370
    -3
390
F
347
3E
  0
ENDTAB
  0
TABLE
  2
STYLE
  5
3
330
0
100
AcDbSymbolTable
 70
     1
  0
STYLE
  5
11
330
3
100
AcDbSymbolTableRecord
100
AcDbTextStyleTableRecord
  2
Standard
 70
     0
 40
0.0
 41
1.0
 50
0.0
 71
     0
 42
0.2
  3
txt
  4

  0
ENDTAB
  0
TABLE
  2
VIEW
  5
6
330
0
100
AcDbSymbolTable
 70
     0
  0
ENDTAB
  0
TABLE
  2
UCS
  5
7
330
0
100
AcDbSymbolTable
 70
     0
  0
ENDTAB
  0
TABLE
  2
APPID
  5
9
330
0
100
AcDbSymbolTable
 70
     1
  0
APPID
  5
12
330
9
100
AcDbSymbolTableRecord
100
AcDbRegAppTableRecord
  2
ACAD
 70
     0
  0
ENDTAB
  0
TABLE
  2
DIMSTYLE
  5
A
330
0
100
AcDbSymbolTable
 70
     1
100
AcDbDimStyleTable
  0
DIMSTYLE
105
27
330
A
100
AcDbSymbolTableRecord
100
AcDbDimStyleTableRecord
  2
Standard
 70
     0
178
     0
340
11
  0
ENDTAB
  0
TABLE
  2
BLOCK_RECORD
  5
1
330
0
100
AcDbSymbolTable
 70
     5
  0
BLOCK_RECORD
  5
1F
330
1
100
AcDbSymbolTableRecord
100
AcDbBlockTableRecord
  2
*Model_Space
340
22
 70
     0
280
     1
281
     0
  0
BLOCK_RECORD
  5
1B
330
1
100
AcDbSymbolTableRecord
100
AcDbBlockTableRecord
  2
*Paper_Space
340
1E
 70
     0
280
     1
281
     0
  0
BLOCK_RECORD
  5
23
330
1
100
AcDbSymbolTableRecord
100
AcDbBlockTableRecord
  2
*Paper_Space0
340
26
 70
     0
280
     1
281
     0
  0
BLOCK_RECORD
  5
50
330
1
100
AcDbSymbolTableRecord
100
AcDbBlockTableRecord
  2
block 2
340
0
102
{BLKREFS
331
51
102
}
 70
     0
280
     1
281
     0
  0
BLOCK_RECORD
  5
58
330
1
100
AcDbSymbolTableRecord
100
AcDbBlockTableRecord
  2
block 3
340
0
102
{BLKREFS
331
59
102
}
 70
     0
280
     1
281
     0
  0
BLOCK_RECORD
  5
5E
330
1
100
AcDbSymbolTableRecord
100
AcDbBlockTableRecord
  2
block 4
340
0
102
{BLKREFS
331
5F
102
}
 70
     0
280
     1
281
     0
  0
BLOCK_RECORD
  5
65
330
1
100
AcDbSymbolTableRecord
100
AcDbBlockTableRecord
  2
block 5
340
0
102
{BLKREFS
331
66
102
}
 70
     0
280
     1
281
     0
  0
ENDTAB
  0
ENDSEC
  0
SECTION
  2
BLOCKS
  0
BLOCK
  5
20
330
1F
100
AcDbEntity
  8
0
100
AcDbBlockBegin
  2
*Model_Space
 70
     0
 10
0.0
 20
0.0
 30
0.0
  3
*Model_Space
  1

  0
ENDBLK
  5
21
330
1F
100
AcDbEntity
  8
0
100
AcDbBlockEnd
  0
BLOCK
  5
1C
330
1B
100
AcDbEntity
 67
     1
  8
0
100
AcDbBlockBegin
  2
*Paper_Space
 70
     0
 10
0.0
 20
0.0
 30
0.0
  3
*Paper_Space
  1

  0
ENDBLK
  5
1D
330
1B
100
AcDbEntity
 67
     1
  8
0
100
AcDbBlockEnd
  0
BLOCK
  5
24
330
23
100
AcDbEntity
  8
0
100
AcDbBlockBegin
  2
*Paper_Space0
 70
     0
 10
0.0
 20
0.0
 30
0.0
  3
*Paper_Space0
  1

  0
ENDBLK
  5
25
330
23
100
AcDbEntity
  8
0
100
AcDbBlockEnd
  0
BLOCK
  5
52
330
50
100
AcDbEntity
  8
0
100
AcDbBlockBegin
  2
block 2
 70
     0
 10
0.0
 20
0.0
 30
0.0
  3
block 2
  1

  0
SPLINE
  5
54
330
50
100
AcDbEntity
  8
Layer 1
 62
     7
420
 16777215
370
    70
100
AcDbSpline
210
0.0
220
0.0
230
1.0
 70
    11
 71
     3
 72
    50
 73
    46
 74
     0
 42
0.0000000001
 43
0.0000000001
 12
1.0
 22
0.0
 32
0.0
 13
1.0
 23
0.0
 33
0.0
 40
0.0
 40
0.0
 40
0.0
 40
0.0
 40
1.0
 40
1.0
 40
1.0
 40
2.0
 40
2.0
 40
2.0
 40
3.0
 40
3.0
 40
3.0
 40
4.0
 40
4.0
 40
4.0
 40
5.0
 40
5.0
 40
5.0
 40
6.0
 40
6.0
 40
6.0
 40
7.0
 40
7.0
 40
7.0
 40
8.0
 40
8.0
 40
8.0
 40
9.0
 40
9.0
 40
9.0
 40
10.0
 40
10.0
 40
10.0
 40
11.0
 40
11.0
 40
11.0
 40
12.0
 40
12.0
 40
12.0
 40
13.0
 40
13.0
 40
13.0
 40
14.0
 40
14.0
 40
14.0
 40
15.0
 40
15.0
 40
15.0
 40
15.0
 10
1.313763936360677
 20
2.933224114312073
 30
0.0
 10
1.313763936360677
 20
2.933224114312073
 30
0.0
 10
2.222625096638997
 20
2.933224114312073
 30
0.0
 10
2.222625096638997
 20
2.933224114312073
 30
0.0
 10
2.222625096638997
 20
2.933224114312073
 30
0.0
 10
2.222625096638997
 20
8.075405510796447
 30
0.0
 10
2.222625096638997
 20
8.075405510796447
 30
0.0
 10
2.222625096638997
 20
8.075405510796447
 30
0.0
 10
1.337666617499457
 20
8.075405510796447
 30
0.0
 10
1.337666617499457
 20
8.075405510796447
 30
0.0
 10
1.337666617499457
 20
8.075405510796447
 30
0.0
 10
1.337666617499457
 20
10.14423960367839
 30
0.0
 10
1.337666617499457
 20
10.14423960367839
 30
0.0
 10
1.337666617499457
 20
10.14423960367839
 30
0.0
 10
6.312444051106771
 20
10.14423960367839
 30
0.0
 10
6.312444051106771
 20
10.14423960367839
 30
0.0
 10
7.452429877387153
 20
10.14423960367839
 30
0.0
 10
8.391180250379774
 20
9.950851406521274
 30
0.0
 10
9.128694322374132
 20
9.564253031412767
 30
0.0
 10
9.86601342095269
 20
9.177461378309468
 30
0.0
 10
10.23486073811849
 20
8.473961690266934
 30
0.0
 10
10.23486073811849
 20
7.453558993869365
 30
0.0
 10
10.23486073811849
 20
6.26554528130426
 30
0.0
 10
9.911972045898438
 20
5.41050377739801
 30
0.0
 10
9.266221788194445
 20
4.88844804551867
 30
0.0
 10
8.620457967122395
 20
4.366183776855475
 30
0.0
 10
7.651805453830295
 20
4.105170321994365
 30
0.0
 10
6.360277387830946
 20
4.105170321994365
 30
0.0
 10
6.041319105360243
 20
4.105170321994365
 30
0.0
 10
5.750388675265842
 20
4.12497623019749
 30
0.0
 10
5.487305111355251
 20
4.164962734646275
 30
0.0
 10
5.487305111355251
 20
4.164962734646275
 30
0.0
 10
5.487305111355251
 20
2.933227505154087
 30
0.0
 10
5.487305111355251
 20
2.933227505154087
 30
0.0
 10
5.487305111355251
 20
2.933227505154087
 30
0.0
 10
6.336360507541232
 20
2.933227505154087
 30
0.0
 10
6.336360507541232
 20
2.933227505154087
 30
0.0
 10
6.336360507541232
 20
2.933227505154087
 30
0.0
 10
6.336360507541232
 20
0.8404642401801286
 30
0.0
 10
6.336360507541232
 20
0.8404642401801286
 30
0.0
 10
6.336360507541232
 20
0.8404642401801286
 30
0.0
 10
1.313763936360677
 20
0.8404642401801286
 30
0.0
 10
1.313763936360677
 20
0.8404642401801286
 30
0.0
 10
1.313763936360677
 20
0.8404642401801286
 30
0.0
 10
1.313763936360677
 20
2.933224114312073
 30
0.0
 10
1.313763936360677
 20
2.933224114312073
 30
0.0
  0
SPLINE
  5
55
330
50
100
AcDbEntity
  8
Layer 1
 62
     7
420
 16777215
370
    70
100
AcDbSpline
210
0.0
220
0.0
230
1.0
 70
    11
 71
     3
 72
    23
 73
    19
 74
     0
 42
0.0000000001
 43
0.0000000001
 12
1.0
 22
0.0
 32
0.0
 13
1.0
 23
0.0
 33
0.0
 40
0.0
 40
0.0
 40
0.0
 40
0.0
 40
1.0
 40
1.0
 40
1.0
 40
2.0
 40
2.0
 40
2.0
 40
3.0
 40
3.0
 40
3.0
 40
4.0
 40
4.0
 40
4.0
 40
5.0
 40
5.0
 40
5.0
 40
6.0
 40
6.0
 40
6.0
 40
6.0
 10
5.738430447048611
 20
6.006571417914503
 30
0.0
 10
6.623374938964844
 20
6.006571417914503
 30
0.0
 10
7.065833197699653
 20
6.397084520128045
 30
0.0
 10
7.065833197699653
 20
7.178515930175788
 30
0.0
 10
7.065833197699653
 20
7.465515102810336
 30
0.0
 10
6.968110826280381
 20
7.686752285427524
 30
0.0
 10
6.772847069634331
 20
7.842210523817281
 30
0.0
 10
6.577402750651041
 20
7.997668762207038
 30
0.0
 10
6.316360897488064
 20
8.075405510796447
 30
0.0
 10
5.989555358886719
 20
8.075405510796447
 30
0.0
 10
5.989555358886719
 20
8.075405510796447
 30
0.0
 10
5.499249776204427
 20
8.075405510796447
 30
0.0
 10
5.499249776204427
 20
8.075405510796447
 30
0.0
 10
5.499249776204427
 20
8.075405510796447
 30
0.0
 10
5.499249776204427
 20
6.006571417914503
 30
0.0
 10
5.499249776204427
 20
6.006571417914503
 30
0.0
 10
5.499249776204427
 20
6.006571417914503
 30
0.0
 10
5.738430447048611
 20
6.006571417914503
 30
0.0
 10
5.738430447048611
 20
6.006571417914503
 30
0.0
  0
SPLINE
  5
56
330
50
100
AcDbEntity
  8
Layer 1
 62
     7
420
 16777215
370
    70
100
AcDbSpline
210
0.0
220
0.0
230
1.0
 70
    11
 71
     3
 72
    59
 73
    55
 74
     0
 42
0.0000000001
 43
0.0000000001
 12
1.0
 22
0.0
 32
0.0
 13
1.0
 23
0.0
 33
0.0
 40
0.0
 40
0.0
 40
0.0
 40
0.0
 40
1.0
 40
1.0
 40
1.0
 40
2.0
 40
2.0
 40
2.0
 40
3.0
 40
3.0
 40
3.0
 40
4.0
 40
4.0
 40
4.0
 40
5.0
 40
5.0
 40
5.0
 40
6.0
 40
6.0
 40
6.0
 40
7.0
 40
7.0
 40
7.0
 40
8.0
 40
8.0
 40
8.0
 40
9.0
 40
9.0
 40
9.0
 40
10.0
 40
10.0
 40
10.0
 40
11.0
 40
11.0
 40
11.0
 40
12.0
 40
12.0
 40
12.0
 40
13.0
 40
13.0
 40
13.0
 40
14.0
 40
14.0
 40
14.0
 40
15.0
 40
15.0
 40
15.0
 40
16.0
 40
16.0
 40
16.0
 40
17.0
 40
17.0
 40
17.0
 40
18.0
 40
18.0
 40
18.0
 40
18.0
 10
1.663763893975152
 20
1.190473734537767
 30
0.0
 10
1.663763893975152
 20
1.190473734537767
 30
0.0
 10
1.663763893975152
 20
2.583224792480476
 30
0.0
 10
1.663763893975152
 20
2.583224792480476
 30
0.0
 10
1.663763893975152
 20
2.583224792480476
 30
0.0
 10
2.572625054253472
 20
2.583224792480476
 30
0.0
 10
2.572625054253472
 20
2.583224792480476
 30
0.0
 10
2.572625054253472
 20
2.583224792480476
 30
0.0
 10
2.572625054253472
 20
8.4254183959961
 30
0.0
 10
2.572625054253472
 20
8.4254183959961
 30
0.0
 10
2.572625054253472
 20
8.4254183959961
 30
0.0
 10
1.68768056233724
 20
8.4254183959961
 30
0.0
 10
1.68768056233724
 20
8.4254183959961
 30
0.0
 10
1.68768056233724
 20
8.4254183959961
 30
0.0
 10
1.68768056233724
 20
9.794252149793843
 30
0.0
 10
1.68768056233724
 20
9.794252149793843
 30
0.0
 10
1.68768056233724
 20
9.794252149793843
 30
0.0
 10
6.312458462185329
 20
9.794252149793843
 30
0.0
 10
6.312458462185329
 20
9.794252149793843
 30
0.0
 10
7.389833238389756
 20
9.794252149793843
 30
0.0
 10
8.28268093532986
 20
9.61258609347874
 30
0.0
 10
8.96620856391059
 20
9.254279208713115
 30
0.0
 10
9.584347195095486
 20
8.930001118977872
 30
0.0
 10
9.884874979654947
 20
8.340988125271274
 30
0.0
 10
9.884874979654947
 20
7.453584425184468
 30
0.0
 10
9.884874979654947
 20
6.904737650553392
 30
0.0
 10
9.811000400119356
 20
6.43080644395617
 30
0.0
 10
9.665278116861979
 20
6.044932013617628
 30
0.0
 10
9.524903191460503
 20
5.673195699055996
 30
0.0
 10
9.322389390733507
 20
5.383946702745233
 30
0.0
 10
9.046180725097656
 20
5.160641106499573
 30
0.0
 10
8.467347039116753
 20
4.692516716851135
 30
0.0
 10
7.563708835177951
 20
4.455183207194017
 30
0.0
 10
6.360277811686197
 20
4.455183207194017
 30
0.0
 10
6.059597439236111
 20
4.455183207194017
 30
0.0
 10
5.783583323160807
 20
4.473961690266933
 30
0.0
 10
5.539902581108941
 20
4.511003248426656
 30
0.0
 10
5.539902581108941
 20
4.511003248426656
 30
0.0
 10
5.137305365668403
 20
4.572184210883253
 30
0.0
 10
5.137305365668403
 20
4.572184210883253
 30
0.0
 10
5.137305365668403
 20
4.572184210883253
 30
0.0
 10
5.137305365668403
 20
2.583238355848531
 30
0.0
 10
5.137305365668403
 20
2.583238355848531
 30
0.0
 10
5.137305365668403
 20
2.583238355848531
 30
0.0
 10
5.986360761854383
 20
2.583238355848531
 30
0.0
 10
5.986360761854383
 20
2.583238355848531
 30
0.0
 10
5.986360761854383
 20
2.583238355848531
 30
0.0
 10
5.986360761854383
 20
1.190487297905823
 30
0.0
 10
5.986360761854383
 20
1.190487297905823
 30
0.0
 10
5.986360761854383
 20
1.190487297905823
 30
0.0
 10
1.663763893975152
 20
1.190473734537767
 30
0.0
 10
1.663763893975152
 20
1.190473734537767
 30
0.0
 10
1.663763893975152
 20
1.190473734537767
 30
0.0
 10
1.663763893975152
 20
1.190473734537767
 30
0.0
 10
1.663763893975152
 20
1.190473734537767
 30
0.0
  0
SPLINE
  5
57
330
50
100
AcDbEntity
  8
Layer 1
 62
     7
420
 16777215
370
    70
100
AcDbSpline
210
0.0
220
0.0
230
1.0
 70
    11
 71
     3
 72
    29
 73
    25
 74
     0
 42
0.0000000001
 43
0.0000000001
 12
1.0
 22
0.0
 32
0.0
 13
1.0
 23
0.0
 33
0.0
 40
0.0
 40
0.0
 40
0.0
 40
0.0
 40
1.0
 40
1.0
 40
1.0
 40
2.0
 40
2.0
 40
2.0
 40
3.0
 40
3.0
 40
3.0
 40
4.0
 40
4.0
 40
4.0
 40
5.0
 40
5.0
 40
5.0
 40
6.0
 40
6.0
 40
6.0
 40
7.0
 40
7.0
 40
7.0
 40
8.0
 40
8.0
 40
8.0
 40
8.0
 10
5.149264017740885
 20
5.6565704006619
 30
0.0
 10
5.149264017740885
 20
5.6565704006619
 30
0.0
 10
5.738430447048611
 20
5.6565704006619
 30
0.0
 10
5.738430447048611
 20
5.6565704006619
 30
0.0
 10
6.26669438680013
 20
5.6565704006619
 30
0.0
 10
6.679583231608072
 20
5.784611985948358
 30
0.0
 10
6.96562491522895
 20
6.037126295301656
 30
0.0
 10
7.264361063639322
 20
6.300849032931865
 30
0.0
 10
7.415846930609809
 20
6.684875454372836
 30
0.0
 10
7.415846930609809
 20
7.178515930175788
 30
0.0
 10
7.415846930609809
 20
7.570488789876308
 30
0.0
 10
7.268888685438368
 20
7.894654981825093
 30
0.0
 10
6.990860833062065
 20
8.116029493543843
 30
0.0
 10
6.732735951741536
 20
8.321348368326829
 30
0.0
 10
6.395888434516059
 20
8.425404832628045
 30
0.0
 10
5.989568922254774
 20
8.425404832628045
 30
0.0
 10
5.989568922254774
 20
8.425404832628045
 30
0.0
 10
5.149263170030381
 20
8.425404832628045
 30
0.0
 10
5.149263170030381
 20
8.425404832628045
 30
0.0
 10
5.149263170030381
 20
8.425404832628045
 30
0.0
 10
5.149264017740885
 20
5.6565704006619
 30
0.0
 10
5.149264017740885
 20
5.6565704006619
 30
0.0
 10
5.149264017740885
 20
5.6565704006619
 30
0.0
 10
5.149264017740885
 20
5.6565704006619
 30
0.0
 10
5.149264017740885
 20
5.6565704006619
 30
0.0
  0
ENDBLK
  5
53
330
50
100
AcDbEntity
  8
0
100
AcDbBlockEnd
  0
BLOCK
  5
5A
330
58
100
AcDbEntity
  8
0
100
AcDbBlockBegin
  2
block 3
 70
     0
 10
0.0
 20
0.0
 30
0.0
  3
block 3
  1

  0
SPLINE
  5
5C
330
58
100
AcDbEntity
  8
Layer 1
 62
     6
420
 15859967
370
    70
100
AcDbSpline
210
0.0
220
0.0
230
1.0
 70
    11
 71
     3
 72
    50
 73
    46
 74
     0
 42
0.0000000001
 43
0.0000000001
 12
1.0
 22
0.0
 32
0.0
 13
1.0
 23
0.0
 33
0.0
 40
0.0
 40
0.0
 40
0.0
 40
0.0
 40
1.0
 40
1.0
 40
1.0
 40
2.0
 40
2.0
 40
2.0
 40
3.0
 40
3.0
 40
3.0
 40
4.0
 40
4.0
 40
4.0
 40
5.0
 40
5.0
 40
5.0
 40
6.0
 40
6.0
 40
6.0
 40
7.0
 40
7.0
 40
7.0
 40
8.0
 40
8.0
 40
8.0
 40
9.0
 40
9.0
 40
9.0
 40
10.0
 40
10.0
 40
10.0
 40
11.0
 40
11.0
 40
11.0
 40
12.0
 40
12.0
 40
12.0
 40
13.0
 40
13.0
 40
13.0
 40
14.0
 40
14.0
 40
14.0
 40
15.0
 40
15.0
 40
15.0
 40
15.0
 10
10.92056952582465
 20
2.933224114312073
 30
0.0
 10
10.92056952582465
 20
2.933224114312073
 30
0.0
 10
11.82943047417535
 20
2.933224114312073
 30
0.0
 10
11.82943047417535
 20
2.933224114312073
 30
0.0
 10
11.82943047417535
 20
2.933224114312073
 30
0.0
 10
11.82943047417535
 20
8.075405510796447
 30
0.0
 10
11.82943047417535
 20
8.075405510796447
 30
0.0
 10
11.82943047417535
 20
8.075405510796447
 30
0.0
 10
10.94448598225911
 20
8.075405510796447
 30
0.0
 10
10.94448598225911
 20
8.075405510796447
 30
0.0
 10
10.94448598225911
 20
8.075405510796447
 30
0.0
 10
10.94448598225911
 20
10.14423960367839
 30
0.0
 10
10.94448598225911
 20
10.14423960367839
 30
0.0
 10
10.94448598225911
 20
10.14423960367839
 30
0.0
 10
15.91927761501736
 20
10.14423960367839
 30
0.0
 10
15.91927761501736
 20
10.14423960367839
 30
0.0
 10
17.05926344129774
 20
10.14423960367839
 30
0.0
 10
17.99801296657986
 20
9.950851406521274
 30
0.0
 10
18.73552788628472
 20
9.564253031412767
 30
0.0
 10
19.47284783257378
 20
9.177461378309468
 30
0.0
 10
19.84170871310764
 20
8.473961690266934
 30
0.0
 10
19.84170871310764
 20
7.453558993869365
 30
0.0
 10
19.84170871310764
 20
6.26554528130426
 30
0.0
 10
19.51881917317708
 20
5.41050377739801
 30
0.0
 10
18.8730706108941
 20
4.88844804551867
 30
0.0
 10
18.22730678982205
 20
4.366183776855475
 30
0.0
 10
17.25865342881944
 20
4.105170321994365
 30
0.0
 10
15.96711222330729
 20
4.105170321994365
 30
0.0
 10
15.64815436469184
 20
4.105170321994365
 30
0.0
 10
15.35723707411024
 20
4.12497623019749
 30
0.0
 10
15.0941399468316
 20
4.164962734646275
 30
0.0
 10
15.0941399468316
 20
4.164962734646275
 30
0.0
 10
15.0941399468316
 20
2.933227505154087
 30
0.0
 10
15.0941399468316
 20
2.933227505154087
 30
0.0
 10
15.0941399468316
 20
2.933227505154087
 30
0.0
 10
15.94319491916233
 20
2.933227505154087
 30
0.0
 10
15.94319491916233
 20
2.933227505154087
 30
0.0
 10
15.94319491916233
 20
2.933227505154087
 30
0.0
 10
15.94319491916233
 20
0.8404642401801286
 30
0.0
 10
15.94319491916233
 20
0.8404642401801286
 30
0.0
 10
15.94319491916233
 20
0.8404642401801286
 30
0.0
 10
10.92056952582465
 20
0.8404642401801286
 30
0.0
 10
10.92056952582465
 20
0.8404642401801286
 30
0.0
 10
10.92056952582465
 20
0.8404642401801286
 30
0.0
 10
10.92056952582465
 20
2.933224114312073
 30
0.0
 10
10.92056952582465
 20
2.933224114312073
 30
0.0
  0
SPLINE
  5
5D
330
58
100
AcDbEntity
  8
Layer 1
 62
     6
420
 15859967
370
    70
100
AcDbSpline
210
0.0
220
0.0
230
1.0
 70
    11
 71
     3
 72
    23
 73
    19
 74
     0
 42
0.0000000001
 43
0.0000000001
 12
1.0
 22
0.0
 32
0.0
 13
1.0
 23
0.0
 33
0.0
 40
0.0
 40
0.0
 40
0.0
 40
0.0
 40
1.0
 40
1.0
 40
1.0
 40
2.0
 40
2.0
 40
2.0
 40
3.0
 40
3.0
 40
3.0
 40
4.0
 40
4.0
 40
4.0
 40
5.0
 40
5.0
 40
5.0
 40
6.0
 40
6.0
 40
6.0
 40
6.0
 10
15.34525044759114
 20
6.006571417914503
 30
0.0
 10
16.23019409179688
 20
6.006571417914503
 30
0.0
 10
16.67265319824219
 20
6.397084520128045
 30
0.0
 10
16.67265319824219
 20
7.178515930175788
 30
0.0
 10
16.67265319824219
 20
7.465515102810336
 30
0.0
 10
16.57493082682291
 20
7.686752285427524
 30
0.0
 10
16.37966749403212
 20
7.842210523817281
 30
0.0
 10
16.18422275119358
 20
7.997668762207038
 30
0.0
 10
15.92318216959635
 20
8.075405510796447
 30
0.0
 10
15.59637620713976
 20
8.075405510796447
 30
0.0
 10
15.59637620713976
 20
8.075405510796447
 30
0.0
 10
15.10607062445746
 20
8.075405510796447
 30
0.0
 10
15.10607062445746
 20
8.075405510796447
 30
0.0
 10
15.10607062445746
 20
8.075405510796447
 30
0.0
 10
15.10607062445746
 20
6.006571417914503
 30
0.0
 10
15.10607062445746
 20
6.006571417914503
 30
0.0
 10
15.10607062445746
 20
6.006571417914503
 30
0.0
 10
15.34525044759114
 20
6.006571417914503
 30
0.0
 10
15.34525044759114
 20
6.006571417914503
 30
0.0
  0
ENDBLK
  5
5B
330
58
100
AcDbEntity
  8
0
100
AcDbBlockEnd
  0
BLOCK
  5
60
330
5E
100
AcDbEntity
  8
0
100
AcDbBlockBegin
  2
block 4
 70
     0
 10
0.0
 20
0.0
 30
0.0
  3
block 4
  1

  0
SPLINE
  5
62
330
5E
100
AcDbEntity
  8
Layer 1
 62
     7
420
 16777215
370
    70
100
AcDbSpline
210
0.0
220
0.0
230
1.0
 70
    11
 71
     3
 72
   107
 73
   103
 74
     0
 42
0.0000000001
 43
0.0000000001
 12
1.0
 22
0.0
 32
0.0
 13
1.0
 23
0.0
 33
0.0
 40
0.0
 40
0.0
 40
0.0
 40
0.0
 40
1.0
 40
1.0
 40
1.0
 40
2.0
 40
2.0
 40
2.0
 40
3.0
 40
3.0
 40
3.0
 40
4.0
 40
4.0
 40
4.0
 40
5.0
 40
5.0
 40
5.0
 40
6.0
 40
6.0
 40
6.0
 40
7.0
 40
7.0
 40
7.0
 40
8.0
 40
8.0
 40
8.0
 40
9.0
 40
9.0
 40
9.0
 40
10.0
 40
10.0
 40
10.0
 40
11.0
 40
11.0
 40
11.0
 40
12.0
 40
12.0
 40
12.0
 40
13.0
 40
13.0
 40
13.0
 40
14.0
 40
14.0
 40
14.0
 40
15.0
 40
15.0
 40
15.0
 40
16.0
 40
16.0
 40
16.0
 40
17.0
 40
17.0
 40
17.0
 40
18.0
 40
18.0
 40
18.0
 40
19.0
 40
19.0
 40
19.0
 40
20.0
 40
20.0
 40
20.0
 40
21.0
 40
21.0
 40
21.0
 40
22.0
 40
22.0
 40
22.0
 40
23.0
 40
23.0
 40
23.0
 40
24.0
 40
24.0
 40
24.0
 40
25.0
 40
25.0
 40
25.0
 40
26.0
 40
26.0
 40
26.0
 40
27.0
 40
27.0
 40
27.0
 40
28.0
 40
28.0
 40
28.0
 40
29.0
 40
29.0
 40
29.0
 40
30.0
 40
30.0
 40
30.0
 40
31.0
 40
31.0
 40
31.0
 40
32.0
 40
32.0
 40
32.0
 40
33.0
 40
33.0
 40
33.0
 40
34.0
 40
34.0
 40
34.0
 40
34.0
 10
9.129000345865885
 20
19.5394320678711
 30
0.0
 10
8.462916904025608
 20
19.88858452690973
 30
0.0
 10
7.632625155978732
 20
20.08009843614367
 30
0.0
 10
6.638236151801215
 20
20.11391784667969
 30
0.0
 10
6.638236151801215
 20
20.11391784667969
 30
0.0
 10
6.638236151801215
 20
19.76357096354167
 30
0.0
 10
6.638236151801215
 20
19.76357096354167
 30
0.0
 10
7.570930480957031
 20
19.73018218994141
 30
0.0
 10
8.353069729275173
 20
19.55098805745443
 30
0.0
 10
8.966500176323784
 20
19.22943196614584
 30
0.0
 10
9.58463880750868
 20
18.9051538764106
 30
0.0
 10
9.885166592068142
 20
18.3161400349935
 30
0.0
 10
9.885166592068142
 20
17.4287380303277
 30
0.0
 10
9.885166592068142
 20
16.87989125569662
 30
0.0
 10
9.811292012532551
 20
16.4059600490994
 30
0.0
 10
9.665569729275173
 20
16.02008561876086
 30
0.0
 10
9.525194803873697
 20
15.64834930419923
 30
0.0
 10
9.3226810031467
 20
15.35910030788846
 30
0.0
 10
9.046472337510851
 20
15.1357947116428
 30
0.0
 10
8.467638651529947
 20
14.66767032199436
 30
0.0
 10
7.564000447591146
 20
14.43033681233725
 30
0.0
 10
6.360569424099392
 20
14.43033681233725
 30
0.0
 10
6.059889051649305
 20
14.43033681233725
 30
0.0
 10
5.783874935574001
 20
14.44911529541016
 30
0.0
 10
5.540194193522135
 20
14.48615685356988
 30
0.0
 10
5.540194193522135
 20
14.48615685356988
 30
0.0
 10
5.137596978081597
 20
14.54733781602648
 30
0.0
 10
5.137596978081597
 20
14.54733781602648
 30
0.0
 10
5.137596978081597
 20
14.54733781602648
 30
0.0
 10
5.137596978081597
 20
12.55839365641277
 30
0.0
 10
5.137596978081597
 20
12.55839365641277
 30
0.0
 10
5.137596978081597
 20
12.55839365641277
 30
0.0
 10
5.986652374267578
 20
12.55839365641277
 30
0.0
 10
5.986652374267578
 20
12.55839365641277
 30
0.0
 10
5.986652374267578
 20
12.55839365641277
 30
0.0
 10
5.986652374267578
 20
11.16564429389106
 30
0.0
 10
5.986652374267578
 20
11.16564429389106
 30
0.0
 10
5.986652374267578
 20
11.16564429389106
 30
0.0
 10
1.664055506388346
 20
11.16564429389106
 30
0.0
 10
1.664055506388346
 20
11.16564429389106
 30
0.0
 10
1.664055506388346
 20
11.16564429389106
 30
0.0
 10
1.664055506388346
 20
12.55839365641277
 30
0.0
 10
1.664055506388346
 20
12.55839365641277
 30
0.0
 10
1.664055506388346
 20
12.55839365641277
 30
0.0
 10
2.572916666666667
 20
12.55839365641277
 30
0.0
 10
2.572916666666667
 20
12.55839365641277
 30
0.0
 10
2.572916666666667
 20
12.55839365641277
 30
0.0
 10
2.572916666666667
 20
18.4005881076389
 30
0.0
 10
2.572916666666667
 20
18.4005881076389
 30
0.0
 10
2.572916666666667
 20
18.4005881076389
 30
0.0
 10
1.687972174750434
 20
18.4005881076389
 30
0.0
 10
1.687972174750434
 20
18.4005881076389
 30
0.0
 10
1.687972174750434
 20
18.4005881076389
 30
0.0
 10
1.687972174750434
 20
19.76942101372613
 30
0.0
 10
1.687972174750434
 20
19.76942101372613
 30
0.0
 10
1.687972174750434
 20
19.76942101372613
 30
0.0
 10
4.130986107720269
 20
19.76942101372613
 30
0.0
 10
4.130986107720269
 20
19.76942101372613
 30
0.0
 10
4.130986107720269
 20
19.76942101372613
 30
0.0
 10
4.130986107720269
 20
20.11942118326823
 30
0.0
 10
4.130986107720269
 20
20.11942118326823
 30
0.0
 10
4.130986107720269
 20
20.11942118326823
 30
0.0
 10
1.337972217135959
 20
20.11942118326823
 30
0.0
 10
1.337972217135959
 20
20.11942118326823
 30
0.0
 10
1.337972217135959
 20
20.11942118326823
 30
0.0
 10
1.337972217135959
 20
18.05058793809679
 30
0.0
 10
1.337972217135959
 20
18.05058793809679
 30
0.0
 10
1.337972217135959
 20
18.05058793809679
 30
0.0
 10
2.222916709052192
 20
18.05058793809679
 30
0.0
 10
2.222916709052192
 20
18.05058793809679
 30
0.0
 10
2.222916709052192
 20
18.05058793809679
 30
0.0
 10
2.222916709052192
 20
12.90840654161242
 30
0.0
 10
2.222916709052192
 20
12.90840654161242
 30
0.0
 10
2.222916709052192
 20
12.90840654161242
 30
0.0
 10
1.314055548773871
 20
12.90840654161242
 30
0.0
 10
1.314055548773871
 20
12.90840654161242
 30
0.0
 10
1.314055548773871
 20
12.90840654161242
 30
0.0
 10
1.314055548773871
 20
10.81564327663846
 30
0.0
 10
1.314055548773871
 20
10.81564327663846
 30
0.0
 10
1.314055548773871
 20
10.81564327663846
 30
0.0
 10
6.336666531032986
 20
10.81564327663846
 30
0.0
 10
6.336666531032986
 20
10.81564327663846
 30
0.0
 10
6.336666531032986
 20
10.81564327663846
 30
0.0
 10
6.336666531032986
 20
12.90840654161242
 30
0.0
 10
6.336666531032986
 20
12.90840654161242
 30
0.0
 10
6.336666531032986
 20
12.90840654161242
 30
0.0
 10
5.487611134847005
 20
12.90840654161242
 30
0.0
 10
5.487611134847005
 20
12.90840654161242
 30
0.0
 10
5.487611134847005
 20
12.90840654161242
 30
0.0
 10
5.487611134847005
 20
14.14014346652561
 30
0.0
 10
5.487611134847005
 20
14.14014346652561
 30
0.0
 10
5.750694274902344
 20
14.10015696207683
 30
0.0
 10
6.041625128851996
 20
14.0803510538737
 30
0.0
 10
6.3605834113227
 20
14.0803510538737
 30
0.0
 10
7.652111477322048
 20
14.0803510538737
 30
0.0
 10
8.620763990614149
 20
14.34137807210287
 30
0.0
 10
9.266527811686197
 20
14.86362877739801
 30
0.0
 10
9.912291632758246
 20
15.38569807264541
 30
0.0
 10
10.23516676161024
 20
16.2407260131836
 30
0.0
 10
10.23516676161024
 20
17.42873972574871
 30
0.0
 10
10.23516676161024
 20
18.44914072672526
 30
0.0
 10
9.866319444444445
 20
19.15265397813586
 30
0.0
 10
9.129000345865885
 20
19.5394320678711
 30
0.0
  0
SPLINE
  5
63
330
5E
100
AcDbEntity
  8
Layer 1
 62
     7
420
 16777215
370
    70
100
AcDbSpline
210
0.0
220
0.0
230
1.0
 70
    11
 71
     3
 72
    26
 73
    22
 74
     0
 42
0.0000000001
 43
0.0000000001
 12
1.0
 22
0.0
 32
0.0
 13
1.0
 23
0.0
 33
0.0
 40
0.0
 40
0.0
 40
0.0
 40
0.0
 40
1.0
 40
1.0
 40
1.0
 40
2.0
 40
2.0
 40
2.0
 40
3.0
 40
3.0
 40
3.0
 40
4.0
 40
4.0
 40
4.0
 40
5.0
 40
5.0
 40
5.0
 40
6.0
 40
6.0
 40
6.0
 40
7.0
 40
7.0
 40
7.0
 40
7.0
 10
6.965930514865451
 20
16.012307027181
 30
0.0
 10
7.264666239420572
 20
16.27602976481121
 30
0.0
 10
7.416152954101562
 20
16.66005788167318
 30
0.0
 10
7.416152954101562
 20
17.15369666205513
 30
0.0
 10
7.416152954101562
 20
17.54566952175565
 30
0.0
 10
7.269194708930121
 20
17.86983571370443
 30
0.0
 10
6.991166856553819
 20
18.09121022542318
 30
0.0
 10
6.73304197523329
 20
18.29652994791667
 30
0.0
 10
6.396194458007812
 20
18.40058556450738
 30
0.0
 10
5.989874945746528
 20
18.40058556450738
 30
0.0
 10
5.989874945746528
 20
18.40058556450738
 30
0.0
 10
5.149569193522135
 20
18.40058556450738
 30
0.0
 10
5.149569193522135
 20
18.40058556450738
 30
0.0
 10
5.149569193522135
 20
18.40058556450738
 30
0.0
 10
5.149569193522135
 20
15.63175282796225
 30
0.0
 10
5.149569193522135
 20
15.63175282796225
 30
0.0
 10
5.149569193522135
 20
15.63175282796225
 30
0.0
 10
5.738735622829861
 20
15.63175282796225
 30
0.0
 10
5.738735622829861
 20
15.63175282796225
 30
0.0
 10
6.266999986436631
 20
15.63175113254124
 30
0.0
 10
6.679888831244575
 20
15.7597927178277
 30
0.0
 10
6.965930514865451
 20
16.012307027181
 30
0.0
  0
SPLINE
  5
64
330
5E
100
AcDbEntity
  8
Layer 1
 62
     7
420
 16777215
370
    70
100
AcDbSpline
210
0.0
220
0.0
230
1.0
 70
    11
 71
     3
 72
    26
 73
    22
 74
     0
 42
0.0000000001
 43
0.0000000001
 12
1.0
 22
0.0
 32
0.0
 13
1.0
 23
0.0
 33
0.0
 40
0.0
 40
0.0
 40
0.0
 40
0.0
 40
1.0
 40
1.0
 40
1.0
 40
2.0
 40
2.0
 40
2.0
 40
3.0
 40
3.0
 40
3.0
 40
4.0
 40
4.0
 40
4.0
 40
5.0
 40
5.0
 40
5.0
 40
6.0
 40
6.0
 40
6.0
 40
7.0
 40
7.0
 40
7.0
 40
7.0
 10
5.499569363064236
 20
18.05058454725478
 30
0.0
 10
5.499569363064236
 20
18.05058454725478
 30
0.0
 10
5.989874945746528
 20
18.05058454725478
 30
0.0
 10
5.989874945746528
 20
18.05058454725478
 30
0.0
 10
6.316680484347873
 20
18.05058454725478
 30
0.0
 10
6.57772233751085
 20
17.97284779866537
 30
0.0
 10
6.773166656494141
 20
17.81738956027561
 30
0.0
 10
6.96843041314019
 20
17.66193132188586
 30
0.0
 10
7.066152784559462
 20
17.44069583468968
 30
0.0
 10
7.066152784559462
 20
17.15369496663412
 30
0.0
 10
7.066152784559462
 20
16.37226355658638
 30
0.0
 10
6.623694525824653
 20
15.98175045437284
 30
0.0
 10
5.73875003390842
 20
15.98175045437284
 30
0.0
 10
5.73875003390842
 20
15.98175045437284
 30
0.0
 10
5.499583350287543
 20
15.98175045437284
 30
0.0
 10
5.499583350287543
 20
15.98175045437284
 30
0.0
 10
5.499583350287543
 20
15.98175045437284
 30
0.0
 10
5.499583350287543
 20
18.05058454725478
 30
0.0
 10
5.499583350287543
 20
18.05058454725478
 30
0.0
 10
5.499583350287543
 20
18.05058454725478
 30
0.0
 10
5.499569363064236
 20
18.05058454725478
 30
0.0
 10
5.499569363064236
 20
18.05058454725478
 30
0.0
  0
ENDBLK
  5
61
330
5E
100
AcDbEntity
  8
0
100
AcDbBlockEnd
  0
BLOCK
  5
67
330
65
100
AcDbEntity
  8
0
100
AcDbBlockBegin
  2
block 5
 70
     0
 10
0.0
 20
0.0
 30
0.0
  3
block 5
  1

  0
SPLINE
  5
69
330
65
100
AcDbEntity
  8
Layer 1
 62
     7
420
 16777215
370
    70
100
AcDbSpline
210
0.0
220
0.0
230
1.0
 70
    11
 71
     3
 72
   107
 73
   103
 74
     0
 42
0.0000000001
 43
0.0000000001
 12
1.0
 22
0.0
 32
0.0
 13
1.0
 23
0.0
 33
0.0
 40
0.0
 40
0.0
 40
0.0
 40
0.0
 40
1.0
 40
1.0
 40
1.0
 40
2.0
 40
2.0
 40
2.0
 40
3.0
 40
3.0
 40
3.0
 40
4.0
 40
4.0
 40
4.0
 40
5.0
 40
5.0
 40
5.0
 40
6.0
 40
6.0
 40
6.0
 40
7.0
 40
7.0
 40
7.0
 40
8.0
 40
8.0
 40
8.0
 40
9.0
 40
9.0
 40
9.0
 40
10.0
 40
10.0
 40
10.0
 40
11.0
 40
11.0
 40
11.0
 40
12.0
 40
12.0
 40
12.0
 40
13.0
 40
13.0
 40
13.0
 40
14.0
 40
14.0
 40
14.0
 40
15.0
 40
15.0
 40
15.0
 40
16.0
 40
16.0
 40
16.0
 40
17.0
 40
17.0
 40
17.0
 40
18.0
 40
18.0
 40
18.0
 40
19.0
 40
19.0
 40
19.0
 40
20.0
 40
20.0
 40
20.0
 40
21.0
 40
21.0
 40
21.0
 40
22.0
 40
22.0
 40
22.0
 40
23.0
 40
23.0
 40
23.0
 40
24.0
 40
24.0
 40
24.0
 40
25.0
 40
25.0
 40
25.0
 40
26.0
 40
26.0
 40
26.0
 40
27.0
 40
27.0
 40
27.0
 40
28.0
 40
28.0
 40
28.0
 40
29.0
 40
29.0
 40
29.0
 40
30.0
 40
30.0
 40
30.0
 40
31.0
 40
31.0
 40
31.0
 40
32.0
 40
32.0
 40
32.0
 40
33.0
 40
33.0
 40
33.0
 40
34.0
 40
34.0
 40
34.0
 40
34.0
 10
18.65220811631944
 20
19.70365393744575
 30
0.0
 10
17.98612467447916
 20
20.05280639648438
 30
0.0
 10
17.15583292643229
 20
20.24432030571832
 30
0.0
 10
16.16144476996528
 20
20.27813971625435
 30
0.0
 10
16.16144476996528
 20
20.27813971625435
 30
0.0
 10
16.16144476996528
 20
19.92779283311632
 30
0.0
 10
16.16144476996528
 20
19.92779283311632
 30
0.0
 10
17.0941399468316
 20
19.89440405951607
 30
0.0
 10
17.87627834743924
 20
19.71520992702909
 30
0.0
 10
18.48970879448785
 20
19.39365383572049
 30
0.0
 10
19.10784742567274
 20
19.06937574598525
 30
0.0
 10
19.40837605794271
 20
18.48036190456815
 30
0.0
 10
19.40837605794271
 20
17.59295989990235
 30
0.0
 10
19.40837605794271
 20
17.04411312527127
 30
0.0
 10
19.33450147840712
 20
16.57018191867405
 30
0.0
 10
19.18877834743924
 20
16.18430748833551
 30
0.0
 10
19.04840257432726
 20
15.81257117377388
 30
0.0
 10
18.84588962131076
 20
15.52332217746311
 30
0.0
 10
18.56968180338541
 20
15.30001658121745
 30
0.0
 10
17.99084811740451
 20
14.83189219156902
 30
0.0
 10
17.08720906575521
 20
14.5945586819119
 30
0.0
 10
15.88377888997396
 20
14.5945586819119
 30
0.0
 10
15.58309766981337
 20
14.5945586819119
 30
0.0
 10
15.30708482530382
 20
14.61333716498481
 30
0.0
 10
15.0634036593967
 20
14.65037872314454
 30
0.0
 10
15.0634036593967
 20
14.65037872314454
 30
0.0
 10
14.66080729166667
 20
14.71155968560113
 30
0.0
 10
14.66080729166667
 20
14.71155968560113
 30
0.0
 10
14.66080729166667
 20
14.71155968560113
 30
0.0
 10
14.66080729166667
 20
12.72261552598742
 30
0.0
 10
14.66080729166667
 20
12.72261552598742
 30
0.0
 10
14.66080729166667
 20
12.72261552598742
 30
0.0
 10
15.50986226399739
 20
12.72261552598742
 30
0.0
 10
15.50986226399739
 20
12.72261552598742
 30
0.0
 10
15.50986226399739
 20
12.72261552598742
 30
0.0
 10
15.50986226399739
 20
11.32986616346572
 30
0.0
 10
15.50986226399739
 20
11.32986616346572
 30
0.0
 10
15.50986226399739
 20
11.32986616346572
 30
0.0
 10
11.18727789984809
 20
11.32986616346572
 30
0.0
 10
11.18727789984809
 20
11.32986616346572
 30
0.0
 10
11.18727789984809
 20
11.32986616346572
 30
0.0
 10
11.18727789984809
 20
12.72261552598742
 30
0.0
 10
11.18727789984809
 20
12.72261552598742
 30
0.0
 10
11.18727789984809
 20
12.72261552598742
 30
0.0
 10
12.09613884819878
 20
12.72261552598742
 30
0.0
 10
12.09613884819878
 20
12.72261552598742
 30
0.0
 10
12.09613884819878
 20
12.72261552598742
 30
0.0
 10
12.09613884819878
 20
18.56480743408204
 30
0.0
 10
12.09613884819878
 20
18.56480743408204
 30
0.0
 10
12.09613884819878
 20
18.56480743408204
 30
0.0
 10
11.21119435628255
 20
18.56480743408204
 30
0.0
 10
11.21119435628255
 20
18.56480743408204
 30
0.0
 10
11.21119435628255
 20
18.56480743408204
 30
0.0
 10
11.21119435628255
 20
19.93364118787978
 30
0.0
 10
11.21119435628255
 20
19.93364118787978
 30
0.0
 10
11.21119435628255
 20
19.93364118787978
 30
0.0
 10
13.65420871310764
 20
19.93364118787978
 30
0.0
 10
13.65420871310764
 20
19.93364118787978
 30
0.0
 10
13.65420871310764
 20
19.93364118787978
 30
0.0
 10
13.65420871310764
 20
20.28364135742188
 30
0.0
 10
13.65420871310764
 20
20.28364135742188
 30
0.0
 10
13.65420871310764
 20
20.28364135742188
 30
0.0
 10
10.86118062337239
 20
20.28364135742188
 30
0.0
 10
10.86118062337239
 20
20.28364135742188
 30
0.0
 10
10.86118062337239
 20
20.28364135742188
 30
0.0
 10
10.86118062337239
 20
18.21480811225044
 30
0.0
 10
10.86118062337239
 20
18.21480811225044
 30
0.0
 10
10.86118062337239
 20
18.21480811225044
 30
0.0
 10
11.74612511528863
 20
18.21480811225044
 30
0.0
 10
11.74612511528863
 20
18.21480811225044
 30
0.0
 10
11.74612511528863
 20
18.21480811225044
 30
0.0
 10
11.74612511528863
 20
13.07262841118707
 30
0.0
 10
11.74612511528863
 20
13.07262841118707
 30
0.0
 10
11.74612511528863
 20
13.07262841118707
 30
0.0
 10
10.83726416693793
 20
13.07262841118707
 30
0.0
 10
10.83726416693793
 20
13.07262841118707
 30
0.0
 10
10.83726416693793
 20
13.07262841118707
 30
0.0
 10
10.83726416693793
 20
10.97986514621311
 30
0.0
 10
10.83726416693793
 20
10.97986514621311
 30
0.0
 10
10.83726416693793
 20
10.97986514621311
 30
0.0
 10
15.85987514919705
 20
10.97986514621311
 30
0.0
 10
15.85987514919705
 20
10.97986514621311
 30
0.0
 10
15.85987514919705
 20
10.97986514621311
 30
0.0
 10
15.85987514919705
 20
13.07262841118707
 30
0.0
 10
15.85987514919705
 20
13.07262841118707
 30
0.0
 10
15.85987514919705
 20
13.07262841118707
 30
0.0
 10
15.01082017686632
 20
13.07262841118707
 30
0.0
 10
15.01082017686632
 20
13.07262841118707
 30
0.0
 10
15.01082017686632
 20
13.07262841118707
 30
0.0
 10
15.01082017686632
 20
14.30436533610027
 30
0.0
 10
15.01082017686632
 20
14.30436533610027
 30
0.0
 10
15.27390374077691
 20
14.26437883165148
 30
0.0
 10
15.56483459472656
 20
14.24457292344836
 30
0.0
 10
15.88379245334201
 20
14.24457292344836
 30
0.0
 10
17.17532009548611
 20
14.24457292344836
 30
0.0
 10
18.14397345648871
 20
14.50559994167752
 30
0.0
 10
18.78973727756076
 20
15.02785064697266
 30
0.0
 10
19.43550109863281
 20
15.54991994222006
 30
0.0
 10
19.7583753797743
 20
16.40494788275825
 30
0.0
 10
19.7583753797743
 20
17.59296159532336
 30
0.0
 10
19.7583753797743
 20
18.61336259629992
 30
0.0
 10
19.38952806260851
 20
19.31686228434245
 30
0.0
 10
18.65220811631944
 20
19.70365393744575
 30
0.0
  0
SPLINE
  5
6A
330
65
100
AcDbEntity
  8
Layer 1
 62
     7
420
 16777215
370
    70
100
AcDbSpline
210
0.0
220
0.0
230
1.0
 70
    11
 71
     3
 72
    26
 73
    22
 74
     0
 42
0.0000000001
 43
0.0000000001
 12
1.0
 22
0.0
 32
0.0
 13
1.0
 23
0.0
 33
0.0
 40
0.0
 40
0.0
 40
0.0
 40
0.0
 40
1.0
 40
1.0
 40
1.0
 40
2.0
 40
2.0
 40
2.0
 40
3.0
 40
3.0
 40
3.0
 40
4.0
 40
4.0
 40
4.0
 40
5.0
 40
5.0
 40
5.0
 40
6.0
 40
6.0
 40
6.0
 40
7.0
 40
7.0
 40
7.0
 40
7.0
 10
16.48913913302951
 20
16.17652889675565
 30
0.0
 10
16.78787570529514
 20
16.44025163438586
 30
0.0
 10
16.93936157226562
 20
16.82427975124784
 30
0.0
 10
16.93936157226562
 20
17.31791853162978
 30
0.0
 10
16.93936157226562
 20
17.7098913913303
 30
0.0
 10
16.79240247938368
 20
18.03405758327909
 30
0.0
 10
16.51437547471788
 20
18.25543209499784
 30
0.0
 10
16.2562510172526
 20
18.46075181749132
 30
0.0
 10
15.91940307617188
 20
18.56480743408204
 30
0.0
 10
15.51308356391059
 20
18.56480743408204
 30
0.0
 10
15.51308356391059
 20
18.56480743408204
 30
0.0
 10
14.6727786593967
 20
18.56480743408204
 30
0.0
 10
14.6727786593967
 20
18.56480743408204
 30
0.0
 10
14.6727786593967
 20
18.56480743408204
 30
0.0
 10
14.6727786593967
 20
15.7959746975369
 30
0.0
 10
14.6727786593967
 20
15.7959746975369
 30
0.0
 10
14.6727786593967
 20
15.7959746975369
 30
0.0
 10
15.26194593641493
 20
15.7959746975369
 30
0.0
 10
15.26194593641493
 20
15.7959746975369
 30
0.0
 10
15.79020860460069
 20
15.79597300211589
 30
0.0
 10
16.20309787326389
 20
15.9240010240343
 30
0.0
 10
16.48913913302951
 20
16.17652889675565
 30
0.0
  0
SPLINE
  5
6B
330
65
100
AcDbEntity
  8
Layer 1
 62
     7
420
 16777215
370
    70
100
AcDbSpline
210
0.0
220
0.0
230
1.0
 70
    11
 71
     3
 72
    26
 73
    22
 74
     0
 42
0.0000000001
 43
0.0000000001
 12
1.0
 22
0.0
 32
0.0
 13
1.0
 23
0.0
 33
0.0
 40
0.0
 40
0.0
 40
0.0
 40
0.0
 40
1.0
 40
1.0
 40
1.0
 40
2.0
 40
2.0
 40
2.0
 40
3.0
 40
3.0
 40
3.0
 40
4.0
 40
4.0
 40
4.0
 40
5.0
 40
5.0
 40
5.0
 40
6.0
 40
6.0
 40
6.0
 40
7.0
 40
7.0
 40
7.0
 40
7.0
 10
15.0227779812283
 20
18.21480726453994
 30
0.0
 10
15.0227779812283
 20
18.21480726453994
 30
0.0
 10
15.51308356391059
 20
18.21480726453994
 30
0.0
 10
15.51308356391059
 20
18.21480726453994
 30
0.0
 10
15.83988952636719
 20
18.21480726453994
 30
0.0
 10
16.10093010796441
 20
18.13707136366103
 30
0.0
 10
16.29637485080295
 20
17.98161312527127
 30
0.0
 10
16.49163818359375
 20
17.82615488688151
 30
0.0
 10
16.58936055501302
 20
17.60491939968534
 30
0.0
 10
16.58936055501302
 20
17.31791853162978
 30
0.0
 10
16.58936055501302
 20
16.53648881700304
 30
0.0
 10
16.14690144856771
 20
16.1459740193685
 30
0.0
 10
15.26195780436198
 20
16.1459740193685
 30
0.0
 10
15.26195780436198
 20
16.1459740193685
 30
0.0
 10
15.02279154459635
 20
16.1459740193685
 30
0.0
 10
15.02279154459635
 20
16.1459740193685
 30
0.0
 10
15.02279154459635
 20
16.1459740193685
 30
0.0
 10
15.0227779812283
 20
18.21480726453994
 30
0.0
 10
15.0227779812283
 20
18.21480726453994
 30
0.0
 10
15.0227779812283
 20
18.21480726453994
 30
0.0
 10
15.0227779812283
 20
18.21480726453994
 30
0.0
 10
15.0227779812283
 20
18.21480726453994
 30
0.0
  0
ENDBLK
  5
68
330
65
100
AcDbEntity
  8
0
100
AcDbBlockEnd
  0
ENDSEC
  0
SECTION
  2
ENTITIES
  0
POLYLINE
  5
41
330
1F
100
AcDbEntity
  8
Layer 1
 62
     7
420
 16777215
370
    70
100
AcDb2dPolyline
 66
     1
 10
0.0
 20
0.0
 30
0.0
  0
VERTEX
  5
42
330
41
100
AcDbEntity
  8
Layer 1
 62
     7
420
 16777215
370
    70
100
AcDbVertex
100
AcDb2dVertex
 10
10.92694430881076
 20
23.63797332763673
 30
0.0
  0
VERTEX
  5
43
330
41
100
AcDbEntity
  8
Layer 1
 62
     7
420
 16777215
370
    70
100
AcDbVertex
100
AcDb2dVertex
 10
10.92694430881076
 20
21.88091783311632
 30
0.0
  0
VERTEX
  5
44
330
41
100
AcDbEntity
  8
Layer 1
 62
     7
420
 16777215
370
    70
100
AcDbVertex
100
AcDb2dVertex
 10
18.41858249240451
 20
21.88091783311632
 30
0.0
  0
VERTEX
  5
45
330
41
100
AcDbEntity
  8
Layer 1
 62
     7
420
 16777215
370
    70
100
AcDbVertex
100
AcDb2dVertex
 10
18.41858249240451
 20
23.63797332763673
 30
0.0
  0
VERTEX
  5
46
330
41
100
AcDbEntity
  8
Layer 1
 62
     7
420
 16777215
370
    70
100
AcDbVertex
100
AcDb2dVertex
 10
10.92694430881076
 20
23.63797332763673
 30
0.0
  0
SEQEND
  5
47
330
41
100
AcDbEntity
  8
Layer 1
 62
     7
420
 16777215
370
    70
  0
POLYLINE
  5
48
330
1F
100
AcDbEntity
  8
Layer 1
 62
     7
420
 16777215
370
    70
100
AcDb2dPolyline
 66
     1
 10
0.0
 20
0.0
 30
0.0
  0
VERTEX
  5
49
330
48
100
AcDbEntity
  8
Layer 1
 62
     7
420
 16777215
370
    70
100
AcDbVertex
100
AcDb2dVertex
 10
15.55765279134114
 20
23.06061296251086
 30
0.0
  0
VERTEX
  5
4A
330
48
100
AcDbEntity
  8
Layer 1
 62
     7
420
 16777215
370
    70
100
AcDbVertex
100
AcDb2dVertex
 10
11.94866689046224
 20
23.06061296251086
 30
0.0
  0
VERTEX
  5
4B
330
48
100
AcDbEntity
  8
Layer 1
 62
     7
420
 16777215
370
    70
100
AcDbVertex
100
AcDb2dVertex
 10
11.94866689046224
 20
23.27061289469401
 30
0.0
  0
VERTEX
  5
4C
330
48
100
AcDbEntity
  8
Layer 1
 62
     7
420
 16777215
370
    70
100
AcDbVertex
100
AcDb2dVertex
 10
15.55763922797309
 20
23.27061289469401
 30
0.0
  0
VERTEX
  5
4D
330
48
100
AcDbEntity
  8
Layer 1
 62
     7
420
 16777215
370
    70
100
AcDbVertex
100
AcDb2dVertex
 10
15.55765279134114
 20
23.06061296251086
 30
0.0
  0
VERTEX
  5
4E
330
48
100
AcDbEntity
  8
Layer 1
 62
     7
420
 16777215
370
    70
100
AcDbVertex
100
AcDb2dVertex
 10
15.55765279134114
 20
23.06061296251086
 30
0.0
  0
SEQEND
  5
4F
330
48
100
AcDbEntity
  8
Layer 1
 62
     7
420
 16777215
370
    70
  0
INSERT
  5
51
330
1F
100
AcDbEntity
  8
Layer 1
100
AcDbBlockReference
  2
block 2
 10
0.0
 20
0.0
 30
0.0
  0
INSERT
  5
59
330
1F
100
AcDbEntity
  8
Layer 1
100
AcDbBlockReference
  2
block 3
 10
0.0
 20
0.0
 30
0.0
  0
INSERT
  5
5F
330
1F
100
AcDbEntity
  8
Layer 1
100
AcDbBlockReference
  2
block 4
 10
0.0
 20
0.0
 30
0.0
  0
INSERT
  5
66
330
1F
100
AcDbEntity
  8
Layer 1
100
AcDbBlockReference
  2
block 5
 10
0.0
 20
0.0
 30
0.0
  0
SPLINE
  5
6C
330
1F
100
AcDbEntity
  8
Layer 1
 62
     7
420
 16777215
370
    70
100
AcDbSpline
210
0.0
220
0.0
230
1.0
 70
    11
 71
     3
 72
    62
 73
    58
 74
     0
 42
0.0000000001
 43
0.0000000001
 12
1.0
 22
0.0
 32
0.0
 13
1.0
 23
0.0
 33
0.0
 40
0.0
 40
0.0
 40
0.0
 40
0.0
 40
1.0
 40
1.0
 40
1.0
 40
2.0
 40
2.0
 40
2.0
 40
3.0
 40
3.0
 40
3.0
 40
4.0
 40
4.0
 40
4.0
 40
5.0
 40
5.0
 40
5.0
 40
6.0
 40
6.0
 40
6.0
 40
7.0
 40
7.0
 40
7.0
 40
8.0
 40
8.0
 40
8.0
 40
9.0
 40
9.0
 40
9.0
 40
10.0
 40
10.0
 40
10.0
 40
11.0
 40
11.0
 40
11.0
 40
12.0
 40
12.0
 40
12.0
 40
13.0
 40
13.0
 40
13.0
 40
14.0
 40
14.0
 40
14.0
 40
15.0
 40
15.0
 40
15.0
 40
16.0
 40
16.0
 40
16.0
 40
17.0
 40
17.0
 40
17.0
 40
18.0
 40
18.0
 40
18.0
 40
19.0
 40
19.0
 40
19.0
 40
19.0
 10
9.814403110080294
 20
30.31161262512208
 30
0.0
 10
9.076889038085938
 20
30.69820983462864
 30
0.0
 10
8.138153076171875
 20
30.89159877353245
 30
0.0
 10
6.998152838812934
 20
30.89159877353245
 30
0.0
 10
6.998152838812934
 20
30.89159877353245
 30
0.0
 10
2.023374981350369
 20
30.89159877353245
 30
0.0
 10
2.023374981350369
 20
30.89159877353245
 30
0.0
 10
2.023374981350369
 20
30.89159877353245
 30
0.0
 10
2.023374981350369
 20
28.82276552836101
 30
0.0
 10
2.023374981350369
 20
28.82276552836101
 30
0.0
 10
2.023374981350369
 20
28.82276552836101
 30
0.0
 10
2.908319473266602
 20
28.82276552836101
 30
0.0
 10
2.908319473266602
 20
28.82276552836101
 30
0.0
 10
2.908319473266602
 20
28.82276552836101
 30
0.0
 10
2.908319473266602
 20
23.68058519151476
 30
0.0
 10
2.908319473266602
 20
23.68058519151476
 30
0.0
 10
2.908319473266602
 20
23.68058519151476
 30
0.0
 10
1.999458312988281
 20
23.68058519151476
 30
0.0
 10
1.999458312988281
 20
23.68058519151476
 30
0.0
 10
1.999458312988281
 20
23.68058519151476
 30
0.0
 10
1.999458312988281
 20
21.5878210788303
 30
0.0
 10
1.999458312988281
 20
21.5878210788303
 30
0.0
 10
1.999458312988281
 20
21.5878210788303
 30
0.0
 10
2.696944342719184
 20
21.5878210788303
 30
0.0
 10
2.696944342719184
 20
21.5878210788303
 30
0.0
 10
2.696944342719184
 20
21.5878210788303
 30
0.0
 10
2.696944342719184
 20
21.37201517740886
 30
0.0
 10
2.696944342719184
 20
21.37201517740886
 30
0.0
 10
2.696944342719184
 20
21.37201517740886
 30
0.0
 10
6.282847086588541
 20
21.37201517740886
 30
0.0
 10
6.282847086588541
 20
21.37201517740886
 30
0.0
 10
6.282847086588541
 20
21.37201517740886
 30
0.0
 10
6.282847086588541
 20
21.5878210788303
 30
0.0
 10
6.282847086588541
 20
21.5878210788303
 30
0.0
 10
6.282847086588541
 20
21.5878210788303
 30
0.0
 10
7.022069295247396
 20
21.5878210788303
 30
0.0
 10
7.022069295247396
 20
21.5878210788303
 30
0.0
 10
7.022069295247396
 20
21.5878210788303
 30
0.0
 10
7.022069295247396
 20
23.6805707804362
 30
0.0
 10
7.022069295247396
 20
23.6805707804362
 30
0.0
 10
7.022069295247396
 20
23.6805707804362
 30
0.0
 10
6.173013899061415
 20
23.6805707804362
 30
0.0
 10
6.173013899061415
 20
23.6805707804362
 30
0.0
 10
6.173013899061415
 20
23.6805707804362
 30
0.0
 10
6.173013899061415
 20
24.9123068576389
 30
0.0
 10
6.173013899061415
 20
24.9123068576389
 30
0.0
 10
6.436097039116753
 20
24.87232035319011
 30
0.0
 10
6.727027893066406
 20
24.85251529269749
 30
0.0
 10
7.045986175537109
 20
24.85251529269749
 30
0.0
 10
8.337514241536457
 20
24.85251529269749
 30
0.0
 10
9.306166754828558
 20
25.11354315863716
 30
0.0
 10
9.951944986979166
 20
25.63579301622179
 30
0.0
 10
10.59769524468316
 20
26.15786231146919
 30
0.0
 10
10.92058393690321
 20
27.01289025200738
 30
0.0
 10
10.92058393690321
 20
28.20090396457249
 30
0.0
 10
10.92056952582465
 20
29.22132086012099
 30
0.0
 10
10.55172220865885
 20
29.92482097201878
 30
0.0
 10
9.814403110080294
 20
30.31161262512208
 30
0.0
  0
SPLINE
  5
6D
330
1F
100
AcDbEntity
  8
Layer 1
 62
     7
420
 16777215
370
    70
100
AcDbSpline
210
0.0
220
0.0
230
1.0
 70
    11
 71
     3
 72
    23
 73
    19
 74
     0
 42
0.0000000001
 43
0.0000000001
 12
1.0
 22
0.0
 32
0.0
 13
1.0
 23
0.0
 33
0.0
 40
0.0
 40
0.0
 40
0.0
 40
0.0
 40
1.0
 40
1.0
 40
1.0
 40
2.0
 40
2.0
 40
2.0
 40
3.0
 40
3.0
 40
3.0
 40
4.0
 40
4.0
 40
4.0
 40
5.0
 40
5.0
 40
5.0
 40
6.0
 40
6.0
 40
6.0
 40
6.0
 10
6.424138810899522
 20
26.75391808403863
 30
0.0
 10
6.424138810899522
 20
26.75391808403863
 30
0.0
 10
6.184958140055338
 20
26.75391808403863
 30
0.0
 10
6.184958140055338
 20
26.75391808403863
 30
0.0
 10
6.184958140055338
 20
26.75391808403863
 30
0.0
 10
6.184958140055338
 20
28.82276531643338
 30
0.0
 10
6.184958140055338
 20
28.82276531643338
 30
0.0
 10
6.184958140055338
 20
28.82276531643338
 30
0.0
 10
6.67526372273763
 20
28.82276531643338
 30
0.0
 10
6.67526372273763
 20
28.82276531643338
 30
0.0
 10
7.002069261338975
 20
28.82276531643338
 30
0.0
 10
7.263110690646701
 20
28.74502899169923
 30
0.0
 10
7.458555433485243
 20
28.58957075330947
 30
0.0
 10
7.653819613986545
 20
28.43411251491971
 30
0.0
 10
7.751541137695312
 20
28.21287618001303
 30
0.0
 10
7.751541137695312
 20
27.92587615966798
 30
0.0
 10
7.751541985405815
 20
27.14444602118598
 30
0.0
 10
7.309083726671006
 20
26.75391808403863
 30
0.0
 10
6.424138810899522
 20
26.75391808403863
 30
0.0
  0
ENDSEC
  0
SECTION
  2
OBJECTS
  0
DICTIONARY
  5
C
330
0
100
AcDbDictionary
281
     1
  3
ACAD_GROUP
350
D
  3
ACAD_LAYOUT
350
1A
  3
ACAD_MATERIAL
350
3B
  3
ACAD_MLEADERSTYLE
350
6F
  3
ACAD_MLINESTYLE
350
17
  3
ACAD_PLOTSETTINGS
350
19
  3
ACAD_PLOTSTYLENAME
350
E
  3
ACAD_TABLESTYLE
350
6E
  3
ACAD_VISUALSTYLE
350
2A
  0
SUN
  5
3F
330
29
100
AcDbSun
 90
        1
290
     0
 63
     7
421
 16777215
 40
1.0
291
     1
 91
  2455826
 92
 54000000
292
     0
 70
     2
 71
   256
280
     1
  0
DICTIONARY
  5
D
102
{ACAD_REACTORS
330
C
102
}
330
C
100
AcDbDictionary
281
     1
  0
DICTIONARY
  5
1A
102
{ACAD_REACTORS
330
C
102
}
330
C
100
AcDbDictionary
281
     1
  3
Layout1
350
1E
  3
Layout2
350
26
  3
Model
350
22
  0
DICTIONARY
  5
3B
102
{ACAD_REACTORS
330
C
102
}
330
C
100
AcDbDictionary
281
     1
  3
ByBlock
350
3D
  3
ByLayer
350
3C
  3
Global
350
3E
  0
DICTIONARY
  5
6F
102
{ACAD_REACTORS
330
C
102
}
330
C
100
AcDbDictionary
281
     1
  0
DICTIONARY
  5
17
102
{ACAD_REACTORS
330
C
102
}
330
C
100
AcDbDictionary
281
     1
  3
Standard
350
18
  0
DICTIONARY
  5
19
102
{ACAD_REACTORS
330
C
102
}
330
C
100
AcDbDictionary
281
     1
  0
ACDBDICTIONARYWDFLT
  5
E
102
{ACAD_REACTORS
330
C
102
}
330
C
100
AcDbDictionary
281
     1
  3
Normal
350
F
100
AcDbDictionaryWithDefault
340
F
  0
DICTIONARY
  5
6E
102
{ACAD_REACTORS
330
C
102
}
330
C
100
AcDbDictionary
281
     1
  0
DICTIONARY
  5
2A
102
{ACAD_REACTORS
330
C
102
}
330
C
100
AcDbDictionary
281
     1
  3
2dWireframe
350
2F
  3
3D Hidden
350
31
  3
3dWireframe
350
30
  3
Basic
350
32
  3
Brighten
350
36
  3
ColorChange
350
3A
  3
Conceptual
350
34
  3
Dim
350
35
  3
Facepattern
350
39
  3
Flat
350
2B
  3
FlatWithEdges
350
2C
  3
Gouraud
350
2D
  3
GouraudWithEdges
350
2E
  3
Linepattern
350
38
  3
Realistic
350
33
  3
Thicken
350
37
  0
LAYOUT
  5
1E
102
{ACAD_REACTORS
330
1A
102
}
330
1A
100
AcDbPlotSettings
  1

  2
none_device
  4

  6

 40
0.0
 41
0.0
 42
0.0
 43
0.0
 44
0.0
 45
0.0
 46
0.0
 47
0.0
 48
0.0
 49
0.0
140
0.0
141
0.0
142
1.0
143
1.0
 70
   688
 72
     0
 73
     0
 74
     5
  7

 75
    16
 76
     0
 77
     2
 78
   300
147
1.0
148
0.0
149
0.0
100
AcDbLayout
  1
Layout1
 70
     1
 71
     1
 10
0.0
 20
0.0
 11
12.0
 21
9.0
 12
0.0
 22
0.0
 32
0.0
 14
1.000000000000000E+20
 24
1.000000000000000E+20
 34
1.000000000000000E+20
 15
-1.000000000000000E+20
 25
-1.000000000000000E+20
 35
-1.000000000000000E+20
146
0.0
 13
0.0
 23
0.0
 33
0.0
 16
1.0
 26
0.0
 36
0.0
 17
0.0
 27
1.0
 37
0.0
 76
     0
330
1B
  0
LAYOUT
  5
26
102
{ACAD_REACTORS
330
1A
102
}
330
1A
100
AcDbPlotSettings
  1

  2
none_device
  4

  6

 40
0.0
 41
0.0
 42
0.0
 43
0.0
 44
0.0
 45
0.0
 46
0.0
 47
0.0
 48
0.0
 49
0.0
140
0.0
141
0.0
142
1.0
143
1.0
 70
   688
 72
     0
 73
     0
 74
     5
  7

 75
    16
 76
     0
 77
     2
 78
   300
147
1.0
148
0.0
149
0.0
100
AcDbLayout
  1
Layout2
 70
     1
 71
     2
 10
0.0
 20
0.0
 11
0.0
 21
0.0
 12
0.0
 22
0.0
 32
0.0
 14
0.0
 24
0.0
 34
0.0
 15
0.0
 25
0.0
 35
0.0
146
0.0
 13
0.0
 23
0.0
 33
0.0
 16
1.0
 26
0.0
 36
0.0
 17
0.0
 27
1.0
 37
0.0
 76
     0
330
23
  0
LAYOUT
  5
22
102
{ACAD_REACTORS
330
1A
102
}
330
1A
100
AcDbPlotSettings
  1

  2
none_device
  4

  6

 40
0.0
 41
0.0
 42
0.0
 43
0.0
 44
0.0
 45
0.0
 46
0.0
 47
0.0
 48
0.0
 49
0.0
140
0.0
141
0.0
142
1.0
143
1.0
 70
  1712
 72
     0
 73
     0
 74
     0
  7

 75
     0
 76
     0
 77
     2
 78
   300
147
1.0
148
0.0
149
0.0
100
AcDbLayout
  1
Model
 70
     1
 71
     0
 10
0.0
 20
0.0
 11
12.0
 21
9.0
 12
0.0
 22
0.0
 32
0.0
 14
1.000000000000000E+20
 24
1.000000000000000E+20
 34
1.000000000000000E+20
 15
-1.000000000000000E+20
 25
-1.000000000000000E+20
 35
-1.000000000000000E+20
146
0.0
 13
0.0
 23
0.0
 33
0.0
 16
1.0
 26
0.0
 36
0.0
 17
0.0
 27
1.0
 37
0.0
 76
     0
330
1F
331
29
  0
MATERIAL
  5
3D
102
{ACAD_REACTORS
330
3B
102
}
330
3B
100
AcDbMaterial
  1
ByBlock
 72
     1
 94
      127
  0
MATERIAL
  5
3C
102
{ACAD_REACTORS
330
3B
102
}
330
3B
100
AcDbMaterial
  1
ByLayer
 72
     1
 94
      127
  0
MATERIAL
  5
3E
102
{ACAD_REACTORS
330
3B
102
}
330
3B
100
AcDbMaterial
  1
Global
 72
     1
 94
      127
  0
MLINESTYLE
  5
18
102
{ACAD_REACTORS
330
17
102
}
330
17
100
AcDbMlineStyle
  2
Standard
 70
     0
  3

 62
   256
 51
90.0
 52
90.0
 71
     2
 49
0.5
 62
   256
  6
BYLAYER
 49
-0.5
 62
   256
  6
BYLAYER
  0
ACDBPLACEHOLDER
  5
F
102
{ACAD_REACTORS
330
E
102
}
330
E
  0
VISUALSTYLE
  5
2F
102
{ACAD_REACTORS
330
2A
102
}
330
2A
100
AcDbVisualStyle
  2
2dWireframe
 70
     4
177
     2
291
     0
 71
     0
176
     1
 72
     2
176
     1
 73
     0
176
     1
 90
        0
176
     1
 40
-0.6
176
     1
 41
-30.0
176
     1
 62
     5
 63
     7
421
 16777215
176
     1
 74
     1
176
     1
 91
        4
176
     1
 64
     7
176
     1
 65
   257
176
     1
 75
     1
176
     1
175
     1
176
     1
 42
1.0
176
     1
 92
        0
176
     1
 66
   257
176
     1
 43
1.0
176
     1
 76
     1
176
     1
 77
     6
176
     1
 78
     2
176
     1
 67
     7
176
     1
 79
     5
176
     1
170
     0
176
     1
171
     0
176
     1
290
     0
176
     1
 93
        1
176
     1
 44
0.0
176
     1
173
     0
176
     1
  0
VISUALSTYLE
  5
31
102
{ACAD_REACTORS
330
2A
102
}
330
2A
100
AcDbVisualStyle
  2
3D Hidden
 70
     6
177
     2
291
     0
 71
     1
176
     1
 72
     2
176
     1
 73
     2
176
     1
 90
        0
176
     1
 40
-0.6
176
     1
 41
-30.0
176
     1
 62
     5
 63
     7
421
 16777215
176
     1
 74
     2
176
     1
 91
        2
176
     1
 64
     7
176
     1
 65
   257
176
     1
 75
     2
176
     1
175
     1
176
     1
 42
40.0
176
     1
 92
        0
176
     1
 66
   257
176
     1
 43
1.0
176
     1
 76
     1
176
     1
 77
     6
176
     1
 78
     2
176
     1
 67
     7
176
     1
 79
     3
176
     1
170
     0
176
     1
171
     0
176
     1
290
     0
176
     1
 93
        1
176
     1
 44
0.0
176
     1
173
     0
176
     1
  0
VISUALSTYLE
  5
30
102
{ACAD_REACTORS
330
2A
102
}
330
2A
100
AcDbVisualStyle
  2
3dWireframe
 70
     5
177
     2
291
     0
 71
     0
176
     1
 72
     2
176
     1
 73
     0
176
     1
 90
        0
176
     1
 40
-0.6
176
     1
 41
-30.0
176
     1
 62
     5
 63
     7
421
 16777215
176
     1
 74
     1
176
     1
 91
        4
176
     1
 64
     7
176
     1
 65
   257
176
     1
 75
     1
176
     1
175
     1
176
     1
 42
1.0
176
     1
 92
        0
176
     1
 66
   257
176
     1
 43
1.0
176
     1
 76
     1
176
     1
 77
     6
176
     1
 78
     2
176
     1
 67
     7
176
     1
 79
     5
176
     1
170
     0
176
     1
171
     0
176
     1
290
     0
176
     1
 93
        1
176
     1
 44
0.0
176
     1
173
     0
176
     1
  0
VISUALSTYLE
  5
32
102
{ACAD_REACTORS
330
2A
102
}
330
2A
100
AcDbVisualStyle
  2
Basic
 70
     7
177
     2
291
     1
 71
     1
176
     1
 72
     0
176
     1
 73
     1
176
     1
 90
        0
176
     1
 40
-0.6
176
     1
 41
-30.0
176
     1
 62
     5
 63
     7
421
 16777215
176
     1
 74
     0
176
     1
 91
        4
176
     1
 64
     7
176
     1
 65
   257
176
     1
 75
     1
176
     1
175
     1
176
     1
 42
1.0
176
     1
 92
        8
176
     1
 66
     7
176
     1
 43
1.0
176
     1
 76
     1
176
     1
 77
     6
176
     1
 78
     2
176
     1
 67
     7
176
     1
 79
     5
176
     1
170
     0
176
     1
171
     0
176
     1
290
     0
176
     1
 93
        1
176
     1
 44
0.0
176
     1
173
     0
176
     1
  0
VISUALSTYLE
  5
36
102
{ACAD_REACTORS
330
2A
102
}
330
2A
100
AcDbVisualStyle
  2
Brighten
 70
    12
177
     2
291
     1
 71
     2
176
     1
 72
     2
176
     1
 73
     0
176
     1
 90
        0
176
     1
 40
-0.6
176
     1
 41
-30.0
176
     1
 62
     5
 63
     7
421
 16777215
176
     1
 74
     1
176
     1
 91
        4
176
     1
 64
     7
176
     1
 65
   257
176
     1
 75
     1
176
     1
175
     1
176
     1
 42
1.0
176
     1
 92
        8
176
     1
 66
     7
176
     1
 43
1.0
176
     1
 76
     1
176
     1
 77
     6
176
     1
 78
     2
176
     1
 67
     7
176
     1
 79
     5
176
     1
170
     0
176
     1
171
     0
176
     1
290
     0
176
     1
 93
        1
176
     1
 44
50.0
176
     1
173
     0
176
     1
  0
VISUALSTYLE
  5
3A
102
{ACAD_REACTORS
330
2A
102
}
330
2A
100
AcDbVisualStyle
  2
ColorChange
 70
    16
177
     2
291
     1
 71
     2
176
     1
 72
     2
176
     1
 73
     3
176
     1
 90
        0
176
     1
 40
-0.6
176
     1
 41
-30.0
176
     1
 62
     5
 63
     8
421
  8421504
176
     1
 74
     1
176
     1
 91
        4
176
     1
 64
     7
176
     1
 65
   257
176
     1
 75
     1
176
     1
175
     1
176
     1
 42
1.0
176
     1
 92
        8
176
     1
 66
     8
424
  8421504
176
     1
 43
1.0
176
     1
 76
     1
176
     1
 77
     6
176
     1
 78
     2
176
     1
 67
     7
176
     1
 79
     5
176
     1
170
     0
176
     1
171
     0
176
     1
290
     0
176
     1
 93
        1
176
     1
 44
0.0
176
     1
173
     0
176
     1
  0
VISUALSTYLE
  5
34
102
{ACAD_REACTORS
330
2A
102
}
330
2A
100
AcDbVisualStyle
  2
Conceptual
 70
     9
177
     2
291
     0
 71
     3
176
     1
 72
     2
176
     1
 73
     0
176
     1
 90
        0
176
     1
 40
-0.6
176
     1
 41
-30.0
176
     1
 62
     5
 63
     7
421
 16777215
176
     1
 74
     2
176
     1
 91
        2
176
     1
 64
     7
176
     1
 65
   257
176
     1
 75
     1
176
     1
175
     1
176
     1
 42
40.0
176
     1
 92
        8
176
     1
 66
     7
176
     1
 43
1.0
176
     1
 76
     1
176
     1
 77
     6
176
     1
 78
     2
176
     1
 67
     7
176
     1
 79
     3
176
     1
170
     0
176
     1
171
     0
176
     1
290
     0
176
     1
 93
        1
176
     1
 44
0.0
176
     1
173
     0
176
     1
  0
VISUALSTYLE
  5
35
102
{ACAD_REACTORS
330
2A
102
}
330
2A
100
AcDbVisualStyle
  2
Dim
 70
    11
177
     2
291
     1
 71
     2
176
     1
 72
     2
176
     1
 73
     0
176
     1
 90
        0
176
     1
 40
-0.6
176
     1
 41
-30.0
176
     1
 62
     5
 63
     7
421
 16777215
176
     1
 74
     1
176
     1
 91
        4
176
     1
 64
     7
176
     1
 65
   257
176
     1
 75
     1
176
     1
175
     1
176
     1
 42
1.0
176
     1
 92
        8
176
     1
 66
     7
176
     1
 43
1.0
176
     1
 76
     1
176
     1
 77
     6
176
     1
 78
     2
176
     1
 67
     7
176
     1
 79
     5
176
     1
170
     0
176
     1
171
     0
176
     1
290
     0
176
     1
 93
        1
176
     1
 44
-50.0
176
     1
173
     0
176
     1
  0
VISUALSTYLE
  5
39
102
{ACAD_REACTORS
330
2A
102
}
330
2A
100
AcDbVisualStyle
  2
Facepattern
 70
    15
177
     2
291
     1
 71
     2
176
     1
 72
     2
176
     1
 73
     0
176
     1
 90
        0
176
     1
 40
-0.6
176
     1
 41
-30.0
176
     1
 62
     5
 63
     7
421
 16777215
176
     1
 74
     1
176
     1
 91
        4
176
     1
 64
     7
176
     1
 65
   257
176
     1
 75
     1
176
     1
175
     1
176
     1
 42
1.0
176
     1
 92
        8
176
     1
 66
     7
176
     1
 43
1.0
176
     1
 76
     1
176
     1
 77
     6
176
     1
 78
     2
176
     1
 67
     7
176
     1
 79
     5
176
     1
170
     0
176
     1
171
     0
176
     1
290
     0
176
     1
 93
        1
176
     1
 44
0.0
176
     1
173
     0
176
     1
  0
VISUALSTYLE
  5
2B
102
{ACAD_REACTORS
330
2A
102
}
330
2A
100
AcDbVisualStyle
  2
Flat
 70
     0
177
     2
291
     1
 71
     2
176
     1
 72
     1
176
     1
 73
     1
176
     1
 90
        2
176
     1
 40
-0.6
176
     1
 41
30.0
176
     1
 62
     5
 63
     7
421
 16777215
176
     1
 74
     0
176
     1
 91
        4
176
     1
 64
     7
176
     1
 65
   257
176
     1
 75
     1
176
     1
175
     1
176
     1
 42
1.0
176
     1
 92
        8
176
     1
 66
     7
176
     1
 43
1.0
176
     1
 76
     1
176
     1
 77
     6
176
     1
 78
     2
176
     1
 67
     7
176
     1
 79
     5
176
     1
170
     0
176
     1
171
     0
176
     1
290
     0
176
     1
 93
       13
176
     1
 44
0.0
176
     1
173
     0
176
     1
  0
VISUALSTYLE
  5
2C
102
{ACAD_REACTORS
330
2A
102
}
330
2A
100
AcDbVisualStyle
  2
FlatWithEdges
 70
     1
177
     2
291
     1
 71
     2
176
     1
 72
     1
176
     1
 73
     1
176
     1
 90
        2
176
     1
 40
-0.6
176
     1
 41
30.0
176
     1
 62
     5
 63
     7
421
 16777215
176
     1
 74
     1
176
     1
 91
        4
176
     1
 64
     7
176
     1
 65
   257
176
     1
 75
     1
176
     1
175
     1
176
     1
 42
1.0
176
     1
 92
        0
176
     1
 66
   257
176
     1
 43
1.0
176
     1
 76
     1
176
     1
 77
     6
176
     1
 78
     2
176
     1
 67
     7
176
     1
 79
     5
176
     1
170
     0
176
     1
171
     0
176
     1
290
     0
176
     1
 93
       13
176
     1
 44
0.0
176
     1
173
     0
176
     1
  0
VISUALSTYLE
  5
2D
102
{ACAD_REACTORS
330
2A
102
}
330
2A
100
AcDbVisualStyle
  2
Gouraud
 70
     2
177
     2
291
     1
 71
     2
176
     1
 72
     2
176
     1
 73
     1
176
     1
 90
        2
176
     1
 40
-0.6
176
     1
 41
30.0
176
     1
 62
     5
 63
     7
421
 16777215
176
     1
 74
     0
176
     1
 91
        4
176
     1
 64
     7
176
     1
 65
   257
176
     1
 75
     1
176
     1
175
     1
176
     1
 42
1.0
176
     1
 92
        0
176
     1
 66
     7
176
     1
 43
1.0
176
     1
 76
     1
176
     1
 77
     6
176
     1
 78
     2
176
     1
 67
     7
176
     1
 79
     5
176
     1
170
     0
176
     1
171
     0
176
     1
290
     0
176
     1
 93
       13
176
     1
 44
0.0
176
     1
173
     0
176
     1
  0
VISUALSTYLE
  5
2E
102
{ACAD_REACTORS
330
2A
102
}
330
2A
100
AcDbVisualStyle
  2
GouraudWithEdges
 70
     3
177
     2
291
     1
 71
     2
176
     1
 72
     2
176
     1
 73
     1
176
     1
 90
        2
176
     1
 40
-0.6
176
     1
 41
30.0
176
     1
 62
     5
 63
     7
421
 16777215
176
     1
 74
     1
176
     1
 91
        4
176
     1
 64
     7
176
     1
 65
   257
176
     1
 75
     1
176
     1
175
     1
176
     1
 42
1.0
176
     1
 92
        0
176
     1
 66
   257
176
     1
 43
1.0
176
     1
 76
     1
176
     1
 77
     6
176
     1
 78
     2
176
     1
 67
     7
176
     1
 79
     5
176
     1
170
     0
176
     1
171
     0
176
     1
290
     0
176
     1
 93
       13
176
     1
 44
0.0
176
     1
173
     0
176
     1
  0
VISUALSTYLE
  5
38
102
{ACAD_REACTORS
330
2A
102
}
330
2A
100
AcDbVisualStyle
  2
Linepattern
 70
    14
177
     2
291
     1
 71
     2
176
     1
 72
     2
176
     1
 73
     0
176
     1
 90
        0
176
     1
 40
-0.6
176
     1
 41
-30.0
176
     1
 62
     5
 63
     7
421
 16777215
176
     1
 74
     1
176
     1
 91
        4
176
     1
 64
     7
176
     1
 65
   257
176
     1
 75
     7
176
     1
175
     7
176
     1
 42
1.0
176
     1
 92
        8
176
     1
 66
     7
176
     1
 43
1.0
176
     1
 76
     1
176
     1
 77
     6
176
     1
 78
     2
176
     1
 67
     7
176
     1
 79
     5
176
     1
170
     0
176
     1
171
     0
176
     1
290
     0
176
     1
 93
        1
176
     1
 44
0.0
176
     1
173
     0
176
     1
  0
VISUALSTYLE
  5
33
102
{ACAD_REACTORS
330
2A
102
}
330
2A
100
AcDbVisualStyle
  2
Realistic
 70
     8
177
     2
291
     0
 71
     2
176
     1
 72
     2
176
     1
 73
     0
176
     1
 90
        0
176
     1
 40
-0.6
176
     1
 41
-30.0
176
     1
 62
     5
 63
     7
421
 16777215
176
     1
 74
     1
176
     1
 91
        0
176
     1
 64
     7
176
     1
 65
   257
176
     1
 75
     1
176
     1
175
     1
176
     1
 42
1.0
176
     1
 92
        8
176
     1
 66
     8
424
  7895160
176
     1
 43
1.0
176
     1
 76
     1
176
     1
 77
     6
176
     1
 78
     2
176
     1
 67
     7
176
     1
 79
     5
176
     1
170
     0
176
     1
171
     0
176
     1
290
     0
176
     1
 93
       13
176
     1
 44
0.0
176
     1
173
     0
176
     1
  0
VISUALSTYLE
  5
37
102
{ACAD_REACTORS
330
2A
102
}
330
2A
100
AcDbVisualStyle
  2
Thicken
 70
    13
177
     2
291
     1
 71
     2
176
     1
 72
     2
176
     1
 73
     0
176
     1
 90
        0
176
     1
 40
-0.6
176
     1
 41
-30.0
176
     1
 62
     5
 63
     7
421
 16777215
176
     1
 74
     1
176
     1
 91
        4
176
     1
 64
     7
176
     1
 65
   257
176
     1
 75
     1
176
     1
175
     1
176
     1
 42
1.0
176
     1
 92
       12
176
     1
 66
     7
176
     1
 43
1.0
176
     1
 76
     1
176
     1
 77
     6
176
     1
 78
     2
176
     1
 67
     7
176
     1
 79
     5
176
     1
170
     0
176
     1
171
     0
176
     1
290
     0
176
     1
 93
        1
176
     1
 44
0.0
176
     1
173
     0
176
     1
  0
ENDSEC
  0
EOF
