<?xml version="1.0" encoding="utf-8"?>
<!-- Generator: Adobe Illustrator 25.0.0, SVG Export Plug-In . SVG Version: 6.00 Build 0)  -->
<svg version="1.1" id="Layer_1" xmlns="http://www.w3.org/2000/svg" xmlns:xlink="http://www.w3.org/1999/xlink" x="0px" y="0px"
	 width="1567.251px" height="2326.86px" viewBox="0 0 1567.251 2326.86" style="enable-background:new 0 0 1567.251 2326.86;"
	 xml:space="preserve">
<style type="text/css">
	.st0{fill:none;stroke:#000000;stroke-width:2.3889;stroke-miterlimit:10;}
	.st1{enable-background:new    ;}
	.st2{fill:none;stroke:#000000;stroke-width:2;stroke-miterlimit:10;}
</style>
<path class="st0" d="M805.508,671.583v126.508h728.625V671.583H805.508z M1407.262,713.153h-368.347v-15.12h368.347V713.153
	L1407.262,713.153z"/>
<g class="st1">
	<path class="st2" d="M820.936,2112.361h67.16V1739.54h-67.16v-148.095h335.797v148.095h-53.383v152.401l111.072-152.401v-148.095
		h261.75v148.095h-57.688l-133.458,161.872v6.027c45.338,0,80.936,7.749,106.766,23.247c25.831,15.499,38.746,42.486,38.746,80.937
		v68.02c0,8.61,2.435,16.226,7.318,22.817c4.87,6.605,11.624,9.901,20.234,9.901h48.217v148.096h-154.123
		c-94.147,0-141.207-43.051-141.207-129.152v-73.188c0-14.341-4.601-28.413-13.776-42.189
		c-9.188-13.776-20.099-20.664-32.719-20.664h-61.132v117.098h67.16v148.096H820.936V2112.361z"/>
</g>
<path class="st2" d="M729.283,2112.361c-8.61,0-15.364-3.296-20.234-9.901c-4.883-6.592-7.318-14.207-7.318-22.817v-68.02
	c0-38.45-12.916-65.438-38.746-80.937c-25.831-15.498-61.428-23.247-106.766-23.247v-6.027l133.458-161.872h57.688v-148.095h-261.75
	v148.095l-111.072,152.401V1739.54h53.383v-148.095H92.128v148.095h67.16v372.821h-67.16v148.096h349.574v-148.096h-67.16v-117.098
	h61.132c12.62,0,23.53,6.888,32.719,20.664c9.175,13.776,13.776,27.849,13.776,42.189v73.188
	c0,86.102,47.06,129.152,141.207,129.152H777.5V2112.36L729.283,2112.361L729.283,2112.361z M752.299,2235.256H623.377
	c-40.358,0-70.269-8.641-88.9-25.683c-18.24-16.684-27.106-42.286-27.106-78.27v-73.188c0-19.328-6.057-38.223-18.003-56.158
	c-17.584-26.364-38.903-31.896-53.692-31.896h-86.333v167.498h67.16v97.695H117.329v-97.695h67.16v-423.222h-67.16v-97.694h285.397
	v97.694h-53.383v216.172h28.272l133.2-182.763v-131.104h211.349v97.694h-44.372l-146.774,178.023v40.276h25.2
	c40.503,0,72.062,6.613,93.801,19.656c8.665,5.198,14.977,12.111,19.295,21.133c4.789,10.004,7.216,22.854,7.216,38.194v68.02
	c0,14.104,4.128,26.828,12.27,37.818c9.544,12.945,23.934,20.101,40.483,20.101H752.3L752.299,2235.256L752.299,2235.256z"/>
<g>
	<path class="st2" d="M704.083,1406.504c-8.61,0-15.364-3.296-20.234-9.901c-4.883-6.592-7.318-14.207-7.318-22.817v-68.02
		c0-38.45-12.916-65.438-38.746-80.937c-25.831-15.498-61.428-23.247-106.766-23.247v-6.027l133.458-161.872h57.688V885.588h-43.958
		v25.2h18.757v97.694h-44.372l-146.774,178.023v40.276h25.2c40.503,0,72.062,6.613,93.801,19.656
		c8.665,5.198,14.977,12.111,19.295,21.133c4.789,10.004,7.216,22.854,7.216,38.194v68.02c0,14.104,4.128,26.828,12.27,37.818
		c9.544,12.945,23.934,20.101,40.483,20.101H727.1v97.695H598.177c-40.358,0-70.269-8.641-88.9-25.683
		c-18.24-16.684-27.106-42.286-27.106-78.27v-73.188c0-19.328-6.057-38.223-18.003-56.158
		c-17.584-26.364-38.903-31.896-53.692-31.896h-86.333v167.498h67.16v97.695H92.128v-97.695h67.16v-423.222h-67.16v-97.694h67.855
		v-25.2H66.928v148.095h67.16v372.821h-67.16v148.096h349.574v-148.096h-67.16v-117.098h61.132c12.62,0,23.53,6.888,32.719,20.664
		c9.175,13.776,13.776,27.849,13.776,42.189v73.188c0,86.102,47.06,129.152,141.207,129.152h154.123V1406.5h-48.216V1406.504z"/>
	<polygon class="st2" points="402.726,1033.683 402.726,885.588 332.724,885.588 332.724,910.788 377.525,910.788 377.525,1008.482 
		324.142,1008.482 324.142,1224.654 352.414,1224.654 485.614,1041.892 485.614,910.788 505.465,910.788 505.465,885.588 
		460.414,885.588 460.414,1033.683 349.342,1186.084 349.342,1033.683 	"/>
</g>
<g>
	<path class="st2" d="M1420.78,1406.504c-8.61,0-15.364-3.296-20.234-9.901c-4.883-6.592-7.318-14.207-7.318-22.817v-68.02
		c0-38.45-12.916-65.438-38.746-80.937c-25.831-15.498-61.428-23.247-106.766-23.247v-6.027l133.458-161.872h57.688V885.588h-43.958
		v25.2h18.758v97.694h-44.372l-146.774,178.023v40.276h25.2c40.503,0,72.062,6.613,93.801,19.656
		c8.665,5.198,14.977,12.111,19.295,21.133c4.789,10.004,7.216,22.854,7.216,38.194v68.02c0,14.104,4.128,26.828,12.27,37.818
		c9.544,12.945,23.934,20.101,40.483,20.101h23.017v97.695h-128.922c-40.358,0-70.269-8.641-88.9-25.683
		c-18.24-16.684-27.106-42.286-27.106-78.27v-73.188c0-19.328-6.057-38.223-18.003-56.158
		c-17.584-26.364-38.903-31.896-53.692-31.896h-86.333v167.498h67.16v97.695H808.826v-97.695h67.16v-423.222h-67.16v-97.694h67.855
		v-25.2h-93.055v148.095h67.16v372.821h-67.16v148.096H1133.2v-148.096h-67.16v-117.098h61.132c12.62,0,23.53,6.888,32.719,20.664
		c9.175,13.776,13.776,27.849,13.776,42.189v73.188c0,86.102,47.06,129.152,141.207,129.152h154.123V1406.5h-48.217
		L1420.78,1406.504L1420.78,1406.504z"/>
	<polygon class="st2" points="1119.423,1033.683 1119.423,885.588 1049.422,885.588 1049.422,910.788 1094.223,910.788 
		1094.223,1008.482 1040.839,1008.482 1040.839,1224.654 1069.111,1224.654 1202.312,1041.892 1202.312,910.788 1222.162,910.788 
		1222.162,885.588 1177.111,885.588 1177.111,1033.683 1066.04,1186.084 1066.04,1033.683 	"/>
</g>
<path class="st2" d="M741.556,682.982c-8.61,0-15.364-3.296-20.234-9.901c-4.883-6.592-7.318-14.207-7.318-22.817v-68.02
	c0-38.45-12.916-65.438-38.746-80.937c-25.831-15.498-61.428-23.247-106.766-23.247v-6.027L701.95,310.161h57.688V162.066h-261.75
	v148.095L386.816,462.562V310.161h53.383V162.066H104.402v148.095h67.16v372.821h-67.16v148.096h213.593v15.383h367.344v-15.383
	h104.434V682.982H741.556z"/>
<path class="st2" d="M453.975,831.078V682.982h-67.16V565.884h61.132c12.62,0,23.53,6.888,32.719,20.664
	c9.175,13.776,13.776,27.849,13.776,42.189v73.188c0,86.102,47.06,129.152,141.207,129.152H453.975V831.078z"/>
</svg>
