  0
SECTION
  2
HEADER
  9
$ACADVER
  1
AC1024
  9
$ACADMAINTVER
 70
     6
  9
$DWGCODEPAGE
  3
UNDEFINED
  9
$INSBASE
 10
0.0
 20
0.0
 30
0.0
  9
$EXTMIN
 10
1.000000000000000E+20
 20
1.000000000000000E+20
 30
1.000000000000000E+20
  9
$EXTMAX
 10
-1.000000000000000E+20
 20
-1.000000000000000E+20
 30
-1.000000000000000E+20
  9
$LIMMIN
 10
0.0
 20
0.0
  9
$LIMMAX
 10
12.0
 20
9.0
  9
$ORTHOMODE
 70
     0
  9
$REGENMODE
 70
     1
  9
$FILLMODE
 70
     1
  9
$QTEXTMODE
 70
     0
  9
$MIRRTEXT
 70
     1
  9
$LTSCALE
 40
1.0
  9
$ATTMODE
 70
     1
  9
$TEXTSIZE
 40
0.2
  9
$TRACEWID
 40
0.05
  9
$TEXTSTYLE
  7
Standard
  9
$CLAYER
  8
0
  9
$CELTYPE
  6
ByLayer
  9
$CECOLOR
 62
   256
  9
$CELTSCALE
 40
1.0
  9
$DISPSILH
 70
     0
  9
$DIMSCALE
 40
1.0
  9
$DIMASZ
 40
0.18
  9
$DIMEXO
 40
0.0625
  9
$DIMDLI
 40
0.38
  9
$DIMRND
 40
0.0
  9
$DIMDLE
 40
0.0
  9
$DIMEXE
 40
0.18
  9
$DIMTP
 40
0.0
  9
$DIMTM
 40
0.0
  9
$DIMTXT
 40
0.18
  9
$DIMCEN
 40
0.09
  9
$DIMTSZ
 40
0.0
  9
$DIMTOL
 70
     0
  9
$DIMLIM
 70
     0
  9
$DIMTIH
 70
     1
  9
$DIMTOH
 70
     1
  9
$DIMSE1
 70
     0
  9
$DIMSE2
 70
     0
  9
$DIMTAD
 70
     0
  9
$DIMZIN
 70
     0
  9
$DIMBLK
  1

  9
$DIMASO
 70
     1
  9
$DIMSHO
 70
     1
  9
$DIMPOST
  1

  9
$DIMAPOST
  1

  9
$DIMALT
 70
     0
  9
$DIMALTD
 70
     2
  9
$DIMALTF
 40
25.4
  9
$DIMLFAC
 40
1.0
  9
$DIMTOFL
 70
     0
  9
$DIMTVP
 40
0.0
  9
$DIMTIX
 70
     0
  9
$DIMSOXD
 70
     0
  9
$DIMSAH
 70
     0
  9
$DIMBLK1
  1

  9
$DIMBLK2
  1

  9
$DIMSTYLE
  2
Standard
  9
$DIMCLRD
 70
     0
  9
$DIMCLRE
 70
     0
  9
$DIMCLRT
 70
     0
  9
$DIMTFAC
 40
1.0
  9
$DIMGAP
 40
0.09
  9
$DIMJUST
 70
     0
  9
$DIMSD1
 70
     0
  9
$DIMSD2
 70
     0
  9
$DIMTOLJ
 70
     1
  9
$DIMTZIN
 70
     0
  9
$DIMALTZ
 70
     0
  9
$DIMALTTZ
 70
     0
  9
$DIMUPT
 70
     0
  9
$DIMDEC
 70
     4
  9
$DIMTDEC
 70
     4
  9
$DIMALTU
 70
     2
  9
$DIMALTTD
 70
     2
  9
$DIMTXSTY
  7
Standard
  9
$DIMAUNIT
 70
     0
  9
$DIMADEC
 70
     0
  9
$DIMALTRND
 40
0.0
  9
$DIMAZIN
 70
     0
  9
$DIMDSEP
 70
    46
  9
$DIMATFIT
 70
     3
  9
$DIMFRAC
 70
     0
  9
$DIMLDRBLK
  1

  9
$DIMLUNIT
 70
     2
  9
$DIMLWD
 70
    -2
  9
$DIMLWE
 70
    -2
  9
$DIMTMOVE
 70
     0
  9
$DIMFXL
 40
1.0
  9
$DIMFXLON
 70
     0
  9
$DIMJOGANG
 40
0.7853981633974483
  9
$DIMTFILL
 70
     0
  9
$DIMTFILLCLR
 70
     0
  9
$DIMARCSYM
 70
     0
  9
$DIMLTYPE
  6

  9
$DIMLTEX1
  6

  9
$DIMLTEX2
  6

  9
$DIMTXTDIRECTION
 70
     0
  9
$LUNITS
 70
     2
  9
$LUPREC
 70
     4
  9
$SKETCHINC
 40
0.1
  9
$FILLETRAD
 40
0.5
  9
$AUNITS
 70
     0
  9
$AUPREC
 70
     0
  9
$MENU
  1
.
  9
$ELEVATION
 40
0.0
  9
$PELEVATION
 40
0.0
  9
$THICKNESS
 40
0.0
  9
$LIMCHECK
 70
     0
  9
$CHAMFERA
 40
0.5
  9
$CHAMFERB
 40
0.5
  9
$CHAMFERC
 40
1.0
  9
$CHAMFERD
 40
0.0
  9
$SKPOLY
 70
     0
  9
$TDCREATE
 40
2459310.601053229
  9
$TDUCREATE
 40
2459310.851053241
  9
$TDUPDATE
 40
2459310.601053229
  9
$TDUUPDATE
 40
2459310.851053241
  9
$TDINDWG
 40
0.0000000116
  9
$TDUSRTIMER
 40
0.0000000116
  9
$USRTIMER
 70
     1
  9
$ANGBASE
 50
0.0
  9
$ANGDIR
 70
     0
  9
$PDMODE
 70
     0
  9
$PDSIZE
 40
0.0
  9
$PLINEWID
 40
0.0
  9
$SPLFRAME
 70
     0
  9
$SPLINETYPE
 70
     6
  9
$SPLINESEGS
 70
     8
  9
$HANDSEED
  5
8D
  9
$SURFTAB1
 70
     6
  9
$SURFTAB2
 70
     6
  9
$SURFTYPE
 70
     6
  9
$SURFU
 70
     6
  9
$SURFV
 70
     6
  9
$UCSBASE
  2

  9
$UCSNAME
  2

  9
$UCSORG
 10
0.0
 20
0.0
 30
0.0
  9
$UCSXDIR
 10
1.0
 20
0.0
 30
0.0
  9
$UCSYDIR
 10
0.0
 20
1.0
 30
0.0
  9
$UCSORTHOREF
  2

  9
$UCSORTHOVIEW
 70
     0
  9
$UCSORGTOP
 10
0.0
 20
0.0
 30
0.0
  9
$UCSORGBOTTOM
 10
0.0
 20
0.0
 30
0.0
  9
$UCSORGLEFT
 10
0.0
 20
0.0
 30
0.0
  9
$UCSORGRIGHT
 10
0.0
 20
0.0
 30
0.0
  9
$UCSORGFRONT
 10
0.0
 20
0.0
 30
0.0
  9
$UCSORGBACK
 10
0.0
 20
0.0
 30
0.0
  9
$PUCSBASE
  2

  9
$PUCSNAME
  2

  9
$PUCSORG
 10
0.0
 20
0.0
 30
0.0
  9
$PUCSXDIR
 10
1.0
 20
0.0
 30
0.0
  9
$PUCSYDIR
 10
0.0
 20
1.0
 30
0.0
  9
$PUCSORTHOREF
  2

  9
$PUCSORTHOVIEW
 70
     0
  9
$PUCSORGTOP
 10
0.0
 20
0.0
 30
0.0
  9
$PUCSORGBOTTOM
 10
0.0
 20
0.0
 30
0.0
  9
$PUCSORGLEFT
 10
0.0
 20
0.0
 30
0.0
  9
$PUCSORGRIGHT
 10
0.0
 20
0.0
 30
0.0
  9
$PUCSORGFRONT
 10
0.0
 20
0.0
 30
0.0
  9
$PUCSORGBACK
 10
0.0
 20
0.0
 30
0.0
  9
$USERI1
 70
     0
  9
$USERI2
 70
     0
  9
$USERI3
 70
     0
  9
$USERI4
 70
     0
  9
$USERI5
 70
     0
  9
$USERR1
 40
0.0
  9
$USERR2
 40
0.0
  9
$USERR3
 40
0.0
  9
$USERR4
 40
0.0
  9
$USERR5
 40
0.0
  9
$WORLDVIEW
 70
     1
  9
$SHADEDGE
 70
     3
  9
$SHADEDIF
 70
    70
  9
$TILEMODE
 70
     1
  9
$MAXACTVP
 70
    64
  9
$PINSBASE
 10
0.0
 20
0.0
 30
0.0
  9
$PLIMCHECK
 70
     0
  9
$PEXTMIN
 10
1.000000000000000E+20
 20
1.000000000000000E+20
 30
1.000000000000000E+20
  9
$PEXTMAX
 10
-1.000000000000000E+20
 20
-1.000000000000000E+20
 30
-1.000000000000000E+20
  9
$PLIMMIN
 10
0.0
 20
0.0
  9
$PLIMMAX
 10
12.0
 20
9.0
  9
$UNITMODE
 70
     0
  9
$VISRETAIN
 70
     1
  9
$PLINEGEN
 70
     0
  9
$PSLTSCALE
 70
     1
  9
$TREEDEPTH
 70
  3020
  9
$CMLSTYLE
  2
Standard
  9
$CMLJUST
 70
     0
  9
$CMLSCALE
 40
1.0
  9
$PROXYGRAPHICS
 70
     1
  9
$MEASUREMENT
 70
     0
  9
$CELWEIGHT
370
    -1
  9
$ENDCAPS
280
     0
  9
$JOINSTYLE
280
     0
  9
$LWDISPLAY
290
     1
  9
$INSUNITS
 70
     1
  9
$HYPERLINKBASE
  1

  9
$STYLESHEET
  1

  9
$XEDIT
290
     1
  9
$CEPSNTYPE
380
     0
  9
$PSTYLEMODE
290
     1
  9
$FINGERPRINTGUID
  2
{F67FFC20-B27B-CD68-B9ED-DFB7EC8BAE24}
  9
$VERSIONGUID
  2
{FAEB1C32-E019-11D5-929B-00C0DF256EC4}
  9
$EXTNAMES
290
     1
  9
$PSVPSCALE
 40
0.0
  9
$OLESTARTUP
290
     0
  9
$SORTENTS
280
   127
  9
$INDEXCTL
280
     0
  9
$HIDETEXT
280
     1
  9
$XCLIPFRAME
280
     2
  9
$HALOGAP
280
     0
  9
$OBSCOLOR
 70
   257
  9
$OBSLTYPE
280
     0
  9
$INTERSECTIONDISPLAY
280
     0
  9
$INTERSECTIONCOLOR
 70
   257
  9
$DIMASSOC
280
     2
  9
$PROJECTNAME
  1

  9
$CAMERADISPLAY
290
     0
  9
$LENSLENGTH
 40
50.0
  9
$CAMERAHEIGHT
 40
0.0
  9
$STEPSPERSEC
 40
2.0
  9
$STEPSIZE
 40
6.0
  9
$3DDWFPREC
 40
2.0
  9
$PSOLWIDTH
 40
0.25
  9
$PSOLHEIGHT
 40
4.0
  9
$LOFTANG1
 40
1.570796326794897
  9
$LOFTANG2
 40
1.570796326794897
  9
$LOFTMAG1
 40
0.0
  9
$LOFTMAG2
 40
0.0
  9
$LOFTPARAM
 70
     7
  9
$LOFTNORMALS
280
     1
  9
$LATITUDE
 40
37.795
  9
$LONGITUDE
 40
-122.394
  9
$NORTHDIRECTION
 40
0.0
  9
$TIMEZONE
 70
 -8000
  9
$LIGHTGLYPHDISPLAY
280
     1
  9
$TILEMODELIGHTSYNCH
280
     1
  9
$CMATERIAL
347
3C
  9
$SOLIDHIST
280
     1
  9
$SHOWHIST
280
     1
  9
$DWFFRAME
280
     2
  9
$DGNFRAME
280
     2
  9
$REALWORLDSCALE
290
     1
  9
$INTERFERECOLOR
 62
   256
  9
$CSHADOW
280
     0
  9
$SHADOWPLANELOCATION
 40
0.0
  0
ENDSEC
  0
SECTION
  2
CLASSES
  0
CLASS
  1
ACDBDICTIONARYWDFLT
  2
AcDbDictionaryWithDefault
  3
ObjectDBX Classes
 90
        0
 91
        4
280
     0
281
     0
  0
CLASS
  1
VISUALSTYLE
  2
AcDbVisualStyle
  3
ObjectDBX Classes
 90
     4095
 91
        4
280
     0
281
     0
  0
CLASS
  1
MATERIAL
  2
AcDbMaterial
  3
ObjectDBX Classes
 90
     1153
 91
        4
280
     0
281
     0
  0
CLASS
  1
SUN
  2
AcDbSun
  3
SCENEOE
 90
     1024
 91
        4
280
     0
281
     0
  0
ENDSEC
  0
SECTION
  2
TABLES
  0
TABLE
  2
VPORT
  5
8
330
0
100
AcDbSymbolTable
 70
     1
  0
VPORT
  5
29
330
8
100
AcDbSymbolTableRecord
100
AcDbViewportTableRecord
  2
*Active
 70
     0
 10
0.0
 20
0.0
 11
1.0
 21
1.0
 12
0.0
 22
0.0
 13
0.0
 23
0.0
 14
0.5
 24
0.5
 15
0.5
 25
0.5
 16
0.0
 26
0.0
 36
1.0
 17
10.88368733723958
 27
16.15875074598524
 37
0.0
 40
32.31750149197048
 41
0.6735475723544849
 42
50.0
 43
0.0
 44
0.0
 50
0.0
 51
0.0
 71
     0
 72
   100
 73
     1
 74
     3
 75
     0
 76
     0
 77
     0
 78
     0
281
     0
 65
     1
110
0.0
120
0.0
130
0.0
111
1.0
121
0.0
131
0.0
112
0.0
122
1.0
132
0.0
 79
     0
146
0.0
 60
     3
 61
     5
292
     1
282
     1
141
0.0
142
0.0
 63
   250
361
3F
  0
ENDTAB
  0
TABLE
  2
LTYPE
  5
5
330
0
100
AcDbSymbolTable
 70
     1
  0
LTYPE
  5
14
330
5
100
AcDbSymbolTableRecord
100
AcDbLinetypeTableRecord
  2
ByBlock
 70
     0
  3

 72
    65
 73
     0
 40
0.0
  0
LTYPE
  5
15
330
5
100
AcDbSymbolTableRecord
100
AcDbLinetypeTableRecord
  2
ByLayer
 70
     0
  3

 72
    65
 73
     0
 40
0.0
  0
LTYPE
  5
16
330
5
100
AcDbSymbolTableRecord
100
AcDbLinetypeTableRecord
  2
Continuous
 70
     0
  3
Solid line
 72
    65
 73
     0
 40
0.0
  0
ENDTAB
  0
TABLE
  2
LAYER
  5
2
330
0
100
AcDbSymbolTable
 70
     2
  0
LAYER
  5
10
330
2
100
AcDbSymbolTableRecord
100
AcDbLayerTableRecord
  2
0
 70
     0
 62
     7
  6
Continuous
370
    -3
390
F
347
3E
  0
LAYER
  5
40
330
2
100
AcDbSymbolTableRecord
100
AcDbLayerTableRecord
  2
Layer 1
 70
     0
 62
     7
  6
Continuous
370
    -3
390
F
347
3E
  0
ENDTAB
  0
TABLE
  2
STYLE
  5
3
330
0
100
AcDbSymbolTable
 70
     1
  0
STYLE
  5
11
330
3
100
AcDbSymbolTableRecord
100
AcDbTextStyleTableRecord
  2
Standard
 70
     0
 40
0.0
 41
1.0
 50
0.0
 71
     0
 42
0.2
  3
txt
  4

  0
ENDTAB
  0
TABLE
  2
VIEW
  5
6
330
0
100
AcDbSymbolTable
 70
     0
  0
ENDTAB
  0
TABLE
  2
UCS
  5
7
330
0
100
AcDbSymbolTable
 70
     0
  0
ENDTAB
  0
TABLE
  2
APPID
  5
9
330
0
100
AcDbSymbolTable
 70
     1
  0
APPID
  5
12
330
9
100
AcDbSymbolTableRecord
100
AcDbRegAppTableRecord
  2
ACAD
 70
     0
  0
ENDTAB
  0
TABLE
  2
DIMSTYLE
  5
A
330
0
100
AcDbSymbolTable
 70
     1
100
AcDbDimStyleTable
  0
DIMSTYLE
105
27
330
A
100
AcDbSymbolTableRecord
100
AcDbDimStyleTableRecord
  2
Standard
 70
     0
178
     0
340
11
  0
ENDTAB
  0
TABLE
  2
BLOCK_RECORD
  5
1
330
0
100
AcDbSymbolTable
 70
     4
  0
BLOCK_RECORD
  5
1F
330
1
100
AcDbSymbolTableRecord
100
AcDbBlockTableRecord
  2
*Model_Space
340
22
 70
     0
280
     1
281
     0
  0
BLOCK_RECORD
  5
1B
330
1
100
AcDbSymbolTableRecord
100
AcDbBlockTableRecord
  2
*Paper_Space
340
1E
 70
     0
280
     1
281
     0
  0
BLOCK_RECORD
  5
23
330
1
100
AcDbSymbolTableRecord
100
AcDbBlockTableRecord
  2
*Paper_Space0
340
26
 70
     0
280
     1
281
     0
  0
BLOCK_RECORD
  5
50
330
1
100
AcDbSymbolTableRecord
100
AcDbBlockTableRecord
  2
block 2
340
0
102
{BLKREFS
331
51
102
}
 70
     0
280
     1
281
     0
  0
BLOCK_RECORD
  5
57
330
1
100
AcDbSymbolTableRecord
100
AcDbBlockTableRecord
  2
block 3
340
0
102
{BLKREFS
331
58
102
}
 70
     0
280
     1
281
     0
  0
BLOCK_RECORD
  5
70
330
1
100
AcDbSymbolTableRecord
100
AcDbBlockTableRecord
  2
block 4
340
0
102
{BLKREFS
331
71
102
}
 70
     0
280
     1
281
     0
  0
ENDTAB
  0
ENDSEC
  0
SECTION
  2
BLOCKS
  0
BLOCK
  5
20
330
1F
100
AcDbEntity
  8
0
100
AcDbBlockBegin
  2
*Model_Space
 70
     0
 10
0.0
 20
0.0
 30
0.0
  3
*Model_Space
  1

  0
ENDBLK
  5
21
330
1F
100
AcDbEntity
  8
0
100
AcDbBlockEnd
  0
BLOCK
  5
1C
330
1B
100
AcDbEntity
 67
     1
  8
0
100
AcDbBlockBegin
  2
*Paper_Space
 70
     0
 10
0.0
 20
0.0
 30
0.0
  3
*Paper_Space
  1

  0
ENDBLK
  5
1D
330
1B
100
AcDbEntity
 67
     1
  8
0
100
AcDbBlockEnd
  0
BLOCK
  5
24
330
23
100
AcDbEntity
  8
0
100
AcDbBlockBegin
  2
*Paper_Space0
 70
     0
 10
0.0
 20
0.0
 30
0.0
  3
*Paper_Space0
  1

  0
ENDBLK
  5
25
330
23
100
AcDbEntity
  8
0
100
AcDbBlockEnd
  0
BLOCK
  5
52
330
50
100
AcDbEntity
  8
0
100
AcDbBlockBegin
  2
block 2
 70
     0
 10
0.0
 20
0.0
 30
0.0
  3
block 2
  1

  0
SPLINE
  5
54
330
50
100
AcDbEntity
  8
Layer 1
 62
     7
420
 16777215
370
    70
100
AcDbSpline
210
0.0
220
0.0
230
1.0
 70
    11
 71
     3
 72
   104
 73
   100
 74
     0
 42
0.0000000001
 43
0.0000000001
 12
1.0
 22
0.0
 32
0.0
 13
1.0
 23
0.0
 33
0.0
 40
0.0
 40
0.0
 40
0.0
 40
0.0
 40
1.0
 40
1.0
 40
1.0
 40
2.0
 40
2.0
 40
2.0
 40
3.0
 40
3.0
 40
3.0
 40
4.0
 40
4.0
 40
4.0
 40
5.0
 40
5.0
 40
5.0
 40
6.0
 40
6.0
 40
6.0
 40
7.0
 40
7.0
 40
7.0
 40
8.0
 40
8.0
 40
8.0
 40
9.0
 40
9.0
 40
9.0
 40
10.0
 40
10.0
 40
10.0
 40
11.0
 40
11.0
 40
11.0
 40
12.0
 40
12.0
 40
12.0
 40
13.0
 40
13.0
 40
13.0
 40
14.0
 40
14.0
 40
14.0
 40
15.0
 40
15.0
 40
15.0
 40
16.0
 40
16.0
 40
16.0
 40
17.0
 40
17.0
 40
17.0
 40
18.0
 40
18.0
 40
18.0
 40
19.0
 40
19.0
 40
19.0
 40
20.0
 40
20.0
 40
20.0
 40
21.0
 40
21.0
 40
21.0
 40
22.0
 40
22.0
 40
22.0
 40
23.0
 40
23.0
 40
23.0
 40
24.0
 40
24.0
 40
24.0
 40
25.0
 40
25.0
 40
25.0
 40
26.0
 40
26.0
 40
26.0
 40
27.0
 40
27.0
 40
27.0
 40
28.0
 40
28.0
 40
28.0
 40
29.0
 40
29.0
 40
29.0
 40
30.0
 40
30.0
 40
30.0
 40
31.0
 40
31.0
 40
31.0
 40
32.0
 40
32.0
 40
32.0
 40
33.0
 40
33.0
 40
33.0
 40
33.0
 10
11.40188852945963
 20
2.979153103298611
 30
0.0
 10
11.40188852945963
 20
2.979153103298611
 30
0.0
 10
12.33466593424479
 20
2.979153103298611
 30
0.0
 10
12.33466593424479
 20
2.979153103298611
 30
0.0
 10
12.33466593424479
 20
2.979153103298611
 30
0.0
 10
12.33466593424479
 20
8.157223171657986
 30
0.0
 10
12.33466593424479
 20
8.157223171657986
 30
0.0
 10
12.33466593424479
 20
8.157223171657986
 30
0.0
 10
11.40188768174913
 20
8.157223171657986
 30
0.0
 10
11.40188768174913
 20
8.157223171657986
 30
0.0
 10
11.40188768174913
 20
8.157223171657986
 30
0.0
 10
11.40188768174913
 20
10.21409776475694
 30
0.0
 10
11.40188768174913
 20
10.21409776475694
 30
0.0
 10
11.40188768174913
 20
10.21409776475694
 30
0.0
 10
16.06573486328125
 20
10.21409776475694
 30
0.0
 10
16.06573486328125
 20
10.21409776475694
 30
0.0
 10
16.06573486328125
 20
10.21409776475694
 30
0.0
 10
16.06573486328125
 20
8.157223171657986
 30
0.0
 10
16.06573486328125
 20
8.157223171657986
 30
0.0
 10
16.06573486328125
 20
8.157223171657986
 30
0.0
 10
15.32430352105035
 20
8.157223171657986
 30
0.0
 10
15.32430352105035
 20
8.157223171657986
 30
0.0
 10
15.32430352105035
 20
8.157223171657986
 30
0.0
 10
15.32430352105035
 20
6.040542602539062
 30
0.0
 10
15.32430352105035
 20
6.040542602539062
 30
0.0
 10
15.32430352105035
 20
6.040542602539062
 30
0.0
 10
16.86697048611111
 20
8.157223171657986
 30
0.0
 10
16.86697048611111
 20
8.157223171657986
 30
0.0
 10
16.86697048611111
 20
8.157223171657986
 30
0.0
 10
16.86697048611111
 20
10.21409776475694
 30
0.0
 10
16.86697048611111
 20
10.21409776475694
 30
0.0
 10
16.86697048611111
 20
10.21409776475694
 30
0.0
 10
20.50238715277778
 20
10.21409776475694
 30
0.0
 10
20.50238715277778
 20
10.21409776475694
 30
0.0
 10
20.50238715277778
 20
10.21409776475694
 30
0.0
 10
20.50238715277778
 20
8.157223171657986
 30
0.0
 10
20.50238715277778
 20
8.157223171657986
 30
0.0
 10
20.50238715277778
 20
8.157223171657986
 30
0.0
 10
19.70116509331597
 20
8.157223171657986
 30
0.0
 10
19.70116509331597
 20
8.157223171657986
 30
0.0
 10
19.70116509331597
 20
8.157223171657986
 30
0.0
 10
17.84758165147569
 20
5.909001668294271
 30
0.0
 10
17.84758165147569
 20
5.909001668294271
 30
0.0
 10
17.84758165147569
 20
5.909001668294271
 30
0.0
 10
17.84758165147569
 20
5.825293646918403
 30
0.0
 10
17.84758165147569
 20
5.825293646918403
 30
0.0
 10
18.47727627224392
 20
5.825293646918403
 30
0.0
 10
18.97169325086805
 20
5.717668321397569
 30
0.0
 10
19.33044264051649
 20
5.50241936577691
 30
0.0
 10
19.68920728895399
 20
5.287155151367188
 30
0.0
 10
19.86858113606771
 20
4.91233656141493
 30
0.0
 10
19.86858113606771
 20
4.378294203016493
 30
0.0
 10
19.86858113606771
 20
4.378294203016493
 30
0.0
 10
19.86858113606771
 20
3.433573404947917
 30
0.0
 10
19.86858113606771
 20
3.433573404947917
 30
0.0
 10
19.86858113606771
 20
3.313988579644097
 30
0.0
 10
19.90240139431424
 20
3.208211263020833
 30
0.0
 10
19.97021993001302
 20
3.116672092013889
 30
0.0
 10
20.03785875108507
 20
3.024936252170139
 30
0.0
 10
20.1316646999783
 20
2.979159884982639
 30
0.0
 10
20.25124782986111
 20
2.979159884982639
 30
0.0
 10
20.25124782986111
 20
2.979159884982639
 30
0.0
 10
20.92092895507812
 20
2.979159884982639
 30
0.0
 10
20.92092895507812
 20
2.979159884982639
 30
0.0
 10
20.92092895507812
 20
2.979159884982639
 30
0.0
 10
20.92092895507812
 20
0.922271728515625
 30
0.0
 10
20.92092895507812
 20
0.922271728515625
 30
0.0
 10
20.92092895507812
 20
0.922271728515625
 30
0.0
 10
18.78033108181424
 20
0.922271728515625
 30
0.0
 10
18.78033108181424
 20
0.922271728515625
 30
0.0
 10
17.47273423936632
 20
0.922271728515625
 30
0.0
 10
16.81912231445312
 20
1.52020263671875
 30
0.0
 10
16.81912231445312
 20
2.716050889756944
 30
0.0
 10
16.81912231445312
 20
2.716050889756944
 30
0.0
 10
16.81912231445312
 20
3.732550726996528
 30
0.0
 10
16.81912231445312
 20
3.732550726996528
 30
0.0
 10
16.81912231445312
 20
3.931730482313368
 30
0.0
 10
16.75522020128038
 20
4.12717522515191
 30
0.0
 10
16.62778896755642
 20
4.318508572048611
 30
0.0
 10
16.50017801920573
 20
4.509841918945312
 30
0.0
 10
16.34863620334201
 20
4.60550774468316
 30
0.0
 10
16.17335849338108
 20
4.60550774468316
 30
0.0
 10
16.17335849338108
 20
4.60550774468316
 30
0.0
 10
15.32430352105035
 20
4.60550774468316
 30
0.0
 10
15.32430352105035
 20
4.60550774468316
 30
0.0
 10
15.32430352105035
 20
4.60550774468316
 30
0.0
 10
15.32430352105035
 20
2.979146321614583
 30
0.0
 10
15.32430352105035
 20
2.979146321614583
 30
0.0
 10
15.32430352105035
 20
2.979146321614583
 30
0.0
 10
16.25708177354601
 20
2.979146321614583
 30
0.0
 10
16.25708177354601
 20
2.979146321614583
 30
0.0
 10
16.25708177354601
 20
2.979146321614583
 30
0.0
 10
16.25708177354601
 20
0.9222581651475694
 30
0.0
 10
16.25708177354601
 20
0.9222581651475694
 30
0.0
 10
16.25708177354601
 20
0.9222581651475694
 30
0.0
 10
11.40188852945963
 20
0.9222581651475694
 30
0.0
 10
11.40188852945963
 20
0.9222581651475694
 30
0.0
 10
11.40188852945963
 20
0.9222581651475694
 30
0.0
 10
11.40188852945963
 20
2.979153103298611
 30
0.0
 10
11.40188852945963
 20
2.979153103298611
 30
0.0
  0
ENDBLK
  5
53
330
50
100
AcDbEntity
  8
0
100
AcDbBlockEnd
  0
BLOCK
  5
59
330
57
100
AcDbEntity
  8
0
100
AcDbBlockBegin
  2
block 3
 70
     0
 10
0.0
 20
0.0
 30
0.0
  3
block 3
  1

  0
SPLINE
  5
5B
330
57
100
AcDbEntity
  8
Layer 1
 62
     7
420
 16777215
370
    70
100
AcDbSpline
210
0.0
220
0.0
230
1.0
 70
    11
 71
     3
 72
   191
 73
   187
 74
     0
 42
0.0000000001
 43
0.0000000001
 12
1.0
 22
0.0
 32
0.0
 13
1.0
 23
0.0
 33
0.0
 40
0.0
 40
0.0
 40
0.0
 40
0.0
 40
1.0
 40
1.0
 40
1.0
 40
2.0
 40
2.0
 40
2.0
 40
3.0
 40
3.0
 40
3.0
 40
4.0
 40
4.0
 40
4.0
 40
5.0
 40
5.0
 40
5.0
 40
6.0
 40
6.0
 40
6.0
 40
7.0
 40
7.0
 40
7.0
 40
8.0
 40
8.0
 40
8.0
 40
9.0
 40
9.0
 40
9.0
 40
10.0
 40
10.0
 40
10.0
 40
11.0
 40
11.0
 40
11.0
 40
12.0
 40
12.0
 40
12.0
 40
13.0
 40
13.0
 40
13.0
 40
14.0
 40
14.0
 40
14.0
 40
15.0
 40
15.0
 40
15.0
 40
16.0
 40
16.0
 40
16.0
 40
17.0
 40
17.0
 40
17.0
 40
18.0
 40
18.0
 40
18.0
 40
19.0
 40
19.0
 40
19.0
 40
20.0
 40
20.0
 40
20.0
 40
21.0
 40
21.0
 40
21.0
 40
22.0
 40
22.0
 40
22.0
 40
23.0
 40
23.0
 40
23.0
 40
24.0
 40
24.0
 40
24.0
 40
25.0
 40
25.0
 40
25.0
 40
26.0
 40
26.0
 40
26.0
 40
27.0
 40
27.0
 40
27.0
 40
28.0
 40
28.0
 40
28.0
 40
29.0
 40
29.0
 40
29.0
 40
30.0
 40
30.0
 40
30.0
 40
31.0
 40
31.0
 40
31.0
 40
32.0
 40
32.0
 40
32.0
 40
33.0
 40
33.0
 40
33.0
 40
34.0
 40
34.0
 40
34.0
 40
35.0
 40
35.0
 40
35.0
 40
36.0
 40
36.0
 40
36.0
 40
37.0
 40
37.0
 40
37.0
 40
38.0
 40
38.0
 40
38.0
 40
39.0
 40
39.0
 40
39.0
 40
40.0
 40
40.0
 40
40.0
 40
41.0
 40
41.0
 40
41.0
 40
42.0
 40
42.0
 40
42.0
 40
43.0
 40
43.0
 40
43.0
 40
44.0
 40
44.0
 40
44.0
 40
45.0
 40
45.0
 40
45.0
 40
46.0
 40
46.0
 40
46.0
 40
47.0
 40
47.0
 40
47.0
 40
48.0
 40
48.0
 40
48.0
 40
49.0
 40
49.0
 40
49.0
 40
50.0
 40
50.0
 40
50.0
 40
51.0
 40
51.0
 40
51.0
 40
52.0
 40
52.0
 40
52.0
 40
53.0
 40
53.0
 40
53.0
 40
54.0
 40
54.0
 40
54.0
 40
55.0
 40
55.0
 40
55.0
 40
56.0
 40
56.0
 40
56.0
 40
57.0
 40
57.0
 40
57.0
 40
58.0
 40
58.0
 40
58.0
 40
59.0
 40
59.0
 40
59.0
 40
60.0
 40
60.0
 40
60.0
 40
61.0
 40
61.0
 40
61.0
 40
62.0
 40
62.0
 40
62.0
 40
62.0
 10
9.7789306640625
 20
12.78272332085503
 30
0.0
 10
9.659347534179688
 20
12.78272332085503
 30
0.0
 10
9.565541585286457
 20
12.82850138346354
 30
0.0
 10
9.497902764214409
 20
12.92023722330729
 30
0.0
 10
9.43008338080512
 20
13.01179334852431
 30
0.0
 10
9.396263970269096
 20
13.11755710177951
 30
0.0
 10
9.396263970269096
 20
13.23714023166233
 30
0.0
 10
9.396263970269096
 20
13.23714023166233
 30
0.0
 10
9.396263970269096
 20
14.18186272515191
 30
0.0
 10
9.396263970269096
 20
14.18186272515191
 30
0.0
 10
9.396263970269096
 20
14.71588982476128
 30
0.0
 10
9.21687486436632
 20
15.0907236735026
 30
0.0
 10
8.858125474717882
 20
15.30598788791233
 30
0.0
 10
8.499361673990885
 20
15.52123853895399
 30
0.0
 10
8.004959106445312
 20
15.62886216905382
 30
0.0
 10
7.375264485677083
 20
15.62886216905382
 30
0.0
 10
7.375264485677083
 20
15.62886216905382
 30
0.0
 10
7.375264485677083
 20
15.71257019042969
 30
0.0
 10
7.375264485677083
 20
15.71257019042969
 30
0.0
 10
7.375264485677083
 20
15.71257019042969
 30
0.0
 10
9.22884792751736
 20
17.9607916937934
 30
0.0
 10
9.22884792751736
 20
17.9607916937934
 30
0.0
 10
9.22884792751736
 20
17.9607916937934
 30
0.0
 10
10.03006998697917
 20
17.9607916937934
 30
0.0
 10
10.03006998697917
 20
17.9607916937934
 30
0.0
 10
10.03006998697917
 20
17.9607916937934
 30
0.0
 10
10.03006998697917
 20
20.01766798231337
 30
0.0
 10
10.03006998697917
 20
20.01766798231337
 30
0.0
 10
10.03006998697917
 20
20.01766798231337
 30
0.0
 10
9.419542100694445
 20
20.01766798231337
 30
0.0
 10
9.419542100694445
 20
20.01766798231337
 30
0.0
 10
9.419542100694445
 20
20.01766798231337
 30
0.0
 10
9.419542100694445
 20
19.66766781277127
 30
0.0
 10
9.419542100694445
 20
19.66766781277127
 30
0.0
 10
9.419542100694445
 20
19.66766781277127
 30
0.0
 10
9.68005625406901
 20
19.66766781277127
 30
0.0
 10
9.68005625406901
 20
19.66766781277127
 30
0.0
 10
9.68005625406901
 20
19.66766781277127
 30
0.0
 10
9.68005625406901
 20
18.31080627441406
 30
0.0
 10
9.68005625406901
 20
18.31080627441406
 30
0.0
 10
9.68005625406901
 20
18.31080627441406
 30
0.0
 10
9.063778347439236
 20
18.31080627441406
 30
0.0
 10
9.063778347439236
 20
18.31080627441406
 30
0.0
 10
9.063778347439236
 20
18.31080627441406
 30
0.0
 10
7.025250752766927
 20
15.83826531304253
 30
0.0
 10
7.025250752766927
 20
15.83826531304253
 30
0.0
 10
7.025250752766927
 20
15.83826531304253
 30
0.0
 10
7.025250752766927
 20
15.27887641059028
 30
0.0
 10
7.025250752766927
 20
15.27887641059028
 30
0.0
 10
7.025250752766927
 20
15.27887641059028
 30
0.0
 10
7.375250922309028
 20
15.27887641059028
 30
0.0
 10
7.375250922309028
 20
15.27887641059028
 30
0.0
 10
7.937792460123697
 20
15.27887641059028
 30
0.0
 10
8.376112196180555
 20
15.18702867296007
 30
0.0
 10
8.678042941623264
 20
15.00587632921007
 30
0.0
 10
8.798389858669704
 20
14.93368191189236
 30
0.0
 10
8.886056688096788
 20
14.83766852484809
 30
0.0
 10
8.946028815375433
 20
14.71236165364583
 30
0.0
 10
9.012542724609375
 20
14.57341681586371
 30
0.0
 10
9.046251085069445
 20
14.39494493272569
 30
0.0
 10
9.046251085069445
 20
14.18188985188802
 30
0.0
 10
9.046251085069445
 20
14.18188985188802
 30
0.0
 10
9.046251085069445
 20
13.23716735839844
 30
0.0
 10
9.046251085069445
 20
13.23716735839844
 30
0.0
 10
9.046251085069445
 20
13.04127841525608
 30
0.0
 10
9.103584289550781
 20
12.86455620659722
 30
0.0
 10
9.216668023003471
 20
12.71191745334201
 30
0.0
 10
9.349223666720919
 20
12.53212653266059
 30
0.0
 10
9.549084981282551
 20
12.43273756239149
 30
0.0
 10
9.778932359483507
 20
12.43273756239149
 30
0.0
 10
9.778932359483507
 20
12.43273756239149
 30
0.0
 10
10.09861077202691
 20
12.43273756239149
 30
0.0
 10
10.09861077202691
 20
12.43273756239149
 30
0.0
 10
10.09861077202691
 20
12.43273756239149
 30
0.0
 10
10.09861077202691
 20
11.07586330837674
 30
0.0
 10
10.09861077202691
 20
11.07586330837674
 30
0.0
 10
10.09861077202691
 20
11.07586330837674
 30
0.0
 10
8.308013916015625
 20
11.07586330837674
 30
0.0
 10
8.308013916015625
 20
11.07586330837674
 30
0.0
 10
7.747485690646701
 20
11.07586330837674
 30
0.0
 10
7.3320558336046
 20
11.19587707519531
 30
0.0
 10
7.073291778564453
 20
11.43257141113281
 30
0.0
 10
6.8199585808648
 20
11.66429307725694
 30
0.0
 10
6.696819729275173
 20
12.01987711588542
 30
0.0
 10
6.696819729275173
 20
12.51965501573351
 30
0.0
 10
6.696819729275173
 20
12.51965501573351
 30
0.0
 10
6.696819729275173
 20
13.53615485297309
 30
0.0
 10
6.696819729275173
 20
13.53615485297309
 30
0.0
 10
6.696819729275173
 20
13.80459933810764
 30
0.0
 10
6.612694634331596
 20
14.06703016493056
 30
0.0
 10
6.446778191460503
 20
14.31612650553385
 30
0.0
 10
6.20255618625217
 20
14.68229336208767
 30
0.0
 10
5.906458536783854
 20
14.75912645128038
 30
0.0
 10
5.701055738661024
 20
14.75912645128038
 30
0.0
 10
5.701055738661024
 20
14.75912645128038
 30
0.0
 10
4.501986185709635
 20
14.75912645128038
 30
0.0
 10
4.501986185709635
 20
14.75912645128038
 30
0.0
 10
4.501986185709635
 20
14.75912645128038
 30
0.0
 10
4.501986185709635
 20
12.4327646891276
 30
0.0
 10
4.501986185709635
 20
12.4327646891276
 30
0.0
 10
4.501986185709635
 20
12.4327646891276
 30
0.0
 10
5.434764014350043
 20
12.4327646891276
 30
0.0
 10
5.434764014350043
 20
12.4327646891276
 30
0.0
 10
5.434764014350043
 20
12.4327646891276
 30
0.0
 10
5.434764014350043
 20
11.07589043511285
 30
0.0
 10
5.434764014350043
 20
11.07589043511285
 30
0.0
 10
5.434764014350043
 20
11.07589043511285
 30
0.0
 10
1.279555532667372
 20
11.07589043511285
 30
0.0
 10
1.279555532667372
 20
11.07589043511285
 30
0.0
 10
1.279555532667372
 20
11.07589043511285
 30
0.0
 10
1.279555532667372
 20
12.4327646891276
 30
0.0
 10
1.279555532667372
 20
12.4327646891276
 30
0.0
 10
1.279555532667372
 20
12.4327646891276
 30
0.0
 10
2.212333255343967
 20
12.4327646891276
 30
0.0
 10
2.212333255343967
 20
12.4327646891276
 30
0.0
 10
2.212333255343967
 20
12.4327646891276
 30
0.0
 10
2.212333255343967
 20
18.31084781222873
 30
0.0
 10
2.212333255343967
 20
18.31084781222873
 30
0.0
 10
2.212333255343967
 20
18.31084781222873
 30
0.0
 10
1.279555426703559
 20
18.31084781222873
 30
0.0
 10
1.279555426703559
 20
18.31084781222873
 30
0.0
 10
1.279555426703559
 20
18.31084781222873
 30
0.0
 10
1.279555426703559
 20
19.66770935058594
 30
0.0
 10
1.279555426703559
 20
19.66770935058594
 30
0.0
 10
1.279555426703559
 20
19.66770935058594
 30
0.0
 10
2.221986134847005
 20
19.66770935058594
 30
0.0
 10
2.221986134847005
 20
19.66770935058594
 30
0.0
 10
2.221986134847005
 20
19.66770935058594
 30
0.0
 10
2.221986134847005
 20
20.01770952012804
 30
0.0
 10
2.221986134847005
 20
20.01770952012804
 30
0.0
 10
2.221986134847005
 20
20.01770952012804
 30
0.0
 10
0.9295555750528971
 20
20.01770952012804
 30
0.0
 10
0.9295555750528971
 20
20.01770952012804
 30
0.0
 10
0.9295555750528971
 20
20.01770952012804
 30
0.0
 10
0.9295555750528971
 20
17.96083407931858
 30
0.0
 10
0.9295555750528971
 20
17.96083407931858
 30
0.0
 10
0.9295555750528971
 20
17.96083407931858
 30
0.0
 10
1.862333509657118
 20
17.96083407931858
 30
0.0
 10
1.862333509657118
 20
17.96083407931858
 30
0.0
 10
1.862333509657118
 20
17.96083407931858
 30
0.0
 10
1.862333509657118
 20
12.7827640109592
 30
0.0
 10
1.862333509657118
 20
12.7827640109592
 30
0.0
 10
1.862333509657118
 20
12.7827640109592
 30
0.0
 10
0.92955568101671
 20
12.7827640109592
 30
0.0
 10
0.92955568101671
 20
12.7827640109592
 30
0.0
 10
0.92955568101671
 20
12.7827640109592
 30
0.0
 10
0.92955568101671
 20
10.72587585449219
 30
0.0
 10
0.92955568101671
 20
10.72587585449219
 30
0.0
 10
0.92955568101671
 20
10.72587585449219
 30
0.0
 10
5.784750196668837
 20
10.72587585449219
 30
0.0
 10
5.784750196668837
 20
10.72587585449219
 30
0.0
 10
5.784750196668837
 20
10.72587585449219
 30
0.0
 10
5.784750196668837
 20
12.7827640109592
 30
0.0
 10
5.784750196668837
 20
12.7827640109592
 30
0.0
 10
5.784750196668837
 20
12.7827640109592
 30
0.0
 10
4.851972368028428
 20
12.7827640109592
 30
0.0
 10
4.851972368028428
 20
12.7827640109592
 30
0.0
 10
4.851972368028428
 20
12.7827640109592
 30
0.0
 10
4.851972368028428
 20
14.40912543402778
 30
0.0
 10
4.851972368028428
 20
14.40912543402778
 30
0.0
 10
4.851972368028428
 20
14.40912543402778
 30
0.0
 10
5.70102776421441
 20
14.40912543402778
 30
0.0
 10
5.70102776421441
 20
14.40912543402778
 30
0.0
 10
5.876305474175347
 20
14.40912543402778
 30
0.0
 10
6.027833302815755
 20
14.31345960828993
 30
0.0
 10
6.155458238389756
 20
14.12212626139323
 30
0.0
 10
6.282888624403212
 20
13.93079291449653
 30
0.0
 10
6.346791585286458
 20
13.73533460828993
 30
0.0
 10
6.346791585286458
 20
13.53616841634114
 30
0.0
 10
6.346791585286458
 20
13.53616841634114
 30
0.0
 10
6.346791585286458
 20
12.51966857910156
 30
0.0
 10
6.346791585286458
 20
12.51966857910156
 30
0.0
 10
6.346791585286458
 20
11.32380676269531
 30
0.0
 10
7.000402662489149
 20
10.72589111328125
 30
0.0
 10
8.30800035264757
 20
10.72589111328125
 30
0.0
 10
8.30800035264757
 20
10.72589111328125
 30
0.0
 10
10.44859737820095
 20
10.72589111328125
 30
0.0
 10
10.44859737820095
 20
10.72589111328125
 30
0.0
 10
10.44859737820095
 20
10.72589111328125
 30
0.0
 10
10.44859737820095
 20
12.78277926974826
 30
0.0
 10
10.44859737820095
 20
12.78277926974826
 30
0.0
 10
10.44859737820095
 20
12.78277926974826
 30
0.0
 10
9.7789306640625
 20
12.78277926974826
 30
0.0
 10
9.7789306640625
 20
12.78277926974826
 30
0.0
 10
9.7789306640625
 20
12.78277926974826
 30
0.0
 10
9.7789306640625
 20
12.78272332085503
 30
0.0
 10
9.7789306640625
 20
12.78272332085503
 30
0.0
  0
POLYLINE
  5
5C
330
57
100
AcDbEntity
  8
Layer 1
 62
     7
420
 16777215
370
    70
100
AcDb2dPolyline
 66
     1
 10
0.0
 20
0.0
 30
0.0
  0
VERTEX
  5
5D
330
5C
100
AcDbEntity
  8
Layer 1
 62
     7
420
 16777215
370
    70
100
AcDbVertex
100
AcDb2dVertex
 10
5.593416849772135
 20
17.96079338921441
 30
0.0
  0
VERTEX
  5
5E
330
5C
100
AcDbEntity
  8
Layer 1
 62
     7
420
 16777215
370
    70
100
AcDbVertex
100
AcDb2dVertex
 10
5.593416849772135
 20
20.01766798231337
 30
0.0
  0
VERTEX
  5
5F
330
5C
100
AcDbEntity
  8
Layer 1
 62
     7
420
 16777215
370
    70
100
AcDbVertex
100
AcDb2dVertex
 10
4.621166653103298
 20
20.01766798231337
 30
0.0
  0
VERTEX
  5
60
330
5C
100
AcDbEntity
  8
Layer 1
 62
     7
420
 16777215
370
    70
100
AcDbVertex
100
AcDb2dVertex
 10
4.621166653103298
 20
19.66766781277127
 30
0.0
  0
VERTEX
  5
61
330
5C
100
AcDbEntity
  8
Layer 1
 62
     7
420
 16777215
370
    70
100
AcDbVertex
100
AcDb2dVertex
 10
5.243402693006727
 20
19.66766781277127
 30
0.0
  0
VERTEX
  5
62
330
5C
100
AcDbEntity
  8
Layer 1
 62
     7
420
 16777215
370
    70
100
AcDbVertex
100
AcDb2dVertex
 10
5.243402693006727
 20
18.31080712212457
 30
0.0
  0
VERTEX
  5
63
330
5C
100
AcDbEntity
  8
Layer 1
 62
     7
420
 16777215
370
    70
100
AcDbVertex
100
AcDb2dVertex
 10
4.501972198486328
 20
18.31080712212457
 30
0.0
  0
VERTEX
  5
64
330
5C
100
AcDbEntity
  8
Layer 1
 62
     7
420
 16777215
370
    70
100
AcDbVertex
100
AcDb2dVertex
 10
4.501972198486328
 20
15.30841742621528
 30
0.0
  0
VERTEX
  5
65
330
5C
100
AcDbEntity
  8
Layer 1
 62
     7
420
 16777215
370
    70
100
AcDbVertex
100
AcDb2dVertex
 10
4.894638909233941
 20
15.30841742621528
 30
0.0
  0
VERTEX
  5
66
330
5C
100
AcDbEntity
  8
Layer 1
 62
     7
420
 16777215
370
    70
100
AcDbVertex
100
AcDb2dVertex
 10
6.744639078776041
 20
17.84677971733941
 30
0.0
  0
VERTEX
  5
67
330
5C
100
AcDbEntity
  8
Layer 1
 62
     7
420
 16777215
370
    70
100
AcDbVertex
100
AcDb2dVertex
 10
6.744639078776041
 20
19.66766781277127
 30
0.0
  0
VERTEX
  5
68
330
5C
100
AcDbEntity
  8
Layer 1
 62
     7
420
 16777215
370
    70
100
AcDbVertex
100
AcDb2dVertex
 10
7.020347171359592
 20
19.66766781277127
 30
0.0
  0
VERTEX
  5
69
330
5C
100
AcDbEntity
  8
Layer 1
 62
     7
420
 16777215
370
    70
100
AcDbVertex
100
AcDb2dVertex
 10
7.020347171359592
 20
20.01766798231337
 30
0.0
  0
VERTEX
  5
6A
330
5C
100
AcDbEntity
  8
Layer 1
 62
     7
420
 16777215
370
    70
100
AcDbVertex
100
AcDb2dVertex
 10
6.39463890923394
 20
20.01766798231337
 30
0.0
  0
VERTEX
  5
6B
330
5C
100
AcDbEntity
  8
Layer 1
 62
     7
420
 16777215
370
    70
100
AcDbVertex
100
AcDb2dVertex
 10
6.39463890923394
 20
17.96079338921441
 30
0.0
  0
VERTEX
  5
6C
330
5C
100
AcDbEntity
  8
Layer 1
 62
     7
420
 16777215
370
    70
100
AcDbVertex
100
AcDb2dVertex
 10
4.851972368028428
 20
15.84411282009549
 30
0.0
  0
VERTEX
  5
6D
330
5C
100
AcDbEntity
  8
Layer 1
 62
     7
420
 16777215
370
    70
100
AcDbVertex
100
AcDb2dVertex
 10
4.851972368028428
 20
17.96079338921441
 30
0.0
  0
VERTEX
  5
6E
330
5C
100
AcDbEntity
  8
Layer 1
 62
     7
420
 16777215
370
    70
100
AcDbVertex
100
AcDb2dVertex
 10
5.593416849772135
 20
17.96079338921441
 30
0.0
  0
SEQEND
  5
6F
330
5C
100
AcDbEntity
  8
Layer 1
 62
     7
420
 16777215
370
    70
  0
ENDBLK
  5
5A
330
57
100
AcDbEntity
  8
0
100
AcDbBlockEnd
  0
BLOCK
  5
72
330
70
100
AcDbEntity
  8
0
100
AcDbBlockBegin
  2
block 4
 70
     0
 10
0.0
 20
0.0
 30
0.0
  3
block 4
  1

  0
SPLINE
  5
74
330
70
100
AcDbEntity
  8
Layer 1
 62
     7
420
 16777215
370
    70
100
AcDbSpline
210
0.0
220
0.0
230
1.0
 70
    11
 71
     3
 72
   194
 73
   190
 74
     0
 42
0.0000000001
 43
0.0000000001
 12
1.0
 22
0.0
 32
0.0
 13
1.0
 23
0.0
 33
0.0
 40
0.0
 40
0.0
 40
0.0
 40
0.0
 40
1.0
 40
1.0
 40
1.0
 40
2.0
 40
2.0
 40
2.0
 40
3.0
 40
3.0
 40
3.0
 40
4.0
 40
4.0
 40
4.0
 40
5.0
 40
5.0
 40
5.0
 40
6.0
 40
6.0
 40
6.0
 40
7.0
 40
7.0
 40
7.0
 40
8.0
 40
8.0
 40
8.0
 40
9.0
 40
9.0
 40
9.0
 40
10.0
 40
10.0
 40
10.0
 40
11.0
 40
11.0
 40
11.0
 40
12.0
 40
12.0
 40
12.0
 40
13.0
 40
13.0
 40
13.0
 40
14.0
 40
14.0
 40
14.0
 40
15.0
 40
15.0
 40
15.0
 40
16.0
 40
16.0
 40
16.0
 40
17.0
 40
17.0
 40
17.0
 40
18.0
 40
18.0
 40
18.0
 40
19.0
 40
19.0
 40
19.0
 40
20.0
 40
20.0
 40
20.0
 40
21.0
 40
21.0
 40
21.0
 40
22.0
 40
22.0
 40
22.0
 40
23.0
 40
23.0
 40
23.0
 40
24.0
 40
24.0
 40
24.0
 40
25.0
 40
25.0
 40
25.0
 40
26.0
 40
26.0
 40
26.0
 40
27.0
 40
27.0
 40
27.0
 40
28.0
 40
28.0
 40
28.0
 40
29.0
 40
29.0
 40
29.0
 40
30.0
 40
30.0
 40
30.0
 40
31.0
 40
31.0
 40
31.0
 40
32.0
 40
32.0
 40
32.0
 40
33.0
 40
33.0
 40
33.0
 40
34.0
 40
34.0
 40
34.0
 40
35.0
 40
35.0
 40
35.0
 40
36.0
 40
36.0
 40
36.0
 40
37.0
 40
37.0
 40
37.0
 40
38.0
 40
38.0
 40
38.0
 40
39.0
 40
39.0
 40
39.0
 40
40.0
 40
40.0
 40
40.0
 40
41.0
 40
41.0
 40
41.0
 40
42.0
 40
42.0
 40
42.0
 40
43.0
 40
43.0
 40
43.0
 40
44.0
 40
44.0
 40
44.0
 40
45.0
 40
45.0
 40
45.0
 40
46.0
 40
46.0
 40
46.0
 40
47.0
 40
47.0
 40
47.0
 40
48.0
 40
48.0
 40
48.0
 40
49.0
 40
49.0
 40
49.0
 40
50.0
 40
50.0
 40
50.0
 40
51.0
 40
51.0
 40
51.0
 40
52.0
 40
52.0
 40
52.0
 40
53.0
 40
53.0
 40
53.0
 40
54.0
 40
54.0
 40
54.0
 40
55.0
 40
55.0
 40
55.0
 40
56.0
 40
56.0
 40
56.0
 40
57.0
 40
57.0
 40
57.0
 40
58.0
 40
58.0
 40
58.0
 40
59.0
 40
59.0
 40
59.0
 40
60.0
 40
60.0
 40
60.0
 40
61.0
 40
61.0
 40
61.0
 40
62.0
 40
62.0
 40
62.0
 40
63.0
 40
63.0
 40
63.0
 40
63.0
 10
19.7330559624566
 20
12.78272332085503
 30
0.0
 10
19.61347283257378
 20
12.78272332085503
 30
0.0
 10
19.51966688368055
 20
12.82850138346354
 30
0.0
 10
19.45202806260851
 20
12.92023722330729
 30
0.0
 10
19.38420783148871
 20
13.01179334852431
 30
0.0
 10
19.35038926866319
 20
13.11755710177951
 30
0.0
 10
19.35038926866319
 20
13.23714023166233
 30
0.0
 10
19.35038926866319
 20
13.23714023166233
 30
0.0
 10
19.35038926866319
 20
14.18186272515191
 30
0.0
 10
19.35038926866319
 20
14.18186272515191
 30
0.0
 10
19.35038926866319
 20
14.71588982476128
 30
0.0
 10
19.17100016276041
 20
15.0907236735026
 30
0.0
 10
18.81225077311198
 20
15.30598788791233
 30
0.0
 10
18.45348612467448
 20
15.52123853895399
 30
0.0
 10
17.95908440483941
 20
15.62886216905382
 30
0.0
 10
17.32938978407118
 20
15.62886216905382
 30
0.0
 10
17.32938978407118
 20
15.62886216905382
 30
0.0
 10
17.32938978407118
 20
15.71257019042969
 30
0.0
 10
17.32938978407118
 20
15.71257019042969
 30
0.0
 10
17.32938978407118
 20
15.71257019042969
 30
0.0
 10
19.18297322591146
 20
17.9607916937934
 30
0.0
 10
19.18297322591146
 20
17.9607916937934
 30
0.0
 10
19.18297322591146
 20
17.9607916937934
 30
0.0
 10
19.98419528537326
 20
17.9607916937934
 30
0.0
 10
19.98419528537326
 20
17.9607916937934
 30
0.0
 10
19.98419528537326
 20
17.9607916937934
 30
0.0
 10
19.98419528537326
 20
20.01766798231337
 30
0.0
 10
19.98419528537326
 20
20.01766798231337
 30
0.0
 10
19.98419528537326
 20
20.01766798231337
 30
0.0
 10
19.37366739908854
 20
20.01766798231337
 30
0.0
 10
19.37366739908854
 20
20.01766798231337
 30
0.0
 10
19.37366739908854
 20
20.01766798231337
 30
0.0
 10
19.37366739908854
 20
19.66766781277127
 30
0.0
 10
19.37366739908854
 20
19.66766781277127
 30
0.0
 10
19.37366739908854
 20
19.66766781277127
 30
0.0
 10
19.63419596354166
 20
19.66766781277127
 30
0.0
 10
19.63419596354166
 20
19.66766781277127
 30
0.0
 10
19.63419596354166
 20
19.66766781277127
 30
0.0
 10
19.63419596354166
 20
18.31080627441406
 30
0.0
 10
19.63419596354166
 20
18.31080627441406
 30
0.0
 10
19.63419596354166
 20
18.31080627441406
 30
0.0
 10
19.01791890462239
 20
18.31080627441406
 30
0.0
 10
19.01791890462239
 20
18.31080627441406
 30
0.0
 10
19.01791890462239
 20
18.31080627441406
 30
0.0
 10
16.97939046223958
 20
15.83826531304253
 30
0.0
 10
16.97939046223958
 20
15.83826531304253
 30
0.0
 10
16.97939046223958
 20
15.83826531304253
 30
0.0
 10
16.97939046223958
 20
15.27887641059028
 30
0.0
 10
16.97939046223958
 20
15.27887641059028
 30
0.0
 10
16.97939046223958
 20
15.27887641059028
 30
0.0
 10
17.32938978407118
 20
15.27887641059028
 30
0.0
 10
17.32938978407118
 20
15.27887641059028
 30
0.0
 10
17.89193216959635
 20
15.27887641059028
 30
0.0
 10
18.33025105794271
 20
15.18702867296007
 30
0.0
 10
18.63218180338541
 20
15.00587632921007
 30
0.0
 10
18.75252956814236
 20
14.93368191189236
 30
0.0
 10
18.84019639756944
 20
14.83766852484809
 30
0.0
 10
18.90016852484809
 20
14.71236165364583
 30
0.0
 10
18.96668158637153
 20
14.57341681586371
 30
0.0
 10
19.0003899468316
 20
14.39494493272569
 30
0.0
 10
19.0003899468316
 20
14.18188985188802
 30
0.0
 10
19.0003899468316
 20
14.18188985188802
 30
0.0
 10
19.0003899468316
 20
13.23716735839844
 30
0.0
 10
19.0003899468316
 20
13.23716735839844
 30
0.0
 10
19.0003899468316
 20
13.04127841525608
 30
0.0
 10
19.05772399902344
 20
12.86455620659722
 30
0.0
 10
19.17080688476562
 20
12.71191745334201
 30
0.0
 10
19.30336168077257
 20
12.53212653266059
 30
0.0
 10
19.5032229953342
 20
12.43273756239149
 30
0.0
 10
19.73307122124566
 20
12.43273756239149
 30
0.0
 10
19.73307122124566
 20
12.43273756239149
 30
0.0
 10
20.05275132921007
 20
12.43273756239149
 30
0.0
 10
20.05275132921007
 20
12.43273756239149
 30
0.0
 10
20.05275132921007
 20
12.43273756239149
 30
0.0
 10
20.05275132921007
 20
11.07586330837674
 30
0.0
 10
20.05275132921007
 20
11.07586330837674
 30
0.0
 10
20.05275132921007
 20
11.07586330837674
 30
0.0
 10
18.26216803656684
 20
11.07586330837674
 30
0.0
 10
18.26216803656684
 20
11.07586330837674
 30
0.0
 10
17.70163981119791
 20
11.07586330837674
 30
0.0
 10
17.28620910644531
 20
11.19587707519531
 30
0.0
 10
17.02744547526041
 20
11.43257141113281
 30
0.0
 10
16.77411227756076
 20
11.66429307725694
 30
0.0
 10
16.65097384982639
 20
12.01987711588542
 30
0.0
 10
16.65097384982639
 20
12.51965501573351
 30
0.0
 10
16.65097384982639
 20
12.51965501573351
 30
0.0
 10
16.65097384982639
 20
13.53615485297309
 30
0.0
 10
16.65097384982639
 20
13.53615485297309
 30
0.0
 10
16.65097384982639
 20
13.80459933810764
 30
0.0
 10
16.56684875488281
 20
14.06703016493056
 30
0.0
 10
16.40093146430122
 20
14.31612650553385
 30
0.0
 10
16.15670945909288
 20
14.68229336208767
 30
0.0
 10
15.86061265733507
 20
14.75912645128038
 30
0.0
 10
15.65520901150174
 20
14.75912645128038
 30
0.0
 10
15.65520901150174
 20
14.75912645128038
 30
0.0
 10
14.45613945855035
 20
14.75912645128038
 30
0.0
 10
14.45613945855035
 20
14.75912645128038
 30
0.0
 10
14.45613945855035
 20
14.75912645128038
 30
0.0
 10
14.45613945855035
 20
12.4327646891276
 30
0.0
 10
14.45613945855035
 20
12.4327646891276
 30
0.0
 10
14.45613945855035
 20
12.4327646891276
 30
0.0
 10
15.38891771104601
 20
12.4327646891276
 30
0.0
 10
15.38891771104601
 20
12.4327646891276
 30
0.0
 10
15.38891771104601
 20
12.4327646891276
 30
0.0
 10
15.38891771104601
 20
11.07589043511285
 30
0.0
 10
15.38891771104601
 20
11.07589043511285
 30
0.0
 10
15.38891771104601
 20
11.07589043511285
 30
0.0
 10
11.23369428846571
 20
11.07589043511285
 30
0.0
 10
11.23369428846571
 20
11.07589043511285
 30
0.0
 10
11.23369428846571
 20
11.07589043511285
 30
0.0
 10
11.23369428846571
 20
12.4327646891276
 30
0.0
 10
11.23369428846571
 20
12.4327646891276
 30
0.0
 10
11.23369428846571
 20
12.4327646891276
 30
0.0
 10
12.16647169325087
 20
12.4327646891276
 30
0.0
 10
12.16647169325087
 20
12.4327646891276
 30
0.0
 10
12.16647169325087
 20
12.4327646891276
 30
0.0
 10
12.16647169325087
 20
18.31084781222873
 30
0.0
 10
12.16647169325087
 20
18.31084781222873
 30
0.0
 10
12.16647169325087
 20
18.31084781222873
 30
0.0
 10
11.23369344075521
 20
18.31084781222873
 30
0.0
 10
11.23369344075521
 20
18.31084781222873
 30
0.0
 10
11.23369344075521
 20
18.31084781222873
 30
0.0
 10
11.23369344075521
 20
19.66770935058594
 30
0.0
 10
11.23369344075521
 20
19.66770935058594
 30
0.0
 10
11.23369344075521
 20
19.66770935058594
 30
0.0
 10
12.1761237250434
 20
19.66770935058594
 30
0.0
 10
12.1761237250434
 20
19.66770935058594
 30
0.0
 10
12.1761237250434
 20
19.66770935058594
 30
0.0
 10
12.1761237250434
 20
20.01770952012804
 30
0.0
 10
12.1761237250434
 20
20.01770952012804
 30
0.0
 10
12.1761237250434
 20
20.01770952012804
 30
0.0
 10
10.88369327121311
 20
20.01770952012804
 30
0.0
 10
10.88369327121311
 20
20.01770952012804
 30
0.0
 10
10.88369327121311
 20
20.01770952012804
 30
0.0
 10
10.88369327121311
 20
17.96083407931858
 30
0.0
 10
10.88369327121311
 20
17.96083407931858
 30
0.0
 10
10.88369327121311
 20
17.96083407931858
 30
0.0
 10
11.81647067599826
 20
17.96083407931858
 30
0.0
 10
11.81647067599826
 20
17.96083407931858
 30
0.0
 10
11.81647067599826
 20
17.96083407931858
 30
0.0
 10
11.81647067599826
 20
12.7827640109592
 30
0.0
 10
11.81647067599826
 20
12.7827640109592
 30
0.0
 10
11.81647067599826
 20
12.7827640109592
 30
0.0
 10
10.8836924235026
 20
12.7827640109592
 30
0.0
 10
10.8836924235026
 20
12.7827640109592
 30
0.0
 10
10.8836924235026
 20
12.7827640109592
 30
0.0
 10
10.8836924235026
 20
10.72587585449219
 30
0.0
 10
10.8836924235026
 20
10.72587585449219
 30
0.0
 10
10.8836924235026
 20
10.72587585449219
 30
0.0
 10
15.73888821072049
 20
10.72587585449219
 30
0.0
 10
15.73888821072049
 20
10.72587585449219
 30
0.0
 10
15.73888821072049
 20
10.72587585449219
 30
0.0
 10
15.73888821072049
 20
12.7827640109592
 30
0.0
 10
15.73888821072049
 20
12.7827640109592
 30
0.0
 10
15.73888821072049
 20
12.7827640109592
 30
0.0
 10
14.80610995822483
 20
12.7827640109592
 30
0.0
 10
14.80610995822483
 20
12.7827640109592
 30
0.0
 10
14.80610995822483
 20
12.7827640109592
 30
0.0
 10
14.80610995822483
 20
14.40912543402778
 30
0.0
 10
14.80610995822483
 20
14.40912543402778
 30
0.0
 10
14.80610995822483
 20
14.40912543402778
 30
0.0
 10
15.65516493055556
 20
14.40912543402778
 30
0.0
 10
15.65516493055556
 20
14.40912543402778
 30
0.0
 10
15.83044264051649
 20
14.40912543402778
 30
0.0
 10
15.98197089301215
 20
14.31345960828993
 30
0.0
 10
16.1095954047309
 20
14.12212626139323
 30
0.0
 10
16.23702663845486
 20
13.93079291449653
 30
0.0
 10
16.3009287516276
 20
13.73533460828993
 30
0.0
 10
16.3009287516276
 20
13.53616841634114
 30
0.0
 10
16.3009287516276
 20
13.53616841634114
 30
0.0
 10
16.3009287516276
 20
12.51966857910156
 30
0.0
 10
16.3009287516276
 20
12.51966857910156
 30
0.0
 10
16.3009287516276
 20
11.32380676269531
 30
0.0
 10
16.9545406765408
 20
10.72589111328125
 30
0.0
 10
18.26213751898871
 20
10.72589111328125
 30
0.0
 10
18.26213751898871
 20
10.72589111328125
 30
0.0
 10
20.4027353922526
 20
10.72589111328125
 30
0.0
 10
20.4027353922526
 20
10.72589111328125
 30
0.0
 10
20.4027353922526
 20
10.72589111328125
 30
0.0
 10
20.4027353922526
 20
12.78277926974826
 30
0.0
 10
20.4027353922526
 20
12.78277926974826
 30
0.0
 10
20.4027353922526
 20
12.78277926974826
 30
0.0
 10
19.73305426703559
 20
12.78277926974826
 30
0.0
 10
19.73305426703559
 20
12.78277926974826
 30
0.0
 10
19.73305426703559
 20
12.78277926974826
 30
0.0
 10
19.73305426703559
 20
12.78272332085503
 30
0.0
 10
19.73305426703559
 20
12.78272332085503
 30
0.0
 10
19.73305426703559
 20
12.78272332085503
 30
0.0
 10
19.7330559624566
 20
12.78272332085503
 30
0.0
 10
19.7330559624566
 20
12.78272332085503
 30
0.0
  0
POLYLINE
  5
75
330
70
100
AcDbEntity
  8
Layer 1
 62
     7
420
 16777215
370
    70
100
AcDb2dPolyline
 66
     1
 10
0.0
 20
0.0
 30
0.0
  0
VERTEX
  5
76
330
75
100
AcDbEntity
  8
Layer 1
 62
     7
420
 16777215
370
    70
100
AcDbVertex
100
AcDb2dVertex
 10
15.54754130045573
 20
17.96079338921441
 30
0.0
  0
VERTEX
  5
77
330
75
100
AcDbEntity
  8
Layer 1
 62
     7
420
 16777215
370
    70
100
AcDbVertex
100
AcDb2dVertex
 10
15.54754130045573
 20
20.01766798231337
 30
0.0
  0
VERTEX
  5
78
330
75
100
AcDbEntity
  8
Layer 1
 62
     7
420
 16777215
370
    70
100
AcDbVertex
100
AcDb2dVertex
 10
14.57530551486545
 20
20.01766798231337
 30
0.0
  0
VERTEX
  5
79
330
75
100
AcDbEntity
  8
Layer 1
 62
     7
420
 16777215
370
    70
100
AcDbVertex
100
AcDb2dVertex
 10
14.57530551486545
 20
19.66766781277127
 30
0.0
  0
VERTEX
  5
7A
330
75
100
AcDbEntity
  8
Layer 1
 62
     7
420
 16777215
370
    70
100
AcDbVertex
100
AcDb2dVertex
 10
15.19754197862413
 20
19.66766781277127
 30
0.0
  0
VERTEX
  5
7B
330
75
100
AcDbEntity
  8
Layer 1
 62
     7
420
 16777215
370
    70
100
AcDbVertex
100
AcDb2dVertex
 10
15.19754197862413
 20
18.31080712212457
 30
0.0
  0
VERTEX
  5
7C
330
75
100
AcDbEntity
  8
Layer 1
 62
     7
420
 16777215
370
    70
100
AcDbVertex
100
AcDb2dVertex
 10
14.45609707302517
 20
18.31080712212457
 30
0.0
  0
VERTEX
  5
7D
330
75
100
AcDbEntity
  8
Layer 1
 62
     7
420
 16777215
370
    70
100
AcDbVertex
100
AcDb2dVertex
 10
14.45609707302517
 20
15.30841742621528
 30
0.0
  0
VERTEX
  5
7E
330
75
100
AcDbEntity
  8
Layer 1
 62
     7
420
 16777215
370
    70
100
AcDbVertex
100
AcDb2dVertex
 10
14.84876335991753
 20
15.30841742621528
 30
0.0
  0
VERTEX
  5
7F
330
75
100
AcDbEntity
  8
Layer 1
 62
     7
420
 16777215
370
    70
100
AcDbVertex
100
AcDb2dVertex
 10
16.69877794053819
 20
17.84677971733941
 30
0.0
  0
VERTEX
  5
80
330
75
100
AcDbEntity
  8
Layer 1
 62
     7
420
 16777215
370
    70
100
AcDbVertex
100
AcDb2dVertex
 10
16.69877794053819
 20
19.66766781277127
 30
0.0
  0
VERTEX
  5
81
330
75
100
AcDbEntity
  8
Layer 1
 62
     7
420
 16777215
370
    70
100
AcDbVertex
100
AcDb2dVertex
 10
16.97447204589844
 20
19.66766781277127
 30
0.0
  0
VERTEX
  5
82
330
75
100
AcDbEntity
  8
Layer 1
 62
     7
420
 16777215
370
    70
100
AcDbVertex
100
AcDb2dVertex
 10
16.97447204589844
 20
20.01766798231337
 30
0.0
  0
VERTEX
  5
83
330
75
100
AcDbEntity
  8
Layer 1
 62
     7
420
 16777215
370
    70
100
AcDbVertex
100
AcDb2dVertex
 10
16.34876335991753
 20
20.01766798231337
 30
0.0
  0
VERTEX
  5
84
330
75
100
AcDbEntity
  8
Layer 1
 62
     7
420
 16777215
370
    70
100
AcDbVertex
100
AcDb2dVertex
 10
16.34876335991753
 20
17.96079338921441
 30
0.0
  0
VERTEX
  5
85
330
75
100
AcDbEntity
  8
Layer 1
 62
     7
420
 16777215
370
    70
100
AcDbVertex
100
AcDb2dVertex
 10
14.80611165364583
 20
15.84411282009549
 30
0.0
  0
VERTEX
  5
86
330
75
100
AcDbEntity
  8
Layer 1
 62
     7
420
 16777215
370
    70
100
AcDbVertex
100
AcDb2dVertex
 10
14.80611165364583
 20
17.96079338921441
 30
0.0
  0
VERTEX
  5
87
330
75
100
AcDbEntity
  8
Layer 1
 62
     7
420
 16777215
370
    70
100
AcDbVertex
100
AcDb2dVertex
 10
15.54754130045573
 20
17.96079338921441
 30
0.0
  0
SEQEND
  5
88
330
75
100
AcDbEntity
  8
Layer 1
 62
     7
420
 16777215
370
    70
  0
ENDBLK
  5
73
330
70
100
AcDbEntity
  8
0
100
AcDbBlockEnd
  0
ENDSEC
  0
SECTION
  2
ENTITIES
  0
POLYLINE
  5
41
330
1F
100
AcDbEntity
  8
Layer 1
 62
     7
420
 16777215
370
    80
100
AcDb2dPolyline
 66
     1
 10
0.0
 20
0.0
 30
0.0
  0
VERTEX
  5
42
330
41
100
AcDbEntity
  8
Layer 1
 62
     7
420
 16777215
370
    80
100
AcDbVertex
100
AcDb2dVertex
 10
11.18761105007595
 20
22.98995971679688
 30
0.0
  0
VERTEX
  5
43
330
41
100
AcDbEntity
  8
Layer 1
 62
     7
420
 16777215
370
    80
100
AcDbVertex
100
AcDb2dVertex
 10
11.18761105007595
 20
21.23290422227647
 30
0.0
  0
VERTEX
  5
44
330
41
100
AcDbEntity
  8
Layer 1
 62
     7
420
 16777215
370
    80
100
AcDbVertex
100
AcDb2dVertex
 10
21.30740356445312
 20
21.23290422227647
 30
0.0
  0
VERTEX
  5
45
330
41
100
AcDbEntity
  8
Layer 1
 62
     7
420
 16777215
370
    80
100
AcDbVertex
100
AcDb2dVertex
 10
21.30740356445312
 20
22.98995971679688
 30
0.0
  0
VERTEX
  5
46
330
41
100
AcDbEntity
  8
Layer 1
 62
     7
420
 16777215
370
    80
100
AcDbVertex
100
AcDb2dVertex
 10
11.18761105007595
 20
22.98995971679688
 30
0.0
  0
SEQEND
  5
47
330
41
100
AcDbEntity
  8
Layer 1
 62
     7
420
 16777215
370
    80
  0
POLYLINE
  5
48
330
1F
100
AcDbEntity
  8
Layer 1
 62
     7
420
 16777215
370
    80
100
AcDb2dPolyline
 66
     1
 10
0.0
 20
0.0
 30
0.0
  0
VERTEX
  5
49
330
48
100
AcDbEntity
  8
Layer 1
 62
     7
420
 16777215
370
    80
100
AcDbVertex
100
AcDb2dVertex
 10
19.54530504014757
 20
22.4125985039605
 30
0.0
  0
VERTEX
  5
4A
330
48
100
AcDbEntity
  8
Layer 1
 62
     7
420
 16777215
370
    80
100
AcDbVertex
100
AcDb2dVertex
 10
14.42937554253472
 20
22.4125985039605
 30
0.0
  0
VERTEX
  5
4B
330
48
100
AcDbEntity
  8
Layer 1
 62
     7
420
 16777215
370
    80
100
AcDbVertex
100
AcDb2dVertex
 10
14.42937554253472
 20
22.62259843614366
 30
0.0
  0
VERTEX
  5
4C
330
48
100
AcDbEntity
  8
Layer 1
 62
     7
420
 16777215
370
    80
100
AcDbVertex
100
AcDb2dVertex
 10
19.54530504014757
 20
22.62259843614366
 30
0.0
  0
VERTEX
  5
4D
330
48
100
AcDbEntity
  8
Layer 1
 62
     7
420
 16777215
370
    80
100
AcDbVertex
100
AcDb2dVertex
 10
19.54530504014757
 20
22.4125985039605
 30
0.0
  0
VERTEX
  5
4E
330
48
100
AcDbEntity
  8
Layer 1
 62
     7
420
 16777215
370
    80
100
AcDbVertex
100
AcDb2dVertex
 10
19.54530504014757
 20
22.4125985039605
 30
0.0
  0
SEQEND
  5
4F
330
48
100
AcDbEntity
  8
Layer 1
 62
     7
420
 16777215
370
    80
  0
INSERT
  5
51
330
1F
100
AcDbEntity
  8
Layer 1
100
AcDbBlockReference
  2
block 2
 10
0.0
 20
0.0
 30
0.0
  0
SPLINE
  5
55
330
1F
100
AcDbEntity
  8
Layer 1
 62
     7
420
 16777215
370
    70
100
AcDbSpline
210
0.0
220
0.0
230
1.0
 70
    11
 71
     3
 72
   107
 73
   103
 74
     0
 42
0.0000000001
 43
0.0000000001
 12
1.0
 22
0.0
 32
0.0
 13
1.0
 23
0.0
 33
0.0
 40
0.0
 40
0.0
 40
0.0
 40
0.0
 40
1.0
 40
1.0
 40
1.0
 40
2.0
 40
2.0
 40
2.0
 40
3.0
 40
3.0
 40
3.0
 40
4.0
 40
4.0
 40
4.0
 40
5.0
 40
5.0
 40
5.0
 40
6.0
 40
6.0
 40
6.0
 40
7.0
 40
7.0
 40
7.0
 40
8.0
 40
8.0
 40
8.0
 40
9.0
 40
9.0
 40
9.0
 40
10.0
 40
10.0
 40
10.0
 40
11.0
 40
11.0
 40
11.0
 40
12.0
 40
12.0
 40
12.0
 40
13.0
 40
13.0
 40
13.0
 40
14.0
 40
14.0
 40
14.0
 40
15.0
 40
15.0
 40
15.0
 40
16.0
 40
16.0
 40
16.0
 40
17.0
 40
17.0
 40
17.0
 40
18.0
 40
18.0
 40
18.0
 40
19.0
 40
19.0
 40
19.0
 40
20.0
 40
20.0
 40
20.0
 40
21.0
 40
21.0
 40
21.0
 40
22.0
 40
22.0
 40
22.0
 40
23.0
 40
23.0
 40
23.0
 40
24.0
 40
24.0
 40
24.0
 40
25.0
 40
25.0
 40
25.0
 40
26.0
 40
26.0
 40
26.0
 40
27.0
 40
27.0
 40
27.0
 40
28.0
 40
28.0
 40
28.0
 40
29.0
 40
29.0
 40
29.0
 40
30.0
 40
30.0
 40
30.0
 40
31.0
 40
31.0
 40
31.0
 40
32.0
 40
32.0
 40
32.0
 40
33.0
 40
33.0
 40
33.0
 40
34.0
 40
34.0
 40
34.0
 40
34.0
 10
10.1289308336046
 20
2.979153103298611
 30
0.0
 10
10.00934770372179
 20
2.979153103298611
 30
0.0
 10
9.915541754828558
 20
3.024929470486111
 30
0.0
 10
9.84790293375651
 20
3.116665310329861
 30
0.0
 10
9.780083550347221
 20
3.208221435546875
 30
0.0
 10
9.746264139811197
 20
3.313985188802083
 30
0.0
 10
9.746264139811197
 20
3.433566623263889
 30
0.0
 10
9.746264139811197
 20
3.433566623263889
 30
0.0
 10
9.746264139811197
 20
4.378289116753472
 30
0.0
 10
9.746264139811197
 20
4.378289116753472
 30
0.0
 10
9.746264139811197
 20
4.912316216362847
 30
0.0
 10
9.566875033908419
 20
5.287150065104166
 30
0.0
 10
9.208125644259981
 20
5.502414279513888
 30
0.0
 10
8.849361843532986
 20
5.717664930555555
 30
0.0
 10
8.354959275987413
 20
5.825288560655381
 30
0.0
 10
7.725264655219184
 20
5.825288560655381
 30
0.0
 10
7.725264655219184
 20
5.825288560655381
 30
0.0
 10
7.725264655219184
 20
5.90899658203125
 30
0.0
 10
7.725264655219184
 20
5.90899658203125
 30
0.0
 10
7.725264655219184
 20
5.90899658203125
 30
0.0
 10
9.578848097059462
 20
8.157218085394964
 30
0.0
 10
9.578848097059462
 20
8.157218085394964
 30
0.0
 10
9.578848097059462
 20
8.157218085394964
 30
0.0
 10
10.38007015652127
 20
8.157218085394964
 30
0.0
 10
10.38007015652127
 20
8.157218085394964
 30
0.0
 10
10.38007015652127
 20
8.157218085394964
 30
0.0
 10
10.38007015652127
 20
10.21409267849392
 30
0.0
 10
10.38007015652127
 20
10.21409267849392
 30
0.0
 10
10.38007015652127
 20
10.21409267849392
 30
0.0
 10
6.7446534898546
 20
10.21409267849392
 30
0.0
 10
6.7446534898546
 20
10.21409267849392
 30
0.0
 10
6.7446534898546
 20
10.21409267849392
 30
0.0
 10
6.7446534898546
 20
8.157218085394964
 30
0.0
 10
6.7446534898546
 20
8.157218085394964
 30
0.0
 10
6.7446534898546
 20
8.157218085394964
 30
0.0
 10
5.201986948649088
 20
6.040537516276041
 30
0.0
 10
5.201986948649088
 20
6.040537516276041
 30
0.0
 10
5.201986948649088
 20
6.040537516276041
 30
0.0
 10
5.201986948649088
 20
8.157223171657986
 30
0.0
 10
5.201986948649088
 20
8.157223171657986
 30
0.0
 10
5.201986948649088
 20
8.157223171657986
 30
0.0
 10
5.943417443169488
 20
8.157223171657986
 30
0.0
 10
5.943417443169488
 20
8.157223171657986
 30
0.0
 10
5.943417443169488
 20
8.157223171657986
 30
0.0
 10
5.943417443169488
 20
10.21409776475694
 30
0.0
 10
5.943417443169488
 20
10.21409776475694
 30
0.0
 10
5.943417443169488
 20
10.21409776475694
 30
0.0
 10
1.279555532667372
 20
10.21409776475694
 30
0.0
 10
1.279555532667372
 20
10.21409776475694
 30
0.0
 10
1.279555532667372
 20
10.21409776475694
 30
0.0
 10
1.279555532667372
 20
8.157223171657986
 30
0.0
 10
1.279555532667372
 20
8.157223171657986
 30
0.0
 10
1.279555532667372
 20
8.157223171657986
 30
0.0
 10
2.212333255343967
 20
8.157223171657986
 30
0.0
 10
2.212333255343967
 20
8.157223171657986
 30
0.0
 10
2.212333255343967
 20
8.157223171657986
 30
0.0
 10
2.212333255343967
 20
2.979153103298611
 30
0.0
 10
2.212333255343967
 20
2.979153103298611
 30
0.0
 10
2.212333255343967
 20
2.979153103298611
 30
0.0
 10
1.279555426703559
 20
2.979153103298611
 30
0.0
 10
1.279555426703559
 20
2.979153103298611
 30
0.0
 10
1.279555426703559
 20
2.979153103298611
 30
0.0
 10
1.279555426703559
 20
0.9222649468315972
 30
0.0
 10
1.279555426703559
 20
0.9222649468315972
 30
0.0
 10
1.279555426703559
 20
0.9222649468315972
 30
0.0
 10
6.134749942355685
 20
0.9222649468315972
 30
0.0
 10
6.134749942355685
 20
0.9222649468315972
 30
0.0
 10
6.134749942355685
 20
0.9222649468315972
 30
0.0
 10
6.134749942355685
 20
2.979153103298611
 30
0.0
 10
6.134749942355685
 20
2.979153103298611
 30
0.0
 10
6.134749942355685
 20
2.979153103298611
 30
0.0
 10
5.201972113715278
 20
2.979153103298611
 30
0.0
 10
5.201972113715278
 20
2.979153103298611
 30
0.0
 10
5.201972113715278
 20
2.979153103298611
 30
0.0
 10
5.201972113715278
 20
4.605514526367188
 30
0.0
 10
5.201972113715278
 20
4.605514526367188
 30
0.0
 10
5.201972113715278
 20
4.605514526367188
 30
0.0
 10
6.051027509901258
 20
4.605514526367188
 30
0.0
 10
6.051027509901258
 20
4.605514526367188
 30
0.0
 10
6.226305219862196
 20
4.605514526367188
 30
0.0
 10
6.377833048502604
 20
4.50984870062934
 30
0.0
 10
6.505457984076606
 20
4.318515353732638
 30
0.0
 10
6.63288837009006
 20
4.127182006835938
 30
0.0
 10
6.696791330973307
 20
3.93172370062934
 30
0.0
 10
6.696791330973307
 20
3.732557508680555
 30
0.0
 10
6.696791330973307
 20
3.732557508680555
 30
0.0
 10
6.696791330973307
 20
2.716057671440972
 30
0.0
 10
6.696791330973307
 20
2.716057671440972
 30
0.0
 10
6.696791330973307
 20
1.520195855034722
 30
0.0
 10
7.35040283203125
 20
0.9222785101996527
 30
0.0
 10
8.657999674479166
 20
0.9222785101996527
 30
0.0
 10
8.657999674479166
 20
0.9222785101996527
 30
0.0
 10
10.79861111111111
 20
0.9222785101996527
 30
0.0
 10
10.79861111111111
 20
0.9222785101996527
 30
0.0
 10
10.79861111111111
 20
0.9222785101996527
 30
0.0
 10
10.79861111111111
 20
2.979166666666667
 30
0.0
 10
10.79861111111111
 20
2.979166666666667
 30
0.0
 10
10.79861111111111
 20
2.979166666666667
 30
0.0
 10
10.1289308336046
 20
2.979153103298611
 30
0.0
 10
10.1289308336046
 20
2.979153103298611
 30
0.0
 10
10.1289308336046
 20
2.979153103298611
 30
0.0
 10
10.1289308336046
 20
2.979153103298611
 30
0.0
 10
10.1289308336046
 20
2.979153103298611
 30
0.0
  0
SPLINE
  5
56
330
1F
100
AcDbEntity
  8
Layer 1
 62
     7
420
 16777215
370
    70
100
AcDbSpline
210
0.0
220
0.0
230
1.0
 70
    11
 71
     3
 72
   119
 73
   115
 74
     0
 42
0.0000000001
 43
0.0000000001
 12
1.0
 22
0.0
 32
0.0
 13
1.0
 23
0.0
 33
0.0
 40
0.0
 40
0.0
 40
0.0
 40
0.0
 40
1.0
 40
1.0
 40
1.0
 40
2.0
 40
2.0
 40
2.0
 40
3.0
 40
3.0
 40
3.0
 40
4.0
 40
4.0
 40
4.0
 40
5.0
 40
5.0
 40
5.0
 40
6.0
 40
6.0
 40
6.0
 40
7.0
 40
7.0
 40
7.0
 40
8.0
 40
8.0
 40
8.0
 40
9.0
 40
9.0
 40
9.0
 40
10.0
 40
10.0
 40
10.0
 40
11.0
 40
11.0
 40
11.0
 40
12.0
 40
12.0
 40
12.0
 40
13.0
 40
13.0
 40
13.0
 40
14.0
 40
14.0
 40
14.0
 40
15.0
 40
15.0
 40
15.0
 40
16.0
 40
16.0
 40
16.0
 40
17.0
 40
17.0
 40
17.0
 40
18.0
 40
18.0
 40
18.0
 40
19.0
 40
19.0
 40
19.0
 40
20.0
 40
20.0
 40
20.0
 40
21.0
 40
21.0
 40
21.0
 40
22.0
 40
22.0
 40
22.0
 40
23.0
 40
23.0
 40
23.0
 40
24.0
 40
24.0
 40
24.0
 40
25.0
 40
25.0
 40
25.0
 40
26.0
 40
26.0
 40
26.0
 40
27.0
 40
27.0
 40
27.0
 40
28.0
 40
28.0
 40
28.0
 40
29.0
 40
29.0
 40
29.0
 40
30.0
 40
30.0
 40
30.0
 40
31.0
 40
31.0
 40
31.0
 40
32.0
 40
32.0
 40
32.0
 40
33.0
 40
33.0
 40
33.0
 40
34.0
 40
34.0
 40
34.0
 40
35.0
 40
35.0
 40
35.0
 40
36.0
 40
36.0
 40
36.0
 40
37.0
 40
37.0
 40
37.0
 40
38.0
 40
38.0
 40
38.0
 40
38.0
 10
10.44859737820095
 20
1.27227783203125
 30
0.0
 10
10.44859737820095
 20
1.27227783203125
 30
0.0
 10
8.658014085557726
 20
1.27227783203125
 30
0.0
 10
8.658014085557726
 20
1.27227783203125
 30
0.0
 10
8.097486707899305
 20
1.27227783203125
 30
0.0
 10
7.682056003146701
 20
1.392293294270833
 30
0.0
 10
7.423291524251302
 20
1.628987630208333
 30
0.0
 10
7.169958326551649
 20
1.860710991753472
 30
0.0
 10
7.046819474962022
 20
2.21629163953993
 30
0.0
 10
7.046819474962022
 20
2.716071234809028
 30
0.0
 10
7.046819474962022
 20
2.716071234809028
 30
0.0
 10
7.046819474962022
 20
3.732571072048611
 30
0.0
 10
7.046819474962022
 20
3.732571072048611
 30
0.0
 10
7.046819474962022
 20
4.00101555718316
 30
0.0
 10
6.962694380018446
 20
4.263446384006076
 30
0.0
 10
6.796777937147352
 20
4.512542724609375
 30
0.0
 10
6.552555508083767
 20
4.878709581163194
 30
0.0
 10
6.256458706325954
 20
4.955542670355903
 30
0.0
 10
6.051055908203125
 20
4.955542670355903
 30
0.0
 10
6.051055908203125
 20
4.955542670355903
 30
0.0
 10
4.851986355251736
 20
4.955542670355903
 30
0.0
 10
4.851986355251736
 20
4.955542670355903
 30
0.0
 10
4.851986355251736
 20
4.955542670355903
 30
0.0
 10
4.851986355251736
 20
2.629180908203125
 30
0.0
 10
4.851986355251736
 20
2.629180908203125
 30
0.0
 10
4.851986355251736
 20
2.629180908203125
 30
0.0
 10
5.784764183892144
 20
2.629180908203125
 30
0.0
 10
5.784764183892144
 20
2.629180908203125
 30
0.0
 10
5.784764183892144
 20
2.629180908203125
 30
0.0
 10
5.784764183892144
 20
1.272304958767361
 30
0.0
 10
5.784764183892144
 20
1.272304958767361
 30
0.0
 10
5.784764183892144
 20
1.272304958767361
 30
0.0
 10
1.629569477505154
 20
1.272304958767361
 30
0.0
 10
1.629569477505154
 20
1.272304958767361
 30
0.0
 10
1.629569477505154
 20
1.272304958767361
 30
0.0
 10
1.629569477505154
 20
2.629180908203125
 30
0.0
 10
1.629569477505154
 20
2.629180908203125
 30
0.0
 10
1.629569477505154
 20
2.629180908203125
 30
0.0
 10
2.562347412109375
 20
2.629180908203125
 30
0.0
 10
2.562347412109375
 20
2.629180908203125
 30
0.0
 10
2.562347412109375
 20
2.629180908203125
 30
0.0
 10
2.562347412109375
 20
8.50726318359375
 30
0.0
 10
2.562347412109375
 20
8.50726318359375
 30
0.0
 10
2.562347412109375
 20
8.50726318359375
 30
0.0
 10
1.629569583468967
 20
8.50726318359375
 30
0.0
 10
1.629569583468967
 20
8.50726318359375
 30
0.0
 10
1.629569583468967
 20
8.50726318359375
 30
0.0
 10
1.629569583468967
 20
9.86412387424045
 30
0.0
 10
1.629569583468967
 20
9.86412387424045
 30
0.0
 10
1.629569583468967
 20
9.86412387424045
 30
0.0
 10
5.593416849772135
 20
9.86412387424045
 30
0.0
 10
5.593416849772135
 20
9.86412387424045
 30
0.0
 10
5.593416849772135
 20
9.86412387424045
 30
0.0
 10
5.593416849772135
 20
8.50726318359375
 30
0.0
 10
5.593416849772135
 20
8.50726318359375
 30
0.0
 10
5.593416849772135
 20
8.50726318359375
 30
0.0
 10
4.851986355251736
 20
8.50726318359375
 30
0.0
 10
4.851986355251736
 20
8.50726318359375
 30
0.0
 10
4.851986355251736
 20
8.50726318359375
 30
0.0
 10
4.851986355251736
 20
5.504874335394965
 30
0.0
 10
4.851986355251736
 20
5.504874335394965
 30
0.0
 10
4.851986355251736
 20
5.504874335394965
 30
0.0
 10
5.244653065999349
 20
5.504874335394965
 30
0.0
 10
5.244653065999349
 20
5.504874335394965
 30
0.0
 10
5.244653065999349
 20
5.504874335394965
 30
0.0
 10
7.094652811686197
 20
8.043250189887152
 30
0.0
 10
7.094652811686197
 20
8.043250189887152
 30
0.0
 10
7.094652811686197
 20
8.043250189887152
 30
0.0
 10
7.094652811686197
 20
9.864139133029513
 30
0.0
 10
7.094652811686197
 20
9.864139133029513
 30
0.0
 10
7.094652811686197
 20
9.864139133029513
 30
0.0
 10
10.03005557590061
 20
9.864139133029513
 30
0.0
 10
10.03005557590061
 20
9.864139133029513
 30
0.0
 10
10.03005557590061
 20
9.864139133029513
 30
0.0
 10
10.03005557590061
 20
8.507278442382812
 30
0.0
 10
10.03005557590061
 20
8.507278442382812
 30
0.0
 10
10.03005557590061
 20
8.507278442382812
 30
0.0
 10
9.413777669270832
 20
8.507278442382812
 30
0.0
 10
9.413777669270832
 20
8.507278442382812
 30
0.0
 10
9.413777669270832
 20
8.507278442382812
 30
0.0
 10
7.375250074598524
 20
6.034737481011285
 30
0.0
 10
7.375250074598524
 20
6.034737481011285
 30
0.0
 10
7.375250074598524
 20
6.034737481011285
 30
0.0
 10
7.375250074598524
 20
5.475348578559028
 30
0.0
 10
7.375250074598524
 20
5.475348578559028
 30
0.0
 10
7.375250074598524
 20
5.475348578559028
 30
0.0
 10
7.725250244140625
 20
5.475348578559028
 30
0.0
 10
7.725250244140625
 20
5.475348578559028
 30
0.0
 10
8.287791781955296
 20
5.475348578559028
 30
0.0
 10
8.726111518012152
 20
5.383500840928819
 30
0.0
 10
9.02804226345486
 20
5.202348497178819
 30
0.0
 10
9.148389180501301
 20
5.130154079861111
 30
0.0
 10
9.236056009928385
 20
5.03414069281684
 30
0.0
 10
9.296028137207031
 20
4.908833821614583
 30
0.0
 10
9.362542046440971
 20
4.769888983832465
 30
0.0
 10
9.396250406901041
 20
4.591417100694444
 30
0.0
 10
9.396250406901041
 20
4.378362019856771
 30
0.0
 10
9.396250406901041
 20
4.378362019856771
 30
0.0
 10
9.396250406901041
 20
3.433641221788194
 30
0.0
 10
9.396250406901041
 20
3.433641221788194
 30
0.0
 10
9.396250406901041
 20
3.237752278645833
 30
0.0
 10
9.453583611382378
 20
3.061031765407986
 30
0.0
 10
9.56666734483507
 20
2.908389621310764
 30
0.0
 10
9.699222988552517
 20
2.728597005208333
 30
0.0
 10
9.899084303114149
 20
2.629208034939236
 30
0.0
 10
10.1289316813151
 20
2.629208034939236
 30
0.0
 10
10.1289316813151
 20
2.629208034939236
 30
0.0
 10
10.44861094156901
 20
2.629208034939236
 30
0.0
 10
10.44861094156901
 20
2.629208034939236
 30
0.0
 10
10.44861094156901
 20
2.629208034939236
 30
0.0
 10
10.44861094156901
 20
1.27227783203125
 30
0.0
 10
10.44861094156901
 20
1.27227783203125
 30
0.0
 10
10.44861094156901
 20
1.27227783203125
 30
0.0
 10
10.44859737820095
 20
1.27227783203125
 30
0.0
 10
10.44859737820095
 20
1.27227783203125
 30
0.0
  0
INSERT
  5
58
330
1F
100
AcDbEntity
  8
Layer 1
100
AcDbBlockReference
  2
block 3
 10
0.0
 20
0.0
 30
0.0
  0
INSERT
  5
71
330
1F
100
AcDbEntity
  8
Layer 1
100
AcDbBlockReference
  2
block 4
 10
0.0
 20
0.0
 30
0.0
  0
SPLINE
  5
89
330
1F
100
AcDbEntity
  8
Layer 1
 62
     7
420
 16777215
370
    70
100
AcDbSpline
210
0.0
220
0.0
230
1.0
 70
    11
 71
     3
 72
    89
 73
    85
 74
     0
 42
0.0000000001
 43
0.0000000001
 12
1.0
 22
0.0
 32
0.0
 13
1.0
 23
0.0
 33
0.0
 40
0.0
 40
0.0
 40
0.0
 40
0.0
 40
1.0
 40
1.0
 40
1.0
 40
2.0
 40
2.0
 40
2.0
 40
3.0
 40
3.0
 40
3.0
 40
4.0
 40
4.0
 40
4.0
 40
5.0
 40
5.0
 40
5.0
 40
6.0
 40
6.0
 40
6.0
 40
7.0
 40
7.0
 40
7.0
 40
8.0
 40
8.0
 40
8.0
 40
9.0
 40
9.0
 40
9.0
 40
10.0
 40
10.0
 40
10.0
 40
11.0
 40
11.0
 40
11.0
 40
12.0
 40
12.0
 40
12.0
 40
13.0
 40
13.0
 40
13.0
 40
14.0
 40
14.0
 40
14.0
 40
15.0
 40
15.0
 40
15.0
 40
16.0
 40
16.0
 40
16.0
 40
17.0
 40
17.0
 40
17.0
 40
18.0
 40
18.0
 40
18.0
 40
19.0
 40
19.0
 40
19.0
 40
20.0
 40
20.0
 40
20.0
 40
21.0
 40
21.0
 40
21.0
 40
22.0
 40
22.0
 40
22.0
 40
23.0
 40
23.0
 40
23.0
 40
24.0
 40
24.0
 40
24.0
 40
25.0
 40
25.0
 40
25.0
 40
26.0
 40
26.0
 40
26.0
 40
27.0
 40
27.0
 40
27.0
 40
28.0
 40
28.0
 40
28.0
 40
28.0
 10
10.2993893093533
 20
22.8316404554579
 30
0.0
 10
10.17980617947049
 20
22.8316404554579
 30
0.0
 10
10.08600023057726
 20
22.87741851806641
 30
0.0
 10
10.01836140950521
 20
22.96915435791016
 30
0.0
 10
9.950542026095919
 20
23.06070963541666
 30
0.0
 10
9.916722615559895
 20
23.16647338867188
 30
0.0
 10
9.916722615559895
 20
23.28605736626519
 30
0.0
 10
9.916722615559895
 20
23.28605736626519
 30
0.0
 10
9.916722615559895
 20
24.23077985975477
 30
0.0
 10
9.916722615559895
 20
24.23077985975477
 30
0.0
 10
9.916722615559895
 20
24.76480780707465
 30
0.0
 10
9.737333509657118
 20
25.13964080810547
 30
0.0
 10
9.37858412000868
 20
25.35490502251519
 30
0.0
 10
9.019820319281683
 20
25.57015482584635
 30
0.0
 10
8.52541775173611
 20
25.67778015136719
 30
0.0
 10
7.895723130967881
 20
25.67778015136719
 30
0.0
 10
7.895723130967881
 20
25.67778015136719
 30
0.0
 10
7.895723130967881
 20
25.7614885965983
 30
0.0
 10
7.895723130967881
 20
25.7614885965983
 30
0.0
 10
7.895723130967881
 20
25.7614885965983
 30
0.0
 10
9.749305725097656
 20
28.00970967610677
 30
0.0
 10
9.749305725097656
 20
28.00970967610677
 30
0.0
 10
9.749305725097656
 20
28.00970967610677
 30
0.0
 10
10.55052778455946
 20
28.00970967610677
 30
0.0
 10
10.55052778455946
 20
28.00970967610677
 30
0.0
 10
10.55052778455946
 20
28.00970967610677
 30
0.0
 10
10.55052778455946
 20
30.06658490498861
 30
0.0
 10
10.55052778455946
 20
30.06658490498861
 30
0.0
 10
10.55052778455946
 20
30.06658490498861
 30
0.0
 10
6.915111117892795
 20
30.06658490498861
 30
0.0
 10
6.915111117892795
 20
30.06658490498861
 30
0.0
 10
6.915111117892795
 20
30.06658490498861
 30
0.0
 10
6.915111117892795
 20
28.00970967610677
 30
0.0
 10
6.915111117892795
 20
28.00970967610677
 30
0.0
 10
6.915111117892795
 20
28.00970967610677
 30
0.0
 10
5.372444576687283
 20
25.89302910698785
 30
0.0
 10
5.372444576687283
 20
25.89302910698785
 30
0.0
 10
5.372444576687283
 20
25.89302910698785
 30
0.0
 10
5.372444576687283
 20
28.00970967610677
 30
0.0
 10
5.372444576687283
 20
28.00970967610677
 30
0.0
 10
5.372444576687283
 20
28.00970967610677
 30
0.0
 10
6.113875071207682
 20
28.00970967610677
 30
0.0
 10
6.113875071207682
 20
28.00970967610677
 30
0.0
 10
6.113875071207682
 20
28.00970967610677
 30
0.0
 10
6.113875071207682
 20
30.06658490498861
 30
0.0
 10
6.113875071207682
 20
30.06658490498861
 30
0.0
 10
6.113875071207682
 20
30.06658490498861
 30
0.0
 10
1.450027783711751
 20
30.06658490498861
 30
0.0
 10
1.450027783711751
 20
30.06658490498861
 30
0.0
 10
1.450027783711751
 20
30.06658490498861
 30
0.0
 10
1.450027783711751
 20
28.00970967610677
 30
0.0
 10
1.450027783711751
 20
28.00970967610677
 30
0.0
 10
1.450027783711751
 20
28.00970967610677
 30
0.0
 10
2.382805718315972
 20
28.00970967610677
 30
0.0
 10
2.382805718315972
 20
28.00970967610677
 30
0.0
 10
2.382805718315972
 20
28.00970967610677
 30
0.0
 10
2.382805718315972
 20
22.83163960774739
 30
0.0
 10
2.382805718315972
 20
22.83163960774739
 30
0.0
 10
2.382805718315972
 20
22.83163960774739
 30
0.0
 10
1.450027889675564
 20
22.83163960774739
 30
0.0
 10
1.450027889675564
 20
22.83163960774739
 30
0.0
 10
1.450027889675564
 20
22.83163960774739
 30
0.0
 10
1.450027889675564
 20
20.77475060356988
 30
0.0
 10
1.450027889675564
 20
20.77475060356988
 30
0.0
 10
1.450027889675564
 20
20.77475060356988
 30
0.0
 10
4.416597154405382
 20
20.77475060356988
 30
0.0
 10
4.416597154405382
 20
20.77475060356988
 30
0.0
 10
4.416597154405382
 20
20.77475060356988
 30
0.0
 10
4.416597154405382
 20
20.56109788682726
 30
0.0
 10
4.416597154405382
 20
20.56109788682726
 30
0.0
 10
4.416597154405382
 20
20.56109788682726
 30
0.0
 10
9.518597073025173
 20
20.56109788682726
 30
0.0
 10
9.518597073025173
 20
20.56109788682726
 30
0.0
 10
9.518597073025173
 20
20.56109788682726
 30
0.0
 10
9.518597073025173
 20
20.77475060356988
 30
0.0
 10
9.518597073025173
 20
20.77475060356988
 30
0.0
 10
9.518597073025173
 20
20.77475060356988
 30
0.0
 10
10.96906958685981
 20
20.77475060356988
 30
0.0
 10
10.96906958685981
 20
20.77475060356988
 30
0.0
 10
10.96906958685981
 20
20.77475060356988
 30
0.0
 10
10.96906958685981
 20
22.8316404554579
 30
0.0
 10
10.96906958685981
 20
22.8316404554579
 30
0.0
 10
10.96906958685981
 20
22.8316404554579
 30
0.0
 10
10.2993893093533
 20
22.8316404554579
 30
0.0
 10
10.2993893093533
 20
22.8316404554579
 30
0.0
  0
SPLINE
  5
8A
330
1F
100
AcDbEntity
  8
Layer 1
 62
     7
420
 16777215
370
    70
100
AcDbSpline
210
0.0
220
0.0
230
1.0
 70
    11
 71
     3
 72
    35
 73
    31
 74
     0
 42
0.0000000001
 43
0.0000000001
 12
1.0
 22
0.0
 32
0.0
 13
1.0
 23
0.0
 33
0.0
 40
0.0
 40
0.0
 40
0.0
 40
0.0
 40
1.0
 40
1.0
 40
1.0
 40
2.0
 40
2.0
 40
2.0
 40
3.0
 40
3.0
 40
3.0
 40
4.0
 40
4.0
 40
4.0
 40
5.0
 40
5.0
 40
5.0
 40
6.0
 40
6.0
 40
6.0
 40
7.0
 40
7.0
 40
7.0
 40
8.0
 40
8.0
 40
8.0
 40
9.0
 40
9.0
 40
9.0
 40
10.0
 40
10.0
 40
10.0
 40
10.0
 10
6.305208418104383
 20
20.77475145128038
 30
0.0
 10
6.305208418104383
 20
20.77475145128038
 30
0.0
 10
6.305208418104383
 20
22.8316404554579
 30
0.0
 10
6.305208418104383
 20
22.8316404554579
 30
0.0
 10
6.305208418104383
 20
22.8316404554579
 30
0.0
 10
5.372430589463975
 20
22.8316404554579
 30
0.0
 10
5.372430589463975
 20
22.8316404554579
 30
0.0
 10
5.372430589463975
 20
22.8316404554579
 30
0.0
 10
5.372430589463975
 20
24.45800187852647
 30
0.0
 10
5.372430589463975
 20
24.45800187852647
 30
0.0
 10
5.372430589463975
 20
24.45800187852647
 30
0.0
 10
6.221485985649957
 20
24.45800187852647
 30
0.0
 10
6.221485985649957
 20
24.45800187852647
 30
0.0
 10
6.396763695610893
 20
24.45800187852647
 30
0.0
 10
6.548291524251302
 20
24.36233520507812
 30
0.0
 10
6.675916459825303
 20
24.17100185818142
 30
0.0
 10
6.803346845838758
 20
23.97966851128472
 30
0.0
 10
6.867249806722005
 20
23.78421020507812
 30
0.0
 10
6.867249806722005
 20
23.58504316541883
 30
0.0
 10
6.867249806722005
 20
23.58504316541883
 30
0.0
 10
6.867249806722005
 20
22.56854332817925
 30
0.0
 10
6.867249806722005
 20
22.56854332817925
 30
0.0
 10
6.867249806722005
 20
21.37268235948351
 30
0.0
 10
7.520861307779947
 20
20.77476586235894
 30
0.0
 10
8.828458150227863
 20
20.77476586235894
 30
0.0
 10
8.828458150227863
 20
20.77476586235894
 30
0.0
 10
6.305208418104383
 20
20.77476586235894
 30
0.0
 10
6.305208418104383
 20
20.77476586235894
 30
0.0
 10
6.305208418104383
 20
20.77476586235894
 30
0.0
 10
6.305208418104383
 20
20.77475145128038
 30
0.0
 10
6.305208418104383
 20
20.77475145128038
 30
0.0
  0
ENDSEC
  0
SECTION
  2
OBJECTS
  0
DICTIONARY
  5
C
330
0
100
AcDbDictionary
281
     1
  3
ACAD_GROUP
350
D
  3
ACAD_LAYOUT
350
1A
  3
ACAD_MATERIAL
350
3B
  3
ACAD_MLEADERSTYLE
350
8C
  3
ACAD_MLINESTYLE
350
17
  3
ACAD_PLOTSETTINGS
350
19
  3
ACAD_PLOTSTYLENAME
350
E
  3
ACAD_TABLESTYLE
350
8B
  3
ACAD_VISUALSTYLE
350
2A
  0
SUN
  5
3F
330
29
100
AcDbSun
 90
        1
290
     0
 63
     7
421
 16777215
 40
1.0
291
     1
 91
  2455826
 92
 54000000
292
     0
 70
     2
 71
   256
280
     1
  0
DICTIONARY
  5
D
102
{ACAD_REACTORS
330
C
102
}
330
C
100
AcDbDictionary
281
     1
  0
DICTIONARY
  5
1A
102
{ACAD_REACTORS
330
C
102
}
330
C
100
AcDbDictionary
281
     1
  3
Layout1
350
1E
  3
Layout2
350
26
  3
Model
350
22
  0
DICTIONARY
  5
3B
102
{ACAD_REACTORS
330
C
102
}
330
C
100
AcDbDictionary
281
     1
  3
ByBlock
350
3D
  3
ByLayer
350
3C
  3
Global
350
3E
  0
DICTIONARY
  5
8C
102
{ACAD_REACTORS
330
C
102
}
330
C
100
AcDbDictionary
281
     1
  0
DICTIONARY
  5
17
102
{ACAD_REACTORS
330
C
102
}
330
C
100
AcDbDictionary
281
     1
  3
Standard
350
18
  0
DICTIONARY
  5
19
102
{ACAD_REACTORS
330
C
102
}
330
C
100
AcDbDictionary
281
     1
  0
ACDBDICTIONARYWDFLT
  5
E
102
{ACAD_REACTORS
330
C
102
}
330
C
100
AcDbDictionary
281
     1
  3
Normal
350
F
100
AcDbDictionaryWithDefault
340
F
  0
DICTIONARY
  5
8B
102
{ACAD_REACTORS
330
C
102
}
330
C
100
AcDbDictionary
281
     1
  0
DICTIONARY
  5
2A
102
{ACAD_REACTORS
330
C
102
}
330
C
100
AcDbDictionary
281
     1
  3
2dWireframe
350
2F
  3
3D Hidden
350
31
  3
3dWireframe
350
30
  3
Basic
350
32
  3
Brighten
350
36
  3
ColorChange
350
3A
  3
Conceptual
350
34
  3
Dim
350
35
  3
Facepattern
350
39
  3
Flat
350
2B
  3
FlatWithEdges
350
2C
  3
Gouraud
350
2D
  3
GouraudWithEdges
350
2E
  3
Linepattern
350
38
  3
Realistic
350
33
  3
Thicken
350
37
  0
LAYOUT
  5
1E
102
{ACAD_REACTORS
330
1A
102
}
330
1A
100
AcDbPlotSettings
  1

  2
none_device
  4

  6

 40
0.0
 41
0.0
 42
0.0
 43
0.0
 44
0.0
 45
0.0
 46
0.0
 47
0.0
 48
0.0
 49
0.0
140
0.0
141
0.0
142
1.0
143
1.0
 70
   688
 72
     0
 73
     0
 74
     5
  7

 75
    16
 76
     0
 77
     2
 78
   300
147
1.0
148
0.0
149
0.0
100
AcDbLayout
  1
Layout1
 70
     1
 71
     1
 10
0.0
 20
0.0
 11
12.0
 21
9.0
 12
0.0
 22
0.0
 32
0.0
 14
1.000000000000000E+20
 24
1.000000000000000E+20
 34
1.000000000000000E+20
 15
-1.000000000000000E+20
 25
-1.000000000000000E+20
 35
-1.000000000000000E+20
146
0.0
 13
0.0
 23
0.0
 33
0.0
 16
1.0
 26
0.0
 36
0.0
 17
0.0
 27
1.0
 37
0.0
 76
     0
330
1B
  0
LAYOUT
  5
26
102
{ACAD_REACTORS
330
1A
102
}
330
1A
100
AcDbPlotSettings
  1

  2
none_device
  4

  6

 40
0.0
 41
0.0
 42
0.0
 43
0.0
 44
0.0
 45
0.0
 46
0.0
 47
0.0
 48
0.0
 49
0.0
140
0.0
141
0.0
142
1.0
143
1.0
 70
   688
 72
     0
 73
     0
 74
     5
  7

 75
    16
 76
     0
 77
     2
 78
   300
147
1.0
148
0.0
149
0.0
100
AcDbLayout
  1
Layout2
 70
     1
 71
     2
 10
0.0
 20
0.0
 11
0.0
 21
0.0
 12
0.0
 22
0.0
 32
0.0
 14
0.0
 24
0.0
 34
0.0
 15
0.0
 25
0.0
 35
0.0
146
0.0
 13
0.0
 23
0.0
 33
0.0
 16
1.0
 26
0.0
 36
0.0
 17
0.0
 27
1.0
 37
0.0
 76
     0
330
23
  0
LAYOUT
  5
22
102
{ACAD_REACTORS
330
1A
102
}
330
1A
100
AcDbPlotSettings
  1

  2
none_device
  4

  6

 40
0.0
 41
0.0
 42
0.0
 43
0.0
 44
0.0
 45
0.0
 46
0.0
 47
0.0
 48
0.0
 49
0.0
140
0.0
141
0.0
142
1.0
143
1.0
 70
  1712
 72
     0
 73
     0
 74
     0
  7

 75
     0
 76
     0
 77
     2
 78
   300
147
1.0
148
0.0
149
0.0
100
AcDbLayout
  1
Model
 70
     1
 71
     0
 10
0.0
 20
0.0
 11
12.0
 21
9.0
 12
0.0
 22
0.0
 32
0.0
 14
1.000000000000000E+20
 24
1.000000000000000E+20
 34
1.000000000000000E+20
 15
-1.000000000000000E+20
 25
-1.000000000000000E+20
 35
-1.000000000000000E+20
146
0.0
 13
0.0
 23
0.0
 33
0.0
 16
1.0
 26
0.0
 36
0.0
 17
0.0
 27
1.0
 37
0.0
 76
     0
330
1F
331
29
  0
MATERIAL
  5
3D
102
{ACAD_REACTORS
330
3B
102
}
330
3B
100
AcDbMaterial
  1
ByBlock
 72
     1
 94
      127
  0
MATERIAL
  5
3C
102
{ACAD_REACTORS
330
3B
102
}
330
3B
100
AcDbMaterial
  1
ByLayer
 72
     1
 94
      127
  0
MATERIAL
  5
3E
102
{ACAD_REACTORS
330
3B
102
}
330
3B
100
AcDbMaterial
  1
Global
 72
     1
 94
      127
  0
MLINESTYLE
  5
18
102
{ACAD_REACTORS
330
17
102
}
330
17
100
AcDbMlineStyle
  2
Standard
 70
     0
  3

 62
   256
 51
90.0
 52
90.0
 71
     2
 49
0.5
 62
   256
  6
BYLAYER
 49
-0.5
 62
   256
  6
BYLAYER
  0
ACDBPLACEHOLDER
  5
F
102
{ACAD_REACTORS
330
E
102
}
330
E
  0
VISUALSTYLE
  5
2F
102
{ACAD_REACTORS
330
2A
102
}
330
2A
100
AcDbVisualStyle
  2
2dWireframe
 70
     4
177
     2
291
     0
 71
     0
176
     1
 72
     2
176
     1
 73
     0
176
     1
 90
        0
176
     1
 40
-0.6
176
     1
 41
-30.0
176
     1
 62
     5
 63
     7
421
 16777215
176
     1
 74
     1
176
     1
 91
        4
176
     1
 64
     7
176
     1
 65
   257
176
     1
 75
     1
176
     1
175
     1
176
     1
 42
1.0
176
     1
 92
        0
176
     1
 66
   257
176
     1
 43
1.0
176
     1
 76
     1
176
     1
 77
     6
176
     1
 78
     2
176
     1
 67
     7
176
     1
 79
     5
176
     1
170
     0
176
     1
171
     0
176
     1
290
     0
176
     1
 93
        1
176
     1
 44
0.0
176
     1
173
     0
176
     1
  0
VISUALSTYLE
  5
31
102
{ACAD_REACTORS
330
2A
102
}
330
2A
100
AcDbVisualStyle
  2
3D Hidden
 70
     6
177
     2
291
     0
 71
     1
176
     1
 72
     2
176
     1
 73
     2
176
     1
 90
        0
176
     1
 40
-0.6
176
     1
 41
-30.0
176
     1
 62
     5
 63
     7
421
 16777215
176
     1
 74
     2
176
     1
 91
        2
176
     1
 64
     7
176
     1
 65
   257
176
     1
 75
     2
176
     1
175
     1
176
     1
 42
40.0
176
     1
 92
        0
176
     1
 66
   257
176
     1
 43
1.0
176
     1
 76
     1
176
     1
 77
     6
176
     1
 78
     2
176
     1
 67
     7
176
     1
 79
     3
176
     1
170
     0
176
     1
171
     0
176
     1
290
     0
176
     1
 93
        1
176
     1
 44
0.0
176
     1
173
     0
176
     1
  0
VISUALSTYLE
  5
30
102
{ACAD_REACTORS
330
2A
102
}
330
2A
100
AcDbVisualStyle
  2
3dWireframe
 70
     5
177
     2
291
     0
 71
     0
176
     1
 72
     2
176
     1
 73
     0
176
     1
 90
        0
176
     1
 40
-0.6
176
     1
 41
-30.0
176
     1
 62
     5
 63
     7
421
 16777215
176
     1
 74
     1
176
     1
 91
        4
176
     1
 64
     7
176
     1
 65
   257
176
     1
 75
     1
176
     1
175
     1
176
     1
 42
1.0
176
     1
 92
        0
176
     1
 66
   257
176
     1
 43
1.0
176
     1
 76
     1
176
     1
 77
     6
176
     1
 78
     2
176
     1
 67
     7
176
     1
 79
     5
176
     1
170
     0
176
     1
171
     0
176
     1
290
     0
176
     1
 93
        1
176
     1
 44
0.0
176
     1
173
     0
176
     1
  0
VISUALSTYLE
  5
32
102
{ACAD_REACTORS
330
2A
102
}
330
2A
100
AcDbVisualStyle
  2
Basic
 70
     7
177
     2
291
     1
 71
     1
176
     1
 72
     0
176
     1
 73
     1
176
     1
 90
        0
176
     1
 40
-0.6
176
     1
 41
-30.0
176
     1
 62
     5
 63
     7
421
 16777215
176
     1
 74
     0
176
     1
 91
        4
176
     1
 64
     7
176
     1
 65
   257
176
     1
 75
     1
176
     1
175
     1
176
     1
 42
1.0
176
     1
 92
        8
176
     1
 66
     7
176
     1
 43
1.0
176
     1
 76
     1
176
     1
 77
     6
176
     1
 78
     2
176
     1
 67
     7
176
     1
 79
     5
176
     1
170
     0
176
     1
171
     0
176
     1
290
     0
176
     1
 93
        1
176
     1
 44
0.0
176
     1
173
     0
176
     1
  0
VISUALSTYLE
  5
36
102
{ACAD_REACTORS
330
2A
102
}
330
2A
100
AcDbVisualStyle
  2
Brighten
 70
    12
177
     2
291
     1
 71
     2
176
     1
 72
     2
176
     1
 73
     0
176
     1
 90
        0
176
     1
 40
-0.6
176
     1
 41
-30.0
176
     1
 62
     5
 63
     7
421
 16777215
176
     1
 74
     1
176
     1
 91
        4
176
     1
 64
     7
176
     1
 65
   257
176
     1
 75
     1
176
     1
175
     1
176
     1
 42
1.0
176
     1
 92
        8
176
     1
 66
     7
176
     1
 43
1.0
176
     1
 76
     1
176
     1
 77
     6
176
     1
 78
     2
176
     1
 67
     7
176
     1
 79
     5
176
     1
170
     0
176
     1
171
     0
176
     1
290
     0
176
     1
 93
        1
176
     1
 44
50.0
176
     1
173
     0
176
     1
  0
VISUALSTYLE
  5
3A
102
{ACAD_REACTORS
330
2A
102
}
330
2A
100
AcDbVisualStyle
  2
ColorChange
 70
    16
177
     2
291
     1
 71
     2
176
     1
 72
     2
176
     1
 73
     3
176
     1
 90
        0
176
     1
 40
-0.6
176
     1
 41
-30.0
176
     1
 62
     5
 63
     8
421
  8421504
176
     1
 74
     1
176
     1
 91
        4
176
     1
 64
     7
176
     1
 65
   257
176
     1
 75
     1
176
     1
175
     1
176
     1
 42
1.0
176
     1
 92
        8
176
     1
 66
     8
424
  8421504
176
     1
 43
1.0
176
     1
 76
     1
176
     1
 77
     6
176
     1
 78
     2
176
     1
 67
     7
176
     1
 79
     5
176
     1
170
     0
176
     1
171
     0
176
     1
290
     0
176
     1
 93
        1
176
     1
 44
0.0
176
     1
173
     0
176
     1
  0
VISUALSTYLE
  5
34
102
{ACAD_REACTORS
330
2A
102
}
330
2A
100
AcDbVisualStyle
  2
Conceptual
 70
     9
177
     2
291
     0
 71
     3
176
     1
 72
     2
176
     1
 73
     0
176
     1
 90
        0
176
     1
 40
-0.6
176
     1
 41
-30.0
176
     1
 62
     5
 63
     7
421
 16777215
176
     1
 74
     2
176
     1
 91
        2
176
     1
 64
     7
176
     1
 65
   257
176
     1
 75
     1
176
     1
175
     1
176
     1
 42
40.0
176
     1
 92
        8
176
     1
 66
     7
176
     1
 43
1.0
176
     1
 76
     1
176
     1
 77
     6
176
     1
 78
     2
176
     1
 67
     7
176
     1
 79
     3
176
     1
170
     0
176
     1
171
     0
176
     1
290
     0
176
     1
 93
        1
176
     1
 44
0.0
176
     1
173
     0
176
     1
  0
VISUALSTYLE
  5
35
102
{ACAD_REACTORS
330
2A
102
}
330
2A
100
AcDbVisualStyle
  2
Dim
 70
    11
177
     2
291
     1
 71
     2
176
     1
 72
     2
176
     1
 73
     0
176
     1
 90
        0
176
     1
 40
-0.6
176
     1
 41
-30.0
176
     1
 62
     5
 63
     7
421
 16777215
176
     1
 74
     1
176
     1
 91
        4
176
     1
 64
     7
176
     1
 65
   257
176
     1
 75
     1
176
     1
175
     1
176
     1
 42
1.0
176
     1
 92
        8
176
     1
 66
     7
176
     1
 43
1.0
176
     1
 76
     1
176
     1
 77
     6
176
     1
 78
     2
176
     1
 67
     7
176
     1
 79
     5
176
     1
170
     0
176
     1
171
     0
176
     1
290
     0
176
     1
 93
        1
176
     1
 44
-50.0
176
     1
173
     0
176
     1
  0
VISUALSTYLE
  5
39
102
{ACAD_REACTORS
330
2A
102
}
330
2A
100
AcDbVisualStyle
  2
Facepattern
 70
    15
177
     2
291
     1
 71
     2
176
     1
 72
     2
176
     1
 73
     0
176
     1
 90
        0
176
     1
 40
-0.6
176
     1
 41
-30.0
176
     1
 62
     5
 63
     7
421
 16777215
176
     1
 74
     1
176
     1
 91
        4
176
     1
 64
     7
176
     1
 65
   257
176
     1
 75
     1
176
     1
175
     1
176
     1
 42
1.0
176
     1
 92
        8
176
     1
 66
     7
176
     1
 43
1.0
176
     1
 76
     1
176
     1
 77
     6
176
     1
 78
     2
176
     1
 67
     7
176
     1
 79
     5
176
     1
170
     0
176
     1
171
     0
176
     1
290
     0
176
     1
 93
        1
176
     1
 44
0.0
176
     1
173
     0
176
     1
  0
VISUALSTYLE
  5
2B
102
{ACAD_REACTORS
330
2A
102
}
330
2A
100
AcDbVisualStyle
  2
Flat
 70
     0
177
     2
291
     1
 71
     2
176
     1
 72
     1
176
     1
 73
     1
176
     1
 90
        2
176
     1
 40
-0.6
176
     1
 41
30.0
176
     1
 62
     5
 63
     7
421
 16777215
176
     1
 74
     0
176
     1
 91
        4
176
     1
 64
     7
176
     1
 65
   257
176
     1
 75
     1
176
     1
175
     1
176
     1
 42
1.0
176
     1
 92
        8
176
     1
 66
     7
176
     1
 43
1.0
176
     1
 76
     1
176
     1
 77
     6
176
     1
 78
     2
176
     1
 67
     7
176
     1
 79
     5
176
     1
170
     0
176
     1
171
     0
176
     1
290
     0
176
     1
 93
       13
176
     1
 44
0.0
176
     1
173
     0
176
     1
  0
VISUALSTYLE
  5
2C
102
{ACAD_REACTORS
330
2A
102
}
330
2A
100
AcDbVisualStyle
  2
FlatWithEdges
 70
     1
177
     2
291
     1
 71
     2
176
     1
 72
     1
176
     1
 73
     1
176
     1
 90
        2
176
     1
 40
-0.6
176
     1
 41
30.0
176
     1
 62
     5
 63
     7
421
 16777215
176
     1
 74
     1
176
     1
 91
        4
176
     1
 64
     7
176
     1
 65
   257
176
     1
 75
     1
176
     1
175
     1
176
     1
 42
1.0
176
     1
 92
        0
176
     1
 66
   257
176
     1
 43
1.0
176
     1
 76
     1
176
     1
 77
     6
176
     1
 78
     2
176
     1
 67
     7
176
     1
 79
     5
176
     1
170
     0
176
     1
171
     0
176
     1
290
     0
176
     1
 93
       13
176
     1
 44
0.0
176
     1
173
     0
176
     1
  0
VISUALSTYLE
  5
2D
102
{ACAD_REACTORS
330
2A
102
}
330
2A
100
AcDbVisualStyle
  2
Gouraud
 70
     2
177
     2
291
     1
 71
     2
176
     1
 72
     2
176
     1
 73
     1
176
     1
 90
        2
176
     1
 40
-0.6
176
     1
 41
30.0
176
     1
 62
     5
 63
     7
421
 16777215
176
     1
 74
     0
176
     1
 91
        4
176
     1
 64
     7
176
     1
 65
   257
176
     1
 75
     1
176
     1
175
     1
176
     1
 42
1.0
176
     1
 92
        0
176
     1
 66
     7
176
     1
 43
1.0
176
     1
 76
     1
176
     1
 77
     6
176
     1
 78
     2
176
     1
 67
     7
176
     1
 79
     5
176
     1
170
     0
176
     1
171
     0
176
     1
290
     0
176
     1
 93
       13
176
     1
 44
0.0
176
     1
173
     0
176
     1
  0
VISUALSTYLE
  5
2E
102
{ACAD_REACTORS
330
2A
102
}
330
2A
100
AcDbVisualStyle
  2
GouraudWithEdges
 70
     3
177
     2
291
     1
 71
     2
176
     1
 72
     2
176
     1
 73
     1
176
     1
 90
        2
176
     1
 40
-0.6
176
     1
 41
30.0
176
     1
 62
     5
 63
     7
421
 16777215
176
     1
 74
     1
176
     1
 91
        4
176
     1
 64
     7
176
     1
 65
   257
176
     1
 75
     1
176
     1
175
     1
176
     1
 42
1.0
176
     1
 92
        0
176
     1
 66
   257
176
     1
 43
1.0
176
     1
 76
     1
176
     1
 77
     6
176
     1
 78
     2
176
     1
 67
     7
176
     1
 79
     5
176
     1
170
     0
176
     1
171
     0
176
     1
290
     0
176
     1
 93
       13
176
     1
 44
0.0
176
     1
173
     0
176
     1
  0
VISUALSTYLE
  5
38
102
{ACAD_REACTORS
330
2A
102
}
330
2A
100
AcDbVisualStyle
  2
Linepattern
 70
    14
177
     2
291
     1
 71
     2
176
     1
 72
     2
176
     1
 73
     0
176
     1
 90
        0
176
     1
 40
-0.6
176
     1
 41
-30.0
176
     1
 62
     5
 63
     7
421
 16777215
176
     1
 74
     1
176
     1
 91
        4
176
     1
 64
     7
176
     1
 65
   257
176
     1
 75
     7
176
     1
175
     7
176
     1
 42
1.0
176
     1
 92
        8
176
     1
 66
     7
176
     1
 43
1.0
176
     1
 76
     1
176
     1
 77
     6
176
     1
 78
     2
176
     1
 67
     7
176
     1
 79
     5
176
     1
170
     0
176
     1
171
     0
176
     1
290
     0
176
     1
 93
        1
176
     1
 44
0.0
176
     1
173
     0
176
     1
  0
VISUALSTYLE
  5
33
102
{ACAD_REACTORS
330
2A
102
}
330
2A
100
AcDbVisualStyle
  2
Realistic
 70
     8
177
     2
291
     0
 71
     2
176
     1
 72
     2
176
     1
 73
     0
176
     1
 90
        0
176
     1
 40
-0.6
176
     1
 41
-30.0
176
     1
 62
     5
 63
     7
421
 16777215
176
     1
 74
     1
176
     1
 91
        0
176
     1
 64
     7
176
     1
 65
   257
176
     1
 75
     1
176
     1
175
     1
176
     1
 42
1.0
176
     1
 92
        8
176
     1
 66
     8
424
  7895160
176
     1
 43
1.0
176
     1
 76
     1
176
     1
 77
     6
176
     1
 78
     2
176
     1
 67
     7
176
     1
 79
     5
176
     1
170
     0
176
     1
171
     0
176
     1
290
     0
176
     1
 93
       13
176
     1
 44
0.0
176
     1
173
     0
176
     1
  0
VISUALSTYLE
  5
37
102
{ACAD_REACTORS
330
2A
102
}
330
2A
100
AcDbVisualStyle
  2
Thicken
 70
    13
177
     2
291
     1
 71
     2
176
     1
 72
     2
176
     1
 73
     0
176
     1
 90
        0
176
     1
 40
-0.6
176
     1
 41
-30.0
176
     1
 62
     5
 63
     7
421
 16777215
176
     1
 74
     1
176
     1
 91
        4
176
     1
 64
     7
176
     1
 65
   257
176
     1
 75
     1
176
     1
175
     1
176
     1
 42
1.0
176
     1
 92
       12
176
     1
 66
     7
176
     1
 43
1.0
176
     1
 76
     1
176
     1
 77
     6
176
     1
 78
     2
176
     1
 67
     7
176
     1
 79
     5
176
     1
170
     0
176
     1
171
     0
176
     1
290
     0
176
     1
 93
        1
176
     1
 44
0.0
176
     1
173
     0
176
     1
  0
ENDSEC
  0
EOF
