<?xml version="1.0" encoding="utf-8"?>
<!-- Generator: Adobe Illustrator 26.1.0, SVG Export Plug-In . SVG Version: 6.00 Build 0)  -->
<svg version="1.1" id="Layer_1" xmlns="http://www.w3.org/2000/svg" xmlns:xlink="http://www.w3.org/1999/xlink" x="0px" y="0px"
	 viewBox="0 0 1025.9 1043.9" style="enable-background:new 0 0 1025.9 1043.9;" xml:space="preserve">
<style type="text/css">
	.st0{fill:none;stroke:#FF0000;stroke-width:0.75;stroke-miterlimit:11.34;}
</style>
<path class="st0" d="M251.9,0.4c-9.8,0.5-17.7,8.4-18,18.3v313.1c0,9.9-0.5,19.9-1.5,29.8c-0.5,4.4-1.3,8.8-2.3,13.1
	c-0.5,1.9-1.1,3.7-1.9,5.4c-0.8,1.3-2,2.3-3.4,2.8c-2.9,1.1-5.9,1.8-8.9,1.9c-4.9,0.3-9.8,0.2-14.6-0.4c-8.4-0.8-16.8-2.1-25-4
	c-10.2-1.8-20,5.1-21.8,15.3c-0.2,0.8-0.3,1.7-0.3,2.6v87.3c0.5,8.7,6.8,15.9,15.3,17.6l8.2,1.6c1.7,0.2,3.4,0.5,5.1,0.9
	c11.9,2.1,23.9,3.6,36,4.6c17.6,1.1,35.3,0.1,52.6-3.1c7.9-1.6,15.6-3.8,23.1-6.6c16.4-6.5,30.8-17.1,41.9-30.7
	c9.6-11.7,16.7-25.4,20.8-40c1.9-6.5,3.4-13.1,4.4-19.8c1.9-10.5,3.2-21.1,4-31.7c0.6-7.8,1-15.6,1.3-23.5v-0.2v-0.2
	c0.3-8.7,0.4-17.5,0.4-26.2V18.6c-0.4-10-8.5-18-18.5-18.2h-96.5C252.3,0.4,251.9,0.4,251.9,0.4z M348.7,9.9
	c4.8,0.2,8.6,4.1,8.9,8.8v303.4c-3.1-2.1-6.5-3.9-9.9-5.5c-4.4-2.2-8.9-4.2-13.5-6c-0.9-0.2-1.7-0.4-2.6-0.5c-1.5,0-2.9,0-4.4,0
	c-1.8-0.2-3.4-1.1-4.4-2.5c-0.6-0.8-1.1-1.7-1.3-2.6c-0.9-2.9-2-5.8-3.5-8.5c-2.4-4.5-4-9.4-4.9-14.4c-1.6-8-2.9-16-3.9-24.1
	c-0.4-4.2-0.7-8.3-0.9-12.5c-0.5-8.8-1.4-17.6-2.6-26.4c-0.8-3.9-1.8-7.7-3.2-11.4c-0.6-1.7-1.2-3.5-1.9-5.2
	c-0.7-1.7-1.2-3.4-1.6-5.1c1.5-0.8,2.9-1.7,4.3-2.7c2.3-1.7,4-4.1,4.8-6.9c0.6-1.5,1-3,1.2-4.6c0-0.3-0.1-0.5-0.4-0.7
	c-0.5-0.2-1-0.2-1.5-0.1c-2.5,0.8-4.8,1.7-7.2,2.8c-2,0.9-3.9,1.9-5.7,3.1c-0.5,0.3-1.2,0.3-1.7,0.1c-0.6-0.3-1.1-0.8-1.4-1.4
	c-0.9-1.4-1.6-3-2-4.6c-0.1-0.9,0.1-1.8,0.7-2.5c0.7-1,1.6-2,2.5-2.9c0.6-0.7,1.1-1.5,1.5-2.4c0.4-1.2,0-2.6-1.1-3.3
	c-1.8-1.2-3.9-1.6-5.9-1.2c-0.9,0.3-1.5,1.1-1.7,2c-0.5,1.6-0.8,3.2-0.9,4.8c-0.2,1.1-0.4,2.2-0.8,3.2c-0.3,0.7-0.9,1.2-1.6,1.3
	c-0.6,0-1.2,0-1.8-0.1c-2,0-3.9,0.8-5.3,2.2c-1.9,1.7-3.4,3.8-4.5,6.1c-0.8,1.3-1.6,2.5-2.5,3.7c-1.2,1.3-2.7,2.4-4.4,3.2
	c-2.5,1.1-4.9,2.4-7.2,3.9c-1.2,0.9-2.3,2-3,3.4c-1.4,2.7-1.1,6,0.7,8.5c1.1,1.4,2.9,2.1,4.6,1.9c2.2-0.2,4.3-0.8,6.2-1.7
	c0.8-0.4,1.7-0.4,2.5,0c0.9,0.4,1.8,0.7,2.8,0.9c1.7,0,3.3-0.4,4.8-1c1.6-0.5,3.2-0.9,4.9-1.1c1-0.1,2.1,0.2,3,0.7
	c0.9,0.6,1.7,1.6,2,2.6c0.6,1.8,0.9,3.7,0.9,5.6c-0.2,15.4-1,30.8-2.4,46.2c-0.9,8.2-1.9,16.4-3.1,24.6c-0.4,3.3-0.5,6.7-0.3,10
	c0.1,1.3,0.4,2.5,0.8,3.8c0.1,0.4,0.1,0.8,0,1.2h-0.1h-0.2c-0.1,0-0.2,0.1-0.2,0.2c0,0.2,0,0.4,0,0.6c0.5,1.9,1.2,3.8,2.2,5.5
	c1.4,2.8,2.2,5.8,2.5,8.8c0.2,3.3-0.4,6.6-1.5,9.6c-0.6,1.7-1.2,3.4-1.9,5c-1.3,3.6-1.1,7.6,0.4,11.1c1,2.5,2,4.9,3.1,7.4
	c1,2.9,1.7,6,2,9.1c0.3,2.7,0.7,5.4,1,8.1c0.5,2.9,1.4,5.7,2.6,8.4c1.4,3.6,2.9,7.2,4.4,10.7c0.8,7.9,1.5,15.9,2.1,23.8
	c0.1,1.8,0.1,3.5,0,5.3c-0.2,1.3-0.4,2.6-0.7,3.8c-0.8,5.2-0.4,10.5,1.2,15.5c0.5,2,0.7,4.2,0.5,6.3c-0.2,10.9-1.5,21.8-3.9,32.4
	c-0.7,2.7-1.5,5.3-2.5,7.8c-0.7,1.7-1.1,3.4-1.3,5.2c-1.6,0.9-3.4,1.5-5.2,1.8c-0.4,0.1-0.9,0.1-1.3,0.1c-4-0.1-8.1-0.4-12.1-0.6
	c-3.5-0.6-7.1-1.1-10.7-1.5c-7.7-0.8-15.4-0.8-23.1,0c-3.4,0.2-6.9,0.4-10.4,0.4c-3.1-0.3-6.1-0.7-9.1-1.3c-6.5-1-13.1-1.9-19.7-2.6
	c4.9-3,9.6-6.3,14.1-9.8c6.9-5.6,12.9-12.2,17.7-19.7c0.1-0.3,0.1-0.5,0.1-0.8c0-0.2,0-0.4-0.1-0.5c-0.1-0.4-0.4-0.7-0.7-0.9
	l-0.3-0.1c-0.6-0.1-1.3,0-1.9,0.2c-3.3,1.6-6.5,3.5-9.5,5.6c-11,7.9-21.6,16.5-31.5,25.7c-1.3,0-2.6,0.1-4,0.2l0.1-0.2
	c0.4-1,1-1.8,1.8-2.5c2.6-2.3,5-4.7,7.2-7.3c13.6-13,24.9-28.3,33.3-45.2c0.4-0.8,0.7-1.6,1-2.5v-0.2c0.1-0.7-0.3-1.3-1-1.5
	l-0.4-0.1c-0.3,0-0.6,0-0.9,0.1c-10.3,5.6-19.1,13.5-26,22.9c-2.1,3-4,6.2-5.6,9.5c-1.2,2.3-2.5,4.7-3.7,7c-0.1,0-0.1,0-0.2,0
	l-0.1-0.1v-0.2c2.7-11.4,3.2-23.2,1.4-34.7c-0.1-1-0.1-2.1,0-3.1c0.2-0.6,0.3-1.2,0.2-1.9l-0.2-0.3l-0.2-0.2
	c-0.3-0.1-0.6-0.2-0.9-0.1c-0.9,0.1-1.8,0.6-2.4,1.4c-1.1,1.8-2.1,3.6-2.8,5.6c-1.9,5.3-3.5,10.8-4.7,16.3c-0.5,2.8-0.7,5.7-0.5,8.5
	c0.4,7.2,0.2,14.5-0.7,21.7l-0.1,0.1l-0.2-0.1c-1.8-9-3.7-18-5.7-27c-0.4-2.1-0.8-4.3-1.1-6.5s-0.8-4.3-1.5-6.4
	c-0.6-1.7-1.3-3.3-2.1-4.9c-0.6-0.9-1.4-1.7-2.2-2.3c-0.3-0.2-0.6-0.3-0.9-0.3v-33.8c0.2-5,4.3-9,9.4-9c0.6,0,1.2,0.1,1.8,0.2
	c10.3,2.3,20.8,3.8,31.3,4.5c3.8,0.2,7.6,0.2,11.4-0.1c2.8-0.2,5.6-0.7,8.2-1.6c2.2-0.6,4.2-1.6,6.1-2.8c2.8-2,4.9-4.8,6-8
	c1.1-3.1,1.9-6.3,2.5-9.5c1-5.5,1.7-11.1,2.1-16.7c0.7-9.2,1-18.3,0.9-27.5V31.9c0.8,3.9,2.1,7.6,3.6,11.3c0.7,0.6,1.7,0.6,2.4,0
	c0.5-0.5,0.8-1.3,0.8-2c0.6-4.8,1.2-9.7,1.8-14.5c0.4-4.5,0.6-9.1,0.6-13.7c0.1-1,0.1-2,0-3h2.8c-0.2,3.3-0.1,6.5,0.4,9.8
	c1.3,9.5,2.6,19.2,3.9,28.7c0.4,2.9,1,5.8,1.7,8.7c0.4,1.4,0.9,2.8,1.3,4.2c0.6,2.6,1.6,5.1,2.8,7.5c0.4,0.5,1.1,0.7,1.6,0.4
	c0.6-0.2,1-0.7,1.2-1.3c1.3-6.8,2.2-13.6,2.7-20.5c0.6-5.8,1-11.7,1.1-17.5c0-2.9-0.3-5.8-1-8.7c-0.8-3.8-1.7-7.6-2.6-11.3h4.9
	c0.7,1.1,1.3,2.2,1.9,3.4c0.5,1.9,0.8,3.9,0.9,5.9c0.4,4,0.4,8.1,0.2,12.1c-0.2,8.6,0.2,17.3,1.2,25.8c1.1,8.8,3.6,17.4,7.4,25.4
	c0.2,0.2,0.4,0.4,0.6,0.6c0.9,0.1,1.9-0.2,2.5-0.9l0.1-0.2c0.3-1.6,0.4-3.2,0.2-4.8c-0.4-3.2-0.6-6.4-0.7-9.7
	c-0.7-11.1-1.9-22.2-3.9-33.2l-2-12c-0.1-0.7,0.2-1.3,0.7-1.7c0.4-0.2,0.9-0.1,1.2,0.2c0.9,1.5,1.5,3.2,1.8,4.9
	c0.3,1.3,0.5,2.6,0.7,3.9c0.3,1.4,0.6,2.8,1,4.1c2.6,11.2,5.5,22.4,8.7,33.4c1.9,6.2,4.3,12.2,7.4,17.9c1.2,2.1,2.5,4.2,4,6.2
	c1.2,1.4,3.4,1.6,4.8,0.4c0.6-0.6,1-1.5,1-2.3c0.3-8.2-0.8-16.4-3.3-24.2c-2.2-7.2-5.1-14.1-8.9-20.5c-1.1-1.9-2.1-3.8-3.1-5.7v-0.1
	h0.1c0.1,0,0.1,0,0.2,0.1c7.4,8,16.4,14.4,26.3,18.9c1.7,1.2,3.3,2.6,4.8,4.1c0.5,0.4,1,0.8,1.6,1.1c0.4,0.2,0.9,0.1,1.2-0.2
	c0.5-0.7,0.7-1.5,0.7-2.3c0-1.4-0.3-2.7-0.9-4c-0.9-1.9-2-3.6-3.3-5.1c-1.7-2-3.4-4-5.1-6c-1.2-1.2-2.4-2.3-3.7-3.4
	c-1.8-1.4-3.5-2.8-5.3-4.2c-2.1-1.5-4.3-3-6.6-4.2c-5.2-3.2-10.1-6.7-14.8-10.5c-0.1-0.2,0-0.4,0.2-0.5c8.1,3.3,16.3,6.5,24.6,9.4
	c2.8,1.2,5.7,2.4,8.5,3.6c2.5,1,5,1.8,7.6,2.2c2.2,0.5,4.4,1.3,6.4,2.2c1.4,0.5,2.8,1,4.2,1.4c1.4-0.1,2.5-1.1,2.8-2.5
	c0-0.4-0.1-0.8-0.4-1.1c-2.1-2-4.4-3.8-6.8-5.3c-4.5-2.8-9.1-5.4-13.8-7.8c-2.8-1.6-5.5-3.2-8.2-5c-1.1-0.6-2.2-1.1-3.3-1.6
	c-8-2.9-16.1-5.4-24.4-7.6c-0.1-0.2-0.2-0.5-0.1-0.7h9.5c2.9,0.4,5.8,1,8.7,1.8c1.1,0.2,2.2,0.3,3.3,0.3c0.5,0,0.9-0.4,0.9-0.9
	c0-0.4-0.2-0.8-0.5-1.1L348.7,9.9z M316.7,371.7l0.2,0.1c1.3,0.4,2.7,0.7,4.1,0.7c4.7,0.2,9.4,0.4,14.1,0.5c3.4,7.9,6.4,16,8.9,24.2
	c1.7,5.7,3.2,11.4,4.4,17.2c0.5,3.3,0.5,6.6,0.1,9.8c-5.4,21.4-17.6,40.4-34.8,54.2l-1.6,1.2c0.4-1.8,0.5-3.7,0.2-5.5
	c-0.7-4.2-1-8.4-1-12.6c-0.3-9.3-0.2-18.7,0.3-28c0.1-1.7,0.4-3.4,0.7-5.1c0.8-5.6,0.7-11.4-0.1-17c-0.2-2-0.4-3.9-0.5-5.9
	c0.1-1.9,0.3-3.8,0.8-5.6c1.3-7.9,2-15.8,1.9-23.8c0.1-1.8,0.2-3.5,0.5-5.2L316.7,371.7z"/>
<path class="st0" d="M18.5,0.4C8.5,0.8,0.5,9,0.4,19.1v473.2c0.3,10,8.4,18,18.4,18.4H117c10.1-0.3,18.2-8.6,18.3-18.7V18.7
	C135,8.6,126.8,0.5,116.6,0.3H18.7L18.5,0.4L18.5,0.4z M44.8,372.8c0.2,2.8,0.3,5.5,0.3,8.3c0.2,7.3,1.1,14.6,2.4,21.8
	c0.3,2,0.3,4,0,5.9c-0.6,4-0.9,8.1-0.9,12.2c0,3.4,0.4,6.8,1,10.1c0.3,3.3,0.5,6.6,0.6,9.9c0.3,9,0.2,18-0.3,26.9
	c-0.2,2.3-0.5,4.7-0.8,7c-0.3,2.2,0,4.4,0.9,6.4c0.6,1.4,1.2,2.8,1.9,4.1c-0.3,2.1-0.7,4.2-1.3,6.3c-5-0.7-10.1-1.2-15.2-1.6
	c-1.6-0.1-3.1,0-4.7,0.1c-3.2-0.1-6.3,0.4-9.3,1.4c-1.3,0.3-2.7,0.6-4.1,0.8c0.1-0.4,0.1-0.8,0-1.2c-0.7-2.1-1.3-4.2-2-6.3
	c-0.6-2.7-1-5.4-1.1-8.1c-0.6-3.1-1.3-6.1-2.1-9.1v-48.3c1.9-9.4,4.4-18.7,7.3-27.8c2.2-6.3,4.5-12.5,7.1-18.6
	c4.4-0.1,8.9-0.2,13.4-0.4c1.6,0,3.2-0.3,4.7-0.7c0.7-0.3,1.4-0.7,2.1-1.1L44.8,372.8z M81.2,9.9c-0.5,0.7-0.2,1.7,0.5,2.2
	c0.6,0.2,1.2,0.2,1.8,0.1c5.8-0.5,11.6,0,17.2,1.5c-2.5,0.7-5,1.5-7.4,2.4c-6.1,2.6-12,5.8-17.6,9.6c-2.2,1.4-4.3,2.8-6.3,4.3
	c-0.8,0.5-1,1.5-0.5,2.3c0.1,0.3,0.3,0.5,0.6,0.6c0.8,0,1.6-0.2,2.4-0.4c5.6-0.9,11.2-1.4,16.8-1.6c3.7-0.1,7.4,0.1,11,0.7
	c5.1,1,10,2.4,14.8,4.2c-3,1-5.9,2.4-8.7,4.1c-1.4,0.8-2.8,1.6-4.1,2.5c-0.7,0.6-0.8,1.6-0.2,2.3c0.2,0.3,0.6,0.5,1,0.5
	c3.6-0.2,7.2-0.3,10.8-0.2c4.2,0.1,8.4,0.5,12.5,1.2v41.7c-4.4-2.3-8.6-5.1-12.3-8.4c-2.7-2-5.4-4-8.2-6.1c-0.3-0.2-0.5-0.4-0.7-0.7
	l0.1-0.1c0.6-0.1,1.1,0,1.7,0.1c2.2,0.3,4.4,0.6,6.6,1.1c0.6,0.1,1.2,0.2,1.8,0.1c0.6-0.3,0.8-1,0.6-1.6c-0.1-0.3-0.3-0.6-0.5-0.8
	c-2.5-2.6-5.4-4.8-8.6-6.5l-2-1.1c2.5,0.3,5.1,0.5,7.6,0.6c0.4,0,0.9,0,1.3,0c0.6,0,1.1-0.4,1.2-1c0.1-0.5-0.1-1.1-0.6-1.4
	c-3.2-2.5-6.7-4.6-10.4-6.3c-4.1-1.4-8.3-2.5-12.5-3.2c-3-0.4-6-0.6-9.1-0.6c-0.5,0.1-0.9,0.1-1.4,0c-0.3-0.3-0.6-0.5-0.8-0.9
	c-1.7-1.8-3.5-3.4-5.4-4.9c-2.1-1.3-4.3-2.3-6.6-3c-3.4-1.1-6.9-1.9-10.4-2.5c-3.5-0.2-7.1-0.3-10.7-0.2c-0.5-0.1-1,0.2-1.2,0.7
	s0,1.1,0.4,1.4l0.2,0.1c1.2,0.5,2.4,1,3.6,1.5c1.9,1,3.7,2.1,5.4,3.4c-5.7-0.1-11.3,1.1-16.5,3.5c-3.1,1.5-6,3.2-8.9,5l0,0
	c-0.5,0.6-0.5,1.4,0,2c0.5,0.2,1.1,0.3,1.6,0.2c3.9,0,7.7,0.7,11.3,2.1l0.1,0.1c-0.4,0.4-0.8,0.6-1.3,0.8c-3.8,1.9-7.1,4.5-9.8,7.7
	c-2.9,3.5-5.5,7.3-7.5,11.4c-1,1.7-1.8,3.5-2.5,5.4c-0.3,0.6,0,1.3,0.5,1.7l0.2,0.1c0.5-0.1,0.9-0.3,1.3-0.6
	c2.9-1.8,6.1-3.1,9.5-3.8c4.6-1.1,9.2-2,13.8-2.7c3-0.3,5.9-0.6,8.9-0.7c-0.5,0.7-1.1,1.3-1.7,1.9c-1.9,2.4-3.4,5.1-4.6,7.9
	c-0.6,1.1-1.1,2.3-1.5,3.6c-0.2,0.5-0.1,1,0.4,1.3c0.3,0.2,0.7,0.3,1.1,0.1c1.1-0.5,2.1-1.2,3.1-1.8c3.1-2,6.5-3.6,10-4.8
	c1.1-0.4,2.2-0.7,3.4-0.7c0.7,0.1,1.3,0.4,1.7,1c1.7,2,2.9,4.4,3.5,6.9c0.6,2.3,1,4.6,1.2,6.9c0.1,0.5,0.2,1.1,0.5,1.5
	c0.2,0.3,0.7,0.4,1,0.2c0.5-0.4,0.8-1,0.9-1.7c0.7-1.8,1.3-3.6,1.9-5.4c0.8-3,1.1-6.2,0.9-9.3v-0.1l0,0h0.1c2.9,1.3,5.6,3,8.1,5
	c2.8,2.6,5.2,5.4,7.2,8.6c0.2,0.3,0.5,0.5,0.8,0.4c0.4-0.1,0.8-0.4,1-0.8c0.4-1.7,0.5-3.5,0.4-5.3c0.1-1.9-0.2-3.8-0.6-5.7
	c-1.2-4.1-3.1-7.9-5.6-11.3c-0.1-0.1-0.2-0.3-0.2-0.5h0.1c0.6,0.2,1.3,0.4,1.8,0.7c7.9,3.9,13.4,10.6,18.8,17.6
	c0.9,1.1,1.9,2.4,2.8,3.5c0.3,0.3,1.5,1.2,2.5,0.5c0.6-0.5,0.7-2.9,0.4-3.6c-0.5-2.3-1.6-4.5-3.1-6.4c-1.9-2.5-3.9-4.9-6.1-7.2
	c-0.1-0.1-0.1-0.2-0.2-0.2c0,0,0,0,0-0.1c0.6,0.2,1.2,0.4,1.8,0.7c2.4,1,4.2,2.7,6.3,4.1c3,2.1,9.7,5.8,11.6,8.9v391.7
	c-3.6,2.1-7.3,4-11.1,5.6c-3.1,1.1-6.4,1.5-9.7,1.3c-3.8-0.3-7.5-0.8-11.2-1.5c-8.1-1.2-16.4-1.5-24.6-0.7c0.2-1.2,0.2-2.5-0.1-3.6
	c-0.5-2.3-1.2-4.5-2.1-6.6c-1.3-4-2.3-8.1-3-12.3c-1.7-9.3-2.5-18.8-2.5-28.2c0.1-1.8,0.5-3.6,1.1-5.4c1.3-5.2,1.4-10.6,0.1-15.9
	c-0.3-2.4-0.4-4.7-0.2-7.1c0.6-7.8,1.3-15.7,2.1-23.5c1.3-3.4,2.7-6.7,4.2-10.1c0.8-1.9,1.5-3.9,2.2-5.9c0.8-3.2,1.3-6.4,1.5-9.6
	c0.3-2.5,0.7-4.9,1.2-7.4c0.9-3.3,2.2-6.5,3.6-9.5c0.7-1.6,1.2-3.2,1.6-4.9c0.5-3.1,0-6.3-1.4-9.2c-1.4-3.3-2.4-6.7-2.8-10.2
	c-0.2-3.1,0.3-6.2,1.5-9c1.3-3.9,2.4-7.9,3.3-11.9c0.4-2.4,0.5-4.7,0.3-7.1c-0.3-4.2-0.7-8.4-1.4-12.6c-2.3-16.4-3.6-32.9-4-49.4
	c-0.2-5.3-0.3-10.5-0.2-15.8c0.1-1.8,0.7-3.6,1.8-5.1c0.8-1,2-1.6,3.3-1.6c2.3,0.1,4.5,0.6,6.6,1.4c1,0.3,2.1,0.6,3.1,0.7
	c1.2,0,2.4-0.4,3.4-0.9c1-0.4,2.1-0.3,3,0.2c2.2,1,4.6,1.5,7,1.5c1.5-0.2,2.8-1,3.7-2.2c2.3-3.6,1.5-8.4-2-11
	c-2.3-1.7-4.9-3.1-7.5-4.2c-1.3-0.6-2.6-1.4-3.7-2.4c-1.6-1.7-3-3.6-4-5.7c-1.3-2.3-3-4.3-5-5.9c-1-0.8-2.2-1.2-3.5-1.4
	c-0.7,0-1.4,0.1-2.1,0.1c-0.8,0-1.5-0.6-1.8-1.3c-0.5-1.4-0.7-2.9-0.8-4.4c0-1.6-0.4-3.2-1-4.7c-0.5-0.8-1.8-1-2.7-1
	c-2-0.1-3.9,0.5-5.5,1.7c-0.9,0.9-1.1,2.2-0.5,3.3c0.9,1.5,2.1,2.9,3.4,4.1c0.4,0.6,0.7,1.4,0.8,2.2c0.2,1.1,0,2.1-0.3,3.1
	c-0.5,1.4-1.3,2.6-2.3,3.7c-0.6,0.6-1.5,0.6-2.2,0.2c-3.2-2-6.5-3.6-10-4.9l-2.6-0.9c-0.6-0.2-1.2-0.2-1.8,0
	c-0.2,0.1-0.3,0.3-0.3,0.4c0,0.7,0.1,1.4,0.3,2.1c0.6,2.3,1.5,4.5,2.7,6.6c1.2,1.7,2.8,3.1,4.6,4.1l2.6,1.6c-1.2,4-2.6,7.9-4.1,11.8
	c-1,2.7-1.8,5.5-2.4,8.4c-0.8,4.4-1.3,8.8-1.7,13.3c-0.7,7.5-1.2,14.9-1.6,22.4c-0.5,6.7-1.4,13.3-2.6,19.8c-0.8,5-1.8,9.9-3,14.8
	c-1,3.5-2.5,6.9-4.3,10.1c-1.3,2.5-2.3,5.2-3.1,7.9c-0.7,2-2.3,3.6-4.3,4.2c-0.6,0.1-1.2,0.2-1.9,0.2H28c-1.5,0.1-2.9,0.4-4.2,1
	c-4.7,2-9.3,4.1-13.9,6.4V19c0.3-4.9,4.3-8.9,9.2-9L81.2,9.9z"/>
<path class="st0" d="M512.8,124.7l-0.2,19.7c-1.6,0.4-3.1,1-4.6,1.6c-0.4,0.2-0.7,0.5-1,0.9c-0.4,0.7-0.3,1.7,0.4,2.2
	c0.9,0.5,1.9,0.8,2.9,1c0.8,0.2,1.6,0.3,2.4,0.5v3.2c-3.1,1-6,2.5-8.6,4.3c-0.8,0.6-1,1.7-0.4,2.5c0.4,0.4,1,0.6,1.6,0.6
	c2.4,0.2,4.9,0.4,7.4,0.6v2.9c-4.6,1.8-9.1,3.8-13.5,6.1c-5.5,2.5-11.4,4.2-17.4,5c-5.8,1-11.6,2.1-17.4,3.5
	c-3.6,1-7.1,2.1-10.6,3.4c-2.3-2.2-4.7-4.3-7.3-6.1c-0.8-0.5-1.7-1.1-2.4-1.7c1.5-1.3,17-25.7,20.6-31.5c1.2,0.2,8,4.8,9.7,5.6
	c0.4,0.2,0.9,0.2,1.2,0c0.5-0.3,0.8-0.8,1-1.4c0-0.8-0.1-1.5-0.4-2.2c-1.4-4-2.8-8-4.3-12c-0.7-1.5-1.3-3-1.9-4.5
	c4,0.8,8,2,11.8,3.5c3.2,1.2,6.5,2.5,9.7,3.9c0.6,0.3,1.2,0.3,1.8,0c1-0.8,1.3-2.3,0.5-3.4l-9.7-12.4
	C491,120.4,505.3,121.5,512.8,124.7z M709.5,11.1c5.1,0.1,9.1,4.2,9.2,9.3c0,1.9-0.5,3.8-1.5,5.3L610.9,189.6
	c-1.9-4.9-4.4-9.4-7.5-13.6c-1.8-2.3-3.9-4.5-6.2-6.4c-1-0.8,1-1.1,2.7-1.1c4,0.1,8,0.7,11.8,1.8c0.5,0.2,1,0.2,1.4,0
	c0.9-0.8,0.9-2.2,0.1-3.1c-0.1-0.1-0.1-0.1-0.2-0.2c-3.1-3.2-6.3-6.3-9.7-9.2c-5.6-4.5-12.1-7.8-19.1-9.7c3.1-1.4,6.3-2.3,9.6-2.8
	c1,0,2-0.1,3-0.4c0.5-0.2,0.9-0.8,0.8-1.3c0-0.8-0.5-1.5-1.2-1.6c-2.5-0.8-13.6-3.5-16.7-3.7c-4.4-0.3-8.8-0.2-13.2,0.2
	c-5.5,0.6-10.7,2.8-14.9,6.4c-6.2-2.3-16.6-3.6-18.4-3.8l69.8-126c1.6-2.9,4.6-4.7,7.9-4.9L709.5,11.1z M513.2,75.6
	c-1.9-2.2-4.1-4.1-6.6-5.6c-0.3-0.2-0.6-0.6-0.7-1v-0.1c0.3-0.3,0.7-0.5,1.1-0.6c2-0.9,4.1-1.7,6.2-2.3V75.6z M648.8,470.5
	c2.6,4.3,5.6,8.3,8.9,12.1c2.3,2.5,5,4.8,7.9,6.6c2.6,1.3,5.1,2.7,7.4,4.3l0.8,0.4c-2.4,0.1-4.8,0.2-7.2,0.4
	c-2.9,0.1-5.8,0.2-8.7,0.2c-2.6-0.2-5.1-0.6-7.7-1.1l-5-0.7c0.3-0.7,0.4-1.5,0.3-2.3c0-1.9-0.2-3.8-0.6-5.7c-0.4-2.5-0.4-5,0.1-7.4
	c0.2-1.3,0.4-2.6,0.8-3.9c0.7-1.3,1.5-2.5,2.4-3.6L648.8,470.5z M413.6,129.4c1.7,0.8,3.3,1.7,4.9,2.7c0.4,1.6,0.7,3.3,0.8,5
	c0.8,7-1,24.1-1.4,25.6c-5.1-2-15.7-3.9-21.1-4l0.2-20.5c5-3.3,10.3-6.2,15.9-8.6C413,129.4,413.3,129.4,413.6,129.4z M630.5,471.4
	c0.8,1.1,1.4,2.3,1.9,3.6c1,2.2,2.1,4.3,3.3,6.4c0.8,1.4,1.2,3,1.2,4.7c-0.1,0.3-0.1,0.7-0.3,0.8c-1.7,0.4-3.4,0.7-5.2,0.9
	c-1.7,0.2-3.3,0.4-5,0.7c-0.7,0.2-1.3,0.4-2,0.6l0.7-0.5l0.2-0.2c0.3-0.3,0.4-0.7,0.4-1.2c0-0.6-0.1-1.2-0.2-1.7
	c-0.4-1.1-0.6-2.3-0.6-3.4c0-0.9,0.1-1.7,0.4-2.5c0.6-2.9,1.6-5.6,3.1-8.1c0.3-0.5,0.7-1.1,1.1-1.6L630.5,471.4z M436.8,130.3
	c3.6,0.9,18.8,6.6,20.4,8.8c-2.1,3.8-21.5,30.1-22.9,30.6c-2.4-1-4.8-2.1-7-3.3c0.2-0.9,0.4-2.1,0.7-3c0.9-4.3,1.3-8.7,1.3-13
	c0-4.2-0.9-12.7-0.9-12.8c1.3,0.8,2.6,1.6,3.8,2.6c2.5,1.8,4.9,3.8,7,6.1c0.5,0.5,1.1,1,1.7,1.3c0.5,0.1,1.1-0.1,1.4-0.5
	c0.5-0.5,0.6-1.3,0.4-1.9c-1.4-5.1-3.4-10-6-14.5C436.6,130.3,436.7,130.3,436.8,130.3z M411.6,205.1c-1.7,1.3-3.3,2.9-5.2,4.1
	c-1.7-1.7-5-5.2-6.9-6.8C402.9,202.3,410.9,204.2,411.6,205.1z M533.7,176.4c-3.8,3.6-6.9,7.8-9.2,12.4c-1,2.5-1.8,5.2-2.1,7.9
	c-0.3,1.7-0.5,3.5-0.4,5.3c0.1,0.7,0.6,1.2,1.2,1.4c0.3,0,0.6-0.1,0.9-0.4c3.1-3.1,6.7-5.9,10.5-8.1c3-1.6,6.2-2.7,9.5-3.5
	c0.6-0.1,1.9-0.3,2.6-0.3c-0.6,2.2-1,4.4-1.2,6.6c-0.2,3.5,0,7.1,0.6,10.6c0.1,1.2,0.3,2.4,0.6,3.7c0.2,1.2,1.7,1.9,2.2,1.5
	c0.5-0.9,0.8-1.9,0.9-2.9c0.9-3.2,2.3-6.3,4-9.2c1.1-1.9,2.5-3.6,4.2-5.1c1.2-1.2,3-1.6,4.6-1c2.1,1.1,4,2.3,5.8,3.8
	c3.6,2.9,7.1,6.2,10.2,9.6c0.3,0.4,0.7,0.7,1.1,1c1.3,1.1,2.3-1,2.1-2c-0.7-4.5-1.8-8.9-3.4-13.1c-0.8-1.9-1.7-3.7-2.7-5.5
	c1.2,0.2,2.4,0.5,3.5,0.9c2.8,1,5.5,2,8.2,3.1c6.2,2.8,12.3,5.9,18.2,9.3c2.3,1.2,6.8,4.4,8.1,6.6l110,280.4c0.2,0.5,0.4,1,0.4,1.5
	c-2.3,1.3-4.7,2.4-7.1,3.5c-1.6-2.1-3.9-3.5-6.4-4c-6.8-1.2-13.6-2.5-20.4-3.8c-2.9-0.5-5.8-1-8.6-1.6c-4.9-1.3-9.3-3.9-12.8-7.5
	c-4.9-4.8-8.3-11-9.5-17.8c-0.4-3.7-0.4-7.5,0.1-11.2c0.2-5.6-1-11.2-3.5-16.3c-1-2.2-2.2-4.2-3.6-6.2c-3-4-6.8-7.4-11.3-9.7
	c-2-1-4-2.1-5.9-3.2c-2.5-1.5-4.8-3.3-6.9-5.3c-2.3-1.7-4.9-3.1-7.6-4.1c-1.2-0.5-2.3-1.1-3.3-1.9c-1.3-1.3-2.1-2.9-2.3-4.6
	c-0.3-1.5-0.4-3.1-0.3-4.6c0-1.5-0.3-2.9-0.9-4.2c-0.2-0.6-0.3-1.2-0.1-1.8c1.1-0.5,2.1-1.3,2.9-2.2c1.9-2,3-4.6,3.3-7.3
	c0.3-1.4,0.2-2.9-0.3-4.3c-0.2-0.5-0.7-0.7-1.2-0.6c0,0,0,0-0.1,0c-0.8,0.6-1.6,1.3-2.3,2c-1.4,1.3-3,2.4-4.5,3.5
	c-1.1,0.9-2,2.1-2.6,3.4c-0.4,0.9-0.7,1.9-1,2.8c-0.2,0.4-0.8,0.6-1.2,0.4c-0.2-0.1-0.3-0.2-0.4-0.4c-0.3-2.9-1.6-5.7-3.7-7.8
	c-1.4-1.6-3-3-4.8-4.2c-0.3-0.1-0.6-0.1-0.8,0.1c-0.3,0.2-0.5,0.6-0.5,1v2.4c0.1,0.3,0.1,0.6,0.3,0.8c0.4,1.1,0.6,2.1,0.9,3.2
	c0.2,0.9,0.5,1.8,0.9,2.7c0.3,0.7,0.8,1.3,1.3,1.8c0.3,0.4,0.6,0.8,0.9,1.2l-1.5,1.3c-0.6,0.6-1,1.4-1.1,2.2
	c-0.2,0.9-0.4,1.7-0.7,2.6c-0.1,0.5-0.1,1,0,1.4c0.2,3.3-0.1,6.6-0.9,9.9l-0.1,0.2c0,0.1-0.1,0.1-0.2,0.1c-0.2,1,0.2,2.1,1,2.8
	c1.1,1.2,2.7,1.6,4.2,1l1-0.3h0.1v0.1c0,0.1-0.1,0.3-0.1,0.4c0.3,1.2,0.3,2.5,0.1,3.7c-0.1,1.4,0.1,2.8,0.4,4.2
	c0.2,1.7,0.7,3.4,1.4,5c0.4,0.9,0.8,1.7,1.4,2.5c0.7,1.6,1.3,3.2,1.9,4.8c0.2,0.4,0.4,0.9,0.5,1.3c-1.1,1.4-2.4,2.7-3.7,4
	c-0.8,0.8-1.6,1.7-2.3,2.6c-1.2,2.2-2,4.6-2.2,7.1c0,0.8,0,1.7,0.1,2.5c0.4,1.2,1,2.4,1.8,3.4c0.6,0.4,1.2,0.7,1.9,1
	c0.9,0.3,2,0.1,2.7-0.6c1.1-0.6,1.8-1.8,1.7-3.1c-0.1-0.7-0.5-1.2-1.1-1.5c-0.1-0.1-0.5-0.2,0-0.6c0.3-0.1,0.6-0.2,0.9-0.3
	c0.2-0.1,0.2-0.3,0.2-0.5c0-0.4-0.2-0.8-0.5-1c0.5-1.6,1.4-3,2.6-4.1c0.6-0.5,1.2-1,1.9-1.4c0.9,1.4,1.9,2.6,3.1,3.7
	c0.5,0.6,0.8,1.3,1,2c0,0.2,0,0.4-0.1,0.6c-0.4,2-0.9,4.1-1.3,6.1c-0.7,3.8-0.9,7.7-0.6,11.6c0.4,2.7,0.8,5.3,1.3,8
	c0.1,2.6,0.7,5.1,1.7,7.5c0.3,0.6,0.5,1.2,0.8,1.8c0.9,2.1,1.1,4.4,0.8,6.6c0,0.5-0.3,0.9-0.8,1l-9.5,0.6c-1.5,0.1-3,0.3-4.4,0.5
	c-0.6,0.1-1.1,0.4-1.6,0.7l-66.4-191.4l-25,38.2L509.8,489c-3.2,1.8-6.6,3.4-10,4.8c-3.2,1.1-6.5,1.5-9.9,1.2
	c-3.8-0.3-7.6-0.8-11.4-1.6c-8.2-1.3-16.5-1.6-24.7-0.9c-2.8,0.1-5.7,0.2-8.5,0.2c-2.5-0.2-5-0.6-7.5-1.1l-4-0.6
	c0.3-1.9,0.6-3.9,0.8-5.8c0.8-6,0.5-12.1-1-18c-0.2-0.8-0.3-1.5-0.4-2.3c0.1-0.7,0.4-1.3,0.9-1.8c0.6-0.7,1.3-1.4,2-2.1
	c0.5-0.5,1-1.1,1.3-1.8c1.7,1.2,3,2.8,4,4.6c0.1,0.3,0.2,0.7,0.3,1c0.1,0.2-0.2,0.4-0.4,0.6c-0.2,0.2-0.2,0.5,0,0.7
	c0.3,0.3,0.6,0.5,1,0.6l0.1,0.1v0.2l-0.1,0.2l-0.6,0.5c-0.5,0.6-0.6,1.3-0.4,2c0.5,1.4,1.7,2.4,3.1,2.8c1,0.1,2-0.1,2.8-0.6
	c1-0.9,1.7-2,2.1-3.3c0.5-2.2,0.3-4.5-0.5-6.6c-0.3-0.9-0.6-1.8-1-2.7c-0.2-0.4-0.5-0.8-0.8-1.1c-1.6-1.8-3.2-3.6-4.8-5.3l-0.6-0.8
	c0.7-1.6,1.3-3.2,2-4.9c0.3-0.8,0.7-1.5,1.2-2.2c0.9-1.5,1.5-3.1,1.8-4.8c0.3-1.5,0.6-2.9,0.8-4.4c0-0.8,0-1.5-0.1-2.3
	c0-1,0.1-1.9,0.2-2.9c0-0.1,0-0.4,0-0.4c0.8,0.3,1.7,0.5,2.5,0.6c1.8-0.1,3.4-1.4,3.9-3.2c0-0.3,0-0.6-0.1-0.8
	c0-0.1-0.1-0.1-0.2-0.1c-0.4-1-0.6-2.1-0.7-3.2c-0.4-2.5-0.4-5-0.1-7.5c0-0.6-0.1-1.2-0.3-1.8c-0.2-0.8-0.4-1.7-0.5-2.5
	c-0.4-0.9-1.1-1.8-2-2.4l-0.4-0.4c0.6-0.7,1.1-1.4,1.7-2c0.8-1.3,1.3-2.7,1.6-4.2c0.2-0.9,0.5-1.8,0.8-2.6c0.1-0.2,0.2-0.5,0.3-0.8
	v-2.2c0-0.5-0.4-1.7-1.2-1.4c-1.2,0.7-2.3,1.6-3.3,2.5c-1.3,1.2-2.5,2.4-3.5,3.8c-1,1.6-1.6,3.3-1.9,5.2c-0.2,1.4-1.5,1.2-1.6,0.6
	c-0.4-1.6-1.1-3.2-1.9-4.6c-0.6-0.9-1.3-1.7-2.2-2.3c-2.1-1.5-4.1-3.1-6-4.9c-0.9-0.6-1.3-0.2-1.4,0.1c-0.6,1.4-0.8,2.9-0.6,4.3
	c0.3,3.7,2.1,7,5.1,9.3c0.2,0.2,0.5,0.3,0.8,0.4c0.2,0.1,0.2,0.4,0.2,0.5c0,0.3,0,0.7-0.1,1c-0.2,0.6-0.4,1.2-0.7,1.8
	c-0.3,1.5-0.5,3-0.4,4.6c0,2.1-0.5,4.2-1.5,6.1c-0.8,1.2-2,2.2-3.4,2.7l-4.6,2c-2.4,1.2-4.6,2.7-6.5,4.5c-1.2,1-2.5,2-3.9,2.9
	c-2.6,1.4-5.3,2.8-7.9,4.1c-6,3.3-10.8,8.3-13.7,14.5l1.8-216c1.9,2.7,3.3,5.7,4.9,8.6c0.3,0.5,0.8,0.8,1.4,0.8c0.8,0,1.3-0.4,1.4-1
	c0.1-0.9,0.1-1.8-0.1-2.6c-0.7-4.7-2.8-15.5-2.9-16.3c1.2-1.2,2.5-2.3,4-3.3c0.6-0.1,6.9,3.4,9.4,5.2c0.3,0.2,0.6,0.3,1,0.4
	c0.4,0,2.2-0.5,1.2-3.1c-1.2-2.9-2.4-5.7-3.7-8.5c-0.1-0.2-0.2-0.4-0.1-0.6c0.9-0.8,8.2-5.9,11-7.7h0.2c1.4,0.4,2.8,0.9,4.1,1.5
	c3,1.2,5.8,2.6,8.6,4.2c1,0.6,3.6,2,4.9,1c0.7-0.7,1-1.1,0-2.7c-0.7-1.5-4.2-9-5.2-11.3c1.1-0.7,2.2-1.4,3.4-1.9
	c1.9,1,9.2,5.3,11,6.3c0.5,0.3,1.1,0.5,1.6,0.3c0.7-0.3,1.1-1,0.9-1.7c-0.4-3.3-4.7-9-4.8-9.1c2.3-1.2,4.8-2.3,7.2-3.2
	c0.9,0.2,1.7,0.6,2.5,0.9c1.2,0.6,2.4,1,3.6,1.4c0.8-0.1,1.4-0.9,1.4-1.7c-0.1-0.7-0.4-1.3-0.8-1.8c-0.3-0.4-0.5-0.8-0.7-1.2v-0.1
	c2.3-0.5,4.6-1.2,6.8-2.2c3.2-1.4,6.5-2.7,9.8-3.9c4.4-1.5,8.8-3,13.2-4.5c4.6-1.7,9.3-3.2,14.1-4.5c2.2-0.6,4.5-0.9,6.8-0.9
	l0.1,0.1c0,0.1-0.1,0.1-0.1,0.2c-1,0.9-2.1,1.6-3.2,2.4c-3.2,2.2-6.2,4.8-8.8,7.7c-1.2,1.5-2.2,3.1-2.8,4.9
	c-0.4,0.8-0.1,1.8,0.6,2.4c0.4,0.1,0.8,0.1,1.1-0.1c2.1-1.6,4.2-3.2,6.3-4.8c6.1-4.7,12.9-8.3,20.2-10.6c2.6-0.9,5.2-1.6,7.9-2
	C534.1,175,535,175.2,533.7,176.4z M504.7,9.5c5,0.3,8.9,4.3,9,9.3l-0.3,38.6c-2.8-0.4-5.7-0.8-8.5-1c-5.8-0.3-11.6-0.4-17.3-0.3
	c-4.9,0.3-9.8,1-14.6,1.9v-0.1c0.7-0.7,1.5-1.3,2.3-1.9c2.5-1.8,5.2-3.3,8.1-4.4c1.8-0.6,3.5-1.2,5.3-2c0.6-0.2,1.2-0.6,1.6-1.1
	c0.4-1.1,0-2.4-1.1-3c-2-0.3-4.1-0.4-6.1-0.5c-3.8-0.2-7.7-0.2-11.5-0.1c-9.7,0.5-19.3,2.5-28.3,6c-4.6,1.9-9.1,4.2-13.4,6.7
	l-0.7,0.5c-0.2,0-0.4-0.1-0.6-0.3c-1.5-1.3-3.1-2.4-4.9-3.1c-4.9-2.1-9.9-3.8-15.1-5.1c-3.5-1-7.1-1.7-10.7-2.1l0.2-29.9
	c0.1-5,4.1-9,9.1-9.2L504.7,9.5z M610.1,0.8c-6.5,0.4-12.3,4.1-15.4,9.7l-72.4,130.7l1-122.9c-0.3-9.9-8.3-18-18.2-18.4l-98.2-0.8
	c-10.1,0.2-18.3,8.4-18.5,18.5l-3.9,473.2c0.3,10.1,8.4,18.2,18.5,18.5l97.7,0.8c10.2-0.2,18.4-8.3,18.7-18.5l1.3-155.3l12.9-19.6
	l63.1,181.5c2.6,7.5,9.6,12.6,17.5,12.8l101,0.8c10.5-0.2,18.9-8.8,18.7-19.3l0,0c0-2.3-0.5-4.5-1.3-6.6l-114-290.4L725.2,31
	c5.7-8.8,3.3-20.6-5.5-26.3c-2.8-1.8-6.1-2.9-9.4-3.1l-99.5-0.8L610.1,0.8z"/>
<path class="st0" d="M892.2,475.4c2.2,1.3,4,3.3,5,5.7c0.5,1.3,0.7,2.6,0.7,3.9c0.2,1.4,0,2.9-0.6,4.2c-0.8,1.8-1.6,3.5-2.3,5.3
	c-2.9,0.6-5.8,1-8.8,1.2c-0.7,0-1.5-0.1-2.2,0c1.9-1.2,3.2-3.2,3.3-5.5c0.2-1.8,0.3-3.6,0.6-5.4c0.6-2.9,1.8-5.7,3.4-8.2
	C891.4,476.3,891.8,475.8,892.2,475.4L892.2,475.4z M997.5,443.8c1.9,0.8,3.8,1.7,5.6,2.8c0.9,0.6,1.6,1.3,2.2,2.2
	c0.7,1.4,1.2,3,1.9,4.4c0.8,2.8,1.2,5.5,1.8,8.3c0.3,1.7,1.2,3.2,1.3,5c0.3,2.8,0.4,6,1.7,8.5c0.8,1.9,1.4,3.6,1,5.6l-0.2,1.4
	c0.1,1.8,1.6,3.1,3.2,3.9v5.8c0,0.8-0.1,1.5-0.3,2.2c-6,0.2-12,0.2-17.9,0.1c-3.4-0.2-6.8-0.5-10.2-1l3.9-9.8l3.4-9.6
	c1.7-4.9,2.9-9.9,3.7-15c0.4-4.6,0.1-9.2-0.8-13.7C997.7,444.6,997.6,444.2,997.5,443.8C997.5,443.9,997.4,443.7,997.5,443.8z
	 M758.7,116.9c1.7,2.9,3.2,5.9,4.6,9c1.9,3.9,4,7.6,6.3,11.2c1.7,2.5,3.7,4.7,6,6.7c-3.3-0.5-6.7-0.2-9.9,1
	c-0.4,0.2-0.6,0.8-0.4,1.2c0.1,0.2,0.2,0.3,0.4,0.4c3.9,3,8.1,5.5,12.5,7.6c3.7,1.6,7.9,2.1,11.9,1.4c-0.2,1.6-0.5,3.2-0.9,4.8
	c-0.2,1.2-0.1,2.5,0.3,3.6c0.3,1.7,0.5,3.5,0.8,5.2s0.9,3.4,1.6,5c1,1.3,2.5,2.1,4.2,2c0.9-0.1,1.7-0.6,2.2-1.3
	c0.4-1.4,0.4-2.8,0-4.2c-0.8-2.4-1.3-4.8-1.5-7.3c-0.1-1.9,0.1-3.7,0.5-5.5c1.6,1.4,3.4,2.5,5.3,3.5c3.1,1.2,6.2,2.1,9.5,2.7
	c4.7,0.4,9.5,0.6,14.2,0.6c2-0.1,4-0.2,6.1-0.4c3.2-0.6,6.3-1.3,9.5-2.2c3-0.8,6-1.4,9.1-1.9c6-1.2,11.8-3.3,17.1-6.2
	c1.9-1.3,3.9-2.3,6-3.2v243.1h132.8c5.1,0.1,9.1,4.2,9.3,9.2v56.3c-1.3-1.5-2.1-3.4-2.3-5.4c-0.6-3.3-1-6.8-2.9-9.5
	c-2.4-3-5.5-5.4-9.1-6.8c-2-0.8-4.3-1.4-6.2-2.5c-0.4-0.3-0.9-0.5-1.4-0.6c-14.7-23-40.5-36.3-67.8-35c-7.5,0.2-14.9,1.4-22,3.7
	c-14,4.4-26.6,12.1-36.9,22.4c-0.7,0.5-0.9,0.4-1,0.2s-0.2-0.7-0.4-1c-0.5-0.6-1.3-1.1-2.1-1.3c-0.5-0.1-0.9-0.5-0.9-1
	c0.3-1.5,2.1-3.9,3-5.5c0.6-1.1,0.3-2.5,0.2-3.7c-0.4-1.5-1.6-2.7-3.1-3c-1.3-0.1-2.5,0.2-3.7,0.8c-0.8,0.5-1.4,1.3-1.7,2.2
	c-0.5,1.5-0.9,3.1-1,4.6c-0.1,0.6-0.3,1.1-0.5,1.6c-0.3,0.5-1,0.7-1.5,0.4c-0.2-0.1-0.4-0.4-0.5-0.6c0-0.9,0.1-1.8,0.4-2.6
	c0.5-1.8,0.9-3.7,1.2-5.6c0.1-1,0-2-0.3-2.9c-0.7-1.2-1.8-2.1-3.2-2.5c-2.5-0.3-5,2-5.7,4.6c-0.2,0.9-0.2,1.8,0,2.6
	c0.3,1.4,0.4,2.8,0.5,4.3c-0.8-0.1-1.2,0.1-2.1,0c-2.5,0-4.9,0.3-7.3,0.8c-3,0.4-6,0.5-9,0.3c-1.3-0.2-2.5-0.7-3.6-1.5l-4.9-3.6
	c-1.9-1.3-4-2.4-6.1-3.3c0.2-1.2,0.2-2.4-0.2-3.5c-0.4-0.9-1.3-1.5-2.3-1.6c-1.4-0.1-2.7,0.3-3.8,1.2c-0.7,0.8-1,1.8-1,2.8
	c-1.6,0-3.1,0.2-4.7,0.4c-2.2,0.6-4.3,1.7-6.1,3.1c-1.2,0.9-2.3,2-3.3,3.2c-1.9,2.8-2.2,6.4-0.8,9.5c0.8,2.1,2,3.9,3.7,5.4
	c-0.8,3-1.1,6.2-0.9,9.3c0.1,1.7,0.6,3.3,1.5,4.8c0.5,0.9,1.3,1.7,2.3,2.2c1.1,0.4,2.4-0.1,2.8-1.3c0.5-1.1-0.3-1.8,0-3.3
	c0.3-2.5,1.1-4.9,2.4-7c0.1-0.2,0.3-0.3,0.5-0.3c2.1,1.4,4.5,2.3,6.9,2.7c2.6,0.5,5.2,0.8,7.8,0.7c3,0,6,0.2,8.9,0.5
	c1.6,0.3,3.1,0.8,4.6,1.5c3.9,2.2,5.8,6.8,4.7,11.1c-1.1,5.7-5.4,10.4-11,12c-1,0.2-2.1,0-2.9-0.7c-0.6-0.6-0.9-1.3-0.9-2.1
	c-0.1-1.7,0.1-3.7,0-5.5c-0.1-0.7-0.5-1.4-1-1.9c-1.1-0.4-2.3-0.4-3.3,0.1c-1.6,1.1-2,3-2.2,5c-0.4,2.2,0.3,4.2,1,6.3
	c0.4,0.9,0.8,1.8,1.4,2.6c0.1,0.1-0.1,1.1-1.3,1.4c-0.7,0-1.3-0.3-1.7-0.8c-1.3-1.3-2.1-2.9-2.4-4.7c-0.2-0.9-0.3-1.8-0.2-2.6
	c0-0.3-0.1-0.6-0.3-0.8c-1.1-0.4-2.2-0.4-3.3-0.1c-1.4,0.5-1.6,1.8-1.8,3.3c-0.4,3,0.5,6,2.5,8.3c1,1.1,2.5,2.3,3.5,3.4
	c0.5,0.4,0.7,1.1,0.7,1.7c0,1.1,0.4,2.2,1,3.1c0.8,1.3,1.8,2.5,3,3.5c1.3,0.7,2.7,1.3,4.1,1.6c1.2,0.6,2.5,0.8,3.8,0.5
	c4-0.5,7.8-2.3,10.8-5.1l4.9-4.4c2.2-1.9,5-2.9,7.9-2.9c1.5,0,3.1,0.1,4.6,0.2c4,0.1,8-1.2,11.1-3.8l1.2-1c1.5,1.4,2.7,3.1,3.5,5
	c1.8,3.1,2.6,6.7,2.5,10.3c-0.1,1.5-0.6,2.9-1.4,4.2c-0.8,1.2-1.6,2.4-2.4,3.6c-0.5,0.8-0.9,1.7-1.1,2.7c0,0.3,0,0.7,0.1,1
	c-3.5-0.2-7-0.1-10.4,0.5c-4.7,0.7-9.5,1.3-14.3,1.8c-2.3-0.2-4.6-0.6-6.8-1.3c-1.9-0.5-3.8-0.9-5.7-1.3c-2.9-0.4-5.9-0.2-8.8,0.5
	c-2.1,0.5-4.2,1-6.3,1.5c-2.8,0.6-5.6,0.8-8.5,0.6c-2.6-0.4-5.3-0.8-7.9-1.1c-1.1-0.1-2.1,0-3.1,0.4c-1.4,0.6-2.8,1.1-4.2,1.7
	L791,498c-1.9,0-3.8-0.1-5.6-0.3c-1-0.1-1.9-0.1-2.9-0.1c-2,0.4-3.9,1.2-5.5,2.4c-1.3,0.8-2.8,1.2-4.2,1.2
	c-3.9,0.2-7.9-0.5-11.5-2.2c-1.9-1.7-3.1-4.1-3.2-6.6V115.9L758.7,116.9z M910.7,473.8c1.2,0.7,2.4,1.5,3.5,2.4
	c6.4,4.4,14,6.7,21.8,6.6c4.7,0,9.3-0.5,13.9-1.6c2-0.5,3.8-1.4,5.5-2.5c0.7-0.4,1.4-0.7,2.2-0.8c-0.4,2.7-1.2,5.3-2.3,7.8
	c-0.9,1.5-1.9,2.9-3,4.2l-0.8,1.1c-4.3,0.6-8.5,1.7-12.6,3.1c-1.8,0.7-3.6,1.5-5.3,2.3c-1.3,0.3-2.6,0.4-3.9,0.4
	c-3.4-0.2-6.8-0.6-10.2-1.1c-2.3-0.3-4.7-0.4-7-0.1c-0.8,0.2-1.6,0.4-2.4,0.7c-1,0.1-2-0.1-2.9-0.7c1.3-1.8,2.4-3.8,3.3-5.8
	c1.1-3.1,1.5-6.5,1-9.8c-0.3-2-0.6-4.1-1-6.1L910.7,473.8z M873.9,139.3c-3,1-5.8,2.4-8.4,4.1c-5.2,3-10.9,5.2-16.7,6.5
	c-7.6,2.4-15.4,3.7-23.3,4c-4.3,0.2-8.6,0.3-12.9,0.4c-2.2,0-4.5-0.2-6.7-0.6c-0.6-0.2-0.6-0.5-0.3-0.6c2.2-0.6,4.2-1.4,6.2-2.5
	c1.9-1.3,3.5-3.1,4.7-5.1c1.1-2.1,1.1-4.7,0.1-6.9c-1.3-2.2-2.5-4.4-3.6-6.7c-0.2-0.6-0.6-1-1.1-1.4c-0.3-0.1-0.5,0-0.8,0.2
	c-1.1,1.6-2.1,3.3-2.9,5c-0.9,1.5-2,2.9-3.3,4.1c-1.5,1.1-2.9,2.3-4.2,3.5c-0.6,0.6-1.2,1.3-1.8,2c0.3-3,0.4-6.1,0.2-9.2
	c-0.3-3.1-1.4-6-3-8.6c-1.8-2.6-4.7-4.3-7.9-4.6c-0.6,0.1-1,0.5-1,1.1c-0.6,3.1-0.8,6.3-0.8,9.5c0.1,2.4,0.6,4.8,1.4,7.1
	c0.5,1.5,1,2.9,1.7,4.3l-0.5-0.3c-4.3-4.4-8.2-9.3-11.7-14.5c-4.6-7.2-9-14.5-13.3-21.8c-1.8-2.8-3.7-5.6-5.8-8.2v-9.2
	c1.6-0.1,3.3-0.3,4.9-0.6c3.1-0.4,6.2-0.6,9.3-0.6c6-0.1,11.9-0.4,17.8-0.8c3.3-0.3,6.5-1.3,9.3-2.9c-0.5,2-1,4-1.6,6s-1.1,4-1.5,6
	c-0.1,0.2,0.2,0.8,0.6,1.1c0.5,0.4,1.2,0.6,1.8,0.5l0.3-0.2c3.5-4.7,7.4-9.1,11.6-13.2c2.4-1.9,4.8-3.7,7.4-5.3
	c-1.7,4.3-2.6,8.8-2.8,13.5c0.2,3.5,0.7,7,1.4,10.4c0.3,1.1,0.6,2.2,1,3.3c0.3,0.5,1,0.6,1.5,0.3c0.3-0.2,0.4-0.4,0.5-0.7
	c0.4-1.1,0.9-2.2,1.5-3.2c0.9-1.3,1.7-2.6,2.5-3.9c1.3-2.8,3-5.4,4.9-7.8l1.6-2.3c0.4,1.7,0.4,3.5,0,5.2c-0.1,0.6-0.2,1.3-0.4,1.9
	c-0.5,2.8-0.7,5.6-0.6,8.5c0.2,1.9,0.5,3.8,0.8,5.7c0,1.5-0.2,3-0.4,4.5c-0.1,0.9,0,1.7,0.1,2.6c0.3,1.3,0.6,2.7,0.9,4
	c0.2,3.1,0.2,6.2-0.2,9.2c-0.1,1.4,0,2.7,0.4,4.1c0.1,0.2,0.3,0.4,0.5,0.6c0.4,0.1,0.7,0,1-0.3c2.4-1.5,4-3.9,4.5-6.7
	c0.3-1.2,0.4-2.4,0.2-3.7c-0.3-5.4-0.1-10.9,0.5-16.3c0.6-3.5,1.1-7,1.5-10.5c0.3-2.3,0.5-4.6,0.7-6.9c0-0.5-0.1-1-0.1-1.5
	c3.8,1.7,8,2.1,12.1,1.3c0.8-0.2,1.5-0.7,2.1-1.3c0.4-1.1,0-2.2-0.9-2.9c-2.1-1.4-4.1-2.9-6-4.5c-1.7-1.9-3.4-3.8-5.1-5.7
	c-1.2-1.3-2.6-2.5-4.2-3.3l3.8-2c1-0.7,2-1.4,2.9-2.2l1.3-0.9c0.3-0.1,0.5-0.3,0.8-0.4c3.7-1.5,7.5-2.8,11.2-4.2
	c4.2-1.4,8.3-3.1,12.3-4.9l4-2V139.3z M864.8,9.9c4.9,0.2,8.8,4.1,9,9v22c-2.3,1.8-4.7,3.5-7.1,5c-5.1,3.1-10.4,5.8-15.9,8.1
	l-3.4,1.4c-0.6,0.1-0.6-0.4-0.5-0.7c0.1-1.5,0.2-3.1,0.4-4.6c0.1-1.5,0-3-0.3-4.5c-0.8-1.2-2.3,0.2-3,0.8
	c-4.7,3.9-8.9,8.4-12.5,13.4c-0.1,0-0.2,0-0.2-0.1c0-1.5-0.1-3-0.6-4.5c-0.8-2.4-1.6-4.9-2.4-7.3c-0.6-2-1.4-3.8-2.4-5.6
	c-0.5-0.9-1.8-1.2-2.7,0.3c-2.1,4-4.1,8.1-6.1,12.2c-1.4,3.5-1.5,7.4-0.5,11v0.1c0,0.1,0,0.1,0,0.1c-3.4,0.5-6.6,2.1-9,4.6
	c-1.2,1.1-2.4,2.3-3.4,3.5c-0.7,0.9-3.1,1-5,1.4c-5.2,1.1-10.5,1.7-15.8,1.6c-4.7,0.2-9.3,0.3-13.9,0.4c-2.4,0-4.8-0.3-7.2-0.6
	c-1.4-0.2-2.8-0.6-4.1-1.1V19c0.2-4.9,4.1-8.8,9-9L864.8,9.9z M973.7,482.2c0.3,1.8,0.2,3.6-0.3,5.3c-0.3,1.2-0.6,2.3-0.9,3.5
	l-6.7-0.9c0.8-3.1,2.2-6,4.2-8.5c0.6-0.6,1.2-1.2,1.9-1.7C972.7,479.6,973.6,481.2,973.7,482.2z M766.2,0.4
	c-9.8,0.7-17.5,8.8-17.6,18.6v473.2c0.3,10.1,8.5,18.2,18.7,18.4H1007c10.2-0.3,18.3-8.5,18.5-18.7v-89.4
	c-0.3-10.2-8.5-18.4-18.7-18.5H883.4V18.7c-0.3-10-8.4-18-18.3-18.4h-98.2L766.2,0.4z"/>
<path class="st0" d="M19,533.4C9,533.8,1.1,542,0.9,552v473.2c0.3,10,8.4,18,18.4,18.3h98.1c10.1-0.3,18.2-8.5,18.4-18.7V551.6
	c-0.3-10.1-8.6-18.2-18.7-18.3H19.2L19,533.4z"/>
<path class="st0" d="M246.7,533.3c-9.8,0.5-17.7,8.4-18,18.2v313.1c0,10-0.5,19.9-1.5,29.8c-0.5,4.4-1.3,8.8-2.3,13.1
	c-0.5,1.9-1.1,3.7-1.9,5.4c-0.8,1.3-2,2.3-3.4,2.8c-2.9,1.1-5.9,1.7-8.9,1.9c-4.9,0.3-9.8,0.2-14.6-0.4c-8.4-0.8-16.8-2.1-25-4
	c-10.3-1.8-20,5-21.9,15.3c-0.2,0.8-0.3,1.7-0.3,2.6v87.3c0.4,8.7,6.8,15.9,15.3,17.6l8.2,1.6c1.7,0.2,3.4,0.6,5.1,0.9
	c11.9,2.1,23.9,3.6,36,4.6c17.6,1.2,35.3,0.1,52.6-3.1c7.9-1.6,15.6-3.8,23.1-6.6c16.4-6.5,30.8-17,41.9-30.7
	c9.6-11.8,16.7-25.4,20.8-40c1.9-6.5,3.4-13.1,4.4-19.8c1.8-10.5,3.2-21.1,3.9-31.7c0.6-7.8,1-15.6,1.3-23.5v-0.2v-0.2
	c0.3-8.7,0.4-17.5,0.4-26.2V551.5c-0.4-10-8.5-18-18.5-18.2h-96.5H246.7z"/>
<path class="st0" d="M605.6,533.4c-6.5,0.5-12.2,4.2-15.3,9.9L519,674.5V551.6c-0.3-10-8.4-18-18.4-18.3h-98.2
	c-10.1,0.3-18.2,8.5-18.4,18.7v473.2c0.4,10.1,8.6,18.2,18.7,18.4h97.7c10.2-0.3,18.4-8.5,18.5-18.7V869.6l12.7-19.7l64.6,181
	c2.7,7.5,9.7,12.5,17.6,12.6h101c10.5-0.3,18.8-9,18.5-19.5l0,0c0-2.3-0.5-4.5-1.4-6.6L615.6,728L721,562.5
	c5.7-8.8,3.1-20.6-5.8-26.2c-2.8-1.8-6.1-2.8-9.4-3h-99.5L605.6,533.4z"/>
<path class="st0" d="M763.8,533.4c-9.8,0.7-17.4,8.8-17.6,18.6v473.2c0.3,10.1,8.5,18.2,18.7,18.4h239.8
	c10.2-0.3,18.3-8.5,18.5-18.7v-89.4c-0.3-10.2-8.5-18.4-18.7-18.5H881.1V551.6c-0.3-10-8.4-18-18.3-18.3h-98.2L763.8,533.4z"/>
<image style="overflow:visible;" width="794" height="972" xlink:href="4E94F19.jpg"  transform="matrix(1 0 0 1 -1042.8 94.0632)">
</image>
</svg>
