<?xml version="1.0" encoding="utf-8"?>
<!-- Generator: Adobe Illustrator 25.2.3, SVG Export Plug-In . SVG Version: 6.00 Build 0)  -->
<svg version="1.1" id="Layer_1" xmlns="http://www.w3.org/2000/svg" xmlns:xlink="http://www.w3.org/1999/xlink" x="0px" y="0px"
	 viewBox="0 0 1464.9 1049.6" style="enable-background:new 0 0 1464.9 1049.6;" xml:space="preserve">
<style type="text/css">
	.st0{fill:none;stroke:#FF0000;stroke-width:0.75;stroke-miterlimit:11.34;}
</style>
<path class="st0" d="M889.2,154c-3.2,11.5-5.4,23.2-6.7,35.1c-1.4,11.6-2.3,23.2-2.8,34.8c-1.3,27.8-1.1,55.7,0.5,83.5
	c0.8,12.2,2.3,24.4,4.4,36.5c1.5,8.2,3.7,16.3,6.5,24.1c3,7.8,7.5,15,13.2,21.2c3.5,3.5,7.5,6.3,12,8.2c-2.8,0.4-5.5,1.1-8.1,2
	c-5.6,1.9-11.2,3.8-16.8,5.9c-7.3,2.9-10.5-0.3-11.5-1.1c-4.1-3.5-7.8-7.3-11.2-11.5c-0.2-0.3-0.2-0.7,0-1.2
	c0.7-2.4,1.2-4.8,1.5-7.3c0.2-2.1-0.2-4.2-1.2-6.1c-0.6-1-1.7-1.7-2.8-1.6c-0.8,0-1.6,0.3-2.2,0.9c-0.9,0.8-3,4.5-3.4,5.3
	c-0.8-0.5-2.1-1.2-0.9-2.8c1.6-2.6,2.4-5.5,2.4-8.5c-0.2-1.6-0.9-3.2-2.1-4.3c-0.9-0.7-2.2-0.6-3.1,0.1c-1.6,1.4-2.9,3.1-4,5l0,0
	c-2-2.6-3.8-5.5-5.2-8.5c-0.5-1.6-1.1-3.2-1.8-4.8c-0.9-1.8-2.2-3.4-3.7-4.8c-1.2-1.1-2.4-2.3-3.4-3.6c-1.9-2.6-3.3-5.5-4.1-8.6
	c-1.2-3.8-1.8-7.7-1.8-11.6c0-1.8-0.3-3.6-0.9-5.4c-0.5-1.1-1.3-2-2.3-2.6c-2.1-0.7-4.4-0.2-6,1.3c-2.8,2.3-4.4,5.8-4.3,9.4
	c-0.1,2.1,0.5,4.1,1.5,5.9c0.4,0.6,0.5,1.3,0.4,2c-1.7,4.9-3.7,9.7-5.6,14.5c-0.3,0.6,0.6,1.5,1,1.3c1.1-0.7,2.2-1.4,3.2-2.3
	c1.5-1,3-1.9,4.5-2.8c0.8,2,1.5,4.1,2,6.2c-0.1,0.9-0.3,1.7-0.6,2.5c-1.1,3-2.1,5.9-3,8.9c0,0.3,0.1,0.5,0.3,0.7
	c0.5,0.3,1.1,0.2,1.5-0.2c1.5-1.2,2.9-2.5,4.4-3.6h0.1l0.1,0.1c0.9,1.5,1.6,3.1,2.2,4.7c1.1,2.5,2.2,5,3.2,7.5
	c1,2.4,1.6,4.9,1.9,7.4c0,0-0.1,0.1-0.1,0c-2.4-1.8-4.7-3.7-7-5.7c-0.5-0.5-0.8-1.2-0.8-1.9l-0.4-5.5c0-0.4-0.2-0.8-0.4-0.8
	c-0.5,0-0.6,0.2-0.8,0.4c-0.9,0.8-1.7,1.5-2.6,2.3c-0.1,0-0.2,0-0.3-0.1c-1.1-1.1-2.2-2.4-3.1-3.7c-0.1-1-0.2-2.1-0.1-3.1
	c0-2.4,0.3-4.6,0.2-6.9c0-0.5-0.3-1.3-0.8-1.3c-0.7,0-1.2,0.7-1.6,1.6c-0.8,1.2-1.6,2.4-2.3,3.7c-1.9-3.6-4-7.1-6.2-10.5
	c-1.3-1.7-2.7-0.2-2.7,1.8c0.1,4.7,0.5,9.4,1.3,14c0.8,3.1,2.1,6,4,8.6c5.1,7.8,10.7,15.3,16.6,22.4c5.4,6.8,10.3,14,14.8,21.5
	c1.6,2.6,3.3,5.1,5.2,7.5l1.4,1.6c2.3,2.3,5.2,4,8.3,5c0.9,0.2,1.8,0.4,2.7,0.5c1.3-0.1,2.7-0.3,4-0.6h0.2v0.1
	c-0.5,1.4-1.4,2.7-2.5,3.7c-3.5,3.1-6.7,6.5-9.5,10.3c-1.6,2.4-3,4.9-4,7.6c-1.6,3.8-3.1,7.6-4.5,11.5c-1.9-0.7-3.8-1.1-5.8-1.3
	c-1.2-0.2-2.5-0.4-3.7-0.5c-1.1-0.4-2.2-1.1-3-2c-1.7-1.7-3.3-3.5-4.9-5.4c-0.4-0.4-0.9-0.7-1.4-0.9c-1.5-0.9-2.8-2-4-3.3l-3.2-3.5
	c-0.8-0.8-1.7-1.5-2.5-2.3c-3.2-3.7-6.2-7.6-9-11.6c-7.4-10.3-13.7-21.4-18.9-33c-6.6-14.4-11.9-29.3-15.6-44.7
	c-4.4-17.3-7.5-34.9-9.2-52.7c-2.1-20.2-2.9-40.4-2.6-60.7l0.1,0.1c1,7.1,2.3,14.1,3.8,21.1c0.4,1.6,1,3.2,1.7,4.6
	c1.3,3,2.5,6,3.5,9.2c1.4,4,1.5,7.4,3.3,11.2c0.3,0.7,0.7,1.3,1.2,2c1.1,1.4,4,1,3.5-0.2c-1-3.3-2.3-6.8-2.6-10.1
	c-0.3-5.1-0.9-10.2-1.8-15.2c-1.5-6.5-3-13-4.7-19.5l0.1-0.1h0.2h0.2c2.9,5.2,5.4,10.6,7.5,16.1c1.2,2.8,2.8,5.4,4.7,7.8
	c1.7,2.1,3.3,4.2,5,6.3c1,1.2,2,2.3,3.2,3.2l0.8,0.5c0.9,0.4,2,0,2.4-1c0-0.1,0-0.3,0-0.4c-0.6-1.3-1.2-2.6-1.7-3.9
	c-2.4-8.4-6.3-16.3-11.4-23.4c0-0.1,0-0.2,0-0.2l0,0c2.4,1.9,4.8,3.9,7.2,5.8c5.6,4.2,11.9,7.3,18.7,9.1c2.6,0.6,5.3,1,8,1
	c0.7,0,1.2-0.6,1.2-1.2c0-0.8-0.2-1.6-0.8-2.2c-5.8-5.9-12.7-10.8-20.1-14.4c-4-2-8.1-3.8-12.3-5.4c-2.4-1-4.8-1.9-7.2-2.9
	c-1.1-0.6-2.2-1.1-3.3-1.5c-1-0.4-0.6-1.3,0.3-1.1c6.4,2,10.7,2.1,17.1,3.7c4.8,1.1,9.7,2,14.5,2.7c2.4,0.3,4.8,0.2,7.1-0.3
	c0.3-0.2,0.5-0.6,0.3-1c-0.3-0.4-0.6-0.7-1-0.9c-6.9-4.6-14.7-7.6-22.9-8.7c-4.3-0.9-8.7-1.5-13.1-1.8c-3.1-0.2-4.4,0.2-7.3-1.1
	c-1.9-1.1-3.2-2.9-2.2-2.9c3.6,0.3,3.3-0.1,6.6,1c1.7,0.4,3.4,0.7,5.1,0.8c5.9,0.2,11.8-0.9,17.7-1.1c2.5-0.2,5.1-0.5,7.7-0.8
	c0.5,0,0.8-0.4,0.9-0.9c0-0.3-0.1-0.5-0.4-0.7c-1.4-1.2-3-2.2-4.8-3c-3.2-1.9-6.7-3.3-10.2-4.3c-5.9-1.6-11.8-3.1-17.7-4.6
	c-2.3-0.6-4.6-0.9-7-1l0.2-2.3c2.4,0.2,4.9,0.3,7.3,0.5c1.5,0.1,3,0.1,4.5,0l5.4-0.3l5.3-0.3c0.3,0,0.6-0.2,0.8-0.5
	c0.1-0.4,0-0.8-0.4-0.9c-6.6-4.4-14.2-7.1-22.1-8c1.3-13.9,3.3-27.8,6-41.5c2.7,0.3,5.3,0.5,8,0.6c2.3,0.2,4.6,0.5,6.9,1
	c5.8,1,11.6,1.8,17.4,2.5c3.2,0.2,6.5-0.1,9.6-1.1c-1.3,2.8-2.7,5.6-4,8.4c-0.5,1-0.9,2-1.3,3.1c-0.5,1.3,1.6,2.4,2.5,1.7
	c4.2-4,8.7-7.6,13.5-10.9c2.7-1.4,5.4-2.7,8.1-3.9c-2.4,3.9-4.2,8.2-5.2,12.7c-0.4,2.9-0.6,5.8-0.6,8.7c0,1.7,0.1,3.5,0.4,5.2
	c0.1,0.7,1.7,0.9,2.1-0.3c0.5-1,1.1-1.9,1.9-2.7c1.3-1.3,2.6-2.7,3.7-4.2c1.8-2.3,3.8-4.5,6-6.4c1.5-1.3,2.9-2.9,4-4.6
	c0.5-0.8,0.9-1.7,1.1-2.7c0.2,0.3,0.4,0.7,0.5,1.1c0.1,0.8,0.3,1.6,0.6,2.4c2.5,3.9,6.5,6.7,11.1,7.6c1.4,0.3,2.7,0.5,4.1,0.5
	c1,0,1.9-0.4,2.7-1c0.6-1,0.4-2.2-0.4-3c-1.8-1.7-3.4-3.6-4.9-5.5c-1.3-2.1-2.6-4.3-3.8-6.6c-0.9-1.5-2.1-2.9-3.4-4l4.1-1.2
	c1.2-0.6,2.3-1.2,3.5-1.8c0.6-0.3,1.2-0.6,1.8-0.7c5.4-1,10.8-1.9,16.3-2.8c4.5-0.7,9-1.8,13.4-3.2L889.2,154z M1069,100.3
	c5,12.6,8.9,25.6,11.8,38.9l1.5,6.9l1.3,7.2l0.9,5.4l0.8,5.3l0.7,5.4c1.2,9.1,2.1,18.2,2.6,27.4c-0.1,4.7-3.8,8.6-8.5,9l-85.9,6.7
	c-5,0.4-9.4-3.3-9.9-8.3c-0.3-12.7-1.6-25.4-3.7-38c-1.4-7.6-3.4-15.1-5.9-22.4c-2.5-7-6.1-13.5-10.6-19.4c-2.5-3.2-5.6-5.9-9-8.1
	c4.8,0.5,9.6,0.6,14.3,0.5c7.4-0.1,14.8-0.4,22.1-0.8c2.7-0.1,5.5-0.1,8.2-0.2c0.4,0,0.8-0.1,1.2-0.1c-0.7,0.9-1.2,2-1.6,3.1
	c-1.7,3.9-2.2,8.2-1.4,12.4c0.5,2.4,1.5,4.7,3.1,6.6c0.4,0.5,0.8,0.9,1.3,1.3c-2.1,3.7-3.7,7.8-4.7,11.9c-0.1,1.3,0.5,2.7,1.5,3.5
	c0.8,0.4,1.6,0.5,2.5,0.4l0.2-0.2c0.6-0.7,1-1.6,1.2-2.5c0.5-2.5,1.3-4.9,2.5-7.2c0.3-0.5,0.6-1,1-1.5h0.1l0.1,0.1
	c0.1,3.6-0.4,7.3-1.3,10.8c-0.6,3.1-0.1,6.2,1.3,9c0.5,0.7,1.4,0.9,2.2,0.5c1.1-0.4,1.9-1.3,2.1-2.5c0-2.5,0.1-5.1,0.4-7.6
	c0.6-2.4,1-4.8,1.1-7.3c0.1-2.9-0.5-5.8-1.7-8.5c3.9-5.8,5.3-12.8,4.1-19.6c-0.3-1.5-0.8-3-1.4-4.4c1.6,0.2,3.2,0.2,4.8,0.1
	c14.9-1,29.4-4.9,42.7-11.7c2.4-1.3,4.8-2.6,7.1-4.1L1069,100.3z M1007.5,116c0.5,0.6,0.8,1.2,0.9,1.9c0.6,4.1,0.2,8.3-1.2,12.1
	c-0.1,0.3-0.3,0.6-0.5,0.9h-0.1c-0.1,0-0.2-0.1-0.2-0.1c-0.1-0.4-0.2-0.7-0.4-1.1c-1.5-4.5-1.1-9.5,1.2-13.7
	C1007.2,116,1007.3,115.9,1007.5,116z M998.1,72.4c-2,3-2.1,3.4-2.2,5.6c0,2,0.8,3.9,2.3,5.2c-1.7,4.3-2.5,8.9-2.2,13.4
	c0.5,3.2,1.4,6.3,2.9,9.2c-0.8,0.1-1.6,0.2-2.3,0.2c-13.4,0.3-26.8-0.5-40.1-2.4c1-0.6,1.9-1.3,2.7-2.1c1.8-2.2,3.3-4.5,4.5-7
	c1.1-3.2,1.5-6.6,1.1-10c-0.2-0.4-0.6-0.7-1-0.9c-3.6,0.2-7,1.2-10.1,2.9c-1.7,0.8-3.4,1.8-4.9,3c-2.1,1.6-3.8,3.7-5.1,6.1
	c-0.3-3.4-1.7-6.7-4.1-9.2c-2.3-2.9-5.1-5.3-8.2-7.2c-0.7-0.1-1.4,0.1-2,0.5c-0.2,3.8-0.5,7.6-1.2,11.3c-0.3,2.3-0.4,4.7-0.2,7
	l0.2,1c-3.9-1.1-7.7-2.5-11.3-4.1c-7.8-3.9-15.2-8.5-22.3-13.7c-0.2-0.2-0.8-0.6-0.6-0.8c8-2.8,16.3-4.8,24.8-5.9
	c2.5-0.3,5.1-0.4,7.7-0.3c4.8,0.1,9.6,0.3,14.3,0.6s9.6,0.4,14.6,0.3C970.6,76.5,987.2,73.2,998.1,72.4z M811.7,82.8
	c-0.5,2.7-4.8,13.8-4.6,19.1c0,2.3,0.1,4.7,0.2,7c0,3.9,0.2,7.7,0.7,11.6c0.4,2.5,2.1,4.6,4.5,5.4c1.6,0.5,3.3,0,4.5-1.2
	c0.6-0.6,1.1-1.3,1.5-2.1c0.5-1.8,0.9-3.7,1.2-5.6c0.4-2.7,0.6-5.5,0.7-8.3c-0.1-1.3-0.1-2.7,0.1-4c0.4-4.2,0.9-8.3,1.3-12.5
	c-0.1-0.6,0-1.2,0.2-1.7c0.4-1.4,1.2-2.6,2.3-3.5c0.3-0.2,0.6-0.3,0.9-0.2c8.2,1.9,16.7,2.8,25.2,2.6c10.8,0.1,21.6-1.5,32-4.8
	c5.6,4,11.3,7.9,17,11.7c4.8,3.7,10,6.8,15.6,9.2c3.6,1.6,7.3,3.2,10.9,4.8l1.6,0.5c-8.7,1.5-16.6,6-22.4,12.8
	c-2.7,3-5.1,6.3-7.3,9.8c-3.8,2.8-7.9,5.1-12.3,6.8c-6.5,2.6-13.2,4.6-20,6.1l-2.3,0.5c-0.3,0.1-0.5-0.6-0.4-0.8
	c0.4-1.5,0.8-3,1.2-4.4c0.4-1.5,0.6-3,0.5-4.5c-0.3-1.2-2.3-0.2-3,0.2c-5.3,3.1-10.2,6.7-14.7,10.9c-0.1,0-0.2,0.1-0.1-0.1
	c0.4-2,0.4-4,0.1-6c-0.3-2.1-0.5-4.1-0.7-6.2c-0.2-2-0.7-4.1-1.3-6c-0.3-0.8-1.1-1.1-1.9-0.8c-0.3,0.1-0.6,0.3-0.7,0.6
	c-2.8,3.6-5.5,7.2-8.1,10.9c-2,3.2-2.8,7-2.5,10.7c0,0.1,0,0.1-0.1,0.1c-3.4-0.2-6.8,0.8-9.5,2.8c-1.4,0.9-2.7,1.8-3.9,2.8
	c-1.7,0.4-3.4,0.6-5.1,0.5c-5.2,0.1-10.4-0.3-15.6-1.3c-4.5-0.7-9.1-1.4-13.6-2.2c-2.6-0.5-5.2-1.2-7.6-2.3c-1.1-0.5-2.2-1-3.2-1.7
	c3.5-14,8.2-27.8,13.8-41.1c3.2-7.4,6.8-14.7,10.9-21.7c2.9-1.6,5.7-3.4,8.3-5.5c0.5-0.4,1-0.9,1.5-1.4L811.7,82.8z M889.4,453.1
	c0.9,0.9,1.8,1.9,2.7,2.8c6.9,6.7,15.5,11.5,24.8,13.9l2.5,0.7c5.1,1,10.3,1.5,15.5,1.5c3.8-0.2,7.5-1.2,10.9-2.9
	c3-1.4,6.1-2.6,9.2-3.5c-0.6,2.4-1.1,4.9-1.4,7.4c-1.1,6.5-2.1,13-2.8,19.5c-0.2,0.2-0.5,0.3-0.8,0.3c-3,0.6-6,0.9-9.1,0.9
	c-4.8-0.6-9.7,0-14.2,1.6c-2.7,0.8-5.5,1.1-8.2,0.9c-2.7-0.1-5.5-0.6-8.1-1.3c-2.7-0.6-7.7,0.3-9.3-1.5c-1.2-1.8-3.2-2.7-5.3-2.5
	c-1.2,0.1-3.9,1.3-7,1c-1.5-0.5-3-1-4.5-1.6c1.2-2.7,2.2-5.5,2.9-8.5c1.1-4,1.9-8.1,2.5-12.2C890.1,464.1,890,458.6,889.4,453.1
	L889.4,453.1z M970,473.3c1,5.5,2,11,3.1,16.5c-1.2,0-2.5-0.1-3.7-0.5c-0.5-0.3-1.1-0.6-1.7-0.7c0.2-3.7,0.6-7.3,1-11l0.8-7.3
	L970,473.3z M931.2,0.4c-19.5,0-38.8,3.2-57.3,9.4c-29.8,10.3-55.5,29.8-73.5,55.7c-6.5,9-12.1,18.5-17,28.4
	c-6.4,12.8-11.6,26.1-15.7,39.9c-5.8,19.1-9.8,38.6-12.1,58.4c-3.6,28.8-4.7,57.9-3.3,86.9c0.8,19.5,2.8,38.9,5.9,58.2
	c3.4,19.7,8.7,39.1,15.6,57.9c5.7,14.7,12.7,28.8,21.1,42.1c7.4,11.5,16.1,22.2,25.9,31.7c21.2,20.1,47.9,33.5,76.6,38.5
	c26,4.8,52.8,4.1,78.5-2.2c23.1-6.1,44.3-17.8,61.8-34.2l1.8-1.6l0.2-0.2c15.6-15.3,28.3-33.2,37.7-53c6.7-13.9,11.8-28.5,15.3-43.5
	c4-16.4,6.4-33.1,7.2-49.9c-0.3-9.6-7.9-17.4-17.5-18.1l-86.9-5.7c-10.1-0.7-18.9,6.7-19.9,16.7c-1.1,13-3.5,25.8-6.9,38.4
	c-1.9,6.2-4.3,12.3-7.2,18c-2.1,3.9-4.7,7.4-7.6,10.7c-5.1,5.2-12.1,8.2-19.3,8.2c-7.1,0.3-14.1-1.7-19.9-5.9c-3.2-2.5-6-5.6-8.2-9
	c-3.2-4.6-5.7-9.7-7.3-15c-2.6-8-4.6-16.2-5.8-24.6c-1.5-9.4-2.6-18.9-3.2-28.4c-1-13.7-1.5-27.4-1.6-41.2
	c-0.2-23.3,0.7-46.6,2.7-69.8c1.1-10.5,2.6-20.9,4.7-31.3c1.3-6.1,3.1-12.1,5.3-17.9c3.3-8.2,8.3-15.6,14.8-21.7
	c5.6-4.8,12.9-7.2,20.2-6.6c8.2,0.2,15.8,4.1,20.8,10.7c2.8,3.5,5.1,7.3,6.8,11.4c2.3,5.2,4.2,10.7,5.5,16.3
	c1.9,7.4,3.2,15,3.9,22.7c1,8,1.5,16,1.8,24.1c1,10.2,10,17.7,20.2,16.9l85.8-6.7c10.3-0.8,18-9.7,17.2-20c-0.1-1.4-0.3-4.3-0.4-5.7
	c-1.7-23.1-5.5-46.1-11.6-68.5c-4.9-17.4-11.9-34.2-20.9-49.8c-7.2-12.1-16-23.2-26.2-32.8c-19.3-18-43.4-30-69.3-34.7
	C957.1,1.3,944.1,0.2,931.2,0.4z M1081.7,314.4c4.9,0.3,8.7,4.4,8.6,9.3c-0.1,1.7-0.2,3.4-0.4,5.1v0.1c-1.7,23.8-6.8,47.3-15.2,69.7
	c-6.6,17.1-15.8,33.2-27.1,47.7c-2.8,3.5-5.7,7-8.8,10.3l-2.6,1.2c-0.9,0.9-1.7,1.9-2.3,3c-1.3,1.8-2.9,3.5-4.6,4.9
	c-2.1,1.5-7.3,2.1-9.3,5.8c-0.7,1-1.6,1.8-2.7,2.4c-0.7,0.4-3.5,1.6-5.4,2.5c-1.5,0.8-3.2,3.4-6.7,3.8c-4.6-0.1-13.1,2.9-17.3,4.4
	c-0.8-2.7-1.6-5.5-2.3-8.3c-0.8-3.7-1.4-7.5-1.8-11.3c-0.1-1.8,0.4-3.5,1.5-4.9c0.4-0.5,0.8-0.9,1.3-1.3c2.1-1.7,4.4-3.3,6.7-4.7
	c18.9-11.7,35.2-27.2,47.8-45.5c17.6-25.1,28.7-54.2,32.2-84.6c0.4-3.3,0.8-6.7,1.1-10L1081.7,314.4z M935.5,9.9
	c18.5,0,36.9,3,54.4,9.1c15,5.5,28.8,13.8,40.8,24.4c-0.2,1.1-0.7,2.1-1.3,3c-2.6,3-5.5,5.7-8.5,8.2c-1.3,1-2.9,1.6-4.6,1.7
	c-0.2,0-0.3-0.1-0.5-0.1c1-3,2.2-5.9,3.5-8.7c0.9-2.1,1.3-4.4,1.3-6.6c-0.1-1-0.4-2-0.9-2.9c-1.1-1.4-2.7-2.3-4.4-2.8
	c-1.4-0.2-2.8,0.6-3.4,1.9c-0.7,1.4-1.1,2.9-1.2,4.4c-0.5,2.2-1.3,4.3-2.3,6.4c-0.2,0.7-0.5,1.4-0.7,2.1c-0.2,1.5-0.2,3-0.2,4.5
	c-2.3-3-5.1-5.6-8.3-7.6l-1.6-0.9c-2.3-1.6-4.7-3.3-7-5c-3-2.1-6-0.2-5,1.8c2.2,2.8,3.9,5.9,5.1,9.2c1,3.2,2,6.5,3.1,9.7
	c-7.1,0.4-14.2,0.6-21.3,0.8c-6.1,0.3-12.1,0.9-18.2,1.8l-5.7,0.7c-7.5-0.2-15-0.4-22.5-0.8c-3.9-0.1-7.8,0.2-11.7,0.9
	c-10.4,1.7-20.7,4.4-30.5,8.3c-8.7-6.3-18-11.8-27.6-16.6c-7.7-3.4-16.3-4.2-24.4-2.1c-6.1,1.9-12,4.5-17.4,7.8
	c21.9-26.9,53-44.7,87.3-50.1C912.9,10.7,924.2,9.8,935.5,9.9z M1009.4,86.5c0.3,1.1,0.6,2.2,1,3.3c1.3,4,1,8.3-0.8,12.1
	c-0.3,0.8-1.4,3.5-3.7,3c-1.3-2.5-2.4-5.2-3.1-8c-0.5-2.5-0.7-5.1-0.5-7.6c0-0.6,0.2-1.2,0.3-1.8c0.1-0.2,0.3-0.2,0.6,0.1
	c0.5,1,0.9,2,1.3,3c0.3,0.7,0.7,1.3,1.2,1.8c0.7,0.4,1.7,0.2,2.1-0.6c0.1-0.2,0.2-0.4,0.2-0.6c0.1-1.8,0.4-3.5,0.8-5.3
	C1008.9,85.8,1009.1,85.7,1009.4,86.5z M1039.5,52.1c6.9,7.6,13,15.9,18.1,24.8c1.8,3.1,3.6,6.3,5.2,9.5c-1.9,2.4-4.2,4.5-6.8,6.1
	c-3.5,2.3-7.2,4.1-11.1,5.5c-8.5,3-17.4,4.7-26.5,5c-1,0-1.9,0-2.9-0.1c1.9-4,2.3-8.6,1.4-12.9c-0.3-1.2-0.8-2.4-1.4-3.5
	c-1-2.3-2.3-4.5-3.8-6.6c0.9-0.7,0.6-2.9,0.5-4c1.4,2.5,3.1,4.8,5.2,6.7c1.7,1.5,3.6,2.7,5.6,3.8l4.4,2.7c0.8,0.5,3.5,0.3,3-1
	c-1.2-2.9-2.1-5.9-2.6-9c-0.9-3.7-2.4-7.1-4.6-10.2c1.3-0.2,2.6-0.1,3.9,0.1l7.4,1.1c1,0.1,2,0.2,3,0.2c1.3-0.1,2.2-1.3,2.2-2.6
	c0-0.2-0.1-0.4-0.2-0.6c-1.5-1-3-1.9-4.5-2.9c-1.6-1.4-3.2-2.9-4.6-4.5c2.8-2.8,5.5-5.7,8.2-8.6L1039.5,52.1z M875.3,453.2
	c0.3,3.9,0.1,7.9-0.5,11.8c-0.8,6.1-2.2,12-4.3,17.7c-1.5,0.2-3,0-4.4-0.5c-2.1-0.6-4.1-1.5-6-2.6c1.7-7.9,4.7-15.5,9-22.4
	c1.9-2.6,4-5.1,6.3-7.3L875.3,453.2z M843,63.6c3.5,0.2,7,1.2,10.1,2.9c6.1,2.9,11.9,6.3,17.5,10.1c0.6,0.4-0.1,1.2-0.4,1.2
	c-3.3,0.6-6.7,0.8-10.1,0.7c-9,0.5-17.9,0.1-26.8-1l-8.6-1.4c-2.2-0.4-4.4-1-6.4-2c-0.4-0.3-0.5-0.8-0.3-1.2
	c0.1-0.3,0.3-0.5,0.5-0.7c3.4-2.4,7-4.4,10.8-5.9C833.5,64.2,838.3,63.3,843,63.6z M994.8,308.7l68.9,4.5c0.5,2.5,0.8,5,0.9,7.5
	c-2-1.4-4.2-2.5-6.6-3.2c-3-0.9-3.1,0.8-2.7,3.6c0.9,5.7,1.9,11.4,3,17c-3.7-1.4-7.6-2.1-11.5-2.1c-1.4,0-1.4,1.7-1.1,2.2
	c0.6,1.8,1.2,3.6,1.9,5.4c1.5,4.6,2,9.5,1.4,14.3c-1.4-2.8-3.1-5.4-5.1-7.8c-0.5-0.5-1-0.9-1.7-1.3c-0.4-0.2-1.2-0.3-1.4,1
	l-4.2,21.8c0,0.2-0.2,0.2-0.2,0.1c-1.4-1.9-2.8-3.8-4.1-5.7c-1.4-1.7-3-3.3-4.8-4.5c-1.3-0.8-3-0.3-3.1,1.2
	c-0.3,3.1-0.3,16.1-1,19.7c-0.1,0.1-0.4-0.3-0.7-0.6c-1.9-2.9-4.3-5.4-6.9-7.6c-1.4-1-2.3-1-2.8,2.7c-0.8,4.8-2.7,15.4-2.9,15.8
	c-0.6-1.1-2.7-7.5-3.7-9.3c-0.4-0.6-1.1-0.8-1.8-0.5c-1.7,3.1-3,6.3-4.1,9.6c-1.3,3.5-2.8,7-4.5,10.4l-1,1.7c-0.9-2.7-1.9-5.4-3.1-8
	c-0.3-0.5-0.6-1-0.9-1.5c-0.2-0.3-0.5-0.3-0.6-0.2c-0.6,0.8-1.2,1.7-1.7,2.6c-1.6,2.9-3.2,5.9-4.8,8.8c-1.4,2.5-3,4.8-4.9,6.9
	c-0.5,0.5-1.2,0.7-1.9,0.8c-2.5,0.1-5.1-0.2-7.5-0.8c-4.6-1.4-9.1-3-13.5-4.8c-7.1-2.8-14.3-5.3-21.6-7.5
	c10.5-0.1,20.4-4.7,27.4-12.6c4.2-4.8,7.6-10.3,10.1-16.1c3.3-7.2,5.8-14.7,7.5-22.4c2.2-9.1,3.8-18.3,4.8-27.7l0.6-5.4
	C985.7,311.8,990,308.3,994.8,308.7z"/>
<path class="st0" d="M212,291h-39.6l19.4-85.8L212,291z M327.8,277c-3.5-3-7.2-5.9-10.8-8.8c-3.2-2.5-6.3-5.1-9.4-7.9
	c-2.4-2.3-4.5-4.9-6.4-7.7c-2.1-3-3.8-6.1-5.3-9.5c-1.7-3.9-3.5-7.8-5.4-11.6c-1.5-3.1-3.3-6-5.5-8.7c-3.1-3.6-7.3-6-11.9-7.1
	c-1.8-0.4-3.6-0.8-5.3-1.3c-1.5-0.6-3-1.5-4.3-2.5l-10.9-8.4c-4-3.2-7.8-6.6-11.5-10.2c-3.3-3.6-6.5-7.3-9.5-11.1l-1-1.2
	c-4.9-5.8-9.9-11.7-14.8-17.5c-3.1-3.9-6-8-8.8-12.2c-2.1-3.3-4.3-6.5-6.5-9.7c-2.3-3.3-5.3-6.1-8.8-8c-1.9-1.1-4-1.8-6.2-2.2
	c-0.5-0.1-0.6-0.5-0.6-1c-0.2-3.8-0.4-7.6-0.6-11.4c0.1-1.3,0.4-2.9,0-3.8c-0.7-1.4-5.1-1.6-5.9,0.1c-0.4,2,0.2,3.4,0.1,4.4
	c-0.3,3.7-0.6,6.7-0.8,10.5c0,1.4-0.2,2.8-0.5,4.1c-0.2,0.9-1,1.6-1.9,1.5c-0.8,0-1.5,0.2-2.2,0.5c-1.3,1-2.3,2.2-3,3.6
	c-0.7,1.3-1.1,2.7-1.1,4.2c-0.1,1.5-0.1,3-0.3,4.5c-0.2,1.6-0.8,3.2-1.7,4.5c-1.2,1.8-2.2,3.6-3.1,5.6c-0.6,1.8-0.9,3.7-0.9,5.6
	c0,1.2,0,2.3-0.1,3.4c-0.2,1.2-0.6,2.3-1.1,3.4c-0.8,1.6-1.6,3.3-2.1,5c-0.5,1.5-0.4,3.1,0.2,4.5c0.4,1.3,1.2,2.4,2.3,3.1
	c1.4,0.8,3.1,0.6,4.3-0.4c0.6-0.4,1.2-1,1.5-1.7c0.6-0.9,1.1-1.8,1.5-2.8c0.4-0.5,1-0.9,1.7-1c1.8-0.5,3.5-1.1,5.2-2
	c1.8-1,3.3-2.3,4.6-3.9c0.5-0.7,1.1-1.3,1.7-1.9c1.1-1.1,2.8-1.4,4.1-0.7c0.9,0.5,1.7,1.1,2.4,1.8l0.2,0.2l-29.1,128.9h63.6
	L194.9,176l0,0c1.1,1.3,2.1,2.6,3,4.1c3.4,6.9,6.9,13.8,10.4,20.6c4.4,8.2,9,16.2,13.8,24.1c5.5,9.3,11.2,18.5,17,27.6
	c2.1,3.3,4.3,6.4,6.7,9.4c1,1.3,1.8,2.7,2.4,4.1c0,0.1,0,0.1,0,0.2c0.4,1.1,0.8,2.2,1.3,3.3c1.2,3.2,1.9,6.5,2.1,9.9
	c0.2,2.8-0.4,5.6-1.8,8.1c-1,1.8-1.9,3.8-2.7,5.7c-0.7,2.2-1.1,4.5-1.1,6.8c-0.1,1.7,0,3.4,0.3,5.1c0.6,2.6,1.3,5.2,2.1,7.8
	c3.9,12.6,6.9,25.4,9,38.3c0.1,0.7,0.2,1.4,0.2,2.1c-0.6,2.4-1.3,4.7-2.1,7c-3.1,10.2-6.5,20.2-10.3,30.2c-1.3,3.4-2.3,7-3,10.6
	c-0.1,0.8-0.2,1.6-0.2,2.4H137.6L121.8,475v-10.4c0.2-5.9,0.6-11.8,1.3-17.7c2-21.4,4.6-42.7,7.7-64c1.2-7.6,2.4-15.2,3.4-22.8
	c1.1-9.3,1.8-18.7,2.2-28.2c0.2-7.7,0-15.5-0.5-23.2c-0.5-10-1.2-20-2-30c-0.8-7.7-2-15.3-3.7-22.8c-1.6-7.1-2.9-14.2-4-21.3
	c-0.6-4.1-0.9-8.2-0.8-12.3c0.1-2.7,0.4-5.4,1-8.1c0.6-2,1.8-3.8,3.5-5.1c2.6-1.9,5.4-3.5,8.4-4.6c1.7-1,3.2-2.3,4.4-3.9
	c0.5-0.8,0.8-1.8,0.9-2.8c0.3-1,0.1-2.1-0.4-3c-0.5-0.7-1.2-1.3-2-1.5c-2.1-0.8-4.4-0.6-6.3,0.7c-2,1.3-4,2.4-6.1,3.4
	c-1.7,0.8-3.5,1.1-5.4,0.8c-0.7-0.3-1.1-0.9-1.1-1.6c-0.2-4.8-0.3-9.6-0.3-14.5c-0.2-7.4,0-14.8,0.5-22.2c0.2-2.4,0.9-4.8,1.9-7
	c2.5-5.3,5.4-10.4,8.9-15.1c0.4-0.5,0.8-0.9,1.4-1.2c0.3-0.1,0.7,0,1,0.1l3.6,2c1.7,0.8,3.4,1.4,5.2,2l8.5,3.4
	c1.8,0.8,3.8,1.2,5.7,1.2c1.5-0.1,2.9-1,3.6-2.4c0.3-0.9,0.1-2-0.6-2.7c-0.6-0.5-1.1-1-1.7-1.4c-1-0.9-1.9-1.9-2.7-2.9
	c-1.3-1.4-3-2.4-4.8-3.1c-2.6-1-5.3-1.9-8.1-2.7c-2-0.7-4-1.7-5.9-2.8c3.6-6.4,7.3-12.8,11.1-19c5.1-8.6,9.5-17.6,13.3-26.9
	c3.9-9.3,8.1-18.6,12.7-27.7c1,0.2,2.1,0.4,3.1,0.7c2.3,0.9,4.3,2.5,5.8,4.5c0.9,1,1.8,1.9,2.8,2.7c1.1,0.6,2.3,1,3.5,1
	c2.6,0.2,5.1-0.5,7.3-1.8c0.9-0.7,1.6-1.7,2-2.8c0.7-1.6,1-3.4,0.9-5.2c0-0.2,0.1-0.3,0.2-0.4c1.6,0.5,3.2,0.8,4.9,0.9
	c1.3,0.1,2.6,0.1,3.9,0c1.7-0.3,3.4-1,4.8-2c0.9-0.6,1.7-1.2,2.4-2c0.7-1,1.3-2.1,1.8-3.2c2.2,1.5,4.8,2.3,7.4,2.4h1.2
	c2-0.2,3.8-1.2,5-2.8c1.2-1.5,2-3.3,2.4-5.2c0.1-0.6,0.4-1.1,0.7-1.6c0.3,0,0.5,0.1,0.7,0.2l3.5,1.6c2.4,1,5.1,1.5,7.8,1.3
	c3.2-0.4,6.2-1.8,8.7-4c2.1-2,3.6-4.6,4.3-7.4c0.3-0.9,0.5-1.8,0.6-2.8L327.8,277z M150.9,0.4c-8.2,0.4-15.2,6-17.4,13.9L1.1,486.5
	c-2.8,10.2,3.1,20.7,13.3,23.5c0,0,0,0,0,0c1.5,0.4,3.1,0.6,4.7,0.7h89.8c8.7-0.2,16.2-6.4,18.1-14.9l18.3-82.6H239l18.6,82.6l0,0.1
	v0.2c1.9,8.4,9.4,14.5,18,14.7h100c10.5-0.3,18.8-9,18.5-19.5c0,0,0,0,0,0c-0.1-1.5-0.3-3-0.6-4.4L267.7,14.5
	c-2.2-8.2-9.5-14-18-14.1h-98.5L150.9,0.4z M160.3,52.2c1.1,0,2.1,0.1,3.2,0.4v0.1c-0.1,0.8-0.3,1.5-0.7,2.2
	c-2.4,5.2-5.1,10.3-8,15.3c-4.7,8.8-9,17.8-12.8,27.1c-3,7.4-6.5,14.5-10.5,21.3c-2.8,4.7-6,9.2-9.5,13.5c-1.3,1.5-2.9,2.9-4.5,4.1
	c-0.6,0.4-1.2,0.6-1.9,0.6c-0.5-0.1-0.9-0.5-1.2-0.9c-0.6-0.9-1-1.9-1.2-3c-0.5-1.9-0.9-3.8-1.3-5.8L127,72.5
	c4-1.4,7.8-3.3,11.2-5.9c1-0.8,2.2-1.3,3.5-1.4c1.3,0,2.6-0.1,3.9-0.2c1.2-0.1,2.2-0.6,3.1-1.3c2.5-1.6,4.7-3.6,6.5-6
	c1.1-1.7,1.9-3.6,2.2-5.6L160.3,52.2z M96,229.1c4.5,2.2,8.5,5.3,11.8,9.2c1.6,2.2,2.7,4.8,3.1,7.5c0.9,5.3,1.7,10.6,2.4,15.9
	c0.9,5.5,2.1,11,3.7,16.4c1.4,5.7,2.6,11.4,3.5,17.1c1.1,9.7,1.4,19.4,0.9,29.2c-0.7,16.3-2,32.5-3.8,48.7
	c-1.1,7.9-2.3,15.9-3.8,23.7c-1.2,7.1-2.4,14.2-3.4,21.3l-0.4,3.3c-1.5,14.6-2.8,29.2-3.9,43.8c-0.4,6.2-0.6,12.3-0.4,18.5
	c-0.1,3.5-0.4,7-0.8,10.5c-0.8-0.4-1.7-0.7-2.7-0.9c-0.2,0-0.4,0.1-0.6,0.1c-0.2,0.1-0.4,0.3-0.6,0.5c-0.5,0.5-1,1.1-1.4,1.7
	c-0.2,0.2-0.4,0.3-0.7,0.5h-0.2l-0.4-0.2l-0.2-0.2c-0.2-0.1-0.4-0.2-0.6-0.3c-0.7-0.2-1.4-0.2-2.1,0c-1.4,0.5-2.8,0.9-4.2,1.3
	c-0.8,0.3-1.6,0.1-2.2-0.4c-0.7-1-1.5-1.8-2.3-2.6c-0.8-0.7-1.6-1.2-2.6-1.6c-1.2-0.4-2.4-0.4-3.6,0c-1.2,0.3-2.4,0.4-3.7,0.1
	c-3.5-0.5-6.9-1.8-9.9-3.7c-0.8-0.3-1.7-0.2-2.5,0.1c-1.6,0.7-3.2,1.4-4.7,2.2c-2.4,1.1-4.9,1.8-7.5,2.2c-2.1-0.5-4.4-0.6-6.5-0.3
	c-1.6,0.4-3.1,1.2-4.4,2.3c-1.3,0.9-2.6,1.7-3.9,2.4c-2.7,1-5.7,0.3-7.6-1.8c-0.3-0.3-0.5-0.5-0.7-0.8c-1.4-1.9-2.8-3.7-4.1-5.5
	c-0.7-0.9-1.5-1.6-2.4-2.1c-2.1-0.5-4.2-0.5-6.3,0.1h-0.4c-0.4,0-0.9-0.1-1.3-0.3h-0.3c-0.5,0.1-1,0.3-1.4,0.6
	c-0.5,0.5-1.2,0.8-1.9,1.1l74.8-266.7C88.6,224.4,92.2,226.9,96,229.1z M281.9,348.8c1.3,0.3,2.5,0.8,3.5,1.6c1.3,1.1,2.7,2,4.1,2.8
	c1.7,0.7,3.6,1,5.4,0.9c2.6-0.2,5.1-0.4,7.7-0.6c1.1-0.1,2.3-0.1,3.4,0.2c0.8,0.3,1.4,1.1,1.5,2c0.2,1,0.2,2,0.2,3.1
	c0,6.3-0.3,12.5-1,18.8c-0.5,7-0.9,14.1-1.1,21.2c-0.3,8.5-0.7,17-1.2,25.5c-0.2,2.5-0.5,5-1.1,7.4c-0.7,1.8-1.2,3.5-1.7,5.4
	c-0.2,1.8-0.2,3.7,0.2,5.5c0.2,1,0.2,2.1,0,3.1c-0.9,4-1.9,8-3.2,11.8c-1.4,4.5-2.9,8.9-4.2,13.4c-2,7.2-3.8,14.4-5.5,21.6
	c-2.2,0.8-5.7,0.2-6.8-0.6c-1.2-0.6-4.6,0.2-6.3,0.9c-1.5,0.3-3,0.2-4.5-0.3c-0.9-11-1.4-22.1-1.5-33.2c0.1-8.8,0.4-17.7,1-26.5
	c0.3-3.7,0.8-7.3,1.5-10.9c0.3-2.3,0.4-4.6,0.3-6.9c-0.1-2.3-0.2-4.7-0.3-7c0.2-6.2,0.2-12.4,0.1-18.6v-1.3
	c-0.1-4.1-0.2-8.2-0.4-12.3c-0.2-4.3-0.1-8.5,0.2-12.8c0.3-2.4,0.9-4.8,1.9-7.1c0.5-1.5,1.1-2.9,1.9-4.3c0.4-0.6,0.9-1,1.6-1.3
	c1.2-0.8,2.5-1.3,3.9-1.3L281.9,348.8z M104.6,152.9c1.9,7,3.3,14.2,4.2,21.4c1.3,8.8,2.1,17.6,2.6,26.5c0.5,6.7,0.9,13.3,1,20
	c0,1.1-0.1,2.1-0.2,3.2c-2.6-1.7-5.3-3.2-8.2-4.5c-3.3-1.7-6.4-3.9-9.1-6.5c-1.4-1.3-3-2.4-4.8-3.2c-0.3-0.1-0.9-0.4-1.3-0.5
	l15.8-56.4L104.6,152.9z M339.2,328.2c0.2,0.6,0.4,1.2,0.5,1.8c0.8,3.7,1.1,7.4,1.1,11.1c-0.1,6.4-0.3,12.7-0.6,19.1
	c-0.3,4.7-0.4,9.5-0.3,14.2c0.2,4.6,0.8,9.1,1.8,13.6c1.7,6.9,2.9,14,3.8,21.1c0.4,4,0.7,8.2,1.8,12.1c0.2,1.1,0.6,2.2,1.2,3.2
	c0.4,0.7,2.4,0.4,2.7-1.4l0.3-1.3l1.8,5.5c0.9,2.3,1.3,5,2.5,7.2c1.4,2.2,3-0.5,2.9-1.1c-0.4-1.9-0.8-3.8-1.2-5.7v-0.1
	c1.1,1.2,2.2,2.5,3.3,3.8c1.1,1.4,2,3.1,3.3,4.2c0.8,0.6,1.9,0.4,2.5-0.4c0.2-0.3,0.4-0.7,0.3-1.2c-0.2-1.1-0.5-2.1-1.1-3
	c-1.9-4.1-4.2-8-7-11.5c-0.8-1.1-1.5-2.2-2-3.5c-1.7-3.1-3.2-6.3-4.5-9.5c-1.8-5-3-10.2-3.5-15.5c-0.6-4.7-1.2-9.3-1.8-14
	c-0.7-6.1-0.7-12.4,0-18.5c0.2-2.5,0.5-5,0.6-7.5l35.6,133.8c-0.6,0.3-1.1,0.6-1.7,0.9c-2.4-0.3-4.8-0.8-7.1-1.5
	c-4.4-1-8.8,1.9-9.7,3.1c-1.3,1.7-2.7,3.4-4,5c-1.8,2-4.5,3-7.2,2.6c-1.6-0.3-3-0.9-4.3-1.9c-1.6-1.2-3.4-2.1-5.2-2.9
	c-1.5-0.4-3-0.6-4.6-0.5c0.1-1,0.2-2.1,0.2-3.1c0-3.9-0.1-7.8-0.4-11.7c-0.7-11.4-1.1-22.8-1.2-34.2c-0.1-8.3,0.4-16.6,1.5-24.8
	c0.6-4.3,0.8-8.6,0.8-12.9c0-2.6-0.3-5.3-0.9-7.9c-0.6-2-1.4-4-2.3-5.9c-1.4-3-2.6-6.1-3.6-9.2c-1.2-3.7-1.7-7.5-1.5-11.3
	c0.3-3,0.8-6,1.6-8.9c1.6-6.1,2.6-12.4,2.9-18.8c0.1-2.5,0.4-4.9,0.8-7.4c0.4-1.7,0.9-3.4,1.7-5C339,328.3,339.1,328.2,339.2,328.2
	L339.2,328.2z M260.4,385.2c0.7,9.7,1.4,19.5,2.3,29.2c0.3,2.5,0.7,4.9,1.3,7.3c0.4,2.6,0.5,5.3,0.3,8c-0.4,7.5-0.9,15-1.5,22.5
	c-0.3,2.1-0.3,4.3,0,6.4c0.1,0.4,0.2,0.8,0.3,1.2c0,4.4-0.1,8.7-0.3,13.1l-0.2,1.6l-8.5-37.9c-0.1-3.1-0.3-6.2-0.7-9.3
	c-0.5-4.5-0.7-9-0.7-13.5c0-2.8,0.2-5.5,0.8-8.2c0.4-1.4,0.9-2.8,1.6-4.1c0.5-1.3,0.8-2.7,0.9-4.1c0-1.8,0.1-3.5,0.4-5.2
	c1.1-3,2.5-5.9,4-8.7L260.4,385.2z M323.4,397.7c0.3,0.6,0.6,1.2,0.8,1.9c1.5,4.5,2.5,9.1,3,13.8c0.6,4.1,1,8.2,1.2,12.4
	c0.4,5.6,0.6,11.1,0.8,16.7c-0.4,1.7-0.6,3.5-0.4,5.2l0.1,0.5c0.3,1.1,0.6,2.1,1,3.1c0.6,4.7,1,9.5,0.9,14.3
	c0.1,5.6,0,11.1-0.2,16.7c-0.1,2.1-0.5,4.2-1.1,6.2c-1.9-0.6-3.7-1.4-5.5-2.4c-1.1-0.5-4.9,0.1-5.6,0.6c-4,2.4-7.2,2.5-11.8,2.7
	c-3.6,0.1-3,0.8-8.6,1.7c1.3-5,2.5-10,3.6-15c1.6-7.4,3-14.8,4.3-22.3c0.5-3,1.4-6,2.6-8.8c1.7-4.4,2.9-9,3.6-13.7
	c0.5-2.1,1.3-4,2.3-5.9c1-1.9,2-3.7,3-5.6c1.3-2.8,2.2-5.6,2.9-8.6c0.6-2.5,1.1-5,1.5-7.5c0.3-1.8,0.7-3.6,1.2-5.4
	c0.1-0.2,0.1-0.3,0.2-0.5C323.3,397.7,323.3,397.7,323.4,397.7z"/>
<path class="st0" d="M718.1,439.3c0.7,0,1.5,0.2,2.1,0.6c-1.6,2.8-3.4,5.5-5.2,8.2c-1.9-1.6-3.6-3.5-4.9-5.7
	c-0.1-0.2-0.4-0.7-0.3-0.9c0.2-0.7,1.1-1.1,1.8-1.2c2-0.5,4-0.9,6-1L718.1,439.3z M423.3,0.4c-10,0.5-17.9,8.6-18.1,18.6v473.2
	c0.3,10.1,8.5,18.2,18.6,18.4h155.8c18.7,0,37.3-1.4,55.8-4.1c9.9-1.6,19.6-3.9,29.1-7c10.8-3.7,20.9-9.1,30-15.9
	c11.8-9.2,22.1-20.3,30.2-32.9c9.8-15,16.6-31.6,20.2-49.2c2.8-13.2,4.2-26.6,4.1-40.1c0-14.9-1.7-29.7-5.1-44.2
	c-3.7-14.7-9.9-28.7-18.3-41.3c-8.2-12.1-18.6-22.5-30.6-30.9c14.9-11.9,26.3-27.7,32.9-45.6c2.8-7.5,4.9-15.2,6.3-23
	c2-10.7,3-21.5,2.8-32.4c0.1-15.8-1.6-31.6-5.2-47c-3.7-15.2-9.9-29.8-18.3-43c-6.3-9.7-13.8-18.6-22.5-26.3c-9.4-8-20.3-14-32-17.8
	c-5.8-1.8-11.6-3.3-17.6-4.3c-7.9-1.6-15.9-2.7-24-3.3l-9.2-0.7c-0.2,0-0.5-0.1-0.7-0.1c-9.8-0.6-19.5-1-29.4-1H423.6L423.3,0.4z
	 M661.8,21c4.1,1.7,8.2,3.7,12,6c8.1,4.9,15.4,11.2,21.5,18.5c10.8,12.5,18.9,27.1,24,42.8c2.6,7.7,4.5,15.6,5.7,23.6
	c3.6,21.9,3.3,44.3-0.9,66.2c-2.6,12.7-7.4,24.9-14.1,36c-8.1,12.9-19.3,23.7-32.5,31.3c17.6,9.4,32.5,23.4,43,40.4
	c6.4,10.6,11.2,22.1,14.1,34.1c1.9,7.3,3.1,14.7,3.8,22.2c1.2,11.2,1.3,22.6,0.4,33.8c-0.2,2-0.3,3.8-0.5,5.9
	c-1.6,18.4-6.8,36.2-15.2,52.6c-3.5-1.5-7.1-2.8-10.7-3.9c-2.3-0.7-4.6-1.1-7-1.3c-2.7-0.1-5.4-0.3-8.1-0.3
	c-2.3-0.4-4.6-0.5-6.9-0.4c-4.1,0.1-8.1-0.6-12-2.1c-2.4-1.1-4.8-2.2-7.2-3.3c-3.1-1.4-6.5-2.1-9.9-2.1c-2.4,0-4.7-0.1-7.1-0.3
	c-0.6,0-1.8,0-1.7-0.7c0.2-0.6,0.6-1.1,1.1-1.6c0.8-0.7,1.5-1.5,2.2-2.3c0.3-0.4,0.4-0.9,0.1-1.4c-0.1-0.1-0.3-0.3-0.5-0.4
	c-1-0.3-2-0.4-3-0.2c-1.2,0.2-2.5,0.3-3.7,0.4c-0.5,0-0.5-0.3,0.8-2.1c1.5-2,2.9-4,4.4-6.1c0.3-0.4,0.4-1,0.2-1.5
	c-0.1-0.1-0.2-0.2-0.4-0.2c-0.6-0.1-1.3-0.1-1.9,0.1c-2.1,0.4-4.1,0.9-6.1,1.5c-2.6,1-2-0.8-1.9-1.2c0.6-1.4,1.1-2.9,1.7-4.3
	c0.2-0.5,0.2-1.1,0-1.6c-0.2-0.4-0.6-0.6-1.1-0.6c-1.3,0.1-2.7,0.3-3.9,0.8c-1.2,0.4-2.3,0.8-3.5,1.1c-0.6,0.1-1-0.5-0.5-1.6
	c0.6-1.5,1.2-3,1.9-4.4c0.3-0.7,0.5-1.4,0.6-2.1c0.1-0.6-0.2-1.3-0.8-1.5c-0.6-0.1-1.2,0-1.7,0.3c-1.3,0.7-2.5,1.5-3.6,2.5
	c-1.3,1.1-2.6,2.2-4,3.2c-0.8,0.6-1.3,0.1-1.1-0.9c0.5-1.8,1-3.5,1.4-5.3c0.2-0.8,0.3-1.7,0.1-2.5c-0.1-0.4-0.4-0.8-0.8-0.9
	c-0.1,0-0.3,0-0.4,0c-0.7,0.1-1.3,0.5-1.7,1c-1.6,1.6-3.2,3.2-4.7,4.9c-0.5,0.6-1.3,1.6-1.7,1.6c-0.2,0-0.3-0.8-0.3-1.2
	c-0.1-2.1-0.3-4.2-0.5-6.2c-0.1-0.7-0.3-1.3-0.6-1.9c-0.8-0.6-1.6,0.1-2.2,1c-1.7,2.8-3.3,5.7-4.9,8.6c-0.8-2.8-1.7-5.6-2.8-8.4
	c-0.2-0.4-0.6-0.7-1.1-0.7l-0.3,0.1c-0.5,0.3-0.8,0.8-1,1.4c-0.5,1.7-1,3.4-1.3,5c-0.3,1.3-0.7,2.6-1.1,3.9c-1-1.4-1.9-2.8-2.8-4.3
	c-0.5-0.9-1.2-1.8-1.8-2.6c4-3.8,7.2-8.5,9.2-13.7c1.4-3.5,2.3-7.2,2.9-10.9c2.1-13,1.5-26.2-1.7-39c-1.2-4.2-3-8.3-5.5-11.9
	c-3.2-4.4-7.4-7.8-12.4-10c-5.1-2.4-10.5-4-16-4.7c-4.3-0.7-8.7-1-13.1-1.1h-9.2c-0.8-2.9-1.9-5.6-3.3-8.3c-2-4.2-4.9-7.9-8.6-10.8
	c-1.4-1-2.8-1.8-4.3-2.5c-0.3-0.2-0.2-0.4,0.2-0.5c3.7-0.5,7.5-0.4,11.2,0.4c2.2,0.2,2.1-1.2,1.1-2.2c-0.7-0.6-1.5-1.1-2.4-1.5
	c-6.7-3.5-14.1-5.2-21.6-5.2c-1.1,0-2.2,0.4-3.1,1c-6.4-2.7-13.6-2.7-20,0c-3,1.2-5.4,3.3-7.1,6.1c-0.8,1.2-1.3,2.6-1.7,4
	c-0.2,1-0.1,2,0.3,2.9c0.4,0.5,1.1,0.7,1.8,0.5c3.3-0.9,6.8-1.2,10.3-0.8c0.2,0,0.4,0.2,0.2,0.3c-0.7,0.4-1.5,0.7-2.2,1
	c-4.6,2-8.6,5.4-11.5,9.5c-0.7,1.1-1.1,2.3-1.1,3.6c0.1,1,1,1.7,2,1.6c0.2,0,0.5-0.1,0.7-0.2c1.9-0.7,3.8-1.5,5.6-2.4
	c1.9-0.8,3.9-1.2,6-1.3c0.2,0,0.5,0.1,0.5,0.4c0,0.9-0.3,1.7-0.8,2.5c-1.3,1.3-2.6,2.6-3.9,3.9c-6.4,6.1-12,13-16.9,20.4l-2.7,4.2
	c0.1-12.7,0.6-25.3,1.4-38c0.8-6.6,1.4-13.2,1.9-19.8c0.3-3.4,0.7-6.8,1.1-10.2c0-1.9,0.4-3.7,1-5.5c2.7-8.6,5.7-17.1,8.9-25.4
	c1.6-4.4,3.1-8.8,4.5-13.2c3-8.9,7.6-17.2,13.5-24.5c1.7-2.4,3.7-4.6,5.9-6.6v0.1c-1,2.6-1.4,5.4-1,8.1c0.3,1.5,1.2,2.7,2.4,3.6
	c0.8,0.5,1.9,0.2,2.3-0.6l0.1-0.2c0.5-1.6,0.8-3.1,1.2-4.7c0.2-0.6,0.5-1.2,0.7-1.8v13.5c8.9,0.1,17.8,0.1,26.7-0.1
	c8.1-0.2,16.3-1.2,24.2-3c4-1,7.9-2.6,11.5-4.6c1.9-1.2,3.7-2.6,5.3-4.2c3.6-4.9,6.3-10.3,8.1-16.1c2-6.2,3-12.7,3.2-19.2
	c2.1,0.2,4.1,0.6,6.1,1.2l0.1,0.1v0.1c-1.4,3.2-2.3,6.7-2.7,10.1c-0.6,3.9-0.6,7.8,0,11.7c0.5,1.5,1.3,2.9,2.1,4.1
	c2.8,4.4,6.2,8.3,10.2,11.6c1.9,1.6,3.7,3.3,5.4,5c-2.1,2.5-3.8,5.4-5,8.4l-0.3,0.9c-0.5,4-0.6,8-0.4,11.9c0.1,1.3,0.6,2.5,1.4,3.4
	c0.6,0.6,1.4,0.8,2.2,0.7c2.7-0.4,5.1-2,6.4-4.4c0.2-0.5,0.2-1,0.2-1.5c-0.2-1.4-0.2-2.8-0.2-4.2c0.2-2.5,0.9-4.9,1.8-7.2
	c0.7-1.6,1.4-3.3,2-4.9c1-2.7,0.7-5.7-0.8-8.2c-1-1.8-2-3.6-3-5.4c-0.8-1.8-1.2-3.8-1.3-5.8c-0.1-0.9-0.4-1.8-0.7-2.6
	c-1.1-2-2.5-3.9-4.2-5.5l-2.3-2.4c1.6-1.8,3.1-3.7,4.2-5.9c0.9-2,1.6-4.1,1.9-6.3v-0.8l0.1-0.2h0.1c1.2,0.4,2.5,0.8,3.7,1
	c3.1,0.1,6.3-0.7,9-2.2l1.4-0.8c0.4,0.5,0.9,1,1.5,1.3c3.5,2,7.1,3.7,10.8,5.2c0.4,0.2,0.8,0.5,1.1,0.8c0,0.1,0,0.2,0,0.2
	c-1.4,1.6-2.6,3.3-3.6,5.1c-0.9,2.2-1.4,4.5-1.6,6.9c-0.1,2.2-0.3,4.3-0.5,6.4c-0.2,1-0.4,2-0.7,2.9c-0.3,1.5-0.2,3.1,0.4,4.5
	c0.7,2.7,2.3,5,4.7,6.5c1.5,1.1,3.1,2,4.7,2.8c2.4,1.3,4.8,2.9,6.9,4.7c2.7,2.1,5.7,3.6,9,4.4c1.3,0.1,2.6-0.8,2.8-2.1
	c0.2-0.6,0.2-1.2,0-1.8c-0.5-3.3-2.2-6.3-4.7-8.5c-2.5-2.3-5.3-4.1-8.4-5.4c-1-0.4-2-0.9-3-1.4c-2.6-1.6-3.6-4.8-2.2-7.5
	c0.9-1.7,2-3.4,3.1-5c2.1-3.1,4.1-6.3,5.9-9.7c1.3-2.5,1.7-5.4,1-8.2c-0.4-1.2-1.1-2.3-2-3.1c-1.7-1.5-3.5-2.8-5.5-4
	c-4.6-3.1-9.2-6.2-13.8-9.3c0-0.2,0-0.3,0.1-0.5c0.5-1,0.9-2.1,1.4-3.1c1-2.9,1-6.1,0.1-9.1c-1.2-4.5-3-8.8-5.5-12.7
	c-2.7-3.7-5.4-7.3-8.3-10.8c-0.6-0.9-1.1-1.8-1.4-2.8c-0.1-0.5,0-0.9,0.2-1.4c0.4-1.4,1.1-2.7,1.8-3.9h0.1c0.8,0.1,1.5,0.4,2.2,0.7
	c2.6,0.9,5.2,1.5,7.9,1.9c1.3,0,2.5-0.4,3.5-1.3l1.5-1.6c1.6,0.9,3.5,1.1,5.3,0.5c1.1-0.6,1.9-1.6,2.2-2.8c0.2-1.6-0.1-3.1-0.7-4.6
	l-0.7-1.4c0.5-1.7,0.8-3.5,0.8-5.3v-2.2c-1.4-3.6-3.8-6.6-6.9-8.9c1.9-1.9,3.8-3.9,5.5-6c0.4-0.5,0.7-1,1-1.6
	c0.4-11.5-0.6-23.1-2.7-34.4l-0.2-1.4c0.3-1.8,3.9-4.6,5.1-6.6L661.8,21z M562.9,307.5c6.3,0,12.6,0.8,18.8,2.4
	c3.9,1.1,7.5,2.8,10.9,5c3,2.2,5.3,5.1,6.7,8.5c1.1,2.5,2,5.1,2.5,7.8c2.4,11.6,2.5,23.5,0.2,35.1c-0.8,3.6-2.1,7-3.9,10.2
	c-3.3,5.6-8.4,9.8-14.5,11.9c-4.8,1.7-9.7,2.8-14.8,3.1c-2.1,0.2-4.2,0.3-6.3,0.3h-26.2v-84.2H562.9z M611,11.2
	c10.6,0.7,21.1,2.1,31.5,4.2c-6.1,1.4-18.3,4.7-24.3,6.7c-2.5-1.9-7.5-5.6-10.8-7.1c1-1.3,2.1-2.6,3.2-3.9L611,11.2z M423.4,79.4
	c0.6,0.4,1.2,0.8,1.6,1.4l2.5,2.4c1.6,1.3,3.5,2.2,5.6,2.4c3,0.2,4.1,3.6,4.2,4.2c4.1,11.2,8,22.5,11.8,33.9
	c1.8,6,3.2,12.1,4.1,18.2c1.2,7.1,2.5,14.1,4.1,21.1c0.6,3.1,1.2,6.3,1.7,9.4c0.7,2.6,1.4,5.2,2.1,7.8c2.2,9,3.7,18.2,4.5,27.4
	c0.7,7.5,1.6,14.9,2.6,22.3c0.2,4,0.4,7.9,0.5,11.9c0.1,1.5,0.3,2.9,0.5,4.4c0.3,3,0.2,6-0.1,9c-0.1,0-0.2,0-0.3-0.1
	c-0.5-0.7-0.8-1.4-1.4-2.1c-2.8-4.1-5.7-8-8.9-11.7c-8.9-11.1-18.5-21.7-28.6-31.8c-4-3.7-8.3-7.3-12.7-10.5l-2.4-1.8l0-120.2
	C417.2,76.8,422,78.6,423.4,79.4z M487.8,58.4c2.5,0.7,4.9,1.7,7.2,2.9c0,0.4-0.1,0.8-0.3,1.1c-1.2,2.1-2.1,4.3-2.5,6.7
	c-0.3,1.3-0.7,2.6-1.1,3.8c0,0.1-0.1,0.1-0.2,0.1c-0.2-0.6-0.3-1.2-0.3-1.8c-0.4-3.4-1.1-6.8-2.3-10c-0.3-0.9-0.5-1.9-0.7-2.8
	C487.6,58.3,487.7,58.4,487.8,58.4z M423.4,215c6.9,7.2,14.2,13.5,20.7,21.2c3.6,4.4,6.7,9.1,9.5,14.1c3.9,6.7,7.2,13.7,10,20.9
	c0.9,2.4,1.4,4.9,1.7,7.4c2,11.9,3,24,3.1,36.1c0.1,13.3-0.1,26.5-0.6,39.7c-0.3,6.8-0.8,13.6-1.3,20.4c-0.4,7.5-0.6,15.1-0.6,22.6
	c0,12.2-0.4,24.5-1,36.7c-0.5,5.1-1,10.1-1.5,15.2c-0.6,7-0.9,13.9-0.8,20.9c-0.2,4.6-0.6,9.2-1.5,13.8l-0.5,3.6c-2,0.4-4,1-5.9,1.9
	c-1.7,0.7-3.6,1-5.5,1.1c-0.9,0-1.9-0.1-2.8-0.4c-1.4-0.4-4.8-1-6.5,0.1c-0.7,0.5-1.5,1-2.3,1.4c-0.6,0.2-1.2,0.3-1.8,0.2
	c-5.6-0.7-7.7,1.6-8.2,2.1c-0.9,0.8-2.1,1.3-3.4,1.4c-3,0.3-6-0.7-8.3-2.6c-0.5-0.5-0.9-1.1-1.1-1.7V207.8
	C417.8,210,420.7,212.4,423.4,215z M471.2,54.3c1.4,0.2,2.9,0.5,4.3,0.9c0.1,0,0.3,0,0.3,0.2c-0.1,0.5,0,0.9,0.2,1.4
	c2.2,6.6,3.8,13.3,4.7,20.2c1,6.8,1.7,13.7,2.1,20.6c0.2,4.9,0.3,9.7,0.1,14.6c-0.7,10.9-1.9,21.8-3.6,32.6c-0.8,4.5-1.8,9-3.1,13.4
	c-0.4,1.9-0.9,3.8-1.6,5.6c-0.2,0.3-0.4,0.6-0.7,0.8c-0.2,0.1-0.3,0.1-0.5,0c-0.5-0.4-0.9-0.9-1.1-1.6c-1-2.2-1.9-4.4-2.6-6.7
	c-2.1-6.1-4.1-12.3-6.1-18.5c-1-3.7-1.9-7.4-2.6-11.1c-0.9-5-1.9-9.9-2.9-14.9c-0.3-1-0.5-2-0.8-3c0.7,0.4,2.1,1.2,2.8,1.5
	c0.8,0.3,1.6,0,2-0.7c0.3-0.4,0.3-0.9,0.2-1.4c-0.3-3.1-0.8-6.1-1.4-9.2c-1-5.8-2.7-11.5-5-16.9l-1-2.6c0.6,0.3,1.2,0.6,1.7,1.1
	c2.8,2.2,5.5,4.7,7.9,7.3c0.4,0.4,0.9,0.6,1.5,0.7c0.7-0.2,1.2-0.9,1.1-1.6c-0.3-2.6-0.8-5.2-1.7-7.7c-1.1-3.7-2.5-7.2-4.1-10.6
	c3.4,2.3,6.7,4.7,9.8,7.3c0.5,0.4,1.1,0.8,1.6,1.1c0.6,0.4,1.5,0.2,1.9-0.3c0.2-0.3,0.3-0.7,0.4-1.1c0.3-3.2,0.2-6.5-0.4-9.7
	c-0.9-3.3-1.9-6.5-3.2-9.7c-0.2-0.5-0.4-1.1-0.5-1.7C470.9,54.4,471,54.3,471.2,54.3z M556.2,114.9c6.5,0.1,12.9,0.8,19.2,2.1
	c3,0.7,5.8,1.8,8.5,3.1c1.1,0.6,2.1,1.4,3,2.2c1.3,1.5,2.4,3.1,3.3,4.8c2.7,4.8,4.5,10,5.2,15.5c2,13.3-0.8,26.8-8,38.2
	c-1,1.2-2.2,2.2-3.6,2.9c-2.4,1.3-5,2.3-7.7,3c-3.4,1-6.9,1.6-10.4,2c-5.2,0.6-10.4,1-15.7,1h-14v-74.7H556.2z M582.7,51.8
	c0.6,2.7,1.2,5.4,1.8,8.1c1.4,6,3.2,11.9,5.5,17.5c0.4,1.3,1,2.6,1.7,3.8c0.6,0.9,1.4,1.7,2.2,2.3c3.3,2.8,6.7,5.4,10.2,7.9
	c3.8,3.1,7.5,6.3,11.1,9.7l0.7,0.5c0.1,1,0,2-0.2,2.9c-0.5,4.7-1.2,9.4-2.2,14.1c-0.8,3.1-1.6,6.1-2.3,9.2
	c-1.2,5.3-0.6,10.9,1.7,15.9c0.1,0.3,0.2,0.6,0.2,0.9l-0.1,0.1H613c-2.6-0.1-5.1-0.3-7.7-0.8c-0.9-9.6-4.3-18.8-9.9-26.6
	c-2.5-3.2-5.8-5.6-9.6-7.1c0.9-1,1.9-1.7,3.1-2.3c0.8-0.6,1.8-0.8,2.8-0.8c1.4,0,2.7,0.2,4,0.6c1.4,0.6,2.7,1.6,3.7,2.8
	c0.4,0.6,0.6,1.4,0.5,2.1c-0.1,1.1-0.1,2.1-0.2,3.2c0.1,1,0.8,1.9,1.8,2.1c1.8,0.7,3.8-0.1,4.7-1.9c0.6-1.6,0.8-3.4,0.5-5.1
	c-0.6-4.4-3.1-8.2-6.8-10.5c-3.5-2.6-8.1-3.4-12.3-2.2c-2.3,0.7-4.3,2-5.9,3.7c-1.6,1.7-2.9,3.6-4,5.6c-7-1.5-14.2-2.3-21.3-2.3
	h-29.5v35.7c-1.6-0.2-3.3,0-4.9,0.5c-3.4,0.6-6.7,2.2-9.3,4.4c-2.3,2-3.8,4.8-4.5,7.8c-0.1,0.8,0.1,1.7,0.5,2.4
	c0.6,0.5,1.4,0.7,2.1,0.4l4.2-0.7c1.9-0.2,3.9-0.2,5.8,0.1l0.2,0.1c-0.7,0.5-1.5,0.9-2.3,1.2c-4.9,2.1-9.1,5.7-11.9,10.2
	c-0.4,0.8-0.6,1.6-0.7,2.5c0,0.8,0.5,1.5,1.1,1.9c0.6,0.1,1.2,0,1.8-0.3c2-0.9,4.1-1.8,6.1-2.6c1.6-0.6,3.2-0.9,4.8-1
	c0.4,0,0.8,0.1,1.2,0.2c0.1,0.1,0.2,0.2,0.2,0.3c-0.5,0.9-1,1.8-1.6,2.6c-2.6,2.6-5.2,5.2-7.8,7.8c-5.1,5.5-9.7,11.5-13.7,17.8
	c-3.3,4.8-6.4,9.8-9.4,14.8c-0.9,1.6-1.8,3.2-2.7,4.8v0.1c-1.2-14-1.5-28.1-0.9-42.2c0.3-4.6,0.9-9.2,1.8-13.8
	c1.3-7.5,2.9-15,4.9-22.4c0.5-1.6,1.1-3.2,1.9-4.6c4.2-7.5,8.9-14.7,14-21.6c5.3-6.8,11.5-12.9,18.5-18c3.1-2.3,6.1-4.7,9.1-7.2
	c5.6-5.3,11.3-10.5,17.1-15.4c0.6-0.5,1.2,0.2,1.5,0.7c2.9,3.2,5.5,6.6,8,10.2c0.4,0.5,1.1,0.6,1.7,0.3c0.5-0.3,0.8-1,0.8-1.6
	c0-0.3,0-0.7-0.1-1c-0.8-4.6-1.8-9.2-3-13.7c-0.1-0.6-0.2-1.2-0.3-1.8c1.3-1.1,2.8-2.1,4.3-3c0.2-0.1,0.5,0,0.6,0.1
	c3.2,1.2,6.2,2.6,9.2,4.4c0.4,0.3,0.9,0.5,1.4,0.6c1,0.1,1.9-0.7,2-1.7c0-0.2,0-0.3-0.1-0.4c-1.4-2.9-2.9-5.8-4.5-8.5v-0.2v-0.2
	c0.9-0.7,1.9-1.4,3-1.9c1.8-1.2,3.6-2.2,5.5-3.1L582.7,51.8z M645.7,25.3c1.1,1.3,1.9,2.9,2.1,4.6c0.3,1.9,0.4,3.7,0.4,5.6
	c0.1,6.8-0.1,13.6-0.7,20.4c-0.2,1.3-0.6,2.5-1.2,3.7c-1.5,2.3-3.3,4.4-5.3,6.3c-0.5,0.2-1,0.2-1.4,0c-0.9-0.1-1.8-0.4-2.6-0.9
	c-0.9-1.8-1.6-3.6-2.2-5.5v-0.2c1-1,1.5-2.3,1.5-3.7c-0.1-1.6-1.1-3.1-2.7-3.7c-0.7-0.2-1.4-0.1-2.1,0.2c-1,0.4-1.9,1-2.6,1.8
	c-1.8-0.7-3.8-1.1-5.8-1.2c-3.2,0-6.2,1.5-8.1,4c-1.6-0.3-3.3-0.4-4.9-0.4c-2.2,0.6-3.9,2.3-4.4,4.4c-0.1,1.1,0.2,2.1,1,2.9
	c0.9,1.1,2.2,1.8,3.6,2c0.1,0.1,0.3,0.1,0.4,0.2c-0.3,2.2-0.4,4.5-0.2,6.7c0.6,2.4,1.8,4.6,3.6,6.3c1.9,2,3.9,3.9,6,5.7
	c0,0.5-0.1,1-0.4,1.4c-0.2,0.4-0.4,0.8-0.6,1.2l-0.1,0.1h-0.1c-1.4-1.1-2.8-2.2-4.2-3.3c-2-1.5-4-3-6-4.4c-3-1.9-6.1-3.5-9.3-4.9
	l-1.2-0.6l0-0.1c-0.2-0.9-0.3-1.8-0.3-2.7c-0.4-6.4-2.4-12.5-5.9-17.9c-0.7-1.3-1.3-2.6-1.9-3.9c0.4-0.3,0.8,0,1.1,0.1
	c3.3,1.1,6.4,2.5,9.5,4c1.1,0.6,2.4,0.9,3.6,0.9c0.7-0.1,1.3-0.7,1.4-1.4c0.1-0.3,0-0.6-0.1-0.9c-1-1.6-2-3.2-2.8-4.9
	c-1.2-2-2.3-4-3.4-6.1c1.1-0.7,2.3-1.3,3.6-1.8c4.3,1.9,8.5,3.9,12.6,6c0.5,0.2,1.1,0.2,1.6-0.1c0.7-0.4,0.9-1.3,0.6-2
	c-1.6-2.7-3.3-5.3-5.2-7.7c2.5-1.2,5.1-2.3,7.8-3.1c1.4,0.3,2.9,0.8,4.2,1.4c0.8,0.3,2.1,1.1,3,0.8c1.1-0.3,1.8-2.1-0.1-3.6
	c-0.3-0.3-0.5-0.6-0.6-1c1.5-0.7,13.6-4.5,18.1-5.6L645.7,25.3z M622.4,468.1c0.8,0.2,1.4,0.8,1.5,1.5c0.2,1.3,0,2.6-0.5,3.7
	c-0.8,1.6-1.8,3.2-2.9,4.6c-1.4,1.8-2.7,3.6-4.1,5.4c-0.7,1-1.4,2.1-1.9,3.3l-3.2-1.1c-1.6-0.5-3.3-0.8-5-0.9
	c2.8-3.3,5.4-6.8,8-10.3c1.2-1.7,2.7-3.2,4.3-4.6c0.9-0.7,1.8-1.2,2.8-1.6C621.6,468.1,622,468.1,622.4,468.1z M677.4,466.7
	c2.8,0.2,5.5,1,7.9,2.3c2.4,1.3,4.6,2.7,6.8,4.3c-2.1,1.7-4.2,3.3-6.4,4.8c-2.7,0.2-5.5,0.3-8.2,0.1c-3.6,0-7.2,0.7-10.6,2
	c-1,0.3-2.1,0.2-3.1-0.2c-1-0.4-2.1-0.7-3.1-1c-0.7-0.2-1.4-0.2-2.1,0c-1,0.2-2.1,0.2-3.2,0.1c-3.2-0.3-6.5-0.3-9.7,0.1l-0.4,0.1
	c-1.7,0.6-3.3,1.5-4.8,2.6c-1.9,1.4-3.9,2.9-5.8,4.2c-2.3,1.5-5,2.4-7.7,2.6c1.3-3.3,3-6.5,5.1-9.4c2.9-3.9,6.7-6.9,11.2-8.8
	l1.7-0.8c4.1-0.6,8.2-1,12.3-1.4c6.1-0.6,12.3-1.2,18.4-1.8C676.2,466.7,676.8,466.7,677.4,466.7z M522.7,298.2c1.3,2,2.6,4,4,5.9
	v97.1h37.5c7.8-0.2,15.5-1.6,22.9-4.1c2.7-1,5.4-2.4,7.8-4c0.2,2,0.3,4,0.5,6c0,0.8,0,1.6-0.1,2.4c-1.7,1.2-3.3,2.3-5.1,3.4
	c-2.2,1.4-3.9,3.6-4.7,6.2c-0.5,1.6-1.1,3.1-1.7,4.7c-0.4,1.9-1.8,3.6-3.6,4.3c-1.8,0.9-3.9,1.4-5.9,1.5c-1.5,0-3.1,0.1-4.6,0.3
	c-3.5,0.7-5.9,4-5.3,7.6c0.2,1.9,0.6,3.7,1.5,5.4c0.8,1.8,2.6,3,4.6,2.9c1,0,3.3-0.3,3.5,1.3s0.3,3.2,0.6,4.8c0.1,0.8,2,0.7,2.4-0.1
	c0.8-1.7,1.5-3.5,2-5.3c0.2-0.4,0.4-0.8,0.6-1.2c0.7,0.5,1.3,1.3,1.7,2.1c0.2,0.6,0.6,1.2,1,1.8c0.5,0.2,1.1,0.1,1.5-0.3
	c0.4-0.6,0.5-1.4,0.4-2.1c0.1-0.9,0.2-1.7,0.5-2.5c0.7-1.4,2-2.4,3.5-2.9c1.1-0.6,2.4-0.3,3.1,0.7c0.3,1.1,0.3,2.3-0.1,3.3
	c-0.5,1.7-1.3,3.3-2.4,4.7c-1,1.1-2.3,2-3.8,2.3c-0.5,0.1-1.1,0-1.5-0.3c-0.4-0.2-0.8-0.5-1.2-0.7c-0.2-0.1-0.5,0-0.6,0.2
	c-0.4,0.9-0.5,1.9-0.3,2.9c0.5,2.8,1.4,5.5,2.6,8.1c0.5,0.9,1.4,1.5,2.3,1.8c1.9,0,3.8-0.6,5.3-1.7c1.3-1,2.7-2.1,4-3.2
	c2.2-1.9,5-3.1,7.9-3.3c2.5-0.2,5,0.9,6.5,2.9c0.9,1.3,1.1,3,0.8,4.5c-0.4,1.3-1.1,2.5-2,3.5c-2.4,3-4.7,6.1-6.8,9.2
	c-1.9,2.3-3.6,4.7-5.2,7.2c-1.5,2.2-2.7,4.6-3.7,7.1c-0.3,0.9-0.4,1.8-0.4,2.7c-4.8,0.3-9.7,0.4-14.5,0.4c-4.8-0.5-9.6-1.3-14.3-2.2
	c-4.6-1.1-20.7,1-29,5.4c-0.6,0.5-2.5,0.6-3.7,0.4c-2.3-0.3-4.7-0.6-7-1.1c-1.2-0.2-2.3-0.2-3.5,0c-0.6,0.1-1.1,0.4-1.6,0.6
	c-1.6,0.2-3.1,0-4.6-0.5c-3.7-1.6-7-0.6-9.1,0c-2,0.6-4,0.7-6,0.4c-2.2-0.2-4.3-0.6-6.4-1c-1.6-0.2-3.1-0.4-4.7-0.4
	c-0.4-5.8-0.8-11.5-1.1-17.3c-0.3-12.1-0.4-24.2-0.2-36.3c0-6.2-0.1-12.5-0.3-18.7c-0.1-2.3-0.3-4.7-0.6-7c-0.1-2.2-0.2-4.5-0.1-6.7
	c0-9.1-0.3-18.3-0.9-27.4c-0.3-7.9-0.7-15.8-1.1-23.6v-0.3c1.5-4,2.9-8.1,4.2-12.3c4-11.8,10.8-22.4,19.6-31.2
	c0.4,0.5,0.7,1.2,0.8,1.8c0.8,2.2,2.1,4.3,3.8,5.9c0.5,0.3,1,0.5,1.6,0.4c0.5-0.2,0.9-0.6,1.1-1.1c0.4-1.3,0.8-2.6,1-4
	C516.7,305,519.2,301.1,522.7,298.2L522.7,298.2z M559.4,40.7c4.4,0.5,8.8,1.2,13.1,2.3l0,0c-1.9,1.3-3.8,2.4-5.8,3.5
	C564.8,45,561.2,42.1,559.4,40.7z M523.2,48.5c4.5,1.7,8.8,4,12.7,6.9c3,2.1,5.9,4.4,8.5,7c-2.3,2-4.7,3.8-7.1,5.6
	c-13.6,10.6-25.9,23-36.4,36.7c-1.5,1.9-2.9,3.8-4.3,5.7l0,0c0.1-10.9,1.3-21.7,3.6-32.4c0.8-3.7,2-7.3,3.5-10.8
	c0.1-0.2,0.3-0.4,0.5-0.6c0.9,0.5,1.7,1,2.5,1.7c1.9,1.5,3.8,3,5.7,4.5c0.5,0.4,1.1,0.6,1.7,0.7c0.7,0,1.3-0.5,1.5-1.1
	c0.1-0.9-0.1-1.9-0.4-2.7c-1.2-4.4-2.6-8.8-4.1-13.2l-0.1-0.7h0.1c5.3,1.9,10.3,4.6,14.6,8.2c0.9,0.7,2,1.3,3.1,1.8
	c0.7,0.2,1.4-0.2,1.6-0.9c0.1-0.2,0.1-0.4,0-0.6c-0.2-1.1-0.6-2.2-1.2-3.3c-1.8-3.7-3.6-7.3-5.5-10.9
	C523.4,49.6,523.3,49.1,523.2,48.5z M701.8,460.8c0.8,0.1,1.6,0.5,2.2,1c-0.5,0.5-1.9,2.5-2.4,3c-0.5-0.4-1-0.9-1.4-1.4
	c-0.3-0.8-0.3-1.7-0.2-2.5C700.7,460.8,701.3,460.7,701.8,460.8z"/>
<path class="st0" d="M1237.6,9.9l4.5,0.1l4.6,0.1h0.1l4.9,0.2h0.1l4.9,0.2h0.1l4.8,0.3h0.1l4.8,0.4h0.1l4.8,0.4h0.1l4.9,0.5h0.1
	c8.9,1,17.8,2.4,26.6,4.3c-2.4,4.8-5.1,9.4-8,13.9c-1.6,2.5-2.9,5.2-4,8c-1.4,4.2-0.9,8.7,1.2,12.6c0.8,0.8-3,5.4-4.8,7.2
	c-2.2,2.1-4.6,3.9-7.2,5.4c-1.8,1.2-4.6,2.9-6.3,4.2c-2.3,2.4-4.3,5.1-5.8,8c-0.4,0.5-0.9,1-1.4,1.5c-2.3,1.9-4.4,3.7-6.8,5.5
	c-4.5,3.7-8.2,8.3-12,12.7c-4.3,5.1-8.4,8.7-12.6,13.8c-1.2,1.4-2.5,2.7-3.9,3.9c-1.3,1-2.7,1.8-4.2,2.4c-3.1,1.5-6.7,4.2-10,5
	c-1,0.2-1.9,0.4-2.9,0.5c0.8-1.3,1.4-2.7,1.6-4.2c0.1-1.2,0.3-2.4,0.5-3.5c0-0.1,0.1-0.2,0.2-0.2c1.8,0.5,3.5,1.4,4.8,2.7
	c0.2,0.2,0.5,0.2,0.7,0c0.2-0.7,0.2-1.5,0-2.2c-0.2-1.8-0.7-3.5-1.7-5.1c-1.1-1.9-2-3.8-2.6-5.9c-0.3-1.1-0.7-2.3-1.2-3.3
	c-0.5-1.1-1.2-2.1-2-3.1c-1.3-1.6-2.5-3.1-3.8-4.7c-1.3-2.1-2.5-4.3-3.5-6.5c-0.8-1.5-1.6-2.9-2.6-4.3c-2.3-2.6-4.8-4.9-7.5-7
	c-2.7-2.1-5.1-4.5-7.4-7c-0.2-0.2-0.4-0.3-0.7-0.6c-1.3-1.4-2.1-3.1-2.3-5c-0.2-1.3-0.4-2.7-0.5-4.1c-0.2-2.2-1-4.2-2.2-6
	c-1.9-3.1-4.3-5.7-7.3-7.8c-2.3-1.8-4.7-3.3-7.4-4.5c-2-0.8-4.1-1.4-6.3-1.8c-2.2-0.2-4.4-0.2-6.6,0.1c-0.6,0.1-1.1,0.5-1.3,1
	c-0.2,0.6-0.3,1.2-0.2,1.8c0.1,1.4,0.3,2.8,0.6,4.2c-2.1,2.5-3.2,5.5-3.3,8.8c-0.1,1.7,0.1,3.5,0.5,5.2c0.6,2.1,1.9,3.9,3.7,5.2
	c0.2,0.1,0.4,0.1,0.6-0.1c0.2-0.3,0.1-1.3,0-2c-0.1-1.9,0.5-3.9,1.7-5.4c-0.2,1.9,0.6,3.8,2.2,5c0.4,0.4,0.9,0.7,1.4,1v0.1
	c-0.3,0.5-0.6,0.9-1,1.3c-0.6,0.9-0.9,1.9-1,3c0,1.2,0,2.3,0.1,3.5c-1.3,2.2-2.2,4.5-2.8,6.9c-0.1,0.8-0.2,1.6-0.1,2.4
	c0.1,0.5,0.7,0.9,1.2,0.7c0,0,0,0,0,0h0.2c-0.5,4-0.2,8.1,1,11.9c0.2,0.8,0.6,1.9,1.3,2.2c0.5,0.2,1.1,0.1,1.5-0.3h0.1
	c0.6,1.5,1.2,3,1.7,4.6c0.3,0.9,0.8,1.6,1.6,2.2c0.4,0.3,1,0.3,1.4,0l0.4-0.2c0.3,0.6,0.5,1.2,0.8,1.8c0.5,1.1,1.1,2.1,1.9,3
	c0.3,0.3,0.8,0.4,1.2,0.3l0.6-0.1c0.2,1.2,0.5,2.4,0.8,3.6c0.6,1.4,1.6,2.7,2.9,3.5c0.2,0.3,0.4,0.6,0.5,1c0.3,0.7,0.5,1.4,0.9,2.1
	c-9.9-2.8-19.8-5.8-29.9-7c-7.5-0.7-21.4-2.8-28.4-4.1V19.2c0.1-5,4-9,9-9.3L1237.6,9.9z M1160.4,125.3c6.1,1.9,23.3,3.9,25.7,4.2
	c1.9,2.9,3.9,5.6,6.1,8.3c0.5,1.8,1.1,3.6,1.8,5.4c1,3.1,1.6,6.3,1.9,9.6c0.4,4.1,0.7,8.3,1,12.4c0.4,5.5,0.8,11,1.2,16.6
	c0.2,5.9,0.6,11.7,1.1,17.6c0.2,1.7,0.7,3.4,1.4,5c0.1,0.4,0.4,0.8,0.8,1.1c0.3,0,0.5,0,0.7-0.2c0.3-0.4,0.5-0.9,0.6-1.3
	c0.3-1.3,0.6-2.5,0.7-3.8h0.1c0.1,0.5,0.2,1.1,0.1,1.6c0.2,4.3,0.5,8.6,1.2,12.9c0.4,2.1,1.1,4.2,2,6.1c0.5,0.8,1.2,1.4,2,1.8
	c1,0.3,2-0.1,2.5-1c0.5-0.7,0.7-1.6,0.8-2.4c0.7-13,0.8-26.1,0.4-39.2c-0.3-4.9-0.6-9.8-0.8-14.7c-0.2-3.2-0.4-6.4-0.5-9.6
	c0-2.3,0-4.6,0.2-6.9c0-0.1,0.1-0.4,0.2-0.3c0.5,0.5,0.9,1,1.2,1.6c0.9,1.6,1.9,3.2,3,4.7c0.2,0.3,1.1,1.5,2.8-0.4
	c0.4-0.7,0.5-1.4,0.5-2.2c0.1-1.8-0.2-3.5-0.9-5.1c-0.5-1.3-1.2-2.5-2.1-3.6c0.3-0.8,0.6-1.6,0.9-2.4c0.8-3,0.2-6.2-1.6-8.7
	l-0.8-1.2c0.2-0.4,0.3-0.8,0.4-1.3c5.4-0.3,15.6-2.8,20.5-4.3v260.4c-4.5-2.6-9.3-4.7-14.3-6.2c-12.1-3.7-24.3-7.2-36.5-10.5
	c-2.7-0.7-5.5-1-8.4-0.9c-0.8,0-1.7,0.2-2.4,0.5c-0.5,0.2-0.7,0.7-0.6,1.2c0.2,0.6,0.6,1,1.1,1.3c1.1,0.7,2.2,1.5,3.3,2.3
	c-0.1,0.2-0.3,0.3-0.5,0.2c-2,0.4-4,0.6-6,0.6c-1.5-0.1-3-0.1-4.4,0c-0.5,0-0.9,0.3-1.1,0.8c-0.1,0.4,0.1,0.7,0.5,0.9
	c1.3,0.7,2.6,1.3,4,1.8c3.7,1.2,7.4,2.7,10.9,4.4c0.6,0.3,1.1,0.6,1.5,1.1c-1.1,0.3-2.1,0.6-3.2,0.8c-2.8,0.6-5.5,1.4-8.2,2.5
	c-0.6,0.2-1.1,0.6-1.4,1.1c-0.2,0.4-0.1,1,0.3,1.3c0.9,0.5,1.9,0.8,2.9,1c2.4,0.6,4.8,1.3,7.2,2.1c0.3,0.1,0.5,0.2,0.7,0.4
	c0,0,0,0.1,0,0.1c-0.6,0.5-1.2,1-1.8,1.5c-0.6,0.3-0.8,1.1-0.6,1.7c0.3,0.5,0.8,0.9,1.4,1.1c1.4,0.5,2.8,0.8,4.2,0.8
	c3.8,0.3,7.5,0.6,11.3,0.9c1.2,0.1,2.4,0.3,3.6,0.5v0.1c-2.3,1.1-4.4,2.3-6.5,3.6c-0.6,0.4-1,0.9-1.3,1.5c-0.1,0.6,0.2,1.2,0.8,1.4
	c1.2,0.5,2.5,0.9,3.8,0.9c2.8,0.2,5.6,0.5,8.4,0.7h0.2v0.1c-0.6,0.5-1.1,1-1.8,1.5c-0.5,0.4-0.8,0.8-1.1,1.3c-0.3,0.4-0.2,1,0.2,1.3
	c0.7,0.4,1.5,0.5,2.3,0.5c1.9,0,3.9-0.2,5.8-0.4l5.5-0.6c0.8,1.2,1.6,2.3,2.5,3.3c0.1,0.2,0.1,0.5,0,0.8c-0.1,0.8,0.2,1.6,0.8,2.1
	c0.4,0.4,0.7,0.9,1,1.4l0.1,0.2v0.1c-0.4,0.7-0.8,1.5-1.3,2.2c-0.4,0.7-0.2,1.5,0.5,2c0.9,0.6,1.9,1.1,2.9,1.4l0.2,0.1
	c0.1,0,0.2,0.1,0.3,0.2c0,0.5-0.1,1-0.4,1.4c-0.4,0.8-0.3,1.7,0.4,2.3c1.1,0.7,2.2,1.3,3.3,1.9l0.2,0.2v0c0.2,0.7,0.4,1.3,0.7,1.9
	v0.1c-0.4,0.4-0.9,0.6-1.4,0.7c-3.6,0.6-7.3,0.9-11,0.9c-5.7,0.2-11.4,0.4-17.1,0.7c-3.5,0-6.9,0.8-10.1,2.3
	c-0.4,0.1-0.6,0.4-0.8,0.8c0.1,0.5,0.6,0.9,1.1,0.9c1.9,0.4,3.8,0.5,5.7,0.5c5.7,0.3,11.4,0.6,17.1,0.8c0.8,0,1.5,0.2,2.2,0.5
	c0,0,0.1,0.1,0.1,0.1v0.1c-0.8,0.4-1.6,0.8-2.5,0.9c-5.3,1.2-10.6,2.4-16,3.5c-3.4,0.7-6.7,1.7-9.9,2.9c-1.4,0.5-2.8,1.2-4.1,2
	c-0.4,0.3-0.8,0.7-1,1.2c-0.1,0.5,0.2,1,0.7,1.2c1.2,0.5,2.6,0.7,3.9,0.7c3.6-0.1,7.2-0.5,10.7-1c4.1-0.6,8.2-1.1,12.3-1.7
	c0.2,0,0.3,0,0.5,0v0c-2.6,1.6-5.4,2.9-8.2,4.1c-4.2,1.8-8.4,3.7-12.5,5.6c-3.8,1.8-7.3,4-10.6,6.5c-1.6,1.2-3.1,2.6-4.5,4.1
	c-0.5,0.5-0.8,1.1-1,1.8v0.4c0.1,0.5,0.5,0.9,1.1,0.9c1.4,0.1,2.7-0.1,4-0.5c3.8-1,7.5-2.4,11-4.1l1.2-0.5
	c6.8-3.3,13.6-6.5,20.4-9.7c-1.2,0.9-2.5,1.6-3.8,2.4c-5.4,3.6-10.8,7.3-16,11.2c-5.3,4-10.1,8.4-14.5,13.4c-0.9,1-1.7,2.1-2.1,3.4
	v0.2c0,0.6,0.4,1.1,1,1.2c1.2,0.2,2.3,0,3.4-0.5c2.7-1,5.3-2.2,7.8-3.7c5.1-2.9,10-6.2,14.7-9.7c2-1.5,4.1-3.1,6.2-4.6h0.1
	c-4.4,5-8.7,10-13,15.1c-3.5,4.3-6.8,8.7-9.8,13.2l-0.3,0.5h-52.2c-5.1-0.1-9.1-4.2-9.3-9.2v-374
	C1130,120.5,1148.6,121.7,1160.4,125.3z M1316.5,299.6c2.2,2.3,4.6,4.4,7.3,6.1c1.6,1,3.3,1.8,5.1,2.3c3,0.5,5.8,0.8,8.6-0.3
	c1.8-0.7,3.6-1.5,5.4-2.4c0.4-0.3,0.8-0.6,1.2-0.9c7.7,2.8,17.4,4.6,25.3,6.6c3.2,0.8,7.8,1.7,11,2.2c5.9,1,11.7,2.4,17.4,4
	c2,0.6,3.7,1.6,5.3,3c3.6,3.3,6.9,6.9,9.9,10.8c4,5.2,8.7,9.1,12.2,14.7c1.5,2,3,4.3,4.6,6.2c0.6,0.9,1.1,1.8,1.5,2.8
	c-1,1-2.2,1.9-3.5,2.5c-2.8,1.7-5.6,3.4-8.4,5.2c-3.6,2-7.4,3.4-11.4,4.3c-3.6,0.9-6.7,2.9-9.9,4.6c-1,0.5-2.1,1.1-3.2,1.5
	c-2.1,0.8-4.3,1.2-6.5,1.3c-1.9,0-3.3,0.3-4.3-1.4c-1.9-2.5-4.8-4.1-8-4.4c-2.4-0.3-4.8-0.2-7.1,0.3c-2.5,0.5-5,1.1-7.5,1.8
	c-3.1,0.6-6,0.8-8.9,2c-0.9,0.4-0.7,1.7-0.5,2.1c0.4,0.6,1,1.1,1.7,1.2c2.2,0,4.4,0.7,6.1,2.2c1.4,1.2,2.8,2.4,4.1,3.7
	c2.6,2.3,5.8,3.9,9.2,4.5c3.6,0.5,7.1,0.5,10-1.6c0.5-0.5,0.6-0.7,1.7-1.7c0.6-0.4,1.1-0.4,2.3-0.3c0.8,0.1,0.4,0.7,0,1.3
	c-2.5,3.5-5,4.9-8.5,7.4c-2.8,1.9-6.1,3.2-9.4,3.7c-1.9,0.3-3.8,0.6-5.7,0.9c-1.1,0.2-2.1,0.9-2.7,1.8c-0.2,1.2,0.1,2.4,0.8,3.4
	c0.9,0.5,5.8,1,8.1,0.7c4.4-0.5,8.7-1.7,12.8-3.5c2.1-1.1,4.7-2.5,6.3-4.2c2.8-2.9,5.5-6,7.9-9.2c1.8-2.3,3.4-3.3,6-5.1
	c1.9-1.4,4-2.5,6.2-3.4c5.6-2,11.2-3.5,16.6-6c2.4-0.9,5.7-2.9,5.4-1.9c-5.1,16.5-11.6,32.5-19.5,47.9c-7.5,14.2-16.9,27.3-27.9,39
	c-9.4,9.8-20.2,18.3-31.9,25.2c-10.6,6-22.1,10.5-34,13.3c-14.2,3.4-28.6,5.6-43.2,6.5c-9.8,0.7-19.6,1.1-29.5,1h-21.5
	c1.3-2.3,2.4-4.6,3.4-7.1c2.8-6.3,5.2-12.8,7.2-19.4c0.7-2,1.3-3.9,2.1-5.9l0.1-0.1c0.2,4.5,0.4,9,0.7,13.5c0.2,2.1,0.6,4.1,1.1,6.1
	c0.1,0.5,0.4,0.8,0.9,1.1c0.4,0.1,0.8,0,1-0.4c0.8-1.1,1.3-2.4,1.5-3.8c0.5-2.5,0.8-5,0.8-7.5c0.2-4.9,0.4-9.9,0.7-14.8v-0.1l0,0
	c0.6,1,1.1,2.1,1.6,3.2c1.1,2.5,2.4,5,3.8,7.4c0.4,0.6,0.9,1.2,1.4,1.7c0.6,0.6,1.5,0.6,2.1,0.1c0.8-1.2,1.1-2.7,0.9-4.1
	c-0.3-2.5-0.8-4.9-1.7-7.3c-1.8-5.3-3.8-10.6-6-15.7c-0.8-2-1.5-4-2-6.1c0-0.1,0.1-0.2,0.2-0.3c1.4-0.4,3-0.4,4.4,0
	c1.6,0.5,3.3,0.8,5,0.8c2-0.1,3.9-0.9,5.3-2.3c1.4-1.5,2.8-3.1,4.1-4.8c1.1-1.3,2.3-2.6,3.7-3.7c0.2-0.2,0.4-0.2,0.7-0.1
	c0.2,0.5,0.2,1.1,0.1,1.6c-0.4,2-1,4-1.8,5.9c-0.5,1-0.8,2.1-1,3.3c-0.2,0.6,0.1,1.3,0.7,1.6c0.8,0.1,1.7,0.1,2.5-0.2
	c3-0.7,5.9-1.7,8.6-3.1c1.3-0.8,2.6-1.7,3.6-2.8c-0.1,1.6-0.3,3.1-0.4,4.7c-0.2,0.8,0,1.7,0.4,2.4c0.8,1.2,2.4,1.6,3.7,1
	c2.1-0.9,3.6-2.7,4.2-4.9l0.3-1.1c1.1,1.8,2.3,3.6,3.5,5.3c0.7,0.9,1.5,1.7,2.5,2.3c0.7,0.4,1.6,0.4,2.3,0c0.6-0.4,0.9-1.1,1-1.8
	c0.3-1.1,0.5-2.3,0.4-3.5c1.1,1.3,2.3,2.5,3.5,3.8c0.7,0.7,1.5,1.2,2.4,1.5c0.7,0.3,1.6,0.1,2.2-0.4c0.5-0.6,0.7-1.4,0.6-2.2
	c-0.2-1.3-0.6-2.6-1.2-3.7c-1.6-2.9-3.2-5.7-4.8-8.6c-0.4-0.6-0.7-1.4-0.9-2.1v-0.1c0.4,0.1,0.7,0.2,1,0.5c1.8,1.1,3.3,2.5,4.7,4.2
	c2.5,3,5.1,6,7.8,8.9c0.7,0.8,1.6,1.4,2.6,1.9c0.7,0.3,1.5,0.2,2.1-0.4c0.4-0.7,0.5-1.4,0.4-2.2c-0.2-1.5-0.7-3-1.4-4.3
	c-0.4-0.8-0.8-1.7-1.2-2.5c0-0.1,0-0.1,0-0.2h0.1c1.3,0.8,2.5,1.8,3.6,2.9c1.9,1.7,3.7,3.5,5.5,5.2c1.4,1.4,3,2.5,4.7,3.5
	c0.5,0.3,1.1,0.5,1.8,0.6c0.8-0.1,1.3-0.8,1.3-1.6c0.1-1.2,0.1-2.4-0.2-3.6c1.3,0.6,2.5,1.2,3.7,2c1.6,0.9,3.3,1.7,5.1,2.3
	c0.7,0.3,1.5,0.3,2.2-0.1c0.4-0.3,0.6-0.9,0.4-1.4c-0.6-2.2-1.9-4.1-3.6-5.6c-1.5-1.3-2.9-2.7-4.3-4.1c1.2,0.1,2.4,0.3,3.5,0.6
	c5.1,1.2,10.2,2.6,15.3,4c1.5,0.5,3.1,0.8,4.7,0.9c0.7,0.1,1.3-0.2,1.8-0.7c0.3-0.5,0.3-1.1,0-1.6c-0.9-1.7-2.3-3.2-3.9-4.3
	c-1.7-1.1-3.3-2.2-5.1-3.2c-0.2-0.1-0.3-0.2-0.4-0.4c0-0.1,0-0.1,0.1-0.2c0.6-0.2,1.2-0.6,1.6-1.2c0.3-0.6,0.3-1.3-0.1-1.9
	c-0.7-1.5-1.9-2.8-3.3-3.6c-2.6-1.6-5.3-3-8.1-4c-6.3-2.5-12.8-4.5-19.4-6.1c-6.8-1.8-13.6-3.5-20.5-5c-3.4-0.7-6.9-1-10.4-0.8
	c-3.2,0.3-6.4,1.1-9.4,2.5c-3.5,1.3-7.1,2.5-10.7,3.5l-3.2,0.9c0.5-1.3,0.6-2.8,0.3-4.2c-0.3-1.4-1.1-2.7-2.3-3.5
	c-1.3-0.7-2.9-1-4.4-0.7c-2.6,0.5-5.2,1.3-7.6,2.5l-1.5,0.7c-1.8-1.1-3.4-2.6-4.5-4.4c-1.6-2.2-2.9-4.6-3.9-7.1l-0.4-1.2
	c5.7-0.1,11.3-0.6,16.9-1.5c6.5-1.1,12.9-3.3,18.7-6.4c5.7-3.3,10.6-7.8,14.4-13.3c3.7-5.1,6.8-10.7,9.1-16.6
	c5.1-12.1,8.7-24.9,10.7-37.9c1.3-7.7,2.3-15.5,2.9-23.4L1316.5,299.6z M1314.6,18.9c15.3,3.7,30,9.5,43.8,17.1
	c13.7,8.1,25.9,18.5,36,30.7c7.8,9.2,14.6,19.2,20.3,29.9c8.7,15.8,15.4,32.7,19.9,50.2c4.6,17.7,7.7,35.8,9.4,54l0.6,5.7v0.1
	l0.4,5.8v0.1l0.4,5.8v0.1l0.3,5.8v0.1c0.3,4.9,0.5,9.8,0.5,14.6c0.8,24.6-0.4,49.2-3.5,73.6l-1.3,9v0.2l-1.1,6.8v0.2l-1.3,6.7
	l-0.1,0.2c-0.6,2.8-1.2,5.6-1.8,8.4c-3.4-5.2-6.9-10.2-10.7-15.1c-3.8-4.7-6.3-9.6-10.8-13.7c-1.3-1.1-2.4-2.3-3.3-3.7
	c-1.5-3.3-4.8-6.3-7.2-9c-2.2-2.1-4.4-4.1-6.8-5.9c-2.7-2.4-5-5.3-6.7-8.5c-0.4-0.9-1.7-2.5-1.7-2.7c0.8-0.5,1.4-1.3,1.7-2.2
	c2.1-4.3,2.2-9.4,0.2-13.8c-1.3-3.5-2.9-6.9-4.6-10.2c-2.8-5.9-5.1-12-7-18.2l-0.3-0.8c-0.4-0.2-0.9-0.2-1.4,0
	c-0.3,0.4-0.4,0.8-0.4,1.2c-0.3,1.8-0.7,3.6-1.2,5.3c-0.8,2.1-1.9,4.1-3.4,5.8c-2.7,3.2-5.1,6.5-7.2,10c-1.8,3-2.7,6.5-2.6,10.1
	c0.4,5.3,3.5,10.1,8.2,12.6c3,1.8,6.5,2.9,10,3c0.4,0,0.8,0,1.1,0c0.2,0.5,0.3,0.9,0.6,1.4c1.4,3.2,3.2,6.2,5.5,8.8
	c1.7,1.6,3.2,3.4,5.1,4.8c1.2,1,2.3,2.2,3.4,3.4c0.2,0.2,0.2,0.4,0,0.3c-5.8-2.1-7.7-1.8-13.8-2.4c-2.9-0.4-6.4-1.1-9.3-1.4
	c-8.9-1.6-17.5-4.1-25.9-7.3c-0.2-0.2-0.4-0.4-0.4-0.7c-0.7-5.6-5-9.5-10.6-10.7c-3.1-0.3-6.3-0.1-9.4,0.6c-3.3,0.7-6.7,0.9-10,0.5
	c-0.7-0.1-1.3-0.3-2-0.5c1.6-26.7,1.3-53.5-1.1-80.1c-0.9-8.1-2.1-16.2-3.7-24.3c-2-9.6-5-19-8.9-28.1c-2.2-4.9-4.8-9.7-7.6-14.4
	c4.3,0.6,12.9,2.1,17.5,2.4c3.3,0.1,6.7,1.7,9.5,3.3c1.4,0.7,2.8,1.5,4.1,2.3c2.1,1.2,7.2,6.2,11.5,8.8c2.6,1.5,5.5,2.3,8.6,2.5
	c4.5,0.4,9,0.3,13.4-0.2c2.2-0.4,4.4-1.1,6.4-2.1c0.7-0.4,0.5-3.3-0.1-3.9c-0.9-0.9-2.7-2-4-1.8l-4.6,0.5c-2.3,0.2-4.7,0.1-7-0.2
	c-4.6-0.8-8.8-2.8-12.5-5.6c-0.9-0.7-1.9-1.6-1.9-1.9c0-1.1,2.4-0.1,3,0.1c5.4,1.9,11.5-0.2,15.5-4.2c1.9-1.7,3.5-3.7,4.8-5.9
	c1-1.7,2.1-3.2,3.5-4.6c1.3-1.1,2.9-1.9,4.5-2.3c0.7-0.3,1.1-1.1,0.8-1.9c-0.1-0.2-0.6-1-0.9-1.1c-1.7-0.3-3.3-0.4-5-0.5
	c-3.9-0.1-7.6,0.5-11.5,0.5c-3.7,0-7.3,0.8-10.7,2.4c-2.4,1.4-4.3,3.5-5.3,6.2c-0.8,1.9-1.4,2.1-3.4,2.5c-2.9,0.5-5.8,0.4-8.6-0.3
	c-3-0.7-7.2-1.6-10.3-2c-3-0.1-5.9-0.2-8.9-0.3c-3.8-0.3-7.6-1.1-11.2-2.4c-2.2-0.7-4.8-1.1-6.7-2.5c-3.4-2.9-7-4.3-11.1-5.9
	c-5-2.1-10.5-3.1-15.9-3.8c-4.7-0.7-9.4-1-14.1-0.9c0.9-1,3.7-4.2,4.9-5.3c1.9-1.7,3.8-3.5,5.5-5.4c3.8-4.8,8-9.4,12.4-13.8
	c3.1-3,6.4-5.7,10-8.2c1.7-1.1,3.5-1.9,5.5-2.2c1.8-0.3,4.1-0.8,6-0.9c6.4-0.7,11.5-0.7,17.9-1c3.4-0.3,6.7-0.9,10-1.5
	c2.2-0.3,7.2-0.5,9.4-1c3.8-0.8,6.3-0.9,10-1.8c1.1,2.3,1.7,2.7,4.3,3.8c1.6,0.7,3.2,1.3,4.8,1.8c1.8,0.3,3.5,0.5,5.3,0.4
	c4.5-0.6,8.7-2.7,11.9-6c1.2-1.2,2.4-2.4,3.4-3.8c1.6-1.8,3.4-3.6,5.1-5.4c1.7-1.6,3.6-2.9,5.7-4c0.1-0.5,0.1-1,0-1.5
	c-0.3-0.3-0.6-0.4-1-0.4c-2-0.1-4-0.1-6,0.1c-2.5,0-5-0.2-7.5-0.5c-1.5-0.1-3-0.2-4.5-0.4c-2.5-0.5-5-1.1-7.4-1.9
	c-1.9-0.4-3.9-0.6-5.9-0.5c-5.5,0.7-10,4.8-11.2,10.2c-6.2,1.2-17.4,3.4-23.6,3.5c-4.8,0.2-10.4,0.9-15.2,0.9
	c-4.9,0.2-9.8,0.9-14.6,2.2c2.4-2,9.3-6.8,11.4-8c3-2.5,5.5-5.5,7.4-8.8l0.6-1.2c1.7,0.5,3.5,0.5,5.2,0.1c4.2-0.5,8.2-2.3,11.3-5.2
	c3.9-3.8,5.5-9.4,4.2-14.7c-0.5-2.3-1.4-4.5-2.6-6.6c-1.8-3.2-3.7-6.4-5.7-9.5l-0.4-0.7L1314.6,18.9z M1203,487.7
	c-2.1,3.5-4.3,6.9-6.4,10.4c-0.6,1-1,2-1.4,3h-5.4c4.1-3.6,8-7.5,11.6-11.7C1201.9,488.8,1202.4,488.2,1203,487.7L1203,487.7z
	 M1224.8,469.6c-0.3,1.1-0.8,2.2-1.2,3.2c-1.7,5.1-3.2,10.3-4.4,15.6c-0.7,3.1-0.9,6.4-0.7,9.6c0.1,1,0.3,2.1,0.5,3.1h-15.8
	c4.9-5.8,9.4-11.9,13.5-18.3c2.5-4.2,5.1-8.4,7.6-12.6C1224.5,470,1224.7,469.8,1224.8,469.6L1224.8,469.6z M1244.9,124.8
	c8,0,16,1.3,23.6,3.8c3.9,1.4,7.5,3.4,10.8,5.9c1.9,1.6,3.6,3.4,5.1,5.4c2.1,2.6,4,5.5,5.6,8.5c5.2,9.7,9.1,20.1,11.5,30.9
	c0.5,2.2,1,4.4,1.4,6.7v0.1c0.7,3.8,1.3,7.6,1.8,11.5v0.2c0.8,5.2,1.3,10.4,1.6,15.6c1,12.9,1.5,25.8,1.4,38.7
	c0.1,19.9-1,39.8-3.3,59.6c-1.2,9.2-2.9,18.3-5.3,27.3c-2.6,9.5-6.3,18.6-11,27.2c-2.2,3.8-4.9,7.3-8,10.4
	c-4.6,4.4-10.2,7.5-16.4,8.9c-6.2,1.7-12.7,2.6-19.1,2.7V124.8H1244.9z M1127.8,0.4c-9.9,0.6-17.7,8.7-17.9,18.6v473
	c0.3,10.2,8.5,18.4,18.7,18.5h120.8c11.9-0.1,23.8-0.7,35.6-1.9c1.8-0.3,3.6-0.5,5.5-0.6h0.1c14.3-1.6,28.5-4.6,42.2-9
	c18.4-6.4,35.3-16.5,49.6-29.7c10.5-9.7,19.8-20.6,27.6-32.6l1.7-2.5l0.1-0.1c9.4-15.2,17.2-31.3,23.1-48.2
	c8.8-24.4,14.8-49.7,17.8-75.4c2.6-22,3.7-44.1,3.3-66.2c-0.3-19.1-1.5-38.2-3.9-57.2c-2-15.6-5.1-31.1-9.3-46.2c0-0.1,0-0.2,0-0.2
	c-8-29.7-22.3-57.3-41.9-81c-11.3-13.2-24.8-24.4-39.9-33c-6.9-3.9-14.1-7.2-21.6-9.8l-1.7-0.7l-0.2-0.1c-14.5-5.2-29.5-9-44.8-11.2
	c-16.5-2.6-33.3-4-50-4.2l-4.9-0.2h-109.5L1127.8,0.4z"/>
<path class="st0" d="M214.8,829.5h-39.6l19.4-85.8L214.8,829.5z M153.7,539c-8.2,0.4-15.2,6-17.4,13.9L3.9,1025.1
	c-2.8,10.2,3.1,20.7,13.3,23.5c1.6,0.4,3.1,0.6,4.7,0.7h89.8c8.7-0.2,16.2-6.4,18.1-14.9l18.3-82.7h93.7l18.6,82.6v0.1v0.2
	c2,8.4,9.4,14.5,18,14.7h100c10.5-0.3,18.8-9,18.5-19.5c-0.1-1.5-0.3-3-0.6-4.4L270.5,553.1c-2.2-8.2-9.5-13.9-18-14.1h-98.6
	L153.7,539z"/>
<path class="st0" d="M565.7,846c6.3,0,12.6,0.8,18.8,2.4c3.9,1,7.5,2.7,10.9,4.9c3,2.2,5.3,5.1,6.7,8.5c1.1,2.5,2,5.1,2.5,7.8
	c2.4,11.6,2.5,23.5,0.2,35.1c-0.8,3.6-2.1,7-3.9,10.2c-3.3,5.6-8.4,9.8-14.5,11.9c-4.8,1.7-9.7,2.8-14.8,3.1
	c-2.1,0.2-4.2,0.3-6.3,0.3h-26.2V846H565.7z M559.1,653.5c6.5,0.1,12.9,0.8,19.2,2.1c2.9,0.7,5.8,1.7,8.5,3.1c1.1,0.6,2.1,1.4,3,2.2
	c1.3,1.5,2.4,3.1,3.3,4.8c2.7,4.8,4.5,10,5.2,15.5c2,13.3-0.8,26.8-8,38.2c-1,1.2-2.2,2.2-3.6,2.9c-2.4,1.3-5,2.3-7.7,3
	c-3.4,1-6.9,1.6-10.4,2c-5.2,0.6-10.4,1-15.7,1h-13.9v-74.7H559.1z M426.2,539c-10,0.5-17.9,8.6-18.1,18.6v473.2
	c0.3,10.1,8.5,18.2,18.6,18.4h155.8c18.7,0,37.3-1.4,55.8-4.2c9.9-1.6,19.6-3.9,29.1-7c10.8-3.7,20.9-9.1,30-15.9
	c11.9-9.2,22.1-20.3,30.2-32.9c9.8-15,16.7-31.6,20.2-49.2c2.8-13.2,4.2-26.6,4.1-40.1c0-14.9-1.7-29.7-5.1-44.2
	c-3.7-14.7-9.9-28.7-18.3-41.3c-8.2-12.1-18.6-22.5-30.6-30.9c15-11.9,26.3-27.7,32.9-45.6c2.8-7.5,4.9-15.2,6.3-23
	c2-10.7,3-21.5,2.9-32.4c0.1-15.8-1.6-31.6-5.2-47c-3.7-15.2-9.9-29.8-18.3-43c-6.3-9.7-13.8-18.6-22.5-26.3c-9.4-8-20.3-14-32-17.8
	c-5.8-1.8-11.7-3.3-17.6-4.4c-7.9-1.6-15.9-2.7-24-3.3l-9.2-0.7c-0.2,0-0.5-0.1-0.7-0.1c-9.8-0.6-19.6-1-29.4-1H426.4L426.2,539z"/>
<path class="st0" d="M936.8,539c-19.5,0-38.8,3.2-57.3,9.4C849.8,558.7,824,578.1,806,604c-6.4,9-12.1,18.5-16.9,28.4
	c-6.4,12.8-11.7,26.2-15.7,39.9c-5.7,19.1-9.7,38.6-12,58.3c-3.6,28.8-4.7,57.9-3.3,86.9c0.8,19.5,2.8,38.9,5.9,58.2
	c3.4,19.7,8.7,39.1,15.6,57.9c5.7,14.7,12.7,28.8,21.1,42.1c7.4,11.5,16.1,22.2,25.9,31.7c21.2,20.1,47.9,33.5,76.6,38.6
	c26,4.8,52.8,4.1,78.5-2.2c23.1-6.1,44.3-17.8,61.8-34.2l1.8-1.6l0.2-0.2c15.6-15.3,28.3-33.2,37.7-53c6.6-13.9,11.7-28.4,15.2-43.4
	c4-16.4,6.4-33.1,7.2-49.9c-0.3-9.7-7.9-17.5-17.5-18.2l-86.9-5.7c-10.1-0.7-18.9,6.7-19.9,16.7c-1.2,13-3.5,25.8-6.9,38.3
	c-1.9,6.2-4.3,12.3-7.2,18c-2.1,3.9-4.7,7.4-7.6,10.7c-5.1,5.2-12.1,8.2-19.3,8.2c-7.1,0.3-14.1-1.8-19.9-5.9c-3.2-2.5-6-5.6-8.2-9
	c-3.2-4.6-5.7-9.7-7.3-15c-2.6-8-4.6-16.2-5.8-24.6c-1.5-9.4-2.6-18.9-3.2-28.4c-1-13.7-1.5-27.4-1.6-41.2
	c-0.2-23.3,0.7-46.6,2.7-69.8c1.1-10.5,2.6-20.9,4.7-31.3c1.3-6.1,3.1-12.1,5.3-17.9c3.3-8.2,8.3-15.6,14.8-21.7
	c5.6-4.8,12.9-7.2,20.2-6.6c8.2,0.2,15.8,4.1,20.8,10.7c2.8,3.5,5.1,7.3,6.8,11.4c2.3,5.2,4.2,10.7,5.5,16.3
	c1.9,7.4,3.2,15,3.9,22.7c1,8,1.5,16,1.8,24.1c1,10.2,10,17.7,20.2,16.9l85.9-6.7c10.3-0.8,18-9.7,17.2-20c-0.1-1.4-0.3-4.3-0.4-5.7
	c-1.7-23.1-5.5-46.1-11.6-68.5c-4.9-17.4-11.9-34.1-20.9-49.8c-7.1-12.1-15.9-23.2-26.2-32.9c-19.3-18-43.4-30-69.3-34.6
	C962.8,539.9,949.8,538.8,936.8,539z"/>
<path class="st0" d="M1253.4,663.4c8,0,16,1.3,23.6,3.8c3.9,1.4,7.5,3.4,10.8,5.9c1.9,1.6,3.6,3.4,5.1,5.4c2.1,2.6,4,5.5,5.6,8.5
	c5.2,9.7,9.1,20.1,11.5,30.9c0.5,2.2,1,4.4,1.4,6.7v0.1c0.7,3.8,1.3,7.6,1.8,11.5v0.2c0.8,5.2,1.3,10.4,1.6,15.6
	c1,12.9,1.5,25.8,1.4,38.7c0.1,19.9-1,39.8-3.3,59.6c-1.2,9.2-2.9,18.3-5.3,27.3c-2.6,9.5-6.3,18.6-11,27.2c-2.2,3.8-4.9,7.3-8,10.4
	c-4.6,4.4-10.2,7.5-16.4,8.9c-6.2,1.7-12.7,2.6-19.1,2.7V663.4H1253.4z M1136.3,539c-9.9,0.6-17.7,8.7-17.9,18.6v473.1
	c0.3,10.2,8.5,18.4,18.7,18.5h120.8c11.9-0.1,23.8-0.8,35.7-1.9c1.8-0.3,3.6-0.5,5.5-0.6h0.1c14.3-1.6,28.5-4.6,42.2-9
	c18.4-6.4,35.4-16.5,49.7-29.8c10.5-9.7,19.8-20.6,27.6-32.6l1.7-2.5v-0.1c9.5-15.2,17.3-31.3,23.2-48.2
	c8.8-24.4,14.8-49.7,17.8-75.4c2.6-22,3.7-44.1,3.3-66.2c-0.3-19.1-1.5-38.2-3.9-57.2c-2-15.6-5.1-31.1-9.3-46.2
	c0-0.1,0-0.2-0.1-0.2c-8-29.7-22.3-57.3-41.9-81c-11.3-13.2-24.8-24.4-39.9-33c-6.9-3.9-14.1-7.2-21.6-9.8l-1.7-0.7l-0.2-0.1
	c-14.5-5.2-29.5-8.9-44.8-11.2c-16.5-2.6-33.3-4-50-4.2l-4.9-0.1h-109.4L1136.3,539z"/>
</svg>
