<?xml version="1.0" encoding="utf-8"?>
<!-- Generator: Adobe Illustrator 25.2.3, SVG Export Plug-In . SVG Version: 6.00 Build 0)  -->
<svg version="1.1" id="Layer_1" xmlns="http://www.w3.org/2000/svg" xmlns:xlink="http://www.w3.org/1999/xlink" x="0px" y="0px"
	 viewBox="0 0 1525.1 1043.9" style="enable-background:new 0 0 1525.1 1043.9;" xml:space="preserve">
<style type="text/css">
	.st0{fill:none;stroke:#FF0000;stroke-width:0.75;stroke-miterlimit:11.34;}
</style>
<path class="st0" d="M934.4,485.9c0,1.6,0,3.2,0.1,4.8c-2.7-1-5.3-2.1-7.9-3.4c1.9-5.9,7.7-22.7,8.4-25.3L934.4,485.9z M885.5,58.4
	c1.8,0.6,2.5,1.7,5.3,3.8c2,1.7,4.4,3.9,6.1,5.6c3.5,4.2,6.4,8.8,8.8,13.8c5.6,10.4,11.8,20.5,18.6,30.1
	c4.9,6.7,10.4,12.9,16.5,18.4c2.1,1.8,4.2,3.5,6.3,5.2c0.6,0.6,1.4,1,2.2,1.3h0.1c1-0.8,1.6-2.1,1.6-3.4c-1-2.8-2.4-5.3-4.2-7.6
	c-2.2-3.2-4.2-6.4-6.2-9.8c-8.1-12.9-16.9-25.3-26.3-37.3l-10-12.9c-0.5-0.8,1.1-1.3,1.6-0.8c2,1.8,3.8,2.9,5.7,4.8s3.6,3.3,5.3,5.1
	c8.5,9.6,17.2,19.1,26.1,28.4c5,5.3,10.4,10.3,16.2,14.9c2.9,2.3,6.1,4.4,9.3,6.2c-3.9,5.9-6.8,12.5-8.5,19.4
	c-1.9,6.8-3.3,13.7-4.2,20.7c-1.6,11.5-2.8,23.2-3.4,34.8c-2.1,38.7-2,77.5,0.3,116.3c0.8,11.4,2,22.7,3.7,34
	c0.9,5.9,2.2,11.8,3.8,17.7c1.3,4.6,3,9.1,5,13.4c2,4.1,4.6,7.9,7.6,11.3c1.3,1.4,2.8,2.7,4.4,3.8l0,0c-7.9,1.5-15.8,3.2-23.6,5.2
	c-4,1-8,1.8-12.1,2.3c-2.5,0.2-5,0.2-7.5-0.2c-1.1-0.3-2-1-2.7-1.9c-2-2.8-3.6-5.9-4.8-9.1c-1.3-3.4-2.8-6.7-4.4-9.9
	c-0.1-0.1-0.4-0.5-0.6-0.4c-0.7,0.3-1.2,0.9-1.4,1.6c-1.7,2.6-3.2,5.2-4.6,8c-1.9-4.2-3.4-8.5-4.4-13c-0.7-3.6-1.9-7.1-3.3-10.5
	c-0.4-0.6-1.1-0.2-1.4,0.2c-0.9,1.1-1.8,2.2-2.5,3.5c-1,1.7-2.1,3.5-3.1,5.3c-0.1,0.1-0.3,0.5-0.5,0.5c-0.4-6.2-0.8-12.6-1.2-18.8
	c0-0.7-0.6-1.3-1.3-1.3c-0.3,0-0.6,0.1-0.9,0.3c-2,1-3.9,2.3-5.6,3.8c-1.3,1.2-2.7,2.4-3.9,3.7c-0.1,0.2-0.3,0.3-0.5,0.2
	c-0.3-4.1-0.2-8.3,0.3-12.4c0.3-2.5,0.5-5,0.6-7.6V344c-0.2-0.7-0.9-1.1-1.7-1c-0.9,0.1-1.7,0.5-2.5,1c-2.9,1.8-5.4,4.1-7.6,6.6
	c-0.7,0.8-1.5,1.4-2.3,2c-0.4-3.4-0.6-6.8-0.7-10.1c-0.3-4.4-0.6-8.8-1.1-13.1c0-0.6-0.4-1.3-1-1.1c-1.3,0.4-2.5,1.1-3.5,2.1
	c-2.1,2-3.9,4.1-5.6,6.4c-0.1-5.4,1.3-10.6,3.9-15.3c0.8-1.5,1.6-3,2.4-4.5c0.4-0.6,0.8-1.9-0.4-2.2c-0.9-0.3-1.8-0.4-2.8-0.5
	c-3.1-0.1-6.2,0.1-9.3,0.8l-1.7,0.2c1.5-4,2.8-8,4.1-12.1c0.9-2.5,1.7-5.1,2.3-7.7c0.2-0.5,0.1-1.4-0.6-1.4
	c-2.2-0.1-4.5,0.3-6.5,1.1c-1.3,0.4-2.5,0.9-3.8,1.5c0.3-2,0.8-4,1.5-5.9c1.8-5.5,3.6-11,5.7-16.5c0.3-0.7,0.6-1.5,0.8-2.3
	c0.2-0.5,0-1-0.4-1.2c-0.1-0.1-0.3-0.1-0.4-0.1c-1.7-0.2-3.5,0.1-5.1,0.9l-1.7,0.8c1.8-6.3,2.7-12.7,2.7-19.2
	c-0.2-2.5-0.8-5-1.5-7.5c-0.1-0.3-0.3-0.6-0.4-0.9c-0.2-0.2-0.5-0.2-0.6-0.1c0,0,0,0-0.1,0.1c-0.4,0.8-0.8,1.7-1,2.5
	c-6.4,17.2-9.6,35.4-9.3,53.7c0,3.7,0.1,7.4,0.3,11.1c2.9,39.7,18.9,77.4,45.4,107.1c8.4,9.2,17.7,17.5,27.8,24.7
	c2.3,1.6,4.4,3.5,6.2,5.7c0.8,1.2,1.6,3,0.5,6.8c-1.5,6-3.7,11.8-6.4,17.3c-0.7,1.6-1.4,3.2-2.1,4.8c-11.2-7.3-21.3-16.2-29.8-26.5
	c-1.6-1.8-3.2-3.8-4.6-5.7c-7.6-10.1-14.1-21-19.4-32.5c-6.2-13.2-11.1-26.9-14.8-41c-4.3-16.2-7.5-32.8-9.4-49.5
	c-2.1-17.1-3.4-34.3-3.7-51.5c-0.9-31.1,0.6-62.2,4.6-93.1v-0.1l0.7-4.5v-0.1l0.7-4.5v-0.1c3.1-20.4,8.3-40.3,15.5-59.6
	c2.9-7.5,6.2-14.8,9.9-21.9c4.7,8.5,10.2,16.6,16.5,24c3.3,3.8,6.9,7.2,10.8,10.3c0.3,0.2,0.8,0.2,1.1-0.1c1-0.8,1.4-2,1.1-3.2
	c-0.1-0.7-0.3-1.4-0.6-2c-2.7-6.5-5.6-12.9-8.4-19.4c-2.7-5.9-5.7-11.6-8.9-17.3c-1.1-2.1-2.2-4.1-3.5-6c0.8-1.2,1.5-2.4,2.3-3.5
	c2.3,5.3,5.2,10.4,8.7,15.1c7.7,10.5,15.4,21,23.2,31.5c2.4,3.1,4.9,6.2,7.5,9.1c1.3,1.4,2.7,2.7,4.1,4c2.2,2.5,4.8,4.8,7.6,6.6
	c0.1,0.1,0.2,0.1,0.3,0.1c0.4,0,0.7-0.1,0.9-0.4c0.7-0.7,0.9-1.7,0.6-2.6c-0.1-0.6-0.3-1.2-0.5-1.8c-3.4-8.9-7.1-17.6-11.3-26.2
	c-3.4-7.6-7.1-15-11-22.4c-1.9-3.5-4.2-6.8-6.8-9.8c-4.5-5.3-6.5-7.7-11.2-12.8C882,59.2,882.8,58.1,885.5,58.4z M1044,453.5
	c2.1,2.5,3.9,5.2,5.5,8.1c2.7,5.8,4.7,11.9,5.8,18.2c0.3,2,0.5,3.9,0.8,6c-2.5,0.9-5,1.6-7.6,2.1l-4.3,0.7c-0.1-1.1-0.4-2.2-0.7-3.3
	c-2.1-8.5-2.6-17.4-1.7-26.1c0.3-2.3,0.7-4.6,1.2-6.9L1044,453.5z M994.8,9.9h3.5h0.2c11.8,0.2,23.6,1.7,35.2,4.4
	c7.3,1.8,14.5,4.1,21.5,6.9c20.3,8.5,38.3,21.9,52.2,39c8.3,10,15.3,20.9,21,32.6c5.8,11.6,10.5,23.7,14.2,36.1
	c2.1,7,4,14.1,5.6,21.2c-6.9,0.9-13.6,2.6-20.2,4.9c-4.9,1.7-9.6,4.1-13.9,6.9c-0.4,0.5-0.4,1.2-0.1,1.8c0.4,0.9,1.3,1.4,2.2,1.4
	h0.6c5.1-0.1,10.2-0.2,15.4-0.4c4.8-0.3,9.5-0.8,14.2-1.5c1.5-0.2,2.9-0.4,4.3-0.7c0.2,1.1,0.4,2.1,0.6,3.2
	c-3.9,0.2-7.7,0.9-11.4,2.1c-8.8,2.7-17.8,5.5-26.5,8.2c-3.3,1-6.6,2.1-9.8,3.4c-1.9,0.8-3.8,1.7-5.6,2.8c-2.3,1-4.4,2.2-6.4,3.6
	l-0.8,0.7c-0.3,0.3-0.5,0.8-0.4,1.2c0.2,1,1.2,1.7,2.2,1.6c7.1,0.2,14.1,0.1,21.2-0.4c6.1-0.3,12.2-0.9,18.3-1.6
	c3-0.5,6-1.3,8.8-2.5c4.2-1.7,8.3-3.4,12.5-5.2c0.2,1.6,0.5,3.3,0.7,4.9c-1.3,1.3-2.8,2.5-4.2,3.6c-1.9,0.8-3.9,1.4-5.9,1.9
	c-4.1,1.1-8.3,1.8-12.5,2.2c-7.4,1-14.8,2.5-22.1,4.3c-6.5,1.7-12.9,4.1-18.9,7.1c-3,1.6-5.9,3.3-8.8,5.2c-0.9,0.4-3.3,4.2-0.7,4.5
	c1.7,0,3.4-0.2,5-0.6c1.6-0.5,3.3-0.9,5-1.3c13.1-2.7,26-6.2,38.6-10.6l12.1-4.1c0.7-0.2,1.8,1.1,1.4,1.5c-1,0.8-11,5.6-12.3,6.2
	c-9.5,4-19,8.2-28.3,12.6c-4.5,2.1-9,4.5-13.3,7.1c-4.3,2.6-8.3,5.6-11.9,9c-0.9,0.8-1.7,1.6-2.5,2.5c-1.2,1.7-1,4,0.5,5.4
	c0.7,0.5,1.6,0.7,2.5,0.6c7.7-0.9,15.2-3.1,22.2-6.4c5.5-2.6,10.7-5.6,15.6-9.1c2.9-2.2,5.7-4.5,8.4-6.8l3.3-2.6h0.1v0.1v0.1v0.1
	c-7,9.5-12.1,20.3-15,31.8c-0.5,1.2-1.2,2.4-1.9,3.5c-0.9,1.3-1.6,2.6-2.2,4c-0.4,1.3,0.5,1.7,1.2,1.8c2,0.2,4.1-0.3,5.7-1.6
	c1.8-1.3,3.4-2.7,4.8-4.4l5.3-6.6c1-1.5,2-3,2.8-4.6c1.1-2.2,2.2-4.3,3.4-6.4c1.3-2.6,2.4-5.2,3.3-7.9c2.3-6.1,5.1-12.1,8.3-17.9
	c0.1-0.1,0.3-0.1,0.5,0c0.1,0,0.1,0.1,0.1,0.2c-1.8,8.6-3.5,17.3-5.1,25.9c-0.4,2.6-0.9,5.1-1.6,7.6c-0.8,2.9-1.4,5.9-1.9,8.9
	c-0.2,1.3-0.2,2.5-0.2,3.8c-0.1,2.2-0.4,4.4-0.9,6.5c-0.5,2.1-0.9,4.2-1.1,6.4c-0.1,1.1,2.2,3.9,4,2.1c0.8-1.1,1.5-2.3,2.2-3.6
	c1.8-3.6,3.3-7.3,4.6-11.2c1.2-3.3,2.3-6.6,3.3-9.9s2.4-6.6,3.8-9.8c0.4-1.3,0.8-2.5,1.1-3.8c1.6-9.2,2.8-18.5,3.7-27.8
	c0.2-0.3,0.5-0.4,0.8-0.3c0.1,0,0.1,0.1,0.2,0.1c0.5,5.8,0.9,11.5,1.2,17.3c0.1,1.7,0.3,5.4,0.3,6.7c1.5,33.3,0.3,66.7-3.7,99.8
	c-1.6,12.7-3.9,25.3-6.8,37.8c-3.3,14.3-7.7,28.3-13.3,41.8c-5.7,13.6-12.9,26.4-21.6,38.3c-8.7,11.7-19.2,21.9-31.1,30.3
	c-2.5,0.8-5,1.5-7.6,1.9c-1.3-5.6-2.9-11.1-4.7-16.6c-0.6-1.7-1.3-3.3-2.1-4.9c-2.6-4.5-5.8-8.7-9.5-12.4c-1-1-1.7-2.1-2.2-3.4
	c-0.1-0.4-0.2-0.7-0.2-1.1c1,0.2,1.9,0.4,2.8,0.7c2.4,0.6,4.9,0.4,7.3-0.3c2.5-0.8,4.9-1.9,7.1-3.4c3.1-2.5,5.8-5.2,8.3-8.3
	c4.5-5.4,9.3-10.6,14.3-15.6c4.1-3.9,8.3-7.8,12.5-11.6c6.1-5.6,11.8-11.6,17.2-17.8c1.8-2.4,3.1-5.1,3.8-8
	c1.2-4.2,2.1-8.5,2.6-12.9c0-0.5-0.2-1.1-0.5-1.5c-0.4-0.3-0.9-0.3-1.4-0.1c-0.9,0.6-1.7,1.4-2.4,2.2c-2.4,2.8-4.7,5.6-6.9,8.5
	c-0.8-2-1.8-4-3.1-5.8c-0.1-0.2-0.4-0.3-0.6-0.1c0,0,0,0,0,0c-0.3,0.4-0.6,0.9-0.6,1.4c-0.5,3-0.9,6.1-1.2,9.1
	c0,0.4-0.1,0.8-0.3,1.1c-1.2,1.3-2.6,2.4-4,3.4l-0.2,0h-0.1c-0.9-1-1.9-2-2.8-2.9c-0.1-0.1-0.6-0.4-0.8-0.1
	c-0.2,0.4-0.4,0.9-0.5,1.3c-0.3,1.8-0.8,3.6-1.3,5.4c-0.2,0.7-0.8,1.3-1.4,1.6c-2.6,1.7-5.3,3.3-8.1,4.7l-0.1-0.1
	c0.2-1.1,0.6-2.2,1-3.2c1.2-2.7,2.6-5.3,4.3-7.8c1.6-2.8,3.4-5.5,5.2-8.1c0.1-0.1,0.3-0.2,0.4-0.3c0.5,0.4,1,0.8,1.5,1.3
	c1.1,1.1,2.2,2.1,3.3,3.1c0.5,0.3,1.1,0.4,1.6,0.2c0.3-0.1,0.2-0.4,0.1-0.5c-0.5-3.1-1.2-6.2-2-9.2l-0.4-2.3c0-0.2,0-0.4,0-0.6
	c0.9-1.9,1.8-3.8,2.8-5.7l0.3-0.5c2.7,1.9,5.3,3.9,7.8,5.9c0.3,0.4,1.3,0.3,1.3-0.3c-0.1-0.6-0.3-1.3-0.6-1.9
	c-1.5-5.1-2.7-10.2-3.8-15.3v-0.1l0.1-0.1c1.6-1.7,2.6-3.8,3-6.1c0.4-2.4,0.2-4.8-0.7-7c-0.9-1.9-2.3-3.6-4-4.9
	c-1.6-1-3.5-1.3-5.3-1c-1.5,0.6-2.6,1.7-3.3,3.1c-0.8,2.1-1.4,4.4-1.7,6.7c-1.1,6-3.7,11.6-7.4,16.4c-1.7,1.8-3.6,3.5-5.8,4.8
	c-1.1,0.8-2.1,1.6-3,2.5c-1.5,1.7-2.7,3.6-3.7,5.6c-0.8,1.7-1.9,3.3-3.2,4.7c-1.3,1.7-2.8,3.2-4.4,4.6c-0.7-1.4-1.5-2.8-2.3-4.1
	c-0.7-1-1.6-1.8-2.7-2.3c-1.3-0.2-2.6,0.4-3.4,1.4c-1.3,1.4-1.9,3.2-1.8,5.1c0,2.5,0.7,5,1.8,7.3c0.1,0.3,0.2,0.7,0.3,1l-1.8,1.5
	c-0.7-1.9-1.7-3.8-3-5.4c-0.6-0.7-1.5-1.3-2.4-1.6c-1.4-0.3-2.9,0.4-3.7,1.6c-1,1.3-1.6,2.9-1.8,4.6c-0.2,2.5-0.1,5,0.4,7.5l0.2,1.8
	c0,0.3,0,0.5-0.1,0.8c-0.8,0.9-1.7,1.7-2.7,2.4c-3.5,2.9-7.1,5.6-11,7.9c-3.4,2.4-7.8,2.9-9.9,1.9c-2.4-1.4-4.9-2.7-7.5-3.8
	c-5-2.4-10.1-4.7-15.3-6.8c4.2-3,7.7-7,10.3-11.5c3.2-5.4,5.6-11.1,7.1-17.1c1.6-6,2.8-12,3.7-18.1c1.6-10.6,2.8-21.3,3.4-32
	c1-13.9,1.5-27.8,1.7-41.8c0.5-24.8,0.1-49.6-1.2-74.3c-0.6-10.6-1.5-21.1-2.8-31.6c-0.7-5.6-1.7-11.2-2.8-16.7
	c-0.5-2.2-1-4.5-1.5-6.7c-1.5-6-3.7-11.7-6.5-17.1c-1.9-3.5-4.3-6.7-7-9.7c-5.8-5.9-13.8-9-22-8.7c-5,0-10,1.2-14.4,3.6
	c-1.2,0.7-2.3,1.4-3.4,2.2c-7.4-13-17.4-24.4-29.4-33.5c-3.2-2.4-6.6-4.7-10.1-6.8c-2.3-1.3-4.5-2.7-6.7-4.1v-0.1l0.3-0.2
	c11.8,3,24.3,2.9,36-0.5c1.4-0.1,2.8,0,4.1,0.3c1.5,0.3,3,0.4,4.5,0.4c0.6,0,1.1-0.4,1.3-0.9c0.2-0.8,0.1-1.7-0.2-2.4
	c-1-2.8-3.1-5.2-5.7-6.7c-1.5-0.9-3.2-1.7-4.9-2.3c-2.8-0.9-5.7-1.8-8.6-2.7c-2.5-0.5-5-0.8-7.5-0.8c-1.9-0.1-3.8-0.2-5.6-0.4
	c-2.9,0-5.8,0.2-8.7,0.7c-6.7,0.8-13.4,0.9-20.2,0.4c-0.2-0.2-0.3-0.5-0.2-0.8c9.9-3.5,19.7-7.1,29.3-11c2.6-0.8,5.1-1.6,7.7-2.4
	c2.8-0.8,5.5-2.1,8-3.6c1.2-0.9,2.6-1.6,4-2.2c1.4-0.6,2.9-1.2,4.4-1.6c1.6-0.6,3.1-1.2,4.7-2c1.1-1.6,1.4-3.7,0.7-5.6
	c-0.2-0.4-0.6-0.7-1-0.8c-2.4-0.5-4.9-0.7-7.4-0.5c-3.1,0.1-6.2,0.4-9.2,1c-3.5,0.5-7,1.2-10.5,1.9c-3.5,0.6-7,1-10.6,1.2
	c-1.4,0.2-2.7,0.6-4,1c-9.1,3.7-17.9,7.9-26.6,12.5c-0.2-0.1-0.4-0.3-0.5-0.6c-0.1-0.2-0.1-0.4-0.1-0.6c1.3-2.1,3-3.9,5-5.4
	c2.4-2,4.9-3.8,7.5-5.5c1.2-0.7,2.5-1.5,3.7-2.1c1.3-0.8,2.4-1.7,3.6-2.6c0.5-0.4,0.8-0.9,0.9-1.5c0-0.2,0-0.4,0-0.6
	c12-5.8,24.8-9.8,37.9-12C972.6,10.8,983.7,9.9,994.8,9.9z M994.7,119.9c4.1-0.1,8.1,1.2,11.5,3.5c2.4,1.7,4.5,3.9,6.1,6.5
	c2,3,3.7,6.2,5,9.6c1.8,4.8,3.2,9.7,4.1,14.7l0.1,0.2v0.2c0.8,3.9,1.5,7.8,2,11.8c1.3,9.1,2.3,18.3,2.8,27.5
	c1.3,18.9,1.9,37.8,1.9,56.8c0.1,19.6-0.3,39.1-1.3,58.7c-0.6,9.8-1.4,19.5-2.5,29.2c-0.8,6.5-1.8,12.9-3.2,19.3
	c-0.8,3.9-1.9,7.8-3.2,11.6c-1.6,4.6-3.8,8.9-6.6,12.9c-1.4,1.9-3.1,3.7-5,5.1c-3,2.2-6.6,3.4-10.4,3.6c-2.7,0.2-5.3,0-7.9-0.7
	c-4-1.2-7.4-3.7-9.9-7c-2.6-3.4-4.7-7.2-6.2-11.2c-1.8-4.5-3.2-9.2-4.2-14c-1.8-8.2-3.1-16.4-3.9-24.8c-1.5-13.8-2.4-27.6-2.8-41.5
	c-1.2-31.8-0.8-63.6,1-95.4c0.7-11.2,1.8-22.3,3.5-33.4c0.8-5.2,1.9-10.4,3.2-15.6c0.9-3.5,2.1-7,3.6-10.4c1.7-4,4-7.7,6.9-11.1
	c2.2-2.4,4.9-4.2,7.9-5.3C989.6,120.1,992.1,119.8,994.7,119.9z M988.6,0.4c-10.7,0.2-21.4,1.4-32,3.4c-2,0.4-4,0.8-6,1.3
	c-21.4,4.9-41.5,14.6-58.5,28.4c-14,11.6-25.7,25.5-34.8,41.2l-1.7,2.9l-0.1,0.2l-2.8,5c-0.9,1.9-1.9,3.7-2.8,5.6
	c-0.1,0.2-0.3,0.5-0.4,0.8c-7,14.6-12.5,29.9-16.5,45.6c-0.4,1.4-0.8,2.9-1.1,4.3c-1.5,5.8-2.7,11.7-3.8,17.5
	c-3,15.6-5.1,31.4-6.4,47.3l-0.4,5.5c0,0.2-0.1,0.4-0.1,0.6c-2.5,35.5-2,71.2,1.5,106.7c1.5,14.4,3.8,28.7,6.8,42.9
	c3,13.8,6.9,27.4,11.8,40.7c5.7,15.3,13,29.9,21.9,43.5c7.8,11.7,17.2,22.4,27.8,31.6c18.5,15.8,40.8,26.6,64.7,31.3
	c11.6,2.4,23.4,3.7,35.3,3.8c16,0.3,32.1-1.4,47.7-5.1c15.5-3.8,30.3-10.1,43.8-18.6c15-9.7,28.1-22.1,38.5-36.5
	c7.3-9.9,13.5-20.5,18.6-31.7c5.8-12.4,10.5-25.3,14-38.6l2-7.6l1.7-7.2c1.6-7,3-14.1,4.1-21.2c3-18.5,5-37.2,5.8-56
	c1.5-29.4,0.9-58.9-1.7-88.3c-1.8-19-4.8-37.9-9.1-56.5c-3.5-14.6-8.2-28.9-14-42.8c-4.6-10.9-10.2-21.3-16.6-31.2
	c-7.8-11.9-17.1-22.8-27.8-32.2c-17.4-15.3-38.3-26.2-60.9-31.6c-5.3-1.4-10.6-2.4-16-3.1c-6.1-1-12.2-1.5-18.3-1.8
	C998,0.4,993.3,0.3,988.6,0.4z M1026.7,453.8c-1.6,6.1-2.4,12.3-2.4,18.5c0.2,5.4,0.9,10.9,1.9,16.2c0.2,1.1,0.5,2.2,0.9,3.2
	c-4.2,1.2-8.5,1.6-12.8,1c-4.1-0.5-8.3-1.1-12.3-2c-6-0.8-12-0.3-17.8,1.3c-1.1,0.4-2.1,0.8-3.1,1.3c-2.6,1.1-5.2,2-7.8,2.8
	c-3.9,0.7-7.9,1-11.8,0.8c-2,0-4.1-0.2-6.1-0.5l-2.5-0.6c0.4-8.4,1.8-29.1-0.8-37.1c3.1,1.2,6.1,2.6,9,4.3c17.7,9.9,41.6,3,46.7,1.4
	C1013.6,462.5,1023.8,457.2,1026.7,453.8L1026.7,453.8z"/>
<path class="st0" d="M784.7,9.9c5,0.1,9,4,9.3,9v23.6c-7.5-4.7-15.6-8.4-24.1-11c-1-0.3-2-0.5-3-0.7c4.4-1.6,8.7-3.3,13.1-5
	c0.6-0.2,1.1-0.6,1.5-1c0.4-0.6,0.5-1.5,0.1-2.1c-0.6-0.6-1.3-1-2.1-1.1c-6.1-1.8-12.2-3.9-18.2-6.2l-16.6-5.4H784.7z M708.7,157.6
	c3.2,2.8,6.5,5.6,9.7,8.5c6.8,6.2,13.2,12.8,19.1,19.8c4.4,5,8.6,10.1,12.6,15.4c1.7,2.4,3.2,4.8,4.7,7.3c1.6,3.2,2.7,6.6,3.5,10.1
	c1.4,5.6,2.4,11.3,3,17.1c0.5,13,0.2,26-0.6,39l-0.2,2.4c-1-1.7-2-3.4-2.9-5.2c-5.2-8.5-11.5-16.3-18.7-23.2
	c-0.8-0.7-1.5-1.5-2.2-2.2c-0.5-0.6-1.2-1.9-0.7-2.5c0.9-0.1,1.8,0,2.7,0.2c2.2,0.5,4.4,1.3,6.4,2.3c0.8,0.4,1.6,0.7,2.5,0.9
	c0.6,0.2,1.2,0,1.5-0.6c0.4-0.8,0.5-1.7,0.1-2.5c-0.6-1.5-1.5-2.8-2.7-4c-2.8-3.1-6.2-5.4-10-6.9c-0.3-0.1-1-0.4-0.6-0.6
	c2.9-0.4,5.9-0.2,8.7,0.6c1.2,0.4,3.2-0.2,2.8-2.1c-0.3-2.8-1.7-5.4-3.9-7.3c-2.1-1.9-4.6-3.3-7.4-3.9c-4.4-1.1-9.1-0.9-13.4,0.6
	l-1.6,0.5c-0.8-0.6-1.8-0.9-2.8-0.9c-6.3-0.1-12.5,0.8-18.2,3.5v-73.4L708.7,157.6z M645.6,121l8.1,21.1c-1.6,0-3.1,0.1-4.7,0.3
	c-2.6-3.3-7.1-4.5-11-3l-1.7,0.5c-0.9-1.1-2.1-1.7-3.5-1.9c-1.6,0.1-3,1.3-3.2,2.9c-0.2,0.9,0,1.9,0.5,2.7c0.3,0.4,0.5,0.9,0.9,1.3
	c-0.4,1.9-1.1,3.6-2.1,5.3c-1.1,0.6-2.4,0.9-3.6,0.7c-2-1.8-3.7-3.9-5.1-6.2c-0.5-1-0.8-2.1-0.9-3.2c-0.6-7.5-0.7-15.1-0.4-22.7
	c0-1.8,0.8-3.5,2.1-4.6L645.6,121z M693.2,244.2c-1,3.2-1.6,6.5-1.9,9.9c0,0.6,0.2,1.2,0.5,1.8c0.4,0.5,0.9,0.7,1.5,0.6
	c0.7-0.4,1.3-0.9,1.7-1.6c3-3.1,6.8-5.4,11.1-6.4c-0.2,3.8-0.2,11.5-1.3,15.6c-0.6,2.1,2.2,3.2,3.2,2.3c1.5-1.5,2.8-3.1,4-4.8
	c1.9-2.5,3.8-5.1,5.8-7.5c1.3-1.8,2.6-3.7,3.8-5.6c0.1,0,5.9,7.1,6.6,11.5c0.2,0.9,0.4,1.7,0.8,2.6c0.5,0.7,1.4,0.9,2.2,0.5
	c1.8-1.7,3.2-3.9,3.9-6.3c0.1-0.2,0.3-0.8,0.7-0.7c5,4.9,9.1,10.5,12.5,16.6c2.1,3.8,3.8,7.7,5.3,11.8c1.2,3.5,2,7,2.4,10.7
	c0.6,4,1,8,1.3,12.1c0.6,4.4,1.1,8.8,1.3,13.3c0.3,3.6,0.7,7.1,1.2,10.7c0.6,7.8,0.9,15.6,1.1,23.4c0.2,5.9,0.3,11.7,0.3,17.6
	c-0.1,6-0.4,12-0.9,17.9c-0.7,12.6-1.2,25.2-1.7,37.8c-0.1,4-0.1,7.9-0.1,11.9c-0.1,2.7-0.3,5.4-0.5,8.1c-0.2,3.9-0.3,7.7-0.3,11.6
	c0,5.6,0,11.1,0,16.7c-0.1,6.4-0.4,12.8-0.8,19.2c-5-0.4-10.1-0.3-15.1,0.2c-2.6,0.2-5.3,0.3-7.9,0.3c-2.3-0.2-4.7-0.6-7-1
	c-6.3-1-12.7-1.8-19.1-2.3c-1.5-0.1-3,0-4.4,0.1c-3-0.1-6,0.4-8.8,1.4c-1.7,0.4-3.5,0.7-5.2,0.9l-86.8-220.9l0.1-0.1
	c2.7-2.1,5.6-3.9,8.7-5.4c1.2-0.8,2.4-1.7,3.4-2.7c1.9-2.3,2.7-5.2,2.5-8.1c-0.7-2.3-1-4.6-0.9-7c-0.1-2.4-0.5-4.8-1.3-7.1
	c-0.8-2-2.1-3.9-3.7-5.5c0-0.1,0-0.2,0-0.4c0.9-0.7,1.9-1.2,3-1.6c3-1.2,5.9-2.7,8.7-4.4c0.2-0.2,0.3-0.4,0.5-0.6
	c3.8,2.6,8.7,3.3,13.1,1.9c0.1,0.3,0.1,0.6,0.1,0.9c0.5,3.7,2.1,7.2,4.6,9.9l1,1.2c-1.9,1.8-3.7,3.8-5.2,5.9
	c-0.9,1.4-1.4,2.9-1.4,4.6c-0.3,2.7-1.2,5.3-2.8,7.4c-1.1,1.6-1.8,3.4-2.2,5.3c-0.2,1.4,0,2.8,0.5,4.1c1.2,2.6,2.2,5.3,3.1,8.1
	c0.6,2.2,0.6,4.5,0.2,6.8c-0.1,1,0.3,1.9,1,2.6c1.4,1.6,3.4,2.6,5.6,2.8c2.7-0.2,2.7-3,2.7-4.2c0.2-3.3,0.1-6.7-0.3-10
	c-0.6-2.2-1.5-4.3-2.8-6.1c-0.6-0.9-1.3-1.9-2-2.8c2.1-2.1,4.3-4.1,6.7-6c3.9-3.5,7.1-7.7,9.5-12.3c1.8-3.7,0.6-10.1-0.3-14.1
	c-0.4-2.2-1.1-4.3-2-6.3c1.2-0.3,3.4-0.9,4.7-1.1c5.6-0.9,11.1-2.5,16.3-4.8l2.5-1.1c3-1.6,5.5-4,7.2-7L693.2,244.2z M577.1,9.9
	c0.1,0.9,0.8,1.7,1.7,1.9c2,0.5,4.1,0.9,6.2,1.2c3,0.6,6,1.3,8.9,2.2c0.4,0.4-0.7,0.5-1.3,0.5c-10.2,0.8-20.2,2.6-30,5.6
	c-5.2,1.7-10.3,3.9-15.2,6.5c-2.5,1.3-4.9,2.6-7.3,4c-0.6,0.4-1.1,1-1.5,1.6c-0.2,0.8,0.1,1.6,0.9,2c1,0.1,2,0,3-0.4
	c6.9-2.1,14.1-3.1,21.3-3c-5.7,2.7-11.2,6-16.2,9.9c-6.4,4.7-12.4,9.9-18.2,15.3l-1.3,1.3c-0.5,0.7-0.3,3.2,1.2,2.7s2.9-1,4.3-1.6
	c6.6-2.4,13.4-4.5,20.2-6.2c4.2-1,8.4-1.7,12.7-2.1c6.5-0.4,13.1-0.3,19.5,0.3c-3.3,1.8-6.5,4-9.4,6.4c-1.7,1.3-3.3,2.7-5,4.2
	c-0.6,0.7-0.6,1.8,0.1,2.5c0.5,0.4,1.1,0.6,1.7,0.3c11.4-3.2,23.2-5.2,35-5.8c2.4-0.2,4.8-0.3,7.2-0.5c-3.5,3.3-6.8,6.8-10,10.4
	c-0.6,0.8-0.4,2,0.4,2.6c0.6,0.4,1.4,0.5,2,0.2c5.3-1.8,10.7-3.5,16.2-5l16.5,42.5l-18.6-5c0-0.8,0.1-1.9,0.1-2.7
	c0-1.3-0.5-2.6-1.5-3.5c-0.6-0.4-1.4-0.5-2.1-0.4c-1.1,0.2-2.2,0.7-3,1.5h-0.2c-0.8-1.2-2.2-1.9-3.7-1.7c-0.9,0.2-1.6,0.8-1.9,1.7
	c-0.7-0.6-1.5-1.1-2.5-1.2c-1.2,0.1-2.2,1-2.6,2.2c-0.1,0.3-0.2,0.6-0.2,0.9c0,0.2-17-6.3-21.2-7.8c3.7-0.4,7.3-0.7,11-0.9
	c0.4-0.1,0.8-0.2,1.2-0.4c0.4-0.4,0.5-1,0.3-1.5c-0.4-0.5-0.9-1-1.5-1.2c-3.7-1.9-7.6-3.3-11.6-4.2l-2.8-0.6c3.6-0.4,7.2-1,10.7-1.7
	c0.5-0.2,1.1-0.4,1.5-0.7c0.5-0.5,0.5-1.3,0-1.8c-0.1-0.1-0.3-0.2-0.4-0.3c-4-1.5-8.1-2.7-12.2-3.6c-1.8-0.3-3.7-0.5-5.6-0.5
	c-8.8-0.4-17.6,0.5-26.2,2.7c-4.9-3-10.4-4.9-16.2-5.5c-4.8-0.4-9.5-0.4-14.3-0.1c-4.9,0.7-9.8,1.7-14.7,2.8
	c-2.1,0.5-1.7,3.3-0.2,3.2c4.2,0.3,8.4,0.5,12.4,2c-6.5,1.4-12.7,3.9-18.4,7.4c-4,2.7-8.3,5.1-11.9,8.2c-0.8,1.1-0.2,4.9,2.1,3.1
	c0.9-0.5,1.9-0.8,2.9-1c4.1-0.7,8.3-1,12.5-0.8c0.5,0.2-0.1,0.9-1.1,1.4c-4.8,3.4-8.7,7.8-11.5,12.9c-3.2,5.5-5.4,11.5-6.7,17.7
	c-0.5,1.8,1.4,3.2,1.8,2.7c0.8-0.6,1.4-1.3,2.2-2c3.3-2.7,6.9-4.9,10.8-6.5c8.3-3.8,25.1-7.9,24.6-7.4c-1.7,2.7-3,5.6-3.8,8.6
	c-0.7,2-1.2,4.1-1.5,6.2c0,0.5,0.4,0.9,0.9,1c0.4,0.1,0.9,0,1.3-0.2c1.2-0.9,2.3-1.8,3.3-2.8c4-3.5,8.4-6.5,13.1-8.8
	c1.6-0.7,4.2-0.4,4.8,0.1c1.7,1.1,3.2,2.5,4.4,4.2c1.3,1.7,2.4,3.6,3.3,5.6l1.5,3.8c0.2,0.4,0.5,0.8,0.8,1.2
	c0.5,0.3,1.1,0.2,1.5-0.3c0.4-0.7,0.8-1.5,1-2.3c0.5-2.8,0.8-5.6,0.8-8.5c-0.1-2.6-0.5-5.1-1.2-7.6c5.3,0.7,10.4,2.4,15,4.9
	c2.6,1.5,5.1,3.3,7.4,5.3c0.9,0.6,2.9,0.3,2.8-1.2c-0.1-3.2-1.2-6.2-2.4-9.2c-1-2.1-2.3-4.1-3.8-5.9c-2.1-2.5-4.5-4.8-7.1-6.8
	c-0.1-0.1-0.2-0.1-0.1-0.3c0.7,0,1.3,0,2,0.1c8.5,1.5,15.8,5.4,23.3,9.6c3.3,2,6.6,4.3,9.8,6.5c0.6,0.3,3.2-1.7,2.4-3.6
	c-1.1-2.1-2.7-4-4.7-5.4c-3.2-2.5-6.6-4.7-10.1-6.7c6.5,1.6,12.9,3.6,19.2,5.9c1.2,2.3,0.7,4.2,4.8,5.4c-0.4,2.2-0.8,4.4-1.2,6.6
	c-1.2,8.6-1.7,17.2-1.5,25.9c0.7,1.2,1.5,2.4,2.5,3.4c1.1,1.2,2.3,2.4,3.4,3.6c-2.3,1.6-4.1,3.8-5.4,6.3l-0.9,1.8
	c-0.8,2.3-0.5,4.7,0.7,6.8c-0.8,1.5-1.3,3.2-1.3,4.9c0.2,1.5,1.2,2.8,2.6,3.3c0.9,0.1,1.8,0.1,2.7,0c0.6-0.1,1.2-0.3,1.7-0.6
	c0.8,1,1.8,1.8,2.9,2.3c1,0.3,2,0.4,3,0.1c2.7-0.6,5.4-1.3,8-2.2h0.1c0.7,1.3,1.3,2.8,1.7,4.3c-0.1,0.9-0.4,1.7-0.9,2.4
	c-1.6,2.2-3.2,4.3-4.9,6.4c-1.2,1.6-2.3,3.2-3.5,4.8c-2.4,4-4.1,8.4-5.1,13.1c-0.4,2.9,0.2,5.9,1.7,8.5c0.1,0.2,0.3,0.8,0.1,1
	c-5.2,3.5-10.3,6.9-15.6,10.4c-1.3,0.9-2.4,2-3.3,3.2c-0.7,1.2-0.9,2.7-0.8,4.1c0.1,1.9,0.6,3.7,1.6,5.4c2.4,4,4.9,7.9,7.5,11.7
	c0.5,0.9,0.8,1.9,1,2.9c0.1,1.8-0.7,3.5-2.1,4.7c-1.7,0.9-3.5,1.8-5.3,2.6c-0.7,0.4-1.5,0.8-2.2,1.3l-24-61h-1.4V491
	c-2.7,2-5.7,3.8-8.7,5.4c-2.5,1.1-5.2,1.5-7.9,1.3c-3.1-0.3-6.1-0.8-9.1-1.5c-6.5-1.2-13.2-1.5-19.8-0.7c-2.3,0.1-4.5,0.2-6.8,0.3
	c-2-0.2-4-0.5-6-1c-5.4-1-10.9-1.7-16.4-2.3c-1.3-0.1-2.5,0-3.8,0.1c-1.1,0-2.3,0.1-3.4,0.2c-1.4,0.3-2.8,0.6-4.1,1.1
	c-2.3,0.7-4.8,1.1-7.2,1.2c-0.4-1-0.6-2-0.7-3V19c0.3-4.9,4.3-8.9,9.2-9L577.1,9.9z M707.8,228.1c0.3,0.2-0.7,0.8-1.3,1.1
	c-2.1,1.1-4,2.6-5.6,4.4l-0.9,0.8l0.1-5.1C702.6,228.5,705.2,228.1,707.8,228.1z M708.6,0.4c-10,0.5-17.9,8.6-18.1,18.6v191.7
	L614,12.5c-2.8-7.1-9.5-11.9-17.1-12.2H488c-10.1,0.4-18.1,8.6-18.4,18.7v473.3c0.4,10.1,8.6,18.2,18.7,18.3h75.9
	c10-0.4,18-8.4,18.3-18.4v-242l97.6,248.4c2.8,7,9.4,11.8,16.9,12.1h88c10-0.4,18-8.4,18.3-18.4V18.7C803.2,8.6,795,0.5,784.8,0.4
	h-76H708.6z M727.7,146.8c-0.4,0.8-0.7,1.7-0.9,2.5c-0.1,0.7,0.3,1.3,1,1.4c0.7,0,1.5-0.2,2-0.7c2.1-1.5,4.2-2.9,6.3-4.4
	s6.4-3,8.5-3.9c-0.7,2.5-1.5,5.1-2.4,7.5c-0.8,2.4-1.4,4.8-1.9,7.2c0,0.8,0.6,1.4,1.4,1.4c0.3,0,0.7-0.1,0.9-0.3
	c1.8-1.2,3.5-2.5,5.1-3.9c1-0.8,2-1.4,3.1-2c0.5,0.6,0.8,1.2,1,1.9c1.8,4.9,3.2,10,3.9,15.2c1.2,7.5,1.9,15.1,1.9,22.8
	c-6.9-9.4-14.6-18.2-22.9-26.3c-5-4.7-10.2-9.1-15.6-13.2l-5.3-4.3c4-3.6,13.7-11.1,19.7-12.7C731.3,138.8,729.3,142.7,727.7,146.8z
	 M794,491.3c-2.6,1.6-5.2,3-7.9,4.3c-0.5-2-0.8-4-1-6c-0.7-6.2-1-12.4-1.1-18.7c-0.4-12.3-1.2-24.7-2.3-37l-0.7-8.5
	c-0.2-5.4-0.1-10.7,0.4-16.1c1.3-12.8,1.8-25.7,1.7-38.6c0-6.5,0.1-13.1,0.3-19.6c1-7.1,2.6-14.1,4.6-20.9c1.7-3.5,3.8-6.8,6-10
	L794,491.3z M794,306.8c-2.4,1.9-5,3.6-7.6,5.2c0.1-4.5,0.6-8.9,1.3-13.3c1.7-11.9,5.7-42.8,6.3-46.4V306.8z M668.7,180.7
	c-1.8-0.2-3.6,0.4-4.9,1.6c-1.5,1.3-2.8,2.9-3.6,4.8c-2.6,5-2.9,10.8-0.9,16l0.6,1.3c0.9,1.3,2.2,2.2,3.8,2.6c1,0.3,1.9,0.4,2.9,0.4
	c2.6-0.7,4.2-3.4,3.6-6.1c-0.1-0.2-0.1-0.3-0.3-0.5c-0.3-0.4-0.9-0.5-1.3-0.2c-0.5,0.6-1.4,0.9-2.2,0.8c-1.6-0.6-2.7-2.1-2.7-3.8
	c-0.3-3.4,1.5-6.7,4.6-8.2c1.4-0.7,3-0.4,4,0.8l5.8,15.2c0.1,1.5-0.1,3.1-0.6,4.5c-2.1,4.6-5.9,8.2-10.7,10c-3,1.3-6.2,2.1-9.4,2.4
	c-2.2,0.3-4.3,0.5-6.5,0.6l-0.2-0.3c0.8-2,1.5-4,2-6.1c0.5-2.9,0.4-5.8-0.2-8.7c-0.7-2.9-1.4-5.8-2.1-8.7c-1.1-5-1.8-10.1-2.2-15.1
	l3-2.9c3.6-3.4,7.5-6.6,11.6-9.5l1.7-1.3L668.7,180.7z M765.8,145.2c-0.3,1.2-0.6,2.3-1,3.5c-0.8,2.7-1.4,5.5-1.6,8.4
	c-0.2,0.4-0.5-0.6-0.6-0.8c-0.5-2.1-1.1-4.2-1.8-6.3c-0.5-1.1-1-2.1-1.6-3.1c2.2-1.2,4.6-2.1,7-2.8L765.8,145.2z M762.8,59.3
	c10.6,3,20.6,7.7,29.6,13.9c0.5,0.3,1,0.6,1.5,0.9v18.4c-3-1.4-6-2.7-9.1-3.8c-9.5-3.9-19.2-7-29.2-9.4c-4.8-1.1-9.7-2.1-14.6-2.8
	c-3.5-0.3-3.4,3.4-2.5,3.9c2.9,1.8,6.2,3,9.1,4.8c2.5,1.6,4.8,3.4,7.1,5.3c-26.3-2.8-51.3,0.3-54.8,1.4V72.4
	c3.3,1.7,6.5,3.4,9.7,5.3c3,1.6,6.1,3.1,9.3,4.4c0.8,0.3,6-0.1,3.1-5.1c-1.9-4.6-5-8.6-8.9-11.6c5.8,1,17.3,3.9,23,5.2
	c0.8,0.2,1.7,0.2,2.5,0c0.8-0.3,1.3-1.2,1.1-2.1c-0.2-0.5-0.5-1-0.9-1.4c-1.9-1.9-4-3.6-6.2-5.1c-0.7-0.5-1.4-1.1-2.1-1.7
	c5.4,0.8,10.8,1.8,16.1,3.1c6.1,1.7,12.1,4.1,17.8,7c0.9,0.4,1.9,0.8,2.8,1.2c0.5,0.2,1,0.2,1.6,0.1c1-0.5,1.4-1.6,1-2.6
	c-0.6-1.2-1.4-2.4-2.3-3.4c-1.9-2.5-4.1-4.9-6.5-6.9L762.8,59.3z M778.1,150.2c-0.7,3.1-0.8,6.3-0.5,9.4c0,2,1.7,1.7,2.3,1.2
	c1.3-0.9,2.6-1.9,3.8-3c2.1-1.6,4.3-3.1,6.5-4.6c-2.6,5-4.3,10.4-5.3,16c-0.6,2.4,1.6,2,1.9,1.8c1.1-0.9,2.2-1.9,3.1-3
	c1.3-1.2,2.6-2.4,3.9-3.4v4c-1.2,3.3-2.2,6.7-2.9,10.1c-0.9,3.6-1.5,7.3-1.8,11c0,0.6,0.4,1.2,1,1.5c0.8,0.1,1.6-0.2,2.2-0.7
	c0.4-0.3,0.8-0.5,1.3-0.7c-1.9,8-7.8,23.7-10.6,31.4c-1.4,4.2-2.8,8.4-4.2,12.7c-0.5,1.6-0.9,3.2-1.3,4.8h-0.1
	c-1.7-5.7-3.1-11.5-4.1-17.4c-1.4-9.6-2.4-19.2-3.1-28.8c-0.3-14.1,1.1-28.3,4.1-42.1c0.7-2.3,1.2-6.2,2.5-9.1
	c1.4-0.4,2.9-0.7,4.3-0.9C781.1,142.9,778.9,147.8,778.1,150.2z M660.7,160c-3.5,1.6-6.8,3.6-9.8,6c-1.8,1.4-3.5,2.9-5.4,4.2
	c-0.5-0.7-0.9-1.4-1.1-2.2c0-0.2,0.2-0.4,0.4-0.5c2.2-2,4.3-4,6.3-6.3c1.7-2,2.5-4.6,2.2-7.1c0-1.1-0.2-2.2-0.3-3.3l0.1-0.2l0.1-0.1
	c1.2-0.2,2.3-0.8,3.2-1.6L660.7,160z"/>
<path class="st0" d="M10.4,174.9c2.8,7.8,4.9,15.9,6.1,24.2c1.1,6.7,2.4,13.4,3.9,20c0.7,3.5,1.3,7,1.9,10.6
	c0.6,2.3,1.2,4.6,1.9,6.9c2,7.7,3.4,15.5,4.2,23.3c0.4,2.9,0.7,5.8,0.9,8.6c0.7,6.3,1.4,12.6,2.2,18.8c0.2,3.6,0.4,7.3,0.5,10.9
	c0.1,1.8,0.3,3.6,0.5,5.4c0.3,3,0.2,6-0.2,9h-0.1c-0.3-0.2-0.6-0.5-0.7-0.9c-1.8-3-3.8-5.8-6.1-8.4c-4.9-5.8-10.1-11.4-15.6-16.7
	V173.8L10.4,174.9z M409.4,9.9c3.4,0.6,6.7,1.4,10,2.3c0.4,0.1,0.8,0.3,1.2,0.5c-0.3,0.1-0.7,0.2-1,0.2c-7.3,0.5-14.6,1.6-21.9,3.1
	c-7.4,1.5-14.7,3.9-21.6,6.9c-4.9,2.3-9.7,4.8-14.5,7.5c-1,0.5-1.8,1.3-2.3,2.2c-0.2,0.4-0.2,0.9,0.1,1.3c0.5,0.9,1.5,1.2,2.4,0.9
	c0.8-0.1,1.5-0.3,2.3-0.6c7.4-2.2,15.1-3.2,22.9-3.2c-3.3,1.6-6.5,3.3-9.5,5.2c-8.2,5.2-15.9,11.2-23,17.8c-2.2,1.9-4.4,4-6.5,6.1
	c-0.4,0.4-0.6,1.1-0.5,1.7c0.2,0.6,0.6,1.1,1.2,1.3c0.3,0.2,0.8,0.2,1.1,0c8.6-3.3,17.4-6.1,26.3-8.3c4.4-1.1,8.9-1.9,13.5-2.3
	c6.2-0.4,12.4-0.4,18.6,0l3.4,0.3c-3,1.6-5.8,3.5-8.4,5.6c-2.5,1.9-5,3.9-7.3,6.1c-0.6,0.7-0.6,1.7-0.1,2.5c0.5,0.6,1.4,0.9,2.1,0.6
	c3.9-1.1,7.9-2.1,11.9-2.9c8.8-1.8,17.7-3,26.6-3.4c1.6-0.1,3.2-0.2,4.8-0.3v3c-2.6,2.5-5,5-7.3,7.7c-0.4,0.5-0.7,1-0.8,1.6
	c0,1,0.7,1.9,1.7,2.1c0.8,0,1.5-0.1,2.2-0.4c1.5-0.5,2.9-1.1,4.3-1.7v37.4h-0.1c-3.5-0.6-6.9-1.5-10.2-2.6c-3.1-1.1-6.1-2.3-9.2-3.6
	c-4-1.5-8-3-12.1-4.3c-0.6-0.2-1.2-0.5-1.7-0.8c0,0,0-0.1,0-0.1c0.2-0.2,0.4-0.2,0.6-0.2c3.7-0.6,7.4-0.9,11.1-1
	c0.9,0,1.7-0.1,2.5-0.4c0.7-0.4,0.8-1.3,0.4-2c-0.4-0.5-0.9-0.8-1.5-1.1c-4.1-2.2-8.5-3.7-13-4.7l-3-0.7c3.5-0.5,7.1-1,10.6-1.6
	c0.9-0.1,1.7-0.4,2.5-0.8c0.6-0.4,0.9-1.2,0.5-1.8c-0.2-0.4-0.6-0.7-1-0.9c-2.5-1-5.1-1.8-7.7-2.5c-2.5-0.7-5.1-1.3-7.7-1.6
	c-6.1-0.4-12.3-0.4-18.4,0.2c-4.3,0.5-8.5,1.2-12.6,2.1c-0.6,0.2-1.2,0.4-1.9,0.5c-0.3-0.1-0.7-0.3-1-0.5c-2.9-1.7-6-3.1-9.1-4.3
	c-2.8-0.8-5.7-1.2-8.6-1.3c-5.4-0.4-10.7-0.3-16.1,0.2c-5,0.8-10,1.8-15,3.1c-0.7,0.2-1.2,0.9-1.1,1.6c0.1,0.6,0.6,1,1.2,1
	c1.4,0.2,2.8,0.3,4.1,0.5c3.2,0.5,6.4,1.4,9.5,2.5c-6.7,1.5-13.2,4-19.2,7.5c-2.3,1.5-4.5,3.1-6.7,4.8c-2.3,1.7-4.5,3.5-6.7,5.4
	c-0.6,0.6-0.6,1.6,0,2.2c0.3,0.3,0.6,0.4,1,0.4c1.3-0.2,2.6-0.4,3.8-0.7c4.4-0.8,8.9-1.1,13.4-0.9c0.2,0,0.5,0,0.7,0.1v0.1
	c-0.3,0.4-0.7,0.8-1.2,1.1c-4.7,3.3-8.8,7.4-11.8,12.3c-3.1,4.9-5.5,10.2-7.4,15.7c-0.8,2.1-1.4,4.2-1.9,6.4c-0.2,0.6-0.2,1.2,0,1.7
	c0.3,0.6,0.9,0.9,1.6,0.8c0.7-0.4,1.3-0.8,1.8-1.4c1.7-1.5,3.6-2.8,5.6-3.9c2.6-1.5,5.2-2.8,8-3.9c5.5-2.5,11.1-4.7,16.8-6.7
	c3.8-1.3,7.6-2.4,11.5-3.4h0l0,0c-0.6,0.9-1.1,1.8-1.8,2.7c-1.2,2.1-2.2,4.3-3,6.6c-0.9,2.5-1.6,5.1-2.2,7.7
	c-0.2,0.7-0.2,1.4,0.1,2.1c0.6,0.5,1.4,0.5,2.1,0.1c1-0.7,1.9-1.5,2.8-2.3c3.8-3.3,7.8-6.3,12.2-8.9c1.6-1,3.4-1.8,5.2-2.3
	c0.8-0.2,1.7-0.1,2.5,0.4c1.1,0.6,2.1,1.3,3,2.2c2.9,2.8,5.2,6.3,6.6,10.1c0.4,1.2,1,2.4,1.5,3.6c0.2,0.5,0.7,0.8,1.2,0.9
	c0.6,0,1.1-0.4,1.3-1c0.3-0.9,0.4-1.8,0.6-2.7c0.7-3,1-6.1,1-9.2c-0.1-2.5-0.5-4.9-1.3-7.3c-0.1-0.2-0.1-0.4-0.1-0.5h0.1
	c4.3,0.7,8.5,1.8,12.6,3.4c4.4,2.1,8.5,4.7,12.2,7.9c0.3,0.3,0.8,0.4,1.2,0.2c0.6-0.2,1.1-0.8,1.1-1.4c-0.1-3-0.6-6-1.5-8.8
	c-0.5-1.9-1.4-3.6-2.6-5.2c-2.7-3.8-5.9-7.2-9.6-10.1c-0.1-0.1-0.2-0.2-0.3-0.3c0-0.1,0-0.1,0-0.2h0.1c0.9,0,1.8,0.1,2.7,0.3
	c3.3,0.6,6.5,1.4,9.7,2.4c7.6,2.2,14.7,5.6,21.2,10c1.9,1.3,3.9,2.6,5.8,3.8c0.6,0.3,1.4,0.1,1.7-0.5c0.4-0.7,0.4-1.5-0.1-2.2
	c-1.2-2.4-3-4.4-5.1-6c-3.5-2.7-7.1-5.1-10.9-7.2c-0.1-0.1-0.3-0.2-0.4-0.3c0.6-0.1,1.2-0.1,1.8,0c3.7,0.3,7.3,1,10.8,2.1
	c5.3,1.5,10.7,3.1,16,4.7v275.3c-1.7-0.2-3.4-0.3-5.1-0.2h-0.1l-0.1-0.2c0-0.2,0-0.4,0.1-0.5c0.4-0.6,0.8-1.2,1.4-1.7
	c0.6-0.7,1.1-1.5,1.5-2.3c0.4-3.1,0.4-6.1,0.1-9.2c-0.4-1.8-1.1-3.6-2.2-5.1c-1.1-1.2-2.6-1.9-4.2-2c-1.2,0.1-2.4,0.5-3.4,1.1
	c-1.6,1-3.1,2-4.7,3.1c-1.4,0.8-2.6,1.8-3.7,2.9c-0.1,0-0.1,0-0.2,0c-0.7-1-1.3-2.1-1.9-3.1c-0.5-0.8-1.2-1.5-1.9-2
	c-1.1-0.6-2.4-0.8-3.7-0.7c-1.5,0-3-0.1-4.5-0.2c-1.7,0.2-3.4,0.5-5,0.9c-2.4,0.4-4.8,0.8-7.1,1.2c-2.9,0.6-5.8,1.5-8.5,2.7
	c-2.7,1.3-4.9,3.4-6.5,5.9c-0.7,1-1.3,2.1-1.9,3.2c-2,3.8-4.4,7.4-7,10.7c-1.8,2-4.2,3.5-6.8,4.2c-2.7,0.9-5.5,1.3-8.3,1.1
	c-2.8-0.2-5.6-1.1-8-2.6c-1.3-0.9-2.3-2.2-2.7-3.8c-1.4-4-1.2-8.4,0.6-12.2c0.6-0.9,1.4-1.7,2.3-2.3c0.3-0.2,0.6-0.6,0.7-1
	c0.1-0.4,0-0.7-0.2-1.1c-0.4-1.2-1.1-2.3-2.1-3.2c-0.8-0.5-1.9-0.5-2.8,0c-1.5,0.8-2.8,2-3.6,3.6c-1.3,2.1-2.4,4.3-3.1,6.7
	c-0.8,3.2-0.8,6.6,0,9.8c0.7,3.3,1.7,6.5,3,9.6c1.7,3.3,4.2,6.2,7.3,8.2c4.7,3.3,10,5.7,15.6,7c2.5,0.5,5.1,0.8,7.7,1
	c2.9,0.1,5.8-0.1,8.7-0.7c1.6-0.3,3.3-0.6,4.9-0.8v0.1c-0.5,0.8-1.1,1.6-1.9,2.1c-0.8,0.7-1.7,1.4-2.4,2.1c-0.5,0.5-0.6,1.2-0.4,1.9
	c0.3,0.3,0.7,0.4,1.1,0.4c3.2-0.1,6.3-0.5,9.4-1.3l1.1-0.2l0.1,0.1c0.7,0.9,1.3,1.9,1.7,2.9c0.7,1.6,1.7,3,2.9,4.3
	c1.7,1.4,3.4,2.8,5.1,4.2c0.5,0.9,0.8,2,0.7,3c-0.4,2-0.8,4.1-1.2,6.1c0,1-0.4,2-1.1,2.7c-1,0.5-2,1-3,1.4c-2.9,1.2-5.5,2.9-7.8,5
	c-1.5,1.5-2.5,3.6-2.8,5.7c-0.4,2.4-0.6,4.8-0.7,7.2v5.6c-0.4,4.3-1.1,8.6-2,12.9l-0.2,0.9c-2.5,1.2-5.1,2-7.9,2.4
	c-2.1-0.5-4.4-0.6-6.5-0.3c-1.6,0.4-3.1,1.2-4.4,2.3c-1.3,0.9-2.6,1.8-4,2.5c-3.1,1.1-6.5-0.1-8.4-2.8c-1.3-1.8-2.6-3.5-3.9-5.2
	c-0.7-0.8-1.5-1.5-2.3-2.1c-2.1-0.6-4.4-0.6-6.5,0c-0.6,0.1-1.2,0-1.8-0.3c-0.6-0.1-1.1,0.1-1.6,0.5c-0.7,0.7-1.5,1.1-2.4,1.3
	c-0.5-0.1-0.9-0.3-1.2-0.6c-0.6-0.3-1.2-0.6-1.8-0.8V181.7h-0.3l-71.1,312c-0.5,2-1.6,3.9-3.2,5.2c-1.6,0.4-3.2,0.7-4.8,0.9
	c-1,0-2-0.2-2.9-0.6c-1-0.4-2-0.6-3-0.7c-0.6,0.1-1.2,0.4-1.5,0.9c-0.3,0.3-0.7,0.5-1.1,0.6c-0.3-0.1-0.6-0.2-0.9-0.4
	c-0.4-0.2-0.9-0.2-1.3-0.1c-1.3,0.2-2.6,0.5-4,0.8c-0.6,0.1-1.2,0-1.8-0.2c-1.1-1.1-2.5-2-4.1-2.4c-1.2-0.2-2.4-0.1-3.6,0.2
	c-2.2,0-4.3-0.3-6.4-0.9c-1.7-9.4-3.2-18.8-4.3-28.3c-0.3-3.4-0.5-6.9-0.4-10.3c0.4-4.8,1.6-9.5,3.6-13.9c1.4-3.3,2.8-6.6,4.1-9.9
	c1.5-3.9,2.5-7.9,3-12.1c0.6-4.8,1.1-9.5,1.6-14.3c0.6-4.5,1.5-8.9,2.7-13.2c1.2-5,1.9-10,2.1-15.1c0.5-6.2,1.3-12.4,2.6-18.5
	c0.4-1.9,0.9-3.8,1.5-5.7c1.2-3.5,3.5-6.5,6.4-8.7c0.7-0.4,1.5-0.6,2.2-0.6c1.6-0.1,3.2,0.1,4.8,0.4c2.4,0.2,4.7-0.1,7-0.7
	c1.4-0.4,2.9-0.5,4.3-0.2c1.7,0.6,3.4,1.5,4.7,2.7c1.8,1.6,3.8,2.9,5.9,3.9l0.2-0.1l0.2-0.1c0.2-0.3,0.3-0.6,0.3-1
	c-0.1-4.7-0.6-9.4-1.2-14.1c-0.5-3-1.4-5.9-2.5-8.7c-1.4-4.1-2.8-8.2-4.3-12.3c-1.4-3.9-0.6-8.2,1.9-11.5c0.5-0.4,1.1-0.5,1.7-0.3
	c0.9,0.2,1.7,0.6,2.5,1.1c1.8,0.8,3.8,1.1,5.8,0.9c2.5-0.1,4.9-0.9,6.9-2.5c1-0.9,1.8-1.9,2.6-3.1c2.8-3.8,5.2-7.7,7.3-11.9
	c3-5.2,5.4-10.7,7.2-16.4c1.2-4.3,2.2-8.7,2.9-13.1c1.5-7.1,2-14.4,1.5-21.7c-0.9-7.5-4.4-14.4-9.9-19.6c-2.7-2.8-5.8-5.2-9.1-7.1
	c-2.7-1.4-5.8-2-8.9-1.8c-3,0.2-5.9,0.3-8.9,0.3c-0.1,0-0.3-0.1-0.4-0.1c-0.3-0.2-0.6-0.5-0.7-0.8c-0.1-1-0.2-1.9-0.2-2.9
	c-0.1-1-0.4-2-1-2.9c-0.5-0.4-1.1-0.7-1.8-0.9c-1.6-0.5-3.3-0.9-5-1.1c-1.4,0.4-2.5,1.4-3.1,2.8c-2.7,5.5-2.4,12,0.8,17.2
	c1,1.4,2.2,2.7,3.6,3.6c1.7,0.9,3.7,1.4,5.6,1.4c3.6,0.1,7.1,0.6,10.6,1.6c3.4,1.2,6.2,3.5,8.1,6.5c2.7,5.3,2.4,11.7-0.9,16.8
	c-2.1,3.4-4.7,6.4-7.7,9c-2.6,1.4-5.6,1.5-8.3,0.2c-2.9-1.5-5.9-2.8-9-3.9c-2.5-0.7-5.1-1-7.7-0.8c-1.7,0.1-3.3,0.1-5,0.1
	c-1.9-0.2-3.7-0.8-5.4-1.6c-2-1-4-1.9-6.1-2.7c-2.4-0.7-4.9-1-7.4-0.9l55.9-232.9c1-4.1,4.5-7,8.7-7.3H409.4z M10.3,299.8
	c5.6,8.3,10.7,17,15.1,26c1.2,2.6,2.1,5.3,2.8,8.1c1.7,10.4,2.8,20.8,3.3,31.3c0.2,5.5,0.2,11.1,0.1,16.6c0,10.8-0.2,21.6-0.6,32.3
	c-0.5,7-0.9,14.1-1.5,21.1c-0.3,7.7-0.5,15.4-0.5,23.1c-0.1,11.1-0.4,22.3-0.9,33.4c-0.1,1.2-0.3,2.4-0.5,3.5
	c-0.6-0.6-1.1-1.3-1.5-2c-1.1-1.6-2.1-3.1-3.2-4.7c-0.6-0.8-1.3-1.5-2.1-2.1c-1.9-0.6-4-0.6-5.9,0c-0.5,0.1-1.1,0-1.6-0.3
	c-0.3,0-0.6,0-0.9,0.2c-0.6,0.4-1.2,0.8-1.7,1.2l-0.4,0.2L9.9,488V299.3L10.3,299.8z M20.4,20.5c-0.8,2.2-1.8,4.4-2.8,6.5
	c-1.4,3.4-2.1,7.2-2,10.9c0.2,1.2,1.3,2,2.5,1.8c0,0,0,0,0,0c0.5-0.1,0.9-0.3,1.4-0.5c2.8-1.6,5.5-3.3,8.1-5.1
	c9-5.4,18.7-9.5,28.8-12.1l0.1,0c-3.8,3.2-7.1,7-9.6,11.3c-0.4,1.1,0.1,2.3,1.1,2.8c0.6,0.2,1.3,0.1,1.9-0.2
	c1.9-0.7,3.7-1.5,5.5-2.5c8.4-4.2,17.3-7.1,26.6-8.6c2.7-0.5,5.4-1,8.1-1.3c-1,0.9-2,1.8-3.2,2.5c-2.4,1.6-4.6,3.5-6.6,5.6
	c-0.7,0.9-0.5,2.1,0.3,2.8c0.3,0.2,0.6,0.4,0.9,0.5c1.1,0.1,2.1,0,3.1-0.3c7.3-2.1,14.7-3.9,22.2-5.4l2.5-0.4
	c-0.5,0.5-1,0.9-1.5,1.3c-3.8,3.3-6.7,7.5-8.6,12.1c-0.4,1.3-0.5,2.6-0.2,3.9c0.4,1,1.4,1.6,2.4,1.5c0.5,0,1-0.1,1.4-0.3
	c3.2-1.2,6.3-2.7,9.3-4.4c4.6-2.5,9.3-5,14-7.4c3.8-1.9,7.7-3.5,11.6-4.9c0.7,0,1.3,0.2,1.9,0.5c1.3,0.6,2.7,1.2,3.9,1.9
	c0.3,1.1,0.6,2.1,0.7,3.2c1.2,6.9,1.1,13.9-0.2,20.7c-0.2,1.4-0.5,2.8-0.8,4.2c-0.5,0-1-0.1-1.5-0.3c-2.9-1-6-1.7-9.1-2
	c-3.5-0.4-7-0.7-10.5-1c-4.4-0.5-8.8-1-13.2-1.6c-6.8-0.6-13.6-0.9-20.4-0.8c-6.2,0-12.4,0.1-18.6,0.3c-2.2,0.2-4.4,0.4-6.6,0.6
	c4.4-3.7,9.2-6.9,14.3-9.7c1.4-0.8,2.7-1.7,3.9-2.7c0.6-0.6,0.6-1.5,0.1-2.1c-0.3-0.3-0.7-0.5-1.1-0.5c-1.5,0.1-3,0.3-4.4,0.7
	c-7.5,1.6-15,3.3-22.5,5.1C42.7,50,31.9,53.8,21.4,58.4c-1.9,1-3.7,1.9-5.6,2.8c-1.9,0.7-3.9,1.3-5.9,1.6V24
	C13.3,22.6,16.8,21.4,20.4,20.5z M435.8,464.7l4.3,1.9c0.4,0.1,0.7,0.2,1.1,0.3v20.5c-1.3,1.4-2.4,2.9-3.4,4.5
	c-0.7,0.3-1.4,0.5-2.1,0.7c0-6.1,0-12.3,0-18.4c0-3.1-0.1-6.2-0.4-9.3v-0.4L435.8,464.7z M123.5,97.8h0.3c4.3,0.5,8.5,1.2,12.7,2.2
	l0.2,0.1l0,0c-1.9,1.3-3.9,2.5-5.9,3.5c-0.5-0.3-0.9-0.7-1.3-1.1c-2-1.7-4.1-3.3-6.3-4.8L123.5,97.8z M184.3,81c-3.3-3-7-5.7-10.9-8
	c-0.5-0.3-1-0.6-1.4-0.9c2.8-3.4,5.5-6.8,8.2-10.3L184.3,81z M193,426.7c0.7,0.1,1.4,0.6,1.8,1.2c1.9,2.2,3.3,4.6,4.2,7.4
	c1.1,2.6,2.1,5.4,2.8,8.2c0.4,2,0.5,4,0.5,6c0.3,4.5,0.1,9-0.6,13.5c-0.5,3.3-1,6.6-1.5,9.9c-0.8,5.4-1.2,10.9-1.3,16.4
	c-0.1,3.1-0.2,6.2-0.3,9.4c-1.4,0.6-2.9,1.2-4.3,1.9c-2.7,0.9-5.7,0.3-7.8-1.7c-1.2-1.2-2.5-2.3-3.8-3.3c-0.3-0.2-0.7-0.4-1.1-0.5
	c-1.8-0.2-3.7-0.2-5.5,0.1l-1.3-0.2c-0.5,0-1,0.2-1.4,0.5c-0.5,0.2-1,0.4-1.5,0.5c-0.4-0.7-0.6-1.5-0.8-2.3l-6.2-29.9
	c1.7-3,3.2-6.1,4.5-9.3c0.3-0.9,0.5-1.9,0.7-2.8c0.2-0.9,0.5-1.8,1.1-2.6c2.1-3.6,4.6-6.9,7.3-10c2.9-3.4,5.9-6.6,9.2-9.6
	c1.2-1.1,2.6-1.9,4.1-2.5C192.3,426.7,192.6,426.7,193,426.7z M51.2,115.5h0.2c2.5,0.7,4.9,1.7,7.2,2.9l0.2,0.1c0,0.1,0,0.3-0.1,0.4
	c-1.1,1.5-1.8,3.1-2.3,4.9c-0.5,2-1.1,3.9-1.6,5.9c-0.1,0.1-0.1,0.2-0.2,0.4l-0.1,0.1c-0.2-0.3-0.2-0.6-0.2-0.9
	c-0.4-3.9-1.3-7.7-2.6-11.5C51.4,117,51.2,116.2,51.2,115.5L51.2,115.5z M185.7,89.7l0.5,0.2l34.2,160.1c-3.1-0.2-6.2-0.1-9.2,0.2
	c-2.8,0.9-5.1,2.9-6.2,5.6c-1.9,4.6-3.2,9.4-3.8,14.3c-0.3,1.6-1.2,3-2.4,4c-0.9,0.8-1.8,1.5-2.8,2.2c-1.9,1.5-3.4,3.3-4.4,5.5
	c-2.2,4.3-5.4,7.9-9.4,10.5c-2.4,1.6-4.7,3.3-6.8,5.3c-2.5,2-5.2,3.6-8.2,4.7c-3.6,1.4-7.2,3-10.6,4.9c-2.9,1.4-6,2.5-9.2,3.2
	c-3.6,0.9-6.9,2.5-9.9,4.6c-1,0.6-2,1.3-2.9,2.1l-17.3-83.1c-0.2-1.2-0.3-2.3-0.3-3.5h0.2c2.4,0.6,4.8,1.6,7,2.8
	c2.3,1.5,4.4,3.3,6.2,5.4c0.3,0.3,0.8,0.5,1.2,0.6c0.2,0,0.4-0.1,0.6-0.2c0.3-0.2,0.5-0.5,0.6-0.9c0-0.8-0.1-1.6-0.2-2.4
	c-0.7-4.8-2.1-9.4-4.3-13.6c-1.6-3.4-3.8-6.5-6.5-9.1c-1.9-1.8-4-3.3-6.4-4.4l-0.4-0.3v-0.1V208c0.9-0.2,1.9-0.3,2.9-0.3
	c2.9-0.2,5.8,0,8.7,0.5c0.7,0.1,1.4-0.3,1.5-1c0-0.2,0-0.3,0-0.5c-0.2-0.6-0.7-1-1.2-1.3c-7.3-4.2-15.7-6.3-24.1-6
	c-0.4,0.1-0.8,0.2-1.2,0.4l-1,0.5c-6.2-2.6-13.1-2.7-19.3-0.3c-3.3,1.3-6,3.6-7.9,6.6c-0.8,1.3-1.4,2.8-1.7,4.3
	c-0.1,0.7,0,1.5,0.3,2.2c0.1,0.2,0.2,0.3,0.4,0.5c0.3,0.2,0.7,0.3,1,0.2c1.1,0,2.1-0.1,3.1-0.4c2.6-0.5,5.3-0.6,7.9-0.2l0.1,0.1
	c-0.4,0.3-0.9,0.6-1.4,0.8c-5.2,2-9.6,5.5-12.6,10.2c-0.6,0.9-0.9,2-1,3.1c0,0.8,0.4,1.4,1.1,1.8c0.3,0.1,0.5,0.1,0.8,0.1
	c1.6-0.5,3.2-1.2,4.8-2c1.8-0.8,3.8-1.3,5.7-1.7c0.8-0.2,1.6-0.2,2.4-0.1h0.1l0.1,0.1c-0.2,0.8-0.4,1.6-0.6,2.3
	c-0.5,0.7-1.1,1.3-1.8,1.9c-4.8,4.5-9.2,9.3-13.3,14.5c-2.1,2.7-4.1,5.4-6,8.4c-4,5.9-7.8,11.9-11.5,18c-0.6,1.1-1.2,2.2-1.8,3.3
	v-0.1c-0.9-11.6-1.3-23.2-1.2-34.9c0.1-6.2,0.6-12.4,1.7-18.5c0.5-2.7,1-5.4,1.5-8.2c1.1-5.6,2.4-11.1,3.8-16.6
	c0.7-2.3,1.6-4.5,2.9-6.5c4.1-7.2,8.8-14.1,13.8-20.7c4.8-6,10.3-11.4,16.4-16c3.2-2.4,6.3-4.8,9.4-7.3c4.4-4,8.7-7.9,13.1-11.9
	c1.8-1.6,3.7-3.2,5.6-4.8l0.4-0.2c0.4,0.2,0.8,0.6,1.1,0.9c2.9,3.2,5.6,6.6,8.1,10.2c0.5,0.5,1.2,0.6,1.8,0.2c0.5-0.4,0.7-1,0.6-1.6
	c0-0.5-0.1-1-0.2-1.5c-0.6-3.6-1.4-7.1-2.4-10.6l-0.9-4.1v-0.2c1.3-1,2.7-2,4.1-2.9c0.1,0,0.3,0,0.4-0.1c2.1,0.6,4,1.4,5.9,2.4
	c1.4,0.7,2.8,1.4,4.1,2.2c0.4,0.2,0.8,0.3,1.3,0.4c1-0.2,1.7-1,1.7-2c-1.4-2.9-3-5.8-4.6-8.7c0-0.1,0-0.3,0-0.4
	c1.3-0.9,2.6-1.8,4-2.5l8-4.7c1.3,0.2,2.5,0.5,3.7,1c4.1,1.4,8.1,3,12,4.8c1.1,0.4,2.4,0.5,3.6,0.4c0.7-0.4,1-1.2,0.8-1.9
	c-1-1.6-2-3.3-2.9-4.9c-1.2-2-2.4-4.1-3.5-6.2c0.3-0.2,0.6-0.4,1-0.5c0.9-0.5,1.8-0.9,2.7-1.1h0.1c4.1,1.8,8.2,3.8,12.2,5.8
	c0.5,0.3,1.2,0.3,1.8,0.2l0.2-0.1c0.7-0.3,1-1.1,0.8-1.8c-0.1-0.4-0.2-0.7-0.5-1c-1.5-2.3-3-4.6-4.7-6.8c-0.1-0.1-0.1-0.2-0.1-0.3
	c2.6-1.2,5.3-2.2,8-3L185.7,89.7z M86.9,105.6c4.3,1.5,8.3,3.6,11.9,6.2c3.4,2.4,6.6,4.9,9.6,7.7l-9.6,7.6
	c-5.3,4.2-10.4,8.7-15.3,13.5c-8.4,8.4-16.2,17.5-23.2,27.1c-0.1-1.4,0-2.8,0.1-4.2c0.3-10.2,1.6-20.4,4-30.3
	c0.8-2.9,1.7-5.8,2.9-8.6c0.1-0.3,0.3-0.6,0.6-0.8H68c2.2,1.4,4.3,2.9,6.2,4.7c1,0.8,2.2,1.6,3.4,2.2c0.7,0.2,1.4-0.1,1.7-0.8
	c0.2-0.5,0.3-1,0.1-1.5c-0.8-3.4-1.8-6.7-3-10c-0.6-1.8-1.2-3.6-1.6-5.5c1.6,0.4,3.1,1,4.6,1.8c1.7,0.8,3.3,1.6,4.8,2.6
	c2.3,1.6,4.7,3.2,7,4.8c0.6,0.4,1.3,0.7,2,0.8h0.3c0.7-0.2,1.1-0.9,1-1.6l-0.1-0.4c-0.5-1.5-1.1-3-1.9-4.4
	c-1.9-3.6-3.7-7.2-5.5-10.8L86.9,105.6L86.9,105.6z M163.9,31.3c1.8,0.4,3.6,0.8,5.4,1.3c1.7,0.3,3.4,0.7,5,1.2l3.5,16.6
	c-3.3,3.8-6.7,7.4-10.2,11c-1.8,2.1-3.8,4.1-5.8,6c-0.1,0-0.2,0.1-0.3,0.2c-0.9-0.3-1.8-0.6-2.7-1c-1.7-0.6-3.3-1.2-4.9-2l-0.1-0.2
	v-0.1c0-0.2,0.1-0.3,0.1-0.5l0.1-0.2c1.7-6.2,2.2-12.6,1.6-18.9c-0.2-2.2-0.5-4.4-0.9-6.6c4.5,2.1,8.7,4.9,12.4,8.2
	c0.5,0.3,1,0.6,1.5,0.8c0.8,0.1,1.6-0.3,1.9-1c0.1-0.2,0.2-0.4,0.2-0.6c-0.3-1.4-0.8-2.7-1.4-4c-1.3-3.1-2.9-6.1-4.7-8.8l-0.8-1.3
	L163.9,31.3z M292.5,0.4c-8.3,0.6-15.2,6.5-17.1,14.6l-50.5,210.1L180.1,15.4c-1.8-8.5-9.1-14.6-17.8-15H18.7
	C8.6,0.7,0.5,8.9,0.4,19v473c0.2,10.2,8.5,18.4,18.7,18.5h79.6c10.2-0.3,18.4-8.5,18.5-18.7V280.7l44.7,214.8
	c1.8,8.7,9.4,15,18.2,15.1h71.2c8.7-0.3,16.1-6.3,18.1-14.8L322,265.3v227c0.4,10.1,8.5,18.2,18.6,18.4h91.6
	c10.2-0.3,18.4-8.5,18.5-18.7V18.7c-0.3-10-8.4-18-18.3-18.4H293.2L292.5,0.4z M100.1,230.4c0,0.1,0.1,0.1,0.2,0.2
	c2,3.3,4.3,6.5,6.8,9.5l0.6,0.7V492c0,0.5-0.1,1-0.2,1.4c-1.1-0.2-2.2,0-3.2,0.4c-1.7,0.8-3.5,1.2-5.3,1.4c-0.3,0-0.6-0.1-0.9-0.2
	c-1.3-0.6-2.7-1.3-4-2c-0.5-0.2-1.1-0.3-1.7-0.1c-0.7,0.6-1.2,1.3-1.6,2.1l-0.2,0.2c-0.2,0.2-0.4,0.3-0.7,0.3
	c-0.3-0.2-0.6-0.5-0.9-0.7c-0.5-0.3-1-0.3-1.5-0.2c-1.3,0.4-2.5,0.8-3.7,1.2c-0.8,0.3-1.6,0.3-2.3,0.1c-0.4-0.2-0.7-0.6-0.9-1
	c-0.9-1.3-1.9-2.3-3.2-3.2c-0.9-0.5-2-0.7-3.1-0.5c-0.7,0.2-1.5,0.4-2.2,0.5c-4-0.2-7.8-1.6-11-3.9c-1-0.3-2-0.2-2.9,0.3
	c-1.5,0.8-2.9,1.6-4.4,2.3c-0.4,0.2-0.9,0.4-1.3,0.5c-0.5-6.5-1.4-13.1-2.6-19.5c-0.7-4.4-1-8.9-0.8-13.3c0-8.9-0.3-17.8-0.9-26.6
	c-0.4-10.5-1-21-1.6-31.5c-0.2-3.9-0.4-7.9-0.5-11.8c0.1-14.8,0.6-29.5,1.5-44.2c0.8-6.9,1.5-13.8,2-20.8c0.4-3.1,0.7-6.2,1-9.2
	c0-1.9,0.4-3.7,1-5.5c2.4-7.8,5.1-15.5,8.1-23.1c1.5-3.9,2.8-7.7,4.2-11.6c2.5-8.9,6.6-17.3,12-24.8c2.6-3.7,5.6-7.1,8.8-10.3
	c0,0,0.1,0,0.1,0c0.5,1,1,2.1,1.4,3.2c0.7,1.6,1.7,3.1,3,4.3c0.7,0.6,1.7,0.6,2.4,0l0.2-0.2c0.5-1.4,0.9-2.8,1.1-4.3
	c1-4.4,3.4-8.3,6.9-11.2H100.1L100.1,230.4z M34.6,111.4c1.5,0.2,2.9,0.5,4.3,0.9c0.1,0,0.2,0.1,0.3,0.2v0.1c0,0.1-0.1,0.3,0,0.4
	c0.3,1.1,0.7,2.2,1.1,3.3c2,6.8,3.4,13.7,4.3,20.8c1.4,9.5,2,19.2,2,28.8c-0.2,4.5-0.5,8.9-1,13.4c-0.7,7.6-1.6,15.1-2.8,22.7
	c-0.7,4-1.6,8-2.7,11.9c-0.5,2.1-1.1,4.3-1.6,6.4c-0.2,0.5-0.5,1-0.8,1.5l-0.2,0.2c-0.1,0-0.2,0-0.3,0c-0.1,0-0.2,0-0.2-0.1
	c-0.6-0.6-1.1-1.3-1.4-2.1c-1.6-3.8-3-7.7-4.2-11.7c-1.5-4.3-2.9-8.7-4.3-13c-1.6-6.1-3-12.3-4.1-18.5c-0.5-2.8-1.1-5.6-1.7-8.4
	c-0.3-0.7-0.4-1.5-0.6-2.2c0.8,0.4,1.5,0.8,2.2,1.3c0.5,0.3,1.1,0.4,1.7,0.2c0.6-0.3,1-0.9,1-1.5c0-1.4-0.1-2.9-0.4-4.3
	c-0.7-5-1.8-9.9-3.1-14.7c-1.1-3.3-2.3-6.6-3.7-9.8l-0.2-0.5v-0.1h0.1h0.1c2.5,1.6,4.9,3.5,6.9,5.8c1.1,1.1,2.3,2.2,3.5,3.2l0.2,0.1
	c0.3,0.1,0.5,0,0.8-0.1c0.4-0.2,0.6-0.5,0.8-0.9c0-1.5-0.2-2.9-0.5-4.3c-1.2-5-3-9.9-5.3-14.6c3.9,2.7,7.7,5.5,11.5,8.5
	c0.5,0.3,1.1,0.3,1.7,0c0.5-0.3,0.7-0.9,0.8-1.4c0.3-3.2,0.2-6.5-0.4-9.6c-0.9-3.3-2-6.6-3.2-9.8c-0.2-0.6-0.4-1.1-0.5-1.7
	c0-0.1,0-0.1,0-0.2C34.4,111.3,34.5,111.4,34.6,111.4z M414.4,465c0.1,2.4,0.4,4.8,0.9,7.1c0.8,3.8,1.5,7.5,2,11.3
	c0.3,3.3,0.3,6.7-0.1,10c-0.9,0.3-1.9,0.5-2.9,0.4c-0.7-0.1-1.2-0.6-1.5-1.2c-1-1.3-2.3-2.5-3.8-3.3c-0.9-0.4-2-0.5-3-0.4
	c0.9-0.9,1.2-2.3,0.8-3.5c-0.5-1.6-1.2-3.2-1.8-4.8c-0.7-1.9-1.1-3.9-1.1-5.9c0-1.1,0-2.2,0.1-3.3c0.2-1.1,0.9-2.1,1.8-2.7
	c1.2-0.9,2.6-1.7,4-2.4c1.6-0.9,3.2-1.8,4.7-2.8L414.4,465z"/>
<path class="st0" d="M1198.8,0.4c-9.9,0.3-17.9,8.2-18.3,18.2v473.7c0.3,10.1,8.6,18.2,18.7,18.3h97.9c10.1-0.3,18.2-8.5,18.4-18.7
	v-156c8.2,0,16.3,0,24.5-0.1h0.4l9.2-0.3h0.4c8.8-0.3,17.6-1,26.4-1.9c11.3-1.2,22.5-3.2,33.6-6c5.4-1.4,10.7-3.2,15.9-5.2
	c1.3-0.6,2.6-1.1,3.9-1.6c19.1-8.5,35.6-21.8,48-38.6c11-14.8,19.1-31.6,24.1-49.4c1.1-3.9,2.1-7.8,2.9-11.8l0.7-2.8v-0.1l0.5-2.8
	v-0.1c0.4-2.1,0.8-4.2,1.1-6.3v-0.1c0.1-0.9,0.2-1.9,0.4-2.8v-0.1c2.3-16.5,3.1-33.2,2.4-49.9l-0.1-3.2v-0.1l-0.2-4.2
	c0-0.1,0-0.3,0-0.4c-0.2-3.1-0.5-6.1-0.8-9.2v-0.2c-1.6-15.6-5.1-30.8-10.4-45.6c-7.5-20.7-19.3-39.6-34.6-55.4
	c-7.1-7.2-15.2-13.3-24-18.3c-7.3-4.1-15-7.2-23.1-9.4c-2.7-0.8-5.5-1.6-8.3-2.1c-9.8-2.3-19.8-4-29.9-5c-1.7-0.2-3.3-0.4-5-0.6
	c-15.6-1.4-31.3-2.1-47-2.1H1199H1198.8z M1272.6,458.4c0.2,0,0.4,0.1,0.6,0.2c0.7,0.6,1.2,1.4,1.4,2.3c0.8,1.4,1.8,2.7,3,3.9
	c1.5,1.4,2.9,3,3.9,4.9c2.9,4.6,5.3,9.4,7.3,14.5c0.4,1,0.6,2,0.7,3c-0.3,1.6-1.1,3.1-2.2,4.4c-0.4,0.4-0.8,0.9-1,1.5
	c-4.1-0.3-8.1-1-12-2.1c-5.6-1.2-11.4-1.7-17.2-1.5c-0.2-1.2-0.2-2.4,0-3.6c0-0.3,0.2-0.5,0.5-0.6c0.1,0,0.2,0,0.3,0
	c0.5-0.4,0.8-0.8,1.1-1.3c1.6-3.2,3-6.5,4.1-9.9c0.6-1.9,1.3-3.8,2.1-5.6c1.4-3.3,3.3-6.3,5.7-8.9c0.4-0.4,0.9-0.8,1.4-1
	C1272.3,458.4,1272.5,458.4,1272.6,458.4z M1262.1,9.9c10,3,19.9,6.2,29.7,9.5c3.7,1.5,7.4,2.9,11.2,4.1c1.2,0.4,2.3,0.7,3.5,0.9
	c-0.4,0.7-0.9,1.3-1.5,2c-0.2,0.4-0.3,0.8-0.4,1.2c0.1,0.8,0.8,1.4,1.6,1.4c2.2-0.7,4.4-1.3,6.7-1.9h0.2c2.6,0.9,5.2,1.9,7.7,3.2
	c-0.9,1.2-1.8,2.4-2.7,3.6c-1,1.4-2,2.8-2.8,4.4c-0.2,0.6,0,1.3,0.6,1.7c0.6,0.3,1.2,0.4,1.8,0.1c2.3-0.9,4.5-1.8,6.7-2.9
	c2-0.9,4.1-1.8,6.1-2.6c1.3,0.4,2.5,1,3.7,1.8c-2,3.4-4.1,6.9-6.2,10.3c-0.6,0.5-0.7,1.5-0.3,2.2c0.3,0.4,0.8,0.6,1.3,0.6
	c1.5,0,3.1-0.3,4.4-1c4.6-2.1,9.3-3.7,14.2-4.8c4,2.4,8,4.8,11.9,7.4l0.1,0.1c0.1,0.3,0,0.5-0.2,0.8c-1.7,2.7-3.2,5.4-4.7,8.2
	c-0.1,0.9,0.6,1.8,1.5,2c0.3,0.1,0.7,0,1-0.2c2.6-1.4,5.4-2.7,8.2-3.8c0.8-0.3,1.5-0.6,2.3-0.8c0.4,0,0.8,0.1,1.1,0.4
	c1.2,0.9,2.4,1.8,3.5,2.8c-0.5,2.4-1.1,4.8-1.9,7.1c-0.8,3-1.5,6-2.1,9.1c-0.1,0.5,0,1,0.2,1.4c0.4,0.6,1.3,0.8,2,0.4c0,0,0,0,0,0
	c0.1-0.1,0.3-0.3,0.4-0.4c2.4-3.3,5-6.5,7.9-9.4l1.2-1.1l0.2-0.1c1.1,0.8,2.1,1.7,3.1,2.6c4.8,4.4,9.6,9,14.2,13.6
	c3.5,3.1,7.1,6.1,10.9,9c8.3,6.8,15.4,15,21,24.1c3.1,4.8,6,9.8,8.7,14.8c0.8,1.6,1.4,3.3,1.8,5c2.1,8.8,3.8,17.7,4.9,26.6l0.6,4.7
	c0.5,6.1,0.6,12.3,0.2,18.5c-0.3,9.5-0.9,19.1-1.9,28.6c-0.8-1.4-1.6-2.9-2.3-4.4c-4.4-7.6-9-15.1-13.8-22.5
	c-4.7-6.7-10-13-15.9-18.8l-0.9-1c-0.4-0.8-0.6-1.6-0.8-2.5c0-0.1,0-0.2,0-0.2c0.3-0.1,0.6-0.2,0.9-0.1c2.7,0.3,5.4,1.1,7.8,2.4
	c1.4,0.7,2.8,1.3,4.2,1.8c0.6,0.1,1.3-0.2,1.6-0.8c0.4-0.6,0.5-1.4,0.2-2.1c-0.4-1.6-1.2-3-2.3-4.2c-2.9-3.8-6.8-6.7-11.2-8.5
	c-0.4-0.2-0.7-0.4-1-0.6c0.3-0.1,0.7-0.2,1-0.2c3.1-0.1,6.2,0.2,9.2,1.1c0.5,0.1,1.1,0.1,1.6,0l0.3-0.2c0.7-0.8,0.9-2,0.6-3
	c-0.5-2.7-1.8-5.1-3.7-7c-1.9-2-4.3-3.5-7-4.4c-5-1.7-10.5-1.8-15.6-0.3c-0.8,0.2-1.5,0.4-2.2,0.7c-0.5-0.3-1-0.6-1.5-0.8
	c-0.9-0.2-1.9-0.3-2.9-0.3c-4.1-0.2-8.3-0.2-12.4,0.2c-2.7,0.2-5.4,0.8-8,1.7c-0.9,0.4-1.8,1-2.7,1.6c-1.2-7.9-4-15.5-8-22.4
	c-1.2-2-2.5-3.9-4-5.7c-1.7-2.1-3.8-3.8-6.2-5.1c-4.5-1.9-9.3-3.1-14.1-3.5c-3.2-0.3-6.4-0.5-9.6-0.6h-19.4v121.3
	c6.8,0,13.6,0,20.4,0c4.9-0.1,9.9-0.7,14.7-1.8c3.6-0.9,7.1-2.2,10.4-4c4.4-2.5,7.8-6.4,9.8-11.1c3-6.6,5-13.7,6.1-20.8
	c0.8-5.1,1.4-10.3,1.6-15.5c2.6-1.7,5.4-3,8.5-3.6h0.4v0.1c-0.7,5.3-1.1,10.7-1.4,16.1c-0.1,0.6-0.2,1.3-0.2,1.9c0,0.8,0.4,1.5,1,2
	c0.4,0.3,1,0.3,1.4,0c1.2-1,2.2-2,3.2-3.2c2.8-3.5,5.6-7,8.4-10.4c1.5-1.9,2.9-3.9,4.3-5.9l0.2-0.1c0.1,0,0.2,0.1,0.3,0.2
	c3.7,3.6,6.1,8.3,6.7,13.4c0.1,0.7,0.3,1.4,0.6,2.1c0.5,0.7,1.5,1,2.2,0.6c1.4-1.1,2.5-2.4,3.2-4c0.6-1,1.1-2.1,1.5-3.2
	c0.1-0.2,0.2-0.4,0.4-0.6c0.7,0.6,1.4,1.3,2,2c8.6,9.6,14.8,21,18.1,33.5c1.9,6,3.9,12,6,18c1.9,5.7,3.7,11.5,5.4,17.3
	c0.5,2,0.8,4,0.8,6c0.3,3.9,0.7,7.8,1,11.7c0.2,5.6,0.6,11.2,1.2,16.8c0,6.2-0.3,12.4-0.9,18.6c-10.1,6.9-21.3,12-33.2,15.1
	c-6.7,1.9-13.4,3.4-20.3,4.5c-7.1,1.2-14.3,2.1-21.4,2.7l-9.2,0.6h-0.2l-9.2,0.5h-0.2c-6.6,0.2-13.1,0.3-19.7,0.4
	c-7.9,0-15.8,0-23.7,0v57.1c-4.7-0.3-9.4-1.3-13.9-3c-2.5-0.9-4.9-1.8-7.3-2.8c-3.1-1.1-6.2-2-9.4-2.6c-3.2-0.7-6.6-0.1-9.4,1.6
	c-2.6,1.5-5,3.3-7.2,5.3c-3.3,2.9-6.7,5.8-10,8.8c-3.1,2.7-6.3,5.4-9.5,8.1c-0.7,0.6-1.5,1.1-2.3,1.4h-0.4c-0.2-0.1-0.4-0.2-0.5-0.4
	l-0.8-1.6l-0.2-0.3c-0.2-0.2-0.4-0.3-0.7-0.4h-0.2c-0.5,0.3-1,0.8-1.3,1.3c-0.4,0.7-0.7,1.4-1,2.1c-1.1,3-2.4,5.8-3.9,8.6
	c-0.9,1.6-2.1,2.9-3.6,3.9c-0.3,0.1-0.6,0.2-0.9,0.2c-0.7-0.2-1.3-0.5-1.8-1c-2.1-1.9-3.8-4.1-5.2-6.6c-0.5-0.8-1.3-1.4-2.3-1.5
	c-0.8-0.2-1.6,0-2.2,0.6c-0.5,0.8-0.8,1.7-0.7,2.7c-0.1,2.8,0.8,5.6,2.5,7.9c1.5,2.7,2.5,5.6,3,8.7c0.3,1.6,0.4,3.3,0.2,5
	c-0.1,0.6-0.3,1.2-0.6,1.7c-0.3,0.4-0.8,0.5-1.3,0.4c-1.3-0.2-2.4-0.8-3.3-1.7c-0.8-0.9-1.8-1.6-2.8-2.1l-0.4-0.1
	c-0.3,0-0.6,0.2-0.8,0.4c-0.3,0.5-0.4,1-0.4,1.5c-0.2,1.3-0.2,2.6-0.2,3.9c0.1,1.7-0.1,3.3-0.6,5c-0.1,0.6-0.5,1.1-1,1.5
	c-0.4,0.2-0.8,0.1-1.2-0.1l-0.2-0.1c-0.8-0.6-1.5-1.4-2.1-2.4c-0.9-1.5-2-3-3.2-4.3c-0.4-0.5-0.9-0.8-1.5-1.1l-0.3,0
	c-0.3,0.1-0.5,0.2-0.6,0.5c-0.1,0.1-0.2,0.3-0.2,0.5c-0.1,1.3-0.1,2.5,0.1,3.8c0.5,5.1,1.5,10.1,2.8,15c0.1,0.3,0.2,0.6,0.4,0.8
	c1,1.6,1.9,3.3,2.6,5c0.3,0.8,0.4,1.6,0.5,2.5c0.5,2.5,1.3,4.9,2.5,7.1c0.5,0.9,1.1,1.7,1.8,2.3c0.9,0.7,2.1,1,3.2,0.8
	c2.3-0.3,4.6-0.9,6.9-1.7c2.3-0.6,4.5-1.5,6.6-2.5c5.6-3,10.2-7.7,13-13.5c0.6-1.3,1.4-2.4,2.4-3.4c0.9-0.8,2.1-0.9,3.1-0.5
	c0.7,0.4,1.4,0.8,2,1.4c0.2,0.1,0.3,0.2,0.5,0.3c0.2,0.2,0.5,0.2,0.8,0.2l0.2,0c0.5-0.3,1-0.8,1.2-1.3c0.3-0.7,0.9-1.1,1.6-1.4
	l0.5-0.1c1.4,0.1,2.8,0.6,3.9,1.6c0.6,0.7,0.9,1.6,1,2.6c0.6,3.6,0.5,7.3-0.3,10.8c-0.9,5-2,9.9-3.2,14.8c-0.8,3-2.4,5.8-4.7,7.9
	c-1.4,1.5-2.8,3.1-4.1,4.7v0h-0.1c-2.5-0.3-5-0.7-7.4-1.3c-6.7-1.3-13.5-2.4-20.3-3.2c-1.6-0.1-3.1,0-4.7,0.2
	c-1.4,0.1-2.8,0.1-4.2,0.3c-1.2,0.2-2.4,0.5-3.6,1c-3.6,1.3-7.4,2.1-11.3,2.2V25.8c2.2-1.3,4.8-1.9,7.3-1.8c1.2,0.4,2.2,1,3.1,1.8
	c3.4,3,5.9,6.9,7.3,11.3c0.5,1.3,1,2.7,1.7,3.9c0.3,0.4,0.7,0.6,1.1,0.5c0.5-0.1,1-0.5,1.2-1c0.9-3.2,1.5-6.5,1.9-9.9
	c0.2-3.1-0.1-6.2-1-9.2l-0.1-0.5h0.1c4.3,0.8,8.5,2.1,12.5,3.8c4.3,2.2,8.2,4.9,11.8,8.1c0.2,0.2,0.5,0.3,0.8,0.5
	c0.9,0.1,1.6-0.6,1.7-1.5c0-4.1-0.8-8.1-2.4-11.9c-2.1-3.7-4.7-7.1-7.7-10h9.5c7.4,2.4,14.3,6,20.6,10.5c1.9,1.4,3.8,2.7,5.7,4
	c0.6,0.3,1.4,0.1,1.8-0.5c0.4-0.7,0.4-1.5,0-2.1c-1-2.2-2.5-4.1-4.4-5.6c-2.6-2.3-5.5-4.4-8.5-6.3L1262.1,9.9z M1295,459.6
	c2.1,0.1,4.1,0.4,6.1,0.9c1.5,0.3,3.1,0.5,4.7,0.5v23.1c-2,1.6-4.1,3.1-6.2,4.5c-1.2-2.2-2-4.6-2.4-7.1c0-2.5-0.1-5.1-0.6-7.5
	c-0.4-2.8-1-5.5-1.8-8.2c-0.3-1-0.8-2-1.4-2.8c-0.4-0.6-0.8-1.4-0.9-2.2v-0.3c0.1-0.2,0.2-0.4,0.4-0.5l0.4-0.2
	C1294,459.6,1294.5,459.6,1295,459.6z M1493.4,227.2c-4.2,16.4-11.3,31.8-20.8,45.8c-3.7,5.2-7.7,10.2-12.1,14.8
	c0.1-2.8,0.2-5.5,0.5-8.3c0.5-2.9,1.3-5.8,2.5-8.5c2-4.4,4.2-8.7,6.7-12.9c3.5-6,7.3-11.8,11.4-17.4c3.7-4.8,7.7-9.3,11.9-13.7
	L1493.4,227.2z M1491.9,104.6c3.4,11.4,5.8,23,7.1,34.8c2.6,24.5,1.8,49.3-2.4,73.6c-12.1,11.8-23.5,24.3-34.1,37.6
	c-0.8,1.1-1.6,2.3-2.3,3.4c-0.1,0.1-0.3,0.1-0.4,0.2c-0.3-3.9-0.2-7.8,0.4-11.6c0.3-3.1,0.5-6.1,0.7-9.2c0.3-3.5,0.7-7,1.3-10.4
	c1.2-7.9,2.2-15.8,3.2-23.7c1-6.7,2.5-13.4,4.3-20c0.7-2.3,1.4-4.6,2.1-6.9c1.3-6.3,2.8-12.5,4.3-18.7c1-4.1,1.8-8.3,2.6-12.5
	l1.6-7.7c1.5-6.1,3.4-12.2,5.8-18c1.8-4.5,3.4-9,4.8-13.6L1491.9,104.6z M1324.9,114.9c4.8,0,9.6,0.5,14.3,1.4c2,0.5,4,1.1,5.8,2
	c1.3,0.8,2.5,1.9,3.4,3.2c3.3,4.5,5.8,9.5,7.4,14.8c1.4,4.7,2.3,9.5,2.8,14.3c0.6,4.9,0.9,9.9,0.8,14.9c0.1,9.4-0.9,18.8-2.9,28
	c-1.1,4.9-2.9,9.7-5.1,14.3c-1.2,2-2.9,3.7-5,4.8c-2.3,1.3-4.8,2.2-7.3,2.8c-4.7,1.1-9.4,1.6-14.2,1.6h-9.5V114.9H1324.9z
	 M1463.2,52.9L1463.2,52.9c-0.1,0.8-0.4,1.5-0.7,2.1c-1.2,2.8-2.3,5.7-3.2,8.6c-0.6,2.5-0.9,5-0.9,7.5c-0.2,1.3-0.1,2.6,0.3,3.8
	c0.3,0.6,1,0.8,1.6,0.7c1-0.4,1.9-1,2.7-1.7c3.1-2.3,6.2-4.5,9.5-6.6c-2.8,5.3-4.9,10.9-6.2,16.8c-0.1,0.7-0.2,1.3-0.2,2
	c0.1,0.6,0.6,1.1,1.3,1.1c0.7-0.2,1.2-0.6,1.7-1.1c2.8-2.9,5.9-5.4,9.2-7.6l0.3-0.1c-0.4,1.2-0.9,2.4-1.6,3.6
	c-1.9,4.3-3.4,8.8-4.5,13.3c-1.1,3.9-1.8,7.9-2.2,12c-0.1,0.8,0.4,1.6,1.2,1.8c0.5,0.1,0.9,0,1.4-0.2c0.6-0.2,1.1-0.5,1.6-0.8
	l0.8-0.4h0.1l0,0v0.1c-0.8,2.3-1.5,4.6-1.9,7c-1.3,6.9-3,13.7-4.9,20.5c-2.7,8.1-5.6,16.1-8.8,24c-0.4,1.1-0.9,2.1-1.5,3.1
	c-0.2,0.3-0.5,0.6-0.8,0.8c-0.2,0-0.3,0-0.5,0c-0.5-0.4-0.9-1-1-1.7c-1.1-4.5-2.1-9.1-3.1-13.6c-1.2-7.2-2.1-14.5-2.5-21.8
	c-0.5-5.9-0.9-11.8-1.1-17.7c0.2-15.1,2.2-30.2,5.8-44.9c0.8-3,1.7-5.9,2.9-8.8c0.1-0.3,0.1-0.6,0.1-0.9v-0.1
	c0.6-0.2,1.1-0.3,1.7-0.4l3-0.5L1463.2,52.9z M1375.4,146.8c1.5,0.1,3,0.2,4.5,0.4c0.1,0,0.1,0.1,0.2,0.1v0.1
	c-0.9,0.6-1.8,1.1-2.8,1.6c-3.5,2-6.4,4.8-8.6,8.2c-0.1-3.3-0.4-6.6-0.9-9.9C1370.4,146.9,1372.9,146.7,1375.4,146.8z M1410.9,45.7
	c-1.8,3.5-3.7,7-5.7,10.4c-0.8,1.5-1.5,3.1-2.2,4.7c-0.3,0.7,0,1.5,0.7,1.9c0.4,0.2,1,0.2,1.4-0.1c0.6-0.2,1.1-0.5,1.6-0.9
	c2.3-1.6,4.6-3.1,6.9-4.5c2.9-1.6,5.9-2.9,9-3.9h0.2c0,0.5-0.2,0.9-0.4,1.4c-1.4,4-2.8,7.9-4.1,11.9c-0.3,1-0.6,2-0.6,3.1
	c0.1,0.7,0.6,1.2,1.2,1.3c0.6,0,1.3-0.2,1.8-0.6c2.3-1.6,4.5-3.2,6.6-4.9c0.6-0.4,1.3-0.8,2-1.2c0.1,0,0.1,0,0.2,0.1
	c0.6,0.9,1,1.9,1.3,3c1.8,5.6,3,11.4,3.7,17.2c1.1,7.9,1.5,15.9,1.3,23.8c-4.4-6.4-9.1-12.5-14.2-18.4c-6.1-7.2-12.8-14-19.9-20.2
	c-2.9-2.5-5.8-5-8.8-7.3l-3.5-2.9c-0.2-0.2-0.4-0.3-0.5-0.5v-0.1c4.2-3.6,8.7-6.9,13.5-9.7C1405.1,47.9,1407.9,46.6,1410.9,45.7
	L1410.9,45.7z M1446.2,57.1c-0.9,2.6-1.7,5.2-2.5,7.9c-0.4,2-0.8,4-1.1,6l-0.1,0.1c-0.4-0.8-0.6-1.6-0.7-2.4
	c-0.4-2.4-1.1-4.8-2.1-7.1c-0.3-0.6-0.7-1.3-1.1-1.9l-0.1-0.2c0.8-0.6,1.6-1,2.5-1.2c1.7-0.7,3.4-1.2,5.2-1.7L1446.2,57.1z
	 M1372.9,38.1c-2,1.3-3.8,2.7-5.6,4.3l-0.4,0.2c-2-1.1-3.9-2.3-5.7-3.6l-0.1-0.1l0.1,0c4.4-0.9,8.9-1.6,13.4-1.9L1372.9,38.1z
	 M1326.4,9.9c3,0,6,0,8.9,0.1c-5.8,1.6-11.4,3.4-17,5.6c-0.9,0.4-1.8,0.8-2.8,1.3c-6-2.6-12.2-4.9-18.4-6.9L1326.4,9.9z"/>
<path class="st0" d="M298.6,533.4c-8.3,0.6-15.2,6.5-17.1,14.6L231,758l-44.8-209.8c-1.8-8.5-9.1-14.6-17.8-15H24.9
	c-10.1,0.3-18.2,8.5-18.4,18.7v473c0.3,10.2,8.5,18.4,18.7,18.6h79.6c10.2-0.2,18.4-8.5,18.6-18.7V813.6l44.7,214.8
	c1.8,8.7,9.4,15,18.3,15.2h71.2c8.7-0.2,16.1-6.3,18.1-14.8l52.5-230.5v227c0.4,10.1,8.5,18.1,18.6,18.4h91.6
	c10.2-0.3,18.4-8.5,18.5-18.7V551.6c-0.3-10-8.4-18-18.3-18.3H299.4L298.6,533.4z"/>
<path class="st0" d="M717.6,533.3c-10,0.5-17.9,8.6-18.1,18.6v191.7L623,545.5c-2.8-7.1-9.5-11.9-17.1-12.2H497
	c-10.1,0.4-18.1,8.6-18.4,18.7v473.2c0.4,10.1,8.6,18.2,18.7,18.3h75.9c10-0.4,18-8.4,18.3-18.4v-242l97.6,248.4
	c2.8,7,9.4,11.8,16.9,12.1h88c10-0.4,18-8.4,18.3-18.4V551.6c-0.3-10.1-8.6-18.2-18.7-18.3h-76L717.6,533.3z"/>
<path class="st0" d="M1006.5,652.8c4.1-0.1,8.1,1.2,11.5,3.5c2.4,1.7,4.5,3.9,6.1,6.5c2,3,3.7,6.2,5,9.6c1.8,4.8,3.2,9.7,4.1,14.7
	l0.1,0.2v0.2c0.9,3.9,1.5,7.9,2,11.8c1.3,9.1,2.3,18.3,2.8,27.5c1.3,18.9,2,37.8,1.9,56.8c0.1,19.6-0.3,39.1-1.3,58.7
	c-0.5,9.8-1.4,19.5-2.5,29.2c-0.8,6.5-1.8,12.9-3.2,19.3c-0.8,3.9-1.9,7.8-3.2,11.6c-1.6,4.6-3.8,8.9-6.6,12.8
	c-1.4,1.9-3.1,3.7-5,5.2c-3,2.2-6.6,3.4-10.4,3.6c-2.7,0.2-5.3,0-7.9-0.7c-4-1.2-7.4-3.7-9.9-7c-2.6-3.4-4.7-7.1-6.2-11.2
	c-1.8-4.5-3.2-9.2-4.2-14c-1.8-8.2-3.1-16.4-3.9-24.8c-1.5-13.8-2.4-27.6-2.8-41.5c-1.1-31.8-0.8-63.6,1-95.4
	c0.7-11.2,1.9-22.3,3.5-33.4c0.8-5.2,1.9-10.4,3.2-15.6c0.9-3.5,2.1-7,3.5-10.3c1.7-4,4.1-7.7,6.9-11c2.2-2.4,4.9-4.2,7.9-5.3
	C1001.4,653.1,1003.9,652.7,1006.5,652.8z M1000.4,533.4c-10.7,0.2-21.4,1.4-32,3.4c-2,0.4-4,0.8-6,1.3
	c-21.4,4.9-41.5,14.6-58.5,28.4c-14,11.6-25.8,25.5-34.9,41.2l-1.7,2.9l-0.1,0.2l-2.8,5c-0.9,1.9-1.9,3.7-2.8,5.5
	c-0.1,0.2-0.3,0.5-0.4,0.8c-7,14.6-12.5,29.9-16.5,45.6c-0.4,1.4-0.8,2.9-1.1,4.3c-1.5,5.8-2.7,11.7-3.9,17.5
	c-3,15.6-5.1,31.4-6.4,47.3l-0.4,5.5c0,0.2-0.1,0.4-0.1,0.6c-2.5,35.5-2,71.2,1.5,106.7c1.5,14.4,3.8,28.7,6.8,42.9
	c3,13.8,6.9,27.5,11.8,40.8c5.7,15.3,13,29.9,21.9,43.5c7.9,11.7,17.2,22.3,27.8,31.6c18.5,15.8,40.8,26.5,64.7,31.3
	c11.6,2.4,23.4,3.7,35.3,3.8c16,0.3,32-1.4,47.7-5.1c15.5-3.8,30.3-10.1,43.8-18.6c15-9.7,28.1-22.1,38.5-36.5
	c7.3-9.9,13.5-20.5,18.6-31.7c5.8-12.4,10.5-25.3,14-38.5l2-7.6l1.7-7.2c1.6-7,3-14.1,4.1-21.2c3.1-18.5,5-37.2,5.8-56
	c1.5-29.4,0.9-58.9-1.7-88.3c-1.7-19-4.8-37.9-9.1-56.5c-3.5-14.6-8.1-28.9-13.9-42.8c-4.6-10.9-10.2-21.3-16.6-31.2
	c-7.8-11.9-17.1-22.8-27.8-32.2c-17.4-15.3-38.3-26.1-60.9-31.6c-5.3-1.4-10.7-2.4-16.1-3.1c-6.1-0.9-12.2-1.5-18.3-1.8
	C1009.9,533.3,1005.1,533.2,1000.4,533.4z"/>
<path class="st0" d="M1339.6,647.8c4.8,0,9.6,0.5,14.3,1.4c2,0.5,4,1.1,5.8,2c1.3,0.8,2.5,1.9,3.4,3.2c3.3,4.5,5.8,9.5,7.4,14.8
	c1.4,4.7,2.4,9.5,2.8,14.3c0.6,5,0.8,9.9,0.7,14.9c0.1,9.4-0.9,18.8-2.9,28c-1.1,4.9-2.9,9.7-5.1,14.3c-1.2,2-2.9,3.7-5,4.8
	c-2.3,1.3-4.8,2.2-7.3,2.8c-4.7,1.1-9.4,1.6-14.2,1.7h-9.6V647.8H1339.6z M1213.4,533.3c-9.9,0.3-17.9,8.3-18.3,18.2v473.7
	c0.3,10.1,8.6,18.2,18.7,18.3h97.9c10.1-0.4,18.2-8.6,18.3-18.7v-156c8.2,0,16.3,0,24.5-0.1h0.4l9.2-0.3h0.4
	c8.8-0.3,17.6-1,26.4-1.9c11.3-1.2,22.6-3.2,33.6-6c5.4-1.4,10.7-3.2,15.9-5.2c1.3-0.6,2.6-1.1,3.9-1.6c19.1-8.5,35.6-21.8,48-38.6
	c11-14.9,19.1-31.6,24.1-49.4c1.2-3.9,2.1-7.8,2.9-11.8l0.7-2.8V751l0.5-2.8v-0.1c0.4-2.1,0.8-4.2,1.1-6.3v-0.1
	c0.1-0.9,0.2-1.8,0.4-2.8V739c2.3-16.5,3.1-33.3,2.4-49.9l-0.1-3.2v-0.1l-0.2-4.2c0-0.1,0-0.3,0-0.4c-0.2-3.1-0.5-6.1-0.8-9.2
	l-0.1-0.2c-1.6-15.6-5.1-30.8-10.4-45.6c-7.5-20.7-19.3-39.6-34.6-55.4c-7.1-7.2-15.2-13.3-24-18.3c-7.3-4.1-15-7.2-23.1-9.4
	c-2.7-0.8-5.5-1.5-8.3-2.1c-9.8-2.3-19.8-4-29.9-5c-1.7-0.2-3.3-0.4-5-0.5c-15.6-1.4-31.2-2-46.9-2h-127.4L1213.4,533.3z"/>
</svg>
