<?xml version="1.0" encoding="utf-8"?>
<!-- Generator: Adobe Illustrator 25.2.3, SVG Export Plug-In . SVG Version: 6.00 Build 0)  -->
<svg version="1.1" id="Layer_1" xmlns="http://www.w3.org/2000/svg" xmlns:xlink="http://www.w3.org/1999/xlink" x="0px" y="0px"
	 viewBox="0 0 1326.1 1049.7" style="enable-background:new 0 0 1326.1 1049.7;" xml:space="preserve">
<style type="text/css">
	.st0{fill:none;stroke:#FF0000;stroke-width:0.75;stroke-miterlimit:11.34;}
</style>
<path class="st0" d="M17.4,448.9c4.3,3.5,9.3,6.1,14.6,7.7c8.6,2.7,17.6,3.7,26.6,3.1c2.6-0.1,5.2-0.4,7.8-0.7
	c1.7-0.2,3.5-0.2,5.2,0c0.5,0.1,0.9,0.6,0.9,1.1c0,0.1,0,0.2-0.1,0.3c-0.5,0.9-1.1,1.7-1.8,2.4c-0.6,0.8-1.2,1.7-1.5,2.7
	c-1.6,4-2.6,8.2-2.9,12.5c0.1,1.1-0.1,2.2-0.6,3.3c-1,2.3-2.3,4.4-3.7,6.4c-0.6,0.9-0.9,2-1,3.1c0,0.3,0.1,0.6,0.2,0.9
	c-2.6-0.6-5.2-0.9-7.9-1.1c-2.2-0.2-4.4-0.5-6.6-0.9c-1-0.3-1.9-0.7-2.7-1.2c-1.3-0.6-2.7-1.1-4.1-1.5c-4.7-0.5-9.4-0.5-14,0.1
	c-1.3,0.1-2.6,0-3.9-0.3c-1.2-0.1-2.4,0.1-3.5,0.5c-1.1,0.4-2.3,0.7-3.5,1.1c-1.7,0.4-3.4,0.2-5-0.4v-40.7l2.4-2.4L17.4,448.9z
	 M198.6,72.9c-1.3,2-2.6,4.1-3.8,6.2c-1.2,2.3-2.2,4.7-3,7.2c-0.1,1,0.5,1.8,1.5,2c0.4,0.1,0.7,0,1.1-0.2c3.2-2.3,9.5-7.1,13.4-8.7
	l-0.7,4.6c-0.6,5.6-0.5,11.2,0.5,16.7c0.7,3.1,1.4,6.1,2.1,9.1h-7.2c-1.4-1-2.8-2.2-4.1-3.4c-5.3-5.6-10.5-11.5-15.4-17.5
	c-2.4-2.7-4.7-5.5-6.9-8.3c2.5-1.1,15.2-5.8,19-7C196.2,73.3,197.4,73,198.6,72.9z M98.9,458.4c0.9,0.3,1.8,0.9,2.5,1.6
	c3.5,3.2,6.3,7.2,8.1,11.6c1.6,3.8,3.5,7.5,5.7,11c0.4,0.5,0.9,1,1.4,1.4c0.4,0.2,1.2,0.6,1.1,1.1c0.1,1.5,0,3-0.3,4.5
	c-0.1,0.7,0,1.5,0.3,2.2c0.2,0.3,0.5,0.6,0.9,0.8c-2.2,0.2-4.3,0.2-6.5,0.2c-2,0-4,0.1-6,0.1c-5.7-0.6-11.4-0.6-17.1,0
	c-3.1,0-6.2,0.1-9.3,0.2c0.5-0.4,0.9-1.2,0.7-1.5c-0.4-0.9-1-1.7-1.8-2.3c-1.1-1-1.9-2.3-2.5-3.7c-0.1-0.5-0.1-1.1,0.2-1.6
	c0.8-2.1,1.9-4.1,3.2-5.9c2.8-4.3,6-8.3,9.7-11.9c0.8-0.7,1.7-1.4,2.6-1.9c1.5-1,2.9-2.2,4-3.6c0.2-0.7,0.7-1.4,1.3-1.9
	C97.7,458.4,98.3,458.3,98.9,458.4z M115.6,114c3.8,0.3,7.4,1.9,10.3,4.4l-0.2,5.9c-3.6-2.9-7.7-7.6-11.7-9.8
	c-0.1-0.1-0.1-0.4,0-0.5C114.5,114,115.1,114,115.6,114z M287.8,397.8c4.9,0.2,8.8,4.1,9,9v19.6c-1.3-2.2-2.8-4.4-4.4-6.4
	c-3.5-3.8-7.8-6.7-12.7-8.5c-2.7-0.8-5.6-0.1-7.7,1.7c-0.7,0.7-0.8,1.9-0.2,2.7c0.4,0.5,1,0.8,1.6,1.1c1.3,1,2.4,2.3,3.2,3.8
	c1,1.6,1.7,3.4,2.1,5.2c1.2,4.4,2.7,8.8,4.6,13c1.3,3.4,2.7,6.7,4.1,10c2.4,5,5,9.8,8,14.5c0.7,1.2,1.2,2.5,1.5,3.8V480
	c-2.6-2.7-4.7-5.8-6.2-9.2c-1.3-3-3.1-5.8-5.2-8.2c-4.1-4.1-9.3-7-15-8.2c-1.1-0.3-2.3-0.5-3.4-0.8c-1.4-0.3-2.7-0.8-4-1.3
	c-2.7-0.9-5.2-2-7.8-3.2c-0.8-0.5-1.7-1-2.4-1.6c-2.9-1.8-6.1-3.1-9.5-4c-4-0.8-8.1-0.5-11.9,0.9c-1.4,0.6-2.3,1.8-2.5,3.2
	c-0.1,0.7,0.6,0.9,0.9,1c1.6,0.3,3.1,0.9,4.5,1.8c3.3,2.1,6.7,4.1,10.1,6c3.3,2,6.5,4.2,9.6,6.6l8.1,8.3
	c5.5,5.4,11.2,10.7,17.1,15.8c2.2,1.6,4.1,3.4,5.7,5.5c1.1,1.6,0.3,1.8-0.9,1.2c-4.3-3.5-9.1-6.2-14.3-8c-1.1-0.4-2.2-1-3.1-1.8
	c-2.1-1.2-4.2-2.1-6.5-2.8c-3.8-1.5-7.9-3.5-11.9-4c-4.6-0.1-4.1,4.5-2.5,4.8c2,0.4,3.9,1.1,5.8,2.1c2.1,1.1,4.1,2.1,5.4,4.2
	c1.2,1.7,2.3,3.5,3.4,5.3c0.6,0.9,1.2,1.7,1.8,2.5c-1.5-0.3-3-0.7-4.5-1.1c-4.3-0.9-8.7-1-13-0.3c-3.6,0.6-7.2,1.1-10.8,1.4
	c-2.6,0.1-5.1-0.1-7.6-0.8c-2.5-0.6-5.1-1.1-7.7-1.5c-1.7,0-3.5,0.3-5.1,1c-0.7,0.2-1.5,0.4-2.2,0.5c-2.3,0.1-4.6,0.2-6.9,0.2
	c-3.4,0.3-6.8,0.8-10.2,1.4c-2.1,0.3-4.2,0.2-6.2-0.2c-3.5-2.3-7.4-3.8-11.5-4.4c-2.3-0.3-4.5-0.3-6.8,0.1c-2.9,0.4-5.9,0.4-8.8,0.1
	c-3.1-0.1-6.2,0-9.2,0.4c-4.1,0.5-8.3,0.7-12.4,0.6c-0.9-0.1-1.9-0.2-2.8-0.4c0.7-0.4,1.2-1,1.7-1.6c0.1-0.3,0-0.7-0.1-1
	c-0.3-0.5-0.7-1-1.2-1.4c-0.8-0.8-1.6-1.5-2.5-2.1c-1.5-1.2-3-2.5-4.5-3.9c-1.8-1.8-3-4-3.7-6.4c-1.6-5.3-3-10.7-4.1-16.1
	c-0.4-2.9-0.1-5.8,0.9-8.5c0.4-0.8,1.2-1.4,2-1.8c1.4-0.6,2.9-0.9,4.4-0.8c1.1,0.2,2,0.8,2.5,1.8c0.3,0.5,0.9,0.9,1.5,1
	c0.9,0,1.7-0.3,2.4-0.9c1.1-0.7,2.4-1,3.7-1c1.5,0.2,2.8,0.9,3.8,2c0.9,1,1.7,2.1,2.4,3.2c5,6.5,12,11.2,20,13.3
	c3.3,0.9,6.6,1.6,9.9,2.4l2.4,0.4c3.1,0.7,6.3-0.9,7.8-3.7c1.5-2.1,2.6-4.6,3.1-7.2c0.4-1.2,1.1-2.4,2-3.4c0.7-0.9,1.4-1.8,2.2-2.6
	l0.1-0.2c0.8-1.8,1.4-3.6,1.9-5.4c1.2-3.7,2-7.5,2.5-11.4c0.2-0.8-0.3-1.7-1.1-1.9c-0.4-0.1-0.8,0-1.2,0.2c-0.4,0.2-0.8,0.4-1.1,0.7
	c-1.9,1.5-3.7,3.2-5.3,5c-0.8,0.7-1.7,1.2-2.7,1.4c-0.7,0-1.4-0.4-1.7-1c-0.8-1.6-1-3.5-0.8-5.3c0.1-1.5,0-3.1-0.4-4.6
	c-0.3-1-0.8-1-1.4-0.9c-1.6,0.4-3,1.2-4.3,2.2c-1.4,0.8-2.9,1.3-4.5,1.4c-0.8,0-1.5-0.4-1.8-1.1c-0.4-0.8-0.5-1.7-0.4-2.6
	c0.3-3.9,1.7-7.7,4.2-10.8c2.2-1.9,3.6-4.6,3.8-7.5c0.1-0.8-0.1-2.6-1.3-3.1c-1.6-0.7-3.5-0.5-5,0.5c-2.2,2.8-4.9,5.2-7.9,6.9
	c-1,0.6-2.3,0.6-3.3,0c-2-1.2-3.7-2.8-4.9-4.8c-1.5-2.4-2.9-4.9-4.2-7.5c-0.5-1-1.3-1.9-2.2-2.5c-0.6-0.3-1.2-0.2-1.7,0.2
	c-0.4,0.3-0.7,0.8-0.8,1.3c-0.4,0.9-1.6,1-3,0.2c-3.2-1.9-6.3-3.9-9.3-6L287.8,397.8z M24.5,107.9c-2.2,1.5-4.3,3.2-6.3,5.1
	c-3.4,3.3-6.2,7.1-8.3,11.2v-15.7C13.2,107.2,20.3,106.4,24.5,107.9z M90.8,113.6c0.6,0,1.3,0.1,1.9,0.3c8.5,1.5,16.1,6.8,22.8,11.9
	c5.2,4.4,9.8,11.3,10.2,14.1v60.6H233c0.5,0.8,1,1.7,1.4,2.5c3.1,6.3,5.9,12.7,8.5,19.2c3.1,7.2,5.4,14.8,7,22.5
	c2.4,11.2,4.2,22.6,5.6,34c-5.2-6.1-10.7-12-16.5-17.6c-3.3-3.4-6.8-6.6-10.4-9.6c-4.8-3.9-9.9-7.4-15.1-10.7c-0.8-0.6-2-2.3-1-3
	c1.4-0.3,2.8-0.4,4.2-0.2c2.2,0.2,4.3,0.6,6.4,1.2c0.8,0.2,1.6,0.3,2.4,0.3c0.7-0.1,1.9-1,0.7-3.6c-0.8-1.3-1.8-2.4-2.9-3.2
	c-3.9-3.1-8.4-5.1-13.3-5.9c1.6-1.9,8-0.9,10.8-1.9c0.7-0.4,1.8-1.6,0-4.6c-1.3-2.3-3.3-4.2-5.7-5.5c-2.8-1.5-5.9-2.3-9.1-2.2
	c-5.3,0-10.4,1.5-14.8,4.4c-4.1-1.6-12.5,1.1-16.8,3.5c-3.1,1.4-5.6,4.1-8.2,6.2c-0.9,0.6-1.1,1.7-0.6,2.6c0.1,0.1,0.1,0.2,0.2,0.3
	c0.5,0.3,1,0.3,1.5,0.1c3.6-1.4,7.3-2.2,11.2-2.5c-0.9,1.8-6.4,6.1-8.1,11c-2.9,6.7-4.1,13.9-3.4,21.2c-0.1,0.8,0.5,1.5,1.3,1.5
	c0.5,0,0.9-0.2,1.2-0.5l2.5-3.6c2.4-3.2,5.6-5.7,9.3-7.2c0.4,4.8,1.1,9.7,1.9,14.5l0.5,3.2c0.1,0.7,0.5,1.3,1,1.8
	c0.5,0.3,1.2,0.3,1.8,0c0.8-0.9,1.5-1.9,2-2.9L195,252c0.9-2,1.8-4,2.5-6c0.5,0.1,1,0.4,1.4,0.7c3.7,2.5,6.6,6.1,8.2,10.3
	c0.4,0.9,0.8,1.8,1.4,2.6c0.7,0.6,1.7,0.6,2.3,0.1c1.3-1.6,2.2-3.6,2.4-5.7c0.1-0.8,0.2-1.6,0.5-2.4c7.5,5.6,19.9,19.3,24.6,25.6
	c2.6,3.7,6.1,6.8,9,10.2c1.9,2.4,3.7,4.9,5.4,7.4c0.8,1.2,1.4,2.5,2,3.9c-1.5,1.1-3.3,1.7-5.2,1.8h-124v91.1
	c-4.8-3.4-9.7-6.6-14.8-9.4c-4.3-2.3-9.2-3.2-14.1-2.6c-4.1,0.5-8.2,1.3-12.2,2.2c-7.4,1.6-14.9,3-22.4,4
	c-5.8,0.7-11.7,0.8-17.6,0.4c-5.9-0.7-11.8-1.7-17.6-2.9c-2.6-0.5-5.2-0.8-7.9-1c-3.1,0-6.2,0.2-9.3,0.8V140.2
	c2.5-1.6,5.1-3,7.8-4.1c4.8-2.1,9.6-4.1,14.4-6c4.8-1.7,9.7-3.2,14.6-4.5c0,0.1,0,0.1,0,0.2c-2.2,2.9-3.8,6.2-4.9,9.7
	c-0.8,2.4-1.5,4.8-2,7.3c-0.3,2.1,3.1,0.8,3.5,0.4c4.7-4.4,10-8.2,15.8-11.2c1.5-0.9,3.3-1.1,5-0.6c1.9,1.1,3.5,2.5,4.8,4.2
	c2.1,2.5,3.7,5.4,4.7,8.5c0.4,1,0.8,2,1.3,2.9c0.5,0.5,1.3,0.6,1.8,0.1c0.2-0.2,0.3-0.4,0.4-0.6c0.8-3.1,1.3-6.3,1.5-9.4
	c0.1-3.1-0.3-6.2-1.2-9.2c3.2,0.1,9.4,1.9,12.2,3c4.2,2,8,4.5,11.6,7.5c0.3,0.2,0.5,0.3,0.8,0.4c0.6,0.2,1.3-0.1,1.5-0.8
	c0-0.1,0-0.2,0.1-0.2c0.1-1.2,0-2.4-0.2-3.5c-0.4-2.6-1.1-5.2-2.1-7.7c-1.5-2.8-3.3-5.4-5.6-7.6c-1.6-1.8-3.5-3.5-5.5-4.9
	C90,113.9,90.1,113.6,90.8,113.6z M18.2,0.4C8.3,1,0.5,9.2,0.4,19.1v473.2c0.3,10.1,8.5,18.2,18.7,18.4h268.8
	c10.2-0.3,18.3-8.5,18.5-18.7v-85.2c-0.3-10.2-8.5-18.4-18.7-18.5H135.3V310H250c10.1-0.4,18.1-8.6,18.3-18.6v-82
	c-0.3-10.1-8.5-18.2-18.7-18.4H135.3v-71.6H288c10.1-0.4,18.2-8.6,18.4-18.7V18.9c-0.2-10.2-8.5-18.4-18.7-18.6h-269L18.2,0.4z
	 M249.5,200.6c5,0.1,9,4,9.3,9v14.1c0,1.3-1.5,2.6-2.7,0.4c-2-4.2-4-8.4-6-12.6c-1.5-3.5-2.9-7.1-4.1-10.8L249.5,200.6z M296.9,71.3
	v29.5c-0.2,4.9-4.1,8.8-9,9h-65.5c-1-2.2-1.8-4.4-2.3-6.8c-1.6-6.1-2.5-12.3-2.6-18.6c0.3-3.3,0.7-6.5,1.3-9.8
	c0.8-2.5,4.8-2.9,6.8-2.3c6.5,2.5,12.8,5.5,18.9,8.9c4.6,2.6,9.2,5,14,7.2c1,0.4,2,0.7,3,0.8c1.2,0,2.2-1.1,2.2-2.3
	c0.2-2-0.4-4-1.6-5.6c-2.2-3.1-4.6-6.1-7.1-8.9c-0.6-0.7-1.1-1.3-1.7-2c8.1,1.4,16,3.3,23.9,5.6c1.1,0.3,2.3,0.5,3.4,0.6
	c1.1,0,2-0.8,2.2-1.8c0.5-2.7-4.6-5.6-6.8-7c-1.2-0.8-2.2-1.7-3.3-2.6C278.9,65.2,290.9,66.2,296.9,71.3z M103.7,10
	c0.2,0.7,0.7,1.2,1.3,1.4c1.4,0.5,2.7,0.8,4.2,1c4.4,0.7,8.7,1.7,12.9,2.9c0.2,0.1,0.2,0.4-0.4,0.5c-10.9,0.8-21.6,2.7-32.1,5.7
	c-6.4,2-12.6,4.6-18.5,7.7c-2.7,1.4-5.7,2.4-8.4,3.9c-0.7,0.5-1.3,1.1-1.7,1.8c-0.3,1.2,0.5,2.5,1.8,2.7c0.3,0.1,0.6,0.1,0.8,0
	c1.7-0.4,3.4-0.8,5.1-1.3c6.7-1.7,13.5-2.6,20.4-2.5c-6.4,3-12.4,6.7-18,11c-7,5.2-13.7,10.9-20,17c-1.3,1.1-1.6,2.9-0.9,3.6
	c0.5,0.6,3.5,1.4,7.7-0.5c7.3-2.6,12.9-5.6,20.4-7.4c4.3-1,8.6-1.8,13-2.2c7.5-0.5,15-0.4,22.5,0.3c-3,1.6-5.8,3.5-8.4,5.6
	c-2.6,1.9-5.1,4-7.5,6.2c-0.6,0.7-0.6,1.8,0,2.5c0.3,0.4,0.8,0.6,1.3,0.6c1.4-0.2,2.9-0.6,4.2-1c11.4-3,23.2-4.9,35-5.5
	c2.6-0.2,5.3-0.4,7.9-0.6c-2.8,2.7-5.5,5.5-8.2,8.3c-1,1-2,2.1-2.8,3.3c-0.5,1-0.1,2.2,0.9,2.7c0.5,0.3,1.1,0.3,1.6,0.1
	c6.2-2.1,12.5-4,18.8-5.7c1.8-0.4,3.5-0.7,5.3-1c-0.7,1.4-5.7,12.2-7.3,16.3c-0.7,2.5,2.9,2,3.4,1.7c2.6-1.3,9.1-4.5,10-4.7
	c3.8,5.4,7.8,10.7,12,15.8c2.4,3.2,4.9,6.4,7.4,9.4h-55.1c-3.5-2.5-16.7-5.9-22.7-6.7c-0.2,0-0.1-0.2,0-0.2c0.7-0.2,1.5-0.4,2.2-0.4
	c3.2-0.4,6.4-0.6,9.6-0.7c0.6-0.1,1.2-0.2,1.8-0.4c0.5-0.4,0.8-1.1,0.5-1.7c-0.2-0.5-0.6-0.8-1.1-1c-3-1.7-6.1-3-9.4-3.9
	c-2.2-0.6-4.3-1.1-6.5-1.6c3.9-0.5,7.8-1.1,11.7-1.8c0.7-0.2,1.2-0.6,1.6-1.1c0.3-0.7-0.1-1.5-0.8-1.8c-4.7-1.9-9.6-3.2-14.6-4
	C98.6,84,92.5,84,86.5,84.5c-4.7,0.5-9.4,1.3-13.9,2.5l-0.2-0.1c-3.2-2-6.6-3.6-10.2-4.8c-1.1-0.3-2.3-0.5-3.5-0.7
	c-6.5-0.8-13.1-0.9-19.6-0.3c-2.1,0.3-4.2,0.6-6.2,1.1c-2.9,0.5-5.8,1.2-8.7,2c-0.6,0.3-0.9,1-0.7,1.7c0.2,0.5,0.7,0.8,1.2,0.8
	c1.5,0.2,3.1,0.3,4.6,0.6c2.9,0.5,5.7,1.2,8.4,2.3c-6.4,1.5-20.9,7-27.8,12.3V19c0.2-4.9,4.1-8.8,9-9L103.7,10z"/>
<path class="st0" d="M865.5,448.6c0.4,0.7,0.7,1.5,0.8,2.3c0.7,3.1,1.2,6.3,1.5,9.4c0,1.3-0.4,2.5-1.3,3.5c-0.7,0.9-1.4,1.7-2.2,2.5
	c-1.7,1.9-2.3,4.5-1.6,6.9c0.4,1.1,1,2.1,1.8,3c-2.5,1-5.1,1.6-7.8,1.6c-0.3,0-0.7-0.1-1-0.2c0.6-1,1.1-2,1.5-3
	c0.4-1.1,0.2-2.3-0.5-3.2c-1.5-1.7-3-3.4-4.5-5c-0.7-1-1.1-2.1-1.2-3.2c-0.5-3.2-0.8-6.5-0.8-9.8c0-1.4,1.9-1.3,2.7-1.5
	c1.4-0.3,2.8-0.5,4.2-0.7c2.3-0.6,4.5-1.4,6.7-2.5C864.4,448.5,865,448.5,865.5,448.6z M893,436c0.5,1.2,0.9,2.5,1.1,3.9
	c0.5,3.4,1,6.8,1.5,10.2c0.5,2.5,1.4,4.9,2.8,7.1c1.1,1.8,2.1,3.6,3.2,5.4c1.1,1.7,0.9,4-0.6,5.5c-1.1,1-2.1,2.3-2.8,3.6
	c-0.3,0.8-0.4,1.6-0.4,2.4c-2.2-0.2-4.4-0.6-6.5-1.2l-0.7-0.3l-2.2-9.1c2-7.9,3.1-16,3.2-24.1c0.1-1.2,0.3-2.3,0.6-3.4
	c0.1-0.2,0.3-0.3,0.6-0.2C892.8,435.8,892.9,435.9,893,436z M792.7,0.4c-2,0-4.1,0.1-6.2,0.2l-3.3,0.1c-0.2,0-0.4,0-0.6,0h-0.1
	c-21.9,1.1-43.5,6.4-63.3,15.8c-16.6,8-31.6,19-44.2,32.5c-7,7.3-13.2,15.3-18.7,23.7l-2.5,3.8v0.1c-11.2,18.1-20.1,37.5-26.4,57.8
	c-4.8,15.2-8.6,30.7-11.2,46.5c-2.9,17.1-4.8,34.4-5.7,51.8c-1.3,22.8-1.1,45.6,0.5,68.3c0.2,1.8,0.3,3.6,0.5,5.4l0,0
	c0.2,2,0.4,3.7,0.5,5.7v0.2c0.4,3.5,0.8,7,1.2,10.4v0.1l0.7,4.8v0.1c3.4,25.1,10.1,49.7,19.8,73.2c6.9,16.3,15.7,31.7,26.3,46
	c8.1,10.7,17.3,20.5,27.6,29.2c22.7,18.9,50.6,30.6,80,33.5c19.7,2.3,39.7,0.9,59-3.9c20.5-5.5,39.3-16.1,54.6-30.9l3.3,14.3v0.2
	c2,8.3,9.4,14.1,17.9,14.3h40.7c9.8-0.2,17.7-7.9,18.3-17.7V239.2c-0.5-9.8-8.6-17.6-18.4-17.8H793.5c-10,0.3-18.1,8.4-18.3,18.4
	v79.5c0.3,9.9,8.2,17.9,18.1,18.2h45c-0.7,10.1-2.8,20-6,29.6c-1.7,4.8-4.2,9.3-7.2,13.3c-4.7,5.9-11.6,9.6-19.1,10.3
	c-7.1,0.9-14.3,0.2-21.1-2.2c-5.7-2.1-10.7-5.6-14.7-10.2c-5.2-5.8-9.2-12.6-11.8-19.9c-2.3-6-4.1-12.3-5.5-18.6
	c-2.8-13.5-4.7-27.2-5.5-41c-2.1-33.2-1.6-66.5,1.5-99.6c1.2-11.7,3.2-23.4,5.9-34.9c1.6-6.4,3.9-12.7,6.8-18.7
	c3.5-7.1,8.4-13.4,14.3-18.6c9.8-7.9,23.2-9.6,34.7-4.4c3.3,1.6,6.2,3.9,8.5,6.7c3.6,4.1,6.5,8.8,8.6,13.8c3.5,7.8,6,16.1,7.7,24.5
	c1.6,7.3,2.7,14.7,3.5,22.2l0.4,3.9c1.5,10.2,11,17.3,21.2,15.9l0.6-0.1l84.7-14.8c9.8-1.7,16.5-10.7,15.4-20.6
	c-1.8-19.1-5.4-38-10.6-56.4c-4.4-15-10.4-29.5-18-43.2c-7.2-12.7-16.2-24.3-26.7-34.5C887.3,22.4,864,10.3,838.8,5
	C823.7,1.6,808.2,0.1,792.7,0.4z M929.3,231c3.2,2.8,6.7,5.3,10.5,7.3c1.8,1,3.7,1.8,5.6,2.7c2.2,1.1,4.4,2.3,6.4,3.7v18.1
	c-2.4-3.6-4.6-7.2-6.6-11c-0.5-0.8-1.1-1.6-1.7-2.3c-5.7-6.4-11.7-12.6-17.9-18.5L929.3,231z M800.4,10c15.1,0.3,30.1,2.5,44.7,6.4
	c11.3,3.2,22,7.9,32.1,13.8C871,35.7,865.5,42,861,48.9c-1.7,2.8-3.2,5.6-4.5,8.6c0.1,1,0.8,1.8,1.8,1.9c0.8,0.1,1.6-0.2,2.2-0.7
	c4.3-2.8,8.5-5.8,12.7-8.7c4.7-3.5,9.2-7.2,13.5-11.2l1.4-1.3l0.4,0.2l2.5,1.9c-3.6,2.5-6.8,5.4-9.5,8.8
	c-6.9,8.3-13.7,16.3-20.6,24.6c-2.6,3.2-4.8,6.6-6.7,10.2c-1.7,2.4-2.9,5-3.8,7.8c-0.5,1.2,0.7,1.8,1.6,1.9c0.8,0.1,1.5-0.1,2.2-0.5
	c6.1-3.6,11.3-7.9,16.9-12.2c5-3.6,9.8-7.4,14.5-11.3c2.3-2,4.4-4.3,6.1-6.9c3.2-4.5,6.3-9.1,9.3-13.8l2.3,2.3
	c-0.4,3.2-1.2,6.4-2.3,9.4c-1.1,1.7-2.5,3.3-3.9,4.8c-2.9,3.1-6,6-9.4,8.7c-6.7,5.8-13,12-18.9,18.7c-5.7,6.7-10.4,14.2-13.8,22.3
	c-2.1,2.9,0.8,4.9,2.5,3.8c1.2-0.8,2.4-1.8,3.3-2.9c2.2-2.5,4.6-5,7-7.3c8.2-8.3,15.9-17.1,23-26.4l7.9-10.1c0.5-0.5,1.5,0,1.3,0.6
	c-1,2.7-2.4,5.2-4.2,7.3c-1,1.3-15.6,25-21.9,35.6c-3.4,5.8-6.1,12-8.3,18.4c-0.7,2.2-1.2,4.5-1.7,6.8c0.2,1.8,1.2,3.4,2.8,4.4
	c1,0.4,2.1,0.2,2.9-0.4c7.1-5.9,13-13.2,17.4-21.3c3.6-6.3,6.4-13,8.4-20c0.7-2.2,1.4-4.4,2.1-6.6c0.1-0.2,0.2,0.1,0.2,0.3
	c-0.6,11.8,1,23.7,4.8,34.9c0.3,1.9,0.6,3.9,0.9,5.8c0.1,1.2,3.7,2.3,5.6-0.8c0.6-1.5,0.9-3.1,0.9-4.7c0-2.1-0.1-4.2-0.1-6.3
	c0-1.3,0.1-2.6,0.4-3.8c0.5-4.2,0.7-8.4,0.5-12.6c-0.3-2.8-0.8-5.6-1.6-8.4c-1.4-6.4-2.3-12.9-2.7-19.5c0.1-0.2,0.3-0.3,0.5-0.2
	c3.2,8.2,6.5,16.4,9.9,24.5c2.9,6,6.2,11.9,9.9,17.4c0.8,1.5,1.4,3.1,1.7,4.8c0.4,2.3,0.8,4.7,1.2,7l0.5,1.6
	c0.7,2.2,4.3,2.1,4.6-0.2c0.1-1.4,0-2.8-0.1-4.2c-0.5-4-1.2-8-2.2-11.8c-0.8-3.4-1.7-6.8-2.6-10.1c-0.8-3.4-1.5-6.8-2.1-10.2
	c-0.3-1.3-0.7-2.6-1.2-3.8c-3.7-8.6-7.7-17.1-12.1-25.4c0.1-0.4,0.4-0.7,0.8-0.6c1.7,1.3,3.2,2.9,4.4,4.6c2.3,3,4.4,6.2,6.2,9.5
	c0.6,1.1,1.3,2.2,1.9,3.2c0.5,0.9,1.4,1.7,2.4,2.1c4.1,8.4,7.5,17.1,10.2,26c4,12.6,7.1,25.5,9.1,38.6l1.1,7v0.2
	c0.7,4.8,1.3,9.7,1.8,14.6c0.4,4.7-2.9,9-7.6,9.8l-84.7,14.8c-5,0.9-9.7-2.4-10.6-7.4c-1.2-13.1-3.5-26-6.9-38.7
	c-2-7.3-4.9-14.3-8.5-21c-1.8-3.3-4-6.5-6.4-9.4c-7.8-9.3-19.5-14.3-31.5-13.6c-11.3,0.4-22.1,5.2-29.8,13.4
	c-6.7,7-12,15.3-15.6,24.3c-3.5,1.9-7.4,10.1-8.1,16.3c-0.6,3.7-1.3,7.3-2.3,10.8c-0.1,0.6-0.6,1.1-1.2,1.2c-0.7,0-1.5,0-1.7-0.8
	c-1.6-9.2-3.6-18.4-6-27.5c-0.6-2.1-1.5-4.1-2.6-6.1c-2-3.9-3.8-7.8-5.4-11.9c-1.1-2.5-2.2-5.1-3.3-7.6c-1.3-2.9-2.8-5.7-4.5-8.4
	c-0.7-1.1-1.4-2.1-2.2-3c-2.5-1.7-4.2,1.6-3.7,2.6c0.5,2.6,1.2,5.1,2,7.7c0.6,2,1,4,1.1,6.1c0.4,3,1.2,6,2.2,8.9
	c1.2,3.3,2.2,6.6,3,9.9c2.3,8.5,4.7,17,7.2,25.4c0,0.2-0.2,0.3-0.4,0.3c-0.1,0-0.1,0-0.2-0.1c-4-6.1-7.6-12.4-10.6-19.1
	c-1.4-3-3.1-6-5-8.7c-1.2-2.1-2.6-4.1-4-6.1c-0.7-1-1.5-1.9-2.4-2.7c-1.8-2.1-3.8-4-5.7-5.9c-1.6-1.5-3.4-2.7-5.3-3.6
	c-1.2-0.5-2.6-0.7-3.9-0.5c-0.6,0.1-1.2,0.4-1.5,0.8c-0.2,0.5-0.2,1,0.1,1.4c1,1.6,2,3.1,3.1,4.5c0.6,0.7,1.1,1.6,1.5,2.4
	c3.9,11.2,9.9,21.5,17.6,30.5c0,0.1,0.1,0.3,0,0.3c-1.9-1.2-3.8-2.5-5.7-3.9c-2.9-2.1-5.9-4-9-5.8c-7.5-4.3-15.6-7.5-24-9.5
	c-4.3-1-8.7-1.5-13.2-1.6c-1.7,0.1-3.1,1.5-3.1,3.3c-0.1,1.3,0.4,2.5,1.4,3.3c3.8,3.3,7.9,6.2,12.3,8.6c4.4,2.4,8.9,4.5,13.6,6.3
	c8.1,3.1,16.3,6.1,24.6,8.8l7.5,2.5c2.4,0.9,4.8,1.6,7.3,2.2c1.9,0.6,3.7,1.3,5.4,2.2c0.5,0.2-0.7,2.5-1.2,2.4l-12.4-3.1
	c-12.9-3.4-26.1-5.8-39.3-7.4c-1.7-0.2-3.4-0.5-5.1-0.9c-1.7-0.5-3.4-0.8-5.2-0.6c-0.6,0.3-1.9,2-1.1,3.3c0.7,0.7,1.5,1.2,2.4,1.6
	c7.8,4.4,16.2,7.5,25,9.3c4,0.8,8,1.5,12,1.9c5.9,0.7,25.2,5.2,31.2,5.4c1.9,0.1,5.7,1.4,6.4,2.4s0.8,2.7-1.2,2.5
	c-5.8-2.1-8.8-1.8-14.7-3.2c-2.6-0.6-5.2-1-7.8-1.1c-9-0.2-18-0.1-27,0.3c-3.3,0.2-6.5,0.3-9.8,0.7c-0.7,0.1-1.4,0.1-2.1,0.2
	c-1.9,0-1.7,2.6-0.9,3.1c1.8,1.2,3.6,2.2,5.6,2.9c1.3,0.5,2.6,1,3.8,1.6c1.9,0.8,3.8,1.5,5.8,2c2.7,0.8,5.3,1.4,8,2
	c9.2,2,17.9,4,27.1,6c4.5,1,9,1.4,13.6,1c-0.1,1.2-0.2,2.4-0.2,3.6h0c-2.3-0.4-4.7-0.7-7-0.7c-4.6-0.4-9.1-0.5-13.7-0.4
	c-5.3,0.2-10.6,0.5-15.9,0.9c-0.9,0-1.8,0.7-2.1,1.6c-0.2,0.8,0,2.2,0.3,2.3c6.1,3.3,12.6,5.1,19.4,6.4c6.1,1.2,12.3,2,18.5,2.2
	c-1.1,26.2-0.6,52.5,1.5,78.7c1.1,13.1,3.3,26.2,6.3,39c1.8,7.2,4.2,14.2,7.2,20.9c3.6,7.7,8.7,14.6,14.9,20.3
	c7.2,6.3,16.1,10.3,25.6,11.3c3.6,0.5,7.2,0.6,10.8,0.3c-5.4,7-9.5,14.9-12.3,23.4c-0.9,3-1.4,6.1-1.6,9.3c-0.3,2.2-0.9,4.4-1.8,6.4
	c-0.9,1.6-2.2,2.9-3.7,3.8l-3.3,2c-1.6,1.1-2.9,2.7-3.7,4.5c-1.2,2.9-2.1,5.8-2.8,8.9c-1.1,3.8-1.8,7.6-2.1,11.5
	c-0.2,2.8,0.9,5.6,2.9,7.6l0.8,0.8c-1.6,0.5-3.2,0.9-4.9,1.1c-4.3,0.6-8.6,1.1-13,1.6c-3.3,0.3-6.6,1-9.9,1.9
	c-3.7,0.5-7.4-0.2-10.6-2c-4-2.6-8.2-5-12.5-7.2c-2.1-0.5-4.2-0.8-6.3-0.8c-2.2-0.1-4.4-0.2-6.5-0.4c-2.1-0.2-4-1-5.6-2.4
	c-0.6-0.4-1.2-0.8-1.8-1.2c-3.1-1.4-6.3-2.7-9.5-3.8c-2-0.7-3.9-1.5-5.8-2.3c-4.1-2.1-7.7-5.1-10.6-8.6c-3.3-3.9-6.3-8.1-8.8-12.5
	c-1.4-2.5-2.9-5.1-4.4-7.5l-0.3-0.3l-0.3-0.3c-0.5-0.2-1-0.5-1.5-0.7c8.9-4,17-9.4,24.2-16c1.8-1.7,3.4-3.5,4.9-5.4
	c0.7-1.1-1.3-3-2.9-2.4c-5.1,1.6-10.1,3.3-15.1,5.1c-4.5,1.7-8.9,3.6-13.2,5.7c-1.8,0.8-3.5,1.6-5.4,2.2c-1.2,0.2-1.6-1.5-0.4-2.5
	c3.7-1.6,7.3-3.6,10.6-6c8.6-5.8,17.2-11.6,25.7-17.5c3.2-2.2,6.2-4.7,9-7.4c0.8-0.9,1.7-1.8,2.6-2.6c1.5-1.4,2.9-3.1,4.1-4.8
	c1-1.4-1-2.6-3-2c-6.7,1.8-13.3,4-19.7,6.5c-5.7,2.1-11.4,4.4-17,6.9c-2.8,1.4-5.5,2.9-8.5,4.3c-4.9,2.4-8.9,3.4-7,0.8
	c1.6-1.4,3.3-2.5,5.1-3.6c3.3-2.1,6.7-3.9,10.3-5.4c8.4-3.9,15.7-9.3,23.3-14.4c7.5-5.2,14.2-11.5,19.8-18.7c1.5-1.5-0.5-3.3-1.7-3
	c-1.3,0.3-2.6,0.8-3.7,1.5c-1.1,0.6-2.2,1.3-3.2,2c-2.2,1.3-4.4,2.6-6.6,3.8c-10.2,5.8-20,12.1-29.3,19.1l-10.3,7.5
	c-0.7-0.1-2.2-0.3-2-1.8c1.9-2.3,4.2-4.4,6.7-6c1.2-0.9,2.3-1.9,3.4-2.9c9.3-7.8,18.4-15.8,27.3-24.1c4.6-4.5,8.8-9.3,12.5-14.6
	c1.6-2.3,3-4.8,4.3-7.3c0.9-1.8,0.3-4.1-1.4-5.2c-0.9-0.5-2.1-0.6-3.1-0.1c-7.1,3.2-13.6,7.4-19.3,12.7
	c-6.5,5.9-12.2,12.6-16.8,20.1c-1.2,1.9-2.5,3.8-3.8,5.7c-0.1,0-0.2,0-0.2-0.3c3.9-11.2,5.6-23,5-34.8c0-1.9,0.8-4.5,1.5-6.6
	c0.1-0.7,0.2-1.5,0.2-2.2c-0.1-0.4-0.4-0.8-0.8-0.9c-0.8-0.2-1.7-0.1-2.5,0.4c-1.3,0.6-2.5,1.5-3.3,2.7c-1.3,1.7-2.4,3.6-3.3,5.6
	c-1,2.6-2.1,5.2-3.1,7.8c-0.6,1.7-1,3.5-1.3,5.3c-0.4,2.4-0.9,4.8-1.4,7.2c-0.5,2.8-0.7,5.7-0.8,8.5c-0.4,6.6-1.3,13.1-2.7,19.5
	c-0.2,0.4-0.5,0.3-0.6,0c-0.9-9.6-1.9-19.2-3.1-28.8c-0.3-3.4-0.5-6.7-0.7-10.1c-0.3-2.9-0.8-5.8-1.7-8.6c-0.6-2.4-0.9-4.9-1-7.4
	c-0.1-1.7-0.4-3.4-0.8-5c-0.5-1.2-2.9-2.5-4.1-1c-0.5,1.1-0.8,2.3-1,3.5c-0.8,4.3-1.2,8.6-1.3,13c-0.2,3.5-0.2,7-0.2,10.5
	c-0.1,3.5-0.4,7-0.8,10.4c0,1.3,0,2.7,0.1,4c1.2,9.3,2.7,18.5,4.7,27.7c0,0.3-0.3,0.5-0.6,0.5c-0.1,0-0.2,0-0.3-0.1
	c-1.3-1.7-2.3-3.6-3-5.7c-1.3-3.4-2.4-6.9-3.2-10.4c-0.3-1.4-0.7-2.8-1.1-4.2c-0.2-0.8-1.5-2.2-2.5-2.2c-4.5-17.1-7.5-34.5-9.2-52.1
	c-1.3-13.4-2-26.9-2.1-40.4c-0.3-23.3,1-46.5,3.8-69.6c0.3-2.2,0.7-4.4,0.9-6.6v-0.1c2.5-17.8,6.4-35.4,11.6-52.6l1.3-4V136
	c1.2-3.8,2.5-7.7,4-11.5c0.6-1.3,1.1-2.7,1.6-4.1v-0.1l1.5-3.7l0.1-0.1l1.5-3.6v-0.1l1.6-3.6v-0.1l1.6-3.5l0.1-0.1l1.7-3.5l0.1-0.2
	c7.1-14.6,15.9-28.3,26.2-40.8c19.9-23.4,46.9-39.7,76.8-46.5c14.1-3.2,28.4-4.7,42.9-4.5L800.4,10z M907.1,231
	c-1.2,2.7-2.6,5.3-4.2,7.7c-4.5,7.5-8.4,15.2-11.9,23.1c-3.4,8.3-5.3,17.1-5.8,26.1c0.2,0.8,0.8,1.4,1.7,1.5
	c0.8-0.1,1.4-0.5,1.9-1.2c2.1-3,4-6.2,5.6-9.6c5.7-12,10.6-24.3,14.7-36.9l2-5.8c0.1-0.2,0.4-0.2,0.6-0.1c0.3,1.9,0.2,3.9-0.5,5.7
	c-1.1,3.4-1.9,6.8-2.6,10.3c-5.6,18.1-6.8,37-5.9,55.9c0.1,0.9,0.2,1.8,0.3,2.6c0.1,0.6,0.7,1,1.2,1c0.8,0,1.6-0.2,2.2-0.7
	c6.3-10,9.7-21.2,11.1-32.9c0.4-3.7,0.5-7.4,0.3-11.1c-0.1-2.7-0.1-5.3-0.1-8c0.1-0.2,0.2-0.1,0.3,0.1c3.2,11.3,8.5,21.9,15.7,31.2
	c0.6,0.8,1.2,1.7,1.5,2.7c0.1,0.6,0.3,1.2,0.8,1.7c0.6,0.2,1.3,0.2,1.9,0c0.9-0.6,1.4-1.5,1.5-2.6c0-2.1-0.3-4.1-0.8-6.1
	c-0.9-5.6-2.2-11.2-3.8-16.6c-0.9-2.7-2.2-5.3-3.7-7.7c-3.9-6.2-7.3-12.7-10-19.4v-0.1h0.2c6,7.1,12.1,14,18.2,20.9
	c1.9,2.3,3.7,4.6,5.6,6.9c2,2.4,4.4,4.5,7,6.2v197.8h-0.2c-1.4,0.2-2.8,0.8-3.7,1.9c-0.7,0.7-1.3,1.4-1.9,2.2l-0.2,0.2
	c-0.9,0.5-2,0.8-3.1,0.8c-2.4,0.1-4.8-0.5-6.9-1.6c-2.8-2.2-6.3-3.2-9.9-2.8l0.1-0.1c2-2.9,3.4-6.2,4.1-9.6c0-2.2-0.1-4.4-0.5-6.5
	c-0.8-7.6-2-15.2-3.5-22.8c-0.3-1.5-0.8-2.9-1.4-4.3c-0.7-1.7-1.5-3.5-2.2-5.1l-2.8-5.8l-0.6-17.1c1.9,0,3.9-0.1,5.8-0.4
	c1.5-0.4,2.8-1.1,3.8-2.1c2.9-2.7,5.6-5.7,8-8.9c0.9-1.4,0.9-3.2,0.2-4.6c-0.3-0.2-0.5-0.6-0.7-0.9c-0.3-0.8-0.5-1.6-0.8-2.5
	c-0.5-1.3-1.1-2.4-2-3.5c-0.6-0.9-1-2-1.1-3.1c-0.4-1.4-1.5-2.6-3-2.9c-2.5-0.5-2.9-2.8-0.2-5.2c0.7-0.7,1.1-1.6,1.4-2.5
	c0.2-0.9,0-1.8-0.5-2.5c-1.1-1.8-3.4-3-4.9-4.5c-1.7-1.9-2.2-4.4-2.8-6.8c-0.1-1-0.1-2-0.1-3c-0.3-1.6-1.3-3-2.7-3.7
	c-3.1-1.8-6.7-2.8-10.3-2.9c-2.2-0.1-4.5-0.2-6.8-0.2c-2,1.9-3.8,3.9-5.5,6c-2.7,3.3-5.2,6.8-7.7,10.3c-1.3,1.7-2.8,3.4-4.3,4.9
	c-0.8,0.5-1.6,0.9-2.5,1.1c-3.6,1.1-7.2,2-10.8,2.9c-2.9,0.8-5.6,2.3-7.7,4.5c-0.4,0.5-0.9,1-1.2,1.5c-2.4,3.6-5,7-7.8,10.2
	c-1.6,1.8-3.5,3.4-5.5,4.6c-1.4,0.7-3,1.2-4.5,1.3c-3.4-0.4-6.8-1.1-10-2.3c-0.9-0.3-1.8-0.4-2.7-0.5c3.1-3.6,5.5-7.7,7.4-12.1
	c3.1-7.1,5.3-14.5,6.5-22.2c1.5-8.1,2.3-16.4,2.5-24.6h-55c-4.8-0.2-8.7-4.1-8.8-9v-79c0.1-4.8,3.9-8.8,8.7-9H884
	c-1.9,4.7-3.7,9.4-5.4,14.1c-1.9,5.2-3.2,10.6-3.9,16c-0.4,2-0.6,4.1-0.8,6.2c0,0.2,0,0.4,0.1,0.5c0.4,0.9,1.4,1.4,2.3,1l0.2-0.1
	c1.6-1.7,3-3.5,4.3-5.4l1.3-1.9c5.8-7.7,11.1-15.7,16.2-24c1.2-2.1,2.2-4.2,2.9-6.5L907.1,231z M819.5,446.5
	c0.5,0.4,0.9,0.8,1.2,1.2c6.1,9.1,9.9,19.5,11.1,30.5c-2.3,0.2-4.6,0.4-6.9,0.5c-0.8,0.1-1.6,0.3-2.3,0.6c-3.5,1-7.3,1.2-10.9,0.6
	c-2.7-0.8-5.4-1.4-8.1-1.9c0.7-0.7,0.9-1.8,0.6-2.8c-0.1-0.3-0.3-0.6-0.6-0.9c-1.3-1.3-2.7-2.7-4.2-4c-0.5-0.5-0.8-1.2-0.8-1.9
	c-0.1-0.7,0.1-1.4,0.6-2c1.2-1.6,2.5-3.1,4-4.4c4-3.6,8-7.4,11.8-11.2c1-1.1,2-2.3,2.9-3.6C818.1,447,818.8,446.2,819.5,446.5z"/>
<path class="st0" d="M1208.7,0.4c-9.9,0.6-17.7,8.7-17.9,18.6v172h-67.9V18.8c-0.3-10.1-8.5-18.2-18.7-18.4h-97.9
	C996.3,0.8,988.2,9,988,19.1v473.1c0.2,10.1,8.3,18.2,18.4,18.5h98.1c10.1-0.3,18.2-8.6,18.3-18.7V317.6h67.9v174.7
	c0.4,10.1,8.6,18.1,18.7,18.3h97.9c10.1-0.3,18.2-8.5,18.4-18.7V19c-0.2-10.2-8.5-18.5-18.7-18.6h-97.8L1208.7,0.4z M1048,10
	c-1.6,3-2.9,6.1-3.9,9.4c-1.1,4.1-2.4,8.2-3.7,12.4c-0.2,0.7-0.6,1.4-1.1,2c-1.2,1.5-2.6,2.9-4.2,3.9c-0.8,0.6-1.4,1.5-1.6,2.5
	c-0.1,1,0.6,2,1.6,2.2c0.5,0.1,1.1,0.1,1.6,0c9.3-0.9,18.7-2,28-3.2c2.6-0.6,4.9-2.2,6.4-4.4c1.1-1.6,2-3.3,2.7-5.2
	c0.2-0.5,1.6-1.3,1.5,0.1c-0.1,1.5-0.4,2.9-1,4.2c-0.2,0.5-0.2,1.1,0.1,1.6c0.4,0.4,1.1,0.6,1.7,0.4c5-1,9.9-2.1,14.8-3.4
	c1.9-0.8,3.5-2.2,4.5-4c0.2-0.4,0.3-0.8,0.3-1.2c-0.1-2-0.3-4-0.7-6c-0.1-0.5,0.5-2,1.6-1.3c0.7,2.6,0.9,5.3,0.8,8
	c0.2,0.6,0.8,1,1.4,0.9c1.9-0.1,3.7-0.6,5.3-1.4c1.7-1.3,2.9-3.2,3.1-5.3c0-2.4-0.1-4.9-0.3-7.3c0-0.7,0.2-1.4,0.8-1.9
	c0.9-0.6,2.1-0.6,3.1,0c1.5,1.6,2.4,3.7,2.5,5.9v181.6h69.2c-4.6,5.9-7.1,13.1-7.1,20.6c-0.1,6.3,0.4,12.6,1.6,18.8
	c1.4,10.6,4.7,20.9,9.9,30.3c2.3,5.3,5.3,10.2,8.9,14.7c1.6,1.8,3.8,2.9,6.2,3.1c1.8,0.3,3.6,0.3,5.3-0.1c1.2-0.4,2.4-0.9,3.5-1.6
	c2.3-1.2,2.8,0.8,3.1,1.4c1.9,3.6,2.2,7.9,0.7,11.8c-1.8,5.4-3.6,10.8-5.3,16.3c-1,4.3-1.6,8.7-1.7,13.2c-0.2,1.9-0.6,3.7-0.6,5.6
	c-0.2,1,1.2,1.5,1.6,1.3c0.7-0.5,0.8-0.6,1.5-1.1c1.9-1.3,3.6-2.7,5.3-4.2c0.9-0.7,1.9-1.2,3-1.5c1.7-0.3,3.5-0.1,5.1,0.5
	c1.8,0.5,3.7,0.6,5.6,0.5c2-0.5,4-0.6,6.1-0.4c0.6,0.1,1.1,0.4,1.5,0.8c2.7,2.2,4.7,5.1,5.8,8.4c0.4,1,0.7,2,0.9,3.1
	c1.4,6.1,2.3,12.2,2.7,18.5c0.2,3.4,0.5,6.9,0.9,10.3c0.5,4.2,1.3,8.4,2.3,12.6c1.3,6,2.2,12.1,2.6,18.3c0.3,3.8,0.8,7.5,1.5,11.3
	c0.7,3.6,1.8,7.1,3.2,10.5c2,4.5,3.7,9.2,5.2,14c1.1,4.2,1.5,8.5,1.2,12.9c-0.1,3.5-0.4,7-0.9,10.4c-0.9,7.2-2,14.3-3.2,21.4
	c-1,2.3-1.5,4.7-1.6,7.2c0,0.2,0.1,0.5,0.2,0.7c-1.7,0.1-3.5,0.1-5.2,0.2c-2.5-0.3-5-0.7-7.5-1.2c-6.8-1.2-13.7-2.2-20.6-3
	c-1.6-0.1-3.2,0-4.8,0.2l-4.3,0.3c-1.2,0.2-2.4,0.5-3.6,1c-3.5,1.2-7.3,1.9-11,2V308.1h-87v181.1c-3,1.8-6,3.5-9.2,5
	c-3.1,1.2-6.5,1.7-9.9,1.5c-3.8-0.3-7.6-0.9-11.4-1.7c-8.2-1.4-16.5-1.7-24.8-0.8c-2.8,0.2-5.7,0.3-8.5,0.3l-1.4-0.2
	c0.9-0.7,1.4-1.9,1.2-3.1c-0.2-2.9-0.3-5.7-0.3-8.6c0-2.8,0.3-5.5,0.8-8.2c0.3-2.7,0.3-5.5,0-8.2c-0.3-1.6-1.1-3.1-2.2-4.3
	c-2.1-2.3-4.5-4.2-7.2-5.7c-0.6-0.4-1.1-1-1.3-1.6c-0.2-2.4-0.3-4.7-0.4-7.1c0.1-0.8,0.3-1.6,0.8-2.3c0.7-0.5,1.4-0.9,2.2-1.3
	c1.2-0.7,2.4-1.4,3.6-2.2c1.3-1.2,2.4-2.6,3.3-4.1c0.3-0.4,0.6-0.7,1-1c1.6,1.4,3.5,2.4,5.6,3c1.1,0.3,2.3,0.5,3.5,0.7
	c0.7,0.1,1.7-1.4,1.3-2.2c-0.4-0.7-1-1.2-1.7-1.7c-0.7-0.8-1.4-1.6-1.9-2.5c-0.1-0.2-0.5-0.8,0-0.6c2.7,1,5.4,1.9,8.1,2.8
	c8.3,2.1,17.1,1.2,24.9-2.5c2.1-1,4-2.3,5.7-3.9c1.3-1.3,3.1-3,3.8-4.7c1.3-2.8,2.3-5.8,3-8.9c0.6-3,0.5-6-0.4-8.9
	c-0.5-1.7-1.2-3.3-2.1-4.9c-0.9-1-2.1-1.8-3.4-2.3c-0.4-0.1-0.9-0.1-1.3,0c-0.4,0.2-3.5,3.8-3.6,4.5c0,0.4,0.2,0.8,0.6,1
	c2,1,2.7,2.1,2.8,3.7c0,4.4-0.2,6.3-2.4,9.3c-0.8,0.9-1.8,1.6-3,2.1c-4.5,0.9-7.8,0.9-12.1-0.7c-2.9-1.2-5.3-3.2-6.8-5.9
	c-2.1-3.9-3.9-8-5.4-12.1c-1.6-3.7-4.5-6.6-8.1-8.3c-2.8-1.5-5.8-2.7-8.9-3.6c-1.5-0.6-3.1-1.2-4.6-1.8c-1.4-0.4-2.8-0.6-4.3-0.7
	c-1-0.3-2.1-0.4-3.2-0.3c-1,0.2-2,0.7-2.6,1.5c-0.7,0.7-1.3,1.5-1.8,2.2l-0.4,0.4h-0.1h-0.1c-0.6-1-1.4-1.8-2.3-2.5
	c-1.5-1.5-3.1-3-4.7-4.3c-2.1-1.7-5.1-1.4-6.9,0.6c-1.3,1.7-2.2,3.8-2.6,5.9c-0.4,2-0.7,4-0.8,6.1c0.2,0.9,0.5,1.7,1,2.5
	c0.3,0.5,0.7,1,1,1.6c-0.9-0.1-1.8-0.3-2.8-0.5s-2.1-0.2-3.2-0.2c-4,0-8,0-12,0V294.5c1.3-6.1,2.8-12.2,4.3-18.3
	c0.3-1.1,0.7-2.2,1.2-3.3c0.3-0.4,0.8-0.1,1,0.5c0.2,1.4,0.3,2.7,0.4,4.1c0.1,0.5,0.4,1,0.9,1.3c2,1.4,4,2.7,6.2,3.7
	c1,0.6,2.1,1.2,3.1,1.9c0.5,0.5,1.1,0.8,1.8,1c0.6,0,0.9-1,0.9-1.2c-0.1-1.7-0.2-3.5-0.2-5.2c0-0.7,0.2-1.3,0.6-1.9
	c0.2-0.3,0.7-0.4,1-0.1c0,0,0.1,0.1,0.1,0.1c0.1,2.9,0.1,5.7,0.2,8.6c0,1.1,0.3,2.1,0.9,3l0.3,0.3c3.1,1.9,6,4.3,8.5,7
	c1.6,1.6,3.2,3.2,4.9,4.8c0.4,0.4,1.2,0.4,1.6,0c0.3-0.2,0.4-0.6,0.3-1c-0.3-1.5-0.6-3-0.9-4.5c-0.2-2.1-0.1-4.2,0.3-6.3
	c0.2-0.4,1.3-0.6,1.4-0.5c1,4.2,1.9,8.4,2.5,12.7c0.5,2.3,1.7,4.3,3.6,5.7c1.3,1,2.5,2.1,3.6,3.4c1,1.5,1.7,3.2,2,5.1
	c0,0.3,0.3,0.6,0.6,0.7c0.7,0.2,1.4,0,2-0.4c0.3-0.4,0.5-0.9,0.6-1.5c0.3-1.9,0.8-3.8,1.4-5.6c1.3-5.1,1.7-10.4,1-15.6
	c-0.6-3.9-1-7.8-1-11.7c0-0.2-0.1-0.4-0.3-0.5c-1-0.4-2.1-0.7-3.2-0.7c-0.8,0-1.6-0.4-2.2-1c-0.5-0.7-0.3-1.7,0.3-2.2
	c0.4-0.2,0.8-0.3,1.2-0.1c0.9,0.2,1.8,0.3,2.7,0.1c0.4-0.1,0.7-0.5,0.6-0.9c0,0,0-0.1,0-0.1c-0.9-3.8-2.6-7.4-5-10.5
	c-1.8-2.5-3.7-4.7-5.9-6.8c-1.2-1-2.8-1.6-4.3-1.8c-0.6,0-0.9-0.5-0.6-0.8c0.5-0.5,1.1-0.9,1.8-1.2c1.2-0.4,1.4-1.3,0.5-2.7
	c-2.1-2.8-4.9-4.9-8.1-6.2c-1.7-0.6-3.6-0.9-5.4-0.7c-1.8,0.2-4.1,2-5.4,2.7c-0.1,0-0.1-0.1,0-0.3c0.2-1.3,0.3-2.5,0.4-3.8
	c0-0.5,0-1.5-2-1.4c-3,0.6-5.8,2.2-7.9,4.4c-2.9,2.9-5.5,6.2-7.5,9.7c-2,3.9-3.5,8-4.7,12.2v-19.1c1.8-9.1,4.3-18.1,7.6-26.8
	c1.4-4.3,3.1-8.5,5.1-12.6c0.4-0.9,1-1.6,1.8-2.2c0.7-0.3,1.5-0.2,2,0.3l0.4,0.3c1.6,1.8,3.3,3.6,5,5.3c1.7,1.3,3.9,1.8,6,1.5
	c1.6-0.5,3-1.3,4.2-2.4c1.2-1.2,1-1.9,0.7-2.2c-2-1.7-3.7-3.7-5-6c0.6-0.4,1.3-0.6,2-0.3c1.2,1.6,2.5,3.2,3.8,4.7
	c1.2,0.8,2.8,1.1,4.2,0.9c1.1-0.1,2.2-0.4,3.2-0.9c4.4-2.7,8.6-5.4,12.8-8.3c0.4-0.5,0.4-1.1,0.1-1.6c-0.4-0.4-0.8-0.7-1.3-0.8
	c-1.1-0.5-2.2-1.2-3.2-2c-0.5-0.6,0.4-1.2,1-1.1c2.1,0.9,4.3,1.5,6.6,1.8c2.3,0.2,4.6-0.3,6.6-1.6c7.7-6,15.3-12.2,22.7-18.5
	c0.8-0.8,0.8-2,0.1-2.8c-0.7-0.6-1.6-1-2.5-0.9c-0.8,0-1.6,0.1-2.3,0.3c-1.9,0.2-3.9,0.1-5.7-0.4c-2.1-1-4.2-2.1-6.3-3.3
	c-3.3-1.9-6.6-3.6-10-5.1c-2.4-1-4.9-1.7-7.4-2.2c-3.6-0.6-3.9,0.2-4.1,0.5c-1.8,2.8-3.5,5.6-5.2,8.4c-0.6,0.8-1.4,1.6-2.2,2.1
	c-0.3,0.2-0.5-0.2-0.4-0.7c0.6-3.1,1.5-6.1,2.7-9c0.3-0.8,1.4-2.6,0-3.3c-2.2-1.1-4.7-1.4-7.1-1.1c-3.8,1.2-7.3,3.1-10.3,5.6
	c-0.6,0.5-1,1-1.3,1.7c-0.1,1.5-0.1,3-0.1,4.6c-0.2,3-1.2,5.9-2.9,8.4c-0.7-3.2-1.2-6.6-1.3-9.9c0-0.5-0.2-1.8-1.2-1
	c-3,2.2-5.9,4.5-8.6,7c-0.3,0.4-0.6,0.8-0.8,1.3c-0.9,3.7-1.4,7.5-1.3,11.3c-0.3,4.3-0.2,8.6,0.2,12.9c0.3,1.5-6,12.3-8,15.9V19
	c0.3-4.9,4.3-8.9,9.2-9L1048,10z M999.9,464l1.5,0.5c1.7,0.3,3.5,0.2,5.1-0.3c0.9-0.3,1.8-0.5,2.7-0.7c-0.5,2-0.8,4-1.2,6.1
	c-0.9,6.2-1.8,12.4-2.6,18.6c-0.1,0.5-0.3,1.1-0.4,1.6c-1.1-3-2.5-5.9-4.4-8.5l-0.7-1.3c-0.3-0.6-0.4-1.3-0.5-2c0-1.9,0-3.8-0.1-5.7
	c-0.5-2.8-0.8-5.6-1.1-8.5c0-0.1,0-0.3,0.1-0.3L999.9,464z M1286.8,412.5c1.5,0.4,2.9,1.2,4,2.2c5.1,5,9.8,10.4,13.8,16.3
	c1,1.6,2,3.1,2.9,4.8c0.6,1.1,0.9,2.4,1,3.6c0.7,4,1.7,7.8,3.2,11.5c0.7,1.8,1.3,3.7,1.8,5.5c0.6,2.4,1,4.9,1.2,7.4
	c0.1,2.6,0,5.2-0.3,7.8c-0.5,2.5-1.1,4.9-1.7,7.4c-0.3,1.4-0.6,2.9-0.9,4.4c-0.6,1.6-1.1,3.3-1.4,5c0,0.2,0.1,0.3,0.1,0.5
	c-1.3,0.8-2.7,1.5-4,2.2c-3.1,1.4-6.5,2-9.9,1.6c-3.8-0.4-7.7-1-11.4-1.9c-1.5-0.3-3.1-0.6-4.7-0.8c-0.2-6-0.4-12-0.6-18
	c-0.4-7.5-1.3-15-2.6-22.4c-0.6-5-0.7-10-0.4-14.9l0.2-3c0.5-3,1.3-6,2.4-8.9c0.8-2.4,1.8-4.8,3.1-7
	C1283.6,414.7,1284.9,412.6,1286.8,412.5z M1027.5,466.4c1.3,1.1,2.7,2.2,4.1,3.2c0.8,0.6,1.6,1.4,2.2,2.2c0.5,0.8,0.6,1.8,0.5,2.7
	c-0.1,1.6-0.4,3.2-0.9,4.7c-0.7,1.8-1.6,3.4-2.7,5c-0.3,0.7-0.6,1.4-0.8,2.1c0,1.2,0.5,2.3,1.5,3.1c0.7,0.6,0.5,0.6,0.6,1.2
	c-4.5-0.7-7.3-0.6-11.8-0.9c0.2-4.2,1-8.4,2.5-12.4c1.3-3.3,2.4-6.8,3.2-10.2c0.1-0.6,0.2-1.2,0.2-1.9L1027.5,466.4z M1306.9,10
	c5.1,0.1,9.2,4.2,9.3,9.2v70.7l-22.5-19.3c-0.7-0.9-1.2-1.9-1.6-3.1c-1.2-4.3-2.7-8.6-4.6-12.7c-1.4-3.7-3.3-7.2-5.6-10.3
	c-0.3-0.3-0.6-0.5-0.9-0.7c-3.5-1.4-7.1-2.5-10.8-3.5c-0.9-0.1-0.7,1.4-0.5,1.8c1,3,1.8,6.1,2.2,9.3c-2.8-1.9-4.9-4.6-6.2-7.8
	c-0.4-1.1-0.5-3.7-3.9-4.5c-3.5-1-7.2-1.4-10.9-1.2c-2.5,0.5-4.7,1.8-6.3,3.7c-0.2,0.4-0.2,0.9,0.1,1.3c0.8,1.2,1.6,2.3,2.6,3.3
	c1.7,1.9,3.2,4,4.5,6.3c-0.2,0.1-0.4,0.2-0.6,0.2c-1.2-0.3-2.3-0.9-3.3-1.7c-2.4-1.8-4.8-3.7-7.2-5.5c-0.3-0.2-0.7-0.3-1.1-0.2
	c-1.9,0.5-3.7,1.5-5.2,2.8c-2.7,2-5.1,4.3-7.2,6.8c-2.8,3.3-5.6,6.5-8.4,9.7c-1.3,1.2-2.9,2.1-4.6,2.5c-1,0.3-2,0.6-3.1,0.8
	c-1,0.3-1.8,1-2.2,1.9c-0.3,1,0.1,2.1,1,2.6c0.4,0.2,0.7,0.3,1.1,0.4c8.9,3,17.8,5.9,26.8,8.7c2.6,0.5,5.4,0,7.6-1.4
	c1.6-1,3.2-2.2,4.6-3.5c1.5-1.2,1.5,0.3,1.3,0.7c-0.7,1.3-1.6,2.4-2.6,3.4c-0.4,0.4-2.1,1.8,0.8,2.5c4.8,1.1,9.7,2.1,14.6,3
	c2.4,0.5,4.2-0.5,5.9-1.7c0.3-0.3,0.6-0.6,0.8-0.9c0.7-1.9,1.4-3.8,1.9-5.8c0.3-0.7,1.1-0.9,1.8-0.6c0.1,0,0.1,0.1,0.2,0.1
	c-0.5,2.6-1.3,5.2-2.6,7.6c-0.3,0.9-0.1,1.1,0.9,1.4c1.5,0.5,3.1,0.9,4.7,1c2.2-0.2,4.3-1.3,5.5-3.2l0.3-0.4c1-2.2,1.9-4.5,2.8-6.8
	c0.2-0.7,1.1-2.4,4.9,0.4c3.1,3,6.1,6.2,8.8,9.5c5.9,6.6,11.2,13.6,16,21.1v10.5c-3.8-3.1-8-5.7-12.4-7.8c-2.8-1.2-6-1.5-9-0.7
	c-0.6,0.3-0.8,1.1-0.5,1.7l1.9,3.7c-1.7-0.3-3.4-0.5-5.2-0.7c-1.6,0.2-3,0.8-4.3,1.8c-1.7,1.1-3.1,2.6-4.2,4.3
	c-1.2,1.7-2,3.6-2.5,5.6c-0.1,0.9,0.3,1.7,1.1,2.1c0.8,0.1,1.5,0.2,2.2,0.4l0.2,0.2c0.2,0.2,0.1,0.6-0.1,0.8c-1.2,0.6-2.2,1.4-3,2.4
	c-0.6,0.7-1,1.5-1.3,2.4c-1.6,3.6-2.7,7.4-3.3,11.2c-0.3,2.5-0.3,5,0.1,7.5c0.2,0.4,0.7,0.6,1.1,0.5c1-0.3,1.9-0.8,2.7-1.3
	c0.6-0.2,1.3,0,1.7,0.6c0.4,0.6,0.3,1.4-0.2,1.9c-0.6,0.6-1.2,1-2,1.3c-0.8,0.4-1.6,0.9-2.1,1.6c-0.1,0.1-0.1,0.3,0,0.4
	c1.4,3.7,2.5,7.4,3.3,11.3c1.5,5.8,4.2,11.3,8,15.9c0.7,1,1.3,2,2,3c1.1,1.9,4,0.9,3.4-0.4c-0.4-1.8-0.3-3.7,0.3-5.5
	c0.8-1.8,1.7-3.6,2.7-5.3c0.9-1.6,1.1-3.5,0.6-5.2c-1-4.2-1.8-8.5-2.3-12.8c0.1-1.1,1.3-0.3,1.6,0.2c1.1,1.7,1.9,3.6,2.4,5.6
	c0.3,1.5,0.5,3,0.8,4.5c0.1,0.5,0.4,0.8,0.9,0.9c0.5,0.1,1-0.2,1.2-0.7c1.3-2.7,2.5-5.5,3.7-8.3c1.2-2.7,2.7-5.2,4.5-7.5
	c0.4-0.8,0.7-1.8-0.2-3.9c-0.9-2.5-1.8-4.9-2.7-7.4c-0.1-0.2,1.3-0.6,1.6,0c0.3,0.5,0.6,1,0.8,1.5c0.6,1.6,1.1,3.1,1.6,4.7
	c0.1,0.3,0.6,1.8,1.9-0.1c1-1.5,2-2.9,3.2-4.2v138.3c-2.3-1.5-4.8-2.7-7.4-3.6c-7.8-1.7-14.7-6.3-19.3-12.8c-1-1.7-1.9-3.5-2.8-5.2
	c-1.2-2-2.8-3.8-4.8-5c-1.3-1-2.3-2.2-3.1-3.6c-0.4-0.9-0.7-2-0.7-3c-0.6-4.6-1.8-9.1-3.5-13.5c-1.2-2.6-3.3-4.7-6-5.8
	c-1.2-0.2-2.3-0.3-3.5-0.3c-5.5,0-11,0.1-16.5,0.3c-2.7,0.2-5.3,0.9-7.7,2.2c-2,1.1-4.1,2-6.2,2.8c-1,0.3-2,0.4-3.1,0.3
	c-2,0-4-0.1-5.9-0.1c-3.8,0.2-7.5,1.4-10.7,3.3c-1.2,0.6-2.5,1.2-3.7,1.8c-2.2,0.9-5.3,0.8-9.2-2.1c-2.6-2.7-4.8-5.8-6.6-9.1
	c-2.3-4.8-2.4-10.3-0.2-15.2c2.2-4.3,6.3-7.4,11.1-8.1c2.9-0.5,5.8-0.8,8.7-0.9c1.5-0.2,2.9-0.6,4.2-1.4c2.5-1.8,4.3-4.4,5.1-7.3
	c1.6-5,1.9-10.6-0.4-15.3c-0.5-0.9-1.2-1.6-2.1-2.1c-1.8-0.2-8.7,2.5-8.9,3.2c-0.2,1.6-0.3,3.2-0.1,4.8c0,0.7-0.6,1.3-1.4,1.3
	c-3.1,0-6.3-0.1-9.4-0.3c-0.5,0-1.1,0-1.6,0.1v-169c0.1-5.1,4.2-9.2,9.2-9.3L1306.9,10z"/>
<path class="st0" d="M577.5,10c-0.2,1.6-0.5,3.3-0.8,4.9c-0.6,1.4-1,2.8-1.2,4.2c-0.1,1.5,0,3,0.2,4.5c-2.4-2.8-5.4-5.1-8.7-6.7
	c-2.2-1-4.6-1.6-7.1-1.9c-1.3-0.3-2.6-0.7-3.9-1.2c-1-0.3-2,0.2-2.4,1.1c-0.2,0.4-0.2,0.8,0,1.2c1.2,1.2,2.3,2.5,3.4,3.7
	c0.6,0.9,1.2,1.8,1.6,2.8c1.2,3.2,2.5,6.3,3.8,9.4c-7.1,1-14.1,1.8-21.2,2.6c-6,0.8-12,1.8-17.9,3.2l-5.7,1.1
	c-7.5,0.5-15,0.8-22.5,1.1c-3.9,0.3-7.8,0.9-11.5,1.9c-10.3,2.5-20.2,6.1-29.7,10.8c-8.8-5.2-17.9-9.8-27.3-13.6
	c-8.3-3.3-17.5-3.6-26-0.7c-9.1,3.6-17.3,8.9-24.3,15.6c-0.2,0.2-0.3,0.5-0.9,0.3c-5.8-1.5-11.7-2.5-17.7-2.9c-3.5-0.2-7,0-10.5,0.5
	c-2.8,0.3-5.7,0.5-8.5,0.6c-2.9-0.1-5.8-1.1-8.2-2.8V19.3c0.1-5,4-9,9-9.3L577.5,10z M569.2,41.5c-1.1,1.8-1.6,3.9-1.4,6
	c0,1.8,0.4,3.6,1.1,5.3c-1.4,4.4-1.8,9-1.1,13.5c0.7,3.2,1.9,6.2,3.7,8.9c-0.8,0.2-1.5,0.3-2.3,0.5c-13.3,1.4-26.8,1.7-40.1,0.9
	c0.9-0.6,1.8-1.4,2.5-2.3c1.6-2.3,2.9-4.8,3.9-7.3c0.9-3.3,0.9-6.8,0.2-10.2c-0.1-0.2-0.3-0.3-0.5-0.3c-6.3,0.6-12.2,3.6-16.5,8.2
	c-1.3,1.5-2.3,3.1-3.1,4.9c-0.6-3.4-2.3-6.5-4.9-8.8c-2.9-2.7-6.3-5-9.9-6.7c-0.4,0-0.7,0.4-0.7,0.8c0,0,0,0,0,0
	c0.1,3.8,0.1,7.5-0.2,11.3c-0.2,2.5,0,5,0.5,7.5l0.2,0.5c-4-0.8-7.8-1.9-11.7-3.2c-8.2-3.3-16.2-7.4-23.7-12
	c-0.2-0.1-0.4-0.4-0.2-0.5c5.7-2.5,11.6-4.6,17.6-6.3c4.6-1.4,9.4-2.3,14.2-2.6c3.6-0.2,7.1-0.4,10.7-0.5c6.1-0.2,12.1-0.6,18.2-1.1
	c14.8-2,29.5-4.5,44.1-7.4L569.2,41.5z M341,99.1c2.6,1.9,4.5,4.6,5.3,7.7c2.1,7,4.1,14,6.1,21c-1.4,1.9-2.7,3.9-3.9,6
	c-0.6,1.7-1,3.4-1.1,5.2c0,0.3-0.6,0.5-1,0.6c-2.5,0.6-4.9,1.1-7.5,1.4c-2.8,0.4-5.6,0.8-8.4,1.1V91.6
	C333.2,93.5,338.4,97.4,341,99.1z M581.5,86.2c1,4.1,1,8.3,0,12.4c-0.2,0.8-0.6,1.8-1,0.9c-2.2-4.6-2.4-9.9-0.3-14.6
	C580.6,84.2,581.5,85.1,581.5,86.2z M609.4,13.9c1.1,1.5,1.7,3.2,1.8,5v39c-1.4,1-2.8,2-4.3,3c-5.8,4.5-12.2,7.9-19.2,10.2
	c1.6-4.4,1.6-9.2,0.1-13.6c-1.7-3.4-3.7-6.6-6.2-9.4c1-0.6,0.8-2.5,0.6-3.6c2.6,4,6.2,7.2,10.5,9.1c2.4,0.9,4.9,1.8,7.4,2.7
	c1.4,0.5,1.4-0.8,1.2-1.1c-1.4-2.8-2.6-5.8-3.4-8.8c-1.2-3.6-3-6.9-5.4-9.8c1.8-0.3,3.5-0.4,5.3-0.2c3,0.4,6.1,0.6,9.1,0.5
	c0.9,0,1.3-1.6,0.3-2.6c-0.9-1.3-2.1-2.5-3.5-3.4c-1.8-1.3-3.4-2.6-5-4.1c2.8-3.4,5.6-6.8,8.3-10.2l2.1-2.8L609.4,13.9z M352.9,60.6
	c5.7,0.2,11.4,1,16.9,2.5c-2.8,2.8-6.1,5.1-9.6,7c-8.4,4.2-28.5,9-29.5,9.1V62c5.8,0.5,11.5,0.1,17.2-1.1
	C349.5,60.6,351.2,60.5,352.9,60.6z M380.2,66.5c7.8,3,16,4.7,24.4,5.2c4.2,0.4,8.4,0.4,12.6,0c-0.4,2.5-1.8,7.6-3.2,10.1
	c-3.8,6.1-8.4,11.6-13.7,16.4c-0.9,0.9-1.7,1.8-2.4,2.8c-0.4,0.8-0.7,1.6-0.8,2.5c-0.1,3.2-0.1,6.4,0.2,9.6
	c0.3,4.7,0.4,9.3,0.4,13.9l-0.1,2.4c-0.2,1.7-0.7,3.3-1.5,4.8c-0.2,0.6-0.4,1.1-0.8,1.5c-0.7,0.5-1.6,0.6-2.4,0.4
	c-1.5-0.3-2.9-0.9-4.2-1.7c-3.5-2.1-4.5-2.9-8.1-4.9c2.3-4.6,4.3-9.4,6.4-14.1c1.7-4.7,2.7-9.6,3.1-14.6c0.8-4.8-1.1-9.8-3.7-13.9
	c-2.6-3.7-8-5.9-12.6-6.1c-2.4-0.1-5.1,2-6.7,3.9c-2.1,2.6-3.5,5.8-4,9.1c-0.1,1.4,0.1,2.8,0.7,4c1.1,1.6,2.9,2.6,4.9,2.7
	c2.6,0.4,5.3-0.6,6.9-2.7c0.8-1.1,0.6-2.6-0.4-3.5c-0.8-0.6-2-0.5-2.6,0.3c-0.6,0.7-1.4,0-1.4-0.7c-0.1-0.9,0.2-1.8,0.9-2.3
	c1.2-0.9,2.7-1.3,4.2-1.3c1.7,0.1,3.3,1.1,4,2.7c1,2.2,1.5,4.6,1.6,7.1c-0.4,4.9-1.5,9.6-3.5,14.1c-1.6,3.8-3.6,7.3-5.9,10.7
	c-0.7-0.3-1.3-0.6-1.9-1.1c-2-1.3-4.3-2.3-6.7-2.8l-1.9-0.4c-0.3-4-1.1-8-2.2-11.8c-1-4.1-2.3-8.2-3.7-12.2c-0.8-2.2-2.6-4-4.8-4.9
	c-3.4-1.5-6.7-3-10-4.7C351.3,83.5,371.2,77.8,380.2,66.5z M338.9,0.4C329,1,321.3,9.2,321.1,19.1v473.1
	c0.3,10.2,8.5,18.4,18.7,18.5h97.7c10.1-0.2,18.2-8.3,18.5-18.4V323.8h108.5c10.1-0.3,18.2-8.5,18.3-18.7v-81.8
	c-0.3-10.2-8.5-18.4-18.7-18.5H456v-85.5h146.4c10.1-0.3,18.2-8.5,18.3-18.7v-82C620.4,8.6,612.1,0.5,602,0.4H339.4L338.9,0.4z
	 M473.4,75.9c6,2.8,12.2,4.7,18.5,6.8l5.7,2.1c-3.6,2.5-6.7,5.8-9,9.6c-1.5,2.3-2.8,7.1,0.5,8.6c1.4,0.5,3,0.4,4.4-0.2
	c1.5-0.7,4.9-2.4,6-3.9c1.3-1.5,2.6-2.9,3.8-4.4c0.6-0.8,1.1-1.6,1.6-2.4c0.3,2.8,1.4,5.5,3.1,7.7c1.2,1.3,2.5,2.4,3.8,3.5
	c1.5,0.8,2.9,1.7,4.3,2.6c1.4,0.8,2.8,1.5,4.3,2.1c0.3,0.1,0.7,0,0.9-0.3c0.1-0.3,0.1-0.6,0-0.8c-0.7-1.7-1.4-3.3-2.1-5
	c-0.6-1.7-0.7-3.4-0.5-5.2c0.5-2.6,1.1-5.1,2-7.5c0.1-0.2,0.7,0.1,1.2,0.6c2.4,2.2,5,4.2,7.8,5.8c2.1,1.1,4.1,2.2,6.1,3.4
	c0.5,0.3,1.2,0.3,1.8,0.1c0.3-0.2,0.4-0.5,0.3-0.8c-1.5-3.8-3-7.5-4.5-11.2c13.5,0.5,27.1,0,40.5-1.7c-1.1,2.2-1.8,4.6-2,7
	c-0.2,3.6,0.6,7.2,2.1,10.5c1,1.7,2.3,3,4,4c-0.5,1.1-1.4,2.3-0.6,3.2H446.4v104.6H564c5.1,0.1,9.2,4.2,9.3,9.2V305
	c-0.1,5-4,9.1-9,9.3H446.4v176.6c-0.4,0.2-0.8,0.4-1.2,0.7c-0.5,0.4-2.6,0-3.2-0.3c-1.4-0.6-2.9-1-4.5-1.1c-2-0.4-4-0.3-6,0.2
	c-1.1,0.8-2.1,1.8-3,2.9c-1.3,1.7-2.7,3.3-4,4.9c-2.1,2.3-5.4,3.2-8.4,2.1c-1.2-0.5-2.3-1.1-3.4-1.9c-1.4-1-3-1.8-4.7-2.4
	c-2.5-0.6-5.2-0.6-7.7,0c-4.1-0.6-8-1.9-11.5-3.9c-0.5-0.2-1.1-0.4-1.6-0.5c0.3-1.4,0.2-2.8-0.2-4.2c-0.5-1.1-1.1-2-2-2.8
	c-1.2-1.1-2.2-2.3-3.2-3.6c-1.1-2.1-1.7-4.4-1.7-6.8c-0.1-2.8,0.3-5.7,1.1-8.4c0.4-1.5,1-2.9,1.7-4.3c2,1.3,4.3,2,6.6,2.3
	c2.3,0.1,4.7-0.3,6.8-1.2c1.5-0.6,3.1-1,4.8-1.1c2.1,0,4.1,0.6,5.8,1.8c2.2,1.5,4.5,2.9,6.9,4.1c2,0.9,4.2,1.4,6.4,1.3
	c1.1,0.1,2.3,0,3.4-0.4c1.1-0.6,2.1-1.2,3-2c0.7-0.5,1.4-1.1,2-1.7c1.2-1.8,1.9-3.8,2.3-5.9c0-0.7,0-1.4-0.2-2.1
	c-0.1-0.9,0.1-1.8,0.6-2.5c1-1.8,1.8-3.7,2.5-5.7c0.6-2.2,0.3-4.6-0.7-6.6c-0.5-1.3-1.8-2.2-3.2-2.2c-0.5,0-0.9,0.4-1,0.9
	c0,0.6,0.1,1.2,0.2,1.8c0.3,2,0.1,4.1-0.6,6c-0.3,0.8-0.7,1.4-1.4,1.9c-0.9,0.3-1.8-0.1-2.2-0.9c0-0.3,0.1-0.6,0.2-0.8
	c0.7-2,0.9-4.2,0.5-6.3c-0.2-1.8-1-3.6-2.1-5.1c-0.6-0.8-1.4-1.3-2.3-1.6c-0.6-0.2-1.2,0.1-1.4,0.7c-0.2,0.8-0.2,1.7,0,2.6
	c0.3,1.8,0.5,3.5,0.7,5.3c0.2,1.4-0.6,2.7-2,3.1c-1,0.3-2,0.3-3,0c-3.6-1-6.7-3.3-8.6-6.5c-1.3-2-2-4.2-2.3-6.5
	c-0.4-3.8,1.3-7.5,4.5-9.8c1.6-1,3.4-1.8,5.2-2.4l8-2.5c2.8-1,5.4-2.5,7.7-4.4c0.5-0.5,0.9-1,1.4-1.5c0.2-0.2,0.6,0.3,0.8,0.5
	c1.6,2.1,2.8,4.5,3.5,7.1c0.2,0.8,0.5,1.6,1,2.3c1.1,1.2,2.4,0.1,2.7-0.4c0.8-1,1.3-2.3,1.3-3.6c0.2-2.1-0.1-4.3-0.8-6.3
	c-0.6-1.9-1.4-3.8-2.3-5.6c0.7-0.8,1.2-1.8,1.6-2.8c0.8-2.2,1.2-4.6,1.1-7c-0.2-2.6-1.4-5.1-3.3-6.8c-2.4-1.9-5.3-3.2-8.4-3.6
	c-1.5-0.2-3.6,0.5-4.8,0.7c-0.2-1.3-1-2.3-2.1-2.9c-1-0.3-2-0.3-3,0.1c-0.6,0.2-1,0.6-1.3,1.2c-0.4,0.7-0.5,1.6-0.4,2.4
	c0.1,0.8,0.3,1.5,0.5,2.2c-2.9,2.5-5.5,5.4-7.6,8.6c-0.6,0.8-1.2,1.6-2,2.3c-1.3,0.9-2.8,1.6-4.4,1.9c-2.4,0.6-4.9,1-7.4,1.1
	c-1.8,0.1-3.5,0.4-5.2,1c-0.3,0.2-0.6,0.3-1,0.4c0,0-0.1,0-0.1,0c0-0.4,0-0.9,0-1.3c0-1.6-0.2-3.1-0.5-4.7c-0.2-2-1.6-3.7-3.5-4.3
	c-0.9-0.3-1.9-0.3-2.8-0.1c-0.8,0.4-1.4,1.1-1.8,1.9c-0.6,1-0.7,2.3-0.5,3.4c0.2,1,0.5,1.9,1,2.8c0.7,1.7,1.5,3.4,2.2,5.2
	c0.1,0.4,0.1,0.8,0,1.2c-0.2,0.4-0.3,0.5-0.8,0.5s-0.7,0-1-0.7c-0.5-1.1-0.9-2.2-1.2-3.3c-0.4-1.3-1.1-2.4-2-3.3
	c-1.3-1-3.1-1.2-4.5-0.3c-1.7,1.1-2.3,3.3-1.6,5.1c0.6,1.3,1.3,2.4,2.2,3.4c0.8,0.9,1.5,1.8,2.3,2.7c0.3,0.6,0.1,1.4-0.4,1.8
	c-0.7,0.4-1.4,1.1-1.8,1.8c-0.1,0.4-0.2,0.8-0.1,1.1c0,0.3-0.2,0.5-0.4,0.5c0,0,0,0,0,0c-0.2,0-0.4-0.1-0.5-0.2
	c-7.1-5-15-8.8-23.4-11.2c-6.5-1.8-13.2-2.7-20-2.6V153.4c4.6-1.2,9.2-2.6,13.8-4c1.6-0.7,3.2-1.3,4.9-2c0.7-0.3,1.5-0.5,2.2-0.7
	c2.7,4,5.9,7.5,9.6,10.7c4.1,3.2,8.9,5.3,14,6c1.6,0.2,3.2,0,4.7-0.4c3.3-0.9,6.6-2.1,9.7-3.6c0.7-0.3,1.5-0.5,2.3-0.7
	c0.7,0,1.3,0.5,1.3,1.2c0.5,6.6,0.8,13.2,0.8,19.8c0.1,4.2,0.4,8.4,0.7,12.6c0.3,2.6,0.8,5.2,1.7,7.6c1.5,3.1,3.4,6,5.6,8.6
	c3.6,4.2,7,8.5,10.4,12.9c2.3,3.3,4.3,6.7,6,10.4c0.2,0.6,0.3,1.3,0.1,2c-0.7,2.6-1.1,5.2-1.2,7.9c0.1,1,0.8,1.9,1.8,2.2
	c1.3,0.4,2.6,0.7,4,0.8c1.1,0.2,2.1,0.5,3.1,1c0.6,0.3,1.3,0.4,2,0.5c0.3-0.1,0.6-0.3,0.7-0.6c0.3-0.9,0.4-1.8,0.2-2.7
	c-0.8-4.2-2.1-8.3-3.8-12.3c-1.2-3.5-2.6-7-4.1-10.4c-1-2.5-2.2-5-3.4-7.5c-1.3-2.3-2.8-4.4-4.5-6.4c-1.7-2.2-3.4-4.4-5-6.7
	c-0.5-1.1-1.2-2.1-2-3c-0.3-0.7-0.5-1.4-0.5-2.1c-0.3-2.4-0.3-4.9,0.1-7.3c0.7-4.7,1.5-9.3,2.4-13.9c0.5-3.3,0.9-6.6,1-9.9
	c0.9-0.4,1.8-0.7,2.8-0.7c0.4,0.1,0.7,0.3,0.9,0.6c0.3,0.8,0.5,1.6,0.5,2.4c0.3,4.2,0.2,8.4,0,12.5c0.2,5.6,2.3,11,5.8,15.4
	c2.1,2.4,5.1,3.8,8.3,3.7c2.1-0.1,4.2-1,5.8-2.4c2-1.4,3.5-3.4,4.4-5.7c1.7-3.9,2.4-8.2,2-12.5c-0.2-2.2-0.7-4.5-1.5-6.6
	c-0.6-2-1.4-3.9-2.4-5.8c-0.4-0.8-0.8-1.5-1.1-2.3c-0.3-0.9-0.3-1.9,0-2.9c0.5-1.9,0.7-3.9,0.7-5.9c-0.1-0.7-0.3-1.4-0.5-2.1
	c0.1-0.5,0.3-1,0.7-1.5c2-2.4,3.1-5.5,3.1-8.6c-0.2-2-1.9-3.5-3.9-3.4c-1.1,0.1-2.2,0.4-3.1,1.1c-1.6,1.2-3.1,2.6-4.3,4.2
	c-1.1-0.8-2.4-1.4-3.7-1.7c-0.8,0-1.6,0-2.5,0c-0.3-0.3-0.6-0.6-0.7-1c-0.6-1.4-1.4-2.7-2.4-3.8c-1-0.9-2.5-0.8-3.5,0.2
	c-0.7,0.7-1.1,1.5-1.3,2.5c-0.5,1.7-0.5,3.5,0.1,5.2c0.5,1.3,0.6,2.7,0.2,4c-0.1,0.2-0.2,0.4-0.3,0.6c-1.2,0.6-2.6,0.5-3.8-0.2
	c-2.1-0.9-3.3-3.1-2.9-5.4c0.3-1.6,0.6-3.2,0.9-4.7c1.2-7.3,1.4-14.7,0.7-22.1c-0.3-3-0.5-6-0.7-9c0.1-0.5,0.3-1,0.8-1.2
	c3.1-2.4,6-5.1,8.5-8.1c2.2-3.1,4.8-6.3,6.1-9.9c1.7-4,3.2-7.8,5-11.8c0.8-1.9,1.5-3.9,1.9-6c7.9-1,15.6-3,23-6
	C457.8,67.2,467.2,73.6,473.4,75.9z M611.1,100.8c-0.2,4.9-4.1,8.8-9,9h-14.6c0.8-1.6-0.3-2.9-1.1-4.2c8-6.4,3.9-20.8,1.2-23
	c8.5-2.4,16.2-6.9,23.5-11.8V100.8z M362.2,475.8c2.2,2.2,4,4.8,5.3,7.6c0.7,2,1.4,4.1,1.9,6.1c0.7,2,1.6,3.9,2.6,5.7
	c0,0,0,0.2,0,0.2c-0.9,0-1.8,0-2.6,0.1c-2,0.1-3.9-0.2-5.4,1.2c-0.9-1.6-1.9-3.1-3-4.6c-1-1.2-1.6-2.6-2-4.1
	c-0.3-1.4-0.4-2.8-0.5-4.2c0.1-2.4,0.9-4.7,2.3-6.6C361.4,476.8,361.9,475.6,362.2,475.8z M580.2,55.3c0.4,1.1,0.8,2.1,1.3,3.2
	c1.6,3.9,1.7,8.2,0.2,12.2c-0.6,1.3-2,4.4-3.5,3.3c-1.5-2.4-2.8-5-3.7-7.7c-0.8-2.8-1.2-5.6-1.1-8.5c0.1-0.5,0.2-1.4,1.2-0.7
	c0.5,0.5,2,3.6,3,4.1c0.4,0.3,0.9,0.2,1.3-0.1c0.3-0.2,0.4-0.6,0.4-0.9c-0.1-1.8,0.1-3.6,0.4-5.3C579.7,54.7,579.8,54.5,580.2,55.3z
	 M413.6,46.2c3.1,0,6.2,0.7,9.1,2c6.2,2.4,12.3,5.2,18.2,8.5c0.7,0.4,0.6,1.2-0.5,1.4c-3.2,0.8-6.4,1.2-9.7,1.5
	c-8.9,1.2-17.9,1.6-26.8,1.3c-2.9-0.2-5.8-0.5-8.7-0.7c-2.3-0.2-4.5-0.7-6.6-1.5c-0.7-0.3-0.6-1.3,0-2c3.4-2.9,7.2-5.3,11.2-7.2
	C404.1,47.2,408.8,46.1,413.6,46.2z M345.6,482.9c0.1,2.5,0.5,5.1,1.2,7.5c0.8,2.6,2.1,5,3.9,7.1c0.5,0.4,0.9,0.9,1.2,1.4
	c-0.3,0.3-0.7,0.4-1.1,0.3c-2.4-1-7.3-1.1-8.9-0.5c-0.6,0.2-1.2,0.3-1.8,0.2c-2-0.4-4-0.9-6-1.6c-0.7-0.1-1.3-0.2-2-0.2
	c-1.3-1.8-1.9-4.1-1.7-6.3c2.4-0.9,4.7-2.1,6.8-3.6c2.6-2.1,4.9-4.5,6.8-7.2c0.3-0.5,0.7-1,1.2-1.4
	C345.6,480.1,345.7,481.5,345.6,482.9z M599.8,10c-1.5,1.8-3,3.7-4.4,5.6c-2,2.5-4.2,4.9-6.5,7.1c-1.3,1.3-3.1,2-4.9,2
	c0.7-3.1,1.7-6.1,2.8-9c0.6-1.8,0.9-3.7,0.8-5.6H599.8z"/>
<path class="st0" d="M23.9,539C14,539.6,6.2,547.7,6,557.7v473.2c0.3,10.1,8.5,18.2,18.7,18.4h268.8c10.2-0.3,18.3-8.5,18.5-18.7
	v-85.2c-0.2-10.2-8.5-18.4-18.7-18.6H140.9v-78.2h114.7c10.1-0.4,18.1-8.6,18.3-18.7v-82c-0.3-10.1-8.5-18.2-18.7-18.4H140.9V658
	h152.8c10.1-0.4,18.2-8.6,18.4-18.7v-81.8c-0.3-10.2-8.5-18.4-18.7-18.5h-269L23.9,539z"/>
<path class="st0" d="M344.6,539c-9.9,0.6-17.7,8.7-17.9,18.6v473.1c0.3,10.2,8.5,18.4,18.7,18.5h97.7c10.1-0.2,18.2-8.3,18.5-18.4
	V862.4h108.6c10.1-0.3,18.2-8.5,18.3-18.7v-81.8c-0.3-10.2-8.5-18.4-18.7-18.5H461.7V658H608c10.1-0.3,18.2-8.5,18.4-18.7v-81.9
	c-0.3-10.1-8.5-18.2-18.7-18.3H345.1L344.6,539z"/>
<path class="st0" d="M795.5,539c-2.1,0-4.1,0.1-6.1,0.2l-3.3,0.1c-0.2,0-0.4,0-0.6,0h-0.1c-21.9,1-43.5,6.4-63.3,15.7
	c-16.6,8-31.6,19-44.2,32.5c-7,7.3-13.3,15.3-18.7,23.7l-2.4,3.8l0,0c-11.2,18.1-20.1,37.5-26.4,57.8c-4.9,15.2-8.6,30.8-11.3,46.6
	c-2.9,17.1-4.8,34.4-5.7,51.8c-1.3,22.8-1.1,45.6,0.5,68.3c0.2,1.8,0.3,3.6,0.5,5.4l0,0c0.2,2,0.4,3.7,0.5,5.7v0.2
	c0.4,3.5,0.8,7,1.2,10.4v0.2l0.7,4.8v0.1c3.4,25.1,10.1,49.7,19.8,73.2c6.9,16.3,15.7,31.7,26.3,46c8.1,10.7,17.3,20.5,27.5,29.3
	c22.7,18.9,50.6,30.5,80,33.5c19.7,2.3,39.7,1,59-3.9c20.5-5.5,39.3-16.1,54.6-30.9l3.3,14.3l0,0.2c2,8.2,9.3,14.1,17.8,14.2h40.7
	c9.8-0.3,17.7-7.9,18.2-17.7V777.8c-0.5-9.8-8.6-17.6-18.4-17.8H796.4c-10,0.3-18.1,8.4-18.2,18.4v79.5c0.3,9.9,8.2,17.9,18.1,18.2
	h45c-0.7,10.1-2.8,20-6,29.6c-1.7,4.8-4.2,9.3-7.2,13.3c-4.7,5.9-11.6,9.6-19.2,10.3c-7.1,0.9-14.3,0.2-21.1-2.2
	c-5.7-2.1-10.7-5.6-14.7-10.2c-5.1-5.8-9.2-12.6-11.8-19.9c-2.3-6-4.1-12.3-5.5-18.6c-2.8-13.5-4.7-27.2-5.5-41
	c-2.1-33.2-1.6-66.5,1.5-99.6c1.2-11.7,3.2-23.4,5.9-34.9c1.7-6.4,3.9-12.7,6.8-18.7c3.5-7.1,8.4-13.4,14.3-18.6
	c9.8-7.9,23.2-9.6,34.7-4.4c3.3,1.6,6.2,3.9,8.5,6.7c3.6,4.1,6.5,8.8,8.6,13.8c3.5,7.9,6,16.1,7.7,24.5c1.6,7.3,2.7,14.7,3.5,22.2
	l0.4,3.9c1.5,10.2,11,17.3,21.2,15.8l0.6-0.1l84.7-14.8c9.8-1.7,16.5-10.7,15.4-20.6c-1.8-19.1-5.4-38-10.6-56.5
	c-4.4-15-10.4-29.5-18-43.2c-7.2-12.7-16.2-24.3-26.7-34.5c-18.7-17.7-41.9-29.8-67.2-35.1C826.5,540.2,811,538.7,795.5,539z"/>
<path class="st0" d="M1200.2,539c-9.9,0.6-17.7,8.7-17.9,18.6v172h-67.9V557.4c-0.3-10.1-8.6-18.2-18.7-18.3h-97.8
	c-10.1,0.4-18.1,8.6-18.3,18.7v473c0.3,10.1,8.3,18.2,18.4,18.5h98.1c10.1-0.3,18.2-8.6,18.3-18.7V856.2h67.9v174.7
	c0.4,10.1,8.6,18.2,18.7,18.3h97.8c10.1-0.3,18.2-8.5,18.4-18.7v-473c-0.3-10.2-8.5-18.4-18.7-18.5h-97.8L1200.2,539z"/>
</svg>
