<?xml version="1.0" encoding="utf-8"?>
<!-- Generator: Adobe Illustrator 25.2.3, SVG Export Plug-In . SVG Version: 6.00 Build 0)  -->
<svg version="1.1" id="Layer_1" xmlns="http://www.w3.org/2000/svg" xmlns:xlink="http://www.w3.org/1999/xlink" x="0px" y="0px"
	 viewBox="0 0 1396.8 1098.7" style="enable-background:new 0 0 1396.8 1098.7;" xml:space="preserve">
<style type="text/css">
	.st0{fill:none;stroke:#FF0000;stroke-width:0.75;stroke-miterlimit:11.34;}
</style>
<path class="st0" d="M426.7,0.4c-10,0.3-17.9,8.4-18.1,18.4v473.6c0.3,9.9,8.2,17.9,18.1,18.3H525c10-0.4,17.9-8.4,18.1-18.4V323.6
	h16l54.8,173.8c2.3,7.7,9.3,13,17.3,13.3h106.9c10-0.4,18-8.6,18-18.6c0-2.4-0.4-4.8-1.3-7l-75.5-192.7c20.6-15.2,36.4-36,45.5-59.9
	c4.7-12,8-24.6,9.8-37.4c4.2-27.6,3.2-55.7-2.8-82.9c-3.5-15.3-9.1-30-16.6-43.8c-4.4-8.1-9.7-15.6-15.6-22.6
	C689.2,34,676.8,24,663,16.4c-6.1-3.4-12.5-6.2-19.1-8.4c-7.2-2.4-14.7-4-22.3-4.7c-6.2-0.8-12.3-1.4-18.5-1.8
	c-12.3-0.7-24.6-1-36.9-1H426.9H426.7z M729.9,458.5c1.5,0.4,3,0.7,4.6,0.8l11.5,29.2c0.5,1.3,0.7,2.6,0.6,4
	c-3.3,1.7-6.8,3.3-10.3,4.6c-3.9,1.2-8,1.6-12,1.2c2.6-1.2,4.6-3.5,5.5-6.2c0.8-2.6,1.3-5.2,1.5-7.9c0.2-4.2,0.1-8.3-0.2-12.5
	c-0.3-4.4-0.8-8.7-1.4-13v-0.1l0.1,0L729.9,458.5z M718.4,138.1c2.7,0,5.3,0.1,8,0.2c1.1,11.1,1.4,22.2,0.9,33.3
	c-0.6,19.1-4.2,38-10.8,56c-7.1,18.8-18.5,35.7-33.4,49.3c-4.8,4.4-10,8.4-15.5,11.9l40.4,103c-2.1-0.2-4.2-0.6-6.3-1
	c-3.7-0.7-7.5-1.2-11.2-1.6c-2.8-0.1-5.6,0.1-8.4,0.5c-4.3,0.9-8.3,2.5-12,4.8c-2,1.2-4.3,2-6.6,2.4c-2.8,0.4-5.7,0.8-8.5,1.1
	c-4.4,0.7-8.7,1.9-12.8,3.5c-1.2,0.6-2.6,0.7-3.9,0.3c-1.3-0.4-2.7-0.7-4.1-1l-0.2,0.1c-0.3,0.7-0.5,1.5-0.4,2.2
	c0.1,1.2,0.2,2.5,0.3,3.7c0,0.2,0,0.4-0.1,0.5c-0.7,1.3-1.6,2.6-2.5,3.8c-3,4.3-5,9.2-5.8,14.5c-0.2,1.5-0.4,3-0.5,4.5
	c-0.1,0.9-0.3,1.9-0.5,2.8c-1.6,3.5-3.5,6.8-5.7,10c-0.8,1.2-1.5,2.5-2.2,3.8l-0.1,0.3c-0.2,0.7,0,1.5,0.5,2.1
	c0.7,0.4,1.5,0.7,2.2,0.8c1.4,0.3,2.8,0.9,4,1.8c0.9,0.7,1.9,1.2,3,1.7c1,0.3,2,0.3,3-0.1c2.1-0.7,4.2-1.5,6.2-2.4
	c1.8-0.6,3.6-1.3,5.4-2.1c1.5-0.8,2.9-1.8,4.1-3c1.1-1.1,2.3-2,3.7-2.9c4.4-1.9,9.1-2.9,13.8-2.9c2.2,0,4.1,1.4,4.9,3.4
	c1,2.4,1.4,5.1,1.2,7.7c-0.1,3-0.6,6-1.5,8.9c-0.6,1.6-1.5,3.2-2.5,4.6c-4.5,6.2-9.2,12.3-14.1,18.3c-1.5,1.6-3.1,3.2-4.8,4.5
	c-1,0.7-2.1,1.2-3.3,1.3c-1.6,0.2-3.3,0.7-4.8,1.3c-1.4,0.7-2.3,2.1-2.4,3.6c-1.3,0.2-2.6,0.5-3.8,0.8c-2.5,0.5-5.1,0.9-7.7,1.1
	c-0.1-0.4-0.3-0.7-0.4-1l-57-180.6h-32.5v178c0,0.3-0.1,0.7-0.1,1c-2.8,1.5-5.7,2.9-8.7,4.1c-3.2,1.1-6.7,1.5-10.1,1.3
	c-3.9-0.3-7.8-0.8-11.6-1.5c-8.4-1.2-16.8-1.4-25.3-0.7c-2.9,0.1-5.8,0.2-8.7,0.3c-2.6-0.2-5.1-0.5-7.6-1c-6.9-1-13.9-1.7-20.9-2.3
	c-1.6-0.1-3.2,0-4.9,0.1c-1.5,0-2.9,0.1-4.4,0.2c-1.8,0.3-3.6,0.6-5.3,1.1c-2.3,0.5-4.6,0.9-7,1.1c-0.5-1-0.8-2.2-0.8-3.3V266.5
	c4.4,0.3,8.8,0.5,13.3,0.6h0.2l0.2,0c2.9,1.1,5.3,3.1,6.9,5.6c1.3,1.7,2.6,3.4,4,5.1c1,1.4,2.1,2.8,3.3,4l7,7.7c1.6,1.8,3,3.8,4.1,6
	c0.8,1.9,1.6,3.8,2.3,5.7c0.3,1.2,0.5,2.4,0.5,3.6c0.3,6.4,2.5,12.5,6.2,17.6c2.7,3.7,6,7,9.9,9.5c2,1.1,4.1,2.1,6.3,2.9
	c0.6,0,1.2-0.2,1.7-0.5c1-0.5,1.7-1.4,1.9-2.5v-0.5c-0.2-0.8-0.7-1.5-1.4-2c-1.3-0.8-2.6-1.7-3.9-2.5c-1.7-1.1-3.2-2.5-4.5-4.1
	c-1.2-1.5-2.2-3-3.3-4.6c-0.9-1.5-1.6-3.1-2.1-4.7c-1-2-1.6-4.1-2-6.2v-0.4c0-0.2,0.1-0.3,0.1-0.5c0.1-0.1,0.2-0.2,0.3-0.2
	c0.4,0,0.7,0.1,1,0.4c0.6,0.2,0.9,0.7,1,1.3c0.2,1.2,0.7,2.4,1.5,3.4c2,2.6,4.8,4.4,8,5.3c3.8,1.2,7.9,1.3,11.7,0.2c2-0.6,4-1,6-1.2
	c1.4,0,2.8,0.2,4.1,0.8c0.5,0.3,1.1,0.4,1.7,0.5c0.4,0,0.7-0.2,1-0.4c0.1-0.1,0.2-0.3,0.2-0.5c0-0.3-0.1-0.6-0.3-0.8
	c-1.7-2-3.4-3.8-5.4-5.5c-1.9-1.8-3.9-3.7-5.8-5.5c-1.9-1.8-4.1-3.3-6.4-4.5c-1.9-1-4.1-1.5-6.2-1.5c-1.5-0.1-2.9,0.2-4.2,0.9
	c-1.2,0.6-2.7,0.5-3.8-0.2c-2.5-1.3-4.6-3.1-6.3-5.2c-1.5-2.3-3-4.5-4.4-6.8c-1.2-1.8-2.7-3.5-4.3-5c-1.9-2-3.8-4-5.5-6.1
	c-0.7-0.9-1.3-1.9-1.9-2.8c-1.8-3.2-3.6-6.4-5.4-9.7c-0.5-0.8-0.9-1.7-1.2-2.6c1.4-1,3-1.9,4.6-2.6c1.9-0.8,3.7-1.7,5.5-2.6
	c6.8-2.4,13.5-5,20.1-7.8c2.6-1.2,5.3-2.1,8.1-2.8c2.3-0.9,4.9-1.3,7.4-1.1c4.4,0.9,8.7,2,13,3.3c4.4,1.3,8.8,2.8,13.2,4.3
	c4.2,1.1,8.3,2.3,12.5,3.4c5.2,1.5,10.4,2.8,15.7,3.9c0.2,0.1,0.4,0.1,0.6,0.1c0.5,1.5,1.3,2.9,2.4,4c2.6,3.6,6.4,6.1,10.8,7.2
	c4.5,0.8,9.2,0.1,13.4-1.8c3-1.5,6-2.9,9.1-4.2c2.5-1,5.1-1.6,7.7-1.8l0.1-0.1c0.2-0.4,0.4-0.9,0.5-1.4c0-0.1-0.1-0.2-0.2-0.3
	c-0.7-0.5-1.4-0.9-2.2-1.2c-1.9-0.7-3.8-1.5-5.7-2.3c-2.9-1.6-5.9-3.1-8.9-4.6c-1.7-1.1-3.4-2.4-5-3.7c-3.3-3.3-7.8-5-12.5-4.8
	c-3.5,0.4-6.7,2.2-8.9,5c-0.1,0.1-0.2,0.3-0.4,0.3H545c-1.8-0.1-3.6-0.4-5.3-0.8c-7.2-1.2-14.3-3-21.3-5.3
	c-4.2-1.5-8.3-3.1-12.4-4.9c-1.7-0.7-3.3-1.3-5-1.9c-1.4-0.4-2.8-0.7-4.2-0.8c0.1-0.1,0.2-0.2,0.3-0.3c1.1-0.6,2.2-1,3.4-1.3
	c2.5-0.5,4.9-1.1,7.4-1.8c2.3-0.8,4.5-1.9,6.5-3.3c1.3-0.9,2.6-1.7,3.9-2.5c0.1-0.1,0.2-0.1,0.3-0.1c1.2,0.8,2.4,1.4,3.8,1.9
	c4.2,1.5,8.8,1.7,13.1,0.5c4.3-1.4,7.8-4.6,9.6-8.8h21.4c6.4,0,12.7-1.2,18.6-3.6c7.5-3.2,13.6-9,17.2-16.3
	c2.9-5.8,4.9-12.1,5.8-18.6c2-12.2,2.2-24.7,0.4-37c-0.3-1.8-0.6-3.5-1-5.3c8.4,3,17.1,4.7,26,5.1c5.5,0.4,11,0.6,16.6,0.7
	c2.1,7.6,4.7,15.1,7.8,22.4c1.3,3.6,2.7,7.2,4.1,10.8c0.3,0.8,0.7,1.5,1.2,2.1c0.3,0.3,0.8,0.5,1.2,0.3c0.4-0.3,0.6-0.8,0.6-1.2
	c0.2-1.7,0.3-3.3,0.4-5h0.1c0.8,1.8,1.4,3.6,2,5.5c1,3,2.3,5.8,3.8,8.6c1.1,1.8,2.4,3.4,3.9,4.7c0.4,0.3,0.9,0.5,1.5,0.5h0.2
	l0.2-0.2l0.1-0.1l0.1-0.2v-0.2c0.1-2.1,0-4.2-0.3-6.3c0-0.2,0-0.4,0.1-0.6h0.1c1.2,1,2.2,2.1,3.2,3.2c1.6,1.9,3.4,3.6,5.3,5.2
	c1,0.8,2,1.4,3.1,1.9c0.6,0.2,1.2,0.2,1.8-0.1c0.3-0.2,0.5-0.6,0.5-1c0-1.2-0.3-2.3-0.8-3.4c-1.1-2.8-2.5-5.5-4.2-7.9l0,0
	c0.8,0.4,1.5,0.8,2.1,1.4c0.8,0.5,1.7,0.9,2.6,1.3c0.7,0.2,1.5,0.1,2.1-0.2c0.4-0.2,0.6-0.7,0.3-1.1c-0.1-0.4-0.4-0.8-0.6-1.2
	c-2.6-4.1-5.8-7.8-9.4-11c-1.8-1.7-3.6-3.5-5.2-5.3l-1.2-1.5l-0.1-0.3c1.5,0.9,3,1.8,4.3,2.9c1.8,1.2,3.8,2.3,5.9,3
	c0.7,0.2,1.4,0.2,2.1,0.2l0.4-0.2c0.3-0.3,0.4-0.7,0.2-1.1c-0.7-1.1-1.6-2.2-2.7-3c-2.4-2-4.9-3.9-7.5-5.7c-1.9-1.4-3.6-3-5-4.9
	c1.1,0.4,2.2,0.9,3.2,1.6c2.1,1,4.2,2,6.3,2.8c0.8,0.5,1.7,0.7,2.6,0.7c0.6-0.1,1.2-0.5,1.5-1c0.2-0.8-0.1-1.7-0.8-2.2
	c-1.6-1.4-3.3-2.7-5.1-3.9c-4.6-3.3-8.9-7.1-12.8-11.1c4.9-0.6,9.8-1.3,14.6-2.3C695.4,138.9,706.9,138,718.4,138.1z M698.3,458.7
	c2.9,2.7,5.7,5.6,8.3,8.7c2.3,3.1,4.2,6.6,5.4,10.2c1.4,3.5,2.3,7.2,2.7,11c0,0.9,0,1.7-0.3,2.6c-0.4,0.6-1,1.1-1.7,1.2
	c-1.3,0.3-2.6,0.8-3.9,1.3c-1,0.5-1.8,1.4-2.1,2.6c-6.8-0.6-13.6-0.6-20.4,0c-3.1,0.1-6.2,0.2-9.3,0.3c-2.7-0.2-5.4-0.5-8.1-1
	c-2.7-0.3-5.3-0.7-8-1c2.3-1.7,4.4-3.6,6.3-5.8c1.9-1.9,4.1-3.5,6.6-4.6c3.5-1.7,7-3.3,10.4-4.9c1.2-0.6,2.2-1.3,3.2-2.1
	c0.9-1,1.6-2.1,2.2-3.2c2.7-5.4,5.1-10.9,7.3-16.5L698.3,458.7z M531.9,196.9c-2.2,1.5-4.4,2.9-6.5,4.5c-2.1,1.3-4.2,2.6-6.3,4
	c-1.3,0.9-2.4,2.1-3.2,3.5c-0.8,1.1-1.4,2.2-1.8,3.4c-0.5,1.7-0.9,3.5-1,5.3c0,0.8,0.2,1.5,0.5,2.2c-2.2,1.2-4.3,2.4-6.5,3.5
	c-3,1.4-6.1,2.3-9.3,2.8c-2,0.3-3.9,0.8-5.9,1.4c-2.7,0.9-5.4,1.8-8.2,2.6l-2.5,0.9c-1.9,0.9-3.8,1.7-5.7,2.4
	c-1.4,0.6-2.8,1.2-4.2,1.9c-4.4,1.9-8.9,3.9-13.2,5.9c-4.9,2.4-9.8,4.8-14.6,7.4c-4.1,2-8.4,3.3-12.9,3.9c-3,0.4-6,0.3-8.9-0.2
	c-1.3-0.3-2.5-0.7-3.7-1.2V18.5c0.4-4.7,4.2-8.4,8.9-8.5h89c-0.5,0.8-1.1,1.5-1.7,2.1c-2.7,3.1-5.2,6.5-7.4,10
	c-1.3,2.5-2.1,5.3-2.3,8.1c-0.1,5.6,2.7,10.8,7.4,13.8c4.8,3.3,10.5,5,16.3,4.7c0.8,1,1.4,2.1,1.9,3.3c1.4,2.6,3.1,5.1,5.1,7.3
	c2.2,2.1,4.6,4.2,7,6.1c1.1,0.9,2.1,1.9,2.9,3c0.1,0.2,0.2,0.4,0.3,0.6c-2.3-0.9-4.8-1.5-7.3-1.7c-6.3-0.6-12.6-1.4-18.9-2.2
	c-10.7-1.7-21.2-4.4-31.4-8.1c-0.2-0.2-0.3-0.4-0.3-0.6c-0.9-5.2-4.6-9.4-9.6-11c-1.8-0.7-3.7-1.1-5.6-1.1c-2.7-0.1-5.5,0.1-8.2,0.8
	c-1.5,0.2-3,0.5-4.5,0.6c-2.2,0.1-4.4,0-6.6-0.1c-2.4,0-4.8,0-7.2-0.1c-2.8-0.4-5.7-0.8-8.5-1c-0.3,0-0.7,0.1-1,0.2
	c-0.3,0.2-0.4,0.6-0.4,0.9c-0.1,0.3-0.1,0.6,0,0.9c0.8,0.6,1.7,1.2,2.5,1.7c2.8,2.2,5.3,4.8,7.4,7.7c1.5,2,3.1,4,4.7,6
	c3.6,4.3,8.6,7.2,14.1,8.3c4.6,0.7,9.3,0.1,13.5-1.8c1.5-0.5,3-1.2,4.2-2.3c2.4,0.8,4.8,1.4,7.2,2c8.1,1.9,16.2,3.8,24.3,5.6
	c3.5,0.7,7,1.3,10.4,1.8c7.7,1.3,15.3,3,22.9,5.1c2.8,1.1,5.3,2.8,7.3,5.1c1.9,1.7,3.8,3.6,5.5,5.5c4.1,4.9,8.3,9.6,12.6,14.2
	c-3-0.3-5.9-0.5-8.9-0.6h-30.4v39.9c-4,0.8-8.1,1.1-12.2,1.1c-1.3-0.3-2.3-1-3-2.1c-1.1-1.4-2.6-2.4-4.3-3c-2.8-1.2-5.8-1.7-8.8-1.4
	c-3.3,0.2-6.7,0.8-9.9,1.7c-3.7,0.9-7.3,1.8-11,2.7c-1.4,0.4-2.8,0.9-4.1,1.5l-0.1,0.1c-0.3,0.4-0.3,0.9,0,1.2
	c0.4,0.6,1.1,0.9,1.8,0.9c1.7,0.1,3.4,0.5,4.9,1.2c2.1,1.3,4.1,2.8,5.9,4.5c5.3,4.9,12.5,7.2,19.7,6.3c1.6-0.3,3.2-0.8,4.7-1.4
	c1.3-0.6,2.4-1.6,3.3-2.7c0.7,0.1,1.5,0.2,2.2,0.5l0.3,0.2c0.1,0.2,0.1,0.4,0,0.5c-1.3,1.6-2.9,3-4.6,4.2c-1.2,0.9-2.5,1.9-3.7,2.8
	c-1,0.7-2.1,1.3-3.3,1.8c-1.9,0.8-3.7,1.7-5.6,2.5c-3.3,1-6.8,1.5-10.3,1.4c-1.1,0-2.2,0.2-3.3,0.6c-1.2,0.7-1.7,2.1-1.2,3.4
	c0.3,1,0.9,1.9,1.7,2.5c1.2,0.4,2.5,0.5,3.8,0.5c5.2,0.3,10.4-0.3,15.3-2c3.4-1,6.6-2.5,9.6-4.4c4.2-2.7,8.3-5.5,12.3-8.4v34.5
	C533,196.2,532.5,196.6,531.9,196.9z M563,114.4c5.5,0,11,0.6,16.4,1.8c2.1,0.5,4.1,1.3,5.9,2.5c1.8,1.2,3.3,2.8,4.5,4.5
	c4.8,6.2,7.9,13.5,9,21.3c2.2,13.7,1.6,27.8-1.7,41.3c-1.2,4.6-3.1,8.9-5.8,12.9c-3.5,4.8-8.6,8.2-14.5,9.5
	c-3.1,0.8-6.3,1.3-9.5,1.3l-2.9,0.1h-21.4v-95.2H563z M571.4,9.9c12.3,0.1,24.6,0.5,36.9,1.4c7.5,0.6,14.9,1.6,22.3,2.9
	c9.2,1.9,18,5.1,26.2,9.6c19.5,10.3,35.8,25.6,47.3,44.5c4.5,7.4,8.3,15.2,11.4,23.2c4.1,10.6,7.1,21.6,9,32.9
	c-10.5,0-21-0.1-31.5-0.2c-12.1,0-24.2,0.9-36.2,2.9c-1-2.1-1.5-4.4-1.4-6.8c-0.1-2.9-0.6-5.8-1.5-8.6c-0.7-1.8-1.7-3.4-3.1-4.8
	c-0.7-0.8-1.5-1.6-2.2-2.4c-0.6-0.7-1-1.6-1.1-2.5c0-0.3,0.1-0.5,0.2-0.8c1.1,0.2,2.2,0.6,3.1,1.2c1.4,0.8,3,1.2,4.6,1.4
	c1,0.1,2-0.4,2.5-1.3c0.2-0.5,0.3-0.9,0.4-1.4c1.1,1.1,2.3,2.1,3.6,3c1.3,0.7,2.9,0.9,4.4,0.7c1.1-0.3,2-1.2,2.2-2.4
	c1.8,3.1,4.2,5.7,7,7.8c1.3,0.8,2.9,0.8,4.2-0.1c0.6-0.5,1-1.3,1-2.2l0.1-0.1c0.7,0.7,1.3,1.4,2,2.1c1.5,1.5,3.3,2.7,5.3,3.2
	c1.3,0.3,2.6,0.2,3.8-0.2c0.4-0.2,0.6-0.8,0.4-1.2c-0.6-1.2-1.3-2.3-2-3.4c-0.3-0.5-0.5-1.1-0.6-1.7c1.3,1,2.6,2,3.9,3
	c1.4,1.1,3.1,1.8,4.8,1.9c1.1,0.1,2.2-0.3,3.1-1c0.8-0.8,0.8-2,0-2.8c0,0,0,0,0,0c-0.4-0.6-1-1-1.6-1.3c-2.6-1.9-5.1-4.1-7.2-6.6
	c-1.7-1.7-3.4-3.5-5.1-5.4c-1.2-1.3-2.2-2.8-3.2-4.3c-0.9-1.9-1.6-3.8-2.1-5.9l1.9,0.7c2.1,0.6,4.4,0.3,6.3-0.9
	c0.4-0.3,0.7-0.7,0.9-1.1V83c0-0.1-0.1-0.2-0.2-0.2c-1.2-0.6-2.3-1.4-3.4-2.3c2.6,0.3,5.2,0,7.7-0.8c1.1-0.5,2-1.2,2.7-2.2
	c0.4-0.7,0.5-1.6,0.1-2.3c-0.2-0.3-0.4-0.5-0.7-0.6c-1,0-1.9,0.2-2.9,0.5c-3.1,1-6.4,0.8-9.4-0.4c-4.6-1.7-8.9-4.2-12.7-7.3
	c-2.4-1.9-4.9-3.7-7.6-5.1c-0.6-0.3-1.3-0.6-1.9-0.9c-1.8-0.5-3.8-0.1-5.3,1c-1.9,1.5-3.7,3.2-5.2,5.1c-2.5,3.1-5,6.3-7.4,9.5
	c-3.4,4.6-7.8,8.4-12.9,11.1c-0.2,0.1-0.5,0.2-0.8,0.2l-0.1-0.1c-0.1-0.5-0.1-0.9-0.1-1.4c-0.1-1.6-0.7-3.2-1.5-4.5
	c-0.7-1.5-1.3-3.1-1.8-4.7c-1.3-3.3-4-5.9-7.4-7.1c-1.2-0.3-2.4-0.3-3.6-0.1c-4.9,0.8-9.2,3.7-11.7,8c-0.1,0.3-0.2,0.6-0.4,0.9
	c-0.5,0.2-1,0.4-1.6,0.4c-2.5,0.4-4.8,1.6-6.3,3.6c-0.9,1.6-1.5,3.3-1.5,5.1c0,0.5,0.4,0.9,0.8,1c1-0.3,1.9-0.7,2.7-1.4
	c1-0.5,2-0.9,3.1-1.2c1.7-0.1,3.3,0.5,4.3,1.8c0.3,0.4,0.2,0.9-0.2,1.2c-0.3,0.3-0.6,0.4-1,0.4l-2.3,0.4c-0.9,0.2-1.6,1.1-1.4,2.1
	c0.1,0.5,0.4,0.9,0.8,1.1c0.9,0.4,1.9,0.6,2.8,0.4c1-0.2,1.9-0.3,2.9-0.3c1.3,0.1,2.5,0.6,3.4,1.5c0.8,0.7,1.6,1.3,2.5,1.9
	c1.2,0.6,2.5,1,3.8,1c1.1,0.1,2.2,0.1,3.3,0c0.2,0.1,0.2,0.3,0.2,0.5c-0.4,3.1-0.6,6.3-0.5,9.4c0.3,5.3,2.6,10.3,6.3,14
	c1.9,1.6,4,3,6.1,4.3c0.4,0.3,0.8,0.7,1.1,1.1c0.8,0.7,1.7,1.2,2.7,1.6c-4.9,0.2-9.9,0.1-14.8-0.3c-5.5-0.6-10.8-2.6-15.2-5.9
	c-7-4.8-13.1-11-17.9-18c-4.4-6.1-9-12-13.9-17.8c-1.6-1.9-3.2-3.9-4.8-5.9c-0.8-1-1.7-1.9-2.7-2.8c-1.3-1.1-2.6-2.3-3.9-3.5
	c-0.5-0.5-0.8-1-1.1-1.7c-0.8-1.4-1.8-2.8-3-4c-3.9-4.4-8.3-8.3-13.1-11.7c-3.4-2.9-6.2-6.3-8.5-10.1c-0.5-0.8-1-1.5-1.6-2.2
	c0.8-0.4,1.4-1,1.8-1.8c1-2,1.7-4.1,2.1-6.3c0.1-2.2-0.1-4.5-0.6-6.6c-0.7-1.8-1.6-3.6-2.8-5.2c-2.2-3.6-4.3-7.3-6.2-11
	c-0.9-1.6-1.7-3.1-2.6-4.7L571.4,9.9z"/>
<path class="st0" d="M912.5,0.4c-18.2,0.2-36.2,3.4-53.3,9.4c-24.3,8.8-45.6,24.1-61.8,44.3c-15.5,19-26.1,41.5-31,65.5
	c-4.9,23.1-5.4,46.8-1.5,70.1c3.9,22,12.9,42.9,26.2,60.9c2.1,2.9,4.3,5.7,6.6,8.4c9.4,11.2,20.7,20.7,33.4,28
	c6.2,3.7,12.5,7.1,19,10.2l4.1,2l0.3,0.1l7.7,3.6c0.2,0.1,0.4,0.2,0.5,0.3l8.3,3.7l0.2,0.1l0.2,0.1l7.9,3.4l0.2,0.1l0.2,0.1
	c9.5,3.9,18.9,7.7,28.5,11.3c7.2,2.9,14.3,6.1,21.2,9.7c4.1,2.2,7.9,4.7,11.6,7.5c5.5,4.6,9,11.3,9.6,18.5
	c0.6,5.7-0.3,11.5-2.7,16.7c-2.2,4.4-5.5,8.1-9.6,10.8c-4.1,2.7-8.7,4.5-13.5,5.3c-8.9,1.7-18,1.1-26.6-1.7
	c-7.4-2.7-13.7-7.5-18.3-13.9c-3.7-4.9-6.6-10.2-8.8-15.9c-3-7.1-5.2-14.5-6.7-22c-2.1-10-11.9-16.5-22-14.5
	c-0.6,0.1-1.2,0.3-1.8,0.5l-82.2,25.2c-9.6,3-15.2,13-12.6,22.7c4.6,18.6,11.4,36.6,20,53.7c6.3,12.1,13.9,23.5,22.6,33.9
	c20.9,24.2,49.2,41,80.5,47.7c12.1,2.7,24.3,4.2,36.7,4.5c22.1,0.8,44.2-1.8,65.5-7.9c56.7-16.8,99-64.4,108.9-122.8
	c3.8-21.4,4-43.3,0.5-64.8c-5.5-33.4-22.6-63.7-48.3-85.6c-5.7-4.7-11.8-9-18.1-12.9c-11.5-7-23.4-13.2-35.7-18.8
	c-8.2-3.7-16.6-7.3-25-10.6c-14.3-5.8-28.3-12.2-42-19.4c-4-2.2-7.9-4.6-11.7-7.2c-2.2-1.6-4.1-3.5-5.6-5.7c-1.7-2.6-2.7-5.7-3-8.8
	c-1.3-10.3,4.4-20.3,14-24.4c3.4-1.3,6.9-1.9,10.5-2c5.8-0.2,11.6,0.8,17,3.1c5.4,2.5,10,6.3,13.5,11.1c3.5,4.4,6.4,9.3,8.5,14.5
	c2.3,5.1,4.1,10.4,5.7,15.9c3.5,9.7,14.3,14.7,24,11.2c0,0,0,0,0,0l1-0.4l77.6-31.8c8.7-3.6,13.5-13.1,11-22.2l-1-3.6v-0.2l-0.1-0.2
	c-4.2-15.7-10.4-30.8-18.4-45c-6.9-12-15.6-23-25.6-32.6c-16-14.9-35.3-25.8-56.3-31.7C960.3,4.3,947.7,2,935,1.1
	C927.5,0.5,920,0.3,912.5,0.4z M963.1,459.6c-0.1,1.9-0.1,3.7,0,5.6c0.1,6.7,0.3,13.4,0.8,20.1c0.2,2.3,0.4,4.6,0.7,6.9
	c-1.5,0.4-2.9,0.8-4.4,1.2c-2,0.4-4,0.5-6.1,0.2c-2-0.2-3.9-0.4-5.9-0.6c-1.8,0.1-3.5,0.5-5.2,1c-3,1-6.1,1.8-9.2,2.4
	c-3.4,0.3-6.9,0.3-10.3,0c-4.8-0.4-9.7-0.8-14.5-1.4c-3.3-0.3-6.7-0.5-10-0.4c-1.2,0.3-2.5,0.7-3.7,1.2c-0.7,0.2-1.4,0.4-2.1,0.5
	l0.1-0.1v-0.1c0.2-1.1,0.5-2.1,0.8-3.1c1.4-7.9,1.6-15.9,0.5-23.8c-0.6-3.9-1.5-7.7-2.8-11.4c0.7,0.4,1.4,0.9,2.1,1.4
	c7,4.7,15,7.8,23.3,9c2.9,0.5,5.8,0.8,8.8,1c6.1,0.1,12.2-0.4,18.1-1.6c3.1-0.8,6.1-2.1,8.8-3.9c3.2-2.3,6.6-4.3,10.2-5.9V459.6z
	 M877,459.7c1.5,5.8,2.2,11.8,2,17.8c-0.1,4.8-0.6,9.6-1.5,14.3c-0.1,0.8,0.1,1.6,0.6,2.1c-4.1-0.8-8.2-1.8-12.2-2.9
	c0.2-0.9,0.2-1.7,0.2-2.6c0.3-7.6,2-15,4.8-22c1.5-3.2,3.3-6.2,5.5-9L877,459.7z M980.5,462.3l1.5,3.6c2.5,6,5,12,7.5,18
	c-2.6,1.2-5.1,2.6-7.6,4c0-1.2,0-2.3-0.1-3.5c-0.3-3.6-0.6-7.1-1-10.7c-0.4-4.7-0.8-9.4-1.1-14.1L980.5,462.3z M796.2,346.6
	c-1.8,4.5-0.8,9.6,2.7,13l0.1,0.2c0.1,0.4,0.1,0.8,0,1.2c-0.8,5.2-1.8,10.3-2.8,15.5v0.2c0.1,0.2,0.2,0.4,0.4,0.5h0.2
	c0.7-0.5,1.4-1,2-1.7c1.8-1.7,3.7-3.3,5.6-4.8c1.2,1.9,2.4,3.9,3.4,5.9v0.3c-0.3,2.5-0.7,5.1-1.2,7.6c-0.2,1.3-0.4,2.5-0.5,3.8
	l0.1,0.3c0.1,0.1,0.1,0.1,0.2,0.2h0.2c0.2,0,0.4,0,0.6,0c0.5-0.2,1-0.6,1.3-1.1l3.1-3.4c0.1-0.2,0.3-0.3,0.5-0.4
	c0.2,0.1,0.4,0.2,0.5,0.4c1.3,1.5,2.5,3.1,3.5,4.8c1.4,1.9,2.8,3.8,4.1,5.8c1.4,2.1,2.6,4.4,3.4,6.8c0,0.1,0,0.1,0,0.2
	c-3-1.3-5.9-2.8-8.7-4.4c-0.5-0.4-0.8-0.9-1-1.5c-0.5-1.7-1-3.4-1.5-5.1c-0.1-0.2-0.1-0.3-0.2-0.5c-0.1-0.1-0.2-0.2-0.3-0.4h-0.2
	c-0.7,0.5-1.3,1.1-1.7,1.9c-0.4,0.5-0.8,0.9-1.2,1.4h-0.2c-1.5-0.9-2.8-1.9-4.1-3.1c-0.3-1-0.6-2-0.7-3c-0.3-2.6-0.9-5.2-1.7-7.6
	c-0.1-0.1-0.3-0.2-0.4-0.3h-0.1h-0.1l-0.2,0.2c-1.1,1.8-1.9,3.7-2.5,5.7c-2.7-3.1-5.5-6.2-8.5-9.1c-0.5-0.4-1-0.6-1.5-0.8
	c-0.5,0-0.9,0.3-1,0.8c-0.2,0.5-0.2,1-0.1,1.5c0.9,5,2.4,10,4.4,14.7c1.4,2.6,3.3,5,5.5,7c7.3,7,15,13.6,23,19.8
	c5.3,4.4,10.4,9,15.1,14l5.8,5.9c2.1,2,4.4,3.9,6.8,5.6c2.2,1.2,4.5,2.1,6.9,2.6c1.5,0.3,3.1,0.4,4.7,0.3c1.5-0.4,3.1-0.8,4.6-1.4
	h0.1v0.2c-0.3,1.5-1,2.8-1.9,4c-3.1,3.6-5.8,7.6-8,11.8c-1.3,2.6-2.2,5.3-2.8,8.1c-1.2,5.1-2.2,10.2-3,15.4c0,0.4,0,0.7,0,1.1
	c-1.5,0.3-3.1,0.1-4.4-0.6c-4.8-2.2-9.3-5.1-13.1-8.7c-1.2-1-2.4-2-3.8-2.8c-1.2-0.6-2.5-1-3.9-1c-2.6-0.2-5.2-1-7.4-2.4
	c-1.6-1.1-3.1-2.4-4.3-4c-1.6-1.6-3.3-2.9-5.3-4c-10.7-10.1-19.8-21.7-27.2-34.3c-5.5-9.2-10.2-18.9-14-28.9
	c-4.2-10.5-7.6-21.2-10.3-32.1c-0.9-4.6,1.8-9.2,6.3-10.6l35.2-10.8L796.2,346.6z M1057.3,275.8c8.4,15.8,13.5,33.1,15.2,50.9
	c2.2,20.5,0.9,41.2-3.9,61.2c-2.3,9.2-5.3,18.1-9.2,26.7c-7.9,17.1-18.9,32.5-32.6,45.3l-10.6,8.2c-1.8,1.2-3.5,2.4-5.2,3.7
	c-2.1,1.6-4.2,3.1-6.3,4.5c-2-3.9-4-7.7-6.1-11.6c-2.1-4.2-3.8-8.6-5.1-13.2c-0.5-2.1,0.1-4.3,1.5-6c1-1.3,2.2-2.4,3.4-3.4
	c1.6-1.5,3.3-2.9,5-4.3c19-16.6,34-37.4,43.7-60.7c9.1-21.4,13.8-44.3,13.9-67.5c-0.2-7.3-0.7-14.6-1.5-21.9
	c-0.6-4.1-1.4-8.3-2.2-12.3L1057.3,275.8z M847,331.5c3.9,0.4,7.1,3.3,7.9,7.1c2.2,10.8,5.7,21.2,10.6,31c2.6,5,5.7,9.7,9.4,14
	c4.6,5.2,10.2,9.4,16.5,12.4c4.4,2,9.1,3.3,13.9,4c-4.3,2-8.4,4.2-12.5,6.5c-3.3,1.7-6.5,3.6-9.7,5.5l-1.1,0.7
	c-1.5,0.1-3.1,0.2-4.6,0.3c-1.5,0-2.9-0.4-4.2-1.1c-5.1-2.6-9.9-5.7-14.3-9.3c-0.1-0.2-0.2-0.4-0.2-0.5c0-0.1,0-0.3,0-0.4v-0.2
	c0.2-1.9,0.3-3.9,0.3-5.8c0-2.5-0.7-4.9-2.2-7c-0.7-0.8-1.5-1.3-2.5-1.5c-0.8-0.1-1.5,0.1-2.1,0.6c-1.2,1-2.1,2.4-2.7,3.8
	c-0.4,0.9-0.8,1.8-1.1,2.8c-0.6-0.3-1.1-0.8-1.6-1.2l-0.1-0.2c0-0.2,0-0.4,0-0.6c0.5-1.4,0.9-2.9,1.2-4.4c0.3-1.7,0.2-3.4-0.2-5.1
	c-0.6-1.5-1.6-2.8-3-3.7c-1.1-0.5-2.3-0.2-3.2,0.6c-0.7,0.6-1.2,1.3-1.6,2.1c-0.5,1.2-1.1,2.4-1.7,3.6l0,0c-2.1-1.8-4.1-3.7-5.9-5.8
	c-0.9-1.1-1.7-2.3-2.4-3.6c-0.9-1.5-2-2.9-3.3-4.1c-1.6-1.3-3.3-2.5-5.1-3.5c-1.9-1.1-3.6-2.6-4.9-4.4c-3.8-4.8-6.4-10.4-7.4-16.4
	c-0.4-1.6-1.1-3.1-2-4.5l36.1-11.1C844.5,331.5,845.8,331.4,847,331.5z M919.4,9.9c16.8,0.1,33.6,2.4,49.8,6.9
	c11.1,3.2,21.8,7.8,31.8,13.7c15.6,9.4,29,22,39.2,37.1c-1.9-0.5-4-0.5-5.9,0c-0.4,0.1-0.7,0.4-0.8,0.8c0.1,1.4,0.3,2.7,0.6,4.1
	c0,0.2,0,0.3-0.1,0.5c-1.6-0.9-3.2-1.7-4.9-2.5c-2.4-0.4-4.9-0.2-7.2,0.8c-3.3,1.3-6.2,3.4-8.3,6.2c-0.4,0.7-0.4,1.6,0.2,2.2
	c0.6,0.4,1.3,0.8,2,1.1l0.4,0.3c0.1,0.2,0.1,0.5-0.2,0.7c-0.2,0.2-0.5,0.3-0.8,0.3c-2.1,0.2-4.1,1.2-5.6,2.8
	c-2.9,2.8-5.5,5.9-7.7,9.3c-1.3,2.2-2.2,4.5-2.8,7c0,0.5,0.4,0.8,0.9,0.8c1.1,0.1,2.2,0,3.2-0.2c0.6,0,1.2,0.4,1.4,1
	c0.2,0.8-0.2,1.6-0.9,1.9c-0.8,0.4-1.6,0.5-2.5,0.5c-1,0-1.9,0.3-2.7,0.7l-0.1,0.1c0,0.1-0.1,0.2-0.1,0.3c-0.1,3.9-0.4,7.8-1.1,11.7
	c-0.8,6-0.2,12.1,1.8,17.7c0.3,1.1,0.5,2.3,0.8,3.5l0.4,1.1c0.2,0.4,0.6,0.7,1,0.8c0.6,0.2,1.2,0.1,1.8-0.1c0.3-0.2,0.4-0.6,0.4-0.9
	c0.4-2.4,1.7-4.6,3.6-6.1c1.1-1,2.3-1.9,3.5-2.9c1.4-1.3,2.3-2.9,2.7-4.7c0.6-4.3,1.5-8.5,2.7-12.7c0.1-0.2,0.4-0.3,0.6-0.2
	c0.4,0.2,0.8,0.5,0.9,1c0.4,2,0.5,4,0.3,6.1c-0.3,1.5-0.6,3-1,4.5c-0.1,0.5,0.1,1,0.6,1.1c0.5,0.2,1,0.2,1.4-0.2
	c2.3-2.1,4.6-4.2,6.9-6.4c2.3-2.1,4.8-3.9,7.4-5.4c0.8-0.7,1.2-1.7,1.2-2.8c0-0.3,0.1-0.7,0.1-1c0-2.6,0.1-5.2,0.2-7.9
	c-0.1-0.3,0.1-0.6,0.3-0.8c0.6,0.1,1.1,0.7,1.2,1.3c0.2,0.5,0.3,1.1,0.3,1.7c-0.1,1.7-0.2,3.3-0.2,5c0,0.4,0.2,0.7,0.6,0.9
	c0.5,0.1,0.9,0,1.3-0.3c0.4-0.1,0.7-0.4,1-0.6c2.3-1.3,4.7-2.6,7-3.7c1.3-0.6,2.5-1.4,3.6-2.3c0.2-0.2,0.3-0.5,0.3-0.7
	c0-1.5,0.2-3.1,0.5-4.6c0.1-0.1,0.2-0.3,0.3-0.3c0.3-0.1,0.6,0,0.7,0.2c0.8,1.7,1.4,3.4,1.8,5.2c2.1,8,3.5,16.2,4.2,24.5
	c0.2,2.5,0.2,5.1,0,7.6l-75.7,31.1c-4.6,1.9-9.8-0.2-11.8-4.7c-0.2-0.3-0.3-0.7-0.4-1.1c-2.6-9.2-6.3-18.1-11.2-26.4
	c-2.5-3.9-5.3-7.6-8.5-11c-7.1-7.1-16.3-11.5-26.3-12.6c-6.8-0.8-13.8-0.2-20.4,1.9c-13,4.8-21.6,17.3-21.4,31.2
	c0,6,1.7,11.9,4.9,16.9c2,2.9,4.5,5.5,7.4,7.5c3.3,2.5,6.8,4.7,10.5,6.7c6.1,3.4,12.3,6.6,18.7,9.6c10.5,4.9,21.1,9.5,31.8,13.8
	l4.9,2h0.1l4.9,2.1h0.1l4.9,2.1h0.1l7.3,3.3l0.2,0.1c6.6,3.1,13.1,6.4,19.5,9.8l-7.9,1.9c-1.2,0-2.3-0.3-3.3-0.9
	c-4.1-2-8.3-3.6-12.6-4.9c-3.6-1.3-7.3-2.2-11.1-2.6c-0.5,0-1,0.1-1.5,0.3c-3.4,1.7-6.6,3.7-9.7,5.9c-0.1,0.1-0.1,0.3-0.1,0.5
	l0.1,0.2c0.2,0.4,0.6,0.7,1,0.8c3,1.2,5.8,2.7,8.5,4.4c-3.3,0.9-6.7,0.7-9.9-0.5c-1.1-0.4-2.1-0.8-3.2-1.1c-1,0.1-2,0.5-2.8,1.1
	c-3.1,2-5.8,4.5-8.1,7.4c-1.2,2.1-1.6,4.6-1.4,7c0.1,0.5,0.5,1,1.1,1c1.4,0.2,2.8,0.3,4.2,0.2c2.5,0,5,0.2,7.5,0.6
	c0.1,0,0.2,0.1,0.3,0.2c0,0.1,0,0.2-0.1,0.3c-1.1,0.8-2.3,1.4-3.7,1.6c-3,0.6-5.9,1.2-8.8,1.8c-0.4,0.1-0.7,0.4-0.9,0.7
	c-0.7,1.4-1.1,2.8-1.2,4.3c-0.4,3.4-0.4,6.9,0.1,10.3c0.7,4.5,1.3,9,1.9,13.5c0.1,0.8,0.1,1.7-0.2,2.5c-0.3,1.7-1,3.3-1.9,4.8
	c-0.6,0.9-0.8,2-0.7,3.1c0.1,1,0.9,1.7,1.9,1.8c0.3,0,0.7,0,1-0.2c8.5-4.9,16.9-9.9,25.2-15.1c2.1-1.6,3.6-4,4-6.6
	c0.3-1.9,0.4-3.9,0.3-5.8c0-0.4,0.2-0.8,0.5-1c0.2-0.1,0.5,0,0.7,0.2l0.2,0.3c0.5,1.4,0.8,2.8,0.8,4.2c0,0.6,0.3,1.1,0.8,1.4
	l0.2,0.1l0.2,0h0.2c0.4-0.1,0.7-0.2,1-0.5c4-2.9,7.9-5.9,11.8-9c1.4-1.4,2.3-3.2,2.6-5.2c0.1-0.5,0-1.1-0.2-1.6
	c-0.9-1.8-2-3.5-3.1-5.2c-0.2-0.6,0-1.4,0.6-1.7c0.1-0.1,0.2-0.1,0.3-0.1c1.7,2.1,3,4.4,4,6.9c0.3,0.4,0.9,0.6,1.4,0.4
	c1.8-0.9,3.3-2.1,4.6-3.6c1-1.9,1.3-4.1,0.6-6.2c-1-2.2-2.1-4.4-3.3-6.5c-0.3-0.4-0.3-0.9-0.2-1.3l0.1-0.2l0.1-0.1
	c0.1-0.1,0.3-0.2,0.4-0.2c0.7-0.1,1.5-0.1,2.2-0.2c1.5-0.2,2.9-0.2,4.4-0.2c4.2-0.1,8.5,0,12.7,0.2c3,0.4,6,1.4,8.6,2.9
	c10.7,7.4,20.2,16.5,28,26.8c0.4,4.1,1.2,8.2,2.5,12.2l1.1,3.7c-1.5-0.7-3.1-1.2-4.7-1.4c-0.6,0-1.3,0-1.9,0.1l-0.2,0.1
	c-0.1,0.1-0.2,0.2-0.3,0.3c0,0.1-0.1,0.3-0.1,0.5v0.2c1,2.8,2.2,5.6,3.4,8.4c2,4.5,3.8,9.2,5.3,13.9c0.1,0.4,0.2,0.7,0.2,1
	c-2.6-1.1-5.4-1.8-8.2-2c-0.7,0-1.3,0.1-2,0.3c-0.3,0.3-0.3,0.8-0.2,1.2c0.6,2.1,1.3,4.1,2.1,6.1c1.6,4.2,3.3,8.4,5.1,12.5l-4.7-0.5
	c-2.5-0.1-5.1,0-7.6,0.4c-0.5,0.1-1,0.4-1.3,0.8c-0.1,0.5,0,1.1,0.2,1.5c1.1,1.9,2.3,3.7,3.4,5.6c2.3,4,3.6,8.5,3.8,13.1
	c-1.9-2.3-4-4.4-6.3-6.3c-0.8-0.6-1.7-1-2.7-1.3c-0.2,0-0.3,0.1-0.5,0.1l-0.3,0.2c-0.1,0.1-0.2,0.3-0.2,0.4
	c-0.1,1.9-0.2,3.8-0.2,5.6v15.6l-0.1,1.7l-0.1,0h-0.1c-1.5-1.2-2.8-2.4-4.2-3.7c-1.9-1.7-4-3.1-6.2-4.3c-0.6-0.3-1.2-0.5-1.9-0.5
	c-0.7,0-1.4,0.5-1.5,1.2v0.3c0.5,4.1,1.1,8.1,1.8,12.2c0.3,2.5,0.4,5,0.4,7.5h-0.1c-0.9-0.6-1.8-1.3-2.6-2.1
	c-2.2-1.9-4.7-3.5-7.3-4.7c-0.4-0.1-0.7-0.2-1.1-0.2h-0.2c-0.2,0.1-0.4,0.3-0.5,0.5c-0.2,0.4-0.2,0.8-0.2,1.2c0,5.9,0,11.7,0.1,17.6
	v0.1c-0.5-0.5-0.8-1-1.2-1.6c-1.4-2.4-3.1-4.6-4.9-6.7c-0.3-0.3-0.6-0.4-1-0.5c-0.2,0-0.4,0.1-0.5,0.2c-0.3,0.7-0.6,1.5-0.8,2.3
	c-0.9,3.4-1.7,6.9-2.2,10.5c-0.7,3.5-1.6,6.9-2.9,10.2c-1.4-2.5-3-4.9-4.7-7.2c-0.4-0.5-0.9-1-1.4-1.4h-0.2l-0.2-0.1h-0.2
	c-0.1,0-0.2,0.1-0.2,0.2l-0.1,0.1c-1.4,3.2-2.6,6.5-3.6,9.9c-1.1,3.4-2.6,6.7-4.6,9.8c-0.4,0.5-1,0.8-1.6,1
	c-2.7,0.7-5.5,0.9-8.3,0.7c-3.7-0.3-7.4-0.8-11-1.5l-12.4-2.1c-4.6-0.7-9.2-1.2-13.8-1.7c9-2.5,16.8-7.9,22.2-15.5
	c3.3-4.8,5.4-10.3,6-16.1c1.5-9.8-0.7-19.9-6.3-28.1c-2-2.9-4.5-5.5-7.3-7.6c-2.1-1.7-4.4-3.3-6.8-4.7c-5.2-3.2-10.6-6-16.1-8.5
	c-6.8-3.2-13.8-6-20.9-8.6l-6.4-2.5l0,0l-6.3-2.5h-0.1l-6.3-2.6h-0.1c-13.2-5.4-26.1-11.5-38.8-18.1c-6.9-3.6-13.5-7.7-19.8-12.3
	c-11.9-9-22.2-20-30.2-32.5c-13.6-20.7-21.3-44.7-22.4-69.5l-0.1-3.5v-0.2c-0.6-16.5,1-33,4.8-49c0.9,0.9,1.5,1.9,1.9,3.1
	c0.3,1.3,0.5,2.7,0.7,4.1c0.1,0.5,0.5,1,1,1.2c2.2,1.3,4.6,2.4,7,3.2c1.6,0.7,3.2,1.5,4.7,2.3c0.4,0.2,1,0.2,1.3-0.2
	c0.2-0.3,0.3-0.7,0.2-1c-0.2-1.6-0.3-3.1-0.5-4.7c-0.1-0.9,0.1-1.9,0.6-2.7c0.2-0.2,0.4-0.3,0.7-0.4c0.3,0.1,0.4,0.4,0.4,0.7
	c0.3,2.8,0.6,5.5,0.8,8.3c0.1,1.1,0.5,2.1,1.2,2.9l0.4,0.3c3.5,1.6,6.7,3.8,9.6,6.3c1.8,1.5,3.7,3,5.5,4.4c0.5,0.4,1.3,0.3,1.7-0.2
	c0.3-0.3,0.3-0.7,0.2-1c-0.4-1.5-0.8-2.9-1.3-4.4c-0.4-2.1-0.4-4.2-0.1-6.3c0.2-0.5,0.6-0.8,1.1-0.8l0.1,0.1l0.2,0.2
	c1.4,4.1,2.6,8.2,3.6,12.4c0.7,2.3,2.2,4.2,4.3,5.4c1.4,0.9,2.8,1.9,4.1,3.1c1.2,1.4,2.1,3.1,2.6,4.9c0.2,0.4,0.7,0.7,1.2,0.6
	c0.8,0.1,1.5-0.3,1.9-1c0.2-0.8,0.4-1.7,0.4-2.6c0.2-1.4,0.5-2.9,0.9-4.3c1-5.2,1-10.5-0.1-15.6c-1-3.8-1.6-7.7-2-11.6
	c-0.1-0.2-0.3-0.4-0.6-0.5c-1.1-0.3-2.2-0.4-3.3-0.3c-0.9,0-1.7-0.2-2.4-0.8c-0.5-0.6-0.5-1.4-0.1-2c0.4-0.5,1-0.6,1.5-0.5
	c1,0.2,2.1,0.1,3.1-0.2c0.3-0.2,0.5-0.6,0.4-0.9c-1.3-3.7-3.3-7.2-6.1-10c-2.1-2.3-4.4-4.4-6.9-6.3c-1.4-0.9-3.1-1.4-4.8-1.4
	c-0.4,0-0.7-0.3-0.8-0.7v-0.1c0.5-0.5,1.1-0.9,1.8-1.2c0.9-0.6,1.1-1.8,0.6-2.6c0,0,0,0,0,0l-0.1-0.2c-2.9-3-6.6-5-10.7-5.8
	c-1.5-0.2-2.9-0.2-4.4,0l-0.9,0.3c-1.6,0.9-3.2,1.8-4.7,2.8l0-0.1c0-1.4,0.1-2.8,0.2-4.2l-0.1-0.5c-0.3-0.3-0.7-0.6-1.1-0.6
	c-1.6-0.2-3.3-0.1-4.8,0.3c10.3-21.4,25.8-39.8,45.2-53.5c1.4-0.9,2.7-1.8,4.1-2.7c16.7-10.6,35.5-17.4,55.1-19.9
	C900.6,10.5,910,9.8,919.4,9.9z"/>
<path class="st0" d="M1102,0.4c-10.1,0.3-18.2,8.5-18.4,18.7v89.4c0.3,10.2,8.5,18.4,18.7,18.5h69.2v365.3
	c0.3,10.1,8.5,18.2,18.7,18.4h97.9c10.1-0.4,18.2-8.6,18.4-18.7v-365h72c9.8-0.5,17.7-8.4,18.1-18.2v-90
	c-0.3-10.1-8.6-18.2-18.7-18.3h-275.6H1102z M1273,285.1h0.1l0.1,0.1v0.1c0,0.6-0.1,1.2-0.4,1.7c-1.2,2.4-2.6,4.6-4.3,6.7
	c-0.6,0.9-1.1,1.8-1.5,2.7c-0.2,0.6-0.1,1.3,0.3,1.8c0.6,0.4,1.2,0.6,1.9,0.6c3.4,0.4,6.8,0.4,10.1-0.2c1.6-0.4,3.1-1,4.5-1.8
	c-0.6,1.7-1.3,3.4-2,5.1c-0.5,1-0.6,2.1-0.2,3.2c0.3,0.9,1,1.6,1.9,2c1.2,0.3,2.4,0.1,3.5-0.5c1.5-0.7,2.7-1.8,3.5-3.3l0.7-1.1
	c0.5,2.9,1.3,5.8,2.3,8.6c0.3,0.8,0.7,1.5,1.3,2.1c0.4,0.5,1,0.8,1.6,0.9h0.3v116.7c-3.4-1.6-6.7-3.5-9.8-5.6
	c-6.1-5-11.3-11.1-15.4-17.8c1.7,0.3,3.5-0.1,4.9-1.1c1-0.7,2-1.5,2.7-2.5c1.7-2.3,3.3-4.6,5.1-6.9c0.8-1,1.7-1.9,2.6-2.7
	c0.3-0.3,0.5-0.6,0.6-0.9c-0.1-0.2-0.1-0.3-0.2-0.5c-0.3-0.3-0.7-0.6-1.1-0.6h-0.2c-0.9-0.1-1.9-0.1-2.9,0c-0.9,0.1-1.8,0-2.6-0.3
	c-1.6-0.4-3.3-0.5-5-0.3c-1.7,0.3-3.4,1-4.7,2.2c-1.3,0.9-2.5,2-3.4,3.3c-0.5,0.9-0.9,1.8-1.2,2.8v-0.1c-0.6-2-1.1-4-1.5-6.1
	c-0.1-0.7,0.3-1.4,0.8-1.8c0.5-0.2,1-0.5,1.5-0.6c1.3-0.6,2.4-1.7,3-3c2.1-3.3,2.4-7.4,0.8-11c-1.1-2.3-2.4-4.5-4-6.5
	c-0.5-0.8-1.1-1.5-1.8-2.1c-0.1-0.1-0.3-0.2-0.4-0.2h-0.2c-0.5,0.5-0.9,1.1-1,1.8c-0.9,2.3-2.1,4.6-3.6,6.5c-0.9,1.3-1.8,2.6-2.4,4
	c-0.6,1.5-0.6,3.1,0,4.6c0.6,1.6,1.5,3.1,2.5,4.4c0.1,0.4,0.2,0.8,0.2,1.2c0.1,0.7,0,1.4-0.1,2.1l-0.1,0.2l-0.1,0.1h-0.1
	c-0.4-0.5-0.8-0.9-1.3-1.2c-1.1-0.9-2.4-1.6-3.7-2.1c-1.9-0.6-3.8-0.7-5.8-0.4c-1.4,0.1-2.9,0.1-4.3-0.2c-0.8-0.1-1.6-0.2-2.4-0.1
	l-0.3,0c-0.2,0.1-0.4,0.2-0.6,0.3c-0.1,0.1-0.1,0.2-0.2,0.3v0.2c0.1,0.7,0.4,1.3,0.9,1.7c1.9,2,3.6,4.2,5,6.5
	c0.7,1.2,1.6,2.3,2.7,3.2c0.9,0.7,1.9,1.2,2.9,1.5c2,0.6,4.2,0.9,6.3,0.8c0.9,0,1.9-0.3,2.7-0.7c0.6,1.8,1.3,3.5,2.1,5.1
	c0.7,1.2,1.4,2.3,2.2,3.4c-2.8-1.3-5.8-2.4-8.8-3.2c-4.2-1.3-8.4-2.1-12.8-2.5l-5.6-0.1c-2.1-0.2-4.3-0.6-6.3-1.2
	c-4.7-1.3-9.4-2.6-14.1-4.1l-0.2-0.1c0.8-0.6,1.5-1.3,1.9-2.3c0.3-1.2,0.3-2.5,0-3.8c-0.4-1.5-1.1-2.9-2-4.1
	c-1.2-1.7-2.5-3.4-3.9-4.9c-1.2-1.4-2.2-3-2.9-4.7c-0.4-0.9-0.9-1.8-1.5-2.7c-0.3-0.6-0.9-1-1.5-1.1l-0.3,0
	c-0.1,0.1-0.2,0.1-0.4,0.2c-0.1,0.2-0.2,0.4-0.3,0.6c-0.8,2.5-1.7,5-2.7,7.5c-0.5,1.5-0.7,3.1-0.5,4.7c0.4,2.8,1.7,5.3,3.6,7.4
	c0.1,0.1,0.2,0.2,0.2,0.3v0l-2.4-0.2c-2.9,0-5.5,1.8-6.4,4.6c-0.7,1.8-1,3.8-0.9,5.7c0.1,2.7,0.2,5.4,0.2,8c0.2,0.7,0.9,1.2,1.6,1.2
	c0.9-0.6,1.8-1.1,2.8-1.6c1.3-0.5,2.7-1,4.2-1.2c1.1-0.2,2.3-0.5,3.4-0.8c1-0.4,1.8-1.2,2.3-2.1c0.5-1,0.9-2,1.2-3l0.2-0.6
	c0-0.1,0.1-0.2,0.2-0.2l0.1,0c1.5,0.4,3,0.8,4.4,1.2c3.3,0.9,6.5,1.9,9.7,3c3,0.9,6,1.5,9.1,2c1.1,0,2.2,0,3.3-0.1
	c1.4-0.1,2.7-0.1,4.1,0.1c-1.2,0.5-2.4,1.3-3.4,2.1c-2.8,2.7-3.6,6.9-2.2,10.5c0.7,1.8,1.4,3.6,2.3,5.3c0.4,1.3,0.8,2.7,1,4.1
	c0.1,0.2,0.1,0.4,0.2,0.6c0.1,0.1,0.1,0.2,0.2,0.3h0.2h0.2h0.2c0.5-0.4,1-0.8,1.4-1.3c1.9-2.1,4-4.1,6.2-5.9c1-0.9,1.9-1.9,2.7-3
	c1.1-1.8,1.6-3.9,1.5-5.9c-0.2-1.7-1-3.4-2.2-4.6c-0.1-0.2-0.2-0.4-0.3-0.6c0.6,0,1.3,0,1.9,0.2c2.9,0.5,5.6,1.3,8.3,2.4
	c2.8,1.3,5.3,2.9,7.6,5c2.8,2.2,5.3,4.7,7.4,7.5c3.6,3.9,7.4,7.5,11.5,10.8c2.4,2,4.8,4,7.3,6V490h-0.2c-1.6,0.2-3.2,0.7-4.6,1.5
	c-3.9,2-8.2,3.1-12.5,3.2c-4,0.2-8,0.1-12-0.4c-3.8-0.4-7.6-0.4-11.4-0.1c-3.6,0.5-7.1,1.3-10.6,2.5c-4,1.2-8.1,1.7-12.2,1.2
	c-2.2-0.3-4.4-0.5-6.6-0.6c-1.3-0.2-2.6-0.5-3.9-1.1c-2.1-1.2-4.3-2.5-6.4-3.6c-2.1-1.1-4.3-2-6.5-2.6c-4.2-0.5-8.5-0.4-12.7,0.1
	c-1.2,0.1-2.3,0-3.5-0.3c-0.7-0.1-1.3,0-2,0.1c-1.5,0.5-3,0.9-4.5,1.4c-1.6,0.4-3.3,0.2-4.7-0.6l-1.3-0.7V343.7
	c1.3-0.3,2.7-0.9,3.9-1.5c2.7-1.4,5.3-3.1,7.7-4.9c7.2-5.2,13.9-11,20.1-17.4c2-2,4-4,6-5.9c0.5-0.5,1-1,1.6-1.4
	c-2.9,4.1-5.6,8.3-8,12.7c-2.3,3.7-4.2,7.6-5.7,11.6c-1,2.8-1.6,5.7-1.9,8.7c0,0.9,0.1,1.8,0.4,2.6c0.3,0.5,0.8,0.7,1.4,0.6
	c0.5-0.1,1-0.3,1.3-0.6c1.4-1.2,2.7-2.5,3.8-4c5.5-6.7,10.6-13.7,15.2-21.1c1.6-2.5,3.3-5,5-7.4l0,0c-0.9,3.7-1.8,7.5-2.7,11.2
	c-0.7,2.7-1.2,5.4-1.6,8.2c-0.1,1-0.2,2.1-0.2,3.2c0,0.5,0.2,1.1,0.5,1.5l0.2,0.1c0.4,0,0.7-0.1,1-0.3c1.2-1.2,2.2-2.7,2.9-4.3
	c1.1-2.4,2-4.8,2.8-7.4c1.8-5.5,3.6-11,5.5-16.4c0,0.1,0.1,0.1,0.1,0.2v0.1c0.4,3.9,0.9,7.8,1.5,11.7c0.2,1.3,0.5,2.5,0.9,3.7
	c0.2,0.6,0.6,1.1,1.2,1.5c0.4,0.2,1,0.1,1.3-0.2c1.1-1.2,1.8-2.6,2-4.1c0.5-2.5,0.7-5,0.7-7.5c-0.1-7.6-0.4-15.2-1-22.8
	c-0.1-1.9-0.1-3.8,0-5.7l0.1-0.2c0.1-0.1,0.2-0.1,0.4-0.1c1.8,0.2,3.4,1,4.8,2.2c1.5,1.2,3.3,2.1,5.2,2.6c1.6,0.3,3.3-0.1,4.7-1
	c2.2-1.5,4.4-3,6.6-4.5c1.2-0.8,2.4-1.5,3.8-2.1C1272.7,285.1,1272.8,285.1,1273,285.1z M1193.1,324.6c-3.1,2.9-6.1,5.8-9.2,8.8
	c-1.1,1.1-2,2.2-2.9,3.5v-6.1C1185.1,328.8,1189.1,326.8,1193.1,324.6L1193.1,324.6z M1199,308L1199,308c-6,4-11.9,8-17.9,11.9v-6.2
	c4.5-1,8.8-2.3,13.1-4c1.6-0.6,3.3-1.2,4.9-1.8L1199,308z M1206.4,294.4c-8,2.2-15.8,4.7-23.6,7.5l-1.8,0.7v-5.2
	c4.5-0.2,8.9-0.7,13.3-1.5c3.9-0.6,7.9-1.1,11.8-1.6L1206.4,294.4z M1181.4,277.1c1.5,1,3.2,1.8,5,2.2c4.5,1.3,9.1,2.4,13.7,3.2
	c2.7,0.5,5.5,1.1,8.2,1.7l0.1,0.1l-0.1,0c-3.7,0.9-7.5,1.5-11.3,1.8c-4.3,0.4-8.5,0.8-12.7,1.2c-1.1,0.1-2.1,0.3-3.2,0.6v-11.1
	L1181.4,277.1z M1377.9,9.9c4.9,0.2,8.8,4.1,9,9v89.4c-0.2,4.9-4.1,8.8-9,9h-81.1v150.5c-5,0.4-9.9,0.4-14.9,0l-2.7-0.1
	c1-1.5,1.6-3.3,1.7-5.2c0-1.5-0.4-2.9-1.2-4.1c-0.8-1.1-2-1.9-3.4-2.2c-1.9-0.5-3.8-0.6-5.8-0.4c-1.7,0.1-3.3,0.3-4.9,0.5
	c-1.5-1.9-2.5-4.2-3-6.6c-0.9-3.1-1.4-6.2-1.6-9.4c0-2.6,0-5.3,0.2-8c-0.1-2.6-0.9-5.1-2.3-7.2c-1.5-2.6-3.4-4.9-5.5-7
	c-3.2-3.3-6.7-6.5-10.3-9.3c-10.1-8-20.3-15.9-30.6-23.6c-2.7-2-5.8-3.5-9.1-4.4c-0.6-0.1-1.2-0.1-1.8,0.1c-0.3,0.1-0.5,0.4-0.6,0.7
	c-0.1,0.8,0.1,1.6,0.6,2.2c0.9,1.3,1.7,2.5,2.5,3.8l-0.1,0.1c-0.5,0-1,0-1.5-0.1c-3.1-0.7-6.1-1.6-8.9-2.9c-0.5-0.2-1-0.2-1.4-0.1
	c-0.1,0.1-0.3,0.1-0.4,0.2c-0.1,0.2-0.2,0.4-0.2,0.6c0.1,0.6,0.4,1.1,0.9,1.5c2.1,2.1,4.3,4.2,6.6,6.1c2.1,1.9,4,3.9,5.9,6.1
	c0.3,0.4,0.6,0.9,0.8,1.4c-1.8-0.1-3.6-0.3-5.4-0.5c-2.2-0.2-4.4-0.2-6.6-0.1c-0.6,0.1-1.2,0.2-1.8,0.5c-0.5,0.3-0.7,0.9-0.5,1.5
	c0.6,0.9,1.3,1.6,2.2,2.2c2.4,1.7,4.7,3.5,6.9,5.4c0.2,0.2,0.3,0.4,0.4,0.6c-0.1,0.1-0.1,0.1-0.2,0.2c-0.8,0.3-1.6,0.6-2.4,1
	c-0.6,0.3-0.9,0.9-0.9,1.5c0.1,0.7,0.5,1.3,1,1.8c1,0.9,2.1,1.6,3.2,2.2l11.5,5.5c1.2,0.6,2.3,1.2,3.5,1.9l0,0
	c-2.8,0.4-5.5,1-8.2,1.8c-0.5,0.2-0.9,0.6-1.2,1c-0.3,0.7-0.1,1.6,0.5,2.1c1,0.9,2.1,1.6,3.3,2.2c2.5,1.3,5.1,2.5,7.6,3.7
	c0.2,0.1,0.4,0.2,0.6,0.4c-0.2,0.2-0.5,0.4-0.8,0.4c-1.1,0.3-2,0.8-2.9,1.6c-0.4,0.5-0.4,1.1-0.1,1.6c0.4,0.5,0.9,0.9,1.5,1.1
	c1.8,0.7,3.7,1.3,5.7,1.7c2.1,0.5,4.3,1,6.4,1.6c0.4,1.6,0.9,3.1,1.4,4.6c0,0.1,0,0.3,0,0.4v0.1c-0.6,0.9-0.7,2-0.2,3
	c0.2,0.6,0.4,1.3,0.6,2c0,0.1,0,0.2,0,0.4c-0.7,0.6-1.3,1.3-1.9,2c-0.6,0.8-0.6,1.9,0,2.7c0.7,0.9,1.5,1.8,2.3,2.7l0.1,0.1
	c0,0.1,0,0.2,0,0.3c-0.3,0.6-0.7,1.1-1.1,1.6c-0.4,0.7-0.4,1.6,0,2.3c0.6,1,1.3,1.9,2.1,2.7c0.3,0.3,0.5,0.6,0.7,1v0.1
	c-0.1,0.7-0.1,1.5,0,2.2l-0.1,0.1l-0.2,0.1c-0.5,0.2-1,0.2-1.4,0.1c-3.5-0.6-7-1.6-10.3-2.9c-5.7-1.9-11.3-3.8-17-5.6
	c-2.8-1-5.7-1.6-8.7-1.7c-1.2,0-2.3,0.1-3.5,0.5c-0.2,0.1-0.4,0.3-0.3,0.5c0,0.5,0.3,1,0.8,1.2c1.2,0.8,2.5,1.5,3.8,2
	c5.9,2.7,11.9,5.3,17.9,7.8c0.9,0.3,1.7,0.9,2.4,1.5c0,0.1,0,0.2,0,0.2l-0.1,0.1c-0.9,0.1-1.8,0.1-2.7,0c-5.1-0.5-10.1-1.1-15.2-1.8
	c-4.2-0.5-8.5-0.7-12.8-0.7c-1.6,0-3.2,0.3-4.7,0.9l-0.3,0.2V119.8c8.8-2.5,17.8-4.5,26.8-5.9c3.9-0.6,7.8-0.9,11.8-1.1
	c3.8-0.2,7.5-0.3,11.3-0.5c0.9-0.1,1.9-0.2,2.8-0.4c0,0.5-0.2,0.9-0.3,1.3c-0.7,1.8-1.1,3.6-1.2,5.5c0.2,2.6,1.2,5.1,2.9,7.1
	c0.8,0.8,1.7,1.5,2.7,2.1c0.8,0.6,1.5,1.2,2.2,2c0.6,1.3,1.3,2.7,2,4c0.4,0.6,0.9,1.2,1.5,1.5c0.3,0.2,0.7,0.2,1,0
	c0.7-0.6,1.1-1.5,1.1-2.4c0.4-1.9,1-3.8,1.9-5.6c0.7-1.7,1.3-3.5,1.8-5.3c0.5-3.2-0.7-6.4-3-8.6c-1.2-0.9-2.4-1.7-3.7-2.4V111l0,0
	c4.1-0.1,8.2-0.1,12.4-0.1l1.7-0.1c0.6,1.5,1.7,2.7,3.1,3.5c1.5,1,3.2,1.6,5,1.8c1.6,0.1,3.1-0.4,4.5-1.2c1.4-0.9,2.7-1.8,4.1-2.7
	c2.6-1.6,5.5-2.9,8.4-3.7c0.6-0.2,1.3-0.4,1.9-0.7c0.4-0.6,0.3-1.5-0.2-2c-1.4-0.5-2.9-0.7-4.4-0.8c-1.4-0.1-2.8-0.4-4.2-0.7
	c-0.6-0.3-1.2-0.6-1.6-1.1c-1.2-1.3-2.5-2.6-3.8-3.9c-1.1-1.1-2.5-2-4-2.5c-3.2-0.8-6.6,0.2-8.9,2.6c-0.6,0.6-1,1.4-1.3,2.3
	c-0.1,0.4-0.1,0.7-0.1,1.1h-0.1c-0.8,0.2-1.6,0.2-2.4,0.2c-4.7,0.2-9.3,0.4-13.9,0.6c-2.4,0.1-4.8,0-7.2-0.2
	c-4.2-0.1-8.4,0.2-12.6,0.8c-1.8,0.2-3.5,0.2-5.3,0.2c-4.1,0.3-8.1,1-12.1,2.2c-1.8,0.5-3.7,1.1-5.5,1.7c-0.2,0-0.3,0-0.5,0
	c0-0.1-0.1-0.1-0.1-0.2c0.1-0.2,0.3-0.3,0.5-0.4c5.1-2.5,10.5-4.5,16.1-5.8c6.5-1.6,12.8-4.1,18.6-7.3c5.4-2.7,10.7-5.6,15.9-8.7
	c2.2-1.5,4.3-3.1,6.3-4.9c3.2-2.4,6.6-4.5,10.2-6.2c3.8-1.6,7.8-2.4,11.9-2.4c0.9-0.1,1.8-0.1,2.7,0.1v0.1l-1.8,1.8
	c-1.3,1.6-2,3.7-1.7,5.7c0.1,2.1,1,4.2,2.3,5.8c1.4,1.8,2.8,3.6,4.2,5.4c0.8,1,1.4,2.1,2.1,3.2c0.2,0.2,0.4,0.4,0.6,0.5
	c0.1,0,0.2,0,0.3,0c0.4-0.3,0.6-0.7,0.8-1.2c0.7-2,1.7-3.9,3-5.6c1.2-1.6,2.2-3.5,2.8-5.4c0.9-3.9-0.6-7.9-3.8-10.2l-0.7-0.5
	c1.9,0.1,3.8,0.4,5.6,1c0.8,0.2,1.7,0.3,2.6,0.3c4-0.1,8-0.4,12-1.1c3.7-0.5,7.3-1,11-1.3l0.1,0.1c0.3,1.1,0.5,2.2,0.7,3.3
	c0.4,1.4,1.3,2.6,2.5,3.4c2.2,0.8,4.4,1.8,6.5,2.8c1,0.7,2,1.5,2.9,2.3h0.2c0.9,0,1.6-0.7,1.7-1.7c0.4-2.7,0.9-5.5,1.5-8.2
	c0.4-2.2,0.2-4.6-0.7-6.7c-1.3-2.6-4.2-4.2-7.1-3.8c-0.1,0-0.2-0.1-0.3-0.1v-0.1c2.2-1.6,3.9-3.9,4.8-6.4c0.7-2.2,0.8-4.5,0.1-6.7
	c-0.5-2.2-0.9-4.4-1.2-6.6c-0.1-0.5-0.5-0.7-1-0.7c-0.7,0.2-1.2,0.5-1.6,1.1c-0.9,1.2-1.8,2.4-2.8,3.6c-1.2,1.4-2.5,2.7-3.9,3.8
	c-2,1.6-3.8,3.5-5.3,5.5c-1,1.5-1.4,3.4-1.2,5.2c0.2,0.9,0.7,1.6,1.3,2.2l0.1,0.2c-3,0.5-5.9,0.9-8.9,1.2c-3.2,0.4-6.5,0.8-9.8,0.9
	c-1.9,0-3.9-0.2-5.8-0.6c-3.7-0.6-7.5-0.7-11.3-0.4c-4.5,0.2-8.9,1-13.2,2.2c2.3-2.2,4.2-4.9,5.7-7.8c1.2,0.9,2.7,1.4,4.2,1.4
	c2.4,0.3,4.7,0.1,7-0.6c1.2-0.5,2.3-1.3,3.2-2.3c1.1-1.2,2.2-2.4,3.3-3.5c1.4-1.2,2.9-2.4,4.3-3.6c0.4-0.4,0.5-0.9,0.2-1.4
	c-0.2-0.3-0.6-0.5-1-0.6c-1.4-0.2-2.8-0.2-4.2-0.2c-1.2-0.1-2.4-0.4-3.5-0.7c-3.5-0.6-7.1,0.2-10,2.3l0,0c-0.1-0.4-0.1-0.9,0-1.3
	c0.1-0.7,0.3-1.4,0.5-2.1c1.7-1.5,3-3.2,3.9-5.3c0.5-1.6,0.4-3.3-0.3-4.8l-2.4-5.4c-0.7-1.8-1.2-3.6-1.5-5.5c-0.1-0.4-0.3-0.7-0.5-1
	c-0.3-0.2-0.8-0.1-1,0.2c-2.5,2.1-4.7,4.5-6.6,7.1c-2.7,4-2.7,9.1-0.2,13.2c0.7,0.9,1.5,1.6,2.6,2.1c0.8,0.6,1.1,1.7,0.7,2.6
	c-0.7,1.8-1.5,3.6-2.4,5.4c-0.2-2.1-1.1-4.1-2.6-5.7c-1.2-1.5-2.7-2.7-4.4-3.6c-1.4-0.7-2.8-1-4.3-0.9c-1,0-2,0-3,0.1
	c-1.1-0.2-2.1-0.4-3.2-0.6c-0.8-0.2-1.7-0.1-2.4,0.3c-0.1,0.2-0.2,0.4-0.2,0.6c0.5,0.9,1,1.8,1.7,2.6c1.5,2.4,2.8,4.9,3.9,7.5
	c0.7,1.3,1.4,2.6,2.4,3.8c1.4,1.5,3.3,2.4,5.3,2.5c-5.2,6-11.3,11-18.1,15c-6,2.8-12.3,5.3-18.6,7.3c-3.8,1.2-7.7,2.4-11.4,3.7
	c-4.7,1.8-9.4,3.7-14.1,5.6c-6.4,3-12.8,6.1-19.1,9.3c2.2-3.6,4.1-7.4,5.7-11.3c0.2-0.3,0.4-0.6,0.8-0.7c1.6-1.3,2.5-3.2,2.7-5.2
	l0.2-0.9c0.4,0.1,0.8,0.1,1.2,0c0.7-0.4,1.2-1,1.5-1.7c0.5-1,0.9-1.9,1.3-2.9c0.5,0.6,1.4,0.6,2,0c0,0,0,0,0,0
	c0.6-0.7,1.1-1.6,1.4-2.5c0.4-0.9,0.7-1.8,1-2.7l0.4-0.8c0.4,0.4,0.9,0.5,1.4,0.3c0.3-0.2,0.5-0.4,0.6-0.7c0.9-2,1.4-4.1,1.6-6.2
	c0.2-1.9,0.1-3.9-0.1-5.8v-0.1c0.5,0.1,1.1-0.2,1.3-0.7c0.1-1.2-0.1-2.5-0.5-3.7c-0.5-1.7-1.3-3.4-2.2-4.9c0.1-1.2,0.1-2.4,0.1-3.7
	c-0.3-1.3-0.9-2.5-1.8-3.5c0.5-0.4,0.9-0.8,1.4-1.1c1.3-1.1,1.9-2.8,1.7-4.4c1.2,1.6,1.7,3.5,1.4,5.5v1.3l0.1,0.1
	c0.3,0,0.7-0.1,0.9-0.3c2.2-1.9,3.4-4.8,3.4-7.7c0.2-3.4-0.8-6.8-3-9.5c0.4-1.6,0.5-3.2,0.5-4.8c-0.1-0.5-0.3-0.9-0.7-1.3
	c-0.5-0.2-1-0.4-1.5-0.4c-3.3-0.1-6.6,0.3-9.8,1.1c-2.4,0.9-4.6,2-6.6,3.5c-2.5,1.7-4.8,3.8-6.7,6.2c-1.2,1.6-2.2,3.3-2.9,5.1
	c-0.5,1.9-0.8,3.8-0.9,5.8c-0.2,1.3-0.6,2.6-1.3,3.8c-0.4,0.6-0.9,1.1-1.4,1.5l-0.3,0.4c-2.6,2.7-5.3,5.2-8.2,7.5
	c-1.9,1.5-3.7,3.2-5.3,5.1c-1.2,1.7-2.3,3.5-3.1,5.4c-0.8,1.5-1.6,3-2.5,4.5l-3.8,4.8c-1.2,1.7-2.1,3.6-2.6,5.6
	c-0.4,1.4-1,2.7-1.7,3.9c-0.6,1-1.1,2.1-1.5,3.2c-0.5,1.5-0.7,3.1-0.6,4.7l0.1,0.1c0.2,0.1,0.5,0,0.7-0.2c1.2-1.2,2.7-2,4.3-2.3
	c0.2,0.2,0.3,0.5,0.3,0.8c0.1,1.9,0.6,3.7,1.3,5.4c0.5,1,1.2,1.8,2.2,2.4c-1,0.8-1.7,2-2.1,3.3c-0.3,1.5-0.1,3,0.6,4.3v0.2
	c-0.2,0.4-0.5,0.7-0.8,1c-1.6,2.3-2.2,5.3-1.4,8.1h-45.7c-4.9-0.2-8.8-4.1-9-9V18.7c0.4-4.8,4.2-8.6,9-8.8H1377.9z"/>
<path class="st0" d="M184.4,1.6c-17.7,0.1-35.3,2.8-52.3,7.9C104.8,18.1,80.3,34,61.4,55.5C51,67.1,42.1,79.9,34.8,93.6
	c-7,13.1-12.9,26.8-17.4,40.9c-3,9.1-5.5,18.4-7.5,27.8l-0.7,2.8v0.3c-4.3,20.6-7,41.4-8,62.4c-1.5,27.2-0.9,54.6,1.8,81.7
	c2,18.9,5.5,37.6,10.5,56c3.8,13.9,8.8,27.4,14.8,40.4c1.6,3.5,3.3,7,5,10.4v0.1l2.5,4.7c1.4,2.5,2.9,5,4.3,7.5l4.5,7v0
	c10,15.4,22.4,29.2,36.6,40.8c20.6,16.4,45,27.3,71,31.7c12.9,2.3,25.9,3.3,39,2.9h2.7c15.9-0.3,31.6-2.5,47-6.4
	c8.4-2.3,16.7-5.2,24.6-8.8l4,4.1l0.3,0.3c4,4.1,8.1,8.2,12.3,12.1c3,3.1,6.1,6,9.4,8.9l1.8,1.7l0.2,0.2
	c11.5,10.5,23.7,20.1,36.6,28.8c9,5.4,20.7,2.7,26.5-6.1c0.8-1.3,1.5-2.7,2-4.1l27.9-78.9c3.1-8.6-0.3-18.3-8.1-23.1
	c-7.6-4.6-14.9-9.6-21.9-15c-1.5-1.2-2.9-2.5-4.3-3.8c-2.6-2.4-5.1-4.8-7.7-7.2c1.3-2.7,2.6-5.4,3.9-8.2l0.1-0.2
	c6.3-14.1,11.3-28.8,15-43.8c3.7-14.5,6.5-29.3,8.2-44.2c0.3-2,0.5-4,0.7-6v-0.2c2.2-20.9,3.1-41.9,2.7-62.9
	c-0.2-24.1-2.3-48.2-6.2-72c-2.1-12.3-4.9-24.6-8.4-36.6c-0.8-2.4-1.5-4.8-2.2-7.1c-0.5-1.4-1-2.8-1.5-4.2
	c-5.1-15.1-11.7-29.7-19.8-43.5c-2.5-4.2-5.2-8.3-8-12.3l-1.4-2l-0.2-0.2C314.2,51.5,297,35.7,277,23.9c-14.8-8.5-30.8-14.6-47.4-18
	c-10.9-2.3-22-3.6-33.2-4.1C192.4,1.6,188.4,1.6,184.4,1.6z M66.9,278.4c1.8,0.1,3.6,0.6,5.3,1.5c2.3,1.1,4.7,2,7,3
	c1.3,0.7,2.7,1.2,4.2,1.6c3.8,1.3,7.6,2.6,11.4,3.9c2.4,0.8,4.7,2,6.8,3.4c1.7,1.3,3.4,2.7,5,4.1c1.2,1.2,2.2,2.6,3,4
	c4,6,9.8,10.5,16.6,13.1c3.6,1.4,7.5,2.3,11.4,2.6c2.4,0,4.8-0.1,7.2-0.5c1.5-0.9,2.2-2.6,1.8-4.3c-0.2-0.7-0.7-1.2-1.4-1.5
	c-0.6-0.3-1.3-0.5-2.1-0.5c-3,0-6.1-0.4-9-1.2c-2.7-1.1-5.2-2.3-7.7-3.8c-1.2-0.8-2.3-1.7-3.4-2.6c-1.9-1.4-3.5-2.9-5-4.7
	c-0.2-0.2-0.3-0.5-0.2-0.8l0.2-0.2c0.1-0.1,0.3-0.2,0.5-0.3c0.6-0.1,1.2,0,1.8,0.2c0.8,0.9,1.6,1.7,2.6,2.4
	c3.7,1.9,7.9,2.3,11.9,1.1c4.2-1,8.1-3.3,11-6.5c1-1,2.2-1.8,3.5-2.5c0.5-0.2,1-0.4,1.6-0.5c0.2,14.3,0.9,28.6,2.2,42.9
	c0.7,11.4,2.1,22.7,4.2,34c1.3,6.7,3.2,13.3,5.5,19.7c1.9,5,4.6,9.8,7.8,14.1c2.4,3,5.2,5.6,8.5,7.6c2.5,1.5,5.3,2.6,8.2,3.3
	c-8,4.5-15.9,9.1-23.8,13.9c-5.6,3.5-11,7.4-16,11.7c-1.4,1.3-2.8,2.7-3.9,4.3c-0.9,1.3-1.5,2.9-1.5,4.5c0,0.6,0.3,1.1,0.8,1.5
	c0.2,0.1,0.3,0.2,0.5,0.2l1.6,0.4l0.1,0.1l-0.2,0.3c-0.2,0.3-0.5,0.7-0.8,0.9c-2.3,2.2-4.3,4.6-6,7.3c-0.6,1.1-1,2.4-1.2,3.7v0.3
	c0.1,0.6,0.4,1.1,0.9,1.3c0.2,0.1,0.5,0.1,0.8,0.1c1.3-0.2,2.5-0.6,3.5-1.3c4.4-2.5,8.8-5.1,13.1-7.7c2.9-1.7,5.8-3.2,8.8-4.7
	l0.3-0.1h0.1c-1.3,2.2-2.6,4.3-3.9,6.5c-1.2,2.1-1.9,4.6-1.8,7l0.1,0.2c0,0.3,0.2,0.6,0.5,0.8c0.5,0.2,1,0.2,1.4,0.1
	c1.2-0.5,2.4-1.2,3.4-2.1c1.9-1.7,3.7-3.4,5.5-5.2l1-0.9c0.2,1.6,0.6,3.1,1.2,4.5l0.2,0.3c0.1,0.1,0.3,0.2,0.5,0.3l0.3,0.1l0.2,0
	h0.3c0.3,0,0.6-0.2,0.8-0.3c1.5-1.1,2.8-2.5,3.9-4.1c1.4-2,2.7-4,3.8-6.2c1.5-2.6,3.2-5.1,5-7.5l0.4-0.5h0.1c0,0.1,0,0.1,0,0.2
	c-0.3,1.7-0.6,3.5-0.9,5.2c-0.1,1.3-0.1,2.5,0.2,3.8c0.1,0.5,0.4,1.1,0.7,1.5l0.3,0.2c0.5,0.3,1.1,0.4,1.6,0.2l0.4-0.2
	c0.9-0.6,1.7-1.4,2.2-2.4c1.4-2.3,2.6-4.7,3.7-7.2c1.2-2.5,2.4-5,3.6-7.6c1-2,2.3-3.8,3.9-5.3h0.1l0.1,0.1c0,0.9-0.1,1.7-0.3,2.6
	c-1,3.7-1.9,7.4-2.7,11.2c-0.3,1.7-0.3,3.4,0.1,5.1c0.2,0.7,0.7,1.3,1.4,1.6c1,0.2,2-0.1,2.8-0.7c1.1-1,1.9-2.2,2.5-3.5
	c0.6-1.3,1.3-2.6,1.9-3.9c0.5,1.7,1.3,3.4,2.4,4.8c0.4,0.3,0.9,0.5,1.4,0.6h0.5c1-0.3,1.9-0.9,2.4-1.8c1-1.5,1.7-3.1,2.2-4.8
	c0.5-1.5,0.9-3,1.4-4.5c0.8,1.5,1.9,2.7,3.2,3.7c1.4,1,3.1,1.5,4.8,1.4c1.5-0.1,2.7-1.2,3-2.7c0-0.9-0.2-1.9-0.6-2.7
	c-0.7-1.5-1.3-3.1-1.9-4.6c3.1,1.6,6.6,2.5,10.1,2.6c2.6,0.2,5.2,0.1,7.7-0.2c0.4-0.1,0.8-0.3,1.1-0.7l0.1-0.3
	c0.1-0.6,0-1.1-0.2-1.6c-0.9-1.5-1.9-2.9-3-4.2c-1.2-1.5-2.3-3.1-3.1-4.9c-0.1-0.3-0.1-0.5-0.2-0.8c0-0.3,0-0.5,0-0.8
	c0.1-0.1,0.3-0.1,0.4-0.1c0.4,0,0.7,0.2,1.1,0.3c3.1,1.6,6.1,3.5,8.9,5.5c1.3,0.9,2.8,1.6,4.4,2c2,0.4,4.1,0.2,5.9-0.8
	c1.5-0.7,3-1.5,4.5-2.4c1.2-0.6,2.6-0.9,4-0.9l0.2,0.1l0.1,0.2v0.2c0,3.4-0.3,6.7-0.7,10.1c-0.8,6.5-1.3,13-1.4,19.5
	c0.1,2,0.3,4,0.7,6c0.4,1.3,1.1,2.5,2,3.5l0.5,0.3c0.4,0.2,0.9,0.1,1.3-0.1c0.1-0.1,0.3-0.2,0.4-0.3c0.6-0.8,1.1-1.8,1.4-2.8
	c1-4.2,1.8-8.5,2.4-12.8c0-0.2,0.1-0.4,0.2-0.7c2.2,6.2,4.4,12.5,6.5,18.8c0.7,2,1.5,3.9,2.5,5.7c0.5,1,1.2,1.9,2,2.7
	c0.4,0.5,1,0.8,1.6,1c0.2,0,0.4-0.1,0.6-0.2l0.3-0.2c0.3-0.5,0.4-1.1,0.3-1.6c0-0.9,0-1.8-0.2-2.7c-0.4-3.2-1-6.4-1.8-9.5
	c-0.8-3.2-1.5-6.3-2.3-9.5v-0.1v-0.1c3,4,5.8,8,8.6,12.1c4.4,6.1,9.1,12,14.1,17.5c0.9,1,1.9,2,3,2.8c0.6,0.5,1.2,0.8,2,0.9h0.4
	c0.6-0.2,1.1-0.6,1.3-1.2c0.3-1.8,0.3-3.6-0.2-5.4c-0.7-3.5-1.9-6.8-3.6-9.9c-1.2-2.3-2.5-4.5-3.9-6.7c-2.6-4.4-5.5-8.6-8.7-12.7
	c0.4,0.2,0.8,0.5,1,0.8c4.7,4.2,9.4,8.4,14.1,12.6c3.3,2.8,6.8,5.5,10.4,7.9c3.9,2.9,8,5.6,12.2,8c1.5,0.8,3.1,1.4,4.8,1.6
	c0.7,0.1,1.4-0.1,2-0.5c0.7-0.7,1-1.8,0.7-2.8l-0.1-0.4c-1.1-2.1-2.5-4.1-4.3-5.6c-3.2-2.9-6.4-5.7-9.6-8.5
	c-0.2-0.1-0.3-0.3-0.5-0.5c2.6,1.5,5.1,3,7.7,4.6c5.2,2.9,10.6,5.6,16.1,8.1c2.8,1.3,5.6,2.5,8.5,3.6c0.7,0.3,1.4,0.4,2.2,0.2
	c0.2-0.1,0.3-0.1,0.5-0.2l0.2-0.2c0.1-0.2,0.2-0.5,0.3-0.8c0-0.3-0.1-0.5-0.2-0.8c-0.7-1.3-1.6-2.4-2.6-3.4
	c-2.6-2.8-5.5-5.3-8.6-7.5c-6.2-4.7-12.6-9-19.2-13.1c-3.6-2.2-7.1-4.4-10.7-6.7c-0.1-0.1-0.2-0.2-0.3-0.3
	c5.3,1.9,10.7,3.8,16.1,5.6c6.5,2.2,13.1,3.8,19.9,4.8c1.7,0.2,3.4,0.2,5.1,0c0.6-0.2,1.2-0.5,1.8-0.9c0.1-0.2,0.2-0.4,0.2-0.7
	c0-0.3,0-0.5-0.1-0.7c-0.9-1.3-2.1-2.3-3.4-3.1c-5.4-3.3-11-6.1-16.9-8.5c-9.9-3.9-20-7.3-30.2-10l-0.2-0.1
	c10.8,1.5,21.6,3.2,32.3,5.2c3.4,0.7,6.8,1.1,10.2,1.1c5,3.5,10.2,6.9,15.4,10c4,2.4,5.7,7.3,4.1,11.8l-27.9,78.9
	c-1.9,5.2-7.6,7.9-12.8,6c-0.8-0.3-1.6-0.7-2.3-1.2c-13.5-9.3-26.3-19.6-38.3-30.8c-9.1-8.5-18-17.2-26.6-26.2l-1.9-2.1
	c-13.6,7-28.2,11.8-43.2,14.3c-22.6,3.9-45.8,4.2-68.5,0.8c-18.8-3-36.8-9.6-53.1-19.3c-12.9-7.8-24.6-17.6-34.4-29
	c-8.7-9.9-16.4-20.7-22.8-32.2c-1.7-2.9-3.3-5.8-4.8-8.8c-8.1-16-14.5-32.8-19-50.1c-4-15.2-7-30.6-8.8-46.2
	c-1-7.8-1.7-15.6-2.2-23.5c10.7-0.7,21.4-2.2,31.9-4.4c2.8-0.7,5.6-1.5,8.3-2.6c4.2-1.5,8.3-3.1,12.5-4.8
	C64.7,278.3,65.8,278.3,66.9,278.4z M339.4,422l5,4.8c-5.2-1.1-10.4-1.8-15.7-2.4c-5-0.5-10.1-1.3-15-2.4l-0.2-0.1h0
	c3.8-0.6,7.6-1.2,11.4-1.7c3.5-0.5,7.1-1.1,10.6-1.7L339.4,422z M244.5,159.9c1.1,0,2.2,0.2,3.2,0.8c5.2,2.1,10.4,4.1,15.7,5.9
	c5.5,1.7,11.2,2.8,17,3.1c4.9,0.4,9.8,0.7,14.8,0.8c0.3,1.2,0.7,2.4,1.1,3.5c1.3,3.6,2.1,7.3,2.5,11.1c0.4,4.1,0.7,8.3,1,12.4
	c0.4,4.7,0.7,9.4,1.1,14.1c0.2,5.4,0.5,10.9,0.9,16.3c0.1,2.5,0.5,5,1.2,7.4c0.2,0.7,0.6,1.4,1.1,2c0.2,0.3,0.5,0.3,0.8,0.2l0.1-0.1
	l0.1-0.1c0.5-0.9,0.7-2,0.8-3c0.1-0.7,0.3-1.4,0.3-2.1l0.1-0.1c0.1,0.2,0.1,0.4,0.1,0.5c0.2,4.3,0.5,8.6,1,12.8
	c0.3,2.3,0.9,4.5,1.8,6.6c0.4,1,1.2,1.9,2.1,2.4c0.5,0.2,1.1,0.2,1.6,0.1c0.8-0.4,1.4-1.1,1.6-2c0.3-1.5,0.5-3.1,0.5-4.7
	c0.2-6,0.4-12,0.5-18c0-6.2-0.1-12.4-0.3-18.6c-0.3-4.6-0.5-9.1-0.7-13.7c-0.4-4.7-0.6-9.3-0.5-14c0-1,0.1-2,0.3-3v-0.1h0.1
	c1.1,1.4,2.1,2.9,2.9,4.4c0.5,0.9,1.2,1.7,1.9,2.4h0.2c0.8,0.1,1.6-0.3,1.9-1c0.4-0.7,0.6-1.4,0.5-2.2c0.1-1.8-0.2-3.5-0.9-5.1
	c-0.2-0.7-0.5-1.4-0.9-2.1c-0.5-0.5-0.9-1-1.3-1.5c0.4-0.9,0.7-1.9,1-2.8c0.2-1.3,0.3-2.6,0.1-3.9c3-0.5,5.9-1,8.9-1.6
	c4.4-0.7,8.9-1.2,13.3-1.3c3.4-0.1,6.8-0.3,10.1-0.4c1.5,0.2,2.9,0.6,4.2,1.3l1.2,0.6c3.6,18,5.9,36.3,7,54.6
	c2.2,33.1,1.1,66.4-3.1,99.3c-2.2,16.2-5.6,32.2-10,47.9c-4.1,14.3-9.5,28.1-16.1,41.5h-0.4l-10.5,1.2c-6.1,0.6-12.2,1-18.3,1.3
	c-0.7,0-1.4-0.1-2-0.4c0-0.1,0.1-0.1,0.1-0.2c1.1-0.8,2.4-1.4,3.7-1.7c7.5-2.4,14.9-4.9,22.3-7.6c0.8-0.3,1.6-0.7,2.3-1.2l0.1-0.1
	c0.2-0.3,0.2-0.6,0.1-0.9c-0.5-0.4-1.1-0.6-1.7-0.6c-3.6-0.5-7.2-0.2-10.6,0.6c-3.5,0.8-7.1,1.7-10.6,2.6c-5.3,1.3-10.6,2.6-16,3.9
	c-2.4,0.5-4.8,0.9-7.2,1.1c-0.4,0-0.8-0.2-1.1-0.5c0.1-0.7,0.2-1.4,0.1-2.1c0-0.2,0.1-0.4,0.3-0.5c1.1-1,2.1-2.1,3.1-3.2
	c0.6-0.8,0.4-2-0.3-2.6c-0.3-0.4-0.6-0.8-0.9-1.2c0-0.1,0-0.2,0-0.3c1-0.8,1.9-1.7,2.9-2.6c0.4-0.4,0.6-1,0.6-1.5
	c-0.1-0.7-0.5-1.3-1.1-1.7c-0.5-0.4-1-0.9-1.5-1.4c0-0.7,0.2-1.3,0.5-1.8c0.2-0.5,0.4-1.1,0.5-1.7c0-0.6-0.2-1.2-0.5-1.7
	c0-0.3,0.1-0.7,0.2-0.9c0.6-1.3,1.2-2.6,1.6-4c4.2-0.7,8.3-1.4,12.5-2.3c1-0.2,1.9-0.6,2.8-1.1l0.3-0.3c0.4-0.5,0.3-1.1-0.1-1.6
	c-0.3-0.3-0.6-0.6-1-0.7c-0.9-0.4-1.9-0.9-2.8-1.2l-0.1-0.1l-0.1-0.1c1.2-0.6,2.5-1.1,3.8-1.5c2.8-1,5.6-2.1,8.3-3.4
	c0.6-0.4,1.2-0.8,1.7-1.4l0.1-0.2c0.2-0.7-0.1-1.5-0.8-1.8c-0.6-0.4-1.2-0.6-1.9-0.8c-2.6-0.7-5.3-1.2-8-1.7c4-1.7,8-3.3,12.1-4.7
	c2.6-0.9,5.2-2,7.7-3.2c0.9-0.5,1.7-1.2,2.2-2.1c0.3-0.7,0-1.6-0.8-1.9c-0.7-0.3-1.4-0.6-2.1-0.8c-0.3-0.1-0.6-0.3-0.9-0.5
	c0,0,0-0.1,0-0.1c0.7-0.7,1.5-1.3,2.3-1.8c2.5-1.6,5-3.1,7.5-4.5c0.6-0.3,1.1-0.9,1.4-1.5v-0.2c0-0.4-0.2-0.7-0.4-0.9
	c-0.7-0.4-1.6-0.6-2.4-0.7c-3.5-0.3-7.1-0.2-10.6,0.1c-0.9,0.1-1.9,0.1-2.8,0.1c0.4-0.6,0.8-1.2,1.4-1.7c3.7-3.2,7.6-6.2,11.7-8.9
	c1.2-0.9,2.4-1.9,3.5-3c0.1-0.2,0.1-0.4,0.1-0.6c-0.1-0.5-0.6-0.9-1.2-0.8l-0.4,0c-2.1,0.5-4.1,1.1-6.1,1.8c-2,0.5-4,0.8-6,1
	c-0.2,0-0.3-0.1-0.5-0.1v-0.1c1.1-1.3,2.2-2.6,3.3-3.9c0.4-0.5,0.5-1.1,0.5-1.8l-0.1-0.3c-0.3-0.3-0.7-0.5-1.2-0.5
	c-0.6-0.1-1.3-0.1-1.9,0.1c-3.9,0.9-7.5,2.4-10.9,4.5c-2.5,1.4-4.9,2.9-7.4,4.5l-6.7,4.1c-6.8,4.1-13.5,8.4-20.2,12.7
	c-2.6,1.6-5.1,3.3-7.5,5.1c-3.5,2.6-6.7,5.4-9.7,8.5c-1.2,1.4-2.3,3-3.2,4.7c-0.7,1.5-1,3.1-1,4.8c0.1,2.3,0.1,4.6-0.1,6.9
	c-0.5,3.9-1.4,7.7-2.9,11.3c-0.7,1.5-1.6,3-2.8,4.1c-3.6-0.7-7.3-1-11-0.7c-1.8,0.2-3.4,0.9-4.8,2c-1.3,1.2-1.9,3-1.8,4.7
	c0,1.2,0.4,2.4,1,3.4l0.7,1.2c-6.1,0.2-12.1,0-18.2-0.5c2.4-2.6,4.5-5.4,6.2-8.5c2.1-3.7,3.9-7.7,5.2-11.8
	c2.1-6.3,3.7-12.7,4.8-19.2c1.4-7.5,2.3-15,2.8-22.5c1.8-20.5,2.7-41,2.8-61.5c0.3-22.7-0.1-45.3-1.4-68c-0.7-8.5-1.4-17-2.1-25.4
	c-0.7-7.2-1.7-14.4-3.1-21.4c2.4-1,4.9-2,7.2-3.2C240.1,160.2,242.3,159.8,244.5,159.9z M194.3,130.6c6,0,11.7,2.6,15.6,7.2
	c1.9,2.1,3.4,4.5,4.7,7c1.9,3.7,3.4,7.5,4.6,11.5c1.5,5.1,2.7,10.2,3.5,15.5c1.2,7.2,2,14.5,2.6,21.8c0.5,6.2,1,12.6,1.5,18.8
	c1.2,22,1.6,44,1.3,66c-0.1,12.6-0.4,25.2-1,37.8c-0.6,8.5-1.2,16.8-1.8,25.3c-0.8,11.2-2.6,22.3-5.5,33.2
	c-1.3,4.7-3.1,9.2-5.2,13.6c-1.6,3.1-3.7,5.9-6.1,8.5c-4.1,3.9-9.8,6-15.5,5.5c-5.6-0.3-10.8-2.9-14.2-7.3
	c-3.2-3.9-5.6-8.3-7.3-13.1c-1.9-5.2-3.4-10.6-4.5-16c-1.2-5.7-2.1-11.4-2.8-17.2c-2-18.5-3.3-37.1-3.7-55.8c0-4.9-0.1-9.8-0.2-14.7
	c-0.3-22.5,0.2-44.9,1.4-67.3c0.7-10.2,1.6-20.3,2.7-30.4c1.1-9.3,3.1-18.5,6-27.4c1.3-3.8,3.1-7.5,5.2-10.9
	c1.8-2.9,4.1-5.4,6.8-7.5C185.8,131.7,190,130.5,194.3,130.6z M151.6,218.5c-0.9,21-1.2,42-1,63c-2.3-0.3-4.5-0.7-6.7-1.4
	c-5-1.3-10.1-1.2-15.1,0.1c-1.8,0.6-3.6,1.4-5.2,2.4c-0.8,0.7-1.6,1.6-2.3,2.5c-0.7,0.8-1.7,1.3-2.8,1.3c-3.1,0.1-6.2-0.4-9-1.6
	c-2.5-1.3-5-2.7-7.6-4c-2.1-1-4.3-1.9-6.5-2.4c-2.8-0.8-5.5-1.7-8.2-2.8c-2-0.9-3.9-2-5.8-3.2c-2.9-1.8-5.7-3.6-8.6-5.4
	c-0.4-0.3-0.8-0.6-1.1-1c0.8-1.7,1.8-3.2,2.9-4.7c1.3-1.7,2.5-3.5,3.7-5.2c5.4-5.9,10.5-12.1,15.4-18.4c1.6-2,3.3-3.8,5.2-5.6
	c1.7-2,3.8-3.6,6.3-4.7c8.5-2.5,17.1-4.5,25.8-5.8c4.6-0.9,9.2-2,13.8-3.3c2.2-0.5,4.5-0.9,6.7-1.3L151.6,218.5z M191.9,11.2
	c16.8,0.2,33.4,2.8,49.5,7.6c29.3,9,55,26.8,73.8,51c10.9,13.9,19.9,29.2,26.7,45.6c4.9,11.4,8.8,23.2,11.9,35.3
	c-8-0.2-15.9-0.1-23.9,0.1c-3.9,0.2-7.7,0.5-11.5,0.8c0.6-1.7,1-3.5,1.1-5.3c0-0.3,0.1-0.6,0.3-0.9c0.4,0,0.7,0.1,1.1,0.3
	c1.4,0.5,2.7,1.3,3.8,2.4l0.2,0.1c0.1,0,0.3,0,0.4,0l0.1-0.1c0.1-0.5,0.1-1,0-1.4c-0.1-2.1-0.7-4.1-1.7-5.8
	c-0.8-1.4-1.5-2.8-2.1-4.2c-0.5-1.7-1.1-3.4-1.8-5.1c-1-1.8-2.2-3.5-3.6-5c-1.1-1.2-2-2.4-2.9-3.8c-1.2-2.2-2.4-4.5-3.5-6.8
	c-1.1-2.1-2.6-3.9-4.3-5.5c-2.4-2.2-4.9-4.3-7.4-6.3c-1.8-1.6-3.5-3.3-5.1-5.1c-0.1-0.3-0.4-0.5-0.6-0.6c-1.3-1.4-2.1-3.1-2.3-5
	c-0.2-1.8-0.4-3.6-0.7-5.4c-0.4-1.7-1.1-3.3-2.1-4.8c-1.9-3-4.3-5.7-7.2-7.8c-2.1-1.6-4.3-3-6.6-4.1c-2.3-1-4.7-1.7-7.2-1.9
	c-1.9-0.2-3.8-0.3-5.7-0.3c-0.6,0-1.1,0.2-1.7,0.4c-0.6,0.7-0.9,1.6-0.7,2.4c0.1,1.4,0.4,2.8,0.6,4.2c-1.9,2.2-3,4.9-3.2,7.8
	c-0.2,1.7-0.1,3.5,0.2,5.2c0.5,2,1.5,3.9,3,5.3c0.3,0.3,0.7,0.6,1.1,0.8c0.1,0,0.2,0,0.3,0l0.1-0.1c0.1-0.6,0.1-1.2,0-1.9
	c-0.2-1.5,0.1-3.1,0.9-4.4c0.2-0.4,0.4-0.8,0.7-1.1c-0.1,1.4,0.2,2.7,1,3.8c0.7,0.8,1.6,1.6,2.5,2.2l0,0.1c-0.2,0.4-0.4,0.7-0.7,0.9
	c-0.6,0.9-1,2-1.2,3.1c0,1.3,0,2.5,0.1,3.8c-0.2,0.4-0.5,0.9-0.8,1.3c-0.9,1.8-1.6,3.7-2.1,5.6c-0.2,0.9-0.2,1.7-0.1,2.6
	c0.3,0.4,0.8,0.6,1.3,0.5h0.1c-0.5,4-0.1,8,1,11.9c0.2,0.8,0.7,1.6,1.3,2.2c0.4,0.3,0.9,0.2,1.2-0.1c0.1-0.1,0.2-0.2,0.4-0.2
	c0.6,1.5,1.1,3,1.7,4.6c0.3,0.9,0.9,1.6,1.6,2.2c0.4,0.3,1,0.3,1.4,0l0.4-0.2c0.4,0.9,0.8,1.7,1.2,2.6c0.4,0.9,1,1.7,1.7,2.3
	c0.5,0.2,1,0.2,1.5,0.1c0.2,1.2,0.5,2.4,0.8,3.6c0.6,1.4,1.7,2.7,3,3.5c0.2,0.3,0.4,0.6,0.5,1c1.5,3.7,3.3,7.3,5.4,10.7
	c-4.4,0.2-8.9,0.1-13.3-0.4c-5.1-0.6-9.9-2.6-13.9-5.8c-6.5-4.9-12.1-11-16.4-17.9c-4.1-6.1-8.3-12-12.8-17.8l-3.6-4.8
	c-0.7-1-1.5-2-2.4-2.9c-1.5-1.4-3-2.9-4.5-4.3c-0.4-0.5-0.8-1-1-1.6c-0.8-1.4-1.7-2.7-2.7-3.9c-1.5-1.6-2.9-3.3-4.4-4.9
	c-2.4-2.4-5-4.7-7.7-6.7c-2.9-2.7-5.4-5.8-7.4-9.3c-0.6-1-1.2-2-1.9-2.9c0.7-0.4,1.3-1,1.6-1.8c0.9-2,1.6-4.1,1.9-6.3
	c0.1-2.2-0.1-4.4-0.5-6.6c-0.5-1.5-1.2-3-2.1-4.4c-5.3-9.1-9.5-18.8-12.5-28.9l-0.3-0.8l-0.1-0.1c-0.5-0.2-1-0.1-1.5,0.2
	c-0.3,0.7-0.5,1.5-0.5,2.2c-0.3,2.1-0.8,4.1-1.6,6c-1,2.1-2.3,4.1-3.8,5.8c-2.7,3.2-5.1,6.6-7.3,10.2c-1.6,2.8-2.5,6-2.6,9.3
	c-0.1,5.7,2.8,11.1,7.7,14.2c3.2,2.2,6.9,3.5,10.7,4c1.1,0,2.3,0.1,3.4,0c0.5,0.6,0.9,1.3,1.2,2.1c1.3,2.7,2.8,5.2,4.5,7.6
	c1.5,1.9,3.3,3.6,5.2,5.1c1.6,1.3,3.1,2.8,4.4,4.4c0.2,0.3,0.3,0.6,0.4,0.9c-2.5-1.1-5.1-1.7-7.8-1.9c-4.1-0.5-8.2-1-12.3-1.5
	c-7.2-1-14.3-2.6-21.2-4.7c-3.9-1.1-7.6-2.4-11.4-3.9c-0.2-0.1-0.4-0.4-0.4-0.7c-0.6-3.8-2.7-7.2-5.8-9.4c-1.9-1.1-3.9-1.9-6.1-2.4
	c-2.9-0.4-5.9-0.2-8.8,0.4c-2,0.4-4,0.7-6.1,0.8c-3.6-0.1-7.2-0.2-10.8-0.2c-2.6-0.2-5.2-0.6-7.8-1c-0.6,0-1.1,0-1.7,0.2
	c-0.2,0.2-0.3,0.4-0.3,0.7c-0.1,0.4-0.1,0.7-0.1,1.1l0.1,0.1c3,2.1,5.7,4.7,7.8,7.7c1.8,2.6,3.7,5.1,5.5,7.6c3,3.8,7,6.6,11.6,8
	c4.5,1,9.1,0.6,13.3-1.4c1.6-0.5,3.1-1.4,4.4-2.5c2.2,0.8,4.4,1.4,6.6,1.9c7.4,1.9,14.9,3.8,22.3,5.6c3.2,0.7,6.4,1.3,9.6,1.8
	c7,1.3,14,3,20.9,5c2.6,1.1,4.9,2.8,6.7,4.9c1.3,1.4,2.7,2.8,4,4.2c2.3,2.7,4.5,5.4,6.6,8.2c3.4,4.2,7,8.3,10.6,12.4
	c1.7,2.4,3.4,4.8,5.1,7.2c0.7,0.9,1.2,2,1.7,3c-0.7,0.7-1.5,1.4-2.4,1.9l-7.1,4.4c-1.9-6.8-4.9-13.2-8.9-19c-3-4.3-7-7.8-11.7-10.2
	c-10.4-5.2-22.8-4-32,3.1c-2.6,2.1-4.9,4.6-6.8,7.4c-2.3,3.1-4.1,6.5-5.6,10c-2.5,5.9-4.5,12.1-5.7,18.4c-2,9.2-3.3,18.5-4,27.9
	c-0.4,5-0.8,10-1.2,15c-6.4,2.7-13.1,4.8-19.9,6.2c-5.1,0.8-10.3,1.5-15.5,2c-1.9,0.2-3.8,0.5-5.6,0.8c-1.5,0.3-2.9,0.7-4.3,1.4
	v-0.2c0.5-0.9,1.2-1.8,2-2.5c1.9-1.8,3.9-3.6,5.9-5.4c2.4-2.6,4.4-5.6,5.9-8.9c0.4-0.9,0.9-1.7,1.4-2.5l0.2-0.1c1.3,0,2.6,0,3.9-0.1
	c4.8-0.7,9.3-2.9,12.9-6.2c4.2-4.4,5.6-10.9,3.5-16.6c-0.9-2.4-2-4.6-3.5-6.6c-2.1-2.9-4.2-5.8-6.5-8.6c-1.5-2-2.4-4.3-2.8-6.8
	c-0.2-1.6-0.5-3.3-0.9-4.9c-0.1-0.2-0.2-0.4-0.3-0.6c-0.7-0.2-1.4-0.2-2.1,0.2c-0.7,1.8-1.3,3.6-1.9,5.5c-2.9,8.7-6.8,17.1-11.6,25
	c-1.3,2.6-1.9,5.6-1.6,8.5c0,0.9,0.1,1.7,0.4,2.6c0.4,1.6,1,3.1,1.7,4.5c0.4,0.5,0.8,0.9,1.3,1.2c-1.1,1.8-2.3,3.6-3.4,5.4
	c-2.2,3.2-4.9,6.1-8,8.4c-2.5,2-4.9,4.3-7,6.7c-1.6,1.6-3,3.4-4.3,5.3c-0.4,0.6-0.7,1.2-1,1.9c-0.8,1.1-1.8,2.1-2.9,3
	c-1,0.9-2,1.9-2.9,2.9c-3.6,4.7-7.1,9.3-10.7,14c-3.3,4.6-6.6,9.4-9.8,14.1c-4.5,6.1-10.1,11.3-16.5,15.4c-3.8,2.1-8,3.3-12.3,3.5
	c-4.7,0.3-9.4,0.3-14.1,0c-4-0.4-8.1-1-12.1-1.6c-0.9-28,0.6-56.1,4.5-83.8c3.1-21.4,8.4-42.4,15.8-62.7c5.6-15,12.9-29.3,21.5-42.8
	c7.1-10.9,15.4-20.9,24.7-30c19.9-19.4,45-32.6,72.2-38.3c12.9-2.7,26.1-4,39.3-3.9L191.9,11.2z"/>
<path class="st0" d="M199.9,674.2c6,0,11.7,2.6,15.5,7.2c1.9,2.1,3.4,4.5,4.7,7c1.9,3.7,3.4,7.5,4.6,11.5c1.6,5.1,2.7,10.3,3.5,15.5
	c1.2,7.2,2,14.5,2.6,21.8c0.5,6.2,1,12.6,1.5,18.8c1.2,22,1.6,44,1.3,66c-0.1,12.6-0.4,25.2-1,37.8c-0.6,8.5-1.2,16.8-1.8,25.3
	c-0.8,11.2-2.6,22.3-5.5,33.2c-1.3,4.7-3.1,9.2-5.3,13.6c-1.6,3.1-3.7,5.9-6.1,8.5c-4.1,3.9-9.7,5.9-15.4,5.5
	c-5.6-0.2-10.8-2.9-14.3-7.3c-3.2-3.9-5.6-8.3-7.3-13.1c-1.9-5.2-3.4-10.6-4.5-16c-1.2-5.7-2.1-11.5-2.7-17.2
	c-2-18.5-3.2-37.1-3.7-55.8c0-4.9-0.1-9.8-0.2-14.7c-0.3-22.5,0.2-44.9,1.4-67.3c0.7-10.2,1.6-20.3,2.7-30.4
	c1.1-9.3,3.1-18.5,6-27.4c1.3-3.8,3.1-7.5,5.2-11c1.8-2.9,4.1-5.4,6.8-7.5C191.4,675.4,195.6,674.1,199.9,674.2z M190,545.3
	c-17.7,0.1-35.4,2.8-52.3,7.9c-27.3,8.6-51.8,24.4-70.8,45.9c-10.3,11.6-19.2,24.4-26.5,38.1c-7,13.1-12.8,26.8-17.4,40.9
	c-3,9.1-5.5,18.4-7.5,27.8l-0.7,2.8l-0.1,0.3c-4.3,20.6-7,41.4-8,62.4c-1.5,27.2-0.9,54.6,1.8,81.7c2,18.9,5.5,37.6,10.5,56
	c3.8,13.8,8.8,27.4,14.8,40.4c1.7,3.5,3.4,7,5.1,10.4v0.1l2.5,4.7l4.4,7.6l4.5,7h0c10,15.4,22.3,29.2,36.5,40.8
	c20.6,16.4,45,27.3,71,31.7c12.9,2.3,25.9,3.3,39,2.9h2.6c15.9-0.3,31.7-2.5,47.1-6.4c8.4-2.3,16.7-5.2,24.6-8.8l4,4.1
	c0.1,0.1,0.2,0.2,0.3,0.3c4,4.1,8.1,8.2,12.3,12.1c3,3.1,6.1,6,9.4,8.9l1.8,1.7l0.2,0.2c11.5,10.5,23.7,20.1,36.6,28.8
	c9.3,5.5,21.3,2.5,26.9-6.8c0.7-1.1,1.2-2.2,1.6-3.4l27.8-78.8c3.1-8.6-0.3-18.3-8.1-23.1c-7.6-4.6-14.9-9.6-21.9-15
	c-1.5-1.2-2.9-2.5-4.3-3.8c-2.5-2.4-5.1-4.8-7.7-7.2c1.3-2.7,2.6-5.4,3.9-8.2l0.1-0.2c6.3-14.1,11.3-28.8,15-43.8
	c3.7-14.5,6.5-29.3,8.2-44.2c0.3-2,0.5-4,0.7-6v-0.2c2.2-20.9,3.2-41.9,2.8-62.8c-0.2-24.1-2.3-48.2-6.2-72
	c-2.1-12.3-4.9-24.6-8.4-36.6c-0.8-2.4-1.5-4.8-2.2-7.1c-0.5-1.4-1-2.8-1.5-4.2c-5.1-15.1-11.7-29.7-19.8-43.5
	c-2.5-4.2-5.2-8.3-8-12.3l-1.4-2l-0.2-0.2c-13.4-18.9-30.6-34.7-50.6-46.4c-14.8-8.5-30.8-14.6-47.4-18c-10.9-2.3-22-3.6-33.2-4.1
	C198,545.3,194,545.2,190,545.3z"/>
<path class="st0" d="M562.9,658c5.5,0,11,0.6,16.4,1.8c2.1,0.5,4.1,1.3,5.9,2.5c1.8,1.2,3.3,2.8,4.5,4.5c4.8,6.2,7.9,13.5,9,21.3
	c2.2,13.7,1.6,27.7-1.7,41.2c-1.2,4.6-3.2,8.9-5.8,12.9c-3.5,4.8-8.6,8.2-14.5,9.5c-3.1,0.8-6.3,1.2-9.5,1.3l-2.9,0.1H543V658H562.9
	z M426.6,544c-9.9,0.3-17.9,8.4-18.1,18.3V1036c0.3,9.9,8.2,17.9,18.1,18.2H525c10-0.3,17.9-8.4,18.1-18.4V867.2h16l54.8,173.7
	c2.3,7.7,9.3,13,17.3,13.3H738c10-0.4,18-8.6,18-18.6c0-2.4-0.4-4.8-1.3-7L679.2,836c20.6-15.2,36.4-36,45.5-59.9
	c4.7-12,8-24.6,9.8-37.3c4.2-27.6,3.3-55.7-2.7-82.9c-3.5-15.3-9.1-30-16.6-43.8c-4.4-8-9.7-15.6-15.6-22.6
	c-10.4-11.9-22.8-22-36.6-29.6c-6.1-3.4-12.5-6.2-19.1-8.4c-7.2-2.4-14.7-4-22.3-4.7c-6.1-0.8-12.3-1.4-18.5-1.8
	c-12.3-0.7-24.6-1-36.9-1H426.8L426.6,544z"/>
<path class="st0" d="M912.4,544c-18.2,0.2-36.2,3.4-53.3,9.3c-24.3,8.8-45.7,24.1-61.8,44.3c-15.5,19-26.1,41.5-31,65.5
	c-4.9,23.1-5.4,46.8-1.5,70c3.9,22,12.9,42.8,26.2,60.9c2.1,2.9,4.3,5.7,6.6,8.4c9.4,11.2,20.7,20.7,33.4,28
	c6.2,3.7,12.5,7.1,19,10.2l4.1,2l0.3,0.1l7.7,3.6c0.2,0.1,0.4,0.2,0.5,0.3l8.2,3.7l0.2,0.1l0.2,0.1l7.9,3.3l0.2,0.1l0.2,0.1
	c9.4,3.9,18.9,7.7,28.5,11.3c7.2,2.9,14.3,6.1,21.2,9.7c4.1,2.2,7.9,4.7,11.6,7.5c5.5,4.6,9,11.3,9.6,18.5
	c0.6,5.7-0.3,11.5-2.7,16.7c-2.2,4.4-5.5,8.1-9.7,10.8c-4.1,2.7-8.7,4.5-13.5,5.3c-8.9,1.7-18,1.1-26.6-1.7
	c-7.4-2.7-13.7-7.5-18.3-13.9c-3.6-4.8-6.6-10.2-8.8-15.8c-3-7.1-5.2-14.5-6.7-22c-2.1-10.1-12-16.5-22-14.5
	c-0.6,0.1-1.2,0.3-1.8,0.5l-82.2,25.2c-9.6,3-15.2,13-12.6,22.7c4.6,18.6,11.4,36.6,20,53.7c6.3,12.1,13.9,23.5,22.7,33.9
	c20.9,24.2,49.2,41,80.5,47.7c12.1,2.7,24.3,4.2,36.7,4.5c22.1,0.8,44.2-1.8,65.5-7.9c56.7-16.8,99-64.4,108.9-122.8
	c3.8-21.4,4-43.3,0.5-64.7c-5.5-33.4-22.6-63.7-48.3-85.7c-5.7-4.7-11.8-9-18.2-12.9c-11.5-7-23.4-13.2-35.7-18.8
	c-8.2-3.7-16.6-7.3-25-10.6c-14.3-5.8-28.3-12.2-42-19.3c-4-2.2-7.9-4.6-11.7-7.2c-2.2-1.6-4-3.5-5.5-5.7c-1.7-2.6-2.7-5.7-3-8.8
	c-1.3-10.3,4.4-20.3,14-24.4c3.4-1.2,6.9-1.9,10.5-2c5.8-0.2,11.6,0.8,17,3.1c5.4,2.5,10,6.3,13.5,11.1c3.5,4.4,6.4,9.3,8.5,14.5
	c2.3,5.1,4.2,10.4,5.7,15.8c3.5,9.7,14.2,14.7,23.9,11.2l1-0.4l77.6-31.8c8.7-3.6,13.5-13.1,11-22.2l-1-3.6V661l-0.1-0.2
	c-4.2-15.7-10.4-30.8-18.4-45c-6.9-12-15.6-23-25.6-32.6c-15.9-14.9-35.2-25.8-56.2-31.8c-12.2-3.6-24.8-5.9-37.5-6.8
	C927.5,544.1,920,543.9,912.4,544z"/>
<path class="st0" d="M1101.9,544c-10.1,0.3-18.2,8.5-18.4,18.7v89.4c0.3,10.2,8.5,18.4,18.7,18.5h69.2v365.3
	c0.3,10.1,8.5,18.2,18.7,18.4h97.9c10.1-0.4,18.2-8.6,18.4-18.7v-365h72c9.8-0.5,17.7-8.3,18.1-18.2v-90
	c-0.3-10.1-8.5-18.2-18.7-18.4h-275.7L1101.9,544z"/>
</svg>
