<?xml version="1.0" encoding="utf-8"?>
<!-- Generator: Adobe Illustrator 25.0.0, SVG Export Plug-In . SVG Version: 6.00 Build 0)  -->
<svg version="1.1" id="Layer_1" xmlns="http://www.w3.org/2000/svg" xmlns:xlink="http://www.w3.org/1999/xlink" x="0px" y="0px"
	 width="1567.251px" height="2326.86px" viewBox="0 0 1567.251 2326.86" style="enable-background:new 0 0 1567.251 2326.86;"
	 xml:space="preserve">
<style type="text/css">
	.st0{fill:none;stroke:#000000;stroke-width:1.657;stroke-miterlimit:10;}
	.st1{enable-background:new    ;}
	.st2{fill:none;stroke:#000000;stroke-width:2;stroke-miterlimit:10;}
	.st3{fill:none;stroke:#EC06FF;stroke-width:2;stroke-miterlimit:10;}
</style>
<path class="st0" d="M811.575,610.255v126.508h468.146V610.255H811.575z M1174.794,651.825H914.948v-15.12h259.846V651.825z"/>
<g class="st1">
	<path class="st2" d="M228.341,2272.812v-151.539h68.882v-369.377h-59.41l-18.081,115.376h-117.96V1603.8h629.404v263.472H613.217
		l-18.081-115.376h-61.133v369.377h68.882v151.539H228.341z"/>
	<polygon class="st2" points="253.541,2247.611 253.541,2146.474 322.423,2146.474 322.423,1726.695 216.254,1726.695 
		198.173,1842.072 126.972,1842.072 126.972,1629.001 705.976,1629.001 705.976,1842.072 634.775,1842.072 616.694,1726.695 
		508.803,1726.695 508.803,2146.474 577.685,2146.474 577.685,2247.611 	"/>
</g>
<g class="st1">
	<path class="st3" d="M914,2272.812v-151.539h68.882v-369.377h-59.41l-18.081,115.376h-117.96V1603.8h629.404v263.472h-117.959
		l-18.081-115.376h-61.133v369.377h68.882v151.539H914z"/>
</g>
<polygon class="st2" points="495.496,881.296 495.496,906.497 704.578,906.497 704.578,1119.568 633.377,1119.568 615.297,1004.191 
	507.405,1004.191 507.405,1423.969 576.287,1423.969 576.287,1525.107 252.144,1525.107 252.144,1423.969 321.025,1423.969 
	321.025,1004.191 214.857,1004.191 196.775,1119.568 125.574,1119.568 125.574,906.497 334.657,906.497 334.657,881.296 
	100.374,881.296 100.374,1144.768 218.334,1144.768 236.415,1029.392 295.825,1029.392 295.825,1398.769 226.944,1398.769 
	226.944,1550.308 601.487,1550.308 601.487,1398.769 532.606,1398.769 532.606,1029.392 593.738,1029.392 611.82,1144.768 
	729.779,1144.768 729.779,881.296 "/>
<polygon class="st2" points="1162.205,881.296 1162.205,906.497 1371.288,906.497 1371.288,1119.568 1300.087,1119.568 
	1282.006,1004.191 1174.115,1004.191 1174.115,1423.969 1242.997,1423.969 1242.997,1525.107 918.853,1525.107 918.853,1423.969 
	987.735,1423.969 987.735,1004.191 881.566,1004.191 863.485,1119.568 792.284,1119.568 792.284,906.497 1001.367,906.497 
	1001.367,881.296 767.084,881.296 767.084,1144.768 885.044,1144.768 903.125,1029.392 962.535,1029.392 962.535,1398.769 
	893.653,1398.769 893.653,1550.308 1268.197,1550.308 1268.197,1398.769 1199.315,1398.769 1199.315,1029.392 1260.448,1029.392 
	1278.529,1144.768 1396.488,1144.768 1396.488,881.296 "/>
<polygon class="st2" points="92.131,112.862 92.131,376.333 210.091,376.333 228.172,260.957 287.583,260.957 287.583,630.334 
	218.701,630.334 218.701,781.873 277.741,781.873 277.741,797.411 535.926,797.411 535.926,781.873 593.245,781.873 
	593.245,630.334 524.363,630.334 524.363,260.957 585.496,260.957 603.577,376.333 721.536,376.333 721.536,112.862 "/>
</svg>
