<?xml version="1.0" encoding="utf-8"?>
<!-- Generator: Adobe Illustrator 25.0.0, SVG Export Plug-In . SVG Version: 6.00 Build 0)  -->
<svg version="1.1" id="Layer_1" xmlns="http://www.w3.org/2000/svg" xmlns:xlink="http://www.w3.org/1999/xlink" x="0px" y="0px"
	 width="1757.935px" height="2326.86px" viewBox="0 0 1757.935 2326.86" style="enable-background:new 0 0 1757.935 2326.86;"
	 xml:space="preserve">
<style type="text/css">
	.st0{fill:none;stroke:#000000;stroke-width:1.483;stroke-miterlimit:10;}
	.st1{enable-background:new    ;}
	.st2{fill:none;stroke:#000000;stroke-width:2;stroke-miterlimit:10;}
	.st3{fill:none;stroke:#DF00FF;stroke-width:2;stroke-miterlimit:10;}
</style>
<path class="st0" d="M897.625,610.348v126.508h464.339V610.348H897.625z M1253.824,652.377H994.547v-15.12h259.277V652.377z"/>
<g class="st1">
	<path class="st2" d="M253.569,2247.742v-150.679h64.576v-123.125l-176.509-247.113H94.281V1578.73h358.184v148.095H414.58
		l76.631,111.933l60.271-111.933h-61.133V1578.73h267.777v148.095h-75.771l-130.014,224.726v145.512h66.299v150.679H253.569z"/>
	<polygon class="st2" points="278.769,2222.542 278.769,2122.264 343.345,2122.264 343.345,1965.862 154.604,1701.626 
		119.481,1701.626 119.481,1603.931 427.264,1603.931 427.264,1701.626 366.788,1701.626 493.786,1887.129 593.672,1701.626 
		515.549,1701.626 515.549,1603.931 732.926,1603.931 732.926,1701.626 667.822,1701.626 527.142,1944.787 527.142,2122.264 
		593.441,2122.264 593.441,2222.542 	"/>
</g>
<g class="st1">
	<path class="st3" d="M1002.37,2247.742v-150.679h64.576v-123.125l-176.509-247.113h-47.355V1578.73h358.184v148.095h-37.885
		l76.631,111.933l60.271-111.933h-61.133V1578.73h267.777v148.095h-75.771l-130.014,224.726v145.512h66.299v150.679H1002.37z"/>
</g>
<polygon class="st2" points="490.349,100.287 490.349,248.382 551.482,248.382 491.211,360.314 414.58,248.382 452.464,248.382 
	452.464,100.287 94.281,100.287 94.281,248.382 141.636,248.382 318.145,495.495 318.145,618.62 253.569,618.62 253.569,769.298 
	304.502,769.298 304.502,784.836 562.687,784.836 562.687,769.298 618.641,769.298 618.641,618.62 552.342,618.62 552.342,473.108 
	682.356,248.382 758.127,248.382 758.127,100.287 "/>
<g>
	<polygon class="st2" points="477.665,862.627 371.03,862.627 371.03,887.827 452.464,887.827 452.464,985.522 391.988,985.522 
		518.986,1171.025 618.872,985.522 540.749,985.522 540.749,887.827 567.233,887.827 567.233,862.627 515.549,862.627 
		515.549,1010.722 576.682,1010.722 516.411,1122.655 439.78,1010.722 477.665,1010.722 	"/>
	<polygon class="st2" points="729.902,862.627 729.902,887.827 758.126,887.827 758.126,985.522 693.022,985.522 552.342,1228.683 
		552.342,1406.16 618.641,1406.16 618.641,1506.438 303.969,1506.438 303.969,1406.16 368.545,1406.16 368.545,1249.759 
		179.805,985.522 144.681,985.522 144.681,887.827 208.361,887.827 208.361,862.627 119.481,862.627 119.481,1010.722 
		166.836,1010.722 343.345,1257.835 343.345,1380.96 278.769,1380.96 278.769,1531.639 643.841,1531.639 643.841,1380.96 
		577.542,1380.96 577.542,1235.448 707.556,1010.722 783.327,1010.722 783.327,862.627 	"/>
</g>
<g>
	<polygon class="st2" points="1229.731,862.627 1123.097,862.627 1123.097,887.827 1204.531,887.827 1204.531,985.522 
		1144.054,985.522 1271.052,1171.025 1370.939,985.522 1292.816,985.522 1292.816,887.827 1319.299,887.827 1319.299,862.627 
		1267.616,862.627 1267.616,1010.722 1328.749,1010.722 1268.477,1122.655 1191.847,1010.722 1229.731,1010.722 	"/>
	<polygon class="st2" points="1481.969,862.627 1481.969,887.827 1510.193,887.827 1510.193,985.522 1445.089,985.522 
		1304.409,1228.683 1304.409,1406.16 1370.708,1406.16 1370.708,1506.438 1056.036,1506.438 1056.036,1406.16 1120.612,1406.16 
		1120.612,1249.759 931.871,985.522 896.748,985.522 896.748,887.827 960.428,887.827 960.428,862.627 871.548,862.627 
		871.548,1010.722 918.903,1010.722 1095.412,1257.835 1095.412,1380.96 1030.836,1380.96 1030.836,1531.639 1395.908,1531.639 
		1395.908,1380.96 1329.609,1380.96 1329.609,1235.448 1459.623,1010.722 1535.393,1010.722 1535.393,862.627 	"/>
</g>
</svg>
