<?xml version="1.0" encoding="utf-8"?>
<!-- Generator: Adobe Illustrator 24.2.3, SVG Export Plug-In . SVG Version: 6.00 Build 0)  -->
<svg version="1.1" id="f1d550aa-23aa-427e-8b29-e37cdfb09908"
	 xmlns="http://www.w3.org/2000/svg" xmlns:xlink="http://www.w3.org/1999/xlink" x="0px" y="0px" viewBox="0 0 1152 864"
	 style="enable-background:new 0 0 1152 864;" xml:space="preserve">
<path d="M880.1,631.3c3.8,1.8,8.6-1.2,7.4-5.7c-6.7-24.1-17.6-46.9-32.1-67.3c4.7-0.4,9.3-0.4,14-0.2c3.1,0.2,5.9-3.3,4.8-6.3
	c-10-28.4-24.6-55-43.3-78.6c4.1-0.9,8.4-1.1,12.6-0.4c4.4,0.7,8.1-3.9,5.5-7.6c2.7-3.4,4.7-7.3,5.8-11.5c1-4.1,1.7-8.2,2.1-12.4
	c0.7-5.2,1.3-10.4,1.9-15.6c2.2-20.6,3.7-41.3,4.6-62c0.9-20.7,1.3-41.6,1.2-62.6c0-20.9-0.3-41.8-0.7-62.6
	c-0.1-10.4-0.3-20.8-0.5-31.2c-0.2-8.7,0-17.5-1-26.2s-2.4-15.4-6.3-22.2c-4-7.2-10.8-12.4-18.8-14.2c-9.6-2-19.3,0.8-28,4.8
	c-7.2,3.5-14,7.7-20.3,12.6c-12.6,9.5-23.7,20.7-34.2,32.5c-10.5,11.8-20.3,24.1-30.7,36c-5.2,5.9-10.5,11.6-16,17.2l-8.5,7.9
	l-4.3,3.8c-0.8,0.5-1.5,1.1-2.2,1.7l-1.3,1c-0.1,0.2-0.3,0.3-0.5,0.4l-0.4,0.4h-0.2l-0.6,0.5l-1.1,0.8l-2.2,1.6l-4.8,3.3
	c-1.2,0.7-2,1.9-2.3,3.2c-11.4-1.1-22.8-1.5-34.2-1c1.6-5.2,3.7-10.2,6.3-15c1.4-2.4,0.5-5.5-1.9-6.8c-1.1-0.6-2.5-0.8-3.7-0.5
	l-42.9,11c-0.9-5.1,0-10.4,2.5-15c2-3.7-1.4-8.6-5.7-7.3c-15.3,4.5-29.3,12.6-40.9,23.5c-3.2-2.6-5.1-6.6-4.9-10.7
	c0-4.1-4.3-5.7-7.6-4.3c-8.1,3.7-15,9.8-19.6,17.5c-8.2-7.6-16.9-14.6-26.2-20.8c-3.9-2.7-8.1,1.7-7.3,5.6c1,4.8,0.7,9.8-0.6,14.5
	c-11.2-7.4-23.6-12.7-36.7-15.6c-2.7-0.6-5.4,1-6,3.7c-0.5,2.1,0.4,4.2,2.2,5.4c3.1,2.2,5.6,5.3,7,8.9c-5.4,0.4-10.8,1.1-16.1,2.2
	c-0.4-0.8-1-1.5-1.8-2c-6.9-4.2-13.4-9.2-19.4-14.7c-6.2-5.7-12.1-11.8-17.5-18.3c-11.1-13-20.5-26.2-30.9-39.9
	c-10.4-13.7-21.1-27.2-33.6-38.9c-6.3-5.9-13.2-11.3-20.4-16c-4.2-2.7-8.6-5.5-13.5-6.8c-4.8-1.3-10-0.8-14.5,1.4
	c-7.8,3.9-12.2,12.4-15.1,20.3c-3.6,9.8-5.7,20.3-7.7,30.5c-4.2,22-6.6,44.4-7.3,66.8c-1.8,44.8,1.7,89.4,3.5,134.1
	c0.5,11,0.8,22,1,33s1,21.9-1.7,32.2c-0.7,2.6-1.9,5-2.3,7.7c-0.6,3.1-0.2,6.2,1.3,9c0.5,1,1.1,2,1.8,2.9c0.3,0.4,0.5,0.8,0.7,1.2
	c0,0.1,0.1,0.2,0.1,0.3c0.2,0.7,0.4,1.4,0.6,2.1v0.8c0.1,0.6,0.1,1.2,0,1.8c0,0.3,0,0.7-0.1,1c0,0.2-0.1,0.8-0.1,0.8
	s-0.3,1.6-0.5,2.3c-0.2,0.7-1.2,4.1-1.9,6.1c-1.5,3.8-2.5,7.8-3.2,11.9c-0.4,3.1-0.1,6.2,0.8,9.1c-12,13-22.1,27.6-30.1,43.4
	c-1.6,3.1,0.3,7.8,4.3,7.5l18.4-1.5c-13.8,17.5-25.3,36.7-34.1,57.1c-1.8,4.1,1.1,8.2,5.6,7.4l17.5-3.1
	c-3.6,23.1-15.7,45.8-8.7,69.3c1.1,3.8,3.7,7.9,8.2,7.1s7.6-7.2,3.5-10.3c-0.7-0.6-1.6-1-2.5-1.3c-0.1-0.2-0.2-0.5-0.2-0.7
	c-0.3-1.2-0.6-2.5-0.7-3.7c-0.4-3-0.5-6.1-0.3-9.2c0.4-6.2,1.4-12.3,3-18.3c3.2-12.9,7.4-25.6,8.5-39c0.3-3.5-3.4-5.3-6.3-4.8
	l-14.9,2.6c9.6-20,21.8-38.7,36.3-55.5c2.6-3,1.1-8.9-3.5-8.6l-21,1.8c13.1-22.8,30.8-42.7,52-58.3c2.6-1.9,3.4-5.3,1-7.8
	c-2.9-3.1-6.6-5.5-10.7-6.8c19.8-14.6,41.1-27.2,63.4-37.6c2.4-1.1,3.2-4.8,1.8-6.9c-3.1-4.7-6.3-9.4-9.4-14.2c-0.7-1-1.4-2-2-3.1
	l-0.6-0.9c1.3-1.7,2.7-3.3,4.3-4.8c6.8-7,14.6-13,23.1-17.8c2.4-1.4,3.1-4.5,1.7-6.9c-0.7-1.1-1.7-1.9-2.9-2.2
	c-5.5-2.3-11.1-4.2-16.8-5.7c14.8-17.9,31.8-33.8,50.6-47.5c6-4.4,12.2-8.5,18.6-12.4c2.6-1.6,3.5-5.7,1-7.9
	c-4.6-4.1-9.8-7.4-15.5-9.7c17.8-13.2,39.3-20.4,61.5-20.8c2.4,0,5.3-2.2,5-5c-0.4-2.9-1.1-5.8-2.2-8.6c8.6,3.4,16.8,8,24.2,13.6
	c2.1,1.6,5.8,0.4,6.9-1.8c2.4-5,3.9-10.4,4.3-16c6.2,4.7,12.1,9.8,17.8,15.2c0.8,0.7,1.7,1.2,2.8,1.4c0.5,0.6,1,1.2,1.7,1.6
	c2.1,1.2,5.7,0.7,6.8-1.8c2.7-6.1,6.9-11.4,12.4-15.3c2,5.9,6.3,10.7,11.9,13.4c2.1,0.9,4.4,0.9,6.1-0.8
	c8.5-8.7,18.7-15.6,29.9-20.3c-0.9,5.6-0.4,11.4,1.6,16.7c1,2.5,3.3,4.2,6.2,3.5l37.3-9.6c-1.8,4.6-3.3,9.3-4.5,14.1
	c-0.7,2.9,1.5,6.5,4.8,6.3c18.9-1.4,37.9-0.4,56.6,2.9c-5.5,2.7-10.7,5.9-15.5,9.6c-2.7,2.1-3.7,6.8,0,8.7c16.6,8.4,32,18.8,46,31
	c-8.2,2.3-15.5,7.1-20.8,13.8c-2.3,2.8-1.7,7.2,2.2,8.3c23.7,6.9,49.4,14.6,67.3,32.2c3,2.8,5.6,5.9,7.9,9.3
	c-7.5,0.4-14.9,1.9-21.9,4.5c-6,2.3-4.5,9.8-0.5,13.2s8,4.4,12,6.4c16.3,7.9,31.6,17.5,45.8,28.7c5,3.9,9.8,8.1,14.5,12.4
	c-4.2,0.6-8.4,1.8-12.3,3.6c-3.2,1.5-2.9,5.7-1,7.9c18.3,22,32.9,46.9,43.1,73.6c-5.7,0.1-11.4,0.7-17.1,1.6c-1.7,0.5-3,1.8-3.5,3.5
	c-0.4,1.7,0,3.6,1.3,4.9c14.3,18.6,25.3,39.5,32.4,61.9c-4.3-0.4-8.7,0.1-12.8,1.7c-2.4,0.9-4.5,3.4-3.5,6.2
	c6.1,16.8,11.5,33.9,16,51.3c1.6,6.2,11.2,3.5,9.6-2.7c-4.1-15.7-8.8-31.2-14.2-46.5C873.7,629.5,877.1,630,880.1,631.3z
	 M271.1,496.9c0-0.3,0.1-0.7,0.2-1c0.9-3.6,2.2-7.1,3.4-10.7c0.3-0.9,0.6-1.9,0.8-2.9c3.6-0.6,7.3,0,10.5,1.7
	C280.8,488.1,275.8,492.4,271.1,496.9z M390.2,294.9c-2.6,2.4-1.4,7.7,2.2,8.4c5.4,0.9,10.5,2.8,15.1,5.8
	c-19.9,12.9-38.2,28.1-54.4,45.5c6.2-15.4,10.8-31.5,13.5-47.9c3.8-23.2,4.1-46.8,0.8-70c-1.8-12.7-4.7-25.2-8.7-37.4
	c-0.8-2.4-3.5-4.3-6.1-3.5c-2.6,0.8-4.4,3.5-3.5,6.2c3.5,10.7,6.2,21.6,8,32.7l0.6,4.2c0.1,0.3,0.1,0.6,0.1,0.9
	c0.1,0,0.1,0.1,0.1,0.2l0.3,2.3c0.3,2.8,0.6,5.6,0.8,8.4c0.5,5.6,0.7,11.1,0.8,16.7c0.1,5.6-0.2,11.4-0.6,17
	c-0.2,2.8-0.4,5.6-0.7,8.3c-0.3,2.7-0.3,2.7-0.5,4.1c0,0.3,0,0.5-0.1,0.8c0,0.2,0,0.5-0.1,0.7c0,0.6-0.1,1.2-0.2,1.8
	c-1.6,11.1-4.1,22.1-7.4,32.8c-1.8,6-3.9,11.9-6.3,17.7L343,353c-0.2,0.4-0.4,0.8-0.5,1.2l-2,4.4c-1.4,3-2.8,5.8-4.3,8.7
	c-1,2-0.7,4.4,0.8,6.1c-1.8,2.7-1.4,7.1,2.5,7.9c4.8,1.1,9.6,2.4,14.3,4c-6.8,4.6-13,10-18.5,16c-2,2.2-4.2,4.5-4.9,7.4
	c-0.7,2.9,0.4,6.2,2.1,8.8c2.6,4.1,5.3,8.2,8,12.2c-22.7,11.1-44.2,24.4-64.3,39.7c-0.1-0.6-0.3-1.1-0.4-1.6c-1-2.1-2.1-4.2-3.4-6.2
	c-0.5-1-0.6-0.9-0.6-2c0.2-0.8,0.4-1.6,0.7-2.4c0.9-2.5,1.6-5.1,2.2-7.7c1.1-5.6,1.6-11.3,1.6-17c0.1-10.9-0.2-21.9-0.5-32.8
	c-1.4-43.8-5-87.6-4.6-131.4c0.1-21.3,1.5-42.7,4.4-63.8c1.5-10.8,3.5-21.5,6-32.1c1.2-4.9,2.4-9.8,3.9-14.5
	c1.1-3.7,2.7-7.3,4.8-10.6l0.8-1.2l0.2-0.2c0.6-0.8,1.2-1.5,1.9-2.1l1-1l0.2-0.2l0.3-0.2l2.1-1.2l0.8-0.3l1.3-0.4h1.7
	c2.3,0,4.6,0.6,6.6,1.7c3.9,2,7.6,4.3,11.1,6.8c3.4,2.4,5.7,4.2,8.9,6.9c12.7,10.7,23.5,23.4,33.7,36.5l7,9.2l7.7,10.3
	c5.1,6.9,10.3,13.7,15.7,20.4c10.5,13,21.9,25.2,35.2,35.4l4.9,3.5C416.2,276.2,402.1,284.2,390.2,294.9z M783.2,416.2l-10.4-5.2
	l-2.8-1.2c6.9-1.7,14-2.5,21.1-2.4c2.8,0,5-2.3,5-5c0-0.9-0.2-1.7-0.7-2.5c-12.6-24.7-38.5-37.8-63.6-46.5c-4.5-1.6-9-3-13.6-4.4
	c5.4-4.1,12-6.4,18.8-6.4c4-0.1,6.4-4.9,4-8v-0.5l-0.3-1.9c0-0.2-0.1-0.4-0.1-0.6s-0.3-2.7-0.5-4s-0.5-4.9-0.7-7.3
	c-0.3-5-0.5-10-0.4-15c0-2.4,0.1-4.9,0.3-7.3l0.3-3.5c0.1-0.6,0.1-1.1,0.2-1.7c0-0.1,0-0.3,0.1-0.4c0-0.2,0.1-0.7,0.1-0.8
	c0.7-4.7,1.7-9.3,3-13.9c0.7-2.2,1.4-4.3,2.2-6.4c0.8-2.1,0.7-1.9,1.1-2.9V268l0.2-0.3c0.2-0.6,0.5-1.1,0.7-1.7
	c1.8-4,3.8-7.9,6.1-11.6c2.2-3.8,4.5-7.4,7-10.9c1.3-1.9,2.7-3.7,4-5.5l0.9-1.2l0.3-0.4h0.1c0.7-0.9,1.5-1.8,2.2-2.8
	c6.2-7.8,12.9-15.2,19.6-22.6c1.9-2,1.9-5,0-7c-2-1.8-5.2-2.1-7.1,0c-12.3,13.6-24.6,27.4-34.3,43.1c-4.8,7.8-8.8,16.1-11.7,24.8
	c-3.2,9.6-5,19.7-5.3,29.8c-0.3,7.6-0.1,15.2,0.7,22.7c-11.6-10-24.3-18.8-37.7-26.2c6.9-4.3,14.3-7.7,22.1-9.9
	c4.7-1.4,4.9-8.5,0-9.7c-7.1-1.8-14.4-3.3-21.7-4.4c23.4-16.8,41.4-39.6,59.9-61.4c9.8-11.6,19.8-23,31.1-33.2
	c2.8-2.5,5.7-5,8.7-7.4l0.9-0.6l0.7-0.5l2.2-1.7l4.5-3.1c3.2-2.2,6.5-4.2,9.9-6.1c3.5-2,7.2-3.5,11.1-4.7l3.1-0.8l1.5-0.3l1-0.2
	c2.1-0.2,4.3-0.2,6.4,0h0.7l1.5,0.3l2.7,0.9l0.9,0.4l1.1,0.6l1.1,0.6l0.9,0.7c1,0.9,2,1.8,2.9,2.8l0.4,0.5l0.5,0.6l1.5,2.4l1.1,2.2
	l0.3,0.7l0.3,0.7c0.7,1.7,1.2,3.5,1.6,5.3c0.4,1.6,0.8,3.2,1.1,4.8l0.3,2.1c0,0.2,0.1,0.5,0.1,0.7c0,0.6,0.1,1.2,0.1,1.8
	c0.4,3.6,0.6,7.2,0.6,10.8l0.6,30.7c0.7,40.5,1.4,81,0.3,121.5c-0.6,20.4-1.6,40.8-3.4,61.2c-0.8,10-1.9,20.1-3.1,30.1l-0.9,7.1
	c0,0.2-0.1,0.8-0.1,0.8s-0.1,0.6-0.2,0.8c-0.1,1-0.3,1.9-0.5,2.9c-0.4,1.7-0.8,3.4-1.4,5c-0.1,0.4-0.2,0.8-0.4,1.2
	c0,0.1,0,0.1-0.1,0.1v0.2l-1.4,2.5c-0.2,0.3-0.4,0.6-0.5,0.9C824.5,441.5,804.7,427.3,783.2,416.2z"/>
<path d="M533.2,411.9c-7.9-12-17.5-22.9-29.3-31.2c-6.4-4.5-13.5-8-21-10.4c-2.4-0.6-4.9,0.6-5.9,2.9c-1.1,2.5,0,4.7,2,6.2h0.1
	l0.6,0.5l1.3,1.2l2.6,2.4l2.2,2.7l0.6,0.8c0.4,0.4,0.7,0.9,1,1.4c1.1,1.6,2,3.3,2.8,5c-19.2-1.6-38.5,0.3-57.1,5.5
	c-5.9,1.7-11.6,3.8-17.3,6.1c-2,0.9-3.8,2.5-3.7,4.9c0,2.2,1.5,4.2,3.7,4.8c5.7,1.3,11.4,2.9,16.9,4.7l4.9,1.7
	c-10.3,4.6-20.2,10.1-29.6,16.3c-3.7,2.5-7.3,5-10.8,7.7c-1.7,1.1-2.6,3-2.4,5c0.3,1.9,1.7,3.5,3.6,4.1L412,457
	c-13.6,7.4-26.6,15.7-38.9,25.1c-4.7,3.6-9.4,7.3-14,11.1c-1.4,1.5-1.8,3.6-1,5.5c0.8,1.8,2.6,3,4.6,3.1h2.1
	c0.4,0.1,2.4,0.4,2.7,0.5l2.6,0.8l0.6,0.3l1.2,0.5l2.5,1.5l1,0.7h0.2l0.3,0.3l0.7,0.6c-12.9,12-25.8,24.1-37.1,37.7
	c-11.3,13.6-22.5,30.7-28.9,48.7c-3.5,9.9-5.6,20.2-6.1,30.7c0,2.8,2.2,5,5,5c2.7-0.1,4.9-2.3,5-5c0.1-2.2,0.2-4.4,0.5-6.6
	c0-0.3,0.1-0.6,0.1-0.9c0.1-0.5,0.1-0.9,0.2-1.4l0.6-3.4c0.9-4.3,2-8.6,3.3-12.8c0.7-2.2,1.5-4.3,2.3-6.3l0.6-1.6l0.4-0.8l1.2-3
	c1.9-4,4-8,6.2-11.9s4.7-7.6,7.2-11.3c1.3-1.9,2.7-3.7,4.1-5.5c0.2-0.4,0.5-0.8,0.8-1.1c0-0.1,0.1-0.2,0.2-0.3l0.5-0.7l2.3-2.8
	c6-7.3,12.4-14.2,19-20.8c6.6-6.6,15.4-14.8,23.2-22c1.6-1.6,1.9-4.1,0.8-6.1c-3.6-4.8-8.5-8.6-14.1-11l0.8-0.7l1.5-1.1l0.3-0.3
	l0.6-0.4c3.9-3,7.9-5.9,12-8.7c8.2-5.7,16.7-10.9,25.4-15.8c4.9-2.7,9.9-5.3,14.9-7.8s3-8.3-1.2-9.1l-16.2-3.1
	c9.2-6.2,18.9-11.6,29-16.2l3.1-1.4l1.4-0.6h0.2l0.5-0.2l6-2.4c2-0.5,3.4-2.2,3.6-4.2c0.3-1.7-0.6-4.2-2.4-4.9
	c-6.5-2.8-13.1-5.3-19.8-7.5c5-1.5,10.1-2.7,15.2-3.7c2.5-0.5,5-1,7.6-1.3h1.1l1.8-0.2l4.3-0.4c5.2-0.5,10.4-0.7,15.6-0.6l8.9,0.4
	l4.5,0.4l2,0.2l1.1,0.2c0.3,0,1.3,0.2,0.8,0.1c1.7,0.3,3.4-0.2,4.6-1.4c1.2-1.3,1.7-3.1,1.2-4.8c-0.7-2.8-1.6-5.5-2.8-8.1l1.3,0.9
	l0.6,0.4l0.6,0.5l2.1,1.8c2.6,2.2,5,4.5,7.3,6.9c2.3,2.3,4.4,4.7,6.4,7.2l0.7,0.9l0.4,0.6c0.5,0.5,0.9,1.1,1.3,1.7l3.5,4.9
	c4.1,6.1,7.9,12.4,11.2,19c3.8,7.4,7.4,15,10.9,22.6c1.1,2.4,4.7,3.2,6.8,1.8c2.4-1.4,3.2-4.4,1.8-6.8
	C548,438.7,541.6,424.7,533.2,411.9z M364.8,501.8h0.2C365.6,501.9,365.5,501.9,364.8,501.8z"/>
<path d="M775.8,535.2c-8.7-12-18.1-23.4-28.3-34.1c-3.7-4-7.6-7.8-11.5-11.5l0.8-0.2l4.9-1l1.9-0.3h2c3.2-0.4,6.3-0.5,9.5-0.4
	c1.6,0,3.2,0.1,4.8,0.3l2.3,0.2c0.1,0,1.6,0.2,0.5,0.1l1.3,0.2c2.1,0.3,4.5-0.2,5.7-2.3c1.1-2,0.7-4.4-0.8-6.1
	c-19.9-20.1-44-35.5-70.5-45.2l-7.5-2.5c2.7-0.7,5.4-1.4,8.2-1.9l2.8-0.5l1.4-0.2h0.7c2-0.3,4-0.4,6-0.5c3.9-0.2,7.9-0.2,11.8,0.1
	l3.2,0.3h2.4c2.3,0.4,4.6,0.8,6.8,1.4c2.6,0.8,5.4-0.7,6.2-3.3c0.5-1.8,0-3.8-1.3-5.1c-20.2-17.5-46.3-24.6-72.2-28.6l-14.7-2
	c2.1-3.7,4.4-7.3,6.9-10.7c0.4-0.7,0.9-1.3,1.4-1.9c0.1-0.1,0.2-0.2,0.2-0.3c0.3-0.3,0.6-0.7,0.8-1.1l3.2-3.7
	c2.3-2.6,4.7-5.1,7.2-7.4c1.6-1.6,2-4.1,0.8-6.1c-1.2-1.9-3.5-2.8-5.7-2.3c-13.5,2.5-26.6,7-38.8,13.3
	c-12.2,6.3-23.5,14.2-33.4,23.7c-5.7,5.5-11,11.5-15.7,17.8c-1.6,2.1-0.4,5.7,1.8,6.8s5.2,0.5,6.9-1.8l0.7-0.9v-0.2
	c0.6-0.6,1.1-1.3,1.6-2l3.2-3.7c2.2-2.5,4.4-4.9,6.7-7.1s4.8-4.6,7.3-6.7c2.5-2.1,2.5-2.1,3.8-3.1l0.9-0.7l0.2-0.2l2.1-1.5
	c5.3-4,10.9-7.5,16.8-10.6c2.9-1.5,5.8-3,8.8-4.3l1.1-0.5l0.6-0.2l0.7-0.3l1.3-0.6l4.6-1.7l5.2-1.8c-5.2,6.6-9.7,13.8-13.4,21.4
	c-1.4,2.4-0.6,5.4,1.8,6.8c0.8,0.4,1.6,0.7,2.5,0.7l9.6,1.2l2.2,0.3l1.2,0.2l4.9,0.7c6.2,0.9,12.5,2,18.7,3.4
	c6.2,1.3,12.2,2.9,18.2,4.9c2.9,1,5.8,2,8.6,3.2h0.2l1.1,0.5l2.1,0.9l4.2,2.1l0.5,0.3c-10-0.1-20,1.3-29.6,4.3
	c-4.8,1.5-9.4,3.4-13.9,5.6c-3.9,1.8-2.9,8.2,1.2,9.1c6.6,1.5,13.2,3.4,19.6,5.6c3.2,1.1,6.4,2.3,9.5,3.6l1.1,0.4h0.4l2.2,1l4.9,2.2
	c6.1,2.9,12,6.2,17.7,9.8c2.9,1.7,5.6,3.6,8.3,5.4l4,2.9l2,1.5l0.6,0.5l1,0.8c2.4,1.8,4.7,3.8,6.9,5.8c-9.2,0.1-18.2,1.8-26.8,5
	c-1.7,0.5-3,1.8-3.5,3.5c-0.5,1.7,0,3.6,1.3,4.8c10.7,9.8,20.8,20.2,30.2,31.3c2.3,2.7,4.6,5.5,6.8,8.4c0.6,0.6,1.1,1.3,1.6,2
	c0.2,0.2,0.4,0.4,0.5,0.7l0.6,0.7l3.4,4.5c4.3,5.8,8.3,11.7,12.2,17.8s8.5,13.8,12.3,20.9c1.4,2.4,4.4,3.2,6.8,1.8
	c2.4-1.4,3.2-4.4,1.8-6.8C792.1,559.2,784.3,546.9,775.8,535.2z"/>
</svg>
