<?xml version="1.0" encoding="utf-8"?>
<!-- Generator: Adobe Illustrator 24.2.3, SVG Export Plug-In . SVG Version: 6.00 Build 0)  -->
<svg version="1.1" id="a887cf89-8723-4555-bddc-95e5fc2dc16b"
	 xmlns="http://www.w3.org/2000/svg" xmlns:xlink="http://www.w3.org/1999/xlink" x="0px" y="0px" viewBox="0 0 1152 864"
	 style="enable-background:new 0 0 1152 864;" xml:space="preserve">
<g>
	<path d="M890.6,637.4c-0.6-0.5-1.1-1-1.5-1.6l-0.2-0.3c-0.1-0.2-0.2-0.4-0.4-0.6c-0.3-0.4-0.6-0.8-0.8-1.2l-1.3-2.3
		c-0.3-0.4-0.5-0.8-0.7-1.3c-0.1-0.2-0.1-0.4-0.2-0.5s-0.3-0.5-0.3-0.3s-0.5-1.8-0.7-2.2c-0.3-0.9-0.6-1.9-0.8-2.9
		c-0.5-1.8-0.9-3.7-1.2-5.6c-0.1-0.5-0.1-1-0.2-1.5s-0.2-2-0.2-2.9c-0.1-2-0.2-3.9-0.1-5.9c0-4.1,0.4-8.2,0.8-12.3
		c0.8-9.2,2-18.5,1.2-27.7c-0.4-3.9-1.1-7.7-2.2-11.4c0-0.1,0-0.1,0.1-0.1c7.2-5.2,8.6-14.4,6.1-22.6c-0.7-2.3-1.5-4.5-2.6-6.7
		l-1.2-2.7l-0.7-1.6l-0.3-0.7c-0.1,0-0.1,0-0.1-0.1c-1.6-4.1-2.7-8.3-3.5-12.6c-1.7-8.7-3.2-17.4-5-26c-1.8-8.6-3.9-16.9-6.2-25.3
		c-4.5-16.8-10-33.3-16.7-49.3c-6.6-16.2-14.6-31.9-23.7-46.9c-8.3-13.4-17.7-26-28.2-37.7c-10.4-11.7-21.9-22.3-34.3-31.8
		c-12.1-9.3-25.3-17.2-39.2-23.6c-6.9-3.2-14.1-6.4-21.9-6.5c-3.7-0.2-7.4,0.7-10.7,2.4c-3.8,2.3-6.6,5.9-7.8,10.1
		c-1.3,4.2-1.3,8.7-1.6,13l-0.9,14.5l-1.9,28.7c-0.2,3.5-0.5,7-0.9,10.5c0,0.4-0.1,0.8-0.1,1.2v0.2c-0.1,0.9-0.2,1.7-0.4,2.6
		c-0.2,1.7-0.6,3.4-1,5.1c-0.3,1.7-0.8,3.3-1.3,4.9c-0.2,0.8-0.5,1.5-0.7,2.2c-0.2,0.4-0.4,0.9-0.5,1.3c0,0.1-0.1,0.1-0.1,0.2
		c0,0-0.1,0.1-0.1,0.2c-0.7,1.5-1.4,2.9-2.2,4.3L673,366l-0.6,0.9c-0.1,0.1-0.2,0.3-0.3,0.3c-0.9,1.2-2,2.3-3.2,3.3
		c-0.2,0.3-0.5,0.5-0.8,0.7l-0.3,0.3l-2.1,1.3c-0.8,0.5-1.4,1.1-1.8,1.9c-4.9-3.7-10.7-5.9-16.8-6.5c-8.3-0.8-16.8,1.8-24,5.7
		l-0.9,0.7c-10.3-6.3-22.4-10-34.2-11.8c-19.8-2.9-40.6-2.6-60.1,2.2c-7.4,1.8-14.7,4.4-21.5,7.9c-14.3-7.4-31.9-8.7-47-2.9
		c-2.6,1-5.1,2.2-7.5,3.5h-0.6c-0.7,0-1.5,0-2.2,0h-1.3l-2.5-0.6l-2.5-0.8l-1.1-0.4h-0.5l-2-1l-0.9-0.6l-0.5-0.3l-0.5-0.4l-0.6-0.6
		c-0.4-0.5-0.7-1-1-1.6c-0.3-0.4-0.5-0.8-0.7-1.3c-0.1-0.3-0.3-0.5-0.4-0.8c-0.4-1-0.7-2-1-3c-0.6-2.1-1.1-4.2-1.4-6.4l-0.6-3.5
		v-0.4c0-0.2-0.1-0.3-0.1-0.5l-0.3-2.2c-1.1-10-1.2-20-0.4-30c0.2-2.4,0.5-4.9,0.8-7.3V311c0-0.2,0.1-0.5,0.1-0.7
		c0.1-0.5,0.2-0.9,0.2-1.4c0.2-1,0.3-1.9,0.4-2.9c0.7-4.3,1.1-8.6,1.2-13c0-8.3-2.4-17.2-9.2-22.6c-6.8-5.4-14.8-6.4-22.9-5.5
		c-8.1,0.9-16.4,3.8-24.3,6.7c-7.9,2.9-17.2,6.9-25.5,10.9c-16.4,7.7-31.9,17-46.3,27.9c-14,10.6-26.8,22.8-38,36.3
		c-11.1,13.3-20.3,28-27.4,43.8c-3.7,8.2-6.8,16.7-9.3,25.3c-2.5,8.5-4.6,17.2-6.9,25.8c-2.1,8.7-4.7,17.3-7.7,25.7l-1.2,3l-0.6,1.5
		c0,0.2-0.1,0.4-0.2,0.6v0.2c-0.9,2.1-1.9,4.1-2.9,6.2c-2,3.9-4.3,7.7-6.7,11.4c-2.6,3.9-4.8,8.1-6.6,12.4c-1.1,3-1.9,6.1-2.2,9.2
		c-0.8,6.4,0.3,13.1,4.4,18.2c1.4,1.7,3.2,3,5.1,4c-5.3,6-9.3,12.8-10.8,20.9s-0.6,18.5,0.4,27.6s1.8,18.9,1.9,28.3
		c0,2.4,0,4.8-0.1,7.2c0,2.8,2.2,5,5,5s5-2.2,5-5c0.3-9.5-0.1-19-1.1-28.5c-0.8-9.2-2.4-18.4-1.9-27.6l0.3-3.3c0-0.1,0-0.2,0.1-0.3
		c0-0.5,0.1-1,0.2-1.5c0.4-1.8,0.9-3.5,1.5-5.2l0.3-0.5c-0.1,0-0.1-0.1,0-0.3v-0.2l0.2-0.3c0.3-0.8,0.7-1.6,1.2-2.4
		c0.8-1.5,1.7-3,2.8-4.3c0-0.1,0.1-0.2,0.2-0.3l0.7-1l1.8-2l3.6-3.6c1.3-1.2,2.7-2.3,4.1-3.4h0.3l1-0.8c0.7-0.6,1.5-1.1,2.3-1.6
		c14.6-10.3,30.7-18.2,45.8-27.7c12.5-7.9,24.6-16.9,34.5-28c9.9-11.1,18-24.2,21-38.9c0.4-2.2,0.7-4.4,0.9-6.5c0.2-2.1-2.5-5.1-5-5
		c-2.5,0.1-4.6,2.2-5,5v0.4c-0.1,0.4-0.1,0.9-0.2,1.3c-0.1,0.4-0.3,1.9-0.5,2.8c-0.2,0.9-0.9,3.6-1.4,5.4s-1.1,3.3-1.7,4.9l-0.5,1.2
		c-0.1,0.1-0.1,0.2-0.1,0.3l-1.2,2.5c-1.5,3.2-3.3,6.3-5.3,9.2c-1,1.6-2.1,3-3.2,4.5l-0.2,0.3l-0.8,1l-1.8,2.2
		c-4.8,5.5-10.1,10.6-15.7,15.2l-2,1.7l-1.1,0.8l-0.4,0.3H280l-4.2,3.1c-3,2.2-6,4.2-9,6.1c-3,1.9-8.1,5.1-12.2,7.5
		c-0.1-0.2-0.1-0.4-0.2-0.6c-0.2-0.7-0.4-1.5-0.5-2.2c-0.1-0.3-0.1-0.6-0.2-0.9v-0.4c-0.1-0.8-0.2-1.6-0.2-2.4c-0.1-1.7,0-3.3,0.2-5
		v-0.4c0.1-0.3,0.1-0.9,0.2-0.9c0.1,0,0.3-1.6,0.4-2.4l0.6-2.1c0.2-0.7,0.6-1.4,0.7-2c0.1-0.1,0.1-0.1,0.1-0.2l0.6-1.3l1.4-2.6
		c1.8-3.4,3.9-6.7,5.8-10.1c3.8-6.7,6.5-13.9,8.1-21.4c1.5-7.5,2.7-15.1,3.4-22.8l0.3-2.6c0.1-0.3,0.1-0.5,0.1-0.8
		c0.1-0.4,0.1-0.8,0.2-1.2c0.1-0.4,0.5-3.6,0.8-5.4c0.6-3.6,1.5-7.2,2.5-10.7c0.5-1.8,1.1-3.7,1.8-5.5c0.3-0.9,0.6-1.7,1-2.5
		c0.1-0.2,0.2-0.5,0.3-0.7c0.1-0.4,0.3-0.8,0.5-1.2c1.5-3.5,3.2-6.8,5-10.1c3.7-6.6,7.7-12.9,11.9-19.1c2.1-3.1,4.3-6.1,6.5-9.1
		l3.2-4.3l0.4-0.5c0.3-0.3,0.6-0.7,0.8-1.1l1.8-2.2c9.3-11.6,19.5-22.4,30.5-32.3c1.3-1.3,2.7-2.5,4.1-3.7c1.9-2,1.9-5.1,0-7.1
		c-2-1.9-5.1-1.9-7.1,0c-11.4,9.9-22,20.8-31.6,32.4c-9.8,11.8-18.7,24.3-26.6,37.5c-4.1,6.9-7.7,14.1-10.5,21.6
		c-2.4,7.2-4.1,14.6-5.1,22.1l-1.5,12.1c-0.1,0.9-0.2,1.9-0.4,2.8v0.7h-0.1v0.3c0,0.3-0.1,0.5-0.1,0.8l-0.9,5.6
		c-0.7,3.7-1.5,7.3-2.5,10.8c-0.6,1.8-1.2,3.6-1.9,5.3c-0.2,0.5-0.3,0.7-0.3,0.8c-0.1,0.3-0.2,0.5-0.4,0.8c-0.4,1-0.9,1.9-1.4,2.9
		c-3.6,6.8-8.4,13.2-10.9,20.6c-2.2,6.7-2.5,13.9-1.1,20.8c0.4,1.6,0.9,3.2,1.6,4.7c-8.5,4.9-17,9.8-25.2,15.3
		c-2.7,1.8-5.4,3.8-7.9,5.9c-0.4-0.3-0.8-0.5-1.3-0.6l-1.1-0.4h-0.2c-0.6-0.5-1.2-0.9-1.9-1.2h-0.1l-0.7-0.7l-0.3-0.3l-0.4-0.6
		c-0.2-0.4-0.4-0.9-0.7-1.4v-0.2l-0.3-1c-0.1-0.6-0.3-1.2-0.4-1.9s-0.1-0.7-0.1-1c-0.1-1.3,0-2.5,0.1-3.8c0-0.4,0-0.7,0.1-1.1
		c0-0.5,0.1-1,0.2-1.5c0.3-1.3,0.6-2.6,1-3.8c0.2-0.5,0.4-1,0.5-1.5c0.1-0.1,0.1-0.2,0.1-0.3c0.1-0.1,0.2-0.2,0.2-0.3l1.6-3.2
		c2.1-3.8,4.6-7.4,6.8-11.1s4.2-7.5,6-11.5c3.6-8.3,6.6-16.9,9-25.6c4.7-16.8,8.1-34.1,14.4-50.4c0.4-0.9,0.8-1.9,1.1-2.8l0.7-1.5
		c0.1-0.2,0.2-0.5,0.3-0.7c0.8-1.9,1.7-3.9,2.6-5.8c1.8-3.7,3.7-7.4,5.7-11c4.1-7.3,8.7-14.4,13.7-21.1l1.7-2.2l0.5-0.7l1.1-1.3
		c1.3-1.7,2.6-3.3,4-4.9c2.7-3.2,5.5-6.3,8.4-9.3c5.8-6.2,12-11.9,18.6-17.3c1.7-1.5,3.5-2.9,5.2-4.2l0.5-0.4h-0.1l0.2-0.2l1.2-0.9
		l2.7-2c3.6-2.7,7.3-5.2,11-7.7c7.4-4.8,15-9.2,22.8-13.3c4-2.1,8-4.1,12.1-5.9l6.1-2.8l2.9-1.2h0.1l0.5-0.2l1.7-0.7
		c7.7-3.4,15.7-6.2,23.8-8.6c1.9-0.4,3.8-0.9,5.7-1.2h1.6l2.8-0.3c1.8,0,3.5,0,5.3,0.2h0.5l1.2,0.2l2.5,0.7l0.4,0.2
		c0.1,0,0.2,0,0.2,0.1h0.3l0.6,0.3l2.2,1.4l0.2,0.2l0.9,0.8l1,1.1l0.3,0.4c0.1,0,0.1,0,0.1,0.1c0.5,0.7,0.9,1.4,1.3,2.2l0.4,0.7
		c0,0.1,0,0.1,0.1,0.2l0.3,0.9c0.2,0.8,0.4,1.7,0.6,2.5l0.3,1.3c0,0.1,0,0.4,0.1,0.5c0.3,3.9,0.2,7.8-0.3,11.7l-0.3,2.8
		c0,0.1,0,0.2-0.1,0.3c0,0.5-0.1,1.1-0.2,1.6c-0.3,2.4-0.7,4.9-1,7.4c-1.2,9.9-1.4,19.8-0.7,29.7c0.3,5.1,0.9,10.2,1.8,15.2h-0.1
		c-0.1,0-0.1,0-0.1-0.1c-0.2-0.3-0.4-0.5-0.7-0.7l-0.9-1.2c-0.2-0.1-0.3-0.3-0.4-0.4l-1.8-2.6c-1.1-1.6-2.2-3.3-3.1-5.1
		c-0.4-0.9-0.9-1.7-1.3-2.6c-0.4-0.9-0.3-0.7-0.4-1.1l-0.4-1c-1.5-3.7-2.5-7.6-3.2-11.6v-0.5c-0.1-0.5-0.2-0.9-0.2-1.4
		c-0.1-1.1-0.2-2.1-0.2-3.2c0-1.1,0-4.4,0-6.7c0.4-8.9,1.5-18.3-1.7-26.8c-0.8-2.6-2.2-5-4.2-6.9c-2.2-1.9-5-3.1-7.9-3.3
		c-4.8-0.4-9.8,2-13.6,4.8c-2.1,1.5-3.3,4.4-1.8,6.8c1.5,2.4,4.6,3.4,6.8,1.8c2.2-1.6,1.6-1.1,2.4-1.5l1.2-0.7l0.5-0.3l0.7-0.2
		l0.7-0.3l1.3-0.3h2.4l0.4,0.3l0.3,0.3l0.3,0.2c0.4,0.5,0.6,1,0.8,1.6c-0.1-0.1-0.1-0.1,0.1,0.3l0.2,0.5c0.2,0.6,0.4,1.2,0.5,1.8
		c0.3,1,0.5,2.1,0.7,3.1c0,0.2,0.1,0.4,0.1,0.6v0.1c0.1,0.6,0.1,1.2,0.2,1.8c0.1,2.2,0.1,4.4,0.1,6.6c-0.1,4.4-0.5,8.8-0.5,13.2
		c-0.1,8.7,1.7,17.3,5.1,25.3c1.6,3.7,3.6,7.2,5.9,10.5c1.9,2.7,3.8,5.4,6.5,7.3l6.6,4.1c1.1,0.7,2.3,1.4,3.5,1.9
		c1.7,2.8,4,5.1,6.9,6.7c1.8,1.1,3.8,1.9,5.8,2.6c-0.6,0.6-1.3,1.1-2,1.6l-9.3,7.7l-1,0.8L427,392h-0.4c-0.2,0.2-0.4,0.4-0.7,0.5
		c-0.3,0.4-0.8,0.7-1.2,0.9c-1.6,1.2-3.3,2.4-5,3.4c-1.9,1.2-3.9,2.3-6,3.2l-0.6,0.3H413c-0.1,0-0.1,0-0.1,0.1l-1.7,0.6l-3,1
		l-3.1,0.7h-7.3l-1-0.2c-2.6-0.5-5.6,0.7-6.2,3.5c-0.6,2.8,0.8,5.6,3.5,6.1c8.8,1.8,17.4-0.1,25.4-3.9s13.9-8.9,20.3-14.1l4.6-3.9
		c0.8-0.5,1.5-1.1,2.2-1.7l0.5-0.4h0.2l0.4-0.3l0.6-0.5c2.3-1.7,4.7-3.4,7.2-4.8l0.8-0.5l2-1.1l2.4-1.1h0.6l1.3-0.6l5.6-1.7l2.6-0.5
		l1.4-0.3h0.6c1.9-0.3,3.8-0.4,5.7-0.4c2.1-0.1,4.3,0,6.4,0.2l1.4,0.2h0.8l3.1,0.6c2,0.4,3.9,1,5.8,1.7c-1.7,1.6-2.6,4.2-1.2,6.3
		c1.4,2.1,4.6,3.4,6.9,1.8c3.9-2.7,8.1-5.1,12.5-7.1l1.7-0.8l0.4-0.2h0.3l3.7-1.4c2.2-0.8,4.4-1.5,6.7-2.1c4.7-1.4,9.4-2.4,14.2-3.1
		h1.8l0.9-0.2l3.9-0.4l7.1-0.5c9.3-0.4,18.7-0.1,28,0.9l1.5,0.2h0.7l3.4,0.6l6.5,1.3c4.3,1.1,8.5,2.4,12.6,4l0.7,0.3H608
		c0.2,0,0.4,0.1,0.4,0.2l1.7,0.7l3.3,1.7c2.1,1.1,4.1,2.3,6,3.6l1.4,1.1l0.6,0.4h0.2l2.8,2.4c1.8,1.7,3.5,3.5,5,5.4
		c1.9,2,5.1,2,7.1,0c2-2.2,1.8-4.9,0-7.1c-1.7-2.1-3.6-4-5.6-5.8l0.7-0.3h0.2c0-0.1,0-0.1,0.1-0.1c1.7-0.7,3.5-1.3,5.3-1.7l2.1-0.5
		l1.2-0.2h0.4c1.8-0.1,3.6-0.2,5.4-0.1h1.4l2.2,0.5l2.4,0.7c0,0.1,0.2,0.1,0.3,0.1l1.2,0.6c1.2,0.6,2.4,1.3,3.5,2.1l0.8,0.6h0.2
		c0.7,0.5,1.3,1,1.9,1.6c4.5,4,8.2,8.7,12.3,13c4.5,4.9,9.9,8.9,15.9,11.9c7.4,3.6,15.5,5.2,23.7,4.9c2.8,0,5-2.2,5-5s-2.2-5-5-5
		h-4.9l-2-0.2c-0.2,0-0.7-0.1-0.8-0.1l-1.6-0.3c-1.6-0.3-3.2-0.7-4.8-1.2l-2.4-0.8l-1.1-0.5L694,401c-3-1.4-5.8-3-8.4-5l-0.6-0.4
		l-0.9-0.8c-0.6-0.4-1.1-0.9-1.6-1.5c-1.2-1.1-2.3-2.2-3.4-3.4c-2.7-2.9-5.2-5.9-8-8.7c3.4-2.1,6.2-4.6,8.5-7.6
		c0.1,0.7,0.4,1.3,0.8,1.8c1.6,2.3,4.7,2.8,7,1.1c9.7-5.8,13.1-17.5,16-27.8c1.7-5.9,3.1-11.8,4.7-17.8c0.4-1.4,0.9-2.9,1.2-4.4
		l0.6-2.1c0-0.1,0-0.1,0-0.1l0-0.2c0-0.1,0-0.2,0-0.2l0.4-1.3c0.9-2.9,1.9-5.8,3-8.6c0.5-1.4,1.1-2.8,1.8-4.1
		c0.1-0.3,0.3-0.5,0.3-0.8l0.4-0.4c0.1-0.2,0.3-0.5,0.5-0.6l0.3,0c1.2,2.2,3.7,3.1,6,2.2c2.6-1,3.9-3.9,2.9-6.5
		c-1-3.3-4-5.6-7.5-5.9c-3.6-0.3-7.1,1.1-9.3,3.9c-2.2,2.3-3.4,5.4-4.5,8.3c-1.1,2.9-2.3,6.2-3.2,9.3c-2.1,6.6-3.8,13.3-5.6,20
		c-0.8,3.1-1.6,6.3-2.6,9.5l-0.5,1.9c0,0.3-0.4,1.1-0.5,1.2c-0.1,0.3-0.8,2.6-1.3,3.8c-0.5,1.4-1.1,2.8-1.8,4.1
		c-0.3,0.8-0.6,1.4-1,2.1c-0.1,0.2-0.3,0.4-0.3,0.6l-0.4,0.3c-0.8,1.2-1.7,2.3-2.8,3.3l-0.3,0.3c3.2-6.2,5-13.2,6-20.1
		c1.1-7.7,1.5-15.5,2-23.3l1.8-28.1c0.3-4.5,0.5-9,1-13.5c0-0.3,0.2-1.4,0-0.5l0.3-1.4c0.1-0.9,0.4-1.8,0.7-2.7l0.3-0.5l0.7-1.1
		c0-0.1,0.1-0.2,0.2-0.3l0.9-0.9c0.1,0,0.1,0,0.1-0.1l0.9-0.5l0.5-0.3h0.1l0.6-0.2l2.1-0.5h5.5c1.7,0.3,3.3,0.7,4.9,1.2l2.2,0.8
		l1.1,0.4l0.7,0.3l4.9,2.2c3.4,1.6,6.8,3.2,10.2,5c6.6,3.5,13,7.4,19.2,11.6c3,2.1,6.1,4.3,9,6.5l1.1,0.8l0.4,0.3l2.2,1.8l4.4,3.6
		c5.7,4.8,11.2,9.9,16.5,15.3c5.3,5.4,10.3,11,15.1,16.8l3.5,4.4l0.8,1.1h0.2c0,0.1,0,0.1,0.1,0.3c0.7,0.8,1.3,1.6,1.9,2.5
		c2.3,3,4.4,6,6.5,9.1c9.2,13.5,17.3,27.7,24.2,42.5c1.7,3.8,3.4,7.6,5,11.5l0.4,0.7c0.2,0.5,0.4,0.9,0.5,1.4c0.5,1,0.9,2,1.3,3.1
		c0.8,1.9,1.5,3.9,2.3,5.8c3,8,5.8,16,8.3,24.1c4.9,16.3,9.1,32.9,12.3,49.6c1.7,8.5,2.6,17.2,5.3,25.4c0.7,2.3,1.6,4.5,2.6,6.6
		l1.2,2.7l0.6,1.4c0.2,0.3,0.3,0.7,0.4,1c0.8,1.8,1.4,3.7,1.9,5.7c0.1,0.4,0.1,0.7,0.2,1.1c0,0.1,0,0.3,0.1,0.4v2.7
		c0,0.2-0.1,0.3-0.1,0.4c0,0.3-0.1,0.7-0.2,1l-0.3,1.2c0,0.1-0.1,0.2-0.1,0.3l-0.5,0.9l-0.2,0.3l-1.8-3
		c-5.4-8.5-12.9-15.3-20.9-21.3c-1.6-14.4-3.9-28.7-7.1-42.8c-1.6-7.1-3.5-14.1-5.9-21c-2.7-8-6.3-15.6-9.8-23.2
		c-1.9-4.1-3.7-8.2-5.5-12.2c-0.2-0.6-0.5-1.1-0.7-1.6s-0.2-0.6-0.1-0.4l-0.2-0.4l-1.4-3.3l-2.1-5.7c-2.7-7.4-4.9-14.9-7.3-22.4
		c-5.1-15.4-11.3-30.6-22.4-42.8c-5.8-6.2-12.6-11.5-19.4-16.6c-6.8-5.1-14.7-10.8-22-16.2l-5.6-4.1c-2.1-1.6-5.7-0.4-6.9,1.8
		c-1.3,2.4-0.5,5.3,1.8,6.8l22.3,16.9l5.1,3.7l2.3,1.7l1.2,0.9h0.1l0.6,0.5c3.2,2.5,6.3,5.1,9.2,7.8s2.9,2.9,4.3,4.4s1.3,1.5,2,2.3
		l0.8,1l0.5,0.6c2.3,3.1,4.4,6.3,6.2,9.6c0.9,1.7,1.8,3.4,2.6,5.1c0.4,0.8,0.8,1.6,1.1,2.4l0.6,1.3v0.5c0,0.1,0,0.1,0.1,0.2
		c1.5,3.5,2.8,7.1,4,10.7c2.5,7.3,4.7,14.8,7.2,22.1c2.8,8.3,6.1,16.4,9.8,24.4c1.8,4.1,3.7,8.1,5.5,12.2c1,2,1.9,4,2.7,6.1l0.6,1.3
		c0.1,0.2,0.2,0.3,0.2,0.5c0,0.1,0.1,0.2,0.1,0.3c0.4,0.8,0.7,1.6,1,2.4c2.4,6.4,4.5,13,6.1,19.7c1.9,7.4,3.4,14.7,4.7,22.2
		c0.6,3.5,1.2,7.1,1.7,10.7c0.3,1.7,0.5,3.4,0.8,5.2l-2.1-1.4c-6.7-4.4-13.4-8.8-19.8-13.6l-2.4-1.8l-1.2-0.9h-0.1l-0.7-0.5
		l-5.1-4.1c-3.4-2.8-6.7-5.7-9.9-8.6c-6.5-5.9-12.6-12-18.5-18.4l-8.6-9.9l-1.9-2.4l-0.8-1c-0.1-0.1-0.1-0.2-0.2-0.2l-0.5-0.7
		l-1.8-2.7l-0.7-1.4l-0.4-0.7c-0.2-0.5-0.3-1.1-0.5-1.6s-0.1-0.4-0.1-0.6s-0.1-0.3-0.1-0.4v-1.2c0.1-0.1,0.1-0.2,0.1-0.3
		c0.5-2.6-0.8-5.6-3.5-6.2c-2.7-0.6-5.6,0.8-6.1,3.5c-2.2,10.3,5.6,18.5,11.7,25.7s11.8,13.2,18.1,19.4c12.7,12.2,26.5,23.2,41.2,33
		c6.3,4.2,12.7,8.3,18.8,12.8l1.1,0.8h0.1c0.1,0.1,0.3,0.2,0.3,0.3c0.8,0.5,1.5,1.1,2.2,1.7l4.4,3.6c2.7,2.5,5.2,5.2,7.6,8l0.3,0.5
		c0.2,0.1,0.2,0.2,0.2,0.2l0.4,0.6l1.7,2.3c0.9,1.5,1.8,3.1,2.6,4.7l0.6,1.1c0.1,0.3,0.3,0.9,0.5,1.2c0,0,0,0.1,0.1,0.1
		c0.3,0.2,0.1,0.2,0.1,0.3l0.6,1.6c0.7,2.1,1.3,4.2,1.7,6.4l0.3,1.6c0,0.1,0.1,0.7,0.1,0.9s0.3,2.3,0.3,3.4c0.2,2.3,0.2,4.7,0.1,7
		c-0.1,4.6-0.5,9.3-1,14c-1.6,16.1-3.2,34.2,6.3,48.4c1.2,1.9,2.5,3.6,4,5.2c2,2,5.1,2,7.1,0S892.6,639.4,890.6,637.4z M210.3,543
		c0.1-0.1,0,0-0.1,0.2C210.2,543.1,210.2,543.1,210.3,543z M717.2,308.1c0.4,0.1,0.2,0.2-0.2,0L717.2,308.1z M701.8,272.8
		c0-0.1,0.2-0.1,0.3-0.1L701.8,272.8z"/>
</g>
</svg>
