<?xml version="1.0" encoding="utf-8"?>
<!-- Generator: Adobe Illustrator 24.2.3, SVG Export Plug-In . SVG Version: 6.00 Build 0)  -->
<svg version="1.1" id="bac9017f-fd51-40e0-b9b5-4bf1ddc3ef9e"
	 xmlns="http://www.w3.org/2000/svg" xmlns:xlink="http://www.w3.org/1999/xlink" x="0px" y="0px" viewBox="0 0 1152 864"
	 style="enable-background:new 0 0 1152 864;" xml:space="preserve">
<path d="M854.1,263.1c-3-13.1-6.6-25.9-11-38.6c-3.5-9.9-8.3-20.2-16.7-27c-22.4-18.4-49.2,1.3-67,16.4
	c-38.9,33.1-66.8,76.4-97.6,116.5c-3.8,5.1-7.8,10.2-12.6,14.4s-10,6.6-15.2,9.6s-10.7,6.7-14.1,12.1c-3.4,5.4-5,12-3.2,17.9
	c0.9,2.6,2.3,5.1,4.2,7.1l2.4,2.4c0.8,0.8,2.8,2.2,3,3.1c0.2,0.9-2.9,3.4-4.2,3.9c-2.9,1.2-5.9,1.9-9,2c-13.6,0.6-26.4-5.5-40-6
	c-7.1-0.2-13.4,1.9-20.1,3.8c-2.7,0.9-5.6,1.2-8.4,0.7c-2.9-0.6-5.5-2-8.2-3.2c-5.7-2.7-12.1-3.8-18.4-3.3c-7.2,0.6-14.2,2-21,4.4
	c-6.5,2.3-12.4,5.6-18.6,8.4c-1.6,0.8-5.5,2.9-7.2,1.3c-0.2-0.2-0.3-0.3-0.4-0.4c0.1,0.1,0.2,0.1,0.2,0c0-0.3,1.7-2.7,2.2-3.6
	c6.7-11.8,1.7-27.7-5.4-38.1c-7.1-10.4-17.8-20-26.5-30s-17.2-21-25.4-31.8c-16-21.1-31.7-42.7-50.5-61.4
	c-17.2-17.2-37.1-32.1-60-41c-2.7-1.1-5.6-2.1-8.4-2.9c-1.7-0.6-3.4-1.1-5.2-0.3c-1.5,0.8-2.8,1.8-4,2.9c-4.1,3.7-7.5,8-10.1,12.8
	c-5.5,9.9-7.9,21.2-9.5,32.2c-3.2,22.3-5.4,44.9-7.8,67.3c-0.5,0.7-0.8,1.4-0.8,2.4c-0.2,3-0.3,6.1-0.4,9.1
	c-0.3,2.5-0.5,4.9-0.8,7.4l-10.2,89.9c-1.6,14.8-3.3,29.7-5,44.6c-0.8,6.9-2.2,14.1-0.3,20.9c1.4,4.8,4.1,9.1,7.8,12.5
	c6.8,6.7,16.2,10.9,21.9,18.6c7,9.5,6.7,22.3,11.1,32.9c3.6,8.6,9.7,16.2,18.4,19c-1,1.1-1.9,2.3-2.5,3.7c-1.1,2.6-2.1,5.3-2.9,8.1
	c-2,6.9-3.3,14-4.7,21s-2.8,15-4.4,22.5c-0.6,3-1.2,6-2,8.9c-0.3,1.2-0.6,2.4-1,3.5l-0.3,0.8c0,0.1-0.1,0.3-0.1,0.4l-0.1,0.4
	l-0.1,0.1v-0.1c-0.1,0.2-0.2,0.4-0.4,0.6l-1.9,2.5c-2.4,4-2.5,9.2,1.1,12.5c3.6,3.3,6.9,3.7,10.6,4.7c2.7,0.7,5.4,1.2,8.1,1.6
	c0,0.5-0.1,1.1-0.1,1.6c-0.1,0.4-0.1,0.9-0.2,1.3c-0.7,2.8-1.1,5.6-1.4,8.5c-0.3,4.5,1.2,9.8,4.6,12.9c2.1,1.9,4.8,3,7.6,2.9
	l2.8-0.4h0.4l-0.3-0.3l0.4,0.2h0.1c0,0.1,0.1,0.1,0.1,0.2l0.3,0.4c0.2,0.5,0.4,1,0.5,1.6v0.3c0,0.2,0.1,0.3,0.1,0.5
	c0,0.8,0,1.5,0.1,2.3c0.1,3,0.8,6,2,8.7c2.5,5.3,7.3,9.2,13,10.7c2.6,0.9,5.5-0.4,6.4-3c0.9-2.6-0.4-5.5-3-6.4
	c-0.2-0.1-0.5-0.2-0.7-0.2l-1.4-0.4h-0.1l-0.5-0.3l-1.2-0.7l-0.5-0.4h-0.2l-1.1-1l-0.4-0.5l-0.4-0.3c-0.4-0.7-0.8-1.4-1.2-2.2
	c0-0.2-0.1-0.4-0.2-0.6l-0.3-1.4c-0.1-0.1-0.1-0.2-0.1-0.3c0-0.2,0-0.4-0.1-0.6c0-0.8,0-1.5-0.1-2.3c0-3-0.6-5.9-2-8.5
	c-1.4-2.6-3.8-4.5-6.6-5.3c-1.8-0.4-3.7-0.4-5.5,0.1h-1.1v-0.2c0-0.1,0-0.1-0.1-0.1c0-0.1-0.1-0.1-0.1-0.2s-0.2-0.2-0.1-0.2
	l-0.3-0.5l-0.4-1.1l-0.3-1.1v-0.4c-0.1-0.5-0.1-1.1-0.1-1.6c0-0.2,0.1-0.4,0.1-0.6c0.1-0.7,0.2-1.3,0.4-2c0.2-1.4,0.5-2.8,0.8-4.3
	c0.5-3.5,0.8-7.1-0.4-10.5c-0.7-2.1-2.6-3.6-4.8-3.7h-1.5l-2.3-0.4c-1.7-0.3-3.4-0.6-5-1.1l-4.5-1.2c-0.4-0.2-1.4-0.3-1.8-0.6
	l-0.2-0.1c0-0.1-0.2-0.2-0.4-0.3h0.1l0.4-0.6c0.1-0.1,0.4-0.6,0.5-0.6c0.7-0.8,1.2-1.6,1.7-2.5c2.2-4.7,3.2-10,4.3-15.1
	c2.9-14,5-28.2,8.6-42.1c0.7-2.7,1.5-5.4,2.5-8c0.1-0.2,0.2-0.4,0.2-0.6l0.5-0.8c-0.2,0.2-0.1,0,0.1-0.3h0.1c0.1,0,0.1-0.1,0.2-0.1
	c1-0.7,1.8-1.8,1.9-3.1l0.5,0.2c2.6,0.6,5.3-0.9,6.1-3.5c3.6-8.7,7.2-17.4,10.7-26.1l2.7-6.5c0-0.1,0-0.1,0.1-0.2
	c0.1-0.1,0.1-0.2,0.1-0.3c0.2-0.3,0.4-0.6,0.5-1c0.1-0.1,0.1-0.1,0.1-0.2h0.2c0-0.1,0-0.1,0.1-0.1h1.3l0.9,0.2l2.1,0.7
	c2.8,1,5.5,2.1,8.6,2.2c1.9,0.1,3.7-0.3,5.4-1.2c1.5-0.6,2.7-1.9,3.1-3.5c0.3-1.4,0.2-2.9-0.1-4.3l-1.3-13.8
	c-0.4-3.7-0.9-7.5-1.1-11.3l7,1.8l15.3,3.9c2.7,0.7,5.4-0.9,6.1-3.5c0.1-0.4,0.2-0.8,0.2-1.3c-0.2-7.9-0.5-15.8-0.7-23.6l2.1,0.8
	l0.6,0.3l1.6,0.7c3.9,1.7,8.2,3.6,12.6,3.1c5.2-0.5,9.6-3.9,11.4-8.7c1.4-3.6,1.3-7.7,1.1-11.6c0-1.9-0.1-3.9-0.1-5.9
	c0-0.4,0.1-0.9,0.1-1.3v-0.4c0.2-0.2,0.2-1.1,0.3-1.3c0.1-0.5,0.2-1,0.4-1.4c0-0.1,0-0.3,0.1-0.4h0.1l0.6-1.2l0.7-1l0.5-0.6
	c0.6-0.7,1.3-1.3,2-1.9l0.9-0.8H414c0.1,0,0.1,0,0.1-0.1h0.1l0.2-0.2l0.4-0.3c3.3-2.3,6.9-4.3,10.2-6.5c4.1-2.8,7.7-6.2,10.6-10.1
	c6.5-8.4,9.6-18.9,8.8-29.5c-0.2-2.6-2.2-5.1-5-5c-2.8,0.1-5.3,2.2-5,5c0.2,2.1,0.2,4.3,0,6.4c-0.1,0.5-0.2,1-0.2,1.5
	c0,0.2-0.1,0.4-0.1,0.6s-0.4,2.1-0.7,3.1c-0.2,1-0.5,2-0.9,2.9c-0.1,0.5-0.3,1-0.5,1.5v0.2c-0.1,0.1-0.2,0.3-0.2,0.5
	c-0.9,1.9-2,3.8-3.2,5.6l-0.8,1.3l-0.3,0.3c0,0.1-0.1,0.1-0.1,0.2l-2.3,2.5l-2.1,2.1l-1.2,1h-0.1l-0.5,0.3c-3.2,2.3-6.7,4.2-9.9,6.4
	c-3.7,2.3-6.9,5.3-9.4,8.8c-2.5,3.7-3.3,8.1-3.4,12.5c-0.1,4.4,0.4,7.3,0.1,10.9v0.4c-0.1,0.3-0.1,0.7-0.2,1c0,0.4-0.1,0.8-0.3,1.1
	l-0.2,0.3h0.1l-0.5,0.7l-0.2,0.2l-0.3,0.3c-0.2,0-0.3,0.1-0.4,0.2l-0.5,0.2l-0.5,0.2h-1.2c-0.2,0-0.8-0.1-0.4,0l-0.8-0.2l-3-1
	l-0.6-0.2l-1.4-0.6c-4.5-2-9.2-4.2-14.2-4c-2.7,0.2-5.1,2.2-5,5c0.2,7.7,0.5,15.4,0.7,23.1l-6.6-1.7l-6.5-1.7
	c-2.1-0.6-4.3-1.1-6.5-1.3c-2.5-0.1-4.9,0.8-6.7,2.6c-1.7,2-2.4,4.7-2.1,7.3c0.3,4.4,0.8,8.8,1.2,13.2s0.8,7.3,1.1,11l-2.1-0.7
	c-3.1-1.1-6.3-2.5-9.7-2.2c-2.5,0.2-4.8,1.3-6.6,3c-2,1.9-2.9,4.6-3.9,7.2c-2.1,4.9-4.1,9.8-6.1,14.8s-3.1,7.4-4.6,11.2
	c-0.8-0.7-1.9-1.2-3-1.3c-10.2-0.7-14.8-13.1-16.9-21.4c-2.9-11.4-5-23-13.7-31.7c-6.6-6.6-16-10.7-21.7-18.2
	c-3.2-4.3-3.5-9.1-3-14.2c0.6-7.2,1.6-14.4,2.4-21.6c2.5-22.3,5-44.5,7.5-66.8c2.8,21.2,7.5,42.2,13.9,62.7c0.9,3.4,2.1,6.8,3.3,10
	c1.2,3.5,3.6,6.4,6.8,8c1.8,0.9,3.9,1.1,5.9,0.9c1.8-0.1,3.4-0.9,5.2-1.1l1.3-0.2l0.5,0.2l0,0.2c0.3,0.2,0.6,0.3,0.9,0.6l0.2,0.3
	c0.1,0.1,0.2,0.2,0.2,0.2c0.2,0.2,0.4,0.5,0.6,0.7l0.5,0.7c0,0.1,0.1,0.2,0.1,0.3c0.3,0.7,0.6,1.4,0.9,2.1c0,0.2,0.2,0.8,0.2,0.9
	c0,0.1,0.2,1,0.3,1.4c0.1,0.4,0.3,2.3,0.4,3.4c0.3,4,0.7,8.1,1.6,12c1.8,8,5.8,15.5,11.4,21.5c1.8,1.9,4.8,2.7,7,0.8
	c2.2-1.8,2.7-5,0.8-7.1c-1.1-1.2-2.2-2.5-3.2-3.8l-1.4-1.9l-0.4-0.8c-0.2-0.3-0.4-0.7-0.5-0.9c-0.8-1.4-1.5-2.9-2.1-4.4
	c-0.3-0.7-0.6-1.3-0.8-2l-0.5-1.1c0-0.2-0.2-0.9-0.3-1.2c-0.8-3.2-1.3-6.5-1.5-9.8c0-3.9-0.8-7.8-2-11.4
	c-2.6-6.6-9.3-11.7-16.7-10.3c-1.5,0.2-2.9,0.8-4.3,0.9l-0.2,0l-0.1,0l-0.1,0c-0.1-0.1-0.2-0.2-0.3-0.3l0.1,0
	c-0.2-0.3-0.5-0.5-0.6-0.8l-0.8-1.6c-0.6-1.5-1-3.2-1.6-4.7c-9-28-14.8-57-17-86.4c-0.6-8.3-1.1-16.6-1.1-25c0-0.4,0-0.8,0-1.2
	l-0.1-0.7l0.1,0c-0.1-1.1,0-2.3-0.1-3.4c-0.1-1.1,0.1-4.2,0.1-6.3c0-0.4,0-0.8,0-1.2c1.9-16.5,3.7-33,5.6-49.6
	c1.6-13.8,2.5-27.9,5.5-41.4c2.4-10.6,6.4-21.6,14.9-28.8c33.1,10.4,59.6,34.7,81.5,60.8c12.9,15.3,24.6,31.5,36.7,47.3
	c6.1,7.9,12.2,15.7,18.7,23.3s13,14.3,19.6,21.4c6.6,7.1,12.3,14.4,14.3,23.7c0.8,4.1,1.1,9.3-0.6,13.2s-4.8,6.7-3.7,11.6
	c1.1,4.4,4.8,7.6,9.2,8.3c5,0.9,9.6-1.2,14-3.3c9.2-4.4,18-8.6,28.2-10.3c4.3-0.7,9.2-1.4,13.5-0.5c4.3,0.9,8.1,3.2,12.1,4.8
	c4.4,1.7,9.2,2.1,13.8,1.3c4.5-0.8,8.7-2.7,13.2-3.7c10.1-2.2,20.5,1.5,30.3,3.5s19,3.2,27.9,0c4.3-1.5,8.5-3.8,11-7.7
	s2.3-9.2-0.9-13.1c-3.2-3.9-5.9-4.9-7.2-8.3c-1.3-3.4,0.2-7.5,2.1-10.4c4.7-7.2,14.5-10.2,21.5-14.7s13.8-12.6,19.5-20.1
	c22.5-29.1,43.2-59.8,67.9-87.2c12.2-13.6,25.5-26.5,40.2-37.4c7.2-5.3,15.4-10.4,24.4-11.8c7.5-1.2,15.2,1.5,20.4,7
	c5.2,5.4,8.4,12.5,10.9,19.5c3.2,8.8,5.7,18,8.2,27.1c3.7,13.9,6.9,28,9.5,42.1c0,0.2-0.1,0.4-0.1,0.7c-0.2,15.6-0.3,31.1-1.6,46.6
	c-0.6,7.8-1.6,15.5-2.8,23.1c-0.6,3.5-1.2,6.8-2.1,10.2c0,0.3-0.1,0.6-0.2,0.9c0,0.2-0.2,0.7-0.2,0.8l-0.5,2.2
	c-0.5,1.8-0.9,3.6-1.5,5.4c-1.8,6.4-4,12.7-6.6,18.8c-1.4,3.2-2.9,6.3-4.5,9.3l-0.4,0.7l-0.2,0.5c-0.4,0.8-0.8,1.5-1.3,2.3
	c-0.8,1.4-1.7,3-2.6,4.4c-1.9,2.8-3.7,5.6-5.8,8.3c-2.1,2.7-5.1,5.4-6.3,8.8c-0.9,3.4-0.2,7,2.2,9.8c0.7,0.9,1.4,1.7,2.2,2.5
	l1.8,2.1c-0.2-0.2-0.1-0.2,0-0.1c0,0,0,0,0,0.1c0,0.1,0.1,0.1,0.1,0.2l0.1,0c-0.1,0.1-0.1,0.1-0.1,0.2c-0.1,0.2-0.2,0.4-0.4,0.7
	l-0.6,0.6l-0.8,0.8c-2.8,2.6-5.2,5.5-7.2,8.8c-4.1,6.9-5.9,14.9-5.5,23c0.2,2.6,3.4,4.5,5.8,4.1c2.5-0.5,4.2-3,4.1-5.8
	c0-0.1,0-0.1-0.1-0.1c0-0.4,0.1-0.8,0-1.2l0.4-4.4c0-0.4,0.2-0.8,0.2-1.2c0-0.4,0.1-0.4,0.2-0.7c0.3-1.5,0.8-2.8,1.3-4.2
	c0.4-0.7,0.6-1.3,0.9-2l0.5-0.9l0-0.3l0.3-0.5c0.7-1.2,1.5-2.5,2.4-3.6l1.5-1.9l0.1,0c0-0.1,0.1-0.1,0.1-0.2l0.9-0.8
	c2.9-2.7,5.8-5.7,5.8-9.9c0-3.1-1.2-6-3.4-8.3l-2.2-2.3l-0.9-1.1l-0.3-0.4c0.9-1.4,2.2-2.6,3.2-3.9c2.2-2.6,4.1-5.3,6-8.2
	c15.5-23,22.5-50.5,25.4-77.8c2.4,28.5,2.6,57.2,0.5,85.8c-0.4,4.9-0.7,9.7-1.3,14.5s-1.1,8.1-3.2,11.5c-3.9,6.3-12.2,8.1-16,14.6
	s-0.9,14.4-1.1,21.5c0,6.1-0.8,12.1-2.3,18c-0.6,2.4-1.5,4.8-2.6,7c-0.4,0.8-0.9,1.6-1.6,2.2c-0.2,0.2-0.3,0.4-0.5,0.5h-0.2
	l-0.4,0.3h-0.2c-2.2,0.7-3.7,2.8-3.5,5.1H820c-2.8,0-5.6,0.2-8.3,0.6c-5.6-3.7-11.9-6.4-18.1-8.9L786,522l-1.2-0.5l-1.5-0.7
	l-3.4-1.7l-1.7-1.1l-0.7-0.5l-0.5-0.3l-0.2-0.2l-0.7-0.6l-1.3-1.3l-0.5-0.6c-0.1-0.1-0.1-0.2-0.2-0.2l-0.9-1.6
	c-0.2-0.2-0.3-0.5-0.4-0.8c-0.1,0-0.3-0.5-0.3-0.7c-0.1-0.1-0.1-0.1-0.1-0.2l-0.4-1.2c-0.2-0.7-0.3-1.4-0.5-2.2s-0.1-0.7-0.1-1
	c-0.3-1.8-0.5-3.6-0.9-5.4c-0.7-3.3-2.6-6.3-5.2-8.5c-2.3-1.8-5-3-7.8-3.6l-1.6-0.2l-1.5-11.6c0-1.7-0.9-3.3-2.4-4.3
	c-1.6-0.9-3.5-0.9-5.1,0l-3.6,2.1c0.3-2.5,0.2-5.1-0.2-7.6c-0.5-3.6-2.7-6.7-5.8-8.5c-4.9-2.6-10.3-1.4-15.1,0.8l-1.8,0.8l-0.7,0.4
	c-0.1-0.4-0.1-0.7-0.1-1.1c-0.2-1.5-0.3-2.9-0.3-4.4c-0.1-3,0-5.9,0.2-8.9c0.3-5.6,0.7-11.2-0.2-16.8c-0.8-4.7-2.7-9-5.7-12.7
	c-2.9-3.7-6.7-6.2-10.4-8.9l-1.1-0.8c-0.3-0.1-0.5-0.3-0.7-0.6c-0.9-0.7-1.7-1.4-2.4-2.2l-0.4-0.5c-0.2-0.4-0.6-0.8-0.8-1.2
	c0,0.6,0,0.1-0.1-0.2c0-0.1-0.1-0.3-0.1-0.4c0-2.8-2.2-5-5-5s-5,2.2-5,5c0.2,4.6,2.8,8.4,6.1,11.3c1.7,1.5,3.6,2.9,5.5,4.2l2,1.5
	l0.9,0.6l0.2,0.2h0.2c0.8,0.6,1.5,1.3,2.2,2l1,1.1l0.6,0.7c0.6,0.8,1.1,1.6,1.6,2.5l0.4,0.9l0.4,1c0.4,0.9,0.6,1.9,0.8,2.9
	c0,0.3,0.1,0.5,0.1,0.8c0.1,0.1,0.1,0.4,0.1,0.4s0.1,0.7,0.1,1.1c0.1,2.7,0,5.5-0.1,8.2c-0.2,5.7-0.7,11.5-0.2,17.2
	s0.9,11.1,6.3,12.4c2.2,0.4,4.4,0.1,6.4-0.8l3.9-1.8l0.9-0.4l0.6-0.2h0.2l1.4-0.5l0.7-0.2h2.2c0,0,0,0,0.1,0c0,0,0,0.1,0.1,0.1h0.2
	c0,0.1,0,0.1,0.1,0.2h-0.1l0.1,0.1h0.1l0.4,0.5c0,0.3,0.2,0.7,0.2,1s0.1,0.1,0.1,0.2v0.1c-0.1,0.2-0.1,0.5,0,0.7v0.1
	c0,0.9,0,1.7-0.1,2.6c0,0.4,0,0.9-0.1,1.3v0.2c-0.5,3-1.2,5.9-1.8,8.9c-0.5,2,0.2,4,1.8,5.3c1.6,1.2,3.8,1.4,5.6,0.3l6.6-3.8
	c0.4,3.5,0.9,6.9,1.3,10.4s1.4,4.3,3.7,4.8c1.9,0.5,3.9-0.1,5.2-1.6l1.3,0.3l0.3,0.2l1.1,0.5l0.7,0.5l0.6,0.6l0.2,0.3
	c0.1,0.1,0.2,0.2,0.2,0.4l0.3,0.5l0.4,1.3c0.3,1,0.4,2.1,0.6,3.1v0.6l0.3,2.1l0.6,3.1c0.6,2.1,1.4,4.1,2.5,5.9
	c2.1,3.4,5,6.4,8.4,8.5c3.3,2,6.8,3.7,10.4,5l4.9,1.9l2.4,1l1.7,0.6l0.7,0.3l0.6,0.3c4.4,1.8,8.7,4,12.7,6.6c1.7,1.2,3.2,2,5.4,1.5
	l1.1-0.3h0.8c1.8-0.3,3.5-0.4,5.3-0.3c3,0.1,6.1-0.1,9.1-0.4l-2.7,6.5c-1.2,3,1.8,6.6,4.8,6.4c1.9-0.2,3.9-0.2,5.8,0h1l1.3,0.2
	c-5.3,3.9-9.4,9.3-11.8,15.5c-0.8,2.1,0.5,4.6,2.3,5.7c3.6,2.1,7.2,4.1,10.7,6.3h0.1v4.9c0.1,7.7,0,15.3,0,22.9s-0.1,15.3-0.3,23
	c0,1.6-0.1,3.2-0.1,4.9c-0.2,0.2-0.3,0.4-0.4,0.6l-0.4,0.4c-2.5,2.9-5.2,5.4-6.6,9.1s-1,7.6-1.4,11.4c0,0.1-0.1,0.7-0.1,0.8
	l-0.3,1.2v0.2c0,0.1-0.1,0.1-0.1,0.2l-0.3,0.4c-0.5,0.4-1,1-1.5,1.5l-1.1,0.7c-2.9,2-6,3.9-7.7,7.1c-1.1,2.2-1.6,4.6-1.6,7.1
	c-2,0.3-3.7,1.7-4.3,3.7c-0.7,2.9,0.8,5.2,3.5,6.2c2.6,0.9,5.5,0.2,7.5-1.8c1.9-1.8,3-4.2,3.2-6.8c0.1-0.8,0.1-1.7,0.2-2.5
	s0-0.6,0.1-0.7v-0.3c0.2-0.2,0.3-0.5,0.4-0.5c0.3-0.2,0.5-0.4,0.7-0.7l0.5-0.4c2.4-1.7,5.2-3.2,7.1-5.5s3.9-7.3,4.1-11.7
	c0-1.5,0-3,0.2-4.5c0-0.1,0.1-0.7,0.1-0.8l0.3-0.9c0.1-0.2,0.2-0.5,0.3-0.7l0.7-1.1h0.2l0.8-1l1.8-1.8c1.3-1.4,2.5-3,3.4-4.7
	c0.9-1.9,0.8-4.2,0.9-6.2c0.4-15.7,0.4-31.4,0.3-47.1c0-2.5,0.1-4.9,0-7.4c0-2.4-1.2-4.7-3.1-6.2c-1.9-1.5-3.9-2.8-6.1-3.9l-2.5-1.5
	l0.5-0.9l0.8-1.1h0.1l0.3-0.4l1.9-2.1l1.9-1.7c0.1,0,0.1,0,0.1-0.1l0.5-0.3l1.2-0.8c1.8-1.2,3.8-1.9,5.1-3.7c1.9-2.3,2.1-5.5,0.5-8
	c-1.4-2.1-3.6-3.7-6.1-4.4c-2.3-0.7-4.7-1.2-7.1-1.5c0-0.1,0.1-0.3,0.1-0.4c0.9-2.2,2.3-4.6,2.2-7.1c-0.1-1.6-0.8-3.2-2-4.3
	c4-4.1,6-10.2,7.2-15.6c2-8.2,2.7-16.6,2.1-25c-0.2-2.7-1.2-5.7-0.7-8.4s1.7-3.4,3.3-4.6c4.2-3.3,8.9-5.6,12.2-10.1
	s4.9-11.4,5.6-17.6s1.2-13.5,1.6-20.2C872.9,375.7,867.8,318.5,854.1,263.1z M283.8,641.7c0-0.1,0-0.2,0.1-0.2
	C283.9,641.6,283.9,641.7,283.8,641.7z M408.4,461.2c0.1-0.7,0.1-0.1,0,0.2V461.2z M350.1,506.9c-0.2,0.1-0.3,0.1-0.4,0H350.1z
	 M331.8,538.5C331.7,538.5,331.7,538.6,331.8,538.5C331.7,538.5,331.8,538.5,331.8,538.5z M733.4,470.1v-0.4
	C733.5,469.9,733.5,470,733.4,470.1z M832.8,541.8h0.2C833,541.9,833,541.9,832.8,541.8z M843.2,553l-0.4,0.2
	C843,553,843.1,553,843.2,553z"/>
<path d="M406.8,358.2c3.8,9.6,5.9,19.8,7.9,29.9c0.7,2.6,3.5,4.2,6.1,3.5c2.6-0.8,4.1-3.5,3.5-6.1c-1.8-9-3.6-18.1-6.7-26.7
	c-3.1-9.1-8-17.5-14.4-24.7c-11.6-13.1-27.2-21.8-38.9-34.9l-2.3-2.8l-0.4-0.4c0-0.1,0-0.1-0.1-0.1v-0.2l-0.9-1.3
	c-1.4-1.9-2.7-3.9-3.8-6l-1.5-3.2c-0.1-0.2-0.2-0.5-0.3-0.8l-0.6-1.7c-0.8-2.2-1.3-4.5-1.6-6.9c-0.4-2.6-3.8-4.2-6.2-3.4
	s-3.9,3.3-3.5,6.1c2.5,17.8,16.3,31.2,29.7,42c6.8,5.5,13.8,10.8,20,17c1.6,1.6,3.1,3.2,4.5,4.9l1.1,1.3l0.4,0.5l2,2.8
	c1.3,1.9,2.5,3.9,3.5,6c0.5,0.8,0.9,1.7,1.4,2.7c0.2,0.5,0.4,1,0.7,1.5v0.2C406.6,357.7,406.7,357.9,406.8,358.2z"/>
<path d="M695.2,337.7c2.9-3.4,5.3-7.2,7.2-11.2c1.8-3.6,3.3-7.4,4.9-11l2.4-5.7l0.5-0.8l0.5-1l1.5-2.7l3.4-5l1.9-2.2l0.3-0.3
	l1.3-1.3c2.7-2.9,5.8-5.4,9-7.7l0.7-0.5l1.3-0.8l3-1.7c1.9-1,3.9-1.9,6-2.7c0.6-0.2,1.1-0.4,1.7-0.6l0.6-0.1l3.2-0.9l6.8-1.3
	c2.7-0.4,4.4-3,4-5.7c0-0.1,0-0.1,0-0.2c-0.6-2.6-3.2-4.4-5.9-3.9c-17.3,2.5-32.9,12-43.1,26.2c-4.9,7-7.8,15.1-11.3,22.9l-1.3,2.7
	l-0.4,1l-0.7,1.3c-1,1.7-2,3.4-3.2,5l-1,1.3c-0.2,0.2-1.2,1.3-0.4,0.5c-0.7,0.7-1.3,1.5-2.1,2.2l-4.6,4c-3.8,3.3-7.4,6.9-9.4,11.5
	c-1,2.5-1.7,5.1-2.2,7.8l-2,8.3c-0.6,2.6,0.3,5.6,3.1,6.4c2.8,0.9,5.7-0.4,6.3-3.1c1.1-4.7,2-9.6,3.5-14.2l0.5-1.4l0.4-0.8
	c0,0,0,0,0-0.1c0.4-0.7,1.4-2.3,1.5-2.5c0.1,0,0.2-0.2,0.2-0.4l1-1c0.7-0.7,1.5-1.4,2.2-2.1C689.5,343.4,692.5,340.6,695.2,337.7z
	 M741.2,282.2l-0.4,0.1C740.9,282.2,741.1,282.1,741.2,282.2z"/>
</svg>
