<?xml version="1.0" encoding="utf-8"?>
<!-- Generator: Adobe Illustrator 24.2.3, SVG Export Plug-In . SVG Version: 6.00 Build 0)  -->
<svg version="1.1" id="f691d261-4fe2-46f9-bbf1-030baefbcd5a"
	 xmlns="http://www.w3.org/2000/svg" xmlns:xlink="http://www.w3.org/1999/xlink" x="0px" y="0px" viewBox="0 0 1152 864"
	 style="enable-background:new 0 0 1152 864;" xml:space="preserve">
<path d="M894.6,524.9c-1.1-9.8-2.9-19.5-5.6-29c-2.7-9.3-5.9-18.5-9.8-27.4c-7.1-17-15.2-33.6-24.3-49.6
	c-17.1-29.9-40.4-57.7-72.8-71.3c-9.4-3.9-19.3-6.3-28.7-10.1c-1.8-0.6-3.5-1.4-5.1-2.3l1.2-1.8c2.6-4.2,5.4-8.2,8.6-11.9
	c2.5-2.9,1.7-7.3-2.2-8.4c-9.7-2.9-19.8-4.6-29.9-5l1.1-2.1c0.3-0.4,0.6-0.8,0.8-1.2l0.7-1c2.8-3.2,5.9-6.2,9.2-9
	c3.9-3.4,10.2-7.4,8.4-13.4c-1.1-3.5-4.4-4.8-7.7-5.4l-7.4-1.1c-9.6-1-19.3-0.5-28.7,1.4c-0.2-2-1.6-4-2.9-5.5
	c-5.5-6-14.1-4.8-21.3-3.7c-5,0.7-9.9,1.8-14.8,3c-1.9-3.4-4.2-6.5-7-9.2c-4.2-3.9-9.1-7.2-14.9-7.8c-5.8-0.6-11.2,2.1-16.4,3.8
	l-15.6,4.9c-5.2,1.6-10.4,3.3-15.5,5.3s-9.9,4.2-14.8,6.4l-1.4,0.6h-0.1l-0.6,0.3l-3.2,1.2l-2.8,0.8l-1.5,0.3h-0.8
	c-1.1,0.1-2.1,0.2-3.2,0.1h-2.7c-1.4-0.1-2.7-0.4-4-0.8l-3.9-1.1c-5.1-1.6-10.1-3.4-15.4-4.4c-5.8-1-11.7-0.9-17.4,0.5
	c-5,1.3-9.8,3-14.6,4.9c-2.4,0.9-4.8,1.7-7.3,2.3l-2.9,0.6h-2.1c-0.8,0.1-1.7,0.1-2.5,0h-1.6c-1.7-0.4-3.1-1-4.7-1.4
	c1.5,0.4,0.2,0-0.2-0.2l-1.1-0.5l-2.2-1.2l-4.1-2.9h-0.1l-0.9-0.8c-0.8-0.5-1.5-1.1-2.2-1.7l-3.9-3.4c-3-2.6-6.1-5-9.4-7.2
	c-3.5-2.2-7.1-4-10.9-5.5c-4.3-1.7-8.6-3.3-13.3-3.6c-4.7-0.3-10.5,2-11.7,7.3c-0.2,1.2-0.2,2.4-0.1,3.6c-11.1-3.5-22.6-5.9-34.2-7
	c-2-0.2-4.3,1.7-4.8,3.7c-0.6,2.2,0.4,4.5,2.3,5.6l2,1.3l0.7,0.5l0.6,0.5c0.7,0.6,1.5,1.4,2.1,2.1c-13.7-2.4-27.6-2.8-41.4-1.1
	c-2.1,0.3-3.7,1.1-4.6,3.1c-0.8,1.9-0.3,4,1.1,5.4l3.1,3.1c-18.9,3.1-37.2,9.3-54.1,18.3c-2.6,1.4-3.5,5.9-1,7.8l2.8,2.2l-20.2,7.2
	c-2.7,0.8-4.2,3.5-3.4,6.2c0.3,1.2,1.1,2.3,2.2,2.9l9.8,7.2c-15.8,3.1-30.8,9.4-44.1,18.5c-2.9,2-3.5,6.8,0,8.7l4.8,2.5
	c-10.5,9.9-19.7,21-27.4,33.1c-8.9,14.1-15.8,29.4-20.3,45.4c-2.6,9.2-4.4,18.6-5.4,28.1c-0.3,2.5,2.2,4.8,4.6,5v1.1
	c0,0.4-0.1,0.7-0.1,1.1l-0.6,2.1c-0.9,2.5-1.8,4.9-2.6,7.4l-5.1,14c-1.7,4.7-3.9,9.6-3.8,14.7s2.7,8.3,3.5,12.6c0,0.3,0.1,0.7,0.2,1
	c0,0.4,0,0.7,0.1,1.1v3c0,2.2-0.2,4.3-0.4,6.5c-0.7,8.3-1.5,18.8,5.1,25.2c3.6,3.4,8.9,4.3,13.5,2.4c4.5-1.7,8.3-4.8,11.9-7.8
	c6.6-5.6,12.4-12.1,17.1-19.3c3.8-5.8,7.3-11.8,11.4-17.4c0.1-0.3,0.3-0.5,0.5-0.7c-0.1,0,0.4-0.6,0.5-0.6l1.5-1.9
	c1.2-1.3,2.4-2.6,3.7-3.8l1.6-1.3c0.1-0.2,0.3-0.3,0.5-0.4l0.9-0.7l2.1-1.2l1-0.6l1.1-0.4c1.6-0.7,3.3-1.2,5.1-1.4h7.2l1.7,0.2h1.4
	l1.3,0.2c-0.4,0.4-0.8,0.8-1.1,1.3l-17.3,25.1c-5.2,7.5-11.3,15.2-13.3,24.4c-0.6,2.2,0.4,4.5,2.3,5.7c2,1.1,4.4,0.8,6-0.8
	c2.2-2.4,4.5-4.7,6.9-6.8l3.6-2.9c0-0.1,0-0.1,0.1-0.1l0.2-0.2l1-0.7l1.9-1.4l4.5-2.8c-2.4,7-3.7,14.2-3.9,21.6
	c-0.2,3.7,4.3,6.2,7.5,4.3c1.4-0.9,2.9-1.7,4.4-2.5l1.2-0.5l0.4-0.2l2.3-0.9l4-1.2c1,16.5,7.2,32.3,17.7,45c1.6,2.1,5.3,1.9,7,0
	c1.9-1.9,1.9-5.1,0-7c-0.2-0.4-0.5-0.9-0.8-1.2c0.1,0-0.6-0.8-0.7-1l-1.7-2.4c-1.1-1.7-2.2-3.5-3.2-5.3c-1.1-1.8-2-3.7-2.8-5.6
	l-0.3-0.7l-0.6-1.4c-0.4-0.9-0.7-1.9-1.1-2.9c-1.3-4-2.3-8.1-2.9-12.2c-0.1-0.1-0.1-0.3-0.1-0.5c-0.1-0.5-0.1-1-0.2-1.4l-0.3-3.4
	c-0.1-2.1-0.1-4.1,0-6.2c0.1-2.1-2.4-5.4-5-5c-4.8,0.6-9.5,1.8-14,3.5c0.4-2.3,0.9-4.6,1.6-6.9c0.7-2.6,1.6-5.1,2.6-7.6h0.1l0.4-1
	l0.9-1.8c0.6-1.3,1.3-2.6,2-3.8c1-1.7,0.8-3.9-0.4-5.5c-1.1-1.5-3.4-2.6-5.3-1.8c-4.8,1.9-9.5,4.2-13.9,6.9l0.8-1.2l17.1-24.7
	c0.9-1.4,0.8-3.4-0.1-5l3.3,0.6l32.9,5.9c2,0.5,4-0.2,5.3-1.8c1.2-1.6,1.4-3.8,0.4-5.5l-4.4-8l14.4-1.8c2,0,3.8-1.3,4.6-3.1
	c0.5-1.3,0.4-2.7-0.1-3.8c3.4,1.1,6.9,1.4,10.4,0.7c2.6-0.4,4.2-3.8,3.5-6.1s-3.4-4-6.2-3.5c0.7-0.1,0.4-0.1-0.1,0h-0.8
	c0.6-1.2,1.1-2.5,1.7-3.7c0.6-1.2,1.7-3.1,2.6-4.6l1.4-2.2l0.8-1.1v-0.2l0.3-0.3c1-1.2,2-2.4,3.2-3.4l1.8-1.6l0.2-0.2l1-0.6
	c0.6-0.5,1.3-0.9,2-1.3l1-0.5l0.8-0.3l0.5-0.2l1.1-0.4l2.5-0.5c3.6-0.6,5-6.1,2.2-8.4c-2.5-2.1-5.3-3.9-8.3-5.4l3.6-2l1-0.5l0.5-0.3
	c0.4-0.1,0.3-0.1-0.3,0.2c-0.6,0.3,1.6-0.6,2.1-0.8c1.4-0.5,2.8-0.9,4.2-1.2l2-0.4h1.3c1.5-0.1,3-0.1,4.5,0h2.2l1.3,0.2
	c2.1,0.4,4.6-0.2,5.6-2.3c1.1-1.9,0.8-4.4-0.7-6c-1.9-2.1-4.1-4-6.4-5.6h0.3l4.6-0.3c3-0.1,6,0,9,0.2l2.3,0.3h0.3l1.1,0.2l4.8,1
	c2.4,0.6,4.9-0.6,5.9-2.9c0.9-2.3,0-4.9-2.1-6.2l-2-1.4c7.4,1.3,14.6,3.3,21.5,6.1l0.8,0.3h0.1l1.5,0.7l3,1.4c2,1,4,2,6,3.2
	s5.6,0.6,6.8-1.8c1.4-2.4,0.6-5.5-1.8-6.9c-14.7-8.3-31.2-13.2-48.1-14.1c-4.6-0.3-9.2-0.2-13.8,0.1c-2.5,0.1-4.5,1.9-4.9,4.3
	c-0.3,2.5,1.2,4.8,3.6,5.5l1,0.4c-5,0.5-10,1.5-14.8,3.1c-2.2,0.6-3.7,2.5-3.7,4.8c0.1,2.4,1.6,3.9,3.7,4.8h0.2c0.1,0,0.1,0,0.1,0.1
	l1.2,0.5l1.8,0.9c-8.6,1.7-16.4,6.1-22.2,12.7c-1.3,1.3-1.7,3.2-1.3,4.9c0.5,1.7,1.8,3,3.5,3.5l3.6,1l0.8,0.3
	c-3.2,2-6.1,4.5-8.5,7.4c-5,6.1-8.2,13.2-11.3,20.4c-0.2,0.5-0.3,0.9-0.4,1.5L330,470.2c-1.7-2-5.4-1.8-7.1,0s-1.8,4.9,0,7.1
	l9.1,11.4l-12.8,1.6c-1.8,0-3.4,1-4.3,2.5c-1,1.5-1,3.5,0,5c0.9,1.8,1.8,3.5,2.8,5.2l-18.8-3.3l-14.4-2.6c-4.8-1-9.8-1.2-14.7-0.8
	c-7.8,1.1-15.1,4.8-20.5,10.6c-5.1,5.2-9,11.5-12.9,17.6c-3.9,6.1-8,12.5-13.3,18.1c-1.5,1.5-2.9,2.9-4.5,4.3l-2.3,2l-1.2,1
	l-0.6,0.5l-0.1,0.1c-0.1,0-0.2,0.1-0.3,0.2c-1.6,1.2-3.3,2.4-5.1,3.4l-0.3,0.2h-0.3l-1.4,0.5h-1.2l-0.4-0.2l-0.6-0.5
	c-0.1-0.1-0.2-0.1-0.2-0.2c-0.1-0.1-0.1-0.1-0.1-0.2l-0.7-1.1c0-0.1-0.1-0.2-0.1-0.3c-0.1-0.1-0.1-0.1-0.1-0.2l-0.5-1.4l-0.3-1.4
	c0-0.2-0.2-1.4-0.2-1.4c-0.5-4,0-8.1,0.4-12.1c0.5-4.4,0.4-8.8-0.3-13.2c-0.4-2-0.9-3.9-1.7-5.8c-0.4-1-0.8-2-1.1-2.9l-0.3-1.3
	c0-0.2,0-0.3-0.1-0.5c0-0.4,0-0.8,0.1-1.2c0-1.6,1.2-4.7,1.9-6.9s1.9-5.2,2.9-7.9c1.9-5.2,3.7-10.5,5.6-15.7s2.3-8.1,1-12.2
	c-0.6-2.1-1.8-4-3.6-5.3c0.1-0.4,0.2-0.9,0.2-1.3c0.3-2,0.6-3.9,1-5.9c0.8-3.9,1.6-7.8,2.7-11.7s2.1-7.7,3.4-11.4l2.1-5.7l1.1-2.6
	c0.1-0.5,0.3-1,0.5-1.4c0.1-0.1,0.1-0.3,0.2-0.4v-0.3c3.2-7.4,6.9-14.6,11.2-21.5c2-3.4,4.2-6.7,6.6-10c0.5-0.8,1.1-1.5,1.7-2.3
	c0.2-0.4,0.5-0.8,0.8-1.2l0.6-0.8l3.7-4.5c5.8-6.9,12.1-13.4,19-19.3c2.4-2,1.7-6.4-1-7.8l-3.6-1.9c1.7-1,3.4-2,5.2-2.9
	c3.9-2.1,7.9-3.8,12.1-5.3c4.4-1.6,8.9-2.9,13.5-4l7.2-1.4l1.5-0.2h1.3l3.6-0.4c5.1-0.5,6.6-6.3,2.6-9.3l-12.1-8.8l19.9-7.3
	c1.7-0.5,3-1.8,3.5-3.5c0.4-1.5,0-3.8-1.3-4.8l-3.7-2.9c7.1-3.4,14.4-6.2,21.9-8.5c5-1.6,10.1-2.9,15.3-3.9l7.8-1.5l3.5-0.5h1.6
	l2.2-0.2c2.8-0.1,5-2.5,4.9-5.3c0-1.2-0.5-2.4-1.4-3.3l-2.2-2.6c4.9-0.2,9.7-0.2,14.6,0.1c8.2,0.5,16.4,1.8,24.4,3.9
	c3.6,0.9,7.4-2.4,6.2-6.2c-0.9-2.6-2-5.1-3.4-7.4c3.9,0.8,7.9,1.7,11.7,2.8c3.8,1.1,8.6,2.6,12.8,4.2c2.6,1,5.2,2,7.7,3.2
	c-1.1-0.2-2.2-0.5-3.3-0.7c-2.6-0.8-5.4,0.7-6.2,3.3c-0.7,2.3,0.3,4.8,2.4,5.9l1,0.7h0.1c0.1,0,0.1,0,0.1,0.1l1.9,1.5
	c0.1,0.1,0.1,0.1,0.1,0.2c-4.2-0.5-9.1,0.3-11.1,4.6c-1.1,2.4-0.7,5.5,1.8,6.9c2.5,1.4,5.4,0.7,6.7-1.7h1.4
	c-0.3-0.1-0.6-0.2,0.2-0.1h0.9l11.6,3.2c2.7,0.8,5.4-0.8,6.2-3.4c0.4-1.3,0.2-2.7-0.5-3.9c-0.7-1.3-1.5-2.6-2.3-3.8l4.7,1.6l3.4,1.4
	l0.9,0.3h0.1l1.9,0.8c2.3,1.1,5.5,0.8,6.8-1.8s0.8-5.2-1.8-6.3c-5.9-2.7-12-4.9-18.2-6.7c1-0.4,1.8-1,2.3-2c1.3-2.5,0.7-5.6-1.8-6.8
	c-2.5-1.2-5.2-2.5-7.9-3.6l-0.9-1l-0.8-1c-0.4-0.7-0.8-1.4-1.2-2.1c-0.2-0.2-0.3-0.5-0.4-0.8c-0.1-0.2-0.2-0.4-0.2-0.6v-0.2h0.1
	c0.3-0.1,0.4-0.1,0.3,0h0.8c0.2,0,1.3-0.1,1.5,0.1h0.4c1.1,0.2,2.2,0.5,3.3,0.9c1.9,0.6,3.8,1.3,5.7,2.1c0.7,0.4,1.4,0.7,2.1,0.9
	c-0.3-0.1-0.5-0.3-0.1-0.1h0.6l1.5,0.7c1.6,0.8,3.1,1.7,4.6,2.7l2,1.4l1,0.8l0.5,0.3l4,3.3c2.6,2.2,5.1,4.4,7.8,6.5
	c5.9,4.6,12.4,8.1,20.1,8.8c7.7,0.7,17.8-3.7,26.4-6.6c2.4-0.8,4.8-1.5,7.2-2l1.7-0.3h1c1.3-0.1,2.5-0.2,3.8-0.1h3l3.9,0.7
	c2.5,0.6,4.9,1.3,7.3,2.1c5.3,1.6,10.4,3.4,15.9,4c4.5,0.5,9.1-0.1,13.4-1.5c4.4-1.6,8.7-3.4,12.8-5.6l3.2-1.5h0.3l0.8-0.3l1.9-0.8
	l7.3-2.7c10-3.5,20.2-6.3,30.2-9.7l3.5-1.2l1.7-0.5h3.1l0.8,0.2l1.3,0.4l0.3,0.2l1.1,0.5l2.5,1.7c0.2,0.1,0.7,0.5,0.8,0.7l1.5,1.3
	c0.8,0.7,1.5,1.5,2.2,2.3l0.8,1l0.3,0.3c0.1,0.3,0.3,0.5,0.5,0.8l0.4,0.6c-4.9,1.7-9.7,3.5-14.5,5.7c-6.8,3-13.4,6.6-19.7,10.6
	c-1.1,0.6-1.8,1.6-2.2,2.7c-0.5,0-0.9,0-1.4,0.1c-8.1,1.2-15.9,4.3-22.7,8.9c-2.1,1.5-3.3,4.5-1.8,6.8s4.6,3.4,6.9,1.8l4.8-2.9
	l1.6-0.8c-0.6,1.2-1.1,2.4-1.5,3.6c-0.7,2.7,0.9,5.4,3.6,6.1c0.8,0.2,1.7,0.2,2.5,0l1.3-0.2h0.8l2.4-0.2c1.8-0.1,3.7-0.1,5.5,0.1
	h0.6l1.2,0.2l2.3,0.5c0.5,0.4,1.1,0.7,1.7,0.9l4.3,1.2c2.4,0.6,4.9-0.6,5.9-2.9c0.9-2.1,0.3-5.3-2-6.3l-1.2-0.5h-0.1
	c-4.9-2-10.2-3.1-15.5-3.2l0.6-0.9c0.1,0,0.1,0,0.1-0.1l0.7-0.8l2.8-3c0.5-0.5,0.9-1.1,1.2-1.7c0.9,0.1,1.8-0.1,2.6-0.7
	c4.5-2.9,9.1-5.5,13.8-7.9l7-3.3l0.9-0.4h0.1l1.7-0.7l3.9-1.5c9.8-3.5,20-6.1,30.3-7.6h0.2l1.1-0.2l2.4-0.2h3.8l1,0.3h0.3
	c-0.3,0.4-0.7,0.8-1.1,1.1l-0.3,0.2c0,0.1,0,0.1-0.1,0.1l-1.2,0.8l-2.6,1.5c-0.8,0.3-1.4,0.9-1.8,1.6l-7.9,3.7
	c-9.4,5-18,11.5-25.2,19.4c-1.7,1.9-2,5.2,0,7c1.9,2,5.1,2,7.1,0c2.9-3.2,6.1-6.2,9.5-8.9l0.6-0.4c0-0.1,0.1-0.2,0.2-0.2l0.3-0.2
	l0.7-0.6l2.7-1.9c1.8-1.2,3.6-2.4,5.5-3.5c7.2-4.3,15-7.5,23.1-9.4l6.5-1.4l3.1-0.5h0.6l1.8-0.3c4.4-0.4,8.7-0.5,13.1-0.3l6.4,0.5
	h0.5l1.3,0.2l-3.7,3.2c-7.5,6.5-14.6,14-15.1,24.4c-0.2,2.7,2.4,5,5,5c8.8-0.1,17.6,0.9,26.2,2.9l-3.8,5.4c-2.7,4.2-6.4,9.3-3,14.2
	c1.4,2.1,3.5,3.2,5.7,4.3l7.4,3.1c4.3,1.6,8.6,3,12.9,4.4c8.7,2.8,15.7,5.3,23.5,9.7c3.5,2,7,4.1,10.3,6.5c3.5,2.5,5.9,4.4,9.4,7.4
	c27,23.5,43.4,56.1,58.1,88.5c4.5,9.6,8.4,19.6,11.6,29.7c1.5,5.1,2.8,10.2,3.9,15.4c0.8,3.5,1.4,7.2,2,10.7l-12.8,0.4
	c-3.1,0.1-5.9,3.2-4.8,6.4c3.5,10.3,4.7,21.2,3.7,32c-0.4,5.3-1.5,10.5-3.1,15.6c-0.3,1-0.6,2-1,2.9c-0.1,0.2-0.1,0.4-0.2,0.6h-0.1
	l-0.7,1.6c-0.5,0.9-1,1.8-1.6,2.7l-0.7,1l-0.8,0.9c-0.3,0.4-0.6,0.7-1,1c-0.3,0.3-1.2,0.9-0.4,0.4c-0.4,0.3-0.8,0.6-1.3,0.8
	l-0.7,0.4l-1.3,0.4l-0.7,0.2h-0.1c-1.1,0-2.3-0.1-3.4-0.3c-5.5-1.3-10.3-3.7-15.3-6s-10.5-5-15.6-7.7c-2.2-1.1-4.3-2.3-6.3-3.7
	l-0.4-0.2l-0.3-0.3l-1.1-1c-0.3-0.4-0.7-0.8-1.1-1.1c-0.1-0.3-0.3-0.6-0.5-0.8l-0.3-0.6c-0.1-0.2-0.1-0.5-0.2-0.7
	c0.1-0.2,0.1-0.3,0.1-0.5v-0.2c0-0.1,0-0.1,0.1-0.2l0.3-0.6l0.5-0.5h0.2c0-0.1,0.3-0.3,0.4-0.4l0.8-0.4h0.4l0.3-0.2l1.1-0.3l1.4-0.3
	h5.7c3.5,0.2,6.9-0.1,10.3-0.9c2.7-0.8,5-4.7,2.9-7.3l-8.8-11.6l-1.3-1.8c2-0.4,4-1,5.9-1.8c4-2.1,6-6.8,4.6-11.1
	c-1.8-6.3-7.5-11-12.9-14.3s-9.9-4.9-14.7-7.5l-3.9-2.3l-0.8-0.6l-0.4-0.3l-1.4-1.2c-0.6-0.5-1.1-1.1-1.6-1.6v-0.2l-0.5-0.7
	c-0.4-0.6-0.7-1.2-1-1.9c-0.2-0.4-0.3-0.9-0.5-1.3c-0.7-2.6-3.5-4.2-6.1-3.5c-2.6,0.8-4.2,3.5-3.5,6.2c3.6,12.1,15.9,16.4,26,21.7
	c1.2,0.6,2.4,1.2,3.5,1.9l1.8,1.1l0.8,0.6l0.8,0.6l2.4,2.2l0.9,1.1c0.4,0.4,0.7,0.9,1,1.4l0.4,0.8c0.1,0.1,0.1,0.1,0.1,0.2l-0.8,0.2
	c-2.5,0.7-5.1,1-7.4,2.4c-1.8,1.1-3,2.9-3.5,5c-0.7,3.1,0.6,5.9,2.5,8.3s3.1,4.2,4.7,6.2h-0.3c-3-0.2-6,0.1-8.9,0.8
	c-5.1,1.3-9.4,4.6-10.9,9.6c-6.2-7.9-13.6-14.8-22-20.3c-2.7-1.8-5.6-3.4-8.5-4.8c0.1-0.7,0.1-1.4-0.1-2.1
	c-3.4-8.4-8-16.4-13.6-23.6h4.4c1.6,0.4,3.1,0.8,4.6,1.4c2.2,0.6,4.5-0.4,5.6-2.3c1.2-2,0.9-4.5-0.7-6.1
	c-9.2-8.6-19.5-15.9-30.6-21.8l0.6-1l0.4-0.6h-0.1c0.1,0,0.1,0,0.1-0.1l0.3-0.2l0.6-0.8l1.1-1.1l0.5-0.4c0.4-0.2,0.8-0.4,1.1-0.7
	l1.4-0.8l0.6-0.4h0.4l0.9-0.3l1.5-0.4l0.6-0.2h0.1c0.6-0.1,0.4,0,0.1,0.1l1.2-0.2h1.7c2.3,0,4.2-1.5,4.8-3.7s-0.4-4.5-2.3-5.6
	c-12.6-7.9-27.6-10.9-42.3-8.4h-0.7c0.2-0.2,0.3-0.5,0.4-0.7l0.6-0.8l0.4-0.5c1-1.2,2-2.4,3.2-3.6c1.6-1.6,1.9-4,0.8-6
	c-1.2-1.9-3.5-2.8-5.7-2.3c-17.1,2.6-33.3,9.4-47.1,19.9c-4.1,3.1-7.9,6.4-11.5,10.1c-1.9,1.9-1.9,5.1,0,7c1.9,1.9,5.1,1.9,7,0
	c2.9-2.9,6-5.7,9.3-8.3h0.2l0.2-0.2l1.3-1l2.5-1.7c1.8-1.2,3.6-2.4,5.4-3.4c3.5-2.1,7.1-4,10.8-5.7l1.2-0.5l0.8-0.3l3.1-1.2l5.8-1.9
	l0.5-0.2c-1.3,2.5-2.5,5.1-3.3,7.8c-1.1,3.4,2.6,7.6,6.1,6.2c3.9-1.6,7.9-2.7,12.1-3.2h2.3l3.3-0.2c2.1,0,4.2,0.1,6.3,0.3h2.1
	l3.2,0.6l5.1,1.4c-5.1,3.3-8.6,8.5-9.9,14.4c-0.4,2.1,0.2,4.7,2.3,5.7c6,2.9,11.7,6.2,17.2,10l2.7,1.9c-1.8,0.3-3.6,0.8-5.4,1.4
	c-2.7,0.9-4.2,3.7-3.3,6.4c0.2,0.7,0.6,1.3,1.1,1.9c1.9,2,3.6,4,5.3,6.2c0.1,0.1,0.2,0.2,0.2,0.3l0.6,0.7l1.2,1.7
	c0.8,1.2,1.6,2.3,2.3,3.5c1.5,2.2,2.9,4.5,4.1,6.9l0.6,1.2h-3.6c-1.8-0.3-3.6-0.7-5.4-1.3c-0.9-0.2-1.8-0.6-2.7-0.9h-0.4l-1.6-0.7
	c-2.3-1.2-5.5-0.7-6.8,1.8s-0.7,5.5,1.8,6.8c6.6,3.4,14,5,21.3,4.6c0.4,1.1,1.1,2,2.2,2.6c3.2,1.5,6.4,3.1,9.4,5l4.6,3.1l1.8,1.3
	l0.6,0.5l1.2,0.9c2.8,2.3,5.4,4.8,7.8,7.4c1.3,1.3,2.5,2.7,3.7,4.1l0.7,0.9l0.6,0.7l0.4,0.6l0.8,1c-9.5-2.7-18.8-5.7-28.1-9
	c-2.7-0.7-5.5,1-6.2,3.7c-0.3,1.2-0.1,2.6,0.5,3.7c2.3,5,6.5,8.9,10.7,12.3l3.9,3l0.5,0.4l0.4,0.3l1.6,1.3l3.6,3.1
	c-5.3-0.4-10.7-0.2-15.8,1.7c-1.7,0.5-3,1.8-3.5,3.5c-0.4,1.7,0,3.6,1.3,4.9c1,0.8,1.9,1.7,2.6,2.6c0,0.1,0.1,0.2,0.2,0.2v0.1
	l0.4,0.5c0.4,0.5,0.7,1,1,1.6l0.9,1.5c0.1,0.3,0.3,0.7,0.5,1c0,0.1,0.1,0.4,0.2,0.6c0,0.1,0,0.2,0.1,0.2l0.3,0.9l0.6,1.9
	c0.1,0.6,0.2,1.2,0.4,1.8c0,0.3,0,0.5,0.1,0.8c0.1,1.3,0.2,2.5,0.1,3.8c0,0.7,0,1.3-0.1,2c0,0.2-0.1,0.5-0.1,0.8s-0.7,2.6-1.1,3.8
	c-0.7,2.7,0.8,5.4,3.5,6.2c2.6,0.6,5.3-0.9,6.1-3.5c3.1-9.1,2-19-3-27.2h2.7l2.9,0.2h2.1l5.9,1c3.8,0.7,7.2-2.2,6.2-6.1
	c-1.4-5.7-5.2-10.4-9.6-14.1l-3.3-2.8c6.9,2.1,13.9,4.1,20.9,5.9c2.5,0.7,5.2-0.7,6-3.3v-0.1c4.7,3.1,10,5.5,15,8s12.2,5.6,18.4,8.1
	s12.6,3.5,18.7,0.4c10-5,13.6-18,15.4-28.2c2.2-12.3,1.7-24.9-1.2-37l11.8-0.4C892.1,529.9,894.9,527.7,894.6,524.9z M436.3,259.7
	C436.4,259.4,436.6,259.1,436.3,259.7L436.3,259.7z M736.8,282.3c0.2,0,0.1,0.1-0.1,0.2L736.8,282.3z M824.3,540.1
	C823.7,540.7,824,540.3,824.3,540.1L824.3,540.1z M811.9,565.2C812,565.4,811.9,565.6,811.9,565.2L811.9,565.2z M812.1,565.9
	C812.2,566.1,812.2,566.2,812.1,565.9L812.1,565.9z"/>
</svg>
