<?xml version="1.0" encoding="utf-8"?>
<!-- Generator: Adobe Illustrator 24.2.3, SVG Export Plug-In . SVG Version: 6.00 Build 0)  -->
<svg version="1.1" id="b6234594-655e-42c1-978c-14139cdfb070"
	 xmlns="http://www.w3.org/2000/svg" xmlns:xlink="http://www.w3.org/1999/xlink" x="0px" y="0px" viewBox="0 0 1152 864"
	 style="enable-background:new 0 0 1152 864;" xml:space="preserve">
<path d="M787.6,609.8c-0.4-8.8-4.3-16.6-7.6-24.5c-12.9-31.4-16-65.5-16.6-99.1c-0.6-35.5,2.8-71.7-3.8-106.9
	c-3.4-17.7-9.2-34.9-14.8-52.1c-2.9-8.8-5.7-17.7-8.6-26.5s-5-15.9-8.9-23.2c-6.1-11.4-18.5-23.3-32.2-21.1
	c-4-8.7-8.7-17.1-14.1-25.1c0-0.1,0-0.1-0.1-0.2c-0.2-0.3-0.4-0.6-0.6-0.8c-4.2-6.2-8.7-12.1-13.6-17.7c-21-24-48.2-41.8-78-52.6
	c-8.4-3.1-17-6-25.9-7.3s-17.9-0.1-27,1.6c-16.9,3.1-33.5,8-49,15.7c-14,6.7-26.6,16-37.3,27.3c-5.2,5.7-9.3,12.3-14.1,18.3
	c-0.3,0.3-0.6,0.7-0.8,1.1c-1.2,1-2.3,2-3.3,3.2c-1.4,1.2-2.9,2.3-4.5,3.2c-3.5,2.1-7.1,3.9-10.3,6.4c-10.5,8.2-15.2,21.1-21.9,32.2
	c-3.1,5.2-6.9,10.2-12.1,13.5s-13.8,6.9-18.8,12.9s-8.3,14.3-11.6,21.7s-7.4,16.8-11,25.2c-7,16-13.6,32.6-10.9,50.4
	c0.6,4.2,2.1,8.2,2.7,12.4c0.4,3.9,0.6,7.8,0.6,11.7c0.1,8.6,0.6,17.3,1,26c0.9,17.2,1.8,34.4,1.9,51.6c0.3,32.5-2.1,65.6-14.1,96.2
	c-1.5,3.7-3.1,7.3-4.9,10.9s-4.2,7.5-5.3,11.6c-2.2,8.2,2.1,16.5,5.7,23.7c6.9,13.5,16.6,25.7,29,34.5c27.1,19.3,63.3,17.7,92.2,3.5
	c14-7,27.7-17,37.6-29.3c5.4-6.4,9.4-13.8,12-21.7c2.7-8.3,3.8-17,4.9-25.6c2-16.6-1.9-32.5-5.3-48.6c-2.6-10.4-5.7-20.7-9.3-30.9
	c0.1-0.7,0.1-1.3-0.1-2c-3.4-17.7-7.8-35.1-13.1-52.3c-2.7-8.5-5.5-17-8.6-25.3s-6.4-16.4-9.3-24.6c-3.1-8.1-5.5-16.5-7-25
	c-0.2-0.9-0.4-1.9-0.5-2.8c0-0.1-0.1-0.6-0.1-0.8s-0.1-1.3-0.2-1.9s-0.3-4.1-0.4-6.2c0-4.5,0.3-9,0.9-13.5c0.6-4.6,0.9-9.2,1-13.8
	c0-4.5-0.2-9.1-0.8-13.6c-1.1-9.4-3-18.7-4.8-27.9c-0.8-4.2-1.6-8.4-2.6-12.5s-2.2-7.9-3.2-11.9c-0.5-1.9-1-4-1.4-6l-0.6-2.9
	c-0.1-0.5-0.2-1-0.2-1.5c-0.1-0.2-0.1-0.4-0.1-0.6l0,0c-0.2-2-0.4-3.9-0.4-5.9c0-0.9,0-1.9,0.1-2.8c0-0.4,0.1-0.8,0.1-1.1
	s0.1-0.7,0.2-1c0.3-1.9,0.9-3.8,1.6-5.6c0-0.1,0.1-0.2,0.1-0.3c1.4-3.7,2.6-7.4,3.9-11.1c0.4-1.1,0.7-2.1,1.1-3.1l0.6-1.6l0.3-0.6
	c0.1-0.2,0.2-0.5,0.3-0.7c0.7-1.8,1.6-3.6,2.7-5.2l0.3-0.4c1.7-1.6,3.3-3.4,4.7-5.3c4.7-6,8.8-12.4,14.1-18
	c5.1-5.5,10.8-10.4,17-14.7c13.2-9,27.7-15.7,43.1-20c8.4-2.4,17-4.3,25.6-5.7c8.5-1.5,17.2-1.1,25.5,1c31,7.8,59.3,23.8,82.1,46.2
	c8.1,8,15.3,16.8,21.6,26.2l1.4,2.5l0.3,0.7c0,0.1,0,0.1,0.1,0.1c0,0.1,0,0.3,0.1,0.4l0.3,0.8c0.6,1.6,1,3.2,1.3,4.9
	c0,0.2,0,0.3,0.1,0.5v1.1c0.1,0.8,0.1,1.5,0,2.3c0,0.4,0,0.7-0.1,1.1l0,0c-0.1,0.7-0.2,1.4-0.4,2.1c-0.3,1.4-0.8,2.7-1.3,4
	c-0.2,0.7-0.4,1.3-0.7,1.9l0,0c-0.2,0.4-0.4,0.8-0.5,1.2c-1.3,2.9-2.7,5.8-3.8,8.7c-1.1,3-1.9,6.2-2.2,9.4
	c-0.5,4.2,0.2,8.4,0.5,12.5c0.9,10.1,2.1,20.2,3,30.3c1,9.9,1.3,19.9,0.9,29.8c-0.1,2.6-0.3,5.1-0.5,7.6s-0.3,2.3-0.4,3.5
	c-0.1,0.4-0.2,0.7-0.2,1.1l-0.3,2c-0.9,4.9-2.1,9.8-3.5,14.6c-2.9,9.4-6.8,18.4-10.4,27.5s-7,18.8-10,28.4
	c-6.2,19.1-11.3,38.6-16.3,58.1l-1.6,6.4c-2.9,6.2-5.5,12.6-7.6,19.1c-12.1,38-9.8,79,6.5,115.4c3.1,6.8,6.5,14.6,11.6,20.1
	s15.3,7.2,23.4,8.3l8.7,1l10.2,0.5h7.3c17.7-0.2,35.3-2.8,52.3-7.8c15.3-4.6,30.8-11.3,40.2-24.8
	C785.4,625.4,787.7,617.7,787.6,609.8z M476.2,536.2c0.8,2.9,1.6,5.8,2.3,8.8c1.8,8.2,3.8,16.4,4.9,24.7c1,8.1,0.8,16.3-0.4,24.4
	c-1,8.1-2.4,16.4-5.6,24.1c-3.1,7-7.5,13.4-13,18.7c-21.5,21.8-53.5,36.1-84.4,30.3c-14.9-2.7-28.6-10.2-38.9-21.4
	c-5-5.4-9.2-11.4-12.7-17.8c-1.8-3.2-3.4-6.5-4.8-9.9c-1.4-3.2-2.8-6.6-1.8-10s3.5-7.3,5.2-10.8s3.4-7.5,5-11.4
	c2.9-7.6,5.3-15.3,7.2-23.2c3.8-15.9,6-32.2,6.7-48.5c0.9-16.6,0.6-33.2,0-49.7s-2.2-35.2-2.4-52.8c0.1-8.2-0.9-16.3-2.7-24.3
	c-2-7.9-1.5-16.2,0.4-24.1s5.5-16.3,8.9-24.2s7.3-16.8,11-25.1c3-6.8,5.7-15,11-20.4s12.6-7.4,18.4-11.8
	c10.8-8.3,15.6-21.1,22.4-32.5c2.8-4.7,6-9.3,10.5-12.5c-0.4,1.3-0.9,2.5-1.3,3.8s-1.3,3.9-2.1,5.9l0,0l-0.2,0.4
	c-0.2,0.4-0.4,0.7-0.5,1.1l-1.9,3.9c-2.6,5.5-4.6,11.4-8,16.5s-7.6,9-11.5,13.5s-8,10.6-9.4,17.1c-0.7,3.3-0.8,6.8-0.1,10.1
	c0.7,3.2,2.3,6.2,3.7,9.2c0.5,1.1,0.9,2.2,1.3,3.4c0.2,0.8,0.3,1.5,0.5,2.2v0.4c0,0.4,0.1,0.9,0.1,1.3c0.1,2.9-0.2,5.7-0.9,8.5
	c-1.4,6.2-3.5,12.1-4.5,18.3c-1,6.6-1,13.3,0,19.9c1.8,12.4,6.9,24.3,13.4,35s14.9,21.1,23.1,31.1l22.2,29.8
	C460.5,489.5,469.6,512.1,476.2,536.2z M429.8,323.3c0.2,1.1,0.4,2.2,0.5,3.3c0.1,0.3,0.1,0.5,0.1,0.8v0.6c0.1,0.5,0.1,0.9,0.2,1.3
	c0.3,2.3,0.5,4.5,0.6,6.8c0.3,4.6,0.3,9.1-0.1,13.7c-0.4,4.6-1.1,9.2-1.4,13.9c-0.3,4.3-0.2,8.7,0.2,13c1,9,2.9,17.8,5.8,26.3
	c2.7,8.3,6,16.5,9.1,24.7s6.3,16.9,9,25.4c1.6,4.7,3,9.4,4.4,14.2c-5.3-8.8-11.2-17.3-17.6-25.4c-7.7-9.8-16-19.1-23.1-29
	c-3.7-5-7-10.3-10-15.7c-2.8-5.1-5-10.5-6.7-16c-0.9-2.9-1.6-5.8-2.2-8.7l-0.3-2.2c-0.1-0.6-0.1-0.6-0.2-1.5
	c-0.2-1.6-0.3-3.1-0.3-4.7c-0.2-5.7,0.5-11.5,2.2-17c1.6-6.3,3.6-12.6,3.9-19.1c0.1-3.2-0.3-6.5-1.2-9.6c-0.6-1.7-1.3-3.3-2-4.8
	l-0.9-2l-0.4-0.8c-0.1-0.2-0.2-0.5-0.3-0.7c-0.5-1.3-0.9-2.6-1.2-3.9c0,0.1-0.1-1.4-0.1-1.5v-1.1c0-0.1,0.1-1,0.1-1
	c0.4-2.5,1.3-4.8,2.5-7c2.8-5.2,6.8-9,10.9-13.6c2.7-3,5.1-6.1,7.3-9.5c1.6,8.1,4.4,16.2,6,24c1,4.3,1.7,8.7,2.6,13.1
	S429.1,318.7,429.8,323.3z M653.6,444.8c3-9.7,6.2-19.3,9.8-28.8s7.5-18.6,10.8-28c3.4-9.7,5.7-19.8,6.7-30.1
	c0.9-10,0.9-20.1,0.1-30.2c-0.7-10.2-1.8-20.4-2.9-30.5c-0.5-5.1-1-10.1-1.3-15.1c0-0.8,0-1.5,0.1-2.3v-1.1c0-0.1,0.1-0.2,0.1-0.3
	c0.2-1.4,0.5-2.8,0.9-4.1c0.4-1.4,0.9-2.8,1.5-4.2l0,0c0.2-0.3,0.3-0.5,0.4-0.8c0.3-0.8,0.6-1.5,1-2.2c1.3-2.9,2.6-5.8,3.6-8.8
	c0.1-0.2,0.1-0.5,0.2-0.7c5.1,10.3,9.1,21.2,12.1,32.3c4.1,15.7,6.2,31.8,6,48c-0.1,9.1-0.8,18.3-1.8,27.3s-2,17.8-4.1,26.5
	c-3.9,16.5-14.1,29.4-24.4,42.5c-8.8,11.1-17.5,22.2-25.5,33.8C649,460.2,651.3,452.5,653.6,444.8z M774.5,622.9
	c-3.5,6.7-9.1,11.7-15.5,15.5s-14.4,6.7-22,8.9c-8.4,2.5-17,4.3-25.7,5.6c-17.1,2.4-34.5,2.3-51.6-0.4c-3.8-0.5-8-1-11.3-2.9
	s-4.8-5-6.5-8c-3.8-6.8-7.1-13.9-9.8-21.2c-5.2-14.6-8.3-29.9-9-45.4c-1.1-24.1,3.6-48.1,13.8-70c0.3-0.4,0.6-1,0.7-1.5l0,0
	c3.1-6.4,6.5-12.6,10.2-18.6c8.7-14.2,18.8-27.4,29.1-40.5s21.7-26.2,27.3-42.3c2.9-8.5,4.2-17.5,5.4-26.4s2.2-18.5,2.7-27.8
	c1-17-0.2-34.1-3.6-50.8c-2.2-10.5-5.3-20.9-9.3-30.9c11.6,0.5,19.8,16,23.3,25.5c6.1,17,11.3,34.4,16.8,51.5S750,377.9,752,396
	s1.7,36.8,1.5,55.2c-0.4,34.2-0.6,68.7,6.5,102.4c1.7,8.3,3.9,16.4,6.6,24.4c2.8,8,6.7,15.6,9.3,23.7S778.1,616.1,774.5,622.9z"/>
</svg>
