<?xml version="1.0" encoding="utf-8"?>
<!-- Generator: Adobe Illustrator 24.2.3, SVG Export Plug-In . SVG Version: 6.00 Build 0)  -->
<svg version="1.1" id="efea39e8-127c-4b70-aa1a-8addd185aaf9"
	 xmlns="http://www.w3.org/2000/svg" xmlns:xlink="http://www.w3.org/1999/xlink" x="0px" y="0px" viewBox="0 0 1152 864"
	 style="enable-background:new 0 0 1152 864;" xml:space="preserve">
<path d="M867.9,294.1c-2.5-15.4-5.7-31.3-11.6-45.7c-2.6-6.2-5.9-11.4-11.7-15c-5.3-3.3-11.5-4.6-17.7-3.9
	c-3.8,0.4-7.6,1.8-11.2,3.1c-3.6,1.3-6.8,2.4-10.1,3.7c-6.8,2.7-13.4,5.9-19.7,9.6c-12.6,7.4-24.8,15.6-36.5,24.4
	c-11.7,8.4-22.4,18-31.9,28.8c-4.7,5.7-8.8,11.7-12.4,18.1c-3.9,6.7-7.7,13.6-11.4,20.5c-7.7,14.3-14.6,29-21.5,43.7
	c-3.4,7.3-6.9,14.5-10.4,21.7s-5.9,13.3-10.3,18.9c-4.4,5.6-7.9,8.2-13.6,8s-14.2-2.6-21.4-3.5c-3.6-0.4-7.3-0.4-10.9,0.2
	c-3.1,0.5-5.9,2.4-9.1,2c-3.2-0.4-6.7-2.1-10.2-2.7c-3.6-0.7-7.2-0.8-10.8-0.4c-2,0.2-3.9,0.7-5.7,1.5c-1.6,0.7-2.8,2-4.2,3
	s-5.1,3.5-8.1,3.7s-6.4-1.7-9.4-2.9c-3.5-1.4-7.2-1.8-10.9-1.4c-3.5,0.6-6.8,1.7-10,3.2c-2.8,1.2-5.5,3-8.4,4
	c-1.2,0.5-2.5,0.5-3.7,0.2c-1.8-0.7-3.4-1.6-5.1-2.2c-3.1-1-6.4-1.5-9.7-1.4c-6.3,0.2-12.3,2.6-17,6.7h-1.2c-0.4-0.6-0.8-1.3-1.2-2
	c-2.1-3.5-4.2-7-6.4-10.5c-4-6.5-8.1-13-12.3-19.4c-8.3-12.7-16.9-25.2-26-37.5c-9-12.4-18.3-24.6-27.7-36.7
	c-9.4-12.1-17.9-23.8-28.7-33.9c-4.8-4.5-10.4-8-15.4-12.2s-7.4-5.9-11.2-8.6c-3.1-3.4-6.4-6.6-9.9-9.7
	c-8.3-7.4-17.8-13.2-28.2-17.2c-10.2-4-20.7-6.8-31.5-8.5c-9.9-1.7-20.4-3.4-30.2-0.5c-5,1.4-9.4,4.3-12.6,8.3
	c-3.8,5-4.9,11.1-5.9,17.1c-4.5,26-3.9,52.4-0.1,78.4s10.8,50.6,19.5,74.9c4.3,12.1,9,24,14,35.8s10.5,23.3,15.1,35.2
	c2.1,5.5,4.1,11.6,4.7,17.3c0.3,3.1,0.3,6.1,0,9.2c-0.3,2.8-1.1,6-1.3,9c-0.8,12.8,9.4,22.1,18.8,29c9.8,7,20.8,12.1,32.5,15.1
	c5.5,1.5,11.4,2.8,16.4,5.1s8.4,4.9,10.9,8.9c0.5,0.8,1,1.6,1.4,2.5c0.4,1,0.7,2,0.9,3c0,0.2,0.1,0.4,0.2,0.6v2
	c0,0.2-0.1,1.2-0.1,1.1s-0.3,1.2-0.4,1.8c-0.4,2.7,1.4,5.3,4.1,5.7c2.3,0.4,4.6-0.9,5.5-3.1c3.5-11.1-3.4-22.2-12.4-28.3
	s-22.3-7.9-33.2-11.9s-20.2-9.6-27.9-17.2c-1.7-1.7-3.2-3.6-4.5-5.6l-0.9-1.7c-0.2-0.3-0.4-0.6-0.5-1c-0.2-0.6-0.4-1.2-0.5-1.8
	c-0.1-0.3-0.1-0.6-0.2-0.8v-0.6c-0.1-2.8,0.2-5.6,0.8-8.4c0.5-3.3,0.8-6.6,0.7-9.9c-0.6-12.8-5.9-24.7-11-36.2
	c-5.1-11.5-9.9-22.9-14.6-34.5c-9.4-23.4-17.7-47.3-23.4-71.8c-5.7-24.5-8.6-50-7.3-75.3c0.3-6.1,0.8-12.2,1.6-18.3
	c0.5-3.2,1-6.4,1.6-9.5c0.3-1.3,0.5-2.6,0.9-3.8c0.4-1.2,0.8-2.8,1.1-3.6l1-1.8c0.2-0.2,0.3-0.4,0.4-0.6h0.1l1.1-1.1l0.9-0.9
	l2.3-1.4l1.2-0.6l1.2-0.4l3.2-0.9l1.7-0.2l1.1-0.2c2.3-0.2,4.6-0.2,6.9-0.1l3.4,0.3l1.7,0.2h1.2l7.4,1.2c5.2,0.9,10.4,2.1,15.6,3.4
	c10.3,2.8,19.6,6.2,28.6,11.9c9,5.7,16.3,13.2,23.3,21.2s14.4,17.5,21.3,26.4c6.9,8.9,14.3,18,21.2,27.2s14.1,19.6,20.8,29.6
	c13.6,20.2,26.1,41.2,37.5,62.7c2.8,5.3,5.5,10.7,8.1,16c1.2,2.4,4.7,3.1,6.9,1.8c2.3-1.4,3.1-4.4,1.8-6.8
	c-11.1-22.2-23.2-43.8-36.5-64.8c-4.9-7.6-9.9-15.2-15-22.6c10.8,14.4,21.4,29,31.5,43.9c5.3,8,10.6,16.1,15.7,24.2
	c2.6,4.1,5.1,8.3,7.7,12.5c1.2,2,2.3,4.2,3.6,6.1c1.3,1.7,3.1,2.9,5.2,3.4c1.7,0.4,3.4,0.6,5.1,0.4c2.9-0.3,4.3-1.8,6.6-3.5
	c2.7-2.1,6.1-3.2,9.5-3.2c3.4,0,6.8,0.8,9.8,2.4c4.9,2.4,9.9,1.3,14.6-0.9c4.7-2.2,6.8-3.6,10.4-4.7c3.6-1.1,7.3-0.7,11.1,0.9
	c3.8,1.6,8.5,3.3,13.5,2.5s8.1-2.9,11.6-5.5c1.7-1.3,2.5-2.2,4.4-2.5c2.1-0.1,4.1-0.1,6.2,0.1c4.2,0.2,8,2.2,12.1,2.8
	c2.3,0.5,4.8,0.5,7.1,0c2.2-0.5,4.2-1.6,6.4-2c4-0.6,8.2,0,12.2,0.7c8.2,1.5,17.7,4.7,25.9,1.6c8.2-3.1,13.4-9.5,17.4-16.5
	s9-17.8,13.2-26.7s8.4-17.8,12.7-26.7c1.4-2.9,2.7-5.7,4.1-8.4c-1,3.9-1.9,7.9-2.8,12c-4.1,18.8-7.1,37.8-9,56.9
	c-0.4,4.7-0.8,9.4-1.1,14.2c-0.3,2.6,0.1,5.2,1.2,7.5c1.4,2.3,3.5,4,6,4.9c2.2,0.9,4.5,1.6,6.8,2.1c1.1,0.2,2.2,0.5,3.2,0.9l1.5,0.4
	l0.2,0.2h0.2l1.2,0.6l0.5,0.4l0.7,0.6c0.2,0.1,0.4,0.3,0.5,0.5l0.4,0.5c0,0.1,0.1,0.2,0.1,0.3c0,0,0,0,0,0c0-0.1,0-0.1,0-0.1
	c0.1,0.1,0.1,0.3,0.1,0.4c0,0-0.1-0.1-0.1-0.2c0,0.1,0.1,0.2,0.1,0.4v1.2c-1.1,4.3-2.7,9-1.2,13.4c0.8,2.3,1.9,4.6,3.3,6.6l3.6,6
	c5.1,8,10.7,15.8,16.7,23.2l1.9,2.3l0.3,0.5h0.1l1,1.4c0.6,0.9,1.2,1.8,1.8,2.7c0.2,0.4,0.5,0.8,0.7,1.3l0.3,0.6l0.3,0.6
	c0,0.2,0.1,0.3,0.1,0.4s0.1,0.4,0.2,0.6c0.2,0.6,0.4,1.2,0.5,1.8c0.3,1.1,0.5,2.2,0.7,3.3s0.6,4.5,1,6.8c1.4,8.4,5.4,16.1,11.6,21.9
	c1.7,1.5,3.4,2.9,5.3,4.1c2.3,1.4,5.3,0.7,6.8-1.6c1.4-2.3,0.6-5.3-1.7-6.7l-0.1-0.1l-1.1-0.8c0-0.1-0.2-0.2-0.3-0.2l-2.3-2
	c-0.7-0.6-1.3-1.3-1.9-2l-0.9-1c-0.1-0.2-0.2-0.4-0.4-0.5c-1.1-1.5-2-3.1-2.8-4.8l-0.5-1.1c-0.1-0.2-0.2-0.4-0.2-0.6
	c-0.4-0.9-0.7-1.9-1-2.9c-1.1-4.2-1.3-8.6-2.2-12.9c-1-4.5-3-8.7-5.8-12.4c-1.4-1.9-2.9-3.8-4.4-5.6l-2-2.5
	c-0.1-0.3-0.3-0.6-0.5-0.8c-0.1,0-0.1,0-0.1-0.1c-0.4-0.4-0.8-0.9-1.1-1.4c-2.7-3.6-5.3-7.2-7.8-11s-5-7.6-7.3-11.5l-1.6-2.7
	c-0.2-0.4-0.4-0.8-0.5-1.2c-0.1,0-0.1,0-0.1-0.1l-0.3-1c0-0.2,0-0.3,0.1-0.5V473l0.6-2.7c1.3-4.6,2-9.4-0.8-13.6s-6.7-6.2-11.1-7.5
	l-6.3-1.6l-1.5-0.5l-0.6-0.2l-0.8-0.4l-0.3-0.2c0-0.1,0-0.2-0.1-0.3v-0.4c0-1.2,0.1-2.3,0.2-3.5s0.3-4.5,0.5-6.8
	c0.4-4.7,0.9-9.3,1.4-14c0.2-2.2,0.5-4.5,0.8-6.8c0.1-0.5,0.1-0.9,0.2-1.4c0-0.3,0.1-0.7,0.2-1c0.1-1.2,0.3-2.4,0.5-3.6
	c1.3-9.2,2.9-18.4,4.8-27.6c3.8-18.2,8.6-36.2,14.5-53.9l2.2-6.6c0.2-0.6,0.3-1.2,0.2-1.8l1.3-2.1c9.4-14.4,22.2-26.3,35.9-36.6
	c7.2-5.3,14.6-10.3,22-15.3s15.3-10.1,23.6-14.2c7.7-3.9,15.7-7.1,24-9.6c3.5-1.1,6.8-2,10.5-1.3c3,0.5,5.8,1.8,8.2,3.8
	c2.8,2.3,4.3,5.2,5.6,8.5c1.7,4.1,3.2,8.4,4.3,12.7c2.7,9.7,4.9,19.5,6.5,29.4c3.4,19.5,4.7,39.4,4.1,59.2
	c-0.5,19.7-2.2,40.1-6.9,59.3c-4.7,19.2-12.7,36.2-11.2,55.6c0.7,9.6,3.1,19,3.1,28.6c0,7.7-1.8,15.3-5.3,22.2
	c-6.4,11.9-17.6,19.8-29,26.4c-6.2,3.5-12.5,6.7-18.8,10s-13.7,7.7-18.7,14.3c-4.8,6.4-7.5,14-7.9,22c-0.4,6.4,9.6,6.4,10,0
	c0.3-6,2.5-11.7,6.1-16.4c3.6-4.8,8.6-7.5,13.8-10.3c10-5.3,20.3-10.3,29.7-16.7s18.2-14.3,23.5-24.5c2.9-5.6,4.8-11.6,5.8-17.8
	c1.3-8,0.6-15.9-0.6-23.9s-2.3-15-1.8-22.7s2.3-14.6,4.4-21.7c2.1-7.1,4.5-14.6,6.4-22c1.9-7.8,3.3-15.7,4.2-23.7
	C873.2,359.4,872.9,326.5,867.9,294.1z M690.5,446.5l-0.1-0.1C690.5,446.4,690.5,446.4,690.5,446.5z"/>
<path d="M419.3,451.7c-0.5-2.6-1.2-5.1-2.2-7.6c-1-2.3-1.8-4.7-2.5-7.2c0-0.3-0.1-0.6-0.1-0.9c-0.1-0.5-0.1-1,0-1.5l0.2-0.3l0.6-0.9
	c1.8-2.5,3.1-5.2,2.3-8.4c-0.8-3.2-3.2-4.7-5.5-6.8l-1.1-1.2l-0.2-0.3c0.4,0.7-0.2-0.2-0.3-0.4l-0.9-1.5l-0.2-0.5h-0.1
	c-0.1-0.5-0.3-1-0.4-1.5c-0.1-0.5-0.1-0.4-0.2-0.6v-1.8c0-0.2,0-0.3,0.1-0.5c0-0.1,0.3-0.8,0.4-1.2c0.1-0.4-0.3,0.4-0.1,0
	c0.1-0.1,0.1-0.2,0.1-0.2c0,0,0,0,0,0h0c0,0,0,0,0,0h0.1l0.3-0.6l0.3-0.6h0.1l1.5-1.5c2.1-1.7,1.9-5.4,0-7.1c-1.9-1.9-5.1-1.9-7,0
	c-8.4,6.9-6.9,19.7,0.5,26.6l2.4,2h0.1l-0.5,0.7c-0.9,1.1-1.6,2.4-2,3.7c-1.8,5.5,0.8,11.3,2.8,16.3c0.9,2.5,1.6,5.1,2.1,7.7
	c0.3,1.4,0.6,2.8,0.8,4.1c0.1,0.8,0.2,1.5,0.4,2.3c0,0.3,0,0.7,0.1,1v0.2c0,0.1,0,0.2,0.1,0.3c0.7,5.7,1.1,11.4,1.4,17.2
	c0.4,5.7,0.5,11.4,0.2,17.1c-0.1,1.4-0.2,2.7-0.4,4c-0.1,0.4-0.1,0.6-0.1,0.7c0,0,0,0,0,0v0.5c-0.1,0.7-0.3,1.5-0.4,2.2
	c-0.5,2.8-1.2,5.6-2.2,8.3c-0.2,0.7-0.5,1.5-0.8,2.2c0,0.2-0.1,0.3-0.2,0.5c-0.1,0.2-0.3,0.7-0.3,0.8s-1.4,3-2.2,4.5
	c-0.8,1.5-2.9,5.6-4.5,8.3c-3.1,5.5-6.3,11-8.9,16.8c-1.1,2.4-0.8,5.5,1.8,6.8s5.7,0.8,6.8-1.8c4.6-10.2,11.2-19.4,15.7-29.7
	s6.2-22.8,5.8-34.8S421.9,463.1,419.3,451.7z M408,427.4c0.2,0.1,0.3,0.2,0.3,0.4L408,427.4z"/>
<path d="M382.8,528.5c-0.1-0.2-0.2-0.5-0.3-0.7l-0.6-1.7c-0.3-0.8-0.5-1.6-0.7-2.4c-0.1-0.4-0.1-0.7-0.2-1.1
	c-0.1-0.2-0.1-0.5-0.1-0.7s-0.1-0.6-0.1-0.7s-0.1-0.8-0.1-1.2v-3.2l13.3-1.5c1.6-0.1,3-0.8,4-2s1.3-2.8,0.8-4.3
	c-1.3-3.6-2.6-7.2-4-10.7c3.1-0.5,6.1-1.9,8.4-4.1c3.8-3.8,5.4-10.3,2.2-14.9c-1.5-2.1-4.4-3.3-6.8-1.8c-2.4,1.5-3.4,4.6-1.8,6.9
	l0.3,0.4v0.7c-0.1,0.2-0.2,0.4-0.2,0.6l-0.4,0.5v0.2c-0.1,0.1-0.2,0.3-0.4,0.4H396l-0.5,0.3l-0.7,0.4l-0.9,0.3l-1.4,0.3l-1.1,0.2
	H388c-3,0.2-6,3.2-4.8,6.4c1.2,3.2,2.7,7.1,4,10.7l-10.7,1.2c-2.2,0.3-4.4,1.4-4.9,3.7c-0.9,4.4-1,9-0.3,13.5l-0.5-0.2l-0.5-0.3
	l-0.6-0.2h-0.1l-0.7-0.3l-1.3-0.6l-2.6-1.3l-5.3-2.9l-4.9-3.1l-2.2-1.6l-1.2-0.9l-0.8-0.6c-3-2.4-5.9-4.9-8.7-7.6
	c-2.8-2.7-5.6-5.7-8.2-8.7c-1.2-1.5-2.5-3-3.7-4.6l-0.3-0.3c0-0.1-0.1-0.2-0.2-0.3l-0.9-1.2c-0.7-0.9-1.4-1.8-2-2.8
	c-5.1-7.2-9.8-14.8-14-22.6c-4.7-8.7-9.1-17.6-13.4-26.6c-1.4-2.4-4.5-3.2-6.9-1.8c-2.3,1.5-3.1,4.5-1.8,6.9
	c7.9,16.2,15.8,32.5,26.1,47.4c10.3,14.9,21.4,26.8,35.8,36c7.8,5,16.4,8.7,25.4,11c2.7,0.6,5.5-1.1,6.1-3.9
	c0.3-1.2,0.1-2.5-0.5-3.5L382.8,528.5z M397.1,485.6l-0.2,0.5C396.9,485.9,397,485.8,397.1,485.6z"/>
<path d="M829.1,461.7c4.6-6.8,8.7-13.8,12.5-21c1.2-2.3,0.7-5.6-1.8-6.9s-5.6-0.6-6.9,1.8c-3.2,6.3-6.8,12.5-10.6,18.4
	c-1.9,2.9-3.9,5.8-6,8.7l-3.1,4.1c0,0.1-0.1,0.1-0.1,0.2H813c-0.3,0.3-0.6,0.7-0.8,1.1c-0.7,0.7-1.3,1.5-1.9,2.3
	c-8.7,10.9-18.6,20.8-29.5,29.6l-0.5,0.4l-1,0.8l-2.4,1.7c-1.6,1.1-3.3,2.1-5.1,3c-0.7,0.5-1.5,0.9-2.3,1.2l1.2-6.4
	c0.8-4.5,2.4-9.6,0.8-14.2c-1-2.8-3.2-5-6.1-5.9c-2.4-0.8-5.2-0.8-7.7-1l-7.4-0.8c0.7-1.7,1.3-3.4,1.6-5.2c0.8-4.3,0.5-9.1-2.1-12.7
	c-4.5-6.2-14.2-9.4-20.1-3.1c-1.8,1.9-2.1,5.2,0,7c1.9,1.9,5,2,6.9,0.1c0,0,0,0,0.1-0.1l0.5-0.3h1.5l0.6,0.2
	c0.4,0.4,0.9,0.7,1.4,0.9l0.4,0.4l0.5,0.6c0.2,0.2,0.2,0.4,0.4,0.6c0,0.3,0.1,0.5,0.2,0.8c0.1,0.2,0.1,1.4,0.1,0.3
	c0.1,0.8,0.1,1.5,0,2.3v0.3L742,472c-0.2,0.8-0.5,1.6-0.8,2.4v0.2h-0.1c-0.2,0.3-0.3,0.7-0.4,1c-0.8,1.6-1.7,3.1-2.7,4.5
	c-1,1.6-1,3.5,0,5.1c0.9,1.5,2.5,2.4,4.3,2.5l13.7,1.4l3.4,0.3l1.4,0.2h1.4v1.3c-0.1,0.3-0.3,1.8,0,0.4c-0.1,0.3-0.1,0.6-0.2,1
	c-0.4,2.3-0.8,4.5-1.3,6.8c-0.8,4.6-1.6,9.2-2.5,13.8s2.3,7.1,6.2,6.1c14.4-3.3,26.2-13.8,36.6-23.9
	C811.5,485,820.9,473.8,829.1,461.7z M740.6,465.5C740.4,465.5,740,464.9,740.6,465.5L740.6,465.5z"/>
</svg>
