<?xml version="1.0" encoding="utf-8"?>
<!-- Generator: Adobe Illustrator 24.2.3, SVG Export Plug-In . SVG Version: 6.00 Build 0)  -->
<svg version="1.1" id="bbcf9d7f-d185-458d-8248-03a8d0f751d6"
	 xmlns="http://www.w3.org/2000/svg" xmlns:xlink="http://www.w3.org/1999/xlink" x="0px" y="0px" viewBox="0 0 1152 864"
	 style="enable-background:new 0 0 1152 864;" xml:space="preserve">
<path d="M875.4,357.9c-3.8-21.9-13.3-42.2-23.9-61.6c-9.8-17.6-21.7-34-35.5-48.8c-13.8-14.7-29-28-45.5-39.7c-4.2-3.1-8.6-6-13-8.9
	c-4.4-2.9-8.9-5.2-12.8-8.6c-7.8-6.8-14.5-17.9-25.3-20.4c-5.6-1.3-10.1,0.6-14.6,3.7s-8.3,5.5-13.2,5s-9.2-4-13.2-6.7
	c-4.7-3.4-9.6-6.5-14.7-9.4c-19.1-10.6-40.3-16-61.9-18.6c-22.9-2.8-46-2.8-68.9,0.1c-23.1,3.1-45.7,9-67.9,16.1
	c-11.3,3.6-22.4,7.6-33.6,11.6l-16.4,6.1l-7.9,3c-2.9,1.1-5.9,2.8-9,3.2c-3.1,0.4-5.1-0.7-7.6-1.2c-2.8-0.7-5.6-1.1-8.4-1.3
	c-5.4-0.3-10.7,1.4-15,4.6c-4.5,3.6-8.2,8.1-12.2,12.2c-0.9,0.9-1.8,1.8-2.6,2.8c-0.7,1-0.9,2.2-1.5,3.2c-0.6,1-3.1,3.2-4.4,4.8
	c-1.3,1.6-2.7,4.1-4.2,6c-1.8,2.2-3.7,4.2-5.7,6.2c-3.9,4-7.9,8-12.1,11.7c-8.8,7.8-18.6,14.7-27.9,21.7s-17.2,12.9-24.9,20.5
	c-3.8,3.7-7.3,7.7-10.6,11.8c-2.9,3.7-5.2,8.1-8.4,11.6c-3.2,3.5-6,9.6-8.5,14.6s-5.8,11.4-8.7,17.1c-5.5,11-11,22-16.3,33
	c-2.5,5.3-5.4,10.5-6.3,16.3c-0.9,5.3-0.6,10.8,1.1,16c3.4,11,9.2,21,12.1,32.1c9.1,34.3,11.2,70.1,21.3,104.1
	c4.9,16.6,11.6,32.9,22.3,46.7c11.8,15.3,29.3,27,48.4,30.8c19.1,3.8,39.8-2.1,55.5-14.8c14-11.3,23.4-27.5,28.8-44.5
	c5.4-17,6.3-37.4,6-56.2c-0.4-21.7-2.1-43.4-5-65c-1.8-14.5-4-28.9-6.4-43.3c0.2,0.5,0.5,0.9,0.7,1.3c2.3,3.7,4.9,7.2,7.6,10.6
	c1.6,2.1,5.4,1.8,7,0c1.6-1.8,1.8-4.9,0-7.1l-0.4-0.5c0-0.1,0-0.1-0.1-0.1l-1-1.4l-2-2.8c-1.2-1.8-2.3-3.5-3.4-5.4
	c-2.3-3.8-4.4-7.8-6.2-11.9l-0.4-1l-0.5-1.2l-1.2-3.2c-0.8-2-1.4-4.1-2.1-6.3c-0.7-2.2-1.4-5.3-2-8.1
	c-2.5-39.7,11.7-77.4,33.6-110.4c5.9-8.9,12.3-17.4,17.1-27c2.4-4.7,4.3-9.6,5.9-14.6c1.5-4.8,3.3-10.5,1-15.3
	c-0.8-1.8-2-3.2-3.6-4.3l11.6-4c21.9-7.4,44.2-13.8,67-17.6c22.8-3.8,45.3-4.1,68.2-2.1c21,1.8,42,6.3,60.9,15.9
	c5,2.6,9.9,5.4,14.5,8.6c4.3,2.9,8.4,6.1,13,8.3c4.8,2.5,10.2,3.2,15.5,2.2c5.1-1.1,9.4-4,13.6-6.8c4.2-2.8,7.9-1.6,11.8,1.6
	s7.8,8,11.8,11.9c7.3,7.1,16.7,11.9,25.1,17.7c32.6,22.5,61.1,50.7,80.9,85.2c10.7,18.7,20.1,38.3,24.4,59.5s1.5,40.5-1.7,60.6
	c-6.3,40.5-17.1,80.2-32.1,118.4c-3.3,8.4-6.6,17.3-11.3,25s-12.7,13.5-22,16.1c-16.5,4.8-34.2,0.8-48.5-8.5
	c-16.2-10.5-27.6-27.5-28.5-47.1c-0.5-10.9,1.3-21.5,3.3-32.2c0.4-2.3,1.8-4.3,2.5-6.6c0.7-2.3,1.2-5.4,1.8-8
	c1-4.8,2.4-9.5,3.7-14.2c5.4-19.6,10.4-39.3,15.1-59.1c11.6-9.6,19.7-22.8,23.1-37.5c4.1-18.1,1.3-36.8-4-54.4
	c-0.5-2-1.1-3.9-1.7-5.8c0.7-10.4,0.2-20.8-1.3-31.1c-2.8-20-11-38.9-23.7-54.7c-5.7-7-12.6-13.1-20.2-18c-3.4-2.2-6.9-4.1-10.6-5.7
	c-1.8-0.8-3.7-1.5-5.7-2.1c-1.1-0.6-2.4-1-3.6-1.3c-6.4-1.5-8.6,7.4-2.6,9.7l2.4,0.9h0.2c8.6,8.6,15.5,18.7,21.8,29.1
	c7.1,12,13.4,24.4,19,37.1c5.4,12.4,10.2,25.1,14.4,38c-1.1,16.2-4.4,32.3-7.6,48.2c-2.8,14.2-5.9,28.4-9.2,42.5
	c-0.9,1.2-1.3,2.7-0.9,4.2l-3.9,16.4c-4.9,19.8-10.9,39.4-15.3,59.4c-0.5,2.4-1.3,4.7-2.3,6.9c-1.3,2.7-1.5,5.8-2,8.6
	c-1,5.6-1.9,11.2-2.4,16.8c-0.9,10.9-0.4,22.3,3.5,32.8c12.7,34.6,55.4,57.4,90.7,43.7c9.5-3.5,17.5-10,22.8-18.6
	c5.1-8.1,8.6-17.6,12.1-26.4c7.6-19.2,14.1-38.9,19.4-58.9c5.5-20.2,10-40.8,13.3-61.5C876.5,399.3,879.1,378.7,875.4,357.9z
	 M396.7,461.5c1.7,20.3,2.4,40.7,0.8,60.9c-1.3,17.2-6.5,34.4-16.1,48.7c-9.6,14.3-25.1,26.2-42.7,29c-19.3,3-38.9-5.8-53-18.6
	c-12.2-11-20-26.6-25.4-41.9c-6-16.9-9.6-34.5-12.7-52.1c-3.1-17.6-5.5-34.3-9.2-51.3c-2-9.4-4.9-18.6-8.6-27.5
	c-4.2-9.7-9.7-19.8-6.4-30.6c1.7-5.6,4.9-10.8,7.4-16s5.4-11.1,8.1-16.5c5.4-10.9,10.9-21.7,16.5-32.5c1.1-2.3,2.2-5,3.8-6.9
	c1.5-1.6,2.9-3.4,4.1-5.2c2.8-4.3,5.8-8.4,9.2-12.2c6.8-7.6,14.3-14.5,22.5-20.7l27.8-20.9c9.1-6.7,17.2-14.8,24.7-23.1
	c3.5-3.8,5.9-8.1,9.6-11.8c0.9-0.8,1.6-1.7,2.3-2.7c0.5-0.8,0.6-1.8,1.1-2.6s3.9-4.2,5.6-6.1c3.3-3.4,6.7-7.9,11.5-9
	c4.8-1.1,10.3,0.7,15.3,1.7s11.2-1,16.9-3.2l13.7-5.1c-5.8,6.3-11.1,13.1-15.8,20.2c-6.2,9.3-11.7,19.1-16.4,29.2
	c-4.9,10.6-9.6,21.7-12.7,32.9c-6.1,22-6,44.2-1.6,66.4C385.5,376.1,393.3,418.6,396.7,461.5z M441.6,186.9
	c-0.4,2.7-1.1,5.4-2.1,7.9c-1.7,5-3.8,9.9-6.3,14.5c-5.2,9.6-12,18.2-17.8,27.4c-11.6,18.1-21.1,37.7-26.9,58.4
	c-1.8,6.6-3.2,13.3-4.2,20.1c-0.6-5.7-0.8-11.5-0.6-17.2c1.1-23.1,9.4-45.6,20-65.9c5.2-10.1,11.1-19.8,17.8-28.9
	c2.9-3.8,6-7.5,9.3-10.9c2.5-2.8,5.5-6.3,9.5-6.7C442.1,185.4,441.8,185.3,441.6,186.9z M728,222.3c-1.4-2.3-2.9-4.5-4.4-6.8
	c4.8,4.3,9.1,9.1,12.8,14.4c8.6,12.7,14.4,27,17,42.1C746.4,254.7,737.9,238.1,728,222.3z M760.3,339.4c0.5-2.4,0.9-4.8,1.3-7.2
	c1.2,7.7,1.4,15.6,0.4,23.3c-1.2,9.7-4.7,19-10.3,27C754.9,368.2,757.7,353.8,760.3,339.4z"/>
</svg>
