<?xml version="1.0" encoding="utf-8"?>
<!-- Generator: Adobe Illustrator 24.2.3, SVG Export Plug-In . SVG Version: 6.00 Build 0)  -->
<svg version="1.1" id="a776b779-9da0-4f76-83e6-f304e305594d"
	 xmlns="http://www.w3.org/2000/svg" xmlns:xlink="http://www.w3.org/1999/xlink" x="0px" y="0px" viewBox="0 0 1152 864"
	 style="enable-background:new 0 0 1152 864;" xml:space="preserve">
<path d="M1009,186.3c-1.8-11.9-4.7-28.2-19.2-30c-17.7-2.3-37.1,4.3-52.4,12.7c-8.2,4.4-16.4,8.7-24.3,13.7s-15.8,10.4-24,15.2
	c-16.3,9.8-32.7,19.5-47.5,31.6c-13.7,11.4-26.6,23.8-38.6,37.1c-6.2,6.8-12.2,13.8-18.2,20.7s-12,13.3-16.5,21
	s-11.5,15.4-17.4,22.7c-2.6,3.3-6.2,6.4-8,10.3c-0.7,1.8-1.5,3.6-2.4,5.4c-1.4,2.2-2.9,4.1-4.2,6.3s-2.2,4.2-3.4,6.2
	c-1.1,1.6-2.3,3.1-3.6,4.5c-2.9,3.6-4.6,8.6-6.3,12.8c-3.3,8.3-5.1,17.3-8.9,25.4c-2.8,5.9-7.2,12.6-13.7,14.8
	c-8.2,2.6-18.4-1.6-26.1-4.2c-17.4-5.9-36-13.3-54.6-13.7c-9.4-0.2-18.6,1.7-27.7,3.7c-4.5,1-9.1,2.5-13.7,2.9s-9.2-0.8-13.6-1.8
	c-19.1-4.1-37.1-1.3-55.4,4.8c-7.8,2.6-14.7,6.7-22.4,9.5c-3.1,1.1-6.5,2.2-9.9,1.7c-1.3-0.2-2.6-0.7-3.8-1.4
	c-2.3-1.4-2.1-2.5-2.9-5.1c-4.6-17-12-33.2-20.7-48.5s-19.3-30.2-30.2-44.5c-5.3-7.1-10.7-14.2-16.3-21.1c-1.3-1.6-1.5-2.8-2.5-4.6
	c-0.9-1.3-2-2.5-3.1-3.6c-3.2-3.4-6.3-7-9.1-10.8c-5.6-7.8-10.8-15.7-16.6-23.3s-11-14.6-18.2-20c-14.1-10.5-31.5-14.8-45.7-25
	c-3-2.1-6.1-5.3-9.8-5.8h-0.7l-1.5-1.2c-1.8-1.4-3.8-2.5-5.7-3.8c-7.2-4.9-13.8-10.8-21.1-15.7c-13.8-9.7-28.7-17.6-44.5-23.5
	c-14.6-5.3-33.1-12.1-46,0.4c-6,5.8-7.8,15-9,23c-1.2,9.5-1.6,19-1.4,28.6c0.4,20,2.4,39.9,6,59.5c1.7,9.8,3.6,19.5,5.7,29.2
	c1.1,4.8,2.1,9.5,3.2,14.3s1.7,9.3,3.3,13.5c0.3,0.9,0.7,1.8,1.2,2.6l0.8,1.5c0.4,1.5,0.6,3.1,0.8,4.7c0.2,1.8,0.6,3.5,1.2,5.2
	c0.2,0.7,0.5,1.4,0.9,2.1c0.2,0.3,1.1,2.2,1.1,1.8c1,3.3,0.8,6.9,2,10.1c0.2,0.7,0.5,1.4,0.9,2.1c0,0,1.3,2.3,1.2,1.9
	c0.4,1.2,0.5,4.4,0.9,6.1c0.9,4.3,2.7,8.6,4.1,12.8s3,9.4,4.4,14.1c2.8,9.1,5.3,18.3,7.5,27.5c4.9,19.7,8,39.8,9.3,60
	c1.3,20,1.5,40.1,3.5,60c0.8,8.2,1.6,16.1,4.9,23.8c3.2,7.1,7.7,13.6,13.4,19c11.3,11.2,25.9,19,38.9,28.1s23.7,18.6,30.8,32.2
	c3,5.7,11.6,0.6,8.6-5.1c-7.1-13.7-18.4-24.1-30.8-33.2s-27-16.7-38.6-27.3c-5.6-4.9-10.1-10.9-13.2-17.7
	c-3.4-7.7-3.8-16.3-4.5-24.6c-1.6-19.5-1.8-39-3.2-58.4c-1.4-19.5-4.4-38.9-9.1-57.9c-2.1-9-4.5-17.9-7.2-26.8s-6.6-18.5-8.9-27.9
	c-0.9-3.6-0.7-7.3-2.6-10.6s-1.8-6.4-2.5-9.9s-2.5-5.5-3.2-8.8c-0.3-1.7-0.5-3.5-0.8-5.2s-1.4-3.4-2.4-5.4s-2-8.4-2.8-12.2
	s-2.5-10.5-3.6-15.8c-2-9.5-3.9-18.9-5.6-28.4c-3.4-19.3-5.3-38.9-5.6-58.5c-0.1-9.3,0-18.7,1.6-27.8s3.9-16.7,12.9-19
	c7.2-1.9,15.9,1.7,22.7,3.8c8.1,2.6,15.9,5.8,23.5,9.7c14.9,7.7,29,16.9,42,27.5c3.1,2.4,6.5,4.3,9.4,6.7c1.2,1.3,2.8,2.2,4.5,2.7
	h1.6c-0.1,0.1,1.1,0.8,1.6,1.2c6.9,5.1,14.2,9.6,21.9,13.3c7.5,3.5,15.2,6.7,22.3,10.9s14.2,11.8,19.9,19.3s10.6,14.7,15.9,22.1
	c2.5,3.6,5.1,7,8,10.2c1.2,1.4,2.3,2.8,3.6,4.2c1.3,1.4,2.3,2.9,3.1,4.6c1.7,3.3,4.7,6.2,6.9,9.2l9,11.6
	c5.3,6.9,10.4,13.8,15.4,20.9c10.1,14.4,19.3,29.3,26.7,45.2c3.6,7.7,6.6,15.7,9,23.9c1.2,3.9,1.5,8.6,4.5,11.5
	c2.9,2.7,6.5,4.6,10.4,5.5c7.2,1.3,14.2-1.2,20.7-4.1s15.1-6.8,23.2-9.2s18.2-4.7,27.6-4.6s17.5,2.8,26.4,3.8s18.4-2.3,27.3-4.1
	s18.4-3.1,27.7-1.5c18.3,3.2,35.2,10.5,53,15.4c7.4,2.1,16.6,3.7,24.1,0.8s11.9-8.2,15.6-14.3s6.3-15.1,9-22.9
	c1.4-4.1,2.9-8.2,4.6-12.2c0.7-1.8,1.6-3.6,2.6-5.3c1.3-2,3.2-3.5,4.4-5.6c2.3-3.7,4-7.6,6.5-11.2s3.8-8,6.6-11.3
	c6.4-7.4,12-15.4,18.3-22.8c2.7-3.1,4.4-6.6,6.7-10s5.4-6.9,8.2-10.2c6-7,12-14,18.2-20.9c11.6-13.2,24-25.7,37.1-37.3
	c14-12.1,29.5-21.9,45.4-31.4s31.3-20.2,47.7-29s33.1-16.9,51.3-15.4c6.6,0.5,8.7,5.2,10.2,11.1c1.9,7.6,3,15.4,3.5,23.3
	c0.4,9.7,0.3,19.4-0.3,29.1c-0.6,9.5-0.7,19.2-2,28.7c-1.3,9.5-3.2,18.7-5.3,28c-1,4.6-2,9.2-3.1,13.8c-0.2,1.6-0.7,3.2-1.3,4.7
	c-0.8,1.5-1.4,3.1-1.8,4.7c-1.9,8.9-4.9,17.4-7.5,26.1c-1.2,4.2-2.1,8.5-3,12.8c-0.4,1.7-0.5,4-1.2,5.7s-1.6,2.4-2,3.9
	c-1.2,3.8-1.8,8-2.6,11.8s-2.4,6-3.1,9.4c-1.9,9.3-4.1,18.7-5.9,28.1c-3.6,18.8-4.4,38-5.5,57.1c-1,19.7-3.5,39.4-7.3,58.8
	c-3.5,17.4-6.9,35.4-18.1,49.6s-26.2,23.5-40.7,32.5s-25,19-33.4,32.4c-8,12.6-12.1,27.2-12,42.1c0.1,6.4,10.1,6.4,10,0
	c-0.2-15.8,5.3-30.7,14.8-43.2c4.8-6.1,10.3-11.7,16.4-16.5c7-5.5,15-9.6,22.3-14.7c14.3-9.9,28.4-20.9,37.1-36.4s11.7-34.6,15-52.1
	c3.7-20.1,5.2-40.2,6.4-60.5c0.6-10.1,1-20.3,2.1-30.4s3-18.8,5-28.1l3-13.7c0.4-1.8,0.4-3.9,1.1-5.6s1.6-2.4,2-3.9
	c1.2-4.1,1.6-8.4,2.7-12.5c0.3-1.3,0.9-2.6,1.7-3.7c0.7-2,1.2-4,1.5-6.1c2-9.2,4.7-18.1,7.4-27.1c1.3-4.4,2.2-8.8,3.4-13.1
	s2.4-6,3.2-9.5c4.3-19,8.6-37.8,9.7-57.3S1012,205.9,1009,186.3z"/>
<path d="M386.4,516.9c-0.3-1.8-0.6-3.7-1-5.5c2.3-0.2,4.6-0.3,6.9-0.1c3.3,0.2,5.6-3.4,4.9-6.4c-0.2-0.6-0.3-1.3-0.4-1.9
	c3.1-0.2,6.2-1.3,8.6-3.3c4.3-3.6,5.8-9,6.3-14.4c0.4-5,0.4-10.1-0.1-15.1c-0.3-5.4-1.9-10.7-4.5-15.4c-3.2-5.5-11.9-0.5-8.6,5.1
	s3.5,14.1,3.4,21.5c-0.1,3.2-0.2,7.3-1.9,9.5l-1.2,1.3c0-0.1-1.3,0.6-1.1,0.6l-1,0.3h-1c-2.2-1.2-5.7-0.7-6.9,1.8
	c-1,2-1.6,4.2-1.8,6.5c-3.1,0.2-6.2,0.7-9.2,1.4c-2.6,0.7-4.2,3.5-3.5,6.1c2.3,6.8,3.2,14,2.6,21.2c-0.7,6.4-3.3,12.4-7.6,17.2
	c-4.4,4.9-9.7,8.1-15.7,11.1c-3.1,1.6-6.3,3-9.4,4.4l-1.7,0.7l-2.4,0.8l-0.4,0.2h-0.2c-0.6-0.5-1.1-1-1.6-1.6
	c-19.6-22.4-39.1-45.9-51.9-73c-6.3-13.6-10.4-28-12.2-42.9c-2-17.3-2.6-34.8-4.6-52.1s-4.3-34.6-7.8-51.7c-1.6-8-3.8-15.8-6.6-23.5
	c-3-7.9-6.7-15.6-11.1-22.8c-4.1-7.1-8.3-14.2-11.9-21.6c-3.4-7.1-6.3-14.4-8.7-21.9c-4.7-15.2-8.2-30.8-10.5-46.6l-0.9-6.3
	c19.1-0.5,36.5,12.9,50.4,25.1c8.4,7.4,16.6,15,25.7,21.7s18.4,12.2,27.2,18.9c29.7,22.4,53.3,53.2,68.3,87.6
	c8.3,19.3,13.7,39.7,16.2,60.6c0.3,2.7,2.1,5,5,5s5.3-2.3,5-5c-2.2-19.7-6.9-39-14.2-57.5c-7.3-18.4-16.8-35.8-28.5-51.8
	c-11.6-16-25.3-30.4-40.7-42.9c-8.8-7-18.2-13.1-27.5-19.5s-17.8-13.8-26.2-21.3c-16.7-14.9-35.6-30.2-59.1-30.8
	c-2.9,0-5.8,0.3-8.6,0.7c-2.9,0.4-3.8,3.7-3.5,6.1c2.3,16.5,5,33,9.4,49c4.4,16.3,10.9,31.9,19.3,46.6c4.2,7.4,8.7,14.6,12.3,22.3
	c3.5,7.5,6.1,15.4,8,23.5c4.1,16.9,6.4,34.4,8.5,51.7c1.1,9,2,18.1,2.7,27.1s1.2,17.7,2.1,26.6c0.9,8.6,2.4,17.2,4.5,25.6
	c2.1,7.6,4.8,15.1,8.1,22.3c12.8,28.7,33.5,53,53.8,76.7c3.1,3.6,6.5,6.4,11.6,5.5s7.6-2.7,11.1-4.3c6.7-2.8,13.1-6.5,18.9-11
	c5.9-4.7,10.5-10.9,13.1-18C387.3,533.1,387.5,524.8,386.4,516.9z M339.6,564.2h0.1C337.9,564.8,339.6,564.2,339.6,564.2z"/>
<path d="M462.1,474.8c-2.1-1.1-5.7-0.7-6.8,1.8c-0.9,2-1.9,3.9-3,5.7l-1.6,2.6c-0.4,0.4-0.7,0.8-1,1.3l-0.4,0.6h-0.1
	c-2.7,3.4-5.7,6.6-8.9,9.5c-6.7,6.1-13.9,11.4-20.7,17.2c-6.8,5.8-13.7,12.6-18.6,20.5s-8.8,19.6-11.1,30
	c-2.6,12.1-4.2,24.5-7.4,36.4c-0.7,2.7,0.8,5.4,3.5,6.2c2.7,0.7,5.4-0.9,6.2-3.5c2.8-10.7,4.4-21.6,6.5-32.5
	c1.1-5.1,2.2-10.2,3.7-15.3c0.8-2.4,1.6-4.8,2.6-7.1c0.1-0.2,0.1-0.3,0.1-0.5l0.3-0.6l0.7-1.5c0.6-1.3,1.2-2.5,1.9-3.7
	c1.2-2.2,2.5-4.4,4-6.5c0.3-0.3,0.6-0.7,0.8-1.1h0.1l0.4-0.5l2.2-2.6c2.9-3.3,6-6.3,9.4-9.1c6.7-5.9,13.9-11.2,20.6-17.1
	s14.4-14.1,18.4-23.3C465,479.3,464.7,476.2,462.1,474.8z"/>
<path d="M859.6,582.9c2.8-3.3,5.5-6.6,8.1-10c11.3-14.4,21.5-29.6,30.5-45.6c8.7-15.7,16.2-32.3,21-49.7c2.2-7.6,3.7-15.5,5.4-23.3
	s3.4-16.5,4.6-24.8s1.7-18.7,2.4-28s1.8-20,3.1-29.9s2.8-18.9,3.8-28.5s2.1-17.8,5.3-26.1c1.8-4.2,3.3-8.5,4.3-13
	c0.8-4.2,1.3-8.4,2.4-12.5s3.2-8.2,5.2-12.3s4-8.9,5.7-13.5c6.8-17.5,10.8-36.1,13.8-54.6c0.7-4.7,1.4-9.3,2-14
	c0.3-2.4-0.5-5.7-3.5-6.1c-24.6-3.4-45.6,10.7-63.2,26.2c-8.7,7.6-17.1,15.6-26.6,22.3s-19,12.8-28.1,19.6
	c-16.9,12.5-32.7,26.2-47.4,41.2c-14.8,15.2-28.4,31.8-39.4,49.9s-18.5,36.1-21.9,56c-0.4,2.6-0.8,5.2-1.1,7.8s2.6,5,5,5
	s4.7-2.3,5-5s1.4-8.9,2.4-13.4c1.1-4.5,2.4-9,4-13.4c3.1-9.1,7.1-17.8,11.9-26.1c9.8-17.5,22.2-33.5,35.9-48.2
	c13.9-14.9,29.1-28.6,45.2-41.1c8-6.2,16.8-12.3,25.4-18c9.7-6.5,18.9-13.7,27.6-21.4c9.3-8.3,18.6-17,29.4-23.4
	c8.7-5.1,18.8-8.9,28.9-8.7c-2.3,16.2-5.3,32.4-10,48.1c-2.4,8.6-5.6,17-9.4,25.1c-1.9,4.3-4.3,8.3-5.7,12.8c-1.2,4-2,8.1-2.6,12.2
	c-0.6,4.2-1.7,8.2-3.3,12.1c-1.8,4.3-3.3,8.7-4.3,13.2c-2,8.8-2.7,17.9-3.7,26.9s-2.8,18.9-3.9,28.4s-1.9,19.4-2.7,29.2
	s-1.2,16.6-2.5,24.5s-3,16-4.8,23.9c-1.5,7.7-3.3,15.4-5.6,22.9c-2.4,7.9-5.4,15.7-8.8,23.2c-7.5,16.2-16.3,31.7-26.5,46.3
	c-4.8,6.9-9.8,13.7-15.1,20.3c-2.5,3.1-5,6.3-7.7,9.3c-0.4,0.4-1.1,1.4-1.6,1.5s-0.8-0.4-1-0.4l-1-0.4l-0.5-0.2l-1.8-1.1l-0.4-0.3
	l-0.3-0.3l-1.5-1.4c-0.5-0.4-0.9-0.9-1.3-1.4l-0.8-0.9c0-0.1-0.1-0.1-0.1-0.2s-0.1-0.1-0.2-0.2c-1.8-2.5-3.5-5.2-5-7.9
	c-3.2-5.8-5.8-11.9-8.6-18c-2.5-5.8-5.7-11.3-9.6-16.3l-7-8.3l-0.9-1l-0.2-0.4l-1.5-2l-1.2-2l-0.6-1.1c-0.2-0.2-0.3-0.5-0.4-0.8
	c-0.2-0.6-0.4-1.2-0.6-1.8c-0.1-0.2-0.3-1.6-0.3-1.4v-2.2c0.2-0.5,0.3-1,0.4-1.5c0.7-2.6-0.9-5.4-3.5-6.1c-3-0.7-6.1-1.2-9.2-1.4
	c-0.2-2.3-0.8-4.5-1.8-6.5c-1.2-2.5-4.7-3-6.9-1.8h-0.4c-0.1,0-0.1,0-0.1,0.1H781l-0.7-0.3l-0.8-0.6c-0.3-0.1-0.3-0.2-0.1,0
	l-0.3-0.3l-0.6-0.7l-0.4-0.7c-0.2-0.2-0.4-0.5-0.4-0.8c-0.3-0.8-0.6-1.6-0.7-2.4c-0.3-1.7-0.5-3.5-0.5-5.3
	c-0.1-7.4-0.4-15.4,3.4-21.9s-5.4-10.6-8.6-5.1c-2.6,4.8-4.2,10.1-4.5,15.5c-0.5,5.1-0.6,10.2-0.1,15.3c0.6,5.4,2.2,10.7,6.6,14.2
	c2.4,1.9,5.3,3,8.3,3.2l-0.3,1.9c-0.8,3,1.5,6.6,4.8,6.4c2.5-0.2,5.1-0.1,7.6,0.2c0.1,5.5,2.6,10.6,6,15.2s9.8,10.8,13.2,16.9
	c6.4,11.2,10.1,24,17.8,34.5c4.1,5.6,9.8,11.3,17.2,11.9C853.3,590.5,856.5,586.6,859.6,582.9z"/>
<path d="M801,589.6c-9.9-8.1-20.3-15.8-28.8-25.3c-1.2-1.3-2.3-2.6-3.4-4s-0.1-0.1-0.1-0.2s0.1,0.2-0.1-0.1s-0.1-0.1-0.2-0.2h0.1
	c-0.3-0.3-0.5-0.7-0.7-1l-1.5-2c-1.9-2.9-3.6-6-5-9.2c-1.1-2.4-4.8-3.2-6.9-1.8s-2.9,4.3-1.8,6.8c5.2,11.8,14.3,21.3,23.9,29.6
	s20.3,16,29.7,24.9c2.6,2.4,5.1,4.9,7.4,7.6l1.8,2l0.7,1h0.2c0,0.1,0,0.1,0.1,0.2s2.1,2.9,3.1,4.4s4.5,3.3,6.8,1.8
	c2.4-1.4,3.2-4.5,1.8-6.9C821,606.4,811.1,597.7,801,589.6z"/>
</svg>
