<?xml version="1.0" encoding="utf-8"?>
<!-- Generator: Adobe Illustrator 24.2.3, SVG Export Plug-In . SVG Version: 6.00 Build 0)  -->
<svg version="1.1" id="ad68683e-8145-4316-89c0-b78e14ed9e36"
	 xmlns="http://www.w3.org/2000/svg" xmlns:xlink="http://www.w3.org/1999/xlink" x="0px" y="0px" viewBox="0 0 1152 864"
	 style="enable-background:new 0 0 1152 864;" xml:space="preserve">
<path d="M890.4,613.1c-0.2-6.1-0.9-12.1-2-18.1c-2.2-11.8-6.1-23.2-11.4-34c-2.6-5.2-5.5-10.2-8.7-15c-0.4-0.6-0.6-1-0.7-1.1
	c0.5-0.3,1.7-1.1,2.1-1.5c2.3-1.9,3.7-4.7,3.7-7.7c0-2.8-0.7-5.7-0.9-8.5s0-6.5,0-9.8c0.1-6.5,0.1-12.9-1.1-19.3
	c-2.2-11.6-8.2-22.1-10.5-33.7c-0.4-2-1-4.2,0-6.1c1-1.9,3-5.3,4.1-8.2c2.1-5.8,2-11.6,1.2-17.7c-1.8-12.6-4.1-25-7-37.4
	c-6-25.5-14.4-50.3-24.9-74.3c2.4-1.1,4.5-2.8,6.1-5c3.9-5.1,4.4-11.4,2.9-17.4c-0.9-3-2-5.8-3.4-8.6c-1.2-2.5-2.1-5.2-2.8-7.9
	c-1.5-4.9-3.1-9.8-5-14.6c-7.3-19.2-17.9-37.1-32.7-51.4c-4.3-4-8.8-7.8-13.6-11.3c-1.9-1.3-3.8-2.6-5.8-3.8
	c2.7-1.9,2.9-6.8-0.3-8.6c-13-7.4-27.6-10.9-42.1-14.3c-6.5-1.4-12.8-3.3-19.1-5.4c-4.4-1.6-8.9-3.8-11.9-7.5
	c-1.6-1.8-2.8-4.3-4.2-6.3c-2.3-3.1-4.8-6-7.6-8.6c-5.1-4.6-10.7-8.5-16.8-11.7c-12.7-6.6-26.6-10.6-40.5-13.6
	c-8.3-2-16.8-2.7-25.3-2c-8.9,0.8-17.1,3.2-25.5,5.9c-8.4,2.7-14.6,2.1-22.4,0.7c-7.8-1.4-17.2-4.1-26-5.5c-8.8-1.4-17.1-1.8-25.7,0
	c-7.6,1.7-14.9,4.4-21.7,8.2c-13.4,7.1-25.3,16.8-38.5,24.1c-13.2,7.3-30.1,11-45.8,15.1c-15.7,4.1-30.8,9.5-41.5,21.7
	c-2.6,2.9-1.1,8.9,3.5,8.5h0.7c-12.9,13.6-24.8,28.1-35.7,43.3c-6.2,8.8-12.1,17.8-17.6,27c-2.7,4.6-5.4,9.3-8,14
	c-2.6,4.7-5.1,9.5-5.9,14.8c-1.4,8.3,2.4,17.1,9.5,20.2c-18.9,42.8-30.6,88.4-34.6,135c-0.4,4.3,5.5,6.4,8.4,3.8
	c0,0.4,0.1,0.8,0.1,1.1c0,3.4-1.1,6.8-1.7,10.1c-1.3,7.5-2.6,14.9-4,22.4l-7.8,44.3c-0.4,2,0.2,4.7,2.3,5.6l4.1,1.8
	c-11.5,16.5-18.9,35.5-21.8,55.4c-0.8,5.5-1.3,11.1-1.4,16.7c0,5.1,0.3,10.5,2.7,15.1c2.9,5.2,8.6,8.3,14.6,7.7
	c1.8,12.9,4.2,25.8,7.1,38.5c1.7,7.4,3.6,14.8,5.7,22.2c1.8,6.3,3,14.9,8.3,19.5s12.3,1.3,14.5-4.9c0.7-2,0.9-4.2,2.2-5.9
	c1.3-1.6,3.1-2.7,5.1-3.3c4.8-1.7,10-1.8,15.1-1.4c7.4,0.4,14.8,1.3,22.3,0.9c13.7-0.7,28.6-6,35.4-18.6c21-5.1,39.5-17.8,51.8-35.6
	c13.7-19.8,18.1-45.5,12.7-68.9c-2.2-9.7-7.1-18.5-10.7-27.8l2.8,1.7c2.6,1.5,5.3,0.4,6.9-1.8c13.8-18.7,9-43.6,0.1-63.3
	c-2.3-5-5.6-9.6-7.7-14.6c-0.4-1.1-1.5-3.6-0.9-4.8c0.6-1.2,0.7-0.4,1-0.5c0.3-0.1,3.1-1.4,4.4-2.6c9-8.7-5-22.2-10.6-28.4
	c-5.6-6.2-13.8-15.1-14.5-25.6s2.7-21.2,4-31.8c0.7-5.1,0.6-10.3-0.4-15.3c-1.3-5.8-4.5-9.9-7.6-14.8c-3.1-4.9-1.9-11.7-1.3-17.5
	c0.6-5.8,1.5-12.8,2.6-19.2c4.9-29,13.7-57.3,26.2-83.9c1.3-2.4,0.4-5.5-2.1-6.8c-1.6-0.9-3.6-0.8-5.1,0.3c-0.3-0.4-0.9-0.5-1.2-1.1
	c-0.3-0.6,0.4-2.3,1-3.2c2.1-3.3,5.9-5.9,9.1-8.2c21.6-15.6,48.4-22,74.7-17.8c2.6,0.4,5.3-0.7,6.1-3.5s-0.8-5.7-3.5-6.2
	c-27.1-4.6-55,1.1-78.2,16c-6.9,4.5-16.4,10.4-18.7,18.9c-1.4,5.4,1.1,11.1,6,13.8c-9.6,21.6-16.9,44.1-21.7,67.2
	c-2.7,13-4.6,26.2-5.7,39.4c-0.6,6.4,0.1,12.2,3.7,17.7c3.6,5.5,5.6,8,6.3,13.2c1.4,10.2-2.1,20.5-3.5,30.5
	c-1.4,10-0.6,21.8,5.7,31.4c6.3,9.6,14.6,15.7,20.2,24.9c0.6,0.9,1,1.9,1.3,3l-0.7,0.3c-2.8,0.8-5.1,2.8-6.4,5.3
	c-2.4,4.9-0.7,10.5,1.6,15.1c2.3,4.6,5.8,10.3,8.1,15.9c2.4,5.7,4.3,11.7,5.4,17.8c1.9,10.1,1.1,20.3-3.7,29.1l-9.6-5.5
	c-4-2.4-8.1,1.5-7.4,5.6c2.3,12.3,9.5,22.9,13.1,34.7c3.3,11.2,4.1,23,2.2,34.6c-3.5,21.9-16.3,41.1-35.1,52.9
	c-4.4,2.8-9.1,5.1-14,7l-7.2,2.3c-3.2,0.8-5.8,0.9-7.6,4.1c-5.3,9.6-15.5,13.8-26.2,14.5s-23.6-2.1-35.3-0.4
	c-8.8,1.3-17.9,6.3-19.7,15.7l-0.3-0.5c-1.5-3.5-2.3-7.5-3.3-11.1c-2.1-7.2-3.9-14.4-5.6-21.6c-3.5-15-6.3-30.1-8.3-45.4
	c-0.6-4.8-6.4-7-9.3-2.5c-0.9,1.4-3.6,0-4.5-0.8c-2.5-2.6-2.4-7.3-2.4-10.6c0-8.6,1-17.2,3-25.6c3.9-17.1,11.5-33.2,22.2-47.1
	c1.5-2,0.4-5.9-1.8-6.9l-6.2-2.7c3.1-17.7,6.3-35.5,9.5-53.3l2.4-13.9c0.8-4.3,1.9-8.9,0.3-13.1c-1.2-3-3.8-5.3-7-6.2
	c4.6-44.9,16.6-88.7,35.4-129.7c1.9-4.2-1.2-8-5.6-7.4c-4.4,0.6-5.9-5.3-5.7-8.1c0.3-5.8,3.8-11.2,6.6-16.2
	c5.7-10.4,11.9-20.5,18.5-30.3c13.3-19.5,28.4-37.8,44.9-54.7c1.8-1.7,2.2-5.3,0-7c-0.9-0.8-1.9-1.4-2.9-2
	c8.1-6.1,17.9-9.6,27.8-12.3c13.7-3.7,27.8-6.2,40.9-11.8c27-11.6,49.2-38.8,80.8-37c8.4,0.4,16.5,2.5,24.7,4.4
	c8.2,1.9,16.7,4,25.1,3.4c8.4-0.6,14.4-3.7,21.7-5.6c8.6-2.3,17.5-3.1,26.3-2.2c7.1,1,14.1,2.5,20.9,4.6c6.7,1.7,13.2,3.9,19.5,6.6
	c12.1,5.2,22.9,12.6,30,24c7.1,11.4,20.4,15,32.5,18.1c12.1,3.1,23.2,5.1,34.2,9.4c-1.1,1.3-1.4,3-1,4.6c0.8,3.1,3.9,4.1,6.4,5.5
	c9.8,5.4,18.7,12.2,26.5,20.2c14.7,15.1,24.4,34.2,30.9,54.1l2.7,9c1,3.5,3.1,6.5,4.3,10s1.8,6.2,0.6,9.1c-1.2,2.9-2.9,4.6-5.2,4.2
	c-4.4-0.6-7.5,3.2-5.6,7.4c9.7,21.3,17.7,43.3,23.7,65.9c3,11.3,5.5,22.8,7.6,34.3s5.1,21.8-0.7,31.7c-1.3,2.2-2.5,4-2.8,6.5
	c-0.3,2.9-0.2,5.9,0.5,8.7c1.2,5.3,2.8,10.5,4.8,15.5c2.1,5.3,3.8,10.6,5.3,16.1c1.4,5.5,1.5,11.2,1.4,16.9s-0.3,12,0.5,18
	c0,0.6,0.6,2.1,0.3,2.6c-0.7,0.5-1.4,1-2.2,1.4c-1.9,1.5-3.2,3.7-3.6,6.1c-0.9,5.5,3.5,9.8,6.1,14.2c2.8,4.7,5.3,9.5,7.4,14.5
	c4.8,11.4,7.9,23.5,9,35.8c0.5,5.5,1.3,11.8-0.2,17.3c-0.4,1.7-1.2,3.7-3,4.5s-2.6,0.8-3.2-0.1c-2.9-4.5-8.7-2.3-9.3,2.5
	c-1.8,14.2-4.4,28.4-7.6,42.3c-1.6,7.1-3.3,14-5.2,21c-0.9,3.3-1.9,6.5-2.9,9.8l-1.5,5.1l-0.3,0.8l-0.6-2.4c-0.9-2.6-2.2-4.9-4-7
	c-3.3-3.8-7.7-6.4-12.5-7.7c-4.8-1.4-10-1.3-14.8,0.3c-5.3,2-10.3,4.9-16.1,5.7s-7.8-1-10.9-4.6s-7.6-5.7-11.9-7.6s-8-3-10.1-6.4
	c-0.8-1.2-1.2-2.4-2.5-3.2c-1.4-0.6-2.9-1-4.4-1.2c-2.9-0.7-5.8-1.6-8.6-2.7c-21.1-7.9-38.5-25.6-45.6-47
	c-4.4-13.1-5.2-27.1-2.5-40.7c1.5-6.9,3.8-13.6,6.9-19.9c3.2-6.9,6.4-13.9,7.8-21.4c0.7-4.1-3.4-8-7.4-5.6l-9.6,5.6
	c-10.6-19.2-1.4-43,8.7-60.7c2.6-4.7,5.1-10.7,3.2-16.1c-1-2.7-3.1-4.9-5.7-6l-1.5-0.7c0.3-1.2,0.8-2.3,1.2-3.5
	c1.7-5.3,4.4-10.2,7.8-14.6c3.2-4.1,6.9-7.7,10.3-11.5s6.7-7.6,8.5-12.3c1.7-4.5,2.3-9.3,1.8-14c-0.9-9.9-4.8-19.3-5.7-29.2
	c-0.3-4.2-0.2-8.6,1.8-12.3c3.2-5.8,7.7-9.9,7.4-17c-0.2-1.4-0.3-2.8-0.2-4.2c0.3-1.4,0.8-2.8,1.3-4.1c0.9-2.9,1.6-5.9,2-8.9
	c0.9-6.1,1.1-12.3,0.5-18.4c-2.6-27.8-16.2-53.6-30.1-77.6c0.8-0.5,1.5-1.1,2.2-1.7c4.3-4.2,4.4-10.2,1.8-15.3
	c-3.9-7.3-11.9-11.7-19.2-14.8c-16.2-6.9-33.9-10.3-51.2-13.3c-7.9-1.3-15.9-2.5-23.9-3.6c-2.7-0.3-5,2.6-5,5c0,2.4,2.3,4.7,5,5
	l2.5,0.4l3.9,0.5l9,1.4c7.1,1.1,14.1,2.4,21,3.8c13.3,2.8,27.6,5.7,39.6,12.2c2.8,1.4,5.4,3.3,7.5,5.6c1.1,1.1,3.1,3.2,2.6,4.9
	c-0.1,0.5-0.4,0.9-0.7,1.2l-0.4,0.3c-4.2-2.8-10.2,1.4-7.3,6.4c13.4,23.2,27.6,47.7,32,74.5c1,6,1.3,12.2,0.8,18.3
	c-0.2,2.8-0.7,5.5-1.3,8.2c-0.7,2.8-1.9,5.5-2.4,8.4c-0.5,2.9,0.7,6.1-0.3,8.8c-1,2.7-3.7,5.6-5.3,8.3c-2.5,4.3-3.8,9.2-3.7,14.2
	c-0.1,10.1,3.6,19.8,5.3,29.7c0.7,4.1,1,8.5-0.2,12.6c-1.2,4.1-4.3,7.4-7.2,10.5c-7.5,8.2-15.2,16.1-19.1,26.8
	c-2,5.5-4.9,12.2,0.4,16.7c1.3,1,4.1,1.4,4.8,2.7c0.7,1.3-1.2,5.3-1.9,6.6c-6.4,12-12.4,24.1-14.5,37.8s-0.3,27.1,7.9,38.2
	c1.6,2.2,4.3,3.3,6.9,1.8l2.8-1.6c-3.2,7.7-7.2,15.2-9.6,23.2c-3.4,11.7-4.2,23.9-2.6,36c4.9,35.6,31.1,64.6,66.1,73
	c2.7,4.3,7.3,6.9,11.9,8.9c2.4,1,4.7,2.1,7,3.3c2.5,1.4,4,3.3,5.9,5.3c4.4,4.6,10.7,6.3,16.9,5.5c3.4-0.4,6.7-1.2,9.9-2.4
	c3.3-1.2,6.5-3.1,9.8-4c4.8-1.1,9.8-0.1,13.7,2.9c1.7,1.3,3,3,3.8,5c1,2.8,1.4,5.8,3.5,8.2c2.3,2.4,5.7,3.3,8.9,2.5
	c4.3-1,6.4-4.6,7.6-8.5c2.6-8.2,5-16.5,7.1-24.8c4-16.1,7.2-32.4,9.6-48.9c1.5,0.2,3,0.2,4.5-0.1c5.3-1,9.1-4.8,11-9.7
	S890.7,618.7,890.4,613.1z M285.3,458.8C284.9,459.1,285.3,457.9,285.3,458.8L285.3,458.8z M439.9,225.7
	C440,225.7,440,225.9,439.9,225.7L439.9,225.7z M441.4,461.6C441.4,462,441.2,461.9,441.4,461.6L441.4,461.6z M706,225.6
	C705.7,225.8,705.7,225.6,706,225.6L706,225.6z M847.3,712.4C847.7,712.6,847.4,713.2,847.3,712.4L847.3,712.4z"/>
<path d="M363.3,374.8l0.3-0.6l0.4-1c0.7-1.6,1.5-3.1,2.2-4.6c3.2-6.4,6.6-12.8,7-20c0.2-3.8-0.6-7.6-2.5-11c-1.8-3.5-4.8-6.2-8-8.5
	c-2.9-1.9-5.9-3.5-9-4.8l-1.2-0.5l-1-0.4l-1.2-0.5l-0.7-0.4h-0.2c0.1-0.2,0.2-0.4,0.2-0.6c0.2-0.3,0.3-0.6,0.4-0.9
	c0-0.2,0.1-0.4,0.2-0.6l0.7-1.3c0.4-0.9,0.9-1.8,1.4-2.7s1.9-3.6,3-5.4c2-3.5,4.2-6.8,6.5-10.1l1.6-2.3l0.9-1.2l0.6-0.8l3.7-4.5
	c2.6-3.1,5.3-6,8.1-8.8c2.8-2.8,2.9-2.8,4.4-4.2c1.9-2,1.9-5.1,0-7.1c-2-1.9-5.1-1.9-7.1,0c-12.3,11.4-22.7,24.8-30.5,39.6
	c-2.2,4.1-5.3,9.2-3.6,14c0.9,2.6,2.8,4.7,5.2,5.9l1,0.5l0.7,0.3l0.6,0.3l2.4,1l4.8,2.3l2.2,1.4l1,0.7l0.5,0.3l1.8,1.6l0.7,0.8
	l0.2,0.2c0,0.1,0.1,0.1,0.1,0.2c0.5,0.7,0.9,1.4,1.3,2.1c0,0.1,0.1,0.1,0.1,0.2c0,0.1,0.3,0.8,0.4,1.2c0.1,0.4,0.2,0.8,0.2,1.2
	c0.1,0,0.1,0.1,0.1,0.2c0,0.1,0.1,1.5,0.1,2.3c-0.1,0.4-0.1,0.7-0.1,1.1c-0.2,0.7-0.3,1.5-0.5,2.2s-0.5,1.5-0.7,2.3l-0.5,1.1
	c0,0.2-0.1,0.3-0.1,0.5l-0.2,0.4l-0.3,0.7c-0.2,0.4-0.4,0.7-0.5,1.1l-1.2,2.4c-3.3,6.8-6.9,13.4-7.8,21c-0.6,4.5,0.2,8.9,0.4,13.4
	c0,1.1,0,2.2-0.1,3.3v1c0,0.1-0.1,0.2-0.1,0.3s-0.1,0.6-0.2,0.9c-0.2,0.9-0.4,1.7-0.7,2.6c-0.1,0.4-0.3,0.8-0.4,1.3
	c0,0.1-0.1,0.2-0.1,0.3l-0.2,0.3c-0.8,1.8-1.8,3.5-2.9,5.1l-0.8,1.2l-0.5,0.7l-1.8,2.1c-2.6,3-5.5,5.7-8.3,8.4
	c-6.1,5.9-12,12.1-15.3,20.1s-3.2,15.7,0.5,22.6c0.9,1.7,2.1,3.3,3.5,4.7c2,2,5.1,2,7.1,0s2-5.1,0-7.1l-0.9-0.9c0-0.1,0-0.1-0.1-0.1
	c-0.5-0.7-0.9-1.4-1.2-2.1h-0.1V459c-0.2-0.3-0.3-0.7-0.4-1.1c-0.2-0.6-0.2-1.3-0.4-1.9c0-0.2-0.1-0.2-0.1-0.2v-0.2v-0.4
	c-0.1-0.4-0.1-0.8-0.1-1.2c0-0.8,0-1.7,0.1-2.5v-0.3c0.1-0.4,0.1-0.8,0.2-1.3l0.6-2.4c0.2-0.4,0.3-0.8,0.4-1.2l0.5-1.1
	c0-0.2,0.1-0.3,0.1-0.4l0.7-1.3c0.9-1.7,2-3.3,3.2-4.8l0.4-0.6l0.8-0.9l2.1-2.4l4.1-4.2c5.7-5.5,11.7-11,15.8-18
	c2.1-3.5,3.5-7.4,4.2-11.5c0.6-4.7,0.1-9.2-0.2-13.9v-3c0-0.5,0-1.1,0.1-1.6l0-0.8c0.3-1.6,0.7-3.2,1.2-4.8
	C362.8,376.3,363,375.6,363.3,374.8z"/>
<path d="M375.6,601.7c0.1-0.3,0.1-0.6,0.1-0.9c0.1-0.1,0.1-0.3,0.1-0.4c0-0.4,0.1-0.9,0.2-1.3c0.3-2.2,0.8-4.4,1.4-6.6
	c0.6-2.1,1.2-4.2,2-6.2c0.2-0.4,0.4-0.9,0.5-1.3l0.2-0.3l0.4-1c0.6-1.4,1.2-2.7,1.9-4c2.6-5.6,5.3-11.1,7-17.1s2.8-12.2,3.3-18.4
	c0.7-6,1.1-12.1,1.2-18.1c0.2-14-0.9-28-3.5-41.8c-0.5-2.5-3.7-4.2-6.1-3.5c-2.6,0.8-4.2,3.5-3.5,6.2c0.5,3,1,6,1.4,8.9
	c0,0.2,0.1,0.3,0.1,0.5c0,0.4,0.1,0.8,0.1,1.2l0.3,2.2c0.1,1.5,0.3,3,0.4,4.6c0.6,6.1,0.8,12.2,0.8,18.3s-0.3,12.3-0.9,18.4
	c-0.1,1.5-0.3,3-0.4,4.6l-0.3,1.8c0-0.3,0,0,0,0.2c0,0,0,0,0,0l0,0v0.2c-0.1,0.4-0.1,0.9-0.2,1.4c-0.4,3-1,5.9-1.8,8.8
	c-0.7,2.8-1.7,5.6-2.8,8.3c0,0.2-0.1,0.4-0.2,0.5l-0.4,1l-0.9,1.9c-0.6,1.4-1.2,2.7-1.9,4c-2.4,4.8-4.5,9.8-6.1,15
	c-2.7,9.3-3.5,19-2.1,28.6c1.5,10.3,6.3,20.3,14.3,27c2,1.7,5.2,2.1,7.1,0c1.9-2.1,2.1-5.2,0-7c-1.7-1.4-3.2-3-4.6-4.7l-0.2-0.3
	c-0.1,0-0.1,0-0.1-0.1l-0.9-1.3l-1.8-2.9l-1.3-2.7v-0.2c0-0.1-0.1-0.2-0.1-0.3l-0.6-1.8c-0.7-2-1.3-4-1.7-6.1
	c-0.1-0.5-0.1-1-0.2-1.5c-0.1-0.2-0.1-0.4-0.1-0.6c-0.1-1.1-0.3-2.2-0.3-3.3s-0.1-4.5,0-6.7C375.5,602.7,375.5,602.7,375.6,601.7z"
	/>
<path d="M783.5,342.9l0.6-1c0.2-0.3,0.4-0.7,0.7-1l0.4-0.6l1.8-1.7c0.1-0.1,0.6-0.4,0.7-0.6h0.1l0.8-0.5c3-2.1,6.5-3.4,9.8-5
	l1.1-0.4l1.2-0.6c1.2-0.6,2.2-1.4,3.1-2.3c2.2-2.4,3.1-5.7,2.3-8.9c-0.7-2.4-1.6-4.7-2.8-6.8c-1-1.9-2-3.8-3.1-5.7
	c-2.1-3.7-4.4-7.4-6.8-10.9c-5-7.3-10.7-14.1-16.9-20.4l-4.7-4.5c-1.9-1.7-5.2-2-7.1,0s-2,5.2,0,7.1c2,1.9,6.1,5.8,9,9l4.1,4.6
	l2,2.5l0.9,1.2h0.1l0.5,0.6c5,6.7,9.5,13.9,13.3,21.4c0.5,0.9,0.9,1.8,1.3,2.7c0.1,0.2,0.1,0.3,0.2,0.4c0,0.1,0.1,0.2,0.1,0.3
	c0.1,0.2,0.1,0.4,0.2,0.6l-0.4,0.2l-1.5,0.7h-0.1l-1.1,0.4l-1.2,0.5l-2.5,1.2c-1.6,0.7-3.3,1.6-4.9,2.5c-6.4,4-12.2,10.4-11.8,18.4
	s3.8,12.2,7.5,17.4l5.5,7.7c0.9,1.3,1.7,2.7,2.5,4.1l0.9,1.9l0.2,0.4l0.3,0.7l0.6,2.1c0.1,0.3,0.1,0.6,0.2,0.9v0.3
	c0.2,2.3,0.2,4.5,0,6.8c-0.2,2.4-0.4,4.7-0.4,7s0.2,4.2,0.4,6.3c0.2,3.9,0.9,7.9,1.8,11.7c1.1,4.1,3.1,7.8,6,10.9
	c2.8,3,5.9,5.7,8.8,8.7c1.4,1.4,2.8,2.9,4.1,4.5l0.5,0.7c0.3,0.3,0.6,0.7,0.8,1.1c0.6,0.8,1.2,1.7,1.7,2.6c0.5,0.8,1,1.6,1.4,2.4
	s0.1,0.3,0.2,0.5v0.2l0.3,0.9c0.3,0.8,0.6,1.7,0.8,2.5l0.3,1.4v0.5h0.1v0.5c0,0.2,0.1,0.5,0.1,0.7v1.3c0,0.8,0,1.7-0.1,2.5
	c0,0.1,0,0.3-0.1,0.4c0,0.4-0.1,0.8-0.2,1.2c-0.1,0.4-0.3,0.8-0.4,1.1c0,0.2-0.1,0.4-0.2,0.6c-0.3,0.7-0.7,1.4-1.2,2.1v0.3
	c-0.3,0.4-0.6,0.7-1,1c-2,2-2,5.1,0,7.1s5.1,2,7.1,0c6.1-6.2,7.3-15.2,5.3-23.4c-2-8.2-7.9-15.3-13.9-21.3l-4.7-4.6l-2.1-2l-0.9-1
	l-0.6-0.6l-1.3-2.1l-0.3-0.7c0,0.1,0,0.1-0.1-0.2v-0.2c-0.1-0.2-0.2-0.4-0.2-0.6c-0.6-1.7-1-3.4-1.3-5.2v-0.9c0-0.2,0-0.5-0.1-0.7
	l-0.3-3c-0.2-2.1-0.5-4.2-0.5-6.3c-0.1-4.7,0.8-9.4,0.5-14.1c-0.5-7.1-4.1-13.1-8.1-18.8c-1.9-2.7-3.8-5.3-5.6-8
	c-0.9-1.2-1.7-2.5-2.4-3.9c-0.3-0.5-0.5-1.2-0.8-1.7c-0.1-0.1-0.1-0.2-0.1-0.2c0,0,0,0,0,0l-0.3-1c-0.2-0.6-0.4-1.3-0.5-1.9V345
	l-0.2,0.1c0.1-0.6,0.3-1.3,0.5-1.9C783.4,343.1,783.5,343,783.5,342.9z M796,321.3v-0.2C796,321.2,796,321.3,796,321.3
	C796,321.3,796,321.3,796,321.3z"/>
<path d="M754.2,542.5c-1.7,2.5-2.5,5.5-2.1,8.5c0.5,3.2,1.4,6.2,2.8,9.1c0.6,1.1,1.1,2.3,1.6,3.5c0.1,0.1,0.2,0.5,0.3,0.6v0.2
	c0.2,0.7,0.5,1.4,0.7,2c2.3,6.3,5.5,12.2,8.2,18.3v0.2l0.4,0.9l0.6,1.6l1.2,3.5c0.7,2.3,1.3,4.7,1.7,7.1l0.3,1.8
	c0,0.1,0.1,0.3,0.1,0.4v0.4c0.2,1.3,0.3,2.6,0.4,3.9c0.2,2.5,0.2,4.9,0,7.4c0,0.7-0.1,1.3-0.2,2c0,0.3,0,0.5-0.1,0.8
	c-0.2,1.4-0.4,2.7-0.7,4.1s-0.7,2.5-1.1,3.7l-0.6,1.8l-0.4,0.9c-1,2.4-2.4,4.6-3.9,6.7c0,0.1-0.2,0.3-0.3,0.4l0.3-0.3l-0.6,0.8
	l-1.4,1.5c-0.9,1-1.9,2-3,2.9c-1.9,1.9-2,5-0.1,6.9c0,0,0,0,0.1,0.1c2.1,2,4.9,1.8,7.1,0c16.4-13.8,17.9-38.5,11.5-57.6
	c-1.9-6-4.8-11.5-7.4-17.2c-0.4-0.7-0.7-1.5-1-2.3c-0.2-0.2-0.3-0.5-0.4-0.8c0-0.1-0.2-0.4-0.2-0.6s-1.1-2.8-1.6-4.2
	s-1.2-2.9-1.9-4.4s-0.5-1.2-0.8-1.7l-0.4-0.9c0-0.1,0-0.1-0.1-0.2c-0.4-1.2-0.9-2.4-1.2-3.7c-0.1-0.2-0.1-0.3-0.1-0.5v-1h-0.1
	c0-0.1,0-0.1,0.1-0.1c0.1-0.1,0.1-0.3,0.1-0.4c0.4-0.5,0.8-1.1,1.1-1.7c0.9-1.3,1.8-2.7,2.5-4.2c2.8-5.9,4.3-12.3,4.2-18.8
	c-0.1-6.8-1.5-13.5-2.8-20.1l-0.9-4.7c-0.1-0.8-0.2-1.6-0.4-2.4c0-0.4-0.1-0.8-0.1-1.2h-0.1v-0.2c-0.4-3.2-0.5-6.3-0.4-9.5
	c0.1-2.7-2.1-4.9-4.8-5c-0.1,0-0.1,0-0.2,0c-2.7,0.1-4.9,2.3-5,5c-0.1,5.9,0.4,11.9,1.7,17.7c0.5,2.8,1.1,5.5,1.6,8.3l0.6,3.8
	c0.1,0.4,0.2,0.8,0.2,1.2h0.1c0.1,0.8,0.1,1.5,0.2,2.2c0.3,2.8,0.4,5.7,0.1,8.5c0,0.4-0.1,2.4,0,1.1c0,0.7-0.2,1.4-0.3,2.1
	c-0.3,1.5-0.7,3-1.2,4.4l-0.3,0.9c0-0.1-0.2,0.4-0.3,0.6s-0.3,0.6-0.2,0.6c-0.2,0.3-0.4,0.6-0.5,1
	C756,539.7,755.1,541.1,754.2,542.5z"/>
<path d="M619.8,173.3C619.9,173.3,619.9,173.3,619.8,173.3l1-0.7c2.5-1.9,5.1-3.5,7.8-5c2.4-1.4,3.2-4.4,1.8-6.8s-4.5-3.2-6.9-1.8
	c-5.3,2.9-10.2,6.4-14.6,10.5c-2.1,1.9-4,3.9-5.8,6.1c-2.3,2.6-4.7,5.5-5.5,8.9c-0.4,1.8-0.2,3.7,0.3,5.4c0.2,0.7,0.5,1.4,0.9,2
	l-0.9,1l-2.9,3.3c-4,4.8-7.3,10.2-9.8,15.9c-2.9,6.6-4.7,14.3-0.8,20.9c1.4,2.4,4.4,3.2,6.9,1.9c2.4-1.4,3.2-4.4,1.8-6.9l-0.5-0.9
	l-0.5-1.7v-0.7c0-0.7,0-1.4,0.1-2.1c0.1-0.3,0.1-0.6,0.2-0.8c0.1-0.7,0.3-1.3,0.5-2c0.2-0.5,0.3-1,0.5-1.5c0.1-0.3,0.2-0.7,0.4-1
	v-0.2c1.2-2.6,2.5-5.1,4-7.5c0.6-1.1,1.3-2.2,2.1-3.3l1.1-1.6l0.5-0.5l0.5-0.7c1.8-2.3,4.1-4.3,5.8-6.7c1.7-2.4,1.6-6.8-0.5-9.8
	c0-0.2,0.1-0.4,0.2-0.6l0.3-0.5c0.1-0.3,0.3-0.5,0.4-0.8l0.5-0.7c-0.5,0.8,0.3-0.5,0.5-0.6c1.7-2.1,3.5-4.1,5.4-5.9l3.2-3
	L619.8,173.3z M599.5,192.9c0.1,0.2,0.2,0.3,0.2,0.4L599.5,192.9z"/>
<path d="M556.4,205.9c-0.7-1.2-1.5-2.3-2.4-3.4l-1.8-2.3l-0.6-0.7l-0.4-0.6l-0.5-0.7c-0.1-0.3-0.4-1.4-0.1-0.3l-0.3-0.9v-0.2
	c0-0.6,0-1.2,0.1-1.8v-0.4l0.3-1.5c0.7-3.5,1.2-7,0.1-10.5c-1.1-3.3-2.8-6.3-5.1-9c-2-2.5-4.1-4.9-6.2-7.3
	c-5-5.6-10.2-11.1-15.6-16.3c-1.9-1.9-5.1-1.9-7,0c-1.9,2-1.9,5.1,0,7.1c4.6,4.5,9,9.1,13.3,13.8c2.2,2.4,4.4,4.9,6.5,7.4
	c0.4,0.6,0.9,1.2,1.4,1.7l0.2,0.3l0.5,0.7l1.2,1.7c0.1,0.3,0.2,0.5,0.4,0.7l0.4,0.8c0.1,0.2,0.1,0.5,0.2,0.7l0.3,0.7
	c0,0.2,0.1,0.3,0.1,0.5s0,0.4,0.1,0.6c0,0.6-0.1,1.1-0.1,1.7c0,0.6-0.1,0.7-0.1,0.8c-0.1,0.4-0.2,0.9-0.2,1.3
	c-0.7,3.4-1.3,6.9-0.1,10.3c0.5,1.5,1.3,3,2.3,4.2l1.8,2.3l0.6,0.7l0.4,0.6c1.7,2.3,3.2,4.8,4.4,7.4l0.5,0.9
	c0.1,0.2,0.2,0.4,0.2,0.6c0.3,0.7,0.6,1.4,0.8,2.1c0.6,1.5,1,3.1,1.4,4.7c0.2,0.7,0.4,1.5,0.5,2.2c0.1,0.4,0.2,0.9,0.2,1.3
	c0,0.1,0.1,0.2,0.1,0.4c0.2,1.7,0.3,3.3,0.3,5c0.1,2.7,2.3,5.2,5,5c2.8,0,5-2.2,5-5c-0.1-6.3-1.3-12.5-3.6-18.3
	C559.7,211.8,558.1,208.8,556.4,205.9z"/>
</svg>
