<?xml version="1.0" encoding="utf-8"?>
<!-- Generator: Adobe Illustrator 24.2.3, SVG Export Plug-In . SVG Version: 6.00 Build 0)  -->
<svg version="1.1" id="ea3bba3e-312b-4fc0-a413-ca3204cd3cd4"
	 xmlns="http://www.w3.org/2000/svg" xmlns:xlink="http://www.w3.org/1999/xlink" x="0px" y="0px" viewBox="0 0 1152 864"
	 style="enable-background:new 0 0 1152 864;" xml:space="preserve">
<path d="M930.2,392.4c-0.8-5.9-1.7-11.7-2.6-17.6c-0.9-5.9-2.9-12.3-4.5-18.3s-3.2-11.5-5.2-17.1c-2.3-6-4.9-11.9-7.9-17.6
	c-5.5-11.1-11.1-22.2-16.3-33.5s-10.5-22.1-12.7-34.1c-1-5.4-1.4-11,0.1-16.3s3.8-12.1,1.9-18.1s-4.9-9.1-10.1-10.4
	s-13.4-0.6-19.6,0.4c-21.7,3.7-42.2,12.6-59.6,26.1c-16.6,12.7-30.1,28.7-42.4,45.6c-3.1,4.2-5.9,8.4-9.7,12
	c-3.8,3.6-8,6.9-12.4,9.8c-4.4,3-8.9,5.9-13.3,9.1c-4.6,3.5-8.6,7.7-11.7,12.6c-2.2,3.4-3.7,7.1-4.6,11l-6.3-2.1
	c-12.6-3.7-25.9-4.6-38.9-5c-7.1-0.1-14.3-0.3-21.4-0.1c-7.1,0.2-15,1.1-22,3.6h-0.2c-9.8-3.5-20-5.9-30.4-7.1
	c-19.9-2.5-41-1.1-59.9,6.2c-12-4.3-25-4-37.6-3.9c-12.6,0.1-26.7,0.4-39.8,3.3c-3.6,0.9-7.1,1.9-10.6,3.2
	c-1.9-9-7.4-16.4-14.6-22.3c-7.2-5.9-17.4-11.6-24.8-19.1c-7.4-7.5-13.8-18.2-20.6-27.6c-6.8-9.4-14.8-17.4-23.1-25
	c-16.4-15.1-36-27.9-58-32.7c-5.5-1.2-11.1-1.9-16.8-2.1c-2.8-0.1-5.6-0.1-8.4,0.1c-3,0.2-6.4,0.2-9.1,1.5c-5,2.3-6.8,8-6.9,13.1
	c-0.1,3,0.7,5.7,1.4,8.6c0.7,3.1,1,6.3,1,9.5c0,6.8-1.1,13.7-3.1,20.2c-1.9,6.6-4.2,13.1-6.9,19.4c-5.3,11.9-12.8,22.8-18.7,34.5
	c-5.9,11.7-11,26.1-15.2,39.5c-4.2,13.5-7.1,27.3-8.9,41.3c-3.5,26.5-2.2,53.6,2.1,80c3.9,23.8,11.8,47.1,25.7,67
	c2.1,2.9,3.9,5.6,7.4,6.9s5.1,0.4,7.5,1.5c2.4,1.1,2.5,2.6,2.9,4.4c0.6,2.5,1,5,0.9,7.6c0.1,10.7-0.5,21.5,1.3,32.2
	c1.8,10.7,7,20.6,15.6,27.5c8.6,6.9,18.8,10.5,19.6,21.6c0.5,6.1-0.6,12.2-1.3,18.3c-0.3,2.6,2.6,5,5,5c2.4,0,4.7-2.3,5-5
	c1.4-12.3,3.5-25-5.6-35c-6.9-7.5-17.2-11-23-19.7s-6.4-18.1-6.6-27.7c-0.1-5.1,0-10.2,0-15.3s-0.2-11.3-2.7-16.3
	c-1.4-2.7-3.5-4.9-6.1-6.3c-2.6-1.4-5.6-1.5-8.2-2c0.1,0-1.5-0.2-1-0.2l-0.4-0.2c0-0.1-0.1-0.2-0.3-0.4s-1.8-2.6-2.7-3.9
	c-0.9-1.3-3.3-5.2-4.9-7.9c-5.7-10-10.3-20.6-13.4-31.7c-3-11-5.2-22.2-6.6-33.6c-1.6-12.8-2.3-25.8-2.2-38.7
	c0.3-27.2,5.6-53.6,14.7-79.1c4.4-12.6,9.8-24.8,16.3-36.4c3.3-5.8,6.6-11.5,9.7-17.3c3-6,5.5-12.1,7.7-18.4
	c4.6-12.7,7.7-26.2,5.8-39.8c-0.3-1.7-0.6-3.4-1-5c-0.3-1.1-0.6-2.3-0.8-3.4c-0.1-0.9-0.1-1.7,0-2.6l0.2-1.1
	c0.1-0.5,0.3-0.9,0.5-1.4c0.2-0.3,0.8-1.1,0.2-0.5l0.3-0.3h0.3c-1.1,0.4,1.4-0.1,1.7-0.1c2.8-0.3,5.6-0.4,8.4-0.4
	c10.5,0.1,20.9,2.2,30.7,6.1c0.2,0.5,0.5,0.9,0.9,1.3c3.2,2.8,6.2,5.8,9,8.9c1.5,1.6,2.9,3.3,4.3,5l2.2,2.6c0.2,0.4,0.5,0.8,0.8,1.1
	c0.3,0.3,0.5,0.6,0.7,1c5.7,7.4,10.7,15.4,14.9,23.8c1,2.1,2,4.2,2.9,6.3c0.2,0.3,0.4,0.7,0.5,1.1c0,0.1,0.1,0.2,0.2,0.4l0.3,0.7
	c0.4,1.1,0.8,2.2,1.3,3.3c1.6,4.3,3,8.7,4,13.2c0.5,2.1,1,4.2,1.3,6.4l0.3,1.6v0.4c0.2,1.1,0.3,2.2,0.4,3.2
	c0.3,4.2,0.3,8.3-0.1,12.5c-0.1,0-0.1,0.3-0.1,0.6c0-0.3,0.1-0.6,0,0c0,0,0,0.1,0,0.1c-0.1,0.3-0.2,0.7-0.2,1
	c-0.2,1-0.4,1.9-0.7,2.9c-0.3,1-0.5,1.9-0.9,2.8c-0.4,0.9-0.3,0.8-0.4,1.2l-0.3,0.6c-1.7,3.6-3.6,7.2-5.8,10.5
	c-4.4,6.9-9.5,13.3-13.8,20.3s-7.9,15-8.6,23.5c-0.4,5.4,0,10.8-0.4,16.1c0,0.7-0.1,1.4-0.2,2.1v0.2c-0.1,0.2-0.1,0.5-0.1,0.7
	L314,401c-0.3,0.9-0.6,1.8-1,2.8c-0.1,0.3-0.3,0.6-0.4,1c0,0-0.1,0.1-0.1,0.2c0,0,0.1-0.1,0.1-0.1c0,0.1-0.1,0.2-0.1,0.3
	c-0.2,0.2-0.3,0.4-0.4,0.7c-7.1,15.5-21,28-23.3,45.4c-0.2,1.4-0.3,2.9-0.4,4.3L282,462c-0.4,0.4-0.7,0.7-1.1,1.1
	c-0.8-0.5-1.7-0.9-2.7-1l-1.9-0.2c0.7,0-0.9-0.2-1.2-0.2l-4.2-0.7c-2.7-0.5-5.3-1.1-7.9-1.9l-3.7-1.4H259l-0.5-0.2l-2.3-1.1
	c-1.1-0.6-2.2-1.2-3.2-1.9l-1.5-1l-0.9-0.7c-1.8-1.6-3.5-3.3-5-5.2h-0.1l-0.5-0.7l-0.8-1.2c-0.7-1.1-1.4-2.2-2-3.3l-1.5-3.1
	c-0.1-0.3-0.2-0.5-0.4-0.8l-0.7-1.8c-0.8-2.4-1.5-4.8-2-7.2c-0.3-1.2-0.5-2.4-0.7-3.6v-0.2c0-0.1,0-0.3-0.1-0.4
	c-0.1-0.9-0.1-1.8-0.2-2.7c-0.2-3-0.3-6.1-0.1-9.1c0-1.5,0.1-2.9,0.3-4.4c0-0.7,0.1-1.4,0.2-2.1c0-0.4,0.1-0.8,0.1-1.2
	s0.1-0.6,0.1-0.8c0.4-3,1-6,1.5-8.9c2.1-11.2,4.9-22.3,8.4-33.2c1-2.8,1.9-5.7,3-8.4l0.9-2.2c0.1-0.1,0.2-0.3,0.2-0.5l0.4-0.9
	c0.6-1.3,1.2-2.7,1.9-4c1.3-2.7,2.7-5.4,4.3-8c0.8-1.3,1.7-2.7,2.6-3.9l1.2-1.8l0.6-0.8l0.4-0.5c0.9-1,1.4-2.3,1.5-3.6
	c0.1-1.5-0.5-2.9-1.5-3.9c-1.8-1.7-5.4-2.2-7.1,0c-14.7,18.9-20.9,42.5-25.8,65.5c-2.7,13-4.5,26.2-2.2,39.4
	c1.7,10.5,6.4,21,14.1,28.6c8.5,8.4,19.9,11.7,31.5,13.5c-5.7,6.4-10.9,13.3-13.9,21.3c-2.3,6.1-3.2,12.6-3.8,19
	c-0.6,6.4-0.8,13.2-0.8,19.8c0.2,15.2,2,30.4,5.4,45.3c0.4,2.7,3,4.6,5.7,4.1s4.6-3,4.1-5.7c-0.1-0.3-0.1-0.7-0.3-1
	c-0.7-3.2-1.4-6.5-1.9-9.7c-0.3-1.5-0.6-3-0.8-4.5l-0.3-2.4c-0.1-0.4-0.2-0.7-0.2-1.1c0-0.1-0.1-0.7-0.1-0.9
	c-0.8-6.3-1.4-12.7-1.6-19.1s-0.1-13.1,0.3-19.7c0.2-2.9,0.4-5.9,0.8-8.9c0-0.2,0-0.4,0.1-0.6c0-0.3,0.1-0.6,0.1-0.9
	s0.3-1.5,0.4-2.2c0.3-1.6,0.6-3.1,1.1-4.6c0.3-1.4,0.7-2.7,1.2-4c0.2-0.4,0.3-0.9,0.5-1.3l1.2-2.3c1.4-2.6,2.9-5.1,4.7-7.4h0.2
	l0.7-0.9l1.4-1.7l2.9-3.3c2-2.2,4.1-4.5,6.2-6.6c8.3-8.9,17.1-17.3,26.4-25.1l7.6-6.1l1-0.8l0.6-0.5l1.9-1.5l3.9-2.9
	c5.5-4,11.1-7.9,16.9-11.5c2.2-1.5,3.3-4.5,1.8-6.9c-1.5-2.4-4.5-3.3-6.9-1.8c-13.5,8.7-26.4,18.4-38.6,29l0.2-0.4
	c0.3-0.5,0.5-1.1,0.8-1.6s1.9-3.6,2.9-5.4c4.4-7.4,9.7-14.2,13.8-21.8c2.3-4,4-8.3,5.2-12.7c1.4-5.7,1.4-11.7,1.5-17.5
	c-0.1-2.5,0-4.9,0.2-7.4c0-0.1,0.2-1.1,0-0.2v-0.3l0.3-1.4l0.6-2.8l0.9-2.8l0.5-1.2c0-0.1,0-0.1,0.1-0.2c0-0.1,0.1-0.3,0.2-0.4
	c0.8-1.8,1.7-3.6,2.7-5.4c8-14.2,20.9-26.5,24.5-42.9c2-8.8,1.4-18-0.2-26.8c-1.8-9.3-4.6-18.3-8.6-26.9
	c-4.6-10.5-10.4-20.4-17.3-29.5l0.6,0.5c8.6,6.5,16.5,13.8,23.7,21.7c3.8,3.8,7.3,7.8,10.5,12.1c3.3,4.6,6.3,9.5,9.6,14.1
	c6.7,9.6,14.3,18.1,24,24.7c7.4,5.1,15.9,10.2,20.9,17.4c2.4,3.3,3.9,7.1,4.4,11.1c-14.1,6.7-26.6,16.5-37.9,27.2
	c-9,8.7-17.4,18-25.7,27.4c-1.8,2-2.1,5.2,0,7.1c2.1,1.9,5.2,2.1,7,0c7.3-8.2,14.6-16.4,22.5-24.1c3.8-3.9,7.8-7.5,11.9-11.1
	l3.1-2.5l1.4-1.2l0.8-0.6h0.2l6.5-4.7c4.4-3,9.1-5.7,13.9-8l3.4-1.6l1-0.5l2.2-0.8c2.5-1,5-1.9,7.6-2.6c3-0.8,6.1-1.5,9.2-2.1
	l4.6-0.7h1.3l2.6-0.3c6.3-0.6,12.7-0.8,19-0.9c6.3-0.1,14.2-0.2,21.2,0.2c1.8,0,3.5,0.2,5.3,0.3l2.1,0.3c-5.5,3.2-10.5,7.2-15,11.7
	c-1.8,1.9-2,5.3,0,7.1c2,1.9,5.1,1.9,7.1,0c1.6-1.7,3.4-3.3,5.2-4.9l1.3-1l0.3-0.3h0.2l2.9-2.1c3.9-2.6,8.1-4.9,12.5-6.7l0.5-0.3
	h0.1l1.6-0.6l3.4-1.3l6.8-2.1c2.5-0.6,4.9-1.2,7.4-1.6l3.4-0.6l1.7-0.3h1c9.9-1.2,19.9-1.3,29.8-0.3l3.6,0.4h0.7l2,0.3
	c2.4,0.3,4.7,0.7,7.1,1.2c4.6,1,9.2,2.2,13.7,3.6c2.5,0.8,4.9,1.7,7.2,2.6l1.1,0.5h0.5l1.2,0.5l4.6,2.3c2.9,1.6,5.8,3.4,8.5,5.4h0.1
	l1,0.8l1.9,1.6c1.3,1.2,2.6,2.4,3.8,3.7c1.9,2,5.1,2,7.1,0c1.9-2,1.9-5.1,0-7.1c-4.5-4.6-9.6-8.7-15.2-11.9h0.7l5.1-0.3
	c6.1-0.3,12.3-0.2,18.5-0.1c6.2,0.1,12.8,0.3,19.2,0.9l4.2,0.4l2.4,0.3h0.5l1.4,0.2c3.1,0.5,6.1,1.1,9.2,1.8
	c3.1,0.7,5.6,1.6,8.3,2.5l3.7,1.4l0.9,0.4h0.1c0.7,0.2,1.4,0.5,2,0.9c4.9,2.2,9.5,4.8,14,7.7l6.5,4.5l1.6,1.2h0.1l0.8,0.6l3.2,2.7
	c4.2,3.5,8.2,7.2,12.1,11c8.7,8.6,16.8,17.9,24.8,27.2c1.9,2,5.1,2,7.1,0c1.9-2,1.9-5,0-7c-14.6-17.1-29.7-34.1-48.2-46.9
	c-4.6-3.2-9.5-6.1-14.6-8.6c1.1-10.2,9.6-17.5,17.5-22.9c7.9-5.4,18.9-12.3,26.2-20.9c3.7-4.3,6.8-9.2,10.2-13.8s6.2-8.1,9.6-12.1
	c6.6-8,13.8-15.4,21.6-22.1c2.8-2.3,5.6-4.5,8.6-6.7c-5,6.7-9.4,13.9-13.3,21.3c-8.4,16-14.8,34.6-13.5,53c0.3,4.2,1.1,8.3,2.5,12.3
	c1.6,4.1,3.5,8,5.7,11.8c4.2,7.1,9.3,13.7,13.7,20.8c1.1,1.7,2.1,3.5,3.1,5.3l1.2,2.4c0.3,0.4,0.5,0.8,0.7,1.3l0.3,0.8
	c0,0,0.1,0.2,0.2,0.3c0,0,0,0.1,0,0.2l0.3,0.7l0.5,1.2c0.3,1,0.6,1.9,0.8,2.8c0.2,0.9,0.5,1.9,0.7,2.9v0.6c0.1,0,0.1,0,0.1,0.3
	c0.1,0.1,0.1,0.2,0.1,0.3v0.6c0.5,5.3,0,10.6,0.2,15.9c0.2,5.2,1.3,10.4,3.2,15.2c3.3,8.3,8.3,15.6,13.1,23.1
	c2.4,3.6,4.5,7.3,6.4,11.2l0.6,1.2c0,0.1,0,0.2,0.1,0.3l-4.5-3.9c-10.7-9.3-21.9-17.8-33.7-25.6c-2.4-1.4-5.4-0.6-6.8,1.8
	c-1.3,2.4-0.5,5.4,1.8,6.9c5,3.3,10,6.8,14.9,10.4l3.3,2.6l0.5,0.3l0.6,0.5l1.9,1.5c2.4,1.9,4.7,3.7,6.9,5.6
	c9.3,7.7,18.1,16,26.4,24.7c4.1,4.4,8.2,8.8,12,13.4l1.4,1.7h0.1l0.7,1l2.5,3.6l1.1,1.8c-0.1,0.4-0.1,0.7-0.1,1.1
	c0.1,1.8,1.1,3.5,2.7,4.5c1,2.9,1.7,5.8,2.3,8.8l0.3,2.2v0.2c0.1,0.2,0.1,0.4,0.1,0.2v0.7c0.2,1.6,0.4,3.1,0.5,4.7
	c0.5,6.5,0.6,13,0.4,19.5c-0.1,7.2-0.7,14.4-1.6,21.6v0.2c-0.1,0.6-0.1,1.1-0.2,1.7s-0.3,1.7-0.4,2.6s-0.6,3.6-1,5.4
	c-0.6,3.6-1.4,7.2-2.3,10.8s0.8,5.6,3.5,6.2c2.7,0.7,5.4-0.9,6.2-3.5c3.2-13.2,5.1-26.7,5.8-40.3c0.3-6.7,0.3-13.4-0.1-20.1
	c-0.1-6.5-0.9-12.9-2.4-19.2c-0.2-0.8-0.4-1.6-0.7-2.4c9.3-1.5,18.3-4.2,25.9-10.2s14-16.8,16.6-27.1c3.1-12.5,2.1-25.6,0-38.1
	c-2-11.8-4.7-23.4-8.2-34.8c-3.8-12.5-9-24.7-16.9-35.1c-1.6-2.1-4.4-3.4-6.8-1.8c-2.4,1.6-3.5,4.6-1.8,6.8
	c3.3,4.4,6.2,9.1,8.6,14.1c0.6,1.1,1.1,2.3,1.7,3.5s0.5,1.1,0.7,1.7l0.3,0.5l0.3,0.9c1,2.5,2,5,2.8,7.6c3.4,10.7,6.2,21.5,8.4,32.5
	c0.6,3.1,1.1,6.1,1.6,9.1c0.1,0.8,0.3,1.6,0.4,2.4v0.4c0.1,0.2,0.1,0.5,0.1,0.7c0.2,1.6,0.4,3.2,0.5,4.8c0.3,3.1,0.4,6.3,0.3,9.4
	c-0.1,1.5-0.1,3-0.3,4.6c0,0.6-0.1,1.3-0.2,1.9v0.6c-0.1,0.3-0.1,0.7-0.2,0.7c-0.3,2.4-0.9,4.8-1.6,7.2c-0.3,1.1-0.7,2.2-1.1,3.3
	c-0.2,0.6-0.4,1.2-0.7,1.8v0.2l-0.4,0.7c-1,2.2-2.2,4.3-3.5,6.3l-1.1,1.6l-0.3,0.4l-0.2,0.2c-0.8,1-1.6,1.9-2.5,2.8
	c-0.9,1-1.9,1.9-3,2.7l-0.9,0.6l-1.9,1.2c-1.3,0.8-2.7,1.5-4.1,2.2l-0.7,0.3l-0.4,0.2l-2.2,0.8c-2.9,0.9-5.8,1.7-8.8,2.2l-4.4,0.7
	c-1-2-2.2-3.9-3.6-5.7c-3.8-5.1-7.9-10-12.4-14.6c-3-3.4-6.2-6.6-9.4-9.8c0.2-16.9-12.5-30.6-20.3-44.6c-1-1.9-1.9-3.7-2.8-5.6h-0.1
	v-0.2c-0.1,0-0.1-0.1-0.1-0.2l-0.6-1.5c-0.3-1-0.7-2-0.9-3c-0.4-1.2-0.6-2.4-0.8-3.7v-0.2c0-0.3,0-0.5-0.1-0.8
	c-0.1-0.7-0.1-1.5-0.2-2.3c-0.1-2.8-0.1-5.6-0.1-8.5c0.3-4.8-0.1-9.5-1-14.2c-1-4-2.5-7.9-4.4-11.6c-3.7-7.3-8.7-14-13.3-20.8
	c-2.2-3.4-4.4-6.8-6.3-10.3c-0.5-0.9-0.9-1.7-1.3-2.6l-0.6-1.4l-0.3-0.5c-0.7-1.8-1.4-3.6-1.8-5.5c-0.3-0.9-0.5-1.8-0.6-2.7
	c-0.1-0.1-0.1-0.4-0.1-0.6c-0.1-0.1-0.1-0.2-0.1-0.3v-0.3c0-0.2-0.1-0.5-0.1-0.7c-0.2-2.1-0.3-4.2-0.2-6.3c0-2,0.1-4,0.3-6
	c0-0.5,0.1-1.1,0.2-1.6v-0.7l0.6-3.3c0.8-4.3,1.9-8.6,3.3-12.8c0.7-2.2,1.5-4.4,2.3-6.6l0.6-1.4c0.1-0.3,0.7-1.7,0.3-0.6
	c0.4-1.2,1-2.3,1.5-3.5c3.9-8.4,8.5-16.5,13.9-24.1l1.9-2.7l1.1-1.5l0.5-0.6h0.1l4.2-5.1c2.8-3.3,5.8-6.5,9-9.5l4-3.7
	c7-2.7,14.1-4.8,21.4-6.4c5.9-1.4,11.9-1.9,17.9-1.4c0.9,0,1.7,0.2,2.5,0.7c0.1,0.1,0.2,0.1,0.3,0.2l0.3,0.3l0.3,0.4
	c1.1,1.9,1.5,4.1,1.1,6.2c-0.5,2.6-1.2,5.2-2,7.7c-0.9,3.2-1.4,6.5-1.4,9.8c0,6.4,0.8,12.7,2.6,18.8c3.3,12.3,9.3,24,14.7,35.5
	s11.2,22.8,16.8,34.2s8.3,23.2,11.4,35c0.9,2.9,1.6,5.8,2.2,8.8l1.5,9.8c0.8,5.9,1.7,11.7,2.2,17.6c1.3,12.9,2,25.6,1,38.5
	c-0.8,12-2.4,23.9-4.7,35.7c-2.2,11.5-5.4,22.8-9.7,33.7c-2.1,5.4-4.5,10.6-7.3,15.6c-2.3,4.4-4.8,9.4-8.2,13.1
	c-1.3,1.5-2.9,2.6-4.8,3.2c-2.9,0.5-5.6,0.6-8.2,2.2c-4.5,2.8-6.2,9.2-6.6,14.2c-1.1,12.7-0.2,25.5-2.7,38.1
	c-1.9,9.6-8.9,17.2-17.6,21.2c-4.5,2.1-11.7,5.1-12.1,10.9c-0.2,3.7-1.8,7.3-4.6,9.8c-3,2.8-6.6,4.9-10.6,6c-6.1,2-3.5,11.6,2.7,9.6
	c11.2-3.5,21-11.5,22.3-23.5c3-2.6,7-3.8,10.5-5.7c4.4-2.5,8.2-5.9,11.3-9.9c3.6-4.3,6.2-9.4,7.6-14.9c1.2-6.3,2-12.6,2.2-19
	c0.4-6.4,0.4-12.9,0.8-19.3c0.1-2.2,0.5-4.4,1.1-6.6c0.1-0.7,0.3-1.4,0.6-2c0.1-0.1,0.2-0.2,0.2-0.3c0.5-0.3,1-0.4,1.5-0.5
	c2.5-0.6,4.9-0.6,7.3-1.8c2.6-1.2,4.8-3,6.6-5.2c3.5-4,6.2-8.8,8.8-13.5c11.2-20.4,17.5-43.1,20.8-66.1c1.9-12.4,3.1-24.9,3.4-37.4
	C933.3,417.5,931.9,404.9,930.2,392.4z M803.1,370.9c0-0.1,0-0.1,0-0.2C803.1,370.8,803.1,370.8,803.1,370.9z M871.5,219.8
	C871.3,219.7,871.2,219.6,871.5,219.8L871.5,219.8z"/>
</svg>
