<?xml version="1.0" encoding="utf-8"?>
<!-- Generator: Adobe Illustrator 24.2.3, SVG Export Plug-In . SVG Version: 6.00 Build 0)  -->
<svg version="1.1" id="f1129c1f-8d78-44c4-8724-8f133e7e584f"
	 xmlns="http://www.w3.org/2000/svg" xmlns:xlink="http://www.w3.org/1999/xlink" x="0px" y="0px" viewBox="0 0 1152 864"
	 style="enable-background:new 0 0 1152 864;" xml:space="preserve">
<path d="M1050.3,366c-3.3-12.5-8.2-24.4-12.7-36.5c-2.4-6.2-4.6-12.5-6.5-18.9c-0.8-3-1.6-6.1-2.3-9.1c-0.3-1.4-0.9-3.2-1.3-5
	l1.5,0.4c2.3,0.6,4.7,0.7,6.8-0.7s3.2-5.3,3.4-8.4c0.3-5.9-0.7-11.8-1.7-17.6c-1-5.8-1.7-10.5-2.8-15.7c-4-20.8-9.8-41.5-19.6-60.4
	s-24.2-36.2-44.4-44.8c-21.8-9.3-44.8-15.3-68.4-17.7c-12.4-1.4-24.9-1.2-37.3,0.4c-6,0.8-11.9,2.1-17.6,3.9c-3.2,1-6.2,2.2-9.3,3.5
	l-1.5,0.7c0.5-1.9,1-3.8,1.3-5.7c0.6-2.6-0.4-5.4-2.6-6.9c-2.8-1.8-5.9-0.7-8.9,0c-6.1,1.4-12,3.4-17.8,5.8
	c-19.9,8.2-37,21.7-50.8,38.1c-7.8,9.2-14.7,19.1-20.7,29.6c-0.4,0.6-0.6,1.4-0.7,2.1c-5.5,4.3-10.8,9-15.8,14
	c-9,9.1-16.9,19.4-23.4,30.5c-0.2,0.4-0.4,0.9-0.5,1.3c-11.7-0.2-23.4,0.4-35,0.5c-11.6,0.1-24.6,2.6-36.8,4.9
	c-5.7,1.1-11.5,0.8-17.1,1.8s-11.2,2.8-16.9,3.7c-23.7,3.8-48.1-0.8-71.2-5.8c-23.1-5-47.8-8-71.9-6.1h-0.1
	c-10.6-17.9-24.8-33.6-41.5-46c-0.2-0.3-0.3-0.5-0.4-0.8c-10.5-18.3-23.5-35.6-39.8-49.1c-8-6.8-16.9-12.4-26.5-16.8
	c-5.7-2.6-11.5-4.8-17.5-6.5c-4.9-1.4-14.3-5-16.3,2.4c-0.7,2.7,0.7,6.3,1.3,8.9h-0.1c-2.7-1.2-5.5-2.3-8.3-3.3
	c-5.2-1.8-10.6-3.1-16-4.1c-10.9-1.8-22-2.4-33.1-1.6c-23.3,1.4-47,6.2-68.7,15c-10.5,4.3-20.2,8.9-28.8,16.5
	c-8.6,7.6-14.3,15.8-19.7,24.8c-10.9,18.3-17.4,38.9-21.9,59.6c-2.5,11.9-5.4,24.3-6,36.5c-0.2,5.9,0.1,14.5,8.1,13.9
	c1.2-0.1,2.4-0.4,3.5-0.7c-0.3,1.2-0.6,2.3-0.8,3.2c-0.6,2.9-1.3,5.8-2.1,8.7c-1.6,5.7-3.5,11.3-5.5,16.9
	c-3.9,10.7-8.4,21.3-11.9,32.2c-6.7,21.6-9.3,44.5-5.6,66.9c1.9,11.2,5.3,22.1,10.3,32.4c0.5,0.8,0.9,1.7,1.3,2.6
	c0.2,1-0.1,2.2,0.2,3.2c1,2.9,2.3,5.6,3.9,8.2c2.4,4.3,5.4,10.1,10.8,10.7c2.2,0.2,4.4-0.2,6.3-1.3c1.7-0.9,3.3-2.6,5.1-3.1
	s5.7,1.7,6.8,4.4c1.9,4.5,2.1,10,3,14.7c0.9,4.7,2.1,11.3,3.3,16.9c4.7,21.8,10.9,43.5,21,63.4c0.8,2,1.8,4,3,5.8l0.8,1.3
	c0.4,0.8,1,1.4,1.8,1.9l0.6,0.3h0.3c0.1,0,0.2,0,0.2,0.1h2.2c1.9-0.3,3.5-1.7,4-3.6c0.9-1.8,1.5-3.8,1.8-5.8
	c8.7-29.2,11.4-59.5,15.5-89.6c2.1,6.2,2.8,12.9,3.1,19.4c0.5,13.1,0.1,26.2,0.7,39.3c0.6,14.4,2,28.7,4.1,43
	c1.1,7.2,2.6,14.3,4.4,21.3c0.8,2.9,1.3,7,3.5,9.3c2.4,2.4,6.3,2.5,8.8,0.2c2.3-2.2,2.2-5.7,2.7-8.6c0.5-3.2,1.2-6.4,2.1-9.5
	c0.5-1.8,1.1-3.6,1.9-5.3c0.1,3.5,0.5,7,0.9,10.5c0.9,7.7,1.5,15.4,2.4,23.1c1.8,15.5,2.6,31.2,5,46.7c0.5,3.8,1.2,7.4,1.8,11.1
	c0.8,4.3,2,8.5,3.4,12.6c2,5.8,4.3,11.5,7,17c1.4,2.8,3.1,5.4,5.2,7.7c2,2.3,5.1,5.3,8.4,5.3c7,0,10.3-7.8,11.3-13.5
	c1.3-7.4,4.3-14.5,6.4-21.7c2.1-7.2,4.5-15.8,7-23.6c3.3-10.4,7.4-20.7,11.3-31c0.4-1,0.8-2,1.3-3l2-4.5c1.3-2.9,2.6-5.9,4-8.8
	c2.5-5.4,5.2-10.7,8.1-16c7.6-13.5,16-26.5,25.1-39c4.8-6.9,9.8-13.6,15-20.2s10.4-13.8,16.8-19.3c6.4-5.5,11.2-11.5,17.1-17
	c5.9-5.5,12.8-11.2,18.9-17.2c3.5-3.6,7.6-7.7,8.5-12.9c0.2-2.8,0.3-5.5,0.3-8.3c0.2-3.1,0.4-6.2,0.7-9.2c1.3-11.1,3.6-22,6.7-32.7
	c3-10.7,6.8-21.1,10.4-31.6c2.8-8.2,5.9-16.3,9.4-24.2c7.2-15.9,16.4-31.1,29.1-43.1c14.5-13.8,32.8-20.6,52.1-24.7
	c13-2.8,26.2-3.8,39.3-5.8c5.9-1,11.9-1.1,17.8-0.4c6.5,0.8,12.9,1.9,19.4,2c9.9,0.1,19.5,1.8,29.2,3.9c8.3,1.7,16.5,4.1,24.3,7.4
	c7.2,3.2,14,7.1,20.3,11.8c6.1,4.5,12.4,9.9,17,15.9c5.6,7.1,10.5,14.6,14.9,22.5c2.2,4.2,4,8.6,5.9,12.9s4,8.3,5.6,12.6
	c6.4,17.9,12.2,36,16.2,54.6c2.2,10.2,3.6,20.6,4.4,31c0.3,3.5,0,7.1,1.2,10.5c1.2,3.7,4,6.8,7.6,8.4c5.4,5.2,11.2,10.1,16.8,15.2
	c5.6,5.1,9.8,10.8,15.3,15.6c2.6,2.3,5.5,4.5,7.7,7.1s5.1,6.1,7.6,9.1c5,6.2,9.8,12.4,14.5,18.8c9.5,12.8,18.4,26.1,26.5,39.9
	c5.9,10.2,11.3,20.8,16,31.6l1.8,4l0.3,0.8c0.8,2.2,1.7,4.4,2.5,6.7s2.7,7.4,4.2,11.1c6.5,15.5,10.4,32,15.4,48
	c1,3.4,2.3,6.7,3.2,10s0.9,6.2,2.3,9.2c1.3,2.9,3.5,5.2,6.4,6.5c3.8,1.8,7-0.3,9.9-2.8c4.8-4.3,7.4-10.3,9.7-16.2s5.7-13.3,7.1-20.5
	c1.7-9.2,3.1-18.4,4.2-27.7s1.2-17.9,2.2-26.8c0.4-3.7,1-7.8,1.6-11.5s0.7-9.3,1.2-13.9s1.1-8.9,1.4-13.4v-0.4c0.4,1,0.8,2,1.1,3.1
	c1.9,5.4,2.5,10.9,3.6,16.5c0.6,3,2.8,5.4,6.1,5.4s5.5-2.5,6.6-5.6c2.1-6.9,3.8-14,4.9-21.1c5-27.8,5.3-55.8,5.7-83.9
	c0.1-7.8,0.6-16.1,3.2-23.5c4.2,30.1,6.9,60.5,15.5,89.6c0.3,2,0.9,4,1.8,5.8c0.5,1.9,2.1,3.3,4,3.5c0.9,0.3,1.9,0.2,2.8-0.1
	l0.4-0.2h0.2c0.7-0.5,1.3-1.1,1.7-1.9l0.8-1.3c1.2-1.8,2.2-3.7,3-5.7c8.8-17.4,14.7-36.1,19.1-55.1c2.6-11.2,4.8-22.4,6.8-33.8
	c0.6-3.4,1-7.6,4.1-9.9s6.1,0.6,8.9,2.2c4.5,2.4,9.6,2.1,12.8-2.2c3.2-4.3,7-9.7,8.4-14.9c0.3-1.2,0.1-2.4,0.4-3.5
	c0.3-0.7,0.6-1.4,1-2.1c1.4-2.9,2.6-5.8,3.8-8.7c2.1-5.2,3.8-10.5,5-15.9C1057.1,410.8,1055.9,387.8,1050.3,366z M828.2,132.2
	c0,0.1-0.1,0.2-0.1,0.3C828.1,131.5,828.4,131.7,828.2,132.2z M714.9,238.9l1.2-1.5h0.1l0.6-0.8l2.6-3.3c1.8-2,3.6-4.1,5.5-6.1
	c3.8-4.1,7.8-8,12.1-11.7c2-1.8,4.2-3.5,6.3-5.2h0.2l0.6-0.5l1.8-1.3c1.1-0.9,2.2-1.7,3.4-2.4c9.1-6.4,18.9-11.8,29.1-16.2h0.1
	l0.7-0.3l2.1-0.8l3.8-1.5l8-2.6c5.2-1.6,10.6-2.9,16-4l4.4-0.7l2.1-0.3h0.2l1.4-0.2c3.1-0.4,6.1-0.6,9.2-0.8h4.4l-2,1.5
	c-1.5,1-2.8,2.2-4,3.5c-3,3.4-3.2,8.5-0.4,12.1c2,2.6,4.4,4.9,6.9,7c4.3,3.8,8.9,7.3,13,11.4l2.9,3c0.4,0.5,0.8,1,1.2,1.5
	c0.3,0.2,0.5,0.4,0.7,0.7c0.1,0.1,0.1,0.3,0.2,0.3s1.5,2.3,2.2,3.5c0.3,0.4,0.5,0.8,0.7,1.3H849l-12.9,0.2c-3,0-5.9,3.2-4.8,6.3
	c5.3,14.5,14.4,27,23.2,39.5c4.4,6.1,8.5,12.5,12.2,19c0.9,1.7,1.7,3.4,2.5,5.1c0.4,0.8,0.8,1.6,1.1,2.4c0,0.1,0.1,0.3,0.2,0.4
	c0,0.1,0,0.1,0.1,0.2c0.2,0.4,0.4,0.9,0.5,1.4c1.4,3.5,2.6,7.1,3.4,10.8l0.6,2.9c0.1,0.5,0.2,1,0.3,1.5c0,0.2,0,0.5,0,0.7
	c0.2,2,0.3,4.1,0.3,6.1s0,2.1-0.1,3.1s-0.1,0.6-0.1,0.9l-2.2-1.7l-4.2-3.3c-1-0.7-2-1.7-3-2.3c-2-1.1-4.5-0.8-6.1,0.8
	c-1,1.1-1.6,2.6-1.6,4.1c-0.3,2-0.5,4-0.7,6c-0.4,3.5-0.8,7.1-1,10.6c-0.1,1.6-0.1,3.3,0.1,4.9c0.4,3.9,1,7.9,1.5,11.8
	c0.2,0.8,0.3,1.6,0.4,2.4v0.4c0,0.1,0,0.1,0.1,0.2c0,0.5,0.1,1,0.1,1.5c0.3,1.9,0.5,3.7,0.6,5.6c0.3,3.5,0.4,7,0.1,10.5
	c-0.1,0.1-0.1,0.4-0.1,0.6s-0.1,0.7-0.2,1s-0.3,1.4-0.4,2.1s-0.5,1.8-0.8,2.7l-1.2,3.1l-0.3,0.9l-0.9,1.7l-0.9,1.6l-0.3,0.4
	l-0.3,0.3h-0.1c-0.2-0.9-0.5-1.7-0.7-2.6c-1.5-6.3-3.1-12.6-5.2-18.7c-2.1-6.1-5.9-14.5-10.8-20.6c-4.9-6.1-10.4-9.9-16.4-13.6
	l-5.3-9.6c-9.8-16.8-21.4-32.7-35.8-45.8c-7.4-6.7-15.4-12.5-24-17.5c-1.1-0.8-2.3-1.3-3.6-1.5h-1.4l-0.5-0.3
	c-2.7-1.5-5.4-2.8-8.3-3.9c-5-2-10.1-3.6-15.4-4.8c-6.2-1.3-12.6-2.1-18.9-2.6C710.1,245.8,712.4,242.3,714.9,238.9z M853.6,391.2
	c0,0.1-0.1,0.2-0.2,0.2L853.6,391.2z M398.9,208.6l3.3,2.4l0.2,0.2l0.9,0.7l1.7,1.4c4.3,3.5,8.5,7.2,12.4,11.2
	c4.4,4.4,8.5,9.2,12.2,14.2l0.2,0.3l0.6,0.8l1.4,1.9c0.9,1.3,1.8,2.5,2.6,3.8c0.8,1.3,1.6,2.3,2.3,3.5c-7.9,1.1-15.8,2.7-23.5,4.8
	c-10.3,2.8-20.5,6-30,11.1c-19,10.1-33,28-44.8,45.6c-5.2,7.7-9.9,15.7-14.4,23.9h-0.2c-5.7,3.3-10.9,7.3-15.5,12
	c-4.9,5.1-8.2,11.3-10.9,17.7c-2.4,6.2-4.4,12.5-5.9,18.9l-1.2,4.6c-0.1,0.7-0.3,1.3-0.5,2l-0.3,0.9c-0.1,0-0.2-0.1-0.2-0.2
	c-0.1-0.1-0.2-0.3-0.4-0.4h0.1l-0.9-1.5c-0.3-0.5-0.5-1-0.8-1.4c-0.1-0.3-0.2-0.6-0.4-0.9v-0.3c-0.1-0.5-0.3-1-0.6-1.4l-0.6-1.7
	c-0.3-0.9-0.5-1.8-0.8-2.7s-0.3-1.3-0.4-1.9l-0.3-1.4c-0.2-1.8-0.3-3.7-0.3-5.5c0.1-3.6,0.3-7.2,0.8-10.7c0.1-0.5,0.1-1,0.2-1.5
	c0.1-0.5,0.1-0.7,0.1-0.9l0.3-2.1l0.9-6.6c0.5-3,0.9-6,1-9c-0.1-3.1-0.5-6.3-0.9-9.4l-0.6-6.1c-0.1-1.5-0.4-3-0.7-4.5
	c-0.3-1.3-1.1-2.4-2.3-3.1c-2.2-1.2-4.2-0.7-6.1,0.8l-5,3.9l-3.4,2.6c-0.1-0.8-0.1-1.6-0.2-2.4c-0.1-0.8,0-3.7,0.1-5.6l0.3-2.5v-0.4
	l0.3-1.5c0.6-3.6,1.6-7.2,2.8-10.7c0.3-0.9,0.7-1.7,1-2.6l0.5-1.2c0.1-0.2,0.1-0.4,0.2-0.6c0.1-0.1,0.1-0.1,0.1-0.2
	c0.8-1.8,1.6-3.5,2.4-5.1c6.8-13.6,16.6-25.3,24.8-37.9c4.8-7.2,8.8-15,11.9-23.2c1.2-3.1-1.8-6.3-4.8-6.3l-11.4-0.2h-4.7
	c0.5-1,1.1-2,1.7-2.9c0.3-0.6,0.7-1.2,1.1-1.7l0.6-0.8l-0.2,0.2l0.3-0.4l3-3.3c4.1-4.2,8.6-7.8,13-11.6c4.4-3.8,12.6-9.8,9.9-17.1
	c-1.4-3.6-4.8-5.9-7.9-8.2h2.6l8,0.5l4,0.5h1l2.3,0.4c11,1.8,21.7,4.7,32,8.8l2.1,0.9l0.7,0.2h0.2l4.1,1.8l7.5,3.7
	c5,2.7,9.9,5.6,14.7,8.7C394.5,205.4,396.7,206.9,398.9,208.6z M289.9,391.1c0.2,0,0.3,0.1,0.4,0.2c0.5,0.2,0.3,0.2,0.1,0.1
	c-0.2-0.1-0.1,0.1-0.3-0.1h0.1L289.9,391.1z M284.1,376.9C284,376.2,284.1,376.6,284.1,376.9L284.1,376.9z M275.4,323.7
	C275.1,323.1,275.2,323,275.4,323.7L275.4,323.7z M311.5,189.9C311.5,190.2,311.6,190.5,311.5,189.9L311.5,189.9z M311.4,189.4
	c0-0.1,0-0.2,0.1-0.3L311.4,189.4z M315.5,132.4C315.4,131.9,315.6,131.4,315.5,132.4L315.5,132.4z M308.6,147.2
	C308.7,147.7,308.6,148.3,308.6,147.2L308.6,147.2z M118.4,472.1l-0.2-0.2C118.8,472.1,119.6,472.4,118.4,472.1z M373.4,508
	c-3.3,3.2-6.1,6.8-9.4,9.9s-7,5.8-9.9,9.3c-13.1,15.3-25.2,31.4-36.4,48.2c-10.1,14.7-19,30.2-26.6,46.4c-3,6.7-6.2,13.4-8.6,20.3
	l-3,8.3c0,0.2-0.1,0.5-0.2,0.7l-1.3,3c-1,2.5-1.9,4.9-2.8,7.4c-4,11.2-7,22.8-10.4,34.2c-1.6,5.3-3.8,10.5-5,15.8
	c-0.4,1.8-0.4,6.3-2,8.1c-1.1-1.1-2.1-2.2-2.9-3.5c-1.4-2.3-2.6-4.6-3.6-7.1c-2.2-5.3-4.3-10.6-6.1-16.1s-3-14.1-4-21.1
	s-1.8-14.1-2.5-21.2s-0.8-13.1-1.7-19.6c-0.9-6.5-1.3-13.5-2-20.3c-0.7-6.8-2-14.6-1.3-21.8c0.3-3.2,1.7-6.4-0.1-9.3
	c-1.9-3-5.8-3.9-8.8-2c-2.9,1.8-5.2,5.3-7,8.1c-1.8,2.9-3.3,6.1-4.5,9.3l-1.2,3.7c-1-5-1.9-10.1-2.6-15.2
	c-1.6-10.5-2.5-21.1-3.1-31.7c-0.6-10.6-0.8-21-0.9-31.6c0-8.4,0.1-16.9-1.2-25.3c-0.7-5.4-2.2-10.7-4.5-15.6c0.1-1-0.1-2-0.6-2.8
	c-0.9-1.8-2.1-3.5-3.7-4.8c-0.2-0.3-0.6-0.7-0.9-0.9l-1.5-1.9c-2-1.9-5.3-1.9-7.2,0.2c-0.5,0.6-1,1.3-1.2,2c0,0.3-0.1,0.5-0.1,0.7
	v0.4c-5.1,31.9-7.3,64.5-15.7,95.8c-8.5-18-13.8-37.3-18-56.8c-1.3-6-2.5-11.9-3.6-17.9c-1.1-6-1.4-11.2-3.7-16.3
	c-2.3-5.1-5.6-8-10.3-9.3c-4.7-1.3-9.6,0.3-13.9,3.1l-1.4,0.9l-0.7-1.2c-1.9-2.6-3.5-5.4-4.9-8.3c-0.9-2-0.7-4-1.5-6.2
	c-0.8-2.2-2.8-5.9-4-8.9c-4.6-11-7.4-22.8-8.3-34.7c-1.7-24.7,4.8-47.9,13.5-70.7c5-13.2,10.2-26.4,13-40.2c1-5.4,3.2-17.3-6.2-15.9
	c-1.6,0.3-3.2,0.8-4.7,1.4c0-1.7,0.2-3.6,0.3-4.7c0.2-3,0.7-5.9,1.2-8.9c0.8-5.2,1.7-10.5,2.7-15.7c2-10.5,4.6-20.9,7.7-31.1
	c6.2-19.7,15.5-40.1,30.5-54.7c8-7.8,17.6-12.4,27.9-16.6c11.3-4.4,23-7.8,34.9-10.1c21.7-4.4,44.7-6.7,66.4-1.7
	c5.8,1.3,11.5,3.3,16.9,5.7c2.8,1.2,5.9,3.7,8.9,4c3.3,0.4,6.4-1.9,6.9-5.2c0.4-2.7-0.8-6-1.4-8.5c-0.2-0.6-0.3-1.3-0.4-1.9l2.6,0.9
	l7.4,2.3c4.7,1.7,9.2,3.7,13.6,6c8.1,4.3,15.7,9.6,22.5,15.7c8.8,7.9,16.6,16.8,23.3,26.5c-15.1-8.6-31.5-14.7-48.6-18
	c-12.7-2.5-25.7-3.2-38.6-2.1c-2.1,0.2-4.3,1.4-4.8,3.7c-0.5,2.3,0.4,4.2,2.3,5.6l9,7l4.3,3.3l0.3,0.2h0.1l0.8,0.7l0.2,0.2
	c0,0.1,0,0.1-0.1,0.2h-0.1l-3.3,3.3l-6.8,5.9c-4.4,3.7-9,7.5-12.7,12.1c-3.7,4.6-11,14.1-4.8,20c3,3,7.4,2.9,11.3,3h5.5l-1.7,3.3
	c-1.7,3.4-3.7,6.6-5.7,9.8c-4.1,6.5-8.7,12.7-13.1,19c-8.9,12.7-17.3,26.3-20.4,41.7c-2,8.8-1.6,18,0.9,26.7c0.4,1.7,1.7,3,3.4,3.5
	c1.9,0.5,3.4-0.2,4.9-1.3l7.8-6c0.3,2.6,0.6,5.3,0.8,7.9c0.1,1.3,0,2.6-0.1,3.9c-0.1,1.6-0.3,3.2-0.5,4.8s-0.1,0.8-0.2,1.2v0.4
	c-0.2,0.9-0.3,1.9-0.4,2.8c-1,6.9-2.1,13.9-1.9,20.9c0.1,5.3,1.1,10.6,3.1,15.5c1.8,4.4,4.2,9.7,8.7,11.8c3.8,1.8,8.3,0.7,11-2.5
	c2.3-2.8,3-6.3,3.8-9.7c1.4-6,3.2-11.8,5.2-17.6l0.9-2.4l0.3-0.8c-0.4,1.1,0.3-0.6,0.4-0.8c0.6-1.5,1.3-3,2.1-4.4
	c0.8-1.4,1.6-2.8,2.5-4.2h0.1c-1.6,3.3-2.8,6.7-3.5,10.3c-1.3,5.7-0.6,11.6,1.9,16.8c0.9,1.6,2.5,2.5,4.3,2.5c4-0.2,7.1-2,10.7-3.5
	c0.2,0.6,0.3,1.3,0.2,2c-0.2,3.8-2.4,7.5-3.3,11.2c-0.9,3.7-1.6,9.9-2.5,14.8c-3.6,20.6-8.9,41.2-9.5,62.2c-0.3,9.6,0,19.2-0.6,28.7
	c-0.1,0.2-0.1,0.3-0.1,0.5c-0.6,1.9-0.7,3.9-0.5,5.8c0,0.3,0,0.7,0.1,1c0.1,1.4,0.9,2.6,2.1,3.2l1.7,0.7h1.6
	c1.2-0.1,2.3-0.6,3.1-1.4c4.5-3.9,7.7-8.9,10.4-14.1c0.2-0.4,0.4-0.8,0.6-1.2c0.2-0.3,0.3-0.7,0.4-1.1c14.9-25,27.7-56.9,54.9-70.6
	c3.8,21.4,6.9,42.9,9.2,64.4C386.7,496,379.8,501.7,373.4,508z M738.5,442.5c-4-18.6-9.8-36.8-16.3-54.6c-1.7-4.7-4.1-9.1-6.1-13.7
	c-2-4.6-3.8-9-6.1-13.3c-4.3-7.8-9.2-15.2-14.6-22.2c-9.6-12.9-23.7-23.4-38.2-30.3c-8.7-4.1-17.8-7.1-27.2-9.2
	c-11.2-2.5-22.7-4.7-34.3-4.8s-22.7-3.6-34.1-2.2c-11.4,1.4-23.7,2.9-35.4,4.9c-21.1,3.5-42.1,9.8-59.2,23.1
	c-30,23.4-43.1,61.5-54.5,96.4c-4.1,12.2-7.3,24.7-9.5,37.4c-0.9,5.7-1.6,11.5-2,17.2c-2.3-18.1-5.1-36.1-8.4-54.2
	c-0.4-2.5-3.7-4.5-6.1-3.5c-25.9,10.1-41.3,33.7-54.3,57c-4,7.2-7.9,14.3-12.1,21.4c0.1-5.3,0.1-10.6,0.2-15.8
	c0.4-11.1,1.6-22.1,3.8-33c2-11.2,4.4-22.3,6.2-33.5c0.8-4.9,1.4-9.7,3.1-14.5s3-8.7,1.8-13.3s-4.5-8.9-9.9-8.1
	c-2.5,0.3-5,1.8-7.3,2.8c-1.6-8.3,4.5-17.5,8-24.5c4.7-9.1,9.6-18.1,14.9-26.9c5.2-8.6,11-16.9,17.3-24.8
	c6.4-7.8,13.3-15.8,21.6-21.6c8.2-5.6,17.2-9.8,26.7-12.6c10.4-3.3,21-5.7,31.7-7.3c22.4-2.9,45.3-1.5,67.5,2.6
	c11.5,2,22.8,5.1,34.4,6.7c11.6,1.6,23.3,3.3,35.1,3.1c5.8-0.1,11.6-0.7,17.4-1.6c5.6-0.9,10.9-2.5,16.4-3.6
	c5.5-1.1,11.1-0.8,16.6-1.7s10.8-2.2,16.2-3.1c11.1-1.8,22.2-1.7,33.4-2s20.8-0.6,31.2,0.1c10.3,0.5,20.4,2.4,30.1,5.9
	c2.3,0.9,4.6,1.9,6.8,3c2.2,1.1,4.9,3.3,7.2,2.7l0.4,0.2l1.4,0.9l2.9,1.7l6.1,4.1c14.9,10.5,27.2,24.5,37.3,39.6
	c5.2,7.7,9.9,15.7,14.2,24c2.1,4,4.2,8,6.2,12.1c2,4.1,4.5,8.7,5.5,13.4c0.6,2.9,0.8,5.9,0.4,8.8c-1.2-1-2.5-1.8-3.9-2.4
	c-1.9-0.9-4.1-1.1-6.1-0.6c-0.6,0.1-1.1,0.4-1.6,0.7l-0.2,0.2c-1.5,0.7-2.7,1.9-3.5,3.3c-2.4,4.2-0.5,10.3,0.2,14.8
	s1.7,10.6,2.7,15.8c1.8,10.7,3.7,21.3,5.6,31.9c1.9,10.6,3.8,21.3,4.7,32.1c0.5,7.1,0.8,14.1,1.1,21.2
	c-14.2-22.5-23.4-48.6-44.1-66.2c-6.6-5.8-14.4-10.2-22.7-13c-2.5-0.8-5.2,0.6-6,3.2c0,0.1-0.1,0.2-0.1,0.3
	c-3.2,17.4-5.9,34.9-8.2,52.4C741.9,460.4,740.4,451.4,738.5,442.5z M326.5,383.6h0.1v-0.1C326.8,383.7,326.7,383.7,326.5,383.6z
	 M1039.7,438.9c-1.9,5.9-4.9,11.3-7,17c-0.8,2.2-0.5,4.2-1.5,6.2c-1.4,2.9-3,5.6-4.8,8.3l-0.8,1.2l-1.1-0.7c-2-1.3-3.9-2.7-6.2-3.3
	c-5.1-1.4-10.5,0-14.3,3.6c-3.6,3.4-5.3,8.2-6.1,12.9c-0.8,4.7-2.2,12.1-3.3,18.1c-4.5,22.4-10.1,45-19.9,65.7
	c-8.4-31.3-10.6-63.9-15.6-95.8c0-0.1-0.1-0.3-0.1-0.4c0-0.1-0.1-0.4-0.1-0.7c-0.4-1.7-1.7-3-3.4-3.4c-1.7-0.7-3.7-0.2-4.9,1.2
	c-0.6,0.6-1.1,1.2-1.5,1.9c-0.4,0.2-0.7,0.5-0.9,0.9c-1.6,1.3-2.9,3-3.8,4.8c-0.5,0.9-0.7,1.9-0.6,2.9c-5.3,11.5-5.7,24.8-5.7,37.7
	c0,20.9-0.7,41.8-3.4,62.6c-0.7,5.6-1.6,11.2-2.8,16.8c-0.1,0.7-0.3,1.5-0.4,2.2l-0.6-1.9c-1.8-5.7-4.7-11-8.6-15.6
	c-1.8-2.2-3.9-4.6-7.1-4.5c-3.5,0.2-6.2,3.1-6.1,6.6c0.1,1.9,0.7,3.8,0.9,5.7c0.1,1.9,0.2,3.7,0.1,5.6c-0.1,3.7-0.4,7.5-0.9,11.2
	c-0.7,6.7-1.1,13.4-2,20.1s-1.4,13.3-1.9,19.9c-1.1,14-2.9,27.8-5.5,41.6c-1.3,7.1-4.2,13.6-6.9,20.2c-1,2.6-2.2,5.2-3.6,7.6
	c-0.9,1.7-2,3.2-3.4,4.5c-1.4-1.5-1.5-5-1.8-6.6c-0.8-4.8-2.9-9.4-4.3-14c-3.2-10.6-6-21.2-9.4-31.7c-1.7-5.2-3.6-10.3-5.7-15.2
	c-0.1-0.5-0.3-0.9-0.5-1.3c-0.1-0.3-0.2-0.5-0.3-0.8l-1.5-3.9c-2-5.6-4-11.1-6.4-16.5c-6.7-15.3-14.6-30.1-23.5-44.2
	c-11.2-17.5-23.3-34.3-36.4-50.4c-3.5-4.3-6.9-8.6-11.1-12.3c-2-1.8-4.2-3.5-6.1-5.5s-3.5-4-5.4-5.9c-7.2-7.6-15.5-14.2-23.1-21.5
	c2.4-21.6,5.4-43.2,9.2-64.6c24.3,11.1,36.4,38.2,48.7,60.5c5.1,9.5,11,18.5,17.6,27c2.8,3.4,8.7,0.5,8.6-3.6
	c-0.8-17.3-0.6-34.8-3.4-52s-5.8-33.5-8.7-50.3c-0.8-4.6-1.5-9.2-2.3-13.8l-1.2-7.4c-0.1-0.7-0.2-1.4-0.2-2.1l1.7,1.3
	c2.7,2.1,6.2,3,9.6,2.4c1.7-0.2,3.1-2,3.5-3.5c1.6-5.6,2-11.5,1.1-17.2c-0.4-2.5-1.1-4.9-2.1-7.2c0.2,0.2,0.3,0.4,0.4,0.6
	c0.8,1.3,1.5,2.6,2.2,3.9l0.9,1.9c0.1,0.3,0.2,0.6,0.4,0.8c0.1,0.3,0.2,0.7,0.4,1l0.2,0.6l0.5,1.2c0.2,0.6,0.5,1.3,0.7,2
	c0.6,1.5,1.1,3,1.5,4.5c0.9,2.9,1.7,5.8,2.5,8.7c1.6,6.2,2.5,14.9,10,16.5c7.5,1.6,10.5-4.1,12.9-9c2.2-4.6,3.7-9.5,4.3-14.6
	c0.8-6.5,0.1-13.1-0.8-19.6c-0.2-1.9-0.5-3.8-0.8-5.7l-0.3-2.4v-0.9c-0.1-0.4-0.1-0.7-0.2-1.1c-0.4-2.4-0.6-4.9-0.6-7.3
	c0.1-3.1,0.5-6.2,0.8-9.4l7.8,6.1c1.5,1.1,3,1.8,4.9,1.3c1.7-0.5,3-1.8,3.5-3.5c4.8-15.6,0.8-32-6.1-46.3s-16.6-25.8-25-38.6
	c-2.4-3.5-4.6-7.1-6.6-10.8c-0.8-1.6-1.7-3.2-2.4-4.8h3.9c3.6,0,7.3,0.2,10.6-1.4c4-1.9,5.8-6.6,4.1-10.7c-1.1-3-2.7-5.9-4.7-8.4
	c-3.8-4.8-8.1-9.2-12.9-13.1l-6.8-5.8l-3.1-2.9c-0.6-0.5-1.2-1.1-1.7-1.7l-0.3-0.3l-0.2-0.3l0.5-0.4l0.6-0.5l0.7-0.6l2.7-2.1
	l10.2-7.9c1.8-1.3,3.1-3.3,2.3-5.6c-0.7-2.1-2.6-3.6-4.8-3.7c-22.5-2.1-45.5,1.9-66.4,10.2c-7.7,3-15.1,6.6-22.2,10.7
	c7.1-10.1,15.3-19.3,24.5-27.5c6.9-6.1,14.5-11.3,22.7-15.6c4.4-2.3,8.9-4.3,13.6-6l7.4-2.3l2.7-0.9c-0.1,0.1-0.1,0.3-0.1,0.4
	c-0.6,2.4-1.2,4.8-1.7,7.2c-1.1,6,4.5,9.6,9.7,7c4.9-2.6,9.9-4.7,15.1-6.5c21.2-6.8,44-5.8,65.6-2.1c12,2,23.8,4.9,35.3,8.7
	c10.7,3.6,21.5,7.9,30.5,14.8c16.5,12.6,26.9,33,33.7,52.1c3.8,11.2,6.9,22.6,9.2,34.2c1.2,5.9,2.3,11.8,3.3,17.6
	c0.5,3.1,1,6.1,1.3,9.1c0.2,1.9,0.3,3.7,0.3,5.6c0,0.3,0.1,0.7,0.1,1.2l-3.6-1.2c-2.3-0.6-4.8,0-6.5,1.7c-2.3,2.3-1.9,5.6-1.5,8.6
	c1.5,12.6,6,24.9,10.4,36.8c4.4,11.9,9.2,23.3,12.4,35.4c3.1,11.5,4.7,23.4,4.8,35.3C1045.3,415.5,1043.4,427.5,1039.7,438.9z"/>
</svg>
