<?xml version="1.0" encoding="utf-8"?>
<!-- Generator: Adobe Illustrator 24.2.3, SVG Export Plug-In . SVG Version: 6.00 Build 0)  -->
<svg version="1.1" id="bee68c1e-a6ad-4d70-b8ba-9bd9cc22fc45"
	 xmlns="http://www.w3.org/2000/svg" xmlns:xlink="http://www.w3.org/1999/xlink" x="0px" y="0px" viewBox="0 0 1152 864"
	 style="enable-background:new 0 0 1152 864;" xml:space="preserve">
<path d="M930.8,518.8c-0.8-19,0.8-37.9-3.6-56.5c-1.5-6.5-3.8-12.7-6.7-18.7c-1.8-3.9-4.2-9.1-7.8-12.2c0.2-11.6-1.3-23.3-3.4-34.7
	c-3.3-17.5-8.5-34.7-15.3-51.2c-6.8-16-15.7-31.3-27.5-44.1c-5.8-6.3-12.2-11.8-19.3-16.6c-7.8-5.3-16.4-9.2-24.9-13.1
	c-8.5-3.9-17.5-7.9-25-13.7c-7.5-5.8-14.6-14.3-21.7-21.5c-13.5-13.6-28.4-25.7-44.5-36.1c-16.1-10.4-33.2-19-51.1-25.8
	c-19.9-7.5-41.2-13.3-62.6-12.7c-21.4,0.6-39.9,7.1-60.1,9.6c-9.9,1.2-20.1,1.3-29.8-1.1c-9.7-2.4-20.5-5.3-31.1-6.9
	c-39.5-6-80.4-1.3-115.8,18c-12.2,6.6-23.5,14.9-33.4,24.6c-0.1,0.1-0.1,0.1-0.2,0.2c-2.9,2.8-5.6,5.7-8.2,8.8
	c-6.1,7.2-11,15.1-16.4,22.8c-5.6,8.1-13.1,14.7-21.8,19.3c-8.2,4.3-16.8,7.8-24.7,12.6c-7.5,4.6-14.6,9.7-21.2,15.5
	c-13.2,11.6-24.4,25.2-33.3,40.3c-11.8,20.3-19.4,42.7-22.5,65.9c-0.8,0.6-1.3,1.5-1.5,2.4c-3.1,17.7-7.6,35.1-11.5,52.7
	c-3.9,17.6-7.2,34.8-8.1,52.6c-0.9,17.8,0.4,34.6,5.5,51.1c4.6,14.9,12.5,28.5,20.1,42c3.7,6.5,7.4,13.1,10.6,19.9
	c0.8,1.7,1.6,3.4,2.3,5.2c0.1,0.1,0.2,0.3,0.2,0.5c0.2,0.4,0.4,0.7,0.5,1.1c0.4,0.9,0.7,1.8,1.1,2.8c1.3,3.4,2.3,6.9,3.2,10.5
	c0.5,1.8,0.9,3.7,1.2,5.6c0.1,0.8,0.5,1.5,1.1,2.1c-4.7,15-10.8,29.5-15.9,44.5c-2.9,8.4-6.4,17.9,0.4,25.5s15.8,7.6,24.1,4.7
	c15.2-5.2,24.3-19.1,29.2-33.7c5.9-17.4,6.9-36.9,5.7-55.1c-1.4-20.7-6.3-40.9-14.6-59.9c-4.1-9.3-10.2-17.6-8.4-28.3
	c1.8-10.7,5.7-21,9.1-31.1c6.9-20.4,14.2-40.6,17.9-61.9c3.7-21.3,5.6-41.6,13-61.3c6.6-17.5,16.4-33.5,23.8-50.6
	c7.4-17.1,11.6-33.7,8.8-51.7c-0.4-2.7-3.7-4.1-6.1-3.5c-2.4,0.6-3.9,3.5-3.5,6.2c2.7,17.8-3.7,35.4-11.2,51.3
	c-7.5,15.9-17.6,33.3-23.4,51.2c-6.6,20.2-8,41.6-12.2,62.3c-4.2,20.7-11.9,40.5-18.4,60.5c-2.3,7-4.9,14.2-6.6,21.5
	c-6.2-20.1-15.6-39-21.1-59.4c-10.4-39-9.9-81.4,5.2-119.2c12.8-31.7,36.1-59.7,66.2-76.3c8.3-4.5,17.1-7.9,25.2-12.8
	c8.1-4.9,14.6-12,20.2-20c5.6-8,10.2-15.4,16.3-22.4c2.9-3.4,6-6.6,9.3-9.6c0.1-0.1,0.1-0.1,0.2-0.2c3.2-3,6.5-5.8,10-8.4
	c30.6-23.3,69-33,107.1-31.2c10.6,0.6,21.2,1.9,31.6,4.1c10.3,2.1,20.2,5.7,30.7,6.7c20.2,2,40.1-4,59.8-7.6
	c9.7-1.9,19.5-2.7,29.4-2.3c10.8,0.6,21.5,2.5,31.8,5.6c18.6,5.3,36.6,12.7,53.5,22.2c16.7,9.3,32.3,20.4,46.6,33.1
	c14.4,12.9,26,29.1,42.9,39c16.9,9.9,34.1,14.5,48.5,26.4c14.4,11.9,23.2,24.7,30.9,39.8s13.3,32.1,17.4,48.9
	c3.6,15.2,6.3,30.9,5.7,46.5c-0.1,0.6-0.2,1.2-0.1,1.8c-0.1,2.2-0.3,4.4-0.5,6.6c-1,9.2-3.8,18.1-8.1,26.2
	c-4.2,7.6-9.9,14.2-15.8,20.5c-11,11.9-24.1,24.8-26.9,41.3c-2.8-4.8-5.3-9.7-7.6-14.8c0-0.1-0.2-0.4-0.2-0.6
	c-0.1-0.1-0.1-0.1-0.1-0.2c-0.3-0.6-0.5-1.2-0.7-1.8c-0.5-1.2-0.9-2.5-1.3-3.8c-0.8-2.5-1.4-5-1.9-7.5l-0.3-1.8
	c-0.1-0.1-0.1-0.2-0.1-0.3c0-0.3-0.1-0.6-0.1-0.9s-0.3-2.7-0.3-4.1c-0.2-3-0.1-6,0.1-9c0.9-10.6,3-21.2,2.5-31.9
	c-0.5-10.7-2.8-18.9-8-27c-5.2-8.1-10.7-13-16.1-19.4c-5.4-6.4-10.9-13.2-16.2-19.9l-6.6-8.4l-1.1-1.3l-0.5-0.6c0,0,0-0.1,0-0.1
	c1,1.2,0.3,0.4,0,0c-0.4-0.6-0.8-1.2-1.1-1.8c0-0.2-0.1-0.3-0.2-0.4l-0.3-1.1c-0.2-0.7-0.4-1.3-0.5-2c0,0,0-0.1,0-0.1
	c0,0,0-0.1,0-0.1c0,0,0-0.1,0-0.1c0,0,0,0,0,0v0c0,0.1,0,0.2,0.1,0.2c0.1,0.3,0.1,0.2-0.1-0.6c0,0,0,0,0,0c0-0.4-0.1-0.7-0.1-1
	c0-1.7,0-3.5,0.2-5.2c0-0.1,0-0.2,0.1-0.2c0-0.5,0.1-1,0.2-1.5l0.6-2.9c0.5-2,1.1-3.9,1.7-5.9c2.6-8.3,6-16.3,8.5-24.6
	c2.5-8.3,4.2-16.2,2.1-24c-0.5-1.9-1.3-3.8-2.3-5.5c-1.4-2.4-4.5-3.2-6.9-1.8c-2.4,1.4-3.2,4.4-1.8,6.8l0.7,1.2c0,0.1,0,0.1,0.1,0.2
	c0.1,0.1,0.5,1.5,0.7,2.3s0.1,0.8,0.2,1.2v0.2c0.1,0.9,0.2,1.7,0.2,2.6c0,0.8,0,1.6-0.1,2.4c0,0.5-0.1,0.9-0.1,1.4
	c0,0.2,0,0.3-0.1,0.5c-0.3,1.9-0.7,3.8-1.2,5.7c-2.1,8.3-5.4,16.2-8.2,24.3s-5.3,15.8-4.5,23.8c0.3,4,1.5,7.8,3.7,11.2
	c1.8,2.5,3.8,4.8,5.7,7.2l16.1,20.1c2.4,2.8,4.7,5.7,7.1,8.4c2.4,2.7,5.2,5.4,7.5,8.3l1.1,1.3l0.2,0.2l0.6,0.8l2.1,3.1
	c1.2,2,2.3,4,3.3,6.1c0.1,0.2,0.5,1.1,0.8,2.1c0.4,1.1,0.7,2.2,1,3.4c0.3,0.9,0.5,1.9,0.7,2.8l0.3,1.8c0,0.2,0.1,0.3,0.1,0.5v0.2
	c1.1,9.8,0,19.7-1.2,29.5c-0.9,6-1.2,12.1-0.9,18.2c0.4,5.6,1.5,11.2,3.2,16.6c3.6,10.7,9.5,20.4,15.1,30l4,7.1
	c0.2,4.2-0.3,8.4-1.5,12.4c-3.1,9.5-5.7,18.8-6.7,28.7c-1.6,15.4,0.8,31,7,45.2c5.8,13.5,14.2,25.5,22.7,37.3c2.1,2.7,4.1,5.6,6,8.5
	c1.9,3,3.9,5.6,7.5,6.7c6.2,2,12.9-0.9,15.8-6.7c1.7-3.7,1.1-7.2,0.4-11l-3-17.9c-1.8-10.2-4.9-21.2-4.1-31.6s7.2-16.1,12.8-22.9
	c6-7.1,10.9-15.1,14.5-23.7C930,556.7,931.6,537.8,930.8,518.8z M235.6,635c1.7-6.3,3-12.7,4.1-19.2c0.4-2.6,0.8-5.2,1.2-7.8
	c0.7-5.2,1.2-10.4,1.5-15.6c0.4-6.2,0.4-12.4,0.2-18.6c-0.1-2.1-0.2-4.1-0.4-6.2l0.5,1.2c2.4,5.4,4.6,10.9,6.4,16.5
	c0.7,2.2,1.4,4.5,2.1,6.8c0.3,1.1,0.6,2.3,0.9,3.4c0.9,3.4,1.7,6.9,2.3,10.4c0.4,2.3,0.8,4.6,1.2,7c0.5,3.5,0.9,7,1.2,10.6
	c0.1,1.3,0.2,2.5,0.3,3.8c0.6,11.2,0.5,22.8-1.3,34.1c-0.4,2.3-0.8,4.5-1.3,6.7c-0.2,1.1-0.5,2.2-0.8,3.3c-0.6,2.2-1.2,4.4-1.9,6.5
	c-0.4,1.1-0.7,2.1-1.1,3.2c-2.5,6.5-6.1,12.8-11.1,17.6s-12.7,9.2-19.5,7.4c-0.7-0.2-1.3-0.4-1.8-0.6c-0.5-0.2-1-0.5-1.4-0.8
	c-0.4-0.3-0.8-0.6-1.1-1c-0.3-0.4-0.6-0.7-0.8-1.1c-0.2-0.4-0.4-0.8-0.5-1.3c-0.1-0.4-0.2-0.9-0.3-1.4c-0.1-1-0.1-2,0-3
	c0.1-1,0.4-2.1,0.7-3.2c0.1-0.5,0.3-1.1,0.5-1.6c0.2-0.5,0.4-1.1,0.5-1.6c0.2-0.5,0.4-1,0.6-1.6c0.2-0.5,0.4-1,0.6-1.5
	c0.2-0.5,0.4-1,0.5-1.4c0.2-0.5,0.3-0.9,0.5-1.3c0.9-2.6,1.9-5.2,2.9-7.8c1.9-5.1,3.9-10.3,5.9-15.4c1-2.6,1.9-5.2,2.9-7.8
	c1.3-3.7,2.6-7.4,3.7-11.2C234.3,640,235,637.5,235.6,635z M228.5,621.4c-3.3-9.8-8.1-19.2-13.2-28.3c-3.6-6.6-7.4-13-11-19.7
	c-1.7-3.3-3.5-6.6-5.1-10c-0.8-1.7-1.6-3.4-2.3-5.1c-0.1-0.2-0.2-0.5-0.3-0.7c-0.2-0.3-0.3-0.6-0.4-1c-0.4-0.8-0.7-1.7-1.1-2.6
	c-2.9-7.7-4.9-15.7-6.1-23.9l-0.3-1.6v-0.1v-0.1c0-0.2-0.1-0.3-0.1-0.5l-0.3-3.2c-0.2-2-0.4-4.1-0.5-6.1c0-0.5,0-0.9-0.1-1.4
	c-0.2-3.8-0.2-7.7-0.2-11.5c0-0.1,0-0.1,0-0.2c0-3.6,0.2-7.1,0.5-10.7c0.1-0.6,0.1-1.1,0.2-1.7l0.6-6.2c0-0.3,0.1-0.6,0.1-0.9
	c0.1-0.7,0.2-1.5,0.3-2.2c0,0,0,0,0-0.1c0.2-1.1,0.1-0.9,0.1-1.4h0.1c0-0.2,0.1-0.7,0.1-0.8c1.2-8.7,2.8-17.3,4.7-25.9
	c1.2-5.8,2.5-11.6,3.9-17.4v0.2c2.2,20.8,7.2,41.1,14.8,60.6c7.8,20.4,16.3,40.4,18.8,62.3c0.7,6.3,1.1,12.6,1.1,18.9
	C232.9,594,231.5,607.8,228.5,621.4z M921.1,532C921.1,532,921.1,532,921.1,532c0,1.2-0.1,2.3-0.1,3.5c-0.2,3.5-0.5,7-1,10.4
	c-0.2,1.2-0.3,2.3-0.5,3.5c-0.4,2.3-0.9,4.6-1.4,6.8c-0.3,1.1-0.6,2.3-0.9,3.4s-0.6,2.2-1,3.3c-1.2,3.9-2.7,7.7-4.4,11.3
	s-3.7,7.2-6,10.6c0,0,0,0,0,0c-0.5,0.8-1.1,1.5-1.6,2.2c-4.5,6.1-10,11.5-13.9,18c-0.3,0.5-0.6,1-0.8,1.5c0,0,0,0,0,0
	c-4.3,8-4.7,19.4-3,29.7c0,0,0,0,0,0c0.8,5.1,1.8,10.5,2.7,16c0.1,0.4,0.2,0.9,0.2,1.3c0.9,5.2,1.8,10.4,2.7,15.5
	c0.2,1.3,0.9,3.2,1.1,5c0,0.3,0.1,0.5,0.1,0.8c0,0.3,0,0.6,0,0.8c0,0.2,0,0.5-0.1,0.7c-0.1,0.7-0.4,1.3-0.9,1.8
	c-1,0.9-2.4,1-3.5,0.4c-1-0.6-1.4-2-2-3l-3.3-4.5l-6.5-9.1c-4.2-6.1-8.4-12.2-12.1-18.7c-4.3-7.5-7.7-15.4-9.9-23.6
	c-0.4-1.4-0.7-2.7-1-4.1c-0.1-0.4-0.1-0.7-0.2-1.1c-0.5-2.4-0.8-4.9-1.1-7.4c-0.2-1.9-0.3-3.8-0.3-5.8c0,0,0-0.1,0-0.1v0
	c0-0.9,0-1.7,0-2.6c0.1-2.6,0.2-5.2,0.5-7.8c0.2-1.9,0.5-3.8,0.8-5.7c0.1-0.4,0.1-0.8,0.2-1.1c0.5-2.8,1.1-5.6,1.9-8.3
	c0.1-0.3,0.1-0.6,0.2-0.9c0,0,0,0,0,0c1.3-4.6,3.2-9,4.2-13.6c0,0,0,0,0,0c0.1-0.6,0.3-1.3,0.4-1.9c0-0.2,0-0.4,0.1-0.6
	c0.1-0.4,0.1-0.8,0.2-1.2c0.4-3.8,0.4-8.1,0.2-12v0c0,0,0,0,0,0c-0.1-3.3-0.3-5.9-0.3-8.5c0-1.6,0.1-3.3,0.3-5c0,0,0,0,0,0
	c0.9-4.7,2.7-9.1,5.3-13c4.4-7.4,10.2-13.7,16-19.9c0,0,0,0,0,0c5.8-6.2,11.9-12.7,16.8-20c0,0,0-0.1,0.1-0.1
	c5.1-7.7,8.8-16.2,10.9-25.2c0.5-2.1,0.9-4.1,1.2-6.2c0.9,1.8,1.7,3.6,2.5,5.4c2.9,7.3,4.8,14.9,5.7,22.7c1,7.8,1,15.8,1,23.6
	c0,1.2,0,2.3,0,3.5c0,0,0,0,0,0c0,0,0,0,0,0c0,7.9,0.6,17,0.6,25.7C921.1,529.5,921.1,530.8,921.1,532z"/>
</svg>
