<?xml version="1.0" encoding="utf-8"?>
<!-- Generator: Adobe Illustrator 24.2.3, SVG Export Plug-In . SVG Version: 6.00 Build 0)  -->
<svg version="1.1" id="ae848db5-f201-418b-8e28-14c04f055029"
	 xmlns="http://www.w3.org/2000/svg" xmlns:xlink="http://www.w3.org/1999/xlink" x="0px" y="0px" viewBox="0 0 1152 864"
	 style="enable-background:new 0 0 1152 864;" xml:space="preserve">
<path d="M511.6,333.5l-0.3-0.4l-8.3-2.7c-1.5-0.6-3-1-4.6-1.2c-2.3-0.1-4.2,1.8-5.3,3.6c-2.5,4-1.3,8.7-1.5,13.1
	c0,0.2,0,0.3-0.1,0.5h0.2c-0.1,0-0.1,0.1-0.2,0.3v-0.1c-0.1,0.1-0.1,0.2-0.1,0.3l-0.2,0.2h-0.1c-0.3,0.3-0.3,0.3-0.2,0.1
	s-0.4,0.2-0.4,0.3h-0.3l-2.1,0.7c-3.6,0.8-7.2,1.1-10.6,2.6c-1.6,0.7-3.1,1.8-4.2,3.2c-1.8,2.3-2.9,5.2-3.1,8.1
	c-0.1,1-0.2,1.9-0.2,2.8v0.6c-0.1,0.2-0.2,0.4-0.2,0.6v0.2c0,0.1-0.1,0.1-0.1,0.2h-0.1l-0.3,0.2H469l-1.7,0.4
	c-2.4,0.4-4.8,1.2-6.8,2.6c-2,1.5-3.4,3.7-4,6.1c-0.4,2-0.5,4.1-0.5,6.1v4.1c-0.1,0.1-0.1,0.2-0.1,0.3s0,0.2-0.1,0.3
	c0,0.1-0.1,0.1-0.1,0.2l-0.6,0.2c-2.6,0.8-5.1,2.1-7.2,3.8c-3.4,2.9-5.9,7.1-8.2,10.9c-2.3,3.8-4,6.8-6.2,10l-0.9,1.2
	c0,0.1,0,0.1-0.1,0.1c0,0.1,0,0.1-0.1,0.2c-0.6,0.7-1.2,1.4-1.9,2.1l-0.9,0.9l-0.5,0.4l-1.9,1.2H427h-0.1h-0.2l-0.9,0.2h-2.1
	c-2.7,0.1-5.4,0.4-8.1,0.8c-4.1,0.5-8.2,1.4-12.1,2.8c-7.4,2.6-14.2,6.8-19.8,12.4c-2.7,2.8-5.2,5.8-7.3,9.1
	c-0.6,0.9-1.2,1.8-1.9,2.6v0.2l-0.2,0.3l-1.2,1.4c-1.4,1.7-2.9,3.2-4.5,4.7c-6.5,6.3-13.5,11.9-18.9,19.2c-1.3,1.7-2.4,3.6-3.4,5.5
	c-1.2,2.3-0.7,5.5,1.8,6.8s5.6,0.7,6.9-1.8c0.9-1.8,2-3.6,3.2-5.3l0.5-0.6c0-0.1,0.1-0.1,0.1-0.1c0.2-0.3,0.6-0.8,0.7-0.9
	c0.7-0.9,1.4-1.7,2.2-2.5c2.8-3,6-5.8,9-8.6c3.2-2.8,6.2-5.7,9-8.8c1.6-1.8,3.1-3.7,4.4-5.7l1.5-2.1l0.8-1.1l0.5-0.7l0.5-0.6l0.8-1
	l1.8-2c1.1-1.2,2.3-2.3,3.5-3.4l1.9-1.5l-0.3,0.2l0.5-0.4l1.2-0.8c1.4-1,2.9-1.9,4.5-2.7l2.3-1.1h0.3c-0.1-0.1-0.1,0-0.1-0.1h0.3
	c0.5-0.2,0.3,0,0.1,0.1l1-0.5c1.8-0.7,3.6-1.2,5.4-1.7c2-0.5,3.9-0.9,5.9-1.2l1.4-0.2h0.6l3.6-0.3c2.3-0.2,4.7-0.1,6.9-0.7
	c1.8-0.6,3.6-1.4,5.2-2.5c3.4-2.5,6.2-5.7,8.5-9.2c2.1-3.2,3.9-6.5,6-9.7c1-1.8,2.1-3.5,3.3-5.1c0.2-0.2,0.3-0.4,0.4-0.7l0.9-1
	c0.3-0.4,0.6-0.7,1-1l0.5-0.5l0.6-0.4l0.6-0.4l0.5-0.2c1.4-0.4,2.8-0.9,4.2-1.5c2.2-1.2,3.9-3.3,4.7-5.7c1.2-3.4,0.6-7.1,0.8-10.6
	V379l0.3-0.8h0.1l0.1-0.1l0.1-0.1c0,0.1,0,0.1-0.1,0.1h0.3l0.5-0.2l2.9-0.6c2.5-0.5,4.8-1.7,6.7-3.5c2-2.2,2.7-4.9,3.1-7.8l0.3-2.8
	v-0.3c0.2-0.5,0.4-1,0.4-1.6l0.2-0.3l0.1-0.1h0.2c0-0.1,0.1-0.1,0.1-0.2c0-0.1,0.3-0.1,0.2,0l0.3-0.2l0.3-0.2l0.7-0.2
	c0.8-0.3,1.6-0.5,2.5-0.6l4.6-0.9c4-0.8,7.6-2.5,10-5.9c2.4-3.4,1.8-7.8,1.7-11.9l7.2,2.3c2.7,0.4,5.3-1.4,5.7-4.1
	C515.1,336.6,513.8,334.4,511.6,333.5z M480.5,361.2h0.1C480.4,361.4,480.2,361.8,480.5,361.2z M491.5,346.8
	C491.6,346.6,491.6,346.7,491.5,346.8L491.5,346.8z"/>
<path d="M339.2,384.2c-0.2-0.2-0.4-0.3-0.7-0.4c-2.4-1.4-5.5-0.6-6.9,1.8l-0.6,0.9c0,0.1,0,0.1-0.1,0.1l-1.2,1.3l-0.9,0.7h-0.1
	l-1.8,1.2c-2.5,1.6-5,2.8-7.4,4.4c-5.2,3.5-9.8,9.4-9.5,15.9c0.1,3.4,1.6,6.6,4.3,8.8l1.2,1l-0.6,0.5l-0.3,0.3l-0.3,0.2l-0.2,0.2
	l-1.8,1.3c-1.5,1-3,2-4.4,3.2c-2.6,1.9-4.6,4.6-5.6,7.7c-0.9,3.4-0.4,6.9,1.2,10l1,1.4c-2.4,2.8-4.7,5.8-6.8,8.8s-3.1,4.6-4.4,7
	c-1,1.6-1.5,3.4-1.5,5.2c0,2.5,1.3,4.8,3.4,6.1l1.7,0.8l0.7,0.3c0.1,0.1,0.1,0.1,0.1,0.2v-0.2h0.1v0.2v0.1c0,0,0,0-0.1,0h-0.1
	c0.1,0.1,0.1,0.1,0.1,0.2v-0.1h0.1c-0.1,0-0.1,0.1-0.1,0.1c0,0,0,0,0,0c-0.1,0.4-0.2,0.9-0.4,1.3v0.2h-0.1c0,0.1-0.1,0.2-0.1,0.3
	c-1.1,2.2-2.8,4-3.9,6.2c-1.1,2.2-2.5,6.4-1.5,9.8c1,3.4,4.3,6.3,8,7.4c-3.1,7.9-4.9,16.2-5.4,24.6c-0.2,2.7,2.4,4.9,5,5h5
	c0.4,5.7,1.3,11.5,4.1,16.6c3.3,6.2,9.5,10.4,16.5,11c2.7-0.1,4.9-2.3,5-5c0-2.8-2.2-5-5-5h-0.4c0.7,0.3-0.3,0-0.4-0.1
	c-0.6,0-1.2-0.2-1.7-0.5h0.3l-0.4-0.2l-0.7-0.4l-0.8-0.5h-0.1c-0.4-0.3-0.2-0.2,0-0.1s-2.3-2.2-2.4-2.4h-0.1c0-0.1,0-0.1-0.1-0.2
	l-0.4-0.6l-1-1.7c-0.1-0.3-0.2-0.5-0.4-0.8h-0.1c-0.2-0.7-0.5-1.4-0.7-2.1s-0.6-2.9-0.9-4.4c-0.1-0.4-0.1-0.8-0.2-1.2
	c-0.1-0.4-0.1-1.5-0.1-2.2l-0.3-4.7c0-2.8-2.2-5-5-5h-4.3c0.1-0.5,0.2-1,0.2-1.5c0.4-2.3,0.9-4.6,1.5-6.9c0.6-2.3,1.3-4.5,2.2-6.7
	l0.6-1.7l0.3-0.8c0.1-0.1,0.1-0.1,0.1-0.2l1.5-3.3c1.7-3.4-0.3-7.4-4.3-7.5c-0.3,0-2.2,0.1-2.6-0.2l-0.6-0.1l-1.4-0.4h-0.5
	c0.1,0.1,0.2,0.3-0.1,0h-0.1c0.1,0.2,0.1,0.2-0.1-0.1h-0.1v-0.2c0-0.1,0.1-0.3,0.1-0.4c0.1-0.3,0.2-0.6,0.2-0.9
	c0.2-0.2,0.3-0.4,0.4-0.7c0.3-0.6,0.7-1.2,1.1-1.8c1.4-1.9,2.5-4,3.5-6.1c2-4.9,1.4-10.8-3.2-13.9l-0.8-0.4l0.9-1.4l2.1-3.2
	c0.8-1.2,1.6-2.4,2.5-3.5l1.1-1.5c0,0,0.1-0.1,0.3-0.4l0.7-0.9c1.8-2.3,3.7-4.5,5.7-6.6c1.4-1.5,1.8-3.6,1-5.5
	c-0.6-1.6-2.6-3.3-4.5-3h-0.3c0-0.4-0.1-0.8-0.3-1.2v-0.6c0-0.1,0.1-0.2,0.1-0.4c0,0,0,0,0-0.1c0-0.1,0.1-0.2,0.1-0.3
	c0-0.2,0.2-0.2,0.2-0.3s0.1-0.2,0.2-0.3c0.1-0.2,0.2-0.3,0.4-0.4c0.4-0.5,0.8-0.9,1.3-1.3l0.7-0.6l1.9-1.3c2.7-1.8,5.5-3.7,7.5-6.4
	c2.5-3.5,2.2-8.3-0.8-11.4c-0.9-0.8-1.8-1.6-2.7-2.3l-0.3-0.3c-0.1-0.1-0.1-0.1-0.1-0.2c-0.1,0-0.1,0-0.1-0.1h-0.1
	c-0.1-0.2-0.1-0.3,0-0.2c0.1,0.1-0.1-0.3-0.1-0.4v-0.4h-0.1V410c0-0.2,0-0.3,0.1-0.2v-0.1c0.1-0.2,0.1-0.3,0.1-0.5v0.1
	c0-0.2,0.1-0.3,0.1-0.5c0.1-0.2,0.1-0.1,0.1-0.2v0.2c0.3-0.6,0.6-1.3,0.9-1.8l0.4-0.6l0.1-0.1c-0.4,0.6,0.8-1,1.2-1.3
	s0.8-1.1,1.2-1.2l-0.1,0.1c0.1-0.1,0.1-0.1,0.2-0.1l1-0.6c5.5-3.5,11.5-6.1,15-12C341.8,389,341.4,385.8,339.2,384.2z M301.1,488.5
	c0,0.1,0.1,0.2,0.1,0.3S301.1,488.6,301.1,488.5z M301.3,488.5C301.2,487.7,301.3,488.2,301.3,488.5L301.3,488.5z M301.6,487.3
	C301.4,488.1,301.5,487.6,301.6,487.3L301.6,487.3z M312.4,435.1l0.2-0.2C312.6,435,312.5,435,312.4,435.1z M314.3,421l0.4-0.3
	C314.7,420.8,314.5,420.9,314.3,421z M316.1,420.6c0.1,0.1,0.1,0.2,0.2,0.2C316.2,420.8,316.1,420.7,316.1,420.6z M321.8,406.1
	C321.9,406,322,405.8,321.8,406.1L321.8,406.1z"/>
<path d="M920.5,617.9c-0.8-5.6-2-11.1-3.4-16.6c-2.5-9.9-5.8-19.7-9.9-29.1c3.7-1.8,6.6-5.1,7.9-9c2.5-7.3-0.7-15.1-3.1-22
	s-5.4-14.4-7.5-21.8c-0.7-2.6-1.4-5.9,0-7.9l1.5-1.3l0.9-0.4h0.2l0.3,0.2c2.5,1.4,5.6,0.4,6.9-2c0.6-1.1,0.8-2.4,0.5-3.7
	c-6-21-15-41.1-26.6-59.6c1.6-1.4,2.8-3.3,3.4-5.3c1.8-5.7-1.7-11.1-5.5-15c-7.5-7.5-15.2-14.7-22.9-22l5.8-3.7
	c2.1-1.4,3.4-4.6,1.8-6.9c-6-8.4-13.1-15.9-21.2-22.4c1.4-3.8,0.5-8.7-1.6-12.1c-0.9-1.4-2-2.6-3-3.9l-0.6-0.7c0-0.1,0-0.1-0.1-0.1
	c-0.5-0.7-1-1.4-1.4-2.2c0-0.2-0.1-0.3-0.2-0.5c-0.1-0.1-0.1-0.2-0.1-0.3c-0.1-0.1-0.1-0.2-0.1-0.3v-0.7c0.2-0.5,0.2-0.9,0.4-1.3
	c0.2-0.4,0.5-1.6,0.7-2.4c1.5-5.7-0.6-10.9-3.7-15.6c-1.2-1.9-2.6-3.6-3.7-5.6l-0.7-1.3c0,0,0-0.1-0.1-0.1c0,0,0,0,0-0.1v-0.1
	c0,0,0-0.1-0.1-0.2c-0.2-0.4-0.3-0.7-0.4-1.1v-0.5c-0.1-0.1-0.1-0.2,0-0.5c0.1-0.2,0.1-0.4,0.2-0.6c0.1-0.3,0.3-0.4,0.1,0
	c1-1.6,1.7-3.3,2.2-5.1c0.6-3.4-0.4-6.9-2.8-9.4c-1.8-2.1-4.3-3.5-6.6-4.9c-0.3-0.2-2.8-1.6-2.7-1.8l0.5,0.4l-0.5-0.5
	c-0.3-0.2-0.5-0.4-0.7-0.7c-0.2-0.1-0.3-0.3-0.5-0.5l-0.2-0.3l-0.9-1.6c0-0.1,0-0.1-0.1-0.1v-0.3c0-0.2-0.1-0.3-0.1-0.4
	c-0.2-0.5-0.3-1.1-0.4-1.6c-0.1-0.2-0.1-0.4-0.1-0.6c-0.1,0-0.1,0-0.1-0.1v-2.3c0-0.1,0.1-0.6,0.1-0.6s0.4-1.3,0.5-2v-0.2l0.4-0.7
	c0.7-1,1-2.1,1-3.3c0-1.6-0.6-3.1-1.7-4.2c-1.4-1.4-3.3-2.2-5.3-2.3c-1.1-0.1-2.2,0-3.4,0H813l-0.6-0.3l-0.2-0.2
	c-0.4-0.2-0.3-0.2-0.1-0.1c0.2,0.1-0.4-0.3-0.4-0.4l-0.4-0.4h-0.1c-0.8-1.2-1.5-2.4-2.1-3.6l-0.4-1c-0.1-0.1-0.1-0.2-0.1-0.3
	c-0.2-0.6-0.5-1.2-0.7-1.7c-0.7-1.8-1.5-3.5-2.2-5.3c-2.6-6.1-5.5-12.1-8.6-18c-6.2-11.8-13.3-23.1-21.2-33.8
	c-7.5-10-15.6-20.8-26.7-27.1c-6-3.4-12.9-5.1-19.8-4.7c-7.3,0.5-14.4,2.8-21.3,5.2c-25.4,9-49.6,21.2-71.9,36.4
	c-2.7,1.8-5.4,3.7-8.1,5.7c-0.4,0.3-0.8,0.6-1.1,1c-2.4-0.9-4.9-1.5-7.4-1.8c-7.1-0.8-14.3,0.4-21.3,1.5c-7.3,1.1-14.5,2.5-21.6,4.4
	c-7.6,2-15.1,4.6-22.4,7.7c-13-5.5-26.7-9.3-40.6-11.6c-10.2-1.7-22.2-3.9-32.1-0.3l-1-0.9c-21.9-15.9-45.8-28.9-71-38.7
	c-6.3-2.6-12.7-4.8-19.3-6.7c-7.2-1.9-14.8-2.8-22.1-0.8c-12.3,3.2-21.5,13.1-29.2,22.7c-8.4,10.5-16,21.6-22.7,33.2
	c-3.3,5.8-6.4,11.7-9.3,17.7c-1.4,3-2.7,5.9-4,8.9s-1.5,3.5-2.2,5.3c-0.3,0.6-0.6,1.3-0.8,2l-0.6,1.3c-0.5,1.1-1.1,2.2-1.8,3.2
	l-0.2,0.2l-0.4,0.4l-0.6,0.6c-0.1,0-0.1,0-0.1,0.1h-1.4c-1.3-0.1-2.7,0-4,0.1c-1.7,0.2-3.4,0.9-4.6,2.2c-1.1,1.1-1.7,2.6-1.7,4.2
	c0,1.3,0.4,2.5,1.1,3.6c0,0.1,0.2,0.2,0.3,0.4v0.2l0.6,2v0.3c0,0.1,0,0.2,0.1,0.3v2c0,0.1-0.1,0.1-0.1,0.2v-0.2c0,0.1,0,0.3-0.1,0.4
	c0,0.2,0,0.4-0.1,0.6c-0.1,0.5-0.2,1.1-0.4,1.6c0,0.2-0.1,0.3-0.2,0.5c0,0.1,0,0.1-0.1,0.2c-0.3,0.7-0.7,1.4-1.1,2l-0.2,0.2
	l-0.3,0.3c-0.2,0.3-0.4,0.5-0.7,0.7c-0.2,0.2-0.7,0.9-0.3,0.3l-0.2,0.2l-0.8,0.5l-1.7,1c-2.3,1.3-4.5,3-6.4,4.9
	c-2.5,2.6-3.4,6.2-2.6,9.7c0.5,1.7,1.3,3.3,2.2,4.8c0,0.2,0.1,0.4,0.2,0.6c0,0.1,0,0.1,0,0.2v0.1c0,0.1,0,0.1,0,0.2v0.5
	c-0.1,0.4-0.3,0.8-0.4,1.2c0,0.1,0,0.1,0,0.1l-0.1,0.2l-1,1.8c-2.4,4.1-5.5,7.6-7,12.2c-0.9,3-1,6.1-0.1,9.1l0.6,2l0.3,1.3h0.1
	c0,0.1,0,0.1-0.1,0.2v0.4c0,0.1,0,0.3-0.1,0.4c0,0.1-0.1,0.2-0.1,0.3v0.4l-0.3,0.4c-0.4,0.7-0.8,1.3-1.3,1.9l-0.6,0.8
	c-1.2,1.3-2.2,2.7-3.1,4.2c-1.6,2.5-2.4,5.4-2.3,8.4c0.1,1.2,0.4,2.3,0.8,3.4c-8.1,6.4-15.2,14-21.2,22.4c-1.6,2.3-0.3,5.5,1.8,6.9
	l5.8,3.7c-7.7,7.3-15.5,14.5-22.9,22c-3.9,4-7.3,9.3-5.5,15c0.6,2,1.8,3.8,3.4,5.2c-11.6,18.6-20.6,38.7-26.6,59.7
	c-0.7,2.7,1,5.5,3.7,6.2c1.2,0.3,2.6,0.1,3.7-0.5c0.1-0.1,0.2-0.1,0.2-0.2h0.2l1,0.4c0.5,0.4,1,0.8,1.4,1.3c1.4,2,0.8,5.3,0,7.9
	c-2,7.4-4.9,14.6-7.4,21.8s-5.6,14.6-3.1,22c1.3,3.9,4.1,7.2,7.8,9c-3.4,8.1-6.4,16.5-8.7,25c-1.5,5.5-2.8,11.1-3.8,16.6
	s-2,10.5,1.7,14.3c2,1.8,4.6,2.7,7.3,2.5c1-0.1,2-0.3,3-0.3h0.5c0.6,0.2,0.2,0,0.9,0.5c1.1,0.7,2,1.6,2.5,2.8
	c0.8,1.5,1.3,3.1,1.6,4.8c0.5,4.3-1.1,9.5-1.8,14c-0.7,4.5-1.1,10.8,0.9,15.9c4,9.9,13.8,17,24.7,16.9c6.4-0.2,6.4-10.2,0-10
	c-6.9,0-13.1-4.3-15.5-10.8c-2.9-8.6,2.6-17.8,1.6-26.7s-6.1-17-15.2-17.5l-2.8,0.2c-0.2,0-0.3,0-0.3,0.1c0-0.8,0-1.7,0.2-2.5
	c0.9-5,2-10,3.2-15c2.9-11.1,6.7-22,11.5-32.4c1.8-3.8-1.1-8.5-5.6-7.3c-0.7,0.2-1.4,0.1-2-0.4c-0.9-0.6-1.6-1.5-2.1-2.5
	c-1.1-2.5-0.4-5.6,0.3-8.2c2.1-7.6,5.1-15.1,7.7-22.6c2.6-7.5,5.9-15.3,2-22.5c-1.7-3-4.4-5.4-7.7-6.6c6.4-19.9,15.6-38.9,27.2-56.3
	c1.1-2,0.8-4.4-0.8-6c-1.3-1.4-3.2-1.8-5-1.2l-0.2-0.3c-0.3-0.8,0.1-1.7,0.8-2.7c2.3-3.4,5.9-6.1,8.8-8.9l20.8-19.9
	c2.4-2.3,1.6-6.2-1-7.9l-6.7-4.2c10.4-13,23.8-23.3,39.2-29.7c3.6-1.5,2.9-6.9,0-8.6c-0.4-0.2-0.8-0.5-1-0.9l-0.6-1
	c0.1,0-0.2-1-0.2-1.1h-0.1v-1.6c0.2-2.3,1.3-4.4,3-5.9c5.4-4.5,13.1-4,19.6-5.1c3.6-0.6,6.9-2.2,9.5-4.7c3.1-3.4,3.6-7.8,3.3-12.2
	c-0.3-1.6-0.3-3.3-0.1-4.9c0.3-1.1,0.8-2.1,1.6-2.9c2-1.9,4.4-3.2,7.1-3.8c3.7-1,7.8-0.8,12-0.8s10.3-0.2,15.1-1.9
	c2.7-0.8,4.2-3.5,3.4-6.2c-0.2-0.8-0.7-1.5-1.2-2.1c-2.2-2.5-2.6-6.3-1.7-9.5c0.5-1.6,1.4-3.1,2.6-4.3c1.5-1.3,3.3-2.1,5.3-2.5
	c4.6-1,10-0.1,14.8,0.4s10.9,0.8,16.3-0.8c3.3-0.9,4.3-4.4,3-7.3l-2.9-6.2c11.8-1.2,23.7-0.2,35.1,2.8c4.1,1.1,6.7-2.5,6.2-6.2
	l-1.5-10.3c10.9-3.3,22.4-3.5,33.4-0.6c2.7,0.8,5.4-0.8,6.2-3.4c0.2-0.9,0.3-1.8,0-2.7c-0.7-2.3-0.3-4.9,1.1-6.9
	c1.3-2.3,3.3-4.1,5.7-5.2c6.3-3.1,14.2-2,20.8-1.1c15.7,2.3,31.5,5.7,46.1,12.2c1.2,0.5,2.5,0.7,3.8,0.4c1.3,0.3,2.7,0.1,3.9-0.4
	c14.5-6.5,30.3-9.9,46-12.2c6.7-0.9,14.6-2.1,20.9,1.1c2.4,1.1,4.4,2.9,5.7,5.2c1.4,2,1.8,4.6,1.1,6.9c-0.7,2.7,0.9,5.4,3.6,6.1
	c0.8,0.2,1.7,0.2,2.5,0c11-2.9,22.5-2.7,33.4,0.6c-0.4,3.4-0.9,6.9-1.4,10.3c-0.5,3.4,2.1,7.3,6.1,6.2c11.5-3,23.4-4,35.2-2.8
	c-1,2-1.9,4.1-2.9,6.2c-1,2.1-0.3,6.4,3,7.3c5.3,1.6,10.8,1.3,16.3,0.8s10.2-1.4,14.8-0.4c1.8,0.4,3.5,1.1,5,2.3
	c1.4,1.2,2.4,2.7,2.9,4.5c1,3.3,0.3,6.8-1.8,9.5c-2.6,2.9-1.4,7,2.3,8.3c4.2,1.4,8.7,2,13.1,1.9c3.7,0,8.3-0.3,11.6,0.3
	c3,0.3,5.9,1.4,8.3,3.2c0.8,0.6,1.4,1.3,1.9,2.1c0.8,1.1,1.1,2.4,1,3.7c0,4.4-0.9,8.7,1.3,12.9c2,3.3,5.2,5.6,8.9,6.5
	c6.7,2,14,0.9,20.2,4.5c1.2,0.8,2.4,1.8,3.3,2.9c0.8,1.1,1.2,2.4,1.4,3.7c0.4,2-0.3,4.3-1.8,5.2s-3.6,7.1,0,8.6
	c15.3,6.4,28.8,16.6,39.1,29.7l-6.6,4.2c-2.4,1.5-3.2,4.6-1.7,7c0.2,0.3,0.4,0.6,0.7,0.9l20.8,19.9c2.8,2.7,6.2,5.4,8.6,8.6
	c0.4,0.6,0.7,1.2,0.9,1.8c0.1,0.3,0.2,0.7,0.2,1c-0.1,0-0.2,0.3-0.3,0.5c-1.8-0.6-3.7-0.1-5,1.2c-1.6,1.6-1.9,4-0.8,6
	c11.6,17.4,20.8,36.4,27.2,56.3c-3.2,1.1-6,3.4-7.6,6.4c-4,7.2-0.6,15.6,1.9,22.7s5.4,14.7,7.6,22.2c0.7,2.7,1.5,5.9,0.4,8.6
	c-0.5,1-1.2,1.9-2.1,2.5c-0.6,0.5-1.3,0.6-2,0.4c-4.5-1.2-7.4,3.5-5.7,7.3c4.2,9.2,7.7,18.7,10.5,28.4c1.4,5.1,2.6,10.2,3.6,15.3
	c0.4,1.8,0.7,3.7,0.9,5.6v0.6c-1.6-0.7-4.5-0.3-6,0.2c-2.2,0.6-4.2,1.8-5.9,3.3c-2.9,2.7-4.9,6.2-5.8,10.1
	c-1.2,4.6-0.7,9.2,0.1,13.8s2.1,9,1.6,13.5c-0.9,7.9-8.6,13.9-16.2,13.8s-6.4,9.8,0,10c9.6,0,18.4-5.2,23.1-13.5
	c2.5-4.5,3.5-9.7,3-14.8c-0.4-5.3-2.1-10.5-2.4-15.9c-0.1-3.2,0.8-6.8,2.7-9c0.7-0.9,1.6-1.5,2.7-1.8c-0.1,0.1,0.7,0,0.8,0l1.7,0.2
	c1.5,0.1,3,0,4.4-0.3C919.9,628.7,921.2,622.8,920.5,617.9z M822.6,286.5c0,0.1-0.1,0.2-0.1,0.3
	C822.5,286.7,822.5,286.6,822.6,286.5z M198,621.4C198.3,621.7,198.1,621.6,198,621.4L198,621.4z M227.1,437.3
	C227.2,437.2,227.2,437.3,227.1,437.3L227.1,437.3z M265.9,350.4l0.2-0.6C266.1,350,266,350.2,265.9,350.4z M466.6,244.2
	c-12.1-2.1-24.6-1-36.2,3.3c-2.8,1.1-3.9,3.3-3.5,6.2c0.4,2.9,0.7,4.9,1.1,7.3c-13-2.5-26.3-2.6-39.3-0.4c-3.5,0.6-4.2,4.7-3,7.4
	l2.9,6.3c-3.9-0.1-7.9-0.4-11.8-0.9c-6.3-0.6-12.8-0.6-18.6,2.3c-8.9,4.6-12.1,15.2-9.2,24c-6.8,0.7-13.9-0.4-20.6,1.3
	c-6.7,1.7-15.4,7.4-16.4,15.9c-0.1,2.2-0.1,4.3,0.1,6.5c0.1,1.7,0.2,3.5-0.8,4.4c-0.8,0.7-1.8,1.2-2.9,1.3c-1.6,0.4-3.3,0.7-5,0.8
	c-8.7,0.9-18.2,3-23.5,10.6c-3.5,4.9-4.2,11.3-1.8,16.9c-3,1.4-5.8,3-8.6,4.8c0.2-0.2,0.3-0.4,0.4-0.6l0.2-0.3
	c0.5-0.7,1-1.3,1.6-1.9c1.6-1.9,2.9-4.1,3.8-6.4c0.8-2.4,1-5,0.3-7.5l-0.9-3l-0.3-0.9v-1.2c0.1-0.2,0.1-0.4,0.2-0.6
	c0-0.3,0.1-0.6,0.2-0.9l0.2-0.4c0.7-1.3,1.4-2.6,2.2-3.9c3.5-5.4,8.4-11.6,5.9-18.5c-0.5-1.2-1.1-2.4-1.7-3.5l-0.3-0.6
	c0-0.1-0.1-0.2-0.1-0.3l0.1-0.2l0.1-0.1h0.1c0.2-0.1,0.3-0.3,0.4-0.4l0.7-0.6h0.2l2.2-1.5c1.7-1,3.3-2.1,4.9-3.3
	c5.6-4.6,7.8-12.6,6.3-19.6c1.4-0.1,2.8-0.5,4.1-1.1c3.5-1.6,5.9-5,7.6-8.2s1.7-3.9,2.5-5.8c0.3-0.9,0.6-1.7,1-2.5
	c0-0.1,0.3-0.7,0.3-0.8c0.3-0.5,0.5-1.1,0.7-1.7c1.7-3.8,3.5-7.6,5.4-11.4c3.7-7.6,7.9-14.9,12.4-22c2.2-3.6,4.5-7.1,6.9-10.6
	l3.8-5.2l1.7-2.3l1-1.2V213l0.4-0.6c4.7-6.1,9.9-11.8,15.7-16.9l0.6-0.4l1.2-0.8l2.3-1.5c0.8-0.5,1.6-0.9,2.4-1.3l1.2-0.6h-0.3
	l0.9-0.3c1.7-0.7,3.5-1.1,5.3-1.4h2.3c1.2-0.1,2.3-0.1,3.5,0h2.5l3.2,0.6c2.3,0.5,4.5,1.1,6.7,1.8c4.1,1.3,8.2,2.8,12.2,4.3l5.8,2.3
	l2.9,1.2l1.5,0.6h0.3l0.5,0.2l11.6,5.3c15.4,7.3,30.1,15.9,44,25.6l2.3,1.6C469.5,235.8,467.4,239.8,466.6,244.2z M826.1,310.2
	C826.6,310.6,826.3,310.4,826.1,310.2L826.1,310.2z M830.4,357.2c2-4.8,1.9-10.2-0.4-14.8c-3.7-7.7-12.8-10.9-20.9-12
	c-3.5-0.5-7.6-0.5-10.4-1.8c-1-0.4-1.7-0.8-2-1.7s0-4.5,0.1-6.6c0.4-9.1-5.6-15.5-13.8-18.5s-15.6-1.2-23.3-2.1
	c2.9-8.8-0.3-19.4-9.2-24c-5.8-2.9-12.3-2.9-18.6-2.3c-3.9,0.6-7.9,0.8-11.8,0.8l2.9-6.2c1.2-2.7,0.5-6.8-3-7.4
	c-13-2.2-26.3-2.1-39.3,0.4c0.4-2.4,0.7-4.9,1-7.3c0.3-2.4-0.6-5.1-3.4-6.2c-11.6-4.3-24.1-5.4-36.3-3.3c-0.7-3.8-2.4-7.3-4.8-10.2
	l-1.2-1.3c12.9-9.2,26.5-17.4,40.6-24.5c3.8-1.9,7.7-3.7,11.5-5.4l6-2.6h0.4l1.5-0.6l3.1-1.3c8-3.2,16.2-6.5,24.7-8.4
	c1-0.3,2.1-0.5,3.2-0.6h0.6l1.8-0.2h5.5c0.2,0,0.3,0.1,0.4,0.1c1.8,0.3,3.6,0.7,5.3,1.4h0.4l1.2,0.6l2.6,1.4l2.3,1.5l1,0.7l0.8,0.6
	c1.4,1.2,2.8,2.3,4.1,3.6c2.8,2.6,5.3,5.5,7.7,8.5c1.3,1.5,2.6,3.1,3.8,4.7l0.5,0.6l0.9,1.2l2,2.7c2.5,3.4,4.9,6.8,7.3,10.3
	c4.6,7.1,8.9,14.3,12.9,21.8c1.9,3.7,3.8,7.5,5.6,11.3c0.9,1.8,1.7,3.7,2.5,5.6c0.3,0.5,0.5,1,0.7,1.5l0.3,0.8
	c0.1,0.1,0.1,0.1,0.1,0.2v0.2l0.3,0.8c0.3,0.5,0.5,1.1,0.7,1.7c1.5,3.7,3,7.4,5.7,10.5c2.1,2.5,5.1,4.1,8.4,4.4
	c-1.4,6.3,0.3,12.9,4.5,17.8c2.3,2.8,5.8,4.4,8.7,6.5h0.2c0.2,0.3,0.5,0.5,0.8,0.6l0.6,0.6c0,0.1,0.1,0.3,0.2,0.3
	c-0.2,0.2-0.3,0.5-0.4,0.8c-1.2,2-2,4.2-2.3,6.5c-0.1,1.7,0.1,3.4,0.6,5c0.9,3.1,2.8,5.9,4.6,8.6l2.6,3.9l0.9,1.8
	c0,0.1,0,0.1,0.1,0.2l0.3,1.1c0.1,0.2,0.1,0.4,0.1,0.6c0,0.1,0,0.2,0.1,0.2s-0.1,0.9-0.1,1.1s-0.1,0.4-0.2,0.6
	c-0.6,2.4-1.5,4.7-1.3,7.2c0.1,2.7,1,5.4,2.6,7.6l2.6,3.3l0.9,1.1c0,0.1,0,0.1,0.1,0.1l0.4,0.6C836.2,360.2,833.4,358.6,830.4,357.2
	z M842.4,349.4c0.1,0.1,0.1,0.1,0.1,0.2C842.4,349.6,842.4,349.5,842.4,349.4z M910.6,621.7c-0.1,0,0-0.1,0.1-0.2
	C910.7,621.6,910.7,621.6,910.6,621.7z"/>
<path d="M741.5,460.1c-0.4-0.2-0.7-0.5-1-0.8l-0.1-0.1h0.1c-0.3-0.2-0.4-0.3-0.5-0.3l-2.3-1.9c-1.5-1.2-2.8-2.5-4.1-3.9l-0.7-0.8
	l-0.2-0.3c-0.1,0-0.1,0-0.1-0.1c-0.5-0.7-0.9-1.4-1.3-2.1l-0.5-1v0.2c0-0.1,0-0.1-0.1-0.2h0.1c-0.1-0.3-0.2-0.4-0.2-0.5
	c0,0-0.1,0-0.1,0c0,0,0,0,0,0v0c-0.3-0.9-0.5-1.8-0.7-2.6c-0.7-4.2-2.2-8.3-4.5-11.9c-2.3-3.4-5.4-6.2-9-8.3
	c-7.3-4.2-15.8-5.4-24.1-6.3l-6.5-0.5l-3.1-0.3h-2.3l-1.2-0.2l-0.6-0.2l-1-0.5l-1.3-0.8c-0.2-0.1-0.9-0.5-0.2-0.2s0,0-0.2-0.2
	l-1-0.8c-0.8-0.8-1.5-1.6-2.2-2.5l-0.2-0.3h-0.1l-0.9-1.3l-1.8-2.7c-1.2-1.8-2.2-3.6-3.3-5.4c-2.5-4.1-5.1-8.6-8.6-11.8
	c-2.1-2-4.7-3.5-7.5-4.2l-0.8-0.3h-0.1c-0.1-0.1-0.1-0.2-0.1-0.3h0.1v0.1h0.1c0-0.1-0.1-0.2-0.1-0.3c0-0.1,0-0.2-0.1-0.2v-4.2
	c0.1-2.2-0.2-4.3-0.8-6.4c-0.8-2.7-2.7-4.9-5.2-6.2c-2.2-1.2-4.6-1.4-7-2.1h-0.1c-0.1,0-0.3-0.1-0.4-0.2v0.2h-0.4
	c0-0.1-0.1-0.1-0.1-0.1c0-0.3-0.2-1.1-0.2-1.2c-0.1-0.1-0.1-0.2-0.1-0.3v-0.3c0-0.1,0-0.2,0-0.2c-0.1-0.4-0.1-0.9-0.2-1.4
	c0-1.5-0.3-3-0.7-4.4c-1.5-4.8-5.4-7.6-10.1-8.8c-1.8-0.5-3.5-0.7-5.3-1.1l-2.5-0.5l-1-0.3h-0.4l-0.7-0.4l-0.3-0.2
	c-0.1-0.1-0.1-0.1-0.1-0.2l-0.2-0.3c0-0.2-0.1-0.5-0.2-0.7v-1.3c0-1.1,0.1-2.3,0.2-3.4c0.2-2.7-0.2-5.4-1.3-7.9
	c-0.7-1.4-1.7-2.6-3.1-3.4c-2.3-1.3-4.5-0.3-6.8,0.4l-8.6,2.8c-2.5,0.7-4.4,3.5-3.5,6.1c0.9,2.6,3.5,4.4,6.1,3.5l7.2-2.3
	c-0.2,2-0.2,3.9-0.1,5.9c0.2,2.8,1.3,5.5,3.1,7.6c1.5,1.6,3.4,2.8,5.5,3.4c3.2,1.2,6.6,1.3,9.9,2.3l1.1,0.3h0.1l0.7,0.4l0.4,0.3
	l0.3,0.4l0.3,1.3c0,0.2,0.1,0.5,0.1,0.8c0.1,2.7,0.6,5.3,1.7,7.8c1.4,2.7,3.8,4.6,6.7,5.4l2.8,0.7l1.5,0.4l0.7,0.2l0.4,0.2l-0.2-0.2
	h0.1c0,0.1,0,0.1,0.1,0.1h0.1c0,0.1,0,0.1,0.1,0.2c0,0.2,0.1,0.4,0.1,0.6s0.1-0.1,0.1,0.2v0.5c0-0.1-0.1-0.1-0.1-0.2v0.3
	c0.1,0.4,0.1,0.9,0.1,1.3v2.8c-0.1,2,0.2,4,0.7,6c0.9,2.6,2.7,4.7,5.1,5.9l2.4,0.8l0.9,0.3h0.7l0.8,0.5l0.5,0.3l0.2,0.2
	c0.8,0.7,1.5,1.4,2.1,2.2l0.3,0.4l0.2,0.3l1,1.5l3.4,5.3c2.1,3.6,4.3,7.1,6.8,10.4c2.9,3.8,6.2,7.2,10.8,9s8.5,1.4,12.6,1.7l6.1,0.6
	l1.5,0.2h0.3c1,0.2,2.1,0.4,3.1,0.5l5.4,1.1l2.5,0.8l1.2,0.4l0.7,0.3h0.1l0.8,0.4l1,0.5l2.3,1.3l0.7,0.5h-0.1l0.2,0.2h0.2l0.2,0.2
	c0.6,0.5,1.2,1.1,1.7,1.7l0.7,0.7v-0.2l0.3,0.4c0,0.1,0,0.1,0.1,0.2c0.5,0.7,1,1.4,1.4,2.2l0.6,1.2v0.6c0.3,0.9,0.6,1.7,0.8,2.6
	c0.5,1.9,0.7,3.8,1.3,5.6c0.7,1.9,1.5,3.8,2.6,5.5c2.1,3.1,4.7,5.8,7.6,8.2l5.2,4.1c1.4,1.1,2.9,2.3,4.4,3.3
	c-1.2-0.8,0.1,0.1,0.4,0.3l1.1,0.9l2.1,1.8c1.3,1.2,2.6,2.5,3.7,3.9c0.1,0.1,0.2,0.1,0.2,0.2h0.1l0.7,1.1l1.3,2.3
	c1.4,2.4,4.5,3.2,6.9,1.8c2.3-1.4,3.1-4.4,1.8-6.8C755.1,469.9,748,465,741.5,460.1z M695.6,429.7h0.3
	C696.7,429.8,695.8,429.7,695.6,429.7z"/>
<path d="M816.7,484.2c-1-2.4-2.7-4.6-4.3-7.1l-0.7-1.2l-0.2-0.3v-0.2c-0.2-0.5-0.4-1-0.5-1.5v-0.2v-0.3c-0.1-0.1-0.1-0.1-0.1-0.2
	h0.3c1.8-0.6,3.4-1.8,4.6-3.3c1.2-1.9,1.4-4.2,0.8-6.4c-0.9-2.9-2.9-5.5-4.5-8c-2.4-3.6-5.1-7.2-7.9-10.5c1.9-2.5,2.8-5.6,2.6-8.8
	c-0.7-7.3-6.7-10.9-12.1-14.7L794,421c-0.1-0.1-0.2-0.2-0.2-0.3l-0.6-0.5l2.5-2.2c1.3-1.4,2.1-3.1,2.6-4.9c1.5-6.3-2-13-6.8-16.9
	c-2.8-2-5.7-3.8-8.7-5.5l-1.9-1.2l-0.9-0.6h-0.2c0-0.1-0.1-0.1-0.2-0.2l-1.6-1.5l-0.3-0.3c-0.2-0.3-0.4-0.6-0.6-1
	c-1.4-2.2-4.6-3.3-6.9-1.8c-2.3,1.5-3.1,4.4-1.8,6.8c3.2,5.3,8.5,8,13.5,11l1.6,1l1.2,0.6c0,0.1,0.1,0.2,0.2,0.3l0.7,0.6
	c0.4,0.4,0.8,0.8,1.2,1.2l0.2,0.3l0.4,0.8c0.3,0.5,0.6,1,0.9,1.5c0,0.2,0.1,0.5,0.2,0.7c0.1,0.2,0.1,0.5,0.2,0.8v0.3
	c-0.1,0.2-0.1,0.3-0.1,0.5c0-0.2,0.1-0.3,0.1-0.4v0.2h0.1c-0.1,0-0.1,0.1-0.1,0.2v0.2c0,0.3-0.1,0.3-0.1,0.3v0.2
	c-0.1,0.1-0.2,0.2-0.2,0.3c-0.1,0-0.1,0-0.1,0.1l-1.5,1.3c-3,2.4-5,6.2-3.6,10.1c1.4,3.9,4.2,5.8,7.2,8l3.2,2.1l0.5,0.4l0.2,0.2
	c0.6,0.5,1.1,1,1.6,1.6l0.4,0.5l0.3,0.4c0,0.2,0.1,0.4,0.2,0.6v1.1c0,0.1,0,0.2-0.1,0.3c0,0.2-0.1,0.3-0.1,0.5c0,0.1,0,0.1-0.1,0.1
	h-0.2c-1.9-0.3-3.9,1.4-4.6,3c-0.8,1.9-0.3,4.1,1.1,5.5c1.7,1.9,3.4,3.8,5,5.8c0.4,0.4,0.8,0.9,1.1,1.4c0.2,0.1,0.3,0.3,0.4,0.5
	l0.2,0.2c0.9,1.1,1.7,2.2,2.4,3.3c1.5,2.1,2.8,4.2,4.1,6.3c-4.7,2.5-5.9,8.2-4.4,13c0.7,2.1,1.7,4.1,3,5.9l1.9,2.9l0.6,1.3
	c0,0.1,0,0.1,0.1,0.1c0,0.3,0.1,0.6,0.2,0.9v0.2c0,0.1-0.1,0.2-0.1,0.4h-0.2l-0.5,0.3l-0.7,0.2l-1.4,0.3h-2.6c-4,0.1-6,4.1-4.4,7.5
	c0.6,1.1,1.1,2.2,1.6,3.3c0,0.1,0.1,0.1,0.1,0.2l0.1,0.2v0.1l0.2,0.5l0.6,1.7c0.8,2.2,1.5,4.4,2.1,6.7c0.6,2.3,1.1,4.6,1.5,6.9
	l0.3,1.5h-4.4c-2.7,0.1-4.9,2.3-5,5c0,1.5-0.1,3-0.2,4.5s-0.1,1.5-0.1,2.2s-0.1,0.9-0.2,1.4c0,0.1,0,0.1,0,0.2
	c-0.2,1.4-0.5,2.7-0.9,4.1c-0.2,0.8-0.4,1.5-0.7,2.2c0,0.1,0,0.1-0.1,0.2v0.2c-0.2,0.2-0.3,0.5-0.4,0.8c-0.3,0.6-0.6,1.1-1,1.6
	l-0.5,0.7c-0.8,0.9-1.6,1.7-2.5,2.5l-0.8,0.4l-0.8,0.5h-0.2l-0.6,0.2l-0.8,0.3h-1c-2.8,0-5,2.2-5,5c0.1,2.5,2.2,5.1,5,5
	c7.1-0.5,13-4.9,16.5-11s3.7-10.9,4.1-16.6h5c2.6-0.1,5.2-2.3,5-5c-0.5-8.4-2.3-16.7-5.4-24.5c5.9-1.4,9.5-7.2,8.2-13.1
	C817.1,485.2,816.9,484.7,816.7,484.2z M811.1,472.6c0,0.1,0,0.1,0,0.2c0,0,0,0-0.1,0C811.1,472.7,811.1,472.7,811.1,472.6z
	 M792.5,420.6C792.4,421.3,792.4,420.9,792.5,420.6L792.5,420.6z M806.7,465.6c0.1,0.2,0.2,0.3,0.2,0.4L806.7,465.6z M807.9,463.6
	C808.3,463.2,808.2,463.4,807.9,463.6L807.9,463.6z"/>
</svg>
