<?xml version="1.0" encoding="utf-8"?>
<!-- Generator: Adobe Illustrator 24.2.3, SVG Export Plug-In . SVG Version: 6.00 Build 0)  -->
<svg version="1.1" id="a06d2a35-011f-47df-9f9b-0f2af907d96c"
	 xmlns="http://www.w3.org/2000/svg" xmlns:xlink="http://www.w3.org/1999/xlink" x="0px" y="0px" viewBox="0 0 1152 864"
	 style="enable-background:new 0 0 1152 864;" xml:space="preserve">
<path d="M982.3,475.6c-0.4-13.9,0.1-28-1-41.8c-1.9-22.8-9.4-44.5-20-64.7c-23.1-44.2-58.4-80.7-89.7-119.1
	c-7.7-9.6-15.3-19.2-22.5-29.2s-13.5-21-21.4-30.6c-7.9-9.6-19.1-16.2-32.3-18.9c-6.7-1.4-13.8-2.2-19.9-5.3
	c-6.1-3.1-11.1-8.2-16.3-12.7c-11.4-9.7-23.5-18.7-36-26.9c-12.9-8.5-26-16.8-40-23.4c-27.9-13.2-57.9-20.6-88.5-24.4
	c-7.7-0.9-15.5-1.8-23.3-2.3s-15.4,0.4-23,1.1c-15.6,1.3-31,3.7-46.3,7.1c-29.5,6.7-57.7,18.5-83.2,34.9
	c-12.7,8.1-25.1,16.5-36.9,25.8s-20.5,20.2-34.6,23.7c-6.5,1.6-13.2,2.4-19.5,4.4c-6.2,1.9-12,5-16.9,9.2
	c-9.8,8.3-16.3,19.9-23.3,30.5c-29.1,45-64.2,85.7-93.1,130.9c-10.2,15.7-19.3,32-27.2,49c-0.3,0.4-0.5,0.8-0.6,1.3
	c-2.9,6.4-5.7,13-8.1,19.6c-9.8,26.2-15.2,53.9-15.7,81.9c-1.1,56.7,17.2,112.7,49.9,158.9c15.4,21.8,33.7,41.5,54.4,58.4
	c19.1,15.7,45.1,37.5,71.8,28.7c13.1-4.3,20-15.3,23.9-27.9c4.4-14.6,7.6-29.6,11-44.4c3.4-14.8,6.9-30.3,11.1-45.2
	s9.3-28.7,14.8-42.8s11-28.3,13.8-43.2c2.7-14.8,3.4-30,1.9-45c-2.7-30.7-12.3-60.2-22.6-89.1c-1.6-4.3-3.1-8.6-4.7-13
	c-6-31.8-13-63.9-9.6-96.4c2.8-27.4,13-53.5,32.7-73.1c10-9.9,21.4-20,24-34.5c0.4-2.5-0.7-5.6-3.5-6.1
	c-26.5-5.5-51.1,10.4-64.2,32.7c-14.4,24.4-17.6,54.4-15,82.2c3.2,33.9,14.4,65.6,25.8,97.4c0.1,0.1,0.1,0.3,0.1,0.5
	c0.2,0.7,0.4,1.3,0.8,1.9c8.8,24.4,17.5,48.7,22.7,74.1c3.1,14.6,4.6,29.6,4.2,44.5c-0.4,15.1-3.5,29.6-8.3,43.9
	s-10.9,27.8-15.8,41.9c-4.9,14.1-9,29.1-12.6,44c-3.6,14.9-6.8,29.8-10.4,44.6c-1.7,7.1-3.4,14.2-5.5,21.1
	c-2.1,6.9-4.2,12.7-8.9,17.3c-9.6,9.2-24.7,7.4-35.8,2.4s-23.3-14.3-33.6-22.7c-41.3-33.6-73.9-78.3-90.2-129.2
	c-15.7-48.3-16.1-100.4-1-148.9c0,8.4,0.4,16.8,1.3,25.2c2.1,19.7,6.3,39.2,12.3,58.1c6,18.4,13.2,36.4,21.7,53.8
	c8.2,16.8,17.2,33.3,27,49.2s20.2,30,33.4,42.3l5,4.5c2,1.6,5.2,2.1,7.1,0c1.9-2.1,2.1-5.3,0-7.1c-6.7-5.7-12.9-12-18.5-18.7l-4-5
	l-0.5-0.7l-1-1.3l-2.1-2.9c-2.5-3.5-5-7.1-7.4-10.8c-9.9-15.5-18.9-31.5-27-47.9c-4.2-8.3-8.2-16.8-11.8-25.4
	c-0.3-0.5-0.5-1-0.7-1.5c-0.2-0.3-0.3-0.7-0.4-1.1c-0.5-1.1-1-2.2-1.4-3.3c-0.4-1.1-1.8-4.3-2.6-6.5c-1.7-4.4-3.3-8.9-4.9-13.4
	c-6.2-18.1-10.7-36.8-13.4-55.7c-0.1-0.2-0.1-0.5-0.1-0.7c-0.1-0.6-0.2-1.1-0.2-1.7c-0.2-1.3-0.3-2.5-0.5-3.7
	c-0.2-1.2-0.5-5-0.7-7.5c-0.3-4.7-0.6-9.5-0.6-14.3c-0.2-9.7,0.2-19.4,1.4-29c0-0.6,0.1-1.1,0.2-1.7c0-0.3,0-0.7,0.1-1v-0.6
	c0-0.4,0.1-0.7,0.1-1l0.3-2c19.4-42.4,48.3-80.1,76-117.3c15.8-21.1,31.5-42.2,45.8-64.4c6.6-10.3,13.2-21.9,23.9-28.6
	c10.7-6.7,26-5.9,38.1-11.8c6.1-2.9,11.2-7.6,16.2-12.1s11.2-9.5,17-13.9c11.9-8.9,24.3-17.1,36.9-24.9c25.6-15.8,54-26.1,83.5-31.8
	c15.3-2.8,30.8-4.8,46.4-5.8c15.2-1,31.2,1.5,46.2,3.9c30.2,4.8,59.7,13.8,86.4,28.9c13,7.5,25.6,15.6,37.8,24.4
	c6.2,4.4,12.2,9,18.1,13.9c5.9,4.9,10,9.1,15.5,13.1c11.4,8.6,24.9,8.3,37.9,12.7c13,4.4,19.5,14.6,26.2,24.7
	c27.6,41.3,61.7,77.3,91.9,116.7c14.3,18.7,27.8,38.3,37.6,59.9c2.5,5.4,4.7,10.9,6.6,16.5c-2.9,17.1-6.5,34.1-10.6,51
	c-4.2,17-9.4,33.7-15.5,50.1c-1.5,4.1-3.1,8.1-4.7,12.1l-0.7,1.5c0,0.2-0.1,0.4-0.2,0.6v0.2c-0.5,1-0.9,2.1-1.4,3.1l-2.7,6
	c-3.7,8.1-7.7,16-11.9,23.9s-8.6,16-12.5,24.2c-2.1,4.3-4.1,8.7-5.9,13.1c-0.8,1.9-1.5,3.8-2.2,5.6s-0.8,1.9-1.1,2.8l-0.6,1.4
	l-0.3,0.6c0.1,0-0.2,0.5-0.2,0.7l-0.2,0.3c0,0.2-0.1,0.4-0.2,0.6l-0.6,1.3c-0.5,1-0.9,2-1.4,2.9s-1.9,3.7-2.9,5.4l-1.5,2.3l-0.9,1.3
	l-0.2,0.2l-0.5,0.6c-1.1,1.4-2.3,2.7-3.6,3.9l-1,0.8c-0.4,0.3-1,1-0.4,0.3c-0.7,0.6-1.5,1.2-2.3,1.6l-2.3,1.3l-1.2,0.6l-0.4,0.2H874
	c-1.6,0.5-3.3,0.9-5,1.1h-4.3c-0.1,0-0.1,0-0.1-0.1l-1.3-0.2c-0.9-0.2-1.8-0.5-2.6-0.9c-2.4-0.9-5.6,1.1-6.2,3.5s0.9,5.1,3.5,6.2
	c7.8,3.1,16.6,1.4,23.7-2.6s13-10.7,17-18c2.1-3.9,3.9-8.1,5.6-12.2c0.8-2,1.5-3.9,2.3-5.8s0.7-1.9,1.1-2.8l0.6-1.4l0.3-0.7v-0.2
	c3.6-8.6,7.9-16.9,12.3-25.1s8.7-16.3,12.7-24.6s7.7-16.6,11.1-25.2c6.6-16.6,12.1-33.5,16.7-50.7c3.3-12.3,6.2-24.8,8.6-37.4
	c1.2,8.6,1.7,17.3,1.7,26c0.3,29.1,2.2,58.3,0.1,87.3c-1,14.7-3.5,29.2-7.5,43.4c-3.8,13-9.4,25.4-15.7,37.4
	c-12.4,23.2-28,44.6-46.2,63.5c-9.2,9.5-18.9,18.3-29.2,26.5c-10.4,8.3-21.8,17.3-34.4,22s-26.4,4.3-34.6-6.2
	c-4-5.2-5.9-11.8-7.6-18c-2-7.2-3.3-14.6-3.9-22.1c-2.6-28.5,2-59-9.6-86c-4.4-10.2-12-18.9-18.7-27.6s-14.2-17.4-16.1-28
	c-1.2-6.7-0.7-14.2-0.6-21s0.4-14.3,0.9-21.5c1.1-13.7,3-27.3,5.7-40.8c4.6-21.9,10.6-43.5,18-64.7l0.3-0.9
	c1.1-3.4,2.3-6.8,3.5-10.1c9-25.7,19.9-51,25-77.9c2.5-12.5,3.7-25.4,2.1-38.2c-0.6-6.1-2-12.1-4-17.9c-2.2-6.4-5.5-12.1-8.5-18.1
	c-5.4-10.5-9.3-21.9-16.8-31.2c-3.9-4.7-8.6-8.7-13.8-11.9c-5.2-3.3-11.7-6.6-17.9-7.3c-10-1-18.7,7.7-18.4,17.7
	c0.2,5.9,3.7,10,7.7,14.1c4,4.1,10.5,10.1,15.3,15.7c17,19.9,24.7,46.6,26.4,72.3c1.9,30.3-4.6,60.2-10.2,89.8
	c-0.1,0.3-0.1,0.7-0.1,1c-3.2,9.4-6.3,18.9-9.1,28.5c-7.6,26.3-13.1,53.3-15.1,80.6c-0.6,7.4-0.9,14.9-0.9,22.3s-0.4,14.3,0.8,21.3
	c1.8,10.8,8.9,20.4,15.4,28.9s14.9,17.8,19.7,28.1c6.1,13,7.2,28.5,7.7,42.7s0.1,29.3,1.7,43.8s4.1,29,11.8,40.4
	s20.1,15.8,32.9,14.8s26.4-8.4,37.7-16.3c21.7-15.3,41.2-33.3,58.3-53.6c17.2-20.5,31.4-43.3,42.2-67.7c11.8-27,16-56.1,16.7-85.5
	C983.1,505.5,982.7,490.5,982.3,475.6z M350.9,229.5c8.9-21.4,28.8-41.6,53.3-39.6c-3.9,10.3-13,17.8-20.7,25.5
	c-9.7,9.7-17.6,21.2-23.1,33.8c-11.3,25.4-14,53.4-11.9,80.9C340.1,296.5,337.4,262,350.9,229.5z M757.2,226
	c-4.5-5.5-9.3-10.6-14.4-15.5c-3.4-3.3-9.8-7.6-8.9-13.1c2-12.8,20-1.1,25,2.7c9.8,7.5,14.4,18.2,19.4,29c2.8,6.2,6.3,12.1,9.2,18.2
	c2.5,5.8,4.4,11.9,5.4,18.2c4.1,24.4-3,49.5-10.9,72.6c1.5-12.6,1.9-25.4,1.1-38.1C781.2,273.7,773.5,247.1,757.2,226z"/>
</svg>
