<?xml version="1.0" encoding="utf-8"?>
<!-- Generator: Adobe Illustrator 24.2.3, SVG Export Plug-In . SVG Version: 6.00 Build 0)  -->
<svg version="1.1" id="f35022f4-5c40-4280-946a-8f71b2eca5e6"
	 xmlns="http://www.w3.org/2000/svg" xmlns:xlink="http://www.w3.org/1999/xlink" x="0px" y="0px" viewBox="0 0 1152 864"
	 style="enable-background:new 0 0 1152 864;" xml:space="preserve">
<path d="M846,603.9c-1.7-7.8-4.3-15.4-7.9-22.5c-3.5-7-8.1-13.2-12.8-19.5c-2.3-3.1-4.5-6.3-6.5-9.7l-1.2-2.6l-0.3-0.6l-0.6-1.4
	c-0.6-2-1.1-4-1.5-6c-0.1-0.4-0.1-0.8-0.2-1.2s-0.1-0.8-0.1-1.1l-0.3-3.1c-0.2-2.2-0.3-4.4-0.5-6.6c-0.2-4.5-1.1-8.9-2.5-13.2
	c-2.9-8.1-8.5-14.6-13.9-21.2c-1.4-1.5-2.6-3.1-3.9-4.7l-1-1.2l-0.3-0.5c-0.1,0-0.1,0-0.1-0.1c0-0.1-1.3-1.6-1.9-2.5
	c-2.5-3.4-4.9-6.9-7.1-10.5c-2.2-3.6-4.2-7.3-6-11.1c-0.4-0.8-0.8-1.7-1.1-2.6c-0.1-0.1-0.2-0.3-0.2-0.5H776
	c-0.2-0.6-0.5-1.2-0.7-1.7s-1.5-4.1-2.1-6.1c-1.3-4.2-2.2-8.4-2.9-12.7c0-0.3-0.1-0.5-0.1-0.8s-0.1-1-0.1-1.6c0-0.6-0.2-2.3-0.3-3.4
	c-0.1-1.1-0.1-4.3,0-6.4c0.1-2.1,0.1-2,0.2-3s0.1-1,0.2-1.6v-0.3c0.1-0.2,0.1-0.4,0.1-0.6c0.4-2.6-0.6-5.5-3.5-6.2s-5.7,0.8-6.1,3.5
	c-2.8,18.2,1.5,36.3,9.8,52.6c3.8,7.4,8.4,14.4,13.5,21c2.7,3.5,5.5,6.9,8.3,10.3l1.8,2.1l0.9,1.1l0.5,0.7c1.3,1.6,2.4,3.2,3.5,4.9
	c1,1.6,1.8,3.2,2.6,4.9c0.1,0.3,0.2,0.5,0.3,0.8l0.5,1.4c0.3,1,0.6,2.1,0.8,3.1l0.6,3.1c0,0.2,0,0.5,0.1,0.5s0.1,1.2,0.1,1.8
	c0.2,2.1,0.4,4.3,0.5,6.4c0.2,4.6,0.9,9.1,2.1,13.5c1.3,4,3,7.8,5.3,11.3c4.2,6.7,9.5,12.6,13.7,19.3c2,3.2,3.7,6.6,5.3,10
	c0.2,0.4,0.3,0.9,0.5,1.3l0.3,0.5c0.3,1,0.7,1.9,1.1,2.9s1.2,3.5,1.7,5.4c1.1,3.7,2,7.4,2.6,11.2c0.1,0.4,0.1,0.9,0.2,1.3
	c0,0.2,0,0.3,0.1,0.5l0.3,3c0.2,1.9,0.3,3.7,0.3,5.6c0.1,0.6,0.1,1.1,0.1,1.7c-1.1-5.6-2.5-11.2-4.2-16.7
	c-2.4-6.5-5.9-12.5-10.4-17.7c-1.9-2.4-4-4.8-6.1-7.1l-2.9-3.4l-1.5-1.7l-0.6-0.9l-0.3-0.3c0-0.1,0-0.1-0.1-0.1
	c-2.1-2.8-3.9-5.8-5.5-8.9c-0.2-0.3-0.3-0.5-0.4-0.8l-0.3-0.6l-0.8-2.4c-0.2-0.7-0.4-1.5-0.6-2.4c0-0.4-0.1-0.7-0.2-1
	c0-0.3,0-0.8,0-0.9c-0.2-2.6-2.2-5.1-5-5s-5.1,2.1-5,4.9c-1.5-3.1-3.1-6-5-8.9c-1.5-2.2-4.5-3.3-6.9-1.8s-3.3,4.5-1.7,6.9
	s2.4,3.8,3.5,5.8l1.5,3.1l0.6,1.4c0.2,0.3,0.3,0.7,0.4,1c1.7,4.3,2.9,8.7,3.7,13.2l0.3,1.7v0.4c0.2,1.2,0.3,2.5,0.3,3.7
	c0.2,2.3,0.2,4.5,0.1,6.8c-0.1,1.1-0.1,2.1-0.2,3.2c-0.1,0.5-0.2,0.9-0.2,1.4v0.3c-0.1,0.3-0.1,0.6-0.2,0.9
	c-0.3,2.1-0.8,4.2-1.3,6.3s-1.2,4.2-2,6.3l-0.6,1.6v0.3h-0.1c0-0.2,0.1-0.3-0.1,0.1h0.1l-0.1,0.1c0,0,0,0,0,0.1l-1.4,3
	c-1,2-2.1,3.9-3.3,5.8l-1.8,2.6l-0.9,1.4l-0.4,0.4c0,0.1-0.1,0.2-0.2,0.4c-5.9,7.3-13.5,13.1-20,19.8c-3,3.1-5.8,6.3-8.3,9.8
	l0.3-2.6c0-0.2,0.1-0.5,0.1-0.7l0.3-1.6c0.8-3.7,1.9-7.4,3.3-10.9c0.1-0.2,0.2-0.3,0.2-0.5l0.6-1.3l1.2-2.7c0.9-1.9,1.7-3.7,2.5-5.6
	c5.9-14,8.2-29.3,6.7-44.4c-0.9-8.6-2.9-17-6.2-25c-1-2.4-3.4-4.4-6.1-3.5s-4.6,3.5-3.5,6.1c1.4,3.4,2.5,6.9,3.5,10.4
	c0.5,1.8,0.8,3.6,1.1,5.4c0.2,0.9,0.4,1.9,0.5,2.8l0.3,1.3v0.6c0.9,7.2,1,14.5,0.1,21.7c0,0.2,0,0.3-0.1,0.4c0,0.4-0.1,0.9-0.2,1.3
	c-0.1,0.9-0.3,1.9-0.5,2.8c-0.3,1.8-0.7,3.6-1.2,5.4c-0.9,3.6-2.1,7.1-3.5,10.5c0,0.1-0.1,0.2-0.1,0.3c-0.1,0.1-0.1,0.2-0.1,0.3
	l-0.6,1.2l-1.2,2.7l-2.4,5.3c-1.7,3.8-2.9,7.7-3.8,11.7c-1.9,9.1-1.9,18.5,0.1,27.6c0.6,2.2,2.5,3.7,4.8,3.7
	c2.2-0.1,4.2-1.5,4.9-3.6l0.9-2.7c0.2-0.3,0.4-0.7,0.5-1c0.2-0.6,0.5-1.2,0.8-1.7c1-1.9,2.1-3.8,3.3-5.6c0.6-1,1.2-1.9,1.9-2.7
	l0.5-0.8l1.1-1.3c1.3-1.6,2.6-3.1,4-4.6c0,1.2,0,2.4-0.1,3.5c-0.2,4-0.7,7.9-0.6,11.8c0.1,7.3,1.4,14.5,3.8,21.3l-1.8-1.2
	c-2.6-1.7-5.4-3.2-8.3-4.4c-3-1.1-6.1-2-9.3-2.5c-3.1-0.6-6.1-1-9.1-1.8c-1.4-0.3-2.7-0.8-4-1.3h-0.2l-1-0.5l-1.9-1
	c-1.1-0.6-2.1-1.3-3.1-2h-0.2l-0.7-0.5l-1.7-1.5c-0.9-1-1.8-1.9-2.6-2.9l-0.6-0.7l-1.3-1.8c-0.8-1.2-1.5-2.5-2.1-3.9h-0.1
	c-0.1-0.4-0.2-0.7-0.4-1l-0.6-2.1c-0.2-0.7-0.4-1.4-0.5-2.1c0-0.2-0.1-0.4-0.1-0.5c0,0.2,0,0.1-0.1-0.3v-0.3v-0.1
	c-0.1-1.2-0.1-2.3-0.1-3.5c1.6-5.3,3.8-10.4,5.5-15.5c2.3-6.8,4.2-13.7,5.9-20.7s3.3-16.5,4.4-24.8c0.3-2.6-2.6-5.1-5-5
	s-4.7,2.2-5,5c-0.1,0.3-0.1,0.7-0.2,1s-0.1,0.9-0.1,0.9s-0.3,1.9-0.4,2.8l-0.9,5.6c-0.7,3.6-1.4,7.2-2.2,10.7
	c-1.6,7-3.6,14-5.8,20.9s-5.2,13.3-6.8,20.2c-1.7,7.5-1.7,15.2,0.1,22.7c0.9,3.9,2.2,7.7,3.7,11.4l-4-1.6l-0.9-0.3
	c0-0.1,0-0.1-0.1-0.1l-1.7-0.7l-3.6-1.7c-2.1-1-4.2-2.1-6.1-3.4l-1.4-1l-0.6-0.5c-1-0.8-1.9-1.7-2.7-2.6c-0.2-0.2-0.3-0.4-0.5-0.5
	l-0.9-1.3l-0.7-1.4l-0.4-0.7l-0.9-3v-0.5c-0.1-0.6-0.1-1.2,0-1.8v-0.2c0-0.2,0.1-0.3,0.1-0.4s0.3-1.1,0.4-1.6l0.2-0.4
	c0-0.1,0.2-0.5,0.2-0.6l0.9-1.7c1.4-2.7,3.1-5.4,3.7-8.4c0.7-3.4,0.3-7-1.2-10.2c-7.4-21.5-0.9-44.1,10.5-63.1
	c6.1-9.8,13.4-18.8,21.7-26.9c7.9-8,16.3-16.2,20.9-26.7s4.6-23,2.4-34.8s-6.1-22.5-6.6-34.1c-0.5-11.6,3.3-22.4,9.2-32.6
	s12.9-20,17.5-31.2c18.3-44.8,2.7-94-20.3-133.9c-5.5-9.6-11.3-19-16-29c-2.2-4.8-4-9.8-5.4-14.9c-1.5-5.4-2.3-11-3.6-16.4
	c-5.4-23.2-19.5-43.2-33.8-61.9c-6.5-8.7-13.8-16.7-21.8-24c-8.4-7.4-17.8-13.5-27.9-18.2c-11.3-5.4-23-9.6-35.5-11.2
	c-6.2-0.8-12.2-0.5-18.5-0.8s-12.5-0.2-18.8,0.3c-24,2.4-46.9,11.8-65.7,26.9c-17.2,14.1-30.3,33.1-42.3,51.6
	c-6.5,10.2-12,20.6-15.1,32.2c-3.1,11.6-4.3,21.9-8.6,32.4c-4.3,10.5-10,19.5-15.5,29c-5.8,9.6-10.9,19.6-15.4,29.9
	c-9.5,21.9-16,45.6-15.1,69.6c0.3,9,1.8,17.9,4.2,26.6c0,0.3,0.1,1,0.1,1.2c0.1,0.7,0.1,1.3,0.1,2c0,1.3,0,2.6-0.1,3.9
	c-0.1,1.3-0.1,1.1-0.2,1.7c-0.1,0.3-0.1,0.6-0.1,0.9l-0.9,4.1c-1.4,5.1-3.1,10-5.1,14.9c-1.9,4.7-4.1,9.3-5.6,14.1
	c-1.5,4.8-2.5,9-3.7,13.5c-0.6,2.2-1.3,4.4-2,6.6l-1.2,3.2c0,0.1-0.1,0.2-0.1,0.3s-0.1,0.1-0.1,0.3l-0.8,1.7l-1.6,2.9l-0.9,1.4
	c-0.2,0.5-0.5,1-0.9,1.4c0,0,0,0.1-0.1,0.1l-0.4,0.5l-0.8,0.8l-0.9,0.9h-0.1l-0.3,0.2h-0.2c-6.3,4.5-14.6,7.1-18.7,14
	c-2.7,4.6-3.2,10.5-3.7,15.6c-0.2,2.7-0.3,5.5-0.6,8.2c-0.1,0.6-0.1,1.2-0.2,1.8c0,0.2,0,0.5-0.1,0.7v0.4c-0.2,1.4-0.5,2.8-0.9,4.2
	c-0.1,0.5-0.3,1-0.4,1.5c-0.1,0.3-0.3,0.5-0.5,0.8c0,0.1-0.1,0.1-0.1,0.2l-1.4,1.2l0.4-0.2l-0.4,0.3h-0.1l-1.1,0.7l-2,1l-1,0.5
	l-0.4,0.2l-4.8,1.8c-3.5,1.2-6.8,2.7-9.9,4.6c-3.3,2.3-5.9,5.5-7.7,9.1c-4.3,7.9-6.2,16.7-7,25.5c-0.7,9.2-0.3,18.5,1.1,27.6
	c1.3,8.7,3.1,17.3,5.6,25.8c0.5,1.9,1.1,3.8,1.7,5.7c0.6,2.2,2.5,3.7,4.8,3.7c2.2,0,4.2-1.5,4.8-3.7l5.2-22.5
	c2.4,4.1,5.2,8.1,7.7,12.2l2.1,3.9c0.2,0.7,0.5,1.3,0.9,1.9v0.2c0.2,0.4,0.4,0.7,0.5,1.1c0.5,1.4,0.8,2.9,1.1,4.4
	c0.1,0.7,0.2,1.4,0.4,2.1v0.2c0.1,0.5,0.1,0.9,0.1,1.4c0.3,3.2,0.2,6.5-0.2,9.7c0,0.2,0,0.4-0.1,0.6c0,0.1-0.1,0.7-0.1,0.9
	s-0.3,1.7-0.4,2.6c-0.1,0.9-0.7,3.4-1.2,5c-0.8,3.4-1.8,6.7-3,10l-1.8,4.8l-0.9,2.3c0,0.1,0,0.1-0.1,0.1v0.2l-0.6,1.3
	c-1.3,3-2.7,6-4.3,8.9s-3.7,6.5-5.4,9.7s-1.8,3.6-2.6,5.4c-0.8,1.8-2,5.4-0.5,8.2s7.9,4.3,11.8,4.6c7.5,0.4,15-1.5,21.5-5.4
	c1.7-1.1,3.3-2.4,5-3.7l0.5-0.4h0.2c0.1-0.2,0.6-0.5,0.7-0.6l2.4-1.6l1.3-0.7l0.6-0.3c0.1,0,0.1,0,0.1-0.1h0.3l0.6-0.2l1.4-0.5
	l5.2-1.4c3.8-1.2,7.4-3,10.6-5.4c0,2.9-0.1,5.8-0.4,8.7c0,0.4,0,0.8-0.1,1.2c0,0.2-0.1,0.6-0.1,0.7c-0.1,0.8-0.2,1.7-0.4,2.5
	c-0.3,1.7-0.7,3.4-1.2,5.1c-0.3,1.1-0.7,2.1-1,3.1c-0.2,0.4-0.4,0.9-0.5,1.4h-0.1c-0.1,0.1-0.2,0.3-0.2,0.4c-0.8,1.9-1.8,3.8-3,5.5
	c-0.9,1.8-0.8,4,0.4,5.6c1.3,1.6,3.3,2.3,5.3,1.8c3.7-0.9,7-2.9,9.5-5.7c1.1-1.1,2.1-2.3,3.1-3.4l3.1-3.2l0.3-0.2l1-0.6l1-0.5h0.3
	l0.8-0.2h4.2l1.1,0.2h0.5l5,0.9c3.5,0.7,7,1.2,10.6,1.3c3.4,0,6.8-1,9.8-2.7c1.9-1.1,3.8-2.5,5.4-4l-0.9,2c-0.8,1.7-1.8,3.5-2.7,5.2
	c-2,3.7,1.3,8.7,5.6,7.3c5.3-1.6,10.6-3.4,15.7-5.6c5-1.9,9.8-4.3,14.4-7.1c4.3-2.9,8.3-6.7,10.6-11.5s3.1-10.8,1-16.2
	c-1.1-2.8-2.4-5.5-3.9-8.1c0-0.1-0.1-0.1-0.1-0.2s-0.3-0.7-0.4-1.1c-0.1-0.4-0.1-0.4-0.1-0.7c2.1-0.2,3.8-1.6,4.4-3.6
	c7-18.4,4.6-38.1-2.5-55.9c2.8-4.3,3.3-9.7,2.7-14.8c-0.3-3.2-0.9-6.3-1.5-9.4c-0.3-1.5-0.5-3.1-0.8-4.6v-0.2c0-0.4-0.1-0.8-0.1-1.3
	c-0.1-0.8-0.2-1.6-0.2-2.4c0-0.8,0-1.5,0.1-2.3v-1h0.1c0.2-0.7,0.3-1.5,0.5-2.1c0.1-0.3,0.2-0.7,0.4-1c-0.7,1.1,0.2-0.4,0.3-0.6
	l0.6-1v-0.2l1.5-1.7l3.5-3.6c3.4-4.4,6-9.4,7.4-14.8c1.6-5.4,2.4-11.1,2.2-16.7c-0.2-5.3-1.3-10.9-4.1-15.5
	c-2.8-4.6-7.7-8.5-12.6-11.6l-6.7-4.1c-1.1-0.6-2.1-1.3-3.1-2.1l-0.9-0.6l-0.5-0.4l-1.1-0.9c-1-1-2-2-2.9-3l-0.8-1.2l-1.5-2.2
	c-0.9-1.5-1.7-3-2.5-4.6l-1.2-2.4c0-0.1-0.1-0.3-0.1-0.4c-0.2-0.4-0.4-0.9-0.5-1.4c-0.6-1.7-1.1-3.4-1.5-5.1
	c-0.1-0.4-0.2-0.8-0.2-1.2c-0.1-0.2-0.1-0.3-0.1-0.5c-0.1-0.9-0.2-1.7-0.2-2.6c7.4,6.4,17.1,9.7,26.9,11.4c1.9,0.5,4-0.2,5.2-1.8
	c1.3-1.6,1.5-3.8,0.4-5.5c-4.1-5.8-8.5-11.4-12.4-17.3c-2-2.9-3.8-6-5.4-9.1l-1.1-2.4h-0.1c-0.2-0.4-0.3-0.9-0.5-1.3
	c-0.6-1.6-1.1-3.2-1.5-4.8c-0.2-0.8-0.4-1.6-0.5-2.4c0-0.2-0.1-0.3-0.1-0.5s-0.1-0.9-0.1-1.1c-0.2-1.7-0.2-3.3-0.1-5
	c0.1-0.8,0.1-1.6,0.2-2.3c0.1-0.7,0.1-0.7,0.2-1.1c-0.1,0,0-0.1,0-0.2v-0.3c0-0.2,0.1-0.4,0.1-0.6c0.2-1.4,0.5-2.7,0.8-4.1
	c0.3-1.6,0.8-3.2,1.3-4.7c0.1-0.4,0.2-0.8,0.4-1.1c0-0.1,0.1-0.3,0.1-0.4c0-0.1,0.7-1.4,1-2c0.4-0.7,0.8-1.4,1.3-2
	c0-0.1,0.1-0.1,0.1-0.2l0.7-0.8c1.4-1.3,2.7-2.7,3.9-4.2c4.5-5.5,7.9-11.7,8.3-18.9c0.4-7.2-1.9-12.2-5.1-17.3s-9-11.4-14.2-16.3
	l-4.5-4.1l-1.9-1.7c-0.4-0.5-0.8-1-1.2-1.4l-0.6-0.8l-0.9-1.7l-0.4-0.9c-0.2-0.6-0.4-1.3-0.5-1.9c-0.2-0.7-0.3-1.3-0.4-2
	c-0.1-0.1-0.1-0.2-0.1-0.3c0-0.3-0.1-0.6-0.1-0.8s-0.1-2.8-0.1-4.3s0.1-3,0.2-4.5c0.1-1.5,0.1-0.7,0.2-1.1V312
	c0.1-0.2,0.1-0.5,0.1-0.7c0.1-0.4,0.2-0.9,0.2-1.3c1.1-6.3,2.7-12.5,4.3-18.6c0.4-1.5,0.7-2.9,1.1-4.4c0.7-2.7-0.9-5.4-3.5-6.2
	c-2.6-0.8-5.4,0.9-6.2,3.5c-1.5,6.1-3.2,12.2-4.5,18.4c-1.3,6.2-2.3,12.9-1.8,19.4s2.5,12.7,7.2,17.3c2.8,2.7,5.8,5.2,8.6,7.9
	c2.6,2.5,5.1,5.2,7.4,8l0.7,0.9h0.1c0,0,0,0.1,0,0.1l1.5,2c0.8,1.3,1.6,2.5,2.3,3.8c0.2,0.7,0.5,1.3,0.8,1.9
	c0.2,0.4,0.3,0.8,0.4,1.2c0.2,0.6,0.4,1.2,0.5,1.8l0.3,1v0.2c0,1.2,0.2,2.4,0.1,3.7v0.5c-0.1,0-0.1,0.1-0.1,0.2v0.2
	c-0.1,0.7-0.3,1.3-0.5,2s-0.5,1.3-0.7,2l-0.6,1.2c-0.7,1.5-1.6,2.9-2.6,4.2l-0.3,0.5c-0.1,0-0.1,0-0.1,0.1l-0.3,0.3l-0.4,0.5
	c-0.6,0.8-1.3,1.5-1.9,2.2c-1.5,1.4-2.8,3-4.1,4.6c-1.9,2.9-3.4,6.1-4.3,9.4c-1,3.5-1.7,7.1-2.1,10.7c-0.5,3.2-0.5,6.5-0.2,9.8
	c1.4,12.1,7.8,22.4,14.9,32.1l-0.4-0.2h-0.2c0-0.1,0-0.1-0.1-0.1c-2.4-1-4.7-2.3-6.8-3.8l-0.8-0.5l-1.5-1.3c-1-0.9-1.9-1.8-2.7-2.8
	h-0.1l-0.5-0.7l-1-1.5c-0.7-1.1-1.3-2.3-1.8-3.5c-0.1-0.2-0.2-0.5-0.3-0.7c-0.1-0.1-0.1-0.1-0.1-0.2l-0.6-1.7
	c-0.4-1.3-0.8-2.6-1.1-3.9c-0.3-1.2-0.5-2.4-0.7-3.6v-0.2c-0.1-0.2-0.1-0.4-0.1-0.6c-0.1-0.8-0.2-1.6-0.2-2.4
	c-0.2-2.6-0.3-5.3-0.2-7.9c0.4-12.8,2.5-25.5,2.2-38.3c-0.2-6.1-0.2-18.8-9.4-18.1c-2.8,0.1-5.2,1.5-7.7,2.4l-2.1,0.6l-1.2,0.3h-3.1
	l-1.5-0.3c-2.6-0.7-5.4,0.9-6.1,3.5c-0.7,2.6,0.9,5.4,3.5,6.1c3.7,1,7.7,1,11.4,0c1.9-0.5,3.7-1.4,5.6-2.1c0.1,0.5,0.2,2.2,0.1,0.5
	c0.2,2.4,0.4,4.9,0.5,7.4c0.2,12.8-1.8,25.4-2.2,38.2c-0.3,9,0.8,18.6,4.9,26.7c-4.3,12.4,0.7,26.3,7.9,36.6
	c3.5,4.8,7.9,8.8,13,11.7l6.5,4l3.1,2l0.8,0.6l1.5,1.2c0.9,0.8,1.8,1.7,2.6,2.6c0,0.1,0.1,0.2,0.2,0.3l0.2,0.3
	c0.4,0.6,0.8,1.2,1.1,1.9c0.2,0.2,0.3,0.5,0.4,0.8l0.2,0.4l0.3,0.9c0.4,1.1,0.7,2.2,0.9,3.4c0.1,0.3,0.1,0.5,0.1,0.8
	c0,0.5,0.1,1.1,0.2,1.6c0.1,1.4,0.2,2.7,0.1,4.1c0,1.3-0.1,2.6-0.2,3.8c0,0.3,0,0.6-0.1,0.9v0.2c-0.2,0.7-0.3,1.4-0.4,2.1
	c-0.5,2.6-1.2,5.2-2.2,7.7c-0.1,0.2-0.1,0.4-0.2,0.6v0.3c-0.2,0.4-0.6,1.2-0.7,1.4c-0.2,0.4-1.1,2.1-1.7,3.2l-0.9,1.3l-0.5,0.6
	c-1.1,1.3-2.3,2.4-3.4,3.6c-2.6,2.6-4.5,5.9-5.5,9.5c-1.9,7.4,0.1,15,1.3,22.3c0.2,0.7,0.3,1.5,0.4,2.2v0.3c0,0.2,0.1,0.5,0.1,0.8
	c-5.1-8.7-11.1-16.8-17.9-24.1c-3.1-3.5-6.3-7.2-10.3-9.8c-3.3-2.1-6.7-3.9-10.3-5.5c-3.8-1.8-7.6-3.5-11.1-5.6s-5.3-3.5-6.6-5.9
	c-3.1-6.4-0.8-13.9,2.1-20.1c7.5-16,21.7-30.9,19.3-49.8c-1.4-11.4-6.5-22.8-11.9-32.8c-5.4-10-12.4-19.1-17.2-29.5
	c-2.1-4.5-3.8-9.2-5.1-14h-0.1c0-0.3-0.1-0.6-0.2-0.9c-4.5-16.5-4.6-34.2-1.4-51c4.3-22.7,13.8-44,25.3-63.9
	c5.4-9.4,11.1-18.7,15.7-28.6c2.3-5,4.3-10.1,5.9-15.4c1.5-5.3,2.3-10.7,3.5-16c1.2-5.6,2.9-11.1,4.9-16.5
	c2.2-5.2,4.8-10.2,7.8-14.9c6.1-10,12.9-19.8,19.9-29.2c6.3-8.4,13.4-16.1,21.2-23c8.2-7.1,17.4-12.9,27.3-17.2
	c11.1-5,22.9-8.1,35-9.3c6.1-0.5,12.1-0.5,18.2-0.1c6.1,0.2,12.1-0.2,18.1,0.7c12,1.8,23.3,6.2,34.1,11.7
	c9.4,4.7,18.1,10.8,25.8,18.1c7.5,7.3,14.4,15.2,20.4,23.8c7.1,9.7,13.7,19.7,19.8,30.1c5.7,10,8.6,20.7,10.8,31.8
	c2.1,10.7,5.7,21,10.6,30.7c4.9,9.7,10.8,18.9,16.1,28.4c5.6,10,10.4,20.3,14.5,31c8,21.4,12.6,44.7,9,67.6
	c-1.6,10.9-5.1,21.5-10.2,31.3c-5.4,10.2-12.6,19.4-17.5,30c-5.2,11-7,23.2-5.3,35.2c1.5,11.4,5.2,22.3,6.9,33.7s0.2,21.8-6.2,31.4
	s-14.9,16.4-22.2,24.6c-8,8.7-14.8,18.5-20.3,29c-0.2-0.6-0.3-1.1-0.4-1.7c0-0.1-0.1-1.2-0.1-0.3c0-0.2,0-0.4,0-0.4
	s-0.1-2.5-0.1-3.7s0.1-2.1,0.2-3.1c0.1-0.1,0.1-0.2,0.1-0.3c0.1-0.4,0.1-0.7,0.2-1.1l0.3-1.9c0.6-3.1,1.1-6.2,1.4-9.4
	c0.5-6.4-0.8-12.6-4.9-17.7l-2.7-2.9l-1.4-1.5l-0.6-0.6l-0.3-0.3c-0.6-1-1.2-2-1.7-3c-0.2-0.2-0.3-0.4-0.4-0.7l-0.6-1.9
	c-0.2-0.9-0.4-1.9-0.6-2.8c0-0.1-0.1-0.2-0.1-0.3v-0.2c0-0.3-0.1-0.6-0.1-0.9v-2c0-1.2,0.1-2.4,0.2-3.5c0-0.3,0.1-0.6,0.1-0.9
	s0.3-1.3,0.4-2s0.6-2.3,1-3.5l0.6-1.8c0.2-0.3,0.3-0.5,0.4-0.8c0-0.2,0.1-0.3,0.2-0.5c1.1-2.4,2.4-4.7,3.9-6.9l2.2-3.2l0.7-1
	l0.2-0.2l1.4-1.8l5.6-6.6c4-4.5,7.8-9.1,11.3-14c7-10.3,11.9-24.1,7.6-36.3c2.6-5.6,4.2-11.5,4.7-17.6c1-10.9-1-21.7-1.9-32.6
	c-0.3-3-0.4-6-0.4-9c0-1.3,0-2.7,0.1-4.1c0.1-1.4,0.1-1.4,0.2-2.2c0.1-0.8,0.1-0.6,0.1-0.9v-0.2c0.4-2.3,0.9-4.5,1.5-6.7
	s0.7-2.2,1.1-3.3l0.6-1.6c0.1-0.2,0.2-0.4,0.2-0.6c0.1,0,0.1-0.1,0.2-0.3c1.1-2.4,2.3-4.7,3.7-6.9c0.6-1,1.4-2.1,2.1-3.1l0.5-0.7
	c0.1-0.1,0.2-0.2,0.2-0.3l1.2-1.4c1.7-2,3.5-3.9,5.5-5.6l1.5-1.2l0.4-0.3l0.4-0.3l3.4-2.4c2.2-1.4,3.3-4.5,1.8-6.8
	c-1.4-2.4-4.4-3.2-6.8-1.8c-8.4,5.2-15.4,12.5-20.2,21.2c-5.1,9.2-7.8,19.5-7.7,30c0,11.3,2.5,22.5,2.6,33.8c0,2.4-0.1,4.9-0.3,7.3
	c-0.1,0.5-0.1,1.3-0.2,1.8c0,0,0-0.1,0-0.1c-0.1,0.2-0.1,0.5-0.1,0.7c-0.3,1.3-0.5,2.5-0.8,3.8l-0.9,3.1l-0.6,1.7
	c-0.1,0-0.1,0.1-0.1,0.2v0.2c-0.1,0.1-0.1,0.3-0.2,0.5c-0.8,2-1.9,3.8-3.2,5.5l-0.3,0.3l-0.7,0.9l-1.4,1.4l-1.4,1.3l-0.8,0.6
	l-0.2,0.2c-2.1,1.6-4.5,2.9-6.9,4l-0.7,0.3h0.3l-0.6,0.2l-0.7,0.2c4.3-6.7,8.2-13.7,10.6-21.4c1.9-5.9,2.6-12.1,2.1-18.2
	c-0.6-6.8-2.9-13.2-4.4-19.8c-0.1-0.8-0.3-1.5-0.4-2.3c-0.1-0.4-0.2-0.7-0.2-1.1c0-0.2-0.1-0.4-0.1-0.6s-0.3-3.1-0.4-4.7
	c-0.1-1.6,0-3,0.1-4.5s0.1-1.5,0.2-2.2s0.1-0.8,0.1-1.1c0-0.2,0-0.5,0.1-0.7c1-6.4,2.6-12.6,4.9-18.6c1.1-3,2.3-6.1,3.5-9.1l1.8-4.3
	v-0.2c0.1-0.4,0.3-0.7,0.5-1.1l1.4-3.3c2.5-5.8,4.7-11.7,6.6-17.7c2.1-6.9,3.3-13.9,3.7-21.1c0.2-7.4-1.2-14.8-4.1-21.7
	c-1-2.4-4.8-3.1-6.9-1.8c-2.1,1.3-2.8,4.2-1.7,6.8c-0.5-1,0.1,0.3,0.1,0.5l0.3,0.8c0.3,0.7,0.5,1.3,0.7,2c0.4,1.6,0.8,3.1,1.1,4.6
	s0.1,0.6,0.1,0.9v0.4c0,0.7,0.1,1.4,0.2,2.1c0.1,1.5,0.1,3,0.1,4.5s-0.1,2.8-0.2,4.1l-0.3,2.2v0.4c-0.1,0.5-0.1,0.9-0.2,1.3
	c-0.5,3-1.2,6-2,8.9c-1.7,6-3.7,11.9-6.2,17.6l-0.9,2.1l-0.2,0.5L697,338l-2.3,5.3c-1.2,3-2.5,6-3.6,9c-4.5,11.8-8,24.6-6.5,37.3
	c0.8,6.7,2.9,12.9,4.3,19.4c0.2,0.8,0.4,1.5,0.5,2.3c0.1,0.4,0.1,0.9,0.2,1.3c0.2,1.6,0.3,3.1,0.3,4.7c0,1.4-0.1,2.8-0.2,4.2
	c-0.1,0.2-0.1,0.4-0.1,0.6c-0.1,0.2-0.1,0.3-0.1,0.5c-0.1,0.7-0.3,1.4-0.4,2c-0.7,3.1-1.7,6.2-2.9,9.2v0.4c-0.1,0.4-0.3,0.8-0.5,1.2
	l-1.1,2.3c-0.7,1.5-1.5,2.9-2.3,4.4c-3.4,5.8-7.3,11.3-11.2,16.8c-1,1.7-0.8,3.9,0.4,5.5c1.3,1.6,3.3,2.3,5.3,1.8
	c9.6-1.7,19.3-4.8,26.8-11.3v1.5c-0.1,0.3-0.1,0.6-0.1,0.9c-0.1,0.1-0.1,0.1-0.1,0.2c-0.1,0.8-0.3,1.6-0.4,2.4s-0.7,2.5-1.1,3.8
	s-0.4,1.1-0.7,1.7c-0.1,0.3-0.2,0.5-0.3,0.8l-0.3,0.7c-1.2,2.5-2.5,5-4.1,7.3c-0.7,1.2-1.5,2.3-2.4,3.4l-0.5,0.7
	c-0.1,0.1-0.1,0.1-0.1,0.2l-0.2,0.2l-1.5,1.8c-1.8,2.3-3.7,4.5-5.7,6.7c-4,4.5-7.7,9.2-11.2,14.1c-6.3,9.4-10,20.7-8.1,32.1
	c1.1,5.6,3.8,10.7,7.8,14.7l2.7,2.8l0.5,0.6l0.2,0.4c0.2,0.3,0.4,0.6,0.5,0.9c0.1,0.1,0.2,0.3,0.3,0.4c0.5,1.1,0.8,2.3,0.9,3.5
	c0-0.2,0-0.3,0.1-0.4c-0.1,0.2-0.1,0.4-0.1,0.6c0.1,0.3,0.1,0.5,0.1,0.8v2.3c0,0.7-0.1,1.5-0.2,2.2c0,0.4,0,0.7-0.1,1.1v0.2
	c-0.2,1.6-0.5,3.2-0.8,4.8c-0.7,3-1.1,6.1-1.2,9.2c-0.2,6.1,1.2,12.6,5.6,17c-2.6,6.8-4.4,13.8-5.4,21c-1.5,11.1-0.2,22.5,3.7,33
	c0.1,0.3,0.2,0.6,0.4,0.9c0,0.1,0.1,0.2,0.1,0.4s0,0.3,0.1,0.4v0.4c-0.1,0.3-0.1,0.6,0,0.9h-0.1c-0.1,0.7-0.3,1.3-0.5,2h-0.1
	c-0.2,0.3-0.3,0.7-0.4,1c-0.3,0.5-0.6,1-0.8,1.5c-0.7,1.1-1.3,2.2-1.8,3.4c-2.4,5.2-3,10.7-1,16.1c2.1,5.2,5.6,9.7,10.1,12.9
	c4.2,2.9,8.7,5.4,13.4,7.2c5.9,2.6,12,4.8,18.2,6.6c4.3,1.4,7.7-3.6,5.6-7.3s-3.1-6-4.4-9.1c-0.1-0.2-0.3-0.7-0.4-0.7
	c-0.1-0.5-0.3-0.9-0.5-1.3l-0.7-2.1c-0.4-1-0.7-2-1-3.1c1.9,2,3.9,3.8,6.1,5.4c5.2,3.8,11.3,5.7,17.5,6.8c3.2,0.6,6.4,1.1,9.5,2
	l2.5,0.8l1,0.4h0.2c1.4,0.7,2.8,1.4,4.1,2.2l8.1,5.3c2.8,4.4,6.7,8.1,11.4,10.5c3,1.6,6.1,2.9,9.4,3.8l4.6,1.3l0.8,0.3l0.7,0.3
	c0.7,0.3,1.4,0.6,2,1l2.2,1.5l0.9,0.7c0.1,0,0.1,0,0.1,0.1c1.6,1.2,3.2,2.5,4.9,3.6c2.9,1.9,6.1,3.4,9.4,4.4c3.3,1,6.7,1.5,10.2,1.5
	c3.3,0.2,6.7-0.2,9.9-1.2c2.4-0.9,4.4-2.4,5.1-4.9s-0.5-5.3-1.6-7.7c-1.4-3.1-3-6.1-4.8-9c-1.6-2.9-3.3-5.9-4.7-9H827l-0.4-1
	c-0.3-0.8-0.6-1.6-0.8-2.4c-0.6-1.5-1-3.1-1.4-4.7c-0.4-1.4-0.7-2.9-1-4.4c-0.2-0.8-0.3-1.7-0.4-2.5c-0.1-0.1-0.1-0.1-0.1-0.2v-0.2
	c0-0.4-0.1-0.9-0.1-1.3c-0.4-3.3-0.5-6.6-0.4-9.9c0-1.6,0.1-3.1,0.3-4.7c0-0.7,0.1-1.5,0.2-2.2c0-0.1,0.1-0.6,0.1-0.8
	s0.1-0.8,0.2-1.3c0.5-3.2,1.2-6.4,2.1-9.5c1.6-5.8,3.8-11.4,5.6-17.2c1.1,5.1,2.3,10.1,3.4,15.1c0.6,2.2,2.5,3.7,4.8,3.7
	c2.3-0.1,4.2-1.5,4.9-3.7C848.7,636.1,849.4,619.7,846,603.9z M379.1,695.9c-0.1,0-0.1,0-0.1,0.1h-0.3
	C378.9,695.8,379.3,695.8,379.1,695.9z M466,356c0.1,0,0.1,0.1,0.2,0.2L466,356z M440.8,369.3C440.4,368.9,440.6,369,440.8,369.3
	L440.8,369.3z M442.9,370.5L442.9,370.5C443.3,370.5,443.4,370.6,442.9,370.5z M395.6,693.9C395.5,694,395.1,694.3,395.6,693.9
	L395.6,693.9z M398.4,402.5c3.5,6.5,7.3,12.6,11.2,18.9c6,9.8,11.4,20.4,14.3,31.6c1.3,4.7,1.5,9.6,0.4,14.3
	c-1.1,3.8-2.6,7.6-4.5,11.1c-7.7,14.4-21.8,31-17,48.5c2.2,8.3,8.7,12.9,16,16.6s15.1,6.1,20,11c11.1,11.1,21,24.1,27.5,38.6
	l0.3,0.8c2.7,6.2,4.7,12.7,6,19.3c1.7,9.4,1.2,19-1.5,28.1c-1.8-0.2-3.6,0.8-4.5,2.4c-1.6,3-2.1,6.4-1.6,9.8c0.6,2.7,1.6,5.3,3,7.6
	l1.5,3c0.2,0.2,0.3,0.5,0.4,0.8c0,0.1,0,0.1,0.1,0.2c0.2,0.6,0.4,1.2,0.5,1.8c0.1,0.2,0.1,0.4,0.1,0.6c0,0.5,0.1,1.1,0.1,1.6
	c0,0.2,0,0.5-0.1,0.7v0.5h-0.1c0,0.3-0.1,0.7-0.2,1c-0.1,0.5-0.3,1-0.5,1.5c0,0.1,0,0.2-0.1,0.3c0,0.1-0.1,0.2-0.1,0.3
	c-0.6,1-1.2,2.1-1.9,3h0.1c-0.1,0-0.1,0-0.1,0.1l-0.2,0.2l-0.3,0.3l-1.1,1.2l-1.2,1.1l-0.7,0.6c0,0.1,0,0.1-0.1,0.1
	c-4,2.7-8.2,5-12.7,6.8h-0.3l-1.2,0.5l-2,0.8l-1.8,0.7c4-9.9,6.2-20.5,4.4-31.4c-1.1-7-4.1-13.5-6.4-20.2s-4.5-14.1-6.2-21.3
	c-1-4-1.8-8-2.6-12c-0.3-2-0.6-3.9-1-5.9c-0.4-2-0.3-2-0.4-3c-0.1-1-0.1-0.7-0.2-1.1c-0.1-0.4-0.1-1.2-0.1-1.3c-0.4-2.6-2.1-5.1-5-5
	c-2.9,0.1-5.4,2.2-5,5c1.8,14.6,4.9,29,9.4,43c2,6,4.5,11.9,6.3,17.9c0.1,1.1,0.1,2.3,0,3.4c0,0.8-0.1,1.5-0.1,2.3
	c0,0.1,0,0.1-0.1,0.2c0,0.4-0.1,0.8-0.2,1.2c-0.3,1.6-0.6,3.2-1.1,4.8c-0.2,0.7-0.5,1.5-0.8,2.3c-0.1,0.4-0.2,0.7-0.4,1.1
	c0,0.1-0.1,0.3-0.2,0.4c-0.6,1.5-1.3,3-2.2,4.4l-1.2,2c-0.3,0.3-0.5,0.7-0.7,1L432,677c-0.3,0.4-0.2,0.4,0,0.2
	c-0.4,0.5-0.9,1-1.4,1.4l-1.7,1.8l-1.3,1.1c-0.2,0.1-0.3,0.2-0.4,0.4l-1.1,0.6l-1.8,1.1l-0.6,0.2l-0.5,0.2l-0.8,0.2h-6.5l-1-0.2
	l-2.7-0.4c-6.6-1.2-13.8-2.8-20.1,0.7c-0.8,0.4-1.5,0.9-2.2,1.4c0.3-1.2,0.5-2.5,0.7-3.8c0.5-3.8,0.7-7.6,0.7-11.4
	c0-3.9-0.2-7.7,0-11.5c0-1.2,0.1-2.3,0.3-3.5c0-0.2,0-0.5,0.1-0.7c0.1-0.6,0.1-1.1,0.2-1.6c0-0.1,0-0.1,0.1-0.2c1,1,2,2.2,3,3.3
	l2.4,2.8l0.3,0.5c0.1,0,0.2,0.2,0.3,0.3l1.1,1.5c1.5,2.1,2.8,4.2,4,6.5l1.5,3.2c0.2,0.3,0.3,0.7,0.4,1l0.7,1.9
	c0.6,2.2,2.6,3.7,4.8,3.7c2.1-0.1,4.4-1.5,4.8-3.7c1.7-8.1,2-16.5,0.7-24.7c-1.2-8-4.6-15.1-7.9-22.4c-0.2-0.4-0.4-0.8-0.5-1.2
	l-0.3-0.6c-0.3-0.8-0.7-1.7-1-2.6l-1.8-5.2c-1-3.6-1.9-7.2-2.5-10.8c0-0.4-0.1-0.9-0.2-1.3v-0.3l-0.3-2.9c-0.2-1.8-0.3-3.6-0.4-5.4
	c-0.1-3.7,0-7.3,0.4-11l0.3-2.7c0-0.2,0.1-0.7,0.1-0.9l0.3-1.7c0.4-2.1,0.8-4.1,1.3-6c1-4.1,2.3-8,3.9-11.9c1-2.4-1.1-5.6-3.5-6.1
	c-2.4-0.5-5.1,0.9-6.2,3.5c-5.7,13.9-7.7,29.1-6,44c0.8,7.6,2.6,15.1,5.3,22.2c1.4,3.8,3.2,7.5,4.9,11.2c0.1,0.4,0.3,0.9,0.5,1.3
	c0.1,0.2,0.2,0.5,0.3,0.7c0.4,0.8,0.7,1.7,1,2.6c0.7,1.8,1.3,3.6,1.7,5.4c0.3,1.1,0.5,2.1,0.7,3.2l0.3,1.5v0.4
	c0,0.1,0.1,0.4,0.1,0.6s0.1,1.4,0.2,2.1c-1.9-2.5-3.9-5-6-7.3c-6.3-7-13.8-12.8-20.1-19.8l-2-2.4l-0.3-0.4c-0.1,0-0.1-0.1-0.2-0.2
	l-1.1-1.5c-1.3-1.8-2.5-3.7-3.5-5.6c-1.1-2-2.1-4-3-6c-0.1-0.1-0.2-0.3-0.2-0.4c0-0.1,0-0.1-0.1-0.1l-0.6-1.6
	c-0.4-1.1-0.8-2.2-1.1-3.3c-0.3-1.1-1.2-4.2-1.7-6.3l-0.6-3.2c0-0.2-0.1-0.6-0.1-0.9c-0.1-0.5-0.1-1.1-0.2-1.5
	c-0.4-4.5-0.4-9.1,0.1-13.6c0-0.2,0-0.3,0-0.5c0,0,0-0.1,0.1-0.3v-0.3l0.3-1.9c0.2-1.2,0.5-2.5,0.8-3.7c0.6-2.5,1.3-5,2.2-7.4
	l0.6-1.6c0.1-0.3,0.2-0.6,0.4-0.8v-0.2c0.1-0.1,0.1-0.1,0.1-0.2c0.5-1.1,1-2.2,1.6-3.3c1.2-2.4,2.5-4.6,4-6.8
	c1.4-2.4,0.7-5.4-1.6-6.9c-2.4-1.4-5.4-0.7-6.9,1.6l-0.1,0.1c-16.5,24.6-15.8,56.9,1.7,80.8c4.2,5.7,9.4,10.5,14.5,15.2
	c-0.9,2.9-1.5,6-1.9,9c-0.2,0.3-0.3,0.5-0.4,0.8v0.2h-0.1c-0.1,0.4-0.3,0.8-0.5,1.1c-0.3,0.7-0.7,1.3-1.2,1.9l-0.5,0.6l-0.4,0.6
	l-1.7,1.7l-1.5,1.3l-0.5,0.4l-1,0.6l-2,1.2l-0.7,0.3l-0.6,0.3c-3.3,1.2-6.7,1.9-9.9,3.1c-3.7,1.6-7.2,3.7-10.3,6.3l-0.3,0.2h-0.1
	l-1,0.8l-1.8,1.1l-2.1,1.3L344,678l-0.5,0.2c0,0.1-0.1,0.1-0.2,0.1l-4.3,1.4l-2.4,0.4c-0.1,0-0.1,0-0.1,0.1h-1.9
	c-1.5,0.1-3,0.1-4.5-0.1h-0.8l2.5-4.7c3.2-5.7,6.3-11.4,9-17.4c2.8-6.3,5.1-12.8,6.9-19.5c1.8-6.5,2.8-13.3,2.8-20.1
	c-0.2-6.4-1.7-12.7-4.5-18.5c-2.8-5.7-6.7-10.8-9.9-16.3c-0.7-1.3-1.4-2.6-2-3.9c-0.1-0.2-0.2-0.4-0.3-0.6c-0.1-0.2-0.2-0.4-0.2-0.6
	c-0.3-0.8-0.5-1.5-0.7-2.2c-0.2-0.6-0.4-1.3-0.5-1.9c0-0.3,0-0.6-0.1-0.9v-0.4c-0.1-0.8-0.1-1.5,0-2.3v-0.7c0-0.2,0.1-0.5,0.1-0.7
	c0.1-0.3,0.1-0.7,0.1-1l0.3-0.8c0.2-0.5,0.3-0.9,0.5-1.3c0.1-0.1,0.1-0.1,0.1-0.2c0.3-0.6,0.6-1.2,1-1.7l0.2-0.3
	c-0.4,0.7,0.3-0.3,0.4-0.4c0.4-0.5,0.9-1,1.4-1.4l1.5-1.4c0.1-0.2,0.8-0.5,1-0.7c2.4-1.7,5-3.3,7.5-4.9c2.6-1.6,5.2-3.5,7.5-5.5
	c2.7-2.4,4.8-5.3,6.1-8.7c3-7.3,1.9-15.6,2.5-23.3c-0.1-2.7-2.3-4.9-5-5c-2.8,0-5,2.2-5,5c-0.3,3.4-0.2,6.8-0.3,10.2
	c0,0.5-0.5,4.8-0.4,5c-0.1,0.4-0.1,0.8-0.2,1.1l-0.6,2.6c-0.2,0.3-0.3,0.7-0.4,1h-0.1c-0.3,0.8-0.7,1.6-1.2,2.3l-0.3,0.3l-0.4,0.6
	l-1.5,1.4l-1.4,1.2l-1,0.8l-3.5,2.3c-5.1,3.2-10.7,6.4-14.4,11.2c-2.2,3.1-3.8,6.5-4.7,10.1c-1.1,4-2,8-2.9,12.1
	c-0.9,4.1-1.3,5.9-2,8.9c-0.4-1.7-0.7-3.5-1.1-5.2c-0.4-1.7-0.7-4.5-1-6.8c-0.1-0.2-0.1-0.5-0.1-0.7c-0.1-0.6-0.2-1.1-0.2-1.7
	c-0.2-1.2-0.3-2.3-0.4-3.4c-0.4-4.5-0.6-8.9-0.5-13.4c0.1-2.1,0.2-4.3,0.4-6.4c0.1-0.6,0.1-1.1,0.2-1.6c0.1-0.5,0.1-0.5,0.1-0.7
	c0.2-1,0.3-2.1,0.5-3.1c0.4-2.1,0.9-4.1,1.5-6.1c0.2-0.9,0.5-1.8,0.8-2.6l0.6-1.5l0.3-0.8c0.8-1.8,1.7-3.5,2.7-5.2
	c0.5-0.7,1-1.4,1.4-2.2l0.9-0.9l0.3-0.3c0.3-0.1,0.5-0.3,0.7-0.5l2.1-1.2l2.2-1h0.2l1.4-0.5c6.5-2.6,14.6-4.7,18.4-11.2
	c1.1-2,1.9-4.2,2.2-6.4c0.6-3,1-6,1.2-9l0.6-7.9c0.1-0.7,0.2-1.3,0.2-2c0.1-0.4,0.2-0.7,0.2-1.1c0.2-1.4,0.5-2.7,0.9-4
	c0.1-0.6,0.3-1.1,0.5-1.7c0-0.1,0-0.1,0.1-0.1l0.6-1l0.2-0.3v-0.1l0.1-0.1h-0.1c0.5-0.6,1-1.1,1.6-1.6l0.4-0.3l1.1-0.8
	c3.1-2.1,6.5-3.7,9.7-5.8c3.8-2.4,7-5.5,9.4-9.3c2.5-4.2,4.5-8.6,5.8-13.3c1.5-4.5,2.6-9.1,3.8-13.6c1.3-4.5,2.8-8.9,4.6-13.2
	C394.1,414.5,396.6,408.6,398.4,402.5z M689.7,412.4C689.8,412.7,689.8,413.1,689.7,412.4L689.7,412.4z M686,667.6
	c0,0.1,0,0.2-0.1,0.3C685.9,667.8,685.9,667.7,686,667.6z M830,719.7l-0.3,0.2h-0.2C829.9,719.5,830.3,719.5,830,719.7z
	 M824.6,618.3c0,0.7-0.1,1.5-0.2,2.2v0.4c0,0.3-0.1,0.6-0.1,0.9c-0.3,1.7-0.6,3.4-1.1,5c-1.6,6.5-3.9,12.7-5.9,19
	c-3.9,12.1-5.9,25-4.2,37.7c0.8,6.7,2.5,13.3,5.2,19.5c2.4,5.8,6.1,11,8.9,16.7c0.1,0.2,0.1,0.4,0.2,0.6h-3.2
	c-0.8,0.1-1.5,0.1-2.3,0H820c-1.4-0.2-2.7-0.5-4-0.9l-1.9-0.6l-0.8-0.3c-0.1-0.1-0.6-0.3-0.7-0.3c-1.3-0.6-2.6-1.3-3.8-2.1l-1.9-1.4
	l-0.5-0.3l-0.9-0.8c-3.2-2.6-6.7-4.6-10.5-6c-1.6-0.6-3.3-1-4.9-1.5l-2.5-0.7l-1.2-0.4c-0.3-0.1-1.5-0.5-0.4-0.2
	c-1.2-0.4-2.4-1-3.4-1.7c0.6-1.4,0.4-3.1-0.3-4.4c-1-1.5-1.9-3.1-2.7-4.7l-1.2-2.3l-0.6-1.4v-0.2c0-0.1-0.1-0.4-0.2-0.4
	c-1.3-3.4-2.4-6.9-3.1-10.4c-0.2-0.9-0.3-1.7-0.5-2.6c0-0.4-0.1-0.8-0.2-1.2v-0.7c-0.3-1.9-0.4-3.8-0.4-5.7c0-3.8,0.2-7.5,0.6-11.3
	c0.4-4.3,0.1-8.7-0.9-12.9c4.2-3.7,8.2-7.7,11.8-12c12.1-14.8,18.2-34.3,15.7-53.3c-0.2-1.8-0.5-3.5-0.9-5.2l1.5,2.4
	c3.7,5.5,8.2,10.3,12.5,15.3l2.9,3.4l0.8,1h0.1c0.6,0.7,1.1,1.5,1.6,2.2c0.9,1.2,1.7,2.5,2.4,3.8c0.4,0.6,0.8,1.3,1.1,2l0.5,0.9
	c0.1,0.3,0.2,0.6,0.4,0.9c0.2,0.7,0.5,1.3,0.7,2c0,0.4,0,0.7,0.1,1.1l0.3,1.3v0.2c0,0.8,0.1,1.7,0.2,2.5
	C824.8,615,824.8,616.7,824.6,618.3z"/>
</svg>
