<?xml version="1.0" encoding="utf-8"?>
<!-- Generator: Adobe Illustrator 24.2.3, SVG Export Plug-In . SVG Version: 6.00 Build 0)  -->
<svg version="1.1" id="ae7ebfdc-b82d-4ac4-b78c-ece96573f338"
	 xmlns="http://www.w3.org/2000/svg" xmlns:xlink="http://www.w3.org/1999/xlink" x="0px" y="0px" viewBox="0 0 1152 864"
	 style="enable-background:new 0 0 1152 864;" xml:space="preserve">
<path d="M883.2,469c-1.6-4.4-2.4-9-2.2-13.7c0.2-6.1,2.9-12.2,1.6-18.3c-0.6-2.7-1.6-5.3-2.9-7.7c-0.8-1.6-2.5-4.3-2.1-6.1l1.1-1.3
	c1.1-1.2,1.9-2.8,2.3-4.4c0.6-3.8,0.5-7.7-0.3-11.5c-1.6-8-6.2-15-9.1-22.6c-2.9-7.6-5.9-16.6-9.7-24.5
	c3.1-32.9-38.3-40.5-57.2-59.1c0.2-17.5-6-34.4-18.9-46.6c-3.1-2.9-7-5.1-9.9-8.2c-2.9-3.1-3.9-8.7-7.8-11.2
	c-1.5-0.9-3.2-1.6-4.9-1.8c-1.6-0.2-3.7,0.1-5.2-0.4s-2.4-2-3.6-2.9c-1.9-1.4-4-2.7-6.2-3.6c-7.9-3.3-16.5-2.4-24.9-1.9
	c0.7-8.3-1.9-17.4-5.6-24.1c-7.5-13.6-24.4-8.8-36.3-4.2c-0.8,0-1.7,0.2-2.4,0.6c-1,0.8-1.9,1.8-2.6,2.9c1.3-6.8,2.1-13.6,1.2-20.3
	s-3.2-10.4-8.2-13.2c-7.2-4-15.3-7.1-23.5-7.2c-8.2-0.1-14,2.7-19.6,8c-5.6,5.3-8.7,9.6-15.4,7.9c-3.4-0.8-6.3-3.1-8.8-5.4
	s-5.7-5.8-9.8-7.8c-6.6-3.3-14.5-6-21.8-4.1c-3.9,1.2-7.6,3.1-10.8,5.6c-2.6,2-6.1,4.2-7.8,6.9c-1.1,2.2-2,4.5-2.5,6.9l-2.5-4.1
	c-2.3-3.7-4.6-7.8-8.2-10.5c-8.3-6.3-18,0.9-23.5,7.5c-3.1,3.6-5.7,7.5-9.1,10.9l-2.6,2.2l-0.2-0.2c0-0.1-0.1-0.1-0.1-0.2
	c-0.8-0.9-1.6-1.7-2.5-2.4c-1.4-1.6-3.1-3-4.9-4.1c-2.3-1.2-5.4-1.5-7.9-2.1c-6.5-1.6-13.1-3.4-19.8-2.4
	c-11.6,1.7-19.1,11.3-20.4,22.1l-0.7,0.3c-8.1-2.6-16.6-4-24.7-0.1c-6,2.8-11,8.7-12.1,15.3c-0.8,0.6-1.4,1.5-1.7,2.5
	c-7.1,0.9-13.9,3.4-19.9,7.2c-4.3,2.8-8.1,6.2-11.5,10c-1.4,1.9-2.9,3.7-4.5,5.4c-1.6,1.3-3.4,2.5-5.2,3.5c-1.9,1.2-3.8,2.6-5.4,4.2
	c-1.6,1.8-2.5,4-4.1,5.7c-1.6,1.7-7,4.8-10.6,6.6c-7.3,3.7-14.7,7.5-20.9,13s-10.9,14.1-10.7,23.1c-9.8,11.7-20.9,22-27.2,36.3
	c-2.6,6-1.6,13.5-1.5,19.8c0.1,6.3,1,13.2-1.9,17.3l-0.7,0.7l-3.1,2.5l-6.5,5.5c-3.5,3-6.9,6.2-10,9.6c-5.2,5.6-9.9,12-12,19.5
	c-1,3.3-1.4,6.7-1.3,10.1c0.2,3.7,0.5,9.4,3.8,11.7c1.1,0.8,2.5,1.2,3.1,2.6c0.6,1.4-0.2,4.1-0.9,5.8c-2,4.2-4.3,8.3-7.1,12
	c-6.5,9.5-11.3,20.3-15.4,31.1s-6.9,22.8-6.6,34.7c0.1,3.1,3.1,5.8,6.3,4.8l4.9-1.5c-3.4,11-5.1,22.6-5.2,33.9
	c0,14.1,2.4,28.3,7.5,41.7l0.3,0.6c0.1,0.1,0.1,0.1,0.1,0.2l0.3,0.5h0.1c1.3,2,3.9,2.8,6.1,1.9h0.4c0.5-0.3,1-0.7,1.4-1.2
	c0.8-0.8,1.4-1.7,2-2.7c0.7,1.7,1.4,3.4,2,5.2c3.4,10.1,5.3,20.7,7.5,31.1s4.2,20.3,8.1,29.8c3.7,9.4,10.2,17.4,18.6,22.9
	c9.8,6.4,21.4,9.6,32.6,12.9c2.6,0.7,5.4-0.9,6.1-3.5c0.3-1.2,0.5-2.3,0.8-3.4c0-0.2,0-0.3,0.1-0.5c2.1,0.9,4.9,1.3,7,2.1
	c6.3,2.4,12.5,5.1,19.4,3.9c6.9-1.2,12.8-5.2,15.1-10.7c2,1.3,3.9,2.7,6,3.9c2.1,1.2,5.1,2.5,7.7,1c1.3-0.7,2.2-2,2.4-3.4
	c11.4-4.8,20.2-13.9,23.4-26.1c1.8-6.7-2.7-10-7.1-14.2c-0.2-0.3-1.2-1.1-1.6-1.6v-0.2c-0.1-0.9,0-1.9,0.1-2.8
	c0.4-3.7,2.2-7.2,3.3-10.6s2.2-7.5,0.4-11.5c-1.6-3.6-3.6-7.1-5.9-10.3c-4.3-6.2-9.3-11.9-13.7-18c-4.7-6.3-8.1-13.4-10-21
	c-2.2-8.1-3.2-16.6-5.5-24.7c-1-3.5-2-7.4-4.7-10.1c-2.3-2-5.1-3.4-8.1-4c-4.9-1.1-10.2-0.7-15.1-1.8c-2-11.1,2.5-23.2,5.6-33.6
	c1.9-6.1,4.1-12.5,4.7-18.8c0.2-2.3,0.5-4.7-0.2-7s-3.8-3.7-6.2-5.7s-3.4-8.3-1.9-12.3c1.6-4.3,3.4-8.5,5.2-12.7
	c1.3-2.9,2.8-6.2,4-9.1l3.6-7.6c0.3,0.7,0.7,1.5,1,2.3c0.6,1.3,2,2.1,3.4,2.3c1.2,0.2,2.5,0,3.5-0.5c5.7-3.3,11.1-7,16.1-11.2
	c2.5-2.1,4.8-4.2,7.1-6.5c1.8-1.7,3.5-3.6,5.1-5.6l1.7,1.8c1.5,2,3.4,3.5,5.7,4.4c3,1.1,5.9,0,8.1-2.1c2.6-2.5,4.1-6,4.1-9.7
	c0-0.9,0-1.7-0.1-2.6h0.1c2.8-0.6,4.9-2.6,6.5-4.9c1.6-2.3,3.5-7.6,4.2-11.6c3.1,1,6.3,0.9,8.9-1.9c2.6-2.8,3-4.9,4-7.4
	s1.1-3.1,1.7-4.6c0.1-0.5,0.3-0.9,0.5-1.3c0.1-0.2,0.2-0.5,0.3-0.7c0.3-0.9,0.7-1.8,1.2-2.6c3.1-6.6,6.7-12.9,10.9-18.9
	c1.5-2.2,2.9-4.6,4.3-6.9l2.3-3.5c0-0.1,0.1-0.1,0.1-0.2l3.6-3.6l0.8-0.7l1.9-1.2l0.5-0.2h0.2l0.6-0.2l3-0.8h0.8l1.5-0.2h3.8
	c2,1.5,4.8,1.4,6.7-0.3c3-2.5,1.5-7.3-1.6-8.9c-3.1-1.6-4.9-0.8-7.2-0.7c-4.3,0-8.5,0.9-12.4,2.5c-5.9,2.7-9.9,8.3-13.2,13.6
	c-1.6,2.4-3,4.9-4.6,7.3c-1.6,2.4-4.2,6.3-6.1,9.5c-1.9,3.2-3.7,6.9-5.3,10.4c-0.2,0.4-0.3,0.7-0.5,1.1c-1,2.2-1.3,2.8-1.9,4.5
	l-0.9,2.5c-0.2,0.4-0.3,0.9-0.4,1.3c-0.1,0.1-0.1,0.1-0.1,0.2v0.3l-1.1,2.4h-0.3l-1-0.5l-2.6-1.5c-0.2-0.1-0.4-0.2-0.6-0.3
	c-2.2-0.8-5,0-6.2,2.1c-0.4,0.8-0.7,1.6-0.7,2.5c0,0.8-0.1,1.5-0.1,2.2s-0.1,1-0.2,1.5c0,0.2-1,5.3-1.9,7.6l-0.3,0.7
	c-0.2,0.5-0.5,1.1-1.2,2.1l-1.3-0.7c-2.9-2.1-7.9,0.7-7.5,4.3l0.6,4.7c0.1,0.5,0.2,1,0.3,1.5v0.4c0,0.3,0.1,0.7,0.1,1v1.6
	c0,0.2-0.1,0.3-0.1,0.5v0.2l-2.4-2.5c-1.3-1.7-3-2.9-5-3.8c-0.1-0.1-0.4-0.2-0.5-0.2c-3.6-1-6.4,0.7-8.5,3.5l-1.8,2.5v0.2l-0.4,0.3
	l-1.5,1.5c-2.2,2.2-4.4,4.3-6.7,6.3l-4,3.4H371l-1.1,0.8l-1.9,1.4l-4.1,2.8c0-0.1,0-0.1-0.1-0.2l-0.3-1c-0.2-0.7-0.4-1.4-0.5-2.1
	c-0.1-0.1-0.1-0.2-0.1-0.3v-1.2c0-0.4,0.1-0.9,0.1-1.2c0-0.3,0.1-0.3,0.1-0.4l0.3-1l2-4.7c0.1-0.1,0.1-0.2,0.1-0.3
	c0.2-0.3,0.4-0.7,0.5-1.1c1.9-4.7,3.5-9.6,4.6-14.6c1.6-7.6,1-14.6,0.1-22.2c-0.8-6.9-0.3-13.8,1.5-20.5c3-12.2,9.4-23.3,17.4-33
	s18.2-19.1,28.3-27.6c2.2-1.9,4.8-3.2,7.1-5c1.1-1,2.3-1.9,3.6-2.7c1.3-0.7,2.8-1.1,4-1.9s4-3.6,6.3-5.1c2.4-1.5,5.1-2.6,7.9-3.2
	c5.6-1.4,11.7-0.3,15.9,3.8c2.4,2.3,4.2,5.2,6.8,7.3s7.3,3.5,11.5,3c7.6-0.8,14.8-0.6,21.5,3.4c6.3,3.8,10.4,10.4,11.1,17.7
	c0.4,6.4,10.4,6.4,10,0c-1.3-20.5-20.7-33.5-40.3-31.4c-2,0.2-4.6,1-6.5,0.3c-1.9-0.7-3-2.8-4.1-4.1c-2.7-3.4-6-6.2-9.9-8.1
	c-7.5-3.5-16.2-3.1-23.7,0.1c-3.9,1.6-7.4,3.8-10.5,6.6c-1.4,1.1-2.9,2.1-4.6,2.8c-1.8,0.9-3.4,2-4.8,3.4c-1.7,1.4-3.7,2.3-5.4,3.6
	s-3.9,3.2-5.8,4.8l-10.2,9.1c-13.2,12.4-25.2,26.5-32,43.5c-3.4,8.4-6,18.4-5.6,27.4c0.2,5,1.2,10,1.5,15c0.2,5.2-0.5,10.4-2.1,15.4
	c-1.1,3.6-2.4,7.2-3.9,10.7c-0.3,0.6-0.6,1.2-0.9,1.9c-2.5,5.7-5.4,11.2-7.9,16.8c-4.5,10-9.2,20.1-13.1,30.4
	c-0.7,1.8-1.1,3.9-1.3,5.8c-0.5,5.8,1.3,11.9,5.6,16c1.1,1.2,2.4,2.2,3.8,2.9v2c-0.6,3.8-1.4,7.5-2.6,11.1
	c-2.6,8.9-5.7,17.7-7.2,26.8c-0.8,4.4-1.1,8.8-0.9,13.3c0.3,4.3,0.7,9.5,5.3,11.1c6.2,2.2,13,0.9,19.1,3c2.9,1,3.1,3,4,6.1
	c1.5,5,2.4,10.1,3.4,15.1c1.9,9.9,4.4,19.6,9.8,28.3c5.4,8.7,11.2,14.8,16.6,22.4c2.4,3.3,4.5,6.9,6.2,10.6
	c-1.4,6.5-4.9,12.5-4.9,19.3s4.2,9.4,8.4,13.6l0.6,0.7c0,0.4-0.1,0.7-0.2,1.1c-0.2,0.9-0.5,1.8-0.9,2.7c-1.1,2.7-2.6,5.3-4.5,7.5
	c-4,4.5-9.2,7.8-15,9.5l-0.7,0.2l-3.9-2.5c-3.3-2.2-6.8-4.6-11-3.9s-4.3,4.8-3,7.4s-2.3,4.4-4.4,5.3c-4.9,2.1-9.5,0.6-14.2-1.2
	s-10.2-4.6-15.4-4.2c-5.2,0.4-6.2,3.2-7.3,6.5c-8.5-2.5-17.1-5.2-24.6-10S281,654.4,277.8,645c-6.8-20.4-7.6-42.6-16.3-62.4
	c-2.1-4.9-5-10.7-11.2-11c-0.9-0.1-1.8,0.1-2.7,0.4c-3-12.3-3.8-25-2.4-37.4c1.1-9.8,3.5-19.5,7.3-28.8c1.5-3.6-2.8-7.2-6.1-6.2
	l-7.8,2.4c1.3-16.2,7.9-31.9,15.5-46.1c6.1-11.5,23.8-30.2,8.1-40.7c-3.6-18.1,13.7-31.6,26.2-41.9c3.5-2.8,5.9-5.1,7.3-9.5
	c1-3.9,1.4-7.8,1.3-11.8c0.1-4.1-0.1-8.2-0.1-12.3s-0.3-6.8,0.8-9.7c3-8,8.8-15.1,14.5-21.3c3.1-3.4,6.3-6.8,9.3-10.3
	s4.3-4.4,4.3-7.5c-0.2-2-0.1-4.1,0.3-6.1c1.9-7.7,8.5-12.6,14.9-16.5c6.4-3.9,15.9-7.4,22.6-13c2.3-1.9,3.4-4.2,5.2-6.6
	c1.8-2.4,3.6-2.9,5.5-4.1c2.3-1.3,4.5-3,6.3-4.9c2.1-2.3,3.9-4.9,6.1-7.1c7.6-7.9,18.2-12.2,29.2-12c0.9,0.1,1.8-0.2,2.6-0.7
	l0.3-0.2l0.7-0.6c1.3-1.2,1.8-3.1,1.2-4.8c-2.4-6,2.8-11.6,8.4-13.1c7.5-2,15.6,1.7,22.5,4.4c1.8,0.8,3.9,0.1,5-1.5
	c1-1.3,1.4-3,1.1-4.7c-1.1-5.4,0.6-11.1,4.5-15c4.8-4.7,11.5-4.2,17.7-2.8c3,0.7,6,1.6,9,2.2l2.2,0.5h0.2c0.4,0.5,1.5,1.3,2.1,1.9
	c3.2,3.2,7,7.4,12.1,6.1c5.1-1.3,8-5.4,10.7-8.7c2.7-3.3,5.9-7.8,9.5-11.1c1.1-1.2,2.4-2.1,3.8-2.8c0.8-0.4,1.7-0.5,2.6-0.5l0.5,0.3
	c3.3,2.4,5.2,6.9,7.3,10.3c2.1,3.4,4.6,7.7,8.4,9.7s8.1-2.3,9.5-6.4c0.6-1.8,1-3.6,1.6-5.4c0.2-0.9,0.5-1.8,0.8-2.6l0.2-0.3
	c4.3-3.4,8.6-8,14.3-8.7c2.9-0.3,5.7,0.9,8.5,1.8c2.8,0.9,6,2.1,8.2,4c2.2,1.9,4.5,4.8,7.2,6.8c2.7,2.2,5.9,3.8,9.2,4.9
	c5.9,1.6,12.3,0.6,17.4-2.9c4.4-3,7.4-7.7,11.9-10.5s14.3-1.8,20.4,0.6c6.1,2.4,9.4,3.4,10.3,9.1c1.5,10.3-2.4,21.4-4.2,31.4
	c-0.6,3.3,2.3,7.8,6.1,6.2c4.1-1.7,7.8-4.4,10.7-7.7c1.2-1.3,2.3-2.7,3.4-4.2l0.5-0.7c5.4-2.1,11-4.3,16.7-4.3
	c1.7,0,3.3,0.2,4.9,0.7l1,0.4c1,1.1,1.9,2.3,2.5,3.6c1.8,3.7,2.9,7.6,3.5,11.7c0.3,1.8,0.4,3.6,0.4,5.4c0,0.8-0.1,1.5-0.2,2.3
	c0,0.4-0.5,2.1-0.3,1.7c-1.5,3.3,0.2,7.5,4.3,7.5c7.4,0,15.1-1.5,22.5-0.4c3.3,0.5,6.4,1.8,9.1,3.8c2.9,2.3,4.8,4.2,8.7,4.7
	c1.5,0.3,2.9,0.4,4.4,0.4h0.5l0.2,0.3c2.2,3.7,3.8,7.5,7.1,10.5s5.5,4.2,8.1,6.6c2.4,2.1,4.6,4.4,6.6,6.9c4.2,5.5,7.2,11.9,8.9,18.6
	c0.8,3.3,1.3,6.6,1.5,10c0.2,4.2-0.8,8.2,2.4,11.4c7.8,8.2,18.1,13.6,27.8,19.2c9.7,5.6,18.6,10.3,24,19.1c2.4,4,3.5,8.7,3.1,13.3
	c-0.3,4,1.9,7.1,3.4,10.7c1.5,3.6,3.4,8.8,5,13.2c2.8,7.6,6.8,14.8,9.4,22.4c0.7,1.8,1.2,3.6,1.5,5.5c0.2,1.6-0.2,3.3,0.1,4.8
	c-0.1,0.2-0.1,0.4-0.1,0.6l-0.3,0.3c-0.6,0.7-1.2,1.4-1.7,2.2c-0.9,1.5-1.4,3.2-1.6,4.9c-0.5,5.9,3.4,10.4,4.9,15.7
	c0.9,2.8-0.2,5.4-0.6,8.2c-0.7,3.6-1.1,7.2-1,10.9c0.1,11.8,5.1,21.6,12.7,30.4c1.5,1.8,3.1,3.5,4.7,5.3c1.3,1.3,2.4,2.8,3.5,4.3
	c0.8,1.1,1.6,2.3,2.2,3.6l-6-1.9c-3.3-1-7.7,2.6-6.2,6.2c8.8,21,10.5,44.3,5.1,66.4l-0.7-0.3c-5.2-1.4-9.1,2.8-11.4,6.9
	c-4.6,8-12.4,13.1-18.4,20c-14.2,16.4-6.5,40.6-17.1,58.6c-5.2,8.8-14.4,16.1-24.1,20.2c-0.9-2.9-2.4-5.3-6-6.1
	c-5.7-1.2-12.2,2.9-17.3,4.9s-8.8,2.8-13.4,0.8c-3.1-1.3-5.3-3.1-4.4-6.2c0.2-0.3,0.3-0.6,0.3-0.9c0.5-1.6,0-3.2-1.1-4.4
	c-0.2-0.3-0.4-0.5-0.7-0.7h-0.3l-0.3-0.2H772l-1-0.4c-8.5-2.2-19.6-4.8-24.8-12.6c-3-4.6-2.7-9.9-2.8-15.1s-0.6-11.5-3.5-16.4
	c0.3-5.7,2.2-12.8,6.4-16.5s7.8-4.6,11.9-6.4s9.2-4,12.8-7.5s5.4-8.4,6-13.5c1.4-11.2-1.7-22.5-1.3-33.7c-0.1-2.3,0.3-4.7,0.9-6.9
	c0.7-2.6,2.6-4.7,4.5-6.6c2-2.2,4.3-4.1,6.9-5.6c1.4-0.8,3.2-1.3,4.3-2.4s1.6-3.9,1.9-5.9c2-14.7,1-29.6-0.5-44.3
	c0.5-0.4,0.9-0.9,1.3-1.5c0.8-1.3,1.3-2.8,1.2-4.4c2.1-2,3.8-4.5,4.8-7.2c2.3-6.3,1.1-13.7-0.9-19.9c-4.4-13.2-11.1-25.6-17.1-38
	c-1-1.9-1.9-3.8-2.7-5.7c-0.5-1.6-1.1-3.1-1.9-4.5l-0.2-0.2c-1-2.6-2-5.2-2.8-7.9c-1-3.1-1.8-6.3-2.2-9.6c-0.5-3.7,0-6.6,0.7-10.2
	c2.7-13.4-0.1-26.7-5.8-39c-3-6.2-6.5-12-10.5-17.6c-3.8-5.3-7.6-11.5-12.9-15.4c-8.9-6.6-21.3-6-29.6-13.5s-11.7-17.3-18.4-25.2
	c-8.3-9.8-21.9-13.9-34.4-13.5c-8.1,0.2-15.9,2.6-22.7,6.9c-1.4,1.1-3,2.1-4.7,2.8c-1.6,0.5-3.4,0.7-5.1,1.2
	c-3.2,0.8-6.2,2.1-9.1,3.7c-12.1,7-20.3,19.2-22,33.1c-0.3,2.7,2.5,5,5,5s4.7-2.3,5-5c1.3-10.1,8-19.2,16.7-24.2
	c2.1-1.2,4.3-2.2,6.6-2.9c3-0.9,6.1-1.1,8.9-2.6s5-3.3,7.7-4.7c2.8-1.3,5.8-2.2,8.9-2.8c10.6-2,23.9,0.9,31.3,9.1s10.1,16,16.3,23.1
	c3.3,3.9,7.4,7,12.1,9.1c4.7,2.1,9.7,3.4,14.6,5c4.6,1.5,8.6,4.4,11.5,8.3c3.8,4.8,7.4,9.8,10.6,15c6.3,10.1,11.2,21.4,11.1,33.5
	c0,6.2-2.5,12.1-2,18.3c0.5,6.1,1.7,12.1,3.8,17.9c1.2,3.5,2.6,6.9,4.1,10.3c0.1,0.3,0.2,0.6,0.2,0.9c0,0,0,0,0,0.1v0.7
	c0,0.4,0.1,0.8,0.1,1.2c0,1-0.1,1.9-0.2,2.9c0,0.2-0.1,0.3-0.1,0.5l-0.3,1.4c-0.1,0.6-0.3,1.3-0.4,1.9l-4.7-3.2l-1.9-1.4l-0.8-0.6
	l-1.1-0.9c-1.5-1.2-2.9-2.5-4.3-3.8s-2.8-2.6-4.1-3.9c-0.6-0.7-1.2-1.3-1.9-1.9c-0.2-0.2-0.3-0.4-0.4-0.7c-0.8-1.4-1.6-2.7-2.6-3.9
	c-1.4-1.6-3.3-2.7-5.3-3.3c-1.6-0.4-3.2,0-4.5,1h-2.5l-1.1-0.3h-0.1l-0.4-0.3l-0.3-0.5c0-0.2-0.1-0.3-0.1-0.4c0-0.1-0.1-0.6-0.2-0.9
	s-0.1-0.2-0.1-0.3v-0.6l0.1,0.1c0.1,0.2,0.1,0.2-0.1-0.5v-0.4c-0.1-1.1-0.1-2.3,0-3.4c0.2-3.6-4.5-6.6-7.5-4.3v-1.5
	c0.2-3.5-4.4-6.5-7.5-4.3l-1.5,0.9c0.3-0.2,0.4-0.1,0,0.1h-1.1l-0.6-0.2h-0.1l-0.7-0.4h-0.1c0-0.1,0-0.1-0.1-0.1l-0.3-0.2
	c-0.2-0.2-0.2-0.3,0-0.2l-1.1-0.9l-0.6-0.8c-0.1,0-0.1-0.1-0.2-0.2l-0.4-0.6l-0.7-0.9c-0.8-1.2-1.5-2.5-2.1-3.8l-0.9-1.7l-0.3-0.8
	c-1.5-4.2-3.5-8.4-5.4-12.4c-2.3-4.7-4.8-9.2-7.6-13.6c-1.4-2.2-4.5-3.3-6.8-1.8c-2.4,1.4-3.2,4.5-1.8,6.9c2.6,4.2,5,8.5,7.2,12.9
	c1.1,2.3,2.1,4.5,3.1,6.8c0.1,0.3,0.2,0.5,0.4,0.8l0.6,1.5c0.5,1,0.9,2.1,1.3,3.1c1.1,2.7,2.5,5.3,4.2,7.7c2,2.9,4.4,5.8,7.6,7.4
	c1.7,0.8,3.6,1.3,5.5,1.4c0.2,1.1,0.5,2.2,1.1,3.2c1.3,2.2,3.7,3.5,6.3,3.4h0.5c0.6,3.1,2.3,5.9,4.8,7.8c2.3,1.4,4.9,2.1,7.5,2.2
	c1.3,0.1,2.7,0,4-0.1h1c0.5,0.9,1.1,1.8,1.7,2.7c2.4,3,5.1,5.7,8.1,8.2c5.9,5.3,12.3,9.9,19.1,13.8c1.4,0.7,3,0.8,4.4,0.2
	s2.5-1.7,2.9-3.2c0.4-0.8,0.7-1.7,1-2.6c1.9,3.8,3.7,7.6,5.4,11.5c2.7,6.4,6,12.8,7.5,19.7c0.7,3.2,1.8,13.5-3.8,12.8
	c-1.5-0.1-3,0.6-3.9,1.8c-0.4,0.5-0.7,1.1-1,1.7c-0.1,0.5-0.2,1-0.1,1.5c1.9,17,3.9,34.5,1.5,51.6c-6.3,3.3-12.5,8.7-15.8,14.8
	s-3.1,12.8-2.8,19s1.4,13.7,1.6,20.7c0.2,5.2,0.2,11.1-4.2,14.7s-10.1,5.2-15.1,7.5s-10.9,6.5-13.6,12.4c-1.9,3.9-3.3,8.1-4.1,12.4
	c-0.4,1.9-0.5,3.9-0.5,5.9c0.1,2.2,1.7,3.7,2.5,5.7c2.6,7,0.3,15.1,2.2,22.4c3.1,11.8,13.7,17.8,24.7,21.6c0,0.4,0.1,0.7,0.2,1.1
	c0.7,2.6,2.8,4.5,5.4,4.9c2.5,6,9.7,10.1,16.2,11.1s12.2-1.5,18-4l4.3-1.7l2.9-0.8c0,0.1,0.1,0.2,0.1,0.3s0.4,2.3,0.7,3.5
	c0.7,2.6,3.5,4.2,6.1,3.5c18.4-5.6,35.2-20.4,40.1-39.4c2.3-9.2,2.6-18.7,4.3-28c0.7-4,1.5-8.7,3.6-12.3s5.1-6.3,8-9
	s6.9-6.3,9.9-9.8c1-1.2,1.9-2.4,2.8-3.7c0.5,1.1,1.2,2.1,2,3c0.4,0.5,1,0.9,1.5,1.2h0.4c2.5,1,5.3-0.1,6.5-2.5l0.4-0.6
	c9.2-24.3,10-51,2.3-75.8l4.9,1.5c2.7,0.7,5.4-0.9,6.1-3.5c0.1-0.4,0.2-0.8,0.2-1.3C905.4,491.2,888.9,483.2,883.2,469z"/>
<path d="M391.8,503.6c0-0.2,0-0.5,0.1-0.7v-0.8c0.1-0.3,0.1-0.6,0.2-0.9c0.3-2.1,0.8-4.3,1.3-6.4c0.9-4.2,2.1-8.3,3.2-12.5l4.1-14.8
	c0.7-2.7-1-5.5-3.7-6.2c-1.2-0.3-2.6-0.1-3.7,0.5l-9.4,5.3c4.3-6.6,7.8-13.7,10.4-21.1c1.7-4.6,2.9-9.4,3.6-14.3
	c0.3-1.3,0.1-2.7-0.6-3.9c-0.6-1.1-1.7-1.9-2.9-2.3c-2.4-0.5-5.8,0.8-6.2,3.5c-0.7,4.8-1.8,9.6-3.4,14.2c-0.4,1.1-0.8,2.2-1.3,3.4
	l-0.3,0.8l-0.2,0.3c0,0.1,0,0.3-0.1,0.4l-0.6,1.2c-1,2.3-2.2,4.6-3.4,6.8c-1.2,2.2-2.6,4.4-4,6.5l-2.2,3.2l-1.2,1.6l-0.6,0.8
	l-0.7,0.9c-1.8,3.1-0.8,6.7,1.3,9.3s6.5,3.2,9.8,1.5s4.4-2.3,6.6-3.6c-1.2,4.3-2.4,8.6-3.5,12.9c-1.9,7.8-3.6,16.1-2.6,24.2
	c0.3,2.4,0.8,4.8,1.5,7.2c0,0.2,0.1,0.5,0.1,0.7c-1.3,1.2-1.8,3-1.2,4.6c0.8,2.4,3.5,4.6,6.1,3.5c2.5-0.8,4.3-2.8,5-5.3
	c0.3-2.1,0.2-4.3-0.4-6.3c-0.3-0.9-0.6-1.9-0.8-2.8c-0.1-0.4-0.2-0.9-0.2-1.3c-0.1-0.2-0.1-0.5-0.1-0.7h-0.1v-0.2
	c-0.1-2-0.2-4.1-0.1-6.1C391.7,504.7,391.7,504.6,391.8,503.6z"/>
<path d="M750.2,466.9l-0.8-0.5l-8.3-4.6c-2.5-1.3-5.6-0.3-6.9,2.2c-0.6,1.1-0.7,2.3-0.4,3.5l4.8,17.7c1.6,5.6,2.9,11.2,3.9,16.9
	c0,0.1,0,0.2,0.1,0.2c0,0.3,0,0.6,0.1,0.9c0,0.7,0.1,1.4,0.2,2.1c0.1,1.5,0.1,3.1,0,4.6c0,0.6,0,1.2-0.1,1.8c0,0.3,0,0.6-0.1,0.9
	v0.2c-0.2,1.4-0.5,2.8-0.9,4.2c-1.1,3.8,1.1,7.3,3.3,10.2s5,7,8.8,8.4s5.6-1,6.1-3.4c0.6-2.2-0.4-4.6-2.4-5.7c-0.1,0-0.1,0-0.1-0.1
	c-0.1,0-0.1,0-0.1-0.1h0.1c-0.1,0-0.1,0-0.1-0.1l-1.3-1.2l-1.4-1.7l-0.6-0.7l-0.3-0.5c-0.8-1-1.6-2.1-2.2-3.3c0.1-0.5,0.3-0.9,0.3-1
	c2.6-11.4-0.2-23.1-3.2-34.1l-2.1-7.7l2.5,1.4c1.6,0.9,3.5,2.3,5.4,2.5c2.4,0.4,4.6-1,5.4-3.3l1-0.2c1.8-0.5,3.2-1.9,3.7-3.6
	c0.2-1.1,0.3-2.3,0.1-3.4c-0.3-2.3-0.6-4.5-1.1-6.8c-1.8-8.3-5.7-16.1-10.1-23.3c-2.4-4-5.1-7.9-7.7-11.8c-1.5-2.1-4.5-3.3-6.9-1.8
	s-3.4,4.6-1.8,6.9c4.5,6.2,8.5,12.7,12.1,19.5l1.2,2.6l0.6,1.3v0.2c0,0.1,0,0.1,0.1,0.2c0.6,1.7,1.3,3.4,1.8,5.2
	c0.5,1.8,0.5,1.9,0.8,2.8C752.2,464.6,750.9,465.6,750.2,466.9z M751.4,518.4c0,0.1,0,0.1,0,0.2
	C751.3,518.5,751.3,518.4,751.4,518.4z"/>
</svg>
