<?xml version="1.0" encoding="utf-8"?>
<!-- Generator: Adobe Illustrator 24.2.3, SVG Export Plug-In . SVG Version: 6.00 Build 0)  -->
<svg version="1.1" id="e99585aa-11e0-4c31-baa1-81058b975899"
	 xmlns="http://www.w3.org/2000/svg" xmlns:xlink="http://www.w3.org/1999/xlink" x="0px" y="0px" viewBox="0 0 1152 864"
	 style="enable-background:new 0 0 1152 864;" xml:space="preserve">
<path d="M832.9,574.6c0.8-9.5,2.6-18.3,1.1-27.8c-1.5-8.5-4.9-16.5-8.5-24.3s-7.2-16.1-10.4-24.4c-6.6-17.2-12.3-34.8-15.5-52.9
	c-0.8-4.8-1.2-9.6-2-14.3c-0.8-4.7-1.8-9.6-2.5-14.4c-1.5-9.4-2.9-18.6-4.6-27.9c-3.3-18.3-7.2-36.2-12.9-53.9
	c-2.7-8.7-5.4-17.4-7.8-26.2c-2.4-8.8-5-18.3-5.7-27.7c-1.4-18.5,2.1-36.9,2.2-55.4c0-8.9-1.1-18-2-26.9c-0.6-9-2.2-17.9-4.5-26.6
	c-1.2-4.2-2.8-8.3-4.7-12.3c0-0.1,0-0.2-0.1-0.3c0-0.1-0.1-0.2-0.1-0.3c-1-2.1-3.4-3.1-5.6-2.2c-1.2,0.4-2.3,1.2-3.1,2.2
	c-3.2,4.2-6,8.6-8.4,13.3c-2.2,4.6-3.5,9.5-4.9,14.4c-2.8,10-5.3,20.1-7.9,30.1c-5.1,20.1-10.4,40.1-17.9,59.5
	c-7.5,19.4-15.8,37.3-24.6,55.6c-8.8,18.3-18.3,36.6-28.1,54.6c-10.7,19.6-22,39-33.7,58.1c-5.3,1.7-11.2-1.9-15.7-4.1
	c-6.2-3.3-13-5.5-20-6.3c-7.5-0.6-15-0.2-22.4,1.4c-6.7,1.4-13.1,3.8-19.6,5.6c-6.5,1.8-13.2,3.3-19.9,2.4
	c-6.7-0.9-14.7-2.6-22.2-3.4c-14.7-1.4-30-0.1-43.2,6.9c-1.5,0.9-2.9,1.8-4.2,2.8c-6.2-7.6-12.8-14.8-19.2-22.2
	c-3.1-3.5-6.3-7.1-9.1-10.8c-1.1-1.6-1.1-2.8-1-4.8c0.1-2,0.4-5.8,0.4-8.6c0-5.7-1.9-11.2-3-16.8c-1.1-5.6-2.2-11.2-3-16.9
	c-1.5-11.1-2.3-22.2-2.6-33.4c-0.1-5.9-0.1-11.7,0.1-17.6c0.2-5.9-1.5-11.3-2.8-17c-2.3-11-5.2-21.8-8.7-32.5
	c-3.6-10.2-6-20.8-7.1-31.6c-1.1-11.4-1-23.1-1.6-34.6c-0.6-11.5-2.9-25.3-4.2-38.1c-1.3-12.8-3.8-23.8-9.9-34.5
	c-0.5-0.9-1.3-1.6-2.3-2c-1.4-0.7-3.1-0.7-4.5,0.2c-2.6,1.7-6.4,3.5-7.9,6.2c-0.3,0.5-0.6,1.1-0.7,1.7c-6.7,8.7-9.3,20.3-11,31.3
	c-2.9,20-5.7,39.9-8.6,59.9c-2.9,20-5.8,42.5-9.1,63.8c-3.1,19.5-6.7,39-14,57.5s-18.3,33.6-26,51.2c-7.7,17.6-10.9,38.7-11.9,59
	s-0.8,40.4-4.7,60.3s-12.4,39.1-19.4,58.3s-12.5,39.3-9.9,59.7c2.6,20.4,13,36.3,21.3,53.9c2.1,4.4,3.9,8.8,5.4,13.4
	c2,6,11.7,3.4,9.6-2.7c-5.9-18.1-17.2-33.8-23.2-51.9s-3.6-38.7,2.3-57.5c5.9-18.8,14.7-37.5,20.3-56.8s6.9-39.6,7.6-59.6
	s1.1-39.9,6.9-59.1s16-33.7,24.5-50.2s14.1-35.6,17.7-54.5c3.9-20.5,6.5-41.3,9.4-61.9c2.9-20.6,6-42.1,9-63.1
	c1.2-8,2.1-16,3.6-23.9c1.5-7.9,3.1-13.8,7-19.7c0.5-0.8,1.1-1.5,1.8-2.2l1-0.5c3,7.6,5,15.6,5.7,23.7c1.2,11.5,3.2,22.8,3.9,34.3
	c0.7,11.5,0.9,22.8,1.6,34.2c0.7,11,2.6,21.9,5.8,32.4c1.6,5.4,3.6,10.6,5.1,16c1.5,5.4,2.9,10.8,4.1,16.2s2.7,11,3.7,16.6
	c0.5,2.8,0.1,5.7,0.1,8.5s-0.1,5.9-0.1,8.8c0.1,11.3,0.8,22.5,2.2,33.7c0.7,5.9,1.6,11.8,2.7,17.7c1,5.6,2.7,11.1,3.6,16.8
	c0.9,5.7-1.3,11.7,0.1,17.3c1.4,5.6,5.5,8.8,8.5,12.4c7.7,9.2,16.1,17.8,23.5,27.2c-5.1,6.6-9.1,14.3-14.6,20.4
	c-5.5,6.1,2.7,11.8,7,7s8.8-11.6,12.9-17.6c4.1-6,7.5-9.6,13.3-12.3c15.7-7,33-5.3,49.4-2.4c4.4,0.8,8.7,1.7,13.2,1.6
	c4-0.1,8.1-0.5,12-1.4c7.8-1.7,15.2-4.6,22.9-6.5c7.7-1.9,16.8-2.8,24.8-1.3s13.9,5.6,21,8.4c3.5,1.5,7.2,2.2,11,1.9
	c2-0.2,4-0.6,5.9-1.4c2.6-1.1,3.6-3.2,5-5.4c4.7-7.8,9.4-15.5,13.9-23.3c9.1-15.5,17.8-31.1,26.2-47c17-31.9,33.1-64.7,46.2-98.4
	c6.5-17,11.5-34.5,16-52.1l6.9-26.5c1.1-4.4,2.3-8.7,3.5-13s2.2-8.3,4.3-12.2l1.3-2.2l0.5,0.7c0.3,0.4,0.7,0.8,1.2,1
	c3.7,13.1,4.3,27,5.5,40.5c1.6,18.2-1.9,36.4-2,54.6c-0.1,18.2,4.9,36.9,10.4,54.8c2.6,8.8,5.7,17.4,8.1,26.3
	c2.4,8.9,4.4,17.7,6.1,26.7c3.6,18.5,6.4,37,9.5,55.5c1.6,9.3,2.7,18.5,4.9,27.6c2.1,8.8,4.7,17.5,7.7,26.1c3,8.7,6.3,17.2,9.7,25.6
	s7.5,15.7,10.5,23.9s4.9,16.1,3.8,24.5s-2.2,18.9-2.6,28.5s-0.4,19.1-0.2,28.6c0.1,2.2,0.2,4.4,0.2,6.6c0.3,2.3,0.3,4.5,0.2,6.8
	c-0.6,4-2.9,7.9-5,11.2c-4.2,6.7-9.6,12.4-13.8,19s-7,15.5-8.3,23.8c-0.7,4.4-1.1,8.9-1.4,13.3c-0.4,6.4,9.6,6.4,10,0
	c0.6-8.8,1.7-17.5,5-25.8s8-12.8,12.5-18.7s10.5-14.5,11-23c0.3-4.7-0.3-9.5-0.4-14.2s-0.2-9.5-0.1-14.3
	C831.7,593.6,832.1,584.1,832.9,574.6z"/>
<path d="M407.5,470.3c-12.6,10.2-22.4,23.2-30.6,37.2c0.1-4.8,0.5-9.7,1.1-14.5c0.1-0.6,0.1-1.1,0.2-1.7c0.1-0.6,0-0.3,0.1-0.3v-0.3
	c0.2-1.2,0.3-2.4,0.5-3.6l1.2-6.8c0.8-4.4,1.7-8.9,2.7-13.3c4.1-17.8,9.3-35.4,13.1-53.3c3.8-17.9,6.2-36.1,4.3-54.3
	c-2-20.1-9.7-39-14-58.7c-1.1-5-2-10-2.8-15.1c-0.4-2.5-0.6-4-0.9-6.8s-0.5-4.9-0.7-7.3c-0.8-10.1-1-20.2-0.5-30.3
	c0.1-2.6,0.3-5.1,0.5-7.6c0-2.8-2.2-5-5-5c-2.7,0.1-4.9,2.3-5,5c-1.7,20.4-0.6,41,3,61.2c1.9,9.9,4.3,19.7,7.2,29.4
	c2.8,9.6,5.7,19.2,7.4,29.2l0.3,1.8c0,0.4,0.1,0.7,0.2,1.1l0.3,3.1c0.2,2.3,0.4,4.5,0.5,6.8c0.2,4.4,0.2,8.8,0,13.3
	s-0.7,8.9-1.3,13.4c0,0.2,0,0.3-0.1,0.5c0,0.6-0.1,1.1-0.2,1.7c-0.2,1.1-0.3,2.2-0.5,3.4l-1.2,6.7c-3.5,17.9-8.6,35.5-12.9,53.3
	s-7.7,36.1-7.6,54.6c0,2.2,0.1,4.5,0.2,6.8c0.1,1.2,0.6,2.4,1.4,3.3l-1,1.9c-11,22.4-19.7,46.3-33.3,67.4c-7.5,11.6-16.6,22-24,33.6
	c-1.4,2.3-0.6,5.3,1.7,6.7l0.1,0.1c2.4,1.4,5.4,0.6,6.8-1.8c6.6-10.3,14.6-19.7,21.5-29.8c6.9-10.1,12.7-21.3,17.9-32.4
	c10.3-21.5,19-43.9,32-63.9c1.8-2.7,3.6-5.3,5.5-7.9l0.5-0.7l0.6-0.8l0.4-0.5l0.8-1l3-3.6c4.2-4.8,8.7-9.3,13.7-13.3
	c2-1.6,1.8-5.3,0-7S409.7,468.5,407.5,470.3z"/>
<path d="M295.7,585.4l0.3-1.6c0.1-1,0.3-2.1,0.5-3.1c0.4-2,0.9-3.9,1.4-5.9c3.9-15.4,11.3-29.5,15.8-44.7s5.9-29.7,6.5-44.7
	c0.6-15,0.6-29.8,1.7-44.6c0.3-3.7,0.6-7.3,1.1-11c0-0.3,0.1-0.7,0.1-1.1c0-0.4,0.1-0.5,0.1-0.6c0-0.1,0.3-1.8,0.4-2.7
	c0.1-0.9,0.6-3.6,1-5.4c1.4-7,3.4-13.9,6.1-20.6c0.1-0.1,0.2-0.3,0.2-0.5l0.6-1.3l1.2-2.5c1.1-2.4,0.7-5.5-1.8-6.9
	c-2.5-1.4-5.6-0.7-6.8,1.8c-6.8,13.9-10,28.8-11.6,44c-1.6,15.2-1.5,30.1-2,45.1c-0.3,7.5-0.6,15-1.4,22.5l-0.6,5.3
	c-0.1,0.2-0.1,0.3-0.1,0.5c-0.1,0.5-0.2,1-0.2,1.5c-0.2,0.9-0.3,1.8-0.5,2.7c-0.6,3.7-1.4,7.4-2.3,11c-3.9,15.5-11.3,29.7-15.9,44.9
	c-4.6,15.2-5.7,33.4-3.6,50.2c0.2,2.3,0.6,4.7,0.9,7s3.8,4.2,6.2,3.5s3.9-3.4,3.5-6.2c-0.2-1-0.3-2-0.5-3c0-0.2,0-0.3-0.1-0.5
	c0-0.5-0.1-1.1-0.2-1.6c-0.2-2.1-0.4-4.1-0.5-6.2c-0.7-8.2-0.5-16.5,0.5-24.8V585.4z"/>
<path d="M757.8,593c-2.2-1.1-4.3-2.3-6.3-3.6l-2.8-1.9l-1.4-1l-0.6-0.5l-0.4-0.3c-3.7-3-7.2-6.4-10.3-10c-0.7-0.8-1.4-1.6-2-2.5
	l-0.7-0.9l-1.2-1.7c-1.4-1.9-2.7-3.8-3.9-5.8c-2.5-4.1-4.7-8.4-6.8-12.7c-4.3-8.7-7.9-17.5-12.1-26.1c-3.6-7.4-7.9-14.5-12.8-21.2
	c8.1-15.1,8.1-33.1,6.8-49.8c-0.8-10.1-2-20.1-1.6-30.2c0.1-2.4,0.2-4.8,0.5-7.1c0-0.5,0.1-0.9,0.1-1.4c0-0.1,0-0.1,0.1-0.1
	c0-0.3,0-0.5,0.1-0.8c0.1-1,0.3-2,0.5-3.1c0.8-4.2,1.8-8.4,3-12.5c1.2-4.1,2.7-8.1,4.2-12.1l1.2-2.9l0.4-1l0.6-1.4l2.7-6
	c3.7-7.9,7.7-15.7,11.6-23.6c8.3-16.6,15.6-33.4,20-51.5c4.5-18.6,6.4-37.7,5.4-56.8c-0.1-2.4-0.3-4.8-0.5-7.2c-0.2-2.4-2.2-5.1-5-5
	c-2.8,0.1-5.3,2.3-5,5c0.8,9.3,1,18.7,0.4,28.1c-0.2,4.7-0.7,9.4-1.3,14c0,0.3-0.1,0.5-0.1,0.8l-0.3,1.7c-0.1,1.2-0.3,2.4-0.5,3.6
	s-0.9,4.6-1.3,6.8c-2,9.2-4.6,18.3-7.8,27.2c-0.8,2.2-1.6,4.3-2.5,6.4l-0.6,1.4c0,0.1,0,0.2-0.1,0.2c0,0.2-0.1,0.4-0.2,0.5
	c-0.4,1.1-0.9,2.1-1.4,3.2c-1.7,3.9-3.6,7.8-5.5,11.7c-7.7,15.8-16.2,31.3-22,47.9c-2.9,8.3-5,16.9-6.1,25.7
	c-1.2,9.7-0.6,19.4,0.2,29.2c0.8,9.8,1.8,19,1.4,28.5c-0.1,2.1-0.3,4.2-0.5,6.3c0,0.5-0.1,1-0.2,1.5c0,0.3,0,0.5-0.1,0.8
	c-0.1,1-0.3,2.1-0.5,3.1s-1,4.2-1.6,6.3s-0.7,1.9-1,2.9l-0.6,1.3c-5.1-5.3-11.1-9.6-17.8-12.7c-2.4-1.1-5.5-0.8-6.8,1.8
	s-0.8,5.7,1.8,6.8c2,0.9,3.9,1.9,5.7,3.1l2.6,1.7l1.2,0.8c0.2,0.2,0.5,0.3,0.6,0.5h-0.1l0.3,0.3c3.2,2.5,6.1,5.4,8.8,8.5
	c0.3,1.1,1.1,2,2.1,2.6l0.2,0.2l0.6,0.8l1.1,1.6c1.3,1.7,2.5,3.5,3.6,5.4c2.4,3.8,4.5,7.7,6.5,11.7c8.8,17.3,15.2,35.9,27.5,51.3
	c6.9,8.6,15.6,15.7,25.4,20.8c2.4,1.4,5.4,0.6,6.9-1.7C760.8,597.6,760.2,594.3,757.8,593z"/>
<path d="M791.9,568.7l-0.4-1l-0.3-0.5l-1.5-4.1c-0.9-2.8-1.7-5.7-2.3-8.6l-0.3-2c-0.1-0.3-0.1-0.6-0.2-0.8v-0.5
	c-0.2-1.6-0.4-3.3-0.4-4.9c-0.2-3-0.1-6,0.1-9l0.3-2.3v-0.5c0-0.1,0.1-0.5,0.1-0.7s0.5-3.2,0.8-4.8s1.3-6.1,2-9.1
	c1.5-6.3,2.7-12.7,3.5-19.1c2.5-22.8-6.8-44.3-13.8-65.4c-2-5.9-3.8-11.9-5.2-18l-0.9-4.6c-0.1-0.7-0.3-1.4-0.4-2.1
	c0-0.4-0.1-0.8-0.2-1.2c0-0.3-0.3-1.4,0-0.3c-0.3-1.4-0.3-3-0.5-4.4c-0.2-1.4-0.1-3.3-0.2-4.9c0-2.8-2.2-5-5-5c-2.7,0.1-4.9,2.3-5,5
	c0.4,23,10.6,44,17,65.7c1.6,5.3,2.9,10.7,3.8,16.1c0,0.3,0.1,0.6,0.1,1c0.1,0.1,0.1,0.3,0.1,0.4c0,0.2,0.1,0.6,0.1,0.7
	c0,0.3,0,0.5,0.1,0.8c0.1,1.4,0.3,2.9,0.3,4.4c0.2,2.7,0.2,5.4,0,8.1c0,1.5-0.2,3.1-0.4,4.6v0.2c0,0.4-0.1,0.8-0.2,1.2
	c-0.1,0.8-0.2,1.7-0.4,2.5c-0.5,3.2-1.2,6.3-1.9,9.4c-1.5,6.4-2.9,12.8-3.8,19.3c-1.7,14.2,0.9,28.6,7.4,41.4
	c1.1,2.4,4.6,3.2,6.8,1.8c2.4-1.4,3.2-4.4,1.8-6.8C792.6,570,792.2,569.4,791.9,568.7z"/>
</svg>
