<?xml version="1.0" encoding="utf-8"?>
<!-- Generator: Adobe Illustrator 24.2.3, SVG Export Plug-In . SVG Version: 6.00 Build 0)  -->
<svg version="1.1" id="f0bd0d14-cf2c-4cfb-beee-a49d9d65dbbc"
	 xmlns="http://www.w3.org/2000/svg" xmlns:xlink="http://www.w3.org/1999/xlink" x="0px" y="0px" viewBox="0 0 1152 864"
	 style="enable-background:new 0 0 1152 864;" xml:space="preserve">
<path d="M1045.1,393.3c-2.2-6.1-8.5-10.6-13.3-14.6s-12.5-9.8-18-15.5c-2.5-2.7-2.5-3.6-3.6-7c-1.8-5.6-4.6-10.8-8.3-15.4
	c-15.5-20.2-40.5-27.1-61-40.7c-10.7-7.1-19.8-16.3-30-24.1c-10.2-7.8-21.5-13.6-33.4-18.3c-11.9-4.7-23.2-8.2-34.6-12.7
	s-23-10.9-33.9-17.8c-21.2-13.4-44.7-28.8-71-26c-6.1,0.7-11.7,2.6-17.5,4.2c-2.7,0.7-5.4,1.2-8.1,1.5c-4,0.4-6.2,0.1-9.6-2
	c-9.8-5.8-20-10.9-30.5-15.1c-22.7-9.2-46.6-15.1-70.6-19.3c-23.4-4.2-47-7.1-70.7-8.9c-25.3-1.9-50.6,4.3-74.2,13
	c-23.6,8.7-47,20.1-70.2,30.5c-5.5,2.5-10.9,5-16.5,7.2c-3.1,1.2-6.8,2.8-9.9,1c-3.1-1.8-4-3.9-6-5.6c-8.5-7.1-19.8-7.5-30.2-5.2
	c-10.4,2.3-21.6,7.9-31.9,12.8c-10.3,4.9-23.2,11-34.7,16.6c-23.4,11.6-46.6,23.7-69,37.2c-21.8,13-42.5,27.6-62,43.8
	C107.2,329,87.8,347,81.3,372.1c-6.1,23.5-1.6,48.6,8.1,70.4c7.9,17.7,13.4,36.1,19.7,54.4c6.3,18.3,12,35.9,23.3,50.6
	c5.9,7.5,13.7,13.4,22.5,17.1c7.6,3.2,16,5.1,22.8,9.9c8.9,6.3,10.9,17.6,13.1,27.5c2.8,12.6,4.3,25.8,8.8,38
	c3.5,9.6,9.5,18.9,19.9,21.8c10.4,2.9,23.2-2.6,32.1-9.4c36-27.4,52.3-72.5,57.8-115.9c1.6-11.7,2.1-23.6,3.4-35.3
	s3.4-25.6,4.9-38.4c2.4-20.1,4-40.7,1.1-60.7c2.7-20.4,10.4-40.4,17.8-59.5c8.8-22.5,18.8-44.6,29.5-66.3
	c4.2-8.7,8.6-17.3,13.2-25.8c2.7-4.8,1.4-10.1-4.6-11.4s-11.4,2.3-16.1,4.6c-21.6,10.6-41.8,26.1-54.1,47.2
	c-10.4,18-14.3,39.1-10.8,59.7c1.8,11.5,6.6,21.5,10.3,32.4c2.2,6.4,3.8,12.9,4.7,19.6c0,0.7,0.1,1.4,0.3,2c1,7.2,1.4,14.4,1.3,21.6
	c-0.1,30.1-6.6,59.8-8.9,89.8c-2.1,26.5-6.3,52.9-17.2,77.4c-5.1,11.8-11.7,22.8-19.8,32.8c-8.1,9.8-18.4,20.6-30.5,25
	c-6.3,2.2-12.9,2.1-17.9-2.7s-6.6-10-8.3-15.6c-4.5-15.3-5.9-31.3-10.6-46.6c-3.3-10.5-9.7-18.6-19.6-23.4
	c-9.9-4.8-18.9-6.5-27.3-12.1s-14.2-14.9-18.7-24.1s-9-21.5-12.8-32.5s-7.3-22.4-11.2-33.5c-3.9-11.1-8.7-20.4-12.5-30.9
	c-10-28.2-9.1-59.3,10.6-83c9.5-11.4,20.9-21.2,32.4-30.5c11.7-9.5,23.9-18.4,36.5-26.6c25-16.5,51.4-30.9,78.2-44.3
	c13.5-6.8,27.1-13.3,40.7-19.7c13.6-6.4,25.1-13.4,38.8-14.4c6-0.5,12,0.6,16.5,4.9s9,8.5,16.4,7.8c7.4-0.7,13.6-4.5,19.9-7.3
	s13.4-6,20.1-9.1c27.3-12.6,54.8-25.7,84.4-32.4c29.6-6.7,56.8-2.7,85.2,1.1c28.4,3.8,56,9.2,82.8,18.6c12.9,4.4,25.3,10,37.1,16.8
	c6.2,3.5,10.4,5.9,17.8,5.2s14.1-3.3,21.3-4.9c31-7.1,58.4,17.6,83.3,31.8c24.9,14.2,54.8,18.8,79.4,34.2
	c12.8,7.9,23.2,19,35.3,27.8s27,15,40.4,22.8c11.4,6.7,22.8,15.6,27.8,28.2c1.7,4.2,2.1,7.9,5.1,11.5c2.7,3.1,5.6,5.9,8.8,8.4
	c6.8,5.8,15.3,11.1,20.8,18.2c2.2,2.8,2.4,7.8,2.1,12.1c-0.4,5.4-1.9,10.6-4.4,15.4c-4.7,9.8-11.1,18.9-13.8,29.5
	c-1.3,4.9-1.7,10-3.3,14.8c-1.5,4.6-3.5,9-5.9,13.2c-10.6,18.1-27.9,31.7-44.7,43.9s-36.8,24.7-53.5,39.3
	c-8.4,7.3-16,14.8-20.2,25.3s-5.6,24.8-12.6,35.4s-19,19.5-31.9,19.2s-22.1-11.8-27.7-22.7c-13.3-25.5-20.1-55.1-24.6-83.3
	s-6.4-58.9-8.1-88.4c-0.2-2.5-0.3-5.1-0.5-7.7c0.2-0.7,0.1-1.4-0.1-2.1c-3.1-55.2-6.5-112.2-28.2-163.7
	c-10.4-24.7-29.5-49.7-58.7-50.7c-2.8-0.1-6.7-0.5-9,1.3c-2.3,1.8-3.2,4.2-4.1,6.4c-1.9,4.6-2.6,9.5-2.3,14.4
	c0.6,11.2,5,22,10.1,31.8s10.1,16.3,15.9,24c5.5,7.6,10.4,15.5,14.9,23.7c11.2,20.1,20.9,41.2,30.2,62.3
	c7.6,17.3,14.9,34.8,21.4,52.6c1.1,20.1,2.2,40.2,4.1,60.2c2.3,24.9,5.8,49.9,12.1,74.1c3.1,12,6.9,23.8,11.6,35.3
	c4.2,10.4,8.8,20.8,16.4,29.3s17.1,13.4,28,13.2s20.8-5.4,28.8-12.3s13.7-16.5,17-26.9s4.7-21.8,11.3-30.5
	c5.3-7,12.7-12.9,19.5-18.3s14.8-11.2,22.3-16.5c15.8-11.1,32-21.8,46.4-34.6s24.6-25,30.7-41.4c3.1-8.2,3.3-17.1,6.8-25.1
	s9.5-17,13-26.1C1047.1,412.2,1048.2,402.2,1045.1,393.3z M305.2,357c-2.1-8.4-3.1-17-2.7-25.7c0.8-17.9,8.3-35,20.1-48.5
	c6.5-7.4,13.9-14,22-19.5c4.6-3,9.3-5.9,14.2-8.4c2.8-1.5,5.6-3,8.5-4.3l0.8-0.3c-8.9,16.8-17.2,34-25,51.4
	c-10,22.2-19.4,44.7-26.7,68c-1,3.3-2,6.7-3,10.2C310.7,372.2,307.3,364.9,305.2,357z M749.7,354.5c-6.8-14.4-14-28.6-22.1-42.3
	c-6.8-11.3-15.4-21.1-22.1-32.3c-6.7-11.2-17.6-31.6-10.1-45.5c24.9-0.8,42,20.6,51.4,41.6c10.2,22.7,16,47.4,20,71.8
	c3.4,20,5.3,40.2,6.7,60.4C766.1,390,758.1,372.1,749.7,354.5z"/>
</svg>
