<?xml version="1.0" encoding="utf-8"?>
<!-- Generator: Adobe Illustrator 24.2.3, SVG Export Plug-In . SVG Version: 6.00 Build 0)  -->
<svg version="1.1" id="b0d01686-aeef-4270-861c-905413efd5a2"
	 xmlns="http://www.w3.org/2000/svg" xmlns:xlink="http://www.w3.org/1999/xlink" x="0px" y="0px" viewBox="0 0 1152 864"
	 style="enable-background:new 0 0 1152 864;" xml:space="preserve">
<path d="M961.3,445.1c-0.2-1.8-0.4-3.5-0.5-5.3c0-0.5,0.1-0.9,0.2-1.4l1.9,1.6c2.6,2,5.7,4.6,9.2,3.7c3.5-0.9,6.5-7.4,6.8-11.6
	c0.1-2.6,0-5.2-0.2-7.8c0-3,0.2-5.9,0.6-8.9c0.5-5.7,0.7-11.5,0.6-17.2c-0.2-20.4-4.6-40.6-12.8-59.3c-15.5-35-44.8-61.3-75.9-82.4
	l-5.8-3.9c2.7-5,1.9-12.5-0.7-17.7c-5.3-10.6-10.8-21.7-18.1-31.1s-19.1-15.8-31-20.7c-11.9-4.9-25.4-9.3-38.4-13.5
	c-13-4.2-24.3-7.9-36-13c3-5.3,2.8-13-1.4-17.7c-4.2-4.7-16-3.4-22.7-2.5c-6.7,0.9-10.5,1.5-15.7,2.2c-2.9,0.4-7.7,1.1-9.8,0.7
	s-5.3-1.7-7.5-2.4c-4.2-1.5-8.4-3-12.7-4.3c-7.8-2.4-15.8-4.3-24-4.4s-17.9,2.7-26.1,6.6c-5.5,2.7-10.9,5.7-16.2,8.8
	c0.5-1.6,0.9-3.3,1.4-4.9c1.3-4.4,2.8-8.7,4.4-13c3.1-8.4,6.8-16.6,10.4-24.7c1.7-3.7-1.1-8.9-5.6-7.4c-10.3,3.4-18.7,10-26.8,17.1
	c-7.8,6.8-15.2,14.1-22.1,21.8c-3.5,3.8-6.8,7.8-10,11.9l-4.7,6l-2.1,2.9c-1.1,1.6-1.2,2.5-3,2.7s-5.2-0.9-7.3-1.5
	c-2.1-0.6-5.6-1.8-8.4-2.8c-5-1.7-10.1-3.5-15.2-4.8c-5.1-1.3-10.4-2.5-15.6-3.4c-5.2-0.9-11.8-0.7-17.6-1.6
	c-11.4-1.8-22.9-3.3-34.3-4.6c-11.4-1.3-24.5-2.6-36.8-3.5c-12.3-0.9-22.5-2-33.7-1.8c-8.9,0.1-20,3-22.3,12.9
	c-0.9,4.1-0.2,8.3,1.9,11.9c-22.8,11.6-45.4,23.5-67.9,35.7c-19.7,10.6-45,21.5-55.8,42.4c-3,5.8-3.6,14.6,0.5,19.5
	c-22.4,27.4-44.7,55.3-62.6,85.9c-9.4,15.8-17.3,32.4-23.6,49.6c-3.1,8.8-5.7,17.7-7.7,26.8c-1.7,7.7-3.3,16.7,1.7,23.6
	c2.4,3.4,6.6,4.5,9.1,7.7s1.7,8.1,1.1,11.7c-1.7,9.5-3.9,18.8-4.9,28.5c-2.1,20.7-0.9,41.6,3.5,61.9c0.8,3.7,1.4,7.8,3.9,10.8
	s7.3,3.4,11.8,2.4c7.6-1.6,12.2,7.5,14.8,13.3c6.7,14.9,11.9,30.5,18.2,45.5c7.1,16.7,15.3,33.1,27.4,46.8
	c7.6,8.8,24.4,25,37.6,20.5c6.1,15.9,17.7,31.1,33,38.6c9.2,4.6,18.6,2.2,24.4-6.3s4.6-16.6,7.2-24.9c6.5,1.2,13.2-1.1,18.3-5.7
	c7.7-6.9,9.4-17.8,9.1-27.7c-0.5-19.8-4-40-8.8-59.4c1.7,1,3.9,2.3,5.7,2.3c1.5,0,2.9-0.6,3.9-1.7l0.2,0.3c1.3,2.5,2.7,4.8,4,7.2
	c3,5.8,5.8,11.6,9.1,17.2c1.4,2.4,4.5,3.2,6.9,1.8c2.4-1.4,3.2-4.5,1.8-6.9c-2.4-4-4.6-8.1-6.7-12.3c-2.1-4.2-3.9-7.3-5.9-10.9
	s-4.1-6.8-8.2-8.3c-2.5-0.9-5.2-0.1-6.7,2.1c-3.2-1.7-6.3-3.6-9.2-5.7l-1.6-1.2l-0.3-0.2l-0.4-0.2l-3-2.6c-2-1.7-3.9-3.6-5.7-5.5
	l-2.3-2.7l-1.3-1.5c0-0.1-0.2-0.3-0.3-0.4c-0.2-0.2-0.4-0.4-0.5-0.7c-1.5-2.1-2.9-4.3-4.2-6.5c-0.6-1-1.2-2.2-1.8-3.3l-0.9-1.8
	l-0.3-0.8c-0.2-0.2-0.3-0.4-0.3-0.7c-1.1-2.5-2-5.1-2.7-7.7c-0.8-3-1.4-6-1.8-9l-0.3-2c0-0.1,0-0.1-0.1-0.2c0-0.1,0-0.2,0-0.3
	c0,0,0-0.1,0-0.1c0-0.3-0.1-0.6-0.1-0.8c0-0.4-0.4-3.1-0.5-4.6c-0.7-6.4-1.2-12.7-2.1-19.1c-0.2-1.4-0.5-2.9-0.7-4.3v-0.2
	c0.1-0.4,0.1-0.7,0-1.1c0-0.9-0.1-1.7-0.2-2.6c-0.3-3-0.4-5.9-0.4-8.9c0.1-0.3,0.1-0.7,0.1-1v-0.2h0.1c0.2-0.7,0.3-1.5,0.5-2.2
	l0.2-0.4l0.3-0.6c0.3-0.7,0.7-1.3,1-1.9l0.2-0.3h0.1l0.3-0.3c0.1,0,0.1,0,0.1-0.1l0.4,0.5l1.5,1.7l0.8,1c0,0.1,0,0.1,0.1,0.2
	l0.2,0.2c0.5,0.6,1,1.3,1.4,2c2,2.7,3.8,5.5,5.5,8.4c3,4.8,5.8,9.9,8.6,14.8c0.3,0.7,0.7,1.3,1,1.9c0.7,1.1,1.8,2,3.1,2.3
	c0.9,0.2,1.8,0.2,2.6-0.1c0.8-0.2,1.5-0.6,2.1-1.2c1.1-0.9,1.6-2.2,1.5-3.6c-1.8-16.8-2.6-33.7-2.4-50.6c0.1-8.5,0.4-17,0.9-25.5
	c0.2-3.5,0.5-6.9,0.4-10.3c0-2.5,0.1-4.9,0.3-7.4v-0.6v-0.1c0,0,0,0,0-0.1c0.1-0.2,0.1-0.4,0.2-0.5c0.1-0.6,0.2-1.3,0.4-1.9l0.6-1.8
	c0.1-0.1,0.2-0.3,0.2-0.4c2,8.8,5.7,17,10.9,24.3c1.3,1.7,3.4,3,5.6,2.3c2.1-0.7,3.6-2.7,3.7-4.9c0.1-0.3,0.1-0.7,0.1-1
	c0.1-0.1,0.1-0.3,0.1-0.4c0-0.2,0-0.4,0.1-0.6c0-0.3,0.1-0.6,0.1-0.8c0-0.2,0.4-2.6,0.7-3.9s1.1-5.2,1.8-7.8
	c1.2-4.8,2.8-9.5,4.8-14.1c1.8-4.2,3.8-8.3,6.1-12.3c2.3-4,4.8-7.8,7.6-11.5l1-1.4l0.3-0.4l0.2-0.3l2.2-2.7c1.5-1.8,3-3.5,4.6-5.2
	c3.2-3.4,6.6-6.6,10.1-9.7c0.8-0.8,1.7-1.5,2.6-2.2l1.3-1.1l0.6-0.4l0.3-0.3l5.9-4.2c3.9-2.6,8-5,12.2-7.1l3.5-1.7l1.8-0.9l0.9-0.3
	l0.8-0.4h0.2l1.2-0.5l1.8-0.7l3.9-1.4c5.1-1.7,10.2-3,15.5-3.9c2.6-0.5,4.3-3.8,3.5-6.2c-0.8-2.6-3.5-4.1-6.1-3.5
	c-20,3.6-38.5,12.8-54.2,25.5c-15.2,12.3-27.4,27.9-35.5,45.7c-3.1,6.9-5.6,14.1-7.4,21.5l-0.2-0.6c-0.2-0.4-0.4-0.7-0.5-1.1
	c-0.9-2.5-1.7-5-2.3-7.5c-0.3-1.4-0.6-2.8-0.8-4.1c-0.2-1.3-0.1-0.7-0.1-1h-0.1c0-0.8-0.1-1.5-0.2-2.3c-0.3-2.9-3-6-6.3-4.8
	c-6.4,2.2-11.2,7.5-12.8,14c-1.5,5.6-0.8,11.3-1.2,17c-1.3,17.5-1.6,35.1-1,52.7l0.3,8.1c-1.3-2.2-2.7-4.3-4.2-6.3
	c-2-3-4.2-5.8-6.7-8.3c-3.2-2.7-7.8-2.8-11.2-0.4h-0.1l-0.3,0.2l-1.4,1.1c-0.7,0.7-1.3,1.4-1.9,2.2c-1.1,1.6-2,3.4-2.7,5.2
	c-1.2,3.4-1.6,6.9-1.4,10.5c0.1,1.6,0.3,3.3,0.4,4.9c0.1,1.6,0.1,4.2,0.4,6.3c0.6,3.8,1,5.8,1.4,9.4c0.4,3.6,0.7,7,1,10.6
	c0.5,7.2,1.7,14.3,3.4,21.3c3.6,12.2,10.2,23.2,19.3,32.1c2.7,2.7,5.6,5.2,8.6,7.5c5.2,18.7,8.7,37.9,10.5,57.3
	c0.8,8.2,2.1,17.7-1.5,25.4c-2.6,5.4-9.5,10.7-15.5,7.6c-2.3-1.2-5.7-0.8-6.9,1.8c-3.7,7.7-3.3,16.2-6.3,24.1
	c-1.1,2.8-2.9,5.9-5.6,7.4s-7.8-0.3-11.1-2.4c-13.1-8.6-22.6-21.8-26.8-36.9c-0.8-2.7-3.7-4.2-6.4-3.4c-0.8,0.2-1.5,0.6-2,1.2
	c-4.8,5-13.6-1.7-17.6-4.8c-5.9-4.7-11.3-10-15.9-16c-9.1-11.8-15.8-25.5-21.6-39.2c-5.8-13.7-11.2-29-17.2-43.3
	c-3-6.9-6.5-14-12.8-18.5c-2.7-2-5.8-3.1-9.1-3.4c-1.7,0-3.4,0.1-5.1,0.5c-0.3,0.1-2.1,0.8-2.1,1c0-0.2-0.7-2.2-0.9-2.6
	c-4.8-18.6-6-38.5-4.6-57.7c0.8-9.8,2.3-19.4,4.4-29c1.6-7.2,2.8-15.6-1.5-22.2c-2.1-3.3-5.3-4.7-8.2-7.1c-2.9-2.4-3.1-6.7-2.7-10.4
	c1-8.3,3.6-16.7,6.1-24.6c5.3-16.6,12.3-32.6,20.9-47.8c19.3-34.9,44.5-66,69.6-96.7c2.7-3.3,1-8.4-3.5-8.5
	c-0.3-0.1,0.2,0.8-0.5-0.5c-0.2-0.8-0.3-1.6-0.3-2.4c0-1.9,0.5-3.7,1.4-5.4c2.8-5.6,7.6-10.3,12.2-14.3c9.8-8.4,21.6-14.3,32.9-20.4
	c27.2-14.8,54.6-29.2,82.3-43.3c4.4-2.2,2.4-9.5-2.5-9.3c-1.8,0.1-2.3-1.9-2.3-3.5c-0.1-3.5,2.7-5.1,5.8-6c3.1-0.9,7-0.9,10.5-0.8
	c5.8,0.2,11.5,0.6,17.2,0.9c22,1.4,43.9,3.5,65.6,6.3l14.2,2.1c5.4,0.9,10.7,0.9,16.1,1.4c9.5,1,19.3,3.7,28.3,6.7
	c4.7,1.6,9.2,3.4,13.9,4.7c4.7,1.3,10.2,2.9,14.6,1.3s5.7-5.2,7.9-8.2s6.3-8.3,9.7-12.3c7-8.3,14.5-16.1,22.5-23.4
	c4.7-4.5,9.8-8.7,15.2-12.5c-2.4,5.6-4.7,11.2-6.7,16.9s-3.4,10.1-4.7,15.2c-1.3,5.1-2.6,9.6-0.1,14.3c1.4,2.4,4.4,3.2,6.8,1.8
	c5.8-3.8,11.6-6.8,17.6-10.2c5.8-3.5,12.1-6.2,18.7-7.8c13.9-3.2,27.9,2.1,40.9,6.6c4.2,1.4,8.4,3.4,12.9,3.6c3.2,0,6.4-0.3,9.6-0.9
	c8-1,16-2.6,24-3.1c1.8-0.1,3.7-0.1,5.5,0c0.1,0.1,0.3,0.2,0.9,0.2c0.7,2,2.1,6.9-1.3,6.7c-3.4-0.2-7,7.1-2.5,9.3
	c21.5,10.8,44.9,16.8,67.5,24.7c10.9,3.8,22.1,7.9,32.1,13.8c10,5.9,14.3,14.4,19.1,23.2l8.4,15.8c1.1,1.8,1.6,3.8,1.6,5.9
	c0.1,0.8,0,1.6-0.3,2.4c-0.5,1.1-0.3,0.5-0.4,0.5c-2.8,0-5,2.3-4.9,5.1c0,1.7,0.9,3.4,2.4,4.2c30.2,19,59.4,41.9,77.6,73.2
	c9.3,16.1,15.2,33.9,17.3,52.3c1.2,10.4,1.3,20.9,0.5,31.4c-0.4,5.5-0.4,10.7-0.4,16.2c0,0.5-0.1,1.1-0.2,1.6l-0.3-0.2
	c-2.4-2-5-4.6-8.1-5.4s-6.8,1.5-8.2,4.9c-3.1,7.1-0.9,16.3,1,23.4c2.3,9.1,7,16.9,10.3,25.7c4.2,10.8,6.8,22.2,6.5,33.9
	c-0.5,11.6-3.9,22.9-10.1,32.8c-0.9,1.4-1.9,2.7-2.7,4.1s-0.7,2.4-1.3,3s-0.9-0.3-1.9-0.6c-1.2-0.3-2.4-0.4-3.6-0.5
	c-3.9,0.2-7.6,2-10.1,5.1c-2.6,3-4.5,6.6-7.1,9.6s-6.8,4.5-10.1,6.9c-7.2,5.1-13.3,11.5-18.1,18.9c-9,13.9-13.2,30.3-17.9,46
	c-2.1,7.4-4.7,14.6-8,21.5c-3,6.2-7.3,13.8-13.5,17.3c-3.3,1.9-8,3-10.9-0.1c-2-1.9-5.3-1.9-7.2,0.2c-0.5,0.6-1,1.3-1.2,2
	c-4.2,15.1-13.7,28.3-26.8,36.9c-3.1,1.9-7,4.3-10.7,2.6s-4.7-4.3-5.8-7.1c-3.3-7.9-2.8-16.7-6.5-24.6c-1.2-2.6-4.6-3-6.9-1.8
	c-5.8,3-12.5-1.8-15.1-7c-4-7.8-2.7-17.6-2-26c1.8-18.8,5.2-37.3,10.1-55.5c3.2-2.2,6.3-4.5,9.3-6.9l7.1-5.5c2.8-2,5.4-4.2,7.8-6.6
	c4.6-4.6,8.7-10.2,10.6-16.4s-0.1-14.7-2.2-21.7c-0.5-1.6-1-3.2-1.4-4.8s-0.1-0.5,0-0.3c-0.1-0.4-0.1-0.8,0-1.2
	c0-0.9-0.1-1.8-0.1-2.6s0.1-0.3,0.2-0.5s0.1-0.8,0.2-1.1s0.5-2,0.7-2.9s0.7-3.7,0.9-5.5c1.2-7.3,1.7-14.7,1.3-22.1
	c-0.2-3.6-0.4-7.1-2.4-10.2c-2-3.1-5-5.8-8.6-6.3c-3-0.5-6,0.4-8.3,2.3c1.6-3.5,2.8-7.2,3.7-11c1.7-8.6,1.4-17.5-1.1-25.9
	c-1.3-4-3-7.9-5-11.6c-1.5-3.1-3-6.3-4.7-9.4c-4.2-7.7-9.3-14.6-16.4-19.8c-1.5-0.9-3.5-0.9-5,0c-1.5,0.9-2.5,2.5-2.5,4.3
	c-0.1,0.7-0.1,1.3-0.2,1.9c-0.1,0.6-0.2,1.3-0.2,1.5s-0.5,2.7-0.8,4.1c-0.3,1.4-0.8,3.1-1.3,4.6c-2.1-18.1-7.3-35.7-15.3-52.1
	c-5.5-11.1-12.1-21.7-19.8-31.4c-7.2-9.1-16.4-16.5-26.9-21.6c-11.8-5.8-25-8.6-38.1-7c-2.6,0.3-5.1,2.1-5,5c0.1,2.9,2.2,5.4,5,5
	c2.7-0.3,5.4-0.5,8.1-0.4h3.8l1.9,0.2h0.7c0.2,0,0.7,0.1,0.7,0.1c2.7,0.4,5.3,1,7.9,1.7l3.7,1.2l1.7,0.6l0.9,0.4l0.8,0.3l0.5,0.2
	l1.1,0.5l1.7,0.8l3.6,2c2.4,1.3,4.7,2.8,6.9,4.4l0.8,0.6l0.5,0.3l0.4,0.4l0.8,0.6l3.2,2.7c2,1.9,4,3.9,5.8,5.9s3.5,4.2,5,6.4
	c1.8,2.4,3.5,4.8,5.1,7.3c3.2,4.9,6.2,10,8.8,15.2c5.3,10,9.4,20.7,12.1,31.7c0.8,3.1,1.5,6.3,2.1,9.5c0.3,1.5,0.6,3,0.8,4.5
	c0.2,0.8,0.3,1.6,0.4,2.4v0.3c0.1,0.5,0.2,1,0.2,1.5c0.8,6.5,1.1,13,1,19.5c0,2.3,1.4,4.3,3.6,4.9c2.2,0.5,4.4-0.4,5.7-2.3
	c5.1-7.1,8.7-15.1,10.7-23.6l0.9,1.2h0.2c0,0.1,0,0.1,0.1,0.2l0.7,0.9l1.3,2c1,1.5,1.9,3.1,2.7,4.7c1.8,3.1,3.3,6.3,4.9,9.4l2,4.4
	c0.8,1.4,1.5,2.9,2,4.4c0.7,1.9,1.3,3.9,1.7,5.9c0.4,1.7,0.7,3.4,0.8,5.1c0.1,1.9,0.1,3.7,0.1,5.5s-0.1,1.8-0.2,2.7v1l-0.3,1.4
	c-1.5,8.3-5.3,14.9-8.5,22.7c-2.8,6.9-5,14.1-6.6,21.4c-0.4,1.9-0.7,3.9-0.9,5.9c0,2.2,1.5,4.2,3.6,4.8l1.1,0.2h1.3
	c0.1,0,0.1,0,0.1-0.1c1.3-0.3,2.5-1.1,3.2-2.2c3.6-5.4,7-10.9,10.2-16.4l4.7-8.4c0.6-1.1,1.2-2.1,1.9-3.1c0-0.1,0-0.1,0.1-0.1
	l0.4-0.6l1.3-1.3l0.5-0.3h0.2l0.3,0.2h0.1c0,0.1,0,0.1,0.1,0.2l0.8,0.9l0.6,0.9l0.2,0.3c0,0.1,0,0.2,0.1,0.3c0-0.1,0,0,0.1,0.3v0.2
	c0,0.5,0,1.1,0.1,1.6c0.4,6.2,0.3,12.4-0.4,18.6c-0.2,1.4-0.3,2.1-0.6,3.8s-0.6,3.3-0.9,4.9s-0.8,3.1-1.1,4.6
	c-0.2,1.7-0.2,3.3-0.1,5c0,3.3,1.1,6.5,2,9.6c0.9,2.7,1.6,5.5,2.1,8.3c0.1,0.1,0.1,0.2,0.1,0.3c0.1,0.3,0,0.3,0,0.2
	c0,0.2,0.1,0.5,0.1,0.8c0,0.4,0.1,1.4,0.1,2.1c0,1.3-0.2,2.5-0.7,3.7c-0.4,1.1-0.8,2.1-1.3,3.1l-2.1,3.4c-0.1,0.2-0.8,1-0.8,1.1
	l-1.1,1.3c-0.8,1-1.7,2-2.7,2.9c-0.9,1-1.9,1.9-2.9,2.7L794,577l-8,6.1l-1.9,1.5l-0.3,0.3l-0.9,0.6l-3.8,2.8l-1.8,1.3
	c-1.2,0.2-2.3,0.9-3,1.9l-2.8,1.6c-1.3,0.7-2.6,1.4-4,2h-0.3c-1.2-2.5-4.2-3.5-6.7-2.3c-0.1,0.1-0.2,0.1-0.3,0.2
	c-2.8,1.4-5.8,2.8-7.3,5.8s-2.5,5.1-3.9,7.6c-2.6,5.2-5.5,10.4-8.5,15.4c-1.4,2.3-0.6,5.3,1.7,6.7l0.1,0.1c2.4,1.4,5.4,0.6,6.8-1.8
	c2.9-4.6,5.5-9.4,8.1-14.3l3.6-7.1c0.1-0.2,0.2-0.3,0.2-0.5c1.6,1.3,3.7,1.7,5.6,1c1.4-0.3,2.7-0.8,4-1.4
	c-4.8,19.3-8.2,39.2-8.7,58.9c-0.3,9.7,1.3,20.5,8.7,27.4c5.2,4.8,12,7.2,18.7,6c2.6,8.3,2,17.4,7.2,24.9s15.1,10.8,24.4,6.3
	c15.3-7.5,27-22.8,33-38.7c6.8,2.2,14.9-0.3,20.4-4.9s10.7-12.4,14-19.5c7.4-15.4,10.5-32.4,16.5-48.3c2.8-7.9,6.7-15.4,11.7-22.1
	c2.7-3.6,5.9-6.8,9.4-9.6c3.6-2.9,8-4.8,11.7-7.7s5.7-6.4,8.1-9.9c0.9-1.2,2-3,3.4-3.8s2.5-0.2,4.1,0.2c2.6,0.8,5.4,0.5,7.9-0.7
	c2.4-1.4,3.2-3.6,4.3-6c2.7-5.6,6.5-10.4,8.9-16.2c9.7-23.3,5.7-48.6-4.4-71.1C966.2,461.6,962.8,454,961.3,445.1z M752.4,145.6
	C752.9,145.6,752.7,145.8,752.4,145.6L752.4,145.6z"/>
<path d="M378.1,287.2c4.2-4.7,8.5-9.1,13-13.4s9.3-8.5,14.2-12.4l1.9-1.5c0,0.1,0.3-0.2,0.5-0.4l0.5-0.3l4-3.1l7.7-5.3
	c2.9-1.9,5.9-3.8,9-5.6l2.1-1.2l0.8-0.5h0.5l1-0.3h0.2l0.5,0.3c2.1,1.6,5.7,0.4,6.8-1.8s0.5-5.1-1.8-6.8s-8.3-1.7-12,0
	c-2.9,1.4-5.6,3-8.2,4.8c-5.6,3.6-11.1,7.4-16.3,11.5c-10.7,8.1-20.7,17.2-29.7,27.1c-5.3,5.7-10.2,11.7-14.8,18
	c-1.2,1.6-0.7,4.1,0.4,5.6c1.2,1.5,3.3,2.2,5.2,1.8h0.4c0-0.1,0-0.1,0.1-0.1h0.5c0.5,0.2,0.4,0.1-0.1-0.1h0.1l0.9,0.5
	c0,0.1,0,0.1,0.1,0.2l0.8,0.7v0.4l0.5,0.7l0.3,0.7v0.3h0.1v2l-0.6,2.2c-0.1,0.2-0.2,0.4-0.2,0.6c0-0.1-0.3,0.6-0.3,0.7
	c-0.7,1.4-1.5,2.8-2.3,4.1l-5.5,8.3l-11.9,17.6c-3.7,5.6-7.7,11-10.8,16.8c-1.3,2.4-3.1,6.8-4.1,9.9c-1.2,3.9-1.8,8.1-1.3,12
	c0.3,2.5,2,5.1,5,5c3-0.1,5.3-2.3,5-5c-0.2-1.6-0.3-3.1-0.2-4.7l0.8-4.1c0.3-0.9,0.5-1.7,0.8-2.5l0.4-1c0-0.1,0.1-0.3,0.2-0.4
	c0.7-1.5,1.4-3,2.2-4.5c3.5-6.3,7.7-12.1,11.7-18.1l12.8-18.8c3.9-5.8,8.4-11.8,8.4-19.1c-0.1-4.9-2.5-9.4-6.4-12.3l1.1-1.5
	L378.1,287.2z"/>
<path d="M524.7,261.5l-6.1-6l-1.1-1.1l-0.5-0.6c-0.1,0-0.1,0-0.1-0.1c0-0.1-0.2-0.4-0.3-0.4s0-0.1-0.1-0.2v-0.8
	c0.1-0.2,0.2-0.4,0.2-0.6c0.2-0.4,0.4-0.8,0.7-1.1l0.2-0.3l0.3-0.4l1.1-1.1l0.4-0.3h0.2c0.9-0.7,1.9-1.2,2.9-1.7
	c4.9-2.4,9.6-4.5,12.7-9.2c1.6-2.2,0.4-5.4-1.8-6.8c-18.9-12-42-15.8-64.2-15.1c-7.3,0.2-14.6,0.9-21.9,1.9
	c-2.6,0.4-4.2,3.8-3.5,6.2c0.7,2.4,3.4,3.9,6.2,3.5h1.4l2.3-0.3l4.7-0.5l9.1-0.6c5.6-0.2,11.3-0.1,16.9,0.3l4.1,0.3l2,0.2h1.3
	c2.7,0.4,5.3,0.8,7.9,1.4c5,1,9.9,2.4,14.6,4.2l2,0.8l0.7,0.3l0.4,0.2l3.8,1.7l0.9,0.6l-5.1,2.5c-4.6,2.4-9.3,6.6-10.2,11.9
	c-0.7,3.2,0,6.5,1.9,9.1c1.8,2.2,3.8,4.3,6,6.3l12.5,12.3l14.3,14c1.9,1.9,5.1,1.9,7,0c1.9-1.9,1.9-5.1,0-7L524.7,261.5z"/>
<path d="M771.7,306c0-0.1,0-0.1,0.1-0.2c0.1-0.2,0.2-0.4,0.4-0.6c0.1-0.2,0.1-0.3,0.2-0.4l0.7-0.7l0.5-0.4l0.4-0.2h0.6l0.5,0.2
	c4.1,1.2,8-3.7,5.6-7.4c-7.7-12.2-16.7-23.5-26.8-33.8c-9.1-9.1-19.5-17.3-31.2-22.9c-3.3-1.6-6.7-2.9-10.1-4.1
	c-4.2-1.5-8.9-3.7-13-0.6c-2,1.5-3.3,4.4-1.7,6.8c1.6,2.4,4.6,3.5,6.8,1.8l0.3-0.2l1.1,0.4l4.5,1.6l3.7,1.4l0.3,0.2l0.8,0.3l2.3,1.1
	c5.3,2.5,10.3,5.5,15,8.9l1.8,1.4l0.5,0.4l0.3,0.2l4,3.3c2.3,2,4.5,4,6.7,6.2c4.7,4.6,9.2,9.5,13.3,14.7l1.6,2l0.5,0.6
	c0.2,0.4,0.5,0.8,0.8,1.1l3.3,4.5l2.7,3.9c-1.6,1.1-3.1,2.4-4.2,4c-2.9,4-3.4,9.2-1.3,13.7c0.7,1.4,1.6,2.8,2.6,4
	c0.5,0.6,0.9,1.2,1.3,1.9c0.2,0.2,0.3,0.5,0.4,0.8c0,0.1,0.1,0.2,0.2,0.4v-0.2c0,0.1,0,0.1,0.1,0.2h-0.1c-0.3,0.8-0.5,1.7-0.6,2.6
	c-0.5,2-0.7,4-0.6,6c0.3,7.2,4.6,13,10,17.4c2.8,2.3,5.7,4.3,8.6,6.3l1.9,1.5l0.7,0.5c0,0,0,0,0-0.1l0.6,0.5
	c1.4,1.1,2.7,2.3,3.9,3.6c0.1,0.2,1.2,1.2,1.1,1.3l0.5,0.6c0.6,1,1.2,1.9,1.7,2.9c0.3,0.5,0.6,1,0.8,1.5l0.3,0.7
	c0.1,0.2,0.2,0.4,0.3,0.6l0.4,0.9c0.2,0.5,0.3,1.1,0.5,1.6s0.6,2.2,0.8,3.3c0.2,0.5,0.3,1.1,0.3,1.6c0,0,0,0,0-0.1
	c0,0.3,0,0.6,0.1,0.9c0.2,2.3,0.1,4.6-0.2,6.9c-0.3,2.6,2.6,5.1,5,5c2.7-0.1,4.9-2.3,5-5c1-8.4-0.9-17-5.3-24.2
	c-2-3.4-4.6-6.4-7.7-8.9c-2.7-2.2-5.5-4.1-8.3-6.1l-1.8-1.4l-0.9-0.6c-0.2-0.1-0.7-0.5-0.8-0.6c-0.9-0.8-1.9-1.5-2.8-2.4l-1.5-1.5
	l-0.6-0.8l-0.2-0.2l-1.1-1.6c-0.1-0.3-0.3-0.5-0.4-0.8l-0.2-0.3v-0.2c-0.1-0.1-0.1-0.3-0.1-0.4l-0.3-1.1c-0.1-0.2-0.1-0.5-0.2-0.7
	v-0.3c0-0.1,0-0.1-0.1-0.1c0-0.1,0-0.1,0-0.1s0,0,0.1,0c-0.1-0.7-0.1-1.5,0-2.2v-0.2l0.3-1.4c0.4-1.8,1.1-3.5,0.9-5.4
	c-0.2-2.1-0.9-4.1-2.1-5.9c-0.9-1.5-2-2.8-3-4.3l-0.6-1c0.1,0.2,0.1,0.3-0.1-0.2v-0.1l-0.1-0.1c-0.1-0.3-0.1-0.4,0-0.4l-0.1-0.6
	l0.3-0.9C771.7,306.1,771.7,306.1,771.7,306z"/>
<path d="M667,221.5l1.8,0.2h0.2l1.2,0.2c6.4,1,12.6,2.8,18.6,5.3c2.4,1,5.6-1.1,6.2-3.5c0.6-2.4-0.9-5.1-3.5-6.2
	c-11-4.5-22.8-6.7-34.7-6.3c-11.8,0.6-23.4,3.7-34,8.9c-6.1,3-12,6.6-17.5,10.6c-2,1.5-3.4,4.4-1.7,6.8c1.8,2.6,4.1,4.8,6.9,6.3
	c2.2,1.3,4.5,2.2,6.7,3.4c0.6,0.3,1.2,0.6,1.7,1l0.3,0.2l0.6,0.4l1.4,1.4c0.1,0.1,0.1,0.2,0.2,0.2c0.2,0.3,0.4,0.6,0.5,1l0.2,0.2
	c-0.1-0.1-0.1,0.3,0.1,0.4c0,0.2,0.1,0.5,0.1,0.6l-0.5,0.4c-1.3,1.2-2.3,2.6-2.9,4.2c-0.2,0.6-0.3,1.2-0.5,1.7l-0.3,0.7
	c-0.1,0.3-0.2,0.6-0.3,0.9v0.3l-0.3,0.6l-0.9,1.6c-0.6,1.1-1.3,2.1-2.1,3.1c-0.1,0.2-0.1,0.3-0.2,0.3l-0.3,0.4l-1.1,1.3l-2.5,2.4
	l-2.7,2.3l-0.7,0.6c-0.5,0.5-1.1,0.9-1.7,1.3c-4.5,3.3-9.4,6.2-14,9.3c-2.4,1.4-3.2,4.4-1.8,6.8c1.4,2.2,4.5,3.4,6.8,1.8
	c8.8-5.9,18.7-11.1,25.4-19.6c1.8-2.1,3.3-4.4,4.5-6.9c0.8-1.4,1.4-2.9,1.9-4.5c0.2-0.3,0.3-0.7,0.4-1l0.5-0.5
	c2.8-2.6,3.9-6.5,3.1-10.2c-0.6-3.2-2.8-6.2-5.2-8.4c-2.6-2.1-5.5-3.8-8.6-5.1l-2.1-1.2c3-1.9,6.2-3.8,9.4-5.5l3.7-1.8l1.7-0.7
	l0.8-0.4l0.7-0.3l7.8-2.7c2.6-0.7,5.1-1.3,7.7-1.8l1.8-0.3l1-0.2h0.1l4-0.4c2.7-0.2,5.4-0.2,8.1-0.1L667,221.5z"/>
</svg>
