<?xml version="1.0" encoding="utf-8"?>
<!-- Generator: Adobe Illustrator 24.2.3, SVG Export Plug-In . SVG Version: 6.00 Build 0)  -->
<svg version="1.1" id="eb3232fc-4b58-407a-b1c4-9d5cf053a068"
	 xmlns="http://www.w3.org/2000/svg" xmlns:xlink="http://www.w3.org/1999/xlink" x="0px" y="0px" viewBox="0 0 1152 864"
	 style="enable-background:new 0 0 1152 864;" xml:space="preserve">
<path d="M518.5,213.2c-2.8,0.9-3.9,3.4-3.5,6.2c0,0.2,0.1,0.3,0.1,0.5c0,0.5,0.1,1,0.1,1.5c0.1,0.9,0.1,1.8,0.1,2.7c0,1-0.1,2-0.2,3
	c0,0.3,0,0.6-0.1,0.9c0,0.3-0.1,0.6-0.1,0.8c-0.4,1.9-0.9,3.7-1.5,5.5c-0.1,0.3-0.2,0.6-0.4,0.9l-0.4,1l-1.1,2.2
	c-3.2,6.2-7,15.3-0.5,20.8c2,1.7,5.2,2.1,7.1,0c1.9-2.1,2.1-5.2,0-7c0-0.1-0.4-0.3-0.6-0.5v-0.2h-0.1v-0.9c0.3-1.3,0.7-2.6,1.2-3.9
	c0.1-0.1,0.1-0.3,0.2-0.4l0.5-1.1c0.8-1.5,1.5-2.9,2.2-4.4c3.4-7.5,4.6-15.9,3.2-24C524.2,214.1,520.9,212.5,518.5,213.2z"/>
<path d="M505.8,310.8c1.2,0.9,0,0-0.2-0.2l-0.9-1h-0.1l-0.6-1c0-0.1-0.1-0.2-0.2-0.3c-0.1-0.4-0.2-0.8-0.4-1.1
	c-0.1-0.3-0.2-0.6-0.2-0.9c-0.1-0.2-0.1-0.3-0.1-0.5c0.1-0.6-0.2-1.4-0.1-2v-0.5c0.1-0.3,0.1-0.8,0.2-1.1c0-0.3,0.1-0.6,0.2-0.9
	c0.1-0.2,0.2-0.3,0.2-0.5c0-0.1,0.7-1.1,0.9-1.4c0.9-1.1,1.3-2.5,1.1-4s-1.1-2.9-2.4-3.7c-6.5-4.1-14.6,0.1-20.9,2.6
	s-12.6,5.4-18.6,8.5c-12,6.2-23.3,13.6-33.9,21.9c-5.8,4.6-11.4,9.4-16.7,14.6c-2,2-2,5.1,0,7.1s5.1,2,7.1,0
	c4.6-4.5,9.3-8.8,14.3-12.8l3.2-2.5l0.5-0.4l1-0.7l2.1-1.5c2.5-1.9,5-3.7,7.6-5.4c10.5-7,21.7-13,33.3-18c0.1,0,0.1,0,0.1-0.1h0.1
	l1.3-0.5l2.4-1l5.2-2l2-0.6c-0.4,1.8-0.4,3.6-0.2,5.4c0.6,5.3,3.3,10.1,7.6,13.2c2.1,1.6,5.7,0.5,6.9-1.8
	C508.8,315.4,508,312.5,505.8,310.8z M503.6,300.7c0,0.1-0.1,0.1-0.1,0.2L503.6,300.7z"/>
<path d="M953.4,421.4c-0.5-10.5-1.6-21.2-5.3-31.2c-3.3-8.7-7.9-16.9-13.7-24.2c-11.6-15-27-26.8-42.5-37.6
	c-17.2-11.8-35.1-22.4-53.7-31.8c-18.1-9.3-37.1-16.8-54.8-27c-4.3-2.5-8.5-5.2-12.6-8.2c-3.8-2.8-7.3-6-10.9-9
	c-7.2-6.3-15.1-12.4-24.7-14.2c-4.7-0.9-9.6-0.8-14.2,0.5c-2.2,0.7-4.3,1.8-6.2,3.1c-1.3,0.9-2.6,2-4,2.8c-7.2-7.1-14.4-14.3-22-21
	s-17.9-15-29.1-17.1c-3.2-0.6-6.4-0.9-9.6-0.8h-6.3l-0.8-0.3l-0.2-0.2l-0.7-0.4l-0.4-0.3h-0.1l-2.9-2.7c-2.1-1.8-4.2-3.5-6.5-5.1
	c-4.5-3-9.5-5.2-14.7-6.6c-5.8-1.6-11.9-1.8-17.9-2c-3.3-0.1-6.6-0.3-9.8-0.7h-0.4l-1.4-0.2l-2.3-0.5l-4.6-1l-19.8-5.1
	c-0.8-0.2-1.7-0.2-2.5,0c-8.6-2.7-17.9-2-26.8,0.3c-11.3,2.9-22.1,7.9-32.9,12.1l-70.8,27.9c-5.8,2.3-11.6,4.8-17.4,6.9
	c-2.3,0.8-4.3,1.4-6.6,0.4c-2.3-1-5-2.6-7.8-3.2c-10.9-2.5-21.8,2.7-29.6,10s-13.7,17.1-21.5,24.8c-7.8,7.7-16.5,14.5-25.4,20.9
	c-18.7,13.6-37.2,27.2-54.6,42.5C248,338.5,232.3,353.9,219,372c-13.3,18.1-21.9,38.4-20.8,61c0.6,12.4,3.2,24.6,5.4,36.8
	c2.2,12.2,4.2,22.7,6.7,34c5.1,22.6,11.8,45,22.3,65.8s23.6,39,37,57.2c11.6,15.7,24.3,31.2,41,41.8s41.7,17.4,60.6,5.9
	c9.2-5.6,16.6-14.1,23.1-22.6c6.3-8.3,11.5-17.3,15.6-26.9c8.6-20,12.3-41.7,10.5-63.4c-1.9-23.5-9-46.2-16.4-68.5
	c-7.4-22.3-14.1-44.8-18.1-68c-4-23.1-5.7-46.5-5.2-69.9l30-69.5c4.6-10.6,10.4-22,9.3-33.9c-0.5-5.2-2.2-10.9-6.2-14.5l5-1.9
	l9.4-3.8L463,218l34.7-13.7c11-4.4,22-9.3,33.3-12.7c9.2-2.8,19.6-4.6,28.5-0.1c1.4,0.8,3.1,0.8,4.5,0.1l12.1,3.1
	c5.8,1.6,11.7,2.6,17.7,3.1l8.7,0.4l4.3,0.2l2.1,0.2h1.6c2.6,0.4,5.1,1,7.5,1.9l1.6,0.6l0.6,0.2h0.3l3.5,1.8l3.2,2l1.3,0.9l0.3,0.2
	l0.7,0.5c1.9,1.6,3.5,3.4,5.5,4.9c2.5,2.2,5.7,3.5,9,3.9c2.8,0.2,5.7-0.2,8.5-0.1h3.6c1.3,0.2,2.6,0.4,3.8,0.8l3.3,1.1l1.1,0.5
	l2.1,1.1c2.3,1.2,4.5,2.6,6.5,4.2c0.6,0.3,1.1,0.7,1.6,1.1l0.7,0.5h0.2l3.4,2.8c9.4,7.7,17.9,16.4,26.6,25l-0.5,0.4
	c-7.7,7.6-4.9,20.7-0.9,29.3s10.8,17.7,16.5,26.2l19.2,28.2l18.2,26.7l0.3,0.5c0.1,0.1,0.1,0.3,0.2,0.5
	c8.4,39.6,10.1,80.2,5.3,120.4c-4.8,41.3-13.2,84.3,3.1,124.3c6.8,16.8,16.9,32.1,29.8,44.9c6.6,6.7,14.1,12.6,22.1,17.5
	c9.5,5.5,19.7,7.9,30.6,6.4c17.5-2.6,33-13.9,44.2-27.2s19.3-28.5,26.5-44.1c8.8-18.8,17.5-37.8,23.5-57.7s8.8-42.6,9.8-64.2
	C954.3,463,954.3,442.7,953.4,421.4z M376.9,294.9c-8.6,46.3-8.4,93.7,0.6,139.9c4.4,22.9,11.7,44.9,18.9,67
	c7,21.7,13.7,43.9,14.4,66.9c0.7,20.8-4,41.4-13.6,59.9c-4.7,9.1-10.5,17.6-17.4,25.2c-6.9,7.6-14.8,14.6-25.2,16.4
	c-18.8,3.2-37.8-7.6-51.2-19.6s-25.9-29.5-37.1-45.6c-13.4-19.3-25.8-38.9-34-61c-8.2-22.1-12.9-43.6-17.1-65.9
	c-2.1-11.5-4.4-23.1-6-34.7c-1.6-11.6-1.7-22.9,1.5-34.1c5.8-20.2,19.7-37.1,33.9-52.2c15.7-16.5,32.6-31.7,50.6-45.7
	c17.5-13.7,36.6-25.5,53-40.4c4.1-3.7,7.9-7.7,11.4-11.9c3.5-4.2,6.7-8.7,10.4-12.8c5.9-6.7,14.9-14.1,24.5-11.5
	c1.3,0.4,2.6,0.9,3.8,1.6c-8.3,5.2-11,16.1-13.5,24.9C381.7,272.4,379,283.6,376.9,294.9z M401.7,281.5l-15.1,34.9
	c-1.3,3.2-2.7,6.3-4,9.4c1.3-13,3.3-26,6.1-38.8c1.3-5.8,2.7-11.7,4.2-17.4c1.3-5.5,2.9-10.9,4.8-16.2c1.3-3.3,3.5-7.3,6.6-8.9
	c0.7-0.5,1.7-0.5,2.4,0c1.7,1,2.4,3.5,2.9,5.3C412.2,260.5,405.8,272.1,401.7,281.5z M728.2,302.7l-9.3-13.7
	c-2.7-3.8-4.9-7.9-6.8-12.2c-1.5-3.9-2.5-8.3-1.7-12.4c0.3-1.6,0.8-3.1,2-3.9s0.3-0.2,0.9-0.3h0.5l1,0.3l0.8,0.4l1.2,0.8l1.8,1.5
	c1.4,1.3,2.6,2.7,3.6,4.3c2.5,4.2,4.8,8.5,6.8,12.9c4.4,8.9,8.5,18,12.1,27.3s6.9,18.8,9.8,28.4L728.2,302.7z M943.9,464.7
	c-0.2,20.9-1.2,42-5.3,62.6s-11.9,40.8-20.6,60.3c-7,15.8-14.1,31.7-23.7,46.2s-20.1,25.1-34.9,31.5c-8.8,3.8-18.6,5.2-27.8,2
	s-15.9-8.8-22.5-14.6c-13.2-11.6-23.8-25.8-31.1-41.8c-17.4-38.1-9.8-80.2-4.9-120.1c2.6-20.2,3.7-40.5,3.1-60.8
	c-0.6-20.2-2.9-40.3-6.7-60.2c-3.8-19.6-9.2-38.9-16.1-57.7c-3.5-9.5-7.4-18.9-11.6-28.2c-2.1-4.5-4.3-8.9-6.5-13.3
	c-2-4.3-4.5-8.4-7.5-12.2c-2.5-3-5.6-5.4-9.2-6.9c2-1.6,4.3-2.8,6.7-3.5c3.9-1,8.1-0.2,11.9,1.1c8.5,3,15.1,9.9,21.7,15.6
	c15.5,13,33.9,21.1,52,29.6c18.8,8.7,37.1,18.4,54.9,29.1c16.6,10.1,33,21.1,47.3,34.3s24.2,26.8,28.1,44.6
	c2.2,9.9,2.3,20.2,2.5,30.3S944,454,943.9,464.7z"/>
<path d="M605,265.7l-0.1-0.1l-0.1,0.1l-0.3-0.2l-0.3-0.2h0.1L604,265c-0.2-0.3-0.4-0.8-0.5-0.8c-0.1-0.2-0.2-0.4-0.2-0.6
	c-0.1,0-0.1,0-0.1-0.1c-0.6-1.8-1-3.6-1.6-5.5c-1.2-4.1-3-8-5.4-11.5c-2.2-3.3-4.6-6.5-6.8-9.9l-1.4-2.5l-0.6-1.2l-0.5-0.9v-0.2
	c0-0.2-0.1-0.5-0.2-0.7c-0.2-0.4-0.3-0.9-0.4-1.3c-0.2-0.5-0.3-0.9-0.4-1.4c-0.1-0.3-0.2-0.7-0.3-1v-0.2c0-0.4,0-0.7-0.1-1.1v-1.9
	c0.1-1.4,0.3-2.8,0.4-4.3s0.4-6.2-0.7-9.1c-1.1-2.9-3.4-4.4-6.1-3.5c-2.7,0.9-4.4,3.5-3.5,6.1c0.2,0.6,0.3,1.2,0.5,1.8v0.9
	c0,1.3,0,2.7-0.2,4c-0.3,2.4-0.4,4.9-0.2,7.3c0.5,4.6,2.1,9,4.5,12.9c2.1,3.5,4.6,6.8,6.8,10.3c1.2,1.7,2.3,3.5,3.3,5.3l0.6,1.3
	l0.3,0.6c0.3,1,0.7,1.9,0.9,2.9c1.5,5.2,2.8,10.6,7.7,13.5c2.4,1.4,5.4,0.7,6.9-1.6C608.1,270.2,607.4,267.1,605,265.7z"/>
<path d="M648.8,250l-13.3-12.1c-1.9-2-5.1-2-7.1,0c-1.7,1.9-2,5.2,0,7.1c3.8,3.3,7.5,6.7,11.2,10.1l2.7,2.5l1.2,1.1l0.4,0.4
	c-1.9,2-1.7,5.2,0.3,7.1c1.6,1.5,4,1.7,5.9,0.6c3.5-1.6,4.7-5.9,4-9.4S651,252,648.8,250z M644.3,259.8c-0.1-0.1-0.1-0.2-0.1-0.3
	c0,0.1,0,0.1,0.1,0.1C644.6,260.2,644.5,260,644.3,259.8z M645.2,258.1C645.6,257.7,645.5,257.9,645.2,258.1L645.2,258.1z"/>
<path d="M716.1,328.8c-13-4.1-27.8-1.1-37.2,9c-2.4,2.5-4.4,5.4-5.8,8.6l-1.3,3.4v0.2c-1.4-0.7-3-0.6-4.3,0.2
	c-2.1,1.4-3.4,4.6-1.8,6.9l2.5,3.5c2,2.8,5.2,3.2,7.9,1s3.9-5.3,5.2-8.5c0.2-0.6,0.4-1.2,0.7-1.7c0-0.1,0-0.2,0.1-0.3c0,0,0,0-0.1,0
	c0,0,0-0.1,0.1-0.1c0-0.1,0-0.1,0-0.1c0.1-0.2,0.2-0.4,0.3-0.6c0.6-1.3,1.4-2.5,2.2-3.6l0.4-0.6c0.1-0.1,0.1-0.1,0.1-0.2
	c0.4-0.5,0.8-0.9,1.3-1.3c0.4-0.5,0.8-0.9,1.3-1.3l0.8-0.7l0.8-0.7h0.2l1-0.7l1.5-0.9l1.7-0.9l0.7-0.4l0.5-0.1
	c1.2-0.5,2.4-0.9,3.7-1.2l2.2-0.4l1.6-0.2c1.4-0.1,2.8-0.1,4.2,0h2.4l1.4,0.3c1.5,0.3,2.9,0.7,4.3,1.2l1,0.4h0.4l2.1,1l3.8,2.3
	l1.5,1l0.2,0.2l1,0.9c1.2,1,2.3,2.1,3.3,3.3c0.6,0.5,1.1,1.1,1.5,1.7c-0.6-1,0.1,0.1,0.2,0.3l0.7,0.9c0.9,1.3,1.7,2.6,2.4,4l1,2.1
	c0,0.1,0,0.1,0.1,0.1c0.2,0.5,0.4,1,0.5,1.5c0.9,2.5,3.5,4.4,6.2,3.5c2.7-0.9,4.4-3.5,3.5-6.2C739.4,342.8,729.1,332.9,716.1,328.8z
	"/>
<path d="M645.8,333.7c-0.2-0.3-0.3-0.7-0.5-1c-0.5-1.2-0.8-2.4-1-3.6c-0.1-1.4-0.1-2.7,0-4.1c0.2-1.1,0.4-2.2,0.8-3.3
	c1-2.6-0.3-5.5-2.9-6.5c-2.6-1-5.5,0.3-6.5,2.9c-0.1,0.3-0.2,0.7-0.3,1c-2.5,7.3-1.4,15.3,2.8,21.7c1.5,2.2,4.5,3.3,6.9,1.8
	s3.3-4.5,1.8-6.9C646.5,335.1,646.1,334.4,645.8,333.7z"/>
</svg>
