<?xml version="1.0" encoding="utf-8"?>
<!-- Generator: Adobe Illustrator 24.2.3, SVG Export Plug-In . SVG Version: 6.00 Build 0)  -->
<svg version="1.1" id="fb0af138-1e45-4a80-92b4-6479e4376aba"
	 xmlns="http://www.w3.org/2000/svg" xmlns:xlink="http://www.w3.org/1999/xlink" x="0px" y="0px" viewBox="0 0 1152 864"
	 style="enable-background:new 0 0 1152 864;" xml:space="preserve">
<path d="M1036.4,281.1c-11.8-18.8-30.8-31.1-51.4-38.4s-44.7-9.9-67.5-9.9c-27.8-0.1-55.9,2.5-83.6-1.2
	c-13.6-1.8-26.9-5.5-39.5-10.8c-13.2-5.5-26-12.1-39.9-15.9s-28.3-4.8-41.5,0.3c-11.5,4.3-20.7,13.2-25.3,24.6
	c-1.6,4-2.3,8.2-2.2,12.5c-4.5,7.1-6.6,15.6-4.7,24c0.2,0.8,0.5,1.7,0.8,2.6c-5.5-2.4-11.2-4.5-17-6.2c-25.6-7.4-52.6-8.8-79-11.2
	c-29.5-2.7-59.5-7.2-88.8-0.8c-25.2,5.4-48.6,17.1-71.1,29.5c6.6-14.5,6.9-31.2,0.7-45.9c-8.5-19.7-28.9-33.3-50.3-33.9
	c-13.1-0.3-25.7,3.8-37.5,8.9s-24,11.3-35.9,17.1l-74.1,36.1c-24.3,11.9-48.8,23.6-73,35.6c-21.3,10.6-42.9,23.4-54.7,44.9
	c-5.6,10-8.8,21.8-7.6,33.3c0.8,8.2,3.5,16.1,7.7,23.1c8.2,13.8,20.8,24.2,32.9,34.3c6.2,5.2,12.4,10.4,18.3,16
	c2.8,2.8,5.6,5.6,8.1,8.6l1.7,2.1c0.3,0.3,0.6,0.6,0.8,1l0.4,0.5c1.2,1.5,2.2,3.1,3.2,4.7c1,1.6,1.9,3.2,2.8,4.9l1.1,2.4
	c0,0.1,0.1,0.2,0.2,0.3c0.2,0.5,0.4,1,0.5,1.5c1.4,3.7,2.3,7.6,2.8,11.5c0.6,6.5,0.6,13.1,2.3,19.5c1.6,5.9,5.1,11.1,10,14.7
	c3,2.2,6.5,3.5,10.2,3.6l3.8,8.6c3.5,7.8,6.8,15.7,10.3,23.4c1.6,3.4,3.8,6.6,7.3,8.3c3.6,1.7,7.8,1.5,11.3-0.3
	c6.4-3.3,10.2-10,13-16.2c4.6-10.4,9.3-20.7,13.9-31.1c4,10.1,9,19.8,14.9,29c3.9,6,8.2,11.6,12.6,17.2l0.4,0.5l0.5,0.7
	c0.6,0.7,1.1,1.4,1.6,2.2c1,1.4,1.8,2.8,2.6,4.3l0.9,1.8l0.4,0.9c0,0.2,0.1,0.4,0.2,0.5c0.5,1.4,1,2.9,1.4,4.4
	c0.4,1.5,0.7,2.8,1,4.2l0.3,2c0.1,0.4,0.2,0.7,0.2,1.1c-0.1-1.3,0.1,0.4,0.1,0.7c0.3,3.1,0.5,6.1,0.5,9.2c0.1,6.4-0.3,12.8-0.7,19.1
	c-0.6,12.9-0.7,25.8,3.2,38.2c4.3,13.9,12.3,26.3,23.2,35.9c2,1.9,5,1.9,7,0c1.8-1.9,2.2-5.3,0-7.1s-4.4-4.2-6.5-6.4
	c-2.1-2.2-1.9-2.3-2.8-3.4h-0.1c0-0.1-0.1-0.1-0.1-0.2l-0.7-0.9l-1.4-2c-1.7-2.5-3.3-5.2-4.7-7.9l-1.9-3.9c0-0.1-0.2-0.7-0.3-0.7
	l-0.1-0.3c-0.3-0.9-0.7-1.8-1-2.6c-1-2.9-1.9-5.8-2.5-8.8c-0.4-1.5-0.6-2.9-0.9-4.4c0-0.2,0-0.5-0.1-0.7V640l-0.3-2.8
	c-0.5-6.2-0.5-12.5-0.1-18.7c0.6-12.8,1.8-25.7-0.8-38.4c-1.2-6.2-3.7-12.1-7.1-17.4c-2.1-3.1-4.5-6-6.9-9l-0.6-0.7
	c-0.1-0.1-0.4-0.7-0.5-0.7l-1.3-1.8c-1.1-1.4-2.1-2.8-3.1-4.3c-4.3-6.2-8.1-12.6-11.5-19.3l-2.5-5.2l-1.2-2.6
	c-0.2-0.3-0.3-0.7-0.4-1c-0.2-0.3-0.4-0.7-0.5-1.1c-1.4-3.4-2.8-7-4-10.5c-0.2-0.5-0.4-1-0.7-1.4c0.5-1.2,1.1-2.4,1.6-3.7
	c7-15.6,14.3-31.1,20.8-46.9c3.1-7.4,5.6-15,7.5-22.8c1.9-8.5,3-17.1,3.3-25.8c0.7-15.7,0.3-31.3,2.2-46.9c0.1-0.4,0.1-0.9,0.2-1.3
	v-0.5c0.2-0.8,0.3-1.6,0.4-2.4l0.9-5.7c0.6-3.5,1.3-6.9,2.1-10.4c1.6-6.9,3.5-13.8,5.8-20.5c2.2-6.5,4.8-12.8,7.8-19
	c3.1-6.3,6.5-12.3,10.3-18.2c3.7-5.8,8-11.3,12.6-16.4c2.3-2.6,4.7-5.1,7.2-7.4c1.2-1.2,2.5-2.3,3.9-3.3l1.4-1.2l2.1-1.5
	c2.9-2,5.9-3.9,9.1-5.4l2-1l0.9-0.4l0.7-0.3l5.2-1.7l4.5-1h8.4c1.5,0.2,3,0.5,4.4,1l2.4,0.8h0.3l0.9,0.5c1.3,0.6,2.6,1.4,3.8,2.2
	l1.1,0.8l1.3,1.1c1.1,1,2.2,2.1,3.1,3.3l0.3,0.3h0.1c0.1,0.1,0.2,0.3,0.3,0.3c0.4,0.6,0.8,1.2,1.1,1.8c0.8,1.2,1.6,2.5,2.2,3.8
	c0.4,0.6,0.7,1.2,0.9,1.9h0.1c0.1,0.3,0.2,0.7,0.4,1c0.5,1.3,1,2.7,1.3,4.1c0.4,1.4,0.7,2.8,1,4.2s0.1,0.6,0.1,0.9
	c0,0.2,0.1,0.5,0.1,0.7c0.1,0.6,0.2,1.2,0.2,1.8c0.3,3,0.3,6.1,0,9.1c-0.1,0.3-0.1,0.5-0.1,0.8v0.2c-0.2,0.6-0.3,1.3-0.4,1.9
	c-0.3,1.7-0.7,3.4-1.2,5.1c-0.5,1.5-1,3.1-1.6,4.7l-0.5,1.2v0.5l-1.2,2.6c-1.5,3.1-3.3,6.1-5.2,9c-1.9,2.8-3.9,5.5-6,8.1
	c-4.7,5.6-9.6,10.9-14.9,15.9c-10.7,10.2-22,19.9-31.2,31.5c-4.8,5.9-8.8,12.3-12.1,19.1c-3.3,7.1-6,14.4-7.9,22
	c-3.9,14.6-5.9,29.6-9.5,44.3c-3.6,14.7-9.1,28.9-16.3,42.2c-3.6,6.5-7.5,12.8-11.8,18.8c-1.5,2.2-0.4,5.7,1.8,6.9
	c2.4,1.3,5.4,0.5,6.9-1.8c9.1-12.8,16.5-26.8,22.1-41.5c5.5-14.3,8.7-29.1,11.6-44.2c1.4-7.4,2.9-14.8,4.8-22.1
	c1-3.5,2-7.1,3.2-10.6c1.2-3.4,2.6-6.7,4.2-10c3.1-6.3,6.9-12.3,11.4-17.7c4.9-5.7,10-11.2,15.5-16.3c16.7-16,36.4-32.7,44.7-54.8
	c1.1,0.2,2.3,0.1,3.3-0.5c23.2-13.1,46.7-26.4,72.5-33.6c13.2-3.7,26.8-5.6,40.5-5.4c14.9,0.2,29.8,1.9,44.6,3.2
	c14.8,1.3,28.2,2.5,42.3,4c12.1,1.1,24.2,3,36.1,5.7c12,2.8,23.3,6.7,33.9,12.7s18,12.8,26,21.4c15.5,16.8,28.3,36.2,47.1,49.7
	c2.3,1.7,4.6,3.2,7.1,4.6c2.4,1.4,5.4,0.6,6.8-1.8c1.4-2.3,0.6-5.3-1.7-6.7l-0.1-0.1c-9.7-5.7-17.6-13-25.3-21.6
	c-7.7-8.6-14.9-17.7-22.5-26.4c-7.6-8.7-16.1-17.1-25.9-23.7c-1.9-1.3-3.8-2.4-5.7-3.5c1-1.5,1-3.5,0.1-5.1l-1.2-1.8l-0.6-1.1
	c0-0.1-0.1-0.2-0.1-0.3c-0.5-1.2-0.8-2.5-1.1-3.8v-1.2c-0.1-0.7-0.1-1.4-0.1-2.1c0-0.6,0.1-1.3,0.1-1.9l0.3-1.4
	c0.4-2,1.1-3.9,1.9-5.7c2.3-0.8,3.2-2.9,3.2-5.1c0.8-1,1.7-2.1,2.7-3l1.7-1.5l0.4-0.3l0.8-0.6c1.2-0.8,2.5-1.6,3.8-2.2l0.7-0.3
	l0.6-0.2l2.5-0.8c1.6-0.5,3.2-0.8,4.8-0.9c7.1-0.6,14.3,0.6,20.8,3.5c13.5,5.8,24.7,16.5,33.3,28s15.9,25.6,22,39.3
	c6.1,13.7,12.9,30,18.5,45.3s10.8,33,12.2,50.3c3,35.6-4.5,71.3-0.5,106.9c2.3,19.2,7.9,37.9,16.6,55.2c-3.3,2.4-6.1,5.5-8.1,9
	c-2.9,5.2-5.3,10.6-7,16.3c-3.7,11.6-5.3,23.7-4.7,35.8c0.3,7.1,1.4,14.1,3.1,21c0.7,2.7,3.5,4.2,6.2,3.5s4.2-3.5,3.5-6.2
	s-1.3-5.4-1.8-8.2l-0.3-2.2v-0.3c-0.1-0.1-0.1-0.3-0.1-0.5c-0.2-1.5-0.3-3-0.4-4.4c-0.5-5.6-0.4-11.2,0.1-16.8l0.3-2.2v-0.4
	c0-0.1,0.1-0.2,0.1-0.3v-0.2c0.2-1.4,0.4-2.9,0.7-4.3s1.2-5.5,1.9-8.2s1.7-5.4,2.7-8c0.2-0.6,0.4-1.2,0.7-1.9l0.3-0.8
	c0.1-0.1,0.1-0.1,0.1-0.2c0.5-1.2,1.1-2.4,1.7-3.6s1.3-2.5,2-3.7l1.1-1.6l0.3-0.4l0.3-0.3l2-2.2c4.4,7.7,9.5,15,15.1,21.8
	c2.5,3,5,5.9,7.7,8.7s7.6,1.5,8.4-2.2c4.3-22.4,16.9-41.3,31.9-58s34.4-33.3,51.4-50.2c19.5-19.6,37.2-40.8,52.9-63.5
	c15.5-22.2,30.1-46,36.7-72.5S1050.4,303.4,1036.4,281.1z M420.9,257c0,1.1-0.1,2.3-0.2,3.4c-0.1,1.1-0.1,1.1-0.1,1.7
	c0,0.6-0.2,1.1-0.3,1.3c-0.4,2.5-1,4.9-1.7,7.3l-0.6,1.7c-0.5-9.2-3.4-18.5-8.8-25.8c-3.6-5-8.4-9-14-11.7c-6.3-3-13.3-4.3-20.3-3.7
	c-14.5,1.5-27.6,9.4-38.1,19.2s-19.2,21.8-26.2,34.2c-14.4,25.3-22,54.1-24.5,83c-1.4,16.2-0.4,32.6-2.1,48.8
	c-1.7,16.2-7.6,30.9-13.9,45.1c-6.9,15.8-14,31.4-21,47.1c-3.6,7.9-7.1,15.8-10.6,23.7l-5.4,12c-0.6,1.5-1.4,3-2.2,4.4
	c-0.4,0.7-0.8,1.4-1.2,2.1l-0.7,1l-0.2,0.3c0,0.1-0.1,0.1-0.2,0.2l-1.6,1.8l-0.8,0.8l-0.5,0.4l-1.5,0.9h-0.1l-1,0.3h-0.3l-0.6-0.2
	h-0.5l-0.7-0.7c-0.1-0.2-0.4-0.5-0.4-0.6l-0.9-1.5c-1.8-3.6-3.3-7.3-4.9-11l-5.1-11.7c-1.5-3.3-3-6.7-4.4-10
	c0.2-0.8,0.2-1.7-0.1-2.5c-0.3-1.3-1.2-2.4-2.4-3.1l-0.3-0.9c-0.4-0.9-0.6-1.8-0.8-2.7c-0.1-0.1-0.1-0.3-0.1-0.4v-1.5
	c0-0.3,0.1-0.6,0.2-0.9c-0.1,0.1,0.3-0.8,0.3-0.9c0.3-0.7,0.6-1.4,1-2c1-1.6,2.1-3.1,3.3-4.7c1.2-1.6,4.2-6.1,6.2-9.2
	c16.6-25.7,28.5-54.2,35.1-84.1c1.6-7.5,2.9-15,3.9-22.5c0.3-2.7-2.6-5.2-5-5c-2.4,0.2-4.7,2.2-5,5c-0.1,0.5-0.2,1-0.3,1.9
	c-0.1,0.9-0.3,1.9-0.4,2.8c-0.1,0.9-0.6,3.9-1,5.8c-0.7,3.8-1.4,7.5-2.3,11.2c-1.6,7.3-3.6,14.5-5.9,21.6
	c-4.5,14.2-10.4,27.8-17.5,40.9c-3.6,6.7-7.5,13.3-11.7,19.6l-6.4,9.2c-2.4,3.4-4.3,7-4.5,11.2c-0.1,1.3,0,2.6,0.3,3.9l-0.6-0.4
	c0-0.1,0-0.1-0.1-0.1l-1.6-1.5l-0.6-0.7l-0.2-0.3l-0.7-1c-0.4-0.5-0.7-1.1-1-1.7c-0.2-0.2-0.6-1.3-0.6-1.1c-0.9-2.5-1.5-5.1-1.8-7.8
	c-0.7-6-0.7-12.1-1.9-18.1c-0.7-3.9-2-7.6-3.6-11.2c-6-14.1-17.5-25.1-28.9-34.9c-11.4-9.8-24.3-19.6-34.3-31.5
	c-0.6-0.6-1.2-1.3-1.7-2l-0.3-0.3l-0.9-1.3c-1-1.4-2-2.8-2.9-4.3c-1-1.5-1.8-3.1-2.6-4.7c-0.4-0.8-0.8-1.6-1.1-2.4h-0.1l-0.6-1.5
	c-0.6-1.6-1.1-3.3-1.5-5c-0.3-0.8-0.5-1.7-0.6-2.6l-0.3-1.4V377c-0.3-2.7-0.4-5.3-0.3-8c0-0.7,0.1-1.3,0.2-2v-0.8h0.1
	c0.2-1.4,0.4-2.7,0.7-4.1c0.7-2.6,1.5-5.2,2.5-7.7l1.1-2.7l2-3.7c2.5-4.6,5.5-8.9,9.1-12.7c7.7-8.5,16.6-14.6,26.6-20.3
	c10-5.7,21.3-11.1,32.1-16.3l35.8-17.4l71.8-35l35.5-17.3c11.2-5.5,22.1-11.2,33.8-14.9c2.8-0.9,5.7-1.7,8.5-2.3
	c2.7-0.6,5.4-0.9,8.2-1.1c3-0.2,6-0.1,9,0.2h0.8l1.8,0.3l3.7,0.8l3.3,1.1l1.6,0.5l0.6,0.3h0.6c2.1,1,4.2,2.1,6.2,3.3l3,1.9l1.2,1
	h0.2l0.9,0.7c1.9,1.6,3.6,3.3,5.3,5.1l2.1,2.5h0.2c0.1,0.3,0.3,0.5,0.5,0.7l1.1,1.5c1.3,2.1,2.5,4.2,3.6,6.3
	c0.3,0.5,0.5,1.1,0.7,1.7c0.2,0.2,0.3,0.5,0.4,0.8l1.2,3.7c0.4,1.2,0.6,2.3,0.9,3.5l0.3,1.7c0.1,0.3,0.1,0.6,0.2,0.9v0.3
	C420.8,252,421,254.5,420.9,257z M690.2,257.4C690.3,256.6,690.3,257.2,690.2,257.4L690.2,257.4z M833.7,584.7
	C833.6,585,833.6,584.8,833.7,584.7L833.7,584.7z M1037.9,342.9c-3.9,26-16.8,49.4-31,71.1c-14.6,22.3-31.2,43.2-49.5,62.5
	c-16.4,17.5-34.7,33-51.5,50.1s-30.6,34.3-38.7,55.9c-0.9,2.2-1.6,4.4-2.3,6.6c-18.2-21.7-30.1-48-34.4-76
	c-5.4-35.9,2.7-72.8,0.1-109.1c-1.3-18.4-5.8-36.1-12.1-53.5c-6.3-17.4-12.5-32.1-19.5-47.9c-6.3-14.1-13.3-28-22.5-40.5
	s-21.3-24.6-35.9-31.3c-12.8-5.8-29-8.3-41.8-1.3c2.2-3.8,5.1-7.1,8.5-9.8c9.5-7.3,21.9-8.9,33.8-7.4c13.4,1.8,26,7.3,38.2,12.8
	s25.6,11,39.3,14c27.1,5.9,55.1,4.5,82.7,3.9c12.5-0.3,25.1-0.5,37.6,0.5c10.4,0.7,20.8,2.4,30.9,5c19.7,5.1,38.4,13.8,51.8,29.3
	c7.2,8.4,12.3,18.4,14.9,29.2C1039.3,318.8,1039.8,331,1037.9,342.9z"/>
</svg>
