<?xml version="1.0" encoding="utf-8"?>
<!-- Generator: Adobe Illustrator 24.2.3, SVG Export Plug-In . SVG Version: 6.00 Build 0)  -->
<svg version="1.1" id="facd35d8-61f9-4caa-88d5-f81b3f442d69"
	 xmlns="http://www.w3.org/2000/svg" xmlns:xlink="http://www.w3.org/1999/xlink" x="0px" y="0px" viewBox="0 0 1152 864"
	 style="enable-background:new 0 0 1152 864;" xml:space="preserve">
<path d="M274.1,378.1c0.2-8.2,0.6-16.3,1.3-24.4c0.2-2,0.4-3.9,0.7-5.9c0-0.4,0.1-0.9,0.1-1.4v-0.6c0.2-1.1,0.3-2.3,0.5-3.4
	c0.6-3.9,1.4-7.7,2.6-11.4c0.4-2.7-1.4-5.3-4.1-5.7c-2.3-0.4-4.6,0.9-5.5,3.1c-2.3,6.9-3.2,14.2-4,21.4c-0.8,7.2-1.2,14.4-1.5,21.7
	c-0.5,14.4-0.3,28.9-0.6,43.4c-0.1,7.1-0.4,14.1-0.9,21.2l-0.9,8.6c-0.1,0.7-0.2,1.3-0.2,2c-0.1,0-0.1,0-0.1,0.1
	c0,0.3,0,0.5-0.1,0.8c-0.2,1.6-0.4,3.1-0.7,4.7c-1,5.7-2.2,11.4-3.7,17c-0.8,2.7-1.7,5.5-2.6,8.2l-1.3,3.7l-0.9,2.2l-0.3,0.7
	c-0.1,0.1-0.1,0.3-0.2,0.4v0.2c-2.5,5.8-5.6,11.3-9,16.6l-2.8,3.9l-0.4,0.6l-0.6,0.7l-1.5,1.8c-2.1,2.5-4.3,4.8-6.7,7
	c-1.7,1.8-1.9,4.5-0.4,6.5c1.6,2,4.3,2.5,6.5,1.3c5.6-2.6,10.9-5.6,16-9c0,0.5-0.1,0.9-0.2,1.4c-0.6,4.2-1.4,8.4-2.4,12.6
	c-1,4.2-2.2,8.4-3.6,12.5c-0.6,2-1.3,4-2.1,6c-0.3,1-0.7,2-1.1,2.9l-0.6,1.5l-0.3,0.6v0.2h-0.1c-1.9,4.5-4,8.9-6.4,13.2
	c-1.3,2.5-0.4,5.6,2.1,6.9c0.3,0.2,0.6,0.3,0.9,0.4c4,1.1,8.2,0.3,11.6-2c3.7-2.4,6-6.4,6.4-10.8c0.2-2.6-2.4-5-4.9-5
	c4.6-11.3,8-23.1,10-35.1c0.8-5.3,1.5-10.6,1.8-15.9c0-2-1.2-3.8-3.1-4.6c-1.8-0.7-3.9-0.3-5.4,1l-0.5,0.4
	c7-12.6,11.9-26.2,14.5-40.4C274.8,433.1,273.5,405.5,274.1,378.1z"/>
<path d="M890.3,545.7c-0.8-25.6-3.6-51.1-8.2-76.3c-1.6-8.8-3.5-17.6-5.9-26.3l2.7,0.7c0.7,0.1,1.3,0.3,1.9,0.6
	c-0.4-0.1,1.3,0.9,0.1-0.1c3,2.6,8.8,1,8.5-3.6c-0.5-6.9-1-14.2-3.3-20.8c-1.7-4.3-4.1-8.3-7.1-11.8c-1.7-2.2-2.1-2.6-3.7-4.9
	c-1.9-2.7-3.6-5.4-5.1-8.3l-2.7-5.2c-0.5-1-0.9-2.1-1.4-3.1c-0.2-0.5-0.4-1-0.7-1.5c0-0.2-0.1-0.3-0.1-0.4l-0.6-1.3l-1-2.7
	c-8.7-22.7-16-46-24.4-68.8c-2-5.5-4-10.9-6.3-16.2c-0.8-1.9-1.6-3.7-2.5-5.5s-2.5-4.9-2.4-7.3l6.1,1.5c3.4,0.8,7.5-2.5,6.1-6.2
	c-7.8-21.4-19.1-41.3-37.7-55c-16.4-12.2-36.6-18.5-55.8-25c-10.4-3.6-20.8-7.2-31.1-11.2c5.5-2.2,11.5-3.2,17.4-2.8
	c4.6,0.3,6.3-5.5,3.6-8.5c-4.8-5.4-12.8-7.6-19.6-9.2l-7-1.6c5.8-2.3,11.7-4.4,16.8-7.9c2.4-1.6,3.7-5.6,1-7.8
	c-9.4-7.8-20-14.1-31.9-17.1c-11.9-2.9-24.4-2.2-36,1.9c-6.5,2.3-12.1,5.9-18.2,9c-6.1,3.1-11,3.4-16.6,3.8
	c-6.5,0.5-13.1,0.5-19.6-0.2c-7-0.9-14-2.3-21-2.9c-15.3-1.1-30.7,0.7-45.4,5.1c-6.7-2.6-13-4.6-20.2-4.1l-14.6,1.2
	c-6.3,0.4-12.7,1.2-19,1c-12.5-0.4-24.1-6.1-36-9.3c-11.8-3.2-24-4.7-36.3-4.6c-13.8,0.2-27.6,2.5-40.7,6.8
	c-3.2,1.1-5.4,5.9-2.2,8.4c3.2,2.5,9.5,5.5,14.5,7.8l1.7,0.7l-6.9,1.4c-6.9,1.6-14.7,3.7-19.9,8.8c-3.2,3-0.8,8.5,3.5,8.5
	c6,0.1,11.9,1.5,17.3,4.1c-23.7,8.5-47,18.6-68.6,31.5c-24,14.3-45.8,32.3-62.8,54.5c-9.8,12.9-17.8,27-23.8,42
	c-1.5,3.9,2.9,6.8,6.2,6.2l5.8-1.1c-0.1,2.4-1.9,5.4-2.7,6.9c-2.5,4.3-4.8,8.6-6.8,13.1c-4.1,9.6-7.4,19.5-10.1,29.6
	c-6.1,21.6-11.9,43.2-17.8,64.8l-10.2,37.2c-1,3.4,1.6,5.9,4.5,6.1c-5.9,30.3-9.9,61-12,91.8c-0.6,9.9-1.1,19.8-1.4,29.8
	c0,2.5,1.9,4.6,4.3,4.9c2.7,0.3,4.5-1.2,5.5-3.6c3.1-7.5,7.8-14.3,13.6-20c16.8,29.3,23.9,63.1,20.2,96.7c-0.5,4.2,5.8,6.6,8.5,3.5
	s7.3-8.3,10.9-12.4c6.8,6.5,18.8,6.1,26.7,0.4c5.8-4.1,9.8-10,13.7-15.9s7.7-12.5,11.2-19c14-26.1,23.7-54.4,28.7-83.6
	c2.6-14.9,4-30,4-45.2c0-8.1-0.4-16.2,0-24.3c0.4-7.8,1.8-15.5,4.1-23c2.2-7.6,4.9-15,6.8-22.6c1.9-7.8,3.3-15.7,3.9-23.7
	c1.1-14.1,0.7-28.2,0.8-42.4c0.2-0.1,0.4-0.1,0.6-0.3c10.8-6.3,20.4-14.4,28.5-23.9c3.8-4.5,7.4-9.2,11.2-13.7
	c3.8-4.5,8.2-9.5,12.2-14.2c8.1-9.5,16.1-19.3,22-30.3c4.8-8.8,8.1-18.4,12.6-27.4c1.2-2.3,2.5-4.7,4-7l2.2-3.2l0.2-0.2l0.4-0.5
	c0.4-0.5,0.8-1,1.3-1.4c0.8-1,1.7-1.9,2.7-2.8l1.4-1.2h0.1c0.1,0,0.1-0.1,0.2-0.2l0.5-0.3c1.1-0.8,2.2-1.5,3.3-2.1l1.8-0.9l0.8-0.4
	h0.4c2.4-1,4-2.9,3.6-5.5c-0.4-2.6-2.4-4.7-4.9-4.4h-1.9l-0.3-0.2l-0.7-0.6c-0.3-0.3-0.5-0.6-0.7-1l-0.4-0.9v-0.2
	c-0.3-0.8-0.5-1.5-0.7-2.3s-0.3-1.5-0.4-2.3c0,0.2,0.1,0.3,0.1,0.4c0-0.2-0.1-0.5-0.1-0.6c-0.1-0.4-0.1-0.9-0.1-1.3v-1
	c0-0.1,0.1-0.4,0.1-0.6s0-0.4,0.1-0.4c0-0.4,0.1-0.8,0.3-1.2c0.1-0.3,0.2-0.6,0.3-0.9c0.3-0.7,0.6-1.3,1.1-1.9l0.5-0.7v-0.2l1.6-1.6
	l0.3-0.2l0.7-0.5l1.9-1.1l0.7-0.4h0.3l0.8-0.3l2.7-0.7l1.4-0.3h3.8c2.8,0,5-2.2,5-5c-0.1-2.7-2.3-4.9-5-5c-9-0.2-17.7,3.2-23.1,10.5
	c-5.4,7.3-4.4,16.5-0.7,23.7l1.6,2.4c-1.5,1.1-2.9,2.3-4.2,3.5c-3.6,3.5-6.6,7.5-9,11.9c-5.1,8.6-8.4,18.1-12.7,27.1
	c-2.5,5.1-5.4,10.1-8.6,14.8c-1.7,2.5-3.4,4.9-5.2,7.3c-0.1,0.1-0.1,0.2-0.2,0.2c-0.1,0-0.1,0.1-0.1,0.2l-0.6,0.7l-1.4,1.8l-3.2,3.9
	c-7.9,9.4-16.2,18.4-23.7,28.1c-4.2,5.4-8.8,10.4-13.9,14.9c-1.3,1.2-2.6,2.3-3.9,3.3l-0.8,0.7l-0.6,0.4l-1.9,1.5l-4,2.7
	c0.8-14.5,3.1-28.8,8.3-42.5c5.7-14.8,14.2-28.3,25.1-39.8c4.4-4.7-2.7-11.8-7.1-7.1c-19.4,20.7-31.7,47-35.1,75.2
	c-3.8,30.4,1.8,61.5-6.3,91.4c-4.2,15.2-9.9,29.5-10.8,45.4c-0.4,7.8,0,15.6,0,23.4s-0.2,14.7-0.8,22.1c-2.2,28.2-9.1,55.9-20.2,82
	c-6.2,14.5-13.8,28.4-22.6,41.5c-3.4,5.2-7.7,11.6-14.1,13.5c-4,1.2-9.9,0.2-11.3-4s-5.7-5.2-8.3-2.2l-5.5,6.2
	c0.7-32.7-8.2-64.9-25.6-92.6c-1.9-2.9-5.3-3.1-7.9-1c-3.8,3.1-7.2,6.6-10.2,10.4c1.5-27.8,4.6-55.5,9.3-82.9
	c1.6-9.7,3.4-19.3,5.4-28.8c0.7-2.7-0.9-5.4-3.6-6.1c5.7-20.7,11.4-41.4,17-62.1c6.3-22.6,11.2-46.3,22.9-66.9
	c2.9-4.9,5.7-10.9,4.2-16.8c-0.8-2.9-3.1-6.7-6.5-6.7h-1.8c10.3-21.6,24.9-40.9,42.9-56.7c20.1-17.9,43.6-31.5,67.9-42.6
	c14.2-6.4,28.7-12.1,43.5-17c3.3-1.1,5.3-5.8,2.2-8.4c-4.5-3.9-9.7-6.9-15.3-9l4-1c6.5-1.4,13.2-2.3,19.8-3.3c3.6-0.5,5-6.1,2.2-8.4
	c-4.3-3.4-9.5-5.5-14.5-7.8l-4-1.8c19.1-4.3,38.8-4,57.8,0.6c11.8,3,22.9,8.2,35.1,9.8c6.3,0.6,12.6,0.6,18.9-0.2l16.9-1.3l5.3-0.4
	h4.6l1.4,0.3l2.6,0.8c2.2,0.7,4.4,1.6,6.5,2.4c0.8,0.6,1.7,0.9,2.7,0.9c0.7,0,1.3-0.2,1.9-0.4c12.7-4,25.9-5.8,39.2-5.3
	s26.1,4,39.5,3.6c6.1-0.1,12.1-0.7,18-2c6.3-1.5,11.4-4.9,17-7.8c10.1-5.4,21.5-8.1,32.9-6.7c11.4,1.4,19.6,5.6,28,11.5
	c-7.7,3.6-16.3,5.7-23.3,10.6c-3.2,2.3-3.3,8.1,1.2,9.1c6.6,1.5,13.2,2.4,19.8,4l2.4,0.6c-5,1.5-9.6,3.9-13.8,7
	c-3.7,2.7-2.9,7.4,1.2,9.1c21.7,9.1,44.3,15.7,66.2,24.2c16.9,6.6,32.6,15.7,44,30.4c5.8,7.8,10.5,16.3,14.2,25.3
	c-2.5-0.4-4.4-0.1-6.3,2.2c-1.9,2.3-3.3,8.6-2.1,13.1c1.1,3.4,2.4,6.7,4.1,9.9c0.4,0.8,0.7,1.6,1.1,2.5h0.1c0,0.1,0,0.3,0.1,0.4
	c0.2,0.6,0.4,1.1,0.7,1.6c4.6,11.6,8.7,23.4,12.8,35.3c4.1,11.9,8.7,25.3,13.3,37.9c4.6,12.6,8.4,22.5,15.3,32.4
	c1.7,2.5,3.6,4.9,5.5,7.3l0.8,1l0.8,1.1c0.7,0.9,1.3,1.9,1.8,2.9l0.7,1.4l0.5,1.3c0.5,1.5,0.9,3,1.2,4.5c0.5,2,0.8,4.1,1.1,6.2
	l-4.6-1.1c-0.6-0.2-1.3-0.4-1.9-0.6c0.5,0.1-1.2-1,0,0.1c-3.5-3.1-10-0.2-8.4,4.9c6.9,21.3,10.6,43.7,13.1,65.9
	c2.9,24.7,4.3,49.8,3.1,74.7c-0.3,6.1-0.8,12.2-1.6,18.2c-3.3-5.5-7.3-10.5-12-14.9c-2.9-2.7-7-1.3-8.3,2.2
	c-11.3,30-23.1,60.3-29.4,91.8l-6.4-8.6c-2.8-3.5-7.5-2.9-9.2,1.2c-0.9,2.3-3.8,3.4-6.1,3.6c-1.5,0.2-3.1,0-4.6-0.4
	c-0.3-0.2-0.7-0.3-1.1-0.4c0-0.1-0.1-0.2-0.2-0.2l-1.2-2c-1.1-1.8-2-3.6-2.9-5.5c-5-10.4-9-21-13.3-32.2c-3.6-9.4-6.9-19-10.8-28.3
	c-2.4-5.7-5.7-10.9-8.6-16.2c-3.2-5.8-6.1-11.7-8.6-17.8c-0.9-2.3-1.7-4.7-2.3-7.1c-0.3-1.1-0.5-2.2-0.7-3.3l-0.3-1.6
	c0-0.4-0.1-0.7-0.1-1c-0.4-5.1-0.4-10.2,0.1-15.3c0.5-7.1,1.3-14.3,2-21.5c0.4-4.7,1.3-9.8,0.9-14.5c-0.6-4.2-2.1-8.3-4.2-12
	c-1.9-3.4-4.3-6.7-5.5-10.4c-1.2-3.7-1-8.6-0.5-12.9c1.1-9.8,4.1-19.5,3.9-29.5c-0.1-5.2-1.2-10.4-1.7-15.6s-0.8-11.5-0.8-17.3
	c-0.2-11.7,0.5-23.3,1.2-35c1.1-20.4,3-41.4-1.6-61.6c-3-13.3-9.6-27.6-23.4-32.5c-3-1-6.1-1.5-9.3-1.5c-6.4,0-6.4,10,0,10
	c2.5,0.1,5,0.5,7.4,1.4c2.4,1.1,4.6,2.6,6.3,4.6c4.1,4.4,6.8,10.9,8.5,17.2c4.4,16.1,3.8,33.3,2.8,50l-1.3-1c-2.4-2-4.7-4.1-6.9-6.3
	c-2.2-2.2-4.3-4.5-6.3-6.8l-3-3.6l-0.7-1.1l-1.5-2c-1.7-2.3-3.2-4.7-4.5-7.3l-0.8-1.6l-0.5-1.1l-1.5-4c-1.7-5.4-3.1-11-4.1-16.6
	c-2-11.1-3.4-22.6-7.5-33.1s-11.6-20.3-20.4-28.1c-7.3-6.1-15.1-11.4-23.5-15.8c2.9-2.9,4.9-7.4,4.4-11.6s-2.8-8.3-5.4-11.7
	c-2.8-3.7-6.3-7-10.2-9.6c-4.2-2.9-9.1-4.5-14.2-4.8c-2.8,0-5,2.2-5,5s2.2,5,5,5h1.3l2.4,0.6l1.1,0.4l0.7,0.2h-0.4
	c0.8,0.3,1.6,0.7,2.4,1.2l2.1,1.3l0.9,0.7l0.3,0.2l0.3,0.2c1.3,1.1,2.6,2.3,3.7,3.6c0.4,0.3,1.5,1.3,1.5,1.7c0,0,0,0,0,0l0.2,0.4
	l0.8,1l1.2,2c0.2,0.3,0.4,0.7,0.5,1.1c0.1,0.1,0.2,0.5,0.4,0.7c0.1,0.2,0.2,0.5,0.2,0.6l0.3,0.9c-0.1,0.4-0.1,0.7-0.1,1.1l-0.3,0.9
	H650l-0.6,1.1h-0.1l-1,0.9c0,0.1-0.1,0.1-0.1,0.2c-0.4,0.2-0.8,0.4-1.1,0.6H647l-1.1,0.2h-0.8c-2.4-0.5-4.8,0.7-5.8,2.9
	c-0.9,2.2-0.2,5.2,2,6.3c5.1,2.4,10.1,5,15,7.9l7.2,4.7l3.5,2.5l1.2,0.9l1.5,1.2c4.4,3.6,8.5,7.5,12.1,11.9c0.4,0.5,0.7,0.9,1.1,1.4
	c0,0,0,0,0,0l0.1,0.1c0,0,0,0,0,0c0,0,0,0,0,0l0.2,0.2c0.2,0.3,0.4,0.5,0.5,0.8c0.9,1.1,1.7,2.3,2.4,3.5c1.5,2.2,2.7,4.5,3.7,7
	c0.1,0.1,0.1,0.2,0.1,0.3c0.2,0.3,0.3,0.6,0.4,0.9l0.6,1.7c0.5,1.5,1,2.9,1.4,4.4s1.5,5.4,2.1,8.2c1.2,5.6,2.1,11.3,3.1,16.9
	c2,11.2,4.6,22.7,10.9,32.3c7.9,11.7,17.9,21.9,29.4,30.1c-0.7,11.3-1.3,22.6-1.3,33.9c0.1,5.8,0.3,11.6,0.8,17.4s1.6,10.8,1.8,16.3
	c0.4,10-2.7,19.9-3.8,29.9c-0.6,4.6-0.9,9.6,0.2,14.2c1.1,4.6,3.4,8.2,5.5,12s4,6.5,4.4,10.2s-0.5,9.4-0.9,13.8
	c-0.7,7.4-1.5,14.7-2,22.1c-0.8,10.4-0.1,20.5,3.6,30.3c2.6,6.5,5.6,12.8,9,18.9l7,12.7c0.3,0.6,0.6,1.1,0.9,1.8
	c0.2,0.3,0.4,0.7,0.5,1.1c3.9,9.5,7.4,19.1,11,28.7c4.4,11.5,8.8,23.1,14.2,34.2c1.5,3.2,3.2,6.8,5.8,9.4c5,4.9,14.4,4.4,20.2,1.7
	c1.2-0.6,2.3-1.3,3.3-2.1c3.2,4.1,6.3,8.2,9.4,12.4c1.3,1.6,2.8,2.7,5,2.3s3.9-1.6,4.2-3.5c5.1-32.6,16.7-63.8,28.2-94.6
	c4.9,5.9,8.6,12.6,11.1,19.8c1.4,4.5,8.4,5.1,9.6,0C890.7,591.4,891,568.1,890.3,545.7z M443.5,235.1l-0.4,0.3
	C443.2,235.2,443.3,235.1,443.5,235.1z M437.3,241.2l-0.4,0.4C437,241.5,437.2,241.2,437.3,241.2z M650.2,220.8c0-0.1,0-0.2,0.1-0.2
	C650.2,220.7,650.2,220.7,650.2,220.8z M721.1,340.8C721.5,341.4,721.2,341,721.1,340.8L721.1,340.8z"/>
<path d="M808.9,517.6c-4.8,18.8-7.3,41,4,58.1c1.3,2,2.8,3.8,4.4,5.6h-2.7c-0.8-1.8-2.6-2.9-4.5-2.8c-2.7,0.1-4.9,2.3-5,5
	c0,2.8,1.6,5.4,4.1,6.7c2.2,0.9,4.7,1.3,7.1,1c4.3-0.5,8.6-1.4,12.8-2.5c1.9-0.6,3.3-2.2,3.6-4.2c0.2-2-0.8-3.9-2.4-5l-0.8-0.5
	l-1.2-0.9c-0.9-0.8-1.8-1.6-2.6-2.5c-0.8-0.7-1.5-1.5-2.2-2.3l-0.7-0.9c0-0.1-0.1-0.1-0.1-0.2l-0.6-0.8c-1.2-1.7-2.3-3.5-3.2-5.4
	l-0.6-1.3c0-0.1,0-0.1-0.1-0.1v-0.4c-0.5-1-0.9-2.1-1.2-3.2c-0.6-2.1-1.1-4.2-1.5-6.3c-0.1-0.4-0.1-0.9-0.2-1.4c0.3,1.5,0-0.2,0-0.5
	c-0.2-1.1-0.3-2.3-0.3-3.4c-0.2-4.7-0.1-9.4,0.5-14c0.1-0.2,0.1-0.5,0.1-0.7h0.1c0.1-0.6,0.1-1.3,0.2-1.9s0.5-2.7,0.8-4
	c0-0.2,0-0.4,0.1-0.5c5.6,4.5,11.6,8.5,17.9,12c2.2,1.2,4.9,0.7,6.5-1.3c1.5-2,1.3-4.7-0.4-6.5c-1-1-1.9-2-2.7-3.1h0.1l-0.2-0.3
	l-0.6-0.9l-1.3-1.8c-1.6-2.2-2.8-4.7-3.8-7.2c0,0,0.1,0.1,0.1,0.2c-0.1-0.3-0.2-0.7-0.4-1l-0.6-1.9c-0.5-1.3-0.9-2.6-1.3-3.9
	c-0.7-2.7-1.3-5.4-1.7-8.1c0-0.4-0.4-2.3-0.1-0.9l-0.3-2.2l-0.3-4.3c-0.2-2.8-0.3-5.7-0.4-8.5c0-5.8,0.2-11.6,0.5-17.5
	c0.5-12.6,1.1-25.1,0.1-37.8c-1.2-14.3-3.7-28.5-6.1-42.6c-0.7-4-1.4-7.9-2-11.9c-0.3-1.9-0.6-3.9-0.8-5.8c-0.1-0.5-0.2-0.9-0.2-1.4
	c0-0.1,0-0.1-0.1-0.2v-0.6c-0.2-1-0.3-2-0.4-3c-1-8.3-1.1-16.7-3.2-24.8c-0.7-2.6-3.5-4.2-6.1-3.5c-2.6,0.8-4.2,3.5-3.5,6.2
	c0.4,1.6,0.8,3.3,1,5c0.1,0.4,0.1,0.7,0.2,1s0.1,0.9,0.1,0.9l0.3,2.8c0.3,3.7,0.6,7.3,1,10.9c0.9,7.5,2,15,3.2,22.4l3.6,20.8
	c0.5,3.6,1.1,7.1,1.6,10.7v0.5c0.1,0.4,0.1,0.8,0.2,1.2l0.3,2.5l0.6,5.7c1.2,12.8,0.9,25.5,0.3,38.3s-1.1,23.3,0.3,34.8
	c0.6,5.5,1.8,10.9,3.6,16.2l-4.5-3.9C814.6,512.9,809.9,513.8,808.9,517.6z M816.7,581.4C816.2,581.5,816.4,581.4,816.7,581.4
	L816.7,581.4z"/>
</svg>
