<?xml version="1.0" encoding="utf-8"?>
<!-- Generator: Adobe Illustrator 24.2.3, SVG Export Plug-In . SVG Version: 6.00 Build 0)  -->
<svg version="1.1" id="fe3c9fd7-7c06-4f09-a40c-a4ceb459eabe"
	 xmlns="http://www.w3.org/2000/svg" xmlns:xlink="http://www.w3.org/1999/xlink" x="0px" y="0px" viewBox="0 0 1152 864"
	 style="enable-background:new 0 0 1152 864;" xml:space="preserve">
<path d="M1021.4,405.2c-2.5-9.1-5.5-18.1-9.1-26.8c-7-16.6-17.9-30.9-27.8-45.7c-2.7-4-5.7-7.8-8.7-11.6
	c-10.7-13.4-21.8-26.6-32.8-39.8c-14.5-17.4-29.2-34.8-43.8-52.1L862,185.4l-10.6-12.3c-5.5-6.3-11-12.7-17.6-17.8
	c-7-5.2-15.2-8.6-23.9-9.6c-8.9-1.2-17.9-1-26.9-1.9c-8.6-1-17-3.2-24.9-6.8c-8.1-3.3-15.8-7.4-23.8-11.1
	c-8.5-3.9-17.4-7.3-26.4-9.9c-18.4-5.1-37.3-7.5-56-11.2s-36.7-7.8-55.4-9.6c-9.4-0.9-18.9-1.1-28.4-0.5c-28.1-0.2-56.3,4-84,8.6
	c-13.9,2.2-27.8,4.5-41.7,7s-29.4,6.2-43.2,12c-13.8,5.8-25.6,12.7-39.1,17.4c-6.4,2.2-13,3.7-19.7,4.3c-7,0.5-14,0.5-20.9,1.2
	c-6.9,0.7-14.7,2.2-21.4,5.7c-6.7,3.5-11,7.6-15.6,12.4c-4.6,4.8-9.1,10.3-13.7,15.4c-4.6,5.1-10.1,10.7-15.3,15.9
	c-10.7,10.6-21.9,20.7-33.6,30.1c-11.1,8.8-23.2,16.7-32.4,27.5s-15.4,23.9-21.7,36.7c-6.5,13.4-13.8,26.3-21.9,38.8
	c-7.9,12.1-16.6,23.6-23.8,36.1c-7.4,12.6-12.4,26.5-14.7,40.9c-1.2,8-1.9,16-2.5,24c-0.6,8-1.2,15.7,0,23.5
	c2.2,14.1,10.2,26.3,18.8,37.3c26.1,33.2,57.8,61.5,93.7,83.6c10.3,6.2,21.1,12,30.2,19.9c4.3,3.6,8,7.9,11,12.6l0.3,0.4
	c0,0.5,0,1.1-0.1,1.6c-0.9,11.5-2.8,22.9-5.7,34.1c-1.4,5.7-3.3,11.3-4.4,17s0.1,11.4,5.1,15c8.9,6.4,19.7,1.2,25.9-6.2
	c6.3-7.8,11.3-16.7,14.7-26.1c7-18.4,9.2-38.3,11.9-57.7c1.4-9.8,2.9-19.6,5.2-29.3c2.6-10.3,5.9-20.5,9.9-30.4
	c7.8-20,16.9-39.8,20.7-61.1c4-23,0.3-45.7-3.6-68.4c-2.1-11.1-3.5-22.3-4.4-33.5c-0.7-11,0-22.1,2-33c4-22,12.5-42.8,22.1-62.9
	c9.6-20.1,20.5-40.5,22.7-63.1c0.6-5.4,0.5-10.9-0.2-16.3c-0.4-2.7-2.1-5-5-5c-2.9,0-5.4,2.3-5,5c2.8,21.5-5.6,41.9-14.7,60.9
	c-9.1,19-19.1,39.6-25.3,60.7c-3.1,10.6-5.3,21.4-6.3,32.4c-0.9,11.1-0.6,22.3,0.8,33.3c2.7,22,8.4,43.8,8.8,66
	c0.7,42.4-25.3,78.6-33.6,119.2c-3.8,19-5.3,38.4-9.1,57.4c-1.8,9.1-4.4,17.9-7.9,26.5c-1.9,4.3-4.1,8.4-6.6,12.4
	c-2.4,3.7-5.1,7.9-8.8,10.4c-3.7,2.5-6.1,2.5-8.7,0.5c-0.9-0.8-1.3-2-1-3.2c0.2-2.8,1.3-5.6,2-8.3c2.9-11.1,5.7-22.4,7.2-33.8
	c3.1-22.1,1.6-44.7-4.6-66.2c-1.5-5.1-3.2-10.2-5.2-15.1c-1-2.5-3.3-4.3-6.2-3.5c-2.9,0.8-4.5,3.6-3.4,6.2
	c6.2,15.4,9.8,31.7,10.8,48.3c-13.8-14.2-33.4-22.9-49.6-33.8c-22.8-15.6-43.7-33.8-62.3-54.2c-9.1-10.1-18.4-20.7-25.3-32.6
	c-3.4-5.8-5.8-12.1-7-18.7c-1.2-7.4-0.4-15.2,0.2-22.7c1.2-14.6,2.6-29.2,7.9-43s13-24.5,20.8-35.8c7.8-11.3,16.4-24.3,23.5-37.1
	c7.1-12.8,12.5-25.7,19.6-38.1c3.1-5.7,6.8-11,11-15.9c4.8-5.2,10.1-9.9,15.7-14.1c11.4-9,22.9-17.8,33.8-27.5
	c11-9.9,21.4-20.3,31.3-31.3c8.4-9.3,16.4-20.8,28.2-26.2c11.8-5.4,26.8-3.7,40-5.3c13.2-1.6,27.2-7.5,40.1-13.7
	c12.9-6.2,25.7-11.7,39.6-15.3c13.9-3.6,28.4-5.9,42.8-8.3c27.1-4.6,54.4-9.3,81.9-11c6.2-0.3,12.3-0.5,18.5-0.5h1.3
	c18.3-1.2,36.5,1.1,54.6,4.6c9,1.7,18,3.7,27.1,5.4s18.7,3.3,28,5c18.2,3.3,35.9,7.9,52.7,15.8c16.8,7.9,31.7,16,49.5,18.1
	c17.8,2.1,34.4-0.8,48.2,10.6c7.6,6.3,13.8,14.2,20.2,21.6c10.9,12.6,21.7,25.4,32.5,38.1c14.4,17.1,28.9,34.2,43.3,51.4
	c12.4,14.7,24.7,29.5,36.9,44.4l6.3,7.8l2.6,3.3c0.4,0.4,0.7,0.8,1,1.3l0.4,0.4c6.3,8.4,12,17.2,17.7,25.9
	c4.9,7.2,9.2,14.9,12.9,22.8c3.6,8.2,6.1,17.1,8.7,25.7c2.6,8.6,5.6,18.2,4.5,27.1c-0.6,4.4-2,8.7-2.9,13s-1.7,8.5-3.2,12.6
	c-2.8,7.9-7.7,15.1-12.7,21.8c-4.8,6.4-10.4,12.3-16.5,17.5C968.9,509,954.8,516,941,522.8s-29,13.6-41,23.7s-20.8,23.3-29.1,36.2
	c-1.6,2.4-3.1,4.8-4.6,7.3c-0.6-6.7-0.7-13.5-0.4-20.2c0.1-3.9,0.6-7.9,1.5-11.7c0.4-1.7,0.9-3.4,1.5-5.1c0.1-0.3,0.2-0.6,0.4-0.8
	c0-0.2,0.1-0.4,0.2-0.5c0.4-0.9,0.9-1.8,1.5-2.6c0.1-0.2,0.2-0.5,0.4-0.7v-0.2h0.2l1.6-1.7l0.2-0.2l0.7-0.5c0.4-0.2,2.4-1.2,1.3-0.8
	c2.5-1,4.3-3.3,3.5-6.1s-3.6-4.5-6.1-3.5c-15.9,6.5-17.3,26.8-17.2,41.7c0.1,9,0.9,17.9,1.9,26.9c1.1,11,2.7,22,5,32.8
	c1.4,6.6,3.1,13.1,4.8,19.6c0.6,2.3,2,5.4,1.2,7.9s-1.6,1.9-3.2,2.2c-1.5,0.3-3.1,0.1-4.5-0.5c-2.3-1.2-4.4-2.9-6-5
	c-3.4-4.1-6.4-8.7-8.7-13.5c-10-19.6-12.4-42.3-15.4-63.8c-1.6-11.1-3.2-22.2-5.9-33.1s-6.8-19.1-11.9-27.8
	c-10.5-17.9-24.4-34.1-32.3-53.3c-3.7-9-5.5-18-4.6-27.7s4.8-20.6,8.7-30.2c8.2-20,18.9-39.9,18.4-62.1c-0.5-26-8.6-51-18.9-74.6
	c-4.4-10.1-10-19.8-13.1-30.4c-0.6-1.9-1-3.8-1.3-5.8c0-0.3-0.1-0.7-0.2-1c0-0.3,0-0.6-0.1-0.9c-0.1-1.1-0.1-2.1-0.1-3.2
	c0-3.9,0.2-7.9,0.8-11.8c0.5-4.6,1.4-10.1,2.1-15c0.4-2.7-0.6-5.4-3.5-6.2s-5.8,0.8-6.1,3.5c-1.4,9.7-3.6,19.6-3.3,29.5
	c0.3,9.9,3.2,18,7,26.4c5.3,11.8,10.9,23.3,15.4,35.4c4.5,11.9,7.8,24.3,9.8,36.9c1.8,11.3,2.4,22.9-0.3,34.1s-6.8,20.5-11.1,30.4
	c-8.6,20.1-17.9,41.3-13,63.6c4.6,20.6,18.2,38.2,29.6,55.5c5.6,8.5,11.2,17.2,15,26.7s5.8,21,7.5,31.7c3.5,22.4,5.1,45.4,13.1,66.7
	c3.9,10.4,9.3,21.4,17.3,29.2c4.2,4,9.7,7,15.7,6.4s11.1-3.9,12.8-9.6c1-3.4,0.4-6.9-0.4-10.3s-1.9-6.9-2.8-10.4
	c-1.6-6.3-3.1-12.7-4.3-19.2s-2.2-13.7-3-20.6c0.3-0.2,0.5-0.5,0.6-0.8c7.9-12.9,15.8-26,25.3-37.8c4.4-5.8,9.5-11.1,15.2-15.7
	c6.3-4.8,13.5-8.5,20.4-12.2c14.1-7.4,28.8-13.8,42.4-22.3c6.8-4.1,13.2-8.9,19.1-14.2c6.3-6,12-12.6,17-19.8
	c5.3-6.9,9.5-14.7,12.3-23c1.5-4.3,2.1-8.8,3.1-13.2c1.3-4.5,2.3-9.2,2.8-13.9C1027,424.2,1024,414.1,1021.4,405.2z"/>
</svg>
