<?xml version="1.0" encoding="utf-8"?>
<!-- Generator: Adobe Illustrator 24.2.3, SVG Export Plug-In . SVG Version: 6.00 Build 0)  -->
<svg version="1.1" id="b7f09a40-be16-437d-ac02-7eebd32662bf"
	 xmlns="http://www.w3.org/2000/svg" xmlns:xlink="http://www.w3.org/1999/xlink" x="0px" y="0px" viewBox="0 0 1152 864"
	 style="enable-background:new 0 0 1152 864;" xml:space="preserve">
<path d="M918.8,423.6c0.1-10.1-1.1-20.3-4.8-29.8s-9.4-17.3-15.7-25c-1.8-2.3-3.7-4.5-5.6-6.7l8.6-0.2c4.9-0.2,7-6.9,2.6-9.4
	c-8.3-4.5-15.4-10.9-20.7-18.7c-5.9-8.6-8.9-18.7-13.5-28.1c-1.9-4-4.3-7.6-7.3-10.9c-2.5-2.5-5.2-4.7-8.1-6.7
	c-6.7-4.6-13.7-8.7-21-12.4l-6.3-3.2c5.1-1,10.3-1.6,15.5-1.7c5,0.1,6.8-6.8,2.5-9.3c-12.3-7-25-13.3-38.1-18.6
	c-12-4.8-24.2-8.9-36.5-13l-11-3.8c1.6-2.3,1.6-5.8-1.4-7.2c-26.2-12.4-54.3-20.1-83.2-22.8l-12.1-0.8l0.3-0.3
	c1.5-1.4,1.9-3.6,1.1-5.5c-0.9-2-2.5-2.8-4.6-3.1c-30.2-4-63.5-9.3-92.5,2.8c-6.7,2.8-13,6.6-18.6,11.2
	c-23.7-19.4-56-21.2-85.4-18.8c-9,0.8-18,1.9-26.9,3c-2,0.3-3.8,1.1-4.6,3.1c-0.8,1.9-0.3,4.1,1.1,5.5l0.3,0.4
	c-24.7,0.9-49.2,5.6-72.5,14c-7.8,2.8-15.4,6-22.8,9.5c-3.1,1.5-3,5.2-1.2,7.4c-25.5,9.8-50.5,21.1-74.7,33.8
	c-8,4.2-15.9,8.5-23.6,13c-4.3,2.5-2.5,9.4,2.5,9.3h6.8c-6.8,4.4-12.8,10-17.5,16.6c-8.3,12.1-10.8,27.1-20.2,38.6
	c-5,6.1-11.1,11.2-18,15c-4.4,2.5-2.3,9.2,2.6,9.4l9.2,0.3c-13.3,17.6-21.9,38.2-25.1,60c-0.9,6.4-1.4,12.8-1.4,19.3
	c-0.3,1.4-0.3,2.8,0.2,4.1c1.5,5.4,9.9,4.5,9.8-1.3v-0.7l0.7-0.2h1l0.5,0.2l0.4,0.2l0.4,0.5c1.5,2.6,1.1,6,0.8,8.8
	s-0.9,7.4-1.1,11.1c-0.4,15.8,3.4,31.4,11,45.2c2,3.6,8.3,3,9.1-1.2c0.9-4.1,2.5-8.1,4.6-11.7c3.6,26.2,13.9,50.9,29.9,71.9l0,0
	l0.8,1c1.5,1.9,4.8,1.8,6.6,0.4c1.9-1.6,2.5-4.3,1.3-6.5c-0.4-0.6-0.6-1.3-0.7-2c7.8,11.8,15.6,23.7,23.6,35.5s17,23.2,30.7,28.3
	c2.2,0.6,4.5-0.4,5.7-2.3c0.7-1.7,1.5-3.3,2.3-4.9c5.8,4.7,9.8,11.4,13.8,17.7c0.3,5.7,0.8,11.4,1.6,17.1c0.4,2.6,3.8,4.2,6.2,3.4
	s3.8-3.3,3.4-6.1c0-0.3,0-0.5-0.1-0.8v-0.3c-0.1-0.5-0.1-0.9-0.2-1.4s-0.2-2.3-0.4-3.4s-0.4-4.5-0.5-6.8c0-0.7-0.1-1.4-0.1-2.1
	c0.2-0.8,0.2-1.7-0.1-2.5c-0.1-3-0.1-6-0.1-8.9c0.1-4.6,0.4-9.1,0.8-13.6c0.1-1.1,0.3-2.3,0.4-3.4s0.1-0.9,0.2-1.4v-0.3
	c0-0.3,0.1-0.5,0.1-0.8c0.3-2.2,0.7-4.5,1.1-6.7c0.5-2-0.2-4-1.8-5.3c-0.9-0.6-1.9-1-3-1c1.7-8,3.9-15.8,6.5-23.5
	c0.9-2.7,1.9-5.3,2.9-8s1-2.6,1.6-3.9l0.2-0.5c0.1-0.1,0.1-0.2,0.1-0.3c0.4-0.8,0.7-1.7,1.1-2.5c2.3-5.1,4.8-10.2,7.5-15.1
	s6.4-11,9.9-16.3c0.8-1.4,1-3,0.3-4.5c-0.6-1.4-1.8-2.5-3.3-2.9l-1.3-0.4l1.2-1.7l0.6-0.7h0.1l1.2-1.5c0.8-1.1,1.6-2.1,2.5-3.1
	c3.4-4.1,6.9-8,10.7-11.8s7.5-7.3,11.4-10.7c2.1-1.7,4.1-3.5,6.2-5.1l1.5-1.2h0.2c0.2-0.2,0.4-0.4,0.7-0.5l3.3-2.6
	c4.8-3.4,9.7-6.7,14.7-9.7c1.8-1,2.7-3,2.4-5c-0.3-1.9-1.6-3.5-3.5-4.1c5.3-3.1,10.7-6,16.3-8.6l6.5-2.9l0.5-0.2h0.2l1.6-0.7
	l3.3-1.6c4.5-1.7,9-3.3,13.5-4.7s10.3-2.9,15.5-4.1c2.6-0.7,4.2-3.3,3.5-6v-0.1c-0.8-2.6-3.5-4.1-6.1-3.5
	c-19,4.2-37.2,11.1-54.3,20.4c-4.8,2.6-9.4,5.3-14,8.3c-1.7,1.1-2.6,3-2.4,5c0.3,1.9,1.7,3.5,3.6,4.1h0.2c-10.6,7-20.5,15.1-29.5,24
	l-3.5-29c-0.7-6-1.5-12-2.2-18.1c-0.4-3-0.7-6.1-1.1-9.2s-1.1-7-4.4-8.9c-1.6-1-3.6-1.3-5.5-0.9c-0.1-5.7,0.2-11.5,0.6-17.3
	c0.2-2.3,0.4-4.6,0.7-6.9s0.3-2.3,0.4-3.5l0,0c0.1-0.4,0.1-0.7,0.2-1c0-0.5,0.1-1,0.2-1.5c0.7-4.8,1.6-9.5,2.6-14.2
	s-2.3-7.5-6.1-6.2l-4.6,1.6c1.6-6.5,3.5-12.9,5.8-19.2c0.8-2.3,1.7-4.5,2.6-6.8l0.3-0.7v-0.2l0.8-1.8l1.4-3.2
	c2.1-4.4,4.3-8.8,6.8-13.1s-1.4-8.6-5.7-7.3l-8.1,2.5l1.3-1.8l1-1.4c0.2-0.1,0.3-0.3,0.4-0.4s0.1-0.2,0.3-0.4s2.7-3.4,4.1-5
	c5.5-6.6,11.5-12.8,17.8-18.6c3.2-3,6.4-5.8,9.7-8.5l5.1-4.1l1.2-0.9c0.1-0.2,0.3-0.3,0.5-0.4h0.1l2.7-2.1
	c7-5.2,14.2-10.1,21.6-14.8s16.8-10.1,25.4-14.8c2.4-1.5,3.2-4.6,1.7-7c-0.4-0.7-1-1.3-1.7-1.7l-3.9-2.1l0.8-0.2
	c3.7-1.4,7.5-2.7,11.3-3.8s8-2.2,12.1-3c4-1,8.1-1.7,12.2-2.2h1.1l1.5-0.2l3.2-0.4l6.3-0.5c4.3-0.2,8.6-0.3,12.9-0.2s8.2,0.5,12.3,1
	h0.5l1.5,0.2l3.1,0.5l5.8,1.3l6.3,1.8l3.1,1.1l1.4,0.6l0.5,0.2h0.1c3.9,1.7,7.5,3.7,11,6.1c2.1,1.5,5.6,0.5,6.8-1.8
	c0.3-0.5,0.4-1,0.5-1.6c2.3-1.4,4.7-2.7,7.1-3.8l1.3-0.6l0.9-0.4l0.6-0.3l1.3-0.5l5.3-1.7c3.6-1,7.2-1.9,10.9-2.4l1.4-0.2h0.5
	l2.8-0.3c1.9-0.1,3.8-0.3,5.8-0.3c3.9-0.2,7.8-0.1,11.7,0.1l5.9,0.5l3,0.4c0.4,0,1.4,0.1,0.4,0l1.6,0.3c7.9,1.1,15.6,2.9,23.2,5.2
	c4.2,1.3,8.4,2.7,12.5,4.3l2,0.8l-4,2.1c-1.8,1-2.7,3-2.4,5c0.2,2,1.6,3.7,3.6,4.2c10.4,2,20.6,4.8,30.5,8.4l3.3,1.3l1.8,0.7
	l0.7,0.3l0.7,0.3l0.6,0.3l0.8,0.3l1.7,0.8l3.6,1.6c4.6,2.2,9.1,4.6,13.5,7.2c4.3,2.5,8.5,5.3,12.5,8.3l1.4,1
	c0.2,0.1,1.6,1.2,0.6,0.4l3,2.4l5.4,4.7c3.5,3.3,6.9,6.7,10,10.4c0.8,0.8,1.5,1.7,2.2,2.6l1,1.2c0.1,0.1,0.1,0.1,0.1,0.2l0.6,0.8
	c1.5,1.8,2.8,3.8,4.1,5.7c2.8,4.3,5.3,8.8,7.4,13.5c0.3,0.6,0.6,1.2,0.9,1.9c0-0.1-0.4-1-0.1-0.2l0.4,1c0.3,0.8,0.6,1.7,1,2.6
	c-8.6-2.5-17.3-4.8-25.8-7.4c-4.8-1.5-8.4,4.9-4.9,8.3c2.9,2.9,5.7,5.9,8.2,9.1l0,0l0.5,0.6l0.7,0.9l1.8,2.7c1,1.6,2,3.2,2.9,4.9
	l1.2,2.4l0.6,1.2c0.1,0.2,0.2,0.4,0.2,0.6h0.1c0.6,1.7,1.3,3.5,1.8,5.3s0.9,3.5,1.3,5.4s0.1,1,0.2,1.5h0.1c0.1,1,0.2,2.1,0.2,3.1
	s0.1,4.2,0,6.3c0,0.3,0,0.5-0.1,0.8l-7.3-2.6c-1.9-0.5-4,0.2-5.2,1.8c-1.3,1.6-1.4,3.8-0.4,5.6c1.1,2.4,1.6,3.6,2.6,6.3
	s1.5,4.7,2.2,7s1.1,4.7,1.5,7.1l0.3,1.4c0,0.3,0.1,0.6,0.1,0.9l0,0v0.2c0.2,1.2,0.3,2.4,0.4,3.5c0.3,4.6,0.3,9.2-0.2,13.8
	c0,0.1-0.2,1.4-0.2,1.3s-0.1,0.7-0.1,1.1l-0.3,1.6c-2.4-1.3-5.4-1.3-7.7,0.2c-1.8,1.1-3.1,2.8-3.6,4.9c0,0.3-0.3,1.7-0.2,1.3
	s-0.7,1.7-1,2.5c-1.2,2.7-2.2,5.4-3.2,8.1c-4,11.3-6,23.1-6.2,35c0,2.6,0.1,5.2,0.3,7.8c-5.9-5.1-12.2-9.7-18.9-13.6l-6.5-3.6
	c1.2-0.6,2-1.7,2.4-3c0.4-1.7,0-3.5-1.3-4.8c-14.6-13.8-33-24.5-52.9-28.2c-5.8-1.1-11.8-1.6-17.7-1.5c-2.7,0.1-4.9,2.3-5,5
	c0,2.8,2.2,5,5,5c2.4-0.1,4.8,0,7.2,0.2c1.2,0,2.3,0.1,3.5,0.3c0.4,0,1.9,0.1,0.7,0l2,0.3c4.7,0.8,9.4,2,13.9,3.5l3.1,1.2l1.7,0.6
	l0.8,0.3h0.1c2.2,1,4.5,2,6.7,3.2c4.2,2.2,8.2,4.7,12,7.4l3.2,2.3l0.3,0.2l0.6,0.5l1.6,1.3l0.4,0.3l-1.6,0.7
	c-1.9,0.5-3.3,2.1-3.6,4.1s0.6,4,2.4,5c9.5,4.2,18.5,9.4,27,15.5l1.6,1.2h0.2l0.6,0.5l3.1,2.6c2,1.7,4,3.5,5.8,5.3s3.6,3.7,5.3,5.6
	l2.3,2.8l0.7,0.9l0,0l1.3,1.7c2.8,3.9,5.3,7.9,7.4,12.2l-2.3,0.8c-2.7,0.8-4.3,3.6-3.5,6.3c0.2,0.8,0.6,1.5,1.2,2.1
	c1,1.1,1.9,2.2,2.7,3.3c0.5,0.5,0.9,1,1.3,1.6l0.6,0.8l0.4,0.5c1.8,2.3,3.5,4.5,5.1,6.9c3.4,4.8,6.5,9.7,9.3,14.9
	c1.4,2.5,2.7,5.1,3.9,7.7l0.9,1.9l0.4,0.9l0,0c0,0.1,0,0.1,0.1,0.1l1.6,4.2c1.9,5.4,3.4,11,4.3,16.6c0.1,0.4,0.2,0.9,0.2,1.3
	c-0.1-1.3,0,0.1,0.1,0.3s0.1,1.6,0.2,2.4c0.2,1.7,0.3,3.3,0.3,5v2.4c-3-1.2-5.9-2.6-8.7-4.2c-1.8-1-4-0.8-5.6,0.4
	c-1.7,1.3-2.1,3.2-1.8,5.3c1.7,10.1,3.6,20.2,5.1,30.4c0,0.6,0.1,1.1,0.2,1.7l0,0c0,0.2,0.1,0.5,0.1,0.7s0.3,2.7,0.5,4.1
	s0.5,5,0.7,7.4c0.4,5.1,0.5,10.1,0.4,15.1c-0.1,2.8-0.3,5.6-0.6,8.4c0,0.7-0.1,1.5-0.2,2.2c0,0.1-0.1,0.2-0.1,0.3s-0.1,0.9-0.1,1
	s-0.5,2.8-0.7,4.3s0.7,5.5,3.4,6.1s5.7-0.7,6.2-3.5c2.4-12.4,2.4-24.9,1.3-37.3l0.5-0.6c4.6-7.1,11.1-12.8,18.2-17.3
	c0.8,1.8,1.7,3.5,2.5,5.3c1.2,1.9,3.5,2.8,5.7,2.2c13.7-5.1,22.8-16.5,30.8-28.3s16.6-25.1,24.9-37.6c0.9,1,1.7,2,2.4,3l1.5,2.3
	l0.6,1.1c0.1,0.2,0.1,0.3,0.2,0.3l0,0c0.1,0.4,0.2,0.8,0.4,1.1c0,0.2,0,0.5,0.1,0.7l0,0c-0.9,2.1-0.3,4.5,1.5,5.9s5,1.6,6.6-0.4
	l0.7-1l0,0c0.1,0,0.1,0,0.1-0.1c14.6-19.5,19.8-43.7,22.1-67.6l0.6-7.6c2,3.4,3.4,7.1,4.2,11c0.9,4.3,7.2,4.9,9.2,1.2
	c6-11,3.2-23.6,3.9-35.6c0.2-4.7,1.2-9.2,4.5-12.3s4.2-6.7,4.7-11c1-9.3-1.1-19.3-3.3-28.4c-0.2-0.7-0.3-1.4-0.5-2.2l2.2,2.1l1,1.1
	l0.6,0.8l0.7,1.2v0.3c-0.1,5.7,8.3,6.7,9.9,1.3C918.8,425.4,918.9,424.5,918.8,423.6z M849.9,567.8L849.9,567.8
	c0.1,0,0.1-0.2,0.2-0.3L849.9,567.8z M903.3,406.7c-2.9-2-7-4.6-10.5-2.5s-2.9,5.2-1.6,8c0.3,0.5,0.7,1.9,0.2,0.3l0.8,2
	c1.4,4.1,2.5,8.3,3.4,12.5c0.6,2.6,1.1,5.1,1.5,7.7c0.4,2.3,0.7,4.7,0.9,7s0.3,4.7,0.1,7c0,0.5-0.1,1-0.1,1.5v0.2l0,0
	c-0.2,0.9-0.5,1.8-0.7,2.7h-0.1l-0.2,0.3c-0.2,0.2-0.4,0.3-0.4,0.4c-0.6,0.5-1.2,1.1-1.7,1.7c-2.2,2.5-3.8,5.4-4.7,8.6
	c-2.1,6.8-1.5,14.2-1.3,21.1c0,1.6,0.1,3.1,0.1,4.6c-2.3-3.5-5.1-6.6-8.2-9.3c-2-1.9-5.1-1.9-7.1,0.1c-0.9,0.9-1.4,2.2-1.4,3.5
	c-0.7,14.5-1.8,29.1-4.9,43.4c-2.3,10.5-5.7,21-11,30.4l0,0c-2.7-4.2-6.1-7.8-10-10.9c-2.3-1.7-5.5-0.2-6.9,1.8L812.3,590
	c-5.9,8.8-12.6,18.6-22.3,23.7c-0.9-1.9-1.8-3.8-2.8-5.7s-4.6-3-6.8-1.8c-7.4,3.9-14.2,9.1-19.9,15.2c-0.6-4-1.2-8-1.9-12
	s-0.9-5.1-1.3-7.7c2.3,0.9,4.5,2,6.7,3.3c1.6,1,3.5,1,5.1,0c1.5-0.9,2.4-2.6,2.4-4.3c2.8-24.8-7.2-48.8-21.1-68.9
	c-2.6-3.8-5.3-7.4-8.1-10.9l1-0.4c3.3-1.2,4.3-4.2,3-7.3c-3.8-8.6-8.7-16.6-14.8-23.7c-0.3-1.3-0.6-2.7-0.8-4.1l-0.3-2v-0.2
	c-0.1-0.4-0.1-0.8-0.2-1.3c-0.3-2.7-0.5-5.5-0.6-8.3c-0.1-2.7-0.1-5.4,0.1-8.1c0-1.3,0.1-2.6,0.2-3.9c0.1-0.6,0.2-1.1,0.2-1.7
	c0.1-0.3,0.1-0.6,0.1-0.9c0-0.2,0.1-0.4,0.1-0.6c0.7-5,1.8-9.9,3.2-14.7c0.7-2.4,1.4-4.8,2.3-7.2s0.8-2.3,1.3-3.5l0.6-1.6l0.3-0.7
	c0.1-0.2,0.2-0.4,0.2-0.6l0.6-1.1c0.1,0.1,0.2,0.3,0.2,0.4l0.2,0.4c0.7,2.1,2.6,3.5,4.8,3.5c2.2-0.1,4.1-1.5,4.8-3.6
	c3-9.7,4.2-19.8,3.3-29.9c-0.5-6.9-1.9-13.7-4.2-20.2l2.9,1c2.6,0.7,5.4-0.9,6.1-3.5c1.8-8.6,1.6-17.5-0.5-26.1
	c-2-7.5-5.3-14.6-9.8-20.9c6.2,1.7,12.4,3.4,18.6,5.3c2.7,0.7,5.5-1,6.2-3.7c0.2-0.8,0.2-1.6,0-2.4c-5-19.2-15.9-36.3-30-50.1
	s-33.5-25.6-52.9-33.4c-7.1-2.8-14.4-5.1-21.8-7.1l1.2-0.7c3.2-1.6,3.4-7,0-8.6c-14.7-7.1-30.3-12-46.3-14.8
	c-16.3-2.7-33.1-3.2-49.2,0.9c-8.1,2-15.8,5.3-22.7,9.9c-13-7.7-28.5-10.8-43.4-11.6c-17.7-0.8-35.4,1.2-52.4,5.9
	c-9,2.5-17.8,5.7-26.2,9.7c-3.4,1.6-3.2,7,0,8.6l4.9,2.7c-12.8,7.2-25.2,15.2-37.1,23.8c-14.3,10.5-27.8,22.2-39.4,35.6
	c-6.7,7.7-12.7,15.9-18.1,24.6c-2.2,3.7,1.5,8.7,5.7,7.4l10.1-3.1c-7,14.4-12.1,29.7-15.1,45.5c-0.8,2.7,0.8,5.4,3.4,6.2
	c0.9,0.2,1.8,0.3,2.7,0l4.8-1.7c-2.9,16.3-3.9,32.9-3,49.4c0.1,2.5,1.9,4.5,4.3,4.9s4.6-1,5.4-3.3l0,0v-0.2c0-0.1,0-0.1,0.1-0.1l0,0
	c0.1,1,0.2,2,0.4,3l0.9,8l3.9,32.1c0.7,6.1,1.5,12.2,2.2,18.4l0.3,1.3l-3.3,3.9c-4.1,4.8-8,9.9-11.6,15.1c-0.8,1.3-0.9,3-0.2,4.4
	c0.6,1.4,1.7,2.5,3.2,2.9l1.6,0.6c-11.4,17.8-19.9,37.3-25.3,57.8c-1.8,6.8-3.3,13.6-4.4,20.5c-0.4,2,0.3,4,1.9,5.3
	c1,0.7,2.2,1.1,3.4,1c-0.4,4.1-0.8,8.2-1,12.2c-3.7-4.6-7.9-8.8-13.2-11.7c-2.2-1.3-5.6-0.7-6.8,1.8s-1.9,3.8-2.8,5.7
	c-9.7-5.1-16.4-14.9-22.3-23.7l-27.2-41.2c-2-2.9-5.3-3.1-7.9-1c-1.4,1.1-2.5,2.5-3.4,4c-12.8-20.3-20.2-43.6-21.5-67.6
	c-0.1-2.8-2.5-5-5.3-4.9c-1.2,0-2.3,0.5-3.2,1.3c-4.2,3.7-7.7,8.1-10.3,13c-3.5-9.3-5.1-19.2-4.8-29.1c0.2-6.8,2.2-13.7,0.8-20.4
	s-6.1-10.9-12.6-10.8h-0.7c1.8-26.8,12.3-52.3,30-72.5c1.9-2,1.9-5.1-0.1-7.1c-0.9-0.9-2.1-1.4-3.4-1.4l-4.5-0.2
	c7.1-6.3,12.9-13.9,17-22.5c3.3-6.8,5.7-14,9.2-20.7c3.3-6.1,7.9-11.4,13.4-15.6c6.3-4.8,13.4-8.5,20.3-12.2
	c4.4-2.3,2.4-9.4-2.5-9.3h-6.2c21.6-11.6,43.7-21.9,66.4-31.1c8.2-3.3,16.5-6.5,24.8-9.5c2.7-0.9,4.2-3.7,3.3-6.4
	c-0.3-0.8-0.7-1.6-1.4-2.2c29-12,60.1-17.9,91.5-17.5c4.3,0,6.7-5.5,3.6-8.6l-1.6-1.5c11.6-1.5,23.3-2.4,35-2.5
	c14.7-0.1,29.6,1.5,43.3,7.1c7.2,3,13.8,7.3,19.5,12.6c0.9,1,2.3,1.5,3.6,1.4c1.3,0.1,2.6-0.4,3.5-1.4c21.9-20.4,53.8-20,81.8-17.2
	l15,1.7l-1.7,1.6c-3.1,3-0.7,8.6,3.6,8.6c27.5-0.3,54.8,4.3,80.8,13.4l10.7,4.1c-2.1,1.9-2.2,5.1-0.3,7.2c0.6,0.6,1.3,1.1,2.2,1.4
	c24.8,8.9,50.2,16.1,74.1,27.4c2.7,1.2,5.3,2.6,8,3.9c-5.4,1-10.8,1.7-16.3,1.8c-4.8-0.1-6.9,7-2.5,9.3c13.2,6.9,26.9,13,39.3,21.3
	l4.5,3.1h0.1l0.2,0.2l0.9,0.7l1.8,1.6c0.6,0.5,1.1,1,1.6,1.6l0.9,1c0.2,0.4,0.4,0.7,0.7,1c0.3,0.5,0.7,1,1,1.6
	c0.7,1.2,1.4,2.4,2,3.6c5,9.3,7.8,19.6,13.7,28.5c3.4,5.3,7.6,10.1,12.3,14.3l-4.4,0.2c-2.8,0-5,2.3-4.9,5.1c0,1.3,0.5,2.5,1.4,3.4
	c8.5,9.6,17.1,18.6,23.1,29.7c3.2,6,5.4,12.5,6.3,19.2C906.4,408.7,904.9,407.6,903.3,406.7L903.3,406.7z"/>
</svg>
