<?xml version="1.0" encoding="utf-8"?>
<!-- Generator: Adobe Illustrator 24.2.3, SVG Export Plug-In . SVG Version: 6.00 Build 0)  -->
<svg version="1.1" id="f21f50a5-62ff-4005-b985-948606d4bc63"
	 xmlns="http://www.w3.org/2000/svg" xmlns:xlink="http://www.w3.org/1999/xlink" x="0px" y="0px" viewBox="0 0 1152 864"
	 style="enable-background:new 0 0 1152 864;" xml:space="preserve">
<path d="M971.8,392.3c-7.2-21-19.6-39.8-35.9-54.8c-14.1-13-30.3-23.7-43.6-37.6c-5.6-5.6-10.2-12-13.8-19l11.5,0.9
	c4.8,0.4,5.9-5.5,3.5-8.5c-14.6-18.5-14.7-43.8-23.9-64.8c-5.7-13.3-15.9-26.8-29.4-32.5c5.8-2.1,11.7-3.6,17.8-4.6
	c4.2-0.6,5-7.4,1.2-9.1c-15.1-7-31.5-11-48.2-11.6c-8.5-0.3-17.1,0.3-25.5,1.8c-8.7,1.5-17.1,4.4-25.8,5.4
	c-16.7,1.8-32.4-6.8-47.6-12.5s-29.2-10.3-44.2-14.4c-30.5-8.6-62.1-14.3-93.8-14.9c-15.5-0.3-31.1,0.9-46.4,3.6
	c-15.3,2.7-29.7,7.6-43.9,13.7c-8.7,3.7-17.6,7.1-27.2,6.6c-9.6-0.5-18.3-4.4-27-7.7c-15.5-5.9-34.1-10.9-49.2-1
	c-2.3,1.4-3,4.4-1.6,6.7c0.3,0.5,0.7,1,1.2,1.4c-16.4,8.5-31.8,19-45.6,31.3c-2.6,2.4-1.4,7.7,2.2,8.4l3.6,0.6
	c-12.3,15.3-23.3,31.5-32.9,48.6c-1.7,3,0.6,7.1,3.6,7.6c-0.3,0.7-0.7,1.4-1.1,2c-0.7,1.3-1.4,2.5-2,3.8l-4.9,8.6
	c-3.1,5.6-6.1,11.2-9.4,16.6c-3,5.3-6.9,10.1-11.3,14.3c-4.6,4.2-10,7.6-15.1,11.3c-19.2,13.2-34.5,31.2-44.3,52.3
	c-2,4.3,2.2,9.6,6.8,6.8c1.2-0.7,2.5-1.2,3.9-1.4c-9.9,30.5-15.6,62.1-17.1,94.1c-0.2,4,4.3,5.9,7.5,4.3l7.1-3.6
	c-3.3,21.8-3.4,44-0.4,65.8c0.4,3.2,4.9,4.5,7.3,3c1.8-1.2,3.7-2.1,5.7-2.7c-1.8,20.2-3,40.8,2.1,60.7c2.6,9.9,6.9,19.2,10,28.9
	c3.1,9.7,5,19.3,0.1,28.2c-2.6,4.8,3.9,10.3,7.9,6.1c2.2-2.4,4.2-5,6-7.7c-1.2,12.8-4.7,25.2-10.3,36.8c-1.3,2.5-0.4,5.6,2.1,6.9
	c1.1,0.6,2.3,0.8,3.5,0.5c2.7-0.7,5.2-1.8,7.6-3.2c-0.3,17.7,4.3,35.1,13.2,50.3c2,3.6,8.2,3.2,9.1-1.2c1.5-7,3.7-13.9,6.6-20.5
	c5,14.8,14.8,27.5,27.9,36c2.5,1.7,6.7,0.1,7.3-3c2-9.6,6.6-18.3,12.1-26.6c-0.3,1.1-0.6,2.2-0.8,3.3c-1,4.9,4.6,8.4,8.3,4.9
	c11.1-10.3,21-21.7,29.7-34.1c2.4,2.3,5.6,3.6,8.9,3.8c8.6,0.4,15.1-6.4,20.3-12.4c22.8-26.1,34.3-60.2,32-94.8
	c-1.3-19.3-8.2-37.3-11.9-56.2c-4.2-22-2.7-44.8,4.3-66.1c1.5-4.7-5.1-8.7-8.4-4.9c-3.3,3.8-7.5,9.4-10.9,14.3
	c4.4-13.1,7.8-26.5,7.8-40.5c-0.1-19.7-5.5-39-6.1-58.8c-0.6-19.8,2.9-36.9,8.6-54.5c6.7-20.4,16.5-39.6,27.3-58.1
	c3.2-5.5-5.4-10.6-8.7-5c-19.1,32.7-35.4,68.7-37.1,107.1c-0.9,20.1,4,39.6,5.5,59.5c0.9,9.7,0.4,19.5-1.6,29.1
	c-1.9,8.5-4.5,16.8-7.6,24.9c-7,19.1-15.1,37.9-16,58.4c-0.3,5.7,8.4,6.8,9.8,1.4c4.6-18.3,12.1-35.8,22.2-51.8
	c-1.4,9.5-1.8,19.1-1.2,28.7c1.1,17.7,6.4,34.2,10.6,51.2c7.2,30.3,3.4,62-11.8,89.3c-4.2,7.6-9.2,14.6-15,21.1
	c-2.6,2.8-5.5,6.3-9.3,7.7c-2.1,0.8-6.7,0-5.6-3.1c2-5.5-6.2-8.5-9.1-3.9c-2.9,4.6-7.5,11.2-11.6,16.5c1.1-1.9,2.2-3.9,3.2-5.9
	c5.8-11.9,8.7-25.3,2.9-37.7c-2.1-4.4-9.8-2.4-9.4,2.5c1.7,16.6-7.7,30.6-17,43.5s-17.5,23.7-22.1,37.5
	c-11.4-9.5-18.8-22.8-20.9-37.5c-0.6-4.6-6.5-7.2-9.3-2.5c-4.1,6.9-7.5,14.3-10,21.9c-6.3-15.4-7.9-32.3-4.8-48.6
	c0.6-2.8-1.2-5.5-4-6c-1.5-0.3-3.1,0.1-4.3,1.1c4.6-16.7,5.6-34.3,2.8-51.4c-0.9-5.7-9.6-4-9.8,1.4c-0.1,2.8-0.4,5.6-1.1,8.4
	c-2.2-11.1-7.4-22.1-10.7-32.6c-7.1-22.5-4.9-46.3-2.8-69.4c0.2-2.6-2.5-5.1-5-5c-3.3,0.2-6.5,0.8-9.6,1.9
	c-2.3-21.5-1.3-43.3,2.9-64.5c0.7-2.7-1-5.5-3.7-6.2c-1.2-0.3-2.6-0.1-3.7,0.5l-8.1,4.2c2.2-30.3,8.3-60.2,18.2-88.9
	c0.9-2.5-1.1-5.4-3.5-6.1c-1.7-0.5-3.4-0.8-5.1-0.9c8.8-15.2,20.7-28.4,35.1-38.5c9.1-6.5,18.2-12.5,25.1-21.4
	c6.9-8.9,12.3-20.1,18-30.3c2.9-5.2,8.3-11.8,6.7-18.2c-0.4-1.5-1.2-2.8-2.3-3.8c9.9-16.9,21.3-33,34-48c2.1-2.6,1.8-7.7-2.2-8.4
	l-1.5-0.3c13.3-10.7,27.9-19.7,43.4-26.9c2.4-1.1,3.2-4.7,1.8-6.8l-0.7-1.1c11-2.5,23.3,1.9,33.7,5.9c7.5,2.8,15.1,5.8,23.2,7.1
	c8.2,1.3,16.6,0.6,24.5-2c7.7-2.4,14.9-6,22.4-8.9c6.8-2.7,13.8-4.9,21-6.6c14.7-3.5,29.8-5.4,44.9-5.7c31-0.7,62,4.2,92.1,11.9
	c14.8,3.8,29.4,8.3,43.8,13.4c6.8,2.5,13.6,5,20.3,7.7c6.7,2.7,15.9,6.5,24.4,8c19.2,3.6,37.3-5.3,56.3-6.3
	c13.3-0.7,26.6,0.9,39.3,4.7c-6.5,2.2-12.8,5-18.7,8.4c-4.1,2.3-2.5,9.7,2.6,9.3c19.9-1.5,33.4,18.3,39.1,35.1
	c5.7,16.8,8.5,36.5,17.5,52.8l-9.5-0.8c-2.8,0-5.1,2.3-5.1,5.1c0,0.4,0.1,0.9,0.2,1.3c13.4,38.3,55.2,53.8,78.4,84.7
	c5.6,7.4,10.3,15.4,14.1,23.9l-13.6-4.8c-5.3-1.8-7.7,4.9-4.9,8.4c13.1,16.5,17.3,38.8,12.3,59l-13.1-11.4c-2.1-1.9-5.3-1.7-7.2,0.4
	c-1.1,1.2-1.6,2.9-1.2,4.5c3.4,17,6.3,34.1,8.8,51.2c-4.2-8.7-10.9-16-19.2-20.9c-5.3-3.1-9.4,3.6-6.1,7.8
	c6.3,8.1,5.7,19.6,3.5,28.9c-2.8,11.8-7.7,23-9.1,35.1s0.7,24.3,0,36.4c-1-3.7-2.4-7.3-4.2-10.7c-2-4.1-7.9-2.7-9.1,1.2
	c-7.1,22,1,44.5,7.2,65.7c3.8,13,7,27.7,4.2,41.2c-3.3-11.3-9-21.6-16.8-30.4c-3.1-3.5-8.3-0.5-8.5,3.5c-0.6,10-2.3,20-4.9,29.7
	c-0.4-0.3-0.8-0.6-1.2-0.8l-3.5-3.2c-5.3-4.5-10.7-8.9-15.7-13.7c-5.1-4.8-9.9-9.8-14.4-15.2l-1.6-2l-0.3-0.4
	c-0.3-0.3-0.5-0.7-0.7-1c-1-1.3-2-2.7-3-4.2c-1.9-2.8-3.7-5.7-5.3-8.7c-0.9-1.7-1.8-3.4-2.6-5.2c-0.2-0.4-0.4-0.9-0.5-1.3h0
	c0,0.1,0,0.2,0,0.2c0-0.1,0-0.1-0.1-0.2h0c0-0.1-0.1-0.2-0.1-0.3l-1.1-2.7c-1.3-3.6-2.3-7.4-3-11.2c-0.7-2.2-2.6-3.7-4.9-3.7
	c-2.2,0.1-4.2,1.6-4.8,3.7c-5.5,16.9-3.6,34.4-2.1,51.8c-0.7-1.1-1.5-2.1-2.4-3c-1.8-1.8-3.8-3.4-5.7-5.1c-0.9-0.8-1.8-1.6-2.6-2.5
	l-1.1-1.2c0,0,0,0,0,0l-0.2-0.2l-0.5-0.6c-0.3-0.4-0.5-0.9-0.7-1.4l-0.3-0.7c-0.3-1.3-0.4-2.7-0.8-4c-1-3.2-2.5-6.2-4.4-9
	c-4-6-9.2-11.2-14.6-16.1c-0.9-0.8-2-1.3-3.2-1.4c-1.7-4.1-3.3-8.2-4.6-12.4c-0.7-2.3-1.3-4.6-1.8-6.9l-0.6-3.3
	c0-0.2-0.1-0.5-0.1-0.8l-0.3-1.9c-0.4-4.7-0.4-9.4,0-14.1c0-0.6,0.1-1.3,0.2-1.9c0-0.2,0-0.3,0-0.4c0-0.2,0.1-0.7,0.1-0.8
	c0-0.2,0.4-2.4,0.7-3.7c0.5-2.6,1.2-5.2,2-7.7c0.4-1.3,0.8-2.6,1.3-3.8l0.7-1.8l0.5-1.1c1.1-2.4,2.3-4.8,3.7-7.1
	c1.3-2.2,0.6-5.6-1.8-6.8c-2.4-1.4-5.4-0.6-6.8,1.8c-10.2,17.3-13.4,37.8-9,57.4c2.2,9.7,6.7,18.6,9.9,27.9c0.9,2.3,1.6,4.7,2.2,7.1
	c0.3,1.2,0.6,2.3,0.8,3.4l0.3,1.8c0.1,0.3,0.1,0.5,0.2,0.8v0.2c0.2,2.7,0.3,5.5,0.2,8.2c0,1.3-0.1,2.6-0.2,3.9s-0.1,1.3-0.2,1.9
	c-0.1,0.3-0.1,0.7-0.1,1c0,0.1-0.1,0.2-0.1,0.3v0.3c-0.9,6.2-2.2,12.3-3.4,18.4l-1.7,8.9c-5.6-6.9-7.1-17-7.3-26.2
	c-0.3-14.1,2.3-28-0.7-42c-1.7-7.8-5.3-15.3-11.4-20.7c-2.9-2.5-7.6-1.2-8.4,2.4c-1.6-4.2-3.1-8.6-4.4-12.9
	c-3.4-12.1-4.6-24.8-3.5-37.3c1.1-12.7,4.1-25.3,7.1-37.7s6.3-24.7,9.6-36.9c13.2-48.3,27.7-97.6,26.2-148.2
	c-0.7-25.7-4.5-53.9-21.7-74.3c-1.8-2-5.3-1.8-7.1,0c-2,1.9-2,5.1,0,7.1c14.5,17.1,17.7,41.6,18.7,63.2c1.1,24.5-1.8,49.1-6.6,73.1
	s-11.6,49-18.2,73.2c-6.6,24.2-14.2,49.3-17.3,74.6c-1.9,14.3-1.2,28.7,2.3,42.7c3.6,13.8,9.6,26.8,15.5,39.7
	c2.1,4.7,9.3,2.2,9.3-2.5v-4.2c1.7,7.1,1.7,14.8,1.4,22.1c-0.6,13.5-2.1,27.6,2.9,40.6c2.3,6.4,6.4,12,11.8,16.2
	c0.3,1.9,1.7,3.4,3.5,3.8c2.4,0.6,5.6-0.7,6.1-3.5c2.1-10.8,4.3-21.7,6.2-32.6c1.1-5.7,1.7-11.5,1.8-17.3c-0.1-4.1-0.5-8.2-1.4-12.2
	l0.7,0.9c0,0.1,0.3,0.4,0.4,0.6l0.7,0.9c0.9,1.2,1.7,2.5,2.5,3.8s0.7,1.3,1,2c0.1,0.2,0.1,0.3,0.1,0.3c0.2,0.4,0.3,0.7,0.4,1.1
	c0.4,1.3,0.6,2.5,0.9,3.8c0.3,1.5,0.9,3,1.6,4.4c2.5,4.7,7.1,7.8,10.9,11.4c0.9,0.8,1.7,1.7,2.5,2.6l0.4,0.6l0.6,1.2
	c0.1,0.1,0.3,0.2,0.3,0.4l0.3,0.8c0.2,0.7,0.3,1.4,0.5,2.1s0.5,3,0.8,4.6c0.9,6.8,2,14.3,7.6,19c2,1.9,5.3,1.8,7.2-0.2
	c0.8-0.9,1.3-2.1,1.4-3.3c1.8-20.3-3.1-40.4-2.3-60.7c3,6.2,6.7,12.1,10.8,17.6c8.4,11.1,18.4,20.8,29.1,29.7c3,2.3,5.9,4.8,8.5,7.5
	l0.4,0.5l0.2,0.2l1.5,4.8c-1.2,2.4-0.4,5.3,1.9,6.6l0.9,0.3c2,1.9,5.3,1.9,7.2-0.2c0.5-0.6,1-1.3,1.2-2c3.9-10.8,6.6-21.9,8.2-33.2
	c5.7,9.4,9.1,20,9.7,31c0,2.8,2.3,5,5.1,4.9c1.7,0,3.4-0.9,4.2-2.4c11.8-17,9.6-39,4.7-58c-2.4-9.3-5.7-18.7-8.1-28.2
	c1.8,0,3.4-0.9,4.4-2.4c13.9-19.5,5.7-44.1,8.8-66c1.7-12.8,7.7-24.6,9.6-37.3c0.6-3.8,0.8-7.6,0.6-11.4
	c11.9,18.7,11.3,46.3,18.5,66.1c1.7,5,10.3,4.7,9.8-1.3c-3.1-35.4-7.8-70.6-14.2-105.5l8.1,7c3,2.6,7,1.4,8.4-2.2
	c7.5-20.7,6-43.6-4.2-63.1l10.3,3.6C969.2,399.7,973,395.8,971.8,392.3z M772.8,556.8C772.9,556.5,772.9,556.6,772.8,556.8
	L772.8,556.8z"/>
<path d="M367.9,260c2.3-3.8,4.8-7.5,7.5-11.1l0.6-0.8l0.7-0.9l2.2-2.7l4.2-4.9c2.9-3.3,6-6.4,9.1-9.5c3.1-3.1,6.3-5.9,9.6-8.6
	l5.2-4.2l0.5-0.4l1.4-1l2.6-2c8-5.7,16.5-10.8,25.3-15.1c2.4-1.4,3.2-4.5,1.8-6.9c-1.5-2.3-4.5-3.1-6.9-1.8
	c-16.3,8.1-31.2,18.6-44.5,31c-6.5,6.1-12.6,12.7-18.1,19.7c-5.8,7.4-11.1,15.2-14.8,23.9c-3.7,8.7-6.7,20.2-5.8,30.8
	c0.2,2.5,1.7,4.6,4.3,4.9c2.5,0.4,4.8-1.1,5.5-3.5c0-0.2,0.1-0.3,0.1-0.4c-1.3,7.5-2,15-1.9,22.6c0.1,5.9,0.7,11.8,1.6,17.7
	c0.3,1.9,2.4,3.3,4.2,3.6c2,0.2,3.9-0.7,5-2.4l11.7-21.4c0,0.4-0.1,0.9-0.1,1.4v0.3h-0.1c0,0.6-0.1,1.2-0.3,1.7c-0.4,2-0.8,4-1.4,6
	c-2.6,10.9-3.9,22.1-3.7,33.3c0.2,11.2,2.2,22.2,3.8,33.3c0.1,0.6,0.2,1.3,0.2,1.9c0,0.1,0.1,0.2,0.1,0.4c0,0.3,0,0.6,0.1,0.8
	c0.2,1.4,0.3,2.7,0.5,4.1c0.2,1.4,0.5,5.5,0.6,8.2c0.3,4.5,0.2,9-0.3,13.5c0,0.3-0.1,0.6-0.1,0.8c0,0.1,0,0.3,0,0.4l-0.3,1.8
	c-0.2,1.2-0.5,2.5-0.8,3.7c-0.5,2.5-1.2,4.9-2.1,7.2l-0.5,1.2L374,438c-0.5,1.1-1.1,2.2-1.7,3.3c-0.6,1.1-1.3,2.1-2,3.1l-0.5,0.6
	c0,0.1,0,0.1-0.1,0.2h-0.1l-1.3,1.5c-1.7,2-2,5.2,0,7.1c2,1.9,5.3,2.1,7.1,0c13.9-15.8,14.8-37.8,12.3-57.6c-0.8-6.1-1.8-12-2.6-18
	l-0.3-2V376c0-0.3-0.1-0.6-0.1-0.9l-0.6-4.5c-0.2-2.7-0.5-5.5-0.6-8.3c-0.3-5.7-0.1-11.5,0.4-17.2c0.2-1.3,0.3-2.7,0.5-4
	c0.1-0.7,0.1-0.7,0.1-0.6c0-0.2,0-0.4,0-0.5c0.2-0.8,0.3-1.6,0.4-2.4c0.5-2.7,1-5.5,1.7-8.2c2.2-9.4,5.6-22.3-4.6-28.5
	c-2.4-1.3-5.4-0.5-6.8,1.8l-8.7,15.7c0-4.1,0.2-8.2,0.6-12.2c0.1-1.1,0.2-2.2,0.4-3.3c0.2-1.1,0.1-0.9,0.1-1.1l0.3-2
	c0.4-2.3,0.9-4.6,1.4-6.9c1.1-4.7,2.5-9.3,4.2-13.8l1.5-3.7v-0.2c0.2-0.4,0.4-0.7,0.5-1.1l0.7-1.6c1.2-2.6,2.5-5.1,3.8-7.5
	c1.2-2.2,0.7-4.9-1.3-6.5c-2-1.5-4.7-1.3-6.5,0.4c-2.8,2.4-5.4,5-7.9,7.7l0.5-0.9C365.7,263.7,366.8,261.8,367.9,260z"/>
<path d="M348.8,567.1c-0.3,1.8-0.7,3.5-1.1,5.2c-0.4,1.7-0.5,1.8-0.8,2.7s-0.3,0.8-0.4,1.3c-0.2,0.3-0.3,0.6-0.4,0.9
	c-2,0.2-3.6,1.7-4.1,3.6c-0.7,2.6,0.9,5.4,3.5,6.1c2.7,0.8,5.6-0.1,7.5-2.2c1.7-1.7,2.5-4,3.3-6.2c1.2-4,2.2-8,2.8-12.1
	c1.3-9,1.1-18.1-0.5-27c-0.5-2.5-3.7-4.2-6.2-3.4c-2.6,0.8-4.1,3.5-3.5,6.1c0.2,0.9,0.4,1.8,0.5,2.7v0.5c0,0.5,0.1,0.9,0.1,1.4
	s0.3,3.5,0.4,5.3c0.1,3.6-0.1,7.2-0.5,10.8c0,0.3,0,0.5,0,0.8c0,0.4-0.1,0.7-0.1,1.1C349.2,565.5,349,566.3,348.8,567.1z"/>
<path d="M522.3,186.9C522.3,186.9,522.2,186.9,522.3,186.9c-12.4-0.6-24.4,3.4-33.8,11.3c-2.1,1.7-1.9,5.4,0,7.1
	c1.9,1.9,5.1,1.9,7,0l0.8-0.7h0.2l1.5-1l3.3-2.1l3.5-1.7h0.2l0.7-0.3l2-0.7l3.5-1l2.1-0.4h8.9c2.8,0,5-2.2,5-5
	C527.4,189.5,525.2,187.1,522.3,186.9z"/>
<path d="M844.6,314.1c1.4-1.7,1.2-3.6,0.4-5.5c-7.2-16.9-15.2-33.4-24-49.5c-8.4-15.2-17-31.4-31.6-41.5c-7.7-5.4-17.2-8.7-26.7-8.2
	c-2.6,0.2-5.1,2.2-5,5c0.1,2.8,2.2,5.2,5,5c1.9-0.1,3.8,0,5.7,0.2h0.5l1.4,0.3l2.7,0.7l2.8,0.9l1.1,0.5l0.7,0.3
	c1.7,0.8,3.4,1.7,5,2.8c0.9,0.5,1.7,1,2.4,1.6l0.5,0.3l0.4,0.3h0.1l0.6,0.5c1.5,1.3,3,2.6,4.4,4c1.5,1.5,2.9,3.1,4.2,4.7l0.9,1
	l0.3,0.4v0.2l1.9,2.6c4.9,6.9,8.9,14.3,13,21.6s8.4,15.7,12.3,23.7c2.7,5.3,5.2,10.7,7.7,16.2l-16.9-6.4c-2.6-0.8-5.4,0.7-6.2,3.3
	c-0.5,1.8,0,3.8,1.3,5.1c1.9,1.5,3.7,3.2,5.3,5l2.2,2.7c0.1,0,0.1,0,0.1,0.1l0.3,0.4l1.2,1.7c1.4,1.9,2.6,3.9,3.7,6
	c0.5,1.1,1.1,2.1,1.6,3.1l0.6,1.4l0.4,0.9v0.2c1.8,4.6,3.3,9.2,4.5,14c0.5,2.3,1,4.6,1.4,6.9l0.6,3.5l0.3,1.7c0,0.2,0,0.5,0.1,0.7
	c0,0,0.1,0.7,0.1,0.8c2.9,23.2,2.2,47,10.7,69.1c4.6,11.7,11,22.7,19,32.4c1.6,2,5.3,1.8,7,0c1.9-2,1.9-5.1,0-7.1l-1.3-1.7l-0.7-0.8
	l-2.4-3.3c-1.5-2.1-2.9-4.4-4.3-6.6s-2.6-4.6-3.8-7c-1.2-2.4-1.1-2.3-1.7-3.4l-0.7-1.6c-0.2-0.3-0.3-0.7-0.4-1l-0.2-0.4
	c-2-4.9-3.7-10-5-15.2c-0.6-2.8-1.2-5.6-1.7-8.5c-0.2-1.4-0.5-2.8-0.7-4.2v-0.6c-0.1-0.1-0.1-0.6-0.1-0.7c0-0.1-0.3-1.7-0.4-2.6
	c-2.5-21.8-1.9-44.3-9.9-65.1c-1.7-4.6-3.8-8.9-6.3-13.1l10.2,3.8C841.2,316.4,843.3,315.7,844.6,314.1z"/>
<path d="M798.7,441.2c0-0.2,0-0.3,0.1-0.5v-0.5c0.1-0.3,0.1-0.6,0.2-1c0.1-0.7,0.3-1.3,0.5-2c0.6-2.6-0.8-5.6-3.5-6.2
	c-2.7-0.7-5.4,0.9-6.2,3.5c-2.3,9.6-1.2,19.4,0.6,29c1.5,8,3.6,15.8,6.1,23.5c8.2,24.7,21.2,47.6,38.4,67.2c1.9,2,5.1,2,7.1,0
	c1.9-2,1.9-5.1,0-7.1c-1.3-1.4-2.6-2.9-3.8-4.5l-1.9-2.3l-0.8-1l-0.4-0.5H835c-2.4-3.1-4.7-6.3-6.9-9.6c-4.4-6.6-8.4-13.5-12-20.6
	c-1.7-3.5-3.3-7.1-4.9-10.7c-0.1-0.2-0.2-0.4-0.2-0.6c-0.2-0.4-0.4-0.8-0.5-1.2l-1.2-2.9c-0.7-1.8-1.4-3.7-2-5.6
	c-2.7-7.4-4.8-15-6.5-22.7c-0.5-2.3-0.9-4.6-1.3-7l-0.3-1.6c0-0.3-0.1-0.6-0.1-1V455l-0.3-3.6c-0.3-2.5-0.3-5.1-0.2-7.6
	c-0.1-0.6,0-1.1,0-1.7C798.6,441.8,798.7,441.5,798.7,441.2z"/>
<path d="M668.7,198.5c-2.6,0.4-4.3,3.8-3.5,6.2c0.8,2.4,3.4,3.9,6.1,3.5h1.7l2.6-0.2h2.6c0.9,0,1.7,0,2.6,0.2h0.1l1.3,0.3l2.4,0.5
	c1.7,0.4,3.3,1,4.9,1.6h0.2l1.4,0.6l2.1,1.1c1.5,0.9,2.9,1.8,4.2,2.8h0.2l0.3,0.2l0.9,0.7l1.9,1.8l1.8,1.9l0.7,0.8l0.5,0.6h-0.1
	c1.6,2,4.4,3.3,6.8,1.7c2.4-1.6,3.5-4.6,1.8-6.9C702,202.5,685.3,195.8,668.7,198.5z"/>
</svg>
