<?xml version="1.0" encoding="utf-8"?>
<!-- Generator: Adobe Illustrator 24.2.3, SVG Export Plug-In . SVG Version: 6.00 Build 0)  -->
<svg version="1.1" id="f5849dda-9bb4-4585-ace0-f5e054decc7b"
	 xmlns="http://www.w3.org/2000/svg" xmlns:xlink="http://www.w3.org/1999/xlink" x="0px" y="0px" viewBox="0 0 1152 864"
	 style="enable-background:new 0 0 1152 864;" xml:space="preserve">
<path d="M402.3,376.3h2.6l1.2,0.2c1.6,0.3,3.2,0.7,4.8,1.2c2.6,0.6,5.3-0.9,6.1-3.5c0.7-2.6-0.9-5.4-3.5-6.1
	c-12.2-4.1-25.3-1.5-36.4,4.4c-11.1,5.9-20.8,15.6-28.2,26.3c-7.4,10.7-13.7,23.4-20.8,34.9c-1.8,2.8-3.6,5.6-5.6,8.3l-1.5,2.2
	l-0.5,0.6l-0.2,0.2c0,0.1-0.1,0.1-0.1,0.2l-3.3,4c-4.4,5-9.2,9.6-14.3,13.9l-4.2,3.4l-0.7,0.6h-0.2l-0.5,0.4l-2.4,1.8
	c-2.9,2.2-6,4.3-9.1,6.4c-6.1,4.1-12.4,8.1-18.7,12c-3.6,2.2-3,8,1.2,9.1c8.1,2.2,16-0.2,23.1-3.9c3.4-1.7,6.6-3.6,9.8-5.5l5-2.9
	l2.4-1.2l1.2-0.5c-11.7,18.4-18.1,39.7-18.3,61.5c0,7.4,0.7,14.9,2.1,22.2c0.8,4.2,7.2,4.9,9.1,1.2c1.6-3,3.4-5.9,5.5-8.6
	c0-0.1,0.1-0.2,0.2-0.3c0.1-0.1,0.1-0.2,0.2-0.3l0.7-0.9l1.5-1.8l3.7-3.8c1.2-1.2,2.5-2.3,3.9-3.3c0.2-0.2,0.4-0.4,0.7-0.6l0.6-0.5
	l2.1-1.4c2.9-2,5.9-3.7,9-5.1c2.4-1.1,3.2-4.7,1.8-6.8c-1.4-2.4-4.4-3.2-6.8-1.8c-9.4,4.3-17.6,10.7-24.1,18.7
	c-0.1-1.6-0.2-3.2-0.2-4.9s0.1-5.9,0.3-8.8c0.2-2.9,0.2-3,0.4-4.4c0-0.7,0.1-1.5,0.3-2.2c0-0.5,0.1-1.1,0.2-1.6
	c0.9-6,2.3-11.9,4.2-17.6l1.5-4.2l0.9-2.2l0.3-0.8l0.4-0.9c1.2-2.8,2.5-5.5,3.9-8.1c1.5-3,3.2-5.9,5.1-8.7c0.9-1.4,1.9-2.9,3-4.3
	l1.2-1.6c0.2-0.2,0.3-0.4,0.4-0.6l1-1.2c2-1.9,2-5.1,0.1-7.1c-0.9-1-2.3-1.5-3.6-1.5c-5.4-0.1-10.7,1.1-15.6,3.4
	c10.5-8.2,19.8-17.9,27.5-28.9c7.5-10.9,13.3-22.8,20.3-34.1c1.8-2.9,3.6-5.7,5.6-8.4l1.5-2.1l0.5-0.7l0.2-0.2
	c0.1-0.1,0.1-0.1,0.1-0.2l3-3.5c2-2.3,4.1-4.4,6.4-6.4l3.2-2.6l0.4-0.3l0.8-0.6l2.1-1.4c2.7-1.9,5.6-3.5,8.6-4.9l0.9-0.3
	c-1.3,0.4,0.3-0.2,0.5-0.3l2.2-0.7c1.5-0.6,3.1-1,4.7-1.3l2.5-0.5h1.3l0-0.1C399.1,376.3,400.7,376.2,402.3,376.3z M272.9,488
	c0-0.1,0-0.1-0.1-0.1h0.1V488z"/>
<path d="M924.1,433.7c4.5-0.8,9-0.9,13.5-0.1c3.4,0.7,7.6-2.2,6.2-6.1c-6.4-17.9-22.9-28-39.4-35.6c-8.9-4-18-7.6-26.8-11.9
	c-9.4-4.5-18.5-9.5-27.3-15c-26.9-16.7-50.9-37.6-71.3-61.8c-6.5-7.9-12.5-16.2-18.7-24.3s-14.9-18.4-24.7-25.3
	c-7.9-5.5-17.8-8.2-25.7-13.8c1.4-1,2.9-1.7,4.5-2.2c2.7-0.9,4.1-3.8,3.2-6.4c-0.4-1.1-1.1-2-2-2.7c-23.5-14.6-50.9-21.8-78.6-20.5
	c-3.9,0.2-7.8,0.6-11.7,1.1c4.8-6.5,10.6-12.1,17.2-16.6c3.9-2.7,2.6-9.3-2.6-9.3c-24-0.2-47.6,6.6-67.8,19.5c0-0.3,0.1-0.6,0.1-0.9
	c0.5-2.2-0.4-4.4-2.3-5.6c-1.9-1.2-4.4-0.9-6,0.8c-3.8,4.3-7,9.1-9.5,14.3c-2.1-5.3-5.1-10.3-8.9-14.6c-0.3-0.5-0.7-1-1.2-1.4
	c-0.9-0.7-2-1.1-3.2-1.1l-1.3,0.2c-0.5,0.1-1,0.3-1.4,0.6h-0.1c-0.2,0.1-0.4,0.2-0.5,0.4h-0.2l-0.2,0.3h-0.1
	c-0.8,0.9-1.2,2.2-1.1,3.4c0,0.4,0,0.7,0.1,1.1c0.5,2.5,1,4.9,1.4,7.3c0.1,0.2,0.1,0.4,0.1,0.6c-3.5-3-7.3-5.5-10.8-8.4
	c-1.9-2-5.1-2-7.1-0.1c-1.3,1.3-1.8,3.1-1.3,4.9c0.2,0.5,0.4,0.9,0.5,1.4c-22.1-10-46.5-13.4-70.5-9.8c-4.2,0.6-4.8,7.3-1.2,9.1
	c7.4,3.8,14.2,8.8,19.9,14.8c-23.9,0-47.3,6.4-68,18.3c-6.8,4-13.2,8.5-19.2,13.5c-2.8,2.3-1.4,7.8,2.2,8.4c1.8,0.3,3.6,0.9,5.2,1.7
	c-6,5.5-13.6,9.2-20,14.3c-8.3,6.6-14.7,15.1-20.2,24c-5.5,8.9-10.1,18.2-15.4,27.1c-5.3,9.1-11.2,17.9-17.4,26.4
	c-12.4,16.6-26.5,31.9-42,45.6c-15.3,13.5-32,24.8-49.4,35.3c-17.4,10.5-36.9,23.2-41.4,44.5c-0.7,3.5,2.3,7.4,6.2,6.1
	c4.5-1.5,9.3-2.2,14-2c-10.9,19-15.6,40.9-13.6,62.7c0.4,3.7,4,6.2,7.5,4.3l14.1-7.5c10.2,25.6,7.9,54.7,19.3,80
	c3.4,7.4,8.1,14.1,14,19.8c3.4,3.2,10.3,0.1,8.4-4.8c-1.4-3.6-1.6-7.5-0.8-11.2c1.7,14.1,6.4,27.7,13.7,39.9
	c8.7,14.4,23.4,31.1,42.2,27.7c8.7-1.5,17.1-8.1,18.6-17.2c0.3-2.2-0.2-4.5-2.3-5.6c-11.2-6.1-17.1-20.3-13.8-32.3
	c6.7,1.5,13.8,0,20-3.5c8.2-4.7,13.6-12.5,17.2-21c3.6-8.5,5.8-18.5,8.9-27.6c2.7-8.1,6.1-15.9,10.1-23.4
	c16.4-30.7,42-55.6,73.2-71.1c5-2.4,10.3-4.6,15.8-5.3c5.5-0.7,10,0.5,14.8,2.4c9.7,3.8,19.5,8.9,29.8,3.7c2.4-1.2,3.1-4.6,1.8-6.8
	c-1.4-2.4-4.4-3.2-6.8-1.8c-3.3,1.6-6.9,0.9-10.3-0.1c-3.4-1-8.1-3.2-12.2-4.8c-9.8-3.7-19.6-3.4-29.4,0.4
	c-16.6,6.3-31.9,16.7-45.3,28.3c-26.5,22.9-44.9,53.2-54.5,86.7c-2.7,9.4-5.3,19.9-12.3,27.1c-5.2,5.4-13.9,9.8-21.3,6.2
	c-2.2-1.1-5.6-0.8-6.8,1.8c-7.6,16.5-2.2,37.2,12.6,47.5c-1.9,3.6-5.5,5.8-9.8,6.7c-6.1,1.2-12.5-1.8-17.3-5.8
	c-12-9.9-19.9-25.2-24-40c-2.5-8.7-3.5-17.8-3.2-26.9c0.1-3.6-4.4-6.5-7.6-4.3c-5.7,4-9.7,9.8-11.4,16.5c-4.3-7.3-7-15.5-8.9-23.9
	c-3.3-14.1-4.6-28.7-7.8-42.9c-1.7-8.2-4.4-16.3-7.9-23.9c-1.1-2.5-4.6-3-6.8-1.8c-4,2.1-8,4.2-11.9,6.4
	c-0.3-19.9,5.5-39.4,16.6-55.9c1.8-2.7,0-6.7-3-7.4c-5.7-1.3-11.5-1.6-17.3-0.9c6.2-13,19.5-21.5,31.5-28.9
	c8.2-5,16.5-9.9,24.5-15.4c8.7-6,17.1-12.4,25.1-19.3c15.8-13.4,30.2-28.4,42.9-44.8c6.4-8.3,12.4-16.8,18-25.6
	c5.6-8.8,10.3-18.1,15.5-27.1s11.5-19.2,19.8-26.7s19.8-11.9,27-21c1.7-2.2,2.1-5,0-7.1c-1.4-1.5-3-2.8-4.8-3.9
	c24.5-17.6,54.5-25.9,84.6-23.4c3.7,0.3,6.5-4.5,4.4-7.5c-4.9-6.8-10.7-12.9-17.4-18c21.1-0.3,41.8,5.1,60,15.7
	c2.9,1.8,6.8-0.2,7.5-3.3c2.4,2.3,4.2,5.2,5.2,8.4c1.6,5.4,8.8,4.4,9.7-0.6c0.5,2.2,0.9,4.4,1.3,6.5c1,4.6,9,5,9.7,0
	c0.6-4.7,1.9-9.3,3.7-13.6c2,1,4.3,0.7,6-0.7c16.5-12.8,36.1-20.8,56.8-23.3c-5.8,5.7-10.6,12.3-14.4,19.5c-1.4,2.4-0.5,5.5,1.9,6.8
	c1.1,0.6,2.5,0.8,3.7,0.5c29.3-6.4,60-2.1,86.5,11.9c-1.7,1.5-3.3,3.1-4.7,4.9c-1.3,1.7-0.7,4.7,0.8,6.1
	c7.7,7.4,17.9,10.4,26.9,15.6s15.6,12.2,21.9,19.8s12.5,16.5,18.9,24.7c6.5,8.1,13.3,16,20.6,23.4c14.7,15,30.9,28.5,48.3,40.2
	c17.1,11.3,35.2,21,54.1,28.9c14.4,6.2,32.1,13.2,40.9,26.8c-5.7,0-11.3,1-16.6,3.1c-3.5,1.3-4.9,5.4-2.2,8.3
	c13.2,14.7,21.5,33.1,23.8,52.7l-13.3-4.9c-2.6-0.9-5.4,1.1-6.2,3.5c-4.3,14-4.8,28.9-5.1,43.5s-0.2,28.1-3.9,41.7
	c-0.7,2.6-1.6,5.1-2.6,7.6c-2.5-6.3-7.1-11.5-13.1-14.7c-4.1-2.1-8,1.4-7.3,5.7c2.6,16.1,0.8,32.6-5.2,47.7
	c-2.6,7.1-6.3,13.8-11.1,19.7c-4,4.8-9.9,9.6-16,9.9s-10.1-1.4-12.8-5.2c12.8-12.2,16.3-32.9,6.6-48.2c-1.4-2.1-4.6-3.3-6.9-1.8
	c-6.2,4.2-13.7,2.8-20-1s-11.9-12.8-15.5-20.5s-7.3-16.6-11.8-24.6c-4.3-7.6-9.2-14.8-14.6-21.6c-21.5-27.5-51.7-48.8-85.1-59.1
	c-5.6-1.8-11.4-2.8-17.3-2.9c-5.6,0.2-11.1,1.6-16.1,4.1c-4.4,2.2-8.5,5-12.9,7.2s-7.2,2.7-11,1.4c-2.6-0.7-5.3,0.8-6.1,3.4v0.1
	c-0.7,2.6,0.8,5.4,3.4,6.2c9.2,3.1,17.8-1.7,25.4-6.2c3.6-2.1,7.3-4.3,11.3-5.4c4-1.1,9.5-0.9,14.2,0.1c17.2,3.6,33.9,12.2,48.5,22
	c14.4,9.8,27.2,21.7,38,35.3c5.2,6.6,9.9,13.7,14,21.1c4.6,8.2,8.1,16.9,12.1,25.3s10.6,18.5,20,23.5c7.2,4,16.1,5.5,23.9,2.7
	c4.6,11.3,1.4,25.9-8.7,33.3c-1.9,1.2-2.9,3.5-2.3,5.7c2.4,7.8,9.4,13.2,17.3,14.7s17.1-1.4,24-7s12-13.8,15.9-21.9
	c4.2-8.7,7.1-17.9,8.6-27.4c1-6,1.4-12,1.2-18.1c1.5,3.4,1.8,7.1,1,10.7c-1,4.5,5,9,8.4,4.9c19.5-24.1,15.1-56.3,17.1-85.1
	c0.4-6.4,1.4-12.7,2.8-18.9l15.5,5.7c3,1.1,6.4-1.8,6.3-4.8C945.3,472.5,937.6,451.2,924.1,433.7z"/>
<path d="M786.1,394l-3.2-4.1c-4.3-5.6-8.5-11.2-13.1-16.5c-8.4-9.7-18.1-18.2-29.8-23.4c-6.5-3.1-13.6-4.9-20.8-5.3
	c-7.2-0.4-14.4,1.1-20.8,4.3c-2.4,1.1-3.2,4.7-1.8,6.8c1.4,2.3,4.4,3.1,6.8,1.8l1-0.5l0.4-0.2h-0.2c0.6-0.3,1.2-0.5,1.8-0.6l4.2-1.2
	c0.7-0.2,1.4-0.3,2.1-0.4h5.3l4,0.3h0.2l1.1,0.2l2.2,0.5c2.9,0.6,5.7,1.5,8.4,2.6h0.3l1,0.5l1.7,0.8l4.2,2.2
	c2.6,1.5,5.1,3.1,7.5,4.9l0.6,0.5l0.5,0.4l1.5,1.3l3.4,3.1c2.4,2.3,4.7,4.7,6.9,7.1c2.2,2.4,4.3,5.1,6.3,7.6s2,2.5,2.9,3.8h0.2
	c0,0.1,0.1,0.1,0.1,0.2l0.7,0.9l1.7,2.2c4.2,5.5,8.3,11,12.8,16.3c8.7,10.2,18.9,19,30.3,26.1l4.1,2.4l-2.8-0.7
	c-4.5-1-9.2-1.2-13.8-0.3c-3.7,0.7-4.9,5.9-2.2,8.4c2.3,2.1,4.5,4.3,6.5,6.6c1.1,1.2,2.1,2.3,3,3.5l1.3,1.5l0.4,0.6l0.6,0.8
	c3.7,4.9,7,10.1,9.8,15.6c0.7,1.3,1.4,2.6,2,4c0.2,0.6,0.5,1.2,0.8,1.8c0.2,0.4,0.4,0.7,0.5,1.1c0,0.1,0.1,0.3,0.2,0.4v0.2
	c1.2,2.8,2.3,5.7,3.2,8.6c1.9,5.8,3.2,11.8,4.1,17.8c0,0.1,0.1,0.2,0.1,0.4c0,0.3,0.1,0.7,0.1,1l0.3,2.8c0.1,0.7,0.1,1.5,0.2,2.2
	c-7.7-7.2-16.9-12.5-27-15.5c-2.6-0.9-5.5,0.4-6.4,3c-0.9,2.6,0.4,5.5,3,6.4c0.2,0.1,0.5,0.2,0.7,0.2l4.9,1.7l1.1,0.4l0.4,0.2
	l2.4,1.1c3,1.5,5.9,3.2,8.6,5.2l1,0.7l0.7,0.5l1.5,1.3l3.8,3.5c1.2,1.2,2.4,2.5,3.5,3.8l1.3,1.5l0.4,0.5l0.9,1.3
	c1.4,2.4,4.5,3.2,6.9,1.7c1.5-0.9,2.4-2.5,2.4-4.2c1.2-26-6.4-51.7-21.7-72.8c-1.8-2.5-3.7-4.9-5.6-7.2c2.8,0.9,5.6,1.9,8.3,3
	c7.1,3,14,6.3,21.8,7.2c4.5,0.4,9.1-0.3,13.3-2.2c3.3-1.4,3.2-7.2,0-8.6c-12.3-5.5-24.6-11.1-36.2-17.9l-8.3-5.3l-3.8-2.7l-1.8-1.4
	l-0.6-0.4l-1.2-1c-5.2-4.2-10-8.8-14.3-13.9c-2.2-2.5-4.3-5.1-6.4-7.8l-1.5-1.8c-0.2-0.4-0.5-0.7-0.8-1v-0.2
	C786.2,394.1,786.1,394.1,786.1,394z M834.4,509.2C834.4,509.3,834.4,509.3,834.4,509.2L834.4,509.2z"/>
<path d="M528,409.1c-5.2-6.8-11.2-13-17.8-18.5l-5.8-4.4l-0.7-0.5l-1.1-1c-0.9-0.8-1.8-1.6-2.6-2.5l-0.5-0.6l-0.8-1.2l-0.6-1.2
	c-0.1-0.1-0.1-0.1-0.1-0.2c0-0.1-0.1-0.4-0.2-0.6l-0.3-1.3v-1.5c0-0.3,0.1-0.5,0.2-0.8c0.1-0.3,0.3-0.5,0.5-0.8l0.2-0.3l0.3-0.2
	l0.5-0.5h0.1l1.3-0.9l0.9-0.5h0.2l0.9-0.3l1.8-0.5l0.8-0.2h5.4l1,0.2l3.6,1l0.7,0.3l1.8,0.9c2.1,1.2,4.9,0.7,6.4-1.2
	c1.7-2.2,1.2-4.6-0.3-6.6c-19.6-24.1-48.8-38.4-79.9-39.2c-2.7,0.1-4.9,2.3-5,5c0.1,2.7,2.3,4.9,5,5c2.9,0.1,5.8,0.3,8.6,0.6l2,0.2
	l1,0.2l4.2,0.7c5.5,1.1,10.9,2.7,16.2,4.7l2,0.8l0.9,0.4c-1.1-0.6,0.1,0,0.3,0.1l3.9,1.8c2.4,1.2,4.9,2.5,7.2,3.9
	c2.3,1.4,4.9,3,7.3,4.6l2.9,2.2l1.1,0.8l1.8,1.5l2.3,2c-4.2,0.3-8.3,1.7-11.8,4.1c-2.1,1.5-3.8,3.5-5,5.9c-1.2,2.8-1.6,5.9-1,8.9
	c0.7,5.1,4,9.4,7.9,12.7c1.9,1.7,4,3.2,6,4.7l0.4,0.3l0.2,0.2l1.2,1l2.8,2.2c3.2,2.9,6.3,6,9.2,9.2l2,2.4l1,1.2l0.5,0.6l0.4,0.5
	c0,0.1,0.1,0.2,0.2,0.2c0.1,0.2,0.2,0.5,0.4,0.7l1,1.2c0.6,1,1.3,1.9,1.9,2.8c2.4,3.6,4.6,7.3,6.6,11.2l1.6,3.4l0.7,1.6l0.3,0.7h0.1
	v0.2c0.9,2.2,1.8,4.5,2.6,6.8c1.5,4.7,2.7,9.5,3.5,14.4c0.5,2.6,3.8,4.2,6.2,3.5s3.9-3.4,3.5-6.2C545,438.3,538.2,422.6,528,409.1z"
	/>
<path d="M637.7,445c0.1,0,0.1,0,0.1-0.1l0.6-0.2l1.8-0.7l3.6-1.2c2.6-0.9,5.3-1.6,8-2.2l3.9-0.7l0.9-0.2h0.2c0.7,0,1.5-0.1,2.2-0.3
	c2.6-0.2,5.2-2.1,5-5c-0.2-2.9-2.2-5.3-5-5c-19.8,2.1-38.4,10.8-52.6,24.8l0.2-0.3c0.2-0.7,0.5-1.3,0.7-2l0.3-0.8
	c0.1-0.1,0.2-0.3,0.2-0.5c0.1-0.1,0.1-0.1,0.1-0.2c1.2-2.7,2.5-5.4,3.8-8c5.7-10.9,12.8-21,19.9-30.9c4.3-6,10-13.2,7.2-21.1
	c-1-2.7-3.3-3.9-6.2-3.5c-4,0.7-7.9,1.9-11.6,3.5c0.3-0.5,0.5-1,0.7-1.5c2.7-5.4,5.8-10.7,9.2-15.7l2.4-3.5l1.4-1.8l0.5-0.6l0.4-0.6
	c1.9-2.3,3.8-4.6,5.9-6.9c4-4.4,8.4-8.5,13-12.3l2.1-1.7c0.2-0.1,0.9-0.7,0.5-0.5l0.6-0.4l4.1-2.9c2.9-2,5.8-3.8,8.9-5.6
	c2.4-1.4,3.2-4.4,1.9-6.8c-1.4-2.4-4.4-3.2-6.8-1.9c-0.1,0-0.1,0.1-0.1,0.1c-28.6,16.5-49.9,43.1-59.9,74.5
	c-1.5,4.8,4.9,8.3,8.4,4.8l2.4-2.2l1-0.8l0.9-0.7c1.7-1.2,3.5-2.3,5.4-3.3l1.3-0.6c0.2-0.1,1.1-0.4,1.1-0.5l2.2-0.8
	c-0.1,0.3-0.2,0.6-0.4,0.8c-1.5,2.6-3.3,5-5,7.4c-3.6,5-7.1,9.9-10.4,15c-6.8,10.3-12.9,21.2-16.8,33c-2.2,6.6-3.6,13.5-4.1,20.5
	c0,2.2,1.5,4.2,3.7,4.8s4.5-0.4,5.6-2.3c1.3-2.2,2.6-4.3,4.1-6.4l1-1.3l0.5-0.7c0.7-1,1.5-2,2.4-2.9c3.2-3.7,6.7-7.1,10.5-10.2
	l0.8-0.7l1.4-1l3.1-2.1c2-1.4,4.1-2.7,6.3-3.9L637.7,445z"/>
</svg>
