<?xml version="1.0" encoding="utf-8"?>
<!-- Generator: Adobe Illustrator 24.2.3, SVG Export Plug-In . SVG Version: 6.00 Build 0)  -->
<svg version="1.1" id="fbea62af-f1f2-4211-a0ce-e7bfcbe732c4"
	 xmlns="http://www.w3.org/2000/svg" xmlns:xlink="http://www.w3.org/1999/xlink" x="0px" y="0px" viewBox="0 0 1152 864"
	 style="enable-background:new 0 0 1152 864;" xml:space="preserve">
<path d="M990.4,243.9c-1.1-17.4-2.2-36.2-11.5-51.5c-7.5-12.5-21-22.5-36.1-22c-17.1,0.7-31.8,12.9-45.2,22.3
	c-57.9,40-113.8,84.9-154.7,142.8c-19.4,27.4-35.2,57.7-45.1,89.8c-5.4,17.7-8.9,35.8-11.9,54c-1.6,9.5-3.1,19-4.8,28.5
	c-0.6,4-1,8.4-2.4,12.1s-6.4,4.3-10.5,4.8c-38.7,5.1-77.8,7.3-116.8,6.4c-19.6-0.3-39.1-1.7-58.6-4c-7.3-1-15.3-2.6-20.4-8.3
	c-5.1-5.7-6.6-13.4-8.4-20.3c-18-69-48.3-134.5-87.1-194.1c-33.4-51.5-75.6-102.4-134.1-125.6c-14.3-5.7-31.1-11.3-46.7-9.1
	c-15.6,2.2-24.9,13.7-29.1,27.9c-4.8,16.5-3.9,34.9-2.7,51.9c1.3,19.1,4.3,38,6.2,57.1c1.9,19.1,1.9,38.3,1.4,57.5s-1.1,39,1.2,58.3
	c2.1,18,6.8,35.6,13.8,52.3c1.7,4,3.5,8.1,5.3,12.1s4.7,8.3,5.2,12.8s-1.1,8.3-2,12.2c-0.9,3.9-1.8,8.5-2.6,12.9
	c-2.7,16.4-3.6,33.4,0.6,49.6s12.8,28.6,24.6,39.1c11.8,10.5,25.3,18.3,38.7,26.5c7.7,4.7,15.2,9.6,22.6,14.7
	c7.4,5.1,15.6,10.1,21.9,16.4s3.4,12.5,3.1,19.1s0.5,13,5.4,17.7c4.9,4.7,11.7-2.6,7.1-7.1c-4.6-4.5-2.3-12-2.1-17.4
	c0.3-7.3-1.1-14-6.5-19.3c-5.4-5.3-14.1-11.2-21.3-16.3c-7.2-5.1-15.2-10.3-23-15.1c-25.6-15.8-54-31.2-61.3-62.9
	c-3.7-16.1-2.1-33.2,1.1-49.2c1.7-8.1,5.1-16.6,3.1-24.9s-7-15.8-10.3-23.6c-7-16.6-11.7-34-13.7-51.9c-1.9-18.9-1.3-37.9-0.9-56.8
	c0.4-18.9,0.5-37.3-1.4-56c-1.9-18.7-4.7-37.4-6.1-56.2c-1.3-16.6-2.4-34.7,2.3-50.8c1.8-6.1,4.7-12.2,9.9-16.3
	c5.2-4.1,14.6-5.3,22.2-4.4c14.7,1.8,29.5,7.4,42.7,13.9c13.5,6.6,26.2,14.8,37.9,24.2c23.9,19.1,44.2,42.4,62,67.1
	c40.1,55.4,72.2,117.7,93.2,182.8c2.6,8.1,5,16.2,7.3,24.4c2.3,8.2,3.7,15.5,6.7,22.9c3,7.4,7.1,12.7,13.5,16.4
	c6.4,3.7,14.4,5,21.9,5.9c38.1,4.5,76.7,5.1,114.9,3c19.1-1.1,38-2.8,56.9-5.2c7.9-0.9,16.9-1.2,21.1-9.1c4.2-7.9,4-16.2,5.3-23.9
	c5.9-35.4,11.7-70.5,26.3-103.6c27.4-62.2,74.7-112.6,127-154.8c13.9-11.2,28.1-21.8,42.6-32.1c7-5,14.1-9.9,21.2-14.8
	c7.1-4.9,13.9-9.9,21.7-13.3c7.8-3.4,14.9-4.1,22.3-1.1s11.8,7.5,15.7,13.1c9.8,14.5,10.4,33.2,11.5,50.1
	c2.2,37.5,1.4,75.1-2.5,112.5c-2,18.9-4.8,37.7-8.3,56.4c-1.7,8.9-3.5,17.8-5.7,26.6c-2.2,8.8-4.5,14.9-10.7,20.3
	c-10,8.8-23,12.9-31.2,24c-2.8,3.9,1.9,8.1,5.7,7.4c8.4-1.6,14.1,7.2,16,14.1c1.9,6.9,2.6,16.6,3,24.7c0.4,8.1,0.4,17.8-2.5,26.3
	s-8.4,14.4-14.6,20.1c-26.2,23.9-58,41.2-80.4,69.1c-11.6,14.3-20.6,30.9-23.7,49.2c-1,6.3,8.6,9,9.7,2.7
	c6.2-37.6,36.7-63.5,65.5-85.4c7.7-5.9,15.6-11.7,23.2-17.8s15-11.9,20.9-19.2c12.6-15.5,13-34.4,11.3-53.4
	c-0.8-9.7-1.5-20.3-6.9-28.8c-3-4.6-7.3-8.2-12.4-10.2c8.4-6.8,19.4-10.7,26.7-18.9c5.4-6.1,8.2-13.7,10.1-21.6
	c1.9-7.9,4.1-18.7,5.9-28.1c7.2-37.9,11.2-76.3,12-114.9C991.9,281.7,991.5,262.8,990.4,243.9z"/>
<path d="M396.9,385.4c-6.2-15.4-13.2-30.4-20.6-45.3c-0.8-1.8-1.7-3.6-2.6-5.3c-1.4-2.4-4.5-3.2-6.9-1.8c-2.3,1.4-3.1,4.4-1.7,6.8
	c3.5,7.2,7.1,14.4,10.5,21.7c1.7,3.6,3.4,7.3,5,10.9l2.4,5.5l1.2,2.8l0.6,1.3l0.3,0.6v0.2h0.1c6.3,14.7,11.6,29.9,15.8,45.4
	c2,7.6,3.7,15.4,5,23.2c0.1,1,0.3,2,0.4,2.9c0.1,0.5,0.2,0.9,0.2,1.4c0.1,0.2,0.1,0.4,0.1,0.6c0.3,1.9,0.5,3.8,0.7,5.8
	c0.4,4,0.7,7.9,0.8,11.9c0.3,8.1,0.1,16.2-0.8,24.2l-0.3,2.9c0,0.5-0.1,1-0.2,1.5c0,0.3,0,0.6-0.1,0.9v0.2c-0.3,2.1-0.6,4.2-1,6.3
	c-0.7,4.2-1.5,8.4-2.3,12.5c-3.2,15.8-6.6,31.6-10,47.3c-11.7-13.7-25.1-26.7-43.4-30.3c-6.1-1.3-12.5-1.2-18.6,0.1
	c-2.7,0.8-4.2,3.5-3.4,6.2c0.8,2.6,3.5,4.1,6.1,3.5l1.6-0.4h1l3.5-0.2c1.2-0.1,2.3,0,3.5,0.1h1.8l1,0.2c2.4,0.4,4.7,1,6.9,1.8
	l3.1,1.1l1,0.5l2,0.9c2.1,1.1,4.2,2.3,6.1,3.7l2.9,2l0.4,0.3l0.3,0.2l1.7,1.5c3.8,3.2,7.3,6.7,10.6,10.4c3.9,4.3,7.5,8.7,11.1,13.2
	c2.3,2.8,7.6,1.2,8.3-2.2c3.7-17.1,7.3-34.2,11-51.3c3.5-16.9,6.4-34,6.3-51.3c-0.2-16.3-2.2-32.6-6.2-48.4
	C408.2,415.7,403.1,400.3,396.9,385.4z"/>
<path d="M363.2,577.7c-5.6,0.4-11.1,1.2-16.6,2.2l-3.2,0.6h-3.5l-1.4-0.3l-0.6-0.4h-0.2l-0.6-0.5c-0.7-0.7-1.3-1.4-1.9-2.1l-0.7-0.9
	l-1.3-1.7l-4.7-6.2l-9.1-12.2c-6-8.2-12-16.5-17.6-25c-5.6-8.5-12.5-19.4-18.1-29.5c-1.4-2.4-4.4-3.2-6.8-1.8
	c-2.4,1.4-3.2,4.5-1.8,6.9c9.8,17.8,21.2,34.6,33.2,51.1c6,8.1,12,16.2,18.2,24.3c1.6,2.3,3.5,4.4,5.8,6c2.3,1.5,5.1,2.4,7.9,2.4
	c5,0.3,10.2-1.3,15.2-2.1h1.3l2.4-0.3l4.4-0.4h5.5c-0.3,0-0.5-0.1,0-0.1h0.8l1.4,0.3c0.4,0.2,0.9,0.4,1.4,0.5h0.3l1,0.8l0.4,0.3h0.2
	l0.2,0.5c0.8,2.6,3.5,4.2,6.2,3.5c2.4-0.8,4.4-3.5,3.5-6.2C381.3,579.1,371.5,577.1,363.2,577.7z"/>
<path d="M361.5,596.1c-11.4,4.6-23.1,8.3-35.1,10.8l-2.3,0.5h-0.6c0,0.1-0.5,0.1-0.6,0.1H318l-0.8-0.2l-0.9-0.3
	c-0.6-0.2-1.1-0.5-1.6-0.8c-0.6-0.4-1.2-0.8-1.8-1.2l-0.6-0.4c-0.1,0-0.1,0-0.1-0.1H312l-1.2-1l-3.1-2.8c-2.2-2-4.5-3.9-6.9-5.7
	c-5.3-3.9-11.2-7-17.5-9.2c-2.7-0.7-5.5,0.8-6.2,3.5s0.8,5.5,3.5,6.2l2,0.7l1,0.4l0.5,0.2l3.6,1.7c2.6,1.4,5,2.9,7.4,4.6l0.7,0.5
	h0.2c0,0.1,0.1,0.1,0.2,0.2l1.5,1.2l3.1,2.8c2.2,2,4.4,3.9,6.8,5.7c2.3,1.7,4.8,2.9,7.5,3.6c3.5,0.8,7.2,0.8,10.7,0.2
	c6.2-1.1,12.3-2.6,18.3-4.4c6.8-2,13.5-4.4,20.1-7c2.4-1,4.4-3.4,3.5-6.2C366.8,596.9,364.1,595.1,361.5,596.1z"/>
<path d="M809.6,590.9l-0.5-0.3l-0.6-0.4l-1.2-1l-2.4-2.1c-1.9-1.7-4.2-3-6.6-3.8c-2.1-0.6-4.4-1-6.6-0.9c-2.3,0.1-4.7,0.3-7,0.7
	l-2.8,0.4h-0.8c0,0,0,0,0,0c-0.2,0-0.5,0.1-0.6,0.1h-0.8c-2.1,0.2-4,0.1-6,0.1h-0.5l-1.3-0.3l-0.6-0.2l-1.4-0.8
	c-0.2-0.1-0.4-0.2-0.5-0.4h-0.1c-0.4-0.3-0.8-0.7-1.1-1.1l-0.8-0.9c-0.1-0.1-0.2-0.2-0.2-0.3l-0.6-0.8c-1.2-2-2.3-4-3.2-6.1
	c-2.1-4.3-4-8.6-6.1-12.9c-4.1-8.6-9.1-17.2-16.3-23.5l-3.2-2.5l-0.6-0.5l-1.5-1.2l-0.9-0.8c0-0.1,0-0.2-0.1-0.3
	c-0.2-0.2-0.3-0.4-0.4-0.7l-0.3-0.9v-0.4c0-0.3-0.1-0.7-0.1-0.8c0-2.6,0.2-5.3,0.3-7.9c0.1-2.6,0.3-5.3,0.4-7.9
	c0.5-10.9,1.1-21.7,1.9-32.6c0.8-10.9,1.7-21.5,3-32.3c0.3-2.7,0.6-5.4,1-8.1c0-0.3,0.1-0.6,0.1-0.9v-0.2l0.3-1.8l0.6-4
	c0.7-5.4,1.6-10.7,2.6-16c3.8-21.1,9.7-41.7,17.8-61.5l0.3-0.7c0-0.1,0.1-0.3,0.1-0.4c0.3-0.6,0.6-1.2,0.8-1.8
	c0.6-1.3,1.1-2.5,1.7-3.7s0.8-5.5-1.8-6.9c-2.6-1.4-5.7-0.7-6.8,1.8c-9.2,20.5-16,41.9-20.4,63.9c-4.5,22-7.1,44.4-8.8,66.7
	c-0.9,11.2-1.6,22.4-2.1,33.5c-0.3,5.6-0.6,11.2-0.8,16.7c-0.4,2.9-0.2,5.8,0.4,8.6c1,2.9,2.7,5.4,5.1,7.3l2,1.5l0.7,0.6l0.2,0.2
	l0.5,0.3l0.6,0.5l1.4,1.3c1.9,1.6,3.5,3.4,4.9,5.4c-0.6-0.9,0.2,0.2,0.4,0.5l1,1.4l2,3.1c1.3,2.1,2.5,4.2,3.6,6.3
	c2.2,4.4,4.2,8.8,6.2,13.2s4.2,9.2,7.5,13c3.5,3.9,8.5,6.3,13.8,6.5c2.1,0,4.2-0.1,6.3-0.3l4.1-0.6l1.5-0.2h0.7
	c2-0.3,4.1-0.4,6.2-0.3h1.6l1.4,0.5l0.5,0.3l0.7,0.4l0.3,0.2l0.7,0.6l2.4,2.1c2,1.7,4.2,3.5,6.8,4.1c2.9,0.8,6.1,0,8.2-2.3
	c2-1.9,2-5.1,0-7.1C814.1,589.8,811.5,589.6,809.6,590.9z M734.3,530.5C733.9,529.9,734.2,530.3,734.3,530.5L734.3,530.5z
	 M734.5,531.1c0-0.1,0.2,0.2,0.3,0.4L734.5,531.1z"/>
</svg>
