<?xml version="1.0" encoding="utf-8"?>
<!-- Generator: Adobe Illustrator 24.2.3, SVG Export Plug-In . SVG Version: 6.00 Build 0)  -->
<svg version="1.1" id="a5abe578-bffb-4007-8ab0-5e0b1b7e2a89"
	 xmlns="http://www.w3.org/2000/svg" xmlns:xlink="http://www.w3.org/1999/xlink" x="0px" y="0px" viewBox="0 0 1152 864"
	 style="enable-background:new 0 0 1152 864;" xml:space="preserve">
<style type="text/css">
	.st0{fill:none;}
</style>
<g>
	<path class="st0" d="M514.2,400.3C514.1,400.5,514.1,400.7,514.2,400.3L514.2,400.3z"/>
	<path class="st0" d="M824.4,664.1C824.3,664.2,824.4,664.2,824.4,664.1L824.4,664.1z"/>
	<path d="M1049.6,499.3c-2.6-9.3-5.8-18.4-9.4-27.3c-1.9-4.8-4-9.4-5.9-14.1c-1.9-4.7-3.5-8.8-6-12.6c-2.5-3.9-5.1-7.5-7.3-11.6
		c-2.2-4.1-4.4-8.2-6.7-12.3c-4.5-8.1-9.3-15.9-14.2-23.8c-4.9-7.8-10.1-15.3-15.5-23c-5.3-7.6-11-15.8-17.3-23.2
		c-11.5-13.4-24.8-24.9-38.8-35.6c-6.8-5.3-13.9-10.3-21-15.5c-7.2-5.1-14.6-9.8-20.9-15.7c-12.3-11.1-21-25.2-29.9-39.1
		c-8.9-13.9-18.2-29.4-32.6-39.1c-14.4-9.7-31.9-12.3-47.7-5.5c-7.6,3.4-14.6,8.2-22.4,11.1c-7.8,3-17.8,3.1-26.8,2.5l-7.3-0.6
		l-2.6-0.2v-0.2c0.8-1.4,1.7-2.5,2.8-3.5c3.5-3.4,0.9-9.8-4-9.8c-31.1,0.5-61.7,8.1-89.5,22.3h-1.9c5.2-10.3,12.1-19.8,20.2-28
		c1.8-1.8,2.2-4.5,0.9-6.8c-1.1-2-4.1-3.6-6.4-2.6c-12.1,5-23.6,11.3-34.4,18.5c-5.5,3.6-10.8,7.5-15.8,11.6l-7.3,6.3l-3.4,3.1h-0.1
		l-0.8-1.7c-1-2.4-1.9-4.8-2.7-7.3c-1.7-4.5-3.1-9.1-4.2-13.8c-2.3-9.5-3.6-19.2-3.9-29c-0.2-4.7-6.3-7.7-9.8-4
		c-13.9,15-18.3,35.6-16.4,55.5c-17.4-12.6-36.6-22.8-58.4-24.2c-4-0.3-7.5,5.1-4.9,8.5c2.6,3.4,6.3,7.6,9.3,11.5
		c-23.3-12.6-49.3-19.4-75.8-20c-5.1,0-7.3,6.3-4,9.8c1,1,1.8,2.3,2.4,3.5l-6,0.6c-4.8,0.5-9.7,0.6-14.4,0.2
		c-4.2-0.2-8.4-1.3-12.4-2.8c-3.9-1.9-7.6-4.1-11.1-6.5c-7.8-5-16-8.8-25.5-8.1c-7.6,0.7-14.9,3.1-21.4,7
		c-23.1,13.8-32.3,41-45.6,62.9c-8.5,13.9-20.5,24.3-33.3,34.1c-14.7,11.3-28.6,22.8-40.8,36.9c-24.8,28.4-43.1,61.7-59.7,95.3
		c-16.6,33.5-30.7,69.9-30,107.9c0.1,4.8,0.5,9.5,1,14.2c0.2,2.3,1.1,4.3,3.4,5.2c2.2,0.9,4.7,0.3,6.3-1.3c2.7-2.7,5.5-5.6,8.1-8.4
		c0.3,24.7,8,48.5,22.1,68.8c1.6,2.7,5.1,3.5,7.8,1.9c1.3-0.8,2.2-1.9,2.5-3.3l8.5-27.6c10.1,26.9,26.6,51,44.9,73.2
		c0.3,0.5,0.9,0.9,1.5,1.1c0.8,0.5,1.7,0.6,2.6,0.5c1.9-0.1,3.8-1.1,4.8-2.7c1.5-2.2,2.4-4.5,3-7c3.2-11.4-0.6-23.8-5.7-34.3
		c-1.1-2.5-2.5-5.1-4-7.7c14.2,20.5,29.4,40.2,45.7,59.2c2.6,3.1,8.8,1.6,9.4-2.5c1.4-8.1,2.3-16.1,2.8-24.2
		c1.9,3.1,4.4,5.9,7.2,8.3c8.9,8,22.6,11.1,33.5,5.6c12.6-6.4,14.7-23.6,14-36.3c-0.5-6.8-1.1-13.8-1.7-20.6
		c-0.7-7.4-1.8-14.7-3.4-21.8c-6.3-28.6-17.5-56.2-15.3-85.9c1.8-25.5,11.9-50.1,25.2-71.7c5.5-8.8,11.4-17.2,17.7-25.2
		c-4.3,10.3-7.8,20.9-10.6,31.7c-0.8,3.4,2,7.3,5.3,7.4c-3,5.7-5.6,11.5-8.1,17.4c-6.6,16-11.5,33-13,50.2
		c-0.9,8.5-0.5,17.1,1.4,25.5c1.3,5.7,9.4,5.1,11,0c0.9-3,1.8-5.9,3-8.9s1.7-4.7,2.6-6.9c-0.2,2.5-0.6,5.1-0.8,7.6
		c-1.1,11.5-1.7,23.1-1.6,34.7c0,2.5,1.7,4.8,4.1,5.5c2.3,0.7,5.5-0.2,6.5-2.5c10.7-25.4,21.3-50.8,33.3-75.6
		c8.9-18.4,20.2-39.4,39.1-49.2c11.1-5.7,25.2-6.1,35.9,1c2.5,1.7,6.3,0.5,7.7-2c1.6-2.6,0.7-6-1.9-7.6l-0.1-0.1
		c-11.5-7.7-26.4-8.6-39.4-4.4c-11.1,3.8-20.6,11.3-28.2,20.1c-16.6,19.2-26.6,43.7-36.7,66.6c-2.6,5.8-5.1,11.6-7.6,17.5l0.3-3.1
		c0.8-11,2.4-21.9,4.8-32.7c0.9-4.1-2.7-8.5-6.9-7c-7.2,2.4-11.4,10.2-14.4,17.1c0.7-5.2,1.7-10.3,3-15.5c4-15.7,9.9-30.8,17.7-44.9
		c3.8-6.9,8-13.6,12.8-19.9c1.8-2.2,2.4-5.1,0.5-7.5c-1.9-2.4-5-3.2-7.3-1.5l-7,5.5c7.2-21.4,17.8-41.4,31.5-59.2
		c1.7-2.3,0.6-5.9-1.5-7.4c-2.3-1.7-5.3-1.6-7.4,0.5c-34.2,34.9-67.5,73.8-78.9,122.5c-3.3,13.8-4.4,27.9-3.2,41.9
		c1.3,14.8,5,29.2,8.9,43.4c3.9,14.2,7.5,26.4,9.2,40c0.8,6.6,1.1,13.3,1.7,20c0.6,6.7,1.1,12.2,0,18.1c-1.1,5.9-3.4,12.3-9.2,14.1
		c-4.9,1.4-10.1,0.8-14.7-1.5c-10.5-5.5-14.6-19.1-18.4-29.4c-2-5.8-11.3-5.2-11.1,1.5c0.2,11.5-0.3,22.8-1.6,34.2
		c-19.9-24.2-38.2-49.6-54.9-76.1c-2.4-3.8-9.5-3.8-10.5,1.4c-2.5,15.1,4.3,28.1,11.1,41.2c4,7.5,8.5,17.1,8,26
		c-18.2-23.2-33.8-49-41.3-77.8c-1.5-5.6-9.4-5.2-11,0c-3.3,11-6.7,21.9-10.1,33c-10.9-20-16.1-43-13.1-65.7
		c0.3-2.6-0.2-5.1-2.6-6.5c-2.3-1.3-5.1-0.9-6.9,0.9l-9.8,10.3c-0.8-34.1,11-67.1,25.7-97.7c16.5-34.4,35-69.1,60.3-98.1
		c6.1-7.2,12.7-13.9,19.7-20.1c7-6.3,14.4-11.8,21.8-17.5c7.5-5.5,14.6-11.6,21-18.2c5.3-5.7,10-11.9,14-18.5
		c7-11.5,12.6-23.9,19.8-35.4c7.2-11.5,14.8-20.5,26.6-25.5c3.1-1.4,6.3-2.3,9.5-2.7c4.1-0.5,8.3,0,12.2,1.6
		c4.1,1.7,7.7,4.3,11.4,6.7c3.9,2.4,7.8,4.4,12.1,6.1c9.5,3.5,20.2,3.4,30.2,2.5l6.7-0.7l3.5-0.5h0.6l1.4-0.2
		c4.9-1.5,5.1-7.5,4.1-11.6c28.6,2.5,56,13,79.2,30.1c4.5,3.3,11-3.3,7.8-7.8l-0.3-0.5c-0.1-0.5-0.3-0.9-0.5-1.4
		c-0.5-1.4-0.9-2.7-1.6-4c-1.3-2.6-3.3-5.1-4.8-7.6c-1.5-2.5-3.2-4.9-4.9-7.2c18.1,4.9,34.4,16.3,48.8,28.1c4.2,3.4,11,0.3,9.5-5.6
		c-4-15.1-4.1-32.4,2.5-46.8c1.9,14.7,6.1,28.9,12.4,42.2c2.3,4.9,7.8,7.8,13,4.8c1.9-1.3,3.6-2.8,5.1-4.5c1.8-1.6,3.5-3.3,5.5-4.8
		c6.9-6.1,14.3-11.6,22.2-16.5l5.6-3.4c-5.7,8.9-10.2,18.5-13.4,28.6c-0.7,2.5,0.3,5.2,2.6,6.5c2.3,1.4,4.8,0.7,6.8-0.9
		s4.2-3.2,6.4-4.5c0.9-0.1,1.8-0.3,2.6-0.8c24.6-13.9,52-22.2,80.1-24.1l-0.2,0.6c-1.3,4.5,0.2,10.6,5.5,11.8
		c2.6,0.5,5.3,0.7,8.1,0.8l7.7,0.7c5,0.3,9.9,0.5,14.9,0.1c4.9-0.1,9.7-1,14.3-2.6c4.4-1.6,8.8-3.6,12.8-5.9
		c7-3.6,14.2-8.1,22.1-8.9c15.8-1.8,30.2,7.3,40.2,19.2c10,11.9,18.6,28.6,28.5,42.5c5.1,7.5,10.8,14.3,17.3,20.7
		c6.7,6.4,14.4,11.5,22.1,16.9c14.3,10.2,28.6,20.5,41.7,32.3c6.8,6.1,13.3,12.7,19.2,19.8c6.1,7.2,11.5,15.2,16.9,23.1
		c10.9,15.6,21,31.7,30.2,48.3c2.3,4.2,4.2,8.6,6.8,12.6c2.6,4,5.5,7.6,7.4,12.1c4,8.9,7.8,17.8,11.3,26.9
		c6.8,18.2,11.9,37.3,11.5,56.8c0,1.1-0.1,2.4-0.1,3.6l-12.7-11.8c-1.6-1.7-4.1-2.2-6.1-1.1c-1.9,0.8-3.8,3-3.5,5.1
		c2.8,24-2.3,48.7-15.3,68.9l-10-29.2c-0.7-1.8-1.3-3.6-1.9-5.6c-0.9-3.1-4-4.8-7-3.9c-1.8,0.6-3.3,2-3.9,3.9
		c-4.1,11.9-6,24.2-7.8,36.6c-1.8,12.4-3.5,23.2-8,34.1c-2.3,5.7-5.1,11.1-7.3,16.8c-2,5.7-3.8,11.6-4.9,17.5v0.2l-0.3-0.8
		c-0.5-1.1-0.9-2.3-1.3-3.4c-0.3-1.1-2-5.5-3-8.3c-1.9-5.9-3.6-11.8-5.1-18c-0.7-2.7-1.3-5.6-1.8-8.4c-0.6-2.8-0.3-2.5-0.6-3.6
		c0-0.1,0-0.2-0.1-0.3v-0.2c0-0.7-0.1-1.3-0.2-1.9c0-1.1-0.1-2.3-0.1-3.4v-1.4h-0.1c0.1,0,0.1-0.1,0.1-0.2v-0.3h0.1V625
		c0.8-0.7,1.5-2.6,1.9-3.4l2.2-3.6c6.7-11.4,12.5-23.5,10-37.1c-0.6-2.2-2.5-3.9-4.8-4.1c-2.3-0.2-4.4,0.8-5.7,2.7
		c-18.6,26.1-38.9,51.2-60.7,74.8c0.7-3.9,1.7-7.6,2.6-11.1c2.2-8.8,4.8-17.6,5-26.7c0.1-4.1-5-7.4-8.5-4.9
		c-9.3,6.6-17.5,15-26.3,22.4l-7.3,6.1l-1.4,1.1h-0.1l-0.7,0.6l-3.5,2.6c-4.4,3.8-8,8.4-11.8,12.5l-3,3.1l-1.5,1.4l-0.8,0.7h-0.2
		c0,0.1-0.1,0.1-0.2,0.2l-2.3,1.4l-0.9,0.3h-0.2c0.1,0.1,0.1,0.1,0,0.1h-0.3c0,0.1-0.1,0.1,0,0l-0.8-0.7l-0.3-0.5l-0.8-1.4
		c-0.1-0.2-0.1-0.5-0.2-0.6c-0.5-1.3-0.8-2.4-1.1-3.6l-0.3-1.9c-0.1-0.5-0.2-0.9-0.2-1.4c-0.1-0.3-0.1-1.1-0.2-1.4s-0.1-1.7-0.1-2.5
		c-0.2-3.1-0.3-6.1-0.2-9.2c0.1-5.6,0.5-11,0.8-16.5c0.1-7.4,0.8-14.7,1.8-21.9c1.5-9.1,3.6-18.1,6.7-26.8
		c5.3-14.9,14.2-28.3,20-43.1c3-7.3,4.8-15,5.3-22.8c0.3-8.1-0.8-16-3.2-23.8c-4.8-16.1-13.5-31-22.5-45.2
		c-9-14.2-18.8-28.9-29.8-41.9c-11-13.1-24.4-26.4-37.4-38.5l-10.1-9.4c-5.5-5-12.8,2.5-8.1,8.1c16.1,18.8,28.6,40.4,36.7,63.8
		l-2.6-1c-5.7-2-9.2,5.7-5.6,9.5c17.2,18.3,26.4,43.2,26.5,68.1c0,2.3-0.1,4.7-0.2,6.9c-4-3.8-8.8-6.5-14.1-8
		c-3.1-0.9-6.1,0.9-7,3.9c-0.2,1-0.3,2,0,3.1c2.3,8.4,3.9,16.9,4.9,25.6l-11-21.5c-3.9-7.7-7.5-15.5-11-23.3
		c-3.5-7.8-5.2-13.2-8-19.7c-8.9-20.8-22.8-45.6-47.3-50c-8.1-1.5-16.4-0.7-24.4,0.9c-8.8,1.6-17.1,4.9-24.6,9.5
		c-6.4,3.8-0.6,13.5,5.7,9.8c11.5-6.9,25.7-10.9,39.1-9.4h0.9l2,0.5l4,1.1l1.7,0.7l0.9,0.5c1.3,0.6,2.4,1.1,3.5,1.9
		c2.2,1.3,4.1,2.7,5.9,4.3c1.9,1.8,3.9,3.8,5.6,5.8c3.4,4.2,6.5,8.6,9.1,13.4c2.7,5,5.2,10.2,7.5,15.6c0.5,0.9,0.7,1.5,1.3,2.8
		s1,2.6,1.6,3.9c1.5,3.9,3,7.7,4.7,11.5c3.1,7.4,6.5,14.7,10.1,21.8c8.1,16.5,16.9,32.6,24.9,49.3c2.6,5.2,10.6,2.4,10.7-3
		c0.2-14.3-1-28.5-3.9-42.5c2.4,2.3,4.3,5.1,5.5,8.2c0.7,2.5,3,4.2,5.5,4.2c2.6,0,4.8-1.7,5.5-4.2c5.8-27.6,1.3-56.4-13-80.7l-3.1-5
		c2.6-1.3,4-4.1,3.3-6.9c-3.4-11.9-7.8-23.4-13.3-34.6l1.5,1.6c6,6.5,11.8,13.3,17.1,20.5c5.1,6.8,9.7,13.9,14.2,20.9
		c9.2,14,18.5,28.2,24.3,43.9c2.7,7.2,4.3,14.8,4.8,22.4c0.2,7.7-1.5,15-4.1,22.3c-5.6,15-14.6,28.5-20.2,43.4
		c-6.4,16.6-8.6,34.4-9.5,52.1c-0.5,11.7-1.7,23.5,0.3,35.1c0.9,5.1,2.7,10.8,6.7,14.2c4,3.4,11.4,4,16.7,0.5s9.3-8.3,13.4-12.8
		c1.8-2.2,3.8-4.3,5.8-6.3l1.4-1.1c-0.2,0.2-0.3,0.2-0.3,0.3c0.2-0.2,0.7-0.6,0.8-0.6l3.9-3c7.6-5.9,14.7-12.4,21.9-18.9
		c-3.1,13.2-8.2,26.5-5.8,40.2c0.8,4.3,6.7,5.3,9.5,2.5c19.8-20.7,38.4-42.4,55.8-65.1l-3.3,5.7c-1.7,2.8-4,5.8-4.7,9.1
		c-0.3,2.2-0.5,4.4-0.3,6.6c0.9,12.3,4.3,24.4,8.1,36c1.8,5.9,4.1,11.7,6.6,17.3c1.7,3.8,3.8,8.2,7.3,10.5s10.1-0.7,11.5-5.8
		c1.4-5.1,1.5-9.3,2.6-13.9c1.5-6,3.4-11.8,5.8-17.5c2.7-6.5,5.9-12.7,8-19.6c1.8-6.6,3.3-13.3,4.3-20c1.3-8.3,2.4-16.6,4.1-24.8
		c2.4,7.2,4.9,14.2,7.4,21.4c0.6,1.9,1.3,3.8,1.9,5.6c1.3,3.6,6.6,6.1,9.4,2.5c16.3-20.1,25.2-45.1,25.4-71.1l10.5,9.7
		c2.8,2.7,8.8,1.9,9.5-2.5C1056.9,537.6,1054.9,518.1,1049.6,499.3z"/>
	<path d="M662.8,344.6c1.8-1.8,3.1-4.1,3.8-6.5c0.7-2.7-0.1-5.6-2-7.5c-2.7-3.2-7.3-4-11.3-4.5c-3.8-0.5-7.6-0.3-11.4,0.1
		c3.8-3.8,7.6-7.3,11.7-10.6l1.3-1h0.1l0.8-0.7l2.6-1.7c1.6-1,3.4-1.8,5.1-2.6h0.6l1.4-0.6l3.1-1c1.8-0.6,3.6-1,5.5-1.4l1.3-0.2h0.6
		l2.3-0.2c3.4-0.2,6.8-0.1,10.2,0.1c9.3,0.7,18.5,1.7,27.7,1.5c3.1-0.1,5.9-2.6,5.7-5.7c0-3.2-2.5-5.7-5.7-5.7
		c-8.5,0-17.1-0.3-25.5-1.3c-7.7-0.7-15.3-0.7-22.8,1.3c-7.2,1.8-13.8,5-19.7,9.4c-5.3,4.2-10.5,8.8-15.3,13.6
		c-2.5,2.6-5,5.2-7.4,8.1c-2,2.2-3.8,4.7-5,7.3c-1,2.3-1.1,5,0.8,6.9c1.8,1.8,4.7,2.2,6.9,0.8c0.8-0.6,1.7-1,2.6-1.5l1.3-0.7h0.3
		c-0.4,0.2-0.7,0.5,0.1,0h0.2c2-0.8,4.2-1.4,6.4-1.9c1.1-0.1,2.2-0.3,3.3-0.6h2.2c2.2-0.2,4.2-0.2,6.4-0.1h3.1
		c0,0.1-0.1,0.1-0.2,0.2c-0.8,0.8-1.6,1.5-2.4,2.2l-0.6,0.5l-1.4,1l-1.3,0.7l-1.4,0.6l-1.9,0.7c-5.3,1.9-10.5,4.3-15.2,7.3
		c-9.5,5.9-17.8,13.6-24.4,22.8c-7.3,9.8-12.2,21.1-14.3,33.2c-0.6,3,0.8,6.3,4,6.9c3.2,0.7,6.4-0.8,6.9-3.9
		c0.5-2.7,1.1-5.5,1.9-8.1c0.3-1.4,0.8-2.6,1.3-3.9l0.7-1.9l0.3-0.8c0.1-0.2,0.1-0.5,0.2-0.6c2-5,4.7-9.7,7.8-14l1.1-1.7l0.7-0.8
		l2.6-3.2c1.8-2,3.8-4,5.8-5.9l3.1-2.7l1.4-1.1l0.8-0.7h0.2c2.2-1.6,4.4-3.2,6.8-4.5c2.4-1.5,4.8-2.7,7.3-3.9l0.9-0.5h0.5l1.5-0.6
		c1.3-0.6,2.6-0.9,3.9-1.4C655.2,351.9,659.5,348.7,662.8,344.6z"/>
	<path d="M494.5,348.4c-2.7-1.9-5.5-3.9-8.3-5.6l5.7,0.3c3.4,0.3,6.7-3.9,5.5-7.2c-2.2-5.3-5.1-10.2-8.6-14.8
		c-3.4-4.8-7-9.5-11.6-13.3c-2.8-2.2-5.9-4.1-9.2-5.6c-3.5-1.7-7.2-3.2-10.9-4.4c-6.8-2-13.9-3.1-20.9-3.3
		c-8.4-0.1-16.8,0.3-25.1,1.6c-2.8,0.3-5.8,2.3-5.7,5.7c0.1,3.4,2.6,6,5.7,5.7c7.2-0.9,14.4-1.5,21.7-1.7c3.3,0,6.5,0.1,9.8,0.6h1.4
		l2,0.3l4.9,1l4.9,1.6l2,0.7l1.3,0.5h0.2l0.5,0.2c3.3,1.4,6.4,3,9.3,4.9l0.3,0.2l0.8,0.8c0.9,0.8,1.8,1.7,2.7,2.6l2.6,2.8l1.4,1.7
		l0.7,0.9l0.5,0.5c0.9,1.1,1.7,2.5,2.6,3.6l1.6,2.5c-5,0.2-9.9,0.9-14.8,2.2l-0.7,0.2h-3c-2.5-0.3-5,0-7.3,0.9
		c-1.8,1-2.8,2.8-2.8,4.9c0,2.6,1.7,4.9,4.2,5.6c1.5,0.5,3.8,0.1,5.3,0.1h0.3c2.5,0.5,4.9,1.3,7.2,2.2l0.8,0.3h0.1l2,0.9l4.2,2.2
		c3.1,1.7,6,3.6,8.9,5.6l2,1.5l1,0.8l0.3,0.2l4.4,3.8c2.8,2.5,5.5,5.1,8,8l1.7,2l0.6,0.7c0,0,0-0.1,0-0.1c0.1,0.1,0.1,0.3,0.2,0.5
		c0.1,0,0.1,0.1,0.2,0.2c0,0.1,0,0.1,0.1,0.1c1,1.5,2,2.8,3,4.4c1,1.5,1.8,3.1,2.6,4.7l1,2c0,0.1,0,0.2,0.1,0.2c0.1,0,0.3,1,0.5,1.5
		c0.7,1.7,1.1,3.5,1.5,5.3c0.1,0.3,0.1,0.7,0.2,1v0.6c0.1,0.9,0.1,1.7,0.1,2.6c0,1,0,1.9-0.1,3v0.3c-0.1,0.3-0.1,0.7-0.2,1.1
		c-0.3,1.9-0.9,3.9-1.7,5.7c-1.1,2.7,1.3,6.4,4,6.9c2.7,0.6,5.8-0.9,6.9-3.9c6.6-15.8-0.7-32.4-10.7-44.7
		C507.3,358.6,501.2,353,494.5,348.4z M514.2,400.3C514.1,400.7,514.1,400.5,514.2,400.3L514.2,400.3z"/>
</g>
</svg>
