<?xml version="1.0" encoding="utf-8"?>
<!-- Generator: Adobe Illustrator 24.2.3, SVG Export Plug-In . SVG Version: 6.00 Build 0)  -->
<svg version="1.1" id="b7f4805d-87f9-4207-9daf-1721800e4368"
	 xmlns="http://www.w3.org/2000/svg" xmlns:xlink="http://www.w3.org/1999/xlink" x="0px" y="0px" viewBox="0 0 1152 864"
	 style="enable-background:new 0 0 1152 864;" xml:space="preserve">
<path d="M674.4,328c0.7-2.8-0.8-5.1-3.5-6.1c1.4,0.5-0.3-0.2-0.6-0.4l-0.4-0.3l-1-0.9l-0.4-0.5c-0.1-0.1-0.1-0.1-0.2-0.2
	c-0.3-0.5-1.5-2.2-1.6-2.4l-1.5-2.7c-2.5-4.5-5.3-8.3-9.5-11.3c-8.1-5.9-18.8-7.2-28.4-8.3c-11.9-1.3-23.9-2.4-35.7-0.2
	c-2.3,0.4-4.5,1.1-6.7,1.5l0.2-0.3l0.8-1.6c1-2.2,2.2-4.2,3.5-6.2l1.2-1.7l0.5-0.7h0.2l2.5-3c1.9-2,3.8-3.9,5.9-5.7l1.4-1l0.2-0.2
	l1-0.7l3.3-2.3c2.5-1.5,5-2.8,7.7-3.9c1.9-0.9,2.9-3.8,2.3-5.7c-0.7-2.1-2.6-3.6-4.8-3.7c-11.8,0.4-23.6,2-35.1,4.8
	c-5.5,1.4-10.9,3-16.2,5c-4.7,1.8-9.5,3.6-13.7,6.5c-2.5,1.7-4.8,3.8-6.6,6.3c-1.7,2.4-2.7,5.3-3,8.2c-0.3,2.6,2.6,5.1,5,5
	c2.4-0.1,4.7-2.2,5-5c-0.1,1.5,0.1,0.1,0.2-0.3c0-0.3,0.1-0.5,0.2-0.8c0.1,0,0.1-0.1,0.1-0.2l0.3-0.5l0.4-0.6l0.2-0.4
	c0.2-0.2,0.6-0.6,0.6-0.7c0.4-0.3,0.8-0.7,1.1-1.1c0.4-0.2,0.8-0.5,1.1-0.8l0.6-0.5c1.8-1.2,3.7-2.2,5.7-3.1l1.2-0.6h0.1
	c0.1,0,0.1-0.1,0.2-0.1l0.3-0.1c1.3-0.6,2.6-1.1,3.9-1.5c9.3-3.4,18.9-5.9,28.7-7.5c-3,2.7-5.7,5.6-8.2,8.8
	c-3.1,4.3-5.7,8.9-7.7,13.8c-1.3,3.4-1.8,7.3,1,10.2c2.2,1.9,5.1,2.8,8,2.5c2.9-0.2,5.5-1.1,8.2-1.7l4.1-0.8h1.4l2.8-0.3
	c6.1-0.2,12.3,0,18.4,0.6c2.9,0.2,5.8,0.5,8.7,0.9l1.7,0.2h1.3l3.4,0.4c2.4,0.5,4.9,1,7.3,1.7c1.2,0.3,2.3,0.7,3.4,1.2l0.7,0.2h0.1
	l1.6,0.7l3.2,2l0.3,0.2h-0.2c0.3,0,0.6,0.5,0.8,0.6l1.3,1.3l1.1,1.3c0,0,0.1,0,0.1,0.1l0.1,0.1l-0.1-0.1c0,0,0,0,0,0l0.6,0.9
	l1.9,3.2c1.2,2.5,2.7,4.8,4.4,6.9c1.9,2.5,4.5,4.4,7.5,5.4C670.7,332.5,673.9,330.5,674.4,328z M550.3,284.6
	C550.3,284.5,550.3,284.5,550.3,284.6C550.5,284.5,549.6,285.1,550.3,284.6z"/>
<path d="M952.8,533.1c-0.1-1.5-0.4-3-0.7-4.4l-0.3-0.6c-1.5-7.5-4.1-14.8-7.5-21.7c-3.9-7.7-8.8-14.8-14.6-21.1
	c-5.6-6.3-11.7-12.1-17.8-17.9s-12.9-12-19.7-17.6c-4.1-3.3-8.2-6.5-12.5-9.6h1c5.4,0.2,10.9,0.5,16.3,1c2.6,0.2,5.1-2.5,5-5
	c-0.1-2.7-2.3-4.9-5-5c-6.2-0.6-12.4-0.9-18.6-1.1c-0.8-9.3-3-18.4-6.4-27.1c-2.2-5.4-5.1-10.5-8.4-15.2c-4-5.1-8.4-9.8-13.3-14.1
	c-7.5-6.8-15.3-13.3-22.7-20.2l22.1,1c4.5,0.2,6.3-5.5,3.5-8.5s-6.6-9.6-10.3-14.2c-3.7-4.6-8.9-8.5-14-11.6
	c-5.1-3.1-10.3-5.5-15.4-8.2c-2.7-1.4-5.3-2.9-7.8-4.5c-1.9-1.1-3.4-2.7-4.6-4.5l-0.3-0.6c-0.1-0.2-0.1-0.5-0.2-0.7
	c0-0.2,0-0.5-0.1-0.7c0.1-0.3,0.2-0.7,0.3-1c0.1-0.2,0.2-0.3,0.2-0.4l0.4-0.8c0.4-0.5,0.9-1,1.4-1.4h0.1l0.4,0.2
	c3.8,2.6,8.3-1.7,7.3-5.6c-1.5-9.7-9.2-16.4-17-21.4c-3.8-2.4-7.7-4.5-11.4-6.9l-2.7-1.8l-1.2-0.9l-0.8-0.7
	c-0.8-0.7-1.6-1.6-2.2-2.5l-0.9-1.5l-0.5-0.9v-0.2c-1.9-5.3-1.3-10.3,0.4-15.8s-3.6-7.5-7.4-5.7c-12,6-23.7,12.6-35.1,19.7
	c0.2-5.3,1.5-10.4,4-15.1c2-3.9,4.1-7.6,6.5-11.2c2.3-3.6,5-8,2.9-12.3c-1.3-2-3.2-3.4-5.5-3.9c-2.8-0.8-5.2,0-7.7,0.9l-12.4,4.2
	c-8,3-16.1,5.9-24.4,8.2c-4.3,1.1-8.5,2.1-12.8,2.8c7.9-4.8,16.8-7.9,25.8-10.5c5.5-1.6,4.3-9.6-1.4-9.8c-25.3-1-50.7,1.7-75.6,7
	l-8.9,2c3.8-4.9,8.5-9,13.9-12.1c3.5-2,3.1-8.3-1.2-9.1c-11.8-2.2-23.5-0.5-34.6,3.9c-7.3,3-14.4,6.5-21.3,10.4l0.3-0.7
	c0-0.1,0-0.2,0.1-0.2v-0.2l1.2-2.5l2.2-4.8c1.6-3.3,2.7-6.9,3.3-10.5c0.6-4.2-0.1-8.4-1.8-12.2c-1.5-3.3-5.7-2.7-7.9-1
	c-12.4,9.6-24.1,20-35,31.2c-1.6-8.8-5.6-16.9-11.5-23.6c-2.8-3.3-8.6-0.7-8.5,3.5c0.2,6.8,0.3,13.7,0,20.6
	c-6.8-9.3-14.6-17.9-23.2-25.5c-3.7-3.3-9.7-0.2-8.4,4.8c2.1,8,1.6,16.4-1.2,24.1c-7.6-5.5-16.1-9.6-25.1-12.2
	c-3-0.9-6.5,1.6-6.3,4.8c0.2,6.2-0.9,12.4-3.3,18.1c-6.4-4-12.5-8.5-18.3-13.4c-1.7-1.5-4.1-1.8-6.1-0.7
	c-16.2,8.9-30,22.8-37.5,39.9c-1.7,3.8-3,7.8-7.1,9.5c-4.1,1.7-9.3,1.9-13.8,2.8c-9.9,1.9-19.5,5-28.7,9.1
	c-10.3,4.5-19.9,10.4-28.6,17.5c-3.8,3,0.3,10.2,4.9,8.3c1.4-0.7,3.1-0.3,3.8,1.1c0.8,0.9,0.8,1.9,0,3.4c-2.4,4.8-8.9,6.6-13.6,8.4
	c-11.2,4.3-21,11.6-25.9,22.9c-1.4,3.3,0.2,7.7,4.4,7.6L311,338c-6.7,6.8-14.7,12.5-22,18.5c-10.7,8.9-20.3,18.9-28.7,30
	c-8.2,10.7-17,23.2-19,36.8c-1.1,7,0.2,14.1-0.8,21.1c-0.9,5.7-3,11.2-6.2,16.1c-7.3,11.7-18.5,20.8-29.1,29.5
	c-1.4,1.4-1.8,3.6-1,5.5c0.8,1.8,2.5,2.9,4.5,3c6,0.7,12,2.1,17.7,4c-18.7,18.1-35.2,38.5-48.9,60.6c-4.2,6.8-8.1,13.8-11.7,20.9
	c-2.2,4.2,2.4,9.6,6.9,6.8c6.2-3.9,13.2-6.3,20.4-7.2c-0.6,13.1,3.8,25.8,12.1,35.9c2.5,3.2,7.1,0.9,8.3-2.2
	c8.8-23.7,23.5-44.7,41.9-61.9c-5.6,34.5-7.3,71.2,12.9,101.4c5.6,8.5,13.3,19.2,24.7,17.7c3.6-0.5,4.2-4.8,3-7.4
	c-7.6-17.1-9.2-36.2-4.7-54.4c0.3-1.5,0.9-3,1.7-4.3c0.3-0.5,0.7-1,1.1-1.4l0.8-0.6c0.7,0.1,1.3,0.4,1.6,1c1.3,1.7,2.5,3.5,3.5,5.4
	c4.7,6.9,10.3,13.1,16.8,18.4c7.8,6.3,16.5,11.3,25.9,14.8c3.7,1.4,7.1-2.8,6.2-6.2c-4.4-16.9-14.6-31.2-21.5-47
	c-5.6-12.7-8.6-28.1-1.7-40.7c8.6-0.3,17.1,1.8,24.4,6.3c-2,12.4-1.4,25,1.8,37.1c0.7,2.6,3.5,4.2,6.1,3.5c2.2-0.7,4.1-2.1,5.4-4
	l0.3-0.6c0.1,0.3,0.1,0.5,0.1,0.8c0.1,1.4,0,2.7,0.1,4.1c0.2,10,2,19.9,5.3,29.3c0.9,2.5,3.5,4.4,6.2,3.5s4.4-3.5,3.5-6.1
	c-1.7-4.6-2.9-9.4-3.8-14.2l-0.3-1.8c-0.1-0.3-0.1-0.7-0.2-1v-0.2c-0.2-1.2-0.3-2.4-0.4-3.6c-0.1-1.2-0.3-4.8-0.4-7.3
	c-0.1-2.5,0-5.8-1-8.5c-0.7-2.1-2.1-3.9-4-5.1c-2.1-1.2-4.6-1.6-6.9-1c-0.8,0.2-1.5,0.5-2.2,0.9c-0.1-0.4-0.1-0.8-0.2-1.2v-0.4
	c-0.1-0.5-0.1-0.9-0.2-1.4c-0.1-0.5-0.1-1.6-0.2-2.3c-0.1-0.7-0.2-3.5-0.2-5.2c-0.1-3.3,0.1-6.6,0.4-9.9c0.1-0.5,0.2-0.9,0.2-1.4
	v-0.2c0.1-0.8,0.2-1.7,0.4-2.5c0.3-1.7,0.6-3.4,1-5.1c0.2-0.6,0.2-1.3,0.1-1.9c2.5-9.3,4.1-18.9,4.7-28.5
	c0.7-10.5-0.2-21.4-1.4-31.3c-0.5-3.7-0.6-7.4-0.4-11.1c0.3-2.5,1.2-5.8,2.7-7.5s6.7-2.9,10.2-4.8c3.5-1.9,6.6-7.4,7-12.4
	c1.6-19.7-9.7-37.6-10-57c-0.3-19.4,15.2-33.4,29.2-44.6c9.4-7.5,19.5-14.1,30.2-19.7c-7.9,8.7-14.6,18.3-20,28.7
	c-1.8,3.5,1.3,8.8,5.7,7.3l53.5-18.7c2.7-0.8,4.2-3.5,3.5-6.2c-0.7-2.4-3.6-4.4-6.1-3.5l-41.1,14.4c9-13.6,20.5-25.4,33.9-34.7
	c2-1.5,3.1-3.9,2-6.3c-1-2.3-3.5-3.5-5.9-2.9c-19.5,6.7-37.9,16.2-54.6,28.3c-8.3,5.9-16,12.4-23.1,19.7
	c-6.9,7.3-13.1,15.8-15.6,25.6c-5.2,20.1,5.2,39.2,8,58.7c0.3,2.1,0.5,4.1,0.6,6.2c0.1,2.1,0.3,4.6-0.5,6.6s-1.8,1.9-3.3,2.4
	c-2.3,0.6-4.6,1.5-6.7,2.6c-7.3,4.5-9.6,13-9.6,21c0.1,4.5,0.5,9,1.2,13.4c0.8,6.3,1.1,12.6,1,18.9c-0.2,10.4-1.6,20.7-4.1,30.7
	c-6.5-3.4-13.5-5.3-20.8-5.8c-2.3-0.2-4.5-0.2-6.8,0c-1.4,0-2.8,0.2-4.1,0.8c-1.4,0.8-2.3,2.4-3.1,3.8c-2.2,3.9-3.8,8.1-4.6,12.5
	c-3.6,19.2,4.9,37.2,13.7,53.7c3.4,6.1,6.5,12.4,9.3,18.9c-4.8-2.6-9.3-5.7-13.5-9.2c-3.5-3-6.7-6.3-9.7-9.8
	c-2.7-3.3-4.8-7.1-7.3-10.6s-7.6-7-12.9-5.5s-7.5,5.3-9.3,9.5s-2.7,10.1-3.4,15.1c-0.6,5.1-0.8,10.2-0.6,15.3
	c0.3,7.6,1.6,15.2,3.7,22.5c-2.5-2.9-4.7-5.9-6.8-9.1c-4.2-6.7-7.4-13.9-9.7-21.5c-5.1-17-5.4-34.8-3.6-52.3
	c1.1-10.9,3-21.7,5.1-32.5c0.9-5.1-4.5-8-8.4-4.9c-22.3,17.7-40,40.5-51.6,66.5c-4.2-7.9-5.6-17.1-4.1-25.9c0.5-3.1-1.4-6.4-4.9-6.4
	c-5.8,0.2-11.5,1.1-17,2.7c11.4-19.6,25-37.9,40.4-54.6c5.5-5.9,11.2-11.6,17.1-17c2.2-2,1.9-6.6-1-7.9c-5.8-2.5-11.8-4.4-18-5.8
	c7.3-6.3,14.3-13,20-20.7c3.5-4.9,6.3-10.2,8.4-15.8c2.2-6.7,2.4-13.5,2.2-20.4c-0.3-6.9,1.2-13.8,4.2-20.1c3-6,6.5-11.8,10.5-17.3
	c7.9-11.1,17.2-21.1,27.5-30c11.6-10,24.5-18.5,33.6-31c2.2-3.1-0.8-7.7-4.3-7.5l-25.7,0.8c2-2.5,4.4-4.6,7-6.3
	c6.3-4.2,13.9-5.4,20.2-9.5c6.3-4.1,11.2-10.7,9-18.1c-0.7-2.3-2.1-4.4-4-6c13.4-8.9,28.5-15.1,44.3-18.2
	c9.5-1.9,19.7-2.2,25.2-11.6c2.2-3.8,3.6-8.1,5.8-12c2.1-3.8,4.5-7.4,7.3-10.7c5.8-6.9,12.7-12.8,20.4-17.4
	c6.9,5.6,14.2,10.7,21.9,15.3c2.3,1.4,5.3,0.6,6.7-1.7l0.1-0.1c3.7-6.4,6-13.5,6.7-20.9c7.2,2.8,14,6.8,19.9,11.8
	c2.4,2.1,6.2,2,7.9-1c3.8-6.9,5.9-14.6,6.2-22.5c7.5,7.8,14.1,16.5,19.6,25.8c0.6,1.1,1.6,2,2.9,2.2h0.1c2.3,0.6,5.6-0.8,6.1-3.4
	c0.2-0.5,0.3-1.1,0.2-1.7c0.7-4.8,1.1-9.6,1.4-14.4c0.8,3.9,1,8,0.5,12c-0.5,4.3,5.8,6.5,8.5,3.5c11.1-12.2,23.1-23.6,35.8-34
	c-0.4,1.6-0.9,3.1-1.5,4.6l-0.3,0.8l-0.3,0.7L573,198c-2.9,6.3-6.3,13-5.5,20.2c0.4,3.7,4,6.3,7.5,4.3c13.9-7.8,28.9-17.3,44.7-18.9
	c-5.1,4.9-9.3,10.7-12.1,17.2c-0.8,1.9-1,3.9,0.4,5.6c1.3,1.6,3.3,2.3,5.3,1.8c21.7-6,44-9.8,66.5-11.2c-6.3,3.3-12,7.7-16.8,12.9
	c-2.8,3.1-0.9,8.5,3.5,8.5c17,0,33.4-4.7,49.2-10.3l11.3-4.2l5.7-2.1l1.1-0.4l-1.7,2.6c-2.2,3.5-4.2,7.1-5.9,10.8
	c-4,8.8-6.1,18.5-3.1,27.9c1,3,4.6,4.9,7.4,3c10.5-6.8,21.3-13.1,32.3-19c-0.3,8.3,2.3,16.4,9.3,21.9c3.8,2.8,7.7,5.3,11.8,7.6
	l5.9,3.7l2.7,1.8l0.6,0.5l0.2,0.2l1.4,1.1l2.5,2.5c0.1,0.2,0.7,0.9,0.7,1c0.3,0.3,0.6,0.7,0.8,1.1c-3,1.6-5.4,4.2-6.8,7.3
	c-3.2,7,0.2,14.1,5.9,18.6c10.6,8.4,24.5,11.9,34.4,21c2.8,2.7,5.2,5.7,7.3,9l-24.5-1c-4.6-0.2-6.3,5.5-3.5,8.5
	c8.6,9.5,18.6,17.6,28.1,26c4.9,4.3,9.9,8.6,14,13.7c3.4,4.2,6.2,8.9,8.4,13.8c3.5,7.7,5.4,16.5,6.3,25.1c-3.8,0-8.1,0.1-9.4,4.5
	c-0.7,2.7,0.9,5.4,3.5,6.2h0.2l6.6,4.2c0,2.4,0.1,4.7,0.1,7c-0.3,5.4,0.4,10.9,1.9,16.1c3.6,10.7,10.6,19.9,19.9,26.2
	c2.6,6.9,6,13.6,9.1,20.2c1.2,2.5,2.3,5,3.4,7.5c0.1,0,0.1,0,0.1,0.1l0.3,0.7l0.7,1.8l1.5,4.1c0.8,2.5,1.5,5,2.1,7.6l0.3,1.9
	c0.1,0.4,0.2,0.8,0.2,1.2c0,0.1,0,0.1,0.1,0.2c0.2,1.3,0.2,2.6,0.3,4s0,2-0.1,3.1l-1.3-0.7c-3.5-7.4-7.9-14.4-12.9-20.9
	c-8.6-11.4-18.6-21.6-28.8-31.6c-5.6-5.4-11.2-10.9-16.6-16.5c-0.8-1.1-1.8-2-2.8-2.9c-0.7-0.8-1.7-1.3-2.8-1.4h-2.3l-0.3,0.2h-0.7
	l-0.4,0.3H840l-0.4,0.3c-0.9,0.9-1.4,2.1-1.4,3.4c0.2,2.8,0.2,5.7,1,8.3c0.4,1,0.8,1.9,1.3,2.8c4.3,16.5,11.7,32.1,14.3,49.1
	c0.1,0.4,0.2,0.8,0.2,1.2c0.1,0.6,0.1,1.1,0.2,1.7l0.3,3.8c0.1,2.5,0.1,5,0,7.5l-0.3,3.8c-0.1,0.6-0.1,1.2-0.2,1.8s-0.1,0.5-0.1,0.8
	v0.2c-0.4,2.4-0.9,4.9-1.4,7.4c-1.2,4.9-2.8,9.8-4.7,14.5l-0.3,0.8l-0.3,0.8c-0.1,0.1-0.1,0.3-0.2,0.3l-0.3,0.9l-1.7,3.5
	c-1.1,2.3-2.3,4.6-3.5,6.8s-3,5.6-4.7,8.3c-0.8-3.5-1.7-7-2.8-10.5c-2.3-7.2-5.6-14-9.7-20.3c-1.4-2.4-4.5-3.1-6.9-1.7
	c-1.1,0.7-1.9,1.7-2.2,2.9c-1.2,3.7-2.6,7.4-4,11l-0.6,1.3c0,0.2-0.1,0.3-0.2,0.5l-1.2,2.7c-0.8,1.8-1.6,3.6-2.5,5.3
	c-3,6-6.3,11.8-10,17.3c0.6-7.3,0.4-14.7-0.8-21.9c-2-11.6-7.8-22.2-17.4-29.1c-4.2-3-9.1-5.1-14.2-5.9c-1.1-4.2-2.1-8.5-2.9-12.8
	l-0.6-3.6v-0.3c0-0.1,0-0.3-0.1-0.4c-0.1-0.7-0.1-1.3-0.2-2c-0.3-2.5-0.5-4.9-0.6-7.4s-0.1-4.8,0-7.3s0.1-2.3,0.2-3.4
	s0.1-2.3,0.3-3.4c0.1-0.7,0.1-0.6,0.1-0.5c0-0.2,0.1-0.4,0.1-0.6l0.3-1.8c0.2-1.2,0.5-2.5,0.8-3.7c0.5-2.3,1.2-4.6,2-6.9l0.6-1.4
	l0.3-0.8c0.5-1.1,1-2.3,1.6-3.4c0.5-1,1.1-2,1.7-2.9c0.8-1.5,1.2-3.2,1.3-4.9c0.4-4-0.8-8.1-3.4-11.2c-4.6-5.6-12.5-7.9-19-10.3
	l-2.3-0.8l0.2-0.3c2.3-5.1,4.7-10.1,7.2-15.1c1.3-2.5,2.6-5,4-7.5s2.8-5,4-7.6c2.3-5.2,4.2-10.6,5.7-16.1c1.4-5.2,2.4-10.5,3.4-15.9
	c1-5.4,2.1-11.3,1.6-17s-2.6-12.1-6.5-17c-1.4-1.8-3.1-3.4-4.7-5.1l-2.1-2.3c-1.3-1.3-2.6-2.4-4.1-3.4c-8.6-6.6-18.4-11.5-27.4-17.6
	c-2.4-1.6-4.7-3.4-7.1-4.8c-2.4-1.4-4.8-2.8-7.3-4.1c-5.1-2.6-10.4-5-15.7-7.1l-7.8-2.8c-2.4-0.7-5,0.6-5.9,2.9s-0.1,4.9,2,6.3
	l2.6,1.8l0.9,0.7l0.9,0.7l4.8,4c3.2,2.8,6.2,5.7,9.1,8.8c2.8,3,5.5,6.1,8.1,9.3l0.3,0.5c0.4,0.4,0.7,0.8,1,1.3l1.8,2.5l3.5,5.9
	c0,0.1,0.1,0.2,0.1,0.3l-40.9-14.9c-2.7-0.7-5.4,0.8-6.2,3.5c-0.6,2.7,0.9,5.3,3.5,6.2l53.1,19.2c2,0.5,4.1-0.2,5.3-1.8
	c1.1-1.6,1.3-3.8,0.3-5.5c-5-10.3-11.4-19.9-18.9-28.6l0.9,0.5c2.5,1.5,4.7,3.3,7.1,4.9c2.4,1.6,4.7,3.1,7.1,4.5
	c4.5,2.8,9.1,5.4,13.5,8.3l3.4,2.3l1.4,1l0.8,0.6l0.5,0.4c1.8,1.6,3.5,3.3,5.1,5.1l2.2,2.2l1.1,1.3l0.2,0.2l0.5,0.7
	c0.6,0.9,1.1,1.9,1.6,2.9v0.2l0.3,0.9c0.3,0.7,0.5,1.5,0.7,2.2s0.4,1.3,0.5,2c0.1,0.4,0.1,0.8,0.2,1.1c0.1,1.3,0.2,2.6,0.2,4
	c0,1.3,0,2.5-0.2,3.8c0,0.4,0,0.7-0.1,1.1v0.2l-0.3,2c-1,5.3-2,10.5-3.2,15.6c-1.2,5.2-2.8,10.4-4.7,15.4l-0.6,1.6v0.2
	c-0.2,0.3-0.3,0.6-0.4,0.9c-0.6,1.4-1.4,2.7-2.1,4s-2.7,4.9-4,7.4c-2.6,4.9-5,9.9-7.4,14.9c-1.1,2.3-2.6,4.8-3.1,7.3
	c-0.8,3.1,0.1,6.3,2.3,8.6c1.7,1.6,4,2.2,6.1,3l4.9,1.7l2.3,0.9l0.9,0.4l0.6,0.2c1.5,0.7,2.9,1.5,4.3,2.4l0.8,0.5l0.2,0.2
	c0.5,0.4,1,0.9,1.4,1.4c0.1,0,0.1,0.1,0.2,0.2l0.5,0.9c0.1,0.3,0.2,0.6,0.2,0.9c0.1-0.2,0.1-0.2,0.1,0.1c0,0.2,0.1,0.3,0.1,0.5h-0.1
	c0.1,0.2,0.1,0.5,0,0.7v0.3h0.1c0,0.1-0.1,0.2-0.1,0.3v0.5v0.3l-0.7,0.9l-0.7,1.4l-1.7,3.4c-8.2,18.6-7.4,39.6-2.8,59
	c0.5,2.3,1.1,4.5,1.8,6.7c0,0.2,0,0.3,0.1,0.4c0.7,5.5,0.8,11.1,0.4,16.7c-0.1,1.3-0.3,2.6-0.4,3.9c0,0.1,0,0.1-0.1,0.2
	s-0.1,0.7-0.1,1l-0.3,1.9c-4.1-2.6-9.5-0.9-12.1,2.9s-2.2,7.3-2.5,11s-0.5,4.5-0.7,6.8c-0.1,0.5-0.2,1.1-0.2,1.6
	c-0.1,0.2-0.1,0.3-0.1,0.5l-0.6,3.6c-0.8,5.2-2.2,10.2-4,15.1c-0.9,2.4,1,5.6,3.5,6.1s5.1-0.8,6.1-3.5c3.2-8.2,4.5-16.8,5.5-25.5
	l0.6-6.2c0.1-0.8,0.2-1.5,0.2-2.3l0.3,0.4c1.2,2,3.2,3.5,5.4,4.2c2.7,0.6,5.3-0.9,6.2-3.5c2.7-9.4,3.9-19.1,3.4-28.9l1.4,0.5
	l0.7,0.2l1.5,0.7c1.1,0.6,2.2,1.2,3.2,1.9l1.3,0.9l0.7,0.6c0.9,0.7,1.8,1.5,2.6,2.4l2.2,2.5l0.4,0.6l1.1,1.6
	c0.7,1.1,1.3,2.2,1.9,3.3c0.3,0.7,0.6,1.3,0.8,1.9c0.1,0,0.1,0,0.1,0.1l0.4,1.2c1,2.5,1.7,5.1,2.2,7.8l0.3,1.9c0,0.2,0,0.5,0.1,0.6
	v0.4c0.2,1.4,0.3,2.9,0.4,4.3c0.1,2.9,0.1,5.9,0,8.8c-0.3,7-1.1,14-1.5,21c0,2,1.3,3.7,3.1,4.5c1.9,0.8,4,0.4,5.5-1
	c10.7-13.1,19.4-27.6,26-43.1l0.9-2.1l0.4,0.8c0.1,0.3,0.2,0.7,0.4,1c0.1,0.2,0.2,0.5,0.3,0.7c0.6,1.3,1.1,2.7,1.6,4
	c2,5.9,3.5,12,4.5,18.1c0,0.2,0,0.4,0.1,0.6h-0.1l-0.6,0.2c-2.5,0.8-4.4,3.5-3.5,6.2c0.7,2.3,2.9,3.8,5.3,3.6
	c0.2,2.4,0.3,4.7,0.4,7.1s0.3,6.6,0.3,10c-0.1,1.6-0.1,3.3-0.2,5s-0.1,1.6-0.2,2.4s-0.1,0.7-0.1,0.9c-0.1,0.4-0.2,0.9-0.2,1.3
	c-1.3,7.8-3.9,15.3-6.4,22.7c-0.8,2.7,0.8,5.4,3.4,6.2c0,0,0,0,0.1,0c2.6,0.6,5.3-0.9,6.1-3.5c2.5-6.8,4.5-13.7,6-20.7
	c1.5-7.3,1.6-14.7,1.3-22.2c-0.1-4.9-0.4-9.8-1-14.7c3.9-3.7,6.7-8.5,9.3-13.2c5-9.1,9.6-18.3,12.5-28.3c3.1-10.3,4.4-21,3.6-31.7
	c-0.8-10.9-3.9-21.4-7.4-31.8c-1.8-5.4-3.7-10.8-5.4-16.2c6.4,6.3,12.9,12.5,19.1,19c4.7,4.9,9.2,10,13.4,15.3l0.8,1
	c0.1,0.1,0.1,0.1,0.1,0.2h0.1l1.5,2c1.1,1.4,2.1,2.9,3.1,4.4s3.6,5.4,5.2,8.3s1.8,3.3,2.6,5l1.2,2.6c0.2,0.4,0.4,0.7,0.5,1.1
	l0.3,0.6c0,0.2,0.1,0.3,0.1,0.5c0.1,1.2,0.3,2.4,0.7,3.6c0.5,1.5,1,2.9,1.7,4.3l0.3,0.8c0.1,0,0.1,0.1,0.1,0.2s0.2,0.4,0.3,0.5
	l0.3,0.9c1,4.1,7.2,5.1,9.1,1.2c3.7-5.6,5.8-12.1,6.1-18.8c0.3-5.9-0.5-11.9-2.2-17.6c-3.2-11.1-8.9-21.2-13.6-31.7l-0.9-2
	c0-0.1-0.2-0.4-0.3-0.6c-0.1-0.3-0.3-0.5-0.3-0.8c0-0.1,0-0.2-0.1-0.3c0.2-0.4,0.3-0.8,0.4-1.2l1.1,0.7l1.5,1l0.9,0.7l2.8,2.5
	c1.8,1.8,3.5,3.7,5.2,5.7c6.8,7.7,12.9,16,19.5,23.9c1.8,2,3.5,4.4,5.6,6.1c2.3,1.6,4.5,3.2,6.6,5c0.4,0.3,0.9,0.5,1.4,0.6
	c0.8,0.2,1.7,0.2,2.5,0l1-0.5c1.6-0.7,2.6-2.3,2.6-4C952.8,533.8,952.8,533.4,952.8,533.1z M363.1,592.4c0-0.1,0-0.1-0.1-0.2
	C363.1,592.3,363.1,592.3,363.1,592.4z M354.9,589.6c0,0,0,0.1-0.1,0.2C354.8,589.7,354.8,589.7,354.9,589.6z M735.9,217.7
	C735.9,217.7,735.9,217.7,735.9,217.7L735.9,217.7z M735.8,217.8C735.8,217.7,736.3,216.9,735.8,217.8L735.8,217.8z M759.8,377.6
	C760,377.9,759.9,377.8,759.8,377.6L759.8,377.6z M745.2,464.8c0-0.1,0-0.3,0-0.3c0-0.1,0.1-0.1,0.1-0.2
	C745.3,464.2,745.4,464.6,745.2,464.8z M931.8,509.9c-3.2-4.1-6.5-8.2-9.9-12.2c-3.5-4.3-7.4-8.2-11.8-11.6
	c-4.5-3.2-9.5-5.6-14.5-8.1c-0.5-0.3-1-0.5-1.5-0.7c-1.7-0.6-3.5-0.1-4.7,1.2l-0.5,0.6c-3.4-3.7-6-8-7.7-12.7
	c-1.9-5.2-2-8.7-1.9-14.2l0.3,0.3h0.1c0.1,0.2,0.3,0.3,0.5,0.4l2.6,2.1c6.8,5.4,13.2,11.2,19.4,17s12.2,11.4,17.8,17.5l4.2,4.6
	l1.9,2.3l0.9,1.2l0.2,0.2l0.3,0.4c2.4,3.2,4.6,6.6,6.6,10.1c1.1,2.1,2.2,4.3,3.1,6.4l0.3,0.7c0.1,0.1,0.1,0.2,0.1,0.3
	c0.3,0.5,0.5,1.1,0.7,1.7l0.4,1L931.8,509.9z"/>
</svg>
