<?xml version="1.0" encoding="utf-8"?>
<!-- Generator: Adobe Illustrator 24.2.3, SVG Export Plug-In . SVG Version: 6.00 Build 0)  -->
<svg version="1.1" id="e8e182c5-1608-4949-a4c3-9496c474baf1"
	 xmlns="http://www.w3.org/2000/svg" xmlns:xlink="http://www.w3.org/1999/xlink" x="0px" y="0px" viewBox="0 0 1152 864"
	 style="enable-background:new 0 0 1152 864;" xml:space="preserve">
<path d="M345,362.1c-3.6,2.6-7,5.6-10,8.8c1.5-5.6,3.7-10.9,5.5-16.3c3.3-9.8,5.3-19.9,6.2-30.1c2.9-31.9-5.9-63.9-24.8-89.8
	c-1.6-2.1-4.4-3.3-6.9-1.8s-3.4,4.6-1.8,6.9c3,4,5.7,8.2,8.2,12.5l3.4,6.5l1.5,3.3c0.3,0.5,0.5,1.1,0.8,1.6c0.1,0.3,0.2,0.6,0.4,0.9
	c0,0.1,0.1,0.1,0.1,0.2c3.7,9.1,6.4,18.6,8,28.3c0.2,1,0.4,2.1,0.5,3.1c0.1,1,0.1,0.2,0.1,0.3c0,0.3,0,0.7,0.1,1
	c0.1,0.7,0.2,1.5,0.2,2.2c0.3,2.4,0.5,4.9,0.6,7.3c0.2,5,0.2,10-0.2,15c-0.1,2.4-0.4,4.7-0.7,7.1c0,0-0.1,0.6-0.1,0.8v0.3l-0.3,1.5
	l-0.6,3.9c-1,4.8-2.2,9.6-3.7,14.3c-4,12.7-10.2,25.1-7.2,38.8c0.9,4.1,7.1,4.8,9.1,1.2c1.1-2,2.3-4,3.6-5.9l0.9-1.3l0.5-0.7
	l2.2-2.7c1.5-1.7,3.1-3.2,4.7-4.7l2.7-2.4l0.6-0.5l0.4-0.3c0.1,0,0.2-0.1,0.2-0.2l0.9-0.6c2.1-1.5,3.3-4.4,1.8-6.8
	C350.4,361.4,347.3,360.5,345,362.1z"/>
<path d="M334.3,426.2c-2.4-1.4-5.4-0.6-6.8,1.8c-9.9,13.8-17.6,29.1-22.8,45.3c-1.5,4.6-2.7,9.1-3.8,13.8c-0.5,2.5,0.8,5.5,3.5,6.1
	c2.7,0.6,5.6-0.7,6.2-3.5c1.8-8.1,4.2-15.9,7.3-23.6c0.3-0.9,0.7-1.7,1.1-2.6l0.2-0.5c0.2-0.6,0.5-1.1,0.7-1.6s1.7-3.8,2.6-5.6
	c1.8-3.7,3.8-7.4,5.9-11c2.1-3.6,5-7.9,7.7-11.7C337.6,430.9,336.5,427.3,334.3,426.2z M319,463.4
	C319.3,462.7,319.1,463.2,319,463.4L319,463.4z"/>
<path d="M421,352.9c-7.7,3.6-14.6,9-20,15.6c-1.9,1.8-2,4.9-0.2,6.8c0.1,0.1,0.1,0.1,0.2,0.2c1.8,1.7,5.3,2.2,7,0
	c2.6-3,5.4-5.7,8.5-8.2l0.5-0.4l1.1-0.8l2.6-1.7c1.7-1.1,3.5-2,5.4-2.8c2.4-1.4,3.2-4.5,1.8-6.9C426.4,352.4,423.4,351.6,421,352.9z
	"/>
<path d="M928.2,401.8c-1.8-13.4-4.5-26.8-7.8-39.9c-2.5-9.9-6.7-19.3-10.6-28.7c-2.6-6-5.1-12-7.5-18.1c-2.4-6.1-4.9-12.6-7.7-18.8
	c-10.4-22.9-26.4-43-41.6-62.9c-7.5-9.9-15-19.8-21.9-30.1c-2.4-3.6-4.5-7.4-7.1-10.8c-2.6-3.4-5-6.3-7.7-9.3
	c-5.7-6.3-11.7-12.8-18.8-17.5c-2.7-1.8-5.8-3.1-9.1-2c-3.3,1.1-7.5,4.3-10.5,7c-3.7,3.3-7.2,6.8-10.3,10.7c-3.6,4.5-6.2,9.4-9,14.5
	c-6.1,11.5-11.8,23.1-17.2,34.9c-9.7,21.5-17.8,43.7-26.1,65.8c-0.5,1.4-1.1,2.9-1.7,4.4c-0.7,1.8-1,3.7-0.9,5.6
	c0,2.3,0.1,4.6,0.1,6.9c-7.2,1.7-13.5,6.1-17.5,12.3c-7.7-4.1-15.7-7.8-23.7-11.4c-12.6-5.6-25.6-10.7-39.4-12
	c-6.3-0.6-12.6-0.1-18.7,1.4c-6,1.5-11.8,3.5-17.5,6l-4.9,2l-3.1,1.3h-0.3l-1.5,0.7c-3.4,1.4-6.7,2.8-10.2,4.1
	c-3.5,1.3-6.3,2.3-9.5,3.2l-4.7,1.1l-2.4,0.5h-1.5l-3.5-0.4c-0.4,0-2.5-0.4-0.9-0.1l-2-0.2l-8.3-1.4c-6-1-12-2.2-18.1-3.4
	c-11.4-2.2-22.8-4.7-34.2-6.6c-7-1.3-14.2-1.7-21.3-1.4c-7.5,0.3-15,1.5-22.3,3.3c-11.5,3-22.6,7.4-33,13.1
	c-3.9-6.2-10.2-10.7-17.4-12.3V309c0.1-1.6,0.2-3.1,0.1-4.7c-0.2-1.5-0.6-2.9-1.3-4.2c-1.8-4.6-3.7-9.1-5.8-13.5
	c-4.1-8.4-8.8-16.6-14-24.4c-11-16.4-24-31.3-38.6-44.5c-7.8-7-15.9-13.5-24.3-19.7l-12.4-8.8c-4.3-3-9.4-4.6-14.5-2.8
	c-5.1,1.8-8.2,5.6-10.8,9.8c-2.7,4.6-5.1,9.3-7.3,14.2c-5.2,10.6-10.1,21.4-14.7,32.3c-9.5,22-18.1,44.2-26.7,66.5
	c-8.6,22.3-17.1,44.5-22.2,67.9c-5.1,23.4-7.6,46.9-9.8,70.6c-0.9,10.7-3.2,22.6,0.1,33.1c0.2,0.8,0.5,1.6,0.8,2.3
	c0.1,1.2,0.6,2.3,1.4,3.1c0.1,0.1,0.2,0.1,0.2,0.2c4.1,6.9,10.9,11.3,17.6,15.9c7,4.4,12.6,10.7,16.2,18.1c1.7,3.6,3.2,7.4,4.3,11.3
	c1.4,4.2,2.4,8.5,3.4,12.9c2.1,8.7,3.8,17.6,6.5,26.2c2.7,8.6,6.4,17.9,13.7,23.7c3.7,3.2,8.5,5.1,13.4,5.2c6.4,0.1,6.4-9.9,0-10
	c-1.5-0.1-3-0.4-4.4-1c-1.6-0.8-3-2-4.2-3.3c-1.4-1.4-2.5-2.9-3.5-4.6c-1-1.7-2.2-4-2.8-5.3c-3.2-8.1-5.2-16.6-7.1-25
	c-3.7-16.5-7.2-34-18.7-47.1c-3-3.3-6.5-6.3-10.2-8.8L217,492c2.1-0.6,4.2-1.4,6.1-2.5c3.2-1.9,6-4.4,8.2-7.3l1.7-2.2c0,0,0,0,0,0
	c0,0,0-0.1,0.1-0.1l0.3-0.4l1.3-1.6c1.4-1.8,2.9-3.6,4.4-5.3c11.7-13.8,24.9-26.2,38-38.6c7.4-7,14.8-14,22-21.3
	c1.9-2,1.9-5.1,0-7.1c-2-1.9-5.1-1.9-7.1,0c-12.2,12.5-25.2,24.1-37.7,36.3c-6.2,6-12.3,12.2-18.1,18.7c-2.9,3.3-5.7,6.6-8.5,10.1
	l-1.8,2.3l-1.2,1.5l-0.3,0.4c-0.9,1.2-1.9,2.4-3,3.5l-1,0.9l-0.3,0.2l-0.2,0.2h0.1c-0.4,0.2-0.7,0.4-1,0.7l-1.4,0.8l-0.5,0.3
	l-0.6,0.2l-1,0.4l-1.6,0.4l-0.8,0.2H213c-0.8,0.2-1.6,0.2-2.5,0.1c0,0,0,0-0.1-0.1l-1-0.2L208,482h-0.6l-1.5-0.9l-0.5-0.3l-0.3-0.3
	c-0.4-0.8-0.7-1.7-1-2.6c-1.3-4.5-1.1-9.4-0.8-14.1c1.5-22.3,3.8-44.8,7.5-66.9c3.7-22.1,10.2-44.5,18.2-65.9
	c8-21.4,16.3-42.8,24.9-63.9c8.6-21.1,17.5-41.8,27.9-61.9c0.8-1.7,1.8-3.3,2.9-4.9c0.9-1.5,2.2-2.8,3.6-3.8c0.9-0.5,2-0.8,3-0.7
	c2,0.4,4,2,5.7,3.3c7.8,5.7,15.7,11.1,23.2,17.3c28.1,23.1,52.2,52.2,65.7,86c0.4,0.9,0.8,1.9,1.1,2.9c0.1,1.3,0.1,2.6-0.1,3.9
	c0,2.9-0.1,5.8-0.1,8.7c0,1.3,0.5,2.5,1.4,3.4c-2.2-0.9-5.2-0.3-6.3,2c-5.9,12.2-11.8,24.5-17.8,36.7c-1.1,2-0.7,4.4,0.8,6.1
	c1.5,1.4,4.3,2.1,6.1,0.8c11.7-8.8,23.4-17.6,35.9-25.3c6.1-3.8,12.3-7.3,18.8-10.4l4.9-2.3l0.9-0.3l0.5-0.2l2.9-1.2
	c3.4-1.3,6.8-2.5,10.3-3.5s6.8-1.9,10.3-2.6l5.1-0.9h1.8l2.7-0.3c3.6-0.4,7.2-0.5,10.8-0.4l4.9,0.2l2.7,0.2l1.3,0.2h0.9
	c11.2,1.7,22.2,4.2,33.3,6.4c11.1,2.2,24.8,5,37.4,6.4c0.5,0.1,1,0.2,1.5,0.1c0.5,0.1,1.1,0,1.6-0.1c5.5-0.8,11-2.2,16.2-4.1l9-3.4
	l4.2-1.8l2.2-0.9l1.2-0.5l1.1-0.5c5.7-2.4,11.5-4.8,17.4-6.7c2.7-0.9,5.5-1.6,8.3-2.1l1.9-0.4h1.4l4.7-0.2l4.3,0.2l2.4,0.3h0.3
	l1.2,0.2c3.3,0.5,6.5,1.1,9.7,2c3.1,0.8,6.2,1.9,9.3,3l4.8,1.8l2,0.8l0.8,0.4l1.1,0.5c6,2.5,11.9,5.4,17.7,8.2
	c5.8,2.8,12.4,6.1,18.4,9.6c13.8,8.2,26.7,17.9,39.6,27.6c2,1.1,4.5,0.8,6.1-0.8c1.5-1.7,1.9-4.1,0.8-6.1c-0.7-1.3-1.2-2.6-1.8-3.9
	c-0.1-0.3-0.2-0.7-0.4-1c-0.4-0.7-0.7-1.5-1-2.3c-1.3-3.2-2.4-6.4-3.6-9.7c-2.3-6.7-4.3-13.4-5.9-20.3c-0.4-1.7-0.8-3.4-1.1-5
	c-0.3-1.6-0.3-1.6-0.5-2.4s-0.1-0.7-0.1-1s-0.1-0.3-0.1-0.4v-0.2c-0.5-2.4-2.2-4.7-4.9-4.6c-1.3,0.1-2.4,0.6-3.4,1.4
	c0-1.2-0.1-2.4-0.1-3.6c0-3,1.6-6,2.6-8.8l6.3-16.7c3.9-10.4,7.9-20.8,12.1-31s9-20.6,13.9-30.6c3-6,6-12,9.1-17.9
	c1.6-3,3.2-6.1,4.9-9c0.4-0.8,0.9-1.5,1.4-2.2l0.8-1.2l0.5-0.7c0.1,0,0.2-0.2,0.2-0.3c3-3.7,6.3-7.1,9.8-10.3l2.5-2.2l0.6-0.4
	l1.1-0.8l2.1-1.3l0.3-0.2c1.1,0.6,2.2,1.3,3.2,2.1l0.6,0.5l1,0.8l2.4,2.1l4.5,4.4c3.1,3,6,6.2,8.8,9.4c1.2,1.4,2.4,2.8,3.5,4.3
	l0.5,0.5l0.4,0.6l1.1,1.5c6.1,9.3,12.2,18.6,18.9,27.5c14.7,19.7,30.5,38.9,42.9,60.3c2.9,5,5.6,10.1,8,15.4
	c2.4,5.6,4.6,11.7,6.9,17.5c4.4,10.6,9.1,21,13.1,31.7s6.2,21,8.4,31.8c2.6,13,4.4,26,5.5,39.2c0.5,6.5,0.8,13,0.8,19.4
	c0,3.3-0.1,6.5-0.2,9.7l-0.3,4.2c-0.1,0.7-0.1,1.4-0.2,2.1v0.7c-0.1,0.2-0.2,0.4-0.2,0.6c-0.6,2-1.6,3.8-2.9,5.5
	c-1.4,2-2.9,3.8-4.6,5.6c-2.7,2.7-5.1,5.6-7.4,8.7l-0.5,0.4l-0.3,0.3l-0.4,0.3l-0.6,0.4l-1.5,0.9l-0.3,0.1l-0.7,0.2l-1.4,0.4h-3.5
	c-0.5-0.1-0.9-0.2-1.4-0.4l-1.3-0.4c-0.1,0-0.1,0-0.1-0.1l-0.6-0.3l-1.5-0.9h-0.2l-1-0.9c-0.7-0.7-1.4-1.4-2-2.1
	c-1.1-1.3-2.3-2.5-3.6-3.7c-1.8-1.5-3.8-2.8-5.7-4.2l-0.4-0.3l-0.3-0.2l-1.2-1l-2.6-2.2l-4.9-4.6c-12.3-12-22-26.2-33.4-39.1
	c-5.7-6.5-12.1-12.6-19.6-17.1c-2.4-1.4-5.4-0.6-6.8,1.8c-1.4,2.4-0.6,5.4,1.8,6.8c1.6,0.9,3.1,1.9,4.5,3l0.4,0.3l1.1,0.9l2.1,1.8
	c2.9,2.6,5.7,5.4,8.3,8.3c5.8,6.4,11,13.2,16.4,19.9c5.5,7.1,11.5,13.8,17.8,20.2c3.6,3.5,7.4,6.7,11.3,9.8l2.4,1.8l1.6,1.1l0.5,0.3
	h-0.1c1.3,1.2,2.5,2.5,3.7,3.9c2.2,2.4,4.7,4.3,7.6,5.8c-1.7,0.9-3.2,2.1-4.5,3.5c-1.5,1.6-2.5,3.6-2.9,5.8c-0.5,2.9-0.1,6-0.2,8.9
	c-0.2,5.8-1,11.5-2.3,17.1c-2.7,11.1-7.3,21.7-13.5,31.3c-3.1,4.9-6.5,9.7-10.3,14.1c-3.4,4.2-6.5,8.6-9.8,12.9
	c-0.5,0.7-1,1.4-1.6,2l-1.3,1.3l-0.8,0.7c-0.3,0.3-0.7,0.5-1.1,0.7c-0.2,0.1-1.3,0.7-0.6,0.4c-0.9,0.5-1.8,0.7-2.8,0.6
	c-6.4,0.2-6.4,10.2,0,10c12-0.3,17.1-12,23.5-19.6c8.1-9.5,15.3-19.7,20.6-31c5.4-11.4,8.7-23.7,9.8-36.3c0.2-3.2,0.3-6.3,0.2-9.5
	v-1.7c0-0.1,0-0.2,0.1-0.3c0-0.1,0.1-0.1,0.1-0.2c0-0.1,0.2-0.2,0.2-0.4h0.1l0.8-0.7c0-0.1,0.1-0.1,0.1-0.2l0.3-0.2l2.6-1.5l5.6-2.7
	c4.1-1.9,8.1-4.3,10.7-8.2s5.9-7.3,9.3-11.2s7.5-8.7,8.7-14c0.6-3.1,0.9-6.2,0.9-9.4c0.2-3.2,0.3-6.4,0.3-9.6
	C931.4,429.4,930.3,415.5,928.2,401.8z M381.7,346.5c3-6,5.9-12.1,8.8-18.1c1-1.9,0.8-4.2-0.5-5.9c0.6,0.2,1.2,0.4,1.8,0.4
	c5.6,0.2,10.7,3.1,13.8,7.8C397.4,335.5,389.5,340.9,381.7,346.5z M725.4,333.9c1.2,4.4,2.9,9.4,4.6,14.1
	c-7.1-5.2-14.3-10.2-21.8-14.8c-1.3-0.9-2.7-1.7-4.1-2.5c3.1-4.7,8.2-7.6,13.8-7.8c1.7-0.1,3.3-1,4.3-2.4
	C723,325,724.2,329.5,725.4,333.9z"/>
<path d="M777.2,348.9c-1.5-2.4-2.9-4.9-4.1-7.4c-0.6-1.2-1.2-2.4-1.7-3.6l-0.9-2v0.2c-0.1-0.1-0.1-0.2-0.1-0.3
	c-0.2-0.4-0.4-0.9-0.5-1.3c-2.1-5.3-3.9-10.7-5.3-16.2c-1.3-5.5-2.4-11.1-3.2-16.7c-0.1-0.4-0.1-0.7-0.2-1.1c0-0.7-0.1-1.4-0.2-2.1
	c-0.2-1.5-0.3-2.9-0.4-4.3c-0.1-1.4-0.4-5.7-0.5-8.5c-0.2-5.4-0.2-10.7,0.1-16.1c0.1-2.6,0.3-5.2,0.6-7.8c0.1-1.1,0.2-2.2,0.4-3.4
	c0.2-1.2,0.3-2.5,0.1-0.8c0.1-0.6,0.1-1.2,0.2-1.8c0.7-4.9,1.7-9.8,3.1-14.6c0.6-2.1,1.2-4.2,2-6.2c0.2-0.5,0.4-1,0.5-1.5l0.2-0.4
	c0.4-0.8,0.7-1.6,1.1-2.5c0.4-0.9,0.7-5.5-1.7-6.8s-5.6-0.7-6.9,1.8c-3.6,7.5-6,15.5-7.3,23.7c-1.9,10.4-2.7,20.9-2.6,31.5
	c0.3,23.2,4.6,47.1,15.4,67.8c1.5,2.9,3.2,5.6,4.9,8.4c0.9,1.5,1.8,3.1,2.5,4.8l0.4,0.7c0,0.1,0.4,1,0.4,1.2
	c0.3,0.7,0.6,1.5,0.8,2.3c0.6,1.9,1.1,3.8,1.5,5.7c0.1,0.3,0.1,0.5,0.2,0.8c-3.4-3.8-7.3-7.2-11.4-10.2c-2.2-1.5-5.7-0.4-6.9,1.8
	c-1.3,2.4-0.5,5.4,1.8,6.8l1.3,1l0.7,0.5l2.6,2.3c1.7,1.6,3.3,3.2,4.8,4.9c1.5,1.7,1.5,1.7,2.2,2.5c0.1,0.2,0.2,0.5,0.4,0.7
	c0.4,0.4,0.7,0.8,1,1.3c1.4,2,2.6,4,3.7,6.1c2,3.6,8.2,3,9.1-1.2c1.5-7.1,1.5-14.5-0.2-21.6C783.7,360.6,780.7,354.7,777.2,348.9z
	 M771.2,381.9C771.5,382.3,771.4,382.3,771.2,381.9L771.2,381.9z"/>
<path d="M834.9,512.7c2.6-0.8,4.2-3.5,3.5-6.2c-2.8-16.7-8.8-32.6-17.7-47c-2.9-4.6-6.1-9-9.6-13.1c-1.9-1.9-5-2-6.9-0.1
	c0,0,0,0-0.1,0.1c-2,2.1-1.8,4.9,0,7.1l2.1,2.6l0.4,0.5c0.3,0.5,0.7,1,1.1,1.4l3.7,5.4c2.3,3.6,4.5,7.4,6.4,11.3
	c0.9,1.8,1.8,3.7,2.6,5.6c0,0.1,0.1,0.3,0.2,0.4l0.6,1.6c0.4,0.9,0.8,1.8,1.1,2.8c1.4,3.8,2.6,7.6,3.7,11.5c1.1,3.9,2,8.3,2.8,12.5
	C829.2,511.8,832.5,513.4,834.9,512.7z"/>
<path d="M731.8,383.4c-2.6-1.3-5.3-2.4-7.9-3.6c-7.7-3.4-15.3-6.7-22.8-10.3c-2.4-1.2-5.6-0.8-6.9,1.8s-0.7,5.6,1.8,6.8
	c7.1,3.4,14.3,6.6,21.6,9.8l8,3.6l2.4,1.2l0.3,0.2c0.9,1,2.2,1.5,3.5,1.5c2.7-0.1,4.9-2.3,5-5C736.6,386.2,734.3,384.7,731.8,383.4z
	 M727.8,392.3c0.1,0.1,0.1,0.1,0.1,0.2C727.9,392.6,727.9,392.4,727.8,392.3z"/>
</svg>
