<?xml version="1.0" encoding="utf-8"?>
<!-- Generator: Adobe Illustrator 24.2.3, SVG Export Plug-In . SVG Version: 6.00 Build 0)  -->
<svg version="1.1" id="baf60f91-ca33-4889-a433-8ca0f14b9b12"
	 xmlns="http://www.w3.org/2000/svg" xmlns:xlink="http://www.w3.org/1999/xlink" x="0px" y="0px" viewBox="0 0 1152 864"
	 style="enable-background:new 0 0 1152 864;" xml:space="preserve">
<path d="M547,214.5l0,0.2c-20-12.6-43.1-19.6-66.8-20.2c-6.5-0.2-13,0.2-19.4,1c-2.5,0.3-4.6,1.6-5,4.3c-0.3,2.5,1.2,4.8,3.6,5.5
	l2.1,0.8l1,0.4h0.4l4.2,2.1l3.8,2.2l1.8,1.2l1.1,0.8l0.2,0.2c-5.6-0.1-11.2,0.4-16.7,1.4c-12.8,2.5-25.4,6-37.6,10.6
	c-7.2,2.7-14.2,5.8-21.1,9.1c-2,1.1-2.9,3.5-2.3,5.7c0.7,2.1,2.6,3.6,4.8,3.7l6,0.4l2.9,0.4l1.6,0.2h0.5l11.7,2.1l2.6,0.6
	c-9.4,2.7-18.4,6.6-26.7,11.7c-14.6,8.9-26.9,21.1-36.1,35.5c-5.1,8.1-9.1,16.8-11.7,26c-0.6,2.2,0.3,4.5,2.3,5.7
	c2.1,1.1,4.2,0.6,6.1-0.8l0.5-0.4l0.9-0.7c0.7-0.5,1.4-1,2.2-1.4c1.4-1,2.9-1.9,4.4-2.8c1.5-0.9,2.9-1.5,4.4-2.2l1.1-0.5l0.7-0.3
	l2.2-0.9c2-0.7,3.9-1.4,5.9-1.9c-7.2,10.4-11,22.9-10.7,35.6c0.1,4.9,0.9,9.9,2.3,14.6c0.5,1.7,1.8,3,3.5,3.5
	c1.7,0.6,3.7,0.1,4.9-1.3c3.6-4.5,7.6-8.7,12.1-12.4l1.6-1.4c0.1-0.1,0.2-0.2,0.4-0.2c0-0.1,0.3-0.3,0.5-0.4
	c0.2-0.1,2.4-1.8,3.6-2.6c2.3-1.6,4.8-3.1,7.3-4.4l3.7-1.9c0.6-0.4,1.3-0.7,2-0.9l0.7-0.4l0.7-0.3c2.6-1.1,5.3-2,8.1-2.9
	c2.8-0.9,5.5-1.5,8.2-2.1l4.2-0.7h1l2.3-0.2l2.8-0.2c-15.5,10.6-28.6,24.4-38.4,40.4c-6.4,10.4-11.3,21.7-14.6,33.5
	c-3.6,13.4-3.9,27.4-7.7,40.8c-0.5,1.8-1.1,3.7-1.7,5.4l-0.3,0.8c-0.1,0.2-0.2,0.5-0.3,0.7l-1.1,2.3c-0.8,1.4-1.6,2.9-2.5,4.3
	l-1.5,2h-0.1c0,0.1-0.1,0.1-0.1,0.2l-0.8,0.9c-1.1,1.2-2.2,2.4-3.4,3.5l-0.8,0.7l-0.3,0.2c0,0.1,0,0.1-0.1,0.1l-2,1.4L364,474
	l-0.7,0.4h-0.7c-1.5,0.6-3,1-4.6,1.3c-2.6,0.4-4.3,3.7-3.5,6.1c0.7,2.6,3.5,4.2,6.1,3.5c12.5-2.1,22.2-12.6,27-23.8
	c5.9-13.6,6.2-28.4,9.2-42.6c1.2-5.8,2.9-11.5,4.9-17c0.5-1.4,1-2.7,1.6-4.1c0.1-0.2,0.2-0.4,0.2-0.6l0.4-0.7c0.3-0.8,0.6-1.6,1-2.3
	c1.2-2.7,2.6-5.3,4-7.9c2.8-5.3,6-10.3,9.6-15.1l1.3-1.7h0.1l0.8-1l2.9-3.6l6-6.5c2.4-2.4,4.8-4.7,7.4-6.9l3.9-3.2l0.8-0.7h0.2
	l0.3-0.2l2-1.5c5.4-4,11.2-7.5,17.2-10.5c1.8-1,2.7-3,2.4-5c-0.2-1.8-1.6-3.9-3.5-4.2c-25.1-3.5-50.6,3.4-70.5,19.1
	c-2.7,2.2-5.3,4.5-7.8,6.9v-1c-0.1-2-0.1-3.9,0-5.9c0-1,0.1-1.9,0.2-2.9c0-0.2,0.1-0.5,0.1-0.7c0.1-0.4,0.1-0.8,0.2-1.2
	c0.7-3.9,1.8-7.8,3.2-11.5c0.1,0,0.1,0,0.1-0.1c0-0.1,0.1-0.3,0.2-0.4l0.6-1.3c0.4-0.9,0.8-1.7,1.3-2.6c0.9-1.7,2-3.4,3.1-5l0.9-1.4
	c0.1,0,0.1-0.1,0.2-0.2c-0.2,0.3,0.2-0.3,0.3-0.4c0.1-0.2,1.4-1.7,2.2-2.5c1.5-1.7,3.1-3.2,4.9-4.6c3.3-2.8,0.6-8.8-3.6-8.6
	c-10.2,0.6-20.2,3.3-29.4,7.9c1.3-2.6,2.6-5.3,4.1-7.8c2-3.4,4.2-6.7,6.6-9.8l0.2-0.2c0,0,0-0.1,0.1-0.1h0.1l0.8-1.1l2.1-2.5
	l3.9-4.3c2.8-2.9,5.7-5.6,8.7-8.1l2.4-1.9l0.4-0.3l1.3-1c1.6-1.2,3.3-2.3,5-3.4c3.3-2.2,6.7-4.2,10.3-5.9l5.4-2.6l0.5-0.2l1.3-0.5
	l2.8-1.1c4.2-1.5,8.6-2.7,13-3.6c2-0.5,4.1-0.8,6.2-1.1l1-0.2h1.6l3.6-0.3c2.5-0.1,4.5-1.9,4.9-4.3c0.4-2.6-1.2-4.6-3.6-5.5
	c-9.5-3.7-19.4-6.4-29.5-8.1l0.5-0.2c5.9-2.3,11.8-4.3,17.9-6.1c6-1.8,12.1-3.3,18.3-4.5l4-0.8l2-0.3l1.1-0.2h0.3
	c2.8-0.3,5.6-0.5,8.4-0.6c1.5,0,3,0.1,4.5,0.3h0.1l1.2,0.2l2.1,0.5l2.1,0.6l1,0.4h0.3c1.5,0.7,2.9,1.5,4.2,2.4
	c4,2.8,9.5-2.8,6.8-6.9c-4.2-6.3-9.4-11.8-15.5-16.2c2.4,0,4.8,0.1,7.2,0.3l3.8,0.3l1.9,0.3h1.5c5.6,0.8,11.1,1.9,16.5,3.4
	c2.8,0.8,5.5,1.7,8.2,2.7l3.6,1.3l2,0.8l0.5,0.2l0.8,0.3c5.9,2.6,11.5,5.6,17,9c2.5,1.1,5.5,0,6.6-2.5
	C549.6,218.4,548.9,215.9,547,214.5z"/>
<path d="M294.2,436.3c0.1-0.2,0.1-0.5,0.1-0.7v-0.5c0-0.3,0.1-0.6,0.1-0.9s0.7-3.6,1.1-5.4c0.8-3.3,1.9-6.5,3.2-9.6l0.2-0.5l0.5-1.1
	l1.2-2.4c0.7-1.5,1.5-3,2.4-4.4c1.7-2.9,3.6-5.8,5.6-8.5l0.9-1.2l0.3-0.4l2-2.4c1.2-1.5,2.5-2.9,3.8-4.3c1.3-1.4,5.4-5.6,8.2-8.3
	c2-2,2-5.1,0-7.1s-5.1-2-7.1,0c-10.3,9.6-19.7,20.8-25.7,33.6c-3.2,6.7-5.4,13.8-6.5,21.1c-1.1,8.3-1.1,16.5-1.2,24.8
	c0,4.4,0,8.8-0.4,13.2l-0.3,3.2c0,0.2,0,0.5-0.1,0.7v0.5c0,0.1,0,0.1-0.1,0.2c0,0.3-0.1,0.6-0.1,0.9l-0.6,3l-0.9,3.8
	c-0.4,2.6,0.7,5.5,3.5,6.2c2.7,0.7,5.4-0.9,6.2-3.5l0.9-3.8c0-0.2,0.1-0.5,0.2-0.7l0.3-1c0.1-0.1,0.2-0.3,0.2-0.4
	c0.3-0.5,0.5-1.2,0.8-1.7c0.7-1.3,1.4-2.6,2.3-3.8c0.1,0,0.4-0.5,0.5-0.6l0.4-0.5l1.4-1.5c0.9-1.1,2-2,3.1-2.8
	c0.1-0.1,0.3-0.2,0.3-0.3l0.9-0.6l2-1.2h0.2c-1.8,14.5-2.6,29.5,2.4,43.4c1.6,4.7,3.9,9,6.8,13c1.6,2.1,4.4,3.3,6.9,1.8
	s3.4-4.6,1.8-6.9c-1.3-1.6-2.4-3.2-3.3-5c-0.5-0.8-0.9-1.7-1.3-2.6l-0.6-1.2l-0.3-0.7c-1.4-3.7-2.4-7.4-3-11.3
	c0-0.3-0.1-0.6-0.1-0.9v-0.3c-0.1-0.3-0.1-0.5-0.1-0.8c-0.2-1-0.2-2.1-0.3-3.1s-0.2-4.1-0.2-6.2c0-4.1,0.2-8.2,0.5-12.3
	c0.2-2.2,0.5-4.5,0.8-6.8s0.2-2.4,0.4-3.6c0.2-1.2,0.1-0.5,0.1-0.8v-0.3l0.3-1.5c0.2-1.8,0.1-3.4-1.3-4.8c-1.3-1.3-3.2-1.8-4.9-1.3
	c-5.7,1.2-11,3.7-15.4,7.4c0.2-7.8,0-15.7,0.7-23.6C293.9,438.1,294.1,437.2,294.2,436.3z"/>
<path d="M533.8,260.7c-15-3.3-30.7-2.6-45.3,2.1c-4.3,1.3-8.5,3.1-12.5,5.1c-2.4,1.1-3.2,4.6-1.8,6.8c1.4,2.3,4.4,3.1,6.8,1.8
	l3.2-1.5l1.1-0.5l1.3-0.5c2-0.8,4.1-1.5,6.2-2.1c2.2-0.7,4.5-1.2,6.8-1.7l3-0.6l1.7-0.3h0.8c4.5-0.5,9.1-0.7,13.6-0.5l6.5,0.6h0.8
	l1.7,0.3l3.5,0.6c2.7,0.4,5.3-1.4,5.7-4.1C537.3,263.8,536,261.6,533.8,260.7z"/>
<path d="M518.9,280c-2.7,0.3-5.3,1-7.8,2.2c-6.3,3.2-10.9,9-12.6,15.9c-0.8,2.7,0.8,5.4,3.4,6.2c0,0,0,0,0.1,0
	c2.5,0.5,5.6-0.8,6.2-3.5c0.2-1,0.4-1.9,0.8-2.8c0.5-0.9,1-1.8,1.6-2.7c0.8-1,1.8-2,2.8-2.8c0.9-0.7,1.9-1.2,2.9-1.7
	c1.2-0.5,2.4-0.8,3.7-1l-1,0.2c1.3-0.1,2.5-0.6,3.4-1.5c1-0.9,1.5-2.2,1.5-3.5c0-1.4-0.5-2.7-1.5-3.6
	C521.5,280.5,520.2,279.9,518.9,280z"/>
<path d="M959.1,440c-5.1-9.1-13.9-15.6-22.1-21.7c-6-4.5-12.9-9-18.3-14.7c12.4,0.8,25,2.2,37.1-0.6c2.6-0.7,4.2-3.5,3.5-6.1
	c-0.8-2.9-3.4-3.9-6.1-3.5c-1,0.1-1.8-0.2-2.6-1.6c-1.2-2.5-2.2-5.2-2.8-7.9c-1.7-6.8-3-14.2-7.4-19.9c-4.4-5.7-10.3-7.6-16.2-9.3
	c-3.4-1-7-1.8-10.5-2.3l1-0.2c6-0.6,12.4-0.4,17.3-4.5c4.9-4.1,7.2-13.7,7-20.9c-0.1-2.7-2.3-5.2-5-5c-11.5,0.4-22.7,2.4-34.1,3.7
	l-6,0.5h-4.6l-1.7-0.5c0,0-0.1-0.1-0.2-0.1v-0.2c-0.1-1.3,0.1-2.5,0.6-3.7c0.8-2.7,2.2-5.1,2.5-8c0.7-6.4-2.6-12.4-6.1-17.5
	c-3.5-5.1-5.2-8.2-9.4-10.8c-3.8-2.1-7.9-3.7-12.1-4.6l-4.7-1.2l4.5-0.2c4.9-0.1,9.9,0.3,14.7,1.4c3.9,0.9,7.8,2.4,10.2,4.7
	c2.4,2.3,9.7,0,8.4-4.9c-3.1-11.1-12.9-17.7-22.7-22.5s-21.4-6.6-32.7-8.7c-5.3-0.9-10.9-2-15.6-4.6c-4.7-2.6-7.3-5.9-10.1-9.7
	l-2.7-3.8c8.5,1.6,17.4,0.1,24.9-4.2c8.5-4.8,15.3-12.3,21.6-19.7c1.9-2.1,1.7-5.3-0.4-7.2c-0.9-0.8-2-1.3-3.2-1.3
	c-9.3-0.6-17.3,2.7-26.1,5c-3,0.8-6,1.2-8.9,0c-3.3-1.5-6-4.2-7.6-7.5c-2.2-3.9-3.7-8.1-6-12c-2.3-3.8-5.6-7-9.5-9.2
	c-9.1-5.3-19.9-7.3-30.3-7.1c-8.3,0.2-16.6,1.1-24.8,2.9c2.8-5,6-9.7,9.6-14.1c2.3-3,5.3-5.5,8.8-7.1c4-1.8,8.4-1.8,12.6-1.4
	c2.4,0.2,4.6-2.1,4.9-4.3c0.3-2.2-1.2-4.5-3.6-5.5c-13.8-5.8-28.3-12.9-43.6-8.5c-15.3,4.4-28.2,18-41.8,26.9c-4.7,3.2-9.7,5.9-15,8
	c4.1-10.8,4.2-22.7,0.3-33.6c-1.8-5.2-9.6-4.6-9.8,1.3c-0.2,5.9-4.2,14.8-9.5,19.8c-2.1,1.9-5,3.7-7.6,3.7s-4.4-1.6-6.5-2.4
	c-15.7-6-32.5-0.3-48,3.5c-4,0.9-7.9,2.1-11.7,3.8c-2.7,1.4-5.1,3.2-7.2,5.4c-10.2-8.9-24.8-11.4-38.1-11.2
	c-16.8,0.2-35.9,4.6-51.1-4.9c-6.2-3.9-11.4-10.1-11.6-17.7c-0.2-5.8-7.9-6.5-9.8-1.3c-3.9,11-3.8,23.1,0.5,34
	c-12.9-3.7-24.6-11.3-36.6-17c-16.3-7.5-33.9-11.2-51.9-9.7c-10.2,0.8-20.2,3.2-29.7,7.1c-2.4,0.9-4,2.8-3.6,5.4
	c0.4,2.6,2.4,4.6,4.9,4.4c16.5-1.7,33,3.7,45.4,14.8c-14.1-2.7-28.7-3.9-42.3,0.5c-10,3.3-17.4,9.6-24.5,17.1
	c-7.1,7.5-14.2,13.6-23.1,18.3c-9.6,5.1-20.1,8.2-30.9,9.1c-4.4,0.4-6.5,5.2-3.6,8.5c11.1,12.8,28.9,13.2,44.3,10.5l4.3-0.8
	c-9.1,3.9-18.1,8.3-27,12.5c-8.9,4.2-19.2,8.6-28.4,13.5c-9.2,4.9-16.9,11.2-19.7,21c-1.3,4.9,4.8,8.3,8.4,4.9
	c6.4-5.8,15.3-8,23.6-5.7c-3.2,1.7-6.1,4-8.5,6.8c-6.4,7.1-9.5,16.3-14.6,24.2c-8.5,13.3-23.9,18.6-38.8,20.8
	c-8.8,1.4-17.8,1.6-26.8,1.7c-2.7,0.1-4.9,2.3-5,5c0,11.1,10.6,17.3,20.3,19.2c4.3,0.8,9.9,0.8,15,1.8c-7.8,3.1-14.5,9.6-19.7,15.9
	s-8,10.5-12.9,14.9c-4.9,4.4-9.7,7.2-15.6,6.3c-2.6-0.4-5.3,0.7-6.1,3.5c-0.8,2.7,0.8,5.4,3.4,6.2c0,0,0,0,0.1,0
	c9.6,2.3,19.4,3.7,29.3,4.2c-15.3,30.8-26.4,65.9-11.9,99.1c3.7,8.6,9.2,16.3,16.2,22.6c3.5,3.1,10.1,0.2,8.4-4.8
	c-1.7-5.3-1.6-11.1,0.5-16.3c6,34.9,23.5,66.7,39.1,98.2c5.3,10.8,10.7,21.6,16.1,32.5c0.8,1.5,2.4,2.4,4.1,2.4
	c2.2,14.9,8,29.2,19.5,39.3c7,6.4,15.9,10.3,25.4,11.1c3.1,0.3,5.7-3.4,4.8-6.3c-3.4-10.2-3.9-21.1-1.4-31.5
	c12,24.3,31.5,44.2,55.6,56.6c7.9,4.1,16.3,7.3,24.9,9.6c4.8,1.3,8.3-4.8,4.8-8.3c-7.4-7.7-11.3-18.1-10.6-28.8
	c0.3-6.4-9.7-6.4-10,0c-0.4,7.9,1.1,15.7,4.5,22.8c-22.1-9.1-40.9-24.7-53.8-44.8c-4.5-6.9-8.2-14.3-11-22c-1.4-3.6-7.1-5.4-9.2-1.2
	c-6.3,13.2-8.3,28.1-5.5,42.5C293,679,284.5,669,280,658.6c-7.2-16.7-5.5-36-4.1-53.7c0.9-11.3,1.8-22.6,2.6-33.9
	c0-2.5-1.8-4.6-4.3-5c-2.6-0.3-4.5,1.2-5.5,3.6c-5.6,14.3-8.6,29.5-9,44.9c-5.6-11.2-11.2-22.5-16.7-33.8
	c-8.3-16.8-16.3-33.8-21.8-51.8c-3.2-10.1-5.3-20.6-6.2-31.2c-0.1-2.8-2.5-5-5.3-4.9c-1.2,0-2.4,0.5-3.3,1.4c-5.9,5-9.8,12-11,19.6
	c-5.5-8.5-9-18.1-10.2-28.2c-2.2-16.9,1.5-33.9,7.5-49.7c3.7-9.7,8.1-19,13.1-28.1c1.4-2.5,0.5-5.6-1.9-6.9
	c-0.7-0.4-1.5-0.6-2.4-0.7c-5.2,0-10.2-0.3-15.3-0.8c4.4-3.4,8.3-7.4,11.7-11.8c7-8.7,17.2-23.9,30.4-19.8c4.4,1.4,7.6-3.6,5.7-7.3
	c-5.1-9.5-16.2-11.3-25.8-12.3c-4.5-0.4-12.8-1.4-16.6-5.3c13.5-0.4,27.3-1.5,39.9-6.2c7.4-2.6,14.2-6.7,20-12
	c6.6-6.3,10.3-14.4,14.5-22.3c4.2-7.9,10.4-17.4,19.8-16.1c2.2,0.3,4.4-0.2,5.6-2.3c1.1-2,0.8-4.4-0.8-6c-7-6.6-16.4-9.9-26-9.2
	l1-0.6c8.5-4.6,17.5-8.4,26.2-12.5c17.9-8.4,36.1-18.9,55.8-22c11.3-1.8,23-0.4,34.2,1.7c2.7,0.6,5.5-1.1,6.1-3.9
	c0.4-1.6-0.1-3.3-1.2-4.5c-11.1-12.8-28.9-13.2-44.3-10.5c-15.4,2.7-30.2,9.4-46.2,9c-4.1,0-8.2-0.8-12.1-2.3
	c15.1-3.4,29-10.5,40.6-20.7c7.5-6.7,13.4-15.3,22.5-20c9.1-4.7,16.7-5,25.3-4.7c10.8,0.3,21.4,2.7,31.9,5.2c4,1,8.2-3.5,5.6-7.3
	c-8.5-12.8-21-22.3-35.5-27.2c8.2-0.9,16.5-0.5,24.6,0.9c8.2,1.5,16.2,4.2,23.8,7.8c7.6,3.6,15,7.8,22.6,11.3
	c7.6,3.5,17.7,7.4,27.5,8.4c3.7,0.5,6.3-4.5,4.3-7.5c-3.7-5.4-6-11.7-6.7-18.2c5.9,6.5,13.6,11.1,22.2,13.1
	c18.4,4.4,37.2-1.7,55.7,1.5c8.4,1.4,16.3,4.6,21.9,11.3c2,1.9,5,1.9,7,0c2.6-3.1,5.3-6,8.9-7.8c3.6-1.8,6.6-2,9.8-2.8
	c9.8-2.5,19.3-5.6,29.5-5.5c2.9-0.1,5.9,0.3,8.7,1l3.2,0.9l0.9,0.4l1.2,0.5c8,3.8,15.9,1.3,22.3-4.6c1.6-1.5,3.1-3.2,4.4-4.9
	c-1,5.4-3.1,10.6-6.3,15.1c-2,3,0.6,8,4.4,7.5c16.7-1.8,30.1-11.5,43.1-21.5c11.4-8.7,23.8-19.6,39.3-16.5c2.7,0.6,5.4,1.4,8.1,2.3
	c-3.6,1.8-6.9,4.2-9.6,7.2c-7.3,8.1-12.2,18.2-18,27.3c-2.5,3.8,1.6,8.3,5.6,7.3c18.8-4.5,41.7-9.9,59.4,0.8
	c7.4,4.4,8.6,13.4,13.2,20.1s13.3,11.4,22,10.2c4.4-0.6,8.4-2.2,12.6-3.4l2.5-0.7c-3.5,3.6-7.6,6.6-12,8.9
	c-8.4,4.4-16.7,2.7-25.3-0.4l-8.2-3.3c-1.6-1-3.3-1.9-5-2.7c-4.8-2.1-9.9-3.3-15.1-3.6c-8.8-1.4-17.2-0.1-23.9,7.6
	c-1.8,1.8-1.9,4.5-0.4,6.5c1.4,1.8,4.4,2.9,6.4,1.3c4.9-3.6,10.8-5.5,16.8-5.5c2,0.4,3.9,0.9,5.9,1.5c3.6,1.1,7.2,2.4,10.7,3.9
	c6.2,4.3,10.1,10.7,14.7,16.9c2.8,3.9,6.2,7.4,10,10.3c4.2,3,9.4,4.8,14.4,6.1c10.3,2.5,21.2,2.9,31.3,6.5c4,1.5,7.9,3.4,11.5,5.7
	c-3.9-0.5-7.8-0.7-11.7-0.6c-10.8,0.2-23.8,2-32,9.8c-4,3.7,0.3,9.1,4.9,8.3c-1.5,0.3,0.8,0,1.1,0h2.6l6.1,0.4
	c4.6,0.4,9.1,1.2,13.5,2.3c3.9,0.9,7.7,1.9,11.1,4l0.8,0.5l0.3,0.3l0.2,0.2c0,0,1.1,1.4,1.1,1.4c1.9,2.7,3.8,5.3,5.5,8
	s2.8,4.9,2.7,7.6s-1.5,4.5-2.1,6.7s-1.8,7.8,0,11.3c3.3,6.7,12.1,6.5,18.4,6c10.7-1,21.2-2.9,31.9-3.7c-0.4,4.2-1.8,8.4-6.1,9.3
	c-4.3,0.9-10,1-14.9,1.7c-6.3,0.7-12.5,1.9-18.5,3.8c-4.8,1.5-10.5,3.8-13,8.5s1.3,8.8,5.6,7.4c4.3-1.4,11.5-1.9,17.7-1.7
	c7.4,0.1,14.8,1.2,21.9,3.2c2.8,0.7,5.6,1.9,8.1,3.3c1.9,1.1,3.5,2.8,4.3,4.8c3,5.7,3.5,12.6,5.6,18.7c0.3,1.2,0.8,2.3,1.4,3.4
	c-3.3,0-6.5-0.1-9.7-0.3c-7.6-0.3-15.1-1-22.7-1c-2.8,0-5,2.3-5,5c0,0.9,0.2,1.7,0.7,2.5c9.7,17.8,30.8,24.9,43.4,40.1
	c5.7,7,5.7,14.3,5.4,23.1c-0.4,10.8-2.1,21.5-5.1,31.9c-1.5,5.8-3.7,11.5-6.4,16.9c-0.3-4-0.8-8-1.4-12.1c-1.7-11.6-4-23.5-8.1-34.6
	c-1.5-4.2-3.3-9.3-6.8-12.2s-9-1.2-8.5,3.5c2.4,27.4,8.3,54.4,6.2,82c-2,25.4-12.1,47.2-26.8,67.8c-5.2,7.4-11.2,14.8-18.3,20.8
	c1.6-11.1,2.7-22.3,3.2-33.6c0.6-14.6,0.8-30.8-4.6-44.7c-2.3-5.9-11.2-3.7-9.7,2.7c0.2,0.7,0.2,1.5,0.2,0.3c0,0.6,0.1,1.1,0.1,1.7
	s0,2.9,0,4.3s-0.2,3.4-0.4,5.1s-0.4,3.2-0.7,5.4c-1.5,9.9-3.6,19.8-6,29.5s-4.9,19.1-7.8,28.5c-0.2-9-1.7-18-4.3-26.6
	c-2.1-6.5-5.1-13-10-17.8c-2.9-2.8-7.1-1.3-8.4,2.2c-7.2,20.1-12.8,40.8-19.7,60.9c-7.7,22.2-16.1,45.4-30,64.5
	c-1.8,2.4-3.7,4.8-5.8,7c0.4-1.4,0.8-2.7,1.1-4c2.1-7.9,3.5-16.3,3-24.4c-0.3-6.4-10.3-6.4-10,0c0.3,7-0.6,14.1-2.4,20.9
	c-1.6,6.3-3.8,13.5-8.4,18.3s0,9.6,4.8,8.3c8.9-2.4,16.2-8.6,22-15.5c7.4-8.8,13.1-18.9,18.1-29.2c11.1-23.1,19-47.6,26.6-72
	c2.4-7.5,4.6-15.1,7.1-22.5c0.6,1.4,1.2,2.8,1.7,4.2c2,5.8,3.3,11.8,3.9,17.9c1.3,12.5,0.9,25.7-2.9,37.7c-0.7,2.6-1.8,5-3.1,7.3
	l-1.1,1.7c-0.2,0.3-0.4,0.5-0.5,0.8h-0.1l-1.2,1.3c-0.3,0.3-1.6,1.4-0.8,0.8c-3.9,3-2.7,8.9,2.5,9.3s10.6-6.9,13-11.5
	c4.6-8.4,8-17.6,11.1-26.6c5-14.4,9.2-29.1,12.6-43.9c-0.8,13.8-2.3,27.5-4.5,41.1c-0.7,4.1,3.3,8,7.3,5.7
	c10.8-6.2,19.4-15.6,26.9-25.3c7.4-9.6,13.9-19.9,19.3-30.8c8.7-17.4,12.5-35.9,13.2-54.9c2,1.3,4.7,1.2,6.5-0.4
	c8-7.1,12.8-17.4,16.2-27.4c3.7-11.4,6-23.2,6.9-35.1C963.4,459.5,964,448.8,959.1,440z M870.8,294.3h0.2
	C871.4,294.7,871,294.4,870.8,294.3z M887.6,325.6L887.6,325.6C887.6,325.6,887.6,325.5,887.6,325.6
	C888,325.6,887.8,325.7,887.6,325.6z"/>
<path d="M770.4,466.6l0.3,0.8c0.3,0.6,0.5,1.2,0.7,1.8c0.5,1.1,0.9,2.2,1.2,3.4c0.7,2.1,1.3,4.2,1.7,6.4l0.3,1.4v0.3
	c0.3,2.6,2.1,5.1,5,5c2.9-0.1,5.3-2.2,5-5c-1.2-10.6-5.8-20.6-10.8-30c-6.5-12-13.8-23.5-21.7-34.6c-8.7-12.4-17.9-24.5-27.3-36.4
	c-8.2-10.4-16.5-20.6-25-30.7l-10.9-13.1h0.6l1.1,0.2l4.4,1l4.4,1.4l1.8,0.7l0.7,0.3l1,0.5c2.8,1.3,5.6,2.7,8.3,4.3
	c2.8,1.7,5.6,3.6,8.3,5.6l1.7,1.3h0.2c0,0.1,0.1,0.1,0.2,0.1c0.3,0.3,0.6,0.6,1,0.8l3.9,3.3c5.1,4.4,9.9,9.1,14.5,14
	c4.8,5.2,9.4,10.6,13.7,16.1c1.1,1.4,3.3,1.7,4.9,1.3c1.7-0.5,3-1.8,3.5-3.5c1.4-5.2,2.2-10.5,2.4-15.8c0.3-6.2,0.1-12.4-0.4-18.6
	c-1.2-13.2-3.7-26.6-9.1-38.9l-0.6-1.3c1.7,1,3.4,2,5,3.1l2.2,1.6l1,0.8l0.6,0.4l4.3,3.5l8.5,7c1.8,1.3,4.1,2.1,6.1,0.8
	c1.9-1.2,2.9-3.5,2.3-5.7c-4.8-16.1-13.9-30.4-26.5-41.5c-12.9-11.3-28.1-19.6-44.5-24.4l-0.7-0.2c8-0.7,16-0.9,24-1.4
	c2.2,0,4.2-1.5,4.8-3.6c0.5-2.1-0.2-4.7-2.3-5.7c-12.3-6.1-23.6-14-35.8-20.2c-6.1-3.3-12.6-5.9-19.3-7.8l-2.3-0.5l1.8-0.9l2.3-1
	l0.7-0.2l1.1-0.5l4.4-1.6c2.4-0.7,3.9-3,3.6-5.5c-0.4-2.7-2.4-4-5-4.3c-0.3,0-0.4-0.1-0.5-0.1h-0.8l-2.1-0.3l-4.1-0.7l-7.7-1.4
	c-4.9-0.8-9.7-1.7-14.6-2.4c-9.8-1.3-19.7-1.7-29.4,1c-5.9,1.6-11.5,4.2-16.6,7.5c-2.2,1.4-3.3,4.5-1.8,6.8c1.5,2.3,4.5,3.3,6.8,1.8
	c2.3-1.4,4.7-2.7,7.1-3.9l1.3-0.6l1.2-0.5l3.5-1.1c2.2-0.6,4.4-1.1,6.6-1.4c0.3-0.1,1.1-0.3,1-0.2c0.4-0.1,0.9-0.1,1.3-0.1l3.4-0.2
	c4.5-0.1,9,0.1,13.4,0.7h0.7l1.8,0.3l3.7,0.6l7.3,1.3h0.8l-3,1.5c-7.1,3.6-13.9,7.9-20.2,12.8c-2.9,2.3-5.5,5-7.7,8.1
	c-1.2,2-0.8,4.5,0.8,6.1c1.5,1.4,4.2,2.1,6,0.8c5.2-3.7,10.5-7.5,16.2-10.3l1.3-0.6h0.2l2.3-0.8l4.5-1.2h4.4l2.4,0.5
	c3.1,0.7,6.1,1.7,9.1,2.9l1.1,0.4l0.4,0.2l1.9,0.8l4.6,2.2c6,3,11.9,6.5,17.7,9.9l4,2.4l-8.8,0.6c-8.9,0.9-18.1,2.1-26.5,5.3
	c-2.4,0.9-4,2.9-3.6,5.5c0.3,2.4,2.4,4.3,4.9,4.3l5.9,0.5l1.6,0.2h0.5l3,0.4c4,0.7,8,1.5,11.9,2.6c3.8,1,7.6,2.3,11.3,3.7l2.8,1.1
	l0.8,0.3l1.1,0.5l5.5,2.6c3.5,1.8,6.9,3.8,10.2,5.9l5,3.4l1.1,0.9h0.1c0,0.1,0,0.1,0.1,0.1l0.1,0.1c0,0,0,0,0,0l2.4,2
	c3,2.5,5.8,5.1,8.4,7.9l4,4.5c0.2,0.4,0.5,0.8,0.8,1.1l0.3,0.4h0.1c0.6,0.7,1.1,1.5,1.7,2.3s2.2,3.2,3.2,4.9
	c-7.5-5.5-15.7-10-25.2-10.7c-4.2-0.2-6.9,5.8-3.6,8.6c0.8,0.7,1.6,1.4,2.3,2.2l0.9,1.1l0.5,0.6c1.4,2.1,2.6,4.2,3.7,6.5
	c0.3,0.6,0.6,1.2,0.8,1.8h0.1l0.4,1l1.5,4c0.9,2.9,1.8,5.8,2.5,8.8s1.4,6.2,1.9,9.3c0.3,1.6,0.6,3.1,0.7,4.7v0.3
	c0.1,0.4,0.1,0.8,0.2,1.2l0.3,2.4c0.6,6.1,0.9,12.3,0.7,18.4l-0.3,4.7v0.5c-6.4-7.6-13.3-14.6-20.7-21.2
	c-10.4-9.1-22.1-17.3-35.5-21.4c-7.1-2.2-14.6-2.8-22-1.8c-1.7,0.5-3,1.8-3.5,3.5c-0.4,1.7,0,3.6,1.3,4.9c4.9,6.1,10,12.1,15,18.1
	c8.2,9.7,16.2,19.5,24.1,29.4l6.7,8.4l1.6,2.1c0.3,0.3,0.6,0.7,0.8,1.1c0.2,0.1,0.3,0.3,0.4,0.5c0,0,0.2,0.2,0.3,0.3
	c0.2,0.2,0.4,0.4,0.4,0.5c0.2,0.4,0.5,0.8,0.8,1.1l1.8,2.4c4.5,5.8,8.9,11.8,13.2,17.8c8.2,11.2,15.7,22.8,22.6,34.8
	C765.5,455.8,768.1,461.2,770.4,466.6z"/>
<path d="M827.1,500.4c-2,4.7-4.5,9.1-7.6,13.2c-1.6,2.1-0.4,5.7,1.8,6.9s5.1,0.4,6.8-1.8c6.1-8.1,10.1-17.9,13.2-27.5
	c3.4-10.6,5.6-21.7,6.4-32.8c0-0.5,0-1.1,0.1-1.6c0,0.2,0.1,0.3,0.1,0.5c2.3,6.6,3.4,13.6,4.3,20.6c0.1,0.4,0.2,0.9,0.2,1.3v0.6
	c0.1,1.1,0.3,2.1,0.4,3.2c0.1,1.1,0.4,3,0.7,4.5s3.3,3.9,5.5,3.6c2.4-0.3,4.3-2.4,4.3-4.9c-0.6-15.5,3.8-30.9,2.1-46.5
	c-1-8-3.4-15.8-7.3-22.9c-3.7-6.7-8.1-13-13.2-18.8c-5.5-6.4-11.4-12.4-17.6-18c-2.1-1.8-5.3-1.5-7,0.6c-1.6,1.9-1.6,4.6,0,6.5
	c5.3,4.9,10.5,10,15.3,15.4c1.3,1.4,2.5,2.8,3.6,4.2l1.6,2l0.7,0.8l0.6,0.8c2.1,2.9,4.1,5.9,5.9,8.9s1.8,3.2,2.6,4.8
	c0.4,0.8,0.8,1.6,1.1,2.4c0.1,0.2,0.2,0.4,0.3,0.6l0.4,1c1.4,3.5,2.4,7.1,3,10.8v0.4c0.1,0.5,0.1,1,0.2,1.5s0.1,1.9,0.2,2.9
	s0.1,3.8,0.1,5.7c0,0.3,0,0.5-0.1,0.8c-0.7-1.8-1.7-3.5-2.8-5.1c-2.3-3.2-5.4-6-9.3-6.7c-1.7-0.5-3.6,0-4.9,1.3
	c-1.4,1.3-1.5,3-1.3,4.8c-0.2-1.8,0,0.3,0.1,0.7s0.1,1,0.1,1.4c0,0.4,0.1,2.3,0.2,3.4c0.1,1.1,0,4.8-0.1,7.1c-0.1,2.3-0.4,5-0.7,7.5
	c0,0.3-0.1,0.6-0.1,0.8l-0.3,1.8c-0.2,1.3-0.4,2.7-0.7,4c-0.9,5.3-2.2,10.5-3.8,15.6c-0.8,2.5-1.6,4.9-2.5,7.4s-0.9,2.4-1.4,3.6
	l-0.2,0.5c0,0.1,0,0.2-0.1,0.3L827.1,500.4z"/>
<path d="M645.7,248c-7.1-6.9-15.7-12.6-25.9-13.4c-6.1-0.5-12.1,1.3-17.5,4.1c-2.5,1.1-3.6,4.1-2.5,6.6s4.1,3.6,6.6,2.5
	c0.3-0.1,0.6-0.3,0.9-0.5l1.7-0.8h0.2l0.6-0.2l3.6-1.2l1.6-0.3h5.8l3,0.7l2.1,0.8h0.6l0.5,0.2l1.6,0.8c1.8,1,3.6,2.2,5.3,3.4
	l0.4,0.4l1.2,1l2.6,2.3c3.1,3.1,6,6.4,8.8,9.8l0.5,0.8l1.2,1.4l1.9,2.7c1.4,1.8,2.7,3.7,4,5.5s4.4,3.4,6.8,1.8
	c2.4-1.6,3.5-4.6,1.8-6.8C657.7,262.2,652.3,254.5,645.7,248z"/>
<path d="M647.7,283.5c-2-2.7-4.3-5.2-6.9-7.4c-5-4.2-10.7-8-17.2-8.9c-1.3,0-2.6,0.5-3.5,1.4c-1,0.9-1.5,2.2-1.5,3.6
	c0,1.3,0.5,2.6,1.5,3.5c1,0.9,2.2,1.4,3.5,1.5c-2.1-0.3-0.2,0,0.4,0.2l1.4,0.5l0.8,0.3l1.7,0.9c1.2,0.7,2.3,1.5,3.4,2.3l0.8,0.5
	c0.1,0,0.1,0.1,0.2,0.2l1.6,1.3c1.1,0.9,2.1,1.9,3.1,2.9l1.4,1.5l0.8,0.9h-0.1c0.1,0.1,0.1,0.1,0.1,0.2l0.3,0.4
	c0.5,0.8,1.1,1.5,1.5,2.3c0.1,0.2,0.2,0.5,0.4,0.7l0.4,1.3c0.7,2.6,3.3,4.2,6,3.5h0.1c2.6-0.7,4.2-3.5,3.5-6.1
	C650.7,288.3,649.4,285.7,647.7,283.5z"/>
</svg>
