<?xml version="1.0" encoding="utf-8"?>
<!-- Generator: Adobe Illustrator 24.2.3, SVG Export Plug-In . SVG Version: 6.00 Build 0)  -->
<svg version="1.1" id="b1a6491d-21e0-4528-9cc3-c8439b93d1e0"
	 xmlns="http://www.w3.org/2000/svg" xmlns:xlink="http://www.w3.org/1999/xlink" x="0px" y="0px" viewBox="0 0 1152 864"
	 style="enable-background:new 0 0 1152 864;" xml:space="preserve">
<path d="M467.7,318.4c-12.5-6.1-26.2-9.6-40.1-10.2c-4.3-0.2-6.7,5.7-3.6,8.6c2.1,1.9,4.1,4,6,6.2c0.4,0.5,0.9,1,1.3,1.6h0.1v0.2
	l0.6,0.8c0.9,1.1,1.7,2.3,2.5,3.5s2.4,4.1,3.4,6.2c-21.1-4.9-42.9-6.3-64.4-4.1c-7.3,0.8-14.5,1.9-21.6,3.5
	c-2.2,0.6-3.7,2.5-3.7,4.8c0,2.2,1.5,4.2,3.7,4.8c8.1,2.3,16.2,4.9,24.1,7.8l11.9,4.7l0.5,0.2l1.5,0.7l3,1.3l5.7,2.6l0.5,0.2
	c-8.4,2.3-16.5,5.4-24.3,9.3c-1.7,1.1-2.6,3-2.4,5c0.3,1.9,1.7,3.5,3.6,4.1l1.4,0.4l0.6,0.3c0.6,0.2,1.3,0.6,1.8,0.9l1.1,0.8h0.2
	l1.9,1.8l0.9,1c0.1,0.1,0.1,0.1,0.1,0.2l0.4,0.5c-21.3,2.2-42.3,7.4-62.2,15.4c-6.5,2.6-12.8,5.5-19,8.7c-2.4,1.1-3.2,4.6-1.8,6.8
	c1.4,2.4,4.4,3.2,6.8,1.8l7.8-3.8l3.7-1.7l2.1-0.9l0.5-0.2l0.8-0.3c5.3-2.3,10.8-4.3,16.3-6c10.9-3.6,22.1-6.4,33.5-8.3l5-0.7h1.4
	l2.2-0.3l10-1c2.8,0,5-2.3,5-5c0-0.4-0.1-0.9-0.2-1.3c-1.1-5.2-3.8-9.9-7.9-13.3c2.8-1.1,5.6-2.1,8.4-3c6.1-2,12.3-3.4,18.6-4.4
	c1.9-0.3,3.3-2.4,3.6-4.2c0.2-2-0.7-3.9-2.4-4.9c-13.5-7.1-27.4-13.2-41.8-18.3c5-0.5,10-0.8,15-0.9c6-0.1,12.1,0.1,18,0.5
	c3.1,0.2,6.1,0.5,9.1,0.9h2.4l0.9,0.2l4.6,0.7c6.8,1.2,13.5,2.7,20.1,4.6c3.6,1,7.3-2.5,6.1-6.1c-2.4-7.7-6.2-15-11-21.5l5.5,1.3
	c3,0.7,6,1.6,8.9,2.7l4.2,1.6l0.8,0.3l0.8,0.4l2.5,1.1c2.3,1.2,5.5,0.8,6.8-1.7S470.2,319.6,467.7,318.4z"/>
<path d="M369.8,276.4l1.7,0.6l1,0.4c2.4,1.1,4.7,2.3,6.9,3.7l1.4,1l0.8,0.6c0.2,0.1,0.4,0.2,0.5,0.4l0.4,0.3l0.8,0.6l1.3,1.2
	c2,1.8,3.8,3.7,5.4,5.8c1.6,2.1,5.4,1.9,7.1,0c1.7-1.9,1.7-4.8,0-7c-7.2-9.1-17.2-15.5-28.4-18.3c-2.7-0.7-5.4,0.8-6.2,3.5
	c-0.6,2.6,0.9,5.3,3.5,6.1L369.8,276.4z"/>
<path d="M316.6,301.4c-2.4,1.4-3.1,4.5-1.6,6.9c1.4,2.3,4.4,3.1,6.7,1.7l3.2-1.5l1.1-0.5l0.9-0.3c2-0.8,4.1-1.6,6.2-2.2
	c4.3-1.3,8.7-2.3,13.1-3h0.6l1.7-0.2l3.3-0.2c2.2-0.2,4.4-0.2,6.6-0.2s4.4,0.1,6.6,0.3l2.9,0.4h1.2l1.7,0.3c2.6,0.5,5.5-0.7,6.2-3.5
	s-0.8-5.6-3.5-6.1C354.2,289.9,334.2,292.7,316.6,301.4z"/>
<path d="M297.2,361.5c2,1.9,5.1,1.9,7.1,0l1.1-0.9l0.5-0.4c0.1-0.1,0.2-0.1,0.2-0.2c-0.1,0.1-0.2,0.1-0.4,0.3
	c0.7-0.6,1.5-1.1,2.3-1.6c1.6-1,3.3-1.9,5-2.7h0.4l1.3-0.5l2.7-0.8l2.7-0.7l1.3-0.2h0.5c1.3-0.1,2.6-0.6,3.6-1.5
	c0.9-1,1.4-2.2,1.4-3.5c-0.1-2.5-2.2-5.3-5-5c-9.2,0.9-17.8,4.7-24.7,10.8C295.3,356.5,295.3,359.6,297.2,361.5z"/>
<path d="M316.7,440.5c-16,5.5-30.6,14.5-42.6,26.5c-1.9,2-1.9,5.1,0.1,7.1c0.6,0.6,1.3,1,2.1,1.2l6,1.8l2.5,1l1.7,0.6h0.5l5.2,2.5
	l-1.8,1.1l-4.3,2.2h-0.3l-1,0.4l-2.5,0.9c-6.9,2.5-13.7,5-19.6,9.5c-3.8,3-7.3,6.2-10.6,9.7c-2.1,1.8-2.4,4.9-0.6,7s4.9,2.4,7,0.6
	c0.2-0.2,0.4-0.3,0.5-0.5c2.8-2.9,5.7-5.7,8.8-8.3l0.3-0.2c0.1,0,0.2-0.1,0.2-0.2l1.2-0.8l2.5-1.7l4.9-2.5h0.3l1.1-0.5l2.4-0.8
	l4.7-1.7c3.4-1.2,6.6-2.7,9.8-4.3c3.7-2.1,6.8-5,9.2-8.5c1.6-2.3,0.4-5.5-1.8-6.9c-4.9-3-10-5.5-15.4-7.5l2.6-2.2l1-0.7l0.7-0.6
	l2.4-1.7l4.9-3.3c3.4-2.1,6.8-3.9,10.4-5.6l2.6-1.3l1.2-0.5l0.7-0.3l5.6-2.1c2.6-0.8,4.1-3.5,3.5-6.1
	C322.1,441.5,319.4,439.6,316.7,440.5z M293,480.8l-0.3,0.3h-0.1C293,480.7,293.1,480.7,293,480.8z"/>
<path d="M799.9,414.4c1.8-1.8,2.2-5.2,0-7c-9.1-7.7-19.4-13.8-30.6-18c-11.6-4.3-23.8-6.8-36.1-7.6c-3.2-0.2-6.4-0.3-9.6-0.3
	c2.1-1.2,4.2-2.3,6.3-3.3l3.8-1.8l0.6-0.2h0.2l1.8-0.7c2.1-0.8,4.2-1.6,6.3-2.2c1.9-0.6,3.3-2.2,3.6-4.2c0.2-1.8-0.6-4.1-2.4-4.9
	c-6.4-3.2-13.5-4.4-20.5-5.3c-7-0.9-15.4-1.7-23.1-2.5c2.9-2,5.9-3.9,9-5.6c1.8-1,3.7-1.9,5.5-2.7h0.5l1.3-0.5l3.1-1.2
	c4.2-1.4,8.6-2.6,13-3.4l4.1-0.7l0.8-0.2h0.4l1.9-0.3l9.1-0.7c2.5,0,4.6-1.9,4.9-4.3c0.4-2.6-1.2-4.6-3.6-5.5
	c-24.1-8.8-50.4-9.5-75.3-3.5c-3.4,0.9-6.7,1.8-10.1,2.9c0.9-1.7,1.8-3.3,2.9-4.9c0.7-1.2,1.5-2.3,2.3-3.4l0.7-1
	c0-0.1,0-0.1,0.1-0.1c0.4-0.6,0.8-1.1,1.3-1.6c1.9-2.3,3.9-4.4,6.1-6.4c3.1-2.9,0.7-8.7-3.6-8.5l-5.3-0.3h-1.8l-2.6-0.4l-11.8-2.3
	c-8.1-1.4-16.5-2.2-24.2,1.4c-2.3,1.1-3.1,4.7-1.8,6.9c1.5,2.3,4.5,3.1,6.9,1.8c0.1-0.1,0.2-0.1,0.2-0.2h0.1l1.2-0.4l2.2-0.5h4.1
	c1.8,0,3.6,0.2,5.4,0.4h0.5l1.5,0.3l2.8,0.5l12,2.3c-5.8,7.1-10.2,15.2-12.9,24c-1.1,3.4,2.6,7.6,6.1,6.1c5.8-2.3,11.7-4.3,17.7-5.8
	c3-0.8,5.9-1.5,9-2.1l4.5-0.8l2-0.3h1.6c6-0.8,12.1-1.1,18.2-1c3,0.1,6,0.3,9,0.6l2.3,0.2h2.1c-10.1,2.6-19.7,6.9-28.2,12.9
	c-3.9,2.7-7.5,5.7-10.9,9c-2.5,2.4-1.6,7.8,2.2,8.3c7,1.1,14.1,1.6,21.2,2.2l11.9,1.3h1.9l2.9,0.4l1,0.2c-5.4,2.5-10.8,5.4-15.2,9.4
	c-2,1.8-4,4.2-4.6,7s1.4,6.5,4.8,6.3c6.6-0.5,13.2-0.6,19.8-0.2c3.1,0.1,6.2,0.4,9.3,0.8h1.2l2.2,0.3l4.5,0.8
	c5.7,1.1,11.2,2.6,16.7,4.5l3.8,1.4l1.7,0.7h0.1l1.3,0.5l7.3,3.7c2.7,1.5,5.3,3.1,7.8,4.8l3.7,2.7l1,0.8l1.9,1.5
	C794.9,416.1,798,416.5,799.9,414.4z"/>
<path d="M1042.3,594.2c-2.8-12.1-13.7-19-24.8-22.6c-5.5-1.7-11.1-3-16.8-3.9c-5.8-1.1-11.5-2.7-17-4.9l-0.9-0.3l-1.7-0.8l-3.6-1.8
	c-2-1.1-4-2.3-5.9-3.6l-1.3-1c-0.3-0.2-1.8-1.4-0.5-0.3l-2.5-2.1c-1.5-1.3-2.9-2.7-4.3-4.2c-1.3-1.3-2.4-2.8-3.6-4.2l-0.2-0.2
	c-0.2-0.4-0.5-0.8-0.8-1.1l-1.5-2.3c-1.8-2.7-3.4-5.4-4.9-8.2s-2.9-6-4.6-8.8l1.8-0.4h1.1l2.4-0.2l4.9-0.2
	c6.6,0.1,13.2,0.5,19.7,1.4l9.9,1.2c3.6,0.4,6.5-4.7,4.4-7.5c-8.3-10.8-19.3-19-31.3-25.3c-10.5-5.3-21.6-9.6-33-12.7
	c2.8,0,5.6-0.4,8.4-1c4.3-1.1,4.8-6.9,1.2-9.2c-6.4-4-12.4-8.6-18.6-13.1c-2.7-2.1-5.6-4-8.6-5.7l4.4,1.4l2.3,0.9
	c0.2,0,0.3,0.1,0.4,0.2l1.3,0.5c3.7,1.6,7.4,3.3,11.1,4.8c4.9,2.1,9.9,3.7,15.1,5c2.6,0.6,5.6-0.8,6.2-3.5c0.6-2.6-0.9-5.3-3.5-6.1
	l-5.5-2.1l-1.2-0.5h-0.4l-2.7-1.2c-3.1-1.4-6.1-2.8-9.1-4.4c-5.3-2.8-10.5-6-15.7-9.2c-9.8-6.2-19.5-12.7-30.1-17.5
	c-3-1.4-6-2.6-9-3.8c3-0.8,6-1.4,9.1-1.9l1.3-0.2h0.7l2.9-0.3l5.9-0.3c4.1-0.1,8.1,0.1,12.2,0.5c2.2,0,4.2-1.5,4.9-3.6
	c0.4-2.1-0.3-4.7-2.3-5.7c-15.6-7.4-32.2-12.3-48.3-18.6l-3.2-1.2c-1-0.5-2-1-3-1.3h-0.4l-1.4-0.6l-0.3-0.2
	c-0.8-31.1,4.1-62.9-4.1-93.4c-2-7.3-4.8-14.3-8.1-21.1c-2.5-5.5-5.2-11-8.1-16.3c-6-11.1-13-21.8-21.8-30.9s-19.1-15.7-31.1-18.7
	c-3.1-0.8-6.2-1.1-9.4-1.1c-3.4,0.2-6.7,0.7-10,1.5c-6.6,1.6-13,3.8-19.3,6.3c-6.2,2.3-12.4,4.3-18.6,6.4
	c-7.7,2.6-15.3,5.7-22.7,9.2c-14.4,7-27.8,15.8-41,25c-7,4.8-14,9.6-21.1,14.2l-10.7,6.5c-1.6,1-3.2,2-5,2.9l-0.3,0.2h-0.3l-1.3,0.4
	h-6l-1-0.2c-1.9-0.3-3.8-0.8-5.7-1.4c-1.7-0.7-3.5-1.2-5.3-1.5c-2.3-0.4-4.6-0.6-6.9-0.5c-7.2,0.1-14.6-0.6-21.8,0.2
	c-3.3,0.4-6.6,1-9.8,2c-5-1.4-10.6-1.3-15.7-0.9c-5.1,0.4-12.9,1.7-19.2,2.9c-6.3,1.2-12.2,2.7-18.3,4.2c-3.6,1-7.3,1.5-11,1.5h-1.9
	l-1.2-0.3h-0.5c-1.8-0.9-3.6-2-5.3-3.1c-7-4.3-14-8.7-20.9-13.3l-20.3-13.9c-12.7-8.8-26.2-16.3-40.4-22.4
	c-7.3-3.2-14.9-5.9-22.6-7.9c-8.2-1.8-16.6-2.7-25-2.4c-7.6,0-15.1,1-22.4,3c-6.4,1.9-12.5,4.4-18.3,7.6c-11.1,6.3-21,14.7-29,24.6
	c-8.5,10.6-15.4,22.4-20.3,35.1c-11.7,28.9-14.8,60.5-16.2,91.4c-0.1,2.5-0.2,5.1-0.2,7.6c-12.4,6.1-24.2,13.2-36.4,19.7
	c-3.4,1.9-6.9,3.7-10.4,5.4c-2,1.1-2.9,3.4-2.3,5.6c0.6,2,2.6,3.9,4.8,3.7c4-0.5,8.1-0.6,12.2-0.5c2,0,3.9,0.1,5.9,0.3l2.7,0.3h0.9
	l1.4,0.2c2.6,0.4,5.2,0.9,7.7,1.6c-25.6,7-50.9,14.9-76,23.5c-8.6,2.9-17.2,6-25.7,9.1c-2.4,0.9-4.4,3.4-3.5,6.1
	c0.8,2.7,3.5,4.2,6.2,3.5c5.3-1.2,10.6-2.3,16-3h1l1.8-0.2l4.2-0.4l8.1-0.5c5.4-0.2,10.7-0.1,16.1,0.3c2.7,0.1,5.5,0.4,8.2,0.7
	l1.8,0.2h1.2l2.2,0.3c-11,3.6-21.7,8.1-31.9,13.5c-4.5,2.3-8.9,4.9-13.2,7.6s-3.1,8,1.2,9.1c2.9,0.8,5.7,1.7,8.5,2.8l1.9,0.7
	l0.3,0.2l1,0.4l4.1,2c2,1,3.9,2.2,5.8,3.4c-28.5,7.6-53.6,24.4-71.6,47.7c-2.2,2.9,0.8,8,4.3,7.5c3.4-0.4,6.8-0.6,10.2-0.6l5.2,0.2
	l2.2,0.2l1.3,0.2h0.9c3.1,0.5,6.2,1.1,9.3,1.9l1.2,0.4c-0.1,0-0.1,0-0.1,0.1c-2.7,1.7-5.4,3.2-8.2,4.6c-5.6,2.9-11.5,5.5-17.3,8.1
	c-10.8,5-21.5,11-29.4,20.1c-4.7,5.1-8,11.4-9.7,18.1c-0.6,2.8,1.4,6.7,4.8,6.3l31.2-4c2.6-0.4,5.2-2.1,5-5c-0.2-2.9-2.2-5.4-5-5
	l-23.6,3c0.5-1,1.1-2,1.7-3l1.2-1.6c0-0.1,0.1-0.1,0.1-0.2l0.8-1c1.8-2.1,3.8-4.1,5.9-5.9l1.5-1.2l0.8-0.7l0.3-0.2l3.4-2.4
	c10.1-6.7,21.7-10.8,32.4-16.3c6.5-3.1,12.6-7.1,18.1-11.8c2.2-1.9,1.9-6.6-1-7.8c-10.1-4.4-20.9-6.8-31.9-7
	c1.5-1.8,3.2-3.4,4.8-5.1c1.6-1.7,4.4-4.1,6.8-6l3.3-2.8l0.6-0.4l0.6-0.5l1.9-1.4c4.9-3.5,10-6.7,15.4-9.5c2.7-1.5,5.5-2.8,8.3-4.1
	l1.8-0.8c0.2,0,0.4-0.1,0.4-0.2l1.1-0.4l4.4-1.7c6.5-2.3,13.1-4,19.8-5.3c3.5-0.6,5-6,2.2-8.3c-7.1-6-15.2-10.9-23.8-14.4
	c4.6-2.6,9.3-5,14.1-7.1l3.1-1.4l0.6-0.3l0.5-0.2h0.1l1.1-0.5l6.2-2.4c4.2-1.5,8.3-2.9,12.6-4.2c4.3-1.3,9.8-2.7,14.7-3.7
	c2.7-0.7,4.3-3.4,3.6-6.1c-0.4-1.8-1.8-3.2-3.6-3.6c-13.5-3.9-27.5-6-41.6-6.4c16.5-5.4,33.1-10.6,49.7-15.3
	c8.8-2.5,17.5-4.9,26.3-7.2c1.9-0.6,3.3-2.2,3.6-4.2c0.2-1.8-0.6-4.2-2.4-5c-9.5-4.3-19.6-7.1-30-8.2l20.9-11.6
	c2.5-1.4,5.1-2.7,7.7-4h0.2c2.7-0.1,4.9-2.3,5-5c0.5-15.2,1.2-30.4,3-45.5c0.5-3.8,0.8-6.4,1.4-10.4c0.6-4,1.3-7.5,2.1-11.3
	c1.5-7.5,3.4-14.9,5.8-22.2c4.1-12.6,9.4-24.4,17.2-35.5l2.6-3.6l0.5-0.6l0.4-0.5l1.7-2.1c2-2.4,4.1-4.7,6.3-6.9
	c2-2.1,4.2-4.1,6.5-6l1.7-1.4l0.9-0.7h0.2l3.9-2.9c2.6-1.7,5.2-3.3,7.9-4.8l4-1.9l2-1h0.3l1.4-0.5c2.9-1.2,5.9-2.2,9-3l4.4-1
	l2.3-0.4h2.2c7.9-0.8,15.9-0.8,23.8,0.1l0.8,0.2l1.4,0.2l2.9,0.5l6.3,1.6c3.7,1.1,7.3,2.4,10.9,3.7c6.7,2.6,13.2,5.5,19.6,8.8
	c6.8,3.5,13.3,7.4,19.7,11.5c13.6,8.7,26.4,18.3,40.1,26.8c3.4,2.1,6.7,4.3,10.2,6.3c3.6,2.2,7.7,3.4,11.9,3.4
	c7.8,0,15.3-2.7,22.8-4.2c5.6-1.2,11.1-2.4,16.7-3.3l2.2-0.4h1.7l4.5-0.5c2.8-0.2,5.6-0.3,8.4-0.2l1.9,0.2h0.8l3,0.7
	c0.8,0.4,1.8,0.5,2.7,0.3l0.7-0.3l4.5-1.3l2.6-0.5h0.2l1.6-0.2c3.5-0.3,7-0.3,10.5-0.2h11.5c0.7,0,1.5,0,2.2,0h1l1.2,0.3l5.5,1.7
	c4,1.2,8.1,1.8,12.3,1.6c4.4-0.3,8.6-1.7,12.2-4.1c7-4.3,14-8.6,20.8-13.1c13.4-9.1,26.4-18.7,40.5-26.7c6.8-3.8,13.8-7.3,21-10.4
	h0.2l1.4-0.6l2.9-1.1l5.2-2l10.1-3.2c6.2-2.1,12.3-4.6,18.5-6.8l9.3-3.3l4.5-1l2.4-0.4h1.4c1.3-0.1,2.7-0.2,4-0.1h0.8l2.7,0.6
	c2.8,0.7,5.5,1.5,8.2,2.6l1,0.5l1.7,0.8l4,2.2c1.2,0.7,2.3,1.5,3.4,2.3l1.8,1.3l1.1,0.9c4.5,3.7,8.6,7.9,12.2,12.4l0.7,0.9l0.5,0.6
	l0.9,1.3c1,1.2,1.9,2.5,2.8,3.9c1.8,2.5,3.4,5.1,5,7.7c3.1,5.2,5.9,10.5,8.6,15.9c1.4,2.7,2.6,5.4,3.9,8.1l1.8,3.8
	c0.3,0.9,0.7,1.7,1.1,2.5c0,0.1,0,0.2,0.1,0.2v0.3c0.2,0.6,0.5,1.2,0.7,1.9c2.7,7,4.6,14.4,5.8,21.8c0.2,1,0.3,2,0.4,2.9
	c0.1,0.1,0.1,0.2,0.1,0.3v0.2c0,0.4,0.1,0.8,0.2,1.2c0.2,2,0.4,4,0.5,6c0.4,3.8,0.5,7.7,0.6,11.6c0.4,15.4-0.6,30.9-0.7,46.4
	c0,3.7,0,7.4,0.2,11.2c0,0.4,0,0.9,0.2,1.3c-0.5,2,0.2,4.5,2.2,5.4c12,5.7,24.6,9.9,37,14.4c-8.9,1.4-17.6,4-25.8,7.6
	c-1.8,0.8-2.6,3.3-2.4,5c0.3,2,1.7,3.6,3.6,4.2c3.7,1,7.3,2.1,10.9,3.3c1.6,0.6,3.2,1.1,4.8,1.8l2.3,0.9h0.2l1.2,0.5
	c5.5,2.5,10.8,5.2,16,8.3l7.4,4.6c-4.8,0.4-9.5,1.2-14.1,2.6c-2.2,0.6-3.7,2.5-3.7,4.8c0,2.2,1.5,4.2,3.7,4.8
	c3.9,0.8,7.8,2,11.5,3.4l1.1,0.4h0.3l2.5,1.2c1.4,0.7,2.8,1.4,4.1,2.2c5.1,3.2,10.1,6.7,14.8,10.4l-4.6-0.3
	c-3.4-0.2-6.8,0.1-10.1,0.7c-3.6,0.7-6.9,2.3-9.7,4.7s-1.3,7.8,2.2,8.4c12.8,2.2,25.5,5.4,37.8,9.5c3.1,1.1,6.3,2.2,9.3,3.5l1.3,0.5
	l0.7,0.3l0.5,0.2l1.4,0.6c1.4,0.7,2.9,1.3,4.3,2.1c5.9,2.8,11.5,6.1,16.8,9.9l1,0.7l0.4,0.3c0.7,0.5,1.4,1,2,1.6l1.6,1.3
	c-9-1-17.9-1.5-26.8-0.2c-3.6,0.5-7.2,1.5-10.6,2.9c-3.1,1.3-3,5.8-1,7.9l0.8,0.9l0.4,0.6l1.8,2.8c1.3,2.3,2.5,4.7,3.7,7
	c3.1,6.3,6.9,12.2,11.4,17.6c5.8,6.8,12.9,12.4,21,16.3c5.2,2.5,10.7,4.5,16.3,6c5.7,1.5,11.6,2.2,17.3,3.6c3,0.7,6,1.6,8.9,2.7
	l0.9,0.4h0.4l2.1,1c1.3,0.6,2.5,1.3,3.6,2.1c0.6,0.5,1.2,0.9,1.8,1.2l1,0.8l1.5,1.5c0.3,0.5,0.7,1,1.2,1.4
	c-3.9,0.7-7.8,1.6-11.6,2.7c-3.2,0.8-6.4,1.6-9.6,2.2l-1,0.2h-0.4c-0.3,0.3-1.5,0.2-2,0.2c-1.4,0.1-2.9,0.1-4.3-0.1
	c-2.6-0.3-5.1,2.5-5,5s2.2,4.7,5,5c6.4,0.8,13.1-1.2,19.2-2.8c3.2-0.8,6.3-1.7,9.5-2.3l1.1-0.2h0.7c0.5-0.1,0.4,0-0.3,0.1
	s1.5-0.2,2-0.2c1.4-0.1,2.9-0.1,4.3,0C1040.9,600.9,1043,597,1042.3,594.2z"/>
<path d="M728.3,279.5l1.8-0.5c1.2-0.4,2.5-0.7,3.8-0.9h1.1l2.1-0.2c2.8,0,5-2.2,5-5s-2.2-5-5-5c-6.3,0.4-12.7,1.9-18.1,5.2
	c-5.5,3.4-9.8,8.4-12.4,14.3c-0.6,1.2-0.8,2.6-0.5,3.9c0.4,1.3,1.2,2.3,2.3,3c2.2,1.1,5.8,0.7,6.9-1.8c0.5-1.4,1.2-2.7,2-3.9
	c0.3-0.6,0.6-1.1,1-1.6c0.1-0.2,0.9-1.1,0.3-0.5c0.1-0.1,0.3-0.3,0.3-0.3c0.9-1,1.8-1.9,2.8-2.8l0.4-0.4l0.3-0.2l1.6-1.1l1.6-0.9
	l1.3-0.7c-0.1,0,0,0,0.5-0.2L728.3,279.5z"/>
<path d="M812.8,295.2c-6.4-4.7-13.7-8.1-21.5-10c-7.5-1.7-15.2-1.9-22.8-0.8c-4.2,0.6-8.4,1.5-12.5,2.7c-2.5,0.8-4.4,3.5-3.5,6.2
	c0.7,2.6,3.5,4.2,6.1,3.5c3.3-1.1,6.7-1.9,10.1-2.4l1.4-0.2h0.3l2.6-0.2c1.7-0.2,3.5-0.2,5.2-0.2s3.3,0.1,5,0.3h1.7l2.5,0.4
	c1.7,0.3,3.4,0.8,5.1,1.4l2.4,0.7l1.2,0.5l0.5,0.2c3.9,1.7,7.7,3.9,11.1,6.5c2.1,1.5,5.7,0.4,6.9-1.8
	C815.8,299.6,815,296.7,812.8,295.2z"/>
<path d="M826.3,360c1.9,1.9,5,2,6.9,0.1c0,0,0,0,0.1-0.1c1.8-1.9,2.1-5.2,0-7c-6.9-6.2-15.5-10-24.7-10.8c-2.6-0.3-5.1,2.5-5,5
	c0.1,2.7,2.3,4.9,5,5h0.6l1.2,0.2l2.8,0.7l2.6,0.8l1.4,0.5h0.4c1.7,0.8,3.3,1.7,4.9,2.7c0.8,0.5,1.6,1,2.2,1.6l0.5,0.4L826.3,360z"
	/>
<path d="M862.9,503.7c-2.2-3.3-4.8-6.1-7.8-8.6c-3.5-3.3-7.1-6.5-10.7-9.6c-3.6-3.1-5.8-5-8.4-7.7c-3.4-3.8-7.2-7.3-11.4-10.3h0.1
	c2.8,0.6,5.5,1.5,8.1,2.5c2,0.6,4.1-0.2,5.3-1.8c1.2-1.6,1.3-3.7,0.4-5.5c-2.9-6.6-6.8-12.8-11.7-18.1c-4.3-4.6-9.2-8.7-14.5-12.2
	c-2.9-2-5.8-3.8-8.8-5.7c-2.3-1.4-5.3-0.6-6.7,1.7l-0.1,0.1c-1.4,2.4-0.6,5.4,1.8,6.8l7.5,4.9l3.6,2.5l1.7,1.2l0.4,0.3h0.1l0.5,0.4
	c2.3,1.8,4.5,3.8,6.5,5.9c1.1,1.1,2.1,2.2,3,3.4l0.6,0.8l0.2,0.3l1.5,2c-2.2-0.4-4.5-0.7-6.7-0.8c-5.7-0.2-11.4,1.1-15.7,4.9
	s-1.3,7.5,2.2,8.4c2.6,0.6,5.2,1.4,7.7,2.3c0.5,0.2,0.9,0.3,1.4,0.5c0,0,0.1,0,0.2,0.1l0.9,0.4l3.1,1.7c1.1,0.6,2.1,1.3,3.1,2
	c0.1,0.1,0.4,0.3,0.6,0.4c0.6,0.4,1.1,0.8,1.6,1.3c2.1,1.9,4.1,3.9,6,6c2.4,2.5,5,4.9,7.7,7.1c3.5,3.1,7,6.1,10.4,9.3
	c1.7,1.6,3.5,3.2,5.1,5l1.7,1.9c-0.1-0.1-0.1-0.1-0.1-0.2l0.2,0.3h0.1c0.1,0.1,0.2,0.3,0.2,0.4l0.5,0.7c1.4,2.4,4.4,3.2,6.8,1.9
	C863.5,509.3,864.3,506.2,862.9,503.7C863,503.7,862.9,503.7,862.9,503.7z"/>
</svg>
