<?xml version="1.0" encoding="utf-8"?>
<!-- Generator: Adobe Illustrator 24.2.3, SVG Export Plug-In . SVG Version: 6.00 Build 0)  -->
<svg version="1.1" id="bdc95694-a21b-40d3-8596-f87b2b92ce24"
	 xmlns="http://www.w3.org/2000/svg" xmlns:xlink="http://www.w3.org/1999/xlink" x="0px" y="0px" viewBox="0 0 1152 864"
	 style="enable-background:new 0 0 1152 864;" xml:space="preserve">
<path d="M978.5,381c-1.2-8.6-2.8-17.6-6.7-25.4c-2.4-4.7-5.8-9-8.8-13.3s-8-11-12.4-16.1c-4.1-4.7-8.6-9.1-13.5-13
	c-4.1-3.1-8.4-5.9-12.9-8.4c-5.7-3.3-11.1-7.2-16.4-11c-15.6-11.2-30.9-22.8-46.6-33.9c-6.2-4.4-12.5-8.9-19.1-12.8
	c-4.9-3-10.3-5.4-15.4-8c-8.4-4.2-16.8-8.4-25.1-12.9s-15.3-8.4-22.1-13.7l-1.2-0.9l-1.6-1.4c-1.5-1.5-2.9-3.3-4.3-4.9
	c-3.9-4.5-8.3-9-13.6-11.6c-5.3-2.6-12.9-2.7-19.9-1.5c-6.6,1.3-13.1,3.1-19.4,5.5c-2.7,0.9-5.3,1.9-8,2.7c-2,0.7-4.1,1.1-6.2,1.3
	c-1.6,0.1-3.1-0.2-4.5-0.9c-2-1-3.9-2.3-5.6-3.8c-6-5.4-12.8-9.9-20.2-13.3c-18.4-8.2-38.6-11.9-58.5-14.4
	c-20.7-2.5-41.5-3.4-62.3-2.6c-8,0.3-16.1,0.8-24.1,1.9c-22.5,2.8-44.6,7.8-66.1,14.9c-10.8,3.5-21.4,7.6-31.7,12.2
	c-9.9,4.3-19.4,9.7-29.7,13.1c-10.3,3.4-18.8,4.1-27.5-1.1s-16.3-11.2-26.8-8.6c-10.5,2.6-15.9,10.4-21.9,17.5
	c-6,7.1-13.4,14.7-21.7,20.1c-8.3,5.4-18.7,7.8-28.7,10.8c-9.6,2.8-18.4,7.9-25.7,14.8c-6.4,6.2-11.7,13.4-17.5,20.1
	c-5.8,6.7-12.7,12.9-21.1,16.8c-8.4,3.9-19.5,6.9-29.1,10.9c-9,3.9-17.2,9.4-24.2,16.3c-7.2,6.9-13.3,14.9-19.1,23.1
	s-11.9,16.8-16.6,26c-4.7,9.2-7.6,20-5.6,30.9c1.1,5.8,3.5,11.3,5.8,16.7c2.3,5.4,4.7,10.9,7,16.3l28.4,66.5
	c9.3,21.6,18.1,43.6,28.9,64.5c9.7,18.6,21.3,36.1,34.8,52.1c13.1,15.5,27.9,29.4,44.1,41.6c4,3.1,8.1,6.2,12.4,8.9
	s9.9,4.4,15.1,2.8c8.3-2.7,11.9-11.8,13.2-19.7c1.8-11.3,2.3-23,3.3-34.4s1.9-24.3,2.7-36.5c1.2-18.5,2.2-37.1,3-55.6l1.2,4.4
	c3.7,13.8,7.8,27.6,13.3,40.9c3.1,7.7,6.6,15.2,10.7,22.4c1.4,2.4,4.4,3.2,6.8,1.8c2.4-1.4,3.2-4.5,1.8-6.9c-1.8-3.1-3.4-6.3-5-9.6
	l-2.1-4.5c-0.3-0.7-0.6-1.4-1-2c-0.1-0.5-0.3-0.9-0.5-1.3c-0.1-0.4-0.3-0.8-0.5-1.1c-2.6-6.3-5-12.8-7.1-19.3
	c-4.4-13.4-7.9-27-11.3-40.7c-1-4-2-7.9-2.9-11.9c-0.5-2.2-0.9-4.3-1.3-6.5c0-0.3-0.1-0.6-0.1-0.9c0-0.5-0.1-0.9-0.2-1.4
	c-0.1-1.1-0.2-2.2-0.2-3.3c0-0.5-0.1-1-0.3-1.4c0.4-15.8,1-31.6,2.6-47.3c0.7-7.4,1.7-14.7,3-22c15.7-43.8,33.7-86.7,59.5-125.6
	c5.2-7.8,10.8-15.3,16.2-22.9c5.4-7.6,9.5-13.4,12.9-20.7c2.6-5.7,5-14.7-3.1-17.2c-5.5-1.6-10,3.1-13.9,6.3
	c-4.3,3.6-8.4,7.6-12.1,11.9c-15.2,17.4-25.1,38.5-34.3,59.5c-11.2,25.6-21.9,51.5-28.9,78.6c-2.4,8.9-4.3,17.9-5.8,27l-0.2,0.5
	c-0.2,0.6-0.2,1.1-0.2,1.7c-2.8,18.1-4.6,36.3-5.2,54.6c-1,28.6-1.6,57.2-3.2,85.8c-1.6,28.6-3.7,58-6.4,86.9
	c-0.5,5.2-0.8,10-2.6,14.9c-0.6,1.6-1.4,3.1-2.5,4.4c-0.9,1.2-2.3,1.8-3.8,1.8c-2.7-0.1-5.1-1.8-7.3-3.3l-7.4-5.2
	c-4.7-3.5-9.4-7.2-13.9-11c-18.1-15.5-34.1-33.3-47.6-52.9c-15.2-22.3-26.1-46.8-36.6-71.5l-33.9-79.1l-8.6-20
	c-2.6-6.2-5.5-12.3-6.9-18.9c-2.5-12,3.4-23.2,9.6-33c12.1-19.2,25.7-40.4,46.6-50.7c10.9-5.5,23-7.9,34-13.2s18.2-12.7,25.4-21.3
	c7.2-8.6,13-16.7,21.6-22.6c10.3-7.1,23-8,34.3-12.7c11.3-4.7,21.1-12.4,29.6-21.3c4-4.2,7.5-8.8,11.5-13c4-4.2,7.3-7.3,12.2-8.2
	c4.9-0.9,9.4,2.1,13.4,4.6s10,6.3,15.8,7.5c12.9,2.6,25.5-2.1,37-7.3s23.8-11.2,36.2-15.9c12.6-4.7,25.4-8.7,38.5-11.9
	c12.4-3,24.9-5.4,37.5-7c21.2-2.8,42.9-2.7,64.1-1.4c22.8,1.5,46,4.4,67.7,12c4.4,1.4,8.7,3.3,12.8,5.4c1.8,0.9,3.7,2,5.5,3.1
	l2.6,1.8l0.8,0.6l0.9,0.7c4.6,3.9,8.7,8.2,14.6,10s10.8,0.6,15.9-1c6.9-2.2,13.6-5,20.7-6.7s13.4-3.5,19.2-0.1
	c5.8,3.4,9.4,8.4,13.5,13c2.8,2.9,5.9,5.4,9.3,7.5c16.3,11.2,34.6,19.5,52.3,28.4c15.4,7.7,29.2,18.7,43,28.8l26.6,19.4
	c6.2,4.7,12.6,9.1,19.3,13.2c4.8,2.9,9.5,5.6,13.8,9.2c5.5,4.7,10.5,10,14.9,15.7c4.5,5.6,8.5,11.6,12.6,17.7
	c1.2,1.8,2.4,3.7,3.4,5.6c0,0.1,0,0.2,0.1,0.3v0.3c0.2,0.5,0.4,1,0.5,1.5c0.4,1,0.8,2.1,1.1,3.2c2.8,9.9,4.5,20.2,4.9,30.5
	c0.4,4.2,0.4,8.4,0.1,12.6c0,0.2-0.1,0.5-0.1,0.8v0.1v0.2c-0.1,0.5-0.3,1-0.4,1.5l-0.7,1.5c-0.3,0.7-0.5,1.4-0.8,2
	c-0.3,0.6-1.3,3.5-1.9,5.2c-9.2,27.6-10,57.2-16.8,85.4c-3.2,13.3-8.4,25.4-14.2,37.7s-13,26.3-20,39.1c-3.1,5.7-6.2,11.4-10.2,16.5
	c-4,5-8.5,9.6-13.5,13.6c-9.8,8.1-21.2,14.2-32.5,20.1s-23.9,12.2-35.1,19.6c-3,1.9-5.9,4.5-9.3,5.5c-1.1,0.4-2.2,0.4-3.3,0.1
	c-0.8-0.3-1.5-0.8-2.2-1.4c-3.1-3.3-4.2-9.5-4.7-14c-3.4-35.1-0.7-70.2,0.7-105.3c0.3-8.7,0.6-17.4,0.7-26.2s0.3-17-0.8-25.4
	c-1.2-7.8-3-15.6-5.4-23.1c0.7-5.7,1.3-11.3,1.5-17c-0.1-2.7-2.3-4.9-5-5c-0.8,0-1.7,0.3-2.4,0.7l-0.3-1.6
	c-1.7-8.1-2.2-16.4-3.4-24.7c-0.3-1.6-0.5-3.2-0.8-4.8c0-0.5-0.1-0.9-0.2-1.4c-1.1-6.4-2.4-12.8-3.9-19.2
	c-4-16.9-9.2-33.6-15.5-49.8c-5.6-14.9-12.4-29.6-18.3-44.1c-4.7-11.5-9-23.1-14.4-34.3c-5.4-11.2-10.9-20.5-19.5-28
	c-4-3.5-8.7-6.2-13.8-8c-2.8-0.9-6.7-2.1-9.4-0.4c-2.3,1.6-4.1,3.9-5,6.6c-1.8,5.1,0,10.6,2.2,15.3c2.2,4.7,6.3,10.2,10.1,14.9
	s7.8,8.8,11.8,13.2c4.8,5.4,9.2,11.1,13.3,17c16.9,24.2,28.3,51.8,38.4,79.4c4.9,13.2,9.4,26.5,14.2,39.8c1.2,6.6,2.1,13.3,2.9,20.1
	c1.2,11.1,4.3,21.6,7.4,32.2c-0.1,1.4-0.3,2.8-0.4,4.2s-0.2,1.6-0.4,2.5c0,0.3,0,0.6-0.1,0.9v0.2v0.2h-0.1c-0.3,2.5-0.7,5.1-1.2,7.6
	c-1.8,8-4.3,15.9-7.3,23.6c-0.3,0.9-0.7,1.7-1,2.6c-0.2,0.4-0.4,0.9-0.5,1.3c-0.1,0.2-0.2,0.3-0.2,0.4v0.2c-0.8,1.8-1.5,3.5-2.3,5.2
	c-1.6,3.5-3.4,6.9-5.1,10.2c-4.6,8.6-9.5,16.9-14.2,25.4c-1.4,2.4-0.6,5.4,1.8,6.8c2.3,1.4,5.3,0.6,6.7-1.7l0.1-0.1
	c8.3-14.6,16.9-29.1,23.3-44.7c2.7-6.6,4.9-13.3,6.8-20.2c0.1,1,0.2,2,0.2,3c0.5,7.7,0.3,15.5,0.2,23.2c-0.4,30.8-3,61.5-2.9,92.3
	c0,7.9,0.2,15.9,0.7,23.8s0.7,13.5,2.1,20s3.4,10.7,7.7,14.1s12.2,4.2,18.2,1.1s10.4-6.7,15.6-9.9s10.7-6,16.1-8.8
	c10.3-5.4,20.7-10.6,30.6-16.7s19-13.2,26.4-22s13.4-20.1,19-30.8s11.7-22.7,17.1-34.3s9.6-22.2,12.5-34.1
	c6.2-25.2,7.6-51.3,14.2-76.4c1.5-5.8,3.3-11.4,5.6-16.9c1.1-2.9,1.6-5.9,1.6-9C980.9,398.9,979.8,389.8,978.5,381z M359,309.6
	c7.7-17.3,16.2-34.7,28.3-49.4c4.5-5.5,9.6-10.6,15.2-15l-1.7,3.3c-1.3,2.3-2.8,4.6-4.2,6.9c-6.4,10-13.7,19.3-20.4,29.1
	c-8,11.8-15.3,23.9-22.1,36.4C355.7,317.1,357.4,313.4,359,309.6z M736.7,289.5c-4.2-6.1-8.6-12-13.4-17.6c-4-4.6-8.2-8.9-12.2-13.6
	c-4.2-4.7-7.8-9.8-10.7-15.3c-0.5-1-0.8-2-1.1-3.1c-0.2-0.6-0.4-1.2-0.5-1.8v-0.8c0-0.2,0.1-1,0.1-1.1l0.2-0.8
	c7.2,1.8,12.5,6.2,17.5,12.3c5,6.1,10.9,17.2,15,26.3c3,6.8,5.8,13.8,8.6,20.7L736.7,289.5z"/>
<path d="M503.1,198.7c-2.5,0.8-4.4,3.5-3.5,6.2c0.9,2.7,0.8,2.6,1.1,3.9c0,0.5,0.1,1,0.2,1.5v0.2c0.1,0.4,0.1,0.9,0.1,1.3
	c0.1,1.3,0.1,2.6,0.1,3.8s-0.1,1.4-0.1,2c-0.1,0.3-0.1,0.6-0.1,0.9c0,0.1-0.1,0.2-0.1,0.3v0.2c-0.4,2.6-1,5.1-1.8,7.6
	c-0.4,1.2-0.8,2.4-1.3,3.6c-0.1,0.2-0.2,0.4-0.2,0.6l-0.3,0.5l-0.9,2.1c-4.9,10-11.6,19-17.9,28.1l-11.3,16.8
	c-1.5,2.1-0.5,5.6,1.8,6.8c2.4,1.3,5.4,0.5,6.8-1.8l20.5-30.2c6.2-9.3,12.2-19.4,14.1-30.6c1.3-6.7,1-13.7-1-20.3
	C508.4,199.8,505.8,197.9,503.1,198.7z"/>
<path d="M554.1,217.5c-1.1-2.4-4.6-3.2-6.8-1.8c-2.3,1.4-3.1,4.4-1.8,6.8l1.2,2.6c0.1,0.1,0.1,0.2,0.1,0.3l0.2,0.3
	c0.1,0.4,0.3,0.9,0.5,1.3c0.6,1.7,1.1,3.4,1.6,5.1s0.8,3.3,1.1,5c0.3,1.7,0.1,0.9,0.2,1.4v0.9c0.1,0.7,0.2,1.5,0.2,2.2
	c0.6,7,0.4,14-0.5,21c-0.2,2.6,2.5,5.1,5,5c2.8,0,5-2.2,5-5c0.9-7.3,1.1-14.6,0.5-21.9C559.9,232.6,557.7,224.8,554.1,217.5z"/>
<path d="M672.3,267c-2.7-1.6-5.9-1.8-8.9-2.6l-3.5-1.1c-0.6-0.1-1.2-0.3-1.7-0.6l-1-0.3h-0.1c-1.1-0.6-2.2-1.1-3.3-1.5l-3.3-1.9
	l-3.3-2.2l-1.1-0.9l-0.3-0.2l-0.9-0.7c-2.1-1.7-4.1-3.6-5.9-5.6c-1-1-1.9-2-2.7-3.1c-0.5-0.5-1-1.1-1.4-1.7h-0.1
	c-0.2-0.4-0.4-0.7-0.7-1c-1.7-2.4-3.4-4.9-4.9-7.5c-1.5-2.6-3.5-6.4-5.1-9.7c-0.3-0.9-0.7-1.7-1.1-2.5l-0.2-0.6
	c-0.2-0.4-0.4-0.8-0.5-1.2c-0.8-1.9-1.5-3.9-2.2-5.8s-3.5-4.4-6.2-3.5c-2.7,0.9-4.4,3.5-3.5,6.1c4.6,12.8,10.7,25.1,19.5,35.4
	c7.3,8.7,16.9,15.2,27.6,18.9c2.9,0.9,5.8,1.4,8.7,2.1h0.3l1,0.5l0.5,0.3l0.9,0.9c1.4,1.3,2.6,2.7,3.9,4c1.9,2,5.1,2,7.1,0
	c1.9-2,1.9-5.1,0-7.1C677.5,271.5,675.3,268.8,672.3,267z M666.5,275.3h0.2C667.3,275.5,666.8,275.4,666.5,275.3z"/>
</svg>
