<?xml version="1.0" encoding="utf-8"?>
<!-- Generator: Adobe Illustrator 24.2.3, SVG Export Plug-In . SVG Version: 6.00 Build 0)  -->
<svg version="1.1" id="b98ca4f0-fef6-4970-aaa9-8ec8f62053ad"
	 xmlns="http://www.w3.org/2000/svg" xmlns:xlink="http://www.w3.org/1999/xlink" x="0px" y="0px" viewBox="0 0 1152 864"
	 style="enable-background:new 0 0 1152 864;" xml:space="preserve">
<path d="M980,394.3c-10.5-16.3-29.3-27.1-46-36.1c-18.4-9.9-37.9-17.1-58-22.8s-39.7-10.1-58.1-19c-9.8-4.6-18.4-10.7-27-17.2
	c-8.5-6.5-17.8-12.1-27.5-16.7c-9.6-4.3-18.8-9.4-27.7-15c-8.1-5.3-16-10.9-24.3-16c-7.9-5.1-16.5-9.3-25.4-12.4
	c-10.3-3.4-21.3-4.3-32.1-4.2c-23.9,0.2-47.9,2.1-71.7,3.2s-46.9,3.3-70.4,1.9s-44.5-3.7-66.9-1.8c-17.2,1.5-35.1,4.8-50.1,13.8
	c-5.4,3.2-10.4,7.3-14.6,12c-0.4,0.1-0.8,0.2-1.2,0.5l-1.2,0.8c-12.8-4.8-26.8-4.6-39.5,0.4c-14.4,5.8-26.1,17.2-39.1,25.4
	c-27.1,17.2-57.2,29-87.4,39.5c-14.5,5.1-29.4,9.2-43.6,15.3c-12.5,5.4-24,13.4-30.6,25.7c-12.8,23.7-6,53.4,6.8,75.5
	c15.6,27,39.2,48.5,52.7,76.8c6.9,14.6,11.5,30.1,13.6,46.1c0.9,7,0.6,14.1,1.6,21.1c0.8,5.1,2.7,10.8,7.8,13.2s12.3-1.6,16.6-6.1
	c4.5-5,8.4-10.5,11.5-16.4c6.5-12.5,10.1-26.2,13.4-39.9c7.3-30.5,16.2-60.4,28.3-89.3c12.3-29.2,27.2-57.1,44.5-83.6
	c8.8-13.4,18.2-26.3,28.1-38.8c9.7-12.4,19.5-25.5,22.7-41.2c1.3-6.3,1.4-12.8,0.3-19.1c15.1-17.3,40-22.2,61.9-23.9
	c30.4-2.3,60.6,3.6,90.9,2.5c31.8-1.2,63.6-3.3,95.3-4.8c15.5-0.8,31.4-2.2,46.5,2c12.4,3.4,23.5,10,34.1,17c10.6,7,21.6,15,33.3,21
	l3.7,1.8c-0.8,8.7,4,16,9.5,22.6s12.6,15.5,18,24.1c10.6,17,18.8,35.4,28.2,53.1s22.3,34.9,34.8,51.7s22.7,35.1,28.3,55.9
	s7.5,41.7,9,62.9c0.7,9.5,1,19.1,2.8,28.5c0.9,4.7,2.3,9.3,4.2,13.6c1.5,3.4,3.7,9.1,7.8,9.9c7.6,1.7,10.8-7.3,11.5-13.2
	c1.1-10,4.1-19.8,9-28.6c4.9-8.8,10.8-17,16.2-25.3s12.2-19.7,17.9-29.8c10.8-19.3,21.9-39.1,30.7-59.5
	C987,433.2,991.5,412.1,980,394.3z M220,590.1c-0.3-2.9-0.2-6.1-0.3-7.8c-1.4-29.5-10.8-58-27.2-82.5c-8.1-12.2-17.5-23.3-26.3-34.9
	c-15.9-20.9-30.5-45.5-26.9-72.8c1.7-12.7,8.1-24.1,18.6-31.5s24.9-11.8,37.8-16.1c28.3-9.4,56.6-19.3,83.3-32.8
	c13.4-6.7,26.1-14.4,38.2-23.2c12.2-9,24-18.2,39.8-18.7c4.4-0.1,8.8,0.3,13.1,1.4c-12.9,11.7-20.6,28-28.9,43.2
	c-12,22.3-29.2,40.9-43,61.9c-27.5,42.1-45,89.9-59.4,137.8c-4.2,13.7-8.1,27.5-11.9,41.3C223.7,566.8,220.6,578.3,220,590.1z
	 M366.1,312c-8.4,12.5-18.4,23.9-27.1,36.1c-34.2,48.2-60.1,101.7-76.6,158.4c-3.9,13.6-6.9,27.3-10.4,41s-7.3,25.7-14.6,36.8
	c-1.4,2.2-5.5,8.7-9.4,11.6c-0.3-11.8,2.4-23.3,5.5-34.6s6.7-24,10.3-36c6.9-23.6,14.4-47,23.3-69.8s19.5-45.1,32.2-66
	c6.4-10.4,13.4-20.4,20.8-30.1c7.8-10.2,15.8-20.2,22.5-31.2c10.9-18,18.6-40.1,35.5-53.4C379.4,288.1,373.5,301,366.1,312z
	 M830.2,408.4c-12.9-18.5-22.3-39.1-32.7-59c-5.6-11.2-12-22-19.3-32.2c-3.7-5.1-7.9-9.9-11.9-14.7c-2.7-3.3-5.6-7.1-6.8-11.2
	c16,10.2,28,25.8,38.9,41.2c12.7,18.2,24,37.4,33.8,57.3c9,18,17.1,36.5,24.7,55.1C848.5,432.4,838.9,420.7,830.2,408.4z M888,569.9
	c-1-11.6-1.6-23.2-2.7-34.7c-1-9.3-2.2-18.5-3.9-27.6c0.9,2.7,1.8,5.4,2.6,8.1c8,26.2,8.4,54.1,10.5,81.2
	C890.1,588.6,888.7,579.2,888,569.9z M977,433.6c-3.8,14.1-11.1,27-17.7,39.8s-14.1,27.1-21.7,40.3c-7.6,13.2-15.5,25-23.6,37.3
	c-5,7.8-9.8,16-12.9,24.7c-1.2-17.8-2.6-35.7-6.8-52.9c-5.6-22.8-15.5-44.8-24.3-66.6c-16.9-42.5-35.5-84.9-61.3-122.9
	c-5.6-8.2-11.6-16.6-18.2-24.5c9.7,7,19.5,13.1,30.7,17.8s25.8,9.1,38.9,12.7c27.4,7.5,53.7,16,78.3,30.6
	c11.4,6.7,23.4,14.2,31.8,24.5S980.7,419.8,977,433.6L977,433.6z"/>
</svg>
