<?xml version="1.0" encoding="utf-8"?>
<!-- Generator: Adobe Illustrator 24.2.3, SVG Export Plug-In . SVG Version: 6.00 Build 0)  -->
<svg version="1.1" id="ffd65d71-cc09-4116-8671-df3f5e0f1d1b"
	 xmlns="http://www.w3.org/2000/svg" xmlns:xlink="http://www.w3.org/1999/xlink" x="0px" y="0px" viewBox="0 0 1152 864"
	 style="enable-background:new 0 0 1152 864;" xml:space="preserve">
<path d="M402,342.6c-1.1-2.4-4.8-3.1-6.9-1.8c-2,1.2-2.8,4-1.9,6.5c0,0.1,0.2,0.3,0.2,0.5l0.3,0.8c0.2,0.6,0.5,1.1,0.7,1.7
	s1,2.6,1.4,3.8c0.4,1.2,1.7,4.9,2.4,7.4c1.5,4.8,2.6,9.7,3.5,14.7c0.3,1.2,0.5,2.4,0.7,3.6s0.1,1.2,0.2,1.8c0.1,0.6,0.1,0.6,0.2,0.9
	s0,0.4,0,0.5c0.3,2.5,0.6,5.1,0.8,7.7c0.3,5,0.4,10,0.3,15c-0.1,2.6-0.3,5.2-0.5,7.8s-0.3,2.4-0.4,3.6s-0.1,1-0.2,1.5v0.2
	c-0.1,0.5-0.1,0.9-0.2,1.4c-0.4,2.3-0.9,4.7-1.5,7s-0.7,2.3-1.1,3.4l-0.3,0.8l-0.2,0.4l-0.2,0.4l-0.4,1c-1.1,2.1-2.3,4.1-3.8,6
	c0,0.1-0.1,0.2-0.2,0.3c-0.1,0.1-0.2,0.2-0.2,0.3c-0.4,0.4-0.7,0.8-1,1.3l-2.4,2.8c-3.1,3.7-6.2,7.4-8.2,11.7
	c-2,4.3-3.4,9.8-4.4,14.9c-0.5,2.3-0.9,4.7-1.4,7l-0.9,3.4c-0.2,0.5-0.4,1-0.5,1.5l-0.3,0.7c0.3,0.1-2.7,5.1-3.2,5.5
	s-0.1,0.2-0.3,0.4l-1.1,1.1l-1,1l-0.6,0.5h-0.1l-2.4,1.4h-0.4l-1.5,0.4h-2.2l-1.6-0.5l-0.8-0.2l-0.6-0.3h-0.1l-0.8-0.3l-2.9-1.4
	c-2.5-1.2-5.1-2-7.9-2.3c-5.2-0.4-9.7,2.6-12.6,6.7c-2.5,3.8-3.6,8.4-3.4,12.9c0.1,2.9,0.4,5.8,1,8.6l0.3,1.9c0,0.3,0.1,0.6,0.1,0.9
	s0,0.1,0.1,0.1l0.3,4.2c0,5.4-1.5,10.5-1,15.9s2.3,11.2,3.7,16.8c2.7,10.8,5.4,21.7,8.2,32.5l2,8c0.7,2.6,3.3,4.2,6,3.5h0.1
	c2.6-0.7,4.2-3.5,3.5-6.1c-2.7-10.9-5.5-21.9-8.2-32.8c-1.4-5.4-2.7-10.8-4.1-16.2c-0.3-1.3-0.6-2.5-0.8-3.7
	c-0.2-1.2-0.3-1.3-0.4-1.9c-0.1-0.3,0-0.4,0-0.3c0-0.3-0.1-0.9-0.1-1.2c-0.1-2.6,0-5.2,0.5-7.8c0.4-2.7,0.6-5.4,0.5-8.1
	c-0.2-2.9-0.5-5.8-1.1-8.6l-0.3-1.8c0-0.3-0.1-0.5-0.1-0.7v-0.3c-0.2-1.4-0.3-2.9-0.3-4.3c0.1-0.4,0.1-0.8,0.1-1.2l0,0l0,0l0,0
	c0-0.1,0.1-0.3,0.1-0.4l0.3-1.4c0.1-0.3,0.2-0.6,0.3-0.8c-0.1,0.1-0.1,0,0.1-0.2c0-0.2,0.1-0.3,0.1-0.5c0.1-0.1,0.2-0.3,0.2-0.4
	l0.7-1.2l0.2-0.3c0.3-0.4,0.6-0.7,1-1c-0.3,0.4,0.2-0.1,0.4-0.2l0.2-0.2h0.3c0.3-0.1,0.3-0.1,0.1,0.1l0.8-0.3h1.1l1.4,0.4l1.4,0.5
	l0.8,0.4c2.3,1,4.5,2.2,6.9,3c9.9,3.1,19.1-3.3,24-11.4s5.1-18.6,8.1-27.8c0.1-0.6,0.3-1.1,0.5-1.6l0.3-0.8c0.6-1.1,1.1-2.2,1.7-3.2
	s1.2-2,1.9-2.9l0.9-1.2l0.6-0.8c3.1-3.8,6.5-7.5,9.1-11.6c5.7-8.9,7.1-19.7,7.9-29.9c1.6-20.8-1.3-41.7-8.4-61.3
	C404.1,347.8,403.1,345.2,402,342.6z"/>
<path d="M948.7,304.8c-3.1-19.5-12.6-37.1-19.6-55.4c-3.5-9.1-6.5-18.5-7.8-28.2s-1.1-22-1.9-32.9c-1.3-17.8-5.8-37-20-49.2
	c-6.6-5.9-15.1-9.3-24-9.5c-9.7-0.2-19.1,3.5-27.3,8.5s-16,11.9-23.4,18.7s-14.2,13.2-21.2,20c-27.9,27.5-53.5,58.2-68.9,94.7
	c-8.1,19.3-13.6,39.7-23.5,58.3c-9,16.9-21.7,32-26.7,50.8c-2,7.4-2.4,15.3-5.4,22.4c-1.2,3-3.3,5.5-6,7.2
	c-3.8,2.1-8.6,1.6-12.7,0.8c-10.5-1.8-20.7-3.6-31.4-3.4s-21.6,1.4-32.3,2.7c-10.7,1.3-21.8,2.6-32.8,2.8
	c-9.3,0.2-18.5-0.5-27.7-1.1c-18.3-1.1-37.1-2.6-55,1.9c-5,1.3-9.9,3-14.5,5.3c0.7-13.2-2.8-26.4-8.5-38.5
	c-7.2-15-18-27.9-28.3-40.8c-10.4-13.2-19.9-27.1-28.5-41.6c-8.7-14.7-17.2-29.5-26.5-43.9c-18.7-28.4-39.4-55.4-61.9-80.8
	c-9.7-11-20.4-22.1-33.7-28.7c-13.3-6.6-30.8-9.3-43.5,0c-10.7,7.7-15.3,20.7-17.5,33.2c-3,16.3-3.8,33.1-5.5,49.6
	c-1.8,18.2-3.6,36.5-5.5,54.7s-3.7,35.6-4.6,53.5c-0.9,17.9-0.7,35.6,1.7,53.2s7.8,34.9,13.4,52.1c5.6,17.2,10.7,33.8,16.4,50.6
	c5.7,16.8,11.3,31.4,19.9,45.6c7.5,12.8,17.5,24,29.4,32.9c5.9,4.4,12.3,7.9,19.2,10.4c3.4,1.3,7,2.2,10.6,3.2s6.2,1.9,8.6,4.6
	c2.4,2.7,3.9,5.8,5.9,8.7s4.3,6,6.6,8.8c4.4,5.5,9,10.9,12.2,17.2c6.9,13.7,1.6,28.6-0.9,42.6c-1.4,7.7-2,15.2-0.6,22.9
	c0.5,2.7,3.7,4.2,6.1,3.5s4-3.4,3.5-6.1c-2.6-14.6,4.1-29.3,5.2-43.7c0.7-7.5-0.6-15.1-3.6-22c-2.9-6.5-7.4-12.2-11.8-17.8
	s-8.1-10.5-11.8-16.1c-1.9-3.2-4.3-5.9-7.2-8.2c-3.2-2.3-7-3.4-10.8-4.4c-13.4-3.4-25.7-10.4-35.4-20.2
	c-22.3-22.1-31.8-53-41.2-82.1c-5.3-16.6-10.9-33.1-16-49.8c-5.3-16.5-8.4-33.6-9.5-50.9c-2-34.7,2.8-69.6,6.3-104.1l5.4-53.6
	c1.4-14.1,1.8-28.7,5.9-42.3c3.6-11.8,11.2-21.7,24.5-22c13.3-0.3,26.3,7.4,36.3,16.4c11.5,10.4,21.5,22.8,31.3,34.7
	s20.4,25.5,29.9,38.8s18.8,27.6,27.3,42s16.8,29,26.1,42.9c9.3,13.9,19.5,25.5,29.1,38.4s17.9,26.4,21.1,42.2
	c1.4,7.1,1.4,14.3,0,21.4c-0.1,0.4-0.1,0.7-0.1,1.1c-0.9,1.5-0.9,3.3,0,4.8c1.3,2.2,4.6,3.4,6.8,1.8c14.5-10.5,32-12.7,49.4-12.5
	c17.4,0.2,36.7,2.8,55,2.1c21.6-0.7,42.9-5.5,64.6-5.4c5.2-0.1,10.3,0.3,15.4,1c5,0.8,9.9,2.1,14.9,2.7c9.4,1.2,18.2-1.5,23.8-9.4
	c4.3-6.3,5.6-14.2,7-21.6c1.6-8.7,4.7-17.1,9-24.9c4.5-8.3,9.8-16.1,14.6-24.2c5.2-8.9,9.7-18.2,13.3-27.9c7.4-18.8,13.3-38,23-55.9
	c9.2-16.6,20.2-32.2,32.8-46.5c12.6-14.7,26.4-28.3,40.5-41.4c7-6.5,13.9-13.3,21.7-18.9c7.8-5.6,15.6-10.2,24.6-10.9
	c16.9-1.4,28.5,12.1,33.5,26.9c6.7,19.8,3.2,41.4,6.9,61.8s12.7,36.1,19.5,54c3.4,8.8,6.4,18,7.5,27.4c1,9.6,0.6,19.3-1.1,28.8
	c-3.4,19.9-10.4,38.9-14.5,58.6c-2,10.3-3.2,20.9-3.3,31.4c-0.2,10.2-0.2,20.3-2.5,30.2c-8.2,36.7-36.2,64.5-61.6,90.3
	c-12.9,13.1-25.7,26.7-34.4,43c-1.2,2.2-2.3,4.5-3.3,6.8c-0.5-2.5-0.9-5.1-1.4-7.6l-5.4-30.4c-1-5.8-2.1-11.5-3.1-17.2
	c-0.7-2.6-3.5-4.2-6.1-3.5c-2.6,0.8-4.1,3.5-3.5,6.1c3.5,19.8,7.1,39.6,10.6,59.4c0.4,2.7,0.9,5.4,1.4,8c0,0.3,0.1,0.6,0.1,0.9h0.1
	v0.2c0,0.6,0.1,1.2,0.1,1.9c0,0.5,0,1.1-0.1,1.6v0.2l-0.3,1.3c-0.5,1.6-0.2,3.4,1,4.6c-0.7,8.2-0.4,16.4-0.2,24.7
	c0.2,10,0.1,19.9-2.8,29.6c-1.9,6.1,7.7,8.8,9.6,2.6c6.3-20.5,0.3-41.9,4.2-62.6c3.3-17.9,13.8-33.3,25.7-46.8s26.4-26.9,38.9-41
	s24.4-29.6,32.3-46.9c4-8.4,6.9-17.3,8.7-26.5c1.9-10.8,1.8-21.7,2.1-32.6c0.6-20.8,6.6-40.4,11.9-60.3
	C947.8,344.7,951.9,325,948.7,304.8z"/>
<path d="M800.7,462.6h1.6c1-0.1,2,0,3,0h0.6l0.8,0.3c0.6,0.2,0.4,0.2,0.2,0.1l1.2,0.6c0.2,0.2,0.4,0.3,0.5,0.5s0.3,0.4,0.5,0.5
	l0.3,0.5c0.1,0.1,0.1,0.3,0.2,0.4c0.1,0.4,0.3,0.8,0.5,1.2l0.3,1.6c0,0.2,0,0.4,0.1,0.6c0,0.7,0,1.4,0.1,2.1
	c0,5.2-0.9,10.4-0.4,15.5c0.2,3.2,1,6.3,2.4,9.2c1.5,2.8,3.5,5.4,5.9,7.5c2.2,2,4.4,3.8,6.4,5.9l0.9,1h0.1l1.1,1.6
	c0.3,0.5,0.6,1,0.8,1.5c0,0.2,0.1,0.4,0.2,0.5c0.1,0.4,0.3,0.9,0.4,1.4s0.1,0.5,0.2,0.7v1.3c0.1,0.1,0,0.2,0,0.3v-0.1
	c-0.1,0.1-0.1,0.3-0.1,0.4c-0.1,0.2-0.2,0.3-0.2,0.5l-0.2,0.3c-0.1,0-0.1,0.1-0.2,0.2c-1.8,2.1-1.5,5.3,0.6,7c1.9,1.6,4.6,1.6,6.5,0
	c5.1-5.5,4.2-13.4,0.5-19.5c-1.7-2.7-3.9-5.1-6.3-7.1c-2.2-2-4.3-4.1-6.4-6.2h-0.1l-0.6-0.9l-1.1-1.8c0-0.2-0.1-0.5-0.2-0.7
	c-0.2-0.7-0.4-1.4-0.5-2.1v-0.9c-0.1-0.6-0.1-1.2-0.2-1.8s0-2.8,0.1-4.2c0.3-5.3,1-10.7-0.3-16c-1.3-5.7-5.8-10.2-11.5-11.5
	c-5.2-1.3-10.5-0.1-15.6,1.1l-3.5,0.7l-1.6,0.3h-4c-0.1,0-0.3,0-0.3-0.1h-0.1l-0.7-0.2c0,0.1,0,0.1,0.1,0.1h-0.2l-0.3-0.2l-0.7-0.3
	l-0.5-0.5l-0.3-0.4c-0.1-0.1-0.2-0.3-0.3-0.5l-0.3-0.5c-0.1-0.3-0.2-0.7-0.3-1c-0.9-2.8-1.1-5.7-1.9-8.5
	c-3.2-11.1-14.1-15.4-22.7-21.5l-0.8-0.5h-0.1l-0.6-0.4l-0.6-0.6c-1-0.8-1.9-1.7-2.7-2.6c0,0-0.8-0.9-0.2-0.3
	c-0.1-0.1-0.3-0.3-0.3-0.3l-1-1.6c-0.1-0.3-0.3-0.7-0.5-1c-0.1-0.2-0.2-0.4-0.2-0.6c-0.3-0.7-0.5-1.4-0.7-2.2
	c-0.2-0.7-0.4-1.4-0.5-2.1c-0.1-0.3-0.1-0.6-0.2-0.9v-0.2c-0.2-1.6-0.3-3.2-0.4-4.8c-0.1-3.2-0.2-6.4-0.5-9.6
	c-0.2-3.3-0.9-6.6-2.1-9.7c-1.3-3.5-3.3-6.5-5-9.8l-1.1-2c0-0.1-0.1-0.2-0.1-0.3c-0.1-0.5-0.3-0.9-0.4-1.4c-0.3-0.7-0.5-1.5-0.6-2.3
	c0-0.2-0.1-0.3-0.1-0.5c0,0-0.1-0.9-0.1-1.1c-0.1-1.3,0-2.7,0.1-4c0.1-0.3,0.2-0.8,0.2-0.8c0-0.3,0.1-0.7,0.2-1
	c0.2-0.9,0.4-1.8,0.7-2.7l0.7-2.2l0.5-1.2c0.1-0.1,0.1-0.1,0.1-0.2c0.8-1.7,1.6-3.3,2.5-4.9s3.4-5.8,5.2-8.6
	c3.8-5.7,7.7-11.3,11.3-17.2c14.5-24.1,24.9-50.4,30.8-77.9c0.7-3.3,1.3-6.6,1.9-10c0.6-3.4-0.7-5.5-3.5-6.1s-5.7,0.7-6.1,3.5
	c-2.4,13.6-5.9,27-10.4,40c-1.2,3.4-2.4,6.7-3.7,10l-0.9,2.1c-0.1,0.4-0.3,0.8-0.5,1.2c0.1-0.1-0.3,0.8-0.3,0.9s-1.3,3-2,4.4
	c-2.8,6.3-5.8,12.5-9.2,18.5s-6.9,12-10.7,17.7s-7.8,11.3-11,17.3s-6,13-5.9,20.1c0,3.4,0.6,6.8,1.9,10c1.4,3.5,3.5,6.5,5.2,9.8
	l0.4,0.9l0.4,0.8l0.6,1.7c0.4,1.4,0.7,2.8,0.9,4.3c0,0.2,0.1,0.7,0.1,0.8s0.1,0.6,0.1,0.9s0.1,1.5,0.1,2.3l0.3,5.1
	c0.2,6.5,0.8,13.4,4.4,19c3.6,5.6,7.4,8.1,12,11l6.4,3.9l3,2l0.5,0.4h0.1l1.4,1.2c0.5,0.5,1.8,1.5,2.1,2.2l0.2,0.2l0.3,0.6
	c0.4,0.6,0.7,1.2,1,1.8l0.1,0.1c0-0.1-0.1-0.2-0.1-0.3c0,0.1,0.1,0.2,0.1,0.3l0.1,0.1c0,0.3,0.1,0.5,0.1,0.7
	c0.2,0.7,0.4,1.4,0.6,2.1c0.3,1.4,0.5,2.8,0.8,4.3c1.2,6.1,4.9,11.7,11.3,13.1c6.4,1.4,10.3-0.2,15.3-1.3l3.5-0.8L800.7,462.6z"/>
</svg>
