<?xml version="1.0" encoding="utf-8"?>
<!-- Generator: Adobe Illustrator 24.2.3, SVG Export Plug-In . SVG Version: 6.00 Build 0)  -->
<svg version="1.1" id="e625e9d5-d36d-47da-9acd-8f417af7d9a2"
	 xmlns="http://www.w3.org/2000/svg" xmlns:xlink="http://www.w3.org/1999/xlink" x="0px" y="0px" viewBox="0 0 1152 864"
	 style="enable-background:new 0 0 1152 864;" xml:space="preserve">
<path d="M951.5,443.6c-1.6-5.9-3.5-11.7-5.3-17.5c-3.4-11.4-6.7-22.8-10.2-34.1c-1.7-5.4-3.5-10.9-5.6-16.2
	c-2.1-5.3-4.7-10.9-6.4-16.6s-2.6-10.5-4.2-15.6c-1.6-5.1-2.7-8.1-4.2-12.1c-3.1-9.1-6.8-17.9-11.1-26.5
	c-4.1-7.8-9.6-14.8-14.1-22.4c-9.6-16.4-17-33.9-26.5-50.4c-8.6-14.8-19.3-30-34.5-38.6c-15.2-8.6-31-11.4-47.3-12.7
	c-10.3-0.8-20.6-0.8-30.9,0.2h-0.3c-22.5-9.8-45.1-19.5-68.5-27.3c-23.4-7.8-48.5-13.5-73.7-14c-12.7-0.3-25.5,0.9-38,3.3
	c-12.3,2.4-24.5,5.7-37,7.2s-25.7,1.1-38.6,1.3c-11.9,0.2-23.8,1.3-35.5,3.3c-23,3.9-45.3,11.3-66,22.1l-7.4,4.1
	c-0.5,0.3-0.9,0.7-1.3,1.1c-23.3,0.1-45.9,8.1-64.1,22.8c-26.3,21.7-37.6,55.4-54.8,83.7c-4.5,7.1-9.3,13.9-14.5,20.5
	c-5.5,7.1-11.1,14.2-14.8,22.4c-1.9,4.6-3.5,9.4-4.6,14.3c-1.1,4.8-2.6,9.4-4.5,13.9c-4,9.6-7.4,19.4-10.4,29.3
	c-3,9.9-5.9,19.8-8.9,29.6l-4.5,15.3c-1.7,5-3,10.2-3.8,15.4c-0.7,4.9-0.2,10,1.4,14.7c1.7,4.4,3.9,8.3,4.7,13
	c1.6,9-0.3,18.4,0.2,27.6c1.8,33.4,19.6,65.6,45.1,86.9l7.4,5.7c-0.8,7.3-1.5,14.6-2,21.9c-1,12.1-1.7,24.2-2.3,36.3
	c-0.3,5.6-1,11.5-0.5,17.1s3.3,11.8,9.6,13.1c12.8,2.6,20.9-13.8,24-23.5c3.6-11.2,3.9-23.1,4-34.7c0.1-11.6,0.2-25.6,2.2-38.4
	s6.2-26.4,9.3-39.7c1.6-6.6,2.5-13.3,2.9-20c0.1-6.6-0.3-13.2-1.4-19.7c-1.4-8.9-3.5-18.2-3.7-27.3c0.1-0.6,0.1-1.2,0-1.8
	c0-2.5,0.2-5.1,0.6-7.6c1.9-11.1,9-19.8,14.2-29.5c0.3-0.5,0.6-1.1,0.8-1.7c0.5,2.8,0.8,5.7,1,8.6c0.7,14.4-2.2,28.6-1.3,43
	c0.9,14.4,5.3,30.1,10.6,44.5c5.3,14.4,11.4,29.2,17.2,43.8c1,2.5,3.3,4.3,6.2,3.5s4.4-3.6,3.4-6.2c-5.2-13.2-10.6-26.4-15.6-39.7
	s-9.4-25.9-11.1-39.4c-1.7-13.5,0.3-28.1,0.7-42.2c0.4-14.1-2.7-26.4-6.7-39.2c-4-12.8-8.2-23.5-9.6-35.8
	c-1.4-12.3,1.2-26.5,5.4-39.1c8.3-24.5,20.5-48,34.4-69.7c7.7-11.9,16.1-23.3,25.2-34.2c7.2-8.6,20.7-23.4,9.3-34.3
	c-1.5-1.4-4.2-2-6-0.7L345,227.8c-10.3,7-20.8,13.8-30.2,22c-9.1,7.8-16.7,17.3-22.3,27.9c-5.3,10.7-8.7,22.2-10.1,34.1
	c-3.2,24.6,2.2,49.4,11.4,72.1c2.5,6.3,5.3,12.4,8.3,18.4s5.9,10.3,7.8,15.8c3.4,10.2-1.9,19.2-7.1,27.7c-2.8,4.4-5.4,9-7.6,13.7
	c-2.5,5.9-3.9,12.2-4.2,18.6v2.1c-17.8,32.4-26.2,68.9-30.9,105.6c-22.4-17.8-38.6-44.3-43-72.7c-1.2-7.6-0.9-16-0.6-24
	c0.3-5,0-10-0.8-15c-0.9-4.5-3-8.4-4.6-12.7c-3.4-8.9,0.4-18.4,3-27c2.6-8.6,5.8-19.6,8.8-29.4s5.7-19.3,9-28.8
	c3.3-9.5,7.6-18.1,9.9-27.7c0.9-4.2,2.1-8.4,3.8-12.4c1.9-3.9,4-7.6,6.5-11.1c4.9-7.1,10.5-13.7,15.5-20.6
	c18.8-26.2,28.4-58.5,50.2-82.6c21.8-24.1,53.2-34,83.4-28.3c3.8,0.8,7.6,1.8,11.3,3c2.7,0.7,5.5-0.8,6.2-3.5s-0.8-5.5-3.5-6.2
	c-4.2-1.3-8.5-2.4-12.8-3.2c16.4-8,33.7-13.9,51.5-17.6c10.8-2.3,21.8-3.7,32.8-4.2c12.6-0.7,25.3,0,38-0.8s25.6-3.4,38.2-6.2
	c12.6-2.8,23.8-4.6,36-5.1c24.5-0.8,48.8,3.8,72.2,10.9c21.1,6.5,41.6,14.8,61.9,23.5h-0.2c-3.4,0.8-6.7,1.7-9.9,2.7
	c-2.7,0.7-4.2,3.5-3.5,6.2s3.5,4.2,6.2,3.5c14.7-4.9,29-6.3,44.5-6.2c4.1,0.1,8.2,0.3,12.3,0.6c4.3,0.4,7.4,0.7,11.4,1.4
	c7.7,1.2,15.2,3.3,22.5,6.1l0.9,0.3l0.3,0.2h0.3l2.3,1l5.1,2.7l3.9,2.5l1.1,0.8l0.7,0.5l1.8,1.5c6.4,5.9,12,12.5,16.7,19.8
	c10.2,15.4,17.6,32.3,26.2,48.6c4.1,8.1,8.8,15.9,14,23.4c4.7,6.9,8.6,14.3,11.7,22c3.3,8.2,6.3,16.5,9,24.9
	c1.6,5.1,2.5,10.4,4.1,15.5c1.6,5.1,4.2,10.6,6.2,15.9c4.2,10.8,7.4,22,10.7,33.1c3.3,11.1,6.7,22.4,10.1,33.6
	c1,3.5,1.2,7.2,0.5,10.8c-0.8,4.3-1.8,8.5-3.1,12.6c-0.4,1.9-1,3.8-1.7,5.6c-1,2.5-2.3,5-3.2,7.6c-1.9,5.3-2.2,11.1-2.1,16.7
	c0.1,5.6,0.6,10.3,0.4,15.4c-0.2,4-0.8,7.9-1.8,11.8c-2.1,7.9-5.6,15.4-10.4,22c-9.6,14-23.6,25.7-37.5,35.6l-7.3,5.2
	c-6-32.4-15.2-64.1-29.4-93.8c-2.4-5-4.9-9.9-7.6-14.8c-0.5-0.9-1.2-1.6-2.1-2c-1-4.1-2.2-8.1-3.6-12.1c-3.9-11.6-6.5-22.9-6-35.2
	c0.3-6,1.1-11.3,3.7-16.7s5.8-10.9,8.4-16.5c5.4-11.2,9.8-22.8,13.1-34.7c3.1-11.8,5.5-24.4,4.5-36.5c-1.8-23.9-13.9-45.1-28.3-63.7
	c-6.6-8.6-13.3-17.2-21.5-24.3c-8.2-7.1-20.8-14.9-31.3-22l-16.6-11c-1.8-1.3-4.5-0.7-6,0.7c-10.2,9.9,0.1,23.7,7.1,31.8
	c8.8,10.1,17.5,20.4,25.7,31c8.4,10.8,16.3,22.1,23.4,33.8c3.4,5.7,6.5,11.5,9.5,17.4c3,5.9,5.9,12.2,7.5,18.7
	c1.5,6.5,2.3,13.2,2.1,19.9c0,7.1-0.2,14.4-0.7,21.5c-0.9,12.9-5.5,25.2-9.4,37.4c-2.1,6.5-3.9,13-5.3,19.7
	c-1.3,6.4-2.1,12.7-1.1,19.1c1,6.4,3.3,11.7,5.4,17.3s4.1,10.5,4.5,15.9c0.6,7.3-0.8,14.9-2.4,22c-1.8,8-4.1,15.8-6.9,23.5
	c-5.6,15.6-12,30.9-18.2,46.3c-1,2.5,1.1,5.5,3.5,6.1s5.2-0.9,6.2-3.5c5.4-13.7,11.1-27.4,16.3-41.3s9-26.4,10.8-40.4
	c0.7,5.7,1.1,11.5,1.3,17.2s0.3,13.8,1.3,20.7c1.9,12.9,6.3,25.2,9.1,37.9c2.7,13,4.1,26.2,4.2,39.4c0.2,11.6-0.1,23.2,1.6,34.7
	s5.4,22.5,13.5,29.7c4.7,4.2,11.5,6.7,17.1,2.7s5.7-9.1,5.6-14.5c-0.1-11.8-1.3-23.7-2.5-35.5s-2.7-23.4-4.6-35.1
	c29.2-19.8,62.3-45.5,65-83.5c0.7-10.4-2.1-21.2,1.4-31.2c0.9-2.4,2.1-4.7,3-7c0.8-2.2,1.5-4.4,2.1-6.7c1.2-4.2,2.2-8.5,3-12.8
	C952.3,453,952.8,448.2,951.5,443.6z M308.5,336.8c-4.4,12.1-7.7,24.8-7.6,37.8c-4.5-11.7-7.4-23.9-8.9-36.3
	c-2.3-23.2,2.1-47.5,16-66.7c7-9.7,16.6-17.5,26.3-24.4c9.7-6.9,22-14.9,33-22.3l12.4-8.3c-0.5,2.3-1.5,4.5-2.8,6.5
	c-3.1,4.9-7.2,9-10.8,13.4c-8.1,9.9-15.7,20.3-22.7,31C329.2,289.2,317.5,312.5,308.5,336.8z M264.5,654.7c0.2-5.5,0.7-12.3,1-18.5
	c0.9-13.5,2-26.9,3.5-40.3c0-0.3,0.1-0.5,0.1-0.8c1.1-10,2.5-20,4.3-30c4.1-22.6,9.9-45.1,19.4-66.1c0.8,5.4,1.8,10.8,2.5,16.2
	c0.8,6.2,1,12.4,0.4,18.6c-0.7,6.4-2,12.8-3.8,19c-3.4,13.1-6.9,26-8.6,39.5s-1.6,24.9-1.7,37.5c-0.1,10.9-0.6,22.1-4.6,32.4
	c-1.7,4.4-4.2,9.6-8,12.4c-1.2,0.9-2.7,1.8-4,1c-0.3-0.4-0.5-0.8-0.6-1.2c-0.4-1-0.5-2-0.5-3C263.6,665.8,264.3,660.2,264.5,654.7z
	 M825.3,311.4c-6.1-11.8-13.1-23.2-20.8-34c-8.8-12.5-18.4-24.4-28.2-36.1c-4.4-5.2-9.4-10.3-13.5-15.8c-1.9-2.4-3.3-5.1-4.2-8
	c-0.1-0.3-0.2-0.6-0.2-0.9l29.7,19.9c9.2,6.1,17.5,13.6,24.5,22.1c14.7,17.8,28.5,37.4,32.8,60.6c2.2,11.8,0.6,23.8-2.1,35.3
	c-1.6,6.8-3.6,13.4-6,19.9c0-0.8,0.1-1.7,0.1-2.5c0.3-6.9,0.6-13.9,0.3-20.8c-0.3-7-1.6-13.9-3.8-20.5
	C831.4,324,828.6,317.6,825.3,311.4z M873.5,674.9c-0.3,0.8-1.2,1.3-2,1c-0.1,0-0.1,0-0.2-0.1c-4.3-1.3-7.2-7.1-9-10.8
	c-2.1-4.7-3.6-9.6-4.4-14.7c-1.8-10.8-1.4-21.8-1.5-32.7c0-12.9-1.3-25.7-3.7-38.3c-2.4-12.9-6.8-25.3-9.2-38.1
	c-1-6.2-1.6-12.6-1.5-18.9c-0.2-4.8-0.4-9.6-0.8-14.3c15,34.2,23.5,71.5,28.5,108.4c1.6,11.9,2.8,23.8,3.6,35.8
	c0.4,5.6,0.8,11.3,0.9,16.9C874.4,671.1,874.2,673,873.5,674.9z"/>
</svg>
