<?xml version="1.0" encoding="utf-8"?>
<!-- Generator: Adobe Illustrator 24.2.3, SVG Export Plug-In . SVG Version: 6.00 Build 0)  -->
<svg version="1.1" id="ba64445f-d483-4b4a-9ccd-d8dab1dd8b75"
	 xmlns="http://www.w3.org/2000/svg" xmlns:xlink="http://www.w3.org/1999/xlink" x="0px" y="0px" viewBox="0 0 1152 864"
	 style="enable-background:new 0 0 1152 864;" xml:space="preserve">
<path d="M1032.1,341.2c-5.7-10.6-17.8-16.1-28.9-19.5c-14.8-4.5-30.4-7-45.6-10.2c-33-7.2-66.1-14.7-97.8-26.5
	c-30.2-11.2-58.5-29.3-90.6-34.7c-24.3-4.2-52.2,0-70.4,17.9c-2,2-3.9,4.2-5.6,6.5c-2.1,2.8-3.5,6.1-5.8,8.7
	c-4.5,5-11.9,3.5-17.6,1.9c-7.3-2.2-14.2-5.3-21.4-7.7c-8.2-2.7-16.5-4.9-25-6.6c-32-6.7-64.8-6.1-97-0.9
	c-16.1,2.4-31.9,6.4-47.1,12.1c-3.4,1.3-6.7,2.6-10,4.1s-8.2,4.7-10.3,2.3s-0.7-6.4-0.8-8.5c-0.1-3.4-0.7-6.9-1.9-10.1
	c-4.8-12.6-16.5-21.7-29.6-24.5c-15.4-3.4-31.4,0.4-45.7,6.5c-14.3,6.1-26.7,15-38.7,24.7c-4.1,3.3-8.1,6.6-12.4,9.6
	c-2.9,1.6-5.6,3.3-8.3,5.2c-6.3,3.2-13.1,5.4-20.1,6.5c-15.4,2.7-31.2,2-46.8,4.2c-14.4,1.9-28.5,5.5-42.1,10.6
	c-27.2,10.1-51.9,25.9-72.4,46.4c-5.1,5.1-10.1,10.6-12.6,17.5c-2.5,6.9-1.2,14.6,0.7,21.6c3.2,11,8.1,21.4,14.5,30.8
	c13.3,19.7,30.9,35.8,47.3,52.9c16.4,17.1,31.2,34.3,37.4,56.6c1.5,5.2,2.8,12.1,8.9,13.9c6.1,1.8,11.4-5.3,14.8-10.3
	c5-7.3,9.8-14.8,14.5-22.3c3.3-0.2,6.5-0.2,9.8,0.1l1.6,0.2c-1.5,0,0.1,0,0.6,0.1l3.1,0.7c1,0.2,2,0.5,2.9,0.9l0.6,0.2l1.6,0.8
	l2.3,1.5h0.1l0.4,0.3l1.3,1.3l0.7,0.9c-0.1-0.2-0.1-0.3,0.1,0l0.2,0.3l0.4,0.5c0.6,1,1.2,2.1,1.7,3.2l0.7,1.6
	c0.1,0.2,0.2,0.5,0.3,0.7l0.3,0.8c0.5,1.4,1,2.9,1.4,4.4c0.8,2.8,1.3,5.6,1.7,8.5c0.1,0.2,0.1,0.5,0.2,0.8c0.1,0.3,0.1,1.2,0.1,1.3
	l0.3,1.7c0.2,1.8,0.3,3.5,0.5,5.3c0.3,3.3,0.6,6.6,1,9.9c0.4,3.3,2.1,5.2,5,5c2.9-0.2,5.3-2.2,5-5c-1.4-12.9-1.8-26.1-7-38.1
	c-2-5.1-5.5-9.5-10.1-12.6c-4.1-2.5-8.6-4.1-13.4-4.7c-2.5-0.4-4.9-0.6-7.4-0.7l4.8-8.2c15.7-28,29.1-57.2,39.9-87.4
	c5.4-15.2,9.9-30.7,14.3-46.2c4.4-15.5,9.6-29.4,19.1-42c3.9-5.2,8.4-10,13.3-14.3c0.6-0.1,1.3-0.3,1.8-0.6l0.9-0.4h0.1l2.1-0.6h4
	l2.2,0.5l0.9,0.4h0.5l-0.4-0.2c0.7,0.3,1.3,0.6,1.9,1l1.9,1.1l0.8,0.6l0.2,0.2c1.1,1,2.2,2,3.2,3.1l0.3,0.3c0.1,0.2,0.3,0.5,0.4,0.7
	c0.5,0.6,0.9,1.2,1.2,1.9l0.8,1.6l0.3,0.7c0.2,0.4,0.3,0.9,0.5,1.4l0.6,2.5l0.3,1.3c0.1,0.3,0.1,0.6,0.1,0.9c0.1,0,0.1,0.3,0.1,0.4
	c0,0.1,0.1,0.7,0.1,0.8s0.1,0.9,0.1,1.3c0,0.4,0.1,2.1,0.1,3.1s-0.2,3.7-0.4,5.5c0,0.2-0.1,0.5-0.1,0.8c0,0.4-0.1,0.8-0.2,1.2
	c-0.1,0.9-0.3,1.9-0.5,2.8c-1.6,7.8-3.8,15.5-6.4,23.1c-1.3,3.8-2.6,7.5-4.1,11.2l-2.2,5.7l-0.3,0.5l-0.6,1.5l-1.2,2.8
	c-3.1,7-6.6,13.7-10.1,20.4c-7,13.1-14.2,26.1-20,39.7c-5.8,13.6-9.8,27.9-9.9,42.7c0,1.8,0.1,3.6,0.2,5.4c0.1,1.8,2.2,5.2,5,5
	s5.2-2.2,5-5c-0.2-3.7-0.2-7.3,0.1-11c0-0.9,0.1-1.7,0.2-2.6c0-0.4,0.1-0.8,0.1-1.2c0.1-0.2,0.1-0.5,0.1-0.7c0.3-1.9,0.6-3.7,1-5.5
	c1.5-7.2,3.6-14.1,6.4-20.9l0.9-2.3l0.3-0.6l0.7-1.5c0.7-1.7,1.5-3.4,2.3-5.1c1.6-3.4,3.3-6.9,5.1-10.3c3.4-6.7,7-13.4,10.6-20.1
	c7.8-14.4,14.5-29.3,19.8-44.8c2.7-7.8,5-15.7,6.7-23.7c1.6-8.2,2.2-16.8,0-24.9c-1.9-7.1-6.3-13.3-12.4-17.4
	c-2-1.4-4.2-2.5-6.5-3.2l4.2-2.4c12.6-6.6,28.7-11.6,40.8-1.5c9.4,7.8,14,20.3,17.9,31.6c2,6.1,11.7,3.5,9.6-2.6
	c-3.9-11.7-8.6-23.6-17-32.8c-8.4-9.2-22.6-13.8-36.1-11.1c-26.4,5.3-50.2,26.6-63.1,49.6c-7.8,13.9-11.7,29.4-16.1,44.6
	c-4.4,15.2-9.2,30-14.8,44.7c-11,29.2-24.5,57.3-40.4,84.2c-4.1,6.9-8.3,13.7-12.6,20.4c-2,3.1-4.1,6.2-6.2,9.3l-3.1,4.6
	c-0.6,0.6-1.1,1.3-1.4,2l-0.5,0.3c-1-2-1.3-4.7-1.9-6.7c-0.6-2-1.7-5.5-2.7-8.1c-2.1-5.3-4.6-10.4-7.5-15.3
	c-11.6-19.7-28.3-35.8-44.2-51.9c-15.9-16.1-32-32.9-41-53.8c-2.4-5.4-4.1-11.1-5.1-16.9c-1.2-8.2,2.3-14.2,7.8-20
	c9.6-10.3,20.4-19.4,32.2-27.1c23.9-15.9,51.1-26.3,79.5-30.3c14.9-2.1,30.2-1.7,45.1-3.9l1.8-0.3c-8,9-15.1,18.8-21,29.3
	c-13,22.7-22.1,47.3-31.9,71.5l-2,5.1c-0.4,0.9-0.8,1.7-1.1,2.6c-0.2,0.4-0.4,0.8-0.5,1.2l-0.3,0.7c0,0.1-0.1,0.2-0.1,0.3
	c-1.5,3.5-3.1,7-4.7,10.5c-3.1,7-6.5,13.8-10.3,20.5c-1.4,2.4-0.6,5.5,1.8,6.9c2.4,1.3,5.4,0.5,6.8-1.8c13.5-24,22.4-50.1,33-75.4
	c0.1-0.4,0.3-0.8,0.5-1.2c0-0.1,0-0.1,0.1-0.2l1-2.5l2.1-4.7c1.2-2.8,2.6-5.7,3.9-8.5c2.5-5.3,5.1-10.4,7.8-15.5
	c2.7-5.1,5.8-10.1,9-15c1.5-2.4,3.2-4.7,4.9-7l1.2-1.7h0.1l0.6-0.7l2.9-3.6c4-4.8,8.5-9.2,13.2-13.3l1.8-1.5l0.9-0.7l0.2-0.2l4-2.9
	l2.4-1.5l4.2-2.6l1.8-1c0.4-0.2,0.7-0.5,1-0.8l4.8-3.6c12.1-9.4,23.7-19.1,37.4-26.1c13.7-7,29.7-12.4,44.9-9.3
	c13,2.6,24.8,12.4,25,26.4c0,6,0.1,12.7,5.9,16.2s12.9,0.5,18.8-2.1c28.6-12.8,60.7-18,91.9-19.3c33.2-1.5,64.9,4.9,95.9,16.5
	c11.3,4.3,25.7,7.4,34.5-3.3c4.1-4.9,6.7-10.5,11.5-15c4.3-4,9.3-7.2,14.7-9.6c25.4-11.4,53.8-4.8,78.4,5.2
	c14.6,5.9,28.7,13,43.2,19.1c15.2,6.2,30.8,11.7,46.6,16.2c31.8,9.1,64.2,15.4,96.5,22.5c11.3,2.5,24.6,4.9,33.3,13.3
	c11.5,11.1,3.8,26-4.1,36.7c-20.5,27.8-43,54.3-65,80.9c-8.9,10.9-17.9,21.6-27,32.4c-1.1-3-2.1-5.9-3.1-8.9
	c-7.1-21.4-11.9-43.3-18-64.9c-6.3-21.8-14.1-43.1-23.4-63.8c-8-17.6-17-35-29.4-50c-6-7.3-13-13.7-20.7-19.1
	c-8.5-5.8-17.9-10-27.8-12.6c-5.1-1.2-10.2-2.2-15.4-2.9c-4.7-0.6-9.3-1.4-14.1-1.9c-4.8-0.6-9.7-0.5-14.5,0.1
	c-4.6,0.6-9,2.4-12.8,5c-8.1,5.5-14.5,13.2-18.3,22.2c-4.4,10.1-5.8,21.3-5.1,32.4c1.5,21.6,9.7,43,21.5,61.1
	c11.8,18.1,26.6,32.6,40.2,48.7c1.7,1.9,3.4,3.9,5,5.9s1.5,1.9,2.3,2.9c0.5,0.6,0.6,0.8,0.4,0.6l1.3,1.7c3,4.1,5.9,8.3,8.6,12.6
	c2.6,4.2,4.9,8.6,7,13.1c0.2,0.6,0.5,1.1,0.7,1.7l0.2,0.4c0.1,0.2,0.2,0.3,0.2,0.5l1.4,3.6c0.8,2.3,1.5,4.6,2.1,6.9
	c0.7,2.3,1.2,4.6,1.6,7l0.3,1.8c0,0.1,0,0.3,0.1,0.4v0.3c0.2,1.3,0.3,2.6,0.4,3.8c0.1,1.2,2.1,5.2,5,5s5.2-2.2,5-5
	c-1.5-20.3-10.7-38.8-22.5-55.1c-11.8-16.3-26.7-31.1-39.7-47l-2.4-3l-0.9-1.1l-0.2-0.3l-0.9-1.1c-1.5-2.1-3-4.1-4.4-6.2
	c-2.9-4.2-5.7-8.6-8.1-13.1c-1.2-2.3-2.4-4.6-3.5-7l-1.5-3.3c0-0.1-0.2-0.4-0.2-0.6c-0.1-0.2-0.2-0.3-0.2-0.5l-0.9-2
	c-1.9-4.9-3.5-9.8-4.8-14.9c-0.7-2.5-1.2-5.1-1.7-7.7c-0.5-2.6-0.5-2.4-0.7-3.6s-0.1-0.7-0.1-1l-0.3-2.2c-0.5-5.3-0.6-10.5-0.1-15.8
	c0-0.5,0.1-1.1,0.1-1.6c0.1-0.5,0.2-0.9,0.2-1.4c0.3-1.3,0.5-2.6,0.8-3.8c0.6-2.5,1.3-4.9,2.2-7.3c0.2-0.4,0.3-0.7,0.4-1.1
	c0.2-0.3,0.4-0.7,0.5-1.1c0.5-1,1-2,1.6-3c1.1-2,2.3-3.9,3.6-5.7h0.1l0.4-0.5l1.1-1.3l2.4-2.5l2.5-2.2l0.6-0.6l1.4-0.9
	c0.9-0.7,1.8-1.3,2.8-1.8l1.5-0.7l0.6-0.3h0.1c0.6-0.3,0.3-0.1,0,0.1l1.2-0.5l1.5-0.4l1.5-0.3l0.8-0.2c0.4,0,0.3-0.1,0.1-0.1h6.5
	c2.3,0.1,4.6,0.2,6.9,0.5l1.5,0.2h1.1l3.2,0.5l6,0.9c5.2,0.7,10.3,1.7,15.4,3c2.5,0.7,5,1.4,7.5,2.3l3.3,1.3l0.3,0.2l0.9,0.4
	l1.9,0.9c4,2,7.9,4.3,11.5,6.9l1.3,1l0.4,0.2h0.1l2.7,2.3c1.8,1.4,3.5,3,5.1,4.6c3.2,3.1,6.2,6.5,9,10l0.9,1.1l0.3,0.4l0.2,0.3
	l2.2,2.9c1.3,1.9,2.6,3.7,3.8,5.6c5,7.7,9.5,15.7,13.5,23.9c2.3,4.7,4.4,9.4,6.6,14.1c1.1,2.5,2.2,5.1,3.2,7.6
	c0.3,0.8,0.2,0.5,0.1,0.3c0.2,0.3,0.3,0.6,0.4,0.9c0.3,0.6,0.6,1.2,0.8,1.9c0.6,1.2,1.1,2.5,1.6,3.8c4.1,10.2,7.8,20.5,11.2,31
	c6.7,21.1,11.5,42.7,17.6,63.9c3,10.5,6.4,20.9,10.4,31c4,10.1,8.1,19.6,10.4,29.9c0.3,1.2,0.6,2.4,0.8,3.6c0.1,0.6,0.2,1.1,0.2,1.7
	c0.1,0.2,0.1,0.4,0.1,0.6c0.1,0.1,0.1,0.3,0.1,0.4c0.1,0.8,0.1,1.6,0.2,2.4l-2.8-0.7l-1.4-0.5l-0.3-0.2l-0.5-0.2l-2.4-1.3l-1.3-0.8
	l-0.7-0.4l-0.4-0.3c0-0.1,0-0.1-0.1-0.1l-0.7-0.6l-1.1-1l-2.1-2.3c-0.1-0.3-0.3-0.5-0.5-0.7l-0.9-1.4l-1.8-3l-2.9-5.9
	c-0.4-1-0.9-1.9-1.3-2.9l-0.6-1.4c-0.1-0.3-0.2-0.5-0.3-0.8c-0.8-1.9-1.6-3.8-2.3-5.8c-6.1-15.7-10.3-32-14.2-48.4
	c-3.9-16.4-7.2-32.8-11.6-49s-9.7-32.4-17.3-47.5c-3.7-7.6-8.1-14.9-13.3-21.6c-5.1-6.7-11.7-12.7-20-15c-2.1-0.6-4.3-0.9-6.5-1
	c-2.8,0-5,2.2-5,5c0.1,2.7,2.3,4.9,5,5h1.9l2.7,0.7l1.3,0.5l0.5,0.2l2.7,1.5l2.2,1.5l0.4,0.4c0.5,0.3,0.9,0.7,1.3,1.1
	c1.6,1.3,3,2.8,4.3,4.4l1.7,2.1l0.4,0.5l1,1.4c1.2,1.6,2.3,3.3,3.4,5c2.2,3.6,4.3,7.2,6.2,10.9c1.9,3.7,3.7,7.4,5.3,11.2
	c0.2,0.4,0.4,0.8,0.5,1.2h0.1c0.1,0.2,0.1,0.4,0.2,0.6l1.2,3c0.8,1.9,1.5,3.8,2.2,5.7c2.9,7.9,5.3,15.9,7.5,23.9
	c4.5,16.2,7.9,32.7,11.7,49c2,8.8,4.2,17.5,6.6,26.2c-5.3-1.1-11.1-0.6-16.3,0.3c-4,0.6-7.9,2.1-11.3,4.4c-3.2,2.3-6,5.2-8.2,8.5
	c-4.5,6.8-6.2,14.9-7,22.9c-0.4,4.2-0.6,8.3-1,12.5c-0.1,2.1-0.3,4.2-0.6,6.4c0,0.5-0.1,0.9-0.2,1.4v0.6c0,0.1,0,0.1-0.1,0.1
	c-0.1,1.1-0.3,2.1-0.4,3.1c-1.5,9.4-3.8,18.7-6.9,27.7c-0.9,2.6,0.4,5.5,3,6.4s5.5-0.4,6.4-3c0.1-0.2,0.2-0.5,0.2-0.7
	c2.6-7.5,4.7-15.3,6.1-23.1c1.5-8.2,2.5-16.5,3-24.8c0.1-1.9,0.2-3.9,0.4-5.9l0.3-2.5c0-0.1,0.1-0.6,0.1-0.8l0.3-1.6
	c0.3-1.9,0.7-3.8,1.3-5.7l0.7-2.1c0.2-0.3,0.2-0.6,0.3-0.9l0,0.1c0-0.1,0-0.1,0.1-0.2c0,0,0-0.1,0-0.1v-0.2c0-0.1,0.1-0.1,0.1-0.2
	c0.7-1.4,1.5-2.8,2.3-4.2l0.7-1.1l0.2-0.2l0,0l0,0l0.2-0.2c0,0,0-0.1,0.1-0.1c0.4-0.4,1.1-1.3,1.3-1.5l1.6-1.5h0.2l1.1-0.7l2.1-1.2
	c0.3-0.1,0.9-0.4,0.6-0.3l1.2-0.4l3.2-0.8l1.6-0.3h0.6c2-0.2,4-0.4,6-0.4h3.6c0.3-0.1,1.1,0.2,1.4,0.2l2.7,0.8l0.5,0.3l1.4,0.8
	l0.7,0.3c1.1,3.5,2.3,6.9,3.6,10.3c1.3,3.4,3.3,8.4,5.1,12.5c1.6,4,3.6,7.9,5.9,11.6c4.9,7.8,12.9,13.3,22,15
	c2.3,0.4,4.6,0.6,6.9,0.6c2.7-0.1,4.9-2.3,5-5c0.1-11-2.8-21.7-6.6-31.9c-1.4-3.8-2.8-7.5-4.3-11.2c22.2-26.3,44.1-52.8,65.6-79.7
	c10.7-13.3,21.9-26.5,31.8-40.4C1033.3,369.9,1039.6,355,1032.1,341.2z M832.2,341.1C832.9,341.6,832.4,341.3,832.2,341.1
	L832.2,341.1z"/>
</svg>
