<?xml version="1.0" encoding="utf-8"?>
<!-- Generator: Adobe Illustrator 24.2.3, SVG Export Plug-In . SVG Version: 6.00 Build 0)  -->
<svg version="1.1" id="e1e667e4-df8b-4f47-b61d-7f14e960934e"
	 xmlns="http://www.w3.org/2000/svg" xmlns:xlink="http://www.w3.org/1999/xlink" x="0px" y="0px" viewBox="0 0 1152 864"
	 style="enable-background:new 0 0 1152 864;" xml:space="preserve">
<path d="M422.7,249.2c-9.4-8.9-25.7-25.6-37.7-11.7c-10.6,12.3-13.2,30.5-15.1,46c-2.3,19-4,38-5.5,57c-1.8,22-3.1,43.9-4,65.9v0.6
	c-0.7,3,0.9,6.7,4.9,6.9c10,0.5,17.4-6.9,21-15.6c3.6-8.7,2.4-19.2,3.6-28.9c5.9,2.1,12.1,3,18.3,2.8c2.9-0.1,5.2-2.5,5.2-5.4
	c0-0.4-0.1-0.8-0.2-1.2c-3.2-12.1-5.1-24.4-5.7-36.9c4.5,2.4,8.8,5.3,12.6,8.7c2,2,5.3,2.1,7.4,0c2.4-2.5,3.5-6,3.2-9.4l2.2-0.3
	c2.1-0.4,4.1-1.1,6-2.2c7.3-4.3,11-12.9,9.1-21.2c-1.4-6.6-11.5-3.8-10.1,2.8c0.5,2.8-0.4,5.8-2.4,7.8c-2.7,2.8-5.4,2-8.8,2.9
	c-2.8,0.7-5,2.8-5.9,5.5c-0.1,0.4-0.1,0.9-0.1,1.3c-5.3-3.7-11.1-6.8-17.2-9.2c-3.3-1.3-6.7,1.9-6.7,5.1c0,13.8,1.6,27.5,4.6,40.9
	c-4.5-0.5-8.8-1.8-12.8-3.8c-3-1.5-6.8-0.3-7.7,3.1c-2.6,9.3-1.2,18.8-2.7,28.2c-0.8,4.6-3.1,10.1-7.1,12.8
	c1.5-32.2,3.7-64.4,7-96.5c1.5-15,2.3-30.6,7-45.1c1-3.3,2.3-6.5,3.9-9.5c1.2-2.4,3.8-8.2,7.1-8.4c3.3-0.2,6.3,3.7,8.2,5.1
	c1.9,1.4,5.8,4.6,8.6,7.1c12.2,10.9,22.4,23.8,30.2,38.2c3.2,5.9,12.3,0.7,9.1-5.3C444.4,273.1,434.5,260.3,422.7,249.2z
	 M430.7,327.8v-0.2C430.5,325.7,431,327.3,430.7,327.8z"/>
<path d="M777.1,385.5c-7.7,0.8-15.2-4.6-15.7-12.6c-0.1-3-2.7-5.4-5.8-5.2c-0.3,0-0.6,0.1-0.9,0.1c-3.3,0.7-7.1,1-10.3,2
	c-0.2-0.8-0.3-1.6-0.5-2.4s-0.4-4.1-0.5-6.2c0-5.5,2-11.8-3.6-15.2c-2-1.1-4.3-1.6-6.5-1.2c-3.1,0.3-5,2.4-7.8,3.2
	c-2.8,0.8-1.5,0.8-2.2-1.1c-0.7-1.9-0.1-3.1,0.1-4.4c0.5-3.4,1.2-6.6,0.8-10c-0.4-3.4-3-5.9-6.7-5.1l-14.6,3.6l-5.5,1.3
	c0.7-2.5,1-5.4,1.4-7.5c0.4-2.1,1.5-6.6,2.3-9.9c3.2-13.4,7.5-27,17.8-36.6c5.8-5.4,13.8-10.6,21.4-6.2c7.6,4.4,11,11.7,13.7,18.7
	c2.6,7.3,4.6,14.8,6.2,22.4c0.9,4.3,1.8,8.6,2.6,12.9c0.4,2.4,0.9,4.9,1.3,7.3c0.4,2.4,0.4,2.4,0.5,3.5c0.1,1.1-0.2,1.3,0.1,1.3
	c-4.8,3.2-2.1,12,3.8,9.6c8-3.2,6.7-11,5.5-18.1c-1.6-9.5-3.5-19-5.9-28.3c-3.7-14.9-9.8-32.5-24.7-39.5S712,268,703.7,280
	s-11.7,27.1-14.9,41.3c-1.4,6.3-7.1,18.8,1.6,22c4.1,1.5,9.4-0.8,13.4-1.8l9.7-2.3c-0.6,5.2-1.6,10.1,1.7,15.1
	c4.5,6.5,12.2,5.3,18,1.5c0,0.5-0.1,1-0.1,1.6c-0.2,2.5-0.2,5.1,0,7.6c0.4,3.7,0.6,8.4,2.6,11.7c3.3,5.5,10.4,4.1,16.4,2.6
	c2.8,7.9,9.4,14.3,17.5,16.2c0.7,0.9,1.8,1.6,2.9,1.8c3.6,1.1,7.4-0.6,9.1-3.9C783.4,390.3,781.2,385.2,777.1,385.5z"/>
<path d="M922.2,570.1c-15.1-9.9-27.8-23.9-39-37.9c-5.5-6.9-9.7-14-16.6-19.4c-0.5-0.4-1.7-0.9-1.9-1.6c0-0.2-0.1-0.3-0.1-0.3v-0.1
	c0.5-1.7,4.4-3.3,5.7-4.2l14.1-9.2c2.9-2,3.8-7.4,0-9.1c-10.5-4.6-21-9.1-31.4-13.9c-3.4-1.5-7.8-3.3-9.2-7.1c-1.4-3.8,2.4-11,5-15
	c1.2-1.7,1-5-0.8-6.4c-4.5-3.5-9.4-6.5-14.6-8.9l32.4-30.1c2-2,2.1-5.3,0-7.4c-10.1-8.8-21.9-15.4-34.6-19.6h-0.4
	c-3.5-25.2-12.4-49.9-24-72c-11.6-22.1-25-41.3-39-61c-5.5-7.9-11.2-17.9-21.2-20.6s-24,6.2-33.7,11l-69.8,34.2
	c-0.9-0.6-1.9-1-3-1.1c-2.8-0.3-3.4-8.3-4-10.3c-1.2-4.4-3.9-9-7.9-11.3c-3.7-2.2-8.3-1.9-11.6,0.8c-1.6,1.3-3,2.9-4,4.7l-0.2-0.4
	c-1.8-3.6-3.5-7.1-7.5-8.7s-9.4-0.3-13.5,1.9c-8.5,4.5-16.1,11.2-22.6,18.3c-1.4-2-2.4-4.4-2.8-6.8c-0.5-1.8-1.9-3.2-3.7-3.7
	c-4.9-1.4-9.6,0.1-13.7,2.9c-4.1,2.8-6.9,6.9-11,8.2c-4.1,1.3-7.1-4.1-9.6-6.9s-7.6-6.5-12.8-5.4c-5.2,1.1-7.8,5.2-10.3,9.4
	l-1.6,2.6l-0.5,0.8c-3.2-1.4-5.7-4.6-8.9-6.2c-3.2-1.6-7.7-0.8-10.4,1.8c-13-12.3-26.3-24.3-41-34.6c-8.1-5.7-16.6-10.6-25.6-14.7
	c-8.6-3.8-18.4-7.9-27.9-8.3s-17.2,6.9-23.2,14.2c-5.9,7.3-11.1,15.1-15.3,23.5c-9,17.5-14.7,36.5-20,55.4
	c-6.9,24.3-13.2,48.8-19,73.4c-14.6-0.7-29.1,2.1-42.5,8c-4,1.7-2.7,7,0,9c8.4,6.3,17.4,11.7,26.8,16.3c-4.6,3.3-8.6,7.3-7.5,12.7
	c1.1,5.4,4.2,8.8,6.3,12.6c2.1,3.8,2.5,4.7,3.8,7c-6,1.7-11.6,4.3-16.8,7.7c-2,1.3-2.9,3.6-2.4,5.9c0.9,4.5,6.8,7.2,6.6,11.5
	c-0.2,4.3-5.5,11.2-8.6,15.5l-23.7,32.1c-12.1,16.5-34.1,38.8-23.3,60.9c3,6.1,12.1,0.8,9.1-5.3c-4.9-10,2.5-21.5,8.2-29.6
	c7.5-10.7,15.4-21.1,23.2-31.6c7.8-10.5,16-19.8,22-30.6c2.4-4.3,4.3-9.2,3.5-14.2c-0.3-2.3-1.3-4.6-2.8-6.4
	c-0.5-0.7-1.1-1.4-1.8-1.9c5-2.6,10.5-4.4,16.1-5.2c3.5-0.6,4.6-5.1,3.2-7.8c-3.2-5.8-6.4-11.6-9.5-17.4c-0.5-0.8-2.4-3.4-2.3-4.2
	c0.1-0.8,1-1.4,2.1-2.2l8.1-5.8c4-2.8,3-7.8-1.2-9.6c-8.8-3.7-17.3-8.2-25.3-13.5c10.7-3.3,22-4.3,33.1-3.2c3.6,0.3,5.2-2.5,5-5.3
	c0-0.1,0.1-0.2,0.1-0.4c4.9-20.6,10.1-41.3,15.7-61.8c4.9-17.9,9.7-35.9,16.7-53.2c3.4-8.4,7.4-16.5,12.2-24.2
	c4.3-6.9,9.8-15.7,16.8-20.2s19.4,1.2,26.7,4.1c8.4,3.6,16.4,7.9,24,13c16.3,10.7,30.7,24.1,44.8,37.5c-2.9,6.4-5.2,13.1-6.9,19.9
	c-1.6,6.5,8.5,9.3,10.1,2.8c1.7-7.3,4.3-14.4,7.6-21.1c0.6-0.8,1.1-1.6,1.5-2.4c0.8,0.6,1.7,1.1,2.6,1.6c2.4,1.8,5.6,4.9,8.6,5.4
	c4.7,0.8,8.6-2.9,11-6.5c1.1-1.7,3.1-7.2,5.5-6.9c2.4,0.3,3.3,3.1,4.1,4.1c1.4,1.7,2.9,3.3,4.6,4.8c3.5,2.9,7.9,4.5,12.4,3.5
	s7.7-3.7,10.9-6.4c3.2-2.7,4.4-4.2,7-5c2,5,5.3,9.3,9.6,12.5c1.7,1.3,5,0.8,6.4-0.8c6.5-7.9,14.5-16,23.8-20.6
	c5.3-2.6,5.1,0.4,7.3,4.4s4.7,5.5,8.4,5.5s6.5-2.4,8.5-5.3c0.8-1,1.7-2.9,2.4-2.7c0.7,0.2,2.5,4,2.9,5.4c1.2,5,2.6,10.1,5.7,13.5
	l-1.1,0.5c-6,2.9-0.7,12,5.3,9l66-32.3c11-5.4,21.9-11.3,33.1-16.1c5-2.2,9.3-2.5,13.6,1.2s6.9,8.5,10,12.9
	c24.6,34.8,49.1,70.9,58.5,113.2c5.1,22.5,6.7,46.4,1.4,69c-0.3,0.9-0.3,1.8,0,2.7c-0.8,2.9,0.8,5.8,3.6,6.8
	c5.3,1.7,10.4,4.1,15,7.2c-5.1,9.6-7,20.6,3.1,28.3c5.2,3.9,11.6,6.1,17.4,8.7l13,5.7l-9,5.9c-3.8,2.6-7.5,5.7-7.9,10.6
	s2.2,7.6,5.4,10.2c1.8,1.2,3.5,2.6,5.1,4.1c1.9,2.3,3.6,4.7,5.2,7.2c13.2,17.7,28.7,35.2,47.3,47.4
	C922.6,582.9,927.9,573.8,922.2,570.1z M502.7,266.5C502.2,267,502.1,266.5,502.7,266.5L502.7,266.5z M832.1,391.4
	c7.9,2.9,15.3,7,22,12l-23,21.4C832.6,413.7,833,402.5,832.1,391.4z"/>
</svg>
