<?xml version="1.0" encoding="utf-8"?>
<!-- Generator: Adobe Illustrator 24.2.3, SVG Export Plug-In . SVG Version: 6.00 Build 0)  -->
<svg version="1.1" id="bf4645be-0ada-4b49-b8e2-8a26640e12f7"
	 xmlns="http://www.w3.org/2000/svg" xmlns:xlink="http://www.w3.org/1999/xlink" x="0px" y="0px" viewBox="0 0 1152 864"
	 style="enable-background:new 0 0 1152 864;" xml:space="preserve">
<path d="M446.5,293.8c-5.6-15.6-12.2-30.7-19.7-45.5c-7.3-14.6-15.5-28.7-24.6-42.2l-3.3-4.9c-2.3-3.3-6.4-3.2-8.7,0
	c-12.2,16.7-24.4,33.4-35.7,50.8c-11.3,17.4-21.5,35.3-29.6,54.2c-8.1,18.9-14.2,38.8-17,59.3s-2.3,41.2,2.6,61.2
	c4.4,17.8,12.7,35.2,26.1,48c1.6,1.5,3.3,3,5,4.3s5.1,2.2,7.1,0s2.2-5.3,0-7c-3.5-2.8-6.7-5.8-9.6-9.2l-1.9-2.3l-0.5-0.6l-1.1-1.4
	c-1.2-1.7-2.4-3.5-3.5-5.3c-2.4-3.8-4.4-7.8-6.2-11.9l-0.3-0.6c-0.2-0.4-0.4-0.9-0.5-1.4c-0.5-1.1-0.9-2.2-1.3-3.2l-2.1-6.4
	c-1.3-4.4-2.3-8.8-3.2-13.2l-0.6-3.7c-0.1-0.5-0.2-1.1-0.2-1.6c-0.1-0.4-0.1-0.7-0.2-1v-0.3c-0.3-2.4-0.6-4.8-0.8-7.2
	c-0.8-10-0.6-20,0.4-30c0.1-1.1,0.2-2.2,0.4-3.4c0-0.5,0.1-1.1,0.2-1.6c0,0,0,0,0-0.3c0,0,0,0,0,0c0.1-0.4,0.1-0.7,0.2-1.1
	c0.3-2.5,0.7-5,1.2-7.5c0.9-4.9,2-9.8,3.2-14.7c2.6-9.7,5.8-19.2,9.5-28.5c0.4-1.1,0.9-2.2,1.4-3.4l0.3-0.7l0.9-2
	c1-2.4,2.1-4.7,3.2-7c2.2-4.6,4.4-9.1,6.8-13.6c4.7-8.9,9.9-17.7,15.3-26.2c10.8-17.2,22.7-33.7,34.7-50.1
	c7.6,11.5,14.6,23.4,21,35.6c3.8,7.2,7.3,14.4,10.7,21.8c0.8,1.9,1.7,3.8,2.5,5.8l1,2.4c0.1,0.3,0.2,0.5,0.4,0.8l0.6,1.5
	c1.6,3.8,3.1,7.6,4.5,11.4c5.8,15.2,10.6,30.8,14.5,46.6c0.5,1.9,0.9,3.7,1.3,5.6c0.2,0.6,0.3,1.3,0.4,1.9c0.2,0.8,0.4,1.6,0.4,2.4
	c0,0.2,0.1,0.7,0.1,1s0.1,1.5,0.2,2.3v4.3c0,0.7-0.1,1.4-0.1,2c-0.1,0.3-0.1,0.5-0.1,0.8v0.6c-0.2,1.3-0.5,2.6-0.9,3.9l-0.3,0.9v0.2
	l-0.2,0.5l-0.5,1l-0.9,1.3h-0.1l-0.7,0.8l-0.6,0.5c-0.5,0.4-1,0.7-1.5,0.9l-0.3,0.2h-0.5c-0.7,0.3-1.4,0.4-2.1,0.5h-1l-1.7,0.3
	c-1.1,0.1-2.2,0.3-3.3,0.6c-2,0.7-3.8,1.8-5.3,3.3c-4.3,4.7-3.8,11.2-1.8,16.9c-0.8,0.1-1.6,0.2-2.4,0.3c-3.9,0.9-7.4,3.3-9.6,6.7
	c-2.1,3.2-3.3,7.2-4.7,10.8l-4.3,11.4c-1.4,3.4-2.7,6.9-4,10.4l-1.8,4.3c-0.3,0.8-0.6,1.6-1,2.4l-0.6,1.5c-2.5,5.9-5.5,11.6-9,17
	c-0.9,1.4-1.8,2.8-2.8,4.1c-0.4,0.6-0.6,0.7-0.6,0.7l-0.9,1.1l-1.6,1.8c-1.2,1.3-2.5,2.6-3.9,3.8l-1.9,1.6h-0.1l-0.2,0.2l-1.4,0.9
	c-2.1,1.5-3.3,4.5-1.8,6.9c1.5,2.4,4.6,3.4,6.9,1.8c10.9-7.7,18.4-18.8,24-30.7c5.6-11.9,11-27.2,16.2-40.8l0.6-1.3
	c0-0.2,0.1-0.3,0.1-0.5s0.1-0.1,0.2-0.3l1.2-2.3c0.1,0,0.1-0.1,0.1-0.2h0.2l0.6-0.6l0.6-0.4l0.5-0.2c0.7-0.3,1.5-0.5,2.3-0.6h1.6
	c1.8,0,3.6,0.1,5.4,0.3c3.8,0.3,6.2-4.6,4.3-7.6c-0.8-1.2-1.5-2.5-2.1-3.9l-0.2-0.4l-0.4-0.9c-0.2-0.8-0.4-1.5-0.6-2.3l-0.3-1
	c0-0.3,0-1.2-0.1-0.6c-0.1,0.6,0-0.2,0-0.5V383c0-0.3,0-0.6,0.1-0.7c0.1-0.1,0.2-0.4,0.2-0.6l0.2-0.3l0.3-0.3l0.4-0.3h0.7
	c0.4-0.1,0.9-0.2,1.3-0.3h0.4c1.3-0.1,2.5-0.2,3.8-0.5c3.3-0.6,6.3-2.1,8.8-4.3c4.7-4.1,6.5-10.5,7.2-16.5
	c0.6-6.1,0.1-12.3-1.4-18.3C456.9,324.9,452.2,309.2,446.5,293.8z M438.9,381.3c0-0.1,0-0.1,0.1-0.1h0.1L438.9,381.3z"/>
<path d="M930.7,706.2c-10.2-15-16.4-32.3-18.2-50.3c-0.1-2.7-2.3-4.9-5-5c-2.8-0.3-4.8-3.3-6-5.5c-2-3.7-3.6-7.7-4.7-11.8
	c-2.9-9.1-4.7-18.5-5.5-28c-0.9-9.6-1.2-19.2-2.2-28.8c-0.8-6.3-2.7-12.4-5.6-18.1c-6.2-12.8-15.1-24.1-22.9-35.9
	c-3.9-5.6-7.2-11.5-10.1-17.6c-2.1-5.2-2.8-10.8-6.2-15.4c-6.1-8.3-15.6-9.1-24.9-11.3l-2.7-0.8l-0.8-0.2L815,477l-1-0.6h-0.1
	l-0.2-0.2l-0.5-0.5c-0.2-0.3-0.4-0.7-0.6-1c0-0.2,0-0.3-0.1-0.5c-0.1-0.5-0.2-0.9-0.3-1.4c0-0.1-0.1-0.8-0.1-1
	c-0.1-0.8-0.1-1.6,0-2.4c0.1-2.6,0.5-5.2,0.8-7.7c3.3-26.6,7-53.1,7.8-79.9c0.6-13.8-0.2-27.7-2.1-41.4c-0.8-5.9-2.2-11.7-4.2-17.4
	c-2.5-6.9-6-13.4-9.3-19.9c-15.5-30.5-34.1-59.5-55.3-86.4c-10.6-13.3-22-26-34.1-37.9c-6.1-5.9-12.4-11.7-18.8-17.2
	c-4.4-4-9.2-7.5-14.4-10.4c-9.3-5.1-19.8-11.5-30.8-9.6c-11,1.9-12.8,14.8-12.9,24.6c-0.5,29.9-7.9,58.8-16.9,87.1
	s-20.7,58.6-32.4,87.4l-6.4,15.9l-0.4-0.2c-1.3-0.3-2.6-0.2-3.9,0.1c-1.7,0.5-3.3,1.5-4.5,2.8l-1.2,1.3H573l-0.8,0.5l-0.6,0.3h-0.1
	l-1.6,0.4h-2.6l-0.8-0.3h-0.4l-0.6-0.3c-3.3-1.7-7.6,0.4-7.5,4.4c0,0.3-0.1,0.6-0.1,0.9c-6.6-3.9-14.2-6.2-20.7-10.3
	c-1.1-0.7-2.5-0.9-3.8-0.5c-1.2,0.4-2.3,1.2-3,2.3c-1.4,1.7-2.4,3.7-3.1,5.8c-0.9-0.2-1.8-0.3-2.7-0.2c-0.1-0.4-0.2-0.8-0.4-1.1
	c-11.4-24.7-21.3-50-31.5-75.4c-12-29.9-23.9-59.7-36.9-89.1c-5.4-12.4-11-24.6-17.2-36.6c-4.6-8.8-9.4-17.6-15.5-25.4
	c-3.7-4.8-8.7-10.7-15.3-10.9c-3.1,0-5.4,1.7-7.5,3.7c-2.1,2-5.2,5.6-7.7,8.4c-18,21.2-34.6,43.7-51.3,66
	c-7.1,9.4-14.1,18.9-21.2,28.4c-6.5,9.2-12.1,19.1-16.6,29.4c-7,15.2-13.1,30.8-18.3,46.7c-4.8,14.4-9.2,29.2-11.4,44.3
	c-2.2,15.1-0.7,30.8,0.8,46c2,19.1,4.9,38.3,10.3,56.7c1.1,3.8,2.3,7.6,3.8,11.3c0.6,1.7,1.3,3.3,2,5l-2.2,0.5
	c-2.7,0.5-5.3,0.7-8,1.3c-6.2,1.3-11.7,4.5-12.3,11.3s-1.8,14.5-2.7,21.8c-0.6,3.4-0.9,6.9-0.8,10.4c0.2,4.8,0.8,9.6,0.7,14.4
	c-0.4,8.1-2.4,16.1-5.9,23.5c-4,8.2-9.3,15.8-14.5,23.2c-3,4.3-6,8.5-8.8,12.9s-4.2,8.6-2.5,13.3c2.4,6.4,9,10,15.6,11.8l-8.6,28.6
	c-2.9,9.7-5.4,19.7-10,28.7c-2.3,4.3-5.4,7.9-7.9,12s-2.3,9.8,0.6,14.7c5,8.6,6.7,18.3,4.1,28c-1.7,6.2,7.9,8.9,9.6,2.7
	c2.8-10.1,1.9-20.8-2.3-30.4c-1-2.1-2.1-4.2-3.3-6.2c-1.3-2.3-0.5-3.3,1-5.3c2.9-3.9,5.5-8,7.7-12.3c4.5-9.3,7.2-19.3,10.2-29.2
	s6.7-22.4,10-33.7c0.7-2.3-0.8-5.7-3.5-6.1c-4.6-0.7-16.7-3.4-13.1-10c4.8-8.6,11.4-16.3,16.7-24.6c5.3-8.3,8.8-14.4,11.5-22.4
	c2.8-8.7,3.9-17.9,3.3-27c-0.5-3.6-0.6-7.2-0.5-10.8c0.3-3.7,0.8-7.4,1.3-11c0.5-3.6,1.2-8.1,1.7-12.1c0.2-1.3,0.3-2.7,0.4-4v-0.5
	c0.1-0.1,0.2-0.3,0.2-0.4c0-0.1,0-0.1,0.1-0.1h0.2l1-0.6l3.5-0.9l7.9-1.3c5.5-1,11.5-4.1,10.1-10.7c-0.7-2.9-2.5-5.8-3.5-8.7
	s-2.5-7.4-3.6-11.1c-2.5-8.9-4.4-17.9-5.9-27c-3.1-18-5-36.3-5.5-54.6c-0.4-12.7,2.2-24.3,5.6-36.8c4.3-16,9.5-31.7,15.7-47
	c5.1-12.9,10.6-25.8,17.7-37.8c4.7-8.2,10.9-15.6,16.5-23.2c16.5-22.1,33-44.3,50.3-65.9c5.9-7.4,11.7-15.1,18.5-21.7l1.1-1
	l-0.5-0.2h0.7c0,0,0.3,0.1,0.3,0.2h-0.3l0.5,0.2l1.3,0.9c-1.5-1,0.4,0.3,0.8,0.7c0.4,0.4,2.2,2.2,3.2,3.4l1.2,1.5l1.5,2.1
	c2.7,3.7,5.1,7.6,7.3,11.6c6,10.4,11.2,21.2,16.3,32.1c12.8,27.6,24.1,55.7,35.5,83.9c11.4,28.2,21.5,54.1,33,80.8
	c2.2,5,4.4,10,6.7,14.9c0.4,0.8,1,1.5,1.8,1.9l-1.5-0.3c-1.1-0.3-2.3-0.6-3.5-0.7c-2-0.1-4,0.4-5.7,1.5c-1.9,1.2-3.3,3-3.9,5.2
	c-0.8,2.9,0.5,5.9,3.1,7.3c2.4,1.4,5.4,0.6,6.9-1.7c0.3-0.6,0.5-1.3,0.6-2l1.5,0.4c1.9,0.5,3.8,0.5,5.7,0c2.1-0.6,3.8-1.9,5-3.7
	c0.2-0.3,0.3-0.7,0.4-1h0.2l0.7,0.8c0.2,0.2,0.9,1.1,0.2,0.1c1.2,1.9,3.4,2.8,5.6,2.3c1.9-0.6,4-2.6,3.7-4.8
	c-0.2-1.1-0.2-2.2-0.1-3.3c0-0.1,0-0.3-0.1-0.4c0,0,0,0.1,0.1,0.1c0-0.5,0.1-1.1,0.3-1.6c0-0.1,0.1-0.1,0.1-0.2
	c6.8,3.4,14.2,5.8,20.3,10.4c1.8,1.3,4.6,0.6,6.1-0.8c1.6-1.5,2.8-3.4,3.6-5.4c4.7,0.5,9.5-1,13.1-4l1.3-1.2l0.2-0.2l2.2,0.8
	c1.4,0.3,2.8,0.4,4.2,0.3c2,3,4.8,5.4,8.2,6.7c2.1,0.8,4.3,1.2,6.4,1.8l1.6,0.6l0.6,0.3l0.7,0.4h0.3l0.3,0.5c0,0,0-0.1,0-0.1
	c1.5,2,4.4,3.2,6.7,1.7c2.4-1.5,3.4-4.6,1.8-6.8c-1.4-2.2-3.4-3.9-5.8-5c-2.2-0.9-4.5-1.7-6.8-2.2l-1.4-0.3l-0.8-0.3h-0.6l-0.8-0.5
	l-0.6-0.4h-0.3l-0.6-0.8c-0.1,0-0.1-0.2-0.2-0.3v-0.4c0.5-1.9-0.1-4-1.7-5.2l-0.9-0.5c10.3-25.6,20.7-51.1,29.9-77
	c10.3-29.4,19.7-59.5,23.7-90.4c0.8-6.7,1.3-13.4,1.4-20.2c0-5.3-0.2-10.2,1.2-14.7V154h0.1l0.5-1l1.1-0.9l0.4-0.2l1.7-0.4
	c1.1-0.1,2.3-0.2,3.4-0.1h1.8c0.8,0.4,1.7,0.7,2.6,0.9c1.9,0.7,4.2,1.8,6.5,2.9c5.1,2.3,10,5,14.7,8l1.1,0.7h0.2l0.5,0.5l5.1,4.2
	c3.1,2.7,6.2,5.4,9.2,8.2c12.5,11.5,24.3,23.8,35.3,36.8c21.8,25.7,40.4,54,56.4,83.7c6.7,12.3,13.7,24.2,16.8,37.8
	s3.4,25.5,3.3,38.4c-0.1,27.2-3.6,54.3-7,81.2c-1.2,9.2-4.8,22.1,3.5,29.1c3.3,2.8,7.5,4,11.7,4.8l6.2,1.2l3,0.8l1.4,0.4l0.9,0.3
	h0.1c3.7,1.3,6.6,4.4,7.7,8.2c1.7,6,4,11.7,6.9,17.2c6.8,12.4,15.7,23.5,23.1,35.5c3.4,5.4,6.8,11,8.9,17s2.4,13.9,2.9,21.4
	c1.4,19.3,3.2,38.5,11.1,56.4c2.5,5.6,6.2,10.6,11.7,12.7c2.3,18.5,8.9,36.1,19.2,51.6C925.6,716.6,934.3,711.6,930.7,706.2z
	 M291.4,472.3v0.3C291.7,472.3,290.9,474.8,291.4,472.3z M596.2,362.3v0.2C596.2,362.4,596.1,362.3,596.2,362.3z"/>
<path d="M751.3,489.2c2.4-0.8,4.5-3.5,3.5-6.2l-22.2-61.4c-1-2.9-4.4-4.9-7.3-3l-1.7,0.9l-0.8,0.4h-0.1l-3.4,1h-3
	c-1-3.9-2.4-7.8-4-11.5c-2.3-5.1-5.8-9.5-10.2-12.8c-4.3-3.3-9.4-5.3-14.5-7.1l-17.1-6.2l-17.2-6.2l-8.1-2.9h-0.3l-0.5-0.2l-1.3-0.7
	l-0.8-0.5l-0.3-0.2c-0.1-0.2-0.7-0.9-0.7-0.7l-0.6-1.1c-0.1-0.4-0.2-0.8-0.4-1.2c0-0.3-0.1-0.5-0.1-0.7v-1.8c0-0.1,0-0.3,0.1-0.3
	s0.1-0.7,0.1-1.1c0.2-0.7,0.3-1.3,0.4-2c0.3-1.3,0.6-2.6,0.8-4c1.1-5.4,2.2-10.8,3.4-16.1c4.6-22.3,9.6-44.4,13.4-66.8
	c1.9-11.7,3.6-23.4,4.7-35.2c0.6-5.9,1-11.8,1.3-17.7l0.3-3.6c0.1-0.4,0.1-0.7,0.1-1.1h0.1c0.1-0.8,0.2-1.7,0.4-2.5
	c0.5-3.5,1.3-6.9,2.4-10.2c0.2-0.8,0.5-1.5,0.8-2.2l0.6-1.1c0.2-0.4,0.5-0.8,0.7-1.3c2.2,1.4,4.2,3,6.2,4.5l0.2,0.2l0.9,0.6l2.1,1.7
	l3.8,3.1l6.3,5.3c2.1,1.9,4,3.9,6,6c3.5,3.7,6.9,7.6,10.2,11.4l4.6,5.7l2.1,2.6l1.1,1.4c0.3,0.3,0.3,0.4,0.3,0.3l0.4,0.6
	c2.8,3.8,5.6,7.6,8.3,11.5c5.1,7.4,9.8,15.1,14.2,23c4.4,7.9,8.4,16,12.2,24.3c2,4.3,3.9,8.6,5.7,12.9l0.6,1.4h0.1l0.3,0.8l1.5,3.5
	l2.7,6.8c7.7,19.1,15.4,38.5,20.4,58.6c1.2,5,2.2,10.1,3,15.3l0.3,1.9c0,0.1,0,0.2,0,0.2c0,0,0-0.1,0-0.1c0.1,0.3,0.1,0.6,0.1,0.9
	c0.2,1.3,0.3,2.6,0.5,3.9s0.4,5.2,0.4,7.8c0.1,5-0.1,10-0.6,14.9c-0.1,0.3-0.1,0.6-0.2,0.9s-0.1,1.1-0.2,1.6s-0.5,2.6-0.8,3.9
	s-1.2,4.7-1.9,7.1c-0.7,2.4-0.8,2.3-1.3,3.5c-0.1,0.4-0.3,0.8-0.5,1.2c0.1-0.2,0,0,0,0.2c-0.1,0.1-0.1,0.1-0.1,0.2
	c0,0.1-0.3,0.5-0.4,0.8c-1,2.3-2.2,4.6-3.5,6.7c-1.4,2.4-0.6,5.5,1.8,6.9c2.4,1.4,5.5,0.6,6.9-1.8c11-18.9,12.4-40.9,9.4-62.2
	c-3-21.3-10.6-41.4-18.3-61.3c-7.7-19.9-14.5-36.9-23.5-54.6c-8.5-16.9-18.6-33.1-30.2-48.1c-6.2-8-12.9-15.8-19.9-23.2
	c-3.8-3.9-7.9-7.5-12.2-10.9l-8.7-6.9c-2-1.6-4-3-6.2-4.3c-2.9-1.6-5.9-1.8-8.8,0.1s-4.9,5.6-6.3,9c-2.6,6.5-3.7,13.8-4.3,20.8
	c-0.4,5-0.6,10.1-1,15.2s-1.2,11.9-2,17.9c-0.2,1.7-0.2,1.9-0.4,3.5c-0.2,1.6-0.5,3.1-0.7,4.6s-0.9,5.9-1.4,8.8
	c-0.9,5.7-1.9,11.4-3,17.1c-2.2,11.5-4.6,22.8-7,34.2s-4.8,22.3-7,33.5c-0.5,2.6-1.1,5.3-1.6,8c-0.5,3.2-0.2,6.6,1.1,9.6
	c2.5,5.9,7.9,8.2,13.5,10.3l35.3,12.6l7.9,2.9l0.8,0.4h0.2l1.7,0.9c1.3,0.5,2.5,1.1,3.6,1.9l1.6,1l0.7,0.5c0,0.1,0.1,0.1,0.2,0.2
	c1,0.9,1.9,1.8,2.8,2.8l0.3,0.3l0.3,0.4l1,1.5c0.7,1.1,1.3,2.3,1.9,3.4l0.6,1.4c0.1,0.2,0.4,1.1,0.5,1.2l1.2,3.5
	c0.7,2.3,1.3,4.7,1.9,7.1c0.5,1.7,1.8,3,3.5,3.5c4.7,1,9.5,0.7,14-0.8c6.7,18.7,13.4,37.3,20.2,56
	C746.1,488.2,748.6,490.1,751.3,489.2z"/>
<path d="M829.4,674.2c0-0.1,0-0.1-0.1-0.2s-0.5-1.5-0.8-2.2c-0.5-1.4-0.9-2.8-1.2-4.3c-0.1-0.7-0.3-1.4-0.4-2.1s-0.1-0.7-0.2-1.1
	c-0.1-1.5-0.3-3-0.3-4.5s0-2.9,0.1-4.3s0.1-1.4,0.2-2.2c0-0.1,0.1-0.2,0.1-0.3c0-0.3,0.1-0.7,0.2-1c0.5-3,1.3-5.9,2.5-8.6
	c0.7-1.9-0.4-4.2-1.8-5.3c-1.5-1.2-3.7-1.4-5.4-0.5l-0.2-0.2l-0.2-0.3l-0.2-0.4c0-0.1,0-0.1-0.1-0.1V636v-0.3
	c0.1-0.1,0.1-0.3,0.2-0.5c0-0.2,0.1-0.5,0.2-0.7c0-0.2,0-0.3,0.1-0.3c0.2-0.4,0.4-0.8,0.6-1.2c1-1.8,2.2-3.5,3.3-5.2
	s2.7-5.3,1.7-8.2s-3.2-4.3-5.2-6.1s-6.7-6.3-9.9-9.7s-6-6.8-8.9-10.3l-4.4-5.5l-0.9-1.2c-0.1-0.1-0.1-0.1-0.1-0.2l-0.5-0.6l-2.2-2.8
	L778,559.6l-20.4-27.4c-1.6-2.1-4.4-3.4-6.9-1.8s-3.4,4.6-1.8,6.8c12.4,16.6,24.8,33.3,37.3,49.9c5.8,7.9,12,15.5,18.6,22.8
	c3.2,3.5,6.6,6.9,10.1,10.1l2.5,2.2h0.1c-0.1,0.3-0.3,0.6-0.5,0.9l-1.8,2.8c-3.1,4.8-5,10.5-2.1,15.8c1.1,2,2.8,3.6,4.8,4.7
	c-2.7,11.3-1.6,23.2,3.3,33.7c1.1,2.4,4.7,3.1,6.8,1.8s3-4.3,1.8-6.9L829.4,674.2z M818.2,621.3
	C818.2,621.1,818.6,620.5,818.2,621.3L818.2,621.3z M822.7,637.8l-0.2-0.2C823,637.7,823.1,638.1,822.7,637.8z"/>
<path d="M364.9,515.3c-2.3-0.5-5.7,0.8-6.1,3.5c-2.3,16.2-6.4,32.1-12.1,47.5c-0.8,2-1.5,3.9-2.3,5.8c-0.3,0.8-0.6,1.6-1,2.4
	c0,0.2-0.3,0.7-0.3,0.9c-0.3,0.5-0.5,1-0.7,1.6c-1.7,3.8-3.5,7.5-5.3,11.1c-3.7,7.3-7.8,14.4-12.2,21.2c-3,4.6-5.4,10.2-2.8,15.4
	c1.2,2.2,3.1,4,5.4,5l-0.6,0.9c-0.1,0.1-0.2,0.2-0.2,0.3c-2.6,3-5.4,5.8-7.7,9c-1.2,1.7-2.1,3.5-2.8,5.4c-0.9,2.7-0.7,5.4-0.6,8.2
	c0.1,1.3,0.1,2.5,0,3.8v0.2c0,0.2-0.1,0.5-0.1,0.6c-0.1,0.6-0.2,1.2-0.4,1.8c-0.1,0.5-0.3,1-0.5,1.5l-0.3,0.9
	c-0.5,1.1-1.1,2.1-1.7,3.1c-0.7,1.2-1.4,2.4-2.3,3.5c-0.1,0.2-0.2,0.4-0.4,0.6l-0.4,0.5c-0.4,0.6-0.9,1.1-1.3,1.6
	c-1.8,2.2-3.8,4.2-5.8,6.3c-1.9,1.9-1.9,5.1,0,7c2,1.9,5.1,1.9,7.1,0c7.6-7.8,15.5-16.8,16.2-28.3c0.1-1.3,0-2.6-0.1-3.9
	c-0.1-0.8-0.1-1.5-0.1-2.3v-1.2l0.3-1.1c0-0.1,0-0.2,0.1-0.3c0-0.1,0-0.1,0.1-0.2v-0.1c0.4-0.8,0.8-1.5,1.3-2.2l0.3-0.4h-0.1
	c0.1-0.1,0.1-0.1,0.1-0.2s0.1,0,0.1-0.1l0.2-0.2l0.5-0.6l2-2.2l3.6-4.1c3.2-4,5.5-8.9,3.7-14.1c-0.9-2.7-3.9-4.5-6.6-3.3
	c-0.1-0.1-0.1-0.1-0.1-0.2c-0.1,0-0.1,0-0.1-0.1h0.1c0-0.1,0-0.2-0.1-0.2v-0.2h0.1c0-0.3,0.1-0.6,0.2-0.9c0-0.2,0.1-0.4,0.2-0.6
	c0.1-0.1,0.1-0.2,0.1-0.3l0.3-0.5l0.8-1.4c1-1.7,2.1-3.3,3.2-5c4-6.5,7.7-13.2,11.1-20c6.9-14,12.4-28.6,16.4-43.7
	c2.2-8.4,3.9-16.9,5.1-25.5C369.2,518.8,367.6,516.1,364.9,515.3z M330.9,620C330.8,619.9,330.9,619.9,330.9,620L330.9,620z"/>
</svg>
