<?xml version="1.0" encoding="utf-8"?>
<!-- Generator: Adobe Illustrator 24.2.3, SVG Export Plug-In . SVG Version: 6.00 Build 0)  -->
<svg version="1.1" id="fb2824e9-2a51-4b9c-b607-167d621de382"
	 xmlns="http://www.w3.org/2000/svg" xmlns:xlink="http://www.w3.org/1999/xlink" x="0px" y="0px" viewBox="0 0 1152 864"
	 style="enable-background:new 0 0 1152 864;" xml:space="preserve">
<path d="M596.2,281.7c-7.9,2.7-14,8.4-20.3,13.6l-2.1,1.7c0,0.1,0,0.1-0.1,0.1l-0.4,0.3l-1.2,0.9c-1.6,1.2-3.2,2.2-5,3
	c-0.4,0.2-0.8,0.4-1.3,0.6l-0.6,0.3l-3.2,1l-2.8,0.6h-0.8l-1.6,0.2h-6.7l6.8-11.2c3.3-5.5,6.2-10.9,6.8-17.3
	c1.1-11.7-5.7-22.9-14.5-29.9c-5.5-4.1-11.5-7.4-17.8-9.8c-3.3-1.4-7.5,2.8-6.1,6.1c0.6,1.5,1.1,3,1.5,4.6c0.1,0.8,0.3,1.6,0.5,2.4
	c-0.5-1.3-0.1,0,0,0.4c0,0.3,0,0.7,0.1,1c0.1,1.6,0,3.3-0.1,4.9c-0.1,0.1-0.1,0.3-0.1,0.4c0,0.3-0.1,0.7-0.2,1
	c-0.1,0.8-0.3,1.6-0.5,2.4s-0.4,1.6-0.7,2.4c-0.1,0.3-0.2,0.7-0.4,1c0,0.1-0.1,0.2-0.1,0.4c0,0.2-1.5,2.9-2.3,4.3l-0.6,0.8l-0.3,0.4
	c-0.4,0.7-0.9,1.3-1.5,1.9l-1.6,1.5l-1,0.9l-0.5,0.4h0.1c-2,1.6-3.3,4.4-1.7,6.8c1.6,2.4,4.6,3.5,6.8,1.8
	c10-7.4,15.6-19.5,14.6-31.9c1.4,0.9,2.8,1.7,4.1,2.7c0.3,0.1,0.5,0.3,0.7,0.5l0.6,0.4c0.1,0.1,0.2,0.1,0.2,0.2l0.8,0.6
	c1,0.8,1.9,1.7,2.8,2.7l2.1,2.3c0,0.1,0.6,0.9,0.7,1.1l1.2,1.8c0.6,1,1.1,2.1,1.6,3.1l0.3,0.8l0.6,1.9c0.2,0.6,0.3,1.1,0.4,1.7
	c0.1,0.3,0.2,0.7,0.2,1c0,0.1,0.1,0.2,0.1,0.3c0.1,1.1,0.2,2.2,0.1,3.3v1.3c-0.1,0.1-0.1,0.2-0.1,0.3c-0.1,0.3-0.1,0.7-0.2,1
	c-0.3,1.3-0.7,2.5-1.2,3.7v0.2c-0.1,0.3-0.2,0.6-0.4,0.8c-0.3,0.7-0.6,1.4-1,2c-0.6,1.2-1.3,2.4-2,3.5c-3.6,5.9-7.1,11.8-10.7,17.6
	c-1.8,3,0.1,6.3,3,7.4c8.7,3.2,18.3,3.2,27-0.1c4.2-1.6,8.2-3.9,11.7-6.7c2.1-1.7,4.2-3.4,6.2-5.2l-2.8,3
	c-5.1,5.2-10.2,10.4-15.2,15.7c-9.9,10.7-19.6,21.9-26.5,34.8c-4,7.2-6.9,15-8.7,23c-0.4,2.7,1.4,5.3,4.1,5.7
	c2.3,0.4,4.6-0.9,5.5-3.1c0.8-3.5,1.8-6.9,3-10.3l0.9-2.3l0.3-0.8v-0.2l0.4-0.9c0.7-1.6,1.5-3.1,2.3-4.7c0.8-1.6,3.5-6.2,5.4-9.2
	l3-4.4l1.6-2.2c0.3-0.3,0.5-0.6,0.7-1c0.2-0.1,0.4-0.5,0.6-0.7c9-11.5,19.4-21.8,29.6-32.4c6.5-6.7,14.2-14.4,12.1-24.7
	C601.6,282.5,598.9,281,596.2,281.7z"/>
<path d="M494.6,339.4C494.6,339.4,494.6,339.4,494.6,339.4l-0.1-0.3C494.2,338.5,494.5,339.5,494.6,339.4z"/>
<path d="M487.1,312.2c-3.6-3.3-7.6-6.1-11.9-8.5c-2.3-1.2-5.6-0.6-6.9,1.8c-1.3,2.4-0.6,5.6,1.8,6.9c1.7,0.9,3.4,1.9,5,3l2.2,1.6
	h0.2l0.3,0.3l1.1,0.9c3,2.6,5.7,5.4,8.2,8.5h0.1c0.1,0.1,0.1,0.1,0.1,0.2l0.9,1.2l1.7,2.4c1,1.7,2,3.3,2.9,5l1.2,2.6
	c0.1,0.1,0.6,1.1,0.6,1.3l0.2,0.5c0.7,1.8,1.3,3.7,1.9,5.5l0.6,2.3c-3.6-1.5-7.5-2.4-11.4-2.6c-4.4-0.2-6.4,5.6-3.5,8.6
	c1,1,1.9,2,2.8,3.1h0.1c0,0.1,0.1,0.1,0.1,0.2l0.5,0.7c0.4,0.6,0.9,1.2,1.3,1.9c0.7,1.2,1.4,2.4,2,3.6l0.9,1.9c0.1,0,0.1,0,0.1,0.1
	l0.4,1.2c0.9,2.4,3.5,4.3,6.2,3.5s4.4-3.6,3.5-6.2c-0.9-2.6-1.1-2.8-1.8-4.1l0.5,0.3h0.2l1,0.8c2,1.9,5.1,1.9,7.1-0.1
	c0.9-0.9,1.4-2.1,1.4-3.4C507.7,339.9,500,323.8,487.1,312.2z"/>
<path d="M749.3,401.7v0.3h0l-25-15.1c4.1-1.1,8.2-2,12.3-2.7c3.8-0.6,4.8-6,2.2-8.4c-10.5-9.7-24.5-12.8-38.3-14.5
	c0.3-0.6,0.6-1.1,1-1.6l0.4-0.6l0.5-0.5l1.5-1.8l3.5-3.6c2.3-2.2,4.7-4.3,7.2-6.2l0.9-0.7l0.3-0.3l2-1.4l4-3c2-1.5,3.1-3.8,2-6.2
	s-3.4-3.4-5.9-2.9c-13.4,2.4-26.3,6.8-38.3,13.1c-12,6.3-23,14.5-32.6,24.2c-5.4,5.6-10.4,11.6-14.8,18c-1.4,2.3-0.6,5.3,1.7,6.7
	l0.1,0.1c2.4,1.4,5.4,0.6,6.8-1.8l2.8-3.9l0.7-0.9c0.1-0.1,0.2-0.2,0.2-0.3s1.1-1.3,1.6-1.9c2-2.5,4.2-5,6.4-7.3s4.5-4.6,7-6.8
	l3.6-3.1l1.8-1.5l0.9-0.7c0.3-0.3,1.1-1,0.4-0.3c2.3-2.2,5.3-3.9,7.9-5.6s5.6-3.5,8.5-5.1c2.9-1.6,5.7-3,8.7-4.4l2.1-0.9
	c0.1,0,0.1,0,0.1-0.1h0.1l1.3-0.5l3.4-1.4c-4.2,4.3-7.7,9.3-10.1,14.8c-0.7,1.7-1,3.3,0,5c0.9,1.5,2.5,2.4,4.3,2.5l5.7,0.6l3,0.3
	h0.2l1.6,0.2c3.7,0.5,7.3,1.3,10.9,2.2l5.2,1.6l1.5,0.6h0.4l1.8,0.9l-1,0.2c-4.1,1.2-9.9,2.6-11,7.5c-0.7,3.3,0.9,6.1,3.5,7.9
	s3.8,2.3,5.6,3.4l11.3,6.8l13.1,7.9c2.4,1.4,5.5,0.6,6.9-1.9C752.6,406.2,751.8,403.1,749.3,401.7z"/>
<path d="M965.7,496.8c-6.2-27.5-18.3-53.4-35.3-75.9c-3.7-4.8-7.6-9.5-11.7-14l0.7-0.5c2.4-1.7,3.2-4.3,1.8-6.9
	c-11.2-22-28.5-40.4-49.8-52.9c-3.2-1.9-6.4-3.6-9.8-5.2l6.8-4.3c2.4-1.5,3.2-4.6,1.7-7c-0.2-0.3-0.4-0.6-0.7-0.9
	c-3.7-4.1-8-7.7-12.7-10.6c-4.8-2.9-10-4.5-15.2-6.5s-5-4.5-4-8.3s5.7-8.1,9.3-11.3c1.6-1.6,1.9-4,0.8-6
	c-3.3-5.8-7.9-10.7-13.5-14.3c-2.8-1.9-5.7-3.3-8.9-4.4l-2-0.7h-0.1c0.1-0.3,0.2-0.5,0.2-0.8c0.9-2.8,2.2-5.3,2.2-8.3
	c-0.1-3.5-1.9-6.8-4.9-8.7c-5.5-3.7-12.6-2.5-18.8-3.7c-1.7-0.2-3.4-0.8-4.9-1.6c-0.9-0.5-1.7-1.2-2.3-2.1c-0.6-0.8-1-1.6-1.2-2.6
	v-1c0-0.2,0.1-0.4,0.1-0.6s0.6-0.8,0.6-0.8c3-4.4-2.8-9-6.9-6.9l-21.4,11.5c-4.3-4-8.9-7.7-13.3-11.6c-2.3-2.1-4.5-4.2-6.6-6.4
	l5,0.4c2,0,3.8-1.2,4.6-3.1c0.7-1.7,0.5-4.2-1-5.4c-14.6-12-30.7-21.8-48-29.3l-2.3-0.9h2.2c2-0.2,3.9-0.3,5.9-0.2
	c2.5,0,4.6-1.9,4.9-4.3c0.3-2.5-1.2-4.8-3.6-5.5c-29.8-10.2-61.6-13.2-92.8-8.6c-5.6,0.8-11.2,1.9-16.7,3.2l0.3-0.4
	c0.5-0.9,1-1.8,1.6-2.6l0.3-0.3V166l1.1-1.2c0.7-0.8,1.5-1.6,2.4-2.3l0.4-0.3l0.2-0.2l1.3-0.9c0.9-0.6,1.9-1.1,2.9-1.5
	c2-1.1,2.9-3.5,2.3-5.7c-0.7-2.1-2.6-3.6-4.8-3.7c-16-0.2-31.7,4.4-45.1,13.1c-3.9,2.6-7.6,5.5-11,8.7l-0.4,0.5
	c-3.5-1.5-7.2-2.8-10.9-3.7c-10.5-2.7-21.4-3.5-32.2-2.2c-0.5-1.5-1.8-2.6-3.3-2.9c-21.1-5.2-43.1-4.9-64,1c-2.6,0.7-4.1,3.4-3.4,6
	c0.1,0.4,0.3,0.8,0.5,1.2c-22,9.9-42.4,22.8-60.7,38.5c-3.1,2.7-1,7.2,2.2,8.4c3.2,1.2,3.8,9.3,2.8,13.2c-1,3.9-2.8,8.4-4,12.6
	l-18.1-21c-2.3-2.7-6.2-1.5-7.9,1c-6.5,9.4-11.1,20-13.3,31.2l-0.4-0.5c-1.8-2.1-3.6-4.3-6.1-5.7c-3.1-1.8-6.9-1.6-9.8,0.4
	c-3.9,2.7-5.6,8.3-7.1,12.6c-5.3,15.8-5,33,0.9,48.6c-16,4.2-31,11.2-44.6,20.6c-4,2.8-2.6,9.1,2.5,9.3c2.1,0.1,4.2,0.5,6.2,1.1
	c-28.3,20.7-51.1,48.1-66.4,79.6c-4.7,9.7-8.7,19.8-12,30.1c-0.3,1.2-0.1,2.4,0.4,3.5c-8.8,6.6-19,10.8-29.8,12.5
	c-4.1,0.6-5,7.4-1.2,9.1c9.8,4.3,20.5,6.3,31.2,5.9c-3.8,17.6-2.6,35.9,3.7,52.8c1.4,3.6,7.2,5.5,9.2,1.2l1.3-2.8
	c1.9,3.1,2.2,8.4,2.7,11.5c1.4,8.4,3.2,16.7,5.4,25c4.5,16.4,10.6,32.3,18.2,47.5c4.3,8.6,9.2,17,14.5,25c3,4.4,11.2,1.7,9.2-3.9
	c-0.3-0.7-0.5-0.5,0.3-1.2c0.6-0.6,1.5-1,2.4-1c2.2-0.1,4.2,2.4,5.4,4.1c4.1,6.2,6.8,13.6,9.2,20.5c5.3,15.2,8,31.1,8.2,47.2
	c0,5,6.6,6.6,9.3,2.5c8.3-13.2,15-27.4,19.9-42.2c0.5,0.3,0.9,0.7,1.3,1.2c1.4,1.4,4.3,2,6,0.7c7.8-5.4,13.8-13,17.3-21.8
	c1.8-4.3,2.4-8.6,3.4-13.1s4.3-6.2,7.8-8.7c12.9-9.1,20.5-23.2,24.1-38.3c1.8,2.6,4,4.9,6.4,6.9c1,0.9,2.3,1.5,3.6,1.5
	s2.6-0.6,3.5-1.5c1.7-1.8,2.2-5.3,0-7.1c-1.4-1.1-2.7-2.3-3.9-3.7l-0.7-0.9c0-0.1-0.1-0.1-0.1-0.2l-0.2-0.2
	c-0.6-0.7-1.1-1.5-1.6-2.3l-1.3-2.4l-0.4-1c0,0,0,0,0,0c-0.1-0.1-0.1-0.1-0.1-0.2c0,0,0,0.1,0.1,0.2c0-0.1-0.1-0.1-0.1-0.2
	c0,0,0,0,0,0c0-0.1,0-0.1,0,0c-0.1-0.1-0.1-0.2-0.1-0.3c-0.7-1.7-1.2-3.5-1.6-5.3c-0.1-0.6-0.4-1.2-0.8-1.7
	c0.3-5.4,0.4-10.8,0.2-16.1c1.1,0.2,2.2-0.1,3.1-0.7c2.1-1.3,3.5-4.6,1.8-6.8c-4.5-6.2-8.5-12.8-11.9-19.7c-0.8-1.7-1.5-3.4-2.3-5.2
	l-0.3-0.6c-0.1-0.4-0.3-0.9-0.5-1.3c-0.3-0.8-0.7-1.7-1-2.6c-1.3-3.7-2.5-7.4-3.5-11.1c-0.8-2.7-3.6-4.2-6.3-3.5
	c-0.4,0.1-0.7,0.3-1.1,0.5c-1.1,0.7-2.1,1.5-3,2.5c-0.1-0.1-0.1-0.1-0.1-0.2l-0.3-0.8c-0.6-1.3-1.1-2.7-1.7-4
	c-2-5.4-3.9-10.8-5.5-16.3c-1.6-5.5-3-10.8-4.2-16.4c-0.6-2.8-1.2-5.6-1.7-8.5l-0.6-4l-0.3-2.1c-0.1-0.4-0.2-0.7-0.2-1.1v-0.3
	c-0.1,0-0.1-0.1-0.1-0.2c-0.8-6.4-1.4-12.7-1.6-19.1c-0.2-3.3-3.7-6.2-6.8-4.8v-0.4c0.7-3.9,1.5-7.8,2.5-11.7
	c1.8-7.7,4.2-15.2,7.1-22.5c0.4-1.1,0.8-2.1,1.3-3.2c0-0.1,0-0.1,0.1-0.2c0-0.2,0.2-0.4,0.2-0.5l0.6-1.5c0.9-2.1,1.9-4.1,2.9-6.2
	c1-2.1-0.3-7.5-4.3-7.5h-2l0.8-1.1c0,0,0,0,0,0l0,0h0c0,0,0.1-0.1,0.1-0.1l-0.1,0.1h0.2l0.8-1l1.7-2c1.2-1.2,2.4-2.5,3.6-3.6
	c1.2-1.2,2.5-2.3,3.9-3.3c0-0.1,0-0.1,0.1-0.1l0.2-0.2l0.9-0.7l2.3-1.6c2.9-1.8,5.8-3.4,8.9-4.8l0.5-0.2h0.1l1.2-0.4l2.7-1l5.8-1.6
	c3.8-0.8,4.6-5.7,2.2-8.3c-1.5-1.6-3.2-3.1-5-4.4l7.3-2c3.1-0.7,6.2-1.3,9.3-1.8h1.7l2.3-0.2l5.1-0.4c1.8,0,3.4-1,4.3-2.5
	c0.4-0.7,0.6-1.6,0.7-2.4l3.9,1.8c7,3.5,13.7,7.7,19.9,12.4l0.4,0.3h0.1l1.3,1l2.6,2.2l5,4.4c1.9,2,5.1,2,7.1,0c1.9-2,1.9-5,0-7
	c-12.1-11.6-26.3-20.7-41.8-27c-4.2-1.7-8.5-3.2-12.9-4.4c-2.4-0.6-4.9,0.6-5.9,2.9c-0.9,2.3,0,5,2.1,6.3l0.6,0.5h0.1l1.4,1.2
	l0.9,0.8c-10.1,1.4-20,4-29.4,8c-2,0.8-3.8,2.4-3.7,4.8c0,2.3,1.5,4.2,3.7,4.8l1.9,0.7h0.4l0.7,0.3l1.7,0.8
	c-10.9,4.3-20.4,11.3-27.8,20.4c-2.7,3.4-5.1,7.1-7.2,11c-1.3,2.5-0.4,5.6,2.1,6.9c0.7,0.4,1.4,0.6,2.2,0.6h3.2
	c-5.5,12.7-9.6,25.9-12,39.5c-0.9,4.9-1.5,9.8-2,14.7s4.5,6.4,7.5,4.3l1.3-0.9c1.7,20.5,6.2,40.7,13.4,60c2.4,6.4,5.2,12.7,8.1,18.9
	c1.2,2,3.5,2.9,5.7,2.3c1.2-0.4,2.3-1.3,3-2.4c2.7,7.3,6.1,14.3,10,21c1,19,2,39.4-6.2,57.2c-3.4,7.4-8.3,14.5-15,19.3
	c-3.6,2.7-7.5,4.9-10.2,8.6s-2.7,8.4-3.7,12.8c-1.9,7.9-6.2,15-12.3,20.4c-2-1.3-4.4-2.2-6.8-2.5c-2.7-0.4-5.2,0.6-6.1,3.5
	c-3.2,10.5-7.3,20.7-12.3,30.5c-1.7-14.8-5.6-29.3-11.4-43c-3.4-8.1-7.4-18.3-16.6-21.2c-4.2-1.2-8.6-0.3-12,2.4
	c-16.6-27.5-27.6-58.1-32.4-89.9c-1.2-7.3-4.3-16.8-12.8-18.1c-1.1-0.1-2.2,0-3.3,0.3c-3.3-14.4-2.9-29.5,1.3-43.7
	c1.2-4-2.5-6.7-6.1-6.2c-5.2,0.8-10.4,0.9-15.6,0.3c9.8-4.2,18.7-10.4,26-18.2c1.9-2.2,1.6-5.5-0.5-7.3c-0.9-0.8-2-1.2-3.2-1.3
	c11.3-31.2,30-59.2,54.5-81.6c7.4-6.8,15.4-13.1,23.8-18.7c2.4-1.6,3.1-4.8,1.5-7.2c-0.4-0.6-0.9-1.1-1.5-1.5
	c-1.9-1.1-3.8-2.1-5.8-3c11.6-6.6,24.2-11.5,37.3-14.4c3.4-0.7,4.3-4.6,3-7.3c-6.5-14.2-7.6-30.3-2.9-45.2c0.5-1.8,1.2-3.5,1.9-5.2
	c0.3-0.7,1.2-2.3,1.5-3.1h0.1c0,0.1,0,0.1,0.1,0.1l1.2,1.3c3.9,4.2,7.1,8.4,13.2,9.1c2.9,0.3,4.7-2.6,5-5
	c1.2-10.1,4.4-19.9,9.5-28.8l21.7,25.2c3.4,4,9.6-0.3,8.4-4.8c-1.2-4.5,0.6-9.4,2.1-13.8c1.5-4.4,3.1-8.6,3.5-13.3
	c0.4-4.7-0.9-10.9-4.2-14.9c18.2-14.9,38.6-27,60.5-35.9c2.4-0.8,3.8-3.2,3.5-5.7c11.6-2.3,23.4-2.8,35.1-1.5
	c-5.5,1.7-11,3.8-16.3,6.1c-1.8,0.8-2.6,3.3-2.4,5c0.3,2,1.7,3.6,3.6,4.2c1.7,0.4,3.4,0.9,5.1,1.6h0.4l1.1,0.6
	c0.8,0.3,1.6,0.7,2.3,1.2c-28.6,8.2-54.1,24.6-73.5,47.2c-6.2,7.1-11.6,14.8-16.3,23c-1.2,2-0.9,4.5,0.7,6.1
	c1.7,1.5,4.1,1.9,6.1,0.8c3.5-2.4,7.3-4.5,11.2-6.2l1.1-0.5l1.3-0.5l2.8-1.1c2-0.7,4.1-1.3,6.1-1.8s4.2-1,6.3-1.4l2.4-0.4
	c-9,7.8-16.4,17.3-21.7,28c-1.4,2.4-0.6,5.5,1.8,6.9c2.2,1.2,5.6,0.7,6.8-1.8c1.9-3.7,4-7.3,6.3-10.7c0.6-0.8,1.1-1.6,1.7-2.3l0.7-1
	l0.7-0.8c1.2-1.6,2.5-3.1,3.9-4.6c2.7-2.9,5.6-5.7,8.7-8.3l1.3-1l0.3-0.2l0.3-0.2l2.2-1.7l5.4-3.5c1.9-1.1,2.9-3.4,2.3-5.6
	c-0.7-2.1-2.6-3.6-4.8-3.7c-11.9-0.8-23.9,1-35.1,5.1c0.1-0.1,0.3-0.3,0.4-0.5c0.1-0.1,0.3-0.4,0.4-0.5l2-2.5
	c5.1-6,10.6-11.7,16.5-16.9l4.6-4l2.3-1.7c0.2-0.2,0.1-0.1,0-0.1l0.3-0.2l1.4-1c3.2-2.4,6.5-4.6,9.9-6.8c3.4-2.2,6.7-4,10.2-5.8
	l5.5-2.7l2.4-1.1l1.4-0.6l0.5-0.2h0.2c8.3-3.5,16.8-6.1,25.6-7.9c3.8-0.8,4.8-5.9,2.2-8.4c-2.7-2.7-5.7-5.1-9-7c3-1,6-1.8,9-2.6
	c3-0.8,6.8-1.5,10.3-2h2.1l2.3-0.2c2-0.2,3.9-0.3,5.9-0.3c3.4-0.1,6.8,0.1,10.2,0.4h1.2c0.2,0.1,1.6,0.2,0.3,0.1l2,0.3l5.1,1
	c3,0.7,5.9,1.6,8.8,2.7l2.2,0.8h0.3l0.9,0.4l4.5,2.2l4.4,2.6c0.8,0.5,1.6,1,2.3,1.6l0.7,0.4l0.8,0.7c2.7,2.1,5.3,4.5,7.6,7.1
	c2,1.9,5.1,1.9,7.1,0c1.9-2,1.9-5.1,0-7.1c-4.3-4.8-9.3-8.8-14.8-12.1c2.7-2.4,5.6-4.6,8.7-6.4c2-1.3,4.1-2.5,6.3-3.6l2.9-1.3
	l0.8-0.4h0.1l1.7-0.7c3.9-1.5,7.9-2.6,12-3.5c-3.1,4.5-5,9.7-5.7,15.1c-0.4,3.3,3.5,5.6,6.3,4.8c7.3-2.1,14.7-3.7,22.2-4.9l2.8-0.5
	l1.2-0.2h0.7l5.8-0.7c3.8-0.4,7.6-0.6,11.4-0.8c7.6-0.3,15.1-0.1,22.7,0.5c7.2,0.5,14.3,1.5,21.3,2.9l4.8,1.1l-3.8,1.8
	c-2.4,1.5-3.1,4.6-1.6,7c0.6,1,1.7,1.8,2.8,2.2c4.3,1.4,8.5,3,12.6,4.7l0.7,0.3l1.6,0.7l3.3,1.5l5.9,2.9c7.6,3.8,15,8.1,22,12.9
	c-3.3,0.4-5.2,4.6-3.5,7.5c6.3,10.6,16.3,18,25.4,26c2.3,2,4.5,4.1,6.5,6.3c1,1,2,2.1,2.9,3.2l1.4,1.6c0.3,0.3,0.6,0.7,0.8,1.1
	l0.2,0.2l0.2,0.2c3.6,4.9,6.8,10.2,9.4,15.7c0.4,0.7,0.7,1.5,1.1,2.3c0,0.2,0.1,0.4,0.2,0.5c0.1,0.3,0.2,0.7,0.4,1
	c0.6,1.6,1.2,3.1,1.7,4.7c0.2,0.6,0.4,1.1,0.5,1.7l-7.8-2.2c-4.6-1.4-8.5,4.9-4.8,8.3c2.8,2.6,5.5,5.4,7.9,8.4l0.9,1.1l0.4,0.4
	l1.8,2.5c1.1,1.6,2.1,3.2,3.1,4.8c2,3.3,3.8,6.7,5.3,10.2c0.1,0.2,0.2,0.3,0.2,0.5h0.1c0.1,0.5,0.3,1,0.5,1.5l1.1,2.7
	c0.6,1.8,1.1,3.6,1.6,5.4s0.6,2,0.8,2.9c0.1,0.5,0.2,0.9,0.2,1.4c0.1,0.3,0.1,0.5,0.1,0.8s-0.1,0.9,0,0.9c-0.1,0.2-0.1,0.3-0.1,0.5
	l-0.3,0.5h-0.1l-1.3,1.3l-0.7,0.6h-0.1l-3.2,2.3c-2.5,1.9-5.2,4.1-6,7.4c-0.4,1.9-0.2,3.9,0.5,5.7c0.6,1.2,1.5,2.1,2.7,2.6l1,0.4
	h0.2l0.9,0.4l1.6,0.7c1.8,1,3.6,2,5.3,3.2l1.3,0.9l0.5,0.3l0.4,0.3l2.3,1.9c1.5,1.4,3,2.8,4.3,4.4h0.1c-2.1,1.9-3.7,4.2-4.6,6.9
	c-1.7,5.1-1.4,10.6,0.9,15.5c1.3,2.6,2.8,5,4.6,7.3l1.9,2.4l0.5,0.7v0.2h0.1l2.7,3.8c0.7,1.1,1.3,2.2,1.9,3.4c0,0.1,0.2,0.4,0.2,0.6
	c0,0.2,0.1,0.3,0.2,0.5c0.3,0.6,0.5,1.3,0.6,2c0,0.3,0.1,0.6,0.2,0.9c0.1,0.6,0.1,1.1,0.1,1.7c0.1,0.6,0.1,1.3,0,1.9v0.8
	c-0.1,0.2-0.1,0.4,0,0.6c-0.2,1.3-0.6,2.5-1,3.7l-0.3,0.8l-0.3,0.5c-0.2,0.6-0.5,1.2-0.9,1.7l-0.9,1.5l-0.2,0.3l-0.8,1l-1.5,1.5
	l-0.6,0.5c1-0.9-0.3,0.2-0.6,0.3c-2.1,1.5-3.3,4.5-1.8,6.8s4.6,3.4,6.9,1.8c9.6-6.4,14.5-19,11.1-30.3c-0.9-2.8-2.2-5.5-3.9-7.9
	c-0.7-1.1-1.5-2.2-2.3-3.2l-1.8-2.4l-0.4-0.5l-0.6-0.8l-2.4-3.4c-0.7-1-1.9-2.4-2.1-3.7c-0.2-0.5,0-0.3-0.1-0.6
	c-0.2-0.4-0.3-0.9-0.4-1.4v-0.2c0-0.2-0.1-0.3-0.1-0.5v-1.6c0-0.3,0-0.6,0.1-0.9l0.3-1.7c0.1-0.2,0.2-0.4,0.2-0.6
	c0.1-0.1,0.1-0.2,0.1-0.3l0.8-1.3v-0.2l0.2-0.2c0.1-0.1,0.3-0.2,0.4-0.4c0.1,0,0.1,0,0.1-0.1l0.4-0.2h0.8c3.6-0.1,6.5-4.2,4.3-7.5
	c-5.5-8.3-13-15-21.9-19.4c-0.4,0.4-0.5,0.4-0.4,0.2l0.4-0.2c0-0.1,0-0.1,0.1-0.1h-0.1l2.3-1.6c1.9-1.3,3.7-2.8,5.2-4.5
	c2.2-2.6,3.3-6.1,2.9-9.5c-0.5-6.3-2.9-12.5-5.4-18.3c-2.2-5.3-5-10.3-8.2-15.1l-1.7-2.3c3.7,0.8,6.6-2.7,5.9-6.2
	c-2.5-12.4-7.7-24.2-15-34.6c-1.7-2.5-3.6-4.8-5.5-7.1l11.1-6c0.9,2.6,2.3,4.9,4.2,6.9c5.6,5.6,13.8,5.9,21.1,6.5h2.3l1.7,0.4
	c0.8,0.1,1.5,0.4,2.1,0.9c0,0.1,0,0.1,0.1,0.2c0,0.3,0,0.2-0.2,0.7c-0.4,1.5-0.9,2.9-1.5,4.3c-1.2,3.3-1.2,6.9,1,9.8
	c2.2,2.9,5.7,3.6,8.9,5c5.2,2.2,9.6,5.8,12.9,10.3c-3.7,3.5-7,7.4-8.6,12.4s-0.9,13.2,3.9,17.4c4.8,4.2,11.2,4.8,16.6,7.5
	c3.3,1.7,6.5,3.9,9.3,6.4l-9.4,5.9c-3.9,2.5-2.8,7.6,1.2,9.2c21.1,8.4,39.3,22.5,52.7,40.8c2.9,4.1,5.6,8.3,8.1,12.7l-1.9,1.3
	c-2.6,1.9-3.4,5.4-1,7.9c18.7,19.2,33,42.2,42,67.4c1.7,4.9,3.3,9.9,4.6,15c-1.5,0.4-2.7,1.7-3,3.3c-1.7,10.3-5,20.2-10,29.3
	c-2.5,4.8-5.1,9.4-7.9,14s-4.7,8.4-7.8,11.9c-1,1.4-2.4,2.4-4,3c-0.8,0.1-1.6,0.1-2.4,0c-1.4-0.2-2.9-0.1-4.3,0.4
	c-5.4,1.9-5.8,7.8-6.9,12.6c-2.1,9.8-6.4,18.9-11.6,27.5c-3.5,5.6-7.4,10.9-11.4,16.2c-0.6-1.4-1.3-2.8-2.2-4.1
	c-2.1-3-6.5-3.4-8.6,0c-11.6,19.2-26,36.5-42.8,51.4l-8.4-11.4c-1.7-2.3-5.7-3.8-7.9-1s-6.1,7.8-10.3,8.8s-5.4-1.5-6.3-4.5
	s0.2-8.6,2.2-12.7s5.6-10.1,8.1-15.3c1.5-3.1,2.9-6.2,4.2-9.4l1.1-1c1.1-1.3,1.6-3,1.3-4.7c6.3-16.4,10.4-33.6,12.4-51.1
	c1.4-12.8,1.5-25.7,0.3-38.5c-0.2-2.3-1.8-4.2-4.1-4.8c0.6-11.8,0.6-23.5,0-35.3c-0.2-4-0.5-7.9-0.9-11.8c-0.4-3.9-0.4-8-1.3-11.8
	s-5.5-7.3-9.6-5s-4.9,8.5-0.4,10.6l0.7,0.3c0.2,1.1,0.3,2.2,0.4,3.3c0.3,2.8,0.5,5.6,0.7,8.5c0.4,6,0.7,12.1,0.8,18.2
	c0.2,12-0.3,24-1.3,36c-0.3,3.4,2.9,5.2,5.7,4.7c0.5,20.2-2.2,40.4-8.1,59.8c-1.8,5.7-3.8,11.4-6.1,16.9l-28.9,29.9
	c-1.9,1.9-1.9,5.1,0,7c1.9,2,5.1,2,7.1,0l7.8-8c-2.8,6.8-4.1,13.8,0,20.9c3.1,5.9,9.7,9,16.2,7.6c4.6-1,8.3-3.8,11.6-7.1l7.9,10.7
	c2.1,2.7,5.2,3.3,7.9,1c15.4-13.1,29.1-28.2,40.6-44.8c-0.6,2,0,4.1,1.7,5.4c1.8,1.3,5,1.5,6.6-0.4c13.3-16.3,27-33.3,33.2-53.8
	c0.6-2.3,1.2-4.6,1.7-7s0.3-2.1,0.6-3.2c0-0.3,0.1-0.6,0.2-0.9h1.8c4.1,0.1,8-1.6,10.8-4.6c3.6-3.4,6.1-8,8.6-12.1s5.7-9.4,8.3-14.2
	c5.1-9.4,9.5-19.3,11.7-29.8C963.5,503.8,966.4,500.3,965.7,496.8z"/>
</svg>
