<?xml version="1.0" encoding="utf-8"?>
<!-- Generator: Adobe Illustrator 24.2.3, SVG Export Plug-In . SVG Version: 6.00 Build 0)  -->
<svg version="1.1" id="eff00879-40fd-499c-8ea9-7b7e1e94d123"
	 xmlns="http://www.w3.org/2000/svg" xmlns:xlink="http://www.w3.org/1999/xlink" x="0px" y="0px" viewBox="0 0 1152 864"
	 style="enable-background:new 0 0 1152 864;" xml:space="preserve">
<path d="M844.1,550.1c0.7-5.8,2.8-11.4,4.9-16.8s4.5-11,6.5-16.6c16.4-44.6,24.8-93,19.8-140.5c-2.5-24.2-8.7-47.6-17.3-70.3
	c-8.6-22.7-19.3-44.6-30-66.4c-5.7-11.6-11.5-23.2-17.2-34.9c-2.8-5.8-5.7-11.6-8.6-17.5c-2.9-5.9-5-9.3-9.6-12
	c-10.8-6.2-21.8,2.6-28.2,10.8c-7.8,9.8-15,20-22.3,30.1c-25.9,35.8-50.2,72.7-72.9,110.7l-0.8-0.4c-20.3-8.6-41.9-13.6-63.9-14.5
	c-21.7-0.9-43.5,2-64.2,8.6c-10.9,3.4-21.4,7.9-31.4,13.3c-24.9-28.1-45.4-59.8-70.5-87.8c-14.2-15.7-29.9-30.3-47.8-41.8
	c-4.3-2.8-8.8-5.4-13.4-7.7c-4.3-2.2-8.5-4.1-13.5-3.7c-4.6,0.3-8.9,2.3-12.2,5.5c-3.9,3.7-5.1,8.4-6.4,13.5
	c-12.2,46.6-23.7,93.5-30.3,141.4c-3.4,23.9-5.3,48-5.6,72.1c-0.1,11.9,0.3,23.7,1.1,35.6c0.8,11.9,1.5,23.9,6.3,34.7
	c2.2,4.8,5.4,9.1,8.1,13.6c2.5,4.3,4,9.1,4.4,14c1,10.9-1.1,21.8-1.5,32.7c-0.7,22.9,2.7,45.7,9.9,67.4c1.8,5.4,3.9,10.8,6.2,16.1
	c1.1,2.5,4.7,3,6.9,1.8c2.2-1.2,2.8-4.4,1.8-6.9c-8.6-20.1-13.6-41.5-14.6-63.3c-0.6-10.8,0.2-21.6,1.1-32.4
	c0.9-10.8,0.7-22.3-4.5-32.4c-2.3-4.5-5.4-8.5-7.8-12.9c-2.3-4.7-3.9-9.8-4.5-15.1c-1.8-11-2.2-22.3-2.6-33.4
	c-0.8-23.4,0.2-46.8,2.7-70.1c4.9-46.5,15.2-92.3,26.6-137.5l4.5-17.4c0.7-2.8,1.4-5.5,2.2-8.3c0.3-1.8,1-3.5,2-5
	c1.7-2.3,4.4-3.7,7.3-3.8c1.4-0.1,2.8,0.2,4.1,0.8c2.4,1,4.8,2.4,7.2,3.7c17.6,9.7,33.1,22.8,47,37.2c30.1,31,52.8,68.2,81.9,100.1
	c3.6,3.9,7.2,7.7,10.9,11.4c3.7,3.7,11.7-2.5,7.1-7.1l-7.2-7.3c3.2-1.7,6.5-3.3,9.8-4.8l3.2-1.4l0.3-0.2l1-0.3l1.9-0.8
	c2.4-1,4.9-1.9,7.4-2.7c9.9-3.4,20.1-5.9,30.5-7.5l1.8-0.3l1-0.2h0.1l4-0.4c2.6-0.3,5.2-0.6,7.8-0.7c5.2-0.4,10.5-0.5,15.7-0.4
	c5.2,0.1,10.5,0.4,15.7,1l3.7,0.4h0.7l2.3,0.3l7.7,1.4c5.8,1.1,11.5,2.6,17.1,4.3c2.8,0.8,5.5,1.7,8.2,2.7l4.3,1.6l1.9,0.8l1,0.4
	l0.4,0.2h0.1l0.7,0.3c-0.8,1.4-1.6,2.8-2.5,4.2l-9.2,15.9c-3.2,5.6,5.5,10.6,8.7,5c23.7-41.6,49.3-82.1,76.9-121.4
	c6.9-9.8,13.9-19.6,21-29.2c3.6-5,7.3-9.9,11-14.8s5.8-7.6,9.8-10.1s7-2.5,9.9,0.7s5,9,7.2,13.4l16.8,34.2
	c20.7,42.1,42.6,84.7,50.1,131.6c7.2,45.4,0.9,92.3-13.2,135.8c-3.6,11.1-8,21.8-12.2,32.7s-6,22.4-2.6,34s8.8,19.6,11.4,30
	c2.4,9.9,2.2,20.3-0.8,30.1c-1.4,4.7-3.4,9.3-6,13.5c-3.4,5.5,5.2,10.5,8.6,5c5.9-9.7,9.2-20.7,9.8-32c0.6-11.6-2.4-22.4-6.9-33
	S842.7,561,844.1,550.1z"/>
<path d="M809,488.5l-3.4-1.5l-0.8-0.3l-2-0.9l-6.9-3.3c-2.3-1.1-4.5-2.4-6.6-3.8l-2.8-1.9l-0.2-0.2l-0.6-0.4l-1.6-1.3
	c-0.8-0.8-1.7-1.6-2.5-2.5c-0.9-0.8-1.7-1.6-2.4-2.6c0-0.1,0-0.1-0.1-0.2l-0.5-0.7c-0.4-0.5-0.7-1-1-1.6c-0.7-1.1-1.3-2.2-1.9-3.4
	c-0.3-0.6-0.6-1.2-0.8-1.8h-0.1l-0.3-0.7c-0.5-1.3-1-2.5-1.4-3.8s-2-5.4-3.2-8c-2-5.1-5.3-9.7-9.5-13.2c-2.4-1.9-4.9-3.6-7.4-5.3
	l-3.3-2.2c-0.4-0.3-0.8-0.6-1.2-0.9l-0.4-0.3l-1-0.8c-0.9-0.8-1.7-1.7-2.5-2.6l-0.6-0.8l-1.1-1.9l-0.3-0.5v-0.2L742,419
	c0-0.1,0-0.2-0.1-0.3v-0.5c0-0.5-0.2-1.2,0.1-1.7c0-0.1,0-0.1,0-0.2l0.3-0.7l0.3-0.7l1.9-3.2c1.6-2.1,2.7-4.5,3.4-7
	c0.7-3.5-0.4-7.2-3-9.7c-2.2-1.9-5.1-2.8-8-2.7c-2.3,0-4.5,0.4-6.7,0.6h-1.3c0.3-1.4,0.6-2.8,1-4.2c0.1-0.8,0.3-1.6,0.5-2.4
	c0.3-1.1,0.5-2.2,0.6-3.3c-0.2-2.2-1.5-4.2-3.4-5.3c-2.1-1.2-4.5-1.6-6.8-1.2l-2.5,0.2h-0.2c0.1-0.6,0.3-1.3,0.3-1.4
	c0.5-2.7,1.1-5.4,1.6-8.1c1.1-5.5,2.3-11.1,3.5-16.6c2.4-10.9,5.1-21.8,8.4-32.5c1.6-5.4,3.3-10.8,5.3-16c0.9-2.7,2-5.3,3-7.9
	c0.3-0.5,0.5-1.1,0.7-1.7v-0.2l0.3-0.7l1.9-4.2c5.1-11.3,11.5-22,18.9-32c1.6-2.1,0.4-5.7-1.7-6.8c-2.1-1.1-5.2-0.5-6.9,1.7
	c-12.8,16.9-21.8,36.4-28.5,56.4s-11.2,40.9-15.4,61.6c-0.6,3-1.6,6.3-1.6,9.4c-0.2,3.9,2.2,7.4,5.9,8.6c2,0.5,4.1,0.6,6.2,0.2
	c-0.7,3.1-1.3,6.1-2,9.2c-0.7,3.1,0.3,4.6,2.3,5.6c4.5,2.3,9.1,1.6,13.9,1c1-0.1,1.9-0.2,2.9-0.1h0.7c0-0.1-0.1-0.1-0.1-0.2l0.2,0.2
	h0.1c0,0.2-0.1,0.3-0.1,0.5c0,0-0.1,0.3-0.1,0.5c0,0,0-0.1,0-0.2c0.1-0.8-0.1,0.1-0.2,0.3l-0.3,0.6c-0.6,1.2-1.3,2.3-2.1,3.4
	c-1.6,2.4-2.7,5.1-3.2,7.9c-0.8,6.2,1.9,11.9,6,16.5c4.1,4.6,9,7.1,13.6,10.3l1.5,1.1h0.1l1,0.8c1,0.9,1.9,1.9,2.8,2.9h0.1l0.5,0.7
	l1,1.5c0.7,1.2,1.3,2.4,1.9,3.6c0.2,0.4,0.4,1,0.7,1.5l0.4,0.9c0.5,1.3,1,2.6,1.4,3.9s2.1,5.5,3.3,8.1c2.2,4.8,5.2,9.2,9,12.9
	c8.7,8.4,20,13.2,31,17.7c2.4,1,5.6-1.1,6.1-3.5C812.9,491.7,811.6,489.5,809,488.5z M738,402.1c0-0.1-0.1-0.2,0-0.2
	C738,402,738,402,738,402.1L738,402.1z"/>
<path d="M839.6,467c0,0.5,0,1-0.1,1.5c-0.2,4.8-0.8,9.6-1.3,14.5c-0.2,2.6,2.5,5.1,5,5c2.7-0.1,4.9-2.3,5-5l0.9-9.7
	c0.3-3.3,0.8-6.6,0-9.8c-0.7-2.9-2.6-5.3-5.3-6.6c3.8-16.6,7.6-33.2,11.5-49.9c0.5-2.5-0.8-5.5-3.5-6.1c-2.7-0.6-5.6,0.7-6.2,3.5
	c-4.3,18.9-8.7,37.8-13,56.8c-0.6,2.4,0.6,4.9,2.9,5.9C836.8,467.6,838.3,467.6,839.6,467z"/>
<path d="M448.3,295.3c-3.8-9.4-8-18.7-12.6-27.7c-1.1-2.5-4.1-3.6-6.6-2.5c-2.5,1.1-3.6,4.1-2.5,6.6c0.1,0.3,0.3,0.6,0.5,0.9
	c2,3.9,3.9,7.8,5.7,11.7c0.9,1.9,1.7,3.9,2.6,5.8c0.4,1,0.8,2,1.3,2.9c0.1,0.4,0.2,0.7,0.4,1l0.6,1.4c3.2,7.9,6.2,16,8.9,24.1
	c5.3,16.4,9.3,33.2,12,50.2c0.1,1.2,0.3,2.4,0.5,3.6l0.3,1.8v0.7h0.1v0.2l0.9,7.2c0.3,3.1,0.6,6.1,0.8,9.2h-0.1
	c-2.9,1-5.3,3.3-6.5,6.1c-1.3,3-1.2,6.2-0.9,9.3c0.4,2.8,0.6,5.7,0.5,8.5c0,1.3-0.1,2.6-0.2,3.9c0,0.7-0.1,1.3-0.2,2
	c-0.1,0.4-0.2,0.9-0.2,1.3c-0.5,2.6-1.1,5.2-1.8,7.8c-0.8,2.7-1.7,5.4-2.8,8.1c-0.2,0.6-0.5,1.2-0.7,1.9l-0.3,0.5
	c0,0.2-0.1,0.4-0.2,0.6c-0.6,1.4-1.2,2.7-1.9,4.1c-0.7,1.4-2.4,5.1-3.8,7.6l-1-1.2c-2.7-2.8-7.2-1.2-8.3,2.2c0,0.1-0.1,0.1-0.1,0.2
	c0,0.2-0.1,0.3-0.2,0.5c-0.2,0.5-0.5,1-0.8,1.4l-0.2,0.3l-0.3,0.4L430,459c0,0.1-0.1,0.1-0.1,0.2c0,0.1-0.4,0.2-0.4,0.3l-1.4,0.8
	h-0.7l-1.7,0.5c-2.6,0.7-4.2,3.5-3.5,6.1c0.8,2.6,3.5,4.1,6.1,3.5c3-0.6,5.9-2,8.2-4c0.6,4.4,6.9,6.1,9.2,1.9
	c10.3-18.5,20.7-38.6,18.1-60.4c-0.2-1.4-0.3-2.8-0.3-4.2v-1.1c0-0.2,0-0.3,0.1-0.5h0.2l0.2-0.3h0.1c1.3,0.8,2.9,0.9,4.3,0.3
	c1.9-0.7,3.1-2.6,3.1-4.6c-1.1-17.7-3.7-35.3-7.6-52.6C460,328,454.8,311.4,448.3,295.3z M463.6,401.8l-0.5-0.4L463.6,401.8
	L463.6,401.8z"/>
<path d="M405.3,479.4c-1.5,0.4-3.1,0.6-4.7,0.9h-1.4l-2.5,0.3l-9.9,0.6c-6.8,0.4-13.6,1.1-19.8,3.7c-1.4,0.6-2.7,1.2-4,2
	c-6.3-16.4-11.2-33.4-14.7-50.6c-1-5-1.9-9.9-2.6-14.9l-0.6-3.6c0-0.3,0-0.7-0.1-1v-0.2c-0.1-0.5-0.2-1.1-0.2-1.6l-0.9-7.5
	c-1-10-1.6-20-1.6-30c-0.1-11.3,0.4-22.6,1.6-33.9c0.2-2.6-2.5-5.1-5-5c-2.7,0.1-4.9,2.3-5,5c-2.1,20.1-2.2,40.4-0.3,60.5
	c1.8,20.4,5.6,40.5,11.3,60.2c3.1,10.9,6.9,21.6,11.2,32c0.7,1.7,1.6,3,3.5,3.5c1.7,0.5,3.6,0,4.8-1.3l1.7-1.6
	c0.1-0.1,0.9-0.8,0.4-0.3l0.6-0.4c1.2-0.8,2.4-1.6,3.7-2.2h0.1l1.1-0.4l2.1-0.6l4.3-1l1.3-0.2h0.1l2.2-0.3l4.8-0.3l9.7-0.6
	c3.9-0.2,7.7-0.8,11.5-1.6c2.6-0.7,4.2-3.5,3.5-6.1C410.7,480.3,408,478.7,405.3,479.4z"/>
</svg>
