<?xml version="1.0" encoding="utf-8"?>
<!-- Generator: Adobe Illustrator 24.2.3, SVG Export Plug-In . SVG Version: 6.00 Build 0)  -->
<svg version="1.1" id="a8acee8a-0b70-437e-b79f-7e15ab41674d"
	 xmlns="http://www.w3.org/2000/svg" xmlns:xlink="http://www.w3.org/1999/xlink" x="0px" y="0px" viewBox="0 0 1152 864"
	 style="enable-background:new 0 0 1152 864;" xml:space="preserve">
<path d="M274.5,353.7c-2.1,0.1-3.7,1.7-3.7,3.8c-2,16.3-1.3,32.8,1.8,48.9c2.7,13.8,6.7,27.3,12,40.4c2.5,6.3,5.3,12.6,8.1,18.8
	c0.9,1.9,3.5,2.3,5.2,1.4c1.7-0.9,2.2-3.3,1.3-5.2l-3.4-7.5c-0.5-1.3-1.1-2.5-1.6-3.8c-0.1-0.2-0.2-0.4-0.3-0.6l-0.4-1l-0.9-2.2
	c-2.4-6.1-4.7-12.2-6.7-18.5c-2.2-6.9-4-13.9-5.5-21c-1.5-7.3-2.5-14.7-3-22.2c-0.6-9.2-0.3-18.4,0.9-27.5
	C278.3,355.4,276.6,353.7,274.5,353.7z"/>
<path d="M868.3,550.9c-2.3-10-7-19.5-11.9-28.5l-3-5.3c-0.2-0.9-0.3-1.7-0.5-2.6c0-0.4-0.1-0.8-0.2-1.2V513c0-0.2-0.1-0.5-0.1-0.7
	c-0.2-1.9-0.4-3.8-0.5-5.7c-0.3-4-0.4-8-0.3-12c0.2-8.1,0.8-16.2,1.9-24.2c0.5-3.9,1-7.6,1.6-11.7c0.6-4.1,1.3-8.3,2-12.5
	c1.3-8.1,2.6-16.2,3.6-24.3s1.5-15.7,2.5-23.6l0.3-2.4c0.1-0.3,0.1-0.5,0.1-0.8c0.1-0.4,0.2-0.8,0.2-1.2c0.2-1.6,0.5-3.2,0.7-4.8
	c0.4-3.1,0.9-6.1,1.3-9.1c0.7-5.1,1-10.3,1-15.5c-0.1-6.2-0.7-12.4-1.9-18.5c-1.8-9.4-4.2-18.7-7.2-27.8
	c-2.9-9.8-6.3-19.3-10.3-28.7c-1.3-2.8-2.7-6.1-5-8.2c-2.3-2.1-7.2-3-10.8-3.2c-3.5-0.3-7-0.4-10.5-0.3c-14,0.4-27.8,4.3-39.9,11.4
	c-6.5,3.9-12.6,8.6-18,13.9c-5.9,5.8-11.1,12.3-16.6,18.5c-11.3,12.9-23.5,25-36.5,36.2c-2.6,2.2-5.3,4.4-7.9,6.4
	c-18-7.4-38.2-7.4-57.2-5.7c-10.8,1-21.5,2.6-32.2,4.3l-15.1,2.5l-7.4,1.1l-3.7,0.5l-1.6,0.3H584c-9,1.2-18.1,2.1-27.1,1.4
	c-17.2-4.4-34.7-7.4-52.4-9.1c-19-1.9-38.3-2.6-57.4-0.8c-9.3,0.7-18.5,2.3-27.5,4.7l-2.3-1.8l-3.7-3.2c-2.4-2.1-4.8-4.4-7.1-6.6
	c-4.7-4.6-9.2-9.4-13.7-14.3c-8.8-9.6-17.5-19.4-27.4-28c-19.6-17-43.5-31.5-70.1-32.5c-6.7-0.3-14,0.2-18.9,5.4
	c-4.9,5.2-5.9,11-7.4,16.9c-3.6,14.4-6.3,29-8.1,43.8c-3.4,28.5-3.1,57.4,1,85.8c1,6.6,2,13.2,3.1,19.8c1.1,6.6,2.1,13.4,2.9,19.6
	c1.6,13,2.7,26.2,1.6,39.3c-0.3,2.9-0.7,5.8-1.2,8.7L268,517c-2.9,8.5-5.9,17-7.8,25.7c-1.4,6.7-2,13.5-2,20.3
	c-0.1,11.8,0.3,23.7,0.4,35.5c0.3,2.1,2.3,3.5,4.4,3.1c1.6-0.3,2.9-1.5,3.1-3.1c-0.1-10.9-0.4-21.7-0.4-32.5
	c-0.1-3.5,0-7.1,0.2-10.6c0.1-1.5,0.3-3.1,0.5-4.7v-0.3c0.1-0.4,0.1-0.7,0.2-1.1c0.1-0.8,0.2-1.7,0.4-2.5c1.7-8,3.9-15.8,6.8-23.5
	c0.5-1.5,1-2.8,1.4-4.2c0.2-0.2,0.3-0.5,0.3-0.8c1.5-4.5,3.5-8.8,5.9-12.9c0.8-1.2,1.5-2.4,2.3-3.5l0.5-0.5l0.6-0.8
	c0.4-0.6,0.9-1.2,1.4-1.7c1.9-2.2,3.9-4.3,6.1-6.2c9.7-9,20.7-16.4,28.7-27.2c1.2-1.6,0.3-4.2-1.3-5.1c-1.8-1-4.1-0.4-5.2,1.3
	l-0.4,0.6l-0.6,0.8c-0.4,0.5-0.9,1-1.3,1.6l-3.1,3.3c-2.1,2.1-4.3,4.1-6.5,6.1c-4.4,3.8-9,7.4-13.4,11.3c-4.3,3.8-8.3,8-11.7,12.6
	c0.3-19.6-3.4-39.4-6.5-58.6c-2.1-12.7-3.6-25.5-4.4-38.4c-0.8-14.5-0.7-29,0.4-43.5c1.1-14.3,3.1-28.5,6.1-42.5
	c1.3-6.7,2.9-13.4,4.9-19.9l0.6-1.8l0.3-0.8c0-0.1,0.3-0.6,0.3-0.7c0.2-0.6,0.5-1.1,0.8-1.6l0.6-0.9c0-0.1,0.5-0.7,0.5-0.8l1.1-1.2
	l0.7-0.6c0.1-0.1,0.2-0.1,0.2-0.2c1.2-0.8,2.6-1.3,4-1.6c3-0.4,6-0.5,9-0.3l4.6,0.4c1.4,0.1,2.7,0.3,4.1,0.6
	c6.2,1.2,12.2,2.9,18,5.3c2.3,0.9,5.5,2.5,8.1,3.8c2.6,1.3,5.5,3,8.2,4.7s5.5,3.5,8.1,5.4c2.6,1.9,4.9,3.5,7.2,5.4
	c10.1,8,18.9,17.3,27.6,26.7s17.4,19.3,27.3,27.7c2.2,2,4.5,3.8,6.8,5.6l1.1,1l0.3,0.4l0.2,0.3l0.4,0.8c0.2,0.5,0.3,0.9,0.4,1.4
	c0.1,0.1,0.1,0.2,0.1,0.3s0.1,0.4,0.1,0.5v1.5c0,0.2-0.1,0.9,0,1c-0.1,0.5-0.2,0.9-0.4,1.4c-0.1,0.4-0.2,0.9-0.4,1.3v0.2l-0.3,0.7
	l-0.9,1.4c-0.1,0.2-0.2,0.5-0.4,0.7l-0.2,0.3c-0.1,0-0.1,0.1-0.2,0.2c-1.5,1.8-3.3,3.5-5.2,4.9l-0.9,0.7l-1.3,0.9l-3.1,2.2l-5.9,4.2
	c-4,2.9-8,5.8-11.9,8.9c-13.1,10.1-25.4,21.4-35.6,34.5l0.9-1.9c1.1-1.8,2.2-3.6,3.5-5.4s2.4-2.9,3.7-4.5c1.7-2.1,2.8-4.6,3-7.3
	c0.2-2.2-0.2-4.3-0.1-6.5v-1.1c0-0.1,0.1-0.2,0.1-0.3h0.1c0-0.1,0.1-0.2,0.2-0.3h0.1l0.4-0.4h0.2c1.1,1,2.6,1.4,4,0.8
	c1.7-0.8,2.6-2.7,2.1-4.5c-0.2-1.3-0.4-2.6-0.7-3.9l8.7,0.2c2.5-0.1,5-1.1,6.1-3.4c1.1-2.3,0.9-4,1-6.1c0.1-7.2-0.8-14.5-2.5-21.5
	c-3.5-14-10.2-27-19.7-37.9c-5.3-6.1-11.5-11.5-18.3-15.9c-1.8-1-4.1-0.4-5.2,1.3c-0.9,1.8-0.3,4.1,1.4,5.2l4.1,2.8l3.3,2.6
	c2.5,2.1,4.9,4.4,7.1,6.8c1.1,1.1,2.2,2.3,3.2,3.5l1.4,1.8l0.4,0.5c0.1,0,0.1,0,0.1,0.1c0.3,0.3,0.6,0.7,0.8,1.1
	c1.9,2.6,3.7,5.3,5.3,8.1c1.6,2.8,3.1,5.7,4.4,8.6c0.1,0.2,0.2,0.4,0.2,0.6h0.1c0.1,0.4,0.3,0.7,0.4,1.1l0.9,2.3
	c0.6,1.6,1.1,3.1,1.6,4.7c0.9,3.1,1.7,6.2,2.3,9.4c0.1,0.8,0.2,1.5,0.4,2.3c0,0.3,0.1,0.7,0.1,1.1c0.1,0.3,0.1,0.6,0.1,0.9
	c0.2,1.6,0.4,3.1,0.4,4.7c0.1,1.9,0.2,3.7,0.2,5.6c0,1.9-0.1,1.3-0.1,2h-12.6c-2.7-0.1-4.1,2.4-3.6,4.7c0.1,1.1,0.3,2.1,0.5,3.2
	c-2.4,0.9-4.4,2.7-5.6,4.9c-0.8,2-1.1,4.2-0.9,6.3c0,1,0.1,1.9,0.2,2.9v1.5c0,0.2,0,0.3-0.1,0.5v0.4c-0.3,0.7-0.6,1.3-1,1.9
	c-0.2,0.3-0.4,0.5-0.6,0.8l-1.2,1.3c-2.6,2.9-4.9,6.1-6.8,9.5c-2.1,4.1-3.8,8.4-5,12.8c-0.4,1.8,0.5,3.7,2.2,4.5
	c-4.4,7.1-8.1,14.8-10.9,22.7c-0.6,2,0.6,4,2.5,4.6c0,0,0,0,0.1,0c2,0.5,4-0.7,4.6-2.6c6.3-17.8,17.7-33.5,31.2-46.9
	c6.9-6.9,14.3-13.4,22.1-19.3l5.4-4.2l5.9-4.2c4.1-3,8.4-5.8,12.4-8.9c4-3.1,8.1-8,9.3-13.5c0.7-3.4,0.5-7-0.8-10.2l6.9-1.4l6.3-1.1
	h2.5l3.4-0.4c9.3-1,18.6-1.4,28-1.3c9.6,0.1,19.2,0.6,28.7,1.5c4.7,0.4,9.4,0.9,14,1.5l1.8,0.2l1.1,0.2l3.5,0.5l6.7,1
	c9.2,1.6,18.3,3.4,27.3,5.8h1c8.1,0.8,16.3,0.1,24.3-0.8c9.9-1.2,19.7-2.8,29.5-4.4c5.1-0.9,10.3-1.7,15.4-2.4l4-0.6l1.8-0.3h0.2
	l1.4-0.2l7.7-0.9c10.3-1.2,20.7-1.6,31-1.2c2.7,0.1,5.4,0.4,8.1,0.7h1.4l1.9,0.3l3.9,0.7c2.5,0.5,5,1.2,7.5,2
	c0.9,0.2,1.8,0.6,2.7,0.9c-1.3,2.9-1.7,6-1.3,9.1c0.7,5.2,3.4,9.5,7.1,13.1c3.7,3.6,8.2,6.4,12.5,9.3l11.9,8.3
	c8,5.6,15.1,10.9,22.4,17.1c7.2,6,13.8,12.7,19.7,19.9l0.6,0.8l0.5,0.6l0.4,0.5c0.3,0.3,0.5,0.7,0.7,1l2.2,3
	c1.4,2.2,2.9,4.4,4.2,6.7c2.6,4.5,4.7,9.1,6.4,14c0.7,2,2.9,3,4.9,2.2c1.7-0.6,2.7-2.4,2.4-4.2c-2.7-7.5-6.4-14.7-10.8-21.4
	c0-0.4,0-0.9-0.1-1.3c-2.1-7.9-5.8-15.3-10.9-21.6c-1.1-1.3-2.2-2.7-3.2-4.1c-0.3-0.4-0.2-0.3-0.4-0.9c-0.2-0.6-0.1-0.4-0.1-0.6
	c-0.2-1.1-0.2-2.1,0-3.2c0.3-3.9,0.2-7.9-3-10.7c-1-0.9-2.1-1.6-3.4-2l0.6-3.3c0.4-2.3-1-4.8-3.7-4.7L744,398v-1.1
	c-0.1-1.6-0.1-3.3-0.1-5s0.3-6.5,0.7-9.7c0.1-0.4,0.1-0.8,0.2-1.3c0-0.2,0-0.4,0.1-0.6c0.1-0.8,0.2-1.7,0.4-2.5l0.9-4.9
	c0.7-3.3,1.6-6.6,2.7-9.8c0.5-1.5,1-3.1,1.6-4.6l0.9-2.2c0.1-0.2,0.1-0.4,0.2-0.6h0.1c0.2-0.4,0.3-0.9,0.5-1.3c1.4-3,2.9-6,4.6-8.9
	l2.6-4.1l1.4-1.9l0.7-1l0.5-0.6c2.2-2.9,4.6-5.6,7.3-8c1.3-1.2,2.6-2.4,4-3.5h0.2l0.4-0.4l1.2-0.8l2.3-1.6c1.7-1.1,2.3-3.3,1.4-5.1
	c-1.1-1.8-3.4-2.4-5.2-1.3c-12.1,7.8-21.3,19.5-27.4,32.5c-6.2,13.4-9.5,28-9.8,42.8c0,4.3-0.8,10.6,4.1,12.6c2.4,1,5.4,0.5,7.9,0.5
	h3.8c-0.3,1.3-0.5,2.6-0.7,4c-0.5,1.8,0.4,3.7,2.1,4.4c1.4,0.6,2.9,0.3,4-0.7h0.3c-0.1,0,0.2,0.2,0.3,0.3s0.1,0.1,0.1,0.2l0.2,0.2
	v0.2c0,0.1,0.1,0.2,0.1,0.3s0,0.4,0.1,1c0,2.2-0.4,4.4-0.2,6.5c0.1,1.5,0.5,2.9,1.1,4.2c-0.1,0-0.1-0.1-0.2-0.2
	c-14.1-12.8-30.1-23.3-45.6-34.2c-2.2-1.4-4.2-3-6.1-4.8l-1.3-1.4l-0.7-0.8l-0.2-0.3c-0.5-0.6-0.9-1.2-1.2-1.9L704,382
	c-0.1-0.2-0.2-0.4-0.3-0.6c-0.3-0.9-0.6-1.8-0.7-2.8c-0.1-0.1-0.1-0.2-0.1-0.3v-1c0-0.5,0-1,0.1-1.5v-0.2c0.1-0.3,0.2-0.6,0.2-0.9
	l0.3-0.8c0.1,0,0.1,0,0.1-0.1c0.2-0.2,0.3-0.5,0.4-0.7c0.1-0.1,0.1-0.2,0.2-0.4l1.3-1.2c13.2-10.2,25.6-21.5,36.9-33.8
	c5.8-6.1,11.4-12.4,17-18.8c5.6-6.4,10.4-12,16.6-16.9c1.1-0.9,2.4-1.9,3.9-2.9l4.5-2.9c2.9-1.8,6-3.4,9.2-4.8l0.5-0.3l1.1-0.4
	l2.3-0.9c1.6-0.6,3.2-1.1,4.8-1.5c3.2-1,6.5-1.7,9.8-2.2l1.1-0.2h0.6l2.5-0.3l5-0.3c3.5-0.1,7,0,10.5,0.3c1.7,0,3.5,0.3,5.1,0.9
	c0.1,0,0.1,0,0.1,0.1h0.1l0.5,0.3h0.1c0,0.1,0,0.1,0.1,0.2l0.4,0.5c0.4,0.6,0.8,1.3,1.1,2c0.9,1.7,1.7,3.4,2.4,5.1
	c0,0.1,0,0.1,0.1,0.1l0.3,0.8l0.6,1.6c0.5,1.1,0.9,2.3,1.3,3.4c1.8,4.8,3.5,9.7,5.1,14.6c2.6,8,5.1,16.1,7,24.3
	c0.8,3.6,1.6,7.2,2.2,10.8l0.3,2.2c0.1,0.2,0.1,0.7,0.2,0.9c0,0.3,0,0.5,0.1,0.8c0.1,1.4,0.3,2.9,0.4,4.4c0.4,5.2,0.3,10.3-0.2,15.5
	c-0.1,1.3-0.2,2.6-0.4,3.9s-0.1,1.2-0.2,1.8s-0.1,0.7-0.2,1v0.5l-1.2,8.6c-1.1,7.6-2.1,15.2-2.7,22.8c-1.4,15.6-4.4,31-6.7,46.8
	c-1.9,13-3.6,26.2-3.4,39.4c-2.5-3.2-5.2-6.3-8.2-9.1c-4.8-4.7-10.1-8.8-15.2-13.2c-2.5-2.1-5-4.3-7.3-6.6l-3.4-3.6
	c-0.6-0.7-1.2-1.3-1.7-2l-0.8-0.9h-0.1l-0.4-0.6c-1.2-1.7-3.3-2.5-5.1-1.4c-1.8,1.1-2.6,3.5-1.4,5.2c7.3,9.8,17.1,16.9,26.2,24.9
	c2.2,1.9,4.3,3.9,6.3,6c1,1,1.9,2,2.8,3c1.1,1.4,1.5,1.8,2.4,3.1c1.8,2.4,3.3,5.1,4.4,7.9c1.1,2.7,2.1,5.4,3.4,8
	c0.2,0.4,0.4,0.8,0.7,1.2l0.3,0.7c3,5.1,5.8,10.4,8.3,15.8c0.6,1.2,1.1,2.3,1.6,3.5c0.1,0.3,0.2,0.6,0.4,0.8c0.2,0.7,0.5,1.4,0.7,2
	c0.8,2.1,1.5,4.1,2.1,6.2s1,3.9,1.4,5.9c0,0.2,0.3,1.8,0.4,2.4v0.2c0.1,0.3,0.1,0.5,0.1,0.8c0.1,0.6,0.1,1.1,0.2,1.7
	c0.3,4,0.3,7.9,0,11.9c-0.2,2.5-0.4,4.9-0.7,7.4s-0.3,2.6-0.5,4s-0.1,0.6-0.1,0.9v0.2c-0.1,0.1-0.1,0.3-0.1,0.5l-0.3,2l-3,21.2
	c-0.2,1.9,1.9,3.8,3.8,3.7c2-0.1,3.6-1.7,3.7-3.7c0.8-5.5,1.7-12,2.6-17.9s1.4-10.2,1.9-15.3C870.4,567.5,870.3,559.1,868.3,550.9z
	 M377.1,383.7C377.2,384,377.1,383.9,377.1,383.7L377.1,383.7z M631.4,367.6C631.9,367.5,631.5,367.6,631.4,367.6L631.4,367.6z"/>
<path d="M839.8,404.1c-1.8,6.8-4.1,13.4-6.9,19.8l-0.4,1.2l-0.2,0.4c0,0.1-0.1,0.1-0.1,0.2c0,0.1-0.7,1.5-1,2.3s-1.3,3-2,4.5
	s-2.7,5.8-4.1,8.7c-2.9,5.8-5.8,11.6-8.5,17.5c-1,1.8-0.4,4,1.3,5.1c1.7,0.9,4.3,0.5,5.2-1.4c5.1-11.2,11-22,15.8-33.4
	c5.9-13.9,10.3-28.2,12.1-43.1c1.1-9.1,1.1-18.4-0.1-27.5c-0.2-1.9-1.5-3.8-3.7-3.7s-4,1.6-3.8,3.7c1.1,8,1.2,16.1,0.5,24.2
	C843.1,389.9,841.8,397.1,839.8,404.1z"/>
</svg>
