<?xml version="1.0" encoding="utf-8"?>
<!-- Generator: Adobe Illustrator 24.2.3, SVG Export Plug-In . SVG Version: 6.00 Build 0)  -->
<svg version="1.1" id="e6a3200b-a0ea-44f9-80b7-d844ad7cc6c7"
	 xmlns="http://www.w3.org/2000/svg" xmlns:xlink="http://www.w3.org/1999/xlink" x="0px" y="0px" viewBox="0 0 1152 864"
	 style="enable-background:new 0 0 1152 864;" xml:space="preserve">
<path d="M1077.8,384c-3.2-15.1-12.9-27.8-24.9-37.1c-12-9.3-27-16.6-41.5-22.8c-16.4-7-32.8-13.6-48.6-21.9
	c-33.6-17.6-64.5-39.9-91.7-66.3l-8.8-8.8c-0.1-0.9-0.1-1.8-0.1-2.7c0-1.8-1-3.5-2.5-4.4c-21.4-9.4-46.9-19.9-70.4-11.6
	c-9.6,3.4-18,9.5-24.2,17.6c-5.9,7.6-9.9,16.5-13,25.6c-2.3,6.9-4.1,14-5.4,21.2c-20.7-9.5-42.2-17-64.2-22.5
	c-25.7-6.6-52-10.2-78.5-10.7c-15.1-0.2-30.2,0.7-45.1,2.8c-1.1,0.1-2,0.8-2.6,1.7c-20.3,2.2-40.4,5.3-60.4,9.4
	c-21,4.3-41.7,9.7-62.1,16.2c-4.6,1.4-9.2,2.9-13.7,4.5c-3-16.8-7.3-34.1-17.1-48.2c-5.4-8.1-13-14.6-21.8-18.8
	c-11.3-5-23.5-5.5-35.6-3.5c-13.7,2.4-26.7,7.8-39.3,13.4c-1.6,0.7-2.4,2.7-2.5,4.3c-0.1,1.6-0.1,1.8-0.1,2.7
	c-25.8,26.6-55.2,49.5-87.4,67.9c-15.9,9-32.4,17.1-49.4,24c-14.6,6-29.4,12-42.8,20.2c-13.4,8.2-24.7,18.1-31.3,31.7
	c-3.7,7.6-5.8,16-5.9,24.5c0,9,1.9,17.9,5.5,26.1c7.1,16.8,19.7,31.3,33.9,42.6c14.2,11.3,30.6,21.1,45.6,32
	c15,10.9,27.3,22.9,36.3,38.6s14.7,33.9,19.4,51.8l3.3,13.2c1.2,4.5,8.8,5,9.7,0c3.8-22.2,8-44.3,12.6-66.3L283,550
	c-2.6,10-4.7,20.1-6.2,30.3c-2.1,14-3,28.1-2.9,42.3c0.1,13.8,1.9,27.9,8.5,40.1c3.3,6,7.5,11.3,10.9,17.2c0.8,1.3,1.6,2.7,2.2,4.1
	c0.2,0.3,0.4,0.7,0.5,1.1c-0.4-1.3,0.2,0.3,0.2,0.6c0.3,0.7,0.6,1.4,0.8,2.2l0.6,2.2v0.2c-1.1,0.4-2,1.1-2.6,2.1
	c-1.3,2.4-0.5,5.4,1.8,6.8c4.6,2.6,9.1-0.6,10.5-5.1c1.4-4.5,0-6.8-1-10c-2.1-6.2-5.7-11.6-9.3-17c-1.7-2.5-3.4-5-5-7.7l-2.1-4
	c-0.2-0.4-0.4-0.8-0.5-1.2c-0.1,0-0.2-0.4-0.3-0.6l-0.9-2.2c-1.1-3.2-2-6.5-2.7-9.8c-0.3-1.5-0.5-3.1-0.7-4.7
	c-0.1-0.1-0.1-0.3-0.1-0.4c-0.1-0.4-0.1-0.7-0.1-1.1l-0.3-3.1c-1.1-13.9-0.3-28.1,1.3-42l0.6-5v-0.5c0.1-0.5,0.2-0.9,0.2-1.4
	c0.2-0.9,0.3-1.8,0.4-2.7c0.6-3.6,1.2-7.2,1.9-10.9c1.1-5.6,2.3-11.1,3.8-16.7c0.8-0.4,1.5-1,1.9-1.8c0.9-1.6,0.8-3.5-0.1-5.1
	c1.9-6.6,4.1-13.2,6.4-19.7c1.4-3.7,2.9-7.4,4.4-11.1c0.1-0.3,0.2-0.5,0.3-0.8l0.6-1.4c0.4-0.8,0.7-1.7,1.1-2.5l2.7-5.9
	c1.1-2.3,0.7-5.5-1.8-6.8s-5.6-0.8-6.8,1.8c-6.2,13-11.3,26.4-15.4,40.1l-28.5-18.8c-0.6-0.4-1.4-0.6-2.1-0.6
	c0.1-0.1,0.1-0.3,0.1-0.4c5.5-25.5,11.6-50.8,18.1-75.9c6.5-25.1,13.6-50,21.2-74.7c3.8-12.5,7.8-25,11.9-37.4
	c1.6-4.8,3.2-9.7,5.1-14.5c1.9-4.8,3.1-8,5.2-12.4c2-4.3,4.3-8.5,6.8-12.5c2.2-3.6,4.7-7,7.5-10.2c1.5-1.7,3-3.3,4.7-4.8l2.2-1.9
	l0.4-0.3l0.4-0.3l1.4-0.9c1.7-1.2,3.5-2.3,5.4-3.2c1.7-0.9,3.5-1.7,5.4-2.1l2.8-0.8l1.8-0.3l0.9-0.2c2.7-0.4,5-2.1,5-5
	c0-2.9-2.3-5.4-5-5c-9.5,1.2-18.5,5.1-25.9,11.3c-7.3,6.1-13,13.9-17.7,22.1c-4.8,8.6-8.9,17.5-12.1,26.8
	c-4.2,11.6-7.8,23.4-11.6,35.1c-8,25.3-15.4,50.8-22.3,76.3c-6.9,25.5-13.2,51.3-18.9,77.3c-4.8,21.7-9.2,43.6-13.2,65.5
	c-3.1-11.2-6.9-22.2-11.6-32.9c-7.5-17-18.8-32.2-32.9-44.3c-27.4-23.4-63.1-37.7-82.8-69c-9-14.4-13.5-30.9-8.4-47.2
	c1-3.1,2.3-6.2,4-9c1.7-2.9,3.6-5.6,5.7-8.2c2.4-2.7,5-5.3,7.8-7.7c2.6-2.3,5.4-4.4,8.3-6.3c12.8-8.5,27.5-14.8,40.9-20.3
	c17-7.1,33.7-14.5,49.8-23.4c33.6-18.5,64.4-41.6,91.5-68.8c1.5-1.6,3.1-3.1,4.5-4.7c1.2-1.3,1.9-2.9,2-4.7v-0.9
	c18.8-8.2,40.7-16.7,60.7-9.6c2.1,0.8,4.1,1.8,6.1,2.9l2.6,1.6l1.3,0.9l0.6,0.5h0.2c1.7,1.4,3.3,2.9,4.8,4.4s1.4,1.5,2,2.3l1,1.2
	h0.1l0.5,0.7c2.6,3.5,4.8,7.3,6.7,11.3c1,2.2,1.4,3.2,2.3,5.4c0.9,2.2,1.5,4.2,2.2,6.3c2.5,8.1,4.4,16.3,5.8,24.7l-11.1,4.1
	c-2.4,0.9-4.4,3.4-3.5,6.2c0.7,2.1,2.7,3.6,4.9,3.5c-20.1,11.8-37.7,27.4-51.8,45.9c-4.3,5.5-8.2,11.4-11.7,17.4
	c-1.8,3.1,0.4,7.8,4.3,7.5l5.2-0.4c-3.8,23.7-9.1,47.2-15.9,70.3c-2.1,7.1-4.3,14.2-6.7,21.2c-0.9,2.6,0.4,5.5,3,6.4
	c2.6,0.9,5.5-0.4,6.4-3c0.1-0.2,0.2-0.5,0.2-0.7c8.5-24.9,15.2-50.4,20-76.3c1.4-7.3,2.6-14.6,3.7-22c0.2-1.6,0.2-3-0.9-4.3
	c-0.9-1.3-2.3-2-3.9-2h-1.6c1.6-2.4,3.3-4.9,5.1-7.2l1.2-1.6c0-0.1,0.1-0.1,0.1-0.2h0.1l0.7-0.9l3.1-3.8l6-6.8
	c4.2-4.5,8.6-8.8,13.3-12.8l7-5.8h0.3l0.8-0.7l1.9-1.4l3.8-2.7c5.7-3.9,11.7-7.5,17.8-10.7c1.9-1.2,2.9-3.5,2.3-5.7
	c-0.4-1.2-1-2.4-1.7-3.4l1.8-0.7c1,0.3,2,0.4,3,0.1c1.2-0.3,2.2-1,2.8-2.1c14-4.8,28.2-9.2,42.4-13c20.6-5.5,41.5-10,62.6-13.4
	l8.9-1.4l4.2-0.6l2.3-0.3h0.3l1-0.2l18-2.1c1.5-0.1,2.9-0.8,3.9-1.9l1.5-0.2l4.9-0.5c3.3-0.4,6.6-0.6,9.8-0.8
	c6.4-0.5,12.8-0.7,19.3-0.6c12.9,0,25.9,0.8,38.7,2.4l2.5,0.3h0.2l1.4,0.2l4.8,0.7l9.7,1.6c6.2,1.1,12.4,2.4,18.5,3.9
	c12.3,2.9,24.4,6.5,36.3,10.7c6.5,2.2,12.9,4.6,19.2,7.3l2.4,1h0.2l1.3,0.5l4.8,2.1l0.8,0.3l-1.3,1.3c-3.1,3-6.3,6.6-7.8,10.8
	c-1,2.5,1,5.5,3.5,6.1c7.9,2.2,15.8,4.6,23.6,7.2l11,4l2.4,1l1.3,0.5h0.3l0.3,0.2l4.9,2.1c6.2,2.9,12.1,6.3,17.6,10.2l0.8,0.6
	l0.4,0.3l0.7,0.5l0.9,0.8l3.5,3c1,1.1,2.1,2.1,3.1,3.3l1.3,1.5l0.7,0.9h0.1c0,0.1,0,0.1,0.1,0.2c1.9,2.6,3.6,5.4,4.9,8.3l0.3,0.7
	c-0.2-0.8,0.2,0.3,0.3,0.5l0.3,0.9h-5.7l-16.6-0.2c-1.9,0-3.7,0-5.6-0.2c-1.6,0-3,0.7-3.9,2s-1.3,2.9-0.9,4.4
	c2.4,14,8.8,27.2,15.8,39.4c7,12.2,15.7,25.2,23.1,38c2,3.5,3.9,7,5.7,10.5c0.9,1.8,1.8,3.6,2.6,5.4l1.2,2.7c0,0.1,0.1,0.1,0.1,0.2
	c0,0.1,0,0.1,0.1,0.2l0.6,1.5c1,2.4,3.4,4.4,6.1,3.5c2.7-0.9,4.6-3.6,3.5-6.2c-10.8-27.3-30.5-49.9-42.5-76.7
	c-0.2-0.4-0.4-0.8-0.5-1.2c-0.2-0.4-0.4-0.7-0.5-1.1c-0.3-0.8-0.7-1.6-1-2.5c-0.3-0.9-1.3-3.4-1.9-5.2c-0.6-1.8-0.9-3.1-1.3-4.7
	h22.7l5.6,0.2c3.4,0.2,5.4-3.4,4.8-6.4c-2.7-12.7-10.5-23.5-20.6-31.4c-11.8-9.3-25.8-15.4-39.9-20.4c-6.7-2.4-13.6-4.5-20.5-6.5
	l1.8-1.9l0.6-0.6c0.5,0.4,1.1,0.7,1.8,0.9c2.4,0.7,5.7-0.8,6.2-3.5l0.3-2.2c0.7-0.6,1.2-1.3,1.4-2.2c0.2-1.2,0.1-2.4-0.4-3.5
	c1.2-6.3,2.6-12.6,4.4-18.8c2.5-8.9,5.3-16.3,10.4-24c0.5-0.9,1.1-1.7,1.7-2.6l0.7-0.8c0.1-0.1,0.2-0.3,0.2-0.4l0.7-0.7
	c1.3-1.6,2.8-3.2,4.3-4.6l2.5-2.2l0.3-0.2l0.3-0.2l1.4-1.1c1.8-1.2,3.7-2.3,5.6-3.2c9.3-4.5,20.1-4.8,30.1-3
	c11.7,2.1,23,6.4,33.9,11.2c0,0.3,0.1,0.6,0.1,0.9c0,1.7,0.7,3.4,1.9,4.7l5.1,5.1c3.3,3.4,6.8,6.7,10.3,10
	c7.1,6.6,14.4,12.9,21.9,19c15.2,12.2,31.2,23.3,48,33.3c16.6,9.8,33.9,18.4,51.8,25.8c7.3,3.1,13.9,5.7,20.9,8.8
	s14.3,6.6,21.2,10.5c3.3,1.9,6.5,4,9.7,6.2l2,1.5l1.1,0.8l0.4,0.3c7,5.6,12.9,12.4,17.3,20.2c0.4,0.7,0.7,1.5,1.1,2.2
	c0.1,0.3,0.2,0.6,0.4,0.9l0.3,0.9c0.7,1.8,1.3,3.7,1.8,5.6c1.1,4,1.6,8.1,1.4,12.2c-0.2,8.2-2.2,16.3-5.8,23.7
	c-3.9,8-8.9,15.4-14.9,22c-3.1,3.4-6.4,6.6-9.8,9.7c-3.4,3.1-6.9,5.7-10.3,8.7c-13.9,12-24.4,27.4-34.6,42.4
	c-5.1,7.5-10.2,15.1-15.7,22.3c-5.4,6.8-11.1,13.2-17.2,19.4c-10.4,10.7-21.3,21.4-28.5,34.6c-3.1-20.8-5.5-41.8-7.8-62.7
	c-2.8-26.1-5.4-52.2-9-78.1c-3.5-25.7-8.5-51.1-15.2-76.2c-1.7-6.5-3.6-12.9-5.6-19.3c-2-6.4-3.3-10.9-6-15.9
	c-4.6-8.6-11.5-15.9-19-22c-15.8-13-35.4-22.9-55.5-26.9c-2.5-0.5-4.9-0.9-7.4-1.2c-2.5-0.3-5,2.6-5,5c0,2.4,2.3,4.7,5,5h0.7
	l1.5,0.3l3.2,0.6c2.3,0.5,4.6,1,6.8,1.7c4.7,1.3,9.2,2.9,13.7,4.8h0.3l0.7,0.3l1.7,0.8l3.7,1.7c2.3,1.1,4.6,2.3,6.8,3.6
	c4.5,2.4,8.8,5.2,12.9,8.2c1.9,1.3,3.7,2.8,5.5,4.3c1.8,1.6,3.6,3.2,5.3,4.9c1.7,1.7,3.2,3.4,4.7,5.2l0.9,1.2
	c0.3,0.3,0.5,0.6,0.7,0.9c0.7,0.9,1.4,1.9,2,2.9c1.2,1.8,2.3,3.6,3.2,5.6c0.1,0.3,0.2,0.7,0.4,1c0.1,0.3,0.3,0.7,0.5,1
	c0.4,1.4,0.9,2.7,1.3,4c2.1,6.4,4.1,12.9,5.9,19.4c7,24.7,11.9,49.9,15.7,75.3s6.2,50.1,8.9,75.3c0.6,5.2,1.1,10.5,1.7,15.7
	c-0.4-0.7-1-1.2-1.7-1.5c-3.6-1.6-7.4-2.6-11.3-2.8c-3.6,0-7.1,0.7-10.3,2.3c-5.8,2.6-10.3,7.8-13.8,13.1
	c-3.2-9.6-6.8-19.1-10.9-28.3l-2.6-5.7c-1.1-2.3-4.7-3.1-6.8-1.7c-2.4,1.4-3.2,4.4-1.8,6.8c0.9,1.9,1.8,3.9,2.6,5.8s0.9,2,1.3,3
	c0.2,0.4,0.4,0.8,0.5,1.2c0.1,0,0.1,0,0.1,0.1c0.1,0.3,0.2,0.6,0.4,0.9c1.6,3.9,3.1,7.9,4.6,12c2.2,6,4.1,12.1,5.9,18.3h-0.1
	c-1.1,2.4-0.7,5.5,1.8,6.8h0.2c2.1,8,3.8,16.2,5.1,24.4c0.4,2.1,0.7,4.2,1,6.4v0.9c0,0.1,0,0.1,0.1,0.2v0.3c0,0.3,0.1,0.6,0.1,0.9
	s0.3,2.1,0.4,3.2c0.5,4.2,0.9,8.5,1.2,12.8c0.5,8.4,0.8,16.8,0.5,25.2c-0.1,2.1-0.2,4.1-0.4,6.2s-0.2,2-0.4,3v0.5l-0.3,1.7
	c-0.6,4-1.6,8-2.9,11.8l-1,2.8c-0.1,0.1-0.1,0.1-0.1,0.2c0,0.1-0.1,0.1-0.1,0.2c-0.3,0.5-0.5,1-0.7,1.6c-0.9,1.7-1.8,3.4-2.8,5
	c-1.9,3.2-4.1,6.3-6.1,9.4c-2.1,3-4,6.2-5.6,9.5c-0.9,1.9-1.7,3.9-2.3,5.9c-0.6,1.7-0.9,3.5-1,5.3c0,2.2,1.1,4.3,2.1,6.1
	c1,2,2.2,4,3.5,5.9c1.4,2.2,3,4.4,4.7,6.4c1.1,1.5,2.5,2.8,4.1,3.7c1.8,1,3.9,1.1,5.7,0.1c2.4-1.4,3.2-4.5,1.8-6.9
	c-0.7-1-1.7-1.8-2.9-2.2l-1.1-1.1l-0.8-1h-0.1l-0.3-0.4l-2.1-2.9c-1.2-1.9-2.4-3.9-3.5-5.9c-0.4-0.6-0.7-1.2-1-1.9v-0.4
	c0.2-0.9,0.5-1.7,0.7-2.6l0.9-2.4c0.1-0.2,0.1-0.3,0.2-0.4l0.6-1.2c1.6-3.2,3.5-6.4,5.6-9.3c2-3.1,4.1-6.1,6-9.2
	c2.1-3.6,3.8-7.4,5.2-11.4c2.7-7.7,3.8-16,4.3-24.2c0.3-8.2,0.2-16.5-0.3-24.7c-1-17.1-3.6-34-7.6-50.6l-1.8-6.9
	c0.9-1.8,1.9-3.6,2.9-5.3s1.7-2.8,2.6-4.1l0.6-0.9l0.3-0.3l1.3-1.6c1-1,2-2.1,3.1-3c0.3-0.3,0.5-0.4,0.6-0.5c0,0,0,0,0,0h0
	c0,0,0,0,0,0h0.2l1.6-1.1l1.6-0.8l1-0.4l1.8-0.4h3.3l1,0.2h0.4l2.3,0.6l1.3,0.4c0.4,0.2,1.9,0.8,0.7,0.2c1.2,0.6,2.5,0.9,3.8,0.6
	c1.2-0.4,2.3-1.2,3-2.3c0.2-0.3,0.3-0.7,0.4-1c2.2,19.9,4.7,39.7,7.8,59.5c0.5,3.4,1.1,6.8,1.7,10.2c0.8,5,8.5,4.5,9.6,0
	c4.2-16.3,14-28.5,25.6-40.4c6-6.2,12.1-12.3,17.7-18.8c6-7.1,11.7-14.4,16.9-22.1c10.3-14.7,19.8-30.1,32.2-43.1
	c6.2-6.5,13.5-11.8,20-17.9c6.9-6.4,13.1-13.6,18.3-21.4C1075.8,420.7,1081.6,402.3,1077.8,384z M297.6,691.4c0-0.2,0-0.3,0.1-0.5
	C297.7,691.1,297.6,691.2,297.6,691.4z"/>
</svg>
