<?xml version="1.0" encoding="utf-8"?>
<!-- Generator: Adobe Illustrator 24.2.3, SVG Export Plug-In . SVG Version: 6.00 Build 0)  -->
<svg version="1.1" id="a47692e8-3c16-4522-9422-9b6b6bd66340"
	 xmlns="http://www.w3.org/2000/svg" xmlns:xlink="http://www.w3.org/1999/xlink" x="0px" y="0px" viewBox="0 0 1152 864"
	 style="enable-background:new 0 0 1152 864;" xml:space="preserve">
<path d="M394.5,297.5h1.1l2-0.2l4.1-0.4c5.4-0.5,10.7-0.7,16.1-0.6c6.1,0,12.2,0.5,18.3,1.3c2.6,0.3,5.1-2.6,5-5
	c-0.1-2.4-2.2-4.7-5-5c-22-2.9-44.3-1.2-65.6,5c-5.9,1.7-11.8,3.8-17.5,6.1c-2,0.9-3.8,2.5-3.7,4.9c0.1,2.4,1.5,3.9,3.7,4.8
	c-15.4,7.3-29.8,16.5-42.9,27.4c-4.5,3.7-8.8,7.6-12.9,11.6c-2,1.9-2,5.1,0,7.1c1.9,1.9,5,2,6.9,0.1c0,0,0,0,0.1-0.1
	c3.6-3.5,7.3-6.9,11.1-10.1l6-4.9c0.2-0.1,0.4-0.2,0.5-0.4h0.2l1.4-1c1-0.8,2-1.6,3.1-2.3c8.1-6,16.6-11.3,25.5-16
	c2.5-1.4,5.1-2.6,7.7-3.8l3.9-1.8l1.8-0.8l0.5-0.2l0.8-0.3c2-0.9,3.8-2.5,3.7-4.9c-0.1-1.8-1.1-3.5-2.7-4.3c6.2-2,12.5-3.7,18.9-4.9
	L394.5,297.5z"/>
<path d="M447.5,375.6c-2.4-2.5-4.8-4.8-7.2-7.2l-6.1-6.1h0.3l1.9,0.3c2.2,0.6,4.5-0.4,5.6-2.3c1-1.8,1-4.6-0.8-6
	c-13.4-11.3-28.6-20.4-44.9-26.8c-2.4-0.9-5.6,1.1-6.2,3.5c-0.7,2.7,0.9,5.4,3.5,6.2l2.9,1.1c0.2,0.1,0.3,0.1,0.3,0.2l0.5,0.2
	l1.2,0.5l5.6,2.6c3.6,1.8,7.2,3.7,10.8,5.8l6.8,4.4c-2.8,0.1-4.9,2.4-4.8,5.2c0,1.3,0.6,2.4,1.4,3.3l14.2,14.1l6.9,6.9l1.4,1.5
	c0.3,0.2,0.5,0.4,0.7,0.7l0.4,0.6l0.3,0.3l0.4,0.8l0.3,1.2c0.4,2.5,3.8,4.2,6.1,3.4c2.3-0.8,4-3.3,3.5-6.1
	C452,381.1,449.8,377.9,447.5,375.6z"/>
<path d="M945.2,462.6c-4.5-36.9-16-72.5-34-105c-3.8-6.8-7.9-13.5-12.2-20l6.1-0.9c3.8-0.5,4.6-5.9,2.2-8.3
	c-17.2-17.2-36.7-31.9-58-43.6c5.1-0.9,10.3-1,15.4-0.3c2.2,0.3,4.3-1.7,4.8-3.6c0.6-2.2-0.3-4.6-2.3-5.7c-31.6-18-67-28.3-103.3-30
	l-4.1-0.2c1.9-2.3,1.6-5.7-0.7-7.6c-0.1-0.1-0.3-0.2-0.4-0.3c-26.3-15.8-57-21-87.1-23.4l-15.9-1.2c3.3-3.7,7.1-6.9,11.4-9.5
	c2.8-1.8,3.6-7.1,0-8.7c-10.5-4.4-21.8-6.8-33.2-7.1c1.7-2.4,1.2-5.7-1.2-7.4l-0.1-0.1c-15.7-9.9-33.9-15.1-52.4-15l5.7-8
	c1.8-2.4,0.1-6.9-3-7.3c-17.4-2.4-35.2-0.5-51.7,5.6c-0.1-1.1-0.2-2.1-0.2-3.1c-0.3-4-5.6-7.1-8.6-3.6c-15.1,18-23.7,40.6-24.4,64.1
	c-17.4-13.5-36.9-24-57.8-30.9c-2.2-0.6-4.5,0.4-5.6,2.3c-1.1,2-0.8,4.5,0.8,6.1l3.3,3.7c-19.5,0.9-38.7,5.7-56.3,14.1
	c-1.5,0.9-2.5,2.6-2.5,4.4c0.1,1.8,1,3.4,2.5,4.3l0.9,0.7c-23.9,10.2-46.1,23.8-66.2,40.3c-2.5,2-1.7,5.7,0.6,7.4
	c-15.5,9.7-30.7,19.9-45.4,30.7c-1.7,1-2.7,2.9-2.4,4.9c0.2,1.5,1,2.9,2.3,3.7c-20.5,10.6-40.1,22.8-58.7,36.4
	c-6,4.5-12,9.1-17.9,13.9c-1.7,1.4-1.8,4.3-0.7,6.1c1.2,1.9,3.4,2.8,5.6,2.3l8.2-1.8l-19,23.2c-2.6,3.1-1.3,6.7,1.6,8
	c-14.5,12.8-26.8,28-36.3,44.9c-3.6,6.3-6.7,12.9-9.4,19.6c-1.6,3.8,2.8,6.9,6.1,6.2l2.5-0.6c0.5,12.3,2.3,24.5,5.4,36.4
	c-0.3,1.1-0.3,2.3,0,3.4c0.6,2.3,2.5,4.1,4.9,4.4c0.4,1.4,0.9,2.8,1.3,4.2c1.5,4.4,2.9,8.8,4.3,13.2l8.4,26c0.8,2.7,3.5,4.2,6.2,3.5
	c1-0.3,1.9-0.9,2.5-1.7l1.1,1.2l6.8,7.9l13.3,15.5c2.5,2.9,7.5,1.3,8.4-2.2c0.4-2,1.5-3.7,3.1-4.9c1.4-1.1,3.1-1.8,4.9-1.9
	c2.8-0.3,5.4-0.9,7.5-2.6c4.9,14.6,10.3,29,16.1,43.1c0.5,1.7,1.8,3,3.5,3.5s3.6,0,4.9-1.3c5.3,12.9,11.1,25.5,17.3,38
	c1.4,2.4,4.5,3.2,6.9,1.8c2.3-1.5,3.1-4.5,1.8-6.9c-3.6-7.1-7.1-14.3-10.3-21.6c-1.7-3.7-3.3-7.4-4.9-11l-0.3-0.9
	c-0.2-0.3-0.3-0.7-0.5-1s-0.7-1.8-1.1-2.7c-0.4-0.9-1.5-3.9-2.3-5.8c-0.5-1.7-1.8-3-3.5-3.5s-3.6,0-4.9,1.3
	c-6.2-15.7-11.9-31.7-17-47.8c-0.1-0.2-0.1-0.4-0.2-0.6c1.4-10.1,2.3-20.3,2.9-30.5c1.5-23.3,1.9-47,6.7-69.9
	c2.7-12.6,6.8-24.9,13.2-36.2c3.1-5.7-5.5-10.7-8.7-5.1c-11.8,21.1-16.3,45-18.4,68.8s-2.1,47.8-5.5,71.2c-0.3,1.7-0.5,3.4-0.8,5.2
	c-0.2,1.2-0.4,2.4-0.8,3.6l-0.5,0.7h-0.6c-1.1,0.2-3.3,0.3-4.7,0.7c-3.8,0.9-7.2,3.1-9.6,6.2l-13.8-16.1c-2.8-3.2-5.8-7.3-10.5-7.4
	H186L175.5,508c-1.3-3.8-2.7-10.7-6.5-13.1c-3.3-12.7-4.9-25.7-5-38.8c0-2.8-2.2-5-5-5h-0.1c8.8-18.3,21-34.7,35.8-48.6
	c4.7-4.4,9.7-8.6,14.9-12.4c2-1.5,3.1-3.8,2.1-6.2s-3.4-3.3-5.9-2.9h-0.7l20.1-24.6c3.1-3.8,0.2-9.5-4.9-8.3h-0.5
	c14.6-10.6,29.9-20.4,45.7-29.1c6.3-3.5,12.7-6.9,19.2-10.1c2.4-1.3,3.2-4.3,1.9-6.7c0,0,0-0.1-0.1-0.1c-0.7-1-1.6-2-2.5-2.8
	c15.1-10.8,30.6-20.9,46.4-30.5c2.1-1.3,3.4-4.7,1.8-6.9c-0.6-0.8-1.3-1.5-2-2.2c19.6-15.2,41.2-27.5,64.3-36.5
	c4.2-1.6,4.7-6.4,1.2-9.1l-1.1-0.9c17.5-7,36.3-10.3,55.2-9.7c3.3,0.1,5.1-2.9,4.8-5.7c16.4,7.3,31.6,17.1,45.1,28.9l0.9,0.8
	l0.3,0.3c2,1.9,5.1,1.9,7.1,0c1.9-1.9,1.9-4.9,0.1-6.9c-1.1-19.7,3.9-39.2,14.4-55.9c1.5,2.1,4.3,2.7,6.6,1.5
	c13.6-6.1,28.5-8.9,43.4-8.2l-6.8,9.4c-2.1,2.9,0.7,8,4.3,7.5c15.6-1.8,31.3,0.6,45.7,6.9c-5.8,2.6-10.7,6.7-14.3,11.9
	c-2.5,3.5,1.6,8.7,5.6,7.3c15.2-5.2,31.7-5.5,47.1-1.1c-4.8,4.1-8.9,8.9-12.3,14.3c-2.1,3.3,0.7,7.3,4.3,7.5
	c28.9,1.6,58.4,3.4,85.8,13.4c2.7,0.9,5.4,2,8,3.2c-2.2,0.8-4.4,1.8-6.4,3c-2.4,1.6-3.1,4.8-1.6,7.2c0.2,0.3,0.3,0.5,0.6,0.7
	c6.3,6.3,15.5,5.3,23.6,5.4c8.9,0.1,17.8,0.8,26.7,2c17.9,2.4,35.4,7.1,52.2,13.8c3.5,1.4,7.1,2.9,10.5,4.5
	c-3.7,0.8-7.4,1.9-10.9,3.4c-1.9,0.8-3.3,2-3.6,4.1c-0.3,2,0.7,4,2.4,5c21.7,10.7,41.7,24.4,59.5,40.7L889,329
	c-3.1,0.4-4.7,4.9-3,7.3c20.7,29.3,35.6,62.2,43.9,97.1c2,8.3,3.6,16.7,4.8,25.2c-2.3,1.7-4,4.2-4.8,7c-0.9,3-0.9,6.4-1.2,9.5
	c-0.3,3.1-0.7,6.7-1.1,10c-1,10.1-2.1,20.3-3.1,30.4c-2.1-0.5-4.3,0.5-5.5,2.3l-13.8,20.9c-0.4-1-0.7-2-1-2.9
	c-1.3-3.5-5.6-5.1-8.4-2.3c-4.7,4.8-10.4,8.7-16.6,11.3l-15-78.6c-0.5-2.6-3.7-4.1-6.1-3.5l-1.7,0.5c-1.4-28.6-4.9-57.1-10.6-85.2
	c-0.5-2.7-3.7-4.2-6.2-3.5c-2.6,0.8-4.1,3.5-3.4,6.1c5.9,29.4,9.4,59.2,10.5,89.1c0,2.8,2.3,5,5,5c0.4,0,0.9-0.1,1.3-0.2l2.5-0.7
	c4.5,23.8,9.1,47.5,13.6,71.3c-1.9,0.7-3.2,2.6-3.1,4.6c0.4,4.4,0.7,8.8,0.8,13.2c0.1,2.3,0,4.6-0.1,6.9s-0.1,2-0.3,3v0.7h-0.1
	l-0.3,1.8c-0.4,2.1-0.9,4.2-1.5,6.2c-0.4,0.9-0.7,1.9-1.1,2.8c0,0.2-0.1,0.3-0.2,0.4v0.2l-0.6,1.4c-1.8,3.7-3.9,7.2-6.2,10.6
	c-1.3,1.8-2.6,3.7-4,5.5l-2.1,2.7l-0.5,0.6l-1.2,1.6c-1.1,1.1-1.6,2.7-1.4,4.2c0.2,1.5,1.1,2.9,2.4,3.6c4,2,8.4,2.7,12.8,2
	c-0.3,1-0.7,2-1.1,3c-0.4,1.1-0.8,2.1-1.3,3.1c0,0.2-0.1,0.4-0.2,0.6c0,0.1-0.2,0.4-0.2,0.5s0,0.1-0.1,0.2c-0.2,0.3-0.3,0.7-0.4,1
	l-2.7,5.8c-3.7,7.9-8.1,15.6-12.9,22.9l-4.1,6l-2.1,2.8l-1.2,1.6l-0.2,0.3c0.1-0.2-0.5,0.5-0.5,0.6c-2,1.9-2,5.1,0,7.1
	c1.8,1.6,5.3,2.2,7.1,0c7.5-9.6,14.2-19.9,19.8-30.7c2.8-5.5,5.4-11.1,7.7-16.8c1.1-2.8,2.2-5.5,3.2-8.3s1.2-6.9-1.2-9.6
	c-0.8-0.9-1.8-1.6-3-2c-1.9-0.5-3.3,0.3-4.9,1.1l-0.3,0.2h-0.7l-2,0.6c3.6-4.6,6.7-9.5,9.4-14.7c2-4,3.6-8.2,4.7-12.6
	c1.1-4.8,1.7-9.8,1.6-14.7c0.1-3.1-0.1-6.1-0.3-9.2h0.2c7.4-2.1,14.3-5.7,20.4-10.4c0.6,1.8,1.2,3.6,1.9,5.4
	c0.8,2.7,3.5,4.2,6.2,3.4c1.2-0.3,2.3-1.1,2.9-2.2l16.1-24.1l0.7,0.6c3.4,3.2,8.1,0.7,8.5-3.5c1.2-11,2.4-22,3.5-33
	c0.6-5.4,1.1-10.7,1.7-16.1c0.1-2.4,0.4-4.8,0.8-7.1c0-0.5,0.2-0.9,0.4-1.3C942.6,467.7,945.6,465.7,945.2,462.6z M188.2,547.3
	c0.2,1.3,0.2,2-0.1,2.3C188.3,548.8,188.3,548.1,188.2,547.3z M186.3,550.5C186,550.5,186,550.2,186.3,550.5L186.3,550.5z"/>
<path d="M683.7,287.2c3.1-0.7,6.2-1.3,9.3-1.8l4.4-0.8l2.3-0.3l1.1-0.2h0.8c6-0.8,12-1.3,18.1-1.4l5,0.3h1.5l2,0.3l4.7,1.4h0.1
	l1.3,0.6l2.1,1.3c2.4,1.4,5.4,0.6,6.8-1.8c1.4-2.4,0.6-5.5-1.8-6.9c-10.9-6.9-24.8-5.7-37.1-4.3c-13.4,1.5-26.7,4.2-39.6,8.3
	c-3.8,1.3-7.7,2.6-11.5,4.1c0.4-0.8,0.8-1.6,1.3-2.4c0.4-0.7,0.8-1.3,1.3-1.9c0.1-0.3,0.3-0.5,0.5-0.7c0-0.1,0.3-0.4,0.4-0.6
	c1.7-2,2.2-5.1,0-7.1c-1.9-1.9-5.1-1.9-7,0c-12.9,10.5-25,22-36,34.5c-11.3,12.7-21.5,26.3-30.6,40.6c-5.1,7.9-9.7,16-14,24.4
	c-1.2,2.3-0.7,5.5,1.8,6.8s5.5,0.7,6.8-1.8c7.6-14.7,16.3-28.8,26.2-42.1c1.2-1.7,2.4-3.3,3.7-4.9l0.3-0.5l1-1.2l2.1-2.6
	c2.5-3.2,5.1-6.4,7.8-9.4c5.5-6.3,11.2-12.4,17.1-18.2l4.7-4.4c0,1.5,0.6,3,1.8,4c1.6,1.2,3.8,1.3,5.6,0.3l2.1-0.9h0.5l0.9-0.3
	l4.7-1.9c3-1.2,6-2.2,9-3.2C671.3,290.4,677.5,288.7,683.7,287.2z"/>
<path d="M788.1,356.5c-5.6-4.9-11.8-8.8-18.6-11.8c-3.5-1.6-7.2-2.9-10.9-3.9c-1.7-0.5-3.4-0.9-5.1-1.2l-2.5-0.4l-0.9-0.2
	c0,0,0,0,0,0l-0.1,0c0.1,0,0.1,0,0.1-0.1c0.1-0.4,0.1-0.3,0.1-0.1c0.1-0.3,0.3-0.7,0.4-0.8l0.6-1.1c0.2-0.2,1.1-1.4,0.2-0.3
	c1.3-1.7,1.9-3.5,1.1-5.5s-2.7-3.3-4.6-3.1c-22.1,2.9-43.6,8.8-64,17.8c-5.6,2.5-11.1,5.2-16.4,8.1c-2.5,1.1-3.6,4.1-2.5,6.6
	s4.1,3.6,6.6,2.5c0.3-0.1,0.6-0.3,0.9-0.5c4.7-2.5,9.4-4.8,14.2-7l3.5-1.6l1.7-0.7h0.2l1.3-0.5l7.2-2.8c9.9-3.7,20-6.6,30.3-8.8
	c3-0.7,6-1.2,8.9-1.7h0.1c0,0.6,0,1.2,0.1,1.8c0.3,2.6,1.7,5,3.9,6.4c1.8,1.2,4,1.4,6.1,1.8c3.8,0.7,7.5,1.6,11.2,2.9l2.5,1l0.9,0.4
	l1.2,0.5l5.1,2.6c1.9,1.1,3.7,2.2,5.5,3.5l2.5,1.8l0.7,0.5l1.5,1.2c2,1.7,5.1,2.1,7,0C790,361.7,790.3,358.3,788.1,356.5z"/>
</svg>
