<?xml version="1.0" encoding="utf-8"?>
<!-- Generator: Adobe Illustrator 24.2.3, SVG Export Plug-In . SVG Version: 6.00 Build 0)  -->
<svg version="1.1" id="aa2aaab1-0c64-4954-92b3-8c62bfc31e77"
	 xmlns="http://www.w3.org/2000/svg" xmlns:xlink="http://www.w3.org/1999/xlink" x="0px" y="0px" viewBox="0 0 1152 864"
	 style="enable-background:new 0 0 1152 864;" xml:space="preserve">
<path d="M953.2,348.3c-11.6-15.1-24.5-29.2-38.7-41.9c-28.3-25.4-61-45.4-96.5-59c-18.3-7-37.9-11.1-52.6-24.9
	c-7.2-6.8-14.4-14.1-24.8-15.2s-17.8,3.5-26.6,5.5c-21.2,4.6-43.9-4.8-63.6-11.5c-10.2-3.5-20.5-6.8-31.1-8.5s-20.3-1.6-30.5-2.2
	c-19.9-1-39.7-3.5-59.6-1.9s-40.7,5.9-60.8,10.2l-15.5,3.2c-4.9,1-10.6,1.5-15.3,3.4s-6.5,3.6-9.7,5.5c-1.2,0.7-2.7,1.8-4.1,2
	s-4.9-1.3-6.9-1.9c-10.8-3.1-20.9-0.6-31.6,2.1s-19.3,5.4-28.8,8.6c-38.5,12.9-75,31.1-108.5,54.1c-8.3,5.6-16.3,11.6-24.2,17.9
	s-15.1,11.9-21.6,18.9s-11.5,14.3-13.4,23.2c-2.4,11.1,1.8,21.2,4.1,31.9s2.5,22.5,2.6,33.7s0.4,23,0.9,34.5
	c1.1,23.1,3.2,46.1,6.1,69c4.3,32.5,11.7,70.1,40.3,90.3c15.8,11.2,36.3,13.8,55.3,13.3c16.7-0.4,33.1-4,48.5-10.5
	c15.1-6.5,28.7-16.3,38.6-29.6c11.3-15.2,15.9-34.1,15.4-52.9c-0.7-20.8-6.8-41.1-13.9-60.5s-16.7-41.2-17.8-63.2s7.9-43.7,16-64.1
	s17.3-40.7,27.3-60.4c4.5-8.7,9.9-17.1,13.5-26.2c2.3-6.1,3.3-13,0.6-18.7c2.2-0.6,4.3-1.5,6.2-2.6c2.8-1.6,5.5-3.9,8.6-5.1
	c4.8-1.9,10.8-2.3,15.9-3.3l30.3-6.4c18.9-3.8,38.1-7.1,57.5-7.1c9.3,0.1,18.6,1.1,27.8,1.7s20.4,1.2,30.6,1.6
	c20.8,0.9,39.6,8.2,59.2,14.6s40.8,10.9,61.2,4.6l1.3-0.4c3.7,17,13.1,32.1,22.5,46.5s16.9,26.6,25.6,39.7c2.7,8.4,4.9,17,6.7,25.6
	c8.6,42.5,4.3,86.5-10.9,127c-7.2,19.3-15.8,38.9-15.3,59.9c0.3,17.4,7.1,34,17.6,47.7c21.6,28.1,59,44.3,94.2,36.4
	c17.1-3.8,32.1-14.3,41.5-29.1c9.7-15,13.9-32.9,17-50.3c3.9-22.2,7-44.6,10.5-66.9c1.7-10.6,3.2-21.3,5.2-31.9s4.2-19,8.9-27.5
	s12.6-14.2,15-23.2S958.9,355.8,953.2,348.3z M376.5,456.5c12.8,34.3,24.5,77.9-1.7,109.2c-20.2,24-53.7,33.7-84.2,32.9
	c-18.6-0.5-37.1-4.8-50.4-18.6c-11.1-11.5-17.4-26.8-21.4-42c-4.8-17.6-6.8-35.8-8.7-53.9c-2.4-22.5-3.8-45.1-4.4-67.7
	c-0.2-11.1,0-22.2-0.8-33.2s-3.5-21.2-5.9-31.9c-2.1-9.2-0.3-17.3,5.1-25.1s12.6-13.7,19.7-19.6c30-24.8,63.2-45.3,98.8-61
	c17.9-8,36.4-14.7,55.3-20c4.4-1.3,8.8-2.4,13.3-3.6s10.7-2.8,16.1-2.6c2.1,0.1,4.2,0.5,6.2,1.2c-32.1,32.7-43.7,81.1-50.1,125.1
	c-1.8,11.9-3.1,23.8-4.4,35.7c-0.1,0.5-0.1,1,0,1.5c-0.3,4.6-0.2,9.3,0.2,13.9C361.3,417.6,369.3,437.1,376.5,456.5z M411.6,247.1
	c-5,9.3-9.8,18.7-14.4,28.2c-6.7,13.9-13,28-18.9,42.3c4.7-21.9,11.6-43.2,22.4-62.7c4.9-8.9,10.7-17.2,17.5-24.7
	C418.5,235.9,413.8,243,411.6,247.1z M734.7,218.2c7.1,1.1,11.2,10.8,13.4,17c3.6,10.2,7.2,20.5,10.9,30.8l-2.2-3.3
	C747.7,248.8,738.5,234.5,734.7,218.2L734.7,218.2z M953.2,372.9c-1.7,4.1-5.1,7.4-7.9,10.9c-5.7,7.6-9.9,16.1-12.4,25.2
	c-2.7,9.4-4.1,19-5.6,28.6s-3.5,21.8-5.2,32.7c-3.2,20.3-5.7,40.9-10,61c-3.5,16.5-8.8,33.6-20.7,46.1
	c-24.2,25.3-65.3,20.5-92.1,2.3c-13.7-9.4-25.2-22.8-31.2-38.4c-6.9-17.9-4.9-36.1,0.9-54s14.6-37.6,19.1-57.4
	c9.3-41,7.7-83.7-4.7-123.8c-0.2-0.8-0.5-1.5-0.7-2.3c-0.1-0.6-0.3-1.2-0.6-1.7c-6.4-20.1-13.9-39.9-20.9-59.8
	c-1.8-5.1-3.4-10.6-5.6-15.7c4.7,4.4,9.2,9,14.8,12.5c16.1,10,35.5,13.9,52.9,21.1c16.6,7,32.5,15.5,47.6,25.3
	c30.6,19.9,58.7,45.7,79.6,75.8C952.9,364.9,955.1,368.5,953.2,372.9z"/>
</svg>
