  0
SECTION
  2
HEADER
  9
$ACADVER
  1
AC1024
  9
$ACADMAINTVER
 70
     6
  9
$DWGCODEPAGE
  3
UNDEFINED
  9
$INSBASE
 10
0.0
 20
0.0
 30
0.0
  9
$EXTMIN
 10
1.000000000000000E+20
 20
1.000000000000000E+20
 30
1.000000000000000E+20
  9
$EXTMAX
 10
-1.000000000000000E+20
 20
-1.000000000000000E+20
 30
-1.000000000000000E+20
  9
$LIMMIN
 10
0.0
 20
0.0
  9
$LIMMAX
 10
12.0
 20
9.0
  9
$ORTHOMODE
 70
     0
  9
$REGENMODE
 70
     1
  9
$FILLMODE
 70
     1
  9
$QTEXTMODE
 70
     0
  9
$MIRRTEXT
 70
     1
  9
$LTSCALE
 40
1.0
  9
$ATTMODE
 70
     1
  9
$TEXTSIZE
 40
0.2
  9
$TRACEWID
 40
0.05
  9
$TEXTSTYLE
  7
Standard
  9
$CLAYER
  8
0
  9
$CELTYPE
  6
ByLayer
  9
$CECOLOR
 62
   256
  9
$CELTSCALE
 40
1.0
  9
$DISPSILH
 70
     0
  9
$DIMSCALE
 40
1.0
  9
$DIMASZ
 40
0.18
  9
$DIMEXO
 40
0.0625
  9
$DIMDLI
 40
0.38
  9
$DIMRND
 40
0.0
  9
$DIMDLE
 40
0.0
  9
$DIMEXE
 40
0.18
  9
$DIMTP
 40
0.0
  9
$DIMTM
 40
0.0
  9
$DIMTXT
 40
0.18
  9
$DIMCEN
 40
0.09
  9
$DIMTSZ
 40
0.0
  9
$DIMTOL
 70
     0
  9
$DIMLIM
 70
     0
  9
$DIMTIH
 70
     1
  9
$DIMTOH
 70
     1
  9
$DIMSE1
 70
     0
  9
$DIMSE2
 70
     0
  9
$DIMTAD
 70
     0
  9
$DIMZIN
 70
     0
  9
$DIMBLK
  1

  9
$DIMASO
 70
     1
  9
$DIMSHO
 70
     1
  9
$DIMPOST
  1

  9
$DIMAPOST
  1

  9
$DIMALT
 70
     0
  9
$DIMALTD
 70
     2
  9
$DIMALTF
 40
25.4
  9
$DIMLFAC
 40
1.0
  9
$DIMTOFL
 70
     0
  9
$DIMTVP
 40
0.0
  9
$DIMTIX
 70
     0
  9
$DIMSOXD
 70
     0
  9
$DIMSAH
 70
     0
  9
$DIMBLK1
  1

  9
$DIMBLK2
  1

  9
$DIMSTYLE
  2
Standard
  9
$DIMCLRD
 70
     0
  9
$DIMCLRE
 70
     0
  9
$DIMCLRT
 70
     0
  9
$DIMTFAC
 40
1.0
  9
$DIMGAP
 40
0.09
  9
$DIMJUST
 70
     0
  9
$DIMSD1
 70
     0
  9
$DIMSD2
 70
     0
  9
$DIMTOLJ
 70
     1
  9
$DIMTZIN
 70
     0
  9
$DIMALTZ
 70
     0
  9
$DIMALTTZ
 70
     0
  9
$DIMUPT
 70
     0
  9
$DIMDEC
 70
     4
  9
$DIMTDEC
 70
     4
  9
$DIMALTU
 70
     2
  9
$DIMALTTD
 70
     2
  9
$DIMTXSTY
  7
Standard
  9
$DIMAUNIT
 70
     0
  9
$DIMADEC
 70
     0
  9
$DIMALTRND
 40
0.0
  9
$DIMAZIN
 70
     0
  9
$DIMDSEP
 70
    46
  9
$DIMATFIT
 70
     3
  9
$DIMFRAC
 70
     0
  9
$DIMLDRBLK
  1

  9
$DIMLUNIT
 70
     2
  9
$DIMLWD
 70
    -2
  9
$DIMLWE
 70
    -2
  9
$DIMTMOVE
 70
     0
  9
$DIMFXL
 40
1.0
  9
$DIMFXLON
 70
     0
  9
$DIMJOGANG
 40
0.7853981633974483
  9
$DIMTFILL
 70
     0
  9
$DIMTFILLCLR
 70
     0
  9
$DIMARCSYM
 70
     0
  9
$DIMLTYPE
  6

  9
$DIMLTEX1
  6

  9
$DIMLTEX2
  6

  9
$DIMTXTDIRECTION
 70
     0
  9
$LUNITS
 70
     2
  9
$LUPREC
 70
     4
  9
$SKETCHINC
 40
0.1
  9
$FILLETRAD
 40
0.5
  9
$AUNITS
 70
     0
  9
$AUPREC
 70
     0
  9
$MENU
  1
.
  9
$ELEVATION
 40
0.0
  9
$PELEVATION
 40
0.0
  9
$THICKNESS
 40
0.0
  9
$LIMCHECK
 70
     0
  9
$CHAMFERA
 40
0.5
  9
$CHAMFERB
 40
0.5
  9
$CHAMFERC
 40
1.0
  9
$CHAMFERD
 40
0.0
  9
$SKPOLY
 70
     0
  9
$TDCREATE
 40
2459305.906805544
  9
$TDUCREATE
 40
2459306.156805555
  9
$TDUPDATE
 40
2459305.906805544
  9
$TDUUPDATE
 40
2459306.156805555
  9
$TDINDWG
 40
0.0000000116
  9
$TDUSRTIMER
 40
0.0000000116
  9
$USRTIMER
 70
     1
  9
$ANGBASE
 50
0.0
  9
$ANGDIR
 70
     0
  9
$PDMODE
 70
     0
  9
$PDSIZE
 40
0.0
  9
$PLINEWID
 40
0.0
  9
$SPLFRAME
 70
     0
  9
$SPLINETYPE
 70
     6
  9
$SPLINESEGS
 70
     8
  9
$HANDSEED
  5
69
  9
$SURFTAB1
 70
     6
  9
$SURFTAB2
 70
     6
  9
$SURFTYPE
 70
     6
  9
$SURFU
 70
     6
  9
$SURFV
 70
     6
  9
$UCSBASE
  2

  9
$UCSNAME
  2

  9
$UCSORG
 10
0.0
 20
0.0
 30
0.0
  9
$UCSXDIR
 10
1.0
 20
0.0
 30
0.0
  9
$UCSYDIR
 10
0.0
 20
1.0
 30
0.0
  9
$UCSORTHOREF
  2

  9
$UCSORTHOVIEW
 70
     0
  9
$UCSORGTOP
 10
0.0
 20
0.0
 30
0.0
  9
$UCSORGBOTTOM
 10
0.0
 20
0.0
 30
0.0
  9
$UCSORGLEFT
 10
0.0
 20
0.0
 30
0.0
  9
$UCSORGRIGHT
 10
0.0
 20
0.0
 30
0.0
  9
$UCSORGFRONT
 10
0.0
 20
0.0
 30
0.0
  9
$UCSORGBACK
 10
0.0
 20
0.0
 30
0.0
  9
$PUCSBASE
  2

  9
$PUCSNAME
  2

  9
$PUCSORG
 10
0.0
 20
0.0
 30
0.0
  9
$PUCSXDIR
 10
1.0
 20
0.0
 30
0.0
  9
$PUCSYDIR
 10
0.0
 20
1.0
 30
0.0
  9
$PUCSORTHOREF
  2

  9
$PUCSORTHOVIEW
 70
     0
  9
$PUCSORGTOP
 10
0.0
 20
0.0
 30
0.0
  9
$PUCSORGBOTTOM
 10
0.0
 20
0.0
 30
0.0
  9
$PUCSORGLEFT
 10
0.0
 20
0.0
 30
0.0
  9
$PUCSORGRIGHT
 10
0.0
 20
0.0
 30
0.0
  9
$PUCSORGFRONT
 10
0.0
 20
0.0
 30
0.0
  9
$PUCSORGBACK
 10
0.0
 20
0.0
 30
0.0
  9
$USERI1
 70
     0
  9
$USERI2
 70
     0
  9
$USERI3
 70
     0
  9
$USERI4
 70
     0
  9
$USERI5
 70
     0
  9
$USERR1
 40
0.0
  9
$USERR2
 40
0.0
  9
$USERR3
 40
0.0
  9
$USERR4
 40
0.0
  9
$USERR5
 40
0.0
  9
$WORLDVIEW
 70
     1
  9
$SHADEDGE
 70
     3
  9
$SHADEDIF
 70
    70
  9
$TILEMODE
 70
     1
  9
$MAXACTVP
 70
    64
  9
$PINSBASE
 10
0.0
 20
0.0
 30
0.0
  9
$PLIMCHECK
 70
     0
  9
$PEXTMIN
 10
1.000000000000000E+20
 20
1.000000000000000E+20
 30
1.000000000000000E+20
  9
$PEXTMAX
 10
-1.000000000000000E+20
 20
-1.000000000000000E+20
 30
-1.000000000000000E+20
  9
$PLIMMIN
 10
0.0
 20
0.0
  9
$PLIMMAX
 10
12.0
 20
9.0
  9
$UNITMODE
 70
     0
  9
$VISRETAIN
 70
     1
  9
$PLINEGEN
 70
     0
  9
$PSLTSCALE
 70
     1
  9
$TREEDEPTH
 70
  3020
  9
$CMLSTYLE
  2
Standard
  9
$CMLJUST
 70
     0
  9
$CMLSCALE
 40
1.0
  9
$PROXYGRAPHICS
 70
     1
  9
$MEASUREMENT
 70
     0
  9
$CELWEIGHT
370
    -1
  9
$ENDCAPS
280
     0
  9
$JOINSTYLE
280
     0
  9
$LWDISPLAY
290
     1
  9
$INSUNITS
 70
     1
  9
$HYPERLINKBASE
  1

  9
$STYLESHEET
  1

  9
$XEDIT
290
     1
  9
$CEPSNTYPE
380
     0
  9
$PSTYLEMODE
290
     1
  9
$FINGERPRINTGUID
  2
{5ACE3613-9817-1379-8CB1-368D736DD93D}
  9
$VERSIONGUID
  2
{FAEB1C32-E019-11D5-929B-00C0DF256EC4}
  9
$EXTNAMES
290
     1
  9
$PSVPSCALE
 40
0.0
  9
$OLESTARTUP
290
     0
  9
$SORTENTS
280
   127
  9
$INDEXCTL
280
     0
  9
$HIDETEXT
280
     1
  9
$XCLIPFRAME
280
     2
  9
$HALOGAP
280
     0
  9
$OBSCOLOR
 70
   257
  9
$OBSLTYPE
280
     0
  9
$INTERSECTIONDISPLAY
280
     0
  9
$INTERSECTIONCOLOR
 70
   257
  9
$DIMASSOC
280
     2
  9
$PROJECTNAME
  1

  9
$CAMERADISPLAY
290
     0
  9
$LENSLENGTH
 40
50.0
  9
$CAMERAHEIGHT
 40
0.0
  9
$STEPSPERSEC
 40
2.0
  9
$STEPSIZE
 40
6.0
  9
$3DDWFPREC
 40
2.0
  9
$PSOLWIDTH
 40
0.25
  9
$PSOLHEIGHT
 40
4.0
  9
$LOFTANG1
 40
1.570796326794897
  9
$LOFTANG2
 40
1.570796326794897
  9
$LOFTMAG1
 40
0.0
  9
$LOFTMAG2
 40
0.0
  9
$LOFTPARAM
 70
     7
  9
$LOFTNORMALS
280
     1
  9
$LATITUDE
 40
37.795
  9
$LONGITUDE
 40
-122.394
  9
$NORTHDIRECTION
 40
0.0
  9
$TIMEZONE
 70
 -8000
  9
$LIGHTGLYPHDISPLAY
280
     1
  9
$TILEMODELIGHTSYNCH
280
     1
  9
$CMATERIAL
347
3C
  9
$SOLIDHIST
280
     1
  9
$SHOWHIST
280
     1
  9
$DWFFRAME
280
     2
  9
$DGNFRAME
280
     2
  9
$REALWORLDSCALE
290
     1
  9
$INTERFERECOLOR
 62
   256
  9
$CSHADOW
280
     0
  9
$SHADOWPLANELOCATION
 40
0.0
  0
ENDSEC
  0
SECTION
  2
CLASSES
  0
CLASS
  1
ACDBDICTIONARYWDFLT
  2
AcDbDictionaryWithDefault
  3
ObjectDBX Classes
 90
        0
 91
        4
280
     0
281
     0
  0
CLASS
  1
VISUALSTYLE
  2
AcDbVisualStyle
  3
ObjectDBX Classes
 90
     4095
 91
        4
280
     0
281
     0
  0
CLASS
  1
MATERIAL
  2
AcDbMaterial
  3
ObjectDBX Classes
 90
     1153
 91
        4
280
     0
281
     0
  0
CLASS
  1
SUN
  2
AcDbSun
  3
SCENEOE
 90
     1024
 91
        4
280
     0
281
     0
  0
ENDSEC
  0
SECTION
  2
TABLES
  0
TABLE
  2
VPORT
  5
8
330
0
100
AcDbSymbolTable
 70
     1
  0
VPORT
  5
29
330
8
100
AcDbSymbolTableRecord
100
AcDbViewportTableRecord
  2
*Active
 70
     0
 10
0.0
 20
0.0
 11
1.0
 21
1.0
 12
0.0
 22
0.0
 13
0.0
 23
0.0
 14
0.5
 24
0.5
 15
0.5
 25
0.5
 16
0.0
 26
0.0
 36
1.0
 17
10.88368733723958
 27
16.15875074598524
 37
0.0
 40
32.31750149197048
 41
0.6735475723544849
 42
50.0
 43
0.0
 44
0.0
 50
0.0
 51
0.0
 71
     0
 72
   100
 73
     1
 74
     3
 75
     0
 76
     0
 77
     0
 78
     0
281
     0
 65
     1
110
0.0
120
0.0
130
0.0
111
1.0
121
0.0
131
0.0
112
0.0
122
1.0
132
0.0
 79
     0
146
0.0
 60
     3
 61
     5
292
     1
282
     1
141
0.0
142
0.0
 63
   250
361
3F
  0
ENDTAB
  0
TABLE
  2
LTYPE
  5
5
330
0
100
AcDbSymbolTable
 70
     1
  0
LTYPE
  5
14
330
5
100
AcDbSymbolTableRecord
100
AcDbLinetypeTableRecord
  2
ByBlock
 70
     0
  3

 72
    65
 73
     0
 40
0.0
  0
LTYPE
  5
15
330
5
100
AcDbSymbolTableRecord
100
AcDbLinetypeTableRecord
  2
ByLayer
 70
     0
  3

 72
    65
 73
     0
 40
0.0
  0
LTYPE
  5
16
330
5
100
AcDbSymbolTableRecord
100
AcDbLinetypeTableRecord
  2
Continuous
 70
     0
  3
Solid line
 72
    65
 73
     0
 40
0.0
  0
ENDTAB
  0
TABLE
  2
LAYER
  5
2
330
0
100
AcDbSymbolTable
 70
     2
  0
LAYER
  5
10
330
2
100
AcDbSymbolTableRecord
100
AcDbLayerTableRecord
  2
0
 70
     0
 62
     7
  6
Continuous
370
    -3
390
F
347
3E
  0
LAYER
  5
40
330
2
100
AcDbSymbolTableRecord
100
AcDbLayerTableRecord
  2
Layer 1
 70
     0
 62
     7
  6
Continuous
370
    -3
390
F
347
3E
  0
ENDTAB
  0
TABLE
  2
STYLE
  5
3
330
0
100
AcDbSymbolTable
 70
     1
  0
STYLE
  5
11
330
3
100
AcDbSymbolTableRecord
100
AcDbTextStyleTableRecord
  2
Standard
 70
     0
 40
0.0
 41
1.0
 50
0.0
 71
     0
 42
0.2
  3
txt
  4

  0
ENDTAB
  0
TABLE
  2
VIEW
  5
6
330
0
100
AcDbSymbolTable
 70
     0
  0
ENDTAB
  0
TABLE
  2
UCS
  5
7
330
0
100
AcDbSymbolTable
 70
     0
  0
ENDTAB
  0
TABLE
  2
APPID
  5
9
330
0
100
AcDbSymbolTable
 70
     1
  0
APPID
  5
12
330
9
100
AcDbSymbolTableRecord
100
AcDbRegAppTableRecord
  2
ACAD
 70
     0
  0
ENDTAB
  0
TABLE
  2
DIMSTYLE
  5
A
330
0
100
AcDbSymbolTable
 70
     1
100
AcDbDimStyleTable
  0
DIMSTYLE
105
27
330
A
100
AcDbSymbolTableRecord
100
AcDbDimStyleTableRecord
  2
Standard
 70
     0
178
     0
340
11
  0
ENDTAB
  0
TABLE
  2
BLOCK_RECORD
  5
1
330
0
100
AcDbSymbolTable
 70
     5
  0
BLOCK_RECORD
  5
1F
330
1
100
AcDbSymbolTableRecord
100
AcDbBlockTableRecord
  2
*Model_Space
340
22
 70
     0
280
     1
281
     0
  0
BLOCK_RECORD
  5
1B
330
1
100
AcDbSymbolTableRecord
100
AcDbBlockTableRecord
  2
*Paper_Space
340
1E
 70
     0
280
     1
281
     0
  0
BLOCK_RECORD
  5
23
330
1
100
AcDbSymbolTableRecord
100
AcDbBlockTableRecord
  2
*Paper_Space0
340
26
 70
     0
280
     1
281
     0
  0
BLOCK_RECORD
  5
4F
330
1
100
AcDbSymbolTableRecord
100
AcDbBlockTableRecord
  2
block 2
340
0
102
{BLKREFS
331
50
102
}
 70
     0
280
     1
281
     0
  0
BLOCK_RECORD
  5
55
330
1
100
AcDbSymbolTableRecord
100
AcDbBlockTableRecord
  2
block 3
340
0
102
{BLKREFS
331
56
102
}
 70
     0
280
     1
281
     0
  0
BLOCK_RECORD
  5
5A
330
1
100
AcDbSymbolTableRecord
100
AcDbBlockTableRecord
  2
block 4
340
0
102
{BLKREFS
331
5B
102
}
 70
     0
280
     1
281
     0
  0
BLOCK_RECORD
  5
60
330
1
100
AcDbSymbolTableRecord
100
AcDbBlockTableRecord
  2
block 5
340
0
102
{BLKREFS
331
61
102
}
 70
     0
280
     1
281
     0
  0
ENDTAB
  0
ENDSEC
  0
SECTION
  2
BLOCKS
  0
BLOCK
  5
20
330
1F
100
AcDbEntity
  8
0
100
AcDbBlockBegin
  2
*Model_Space
 70
     0
 10
0.0
 20
0.0
 30
0.0
  3
*Model_Space
  1

  0
ENDBLK
  5
21
330
1F
100
AcDbEntity
  8
0
100
AcDbBlockEnd
  0
BLOCK
  5
1C
330
1B
100
AcDbEntity
 67
     1
  8
0
100
AcDbBlockBegin
  2
*Paper_Space
 70
     0
 10
0.0
 20
0.0
 30
0.0
  3
*Paper_Space
  1

  0
ENDBLK
  5
1D
330
1B
100
AcDbEntity
 67
     1
  8
0
100
AcDbBlockEnd
  0
BLOCK
  5
24
330
23
100
AcDbEntity
  8
0
100
AcDbBlockBegin
  2
*Paper_Space0
 70
     0
 10
0.0
 20
0.0
 30
0.0
  3
*Paper_Space0
  1

  0
ENDBLK
  5
25
330
23
100
AcDbEntity
  8
0
100
AcDbBlockEnd
  0
BLOCK
  5
51
330
4F
100
AcDbEntity
  8
0
100
AcDbBlockBegin
  2
block 2
 70
     0
 10
0.0
 20
0.0
 30
0.0
  3
block 2
  1

  0
SPLINE
  5
53
330
4F
100
AcDbEntity
  8
Layer 1
 62
     7
420
 16777215
370
    70
100
AcDbSpline
210
0.0
220
0.0
230
1.0
 70
    11
 71
     3
 72
    71
 73
    67
 74
     0
 42
0.0000000001
 43
0.0000000001
 12
1.0
 22
0.0
 32
0.0
 13
1.0
 23
0.0
 33
0.0
 40
0.0
 40
0.0
 40
0.0
 40
0.0
 40
1.0
 40
1.0
 40
1.0
 40
2.0
 40
2.0
 40
2.0
 40
3.0
 40
3.0
 40
3.0
 40
4.0
 40
4.0
 40
4.0
 40
5.0
 40
5.0
 40
5.0
 40
6.0
 40
6.0
 40
6.0
 40
7.0
 40
7.0
 40
7.0
 40
8.0
 40
8.0
 40
8.0
 40
9.0
 40
9.0
 40
9.0
 40
10.0
 40
10.0
 40
10.0
 40
11.0
 40
11.0
 40
11.0
 40
12.0
 40
12.0
 40
12.0
 40
13.0
 40
13.0
 40
13.0
 40
14.0
 40
14.0
 40
14.0
 40
15.0
 40
15.0
 40
15.0
 40
16.0
 40
16.0
 40
16.0
 40
17.0
 40
17.0
 40
17.0
 40
18.0
 40
18.0
 40
18.0
 40
19.0
 40
19.0
 40
19.0
 40
20.0
 40
20.0
 40
20.0
 40
21.0
 40
21.0
 40
21.0
 40
22.0
 40
22.0
 40
22.0
 40
22.0
 10
2.602694405449761
 20
1.738613518608948
 30
0.0
 10
1.992805480957031
 20
2.463975660536031
 30
0.0
 10
1.687861124674479
 20
3.52827958848742
 30
0.0
 10
1.687861124674479
 20
4.931557515462246
 30
0.0
 10
1.687861124674479
 20
4.931557515462246
 30
0.0
 10
1.687861124674479
 20
8.052751295301656
 30
0.0
 10
1.687861124674479
 20
8.052751295301656
 30
0.0
 10
1.687861124674479
 20
8.052751295301656
 30
0.0
 10
0.7431388960944282
 20
8.052751295301656
 30
0.0
 10
0.7431388960944282
 20
8.052751295301656
 30
0.0
 10
0.7431388960944282
 20
8.052751295301656
 30
0.0
 10
0.7431388960944282
 20
10.10962588840061
 30
0.0
 10
0.7431388960944282
 20
10.10962588840061
 30
0.0
 10
0.7431388960944282
 20
10.10962588840061
 30
0.0
 10
5.813583374023438
 20
10.10962588840061
 30
0.0
 10
5.813583374023438
 20
10.10962588840061
 30
0.0
 10
5.813583374023438
 20
10.10962588840061
 30
0.0
 10
5.813583374023438
 20
8.052751295301656
 30
0.0
 10
5.813583374023438
 20
8.052751295301656
 30
0.0
 10
5.813583374023438
 20
8.052751295301656
 30
0.0
 10
4.952569325764974
 20
8.052751295301656
 30
0.0
 10
4.952569325764974
 20
8.052751295301656
 30
0.0
 10
4.952569325764974
 20
8.052751295301656
 30
0.0
 10
4.952569325764974
 20
4.14229326036242
 30
0.0
 10
4.952569325764974
 20
4.14229326036242
 30
0.0
 10
4.952569325764974
 20
3.759613003200962
 30
0.0
 10
5.046180301242404
 20
3.446641676161031
 30
0.0
 10
5.233597225613064
 20
3.203542039659295
 30
0.0
 10
5.420805613199869
 20
2.960249125162767
 30
0.0
 10
5.713805728488498
 20
2.838792555067281
 30
0.0
 10
6.11254162258572
 20
2.838792555067281
 30
0.0
 10
6.447374979654947
 20
2.838792555067281
 30
0.0
 10
6.712347242567274
 20
2.938388366699226
 30
0.0
 10
6.907791561550564
 20
3.137763095431865
 30
0.0
 10
7.103055318196614
 20
3.336944546169712
 30
0.0
 10
7.200777689615885
 20
3.60806949191624
 30
0.0
 10
7.200777689615885
 20
3.950942959255649
 30
0.0
 10
7.200777689615885
 20
3.950942959255649
 30
0.0
 10
7.200777689615885
 20
8.052747904459642
 30
0.0
 10
7.200777689615885
 20
8.052747904459642
 30
0.0
 10
7.200777689615885
 20
8.052747904459642
 30
0.0
 10
6.244097391764322
 20
8.052747904459642
 30
0.0
 10
6.244097391764322
 20
8.052747904459642
 30
0.0
 10
6.244097391764322
 20
8.052747904459642
 30
0.0
 10
6.244097391764322
 20
10.1096224975586
 30
0.0
 10
6.244097391764322
 20
10.1096224975586
 30
0.0
 10
6.244097391764322
 20
10.1096224975586
 30
0.0
 10
10.05888875325521
 20
10.1096224975586
 30
0.0
 10
10.05888875325521
 20
10.1096224975586
 30
0.0
 10
10.05888875325521
 20
10.1096224975586
 30
0.0
 10
10.05888875325521
 20
8.052747904459642
 30
0.0
 10
10.05888875325521
 20
8.052747904459642
 30
0.0
 10
10.05888875325521
 20
8.052747904459642
 30
0.0
 10
9.162000020345051
 20
8.052747904459642
 30
0.0
 10
9.162000020345051
 20
8.052747904459642
 30
0.0
 10
9.162000020345051
 20
8.052747904459642
 30
0.0
 10
9.162000020345051
 20
4.034664543999573
 30
0.0
 10
9.162000020345051
 20
4.034664543999573
 30
0.0
 10
9.162000020345051
 20
2.918399353027351
 30
0.0
 10
8.834999932183159
 20
2.075330912272142
 30
0.0
 10
8.181388854980469
 20
1.505415140787767
 30
0.0
 10
7.527597215440538
 20
0.9353162638346424
 30
0.0
 10
6.666583167182075
 20
0.6503736368815175
 30
0.0
 10
5.598347134060329
 20
0.6503736368815175
 30
0.0
 10
4.211138831244575
 20
0.6503634643554758
 30
0.0
 10
3.212597317165798
 20
1.013044535319017
 30
0.0
 10
2.602694405449761
 20
1.738613518608948
 30
0.0
  0
SPLINE
  5
54
330
4F
100
AcDbEntity
  8
Layer 1
 62
     7
420
 16777215
370
    70
100
AcDbSpline
210
0.0
220
0.0
230
1.0
 70
    11
 71
     3
 72
    80
 73
    76
 74
     0
 42
0.0000000001
 43
0.0000000001
 12
1.0
 22
0.0
 32
0.0
 13
1.0
 23
0.0
 33
0.0
 40
0.0
 40
0.0
 40
0.0
 40
0.0
 40
1.0
 40
1.0
 40
1.0
 40
2.0
 40
2.0
 40
2.0
 40
3.0
 40
3.0
 40
3.0
 40
4.0
 40
4.0
 40
4.0
 40
5.0
 40
5.0
 40
5.0
 40
6.0
 40
6.0
 40
6.0
 40
7.0
 40
7.0
 40
7.0
 40
8.0
 40
8.0
 40
8.0
 40
9.0
 40
9.0
 40
9.0
 40
10.0
 40
10.0
 40
10.0
 40
11.0
 40
11.0
 40
11.0
 40
12.0
 40
12.0
 40
12.0
 40
13.0
 40
13.0
 40
13.0
 40
14.0
 40
14.0
 40
14.0
 40
15.0
 40
15.0
 40
15.0
 40
16.0
 40
16.0
 40
16.0
 40
17.0
 40
17.0
 40
17.0
 40
18.0
 40
18.0
 40
18.0
 40
19.0
 40
19.0
 40
19.0
 40
20.0
 40
20.0
 40
20.0
 40
21.0
 40
21.0
 40
21.0
 40
22.0
 40
22.0
 40
22.0
 40
23.0
 40
23.0
 40
23.0
 40
24.0
 40
24.0
 40
24.0
 40
25.0
 40
25.0
 40
25.0
 40
25.0
 10
5.598333146837022
 20
1.000362786187073
 30
0.0
 10
4.94883304172092
 20
1.000362786187073
 30
0.0
 10
4.387027740478516
 20
1.084808315700962
 30
0.0
 10
3.92852783203125
 20
1.25136308458117
 30
0.0
 10
3.490041732788086
 20
1.410654669867629
 30
0.0
 10
3.134111192491319
 20
1.65034990098742
 30
0.0
 10
2.87062496609158
 20
1.963806118435337
 30
0.0
 10
2.318041695488823
 20
2.621002163357212
 30
0.0
 10
2.037874857584635
 20
3.619486456977004
 30
0.0
 10
2.037874857584635
 20
4.931542256673183
 30
0.0
 10
2.037874857584635
 20
4.931542256673183
 30
0.0
 10
2.037874857584635
 20
8.402750617133254
 30
0.0
 10
2.037874857584635
 20
8.402750617133254
 30
0.0
 10
2.037874857584635
 20
8.402750617133254
 30
0.0
 10
1.093138906690809
 20
8.402750617133254
 30
0.0
 10
1.093138906690809
 20
8.402750617133254
 30
0.0
 10
1.093138906690809
 20
8.402750617133254
 30
0.0
 10
1.093138906690809
 20
9.759611307779954
 30
0.0
 10
1.093138906690809
 20
9.759611307779954
 30
0.0
 10
1.093138906690809
 20
9.759611307779954
 30
0.0
 10
5.463583204481337
 20
9.759611307779954
 30
0.0
 10
5.463583204481337
 20
9.759611307779954
 30
0.0
 10
5.463583204481337
 20
9.759611307779954
 30
0.0
 10
5.463583204481337
 20
8.402750617133254
 30
0.0
 10
5.463583204481337
 20
8.402750617133254
 30
0.0
 10
5.463583204481337
 20
8.402750617133254
 30
0.0
 10
4.602569156222873
 20
8.402750617133254
 30
0.0
 10
4.602569156222873
 20
8.402750617133254
 30
0.0
 10
4.602569156222873
 20
8.402750617133254
 30
0.0
 10
4.602569156222873
 20
4.142278001573358
 30
0.0
 10
4.602569156222873
 20
4.142278001573358
 30
0.0
 10
4.602569156222873
 20
3.682111918131517
 30
0.0
 10
4.721624586317274
 20
3.29437591552735
 30
0.0
 10
4.956416236029731
 20
2.989820658365892
 30
0.0
 10
5.212193806966146
 20
2.657433369954434
 30
0.0
 10
5.601235707600911
 20
2.488779669867629
 30
0.0
 10
6.112555185953775
 20
2.488779669867629
 30
0.0
 10
6.543332841661241
 20
2.488779669867629
 30
0.0
 10
6.894972059461805
 20
2.624694790310337
 30
0.0
 10
7.157736036512587
 20
2.892751024034295
 30
0.0
 10
7.418541802300346
 20
3.158779534233948
 30
0.0
 10
7.550777859157986
 20
3.514821336534295
 30
0.0
 10
7.550777859157986
 20
3.9509310913086
 30
0.0
 10
7.550777859157986
 20
3.9509310913086
 30
0.0
 10
7.550777859157986
 20
8.402737053765197
 30
0.0
 10
7.550777859157986
 20
8.402737053765197
 30
0.0
 10
7.550777859157986
 20
8.402737053765197
 30
0.0
 10
6.594097561306423
 20
8.402737053765197
 30
0.0
 10
6.594097561306423
 20
8.402737053765197
 30
0.0
 10
6.594097561306423
 20
8.402737053765197
 30
0.0
 10
6.594097561306423
 20
9.759597744411899
 30
0.0
 10
6.594097561306423
 20
9.759597744411899
 30
0.0
 10
6.594097561306423
 20
9.759597744411899
 30
0.0
 10
9.708888583713106
 20
9.759597744411899
 30
0.0
 10
9.708888583713106
 20
9.759597744411899
 30
0.0
 10
9.708888583713106
 20
9.759597744411899
 30
0.0
 10
9.708888583713106
 20
8.402737053765197
 30
0.0
 10
9.708888583713106
 20
8.402737053765197
 30
0.0
 10
9.708888583713106
 20
8.402737053765197
 30
0.0
 10
8.811999850802952
 20
8.402737053765197
 30
0.0
 10
8.811999850802952
 20
8.402737053765197
 30
0.0
 10
8.811999850802952
 20
8.402737053765197
 30
0.0
 10
8.811999850802952
 20
4.034640808105475
 30
0.0
 10
8.811999850802952
 20
4.034640808105475
 30
0.0
 10
8.811999850802952
 20
3.522613491482212
 30
0.0
 10
8.737471686469183
 20
3.070766838921448
 30
0.0
 10
8.590471903483072
 20
2.691667310926656
 30
0.0
 10
8.448499891493055
 20
2.325554707845059
 30
0.0
 10
8.233472188313801
 20
2.015194329155823
 30
0.0
 10
7.951360914442274
 20
1.769209086100267
 30
0.0
 10
7.661249796549479
 20
1.516235317654087
 30
0.0
 10
7.319388495551215
 20
1.323499857584642
 30
0.0
 10
6.935277726915147
 20
1.196360236273879
 30
0.0
 10
6.54236094156901
 20
1.066307881673184
 30
0.0
 10
6.0925415886773
 20
1.000362786187073
 30
0.0
 10
5.598333146837022
 20
1.000362786187073
 30
0.0
  0
ENDBLK
  5
52
330
4F
100
AcDbEntity
  8
0
100
AcDbBlockEnd
  0
BLOCK
  5
57
330
55
100
AcDbEntity
  8
0
100
AcDbBlockBegin
  2
block 3
 70
     0
 10
0.0
 20
0.0
 30
0.0
  3
block 3
  1

  0
SPLINE
  5
59
330
55
100
AcDbEntity
  8
Layer 1
 62
     6
420
 15073535
370
    70
100
AcDbSpline
210
0.0
220
0.0
230
1.0
 70
    11
 71
     3
 72
    71
 73
    67
 74
     0
 42
0.0000000001
 43
0.0000000001
 12
1.0
 22
0.0
 32
0.0
 13
1.0
 23
0.0
 33
0.0
 40
0.0
 40
0.0
 40
0.0
 40
0.0
 40
1.0
 40
1.0
 40
1.0
 40
2.0
 40
2.0
 40
2.0
 40
3.0
 40
3.0
 40
3.0
 40
4.0
 40
4.0
 40
4.0
 40
5.0
 40
5.0
 40
5.0
 40
6.0
 40
6.0
 40
6.0
 40
7.0
 40
7.0
 40
7.0
 40
8.0
 40
8.0
 40
8.0
 40
9.0
 40
9.0
 40
9.0
 40
10.0
 40
10.0
 40
10.0
 40
11.0
 40
11.0
 40
11.0
 40
12.0
 40
12.0
 40
12.0
 40
13.0
 40
13.0
 40
13.0
 40
14.0
 40
14.0
 40
14.0
 40
15.0
 40
15.0
 40
15.0
 40
16.0
 40
16.0
 40
16.0
 40
17.0
 40
17.0
 40
17.0
 40
18.0
 40
18.0
 40
18.0
 40
19.0
 40
19.0
 40
19.0
 40
20.0
 40
20.0
 40
20.0
 40
21.0
 40
21.0
 40
21.0
 40
22.0
 40
22.0
 40
22.0
 40
22.0
 10
12.87448628743489
 20
1.738613518608948
 30
0.0
 10
12.26459757486979
 20
2.463975660536031
 30
0.0
 10
11.95965321858724
 20
3.52827958848742
 30
0.0
 10
11.95965321858724
 20
4.931557515462246
 30
0.0
 10
11.95965321858724
 20
4.931557515462246
 30
0.0
 10
11.95965321858724
 20
8.052751295301656
 30
0.0
 10
11.95965321858724
 20
8.052751295301656
 30
0.0
 10
11.95965321858724
 20
8.052751295301656
 30
0.0
 10
11.0149171617296
 20
8.052751295301656
 30
0.0
 10
11.0149171617296
 20
8.052751295301656
 30
0.0
 10
11.0149171617296
 20
8.052751295301656
 30
0.0
 10
11.0149171617296
 20
10.10962588840061
 30
0.0
 10
11.0149171617296
 20
10.10962588840061
 30
0.0
 10
11.0149171617296
 20
10.10962588840061
 30
0.0
 10
16.08536105685764
 20
10.10962588840061
 30
0.0
 10
16.08536105685764
 20
10.10962588840061
 30
0.0
 10
16.08536105685764
 20
10.10962588840061
 30
0.0
 10
16.08536105685764
 20
8.052751295301656
 30
0.0
 10
16.08536105685764
 20
8.052751295301656
 30
0.0
 10
16.08536105685764
 20
8.052751295301656
 30
0.0
 10
15.22434658474392
 20
8.052751295301656
 30
0.0
 10
15.22434658474392
 20
8.052751295301656
 30
0.0
 10
15.22434658474392
 20
8.052751295301656
 30
0.0
 10
15.22434658474392
 20
4.14229326036242
 30
0.0
 10
15.22434658474392
 20
4.14229326036242
 30
0.0
 10
15.22434658474392
 20
3.759613003200962
 30
0.0
 10
15.31795756022135
 20
3.446641676161031
 30
0.0
 10
15.50537448459201
 20
3.203542039659295
 30
0.0
 10
15.69258287217882
 20
2.960249125162767
 30
0.0
 10
15.98558213975694
 20
2.838792555067281
 30
0.0
 10
16.38431972927517
 20
2.838792555067281
 30
0.0
 10
16.71915351019965
 20
2.838792555067281
 30
0.0
 10
16.98412577311198
 20
2.938388366699226
 30
0.0
 10
17.17957051595052
 20
3.137763095431865
 30
0.0
 10
17.37483384874132
 20
3.336944546169712
 30
0.0
 10
17.47255622016059
 20
3.60806949191624
 30
0.0
 10
17.47255622016059
 20
3.950942959255649
 30
0.0
 10
17.47255622016059
 20
3.950942959255649
 30
0.0
 10
17.47255622016059
 20
8.052747904459642
 30
0.0
 10
17.47255622016059
 20
8.052747904459642
 30
0.0
 10
17.47255622016059
 20
8.052747904459642
 30
0.0
 10
16.51587592230903
 20
8.052747904459642
 30
0.0
 10
16.51587592230903
 20
8.052747904459642
 30
0.0
 10
16.51587592230903
 20
8.052747904459642
 30
0.0
 10
16.51587592230903
 20
10.1096224975586
 30
0.0
 10
16.51587592230903
 20
10.1096224975586
 30
0.0
 10
16.51587592230903
 20
10.1096224975586
 30
0.0
 10
20.33066813151041
 20
10.1096224975586
 30
0.0
 10
20.33066813151041
 20
10.1096224975586
 30
0.0
 10
20.33066813151041
 20
10.1096224975586
 30
0.0
 10
20.33066813151041
 20
8.052747904459642
 30
0.0
 10
20.33066813151041
 20
8.052747904459642
 30
0.0
 10
20.33066813151041
 20
8.052747904459642
 30
0.0
 10
19.43377855088976
 20
8.052747904459642
 30
0.0
 10
19.43377855088976
 20
8.052747904459642
 30
0.0
 10
19.43377855088976
 20
8.052747904459642
 30
0.0
 10
19.43377855088976
 20
4.034664543999573
 30
0.0
 10
19.43377855088976
 20
4.034664543999573
 30
0.0
 10
19.43377855088976
 20
2.918399353027351
 30
0.0
 10
19.10677931043837
 20
2.075330912272142
 30
0.0
 10
18.45316738552517
 20
1.505415140787767
 30
0.0
 10
17.79937574598524
 20
0.9353162638346424
 30
0.0
 10
16.93836127387153
 20
0.6503736368815175
 30
0.0
 10
15.87012566460503
 20
0.6503736368815175
 30
0.0
 10
14.48291693793403
 20
0.6503634643554758
 30
0.0
 10
13.484375
 20
1.013044535319017
 30
0.0
 10
12.87448628743489
 20
1.738613518608948
 30
0.0
  0
ENDBLK
  5
58
330
55
100
AcDbEntity
  8
0
100
AcDbBlockEnd
  0
BLOCK
  5
5C
330
5A
100
AcDbEntity
  8
0
100
AcDbBlockBegin
  2
block 4
 70
     0
 10
0.0
 20
0.0
 30
0.0
  3
block 4
  1

  0
SPLINE
  5
5E
330
5A
100
AcDbEntity
  8
Layer 1
 62
     7
420
 16777215
370
    70
100
AcDbSpline
210
0.0
220
0.0
230
1.0
 70
    11
 71
     3
 72
    83
 73
    79
 74
     0
 42
0.0000000001
 43
0.0000000001
 12
1.0
 22
0.0
 32
0.0
 13
1.0
 23
0.0
 33
0.0
 40
0.0
 40
0.0
 40
0.0
 40
0.0
 40
1.0
 40
1.0
 40
1.0
 40
2.0
 40
2.0
 40
2.0
 40
3.0
 40
3.0
 40
3.0
 40
4.0
 40
4.0
 40
4.0
 40
5.0
 40
5.0
 40
5.0
 40
6.0
 40
6.0
 40
6.0
 40
7.0
 40
7.0
 40
7.0
 40
8.0
 40
8.0
 40
8.0
 40
9.0
 40
9.0
 40
9.0
 40
10.0
 40
10.0
 40
10.0
 40
11.0
 40
11.0
 40
11.0
 40
12.0
 40
12.0
 40
12.0
 40
13.0
 40
13.0
 40
13.0
 40
14.0
 40
14.0
 40
14.0
 40
15.0
 40
15.0
 40
15.0
 40
16.0
 40
16.0
 40
16.0
 40
17.0
 40
17.0
 40
17.0
 40
18.0
 40
18.0
 40
18.0
 40
19.0
 40
19.0
 40
19.0
 40
20.0
 40
20.0
 40
20.0
 40
21.0
 40
21.0
 40
21.0
 40
22.0
 40
22.0
 40
22.0
 40
23.0
 40
23.0
 40
23.0
 40
24.0
 40
24.0
 40
24.0
 40
25.0
 40
25.0
 40
25.0
 40
26.0
 40
26.0
 40
26.0
 40
26.0
 10
5.813583374023438
 20
18.22805697970921
 30
0.0
 10
5.813583374023438
 20
18.22805697970921
 30
0.0
 10
5.813583374023438
 20
20.28493242051867
 30
0.0
 10
5.813583374023438
 20
20.28493242051867
 30
0.0
 10
5.813583374023438
 20
20.28493242051867
 30
0.0
 10
4.446111043294271
 20
20.28493242051867
 30
0.0
 10
4.446111043294271
 20
20.28493242051867
 30
0.0
 10
4.446111043294271
 20
20.28493242051867
 30
0.0
 10
4.446111043294271
 20
19.93491868760851
 30
0.0
 10
4.446111043294271
 20
19.93491868760851
 30
0.0
 10
4.446111043294271
 20
19.93491868760851
 30
0.0
 10
5.463583204481337
 20
19.93491868760851
 30
0.0
 10
5.463583204481337
 20
19.93491868760851
 30
0.0
 10
5.463583204481337
 20
19.93491868760851
 30
0.0
 10
5.463583204481337
 20
18.57805714925131
 30
0.0
 10
5.463583204481337
 20
18.57805714925131
 30
0.0
 10
5.463583204481337
 20
18.57805714925131
 30
0.0
 10
4.602569156222873
 20
18.57805714925131
 30
0.0
 10
4.602569156222873
 20
18.57805714925131
 30
0.0
 10
4.602569156222873
 20
18.57805714925131
 30
0.0
 10
4.602569156222873
 20
14.31758453369141
 30
0.0
 10
4.602569156222873
 20
14.31758453369141
 30
0.0
 10
4.602569156222873
 20
13.85741845024957
 30
0.0
 10
4.721624586317274
 20
13.46968244764541
 30
0.0
 10
4.956416236029731
 20
13.16512549506294
 30
0.0
 10
5.212193806966146
 20
12.83273651123048
 30
0.0
 10
5.601235707600911
 20
12.66408450656468
 30
0.0
 10
6.112555185953775
 20
12.66408450656468
 30
0.0
 10
6.543332841661241
 20
12.66408450656468
 30
0.0
 10
6.894972059461805
 20
12.80000132242839
 30
0.0
 10
7.157736036512587
 20
13.06805755615235
 30
0.0
 10
7.418541802300346
 20
13.334086066352
 30
0.0
 10
7.550777859157986
 20
13.69012786865235
 30
0.0
 10
7.550777859157986
 20
14.12623762342666
 30
0.0
 10
7.550777859157986
 20
14.12623762342666
 30
0.0
 10
7.550777859157986
 20
18.57805714925131
 30
0.0
 10
7.550777859157986
 20
18.57805714925131
 30
0.0
 10
7.550777859157986
 20
18.57805714925131
 30
0.0
 10
6.594097561306423
 20
18.57805714925131
 30
0.0
 10
6.594097561306423
 20
18.57805714925131
 30
0.0
 10
6.594097561306423
 20
18.57805714925131
 30
0.0
 10
6.594097561306423
 20
19.93491783989801
 30
0.0
 10
6.594097561306423
 20
19.93491783989801
 30
0.0
 10
6.594097561306423
 20
19.93491783989801
 30
0.0
 10
7.414166768391927
 20
19.93491783989801
 30
0.0
 10
7.414166768391927
 20
19.93491783989801
 30
0.0
 10
7.414166768391927
 20
19.93491783989801
 30
0.0
 10
7.414166768391927
 20
20.28493157280817
 30
0.0
 10
7.414166768391927
 20
20.28493157280817
 30
0.0
 10
7.414166768391927
 20
20.28493157280817
 30
0.0
 10
6.244083404541016
 20
20.28493157280817
 30
0.0
 10
6.244083404541016
 20
20.28493157280817
 30
0.0
 10
6.244083404541016
 20
20.28493157280817
 30
0.0
 10
6.244083404541016
 20
18.2280561319987
 30
0.0
 10
6.244083404541016
 20
18.2280561319987
 30
0.0
 10
6.244083404541016
 20
18.2280561319987
 30
0.0
 10
7.200764126247829
 20
18.2280561319987
 30
0.0
 10
7.200764126247829
 20
18.2280561319987
 30
0.0
 10
7.200764126247829
 20
18.2280561319987
 30
0.0
 10
7.200764126247829
 20
14.12625118679471
 30
0.0
 10
7.200764126247829
 20
14.12625118679471
 30
0.0
 10
7.200764126247829
 20
13.7833760240343
 30
0.0
 10
7.103041754828559
 20
13.51225107828777
 30
0.0
 10
6.907777998182508
 20
13.31307132297093
 30
0.0
 10
6.712333679199219
 20
13.11369659423829
 30
0.0
 10
6.4473754035102
 20
13.01409908718534
 30
0.0
 10
6.112528059217665
 20
13.01409908718534
 30
0.0
 10
5.713791741265191
 20
13.01409908718534
 30
0.0
 10
5.420792049831814
 20
13.13555735270183
 30
0.0
 10
5.233583662245008
 20
13.37884857177735
 30
0.0
 10
5.0461671617296
 20
13.62194651285808
 30
0.0
 10
4.952555762396918
 20
13.93491783989801
 30
0.0
 10
4.952555762396918
 20
14.31759809705947
 30
0.0
 10
4.952555762396918
 20
14.31759809705947
 30
0.0
 10
4.952555762396918
 20
18.22805697970921
 30
0.0
 10
4.952555762396918
 20
18.22805697970921
 30
0.0
 10
4.952555762396918
 20
18.22805697970921
 30
0.0
 10
5.813583374023438
 20
18.22805697970921
 30
0.0
 10
5.813583374023438
 20
18.22805697970921
 30
0.0
  0
SPLINE
  5
5F
330
5A
100
AcDbEntity
  8
Layer 1
 62
     7
420
 16777215
370
    70
100
AcDbSpline
210
0.0
220
0.0
230
1.0
 70
    11
 71
     3
 72
    92
 73
    88
 74
     0
 42
0.0000000001
 43
0.0000000001
 12
1.0
 22
0.0
 32
0.0
 13
1.0
 23
0.0
 33
0.0
 40
0.0
 40
0.0
 40
0.0
 40
0.0
 40
1.0
 40
1.0
 40
1.0
 40
2.0
 40
2.0
 40
2.0
 40
3.0
 40
3.0
 40
3.0
 40
4.0
 40
4.0
 40
4.0
 40
5.0
 40
5.0
 40
5.0
 40
6.0
 40
6.0
 40
6.0
 40
7.0
 40
7.0
 40
7.0
 40
8.0
 40
8.0
 40
8.0
 40
9.0
 40
9.0
 40
9.0
 40
10.0
 40
10.0
 40
10.0
 40
11.0
 40
11.0
 40
11.0
 40
12.0
 40
12.0
 40
12.0
 40
13.0
 40
13.0
 40
13.0
 40
14.0
 40
14.0
 40
14.0
 40
15.0
 40
15.0
 40
15.0
 40
16.0
 40
16.0
 40
16.0
 40
17.0
 40
17.0
 40
17.0
 40
18.0
 40
18.0
 40
18.0
 40
19.0
 40
19.0
 40
19.0
 40
20.0
 40
20.0
 40
20.0
 40
21.0
 40
21.0
 40
21.0
 40
22.0
 40
22.0
 40
22.0
 40
23.0
 40
23.0
 40
23.0
 40
24.0
 40
24.0
 40
24.0
 40
25.0
 40
25.0
 40
25.0
 40
26.0
 40
26.0
 40
26.0
 40
27.0
 40
27.0
 40
27.0
 40
28.0
 40
28.0
 40
28.0
 40
29.0
 40
29.0
 40
29.0
 40
29.0
 10
8.920333014594183
 20
20.28493242051867
 30
0.0
 10
8.920333014594183
 20
20.28493242051867
 30
0.0
 10
8.920333014594183
 20
19.93491868760851
 30
0.0
 10
8.920333014594183
 20
19.93491868760851
 30
0.0
 10
8.920333014594183
 20
19.93491868760851
 30
0.0
 10
9.708888583713106
 20
19.93491868760851
 30
0.0
 10
9.708888583713106
 20
19.93491868760851
 30
0.0
 10
9.708888583713106
 20
19.93491868760851
 30
0.0
 10
9.708888583713106
 20
18.57805714925131
 30
0.0
 10
9.708888583713106
 20
18.57805714925131
 30
0.0
 10
9.708888583713106
 20
18.57805714925131
 30
0.0
 10
8.811999850802952
 20
18.57805714925131
 30
0.0
 10
8.811999850802952
 20
18.57805714925131
 30
0.0
 10
8.811999850802952
 20
18.57805714925131
 30
0.0
 10
8.811999850802952
 20
14.20996090359159
 30
0.0
 10
8.811999850802952
 20
14.20996090359159
 30
0.0
 10
8.811999850802952
 20
13.69793358696832
 30
0.0
 10
8.737471686469183
 20
13.24608523898655
 30
0.0
 10
8.590471903483072
 20
12.86698910183377
 30
0.0
 10
8.448499891493055
 20
12.50087819417318
 30
0.0
 10
8.233472188313801
 20
12.19051612006294
 30
0.0
 10
7.951360914442274
 20
11.94453087700738
 30
0.0
 10
7.661249796549479
 20
11.69155880398221
 30
0.0
 10
7.319388495551215
 20
11.49882334391277
 30
0.0
 10
6.935277726915147
 20
11.371683722602
 30
0.0
 10
6.542347378200954
 20
11.2416279771593
 30
0.0
 10
6.092527601453993
 20
11.17568288167318
 30
0.0
 10
5.598319159613715
 20
11.17568288167318
 30
0.0
 10
4.948819054497613
 20
11.17568288167318
 30
0.0
 10
4.387013753255208
 20
11.26012671576606
 30
0.0
 10
3.928513420952691
 20
11.42668318006728
 30
0.0
 10
3.490027321709527
 20
11.58597476535374
 30
0.0
 10
3.13409678141276
 20
11.82566999647353
 30
0.0
 10
2.870610555013021
 20
12.13912790934245
 30
0.0
 10
2.318027284410265
 20
12.79632225884332
 30
0.0
 10
2.037860446506076
 20
13.79480824788412
 30
0.0
 10
2.037860446506076
 20
15.1068640475803
 30
0.0
 10
2.037860446506076
 20
15.1068640475803
 30
0.0
 10
2.037860446506076
 20
18.57805714925131
 30
0.0
 10
2.037860446506076
 20
18.57805714925131
 30
0.0
 10
2.037860446506076
 20
18.57805714925131
 30
0.0
 10
1.093138906690809
 20
18.57805714925131
 30
0.0
 10
1.093138906690809
 20
18.57805714925131
 30
0.0
 10
1.093138906690809
 20
18.57805714925131
 30
0.0
 10
1.093138906690809
 20
19.93491783989801
 30
0.0
 10
1.093138906690809
 20
19.93491783989801
 30
0.0
 10
1.093138906690809
 20
19.93491783989801
 30
0.0
 10
2.290014055040147
 20
19.93491783989801
 30
0.0
 10
2.290014055040147
 20
19.93491783989801
 30
0.0
 10
2.290014055040147
 20
19.93491783989801
 30
0.0
 10
2.290014055040147
 20
20.28493157280817
 30
0.0
 10
2.290014055040147
 20
20.28493157280817
 30
0.0
 10
2.290014055040147
 20
20.28493157280817
 30
0.0
 10
0.7431388960944282
 20
20.28493157280817
 30
0.0
 10
0.7431388960944282
 20
20.28493157280817
 30
0.0
 10
0.7431388960944282
 20
20.28493157280817
 30
0.0
 10
0.7431388960944282
 20
18.2280561319987
 30
0.0
 10
0.7431388960944282
 20
18.2280561319987
 30
0.0
 10
0.7431388960944282
 20
18.2280561319987
 30
0.0
 10
1.687875111897786
 20
18.2280561319987
 30
0.0
 10
1.687875111897786
 20
18.2280561319987
 30
0.0
 10
1.687875111897786
 20
18.2280561319987
 30
0.0
 10
1.687875111897786
 20
15.1068623521593
 30
0.0
 10
1.687875111897786
 20
15.1068623521593
 30
0.0
 10
1.687875111897786
 20
13.70359798855252
 30
0.0
 10
1.992819468180338
 20
12.63927880181207
 30
0.0
 10
2.602708392673069
 20
11.913918355306
 30
0.0
 10
3.212597317165798
 20
11.18836293538412
 30
0.0
 10
4.211152818467882
 20
10.82566830105252
 30
0.0
 10
5.598347134060329
 20
10.82566830105252
 30
0.0
 10
6.666583167182075
 20
10.82566830105252
 30
0.0
 10
7.527597215440538
 20
11.11062618679471
 30
0.0
 10
8.181388854980469
 20
11.68070980495877
 30
0.0
 10
8.835013495551214
 20
12.25061201307509
 30
0.0
 10
9.162000020345051
 20
13.09368214925131
 30
0.0
 10
9.162000020345051
 20
14.20994564480252
 30
0.0
 10
9.162000020345051
 20
14.20994564480252
 30
0.0
 10
9.162000020345051
 20
18.22805697970921
 30
0.0
 10
9.162000020345051
 20
18.22805697970921
 30
0.0
 10
9.162000020345051
 20
18.22805697970921
 30
0.0
 10
10.05888875325521
 20
18.22805697970921
 30
0.0
 10
10.05888875325521
 20
18.22805697970921
 30
0.0
 10
10.05888875325521
 20
18.22805697970921
 30
0.0
 10
10.05888875325521
 20
20.28493242051867
 30
0.0
 10
10.05888875325521
 20
20.28493242051867
 30
0.0
 10
10.05888875325521
 20
20.28493242051867
 30
0.0
 10
8.920333014594183
 20
20.28493242051867
 30
0.0
 10
8.920333014594183
 20
20.28493242051867
 30
0.0
  0
ENDBLK
  5
5D
330
5A
100
AcDbEntity
  8
0
100
AcDbBlockEnd
  0
BLOCK
  5
62
330
60
100
AcDbEntity
  8
0
100
AcDbBlockBegin
  2
block 5
 70
     0
 10
0.0
 20
0.0
 30
0.0
  3
block 5
  1

  0
SPLINE
  5
64
330
60
100
AcDbEntity
  8
Layer 1
 62
     7
420
 16777215
370
    70
100
AcDbSpline
210
0.0
220
0.0
230
1.0
 70
    11
 71
     3
 72
    83
 73
    79
 74
     0
 42
0.0000000001
 43
0.0000000001
 12
1.0
 22
0.0
 32
0.0
 13
1.0
 23
0.0
 33
0.0
 40
0.0
 40
0.0
 40
0.0
 40
0.0
 40
1.0
 40
1.0
 40
1.0
 40
2.0
 40
2.0
 40
2.0
 40
3.0
 40
3.0
 40
3.0
 40
4.0
 40
4.0
 40
4.0
 40
5.0
 40
5.0
 40
5.0
 40
6.0
 40
6.0
 40
6.0
 40
7.0
 40
7.0
 40
7.0
 40
8.0
 40
8.0
 40
8.0
 40
9.0
 40
9.0
 40
9.0
 40
10.0
 40
10.0
 40
10.0
 40
11.0
 40
11.0
 40
11.0
 40
12.0
 40
12.0
 40
12.0
 40
13.0
 40
13.0
 40
13.0
 40
14.0
 40
14.0
 40
14.0
 40
15.0
 40
15.0
 40
15.0
 40
16.0
 40
16.0
 40
16.0
 40
17.0
 40
17.0
 40
17.0
 40
18.0
 40
18.0
 40
18.0
 40
19.0
 40
19.0
 40
19.0
 40
20.0
 40
20.0
 40
20.0
 40
21.0
 40
21.0
 40
21.0
 40
22.0
 40
22.0
 40
22.0
 40
23.0
 40
23.0
 40
23.0
 40
24.0
 40
24.0
 40
24.0
 40
25.0
 40
25.0
 40
25.0
 40
26.0
 40
26.0
 40
26.0
 40
26.0
 10
15.63949924045139
 20
18.22805697970921
 30
0.0
 10
15.63949924045139
 20
18.22805697970921
 30
0.0
 10
15.63949924045139
 20
20.28493242051867
 30
0.0
 10
15.63949924045139
 20
20.28493242051867
 30
0.0
 10
15.63949924045139
 20
20.28493242051867
 30
0.0
 10
14.27202690972222
 20
20.28493242051867
 30
0.0
 10
14.27202690972222
 20
20.28493242051867
 30
0.0
 10
14.27202690972222
 20
20.28493242051867
 30
0.0
 10
14.27202690972222
 20
19.93491868760851
 30
0.0
 10
14.27202690972222
 20
19.93491868760851
 30
0.0
 10
14.27202690972222
 20
19.93491868760851
 30
0.0
 10
15.28949991861979
 20
19.93491868760851
 30
0.0
 10
15.28949991861979
 20
19.93491868760851
 30
0.0
 10
15.28949991861979
 20
19.93491868760851
 30
0.0
 10
15.28949991861979
 20
18.57805714925131
 30
0.0
 10
15.28949991861979
 20
18.57805714925131
 30
0.0
 10
15.28949991861979
 20
18.57805714925131
 30
0.0
 10
14.42848544650608
 20
18.57805714925131
 30
0.0
 10
14.42848544650608
 20
18.57805714925131
 30
0.0
 10
14.42848544650608
 20
18.57805714925131
 30
0.0
 10
14.42848544650608
 20
14.31758453369141
 30
0.0
 10
14.42848544650608
 20
14.31758453369141
 30
0.0
 10
14.42848544650608
 20
13.85741845024957
 30
0.0
 10
14.54754130045573
 20
13.46968244764541
 30
0.0
 10
14.78233337402344
 20
13.16512549506294
 30
0.0
 10
15.0381113688151
 20
12.83273651123048
 30
0.0
 10
15.42715284559462
 20
12.66408450656468
 30
0.0
 10
15.93847147623698
 20
12.66408450656468
 30
0.0
 10
16.36924913194444
 20
12.66408450656468
 30
0.0
 10
16.72088792588976
 20
12.80000132242839
 30
0.0
 10
16.98365275065104
 20
13.06805755615235
 30
0.0
 10
17.2444576687283
 20
13.334086066352
 30
0.0
 10
17.37669372558594
 20
13.69012786865235
 30
0.0
 10
17.37669372558594
 20
14.12623762342666
 30
0.0
 10
17.37669372558594
 20
14.12623762342666
 30
0.0
 10
17.37669372558594
 20
18.57805714925131
 30
0.0
 10
17.37669372558594
 20
18.57805714925131
 30
0.0
 10
17.37669372558594
 20
18.57805714925131
 30
0.0
 10
16.42001342773438
 20
18.57805714925131
 30
0.0
 10
16.42001342773438
 20
18.57805714925131
 30
0.0
 10
16.42001342773438
 20
18.57805714925131
 30
0.0
 10
16.42001342773438
 20
19.93491783989801
 30
0.0
 10
16.42001342773438
 20
19.93491783989801
 30
0.0
 10
16.42001342773438
 20
19.93491783989801
 30
0.0
 10
17.24008348253038
 20
19.93491783989801
 30
0.0
 10
17.24008348253038
 20
19.93491783989801
 30
0.0
 10
17.24008348253038
 20
19.93491783989801
 30
0.0
 10
17.24008348253038
 20
20.28493157280817
 30
0.0
 10
17.24008348253038
 20
20.28493157280817
 30
0.0
 10
17.24008348253038
 20
20.28493157280817
 30
0.0
 10
16.07000054253472
 20
20.28493157280817
 30
0.0
 10
16.07000054253472
 20
20.28493157280817
 30
0.0
 10
16.07000054253472
 20
20.28493157280817
 30
0.0
 10
16.07000054253472
 20
18.2280561319987
 30
0.0
 10
16.07000054253472
 20
18.2280561319987
 30
0.0
 10
16.07000054253472
 20
18.2280561319987
 30
0.0
 10
17.02668084038628
 20
18.2280561319987
 30
0.0
 10
17.02668084038628
 20
18.2280561319987
 30
0.0
 10
17.02668084038628
 20
18.2280561319987
 30
0.0
 10
17.02668084038628
 20
14.12625118679471
 30
0.0
 10
17.02668084038628
 20
14.12625118679471
 30
0.0
 10
17.02668084038628
 20
13.7833760240343
 30
0.0
 10
16.92895846896701
 20
13.51225107828777
 30
0.0
 10
16.73369513617622
 20
13.31307132297093
 30
0.0
 10
16.53825039333767
 20
13.11369659423829
 30
0.0
 10
16.2732916937934
 20
13.01409908718534
 30
0.0
 10
15.93844434950087
 20
13.01409908718534
 30
0.0
 10
15.53970845540364
 20
13.01409908718534
 30
0.0
 10
15.24670749240451
 20
13.13555735270183
 30
0.0
 10
15.05949910481771
 20
13.37884857177735
 30
0.0
 10
14.87208218044705
 20
13.62194651285808
 30
0.0
 10
14.77847120496962
 20
13.93491783989801
 30
0.0
 10
14.77847120496962
 20
14.31759809705947
 30
0.0
 10
14.77847120496962
 20
14.31759809705947
 30
0.0
 10
14.77847120496962
 20
18.22805697970921
 30
0.0
 10
14.77847120496962
 20
18.22805697970921
 30
0.0
 10
14.77847120496962
 20
18.22805697970921
 30
0.0
 10
15.63949924045139
 20
18.22805697970921
 30
0.0
 10
15.63949924045139
 20
18.22805697970921
 30
0.0
  0
SPLINE
  5
65
330
60
100
AcDbEntity
  8
Layer 1
 62
     7
420
 16777215
370
    70
100
AcDbSpline
210
0.0
220
0.0
230
1.0
 70
    11
 71
     3
 72
    92
 73
    88
 74
     0
 42
0.0000000001
 43
0.0000000001
 12
1.0
 22
0.0
 32
0.0
 13
1.0
 23
0.0
 33
0.0
 40
0.0
 40
0.0
 40
0.0
 40
0.0
 40
1.0
 40
1.0
 40
1.0
 40
2.0
 40
2.0
 40
2.0
 40
3.0
 40
3.0
 40
3.0
 40
4.0
 40
4.0
 40
4.0
 40
5.0
 40
5.0
 40
5.0
 40
6.0
 40
6.0
 40
6.0
 40
7.0
 40
7.0
 40
7.0
 40
8.0
 40
8.0
 40
8.0
 40
9.0
 40
9.0
 40
9.0
 40
10.0
 40
10.0
 40
10.0
 40
11.0
 40
11.0
 40
11.0
 40
12.0
 40
12.0
 40
12.0
 40
13.0
 40
13.0
 40
13.0
 40
14.0
 40
14.0
 40
14.0
 40
15.0
 40
15.0
 40
15.0
 40
16.0
 40
16.0
 40
16.0
 40
17.0
 40
17.0
 40
17.0
 40
18.0
 40
18.0
 40
18.0
 40
19.0
 40
19.0
 40
19.0
 40
20.0
 40
20.0
 40
20.0
 40
21.0
 40
21.0
 40
21.0
 40
22.0
 40
22.0
 40
22.0
 40
23.0
 40
23.0
 40
23.0
 40
24.0
 40
24.0
 40
24.0
 40
25.0
 40
25.0
 40
25.0
 40
26.0
 40
26.0
 40
26.0
 40
27.0
 40
27.0
 40
27.0
 40
28.0
 40
28.0
 40
28.0
 40
29.0
 40
29.0
 40
29.0
 40
29.0
 10
18.74624972873264
 20
20.28493242051867
 30
0.0
 10
18.74624972873264
 20
20.28493242051867
 30
0.0
 10
18.74624972873264
 20
19.93491868760851
 30
0.0
 10
18.74624972873264
 20
19.93491868760851
 30
0.0
 10
18.74624972873264
 20
19.93491868760851
 30
0.0
 10
19.53480529785156
 20
19.93491868760851
 30
0.0
 10
19.53480529785156
 20
19.93491868760851
 30
0.0
 10
19.53480529785156
 20
19.93491868760851
 30
0.0
 10
19.53480529785156
 20
18.57805714925131
 30
0.0
 10
19.53480529785156
 20
18.57805714925131
 30
0.0
 10
19.53480529785156
 20
18.57805714925131
 30
0.0
 10
18.6379157172309
 20
18.57805714925131
 30
0.0
 10
18.6379157172309
 20
18.57805714925131
 30
0.0
 10
18.6379157172309
 20
18.57805714925131
 30
0.0
 10
18.6379157172309
 20
14.20996090359159
 30
0.0
 10
18.6379157172309
 20
14.20996090359159
 30
0.0
 10
18.6379157172309
 20
13.69793358696832
 30
0.0
 10
18.56338840060764
 20
13.24608523898655
 30
0.0
 10
18.41638861762153
 20
12.86698910183377
 30
0.0
 10
18.27441575792101
 20
12.50087819417318
 30
0.0
 10
18.05938890245226
 20
12.19051612006294
 30
0.0
 10
17.77727762858073
 20
11.94453087700738
 30
0.0
 10
17.48716566297743
 20
11.69155880398221
 30
0.0
 10
17.14530605740017
 20
11.49882334391277
 30
0.0
 10
16.76119486490885
 20
11.371683722602
 30
0.0
 10
16.36826409233941
 20
11.2416279771593
 30
0.0
 10
15.91844516330295
 20
11.17568288167318
 30
0.0
 10
15.42423672146267
 20
11.17568288167318
 30
0.0
 10
14.77473619249132
 20
11.17568288167318
 30
0.0
 10
14.21293131510417
 20
11.26012671576606
 30
0.0
 10
13.75443098280165
 20
11.42668318006728
 30
0.0
 10
13.31594509548611
 20
11.58597476535374
 30
0.0
 10
12.96001434326172
 20
11.82566999647353
 30
0.0
 10
12.69652811686198
 20
12.13912790934245
 30
0.0
 10
12.1439446343316
 20
12.79632225884332
 30
0.0
 10
11.86377800835503
 20
13.79480824788412
 30
0.0
 10
11.86377800835503
 20
15.1068640475803
 30
0.0
 10
11.86377800835503
 20
15.1068640475803
 30
0.0
 10
11.86377800835503
 20
18.57805714925131
 30
0.0
 10
11.86377800835503
 20
18.57805714925131
 30
0.0
 10
11.86377800835503
 20
18.57805714925131
 30
0.0
 10
10.91904195149739
 20
18.57805714925131
 30
0.0
 10
10.91904195149739
 20
18.57805714925131
 30
0.0
 10
10.91904195149739
 20
18.57805714925131
 30
0.0
 10
10.91904195149739
 20
19.93491783989801
 30
0.0
 10
10.91904195149739
 20
19.93491783989801
 30
0.0
 10
10.91904195149739
 20
19.93491783989801
 30
0.0
 10
12.11591678195529
 20
19.93491783989801
 30
0.0
 10
12.11591678195529
 20
19.93491783989801
 30
0.0
 10
12.11591678195529
 20
19.93491783989801
 30
0.0
 10
12.11591678195529
 20
20.28493157280817
 30
0.0
 10
12.11591678195529
 20
20.28493157280817
 30
0.0
 10
12.11591678195529
 20
20.28493157280817
 30
0.0
 10
10.56905534532335
 20
20.28493157280817
 30
0.0
 10
10.56905534532335
 20
20.28493157280817
 30
0.0
 10
10.56905534532335
 20
20.28493157280817
 30
0.0
 10
10.56905534532335
 20
18.2280561319987
 30
0.0
 10
10.56905534532335
 20
18.2280561319987
 30
0.0
 10
10.56905534532335
 20
18.2280561319987
 30
0.0
 10
11.51379140218099
 20
18.2280561319987
 30
0.0
 10
11.51379140218099
 20
18.2280561319987
 30
0.0
 10
11.51379140218099
 20
18.2280561319987
 30
0.0
 10
11.51379140218099
 20
15.1068623521593
 30
0.0
 10
11.51379140218099
 20
15.1068623521593
 30
0.0
 10
11.51379140218099
 20
13.70359798855252
 30
0.0
 10
11.81873575846354
 20
12.63927880181207
 30
0.0
 10
12.42862447102864
 20
11.913918355306
 30
0.0
 10
13.03851318359375
 20
11.18836293538412
 30
0.0
 10
14.03706868489583
 20
10.82566830105252
 30
0.0
 10
15.42426384819878
 20
10.82566830105252
 30
0.0
 10
16.49249945746528
 20
10.82566830105252
 30
0.0
 10
17.35351392957899
 20
11.11062618679471
 30
0.0
 10
18.00730556911892
 20
11.68070980495877
 30
0.0
 10
18.66093105740017
 20
12.25061201307509
 30
0.0
 10
18.98791673448351
 20
13.09368214925131
 30
0.0
 10
18.98791673448351
 20
14.20994564480252
 30
0.0
 10
18.98791673448351
 20
14.20994564480252
 30
0.0
 10
18.98791673448351
 20
18.22805697970921
 30
0.0
 10
18.98791673448351
 20
18.22805697970921
 30
0.0
 10
18.98791673448351
 20
18.22805697970921
 30
0.0
 10
19.88480631510416
 20
18.22805697970921
 30
0.0
 10
19.88480631510416
 20
18.22805697970921
 30
0.0
 10
19.88480631510416
 20
18.22805697970921
 30
0.0
 10
19.88480631510416
 20
20.28493242051867
 30
0.0
 10
19.88480631510416
 20
20.28493242051867
 30
0.0
 10
19.88480631510416
 20
20.28493242051867
 30
0.0
 10
18.74624972873264
 20
20.28493242051867
 30
0.0
 10
18.74624972873264
 20
20.28493242051867
 30
0.0
  0
ENDBLK
  5
63
330
60
100
AcDbEntity
  8
0
100
AcDbBlockEnd
  0
ENDSEC
  0
SECTION
  2
ENTITIES
  0
POLYLINE
  5
41
330
1F
100
AcDbEntity
  8
Layer 1
 62
     7
420
 16777215
370
    60
100
AcDb2dPolyline
 66
     1
 10
0.0
 20
0.0
 30
0.0
  0
VERTEX
  5
42
330
41
100
AcDbEntity
  8
Layer 1
 62
     7
420
 16777215
370
    60
100
AcDbVertex
100
AcDb2dVertex
 10
10.93454149034288
 20
23.78422373453776
 30
0.0
  0
VERTEX
  5
43
330
41
100
AcDbEntity
  8
Layer 1
 62
     7
420
 16777215
370
    60
100
AcDbVertex
100
AcDb2dVertex
 10
10.93454149034288
 20
22.02716824001737
 30
0.0
  0
VERTEX
  5
44
330
41
100
AcDbEntity
  8
Layer 1
 62
     7
420
 16777215
370
    60
100
AcDbVertex
100
AcDb2dVertex
 10
17.43656921386719
 20
22.02716824001737
 30
0.0
  0
VERTEX
  5
45
330
41
100
AcDbEntity
  8
Layer 1
 62
     7
420
 16777215
370
    60
100
AcDbVertex
100
AcDb2dVertex
 10
17.43656921386719
 20
23.78422373453776
 30
0.0
  0
VERTEX
  5
46
330
41
100
AcDbEntity
  8
Layer 1
 62
     7
420
 16777215
370
    60
100
AcDbVertex
100
AcDb2dVertex
 10
10.93454149034288
 20
23.78422373453776
 30
0.0
  0
SEQEND
  5
47
330
41
100
AcDbEntity
  8
Layer 1
 62
     7
420
 16777215
370
    60
  0
POLYLINE
  5
48
330
1F
100
AcDbEntity
  8
Layer 1
 62
     7
420
 16777215
370
    60
100
AcDb2dPolyline
 66
     1
 10
0.0
 20
0.0
 30
0.0
  0
VERTEX
  5
49
330
48
100
AcDbEntity
  8
Layer 1
 62
     7
420
 16777215
370
    60
100
AcDbVertex
100
AcDb2dVertex
 10
15.97924974229601
 20
23.2068625217014
 30
0.0
  0
VERTEX
  5
4A
330
48
100
AcDbEntity
  8
Layer 1
 62
     7
420
 16777215
370
    60
100
AcDbVertex
100
AcDb2dVertex
 10
12.37027740478516
 20
23.2068625217014
 30
0.0
  0
VERTEX
  5
4B
330
48
100
AcDbEntity
  8
Layer 1
 62
     7
420
 16777215
370
    60
100
AcDbVertex
100
AcDb2dVertex
 10
12.37027740478516
 20
23.41686245388455
 30
0.0
  0
VERTEX
  5
4C
330
48
100
AcDbEntity
  8
Layer 1
 62
     7
420
 16777215
370
    60
100
AcDbVertex
100
AcDb2dVertex
 10
15.97924974229601
 20
23.41686245388455
 30
0.0
  0
VERTEX
  5
4D
330
48
100
AcDbEntity
  8
Layer 1
 62
     7
420
 16777215
370
    60
100
AcDbVertex
100
AcDb2dVertex
 10
15.97924974229601
 20
23.2068625217014
 30
0.0
  0
SEQEND
  5
4E
330
48
100
AcDbEntity
  8
Layer 1
 62
     7
420
 16777215
370
    60
  0
INSERT
  5
50
330
1F
100
AcDbEntity
  8
Layer 1
100
AcDbBlockReference
  2
block 2
 10
0.0
 20
0.0
 30
0.0
  0
INSERT
  5
56
330
1F
100
AcDbEntity
  8
Layer 1
100
AcDbBlockReference
  2
block 3
 10
0.0
 20
0.0
 30
0.0
  0
INSERT
  5
5B
330
1F
100
AcDbEntity
  8
Layer 1
100
AcDbBlockReference
  2
block 4
 10
0.0
 20
0.0
 30
0.0
  0
INSERT
  5
61
330
1F
100
AcDbEntity
  8
Layer 1
100
AcDbBlockReference
  2
block 5
 10
0.0
 20
0.0
 30
0.0
  0
SPLINE
  5
66
330
1F
100
AcDbEntity
  8
Layer 1
 62
     7
420
 16777215
370
    70
100
AcDbSpline
210
0.0
220
0.0
230
1.0
 70
    11
 71
     3
 72
    80
 73
    76
 74
     0
 42
0.0000000001
 43
0.0000000001
 12
1.0
 22
0.0
 32
0.0
 13
1.0
 23
0.0
 33
0.0
 40
0.0
 40
0.0
 40
0.0
 40
0.0
 40
1.0
 40
1.0
 40
1.0
 40
2.0
 40
2.0
 40
2.0
 40
3.0
 40
3.0
 40
3.0
 40
4.0
 40
4.0
 40
4.0
 40
5.0
 40
5.0
 40
5.0
 40
6.0
 40
6.0
 40
6.0
 40
7.0
 40
7.0
 40
7.0
 40
8.0
 40
8.0
 40
8.0
 40
9.0
 40
9.0
 40
9.0
 40
10.0
 40
10.0
 40
10.0
 40
11.0
 40
11.0
 40
11.0
 40
12.0
 40
12.0
 40
12.0
 40
13.0
 40
13.0
 40
13.0
 40
14.0
 40
14.0
 40
14.0
 40
15.0
 40
15.0
 40
15.0
 40
16.0
 40
16.0
 40
16.0
 40
17.0
 40
17.0
 40
17.0
 40
18.0
 40
18.0
 40
18.0
 40
19.0
 40
19.0
 40
19.0
 40
20.0
 40
20.0
 40
20.0
 40
21.0
 40
21.0
 40
21.0
 40
22.0
 40
22.0
 40
22.0
 40
23.0
 40
23.0
 40
23.0
 40
24.0
 40
24.0
 40
24.0
 40
25.0
 40
25.0
 40
25.0
 40
25.0
 10
6.754263983832465
 20
31.36832085503473
 30
0.0
 10
6.754263983832465
 20
31.36832085503473
 30
0.0
 10
6.754263983832465
 20
29.31144583808052
 30
0.0
 10
6.754263983832465
 20
29.31144583808052
 30
0.0
 10
6.754263983832465
 20
29.31144583808052
 30
0.0
 10
7.710944281684028
 20
29.31144583808052
 30
0.0
 10
7.710944281684028
 20
29.31144583808052
 30
0.0
 10
7.710944281684028
 20
29.31144583808052
 30
0.0
 10
7.710944281684028
 20
25.20964046902127
 30
0.0
 10
7.710944281684028
 20
25.20964046902127
 30
0.0
 10
7.710944281684028
 20
24.86676530626086
 30
0.0
 10
7.613221910264756
 20
24.59564036051433
 30
0.0
 10
7.417958577473958
 20
24.39645975748698
 30
0.0
 10
7.222513834635416
 20
24.19708502875435
 30
0.0
 10
6.957555982801649
 20
24.0974875217014
 30
0.0
 10
6.622708638509114
 20
24.0974875217014
 30
0.0
 10
6.223972744411892
 20
24.0974875217014
 30
0.0
 10
5.930972629123263
 20
24.21894578721789
 30
0.0
 10
5.743764241536458
 20
24.46223785400391
 30
0.0
 10
5.55634774102105
 20
24.70533494737414
 30
0.0
 10
5.462736341688368
 20
25.01830712212457
 30
0.0
 10
5.462736341688368
 20
25.40098780314128
 30
0.0
 10
5.462736341688368
 20
25.40098780314128
 30
0.0
 10
5.462736341688368
 20
29.31144583808052
 30
0.0
 10
5.462736341688368
 20
29.31144583808052
 30
0.0
 10
5.462736341688368
 20
29.31144583808052
 30
0.0
 10
6.323750389946831
 20
29.31144583808052
 30
0.0
 10
6.323750389946831
 20
29.31144583808052
 30
0.0
 10
6.323750389946831
 20
29.31144583808052
 30
0.0
 10
6.323750389946831
 20
31.36832085503473
 30
0.0
 10
6.323750389946831
 20
31.36832085503473
 30
0.0
 10
6.323750389946831
 20
31.36832085503473
 30
0.0
 10
1.253305541144477
 20
31.36832085503473
 30
0.0
 10
1.253305541144477
 20
31.36832085503473
 30
0.0
 10
1.253305541144477
 20
31.36832085503473
 30
0.0
 10
1.253305541144477
 20
29.31144583808052
 30
0.0
 10
1.253305541144477
 20
29.31144583808052
 30
0.0
 10
1.253305541144477
 20
29.31144583808052
 30
0.0
 10
2.198041703965929
 20
29.31144583808052
 30
0.0
 10
2.198041703965929
 20
29.31144583808052
 30
0.0
 10
2.198041703965929
 20
29.31144583808052
 30
0.0
 10
2.198041703965929
 20
26.19025163438586
 30
0.0
 10
2.198041703965929
 20
26.19025163438586
 30
0.0
 10
2.198041703965929
 20
24.78698727077909
 30
0.0
 10
2.502986060248481
 20
23.72266808403863
 30
0.0
 10
3.112874984741211
 20
22.99730763753256
 30
0.0
 10
3.37573602464464
 20
22.6845991007487
 30
0.0
 10
3.71098624335395
 20
22.43946072048612
 30
0.0
 10
4.118236117892795
 20
22.26154408772787
 30
0.0
 10
4.118236117892795
 20
22.26154408772787
 30
0.0
 10
4.118236117892795
 20
21.69325252956815
 30
0.0
 10
4.118236117892795
 20
21.69325252956815
 30
0.0
 10
4.118236117892795
 20
21.69325252956815
 30
0.0
 10
7.704138861762153
 20
21.69325252956815
 30
0.0
 10
7.704138861762153
 20
21.69325252956815
 30
0.0
 10
7.704138861762153
 20
21.69325252956815
 30
0.0
 10
7.704138861762153
 20
22.17575239393447
 30
0.0
 10
7.704138861762153
 20
22.17575239393447
 30
0.0
 10
8.073666890462238
 20
22.31630788167318
 30
0.0
 10
8.402847290039062
 20
22.51236382378473
 30
0.0
 10
8.69155544704861
 20
22.7641134982639
 30
0.0
 10
9.345180087619356
 20
23.33401655409072
 30
0.0
 10
9.672166612413195
 20
24.17708584255643
 30
0.0
 10
9.672166612413195
 20
25.29334933810765
 30
0.0
 10
9.672166612413195
 20
25.29334933810765
 30
0.0
 10
9.672166612413195
 20
29.31144583808052
 30
0.0
 10
9.672166612413195
 20
29.31144583808052
 30
0.0
 10
9.672166612413195
 20
29.31144583808052
 30
0.0
 10
10.56905534532335
 20
29.31144583808052
 30
0.0
 10
10.56905534532335
 20
29.31144583808052
 30
0.0
 10
10.56905534532335
 20
29.31144583808052
 30
0.0
 10
10.56905534532335
 20
31.36832085503473
 30
0.0
 10
10.56905534532335
 20
31.36832085503473
 30
0.0
 10
10.56905534532335
 20
31.36832085503473
 30
0.0
 10
6.754263983832465
 20
31.36832085503473
 30
0.0
 10
6.754263983832465
 20
31.36832085503473
 30
0.0
  0
ENDSEC
  0
SECTION
  2
OBJECTS
  0
DICTIONARY
  5
C
330
0
100
AcDbDictionary
281
     1
  3
ACAD_GROUP
350
D
  3
ACAD_LAYOUT
350
1A
  3
ACAD_MATERIAL
350
3B
  3
ACAD_MLEADERSTYLE
350
68
  3
ACAD_MLINESTYLE
350
17
  3
ACAD_PLOTSETTINGS
350
19
  3
ACAD_PLOTSTYLENAME
350
E
  3
ACAD_TABLESTYLE
350
67
  3
ACAD_VISUALSTYLE
350
2A
  0
SUN
  5
3F
330
29
100
AcDbSun
 90
        1
290
     0
 63
     7
421
 16777215
 40
1.0
291
     1
 91
  2455826
 92
 54000000
292
     0
 70
     2
 71
   256
280
     1
  0
DICTIONARY
  5
D
102
{ACAD_REACTORS
330
C
102
}
330
C
100
AcDbDictionary
281
     1
  0
DICTIONARY
  5
1A
102
{ACAD_REACTORS
330
C
102
}
330
C
100
AcDbDictionary
281
     1
  3
Layout1
350
1E
  3
Layout2
350
26
  3
Model
350
22
  0
DICTIONARY
  5
3B
102
{ACAD_REACTORS
330
C
102
}
330
C
100
AcDbDictionary
281
     1
  3
ByBlock
350
3D
  3
ByLayer
350
3C
  3
Global
350
3E
  0
DICTIONARY
  5
68
102
{ACAD_REACTORS
330
C
102
}
330
C
100
AcDbDictionary
281
     1
  0
DICTIONARY
  5
17
102
{ACAD_REACTORS
330
C
102
}
330
C
100
AcDbDictionary
281
     1
  3
Standard
350
18
  0
DICTIONARY
  5
19
102
{ACAD_REACTORS
330
C
102
}
330
C
100
AcDbDictionary
281
     1
  0
ACDBDICTIONARYWDFLT
  5
E
102
{ACAD_REACTORS
330
C
102
}
330
C
100
AcDbDictionary
281
     1
  3
Normal
350
F
100
AcDbDictionaryWithDefault
340
F
  0
DICTIONARY
  5
67
102
{ACAD_REACTORS
330
C
102
}
330
C
100
AcDbDictionary
281
     1
  0
DICTIONARY
  5
2A
102
{ACAD_REACTORS
330
C
102
}
330
C
100
AcDbDictionary
281
     1
  3
2dWireframe
350
2F
  3
3D Hidden
350
31
  3
3dWireframe
350
30
  3
Basic
350
32
  3
Brighten
350
36
  3
ColorChange
350
3A
  3
Conceptual
350
34
  3
Dim
350
35
  3
Facepattern
350
39
  3
Flat
350
2B
  3
FlatWithEdges
350
2C
  3
Gouraud
350
2D
  3
GouraudWithEdges
350
2E
  3
Linepattern
350
38
  3
Realistic
350
33
  3
Thicken
350
37
  0
LAYOUT
  5
1E
102
{ACAD_REACTORS
330
1A
102
}
330
1A
100
AcDbPlotSettings
  1

  2
none_device
  4

  6

 40
0.0
 41
0.0
 42
0.0
 43
0.0
 44
0.0
 45
0.0
 46
0.0
 47
0.0
 48
0.0
 49
0.0
140
0.0
141
0.0
142
1.0
143
1.0
 70
   688
 72
     0
 73
     0
 74
     5
  7

 75
    16
 76
     0
 77
     2
 78
   300
147
1.0
148
0.0
149
0.0
100
AcDbLayout
  1
Layout1
 70
     1
 71
     1
 10
0.0
 20
0.0
 11
12.0
 21
9.0
 12
0.0
 22
0.0
 32
0.0
 14
1.000000000000000E+20
 24
1.000000000000000E+20
 34
1.000000000000000E+20
 15
-1.000000000000000E+20
 25
-1.000000000000000E+20
 35
-1.000000000000000E+20
146
0.0
 13
0.0
 23
0.0
 33
0.0
 16
1.0
 26
0.0
 36
0.0
 17
0.0
 27
1.0
 37
0.0
 76
     0
330
1B
  0
LAYOUT
  5
26
102
{ACAD_REACTORS
330
1A
102
}
330
1A
100
AcDbPlotSettings
  1

  2
none_device
  4

  6

 40
0.0
 41
0.0
 42
0.0
 43
0.0
 44
0.0
 45
0.0
 46
0.0
 47
0.0
 48
0.0
 49
0.0
140
0.0
141
0.0
142
1.0
143
1.0
 70
   688
 72
     0
 73
     0
 74
     5
  7

 75
    16
 76
     0
 77
     2
 78
   300
147
1.0
148
0.0
149
0.0
100
AcDbLayout
  1
Layout2
 70
     1
 71
     2
 10
0.0
 20
0.0
 11
0.0
 21
0.0
 12
0.0
 22
0.0
 32
0.0
 14
0.0
 24
0.0
 34
0.0
 15
0.0
 25
0.0
 35
0.0
146
0.0
 13
0.0
 23
0.0
 33
0.0
 16
1.0
 26
0.0
 36
0.0
 17
0.0
 27
1.0
 37
0.0
 76
     0
330
23
  0
LAYOUT
  5
22
102
{ACAD_REACTORS
330
1A
102
}
330
1A
100
AcDbPlotSettings
  1

  2
none_device
  4

  6

 40
0.0
 41
0.0
 42
0.0
 43
0.0
 44
0.0
 45
0.0
 46
0.0
 47
0.0
 48
0.0
 49
0.0
140
0.0
141
0.0
142
1.0
143
1.0
 70
  1712
 72
     0
 73
     0
 74
     0
  7

 75
     0
 76
     0
 77
     2
 78
   300
147
1.0
148
0.0
149
0.0
100
AcDbLayout
  1
Model
 70
     1
 71
     0
 10
0.0
 20
0.0
 11
12.0
 21
9.0
 12
0.0
 22
0.0
 32
0.0
 14
1.000000000000000E+20
 24
1.000000000000000E+20
 34
1.000000000000000E+20
 15
-1.000000000000000E+20
 25
-1.000000000000000E+20
 35
-1.000000000000000E+20
146
0.0
 13
0.0
 23
0.0
 33
0.0
 16
1.0
 26
0.0
 36
0.0
 17
0.0
 27
1.0
 37
0.0
 76
     0
330
1F
331
29
  0
MATERIAL
  5
3D
102
{ACAD_REACTORS
330
3B
102
}
330
3B
100
AcDbMaterial
  1
ByBlock
 72
     1
 94
      127
  0
MATERIAL
  5
3C
102
{ACAD_REACTORS
330
3B
102
}
330
3B
100
AcDbMaterial
  1
ByLayer
 72
     1
 94
      127
  0
MATERIAL
  5
3E
102
{ACAD_REACTORS
330
3B
102
}
330
3B
100
AcDbMaterial
  1
Global
 72
     1
 94
      127
  0
MLINESTYLE
  5
18
102
{ACAD_REACTORS
330
17
102
}
330
17
100
AcDbMlineStyle
  2
Standard
 70
     0
  3

 62
   256
 51
90.0
 52
90.0
 71
     2
 49
0.5
 62
   256
  6
BYLAYER
 49
-0.5
 62
   256
  6
BYLAYER
  0
ACDBPLACEHOLDER
  5
F
102
{ACAD_REACTORS
330
E
102
}
330
E
  0
VISUALSTYLE
  5
2F
102
{ACAD_REACTORS
330
2A
102
}
330
2A
100
AcDbVisualStyle
  2
2dWireframe
 70
     4
177
     2
291
     0
 71
     0
176
     1
 72
     2
176
     1
 73
     0
176
     1
 90
        0
176
     1
 40
-0.6
176
     1
 41
-30.0
176
     1
 62
     5
 63
     7
421
 16777215
176
     1
 74
     1
176
     1
 91
        4
176
     1
 64
     7
176
     1
 65
   257
176
     1
 75
     1
176
     1
175
     1
176
     1
 42
1.0
176
     1
 92
        0
176
     1
 66
   257
176
     1
 43
1.0
176
     1
 76
     1
176
     1
 77
     6
176
     1
 78
     2
176
     1
 67
     7
176
     1
 79
     5
176
     1
170
     0
176
     1
171
     0
176
     1
290
     0
176
     1
 93
        1
176
     1
 44
0.0
176
     1
173
     0
176
     1
  0
VISUALSTYLE
  5
31
102
{ACAD_REACTORS
330
2A
102
}
330
2A
100
AcDbVisualStyle
  2
3D Hidden
 70
     6
177
     2
291
     0
 71
     1
176
     1
 72
     2
176
     1
 73
     2
176
     1
 90
        0
176
     1
 40
-0.6
176
     1
 41
-30.0
176
     1
 62
     5
 63
     7
421
 16777215
176
     1
 74
     2
176
     1
 91
        2
176
     1
 64
     7
176
     1
 65
   257
176
     1
 75
     2
176
     1
175
     1
176
     1
 42
40.0
176
     1
 92
        0
176
     1
 66
   257
176
     1
 43
1.0
176
     1
 76
     1
176
     1
 77
     6
176
     1
 78
     2
176
     1
 67
     7
176
     1
 79
     3
176
     1
170
     0
176
     1
171
     0
176
     1
290
     0
176
     1
 93
        1
176
     1
 44
0.0
176
     1
173
     0
176
     1
  0
VISUALSTYLE
  5
30
102
{ACAD_REACTORS
330
2A
102
}
330
2A
100
AcDbVisualStyle
  2
3dWireframe
 70
     5
177
     2
291
     0
 71
     0
176
     1
 72
     2
176
     1
 73
     0
176
     1
 90
        0
176
     1
 40
-0.6
176
     1
 41
-30.0
176
     1
 62
     5
 63
     7
421
 16777215
176
     1
 74
     1
176
     1
 91
        4
176
     1
 64
     7
176
     1
 65
   257
176
     1
 75
     1
176
     1
175
     1
176
     1
 42
1.0
176
     1
 92
        0
176
     1
 66
   257
176
     1
 43
1.0
176
     1
 76
     1
176
     1
 77
     6
176
     1
 78
     2
176
     1
 67
     7
176
     1
 79
     5
176
     1
170
     0
176
     1
171
     0
176
     1
290
     0
176
     1
 93
        1
176
     1
 44
0.0
176
     1
173
     0
176
     1
  0
VISUALSTYLE
  5
32
102
{ACAD_REACTORS
330
2A
102
}
330
2A
100
AcDbVisualStyle
  2
Basic
 70
     7
177
     2
291
     1
 71
     1
176
     1
 72
     0
176
     1
 73
     1
176
     1
 90
        0
176
     1
 40
-0.6
176
     1
 41
-30.0
176
     1
 62
     5
 63
     7
421
 16777215
176
     1
 74
     0
176
     1
 91
        4
176
     1
 64
     7
176
     1
 65
   257
176
     1
 75
     1
176
     1
175
     1
176
     1
 42
1.0
176
     1
 92
        8
176
     1
 66
     7
176
     1
 43
1.0
176
     1
 76
     1
176
     1
 77
     6
176
     1
 78
     2
176
     1
 67
     7
176
     1
 79
     5
176
     1
170
     0
176
     1
171
     0
176
     1
290
     0
176
     1
 93
        1
176
     1
 44
0.0
176
     1
173
     0
176
     1
  0
VISUALSTYLE
  5
36
102
{ACAD_REACTORS
330
2A
102
}
330
2A
100
AcDbVisualStyle
  2
Brighten
 70
    12
177
     2
291
     1
 71
     2
176
     1
 72
     2
176
     1
 73
     0
176
     1
 90
        0
176
     1
 40
-0.6
176
     1
 41
-30.0
176
     1
 62
     5
 63
     7
421
 16777215
176
     1
 74
     1
176
     1
 91
        4
176
     1
 64
     7
176
     1
 65
   257
176
     1
 75
     1
176
     1
175
     1
176
     1
 42
1.0
176
     1
 92
        8
176
     1
 66
     7
176
     1
 43
1.0
176
     1
 76
     1
176
     1
 77
     6
176
     1
 78
     2
176
     1
 67
     7
176
     1
 79
     5
176
     1
170
     0
176
     1
171
     0
176
     1
290
     0
176
     1
 93
        1
176
     1
 44
50.0
176
     1
173
     0
176
     1
  0
VISUALSTYLE
  5
3A
102
{ACAD_REACTORS
330
2A
102
}
330
2A
100
AcDbVisualStyle
  2
ColorChange
 70
    16
177
     2
291
     1
 71
     2
176
     1
 72
     2
176
     1
 73
     3
176
     1
 90
        0
176
     1
 40
-0.6
176
     1
 41
-30.0
176
     1
 62
     5
 63
     8
421
  8421504
176
     1
 74
     1
176
     1
 91
        4
176
     1
 64
     7
176
     1
 65
   257
176
     1
 75
     1
176
     1
175
     1
176
     1
 42
1.0
176
     1
 92
        8
176
     1
 66
     8
424
  8421504
176
     1
 43
1.0
176
     1
 76
     1
176
     1
 77
     6
176
     1
 78
     2
176
     1
 67
     7
176
     1
 79
     5
176
     1
170
     0
176
     1
171
     0
176
     1
290
     0
176
     1
 93
        1
176
     1
 44
0.0
176
     1
173
     0
176
     1
  0
VISUALSTYLE
  5
34
102
{ACAD_REACTORS
330
2A
102
}
330
2A
100
AcDbVisualStyle
  2
Conceptual
 70
     9
177
     2
291
     0
 71
     3
176
     1
 72
     2
176
     1
 73
     0
176
     1
 90
        0
176
     1
 40
-0.6
176
     1
 41
-30.0
176
     1
 62
     5
 63
     7
421
 16777215
176
     1
 74
     2
176
     1
 91
        2
176
     1
 64
     7
176
     1
 65
   257
176
     1
 75
     1
176
     1
175
     1
176
     1
 42
40.0
176
     1
 92
        8
176
     1
 66
     7
176
     1
 43
1.0
176
     1
 76
     1
176
     1
 77
     6
176
     1
 78
     2
176
     1
 67
     7
176
     1
 79
     3
176
     1
170
     0
176
     1
171
     0
176
     1
290
     0
176
     1
 93
        1
176
     1
 44
0.0
176
     1
173
     0
176
     1
  0
VISUALSTYLE
  5
35
102
{ACAD_REACTORS
330
2A
102
}
330
2A
100
AcDbVisualStyle
  2
Dim
 70
    11
177
     2
291
     1
 71
     2
176
     1
 72
     2
176
     1
 73
     0
176
     1
 90
        0
176
     1
 40
-0.6
176
     1
 41
-30.0
176
     1
 62
     5
 63
     7
421
 16777215
176
     1
 74
     1
176
     1
 91
        4
176
     1
 64
     7
176
     1
 65
   257
176
     1
 75
     1
176
     1
175
     1
176
     1
 42
1.0
176
     1
 92
        8
176
     1
 66
     7
176
     1
 43
1.0
176
     1
 76
     1
176
     1
 77
     6
176
     1
 78
     2
176
     1
 67
     7
176
     1
 79
     5
176
     1
170
     0
176
     1
171
     0
176
     1
290
     0
176
     1
 93
        1
176
     1
 44
-50.0
176
     1
173
     0
176
     1
  0
VISUALSTYLE
  5
39
102
{ACAD_REACTORS
330
2A
102
}
330
2A
100
AcDbVisualStyle
  2
Facepattern
 70
    15
177
     2
291
     1
 71
     2
176
     1
 72
     2
176
     1
 73
     0
176
     1
 90
        0
176
     1
 40
-0.6
176
     1
 41
-30.0
176
     1
 62
     5
 63
     7
421
 16777215
176
     1
 74
     1
176
     1
 91
        4
176
     1
 64
     7
176
     1
 65
   257
176
     1
 75
     1
176
     1
175
     1
176
     1
 42
1.0
176
     1
 92
        8
176
     1
 66
     7
176
     1
 43
1.0
176
     1
 76
     1
176
     1
 77
     6
176
     1
 78
     2
176
     1
 67
     7
176
     1
 79
     5
176
     1
170
     0
176
     1
171
     0
176
     1
290
     0
176
     1
 93
        1
176
     1
 44
0.0
176
     1
173
     0
176
     1
  0
VISUALSTYLE
  5
2B
102
{ACAD_REACTORS
330
2A
102
}
330
2A
100
AcDbVisualStyle
  2
Flat
 70
     0
177
     2
291
     1
 71
     2
176
     1
 72
     1
176
     1
 73
     1
176
     1
 90
        2
176
     1
 40
-0.6
176
     1
 41
30.0
176
     1
 62
     5
 63
     7
421
 16777215
176
     1
 74
     0
176
     1
 91
        4
176
     1
 64
     7
176
     1
 65
   257
176
     1
 75
     1
176
     1
175
     1
176
     1
 42
1.0
176
     1
 92
        8
176
     1
 66
     7
176
     1
 43
1.0
176
     1
 76
     1
176
     1
 77
     6
176
     1
 78
     2
176
     1
 67
     7
176
     1
 79
     5
176
     1
170
     0
176
     1
171
     0
176
     1
290
     0
176
     1
 93
       13
176
     1
 44
0.0
176
     1
173
     0
176
     1
  0
VISUALSTYLE
  5
2C
102
{ACAD_REACTORS
330
2A
102
}
330
2A
100
AcDbVisualStyle
  2
FlatWithEdges
 70
     1
177
     2
291
     1
 71
     2
176
     1
 72
     1
176
     1
 73
     1
176
     1
 90
        2
176
     1
 40
-0.6
176
     1
 41
30.0
176
     1
 62
     5
 63
     7
421
 16777215
176
     1
 74
     1
176
     1
 91
        4
176
     1
 64
     7
176
     1
 65
   257
176
     1
 75
     1
176
     1
175
     1
176
     1
 42
1.0
176
     1
 92
        0
176
     1
 66
   257
176
     1
 43
1.0
176
     1
 76
     1
176
     1
 77
     6
176
     1
 78
     2
176
     1
 67
     7
176
     1
 79
     5
176
     1
170
     0
176
     1
171
     0
176
     1
290
     0
176
     1
 93
       13
176
     1
 44
0.0
176
     1
173
     0
176
     1
  0
VISUALSTYLE
  5
2D
102
{ACAD_REACTORS
330
2A
102
}
330
2A
100
AcDbVisualStyle
  2
Gouraud
 70
     2
177
     2
291
     1
 71
     2
176
     1
 72
     2
176
     1
 73
     1
176
     1
 90
        2
176
     1
 40
-0.6
176
     1
 41
30.0
176
     1
 62
     5
 63
     7
421
 16777215
176
     1
 74
     0
176
     1
 91
        4
176
     1
 64
     7
176
     1
 65
   257
176
     1
 75
     1
176
     1
175
     1
176
     1
 42
1.0
176
     1
 92
        0
176
     1
 66
     7
176
     1
 43
1.0
176
     1
 76
     1
176
     1
 77
     6
176
     1
 78
     2
176
     1
 67
     7
176
     1
 79
     5
176
     1
170
     0
176
     1
171
     0
176
     1
290
     0
176
     1
 93
       13
176
     1
 44
0.0
176
     1
173
     0
176
     1
  0
VISUALSTYLE
  5
2E
102
{ACAD_REACTORS
330
2A
102
}
330
2A
100
AcDbVisualStyle
  2
GouraudWithEdges
 70
     3
177
     2
291
     1
 71
     2
176
     1
 72
     2
176
     1
 73
     1
176
     1
 90
        2
176
     1
 40
-0.6
176
     1
 41
30.0
176
     1
 62
     5
 63
     7
421
 16777215
176
     1
 74
     1
176
     1
 91
        4
176
     1
 64
     7
176
     1
 65
   257
176
     1
 75
     1
176
     1
175
     1
176
     1
 42
1.0
176
     1
 92
        0
176
     1
 66
   257
176
     1
 43
1.0
176
     1
 76
     1
176
     1
 77
     6
176
     1
 78
     2
176
     1
 67
     7
176
     1
 79
     5
176
     1
170
     0
176
     1
171
     0
176
     1
290
     0
176
     1
 93
       13
176
     1
 44
0.0
176
     1
173
     0
176
     1
  0
VISUALSTYLE
  5
38
102
{ACAD_REACTORS
330
2A
102
}
330
2A
100
AcDbVisualStyle
  2
Linepattern
 70
    14
177
     2
291
     1
 71
     2
176
     1
 72
     2
176
     1
 73
     0
176
     1
 90
        0
176
     1
 40
-0.6
176
     1
 41
-30.0
176
     1
 62
     5
 63
     7
421
 16777215
176
     1
 74
     1
176
     1
 91
        4
176
     1
 64
     7
176
     1
 65
   257
176
     1
 75
     7
176
     1
175
     7
176
     1
 42
1.0
176
     1
 92
        8
176
     1
 66
     7
176
     1
 43
1.0
176
     1
 76
     1
176
     1
 77
     6
176
     1
 78
     2
176
     1
 67
     7
176
     1
 79
     5
176
     1
170
     0
176
     1
171
     0
176
     1
290
     0
176
     1
 93
        1
176
     1
 44
0.0
176
     1
173
     0
176
     1
  0
VISUALSTYLE
  5
33
102
{ACAD_REACTORS
330
2A
102
}
330
2A
100
AcDbVisualStyle
  2
Realistic
 70
     8
177
     2
291
     0
 71
     2
176
     1
 72
     2
176
     1
 73
     0
176
     1
 90
        0
176
     1
 40
-0.6
176
     1
 41
-30.0
176
     1
 62
     5
 63
     7
421
 16777215
176
     1
 74
     1
176
     1
 91
        0
176
     1
 64
     7
176
     1
 65
   257
176
     1
 75
     1
176
     1
175
     1
176
     1
 42
1.0
176
     1
 92
        8
176
     1
 66
     8
424
  7895160
176
     1
 43
1.0
176
     1
 76
     1
176
     1
 77
     6
176
     1
 78
     2
176
     1
 67
     7
176
     1
 79
     5
176
     1
170
     0
176
     1
171
     0
176
     1
290
     0
176
     1
 93
       13
176
     1
 44
0.0
176
     1
173
     0
176
     1
  0
VISUALSTYLE
  5
37
102
{ACAD_REACTORS
330
2A
102
}
330
2A
100
AcDbVisualStyle
  2
Thicken
 70
    13
177
     2
291
     1
 71
     2
176
     1
 72
     2
176
     1
 73
     0
176
     1
 90
        0
176
     1
 40
-0.6
176
     1
 41
-30.0
176
     1
 62
     5
 63
     7
421
 16777215
176
     1
 74
     1
176
     1
 91
        4
176
     1
 64
     7
176
     1
 65
   257
176
     1
 75
     1
176
     1
175
     1
176
     1
 42
1.0
176
     1
 92
       12
176
     1
 66
     7
176
     1
 43
1.0
176
     1
 76
     1
176
     1
 77
     6
176
     1
 78
     2
176
     1
 67
     7
176
     1
 79
     5
176
     1
170
     0
176
     1
171
     0
176
     1
290
     0
176
     1
 93
        1
176
     1
 44
0.0
176
     1
173
     0
176
     1
  0
ENDSEC
  0
EOF
