<?xml version="1.0" encoding="UTF-8"?><svg id="a" xmlns="http://www.w3.org/2000/svg" viewBox="0 0 531.47014 790.03241"><defs><style>.b{fill:#010101;}</style></defs><path class="b" d="M116.08838,790.03241c-2.17285,0-4.25977-.79785-5.91797-2.30078-2.12109-1.92285-3.16016-4.65918-2.85059-7.50684,.7959-7.32031,.45947-13.00488-3.61279-20.39648-2.38721-4.33203-4.23486-9.04688-6.02197-13.60645-2.62012-6.68555-5.09473-13.00098-9.12256-18.25684-2.96143-3.86328-15.01514-13.10449-22.22168-12.62012-1.74463,.11328-2.93359,.81738-3.74219,2.2168-2.27881,3.94434-4.26709,8.21094-6.18945,12.33691-.8623,1.85059-1.7251,3.70215-2.6167,5.53613-.87695,1.80469-1.73828,3.62012-2.59912,5.43457-2.21826,4.6748-4.5127,9.50977-7.07373,14.13965-.02393,.04297-.04443,.08691-.06348,.12988-3.81934,8.66699-14.0127,12.69727-22.72949,8.98535-.46094-.19629-.92627-.41895-1.38232-.66211-.47852-.25781-.88574-.52441-1.25293-.82031-2.1626-1.74219-3.55127-4.32812-3.81055-7.09473-.88184-10.39844-1.61084-19.76953-1.61621-29.38086-.03125-54.81445-5.07715-110.02539-9.95703-163.41895-.9502-10.39551-1.90088-20.7998-2.81836-31.21875-.65283-7.41309-.65234-14.93066,.00146-22.34375,6.16406-68.87012,13.18701-138.7749,19.979-206.37793,7.74805-77.12646,15.76074-156.87842,22.52881-235.41357,.47705-5.5376,.96973-11.0791,1.46289-16.62305,1.10107-12.3877,2.24023-25.19727,3.18213-37.79834,.5127-6.85498,3.65479-10.41357,10.50732-11.89941,6.21484-1.34668,15.73145-1.15918,31.49414-.8501,7.74072,.15234,17.37402,.34131,28.60205,.36816,18.79004,.04443,37.89746-.01025,56.375-.06445,14.08203-.04053,28.16455-.08691,42.25-.08105,38.90381,0,78.29443,.06787,117.09912,.20264,5.47754,.01904,10.95508,.03223,16.43262,.04492,14.40234,.03418,29.29395,.06982,43.94434,.21875,19.19141,.1958,20.20215,4.36426,20.29883,16.38867,.0332,4.19238,.0752,9.41016,1.17676,16.09473,2.8623,17.37305,6.63184,37.39746,15.19043,55.17676,.10547,.22021,.20215,.44482,.28906,.67285,8.03125,21.07812,13.88965,43.06836,17.41016,65.354,5.8418,39.55615,13.87695,79.2124,23.88477,117.89307,2.44043,8.90625,4.0498,18.12451,4.77637,27.36377,2.0625,18.47168,5.91602,36.91797,11.44336,54.74414,.64746,2.12061,1.27246,4.23682,1.89746,6.35059,4.52734,15.32129,8.80371,29.79297,19.77539,41.41553,.31445,.33301,.57715,.65137,.80371,.97461,4.08984,5.81738,5.69629,13.16602,4.40723,20.15918-.04102,.22168-.06348,.4209-.06738,.58887-.18555,8.41797,1.18457,13.34082,8.94336,15.25098,2.77734,.68457,4.83105,2.33984,5.93945,4.78809,3.19922,7.06543-2.46875,19.41016-5.05371,24.38965-6.90918,13.30664-12.15234,27.45312-15.58203,42.0459-2.81641,12.57812-2.16992,25.72363,1.875,37.98828,7.11523,20.66699,7.28418,43.52344,.46582,64.32715q-4.20703,12.66309,5.15234,20.42773c.11719,.09668,.24414,.18457,.37207,.26562,4.1123,2.6416,8.24902,7.8584,8.23145,13.56641-.02148,6.88477-3.22852,8.44922-8.03613,8.67969h-.00195c-.5293,.02539-1.0957,.04102-1.69922,.05762-.48438,.0127-.99316,.02637-1.52637,.04688-9.23633,.35352-18.62695,.48145-27.70703,.60449-4.61621,.0625-9.23047,.125-13.8418,.2168l-249.02734,4.91504c-19.30566,.00098-38.90576,.6582-57.86084,1.29492-11.54883,.38672-23.49121,.78809-35.21484,1.03418l-.14404,.00391-.14355-.01367c-2.50244-.2373-4.76709,1.52051-5.16602,3.99609l-.02393,.12891c-.04297,.19824-.0791,.39844-.11621,.59961-.08154,.44434-.16602,.88867-.28418,1.32324-5.27686,19.47754-4.79297,25.79004,11.93896,38.36133,18.71191,14.05859,19.03223,17.2334,17.59082,31.7334-.25146,2.5332-.53711,5.40527-.74707,8.82031-.34326,5.58301-.38965,11.31152-.43408,16.85156-.01318,1.61621-.02637,3.23242-.04639,4.84766,.35205,6.21094-3.92822,11.87207-10.00293,13.22559-5.26611,1.44922-11.07666,2.79395-17.76025,4.10938-1.16406,.22949-2.4248,.55371-3.75977,.89648-1.30176,.33496-2.64795,.68066-4.01758,.96777-.62061,.12988-1.24268,.19336-1.85791,.19336Zm-49.2666-79.70312c9.44189,0,22.35352,10.21582,25.70947,14.59473,4.45654,5.81543,7.17773,12.75879,9.80908,19.47363,1.72852,4.41016,3.51611,8.97168,5.74561,13.01855,4.68994,8.51074,5.08594,15.24414,4.20459,23.34961-.13477,1.2373,.31689,2.42578,1.23779,3.26172,.92773,.83984,2.16504,1.17871,3.39307,.91699,1.25928-.26367,2.55029-.5957,3.79883-.91602,1.40479-.36035,2.73145-.70117,4.03564-.95898,6.58984-1.29688,12.30078-2.61914,17.4624-4.04199l.13525-.0332c3.80811-.8252,6.38916-4.24512,6.1377-8.13281l-.00635-.0957,.00098-.09668c.021-1.63867,.03418-3.27832,.04736-4.91699,.04541-5.60547,.09229-11.40234,.44385-17.11816,.21533-3.50879,.50586-6.43066,.76172-9.00781,1.271-12.78613,1.43408-14.42969-15.61865-27.24121-18.47314-13.87988-19.57324-22.21387-13.76123-43.66797,.08203-.30273,.13574-.61133,.19238-.91895,.04199-.22852,.08447-.45703,.13184-.68359,.83643-4.98438,5.36523-8.5293,10.40723-8.12793,11.6499-.24707,23.5293-.64551,35.01904-1.03125,18.99609-.63672,38.63916-1.2959,57.97949-1.2959l248.97803-4.91504c4.62109-.0918,9.24609-.1543,13.87207-.21777,9.05078-.12207,18.40918-.24902,27.58301-.60059,.55371-.02148,1.08105-.03613,1.58301-.0498,.56738-.01465,1.09961-.0293,1.59766-.05273h0c2.8291-.13574,3.26465-.15625,3.27539-3.70117,.01074-3.625-2.97461-7.44238-5.92969-9.34082-.29492-.18945-.5918-.40039-.86621-.62793-11.32227-9.3916-11.39258-11.74121-6.70801-25.8418,6.47754-19.76465,6.31738-41.49023-.45605-61.16406-4.33789-13.15332-5.0293-27.21777-2.00977-40.70312,3.53027-15.02148,8.91797-29.55859,16.01758-43.23242,3.4502-6.64551,6.81348-15.87695,4.93652-20.02246-.47949-1.05859-1.27539-1.67383-2.58008-1.99512-11.53223-2.83984-12.94141-11.39355-12.74609-20.21387,.00879-.43555,.05664-.88965,.14746-1.38379,1.04785-5.68555-.25684-11.65527-3.58008-16.38281-.10547-.14941-.22559-.28711-.34961-.41895-11.79102-12.48926-16.43848-28.21729-20.93359-43.42822-.62012-2.09961-1.24121-4.20117-1.88086-6.29688-5.61816-18.11719-9.53613-36.875-11.6416-55.7417-.70996-9.00732-2.26465-17.9126-4.63086-26.5498-10.06152-38.88623-18.13281-78.71875-23.99707-118.4248-3.46191-21.91992-9.23047-43.57373-17.1416-64.33545-.03711-.09863-.07715-.18945-.12012-.27881-8.84473-18.37598-12.69922-38.81592-15.61816-56.53223-1.16504-7.06836-1.20801-12.50146-1.24316-16.86719-.04102-5.07275-.12695-7.78174-1.52246-9.10596-1.62988-1.5459-5.76465-2.24072-13.82715-2.32275-14.63086-.14893-29.5127-.18457-43.90527-.21875-5.47949-.0127-10.95898-.02588-16.43848-.04492-39.0498-.13574-78.65283-.19043-117.83789-.20264-13.82617,.00049-27.65283,.04102-41.479,.08105-18.48486,.05371-37.59912,.11084-56.40137,.06445-11.27148-.02686-20.92871-.21631-28.68848-.36914-32.16016-.63086-36.29395-.2207-36.91699,8.12354-.94482,12.63574-2.08545,25.46338-3.18799,37.86816-.49268,5.53955-.98486,11.07617-1.46191,16.60986-6.771,78.56982-14.78516,158.33984-22.53564,235.4834-6.79004,67.58984-13.81201,137.48096-19.97314,206.3208-.62793,7.11816-.62842,14.34082-.00146,21.46191,.91748,10.41504,1.86768,20.81348,2.81738,31.20312,4.88965,53.50391,9.94629,108.83008,9.97754,163.87109,.00537,9.41699,.72607,18.67676,1.59668,28.93945,.13184,1.4082,.84961,2.74512,1.96777,3.64648,.12256,.09863,.28271,.20117,.47559,.30566,.31396,.16699,.64404,.32617,.98096,.46875,6.21143,2.64941,13.47363-.22559,16.19434-6.39844,.07959-.18164,.16846-.3623,.26514-.53809,2.48535-4.49219,4.74512-9.25488,6.93115-13.86133,.86768-1.8291,1.73535-3.65723,2.61914-5.47656,.87988-1.80957,1.73047-3.63672,2.58154-5.46191,1.96826-4.22461,4.00342-8.5918,6.39258-12.72754,1.6499-2.85547,4.32861-4.48242,7.74658-4.7041,.26465-.01758,.53467-.02637,.80566-.02637Z"/></svg>