<?xml version="1.0" encoding="UTF-8"?><svg id="a" xmlns="http://www.w3.org/2000/svg" viewBox="0 0 827.66425 555.16974"><defs><style>.b{fill:#010101;}</style></defs><path class="b" d="M825.18644,517.74396c-.77637-3.08105-1.74316-6.91504-4.22266-9.89844-4.06445-4.8877-10.18359-5.80566-16.10059-6.69336-2.03027-.30469-3.94727-.59277-5.76172-1.03418-12.77051-3.10352-21.4668-14.5918-29.97656-27.10352l-18.17676-26.72363c-3.35254-4.92773-7.15234-10.51367-12.90918-13.91602-1.625-.95996-3.31738-1.69043-4.9541-2.39648-1.75-.75586-3.40332-1.46973-4.87891-2.41113-4.24707-2.71094-6.95898-7.21387-9.83008-11.98242-1.28906-2.14062-2.62207-4.35449-4.12012-6.42383-5.75977-7.95703-16.3125-13.11426-24.00586-7.96777-4.16602,2.78809-6.20605,7.7627-8.00586,12.15137-2.39062,5.83203-4.06055,9.40723-8.08594,9.42383h-.02539c-1.11914,0-2.32227-.31543-3.48047-.91113-14.06055-7.24805-26.10449-18.07422-34.83105-31.30664l-.08789-.13379c-1.88672-2.8623-4.23535-6.4248-8.27051-7.43262-3.39062-.84473-6.52344,.44531-9.28516,1.58496l-.83203,.34082c-2.28516,.92188-10.10156,3.61621-14.77051-.41602-3.66016-3.15918-3.93164-9.21387-3.89844-14.6416l.06738-11.21094c.13477-22.27637,.2793-44.55273,.4248-66.8291,.44336-68.17969,.90137-138.68115,1.04297-208.02393,.00195-1.09131-.01465-2.18262-.03223-3.27393-.01172-.79932-.02441-1.59814-.03027-2.31006,.08203-2.81494-1.45605-5.47363-3.92871-6.81006-6.63086-4.25781-13.69727-7.90967-21.00879-10.85693-6.58203-3.37354-14.21191-3.54883-20.94922-.47754-.09375,.04297-.18555,.0918-.27344,.146-3.50977,2.15967-8.06836,1.92969-11.34375-.57373-.06641-.05029-.13477-.09766-.20605-.14111-2.68945-1.66016-5.52148-3.13428-8.42285-4.38477-3.40527-2.34082-7.83887-2.47021-11.38281-.3042-.05957,.03564-.11621,.07373-.17188,.11475-.68359,.49854-1.59766,.49365-2.27539-.01074-.06543-.04834-.13281-.09375-.20312-.13623-1.92285-1.1582-3.86719-2.28027-5.81152-3.40234-2.33008-1.34375-4.7373-2.73291-7.05078-4.15771-6.01172-4.26221-13.07617-6.74463-20.43555-7.18164-.04004-.00244-.08008-.00391-.11914-.00439-3.37402-.03906-6.71973-.48193-10.26074-.95117-2.02441-.26758-4.11523-.54492-6.20215-.7373-3.81445-.8374-7.33203-2.68994-10.18164-5.3623-.08398-.0791-.1748-.15283-.26953-.21973-.60645-.42725-.71289-1.12061-.74609-3.12891-.01562-1.00049-.03418-2.13135-.29492-3.25049-.41895-2.27686-1.58594-4.38818-3.29102-5.95312-.1123-.10303-.23438-.19531-.36328-.27637-4.42969-2.7749-10.14941-2.44922-14.24316,.81543-.74316,.59766-1.38184,1.23779-2,1.85693-.50391,.50537-.97949,.98242-1.46582,1.3877-.34863,.29004-.59668,.44043-.75,.51709-.04297-.05811-.0957-.13623-.1543-.23779-.05566-.09619-.11816-.18848-.18555-.27686-1.18848-1.53418-1.95801-3.35205-2.23633-5.27051,.27734-5.40771-3.08105-8.13135-5.78809-10.32666l-.71875-.58643c-1.13379-.93799-2.43066-1.54492-3.5752-2.08057-.84961-.39746-1.65137-.77344-2.2793-1.2251-9.28418-6.67578-10.84961-6.50391-18.61621,2.04004-.05322,.05811-.10352,.11865-.15039,.18164-1.98779,2.65088-5.14355,4.05176-8.44287,3.75195-.09033-.00781-.18018-.01318-.27441-.00977-1.70996,.03223-3.42725,.21826-5.12354,.55664-3.76123,.78076-7.72266,.2627-11.15527-1.46045-.08984-.04492-.18213-.08447-.27588-.11816-2.32617-.83643-4.84863-.74219-7.13721,.27588-2.35254,1.08496-4.66943,2.31592-6.88721,3.65918-6.03613,3.65576-10.86377,3.63818-17.53662,3.61279-1.2373-.00488-2.51416-.00928-3.84521,.01074-6.9248,.10205-15.89258,3.16846-18.47363,11.45996-2.36572,5.6333-6.24023,10.48682-11.21045,14.04199-.11084,.0791-.21533,.16748-.31201,.26416-3.98389,3.97803-9.49561,6.09375-15.1167,5.7915-.0542-.00293-.1084-.00342-.16064-.00342-4.7168,0-9.4248-.5918-13.99365-1.75928-6.40625-2.49023-13.78027-1.48291-19.35498,2.69727-3.76953,3.04297-4.13672,5.06299-1.7085,9.396,1.47412,2.63086,3.13818,5.19141,4.57129,7.34863,1.21582,1.83008,2.49902,3.64404,3.74023,5.39746,2.47412,3.49707,5.03271,7.1123,7.03467,10.85498,.02686,.0498,.05518,.09814,.08496,.146,3.48633,5.57617,4.97803,12.23193,4.2085,18.76123-1.0166,3.98877,1.04834,8.06348,4.87549,9.59961,1.21777,.61768,2.45703,1.18506,3.65625,1.73389,1.61768,.74072,3.14502,1.43994,4.6167,2.24854,.32764,.18018,.83057,.45654,1.21631,.69238-.28857,.54736-.75586,1.3042-1.05078,1.7793-1.66406,2.27051-1.92334,5.23242-.69287,7.7168l1.73389,3.70947c1.52002,3.2583,3.0918,6.62793,4.69434,9.9248,.48779,1.00342,1.03027,1.95654,1.55469,2.87891,.70752,1.24268,1.37549,2.4165,1.84863,3.58301,.11523,.2959,.1167,.62451,.01074,.91943l-.15527,.13525c-2.80029,2.44727-4.94287,4.13818-7.16797,3.55762-8.05273-1.7959-15.93555-4.45557-23.34277-7.86426-.92188-.46875-1.78125-.89111-2.57568-1.28125-2.69629-1.3252-5.0249-2.46924-5.27344-3.3418-.42432-1.49023,2.55859-6.30762,3.81006-8.30811,.62549-.76807,1.00684-1.69141,1.10742-2.68701,.27148-2.71484-1.66309-5.15088-4.34277-5.52246-6.25098-1.4707-12.77051-1.17139-18.8623,.87109-.06836,.02295-.13525,.04883-.20117,.07764-1.2749,.55322-2.35693,1.5166-3.05469,2.71777l-.13184,.20557c-.92432,1.43994-1.87793,2.92578-2.33545,3.30811-.52246-.07764-1.87842-.69971-2.45752-.96484-3.21436-1.38672-6.76025-1.98438-10.24854-1.73779-5.75342,.18848-11.38232,.39795-16.98193,.87305-.47559,.04053-1.13916-.01465-1.84326-.07373-2.16455-.18066-6.66455-.55615-7.68115,3.97998-.56836,2.53516,.98975,4.9873,2.36426,7.15039,.44287,.69678,.86133,1.35498,1.17188,1.95068,.02881,.05469,.05908,.1084,.09131,.16064,.60449,.97559,1.33789,1.86328,2.18164,2.64062,.87207,.89795,1.8418,1.72559,2.78027,2.52686,1.75,1.49365,3.56006,3.03857,3.99658,4.50928,.44482,1.49951-.22119,3.80469-.86523,6.03418-.34912,1.2085-.71045,2.45801-.94531,3.71191-.02441,.12891-.03809,.25977-.04199,.39111-.01172,.42041-.05029,.84424-.11426,1.2627-2.71973,7.00195,.06641,14.9292,6.55957,18.69238,3.95508,3.82227,9.34863,5.90967,14.854,5.75244,.06494-.00195,.12891-.00635,.19336-.01318,7.28613-.78418,14.74512,.88818,21.04102,4.73145,5.56641,3.25342,12.26562,3.96436,18.38916,1.95215,2.40234-.67725,4.81836-1.41064,7.15576-2.11963,2.104-.63867,4.20801-1.27734,6.32178-1.88232,1.84766-.52832,2.45996-.55811,2.64697-.49072,.1709,.06152,.5791,.45264,1.55518,1.96338,.38916,.60205,.74609,1.25488,1.12402,1.94531,.54492,.99658,1.1084,2.02734,1.83154,3.01953,.05078,.06982,.10547,.13672,.16309,.20117,.02637,.0293,.05029,.06104,.07178,.09375,.14111,.21826,.13477,.43213,.10498,.57275-.03027,.14062-.1123,.33789-.33105,.47949-.15674,.10156-.30176,.22021-.43213,.354-3.89355,3.99316-6.28809,9.24268-6.75244,14.79785-.3584,1.74219-.69629,3.48926-1.03369,5.23633-.53467,2.76562-1.0874,5.62549-1.71533,8.39844-.3623,1.59863-.625,2.24512-.79346,2.49805l-.9126,.48047c-6.40527,3.3833-11.94092,6.30713-18.26416,2.34521-3.87939-2.91895-9.34082-2.36475-12.55273,1.27295-.43066,.39258-.98389,.76416-1.56787,1.15625-.65332,.43896-1.32812,.89209-1.9834,1.46387-3.67871,2.77881-8.39209,4.02686-12.96289,3.44141-.74316-.20996-1.37646-.68604-1.84033-1.41553-.06836-.1543-.12793-.65723-.16748-.99072-.06885-.58203-.14648-1.23877-.36035-1.92041-.04785-.18359-.10156-.36572-.16016-.54785-1.66895-5.13623-7.16357-7.98242-12.30859-6.40576-5.12598,1.00488-9.43359,4.4458-11.54346,9.23193-.02051,.04688-.04004,.09473-.05762,.14258-1.65771,4.49121-4.91748,8.16504-9.20996,10.36084-5.65137,2.99023-11.1626,6.38281-16.49219,9.66406l-2.21631,1.36328c-2.46631,1.51416-3.87402,3.08643-4.28662,4.7417-1.45068,5.20996-2.46387,10.5791-3.01172,15.95801-.06152,.41748-.0874,.8418-.07617,1.26074,.0498,1.96387,.86133,3.79102,2.28516,5.14453,1.33643,1.27051,3.06152,1.98047,4.89209,2.02246,1.46924,.36426,2.89258,.87305,4.25537,1.51855-1.45557,2.45801-2.64502,5.06641-3.54834,7.78223-.0791,.23926-.12207,.48926-.12695,.74121-.04688,2.44336-1.65771,4.5293-4.03955,5.2002-2.42725,.7168-3.37207,2.15723-3.73682,3.23926-.52881,1.56738-.1582,3.33398,1.07764,5.01855,4.32275,5.62598,7.06201,12.32129,7.93359,19.44922,.71924,4.58008,4.84863,7.78418,9.45312,7.35059,1.48389,.00195,2.9707,.00195,4.45605,0,3.43213-.00293,6.97803-.00586,10.54834,.04199,2.82959-.06348,5.53467-1.29395,7.44336-3.37793,.99561-.91211,1.45117-1.21875,1.65674-1.31738,.44922,.18652,1.50488,1.01367,2.03125,1.42578,.04443,.03418,.08984,.06738,.13672,.09961,1.38818,.94238,2.21533,2.49707,2.22412,4.17188-.59863,6.89551,.12598,13.74707,2.15479,20.36426,.00879,.0293,.02002,.0625,.03125,.0957-.07275,.05566-.19824,.12793-.38672,.1875-1.66162,.23438-3.30127,.65039-4.87549,1.2373-.10449,.03906-.20605,.08496-.3042,.1377-1.73584,.92578-2.97266,2.56055-3.39307,4.48242-.03125,.14258-.0498,.28711-.05566,.43262-.1582,3.91211-.13623,7.87305-.11523,11.70312,.00781,1.34375,.01514,2.68945,.01514,4.03516,0,1.18262,.79248,2.19434,1.94971,2.43848,.07129,.01953,.14893,.04883,.229,.07715,.66064,.23145,1.87061,.65527,3.08594-.00781,5.4873-2.71582,11.60059-3.7793,17.68164-3.07031,.08887,.00977,.17822,.01562,.26807,.0166l.36035,.00293c4.24756,.02832,5.10596,.27246,5.39307,2.95312,.0791,.92285,.46777,1.80664,1.09326,2.48535,.75977,.82715,1.7959,1.30859,2.91748,1.35547,1.05518,.05566,2.04834-.29395,2.84863-.9541,.49561-.34082,.9126-.71289,1.28418-1.04395,.28711-.25586,.55811-.49707,.79736-.66113,.4126-.2832,.7251-.48047,.96045-.61914,.10742,.2627,.2417,.62695,.40479,1.13184,.95264,2.94824,1.81982,5.97168,2.73779,9.17383,.42334,1.47656,.86035,3,1.32617,4.58887,.27441,.93652,1.06787,1.62695,2.0332,1.76953,.96191,.14355,1.92432-.28809,2.4585-1.10449,.94629-1.44824,1.98584-2.85254,3.09033-4.17676,.33691-.35156,.66406-.72461,.9917-1.09863,1.56787-1.79102,2.23438-2.39844,3.58594-2.14062,3.77832,.71094,5.18945,1.66504,5.80811,3.92773,1.08789,3.98145,4.05908,5.50781,8.8252,4.5459,4.10742-.60742,8.03955-2.23242,11.31689-4.66113,.5957-.41406,1.20166-.81836,1.81641-1.21094-.15527,1.30469-.28223,2.5127-.35205,3.71973-.00244,.03613-.00342,.07324-.00391,.10938-.05225,3.71289-1.65918,7.27246-4.40869,9.76758-.04199,.03809-.08252,.07812-.12207,.11914-2.75,2.86035-5.08545,6.08594-6.94238,9.58984-3.85645,6.44141-7.62793,13.05078-11.21143,19.64648-.03125,.05762-.06006,.11621-.08691,.17578-.8042,1.80566-2.43506,3.08496-4.37598,3.43848-8.79932,.68066-16.09033,7.18652-17.75439,15.86523-.00977,.05078-.01807,.10156-.02441,.15234-.01514,.11523-.03711,.22852-.06787,.34082-.36084,1.32617-1.73535,2.10742-3.06299,1.75293-.13379-.03711-.27051-.06152-.4082-.0752-6.79004-.67773-13.61426-.27832-20.28223,1.17969-8.11084,1.03906-15.5332,5-20.95361,11.21094-4.06689,4.91504-4.55029,4.99902-10.12451,1.54199-4.93066-3.34277-11.14697-3.96582-16.55518-1.69727-3.39209,1.27051-6.89404,2.35449-10.40967,3.22363-4.22217,.81445-8.03809,2.87305-11.02148,5.93848-2.34521,2.36426-5.2915,4.04102-8.52002,4.84766-.10693,.02734-.2124,.06152-.31494,.10156-6.88086,2.72949-14.38428,3.58105-21.70215,2.46973-2.49707-.49707-5.04932-.86523-7.58838-1.0957-5.22363-.70605-10.45508,.20996-15.20459,2.68164-1.73535,.97559-6.37207,5.02246-5.15137,8.74316,.45654,1.39062,1.55225,2.54785,3.08594,3.25684,1.85742,.86035,4.12109,.98145,5.76807,.30859,.8584-.34961,1.74414-.65234,2.68213-.97363,.87109-.29785,1.7417-.59668,2.59766-.93262,.05225-.02051,.10352-.04297,.1543-.06641,3.27295-1.54688,7.09668-1.38281,10.16699,.40332,7.63867,4.73535,17.25439,4.18262,23.94873-1.37305,2.60547-1.97656,7.15088-3.30957,10.19971-2.97266,6.24707,.58887,11.10596-3.45117,15.39307-7.01758l1.13525-.94043c.02588-.02148,.05176-.04297,.07666-.06543,1.80811-1.61328,4.49023-1.81836,6.52197-.50098,.05908,.03809,.11963,.07324,.18164,.10645,6.63721,3.54395,14.54688,3.5459,21.18408,.00879,3.90967-1.66406,7.95361-3.13477,12.02246-4.37305,.12842-.03906,.25391-.08887,.375-.14844,1.27295-.62598,2.69043-.97168,4.11084-1.00586,3.1333,.50195,6.25391,.46094,9.27197,.4209,4.37646-.0625,8.50781-.11328,12.31885,1.40137,2.84424,1.22363,6.09961,.36035,7.96826-2.08887,3.06934-3.49023,1.28418-6.10742-.06299-7.36328-.34229-.31934-.73779-.65234-1.14307-.99121-.32275-.27051-.77246-.64648-1.12744-.98242,.16016-.02051,.3208-.03906,.4585-.05469,.89404-.10254,1.90771-.21777,2.87842-.68652,1.78076-.85938,3.59326-1.60547,5.5127-2.39551,1.57861-.65039,3.21143-1.32227,4.81396-2.05957,4.30225-1.98926,8.86475-3.32129,13.56299-3.96094,8.77051-.64648,17.39844-3.35547,24.95996-7.83789,1.26514-.63574,2.58594-1.19043,3.92773-1.64844,.09473-.03223,.1875-.07031,.27783-.11426,2.35156-1.13281,4.71338-2.24805,7.0752-3.36328,6.05859-2.85938,12.32373-5.81738,18.33984-9.06543,6.92383-3.73828,13.69385-7.95605,20.24121-12.03418l3.23389-2.01172c2.59521-1.55371,4.97266-3.44824,7.09961-5.66699,3.76318-4.08301,6.18359-6.99805,5.56641-10.18945-.62109-3.20898-4.00732-5.03711-9.10205-7.45996-.08789-.04199-.17822-.07812-.27002-.10938-.87402-.29688-1.35156-1.22168-1.08789-2.10645,.03174-.10547,.05615-.21289,.07324-.32227,.39893-2.50586,1.68652-4.78711,3.69629-6.4873,5.49658-5.00781,12.2124-8.62207,19.47168-10.46582,4.24756-1.1748,7.86035-3.88867,10.17188-7.63965,10.6001-17.2041,21.33057-26.7998,37.03613-33.12207,4.02441-1.62109,12.92188-1.53516,16.85742,.77832,2.11719,1.24512,5.08398,5.44824,5.39844,8.39746,.05762,.5332,.04688,1.24121-.32715,1.58496-1.99707,1.8418-9.68262,.30664-12.37695-1.57031-2.51953-2.07812-6.13574-2.28613-8.87695-.50977-1.24219,.69629-2.50391,1.35742-3.76465,2.01953-.9248,.48438-1.84961,.96875-2.76562,1.46582-1.20508,.65332-4.82959,2.61914-4.37842,6.64551-.03418,3.44043-1.28613,6.76367-3.53516,9.37109-.10352,.12012-.1958,.25098-.2749,.38867-.85596,1.49219-1.73047,2.97363-2.604,4.45605-1.1748,1.99121-2.38916,4.05078-3.5459,6.1123-1.17236,2.08984-.93262,3.64062-.52539,4.57422,.3916,.89746,1.30273,2.07324,3.4209,2.58398,.08984,.02148,.18018,.03809,.27148,.0498,.38086,.04785,.75732,.1377,1.12158,.26562,1.63867,.8584,1.97754,1.13184,1.71338,4.4873-.07666,.9707-.11523,1.45898-2.18213,1.77539-2.29248,.37598-4.5708,.94727-6.75635,1.69141-.32959,.11035-.64502,.28223-.99219,.54004-1.74072,1.29395-2.62061,3.36523-2.35352,5.53906,.27051,2.20312,1.70508,4.09961,3.75244,4.95215l.37744,.15332c.16113,.0625,.32861,.1084,.49951,.13672,11.82861,1.96582,22.28711-7.37695,27.51172-13.18164,2.75879-2.61035,5.75195-4.71191,8.91895-6.93652,1.85352-1.30176,3.77051-2.64746,5.61914-4.09473,.11035-.08691,.26953-.23926,.36328-.34277,.8418-.85449,1.9668-1.33008,3.16602-1.33887,.01172-.00098,.02344-.00098,.03418-.00098,1.1875,0,2.30566,.45898,3.15234,1.29297,.05469,.05273,.11133,.10352,.16992,.15234,1.72656,1.41504,6.87012,5.63086,12.66992,1.0752,.53516,.12305,1.36816,.41504,1.82031,.57227l.61133,.21191c2.92773,.98535,4.2793,3.47461,6.24219,7.4541,.23828,.48438,.47949,.97266,.72754,1.46289,.34473,.67969,.98047,1.16504,1.72656,1.31934,.74512,.15332,1.52246-.04199,2.10645-.53125,1.01367-.8457,2.00293-1.66699,2.97168-2.4707,2.79785-2.32129,5.43945-4.51367,8.02148-6.7959,.0332-.0293,.06543-.05957,.09668-.09082,1.22461-1.20508,1.80273-2.9375,1.5459-4.63672-.0293-.19531-.08203-.38672-.15723-.57031-.67871-1.66309-1.77246-2.25586-2.57031-2.45996-1.80762-.46387-3.21875,.67871-3.97461,1.29297l-.24805,.19824c-.86133,.69238-2.10547,.68359-2.95898-.02539-.06055-.0498-.12305-.09766-.18848-.1416-.64453-.43945-1.33887-.87305-2.04199-1.31152-1.89551-1.17969-4.03711-2.5127-4.67285-3.86035-1.1123-3.90723-1.59277-7.94531-1.42676-12.02734,.01172-.36523,.18066-.71094,.45703-.94629,8.1748-4.32812,17.37695-6.71094,26.62695-6.8916,.05176-.00098,.10449-.00293,.15625-.00781,1.21973-.09277,2.37012,.54883,2.94727,1.72461,1.18652,2.24316,2.40332,4.46973,3.61914,6.69531,1.44141,2.6377,2.92969,5.36328,4.33691,8.06445,1.12891,2.81152,3.66309,4.88086,6.58594,5.40332,6.38184,1.32715,12.50879,4.09668,17.78613,8.05957,4.86133,3.40527,10.79297,4.98242,16.70801,4.44336,.03809-.00293,.07617-.00781,.11426-.0127,12.21777-1.68848,24.89844,.6543,35.71191,6.5918,.21582,.11816,.44727,.2041,.68848,.25488,2.67188,.5625,5.08691,1.32812,7.42285,2.06836,6.3291,2.00488,12.30664,3.90234,20.79883,.90234,2.14941-.75879,4.46484-.70215,6.35156,.15723,2.11426,.96191,2.25391,2.06152,2.38965,4.6748,.07715,1.46973,.16309,3.13477,.8916,4.76465,1.17773,2.63477,3.5957,4.18066,5.3623,5.30957l42.97168,27.46094c2.94629,1.88281,6.61328,4.22656,10.875,4.56934,1.37305,.10938,2.67871,.00586,3.94043-.09668,1.39355-.11328,2.71191-.21875,3.875,.00488,.44043,.08496,.89746,.29297,1.29199,.56934-1.1543,.31836-2.24609,.98242-3.19336,1.97266-3,3.1377-3.84082,8.75-1.875,12.51172,1.35352,2.58887,3.30859,4.61914,5.2002,6.58301,1.8877,1.95996,3.66992,3.81152,4.63379,6.00586,.49707,1.13184,.7998,2.41309,1.12109,3.77051,.36035,1.52734,.7334,3.10742,1.4248,4.66992,1.2998,2.93359,3.47949,5.22266,5.40332,7.24219,.89941,.94531,2.07129,2.52832,3.31152,4.2041,3.16504,4.27539,6.75098,9.12012,10.60547,10.32129,2.17383,.67676,3.92871,.48535,5.2168-.56738,2.16016-1.76758,1.83203-4.95703,1.54199-7.77148-.08789-.8457-.16992-1.64551-.18555-2.33789-.03613-1.65137,.08301-2.00488,.45703-2.22949,.375-.22266,.95801-.18652,1.45703,.08887,1.5293,.8457,2.21191,2.77148,2.94434,5.2002,.2793,.9248,.47461,2.17285,.68164,3.49414,.64062,4.08984,1.71973,10.93652,8.01758,10.41016,2.01758-.16797,3.54004-1.5,4.7627-2.57129,.5127-.44922,1.46777-1.28516,1.7959-1.32129,.00098,.00098,.16016,.04102,.47266,.3252,.44141,.40137,.74023,1.01172,.8418,1.71875,1.33301,9.29395,2.08398,18.76953,2.23145,28.16211,.01465,.93262,.54785,1.78027,1.38184,2.19727l10.86328,5.43066c2.63965,1.32031,5.30078,2.73438,7.87402,4.10254,4.55078,2.41992,9.25684,4.92188,14.11621,7.0498,.32422,.1416,.66504,.20996,1.00195,.20996,.79199,0,1.56152-.37695,2.04199-1.05664,3.51758-4.97559,.22754-11.07617-1.17773-13.68066l-.10156-.18945c-1.11426-2.06445-2.16602-4.01465-2.28516-5.96973-.08789-1.44824,.63086-3.20801,1.84375-3.51953,.62598-.16016,1.49219-.00195,2.33398,.19629,6.27051,1.4668,12.0332,4.9668,16.22461,9.85547,.60156,.70117,1.23828,1.59961,1.91211,2.5498,2.54102,3.58398,6.01074,8.49121,11.52539,7.04492,.60547-.15918,1.21973-.39941,1.82812-.71289,5.49316-2.83984,6.69141-12.61035,6.80957-13.71484,.68066-6.3457-.91113-12.6582-2.31543-18.22852Zm-2.65527,17.69531c-.42871,3.99121-2.09277,8.75098-4.13379,9.80566-.28223,.14551-.55273,.25293-.80469,.31934h-.00195c-2.00684,.52734-3.82129-1.78223-6.17285-5.10059-.74219-1.04688-1.44336-2.03613-2.19531-2.91211-4.87793-5.68945-11.58398-9.7627-18.88184-11.4707-1.39258-.3252-3.04102-.60059-4.71582-.16992-3.91406,1.00391-5.80176,5.21387-5.59082,8.66602,.18457,3.05566,1.61426,5.7041,2.875,8.04004l.10156,.18848c1.22461,2.27148,2.27051,4.57715,2.14941,6.49219-3.86621-1.80469-7.67773-3.83105-11.38379-5.80273-2.60059-1.38184-5.28906-2.81152-7.98535-4.16016l-9.51074-4.75391c-.20508-9.10449-.96191-18.27148-2.25293-27.27246-.26562-1.85449-1.12793-3.52734-2.42676-4.70898-3.85742-3.50879-7.28223-.50781-8.92676,.93359-.56348,.49316-1.50586,1.31934-1.88379,1.35059-1.30176,.11133-1.8916-1.28223-2.66309-6.20215-.23438-1.49609-.45605-2.9082-.83398-4.16309-.79395-2.63184-1.88086-6.23438-5.31055-8.13184-2.06641-1.14453-4.53711-1.14648-6.44629-.00391-2.99316,1.79395-2.92383,4.93945-2.88672,6.62891,.01953,.89453,.11621,1.83301,.20996,2.74121,.0957,.93457,.24512,2.38086,.16992,3.17578-.12402-.02539-.2793-.06445-.46777-.12305-2.29492-.71484-5.63477-5.22754-8.07324-8.52246-1.33594-1.80469-2.59668-3.50781-3.70996-4.67676-1.72363-1.80957-3.50488-3.68066-4.45215-5.81934-.50391-1.13867-.80859-2.42871-1.13184-3.79492-.35742-1.51562-.72754-3.08301-1.4082-4.63184-1.32227-3.01074-3.50293-5.27441-5.61133-7.46387-1.72168-1.78809-3.34766-3.47656-4.36914-5.43066-1.08984-2.08496-.34082-5.27832,1.05762-6.74023,.88477-.92578,1.49512-.64258,1.82324-.4873,.60449,.2832,1.29492,.31152,1.91992,.08008,.62598-.22949,1.13281-.7002,1.41016-1.30566,.72266-1.58008,.65527-3.35254-.19043-4.99121-1.07812-2.0918-3.32812-3.74121-5.73242-4.20312-1.83008-.35059-3.55273-.21191-5.2207-.07812-1.11328,.08887-2.16602,.17285-3.13867,.0957-3.01758-.24219-5.97363-2.13184-8.58203-3.79785l-42.97168-27.46094c-1.65625-1.05859-2.96484-1.96191-3.49023-3.13672-.34766-.7793-.40332-1.85059-.46191-2.98438-.13965-2.6709-.34961-6.70801-5.3125-8.96582-3.09863-1.40918-6.67871-1.52344-10.08691-.32129-6.91504,2.44238-11.64062,.94238-17.62402-.9541-2.34961-.74414-4.77637-1.51367-7.54004-2.11621-11.66016-6.31152-25.28613-8.79395-38.41895-6.99316-4.71289,.41406-9.44922-.84766-13.26172-3.5166-5.79395-4.35156-12.60742-7.43262-19.77148-8.9209-1.32324-.2373-2.44238-1.16504-2.91992-2.4209-.03516-.09082-.07422-.17969-.11914-.26562-1.44824-2.7832-2.97266-5.57227-4.44531-8.26953-1.20605-2.20703-2.41211-4.41406-3.55273-6.56738-1.44141-2.94336-4.46875-4.67578-7.72852-4.44531-10.07422,.20801-20.09375,2.8252-28.98242,7.56934-.08984,.04785-.17676,.10156-.26074,.16016-1.6084,1.13184-2.60547,2.98047-2.66797,4.92383-.18848,4.65332,.37109,9.28027,1.66504,13.75293,.02539,.08887,.05566,.17578,.09082,.26074,1.18555,2.86816,4.11328,4.69141,6.69727,6.2998,.61328,.38184,1.21875,.75879,1.78418,1.14062,1.33301,1.06641,2.95703,1.60059,4.57812,1.60449-1.43848,1.2168-2.91406,2.44141-4.43555,3.70312-.18359,.15234-.36719,.30469-.55176,.45801-1.82617-3.60352-3.96582-7.07812-8.43359-8.58203l-.55566-.19238c-2.11328-.73828-4.50781-1.57715-6.2041-.08301-2.13477,1.87891-3.76758,1.72656-6.68848-.64746-1.77832-1.70703-4.10449-2.64355-6.57129-2.64355-.02344,0-.04785,0-.07227,.00098-2.53613,.01855-4.91211,1.02441-6.67773,2.81738-.0127,.01172-.02441,.02344-.03613,.03613-1.70605,1.32812-3.51758,2.59961-5.27051,3.83105-3.20312,2.24902-6.51465,4.57422-9.56152,7.47168-.04785,.0459-.09375,.09277-.13867,.14258-3.60352,4.0166-12.99121,13.14844-22.77637,11.7041l-.04199-.0166c-.57715-.24023-.68604-.78223-.70557-.94238-.0293-.23926-.00195-.56445,.27148-.83008,1.84961-.61328,3.75732-1.08301,5.65137-1.39453,3.95264-.60449,6.1001-2.73145,6.3833-6.32031,.35156-4.47363-.25098-7.15332-4.52588-9.38574-.08691-.0459-.17627-.08594-.26758-.12109-.57666-.21875-1.17139-.38672-1.77588-.50098,1.11377-1.98242,2.29346-3.98242,3.43506-5.91797,.84473-1.43262,1.68945-2.86523,2.51855-4.30664,2.96338-3.52539,4.59131-7.99121,4.58936-12.60156,0-.11914-.00879-.23828-.02539-.35547-.03906-.26855-.10352-.7168,1.78711-1.74219,.89648-.48633,1.7998-.95996,2.70312-1.43359,1.33008-.69727,2.65918-1.39453,3.96777-2.12988,.05664-.03223,.1123-.06641,.16602-.10254,.93652-.625,2.18262-.5498,3.03613,.17773,.05176,.04395,.10449,.08594,.16016,.125,3.44336,2.48438,14.10352,5.52637,18.75488,1.24023,1.05176-.96777,2.23535-2.75879,1.91113-5.79395-.50781-4.75977-4.53809-10.2373-7.83594-12.17676-5.40527-3.17676-16.04883-3.2041-21.25879-1.10645-16.79004,6.75879-28.2124,16.93848-39.42578,35.1377-1.64697,2.67285-4.22119,4.60645-7.19678,5.43066-8.00146,2.03125-15.45557,6.04297-21.48633,11.54004-2.81592,2.37793-4.69824,5.67773-5.3125,9.30762-.9126,3.36816,.88721,6.84668,4.16602,8.04688,4.00732,1.91113,6.10107,3.20215,6.22412,3.83887,.12207,.62988-1.33643,2.59863-4.2998,5.81445-1.78467,1.86133-3.81201,3.47656-6.05957,4.82227l-3.2749,2.03711c-6.48242,4.03809-13.18555,8.21387-19.97314,11.87793-5.89746,3.18457-12.1001,6.11328-18.09863,8.94434-2.32959,1.09961-4.65869,2.19922-6.97852,3.31641-1.5376,.53223-3.05078,1.17383-4.49951,1.90723-.05029,.02539-.1001,.05273-.14893,.08203-6.93799,4.12695-14.86328,6.61621-22.91895,7.19922-.05127,.00293-.10205,.00879-.15283,.01562-5.22021,.70215-10.29004,2.17773-15.06494,4.38574-1.50586,.69336-3.09033,1.34473-4.62305,1.97559-1.90186,.7832-3.86865,1.59277-5.7832,2.5166-.20752,.09961-.82324,.1709-1.27246,.22168-1.43311,.16406-5.23926,.59863-5.34229,4.7627-.05518,2.20801,1.76416,3.73145,3.36914,5.0752,.33398,.28027,.66211,.55273,.94434,.81641l.02783,.02637c-.07764,.10449-.19043,.24414-.35254,.42383-.05566,.0625-.10791,.12598-.15674,.19336-.4707,.6416-1.30859,.87207-2.10498,.53027-4.79639-1.90625-9.62451-1.8418-14.29541-1.78125-3.00244,.03906-5.83838,.07715-8.60254-.38867-.14014-.02441-.27783-.03516-.4248-.03516-2.16943,.00781-4.34473,.50195-6.30469,1.43066-4.21289,1.28906-8.39941,2.81738-12.44629,4.54395-.06982,.03027-.13867,.06348-.20557,.09961-5.15039,2.7793-11.30078,2.80762-16.47559,.08105-3.89062-2.45801-8.979-2.05273-12.43359,.99707l-1.11816,.92578c-3.88135,3.22852-7.5415,6.26855-11.68457,5.8877-4.33057-.48145-10.13379,1.20508-13.78906,4.00586-.02783,.02148-.05518,.04297-.08154,.06543-5.03711,4.20605-12.33203,4.60547-18.21338,.96289-4.52686-2.63574-10.05225-2.88477-14.79688-.67773-.76318,.29785-1.53955,.5625-2.31543,.82812-.96338,.3291-1.95898,.66992-2.9502,1.07324-.4834,.19922-1.68408-.05078-2.10303-.375,.3457-.81543,1.81152-2.42383,2.66553-2.90527,3.77344-1.96289,7.99512-2.69336,12.20557-2.11816,.03809,.00586,.07666,.00977,.11523,.01367,2.39941,.21582,4.81152,.56445,7.1709,1.03516,.03662,.00781,.07373,.01465,.11084,.01953,8.1543,1.25098,16.52344,.31836,24.20459-2.69531,4.05029-1.04395,7.74561-3.16309,10.71045-6.15332,2.29639-2.35938,5.22021-3.92969,8.45557-4.54297,.04443-.00781,.08887-.01758,.13281-.02832,3.7251-.91895,7.43555-2.06641,11.11914-3.44727,3.94482-1.65332,8.40723-1.19922,11.93848,1.20996,.03027,.02051,.06055,.04102,.09131,.05957,7.71533,4.78906,10.98486,4.28223,16.6167-2.52441,4.59424-5.26367,10.94385-8.6377,17.87891-9.50195,.07715-.00879,.15332-.02246,.22949-.03906,6.12744-1.35156,12.39795-1.73145,18.63818-1.12988,3.9209,.94043,7.9126-1.41016,8.97607-5.32324,.08203-.30371,.146-.61426,.18994-.92773,1.27002-6.46582,6.73535-11.29883,13.31348-11.76367,.07715-.00586,.15381-.01465,.23047-.02734,3.61426-.5957,6.66748-2.93262,8.1875-6.25879,3.54785-6.52734,7.28174-13.06836,11.09814-19.44141,.02344-.03809,.04541-.07715,.06641-.11719,1.63086-3.08984,3.68359-5.93652,6.10107-8.46094,3.71729-3.40723,5.89404-8.24023,5.98047-13.2832,.08984-1.50977,.2793-3.03613,.51807-4.96289,.12598-1.01367,.26367-2.12402,.40527-3.37988,.10352-.91797-.30811-1.81836-1.06982-2.3418-.76172-.52246-1.75-.58203-2.56934-.15625-2.27734,1.18652-4.49756,2.5293-6.65918,4.03516-2.69385,1.99512-5.87158,3.30371-9.18945,3.7832-.0498,.00781-.09961,.0166-.14893,.02637-2.65234,.55078-2.79102,.04883-3.06445-.95215-1.64209-6.00586-7.08887-7.03027-9.70605-7.52344-4.27832-.80566-6.68115,1.94238-8.27295,3.76172-.29395,.33496-.58545,.66992-.88867,.9834-.0415,.04297-.08154,.08691-.12012,.13281-.13916,.16602-.27734,.33301-.41455,.50195-.896-3.125-1.74854-6.08691-2.69482-9.01465-.64844-2.00586-1.44678-4.01953-3.42969-4.69629-1.96338-.66895-3.80518,.4209-5.52051,1.59668-.50195,.34375-.9248,.7207-1.29785,1.05371l-.05615,.0498c-1.31738-6.05469-6.56641-6.08984-10.11865-6.11426l-.22266-.00195c-6.28516-.70703-12.59814,.2168-18.39502,2.67871-.00195-.39941-.00391-.79785-.00635-1.19629-.02051-3.68555-.0415-7.49316,.10059-11.20605,.12207-.37402,.36914-.69336,.70068-.90527,1.22314-.44141,2.49365-.75098,3.77979-.92188,.09717-.01367,.19287-.03223,.2876-.05566,1.70215-.43359,3.08252-1.47461,3.78613-2.85449,.61035-1.19824,.68018-2.56152,.19971-3.85156-1.82959-6.00684-2.47607-12.22461-1.92041-18.48242,.00586-.06348,.00879-.12793,.00977-.19141,.03857-3.36035-1.58301-6.49414-4.3418-8.40332-4.0127-3.12988-6.06104-3.51855-10.17822,.27832-.05957,.05469-.1167,.11328-.17041,.17383-.99414,1.11426-2.4209,1.77246-3.82275,1.80566-3.51611-.04883-7.08447-.04785-10.53125-.04297-1.52246,.00195-3.0459,.00195-4.57178,0-.11377-.00977-.1875,.00488-.28027,.01562-1.99023,.22266-3.80176-1.1582-4.10156-3.05664-.96826-7.93066-4.05273-15.4707-8.88623-21.76074-.10303-.14062-.17432-.26074-.22217-.35645,.06982-.03027,.15869-.0625,.26904-.0957,4.35547-1.22656,7.38086-5.0127,7.63672-9.49805,1.03857-3.02246,2.48389-5.8877,4.29834-8.52246,.38867-.56348,.52881-1.26172,.38818-1.93164-.14062-.66895-.54932-1.25195-1.13135-1.6123-2.55273-1.5791-5.32764-2.72852-8.24756-3.41504-.2085-.04883-.42285-.08008-.63623-.06543-.63916,.00684-1.22607-.21387-1.68213-.64746s-.71582-1.01855-.73193-1.6499c-.00342-.1416,.00586-.28418,.02783-.42383,.00781-.04688,.01367-.09424,.01855-.1416,.51758-5.11768,1.47998-10.22607,2.87061-15.22559,.06885-.18311,.57617-.8584,2.07568-1.7793l2.22119-1.36621c5.26172-3.23926,10.70215-6.58838,16.17871-9.48633,5.35791-2.74023,9.4624-7.35107,11.56445-12.98828,1.47461-3.28662,4.46338-5.6377,8.00781-6.29639,.10693-.02002,.2124-.04688,.31543-.08008,2.56445-.83203,5.33447,.57617,6.16797,3.14258,.03369,.10352,.06396,.20801,.09082,.31348,.01416,.05762,.03076,.11426,.04932,.17041,.07715,.23389,.125,.63818,.17139,1.0293,.11279,.95312,.25244,2.13379,.99072,3.19678,1.12891,1.76611,2.86914,3.01123,4.90869,3.5083,.0835,.02051,.16797,.03662,.25293,.04834,5.95508,.81396,12.10791-.80762,16.88477-4.45312,.0498-.03809,.09814-.07764,.14502-.11963,.42578-.37842,.95996-.7373,1.52539-1.11719,.729-.48975,1.55518-1.04443,2.30225-1.75537,.0625-.05908,.12158-.12158,.17725-.18652,1.49268-1.74414,4.08252-2.00977,5.89551-.60498,.06104,.04688,.12402,.09131,.18945,.13281,8.80957,5.60059,16.54346,1.51562,23.36768-2.08936l1.06396-.56055c1.97168-1.0332,2.67676-3.50146,3.18311-5.73438,.64551-2.85107,1.20605-5.75049,1.74805-8.55518,.34326-1.77637,.68652-3.55371,1.05225-5.32568,.02148-.10352,.03613-.2085,.04443-.31396,.33545-4.37061,2.1792-8.51025,5.19775-11.68408,1.14648-.83496,1.93457-2.04639,2.23438-3.44385,.32275-1.50537,.04004-3.04541-.79639-4.33838-.13721-.21143-.28857-.41455-.45166-.60596-.50732-.71143-.95361-1.52783-1.42529-2.39014-.40479-.73926-.82275-1.50391-1.31055-2.25977-2.79004-4.31738-4.7085-5.01807-9.77832-3.56592-2.13867,.61182-4.26855,1.25781-6.39795,1.9043-2.33105,.70752-4.74121,1.43896-7.11328,2.10693-.03662,.01025-.07275,.021-.10889,.0332-4.77393,1.58252-10.00342,1.03418-14.30615-1.47998-7.16162-4.37158-15.69092-6.29395-24.03809-5.42188-4.20117,.11035-8.34424-1.55176-11.3291-4.53857-.16748-.16748-.35791-.31055-.56543-.42432-4.5708-2.50928-6.5249-8.03857-4.54492-12.86182,.06787-.16504,.11816-.33691,.14893-.51318,.11816-.6665,.19238-1.34521,.22119-2.021,.19287-.96582,.48828-1.98926,.80029-3.06836,.84375-2.9209,1.71582-5.94141,.85498-8.84375-.85742-2.89014-3.24023-4.92383-5.54443-6.89062-.90723-.77441-1.76416-1.50586-2.48096-2.25049-.03857-.03955-.07812-.07812-.11914-.11572-.50586-.45947-.94727-.98486-1.31299-1.56152-.3999-.75439-.87646-1.50391-1.3374-2.22949-.61865-.97363-1.77051-2.78662-1.70557-3.375,.01025-.04639,.02051-.08154,.0293-.10791,.43115-.14404,1.62598-.04443,2.35693,.0166,.87793,.07324,1.78662,.14893,2.68213,.07373,5.49658-.4668,11.06982-.67334,16.77197-.85986,.03418-.00098,.06836-.00293,.10254-.00537,2.70752-.19922,5.45801,.26221,7.8999,1.31543,6.14307,2.81738,7.5415,1.23145,11.03418-4.21045l.16406-.25635c.02588-.04004,.05029-.08057,.07373-.12207,.15088-.26758,.38184-.48633,.65576-.62402,5.21191-1.72021,10.78467-1.95459,16.12354-.6748,.10986,.02637,.26416,.15332,.37646,.16455-.0957,.10693-.18164,.22168-.25781,.34277-3.66211,5.84668-5.35986,9.38232-4.47705,12.4834,.85645,3.01123,3.64941,4.3833,7.87695,6.46045,.77588,.38135,1.61475,.79346,2.60254,1.29346,7.81494,3.59814,16.03564,6.37256,24.34375,8.22314,4.85693,1.271,8.7749-2.15137,11.63525-4.65039l.50342-.43945c.18799-.16309,.35059-.35303,.48242-.56445,1.04834-1.67871,1.24609-3.78223,.51562-5.66162-.61084-1.50684-1.39355-2.88184-2.1499-4.21094-.50732-.8916-.98682-1.73389-1.40332-2.59131-1.58545-3.26123-3.14844-6.6123-4.66016-9.85303l-1.76172-3.76709c-.42432-.85742-.3291-1.86377,.24951-2.62598,.04688-.06201,.09082-.12598,.13184-.19189,1.43359-2.30762,2.46973-3.9751,1.97168-5.87549-.47461-1.81201-2.07178-2.68945-3.9209-3.70557-1.63232-.89697-3.31543-1.66748-4.94336-2.4126-1.24316-.56934-2.41699-1.10693-3.57568-1.69775-.07959-.04102-.16113-.07715-.24463-.10889-1.5459-.59033-2.37354-2.23633-1.92529-3.82861,.03418-.12158,.05908-.24512,.07422-.37012,.95215-7.69043-.77588-15.54297-4.8667-22.12256-2.1416-3.98926-4.7749-7.71045-7.32178-11.31006-1.22021-1.72412-2.48193-3.50684-3.65674-5.27588-1.45117-2.18408-2.98535-4.54688-4.37402-7.02588-.62402-1.11328-.81982-1.61816-.87842-1.83984,.18457-.22852,.6333-.63135,1.29395-1.1665,4.16406-3.12061,9.75342-3.86377,14.58936-1.9375,.09766,.03857,.19775,.07129,.29932,.09766,5.01172,1.29492,10.17773,1.95312,15.35449,1.95605,6.95801,.3584,13.74316-2.2373,18.69922-7.104,5.68164-4.11035,10.10547-9.70117,12.79932-16.17969,.03223-.07812,.06055-.15771,.08496-.23877,1.74854-5.80371,8.52686-7.95459,13.80029-8.03271,1.29932-.01953,2.54443-.01367,3.75195-.00977,6.93018,.03027,12.90723,.04883,20.14648-4.33643,2.05762-1.24609,4.20752-2.38867,6.35938-3.38135,1.03467-.45947,2.18701-.51807,3.26074-.16699,4.3999,2.16504,9.45605,2.80859,14.2417,1.81494,1.34521-.26807,2.72168-.4209,4.09375-.4541,4.94971,.4082,9.66504-1.7002,12.67529-5.64551,2.41992-2.66162,4.50439-4.94434,5.5249-5.05127,.98242-.09473,3.25391,1.53027,6.39648,3.79004,1.00586,.72412,2.06055,1.21729,3.08008,1.69434,.95801,.44873,1.86426,.87256,2.50781,1.40527l.75586,.61719c2.65137,2.14941,4.14062,3.50439,3.93457,6.35254-.01172,.16357-.00781,.32764,.0127,.49023,.35352,2.83496,1.4502,5.53027,3.17578,7.80469,1.11035,1.82373,2.4873,2.41504,3.45996,2.5874,1.56152,.27637,3.20801-.28809,4.88281-1.68359,.66211-.55225,1.24219-1.13379,1.80371-1.69629,.54688-.54785,1.0625-1.06543,1.58496-1.48535,2.36816-1.88916,5.65918-2.12061,8.26367-.60254,.83008,.82568,1.39453,1.90283,1.59863,3.05811,.00879,.05322,.02051,.10596,.0332,.1582,.14648,.60156,.15918,1.39209,.17285,2.22852,.03516,2.14307,.08203,5.06299,2.71094,7.02344,3.5293,3.27051,7.87793,5.52637,12.58691,6.52783,.09668,.02051,.19531,.03564,.29492,.04443,2.03418,.18359,4.12598,.46045,6.14941,.72852,3.51172,.46484,7.14355,.9458,10.79688,.99316,6.42871,.39209,12.59766,2.57324,17.84375,6.30908,.04492,.03174,.09082,.06201,.1377,.09131,2.39648,1.47803,4.86133,2.90039,7.24512,4.27539,1.88574,1.08838,3.77246,2.17627,5.6377,3.29834,2.40137,1.71826,5.58496,1.72998,8,.0293,1.88379-1.11279,4.23242-1.00098,6.00391,.29248,.15332,.1123,.31934,.20703,.49512,.28125,2.72168,1.15967,5.38086,2.53369,7.9043,4.08447,4.85645,3.64355,11.55078,3.98877,16.75391,.86621,5.33496-2.38721,11.3584-2.21143,16.55078,.48145,.07129,.03662,.14453,.07031,.21875,.10059,7.08984,2.8501,13.94238,6.39111,20.36719,10.52393,.06543,.04199,.13281,.08105,.20215,.11719,.84473,.4375,1.37207,1.33496,1.34375,2.37207,.00488,.81592,.01758,1.63135,.03027,2.44727,.0166,1.06152,.0332,2.12305,.03125,3.18457-.1416,69.33252-.59961,139.82764-1.04297,208.00244-.14551,22.27734-.29004,44.55469-.4248,66.83203l-.06738,11.20996c-.04004,6.54395,.35938,13.90625,5.63086,18.45703,6.62891,5.72266,16.13184,2.79199,19.90918,1.26758l.86816-.35547c2.24902-.92871,4.37207-1.80566,6.16699-1.35547,2.14453,.53516,3.75195,2.97363,5.30664,5.33301l.08887,.13379c9.19727,13.94727,21.89258,25.3584,36.71484,32.99902,1.86328,.95996,3.8584,1.4668,5.77148,1.4668h.0459c7.56738-.03125,10.28906-6.66992,12.69141-12.52637,1.60254-3.91016,3.26074-7.95312,6.16016-9.89258,5.11523-3.42188,12.89746,.83496,17.17383,6.74316,1.37402,1.89844,2.59473,3.92578,3.8877,6.07227,3.04199,5.05176,6.18848,10.27539,11.42383,13.61719,1.81348,1.1582,3.73145,1.98535,5.58691,2.78613,1.56348,.6748,3.03906,1.31152,4.39258,2.11133,4.79395,2.83398,8.25977,7.92871,11.31738,12.42383l18.17676,26.72363c8.71875,12.81836,18.44336,25.62891,32.93066,29.15039,2.03125,.49316,4.15039,.81152,6.2002,1.11914,5.2207,.7832,10.15234,1.52344,12.99707,4.94629,1.75488,2.10938,2.5332,5.19824,3.2207,7.92383,1.36523,5.41602,2.77734,11.01562,2.19238,16.47266Zm-455.62207-89.08691c-11.62256-2.99023-18.21143-4.20605-28.96533,3.27441-7.01611,3.81445-7.38916,6.04492-5.9502,13.78223,.22949,1.23242,.48486,2.45996,.74023,3.68652,.25391,1.21875,.50781,2.4375,.7373,3.67676,.58936,3.07227,2.89697,5.53809,5.90869,6.33887,1.38525,.5625,2.85547,.83984,4.31738,.83984,2.00049,0,3.98535-.51953,5.7124-1.53516,5.13379-2.7998,10.30811-5.56641,15.13477-8.13965,.88672-.47266,2.19189-1.01758,3.57373-1.5957,3.82422-1.59863,8.1582-3.41016,10.18408-6.1416,1.25391-1.69141,1.57715-3.65918,.91064-5.54004-2.01123-5.67773-12.20166-8.62109-12.30371-8.64648Zm7.37646,11.20801c-1.20605,1.62695-5.18848,3.29199-8.09619,4.50684-1.49268,.62402-2.90283,1.21387-3.99707,1.79688-4.8374,2.5791-10.02441,5.35254-15.24609,8.20117-1.75488,1.03125-3.92041,1.1709-5.79297,.36816-.13135-.05566-.26709-.10059-.40625-.13379-1.2041-.28516-2.13232-1.25488-2.36279-2.45312-.23291-1.25977-.49414-2.51465-.75537-3.76953-.24805-1.19238-.49658-2.38574-.71924-3.58203q-1.12012-6.02148,3.5376-8.53809c.08447-.04492,.16602-.0957,.24463-.15039,4.97656-3.48145,8.67969-4.78418,12.82861-4.78418,3.42334,0,7.1499,.8877,12.14307,2.17188h.00049c2.66504,.68555,8.10254,3.4043,8.83594,5.47461,.06787,.19141,.14453,.4082-.21436,.8916Zm-241.19922-154.51953c-1.26904,.93262-1.63428,2.07227-1.71729,2.86426-.14062,1.33984,.40869,2.71484,1.63281,4.08789,2.54785,2.85742,5.34912,5.52148,8.3252,7.91797,3.02783,2.44043,5.89258,3.66211,8.56738,3.66211,1.76123,0,3.43945-.5293,5.02734-1.58984,2.19775-1.46875,4.74121-4.68262,5.3501-7.98535,.34814-1.88867,.01465-3.61719-.96631-4.99902-3.05371-4.29395-10.32471-5.12305-14.23047-5.56738-.08496-.01172-8.57666-.89746-11.98877,1.60938Zm2.9585,4.03125l-1.47803-2.0166,1.48047,2.01465-.00244,.00195Zm19.18506,2.82324c.18164,.25586,.22363,.6582,.12451,1.19531-.3208,1.74121-1.94922,3.89258-3.20996,4.73438-1.47021,.98145-3.5332,1.53516-7.68066-1.80762-2.73486-2.20215-5.31006-4.64746-7.65576-7.26953,1.77393-.49512,5.57861-.59375,7.7002-.34863,2.68164,.30566,8.96143,1.02148,10.72168,3.49609Zm-40.3667-128.71191c.06543,.02539,.13135,.04785,.19824,.06787,8.33789,2.47119,15.03516,8.49365,18.37354,16.52295,.34619,.83252,1.33838,2.26807,4.09473,2.52588,.26758,.0249,.55518,.0376,.85791,.0376,2.55225,0,6.16748-.91748,7.69238-3.24463,1.58154-2.4126-.15137-6.38184-4.1333-13.32959-.23535-.41064-.42773-.74609-.55518-.979-.01953-.03613-.04053-.07227-.06201-.10742-1.31445-2.14746-3.13574-3.99072-5.20215-5.28809-3.69678-2.48486-7.53174-4.85352-11.24023-7.14355-1.2168-.75146-2.43359-1.50293-3.64697-2.25928-.77441-.5874-1.69238-.93018-2.66699-.99463-1.3252-.0874-2.59521,.34619-3.59082,1.21826-.97314,.85352-1.56445,2.02783-1.6709,3.31494-.04297,.30713-.20508,.90137-.34912,1.42822-.64648,2.36523-1.84961,6.76758,1.90088,8.23047Zm2.92236-6.9126c.21582-.79053,.41992-1.5376,.49756-2.20996,.00488-.04053-.06592-.04883-.06299-.08984,.08301,.06787,.17041,.13037,.26123,.1875,1.25684,.78369,2.51807,1.5625,3.77881,2.34082,3.66797,2.26562,7.46094,4.60791,11.14209,7.08105,1.46582,.92139,2.72119,2.18604,3.6333,3.65918,.13818,.25098,.33545,.5957,.57324,1.01025,2.90332,5.06543,3.8252,7.32422,4.01953,8.31543-.83887,.52393-2.83154,.9248-3.80566,.75098-3.88525-8.9126-11.32959-15.646-20.57617-18.62256,.06543-.68945,.37305-1.81641,.53906-2.42285Zm-53.52588,327.82959c-1.92725-2.36816-4.22559-4.37598-6.83105-5.96777-.22021-.13379-.45947-.2334-.70996-.29492-2.34961-.57227-4.84375-.12402-6.84326,1.23242-.59424,.40332-.98682,1.04297-1.07666,1.75488-.31104,2.45508-1.81885,4.34668-3.72803,6.74219-.86914,1.09082-1.76758,2.21777-2.63379,3.50684-.51172,.76172-.56494,1.74219-.13916,2.55469,.42627,.81348,1.2627,1.32715,2.18018,1.33984,.17676,.00195,.35254,.00293,.5293,.00293,6.07324,0,12.14062-1.4209,17.58057-4.12305,.25391-.12598,.48438-.29492,.68164-.49805,1.33545-1.37598,1.89453-3.31738,1.49609-5.19141-.08252-.3877-.25586-.75098-.50586-1.05859Zm-4.4209,2.52441c-3.16406,1.50488-6.55859,2.51953-10.02686,3.00879,1.5708-2.0127,3.05176-4.15137,3.70166-6.8418,.53467-.18652,1.11133-.24219,1.67529-.16309,1.73486,1.10742,3.2959,2.44531,4.65283,3.98926l-.00293,.00684Zm-32.96973-2.75098c-.03711-.01855-.07422-.03809-.1123-.05566-1.25244-.58301-2.57227-1.02148-3.92285-1.30371-.11768-.02441-.2373-.04102-.35791-.04785-5.64941-.35449-10.104,1.56348-14.03027,3.25-1.60059,.6875-3.11279,1.33691-4.64062,1.82031-1.20068,.37793-4.4248,2.93262-3.7002,5.50879,.00928,.0332,1.05615,3.38086,3.05518,4.47949,.0459,.02441,.09277,.04883,.14014,.07129,1.61035,.75684,2.93164,1.13867,3.94482,1.13867,.27393,0,.52588-.02832,.75439-.08398,5.75293-1.42383,11.54102-2.91113,17.23242-4.43066,1.77441-.49609,2.31689-2.37012,2.8418-4.18359,.0708-.24512,.12891-.45898,.16113-.55078,.06787-.15625,.11914-.31934,.15381-.48633,.13428-.65039,.69336-3.95605-1.51953-5.12598Zm-3.59863,4.77344c-.07178,.24902-.19043,.6582-.30518,1.00293-5.21973,1.38672-10.53857,2.75293-15.8252,4.0625-.33643-.08496-.93359-.30078-1.43457-.5166-.12744-.16504-.28809-.43457-.43262-.70801,.10303-.10156,.20703-.19629,.29248-.26562,1.67676-.54688,3.29053-1.24023,4.85352-1.91113,3.69434-1.58789,7.17969-3.08594,11.56885-2.86426,.51221,.11426,1.01855,.25977,1.51416,.43555-.07275,.21777-.14453,.46582-.23145,.76465Zm27.10742-239.08301c.17725,.08984,.36475,.1582,.55811,.2041,.39307,.09229,.79639,.14258,1.1958,.14844,.03076,.00049,.06152,.00098,.09229,.00098,3.01709,0,5.50244-2.40283,5.60498-5.41699,.03711-.45557,.02881-.9165-.0249-1.37256-.01514-.12939-.04053-.25732-.07568-.3833-1.46533-5.2207-5.09814-9.56787-9.97217-11.93896-1.12988-.60938-2.52295-.54297-3.84131,.19043-1.43945,.79883-3.01074,2.57666-3.05908,4.59326-.00244,.11719,.00293,.23486,.0166,.35156,.68896,5.86084,4.24219,10.95361,9.50537,13.62305Zm-4.29395-13.99854c3.26367,1.7583,5.70361,4.74854,6.7666,8.31104,.00293,.08203,.00049,.16357-.00732,.24365-.00635,.06592-.00977,.13135-.01074,.19727-.00537,.31348-.24658,.56836-.55371,.59717-3.44189-1.88721-5.79443-5.25293-6.3833-9.13281,.0498-.07031,.1167-.14648,.18848-.21631Zm338.78076,178.42236c-.05322-.08301-.09619-.17871-.14307-.27148-.271-.53613-.72412-1.43359-1.69482-1.97852l-.00195-.00098c-5.77783-3.2334-13.05469-1.64453-16.95898,3.69434-1.30225,1.66016-.35156,4.32812,.60205,5.38086,1.00049,1.05566,2.3418,1.77051,3.77686,2.01172,.13721,.02344,.27637,.03516,.41553,.03516h.03906c4.76807-.0752,9.45459-1.73145,13.21143-4.66797,.75488-.52344,1.13818-1.37598,1.14111-2.53809l-.00488-.03418c.06348-.56934-.07422-1.14844-.38232-1.63086Zm-13.77148,3.86523c-.14746-.04199-.28809-.10156-.41455-.17383,2.16846-2.35938,5.52539-3.20508,8.5332-2.18848-2.45459,1.44727-5.26318,2.27051-8.11865,2.3623Z"/></svg>