<?xml version="1.0" encoding="UTF-8"?><svg id="a" xmlns="http://www.w3.org/2000/svg" viewBox="0 0 584.56937 636.04613"><defs><style>.b{fill:#010101;}</style></defs><path class="b" d="M584.53222,405.4348c.03906-139.62207,.09863-350.62158-.13086-374.65137-.04785-4.98438-.04785-12.03955,0-17.55664l.00098-.17383-.02246-.17236C582.66894-.18044,576.0078-.09401,566.75683,.02074c-1.26855,.01562-2.63477,.03516-4.09277,.02393-.19238-.01514-21.19727,.03809-64.91113,.12109C377.01073,.39378,125.77538,.86546,111.30614,.84544c-8.02979-.02051-9.36621,1.27246-9.54932,9.16553-.10889,4.70264-.22412,9.40527-.33936,14.10742-.43701,17.79883-.88916,36.20361-.96094,54.33936,.03027,7.67871-1.87598,15.3125-5.51855,22.09033l-.11279,.21289c-2.49805,4.71387-3.75146,7.08008-5.36377,8.13135-1.62793,1.06201-4.38086,1.30225-9.86621,1.78076l-.18652,.01611c-3.81299,.3335-5.23047-.03467-6.20898-1.64062-3.8501-7.7041-12.38867-11.86426-20.82617-10.15137-.48682,.04248-1.50049-.38281-2.31641-.72656-.74463-.3125-1.5127-.63574-2.34619-.86182-2.12988-.70752-4.4248-.89795-6.63965-.55273-3.7334,.58154-7.01709,2.58252-9.24512,5.63379-2.22852,3.05127-3.13525,6.78809-2.56494,10.43408,.38037,3.16895,.7749,6.33594,1.16943,9.50293,.75049,6.02441,1.52686,12.25391,2.18555,18.38086,.28174,2.61816,.44482,5.32422,.60205,7.94043,.17969,2.97852,.36523,6.05859,.72705,9.10352,.5625,4.73389,1.229,9.5249,1.87354,14.15771,1.01025,7.26025,2.05518,14.76758,2.71045,22.15381l.03223,.23389c1.74512,9.42725,.34473,19.34131-3.91699,27.86279-4.51514,8.5166-2.70508,19.0127,4.35693,25.4834,9.41064,9.05859,16.21484,20.50391,19.6626,33.04492,.57373,2.28516,1.54736,4.42432,2.89404,6.35938,.17432,.25,.35205,.5127,.53369,.78125,1.39404,2.05859,3.12842,4.62061,5.71777,5.31494,5.78076,1.54785,6.51807,5.31299,7.32422,11.83398l.19043,1.4917c.32471,1.90967-.48926,3.86377-2.07471,4.97754l-.24072,.19238c-5.2876,4.78955-10.92822,9.29932-16.7666,13.40381-5.25244,3.09082-9.60742,7.52734-12.56885,12.78809-4.854,8.16797-7.16406,17.50098-6.67725,27.04395,.40527,5.56152,.4834,11.20312,.2334,16.75-.12402,2.33789-.90674,4.58105-2.26318,6.4873l-.09131,.13672c-3.03467,4.91992-6.92236,9.16602-11.55664,12.62207-9.7085,5.56543-8.7627,13.30273-7.11182,20.11328,.34717,1.45703,.58252,2.95312,.70068,4.45703,.30908,3.77051,.57617,7.54297,.84277,11.31641l.40088,5.60547,1.06299,.6748c4.0249,2.55273,8.26562,2.29785,12.00781,2.07031,1.94434-.11621,3.78174-.22852,5.5,.0293,2.51514,.37598,3.11035,.60352,3.146,4.28223,.17969,7.70215-1.84326,15.25195-5.85059,21.83301l-.11914,.21875c-1.23486,2.57617-3.6626,4.33984-6.49414,4.71875l-.14258,.02246c-10.24951,1.98047-19.42969,8.08887-25.21631,16.77148-.5498,.63184-.99854,1.33887-1.33545,2.10352-.89404,2.02832-.94482,4.28418-.14258,6.35156,.80225,2.06641,2.36133,3.69727,4.41406,4.60156,1.58154,.67773,3.22412,1.2373,4.88281,1.66406,4.68896,1.49805,9.44922,2.97168,14.05371,4.39746,9.51855,2.94629,19.36182,5.99316,28.92236,9.37207,60.40186,21.34277,121.7959,43.21191,181.16895,64.36035,22.3374,7.95703,44.6665,15.91016,66.98438,23.85156,8.66797,3.08398,17.4502,6.33301,25.94238,9.47461,10.64941,3.94043,21.66113,8.01465,32.62109,11.82617,5.99121,1.96191,12.21973,3.15918,18.48047,3.55859,23.18359,1.7627,46.74707,1.56348,69.53223,1.37402,8.51367-.07227,17.31641-.14746,25.96875-.11621,7.52441,.02539,15.04883,.06738,22.57324,.1084,12.02637,.06641,24.25586,.13379,36.53906,.13379,12.36719,0,24.79004-.06836,37.11035-.27441,14.55566-.24316,14.58789-7.33789,14.64062-19.08984,.1416-27.18066,.18164-54.70117,.11914-81.7959-.02246-10.21094-.00781-62.83301,.01172-129.45117Zm-5.01172,129.46289c.0625,27.08203,.02246,54.58984-.11914,81.75977-.05469,12.09473-.0625,13.95312-9.72461,14.11426-24.50098,.41113-49.42871,.27441-73.53809,.14062-7.52734-.04102-15.05566-.08301-22.58301-.1084-1.35449-.00488-2.71191-.00684-4.07129-.00684-7.35352,0-14.75879,.0625-21.95703,.12305-22.68652,.18848-46.13867,.38672-69.1416-1.3623-5.87109-.37402-11.68262-1.49121-17.22949-3.30762-10.87012-3.78125-21.85938-7.84668-32.48535-11.77734-8.50684-3.14746-17.30371-6.40234-26.00195-9.49707-22.31689-7.94043-44.64551-15.89453-66.98242-23.85059-59.37598-21.15039-120.77295-43.01953-181.18066-64.36523-9.65381-3.41113-19.54492-6.47266-29.10986-9.43359-4.6167-1.42969-9.39062-2.90723-14.08057-4.40625l-.14404-.04199c-1.43359-.36523-2.854-.84668-4.19775-1.42285-.80664-.35547-1.42627-1.00391-1.74561-1.8252-.31885-.82227-.29883-1.71875,.05713-2.52637,.14502-.3291,.34326-.63281,.58838-.89941l.24365-.31348c5.03125-7.62891,13.05713-13.00391,22.02686-14.75488,4.43213-.61914,8.23438-3.37207,10.20605-7.38574,4.46436-7.37598,6.71729-15.82617,6.51709-24.41309-.04688-4.83105-1.32471-8.23438-7.40625-9.14453-2.23584-.33398-4.4248-.20312-6.54053-.07422-2.97266,.17773-5.59082,.33691-7.9707-.73242l-.2124-2.98047c-.26807-3.79199-.53613-7.58398-.84619-11.36426-.1377-1.75195-.41357-3.50684-.82275-5.22461-1.72314-7.10938-1.43701-11.11816,4.84961-14.6709l.25781-.16797c5.17871-3.83691,9.52246-8.55859,12.91309-14.03516,1.87744-2.66602,2.96094-5.79395,3.13477-9.07227,.25977-5.76172,.17871-11.60254-.2373-17.30371-.43311-8.50195,1.63623-16.86328,6.01416-24.23145,2.57373-4.56934,6.32764-8.38281,10.85596-11.0293l.17529-.1123c5.99756-4.21094,11.79297-8.83691,17.22705-13.75195,3.06641-2.23242,4.63232-6.06299,4.00879-9.71582l-.17139-1.36133c-.74658-6.03955-1.67529-13.55566-10.99268-16.05029-.78809-.21143-2.0918-2.1377-2.87109-3.28857-.19482-.28711-.38525-.56836-.57129-.83545-.99902-1.43555-1.72168-3.02344-2.16162-4.77344-3.7002-13.46143-10.97266-25.69434-21.0752-35.41797-5.42871-4.97412-6.81104-12.9917-3.33496-19.5498,4.75439-9.50488,6.31934-20.48975,4.41016-30.94434-.66699-7.47168-1.71484-15.00146-2.72803-22.28418-.64111-4.60889-1.30469-9.37451-1.86133-14.05859-.34473-2.90088-.52588-5.90674-.70068-8.81396-.16113-2.67432-.32764-5.43945-.62158-8.17432-.66357-6.16943-1.44238-12.41992-2.1958-18.46484-.39355-3.15967-.78711-6.31934-1.17871-9.56787-.37646-2.41357,.20996-4.8291,1.65039-6.80225,1.44092-1.97266,3.56348-3.26611,5.97754-3.64209,1.45166-.22705,2.95361-.09668,4.3457,.375l.16992,.05078c.52344,.13721,1.12549,.39014,1.7627,.65771,1.48828,.625,3.17676,1.33252,5.03369,1.05762l.1416-.02539c6.27246-1.30859,12.63379,1.79248,15.4668,7.5415l.08789,.16309c2.86426,4.86426,7.95508,4.41797,10.99414,4.15381l.18604-.0166c12.67871-1.10596,13.39697-1.5752,19.21338-12.55225l.10596-.19971c4.02881-7.49561,6.14062-15.95508,6.10742-24.44434,.07129-18.06445,.52295-36.44287,.95898-54.21631,.11572-4.70508,.23145-9.40967,.34033-14.11475,.02979-1.29883,.0791-3.43213,.32129-4.04443,.64014-.24268,2.86475-.2373,4.22119-.23682,14.4751,.01172,265.71826-.45166,386.46338-.67969,38.49414-.07275,64.03516-.12109,64.85449-.12109h.01562c1.49707,.00977,2.89062-.00781,4.18848-.02441,9.21094-.11719,11.43848-.14502,12.58008,8.33936-.04688,5.51758-.04688,12.51318,.00098,17.47168,.22949,24.00537,.16992,234.98975,.13086,374.60254-.01953,66.62598-.03418,119.25-.01172,129.46387Z"/></svg>