<?xml version="1.0" encoding="UTF-8"?><svg id="a" xmlns="http://www.w3.org/2000/svg" viewBox="0 0 697.23482 582.2245"><defs><style>.b{fill:#010101;}</style></defs><path class="b" d="M696.46672,88.92421l-.00195-.00244c-.18652-.34814-.40918-.67822-.66016-.98096-3.19141-3.8501-10.4375-3.11182-16.25977-2.521-1.31055,.1333-2.44141,.24854-3.26855,.27588-2.01953,.06689-4.04004,.14502-6.06055,.22314-11.70312,.45166-23.80762,.91846-35.52246-.86084-1.67676-.25488-3.72559-.40576-5.89551-.56592-4.99316-.36865-11.20703-.82764-14.16113-2.73926-4.38477-2.83691-3.80664-9.68018,1.76855-20.92139,3.46191-6.97949,9.09961-12.93994,15.84375-16.76611,2.26855-1.24268,4.40234-2.72803,6.34375-4.41602,7.55176-5.27051,10.66504-14.93555,7.61328-23.61914-2.01367-9.9624-11.09863-16.79785-21.24219-15.96094-5.70508,.07764-11.49414,.27783-17.09277,.47119-7.36426,.25488-14.98145,.53369-22.48242,.50537-63.15918-.10352-126.31934-.24121-189.47949-.37939C271.79778,.3954,143.46087,.11512,17.24065,.11512h-.06885C10.42229,.11512,5.77434,1.77577,2.96575,5.19081-1.65779,10.8119,.0888,19.61903,1.77776,28.13612c.60596,3.05518,1.23242,6.21436,1.52344,9.06982,1.87207,18.35986,3.40723,37.87012,4.83203,61.3999,2.25732,37.27393,3.49756,76.73291,3.79053,120.63232,.44922,67.30811-1.45459,135.7373-3.29541,201.91406-.39355,14.14355-.78711,28.28613-1.15869,42.42969-.01465,.54688-.0376,1.09473-.06055,1.64258-.05176,1.24121-.10547,2.52148-.06494,3.8252-.37598,3.45703,.2583,6.91797,1.83838,10.02148,2.1626,4.24609,5.84961,7.39648,10.38135,8.87012,4.48926,1.45996,9.27686,1.10059,13.49561-1.00879,9.46387-3.65039,20.16357-3.30859,29.37646,.94238l.43066,.15234c6.11523,1.55664,10.29883,7.0498,10.17432,13.35742l-.00293,.13574,.01221,.13574c.23633,2.65332,.41895,4.86328,.44385,7.11719,.10303,9.33789,.18457,18.67578,.26611,28.01367,.05664,6.49512,.11279,12.99023,.17676,19.48535,.18359,18.87695,2.34521,21.07617,21.07129,21.38867,47.58691,0,148.31494,1.59375,229.25146,2.875,51.83594,.82031,96.60254,1.52832,110.1377,1.52832,6.09277,0,11.67578,.04492,17.0752,.08789,4.66309,.03809,8.99902,.07227,13.03125,.07227,11.98828,0,21.27051-.30762,28.35449-1.76953,10.70703-2.20996,15.99316-7.08887,17.13867-15.82031,.55078-4.19141,.61133-7.95605,.1875-11.50391-.67578-11.8457-3.97168-23.64258-9.53418-34.12207l-.12598-.23828-.32422-.38379c-2.73535-3.34766-2.2373-8.2959,1.11035-11.03125l.09961-.08594c6.03711-5.49023,3.82617-10.42773,1.93457-12.91211-3.72754-5.33105-4.36914-12.31348-1.67188-18.23535l.14258-.40234c2.18262-8.3291,3.86035-16.87305,4.98926-25.39355,3.05957-17.47266,6.62402-31.46094,21.85742-39.25977,.13965-.06152,.27734-.125,.40918-.18945,2.53809-1.23926,4.44238-3.39258,5.36133-6.06445s.74219-5.54102-.51953-8.12402c-2.64258-5.14746-1.38281-11.3291,3.0625-15.03125l.29688-.29102c8.44824-9.83203,15.68457-18.66602,22.13184-27.02246,3.35742-4.41992,8.18262-7.55566,13.64258-8.84473l1.12695-.28711c3.56641-.90039,7.60938-1.91992,9.74609-4.87988,2.46094-3.69824,3.04883-8.40723,1.57324-12.59668l-.21289-.45312c-6.37012-10.6543-1.3291-18.39062,4.50684-27.34961,.67871-1.04102,1.35742-2.08301,2.01855-3.13184,2.24707-3.00098,4.27246-6.20801,6.01953-9.53271l.14648-.33643c2.96289-8.4541,10.22949-14.84473,18.98633-16.70898,.71387-.06494,1.42285-.19482,2.1084-.38574,3.05762-.84912,5.60156-2.83887,7.16309-5.60156,1.51465-2.6792,1.92871-5.7749,1.17773-8.74805-.14844-2.84424-.11035-5.72461,.11133-8.56543l.0166-.21289-.01953-.2124c-.41797-4.52588,2.30273-8.69043,6.61426-10.12793l.90625-.37646c4.11133-1.74609,9.22656-3.91846,10.98535-7.84424,.52637-1.17529,1.06738-2.35205,1.6084-3.53076,5.48047-11.93604,11.69141-25.46484,3.48828-40.32812-1.9248-3.64307-3.57227-7.47266-4.89551-11.38184l-.10547-.26221c-.05176-.10889-.09961-.21973-.14258-.33496-.7959-2.13672,.29395-4.52344,2.43066-5.31934l.2334-.10059c2.57422-1.27051,5.1543-2.61133,7.65039-3.90771,4.41113-2.29199,8.97168-4.66211,13.60254-6.6875,5.7168-2.64209,9.82129-7.89746,11.00293-14.07715,2.45215-8.21338,5.25488-16.49219,7.96582-24.50049,1.5-4.42969,3.0498-9.00977,4.52734-13.53662,.22461-.68848,.6582-1.6748,1.11719-2.71924,1.74219-3.96484,3.91016-8.89893,1.96191-12.53711Zm-6.54004,10.52539c-.50977,1.16064-.99121,2.25684-1.29297,3.18018-1.46875,4.50049-3.01465,9.06738-4.50977,13.48389-2.73828,8.09131-5.57031,16.45801-8.05762,24.7998l-.06348,.26221c-.85352,4.64404-3.92285,8.59912-8.16211,10.55908-4.73633,2.07178-9.37305,4.48047-13.85742,6.81055-2.43848,1.26709-4.95898,2.57666-7.45312,3.80908-4.63379,1.80566-6.9834,7.02393-5.24219,11.69873,.07324,.19727,.1543,.3916,.24121,.5835,1.40137,4.11719,3.13965,8.15039,5.19043,12.02832,7.00488,12.69385,1.83691,23.94971-3.63379,35.86572-.54785,1.19336-1.09473,2.38379-1.62695,3.57324-.95703,2.13477-5.24512,3.95605-8.37695,5.28564l-.63281,.26904c-6.39941,2.18311-10.4541,8.34717-9.93066,15.07812-.23242,3.08057-.2627,6.20215-.08984,9.28125l.01465,.26953,.07227,.25977c.49219,1.771,.26562,3.62793-.63867,5.22803s-2.37793,2.75195-4.15039,3.24463c-.42871,.11963-.87305,.19727-1.32031,.23145l-.31738,.04443c-10.46777,2.16553-19.17676,9.74463-22.77246,19.80322-1.62109,3.06348-3.49512,6.01758-5.57129,8.78271l-.11719,.16992c-.66406,1.05469-1.34766,2.10449-2.03027,3.15137-5.8623,8.99902-12.50293,19.19141-4.74707,32.41113,.86133,2.66016,.46094,5.6123-1.03809,7.86816-1.01562,1.40625-4.25781,2.22363-6.8623,2.88086-.39746,.10059-.78809,.19922-1.10938,.2832-6.5293,1.54102-12.36035,5.33105-16.40625,10.65723-6.34863,8.22852-13.48926,16.94824-21.82422,26.65137-6.12305,5.22559-7.83203,13.83496-4.16797,20.97168,.65332,1.33887,.74609,2.85156,.26172,4.25977s-1.48828,2.54395-2.83398,3.2002c-.08398,.04199-.16992,.08105-.25684,.11816l-.15234,.07129c-18.74902,9.55273-21.98828,28.06543-24.59082,42.94043l-.01562,.10352c-1.09277,8.26367-2.71484,16.5498-4.82324,24.63184-3.3291,7.49902-2.47461,16.2998,2.25098,23.02051l.06348,.08691c1.39844,1.81738,1.67578,3.48633-1.25488,6.1709-5.43164,4.48828-6.22656,12.55664-1.75781,18.02637l.02246,.02637c5.16504,9.81152,8.2207,20.83887,8.8418,31.9082l.01465,.16211c.38281,3.15039,.32715,6.5293-.17188,10.33105-1.78418,13.58398-17.99805,13.45215-53.52734,13.16797-5.40918-.04297-11.00293-.08789-17.11523-.08789-13.49512,0-58.24414-.70801-110.05859-1.52832-80.9541-1.28125-181.7041-2.875-229.28906-2.875q-15.95605-.2666-16.11279-16.4375c-.06396-6.49316-.12061-12.98633-.17725-19.47949-.08105-9.3418-.1626-18.68359-.26562-28.02637-.0293-2.5752-.26074-5.22461-.45166-7.37402,.10498-8.50586-5.50635-15.90527-13.71582-18.10254-10.42871-4.74414-22.51074-5.08301-33.19141-.92578l-.22705,.10254c-3.05664,1.55566-6.53613,1.82812-9.79785,.76855-3.26172-1.06055-5.91553-3.32812-7.47168-6.38477-1.15967-2.27637-1.61133-4.82031-1.30713-7.35547l.02344-.19629-.00781-.19727c-.04492-1.16992,.00488-2.35938,.05762-3.61816,.02393-.57422,.04785-1.14746,.06299-1.72168,.37207-14.13965,.76514-28.28027,1.15869-42.42188,1.84229-66.21875,3.74707-134.69141,3.29736-202.08594-.29395-43.99023-1.53662-83.53711-3.79932-120.90088-1.4292-23.6001-2.96973-43.17529-4.84863-61.60498-.31494-3.09033-.96484-6.36719-1.59326-9.53613-1.46289-7.37549-2.97559-15.00244,.14453-18.7959,1.77539-2.1582,5.25537-3.25195,10.3501-3.25195h.05908c126.21924,0,254.55322,.28027,378.66211,.55127,63.16113,.13818,126.32227,.27588,189.48242,.37939,7.58008,.03174,15.25391-.25195,22.66309-.5083,5.60156-.19336,11.39453-.39355,17.0752-.46973l.18457-.00928c7.6748-.6709,14.57422,4.53516,16.03027,12.10889l.10449,.37939c2.40332,6.63818,.01855,14.06738-5.7998,18.06689l-.23145,.17969c-1.69824,1.48779-3.56836,2.79541-5.59277,3.90527-7.63574,4.33105-13.98828,11.04688-17.8877,18.91113-2.54004,5.12012-10.26855,20.70166-.00684,27.34131,4.02832,2.60596,10.65918,3.09521,16.50977,3.52734,2.07031,.15283,4.02734,.29736,5.51367,.52295,12.18555,1.85107,24.52832,1.37402,36.46582,.91357,2.01172-.07764,4.02246-.15527,6.0332-.22217,.99707-.0332,2.20703-.15625,3.6084-.29834,3.37891-.34424,10.41504-1.06006,11.90527,.73877,.04004,.04785,.07422,.09814,.10352,.15332,.79785,1.49414-1.1084,5.83203-2.13281,8.16309Z"/></svg>