<?xml version="1.0" encoding="UTF-8"?><svg id="a" xmlns="http://www.w3.org/2000/svg" viewBox="0 0 580.1499 769.14711"><defs><style>.b{fill:#010101;}</style></defs><path class="b" d="M579.95114,649.75746c-.44336-1.87988-1.58105-3.47852-3.20703-4.51172-3.54199-2.55762-5.89551-6.33496-6.62988-10.64355l-.03027-.14844c-1.92188-8.23047-5.99316-15.83789-11.77539-22.00098l-.09863-.09961c-3.03516-2.89062-4.53223-7.09863-4.00879-11.22559,.54688-3.91797-1.05273-7.83789-4.17871-10.25586-2.97656-2.61914-5.80664-5.45801-8.41699-8.44141-4.20215-4.79004-8.43164-9.70508-12.52148-14.45996-4.74023-5.50977-9.64258-11.20801-14.54102-16.75391-16.36523-18.5459-32.99023-37.22168-49.41504-55.50977-17-18.90234-34.35156-38.06934-51.57715-56.97168-19.51367-21.32812-39.03613-42.64746-58.56836-63.9585-5.625-6.13867-11.25781-12.271-16.89062-18.40283-10.93652-11.90674-22.24512-24.21875-33.31348-36.37451-8.50879-9.34619-16.98633-18.72168-25.46387-28.09717-9.09326-10.05664-18.49609-20.45557-27.78711-30.64746l-.0918-.0957c-.96875-.95557-1.37061-2.31885-1.07471-3.64648l12.37012-72.59424c1.30664-7.66846,2.62158-15.33496,3.93701-23.00195,2.50342-14.59619,5.09229-29.68896,7.57715-44.54688,2.24854-13.44678,4.44092-27.13037,6.56104-40.36328l2.02734-12.63477c.22656-1.40869,.45703-2.81738,.6875-4.22559,.82715-5.05127,1.68164-10.27393,2.33887-15.45752,.88135-6.96436-.47949-8.80518-7.28027-9.84814-16.44775-2.52148-48.96729-7.32764-83.39551-12.41602C133.58883,13.32045,56.93209,1.99086,51.48287,.63441c-4.35059-1.08203-7.96973-.77881-10.75732,.90088-2.43604,1.46826-4.08691,3.89453-4.90625,7.2124-1.61914,6.55566-.67432,14.83398,.15918,22.1377,.21777,1.90723,.42334,3.70898,.57812,5.45166,.38721,3.15967,.0498,6.42236-.95752,9.38525l-.16748,.46094c-3.56543,9.8042-7.25195,19.94189-10.42285,30.08594l-.03027,.10645c-1.15039,4.34375-3.55322,8.1958-6.94873,11.13916C6.61666,97.40834,3.86373,107.85365,.37741,121.07728l-.02686,.10254c-1.65771,6.2876,2.90332,10.77881,6.56836,14.3877,1.56934,1.54492,3.05176,3.00439,3.92969,4.41357,5.20117,8.34863,10.57959,16.98193,12.98438,26.61719,2.0625,8.26318,3.05664,19.10498-.3374,24.75293-2.69824,4.49023-3.96533,9.62842-3.66162,14.89844,.38525,5.23389,.14258,10.51416-.72021,15.69482-1.80371,6.3916-.30078,13.18945,4.03369,18.22656,.79541,1.02441,1.57471,2.0625,2.354,3.1001,1.50439,2.00391,3.06006,4.07568,4.72998,6.0415,7.19043,8.47559,13.55371,17.70898,18.91309,27.44482l.0957,.16016c4.38379,6.7207,5.90381,14.75,4.29932,22.52246-1.0708,4.39746,.81494,8.92041,4.69238,11.25537,5.89307,3.54688,15.27051,10.33496,17.66846,14.31934,2.32275,3.85938,.30957,11.18945-1.16016,16.54199-.31787,1.15723-.61426,2.23779-.86084,3.2583-.96289,4.39209-1.02686,8.85938-.20361,13.20068,.22705,1.44141,.41699,2.93115,.60986,4.44092,.66455,5.19775,1.35156,10.57275,3.57275,15.33057,1.77881,3.80957,4.49707,6.91748,7.12549,9.92334,1.09814,1.25586,2.13525,2.44141,3.10205,3.66992,2.87793,3.65723,7.19482,5.8418,11.80859,5.99414,2.52393,.12012,3.84082,.65918,4.05371,.86523,.43457,.61914,.91016,1.23828,1.39209,1.86426,1.71094,2.22363,3.32666,4.32324,3.06152,6.71582-.55664,5.01074-1.18701,10.68945-4.42529,14.25586-.95312,1.0498-2.18311,1.77246-3.48486,2.53809-2.05176,1.20605-4.37695,2.57324-5.89014,5.4043-3.74414,7.00293-.50293,18.37793,4.67725,23.12695,2.56104,2.34766,5.02539,4.86035,7.32666,7.46875,2.0459,2.31152,3.83057,4.8623,5.27734,7.5293,1.23633,2.41406,2.24805,4.91602,3.31934,7.56445,.68311,1.69043,1.38965,3.43652,2.15576,5.14648,4.38477,10.92578,10.17871,21.24805,17.28125,30.75684,1.2334,1.52246,2.46143,3.0498,3.68994,4.57617,3.04053,3.7793,6.18506,7.68652,9.36084,11.47656l.06934,.08008c2.48291,2.7207,4.31104,6.03125,5.29248,9.58203,.54297,3.72559,3.20801,6.73535,6.84766,7.72363,.45703,.16504,.82812,.51953,1.01367,.96777,.67822,2.78418,.7915,5.62793,.33643,8.45801-1.82324,6.15625-2.77002,12.46484-3.68604,18.56641-.52148,3.47559-1.06055,7.06836-1.75342,10.5459-1.5249,4.92773,.19092,10.25,4.29932,13.3584,2.62061,2.65039,6.36475,3.94922,10.10156,3.48828,2.23633-.30566,4.50781-.32031,6.73975-.04785,10.13916,1.26367,20.10107,3.7959,29.60791,7.52637,4.16162,1.83984,8.74707,2.50293,13.25977,1.9248l.32617-.06445c1.48047-.39258,3.05908-.28418,4.46924,.30762,4.32471,2.94434,8.37061,6.3291,11.99854,10.03125,3.45654,3.65527,6.47607,7.72168,8.97412,12.08594,3.63281,6.35352,9.78955,11.01074,16.80713,12.75391,2.49756,.71484,5.07764,1.19238,7.66699,1.4209,2.08203,.18457,4.17871,.27539,6.20605,.36328,2.02246,.08789,4.11426,.17871,6.13232,.3623l.17139,.00977c1.14697,.02539,2.25439,.38184,3.20215,1.02832,3.48828,2.38281,6.16699,6.35059,7.34863,10.88477,.1543,.59277,.1377,1.91113,.12207,3.0752-.03223,2.53027-.06641,5.14648,1.22754,6.84863,.16113,.21094,.33594,.41211,.51953,.59863,3.62988,3.70215,11.12012,2.5791,15.14551,1.97363l.09863-.01465c2.33984-.35156,4.68848,.70117,5.98242,2.67969l.10352,.14746c6.16699,8.08789,13.4873,15.19043,21.81738,21.15039,1.95215,1.31348,3.60352,3.08496,4.77441,5.125,3.38965,5.8916,7.45801,11.40137,12.07031,16.35059,1.50488,1.66113,2.45312,3.71289,2.73926,5.91211,1.08691,8.9873,2.27734,18.1084,3.42773,26.92871l.65137,4.98047c.21094,2.29883,.58105,4.60352,1.08691,6.78516,.75,3.67871,4.02051,6.36426,7.78906,6.38574,16.13281,0,32.56641,.45215,48.45898,.88965,13.41699,.36914,27.29102,.75098,40.96289,.86035,6.09277,0,12.29785,.11426,18.29785,.22461,6.04395,.11035,12.21094,.22461,18.39941,.22461,3.94043,0,7.88867-.0459,11.81738-.16797,1.86035-.05762,3.77344-.08398,5.71582-.10938,8.90332-.12012,18.99414-.25586,27.41992-3.7041,5.54688-2.03906,9.08203-7.34375,8.83301-13.24121,.12402-3.75488-2.25586-5.21387-4.54297-5.3252-.53906-.02637-1.08008-.04492-1.62012-.0625-.81738-.02734-1.63477-.05371-2.44922-.11426-5.06738-.37402-5.53906-1.26172-5.69043-5.53711,.00195-5.31152-.31348-10.67188-.9502-16.02148-.80664-5.1875-.25098-7.44727,4.46973-9.68359,8.71484-3.19336,13.84961-12.11621,12.23242-21.16895-.05176-.37598-.06445-.75684-.03711-1.13379l.00879-.125-.00391-.125c-.36816-12.49414,6.52344-24.33398,17.5625-30.1875,1.30762-.58789,2.59668-1.25,3.83203-1.96973l.10938-.06738c1.50781-.98535,2.90332-2.1416,4.14941-3.44043,.5459-.47949,1.01465-1.03516,1.39648-1.6543,1.03223-1.66895,1.35254-3.64062,.90234-5.55078Zm-5.1543,2.92188l-.00195,.00195c-.12988,.21094-.29102,.39844-.48047,.55859l-.2002,.1875c-.98633,1.03906-2.09375,1.96582-3.29199,2.75488-1.08984,.63184-2.22559,1.21289-3.37793,1.72754l-.14648,.07031c-12.71875,6.70605-20.67676,20.30762-20.2998,34.67578-.04004,.67871-.01172,1.36816,.0957,2.13574,1.20996,6.78223-2.61816,13.39648-9.10156,15.72559l-.21484,.08789c-7.52344,3.52051-8.39453,8.55371-7.40137,14.9375,.60156,5.06445,.90527,10.22559,.90527,15.42969,.25098,7.16113,2.95117,9.89258,10.31934,10.43652,.88184,.06543,1.7666,.0957,2.65137,.125,.44531,.01465,.88965,.0293,1.33496,.0498,.00098,.06543,0,.14258-.00391,.23145l-.00586,.12207,.00586,.12207c.19141,3.75488-2.05566,7.14062-5.59082,8.4248l-.09668,.03711c-7.55469,3.10547-16.74609,3.22949-25.63379,3.34863-1.97266,.02637-3.91504,.05273-5.80371,.11133-9.97754,.30957-20.14062,.12305-29.96973-.05762-6.02246-.11133-12.25098-.22559-18.37012-.22559-13.60254-.1084-27.45215-.49023-40.84473-.8584-15.92676-.43848-32.39551-.8916-48.58301-.8916-1.40234-.00781-2.62305-1.01172-2.91797-2.44922-.46875-2.02539-.80273-4.10449-1.00293-6.27246l-.66211-5.07617c-1.14941-8.80957-2.33789-17.91895-3.42383-26.9043-.42188-3.2373-1.80371-6.22754-4.01953-8.67285-4.37598-4.69629-8.21777-9.89844-11.41699-15.45996-1.5498-2.69824-3.73438-5.04395-6.25977-6.74023-7.8418-5.6123-14.78613-12.34473-20.64062-20.00879-2.37012-3.55469-6.61426-5.43652-10.85352-4.80664l-.09961,.01562c-2.22461,.33203-8.99219,1.34863-10.83594-.53223-.04199-.04297-.08398-.08789-.07324-.07031-.2832-.55371-.25586-2.67188-.24121-3.80957,.02051-1.62305,.04102-3.15625-.28418-4.40137-1.48145-5.68457-4.89551-10.69727-9.36719-13.75293-1.72461-1.17676-3.73535-1.83105-5.81934-1.89453-2.11084-.18945-4.23438-.28223-6.28906-.37109-1.97217-.08496-4.01123-.17383-5.98193-.34863-2.27539-.2002-4.54053-.62012-6.81689-1.26953-5.78418-1.43848-10.79883-5.23145-13.75781-10.4082-2.6958-4.70898-5.95312-9.0957-9.7124-13.07031-3.94482-4.02539-8.31348-7.66992-12.98535-10.83105l-.3667-.20605c-2.44922-1.1123-5.22461-1.36328-7.83203-.70996-3.57471,.43359-7.19971-.1123-10.4917-1.57617l-.10205-.04297c-9.91064-3.89355-20.2959-6.53613-30.87354-7.85352-2.66406-.3252-5.36377-.30664-7.99805,.05176-2.21191,.26953-4.45361-.52441-5.99219-2.14062l-.33887-.29688c-2.5293-1.84277-3.58203-5.08105-2.61963-8.05957l.07227-.27734c.729-3.63867,1.28467-7.33887,1.82178-10.91797,.89795-5.98145,1.82617-12.16504,3.57812-18.03223l.06982-.30273c.60498-3.60645,.46191-7.2334-.42578-10.78027l-.06689-.22266c-.69043-1.96484-2.28516-3.52246-4.26562-4.16797l-.14355-.04199c-1.7583-.45898-3.04053-1.91992-3.26758-3.72266l-.06641-.33789c-1.17285-4.35742-3.39648-8.42383-6.43115-11.7627-3.13281-3.73926-6.25-7.61328-9.26465-11.36035-1.23145-1.53027-2.46338-3.06152-3.63916-4.51074-6.79297-9.09668-12.37939-19.05371-16.60498-29.59375l-.03955-.09277c-.73584-1.63965-1.43115-3.35938-2.10352-5.02148-1.06494-2.63379-2.1665-5.35742-3.53174-8.02148-1.65479-3.05273-3.65869-5.91602-5.95361-8.50977-2.41504-2.7373-5.00342-5.37598-7.69434-7.84277-3.74512-3.43359-6.18604-12.33398-3.64648-17.08398,.8501-1.59082,2.24658-2.41211,4.01465-3.45215,1.49414-.87793,3.1875-1.87402,4.65234-3.48633,4.32715-4.7666,5.08447-11.58594,5.70117-17.13867,.47949-4.32324-2.04639-7.60547-4.07617-10.24316-.43652-.56738-.86865-1.12695-1.26221-1.6875-1.25781-1.79297-3.91895-2.79785-7.94531-2.98926-3.17188-.10449-6.11719-1.5957-8.08057-4.08984-1.04688-1.33105-2.17578-2.62109-3.26758-3.87012-2.50977-2.86914-4.87988-5.57959-6.35889-8.74658-1.89062-4.05029-2.52734-9.03174-3.14307-13.84912-.19385-1.51611-.39404-3.08398-.64355-4.66064-.71045-3.75244-.65625-7.54639,.14893-11.22266,.22363-.92236,.50732-1.95361,.81055-3.05908,1.70947-6.22412,4.05029-14.74854,.62305-20.44385-4.06982-6.76318-19.22119-15.93311-19.37354-16.0249-1.99414-1.20068-2.96387-3.52734-2.39404-5.87451,1.88623-9.12842,.13232-18.45459-4.93701-26.27197-5.51074-9.99854-12.04932-19.48096-19.43701-28.18799-1.57324-1.85303-3.08301-3.86377-4.54297-5.80811-.80908-1.07764-1.61816-2.15527-2.44482-3.21826l-.08398-.10254c-3.28613-3.79297-4.41309-8.93506-3.01416-13.75488l.06445-.28076c.94824-5.62012,1.2168-11.3501,.80176-16.99023-.24316-4.22266,.77979-8.37061,2.9585-11.99609,5.26123-8.75586,2.021-24.05762,.90283-28.53906-2.5957-10.39941-8.4375-19.77686-13.59229-28.05029-1.19141-1.91211-2.95752-3.65088-4.66504-5.33252-3.83301-3.77393-6.09863-6.30029-5.2417-9.55029l.02686-.10205c3.39404-12.875,5.8457-22.17676,16.09277-31.05908,4.14258-3.5918,7.07861-8.2876,8.49219-13.5835,3.1333-10.01807,6.79346-20.08301,10.3335-29.81738l.18457-.51025c1.26562-3.7207,1.68213-7.75,1.21289-11.56738-.15137-1.72266-.36035-3.55566-.58203-5.49609-.78564-6.88525-1.67627-14.68896-.27246-20.37207,.49609-2.00977,1.35742-3.36035,2.63281-4.12891,2.00439-1.20752,4.89648-.84619,6.96826-.33105,5.68555,1.41504,79.26221,12.28955,144.17822,21.88379,34.42139,5.0874,66.93408,9.89258,83.36865,12.41211,.69092,.10596,2.74951,.42139,3.25635,.75293,.19141,.6001-.08594,2.79053-.17871,3.5249-.64551,5.09326-1.49316,10.27051-2.3125,15.27783-.23145,1.41309-.4624,2.82568-.68994,4.23926l-2.02783,12.6377c-2.11865,13.22461-4.31006,26.8999-6.55566,40.33008-2.48291,14.84717-5.0708,29.93457-7.57373,44.52588-1.31543,7.66846-2.63086,15.3374-3.9375,23.00732l-12.33643,72.41211c-.63965,2.97559,.25684,6.02148,2.40625,8.17627,9.271,10.17041,18.65723,20.55078,27.73389,30.58887,8.48096,9.37939,16.9624,18.75928,25.4751,28.10986,11.0752,12.16406,22.38867,24.47998,33.32812,36.39062,5.63184,6.13086,11.2627,12.26123,16.8877,18.39844,19.53027,21.31006,39.05273,42.62939,58.56152,63.95166,17.21484,18.89062,34.55957,38.04883,51.55078,56.94238,16.41406,18.27637,33.0293,36.94141,49.38477,55.47754,4.87793,5.52148,9.76953,11.20703,14.5,16.70508,4.09766,4.76367,8.33496,9.68945,12.55078,14.49414,2.76953,3.16504,5.77637,6.17871,8.93848,8.95703l.13867,.11328c1.7373,1.31934,2.62891,3.48047,2.32324,5.67188-.72363,5.70215,1.31836,11.47461,5.46191,15.45508,5.1416,5.49609,8.76758,12.26953,10.49121,19.59766,.97656,5.60938,4.0625,10.51953,8.69531,13.83398l.14062,.09375c.5332,.3291,.90625,.84668,1.05078,1.45703,.14355,.61035,.04102,1.24023-.28809,1.77441Z"/></svg>