<?xml version="1.0" encoding="UTF-8"?><svg id="a" xmlns="http://www.w3.org/2000/svg" viewBox="0 0 830.68142 564.1268"><defs><style>.b{fill:#010101;}</style></defs><path class="b" d="M830.17263,512.87777c-.36426-21.32812-.81641-47.87305-.9248-60.52246-.41113-48.04004-.74902-91.69141-1.03223-133.44824-.56348-83.27979-1.08496-172.91602-1.08496-264.11914-.00977-10.84961-.02148-23.14697-.51758-35.12451-.3457-8.32666-2.2168-10.18555-10.53516-10.47021l-3.70312-.12842c-8.78223-.30615-17.8623-.62256-26.82031-.64307-29.13281,0-58.74219,.27686-87.37793,.54443-18.41992,.17236-37.4668,.35059-56.2002,.45312C456.88845,10.43197,270.03786,5.73129,95.69997,.50082c-11.4043-.3418-22.9917-.3667-34.19727-.39062-4.80957-.01025-9.61963-.02051-14.42871-.05469-.56104-.06445-1.12891-.07324-1.6875-.02393-2.25,.19238-4.29004,1.24951-5.74463,2.97656-1.41016,1.67432-2.10645,3.78369-1.97168,5.96094-.64307,9.68115-1.37744,19.51953-2.0874,29.03662-.29395,3.94238-.58838,7.88477-.87695,11.82715-5.92529,80.57959-11.58887,162.56885-17.06641,241.8584C12.03347,372.84262,6.23708,456.75668,.15456,539.24203c-.28418,3.84961-.34473,6.5166,1.3374,8.44531,1.72852,1.98242,4.68311,2.31738,8.36719,2.54883,37.0791,2.31055,74.91357,3.50391,111.50195,4.65723,16.95801,.53516,34.49316,1.08789,51.72705,1.74512,131.41797,5.01172,267.49365,7.48828,412.85596,7.48828,44.18164,0,89.22461-.22852,135.25-.68457,19.19141-.19043,38.68945-.80762,57.54492-1.40527,7.4248-.23438,14.85059-.46973,22.27441-.68066,10.36816-.29492,29.66797-.84277,29.66797-15.87891,0-2.75488-.22461-15.9248-.50879-32.59961Zm-29.30176,43.48047c-7.42871,.21094-14.85938,.44629-22.29004,.68164-18.8291,.59668-38.29883,1.21289-57.43555,1.40234-197.37695,1.95605-376.58594-.26855-547.8667-6.7998-17.25049-.6582-34.79395-1.21094-51.75977-1.74609-36.55127-1.15332-74.34619-2.34473-111.34766-4.65039-2.93066-.18457-4.58301-.46875-4.91113-.84473-.43604-.5-.21387-3.50781-.11914-4.79199,6.0835-82.49609,11.88037-166.41602,17.48682-247.57324,5.47705-79.28418,11.14014-161.26807,17.06445-241.8374,.28906-3.94043,.58301-7.88086,.87695-11.8208,.71484-9.58398,1.4541-19.49365,2.10156-29.25098l.01221-.18994-.01611-.18896c-.07861-.91895,.20508-1.81348,.79932-2.51855,.59424-.70557,1.42725-1.1377,2.34814-1.21631,.09814-.0083,.19678-.0127,.29541-.0127,.1543,0,.30908,.01025,.46191,.03125l.31934,.02295c4.8667,.03516,9.73389,.04541,14.60107,.05566,11.17139,.02393,22.72314,.04834,34.05762,.38867,174.38428,5.23145,361.28418,9.93213,546.4541,8.92041,18.74316-.10254,37.79492-.28076,56.21973-.45312,28.62402-.26758,58.22168-.54443,87.3252-.54443,8.87109,.02051,17.91016,.33545,26.65137,.64014l3.70703,.12842c1.48145,.05078,4.23926,.14502,4.86328,.74365,.66797,.64062,.79395,3.65186,.84668,4.93701,.49219,11.87598,.50391,24.11963,.51367,34.91943,0,91.21533,.52148,180.86182,1.08496,264.1499,.2832,41.76074,.62109,85.41504,1.03223,133.45801,.1084,12.6709,.56152,39.22656,.92578,60.56543,.27246,15.99121,.50781,29.80176,.50781,32.51367,0,7.32324-6.95605,10.37402-24.81055,10.88086Z"/></svg>