<?xml version="1.0" encoding="UTF-8"?><svg id="a" xmlns="http://www.w3.org/2000/svg" viewBox="0 0 829.29048 567.79468"><defs><style>.b{fill:#010101;}</style></defs><path class="b" d="M829.28585,203.64233c-.11914-72.54199-2.66895-145.07422-4.00488-156.78174l-.26758-2.39453c-1.7666-15.93896-4.4375-40.02637-26.17383-43.10254C782.66085-.92505,385.67745,.17163,150.47921,1.02954l-13.68457,.04932c-5.06641,.01953-9.77295,.00488-14.14355-.00732-28.104-.07861-42.20996-.1167-50.0459,8.02881-8.53662,8.87451-7.83447,25.77393-6.29639,62.80127l.11914,2.875c.22754,5.48682,.40088,11.4624,.54639,18.80566,1.08838,54.99609-.4292,113.2627-4.51074,173.18066-2.53125,37.16846-5.82617,69.45361-10.07178,98.70068-.43506,2.99707-.86572,6.00586-1.29834,9.02441-4.64795,32.45898-9.45459,66.02344-21.14893,96.49414-3.41748,8.9043-8.75439,16.92188-13.91553,24.6748-11.46289,17.2207-23.31641,35.02734-10.42529,60.32031,1.49561,2.93457,3.96289,7.11719,8.1084,9.55566,2.78906,1.6416,5.78662,2.26172,8.84082,2.26172,4.5127,0,9.14746-1.35547,13.40527-2.77441,83.78955-27.93945,168.49805-68.10254,266.58252-126.39551,4.8208-2.86621,9.47998-6.09375,13.98535-9.21582,19.5957-13.5791,36.52002-25.30371,62.07715-7.60742,4.34082,3.00684,10.80371,1.3291,17.64502-.44531,2.97656-.77148,6.05469-1.57031,8.69189-1.86328l.14941-.02051c20.66504-3.56738,41.76562-5.67285,62.6543-6.25586,100.06055-.27148,200.20898-11.90723,297.57324-34.56445,13.72852-2.66895,27.32031-6.5332,40.39551-11.48633,4.30078-1.62793,9.85742-5.50488,12.67969-8.8623l.05078-.05957c7.34766-8.81445,10.99609-60.83008,10.84277-154.60156Zm-14.68359,151.39941l1.91992,1.60156-1.98633-1.52148c-2.24512,2.66992-7.09668,6.04395-10.59375,7.36816-12.81152,4.85254-26.12793,8.63867-39.66895,11.27344-97.08691,22.59082-196.8584,34.18262-296.60547,34.4541-21.16504,.58984-42.47949,2.71484-63.35547,6.31445-2.97217,.33887-6.19873,1.1748-9.31934,1.98438-5.1958,1.34766-11.08691,2.875-13.54346,1.17383-28.40381-19.66797-48.41748-5.80176-67.771,7.60938-4.43506,3.07227-9.021,6.25-13.69238,9.02637-97.76855,58.10547-182.16797,98.12793-265.60986,125.9502-6.09521,2.03223-13.02637,3.95215-18.12891,.94727-2.29785-1.35156-4.26416-3.73926-6.18848-7.51562-11.56299-22.68848-1.50928-37.79199,10.13232-55.28027,5.3125-7.97949,10.80518-16.23145,14.42139-25.6543,11.896-30.99609,16.74316-64.84277,21.43066-97.57617,.43164-3.01562,.8623-6.02148,1.29688-9.01465,4.26416-29.37402,7.57178-61.7832,10.11182-99.07959,4.0918-60.06348,5.61279-118.47754,4.52148-173.61914-.146-7.38037-.3208-13.39014-.54932-18.91406l-.11963-2.87549c-1.43262-34.4834-2.15137-51.79248,4.9043-59.12744,5.72607-5.95215,17.84863-6.50928,39.09814-6.50928,2.33154,0,4.77539,.00684,7.33057,.01416,4.37842,.01172,9.09424,.0249,14.1748,.00732l13.68555-.04932c405.88086-1.48047,635.88281-1.37793,647.64062,.28467,17.89551,2.53223,20.11914,22.58789,21.90527,38.70264l.26953,2.41016c1.3252,11.60986,3.85449,83.84619,3.97266,156.22363,.20605,125.9165-6.70312,147.81885-9.68359,151.39111Z"/></svg>