<?xml version="1.0" encoding="UTF-8"?><svg id="a" xmlns="http://www.w3.org/2000/svg" viewBox="0 0 395.26504 834.16065"><defs><style>.b{fill:#010101;}</style></defs><path class="b" d="M392.31492,773.12088c-.7083-4.02854-1.37699-7.83386-1.76738-11.1367-4.02564-34.09619-9.5394-80.79305-38.69679-110.00262-8.22232-8.23585-17.52883-15.43774-26.52807-22.40193-3.14727-2.4351-6.40179-4.9533-9.55099-7.47246-46.96839-37.54881-73.99314-76.34513-82.62034-118.6047-8.30639-40.69705-20.02191-81.3593-31.35236-120.68226-3.39464-11.78317-6.90476-23.9659-10.26848-35.95972-6.13316-31.38908-25.68013-45.15753-46.37362-59.73429-9.21085-6.48828-18.73575-13.19736-27.45331-21.74387-19.03918-18.66521-28.04469-43.26356-27.53158-75.20054,.15799-9.85876-1.67413-19.47595-5.43452-28.55635-12.06871-30.21163-7.37873-65.10165,12.23975-91.05379l.0773-.10774c2.08095-3.08397,4.51121-6.27086,7.08401-9.64521,12.22718-16.03541,27.44461-35.99209,8.47646-54.52347-13.53557-13.22393-31.03155-2.89893-46.46881,6.21095-4.86198,2.86945-9.45436,5.57946-13.81,7.56378-10.79898,4.7325-21.38537,10.23417-31.46638,16.35284C-12.05472,53.32112,1.42674,103.64501,11.27439,140.39758c2.13554,7.97011,4.15271,15.49862,5.3176,21.4564,3.02503,15.4706,6.20273,31.17601,9.27608,46.36493,6.43803,31.8186,13.09493,64.72092,18.70628,97.24252,14.2458,82.56188,19.2305,167.01192,24.05142,248.68141,3.24825,55.03706,6.60762,111.9478,12.76928,167.87483,.45465,4.12614,.85712,8.28609,1.24605,12.30884,3.46373,35.80946,6.73565,69.63315,46.93505,83.80213,36.10756,12.72821,77.16794,16.03202,117.922,16.03202,23.0194-.00097,45.9499-1.05521,67.81553-2.0621,6.85113-.31502,13.62688-.62713,20.30214-.90253,3.28738-.13625,6.54964-.2638,9.78387-.37879,1.27553-.04445,2.58294-.08117,3.91258-.11886,16.6408-.46866,37.35072-1.05134,43.93708-19.28268,3.90002-10.79656,1.33157-25.40521-.93442-38.2948Zm-3.71932,36.61343c-5.44128,15.06185-23.49386,15.57013-39.42249,16.01849-1.3422,.03769-2.66121,.07441-3.9493,.12079-3.2439,.11499-6.51582,.24254-9.81286,.37879-6.68202,.27636-13.46647,.58848-20.32437,.90446-60.12758,2.76847-128.27261,5.90318-183.86579-13.69356-37.22317-13.12054-40.20375-43.93418-43.6554-79.61319-.39039-4.03917-.79431-8.21555-1.25282-12.37358-6.14765-55.80238-9.50316-112.6503-12.74802-167.62552-4.82864-81.80574-9.82156-166.3959-24.11471-249.23075-5.62343-32.59165-12.28758-65.52924-18.73237-97.38263-3.07189-15.18071-6.24815-30.87839-9.2698-46.33352-1.19774-6.12446-3.23617-13.73221-5.39442-21.78687C6.63466,103.96534-6.2646,55.82337,23.20105,40.78761l.15992-.08938c9.91771-6.02397,20.33451-11.44013,30.99338-16.11126,4.6262-2.10704,9.32826-4.88179,14.30668-7.81985,10.22016-6.03073,20.05911-11.83728,28.69646-11.83728,4.25852,0,8.22522,1.41178,11.80008,4.90402,15.83731,15.47301,3.23472,32.00124-8.95333,47.98543-2.60275,3.413-5.06152,6.63806-7.21398,9.82253-20.62151,27.31996-25.54581,64.02953-12.83547,95.84765,3.51156,8.48081,5.21758,17.43462,5.0707,26.6131-.5363,33.36663,8.9543,59.14629,29.01486,78.8126,9.00406,8.82723,18.69517,15.6542,28.06739,22.25602,20.74084,14.6101,38.6533,27.22816,44.38545,56.73148l.04638,.19616c3.37676,12.04262,6.89896,24.26787,10.30568,36.09114,11.30291,39.23067,22.99138,79.79727,31.25911,120.30202,8.86781,43.44136,36.46751,83.1779,84.37709,121.47946,3.18109,2.54332,6.45108,5.07409,9.6138,7.52078,8.87651,6.86949,18.05547,13.97185,26.05361,21.98545,27.94661,27.99589,33.12505,71.84986,37.28598,107.0863,.40585,3.44199,1.08613,7.31399,1.807,11.41307,2.1597,12.28081,4.60639,26.20049,1.15377,35.75728Z"/></svg>