<?xml version="1.0" encoding="UTF-8"?><svg id="a" xmlns="http://www.w3.org/2000/svg" viewBox="0 0 796.52282 582.21388"><defs><style>.b{fill:#010101;}</style></defs><path class="b" d="M795.83052,487.03126l-.0459-.16992c-.84082-2.69238-1.27246-5.48926-1.2832-8.31836-.04297-6.29199,.00293-12.7002,.04785-18.89746,.08008-11.17383,.16309-22.72852-.26953-34.10059-.33594-8.83984-1.56934-17.72949-2.76172-26.32617-.42969-3.09375-.85938-6.18652-1.24805-9.28027l-.06445-.33105c-.45605-1.71191-1.19336-3.32129-2.19434-4.7832-3.16309-5.86914-6.33398-11.73438-9.50488-17.59961-5.19434-9.6084-10.38867-19.2168-15.55078-28.84277-1.42188-2.65234-2.85742-5.29883-4.29297-7.94531-4.66602-8.60352-9.49121-17.49902-13.74805-26.44531-2.27148-6.04199-5.94824-11.57568-10.68359-16.05127-6.23926-5.60352-10.70801-12.84033-12.92188-20.92969l-.04883-.1582c-.63086-1.8208-1.22656-3.65723-1.82324-5.49414-1.41504-4.35742-2.87891-8.86377-4.84863-13.23877-1.62402-3.2666-.96289-7.17529,1.64551-9.72656l.19238-.21045c6.33105-7.79102,6.41113-9.11133,1.06055-17.67871-1.73145-2.72217-3.7998-5.22656-6.14844-7.44385-47.25586-44.60303-82.64746-105.96729-99.65234-172.78613-2.03809-8.05664-3.96777-16.27686-5.73535-24.43555-.68555-5.43994-5.27246-9.63477-10.75098-9.8335-8.62695-1.09912-17.38281-2.4668-25.85156-3.79004-4.19336-.65479-8.38672-1.31006-12.56445-1.93408-1.7002-.26855-3.43359-.34424-5.14941-.22656-.20703,.01367-.41406,.03613-.61816,.06787-4.01172,.61182-6.77832,4.37402-6.16699,8.38623l.03906,.20068c.72754,3.06592,1.64355,6.12012,2.72266,9.07715l.07422,.17969c2.4873,5.45654,3.03125,11.66064,1.53125,17.46826l-.02246,.09766c-.4375,2.02686-.63574,4.10254-.59082,6.17236l-.00098,.01855c-.25586,3.00244-.51953,6.10303-.96582,6.90039-.87891,.12646-3.67676-.65918-6.39746-1.4209l-.77734-.21729c-6.6748-1.86377-8.84961-4.05029-8.95312-8.99902-.08984-4.30762-3.12891-7.02344-7.93164-7.08789-3.72656-.05029-7.45312-.11475-11.18066-.1792-9.54688-.16553-19.42188-.33594-29.14062-.25928-6.62012,.05225-13.33301,.28271-19.82422,.50537-6.69434,.22998-13.61621,.46777-20.4082,.50781-9.51562,.05566-19.19629-.01367-28.55957-.08105-13.66016-.09863-27.78467-.20117-41.6875,.08691-26.09521,.54199-54.03027,.77686-81.49365-1.13965-.95068-.06689-1.90039-.12549-2.84717-.18408-9.58984-.59375-17.87207-1.10645-23.72559-8.72363-1.53613-1.99854-2.85449-3.87305-4.12891-5.68555-6.1665-8.76709-10.63428-15.10791-25.78076-14.56055-42.91602,1.52979-86.40723,3.35303-129.2666,5.42041-9.31641,.44922-25.34229,1.04492-42.30957,1.67578-18.60449,.69141-37.8418,1.40674-51.82471,2.05371-3.91455,.18115-7.50098,2.27881-9.59326,5.61133C-.24468,19.21095-.56499,23.08937,.9272,26.58595c.53418,1.25293,1.2002,2.24512,1.98047,2.95117,4.10352,4.2085,8.63135,8.04297,13.45898,11.39893l.21631,.13477c3.48633,1.9292,5.26465,5.84229,4.42529,9.73682-.87061,4.04004-3.12695,20.53613,1.74365,27.43164,1.32227,1.87207,3.12207,3.00391,5.20508,3.27344,6.45996,.8291,16.59668-2.64453,23.99854-5.18506,1.12402-.38574,2.15771-.74072,3.06689-1.04004,9.2417-3.04443,18.86523-4.49072,28.50195-4.2959,3.19678,.1748,6.39014-.02197,9.48047-.21289,1.50342-.09277,3.00684-.18604,4.5083-.23584l.11133-.00586c17.76611-1.3833,35.38525,.67285,52.32471,6.09033,10.34521,3.479,20.48047,7.84033,30.07227,12.93506,2.98145,1.6748,6.08936,3.1626,9.09473,4.60156,6.9668,3.33545,13.54736,6.48584,18.89453,11.84912l.20264,.18213c2.66895,2.14941,5.70166,3.68652,8.98779,4.56104,8.58545,2.38672,15.05273,9.28857,16.87842,18.01758,.52295,2.4668,1.81934,4.3501,3.65137,5.30322,1.66406,.86475,3.65674,.89648,5.62207,.08887,6.87646-2.30225,14.30518-2.99756,21.50293-2.00928,3.06543,.40088,6.20605,.02002,9.0874-1.09766l.26904-.12305c2.25537-1.19873,4.58203-2.20752,7.0459-3.2749,5.74561-2.49072,11.68652-5.06543,16.49072-10.15283l.13232-.15234c5.08545-6.33936,13.20996-9.35986,21.15283-7.8999,1.125,.22998,2.08057-.12891,2.9248-.44629,.31836-.11914,.68555-.25879,1.12354-.38574l2.26611-.65723-.52441-2.30029c-.51123-2.24121-.86768-4.53711-1.06006-6.8252-.0498-6.8335,.10254-6.98779,6.64453-8.01025,6.32227-1.03955,12.77002-1.75439,19.24316-2.13135,4.55762-.40869,9.17432,.36963,13.28125,2.22559,8.3833,4.08496,17.3335,8.35889,26.479,11.76953l.12549,.04346c4.91211,1.54004,8.95361,4.87744,11.3916,9.40479,3.14062,7.46924,9.35449,13.18066,17.06836,15.68018l.20605,.05713c3.24316,.75146,5.61133,3.48535,5.90137,6.88672,.84766,7.13867,5.79395,13.24707,12.52441,15.53467,5.61816,2.11426,10.125,6.2666,12.72852,11.77002,2.125,4.12109,6.10938,7.00586,10.68066,7.74512,3.99512,1.1582,8.03906,2.43457,11.95215,3.66895,3.94727,1.24512,8.02734,2.53271,12.08203,3.70801l.23047,.05518c2.57715,.48926,4.68359,2.3418,5.49414,4.82129,3.05957,9.55225,8.55078,18.21533,15.88281,25.05811,2.66797,2.77344,3.91211,6.69336,3.33008,10.49902l-.02051,.16357c-.6377,7.39893-1.31543,15.99609-1.28418,24.42041,.10547,10.34033-2.17285,20.74951-6.55664,30.03955-2.70605,5.34375-3.49023,11.5083-2.20117,17.38037,2.09668,9.16455,4.49121,18.40381,6.80762,27.33838l.75293,2.89746c.58594,2.00879,1.38867,3.96191,2.38477,5.80371l.07422,.12695c.39746,.6416,.93945,1.2041,1.57031,1.62598,1.18555,.79395,2.61133,1.0752,4.00684,.79883,1.39941-.27832,2.60645-1.08398,3.37988-2.24219,3.50977-5.10254,4.38086-11.6377,2.33203-17.48242l-.06934-.17676c-.82227-1.875-1.35059-3.85645-1.57324-5.92285-.06543-.54492,.13281-.90625,.30078-.94727,7.49609,1.58984,14.81836,3.4375,21.77051,5.49219,.95312,.56445,1.66797,1.48145,1.97656,2.54688l.03809,.11914c.87109,2.52246,.4541,5.31641-1.11523,7.47363l-.12695,.19238c-6.13867,10.3125-13.42188,19.96875-21.64844,28.70312-.3877,.2998-.74414,.64062-1.06348,1.01855-2.41699,2.86816-2.08691,7.14941,.71191,9.61816,2.11328,2.23926,4.09863,4.75391,6.02051,7.1875,4.62598,5.8584,9.40723,11.91309,16.80664,15.54883,.29395,.28223,.49707,.64746,.58203,1.04883l.06445,.24316c4.03125,12.66797,10.14551,24.46289,18.14551,35.02246,6.87109,9.41211,12.41309,19.72168,16.48438,30.67285,2.19238,5.6748,3.85645,8.67578,6.87012,9.33398,3.30371,.71582,6.48145-2.06055,10.29199-5.77344,3.52637-3.43652,4.25293-3.33496,7.68848-1.06738l.16504,.09961c1.99316,1.10449,3.76367,2.65234,5.12598,4.48047,1.36914,2.30273,2.8877,4.54688,4.35645,6.71777,4.62695,6.83887,8.99805,13.29785,9.12988,21.5791,.12598,7.86914,4.35547,13.34668,8.44629,18.64453,.74414,.96387,1.48828,1.92676,2.2041,2.9043l.30078,.33984c1.50879,1.42383,3.47559,2.2373,5.54688,2.2959,3.00488,.24609,6.04883,.42188,8.99316,.5918,3.39648,.19531,6.90918,.39746,10.33301,.70898l.11328,.00684c1.87109,.08398,3.71289,.62988,5.37793,1.60547,9.64551,5.36621,18.01758,13.03223,24.22852,22.19824,5.95703,8.53906,9.94727,18.05664,11.86035,28.28906,.28223,2.80273,.47656,5.68164,.66504,8.46777l.10352,1.53418c-.03613,1.48047,.18555,2.94043,.66016,4.34277,1.07715,3.18945,3.33301,5.76855,6.35059,7.26172,1.76367,.87207,3.66406,1.31348,5.57617,1.31348,1.31836,0,2.6416-.20996,3.92871-.63086,4.41211-1.0498,8.59082-3.12598,12.09082-6.00879l.14746-.13086c1.95996-1.8916,4.63477-2.88672,7.36133-2.75098l.14844,.00391c2.47949-.0166,4.94434-.24707,7.32812-.4707,1.01855-.0957,2.03711-.19141,3.05566-.27051h.06348c10.1875,0,20.10352-4.16895,27.22949-11.4541l.07129-.0752c1.16699-1.2959,2.45801-2.49609,3.83887-3.56641,3.4541-2.40332,4.94043-6.70703,3.70996-10.70215-2.11523-7.21289-1.84863-15.06934,.74512-22.11426,.8457-2.27051,1.02051-4.72168,.50488-7.08887l-.02539-.10742c-.05078-.19434-.0918-.39062-.11914-.58594-.38672-2.73828,1.52637-5.28125,4.26465-5.66797l.35742-.07812c5.53418-1.63281,9.3584-6.74316,9.38574-12.49121,.71289-3.61426,.64258-7.40918-.20508-10.99219Zm-4.74316,10.23828l-.05664,.27344,.00391,.2793c.06152,3.57129-2.25391,6.77637-5.64844,7.85059-5.35645,.87012-9.07129,5.88867-8.30859,11.29004,.05176,.36621,.12598,.73633,.21875,1.09863,.2998,1.41602,.19043,2.87988-.31738,4.24512-2.96582,8.05273-3.26953,17.02246-.8457,25.29004,.60059,1.94727-.12695,4.0293-1.80957,5.18066l-.11523,.08398c-1.62402,1.25391-3.14355,2.65918-4.5166,4.17969-6.18848,6.30762-14.78516,9.91406-23.61914,9.91406h-.14453l-.2002,.00684c-1.08105,.08301-2.16113,.18359-3.24121,.28516-2.35742,.2207-4.58594,.43066-6.8252,.44922-4.02637-.2041-8.01465,1.29004-10.94238,4.07617-2.92578,2.3916-6.41309,4.1084-10.09277,4.96777l-.23145,.06641c-1.92188,.65234-3.98438,.51367-5.80566-.3877-1.82031-.90137-3.18066-2.45605-3.83105-4.38086-.29492-.87207-.42773-1.78027-.39551-2.70215l.00488-.12988-.12109-1.78125c-.19336-2.86133-.39258-5.81934-.68945-8.73926l-.0293-.20312c-2.03613-10.97559-6.30664-21.18359-12.67578-30.31055-6.62793-9.78223-15.58984-17.98926-25.86719-23.70605-2.29688-1.34766-4.91504-2.12793-7.57617-2.25684-3.4873-.31445-7.02246-.51855-10.44043-.71582-2.93848-.16895-5.97656-.34375-8.94336-.58789l-.15918-.00879c-.79102-.01465-1.54688-.29883-2.14844-.80566-.69238-.93848-1.4082-1.86621-2.125-2.79395-3.75684-4.86426-7.30469-9.45898-7.40332-15.66797-.15625-9.77051-5.15527-17.15723-9.98828-24.30078-1.45117-2.14453-2.95215-4.3623-4.26074-6.57324l-.13574-.20508c-1.77637-2.42188-4.09766-4.47559-6.71777-5.94336-5.54004-3.63184-8.78809-3.22266-13.85352,1.71191-3.77832,3.68262-5.19531,4.47266-5.69727,4.47266-.01074,0-.02051,0-.0293-.00098-.37793-.14062-1.30566-1.13965-3.26953-6.22363-4.21973-11.35059-9.98047-22.06543-17.14746-31.88379-7.66113-10.11133-13.50195-21.36523-17.36035-33.44922-.36328-1.57129-1.25977-2.97559-2.53516-3.9668l-.21289-.16602-.24316-.11621c-6.52051-3.11719-10.80273-8.54004-15.33594-14.28027-2.01562-2.55371-4.10059-5.19336-6.40137-7.61914l-.20215-.19141c-.80078-.67383-.90332-1.875-.23145-2.67188,.10645-.12598,.22656-.23633,.3584-.33008l.36914-.32129c8.51465-9.01562,16.05176-18.98926,22.40332-29.64355,2.45996-3.44727,3.1123-7.87891,1.74805-11.8916-.7168-2.40625-2.39844-4.45312-4.62305-5.62402l-.45312-.18359c-7.15625-2.12402-14.69922-4.03027-22.41797-5.66699-1.6543-.34961-3.28809,.08691-4.49902,1.19531-1.37402,1.25781-2.04785,3.21875-1.80566,5.21094,.26953,2.50781,.91602,4.95312,1.91992,7.26953,1.48633,4.32227,.83008,9.14258-1.78125,12.93848-.05078,.07715-.12305,.125-.21484,.14355-.0625,.0127-.15723,.01367-.25293-.0498-.0293-.02051-.05664-.04492-.07812-.07227-.80469-1.50391-1.4541-3.09277-1.91211-4.65625l-.73145-2.8252c-2.30762-8.90039-4.69434-18.10449-6.77051-27.17676-1.03711-4.72754-.40332-9.70947,1.81445-14.09033,4.73438-10.03125,7.17773-21.19629,7.06543-32.271-.03027-8.17139,.63281-16.60449,1.25977-23.87695,.79004-5.33838-.97852-10.82715-4.74121-14.69873l-.08887-.0874c-6.73047-6.26709-11.77051-14.20947-14.58105-22.98242-1.36719-4.18555-4.88379-7.30615-9.19434-8.16992-3.96484-1.15137-7.98047-2.41846-11.86426-3.64355-3.99121-1.25928-8.11816-2.56152-12.21875-3.74805l-.32617-.07129c-3.05859-.45654-5.73145-2.37012-7.11133-5.0415-3.12305-6.60547-8.60938-11.66113-15.52441-14.26172-4.99414-1.69873-8.62305-6.18018-9.23633-11.33447-.46191-5.44873-4.32715-9.94531-9.63281-11.22461-6.31641-2.07666-11.39648-6.78271-13.94727-12.92529l-.10059-.21436c-3.04297-5.72559-8.11914-9.95264-14.29883-11.90869-8.91602-3.32959-17.7207-7.53516-26.04102-11.58838-4.95605-2.23975-10.43652-3.16797-15.77539-2.68506-6.56787,.38086-13.19092,1.11523-19.66553,2.17969-9.09766,1.42188-10.92285,3.62158-10.85205,13.07812l.0083,.18604c.14551,1.77002,.37988,3.54492,.7002,5.30029-9.60107-1.5791-19.29395,2.10156-25.42627,9.68701-4.08887,4.29541-9.28174,6.5459-14.77783,8.92773-2.39844,1.03955-4.87695,2.11377-7.26562,3.37451-2.06641,.77734-4.31152,1.0376-6.48438,.75293-7.97168-1.09326-16.21826-.31396-23.84473,2.25439l-.18115,.06885c-.42188,.18018-1.01709,.34521-1.45459,.11768-.46777-.24316-.8667-.95508-1.06689-1.89746-2.2085-10.56006-10.0376-18.91553-20.4585-21.8125-2.59082-.68945-4.96631-1.88379-7.06299-3.5498-5.93506-5.90967-13.17432-9.37549-20.17529-12.72754-2.93311-1.4043-5.96582-2.85645-8.85645-4.47949-9.88428-5.25049-20.27246-9.72119-30.91113-13.29834-17.57666-5.62158-35.81689-7.75098-54.21631-6.32861-1.53027,.05127-3.0625,.146-4.59521,.24023-3.08203,.18994-5.99463,.36914-8.98486,.20801-10.28857-.20361-20.47314,1.3208-30.25342,4.54248-.92676,.30518-1.97998,.66699-3.12549,1.06006-6.54395,2.24561-16.43848,5.64062-21.73438,4.95508-.46924-.06055-1.09326-.25146-1.76221-1.19873-3.27637-4.63867-2.01709-18.49658-.93994-23.49365,1.29785-6.02246-1.42236-12.07227-6.77393-15.09961-4.55371-3.1748-8.82373-6.7998-12.69434-10.77637l-.15332-.14502c-.06104-.05273-.38281-.35889-.74854-1.21631-.83936-1.96777-.65186-4.16211,.51416-6.01953,1.22168-1.94531,3.31104-3.16943,5.59033-3.2749,13.95947-.64648,33.18604-1.36133,51.77881-2.05225,16.98145-.63135,33.021-1.22754,42.36523-1.67822,42.83789-2.06592,86.30859-3.88867,129.20312-5.41748,12.45361-.44678,15.66992,4.13281,21.51318,12.43994,1.24365,1.76855,2.65332,3.77295,4.25391,5.85596,7.23975,9.42041,17.479,10.0542,27.38135,10.66699,.93359,.05811,1.87012,.11572,2.80762,.18115,27.66309,1.93213,55.7334,1.69434,81.9458,1.15137,13.83057-.28662,27.91992-.18506,41.54785-.08594,9.37891,.06787,19.0791,.13916,28.625,.08105,6.86328-.04102,13.82129-.27979,20.55078-.51074,6.45898-.22168,13.1377-.45068,19.69141-.50244,9.66211-.07715,19.49902,.09375,29.01562,.2583,3.73242,.06494,7.46582,.12939,11.19922,.18018,2.95508,.03955,2.9834,1.38721,3.00098,2.19189,.18652,9.0083,6.16895,11.91309,12.60742,13.71045l.77344,.2168c5.54102,1.55029,8.31934,2.32715,10.60938,.73926,2.31738-1.60693,2.57324-4.61572,3.08301-10.60986l.02539-.29395-.00391-.14111c-.04688-1.70215,.11035-3.41113,.46582-5.07959,1.76074-6.86572,1.12305-14.19238-1.79492-20.64941-.98535-2.70898-1.82422-5.50391-2.49512-8.31104-.14551-1.25537,.73047-2.41455,1.99219-2.60693,.06641-.01025,.13281-.01758,.20312-.02197,1.34277-.0918,2.69824-.0332,4.04883,.18018,4.18652,.62549,8.36914,1.27881,12.55176,1.93262,8.54199,1.33447,17.37402,2.71436,26.11133,3.82471l.25488,.01953c3.10156,.07422,5.7041,2.45459,6.05664,5.53613l.04004,.24561c1.78613,8.25244,3.7373,16.56885,5.7998,24.72266,17.2373,67.729,53.12988,129.94678,101.06641,175.19189,2.04785,1.93359,3.85254,4.11768,5.35156,6.47412,1.90234,3.04688,3.15918,5.05957,3.09473,6.15625-.06445,1.08545-1.59375,2.97998-3.7207,5.59766-4.0752,4.07422-5.09082,10.25146-2.56152,15.33447,1.81641,4.03906,3.2373,8.41406,4.61133,12.64502,.59766,1.84131,1.19629,3.68262,1.82812,5.50879,2.47461,8.98389,7.44629,17.021,14.33398,23.20459,4.16309,3.93652,7.42188,8.85547,9.4248,14.22559l.08496,.19922c4.3252,9.09961,9.2002,18.08691,13.91406,26.7793,1.43164,2.63965,2.86328,5.2793,4.28223,7.9248,5.16406,9.63086,10.36133,19.24414,15.55859,28.85742,3.19141,5.90332,6.38379,11.80762,9.56738,17.71582l.15137,.24414c.67773,.97168,1.18359,2.03906,1.50488,3.17676,.38574,3.05566,.80957,6.11133,1.2334,9.16699,1.17676,8.47461,2.39258,17.23828,2.71875,25.82812,.42773,11.25977,.3457,22.75684,.26562,33.875-.04492,6.21484-.09082,12.64062-.04785,18.95996,.0127,3.29004,.51172,6.55078,1.48242,9.69336,.68262,2.94043,.71875,6.05273,.10352,9.00684Z"/></svg>