<?xml version="1.0" encoding="UTF-8"?><svg id="a" xmlns="http://www.w3.org/2000/svg" viewBox="0 0 589.77672 629.7498"><defs><style>.b{fill:#010101;}</style></defs><path class="b" d="M589.07027,403.1287l-.00098-.00195c-1.22363-1.93945-3.78906-2.92188-7.62402-2.92188h-.19531c-2.04785,0-4.08008-.29297-6.04297-.87207-10.19141-5.02734-18.58496-10.25195-18.46387-22.77734l.00195-.20508-.03125-.20312c-.54785-3.52832-1.39844-7.03516-2.52832-10.42676-1.94531-14.29004-12.15039-26.00098-26.12305-29.89258-5.46875-1.36621-9.51562-6.05469-10.06934-11.66504l-.04004-.25781c-3.55859-17.2959-8.5332-34.44238-14.78516-50.96582-1.77734-6.39258-6.08496-11.92822-11.84473-15.22021-3.74023-2.66846-7.70898-5.07617-11.79883-7.15723l-.17285-.08008c-10.18457-4.23975-18.2627-12.58936-22.16309-22.90869l-.05957-.1416c-5.55469-12.34229-14.42773-22.85107-25.66406-30.39746-3.70605-2.90039-6.95508-6.32373-9.6582-10.17578-3.80078-6.05225-8.17676-11.79639-13.05859-17.12744-10.41406-10.70801-23.35254-19.02588-37.41602-24.05469l-.19043-.05957c-4.12109-1.1123-7.3291-4.2124-8.58301-8.29248l-.12207-.31836c-3.00879-6.4834-6.55566-12.78271-10.54297-18.72363l-.1377-.18506c-1.71777-2.11084-3.13574-4.44531-4.2168-6.93994-4.02051-11.99854-9.44043-23.53125-16.1123-34.28516-2.80469-6.56152-9.19922-10.80811-16.35059-10.83691l-.07715-.00049-.07715,.00488c-5.11133,.29541-10.33984-.53662-15.1123-2.41016-11.34131-5.65674-21.31494-14.03125-28.83643-24.2085-4.28906-5.896-4.29639-13.82373,.021-19.78223,1.75635-2.56348,6.05615-4.87256,9.51074-6.72803,4.48389-2.4082,7.44629-3.99902,7.37939-6.86279l-.00635-.25391-.05664-.24707c-.65381-2.84619-3.14258-4.82666-6.06006-4.82666h-.03076c-17.46924,.09082-93.34912-.17969-160.29541-.41504C66.65914,.11259,19.35201-.05635,16.2817,.01786,3.41451,.31962,1.48238,2.18583,.38131,15.3665c-1.36328,15.44385,.94629,31.22119,6.65088,45.55273,8.6416,23.90576,14.50244,48.83057,17.41602,74.05371,3.22705,31.0708,8.41553,62.25928,15.43262,92.74609,1.05762,4.22559,1.67334,8.57422,1.83594,13.02197,1.5415,20.63037,4.72217,41.30322,9.45459,61.44727,1.33984,7.80811,4.55273,15.28711,9.29443,21.63184l.1792,.21387c6.53125,6.96289,9.9707,16.04199,9.69287,25.58008-.72949,5.13477,1.83887,10.19824,6.42822,12.63867l.17139,.08301c3.41064,1.49316,5.76025,4.72266,6.13184,8.42773l.02539,.18457c.6875,3.90137,.04199,7.97266-1.81836,11.46875-1.25049,2.12793-2.35107,4.34375-3.41602,6.48633-1.40674,2.83105-2.73535,5.50488-4.37549,7.9873l-.06543,.10449c-5.78955,9.7832-9.86768,20.3916-12.12354,31.5332-2.29688,8.30176-2.03467,16.99414,.73242,25.05664,5.59766,18.5332,5.20752,38-1.12793,56.29492l-.04492,.14355c-.92285,3.29492-2.6377,9.41406,3.75439,13.1377,4.39258,2.95312,6.96777,7.87012,6.8916,13.16699l-.00195,.11133,.0083,.11035c.42139,5.66895,1.54883,11.27539,3.35059,16.66504l.07568,.19727c3.03662,7.04004,6.68018,13.87988,10.77881,20.25,3.54199,5.99805,9.80127,9.91504,16.71436,10.47656,15.11182,1.40527,30.47852,2.88379,45.33936,4.31348,48.2168,4.6377,98.0752,9.43457,147.34424,12.54004,29.09326,1.83398,58.59717,3.43555,87.69189,4.75879,5.32715,.24316,10.75879,.3877,16.0127,.52734,9.13672,.24316,18.58594,.49512,27.75781,1.26953,9.63281,.81348,9.63867,2.24609,9.66797,10.19922,.00684,2.0166,.01562,4.30371,.19629,6.94043,.1709,2.46387,3.13184,4.60059,5.0957,4.99023,.24707,.04785,.51855,.07227,.80859,.07227,1.97168,0,4.74609-1.1084,5.55273-3.08301,3.4082-7.29883,4.40527-15.66016,2.80664-23.55664l-.06738-.25977c-1.93164-6.08984-3.53711-12.35938-4.77344-18.63672-.13281-1.34375-.05664-2.69336,.22754-4.01465,.73047-3.40234,2.74219-6.31738,5.66406-8.20703s6.40527-2.52832,9.73047-1.81641c3.80859,.94727,7.61133,1.92871,11.41309,2.91113,10.20312,2.63379,20.75391,5.3584,31.30273,7.34375,9.99414,1.88184,15.50098,2.91699,18.87793,0,3.35156-2.89355,3.14453-8.0791,2.68945-19.50586l-.02344-.25781c-.81543-5.64746-.52148-11.31543,.87305-16.84863,7.87402-24.12695,17.38184-47.98535,28.26465-70.91895,4.83887-6.72461,6.56738-15.19727,4.75-23.26367-.78027-3.62109,.52637-7.31445,3.40918-9.63965l.30273-.28906c7.54883-8.52539,14.83008-17.50391,21.87207-26.18652l2.375-2.92676c2.87793-3.54395,2.39453-6.01562,1.48145-7.46484Zm-5.3623,4.3125l-2.37695,2.92969c-6.96777,8.58984-14.1709,17.4707-21.60059,25.87207-4.24219,3.52441-6.15234,9.03906-4.9834,14.46875,1.52246,6.75781,.04883,13.83984-4.04395,19.42969l-.24023,.4043c-11.02734,23.21484-20.65918,47.37305-28.62695,71.80176l-.0459,.15918c-1.56445,6.1543-1.90625,12.45996-1.01562,18.74414,.32617,8.17676,.55762,14.08008-.96582,15.39551-1.55469,1.34082-7.64062,.19629-14.68555-1.12988-10.38574-1.9541-20.85352-4.65723-30.97754-7.27148-3.81641-.98535-7.63379-1.9707-11.53516-2.93945-4.70898-1.01074-9.5293-.12695-13.57324,2.48828-4.04395,2.61426-6.82715,6.64746-7.83789,11.35547-.40332,1.875-.50391,3.79297-.29883,5.70117l.03223,.21484c1.26562,6.4541,2.91211,12.90137,4.89355,19.16602,1.3418,6.76855,.49023,13.92383-2.40039,20.18848-.25977,.14941-.72266,.31152-.97656,.33496-.29785-.10742-.80859-.47461-1.04492-.74316-.14941-2.33887-.15723-4.42969-.16406-6.2832-.0332-9.17578-.68262-14.01758-14.24707-15.16309-9.31543-.78613-18.83691-1.04004-28.04492-1.28516-5.22949-.13965-10.63867-.2832-15.91895-.52344-29.06543-1.32324-58.53906-2.92285-87.604-4.75488-49.18652-3.10059-99.00342-7.89258-147.17969-12.52637-14.86475-1.43066-30.23535-2.90918-45.38428-4.31836-5.3252-.43262-10.12598-3.4375-12.89307-8.11914-3.98193-6.19141-7.48096-12.75391-10.40137-19.50879-1.63965-4.93262-2.6709-10.06055-3.06494-15.24512,.06201-6.98438-3.36523-13.45508-9.18506-17.32715l-.14062-.08789c-2.28174-1.30859-2.85938-2.63184-1.52637-7.4248,6.65869-19.27637,7.06152-39.78027,1.13623-59.39355-2.47559-7.21777-2.7002-14.91797-.64893-22.26855l.04248-.17773c2.13672-10.60352,6.00977-20.7002,11.51221-30.01074,1.79297-2.72363,3.24316-5.64258,4.646-8.46582,1.03369-2.08008,2.10254-4.23145,3.27441-6.2207l.0498-.08789c2.38965-4.46289,3.23096-9.66113,2.37207-14.64844-.57764-5.4248-4.0127-10.15039-8.99463-12.37207-2.71289-1.48242-4.21289-4.5166-3.7373-7.57812l.02832-.30176c.3584-10.87793-3.52637-21.24219-10.94092-29.2002-4.24023-5.71143-7.11035-12.43262-8.30225-19.44678l-.03125-.15332c-4.68262-19.91455-7.8291-40.35352-9.34766-60.6543-.16992-4.69922-.83545-9.39551-1.96631-13.9126-6.95996-30.24219-12.11475-61.22705-15.32373-92.12402-2.96094-25.63525-8.91064-50.93896-17.7124-75.28271C6.2607,45.46171,4.06686,30.47538,5.36276,15.79423q.88086-10.53955,11.03613-10.77734c3.00439-.0708,50.27881,.09619,105.01855,.28809,66.95605,.23535,142.84961,.50342,160.3374,.41504h.00635c.27686,0,.53369,.09131,.73975,.24854-.9707,.71582-2.88184,1.74219-4.36182,2.53711-3.93213,2.11133-8.82617,4.73975-11.23193,8.25293-5.55322,7.6626-5.54395,17.95166,.03369,25.61865,8.02246,10.85498,18.65137,19.76855,30.73779,25.77686l.19238,.08545c5.44434,2.15674,11.41602,3.12256,17.25781,2.7959,5.1709,.04932,9.78223,3.16113,11.75977,7.94385l.1875,.36523c6.5332,10.50049,11.83398,21.771,15.75488,33.49854l.07324,.19287c1.25293,2.91992,2.90137,5.65332,4.90039,8.12598,3.78613,5.65186,7.15918,11.63965,10.02734,17.80029,1.78711,5.61621,6.22168,9.88379,11.90625,11.4541,13.31445,4.77637,25.5625,12.65967,35.37402,22.74561,4.64062,5.06982,8.84375,10.58984,12.49219,16.40674l.07031,.10547c3.0127,4.30469,6.64062,8.12598,10.78418,11.35645l.14551,.10596c10.47461,7.01514,18.75,16.79248,23.93457,28.2793,4.38574,11.53711,13.41797,20.87646,24.80176,25.64502,3.87598,1.97754,7.63672,4.26514,11.17969,6.80078l.22656,.14404c4.7002,2.65186,8.20996,7.15967,9.62891,12.3667l.07422,.22852c6.16406,16.271,11.06934,33.15576,14.58105,50.18896,.81152,7.64746,6.34961,14.02246,13.75391,15.87207,12.0498,3.35645,20.87109,13.54102,22.47461,25.94629l.11035,.47852c1.05664,3.13086,1.85449,6.37012,2.37207,9.63086-.05078,15.32617,10.56152,21.83887,21.44336,27.19336l.37402,.14844c2.49512,.76074,5.08203,1.14551,7.69043,1.14551,.06445,0,.12891-.00098,.19336,0,1.94434,0,2.94238,.33594,3.29785,.53809-.06934,.24414-.29492,.78906-1.0332,1.69824Z"/></svg>