<?xml version="1.0" encoding="UTF-8"?><svg id="a" xmlns="http://www.w3.org/2000/svg" viewBox="0 0 808.27432 466.02414"><defs><style>.b{fill:#010101;}</style></defs><path class="b" d="M808.21351,385.19699c-.58594-4.05469-5.27344-6.39941-14.67773-11.10254-6.63477-3.0752-12.01465-8.4082-15.15527-15.03125-2.32715-4.83301-5.10449-9.48633-7.79004-13.98535-1.3252-2.22168-2.69629-4.51758-3.99121-6.80273-4.43359-7.72266-10.82422-14.20898-18.4668-18.74902-10.72754-6.45801-22.10645-11.96582-33.78711-16.35547-11.55371-4.53711-23.07129-9.83301-34.20898-14.95508-4.91504-2.25977-9.99609-4.5957-15.02441-6.8418-3.10059-1.82617-6.72461-2.46973-9.72266-1.71582-2.37695,.59668-4.29883,2.03125-5.55664,4.14746-3.76562,6.33789,1.41797,12.47559,5.20215,16.95801,1.12207,1.3291,2.18164,2.58398,2.84082,3.62598,3.91309,6.18652,.37109,11.58398-5.47949,19.11133-.44531,.57324-.88672,1.1416-1.31738,1.70605-4.82812,6.31738-10.01855,11.25586-15.01074,14.28223-.66211,.40137-1.36914,.7373-2.11719,1.09277-2.66699,1.26855-6.31543,3.00293-6.53125,8.45605-.52051,5.42969,2.14258,10.76465,6.85547,13.64355,3.36035,1.93652,6.06641,4.94727,7.6377,8.49414,1.18262,4.65137,2.86035,9.1582,4.4834,13.51953,1.81543,4.87793,3.69336,9.92188,4.79688,15.0166,1.3252,6.12207,.50195,11.15137-.45117,16.97461-.38574,2.35547-.78418,4.79102-1.05078,7.40918-1.76855,17.39941,7.08984,33.51758,21.54297,39.19824,4.24902,1.66992,7.40527,2.73145,10.2168,2.73047,3.88184,0,7.10449-2.02246,11.63281-7.25781,4.9502-5.72363,9.75781-11.70703,14.40723-17.49219,1.96191-2.44043,3.92285-4.88184,5.89844-7.30957,8.0332-7.49414,17.30762-13.29102,27.56738-17.23047l.32617-.15332c1.08203-.60547,4.00195,.24512,6.3457,.92871,1.54395,.4502,3.13965,.91504,4.67969,1.16309,1.46875,.32227,3.01074,.29004,4.46289-.10449l.25098-.08203c3.59766-1.39355,7.39551-2.54004,11.06836-3.64844,9.62793-2.90625,19.58398-5.91113,27.95508-13.74023l1.44434-1.34961c7.75977-7.24316,11.30176-10.5498,10.72363-14.55078Zm-14.13477,10.89551l-1.44922,1.35254c-7.51758,7.03125-16.48828,9.73926-25.9834,12.60547-3.7168,1.12207-7.55859,2.28223-11.29199,3.71973-.65918,.1582-1.35352,.16309-2.01074,.00977l-.18066-.03516c-1.24609-.19336-2.64941-.60254-4.13477-1.03516-3.50488-1.02246-7.12695-2.07812-10.01172-.58691-10.8584,4.19141-20.6709,10.35059-29.16699,18.30664l-.22949,.24609c-2.01953,2.48047-4.02246,4.97363-6.02637,7.4668-4.62109,5.75098-9.40039,11.69824-14.29102,17.35254-5.92285,6.84766-7.29297,6.66113-16.24023,3.14453-14.43945-5.6748-19.6582-21.62207-18.39648-34.03809,.25098-2.4668,.63672-4.82617,1.01074-7.10742,.99219-6.06348,1.92969-11.79004,.40332-18.84082-1.17969-5.44531-3.12012-10.65918-4.99805-15.70215-1.59961-4.29688-3.25293-8.74023-4.37109-13.19531l-.12793-.37988c-1.98242-4.60742-5.4668-8.52344-9.75586-10.99316-3.05078-1.86426-4.78711-5.36621-4.4248-8.92285l.01172-.1709c.07715-2.35742,1.00684-2.91797,3.68359-4.19141,.79004-.375,1.68457-.80078,2.5625-1.33301,5.59961-3.39355,11.11426-8.61621,16.3916-15.52246,.42285-.55273,.85645-1.11035,1.29297-1.67285,5.27539-6.78711,11.83984-15.23438,5.75781-24.85156-.84375-1.33301-2.01074-2.71582-3.24707-4.17969-3.90625-4.62598-6.53125-8.13574-4.72363-11.17871,.57812-.97266,1.3877-1.5791,2.47461-1.85156,.4209-.10547,.87988-.15723,1.3623-.15723,1.49805,0,3.21973,.49414,4.69824,1.38672l.27246,.14258c5.04688,2.25293,10.16211,4.60449,15.1084,6.87891,11.20117,5.15137,22.78418,10.47754,34.50391,15.0791,11.43164,4.29688,22.53516,9.66992,33.01465,15.97949,6.91699,4.10938,12.69043,9.96973,16.69043,16.93555,1.31543,2.32227,2.70117,4.64258,4.04102,6.88672,2.62891,4.40625,5.34766,8.96094,7.57129,13.58008,3.63379,7.66211,9.87109,13.8457,17.49707,17.37988,5.74512,2.87305,11.68652,5.8457,11.89844,7.3125,.20508,1.41504-4.35645,5.67285-9.18555,10.18066Zm-160.86816-182.42676c1.84473-3.76367,.33691-8.31445-3.35742-10.24414-7.49316-5.12793-15.53027-9.52246-23.8916-13.06396l-.10742-.04248c-7.15039-2.64355-14.51758-4.96533-21.64355-7.21094-12.30957-3.87988-25.03906-7.8916-36.83984-13.64258-2.62207-1.27734-6.33887-.61719-10.19434,1.81152-3.93457,2.479-7.89062,6.81348-7.89551,10.92676-.0459,1.6333,.41113,3.21191,1.32227,4.56836l.14746,.19727c2.52246,3.05518,5.01953,6.13574,7.5166,9.21582,7.34961,9.06738,14.9502,18.44287,23.14551,27.04883,5.14551,5.40381,11.43848,6.84619,17.84277,6.8457,3.84473,0,7.72949-.52002,11.42773-1.01465,3.29199-.44092,6.40137-.85693,9.36328-.93262l.19043-.01172c10.42969-1.06445,20.4834-4.78271,29.09375-10.75781,1.69336-.72852,3.0625-2.0293,3.87988-3.69336Zm-4.48926-2.20215c-.30566,.62305-.83105,1.10205-1.48047,1.34863l-.29102,.11084-.25488,.17871c-7.93945,5.56396-17.22949,9.03125-26.87305,10.03125-3.20215,.08887-6.55664,.5376-9.80176,.97217-9.51953,1.27441-18.51074,2.47803-24.98633-4.32324-8.05762-8.46143-15.59473-17.7583-22.88281-26.74902-2.47656-3.05518-4.95312-6.10986-7.4541-9.14062-.29199-.47168-.43652-1.01318-.41797-1.57178l.00195-.10352c-.01074-1.53662,2.1123-4.54004,5.56152-6.71387,2.55078-1.60742,4.55664-1.92871,5.33789-1.54688,12.13379,5.91357,25.04395,9.98242,37.52734,13.9165,7.0498,2.22168,14.33887,4.51904,21.35742,7.11182,8.08496,3.42822,15.85547,7.68555,23.0957,12.65332l.31348,.18311c1.34766,.66113,1.90723,2.2959,1.24707,3.64258Zm-255.13916-88.521c-2.0625-2.55127-4.6748-4.65479-7.20068-6.68896-2.51318-2.02441-4.88721-3.93652-6.73877-6.22998-3.85059-4.76953-6.98828-10.0625-9.32617-15.73242l-.14502-.29541c-2.81982-4.89014-6.0459-9.59766-9.16602-14.1499l-.94922-1.38574c-2.1333-4.32324-7.3667-6.21094-11.77588-4.20898-2.12158,.95801-4.24756,1.9082-6.37305,2.8584-7.46973,3.33887-15.19385,6.79199-22.60498,10.53809-.61035,.29736-1.18848,.66357-1.71777,1.08887-1.89746,1.52344-3.08838,3.69531-3.35254,6.11475-.25879,2.37061,.40186,4.70117,1.8623,6.5791,2.34961,3.68457,4.87891,7.30664,7.32568,10.81104,1.92627,2.75928,3.91748,5.61133,5.79248,8.4541,4.11816,7.71045,13.13574,11.41699,21.49219,8.81201l.19238-.06836c6.625-2.67383,14.06787-1.83301,19.92773,2.24756,2.54248,1.98389,5.99854,2.13379,8.77979,2.25391,.86621,.0376,1.68408,.07324,2.21924,.16357,1.27051,.21533,2.67041,.34521,4.08057,.34521,3.55811,0,7.17773-.8291,8.92139-3.21387,.73291-1.00244,1.72803-3.13965,.15771-6.18701-.35107-.68066-.82227-1.38916-1.40137-2.10596Zm-2.79297,5.34229c-.61523,.84082-4.00635,1.5874-8.13086,.88965-.84229-.14258-1.81152-.18457-2.8374-.229-2.08057-.09033-4.67041-.20215-5.94482-1.22021l-.125-.09326c-4.46484-3.13086-9.67969-4.73633-14.94678-4.73633-3.26123,0-6.54248,.61572-9.67725,1.86621-6.06738,1.84229-12.59521-.88232-15.54785-6.50439l-.12549-.21289c-1.93164-2.93262-3.96631-5.84717-5.93408-8.66553-2.44043-3.49512-4.96387-7.10938-7.27588-10.74121l-.15967-.22266c-.68799-.85645-1.00098-1.9292-.88184-3.021,.11963-1.0918,.65674-2.07178,1.51318-2.75928,.23926-.19189,.5-.35742,.80908-.5083,7.33838-3.70947,15.00684-7.13721,22.42334-10.45264,2.13135-.95264,4.2627-1.90527,6.39453-2.86816,1.99023-.90186,4.35596-.0249,5.27393,1.9585l1.26465,1.9082c3.03564,4.42871,6.17334,9.00732,8.87744,13.67969,2.51416,6.05615,5.87598,11.71143,9.99365,16.81201,2.18799,2.71094,4.88525,4.88281,7.49365,6.9834,2.42773,1.95557,4.72119,3.80225,6.44727,5.93799,.36621,.45264,.65039,.87451,.84619,1.25391,.22559,.4375,.33057,.83496,.25,.94531ZM118.66566,.97238c-1.65332-.25244-3.29004-.31348-4.87305-.37305-.62891-.02344-1.25781-.04688-1.88477-.08301-8.30518-1.78564-15.04297,1.39209-21.55811,4.46533-2.28906,1.08008-4.45117,2.1001-6.68701,2.91846-8.17822,2.99414-8.83691,9.78369-9.36621,15.23926-.06543,.67285-.13037,1.34424-.20898,2.00732-.82715,7.00488,4.6875,8.74609,7.98242,9.78662,.87842,.27734,1.70947,.54004,2.40625,.84961,5.58105,2.81299,11.41748,5.25098,17.34619,7.24561l.19238,.05615c5.5625,1.38721,11.28809,2.14111,16.98535,2.23975,.1001,.00293,.19971,.00439,.29932,.00439,2.87012,0,5.55273-1.25342,7.39844-3.46875l.21094-.29395c3.63818-5.93848,6.35645-12.37158,8.07959-19.12109l.04199-.19775c.97461-5.71436,.15234-10.43555-2.44336-14.03174-2.75537-3.81738-7.43945-6.25439-13.92139-7.24316Zm11.45264,20.33545c-1.58398,6.16357-4.0625,12.0415-7.36914,17.47607-.91553,1.02393-2.22949,1.57373-3.62988,1.54199-5.31836-.09229-10.63281-.78809-15.79785-2.06836-5.68994-1.91943-11.28955-4.2627-16.64453-6.96484l-.09814-.04688c-.97559-.43994-2.00635-.76562-3.00342-1.08057-3.87988-1.2251-4.83057-1.82031-4.52197-4.43164,.08203-.69775,.15088-1.40381,.21973-2.11133,.54834-5.65088,1.13672-9.20654,6.1084-11.02686,2.44727-.89551,4.81348-2.01221,7.10156-3.0918,6.07178-2.86475,11.80615-5.57129,18.53418-4.06396l.39209,.05566c.72998,.04541,1.46289,.07275,2.1958,.10059,1.50928,.05664,2.93506,.10986,4.30664,.31885,5.10645,.7793,8.67969,2.53809,10.62109,5.22754,1.76807,2.44922,2.30127,5.86914,1.58545,10.16553ZM502.28871,150.05295l-.77637-.05566c-6.05176-.48779-12.20703-1.10547-18.15918-1.70264-6.60352-.6626-13.43262-1.34766-20.17578-1.86182l-.14453-.00684c-4.5293-.0835-9.12305,.17383-13.62598,.76562l-.39746,.08545c-1.2959,.39209-2.31055,1.44873-2.65039,2.7583l-.09082,.34961,.02148,.74951c.02539,1.38135,.06152,3.27295,1.45312,4.34863,1.91895,1.60254,4.07812,2.86621,6.41699,3.75586l.25781,.08203c15.07031,3.93213,30.58594,5.92188,46.1582,5.92188,.83691,0,1.67578-.00586,2.5127-.01709l.38477-.03516c2.86328-.48633,9.76758-2.00537,12.0459-5.59717,.79004-1.24561,1.00293-2.63672,.61621-4.02148-1.19922-4.29932-7.77637-5.10303-13.84668-5.51904Zm.53516,10.17578c-15.86816,.19092-31.66797-1.72119-47.00879-5.71045-1.58203-.61523-3.05859-1.45264-4.44434-2.53174,3.80957-.44141,7.67578-.6333,11.49805-.56299,6.66113,.50928,13.43457,1.18896,19.98535,1.84619,5.97656,.59961,12.15625,1.21924,18.25586,1.71094,.22852,.01855,.51074,.03809,.83691,.06055,7.0918,.48584,8.89062,1.43018,9.34473,1.89697-.47559,.86816-3.7832,2.46729-8.46777,3.29053Zm-14.99805,23.97607c-3.41113-.2041-7.07715-.03516-8.82715,2.4917-1.65234,2.38574-.58203,5.45557,.3584,7.53809,1.85254,4.19775,4,8.31787,6.39355,12.26514,1.50391,2.43262,3.67773,4.01562,6.28613,4.57715,.70996,.15283,1.4375,.229,2.17969,.229,2.62109-.00049,5.41309-.94971,8.19238-2.80371,.21973-.12598,.43555-.25977,.64258-.39941,2.34766-1.5791,3.94043-3.97803,4.4834-6.75488,.53711-2.74121-.01172-5.52686-1.54492-7.85645-3.66113-6.50293-10.75391-10.13037-18.16406-9.28662Zm14.80273,16.18213c-.28711,1.46631-1.12793,2.73291-2.37109,3.56885-.12305,.0835-.25098,.16162-.38184,.23438l-.17676,.10889c-2.4043,1.61914-4.75391,2.29053-6.60938,1.88965-1.26465-.27197-2.30371-1.05225-3.0752-2.2998-2.27051-3.74463-4.31641-7.67236-6.0918-11.69287-.77344-1.71387-.80371-2.43652-.78711-2.65186,.24219-.13623,1.26855-.54932,4.59961-.33545l.23926,.01562,.2373-.03027c5.4873-.69043,10.77051,1.98096,13.45801,6.81592l.11133,.18066c.83301,1.23975,1.13477,2.72998,.84766,4.19629ZM20.48646,30.42941c-2.58496-.90039-5.56738-.19922-7.78564,1.83203C7.95619,36.60226,2.10804,45.09836,.53431,51.80246c-.42334,1.80127-1.54639,6.58594,1.70703,8.05127,.47559,.21387,.97266,.32373,1.50195,.32373,2.18848,0,4.92529-1.87744,8.92236-6.02197,3.09082-3.20459,6.12842-6.9751,7.29834-8.62891,.20166-.28516,.46143-.62549,.75049-1.00684,1.88184-2.47803,4.45947-5.87207,3.96289-8.96729-.39551-2.46533-1.92285-4.33252-4.19092-5.12305Zm-3.75391,11.06641c-.32812,.43262-.62207,.82031-.85059,1.14355-2.49951,3.5332-7.83057,9.46436-10.7583,11.68506,.06104-.37939,.15039-.83545,.27783-1.37939,1.29346-5.50684,6.56348-13.2334,10.67432-16.99512,.70264-.64258,1.4873-.89893,2.12549-.89893,.23779,0,.45459,.03564,.63965,.1001,.51172,.17822,.79785,.55762,.89893,1.18799,.10693,1.05615-2.23682,4.14258-3.00732,5.15674Z"/></svg>