<?xml version="1.0" encoding="UTF-8"?><svg id="a" xmlns="http://www.w3.org/2000/svg" viewBox="0 0 567.20956 832.99429"><defs><style>.b{fill:#010101;}</style></defs><path class="b" d="M282.95967,832.99429c-135.1416,0-269.94922-.09375-273.91455-.2832-3.16748-.15039-5.43896-1.03906-6.94336-2.71777-2.13477-2.38086-2.22656-5.88281-2.03467-8.99414,.47461-7.70117,1.11865-16.00781,2.02734-26.14062,1.18945-13.28418,2.36523-26.57129,3.54053-39.85742,3.5625-40.27344,7.24658-81.91699,11.29932-122.83887,.97705-9.86523,3.17822-19.69824,5.30664-29.20703,.87793-3.9209,1.78516-7.97461,2.58936-11.95801,.61426-4.01562,1.64209-7.98047,3.05615-11.78516,.021-.05664,.04443-.11328,.06934-.16797,2.13086-4.66113,.8623-10.19824-3.08496-13.4668-.16016-.13281-.30371-.28516-.42627-.4541-2.7583-3.78711-7.64062-5.46875-12.14746-4.18945-3.49902,.88867-5.88818,1.3584-7.77734-.00879-2.04248-1.47754-2.22852-4.13672-2.53662-8.54297-.07617-1.09277-.1792-2.18457-.28223-3.27539-.1416-1.49512-.2876-3.04199-.36572-4.59375-.39258-4.82031,.86963-9.78027,3.55957-13.8916,1.89307-2.84863,3.68066-5.85156,5.40967-8.75488,1.5249-2.56152,3.10107-5.20801,4.75928-7.77148,3.10596-6.35352,8.36572-11.43359,14.82666-14.31543,.04834-.02148,.09717-.04102,.14697-.05957,4.91602-1.8291,7.89551-6.74219,7.24512-11.94727-.8125-7.62305,1.55225-15.28516,6.48486-21.09082,2.00537-3.02441,3.56445-6.31543,4.63428-9.7832,.03174-.10352,.06982-.2041,.11475-.30273,7.26123-15.89453,16.17383-31.09961,26.49561-45.19922,3.40869-7.95557,3.2627-16.95654-.39795-24.79541-2.26123-2.43311-5.13184-4.20068-8.32666-5.12305-8.55371-2.05078-20.54248-8.66016-26.17822-41.94873l-.19873-1.17285c-2.66895-15.74902-5.69434-33.59961-4.26904-50.01123,.92676-14.39746,1.83398-28.85059,2.74072-43.30273,4.81836-76.79639,9.80078-156.20703,18.51465-234.13867C57.95577,1.43277,59.67159-.07895,69.02706,.10611c11.94238,.23682,49.75391-.00488,57.32471-.10303,2.9751-.03564,6.00928,.20947,8.00244,2.26855,2,2.06641,2.14844,5.15186,2.01074,8.17822-.76123,16.69141-1.58691,33.65723-2.38525,50.06494-.45801,9.41357-.91602,18.82715-1.36523,28.24121-.10791,2.25635-.14648,4.5791-.18408,6.82568-.07861,4.6875-.15918,9.53516-.85938,14.29443-.63867,5.74414,1.2417,11.5874,5.16992,15.94434,.05127,.05664,.09961,.11572,.14551,.17676,2.09277,2.79736,4.16992,5.66748,6.17822,8.44336,3.00293,4.15039,6.1084,8.44189,9.29736,12.5293,3.94971,5.06494,5.4624,11.56641,4.15625,17.85107-2.16309,15.00537-2.00293,15.25781,5.71533,27.45605l1.3916,2.20312c.03711,.05908,.07178,.11914,.10352,.18115,3.27539,6.31104,9.4502,10.54297,16.51807,11.32129,6.63525,.8252,12.23633,4.90527,15.0415,10.92773,2.39746,4.19873,5.04248,8.38525,7.60059,12.43506,3.85645,6.10449,7.84375,12.4165,11.146,19.00781,3.87256,7.24365,9.77002,13.21387,17.02344,17.20654,5.96631,3.13525,11.3833,7.22852,16.06006,12.14551,1.51709,1.39795,3.38916,2.33447,5.41699,2.70898,.06055,.01123,.12109,.0249,.18066,.04053,1.78027,.46729,3.63281,.72949,5.59424,1.00732,1.88477,.26709,3.83105,.54297,5.76074,1.01953,2.61328,.27588,4.97705,1.52832,6.67676,3.54248,1.74609,2.06934,2.58203,4.69434,2.35352,7.39209-.08984,1.05957-.34375,2.09033-.75439,3.06885-1.7627,7.26465-3.66504,14.60889-5.50586,21.71387-1.89355,7.30908-3.85156,14.86719-5.65186,22.32031-.62988,2.60791-1.26514,5.21533-1.8999,7.82275-3.41113,14.00537-6.93799,28.48779-9.59082,42.8457-.0127,.06787-.02783,.13477-.0459,.20166-2.08789,7.68311,.93066,15.85596,7.51221,20.33691,2.68555,1.80957,5.21484,3.86719,7.66064,5.85693,1.20801,.98242,2.41602,1.96582,3.64404,2.91992,2.44336,1.35547,4.12451,3.74902,4.61719,6.44531,9.67383-12.60156,23.30713-28.49023,33.29443-26.78027,3.71387,.63232,6.40137,3.43018,7.9873,8.31543,1.14355,3.5249,1.92285,7.14453,2.67773,10.64551,.71387,3.31348,1.45215,6.73926,2.4834,9.96289,3.49121,10.91016,7.08301,20.33691,10.97949,28.81934,.56348,1.22559,1.26855,2.4375,2.01465,3.7207,1.14062,1.96094,2.31934,3.98828,3.08008,6.24414,.58594,1.73926,.73438,3.37402,.87891,4.95508,.10742,1.17871,.20898,2.29199,.49316,3.33691,1.21582,4.46973,6.98633,12.32324,11.2207,14.22949l.9043,.40625c2.88867,1.29785,5.87695,2.63965,8.72168,4.24121,.65723,.37012,1.3291,.72363,2.00195,1.07812,2.85742,1.50684,6.02344,3.17578,8.23047,6.15332,.51367-.14355,1.03223-.18164,1.54297-.11719,.7666,.09668,1.49219,.43457,2.0957,.97559,.4209,.37793,.77734,.84961,1.05664,1.40332,.56152,1.10645,.69629,2.22656,.78613,3.15527,.03125-.01562,.06055-.03125,.08887-.04492l.18555-.09375c1.35742-.67676,2.99414-.41602,4.49414,.7168,1.91699,1.45215,3.71094,4.43164,3.11523,7.54492-1.89844,9.9375,2.20801,18.28711,6.55664,27.12695,.74609,1.51758,1.49121,3.03418,2.20605,4.55664,.93066,1.70215,2.46387,2.94629,4.32227,3.50684,1.88086,.56836,3.86621,.36719,5.5957-.55957,.81836-.43848,1.53809-1.02148,2.13867-1.73242,.37793-.42871,.70801-.91016,1.05664-1.41895,.39062-.57031,.79395-1.16016,1.29297-1.74219,.57617-.67188,1.10059-1.45898,1.65527-2.29297,1.61133-2.4209,3.61035-5.42285,7.78711-6.33594,6.17383-2.25586,13.0332-2.47656,19.33984-.61426,.10254,.03027,.20312,.06738,.30176,.11035,1.02246,.45117,2.12891,.7998,3.30078,1.16895,.89844,.28223,1.82617,.57422,2.75293,.92676,3.83496,1.60645,8.08887,1.18164,11.45898-1.10254,.03125-.02148,.06348-.04199,.09668-.0625,6.27051-3.8418,13.13867-6.32324,20.41504-7.375,6.79199-1.34375,13.65234-1.21875,20.38965,.37012,6.80371,1.82227,13.92383,1.8291,20.66211,.03613,8.05469-2.1748,11.99609-4.77832,11.15625-12.96973-.5332-5.2041,3.53613-9.69336,10.12793-11.16992,.08789-.01953,.17676-.03418,.26562-.04492,5.14844-.58301,10.04297,2.39258,11.88965,7.23828,.52441,1.33301,.93457,2.74609,1.21094,4.17773,1.11328,5.75684,4.97363,10.62207,10.32715,13.01465,7.18066,2.95996,10.75195,10.55859,9.07324,19.37207-.13672,8.03711-.06348,67.32715,.01367,130.06348,.08203,66.81934,.16699,135.91309-.00977,144.03809h0c-.1543,7.12012-1.37793,8.40723-8.17871,8.61035-6.30176,.1875-141.14941,.28125-275.66553,.28125ZM32.54317,581.0353c-1.28662,3.47852-2.22119,7.10352-2.77881,10.77344-.00586,.04004-.01318,.08008-.021,.11914-.81738,4.05371-1.73535,8.15332-2.62305,12.11914-2.09619,9.36328-4.26318,19.04492-5.21045,28.60742-4.05029,40.89648-7.73291,82.52734-11.29443,122.78711-1.17578,13.28809-2.35107,26.57617-3.54102,39.86328-.9043,10.08594-1.54541,18.34863-2.01709,26.00195-.17676,2.86816,.06738,4.56836,.76758,5.34961,.55713,.62109,1.72021,.97754,3.45801,1.06055,7.90527,.37598,536.56689,.37402,549.19385-.00195,.89355-.02637,2.48633-.07422,3.08594-.23535,.18066-.65234,.2207-2.46973,.24316-3.48633,.1748-8.06738,.08984-77.13184,.00781-143.92285-.07812-63.3584-.15137-123.2041-.00879-130.38379,.00391-.14844,.01953-.2959,.04883-.44043,.98047-4.9043-.02734-11.51953-6.09961-14.02344-6.90723-3.08594-11.84082-9.30371-13.26367-16.66016-.21875-1.13184-.54297-2.24902-.96484-3.32129-1.02637-2.69434-3.68652-4.35059-6.53516-4.08789-3.0498,.7168-6.43066,2.63477-6.11035,5.75,1.25391,12.23242-6.38965,16.02832-14.83691,18.30859-7.58984,2.02148-15.60156,2.01367-23.17773-.0166-5.9834-1.41211-12.15137-1.52051-18.25684-.30176-.04395,.00879-.08887,.0166-.13379,.02246-6.60547,.94727-12.84082,3.19043-18.53418,6.6709-4.76562,3.20312-10.7666,3.79395-16.06836,1.57227-.71289-.26953-1.53223-.52734-2.39941-.80078-1.19922-.37695-2.43848-.7666-3.66309-1.29492-5.29492-1.5293-11.0459-1.31445-16.21289,.61328-.125,.04688-.25391,.08301-.38574,.10938-2.16992,.43066-3.23926,1.89453-4.80469,4.24512-.61328,.92188-1.24707,1.875-2.02148,2.77637-.32227,.37695-.63379,.83203-.96387,1.31348-.41895,.61133-.85156,1.24414-1.39844,1.8623-.97363,1.15332-2.18262,2.13281-3.55859,2.87012-2.90625,1.55859-6.24609,1.8916-9.40332,.94043-3.15723-.95312-5.75488-3.0791-7.31445-5.98535-.02148-.04004-.04199-.08008-.06152-.12207-.70996-1.5166-1.45215-3.02539-2.19531-4.53613-4.51953-9.18945-9.19336-18.69141-6.98047-30.27246,.17676-.9209-.56152-2.05371-1.10352-2.53125-.82031,.39746-1.85156,.81836-3.02051,.81934h-.00977c-1.41699,0-3.10449-.84961-3.58887-3.23535-.11328-.5625-.16504-1.10352-.20996-1.58203-.01758-.18945-.03516-.37695-.05664-.55371-.5,.30957-1.09082,.50195-1.86621,.33594-.76367-.16504-1.4082-.67969-1.73926-1.3877-1.37695-3.01074-4.17773-4.4873-7.4209-6.19629-.71484-.37598-1.42773-.75293-2.12402-1.14551-2.64746-1.48926-5.53027-2.78418-8.31738-4.03711l-.9082-.4082c-5.83203-2.625-12.42285-11.70703-13.99219-17.47559-.39941-1.4668-.52539-2.85449-.64844-4.19531-.12305-1.35254-.23926-2.63086-.6377-3.8125-.59863-1.77539-1.60156-3.50098-2.66406-5.32715-.77246-1.3291-1.57227-2.70312-2.23535-4.14648-3.98242-8.66797-7.64453-18.2793-11.19824-29.38379-1.10645-3.45508-1.87012-7.00293-2.60938-10.43359-.72852-3.37842-1.48145-6.87207-2.5459-10.15479-1.45605-4.48438-3.4248-4.81982-4.07129-4.93018-3.15918-.53564-11.12402,2.10889-29.20166,25.8291l-.16602,.21777c-1.38721,1.82031-3.63525,2.61621-5.47168,1.93164-.62744-.2334-2.66064-1.23926-2.46631-4.34766,.06738-1.59277-.83008-3.14551-2.28857-3.9043-.13232-.06934-.25781-.14941-.37549-.24023-1.31592-1.01855-2.60889-2.06934-3.90137-3.12109-2.46875-2.00879-4.80029-3.90527-7.30957-5.59619-8.32373-5.66748-12.15332-15.9751-9.56055-25.68555,2.67627-14.46387,6.21143-28.98096,9.63135-43.02148,.63428-2.60449,1.26855-5.20898,1.89746-7.81348,1.81006-7.49365,3.77344-15.07178,5.67188-22.40039,1.85352-7.1543,3.76953-14.55176,5.53711-21.8457,.03613-.14893,.08594-.29443,.14893-.43457,.23779-.53027,.3833-1.09229,.43213-1.6709,.23926-2.82129-1.8623-5.31152-4.68408-5.55029-.13672-.01172-.27197-.03467-.40479-.06836-1.72998-.43945-3.52246-.69336-5.4209-.9624-1.98779-.28174-4.04199-.57275-6.07422-1.09912-2.95557-.56396-5.67871-1.94629-7.88086-4.00195-.03711-.03467-.07275-.07031-.10742-.10693-4.31201-4.54443-9.31055-8.32715-14.85693-11.24219-8.146-4.4834-14.73389-11.15332-19.09473-19.31104-3.22168-6.42871-7.14209-12.63428-10.93311-18.63574-2.60693-4.12598-5.30225-8.39258-7.76953-12.72021-.03613-.06396-.06982-.12939-.10059-.1958-2.06104-4.49365-6.2207-7.54102-11.12695-8.15137-8.66162-.95312-16.26367-6.14307-20.32324-13.88721l-1.3335-2.11035c-8.24072-13.0249-8.80908-14.40527-6.42725-30.92188,.00781-.0542,.01758-.10791,.02881-.16113,1.03027-4.86377-.13281-9.90186-3.18994-13.82275-3.24414-4.1582-6.37646-8.48682-9.40576-12.67334-1.97559-2.73047-4.01807-5.55322-6.06494-8.29102-4.83105-5.40771-7.13965-12.63428-6.33594-19.84521,.66406-4.52637,.74268-9.20898,.81836-13.7373,.03809-2.28467,.07764-4.64697,.18896-6.98047,.44873-9.41553,.90723-18.83105,1.36523-28.24609,.79834-16.40381,1.62402-33.36621,2.38428-50.04932,.11084-2.43652-.09375-3.94141-.6084-4.47314-.50928-.52588-1.96143-.78662-4.34473-.74609-7.58691,.09814-45.49707,.34131-57.48926,.10205-1.89258-.0376-5.06055-.10059-5.77441,.54688-.70996,.64453-1.04395,3.62891-1.2876,5.80762-8.7002,77.81055-13.67871,157.15967-18.49365,233.896-.90674,14.45508-1.81348,28.91113-2.74512,43.3667-1.37402,15.83008,1.46631,32.59033,4.21338,48.79883l.19873,1.17334c5.15332,30.43848,15.28857,36.22705,22.46338,37.93311,.03662,.00879,.07275,.01807,.1084,.02832,4.23633,1.21045,8.02832,3.58594,10.96582,6.87061,.15674,.1748,.2876,.37061,.38916,.58203,4.48291,9.3125,4.67139,20.08105,.51709,29.54492-.07324,.16748-.16504,.32666-.27344,.47412-10.15918,13.84619-18.93262,28.78369-26.07861,44.40186-1.22559,3.91992-3.00391,7.6377-5.28711,11.05273-.05566,.08301-.1167,.16406-.18213,.24023-4.10693,4.77734-6.07959,11.11035-5.41211,17.37598,.93066,7.44336-3.3374,14.51367-10.39014,17.17773-5.40039,2.42871-9.78906,6.7002-12.36182,12.03516-.0459,.09473-.09766,.18652-.15479,.27441-1.63672,2.52344-3.21533,5.1748-4.7417,7.73828-1.76025,2.95605-3.58057,6.01367-5.53223,8.9502-2.07471,3.1709-3.05273,7.01562-2.74463,10.81055,.07764,1.51953,.2124,2.94434,.35449,4.45215,.10693,1.13086,.21338,2.2627,.29248,3.39551,.12402,1.77148,.2749,3.92871,.5376,4.75977,.84082-.01367,2.79541-.50977,3.48926-.68555,6.34766-1.80469,13.28369,.52539,17.30176,5.82129,5.47217,4.71094,7.21387,12.50781,4.24365,19.10742Zm531.76172,243.0127h0Z"/></svg>