<?xml version="1.0" encoding="UTF-8"?><svg id="a" xmlns="http://www.w3.org/2000/svg" viewBox="0 0 505.80374 835.84277"><defs><style>.b{fill:#010101;}</style></defs><path class="b" d="M498.74702,529.89746c-5.7832-8.71387-8.31348-19.23438-7.12305-29.62402l.01367-.15039c.44629-6.96875,1.51465-13.94238,3.17578-20.72852,5.54395-22.65723,4.4873-45.97949,3.46484-68.5332-.18457-4.06348-.36816-8.12305-.51465-12.17383-.93652-25.95654-1.87891-53.37402-3.05566-88.8999-.59863-18.08301-1.18848-36.1665-1.77832-54.24951-1.29688-39.78174-2.63867-80.91797-4.05957-121.37549-.03613-1.02832-.05176-2.06396-.06836-3.10107-.12695-7.92627-.26953-16.90918-9.21973-23.18652-.56055-.39307-1.15039-2.70801-1.46777-3.95166-.1748-.68359-.34668-1.354-.53516-1.97705-.64941-2.14502-1.31836-4.28711-1.9873-6.4292-2.07812-6.65381-4.22656-13.53369-5.70801-20.36133-.03027-.14014-.06445-.27881-.09766-.39209-1.7334-6.21875-5.0791-11.90186-9.67578-16.43555l-.08301-.0791c-9.20117-8.4082-14.75195-20.37402-15.22949-32.8291l.00098-.10254c.09375-1.79102,.19238-3.43945,.28223-4.95605,.56641-9.53418,.85156-14.32031-2.1709-17.44189-3.10254-3.20459-8.02051-3.07227-18.79883-2.7793-1.70312,.0459-3.55859,.09619-5.58008,.13818-1.41211,.02881-293.98877,.1377-303.36035-.02686-.85986-.03271-1.6748,.22656-2.4751,.71729-1.63281,.99951-2.69287,2.68457-2.9082,4.62354-.21875,1.97021,.49219,3.96338,1.90234,5.33252,.83447,.80957,1.76807,1.24805,2.86963,1.30713,7.90771,.18945,14.53516,5.73486,16.11621,13.48535l.02393,.10693c2.4126,9.96045,8.51367,18.45947,17.21094,23.95312,2.75781,2.22217,5.31055,4.72705,7.58691,7.4458,.17334,.20703,.36279,.40234,.56836,.5874,8.69336,7.78906,11.67334,20.32422,7.41357,31.19824-.0791,.20264-.14648,.41162-.20215,.62646-2.38135,9.26074-6.34424,17.94629-11.78564,25.82422-3.65576,4.6333-6.41992,9.83252-8.23047,15.49951-4.11914,13.64404-15.35596,23.87305-29.3252,26.69629l-.1958,.04639c-6.65039,1.81592-13.34473,3.46094-20.77783,5.27002-5.73486,1.39648-12.51562,3.01904-19.24805,4.45312-4.86084,.89941-8.95703,4.13525-10.92139,8.57568-.5708,1.19385-1.0918,2.40479-1.59521,3.57617-.77881,1.81152-1.51611,3.52539-2.40332,5.12695-.16992,.23584-.33203,.47705-.4873,.72559-1.86865,2.9917-2.45996,6.53223-1.66504,9.96875,.79443,3.43652,2.87939,6.35791,5.87158,8.22607l.17383,.10107c8.7583,4.68457,12.50488,15.1377,8.71387,24.31445-.1792,.43457-.3042,.85059-.38184,1.26953-.33057,1.7832-.42578,3.60254-.28271,5.40869l.01318,.13086c.62012,5.01416-1.99414,9.91113-6.49902,12.18262-9.63672,4.83105-15.51953,14.90967-14.98633,25.68555-.03564,.56689-.07812,1.1333-.12061,1.7002-.08008,1.06104-.15918,2.12158-.19775,3.18457-.17773,4.86035-1.74316,5.84521-4.83398,6.03857-2.47607,.21387-4.91455,.75879-7.19141,1.6001-7.46289,2.58447-17.20654,7.58008-15.66016,21.11426,.88379,6.69922-2.23584,13.36182-7.94727,16.97363l-.1123,.07471c-10.42969,7.27295-15.28271,19.96826-12.36377,32.34229,.30469,1.83643,.50244,3.68457,.71191,5.6416,.32275,3.01953,.65674,6.14209,1.41846,9.21533,3.1499,12.70557,6.40723,25.84375,10.53174,38.74268,1.98096,5.57275,4.99463,10.62598,8.91602,14.9707,5.34668,6.18359,11.06494,12.17773,16.59424,17.97461,2.74023,2.87305,5.57324,5.84277,8.31738,8.79004,12.08496,14.16016,26.24561,26.2959,42.08838,36.06836l.10498,.06152c2.70361,1.51953,5.18457,3.49219,7.81104,5.58105,1.71875,1.36621,3.49609,2.78027,5.36182,4.07324l.24365,.15234c2.84131,1.58984,4.3291,4.80469,3.70117,8l-.03174,.19727c-.78516,6.13574-1.22607,12.38574-1.30859,18.52148-.3208,9.8291,3.15918,14.17871,12.41309,15.51465l2.29199,.33105c9.52344,1.37695,19.37109,2.80176,29.15918,3.54102,6.83203,.5166,12.41699,3.87012,18.33008,7.4209,2.85156,1.71191,5.80078,3.4834,8.92725,4.93457,.18213,.08398,.2793,.20996,.29004,.27246,.71094,4.02734-.71338,7.93457-2.22168,12.07129-.85742,2.35156-1.74365,4.7832-2.27002,7.33105-1.70215,6.14746-4.01611,12.15527-6.87744,17.85742l-.08252,.17969c-1.89941,4.50391-3.83984,8.99121-5.77979,13.47852-3.71143,8.58398-7.5498,17.45996-11.00391,26.2627-1.73047,4.10254-1.94141,8.69922-.5957,12.93945,.06152,.19434,.13184,.38574,.20947,.5791,5.33838,13.2334,14.02881,24.96289,25.13135,33.92188,.15869,.12793,.32275,.24805,.48535,.35547,3.4541,2.28906,6.73438,4.88574,9.77246,7.74219,12.06006,13.4043,28.5791,21.81348,46.51465,23.67871l.11035,.00977c7.19189,.48145,13.24414,5.74512,14.71826,12.80078l.04736,.19434c4.2793,15.31445,11.16455,29.61914,20.46436,42.51855l.14258,.18262c2.49219,2.94629,3.02734,7.07617,1.37793,10.55664-2.74414,4.50098-4.36133,9.65625-4.67871,14.91895-.02637,.42676-.01074,.8623,.0459,1.29785,1.80176,13.88867,7.83301,26.61328,17.49219,36.85059,.8457,.85547,1.79785,1.60547,2.82812,2.22852,2.33008,1.41211,4.94531,2.13672,7.60156,2.13672,1.17676,0,2.3623-.1416,3.53516-.42969,3.81836-.9375,7.04297-3.30566,9.09863-6.69824,3.62207-6.13965,8.81543-11.23828,15.01172-14.73926,.25-.13965,.49023-.30078,.73047-.48828,10.53125-8.27344,25.32031-9.20215,36.77539-2.32129,.14258,.08789,.29199,.16992,.4375,.24121,9.52539,4.72168,17.94238,8.57324,25.73242,11.77637,2.68066,1.10352,8.66797,1.61914,11.0625-1.26562l.07812-.09863c2.31152-3.04004,3.34668-6.80371,2.91309-10.59473-.05566-.49512-.17871-1.00586-.36816-1.52832-1.48242-4.0459-3.25586-8.03027-5.30566-11.91504-3.49121-9.125-.00781-19.50391,8.2832-24.67676l.13379-.08789c5.96289-4.17969,12.91602-6.99316,20.2041-8.15332,3.73535-.71973,7.49609-1.59668,11.17676-2.60742,1.68164-.46094,3.0752-1.55176,3.9248-3.07129,.8457-1.51172,1.0459-3.25977,.5625-4.92285l-.79297-2.73633c-1.18848-4.11035-2.21582-7.66016-3.34961-11.26074-1.62402-5.15625,.06348-6.80762,2.12891-7.8252l.16406-.08691c5.64746-3.22852,9.48047-8.99023,10.28125-15.43945,1.37695-5.8291,2.23535-11.8125,3.06543-17.59961,.17773-1.2373,.35449-2.47461,.53711-3.70996l.62109-4.19922c1.70605-11.53809,3.4707-23.46875,4.90625-35.27148,.43164-3.67578,2.11328-7.13184,4.7373-9.73828,5.87109-5.32129,11.03906-11.38574,15.36621-18.03711,.05762-.08984,.11426-.18262,.18457-.30078l.83594-1.4502c5.16797-8.96289,10.51074-18.22949,16.95898-26.23242,1.07324-1.33203,2.38477-2.76562,3.77344-4.28418,5.02637-5.49414,10.72363-11.72266,11.12695-19.21191l.00098-.00293c.12109-2.28906,.29688-4.64941,.4668-6.93066,1.00391-13.45996,2.04102-27.37891-6.39355-40.04688Zm.41113,39.60059c-.17285,2.3125-.35156,4.7041-.47656,7.05566-.28809,5.34766-5.21582,10.73438-9.5625,15.4873-1.4541,1.58887-2.82715,3.08984-4.01855,4.56934-6.74121,8.36523-12.20312,17.83789-17.48438,26.99902l-.86035,1.48828c-4.0498,6.22461-8.89648,11.9082-14.4043,16.89258l-.09375,.08789c-3.61719,3.56641-5.93555,8.30859-6.52637,13.34277-1.4248,11.71289-3.18359,23.60547-4.88379,35.10547l-.62109,4.20117c-.18359,1.24316-.3623,2.48828-.54102,3.7334-.81934,5.71094-1.66602,11.61523-3.00293,17.23145l-.06152,.35156c-.53027,4.60742-3.23828,8.73535-7.25,11.05859-3.21094,1.61328-8.0332,5.67676-5.1084,14.96484,1.1123,3.53223,2.12988,7.05078,3.30859,11.125l.79492,2.74316c.03223,.11133,.01953,.21875-.03711,.32031-.04199,.07422-.12402,.17285-.27637,.21484-3.53223,.96875-7.13965,1.81055-10.62695,2.4834-8.0625,1.28223-15.85645,4.42969-22.54688,9.10449-10.66992,6.7041-15.14551,20.0918-10.6416,31.86133,.09668,.25488,.20996,.50195,.33594,.74023,1.88867,3.57227,3.55176,7.30762,4.93848,11.08984,.03711,.10254,.04395,.15137,.04395,.15234,.24316,2.12988-.29297,4.24219-1.51367,5.99023-.81543,.27246-3.02637,.26367-4.29785-.25781-7.6582-3.14941-15.9502-6.94531-25.33398-11.59473-13.60352-8.17285-31.12402-7.07422-43.56641,2.70703-7.12012,4.02344-13.08008,9.87402-17.21875,16.88867-1.20605,1.99219-3.11621,3.39551-5.37891,3.9502-2.26074,.55762-4.60449,.19629-6.59766-1.01172-.61035-.36914-1.17285-.8125-1.62207-1.26562-8.73535-9.25977-14.21875-20.82812-15.85645-33.45117-.00781-.05957-.01074-.11719-.00781-.16699,.26172-4.33203,1.60352-8.57324,3.88086-12.2666l.13965-.25391c2.74902-5.60645,1.94336-12.30273-2.04688-17.09668-8.83496-12.27539-15.38281-25.88086-19.46387-40.44336-2.05469-9.61035-10.30566-16.77344-20.11279-17.45508-16.43457-1.72266-31.56934-9.43457-42.625-21.72363-.12158-.13477-.25-.26562-.37158-.37891-3.26074-3.06348-6.80811-5.87109-10.5752-8.37109-10.30908-8.31836-18.37842-19.20996-23.3335-31.49219-.01953-.04883-.03809-.09766-.05518-.15039-.91553-2.88379-.77197-6.00781,.43213-8.86621,3.44531-8.77637,7.2627-17.60547,10.95459-26.14258,1.90137-4.39746,3.8667-8.94238,5.7627-13.43848,3.01514-6.02344,5.45459-12.36719,7.25391-18.86523,.03418-.125,.06494-.25195,.08838-.36914,.44043-2.12891,1.21484-4.25195,2.03467-6.50098,1.71289-4.69824,3.4834-9.55566,2.49365-15.16895-.35742-2.02441-1.73096-3.77148-3.67334-4.67188-2.83691-1.31738-5.52197-2.92969-8.36475-4.63672-6.25146-3.75391-12.71631-7.63574-20.96631-8.25879-9.58398-.72461-19.32861-2.13379-28.75244-3.49707l-2.29395-.33105c-6.2041-.89551-7.49561-2.56152-7.27197-9.4375,.08057-5.93555,.50098-11.9248,1.25-17.80566,1.06641-5.66211-1.55078-11.34277-6.54346-14.21094-1.66406-1.16016-3.25488-2.42578-4.93652-3.7627-2.67969-2.13086-5.4502-4.33398-8.55029-6.08398-15.30859-9.4502-28.99121-21.18359-40.6665-34.87402l-.08691-.09766c-2.78271-2.99023-5.64355-5.98926-8.41064-8.88965-5.47998-5.74512-11.14648-11.68555-16.43945-17.80566-3.43262-3.80469-6.04346-8.18164-7.72852-12.91748-4.03271-12.61719-7.26562-25.65771-10.39209-38.26807-.66309-2.6748-.96094-5.46045-1.27637-8.40967-.20898-1.95557-.42529-3.97803-.75732-5.97705-.02148-.13281-.04834-.26416-.08057-.40283-2.3457-9.94385,1.5415-20.14551,9.90381-26.00781,7.64355-4.8667,11.81396-13.8042,10.63428-22.73926-.83252-7.29053,2.54834-11.55273,11.72656-14.73193,1.83105-.67627,3.74463-1.104,5.61523-1.2666,6.62012-.41211,10.11426-4.38281,10.38525-11.80273,.03613-.98584,.11084-1.96973,.18457-2.9541,.04443-.59082,.08887-1.18213,.12598-1.771,.01416-.2251,.01465-.45117,.00342-.68457-.41504-8.39307,4.17139-16.24951,11.69043-20.01855,6.74561-3.40186,10.66406-10.71289,9.7666-18.20947-.09473-1.26172-.02539-2.53418,.23389-3.85205,4.95801-12.00391,.08691-25.67139-11.32959-31.84229-3.31104-2.12305-4.31006-6.53613-2.22314-9.87842,.104-.1665,.21533-.32959,.33301-.4873l.21045-.32373c1.08301-1.92383,1.94141-3.9209,2.77197-5.85205,.50244-1.16846,.97656-2.27197,1.53271-3.4375,1.19873-2.70801,3.65234-4.646,6.64209-5.20068,6.88623-1.46533,13.72021-3.10059,19.49658-4.50684,7.44238-1.81152,14.15088-3.45996,20.84375-5.28613,16.09277-3.29004,29.03076-15.0918,33.76611-30.77637,1.57617-4.93359,4.00244-9.49658,7.21045-13.56299,.08057-.10205,.1582-.20654,.23486-.31689,5.83691-8.45215,10.09326-17.78174,12.63184-27.66748,5.16602-13.18799,1.5498-28.39893-8.9707-37.82129-2.52734-3.01758-5.36084-5.79834-8.4248-8.26758-.1875-.15039-.38428-.29004-.59082-.4209-7.32471-4.625-12.48682-11.80518-14.53906-20.22021-2.09912-10.16455-10.60352-17.51855-20.79395-18.18213l.00146-.02148c18.24805,.15723,301.53662,.04834,302.90479,.01904,2.03613-.04248,3.9043-.09277,5.61816-.13965,7.5791-.2041,13.05859-.354,14.3252,.95508,1.1875,1.22607,.89648,6.12793,.49316,12.9126-.09082,1.5293-.18945,3.19092-.28418,4.98877-.0127,.2168-.01367,.44238-.00586,.65625,.53809,14.02783,6.78223,27.50537,17.13379,36.9873,3.83301,3.79346,6.62305,8.54297,8.08301,13.78418,1.54004,7.09521,3.72949,14.10498,5.8457,20.88379,.66406,2.12549,1.32812,4.25098,1.97266,6.37939,.16406,.54199,.31152,1.12598,.46387,1.72119,.68262,2.67725,1.45605,5.71191,3.83594,7.38086,6.44434,4.52002,6.54688,10.93848,6.66504,18.36963,.01758,1.07617,.03516,2.1499,.07227,3.21631,1.4209,40.44971,2.76172,81.58252,4.05957,121.36035,.58984,18.08447,1.17871,36.16846,1.77832,54.25244,1.17676,35.53223,2.11914,62.95557,3.05566,88.91797,.14648,4.06934,.33203,8.14697,.5166,12.229,1.00293,22.13086,2.04004,45.01562-3.29883,66.83594-1.73828,7.10254-2.85938,14.40234-3.33105,21.69629-1.33008,11.76855,1.54297,23.68164,8.0957,33.55469,7.2959,10.95508,6.37891,23.25586,5.4082,36.27832Z"/></svg>