<?xml version="1.0" encoding="UTF-8"?><svg id="a" xmlns="http://www.w3.org/2000/svg" viewBox="0 0 560.28754 830.41076"><defs><style>.b{fill:#010101;}</style></defs><path class="b" d="M555.20865,604.1217l-.1123-.11523c-6.99707-6.84375-8.6875-17.28711-4.20605-25.98828l.17285-.40625c.92871-2.72363,.69434-5.37207,.48828-7.70996-.12891-1.4668-.25098-2.85156-.08789-4.16992,2.27539-20.13574,.10156-535.14014,.01953-545.8418,.01953-.31201,.01855-.62402,.01465-.93652-.00195-.11719-.00488-.23438-.00293-.35059,.17383-9.0957-2.50977-13.6001-4.79102-15.77783-1.91016-1.82227-4.33105-2.76318-6.83691-2.63672-3.05469-.09619-24.99512,.04297-57.85254,.25342-83.80664,.53516-224.07373,1.43213-253.21387-.24463-14.94775-.93604-30.21533,1.46875-44.1499,6.96533l-.25,.11182c-6.37451,3.21436-12.45117,7.08789-18.06152,11.51221l-.10645,.0874c-10.59326,9.1709-25.85254,9.74951-37.10791,1.40576l-.1001-.0708c-3.36182-2.28564-6.97266-4.22852-10.73193-5.77441-5.19043-2.36426-9.15576-2.62207-12.11963-.78809-2.84375,1.75977-4.30957,5.11865-4.48096,10.26807-1.04736,31.40283-2.24219,67.9624-3.17236,104.46729-.58984,23.18799-1.11035,46.76367-1.61328,69.56348-.57227,25.92139-1.16406,52.7251-1.86035,79.08154-.46777,17.70459-1.07764,35.7085-1.66748,53.11963-.98389,29.04834-2.00098,59.08545-2.39111,88.65088-.03711,2.82617-.06689,5.65039-.09717,8.47363-.37207,34.99805-.72314,68.05566-13.92236,100.35059l-.09473,.2666c-2.34912,7.76465-2.98145,16.10742-1.83203,24.13867,.29297,7.2041,2.17139,14.40332,5.43604,20.83203l.08887,.16309c7.91016,13.44531,11.16553,29.36133,9.17139,44.83203-1.19434,5.6543-1.38135,11.4209-.55664,17.1416l.03662,.2041c2.42969,11.28223-2.09033,22.875-11.51562,29.53516l-.20166,.15625c-12.27393,10.3418-22.21729,22.82422-29.55322,37.10156l-.0708,.14746c-6.45947,14.45605-16.37549,27.36621-28.62646,37.29688-7.97803,6.19238-13.37939,15.07227-15.21387,25.03809-1.74951,10.1377-2.7749,20.25391-3.86084,30.96289l-.10596,1.04395c-.41309,4.07227,1.04248,8.03418,3.99316,10.87109,2.94385,2.8291,6.94629,4.12598,10.99072,3.55371,5.11523-.72363,11.06201-1.52637,16.90527-1.89844,9.21924-.58691,18.62451-.98047,27.71973-1.36035,13.00195-.54395,26.44678-1.10645,39.65381-2.24316,18.02393-1.55371,28.43848,.4375,35.35303,15.61816,2.63281,5.77832,6.63867,9.10742,11.28076,9.37207,.18945,.01074,.37793,.01562,.56689,.01562,4.31494,0,8.46338-2.80664,11.45557-7.7832,8.41211-13.99023,21.98047-18.125,36.34521-22.50195,1.5791-.48145,3.16162-.96387,4.74121-1.45996l.24023-.08691c5.38623-2.21191,11.55713-.47949,15.0083,4.20996l.20508,.25c5.83936,6.36914,12.15967,12.40625,18.72412,17.88867,2.60791,2.30176,5.80273,3.08984,8.76221,2.16211,3.10791-.97266,5.52148-3.7373,6.49219-7.41699,.69287-1.75098,1.04004-3.5918,1.03223-5.47852l-.00098-.28223-.05371-.27637c-2.31885-11.94629,2.40527-18.42969,16.85059-23.12207,4.2124-1.36914,8.41455-3.51758,12.47852-5.59473,6.33789-3.23926,12.8916-6.58887,19.2959-6.85156,5.33496-.20898,9.2666,3.61523,13.8291,8.05273,5.12695,4.98828,10.93848,10.6416,19.89941,11.10449,2.03125,.10449,3.91406,.21875,5.66113,.3252,10.24707,.62207,16.42773,.99609,20.57812-2.73633,4.09473-3.68359,5.08691-10.32324,5.6582-22.94531,.29102-8.34473,4.07422-16.27148,10.37891-21.74805l.08301-.0752c19.02246-17.82324,40.42969-32.89062,63.6084-44.77539,8.4209-4.24512,14.41992-12.31836,16.05859-21.60254,1.40234-6.26562,3.09961-12.60449,4.74023-18.73535,.51758-1.93555,1.03516-3.87012,1.55664-5.84863,.83398-3.36621,3.83887-5.74121,7.30566-5.77637l.25781-.01367c1.6416-.15918,3.37402-.07129,5.20703,.02344,2.05371,.10352,4.17578,.21289,6.34961-.02539,24.30859-1.36328,48.45215-8.25293,69.82324-19.9248l.13184-.07715c6.82324-4.19238,10.30078-8.29688,10.94531-12.91504,.55664-3.99414-1.07031-8.00195-4.97266-12.25195Zm-.9707,11.42383c-.36523,2.62109-3.08203,5.51074-8.07715,8.59082-20.60059,11.23828-43.87012,17.86621-67.29688,19.16895l-.17188,.01465c-1.71582,.19336-3.53223,.10059-5.45508,.00391-1.93164-.09863-3.92383-.20117-5.96387-.01562-6.14551,.12207-11.4541,4.35254-12.92578,10.28809-.50781,1.92871-1.02344,3.85645-1.53906,5.7832-1.66309,6.21289-3.38184,12.63672-4.81543,19.0459l-.02832,.14062c-1.2959,7.45508-6.10352,13.93945-12.87891,17.35449-23.67871,12.14062-45.53027,27.51855-64.9502,45.70801-7.53027,6.56348-12.04785,16.04785-12.39551,25.99902-.46094,10.17969-1.20996,16.50684-3.67578,18.72363-2.28125,2.05469-7.51953,1.73535-16.20215,1.20898-1.76367-.10645-3.66504-.22168-5.71484-.32812-6.70605-.34668-11.23242-4.75-16.02539-9.41211-4.93555-4.80176-10.03516-9.76172-17.54883-9.76172-.23438,0-.4707,.00391-.70898,.01465-7.71875,.31543-14.86816,3.96973-21.78174,7.50293-4.0332,2.06152-7.84229,4.00879-11.60205,5.23047-11.63379,3.78027-24.50244,10.56934-20.94385,29.66895-.02686,1.07324-.24805,2.11914-.65918,3.11426l-.14111,.42969c-.42578,1.73438-1.36572,2.98535-2.51465,3.34473-1.18652,.37207-2.28467-.30469-3.06104-.98828-6.3833-5.33301-12.47412-11.14551-18.10547-17.27832-5.07764-6.77441-14.03857-9.2832-21.89551-6.11914-1.52441,.47852-3.05127,.94336-4.5752,1.4082-14.81689,4.51465-30.13818,9.18359-39.73779,25.14941-1.9375,3.2207-4.30469,4.98242-6.53955,4.86914-2.27588-.12988-4.52197-2.26953-6.16211-5.86914-4.12842-9.06445-9.94824-14.80371-17.79199-17.54492-4.40723-1.54004-9.22217-2.03809-14.10742-2.03809-3.14404,0-6.31787,.20605-9.42822,.47363-13.0752,1.12598-26.45264,1.68555-39.38965,2.22656-9.12744,.38184-18.56592,.77637-27.85059,1.36719-6.05566,.38574-12.13818,1.20703-17.36426,1.94531-2.20215,.31348-4.38574-.39355-5.99219-1.93848-1.6123-1.5498-2.40771-3.71484-2.18164-5.93945l.10596-1.04395c1.07471-10.60254,2.08984-20.61621,3.79736-30.51562,1.56201-8.48047,6.17383-16.06348,13.03613-21.38965,13.00781-10.54395,23.49854-24.19141,30.3418-39.47461,6.94873-13.5,16.35205-25.31055,27.95166-35.10449,11.29053-8.04102,16.71094-21.95703,13.8335-35.51758-.7124-5.02539-.53613-10.08984,.52539-15.05469l.04102-.23828c2.19336-16.79297-1.31738-34.08008-9.88525-48.68652-2.87354-5.6875-4.51758-12.05469-4.75537-18.4209l-.02979-.32129c-1.04785-7.16895-.50293-14.62109,1.5752-21.56152,13.57861-33.31543,13.95264-68.44727,14.31396-102.42383,.02979-2.81738,.05957-5.63672,.09717-8.45801,.38867-29.50342,1.40479-59.50928,2.3877-88.52686,.59033-17.42188,1.2002-35.4375,1.66895-53.16455,.69678-26.36914,1.28857-53.17969,1.86084-79.10742,.50293-22.79443,1.02344-46.36523,1.61279-69.54346,.92969-36.48291,2.12402-73.02832,3.1709-104.41943,.09375-2.82275,.69238-4.77832,1.6416-5.36572,.50635-.31445,2.15869-.83105,6.52246,1.16748l.11035,.04785c3.37598,1.38428,6.61914,3.125,9.63965,5.17334,13.50732,9.97607,31.78809,9.28662,44.50293-1.68066,5.24512-4.13037,10.92139-7.75146,16.87354-10.76318,13.08594-5.13965,27.41602-7.39014,41.46094-6.50732,29.34717,1.68799,169.73438,.79053,253.6123,.25537,32.26172-.20654,55.56836-.35449,57.69922-.25391l.16992,.0083,.1709-.01123c.88574-.06689,1.72461,.271,2.46875,.98145,1.9668,1.87646,3.03613,6.00342,2.93555,11.32324-.00391,.18555-.00195,.37061,.00098,.55615,.00293,.15967,.01074,.31982-.00391,.479l-.01367,.15137,.00195,.15186c.05859,4.93555,2.29199,525.12354,.02246,545.19873-.2373,1.91699-.07324,3.76855,.07031,5.40234,.16895,1.91797,.31641,3.58594-.13281,5.06445-5.53906,10.98633-3.38281,24.10352,5.39844,32.74219,2.57812,2.82324,3.68945,5.21484,3.39746,7.30957Z"/></svg>