<?xml version="1.0" encoding="UTF-8"?><svg id="a" xmlns="http://www.w3.org/2000/svg" viewBox="0 0 821.32358 494.98879"><defs><style>.b{fill:#010101;}</style></defs><path class="b" d="M812.83235,215.9214c-5.12598-4.90137-10.55859-9.6001-16.14746-13.96582l-.19336-.13721c-5.87109-3.74805-10.14258-9.49609-12.03906-16.1958-1.35938-7.61182-7.38184-13.54053-15.02539-14.77441l-.09961-.01416c-7.7334-.93213-13.4375-7.75342-12.98633-15.5293l.00879-.15088-.00977-.15137c-.81445-12.87207-11.10645-22.98535-23.97266-23.58984-24.52246-4.17334-27.20215-7.14014-40.58887-28.80322-.27344-.44336-.55664-.88086-.83984-1.31885-.34961-.54102-.7002-1.08203-1.03027-1.63525l-.125-.18848c-9.66504-13.31055-9.31934-31.64209,.8418-44.57812l.07617-.10254c1.77344-2.51123,3.34668-5.19092,4.64844-7.90723,4.18164-8.17773,3.70605-10.81934-2.95117-16.58887-2.28711-2.07178-4.77637-3.95117-7.39746-5.58496l-.24707-.13525c-3.50879-1.67188-5.86621-5.11865-6.15332-8.99316-1.07812-14.70264-6.20703-15.43848-15.94043-15.53613-.74805-.00732-1.53223-.01562-2.35547-.03223-.88281-.01855-51.44824,.00342-127.98438,.03662C347.23323,.12453,37.45539,.25685,16.99348,.00783,7.38459-.10301,3.25129,.84132,1.3343,10.81251c-3.62451,10.16992,.3291,21.71387,9.50684,27.55273,1.15137,.69189,2.24072,1.58691,3.39404,2.53467,1.13428,.93213,2.30713,1.896,3.7085,2.78174,4.68018,2.70947,6.50977,8.64941,4.1665,13.52295l-.13281,.27637-.0625,.30029c-3.28223,15.84863-8.50049,31.27832-15.50977,45.86377-7.86133,10.55811-7.05371,25.11621,1.95312,34.7417,9.18506,10.96875,14.89014,24.2793,16.51123,38.58887,2.23535,14.81592,6.52246,29.24121,12.73145,42.8501,7.7915,17.55908,13.3667,36.06348,16.57227,55,.77979,8.125,3.85742,15.80762,8.84961,22.15137,8.41943,11.54297,13.2124,25.18945,13.86133,39.46094l.01025,.1377c.90674,8.99512,3.04639,17.82031,6.38574,26.29492,6.05322,14.22168,8.82617,29.89844,8.01611,45.40625-.39258,16.39062,2.59375,32.38184,8.87598,47.5293l.07568,.16602c2.21777,4.40625,5.95508,9.55762,15.24707,10.28027l.10693,.01855,.18408-.0127c.4126-.01367,4.33984,.05273,9.771,.13965,221.19873,3.52441,395.81543,.92188,491.6875-7.32812,11.98242-1.03418,19.19727,.41895,22.96289,11.0293l.09082,.21973c1.88281,4.04102,4.50488,7.61328,7.79395,10.61914,4.03809,4.34863,8.41602,8.45703,13.0127,12.21289l.14551,.11035c1.05664,.74219,2.23047,1.25293,3.49023,1.51855,.66016,.14062,1.32422,.20996,1.98438,.20898,1.81641,0,3.59668-.52344,5.15527-1.53809,2.12402-1.38184,3.58301-3.50879,4.11133-6.00684,.39941-1.95801,.5293-3.96094,.38574-5.95215l-.03711-.28809c-.08301-.43262-.15137-.86621-.20703-1.2998-1.50195-11.73242,6.82129-22.5,18.55273-24.00195l.23828-.04199c.75586-.17285,1.41406-.45312,1.99512-.70117,.43555-.18555,.84766-.3623,1.16309-.42773,.15039-.01953,.29883-.04102,.44238-.06641,2.37793-.41602,4.45215-1.7334,5.83887-3.70996,1.37305-1.95605,1.91113-4.32617,1.51758-6.68066-1.25781-10.49121,3.37695-20.70508,12.10449-26.66797l.23438-.18164c6.85645-5.98633,10.41895-14.94434,9.55664-23.99902,.4502-7.92676-3.10156-15.40332-9.53613-20.06348-2.80078-2.53223-5.08789-5.52148-6.79785-8.88574l-.09277-.16699c-1.17676-1.93262-1.61426-4.21289-1.24023-6.44043,2.97559-8.61621,6.56348-17.10547,10.66699-25.23926,1.70703-2.23047,4.15332-3.76074,6.90918-4.31934l.12598-.02832c10.30078-2.64648,20.3457-4.72949,32.39258-7.1709,18.19629-1.83594,33.90039-14.14062,40.04102-31.40527,1.37598-4.0166,3.46191-7.77246,5.6709-11.74805,1.82324-3.28027,3.70801-6.67285,5.1543-10.21191,3.92383-9.24609,7.18164-18.87012,9.68066-28.604l.02051-.08691c1.88965-8.63086-1.15137-17.48584-7.93945-23.1333Zm3.06445,22.02148c-2.43555,9.47656-5.6084,18.84668-9.44238,27.88086-1.3457,3.29297-3.15723,6.55273-4.9082,9.70508-2.21777,3.99219-4.51074,8.11914-6.02148,12.52832-5.49902,15.46191-19.60547,26.48828-35.9375,28.08984l-.25293,.03809c-9.55469,1.93652-21.44141,4.34668-32.70605,7.23828-4.01172,.82812-7.55859,3.09766-9.99414,6.39551l-.21973,.35742c-4.27637,8.4541-8.00977,17.28516-11.0957,26.24902l-.09277,.35449c-.64746,3.46289-.00781,7.02637,1.80176,10.04492,2.00684,3.92188,4.68848,7.40332,7.97266,10.34766l.21484,.17188c5.14844,3.68164,7.97363,9.64941,7.55859,15.96387l-.01367,.20996,.02148,.20996c.76758,7.46582-2.12598,14.87012-7.74414,19.83691-10.20996,7.04395-15.61523,19.05078-14.1123,31.37207l.01855,.12793c.18652,1.0625-.05273,2.13379-.67285,3.01758-.61914,.88184-1.54492,1.4707-2.61426,1.6582-.08398,.01465-.16797,.02539-.25195,.03613l-.14355,.02051c-.88574,.15723-1.63965,.47852-2.30469,.7627-.38379,.16406-.74902,.31934-1.05078,.40137-14.38965,1.92188-24.57715,15.1582-22.73145,29.5791,.0625,.48438,.13672,.9668,.22559,1.44727,.0957,1.49121-.00781,2.99023-.30371,4.43945-.24805,1.17285-.9375,2.17871-1.94238,2.83301-1.00586,.65332-2.20508,.87598-3.37891,.62793-.56836-.12012-1.10156-.34668-1.58496-.67285-4.41699-3.61621-8.62402-7.57031-12.50293-11.75391l-.15234-.15039c-2.80469-2.54688-5.04297-5.57422-6.65625-9-5.34473-14.8916-17.28711-15.14941-28.0625-14.22363-95.70801,8.23633-270.14355,10.83105-491.1792,7.31152-7.33252-.11719-9.24805-.14062-9.8667-.14062-6.24609-.5166-8.93457-3.35156-11.01465-7.45312-5.98877-14.47266-8.83545-29.75-8.46338-45.33789,.84717-16.19238-2.06152-32.63672-8.38525-47.49219-3.13721-7.96387-5.16602-16.31934-6.03076-24.83496-.70605-15.23047-5.82764-29.78906-14.86816-42.18262-4.47021-5.68262-7.18994-12.49219-7.86523-19.69141l-.02441-.18262c-3.27197-19.37988-8.97363-38.31738-16.95752-56.30957-6.02686-13.20996-10.18115-27.1875-12.33447-41.45264-1.72314-15.21924-7.83691-29.46631-17.68115-41.2002l-.09424-.10596c-7.43359-7.90283-8.06787-19.91113-1.5083-28.55273l.26074-.42627c7.19775-14.93018,12.56299-30.72607,15.94824-46.95361,3.26123-7.1582,.53418-15.77002-6.2168-19.67627-1.05566-.66895-2.06104-1.49512-3.125-2.36914-1.24219-1.021-2.52686-2.07666-3.93896-2.92432C6.25569,29.52248,3.15608,20.3633,6.10041,12.33546l.11035-.40137c1.21777-6.51416,2.02295-7.04053,10.72217-6.92627,20.49219,.24902,330.29053,.11621,515.38965,.03711,73.58203-.03174,126.74707-.05371,127.88086-.0376,.83984,.01709,1.64258,.02539,2.40723,.03271,8.45312,.08545,10.21191,.10303,11.00391,10.90332,.41504,5.61377,3.80273,10.61035,8.85547,13.07568,2.32715,1.45996,4.53809,3.13477,6.61328,5.01318,4.81445,4.17334,5.00293,4.33594,1.78711,10.62744-1.20117,2.50342-2.61914,4.92285-4.21777,7.19189-11.47168,14.65283-11.87305,35.37646-.98047,50.46143,.34375,.57178,.70605,1.13232,1.06836,1.69336,.26465,.40918,.5293,.81836,.78516,1.23193,14.05957,22.75098,18.20703,26.72461,44.15918,31.12988l.31641,.0332c10.32715,.41992,18.61719,8.48047,19.33887,18.7749-.51367,10.32129,7.06641,19.34961,17.33496,20.61523,5.55664,.9165,9.92285,5.25439,10.87305,10.80762l.05566,.24951c2.19922,7.89844,7.20215,14.68311,14.09375,19.11816,5.44922,4.26172,10.74512,8.84619,15.74219,13.62842l.13672,.12158c5.37598,4.43701,7.79492,11.41748,6.32031,18.22607Z"/></svg>