<?xml version="1.0" encoding="UTF-8"?><svg id="a" xmlns="http://www.w3.org/2000/svg" viewBox="0 0 826.84551 402.11194"><defs><style>.b{fill:#010101;}</style></defs><path class="b" d="M826.73561,374.08069c-.20312-25.40234-.45117-51.0625-.73828-76.27051-.05273-4.63379-.16406-9.33789-.27246-13.88672-.1709-7.21484-.34766-14.67578-.29297-21.99316,.06934-9.19629,.32812-18.55762,.58008-27.61133,.15527-5.61816,.31152-11.23535,.4248-16.85352,.18945-2.65234-.05176-5.30469-.71191-7.87402-1.33789-5.28125-1.53125-10.67627-.57715-16.03662l.02637-.19043c.54492-5.46729,.40918-10.99121-.4043-16.42725-1.59082-10.40869-3.3457-20.9624-5.04199-31.16846-1.54004-9.26611-3.13281-18.84717-4.59668-28.28076-.45215-4.60498-3.10449-8.72461-7.10938-11.04248-14.65332-9.24561-27.33691-21.84229-36.67969-36.43066l-.21973-.29346c-3.32031-3.81396-4.93945-8.8877-4.45215-13.83691,1.04102-6.86523,1.94336-11.19531,7.15332-13.59619l.25488-.13574c1.12988-.68945,2.08496-1.59033,2.83301-2.67139,3.27734-4.70654,3.83496-10.85254,1.46387-16.06982-1.57031-4.35889-5.98242-7.04248-10.56836-6.44531-8.53613,.20947-16.65234-3.31738-22.34473-9.66016l-.16699-.16943c-5.85059-5.38428-13.71582-7.90869-21.60449-6.9292-50.58105,1.55762-102.0127,3.0332-151.75098,4.46045-28.18262,.80859-56.36426,1.61719-84.54492,2.44385-66.82617,1.96143-134.33301,2.00732-197.32812,1.7627-21.24902-.08057-42.84961,.02441-63.7373,.12695-10.45557,.05127-20.91113,.10254-31.36719,.13184-53.3759,.16819-106.75072-.51081-160.1275-.20327-4.25804,.02453-8.51604,.05915-12.77386,.10952-7.12158,.08447-9.15088,2.05127-9.43994,9.15088C8.13209,128.43615,4.00953,248.94494,.01783,386.60412c-.23242,8.01855,1.74463,10.16113,9.61621,10.41699,19.20312,.62305,34.76318,1.04883,48.96777,1.33984,24.91553,.51074,50.67969,1.03809,76.33398,1.31543,29.49854,.32031,59.48242,.48828,88.47949,.65137,34.72803,.19531,70.63818,.39648,105.95654,.86035,6.96777,.09082,13.93555,.19238,20.90381,.29395,21.26807,.31055,43.12354,.62988,64.85742,.62988,5.05078,0,10.09668-.01758,15.12695-.05566,25.6084-.19629,50.85352-.61035,80.87988-1.1709,36.3584-.68066,73.33203-1.55957,109.08887-2.41016l13.33496-.31738c8.1875-.19336,16.37793-.36621,24.56738-.53809,49.15625-1.03418,99.98535-2.10449,149.7207-8.07715,4.37891-.39258,8.78516-1.05469,13.09375-1.96777l.43066-.13184c2.35742-.9668,4.14746-2.91406,4.91113-5.34375l.07227-.28906c.47754-2.54785,.60352-5.14844,.37598-7.72949Zm-5.26074,6.64551c-.31543,.88672-.96582,1.60645-1.81445,2.00977-4.03613,.84473-8.15918,1.45898-12.33008,1.83398-49.56445,5.95215-100.26953,7.01855-149.30469,8.05078-8.19434,.17188-16.3877,.34473-24.58105,.53906l-13.33496,.31641c-35.75,.85059-72.7168,1.73047-109.06348,2.40918-30.00977,.56152-55.23926,.97559-80.8252,1.1709-26.60889,.20117-53.68799-.19043-79.87256-.57324-6.9707-.10156-13.94092-.20312-20.91113-.29492-35.33691-.46387-71.25684-.66504-105.99414-.86035-28.99023-.16309-58.96777-.33105-88.45361-.65137-25.62988-.27637-51.38135-.80469-76.28516-1.31445-14.18457-.29102-29.72559-.71582-48.9082-1.33887q-4.92871-.16016-4.78027-5.27441C9.00709,249.10998,13.12867,128.61975,17.61695,18.39319q.17529-4.30322,4.50244-4.354c10.74268-.12646,21.60303-.15967,32.36085-.15967,46.83346,0,93.6576,.401,140.49657,.25342,10.45898-.0293,20.91797-.08057,31.37695-.13184,20.87793-.10303,42.46729-.20898,63.69336-.12695,63.03955,.24268,130.59473,.19824,197.49414-1.76465,28.17969-.82715,56.36035-1.63574,84.54199-2.44385,49.78027-1.42822,101.25586-2.90527,151.88086-4.46484l.24121-.01904c6.42578-.82617,12.83691,1.2002,17.61914,5.55615,6.7002,7.41064,16.25586,11.49414,26.25488,11.22266l.29395-.02539c2.31738-.33984,4.55469,1.01855,5.31934,3.23242l.0957,.23535c1.68457,3.63428,1.30957,7.93359-.98438,11.22705-.3291,.4751-.74023,.87402-1.22461,1.1875-7.78516,3.67334-8.88281,10.91992-9.85938,17.36328l-.0166,.12891c-.625,6.33447,1.3877,12.7207,5.52441,17.55225,9.73633,15.15283,22.93164,28.23486,38.16992,37.83984l.08887,.05371c2.64551,1.51758,4.39258,4.23682,4.67383,7.27393l.01855,.15283c1.4707,9.48389,3.07031,19.10352,4.61621,28.40625,1.69434,10.19043,3.44531,20.72754,5.03027,31.09668,.74707,4.98828,.87598,10.06445,.38281,15.08887-1.06055,6.03223-.83496,12.10254,.67188,18.05371,.5332,2.07324,.72363,4.20508,.56543,6.33789l-.00586,.13379c-.11426,5.62695-.27051,11.25391-.42578,16.88086-.25195,9.07812-.5127,18.46582-.58203,27.71289-.05566,7.39551,.12207,14.89551,.29492,22.14941,.10742,4.5332,.21777,9.22168,.27051,13.82422,.28809,25.2373,.53613,50.92676,.73926,76.35547l.01074,.20996c.19336,2.10156,.10156,4.21777-.27246,6.29395Z"/></svg>