<?xml version="1.0" encoding="UTF-8"?><svg id="a" xmlns="http://www.w3.org/2000/svg" viewBox="0 0 808.2787 386.71118"><defs><style>.b{fill:#010101;}</style></defs><path class="b" d="M805.60358,173.6311v-.00049c-2.24414-2.09668-4.48145-4.17139-6.70898-6.23633-8.26172-7.66064-16.06543-14.89648-23.58203-22.65674l-.10254-.09961c-6.52246-6.00635-11.85156-13.06543-15.84082-20.98486-.05371-.10547-.09863-.21533-.13965-.32471-2.57812-6.85205-7.62109-12.396-14.19824-15.60986-8.55664-4.18359-13.62793-13.02295-12.91895-22.52686,.01172-.17578,.01953-.35254,.02148-.53857,.01367-3.4248-.15137-6.87549-.31055-10.2124-.09082-1.90381-.18164-3.80713-.24121-5.71094,.03711-3.88916-2.06152-7.4292-5.49121-9.26416-3.04297-1.78809-6.11523-3.66455-9.08594-5.47998-5.20605-3.17969-10.58887-6.46729-16.06445-9.43555l-.25488-.12012c-2.40039-.97021-4.1543-3.06152-4.69434-5.6167-.44043-1.99561-1.06445-3.96631-1.85645-5.86035-.17871-.58252-.4375-1.1333-.76953-1.63867-.93848-1.42871-2.37793-2.40674-4.05176-2.75342-1.61719-.33398-3.26562-.04199-4.66309,.82324-3.57031,1.75488-6.99512,3.85205-10.21094,6.25586-3.15234,2.43164-6.2168,5.03662-9.18066,7.55566-2.14844,1.82568-4.36914,3.71338-6.58594,5.50244-1.30957,1.05615-2.93848,2.37061-3.40332,2.43213-.55176-.10547-2.29395-1.81592-2.91992-2.43359-5.47949-5.86377-13.21289-8.9458-21.22168-8.46582-.44727,.02734-.9082,.0918-1.37012,.19287-4.74023,1.03662-9.3584,2.63086-13.6543,4.70605-8.75,3.88525-18.85742,2.61572-26.33594-3.28076-5.74805-4.72705-13.04102-7.25732-20.3584-7.08643-2.21777-.03418-4.50781-.18555-6.72266-.33203-3.58496-.23682-7.29102-.48047-10.99512-.26514l-.15527,.01367c-4.70117,.57422-9.00488-2.48535-10.00684-7.11865-.06836-.31152-.14844-.62207-.25-.92041-1.26855-3.72656-2.84473-7.69434-4.78125-12.04346-3.56055-8.8833-12.39551-14.53418-22.01074-14.06982-10.18262,.81055-20.4668,1.91602-30.66309,3.30127-2.03223,.35596-3.9375,1.25342-5.50781,2.59521l-.33301,.28516-2.62598,4.62109-.04883,.53955c-.29492,3.26709,1.38477,6.32617,4.28809,7.83154,3.56934,2.27637,4.13184,5.66895,4.84277,9.95508,.12891,.77295,.25781,1.5498,.40625,2.32373l.08887,.33789c.91797,2.68555-.19629,5.67383-2.68555,7.12744-1.58105,.96045-3.15723,1.92969-4.73438,2.89893-14.32812,8.80957-27.8623,17.13086-44.51758,19.06152-8.10645,.93994-9.10742,2.63916-10.20898,10.15234-1.37598,9.38623-2.06738,14.09766-4.0918,17.51074-2.01758,3.39893-5.73047,6.11621-13.12695,11.52979-.42871,.31396-.88135,.59717-1.33301,.88184-.80762,.50928-1.64307,1.03613-2.44141,1.73047-1.7207,1.49707-3.45508,2.98145-5.18994,4.46533-4.78857,4.09717-9.74023,8.33398-14.35303,12.81885-.06299,.06152-.13086,.11768-.19971,.17041-7.29248,5.57471-10.96582,14.67578-9.58594,23.75098,.021,.13916,.0415,.27979,.04395,.42188,.02979,1.87891-.40088,3.76074-1.24561,5.44141l-.12109,.28369c-1.86523,5.23584-2.90918,7.81836-4.41455,8.87695-1.51367,1.06445-4.35596,1.21143-10.03662,1.27588l-3.146,.0415c-5.17188,.07227-10.51953,.14746-15.71631-.13281l-.10156-.00586-.10156,.00293c-2.82617,.07715-5.66455-.58936-8.1709-1.93164-3.41113-2.53125-8.08496-2.79932-11.76416-.67236-14.10254,5.84131-15.19238,7.16895-14.5498,17.29736,.07178,1.13135,.15283,2.40332,.2124,3.8457,.29932,7.22559,.33057,7.98096-8.31299,9.23975-7.81592,1.13672-12.44678,.63965-16.0708-5.24609-.16211-.2627-.36133-.57275-.61572-.8833-.65186-.79736-1.40186-1.50928-2.23145-2.11768-7.10107-6.22461-10.56445-6.4292-18.48145-1.10889-3.72363,2.66797-7.01953,5.86816-9.75635,9.46191-1.58008,1.96729-2.76514,4.15332-3.91064,6.26709-.75293,1.38916-1.46387,2.70068-2.26953,3.93408-2.25684,3.45605-3.39746,3.85645-6.78271,2.38379l-.18896-.07324c-4.60645-1.57324-8.77002-4.02832-12.37451-7.29688-.12012-.10938-.22803-.23193-.33252-.35547-4.30518-5.10645-11.02783-7.43213-17.56738-6.08545-4.76123,.6543-9.63672,1.20752-14.35352,1.74268-9.48828,1.07666-19.2998,2.18945-28.81299,4.19092-.08838,.01855-.17773,.03174-.27344,.04004-13.40039,1.22363-24.65967,10.80225-28.0376,23.92432-.07666,.35156-.14844,.72363-.22168,1.10449-.16699,.87012-.47803,2.48926-.79443,2.83301-8.87695,6.70508-4.68799,14.48926-1.93701,19.60059,1.05957,2.05371,1.97754,4.20312,2.74316,6.42773,1.0708,2.95117,1.13477,3.12793-2.30176,4.4541-3.25879,1.25684-6.69141,2.33789-10.01074,3.38379-1.23047,.3877-2.46143,.77539-3.68799,1.17285-1.48096,.47949-3.02441,.92773-4.51709,1.36133-3.1333,.91113-6.37256,1.85254-9.46631,3.19238-1.05127,.3457-2.06592,.80371-3.0166,1.3623-3.58691,2.10645-6.13916,5.4834-7.18652,9.50781-1.03027,3.96094-.48193,8.08398,1.54248,11.63281,.75244,1.87793,1.65576,3.7041,2.64697,5.35938,2.79199,5.07617,3.60107,10.97754,2.27734,16.61621l-.05469,.33301c-.23096,2.41504-1.96777,4.43457-4.32178,5.02441l-.32275,.10449c-3.94043,1.5791-8.27344,1.56348-12.21875-.04883-8.32324-3.33496-16.92529-6.29199-25.24414-9.15234l-4.91113-1.69141c-.06348-.02246-.12549-.04883-.18945-.07812-2.29248-1.04199-4.83984-1.5918-7.35596-1.5166-.45068,.00879-.92041,.05859-1.39111,.14551-8.03174,1.46777-15.50439,5.5752-21.05127,11.56836-4.28076,4.07324-4.82959,10.67969-1.26611,15.40625l.14404,.17383c5.32617,5.87598,5.5957,14.63477,.64014,20.82617l-.13477,.18555c-.84082,1.27344-1.24805,2.75195-1.17773,4.27539l.02393,.25c1.6709,11.30957-5.37939,22.13672-16.3999,25.18359l-.22461,.07324c-2.62012,.99902-3.99219,3.2998-3.49512,5.8623,.55859,2.87891,3.28564,5.09961,6.23926,5.09961,.03662,0,.07373-.00098,.11035-.00098l5.05859-.0957c17.52588-.32812,35.64795-.66699,53.46582-1.53711,9.56348-.4668,19.24268-1.32324,28.60303-2.15137,5.44531-.48145,11.07617-.98047,16.61035-1.39453,4.24268-.31836,8.57666-.55176,12.76807-.77637,4.42432-.23828,8.99902-.4834,13.50537-.83203,7.59717-.58691,9.71924-2.63379,10.31885-9.95117,.01807-.21777,.02734-.44629,.02637-.66016-.00488-3.37793,.23926-6.78516,.7251-10.12695,.06396-.44238,.18457-.81445,.3584-1.11035,.56104-.9541,1.43359-1.70898,2.45996-2.12695,.14258-.05859,.34082-.10645,.60596-.14746,1.82764-.28223,3.71582-.27637,5.71143-.26953,1.17578,.00391,2.38965,.00781,3.61523-.0498,32.74854-1.5459,68.63184-4.89355,105.58691-8.48145,38.08203-3.69727,76.7002-7.36719,114.78174-10.90918,15.67236-1.45801,31.34668-2.93652,47.02344-4.41602,68.33984-6.44727,139.00684-13.11523,208.59473-17.86914l.10059-.00879c12.04297-1.31543,23.48926-5.0127,34.02148-10.99023,10.85645-5.51758,21.74609-11.38379,32.27734-17.05762,5.88867-3.17188,11.97852-6.45215,17.98633-9.63086,5.28809-2.79688,6.56641-7.73633,7.69434-12.09473,.94727-3.66113,1.8418-7.11816,4.92285-9.46289,.25195-.19141,.49609-.39746,.72461-.61914,1.42676-1.39258,2.86328-2.77637,4.30078-4.16211,5.80469-5.59082,11.80566-11.37305,17.08496-17.62402,9.73242-11.20215,20.72949-21.33789,32.68652-30.12305,.05273-.03906,.10742-.0752,.16016-.1084,7.14355-4.5625,13.33105-10.32568,18.39062-17.12988,2.55273-3.43506,2.11621-8.23389-1.0166-11.16211Zm-2.99609,8.1792c-4.69629,6.31494-10.43848,11.66406-17.07227,15.90088-.14551,.09277-.28809,.18945-.42676,.29102-12.25391,9.00391-23.52539,19.3916-33.52344,30.89941-5.13574,6.08105-11.04297,11.77246-16.75586,17.27637-1.44531,1.39258-2.88965,2.78418-4.32324,4.18262-.08105,.0791-.16895,.15039-.25977,.21973-4.46094,3.39453-5.66992,8.06738-6.7373,12.18945-1.14844,4.44043-2.01465,7.24707-5.19141,8.92773-6.02539,3.1875-12.12207,6.47266-18.01953,9.64941-10.52148,5.66797-21.40234,11.5293-32.22266,17.02734l-.10254,.05469c-9.93457,5.64746-20.73242,9.14355-32.09473,10.39062-69.63574,4.75879-140.31836,11.42773-208.67285,17.87695-15.6748,1.47852-31.34668,2.95703-47.0166,4.41504-38.08838,3.54297-76.71338,7.21387-114.80225,10.91113-36.89014,3.58105-72.70508,6.92285-105.33887,8.46387-1.10059,.05176-2.19922,.04883-3.36279,.04395-2.10449-.00879-4.27637-.01465-6.4917,.32812-.65674,.10156-1.22363,.25195-1.73145,.45898-2.03418,.8291-3.76807,2.3291-4.88086,4.22168-.50342,.85449-.83838,1.83887-.99707,2.92578-.52051,3.58105-.78174,7.2334-.77686,10.8584,.00049,.07715-.00244,.15723-.00928,.23633-.37646,4.59277-.40723,4.96777-5.7207,5.37891-4.44824,.34277-8.99316,.58691-13.38916,.82324-4.21729,.22656-8.57812,.46094-12.87354,.7832-5.56738,.41699-11.21484,.91699-16.67676,1.40039-9.3125,.82422-18.94141,1.67578-28.40625,2.1377-17.74268,.86621-35.82715,1.20508-53.31592,1.53223l-5.05908,.0957c-.33496,.00977-.74268-.17773-1.03174-.49316-.26562-.29102-.3291-.5625-.34521-.57129,.01953-.02539,.11133-.10449,.31152-.19043,13.3208-3.75586,21.84521-16.84277,19.89795-30.54395-.00049-.39355,.10596-.77637,.31006-1.11426,6.38281-8.08008,6.03076-19.4375-.8418-27.10742-1.97363-2.70117-1.62842-6.4375,.8208-8.73145l.12988-.13086c4.82227-5.23535,11.3335-8.82324,18.33936-10.10449,.20996-.03906,.4082-.06055,.58594-.06348,1.78613-.03613,3.5708,.33496,5.18506,1.06836,.20459,.09375,.41211,.17871,.62549,.25195l4.9209,1.69531c8.26074,2.83984,16.80273,5.77734,24.99316,9.05762,5.08789,2.08203,10.69336,2.12109,15.80469,.11621,4.25879-1.14258,7.40234-4.79688,7.89404-9.17871,1.55469-6.79688,.56201-13.89746-2.84521-20.08789-.92773-1.55273-1.73584-3.19531-2.40283-4.88379l-.16943-.34766c-2.95117-5.02734-1.2627-11.51758,3.76465-14.46973,.67041-.39355,1.38818-.71387,2.13232-.95117l.24023-.09082c2.83203-1.2373,5.81543-2.10449,8.97412-3.02246,1.52881-.44434,3.10938-.90332,4.6626-1.40723,1.21338-.39258,2.43115-.77637,3.64893-1.16016,3.39355-1.06836,6.90283-2.17383,10.30859-3.48828,5.9126-2.28125,7.27393-5.11328,5.21631-10.78418-.83008-2.41309-1.84424-4.78613-3.03369-7.0918-3.35059-6.22656-4.39111-9.56641,.52686-13.28027,1.82666-1.37988,2.30566-3.875,2.69092-5.87988,.06494-.33789,.12842-.66895,.1748-.88965,2.83105-10.99219,12.32715-19.07129,23.62354-20.10254,.2832-.02539,.56445-.06641,.84814-.12598,9.2876-1.9541,18.97949-3.05371,28.35303-4.1167,4.77344-.5415,9.70947-1.10205,14.55713-1.76953l.17578-.03076c4.75928-1.00537,9.66553,.67822,12.80176,4.39746,.27783,.33008,.52979,.59473,.79492,.83496,4.08838,3.70801,8.80566,6.49805,14.02295,8.29395,5.58838,2.39844,9.32129,1.15625,12.86963-4.27539,.91748-1.40527,1.71143-2.86914,2.479-4.28613,1.0874-2.00684,2.11523-3.90283,3.45264-5.56885,2.47412-3.24756,5.41162-6.1001,8.66846-8.43506,6.14258-4.12744,7.17285-3.77979,12.41699,.83301l.19434,.15479c.51465,.36914,.979,.80518,1.38086,1.29639,.08594,.10498,.1582,.22559,.229,.34033,5.5459,9.00879,13.77344,8.63086,21.04883,7.57178,10.77783-1.56982,13.01318-4.12549,12.58838-14.39453-.06152-1.4834-.14453-2.7915-.21826-3.95508-.26611-4.19434-.31055-5.70068,.62646-6.79834,1.32129-1.54736,5.21631-3.23389,11.00781-5.62988l.33691-.16992c2.00977-1.21387,4.60742-1.06348,6.46338,.37354l.32715,.21436c3.2915,1.80762,7.01416,2.7207,10.76611,2.63379,5.33496,.28418,10.7334,.20752,15.95605,.13477l3.13281-.04102c13.23779-.15088,14.70508-1.15039,19.05469-13.33447,1.1582-2.36182,1.74805-4.99414,1.70557-7.62207-.00635-.43701-.06006-.83398-.09961-1.09521-1.10547-7.27002,1.83691-14.56055,7.67969-19.02686,.2251-.17236,.44141-.35693,.64648-.55615,4.50049-4.375,9.39062-8.55957,14.12012-12.60596,1.74463-1.49316,3.48975-2.98584,5.2207-4.49219,.5083-.44189,1.14893-.84619,1.82764-1.27393,.52734-.33301,1.07324-.67725,1.61816-1.07568,15.90625-11.6416,16.26465-12.24609,19.21387-32.35596,.30664-2.09033,.62305-4.25195,1.16992-4.82227,.53906-.5625,2.69141-.854,4.66699-1.08301,17.75488-2.05859,32.39844-11.06201,46.56055-19.76904,1.56836-.96436,3.1377-1.9292,4.67383-2.8623,4.44434-2.59424,6.49219-7.97754,4.91895-12.85986-.12891-.68115-.24121-1.36377-.35449-2.04346-.77441-4.66895-1.65234-9.96094-7.21582-13.43359l-.20898-.11719c-.97949-.48682-1.59961-1.43848-1.66504-2.50244l1.59766-2.8125c.82422-.62109,1.77734-1.03857,2.71191-1.20361,10.00977-1.3584,20.20117-2.4541,30.21484-3.25195,7.43359-.35303,14.2832,4.03662,17.08691,11.02686,1.91113,4.2959,3.43262,8.12549,4.65332,11.71143,.04102,.12158,.07031,.24854,.09668,.36865,1.54395,7.14209,8.16309,11.86523,15.41406,11.02979,3.36328-.19092,6.73438,.03174,10.2998,.2666,2.27637,.15088,4.62988,.30615,7.06543,.34229,6.27051-.12598,12.34277,1.98193,17.20898,5.98145,8.97754,7.08057,21.04785,8.59863,31.57324,3.92285,4.01562-1.93848,8.2627-3.4043,12.62012-4.35742,.21094-.0459,.41406-.0752,.60449-.08643,6.53711-.40039,12.83789,2.12939,17.29688,6.9209l.07422,.07617c5.49707,5.42578,7.37207,4.91797,13.01172,.37061,2.2666-1.82959,4.5127-3.73828,6.68457-5.58447,2.91895-2.48096,5.9375-5.04688,8.9668-7.3833,2.97363-2.22314,6.17285-4.17676,9.50879-5.80762l.27539-.15674c.3125-.20605,.6875-.27539,1.05176-.20068,.36621,.07568,.68066,.29004,.88672,.604,.08008,.12061,.13965,.25391,.17969,.39648l.10645,.30811c.7002,1.65479,1.25098,3.37891,1.63086,5.10352,.87109,4.11572,3.69531,7.52197,7.57031,9.14014,5.32324,2.89062,10.61035,6.12012,15.72461,9.24365,3.00391,1.83496,6.11035,3.73242,9.20508,5.55078l.09961,.05518c1.80664,.95361,2.91016,2.81445,2.87891,4.85693l-.00098,.05713,.00195,.05713c.05957,1.94971,.15332,3.89941,.24609,5.84961,.15625,3.27295,.31836,6.65771,.30469,9.94336-.00098,.0708-.00391,.14209-.00879,.20459-.86035,11.54785,5.30566,22.29639,15.71094,27.3833,5.42676,2.65186,9.58691,7.22559,11.71387,12.87988,.10547,.27783,.22266,.55176,.35547,.81445,4.24902,8.43506,9.92285,15.9585,16.86621,22.36328,7.59473,7.83691,15.42969,15.10156,23.72363,22.79248,2.22266,2.06006,4.45605,4.13086,6.69434,6.22314,1.27246,1.18945,1.45117,3.13525,.41797,4.52637Z"/></svg>