<?xml version="1.0" encoding="UTF-8"?><svg id="a" xmlns="http://www.w3.org/2000/svg" viewBox="0 0 705.29781 581.92969"><defs><style>.b{fill:#010101;}</style></defs><path class="b" d="M701.35616,548.06836c-3.94727-3.00977-7.67676-5.85254-11.11328-9.06543-8.12305-7.21191-18.55273-11.69629-29.37598-12.63379-3.27051-.48438-6.59863-.79395-9.84961-.91895-14.26562-1.57715-27.43066-7.50098-38.07227-17.13086l-.23633-.2002-.22656-.13184c-2.28125-1.32715-3.05762-4.26465-1.76465-6.48828,4.35352-7.03125,7.99414-14.53516,10.82715-22.31641,.04297-.12109,.08301-.25,.12012-.39258,1.64648-6.46582,4.45508-7.32031,10.12988-6.78125,1.18164,.11035,2.32129,.08496,3.4248,.05859,1.08594-.02344,2.11035-.04883,3.1377,.07129,6.52051,.55469,12.69238-3.00195,15.4834-8.88477,3.78711-5.20312,3.74316-12.35059-.12891-17.50684-1.75488-4.12988-2.94043-8.47656-3.51855-12.87109-.18359-1.66211-.97266-3.19141-2.2207-4.30664-1.34863-1.20508-3.08691-1.80566-4.8916-1.70898-1.73438,.09863-3.33105,.83984-4.52148,2.09277-7.14746,5.8877-11.95215,14.14453-13.55078,23.36426-.24902,1.84766-.74121,3.04883-1.46387,3.57129-.85156,.61523-2.48242,.68457-4.89844,.23828-4.18555-1.39746-8.52832-2.40234-12.91113-2.9873-.1875-.02441-.38379-.03613-.5918-.03613-.05957,.00195-.0918,.00098-.1377,.00098-8.39453,0-11.38379-5.69043-14.39355-13.0498-.36035-1.77148,.01758-3.6377,1.03906-5.12793,2.17773-2.86719,4.69629-5.47363,7.48828-7.74707l.08789-.0752c4.21289-3.76953,8.62988-7.4834,12.90137-11.0752l1.84863-1.55469c5.14746-3.75098,6.65723-10.71094,3.52344-16.26074-2.3457-4.66211-4.18359-9.58984-5.44336-14.56836-2.47168-11.31543-8.93457-21.37109-18.19922-28.32031-6.64062-5.45508-9.88184-8.21484-10.92969-11.16016-1.06445-2.99219-.23633-7.1123,1.41504-15.31934l.05176-.25488c.25-1.24609,.60254-2.48438,.97559-3.79395,.37891-1.33008,.76953-2.7041,1.05859-4.125l.52441-2.56641c1.02051-4.9707,2.07617-10.11035,2.79199-15.25,.4668-3.35742-.02637-5.88477-1.50879-7.72559-2.07715-2.58008-5.58105-3.13086-8.01172-3.31738-3.35352-.29199-6.76074-.38281-10.14453-.26074-15.33691,.69141-206.68457,3.98047-227.01123,3.67676-7.65088-.11035-9.0459-1.31738-10.65918-9.21045-.47461-2.40723-.59375-4.86475-.35352-7.31152,1.22998-12.87988,2.89307-29.86182,4.85547-47.02197,.36816-2.31201,1.19189-4.48535,2.48535-6.51807,7.21338-12.05762,13.17969-21.76514,18.77588-30.5498l1.84082-2.88916c11.72461-18.40625,23.84766-37.4375,36.12695-55.9209,4.91797-5.24219,5.85449-12.95996,2.32422-19.22998l-.16016-.24854c-1.07227-1.46729-1.66406-3.25293-1.68457-5.06934,.43652-.20654,1.09766-.43359,1.69727-.63965,1.21973-.41846,2.60059-.89258,3.6582-1.62158,2.16992-1.38818,3.88867-3.3584,4.94336-5.63818,3.03027-6.12939,1.27734-13.54932-4.16699-17.67334-.96191-.80566-2.01953-1.53027-3.04297-2.23145-3.65625-2.50488-5.87109-4.22119-5.36035-7.7998l.02344-.25732c.35547-9.28613-2.13672-18.30615-7.23926-26.13672-5.08691-9.10742-7.7041-19.43164-7.57324-29.8623l.14453-2.47412c.45801-7.70947,.6875-11.57959-1.7373-14.15479-2.4707-2.62256-6.60156-2.625-14.83105-2.63037-1.17676-.00049-2.44629-.00146-3.81543-.00928C330.80782-.04443,14.87862-.04296,10.82198,.13233,3.19259,.46192,.69161,2.97266,.52901,10.46534l-.02246,1.04834C.13204,28.89112-.25517,46.86036,.22042,64.54297c.3291,12.26123,1.17432,24.6875,1.9917,36.70459,.38232,5.61572,.77734,11.42285,1.11182,17.06494-.2041,17.66602,5.13623,34.58838,15.44385,48.9375l.06055,.08105c5.44824,6.97119,8.78613,15.31055,9.65723,24.15527,.57568,5.01465,1.60596,10.00635,3.05127,14.79883,1.25879,4.4292,3.229,8.59277,5.90723,12.4458,5.44629,7.27881,11.53564,14.21289,16.80518,20.12891,.10645,.12109,.22217,.23633,.34131,.34229,6.02734,5.3623,9.47168,13.06445,9.44922,21.15918,.03955,4.771,1.31104,9.479,3.67773,13.61914,1.72266,3.4082,2.30371,7.19922,1.68066,10.96729l-.01562,.10742c-.2583,2.13574-.52246,4.27148-.78613,6.40771-1.38672,11.23047-2.82129,22.84277-3.46191,34.3877-.26318,6.60449-2.48682,12.89844-6.44629,18.22363-2.74365,3.77344-5.31396,7.72754-7.79932,11.55176-1.34717,2.07227-2.69385,4.14453-4.07129,6.19531-3.1416,4.67578-3.13574,9.25684,.01514,12.25391,6.17871,5.87598,5.62207,11.69141,2.29688,21.03613-.04688,.13281-.08887,.27051-.12158,.40332-1.62061,6.44434-2.55078,13.0791-2.75684,19.62891-.34131,2.81738-.63916,5.67969-.92676,8.44824-1.51758,14.58887-2.95068,28.36816-10.60449,40.89941-3.60205,5.80176-4.43115,12.84668-2.27295,19.33203,.07471,.22266,.16504,.44336,.27393,.65918,1.13379,2.22949,3.16797,3.88477,5.58105,4.54102,.44434,.12109,.90918,.17383,1.38525,.14355,2.34619-.12207,4.61572-.68848,6.75342-1.68457,18.73926-5.96777,42.93945-7.94727,73.98633-6.05469,16.76367,1.02344,32.9834,7.86719,48.66943,14.48535,5.99951,2.53125,12.20312,5.14941,18.34033,7.39062,15.08545,5.26074,30.80811,8.56738,46.73291,9.82715,8.90674,1.34277,18.14941,.61426,26.69775-2.09473,6.39844-1.90625,13.13135-1.80176,19.44434,.29297,4.17383,1.42871,8.49121,2.55664,12.83545,3.35254,.21875,.03906,.43994,.06445,.65527,.07227,3.95215,.1582,7.87646-.36328,11.6543-1.55273l.16748-.05957c1.12402-.44434,2.09131-1.19629,2.79785-2.17676,2.00879-2.78516,1.40869-6.67285-1.32471-8.72754-2.22314-1.92285-4.75781-3.38867-7.53955-4.35938-.14551-.0498-.29395-.09375-.43994-.12988-3.3125-.82227-6.69434-1.42676-9.96484-2.01172-3.01367-.54004-6.13037-1.09766-9.18652-1.83105-4.54346-.95605-8.97607-2.43945-13.17578-4.41016l-.26758-.10742c-.84326-.2832-1.50342-.92383-1.81006-1.75977-.26904-.73145-.23633-1.52441,.09082-2.23145,.32715-.70801,.91016-1.24512,1.6416-1.51367l.25098-.1084c4.13428-2.05469,8.50244-3.65625,12.98828-4.7627,.24414-.06055,.48242-.14453,.69287-.24121,6.7124-3.05078,14.39746-2.45508,20.55859,1.58789,.15527,.10254,.31934,.19727,.49609,.28418,3.91992,1.89844,8.51074,2.12402,12.51025,.64844,5.66895-1.84961,11.14502-.66504,16.94238,.58789,3.50977,.75781,7.1377,1.54297,10.88916,1.64062,1.37988,.35254,2.56982,1.19922,3.35693,2.38965,.12451,.1875,.26514,.36621,.41797,.52734,4.1582,4.38867,7.34814,9.47949,9.48145,15.12891,.02637,.8877,.13184,1.77539,.31396,2.63965,1.67285,7.97656,9.5332,13.19238,17.52051,11.66016,.04688-.00098,.09277-.00098,.13965-.00098,3.98535,0,7.93164,.6084,11.73047,1.80859l.13574,.03906c3.27539,.83496,6.28809,2.31152,8.95312,4.38867,5.55371,4.75977,8.9707,7.81055,9.26465,10.35449,.28516,2.47363-1.93359,6-6.71094,12.91309-3.1709,4.58984-2.65723,8.50195,1.57031,11.65918,2.82324,2.01758,5.8877,3.69434,9.06543,4.9668,6.13965,2.59375,12.40039,5.16895,18.45508,7.66016,6.77832,2.78906,13.78711,5.67285,20.56836,8.55176,.44531,.24805,.89746,.48438,1.35352,.70801,4.17676,2.04688,8.6084,3.01562,12.97559,3.01562,10.91602-.00098,21.42676-6.0498,26.53418-16.41895,2.66016-4.41016,4.71387-7.35449,8.88965-8.06152,9.37793-1.74023,18.45117-5.56934,26.16699-11.0332,1.61426-.78711,3.48535-.82227,5.12891-.09375l.12988,.05273c5.92969,2.23633,10.21973,7.2793,11.48242,13.52637,.02051,.09473,.04395,.18848,.07031,.2832l.04883,.16113c1.09961,3.72461,4.03711,6.44434,7.85742,7.27539,3.80469,.82617,7.74609-.47461,10.28809-3.40137,1.18848-1.36621,2.23633-2.60938,3.20508-3.80176,2.12109-2.61328,2.97559-5.00684,2.61035-7.31934-.34961-2.21582-1.81934-4.17773-4.36914-5.83398-.64453-.41797-.93848-.60938,.46777-3.74219l.18555-.41406c.34961-.78809,.74023-1.56445,1.12988-2.33984,1.86816-3.72266,3.98535-7.94238,1.98047-13.44922-.11719-.29297-.18164-.60156-.19336-.91504-.02539-.72949,.23438-1.42578,.73145-1.95996,.49805-.53418,1.17383-.84277,1.90332-.86914l.31055-.03027c7.49512-1.21289,14.72656-4.18164,20.91211-8.58496,2.38672-1.69922,5.64551-1.31152,7.41895,.87988,2.64551,3.27051,2.77637,4.28711,3.50195,9.92871l.05859,.45605c1.31738,10.26855,2.28516,11.97949,12.67383,12.83984,12.00293,.99414,22.54688,5.58887,33.70898,10.45312,4.3291,1.88672,8.80469,3.83691,13.33008,5.5332,2.0791,.77148,3.84375,2.14258,5.10547,3.96484,5.90625,9.55957,14.6084,9.27441,22.2832,9.02051,3.71289-.125,7.21973-.23828,10.32812,.66895,2.90234,.85254,5.97461-2.7334,6.55859-3.45898,.81934-1.01465,1.65723-2.12695,2.63867-3.50195,3.12793-4.3916,2.21191-10.39844-2.08691-13.67578Zm-1.98438,10.77246c-.9209,1.29199-1.70215,2.3291-2.45898,3.26562-.58594,.72754-1.35938,1.37793-1.80176,1.65137-3.71387-.97168-7.59668-.84473-11.35742-.71973-7.24902,.23828-13.50781,.44531-17.89355-6.69629l-.06738-.10352c-1.85059-2.7041-4.45312-4.73535-7.5166-5.87207-4.39551-1.64746-8.81055-3.57129-13.08008-5.43164-11.04395-4.81348-22.46484-9.79004-35.29395-10.85254-3.71387-.30762-5.85742-.61719-6.5498-1.36621-.76953-.83398-1.09082-3.33789-1.57715-7.12695l-.05859-.45996c-.75488-5.86621-1.03711-8.06152-4.57422-12.43359-3.43066-4.24121-9.6709-5.03516-14.2041-1.80957-5.52832,3.93457-11.98242,6.5957-18.6748,7.70117-1.99805,.11426-3.84375,.98047-5.21191,2.44922-1.40723,1.51172-2.1416,3.48145-2.06836,5.54688,.03125,.88965,.21484,1.75977,.51758,2.51758,1.24121,3.40918-.09082,6.06445-1.77734,9.4248-.41309,.82324-.84082,1.6748-1.23047,2.55371l-.17773,.39551c-1.10449,2.45996-3.16016,7.04004,1.37012,9.9834,.90039,.58496,2.00586,1.47949,2.1543,2.41992,.16113,1.02051-.75586,2.40625-1.55273,3.38672-.93262,1.14844-1.94629,2.35059-3.09766,3.67578-1.36426,1.56836-3.39746,2.24121-5.45215,1.79492-2.00781-.43652-3.5498-1.85938-4.14551-3.875l-.00781-.02539c-1.60547-7.86914-7.03613-14.25977-14.54199-17.11426-2.97949-1.29395-6.35547-1.22363-9.2793,.20312-.2168,.10547-.42676,.23242-.61914,.36914-7.20312,5.08984-15.59375,8.63086-24.22656,10.2334-6.70898,1.13574-9.80762,6.27344-12.30078,10.40723-.05762,.09668-.1123,.19629-.15625,.28613-5.97949,12.13379-20.72461,17.15723-32.86914,11.2041-.38086-.18652-.75684-.38379-1.12695-.58887-.13086-.07324-.26758-.14062-.39844-.19531-6.87988-2.92578-13.90234-5.81445-20.69434-8.60938-6.04395-2.48633-12.29395-5.05762-18.45508-7.65918-2.85059-1.14258-5.5625-2.62695-8.01855-4.38086-1.70117-1.27051-2.25293-2.10645-.40625-4.78027,10.83496-15.67773,10.57617-17.91602-3.45703-29.94336l-.08594-.07031c-3.20605-2.50977-6.83008-4.29688-10.77344-5.31152-4.2666-1.34082-8.69531-2.02051-13.15723-2.02051-.35156-.00195-.68848,.01074-1.05566,.08301-5.35547,1.04395-10.60449-2.43848-11.72461-7.77051-.12598-.59766-.19629-1.21191-.21094-1.82812-.01172-.49414-.10254-.97266-.27051-1.42188-2.35742-6.29492-5.89209-11.96484-10.50732-16.85645-1.50146-2.22656-3.76221-3.79883-6.37158-4.42871-.2959-.07227-.6084-.1123-.9248-.11914-3.29492-.0791-6.55713-.78418-10.01074-1.53125-6.19287-1.33887-12.59717-2.72363-19.63916-.42285-2.81934,1.04102-5.98535,.88574-8.62109-.38867-7.57471-4.97168-17.0166-5.71973-25.29004-1.99805-4.7627,1.18066-9.40674,2.88281-13.80664,5.05957-1.9209,.74512-3.45068,2.18066-4.31836,4.05566-.8877,1.91992-.97559,4.07031-.24609,6.05566,.81494,2.21875,2.54785,3.93262,4.76709,4.72461,4.51318,2.10742,9.27246,3.69531,14.08057,4.70508,3.12939,.75293,6.31982,1.32324,9.40527,1.87598,3.18994,.57031,6.48926,1.16016,9.64258,1.94238,2.20508,.76953,4.21484,1.93848,5.97461,3.47363l.18115,.14355c.58398,.42188,.71631,1.23926,.29541,1.82324-.1333,.18457-.31104,.33008-.51758,.42383-3.19287,.99316-6.50049,1.42578-9.80371,1.29785-4.09814-.75098-8.17383-1.81543-12.13623-3.17188-7.31299-2.42773-15.08301-2.54883-22.51123-.33301-7.88965,2.5-16.38379,3.16211-24.56543,1.91602l-.18066-.02051c-15.52783-1.2207-30.85938-4.44043-45.53369-9.55859-5.98779-2.18652-12.13379-4.78027-18.07764-7.28809-16.07275-6.78223-32.69238-13.79492-50.30859-14.86914-31.70361-1.93457-56.52051,.12793-75.87207,6.30078-.17432,.05566-.34473,.12402-.50146,.19824-1.52979,.71875-3.15918,1.13379-4.84619,1.2334-1.0083-.30469-1.85498-1.01074-2.32227-1.92969-1.68652-5.06738-1.03809-10.5752,1.7876-15.12793,8.25293-13.51074,9.81201-28.50391,11.32031-43.00391,.28564-2.74707,.58105-5.58887,.9165-8.35449,.01465-.11719,.02344-.23535,.02734-.35938,.20215-6.2832,1.08203-12.56152,2.60156-18.61426,3.08594-8.67188,5.35254-17.84863-3.56445-26.32812-1.71777-1.63379-.30518-4.3623,.68945-5.84277,1.3916-2.07129,2.75244-4.16504,4.11279-6.25879,2.45068-3.76953,4.98486-7.66797,7.63574-11.31348,4.54688-6.11523,7.11035-13.37305,7.41211-20.94824,.62939-11.33789,2.05322-22.86523,3.43018-34.0127,.26221-2.12354,.52441-4.24609,.78125-6.36865,.78711-4.83057,.02881-9.6875-2.19482-14.05078l-.06006-.11035c-1.95996-3.41016-3.01318-7.29199-3.04541-11.19873,.02637-9.47949-4.01221-18.53076-11.0835-24.84326-5.20264-5.8418-11.19287-12.66455-16.45752-19.69727-2.31104-3.32764-4.04443-6.99121-5.16357-10.92725-1.37061-4.54639-2.34033-9.24463-2.87793-13.92383-.95801-9.73242-4.64355-18.95215-10.65771-26.66357-9.6626-13.46826-14.66748-29.34619-14.47559-45.91797,.00098-.09082-.00098-.18311-.00684-.29102-.33789-5.72998-.7334-11.54834-1.11621-17.17529-.81396-11.96631-1.65576-24.34082-1.98242-36.49951-.47217-17.56152-.08643-35.46924,.28711-52.78711l.02246-1.04834c.10449-4.82275,.5166-5.22998,5.50928-5.4458,4.26465-.17334,319.97217-.17188,348.25342,.00244,1.37988,.00781,2.6582,.00879,3.84277,.00928,5.92285,.00391,10.20312,.00635,11.19336,1.05859,.94629,1.00439,.71191,4.95801,.38672,10.43018l-.14844,2.54053-.00391,.10693c-.15332,11.33203,2.68848,22.55127,8.20801,32.42529,.05859,.10791,.12402,.21484,.16504,.27295,4.50977,6.89453,6.7373,14.88379,6.44629,23.1123-.89062,6.74268,3.95703,10.06396,7.50293,12.49316,.98438,.67432,1.91406,1.31104,2.69727,1.97266l.11426,.09082c3.56348,2.6709,4.7168,7.50732,2.71484,11.55859-.68164,1.47119-1.7627,2.71094-3.19824,3.63086-.56348,.3877-1.60059,.74365-2.5166,1.05811-1.13965,.39111-2.31836,.7959-3.24512,1.43701-1.0957,.7583-1.77637,2.01758-1.82227,3.3667-.10254,3.0083,.7998,6.00293,2.54492,8.45215,2.38477,4.34912,1.70312,9.66992-1.71387,13.27783-.16309,.17285-.31348,.36035-.4375,.54932-12.31738,18.53809-24.4707,37.61719-36.22461,56.06787l-1.83984,2.88916c-5.62207,8.8252-11.61182,18.57031-18.81348,30.60986-1.63818,2.57275-2.70752,5.40625-3.1792,8.42188l-.01367,.10205c-1.96973,17.21973-3.6377,34.25244-4.87061,47.16064-.28711,2.92676-.14404,5.87402,.42871,8.77734,2.09229,10.23828,5.42139,13.08105,15.48877,13.22656,20.34912,.29785,211.95166-2.98926,227.28369-3.68164,3.16113-.1084,6.3584-.02832,9.53516,.24805,2.36523,.18262,3.8877,.67676,4.52637,1.46973,.5625,.69922,.71387,2.01172,.4502,3.90137-.69336,4.98145-1.73145,10.04102-2.73633,14.93457l-.52734,2.57617c-.25,1.23145-.59863,2.45508-.9668,3.75098-.38379,1.3457-.7793,2.7373-1.06934,4.17676l-.05078,.25488c-3.67188,18.25098-3.25,19.42285,11.28516,31.36523l.08887,.07031c8.32812,6.23047,14.13672,15.25684,16.375,25.49609,1.37305,5.43262,3.34863,10.72363,5.87207,15.72852l.0625,.11621c1.91895,3.35547,.99707,7.58398-2.14453,9.83496l-2.07031,1.73242c-4.28613,3.60352-8.71777,7.33008-12.97461,11.13672-3.09668,2.52734-5.88965,5.4248-8.30371,8.61133l-.05859,.08203c-1.81836,2.61328-2.49707,5.90039-1.85938,9.0293,.05762,.27344,.14062,.54688,.24707,.80566,2.6377,6.47168,6.61719,16.23633,19.04297,16.23633,.04297,0,.08496-.00098,.12793-.00098,4.04785,.54395,8.06152,1.47461,11.94922,2.77246,.18359,.05957,.37793,.11035,.55273,.1416,2.71582,.51074,6.17578,.84766,8.83887-1.07617,1.9043-1.37598,3.0459-3.65137,3.47559-6.86328,1.38965-7.99902,5.61914-15.23145,11.91016-20.36523l.28418-.27246c.31445-.35254,.74805-.56152,1.21973-.58789,.46875-.03027,.92676,.13281,1.2793,.44629,.32715,.29199,.5332,.69336,.58789,1.17773,.64746,4.92871,1.9668,9.74902,3.92188,14.3252,.13477,.31543,.31348,.62109,.53125,.9082,2.62402,3.45703,2.62598,8.28906,.00391,11.75l-.16895,.22363-.11523,.25488c-1.85938,4.10742-6.12305,6.60742-10.53906,6.22656-1.29785-.1543-2.55078-.125-3.76074-.0957-1.00391,.02344-1.94922,.04492-2.83789-.03906-6.47559-.60938-12.82812,.24023-15.4248,10.45605-2.70996,7.44629-6.20117,14.63965-10.41016,21.43945-2.66406,4.58008-1.18457,10.44922,3.33887,13.2627,11.39453,10.24414,25.46191,16.54688,40.70312,18.23242,.11719,.0127,.23438,.02148,.30859,.02246,3.13867,.12207,6.31055,.41895,9.42676,.88281l.15625,.01855c9.78516,.83105,19.2168,4.87891,26.51074,11.35352,3.57324,3.34082,7.39941,6.25781,11.4502,9.34668,2.13965,1.63184,2.59961,4.61719,1.04688,6.7959Z"/></svg>