<?xml version="1.0" encoding="UTF-8"?><svg id="a" xmlns="http://www.w3.org/2000/svg" viewBox="0 0 536.23824 786.70122"><defs><style>.b{fill:#010101;}</style></defs><path class="b" d="M532.7433,358.64116c-7.74023-12.56104-16.82422-24.34375-27.00098-35.021-.02539-.02686-.05176-.05322-.07812-.07861-2.23438-2.14648-5.6416-4.92676-9.48438-4.28174-3.99414,.67188-6.51172,4.68359-8.26074,8.10596-.12988,.25586-.24414,.53125-.33594,.80273-.23828,.70459-.55762,1.38135-.9502,2.0127-1.375,2.21582-3.53125,3.76318-6.07031,4.35742-2.53906,.5957-5.1582,.16406-7.39453-1.22412-2.05371-1.24512-4.01562-2.66748-5.84863-4.24121-4.43359-3.74609-9.15332-7.24756-14.02637-10.40723-.04395-.02832-.08887-.05566-.13379-.08105-4.69727-2.64355-7.39551-7.81787-6.87695-13.16553,.02344-.22119,.03223-.44434,.02832-.68213-.23633-10.78418-1.08789-21.66943-2.52246-32.271l-.02051-.19824c-.35352-3.23291-1.94434-6.13525-4.48047-8.17188-2.50293-2.00977-5.62891-2.9375-8.82129-2.62305-9.98145,.13184-20.54785,.09668-32.29297-.10742-5.18164-.09033-8.03613-.13965-9.41113-1.16113-1.39551-1.03613-2.42383-3.97168-4.12012-9.0708-8.74121-26.27344-17.5498-53.01514-26.06836-78.87598-5.66211-17.18799-11.32422-34.37549-17.00781-51.55615-3.31836-10.03027-6.66797-20.05078-10.01758-30.0708-6.2168-18.59521-12.64355-37.82129-18.75293-56.79541-1.54688-6.40576-6.14551-11.60498-12.31738-13.91895-5.0791-1.91406-10.22754-3.9292-15.20703-5.87793-9.51562-3.7251-19.35596-7.57666-29.2793-10.94922-11.6123-5.92041-25.64551-3.14404-34.10205,6.7207-2.32617,2.62354-5.09668,4.74609-8.23438,6.30908-12.65869,5.60889-23.23584,15.41211-29.8208,27.67236-2.13135,4.25098-6.98682,6.34619-11.53955,4.98535-.09375-.02832-.18848-.05029-.28418-.06738-15.62988-2.74219-27.11865-7.45557-32.38525-21.54395-.50781-1.36133-1.16406-2.67041-1.95361-3.89648-2.80762-4.33691-6.37012-6.66455-10.10547-6.57764-3.47705,.08984-6.66162,2.3418-8.93457,6.28613-6.00781,9.84131-11.30322,20.22754-15.7627,30.93066-11.64648,30.11914-22.37402,60.01953-32.23828,87.86035-2.3501,6.78174-3.74512,13.85352-4.14062,20.95752-.83008,10.29102-.71045,20.71484,.36621,31.06836,1.51172,10.85693-.74902,22.02051-6.36572,31.43506-9.54346,16.01318-11.60645,51.85107,3.86914,65.7749,5.34131,4.80566,6.56934,12.78418,2.92236,18.96777-.15039,.25439-.27979,.51758-.38232,.77881-6.20508,15.71289-13.8457,30.97363-22.65771,45.27734-4.02148,5.99463-6.97949,12.57812-8.79199,19.57324-.03564,.13867-.06738,.27832-.09375,.41357-2.16504,10.96973-3.60693,22.229-5.00146,33.11865-.52002,4.0625-1.04053,8.125-1.59717,12.17969-.2417,1.75977-.28223,3.5957-.32178,5.37109-.06934,3.14453-.14111,6.39648-1.41748,8.21289-.96924,1.38086-1.8877,1.36328-5.78662-.11133-1.9707-.74609-4.04102-1.49805-6.1665-1.49902-.97412,.01562-1.96533-.04297-3.01123-.09668-1.47119-.0752-2.98975-.15527-4.54297-.0625-1.17969-.08691-2.36621,.13379-3.44043,.63184-1.69971,.78711-2.9917,2.18848-3.63721,3.94727-.61816,1.68359-.57275,3.50195,.12305,5.14551,1.00928,3.75,2.24902,7.42578,3.43359,10.87207,2.95312,8.5918,5.92383,17.17676,8.89404,25.7627,4.84961,14.01758,9.86426,28.5127,14.71729,42.79297,21.63672,63.56152,43.4707,128.0166,64.896,191.5752,.01074,.03125,.02197,.06348,.03418,.09473,3.29883,8.62402,5.79297,17.60645,7.41309,26.69629,.00928,.05176,.01123,.10449,.01221,.1582,.12598,7.85645,6.37891,14.2207,14.23486,14.49023,.04053-.00098,.08301,.00098,.12549,.00098l.32178-.00195c13.18164,.02246,23.88721,10.76562,23.86523,24.01074,.02002,.82715,.17432,1.64062,.4585,2.41895,.69531,1.90039,2.08887,3.41699,3.92432,4.26953,1.01367,.4707,2.0957,.70801,3.18311,.70801,.88086,0,1.76562-.15625,2.62109-.46875,2.91162-1.08105,5.18115-3.37695,6.24023-6.33789,7.02441-20.67188,10.73486-42.22266,11.02832-64.05176,.00586-.40918-.03418-.83008-.11865-1.25195-1.46191-7.27832,1.2041-14.70312,6.95947-19.39062,3.17383-2.36719,2.90967-8.68066,2.75098-10.5791-.35596-4.10547-1.39355-8.0918-3.08447-11.84961-.01416-.03125-.0293-.0625-.04443-.09375-1.85254-3.69824-1.03125-8.24805,1.99756-11.06348,.05029-.04688,.09814-.09473,.14404-.14551,3.53516-3.87207,7.21289-7.75,10.76953-11.5,3.27832-3.45605,6.66797-7.03027,9.95117-10.60449,.16064-.17578,.30859-.36133,.44678-.55371,.12402-.17188,.25635-.33789,.39404-.49609,2.39453-2.7334,6.55371-3.02441,9.30615-.66797,7.40283,7.32422,19.03711,7.87695,27.10205,1.27441,.03369-.02734,.06934-.05469,.10156-.07324,6.93506-4.07812,14.17432-7.8125,21.51709-11.10059,.03271-.01367,.06494-.0293,.09668-.04492,8.65918-4.33105,17.30566-10.61914,15.77832-24.42188-.03418-.30762-.04688-.61914-.03809-.92773,.05273-1.74902,.78418-3.37305,2.05859-4.57227s2.95117-1.82227,4.68848-1.77832c.10547,.00293,.21191,0,.31836-.01074,1.84082-.17871,3.75488-.44434,5.72266-.79102,1.78516-.07812,3.56641-.33301,5.29199-.75781,14.39648-3.53613,23.33105-18.14648,19.90723-32.62891-.17969-2.10059-.46191-4.19922-.73535-6.22852-.3916-2.91309-.76172-5.66406-.85938-8.43555-.00586-.1875-.02344-.37598-.05176-.56543-.54883-3.66895-.21582-7.46973,.96387-10.99219,.00879-.02832,.04102-.1084,.14062-.25684,4.21094-6.28516,3.13965-14.79688-2.48047-19.85059-1.88086-2.00977-3.43555-4.28418-4.62207-6.76367-.06348-.13379-.07715-.18848-.07715-.18945-.12598-.63184-.01465-1.28613,.31348-1.84082,.05566-.09375,.17969-.20312,.33496-.29395,5.47656-3.21094,11.1875-6.2793,16.71094-9.24609l2.95898-1.59082c.44336-.23828,.98535-.125,1.29395,.26953l1.16504,1.49512c2.82031,3.61914,5.64062,7.23828,8.47363,10.91895,.99219,1.63965,2.1416,3.19336,3.41406,4.61426,.18652,.20996,.38086,.39941,.5957,.58398l.41699,.36133c2.12695,1.84668,4.78027,4.1416,7.53125,3.64941,3.27051-.58398,5.62109-.31934,7.17969,.81348,2.20801,1.60449,3.08301,5.05859,3.7793,10.11035,.02832,.20996,.06836,.4209,.11816,.62695,.00098,.00488,.02539,.10352,.02637,.1084,.65332,2.64551,2.83301,4.42676,5.55371,4.54004,2.7041,.08594,5.14746-1.55371,6.01953-4.14551,2.72852-8.11816,1.13574-14.13477-5.16406-19.50879-.02637-.02246-.05371-.04492-.08105-.06641-.26758-.20996-.51367-.44434-.73242-.69824-1.76855-2.05664-1.62598-5.13965,.32227-7.01367,.37988-.36426,.6875-.73633,.93457-1.13086,2.7207-4.31836,6.19336-8.03125,10.31934-11.03418,.05078-.03613,.11133-.07129,.18652-.10449,8.89551-3.98828,16.82129-10.11523,22.95508-17.7627,3.35645-4.38672,8.29102-4.06152,14.00293-3.68652,1.8252,.11914,3.71191,.24512,5.55957,.19531,2.70508-.07422,3.41211,1.06738,4.83789,4.60742,.38379,.95312,.78125,1.93848,1.29102,2.89648,1.81836,3.41309,3.94141,6.63965,7.13672,7.12793,3.04492,.4707,5.76855-1.73926,8.02344-3.95898,4.2998-4.23535,8.57129-8.62598,12.70215-12.87207,5.8916-6.05664,11.98438-12.31934,18.21582-18.18457,2.44727-2.30371,4.8877-4.69434,7.24805-7.00684,12.0791-11.83301,23.48828-23.00879,39.85938-27.81641,.34668-.10254,.65527-.2207,.93457-.3584,2.7041-1.31934,4.875-3.55273,6.11816-6.29297,4.70117-9.32227,9.06934-18.75049,13.09082-27.5542,3.48828-6.58838,3.0459-14.48389-1.1582-20.6416Zm-3.28906,18.35596c-.02441,.0459-.04785,.09229-.06934,.13965-4.0166,8.79346-8.37891,18.21094-13.06348,27.49805-.0166,.03418-.0332,.06836-.04883,.10352-.76172,1.69824-2.10059,3.08301-3.77832,3.90137-.04785,.02344-.09961,.03711-.14746,.05176-17.56738,5.15918-29.96094,17.2998-41.94727,29.04199-2.34277,2.29492-4.76465,4.66797-7.17676,6.9375-6.31152,5.94141-12.44238,12.24316-18.37207,18.33887-4.1123,4.22754-8.36426,8.59863-12.62598,12.7959-2.57812,2.53809-3.54004,2.61426-3.75879,2.5791-.34863-.05273-1.38477-.60156-3.48047-4.53613-.38574-.72363-.71582-1.54492-1.06641-2.41406-1.34375-3.33594-3.2002-7.91602-9.60547-7.7373-1.61426,.04102-3.31055-.06934-5.10254-.18652-6.24414-.40918-13.31836-.87598-18.26562,5.59277-5.60547,6.98633-12.88965,12.61719-21.05957,16.28027-.38867,.17383-.75488,.38477-1.08789,.62695-4.6416,3.37793-8.54785,7.55371-11.61133,12.41699-.01367,.02051-.05469,.0791-.16406,.18457-3.8623,3.7168-4.14746,9.81348-.65137,13.87891,.41895,.4873,.88867,.93848,1.39746,1.34082,4.67285,4.00293,5.69141,7.9541,3.63281,14.08008-.2373,.70312-.84863,.75684-1.07324,.74316-.33301-.01367-.76074-.15332-.92578-.82031-.01074-.0459-.01953-.09277-.02637-.14062-.71777-5.20898-1.75684-10.54004-5.79297-13.47363-2.7002-1.96094-6.26855-2.52246-10.91016-1.70605-.76172-.14453-2.58008-1.72168-3.46289-2.48828l-.42969-.37207c-.04688-.04004-.08984-.08105-.13379-.12891-1.06738-1.19336-2.03125-2.49609-2.86426-3.87207-.10352-.17188-.2168-.33887-.34863-.51074-2.80664-3.64062-5.63281-7.26562-8.45801-10.8916l-1.16406-1.49414c-1.81152-2.3252-5.01074-2.99902-7.60938-1.59961l-2.9541,1.58887c-5.56348,2.98828-11.31641,6.0791-16.87207,9.33594-.89062,.52148-1.62012,1.23438-2.11035,2.0625-.95703,1.61621-1.28125,3.52148-.91504,5.3623,.08887,.44531,.24219,.89355,.47168,1.37207,1.42578,2.97852,3.29785,5.70801,5.56641,8.1123,.05078,.05469,.10547,.10742,.16113,.15723,3.83301,3.39258,4.57715,9.1543,1.72852,13.40625-.32617,.48926-.56445,.96484-.72754,1.45215-1.42773,4.26562-1.83105,8.87012-1.16602,13.31152,.10645,3.02539,.51074,6.02832,.90137,8.93262,.26465,1.9707,.53906,4.00879,.70898,5.99707,.02344,.25879,.06445,.51465,.12598,.77637,2.78418,11.7627-4.50293,23.67871-16.24609,26.5625-1.40723,.34668-2.8584,.55469-4.32617,.61816-.22949,.01074-.45703,.03613-.68066,.07617-1.75293,.31055-3.48535,.55273-5.15039,.71875-.06348-.00098-.12598-.00098-.18848-.00098-2.95215,0-5.74902,1.10742-7.90869,3.13965-2.24658,2.11523-3.53564,4.97852-3.62891,8.06152-.0166,.54199,.00586,1.0918,.06592,1.63281,1.12207,10.13965-4.13965,14.93555-12.99902,19.37402-7.49316,3.35645-14.88037,7.16895-21.96289,11.33398-.24951,.14746-.49561,.31934-.72998,.51172-6.09277,4.98828-14.89209,4.55371-20.46729-1.00977-.03857-.03809-.07861-.07617-.11963-.11133-4.82666-4.22559-12.19092-3.73535-16.41699,1.0918-.24414,.2793-.47412,.56836-.68945,.86816-.02246,.03125-.04443,.0625-.07031,.08984-3.25586,3.5459-6.63184,7.10449-9.896,10.54688-3.55078,3.74316-7.22168,7.61328-10.76855,11.49707-4.56689,4.31055-5.80273,11.21191-3.01074,16.8418,1.44824,3.23047,2.3374,6.65723,2.64258,10.17773,.25781,3.08789-.27979,5.67188-.74951,6.14062-.04199,.03027-.08301,.06152-.12256,.09375-7.23535,5.85938-10.59131,15.16992-8.75879,24.2959,.01904,.09375,.02246,.15918,.02148,.19922-.28613,21.30469-3.90771,42.33691-10.75,62.47363-.54736,1.5293-1.73535,2.73145-3.24805,3.29297-.646,.23633-1.3457,.20703-1.96924-.08301-.62402-.29004-1.09766-.80566-1.33398-1.45117-.09668-.26465-.14941-.54102-.15527-.75781,.02734-15.9375-12.91748-28.92773-28.84033-28.95508h-.11426c-.08105,0-.16162,0-.24268,.00098-5.16504-.20605-9.26709-4.39941-9.35059-9.56934-.00488-.33789-.03418-.65039-.08887-.95605-1.67236-9.38281-4.24463-18.6543-7.64697-27.55762-21.42188-63.54785-43.25244-127.99219-64.88477-191.54199-4.85693-14.29199-9.87402-28.79297-14.72607-42.81738-2.96924-8.58203-5.93848-17.16504-8.89062-25.75293-1.17578-3.41992-2.40527-7.06543-3.38135-10.72363-.03711-.13965-.08643-.27539-.14697-.40527-.22607-.48828-.24854-1.03613-.06299-1.54102s.55615-.90723,1.04492-1.13281c.32764-.15234,.69092-.21289,1.05225-.17578,.1416,.01465,.28369,.0166,.42676,.00781,1.32568-.08887,2.6958-.01953,4.14648,.05566,.99561,.05078,2.02295,.10352,3.06543,.10352,.09033,0,.17334-.00195,.27246-.00098,1.21924,0,2.79883,.59766,4.32715,1.17578,3.28906,1.24414,8.26123,3.12598,11.64648-1.69043,2.15088-3.06055,2.23975-7.08496,2.32568-10.97754,.0376-1.70996,.07324-3.3252,.27588-4.80176,.55908-4.06934,1.08154-8.14648,1.60352-12.22461,1.38379-10.80664,2.81494-21.98145,4.94873-32.7915l.02832-.12695c1.66992-6.44238,4.396-12.51074,8.15527-18.11719,9.01807-14.63477,16.79102-30.16016,23.14014-46.21729,4.85254-8.22803,3.21973-18.83789-3.88281-25.22803-13.30566-11.97168-11.23047-45.55127-2.91895-59.49756,6.19727-10.38672,8.69141-22.70508,7.03418-34.59863-1.03467-9.96289-1.15088-20.07764-.34131-30.12451,.37451-6.70264,1.67871-13.31738,3.87158-19.64453,9.8457-27.79004,20.55957-57.6499,32.15869-87.65039,4.33789-10.4082,9.51611-20.56543,15.42334-30.24316,1.40234-2.43262,3.09424-3.7959,4.76367-3.83887,1.89404-.07031,3.98047,1.51758,5.77637,4.29199,.59229,.91943,1.08691,1.90576,1.46973,2.93262,2.95801,7.91211,7.79297,13.74023,14.78125,17.81641,6.78467,3.95752,14.9209,5.75732,21.28564,6.87891,6.8418,1.96973,14.09766-1.19824,17.26318-7.51465,6.0376-11.23877,15.78857-20.26855,27.45703-25.42578,.03369-.01465,.06689-.03027,.09961-.04688,3.7373-1.85254,7.03516-4.37451,9.83008-7.52686,6.97559-8.13818,18.5166-10.41895,28.05908-5.55371,.23486,.12012,.47803,.22363,.73193,.31055,9.75049,3.30762,19.53564,7.1377,28.99951,10.8418,4.99414,1.95459,10.15723,3.97559,15.26953,5.90234,4.64355,1.74121,8.0957,5.66162,9.23438,10.4873,.01562,.06445,.0332,.12891,.05371,.19189,6.12598,19.03027,12.56934,38.30225,18.7998,56.94043,3.34863,10.01514,6.69629,20.03027,10.01367,30.05566,5.68262,17.17871,11.34375,34.36426,17.00488,51.55029,8.51953,25.86426,17.3291,52.60938,26.07324,78.88965,4.21191,12.66211,5.23242,13.42773,18.18848,13.65283,11.84375,.20605,22.49414,.23975,32.55957,.10693,.08008-.00146,.15918-.00635,.23828-.01465,1.9043-.20996,3.77734,.33789,5.27246,1.53809s2.43262,2.91016,2.64258,4.82959l.02441,.229c1.41895,10.49854,2.25684,21.19531,2.48438,31.86523-.70996,7.30762,2.9502,14.35693,9.32812,17.9834,4.6748,3.03467,9.20215,6.39551,13.44141,9.97705,2.02441,1.73877,4.21094,3.32373,6.47559,4.69678,3.34961,2.0791,7.31152,2.72949,11.14941,1.83105,3.83984-.89893,7.09961-3.23877,9.17773-6.58789,.59375-.95508,1.07812-1.98047,1.43945-3.04785,.01562-.04541,.03223-.09229,.05371-.13281,2.15625-4.22119,3.71191-5.29248,4.63672-5.44824,1.18652-.20459,2.91895,.78369,5.15137,2.91895,9.93457,10.42969,18.80176,21.93799,26.35645,34.20605,.02246,.03564,.04492,.0708,.06836,.10498,3.19043,4.64111,3.52246,10.60986,.86816,15.57666Z"/></svg>