<?xml version="1.0" encoding="UTF-8"?><svg id="a" xmlns="http://www.w3.org/2000/svg" viewBox="0 0 836.96273 568.43803"><defs><style>.b{fill:#010101;}</style></defs><path class="b" d="M835.04541,288.45073c-1.58496-1.92969-3.97656-2.99609-7.01758-3.16309-2.67773-.24854-5.39062-.19141-8.00586,.16162-27.99219,3.10596-56.09863,1.47412-83.54297-4.84424l-.16406-.03223c-1.45996-.23486-2.82812-.44971-4.10938-.65088-8.65723-1.36035-13.42578-2.10938-15.45312-4.14453-1.97949-1.98682-2.44043-6.45068-3.27734-14.55371-.20605-2.00098-.43555-4.22412-.72461-6.75928-3.49902-25.27734-5.01465-51.1377-6.48047-76.146-1.68652-28.7832-3.43164-58.5459-8.2041-87.70361-2.93848-17.95557-6.64648-35.99219-11.01953-53.6084-1.48926-5.99902-2.70703-12.08496-3.88379-17.9707l-.77441-3.854c-1.74512-8.63281-6.33008-13.89258-12.5791-14.43066C652.29834-.7563,19.0957,.41118,16.74951,.77055,11.63965,1.55424,6.90137,4.77397,3.75,9.60405,.75244,14.1978-.53564,19.75639,.20459,24.88286c.31445,16.97705,1.31299,34.19482,2.2793,50.84814l.36621,6.33936c.33887,5.91797,3.28564,8.10645,5.01172,8.88379,3.23535,1.45947,7.24658,.50488,11.29395-2.68311,4.0835-3.21436,8.02783-6.68945,11.84277-10.05029,3.56787-3.14307,7.25684-6.39307,11.01025-9.38232l.28174-.26221c8.62305-9.36816,21.30469-13.92725,33.93945-12.19238,9.24512,1.18018,18.37939-1.87207,25.104-8.41016,2.83887-2.896,5.86816-5.67041,9.05713-8.29297,10.12988-8.81494,24.3457-11.71191,37.11621-7.56934,10.75732,4.07178,22.68506,4.31152,33.50928,.70264,4.63818-1.35596,9.40527-2.62695,14.01562-3.85645,8.06396-2.15039,16.40283-4.37402,24.44971-7.15186l.23486-.09473c21.7334-10.06787,46.9917-5.90869,64.35889,10.60205,15.05518,14.16016,30.71777,28.15625,45.86475,41.69141,11.13037,9.94678,22.64014,20.23193,33.81104,30.49512l.08545,.0752c3.27051,2.7417,5.36328,6.56885,5.90771,10.79492-1.00537,22.11328,14.32422,29.30518,30.19775,34.79736,9.40332,2.9082,18.6709,6.53369,27.59912,10.80029,1.93457,.86914,3.83984,1.86133,5.66406,2.94873,26.21484,15.63428,34.82324,49.68164,19.18945,75.89697l-.08203,.14893c-1.95312,3.84912-4.03906,7.73633-6.05566,11.49512-4.20996,7.84668-8.5625,15.95996-12.05371,24.33594-7.28613,17.47803-4.82812,24.35205,11.92383,33.4126,21.03711,11.77832,42.93945,22.55957,65.15918,32.07031,17.91211,7.11426,36.59082,12.57422,55.49316,16.22266,10.16895,2.07812,18.62891,.06836,23.83008-5.64844,5.44922-5.98828,6.66406-15.15625,3.4209-25.80859-1.03223-3.41699-2.53809-6.66699-4.48535-9.67383-3.36133-5.12109-6.84961-10.27051-10.22363-15.25-4.39648-6.48828-8.94238-13.19727-13.28418-19.96387-3.13574-4.52979-5.57324-9.48682-7.24414-14.73291-1.92188-7.03467-3.55176-14.30518-5.12891-21.33594-1.46387-6.53223-2.97852-13.28711-4.75391-19.96338-2.44141-8.12061-1.42188-16.99561,2.83301-24.41357,6.7168-12.55225,12.57422-25.70654,17.40625-39.08545,.96484-2.62744,5.53223-16.0127,.7793-21.49414-12.38477-14.2793-5.67578-22.08398,6.84375-33.24121l.30859-.33008c4.74707-6.09229,8.60059-12.81934,11.42676-19.93066,1.40625-3.26514,3.62598-6.1377,6.43066-8.3208,14.35254-7.18945,29.6543-14.22852,46.75684-21.50977,2.09082-.11084,4.10254,.74268,5.47266,2.33008,6.3291,9.21973,5.85547,13.06543-2.3623,19.53369-11.98438,9.63477-21.64844,22.14258-27.92578,36.12646-2.20215,4.66113-2.69043,8.47119-1.49023,11.64746,1.02539,2.71484,3.25098,4.82715,6.61523,6.27783l.1582,.06201c6.8877,2.42969,10.81836,9.86328,8.94922,16.92334l-.06641,.35596c-.93945,8.21582-1.23145,16.59326-1.51367,24.69434-.17578,5.02002-.35645,10.21045-.68945,15.28223l-.00781,.10889,.00293,.10889c.10742,4.99658-3.00684,9.40967-7.69043,10.96289-3.2793,.99756-6.53027,2.20361-9.73926,3.62109-4.75879,2.29541-7.52734,4.98535-8.46484,8.22314-.8125,2.80859-.18457,5.8999,1.83789,9.1416,6.96191,11.73242,8.99609,25.48877,5.72852,38.73438l-.0459,.23389c-2.42676,16.45605,1.98145,33.45166,12.09766,46.65283,6.59082,10.70312,17.9873,17.74512,30.53125,18.84961,3.69043,.2998,7.49316,1.0166,11.16992,1.70996,5.25293,.99023,10.71875,2.02539,16.21777,1.92578,5.67188-.23438,10.82129,3.33105,12.55957,8.71973l1.97461,3.93359c9.09766,17.79688,18.50488,36.19922,28.08691,54.16699,5.35059,9.78613,7.24512,21.22754,5.32617,32.25879-2.12402,13.57812-7.44727,26.67969-15.39355,37.89258-4.70703,6.06445-8.39355,12.80762-10.95898,20.04102l-.04297,.13379c-3.19043,10.90234-5.86426,22.12012-8.4502,32.96777-1.59082,6.67773-3.23633,13.58301-4.98242,20.32617-2.05762,7.94824-5.8877,22.74219,6.28809,27.12402,1.08984,.3916,2.14355,.57129,3.16113,.57129,8.23047-.00098,14.08887-11.70312,16.7832-17.12598,10.35254-17.53906,17.55566-36.57031,21.41113-56.56738l.02539-.16504c.75-6.0332,2.41699-12.14648,4.0293-18.05957,1.62598-5.96191,3.30664-12.12598,4.12012-18.38574,2.74414-15.6709,11.91016-29.71191,25.15527-38.5293l.11719-.08398c33.55859-25.25781,56.17285-61.92773,63.67969-103.26465,.34668-1.96094,.70996-3.91992,1.07324-5.87891,.8418-4.5459,1.71289-9.24609,2.37012-13.92383,.45996-3.2666-.15137-6.03418-1.76855-8.00293Zm-3.18262,7.30566v.00098c-.64258,4.57031-1.50293,9.21582-2.33594,13.70898-.36523,1.97266-.73047,3.94434-1.07812,5.9082-7.27441,40.05957-29.18945,75.61035-61.70605,100.1084-14.3623,9.58594-24.2959,24.83301-27.25879,41.8457l-.0166,.1084c-.7666,5.93652-2.40625,11.95117-3.99219,17.76855-1.65137,6.05371-3.3584,12.31348-4.15625,18.6709-3.75586,19.43359-10.76562,37.92773-20.83691,54.9707l-.08691,.15918c-3.46191,6.96484-8.66504,16.01172-13.81348,14.15527-6.56738-2.3623-6.07031-9.85059-3.1416-21.16504,1.75879-6.79102,3.41016-13.71973,5.00684-20.41992,2.56543-10.76562,5.21875-21.89648,8.36523-32.65625,2.3916-6.72266,5.82422-12.98633,10.20312-18.62109l.06543-.08691c8.40918-11.85059,14.04102-25.70215,16.28027-40.01562,2.10547-12.10059,.01953-24.69824-5.85938-35.4502-9.54883-17.90625-18.94629-36.28906-28.03418-54.06738l-1.73438-3.39062c-2.48926-7.41797-9.65137-12.32031-17.4043-11.9834-4.93066,.09863-9.90137-.85449-15.13867-1.8418-3.80469-.71777-7.73926-1.45996-11.67578-1.7793-10.99707-.96875-21-7.16992-26.75684-16.58984l-.15137-.22168c-9.32812-12.11621-13.41113-27.7334-11.21191-42.86377,3.54199-14.49072,1.30273-29.53174-6.34082-42.41211-1.28613-2.06104-1.71289-3.74658-1.30664-5.15234,.5127-1.77051,2.47559-3.48975,5.75684-5.07471,2.94922-1.30078,6.01074-2.43652,9.15918-3.39453,6.80273-2.25537,11.28223-8.56396,11.17676-15.72217,.33398-5.11475,.51465-10.30811,.68945-15.33154,.27734-7.94678,.56445-16.16211,1.46484-24.12793,2.40918-9.47705-2.86523-19.4043-12.08008-22.70459-2.05859-.90088-3.31738-2.02051-3.8457-3.42188-.68555-1.81494-.2373-4.4209,1.35352-7.78857,5.97656-13.31152,15.14551-25.17969,26.49707-34.30615,10.28027-8.09082,11.14355-14.99561,3.29688-26.38574l-.14062-.18457c-2.51465-3.01074-6.34863-4.5625-10.24707-4.15137l-.37207,.03906-.34473,.14648c-17.43555,7.41553-33.01465,14.58105-47.62695,21.90723l-.39453,.24561c-3.57227,2.72021-6.39844,6.3374-8.2002,10.52539-2.65039,6.6665-6.2207,12.92041-10.61328,18.59229-10.57617,9.42529-23.5459,21.16357-7.12402,40.09766,1.6875,1.94678,.92676,9.34668-1.7002,16.5083-4.75488,13.16406-10.51367,26.09619-17.08105,38.37158-4.89941,8.54004-6.08301,18.84619-3.27051,28.19922,1.72852,6.50391,3.23242,13.20996,4.68555,19.69531,1.59277,7.10303,3.23926,14.44775,5.19824,21.60938l.02832,.09766c1.82227,5.73877,4.48535,11.16016,7.86523,16.04053,4.32812,6.74707,8.8916,13.48242,13.30469,19.99609,3.36426,4.96484,6.84277,10.09863,10.1748,15.17676,1.68359,2.59863,2.99121,5.4209,3.88867,8.39355,2.71094,8.9043,1.88184,16.35938-2.33398,20.99316-3.9668,4.35938-10.76172,5.82031-19.1582,4.1084-18.62207-3.59473-36.99902-8.96582-54.56055-15.93945-21.99609-9.41699-43.73926-20.12012-64.6543-31.83008-14.58789-7.88965-16.04102-11.94336-9.71973-27.10791,3.39746-8.15088,7.69141-16.15527,11.84473-23.896,2.0166-3.75928,4.10156-7.64551,6.07031-11.52051,16.98633-28.57324,7.59082-65.64648-20.96777-82.67871-1.98828-1.18555-4.06641-2.26758-6.12207-3.18994-9.09277-4.34668-18.58936-8.06152-28.14502-11.01514-15.19531-5.25928-27.69629-11.14746-26.75-30.01514l.01025-.2085-.02441-.20703c-.65088-5.55762-3.36328-10.6001-7.64111-14.20508-11.18359-10.27441-22.69238-20.55859-33.82178-30.50439-15.12354-13.51416-30.76172-27.48877-45.76074-41.59668-18.82373-17.89453-46.20068-22.4248-69.77979-11.55957-7.84131,2.70068-16.04883,4.88916-23.98779,7.00635-4.63818,1.23682-9.43457,2.51562-14.21875,3.9165-9.8418,3.27734-20.60254,3.05518-30.29834-.62695l-.1123-.04004c-14.44678-4.7124-30.54297-1.44336-41.95166,8.4873-3.27295,2.68994-6.43506,5.58691-9.35645,8.56738-5.58398,5.42969-13.21826,7.98096-20.91992,6.99609-14.16992-1.94238-28.41357,3.14502-38.14209,13.61963-3.79736,3.03271-7.48438,6.28027-11.05078,9.42285-3.76367,3.31543-7.65527,6.74414-11.63037,9.87305-2.43994,1.92139-4.73535,2.68994-6.14746,2.05322-1.18018-.53174-1.93604-2.2124-2.07324-4.61133l-.3667-6.34277c-.96631-16.65771-1.96582-33.88232-2.2749-50.81201l-.02832-.33398c-.60986-3.97266,.39795-8.33154,2.76514-11.95898,2.34375-3.59277,5.77148-5.99072,9.42334-6.6001,10.97803-.15918,636.60156-1.33105,652.01855-.00391,5.31055,.45703,7.35938,6.7373,8.1084,10.44043l.77148,3.84375c1.18848,5.94092,2.41699,12.08398,3.93359,18.19482,4.3418,17.48535,8.02148,35.38818,10.93945,53.21094,4.73047,28.90186,6.4668,58.53271,8.14648,87.18848,1.47168,25.10547,2.99316,51.06592,6.51074,76.47852,.2793,2.45605,.50781,4.66211,.71191,6.64795,1.97266,19.10205,2.83008,19.96631,22.92773,23.12354,1.25195,.19678,2.58691,.40625,4.00977,.63525,27.96875,6.43018,56.6123,8.08447,85.19238,4.91553,2.2998-.31055,4.63281-.35938,7.02734-.13867,1.67773,.09277,2.86328,.54785,3.52246,1.35059,.8916,1.08594,.86328,2.84668,.68164,4.13281Z"/></svg>