<?xml version="1.0" encoding="UTF-8"?><svg id="a" xmlns="http://www.w3.org/2000/svg" viewBox="0 0 805.71748 378.77356"><defs><style>.b{fill:#010101;}</style></defs><path class="b" d="M790.12755,234.01185c-7.69336-13.56055-22.15234-22.2666-37.72754-22.72266-.48145-.01465-.90625,.00195-1.31348,.05078-2.25391,.27539-4.37207,1.18359-6.12793,2.62402-2.13379,1.75-3.25879,4.50098-3.01074,7.3584,.19824,2.29883,1.00879,4.50879,2.2959,6.32227,1.99609,3.02832,4.80469,5.40137,8.17285,6.88477,9.62305,3.98926,15.04883,11.98926,20.79297,20.45996,1.77051,2.60938,3.60059,5.30859,5.59766,7.90527,1.03027,1.24609,1.94824,2.59375,2.72852,4.00586,6.89258,12.46484,2.43359,28.33789-9.94727,35.38867-.31348,.17969-.6123,.37793-.89062,.5918-13.59766,10.48047-31.05176,14.54785-47.87402,11.16602-3.4248-.69336-6.9082-1.50684-10.27637-2.29395-5.66406-1.32324-11.52148-2.69141-17.47656-3.57227-15.91211-1.89355-29.13477-13.04492-33.71094-28.48633-10.18848-30.71387-23.85156-60.32227-40.60742-87.99707-.09766-.16309-.20508-.32812-.3125-.48242-14.41113-20.85645-17.22266-23.3291-42.61133-18.28662-7.47949,1.48438-10.21875,.5835-12.74512-4.19385-3.83789-7.26172-7.8125-14.59961-11.65625-21.69629l-1.56934-2.89844c-.10156-.18896-.21387-.37451-.33496-.55957-5.86914-8.89844-5.36621-20.4917,1.25391-28.84863,.11328-.14355,.22266-.29297,.31934-.43799,9.5918-14.36279,20.10254-28.33838,31.24219-41.53955,.12402-.14648,.27832-.29785,.46094-.45068,8.46387-7.09033,11.44238-20.74561,7.96777-36.52783-3.25-14.76611-12.69043-31.33057-26.4541-35.05029-7.85938-2.125-16.90918,.84277-24.89062,3.45996-2.3291,.76367-4.52832,1.48438-6.54297,2.02637-.45898,.12354-.9043,.27881-1.32129,.46094-5.81152,2.53174-10.98438,6.13281-15.37305,10.69971-.05078,.05273-.10352,.10303-.16113,.15186-2.85547,2.43457-5.58691,5.06543-8.22754,7.60986-3.92871,3.78369-7.99023,7.69629-12.38867,10.86035-4.54688,3.31006-9.91602,5.2832-15.52344,5.70557-132.646,9.94824-269.55273,4.13037-401.95166-1.49561l-13.07959-.55566c-7.74121-.32666-16.51514-.69971-24.25928,3.08398-12.74902,6.229-17.98779,32.271-21.81299,51.28613-1.09473,5.44189-2.04004,10.1416-2.97607,13.43018C8.42296,140.4264,2.75792,169.65052,.48644,196.79114c-2.31592,27.67188,3.60693,29.61621,18.42871,31.68848,2.8335,.39648,6.04492,.8457,9.68115,1.62793,19.9541,3.56348,41.71777,2.80078,62.76416,2.06152,9.82129-.34473,19.09717-.66504,28.21289-.58594l290.60791,2.68945c4.91699,.04199,10.05469-.16895,15.03223-.37793,21.44336-.89551,43.62305-1.82422,55.97656,17.27637,.13965,.21777,.29102,.42773,.45312,.62891,4.41504,5.47461,8.37402,11.37695,11.7666,17.54297,13.14062,26.49512,25.79492,53.17969,36.44238,75.79102,1.54492,3.28223,2.80176,6.83594,4.01758,10.27246,1.12598,3.18555,2.29102,6.47852,3.70898,9.65039,.06543,.14648,.12207,.3125,.17383,.51465,.05664,.2168,.11816,.43164,.18262,.64648,1.36328,4.51367,4.40234,8.22559,8.55664,10.45312,2.60156,1.39453,5.44531,2.10254,8.31641,2.10254,1.6416,0,3.29199-.23145,4.91113-.69824,10.11914-1.26562,13.13477-7.03223,14.70605-15.91797,.07031-.4043,.11133-.83105,.12305-1.27246,.50488-20.29688,16.80469-36.29297,37.10742-36.41504,.4668-.00293,.92773-.04297,1.37402-.12012,4.23438-.73926,8.56152-1.41992,12.74707-2.07812,3.75391-.59082,7.63672-1.20117,11.4541-1.85449l.26855-.06055c.78906-.22754,1.60352-.32129,2.42773-.27734,1.97656,.10254,3.79395,.96875,5.11914,2.43848,1.32422,1.46973,1.99805,3.36816,1.89551,5.34375l-.01074,.1875,.01855,.18652c.75,7.63574,1.01758,15.47559,1.27539,23.05664l.13965,4.00098c.08691,2.43555,1.18945,4.75293,3.02344,6.35742,1.78223,1.55859,4.03516,2.28613,6.35547,2.06641,1.11328-.10938,1.99121-.45312,2.67676-1.04883,19.17285-14.88281,43.08887-23.31445,67.35449-23.74219,.31348-.00586,.62793-.0293,.94531-.06934,20.36035-2.64746,40.91895-5.81836,61.10449-9.42285,.31348-.05566,.62695-.12305,.93066-.20996,4.33789-1.23926,7.91113-4.2998,9.80078-8.39062,.1543-.33203,.29297-.69922,.42578-1.12109l.00098-.00293c9.00977-28.84375,5.03516-60.11035-10.85547-85.69727Zm6.08301,84.2041c-.05371,.17383-.11328,.3457-.19141,.51562-1.28125,2.77344-3.7002,4.8457-6.63965,5.68457-.14258,.04102-.28809,.06934-.43359,.0957-20.1084,3.59082-40.58789,6.74902-60.86426,9.38574-.13184,.0166-.2627,.02637-.39453,.02832-25.3457,.44824-50.32715,9.25684-70.35059,24.80566-.02539,.00391-.05273,.00586-.08105,.00879-.91992,.09473-1.8418-.21191-2.5752-.85352-.80078-.69922-1.28125-1.70996-1.31934-2.77344l-.13867-3.99219c-.25879-7.60156-.52734-15.45996-1.2793-23.19727,.11914-3.23926-1.00781-6.33984-3.18262-8.75391-2.21875-2.46191-5.26367-3.91211-8.57422-4.08496-1.32227-.06641-2.64648,.07422-3.92578,.42578-3.74414,.63965-7.56445,1.24023-11.26074,1.82129-4.20508,.66211-8.55371,1.3457-12.8252,2.09082-.17188,.03027-.35645,.0459-.54883,.04688-23.02148,.13867-41.50293,18.27539-42.0752,41.28809-.00488,.17969-.01953,.36328-.0498,.53418-1.32324,7.48535-3.16602,10.97168-10.58203,11.84277l-.43066,.08984c-3.2334,.97754-6.65625,.63574-9.63379-.96094-2.97754-1.5957-5.15527-4.25684-6.13184-7.49023-.04688-.15527-.09082-.31152-.13086-.46094-.12109-.4707-.26855-.89551-.44922-1.29883-1.33496-2.98535-2.46582-6.18262-3.55859-9.27441-1.25684-3.55273-2.55664-7.22656-4.20801-10.73535-10.66406-22.64746-23.3418-49.37988-36.51074-75.93066l-.04883-.09375c-3.53906-6.43945-7.6709-12.60254-12.28027-18.31738-.04883-.06152-.09473-.125-.1416-.19824-11.02832-17.04883-28.1582-19.96191-46.16992-19.96191-4.70996,0-9.4834,.19922-14.21973,.39746-4.91406,.20508-9.99805,.41895-14.77637,.37305l-290.60889-2.68945c-9.22314-.08496-18.99023,.25879-28.43408,.58887-20.78564,.73047-42.27881,1.48438-61.62207-1.96875-3.72852-.80469-7.03662-1.26758-9.95557-1.67578-6.68945-.93555-10.27246-1.55078-12.25098-4.2793-2.31396-3.19336-2.896-9.99023-1.8877-22.04004,2.24414-26.81494,7.85254-55.72803,17.14551-88.39111,.98926-3.47754,1.95264-8.2666,3.06836-13.81201,3.41504-16.97803,8.57666-42.63525,19.10645-47.78027,6.60498-3.22656,14.70654-2.88232,21.85205-2.58057l13.0791,.55518c132.54346,5.6333,269.59912,11.45752,402.53809,1.48682,6.53711-.49268,12.79297-2.79199,18.08105-6.6416,4.67773-3.36475,8.87012-7.40381,12.92578-11.30957,2.58691-2.49268,5.2627-5.06982,8.00098-7.40479,.18066-.15381,.35254-.31641,.52051-.48975,3.93262-4.09277,8.56445-7.31738,13.76953-9.58447,.19238-.08447,.40234-.15674,.62207-.21631,2.14453-.57666,4.40723-1.31787,6.80176-2.10303,7.31543-2.39893,15.6084-5.11865,22.0293-3.38428,10.00781,2.70459,19.41406,15.57471,22.875,31.29834,3.02051,13.72021,.6084,25.83643-6.29492,31.61865-.40234,.3374-.76367,.69434-1.07324,1.06055-11.25879,13.34326-21.88281,27.46924-31.58203,41.99316-.02441,.03662-.05176,.07178-.07812,.10498-7.96191,10.05273-8.56738,24-1.51074,34.69922,.03711,.05615,.07324,.11377,.11035,.18311l1.5752,2.90918c3.83789,7.08545,7.80566,14.41211,11.63281,21.65186,4.57617,8.65527,11.47168,8.08643,18.13965,6.76123,23.13379-4.5957,23.94922-3.42041,37.52441,16.22607,.0498,.07227,.09863,.14746,.14551,.22461,16.56445,27.35938,30.07031,56.62598,40.11719,86.9082,5.12012,17.28125,19.99219,29.82422,37.81836,31.94434,5.68066,.8418,11.43555,2.18652,17.00195,3.48633,3.40332,.79492,6.92285,1.61719,10.42383,2.32617,18.24805,3.66895,37.17188-.74219,51.91211-12.10352,.10547-.08105,.2168-.15332,.32422-.21484,14.73926-8.39355,20.05078-27.30176,11.83984-42.14941-.92969-1.68164-2.02246-3.28711-3.19434-4.70215-1.85059-2.40918-3.55957-4.92871-5.36816-7.5957-5.90527-8.70703-12.01074-17.70996-22.9668-22.25098-2.43555-1.07227-4.49707-2.81445-6.01074-5.10938-.82129-1.1582-1.31934-2.51758-1.44238-3.93164-.10352-1.19531,.35742-2.36816,1.20215-3.06152,1.02148-.83789,2.25293-1.36621,3.55957-1.52539,.14844-.01953,.33203-.02344,.55762-.0166,13.8457,.4043,26.69434,8.1416,33.58105,20.27637,15.17383,24.4375,18.95801,54.19922,10.38184,81.65234Z"/></svg>