<?xml version="1.0" encoding="UTF-8"?><svg id="a" xmlns="http://www.w3.org/2000/svg" viewBox="0 0 663.43296 578.79142"><defs><style>.b{fill:#010101;}</style></defs><path class="b" d="M335.70416,141.77433c7.2793-.90576,14.80566-1.84229,22.26172-2.14355,4.52637-.05371,8.85352-2.24023,11.52148-5.77881,1.44629-1.77002,2.87891-3.58984,4.26465-5.41846,1.10645-1.47461,2.8623-2.28516,4.70605-2.16943l.16016,.00488c2.63965-.00342,5.31348-.06201,7.89941-.11865,11.3877-.24756,22.14844-.48438,32.66992,3.45068,1.37109,.5127,2.73828,.729,4.06055,.93848,.97266,.1543,1.8916,.2998,2.67676,.5415,7.57422,2.45068,15.86816,1.56885,22.75781-2.41846l.0918-.05566c2.80176-1.78564,6.03906-2.79688,9.3623-2.92383,.98047-.03662,2.66504-.02295,4.61426-.00635,17.85645,.15234,27.18066-.69336,28.63184-5.73047,1.09961-3.81738-3.13281-7.00293-6.94141-9.35156-4.75586-2.93262-7.30664-8.39941-6.49707-13.92725l.01562-.13086c.3623-3.90283,.36914-7.86084,.01855-11.76514-.38184-4.24658-.8584-7.62354-3.17969-9.23975-2.3291-1.62109-5.19043-.84473-9.52539,.3291-3.41992,.92725-6.9375,1.79053-10.33984,2.625-6.37012,1.56299-12.95605,3.1792-19.25391,5.29004-7.77148,2.40771-16.18164,1.98877-23.67676-1.18066l-.47266-.14648c-3.39844-.69482-5.68652-3.81982-5.32324-7.26953l.01074-.14014c.20605-4.2334,.15039-8.52783-.16406-12.73389-.23926-3.82715-1.85645-5.63477-3.16992-6.47656-1.30273-.83398-3.58887-1.54443-7.09766-.18896-2.86621,1.10791-5.66992,2.40771-8.37988,3.66455-2.3457,1.08789-4.77051,2.2124-7.17578,3.18018l-.11719,.05078c-6.93066,3.20996-14.28613,5.31543-21.86328,6.25732-4.07227,.29785-8.24609,.43652-12.28418,.57129-2.64941,.08789-5.29785,.17627-7.88086,.30469-12.75488,.30469-24.99512,5.18115-34.46582,13.73047l-.11816,.11426c-7.3291,7.54883-16.63818,12.71191-26.96777,14.94092-5.23633,1.2334-10.72314,.52197-15.46826-2.00244-3.14258-2.18311-7.21924-2.54199-10.69531-.93555-4.61084,1.88574-9.52637,1.63818-14.73145,1.37598-2.57324-.13037-5.23193-.26465-7.82568-.12988-.09863,.01123-.19824-.02783-.27881-.08594-1.92969-2.01123-4.04541-3.77734-6.09326-5.48584-3.85205-3.21533-7.49072-6.25195-9.80371-10.70264-7.85547-15.11621-9.83203-15.98877-25.43359-19.32275l-.18213-.03174c-3.02539-.41553-6.10645-.67578-9.16016-.77295-.66553-.06445-1.35791-.0835-2.02832-.10156-.89258-.02441-2.37109-.06445-2.83203-.2915-2.7168-2.94336-5.61035-4.07617-8.59717-3.36621-2.44727,.58105-4.41699,2.25244-6.32178,3.86914-.29883,.25342-.59717,.50684-.89746,.75488-3.71289,3.07227-8.00488,6.66797-11.9541,10.47021l-.21289,.23242c-.87451,1.08643-2.43115,1.27588-3.54199,.42969l-.40918-.25342c-1.8667-.92041-2.99023-2.85742-2.8623-4.93408l.00537-.08643-.00049-.08643c-.04785-6.22412,2.29297-12.12012,6.59375-16.61377,4.36621-3.86279,7.28662-9.15283,8.22705-14.90723l.02783-.24902c.19678-3.18066,2.51367-5.85449,5.63379-6.50244,5.45703-1.13281,9.83105-5.15625,11.41455-10.5,1.1499-3.88037,4.49121-6.67871,8.51367-7.12891,2.6543-.29785,5.95898-1.5791,7.90723-2.64404,1.37549-.75195,4.59717-2.51416,3.86523-5.32031C188.6109,.13566,184.64654-.04745,178.6856,.00724l-.78027,.00635c-4.72119-.10352-9.35498,.68994-13.77295,2.35254l-.30469,.13867c-2.51074,1.35107-5.22559,2.5708-7.85059,3.75-7.40527,3.32666-15.0625,6.76611-20.54883,13.88818-2.27393,2.82422-4.7627,5.52148-7.39648,8.0166l-.18604,.19629c-1.46338,1.72266-3.20801,3.14893-5.1875,4.24072-8.03906,3.53809-13.9585,10.42334-16.24805,18.90527-.58643,2.16016-2.17236,3.9585-4.29248,4.83203-1.53955,.67285-3,1.46338-4.4126,2.22803-.55713,.30176-1.11426,.60352-1.6748,.89648-8.5708,3.44531-16.61914,8.05811-23.8501,13.6582-2.92529,2.0957-6.51416,3.11426-10.10303,2.85742l-.17285-.01221-.17236,.01172c-5.94629,.4043-11.72559,1.33203-18.12354,2.41309-1.65869,.28076-5.07178,1.95166-5.44482,4.5415-.41357,2.87061-2.19189,3.94336-5.2998,5.59229-.95361,.50586-1.93945,1.0293-2.896,1.66016l-.2002,.14648c-6.10547,4.96094-13.46143,8.08447-21.27197,9.03223l-.1958,.03174c-.93848,.19043-1.83936,.51611-2.68018,.96875-2.2334,.88477-4.81592,2.23096-5.46826,4.77686-.646,2.521,.89746,4.78564,2.31396,6.47656l.14014,.15381c2.2998,2.32227,4.46924,4.8208,6.44727,7.42529,6.78955,8.94141,14.13623,9.7583,22.64258,10.7041,1.78076,.19824,3.62207,.40283,5.55615,.68994,10.78662,1.59961,21.80127,4.45215,32.45264,7.21094,4.66846,1.20898,9.49561,2.45898,14.2168,3.58008,18.37939,4.36475,36.97363,8.92432,55.26611,13.55322,2.92578,.74023,6.54688,1.37451,10.38086,2.04639,11.94727,2.09326,28.31006,4.96045,33.10986,13.36035,1.83594,3.30127,5.14844,5.60303,8.87891,6.17578,.75732,.17871,1.51074,.37598,2.26416,.57275,1.02734,.26855,2.08936,.5459,3.16895,.78027l.1499,.02783c4.20312,.64844,7.40381,4.20166,7.61084,8.44971l.02295,.23584c1.0498,7.26416,2.3623,14.59229,3.63232,21.67969,.7002,3.91064,1.40088,7.82227,2.0625,11.73926,.6958,5.55566,3.67188,10.65039,8.19189,14.00049,1.50879,1.09473,3.03662,1.65479,4.48633,1.65479,.43945,0,.87207-.05176,1.29443-.15527,1.10107-.27051,2.62988-1.02783,3.66162-3.10156,1.65234-3.32178,3.47412-6.66455,5.23535-9.89746,4.87842-8.95264,9.92285-18.21045,12.31543-28.57861,2.49609-10.03516,6.38965-19.65918,11.59521-28.64453,1.54346-2.78223,3.06396-4.32764,4.39746-4.46924,1.32617-.13672,3.14014,1.03662,5.23682,3.40869,.09668,.14258,.19824,.28125,.30322,.41553,2.6123,3.34082,7.41699,3.98145,10.80811,1.47998,1.07715-.58984,2.15137-1.18652,3.22559-1.7832,3.40723-1.89209,6.93018-3.84814,10.46338-5.54346l.37744-.22363c.08594-.06201,.17383-.12109,.26562-.1792,1.17285-.73779,2.56494-.97266,3.91309-.66797,1.35107,.30713,2.50146,1.12207,3.23926,2.29443l.16553,.23242c.56885,.70996,1.22412,1.34473,1.9502,1.88916,.35645,.34326,.75684,.63574,1.19287,.87256,1.29248,.7002,2.7793,.85596,4.18896,.43652,1.31396-.39014,2.4126-1.23633,3.12256-2.39648,1.63184-1.94775,2.83545-4.16846,3.5791-6.60303l.0708-.29639c.95312-5.40576,5.43555-9.54932,10.8999-10.07666l.2627-.03906c1.28564-.26416,2.56592-.56592,3.8457-.86816,2.39404-.56543,4.65527-1.09961,6.94727-1.38477Zm-11.67383-2.6709c-7.57471,.79248-13.78223,6.52441-15.17627,14.00928-.56689,1.79297-1.47559,3.42529-2.70215,4.85352l-.17383,.20264-.12744,.23486c-.13184,.24316-.43799,.33398-.68115,.20264-.04639-.02539-.08838-.05762-.125-.09619l-.35547-.31055c-.39551-.28467-.75439-.61865-1.06787-.99365-3.02686-4.64258-9.25195-6.01807-13.95557-3.05713-.11182,.07031-.22266,.14258-.33154,.21729-3.60254,1.7373-7.12939,3.6958-10.5415,5.59082-1.11914,.62158-2.23828,1.24316-3.36084,1.85742l-.33936,.22314c-.59521,.46533-1.33545,.67383-2.08447,.57861-.74902-.09131-1.41748-.46924-1.88379-1.06592-.05322-.06787-.10303-.13867-.1499-.21143l-.21826-.29004c-3.35254-3.84033-6.49658-5.54346-9.63721-5.21387-3.11084,.33008-5.80664,2.625-8.21924,6.9751-5.41846,9.35156-9.48877,19.4126-12.1084,29.94531-2.24805,9.74219-7.12598,18.69434-11.84375,27.35205-1.7832,3.27295-3.62744,6.65723-5.32129,10.0625-.14893,.29932-.29688,.45312-.37744,.47266-.18115,.04541-.75977-.04346-1.63184-.67529-3.41895-2.53418-5.67578-6.41016-6.19287-10.63428l-.01611-.1123c-.66699-3.95166-1.37354-7.89746-2.08057-11.84326-1.25586-7.00977-2.5542-14.25732-3.58936-21.40186-.37646-6.52783-5.29639-11.97607-11.75635-13.01025-.97119-.21338-1.93359-.46533-2.89648-.7168-.82812-.2168-1.65625-.43262-2.48926-.62744l-.21338-.04004c-2.24023-.32178-4.23438-1.69531-5.34912-3.69873-5.97949-10.46436-22.95898-13.43945-36.60254-15.83008-3.73926-.65527-7.27197-1.27441-10.01709-1.96924-18.31641-4.63428-36.93457-9.2002-55.3374-13.56982-4.67236-1.10986-9.47461-2.35352-14.11816-3.55615-10.77832-2.7915-21.92334-5.67773-32.97314-7.31689-2.02441-.30029-3.91162-.50977-5.73682-.71289-8.2627-.91895-13.72119-1.52588-19.21338-8.75879-2.08789-2.74902-4.37549-5.38721-6.80029-7.84277-.99365-1.2002-1.18555-1.77393-1.22217-1.94824,.12646-.15576,.65967-.67188,2.5791-1.42041l.31836-.15039c.40625-.229,.84277-.396,1.29932-.49707,8.6626-1.07227,16.82129-4.53467,23.60986-10.01953,.73193-.47363,1.5376-.90137,2.38867-1.35254,3.08838-1.63916,6.91357-3.66846,7.83984-8.89062,.31934-.27979,1.00488-.66406,1.39502-.73047,6.20215-1.04785,11.80273-1.94824,17.4624-2.34277,4.69434,.28809,9.3667-1.05518,13.26123-3.84717,6.97217-5.39746,14.65674-9.7959,22.84033-13.07324l.22607-.10352c.62061-.32373,1.23682-.65674,1.85254-.99023,1.38281-.74854,2.68848-1.45557,3.98584-2.02295,3.49561-1.43896,6.17432-4.47607,7.16553-8.12842,1.90234-7.04688,6.83203-12.75977,13.52441-15.67383l.19775-.09668c2.51855-1.37109,4.74121-3.16748,6.60791-5.33936,2.76074-2.62354,5.37012-5.45605,7.78955-8.46143,4.75293-6.16943,11.5127-9.20605,18.66992-12.4209,2.6543-1.19238,5.39697-2.42432,8.01953-3.82715,3.77295-1.39795,7.72852-2.05371,11.80615-1.97559l.88281-.00635c.86523-.00732,1.64893-.00635,2.34912,.00439-1.42236,.56396-2.93311,.99365-4.02148,1.11572-6.02344,.67432-11.02832,4.86523-12.75049,10.67676-1.05957,3.5752-3.98584,6.26709-7.63721,7.02539-5.27637,1.0957-9.20557,5.58838-9.59814,10.95312-.77979,4.60547-3.13916,8.83301-6.65283,11.91455l-.15088,.14355c-5.23877,5.42969-8.10107,12.56934-8.06445,20.11182-.20996,3.98145,1.91016,7.68945,5.43701,9.52979,3.21826,2.29443,7.60107,1.74512,10.15527-1.2832,3.79639-3.646,7.96094-7.13428,11.57129-10.12109,.31592-.26123,.63037-.52832,.94482-.79492,3.78955-3.21533,5.12793-4.07812,8.05225-.87793,1.57471,1.72314,4.1001,1.7915,6.32812,1.85205,.63623,.01758,1.23682,.03369,1.74121,.08594l.18164,.0127c2.87598,.08838,5.77881,.33057,8.62988,.71875,14.35596,3.06787,14.93359,3.2168,21.95068,16.71924,2.77539,5.34082,6.9751,8.8457,11.03662,12.23535,2.06348,1.72217,4.0127,3.34912,5.77051,5.19434l.13379,.13037c1.04346,.94287,2.396,1.44531,3.8623,1.4043,2.40381-.125,4.82275-.00195,7.38281,.12793,5.54492,.2793,11.27686,.56738,16.93994-1.76807l.1084-.04785c1.90625-.89209,4.14795-.68408,5.85449,.54248l.271,.16943c5.85303,3.16406,12.64453,4.06494,19.07373,2.5498,11.22363-2.42188,21.38623-8.04883,29.39551-16.27441,8.57471-7.71484,19.64307-12.11426,31.23828-12.39209,2.62012-.12988,5.24219-.2168,7.86523-.3042,4.10742-.13672,8.35547-.27832,12.54688-.58643l.12305-.01221c8.09375-.99951,15.95117-3.2417,23.35449-6.66309,2.50391-1.01074,4.96875-2.15332,7.35254-3.25879,2.6377-1.22314,5.36426-2.48828,8.07812-3.53662,1.17773-.45459,2.14746-.55371,2.59766-.26562,.46777,.2998,.7959,1.26367,.87988,2.60938,.2998,4.01025,.35352,8.0752,.16113,12.08301-.58398,5.90674,3.28027,11.25342,9.04883,12.56201,8.52539,3.54346,18.0625,3.9917,26.93848,1.24219,6.15625-2.06299,12.64062-3.6543,18.91113-5.19287,3.43066-.8418,6.97852-1.7124,10.45703-2.65479,1.8916-.5127,4.74902-1.28857,5.3418-1.06641,.28613,.2832,.7041,1.48389,1.07422,5.59863,.32227,3.58105,.31836,7.21191-.01074,10.79297-1.06738,7.48145,2.39258,14.86963,8.8291,18.83838,3.34277,2.06055,4.33887,3.2749,4.62793,3.75342-1.82031,1.49316-9.76562,2.19238-23.65137,2.07275-2.09375-.01709-3.74805-.03223-4.84668,.01025-4.19043,.16016-8.27344,1.43018-11.81152,3.67334-5.6582,3.25781-12.45898,3.97266-18.7041,1.95312-1.15723-.35693-2.29785-.5376-3.40039-.71191-1.12695-.17871-2.19141-.34766-3.09082-.68408-11.42188-4.27148-23.1748-4.01318-34.53125-3.76562-2.53613,.05518-5.15723,.11279-7.72168,.11719-3.49512-.19922-6.82812,1.35938-8.92578,4.15332-1.34277,1.77148-2.7373,3.54297-4.2041,5.3418-1.80762,2.39453-4.67676,3.84033-7.67676,3.86719l-.07812,.00195c-7.67676,.30811-15.32129,1.25928-22.71484,2.1792-2.56104,.31885-5.06152,.90918-7.47949,1.48047-1.19043,.28125-2.38184,.56299-3.57715,.81055Zm338.9668,292.71338c-.14062-4.00293-.28613-8.14258-.36719-12.18652-.06445-5.23926-1.31445-10.49902-3.59961-15.18164-9.75684-20.61523-17.31934-42.33105-22.47754-64.54395l-.03418-.13184c-2.62793-9.0498-10.7627-24.81445-21.4082-28.58496-6.50488-2.30176-12.03516,.84863-16.91309,3.62988-2.43457,1.3877-4.7334,2.69824-7.04297,3.34668-5.95508,1.67383-10.60449,6.41797-12.16309,12.39746-3.80566,10.36426-9.42188,19.83203-16.69434,28.14258l-.19531,.25391c-3.46973,5.1709-10.09863,7.10254-15.79883,4.61328-5.01465-2.79395-9.62988-6.25195-13.77539-10.33203-.17285-.20996-.62207-1.42285-.46387-4.16309,.94531-5.24512,1.4502-10.6084,1.50195-15.94531l.00098-.15332-.0166-.15137c-.45703-4.04492,.70508-5.64746,5.18262-7.14551,.96191-.32227,2.02344-.52148,3.14746-.73242,1.08105-.20312,2.19727-.41211,3.32422-.74902,3.89258-1,6.82227-4.32031,7.33203-8.30273,.8623-4.1748,2.17383-8.3916,3.44336-12.46973,.57812-1.85938,1.15625-3.71777,1.69824-5.58496l.05664-.23633c.54492-2.89941,2.5957-5.35547,5.30176-6.38965,5.19336-1.85596,8.28027-7.11426,7.38184-12.54102-.61523-8.81201-.6709-17.75098-.16699-26.57178,1.06836-8.9707-2.89648-17.70117-10.35449-22.79688-1.76562-1.21289-3.48438-2.53613-5.1123-3.93311-2.74023-2.58496-4.10156-6.35498-3.64746-10.0498,.11523-.74512,2.72266-2.29688,3.97559-3.04248,2.75293-1.63965,5.60059-3.33447,5.70117-6.22949,.06152-1.75146-.94922-3.36182-3.00293-4.78613-4.30078-2.98535-7.78125-7.05322-10.0332-11.69678-1.55078-3.45947-5.20996-5.51123-8.96484-5.04492-4.56641-.00195-9.0625-.78955-13.36133-2.34131l-.2334-.07129c-12.16699-3.09131-23.61035-8.22119-34.0127-15.24658-6.36133-5.10205-15.0625-6.55664-22.73926-3.79736l-.14844,.05908c-3.6582,1.58643-7.90039,.84766-10.80859-1.88281l-.19434-.16455c-1.03223-.78809-2.09375-1.53174-3.12012-2.25049-1.12598-.78906-2.19043-1.53516-3.2207-2.33447-4.11426-3.6167-10.07715-3.93506-14.55176-.77344-5.71777,3.63574-11.4082,7.4624-16.91406,11.37305l-.17285,.13525c-1.52148,1.29639-2.55078,3.08154-2.91113,5.04395-.16406,.53955-.29102,1.08984-.37891,1.63867-.51465,3.22021,.25586,6.44824,2.16992,9.08936s4.74121,4.37891,7.88672,4.87988c1.5752,.30127,3.11035,.79639,4.56543,1.47168,1.8418,1.27686,3.47852,2.81592,4.86816,4.57666l.2666,.31152c.00684,.0376-.02832,.08789-.06641,.09473l-.25977,.0459-.24512,.09912c-6.02148,2.43896-12.36035,3.90576-18.84082,4.36035h-.04883c-8.48535,0-15.37012,6.60693-15.7041,15.12207-.08789,2.73535,.06055,5.49316,.44141,8.19775,.16211,2.3623,.33496,4.72412,.50879,7.08594,.45117,6.12012,.91602,12.44873,1.14941,18.75342,.10645,1.4165-.35938,2.81738-1.28223,3.88574-5.46582,3.47217-11.20703,6.62354-17.07324,9.36963-.18164,.06055-.36914,.1084-.55762,.14209-2.1416,.37598-4.18945-1.05322-4.55859-3.12646-1.22656-8.1875-.0791-16.50537,3.2793-23.97021,1.70508-3.44141,3.20801-7.02979,4.44727-10.61426,.46484-1.25586,1.01758-4.32422-.21777-6.95117-.76758-1.62988-2.08887-2.8125-3.82129-3.41895-5.16797-1.80664-7.80762,3.35303-8.67578,5.04883-.11523,.22559-.20996,.41943-.29395,.55469l-.16016,.3042c-.97852,2.2124-1.71777,4.53955-2.19727,6.91748l-.02344,.13623c-1.20215,8.32422-3.05859,13.79639-8.57422,15.32422-.48828,.09912-.96777,.24121-1.42969,.42236l-.10449,.04395c-8.24414,3.68359-9.67969,7.43604-9.73145,16.79785-.44922,4.58203-1.50488,9.08496-3.1377,13.38672l-.06641,.19775c-.24023,.83984-.46094,1.00977-2.67969,1.2666-1.0918,.12646-2.32715,.26953-3.51172,.79883-3.06348,1.24268-4.58398,4.63379-3.43555,7.82715,1.38477,3.49902,2.07812,7.17822,2.0625,10.9375-1.40332,10.93457-3.96973,21.75293-7.62891,32.15527-6.29834,13.86035-6.07666,14.97949-3.43896,28.33691l.2583,1.31055c.46143,2.32227,1.08643,4.63672,1.84766,6.84863,1,3.04004,.83398,6.32617-.50391,9.34082-.24902,.625-.50684,1.24707-.76416,1.87012-.59424,1.4375-1.20801,2.92188-1.729,4.45508-3.60742,8.05762-2.61377,17.47168,2.5498,24.52344,6.66699,9.88086,12.8418,20.25,18.39551,30.89844,.9873,1.73926,1.77832,3.6084,2.61523,5.58594,.92871,2.19629,1.88867,4.46582,3.16113,6.60449,4.1875,8.80957,9.88184,20.83496,9.89648,31.94336,.00781,6.13672-1.49707,12.48633-2.95312,18.62695-1.03711,4.37793-2.11035,8.90527-2.61914,13.30762-1.13379,9.81055-4.16699,19.14551-9.0166,27.74902-3.35449,4.99512-5.57617,10.53613-6.60254,16.46973l-.03711,.40625c-.0459,5.61133-2.8623,10.81543-7.53418,13.9209l-.15723,.11328c-1.12988,.88477-2.0752,1.95605-2.81055,3.18457-.4043,.625-1.80957,3.06348-.41309,4.84473,.97266,1.29492,2.36523,2.23828,3.92871,2.6582l.31152,.06348c1.42969,.19434,2.87207,.29297,4.32129,.29297,1.01855,0,2.04102-.04883,3.06348-.14648,47.69336-5.14551,86.97949-9.05469,123.63672-12.2998,2.67578-.23633,5.35449-.60352,7.94531-.95801,2.5459-.34863,5.17969-.70996,7.75098-.93555l.20508-.01855c1.07031-.09375,3.91016-.34668,4.54492,.12598,5.79004,4.89648,12.1377,4.02539,17.74023,3.26172,.85352-.11719,1.7002-.23242,2.53613-.32617,17.31348-1.92773,34.88867-4.68555,51.88477-7.35254,9.47461-1.48633,19.27148-3.02344,28.88184-4.39453,8.85059-1.26172,10.29102-6.35742,11.68359-11.28516,.44531-1.57324,.90527-3.20117,1.61133-4.91602,2.73633-6.64453,7.10938-12.58301,12.65234-17.18262,4.72949-3.08594,6.95215-8.7832,5.55273-14.25684-.38965-2.09473-.66504-4.2334-.82031-6.35938l-.04102-.30371c-.93945-4.74414,1.0459-9.55566,5.05762-12.25586l.21387-.16113c1.33301-1.12305,2.74512-2.18359,4.19922-3.15625,3.57422-1.9375,5.60254-5.89062,5.09375-9.92285-.09375-5.52051,1.48145-10.8584,4.55859-15.44629l.28613-.50391c1.62012-2.97656,3.01953-5.54785,3.80566-5.80078,.83887-.26465,3.64062,.98242,6.88965,2.42969,3.81543,1.69824,6.90234,1.80566,9.1748,.32031,2.18066-1.4248,3.27539-4.07422,3.25488-7.87695-.03027-5.76367-.23633-11.60449-.43555-17.25293Zm-5.55371,20.94434c-.26953,.17383-1.37988,.64453-4.40723-.70312-10.39258-4.62793-11.83398-4.16504-17.12012,5.5498l-.1123,.20605c-3.63574,5.46289-5.48145,11.81543-5.33691,18.37988l.02441,.2998c.29199,2.04199-.73828,4.05664-2.56641,5.01367l-.22461,.13281c-1.6084,1.07031-3.17285,2.24023-4.65039,3.47754-5.56738,3.81348-8.33594,10.51172-7.08594,17.14258,.17285,2.29102,.47363,4.5957,.89746,6.85156l.03906,.1748c.90527,3.44141-.50586,7.03613-3.51172,8.94531l-.25,.18164c-6.22852,5.13281-11.14062,11.78223-14.20703,19.22852-.81641,1.98145-1.33887,3.83008-1.7998,5.46094-1.33691,4.73242-1.94824,6.89258-7.57715,7.69531-9.64648,1.375-19.46094,2.91504-28.95215,4.4043-16.94141,2.65918-34.46094,5.4082-51.66211,7.32324-.87695,.09766-1.76562,.21875-2.66113,.34082-5.01172,.68555-9.74512,1.33301-13.83301-2.125-2.1582-1.82617-5.51855-1.53125-8.2168-1.28809l-.20117,.01758c-2.69141,.23633-5.38574,.60547-7.99121,.96191-2.53223,.34668-5.15039,.70605-7.70703,.93164-36.68945,3.24805-76.00684,7.15918-123.70215,12.30664-1.99902,.18945-4.02441,.15625-6.01953-.10352-.12012-.04004-.23633-.08984-.34668-.14844,.39648-.64258,.89551-1.20703,1.48535-1.68066,5.94238-3.99316,9.5459-10.61523,9.67383-17.77051,.92676-5.19434,2.8916-10.04395,5.84375-14.41797l.10449-.16797c5.20703-9.21094,8.46289-19.20996,9.67773-29.71973,.47461-4.11035,1.46777-8.2959,2.51758-12.72852,1.52246-6.42188,3.09668-13.0625,3.08789-19.78613-.01562-12.27832-6.03613-24.94336-10.43164-34.19141l-.11523-.21484c-1.12207-1.86719-1.98926-3.91504-2.90625-6.08398-.85547-2.02246-1.74023-4.11328-2.82812-6.02734-5.59863-10.73633-11.87012-21.26953-18.69727-31.38379-4.1792-5.70898-4.9585-13.25781-2.03418-19.69922l.09277-.23633c.47656-1.41406,1.04688-2.7959,1.65137-4.25781,.26562-.6416,.53125-1.28418,.75-1.83887,1.80566-4.06055,2.03516-8.62207,.63672-12.87695-.69922-2.03125-1.26562-4.12695-1.68164-6.22363l-.25879-1.30957q-2.54834-12.90723,3.13086-25.39844l.08203-.2041c3.81348-10.81543,6.48145-22.06543,7.92871-33.43848l.02051-.29297c.04004-4.45703-.77148-8.81982-2.38379-12.8916-.20801-.57959,.07812-1.20947,.65137-1.43457l.13086-.05566c.48145-.22119,1.24902-.31006,2.0625-.4043,2.11621-.24512,5.64648-.65381,6.87891-4.74658,1.78516-4.72607,2.93555-9.67383,3.41699-14.70557l.01172-.22705c.03613-8.19873,.85352-9.71924,6.71289-12.34473,.19141-.07227,.3916-.12842,.59473-.16748l.17969-.0415c9.83594-2.64307,11.44141-13.49951,12.29199-19.38867,.39844-1.95361,1.00293-3.86572,1.79785-5.6875,.11523-.20117,.24512-.44971,.38965-.73193,1.40527-2.74658,1.99707-2.80957,2.57227-2.60693,.46973,.16406,.75293,.41162,.94922,.82764,.47656,1.01367,.23438,2.59619,.03516,3.13672-1.18848,3.43652-2.6084,6.82812-4.25977,10.16455-3.79297,8.42529-5.07324,17.7085-3.69434,26.91309,.86328,4.854,5.51465,8.10059,10.36719,7.24219,.50293-.08936,1-.22266,1.47852-.396l.20801-.08545c6.20117-2.89746,12.26953-6.23291,18.03711-9.91504l.25195-.16064,.20703-.21631c2.02539-2.11279,3.06152-4.99951,2.84766-7.8252-.23145-6.30127-.7002-12.67676-1.15332-18.8418-.17578-2.3833-.35156-4.7666-.51367-7.15039l-.01953-.18408c-.34961-2.44727-.48633-4.94385-.40723-7.40332,.22754-5.7959,4.92188-10.30127,10.70898-10.30127,.03418,0,.06836,0,.10254,.00049l.09766,.00098,.09668-.00684c6.9668-.47803,13.78223-2.03809,20.26074-4.63721,1.21191-.2876,2.26367-1,2.98438-2.0293,.77832-1.1123,1.07715-2.46094,.84082-3.80029-.17969-1.01221-.64941-1.92627-1.36133-2.65771-1.72461-2.16113-3.75684-4.04492-6.04199-5.60059l-.33301-.19092c-1.8916-.8999-3.89258-1.55566-6.02344-1.96289-1.90234-.30371-3.57227-1.33008-4.70215-2.88916-1.12988-1.55957-1.58496-3.46582-1.28125-5.36768,.05762-.35938,.14355-.72119,.25781-1.07568l.08789-.36621c.13379-.8335,.55078-1.59668,1.17676-2.15967,5.42188-3.84912,11.02441-7.61426,16.65332-11.19287l.11328-.07617c2.58984-1.85205,6.06152-1.6665,8.44141,.45508l.12695,.10645c1.14941,.89551,2.33691,1.72803,3.48535,2.53271,.99707,.69775,1.93945,1.3584,2.86035,2.05762,4.33691,4.00146,10.6123,5.08447,16.04102,2.7666,6.06055-2.15186,12.91895-.97607,17.91895,3.07275l.17188,.12744c10.87207,7.35791,22.83301,12.73389,35.55176,15.97949,4.86719,1.74121,9.94531,2.60156,15.12305,2.59619l.35742-.02686c1.60059-.24023,3.19922,.63086,3.89648,2.18506,2.65723,5.4834,6.70801,10.21777,11.71484,13.69189,.32324,.22461,.53711,.40625,.6748,.54053-.61426,.60156-2.12207,1.49951-3.08105,2.0708-2.7793,1.65381-5.92871,3.52881-6.375,6.68311-.65527,5.33789,1.29785,10.71826,5.22559,14.3916l.07715,.06885c1.77637,1.52783,3.6543,2.97412,5.58789,4.30322,5.9375,4.05615,9.08203,11.00977,8.20801,18.146l-.01465,.16064c-.52344,9.09912-.46484,18.32178,.1748,27.41162l.0332,.2627c.54492,3.06396-1.18652,6.04785-4.16797,7.11377-4.33008,1.65332-7.56055,5.48975-8.45898,10.03076-.52441,1.7998-1.08203,3.59277-1.63965,5.38477-1.31543,4.22754-2.6748,8.59863-3.58691,13.04883l-.03418,.21484c-.23145,1.99902-1.7002,3.6709-3.65332,4.1582l-.12012,.0332c-.88477,.26855-1.84082,.44727-2.85156,.6377-1.24121,.23242-2.52441,.47266-3.81348,.9043-4.44434,1.4873-9.42383,4.22852-8.58105,12.29004-.05762,5.05566-.54395,10.13574-1.44727,15.10059l-.03516,.28711c-.25684,4.00488,.42578,6.78711,2.02734,8.27148,4.42871,4.35645,9.43066,8.09375,14.86523,11.11035l.19434,.09668c7.89746,3.52539,17.11816,.9082,21.99219-6.21484,7.65723-8.77832,13.56738-18.77539,17.56836-29.7168l.07617-.24707c1.08789-4.31055,4.42188-7.73535,8.70215-8.9375,2.89941-.81543,5.57715-2.3418,8.16602-3.81738,4.5166-2.57617,8.4209-4.80176,12.7666-3.26074,8.29883,2.93945,15.78613,16.74902,18.25781,25.20312,5.23828,22.53613,12.91309,44.56641,22.8252,65.51074,1.97656,4.0498,3.05078,8.57227,3.10742,13.09668,.08203,4.10059,.22852,8.25977,.37012,12.28125,.19727,5.6123,.40137,11.41406,.43164,17.10449,.01074,1.88281-.35938,3.25195-.98926,3.66406Z"/></svg>