<?xml version="1.0" encoding="UTF-8"?><svg id="a" xmlns="http://www.w3.org/2000/svg" viewBox="0 0 576.99704 602.91791"><defs><style>.b{fill:#010101;}</style></defs><path class="b" d="M576.90738,126.86224l-.12988-.46484c-.67871-1.75488-2.1748-3.06885-4.06152-3.52783-5.65137-1.23486-11.43359,.17871-15.94727,3.93994-1.67871,1.51221-3.04102,2.22266-4.05859,2.11719-1.15234-.12109-2.53711-1.31299-4.28711-3.71631-1.31348-1.6748-2.52734-3.45215-3.6084-5.2832-1.85547-3.68066-5.82129-5.7959-9.89648-5.30029-7.47754,.37354-13.56934,.63965-19.16699,.83789-1.50391,.05322-3.05469,.04834-4.55664,.04199-6.47949-.02148-13.2041-.04932-19.72754,4.35254-1.54297,1.04248-2.47656,.79541-2.78613,.71387-1.39648-.3667-2.87793-1.99219-4.16895-4.57617-.6875-1.37646-1.29492-2.78271-1.9375-4.27148l-.33984-.78711c-2.08789-4.81641-6.47754-4.25977-8.13281-4.05078l-.17285,.02783c-6.59375,1.31152-12.45801,4.97754-16.52441,10.32812-7.10059,7.83398-17.94141,11.52588-28.35449,9.63135-4.64648-1.10693-9.28027-2.48438-13.77539-4.09424l-.2793-.1001-.2959-.03223c-1.02832-.11035-1.8125-1.00732-1.78613-2.04199l.00293-.09131-.00488-.0918c-.10059-2.1123-.33496-7.06006-6.88965-7.33447-6.46777-.27051-11.06934-2.18555-14.47852-6.02344-.3252-.38281-1.06348-1.96045-1.55273-3.00439-1.43652-3.06982-2.25293-4.7041-3.66699-5.38281-.35059-.16895-.72754-.28516-1.11816-.34521-1.92188-.29883-3.81152,.76514-5.48047,1.70312-.56543,.31738-1.41797,.79688-1.72754,.87061-2.17676,.50928-3.93457,.05469-6.56738-.75439-13.14941-4.04004-25.89844-9.50098-37.89746-16.2334-1.13965-.63623-2.2666-1.29443-3.39062-1.95166-6.7959-3.96973-13.82812-8.06982-22.97266-7.15625-2.24707-.15234-4.4209-.70703-6.39648-1.61719-6.59082-3.29688-14.68213-.64746-18.0459,5.90381l-.06543,.13721c-1.84131,4.19336-6.4082,6.46826-10.86572,5.40527l-.44043-.06396c-3.83838-.21289-7.71631-.18799-11.46729-.16455-1.52979,.00977-3.05762,.01904-4.58643,.01367-2.31006-.00928-2.37695-.84277-2.4165-1.34033-.6416-8.0249-7.43555-8.18506-10.33691-8.25342-2.43213-.05664-4.92725-.21143-7.33984-.36084-2.03955-.12646-4.14844-.25684-6.24121-.33105-.62793-.02197-1.26172-.02588-1.89307-.02881-4.07861-.02002-6.09277-.17334-7.30615-3.41406-.94287-2.5166-4.59229-3.3208-5.91895-3.41846-2.65967-.1958-5.33154-.19775-7.91553-.2002-1.19873-.00049-2.39746-.00146-3.59473-.02148l-.06006-.00098-.05957,.00146c-8.13086,.25684-15.34277-5.33203-17.125-13.27881l-.0415-.16016c-4.0083-13.59033-7.05664-27.59082-9.06201-41.61426-.15283-6.00977-4.91211-10.86621-10.92676-11.13379-.979-.10986-1.95312-.26025-2.98291-.41895-.44678-.06934-.89307-.13818-1.33936-.20361-2.92188-.4292-5.22559-.42041-6.96924,1.01074-1.83691,1.50928-2.20117,3.95654-2.32129,6.37646-.16943,3.42139-.16992,6.87744-.1709,10.21973-.00098,3.37012-.00195,6.85498-.17871,10.24121-.2334,4.46484-.50293,7.96533-1.64746,9.03125-1.14795,1.06885-4.56543,1.15381-9.2666,1.15674l-124.02441,.01367c-.77393,0-1.54883-.00439-2.32324-.00928-2.24756-.0127-4.57324-.02637-6.88672,.07373-2.24658,.09668-4.75732,.35889-6.11523,2.25293-1.34033,1.86963-.81348,4.27832-.19873,6.40039,.72607,3.08301,1.75928,6.1084,3.09717,9.0459,2.22607,4.59863,2.65332,9.8291,1.20312,14.72754l-.04053,.15527c-1.20752,5.30762-1.90625,10.75732-2.07666,16.21387-.2876,11.61182-.18164,23.32617-.03662,35.30518-.11279,3.65137,.3418,7.28174,1.34229,10.76025,2.75244,10.0835,6.81738,19.7749,12.12158,28.86963,2.77734,4.44629,4.29297,9.56641,4.3833,14.82666,.53418,21.22949,2.44531,42.63672,5.69434,63.71143,1.09961,5.79932,1.96924,11.7793,2.81006,17.56201,1.30762,8.99268,2.65967,18.29102,4.91992,27.27197l.02783,.10254c5.11133,17.18262,8.16211,34.97168,9.06885,52.87598,.0249,2.09961,.33105,4.14258,.62695,6.11816,.2666,1.78027,.51855,3.46191,.56641,5.12305l.01172,.17676c1.13721,11.34375-4.05176,22.25684-13.55225,28.53613-.77295,.33887-1.49414,.7832-2.14746,1.32129-3.86377,3.18848-4.44287,8.90332-1.32178,12.80078,2.20068,3.28418,4.81787,6.27637,7.80273,8.91602,2.69971,2.3252,5.63672,4.40527,8.73096,6.18164,5.59277,3.21094,9.16016,9.21191,9.3125,15.73828,.05225,1.03125,3.41553,127.44434,.56494,165.57129-.09863,1.32422-.22217,2.4873-.33008,3.51074-.37061,3.50195-.63818,6.03223,1.08887,7.92188,1.92334,2.10547,5.12061,2.26465,12.4873,2.15527,9.41748-.14551,65.19824-.01855,129.78662,.12598,57.75391,.12988,123.18604,.27734,173.09912,.27734,41.77637,0,72.68457-.10352,79.0918-.40625,5.1582-.24316,10.29883-2.47461,14.2002-4.39258,6.29492-3.09375,10.05273-9.91016,9.35254-16.96094-.45312-4.56543-.9043-9.13086-1.35254-13.69727l-.02637-.19141c-1.45703-8.23438-6.41504-15.38281-13.61133-19.63184-7.18164-5.26855-15.04883-9.52148-23.32227-12.61719-6.93945-2.82422-12.75293-7.64648-16.81152-13.94336l-10.09668-13.83398c-2.15918-3.24902-5.76953-5.20996-9.63086-5.24707-.80859-.02148-1.72266-.24414-2.69141-.47852-1.23242-.2998-2.63281-.62598-4.10645-.61816l-.16602,.00781c-3.12109,.25488-6.03906-1.73535-6.94336-4.73047l-.0498-.14746c-2.59473-6.97656-10.01074-11.10059-17.29883-9.63477-2.31934,.21875-4.6875-.30469-6.70117-1.47461-4.56738-3.71289-8.98242-7.71289-13.15918-11.9209-1.7002-1.64746-2.6748-3.9502-2.6748-6.31641l-.00488-.16211c-.29883-4.59863-.69043-9.25684-1.06934-13.76172-.40039-4.7627-.81445-9.6875-1.11621-14.52344-.61914-9.94531-.59277-18.76367,6.04199-25.95996l.11133-.12891c2.33008-2.90039,3.2041-6.75586,2.36426-10.37109-.18359-6.1416-3.61133-11.75879-9.00293-14.72754-1.77344-1.08789-3.4375-2.35938-4.94531-3.78027l-.15527-.13477c-3.30371-2.63574-3.25684-2.75098-2.05371-5.70312,3.25488-7.96387,6.76172-15.94238,10.42383-23.71582,.87109-1.5791,2.12695-2.93555,3.70312-3.97168,4.97266-3.50586,10.14941-6.93066,15.15527-10.24414l3.5459-2.34863c6.81055-3.91602,10.83398-11.49414,10.26074-19.27344-.42969-8.59277-.24121-17.32275-.03125-24.81543,.18848-5.55176,.6709-11.15625,1.41992-16.56592,.32812-1.85352,1.03516-3.58057,2.10156-5.13379l.07227-.11084c2.29102-3.74756,4.88867-7.35303,7.77344-10.78369,5.34766-6.81592,12.27344-12.45508,20.0293-16.31055,5.46582-2.4165,10.30469-5.85693,14.38281-10.22656l.09961-.11279c4.4248-5.3501,9.5293-10.11572,15.17285-14.16602,6.43066-3.88086,11.81348-9.36426,15.5752-15.8667,2.55273-4.01807,5.38379-7.99316,8.12207-11.83789,.7041-.98779,1.40723-1.97559,2.11035-2.96924,7.42578-10.54248,17.70703-18.58008,29.75293-23.25342,4.18359-1.66943,8.48047-3.29004,12.63672-4.85742,4.18945-1.57959,8.52051-3.21289,12.76074-4.90576,15.04785-6.01367,30.26465-12.18555,45.24707-18.35156,3.55957-1.5,7.05664-3.25,10.39453-5.20068l.2666-.15576,.2207-.21631c1.375-1.34619,1.99512-3.28027,1.65918-5.17334Zm-5.02734,1.43701c-3.04297,1.75781-6.22168,3.33887-9.43555,4.69336-14.94727,6.15137-30.14844,12.31689-45.17969,18.32422-4.19434,1.67432-8.50391,3.29932-12.66992,4.87061-4.17871,1.57568-8.49805,3.20459-12.7041,4.8833-12.94531,5.02148-24.01367,13.67578-32.00684,25.02197-.69727,.98584-1.39746,1.96875-2.09766,2.95264-2.78711,3.91162-5.66797,7.95703-8.29883,12.10352l-.05469,.08984c-3.35645,5.81836-8.1748,10.7207-13.93359,14.17773l-.16797,.11084c-6.00488,4.29883-11.4375,9.35938-16.14746,15.04346-3.61719,3.86133-7.90527,6.90039-12.74805,9.0332l-.10254,.04834c-8.43945,4.18506-15.97461,10.31494-21.73633,17.66064-2.97852,3.53955-5.71191,7.33252-8.12598,11.27393-1.45117,2.13037-2.41504,4.49756-2.87988,7.12744-.78711,5.67334-1.28418,11.45264-1.47949,17.19141-.21289,7.60205-.40332,16.44678,.03906,25.27881,.43848,5.95312-2.63086,11.70898-7.81934,14.66211l-3.75684,2.48242c-5.03613,3.33203-10.24316,6.77832-15.20703,10.28027-2.21387,1.45215-4.05273,3.44922-5.31738,5.77637l-.06543,.12891c-3.70996,7.87305-7.26367,15.95605-10.5625,24.02539-2.27734,5.5918-.84277,7.96875,3.48535,11.4375,1.75293,1.64258,3.68457,3.11133,5.74219,4.36816l.10547,.06055c3.92773,2.14355,6.40332,6.25488,6.46094,10.72949l.00391,.30273,.07617,.29297c.55859,2.1543,.07227,4.47461-1.30176,6.22363-7.89941,8.62207-7.95801,18.91699-7.29297,29.59082,.30469,4.89062,.72168,9.84277,1.12402,14.63184,.375,4.45605,.7627,9.06348,1.05664,13.58984,.02344,3.68164,1.54883,7.25684,4.16016,9.78711,4.31152,4.3457,8.90918,8.50488,13.66602,12.36426l.28711,.20117c3.00195,1.80566,6.58008,2.60156,10.05664,2.23633l.25684-.04004c4.90039-1.03516,9.91895,1.70996,11.69531,6.38965,1.60059,5.15625,6.61816,8.58594,12.01172,8.19238,.8252,.00098,1.77832,.23242,2.78613,.47754,1.12402,.27344,2.39844,.58301,3.78027,.61914,2.25488,.02246,4.33984,1.16113,5.57812,3.04688l10.07715,13.80566c4.61719,7.13574,11.2168,12.59961,19.15625,15.83008,7.94727,2.97461,15.44434,7.0332,22.28223,12.06445l.2207,.14453c5.96191,3.4834,10.0791,9.37012,11.30859,16.16113,.44531,4.53613,.89355,9.07031,1.34375,13.60449,.49512,4.98633-2.14941,9.80078-6.58203,11.97949-3.46777,1.7041-7.99219,3.68555-12.23145,3.88574-13.9375,.65723-145.90625,.36035-251.94336,.12305-44.34619-.09961-84.53906-.19043-108.4502-.19043-10.92773,0-18.45703,.01953-21.42432,.06445-2.56592,.03906-7.90039,.12207-8.68457-.47852-.22412-.46582-.02148-2.38184,.15723-4.07324,.11279-1.06738,.24072-2.28223,.34424-3.66309,2.8252-37.79297-.50342-165.23145-.55566-166.13867-.18945-8.18555-4.71826-15.80371-11.81836-19.87988-2.81982-1.61914-5.49707-3.51465-7.93311-5.61328-2.66699-2.3584-5.021-5.05664-6.99609-8.02051l-.15234-.20508c-1.4624-1.77246-1.20996-4.4043,.56152-5.86621,.32812-.27051,.69385-.48828,1.0874-.64746l.4248-.22266c11.16357-7.2666,17.28467-20.00391,15.98926-33.25391-.0625-1.92969-.34424-3.81055-.6167-5.63086-.28564-1.90723-.55518-3.70898-.57227-5.47852l-.00293-.10156c-.92285-18.30078-4.03711-36.48389-9.25732-54.04736-2.18994-8.71777-3.521-17.86963-4.80811-26.72021-.84863-5.83545-1.72607-11.86914-2.83105-17.68945-3.20215-20.77979-5.09375-41.97314-5.62256-62.9707-.10547-6.14746-1.8833-12.15381-5.10205-17.30469-5.04492-8.65283-8.94043-17.93945-11.58691-27.63477-.87012-3.02637-1.25977-6.15674-1.15771-9.30469l.00195-.05566-.00049-.05566c-.14502-11.94971-.25146-23.63184,.03418-35.16016,.15918-5.09473,.81055-10.19775,1.93652-15.16943,1.77686-6.07275,1.23828-12.54883-1.49512-18.19238-1.18555-2.60547-2.11768-5.33936-2.76953-8.12549l-.03369-.13037c-.33398-1.14502-.43164-1.76221-.4541-2.07959,.31152-.08203,.93994-.19092,2.16504-.24365,2.18994-.0957,4.45215-.08203,6.64111-.06885,.78418,.00488,1.56836,.00928,2.35254,.00928l124.02637-.01367c13.28809-.00879,15.2207-1.82227,15.90527-14.92725,.18359-3.51562,.18457-7.06689,.18555-10.50098,.00049-3.28174,.00146-6.67529,.16504-9.97363,.11426-2.30322,.46484-2.72266,.49756-2.75732,.08008-.05176,.604-.2915,3.07275,.07031,.43457,.06348,.86816,.13037,1.30225,.19775,1.06641,.16455,2.16895,.33496,3.28564,.45703l.18262,.01367c3.44434,.12402,6.17139,2.9209,6.20801,6.36768l.0249,.32617c2.03516,14.28613,5.13525,28.55078,9.21484,42.39697,2.33301,10.21875,11.61279,17.39893,22.07764,17.10254,1.20508,.01953,2.41162,.02051,3.61768,.02148,2.49463,.00195,5.07422,.00439,7.55273,.18652,.604,.04443,1.38379,.31934,1.73584,.52588,2.53516,6.2749,7.89795,6.30127,11.83203,6.32031,.58057,.00293,1.16309,.00537,1.74072,.02588,2.02637,.07178,4.10205,.2002,6.10889,.32422,2.45996,.15283,5.00342,.31006,7.53125,.36963,4.47266,.10498,5.25537,.96045,5.47021,3.65283,.29639,3.70312,3.05518,5.92432,7.38086,5.94189,1.54639,.00732,3.09229-.00342,4.63818-.01367,3.604-.02393,7.32812-.04639,10.94727,.14551,6.7124,1.48535,13.53662-1.94971,16.33887-8.23584,2.13672-4.0791,7.20166-5.71924,11.40088-3.62158,2.67578,1.23486,5.52637,1.94629,8.4707,2.11572l.20703,.01172,.20605-.02246c7.62793-.82178,13.69531,2.72266,20.12891,6.47998,1.15234,.67334,2.30762,1.34717,3.46973,1.99707,12.30469,6.90381,25.38379,12.50537,38.87207,16.6499,3.12891,.96191,5.78809,1.63672,9.18555,.84131,.99902-.23779,1.98438-.7915,3.02734-1.37793,.50684-.28467,1.3418-.75391,1.91406-.98193,.41797,.72559,.99414,1.95508,1.37402,2.76807,.96582,2.06152,1.60449,3.37305,2.34082,4.20215,4.37207,4.92285,10.09473,7.37012,18.00977,7.70166,1.85352,.07715,1.99023,.21924,2.10059,2.49463-.03809,3.46436,2.52246,6.4668,5.92578,6.99756,4.60938,1.64062,9.3584,3.0459,14.11914,4.17773l.12598,.02686c12.15625,2.23438,24.84082-2.08545,33.10645-11.27051l.13867-.16797c3.31055-4.39404,8.09863-7.4126,13.48828-8.50635,2.24121-.27344,2.4502,.21631,2.8291,1.09131l.33789,.7793c.6416,1.48584,1.30469,3.02246,2.05469,4.52441,2,4.00293,4.48047,6.41797,7.37207,7.17725,1.56445,.4126,4.02734,.50098,6.85254-1.40527,5.24707-3.54004,10.9082-3.52197,16.91211-3.49707,1.5498,.00684,3.14941,.01123,4.75293-.04492,5.64453-.2002,11.78809-.46875,19.33301-.8457l.2041-.01904c2.02832-.2666,4.00293,.78564,4.90527,2.62451l.08887,.16602c1.20508,2.04834,2.56055,4.03662,3.97461,5.83594,1.78223,2.45117,4.27441,5.31104,7.75488,5.67578,2.55566,.2666,5.07227-.80566,7.85156-3.31104,3.24707-2.7041,7.47852-3.73779,11.54883-2.84717,.1582,.03809,.29688,.12646,.39844,.24756-.01465,.10938-.05176,.21533-.1084,.31055Z"/></svg>