<?xml version="1.0" encoding="UTF-8"?><svg id="a" xmlns="http://www.w3.org/2000/svg" viewBox="0 0 518.57582 819.6083"><defs><style>.b{fill:#010101;}</style></defs><path class="b" d="M516.07023,3.17178c-3.18945-3.34326-8.74609-3.27344-20.92285-3.11279-3.24609,.04297-6.91699,.09082-11.17188,.08447-11.42383-.01416-49.69336,.39746-93.9668,.87451-67.86719,.73193-152.32666,1.64258-168.31055,1.28271l-1.48486-.03516c-2.60059-.06299-5.28857-.12793-7.95996-.06592-.05029-.00098-.1001-.00146-.1499-.00146-4.45068,0-8.10693,3.36035-8.48926,7.78516-.35938,1.34668-.5415,2.73438-.54199,4.12891,0,.09473,.00537,.18945,.01611,.28369,.84863,7.4541-1.19727,12.82568-13.99316,16.55957-5.31836,1.30029-10.16553,4.33838-13.6543,8.55908-.05664,.06885-.10986,.14062-.15918,.21533-1.61426,2.44531-3.41211,4.91943-5.15088,7.31201-8.5835,11.81201-17.45801,24.02295-12.21729,41.45947,.1084,.92578,.08057,1.8584-.08301,2.77539-.02002,.11475-.03271,.23096-.03711,.34766-.45752,12.48877-.45947,12.55273-11.72314,16.53955-7.20801,1.42041-13.80469,4.86719-19.0874,9.97656-.07471,.07178-.14453,.14844-.20947,.229-4.28662,5.3252-8.73828,10.67773-13.04297,15.854-1.5752,1.89404-3.15039,3.78809-4.72119,5.68506-4.47754,4.06641-6.31104,10.20459-4.78564,16.06982,.021,.08057,.0459,.16016,.07471,.23828,3.01123,8.14209-1.32324,11.78613-8.20703,16.36914-12.6748,7.81738-20.4248,21.35986-20.74512,36.24365-.83008,8.47852-2.45605,16.92139-4.83252,25.09814-2.56689,7.2998-1.75342,15.28516,2.23584,21.91846,.10547,.1748,.23145,.33594,.37549,.47998,.32861,.32812,.62646,.69141,.88428,1.0791,1.0415,1.56543,1.41113,3.44287,1.04102,5.28613-.37061,1.84277-1.43652,3.43164-3.00195,4.47314-.06445,.04297-.12646,.08838-.18652,.13672-7.05762,5.70215-3.68018,12.06641-1.49072,16.18848,5.79932,12.07031,8.06982,25.4834,6.56641,38.78955-.01025,.09326-.01562,.18701-.01562,.28076-.00049,4.5-1.32178,8.85791-3.77881,12.54004-7.35645,10.33154-10.40234,22.91797-8.58691,35.4624-.22363,14.07227,3.00049,28.14893,9.32764,40.72168,.06445,.12891,.14062,.25195,.22656,.36816,4.85059,6.52441,6.91309,14.86328,5.6665,22.89453-1.25439,5.05176,1.27979,10.2041,6.07959,12.29492,8.9082,3.80762,12.86865,9.03809,6.75,24.50586-1.71338,4.33105-3.354,8.62402-4.73242,12.25195-.19922,.52441-.49951,1.0957-.81738,1.70215-.78223,1.49023-1.75586,3.3457-1.67676,5.56055,.04492,1.26465,.38721,2.34961,.68896,3.30664,.30615,.96973,.54785,1.73633,.4585,2.51562-.29834,2.60547-2.05811,4.89941-3.9209,7.32812-.63232,.8252-1.28662,1.67773-1.88379,2.54883-15.21729,22.13281-30.4248,44.27344-45.62354,66.4209-1.79785,2.62012-3.67578,5.27344-5.49219,7.83984-6.19189,8.74805-12.59521,17.79492-17.39746,27.67969-3.58887,7.38574-5.9165,14.26367-7.11621,21.02539-2.19824,12.38867-3.93018,26.57422-5.00928,41.02344-.66455,8.89355,2.57764,12.9502,11.19727,14.00195,3.80957,.4541,7.68994,.68945,11.52637,.7002,7.04004,.03906,14.08008,.03613,21.11816,.0332,10.26367-.00684,20.87842-.00977,31.30859,.12598,14.73047,.19043,29.71045,.46387,44.19775,.72754,26.0918,.47461,53.07178,.9668,79.61865,.99902,.42334,.00098,.84668,.00098,1.27051,.00098,28.99463,0,58.26709-1.19824,83.1416-2.375,.07129-.00293,.14258-.00977,.21289-.01953,4.03027-.53418,7.94531,1.22559,10.20898,4.60645,.03809,.05762,.07812,.1123,.12109,.16602,2.66016,3.3418,3.5752,7.7959,2.42578,12-1.16309,4.91699-2.2832,9.84375-3.40332,14.77051-1.47266,6.47559-2.99609,13.1709-4.5918,19.72461-3.65625,9.5166-.38477,20.20312,7.98535,26.03418,1.0166,.71387,1.9375,1.76367,2.91113,2.87402,1.12402,1.28027,2.28516,2.60449,3.72656,3.61719,6.59668,4.94531,11.07422,12.13281,12.62793,20.33301,1.55859,6.75684,3.50977,13.50488,5.81836,20.10449,2.33984,6.26953,4.37207,10.00781,7.8291,10.56445,.2832,.0459,.56348,.06836,.8418,.06836,3.07422-.00098,5.90918-2.74121,9.5791-7.3125,3.67773-4.33301,7.17578-8.90723,10.43652-13.65039,4.70312-7.25781,8.7832-8.89453,15.60059-6.26465,.03613,.01367,.07227,.02734,.10938,.03906,5.64551,1.88477,11.72949,2.34961,17.5127,1.35059,12.39551-1.72754,24.82715-4.19434,36.94922-7.33203,.05078-.0127,.10059-.02734,.15039-.04395,10.16797-3.31934,21.375-2.27734,30.75586,2.86328,11.55566,7.25293,23.56543,7.5127,35.18164,7.76465,2.52734,.05469,5.13965,.11133,7.69141,.24121,6.1084,.30469,10.45703-.91113,13.28223-3.7373,2.85254-2.85254,4.08398-7.29688,3.7627-13.58594-.28711-5.62109-.55176-11.24512-.81543-16.86914-.86621-18.43359-1.76172-37.49512-3.47559-56.19434-1.69922-18.55566-3.94727-37.48438-6.12109-55.79102-3.74414-31.52637-7.61523-64.12598-8.82812-95.98145-1.71875-45.125-.60938-94.49219,3.49219-155.36279,2.16895-32.18164,4.97363-64.88965,7.68652-96.52148,6.03613-70.37598,12.27734-143.14795,11.93848-215.08887-.0498-10.45898,.63867-21.07324,1.30371-31.33838,.48438-7.4751,.98535-15.20459,1.20605-22.88672,.14746-5.13232,.41113-9.51465,.62402-13.03564,.58301-9.68652,.87598-14.54883-2.12891-17.69873Zm-2.8623,17.39844c-.21484,3.55566-.48145,7.98145-.63086,13.19238-.21777,7.59229-.71582,15.27588-1.19727,22.70703-.6709,10.3501-1.36523,21.05225-1.31445,31.68506,.33789,71.71484-5.89355,144.37305-11.91992,214.63818-2.71484,31.65381-5.52246,64.38525-7.69336,96.61279-4.11328,61.04932-5.22559,110.58447-3.5,155.88818,1.21973,32.05664,5.10352,64.75781,8.85938,96.38184,2.16992,18.27344,4.41406,37.16797,6.10742,55.6582,1.70312,18.58789,2.5957,37.59277,3.45898,55.97168,.26465,5.63086,.5293,11.26074,.81641,16.88965,.24512,4.7959-.50879,8-2.30469,9.7959-1.76855,1.76855-4.875,2.51367-9.49219,2.27832-2.62402-.13379-5.27441-.19043-7.83691-.24609-11.46094-.24902-22.28711-.4834-32.68945-7.03711-.04199-.02637-.08398-.05078-.12793-.0752-10.57617-5.81934-23.22168-7.02246-34.70605-3.29297-11.91504,3.08008-24.13086,5.50293-36.39062,7.21289-5.03418,.86426-10.25879,.47266-15.1084-1.13574-11.4375-4.39258-17.30664,1.69629-21.50293,8.17383-3.12793,4.54785-6.52246,8.98633-10.13477,13.24414-4.33789,5.40234-5.55176,5.52637-5.77051,5.49023-.20996-.03418-1.39062-.54883-3.92188-7.32715-2.23145-6.37891-4.13086-12.94922-5.62793-19.43164-1.76562-9.33398-6.92285-17.61035-14.58203-23.35156-1.01465-.71387-1.93359-1.76074-2.90625-2.87012-1.12598-1.2832-2.29004-2.60938-3.80469-3.67285-6.51758-4.54199-9.04102-12.87695-6.13379-20.27051,.04102-.10547,.0752-.21289,.10156-.32227,1.62012-6.64355,3.16016-13.41309,4.64844-19.95996,1.11719-4.91309,2.23438-9.82617,3.37207-14.64453,1.53809-5.61914,.30664-11.69238-3.29395-16.26953-3.31934-4.88965-8.99707-7.45117-14.85742-6.70801-25.15625,1.18848-54.80273,2.39844-84.06738,2.36328-26.50439-.03223-53.46289-.52344-79.53369-.99805-14.49316-.26465-29.47998-.53711-44.22363-.72852-10.46289-.13574-21.09277-.12891-31.37598-.12598-7.02881,.00391-14.05811,.00586-21.09424-.0332-3.65137-.01074-7.33789-.23438-10.94971-.66406-5.87012-.7168-7.27002-2.49805-6.80908-8.66504,1.06641-14.28516,2.77686-28.29785,4.9458-40.52344,1.11816-6.30078,3.30664-12.74902,6.69043-19.71289,4.62354-9.5166,10.90576-18.39258,16.98145-26.97656,1.82666-2.58105,3.71533-5.25,5.53369-7.89941,15.19824-22.14648,30.40479-44.28516,45.62305-66.41992,.52344-.76367,1.10889-1.52734,1.729-2.33594,2.09326-2.72852,4.46533-5.82129,4.92139-9.80273,.20996-1.83594-.271-3.3623-.65771-4.58789-.23584-.74805-.43994-1.39453-.46045-1.98047-.03174-.88965,.49609-1.89551,1.10693-3.05957,.37256-.70996,.75781-1.44434,1.06396-2.25,1.37256-3.61133,3.00537-7.88379,4.70801-12.1875,4.50293-11.38281,6.90283-23.95996-9.41846-30.93652-2.55225-1.1123-3.89404-3.87402-3.18994-6.56836,.02051-.0791,.03711-.1582,.0498-.23926,1.48145-9.31445-.86621-18.99414-6.44189-26.59521-5.93262-11.86523-8.93896-25.13818-8.69678-38.40137,.00244-.13818-.00635-.27686-.02686-.41357-1.6875-11.32764,1.0415-22.70361,7.72705-32.09473,3.02393-4.52979,4.63477-9.79492,4.6626-15.23633,1.57812-14.19629-.85693-28.50098-7.08838-41.4668-2.73828-5.15967-3.11719-7.34717,.09082-9.979,2.61963-1.78223,4.40332-4.46924,5.02832-7.58008,.63379-3.15283,.00146-6.36328-1.78027-9.04102-.37988-.5708-.80957-1.11035-1.28027-1.60742-3.10449-5.32031-3.70508-11.68115-1.6416-17.49707,.01611-.04541,.03076-.09082,.04443-.13672,2.48291-8.52637,4.17773-17.33252,5.0376-26.17432,.00635-.06445,.00977-.12939,.01123-.19385,.25537-13.21484,7.12354-25.24609,18.4458-32.23096,6.22754-4.14453,14.74854-9.81543,10.24512-22.18652-1.01367-4.06641,.29834-8.30664,3.44043-11.09131,.09619-.08545,.18555-.17773,.26758-.27686,1.60791-1.94189,3.22021-3.88086,4.83252-5.81982,4.28418-5.15088,8.71338-10.47705,12.99414-15.79199,4.60986-4.41699,10.35742-7.38623,16.63135-8.59033,.12305-.02344,.24463-.05664,.36279-.09814,13.49658-4.77686,14.67773-6.36377,15.22119-20.96582,.2373-1.43506,.25732-2.89307,.05908-4.3374-.01807-.13281-.04688-.26367-.08594-.39209-4.64258-15.16113,3.15869-25.89697,11.41846-37.26318,1.74414-2.40039,3.54688-4.88086,5.20215-7.38086,2.81055-3.35645,6.69385-5.76855,10.94922-6.79883,.03662-.00879,.07324-.01855,.10986-.0293,9.59521-2.78955,19.18457-7.5625,17.63623-21.79053,.01221-.97754,.15381-1.94873,.42139-2.88867,.05127-.18018,.08252-.36523,.09229-.55225,.10205-1.92041,1.68701-3.39453,3.60986-3.3418,.04053,.00146,.08057,.00195,.11914,.00049,2.57031-.0625,5.2168,.00293,7.77686,.06494l1.49268,.03516c16.0708,.36426,100.57471-.54932,168.47705-1.28174,44.25586-.47754,82.43652-.89258,93.90723-.87451,4.27539,.01025,7.98047-.04199,11.24316-.08496,9.69434-.12549,15.55371-.20264,17.24023,1.56445,1.5,1.57324,1.20312,6.49561,.75488,13.94727Z"/></svg>