<?xml version="1.0" encoding="UTF-8"?><svg id="a" xmlns="http://www.w3.org/2000/svg" viewBox="0 0 689.0565 579.91046"><defs><style>.b{fill:#010101;}</style></defs><path class="b" d="M686.32979,454.07355c-1.9707-2.30371-4.72168-3.70215-7.74512-3.93652l-.10254-.00586c-1.96289-.07324-3.93262,.03906-5.87012,.32422-3.69727,.33301-7.41895-1.11719-9.92773-3.875l-.10938-.11328c-6.25781-6.06738-10.91895-13.67871-13.47852-22.01074l-.08008-.26172-.13574-.23828c-3.50293-6.16699-3.8584-13.70996-.9248-20.2373,2.12305-5.06543,1.36621-10.88477-1.96973-15.23535-5.56836-9.67285-10.40527-19.86523-14.37793-30.29688-1.75-6.3877-7.54297-10.81348-14.16602-10.82227-1.19336-.11816-2.36719-.14844-3.50488-.17773-.66113-.0166-1.32227-.0332-2.01855-.07031-6.74512-.26074-13.12988-2.99316-17.99805-7.71387-7.67188-7.27344-15.9834-13.99707-24.7041-19.98535-9.46191-7.36133-16.42871-17.27441-20.14844-28.67334-2.33984-7.16748,2.23242-15.9165,6.26562-23.63525,.89941-1.71973,1.74805-3.34424,2.49512-4.90527l.46387-.96777c4.88379-10.19385,9.93359-20.73438,11.69531-32.25732,1.45898-9.55127,1.44922-12.2124-8.0332-16.15869l-.11426-.04395c-4.05469-1.45947-8.29102-2.32275-12.59375-2.56543-3.59668-.35449-7.24219-.57178-10.76855-.78174-4.5332-.27002-9.2207-.54932-13.75293-1.12256l-.2627-.01904c-.12109-.00244-.24121-.00635-.36621-.0127-3.42578-.16602-6.58203-1.65576-8.88672-4.19531s-3.48242-5.8252-3.31641-9.25049l.00586-.13037-.00684-.12988c-.24609-4.41016-.05762-8.86377,.5459-13.14941,.9248-5.21094-1.76953-10.38086-6.55957-12.60986-12.93945-7.11816-24.70996-16.10156-34.98828-26.70361-5.65625-6.8457-12.19043-13.05664-18.50977-19.06299-3.82324-3.63428-7.77637-7.3916-11.44727-11.20898-2.57715-2.73096-4.50293-5.91553-5.74512-9.52441-4.26172-11.44727-7.83789-23.28613-10.61426-35.11523-.33594-1.65186-.73047-3.33301-1.11133-4.95947-1.87988-8.02197-3.65527-15.60107-.00586-23.00537,3.17676-5.61914,1.50879-12.83545-3.81445-16.49023-4.4375-3.33398-8.18359-7.4043-11.1377-12.09912-3.0293-7.52441-10.9043-11.84229-18.88086-10.34424-20.34863,.73779-360.60645,.35889-378.85498-.00879C6.13741,.19171,3.07345,.13068,1.26046,2.1756-.49442,4.15411-.11356,6.85822,.58956,11.84991l.02295,.13525c.46875,2.37598,.50977,4.79102,.12158,7.18018-.97559,4.27393-.02979,8.71436,2.60059,12.21875,11.08057,18.10254,24.41309,34.7832,39.59717,49.54883,3.55713,3.58398,8.05664,5.99072,12.98096,6.95459,5.12549,1.07178,10.05811,2.88135,14.66064,5.37842,3.48633,1.8916,4.29395,5.63916,4.35742,8.4502,.14453,6.40625-3.39893,14.02686-7.73828,16.64062-1.42285,.85742-2.65186,1.95996-3.65479,3.27979-4.71094,4.90771-5.50244,12.34033-1.89209,18.16748,3.84912,6.01074,8.12354,12.34863,13.12402,19.45459,5.73145,7.51123,12.62061,13.9834,20.43896,19.21143,3.12109,2.16797,5.05615,5.73096,5.17627,9.53027l.0083,.14453c.56299,6.26709,1.32568,12.60205,2.06299,18.72852,.66016,5.48633,1.34326,11.15918,1.87598,16.73682,3.04492,31.86377,.68018,64.36572-1.60693,95.79736-.95508,13.12891-1.94287,26.70508-2.52539,40.06543-1.77295,40.66309-3.52002,88.58691-3.03516,135.73145l.00684,.66211c.08252,8.12207,.12012,11.8291,1.98682,14.3252,2.12305,2.83887,5.46094,2.85449,11.52002,2.88281,1.28125,.00586,2.71484,.0127,4.36914,.04492,2.25049,0,14.98242,.14258,34.25439,.35938,107.38379,1.20508,392.63525,4.40527,419.5376,1.11328,8.58203-1.05469,16.67676,3.56348,20.14844,11.47754l.24219,.43164c3.23926,4.62012,4.07812,10.56445,2.24219,15.90234l-.04297,.1377c-1.07422,3.83496-3.47266,7.19043-6.72266,9.42969-3.91699,2.61035-7.63965,5.57422-11.07617,8.82129-2.12695,2.03613-3.8418,4.41504-5.09961,7.07324-.83887,1.2793-1.21094,2.81055-1.05078,4.34082,.1875,1.7666,1.05078,3.35449,2.43066,4.47168,1.34082,1.08496,3.01172,1.59961,4.73047,1.45605,5.79785,.02148,11.65039,.40039,17.43164,1.13184,3.83301,.42969,7.67969,.64453,11.52734,.64453,5.87891,0,11.75586-.50195,17.56738-1.50293,5.53613-.45703,10.2666-4.09668,12.12891-9.32617,8.33594-15.82617,12.14746-33.62207,11.02246-51.47656l-.0166-.26074-.07031-.25195c-.25-.89941-.29883-1.85547-.14258-2.77637,.65527-1.93945,1.7832-3.69434,3.27637-5.09473,9.87402-6.37793,20.11426-12.46289,30.02051-18.34863,3.96387-2.07422,6.61133-5.94824,7.10449-10.39453,.94336-5.19824,2.27637-10.37207,3.96191-15.37305,.30469-.89746,.49609-1.83008,.56836-2.77051,.23633-3.02246-.71973-5.95605-2.69141-8.26074Zm-2.29297,7.87207v.00293c-.04102,.52441-.14746,1.0459-.32031,1.55371-1.77441,5.26562-3.1748,10.70801-4.16113,16.1748l-.02637,.18652c-.29297,2.83008-1.97754,5.29785-4.50488,6.60156l-.13086,.07227c-10.02539,5.95703-20.39258,12.11621-30.42188,18.60059l-.32422,.24902c-2.24805,2.04395-3.92969,4.65039-4.86426,7.54004l-.0752,.29395c-.31641,1.62891-.26855,3.33008,.13574,4.94043,1.02148,16.91602-2.62598,33.76855-10.55566,48.75l-.15723,.36426c-1.17969,3.4707-4.30273,5.88672-7.95703,6.15527l-.24316,.03027c-9.18652,1.59375-18.54004,1.87598-27.76562,.83984-5.98828-.75781-12.08789-1.15039-18.12988-1.16699h-.13574l-.13477,.01367c-.43457,.05078-.86719-.08105-1.20898-.35742-.3418-.27734-.55664-.6709-.60254-1.10742-.04199-.40039,.0625-.80078,.29492-1.12695l.23242-.40039c1.00098-2.16602,2.38379-4.10156,4.0957-5.74023,3.2207-3.04199,6.7207-5.8291,10.43555-8.30566,4.22266-2.9082,7.31445-7.2207,8.71289-12.14941,2.29688-6.75,1.26562-14.24805-2.75879-20.125-4.41992-9.81348-14.52441-15.52148-25.2334-14.20605-26.57227,3.24902-321.84473-.0625-418.87402-1.15039-19.25244-.21582-31.98389-.3584-34.24805-.3584h-.0127c-1.63281-.0332-3.0918-.04004-4.39551-.0459-4.01025-.01855-6.90723-.03223-7.53906-.87695-.88818-1.1875-.9292-5.24316-.99121-11.38184l-.00684-.66211c-.48438-47.02637,1.26025-94.86621,3.03027-135.46191,.57959-13.28906,1.56445-26.82812,2.51709-39.9209,2.30225-31.63867,4.68213-64.35352,1.59766-96.63623-.53906-5.63867-1.22559-11.34229-1.88965-16.85889-.72998-6.06738-1.48535-12.34033-2.04053-18.51025-.19336-5.34424-2.9248-10.34961-7.35498-13.42676-7.39648-4.94629-13.88281-11.04053-19.22266-18.03516-4.90137-6.96777-9.13574-13.24658-12.92578-19.16406-2.4043-3.88135-1.84912-8.8667,1.34961-12.12451l.22656-.26514c.63037-.85205,1.41113-1.56201,2.32031-2.10986,5.88184-3.54346,10.34326-12.78369,10.15674-21.03662-.13184-5.84326-2.60791-10.36475-6.97168-12.73193-5.02979-2.729-10.41992-4.70654-16.05273-5.88477-3.97021-.77686-7.57471-2.70508-10.45557-5.60742C31.50362,62.84503,18.41134,46.45685,7.53585,28.66974l-.14697-.21436c-1.79834-2.35107-2.44238-5.35254-1.76709-8.23438l.03223-.16016c.5-3.00879,.4541-6.05127-.125-8.99072-.33057-2.34814-.67188-4.77148-.49512-5.55664,.85156-.32373,3.82227-.26367,5.63428-.22803,18.31787,.37012,360.96143,.74609,379.34521-.00146l.38867-.04688c5.7373-1.14502,11.42383,1.97998,13.5293,7.43359l.20996,.42041c3.31055,5.31982,7.53125,9.92236,12.5459,13.68115l.09473,.06738c3.23633,2.19824,4.24512,6.57812,2.29785,9.97119l-.07129,.13184c-4.49023,9.03662-2.32422,18.27832-.41406,26.43262,.39062,1.66406,.75879,3.23584,1.09668,4.88818,2.83984,12.10498,6.47656,24.14648,10.79004,35.73047,1.45312,4.22705,3.74707,8.01904,6.83203,11.28809,3.76562,3.91504,7.75977,7.7124,11.62305,11.38428,6.23438,5.92627,12.68164,12.05469,18.16016,18.69775l.13281,.14795c10.66309,11.01318,22.88281,20.33984,36.31836,27.72119l.16895,.08447c2.76855,1.25977,4.33008,4.23145,3.78418,7.31396-.65723,4.65527-.86133,9.39404-.60742,14.08789-.19434,4.71143,1.44141,9.22363,4.61426,12.71973,3.20215,3.52832,7.58691,5.59863,12.3418,5.8291,.12598,.00586,.25098,.01074,.37598,.01416,4.65527,.58301,9.38281,.86475,13.95508,1.13721,3.49609,.20801,7.11133,.42334,10.62793,.77148l.1084,.0083c3.81641,.21094,7.57617,.97119,11.17383,2.26025,6.20508,2.58203,6.20117,2.60693,4.9541,10.76318-1.64844,10.78809-6.53516,20.98828-11.26172,30.85254l-.46387,.96875c-.70898,1.48193-1.53906,3.06885-2.41699,4.74902-4.26855,8.16797-9.58008,18.33301-6.58789,27.50195,4.03906,12.37598,11.61035,23.13574,21.89453,31.11621l.11816,.08691c8.52734,5.85059,16.6543,12.42285,24.13379,19.51367,5.73438,5.56055,13.28613,8.79199,21.22852,9.09863,.70605,.03809,1.41309,.05664,2.12012,.07422,1.13477,.0293,2.20605,.05664,3.25098,.16602l.13965,.01465,.14062-.00098h.0791c4.4082,0,8.26367,2.96387,9.39062,7.23242l.08008,.25c4.0957,10.77441,9.0918,21.29883,14.84961,31.28223l.20117,.2959c2.31152,2.94043,2.84961,6.91016,1.42871,10.30176-3.52148,7.83398-3.13379,16.9541,1.02734,24.45605,2.81543,9.00977,7.87402,17.24023,14.64258,23.82031,3.57324,3.89258,8.83691,5.91602,14.10547,5.4248l.13672-.0166c1.63867-.24707,3.30371-.33984,4.96484-.28613,1.67188,.14258,3.19141,.92285,4.28418,2.19922,1.10254,1.28906,1.6377,2.92969,1.50586,4.62109Z"/></svg>