<svg id="Layer_1" data-name="Layer 1" xmlns="http://www.w3.org/2000/svg" viewBox="0 0 786.67738 413.41409"><path d="M213.47656,504.3457a4.15322,4.15322,0,0,1-.5957-.043c-2.78516-.40429-4.02686-3.29882-5.34131-6.36328a30.96343,30.96343,0,0,1-2.42627-14.26465,10.81784,10.81784,0,0,0-5.3789-10.60058c-1.99268-1.13965-3.91309-2.39746-5.77051-3.61328-2.15821-1.41406-4.19873-2.75-6.34864-3.92188a26.56664,26.56664,0,0,1-14.00244-15c-2.15576-6.29883-4.77246-12.541-7.30322-18.5791-1.99853-4.76855-4.06543-9.69922-5.90478-14.64648l-.04786-.1416a84.172,84.172,0,0,1-3.05468-14.49415,32.51461,32.51461,0,0,1-.36817-3.89355c-.05371-1.00391-.10449-1.95215-.23193-2.8623-.37012-2.63575-.63721-4.53907-1.1333-5.08985-.49121-.5459-2.36182-1.02344-4.9502-1.68457l.501-2.45215-.61817,2.42285a13.694,13.694,0,0,0-2.69921-.57031,19.0877,19.0877,0,0,0-1.89844,2.7959,21.13428,21.13428,0,0,1-6.74512,6.80176,127.40278,127.40278,0,0,0-10.20654,8.332,6.61142,6.61142,0,0,1-8.50733.10351c-10.1997-7.00976-12.33056-12.82421-9.12451-24.80468q8.37672-31.30518,16.69483-62.62793l.09668-.291a11.77729,11.77729,0,0,0,.81494-5.22265c-1.96875-7.45313-3.39063-9.38672-9.30811-8.71192a13.30651,13.30651,0,0,1-11.3667-4.72168,69.72,69.72,0,0,0-12.55517-9.3584,24.87815,24.87815,0,0,1-9.26026-10.08691c-1.99365-3.68018-4.19238-7.44824-6.31787-11.09229-2.83691-4.86279-5.77051-9.89062-8.38769-15.01269l-.09082-.19824a11.87486,11.87486,0,0,0-10.44629-7.38184A13.0665,13.0665,0,0,1,49.48,238.832a50.2932,50.2932,0,0,0-2.81543-4.58789,13.87855,13.87855,0,0,1-2.19531-11.043l.0249-.10058a36.07794,36.07794,0,0,0,.978-13.82813,41.42157,41.42157,0,0,0-7.22559-11.06494l-.22412-.28564a12.48307,12.48307,0,0,1-.81348-1.45508,6.99418,6.99418,0,0,0-.5415-.96973c-9.18506-12.27637-9.67236-13.53857-8.69043-22.51269.19287-1.75977.43262-3.9502.61084-6.69727,1.00391-15.46631,2.25635-31.165,3.46729-46.34717l.082-1.02783c.36816-4.61231.728-9.20557,1.0542-13.81445.14453-2.042.41406-5.84278,3.2539-7.77051,2.53369-1.71924,5.64453-1.51953,7.50489-1.40283,122.81005,7.83545,255.71044,10.19629,406.293,7.21826,21.38184-.42285,43.49122-.85987,65.64844-1.86719l273.69629-10.334c4.06836-.16455,5.78223,1.77636,6.49512,3.42382l.001.00342a7.19444,7.19444,0,0,1,.50879,1.89893c.27539,2.043.34961,4.10644.42188,6.10156.03125.89356.06347,1.78516.11426,2.668l.53613,9.36377q.53906,9.36474,1.06738,18.73193c.63965,11.45362,1.10059,20.3003,1.49414,28.68408.57324,12.16846,1.06836,24.54151,1.54688,36.50635.66015,16.50244,1.34277,33.5669,2.23828,50.33008.92285,17.26416,1.957,34.81543,2.95605,51.78809.89551,15.21289,1.82227,30.94336,2.666,46.42285.40234,7.37988.97754,14.88672,1.5332,22.14648.5918,7.73535,1.2041,15.73438,1.61328,23.63184.14844,2.86621.42285,5.7998.68946,8.63672a115.66166,115.66166,0,0,1,.748,16.59765c-.6416,12.79395-3.34179,18.67285-17.64941,19.68946-31.82227,2.26074-63.5625,4.29-94.33887,6.03125-62.62988,3.543-126.18261,6.20507-188.89355,7.91211-55.794,1.51855-112.40088,2.32031-168.24756,2.38378-1.66065.002-3.645.12012-4.249,1.01954a5.75081,5.75081,0,0,0-.34717,2.78711c.1665,6.57324.04883,13.19433-.06543,19.59765-.07276,4.08692-.14795,8.31445-.14795,12.47461l-.02686.36621a4.78173,4.78173,0,0,1-2.37549,3.5,4.712,4.712,0,0,1-4.15332.22266c-3.27441-1.36914-4.93847-5.88379-6.04-8.87207l-.33741-.96582A10.70362,10.70362,0,0,0,323.729,478.21c-4.04785-3.31836-9.09179-1.92969-14.78711.07715-2.92187,1.0293-3.16308,2.24023-3.624,6.71094l-.06787.65429c-.52881,5.0127-1.84717,7.5625-7.91016,8.48926a21.26061,21.26061,0,0,1-9.55371-.5918c-11.436-3.82812-22.29931-.84179-33.35156,2.84864a18.413,18.413,0,0,1-10.603.85644l-.19043-.04883a36.82466,36.82466,0,0,0-15.18066-1.26757,14.6525,14.6525,0,0,0-9.936,5.24121C217.27832,502.67969,215.603,504.3457,213.47656,504.3457Zm-48.35888-88.70312c1.79736,4.82715,3.83349,9.68554,5.80322,14.38476,2.5625,6.11328,5.2124,12.43555,7.40332,18.83985a21.51015,21.51015,0,0,0,11.41064,12.1416l.17969.08887c2.36328,1.28222,4.61279,2.75586,6.78857,4.18066,1.79542,1.1748,3.65137,2.39063,5.50879,3.45313a15.77571,15.77571,0,0,1,7.88135,15.37793,25.87466,25.87466,0,0,0,2.041,11.85839,26.26163,26.26163,0,0,0,1.502,3.11426,9.17856,9.17856,0,0,0,1.04248-1.09765,19.57961,19.57961,0,0,1,13.23-7.01563,41.743,41.743,0,0,1,17.06348,1.417,13.432,13.432,0,0,0,7.688-.66211l.12793-.04687c11.435-3.82129,23.67285-7.19141,36.50586-2.89356a16.21008,16.21008,0,0,0,7.25.42188c3.23339-.49512,3.37158-.64649,3.73339-4.07813l.0669-.6416c.46582-4.52051.90625-8.79,6.93652-10.915,5.20215-1.832,13.064-4.60058,19.61914.77344a15.73565,15.73565,0,0,1,5.27686,8.38281l.19775.53321c.44971,1.2207,1.72949,4.69238,2.90528,5.74121.0083-3.95215.0791-7.93457.14794-11.792.1128-6.35058.23-12.917.06641-19.38281A9.47476,9.47476,0,0,1,336.689,452.124c2.16553-3.22265,6.37208-3.22754,8.39307-3.23047,55.8042-.06347,112.36719-.86425,168.11719-2.38183,62.66308-1.70508,126.167-4.36524,188.74707-7.90625,30.75391-1.74024,62.46973-3.76758,94.26855-6.02735,10.8545-.7705,12.44532-3.70312,13.00879-14.95117a111.71263,111.71263,0,0,0-.73242-15.88086c-.27051-2.88769-.55078-5.874-.70508-8.8457-.40527-7.835-1.01465-15.80273-1.60449-23.50781-.55762-7.28711-1.13476-14.82227-1.54-22.25684-.84375-15.46777-1.76953-31.19238-2.665-46.40039-1-16.97949-2.03418-34.5376-2.957-51.81543-.89844-16.79638-1.582-33.87793-2.24219-50.39648-.47851-11.95655-.97363-24.32032-1.54492-36.47168-.39355-8.36865-.85351-17.20166-1.49219-28.64014q-.52441-9.36181-1.06738-18.72412l-.53613-9.36572c-.05274-.917-.08594-1.84375-.11914-2.77246-.07031-1.96192-.1377-3.81446-.37988-5.61817a2.29733,2.29733,0,0,0-.14454-.58105h0c-.05468-.12842-.208-.46631-1.71582-.4126L516.09961,106.271c-22.20215,1.00927-44.34473,1.44726-65.75684,1.8706-150.72656,2.98047-283.76074.6167-406.71093-7.227-1.64991-.10547-3.34815-.14941-4.37842.54981-.832.56445-.9961,2.87548-1.07471,3.98632-.32715,4.624-.688,9.23194-1.05713,13.85889l-.082,1.02832c-1.21,15.16357-2.46094,30.84375-3.4624,46.27295-.18506,2.85742-.43164,5.1084-.6294,6.91748-.81054,7.40527-.82617,7.54688,7.72315,18.97363a10.86474,10.86474,0,0,1,1.01367,1.73535c.13916.27979.27246.54737.40332.7627a46.42528,46.42528,0,0,1,8.11084,12.60059l.14014.32177.0459.34766a41.06227,41.06227,0,0,1-1.04786,16.07666,8.8888,8.8888,0,0,0,1.4253,7.03271,55.34551,55.34551,0,0,1,3.1914,5.21387l.13184.28809a8.08964,8.08964,0,0,0,7.30176,5.19336,16.90082,16.90082,0,0,1,14.84326,10.39306c2.54248,4.96631,5.42187,9.90235,8.20654,14.67627,2.146,3.67774,4.36475,7.481,6.43457,11.30371a19.91989,19.91989,0,0,0,7.39453,8.106A74.563,74.563,0,0,1,111.79443,296.669l.228.24511a8.27814,8.27814,0,0,0,7.10889,3.03321c10.20947-1.15332,12.69873,5.03808,14.6875,12.63085l.07129.40918a16.79054,16.79054,0,0,1-1.08057,7.58692q-8.2998,31.25536-16.65918,62.49512c-2.66943,9.97558-1.31836,13.6123,7.22705,19.46l.23535.18261a1.56353,1.56353,0,0,0,2.03516.01368,131.86,131.86,0,0,1,10.63135-8.66993l.16015-.10742a16.09363,16.09363,0,0,0,5.20264-5.21972c3.30469-5.39942,4.43555-5.9004,10.09619-4.45508l.11719.03027c7.93115,2.02441,8.66357,2.8418,9.79785,10.92285.15772,1.123.2168,2.22559.27344,3.291a27.872,27.872,0,0,0,.31054,3.35547l.02149.14355A79.18777,79.18777,0,0,0,165.11768,415.64258Z" transform="translate(-27.61923 -90.93161)"/></svg>