<svg id="Layer_1" data-name="Layer 1" xmlns="http://www.w3.org/2000/svg" viewBox="0 0 791.43366 346.5938"><path d="M817.80762,458.377l-.124-.17285c-5.04394-6.54492-10.25976-13.11816-15.30371-19.47558l-4.55273-5.74317-.27051-.29883c-2.19824-2.11816-2.17285-4.43066-1.93848-8.334.21094-3.50391.44922-7.47461-2.08105-11.31738a26.261,26.261,0,0,0-2.89356-3.49121c-.68066-.7295-1.32324-1.417-1.8623-2.126a24.4813,24.4813,0,0,1-3.18945-7.19336c-.35645-1.08789-.72364-2.21289-1.13965-3.30469q-.627-1.64794-1.26563-3.291c-1.05957-2.74414-2.15625-5.58106-3.13183-8.38282-3.21289-9.23242-4.43555-16.7373-3.84766-23.624a50.03807,50.03807,0,0,0-6.40039-29.01269,51.35478,51.35478,0,0,1-5.73144-19.82227,44.73924,44.73924,0,0,0-10.53907-26.51123,34.12316,34.12316,0,0,1-7.88183-17.249l-.02344-.13624A124.06482,124.06482,0,0,0,738.29,244.771l-.05371-.11963a263.39177,263.39177,0,0,1-16.59082-45.67578c-1.05957-5.01368-3.17481-9.42383-11.23242-7.94434-4.71387.8667-8.43067-.15479-11.042-3.03662-1.60937-1.77588-2.52832-4.13086-3.50195-6.625-1.14648-2.936-2.332-5.97266-4.75976-8.52881-3.76954-3.96924-9.67676-5.915-14.88868-7.63184-1.02441-.3374-2.01269-.66308-2.93457-.99023l-1.39746-.49756c-5.71191-2.03857-12.18652-4.34912-18.45117-5.07373a17.89723,17.89723,0,0,1-7.77832-2.8374c-9.97461-6.59815-20.44824-4.7124-30.57617-2.89014-1.06934.19238-2.14356.38574-3.22168.57031a121.63952,121.63952,0,0,0-21.00781,5.46924c-8.59473,3.127-15.42383,2.39649-25.19434-2.6997a169.0183,169.0183,0,0,1-25.72461-16.20948c-9.63867-7.48047-22.33984-6.47265-33.54687-5.583-2.51563.1997-4.89161.38818-7.17481.48046-23.94922.96631-49.20215,1.13282-77.20019.50977-50.18213-1.11426-101.209-2.64893-150.55518-4.13281C200.38623,129.187,126.896,126.97705,54.59277,125.981c-6.73095-.09424-9.60547,2.47119-10.15918,9.15088q-3.55371,43.615-7.08545,87.229-3.30907,40.5249-6.5664,81.0542l-.39258,4.86914c-.812,10.06152-1.65186,20.46582-2.31787,30.72168-.35352,2.96777.20459,5.34375,1.65967,7.06055,2.25683,2.665,5.85644,3.02539,9.65869,3.18066,2.65723.10938,13.82422.71484,29.27978,1.55176,37.92286,2.05566,101.39356,5.49512,133.32422,6.71875,1.13037.043,2.16114.07422,3.10108.10254,2.8667.08593,5.83056.17578,6.37988.57617.44629.60059.521,3.78223.59326,6.85937.0249,1.03418.05127,2.17383.09131,3.43067.062,1.94238-.05713,3.90429-.18262,5.98144l-.06836,1.14356q-.77783,13.51172-1.56689,27.02344c-1.0791,18.541-2.19483,37.71386-3.24072,56.57617-.17823,3.21484-.17432,6.5498,1.95507,8.88867,2.042,2.24414,5.26416,2.66113,8.14649,2.77246,37.24951,1.44238,70.73828,1.499,106.19336,1.56055q9.42114.01464,18.936.04,33.60205.0996,67.16407.09961c125.01318,0,249.353-1.04,370.51318-3.10352,11.293-.19238,22.52734-.61035,33.38965-1.01563.05664-.002,5.68945-.37011,5.97168-4.0039A9.60114,9.60114,0,0,0,817.80762,458.377Zm-4.62989,4.08008c-10.835.4043-22.03808.82129-33.2705,1.01172-142.80371,2.43262-290.01563,3.44141-437.55811,3.00391q-9.52955-.02784-18.94336-.04c-35.39795-.06153-68.83252-.11817-105.97119-1.55664-2.99365-.11524-3.75391-.6084-3.94141-.81446-.40771-.44824-.543-1.96875-.40136-4.51855,1.04492-18.85449,2.16064-38.02246,3.23925-56.55957q.78663-13.51319,1.56739-27.02735l.06689-1.126c.12842-2.1211.26123-4.31543.19092-6.53418-.03955-1.23828-.06592-2.36231-.08984-3.38184-.27295-11.58691-1.58789-12.95312-12.791-13.291-.9248-.02832-1.93945-.0586-3.05225-.10157-31.8833-1.2207-95.32421-4.65918-133.22851-6.71386-15.479-.83887-26.6626-1.44434-29.35986-1.55469-1.4878-.06152-4.5835-.18848-5.32569-1.06445a3.72869,3.72869,0,0,1-.27246-2.53125l.0166-.17774c.66358-10.2373,1.50391-20.64648,2.31641-30.71289l.39258-4.87109q3.2578-40.5249,6.5664-81.04834,3.53175-43.615,7.085-87.22412c.26612-3.21436.55225-3.64746,3.5-3.64746.1875,0,.38672.00195.5962.00439,72.25439.99561,145.72021,3.20508,216.76757,5.3418,49.35791,1.48437,100.396,3.01953,150.60205,4.13476,28.12452.62549,53.49854.45655,77.57569-.51367,2.39941-.09668,4.832-.29,7.40722-.49463,10.61622-.84326,21.59082-1.71484,29.39258,4.34229a174.999,174.999,0,0,0,26.62891,16.78906c9.45117,4.92871,18.17187,7.32959,30.02051,3.01855a115.63994,115.63994,0,0,1,19.96875-5.19384c1.0957-.1875,2.18652-.38379,3.27343-.5791,9.78418-1.76075,18.23243-3.28077,26.20215,1.98876a23.923,23.923,0,0,0,10.39942,3.79346c5.583.646,11.45019,2.73975,17.124,4.76465l1.40625.501c.96289.34179,1.99512.68213,3.06445,1.03418,4.54,1.49609,9.68653,3.19091,12.416,6.06543,1.61719,1.70263,2.542,4.07129,3.52148,6.5791a26.20907,26.20907,0,0,0,4.64453,8.47168c3.98438,4.397,9.86817,6.13916,16.57227,4.90918,3.11231-.57227,3.48535-.5083,4.291,3.3457l.03418.145a269.48092,269.48092,0,0,0,16.96,46.73,117.92735,117.92735,0,0,1,6.94726,22.82568,40.10841,40.10841,0,0,0,9.24512,20.19483,38.76433,38.76433,0,0,1,9.11426,23.00586,57.38777,57.38777,0,0,0,6.42968,22.26367l.04981.09277a44.06294,44.06294,0,0,1,5.66016,25.58106c-.66211,7.75.66015,16.04394,4.16015,26.10156,1.00879,2.89746,2.123,5.78223,3.20117,8.57227q.6299,1.63036,1.25489,3.26367c.36523.959.69531,1.96777,1.04394,3.03515,1.001,3.05957,2.03613,6.22266,4.11621,8.96a33.62526,33.62526,0,0,0,2.25391,2.58985,21.46286,21.46286,0,0,1,2.26758,2.69531c1.43164,2.17481,1.27929,4.71582,1.10254,7.6582-.23438,3.90528-.52539,8.75489,3.6123,12.86524l4.43848,5.59961c5.00586,6.30957,10.18164,12.832,15.17676,19.31152a3.51256,3.51256,0,0,1,.334.68652Z" transform="translate(-27.96837 -125.97846)"/></svg>