<svg id="Layer_1" data-name="Layer 1" xmlns="http://www.w3.org/2000/svg" viewBox="0 0 537.84709 757.74755"><path d="M563.39746,245.65332c-1.00488-63.32031-2.04492-128.79639-2.36523-193.12207-.00293-.65723-.01172-1.42334-.08106-2.20117v-.00049a9.18205,9.18205,0,0,0-1.63183-4.75977c-2.72559-3.70214-7.70313-3.57177-10.10547-3.50683l-4.85645.1289C421.87012,45.44238,297.333,46.21387,176.897,46.96c-39.1333.24219-79.59863.49268-119.40674.82471-7.124.05957-9.93554,2.6831-10.37353,9.67578-1.2583,19.53076-2.48486,39.4292-3.64551,59.14209q-1.49268,25.35645-2.94385,50.71582c-1.65673,28.73877-3.36963,58.45654-5.16015,87.67285-2.24024,36.07471-4.6753,72.648-7.23731,108.7041A15.02153,15.02153,0,0,0,34.019,377.58008c7.26172,6.08935,14.45557,12.54394,21.41309,18.78711q2.5642,2.2998,5.13037,4.59668Q72.81519,411.915,85.03906,422.90039c14.23047,12.77051,28.94532,25.97656,43.50489,38.874,16.60986,14.71485,33.54589,29.61817,49.92382,44.03125,17.14991,15.0918,34.8833,30.69727,52.26709,46.10743,13.45362,11.92578,27.07325,24.125,40.24463,35.92187,20.39258,18.26465,41.47949,37.15137,62.45117,55.47656,41.043,35.86426,83.64258,74.60645,134.06055,121.92481,10.34082,9.71582,20.93457,19.43652,31.48633,28.89062.39062.35059.78613.73633,1.19043,1.12891,1.86816,1.81836,4.65918,4.53418,8.21875,4.53418a8.05409,8.05409,0,0,0,4.1748-1.248c4.81641-2.8789,3.73828-8.12011,3.09473-11.251-.11426-.55372-.22754-1.09961-.31348-1.62989q-2.33788-14.40966-4.63574-28.82617-2.937-18.33837-5.91406-36.67187c-1.28125-7.81836-2.81836-16.37012-4.83985-26.91407l-.06152-.25976a3.968,3.968,0,0,1,1.42285-4.24414c1.60157-1.33594,3.17285-2.72754,4.69336-4.07324,1.96-1.73633,3.98731-3.53223,6.03711-5.166l.31641-.29a5.53454,5.53454,0,0,1,7.085-.84375A20.407,20.407,0,0,0,535.252,681.3418a7.56268,7.56268,0,0,1,7.31739,3.05566,47.968,47.968,0,0,0,3.18652,3.92871c2.56836,2.84278,5.72754,3.99414,8.68262,3.16016,2.81152-.79492,4.87011-3.32031,5.50781-6.75586,2.041-10.98242,3.62988-39.76367,4.0625-55.75781C567.458,501.32129,565.39355,371.34766,563.39746,245.65332Zm-5.38672,383.15723c-.44336,16.42968-2.06836,44.62207-3.96289,54.82422-.20605,1.10742-.69336,1.92285-1.24219,2.07714-.49023.13868-1.46-.15039-2.59668-1.40625a42.05221,42.05221,0,0,1-2.77636-3.42187,13.60774,13.60774,0,0,0-13.26367-5.44434l-.166.03321a14.3929,14.3929,0,0,1-11.22852-2.09278,11.52852,11.52852,0,0,0-14.626,1.55957c-2.11524,1.69434-4.14942,3.4961-6.11914,5.24024-1.48731,1.31738-3.02442,2.67871-4.49121,3.90332a9.91331,9.91331,0,0,0-3.45508,10.415c2,10.43457,3.52148,18.90039,4.78808,26.63476q2.99708,18.31788,5.91114,36.65039,2.30859,14.42139,4.63867,28.83887c.09863.60938.22754,1.24023.3584,1.87793.70215,3.41406.64648,4.32812-.2959,4.8916-1.33985.79981-2.25.36817-5.13184-2.43555-.46386-.45214-.91992-.89355-1.36914-1.29687-10.51758-9.42285-21.07617-19.11133-31.38379-28.79688C421.126,713.49316,378.47656,674.70508,337.37793,638.794c-20.94336-18.30079-42.01611-37.17579-62.395-55.42774-13.17725-11.80273-26.80273-24.00683-40.26758-35.94336-17.39209-15.417-35.12988-31.02637-52.28369-46.12207-16.37451-14.40918-33.30664-29.30957-49.90918-44.01758-14.54492-12.88476-29.25244-26.084-43.47607-38.84863q-12.23511-10.98046-24.48584-21.94434-2.56349-2.291-5.1211-4.58935c-7.01611-6.29443-14.2705-12.80371-21.63183-18.97461L37.665,372.814a9.0179,9.0179,0,0,1-3.57471-8.42871l.01807-.18017c2.56592-36.10156,5.00439-72.72119,7.24756-108.84424,1.7915-29.23,3.50439-58.95313,5.16113-87.69727q1.46191-25.355,2.94336-50.70849c1.16016-19.70166,2.38623-39.58887,3.644-59.11426.23047-3.68066.36865-4.02246,4.43555-4.05615,39.80176-.332,80.26416-.58252,119.394-.8252,120.46631-.74609,245.03369-1.51758,367.58252-4.76953l4.85742-.1289c.2793-.00733.56641-.01221.85547-.01221,1.75781,0,3.59766.18066,4.25684,1.07666a3.52315,3.52315,0,0,1,.48828,1.73584c.04883.54541.05469,1.13769.05762,1.69873.32031,64.35937,1.36035,129.85205,2.36621,193.18848C559.39355,371.37939,561.457,501.28809,558.01074,628.81055Z" transform="translate(-28.01252 -42.04249)"/></svg>