<svg id="Layer_1" data-name="Layer 1" xmlns="http://www.w3.org/2000/svg" viewBox="0 0 402.86232 795.06125"><path d="M487.33691,630.80273a29.90491,29.90491,0,0,1-22.54-32.11035l.0166-.15918-.00391-.16015c-.30273-14.11231-9.33887-17.67383-18.16113-19.28028a265.12774,265.12774,0,0,1-31.3418-9.57617l-.36816-.10644a16.19612,16.19612,0,0,1-12.95313-16.83594l.00684-.123-.00586-.124a158.54414,158.54414,0,0,0-12.65137-55.457c-6.81836-19.94336-13.59668-40.27539-20.15332-59.93946-5.82129-17.46045-11.84082-35.51562-17.86816-53.23974-38.50782-113.34717-77.793-228.53369-116.76563-342.35938-.22119-.646-.43994-1.30273-.65967-1.96289-2.05322-6.168-4.38086-13.15918-10.15429-14.88672-4.09229-1.227-8.99854.48584-14.97364,5.20362-1.25048.63134-6.68017-1.45264-9.28808-2.45459-1.32373-.5083-2.57373-.98877-3.74219-1.38233-8.70947-2.93408-14.32129-3.20166-18.7666-.89648-4.10791,2.13086-6.90527,6.33008-9.09277,13.6958a337.64411,337.64411,0,0,0-7.42872,135.51123l.02979.16455a38.43656,38.43656,0,0,0,9.77344,18.40186,65.27861,65.27861,0,0,1,19.05761,40.01464,80.48358,80.48358,0,0,1,.03711,11.478,87.71371,87.71371,0,0,0,.01807,11.72168c.77148,8.644.7168,15.76856-2.05762,22.44385C184.02,286.27637,178.44971,290.71875,172,295.8623c-1.333,1.063-2.689,2.14454-4.05273,3.2793-4.88331,4.06152-8.91163,8.93408-12.80762,13.646a104.00948,104.00948,0,0,1-11.25488,12.22461c-11.61768,10.15283-23.145,17.86377-34.26221,22.91845-7.00537,3.18555-10.26758,5.98877-11.26123,9.67627-.87842,3.2583.20117,6.79493,3.499,11.45948a85.08421,85.08421,0,0,1,11.89893,52.11914l-.01221.12793.00049.12841c.33252,61.23194-5.42969,123.0962-11.00293,182.92334-1.97608,21.21289-4.019,43.14649-5.7627,64.75a48.46936,48.46936,0,0,0,4.14063,29.95606l.166.29a55.78072,55.78072,0,0,1,8.71973,39.14258l-.02441.24316c-.97119,19.36523-2.10791,36.63672-3.47364,52.80078-.85839,10.15527,1.30664,17.625,6.436,22.20117,3.5249,3.14551,8.23144,4.72364,14.04834,4.72364a41.29253,41.29253,0,0,0,8.08887-.8711c32.30957-6.43066,65.02783-13.24707,97.24658-20.26172,18.88916-4.1123,38.06445-8.416,56.60888-12.57812,28.0503-6.2959,57.05518-12.80567,85.66358-18.78613A55.489,55.489,0,0,0,416.249,738.18066l.08008-.15527A59.52449,59.52449,0,0,1,456.582,705.46387l.11035-.0293a57.76558,57.76558,0,0,0,41.957-53.47168C500.86816,637.73633,493.77441,632.61523,487.33691,630.80273Zm6.35059,20.52344-.0293.30567a52.7812,52.7812,0,0,1-38.28711,48.98046,64.50838,64.50838,0,0,0-43.52148,35.18946,50.46911,50.46911,0,0,1-37.94141,25.2207l-.2207.03613c-28.67871,5.99414-57.74023,12.51661-85.84375,18.82422-18.53613,4.16114-37.70361,8.46289-56.57715,12.57227-32.18945,7.00683-64.87842,13.81836-97.16308,20.24316-8.03174,1.61035-14.0293.71-17.82813-2.67969-3.83789-3.42382-5.4917-9.665-4.78271-18.04882,1.36767-16.18848,2.50586-33.47852,3.479-52.85254a60.7635,60.7635,0,0,0-9.42285-42.37793,43.50155,43.50155,0,0,1-3.62549-26.85156l.03223-.24708c1.74365-21.61328,3.78906-43.57421,5.76757-64.8125,5.58057-59.90722,11.35059-121.84863,11.02491-183.28613a90.11749,90.11749,0,0,0-12.66211-55.15088l-.09717-.147c-2.33008-3.28076-3.24609-5.68066-2.79981-7.33643.53614-1.98925,3.2378-4.03125,8.50293-6.42529,11.56055-5.25683,23.49854-13.23242,35.48291-23.70556a107.6944,107.6944,0,0,0,11.81788-12.80323c3.92285-4.74414,7.62744-9.22461,12.15185-12.98828,1.33692-1.1123,2.66651-2.17187,3.97266-3.21387,6.69873-5.34228,13.02636-10.38818,16.80029-19.46875,3.52051-8.4707,3.0957-17.24658,2.4209-24.80712a82.65514,82.65514,0,0,1-.00342-11.0586,85.54088,85.54088,0,0,0-.05566-12.1831A70.23244,70.23244,0,0,0,173.812,189.22266a33.38065,33.38065,0,0,1-8.436-15.876,332.59954,332.59954,0,0,1,7.30957-133.35352c1.72314-5.79882,3.81445-9.168,6.58007-10.60254,3.08106-1.59863,7.666-1.22949,14.86817,1.19629,1.06933.36036,2.272.82227,3.54492,1.31153,5.65186,2.17138,10.98975,4.22265,14.144,1.73584,4.5083-3.55567,8.13135-5.06494,10.47754-4.36231,3.28369.98242,5.1753,6.66358,6.84424,11.67627.22412.67334.44727,1.34326.67285,2.00293C268.78857,156.773,308.07324,271.95605,346.5791,385.30029c6.02344,17.71045,12.041,35.7583,17.85938,53.21143,6.56933,19.70215,13.36132,40.07519,20.19629,60.06445l.06738.17578a153.572,153.572,0,0,1,12.28418,53.67871,21.16146,21.16146,0,0,0,16.74121,21.833,270.15028,270.15028,0,0,0,31.82617,9.708l.13477.02832c10.17773,1.8418,13.88964,5.59668,14.11914,14.32617a34.89656,34.89656,0,0,0,26.25683,37.31055C490.22656,636.80957,495.54492,639.71191,493.6875,651.32617Z" transform="translate(-96.20227 -23.41141)"/></svg>