<svg id="Layer_1" data-name="Layer 1" xmlns="http://www.w3.org/2000/svg" viewBox="0 0 796.74638 557.14128"><path d="M818.10449,489.41406l-.001-.001c-.70118-1.71387-2.31446-3.27149-5.23047-5.04981a13.45223,13.45223,0,0,0-17.752,3.31348,117.66816,117.66816,0,0,1-38.53906,25.667c-6.98047,2.80176-13.91113,5.98242-20.61426,9.05762q-3.22559,1.47949-6.4541,2.94824l-.16113.08008c-5.38184,2.918-12.32422,1.43066-19.04-.00781-2.22559-.47657-4.32812-.92774-6.39062-1.22657-5.48536-.80078-9.125,1.91016-12.23243,4.95508-1.28222,1.25684-2.55078,2.53027-3.81933,3.80566a147.35221,147.35221,0,0,1-11.28321,10.56641c-.53711.43555-1.09277.90918-1.66308,1.39551-4.85156,4.13867-7.28028,5.541-9.76465,3.50488-2.03125-1.66308-1.50781-4.93164-.47754-9.72851.27246-1.26661.55274-2.57325.73438-3.82618a8.67333,8.67333,0,0,1,2.21289-3.55371c.18457-.19336.36035-.3955.5332-.61133a8.42274,8.42274,0,0,0-1.37793-11.81738,19.21555,19.21555,0,0,1-2.13184-2.13086c-.623-.6875-1.26855-1.39843-1.98632-2.05371a9.47941,9.47941,0,0,1-2.86914-3.5166c-.541-1.62891-.21583-3.02832,1.20019-5.16309a31.14,31.14,0,0,0,5.01855-20.248c-.09863-5.25977-.08105-10.62207-.06347-15.80762.01465-4.46875.03027-9.08789-.02832-13.58887a63.39434,63.39434,0,0,0-.99414-11.69629q-1.377-6.82909-2.74121-13.66113c-3.8086-19.03223-7.74707-38.71191-12.1836-57.97851a110.282,110.282,0,0,1-2.69824-34.07715c1.01074-12.61231,1.93359-25.34668,2.74219-37.84961a87.87681,87.87681,0,0,0-.02539-11.58643c-1.66406-24.40088-9.1416-47.63574-16.37305-70.10547-1.28613-3.99707-2.57324-7.99414-3.80273-11.91064a16.69573,16.69573,0,0,0-10.78809-11.437,88.19938,88.19938,0,0,1-9.9082-4.60889c-4.0918-2.12305-4.251-2.20605-3.166-7.45312l.03418-.21a8.40427,8.40427,0,0,1,.5127-2.05322,22.88145,22.88145,0,0,0-3.07129-23.60889q-2.07716-3.42333-4.13672-6.85791c-2.41992-4.02392-4.92188-8.18457-7.44141-12.24951l-.06933-.10547a13.92934,13.92934,0,0,1-1.73438-12.34082,43.54292,43.54292,0,0,0,3.78223-17.22412l.002-.15381-.0166-.15332a181.76254,181.76254,0,0,0-6.88086-33.31005c-1.80273-5.80665-4.11914-11.47168-6.35937-16.9502-1.61036-3.93848-3.2754-8.01123-4.71583-12.06055a130.194,130.194,0,0,1-4.29394-16.49121q-.39551-1.83765-.79785-3.67676a9.00886,9.00886,0,0,0-4.416-6.32373c-5.26465-2.88086-13.04492-.019-19.29785,2.27735-1.73242.63623-3.36914,1.23779-4.56152,1.55371-10.26172,2.71875-20.59961,5.57226-29.72071,8.08984-7.86621,2.1709-15.65918,2.42676-23.91015,2.69727-7.0957.23291-14.43164.47412-21.71289,2.0415a217.50773,217.50773,0,0,0-22.043,5.44727,91.4204,91.4204,0,0,0-47.01416,28.9834,349.8596,349.8596,0,0,0-42.89014,59.60644l-.05762.10645a49.44,49.44,0,0,1-13.44775,16.374,301.53271,301.53271,0,0,0-25.99023,23.93994,15.23944,15.23944,0,0,0,5.34668,25.76611,40.23286,40.23286,0,0,0,8.687,1.958c3.70068.5586,6.81543,1.10108,7.52637,2.0669.70849.96191.29394,4.20019-.16114,7.189a30.82135,30.82135,0,0,1-3.873,9.25684,10.655,10.655,0,0,0,.26611,11.99951c.7876,1.14307,1.59375,2.27393,2.40039,3.40478,1.58057,2.21583,3.21435,4.50635,4.63818,6.82374a16.9058,16.9058,0,0,1-.39453,15.80615,25.22182,25.22182,0,0,1-15.31543,7.70605,22.66726,22.66726,0,0,0-20.05615,12.44922,67.5901,67.5901,0,0,0-3.60547,5.9585,58.50928,58.50928,0,0,1-3.62207,5.92773c-3.26807,4.50586-7.76709,10.13623-13.59131,13.707-5.41943,3.32227-10.8208,3.71973-17.85986,3.91992-18.05274.51368-32.09326,4.57715-41.73145,12.07715a18.58165,18.58165,0,0,1-23.01367-.11914,25.72905,25.72905,0,0,0-19.0083-5.2041c-6.10254.71777-12.43994,1.06445-18.56885,1.39941-13.26513.72461-26.98193,1.47461-39.93847,5.98145-5.33985,1.85742-11.04786,3.51953-16.56787,5.126-11.72559,3.41406-23.85059,6.94433-34.4834,12.80761-5.8125,3.20508-7.38135,5.35547-5.22071,11.77246,1.10743,3.28907,2.3086,6.5918,3.47022,9.78614,1.02637,2.82324,2.08691,5.74023,3.07275,8.62012a9.66517,9.66517,0,0,0,9.228,7.71484,6.51411,6.51411,0,0,1,6.0249,4.64844l.07862.22363c1.10107,2.71191,2.35937,5.374,3.57666,7.94922,1.14941,2.43164,2.33789,4.94629,3.3623,7.44238l.13281.27539a6.645,6.645,0,0,1-2.40722,8.92676l-.12207.07617A46.07138,46.07138,0,0,0,77.21,425.10645c-5.2041,10.05273-12.9375,16.38183-22.94141,22.78417-3.33886,2.13672-5.2246,4.52149-7.4082,7.28223l-.46094.582c-3.55615,4.4795-9.42382,10.65039-17.18505,14.61524a13.64384,13.64384,0,0,0-7.30909,14.08008c.57129,4.49414.95362,9.11718,1.32325,13.58789.20117,2.42968.40234,4.85937.63281,7.28613a7.12161,7.12161,0,0,0,2.49365,5.18555c2.43311,1.90625,5.71729,1.418,8.61182.99023.64209-.09473,1.2832-.19043,1.90722-.25684,6.25684-.666,12.49561-1.40527,18.542-2.19726,12.35742-1.61719,24.50195-3.5293,36.09716-5.68457,7.02295-1.30469,14.11914-2.78711,20.98145-4.22168,11.79736-2.46582,23.99658-5.01563,36.10986-6.71289,17.314-2.42578,34.73487-5.92188,51.58252-9.30274,7.56787-1.51953,15.39307-3.08984,23.09619-4.54q15.77637-2.97069,31.55811-5.92089c16.81494-3.14844,34.20166-6.40528,51.2959-9.65332,9.44336-1.79395,19.03027-3.67383,28.30224-5.49219,8.793-1.72363,17.88575-3.50684,26.834-5.21192,5.53369-1.05468,11.18066-2.06152,16.6416-3.03515,7.67139-1.36817,15.60351-2.78223,23.38379-4.35645,19.6582-3.97558,39.58887-8.25976,58.86328-12.40234l2.94629-.63281.17773-.04493a8.85581,8.85581,0,0,1,9.00391,2.56446A48.52045,48.52045,0,0,0,496.52832,447.833a13.87679,13.87679,0,0,1,10.02051,9.22363l.043.124a91.7507,91.7507,0,0,0,9.207,17.94141c6.49414,9.49414,14.0039,18.666,27.86426,17.62109a18.96431,18.96431,0,0,1,11.49316,3.92872,73.46211,73.46211,0,0,0,17.88184,9.59765l.18261.05957c11.48535,3.27246,23.26758,6.13867,34.66211,8.91113,6.52246,1.58692,13.2666,3.22754,19.86914,4.92383,4.99414,1.28125,10.01465,3.01074,14.87012,4.6836l2.28125.78222a6.88571,6.88571,0,0,1,4.68848,8.11719l-.05469.34766c-.583,6.6875-.87891,12.72754-.90527,18.46484-.01954,4.2207.30664,8.46387.62109,12.56738q.10547,1.377.208,2.75489a8.05325,8.05325,0,0,0,.09277,1.37988,8.15593,8.15593,0,0,0,8.04395,6.91016,8.3,8.3,0,0,0,1.10449-.07618,100.36481,100.36481,0,0,0,18.38965-2.70215c16.48047-4.57617,31.01855-9.00488,44.44531-13.53808a87.06476,87.06476,0,0,0,19.41211-9.36914c16.80078-10.98242,33.62988-22.38379,50.02344-33.88965a101.90973,101.90973,0,0,0,20.54-16.12793c.83105-.8457,1.665-1.60254,2.47168-2.335C816.73926,495.63184,819.58887,493.04492,818.10449,489.41406Zm-4.61426,1.91016c-.07617.57422-1.75585,2.09863-2.86718,3.10742-.81836.74316-1.7461,1.58594-2.67676,2.5332A96.95773,96.95773,0,0,1,788.335,512.34766l-.15918.10351c-16.37207,11.49219-33.18164,22.88086-49.95215,33.84278a81.98651,81.98651,0,0,1-18.28515,8.82421c-13.33985,4.50391-27.793,8.90625-44.10547,13.43653a95.26156,95.26156,0,0,1-17.50391,2.55371l-.25.02637a3.14727,3.14727,0,0,1-3.584-2.63086,3.22751,3.22751,0,0,1-.03418-.59082l.00488-.13477-.00977-.13574q-.104-1.44873-.21777-2.89844c-.30762-4.00391-.625-8.14355-.60644-12.16113.02539-5.55176.31054-11.40625.87207-17.88965a11.87819,11.87819,0,0,0-8.06348-13.82031l-2.19043-.75293c-4.94922-1.70508-10.06641-3.46778-15.25391-4.79883-6.63379-1.70508-13.39355-3.34863-19.93066-4.93945-11.31836-2.75293-23.01953-5.59961-34.38281-8.835a68.35911,68.35911,0,0,1-16.52832-8.877,24.17194,24.17194,0,0,0-14.59864-4.92676l-.1875.00782c-11.29394.89355-17.29785-6.46973-23.41992-15.419a86.601,86.601,0,0,1-8.66015-16.87109,18.91556,18.91556,0,0,0-13.65528-12.50489,43.48963,43.48963,0,0,1-21.71289-11.99511,13.86069,13.86069,0,0,0-13.94824-3.95215l-2.86035.61426c-19.25977,4.14062-39.17529,8.4209-58.80371,12.39062-7.72364,1.56153-15.627,2.97168-23.27051,4.334-5.4751.97656-11.13672,1.98632-16.69971,3.04589-8.96142,1.708-18.06054,3.49219-26.85986,5.21778-9.26465,1.8164-18.84473,3.69531-28.27393,5.48633-17.0874,3.24707-34.47119,6.50293-51.28271,9.65039q-15.783,2.95605-31.563,5.92187c-7.73242,1.45606-15.57275,3.03028-23.15479,4.55176-16.77636,3.36719-34.124,6.84863-51.292,9.25391-12.27929,1.71972-24.56152,4.28711-36.43945,6.76953-6.83545,1.42871-13.90332,2.90625-20.87158,4.20019-11.5083,2.13867-23.564,4.03711-35.833,5.64356-6.00684.78613-12.20508,1.52051-18.42236,2.18164-.68994.07422-1.40039.17871-2.11035.2832-1.80665.26758-4.05469.60156-4.79639.01953a2.62035,2.62035,0,0,1-.59912-1.72265c-.22852-2.40625-.42774-4.81543-.62744-7.22461-.374-4.52442-.76123-9.20313-1.352-13.84961a8.6581,8.6581,0,0,1,4.62988-8.95313c8.55957-4.373,14.9624-11.09277,18.82617-15.959l.46631-.58985c1.9834-2.50683,3.5498-4.4873,6.18213-6.17285,9.26855-5.93164,18.68017-13.04,24.7334-24.78711l.08056-.17285a41.07876,41.07876,0,0,1,14.95606-18.14648,11.67463,11.67463,0,0,0,4.24023-15.501c-1.06006-2.57129-2.25586-5.10059-3.4126-7.54883-1.17236-2.47851-2.38379-5.041-3.42285-7.58984a11.5149,11.5149,0,0,0-10.62158-8.0918,4.69944,4.69944,0,0,1-4.51025-3.84082L78.917,366.085c-1.0166-2.97656-2.105-5.9707-3.1582-8.86719-1.15137-3.166-2.3418-6.44043-3.43067-9.67285-1.19287-3.543-1.19287-3.543,2.897-5.79785,10.14746-5.59668,22.00244-9.04785,33.46631-12.38574,5.581-1.625,11.352-3.30469,16.813-5.2041,12.29053-4.27539,25.64991-5.00586,38.56885-5.71192,6.20557-.33886,12.62256-.69043,18.896-1.42871a20.77534,20.77534,0,0,1,15.32812,4.17969,23.56063,23.56063,0,0,0,29.16407.126c8.78125-6.832,21.83642-10.542,38.80322-11.02442,7.56689-.21484,13.86865-.69433,20.33105-4.65527,6.57715-4.03223,11.48487-10.15235,15.06836-15.09326a63.124,63.124,0,0,0,3.897-6.36621,61.19109,61.19109,0,0,1,3.42724-5.65772l.2002-.3335a17.69482,17.69482,0,0,1,15.83642-9.85546l.27295-.01612a30.225,30.225,0,0,0,18.73682-9.498l.1875-.20313.13916-.23975a21.89212,21.89212,0,0,0,.62793-20.89062l-.10059-.18164c-1.52929-2.49951-3.2373-4.89356-4.88867-7.20947-.79053-1.1084-1.58154-2.2168-2.39014-3.38916a5.66595,5.66595,0,0,1-.13672-6.41553,35.86464,35.86464,0,0,0,4.55323-10.90625l.03711-.19336c.76464-5.00342,1.126-8.47315-.74073-11.00732-1.90527-2.58692-5.36621-3.22559-10.856-4.05323l-.09961-.01269a35.3258,35.3258,0,0,1-7.67481-1.72754,10.23941,10.23941,0,0,1-3.55761-17.36328l.13769-.13233A296.311,296.311,0,0,1,344.855,151.32129a54.42092,54.42092,0,0,0,14.75-17.95606,344.96724,344.96724,0,0,1,42.27393-58.73144A86.478,86.478,0,0,1,446.416,47.18408l.11621-.03222a212.90262,212.90262,0,0,1,21.6455-5.3501c6.89551-1.48389,14.00391-1.71729,20.87891-1.94287,8.17969-.26856,16.6377-.54639,25.07617-2.87549,9.10938-2.51416,19.4336-5.36377,29.67188-8.07617,1.417-.37549,3.08008-.98633,5.00488-1.69336,4.74023-1.7417,11.90332-4.37354,15.17383-2.58448a4.01979,4.01979,0,0,1,1.93262,3.01709q.4043,1.82447.792,3.64795a136.113,136.113,0,0,0,4.47168,17.11621c1.47851,4.1587,3.167,8.28565,4.79883,12.27735,2.19921,5.37939,4.47363,10.9414,6.21,16.53174a176.80806,176.80806,0,0,1,6.6709,32.229,38.56973,38.56973,0,0,1-3.39063,15.19971l-.08105.20508a18.94416,18.94416,0,0,0,2.27734,16.86523c2.49121,4.02051,4.97363,8.14844,7.374,12.14063q2.11232,3.512,4.23438,7.01806l.19531.27686a17.90571,17.90571,0,0,1,2.4707,18.61865l-.03906.09326a13.396,13.396,0,0,0-.832,3.2334c-1.47559,7.20312-.38086,9.60791,5.73926,12.78271a92.94207,92.94207,0,0,0,10.48926,4.87159l.11914.04345a11.75144,11.75144,0,0,1,7.63476,8.12159c1.25977,4.01709,2.54981,8.02636,3.83984,12.03564,7.13965,22.18359,14.52247,45.12207,16.14454,68.91406a82.88331,82.88331,0,0,1,.02343,10.92432c-.80664,12.47656-1.72754,25.18457-2.73632,37.7793a115.23341,115.23341,0,0,0,2.81445,35.61035c4.416,19.17676,8.34766,38.82129,12.14941,57.81836.91211,4.55664,1.82325,9.11328,2.73242,13.61425a58.40393,58.40393,0,0,1,.90528,10.77344c.05859,4.5127.043,9.11231.02832,13.55957-.01758,5.248-.03613,10.67481.06543,16.02344l.01367.209a26.12546,26.12546,0,0,1-4.20117,17.07813c-1.53028,2.30762-3.11524,5.47168-1.77832,9.501a13.68768,13.68768,0,0,0,4.24414,5.63476c.543.49512,1.082,1.08985,1.65234,1.71875a23.091,23.091,0,0,0,2.7334,2.69336,3.41505,3.41505,0,0,1,.56445,4.78711c-.07129.09082-.14843.17773-.17187.20508a13.5738,13.5738,0,0,0-3.501,5.80859l-.08105.375c-.1543,1.12793-.41895,2.3584-.69922,3.66113-1.0459,4.86817-2.34766,10.92676,2.19824,14.64844,6.11914,5.00977,12.17188-.15332,16.17774-3.56933.53808-.459,1.06054-.90528,1.5664-1.31641a150.82412,150.82412,0,0,0,11.67774-10.92285c1.25488-1.25977,2.50879-2.52051,3.77636-3.7627,2.66895-2.61621,4.83692-4.04492,8.01465-3.57715,1.89649.27442,3.91895.708,6.06055,1.168,7.2207,1.54786,15.39941,3.29981,22.38965-.44238q3.20361-1.45165,6.39843-2.92285c6.64844-3.05078,13.52442-6.20508,20.41211-8.9707a122.64657,122.64657,0,0,0,40.31446-26.88672l.23632-.27344a8.47739,8.47739,0,0,1,11.25489-2.18359c2.61035,1.59277,3.11328,2.45019,3.20605,2.67578l2.31348-.94727Z" transform="translate(-21.76522 -19.03059)"/></svg>