<svg id="Layer_1" data-name="Layer 1" xmlns="http://www.w3.org/2000/svg" viewBox="0 0 377.9172 809.16406"><path d="M478.88672,460.87012a50.55435,50.55435,0,0,1-3.18164-24.53614l.02246-.18652-.00586-.18848c-.333-10.64746-.26074-21.50976-.19141-32.01464.03028-4.48633.05957-8.97315.05957-13.459l-.0332-1.92139q.01318-1.40551.03711-2.812c.0498-3.43847.10254-6.99365-.09082-10.522a409.20062,409.20062,0,0,0-4.11914-56.793l-.01953-.11719c-1.96289-10.2124-8.40332-28.88037-20.09473-34.07177-7.916-3.51367-19.00976-.5459-27.10937,1.623-.72852.19483-1.42774.38233-2.09082.55518a58.91949,58.91949,0,0,1-42.34961-4.86328,9.6131,9.6131,0,0,1-2.54981-15.27246,201.98873,201.98873,0,0,1,30.76856-26.92285,41.274,41.274,0,0,0,19.2705-47.96387,121.74342,121.74342,0,0,1-2.55371-51.29785c5.51758-24.584,7.0293-38.91846.00879-49.01075C417.71973,81.11377,402.59082,76.15039,378.5,69.1626a63.13775,63.13775,0,0,0-7.95215-1.58936,61.98843,61.98843,0,0,1-6.96973-1.34912c-16.31445-4.49316-33.10351-8.0293-49.33984-11.44873-14-2.94824-28.47558-5.99707-42.53418-9.63818a308.197,308.197,0,0,1-44.29492-14.69483,138.78,138.78,0,0,1-17.94385-8.90576c-4.95654-3.04248-12.44482-7.6416-19.50683-4.86963-3.915,1.5376-7.73877,5.58789-11.11231,9.16113-1.12988,1.19678-2.19726,2.32764-3.12305,3.20118-7.46093,7.0415-17.17968,18.23242-15.4458,34.03906a68.0626,68.0626,0,0,1-17.98584,53.63769l-.08154.0918c-13.77637,16.26856-23.67773,34.3584-3.021,56.37549,9.064,9.66113,6.87452,23.88477,4.75684,37.63965-.40674,2.64013-.82666,5.3706-1.14844,7.98242-.91406,7.42236-6.86328,10.15332-13.75195,13.31494a69.71133,69.71133,0,0,0-7.06885,3.57471c-12.80566,7.76611-7.28564,24.83691-3.25488,37.30176.6709,2.07324,1.3042,4.03125,1.80371,5.79,3.2915,11.5874,15.13525,11.71435,20.82715,11.77539l.09766.001.09765-.00683a34.65345,34.65345,0,0,1,36.876,30.88037l.0376.23681a36.8065,36.8065,0,0,0,18.78906,25.07032c8.355,4.98877,16.75439,10.26172,24.87793,15.36132,15.04248,9.44336,30.59765,19.20752,46.57812,27.61963,10.62647,5.59278,16.8916,12.50293,18.11866,19.9834,1.231,7.50293-2.38575,15.75781-10.74854,24.53614l-.08008.08886a66.52258,66.52258,0,0,1-10.66748,9.8916,248.95686,248.95686,0,0,0-76.19433,89.46l-.05225.11036a68.68294,68.68294,0,0,1-48.8501,39.3623,26.45886,26.45886,0,0,0-22.4082,21.91895,124.56225,124.56225,0,0,1-6.16455,21.40625A42.83771,42.83771,0,0,0,117.603,658.208,163.27855,163.27855,0,0,0,186.918,716.666c6.62695,2.957,13.27783,6.21777,19.70947,9.37207,5.58936,2.74023,11.36963,5.57519,17.13916,8.21289,13.939,6.373,32.49707,14.27734,52.44678,18.86523a160.858,160.858,0,0,0,28.12549,3.97852c2.0957.10058,4.32812.00683,6.48828-.083,5.79687-.24512,11.78515-.49707,15.76562,2.93555,2.96875,2.5625,4.13868,5.792,4.03516,11.14453a105.40379,105.40379,0,0,1-1.61231,14.37207c-.57128,3.61718-1.16113,7.35742-1.46874,11.09961-.08008.53515-.18165,1.16894-.2959,1.87793-1.76563,10.96191-3.06348,21.96093,2.01562,25.5a5.6962,5.6962,0,0,0,3.333,1.03515,10.48977,10.48977,0,0,0,5.05469-1.56543c5.62011-3.167,13.23535-9.82324,16.28711-15.50195a53.102,53.102,0,0,0,7.09375-22.335,168.87634,168.87634,0,0,1,39.72265-98.21l.07617-.09473a448.69067,448.69067,0,0,0,79.7334-166.37109A68.97889,68.97889,0,0,0,478.88672,460.87012Zm-2.97266,58.18554-.14844.43067a443.69728,443.69728,0,0,1-78.86718,164.69824A173.80945,173.80945,0,0,0,356.0498,785.19434a48.02612,48.02612,0,0,1-6.44238,20.22168l-.05273.09277c-2.48926,4.667-9.43262,10.77246-14.35547,13.54687-1.43164.8086-2.61035,1.10743-3.07422.78418-1.335-.93066-2.4082-5.26074.0625-20.60351.123-.76758.23242-1.44824.31738-2.01758l.01953-.167c.28907-3.58106.86914-7.25586,1.42969-10.8086a110.59249,110.59249,0,0,0,1.67285-15.05371c.08887-4.60254-.48633-10.46972-5.76855-15.02734-4.16895-3.59766-9.40137-4.27832-14.50781-4.27832-1.60254,0-3.19336.06738-4.73438.13183-2.14258.0918-4.166.17481-6.03418.085a155.82542,155.82542,0,0,1-27.24756-3.85743c-19.51074-4.48632-37.76513-12.26464-51.48877-18.53906-5.708-2.61035-11.457-5.42969-17.01709-8.15527-6.47168-3.17383-13.16357-6.45508-19.87353-9.44922A158.27531,158.27531,0,0,1,121.7124,655.3584l-.105-.14649a37.82144,37.82144,0,0,1-5.2915-36.918,129.718,129.718,0,0,0,6.42969-22.34668,21.50178,21.50178,0,0,1,18.26757-17.86036l.15039-.02636a73.69766,73.69766,0,0,0,52.46436-42.19043,243.96784,243.96784,0,0,1,74.65381-87.6211,71.49949,71.49949,0,0,0,11.45605-10.60937c9.47266-9.958,13.51758-19.63135,12.02149-28.751-1.49073-9.08691-8.65674-17.24756-20.72364-23.59863-15.8125-8.32324-31.28515-18.03613-46.24853-27.42969-8.16455-5.125-16.60693-10.4248-25.02783-15.45166l-.10987-.062a31.81877,31.81877,0,0,1-16.26855-21.5874,39.64859,39.64859,0,0,0-42.06982-35.208c-8.68409-.10254-14.084-1.479-15.97608-8.14063-.52392-1.84521-1.1709-3.84521-1.85547-5.9624-3.71338-11.48242-8.33447-25.77246,1.08985-31.48779a65.01747,65.01747,0,0,1,6.562-3.30566c7.20605-3.30762,15.37353-7.05665,16.6289-17.24854.312-2.53711.708-5.10889,1.12745-7.83252,2.19238-14.24219,4.67773-30.38477-6.05225-41.82129-17.01709-18.13818-11.4165-32.46,3.15088-49.67676A73.06684,73.06684,0,0,0,165.249,62.53418c-1.15136-10.49414,3.1377-19.70557,13.90577-29.86865,1.03125-.97266,2.14648-2.1543,3.32714-3.40528,2.86475-3.03418,6.42969-6.81054,9.30371-7.93945,4.74463-1.86182,10.95313,1.95313,15.06348,4.47656a143.21706,143.21706,0,0,0,18.59033,9.24073,313.01518,313.01518,0,0,0,45.01075,14.939c14.16992,3.67041,28.70312,6.731,42.75683,9.69092,16.16309,3.4043,32.877,6.92383,49.043,11.37646a66.71045,66.71045,0,0,0,7.53125,1.46973,58.586,58.586,0,0,1,7.32617,1.45068c23.03223,6.68067,37.4502,11.35987,43.45215,19.98584,4.57715,6.57911,5.80566,15.72071-.79883,45.13233l-.02832.14453a126.799,126.799,0,0,0,2.67285,53.55957,36.28283,36.28283,0,0,1-17.01269,42.27539l-.23438.14746A206.85327,206.85327,0,0,0,373.541,262.85205a14.61205,14.61205,0,0,0,3.88867,23.15576,63.88607,63.88607,0,0,0,45.90136,5.25635c.67286-.17529,1.38184-.36523,2.12207-.56348,6.96387-1.86328,17.48438-4.68066,23.78711-1.88232,9.09668,4.03906,15.26465,20.36133,17.20313,30.38721a404.25354,404.25354,0,0,1,4.05957,56.102l.00391.1333c.18847,3.37451.13671,6.86328.08691,10.2373-.02344,1.603-.04687,3.20557-.04687,4.80713l.04,2.35059q-.01171,5.5371-.05664,11.07519c-.06933,10.49024-.14062,21.33594.1875,32.01758a55.57155,55.57155,0,0,0,3.56836,26.9043l.10157.22363A64.01123,64.01123,0,0,1,475.91406,519.05566Z" transform="translate(-108.71193 -15.8125)"/></svg>