<svg id="Layer_1" data-name="Layer 1" xmlns="http://www.w3.org/2000/svg" viewBox="0 0 552.70164 599.40832"><path d="M574.14258,619.50781c-.84473-32.73926-2.27149-65.46582-3.4209-90.32031-1.07617-23.29883-2.31543-46.917-3.68359-70.19629-.5127-8.71289-1.15625-17.55566-1.77832-26.10644-.626-8.60352-1.27247-17.5-1.78516-26.248-.90625-15.46192-1.74414-31.19092-2.55469-46.40186-.70605-13.25732-1.43652-26.96631-2.209-40.44873-.52832-9.209-1.14356-18.562-1.73926-27.60742-.70117-10.6582-1.42578-21.67871-2.01172-32.51758-1.34375-24.894-2.499-50.22119-3.61621-74.71386l-.23535-5.09082c-.10059-1.95557-.20508-3.97754.57519-5.34864a9.57394,9.57394,0,0,1,1.32325-1.749,9.5922,9.5922,0,0,0,2.501-4.458c1.19141-4.62793.291-9.82666-.5039-14.41406-.27149-1.56641-.52832-3.0459-.69434-4.43408l-2.35742-19.65332c-.24121-2.0083-.69043-5.74659-3.73242-7.62989-2.03418-1.2583-4.3877-1.09277-5.97657-.98047l-1.4248.11866c-20.61426,1.71777-41.93066,3.49414-62.98731,4.80517-74.48437,4.63819-150.07324,8.1919-224.67041,10.564-30.08447.979-60.7163,1.30029-90.33935,1.61133-40.98047.43017-83.35645.875-124.97656,3.06591-2.3711.125-7.30567.38477-9.72119,4.0962-1.377,2.11572-1.40088,4.58349-1.41895,6.38525q-.22266,22.73072-.52588,45.46-.14209,11.15845-.272,22.31689c-.65528,56.39112-1.08692,112.583-1.47315,165.3042C23.73584,480.001,21.69189,697.543,21.4541,713.43262a7.02448,7.02448,0,0,0,2.82861,6.12793,6.78,6.78,0,0,0,3.81641.96093c.231,0,.44776-.00488.64746-.00976l59.54151-1.416c1.48974-.03418,3.98339-.09277,5.7915-1.84961,1.87451-1.82226,1.9458-4.40429,1.98828-5.94726q.07543-2.7334.16309-5.46778c.23193-7.51367.47168-15.2832.28418-22.96386-.11768-4.79785-.21924-8.94141.812-9.9668,1.06152-1.05469,5.60449-.91894,9.99463-.78613,31.24658.93652,63.13574.88769,93.97705.84375q15.54492-.022,31.0664-.01074h.08155c10.11816,0,13.25683-3.97266,14.10644-7.31055.8877-3.48926-.70117-6.55469-2.103-9.25879-.2461-.47461-.49122-.94629-.71778-1.41406-.96435-1.99512-1.21826-4.66895-.03808-5.31543a5.73934,5.73934,0,0,1,2.14111-.33985c45.45068-2.05273,89.98584-4.09961,135.12744-6.57226,50.958-2.792,118.19922-7.04688,186.43066-15.24024a7.95279,7.95279,0,0,0,5.07325-2.05859C574.24609,623.56055,574.17871,620.9248,574.14258,619.50781Zm-5.30469,2.48926a4.74419,4.74419,0,0,1-2.03906.53418c-68.08985,8.17676-135.22754,12.4248-186.10938,15.21289-45.11914,2.4707-89.6416,4.51758-135.0791,6.57031a9.57166,9.57166,0,0,0-4.32226.9502c-4.04688,2.21973-4.09766,7.6543-2.05664,11.875.24609.50976.51171,1.02344.77978,1.54,1.08789,2.09765,2.11475,4.0791,1.69629,5.72461-.78809,3.09765-6.15625,3.56445-9.332,3.543q-15.52955-.02931-31.084.01074c-30.80078.04492-62.65088.09277-93.81933-.8418-7.28272-.21582-11.19873-.21875-13.6709,2.23926-2.55664,2.542-2.4541,6.7168-2.28467,13.63476.18408,7.541-.05322,15.24122-.2832,22.68653q-.085,2.74218-.16358,5.4834c-.01855.68066-.05761,2.09472-.47461,2.5a4.85771,4.85771,0,0,1-2.42529.4375l-59.5415,1.416a4.5031,4.5031,0,0,1-1.606-.13574,2.43391,2.43391,0,0,1-.56934-1.87109c.23829-15.89258,2.28272-233.46192,2.98047-328.55372.38575-52.71582.81739-108.90136,1.47315-165.28222q.13036-11.15625.272-22.312c.17285-13.58936.37061-29.61963.52588-45.47461a7.33466,7.33466,0,0,1,.60937-3.70655c.90625-1.39209,3.437-1.70654,5.79346-1.83056,41.51514-2.18555,83.8374-2.62988,124.76612-3.05957,29.65039-.311,60.31054-.63281,90.44775-1.61377,74.64551-2.37305,150.28613-5.92969,224.82031-10.5708,21.10938-1.314,42.45215-3.09278,63.0918-4.8125l1.39355-.1167c.39844-.02783.85743-.06006,1.30664-.06006a3.36426,3.36426,0,0,1,1.65528.30713c.87695.54346,1.19922,2.314,1.39843,3.97412l2.35743,19.65332c.18261,1.51709.44922,3.05957.73242,4.69189.74316,4.29053,1.51172,8.72754.58887,12.314a4.82035,4.82035,0,0,1-1.38965,2.376,14.34932,14.34932,0,0,0-1.9375,2.603c-1.50391,2.64307-1.34864,5.65821-1.22364,8.08057l.2334,5.061c1.11817,24.50342,2.27344,49.84082,3.61914,74.75586.58692,10.86817,1.3125,21.90381,2.01563,32.57618.59375,9.03515,1.209,18.37744,1.73535,27.56543.77246,13.47216,1.50195,27.17627,2.208,40.42871.81054,15.21728,1.64941,30.95312,2.55566,46.42822.51563,8.7832,1.16406,17.69775,1.791,26.31787.62011,8.53418,1.26269,17.35938,1.77246,26.03711,1.36719,23.25879,2.60547,46.85547,3.68164,70.13379,1.14746,24.83105,2.57324,57.52539,3.417,90.21777C569.15918,620.22949,569.19531,621.62012,568.83789,621.99707Z" transform="translate(-21.453 -121.11316)"/></svg>