<svg id="Layer_1" data-name="Layer 1" xmlns="http://www.w3.org/2000/svg" viewBox="0 0 821.03662 299.59745"><path d="M830.90039,219.06885c-.59668-1.29-1.28809-2.46533-1.957-3.603-.457-.77734-.88867-1.51123-1.28613-2.26953-.24024-.4585-.47266-.92139-.70508-1.38428a31.5383,31.5383,0,0,0-2.708-4.6831c-.63867-.86768-1.32031-1.70606-1.98047-2.51661a33.32481,33.32481,0,0,1-3.07812-4.19873,76.98733,76.98733,0,0,1-5.97266-12.89746L800.376,152.10254a6.54157,6.54157,0,0,0-2.10743-3.24219,6.6579,6.6579,0,0,0-4.76562-.95019c-59.65234,5.57226-118.30957,9.3833-179.3252,11.6499-62.6748,2.32764-126.26171,3.13818-188.998,2.40674-47.83789-.55762-97.93506-2.22022-148.90088-4.9419-3.97363-.21191-8.91748-.47656-13.31006,1.46924-6.03125,2.67139-6.81982,7.65332-7.51514,12.04932a22.12982,22.12982,0,0,1-1.398,5.66064c-2.13232,4.73145-5.5791,8.01172-11.8955,11.32227a33.44469,33.44469,0,0,0-10.60791,8.72509,36.90186,36.90186,0,0,0-3.7085,5.07081c-1.64941,2.54736-3.20752,4.9541-5.06348,5.73632-2.25439.94922-5.77685.21582-9.1831-.49511-1.49805-.312-3.04737-.63526-4.4624-.81983a14.07057,14.07057,0,0,0-12.94434,4.63867l-1.81592,1.99414c-2.53955,2.79-5.165,5.67481-7.7959,8.44825l-.104.1167a3.39874,3.39874,0,0,1-3.72363,1.01806c-1.40186-.49756-2.90088-1.11279-4.48731-1.76465a53.38606,53.38606,0,0,0-10.41846-3.48437c-5.25146-.93408-11.38232,3.91943-15.44189,7.12842-.40625.32129-.78613.62158-1.13428.89062-5.58886,4.32373-9.07519,9.49854-10.3623,15.38184a5.99248,5.99248,0,0,1-4.72363,4.18555l-.31055.07275c-1.38818.42236-2.76026.8999-4.0874,1.3623-2.0459.71192-3.97754,1.38428-5.959,1.86914a76.675,76.675,0,0,0-24.502,10.8252,51.39263,51.39263,0,0,1-24.13428,8.94678l-.12305.01562a74.91684,74.91684,0,0,0-18.49414,5.31445,25.254,25.254,0,0,0-18.50732,19.59473c-.55859,2.71338-1.95361,5.71826-7.92822,4.82813a23.004,23.004,0,0,0-5.21289-.00782,16.15037,16.15037,0,0,0-15.064,12.35938c-1.5459,5.124-2.09424,8.6084-.35058,11.23144,1.77294,2.667,5.25293,3.51465,10.6289,4.07227a497.90229,497.90229,0,0,0,76.13721,3.11914,160.55857,160.55857,0,0,0,35.84131-3.29l.16748-.041c6.29053-1.7627,12.75488-3.39454,19.00635-4.97266,11.13476-2.81152,22.64892-5.71777,33.78466-9.51758a79.5976,79.5976,0,0,1,31.34082-4.90918c3.22217.15235,6.52442.25781,9.71827.36035,7.27587.2334,14.79931.47559,21.98974,1.27344,12.32715,1.36817,24.84961,2.92871,36.96045,4.43652,12.62451,1.57325,25.6792,3.19922,38.49365,4.60645a24.44619,24.44619,0,0,1,19.01563,13.93652l.09033.17383a30.52782,30.52782,0,0,1,2.89014,7.002c.69238,3.68653,3.32422,8.05079,11.86572,8.20313,16.25635.29,32.145.81152,49.7417,1.41406,1.72363.0586,3.45605.10449,5.19336.15039,12.54931.335,25.5249.68067,36.86963,6.08106,7.08789,3.375,13.416,8.47656,19.53613,13.40918l1.1084.89258c3.70215,2.98046,7.584,5.77441,11.33789,8.47753,2.99121,2.15332,6.084,4.37989,9.03516,6.666,9.25781,7.1709,19.10351,14.92773,28.38281,23.06543,5.28613,4.63574,10.37793,9.73633,15.30176,14.66894,2.22753,2.23145,4.45507,4.4629,6.71,6.66407l.09863.09179a164.9307,164.9307,0,0,1,14.76953,14.68555c3.167,4.59375,7.06836,6.00391,11.06152,6.00391,3.49414,0,7.05957-1.08008,10.25977-2.05078,1.64258-.49707,3.19336-.9668,4.69434-1.30372a68.60146,68.60146,0,0,1,26.98828-.5791l.24316.044a12.31531,12.31531,0,0,0,5.19531.167c3.07715-.72266,5.52442-3.25879,7.07618-7.33594,2.34082-6.14648,5.33593-12.24023,8.23144-18.13476,1.293-2.63184,2.63086-5.35352,3.90137-8.0625a38.19937,38.19937,0,0,1,7.59277-10.85449l.07129-.07422a126.02937,126.02937,0,0,1,29.80957-23.87989,206.90243,206.90243,0,0,1,24.76367-13.11035,122.72176,122.72176,0,0,1,26.03223-7.61328c3.83887-.67285,8.36035-1.42285,12.793-1.88086a21.68251,21.68251,0,0,1,10.88379,1.67481l.57129.25488A10.40474,10.40474,0,0,0,753.001,355.957c3.12011-.29883,5.03515-2.60254,6.43359-4.28515.22461-.27051.44531-.53711.668-.791,1.66211-1.89356,3.41016-3.79,5.10058-5.625l.89454-.97168c.72461-.78711,1.50293-1.5332,2.32617-2.32324.67871-.65039,1.35742-1.30176,2.00976-1.97852.15723-.16308.333-.32812.51172-.499,1.09571-1.04,4.00586-3.80176,1.56348-7.09473a6.08757,6.08757,0,0,0-4.31055-2.083,6.72539,6.72539,0,0,1-.93554-.18066,4.19668,4.19668,0,0,1-2.10938-1.92383,10.58917,10.58917,0,0,0-5.333-4.78125l-.22949-.08105c-9.94727-2.94532-19.71875-.47168-28.85254,2.66406a60.23068,60.23068,0,0,1-9.92871,2.752,11.64041,11.64041,0,0,1-.86328-1.09765,1.55359,1.55359,0,0,1,.12305-.71387,8.07686,8.07686,0,0,1,2.77636-1.6543c3.332-1.16113,7.71973-2.63574,12.16211-3.76855a11.37613,11.37613,0,0,0,8.13379-6.03613c1.67383-3.40137,3.38184-6.78516,5.08985-10.16895,2.00293-3.96973,4.07519-8.07471,6.03027-12.09082a6.31173,6.31173,0,0,0-4.4502-9.11182l-.14355-.02246a71.8932,71.8932,0,0,1-7.97852-1.63379c-5.42285-1.32129-11.02832-2.68847-17.1709-1.65674a29.43792,29.43792,0,0,1-8.958-.71093,8.0235,8.0235,0,0,1-.30762-.76953c.07129-.22217.168-.48731.2666-.731,1.46289-.0957,2.9375-.209,4.41895-.32227a107.254,107.254,0,0,1,15.78222-.44091c.12989.00976.43848.0791.68653.13476a5.576,5.576,0,0,0,3.88672-.14307,3.87639,3.87639,0,0,0,2.10058-5.16308,2.94852,2.94852,0,0,1-.16894-.69531c-.03321-1.60108-.0586-3.2876-.041-4.98487a4.67812,4.67812,0,0,1,.74512.81983l.19336.23779a39.76909,39.76909,0,0,0,40.1123,11.49121,15.50733,15.50733,0,0,0,11.17969-7.37012,73.61972,73.61972,0,0,0,5.28711-8.07177l.13281-.23438.0791-.25683a17.83317,17.83317,0,0,1,13.14258-12.11719,9.24724,9.24724,0,0,0,6.09473-4.59717l.17968-.417c.16016-.4878.33594-.99512.51661-1.51612,1.69922-4.9082,4.543-13.12255-3.64746-16.6914-1.09864-.45264-2.19239-.9375-3.28614-1.42237-4.96094-2.19873-10.08691-4.46972-15.80468-3.99365-6.38477.36914-13.24317.58448-20.89551.66016a11.47017,11.47017,0,0,1-4.56836-1.041,8.71,8.71,0,0,1-1.36621-.69873,1.88116,1.88116,0,0,1,1.21191-.3125,18.85859,18.85859,0,0,0,15.15723-2.95605c2.11621-1.15869,4.32226-2.67969,4.93261-5.13819.56348-2.27441-.49023-4.42236-1.45605-5.9375.02637.0044.05176.00928.07715.01612,1.41113,1.15429,2.75,2.38672,4.16308,3.68652,1.7002,1.56348,3.457,3.18018,5.36426,4.65918a55.92557,55.92557,0,0,0,25.88184,10.86524l.11719.01464a5.2264,5.2264,0,0,0,2.92968-.57373l.00391-.00146A5.24689,5.24689,0,0,0,830.90039,219.06885Zm-4.56152,2.58056a.24335.24335,0,0,1-.10449.02637,50.89051,50.89051,0,0,1-23.45606-9.8667c-1.72559-1.33789-3.3291-2.81347-5.02734-4.37549-1.49707-1.377-3.04395-2.80029-4.68262-4.12011l-.2041-.16455-.2334-.11866a5.77981,5.77981,0,0,0-5.60059.19092l-.39062.23291-.2832.35547a5.70254,5.70254,0,0,0-.8877,5.499l.10156.27686.16407.24512c1.08691,1.63086,1.01855,2.21386.99316,2.314-.041.166-.35059.80274-2.59668,2.02l-.26758.16748a13.867,13.867,0,0,1-11.34863,2.21436l-.24414-.04639a6.86369,6.86369,0,0,0-6.14551,2.31494l-.28125.39844a4.80437,4.80437,0,0,0-.52051,4.00244c.75781,2.27295,3.17188,3.3208,4.29395,3.80762a16.4517,16.4517,0,0,0,6.57422,1.4707c7.80371-.07617,14.74023-.29443,21.27148-.67236,4.499-.376,8.83691,1.54443,13.42481,3.57715,1.13476.50293,2.26953,1.00537,3.36132,1.45507,3.36133,1.46436,3.01075,4.28077.874,10.45215-.16016.46094-.31543.91211-.46192,1.34912a4.23963,4.23963,0,0,1-2.69433,1.937,22.84446,22.84446,0,0,0-16.7461,15.2539,68.55517,68.55517,0,0,1-4.87988,7.40381l-.16406.24707a10.47793,10.47793,0,0,1-7.74121,5.08691l-.377.07569a34.79669,34.79669,0,0,1-35.15722-9.90674,9.76468,9.76468,0,0,0-3.5-2.92871l-.3418-.13916c-1.64551-.53027-3.62012.41553-4.43555.98926a2.956,2.956,0,0,0-1.40039,2.36084c-.07519,2.40625-.043,4.79931.00391,7.02783a5.92347,5.92347,0,0,0,.10351.98,8.6481,8.6481,0,0,0-1.24023-.2041,110.69031,110.69031,0,0,0-16.53418.44189c-1.8584.14258-3.70508.28418-5.53125.39112a2.96336,2.96336,0,0,0-2.293,1.39892c-.02051.02979-2.00586,3.30274-1.44629,5.14014.62305,2.03711,1.52539,4.165,3.5,4.58984a34.39061,34.39061,0,0,0,11.23242.97559l.23145-.0293c5.16406-.88916,10.06738.30322,15.25586,1.56738a77.42508,77.42508,0,0,0,8.44238,1.72461,1.31428,1.31428,0,0,1,1,1.52,1.47082,1.47082,0,0,1-.15234.41895c-1.96875,4.0415-4.0332,8.13037-6.02832,12.08447-1.71582,3.39844-3.43067,6.79785-5.09668,10.18262a6.33631,6.33631,0,0,1-4.59278,3.36133l-.20605.04394c-4.66016,1.18359-9.21973,2.71484-12.66895,3.916a13.11674,13.11674,0,0,0-4.90332,3.0625l-.20507.2041-.15332.24609a6.538,6.538,0,0,0-.84571,4.88867h.002c.35742,1.49414,2.48242,3.77246,3.31347,4.34375a2.94743,2.94743,0,0,0,2.26172.5459,64.95063,64.95063,0,0,0,11.749-3.14746c9.52929-3.26953,17.53808-4.96582,25.624-2.61328a5.58754,5.58754,0,0,1,2.70508,2.47461,9.13466,9.13466,0,0,0,4.44629,4.10742,8.39349,8.39349,0,0,0,2.24707.57031c.166.02539.38183.05762.58593.09571-.17871.18261-.37695.37011-.52734.51269-.23438.22266-.46289.44043-.66895.6543-.60742.62988-1.23925,1.23437-1.87109,1.84082-.84277.80762-1.71387,1.64355-2.54492,2.54687l-.8916.96875c-1.71094,1.85645-3.47949,3.77539-5.18164,5.71485-.251.28613-.502.58691-.75586.89355-1.20606,1.4502-2.07032,2.40821-3.06348,2.50391a6.54849,6.54849,0,0,1-2.77637-.8457l-.623-.27735a26.58786,26.58786,0,0,0-13.39942-2.0664c-4.58789.47363-9.21875,1.24023-13.14355,1.92871a127.777,127.777,0,0,0-27.14746,7.94726A211.4591,211.4591,0,0,0,670.082,371.07812a130.883,130.883,0,0,0-30.88867,24.75,43.17857,43.17857,0,0,0-8.5459,12.23047c-1.249,2.66211-2.57617,5.36329-3.85937,7.97657-2.94629,5.99609-5.99317,12.19629-8.416,18.55957-.53418,1.40039-1.7041,3.81543-3.54883,4.248a8.422,8.422,0,0,1-3.15136-.21777l-.25-.0459a73.64867,73.64867,0,0,0-28.97266.62012c-1.68262.37695-3.39551.89551-5.05274,1.39746-7.40625,2.24707-12.13378,3.34766-15.82421-2.1084l-.19727-.2539a169.78692,169.78692,0,0,0-15.27246-15.207c-2.22266-2.17089-4.41992-4.37207-6.61621-6.57226-4.98145-4.99121-10.13281-10.15137-15.54395-14.89649-9.37988-8.22558-19.29785-16.04-28.61718-23.25879-3.02149-2.33984-6.1504-4.59277-9.17579-6.7705-3.70117-2.66407-7.52734-5.41895-11.125-8.31446l-1.10546-.89062c-6.34473-5.11426-12.90528-10.40332-20.5254-14.03027-12.30078-5.85645-25.81543-6.2168-38.88476-6.56543-1.7251-.0459-3.44483-.0918-5.15576-.1504-17.61914-.60156-33.5293-1.124-49.82373-1.416-5.57666-.09863-6.69434-2.17578-7.05274-4.19336l-.04785-.21484a35.51351,35.51351,0,0,0-3.34717-8.17871,29.44607,29.44607,0,0,0-22.90185-16.69239c-12.8335-1.40918-25.86963-3.0332-38.47705-4.60351-12.12647-1.51075-24.66651-3.07325-37.02637-4.44434-7.38525-.82031-15.00879-1.06543-22.38135-1.30176-3.17529-.10254-6.45849-.208-9.64258-.35742a84.48535,84.48535,0,0,0-33.25927,5.19531c-10.87452,3.71-22.28809,6.59082-33.32618,9.37793-6.25488,1.5791-12.72168,3.21094-19.04785,4.98243a155.60989,155.60989,0,0,1-34.70849,3.16894l-.07178-.002-.07178.00293a493.53561,493.53561,0,0,1-75.47607-3.08887c-1.69629-.17676-6.20166-.64453-7.01758-1.87207-.79053-1.18848.50635-5.47461.99512-7.08887l.041-.15429a11.14057,11.14057,0,0,1,10.48047-8.585l.21192-.01562a17.9358,17.9358,0,0,1,4.07959-.01465c7.20263,1.07129,12.11181-2.12891,13.4873-8.80469a20.25033,20.25033,0,0,1,15.00781-15.77148l.40381-.13623a69.89278,69.89278,0,0,1,17.3794-5.02881,56.36547,56.36547,0,0,0,26.38623-9.78711A71.64661,71.64661,0,0,1,127.0166,252.457c2.21-.54053,4.34619-1.28418,6.41211-2.00342,1.23438-.42968,2.50928-.87353,3.75781-1.25683a11.01852,11.01852,0,0,0,8.5503-7.78955l.03906-.15723c1.01709-4.73438,3.89453-8.96191,8.55273-12.56592.36084-.27881.7544-.58984,1.1753-.92285,2.94775-2.32959,8.43115-6.65674,11.46826-6.12793a50.00786,50.00786,0,0,1,9.39209,3.187c1.645.6753,3.19824,1.313,4.71484,1.85108a8.41309,8.41309,0,0,0,9.17529-2.45655c2.6504-2.79541,5.27686-5.68164,7.81788-8.47314l1.8623-2.04639a9.12,9.12,0,0,1,8.45605-3.0083c1.32129.17383,2.7129.46436,4.186.77149,4.15723.8667,8.45557,1.7622,12.14551.20752,3.27441-1.38038,5.33056-4.55567,7.31885-7.62647a32.19094,32.19094,0,0,1,3.23046-4.44531l.127-.147a28.47981,28.47981,0,0,1,9.083-7.49219c5.15332-2.70069,10.8623-6.44043,14.13281-13.69629a26.64007,26.64007,0,0,0,1.77783-6.93408c.67578-4.27246,1.22314-6.76221,4.60156-8.25879,3.29785-1.46045,7.40088-1.24072,11.01856-1.04785,51.03467,2.72509,101.20215,4.39013,149.10888,4.94873,62.81739.73144,126.48633-.07959,189.24219-2.41065,61.10938-2.27,119.8584-6.08642,179.60352-11.66748a7.10578,7.10578,0,0,1,1.27832-.04834,4.60181,4.60181,0,0,1,.42968.96582l12.83692,35.41455a81.75928,81.75928,0,0,0,6.34375,13.69336,37.50508,37.50508,0,0,0,3.53027,4.854c.65039.7998,1.26563,1.55517,1.833,2.32568a27.34751,27.34751,0,0,1,2.26563,3.96289c.24511.48877.49121.97705.74414,1.46.45312.86621.9375,1.689,1.40527,2.48438a36.255,36.255,0,0,1,1.74805,3.20849l.05761.1167A.24088.24088,0,0,1,826.33887,221.64941Z" transform="translate(-10.42884 -147.83517)"/></svg>