<svg id="Layer_1" data-name="Layer 1" xmlns="http://www.w3.org/2000/svg" viewBox="0 0 744.42689 406.00718"><path d="M792.37891,475.56738c-.39942-4.54883-.90821-9.06347-1.51075-13.41894a231.05009,231.05009,0,0,0-5.10254-26.09668l-.05371-.18457c-4.86523-14.81934-9.29785-30.25293-13.17382-45.87012-1.65625-6.67383-2.94141-13.60547-4.18457-20.30957-1.2793-6.90039-2.60254-14.03711-4.32715-20.92285a412.574,412.574,0,0,1-9.53418-70.09375,64.999,64.999,0,0,0-10.31543-31.20166l-.06836-.10205a90.3225,90.3225,0,0,1-16.57813-48.52149c-.00879-3.23584-.20605-6.48-.39648-9.61718-.12793-2.11426-.26074-4.3003-.332-6.43116-.40235-12.13037-.28223-24.33252-.165-36.13232.04883-4.95654.09863-9.92334.11133-14.91846.05175-19.98828-5.916-32.24121-17.73828-36.41748-3.9834-1.40674-8.14649-1.26221-11.81446-1.13623q-14.41992.49952-28.84179.97754c-21.707.72754-44.15235,1.48-66.22657,2.35059-89.09179,3.51269-177.998,3.88086-261.4248,3.957-87.59131.07715-176.01172-.7793-261.52442-1.61133-10.05468-.11377-13.17334,2.9585-13.51806,13.08105-.35449,10.59082-.78858,21.32666-1.29,31.90674q-3.49512,72.63135-6.94238,145.26563Q56.697,305.50831,55.98,320.9043C53.67432,370.18457,51.29,421.14258,48.16016,471.22461c-.37842,7.46875-.28809,15.89062,5.60156,21.31152C58.9834,497.34375,66.666,497.415,71.75,497.46289l9.79834.09082c30.01221.27734,60.52637.61524,90.03564.94238,72.73975.80664,146.86719,1.62793,221.21485,1.62793,57.72558,0,115.58691-.49511,173.01758-1.87793q14.69383-.353,29.38574-.76855c22.22754-.63184,44.82129-1.374,66.66992-2.09082q14.02-.46143,28.03906-.91406c19.0293-.6084,33.63086-1.0459,47.34766-1.418,8.37988-.22852,16.91309-.3252,25.166-.41992q6.5171-.07471,13.03125-.167a22.62222,22.62222,0,0,0,7.90723-1.43457C789.7373,488.53516,793.02344,482.89844,792.37891,475.56738Zm-11.20508,9.87989h-.001a16.673,16.673,0,0,1-5.81152,1.0205q-6.49951.10254-13.00488.167c-8.27637.09472-16.834.19238-25.26075.42187-13.72656.373-28.33691.81055-47.376,1.41992q-14.023.44824-28.04395.91309c-21.84277.7168-44.42969,1.459-66.64355,2.08984q-14.67921.416-29.36035.76856c-131.293,3.16015-264.856,1.67968-394.02149.249-29.51221-.32715-60.02881-.666-90.04639-.94336l-9.79834-.09082c-5.51074-.05176-10.72656-.3457-13.98046-3.34082-3.97852-3.66211-3.98194-10.48535-3.67481-16.55859,3.13086-50.09375,5.51611-101.07618,7.82324-150.37891q.72-15.39258,1.44678-30.78027,3.44751-72.63208,6.94238-145.26368c.50244-10.60986.938-21.37353,1.29346-31.99023.21729-6.37451.46387-7.2876,6.6958-7.2876.24609,0,.50244.001.76709.00391,85.52832.83154,173.96338,1.688,261.58887,1.61133,83.48535-.07617,172.457-.44483,261.65527-3.96192,22.05664-.86963,44.49317-1.62158,66.19141-2.34912q14.42431-.48339,28.84765-.978c3.291-.11376,6.69532-.23242,9.60938.79737,9.28808,3.28174,13.78125,13.33838,13.73633,30.74463-.0127,4.98-.0625,9.93261-.11133,14.87451-.11719,11.86377-.23828,24.13135.16894,36.39062.07325,2.21338.208,4.44141.33985,6.5962.18652,3.07031.3789,6.24511.38476,9.32421l.00293.11914a96.31272,96.31272,0,0,0,17.64258,51.74805,58.96821,58.96821,0,0,1,9.32617,28.22412,418.58593,418.58593,0,0,0,9.6875,71.14356c1.69629,6.77636,3.002,13.81933,4.26465,20.63086,1.25977,6.79,2.56152,13.81152,4.26074,20.66015,3.9043,15.72852,8.36719,31.27246,13.26563,46.2041a225.27456,225.27456,0,0,1,4.94433,25.32422c.58887,4.25684,1.08594,8.67188,1.47754,13.12207C786.81934,480.84473,785.10938,483.9043,781.17383,485.44727Z" transform="translate(-48.03175 -94.11684)"/></svg>