<svg id="Layer_1" data-name="Layer 1" xmlns="http://www.w3.org/2000/svg" viewBox="0 0 541.85915 557.31985"><path d="M568.6582,322.65527c-.03418-1.12158-.06738-2.21533-.08593-3.269-1.00684-54.71973-4.59961-110.18213-8.07422-163.81836-.38965-6.01855-2.417-10.22412-5.86231-12.16211-2.10449-1.18359-5.74023-2.0083-11.1084.79444-10.65332,5.56835-22.11718,9.86035-33.2041,14.01074-8.80469,3.29638-17.90918,6.70508-26.65527,10.75976a70.96528,70.96528,0,0,0-13.4668,8.17237q-5.4873,3.83275-10.99316,7.644c-12.92871,8.9707-26.29785,18.24609-39.0791,27.897-9.55664,7.2168-19.56739,7.27051-31.15821,7.3335q-1.418.00732-2.85742.019c-13.87988.13184-28.4248,2.72559-44.46484,7.9292-1.48633.48242-2.97266.98193-4.46,1.48242-7.21094,2.42578-14.667,4.93457-22.165,5.27588-13.543.625-22.59424-8.28418-29.69141-17.08789a21.87669,21.87669,0,0,0-21.76318-8.52588,60.62534,60.62534,0,0,1-45.59473-13.66846l-1.751-1.333c-1.25146-.94727-2.50293-1.895-3.69189-2.8335a23.94471,23.94471,0,0,0-15.7749-5.48682c-10.15528.11133-20.49463.0337-30.49365-.0415-6.19581-.04687-12.603-.09521-18.91211-.09814-31.919.03222-65.82178.438-103.64747,1.24072-2.82324.06006-6.68945.14258-9.77392,2.312-4.624,3.25244-5.28125,9.06592-5.30225,14.87305,0,54.02148-.43506,108.96191-.85547,162.09326-.54931,69.42871-1.11767,141.2207-.72265,211.81933.02978,5.31543,1.292,8.59961,4.09228,10.64942,2.62549,1.92187,6.24561,2.4248,10.70508,2.88281,5.25879.53809,10.43994-.20312,15.45215-.91992,6.18018-.88379,12.01807-1.7207,17.77-.26172,9.68457,2.4541,22.56885,12.64063,25.31543,22.60059.38965,1.41113.72314,3.09179,1.07617,4.87109,1.187,5.98242,2.66455,13.42773,7.79541,17.11035a19.208,19.208,0,0,0,7.25879,2.80762c3.2627.73828,6.84814,1.18359,10.64355,1.6543,10.624,1.31738,21.60987,2.67968,27.0459,10.49023a23.27029,23.27029,0,0,0,30.55909,6.82129c1.87548-1.084,5.26269-1.46973,7.73584-1.75195l.812-.09375a43.50028,43.50028,0,0,1,9.72216-.05176c5.69434.6084,13.68995,1.93164,17.36622,6.374,6.67187,8.05762,13.58789,3.5127,19.144-.13769l.103-.06739a135.26548,135.26548,0,0,1,14.5542-8.31347l.20361-.11231a24.68983,24.68983,0,0,1,14.80566-3.59277l.76758.04394c4.27051.24707,6.84815.39649,7.80957,1.18457.95606.78418,1.58838,3.26563,2.63574,7.375l.07959.31153c.21485.84375.41651,1.72851.62256,2.62988,1.02783,4.5,2.19238,9.60059,5.57861,12.4707a350.33986,350.33986,0,0,0,33.2793,24.34961l.26367.14746a24.00681,24.00681,0,0,0,10.22754,2.16895,25.46961,25.46961,0,0,0,3.05762-.18164c5.55078-.67188,9.81641-3.14746,12.01172-6.97168a18.751,18.751,0,0,0,1.98047-7.38379,16.561,16.561,0,0,1,1.17968-5.2002c1.01661-2.06542,3.07715-3.59374,5.25977-5.21093a29.20582,29.20582,0,0,0,5.11035-4.4541c3.32324-3.92383,4.26953-8.85547,4.79688-13.60157a90.99615,90.99615,0,0,1,2.88965-13.32812l.09765-.36035c1.32227-4.91016,2.88379-9.81641,4.64063-14.584.75879-2.05859,1.68847-4.07519,2.67187-6.21a73.42671,73.42671,0,0,0,3.39258-8.22168,12.95554,12.95554,0,0,1,4.73633-6.51953,12.87533,12.87533,0,0,1,17.97265,2.9209l.22559.27148a23.13708,23.13708,0,0,1,2.88965,4.13086,34.83711,34.83711,0,0,0,2.65234,3.98047,6.69958,6.69958,0,0,0,5.75293,2.57129,6.77161,6.77161,0,0,0,5.374-3.40527c1.8623-3.14844.63086-8.12793-.82032-12.584l-.07129-.19238a27.75555,27.75555,0,0,1,2.85254-26.77637,440.3667,440.3667,0,0,1,34.17871-35.16894l.14063-.14063a8.11556,8.11556,0,0,1,9.61719-1.69726l.14648.06933c.62695.27149,1.24609.5791,1.86719.88477,3.02832,1.49609,6.792,3.35449,11.33594,1.27637a90.60436,90.60436,0,0,0,15.67773-7.40625l.10547-.06739A156.27851,156.27851,0,0,0,531.044,499.18164c9.97167-13.40527,13.123-31.87207,15.90429-48.165.39356-2.30566.78028-4.57226,1.17871-6.7793a406.95988,406.95988,0,0,0,5.65723-46.65283l.03613-.5791c.43262-6.85058.84082-13.32129-.80371-20.21387-.30469-1.27832-.67383-2.53662-1.03125-3.7539-1.63183-5.55518-2.4834-9.14453.42188-12.78809a31.14244,31.14244,0,0,1,5.02246-4.62353,37.35832,37.35832,0,0,0,5.5166-5.05078v.00048C569.26953,343.03906,568.93066,331.73682,568.6582,322.65527Zm-9.542,24.70655v.00048a33.24494,33.24494,0,0,1-4.80566,4.35645,35.27673,35.27673,0,0,0-5.81348,5.41357c-4.67285,5.86036-2.88574,11.94532-1.30957,17.314.33984,1.15625.69043,2.35205.96582,3.50537,1.4707,6.16455,1.10254,11.9917.67676,18.73926l-.03613.58056a401.75122,401.75122,0,0,1-5.58692,46.07715c-.40137,2.22266-.791,4.50489-1.1875,6.82617-2.68652,15.73926-5.73144,33.57911-14.9873,46.02247a151.30228,151.30228,0,0,1-37.55567,35.6748,85.58811,85.58811,0,0,1-14.85547,7l-.22168.09082c-2.30078,1.08594-4.11035.29883-7.10839-1.18066-.6709-.332-1.34278-.66211-2.02051-.958a13.12943,13.12943,0,0,0-15.41895,2.708,445.5457,445.5457,0,0,0-34.585,35.60449l-.15625.19824a32.73294,32.73294,0,0,0-3.48828,31.59473c1.91016,5.89551,1.59863,7.78906,1.24121,8.39453a1.81964,1.81964,0,0,1-1.42871.96387,1.73828,1.73828,0,0,1-1.499-.7168,30.80563,30.80563,0,0,1-2.26367-3.42285,27.89588,27.89588,0,0,0-3.44629-4.89063,17.87466,17.87466,0,0,0-24.84864-3.915,17.99322,17.99322,0,0,0-6.57617,9.05176,68.70223,68.70223,0,0,1-3.1709,7.6543c-.98144,2.1289-1.99609,4.33008-2.82324,6.57422-1.80859,4.90722-3.416,9.958-4.77734,15.01172l-.09668.36035a94.46743,94.46743,0,0,0-3.03125,14.07715c-.44043,3.958-1.18653,8.0205-3.64453,10.92285a25.07565,25.07565,0,0,1-4.27149,3.668c-2.56445,1.90039-5.2168,3.86718-6.76855,7.0205a20.51044,20.51044,0,0,0-1.65625,6.79883,14.84936,14.84936,0,0,1-1.35352,5.50293c-3.12109,5.4375-13.23633,5.582-18.64844,3.03711a344.88447,344.88447,0,0,1-32.646-23.89453c-2.0918-1.77344-3.05957-6.01074-3.91358-9.75-.21533-.94238-.42724-1.86914-.65234-2.751l-.0791-.3125c-2.79541-10.96777-3.63672-11.6582-15.002-12.31543l-.73046-.042a29.70173,29.70173,0,0,0-17.64356,4.25684,140.50039,140.50039,0,0,0-14.99072,8.57129l-.10352.06836c-6.46679,4.25-9.042,5.35937-12.54687,1.12793-4.78516-5.78125-13.56836-7.39649-20.686-8.15821a48.52816,48.52816,0,0,0-10.83935.05957l-.79248.09082c-3.07178.34961-6.895.78516-9.67139,2.38965a18.23832,18.23832,0,0,1-23.95361-5.34668c-6.71045-9.64258-19.36768-11.21191-30.53467-12.59765-3.66895-.45508-7.13428-.88477-10.15576-1.56836a14.97362,14.97362,0,0,1-5.44678-1.99317c-3.52588-2.53027-4.7373-8.63476-5.80615-14.02051-.37158-1.87207-.72217-3.63964-1.16016-5.22851-3.28418-11.90625-17.8706-23.32031-28.90771-26.11817-6.71045-1.69824-13.3169-.75488-19.70606.16016-4.93115.70508-9.58887,1.37207-14.2334.89453-8.584-.87988-10.26953-1.65625-10.3081-8.585-.395-70.56543.17334-142.34082.72265-211.75244.42041-53.14111.85547-108.0918.85547-162.12354.01612-4.45556.4126-8.84716,3.17823-10.79248,1.70019-1.19531,4.17822-1.34277,7.00439-1.40283,37.791-.80224,71.66113-1.208,103.54248-1.23974,6.2876.00293,12.68555.05127,18.87305.09814,10.022.07617,20.38623.15479,30.61474.041a18.95048,18.95048,0,0,1,12.54932,4.376c1.2583.99463,2.53711,1.96289,3.81543,2.93115l1.60742,1.22022a65.66356,65.66356,0,0,0,49.42969,14.75049l.20117-.03174a16.85863,16.85863,0,0,1,16.88379,6.59473l.07422.09765c7.42773,9.22217,17.96728,19.71094,33.8501,18.99268,8.19922-.37354,15.99414-2.9961,23.53222-5.53174,1.46973-.49463,2.93848-.98877,4.40821-1.46582,15.5498-5.04443,29.60547-7.55859,42.96875-7.68506q1.43115-.01392,2.83691-.019c11.96387-.06494,23.26367-.126,34.14551-8.34326,12.70019-9.59034,26.02734-18.83692,38.916-27.7793q5.53125-3.83788,11.05469-7.6875l.09668-.0708a65.9726,65.9726,0,0,1,12.56152-7.62988c8.57325-3.97461,17.5879-7.34961,26.30567-10.61329,11.22851-4.20361,22.83887-8.55078,33.76562-14.26171,1.86524-.97413,4.4795-1.915,6.3418-.86817,1.84473,1.0376,3.05664,4,3.32324,8.12744,3.47168,53.57959,7.06055,108.98291,8.06446,163.58692.0205,1.07226.05371,2.18554.08789,3.32715C563.91992,331.46729,564.21484,341.28516,559.11621,347.36182Z" transform="translate(-26.91718 -142.30808)"/></svg>