<svg id="Layer_1" data-name="Layer 1" xmlns="http://www.w3.org/2000/svg" viewBox="0 0 785.80383 376.93144"><path d="M813.87012,476.02148c-.03028-.61621-.0625-1.24511-.06934-1.87109-.09766-8.83594-.29785-17.80957-.49219-26.48926-.20117-8.96972-.4082-18.24414-.501-27.35937-.124-12.20117-.09375-24.61426-.06543-36.62012q.0205-8.042.02636-16.084l-.06445-2.43946q.00732-6.0044.03809-12.00781c.04687-11.4082.09472-23.2041-.13281-34.80176a192.87551,192.87551,0,0,0-2.13965-25.94189c-2.13575-14.11768-4.34571-28.71631-5.04395-43.75684-.18555-4.01172-.23828-8.12256-.28906-12.09814-.10547-8.24707-.21484-16.77539-1.50391-25.16651-.874-5.69189-2.126-11.35449-3.33593-16.83056-1.44727-6.54883-2.94336-13.32031-3.77149-20.07715-1.00488-8.19629-1.48144-16.72363-1.94141-24.96973-.19921-3.57763-.39843-7.14648-.63867-10.69092-.12793-1.88427-.30273-4.46484-1.9873-6.52734-2.64356-3.23975-7.13867-3.07373-9.55469-2.9834-162.166,6.00342-326.32324-.02-480.56152-6.7041-46.43457-2.01221-133.19727-6.63281-196.54834-10.00684C68.792,110.65137,42.419,109.24707,36.87061,109.04c-1.50293-.05664-4.02832-.15137-6.01026,1.39307-2.65185,2.06835-2.6582,5.68359-2.66113,7.42041l-.0708,36.95556a10.51958,10.51958,0,0,0,1.124,5.59082c2.26856,3.81055,7.32764,3.94678,9.48877,4.00489,72.75342,1.95556,251.9585,9.03369,262.54736,10.16064a4.72752,4.72752,0,0,1,2.16651.56787c.36181.40234.28808,1.82471.25683,2.43213-2.98,57.58154-6.32373,125.9082-8.53125,196.16406a16.124,16.124,0,0,0,7.21143,15.23145c3.07178,2.09472,6.11426,4.39844,9.05615,6.626,2.23877,1.69532,4.55322,3.44727,6.88965,5.11621.42627.30469.89063.7002,1.38281,1.11915,2.03174,1.72949,5.43116,4.62207,9.49414,2.08007,2.03418-1.27441,2.89014-3.66015,3.646-5.76464.28027-.78028.54492-1.51758.8374-2.124.106-.21875.19873-.44336.28955-.66894.05127-.127.1001-.25489.16114-.377l.14111-.34179a.67294.67294,0,0,1,1.18506-.1836l.17822.21973c.98389,1.08008,1.95654,2.23828,2.897,3.3584,1.29053,1.53711,2.625,3.127,4.07178,4.62109a5.20766,5.20766,0,0,0,4.8833,1.834c1.30615-.26758,3.11817-1.25489,4.334-4.4375l.08007-.2461a14.91574,14.91574,0,0,0,.45362-2.624c.02539-.12988.05175-.23438.07666-.31836a3.488,3.488,0,0,1,.40576.16016,43.31826,43.31826,0,0,0,4.35693,2.16113l.17383.0664c4.13818,1.415,8.6333,3.33985,10.60156,6.89356a9.67833,9.67833,0,0,1,1.00391,5.61133,13.27356,13.27356,0,0,1-.418,1.96289c-.6001,2.30371-1.604,6.1582,1.90576,8.65137,1.82666,1.29687,4.01026,1.208,5.76367,1.13769.53516-.02148,1.041-.043,1.439-.01855a63.7784,63.7784,0,0,1,7.25781.85156,75.51908,75.51908,0,0,1,13.63916,4.07422,35.63966,35.63966,0,0,0,8.55078,2.06836l.24024.0166a37.89093,37.89093,0,0,1,21.418,7.05566c.16894.14063.34375.27442.5205.39942a8.92844,8.92844,0,0,0,12.32129-1.95313,38.45552,38.45552,0,0,1,3.93067-3.61426l.14062-.12207a2.191,2.191,0,0,1,1.46875-.585,23.7422,23.7422,0,0,1,5.70117.98828c1.043.25879,2.12207.52539,3.13184.71289a37.01509,37.01509,0,0,1,8.9668,2.542,17.22421,17.22421,0,0,1,6.64941,5.38281,21.06427,21.06427,0,0,1,1.46289,2.40723,25.08512,25.08512,0,0,0,1.83985,2.98925,9.95541,9.95541,0,0,0,5.33593,3.65528c.38965.14062.80371.28906,1.249.4707,2.09472.85254,3.06543,2.791,3.46093,6.915l.01563.13281a7.8338,7.8338,0,0,0,11.54,5.69238,9.804,9.804,0,0,0,3.707-2.34765l.30859-.38184c3.4541-5.2373,7.61426-6.17285,15.36133-3.44336l.21777.06543a32.40684,32.40684,0,0,0,11.29786.81836,4.37084,4.37084,0,0,1,4.585,3l.0459.13086a45.75017,45.75017,0,0,0,3.21191,6.65723,9.82365,9.82365,0,0,0,4.41113,4.04687l.20606.085c4.40332,1.585,8.92968,2.97071,13.30664,4.31055l2.26269.69336a9.652,9.652,0,0,0,12.0752-4.52441c1.15918-2.01563,2.2373-4.09082,3.28125-6.09766,1.06543-2.05078,2.168-4.17188,3.332-6.17774l.16894-.35253a6.203,6.203,0,0,1,11.21582-.76075l.11133.18164a18.982,18.982,0,0,0,14.34961,8.3252,127.44821,127.44821,0,0,1,15.55371,3.49023c3.98926,1.09082,8.03125,2.31153,11.94141,3.49219,3.78906,1.14356,7.707,2.32617,11.60156,3.39942,5.124,1.41308,9.01563,1.24609,11.89942-.50879,2.46-1.4961,4.10058-4.11426,4.87793-7.78223,1.21679-5.73926,3.70214-6.63379,10.08789-6.2998,2.22851.11914,4.459.08593,6.61621.05664,2.167-.0293,4.21289-.0586,6.2705.0498a63.78706,63.78706,0,0,0,22.001-2.75879c.77539-.23633,1.63086-.54,2.53711-.8623,6.06152-2.15723,9.2334-2.68848,10.85449.11816,3.33985,5.77344,8.91016,5.98438,13.02246,6.09961a17.16116,17.16116,0,0,0,15.62305-6.55762,7.68578,7.68578,0,0,1,9.39356-2.5332l.44043.15137a15.04538,15.04538,0,0,1,8.23437,5.2666c8.68652,11.50781,21.499,15.74609,32.80371,19.48535.86328.28613,1.89844.71191,2.99512,1.16211,3.09668,1.27344,6.55273,2.69336,9.85058,2.69336a10.403,10.403,0,0,0,1.48145-.10254C814.31348,484.94727,814.03613,479.35938,813.87012,476.02148Zm-6.51465,4.873h-.001c-2.36719.33789-5.89355-1.10449-8.7207-2.2666-1.17969-.48438-2.29492-.94336-3.3252-1.2832-11.1289-3.68164-22.63671-7.48926-30.41406-17.791a20.10578,20.10578,0,0,0-10.7959-7.01953,12.67133,12.67133,0,0,0-15.24316,4.20215,12.11427,12.11427,0,0,1-11.0957,4.56738l-.25489-.02051c-4.74511-.13183-7.17578-.53125-8.95605-3.6084-3.99121-6.90039-12.04688-4.03613-16.8584-2.32519-.8291.29492-1.61035.57422-2.32031.791a58.74852,58.74852,0,0,1-20.27832,2.54786c-2.22461-.12012-4.45118-.08789-6.60547-.05567-2.16895.03028-4.21973.05957-6.2793-.0498-6.24609-.335-13.10351.15527-15.24414,10.25488-.4873,2.29785-1.333,3.78613-2.58594,4.54785-1.61914.98731-4.30078.97168-7.97265-.04-3.83594-1.05664-7.72461-2.23144-11.48438-3.36621-3.9414-1.18945-8.01562-2.41894-12.02832-3.5166a132.18761,132.18761,0,0,0-16.24023-3.63477l-.23047-.02539a13.9549,13.9549,0,0,1-10.583-6.04589A11.20342,11.20342,0,0,0,569.7168,458.041c-1.1875,2.05664-2.28711,4.17285-3.35157,6.2207-1.02832,1.97851-2.09179,4.02441-3.209,5.96387l-.06445.11816a4.62778,4.62778,0,0,1-5.86035,2.17676l-2.585-.80469c-4.28125-1.31055-8.708-2.666-12.96289-4.19336a4.88454,4.88454,0,0,1-2.10156-1.97754,41.07855,41.07855,0,0,1-2.84863-5.89062,9.41084,9.41084,0,0,0-9.82031-6.36231,27.45467,27.45467,0,0,1-9.46289-.665c-6.58985-2.30371-14.874-3.73633-20.92969,5.21485a4.78652,4.78652,0,0,1-1.78809,1.042l-.28222.08984-.25391.15332a2.83208,2.83208,0,0,1-4.25879-1.95117c-.25586-2.65723-.88672-8.68848-6.5459-10.99121-.51172-.208-.98633-.38086-1.43359-.542a5.17543,5.17543,0,0,1-3.02832-1.94238,20.91708,20.91708,0,0,1-1.46875-2.41309,25.3148,25.3148,0,0,0-1.83008-2.97852,22.17521,22.17521,0,0,0-8.55469-6.93359,41.36492,41.36492,0,0,0-10.16015-2.92285c-.86524-.16113-1.82715-.39844-2.84473-.65039a30.30886,30.30886,0,0,0-6.96-1.13477,7.18129,7.18129,0,0,0-4.73633,1.85254,43.5516,43.5516,0,0,0-4.49609,4.1582l-.21485.2627a3.92111,3.92111,0,0,1-5.46386.92187c-.0918-.06445-.18067-.13378-.26563-.20605l-.16016-.125a42.857,42.857,0,0,0-24.19287-8.042,30.619,30.619,0,0,1-7.23535-1.76563,80.00219,80.00219,0,0,0-14.53271-4.32031,68.89061,68.89061,0,0,0-7.82813-.918,19.26651,19.26651,0,0,0-1.94531.0127,6.12311,6.12311,0,0,1-2.66455-.21778c-.54053-.38379-.60108-.86523.03711-3.31445a16.9779,16.9779,0,0,0,.56054-2.79,14.56786,14.56786,0,0,0-1.61132-8.4668c-2.77393-5.00878-8.252-7.45019-13.26709-9.17089a38.54851,38.54851,0,0,1-3.84864-1.91993l-.16015-.084a5.46393,5.46393,0,0,0-5.01074-.26563,5.35057,5.35057,0,0,0-2.64844,4.15235l-.02979.24512a9.85188,9.85188,0,0,1-.27539,1.708,4.35113,4.35113,0,0,1-.585,1.08106,2.83427,2.83427,0,0,1-.32178-.29c-1.32422-1.36816-2.54394-2.82129-3.835-4.35938-.94726-1.12793-1.92578-2.293-2.94726-3.41992a5.67367,5.67367,0,0,0-9.8335,1.50684c-.08838.19043-.16894.38574-.24805.58105-.04834.1211-.09521.24219-.1538.36328a26.94729,26.94729,0,0,0-1.04248,2.61133c-.4336,1.208-1.02686,2.86133-1.59424,3.2168-.74073.46387-1.30323.30469-3.59815-1.64942-.55029-.46874-1.11865-.95312-1.71826-1.38085-2.27978-1.62891-4.56641-3.35938-6.77734-5.03418-2.99073-2.26465-6.0835-4.60645-9.29688-6.79688a11.16851,11.16851,0,0,1-5.00879-10.625l.01416-.19726c2.20606-70.24219,5.54981-138.57618,8.52979-196.15723.07422-1.43067.21191-4.09424-1.53125-6.0332-1.61768-1.8003-4.05029-2.0586-5.35645-2.19727-10.6416-1.13281-190.124-8.23-262.94189-10.187-2.08008-.05615-4.56494-.28418-5.32715-1.56445a6.783,6.783,0,0,1-.41992-3.09375l.0708-36.88575c.00146-.873.00488-2.917.73584-3.48681a5.38175,5.38175,0,0,1,2.74853-.33985c5.50928.20557,33.2378,1.68262,68.34375,3.55225,63.36182,3.374,150.13868,7.9956,196.59766,10.00879,154.33887,6.688,318.60547,12.71484,480.96387,6.70508,2.29394-.084,4.55468-.00537,5.49511,1.14892.627.76709.76563,2.13135.87305,3.7041.23828,3.52442.43652,7.07325.63477,10.63086.46484,8.32764.94531,16.93946,1.9707,25.29981.85742,6.99365,2.37988,13.88427,3.85254,20.54736,1.19238,5.39844,2.42676,10.98047,3.27637,16.51123,1.23535,8.04541,1.34277,16.39551,1.44531,24.47119.05176,4.0166.10449,8.17041.29492,12.26612.71,15.2998,3.03906,30.69238,5.09473,44.27295a187.84584,187.84584,0,0,1,2.084,25.2788c.22656,11.55176.17774,23.31739.13184,34.69629q-.03077,7.23341-.04,14.46778l.06543,2.46679q-.00439,6.80274-.02539,13.60547c-.02832,12.02051-.0586,24.4502.06543,36.68262.09277,9.14551.30078,18.43652.50195,27.4209.19434,8.665.39453,17.625.49121,26.43164.00781.6914.042,1.38476.0752,2.06445C809.09375,480.64551,808.69043,480.70312,807.35547,480.89453Z" transform="translate(-28.12811 -109.01485)"/></svg>