<svg id="Layer_1" data-name="Layer 1" xmlns="http://www.w3.org/2000/svg" viewBox="0 0 762.61008 519.83857"><path d="M800.09082,97.74268a12.02076,12.02076,0,0,0-9.72754-7.9585,35.27055,35.27055,0,0,1-21.67871-18.03223c-6.05078-12.167-22-10.1372-34.81934-8.50879a96.70782,96.70782,0,0,1-9.83691.94336c-4.42676.0669-8.85449.09912-13.2832.13184-11.292.0835-22.96778.16992-34.46778.84668-7.64355.44971-15.46386.54736-23.02734.6416-5.09863.06348-10.37109.12891-15.56445.30176-4.72461.15674-9.65528.19482-14.42383.23193-15.28027.11817-31.08008.24024-45.78711,4.07813-6.90527,1.80175-13.94824,3.57177-20.75977,5.28418-7.49316,1.88379-15.24218,3.83154-22.84961,5.83105-3.8623,1.01563-7.63281,2.3794-11.27832,3.69873A94.89549,94.89549,0,0,1,508.249,89.59521a42.47368,42.47368,0,0,1-10.001.32276c-6.13965-.27881-12.48633-.56348-18.625,3.707a43.51523,43.51523,0,0,0-4.71192,3.97119,32.80534,32.80534,0,0,1-4.91308,4.019c-4.15137,2.55811-9.07715,2.95118-14.29395,3.36719-1.67187.1333-3.40137.271-5.09863.48633l-1.22949.15723c-6.03516.77588-11.24707,1.44677-16.96387-.333a22.96448,22.96448,0,0,0-14.52979.32324c-4.34863,1.34668-8.88037,2.47412-13.26367,3.56494-3.65918.91016-7.44336,1.85156-11.11474,2.916a18.90973,18.90973,0,0,1-12.53907-.89356l-.10791-.04394a62.22176,62.22176,0,0,0-17.39941-3.90625c-7-.478-14.11279-.72266-20.99121-.95947-7.377-.25391-15.00244-.51661-22.46094-1.06739A11.76942,11.76942,0,0,0,306.54,112.0835a14.64893,14.64893,0,0,1-12.74951,8.03418l-.36133.03466c-2.02734.34522-4.03565.71778-6.0332,1.08887-9.58985,1.78027-18.647,3.46191-28.21094,1.78076-8.3501-1.46777-16.53858-4.5083-24.457-7.44873-2.73194-1.01465-5.55664-2.06347-8.3584-3.0376-.74854-.26025-2.30664-.80175-2.59717-1.46826a5.15971,5.15971,0,0,1,.0874-2.17968l.0166-.105c2.15674-13.53417-.30175-33.90478-9.1748-46.65185-8.999-12.92871-19.54834-17.15674-32.24365-12.91553a5.9775,5.9775,0,0,1-.84619.14112l-.27246.02587-.26026.0835a7.9135,7.9135,0,0,1-9.86523-5.021c-3.249-8.49462-11.24024-6.76806-13.86231-6.20068a21.33167,21.33167,0,0,0-6.86426,2.79053c-2.75878,1.76025-5.49707,3.62109-8.145,5.4209-3.13086,2.12841-6.36866,4.3291-9.5835,6.32373a18.43827,18.43827,0,0,0-8.9751,15.14746c-.92627,9.78857-2.01758,19.73486-3.07373,29.35449q-.63793,5.81909-1.26807,11.63916l-.01171.15674c-.8462,19.13769-4.33008,38.13086-7.69922,56.499-1.667,9.08838-3.39063,18.48633-4.79151,27.85449-1.4165,9.47364-2.71533,19.19483-3.97168,28.59571-2.44775,18.314-4.97851,37.251-8.49463,55.249-3.02441,15.48291-6.85546,31.10742-10.561,46.21777-1.31055,5.34473-2.62109,10.68946-3.91846,16.1211a186.73192,186.73192,0,0,1-5.791,21.59765c-4.07129,12.20118-8.8877,24.46-13.54541,36.31641-1.84327,4.69238-3.68506,9.37988-5.48535,14.07129-1.42481,3.71191-3.14307,7.55762-4.96241,11.62891C45.124,434.6123,39.86475,446.38281,39.65283,458.03223c-.18359,10.09863,1.48047,20.28613,3.08936,30.13867,1.45263,8.89551,2.95508,18.09375,3.061,27.09863.15967,13.501.31055,26.25293,15.0542,34.57813,11.50488,6.49707,25.63916,6.58886,36.99658,6.66211l136.71338.8916q29.75025,0,59.49756.07422c19.52442.03711,39.3125.07324,59.21485.07324,28.60742,0,57.44189-.07617,85.99072-.34082,103.65234-.96094,206.36523-3.53125,305.28515-7.63965,1.75977-.07324,4.41993-.18359,6.46289-1.90137,2.65821-2.22949,2.8086-5.93066,2.89063-7.95019,1.64551-40.64942,3.34766-82.68262,3.3291-124.07715q-.00293-7.56153-.05566-15.1416c-.17481-33.17188-.35547-67.47266,6.73535-100.16016l.13379-.61621c.86523-3.96973,1.75976-8.0752,1.06738-12.33545-.62695-3.8584-2.01465-6.501-4.24219-8.07861-3.43847-2.43555-7.90039-1.63819-12.21582-.86573-.76758.13721-1.54492.27637-2.32812.39942l-.27344.05908a7.70361,7.70361,0,0,1-9.7168-8.07227l.01368-.15673-.00684-.15723c-.18945-4.45264-.65625-8.80957-1.041-12.10791l-.02246-.1499a21.74287,21.74287,0,0,1,2.665-14.86035,146.32861,146.32861,0,0,0,9.96-19.26123l.083-.22364a23.76844,23.76844,0,0,1,12.11621-14.0791c5.22168-2.1333,8.17578-7.36279,7.90625-14.01123-.04883-1.19873-.165-2.38232-.27832-3.52734a24.38876,24.38876,0,0,1-.07715-6.61475c.51856-2.87305,2.02246-5.59131,3.61524-8.46924a47.83446,47.83446,0,0,0,3.19238-6.53955c2.41016-6.54248,4.501-12.00342,6.87305-17.38916,4.499-10.2124,8.65136-19.37256,13.89453-28.0581.56933-.94287,1.19629-1.88965,1.80371-2.80469a34.8145,34.8145,0,0,0,4.13086-7.53711,17.95538,17.95538,0,0,0,.7666-2.875C802.85645,106.84863,801.59277,102.103,800.09082,97.74268Zm-3.07617,13.38769a12.71115,12.71115,0,0,1-.55469,2.07471v.00049a30.56116,30.56116,0,0,1-3.58691,6.44873c-.63575.959-1.29395,1.95068-1.918,2.98437-5.39649,8.93945-9.61817,18.25342-14.18946,28.62647-2.42382,5.50341-4.54687,11.04687-6.98828,17.67627a43.47876,43.47876,0,0,1-2.876,5.84765c-1.71875,3.10547-3.49512,6.3169-4.16016,10.00147a28.48276,28.48276,0,0,0,.02051,7.99414c.11133,1.12353.21582,2.18457.25879,3.23828.1084,2.66894-.37891,7.41357-4.85742,9.20264l-.167.07421a28.793,28.793,0,0,0-14.73047,16.98145,141.58846,141.58846,0,0,1-9.5957,18.53271,26.77654,26.77654,0,0,0-3.31933,18.24512c.36914,3.167.8125,7.313.99707,11.519a12.70516,12.70516,0,0,0,15.89648,13.18165c.77246-.12354,1.54-.26075,2.29688-.396,3.45312-.61768,6.71679-1.20117,8.44531.02344,1.0625.75293,1.80176,2.36816,2.19726,4.80127.54,3.32226-.21582,6.79345-1.0166,10.46875l-.13574.62109c-7.207,33.22461-7.02441,67.80469-6.84863,101.24609q.041,7.56592.05566,15.11719c.01856,41.292-1.68066,83.27344-3.32617,123.90332-.06836,1.68457-.2168,3.54492-1.1084,4.293-.68359.57422-2.02441.67481-3.45508.73438-98.86718,4.10644-201.52636,6.67578-305.125,7.63574-48.38183.44922-97.57666.35547-145.14892.26758q-29.75317-.05566-59.49121-.07422l-136.47461-.88965-.22266-.00195c-11.34082-.07325-24.19482-.15625-34.56982-6.01563-12.23682-6.91016-12.35889-17.22461-12.51319-30.2832-.11084-9.38086-1.644-18.76758-3.12646-27.84571-1.57324-9.63378-3.2002-19.59472-3.0249-29.24218.19335-10.63086,5.24121-21.92871,10.123-32.8545,1.84717-4.13476,3.5918-8.04,5.06494-11.87793,1.7959-4.67871,3.63282-9.35449,5.4712-14.03417,4.68115-11.916,9.522-24.23731,13.63476-36.5625a191.12438,191.12438,0,0,0,5.92871-22.09766q1.916-8.01123,3.894-16.0127c3.71875-15.167,7.56446-30.85009,10.61182-46.44921,3.54492-18.146,6.08594-37.1587,8.543-55.54542,1.25391-9.38232,2.55078-19.08349,3.96143-28.519,1.38818-9.28613,3.10449-18.64306,4.76416-27.69189,3.395-18.50928,6.90576-37.64649,7.773-57.10059q.62035-5.77661,1.2583-11.55078c1.06054-9.66113,2.15673-19.65137,3.08789-29.501l.00976-.148a13.474,13.474,0,0,1,6.58447-11.12988c3.33594-2.06933,6.61719-4.2998,9.791-6.457,2.61816-1.77978,5.32568-3.62012,8.00537-5.32959a16.30549,16.30549,0,0,1,5.2461-2.12891c4.74511-1.02685,6.87255-.21386,8.10839,3.01368A12.91637,12.91637,0,0,0,182.353,54.30566a10.98694,10.98694,0,0,0,1.42578-.2666l.17822-.05273c10.48975-3.53613,18.95557-.03906,26.64111,11.001,8.1167,11.66163,10.33985,30.4629,8.34082,43.00928l-.0166.10352a8.5567,8.5567,0,0,0,.26612,4.96435c1.166,2.67432,4.01123,3.6626,5.53906,4.19385,2.75244.957,5.55225,1.99658,8.25976,3.00195,8.12842,3.01856,16.5337,6.13965,25.33252,7.68653,10.45069,1.83691,20.38428-.00733,29.98877-1.78955,1.91651-.356,3.84327-.71338,5.78711-1.0459a19.63689,19.63689,0,0,0,16.94776-10.85352l.06836-.14941a6.79163,6.79163,0,0,1,7.91552-3.97559l.41065.06543c7.6206.56836,15.36572.835,22.856,1.09278,6.8374.23535,13.90722.47851,20.7998.94921a57.17576,57.17576,0,0,1,15.92871,3.57129,23.94667,23.94667,0,0,0,15.84131,1.09717c3.61133-1.04687,7.34814-1.97656,10.9624-2.87549,4.46973-1.1123,9.09131-2.2622,13.59278-3.65869l.11425-.03857a17.91463,17.91463,0,0,1,11.39258-.26856c6.75781,2.103,12.7461,1.333,19.08789.51758l1.22071-.15625c1.58105-.20019,3.17773-.32764,4.86718-.4624,5.57715-.44434,11.34375-.9043,16.51953-4.09473a37.00874,37.00874,0,0,0,5.69141-4.61133,39.35076,39.35076,0,0,1,4.166-3.53076c4.748-3.30322,9.748-3.07812,15.54394-2.8164a46.93677,46.93677,0,0,0,11.16992-.40772,100.10946,100.10946,0,0,0,15.09571-4.57129c3.541-1.28125,7.2041-2.60644,10.84863-3.56445,7.58105-1.99317,15.3164-3.9375,22.79785-5.81787,6.82129-1.71485,13.875-3.48828,20.80176-5.29541,14.10644-3.68067,29.58984-3.8003,44.56445-3.91651,4.79981-.03662,9.7627-.07519,14.55078-.23437,5.1416-.1709,10.3877-.23633,15.46094-.29932,7.62012-.09521,15.5-.19336,23.25781-.6499,11.37207-.66895,22.9834-.75488,34.21192-.83789,4.44043-.03272,8.88183-.06543,13.32226-.13281a99.81329,99.81329,0,0,0,10.3916-.98194c11.833-1.50488,25.24219-3.21142,29.71192,5.77491a39.78987,39.78987,0,0,0,25,20.67431l.376.07276a6.99455,6.99455,0,0,1,5.78028,4.6455C796.8457,103.67334,797.69336,107.31934,797.01465,111.13037Z" transform="translate(-39.63891 -37.71026)"/></svg>