<svg id="Layer_1" data-name="Layer 1" xmlns="http://www.w3.org/2000/svg" viewBox="0 0 799.47671 430.30809"><path d="M818.71289,425.69043c-1.89746-3.98535-5.49121-6.85352-8.66113-9.38379-1.24707-.99512-2.42578-1.93457-3.46289-2.89844-5.06153-4.69922-11.07032-10.22168-17.25782-15.54785l-.14453-.11523A31.01659,31.01659,0,0,1,777.043,377.56934a11.36142,11.36142,0,0,0-10.915-10.40332c-1.86231-.30567-3.7666-.72071-5.61133-1.12207l-1.45312-.31446-.4834-.0625c-7.64844-.82324-8.1543-11.76367-8.01172-23.876a65.53229,65.53229,0,0,0-.21094-8.34668l-.04394-.334a9.74605,9.74605,0,0,1-.07129-3.60547,4.96723,4.96723,0,0,1,2.22168-2.68554c2.375-1.50782,5.63769-2.47071,8.792-3.40137,1.28418-.37891,2.6123-.77051,3.916-1.21777a11.85594,11.85594,0,0,0,7.47363-13.28321,20.66539,20.66539,0,0,0-3.38965-9.64355,16.74862,16.74862,0,0,1,3.21289-22.18408l.33691-.34082a74.60626,74.60626,0,0,1,7.418-7.8628,31.20131,31.20131,0,0,0,11.49121-22.95068,19.23458,19.23458,0,0,1,11.05567-17.144c4.53418-2.11133,4.96289-5.25538,4.81543-6.94141-.35156-4.01514-4.43848-7.22315-8.10547-8.20313a77.71161,77.71161,0,0,1-16.32715-6.417,48.00892,48.00892,0,0,1-18.43555-29.33838c-.93945-4.73681-2.32715-9.40576-3.67089-13.9209-.76368-2.56738-1.55274-5.22167-2.24122-7.833A19.21971,19.21971,0,0,0,744.708,141.47754a34.6785,34.6785,0,0,1-21.62793-16.43506l-.05762-.09668a15.06792,15.06792,0,0,0-15.24512-6.87158l-18.9248.481c-75.04883,1.90918-152.65332,3.8833-228.99414,5.105-64.519,1.03222-129.96729,1.71826-194.52588,2.03906-32.33057.16016-65.06055.23437-97.26856.21435h-.11718c-5.02979,0-10.25733.17627-15.31348.34717-10.76562.36426-21.8999.74121-32.25342-.51465-8.38232-1.01562-9.0459-2.71435-9.00683-11.80175.01709-4.03321.25879-8.16651.49267-12.16358.19483-3.33056.396-6.7749.47119-10.187.09717-4.39258-1.64941-6.41309-3.13183-7.335-1.44727-.8999-3.95215-1.56445-7.65528.36572A143.17335,143.17335,0,0,0,85.187,94.51416a82.42169,82.42169,0,0,1-27.54492,13.7334,233.35152,233.35152,0,0,0-26.29,10.36133,15.44828,15.44828,0,0,0-10.16553,15.42285c-.04345,1.87549-.13232,3.793-.21826,5.64892-.1123,2.415-.228,4.9126-.249,7.39405q-.19776,23.34887-.33838,46.69726c-.3584,61.73682-.26025,112.90772.30908,161.03858.32813,27.7705.82666,54.86035,1.48145,80.5166.10547,4.14648.18359,8.28906.26123,12.42871.28906,15.39258.58789,31.30957,2.38769,46.999.46924,4.09375,1.09131,8.042,3.51709,11.35059,4.38184,5.97461,12.22071,6.876,20.03906,6.96094,38.34034.41308,76.96.61914,115.58741.61914,35.80175,0,71.61133-.17676,107.17773-.53223,67.28955-.67187,135.67334-2.05371,201.80567-3.38965,61.00488-1.23242,124.08593-2.50683,186.14257-3.2207,11.83985-.13672,24.60743-1.12207,37.74512-7.35645,10.68066-5.06836,19.11621-9.06445,31.78223-7.81933a45.4722,45.4722,0,0,0,39.03222-15.73242,141.571,141.571,0,0,1,41.70118-35.65039c.54394-.30665,1.12109-.61133,1.709-.92286,3.6084-1.91015,8.09961-4.28808,8.55273-8.83886A8.53344,8.53344,0,0,0,818.71289,425.69043Zm-4.07519,4.03613c-.18848,1.88282-3.23145,3.49414-5.917,4.916-.6289.332-1.24511.65918-1.82519.98633a146.38492,146.38492,0,0,0-43.10645,36.8291,40.43065,40.43065,0,0,1-34.67968,13.93359c-14.04493-1.38672-23.48731,3.09082-34.41895,8.27735-12.2666,5.82226-24.3877,6.74414-35.6582,6.874-62.07813.71484-125.1709,1.98926-186.18653,3.22168-66.11914,1.33594-134.49023,2.7168-201.7539,3.38867-73.9043.73926-148.81836.71-222.66162-.08691-6.52-.07032-12.97852-.71485-16.06055-4.918-1.70166-2.32032-2.19238-5.56348-2.58154-8.96289-1.773-15.45313-2.06983-31.248-2.35645-46.52344-.07812-4.15039-.15576-8.30469-.26221-12.46191-.65429-25.63379-1.15185-52.7002-1.47949-80.44825-.56933-48.10156-.66748-99.24463-.30908-160.95068q.13623-23.34228.33838-46.68457c.02-2.38623.13379-4.83594.24365-7.20459.08887-1.92041.18115-3.90674.2251-5.876l.00244-.11279-.00781-.1123A10.43242,10.43242,0,0,1,33.127,123.28467l.23194-.09473a228.27358,228.27358,0,0,1,25.73828-10.15967A87.06072,87.06072,0,0,0,88.13184,98.55371,138.2596,138.2596,0,0,1,103.85156,89.063a4.99586,4.99586,0,0,1,2.168-.67676,1.04868,1.04868,0,0,1,.54541.11914c.38184.23731.81348,1.15967.77295,2.97852-.07275,3.32129-.27148,6.71923-.46387,10.00488-.23779,4.064-.4834,8.26562-.501,12.43408-.044,10.30176,1.26416,15.31592,13.40527,16.78711,10.73682,1.30127,22.06592.91846,33.02393.54785,5.05322-.1709,10.28369-.32666,15.25879-.34424,32.228.023,64.95751-.05419,97.29589-.21435,64.57715-.3208,130.044-1.00733,194.58155-2.04,76.36425-1.22168,153.98047-3.19629,229.042-5.10547l19.10254-.48584.37207-.03711a10.08454,10.08454,0,0,1,10.30762,4.53467,39.69546,39.69546,0,0,0,24.71484,18.7583,14.24162,14.24162,0,0,1,10.44922,10.91162l.02832.11963c.71289,2.70557,1.51953,5.41748,2.2998,8.04053,1.30957,4.40527,2.665,8.96045,3.55664,13.46094a52.99062,52.99062,0,0,0,20.5127,32.5l.31152.19677a82.67828,82.67828,0,0,0,17.55371,6.92334c2.3545.6294,4.30664,2.56446,4.416,3.8086.07812.89257-1.18555,1.61963-1.94629,1.97363a24.22842,24.22842,0,0,0-13.94238,21.54394,26.16174,26.16174,0,0,1-9.69727,19.24317l-.11621.1001a79.64523,79.64523,0,0,0-7.8252,8.26269,21.74087,21.74087,0,0,0-3.98144,28.63916,15.6413,15.6413,0,0,1,2.57617,7.41113l.04.28516a6.852,6.852,0,0,1-4.2373,7.75293c-1.125.38477-2.34375.74512-3.63477,1.125-3.48535,1.02832-7.08887,2.0918-10.05469,3.97461a9.84362,9.84362,0,0,0-4.36425,5.58008,13.7156,13.7156,0,0,0-.06446,5.59277l.043.32324a64.62314,64.62314,0,0,1,.168,7.63868c-.12793,10.96289-.32227,27.52929,12.48535,28.90722l1.39941.291c1.96583.42773,3.99805.87011,6.04883,1.20019l.36328.03125a6.32981,6.32981,0,0,1,6.19727,5.8584l.02051.19336A36.04834,36.04834,0,0,0,786.13867,401.709c6.10059,5.25489,12.04,10.7129,17.04785,15.36329,1.17481,1.09082,2.48243,2.13378,3.7461,3.14257,2.88281,2.30078,5.86328,4.67969,7.26562,7.625A3.678,3.678,0,0,1,814.6377,429.72656Z" transform="translate(-20.17072 -83.37746)"/></svg>