<svg id="Layer_1" data-name="Layer 1" xmlns="http://www.w3.org/2000/svg" viewBox="0 0 527.34398 610.75977"><path d="M561.36328,484.29785c-1.71094-13.38672-9.916-24.57422-17.85254-35.39258-2.92871-3.99316-5.69531-7.76562-8.10644-11.59472-9.21-14.62989-18.75489-29.34131-28.36914-43.72657-19.21192-28.74755-39.47852-57.354-60.23731-85.02441C396.14941,241.04883,355.044,192.0376,313.51562,149.646a113.325,113.325,0,0,0-77.042-34.0752l-.14209-.00537-.14209.01074A831.70473,831.70473,0,0,0,78.82373,143.06836c-22.82324,5.62158-34.49268,11.9082-40.27978,21.69922-6.9961,11.83691-4.59083,28.4414,1.55712,51.39648q9.01613,33.66064,18.08741,67.30957c21.38183,79.43946,43.49121,161.583,63.94043,242.6875,7.95312,31.53223,14.52392,64.00293,20.87793,95.4043,4.769,23.56836,9.70068,47.93848,15.1875,71.77246,3.37255,14.63379,10.95752,25.37012,21.35839,30.2334a29.20093,29.20093,0,0,0,12.47657,2.75391,38.53468,38.53468,0,0,0,17.2959-4.46582A337.85729,337.85729,0,0,0,369.92578,601.35645l.92676-1.5879c19.89941-34.52636,33.88867-44.7705,46.042-50.69726,10.124-4.93652,21.84082-7.28223,34.79981-6.98926,3.85449.08985,7.6123.35059,11.24707.60352,10.49316.73047,20.40429,1.41894,31.71289-1.84961,14.14062-4.085,27.07324-11.38867,39.58008-18.4502l.28613-.16211c10.56054-5.96289,22.14258-13.35156,25.90137-25.60742A29.13927,29.13927,0,0,0,561.36328,484.29785Zm-5.7207,10.85156c-3.2207,10.49707-13.415,16.98047-23.58106,22.72071l-.28613.16113c-12.25586,6.9209-24.92969,14.07813-38.50977,18.00195-10.457,3.02149-19.93847,2.36328-29.97753,1.66407-3.69141-.25684-7.50782-.52149-11.47852-.61329-13.76758-.332-26.25879,2.20313-37.10645,7.49317-12.86816,6.27539-27.61132,17.00293-48.18261,52.69531l-.72266,1.25879A332.90771,332.90771,0,0,1,207.49707,717.20312l-.291.125c-9.16162,4.64942-17.99121,5.24024-25.53564,1.71387-8.84717-4.13672-15.62793-13.915-18.60352-26.82617-5.47168-23.76855-10.39648-48.10644-15.15918-71.64258-6.36572-31.458-12.94824-63.98828-20.93066-95.63476-20.459-81.14258-42.57373-163.30616-63.96045-242.76416q-9.0564-33.64966-18.08545-67.3042c-5.813-21.70166-8.18847-37.22754-2.08252-47.5586C47.876,158.80518,58.64551,153.188,80.0874,147.90527a827.01775,827.01775,0,0,1,156.34229-27.333A108.34782,108.34782,0,0,1,309.94336,153.145c41.36914,42.229,82.34375,91.08643,132.85449,158.41553,20.70508,27.59765,40.91895,56.12939,60.08106,84.80175,9.58789,14.34766,19.10839,29.02051,28.29492,43.61231,2.50488,3.97949,5.4541,8,8.30566,11.88769,7.55957,10.30665,15.377,20.96485,16.92481,33.06934A23.88031,23.88031,0,0,1,555.64258,495.14941Z" transform="translate(-34.28382 -115.56543)"/></svg>