<svg id="Layer_1" data-name="Layer 1" xmlns="http://www.w3.org/2000/svg" viewBox="0 0 819.47034 465.78415"><path d="M828.916,431.86328l-.09766-.0498a23.89007,23.89007,0,0,1-13.37793-22.168c-.10156-8.50391.74316-16.79883,7.51953-19.93262a14.26328,14.26328,0,0,0,9.78418-14.79883q.01758-4.64355.06055-9.29c.084-10.78808.17187-21.94433-.32617-32.92187-1.16407-25.68164-2.74219-51.76514-4.26856-76.99024l-.543-8.98584c-1.63379-27.09277-3.43359-54.62744-5.1748-81.25586l-.30567-4.67529a84.7901,84.7901,0,0,0-1.22754-9.09814,21.511,21.511,0,0,0-11.66308-17.26612A63.50374,63.50374,0,0,1,795.11621,124.292a92.95494,92.95494,0,0,1-13.582-15.06054,10.61528,10.61528,0,0,1,2.375-14.21827l.17578-.14843c.66309-.61524,1.78613-1.52295,3.08594-2.57373,8.35742-6.75538,16.5166-13.95411,16.52441-21.17139a9.15278,9.15278,0,0,0-3.6709-7.21875c-3.01171-2.44483-7.04882-2.35156-9.7207-2.29248-32.92285.748-66.39844,1.583-98.77148,2.39014-84.05567,2.09619-170.97266,4.26367-256.45411,5.11669-81.581.81641-164.5371.05274-244.7622-.68359-37.34424-.34326-75.96-.69775-113.94238-.88867l-4.48487-.02539c-3.895-.02295-7.79-.04639-11.6748-.04639q-9.01613-.03443-18.03125-.061c-2.01319-.00928-5.06787-.01514-7.40235,1.9165-2.71582,2.24609-3.02392,5.89795-3.20849,8.07959-9.54541,113.03662-11.75635,228.26758-13.894,339.7041q-.34569,18.03077-.70068,36.05957c-.05517,2.791-.15869,7.98535,3.37109,11.07324,2.79151,2.44336,6.6294,2.48731,9.16944,2.51661,29.30762.33007,59.106.73339,87.92334,1.123,65.90722.8916,134.0581,1.81446,201.10205,1.92578,52.99463.09278,100.26367-.335,144.5293-1.292,20.87109-.45019,42.124-1.57617,62.67675-2.665,25.95118-1.375,52.78614-2.79687,79.04786-2.86718a29.23165,29.23165,0,0,1,8.51757.94531c4.64258,1.40527,8.57715,4.50488,12.74317,7.78711q.873.68847,1.74511,1.36816c10.85157,8.42871,25.041,18.499,38.55762,21.57422,8.69141,1.97754,17.23633-1.06543,25.501-4.00781a85.08377,85.08377,0,0,1,11.51758-3.52539c2.1875-.43653,4.43164-.91309,6.71093-1.39746,9.0625-1.92676,18.43262-3.91895,27.0459-4.01172,4.64258-.03516,8.74024,1.959,13.09668,4.08593,1.7461.85254,3.55176,1.73438,5.417,2.49024a120.00243,120.00243,0,0,0,22.01954,6.46094c1.332.30273,2.67382.57812,4.01562.85351a79.80378,79.80378,0,0,1,8.97363,2.19824c13.208,4.34668,22.79883,8.39454,25.92481,20.94825l.04687.16406a14.50708,14.50708,0,0,0,3.832,6.07226,8.76407,8.76407,0,0,0,5.51856,2.36524c.20117.01074.39648.0166.58789.0166a5.52046,5.52046,0,0,0,4.12891-1.47949c1.61132-1.62207,1.60546-4.01758,1.47363-6.13477a36.75592,36.75592,0,0,0-2.92383-12.251c-.42969-.98731-.89941-1.9375-1.35352-2.85743a21.12645,21.12645,0,0,1-2.46-6.75586,16.79674,16.79674,0,0,1,1.77149-9.39941c4.71582-10.47559,5.64941-19.34375,6.63867-28.73144.44629-4.23536.90723-8.61426,1.72656-13.44141C837.3252,438.06152,836.98242,436.23438,828.916,431.86328Zm1.75586,13.4541-.02247.11524c-.85156,5.0039-1.32226,9.47851-1.77832,13.80566-.98632,9.36817-1.83886,17.459-6.22558,27.20313a21.655,21.655,0,0,0-2.17871,12.02832,25.2598,25.2598,0,0,0,2.94433,8.39453c.44727.90625.87012,1.76269,1.252,2.63769a31.71222,31.71222,0,0,1,2.51757,10.56641,8.04553,8.04553,0,0,1-.04882,2.25879,3.38628,3.38628,0,0,1-.876.03613,3.76,3.76,0,0,1-2.36328-1.00976,9.51773,9.51773,0,0,1-2.48047-3.89551c-4.0625-16.13086-17.99316-20.7168-29.19043-24.40137a84.64891,84.64891,0,0,0-9.53223-2.34668c-1.30761-.26855-2.61523-.53711-3.98925-.84766a115.31056,115.31056,0,0,1-21.17383-6.2041c-1.7041-.69043-3.35352-1.49609-5.10059-2.34863-4.627-2.25879-9.40918-4.59375-15.11816-4.59375-.0752,0-.15039,0-.22657.001-9.11035.09863-18.72851,2.14355-28.03027,4.12109-2.25976.47949-4.4834.95215-6.65039,1.38574a89.997,89.997,0,0,0-12.2168,3.7168c-7.59082,2.7041-15.4414,5.49805-22.71386,3.84375-12.55762-2.85742-26.15625-12.53613-36.60059-20.64844-.57226-.44433-1.14453-.89551-1.7168-1.34668-4.34765-3.4248-8.84277-6.96582-14.38964-8.64453a34.07012,34.07012,0,0,0-9.9795-1.16015c-26.38769.07128-53.28613,1.49609-79.29785,2.874-20.51465,1.08691-41.72754,2.21094-62.52051,2.66015-44.227.95411-91.46338,1.38086-144.41406,1.29-67.01367-.11132-135.14941-1.0332-201.042-1.9248-28.82031-.39063-58.62158-.79395-87.93457-1.124-2.3877-.02735-4.63818-.14551-5.93311-1.2793-1.64013-1.43457-1.71923-4.47461-1.665-7.21094q.35889-18.03077.70069-36.06348C24.813,305.84961,27.02246,190.70166,36.5542,77.82715c.15967-1.89258.40039-3.81055,1.4126-4.64746.86963-.71924,2.481-.77051,4.20117-.76953q9.01245.02709,18.03613.061c3.88477,0,7.77.02344,11.65479.04639l4.48925.02539c37.97217.19092,76.58252.54541,113.92188.88818,80.24853.73682,163.22852,1.49756,244.85889.68408,85.51757-.85351,172.4541-3.022,256.52734-5.11816C724.02734,68.18994,757.5,67.355,790.417,66.60742c2.57129-.05859,4.99317-.01221,6.45508,1.17529a4.07147,4.07147,0,0,1,1.82324,3.33106c-.00586,5.4375-9.9082,13.44189-14.667,17.28857-1.37793,1.11377-2.47656,2.00147-3.25977,2.71924a15.65468,15.65468,0,0,0-3.3496,20.94824,97.82493,97.82493,0,0,0,14.3164,15.90479,68.3703,68.3703,0,0,0,15.25977,10.89551,16.54616,16.54616,0,0,1,8.99316,13.3872l.03613.2583a79.55587,79.55587,0,0,1,1.17481,8.64161l.30371,4.63916c1.74121,26.62207,3.541,54.15039,5.17383,81.23047l.543,8.98681c1.52441,25.20654,3.10156,51.27149,4.26465,76.915.49121,10.84473.40429,21.93359.32031,32.65625q-.03809,4.71679-.06055,9.43359l.0127.25684a9.24487,9.24487,0,0,1-6.43653,9.71191l-.28222.10645c-10.833,4.8584-10.67383,18.19922-10.59668,24.51172A28.85723,28.85723,0,0,0,826.582,436.28516c2.6709,1.44922,4.39746,2.52246,4.75488,3.38476C831.69141,440.52344,831.28613,442.43066,830.67188,445.31738Z" transform="translate(-16.96112 -61.58792)"/></svg>