<svg id="Layer_1" data-name="Layer 1" xmlns="http://www.w3.org/2000/svg" viewBox="0 0 794.64487 559.25361"><path d="M814.73633,176.40039a22.28466,22.28466,0,0,0-5.36621-5.43018c-8.34375-6.17382-16.78125-12.665-24.94141-18.94238-15.82324-12.17383-32.18555-24.76221-48.93359-35.87695l-.13867-.08545c-29.08106-16.688-58.959-33.09473-87.85254-48.96094L633.1123,59.19922a86.97759,86.97759,0,0,0-52.87109-11.1333c-28.32129,3.0708-57.166,5.82324-85.06152,8.48535q-12.62256,1.20409-25.24414,2.41846c-3.92969.37939-7.9502.67578-11.83789.96289-5.53907.40869-11.26661.83154-16.89746,1.50342l-.19727.03125a7.10273,7.10273,0,0,1-7.62891-3.6084l-.05664-.10108c-1.35937-2.2959-2.6416-4.729-3.88086-7.08154-1.57617-2.99316-3.206-6.08643-5.06054-9.03076a41.51062,41.51062,0,0,0-40.83643-23.37158c-7.917.80664-16.06152,1.10644-23.938,1.396-2.72851.10059-5.52881.20362-8.31885.32764l-.01709-.44629-2.47167.06787c-10.57911.28906-21.34717.47412-31.76075.65283-24.6416.42383-50.12207.86133-75.15966,2.71143-29.76026,2.19922-64.42969,6.71728-95.92823,23.55078a525.19307,525.19307,0,0,1-51.96289,24.206c-6.26221,2.7085-12.91015,4.94678-19.33935,7.11084-3.72217,1.25293-7.5708,2.54834-11.33057,3.9292C56.76172,84.186,48.17773,88.77686,49.2583,100.8125c.4043,4.50488-1.84668,7.33545-7.52588,9.46484l-.644.24121c-5.311,1.98584-11.33106,4.23731-15.21826,9.57129a18.48673,18.48673,0,0,0-.05127,21.12256,48.14851,48.14851,0,0,0,14.05127,13.312c8.01025,4.99024,17.97949,11.20118,28.24316,14.794a49.0689,49.0689,0,0,0,16.50049,2.85693,42.96549,42.96549,0,0,0,6.67432-.73437c3.19824-.52539,6.21972-1.02,9.19531-.28613,4.86621,1.20312,7.73437,5.71289,10.77051,10.48779a63.58851,63.58851,0,0,0,3.8833,5.646c6.228,7.43946,11.21533,16.0376,16.03857,24.353,2.75635,4.75147,5.606,9.66455,8.67871,14.35694a92.30358,92.30358,0,0,0,11.67334,14.90185,91.99034,91.99034,0,0,1,8.49756,10.30566c6.05713,8.11573,12.32031,16.50586,23.74414,19.28907,2.2417.87353,4.51221,1.81543,6.70947,2.72705,4.01319,1.665,8.16309,3.38672,12.292,4.76806a98.82957,98.82957,0,0,1,40.44043,28.6875,139.69826,139.69826,0,0,0,30.16455,25.373l.12353.07227a85.08253,85.08253,0,0,1,33.59863,33.38086l.062.10547a68.23824,68.23824,0,0,0,13.66064,15.89843,81.43928,81.43928,0,0,0,36.90527,19.85938,22.964,22.964,0,0,1,15.83448,13.81152l.1333.2832a456.37427,456.37427,0,0,1,31.37353,70.77051,19.20693,19.20693,0,0,0,17.876,15.65235,22.29832,22.29832,0,0,1,11.92871,4.19824,74.82484,74.82484,0,0,1,24.8252,30.2832l.76171,2.23731c4.68653,13.81738,11.10547,32.74023,24.30664,37.63281a18.2856,18.2856,0,0,0,6.40235,1.14355c4.21875,0,8.70019-1.39062,13.38965-4.16211a218.69776,218.69776,0,0,0,59.12011-51.11718,12.57182,12.57182,0,0,0,2.80762-13.70215c-.64746-2.05469-1.334-4.09766-2.02051-6.14063-1.24121-3.69336-2.52539-7.51074-3.52636-11.29394-.417-1.57422-.38086-2.73926.10742-3.46289.71387-1.05957,2.56836-1.49707,3.98828-1.67676a91.17487,91.17487,0,0,1,9.89844-.66113,38.3,38.3,0,0,0,30.77929-14.3877l.06934-.09082a14.6901,14.6901,0,0,1,3.74707-3.626,189.99075,189.99075,0,0,0,48.39648-44.13183,372.18674,372.18674,0,0,0,41.8086-50.56055l.1582-.26367a14.20492,14.20492,0,0,1,10.95215-7.56543,21.94487,21.94487,0,0,0,20.2207-16.124,17.52938,17.52938,0,0,1,7.42871-9.61914c11.708-7.3252,12.46778-20.31739,13.07911-30.75782l.042-.72656c.77539-13.28613,1.50781-25.83594,7.334-37.9292,3.69531-7.38769,7.02735-15.07226,10.25-22.50342,1.3711-3.15966,2.74121-6.31933,4.16211-9.51269a56.92858,56.92858,0,0,1,16.26856-21.834c1.39355-1.14648,3.16992-2.48779,5.05078-3.90869C806.208,202.91553,823.62793,189.75879,814.73633,176.40039ZM791.667,207.63184c-1.92383,1.45263-3.74023,2.82421-5.21387,4.03613a61.8981,61.8981,0,0,0-17.68164,23.71142c-1.40625,3.15918-2.7832,6.3335-4.16015,9.50831-3.19629,7.36962-6.501,14.99023-10.15137,22.28906-6.27148,13.01806-7.03223,26.04736-7.83691,39.84179l-.043.72559c-.69043,11.81641-1.91992,21.29395-10.73828,26.81055a22.58473,22.58473,0,0,0-9.57422,12.45215,16.99525,16.99525,0,0,1-15.72852,12.53906l-.17383.01367a19.19706,19.19706,0,0,0-14.83593,10.0957,367.15734,367.15734,0,0,1-41.2666,49.86426l-.20118.22949a185.0881,185.0881,0,0,1-47.26172,43.12012,19.71418,19.71418,0,0,0-5.0371,4.83984,33.30677,33.30677,0,0,1-26.79395,12.45508,96.17311,96.17311,0,0,0-10.55078.69824c-3.57422.45215-6.10352,1.74512-7.51856,3.84375-1.3291,1.97266-1.59668,4.50879-.79492,7.53711,1.04395,3.94141,2.35352,7.83887,3.62012,11.60743.68848,2.04589,1.376,4.09179,2.02344,6.14941l.07519.207a7.60232,7.60232,0,0,1-1.74121,8.417l-.20605.22657a213.73653,213.73653,0,0,1-57.86328,50.0625c-5.86622,3.46875-10.94239,4.32812-15.50977,2.63476-10.96777-4.06445-17.19141-22.41015-21.30957-34.55078l-.80176-2.35742-.083-.209a79.80882,79.80882,0,0,0-26.52343-32.41113,27.26459,27.26459,0,0,0-14.57422-5.12793,14.22217,14.22217,0,0,1-13.25782-11.7373l-.09716-.374a461.488,461.488,0,0,0-31.70655-71.59277,27.98393,27.98393,0,0,0-19.249-16.68066,76.45149,76.45149,0,0,1-34.69775-18.68262l-.09131-.082A63.23251,63.23251,0,0,1,311.438,363.02051a90.06358,90.06358,0,0,0-35.47559-35.249,134.64825,134.64825,0,0,1-28.97607-24.37109,103.82109,103.82109,0,0,0-42.53418-30.11816c-4.05567-1.35889-8.12354-3.04639-12.05713-4.67823-2.27393-.94336-4.62549-1.91894-6.96973-2.83007l-.32812-.10205c-9.76758-2.32081-15.25537-9.67286-21.06494-17.45655a95.73561,95.73561,0,0,0-8.98-10.86181,87.6685,87.6685,0,0,1-11.01514-14.09424c-2.99805-4.5791-5.81348-9.43262-8.53613-14.12647-4.9292-8.498-10.02588-17.28515-16.49463-25.01123a59.12972,59.12972,0,0,1-3.53321-5.16211c-3.27148-5.144-6.979-10.97461-13.79-12.6582-3.97413-.9834-7.64991-.37793-11.20557.20605a38.63271,38.63271,0,0,1-5.90527.668,43.655,43.655,0,0,1-14.80713-2.57617c-9.74121-3.41016-19.4502-9.4585-27.25147-14.31885a43.14162,43.14162,0,0,1-12.59179-11.92578,13.41275,13.41275,0,0,1-.01075-15.31982c3.00342-4.1211,8.04883-6.0083,12.92871-7.833l.64844-.24268c7.74121-2.90283,11.3584-7.8125,10.75-14.59326-.61279-6.82519,2.51563-10.8501,10.79785-13.89209,3.6958-1.35742,7.51172-2.6416,11.20215-3.88379,6.52637-2.19726,13.2749-4.46875,19.667-7.23486a529.66621,529.66621,0,0,0,52.39649-24.41064c30.67627-16.39454,64.70166-20.814,93.93994-22.97461,24.897-1.83936,50.30566-2.27637,74.87744-2.69825,9.61719-.16552,19.53565-.33593,29.33984-.58837l.02149.55273,2.52539-.12549c3.58447-.17871,7.24219-.31347,10.7793-.44336,7.95605-.293,16.1831-.5957,24.21972-1.41455a36.47168,36.47168,0,0,1,35.91748,20.66944l.14746.26855c1.78174,2.81494,3.38916,5.86572,4.94288,8.81592,1.25976,2.3916,2.5625,4.86426,3.97558,7.25293a12.13955,12.13955,0,0,0,12.89649,6.13037c5.49023-.65186,11.12793-1.06787,16.58105-1.4707,3.915-.28907,7.96387-.5879,11.9502-.97266q12.61815-1.218,25.23925-2.418c27.91016-2.66309,56.77149-5.417,85.12012-8.49121a82.05406,82.05406,0,0,1,49.8877,10.521l14.43359,7.92919c28.85156,15.84278,58.68164,32.22315,87.70117,48.87452,16.5791,11.00732,32.84766,23.52343,48.582,35.6289,8.17871,6.29151,16.63477,12.79737,25.01563,18.99854a17.3682,17.3682,0,0,1,4.17871,4.18115C816.85547,188.60791,801.69727,200.05615,791.667,207.63184Z" transform="translate(-22.53113 -18.12627)"/></svg>