<svg id="Layer_1" data-name="Layer 1" xmlns="http://www.w3.org/2000/svg" viewBox="0 0 802.29789 195.72123"><path d="M820.51465,204.03369a8.27272,8.27272,0,0,0-5.93653-1.76074c-9.9375.3418-20.04589.74951-29.82226,1.14355-25.4375,1.02588-51.74121,2.08692-77.63184,2.08789q-18.48779.47169-36.97558.93409-36.772.92358-73.53906,1.88818l-61.585,1.57568q-61.585,1.57764-123.16992,3.14258c-18.05127.45654-36.40088,1.10742-54.146,1.73682-41.103,1.457-83.606,2.96338-125.39161,2.167-2.08837-.03955-4.95068-.09521-7.31787,1.60254-3.57177,2.56006-3.60058,7.082-3.62353,10.71533-.02246,3.477-.14063,5.64551-1.58985,6.44336a7.18757,7.18757,0,0,1-3.187.41065c-42.83935-.36768-86.26709-1.40186-129.07568-3.07373-2.10547-.08106-6.48438-.25245-8.85645,2.99121a9.7907,9.7907,0,0,0-1.54541,4.71875c-2.45361,19.064-10.38818,37.24853-18.06152,54.835-4.93066,11.30078-10.0293,22.98632-13.70654,34.918l-.07569.31933a17.34336,17.34336,0,0,1-13.53222,14.14844,21.28543,21.28543,0,0,0-2.64453.68457l-.15039.05469c-2.50245,1.00293-5.19727,2.37988-6.21143,4.98632-1.02051,2.623.05518,5.47266,1.106,7.66211,3.72412,7.75879,1.60205,14.459-.85547,22.21875-.78516,2.4795-1.59766,5.04493-2.24219,7.73829a7.62409,7.62409,0,0,0-.022,4.47168c.95215,2.60351,3.56836,3.9873,7.85156,4.11523,23.21143,0,46.81592.27344,69.64355.53809,22.84229.26562,46.45459.53906,69.70264.53906h.62793c132.36621-.02637,266.55664-2.60645,398.84473-7.66895,13.98926-.53613,16.251-8.80566,16.61328-17.67968a12.94149,12.94149,0,0,1,6.43164-10.79688l.1543-.09863a29.35165,29.35165,0,0,1,13.29394-4.96192c6.58887-.06738,8.35742-5.50488,8.9502-7.42089a19.75818,19.75818,0,0,0,1.19726-5.376,9.94536,9.94536,0,0,1,6.40332-8.82031l.35938-.16993A146.50991,146.50991,0,0,1,655.791,320.499a36.75407,36.75407,0,0,0,12.67578-5.84472l.1709-.13379a79.6086,79.6086,0,0,1,31.74023-16.56446,14.36821,14.36821,0,0,0,11.82324-13.07666,13.10214,13.10214,0,0,1,6.56445-9.53466l.15235-.09229a54.8068,54.8068,0,0,0,5.70019-4.48144c1.30762-1.12647,2.543-2.19043,3.84864-3.15967l.09472-.07373a54.62164,54.62164,0,0,1,9.60938-6.30713l.19922-.11377a3.51846,3.51846,0,0,1,4.79785,1.186,9.34574,9.34574,0,0,0,16.03125.34034,30.64026,30.64026,0,0,0,3.002-3.99073,20.15048,20.15048,0,0,1,19.3916-8.97851l.2295.019a25.59258,25.59258,0,0,1,3.19238.31738,8.57971,8.57971,0,0,0,9.82129-4.74365,45.24214,45.24214,0,0,1,17.85742-18.72705c3.96777-2.27148,9.332-10.13086,9.93457-16.06494C822.98047,207.00146,821.67285,205.05518,820.51465,204.03369Zm-2.86133,5.93555c-.42578,4.19775-4.69043,10.65478-7.44434,12.23144a50.22236,50.22236,0,0,0-19.85156,20.8418l-.0498.10254a3.58326,3.58326,0,0,1-4.16309,1.99365l-.21-.04443a30.626,30.626,0,0,0-3.81738-.394,25.19847,25.19847,0,0,0-24.12891,11.2583,25.69917,25.69917,0,0,1-2.66113,3.51367l-.29785.40576a4.34514,4.34514,0,0,1-5.95118,1.53662,4.4,4.4,0,0,1-1.58984-1.62793,8.51713,8.51713,0,0,0-11.66113-2.9751l-.01953.01172a59.64454,59.64454,0,0,0-10.36817,6.80811c-1.43261,1.06738-2.78027,2.228-4.084,3.35107a50.99993,50.99993,0,0,1-5.10449,4.04,18.12548,18.12548,0,0,0-9.01368,13.25l-.01757.166a9.37979,9.37979,0,0,1-7.792,8.60791l-.20117.043a84.64381,84.64381,0,0,0-33.75976,17.563,31.83367,31.83367,0,0,1-10.92383,5.00489,151.59674,151.59674,0,0,0-36.07227,14.90722,14.9072,14.9072,0,0,0-9.42285,13.09082,14.6367,14.6367,0,0,1-.91015,4l-.05274.15235c-1.02539,3.31933-2.36035,3.97363-4.31836,3.97363H603.75l-.27441.01465a34.35758,34.35758,0,0,0-15.63965,5.77539,17.91334,17.91334,0,0,0-8.82422,14.87988c-.3877,9.53125-3.14746,12.53809-11.80762,12.87012-132.22461,5.05957-266.35107,7.63867-398.6543,7.665-23.44189.00488-47.23828-.27051-70.272-.53809-22.79541-.26465-46.36523-.53808-69.48535-.53808h-.14062c-2.92481-.08789-3.21924-.80274-3.231-.834a4.27308,4.27308,0,0,1,.189-1.59082c.603-2.51855,1.3877-4.99609,2.14649-7.39258,2.54492-8.03711,5.17724-16.34765.59619-25.8916-1.08984-2.27051-1.12012-3.25683-.95361-3.68555.23877-.61328,1.36084-1.3291,3.33593-2.12792a16.92786,16.92786,0,0,1,2-.50977,22.32876,22.32876,0,0,0,17.44336-18.04785c3.59082-11.61133,8.60987-23.11328,13.46436-34.23877,7.81347-17.90772,15.89306-36.42481,18.4375-56.1958a5.93966,5.93966,0,0,1,.62256-2.40625c.71-.97119,2.8457-1.0166,4.625-.94629,42.85937,1.67383,86.33789,2.70947,129.22754,3.07764a11.14775,11.14775,0,0,0,5.64111-1.03028c4.12451-2.27051,4.15478-6.99512,4.1792-10.7915.02148-3.3877.14013-5.68311,1.53711-6.68408.94092-.6753,2.50928-.70264,4.30859-.667,41.92334.79932,84.49414-.70947,125.66455-2.16943,17.73291-.62891,36.06934-1.27881,54.09571-1.73535q61.58641-1.55859,123.17089-3.14209l61.58692-1.57617q36.76758-.98437,73.53515-1.8877,18.48927-.46509,36.91309-.93359c25.92871,0,52.2832-1.063,77.77051-2.09082,9.76758-.394,19.86914-.80127,29.792-1.14258a3.79346,3.79346,0,0,1,2.458.51465h.001C817.74121,208.25439,817.71582,209.355,817.65332,209.96924Z" transform="translate(-20.38856 -202.2651)"/></svg>