<svg id="Layer_1" data-name="Layer 1" xmlns="http://www.w3.org/2000/svg" viewBox="0 0 583.38564 518.8179"><path d="M588.74609,421.84961c-.15722-.58984-.35156-1.17041-.54687-1.75a14.8069,14.8069,0,0,1-.59863-2.09082c-.07227-.41895-.10743-.89111-.14356-1.39111a17.70884,17.70884,0,0,0-.24121-2.0752c-.71875-3.71289-3.18066-6.05273-5.35352-8.11621-.66406-.63184-1.292-1.228-1.85839-1.84619a16.75334,16.75334,0,0,1-4.4961-8.67041,23.513,23.513,0,0,0-5.38086-12.2666,14.40494,14.40494,0,0,1-2.95117-6.58448,60.45894,60.45894,0,0,1-.88965-6.31787c-.12207-1.15625-.24511-2.312-.40039-3.46484a279.89652,279.89652,0,0,1-2.36816-29.85059c-.09668-3.80273-.3457-7.63379-.58594-11.33838-.17578-2.69921-.35742-5.49023-.47559-8.22558-.02929-.66162-.01855-1.38281-.00976-2.13184.0459-3.77344.1084-8.94092-4.32422-11.499a7.17737,7.17737,0,0,0-7.708.35742,5.14994,5.14994,0,0,1-.69531.35645c-.332.15332-.66406.30957-1.04395.5288a2.17087,2.17087,0,0,1-2.49609-.16064l-.167-.123a49.421,49.421,0,0,0-17.8711-7.55957,11.16066,11.16066,0,0,1-3.209-1.21045l-.209-.10547a23.29718,23.29718,0,0,1-8.28321-6.26269,5.34606,5.34606,0,0,0-4.4375-2.41065c-1.17968.03809-2.89355.55323-4.39257,2.84815a4.20424,4.20424,0,0,1-4.25489,1.94434l-.27832-.02881a35.10841,35.10841,0,0,0-4.5791.08008l-.28418.04a1.36938,1.36938,0,0,1-1.51465-.78955l-.05762-.12109a4.32244,4.32244,0,0,0-2.68359-2.46191,4.886,4.886,0,0,0-3.96289,1.168c-.76465.541-1.45508,1.12256-2.124,1.68457l-.27051.23877a3.06443,3.06443,0,0,1-3.51465.57373l-.31934-.13085a20.85023,20.85023,0,0,0-8.76269-.96h-.05273c-4.17383,0-5.68653,2.41846-6.21582,4.46143a3.86036,3.86036,0,0,1-4.4834,2.80078l-.28809-.04a24.06207,24.06207,0,0,1-5.62793-1.14551l-.10058-.03125c-1.001-.28613-1.99512-.65283-3.04883-1.0415a39.98392,39.98392,0,0,0-3.99317-1.31689,46.83015,46.83015,0,0,0-9.39062-1.70655c-1.91114-.08252-2.15723-.37158-3.52442-1.97363a4.29693,4.29693,0,0,0-3.60546-1.76709c-2.06836.1626-3.20606,2.02246-3.58008,2.63281a21.4432,21.4432,0,0,0-1.85938,4.3003L429.19531,297a3.85514,3.85514,0,0,1-4.9414,2.30469l-.1045-.03516a87.64043,87.64043,0,0,1-8.72851-3.27392,1.73971,1.73971,0,0,1-.80567-.68457,6.5024,6.5024,0,0,0-7.32812-4.76465,2.22848,2.22848,0,0,1-.749-.15235,7.3122,7.3122,0,0,0-9.19239,2.42969,13.53448,13.53448,0,0,1-1.16308,1.16211l-.16016.15527a.27875.27875,0,0,1-.28808.06934l-.18262-.05615c-.3916-.104-.77735-.23-1.16406-.355a20.38377,20.38377,0,0,0-2.001-.57129l-.28223-.04444a.77386.77386,0,0,1-.69824-.7583l-.03809-.398a7.07093,7.07093,0,0,0-1.68945-3.48242c-.87988-1.06054-1.79785-2.08935-2.68555-3.085-.84863-.95215-1.69726-1.90381-2.54785-2.92432a8.848,8.848,0,0,0-6.38965-3.03125,10.70837,10.70837,0,0,0-9.03027,3.75977q-.16992.17358-.30859.311c-.07813-.064-.166-.13672-.26563-.22022a18.48679,18.48679,0,0,0-11.25-4.05957,16.6547,16.6547,0,0,1-6.61328-1.79492,16.93935,16.93935,0,0,0-8.37207-1.74658,33.71832,33.71832,0,0,1-4.33789-.32862c.19434-1.7959.38965-3.65039.41016-5.53613l.001-.09082-.00586-.09082a3.98534,3.98534,0,0,0-6.22363-3.0459l-.21387.16358a4.33372,4.33372,0,0,1-5,.44433l-.30566-.15185a4.39509,4.39509,0,0,0-5.40234.96923c-.43262.4375-.80372.81739-2.9004-.22168-4.32519-2.14453-9.22753-4.57519-12.16015-8.32421-2.75684-3.52491-2.50586-9.22022-2.28418-14.24512l.06152-1.457q.33691-8.83008.63379-17.66358c.63965-18.44238,1.30274-37.51269,2.60352-56.21093.082-1.17188.252-3.61036-1.56641-5.26221a6.17856,6.17856,0,0,0-4.251-1.32813L182.085,161.62744a4.89624,4.89624,0,0,0-5.61572,5.28955c-1.1958,19.13721-2.33643,38.61475-3.43945,57.45117-2.91749,49.82373-5.93458,101.34327-10.27295,151.772-.02393.27539-.04932.4917-.07666.647-.21.01318-.47071.01074-.58155.00781-29.42578-.37939-61.83691-1.7207-102-4.2207-9.17529-.57129-18.5039-1.207-27.72656-1.88965q-6.92871-.51342-13.854-1.06738c-.23584-.01856-.60547-.06836-1.06348-.12793-5.084-.66211-9.76172-.99463-11.11523,2.15478l-.11182.31739a9.67054,9.67054,0,0,0,.3125,6.08545,5.17548,5.17548,0,0,0,2.76269,2.65185c.21778.1167.436.22949.62354.354,4.07861,2.69483,7.28809,5.061,8.37451,8.85157a14.056,14.056,0,0,0,11.78613,10.98437,4.01787,4.01787,0,0,1,3.23682,2.92139l.09912.2959a25.03371,25.03371,0,0,0,7.1582,9.77588c1.66407,1.69091,3.39307,3.34179,5.06592,4.93945,1.31153,1.25293,2.62354,2.50537,3.91065,3.78223a49.61109,49.61109,0,0,0,6.56982,6.63378l.40918.27735a38.03719,38.03719,0,0,0,8.83692,3.46289A8.01609,8.01609,0,0,1,69.8252,436.293a12.31291,12.31291,0,0,0,4.313,3.92383l.146.07324a1.46486,1.46486,0,0,1,.8457,1.2168l.01807.166a22.85321,22.85321,0,0,0,3.89355,9.82324c.87647,1.40235,1.67237,2.84082,2.51416,4.36231.53516.9668,1.0708,1.93457,1.623,2.88476a8.27934,8.27934,0,0,1,1.103,4.31836c-.00391,4.01856.11474,8.10547.228,11.63575a10.77448,10.77448,0,0,0,.6499,4.57714l.05127.126a41.376,41.376,0,0,0,8.9126,12.93262l.18066.16113c1.75684,1.42188,3.376,3,5.09033,4.6709,1.31152,1.27832,2.66651,2.59961,4.09082,3.84473a24.07416,24.07416,0,0,0,12.0791,6.82519l.14893.02832a13.7105,13.7105,0,0,1,8.97656,5.5791,14.13455,14.13455,0,0,0,6.49707,4.832c1.26709.48829,2.794,1.27637,4.41113,2.11133,6.02393,3.10938,14.27442,7.3711,19.666.833,2.13574-2.58887,4.1709-5.28418,6.13916-7.89063q1.03125-1.36815,2.07031-2.73339a19.61721,19.61721,0,0,0,4.32129-9.28516c.40039-2.87793,2.2666-5.20019,4.24268-7.65918.6001-.74609,1.21875-1.51562,1.80761-2.31543a1.53924,1.53924,0,0,1,.57618-.293l.26562-.08594c1.61182-.626,3.23633-1.22363,4.86084-1.82226,3.49512-1.28809,7.10889-2.61914,10.584-4.21973l.13964-.06933a3.88155,3.88155,0,0,1,4.48487.57324l.20166.16894a18.94305,18.94305,0,0,0,12.36133,3.76075c4.47754.24414,8.10449.50293,11.40429.8125,1.7334.16211,3.51075.38281,5.229.59668,2.4375.30273,4.95752.61621,7.48242.78222,1.82519.1211,3.38818,1.25,5.19726,2.55762.32764.23633.65479.47266.98487.7041.26513.18555.5249.35449.77636.51758.73487.47754,1.06934.70508,1.29444,1.10937a9.21985,9.21985,0,0,1,.55566,1.375,11.07524,11.07524,0,0,0,1.2749,2.75684,16.72037,16.72037,0,0,0,3.53028,3.57617c.311.25391.62646.51172.94336.78321,2.66845,2.29394,5.46045,4.48437,8.16015,6.60351l1.1333.88965c.39893.31348.80518.61914,1.21045.9248,1.81641,1.36621,3.38526,2.54688,4.05176,4.3086a15.09055,15.09055,0,0,0,3.33008,4.95312c.23193.25782.46875.51953.70605.791a5.36872,5.36872,0,0,1,1.313,3.30176l.042.36621a38.43669,38.43669,0,0,0,3.4585,10.17187l.65332,1.29c2.84717,5.623,5.79151,11.4375,8.56934,17.2002l.09277.17382a12.02725,12.02725,0,0,1,1.56494,4.67188,5.69048,5.69048,0,0,0,4.13086,5.98535,16.53725,16.53725,0,0,1,9.8418,9.05957l.04492.09766a11.97283,11.97283,0,0,0,.73047,1.25293l.77832,1.25195c4.71142,7.64551,9.58252,15.55176,19.75049,18.46,1.11035.31836,1.92676,1.73242,2.791,3.23047.21582.374.42871.74316.64649,1.09766.15722.25488-.123,1.05664-.37012,1.76367-.168.48242-.332.96289-.45312,1.43847a8.567,8.567,0,0,1-.34571.96485,12.78357,12.78357,0,0,0-.52832,1.501c-.918,3.42773-.23926,5.07226,2.90332,7.03906l.3584.18554a.58754.58754,0,0,1,.3252.74024l-.07422.24805a18.8197,18.8197,0,0,0-.42969,3.50683,17.35783,17.35783,0,0,1-.23926,2.36133c-.88183,4.34961-1.126,6.91992,4.09863,9.15723a9.21052,9.21052,0,0,1,5.57032,8.07129l.02246.25195c.05566.39062.13867.77734.22363,1.16406.06348.28906.13086.57715.166.87012l.02148.14551a27.62567,27.62567,0,0,0,5.01465,11.56347,10.69445,10.69445,0,0,0,5.18359,4.30957q2.05225.76026,4.09864,1.53418c4.54394,1.709,9.24218,3.47657,13.97558,4.96778a27.33922,27.33922,0,0,0,5.0752.9375,20.38745,20.38745,0,0,1,4.50976.86621,55.86073,55.86073,0,0,1,8.14844,4.97656,13.72074,13.72074,0,0,0,9.90332,2.374c7.59668-1.07715,16.19531.79,21.39063,4.6416a16.12086,16.12086,0,0,0,3.249,1.86524c.41016.1748.80957.376,1.20605.57422a10.46406,10.46406,0,0,0,4.67969,1.4209,6.475,6.475,0,0,0,2.79492-.64356c1.89551-.89258,5.17578-2.834,5.83692-5.7998a4.96627,4.96627,0,0,0-1.12891-4.30664,13.78646,13.78646,0,0,1-3.14941-7.76856l-.03223-.251A150.145,150.145,0,0,0,413.791,635.5918a8.757,8.757,0,0,1-.50293-5.17383c.36523-1.51953.72168-3.04,1.0791-4.56152.83789-3.57032,1.7041-7.26172,2.65625-10.84668.83105-3.127,1.76269-6.47657,2.84863-10.23926.22852-.793.54981-1.68457.88965-2.62793a23.68094,23.68094,0,0,0,1.7998-7.38574c.03711-3.24122-2.12109-4.69141-3.41015-5.55762a4.0075,4.0075,0,0,1-1.22949-1.01074,4.94432,4.94432,0,0,1,.46679-.8584,9.85466,9.85466,0,0,0,.96875-1.88281.94992.94992,0,0,1,1.03223-.61915l.20215.02247a12.22256,12.22256,0,0,0,1.52441-.02539,6.2519,6.2519,0,0,1,.93457-.02149,8.68753,8.68753,0,0,0,9.07324-4.7373c.78223-1.23047,1.68848-2.40235,2.64746-3.64161.7461-.96386,1.51758-1.96191,2.29-3.08105a4.63354,4.63354,0,0,1,3.291-2.11133,21.1,21.1,0,0,0,8.48437-2.6416,115.56054,115.56054,0,0,0,13.71094-8.64551l.19629-.16113a10.61214,10.61214,0,0,1,2.03613-1.44629c2.06739-1.02344,4.124-2.07324,6.18067-3.124,5.22851-2.668,10.63476-5.42774,16.13867-7.68164A116.895,116.895,0,0,0,506.499,536.83008a127.0048,127.0048,0,0,0,15.67286-13.13281,29.73922,29.73922,0,0,1,5.11621-3.792,115.63619,115.63619,0,0,0,10.14648-7.14843,7.59254,7.59254,0,0,0,2.416-2.91407,8.0144,8.0144,0,0,1,4.75488-4.123l.2334-.08789q1.79444-.77637,3.582-1.56934c2.47461-1.09082,5.0332-2.21973,7.56348-3.24121,4.57617-1.84961,9.2871-3.60449,13.29-5.07715a22.75786,22.75786,0,0,1,2.54981-.69824,18.14509,18.14509,0,0,0,4.86816-1.65039c2.72266-1.52442,2.66211-4.10547,2.627-5.64746l-.00879-.333a12.12529,12.12529,0,0,1,1.292-6,25.31094,25.31094,0,0,0,2.418-10.82129l-.00293-.11816a34.0773,34.0773,0,0,1,1.39844-11.52637,5.16473,5.16473,0,0,0-1.54786-6.30567c-1.07714-.80859-1.72656-1.29687.06055-3.88378.46289-.6709.86231-1.34668,1.248-2.001.33105-.56055.64355-1.0918.97656-1.583a17.56809,17.56809,0,0,0,3.41895-10.34668,35.41191,35.41191,0,0,1,.33007-4.09668c.14258-1.20215.291-2.44531.34278-3.71972A16.92842,16.92842,0,0,0,588.74609,421.84961Zm-4.49707,4.96c-.04394,1.08008-.17382,2.17481-.31152,3.333a39.59992,39.59992,0,0,0-.36523,4.67871,12.52963,12.52963,0,0,1-2.46289,7.41309l-.06153.08593c-.43359.6377-.8125,1.27832-1.17773,1.89844-.35645.60449-.69336,1.1748-1.05469,1.69824-3.73535,5.40723-1.49023,8.81641,1.02148,10.70215a.17283.17283,0,0,1,.04688.21875l-.18945.45215a39.10461,39.10461,0,0,0-1.67383,13.37207,20.24314,20.24314,0,0,1-1.91211,8.5625,17.00936,17.00936,0,0,0-1.79492,8.35156l.00683.28906a7.06355,7.06355,0,0,1-.02734,1.14161.48682.48682,0,0,1-.04492.02734,14.37761,14.37761,0,0,1-3.56641,1.14453,26.80789,26.80789,0,0,0-3.13281.87207c-4.04,1.48731-8.79688,3.25879-13.4375,5.13379-2.60254,1.05176-5.19824,2.19629-7.708,3.30273q-1.71972.75879-3.44336,1.50977a13.05839,13.05839,0,0,0-7.625,6.69922,2.6191,2.6191,0,0,1-.85449,1.02637l-.09961.07422a110.41774,110.41774,0,0,1-9.68848,6.835,34.644,34.644,0,0,0-5.97363,4.45019,122.23336,122.23336,0,0,1-15.0752,12.64356A111.73242,111.73242,0,0,1,485.1582,542.9248c-5.65039,2.3125-11.15136,5.1211-16.4707,7.83594-2.03809,1.041-4.07715,2.082-6.19727,3.13379a15.61939,15.61939,0,0,0-2.998,2.09082,110.8878,110.8878,0,0,1-13.06739,8.22559,16.31731,16.31731,0,0,1-6.60742,2.05078,9.60318,9.60318,0,0,0-6.918,4.3125c-.64648.93457-1.34375,1.83691-2.082,2.791-1.01758,1.31446-2.06836,2.67286-2.99609,4.15039l-.13867.251a3.74392,3.74392,0,0,1-3.95215,2.084,9.64834,9.64834,0,0,0-1.93067-.01563c-.30078.01953-.585.0332-.8125.0293a5.97725,5.97725,0,0,0-6.335,3.89258,5.878,5.878,0,0,1-.5166.94433,5.60842,5.60842,0,0,0-.92578,5.084,7.15909,7.15909,0,0,0,3.15332,3.56445c1.2041.80957,1.20313.91309,1.19824,1.34961a20.031,20.031,0,0,1-1.5039,5.749c-.36817,1.02149-.71582,1.98731-.99024,2.93653-1.0957,3.79687-2.03613,7.17968-2.876,10.34179-.97071,3.65528-1.84571,7.38282-2.69141,10.98731-.35547,1.51269-.71094,3.02636-1.08789,4.60156a13.68869,13.68869,0,0,0,.73144,8.11816,145.04078,145.04078,0,0,1,6.91211,25.00879,18.75664,18.75664,0,0,0,4.27442,10.44043c.03222.04.05566.07227.07226.09766a7.09129,7.09129,0,0,1-3.06152,2.29394c-.74707.34766-1.334.15918-3.11035-.72656-.48438-.24219-.97363-.48535-1.47363-.69922a11.15018,11.15018,0,0,1-2.23926-1.28418c-5.09278-3.77734-12.53223-5.92968-19.94434-5.92968a36.78257,36.78257,0,0,0-5.13086.35449,8.71062,8.71062,0,0,1-6.27539-1.48242,60.5955,60.5955,0,0,0-8.96094-5.45411l-.21484-.09472a23.73292,23.73292,0,0,0-5.81055-1.2002,23.16129,23.16129,0,0,1-4.16406-.74219c-4.60351-1.44921-9.2373-3.19238-13.71777-4.87792-1.37305-.51661-2.7461-1.03321-4.07422-1.52442a5.6278,5.6278,0,0,1-2.75293-2.3291l-.14551-.2168a22.60258,22.60258,0,0,1-4.15234-9.47851c-.05957-.46289-.15332-.88965-.23731-1.26953-.0498-.22754-.10156-.45606-.13964-.68555a14.22943,14.22943,0,0,0-8.59571-12.32422,6.6124,6.6124,0,0,1-1.57715-.8291,15.63367,15.63367,0,0,1,.415-2.73828,21.24765,21.24765,0,0,0,.33008-3.06543,15.84126,15.84126,0,0,1,.27148-2.50684,5.58907,5.58907,0,0,0-2.93164-6.79,8.28378,8.28378,0,0,1-.7871-.5498c.02734-.16211.08593-.42969.20312-.86817a8.989,8.989,0,0,1,.33789-.93164,12.338,12.338,0,0,0,.55273-1.59863c.08594-.33691.208-.67676.32715-1.01855.52149-1.49317,1.30957-3.75-.08886-6.02735-.19434-.3164-.38477-.64746-.57715-.98144-1.19922-2.07813-2.69141-4.665-5.748-5.53809-8.30176-2.376-12.46289-9.12793-16.86816-16.27637l-.82813-1.332c-.16308-.2539-.31836-.49511-.42187-.69922a21.54664,21.54664,0,0,0-12.87744-11.7705l-.15381-.0459a.70046.70046,0,0,1-.51465-.78516l.04736-.31055-.03027-.3125a17.00005,17.00005,0,0,0-2.19922-6.87207c-2.78662-5.77832-5.727-11.585-8.57129-17.20117l-.65185-1.28711a33.45565,33.45565,0,0,1-2.97657-8.68261,10.38272,10.38272,0,0,0-2.53125-6.1875c-.25683-.29493-.51172-.57715-.7622-.8545a10.67535,10.67535,0,0,1-2.36475-3.373c-1.17969-3.11719-3.59326-4.93262-5.72266-6.53516-.37646-.2832-.7539-.56738-1.12549-.85937l-1.13769-.89258c-2.65674-2.085-5.40332-4.24024-7.98828-6.46192-.34912-.2998-.69678-.584-1.03858-.86328a12.44309,12.44309,0,0,1-2.56738-2.52832,7.027,7.027,0,0,1-.67822-1.57519,13.27412,13.27412,0,0,0-.90918-2.16309,7.95723,7.95723,0,0,0-2.94141-2.87207c-.2041-.13281-.41455-.26953-.6289-.41895-.31006-.21777-.61817-.44043-.92627-.66308-2.12647-1.53613-4.53711-3.27832-7.79688-3.49219-2.38037-.15723-4.82763-.46094-7.19433-.75586-1.75538-.21777-3.57032-.44336-5.37891-.61328-3.3999-.31836-7.12988-.584-11.73731-.834l-.14306-.00782-.14307.00879a13.99591,13.99591,0,0,1-9.11767-2.69433,8.88065,8.88065,0,0,0-10.07325-1.252c-3.27783,1.50586-6.77441,2.79395-10.15673,4.04-1.61231.59375-3.2251,1.1875-4.82569,1.80762a6.54937,6.54937,0,0,0-2.78174,1.63574l-.26367.30762c-.56054.77344-1.1665,1.52734-1.80762,2.32519-2.20654,2.74512-4.70751,5.85645-5.28369,10.01075a14.54712,14.54712,0,0,1-3.2373,6.87988l-.08252.10254q-1.0686,1.39893-2.12451,2.80371c-1.936,2.56445-3.938,5.21582-6.00537,7.72168-2.62159,3.17969-7.25586,1.13769-13.51563-2.09375a51.89027,51.89027,0,0,0-4.95508-2.35254,9.15808,9.15808,0,0,1-4.21631-3.10742,18.64628,18.64628,0,0,0-12.12011-7.541,19.08069,19.08069,0,0,1-9.57324-5.46386l-.17041-.16309c-1.35059-1.17578-2.624-2.417-3.97217-3.73047-1.69092-1.64844-3.439-3.35254-5.3374-4.89844A36.39347,36.39347,0,0,1,89.81934,477.459a5.74444,5.74444,0,0,1-.3169-2.46777l.01465-.1543-.00537-.15527c-.11328-3.52441-.23389-7.61816-.23047-11.57031a13.23585,13.23585,0,0,0-1.77686-6.876c-.53759-.9248-1.05566-1.86133-1.57373-2.79785-.84814-1.53223-1.72509-3.11719-2.688-4.65332l-.07618-.11426a17.8269,17.8269,0,0,1-3.05908-7.63965,6.471,6.471,0,0,0-3.63867-5.23828,7.25977,7.25977,0,0,1-2.47852-2.26465,13.0509,13.0509,0,0,0-7.30273-5.373,33.31046,33.31046,0,0,1-7.5459-2.915,44.58075,44.58075,0,0,1-5.791-5.896l-.17627-.19482c-1.34034-1.332-2.707-2.6377-4.07422-3.94287-1.67481-1.59961-3.40723-3.25391-5.04248-4.91944l-.19629-.17968a20.01628,20.01628,0,0,1-5.75488-7.75782,9.04587,9.04587,0,0,0-7.2837-6.40527,9.069,9.069,0,0,1-7.64453-7.14209l-.03955-.16455c-1.65185-5.93848-6.5332-9.16406-10.45508-11.75537-.30615-.20215-.65771-.39551-1.01318-.58692-.16992-.09131-.3999-.21484-.562-.31347a4.64775,4.64775,0,0,1-.21094-1.87989,26.1216,26.1216,0,0,1,5.91211.3462c.56348.07324,1.02.13085,1.31006.15429q6.93969.55518,13.8833,1.06934c9.24219.68408,18.59033,1.32129,27.78516,1.89355,40.24658,2.50537,72.73632,3.84961,102.24511,4.23047a4.96381,4.96381,0,0,0,5.70508-5.227c4.34473-50.49609,7.36377-102.05029,10.2832-151.90723,1.10254-18.83154,2.24317-38.30468,3.438-57.43164.01563-.24853.03418-.44873.05469-.59912.1875-.00781.40137-.00439.49707-.00342l119.18994,1.74708a7.15822,7.15822,0,0,1,.90332.05517,5.802,5.802,0,0,1-.001,1.188c-1.30664,18.78564-1.97071,37.8999-2.61231,56.38525q-.30615,8.82423-.63281,17.646l-.06055,1.42725c-.24707,5.59863-.55469,12.56591,3.34082,17.54638,3.63184,4.644,9.31348,7.46045,13.87793,9.72315,1.44043.71484,5.23535,2.59765,8.55274-.61914a9.33582,9.33582,0,0,0,8.62695.15625c-.0752,1.02685-.1875,2.06982-.30469,3.14892l-.03711.34668a4.15265,4.15265,0,0,0,3.80957,4.92285,38.83638,38.83638,0,0,0,5.584.4541l.08007.00049.07911-.00439a11.93046,11.93046,0,0,1,5.93554,1.21728,21.58832,21.58832,0,0,0,8.62989,2.32276l.10937.0039a13.42849,13.42849,0,0,1,8.19336,2.92188c3.19727,2.68945,4.999,1.93262,7.39746-.53125l.13477-.1499a5.69008,5.69008,0,0,1,4.89062-2.04346l.165.00928a3.81366,3.81366,0,0,1,2.77442,1.2749c.86035,1.03369,1.75683,2.03906,2.624,3.01172.86816.97412,1.7666,1.98193,2.59961,2.98633l.07422.08642a2.06966,2.06966,0,0,1,.48047.90381,5.773,5.773,0,0,0,5.02148,5.37549c.44238.103.91406.25586,1.41113.4165.44434.144.88867.28662,1.33887.40869a5.27336,5.27336,0,0,0,5.38086-1.29834,18.47074,18.47074,0,0,0,1.6543-1.68066l.207-.27539a2.33227,2.33227,0,0,1,3.01562-.77686,7.30163,7.30163,0,0,0,3.13672.61182l.44043-.05127a1.49433,1.49433,0,0,1,1.12891.21484,1.47473,1.47473,0,0,1,.63867.91163l.082.38134.11719.25a6.69616,6.69616,0,0,0,3.46777,3.34131,92.13636,92.13636,0,0,0,9.14063,3.42969,8.85547,8.85547,0,0,0,11.30468-5.33594l.03711-.104a22.028,22.028,0,0,1,1.15039-2.89942,7.9176,7.9176,0,0,0,6.40625,3.0127,42.04612,42.04612,0,0,1,8.38477,1.541,36.20427,36.20427,0,0,1,3.57422,1.1836c1.07715.39746,2.19043.8081,3.35254,1.14306a29.05667,29.05667,0,0,0,6.61426,1.35645,8.8617,8.8617,0,0,0,10.15039-6.47168c.14941-.57422.19824-.74707,1.499-.72168l.16211.00342.16113-.01807a15.92213,15.92213,0,0,1,6.65332.67237,8.06516,8.06516,0,0,0,8.99414-1.51465l.04785-.04c.51368-.43262,1.00391-.84473,1.49707-1.21387a6.40867,6.40867,0,0,0,6.44727,2.84082,30.06665,30.06665,0,0,1,3.67578-.06445,9.15978,9.15978,0,0,0,9.11914-4.22168,2.84823,2.84823,0,0,1,.332-.42725,2.6565,2.6565,0,0,1,.32227.36524l.08008.10156a28.32551,28.32551,0,0,0,10.00976,7.61914,16.12832,16.12832,0,0,0,4.55078,1.69531,44.47426,44.47426,0,0,1,16.00293,6.749,7.15526,7.15526,0,0,0,8.09864.49853c.1875-.10742.38671-.19531.584-.28662a8.94539,8.94539,0,0,0,1.49707-.81934,2.15722,2.15722,0,0,1,2.31641-.105c1.76074,1.01563,1.86621,3.58643,1.82324,7.10694-.00977.84131-.01953,1.63574.01367,2.41015.12207,2.78907.30469,5.60694.48145,8.33252.23828,3.65625.48339,7.437.57812,11.14112a284.62689,284.62689,0,0,0,2.41113,30.38818c.14844,1.10742.26563,2.2168.38282,3.32617a64.9078,64.9078,0,0,0,.9541,6.74121,19.3591,19.3591,0,0,0,4.00488,8.81885,18.586,18.586,0,0,1,4.27442,9.71094c.65429,5.167,3.8955,9.37207,5.76953,11.41894.68359.74658,1.40527,1.43164,2.10254,2.09424,1.86425,1.771,3.47363,3.30078,3.88867,5.44141a13.40339,13.40339,0,0,1,.16211,1.49219,14.90418,14.90418,0,0,0,.99218,4.71337c.16016.47705.32325.95362.45215,1.438A12.08517,12.08517,0,0,1,584.249,426.80957Z" transform="translate(-5.87914 -161.62351)"/></svg>