<svg id="Layer_1" data-name="Layer 1" xmlns="http://www.w3.org/2000/svg" viewBox="0 0 517.47101 610.52703"><path d="M556.59277,703.28027c-2.0332-59.80175-4.85449-143.041-7.54687-222.47265-6.68067-197.08985-8.14356-240.10645-8.1836-240.67237a10.26219,10.26219,0,0,0-1.85644-5.39648c-2.959-3.852-8.42676-3.54932-11.05176-3.40479-19.8164,1.09473-40.06836,2.58448-59.65234,4.02588-39.28614,2.89063-79.91016,5.87989-119.54395,5.87989l-.13769.0039a4.847,4.847,0,0,1-2.25586-.19873c-.5459-.40625-.60059-2.17285-.6211-2.83935l-.28418-9.043c-1.03808-33.12891-2.1123-67.38623-3.22363-101.07862-.07617-2.30664-.18066-5.46582-2.0332-8.0166-2.585-3.561-7.08106-4.21386-11.1377-4.3833-3.37011-.13867-26.80566.55127-59.2373,1.50733-59.79151,1.76269-150.1499,4.42675-200.18506,4.42724-4.07129.08838-8.30225.42041-11.35938,3.36475-3.1958,3.07812-3.583,7.48389-3.70556,11.73242-.00684.24414-.17822,6.769-.48291,18.36377C45.54443,480.63965,41.25928,639.584,39.17041,715.59473c-.05518,2.01953-.14795,5.40039,2.00684,7.833,2.3164,2.61524,5.981,2.76563,8.19873,2.76563.15185,0,.29687,0,.43408-.001,149.00732,0,311.54834-3.88476,496.91162-11.87695,2.05762-.08984,5.167-.22363,7.40918-2.37012C556.80078,709.39062,556.665,705.415,556.59277,703.28027Zm-5.91894,5.05274c-.81543.78027-2.4375.91211-4.168.98633-185.29,7.98925-347.76074,11.873-496.708,11.873-1.87842.002-3.98-.06543-4.87744-1.0791-.78027-.88086-.79932-2.64746-.75195-4.38183,2.08886-76.01075,6.374-234.958,14.92431-560.52051.3042-11.58643.4751-18.10645.48243-18.35059.09277-3.21631.3374-6.50439,2.17626-8.27539,1.75977-1.69531,4.78809-1.89795,7.94483-1.9668,50.05469,0,140.457-2.66552,200.27832-4.4292,28.62891-.84375,51.72168-1.5249,57.71582-1.5249.51953,0,.91113.00537,1.166.01612,2.86132.11914,5.96582.48828,7.2998,2.32519.87988,1.21192,1.01074,3.0918,1.08105,5.24365,1.11231,33.68848,2.18555,67.94336,3.22461,101.07032l.28321,9.042c.04883,1.57324.14941,4.84765,2.63574,6.6958a8.09389,8.09389,0,0,0,5.44531,1.18262c39.79688-.00342,80.48731-2.99756,119.84278-5.89356,19.56152-1.43945,39.79-2.92773,59.56054-4.02,2.69434-.14941,5.61817-.09277,6.81153,1.458a5.26485,5.26485,0,0,1,.83789,2.75684c.12109,2.97314,4.03125,118.33984,8.16992,240.43554,2.69238,79.43164,5.51367,162.67188,7.54687,222.47364C551.65918,705.3252,551.64648,707.40234,550.67383,708.333Z" transform="translate(-39.15023 -115.66633)"/></svg>