<svg id="Layer_1" data-name="Layer 1" xmlns="http://www.w3.org/2000/svg" viewBox="0 0 450.419 793.3372"><path d="M522.68652,158.87793a64.87751,64.87751,0,0,0-16.916-40.38135,79.37083,79.37083,0,0,1-17.959-51.43994c-.00586-.82519.01563-1.95459.04-3.31152.29883-16.31787-.36426-32.1792-7.18457-37.69678a8.74891,8.74891,0,0,0-7.751-1.6543C373.72656,47.4873,273.00342,71.99023,175.5957,95.686q-43.43628,10.56664-86.86523,21.10546c-5.39746,1.3086-10.91992,2.98584-13.939,7.76368-2.29052,3.626-2.34521,7.873-2.20507,11.91259A217.89062,217.89062,0,0,0,87.1416,208.60889l.0752.17285a338.84611,338.84611,0,0,1,14.98535,36.3833l.04639.124c18.978,46.8042,37.62207,101.56153,18.48144,159.15576l-.05176.17872a38.30585,38.30585,0,0,0,6.88965,32.67626q4.54614,7.59669,9.022,15.23829c6.623,11.24707,13.47217,22.87793,20.62061,34.08007l.231.30664a51.562,51.562,0,0,1,7.605,56.96387c-1.92041,3.53613-2.23389,7.12695-.88233,10.11426.99756,2.20508,3.40869,5.10742,9.28516,6.42285a68.84976,68.84976,0,0,1,54.5293,55.86328c4.20117,23.81055,11.50634,47.63086,18.5708,70.667,2.04248,6.65918,4.15429,13.54493,6.13818,20.26758,5.57715,18.89356,10.375,38.76465,14.26025,59.06153,2.09864,10.96,3.80274,21.79785,5.05274,30.01464.13623.89551.25342,1.85352.375,2.84571.75928,6.20508,1.7998,14.70312,9.11279,17.55176a19.99023,19.99023,0,0,0,6.53613.75878c7.27247,0,18.61719-1.417,30.24512-3.05078.99121-.13965,1.832-.25781,2.48242-.3457,15.17774-2.05469,79.77735-13.39746,95.38379-18.41113,5.333-1.71192,11.85938-4.38965,15.02149-9.93946,2.61425-4.58789,1.76562-9.291,1.0166-13.44043a34.911,34.911,0,0,1-.68457-5.22558c-.14551-5.68848.78711-11.97754,1.53711-17.03027,2.02343-13.62989,2.167-27.97461,2.14355-40.34961-.00293-1.47364.00391-2.958.01172-4.44825.05176-10.77246.10547-21.91211-3.58105-32.31054-1.23829-3.49317-2.77637-6.88672-4.26465-10.168-2.74414-6.05274-5.33692-11.76953-6.21485-18.07715-1.82617-13.12012.06543-26.7959,1.89453-40.02148l.28126-2.03711A1481.89785,1481.89785,0,0,0,436.79,372.12256c-.14258-4.48438-.16309-9.0459-.18262-13.457-.0957-21.35449-.19531-43.43653-14.13672-64.21973-4.25-6.3374-5.56152-12.31738-3.89746-17.77344,1.95215-6.40136,7.9502-11.814,17.34571-15.65381l.124-.05419a219.64714,219.64714,0,0,0,64.30762-46.14747A66.5259,66.5259,0,0,0,522.68652,158.87793Zm-25.707,52.24512-.15527.14746A214.66251,214.66251,0,0,1,433.96484,256.416c-10.79785,4.42675-17.77343,10.92578-20.17382,18.79785-2.09375,6.86523-.52832,14.47851,4.52734,22.01709,13.10059,19.53027,13.19238,39.896,13.28906,61.457.02051,4.44433.041,9.04053.1836,13.563a1476.64416,1476.64416,0,0,1-13.44727,229.668l-.28125,2.0332c-1.876,13.56347-3.81543,27.58887-1.89355,41.39648.97753,7.02344,3.84277,13.3418,6.61328,19.45215,1.44433,3.18652,2.93847,6.48145,4.10547,9.77442,3.3955,9.57617,3.34375,20.27148,3.29394,30.61523-.00781,1.50195-.01465,2.99805-.01172,4.48242.02344,12.19434-.11719,26.31738-2.08887,39.60547-.7373,4.96777-1.74707,11.77148-1.58984,17.89356a39.208,39.208,0,0,0,.76172,5.98535c.68457,3.792,1.27637,7.0664-.43945,10.07715-2.3086,4.05078-7.73633,6.21777-12.207,7.65429-14.667,4.71094-77.22364,15.875-94.52442,18.21582-.6582.08887-1.50683.209-2.50781.34961-19.94873,2.80469-31.47852,3.67285-34.26953,2.585-4.52979-1.76465-5.293-8-5.9668-13.501-.12744-1.042-.251-2.04883-.394-2.99024-1.25684-8.26172-2.97071-19.16015-5.085-30.20215-3.916-20.457-8.75293-40.48828-14.376-59.53808-1.99121-6.74707-4.10742-13.64649-6.15332-20.31739-7.02-22.8916-14.2793-46.5625-18.42725-70.07031a73.80059,73.80059,0,0,0-58.41308-59.88476c-2.104-.47168-4.8125-1.47657-5.76953-3.59278-.9375-2.07226.061-4.46289.73974-5.70312l.0503-.09571a56.54109,56.54109,0,0,0-8.18653-62.375c-7.06347-11.07714-13.856-22.6123-20.4248-33.76757q-4.54248-7.71387-9.12061-15.40332l-.17969-.26075a33.27178,33.27178,0,0,1-6.09277-28.40625c19.62061-59.1499.69678-114.86572-18.59814-162.459A343.88635,343.88635,0,0,0,91.7627,206.69727a212.92678,212.92678,0,0,1-14.1792-70.40284c-.11329-3.26025-.09571-6.6455,1.43554-9.06836,2.022-3.20117,6.30469-4.46386,10.88916-5.57519q43.43189-10.5271,86.86963-21.10645c97.39551-23.69336,198.10694-48.19287,297.271-71.28027a3.73,3.73,0,0,1,3.47265.67139c5.86231,4.74218,5.47657,25.79345,5.33106,33.71826-.02539,1.40771-.04688,2.57959-.041,3.38281a84.34068,84.34068,0,0,0,19.13868,54.686l.08984.104a59.86784,59.86784,0,0,1,15.65527,37.35742l.00781.10205A61.51325,61.51325,0,0,1,496.97949,211.12305Z" transform="translate(-72.54157 -24.11885)"/></svg>