<svg id="Layer_1" data-name="Layer 1" xmlns="http://www.w3.org/2000/svg" viewBox="0 0 806.87877 364.37581"><path d="M823.7041,451.83789c-2.27539-5.54492-4.66308-11.13672-7.09765-16.61816-.54493-1.22461-1.03418-2.34375-1.48145-3.36524-4.96777-11.34863-5.72949-12.38086-16.23828-11.68847-1.876.123-4.21094.27636-7.04.35742a196.39662,196.39662,0,0,1-19.73145-.39551c-4.30957-.30859-7.085-1.06543-8.51367-4.02051-.32422-.66992-.47265-.97558,2.6211-2.55078l.2832-.14453c.77637-.39844,1.583-.749,2.43652-1.12109,2.7168-1.18262,5.7959-2.52344,7.89942-5.63184a12.35315,12.35315,0,0,0,.97168-12.07227,18.51976,18.51976,0,0,0-4.76758-6.38671l-.1211-.09864c-4.4121-3.34472-6.62011-8.249-8.958-13.4414-2.14258-4.75782-4.35547-9.67383-8.40723-13.62207a5.6069,5.6069,0,0,1,.62988-6.9668l.15723-.18067c.63086-.79785.708-.90429,2.99121.41993a13.59143,13.59143,0,0,0,2.97656,1.40918,11.16554,11.16554,0,0,1,2.07325.97265,16.61269,16.61269,0,0,0,2.77343,1.29395c2.73731,1.10156,4.8291.9707,6.21875-.38867,2.51074-2.46.74512-7.02539-.67383-10.69336-.24609-.63477-.5-1.292-.58593-1.59766a27.44418,27.44418,0,0,1-.65137-10.34473,12.21176,12.21176,0,0,0-2.20605-8.16308,10.72036,10.72036,0,0,1-1.07325-10.60449l.10254-.26758a84.8601,84.8601,0,0,0,2.916-12.3711,11.40914,11.40914,0,0,0-6.25293-13.17431,49.11619,49.11619,0,0,0-8.28418-2.937,25.24075,25.24075,0,0,1-13.69922-8.51612,39.36833,39.36833,0,0,0-28.12891-13.79638,43.21135,43.21135,0,0,1-6.48144-1.07325,20.575,20.575,0,0,1-7.65235-3.32568,91.11424,91.11424,0,0,0-29.36816-16.66455c-11.89648-4.7832-14.2959-8.88574-12.8291-21.91309a18.85547,18.85547,0,0,1,5.73047-11.75,42.611,42.611,0,0,0,11.79394-19.77685,14.14385,14.14385,0,0,0-3.38965-14.94873,61.48812,61.48812,0,0,0-22.95214-16.82813l-3.1211-1.09717c-5.02929-1.76367-10.22949-3.5874-15.46484-5.08935-6.45313-1.85156-6.48145-1.85938-6.01074-9.06445a55.95027,55.95027,0,0,0,.51757-5.67286c.22266-5.66211-4.92382-8.36377-8.33007-10.15185l-.5752-.30322c-.20215-.10694-.42285-.229-.6582-.35889-2.1377-1.17773-5.36719-2.96045-8.22949-1.86963-3.82227,1.45508-5.51856,7.06641-6.75684,11.16357-.26758.88672-.499,1.65235-.70117,2.19825-.166.45117-.33985.96338-.52735,1.51367-.78027,2.30029-2.08691,6.15039-3.79785,6.81689-2.00781.78418-6.75488-2.99218-9.03418-4.80566-.82422-.65625-1.53711-1.22315-2.16308-1.66211-11.53809-8.08936-23.18262-15.38818-36.11621-23.41064-1.86329-1.15577-4.65235-2.56885-7.35938-1.49805-2.72851,1.0791-3.82812,4.1206-4.417,6.314a69.84347,69.84347,0,0,0-1.72266,8.49219,49.10505,49.10505,0,0,1-12.27929,27.10449,93.47561,93.47561,0,0,0-9.59375,12.4795,16.34,16.34,0,0,1-7.71094,6.73437,31.24042,31.24042,0,0,0-20.2461,18.63135l-.14648.52148a3.54606,3.54606,0,0,1-4.31738,2.54981l-.25782-.05225a43.38577,43.38577,0,0,0-7.28515-.46142c-8.08887.04687-9.07617.75732-11.72949,8.44238l-.15137.43994c-2.38477,6.89453-4.89649,13.88281-7.32617,20.64062q-2.14453,5.97-4.27442,11.94483c-1.26465,3.55908-2.24511,4.70605-4.03906,4.71973-13.999.125-21.96191-3.9043-26.56055-13.40772l-.06152-.15625c-1.15039-2.93066-2.72656-6.94482-6.082-8.7793a5.786,5.786,0,0,0-5.37744-.26513,5.3413,5.3413,0,0,0-2.8584,4.07666,89.61834,89.61834,0,0,1-3.85693,15.50927,425.87467,425.87467,0,0,1-20.84961,40.105c-5.6919,9.28174-12.26563,18.29493-18.62305,27.01172-2.93848,4.03028-5.97754,8.19727-8.85107,12.28223-.334.44238-.69288.90527-1.06446,1.38574-2.71631,3.50586-6.09668,7.86914-6.50976,12.48438a22.41928,22.41928,0,0,0,.84472,7.21191,16.845,16.845,0,0,1,.686,6.08887c-.83545,5.73047-3.63233,11.126-7.29932,14.082a47.47928,47.47928,0,0,1-6.27295,4.03223c-1.41113.80761-2.87011,1.64355-4.27539,2.56445a2.434,2.434,0,0,1-1.81494.34473c-8.69727-3.541-15.47949.56933-21.46777,4.19921-.8125.49317-1.623.98438-2.43555,1.45508l-.22021.14356a10.85908,10.85908,0,0,1-11.58106.72265c-7.7417-3.918-10.50439-2.32324-14.40918,4.13575-1.07373,1.77636-2.041,3.61425-2.97607,5.39062-.56348,1.07129-1.127,2.1416-1.71387,3.19922l-.08984.17871a11.627,11.627,0,0,1-11.01368,6.81836,140.08968,140.08968,0,0,0-15.48095.96973l-.16748.02539a17.6484,17.6484,0,0,1-13.74561-3.15918c-5.915-4.87012-10.95752-2.60352-15.22217-.09571l-.10547.06641a34.62925,34.62925,0,0,1-36.729.95313l-.24121-.124c-8.76709-3.9248-13.04443-10.98633-17.99707-19.16308l-.229-.37793c-1.62745-2.6875-3.86573-4.2295-6.30176-4.34473-3.90772-.18652-8.44629,3.13672-12.45069,6.06836-1.12793.82519-2.19287,1.60547-2.96386,2.0791l-3.3291,2.0459q-6.16993,3.791-12.33155,7.59473a218.80883,218.80883,0,0,0-18.84765,11.95117l-.08252.06152c-6.0542,4.67383-12.02637,9.62793-17.80176,14.419-5,4.14843-10.16944,8.43652-15.35156,12.50781a17.27251,17.27251,0,0,0-8.4126,12.72754,5.44015,5.44015,0,0,1-4.11133,4.708l-.32812.10449c-1.98877.78808-4.04395,1.54687-6.03125,2.28125l-4.63038,1.72265c-8.05078,3.0127-15.65429,5.8584-23.92675,7.40528-3.28174.61328-6.81348,2.99707-6.8125,6.78125.00195,4.042,3.77343,6.71875,9.84277,6.98633,25.94385,1.13964,52.25684,2.2666,78.209,3.34863q9.29883.38671,18.59815.76758,10.37841.42627,20.75586.8584c1.728.07226,3.53076.1914,5.376.31347,7.50538.4961,16.01514,1.05957,23.22266-1.32031,6.104-2.01856,12.60742-3.958,19.125-3.86133,4.7793.13281,9.69336,1.67188,14.3169,3.23633,11.63085,3.93457,23.76513,4.16309,35.5,4.38379,2.478.04687,4.9663.09375,7.46435.17383,14.356.46,29.25244.8623,44.2749,1.19629,27.91846.623,56.8877,1.03418,88.562,1.25781q18.68848.13184,37.39844.13183c65.22608,0,130.59522-1.19824,194.80322-3.57421q9.76318-.36183,19.541-.70508c60.50293-2.15528,123.06445-4.38477,183.68945-14.20508,3.31348-.53613,4.81934-2.09766,5.499-3.3125A6.565,6.565,0,0,0,823.7041,451.83789Zm-4.38476,3.47949c-.14356.25586-.73633.624-1.93457.81836-60.31641,9.77051-122.71973,11.99317-183.06836,14.14356q-9.78077.34863-19.54883.70605c-76.417,2.82813-154.46387,3.98828-231.981,3.43848-31.64892-.22266-60.59277-.63379-88.48584-1.25586-15.00635-.334-29.88623-.73633-44.22607-1.19629-2.52-.08008-5.03028-.12793-7.53028-.1748-11.87695-.22364-23.09521-.43458-33.9917-4.1211-4.98388-1.68652-10.30761-3.3457-15.80517-3.499q-.32812-.00587-.65527-.00586c-7.085,0-13.83545,2.03027-20.15284,4.11816-6.27978,2.0752-13.92822,1.56934-21.32373,1.0791-1.88672-.124-3.73-.24609-5.49707-.32031q-10.37988-.43359-20.75927-.8584-9.29811-.38085-18.59571-.76757c-25.94824-1.082-52.25781-2.208-78.19726-3.34766-2.791-.12305-5.062-1.01758-5.0625-1.99317,0-.7207,1.27636-1.59277,2.73144-1.86523,8.69873-1.626,16.50049-4.5459,24.76026-7.63574l4.61035-1.71582c1.96533-.72559,3.9956-1.47559,5.99023-2.26367a10.432,10.432,0,0,0,7.71436-8.94336,12.22262,12.22262,0,0,1,6.07861-9.05078l.3125-.209c5.2832-4.14648,10.52734-8.49707,15.59912-12.7041,5.72949-4.75391,11.65381-9.668,17.62549-14.2793a213.309,213.309,0,0,1,18.41553-11.6709l.0874-.05175q6.17139-3.82032,12.36035-7.61329l3.32959-2.04589c.94336-.58008,2.03516-1.37891,3.29883-2.30469,2.66211-1.94824,7.13037-5.17285,9.26123-5.1084.68945.0332,1.55615.77637,2.26172,1.94141l.22851.377c5.14161,8.48828,9.99952,16.50879,20.10694,21.08105a39.59449,39.59449,0,0,0,41.82861-1.123c4.47607-2.623,6.61377-2.6875,9.49756-.292l.10156.08007a22.675,22.675,0,0,0,17.62207,4.11621A135.02541,135.02541,0,0,1,261.082,399.874a16.57564,16.57564,0,0,0,15.57568-9.65527c.5879-1.06152,1.15381-2.13574,1.71924-3.21094.94336-1.791,1.834-3.4834,2.83106-5.13379,2.78076-4.60156,2.88867-4.78418,7.8042-2.2959a15.85131,15.85131,0,0,0,16.74414-1.03027c.8042-.4668,1.606-.95312,2.41015-1.44043,5.73829-3.47949,10.69385-6.48047,17.13477-3.78613l.31982.10937a7.42164,7.42164,0,0,0,5.97705-.96191c1.27979-.83789,2.61084-1.60059,4.02-2.4082a51.82614,51.82614,0,0,0,6.9253-4.47754c4.67871-3.77051,8.084-10.22071,9.10888-17.25391a20.83463,20.83463,0,0,0-.76269-7.93945,18.39782,18.39782,0,0,1-.73486-5.63672c.28222-3.15625,3.16552-6.87793,5.48193-9.86816.38525-.49707.75683-.97657,1.15185-1.50293,2.89795-4.11719,5.92432-8.26661,8.85108-12.28028,6.415-8.7959,13.04883-17.89209,18.86767-27.38086a431.0951,431.0951,0,0,0,21.166-40.72119l.08447-.21191a94.60985,94.60985,0,0,0,4.11182-16.48975.64135.64135,0,0,1,.12939-.36084,1.03256,1.03256,0,0,1,.76758.168c1.76319.96387,2.95557,4.00147,3.82666,6.21973l.16944.41308c3.40234,7.083,10.332,16.48828,31.1455,16.32325,5.87012-.04542,7.78907-5.44971,8.71192-8.04737q2.11817-5.9685,4.26855-11.92578c2.4336-6.772,4.95117-13.77441,7.34473-20.69775l.15332-.44239c.82031-2.37646,1.46875-4.25341,2.00781-4.6455.55469-.40284,2.626-.415,5.06152-.4292a38.97963,38.97963,0,0,1,6.37207.39111,8.55865,8.55865,0,0,0,10.26758-6.19385c.00977-.03906.01856-.07763.02832-.1167a26.2146,26.2146,0,0,1,17.041-15.50439l.25684-.08936a21.29018,21.29018,0,0,0,10.18847-8.78759,88.42867,88.42867,0,0,1,9.042-11.74463,54.05361,54.05361,0,0,0,13.53321-29.81885,64.69214,64.69214,0,0,1,1.59179-7.83691c.71289-2.65235,1.39942-2.95069,1.42774-2.96241.03027-.01025.70508-.25488,2.88574,1.09766,12.86719,7.98193,24.44824,15.24121,35.88086,23.25586.50195.352,1.15918.875,1.91992,1.48047,3.91406,3.11377,9.27149,7.37695,13.96192,5.55224,3.88281-1.5122,5.52148-6.34228,6.71875-9.86914.17089-.50537.33007-.97558.48339-1.38965.25293-.6875.50489-1.519.7959-2.48242.665-2.20166,2.22364-7.35644,3.74707-7.93652.74317-.24121,3.22364,1.125,4.03907,1.57471.26171.144.50683.27929.73046.39794l.59375.3125c3.37012,1.76954,5.749,3.20118,5.65723,5.52686a50.80834,50.80834,0,0,1-.48437,5.25293l-.02051.19531c-.64356,9.84033.61523,11.71045,9.61523,14.29248,5.09571,1.46241,10.22656,3.26172,15.18848,5.002l2.90918,1.01757A56.46146,56.46146,0,0,1,668.90723,179.001l.17675.188a9.14741,9.14741,0,0,1,2.22559,9.80469l-.07324.22949A37.62792,37.62792,0,0,1,660.794,206.78467,23.83776,23.83776,0,0,0,653.54,221.627c-1.72949,15.353,1.8584,21.43311,15.99805,27.10547l.12109.04492a86.12849,86.12849,0,0,1,27.90137,15.84131l.168.13086a25.44015,25.44015,0,0,0,9.52636,4.18457,47.78945,47.78945,0,0,0,7.209,1.1836l.10449.00683a34.333,34.333,0,0,1,24.56738,12.01123,30.20118,30.20118,0,0,0,16.34473,10.165,43.89786,43.89786,0,0,1,7.374,2.61768,6.41339,6.41339,0,0,1,3.48828,7.48l-.05468.26074a80.07448,80.07448,0,0,1-2.72168,11.62793,15.7294,15.7294,0,0,0,1.62695,15.416,7.20345,7.20345,0,0,1,1.2959,4.80665,33.17394,33.17394,0,0,0,.81738,12.14941c.15039.53516.40918,1.20312.73633,2.04883a31.25412,31.25412,0,0,1,1.55859,4.84961c-.17773-.05762-.38769-.13282-.63281-.2334l-.19238-.07031a11.98,11.98,0,0,1-1.98633-.94727,15.25191,15.25191,0,0,0-3.08594-1.38965,10.07968,10.07968,0,0,1-1.8584-.93164c-1.9414-1.12695-5.96582-3.459-9.34765.71289a10.60942,10.60942,0,0,0-.88672,13.4209l.30762.35449c3.46582,3.30371,5.41992,7.64356,7.48828,12.23828,2.48144,5.5127,5.04785,11.21192,10.42968,15.32325a13.4971,13.4971,0,0,1,3.418,4.60449,7.38668,7.38668,0,0,1-.55468,7.21777c-1.28907,1.90528-3.3584,2.80664-5.75391,3.84961-.88672.38574-1.80371.78516-2.71875,1.25391l-.27442.13965c-2.23144,1.13671-7.457,3.79882-4.85351,9.18457,2.60937,5.39355,7.626,6.46972,12.65918,6.83105,6.58105.46875,13.3916.60547,20.23242.40527,2.91992-.084,5.30567-.24023,7.22266-.36621,4.0791-.26953,5.9209-.35742,6.86816.34278,1.18652.87793,2.41992,3.69531,4.46289,8.36133.4502,1.02929.94336,2.15624,1.49121,3.38964,2.416,5.43848,4.78516,10.98536,7.043,16.48828C819.43066,454.5918,819.43359,455.11328,819.31934,455.31738Z" transform="translate(-17.50391 -115.17986)"/></svg>