<svg id="Layer_1" data-name="Layer 1" xmlns="http://www.w3.org/2000/svg" viewBox="0 0 790.39453 478.06314"><path d="M815.7041,468.666q-1.31543-7.38575-2.67285-14.76661c-1.50684-8.26171-3.06445-16.80468-4.49512-25.21386-2.00293-11.76465-1.90234-24.01367-1.80371-35.8584q.01611-2.127.03125-4.25c.6416-108.93213,1.61817-207.18115,7.085-306.47315l.2334-4.25683c.27539-5.05811-.03515-11.24658-4.92187-14.23047a14.18723,14.18723,0,0,0-6.8086-1.65527c-24.48633-1.36963-49.60254-.77588-73.89355-.20215-11.88379.28125-24.17285.57177-36.168.62451-125.72852.55664-229.92578.06006-327.91358-1.55713L286.59717,59.543q-6.42042-.1062-12.84229-.23682c-8.9497-.17334-18.20361-.35254-27.313-.41113l-.90527-.00977c-6.57666-.08056-13.17676.1836-15.26758,4.36719-1.17627,2.354-.498,5.20068,2.01563,8.46094a291.43806,291.43806,0,0,0,22.46582,25.833l.19971.1831a18.12029,18.12029,0,0,1,4.85253,21.97022,26.051,26.051,0,0,0-1.87744,20.04785,56.78984,56.78984,0,0,0,2.45264,6.12158,36.80335,36.80335,0,0,1,2.87109,8.00635,46.8745,46.8745,0,0,1,.53272,9.64453c-.02,1.59521-.04053,3.24463.01367,4.91553.11914,3.68994,1.54443,6.09277,3.05322,8.6372l.54981.93067a81.78412,81.78412,0,0,0,7.84668,11.74756c2.93408,3.47656,4.43359,7.73193,3.82031,10.84082a6.80794,6.80794,0,0,1-3.917,4.80615c-4.52442,2.35742-10.19824-.09668-13.0708-3.83057-1.22608-1.59375-2.44287-3.25879-3.62012-4.86865-2.1167-2.896-4.30469-5.88965-6.70068-8.69092a30.38374,30.38374,0,0,0-32.648-10.83154,73.452,73.452,0,0,1-26.72022,1.89062c-11.396-1.17187-22.99365-2.11962-34.20947-3.03613-6.45264-.52734-13.12549-1.07226-19.75488-1.65918a177.24422,177.24422,0,0,1-65.44971-16.52344A169.36113,169.36113,0,0,1,53.043,146.62451a46.12879,46.12879,0,0,1-4.12207-3.26025c-4.11328-3.49268-8.77588-7.43994-14.11475-7.11133-4.45166.28418-7.22021,3.8623-7.59619,9.81641-.69434,11.02392-1.04346,22.23437-1.38037,33.07617q-.11206,3.59253-.227,7.18506l-.002.05713.00048.05761a23.94431,23.94431,0,0,0,7.43018,16.95117,39.44383,39.44383,0,0,1,9.86865,13.87745,426.53589,426.53589,0,0,1,10.64453,52.50439,75.9937,75.9937,0,0,0,6.54444,25.78662l.98437,1.93311c1.97852,3.86816,4.02442,7.86718,5.74219,11.88183A38.14078,38.14078,0,0,0,86.17432,330.542a58.61524,58.61524,0,0,1,6.76416,4.90528c.35058.29492.74609.59668,1.15332.90625a12.77947,12.77947,0,0,1,1.87939,1.62109c-1.24267,1.63574-6.30078,3.38281-8.77783,4.23828-.96045.332-1.82373.63086-2.50586.89941a10.70777,10.70777,0,0,1-1.93262.46387,14.07911,14.07911,0,0,0-3.0791.81348c-8.55469,3.62012-10.82666,7.89941-8.95068,16.9209A11.91549,11.91549,0,0,0,82.52,371.96289c.01807,0,.03564,0,.05371-.001,1.72705.07325,3.60449.24414,5.90088.53516l.17383.02148.1748-.002a2.71081,2.71081,0,0,1,.73731.10059,2.48718,2.48718,0,0,1,1.68359,3.08886l-.06592.28516c-.45459,2.66016-1.01367,5.373-1.5542,7.99609-.7959,3.86426-1.61914,7.86133-2.15283,11.873-.75293,5.65625-2.15771,8.7207-7.74512,9.77246l-.11279.02442a13.872,13.872,0,0,0-9.48926,7.79l-.13818.38378a16.18754,16.18754,0,0,0,6.54883,17.64942l.5166.38965c4.17529,3.15332,9.37012,7.07812,16.1543,2.05176A10.8408,10.8408,0,0,1,105.0918,433.29l.23535.12109A37.30186,37.30186,0,0,0,124.605,436.4707c6.59619-.48925,8.4292,1.76368,9.25488,3.82129.12256.40723.26368.80957.42139,1.2041a14.70009,14.70009,0,0,0,19.02246,8.2334c10.85059-3.48144,18.84375-.37793,27.58008,10.71289a22.97985,22.97985,0,0,0,3.688,3.68946,20.8732,20.8732,0,0,1,7.73877,14.00488l.01513.11328c1.04688,6.7168,2.54151,13.43652,3.98731,19.93555,1.41846,6.37793,2.88525,12.97265,3.90625,19.4834,1.27539,8.13769,6.77783,10.24023,12.60351,12.46582l.88819.34082c6.17578,2.37988,13.53906,4.959,21.32422,6.04492a45.51776,45.51776,0,0,0,6.32763.417,106.10957,106.10957,0,0,0,12.92237-1.043c2.98193-.36523,6.06543-.74219,9.08789-.916a46.97191,46.97191,0,0,0,4.856-.53223l.76026-.166c8.02-1.78808,17.10986-3.81543,20.97851-14.0332.77637-2.0498,2.02832-3.13672,6.11328-2.61426a88.93026,88.93026,0,0,0,37.77735.20215,1.048,1.048,0,0,1,.45068.00684l.15869.03222c4.02784.69043,8.13233,1.30762,12.10157,1.9043a254.94309,254.94309,0,0,1,27.18457,5.09668,54.91134,54.91134,0,0,0,43.35693-6.44824,10.6034,10.6034,0,0,1,10.38916-.752,36.7552,36.7552,0,0,0,15.67285,4.65137l.15625.00488h.02344a80.55869,80.55869,0,0,0,39.63769-10.44921l.22168-.14063c3.52539-2.52051,7.24024-4.94629,10.833-7.293,2.77149-1.81054,5.6377-3.68164,8.4209-5.59863.68262-.4707,2.75879-1.90137,3.92969-1.64649.66113.14258,1.26367.93848,1.61914,1.5254a11.13289,11.13289,0,0,0,13.59765,4.97363c2.56543-.60938,5.14454-1.28223,7.63965-1.93457,1.91211-.499,3.82325-.99805,5.74219-1.47266,25.90723-6.41992,52.22168-12.91113,78.17578-19.28515a19.28836,19.28836,0,0,1,4.11035-.48145q13.85157-.32226,27.70508-.67969c23.33008-.58789,47.4541-1.19629,71.17774-1.48828,21.63867-.2666,43.64746-.208,64.93359-.14844q13.82373.03663,27.63867.04981a7.96494,7.96494,0,0,0,4.65527-1.06348C816.8125,474.89844,815.97852,470.208,815.7041,468.666Zm-5.10351,4.38281a4.72023,4.72023,0,0,1-1.8545.21289q-13.81934,0-27.63574-.04981c-21.30078-.05957-43.33008-.11816-65.00976.14844-23.75489.293-47.89551.90137-71.24121,1.48926q-13.84865.3501-27.66309.67969a24.22869,24.22869,0,0,0-5.18164.61621c-25.99512,6.38379-52.3125,12.876-78.22266,19.2959-1.93847.47949-3.87109.98437-5.80371,1.48925-2.51758.65723-5.12207,1.33789-7.68262,1.94336l-.32421.09961a6.18644,6.18644,0,0,1-7.6543-2.77441,7.68437,7.68437,0,0,0-4.87891-3.88477c-2.91015-.62109-5.70508.96289-7.81738,2.417-2.7334,1.88183-5.57324,3.73632-8.32031,5.53027-3.59961,2.35058-7.32032,4.78125-10.89844,7.334a75.54224,75.54224,0,0,1-37.00293,9.73535,31.74187,31.74187,0,0,1-13.51856-4.04785l-.1455-.07715a15.59772,15.59772,0,0,0-15.34522,1.01954,49.87074,49.87074,0,0,1-39.353,5.81933A258.67762,258.67762,0,0,0,347.3125,514.834c-3.92188-.58984-7.97607-1.19921-11.93115-1.876a6.09461,6.09461,0,0,0-2.55615-.01563,83.90178,83.90178,0,0,1-35.75684-.21191l-.22022-.03906c-2.20459-.2959-8.91552-1.18946-11.55615,5.78515-2.91357,7.69532-9.623,9.19141-17.39111,10.92383l-.54688.12207a41.82706,41.82706,0,0,1-4.26709.46387c-3.18408.18359-6.34863.57031-9.40869.94433-6.17187.75684-12.001,1.46778-17.95215.63868-7.28271-1.01661-14.30664-3.48145-20.21728-5.75977l-.90137-.34473c-5.82275-2.22558-8.65674-3.51953-9.44873-8.57031-1.04541-6.668-2.52978-13.34082-3.96484-19.79492-1.42481-6.4043-2.89746-13.02539-3.91944-19.56543a25.90261,25.90261,0,0,0-9.59521-17.31934,17.93722,17.93722,0,0,1-2.874-2.874c-6.73829-8.55566-16.58985-17.68945-33.11573-12.34473l-.15771.05762a9.71209,9.71209,0,0,1-12.60694-5.41113q-.17064-.42774-.30029-.87012l-.06933-.20312c-2.042-5.25293-6.85791-7.627-14.40723-7.07715a32.35964,32.35964,0,0,1-16.66016-2.59278,15.84418,15.84418,0,0,0-17.251.999c-3.626,2.68652-5.86036,1.24023-10.17139-2.01856l-.68555-.51172a11.18906,11.18906,0,0,1-4.62109-12.02734,9.02531,9.02531,0,0,1,5.95508-4.80566c8.87842-1.69825,10.87793-7.73828,11.71338-14.01465.51074-3.83692,1.31543-7.74512,2.09423-11.52442.54-2.62109,1.09815-5.33105,1.563-8.03222a7.489,7.489,0,0,0-5.11474-9.14453,7.52437,7.52437,0,0,0-2.02344-.30274c-2.396-.30078-4.37842-.47656-6.22656-.55273l-.06446-.00293-.06445.001a6.895,6.895,0,0,1-6.8999-6.249l-.04444-.29687c-1.43652-6.78809-.43066-8.71,5.97608-11.4209a10.00342,10.00342,0,0,1,2.01806-.498,14.81164,14.81164,0,0,0,2.87891-.73242c.62744-.24707,1.42285-.52051,2.30615-.82617,5.291-1.82715,9.81446-3.58789,11.58789-6.62891,2.19434-3.76269-1.51367-6.582-3.29541-7.93652-.33984-.25782-.67041-.50782-.96289-.75391a63.73535,63.73535,0,0,0-7.46631-5.40137l-.24316-.13183A33.17506,33.17506,0,0,1,71.48,307.5791l-.04443-.11133c-1.79-4.19043-3.88477-8.28613-5.91065-12.24658l-.90332-1.76758a71.00458,71.00458,0,0,1-6.09619-24.11816l-.01709-.16065a431.42375,431.42375,0,0,0-10.82471-53.36425L47.57764,215.5a44.38456,44.38456,0,0,0-11.14893-15.77148,18.88073,18.88073,0,0,1-5.82715-13.29444q.11646-3.56616.22559-7.1333c.33594-10.80224.68359-21.97266,1.37305-32.9165.14306-2.26953.7666-5.00342,2.92382-5.14112,3.33594-.21045,7.16895,3.05323,10.561,5.93262a49.40629,49.40629,0,0,0,4.61474,3.6294,174.33361,174.33361,0,0,0,20.52247,11.55566,182.15162,182.15162,0,0,0,67.23632,16.99658c6.5708.583,13.252,1.12891,19.71338,1.65674,11.19043.91455,22.76123,1.85986,34.082,3.02393a78.46883,78.46883,0,0,0,28.58838-2.044,25.39058,25.39058,0,0,1,27.36426,9.08057l.10205.12646c2.29,2.67139,4.43652,5.60791,6.51221,8.44776,1.19482,1.63476,2.43017,3.32519,3.69385,4.96728,4.07275,5.29346,12.23535,8.9209,19.34423,5.21533a11.80981,11.80981,0,0,0,6.51221-8.27246c.92285-4.68017-.91064-10.2998-4.86328-14.98242a76.9358,76.9358,0,0,1-7.35742-11.03369l-.60108-1.021c-1.37255-2.31347-2.27929-3.84228-2.35693-6.248-.05029-1.55909-.03027-3.15137-.01123-4.69141a51.3634,51.3634,0,0,0-.62451-10.66357,41.26457,41.26457,0,0,0-3.21436-9.0918,52.06814,52.06814,0,0,1-2.24853-5.58447A21.08953,21.08953,0,0,1,264.252,121.978a23.12573,23.12573,0,0,0-6.02148-28.02393,286.41749,286.41749,0,0,1-21.98584-25.29346c-1.52979-1.98388-1.59912-2.98046-1.50244-3.17334.25976-.51953,1.835-1.70361,10.73047-1.60253l.937.01025c9.07715.0581,18.31494.2373,27.24853.41016q6.42847.1245,12.85694.23681L364.294,65.82568c98.0205,1.61719,202.251,2.11182,328.01757,1.55811,12.04395-.05322,24.35743-.34424,36.26465-.626,24.19434-.57226,49.21-1.16308,73.4961.1958a9.889,9.889,0,0,1,4.48242.93018c2.62695,1.60449,2.73437,6.022,2.53515,9.69141l-.23339,4.25341v.00049c-5.47364,99.40528-6.4502,197.71924-7.09278,306.71875q-.01172,2.11669-.03125,4.23731c-.09961,12.06347-.20312,24.53808,1.874,36.73925,1.43652,8.43848,2.99707,16.9961,4.50683,25.27247q1.34473,7.37255,2.66895,14.74511C811.294,472.41992,810.72168,472.96777,810.60059,473.04883Z" transform="translate(-25.60059 -58.87436)"/></svg>