<svg id="Layer_1" data-name="Layer 1" xmlns="http://www.w3.org/2000/svg" viewBox="0 0 564.73668 506.47355"><path d="M580.043,293.24316a19.14328,19.14328,0,0,0-4.584-11.4663c-7.65625-8.89844-17.957-14.83252-27.02246-19.46387-1.30468-.667-2.84082-1.56983-4.46679-2.52588-7.62207-4.4834-18.06446-10.62354-25.90332-4.98-2.90332,2.09033-6.002,4.064-8.99707,5.97266-3.94629,2.51464-8.02637,5.11425-11.84473,8.083-6.04492,4.69922-12.09473,8.99024-19.62012,9.86963a50.97726,50.97726,0,0,1-8.7041.00147c-1.96484-.1084-3.999-.2168-6.03516-.19239-10.19531.14893-15.13281,5.61329-20.35937,11.39844-1.43066,1.583-2.90918,3.22022-4.54395,4.80127-.84961.8208-1.666,1.69336-2.45605,2.5376-3.16211,3.37646-5.91016,6.28711-10.19922,6.06055l-.12012-.00342c-.0498-.00049-.09961-.00049-.14941-.00049a26.96313,26.96313,0,0,0-23.18457,13.25586,284.08253,284.08253,0,0,1-19.53223,21.27051q-2.75684,2.80444-5.49609,5.61865l-.11328.12451a.885.885,0,0,1-.61524.31494.90235.90235,0,0,1-.64843-.21289.89074.89074,0,0,1-.3086-.61035l-.05273-.35254c-1.084-4.87207-2.11133-9.85254-3.10449-14.66943-1.04-5.04492-2.11622-10.26123-3.2627-15.38282-.71973-3.21777-1.49609-6.45312-2.24707-9.58154-1.30078-5.41943-2.64551-11.02344-3.7041-16.584-1.0918-5.72559-3.832-9.72852-7.71778-11.27149a16.42791,16.42791,0,0,0-7.22558-.6997c-21.17578,1.314-42.5791,3.44726-63.61475,6.34033-11.47265,1.57763-21.96484,3.22363-32.07715,5.03271-.81689.146-1.7539.34766-2.771.56739-6.542,1.41406-13.08154,2.4663-14.92578-1.43409a18.822,18.822,0,0,1-1.78955-6.82617l-.04151-.313c-6.37109-32.21826-12.85986-64.792-19.28711-96.8164-.15185-.75782-.28125-1.52393-.41064-2.29053a33.03634,33.03634,0,0,0-1.55127-6.44922,6.34091,6.34091,0,0,0-4.49121-4.07129,5.723,5.723,0,0,0-5.273,1.7124c-1.99951,2.00342-1.49756,5.665-1.13086,8.33838.03906.28369.07471.54346.10156.769,3.06348,25.79736,3.209,38.08545,3.209,59.29052-.8086,17.80469-1.69532,32.67041-2.79,46.7793a39.15138,39.15138,0,0,1-4.67285,15.79346,155.8847,155.8847,0,0,1-42.80518,48.625l-.21582.18115a22.16188,22.16188,0,0,1-18.61035,5.686,13.59484,13.59484,0,0,0-14.91944,6.61817l-2.26611,3.0874c-5.7959,7.90137-11.78906,16.07178-17.98535,23.7207a14.54755,14.54755,0,0,0-3.16065,12.74317,49.99408,49.99408,0,0,0,4.83838,12.52685l.18555.28809a13.2629,13.2629,0,0,1-.89844,16.93994c-2.21142,2.39063-5.49267,3.76172-8.395,4.86035a25.58651,25.58651,0,0,0-2.44043,1.13574c-2.34179,1.18555-4.35449,2.10254-5.28808,1.32227a4.71033,4.71033,0,0,1-1.13574-1.78516,32.39237,32.39237,0,0,1-1.17676-3.49609c-.27881-.94238-.5669-1.917-.92041-2.89062a13.12332,13.12332,0,0,0-4.79883-6.76758,7.57627,7.57627,0,0,0-5.96436-1.28614,8.19507,8.19507,0,0,0-5.13964,4l-.1709.34571a28.804,28.804,0,0,0-1.49024,4.96387,182.02181,182.02181,0,0,0-6.34961,43.33691c-.03857.38769-.07568.79-.11328,1.20117-.22168,2.41113-.59277,6.44629-1.71631,7.31836a24.8925,24.8925,0,0,0-10,21.68945,9.03439,9.03439,0,0,1-8.68554,9.1875c-4.54248.16016-15.55664,1.11817-19.70752,6.53418a8.06906,8.06906,0,0,0-1.419,6.94434c1.74219,7.52148,3.72168,15.47559,6.228,25.02148a15.95967,15.95967,0,0,0,12.03564,13.20118,12.08278,12.08278,0,0,1,8.772,9.21679l.02441.10352a39.808,39.808,0,0,0,6.60059,13.85937l.0708.09082a389.55967,389.55967,0,0,0,31.87793,34.61328,38.89077,38.89077,0,0,0,25.42529,12.76758,6.81541,6.81541,0,0,1,4.44922,2.89356c1.95654,2.835,3.75683,5.90527,5.49805,8.875,1.74316,2.97265,3.54541,6.04492,5.54541,8.96582a35.70266,35.70266,0,0,0,55.40771,6.84668c.56592-.49317,1.13965-.97754,1.71289-1.46289,1.05322-.89063,2.14209-1.81055,3.189-2.78711l.23877-.25586a8.90263,8.90263,0,0,1,12.417-1.375l.13672.10058a24.19469,24.19469,0,0,0,22.31982,2.6836,32.64674,32.64674,0,0,1,8.69922-1.23438,13.10514,13.10514,0,0,0,13.28076-9.65527c1.977-5.6875,4.56983-11.33008,7.07715-16.78809l.36914-.80371c2.81641-6.12988,3.6084-6.87012,9.51025-4.709a29.84487,29.84487,0,0,0,31.02686-6.78028c3.02051-2.9414,7.21191-3.624,11.65039-4.34668,1.69824-.27636,3.4541-.5625,5.17383-.98242,9.126-2.23144,14.68262-9.74121,13.85937-18.70605a27.04791,27.04791,0,0,0-2.85742-11.7334l-.14648-.25293a8.57971,8.57971,0,0,1-.085-9.28809l.09961-.17285c8.01074-15.2373,15.90722-30.79687,23.46972-46.24511,14.3291-29.27149,26.29883-55.97852,27.624-86.375a40.57622,40.57622,0,0,1,2.03418-8.83985,2.60352,2.60352,0,0,1,.72753-1.10937,17.32507,17.32507,0,0,1,17.52344,3.01172c1.66211,2.23046,3.24805,4.60937,4.78418,6.91113,1.35938,2.03906,2.76563,4.14648,4.24121,6.18262,4.3418,5.98925,10.43555,5.40234,15.333,4.92968,1.12695-.10937,2.19141-.21191,3.21973-.24414,6.71484-.21386,8.002-6.33886,8.69336-9.62988l.10742-.50781c2.49023-11.63184,4.874-24.12451,7.29-38.19336,1.14746-6.67969,2.10644-7.80664,7.24511-8.60157a48.57493,48.57493,0,0,1,7.76758-.29882c.08985.00049.17969.001.26953.001,4.59961,0,10.01172-1.01367,11.877-8.25879a22.59392,22.59392,0,0,1,11.73242-14.20263A35.00437,35.00437,0,0,0,486.1416,355.54a40.28068,40.28068,0,0,1,5.54785-8.97608l.11621-.1538a53.936,53.936,0,0,0,9.55957-33.57032c-.23925-8.76953.17676-17.52295.66114-25.67578.13281-2.21484.63867-2.66894.63379-2.66894.00586-.00147.50683-.15625,1.98632.54883a221.10747,221.10747,0,0,0,23.27247,9.00976c11.6914,4.02393,23.78027,8.18457,34.21191,15.3169,2.56738,1.75439,8.1416,3.92529,12.16894,2.27978a6.56939,6.56939,0,0,0,3.96387-4.91553,45.9238,45.9238,0,0,0,1.78223-13.40527Zm-6.60938,12.19629-.05078.20948c-.18457.93261-.57715,1.21093-.97265,1.37255-1.71387.69629-5.41407-.38232-7.457-1.7788-10.98828-7.51221-23.40234-11.78467-35.40722-15.91651a217.46468,217.46468,0,0,1-22.749-8.7959c-2.66211-1.269-4.90528-1.38574-6.66895-.34521-1.87891,1.10937-2.89063,3.29492-3.09277,6.68213-.49121,8.26513-.91309,17.14892-.665,26.17724a48.9723,48.9723,0,0,1-8.61426,30.43213,45.25216,45.25216,0,0,0-6.209,10.08936l-.05762.13916a30.00623,30.00623,0,0,1-14.61817,16.26611A27.61027,27.61027,0,0,0,452.543,387.35645c-.88281,3.42626-2.6084,4.55078-6.98242,4.55078-.06934,0-.13965,0-.21094-.001a53.41034,53.41034,0,0,0-8.57031.34375c-8.1836,1.26367-10.15918,4.94189-11.49317,12.7085-2.40429,14.001-4.77636,26.4292-7.251,37.99267l-.11133.52637c-.87891,4.18066-1.57422,5.585-3.96,5.66016-1.18946.03808-2.38477.15332-3.54.26464-5.05371.48731-8.27246.60743-10.80567-2.88769-1.418-1.95606-2.79687-4.02246-4.12988-6.02149-1.62109-2.43066-3.29687-4.94336-5.09863-7.34472l-.33887-.36719a22.35323,22.35323,0,0,0-23.25976-3.92871l-.2793.11621-.24317.17871a7.53617,7.53617,0,0,0-2.70312,3.68359,45.46877,45.46877,0,0,0-2.28418,9.99024l-.01367.1709c-.74707,17.43359-3.30469,35.82324-27.12207,84.47754-7.52832,15.3789-15.3877,30.86621-23.36133,46.03418a13.59158,13.59158,0,0,0,.10547,14.48925,22.01056,22.01056,0,0,1,2.2666,9.51954l.01172.22265c.63867,6.53516-3.31055,11.82422-10.05957,13.47461-1.5293.374-3.11328.63184-4.79.90527-5.00781.81446-10.186,1.65821-14.335,5.69922a24.8671,24.8671,0,0,1-25.84082,5.65918c-9.07324-3.32226-12.19141-.4248-15.752,7.32617l-.36865.80274c-2.56885,5.59082-5.22461,11.37207-7.28467,17.31445l-.05078.16406a8.1656,8.1656,0,0,1-8.3125,6.05469l-.12744-.00293a37.60652,37.60652,0,0,0-10.21826,1.457l-.21045.07032a19.19713,19.19713,0,0,1-17.73193-2.05176,13.91984,13.91984,0,0,0-19.22022,2.06055c-.9209.85156-1.877,1.66015-2.88672,2.51367-.6123.51758-1.22461,1.03613-1.82861,1.56347l-.10986.10157A30.67364,30.67364,0,0,1,126.3208,654.958l-.07324-.11328c-1.915-2.792-3.68311-5.80664-5.39307-8.72266-1.78711-3.04785-3.63525-6.19824-5.68359-9.167a11.827,11.827,0,0,0-7.85108-5.02051l-.18017-.02344A33.89982,33.89982,0,0,1,84.83105,620.71l-.13085-.13574a384.75891,384.75891,0,0,1-31.49659-34.18457,34.82789,34.82789,0,0,1-5.729-12.0332A17.0786,17.0786,0,0,0,35.0542,561.38574a11.00633,11.00633,0,0,1-8.33789-9.20312l-.05762-.28614c-2.51025-9.55859-4.48926-17.50781-6.22851-25.0166a3.06392,3.06392,0,0,1,.51611-2.77343c2.33545-3.04786,10.03369-4.37207,15.916-4.58008a14.04785,14.04785,0,0,0,13.50586-14.36426l-.00488-.10547a19.936,19.936,0,0,1,8.0332-17.42383c2.87842-2.23047,3.29883-6.80469,3.66993-10.83984.03955-.42969.07763-.84863.11865-1.25l.01221-.19238a177.01954,177.01954,0,0,1,6.19824-42.31641l.03955-.167a23.81256,23.81256,0,0,1,1.16943-3.97949,3.2,3.2,0,0,1,1.84473-1.52247,2.69841,2.69841,0,0,1,2.07812.5586,8.43827,8.43827,0,0,1,2.88672,4.32226c.30176.832.55664,1.69336.82617,2.6045a36.61488,36.61488,0,0,0,1.37207,4.03906,9.585,9.585,0,0,0,2.52393,3.65625c3.53857,2.96094,7.88281.76172,10.7583-.69531.72852-.36817,1.41651-.7168,1.95117-.91993,3.43457-1.29882,7.34619-2.95214,10.29639-6.1416a18.26408,18.26408,0,0,0,1.34277-23.17773,44.9455,44.9455,0,0,1-4.271-11.11035,9.56626,9.56626,0,0,1,2.125-8.395c6.32373-7.8042,12.353-16.02393,18.18408-23.97315l2.36133-3.21679.18506-.29248a8.59072,8.59072,0,0,1,9.53906-4.26856l.1709.03467a27.18778,27.18778,0,0,0,22.8247-6.86182,160.90189,160.90189,0,0,0,44.07666-50.12451,44.168,44.168,0,0,0,5.28565-17.832c1.09961-14.17822,1.99023-29.11133,2.80224-46.99512l.00245-.11328c0-21.43506-.14454-33.83643-3.24414-59.9375-.02979-.25195-.06934-.542-.1128-.85889-.11718-.856-.46728-3.40673-.18408-4.22168a.76611.76611,0,0,1,.59619-.25878,1.4887,1.4887,0,0,1,.86035.96972,28.83736,28.83736,0,0,1,1.29,5.49317c.13819.81689.27637,1.63281.43848,2.44043,6.416,31.96972,12.89453,64.48876,19.25439,96.65234a23.79341,23.79341,0,0,0,2.24854,8.4624c3.68994,7.80811,14.21191,5.53613,20.49853,4.17871.95313-.20556,1.83106-.396,2.59668-.53271,10.04493-1.79688,20.47217-3.43311,31.87744-5.00147,20.91309-2.876,42.19141-4.99658,63.24317-6.30322a12.409,12.409,0,0,1,5.07031.356c3.02246,1.20019,4.21192,5.25244,4.65137,7.561,1.081,5.67627,2.44043,11.33887,3.75391,16.81446.74707,3.11035,1.51855,6.32666,2.23046,9.50683,1.13672,5.08057,2.209,10.27637,3.24512,15.30078.98633,4.78614,2.00684,9.73242,3.08692,14.59375a5.89306,5.89306,0,0,0,6.30371,5.227,5.93055,5.93055,0,0,0,3.99121-1.99853q2.69238-2.78028,5.41894-5.54A286.00379,286.00379,0,0,0,405.875,319.56738l.208-.30517a21.95112,21.95112,0,0,1,18.9541-10.92676h.06543c6.59277.333,10.55664-3.90479,14.05273-7.63965.78321-.83594,1.52246-1.626,2.28223-2.36035,1.75586-1.69873,3.292-3.39893,4.77832-5.04346,4.8623-5.38232,8.7041-9.63379,16.72168-9.75049,1.86621-.0288,3.7207.07618,5.68555.18506a55.36952,55.36952,0,0,0,9.56152-.02832c8.79883-1.02783,15.74609-5.94238,22.1084-10.88818,3.63379-2.82471,7.61426-5.36084,11.46289-7.81348,3.05469-1.9458,6.21289-3.95849,9.23242-6.13183,5.18945-3.73633,13.65039,1.23584,20.44727,5.23242,1.6914.99463,3.28906,1.93408,4.72558,2.668,8.63379,4.41064,18.416,10.03076,25.50782,18.273a14.11713,14.11713,0,0,1,3.37793,8.41406A40.90272,40.90272,0,0,1,573.43359,305.43945Z" transform="translate(-15.31475 -168.1788)"/></svg>