<svg id="Layer_1" data-name="Layer 1" xmlns="http://www.w3.org/2000/svg" viewBox="0 0 550.09583 544.16553"><path d="M572.20605,349.11133a3.64161,3.64161,0,0,0-2.77148-1.98487,6.82055,6.82055,0,0,0-5.05176,1.58155,32.77892,32.77892,0,0,0-6.082,7.021c-.78223,1.09961-1.52051,2.13819-2.29492,3.09473-1.68555,2.083-3.2959,4.25049-4.85352,6.34668-1.543,2.07666-3.13769,4.22412-4.77441,6.24268q-3.01171,3.71411-5.99219,7.45654c-5.80859,7.26123-11.81445,14.77-18.11328,21.74951-.92383,1.02344-1.92871,1.96777-2.99219,2.9668-2.98437,2.80517-6.07031,5.70508-7.42968,10.41748a8.45935,8.45935,0,0,1-3.81446,4.72705,40.14558,40.14558,0,0,0-12.457,11.8584c-1.89551,2.79785-6.09668,3.35156-9.0625,2.27148-4.44824-1.62012-5.57715-5.875-5.85449-8.2666a12.22323,12.22323,0,0,1,2.17969-8.49561l.15429-.24658c1.7295-3.1582,3.53907-6.353,5.28809-9.44287,3.08887-5.45654,6.2832-11.09863,9.18945-16.79785,2.18946-4.2915,4.11524-7.82178,7.27246-10.94336.94532-.93555,1.99707-1.85059,3.11036-2.81885,3.09667-2.69287,6.29882-5.47705,8.07617-9.39892,2.94629-6.50391-3.06739-10.792-6.66016-13.35352l-.48242-.33984a17.54092,17.54092,0,0,1-8.21289-14.95508l-.01563-.28857c-.59082-5.20313-1.37109-10.45118-2.126-15.52686-.93946-6.31152-1.91016-12.83594-2.50782-19.25635.32129-7.70556-4.30664-14.52148-11.835-17.39795a32.42786,32.42786,0,0,0-5.39062-1.36377c-4.62793-.894-7.50781-1.60693-8.35547-4.86425-2.59766-9.981-13.70117-11.749-21.80859-13.03956-1.87989-.29931-3.65528-.582-5.2002-.93066-5.43555-1.22559-10.97461-2.3623-16.33008-3.46142-10.54394-2.16358-21.44531-4.40088-31.9375-7.4004-7.23633-2.06836-14.42676-4.70947-21.38086-7.26318-8.998-3.30518-18.30273-6.72266-27.96582-9.01318-4.12109-.977-8.376-2.0752-12.49023-3.13721-8.03223-2.07373-16.33887-4.21826-24.63477-5.73584-4.09961-.75049-8.32617-1.25244-12.41406-1.73828-8.03955-.95557-16.34961-1.94287-23.79053-4.86279a61.80466,61.80466,0,0,1-14.16845-16.28907,13.37641,13.37641,0,0,0-10.46778-7.09716c-.9834-.10352-1.95068-.14014-2.88623-.17579a18.96618,18.96618,0,0,1-4.53955-.52246c-2.2749-.66894-4.25488-2.332-6.35107-4.09228a42.95451,42.95451,0,0,0-3.92383-3.04248,22.71867,22.71867,0,0,0-21.314-1.74561c-1.03711.46338-2.01074.99365-2.95263,1.50684a21.75409,21.75409,0,0,1-4.17432,1.92041,5.83657,5.83657,0,0,1-6.40088-2.26709,7.2005,7.2005,0,0,1-.65625-8.00879l.11572-.21094a111.3293,111.3293,0,0,1,7.207-12.64013c1.3413-2.08692,2.854-4.15821,4.3164-6.16114,1.42188-1.94726,2.89209-3.96045,4.24854-6.0415a5.11738,5.11738,0,0,0,.38086-5.34815c-1.27979-2.36181-4.27637-3.439-6.51856-3.44091h-.01025c-3.71143,0-7.686,1.89843-10.88037,3.42382-.53369.25489-1.04883.50147-1.53907.72705-3.45459,1.58936-6.82861,3.4004-10.09179,5.15186a133.3382,133.3382,0,0,1-13.33692,6.53174c-10.60547,4.23828-21.55713,8.25928-32.148,12.148l-3.57275,1.3125a52.36821,52.36821,0,0,1-22.9834,2.95459l-.10449-.00781c-3.23-.17627-6.53564-.51661-9.73291-.84522-1.66113-.17139-3.32227-.34228-4.98486-.49268a15.50886,15.50886,0,0,0-17.47071,12.54,117.25038,117.25038,0,0,0-2.26367,17.84668c-.59326,12.16407-.87109,23.33106-.84814,34.21534a18.7126,18.7126,0,0,1-8.47705,16.22168l-.23584.17333a113.92244,113.92244,0,0,1-15.24805,10.66114C40.07471,277.43945,32.88623,284.83008,28.40479,294.02c-.35694.73242-.76319,1.52246-1.189,2.35059-1.84668,3.59326-4.145,8.06494-4.57471,11.97265-.53466,4.854,2.85791,7.83447,5.5835,10.22949.35791.315.71338.62647,1.05518.93946,1.5,1.37158,3.06591,2.6792,4.58007,3.94384l.6626.55372c3.68164,3.08154,4.31885,7.29638,5.05713,12.17675a48.24075,48.24075,0,0,0,1.33594,6.66993c.84619,2.82275-.86426,5.23193-3.57032,8.58447l-.127.15674a38.926,38.926,0,0,0-8.43262,28.37841c.37207,5.53272.66846,11.17139.95508,16.625q.15381,2.93482.31153,5.87012c.06054,1.11182.10107,2.20508.14062,3.28027.2627,7.08643.51025,13.78028,6.06445,19.98389,5.646,6.30762,12.16846,12.083,21.45411,11.56055l1.24218-.07422c3.34864-.21,6.51465-.4082,8.97119.93066,2.58106,1.40528,4.08008,4.36036,5.66749,7.49024,1.55566,3.06543,3.16406,6.23633,5.99365,8.55566,4.019,3.29395,8.56738,3.791,12.57959,4.22949,4.71972.51661,8.44726.92383,11.376,5.1084q2.4126,3.44677,4.80567,6.90821c3.23926,4.67187,6.58887,9.50195,9.97656,14.20117a29.44874,29.44874,0,0,0,6.77051,7.60156l.17334.125c4.97363,3.28906,10.19238,6.31934,15.23974,9.25,1.93555,1.124,3.87061,2.24707,5.79541,3.38672l.14014.07715a148.54021,148.54021,0,0,1,18.25342,11.002A38.31253,38.31253,0,0,1,180.688,543.8291c.71924,10.291,2.186,20.6582,3.605,30.6836q.59838,4.229,1.18115,8.457a20.34815,20.34815,0,0,0,11.34961,17q.39624.19921.7749.43164a9.81422,9.81422,0,0,1,3.18213,13.49218l-.05713.09668a64.64118,64.64118,0,0,1-6.65136,9.71875,21.66142,21.66142,0,0,0-3.25928,21.67774,44.46974,44.46974,0,0,0,25.72314,29.03613l.207.07422a87.82478,87.82478,0,0,0,13.59473,3.09277c4.2583.61914,6.85107,3.252,9.85352,6.29981.98486,1,2.00293,2.03418,3.125,3.04394,6.07129,5.4668,12.98974,5.57813,19.68017,5.68653q25.385.41014,49.96338.41015c61.80371,0,120.17871-1.94824,177.21484-5.89355.70606-.04883,1.44727-.09473,2.21485-.14258,8.69726-.53711,20.60742-1.27246,26.36035-8.82031,6.02832-7.91016,2.45508-19.16113-1.332-28.07813a75.07244,75.07244,0,0,1-5.876-25.34277,74.619,74.619,0,0,0-7.66894-35.16406,4.149,4.149,0,0,1-.01367-3.14258,138.09492,138.09492,0,0,0,5.24609-15.08984c2.56933-8.43653,4.99707-16.40528,9.97656-23.44043a20.9271,20.9271,0,0,0,3.03027-17.57422c-1.07128-4.82813-1.8789-9.835-2.66015-14.67774-.48828-3.03027-.99317-6.16308-1.5586-9.22851a22.84584,22.84584,0,0,1,5.46485-19.30274l.08105-.0957a22.23514,22.23514,0,0,1,2.02539-2.08887c.52735-.5,1.07227-1.0166,1.60059-1.57715a19.96837,19.96837,0,0,0,4.042-23.99414,12.97971,12.97971,0,0,1-.5498-9.91406,136.30646,136.30646,0,0,0,3.43847-13.375c2.5752-12.66113,8.3584-23.186,14.48145-34.3291l1.36523-2.48682c5.17481-9.45508,10.20606-19.14062,14.95215-28.78808.09863-.19971.32227-.60938.62988-1.17774C571.834,357.48877,573.67188,352.01562,572.20605,349.11133Zm-11.17578,17.81152c-.35449.65283-.60937,1.12451-.72168,1.354-4.71484,9.582-9.71093,19.20263-14.85254,28.59423l-1.36035,2.48c-6.31152,11.48536-12.27246,22.334-15,35.74073a131.06163,131.06163,0,0,1-3.28613,12.80371,18.01709,18.01709,0,0,0,.8457,13.75488,15.00269,15.00269,0,0,1-3.04785,18.10938l-.13086.12988c-.46289.49414-.958.96191-1.45117,1.42969a26.71869,26.71869,0,0,0-2.44141,2.53222,27.82741,27.82741,0,0,0-6.61035,23.47461c.55762,3.02637,1.0586,6.13086,1.543,9.13379.7959,4.93457,1.61817,10.03809,2.72852,15.0293l.03222.126a15.94059,15.94059,0,0,1-2.28515,13.42579c-5.4375,7.68066-8.09766,16.41308-10.66992,24.85839a134.82491,134.82491,0,0,1-5.06153,14.58594,9.19815,9.19815,0,0,0,.043,7.13477l.05567.12207A69.58749,69.58749,0,0,1,506.541,624.7041l-.00293.10547.00586.10449a80.03766,80.03766,0,0,0,6.27246,27.13574c3.0039,7.07422,6.47461,17.165,1.957,23.09278-4.36719,5.72949-14.958,6.38379-22.69239,6.86133-.78027.04785-1.53417.09472-2.252.14453-72.0293,4.9834-146.20215,6.77441-226.75146,5.47168-7.30274-.11719-12.05127-.47266-16.41553-4.40137-1.01074-.91016-1.9751-1.88965-2.9082-2.83691-3.33106-3.38184-6.77539-6.87989-12.69776-7.73926a82.97445,82.97445,0,0,1-12.71289-2.88379,39.42916,39.42916,0,0,1-22.74707-25.83594l-.09765-.28613a16.653,16.653,0,0,1,2.44433-16.7627,69.5691,69.5691,0,0,0,7.12158-10.40136,14.81948,14.81948,0,0,0-4.83545-20.32325c-.377-.23339-.76416-.44921-1.18652-.66015A15.35481,15.35481,0,0,1,190.46,582.584l-.019-.19336c-.38819-2.86035-.793-5.71972-1.19727-8.5791-1.40674-9.93847-2.86133-20.21679-3.57177-30.38379a43.33754,43.33754,0,0,0-18.08643-31.42089,153.55847,153.55847,0,0,0-18.8042-11.34082q-2.87183-1.69923-5.76318-3.36817c-4.95411-2.876-10.07569-5.85058-14.90088-9.03515a24.46361,24.46361,0,0,1-5.583-6.31543l-.10205-.15235c-3.37891-4.68554-6.73291-9.52246-9.97656-14.20019q-2.40381-3.46583-4.81739-6.92578c-4.22851-6.041-9.91357-6.66309-14.9292-7.21094-3.64257-.39844-7.08349-.77442-9.95312-3.127-2.01611-1.65234-3.32227-4.22656-4.70459-6.95117-1.86328-3.67285-3.79-7.4707-7.73535-9.61816-3.72168-2.02637-7.94678-1.76367-11.67383-1.53027l-1.20654.07226c-6.80664.37012-11.88965-3.6875-17.45264-9.90332-4.3501-4.8584-4.54541-10.14307-4.793-16.8335-.041-1.10351-.08252-2.22607-.14453-3.36718q-.15967-2.93043-.31152-5.86133c-.2876-5.47119-.585-11.12842-.96631-16.78027a34.006,34.006,0,0,1,7.34668-24.82618l.12158-.15088c2.7334-3.38623,6.13525-7.60107,4.46924-13.16015A43.836,43.836,0,0,1,44.523,335.439c-.77734-5.14062-1.6582-10.96728-6.7915-15.26367l-.66651-.55664c-1.47217-1.22949-2.99414-2.50049-4.41064-3.7959-.36621-.335-.7461-.66894-1.1294-1.00586-2.59082-2.27636-4.147-3.811-3.91406-5.92675.3291-2.98975,2.39355-7.00684,4.05225-10.23389.44238-.86182.86474-1.68359,1.23584-2.44482,4.03418-8.27295,10.57666-14.96729,20.00146-20.46631a118.83354,118.83354,0,0,0,15.81006-11.03955,23.70536,23.70536,0,0,0,10.62988-20.4209c-.021-10.72266.25488-21.80713.84375-33.88526a112.56831,112.56831,0,0,1,2.18115-17.15625,10.49438,10.49438,0,0,1,11.877-8.521l.15674.019c1.667.15039,3.33252.32227,4.99853.49365,3.23877.333,6.5874.67774,9.91992.86133a57.40953,57.40953,0,0,0,25.13721-3.24316l3.57178-1.312c10.62353-3.90088,21.6084-7.93409,32.27978-12.19825a137.19848,137.19848,0,0,0,13.84619-6.77c3.19629-1.71533,6.502-3.48974,9.81739-5.01513.51074-.23487,1.04785-.49121,1.604-.75733,2.73877-1.3081,6.14648-2.93554,8.7251-2.93554h.00586a3.38186,3.38186,0,0,1,2.11133.73.94036.94036,0,0,1-.1587.33007c-1.2832,1.96875-2.71386,3.92725-4.09668,5.82178-1.50585,2.062-3.063,4.19434-4.46826,6.38086a116.23655,116.23655,0,0,0-7.46484,13.08106,12.20317,12.20317,0,0,0,1.01465,13.54248,10.80537,10.80537,0,0,0,11.76806,4.03418,25.8262,25.8262,0,0,0,5.17188-2.33155c.897-.48828,1.74365-.9497,2.60107-1.333a17.60575,17.60575,0,0,1,16.51807,1.353,38.68875,38.68875,0,0,1,3.46435,2.69922c2.39747,2.01367,4.877,4.09619,8.15528,5.06055a22.96628,22.96628,0,0,0,5.76074.72217c.89258.03369,1.73584.06591,2.55322.15185a8.34292,8.34292,0,0,1,6.6128,4.54053l.06005.10547A66.78485,66.78485,0,0,0,269.561,226.65869l.28759.22949.34082.13721c8.14307,3.272,16.91846,4.31494,25.40528,5.32324,4.01074.477,8.1582.96973,12.10351,1.69141,8.12012,1.48584,16.33887,3.60742,24.28614,5.65918,4.13769,1.06836,8.416,2.17285,12.58593,3.16113,9.373,2.22168,18.53516,5.58692,27.39551,8.84131,7.03906,2.585,14.31738,5.2583,21.72949,7.37744,10.67578,3.05127,21.67188,5.30811,32.30664,7.49072,5.333,1.09473,10.84766,2.22608,16.23633,3.44141,1.7002.3833,3.55274.67822,5.51367.99023,9.35743,1.49024,16.10938,3.0337,17.75684,9.36133,1.68457,6.47412,7.54,7.60547,12.24512,8.51416a28.45129,28.45129,0,0,1,4.55371,1.12549,12.82527,12.82527,0,0,1,8.61718,12.65479l-.00878.17968.0166.17969c.60937,6.61475,1.59961,13.269,2.55664,19.70459.74219,4.98779,1.50879,10.14453,2.08789,15.21582a22.5125,22.5125,0,0,0,10.48047,19.00733l.3125.22265c4.32715,3.08545,6.07715,4.85987,5.00781,7.21924-1.32715,2.92822-4.11035,5.34863-6.80176,7.68945-1.125.97754-2.28711,1.98877-3.34668,3.03662-3.68066,3.63916-5.89551,7.69043-8.21,12.22657-2.85644,5.60254-6.02344,11.19677-9.08691,16.60644-1.73535,3.06494-3.52832,6.23291-5.25391,9.38184a17.2126,17.2126,0,0,0-2.9834,11.84277c.69727,6.01758,4.01758,10.5332,9.11035,12.38867,4.81836,1.752,11.48829.88672,14.91211-4.16406a35.14721,35.14721,0,0,1,10.87793-10.37012,13.45179,13.45179,0,0,0,6.03614-7.563c1.001-3.46582,3.35156-5.67432,6.07324-8.23194,1.08984-1.02441,2.2168-2.084,3.27832-3.26025,6.39941-7.09033,12.45312-14.65772,18.30664-21.97608q2.978-3.72289,5.9707-7.43066c1.7041-2.10156,3.332-4.292,4.90528-6.41016,1.52734-2.05517,3.10546-4.18066,4.72656-6.1831.87207-1.07764,1.69043-2.229,2.48242-3.34229a28.64824,28.64824,0,0,1,5.1123-5.999q.03223-.02563.06446-.04981C567.126,354.44824,565.62988,358.44043,561.03027,366.92285Z" transform="translate(-22.58498 -148.86475)"/></svg>