<svg id="Layer_1" data-name="Layer 1" xmlns="http://www.w3.org/2000/svg" viewBox="0 0 651.56006 482.21441"><path d="M743.74512,101.62744c-2.77539-2.91553-6.94043-3.21826-9.69727-3.41846L186.05615,58.47559c-4.9331-.35645-11.3457-.56055-17.19336,1.06005-16.24707,4.502-18.99316,14.73731-20.89453,27.64942-2.103,14.28027-4.09131,28.8164-6.01367,42.874q-1.0188,7.448-2.04346,14.894c-5.28125,38.26514-10.53467,77.14112-15.61377,115.54786-10.0542,76.03125-19.8042,153.09082-28.97851,229.03711-.35449,2.93554-.84033,6.95507,1.20556,10.38086,3.17481,5.31738,10.36377,5.75976,13.81836,5.97265l515.29785,31.7959c22.02637,1.35938,44.63672,2.75391,67.19825,2.75391q9.37061,0,18.71972-.35157c4.06934-.15918,8.6836-.58886,11.9375-3.68652,3.35743-3.19629,3.93555-7.83691,4.23926-12.31543,9.17871-135.23535,15.47363-272.49805,18.709-407.977l.09375-3.96777C746.60352,109.377,746.71191,104.74756,743.74512,101.62744ZM741.54,112.02539l-.09375,3.96631c-3.23438,135.40576-9.52539,272.59521-18.69922,407.7583-.24707,3.64062-.63965,7.07227-2.69824,9.03223-1.99317,1.89648-5.38379,2.18164-8.68555,2.31152-28.459,1.11523-57.41211-.66992-85.41406-2.39648l-515.29883-31.7959c-4.16064-.25684-8.23144-.86328-9.833-3.54492-1.082-1.8125-.88232-4.3418-.53467-7.21875C109.45508,414.21,119.20215,337.169,129.25439,261.15625c5.07764-38.397,10.32959-77.26367,15.60987-115.51953q1.02831-7.44873,2.04394-14.8999c1.9209-14.04541,3.90723-28.56885,6.00635-42.82325,2.03223-13.7998,4.8833-20.123,17.2832-23.55957a36.91109,36.91109,0,0,1,9.71387-1.12744c2.04688,0,4.01611.10791,5.7832.23633l547.9917,39.7334c2.63086.19092,5.10352.47851,6.43555,1.87793C741.5459,106.5708,741.60352,109.3291,741.54,112.02539Z" transform="translate(-94.99996 -58.227)"/></svg>