  0
SECTION
  2
HEADER
  9
$ACADVER
  1
AC1024
  9
$ACADMAINTVER
 70
     6
  9
$DWGCODEPAGE
  3
UNDEFINED
  9
$INSBASE
 10
0.0
 20
0.0
 30
0.0
  9
$EXTMIN
 10
1.000000000000000E+20
 20
1.000000000000000E+20
 30
1.000000000000000E+20
  9
$EXTMAX
 10
-1.000000000000000E+20
 20
-1.000000000000000E+20
 30
-1.000000000000000E+20
  9
$LIMMIN
 10
0.0
 20
0.0
  9
$LIMMAX
 10
12.0
 20
9.0
  9
$ORTHOMODE
 70
     0
  9
$REGENMODE
 70
     1
  9
$FILLMODE
 70
     1
  9
$QTEXTMODE
 70
     0
  9
$MIRRTEXT
 70
     1
  9
$LTSCALE
 40
1.0
  9
$ATTMODE
 70
     1
  9
$TEXTSIZE
 40
0.2
  9
$TRACEWID
 40
0.05
  9
$TEXTSTYLE
  7
Standard
  9
$CLAYER
  8
0
  9
$CELTYPE
  6
ByLayer
  9
$CECOLOR
 62
   256
  9
$CELTSCALE
 40
1.0
  9
$DISPSILH
 70
     0
  9
$DIMSCALE
 40
1.0
  9
$DIMASZ
 40
0.18
  9
$DIMEXO
 40
0.0625
  9
$DIMDLI
 40
0.38
  9
$DIMRND
 40
0.0
  9
$DIMDLE
 40
0.0
  9
$DIMEXE
 40
0.18
  9
$DIMTP
 40
0.0
  9
$DIMTM
 40
0.0
  9
$DIMTXT
 40
0.18
  9
$DIMCEN
 40
0.09
  9
$DIMTSZ
 40
0.0
  9
$DIMTOL
 70
     0
  9
$DIMLIM
 70
     0
  9
$DIMTIH
 70
     1
  9
$DIMTOH
 70
     1
  9
$DIMSE1
 70
     0
  9
$DIMSE2
 70
     0
  9
$DIMTAD
 70
     0
  9
$DIMZIN
 70
     0
  9
$DIMBLK
  1

  9
$DIMASO
 70
     1
  9
$DIMSHO
 70
     1
  9
$DIMPOST
  1

  9
$DIMAPOST
  1

  9
$DIMALT
 70
     0
  9
$DIMALTD
 70
     2
  9
$DIMALTF
 40
25.4
  9
$DIMLFAC
 40
1.0
  9
$DIMTOFL
 70
     0
  9
$DIMTVP
 40
0.0
  9
$DIMTIX
 70
     0
  9
$DIMSOXD
 70
     0
  9
$DIMSAH
 70
     0
  9
$DIMBLK1
  1

  9
$DIMBLK2
  1

  9
$DIMSTYLE
  2
Standard
  9
$DIMCLRD
 70
     0
  9
$DIMCLRE
 70
     0
  9
$DIMCLRT
 70
     0
  9
$DIMTFAC
 40
1.0
  9
$DIMGAP
 40
0.09
  9
$DIMJUST
 70
     0
  9
$DIMSD1
 70
     0
  9
$DIMSD2
 70
     0
  9
$DIMTOLJ
 70
     1
  9
$DIMTZIN
 70
     0
  9
$DIMALTZ
 70
     0
  9
$DIMALTTZ
 70
     0
  9
$DIMUPT
 70
     0
  9
$DIMDEC
 70
     4
  9
$DIMTDEC
 70
     4
  9
$DIMALTU
 70
     2
  9
$DIMALTTD
 70
     2
  9
$DIMTXSTY
  7
Standard
  9
$DIMAUNIT
 70
     0
  9
$DIMADEC
 70
     0
  9
$DIMALTRND
 40
0.0
  9
$DIMAZIN
 70
     0
  9
$DIMDSEP
 70
    46
  9
$DIMATFIT
 70
     3
  9
$DIMFRAC
 70
     0
  9
$DIMLDRBLK
  1

  9
$DIMLUNIT
 70
     2
  9
$DIMLWD
 70
    -2
  9
$DIMLWE
 70
    -2
  9
$DIMTMOVE
 70
     0
  9
$DIMFXL
 40
1.0
  9
$DIMFXLON
 70
     0
  9
$DIMJOGANG
 40
0.7853981633974483
  9
$DIMTFILL
 70
     0
  9
$DIMTFILLCLR
 70
     0
  9
$DIMARCSYM
 70
     0
  9
$DIMLTYPE
  6

  9
$DIMLTEX1
  6

  9
$DIMLTEX2
  6

  9
$DIMTXTDIRECTION
 70
     0
  9
$LUNITS
 70
     2
  9
$LUPREC
 70
     4
  9
$SKETCHINC
 40
0.1
  9
$FILLETRAD
 40
0.5
  9
$AUNITS
 70
     0
  9
$AUPREC
 70
     0
  9
$MENU
  1
.
  9
$ELEVATION
 40
0.0
  9
$PELEVATION
 40
0.0
  9
$THICKNESS
 40
0.0
  9
$LIMCHECK
 70
     0
  9
$CHAMFERA
 40
0.5
  9
$CHAMFERB
 40
0.5
  9
$CHAMFERC
 40
1.0
  9
$CHAMFERD
 40
0.0
  9
$SKPOLY
 70
     0
  9
$TDCREATE
 40
2459316.375821759
  9
$TDUCREATE
 40
2459316.625821759
  9
$TDUPDATE
 40
2459316.375821759
  9
$TDUUPDATE
 40
2459316.625821759
  9
$TDINDWG
 40
0.0000000116
  9
$TDUSRTIMER
 40
0.0000000116
  9
$USRTIMER
 70
     1
  9
$ANGBASE
 50
0.0
  9
$ANGDIR
 70
     0
  9
$PDMODE
 70
     0
  9
$PDSIZE
 40
0.0
  9
$PLINEWID
 40
0.0
  9
$SPLFRAME
 70
     0
  9
$SPLINETYPE
 70
     6
  9
$SPLINESEGS
 70
     8
  9
$HANDSEED
  5
6C
  9
$SURFTAB1
 70
     6
  9
$SURFTAB2
 70
     6
  9
$SURFTYPE
 70
     6
  9
$SURFU
 70
     6
  9
$SURFV
 70
     6
  9
$UCSBASE
  2

  9
$UCSNAME
  2

  9
$UCSORG
 10
0.0
 20
0.0
 30
0.0
  9
$UCSXDIR
 10
1.0
 20
0.0
 30
0.0
  9
$UCSYDIR
 10
0.0
 20
1.0
 30
0.0
  9
$UCSORTHOREF
  2

  9
$UCSORTHOVIEW
 70
     0
  9
$UCSORGTOP
 10
0.0
 20
0.0
 30
0.0
  9
$UCSORGBOTTOM
 10
0.0
 20
0.0
 30
0.0
  9
$UCSORGLEFT
 10
0.0
 20
0.0
 30
0.0
  9
$UCSORGRIGHT
 10
0.0
 20
0.0
 30
0.0
  9
$UCSORGFRONT
 10
0.0
 20
0.0
 30
0.0
  9
$UCSORGBACK
 10
0.0
 20
0.0
 30
0.0
  9
$PUCSBASE
  2

  9
$PUCSNAME
  2

  9
$PUCSORG
 10
0.0
 20
0.0
 30
0.0
  9
$PUCSXDIR
 10
1.0
 20
0.0
 30
0.0
  9
$PUCSYDIR
 10
0.0
 20
1.0
 30
0.0
  9
$PUCSORTHOREF
  2

  9
$PUCSORTHOVIEW
 70
     0
  9
$PUCSORGTOP
 10
0.0
 20
0.0
 30
0.0
  9
$PUCSORGBOTTOM
 10
0.0
 20
0.0
 30
0.0
  9
$PUCSORGLEFT
 10
0.0
 20
0.0
 30
0.0
  9
$PUCSORGRIGHT
 10
0.0
 20
0.0
 30
0.0
  9
$PUCSORGFRONT
 10
0.0
 20
0.0
 30
0.0
  9
$PUCSORGBACK
 10
0.0
 20
0.0
 30
0.0
  9
$USERI1
 70
     0
  9
$USERI2
 70
     0
  9
$USERI3
 70
     0
  9
$USERI4
 70
     0
  9
$USERI5
 70
     0
  9
$USERR1
 40
0.0
  9
$USERR2
 40
0.0
  9
$USERR3
 40
0.0
  9
$USERR4
 40
0.0
  9
$USERR5
 40
0.0
  9
$WORLDVIEW
 70
     1
  9
$SHADEDGE
 70
     3
  9
$SHADEDIF
 70
    70
  9
$TILEMODE
 70
     1
  9
$MAXACTVP
 70
    64
  9
$PINSBASE
 10
0.0
 20
0.0
 30
0.0
  9
$PLIMCHECK
 70
     0
  9
$PEXTMIN
 10
1.000000000000000E+20
 20
1.000000000000000E+20
 30
1.000000000000000E+20
  9
$PEXTMAX
 10
-1.000000000000000E+20
 20
-1.000000000000000E+20
 30
-1.000000000000000E+20
  9
$PLIMMIN
 10
0.0
 20
0.0
  9
$PLIMMAX
 10
12.0
 20
9.0
  9
$UNITMODE
 70
     0
  9
$VISRETAIN
 70
     1
  9
$PLINEGEN
 70
     0
  9
$PSLTSCALE
 70
     1
  9
$TREEDEPTH
 70
  3020
  9
$CMLSTYLE
  2
Standard
  9
$CMLJUST
 70
     0
  9
$CMLSCALE
 40
1.0
  9
$PROXYGRAPHICS
 70
     1
  9
$MEASUREMENT
 70
     0
  9
$CELWEIGHT
370
    -1
  9
$ENDCAPS
280
     0
  9
$JOINSTYLE
280
     0
  9
$LWDISPLAY
290
     1
  9
$INSUNITS
 70
     1
  9
$HYPERLINKBASE
  1

  9
$STYLESHEET
  1

  9
$XEDIT
290
     1
  9
$CEPSNTYPE
380
     0
  9
$PSTYLEMODE
290
     1
  9
$FINGERPRINTGUID
  2
{1553B4B1-A933-1B94-E2A1-E0A1F76F2482}
  9
$VERSIONGUID
  2
{FAEB1C32-E019-11D5-929B-00C0DF256EC4}
  9
$EXTNAMES
290
     1
  9
$PSVPSCALE
 40
0.0
  9
$OLESTARTUP
290
     0
  9
$SORTENTS
280
   127
  9
$INDEXCTL
280
     0
  9
$HIDETEXT
280
     1
  9
$XCLIPFRAME
280
     2
  9
$HALOGAP
280
     0
  9
$OBSCOLOR
 70
   257
  9
$OBSLTYPE
280
     0
  9
$INTERSECTIONDISPLAY
280
     0
  9
$INTERSECTIONCOLOR
 70
   257
  9
$DIMASSOC
280
     2
  9
$PROJECTNAME
  1

  9
$CAMERADISPLAY
290
     0
  9
$LENSLENGTH
 40
50.0
  9
$CAMERAHEIGHT
 40
0.0
  9
$STEPSPERSEC
 40
2.0
  9
$STEPSIZE
 40
6.0
  9
$3DDWFPREC
 40
2.0
  9
$PSOLWIDTH
 40
0.25
  9
$PSOLHEIGHT
 40
4.0
  9
$LOFTANG1
 40
1.570796326794897
  9
$LOFTANG2
 40
1.570796326794897
  9
$LOFTMAG1
 40
0.0
  9
$LOFTMAG2
 40
0.0
  9
$LOFTPARAM
 70
     7
  9
$LOFTNORMALS
280
     1
  9
$LATITUDE
 40
37.795
  9
$LONGITUDE
 40
-122.394
  9
$NORTHDIRECTION
 40
0.0
  9
$TIMEZONE
 70
 -8000
  9
$LIGHTGLYPHDISPLAY
280
     1
  9
$TILEMODELIGHTSYNCH
280
     1
  9
$CMATERIAL
347
3C
  9
$SOLIDHIST
280
     1
  9
$SHOWHIST
280
     1
  9
$DWFFRAME
280
     2
  9
$DGNFRAME
280
     2
  9
$REALWORLDSCALE
290
     1
  9
$INTERFERECOLOR
 62
   256
  9
$CSHADOW
280
     0
  9
$SHADOWPLANELOCATION
 40
0.0
  0
ENDSEC
  0
SECTION
  2
CLASSES
  0
CLASS
  1
ACDBDICTIONARYWDFLT
  2
AcDbDictionaryWithDefault
  3
ObjectDBX Classes
 90
        0
 91
        4
280
     0
281
     0
  0
CLASS
  1
VISUALSTYLE
  2
AcDbVisualStyle
  3
ObjectDBX Classes
 90
     4095
 91
        4
280
     0
281
     0
  0
CLASS
  1
MATERIAL
  2
AcDbMaterial
  3
ObjectDBX Classes
 90
     1153
 91
        4
280
     0
281
     0
  0
CLASS
  1
SUN
  2
AcDbSun
  3
SCENEOE
 90
     1024
 91
        4
280
     0
281
     0
  0
ENDSEC
  0
SECTION
  2
TABLES
  0
TABLE
  2
VPORT
  5
8
330
0
100
AcDbSymbolTable
 70
     1
  0
VPORT
  5
29
330
8
100
AcDbSymbolTableRecord
100
AcDbViewportTableRecord
  2
*Active
 70
     0
 10
0.0
 20
0.0
 11
1.0
 21
1.0
 12
0.0
 22
0.0
 13
0.0
 23
0.0
 14
0.5
 24
0.5
 15
0.5
 25
0.5
 16
0.0
 26
0.0
 36
1.0
 17
9.5
 27
16.03584798177083
 37
0.0
 40
32.07169596354166
 41
0.5924226776656509
 42
50.0
 43
0.0
 44
0.0
 50
0.0
 51
0.0
 71
     0
 72
   100
 73
     1
 74
     3
 75
     0
 76
     0
 77
     0
 78
     0
281
     0
 65
     1
110
0.0
120
0.0
130
0.0
111
1.0
121
0.0
131
0.0
112
0.0
122
1.0
132
0.0
 79
     0
146
0.0
 60
     3
 61
     5
292
     1
282
     1
141
0.0
142
0.0
 63
   250
361
3F
  0
ENDTAB
  0
TABLE
  2
LTYPE
  5
5
330
0
100
AcDbSymbolTable
 70
     1
  0
LTYPE
  5
14
330
5
100
AcDbSymbolTableRecord
100
AcDbLinetypeTableRecord
  2
ByBlock
 70
     0
  3

 72
    65
 73
     0
 40
0.0
  0
LTYPE
  5
15
330
5
100
AcDbSymbolTableRecord
100
AcDbLinetypeTableRecord
  2
ByLayer
 70
     0
  3

 72
    65
 73
     0
 40
0.0
  0
LTYPE
  5
16
330
5
100
AcDbSymbolTableRecord
100
AcDbLinetypeTableRecord
  2
Continuous
 70
     0
  3
Solid line
 72
    65
 73
     0
 40
0.0
  0
ENDTAB
  0
TABLE
  2
LAYER
  5
2
330
0
100
AcDbSymbolTable
 70
     2
  0
LAYER
  5
10
330
2
100
AcDbSymbolTableRecord
100
AcDbLayerTableRecord
  2
0
 70
     0
 62
     7
  6
Continuous
370
    -3
390
F
347
3E
  0
LAYER
  5
40
330
2
100
AcDbSymbolTableRecord
100
AcDbLayerTableRecord
  2
Layer 1
 70
     0
 62
     7
  6
Continuous
370
    -3
390
F
347
3E
  0
ENDTAB
  0
TABLE
  2
STYLE
  5
3
330
0
100
AcDbSymbolTable
 70
     1
  0
STYLE
  5
11
330
3
100
AcDbSymbolTableRecord
100
AcDbTextStyleTableRecord
  2
Standard
 70
     0
 40
0.0
 41
1.0
 50
0.0
 71
     0
 42
0.2
  3
txt
  4

  0
ENDTAB
  0
TABLE
  2
VIEW
  5
6
330
0
100
AcDbSymbolTable
 70
     0
  0
ENDTAB
  0
TABLE
  2
UCS
  5
7
330
0
100
AcDbSymbolTable
 70
     0
  0
ENDTAB
  0
TABLE
  2
APPID
  5
9
330
0
100
AcDbSymbolTable
 70
     1
  0
APPID
  5
12
330
9
100
AcDbSymbolTableRecord
100
AcDbRegAppTableRecord
  2
ACAD
 70
     0
  0
ENDTAB
  0
TABLE
  2
DIMSTYLE
  5
A
330
0
100
AcDbSymbolTable
 70
     1
100
AcDbDimStyleTable
  0
DIMSTYLE
105
27
330
A
100
AcDbSymbolTableRecord
100
AcDbDimStyleTableRecord
  2
Standard
 70
     0
178
     0
340
11
  0
ENDTAB
  0
TABLE
  2
BLOCK_RECORD
  5
1
330
0
100
AcDbSymbolTable
 70
     2
  0
BLOCK_RECORD
  5
1F
330
1
100
AcDbSymbolTableRecord
100
AcDbBlockTableRecord
  2
*Model_Space
340
22
 70
     0
280
     1
281
     0
  0
BLOCK_RECORD
  5
1B
330
1
100
AcDbSymbolTableRecord
100
AcDbBlockTableRecord
  2
*Paper_Space
340
1E
 70
     0
280
     1
281
     0
  0
BLOCK_RECORD
  5
23
330
1
100
AcDbSymbolTableRecord
100
AcDbBlockTableRecord
  2
*Paper_Space0
340
26
 70
     0
280
     1
281
     0
  0
BLOCK_RECORD
  5
61
330
1
100
AcDbSymbolTableRecord
100
AcDbBlockTableRecord
  2
block 2
340
0
102
{BLKREFS
331
62
102
}
 70
     0
280
     1
281
     0
  0
ENDTAB
  0
ENDSEC
  0
SECTION
  2
BLOCKS
  0
BLOCK
  5
20
330
1F
100
AcDbEntity
  8
0
100
AcDbBlockBegin
  2
*Model_Space
 70
     0
 10
0.0
 20
0.0
 30
0.0
  3
*Model_Space
  1

  0
ENDBLK
  5
21
330
1F
100
AcDbEntity
  8
0
100
AcDbBlockEnd
  0
BLOCK
  5
1C
330
1B
100
AcDbEntity
 67
     1
  8
0
100
AcDbBlockBegin
  2
*Paper_Space
 70
     0
 10
0.0
 20
0.0
 30
0.0
  3
*Paper_Space
  1

  0
ENDBLK
  5
1D
330
1B
100
AcDbEntity
 67
     1
  8
0
100
AcDbBlockEnd
  0
BLOCK
  5
24
330
23
100
AcDbEntity
  8
0
100
AcDbBlockBegin
  2
*Paper_Space0
 70
     0
 10
0.0
 20
0.0
 30
0.0
  3
*Paper_Space0
  1

  0
ENDBLK
  5
25
330
23
100
AcDbEntity
  8
0
100
AcDbBlockEnd
  0
BLOCK
  5
63
330
61
100
AcDbEntity
  8
0
100
AcDbBlockBegin
  2
block 2
 70
     0
 10
0.0
 20
0.0
 30
0.0
  3
block 2
  1

  0
SPLINE
  5
65
330
61
100
AcDbEntity
  8
Layer 1
 62
     7
420
 16777215
370
    25
100
AcDbSpline
210
0.0
220
0.0
230
1.0
 70
    11
 71
     3
 72
    26
 73
    22
 74
     0
 42
0.0000000001
 43
0.0000000001
 12
1.0
 22
0.0
 32
0.0
 13
1.0
 23
0.0
 33
0.0
 40
0.0
 40
0.0
 40
0.0
 40
0.0
 40
1.0
 40
1.0
 40
1.0
 40
2.0
 40
2.0
 40
2.0
 40
3.0
 40
3.0
 40
3.0
 40
4.0
 40
4.0
 40
4.0
 40
5.0
 40
5.0
 40
5.0
 40
6.0
 40
6.0
 40
6.0
 40
7.0
 40
7.0
 40
7.0
 40
7.0
 10
14.93004184299045
 20
17.43062676323785
 30
0.0
 10
15.33509657118056
 20
17.66757202148438
 30
0.0
 10
15.42013888888889
 20
18.10611300998264
 30
0.0
 10
15.42013888888889
 20
18.43226538764106
 30
0.0
 10
15.42013888888889
 20
18.76625145806207
 30
0.0
 10
15.31126403808594
 20
19.04459889729818
 30
0.0
 10
15.09655592176649
 20
19.25958506266276
 30
0.0
 10
14.88126458062066
 20
19.47461276584201
 30
0.0
 10
14.60290357801649
 20
19.58348761664496
 30
0.0
 10
14.26891750759549
 20
19.58348761664496
 30
0.0
 10
14.26891750759549
 20
19.58348761664496
 30
0.0
 10
13.09376441107856
 20
19.58348761664496
 30
0.0
 10
13.09376441107856
 20
19.58348761664496
 30
0.0
 10
13.09376441107856
 20
19.58348761664496
 30
0.0
 10
13.09376441107856
 20
17.19732157389323
 30
0.0
 10
13.09376441107856
 20
17.19732157389323
 30
0.0
 10
13.09376441107856
 20
17.19732157389323
 30
0.0
 10
13.76665327284071
 20
17.19732157389323
 30
0.0
 10
13.76665327284071
 20
17.19732157389323
 30
0.0
 10
14.28129238552517
 20
17.19733513726128
 30
0.0
 10
14.66183302137587
 20
17.27364095052083
 30
0.0
 10
14.93004184299045
 20
17.43062676323785
 30
0.0
  0
SPLINE
  5
66
330
61
100
AcDbEntity
  8
Layer 1
 62
     7
420
 16777215
370
    25
100
AcDbSpline
210
0.0
220
0.0
230
1.0
 70
    11
 71
     3
 72
    29
 73
    25
 74
     0
 42
0.0000000001
 43
0.0000000001
 12
1.0
 22
0.0
 32
0.0
 13
1.0
 23
0.0
 33
0.0
 40
0.0
 40
0.0
 40
0.0
 40
0.0
 40
1.0
 40
1.0
 40
1.0
 40
2.0
 40
2.0
 40
2.0
 40
3.0
 40
3.0
 40
3.0
 40
4.0
 40
4.0
 40
4.0
 40
5.0
 40
5.0
 40
5.0
 40
6.0
 40
6.0
 40
6.0
 40
7.0
 40
7.0
 40
7.0
 40
8.0
 40
8.0
 40
8.0
 40
8.0
 10
13.44376373291016
 20
19.23348744710286
 30
0.0
 10
13.44376373291016
 20
19.23348744710286
 30
0.0
 10
14.26891581217448
 20
19.23348744710286
 30
0.0
 10
14.26891581217448
 20
19.23348744710286
 30
0.0
 10
14.5080820719401
 20
19.23348744710286
 30
0.0
 10
14.70129055447049
 20
19.15968153211805
 30
0.0
 10
14.8489023844401
 20
19.01225111219618
 30
0.0
 10
14.99633280436198
 20
18.86464012993707
 30
0.0
 10
15.07013787163628
 20
18.67143164740668
 30
0.0
 10
15.07013787163628
 20
18.4322509765625
 30
0.0
 10
15.07013787163628
 20
18.08937581380208
 30
0.0
 10
14.96438768174913
 20
17.85618167453342
 30
0.0
 10
14.75323486328125
 20
17.73266771104601
 30
0.0
 10
14.54190233018663
 20
17.60897318522135
 30
0.0
 10
14.21304066975911
 20
17.54730733235677
 30
0.0
 10
13.7666515774197
 20
17.54730733235677
 30
0.0
 10
13.7666515774197
 20
17.54730733235677
 30
0.0
 10
13.44376288519965
 20
17.54730733235677
 30
0.0
 10
13.44376288519965
 20
17.54730733235677
 30
0.0
 10
13.44376288519965
 20
17.54730733235677
 30
0.0
 10
13.44376373291016
 20
19.23348744710286
 30
0.0
 10
13.44376373291016
 20
19.23348744710286
 30
0.0
 10
13.44376373291016
 20
19.23348744710286
 30
0.0
 10
13.44376373291016
 20
19.23348744710286
 30
0.0
 10
13.44376373291016
 20
19.23348744710286
 30
0.0
  0
SPLINE
  5
67
330
61
100
AcDbEntity
  8
Layer 1
 62
     7
420
 16777215
370
    25
100
AcDbSpline
210
0.0
220
0.0
230
1.0
 70
    11
 71
     3
 72
    29
 73
    25
 74
     0
 42
0.0000000001
 43
0.0000000001
 12
1.0
 22
0.0
 32
0.0
 13
1.0
 23
0.0
 33
0.0
 40
0.0
 40
0.0
 40
0.0
 40
0.0
 40
1.0
 40
1.0
 40
1.0
 40
2.0
 40
2.0
 40
2.0
 40
3.0
 40
3.0
 40
3.0
 40
4.0
 40
4.0
 40
4.0
 40
5.0
 40
5.0
 40
5.0
 40
6.0
 40
6.0
 40
6.0
 40
7.0
 40
7.0
 40
7.0
 40
8.0
 40
8.0
 40
8.0
 40
8.0
 10
15.05824957953559
 20
16.06052992078993
 30
0.0
 10
14.7997080485026
 20
16.27157084147135
 30
0.0
 10
14.42952813042535
 20
16.37858581542969
 30
0.0
 10
13.95798577202691
 20
16.37858581542969
 30
0.0
 10
13.78066592746311
 20
16.37858581542969
 30
0.0
 10
13.60215250651042
 20
16.37443372938368
 30
0.0
 10
13.42738850911458
 20
16.36625332302517
 30
0.0
 10
13.42738850911458
 20
16.36625332302517
 30
0.0
 10
13.09376356336806
 20
16.35062832302517
 30
0.0
 10
13.09376356336806
 20
16.35062832302517
 30
0.0
 10
13.09376356336806
 20
16.35062832302517
 30
0.0
 10
13.09376356336806
 20
13.7054206000434
 30
0.0
 10
13.09376356336806
 20
13.7054206000434
 30
0.0
 10
13.09376356336806
 20
13.7054206000434
 30
0.0
 10
13.65902709960938
 20
13.7054206000434
 30
0.0
 10
13.65902709960938
 20
13.7054206000434
 30
0.0
 10
14.19079081217448
 20
13.7054206000434
 30
0.0
 10
14.5991939968533
 20
13.78267076280382
 30
0.0
 10
14.90759616427951
 20
13.94161478678385
 30
0.0
 10
15.16874864366319
 20
14.07630920410156
 30
0.0
 10
15.47992960611979
 20
14.38169860839844
 30
0.0
 10
15.47992960611979
 20
15.07190619574653
 30
0.0
 10
15.4799313015408
 20
15.49950154622396
 30
0.0
 10
15.33805508083767
 20
15.83211263020833
 30
0.0
 10
15.05824957953559
 20
16.06052992078993
 30
0.0
  0
SPLINE
  5
68
330
61
100
AcDbEntity
  8
Layer 1
 62
     7
420
 16777215
370
    25
100
AcDbSpline
210
0.0
220
0.0
230
1.0
 70
    11
 71
     3
 72
    23
 73
    19
 74
     0
 42
0.0000000001
 43
0.0000000001
 12
1.0
 22
0.0
 32
0.0
 13
1.0
 23
0.0
 33
0.0
 40
0.0
 40
0.0
 40
0.0
 40
0.0
 40
1.0
 40
1.0
 40
1.0
 40
2.0
 40
2.0
 40
2.0
 40
3.0
 40
3.0
 40
3.0
 40
4.0
 40
4.0
 40
4.0
 40
5.0
 40
5.0
 40
5.0
 40
6.0
 40
6.0
 40
6.0
 40
6.0
 10
14.74725002712674
 20
14.25273810492621
 30
0.0
 10
14.49201456705729
 20
14.12119717068142
 30
0.0
 10
14.12931908501519
 20
14.05543178982205
 30
0.0
 10
13.65901353624132
 20
14.05543178982205
 30
0.0
 10
13.65901353624132
 20
14.05543178982205
 30
0.0
 10
13.4437501695421
 20
14.05543178982205
 30
0.0
 10
13.4437501695421
 20
14.05543178982205
 30
0.0
 10
13.4437501695421
 20
14.05543178982205
 30
0.0
 10
13.4437501695421
 20
16.01664055718316
 30
0.0
 10
13.4437501695421
 20
16.01664055718316
 30
0.0
 10
13.61118062337239
 20
16.02447340223524
 30
0.0
 10
13.78251393636068
 20
16.02858479817708
 30
0.0
 10
13.95797220865885
 20
16.02858479817708
 30
0.0
 10
14.7392086452908
 20
16.02858479817708
 30
0.0
 10
15.12991672092014
 20
15.70962693956163
 30
0.0
 10
15.12991672092014
 20
15.07190450032552
 30
0.0
 10
15.12993028428819
 20
14.65727912055121
 30
0.0
 10
15.00230577256944
 20
14.38429260253906
 30
0.0
 10
14.74725002712674
 20
14.25273810492621
 30
0.0
  0
SPLINE
  5
69
330
61
100
AcDbEntity
  8
Layer 1
 62
     7
420
 16777215
370
    25
100
AcDbSpline
210
0.0
220
0.0
230
1.0
 70
    11
 71
     3
 72
   113
 73
   109
 74
     0
 42
0.0000000001
 43
0.0000000001
 12
1.0
 22
0.0
 32
0.0
 13
1.0
 23
0.0
 33
0.0
 40
0.0
 40
0.0
 40
0.0
 40
0.0
 40
1.0
 40
1.0
 40
1.0
 40
2.0
 40
2.0
 40
2.0
 40
3.0
 40
3.0
 40
3.0
 40
4.0
 40
4.0
 40
4.0
 40
5.0
 40
5.0
 40
5.0
 40
6.0
 40
6.0
 40
6.0
 40
7.0
 40
7.0
 40
7.0
 40
8.0
 40
8.0
 40
8.0
 40
9.0
 40
9.0
 40
9.0
 40
10.0
 40
10.0
 40
10.0
 40
11.0
 40
11.0
 40
11.0
 40
12.0
 40
12.0
 40
12.0
 40
13.0
 40
13.0
 40
13.0
 40
14.0
 40
14.0
 40
14.0
 40
15.0
 40
15.0
 40
15.0
 40
16.0
 40
16.0
 40
16.0
 40
17.0
 40
17.0
 40
17.0
 40
18.0
 40
18.0
 40
18.0
 40
19.0
 40
19.0
 40
19.0
 40
20.0
 40
20.0
 40
20.0
 40
21.0
 40
21.0
 40
21.0
 40
22.0
 40
22.0
 40
22.0
 40
23.0
 40
23.0
 40
23.0
 40
24.0
 40
24.0
 40
24.0
 40
25.0
 40
25.0
 40
25.0
 40
26.0
 40
26.0
 40
26.0
 40
27.0
 40
27.0
 40
27.0
 40
28.0
 40
28.0
 40
28.0
 40
29.0
 40
29.0
 40
29.0
 40
30.0
 40
30.0
 40
30.0
 40
31.0
 40
31.0
 40
31.0
 40
32.0
 40
32.0
 40
32.0
 40
33.0
 40
33.0
 40
33.0
 40
34.0
 40
34.0
 40
34.0
 40
35.0
 40
35.0
 40
35.0
 40
36.0
 40
36.0
 40
36.0
 40
36.0
 10
17.90092976888021
 20
15.99869622124566
 30
0.0
 10
17.64176262749566
 20
16.36940511067708
 30
0.0
 10
17.24115159776476
 20
16.67023722330729
 30
0.0
 10
16.69908311631944
 20
16.90155707465278
 30
0.0
 10
17.11352708604601
 20
17.05290391710069
 30
0.0
 10
17.45434739854601
 20
17.30011325412326
 30
0.0
 10
17.72154066297743
 20
17.64298841688368
 30
0.0
 10
17.98855421278212
 20
17.98568301730686
 30
0.0
 10
18.12215169270833
 20
18.38834974500868
 30
0.0
 10
18.12215169270833
 20
18.85080803765191
 30
0.0
 10
18.12215169270833
 20
19.51246049669054
 30
0.0
 10
17.96463860405816
 20
20.02275254991319
 30
0.0
 10
17.64979044596354
 20
20.38150278727213
 30
0.0
 10
17.33474900987413
 20
20.74026658799913
 30
0.0
 10
16.91022067599826
 20
20.9833501180013
 30
0.0
 10
16.37619357638889
 20
21.11097462972005
 30
0.0
 10
16.15533277723524
 20
21.16365559895833
 30
0.0
 10
15.9130130343967
 20
21.20530785454644
 30
0.0
 10
15.64991590711806
 20
21.23625267876519
 30
0.0
 10
15.64991590711806
 20
21.23625267876519
 30
0.0
 10
15.64991590711806
 20
20.88364156087239
 30
0.0
 10
15.64991590711806
 20
20.88364156087239
 30
0.0
 10
15.88377719455295
 20
20.85486348470052
 30
0.0
 10
16.09929063585069
 20
20.8172107272678
 30
0.0
 10
16.2949710422092
 20
20.77053070068359
 30
0.0
 10
16.76109653049045
 20
20.65914154052734
 30
0.0
 10
17.11827596028646
 20
20.45633612738715
 30
0.0
 10
17.38677639431424
 20
20.15055847167969
 30
0.0
 10
17.64245775010851
 20
19.85921139187283
 30
0.0
 10
17.77213711208767
 20
19.42189195421007
 30
0.0
 10
17.77213711208767
 20
18.85079447428385
 30
0.0
 10
17.77213711208767
 20
18.46494717068142
 30
0.0
 10
17.66527642144097
 20
18.14023929172092
 30
0.0
 10
17.44544304741753
 20
17.85810004340278
 30
0.0
 10
17.21722073025174
 20
17.56523810492622
 30
0.0
 10
16.93380398220486
 20
17.35987854003906
 30
0.0
 10
16.57901170518663
 20
17.23030768500434
 30
0.0
 10
16.57901170518663
 20
17.23030768500434
 30
0.0
 10
15.74806722005208
 20
16.92684936523438
 30
0.0
 10
15.74806722005208
 20
16.92684936523438
 30
0.0
 10
15.74806722005208
 20
16.92684936523438
 30
0.0
 10
16.56170654296875
 20
16.57962714301215
 30
0.0
 10
16.56170654296875
 20
16.57962714301215
 30
0.0
 10
17.04024759928385
 20
16.37540520562066
 30
0.0
 10
17.39431762695312
 20
16.11248779296875
 30
0.0
 10
17.61408148871528
 20
15.79814147949219
 30
0.0
 10
17.83003913031684
 20
15.48898824055989
 30
0.0
 10
17.93958197699653
 20
15.0434332953559
 30
0.0
 10
17.93958197699653
 20
14.47394646538628
 30
0.0
 10
17.93958197699653
 20
13.80033535427517
 30
0.0
 10
17.68545701768663
 20
13.29577975802951
 30
0.0
 10
17.16266547309028
 20
12.93143208821614
 30
0.0
 10
16.60751342773438
 20
12.54464043511285
 30
0.0
 10
15.79169379340278
 20
12.34851582845052
 30
0.0
 10
14.73787434895833
 20
12.34851582845052
 30
0.0
 10
14.73787434895833
 20
12.34851582845052
 30
0.0
 10
9.850013732910156
 20
12.34851582845052
 30
0.0
 10
9.850013732910156
 20
12.34851582845052
 30
0.0
 10
9.850013732910156
 20
12.34851582845052
 30
0.0
 10
9.850013732910156
 20
13.70539008246528
 30
0.0
 10
9.850013732910156
 20
13.70539008246528
 30
0.0
 10
9.850013732910156
 20
13.70539008246528
 30
0.0
 10
10.97412448459201
 20
13.70539008246528
 30
0.0
 10
10.97412448459201
 20
13.70539008246528
 30
0.0
 10
10.97412448459201
 20
13.70539008246528
 30
0.0
 10
10.97412448459201
 20
19.58350118001302
 30
0.0
 10
10.97412448459201
 20
19.58350118001302
 30
0.0
 10
10.97412448459201
 20
19.58350118001302
 30
0.0
 10
10.00547197129991
 20
19.58350118001302
 30
0.0
 10
10.00547197129991
 20
19.58350118001302
 30
0.0
 10
10.00547197129991
 20
19.58350118001302
 30
0.0
 10
10.00547197129991
 20
20.95233493381076
 30
0.0
 10
10.00547197129991
 20
20.95233493381076
 30
0.0
 10
10.00547197129991
 20
20.95233493381076
 30
0.0
 10
12.68122185601128
 20
20.95233493381076
 30
0.0
 10
12.68122185601128
 20
20.95233493381076
 30
0.0
 10
12.68122185601128
 20
20.95233493381076
 30
0.0
 10
12.68122185601128
 20
21.30233510335286
 30
0.0
 10
12.68122185601128
 20
21.30233510335286
 30
0.0
 10
12.68122185601128
 20
21.30233510335286
 30
0.0
 10
9.655471801757812
 20
21.30233510335286
 30
0.0
 10
9.655471801757812
 20
21.30233510335286
 30
0.0
 10
9.655471801757812
 20
21.30233510335286
 30
0.0
 10
9.655471801757812
 20
19.23350185818142
 30
0.0
 10
9.655471801757812
 20
19.23350185818142
 30
0.0
 10
9.655471801757812
 20
19.23350185818142
 30
0.0
 10
10.62412431504991
 20
19.23350185818142
 30
0.0
 10
10.62412431504991
 20
19.23350185818142
 30
0.0
 10
10.62412431504991
 20
19.23350185818142
 30
0.0
 10
10.62412431504991
 20
14.05544704861111
 30
0.0
 10
10.62412431504991
 20
14.05544704861111
 30
0.0
 10
10.62412431504991
 20
14.05544704861111
 30
0.0
 10
9.5
 20
14.05544704861111
 30
0.0
 10
9.5
 20
14.05544704861111
 30
0.0
 10
9.5
 20
14.05544704861111
 30
0.0
 10
9.5
 20
11.9985588921441
 30
0.0
 10
9.5
 20
11.9985588921441
 30
0.0
 10
9.5
 20
11.9985588921441
 30
0.0
 10
14.73786078559028
 20
11.9985588921441
 30
0.0
 10
14.73786078559028
 20
11.9985588921441
 30
0.0
 10
15.86981879340278
 20
11.9985588921441
 30
0.0
 10
16.74484761555989
 20
12.21380954318576
 30
0.0
 10
17.36277770996094
 20
12.64432271321614
 30
0.0
 10
17.98051452636719
 20
13.07483588324653
 30
0.0
 10
18.28956943088108
 20
13.68471103244358
 30
0.0
 10
18.28956943088108
 20
14.4739752875434
 30
0.0
 10
18.28958299424913
 20
15.11973741319444
 30
0.0
 10
18.15990193684896
 20
15.62798733181424
 30
0.0
 10
17.90092976888021
 20
15.99869622124566
 30
0.0
  0
ENDBLK
  5
64
330
61
100
AcDbEntity
  8
0
100
AcDbBlockEnd
  0
ENDSEC
  0
SECTION
  2
ENTITIES
  0
SPLINE
  5
41
330
1F
100
AcDbEntity
  8
Layer 1
 62
     7
420
 16777215
370
    25
100
AcDbSpline
210
0.0
220
0.0
230
1.0
 70
    11
 71
     3
 72
    26
 73
    22
 74
     0
 42
0.0000000001
 43
0.0000000001
 12
1.0
 22
0.0
 32
0.0
 13
1.0
 23
0.0
 33
0.0
 40
0.0
 40
0.0
 40
0.0
 40
0.0
 40
1.0
 40
1.0
 40
1.0
 40
2.0
 40
2.0
 40
2.0
 40
3.0
 40
3.0
 40
3.0
 40
4.0
 40
4.0
 40
4.0
 40
5.0
 40
5.0
 40
5.0
 40
6.0
 40
6.0
 40
6.0
 40
7.0
 40
7.0
 40
7.0
 40
7.0
 10
5.800749884711371
 20
17.59255642361111
 30
0.0
 10
6.205805460611979
 20
17.82950168185764
 30
0.0
 10
6.290846930609809
 20
18.2680426703559
 30
0.0
 10
6.290846930609809
 20
18.59419504801432
 30
0.0
 10
6.290846930609809
 20
18.92818111843533
 30
0.0
 10
6.181972079806857
 20
19.20652855767144
 30
0.0
 10
5.967263539632161
 20
19.42151472303602
 30
0.0
 10
5.751971774631076
 20
19.63654242621528
 30
0.0
 10
5.47361077202691
 20
19.74541727701823
 30
0.0
 10
5.139624701605903
 20
19.74541727701823
 30
0.0
 10
5.139624701605903
 20
19.74541727701823
 30
0.0
 10
3.964472028944227
 20
19.74541727701823
 30
0.0
 10
3.964472028944227
 20
19.74541727701823
 30
0.0
 10
3.964472028944227
 20
19.74541727701823
 30
0.0
 10
3.964472028944227
 20
17.35925123426649
 30
0.0
 10
3.964472028944227
 20
17.35925123426649
 30
0.0
 10
3.964472028944227
 20
17.35925123426649
 30
0.0
 10
4.63736089070638
 20
17.35925123426649
 30
0.0
 10
4.63736089070638
 20
17.35925123426649
 30
0.0
 10
5.152000003390842
 20
17.35926479763455
 30
0.0
 10
5.53254148695204
 20
17.4355706108941
 30
0.0
 10
5.800749884711371
 20
17.59255642361111
 30
0.0
  0
SPLINE
  5
42
330
1F
100
AcDbEntity
  8
Layer 1
 62
     7
420
 16777215
370
    25
100
AcDbSpline
210
0.0
220
0.0
230
1.0
 70
    11
 71
     3
 72
    29
 73
    25
 74
     0
 42
0.0000000001
 43
0.0000000001
 12
1.0
 22
0.0
 32
0.0
 13
1.0
 23
0.0
 33
0.0
 40
0.0
 40
0.0
 40
0.0
 40
0.0
 40
1.0
 40
1.0
 40
1.0
 40
2.0
 40
2.0
 40
2.0
 40
3.0
 40
3.0
 40
3.0
 40
4.0
 40
4.0
 40
4.0
 40
5.0
 40
5.0
 40
5.0
 40
6.0
 40
6.0
 40
6.0
 40
7.0
 40
7.0
 40
7.0
 40
8.0
 40
8.0
 40
8.0
 40
8.0
 10
4.314472198486328
 20
19.39541795518663
 30
0.0
 10
4.314472198486328
 20
19.39541795518663
 30
0.0
 10
5.139625125461154
 20
19.39541795518663
 30
0.0
 10
5.139625125461154
 20
19.39541795518663
 30
0.0
 10
5.378791809082031
 20
19.39541795518663
 30
0.0
 10
5.572000291612413
 20
19.32161204020182
 30
0.0
 10
5.719611273871528
 20
19.17418162027995
 30
0.0
 10
5.867041693793403
 20
19.02657063802083
 30
0.0
 10
5.940847184922959
 20
18.83336215549045
 30
0.0
 10
5.940847184922959
 20
18.59418148464627
 30
0.0
 10
5.940847184922959
 20
18.25130632188585
 30
0.0
 10
5.835096995035807
 20
18.01811218261719
 30
0.0
 10
5.623944600423177
 20
17.89459821912977
 30
0.0
 10
5.412611219618055
 20
17.77090454101562
 30
0.0
 10
5.08374998304579
 20
17.70923699273003
 30
0.0
 10
4.637361314561631
 20
17.70923699273003
 30
0.0
 10
4.637361314561631
 20
17.70923699273003
 30
0.0
 10
4.314472622341579
 20
17.70923699273003
 30
0.0
 10
4.314472622341579
 20
17.70923699273003
 30
0.0
 10
4.314472622341579
 20
17.70923699273003
 30
0.0
 10
4.314472198486328
 20
19.39541795518663
 30
0.0
 10
4.314472198486328
 20
19.39541795518663
 30
0.0
 10
4.314472198486328
 20
19.39541795518663
 30
0.0
 10
4.314472198486328
 20
19.39541795518663
 30
0.0
 10
4.314472198486328
 20
19.39541795518663
 30
0.0
  0
SPLINE
  5
43
330
1F
100
AcDbEntity
  8
Layer 1
 62
     7
420
 16777215
370
    25
100
AcDbSpline
210
0.0
220
0.0
230
1.0
 70
    11
 71
     3
 72
    29
 73
    25
 74
     0
 42
0.0000000001
 43
0.0000000001
 12
1.0
 22
0.0
 32
0.0
 13
1.0
 23
0.0
 33
0.0
 40
0.0
 40
0.0
 40
0.0
 40
0.0
 40
1.0
 40
1.0
 40
1.0
 40
2.0
 40
2.0
 40
2.0
 40
3.0
 40
3.0
 40
3.0
 40
4.0
 40
4.0
 40
4.0
 40
5.0
 40
5.0
 40
5.0
 40
6.0
 40
6.0
 40
6.0
 40
7.0
 40
7.0
 40
7.0
 40
8.0
 40
8.0
 40
8.0
 40
8.0
 10
5.928958468967013
 20
16.22245958116319
 30
0.0
 10
5.670416937934028
 20
16.43350050184462
 30
0.0
 10
5.300236172146267
 20
16.54051547580295
 30
0.0
 10
4.828694661458333
 20
16.54051547580295
 30
0.0
 10
4.651375240749783
 20
16.54051547580295
 30
0.0
 10
4.47286139594184
 20
16.53636338975694
 30
0.0
 10
4.298097398546007
 20
16.52818298339844
 30
0.0
 10
4.298097398546007
 20
16.52818298339844
 30
0.0
 10
3.964472452799479
 20
16.51255798339844
 30
0.0
 10
3.964472452799479
 20
16.51255798339844
 30
0.0
 10
3.964472452799479
 20
16.51255798339844
 30
0.0
 10
3.964472452799479
 20
13.86735026041667
 30
0.0
 10
3.964472452799479
 20
13.86735026041667
 30
0.0
 10
3.964472452799479
 20
13.86735026041667
 30
0.0
 10
4.52973641289605
 20
13.86735026041667
 30
0.0
 10
4.52973641289605
 20
13.86735026041667
 30
0.0
 10
5.061500125461154
 20
13.86735026041667
 30
0.0
 10
5.469902886284722
 20
13.94460042317708
 30
0.0
 10
5.778305901421441
 20
14.10354444715712
 30
0.0
 10
6.039458804660373
 20
14.23823886447483
 30
0.0
 10
6.350639343261719
 20
14.5436282687717
 30
0.0
 10
6.350639343261719
 20
15.23383585611979
 30
0.0
 10
6.350638919406467
 20
15.66143290201823
 30
0.0
 10
6.208763970269097
 20
15.9940439860026
 30
0.0
 10
5.928958468967013
 20
16.22245958116319
 30
0.0
  0
SPLINE
  5
44
330
1F
100
AcDbEntity
  8
Layer 1
 62
     7
420
 16777215
370
    25
100
AcDbSpline
210
0.0
220
0.0
230
1.0
 70
    11
 71
     3
 72
    23
 73
    19
 74
     0
 42
0.0000000001
 43
0.0000000001
 12
1.0
 22
0.0
 32
0.0
 13
1.0
 23
0.0
 33
0.0
 40
0.0
 40
0.0
 40
0.0
 40
0.0
 40
1.0
 40
1.0
 40
1.0
 40
2.0
 40
2.0
 40
2.0
 40
3.0
 40
3.0
 40
3.0
 40
4.0
 40
4.0
 40
4.0
 40
5.0
 40
5.0
 40
5.0
 40
6.0
 40
6.0
 40
6.0
 40
6.0
 10
5.617958492702908
 20
14.41466776529948
 30
0.0
 10
5.362722184922959
 20
14.28312683105469
 30
0.0
 10
5.000027974446614
 20
14.21736145019531
 30
0.0
 10
4.529722425672743
 20
14.21736145019531
 30
0.0
 10
4.529722425672743
 20
14.21736145019531
 30
0.0
 10
4.314458635118273
 20
14.21736145019531
 30
0.0
 10
4.314458635118273
 20
14.21736145019531
 30
0.0
 10
4.314458635118273
 20
14.21736145019531
 30
0.0
 10
4.314458635118273
 20
16.17857021755642
 30
0.0
 10
4.314458635118273
 20
16.17857021755642
 30
0.0
 10
4.481889088948567
 20
16.18640306260851
 30
0.0
 10
4.653222401936849
 20
16.19051445855035
 30
0.0
 10
4.828680674235025
 20
16.19051445855035
 30
0.0
 10
5.609916687011719
 20
16.19051445855035
 30
0.0
 10
6.00062518649631
 20
15.87155659993489
 30
0.0
 10
6.00062518649631
 20
15.23383416069878
 30
0.0
 10
6.000638749864366
 20
14.81921047634549
 30
0.0
 10
5.873013814290364
 20
14.54622395833333
 30
0.0
 10
5.617958492702908
 20
14.41466776529948
 30
0.0
  0
SPLINE
  5
45
330
1F
100
AcDbEntity
  8
Layer 1
 62
     7
420
 16777215
370
    25
100
AcDbSpline
210
0.0
220
0.0
230
1.0
 70
    11
 71
     3
 72
   113
 73
   109
 74
     0
 42
0.0000000001
 43
0.0000000001
 12
1.0
 22
0.0
 32
0.0
 13
1.0
 23
0.0
 33
0.0
 40
0.0
 40
0.0
 40
0.0
 40
0.0
 40
1.0
 40
1.0
 40
1.0
 40
2.0
 40
2.0
 40
2.0
 40
3.0
 40
3.0
 40
3.0
 40
4.0
 40
4.0
 40
4.0
 40
5.0
 40
5.0
 40
5.0
 40
6.0
 40
6.0
 40
6.0
 40
7.0
 40
7.0
 40
7.0
 40
8.0
 40
8.0
 40
8.0
 40
9.0
 40
9.0
 40
9.0
 40
10.0
 40
10.0
 40
10.0
 40
11.0
 40
11.0
 40
11.0
 40
12.0
 40
12.0
 40
12.0
 40
13.0
 40
13.0
 40
13.0
 40
14.0
 40
14.0
 40
14.0
 40
15.0
 40
15.0
 40
15.0
 40
16.0
 40
16.0
 40
16.0
 40
17.0
 40
17.0
 40
17.0
 40
18.0
 40
18.0
 40
18.0
 40
19.0
 40
19.0
 40
19.0
 40
20.0
 40
20.0
 40
20.0
 40
21.0
 40
21.0
 40
21.0
 40
22.0
 40
22.0
 40
22.0
 40
23.0
 40
23.0
 40
23.0
 40
24.0
 40
24.0
 40
24.0
 40
25.0
 40
25.0
 40
25.0
 40
26.0
 40
26.0
 40
26.0
 40
27.0
 40
27.0
 40
27.0
 40
28.0
 40
28.0
 40
28.0
 40
29.0
 40
29.0
 40
29.0
 40
30.0
 40
30.0
 40
30.0
 40
31.0
 40
31.0
 40
31.0
 40
32.0
 40
32.0
 40
32.0
 40
33.0
 40
33.0
 40
33.0
 40
34.0
 40
34.0
 40
34.0
 40
35.0
 40
35.0
 40
35.0
 40
36.0
 40
36.0
 40
36.0
 40
36.0
 10
8.771638658311632
 20
16.16062588161892
 30
0.0
 10
8.512472364637587
 20
16.53133477105035
 30
0.0
 10
8.11186048719618
 20
16.83216688368055
 30
0.0
 10
7.569791158040364
 20
17.06348673502604
 30
0.0
 10
7.98423597547743
 20
17.21483357747396
 30
0.0
 10
8.325055440266926
 20
17.46204291449653
 30
0.0
 10
8.592249552408854
 20
17.80491807725694
 30
0.0
 10
8.859263102213541
 20
18.14761267768012
 30
0.0
 10
8.992860582139757
 20
18.55027940538194
 30
0.0
 10
8.992860582139757
 20
19.01273769802517
 30
0.0
 10
8.992860582139757
 20
19.6743901570638
 30
0.0
 10
8.83534664577908
 20
20.18468221028646
 30
0.0
 10
8.520499335394964
 20
20.5434324476454
 30
0.0
 10
8.205457899305555
 20
20.90219624837239
 30
0.0
 10
7.780929565429688
 20
21.14527977837457
 30
0.0
 10
7.246902465820312
 20
21.27290429009332
 30
0.0
 10
7.026041242811415
 20
21.3255852593316
 30
0.0
 10
6.783721923828125
 20
21.3672375149197
 30
0.0
 10
6.520624796549479
 20
21.39818233913845
 30
0.0
 10
6.520624796549479
 20
21.39818233913845
 30
0.0
 10
6.520624796549479
 20
21.04557122124566
 30
0.0
 10
6.520624796549479
 20
21.04557122124566
 30
0.0
 10
6.754486083984375
 20
21.01679314507378
 30
0.0
 10
6.969999949137369
 20
20.97914038764106
 30
0.0
 10
7.165679931640625
 20
20.93246036105686
 30
0.0
 10
7.631804572211371
 20
20.82107120090061
 30
0.0
 10
7.988985697428385
 20
20.61826578776041
 30
0.0
 10
8.257485283745659
 20
20.31248813205295
 30
0.0
 10
8.513165791829426
 20
20.02114105224609
 30
0.0
 10
8.642846001519096
 20
19.58382161458333
 30
0.0
 10
8.642846001519096
 20
19.01272413465712
 30
0.0
 10
8.642846001519096
 20
18.62687683105469
 30
0.0
 10
8.535985310872395
 20
18.30216895209418
 30
0.0
 10
8.316151936848957
 20
18.02002970377604
 30
0.0
 10
8.087929619683159
 20
17.72716776529948
 30
0.0
 10
7.804512871636284
 20
17.52180820041233
 30
0.0
 10
7.449721442328559
 20
17.3922373453776
 30
0.0
 10
7.449721442328559
 20
17.3922373453776
 30
0.0
 10
6.61877695719401
 20
17.08877902560764
 30
0.0
 10
6.61877695719401
 20
17.08877902560764
 30
0.0
 10
6.61877695719401
 20
17.08877902560764
 30
0.0
 10
7.432415432400173
 20
16.74155680338541
 30
0.0
 10
7.432415432400173
 20
16.74155680338541
 30
0.0
 10
7.910957336425781
 20
16.53733486599392
 30
0.0
 10
8.265026516384548
 20
16.27441745334201
 30
0.0
 10
8.484790378146702
 20
15.96007113986545
 30
0.0
 10
8.700748867458767
 20
15.65091790093316
 30
0.0
 10
8.810290018717447
 20
15.20536295572917
 30
0.0
 10
8.810290018717447
 20
14.63587612575955
 30
0.0
 10
8.810290018717447
 20
13.96226501464844
 30
0.0
 10
8.556165059407551
 20
13.45770941840278
 30
0.0
 10
8.033373514811197
 20
13.09336174858941
 30
0.0
 10
7.478220621744791
 20
12.70657009548611
 30
0.0
 10
6.662401411268446
 20
12.51044548882378
 30
0.0
 10
5.60858154296875
 20
12.51044548882378
 30
0.0
 10
5.60858154296875
 20
12.51044548882378
 30
0.0
 10
0.7207221984863281
 20
12.51044548882378
 30
0.0
 10
0.7207221984863281
 20
12.51044548882378
 30
0.0
 10
0.7207221984863281
 20
12.51044548882378
 30
0.0
 10
0.7207221984863281
 20
13.86731974283854
 30
0.0
 10
0.7207221984863281
 20
13.86731974283854
 30
0.0
 10
0.7207221984863281
 20
13.86731974283854
 30
0.0
 10
1.844833374023438
 20
13.86731974283854
 30
0.0
 10
1.844833374023438
 20
13.86731974283854
 30
0.0
 10
1.844833374023438
 20
13.86731974283854
 30
0.0
 10
1.844833374023438
 20
19.74543168809679
 30
0.0
 10
1.844833374023438
 20
19.74543168809679
 30
0.0
 10
1.844833374023438
 20
19.74543168809679
 30
0.0
 10
0.876180542839898
 20
19.74543168809679
 30
0.0
 10
0.876180542839898
 20
19.74543168809679
 30
0.0
 10
0.876180542839898
 20
19.74543168809679
 30
0.0
 10
0.876180542839898
 20
21.11426459418403
 30
0.0
 10
0.876180542839898
 20
21.11426459418403
 30
0.0
 10
0.876180542839898
 20
21.11426459418403
 30
0.0
 10
3.551930745442708
 20
21.11426459418403
 30
0.0
 10
3.551930745442708
 20
21.11426459418403
 30
0.0
 10
3.551930745442708
 20
21.11426459418403
 30
0.0
 10
3.551930745442708
 20
21.46426476372613
 30
0.0
 10
3.551930745442708
 20
21.46426476372613
 30
0.0
 10
3.551930745442708
 20
21.46426476372613
 30
0.0
 10
0.5261805322435167
 20
21.46426476372613
 30
0.0
 10
0.5261805322435167
 20
21.46426476372613
 30
0.0
 10
0.5261805322435167
 20
21.46426476372613
 30
0.0
 10
0.5261805322435167
 20
19.39543151855469
 30
0.0
 10
0.5261805322435167
 20
19.39543151855469
 30
0.0
 10
0.5261805322435167
 20
19.39543151855469
 30
0.0
 10
1.494833204481337
 20
19.39543151855469
 30
0.0
 10
1.494833204481337
 20
19.39543151855469
 30
0.0
 10
1.494833204481337
 20
19.39543151855469
 30
0.0
 10
1.494833204481337
 20
14.21737670898438
 30
0.0
 10
1.494833204481337
 20
14.21737670898438
 30
0.0
 10
1.494833204481337
 20
14.21737670898438
 30
0.0
 10
0.3707083331214057
 20
14.21737670898438
 30
0.0
 10
0.3707083331214057
 20
14.21737670898438
 30
0.0
 10
0.3707083331214057
 20
14.21737670898438
 30
0.0
 10
0.3707083331214057
 20
12.16048855251736
 30
0.0
 10
0.3707083331214057
 20
12.16048855251736
 30
0.0
 10
0.3707083331214057
 20
12.16048855251736
 30
0.0
 10
5.608569675021701
 20
12.16048855251736
 30
0.0
 10
5.608569675021701
 20
12.16048855251736
 30
0.0
 10
6.740528106689453
 20
12.16048855251736
 30
0.0
 10
7.615555657280815
 20
12.37573920355903
 30
0.0
 10
8.23348659939236
 20
12.80625237358941
 30
0.0
 10
8.851222568088108
 20
13.23676554361979
 30
0.0
 10
9.1602783203125
 20
13.84664069281684
 30
0.0
 10
9.1602783203125
 20
14.63590494791667
 30
0.0
 10
9.160291883680555
 20
15.28166876898871
 30
0.0
 10
9.030610826280382
 20
15.78991868760851
 30
0.0
 10
8.771638658311632
 20
16.16062588161892
 30
0.0
  0
SPLINE
  5
46
330
1F
100
AcDbEntity
  8
Layer 1
 62
     7
420
 16777215
370
    25
100
AcDbSpline
210
0.0
220
0.0
230
1.0
 70
    11
 71
     3
 72
    26
 73
    22
 74
     0
 42
0.0000000001
 43
0.0000000001
 12
1.0
 22
0.0
 32
0.0
 13
1.0
 23
0.0
 33
0.0
 40
0.0
 40
0.0
 40
0.0
 40
0.0
 40
1.0
 40
1.0
 40
1.0
 40
2.0
 40
2.0
 40
2.0
 40
3.0
 40
3.0
 40
3.0
 40
4.0
 40
4.0
 40
4.0
 40
5.0
 40
5.0
 40
5.0
 40
6.0
 40
6.0
 40
6.0
 40
7.0
 40
7.0
 40
7.0
 40
7.0
 10
5.610610961914062
 20
7.946168687608506
 30
0.0
 10
6.01566653781467
 20
8.183113945855034
 30
0.0
 10
6.1007080078125
 20
8.621654934353298
 30
0.0
 10
6.1007080078125
 20
8.947808159722221
 30
0.0
 10
6.1007080078125
 20
9.281794230143229
 30
0.0
 10
5.991833157009548
 20
9.56014166937934
 30
0.0
 10
5.777124616834852
 20
9.775127834743923
 30
0.0
 10
5.561832851833767
 20
9.99015638563368
 30
0.0
 10
5.2834718492296
 20
10.09903123643663
 30
0.0
 10
4.949485778808594
 20
10.09903123643663
 30
0.0
 10
4.949485778808594
 20
10.09903123643663
 30
0.0
 10
3.774333106146918
 20
10.09903123643663
 30
0.0
 10
3.774333106146918
 20
10.09903123643663
 30
0.0
 10
3.774333106146918
 20
10.09903123643663
 30
0.0
 10
3.774333106146918
 20
7.712865193684896
 30
0.0
 10
3.774333106146918
 20
7.712865193684896
 30
0.0
 10
3.774333106146918
 20
7.712865193684896
 30
0.0
 10
4.447222391764322
 20
7.712865193684896
 30
0.0
 10
4.447222391764322
 20
7.712865193684896
 30
0.0
 10
4.961861080593533
 20
7.712877061631944
 30
0.0
 10
5.342402988009982
 20
7.789182874891493
 30
0.0
 10
5.610610961914062
 20
7.946168687608506
 30
0.0
  0
SPLINE
  5
47
330
1F
100
AcDbEntity
  8
Layer 1
 62
     7
420
 16777215
370
    25
100
AcDbSpline
210
0.0
220
0.0
230
1.0
 70
    11
 71
     3
 72
    29
 73
    25
 74
     0
 42
0.0000000001
 43
0.0000000001
 12
1.0
 22
0.0
 32
0.0
 13
1.0
 23
0.0
 33
0.0
 40
0.0
 40
0.0
 40
0.0
 40
0.0
 40
1.0
 40
1.0
 40
1.0
 40
2.0
 40
2.0
 40
2.0
 40
3.0
 40
3.0
 40
3.0
 40
4.0
 40
4.0
 40
4.0
 40
5.0
 40
5.0
 40
5.0
 40
6.0
 40
6.0
 40
6.0
 40
7.0
 40
7.0
 40
7.0
 40
8.0
 40
8.0
 40
8.0
 40
8.0
 10
4.124333275689019
 20
9.74902852376302
 30
0.0
 10
4.124333275689019
 20
9.74902852376302
 30
0.0
 10
4.949486202663845
 20
9.74902852376302
 30
0.0
 10
4.949486202663845
 20
9.74902852376302
 30
0.0
 10
5.188652886284722
 20
9.74902852376302
 30
0.0
 10
5.381861368815104
 20
9.675223456488714
 30
0.0
 10
5.529472351074219
 20
9.52779303656684
 30
0.0
 10
5.676902770996094
 20
9.380181206597221
 30
0.0
 10
5.75070826212565
 20
9.186974419487846
 30
0.0
 10
5.75070826212565
 20
8.947792900933159
 30
0.0
 10
5.75070826212565
 20
8.604917738172743
 30
0.0
 10
5.644958072238498
 20
8.371722751193577
 30
0.0
 10
5.433805677625868
 20
8.248209635416666
 30
0.0
 10
5.222472296820746
 20
8.124515109592014
 30
0.0
 10
4.893611060248481
 20
8.06284925672743
 30
0.0
 10
4.447222391764322
 20
8.06284925672743
 30
0.0
 10
4.447222391764322
 20
8.06284925672743
 30
0.0
 10
4.124333699544271
 20
8.06284925672743
 30
0.0
 10
4.124333699544271
 20
8.06284925672743
 30
0.0
 10
4.124333699544271
 20
8.06284925672743
 30
0.0
 10
4.124333275689019
 20
9.74902852376302
 30
0.0
 10
4.124333275689019
 20
9.74902852376302
 30
0.0
 10
4.124333275689019
 20
9.74902852376302
 30
0.0
 10
4.124333275689019
 20
9.74902852376302
 30
0.0
 10
4.124333275689019
 20
9.74902852376302
 30
0.0
  0
SPLINE
  5
48
330
1F
100
AcDbEntity
  8
Layer 1
 62
     7
420
 16777215
370
    25
100
AcDbSpline
210
0.0
220
0.0
230
1.0
 70
    11
 71
     3
 72
    29
 73
    25
 74
     0
 42
0.0000000001
 43
0.0000000001
 12
1.0
 22
0.0
 32
0.0
 13
1.0
 23
0.0
 33
0.0
 40
0.0
 40
0.0
 40
0.0
 40
0.0
 40
1.0
 40
1.0
 40
1.0
 40
2.0
 40
2.0
 40
2.0
 40
3.0
 40
3.0
 40
3.0
 40
4.0
 40
4.0
 40
4.0
 40
5.0
 40
5.0
 40
5.0
 40
6.0
 40
6.0
 40
6.0
 40
7.0
 40
7.0
 40
7.0
 40
8.0
 40
8.0
 40
8.0
 40
8.0
 10
5.738819546169704
 20
6.576070149739583
 30
0.0
 10
5.480278015136719
 20
6.787111070421006
 30
0.0
 10
5.110097249348958
 20
6.89412604437934
 30
0.0
 10
4.638555738661024
 20
6.89412604437934
 30
0.0
 10
4.461236317952474
 20
6.89412604437934
 30
0.0
 10
4.282722473144531
 20
6.889973958333333
 30
0.0
 10
4.107958475748697
 20
6.881793551974826
 30
0.0
 10
4.107958475748697
 20
6.881793551974826
 30
0.0
 10
3.77433353000217
 20
6.866168551974826
 30
0.0
 10
3.77433353000217
 20
6.866168551974826
 30
0.0
 10
3.77433353000217
 20
6.866168551974826
 30
0.0
 10
3.77433353000217
 20
4.220960828993055
 30
0.0
 10
3.77433353000217
 20
4.220960828993055
 30
0.0
 10
3.77433353000217
 20
4.220960828993055
 30
0.0
 10
4.339597490098742
 20
4.220960828993055
 30
0.0
 10
4.339597490098742
 20
4.220960828993055
 30
0.0
 10
4.871361202663845
 20
4.220960828993055
 30
0.0
 10
5.279763963487413
 20
4.298210991753472
 30
0.0
 10
5.588166978624131
 20
4.457155015733506
 30
0.0
 10
5.849319881863064
 20
4.591849433051215
 30
0.0
 10
6.16050042046441
 20
4.89723883734809
 30
0.0
 10
6.16050042046441
 20
5.58744642469618
 30
0.0
 10
6.160499996609158
 20
6.015043470594618
 30
0.0
 10
6.018625047471788
 20
6.347654554578993
 30
0.0
 10
5.738819546169704
 20
6.576070149739583
 30
0.0
  0
SPLINE
  5
49
330
1F
100
AcDbEntity
  8
Layer 1
 62
     7
420
 16777215
370
    25
100
AcDbSpline
210
0.0
220
0.0
230
1.0
 70
    11
 71
     3
 72
    23
 73
    19
 74
     0
 42
0.0000000001
 43
0.0000000001
 12
1.0
 22
0.0
 32
0.0
 13
1.0
 23
0.0
 33
0.0
 40
0.0
 40
0.0
 40
0.0
 40
0.0
 40
1.0
 40
1.0
 40
1.0
 40
2.0
 40
2.0
 40
2.0
 40
3.0
 40
3.0
 40
3.0
 40
4.0
 40
4.0
 40
4.0
 40
5.0
 40
5.0
 40
5.0
 40
6.0
 40
6.0
 40
6.0
 40
6.0
 10
5.427833133273654
 20
4.768280029296875
 30
0.0
 10
5.172596825493707
 20
4.636739095052083
 30
0.0
 10
4.809902615017361
 20
4.570973714192708
 30
0.0
 10
4.339597066243489
 20
4.570973714192708
 30
0.0
 10
4.339597066243489
 20
4.570973714192708
 30
0.0
 10
4.124333275689019
 20
4.570973714192708
 30
0.0
 10
4.124333275689019
 20
4.570973714192708
 30
0.0
 10
4.124333275689019
 20
4.570973714192708
 30
0.0
 10
4.124333275689019
 20
6.532182481553819
 30
0.0
 10
4.124333275689019
 20
6.532182481553819
 30
0.0
 10
4.291763729519314
 20
6.540015326605903
 30
0.0
 10
4.463097042507595
 20
6.544126722547743
 30
0.0
 10
4.638555314805772
 20
6.544126722547743
 30
0.0
 10
5.419791327582465
 20
6.544126722547743
 30
0.0
 10
5.810499827067057
 20
6.225168863932291
 30
0.0
 10
5.810499827067057
 20
5.58744642469618
 30
0.0
 10
5.810499827067057
 20
5.172821044921875
 30
0.0
 10
5.682888878716363
 20
4.899834526909722
 30
0.0
 10
5.427833133273654
 20
4.768280029296875
 30
0.0
  0
SPLINE
  5
4A
330
1F
100
AcDbEntity
  8
Layer 1
 62
     7
420
 16777215
370
    25
100
AcDbSpline
210
0.0
220
0.0
230
1.0
 70
    11
 71
     3
 72
    53
 73
    49
 74
     0
 42
0.0000000001
 43
0.0000000001
 12
1.0
 22
0.0
 32
0.0
 13
1.0
 23
0.0
 33
0.0
 40
0.0
 40
0.0
 40
0.0
 40
0.0
 40
1.0
 40
1.0
 40
1.0
 40
2.0
 40
2.0
 40
2.0
 40
3.0
 40
3.0
 40
3.0
 40
4.0
 40
4.0
 40
4.0
 40
5.0
 40
5.0
 40
5.0
 40
6.0
 40
6.0
 40
6.0
 40
7.0
 40
7.0
 40
7.0
 40
8.0
 40
8.0
 40
8.0
 40
9.0
 40
9.0
 40
9.0
 40
10.0
 40
10.0
 40
10.0
 40
11.0
 40
11.0
 40
11.0
 40
12.0
 40
12.0
 40
12.0
 40
13.0
 40
13.0
 40
13.0
 40
14.0
 40
14.0
 40
14.0
 40
15.0
 40
15.0
 40
15.0
 40
16.0
 40
16.0
 40
16.0
 40
16.0
 10
8.581499735514322
 20
6.514238145616319
 30
0.0
 10
8.322333441840277
 20
6.884947035047743
 30
0.0
 10
7.921721564398871
 20
7.185779147677951
 30
0.0
 10
7.379652235243055
 20
7.417098999023438
 30
0.0
 10
7.794097052680121
 20
7.568445841471354
 30
0.0
 10
8.134916517469618
 20
7.815655178493923
 30
0.0
 10
8.402110629611546
 20
8.15853034125434
 30
0.0
 10
8.669124179416233
 20
8.501224093967014
 30
0.0
 10
8.802721659342447
 20
8.90389166937934
 30
0.0
 10
8.802721659342447
 20
9.36634996202257
 30
0.0
 10
8.802721659342447
 20
10.0280032687717
 30
0.0
 10
8.64520772298177
 20
10.53829447428385
 30
0.0
 10
8.330360412597656
 20
10.89704386393229
 30
0.0
 10
8.015318976508246
 20
11.25580851236979
 30
0.0
 10
7.590790642632378
 20
11.49889119466146
 30
0.0
 10
7.056763119167751
 20
11.62651570638021
 30
0.0
 10
6.522554609510633
 20
11.75394694010417
 30
0.0
 10
5.864832560221354
 20
11.81784905327691
 30
0.0
 10
5.083596547444661
 20
11.81784905327691
 30
0.0
 10
5.083596547444661
 20
11.81784905327691
 30
0.0
 10
0.3360416624281141
 20
11.81784905327691
 30
0.0
 10
0.3360416624281141
 20
11.81784905327691
 30
0.0
 10
0.3360416624281141
 20
11.81784905327691
 30
0.0
 10
0.3360416624281141
 20
9.749016655815971
 30
0.0
 10
0.3360416624281141
 20
9.749016655815971
 30
0.0
 10
0.3360416624281141
 20
9.749016655815971
 30
0.0
 10
1.304694387647841
 20
9.749016655815971
 30
0.0
 10
1.304694387647841
 20
9.749016655815971
 30
0.0
 10
1.304694387647841
 20
9.749016655815971
 30
0.0
 10
1.304694387647841
 20
4.570960150824653
 30
0.0
 10
1.304694387647841
 20
4.570960150824653
 30
0.0
 10
1.304694387647841
 20
4.570960150824653
 30
0.0
 10
0.1805833313200209
 20
4.570960150824653
 30
0.0
 10
0.1805833313200209
 20
4.570960150824653
 30
0.0
 10
0.1805833313200209
 20
4.570960150824653
 30
0.0
 10
0.1805833313200209
 20
2.514071994357639
 30
0.0
 10
0.1805833313200209
 20
2.514071994357639
 30
0.0
 10
0.1805833313200209
 20
2.514071994357639
 30
0.0
 10
5.4184447394477
 20
2.514071994357639
 30
0.0
 10
5.4184447394477
 20
2.514071994357639
 30
0.0
 10
6.550403171115451
 20
2.514071994357639
 30
0.0
 10
7.425431145562065
 20
2.729322645399305
 30
0.0
 10
8.043361239963108
 20
3.159837510850694
 30
0.0
 10
8.661097208658854
 20
3.590352376302083
 30
0.0
 10
8.970152960883246
 20
4.200225830078125
 30
0.0
 10
8.970152960883246
 20
4.989490085177951
 30
0.0
 10
8.970152960883246
 20
5.635279337565104
 30
0.0
 10
8.840471903483072
 20
6.143529256184896
 30
0.0
 10
8.581499735514322
 20
6.514238145616319
 30
0.0
  0
SPLINE
  5
4B
330
1F
100
AcDbEntity
  8
Layer 1
 62
     7
420
 16777215
370
    25
100
AcDbSpline
210
0.0
220
0.0
230
1.0
 70
    11
 71
     3
 72
    59
 73
    55
 74
     0
 42
0.0000000001
 43
0.0000000001
 12
1.0
 22
0.0
 32
0.0
 13
1.0
 23
0.0
 33
0.0
 40
0.0
 40
0.0
 40
0.0
 40
0.0
 40
1.0
 40
1.0
 40
1.0
 40
2.0
 40
2.0
 40
2.0
 40
3.0
 40
3.0
 40
3.0
 40
4.0
 40
4.0
 40
4.0
 40
5.0
 40
5.0
 40
5.0
 40
6.0
 40
6.0
 40
6.0
 40
7.0
 40
7.0
 40
7.0
 40
8.0
 40
8.0
 40
8.0
 40
9.0
 40
9.0
 40
9.0
 40
10.0
 40
10.0
 40
10.0
 40
11.0
 40
11.0
 40
11.0
 40
12.0
 40
12.0
 40
12.0
 40
13.0
 40
13.0
 40
13.0
 40
14.0
 40
14.0
 40
14.0
 40
15.0
 40
15.0
 40
15.0
 40
16.0
 40
16.0
 40
16.0
 40
17.0
 40
17.0
 40
17.0
 40
18.0
 40
18.0
 40
18.0
 40
18.0
 10
7.843236287434896
 20
3.447001139322917
 30
0.0
 10
7.288083394368489
 20
3.060207790798611
 30
0.0
 10
6.472264183892143
 20
2.864084879557292
 30
0.0
 10
5.418444315592447
 20
2.864084879557292
 30
0.0
 10
5.418444315592447
 20
2.864084879557292
 30
0.0
 10
0.5305833286709255
 20
2.864084879557292
 30
0.0
 10
0.5305833286709255
 20
2.864084879557292
 30
0.0
 10
0.5305833286709255
 20
2.864084879557292
 30
0.0
 10
0.5305833286709255
 20
4.220959133572048
 30
0.0
 10
0.5305833286709255
 20
4.220959133572048
 30
0.0
 10
0.5305833286709255
 20
4.220959133572048
 30
0.0
 10
1.654694451226128
 20
4.220959133572048
 30
0.0
 10
1.654694451226128
 20
4.220959133572048
 30
0.0
 10
1.654694451226128
 20
4.220959133572048
 30
0.0
 10
1.654694451226128
 20
10.09902954101562
 30
0.0
 10
1.654694451226128
 20
10.09902954101562
 30
0.0
 10
1.654694451226128
 20
10.09902954101562
 30
0.0
 10
0.6860416730244954
 20
10.09902954101562
 30
0.0
 10
0.6860416730244954
 20
10.09902954101562
 30
0.0
 10
0.6860416730244954
 20
10.09902954101562
 30
0.0
 10
0.6860416730244954
 20
11.46786329481337
 30
0.0
 10
0.6860416730244954
 20
11.46786329481337
 30
0.0
 10
0.6860416730244954
 20
11.46786329481337
 30
0.0
 10
5.08361095852322
 20
11.46786329481337
 30
0.0
 10
5.08361095852322
 20
11.46786329481337
 30
0.0
 10
5.833360883924696
 20
11.46786329481337
 30
0.0
 10
6.469902886284721
 20
11.40671115451389
 30
0.0
 10
6.97556898328993
 20
11.28608534071181
 30
0.0
 10
7.441693623860677
 20
11.17469618055556
 30
0.0
 10
7.79887474907769
 20
10.97189161512587
 30
0.0
 10
8.067374335394964
 20
10.6661139594184
 30
0.0
 10
8.323054843478733
 20
10.37476603190104
 30
0.0
 10
8.452735053168402
 20
9.937447441948784
 30
0.0
 10
8.452735053168402
 20
9.36634996202257
 30
0.0
 10
8.452735053168402
 20
8.980502658420138
 30
0.0
 10
8.345874362521702
 20
8.655793931749132
 30
0.0
 10
8.126040988498264
 20
8.373655531141493
 30
0.0
 10
7.897818671332465
 20
8.08079359266493
 30
0.0
 10
7.61440192328559
 20
7.875434027777778
 30
0.0
 10
7.259610493977864
 20
7.745863172743055
 30
0.0
 10
7.259610493977864
 20
7.745863172743055
 30
0.0
 10
6.428666008843315
 20
7.44240485297309
 30
0.0
 10
6.428666008843315
 20
7.44240485297309
 30
0.0
 10
6.428666008843315
 20
7.44240485297309
 30
0.0
 10
7.242304484049479
 20
7.095182630750868
 30
0.0
 10
7.242304484049479
 20
7.095182630750868
 30
0.0
 10
7.720846388075087
 20
6.890960693359375
 30
0.0
 10
8.074915568033854
 20
6.628043280707465
 30
0.0
 10
8.294679429796007
 20
6.313696967230903
 30
0.0
 10
8.510637919108072
 20
6.004543728298611
 30
0.0
 10
8.620179070366753
 20
5.558988783094618
 30
0.0
 10
8.620179070366753
 20
4.989501953125
 30
0.0
 10
8.620152791341145
 20
4.315904405381945
 30
0.0
 10
8.366014268663195
 20
3.811348809136284
 30
0.0
 10
7.843236287434896
 20
3.447001139322917
 30
0.0
  0
POLYLINE
  5
4C
330
1F
100
AcDbEntity
  8
Layer 1
 62
     7
420
 16777215
370
    30
100
AcDb2dPolyline
 66
     1
 10
0.0
 20
0.0
 30
0.0
  0
VERTEX
  5
4D
330
4C
100
AcDbEntity
  8
Layer 1
 62
     7
420
 16777215
370
    30
100
AcDbVertex
100
AcDb2dVertex
 10
0.6177361276414659
 20
2.230973985460069
 30
0.0
  0
VERTEX
  5
4E
330
4C
100
AcDbEntity
  8
Layer 1
 62
     7
420
 16777215
370
    30
100
AcDbVertex
100
AcDb2dVertex
 10
0.6177361276414659
 20
0.4739176432291666
 30
0.0
  0
VERTEX
  5
4F
330
4C
100
AcDbEntity
  8
Layer 1
 62
     7
420
 16777215
370
    30
100
AcDbVertex
100
AcDb2dVertex
 10
8.741138882107204
 20
0.4739176432291666
 30
0.0
  0
VERTEX
  5
50
330
4C
100
AcDbEntity
  8
Layer 1
 62
     7
420
 16777215
370
    30
100
AcDbVertex
100
AcDb2dVertex
 10
8.741138882107204
 20
2.230973985460069
 30
0.0
  0
VERTEX
  5
51
330
4C
100
AcDbEntity
  8
Layer 1
 62
     7
420
 16777215
370
    30
100
AcDbVertex
100
AcDb2dVertex
 10
0.6177361276414659
 20
2.230973985460069
 30
0.0
  0
SEQEND
  5
52
330
4C
100
AcDbEntity
  8
Layer 1
 62
     7
420
 16777215
370
    30
  0
POLYLINE
  5
53
330
1F
100
AcDbEntity
  8
Layer 1
 62
     7
420
 16777215
370
    30
100
AcDb2dPolyline
 66
     1
 10
0.0
 20
0.0
 30
0.0
  0
VERTEX
  5
54
330
53
100
AcDbEntity
  8
Layer 1
 62
     7
420
 16777215
370
    30
100
AcDbVertex
100
AcDb2dVertex
 10
6.086458418104383
 20
1.653611924913194
 30
0.0
  0
VERTEX
  5
55
330
53
100
AcDbEntity
  8
Layer 1
 62
     7
420
 16777215
370
    30
100
AcDbVertex
100
AcDb2dVertex
 10
2.5005554623074
 20
1.653611924913194
 30
0.0
  0
VERTEX
  5
56
330
53
100
AcDbEntity
  8
Layer 1
 62
     7
420
 16777215
370
    30
100
AcDbVertex
100
AcDb2dVertex
 10
2.5005554623074
 20
1.863613552517361
 30
0.0
  0
VERTEX
  5
57
330
53
100
AcDbEntity
  8
Layer 1
 62
     7
420
 16777215
370
    30
100
AcDbVertex
100
AcDb2dVertex
 10
6.086457994249131
 20
1.863613552517361
 30
0.0
  0
VERTEX
  5
58
330
53
100
AcDbEntity
  8
Layer 1
 62
     7
420
 16777215
370
    30
100
AcDbVertex
100
AcDb2dVertex
 10
6.086458418104383
 20
1.653611924913194
 30
0.0
  0
VERTEX
  5
59
330
53
100
AcDbEntity
  8
Layer 1
 62
     7
420
 16777215
370
    30
100
AcDbVertex
100
AcDb2dVertex
 10
6.086458418104383
 20
1.653611924913194
 30
0.0
  0
SEQEND
  5
5A
330
53
100
AcDbEntity
  8
Layer 1
 62
     7
420
 16777215
370
    30
  0
SPLINE
  5
5B
330
1F
100
AcDbEntity
  8
Layer 1
 62
     7
420
 16777215
370
    25
100
AcDbSpline
210
0.0
220
0.0
230
1.0
 70
    11
 71
     3
 72
    65
 73
    61
 74
     0
 42
0.0000000001
 43
0.0000000001
 12
1.0
 22
0.0
 32
0.0
 13
1.0
 23
0.0
 33
0.0
 40
0.0
 40
0.0
 40
0.0
 40
0.0
 40
1.0
 40
1.0
 40
1.0
 40
2.0
 40
2.0
 40
2.0
 40
3.0
 40
3.0
 40
3.0
 40
4.0
 40
4.0
 40
4.0
 40
5.0
 40
5.0
 40
5.0
 40
6.0
 40
6.0
 40
6.0
 40
7.0
 40
7.0
 40
7.0
 40
8.0
 40
8.0
 40
8.0
 40
9.0
 40
9.0
 40
9.0
 40
10.0
 40
10.0
 40
10.0
 40
11.0
 40
11.0
 40
11.0
 40
12.0
 40
12.0
 40
12.0
 40
13.0
 40
13.0
 40
13.0
 40
14.0
 40
14.0
 40
14.0
 40
15.0
 40
15.0
 40
15.0
 40
16.0
 40
16.0
 40
16.0
 40
17.0
 40
17.0
 40
17.0
 40
18.0
 40
18.0
 40
18.0
 40
19.0
 40
19.0
 40
19.0
 40
20.0
 40
20.0
 40
20.0
 40
20.0
 10
8.62911139594184
 20
26.07023747762044
 30
0.0
 10
8.369945102267796
 20
26.44094594319661
 30
0.0
 10
7.969333224826388
 20
26.74177932739258
 30
0.0
 10
7.427263895670572
 20
26.97309875488281
 30
0.0
 10
7.841708713107638
 20
27.12444602118598
 30
0.0
 10
8.182528177897135
 20
27.37165408664279
 30
0.0
 10
8.449722290039062
 20
27.71452924940321
 30
0.0
 10
8.71673583984375
 20
28.05722384982639
 30
0.0
 10
8.850333319769964
 20
28.45989057752821
 30
0.0
 10
8.850333319769964
 20
28.92234865824381
 30
0.0
 10
8.850333319769964
 20
29.58400132921007
 30
0.0
 10
8.692819383409288
 20
30.09429295857747
 30
0.0
 10
8.377972073025173
 20
30.4530430899726
 30
0.0
 10
8.062930636935764
 20
30.81180699666341
 30
0.0
 10
7.638402303059896
 20
31.05489031473795
 30
0.0
 10
7.104374779595268
 20
31.18251525031195
 30
0.0
 10
6.57016626993815
 20
31.30994579527113
 30
0.0
 10
5.912444220648871
 20
31.37384859720866
 30
0.0
 10
5.131208207872178
 20
31.37384859720866
 30
0.0
 10
5.131208207872178
 20
31.37384859720866
 30
0.0
 10
0.3836527665456136
 20
31.37384859720866
 30
0.0
 10
0.3836527665456136
 20
31.37384859720866
 30
0.0
 10
0.3836527665456136
 20
31.37384859720866
 30
0.0
 10
0.3836527665456136
 20
29.30502933926052
 30
0.0
 10
0.3836527665456136
 20
29.30502933926052
 30
0.0
 10
0.3836527665456136
 20
29.30502933926052
 30
0.0
 10
1.352305518256293
 20
29.30502933926052
 30
0.0
 10
1.352305518256293
 20
29.30502933926052
 30
0.0
 10
1.352305518256293
 20
29.30502933926052
 30
0.0
 10
1.352305518256293
 20
24.12697347005208
 30
0.0
 10
1.352305518256293
 20
24.12697347005208
 30
0.0
 10
1.352305518256293
 20
24.12697347005208
 30
0.0
 10
0.228194448682997
 20
24.12697347005208
 30
0.0
 10
0.228194448682997
 20
24.12697347005208
 30
0.0
 10
0.228194448682997
 20
24.12697347005208
 30
0.0
 10
0.228194448682997
 20
22.07008446587457
 30
0.0
 10
0.228194448682997
 20
22.07008446587457
 30
0.0
 10
0.228194448682997
 20
22.07008446587457
 30
0.0
 10
1.830027686225043
 20
22.07008446587457
 30
0.0
 10
1.830027686225043
 20
22.07008446587457
 30
0.0
 10
1.830027686225043
 20
22.07008446587457
 30
0.0
 10
1.830027686225043
 20
21.86008453369141
 30
0.0
 10
1.830027686225043
 20
21.86008453369141
 30
0.0
 10
1.830027686225043
 20
21.86008453369141
 30
0.0
 10
5.4159304300944
 20
21.86008453369141
 30
0.0
 10
5.4159304300944
 20
21.86008453369141
 30
0.0
 10
5.4159304300944
 20
21.86008453369141
 30
0.0
 10
5.4159304300944
 20
22.07008446587457
 30
0.0
 10
5.4159304300944
 20
22.07008446587457
 30
0.0
 10
5.4159304300944
 20
22.07008446587457
 30
0.0
 10
5.466055552164713
 20
22.07008446587457
 30
0.0
 10
5.466055552164713
 20
22.07008446587457
 30
0.0
 10
6.598013983832465
 20
22.07008446587457
 30
0.0
 10
7.473041958279079
 20
22.28533426920573
 30
0.0
 10
8.09097205268012
 20
22.71584828694661
 30
0.0
 10
8.708708021375868
 20
23.1463623046875
 30
0.0
 10
9.01776377360026
 20
23.75623745388455
 30
0.0
 10
9.01776377360026
 20
24.54550086127387
 30
0.0
 10
9.01776377360026
 20
25.19127909342448
 30
0.0
 10
8.88808356391059
 20
25.69951544867621
 30
0.0
 10
8.62911139594184
 20
26.07023747762044
 30
0.0
  0
SPLINE
  5
5C
330
1F
100
AcDbEntity
  8
Layer 1
 62
     7
420
 16777215
370
    25
100
AcDbSpline
210
0.0
220
0.0
230
1.0
 70
    11
 71
     3
 72
    26
 73
    22
 74
     0
 42
0.0000000001
 43
0.0000000001
 12
1.0
 22
0.0
 32
0.0
 13
1.0
 23
0.0
 33
0.0
 40
0.0
 40
0.0
 40
0.0
 40
0.0
 40
1.0
 40
1.0
 40
1.0
 40
2.0
 40
2.0
 40
2.0
 40
3.0
 40
3.0
 40
3.0
 40
4.0
 40
4.0
 40
4.0
 40
5.0
 40
5.0
 40
5.0
 40
6.0
 40
6.0
 40
6.0
 40
7.0
 40
7.0
 40
7.0
 40
7.0
 10
4.171944512261285
 20
29.30502933926052
 30
0.0
 10
4.171944512261285
 20
29.30502933926052
 30
0.0
 10
4.997097439236111
 20
29.30502933926052
 30
0.0
 10
4.997097439236111
 20
29.30502933926052
 30
0.0
 10
5.236264122856988
 20
29.30502933926052
 30
0.0
 10
5.429472605387369
 20
29.23122384813097
 30
0.0
 10
5.577083587646484
 20
29.08379321628146
 30
0.0
 10
5.724514007568359
 20
28.93618202209473
 30
0.0
 10
5.798319498697916
 20
28.74297375149197
 30
0.0
 10
5.798319498697916
 20
28.50379308064779
 30
0.0
 10
5.798319498697916
 20
28.16091791788737
 30
0.0
 10
5.692569308810763
 20
27.92772377861871
 30
0.0
 10
5.481416914198133
 20
27.80420981513129
 30
0.0
 10
5.270083533393012
 20
27.68051528930664
 30
0.0
 10
4.941222296820746
 20
27.61884858873155
 30
0.0
 10
4.494833628336588
 20
27.61884858873155
 30
0.0
 10
4.494833628336588
 20
27.61884858873155
 30
0.0
 10
4.171944512261285
 20
27.61884858873155
 30
0.0
 10
4.171944512261285
 20
27.61884858873155
 30
0.0
 10
4.171944512261285
 20
27.61884858873155
 30
0.0
 10
4.171944512261285
 20
29.30502933926052
 30
0.0
 10
4.171944512261285
 20
29.30502933926052
 30
0.0
  0
SPLINE
  5
5D
330
1F
100
AcDbEntity
  8
Layer 1
 62
     7
420
 16777215
370
    25
100
AcDbSpline
210
0.0
220
0.0
230
1.0
 70
    11
 71
     3
 72
    23
 73
    19
 74
     0
 42
0.0000000001
 43
0.0000000001
 12
1.0
 22
0.0
 32
0.0
 13
1.0
 23
0.0
 33
0.0
 40
0.0
 40
0.0
 40
0.0
 40
0.0
 40
1.0
 40
1.0
 40
1.0
 40
2.0
 40
2.0
 40
2.0
 40
3.0
 40
3.0
 40
3.0
 40
4.0
 40
4.0
 40
4.0
 40
5.0
 40
5.0
 40
5.0
 40
6.0
 40
6.0
 40
6.0
 40
6.0
 10
5.47544436984592
 20
24.4324459499783
 30
0.0
 10
5.220208062065972
 20
24.300904168023
 30
0.0
 10
4.857513851589626
 20
24.23514048258463
 30
0.0
 10
4.387208302815755
 20
24.23514048258463
 30
0.0
 10
4.387208302815755
 20
24.23514048258463
 30
0.0
 10
4.171944512261285
 20
24.23514048258463
 30
0.0
 10
4.171944512261285
 20
24.23514048258463
 30
0.0
 10
4.171944512261285
 20
24.23514048258463
 30
0.0
 10
4.171944512261285
 20
26.19634882609049
 30
0.0
 10
4.171944512261285
 20
26.19634882609049
 30
0.0
 10
4.339374966091579
 20
26.20418209499783
 30
0.0
 10
4.510708279079861
 20
26.20829306708442
 30
0.0
 10
4.686166551378038
 20
26.20829306708442
 30
0.0
 10
5.467402564154731
 20
26.20829306708442
 30
0.0
 10
5.858111063639322
 20
25.88933478461371
 30
0.0
 10
5.858111063639322
 20
25.2516123453776
 30
0.0
 10
5.858111063639322
 20
24.8369878133138
 30
0.0
 10
5.730486128065321
 20
24.56400129530165
 30
0.0
 10
5.47544436984592
 20
24.4324459499783
 30
0.0
  0
SPLINE
  5
5E
330
1F
100
AcDbEntity
  8
Layer 1
 62
     6
420
 16711935
370
    70
100
AcDbSpline
210
0.0
220
0.0
230
1.0
 70
    11
 71
     3
 72
    53
 73
    49
 74
     0
 42
0.0000000001
 43
0.0000000001
 12
1.0
 22
0.0
 32
0.0
 13
1.0
 23
0.0
 33
0.0
 40
0.0
 40
0.0
 40
0.0
 40
0.0
 40
1.0
 40
1.0
 40
1.0
 40
2.0
 40
2.0
 40
2.0
 40
3.0
 40
3.0
 40
3.0
 40
4.0
 40
4.0
 40
4.0
 40
5.0
 40
5.0
 40
5.0
 40
6.0
 40
6.0
 40
6.0
 40
7.0
 40
7.0
 40
7.0
 40
8.0
 40
8.0
 40
8.0
 40
9.0
 40
9.0
 40
9.0
 40
10.0
 40
10.0
 40
10.0
 40
11.0
 40
11.0
 40
11.0
 40
12.0
 40
12.0
 40
12.0
 40
13.0
 40
13.0
 40
13.0
 40
14.0
 40
14.0
 40
14.0
 40
15.0
 40
15.0
 40
15.0
 40
16.0
 40
16.0
 40
16.0
 40
16.0
 10
18.04017670750502
 20
6.424359610569303
 30
0.0
 10
17.78100956612047
 20
6.795068500000727
 30
0.0
 10
17.38039853638957
 20
7.095900612630935
 30
0.0
 10
16.83833005494426
 20
7.327220463976421
 30
0.0
 10
17.25277402467082
 20
7.478567306424338
 30
0.0
 10
17.59359433717082
 20
7.725776643446907
 30
0.0
 10
17.86078760160224
 20
8.068651806207324
 30
0.0
 10
18.12780115140693
 20
8.411345558919997
 30
0.0
 10
18.26139863133315
 20
8.814013134332324
 30
0.0
 10
18.26139863133315
 20
9.276471426975553
 30
0.0
 10
18.26139863133315
 20
9.938124733724685
 30
0.0
 10
18.10388554268297
 20
10.44841593923684
 30
0.0
 10
17.78903738458835
 20
10.80716532888528
 30
0.0
 10
17.47399594849895
 20
11.16592997732278
 30
0.0
 10
17.04946761462308
 20
11.40901265961444
 30
0.0
 10
16.5154405150137
 20
11.53663717133319
 30
0.0
 10
15.98123200535658
 20
11.66406840505715
 30
0.0
 10
15.32351037992256
 20
11.72797051822989
 30
0.0
 10
14.54227394329061
 20
11.72797051822989
 30
0.0
 10
14.54227394329061
 20
11.72797051822989
 30
0.0
 10
9.794732303750681
 20
11.72797051822989
 30
0.0
 10
9.794732303750681
 20
11.72797051822989
 30
0.0
 10
9.794732303750681
 20
11.72797051822989
 30
0.0
 10
9.794732303750681
 20
9.659138120768956
 30
0.0
 10
9.794732303750681
 20
9.659138120768956
 30
0.0
 10
9.794732303750681
 20
9.659138120768956
 30
0.0
 10
10.76338481704278
 20
9.659138120768956
 30
0.0
 10
10.76338481704278
 20
9.659138120768956
 30
0.0
 10
10.76338481704278
 20
9.659138120768956
 30
0.0
 10
10.76338481704278
 20
4.481081615777637
 30
0.0
 10
10.76338481704278
 20
4.481081615777637
 30
0.0
 10
10.76338481704278
 20
4.481081615777637
 30
0.0
 10
9.639274065360924
 20
4.481081615777637
 30
0.0
 10
9.639274065360924
 20
4.481081615777637
 30
0.0
 10
9.639274065360924
 20
4.481081615777637
 30
0.0
 10
9.639274065360924
 20
2.424193459310623
 30
0.0
 10
9.639274065360924
 20
2.424193459310623
 30
0.0
 10
9.639274065360924
 20
2.424193459310623
 30
0.0
 10
14.8771348509512
 20
2.424193459310623
 30
0.0
 10
14.8771348509512
 20
2.424193459310623
 30
0.0
 10
16.0090928587637
 20
2.424193459310623
 30
0.0
 10
16.88412168092082
 20
2.63944411035229
 30
0.0
 10
17.50205177532186
 20
3.069958975803678
 30
0.0
 10
18.11978859172811
 20
3.500473841255067
 30
0.0
 10
18.428843496242
 20
4.110347295031109
 30
0.0
 10
18.428843496242
 20
4.899611550130936
 30
0.0
 10
18.428843496242
 20
5.545400802518088
 30
0.0
 10
18.29914887547377
 20
6.053650721137879
 30
0.0
 10
18.04017670750502
 20
6.424359610569303
 30
0.0
  0
SPLINE
  5
5F
330
1F
100
AcDbEntity
  8
Layer 1
 62
     6
420
 16711935
370
    70
100
AcDbSpline
210
0.0
220
0.0
230
1.0
 70
    11
 71
     3
 72
    29
 73
    25
 74
     0
 42
0.0000000001
 43
0.0000000001
 12
1.0
 22
0.0
 32
0.0
 13
1.0
 23
0.0
 33
0.0
 40
0.0
 40
0.0
 40
0.0
 40
0.0
 40
1.0
 40
1.0
 40
1.0
 40
2.0
 40
2.0
 40
2.0
 40
3.0
 40
3.0
 40
3.0
 40
4.0
 40
4.0
 40
4.0
 40
5.0
 40
5.0
 40
5.0
 40
6.0
 40
6.0
 40
6.0
 40
7.0
 40
7.0
 40
7.0
 40
8.0
 40
8.0
 40
8.0
 40
8.0
 10
13.58302423490303
 20
9.659149988716004
 30
0.0
 10
13.58302423490303
 20
9.659149988716004
 30
0.0
 10
14.40817716187785
 20
9.659149988716004
 30
0.0
 10
14.40817716187785
 20
9.659149988716004
 30
0.0
 10
14.64734426935398
 20
9.659149988716004
 30
0.0
 10
14.84055275188436
 20
9.585344921441699
 30
0.0
 10
14.98816288643297
 20
9.437914501519824
 30
0.0
 10
15.13559330635485
 20
9.290302671550206
 30
0.0
 10
15.20939837362915
 20
9.097095884440831
 30
0.0
 10
15.20939837362915
 20
8.857914365886144
 30
0.0
 10
15.20939837362915
 20
8.515039203125728
 30
0.0
 10
15.103648183742
 20
8.28184421614656
 30
0.0
 10
14.89249536527412
 20
8.15833110036965
 30
0.0
 10
14.6811628321795
 20
8.034636574544997
 30
0.0
 10
14.35230117175198
 20
7.972970721680414
 30
0.0
 10
13.90591207941257
 20
7.972970721680414
 30
0.0
 10
13.90591207941257
 20
7.972970721680414
 30
0.0
 10
13.58302338719252
 20
7.972970721680414
 30
0.0
 10
13.58302338719252
 20
7.972970721680414
 30
0.0
 10
13.58302338719252
 20
7.972970721680414
 30
0.0
 10
13.58302423490303
 20
9.659149988716004
 30
0.0
 10
13.58302423490303
 20
9.659149988716004
 30
0.0
 10
13.58302423490303
 20
9.659149988716004
 30
0.0
 10
13.58302423490303
 20
9.659149988716004
 30
0.0
 10
13.58302423490303
 20
9.659149988716004
 30
0.0
  0
SPLINE
  5
60
330
1F
100
AcDbEntity
  8
Layer 1
 62
     6
420
 16711935
370
    70
100
AcDbSpline
210
0.0
220
0.0
230
1.0
 70
    11
 71
     3
 72
    23
 73
    19
 74
     0
 42
0.0000000001
 43
0.0000000001
 12
1.0
 22
0.0
 32
0.0
 13
1.0
 23
0.0
 33
0.0
 40
0.0
 40
0.0
 40
0.0
 40
0.0
 40
1.0
 40
1.0
 40
1.0
 40
2.0
 40
2.0
 40
2.0
 40
3.0
 40
3.0
 40
3.0
 40
4.0
 40
4.0
 40
4.0
 40
5.0
 40
5.0
 40
5.0
 40
6.0
 40
6.0
 40
6.0
 40
6.0
 10
14.88653765585572
 20
4.798372672092783
 30
0.0
 10
14.63130219578627
 20
4.666831737847992
 30
0.0
 10
14.26860671374417
 20
4.601066356988617
 30
0.0
 10
13.7983011649703
 20
4.601066356988617
 30
0.0
 10
13.7983011649703
 20
4.601066356988617
 30
0.0
 10
13.58303695056058
 20
4.601066356988617
 30
0.0
 10
13.58303695056058
 20
4.601066356988617
 30
0.0
 10
13.58303695056058
 20
4.601066356988617
 30
0.0
 10
13.58303695056058
 20
6.562275124349727
 30
0.0
 10
13.58303695056058
 20
6.562275124349727
 30
0.0
 10
13.75046740439087
 20
6.570107969401811
 30
0.0
 10
13.92180071737915
 20
6.574219365343652
 30
0.0
 10
14.09725898967733
 20
6.574219365343652
 30
0.0
 10
14.87849457859877
 20
6.574219365343652
 30
0.0
 10
15.26920265422811
 20
6.2552615067282
 30
0.0
 10
15.26920265422811
 20
5.617539067492089
 30
0.0
 10
15.26920434964912
 20
5.202900124349727
 30
0.0
 10
15.14157983793037
 20
4.929928865126637
 30
0.0
 10
14.88653765585572
 20
4.798372672092783
 30
0.0
  0
INSERT
  5
62
330
1F
100
AcDbEntity
  8
Layer 1
100
AcDbBlockReference
  2
block 2
 10
0.0
 20
0.0
 30
0.0
  0
ENDSEC
  0
SECTION
  2
OBJECTS
  0
DICTIONARY
  5
C
330
0
100
AcDbDictionary
281
     1
  3
ACAD_GROUP
350
D
  3
ACAD_LAYOUT
350
1A
  3
ACAD_MATERIAL
350
3B
  3
ACAD_MLEADERSTYLE
350
6B
  3
ACAD_MLINESTYLE
350
17
  3
ACAD_PLOTSETTINGS
350
19
  3
ACAD_PLOTSTYLENAME
350
E
  3
ACAD_TABLESTYLE
350
6A
  3
ACAD_VISUALSTYLE
350
2A
  0
SUN
  5
3F
330
29
100
AcDbSun
 90
        1
290
     0
 63
     7
421
 16777215
 40
1.0
291
     1
 91
  2455826
 92
 54000000
292
     0
 70
     2
 71
   256
280
     1
  0
DICTIONARY
  5
D
102
{ACAD_REACTORS
330
C
102
}
330
C
100
AcDbDictionary
281
     1
  0
DICTIONARY
  5
1A
102
{ACAD_REACTORS
330
C
102
}
330
C
100
AcDbDictionary
281
     1
  3
Layout1
350
1E
  3
Layout2
350
26
  3
Model
350
22
  0
DICTIONARY
  5
3B
102
{ACAD_REACTORS
330
C
102
}
330
C
100
AcDbDictionary
281
     1
  3
ByBlock
350
3D
  3
ByLayer
350
3C
  3
Global
350
3E
  0
DICTIONARY
  5
6B
102
{ACAD_REACTORS
330
C
102
}
330
C
100
AcDbDictionary
281
     1
  0
DICTIONARY
  5
17
102
{ACAD_REACTORS
330
C
102
}
330
C
100
AcDbDictionary
281
     1
  3
Standard
350
18
  0
DICTIONARY
  5
19
102
{ACAD_REACTORS
330
C
102
}
330
C
100
AcDbDictionary
281
     1
  0
ACDBDICTIONARYWDFLT
  5
E
102
{ACAD_REACTORS
330
C
102
}
330
C
100
AcDbDictionary
281
     1
  3
Normal
350
F
100
AcDbDictionaryWithDefault
340
F
  0
DICTIONARY
  5
6A
102
{ACAD_REACTORS
330
C
102
}
330
C
100
AcDbDictionary
281
     1
  0
DICTIONARY
  5
2A
102
{ACAD_REACTORS
330
C
102
}
330
C
100
AcDbDictionary
281
     1
  3
2dWireframe
350
2F
  3
3D Hidden
350
31
  3
3dWireframe
350
30
  3
Basic
350
32
  3
Brighten
350
36
  3
ColorChange
350
3A
  3
Conceptual
350
34
  3
Dim
350
35
  3
Facepattern
350
39
  3
Flat
350
2B
  3
FlatWithEdges
350
2C
  3
Gouraud
350
2D
  3
GouraudWithEdges
350
2E
  3
Linepattern
350
38
  3
Realistic
350
33
  3
Thicken
350
37
  0
LAYOUT
  5
1E
102
{ACAD_REACTORS
330
1A
102
}
330
1A
100
AcDbPlotSettings
  1

  2
none_device
  4

  6

 40
0.0
 41
0.0
 42
0.0
 43
0.0
 44
0.0
 45
0.0
 46
0.0
 47
0.0
 48
0.0
 49
0.0
140
0.0
141
0.0
142
1.0
143
1.0
 70
   688
 72
     0
 73
     0
 74
     5
  7

 75
    16
 76
     0
 77
     2
 78
   300
147
1.0
148
0.0
149
0.0
100
AcDbLayout
  1
Layout1
 70
     1
 71
     1
 10
0.0
 20
0.0
 11
12.0
 21
9.0
 12
0.0
 22
0.0
 32
0.0
 14
1.000000000000000E+20
 24
1.000000000000000E+20
 34
1.000000000000000E+20
 15
-1.000000000000000E+20
 25
-1.000000000000000E+20
 35
-1.000000000000000E+20
146
0.0
 13
0.0
 23
0.0
 33
0.0
 16
1.0
 26
0.0
 36
0.0
 17
0.0
 27
1.0
 37
0.0
 76
     0
330
1B
  0
LAYOUT
  5
26
102
{ACAD_REACTORS
330
1A
102
}
330
1A
100
AcDbPlotSettings
  1

  2
none_device
  4

  6

 40
0.0
 41
0.0
 42
0.0
 43
0.0
 44
0.0
 45
0.0
 46
0.0
 47
0.0
 48
0.0
 49
0.0
140
0.0
141
0.0
142
1.0
143
1.0
 70
   688
 72
     0
 73
     0
 74
     5
  7

 75
    16
 76
     0
 77
     2
 78
   300
147
1.0
148
0.0
149
0.0
100
AcDbLayout
  1
Layout2
 70
     1
 71
     2
 10
0.0
 20
0.0
 11
0.0
 21
0.0
 12
0.0
 22
0.0
 32
0.0
 14
0.0
 24
0.0
 34
0.0
 15
0.0
 25
0.0
 35
0.0
146
0.0
 13
0.0
 23
0.0
 33
0.0
 16
1.0
 26
0.0
 36
0.0
 17
0.0
 27
1.0
 37
0.0
 76
     0
330
23
  0
LAYOUT
  5
22
102
{ACAD_REACTORS
330
1A
102
}
330
1A
100
AcDbPlotSettings
  1

  2
none_device
  4

  6

 40
0.0
 41
0.0
 42
0.0
 43
0.0
 44
0.0
 45
0.0
 46
0.0
 47
0.0
 48
0.0
 49
0.0
140
0.0
141
0.0
142
1.0
143
1.0
 70
  1712
 72
     0
 73
     0
 74
     0
  7

 75
     0
 76
     0
 77
     2
 78
   300
147
1.0
148
0.0
149
0.0
100
AcDbLayout
  1
Model
 70
     1
 71
     0
 10
0.0
 20
0.0
 11
12.0
 21
9.0
 12
0.0
 22
0.0
 32
0.0
 14
1.000000000000000E+20
 24
1.000000000000000E+20
 34
1.000000000000000E+20
 15
-1.000000000000000E+20
 25
-1.000000000000000E+20
 35
-1.000000000000000E+20
146
0.0
 13
0.0
 23
0.0
 33
0.0
 16
1.0
 26
0.0
 36
0.0
 17
0.0
 27
1.0
 37
0.0
 76
     0
330
1F
331
29
  0
MATERIAL
  5
3D
102
{ACAD_REACTORS
330
3B
102
}
330
3B
100
AcDbMaterial
  1
ByBlock
 72
     1
 94
      127
  0
MATERIAL
  5
3C
102
{ACAD_REACTORS
330
3B
102
}
330
3B
100
AcDbMaterial
  1
ByLayer
 72
     1
 94
      127
  0
MATERIAL
  5
3E
102
{ACAD_REACTORS
330
3B
102
}
330
3B
100
AcDbMaterial
  1
Global
 72
     1
 94
      127
  0
MLINESTYLE
  5
18
102
{ACAD_REACTORS
330
17
102
}
330
17
100
AcDbMlineStyle
  2
Standard
 70
     0
  3

 62
   256
 51
90.0
 52
90.0
 71
     2
 49
0.5
 62
   256
  6
BYLAYER
 49
-0.5
 62
   256
  6
BYLAYER
  0
ACDBPLACEHOLDER
  5
F
102
{ACAD_REACTORS
330
E
102
}
330
E
  0
VISUALSTYLE
  5
2F
102
{ACAD_REACTORS
330
2A
102
}
330
2A
100
AcDbVisualStyle
  2
2dWireframe
 70
     4
177
     2
291
     0
 71
     0
176
     1
 72
     2
176
     1
 73
     0
176
     1
 90
        0
176
     1
 40
-0.6
176
     1
 41
-30.0
176
     1
 62
     5
 63
     7
421
 16777215
176
     1
 74
     1
176
     1
 91
        4
176
     1
 64
     7
176
     1
 65
   257
176
     1
 75
     1
176
     1
175
     1
176
     1
 42
1.0
176
     1
 92
        0
176
     1
 66
   257
176
     1
 43
1.0
176
     1
 76
     1
176
     1
 77
     6
176
     1
 78
     2
176
     1
 67
     7
176
     1
 79
     5
176
     1
170
     0
176
     1
171
     0
176
     1
290
     0
176
     1
 93
        1
176
     1
 44
0.0
176
     1
173
     0
176
     1
  0
VISUALSTYLE
  5
31
102
{ACAD_REACTORS
330
2A
102
}
330
2A
100
AcDbVisualStyle
  2
3D Hidden
 70
     6
177
     2
291
     0
 71
     1
176
     1
 72
     2
176
     1
 73
     2
176
     1
 90
        0
176
     1
 40
-0.6
176
     1
 41
-30.0
176
     1
 62
     5
 63
     7
421
 16777215
176
     1
 74
     2
176
     1
 91
        2
176
     1
 64
     7
176
     1
 65
   257
176
     1
 75
     2
176
     1
175
     1
176
     1
 42
40.0
176
     1
 92
        0
176
     1
 66
   257
176
     1
 43
1.0
176
     1
 76
     1
176
     1
 77
     6
176
     1
 78
     2
176
     1
 67
     7
176
     1
 79
     3
176
     1
170
     0
176
     1
171
     0
176
     1
290
     0
176
     1
 93
        1
176
     1
 44
0.0
176
     1
173
     0
176
     1
  0
VISUALSTYLE
  5
30
102
{ACAD_REACTORS
330
2A
102
}
330
2A
100
AcDbVisualStyle
  2
3dWireframe
 70
     5
177
     2
291
     0
 71
     0
176
     1
 72
     2
176
     1
 73
     0
176
     1
 90
        0
176
     1
 40
-0.6
176
     1
 41
-30.0
176
     1
 62
     5
 63
     7
421
 16777215
176
     1
 74
     1
176
     1
 91
        4
176
     1
 64
     7
176
     1
 65
   257
176
     1
 75
     1
176
     1
175
     1
176
     1
 42
1.0
176
     1
 92
        0
176
     1
 66
   257
176
     1
 43
1.0
176
     1
 76
     1
176
     1
 77
     6
176
     1
 78
     2
176
     1
 67
     7
176
     1
 79
     5
176
     1
170
     0
176
     1
171
     0
176
     1
290
     0
176
     1
 93
        1
176
     1
 44
0.0
176
     1
173
     0
176
     1
  0
VISUALSTYLE
  5
32
102
{ACAD_REACTORS
330
2A
102
}
330
2A
100
AcDbVisualStyle
  2
Basic
 70
     7
177
     2
291
     1
 71
     1
176
     1
 72
     0
176
     1
 73
     1
176
     1
 90
        0
176
     1
 40
-0.6
176
     1
 41
-30.0
176
     1
 62
     5
 63
     7
421
 16777215
176
     1
 74
     0
176
     1
 91
        4
176
     1
 64
     7
176
     1
 65
   257
176
     1
 75
     1
176
     1
175
     1
176
     1
 42
1.0
176
     1
 92
        8
176
     1
 66
     7
176
     1
 43
1.0
176
     1
 76
     1
176
     1
 77
     6
176
     1
 78
     2
176
     1
 67
     7
176
     1
 79
     5
176
     1
170
     0
176
     1
171
     0
176
     1
290
     0
176
     1
 93
        1
176
     1
 44
0.0
176
     1
173
     0
176
     1
  0
VISUALSTYLE
  5
36
102
{ACAD_REACTORS
330
2A
102
}
330
2A
100
AcDbVisualStyle
  2
Brighten
 70
    12
177
     2
291
     1
 71
     2
176
     1
 72
     2
176
     1
 73
     0
176
     1
 90
        0
176
     1
 40
-0.6
176
     1
 41
-30.0
176
     1
 62
     5
 63
     7
421
 16777215
176
     1
 74
     1
176
     1
 91
        4
176
     1
 64
     7
176
     1
 65
   257
176
     1
 75
     1
176
     1
175
     1
176
     1
 42
1.0
176
     1
 92
        8
176
     1
 66
     7
176
     1
 43
1.0
176
     1
 76
     1
176
     1
 77
     6
176
     1
 78
     2
176
     1
 67
     7
176
     1
 79
     5
176
     1
170
     0
176
     1
171
     0
176
     1
290
     0
176
     1
 93
        1
176
     1
 44
50.0
176
     1
173
     0
176
     1
  0
VISUALSTYLE
  5
3A
102
{ACAD_REACTORS
330
2A
102
}
330
2A
100
AcDbVisualStyle
  2
ColorChange
 70
    16
177
     2
291
     1
 71
     2
176
     1
 72
     2
176
     1
 73
     3
176
     1
 90
        0
176
     1
 40
-0.6
176
     1
 41
-30.0
176
     1
 62
     5
 63
     8
421
  8421504
176
     1
 74
     1
176
     1
 91
        4
176
     1
 64
     7
176
     1
 65
   257
176
     1
 75
     1
176
     1
175
     1
176
     1
 42
1.0
176
     1
 92
        8
176
     1
 66
     8
424
  8421504
176
     1
 43
1.0
176
     1
 76
     1
176
     1
 77
     6
176
     1
 78
     2
176
     1
 67
     7
176
     1
 79
     5
176
     1
170
     0
176
     1
171
     0
176
     1
290
     0
176
     1
 93
        1
176
     1
 44
0.0
176
     1
173
     0
176
     1
  0
VISUALSTYLE
  5
34
102
{ACAD_REACTORS
330
2A
102
}
330
2A
100
AcDbVisualStyle
  2
Conceptual
 70
     9
177
     2
291
     0
 71
     3
176
     1
 72
     2
176
     1
 73
     0
176
     1
 90
        0
176
     1
 40
-0.6
176
     1
 41
-30.0
176
     1
 62
     5
 63
     7
421
 16777215
176
     1
 74
     2
176
     1
 91
        2
176
     1
 64
     7
176
     1
 65
   257
176
     1
 75
     1
176
     1
175
     1
176
     1
 42
40.0
176
     1
 92
        8
176
     1
 66
     7
176
     1
 43
1.0
176
     1
 76
     1
176
     1
 77
     6
176
     1
 78
     2
176
     1
 67
     7
176
     1
 79
     3
176
     1
170
     0
176
     1
171
     0
176
     1
290
     0
176
     1
 93
        1
176
     1
 44
0.0
176
     1
173
     0
176
     1
  0
VISUALSTYLE
  5
35
102
{ACAD_REACTORS
330
2A
102
}
330
2A
100
AcDbVisualStyle
  2
Dim
 70
    11
177
     2
291
     1
 71
     2
176
     1
 72
     2
176
     1
 73
     0
176
     1
 90
        0
176
     1
 40
-0.6
176
     1
 41
-30.0
176
     1
 62
     5
 63
     7
421
 16777215
176
     1
 74
     1
176
     1
 91
        4
176
     1
 64
     7
176
     1
 65
   257
176
     1
 75
     1
176
     1
175
     1
176
     1
 42
1.0
176
     1
 92
        8
176
     1
 66
     7
176
     1
 43
1.0
176
     1
 76
     1
176
     1
 77
     6
176
     1
 78
     2
176
     1
 67
     7
176
     1
 79
     5
176
     1
170
     0
176
     1
171
     0
176
     1
290
     0
176
     1
 93
        1
176
     1
 44
-50.0
176
     1
173
     0
176
     1
  0
VISUALSTYLE
  5
39
102
{ACAD_REACTORS
330
2A
102
}
330
2A
100
AcDbVisualStyle
  2
Facepattern
 70
    15
177
     2
291
     1
 71
     2
176
     1
 72
     2
176
     1
 73
     0
176
     1
 90
        0
176
     1
 40
-0.6
176
     1
 41
-30.0
176
     1
 62
     5
 63
     7
421
 16777215
176
     1
 74
     1
176
     1
 91
        4
176
     1
 64
     7
176
     1
 65
   257
176
     1
 75
     1
176
     1
175
     1
176
     1
 42
1.0
176
     1
 92
        8
176
     1
 66
     7
176
     1
 43
1.0
176
     1
 76
     1
176
     1
 77
     6
176
     1
 78
     2
176
     1
 67
     7
176
     1
 79
     5
176
     1
170
     0
176
     1
171
     0
176
     1
290
     0
176
     1
 93
        1
176
     1
 44
0.0
176
     1
173
     0
176
     1
  0
VISUALSTYLE
  5
2B
102
{ACAD_REACTORS
330
2A
102
}
330
2A
100
AcDbVisualStyle
  2
Flat
 70
     0
177
     2
291
     1
 71
     2
176
     1
 72
     1
176
     1
 73
     1
176
     1
 90
        2
176
     1
 40
-0.6
176
     1
 41
30.0
176
     1
 62
     5
 63
     7
421
 16777215
176
     1
 74
     0
176
     1
 91
        4
176
     1
 64
     7
176
     1
 65
   257
176
     1
 75
     1
176
     1
175
     1
176
     1
 42
1.0
176
     1
 92
        8
176
     1
 66
     7
176
     1
 43
1.0
176
     1
 76
     1
176
     1
 77
     6
176
     1
 78
     2
176
     1
 67
     7
176
     1
 79
     5
176
     1
170
     0
176
     1
171
     0
176
     1
290
     0
176
     1
 93
       13
176
     1
 44
0.0
176
     1
173
     0
176
     1
  0
VISUALSTYLE
  5
2C
102
{ACAD_REACTORS
330
2A
102
}
330
2A
100
AcDbVisualStyle
  2
FlatWithEdges
 70
     1
177
     2
291
     1
 71
     2
176
     1
 72
     1
176
     1
 73
     1
176
     1
 90
        2
176
     1
 40
-0.6
176
     1
 41
30.0
176
     1
 62
     5
 63
     7
421
 16777215
176
     1
 74
     1
176
     1
 91
        4
176
     1
 64
     7
176
     1
 65
   257
176
     1
 75
     1
176
     1
175
     1
176
     1
 42
1.0
176
     1
 92
        0
176
     1
 66
   257
176
     1
 43
1.0
176
     1
 76
     1
176
     1
 77
     6
176
     1
 78
     2
176
     1
 67
     7
176
     1
 79
     5
176
     1
170
     0
176
     1
171
     0
176
     1
290
     0
176
     1
 93
       13
176
     1
 44
0.0
176
     1
173
     0
176
     1
  0
VISUALSTYLE
  5
2D
102
{ACAD_REACTORS
330
2A
102
}
330
2A
100
AcDbVisualStyle
  2
Gouraud
 70
     2
177
     2
291
     1
 71
     2
176
     1
 72
     2
176
     1
 73
     1
176
     1
 90
        2
176
     1
 40
-0.6
176
     1
 41
30.0
176
     1
 62
     5
 63
     7
421
 16777215
176
     1
 74
     0
176
     1
 91
        4
176
     1
 64
     7
176
     1
 65
   257
176
     1
 75
     1
176
     1
175
     1
176
     1
 42
1.0
176
     1
 92
        0
176
     1
 66
     7
176
     1
 43
1.0
176
     1
 76
     1
176
     1
 77
     6
176
     1
 78
     2
176
     1
 67
     7
176
     1
 79
     5
176
     1
170
     0
176
     1
171
     0
176
     1
290
     0
176
     1
 93
       13
176
     1
 44
0.0
176
     1
173
     0
176
     1
  0
VISUALSTYLE
  5
2E
102
{ACAD_REACTORS
330
2A
102
}
330
2A
100
AcDbVisualStyle
  2
GouraudWithEdges
 70
     3
177
     2
291
     1
 71
     2
176
     1
 72
     2
176
     1
 73
     1
176
     1
 90
        2
176
     1
 40
-0.6
176
     1
 41
30.0
176
     1
 62
     5
 63
     7
421
 16777215
176
     1
 74
     1
176
     1
 91
        4
176
     1
 64
     7
176
     1
 65
   257
176
     1
 75
     1
176
     1
175
     1
176
     1
 42
1.0
176
     1
 92
        0
176
     1
 66
   257
176
     1
 43
1.0
176
     1
 76
     1
176
     1
 77
     6
176
     1
 78
     2
176
     1
 67
     7
176
     1
 79
     5
176
     1
170
     0
176
     1
171
     0
176
     1
290
     0
176
     1
 93
       13
176
     1
 44
0.0
176
     1
173
     0
176
     1
  0
VISUALSTYLE
  5
38
102
{ACAD_REACTORS
330
2A
102
}
330
2A
100
AcDbVisualStyle
  2
Linepattern
 70
    14
177
     2
291
     1
 71
     2
176
     1
 72
     2
176
     1
 73
     0
176
     1
 90
        0
176
     1
 40
-0.6
176
     1
 41
-30.0
176
     1
 62
     5
 63
     7
421
 16777215
176
     1
 74
     1
176
     1
 91
        4
176
     1
 64
     7
176
     1
 65
   257
176
     1
 75
     7
176
     1
175
     7
176
     1
 42
1.0
176
     1
 92
        8
176
     1
 66
     7
176
     1
 43
1.0
176
     1
 76
     1
176
     1
 77
     6
176
     1
 78
     2
176
     1
 67
     7
176
     1
 79
     5
176
     1
170
     0
176
     1
171
     0
176
     1
290
     0
176
     1
 93
        1
176
     1
 44
0.0
176
     1
173
     0
176
     1
  0
VISUALSTYLE
  5
33
102
{ACAD_REACTORS
330
2A
102
}
330
2A
100
AcDbVisualStyle
  2
Realistic
 70
     8
177
     2
291
     0
 71
     2
176
     1
 72
     2
176
     1
 73
     0
176
     1
 90
        0
176
     1
 40
-0.6
176
     1
 41
-30.0
176
     1
 62
     5
 63
     7
421
 16777215
176
     1
 74
     1
176
     1
 91
        0
176
     1
 64
     7
176
     1
 65
   257
176
     1
 75
     1
176
     1
175
     1
176
     1
 42
1.0
176
     1
 92
        8
176
     1
 66
     8
424
  7895160
176
     1
 43
1.0
176
     1
 76
     1
176
     1
 77
     6
176
     1
 78
     2
176
     1
 67
     7
176
     1
 79
     5
176
     1
170
     0
176
     1
171
     0
176
     1
290
     0
176
     1
 93
       13
176
     1
 44
0.0
176
     1
173
     0
176
     1
  0
VISUALSTYLE
  5
37
102
{ACAD_REACTORS
330
2A
102
}
330
2A
100
AcDbVisualStyle
  2
Thicken
 70
    13
177
     2
291
     1
 71
     2
176
     1
 72
     2
176
     1
 73
     0
176
     1
 90
        0
176
     1
 40
-0.6
176
     1
 41
-30.0
176
     1
 62
     5
 63
     7
421
 16777215
176
     1
 74
     1
176
     1
 91
        4
176
     1
 64
     7
176
     1
 65
   257
176
     1
 75
     1
176
     1
175
     1
176
     1
 42
1.0
176
     1
 92
       12
176
     1
 66
     7
176
     1
 43
1.0
176
     1
 76
     1
176
     1
 77
     6
176
     1
 78
     2
176
     1
 67
     7
176
     1
 79
     5
176
     1
170
     0
176
     1
171
     0
176
     1
290
     0
176
     1
 93
        1
176
     1
 44
0.0
176
     1
173
     0
176
     1
  0
ENDSEC
  0
EOF
