<?xml version="1.0" encoding="utf-8"?>
<!-- Generator: Adobe Illustrator 25.0.0, SVG Export Plug-In . SVG Version: 6.00 Build 0)  -->
<svg version="1.1" id="Layer_1" xmlns="http://www.w3.org/2000/svg" xmlns:xlink="http://www.w3.org/1999/xlink" x="0px" y="0px"
	 width="1567.251px" height="2326.86px" viewBox="0 0 1567.251 2326.86" style="enable-background:new 0 0 1567.251 2326.86;"
	 xml:space="preserve">
<style type="text/css">
	.st0{fill:none;stroke:#000000;stroke-width:1.657;stroke-miterlimit:10;}
	.st1{fill:none;stroke:#000000;stroke-miterlimit:10;}
	.st2{fill:none;stroke:#EC00FF;stroke-width:2;stroke-miterlimit:10;}
</style>
<path class="st0" d="M771.791,516.015v126.508h468.146V516.015H771.791z M1135.01,557.585H875.164v-15.12h259.846V557.585z"/>
<path class="st1" d="M635.451,1885.83c-20.961-31.279-48.796-55.388-83.519-72.326c-34.737-16.924-77.062-31.131-127.001-42.62
	c-28.131-6.31-49.804-13.05-65.007-20.234c-15.216-7.171-22.816-17.355-22.816-30.566c0-12.054,5.301-21.525,15.929-28.414
	c10.614-6.888,25.683-10.333,45.203-10.333c25.252,0,45.204,4.884,59.841,14.638c14.638,9.767,27.983,27.27,40.037,52.522h129.153
	V1547.88H506.728l-21.525,39.607c-31.575-34.441-74.344-51.661-128.292-51.661c-44.208,0-82.657,8.61-115.376,25.831
	c-32.719,17.22-57.836,41.329-75.339,72.325c-17.517,30.997-26.262,66.877-26.262,107.627c0,52.818,10.615,95.291,31.857,127.431
	c21.23,32.154,49.213,56.827,83.95,74.047c34.723,17.221,79.065,33.297,133.027,48.217c21.229,5.745,37.736,12.055,49.508,18.942
	c11.759,6.889,17.651,17.221,17.651,30.997c0,10.911-5.744,19.669-17.221,26.261c-11.489,6.605-25.266,9.902-41.328,9.902
	c-26.409,0-48.648-4.87-66.729-14.638c-18.081-9.754-31.427-26.396-40.037-49.939h-135.18v216.978h335.804v-2.733
	c27.106-4.14,51.933-12.988,74.471-26.542c32.423-19.507,57.392-46.198,74.908-80.074c17.503-33.862,26.261-71.747,26.261-113.654
	C666.878,1957.442,656.398,1917.123,635.451,1885.83z M618.231,2108.887c-15.473,29.924-36.903,52.84-65.513,70.052
	c-19.598,11.787-41.564,19.602-65.286,23.225l-14.634,2.235c-0.911,0.139-1.832,0.209-2.754,0.209h-34.889H272.509h-91.875V2038.03
	h93.496c10.718,20.979,25.653,36.721,44.557,46.918c21.687,11.715,48.167,17.659,78.694,17.659c20.459,0,38.59-4.46,53.889-13.256
	c19.252-11.058,29.86-28.145,29.86-48.107c0-22.634-10.695-41.364-30.113-52.74c-13.815-8.083-31.999-15.116-55.602-21.508
	c-52.118-14.414-95.346-30.054-128.475-46.484c-30.976-15.355-55.218-36.733-74.117-65.356
	c-18.374-27.801-27.687-65.999-27.687-113.546c0-36.182,7.738-68.221,23-95.229c15.216-26.946,36.521-47.362,65.136-62.423
	c28.91-15.216,63.779-22.931,103.64-22.931c46.998,0,82.887,14.226,109.717,43.49l23.858,26.023l31.228-57.459h80.357v150.217
	h-88.595c-12.291-22.077-25.919-37.949-41.408-48.284c-18.799-12.527-43.634-18.876-73.828-18.876
	c-24.724,0-43.998,4.709-58.922,14.395c-17.671,11.452-27.41,29.053-27.41,49.552c0,13.368,4.843,38.078,37.273,53.361
	c16.982,8.025,39.94,15.229,70.166,22.013c47.805,11.002,88.697,24.695,121.548,40.701c30.922,15.083,55.007,35.922,73.622,63.699
	c18.02,26.921,27.161,62.905,27.161,106.945C641.678,2044.441,633.789,2078.787,618.231,2108.887z"/>
<path class="st2" d="M1299.922,1885.83c-20.961-31.279-48.796-55.388-83.519-72.326c-34.737-16.924-77.062-31.131-127.001-42.62
	c-28.131-6.31-49.804-13.05-65.007-20.234c-15.216-7.171-22.816-17.355-22.816-30.566c0-12.054,5.301-21.525,15.929-28.414
	c10.614-6.888,25.683-10.333,45.203-10.333c25.252,0,45.204,4.884,59.841,14.638c14.638,9.767,27.983,27.27,40.037,52.522h129.153
	V1547.88h-120.543l-21.525,39.607c-31.575-34.441-74.344-51.661-128.292-51.661c-44.208,0-82.657,8.61-115.376,25.831
	c-32.719,17.22-57.836,41.329-75.339,72.325c-17.517,30.997-26.262,66.877-26.262,107.627c0,52.818,10.615,95.291,31.857,127.431
	c21.23,32.154,49.213,56.827,83.95,74.047c34.723,17.221,79.065,33.297,133.027,48.217c21.229,5.745,37.736,12.055,49.508,18.942
	c11.759,6.889,17.651,17.221,17.651,30.997c0,10.911-5.744,19.669-17.221,26.261c-11.489,6.605-25.266,9.902-41.328,9.902
	c-26.409,0-48.648-4.87-66.73-14.638c-18.081-9.754-31.427-26.396-40.037-49.939h-135.18v216.978h335.804v-2.733
	c27.106-4.14,51.933-12.988,74.471-26.542c32.423-19.507,57.392-46.198,74.908-80.074c17.503-33.862,26.261-71.747,26.261-113.654
	C1331.349,1957.442,1320.869,1917.123,1299.922,1885.83z"/>
<path class="st1" d="M635.451,390.965c-20.961-31.279-48.796-55.388-83.519-72.326c-34.737-16.924-77.062-31.131-127.001-42.62
	c-28.131-6.31-49.804-13.05-65.007-20.234c-15.216-7.171-22.816-17.355-22.816-30.566c0-12.054,5.301-21.525,15.929-28.414
	c10.614-6.888,25.683-10.333,45.203-10.333c25.252,0,45.204,4.884,59.841,14.638c14.638,9.767,27.983,27.27,40.037,52.522h129.153
	V53.015H506.729l-21.525,39.607c-31.575-34.441-74.344-51.661-128.292-51.661c-44.208,0-82.657,8.61-115.376,25.831
	c-32.719,17.22-57.836,41.329-75.339,72.325c-17.517,30.997-26.262,66.877-26.262,107.627c0,52.818,10.615,95.291,31.857,127.431
	c21.23,32.154,49.213,56.827,83.95,74.047c34.723,17.221,79.065,33.297,133.027,48.217c21.229,5.745,37.736,12.055,49.508,18.942
	c11.759,6.889,17.651,17.221,17.651,30.997c0,10.911-5.744,19.669-17.221,26.261c-11.489,6.605-25.266,9.902-41.328,9.902
	c-26.409,0-48.648-4.87-66.729-14.638c-18.081-9.754-31.427-26.396-40.037-49.939h-135.18v216.978h77.715v15.538h258.185v-15.538
	h-0.096v-2.733c27.106-4.14,51.933-12.987,74.471-26.542c32.423-19.507,57.392-46.198,74.908-80.074
	c17.503-33.862,26.261-71.747,26.261-113.654C666.878,462.577,656.398,422.257,635.451,390.965z"/>
<path class="st1" d="M635.451,1154.606c-20.961-31.279-48.796-55.388-83.519-72.326c-34.737-16.924-77.062-31.131-127.001-42.62
	c-28.131-6.31-49.804-13.05-65.007-20.234c-15.216-7.171-22.816-17.355-22.816-30.566c0-12.054,5.301-21.525,15.929-28.414
	c10.614-6.888,25.683-10.333,45.203-10.333c25.252,0,45.204,4.884,59.841,14.638c14.638,9.767,27.983,27.27,40.037,52.522h129.153
	V816.656H506.729l-21.525,39.607c-13.229-14.429-28.43-25.823-45.587-34.208v28.723c9.875,6.136,18.864,13.627,27.011,22.514
	l23.858,26.023l31.228-57.459h80.357v150.217h-88.595c-12.291-22.077-25.919-37.949-41.408-48.284
	c-18.799-12.527-43.634-18.876-73.828-18.876c-24.724,0-43.998,4.709-58.922,14.395c-17.671,11.452-27.41,29.053-27.41,49.552
	c0,13.368,4.843,38.078,37.273,53.361c16.982,8.025,39.94,15.229,70.166,22.013c47.805,11.002,88.697,24.695,121.548,40.701
	c30.922,15.083,55.007,35.922,73.622,63.699c18.02,26.921,27.161,62.905,27.161,106.945c0,37.638-7.889,71.983-23.447,102.083
	c-15.473,29.924-36.903,52.84-65.513,70.052c-19.598,11.787-41.564,19.602-65.286,23.225l-14.634,2.235
	c-0.911,0.139-1.832,0.209-2.754,0.209h-34.889H272.509h-91.875v-166.577h93.496c10.718,20.979,25.653,36.721,44.557,46.918
	c21.687,11.715,48.167,17.659,78.694,17.659c20.459,0,38.59-4.46,53.889-13.256c19.252-11.058,29.86-28.145,29.86-48.107
	c0-22.634-10.695-41.364-30.113-52.74c-13.815-8.083-31.999-15.116-55.602-21.508c-52.118-14.414-95.346-30.054-128.475-46.484
	c-30.976-15.355-55.218-36.733-74.117-65.356c-18.374-27.801-27.687-65.999-27.687-113.546c0-36.182,7.738-68.221,23-95.229
	c15.216-26.946,36.521-47.362,65.136-62.423c8.173-4.302,16.839-7.982,25.943-11.08V815.17c-13.303,3.972-25.871,9.048-37.68,15.263
	c-32.719,17.22-57.836,41.329-75.339,72.325c-17.517,30.997-26.262,66.877-26.262,107.627c0,52.818,10.615,95.291,31.857,127.431
	c21.23,32.154,49.213,56.827,83.95,74.047c34.723,17.221,79.065,33.297,133.027,48.217c21.229,5.745,37.736,12.055,49.508,18.942
	c11.759,6.889,17.651,17.221,17.651,30.997c0,10.911-5.744,19.669-17.221,26.261c-11.489,6.605-25.266,9.902-41.328,9.902
	c-26.409,0-48.648-4.87-66.729-14.638c-18.081-9.754-31.427-26.396-40.037-49.939h-135.18v216.978h335.804v-2.733
	c27.106-4.14,51.933-12.987,74.471-26.542c32.423-19.507,57.392-46.198,74.908-80.074c17.503-33.862,26.261-71.747,26.261-113.654
	C666.878,1226.218,656.398,1185.899,635.451,1154.606z"/>
<path class="st1" d="M1303.742,1151.801c-20.961-31.279-48.796-55.388-83.519-72.326c-34.737-16.924-77.062-31.131-127.001-42.62
	c-28.131-6.31-49.804-13.05-65.007-20.234c-15.216-7.171-22.816-17.355-22.816-30.566c0-12.054,5.301-21.525,15.929-28.414
	c10.614-6.888,25.683-10.333,45.203-10.333c25.252,0,45.204,4.884,59.841,14.638c14.638,9.767,27.983,27.27,40.037,52.522h129.153
	V813.851H1175.02l-21.525,39.607c-13.229-14.429-28.43-25.823-45.587-34.208v28.723c9.875,6.136,18.864,13.627,27.011,22.514
	l23.858,26.023l31.228-57.459h80.357v150.217h-88.595c-12.291-22.077-25.919-37.949-41.408-48.284
	c-18.799-12.527-43.634-18.876-73.828-18.876c-24.724,0-43.998,4.709-58.922,14.395c-17.671,11.452-27.41,29.053-27.41,49.552
	c0,13.368,4.843,38.078,37.273,53.361c16.982,8.025,39.94,15.229,70.166,22.013c47.805,11.002,88.697,24.695,121.548,40.701
	c30.922,15.083,55.007,35.922,73.622,63.699c18.02,26.921,27.161,62.905,27.161,106.945c0,37.638-7.889,71.983-23.447,102.083
	c-15.473,29.924-36.903,52.84-65.513,70.052c-19.598,11.787-41.564,19.602-65.286,23.225l-14.634,2.235
	c-0.911,0.139-1.832,0.209-2.754,0.209h-34.889H940.801h-91.875v-166.577h93.496c10.718,20.979,25.653,36.721,44.557,46.918
	c21.687,11.715,48.167,17.659,78.694,17.659c20.459,0,38.59-4.46,53.889-13.256c19.252-11.058,29.86-28.145,29.86-48.107
	c0-22.634-10.695-41.364-30.113-52.74c-13.815-8.083-31.999-15.116-55.602-21.508c-52.118-14.414-95.346-30.054-128.475-46.484
	c-30.976-15.355-55.218-36.733-74.117-65.356c-18.374-27.801-27.687-65.999-27.687-113.546c0-36.182,7.738-68.221,23-95.229
	c15.216-26.946,36.521-47.362,65.136-62.423c8.173-4.302,16.839-7.982,25.943-11.08v-26.484
	c-13.303,3.972-25.871,9.048-37.68,15.263c-32.719,17.22-57.836,41.329-75.339,72.325c-17.517,30.997-26.262,66.877-26.262,107.627
	c0,52.818,10.615,95.291,31.857,127.431c21.23,32.154,49.213,56.827,83.95,74.047c34.723,17.221,79.065,33.297,133.027,48.217
	c21.229,5.745,37.736,12.055,49.508,18.942c11.759,6.889,17.651,17.221,17.651,30.997c0,10.911-5.744,19.669-17.221,26.261
	c-11.489,6.605-25.266,9.902-41.328,9.902c-26.409,0-48.648-4.87-66.729-14.638c-18.081-9.754-31.427-26.396-40.037-49.939h-135.18
	v216.978h335.804v-2.733c27.106-4.14,51.933-12.987,74.471-26.542c32.423-19.507,57.392-46.198,74.908-80.074
	c17.503-33.862,26.261-71.747,26.261-113.654C1335.169,1223.413,1324.69,1183.094,1303.742,1151.801z"/>
</svg>
