  0
SECTION
  2
HEADER
  9
$ACADVER
  1
AC1024
  9
$ACADMAINTVER
 70
     6
  9
$DWGCODEPAGE
  3
UNDEFINED
  9
$INSBASE
 10
0.0
 20
0.0
 30
0.0
  9
$EXTMIN
 10
1.000000000000000E+20
 20
1.000000000000000E+20
 30
1.000000000000000E+20
  9
$EXTMAX
 10
-1.000000000000000E+20
 20
-1.000000000000000E+20
 30
-1.000000000000000E+20
  9
$LIMMIN
 10
0.0
 20
0.0
  9
$LIMMAX
 10
12.0
 20
9.0
  9
$ORTHOMODE
 70
     0
  9
$REGENMODE
 70
     1
  9
$FILLMODE
 70
     1
  9
$QTEXTMODE
 70
     0
  9
$MIRRTEXT
 70
     1
  9
$LTSCALE
 40
1.0
  9
$ATTMODE
 70
     1
  9
$TEXTSIZE
 40
0.2
  9
$TRACEWID
 40
0.05
  9
$TEXTSTYLE
  7
Standard
  9
$CLAYER
  8
0
  9
$CELTYPE
  6
ByLayer
  9
$CECOLOR
 62
   256
  9
$CELTSCALE
 40
1.0
  9
$DISPSILH
 70
     0
  9
$DIMSCALE
 40
1.0
  9
$DIMASZ
 40
0.18
  9
$DIMEXO
 40
0.0625
  9
$DIMDLI
 40
0.38
  9
$DIMRND
 40
0.0
  9
$DIMDLE
 40
0.0
  9
$DIMEXE
 40
0.18
  9
$DIMTP
 40
0.0
  9
$DIMTM
 40
0.0
  9
$DIMTXT
 40
0.18
  9
$DIMCEN
 40
0.09
  9
$DIMTSZ
 40
0.0
  9
$DIMTOL
 70
     0
  9
$DIMLIM
 70
     0
  9
$DIMTIH
 70
     1
  9
$DIMTOH
 70
     1
  9
$DIMSE1
 70
     0
  9
$DIMSE2
 70
     0
  9
$DIMTAD
 70
     0
  9
$DIMZIN
 70
     0
  9
$DIMBLK
  1

  9
$DIMASO
 70
     1
  9
$DIMSHO
 70
     1
  9
$DIMPOST
  1

  9
$DIMAPOST
  1

  9
$DIMALT
 70
     0
  9
$DIMALTD
 70
     2
  9
$DIMALTF
 40
25.4
  9
$DIMLFAC
 40
1.0
  9
$DIMTOFL
 70
     0
  9
$DIMTVP
 40
0.0
  9
$DIMTIX
 70
     0
  9
$DIMSOXD
 70
     0
  9
$DIMSAH
 70
     0
  9
$DIMBLK1
  1

  9
$DIMBLK2
  1

  9
$DIMSTYLE
  2
Standard
  9
$DIMCLRD
 70
     0
  9
$DIMCLRE
 70
     0
  9
$DIMCLRT
 70
     0
  9
$DIMTFAC
 40
1.0
  9
$DIMGAP
 40
0.09
  9
$DIMJUST
 70
     0
  9
$DIMSD1
 70
     0
  9
$DIMSD2
 70
     0
  9
$DIMTOLJ
 70
     1
  9
$DIMTZIN
 70
     0
  9
$DIMALTZ
 70
     0
  9
$DIMALTTZ
 70
     0
  9
$DIMUPT
 70
     0
  9
$DIMDEC
 70
     4
  9
$DIMTDEC
 70
     4
  9
$DIMALTU
 70
     2
  9
$DIMALTTD
 70
     2
  9
$DIMTXSTY
  7
Standard
  9
$DIMAUNIT
 70
     0
  9
$DIMADEC
 70
     0
  9
$DIMALTRND
 40
0.0
  9
$DIMAZIN
 70
     0
  9
$DIMDSEP
 70
    46
  9
$DIMATFIT
 70
     3
  9
$DIMFRAC
 70
     0
  9
$DIMLDRBLK
  1

  9
$DIMLUNIT
 70
     2
  9
$DIMLWD
 70
    -2
  9
$DIMLWE
 70
    -2
  9
$DIMTMOVE
 70
     0
  9
$DIMFXL
 40
1.0
  9
$DIMFXLON
 70
     0
  9
$DIMJOGANG
 40
0.7853981633974483
  9
$DIMTFILL
 70
     0
  9
$DIMTFILLCLR
 70
     0
  9
$DIMARCSYM
 70
     0
  9
$DIMLTYPE
  6

  9
$DIMLTEX1
  6

  9
$DIMLTEX2
  6

  9
$DIMTXTDIRECTION
 70
     0
  9
$LUNITS
 70
     2
  9
$LUPREC
 70
     4
  9
$SKETCHINC
 40
0.1
  9
$FILLETRAD
 40
0.5
  9
$AUNITS
 70
     0
  9
$AUPREC
 70
     0
  9
$MENU
  1
.
  9
$ELEVATION
 40
0.0
  9
$PELEVATION
 40
0.0
  9
$THICKNESS
 40
0.0
  9
$LIMCHECK
 70
     0
  9
$CHAMFERA
 40
0.5
  9
$CHAMFERB
 40
0.5
  9
$CHAMFERC
 40
1.0
  9
$CHAMFERD
 40
0.0
  9
$SKPOLY
 70
     0
  9
$TDCREATE
 40
2459305.90625
  9
$TDUCREATE
 40
2459306.15625
  9
$TDUPDATE
 40
2459305.90625
  9
$TDUUPDATE
 40
2459306.15625
  9
$TDINDWG
 40
0.0000000116
  9
$TDUSRTIMER
 40
0.0000000116
  9
$USRTIMER
 70
     1
  9
$ANGBASE
 50
0.0
  9
$ANGDIR
 70
     0
  9
$PDMODE
 70
     0
  9
$PDSIZE
 40
0.0
  9
$PLINEWID
 40
0.0
  9
$SPLFRAME
 70
     0
  9
$SPLINETYPE
 70
     6
  9
$SPLINESEGS
 70
     8
  9
$HANDSEED
  5
57
  9
$SURFTAB1
 70
     6
  9
$SURFTAB2
 70
     6
  9
$SURFTYPE
 70
     6
  9
$SURFU
 70
     6
  9
$SURFV
 70
     6
  9
$UCSBASE
  2

  9
$UCSNAME
  2

  9
$UCSORG
 10
0.0
 20
0.0
 30
0.0
  9
$UCSXDIR
 10
1.0
 20
0.0
 30
0.0
  9
$UCSYDIR
 10
0.0
 20
1.0
 30
0.0
  9
$UCSORTHOREF
  2

  9
$UCSORTHOVIEW
 70
     0
  9
$UCSORGTOP
 10
0.0
 20
0.0
 30
0.0
  9
$UCSORGBOTTOM
 10
0.0
 20
0.0
 30
0.0
  9
$UCSORGLEFT
 10
0.0
 20
0.0
 30
0.0
  9
$UCSORGRIGHT
 10
0.0
 20
0.0
 30
0.0
  9
$UCSORGFRONT
 10
0.0
 20
0.0
 30
0.0
  9
$UCSORGBACK
 10
0.0
 20
0.0
 30
0.0
  9
$PUCSBASE
  2

  9
$PUCSNAME
  2

  9
$PUCSORG
 10
0.0
 20
0.0
 30
0.0
  9
$PUCSXDIR
 10
1.0
 20
0.0
 30
0.0
  9
$PUCSYDIR
 10
0.0
 20
1.0
 30
0.0
  9
$PUCSORTHOREF
  2

  9
$PUCSORTHOVIEW
 70
     0
  9
$PUCSORGTOP
 10
0.0
 20
0.0
 30
0.0
  9
$PUCSORGBOTTOM
 10
0.0
 20
0.0
 30
0.0
  9
$PUCSORGLEFT
 10
0.0
 20
0.0
 30
0.0
  9
$PUCSORGRIGHT
 10
0.0
 20
0.0
 30
0.0
  9
$PUCSORGFRONT
 10
0.0
 20
0.0
 30
0.0
  9
$PUCSORGBACK
 10
0.0
 20
0.0
 30
0.0
  9
$USERI1
 70
     0
  9
$USERI2
 70
     0
  9
$USERI3
 70
     0
  9
$USERI4
 70
     0
  9
$USERI5
 70
     0
  9
$USERR1
 40
0.0
  9
$USERR2
 40
0.0
  9
$USERR3
 40
0.0
  9
$USERR4
 40
0.0
  9
$USERR5
 40
0.0
  9
$WORLDVIEW
 70
     1
  9
$SHADEDGE
 70
     3
  9
$SHADEDIF
 70
    70
  9
$TILEMODE
 70
     1
  9
$MAXACTVP
 70
    64
  9
$PINSBASE
 10
0.0
 20
0.0
 30
0.0
  9
$PLIMCHECK
 70
     0
  9
$PEXTMIN
 10
1.000000000000000E+20
 20
1.000000000000000E+20
 30
1.000000000000000E+20
  9
$PEXTMAX
 10
-1.000000000000000E+20
 20
-1.000000000000000E+20
 30
-1.000000000000000E+20
  9
$PLIMMIN
 10
0.0
 20
0.0
  9
$PLIMMAX
 10
12.0
 20
9.0
  9
$UNITMODE
 70
     0
  9
$VISRETAIN
 70
     1
  9
$PLINEGEN
 70
     0
  9
$PSLTSCALE
 70
     1
  9
$TREEDEPTH
 70
  3020
  9
$CMLSTYLE
  2
Standard
  9
$CMLJUST
 70
     0
  9
$CMLSCALE
 40
1.0
  9
$PROXYGRAPHICS
 70
     1
  9
$MEASUREMENT
 70
     0
  9
$CELWEIGHT
370
    -1
  9
$ENDCAPS
280
     0
  9
$JOINSTYLE
280
     0
  9
$LWDISPLAY
290
     1
  9
$INSUNITS
 70
     1
  9
$HYPERLINKBASE
  1

  9
$STYLESHEET
  1

  9
$XEDIT
290
     1
  9
$CEPSNTYPE
380
     0
  9
$PSTYLEMODE
290
     1
  9
$FINGERPRINTGUID
  2
{8D101FDF-F9A5-5651-BA45-8669BE7A06E5}
  9
$VERSIONGUID
  2
{FAEB1C32-E019-11D5-929B-00C0DF256EC4}
  9
$EXTNAMES
290
     1
  9
$PSVPSCALE
 40
0.0
  9
$OLESTARTUP
290
     0
  9
$SORTENTS
280
   127
  9
$INDEXCTL
280
     0
  9
$HIDETEXT
280
     1
  9
$XCLIPFRAME
280
     2
  9
$HALOGAP
280
     0
  9
$OBSCOLOR
 70
   257
  9
$OBSLTYPE
280
     0
  9
$INTERSECTIONDISPLAY
280
     0
  9
$INTERSECTIONCOLOR
 70
   257
  9
$DIMASSOC
280
     2
  9
$PROJECTNAME
  1

  9
$CAMERADISPLAY
290
     0
  9
$LENSLENGTH
 40
50.0
  9
$CAMERAHEIGHT
 40
0.0
  9
$STEPSPERSEC
 40
2.0
  9
$STEPSIZE
 40
6.0
  9
$3DDWFPREC
 40
2.0
  9
$PSOLWIDTH
 40
0.25
  9
$PSOLHEIGHT
 40
4.0
  9
$LOFTANG1
 40
1.570796326794897
  9
$LOFTANG2
 40
1.570796326794897
  9
$LOFTMAG1
 40
0.0
  9
$LOFTMAG2
 40
0.0
  9
$LOFTPARAM
 70
     7
  9
$LOFTNORMALS
280
     1
  9
$LATITUDE
 40
37.795
  9
$LONGITUDE
 40
-122.394
  9
$NORTHDIRECTION
 40
0.0
  9
$TIMEZONE
 70
 -8000
  9
$LIGHTGLYPHDISPLAY
280
     1
  9
$TILEMODELIGHTSYNCH
280
     1
  9
$CMATERIAL
347
3C
  9
$SOLIDHIST
280
     1
  9
$SHOWHIST
280
     1
  9
$DWFFRAME
280
     2
  9
$DGNFRAME
280
     2
  9
$REALWORLDSCALE
290
     1
  9
$INTERFERECOLOR
 62
   256
  9
$CSHADOW
280
     0
  9
$SHADOWPLANELOCATION
 40
0.0
  0
ENDSEC
  0
SECTION
  2
CLASSES
  0
CLASS
  1
ACDBDICTIONARYWDFLT
  2
AcDbDictionaryWithDefault
  3
ObjectDBX Classes
 90
        0
 91
        4
280
     0
281
     0
  0
CLASS
  1
VISUALSTYLE
  2
AcDbVisualStyle
  3
ObjectDBX Classes
 90
     4095
 91
        4
280
     0
281
     0
  0
CLASS
  1
MATERIAL
  2
AcDbMaterial
  3
ObjectDBX Classes
 90
     1153
 91
        4
280
     0
281
     0
  0
CLASS
  1
SUN
  2
AcDbSun
  3
SCENEOE
 90
     1024
 91
        4
280
     0
281
     0
  0
ENDSEC
  0
SECTION
  2
TABLES
  0
TABLE
  2
VPORT
  5
8
330
0
100
AcDbSymbolTable
 70
     1
  0
VPORT
  5
29
330
8
100
AcDbSymbolTableRecord
100
AcDbViewportTableRecord
  2
*Active
 70
     0
 10
0.0
 20
0.0
 11
1.0
 21
1.0
 12
0.0
 22
0.0
 13
0.0
 23
0.0
 14
0.5
 24
0.5
 15
0.5
 25
0.5
 16
0.0
 26
0.0
 36
1.0
 17
10.88368733723958
 27
16.15875074598524
 37
0.0
 40
32.31750149197048
 41
0.6735475723544849
 42
50.0
 43
0.0
 44
0.0
 50
0.0
 51
0.0
 71
     0
 72
   100
 73
     1
 74
     3
 75
     0
 76
     0
 77
     0
 78
     0
281
     0
 65
     1
110
0.0
120
0.0
130
0.0
111
1.0
121
0.0
131
0.0
112
0.0
122
1.0
132
0.0
 79
     0
146
0.0
 60
     3
 61
     5
292
     1
282
     1
141
0.0
142
0.0
 63
   250
361
3F
  0
ENDTAB
  0
TABLE
  2
LTYPE
  5
5
330
0
100
AcDbSymbolTable
 70
     1
  0
LTYPE
  5
14
330
5
100
AcDbSymbolTableRecord
100
AcDbLinetypeTableRecord
  2
ByBlock
 70
     0
  3

 72
    65
 73
     0
 40
0.0
  0
LTYPE
  5
15
330
5
100
AcDbSymbolTableRecord
100
AcDbLinetypeTableRecord
  2
ByLayer
 70
     0
  3

 72
    65
 73
     0
 40
0.0
  0
LTYPE
  5
16
330
5
100
AcDbSymbolTableRecord
100
AcDbLinetypeTableRecord
  2
Continuous
 70
     0
  3
Solid line
 72
    65
 73
     0
 40
0.0
  0
ENDTAB
  0
TABLE
  2
LAYER
  5
2
330
0
100
AcDbSymbolTable
 70
     2
  0
LAYER
  5
10
330
2
100
AcDbSymbolTableRecord
100
AcDbLayerTableRecord
  2
0
 70
     0
 62
     7
  6
Continuous
370
    -3
390
F
347
3E
  0
LAYER
  5
40
330
2
100
AcDbSymbolTableRecord
100
AcDbLayerTableRecord
  2
Layer 1
 70
     0
 62
     7
  6
Continuous
370
    -3
390
F
347
3E
  0
ENDTAB
  0
TABLE
  2
STYLE
  5
3
330
0
100
AcDbSymbolTable
 70
     1
  0
STYLE
  5
11
330
3
100
AcDbSymbolTableRecord
100
AcDbTextStyleTableRecord
  2
Standard
 70
     0
 40
0.0
 41
1.0
 50
0.0
 71
     0
 42
0.2
  3
txt
  4

  0
ENDTAB
  0
TABLE
  2
VIEW
  5
6
330
0
100
AcDbSymbolTable
 70
     0
  0
ENDTAB
  0
TABLE
  2
UCS
  5
7
330
0
100
AcDbSymbolTable
 70
     0
  0
ENDTAB
  0
TABLE
  2
APPID
  5
9
330
0
100
AcDbSymbolTable
 70
     1
  0
APPID
  5
12
330
9
100
AcDbSymbolTableRecord
100
AcDbRegAppTableRecord
  2
ACAD
 70
     0
  0
ENDTAB
  0
TABLE
  2
DIMSTYLE
  5
A
330
0
100
AcDbSymbolTable
 70
     1
100
AcDbDimStyleTable
  0
DIMSTYLE
105
27
330
A
100
AcDbSymbolTableRecord
100
AcDbDimStyleTableRecord
  2
Standard
 70
     0
178
     0
340
11
  0
ENDTAB
  0
TABLE
  2
BLOCK_RECORD
  5
1
330
0
100
AcDbSymbolTable
 70
     1
  0
BLOCK_RECORD
  5
1F
330
1
100
AcDbSymbolTableRecord
100
AcDbBlockTableRecord
  2
*Model_Space
340
22
 70
     0
280
     1
281
     0
  0
BLOCK_RECORD
  5
1B
330
1
100
AcDbSymbolTableRecord
100
AcDbBlockTableRecord
  2
*Paper_Space
340
1E
 70
     0
280
     1
281
     0
  0
BLOCK_RECORD
  5
23
330
1
100
AcDbSymbolTableRecord
100
AcDbBlockTableRecord
  2
*Paper_Space0
340
26
 70
     0
280
     1
281
     0
  0
ENDTAB
  0
ENDSEC
  0
SECTION
  2
BLOCKS
  0
BLOCK
  5
20
330
1F
100
AcDbEntity
  8
0
100
AcDbBlockBegin
  2
*Model_Space
 70
     0
 10
0.0
 20
0.0
 30
0.0
  3
*Model_Space
  1

  0
ENDBLK
  5
21
330
1F
100
AcDbEntity
  8
0
100
AcDbBlockEnd
  0
BLOCK
  5
1C
330
1B
100
AcDbEntity
 67
     1
  8
0
100
AcDbBlockBegin
  2
*Paper_Space
 70
     0
 10
0.0
 20
0.0
 30
0.0
  3
*Paper_Space
  1

  0
ENDBLK
  5
1D
330
1B
100
AcDbEntity
 67
     1
  8
0
100
AcDbBlockEnd
  0
BLOCK
  5
24
330
23
100
AcDbEntity
  8
0
100
AcDbBlockBegin
  2
*Paper_Space0
 70
     0
 10
0.0
 20
0.0
 30
0.0
  3
*Paper_Space0
  1

  0
ENDBLK
  5
25
330
23
100
AcDbEntity
  8
0
100
AcDbBlockEnd
  0
ENDSEC
  0
SECTION
  2
ENTITIES
  0
POLYLINE
  5
41
330
1F
100
AcDbEntity
  8
Layer 1
 62
     7
420
 16777215
370
    60
100
AcDb2dPolyline
 66
     1
 10
0.0
 20
0.0
 30
0.0
  0
VERTEX
  5
42
330
41
100
AcDbEntity
  8
Layer 1
 62
     7
420
 16777215
370
    60
100
AcDbVertex
100
AcDb2dVertex
 10
10.71931966145833
 20
25.15062625461155
 30
0.0
  0
VERTEX
  5
43
330
41
100
AcDbEntity
  8
Layer 1
 62
     7
420
 16777215
370
    60
100
AcDbVertex
100
AcDb2dVertex
 10
10.71931966145833
 20
23.39357076009115
 30
0.0
  0
VERTEX
  5
44
330
41
100
AcDbEntity
  8
Layer 1
 62
     7
420
 16777215
370
    60
100
AcDbVertex
100
AcDb2dVertex
 10
17.22134738498264
 20
23.39357076009115
 30
0.0
  0
VERTEX
  5
45
330
41
100
AcDbEntity
  8
Layer 1
 62
     7
420
 16777215
370
    60
100
AcDbVertex
100
AcDb2dVertex
 10
17.22134738498264
 20
25.15062625461155
 30
0.0
  0
VERTEX
  5
46
330
41
100
AcDbEntity
  8
Layer 1
 62
     7
420
 16777215
370
    60
100
AcDbVertex
100
AcDb2dVertex
 10
10.71931966145833
 20
25.15062625461155
 30
0.0
  0
SEQEND
  5
47
330
41
100
AcDbEntity
  8
Layer 1
 62
     7
420
 16777215
370
    60
  0
POLYLINE
  5
48
330
1F
100
AcDbEntity
  8
Layer 1
 62
     7
420
 16777215
370
    60
100
AcDb2dPolyline
 66
     1
 10
0.0
 20
0.0
 30
0.0
  0
VERTEX
  5
49
330
48
100
AcDbEntity
  8
Layer 1
 62
     7
420
 16777215
370
    60
100
AcDbVertex
100
AcDb2dVertex
 10
15.76402791341146
 20
24.57326504177518
 30
0.0
  0
VERTEX
  5
4A
330
48
100
AcDbEntity
  8
Layer 1
 62
     7
420
 16777215
370
    60
100
AcDbVertex
100
AcDb2dVertex
 10
12.15505557590061
 20
24.57326504177518
 30
0.0
  0
VERTEX
  5
4B
330
48
100
AcDbEntity
  8
Layer 1
 62
     7
420
 16777215
370
    60
100
AcDbVertex
100
AcDb2dVertex
 10
12.15505557590061
 20
24.78326497395834
 30
0.0
  0
VERTEX
  5
4C
330
48
100
AcDbEntity
  8
Layer 1
 62
     7
420
 16777215
370
    60
100
AcDbVertex
100
AcDb2dVertex
 10
15.76402791341146
 20
24.78326497395834
 30
0.0
  0
VERTEX
  5
4D
330
48
100
AcDbEntity
  8
Layer 1
 62
     7
420
 16777215
370
    60
100
AcDbVertex
100
AcDb2dVertex
 10
15.76402791341146
 20
24.57326504177518
 30
0.0
  0
SEQEND
  5
4E
330
48
100
AcDbEntity
  8
Layer 1
 62
     7
420
 16777215
370
    60
  0
SPLINE
  5
4F
330
1F
100
AcDbEntity
  8
Layer 1
 62
     7
420
 16777215
370
    35
100
AcDbSpline
210
0.0
220
0.0
230
1.0
 70
    11
 71
     3
 72
   104
 73
   100
 74
     0
 42
0.0000000001
 43
0.0000000001
 12
1.0
 22
0.0
 32
0.0
 13
1.0
 23
0.0
 33
0.0
 40
0.0
 40
0.0
 40
0.0
 40
0.0
 40
1.0
 40
1.0
 40
1.0
 40
2.0
 40
2.0
 40
2.0
 40
3.0
 40
3.0
 40
3.0
 40
4.0
 40
4.0
 40
4.0
 40
5.0
 40
5.0
 40
5.0
 40
6.0
 40
6.0
 40
6.0
 40
7.0
 40
7.0
 40
7.0
 40
8.0
 40
8.0
 40
8.0
 40
9.0
 40
9.0
 40
9.0
 40
10.0
 40
10.0
 40
10.0
 40
11.0
 40
11.0
 40
11.0
 40
12.0
 40
12.0
 40
12.0
 40
13.0
 40
13.0
 40
13.0
 40
14.0
 40
14.0
 40
14.0
 40
15.0
 40
15.0
 40
15.0
 40
16.0
 40
16.0
 40
16.0
 40
17.0
 40
17.0
 40
17.0
 40
18.0
 40
18.0
 40
18.0
 40
19.0
 40
19.0
 40
19.0
 40
20.0
 40
20.0
 40
20.0
 40
21.0
 40
21.0
 40
21.0
 40
22.0
 40
22.0
 40
22.0
 40
23.0
 40
23.0
 40
23.0
 40
24.0
 40
24.0
 40
24.0
 40
25.0
 40
25.0
 40
25.0
 40
26.0
 40
26.0
 40
26.0
 40
27.0
 40
27.0
 40
27.0
 40
28.0
 40
28.0
 40
28.0
 40
29.0
 40
29.0
 40
29.0
 40
30.0
 40
30.0
 40
30.0
 40
31.0
 40
31.0
 40
31.0
 40
32.0
 40
32.0
 40
32.0
 40
33.0
 40
33.0
 40
33.0
 40
33.0
 10
8.825708177354601
 20
6.125418735080302
 30
0.0
 10
8.534583197699652
 20
6.559850023057733
 30
0.0
 10
8.147985670301649
 20
6.894697367350267
 30
0.0
 10
7.665722317165798
 20
7.12994720458985
 30
0.0
 10
7.183263990614149
 20
7.365002068413635
 30
0.0
 10
6.595416598849826
 20
7.562321946885858
 30
0.0
 10
5.901819441053602
 20
7.721891581217455
 30
0.0
 10
5.51111094156901
 20
7.809531283908427
 30
0.0
 10
5.210097418891059
 20
7.903142259385858
 30
0.0
 10
4.998944600423177
 20
8.002919481065545
 30
0.0
 10
4.787611219618055
 20
8.102516988118497
 30
0.0
 10
4.68205557929145
 20
8.24396087646485
 30
0.0
 10
4.68205557929145
 20
8.427447814941413
 30
0.0
 10
4.68205557929145
 20
8.594863857693149
 30
0.0
 10
4.755680508083767
 20
8.726406487358947
 30
0.0
 10
4.903291490342881
 20
8.82208587646485
 30
0.0
 10
5.050708346896701
 20
8.917751702202697
 30
0.0
 10
5.260000016954209
 20
8.965599873860684
 30
0.0
 10
5.53111097547743
 20
8.965599873860684
 30
0.0
 10
5.881833394368489
 20
8.965599873860684
 30
0.0
 10
6.158944447835286
 20
8.897766079372836
 30
0.0
 10
6.362236022949219
 20
8.762295159233947
 30
0.0
 10
6.565541585286458
 20
8.626642829047316
 30
0.0
 10
6.750888824462891
 20
8.383544887966586
 30
0.0
 10
6.918305291069878
 20
8.03282331678603
 30
0.0
 10
6.918305291069878
 20
8.03282331678603
 30
0.0
 10
8.71209716796875
 20
8.03282331678603
 30
0.0
 10
8.71209716796875
 20
8.03282331678603
 30
0.0
 10
8.71209716796875
 20
8.03282331678603
 30
0.0
 10
8.71209716796875
 20
10.8191680569119
 30
0.0
 10
8.71209716796875
 20
10.8191680569119
 30
0.0
 10
8.71209716796875
 20
10.8191680569119
 30
0.0
 10
7.037888844807942
 20
10.8191680569119
 30
0.0
 10
7.037888844807942
 20
10.8191680569119
 30
0.0
 10
7.037888844807942
 20
10.8191680569119
 30
0.0
 10
6.738930596245659
 20
10.2690700615777
 30
0.0
 10
6.738930596245659
 20
10.2690700615777
 30
0.0
 10
6.300388760036892
 20
10.74741783989801
 30
0.0
 10
5.706375122070312
 20
10.98658409966363
 30
0.0
 10
4.957097371419271
 20
10.98658409966363
 30
0.0
 10
4.343097262912326
 20
10.98658409966363
 30
0.0
 10
3.809083726671007
 20
10.86700096978082
 30
0.0
 10
3.354652828640408
 20
10.62781945122613
 30
0.0
 10
2.900222354465061
 20
10.38865319146051
 30
0.0
 10
2.551375071207682
 20
10.05380584716798
 30
0.0
 10
2.308277977837456
 20
9.623306240505649
 30
0.0
 10
2.064986334906684
 20
9.192793070475267
 30
0.0
 10
1.943528069390191
 20
8.694459669325093
 30
0.0
 10
1.943528069390191
 20
8.128487447102872
 30
0.0
 10
1.943528069390191
 20
7.394904208713115
 30
0.0
 10
2.090958701239692
 20
6.805001118977871
 30
0.0
 10
2.385986328125
 20
6.358612026638461
 30
0.0
 10
2.680847379896376
 20
5.912027960883253
 30
0.0
 10
3.069500181410048
 20
5.569347771538635
 30
0.0
 10
3.551958507961697
 20
5.33018151177301
 30
0.0
 10
4.034222496880425
 20
5.09100168863933
 30
0.0
 10
4.650083753797743
 20
4.867723219129781
 30
0.0
 10
5.399555630154079
 20
4.660500386555996
 30
0.0
 10
5.694402906629774
 20
4.58070878770617
 30
0.0
 10
5.923666636149088
 20
4.493069085015198
 30
0.0
 10
6.087166680230035
 20
4.397416822645406
 30
0.0
 10
6.250486161973741
 20
4.301735738118497
 30
0.0
 10
6.33231947157118
 20
4.158236999511725
 30
0.0
 10
6.33231947157118
 20
3.966903652615024
 30
0.0
 10
6.33231947157118
 20
3.815361836751309
 30
0.0
 10
6.252541859944661
 20
3.693722161187073
 30
0.0
 10
6.093138800726996
 20
3.602166035970059
 30
0.0
 10
5.933569166395399
 20
3.510430196126309
 30
0.0
 10
5.742222256130642
 20
3.46463687472874
 30
0.0
 10
5.519138760036892
 20
3.46463687472874
 30
0.0
 10
5.152347140842013
 20
3.46463687472874
 30
0.0
 10
4.843471950954861
 20
3.532277391221795
 30
0.0
 10
4.592347039116754
 20
3.667941589355475
 30
0.0
 10
4.341222127278646
 20
3.803412509494365
 30
0.0
 10
4.155860900878906
 20
4.034552646213115
 30
0.0
 10
4.036277770996094
 20
4.361538323296448
 30
0.0
 10
4.036277770996094
 20
4.361538323296448
 30
0.0
 10
2.158777872721354
 20
4.361538323296448
 30
0.0
 10
2.158777872721354
 20
4.361538323296448
 30
0.0
 10
2.158777872721354
 20
4.361538323296448
 30
0.0
 10
2.158777872721354
 20
1.347954610188809
 30
0.0
 10
2.158777872721354
 20
1.347954610188809
 30
0.0
 10
2.158777872721354
 20
1.347954610188809
 30
0.0
 10
6.822722117106119
 20
1.347954610188809
 30
0.0
 10
6.822722117106119
 20
1.347954610188809
 30
0.0
 10
6.822722117106119
 20
1.347954610188809
 30
0.0
 10
6.822722117106119
 20
1.385911695692281
 30
0.0
 10
6.822722117106119
 20
1.385911695692281
 30
0.0
 10
7.199194166395399
 20
1.443410203721795
 30
0.0
 10
7.544013977050781
 20
1.566301099989156
 30
0.0
 10
7.85704125298394
 20
1.754550476074226
 30
0.0
 10
8.307360331217447
 20
2.025482143825962
 30
0.0
 10
8.654152764214409
 20
2.396189337836379
 30
0.0
 10
8.897430419921875
 20
2.866689012315545
 30
0.0
 10
9.140527513292101
 20
3.33699540879992
 30
0.0
 10
9.262166341145832
 20
3.863176099989156
 30
0.0
 10
9.262166341145832
 20
4.445217522515198
 30
0.0
 10
9.262194315592447
 20
5.130806783040371
 30
0.0
 10
9.116639031304253
 20
5.690792473687073
 30
0.0
 10
8.825708177354601
 20
6.125418735080302
 30
0.0
  0
SPLINE
  5
50
330
1F
100
AcDbEntity
  8
Layer 1
 62
     7
420
 16777215
370
    35
100
AcDbSpline
210
0.0
220
0.0
230
1.0
 70
    11
 71
     3
 72
   116
 73
   112
 74
     0
 42
0.0000000001
 43
0.0000000001
 12
1.0
 22
0.0
 32
0.0
 13
1.0
 23
0.0
 33
0.0
 40
0.0
 40
0.0
 40
0.0
 40
0.0
 40
1.0
 40
1.0
 40
1.0
 40
2.0
 40
2.0
 40
2.0
 40
3.0
 40
3.0
 40
3.0
 40
4.0
 40
4.0
 40
4.0
 40
5.0
 40
5.0
 40
5.0
 40
6.0
 40
6.0
 40
6.0
 40
7.0
 40
7.0
 40
7.0
 40
8.0
 40
8.0
 40
8.0
 40
9.0
 40
9.0
 40
9.0
 40
10.0
 40
10.0
 40
10.0
 40
11.0
 40
11.0
 40
11.0
 40
12.0
 40
12.0
 40
12.0
 40
13.0
 40
13.0
 40
13.0
 40
14.0
 40
14.0
 40
14.0
 40
15.0
 40
15.0
 40
15.0
 40
16.0
 40
16.0
 40
16.0
 40
17.0
 40
17.0
 40
17.0
 40
18.0
 40
18.0
 40
18.0
 40
19.0
 40
19.0
 40
19.0
 40
20.0
 40
20.0
 40
20.0
 40
21.0
 40
21.0
 40
21.0
 40
22.0
 40
22.0
 40
22.0
 40
23.0
 40
23.0
 40
23.0
 40
24.0
 40
24.0
 40
24.0
 40
25.0
 40
25.0
 40
25.0
 40
26.0
 40
26.0
 40
26.0
 40
27.0
 40
27.0
 40
27.0
 40
28.0
 40
28.0
 40
28.0
 40
29.0
 40
29.0
 40
29.0
 40
30.0
 40
30.0
 40
30.0
 40
31.0
 40
31.0
 40
31.0
 40
32.0
 40
32.0
 40
32.0
 40
33.0
 40
33.0
 40
33.0
 40
34.0
 40
34.0
 40
34.0
 40
35.0
 40
35.0
 40
35.0
 40
36.0
 40
36.0
 40
36.0
 40
37.0
 40
37.0
 40
37.0
 40
37.0
 10
8.586541917588976
 20
3.027404751247837
 30
0.0
 10
8.371638827853733
 20
2.61179263644749
 30
0.0
 10
8.074000040690104
 20
2.293514641655823
 30
0.0
 10
7.676639133029513
 20
2.054460279676656
 30
0.0
 10
7.404444376627604
 20
1.890750427246101
 30
0.0
 10
7.099361419677734
 20
1.782209574381517
 30
0.0
 10
6.769888983832465
 20
1.731889478895406
 30
0.0
 10
6.769888983832465
 20
1.731889478895406
 30
0.0
 10
6.566638946533203
 20
1.700846320258254
 30
0.0
 10
6.566638946533203
 20
1.700846320258254
 30
0.0
 10
6.553986019558376
 20
1.698916931152351
 30
0.0
 10
6.541194491916232
 20
1.697943759494365
 30
0.0
 10
6.528388977050781
 20
1.697943759494365
 30
0.0
 10
6.528388977050781
 20
1.697943759494365
 30
0.0
 10
6.043819427490234
 20
1.697943759494365
 30
0.0
 10
6.043819427490234
 20
1.697943759494365
 30
0.0
 10
6.043819427490234
 20
1.697943759494365
 30
0.0
 10
3.784847259521484
 20
1.697943759494365
 30
0.0
 10
3.784847259521484
 20
1.697943759494365
 30
0.0
 10
3.784847259521484
 20
1.697943759494365
 30
0.0
 10
2.508805592854817
 20
1.697943759494365
 30
0.0
 10
2.508805592854817
 20
1.697943759494365
 30
0.0
 10
2.508805592854817
 20
1.697943759494365
 30
0.0
 10
2.508805592854817
 20
4.011528828938809
 30
0.0
 10
2.508805592854817
 20
4.011528828938809
 30
0.0
 10
2.508805592854817
 20
4.011528828938809
 30
0.0
 10
3.807361178927951
 20
4.011528828938809
 30
0.0
 10
3.807361178927951
 20
4.011528828938809
 30
0.0
 10
3.956222110324436
 20
3.720153774685337
 30
0.0
 10
4.163653055826822
 20
3.501515672471795
 30
0.0
 10
4.42620849609375
 20
3.359890374077698
 30
0.0
 10
4.7274169921875
 20
3.19718082004124
 30
0.0
 10
5.095194498697916
 20
3.1146273803711
 30
0.0
 10
5.519180721706814
 20
3.1146273803711
 30
0.0
 10
5.803333706325954
 20
3.1146273803711
 30
0.0
 10
6.055152893066406
 20
3.176571282280823
 30
0.0
 10
6.26763916015625
 20
3.298739929199225
 30
0.0
 10
6.535028245713975
 20
3.452324727376309
 30
0.0
 10
6.682361178927951
 20
3.689642978244365
 30
0.0
 10
6.682361178927951
 20
3.966893480088983
 30
0.0
 10
6.682361178927951
 20
4.281255052354608
 30
0.0
 10
6.533819410536024
 20
4.541393669976135
 30
0.0
 10
6.264124976264106
 20
4.699393344455302
 30
0.0
 10
6.072249942355685
 20
4.811657341851135
 30
0.0
 10
5.819694519042969
 20
4.909337327745233
 30
0.0
 10
5.49187511867947
 20
4.998116353352871
 30
0.0
 10
4.768013848198785
 20
5.198309970431865
 30
0.0
 10
4.167625003390842
 20
5.415532396104608
 30
0.0
 10
3.70750003390842
 20
5.643727586534295
 30
0.0
 10
3.277277840508355
 20
5.856991204155823
 30
0.0
 10
2.940583335028754
 20
6.153908589680996
 30
0.0
 10
2.678097195095486
 20
6.551449211968323
 30
0.0
 10
2.42290284898546
 20
6.937574564615892
 30
0.0
 10
2.293555577596028
 20
7.468102315266933
 30
0.0
 10
2.293555577596028
 20
8.128477274576829
 30
0.0
 10
2.293555577596028
 20
8.631005147298184
 30
0.0
 10
2.401027891370985
 20
9.075990431043843
 30
0.0
 10
2.613000022040473
 20
9.451102328830302
 30
0.0
 10
2.824333402845594
 20
9.825352952745233
 30
0.0
 10
3.120236078898112
 20
10.10890702989367
 30
0.0
 10
3.517666710747613
 20
10.31808807373048
 30
0.0
 10
3.919194539388021
 20
10.52942060682509
 30
0.0
 10
4.403486039903429
 20
10.636574605306
 30
0.0
 10
4.957110934787326
 20
10.636574605306
 30
0.0
 10
5.609860738118489
 20
10.636574605306
 30
0.0
 10
6.108319176567925
 20
10.4389919365777
 30
0.0
 10
6.480958302815755
 20
10.0325469631619
 30
0.0
 10
6.480958302815755
 20
10.0325469631619
 30
0.0
 10
6.81231943766276
 20
9.671117112901483
 30
0.0
 10
6.81231943766276
 20
9.671117112901483
 30
0.0
 10
6.81231943766276
 20
9.671117112901483
 30
0.0
 10
7.246042039659288
 20
10.46915856255426
 30
0.0
 10
7.246042039659288
 20
10.46915856255426
 30
0.0
 10
7.246042039659288
 20
10.46915856255426
 30
0.0
 10
8.362111409505207
 20
10.46915856255426
 30
0.0
 10
8.362111409505207
 20
10.46915856255426
 30
0.0
 10
8.362111409505207
 20
10.46915856255426
 30
0.0
 10
8.362111409505207
 20
8.382810770670579
 30
0.0
 10
8.362111409505207
 20
8.382810770670579
 30
0.0
 10
8.362111409505207
 20
8.382810770670579
 30
0.0
 10
7.131625705295138
 20
8.382810770670579
 30
0.0
 10
7.131625705295138
 20
8.382810770670579
 30
0.0
 10
6.960917154947916
 20
8.689436136881517
 30
0.0
 10
6.771639506022135
 20
8.909879862467454
 30
0.0
 10
6.556514739990234
 20
9.053422682020406
 30
0.0
 10
6.295417361789279
 20
9.227408481174052
 30
0.0
 10
5.950486924913194
 20
9.31558902316624
 30
0.0
 10
5.531125810411241
 20
9.31558902316624
 30
0.0
 10
5.18773693508572
 20
9.31558902316624
 30
0.0
 10
4.920042249891493
 20
9.25018646240235
 30
0.0
 10
4.712764739990234
 20
9.115658196343322
 30
0.0
 10
4.467334323459201
 20
8.956602274576829
 30
0.0
 10
4.33207024468316
 20
8.71214460584853
 30
0.0
 10
4.33207024468316
 20
8.427435946994365
 30
0.0
 10
4.33207024468316
 20
8.241768697102872
 30
0.0
 10
4.399333953857422
 20
7.898574795193149
 30
0.0
 10
4.849750942654079
 20
7.686311475965718
 30
0.0
 10
5.085611979166666
 20
7.574852803548183
 30
0.0
 10
5.404473198784722
 20
7.474797532823358
 30
0.0
 10
5.824278937445746
 20
7.38057451036242
 30
0.0
 10
6.488237169053819
 20
7.227769605848531
 30
0.0
 10
7.056181589762369
 20
7.037589145236552
 30
0.0
 10
7.512445237901475
 20
6.815282151963983
 30
0.0
 10
7.941917419433594
 20
6.605795932345927
 30
0.0
 10
8.276431613498264
 20
6.31636552598742
 30
0.0
 10
8.53497314453125
 20
5.930574171278218
 30
0.0
 10
8.78525119357639
 20
5.556671108669712
 30
0.0
 10
8.912209404839409
 20
5.056893208821621
 30
0.0
 10
8.912209404839409
 20
4.44522769504124
 30
0.0
 10
8.912194146050346
 20
3.922487013075094
 30
0.0
 10
8.802625020345051
 20
3.445458272298184
 30
0.0
 10
8.586541917588976
 20
3.027404751247837
 30
0.0
  0
SPLINE
  5
51
330
1F
100
AcDbEntity
  8
Layer 1
 62
     6
420
 15466751
370
    70
100
AcDbSpline
210
0.0
220
0.0
230
1.0
 70
    11
 71
     3
 72
   104
 73
   100
 74
     0
 42
0.0000000001
 43
0.0000000001
 12
1.0
 22
0.0
 32
0.0
 13
1.0
 23
0.0
 33
0.0
 40
0.0
 40
0.0
 40
0.0
 40
0.0
 40
1.0
 40
1.0
 40
1.0
 40
2.0
 40
2.0
 40
2.0
 40
3.0
 40
3.0
 40
3.0
 40
4.0
 40
4.0
 40
4.0
 40
5.0
 40
5.0
 40
5.0
 40
6.0
 40
6.0
 40
6.0
 40
7.0
 40
7.0
 40
7.0
 40
8.0
 40
8.0
 40
8.0
 40
9.0
 40
9.0
 40
9.0
 40
10.0
 40
10.0
 40
10.0
 40
11.0
 40
11.0
 40
11.0
 40
12.0
 40
12.0
 40
12.0
 40
13.0
 40
13.0
 40
13.0
 40
14.0
 40
14.0
 40
14.0
 40
15.0
 40
15.0
 40
15.0
 40
16.0
 40
16.0
 40
16.0
 40
17.0
 40
17.0
 40
17.0
 40
18.0
 40
18.0
 40
18.0
 40
19.0
 40
19.0
 40
19.0
 40
20.0
 40
20.0
 40
20.0
 40
21.0
 40
21.0
 40
21.0
 40
22.0
 40
22.0
 40
22.0
 40
23.0
 40
23.0
 40
23.0
 40
24.0
 40
24.0
 40
24.0
 40
25.0
 40
25.0
 40
25.0
 40
26.0
 40
26.0
 40
26.0
 40
27.0
 40
27.0
 40
27.0
 40
28.0
 40
28.0
 40
28.0
 40
29.0
 40
29.0
 40
29.0
 40
30.0
 40
30.0
 40
30.0
 40
31.0
 40
31.0
 40
31.0
 40
32.0
 40
32.0
 40
32.0
 40
33.0
 40
33.0
 40
33.0
 40
33.0
 10
18.05447218153212
 20
6.125418735080302
 30
0.0
 10
17.76334635416666
 20
6.559850023057733
 30
0.0
 10
17.37674967447916
 20
6.894697367350267
 30
0.0
 10
16.89448547363281
 20
7.12994720458985
 30
0.0
 10
16.41202799479166
 20
7.365002068413635
 30
0.0
 10
15.82417975531684
 20
7.562321946885858
 30
0.0
 10
15.13058302137587
 20
7.721891581217455
 30
0.0
 10
14.73987494574653
 20
7.809531283908427
 30
0.0
 10
14.43886142306858
 20
7.903142259385858
 30
0.0
 10
14.22770860460069
 20
8.002919481065545
 30
0.0
 10
14.01637522379557
 20
8.102516988118497
 30
0.0
 10
13.91082000732422
 20
8.24396087646485
 30
0.0
 10
13.91082000732422
 20
8.427447814941413
 30
0.0
 10
13.91082000732422
 20
8.594863857693149
 30
0.0
 10
13.98444535997179
 20
8.726406487358947
 30
0.0
 10
14.1320563422309
 20
8.82208587646485
 30
0.0
 10
14.27947319878472
 20
8.917751702202697
 30
0.0
 10
14.48876444498698
 20
8.965599873860684
 30
0.0
 10
14.75987582736545
 20
8.965599873860684
 30
0.0
 10
15.11059739854601
 20
8.965599873860684
 30
0.0
 10
15.38770887586806
 20
8.897766079372836
 30
0.0
 10
15.59100002712674
 20
8.762295159233947
 30
0.0
 10
15.79430474175347
 20
8.626642829047316
 30
0.0
 10
15.97965325249566
 20
8.383544887966586
 30
0.0
 10
16.14706929524739
 20
8.03282331678603
 30
0.0
 10
16.14706929524739
 20
8.03282331678603
 30
0.0
 10
17.94086032443576
 20
8.03282331678603
 30
0.0
 10
17.94086032443576
 20
8.03282331678603
 30
0.0
 10
17.94086032443576
 20
8.03282331678603
 30
0.0
 10
17.94086032443576
 20
10.8191680569119
 30
0.0
 10
17.94086032443576
 20
10.8191680569119
 30
0.0
 10
17.94086032443576
 20
10.8191680569119
 30
0.0
 10
16.26665242513021
 20
10.8191680569119
 30
0.0
 10
16.26665242513021
 20
10.8191680569119
 30
0.0
 10
16.26665242513021
 20
10.8191680569119
 30
0.0
 10
15.96769375271267
 20
10.2690700615777
 30
0.0
 10
15.96769375271267
 20
10.2690700615777
 30
0.0
 10
15.52915276421441
 20
10.74741783989801
 30
0.0
 10
14.93513827853733
 20
10.98658409966363
 30
0.0
 10
14.18586052788628
 20
10.98658409966363
 30
0.0
 10
13.57186041937934
 20
10.98658409966363
 30
0.0
 10
13.03784688313802
 20
10.86700096978082
 30
0.0
 10
12.58341640896267
 20
10.62781945122613
 30
0.0
 10
12.12898593478733
 20
10.38865319146051
 30
0.0
 10
11.78013865152995
 20
10.05380584716798
 30
0.0
 10
11.53704155815972
 20
9.623306240505649
 30
0.0
 10
11.2937494913737
 20
9.192793070475267
 30
0.0
 10
11.1722912258572
 20
8.694459669325093
 30
0.0
 10
11.1722912258572
 20
8.128487447102872
 30
0.0
 10
11.1722912258572
 20
7.394904208713115
 30
0.0
 10
11.31972164577908
 20
6.805001118977871
 30
0.0
 10
11.61474948459201
 20
6.358612026638461
 30
0.0
 10
11.90961032443576
 20
5.912027960883253
 30
0.0
 10
12.29826354980469
 20
5.569347771538635
 30
0.0
 10
12.78072187635634
 20
5.33018151177301
 30
0.0
 10
13.26298607720269
 20
5.09100168863933
 30
0.0
 10
13.87884691026476
 20
4.867723219129781
 30
0.0
 10
14.6283196343316
 20
4.660500386555996
 30
0.0
 10
14.92316691080729
 20
4.58070878770617
 30
0.0
 10
15.15243021647135
 20
4.493069085015198
 30
0.0
 10
15.31593153211806
 20
4.397416822645406
 30
0.0
 10
15.47925143771701
 20
4.301735738118497
 30
0.0
 10
15.5610843234592
 20
4.158236999511725
 30
0.0
 10
15.5610843234592
 20
3.966903652615024
 30
0.0
 10
15.5610843234592
 20
3.815361836751309
 30
0.0
 10
15.48130628797743
 20
3.693722161187073
 30
0.0
 10
15.32190450032552
 20
3.602166035970059
 30
0.0
 10
15.16233486599392
 20
3.510430196126309
 30
0.0
 10
14.97098795572917
 20
3.46463687472874
 30
0.0
 10
14.74790445963542
 20
3.46463687472874
 30
0.0
 10
14.38111199273003
 20
3.46463687472874
 30
0.0
 10
14.07223765055338
 20
3.532277391221795
 30
0.0
 10
13.82109917534722
 20
3.667941589355475
 30
0.0
 10
13.56997426350911
 20
3.803412509494365
 30
0.0
 10
13.38461303710938
 20
4.034552646213115
 30
0.0
 10
13.26502990722656
 20
4.361538323296448
 30
0.0
 10
13.26502990722656
 20
4.361538323296448
 30
0.0
 10
11.38753000895182
 20
4.361538323296448
 30
0.0
 10
11.38753000895182
 20
4.361538323296448
 30
0.0
 10
11.38753000895182
 20
4.361538323296448
 30
0.0
 10
11.38753000895182
 20
1.347954610188809
 30
0.0
 10
11.38753000895182
 20
1.347954610188809
 30
0.0
 10
11.38753000895182
 20
1.347954610188809
 30
0.0
 10
16.05147467719184
 20
1.347954610188809
 30
0.0
 10
16.05147467719184
 20
1.347954610188809
 30
0.0
 10
16.05147467719184
 20
1.347954610188809
 30
0.0
 10
16.05147467719184
 20
1.385911695692281
 30
0.0
 10
16.05147467719184
 20
1.385911695692281
 30
0.0
 10
16.42794630262587
 20
1.443410203721795
 30
0.0
 10
16.77276611328125
 20
1.566301099989156
 30
0.0
 10
17.08579338921441
 20
1.754550476074226
 30
0.0
 10
17.53611246744791
 20
2.025482143825962
 30
0.0
 10
17.88290405273438
 20
2.396189337836379
 30
0.0
 10
18.12618170844184
 20
2.866689012315545
 30
0.0
 10
18.36927964952257
 20
3.33699540879992
 30
0.0
 10
18.4909176296658
 20
3.863176099989156
 30
0.0
 10
18.4909176296658
 20
4.445217522515198
 30
0.0
 10
18.49095831976996
 20
5.130806783040371
 30
0.0
 10
18.34540303548177
 20
5.690792473687073
 30
0.0
 10
18.05447218153212
 20
6.125418735080302
 30
0.0
  0
SPLINE
  5
52
330
1F
100
AcDbEntity
  8
Layer 1
 62
     7
420
 16777215
370
    35
100
AcDbSpline
210
0.0
220
0.0
230
1.0
 70
    11
 71
     3
 72
   116
 73
   112
 74
     0
 42
0.0000000001
 43
0.0000000001
 12
1.0
 22
0.0
 32
0.0
 13
1.0
 23
0.0
 33
0.0
 40
0.0
 40
0.0
 40
0.0
 40
0.0
 40
1.0
 40
1.0
 40
1.0
 40
2.0
 40
2.0
 40
2.0
 40
3.0
 40
3.0
 40
3.0
 40
4.0
 40
4.0
 40
4.0
 40
5.0
 40
5.0
 40
5.0
 40
6.0
 40
6.0
 40
6.0
 40
7.0
 40
7.0
 40
7.0
 40
8.0
 40
8.0
 40
8.0
 40
9.0
 40
9.0
 40
9.0
 40
10.0
 40
10.0
 40
10.0
 40
11.0
 40
11.0
 40
11.0
 40
12.0
 40
12.0
 40
12.0
 40
13.0
 40
13.0
 40
13.0
 40
14.0
 40
14.0
 40
14.0
 40
15.0
 40
15.0
 40
15.0
 40
16.0
 40
16.0
 40
16.0
 40
17.0
 40
17.0
 40
17.0
 40
18.0
 40
18.0
 40
18.0
 40
19.0
 40
19.0
 40
19.0
 40
20.0
 40
20.0
 40
20.0
 40
21.0
 40
21.0
 40
21.0
 40
22.0
 40
22.0
 40
22.0
 40
23.0
 40
23.0
 40
23.0
 40
24.0
 40
24.0
 40
24.0
 40
25.0
 40
25.0
 40
25.0
 40
26.0
 40
26.0
 40
26.0
 40
27.0
 40
27.0
 40
27.0
 40
28.0
 40
28.0
 40
28.0
 40
29.0
 40
29.0
 40
29.0
 40
30.0
 40
30.0
 40
30.0
 40
31.0
 40
31.0
 40
31.0
 40
32.0
 40
32.0
 40
32.0
 40
33.0
 40
33.0
 40
33.0
 40
34.0
 40
34.0
 40
34.0
 40
35.0
 40
35.0
 40
35.0
 40
36.0
 40
36.0
 40
36.0
 40
37.0
 40
37.0
 40
37.0
 40
37.0
 10
8.825708177354601
 20
26.88743206448026
 30
0.0
 10
8.534583197699652
 20
27.32186250474718
 30
0.0
 10
8.147985670301649
 20
27.65670984903972
 30
0.0
 10
7.665722317165798
 20
27.8919596862793
 30
0.0
 10
7.183263990614149
 20
28.12701539781359
 30
0.0
 10
6.595416598849826
 20
28.32433485243056
 30
0.0
 10
5.901819441053602
 20
28.48390406290691
 30
0.0
 10
5.51111094156901
 20
28.57154291788737
 30
0.0
 10
5.210097418891059
 20
28.66515389336481
 30
0.0
 10
4.998944600423177
 20
28.76493175082737
 30
0.0
 10
4.787611219618055
 20
28.8645290459527
 30
0.0
 10
4.68205557929145
 20
29.0059733581543
 30
0.0
 10
4.68205557929145
 20
29.18945944892036
 30
0.0
 10
4.68205557929145
 20
29.35687612745497
 30
0.0
 10
4.755680508083767
 20
29.48841769748265
 30
0.0
 10
4.903291490342881
 20
29.5840983581543
 30
0.0
 10
5.050708346896701
 20
29.67976503160265
 30
0.0
 10
5.260000016954209
 20
29.72761235555014
 30
0.0
 10
5.53111097547743
 20
29.72761235555014
 30
0.0
 10
5.881833394368489
 20
29.72761235555014
 30
0.0
 10
6.158944447835286
 20
29.65977898491754
 30
0.0
 10
6.362236022949219
 20
29.5243067932129
 30
0.0
 10
6.565541585286458
 20
29.38865403917101
 30
0.0
 10
6.750888824462891
 20
29.14555673387316
 30
0.0
 10
6.918305291069878
 20
28.79483452690973
 30
0.0
 10
6.918305291069878
 20
28.79483452690973
 30
0.0
 10
8.71209716796875
 20
28.79483452690973
 30
0.0
 10
8.71209716796875
 20
28.79483452690973
 30
0.0
 10
8.71209716796875
 20
28.79483452690973
 30
0.0
 10
8.71209716796875
 20
31.58118202209473
 30
0.0
 10
8.71209716796875
 20
31.58118202209473
 30
0.0
 10
8.71209716796875
 20
31.58118202209473
 30
0.0
 10
7.03790283203125
 20
31.58118202209473
 30
0.0
 10
7.03790283203125
 20
31.58118202209473
 30
0.0
 10
7.03790283203125
 20
31.58118202209473
 30
0.0
 10
6.738944583468967
 20
31.03108487447103
 30
0.0
 10
6.738944583468967
 20
31.03108487447103
 30
0.0
 10
6.3004027472602
 20
31.50943212297228
 30
0.0
 10
5.706389109293619
 20
31.74859875361125
 30
0.0
 10
4.957110934787326
 20
31.74859875361125
 30
0.0
 10
4.343110826280382
 20
31.74859875361125
 30
0.0
 10
3.809097290039062
 20
31.62901541180081
 30
0.0
 10
3.354666392008463
 20
31.38983489990235
 30
0.0
 10
2.900235917833116
 20
31.15066821628147
 30
0.0
 10
2.551388634575738
 20
30.81582108391656
 30
0.0
 10
2.308291541205512
 20
30.38532105339899
 30
0.0
 10
2.064999898274739
 20
29.95480724758573
 30
0.0
 10
1.943541632758246
 20
29.45647384643555
 30
0.0
 10
1.943541632758246
 20
28.89050162421333
 30
0.0
 10
1.943541632758246
 20
28.15691838582357
 30
0.0
 10
2.090972264607747
 20
27.56701571994358
 30
0.0
 10
2.385999891493055
 20
27.12062662760417
 30
0.0
 10
2.680860943264431
 20
26.67404340955947
 30
0.0
 10
3.069513744778103
 20
26.3313627963596
 30
0.0
 10
3.551972071329752
 20
26.09219611273872
 30
0.0
 10
4.034236060248481
 20
25.85301544189454
 30
0.0
 10
4.650097317165798
 20
25.62973782009549
 30
0.0
 10
5.399569193522135
 20
25.42251541137696
 30
0.0
 10
5.694416469997829
 20
25.34272381252713
 30
0.0
 10
5.923680199517144
 20
25.25508495754666
 30
0.0
 10
6.08718024359809
 20
25.15943227132162
 30
0.0
 10
6.250499725341797
 20
25.06375203450521
 30
0.0
 10
6.332333034939236
 20
24.92025160047744
 30
0.0
 10
6.332333034939236
 20
24.72891825358073
 30
0.0
 10
6.332333034939236
 20
24.57737643771702
 30
0.0
 10
6.252555423312717
 20
24.45573760986329
 30
0.0
 10
6.093152364095052
 20
24.36418233235678
 30
0.0
 10
5.933582729763454
 20
24.27244649251303
 30
0.0
 10
5.742235819498697
 20
24.22665486653646
 30
0.0
 10
5.519152323404947
 20
24.22665486653646
 30
0.0
 10
5.152360704210069
 20
24.22665486653646
 30
0.0
 10
4.843485514322916
 20
24.29429368760851
 30
0.0
 10
4.592360602484809
 20
24.4299604288737
 30
0.0
 10
4.341235690646701
 20
24.5654330444336
 30
0.0
 10
4.155874464246962
 20
24.79657148573134
 30
0.0
 10
4.036291334364149
 20
25.12355801052518
 30
0.0
 10
4.036291334364149
 20
25.12355801052518
 30
0.0
 10
2.15879143608941
 20
25.12355801052518
 30
0.0
 10
2.15879143608941
 20
25.12355801052518
 30
0.0
 10
2.15879143608941
 20
25.12355801052518
 30
0.0
 10
2.15879143608941
 20
22.10997514512804
 30
0.0
 10
2.15879143608941
 20
22.10997514512804
 30
0.0
 10
2.15879143608941
 20
22.10997514512804
 30
0.0
 10
3.238166385226779
 20
22.10997514512804
 30
0.0
 10
3.238166385226779
 20
22.10997514512804
 30
0.0
 10
3.238166385226779
 20
22.10997514512804
 30
0.0
 10
3.238166385226779
 20
21.8941692437066
 30
0.0
 10
3.238166385226779
 20
21.8941692437066
 30
0.0
 10
3.238166385226779
 20
21.8941692437066
 30
0.0
 10
6.824069129096137
 20
21.8941692437066
 30
0.0
 10
6.824069129096137
 20
21.8941692437066
 30
0.0
 10
6.824069129096137
 20
21.8941692437066
 30
0.0
 10
6.824069129096137
 20
22.10997514512804
 30
0.0
 10
6.824069129096137
 20
22.10997514512804
 30
0.0
 10
6.824069129096137
 20
22.10997514512804
 30
0.0
 10
6.822735680474175
 20
22.10997514512804
 30
0.0
 10
6.822735680474175
 20
22.10997514512804
 30
0.0
 10
6.822735680474175
 20
22.10997514512804
 30
0.0
 10
6.822735680474175
 20
22.14793307834202
 30
0.0
 10
6.822735680474175
 20
22.14793307834202
 30
0.0
 10
7.199207729763454
 20
22.20543328179254
 30
0.0
 10
7.544027540418837
 20
22.32830807156034
 30
0.0
 10
7.857054816351996
 20
22.51657185872396
 30
0.0
 10
8.307373894585503
 20
22.7875026787652
 30
0.0
 10
8.654166327582464
 20
23.15821072048612
 30
0.0
 10
8.89744398328993
 20
23.62871039496529
 30
0.0
 10
9.140541076660156
 20
24.09901594373915
 30
0.0
 10
9.262179904513888
 20
24.62519663492839
 30
0.0
 10
9.262179904513888
 20
25.20723805745443
 30
0.0
 10
9.262194315592447
 20
25.89282096015083
 30
0.0
 10
9.116639031304253
 20
26.45282106187609
 30
0.0
 10
8.825708177354601
 20
26.88743206448026
 30
0.0
  0
SPLINE
  5
53
330
1F
100
AcDbEntity
  8
Layer 1
 62
     7
420
 16777215
370
    35
100
AcDbSpline
210
0.0
220
0.0
230
1.0
 70
    11
 71
     3
 72
   221
 73
   217
 74
     0
 42
0.0000000001
 43
0.0000000001
 12
1.0
 22
0.0
 32
0.0
 13
1.0
 23
0.0
 33
0.0
 40
0.0
 40
0.0
 40
0.0
 40
0.0
 40
1.0
 40
1.0
 40
1.0
 40
2.0
 40
2.0
 40
2.0
 40
3.0
 40
3.0
 40
3.0
 40
4.0
 40
4.0
 40
4.0
 40
5.0
 40
5.0
 40
5.0
 40
6.0
 40
6.0
 40
6.0
 40
7.0
 40
7.0
 40
7.0
 40
8.0
 40
8.0
 40
8.0
 40
9.0
 40
9.0
 40
9.0
 40
10.0
 40
10.0
 40
10.0
 40
11.0
 40
11.0
 40
11.0
 40
12.0
 40
12.0
 40
12.0
 40
13.0
 40
13.0
 40
13.0
 40
14.0
 40
14.0
 40
14.0
 40
15.0
 40
15.0
 40
15.0
 40
16.0
 40
16.0
 40
16.0
 40
17.0
 40
17.0
 40
17.0
 40
18.0
 40
18.0
 40
18.0
 40
19.0
 40
19.0
 40
19.0
 40
20.0
 40
20.0
 40
20.0
 40
21.0
 40
21.0
 40
21.0
 40
22.0
 40
22.0
 40
22.0
 40
23.0
 40
23.0
 40
23.0
 40
24.0
 40
24.0
 40
24.0
 40
25.0
 40
25.0
 40
25.0
 40
26.0
 40
26.0
 40
26.0
 40
27.0
 40
27.0
 40
27.0
 40
28.0
 40
28.0
 40
28.0
 40
29.0
 40
29.0
 40
29.0
 40
30.0
 40
30.0
 40
30.0
 40
31.0
 40
31.0
 40
31.0
 40
32.0
 40
32.0
 40
32.0
 40
33.0
 40
33.0
 40
33.0
 40
34.0
 40
34.0
 40
34.0
 40
35.0
 40
35.0
 40
35.0
 40
36.0
 40
36.0
 40
36.0
 40
37.0
 40
37.0
 40
37.0
 40
38.0
 40
38.0
 40
38.0
 40
39.0
 40
39.0
 40
39.0
 40
40.0
 40
40.0
 40
40.0
 40
41.0
 40
41.0
 40
41.0
 40
42.0
 40
42.0
 40
42.0
 40
43.0
 40
43.0
 40
43.0
 40
44.0
 40
44.0
 40
44.0
 40
45.0
 40
45.0
 40
45.0
 40
46.0
 40
46.0
 40
46.0
 40
47.0
 40
47.0
 40
47.0
 40
48.0
 40
48.0
 40
48.0
 40
49.0
 40
49.0
 40
49.0
 40
50.0
 40
50.0
 40
50.0
 40
51.0
 40
51.0
 40
51.0
 40
52.0
 40
52.0
 40
52.0
 40
53.0
 40
53.0
 40
53.0
 40
54.0
 40
54.0
 40
54.0
 40
55.0
 40
55.0
 40
55.0
 40
56.0
 40
56.0
 40
56.0
 40
57.0
 40
57.0
 40
57.0
 40
58.0
 40
58.0
 40
58.0
 40
59.0
 40
59.0
 40
59.0
 40
60.0
 40
60.0
 40
60.0
 40
61.0
 40
61.0
 40
61.0
 40
62.0
 40
62.0
 40
62.0
 40
63.0
 40
63.0
 40
63.0
 40
64.0
 40
64.0
 40
64.0
 40
65.0
 40
65.0
 40
65.0
 40
66.0
 40
66.0
 40
66.0
 40
67.0
 40
67.0
 40
67.0
 40
68.0
 40
68.0
 40
68.0
 40
69.0
 40
69.0
 40
69.0
 40
70.0
 40
70.0
 40
70.0
 40
71.0
 40
71.0
 40
71.0
 40
72.0
 40
72.0
 40
72.0
 40
72.0
 10
8.825708177354601
 20
16.28130761040582
 30
0.0
 10
8.534583197699652
 20
16.71573889838325
 30
0.0
 10
8.147985670301649
 20
17.05058454725478
 30
0.0
 10
7.665722317165798
 20
17.28583607991537
 30
0.0
 10
7.183263990614149
 20
17.52089094373915
 30
0.0
 10
6.595416598849826
 20
17.71821082221138
 30
0.0
 10
5.901819441053602
 20
17.87778045654298
 30
0.0
 10
5.51111094156901
 20
17.96542015923395
 30
0.0
 10
5.210097418891059
 20
18.05903113471138
 30
0.0
 10
4.998944600423177
 20
18.15880835639107
 30
0.0
 10
4.787611219618055
 20
18.25840586344401
 30
0.0
 10
4.68205557929145
 20
18.39984975179037
 30
0.0
 10
4.68205557929145
 20
18.58333584255643
 30
0.0
 10
4.68205557929145
 20
18.75075273301867
 30
0.0
 10
4.755680508083767
 20
18.88229451497396
 30
0.0
 10
4.903291490342881
 20
18.97797475179037
 30
0.0
 10
5.050708346896701
 20
19.07364142523872
 30
0.0
 10
5.260000016954209
 20
19.1214887491862
 30
0.0
 10
5.53111097547743
 20
19.1214887491862
 30
0.0
 10
5.881833394368489
 20
19.1214887491862
 30
0.0
 10
6.158944447835286
 20
19.05365580240886
 30
0.0
 10
6.362236022949219
 20
18.91818318684896
 30
0.0
 10
6.565541585286458
 20
18.78253000895183
 30
0.0
 10
6.750888824462891
 20
18.5394329155816
 30
0.0
 10
6.918305291069878
 20
18.18871134440105
 30
0.0
 10
6.918305291069878
 20
18.18871134440105
 30
0.0
 10
8.71209716796875
 20
18.18871134440105
 30
0.0
 10
8.71209716796875
 20
18.18871134440105
 30
0.0
 10
8.71209716796875
 20
18.18871134440105
 30
0.0
 10
8.71209716796875
 20
20.97505693223742
 30
0.0
 10
8.71209716796875
 20
20.97505693223742
 30
0.0
 10
8.71209716796875
 20
20.97505693223742
 30
0.0
 10
7.03790283203125
 20
20.97505693223742
 30
0.0
 10
7.03790283203125
 20
20.97505693223742
 30
0.0
 10
7.03790283203125
 20
20.97505693223742
 30
0.0
 10
6.738944583468967
 20
20.42495978461372
 30
0.0
 10
6.738944583468967
 20
20.42495978461372
 30
0.0
 10
6.555208418104383
 20
20.62536278618707
 30
0.0
 10
6.344083574083116
 20
20.78361253526476
 30
0.0
 10
6.105791727701822
 20
20.90007100423178
 30
0.0
 10
6.105791727701822
 20
20.90007100423178
 30
0.0
 10
6.105791727701822
 20
20.50114013671876
 30
0.0
 10
6.105791727701822
 20
20.50114013671876
 30
0.0
 10
6.2429445054796
 20
20.41591810438369
 30
0.0
 10
6.367791917588975
 20
20.31187605116103
 30
0.0
 10
6.480944315592447
 20
20.18844601101346
 30
0.0
 10
6.480944315592447
 20
20.18844601101346
 30
0.0
 10
6.812305450439453
 20
19.82701531304254
 30
0.0
 10
6.812305450439453
 20
19.82701531304254
 30
0.0
 10
6.812305450439453
 20
19.82701531304254
 30
0.0
 10
7.246027628580729
 20
20.62505676269532
 30
0.0
 10
7.246027628580729
 20
20.62505676269532
 30
0.0
 10
7.246027628580729
 20
20.62505676269532
 30
0.0
 10
8.362096998426649
 20
20.62505676269532
 30
0.0
 10
8.362096998426649
 20
20.62505676269532
 30
0.0
 10
8.362096998426649
 20
20.62505676269532
 30
0.0
 10
8.362096998426649
 20
18.53870981852214
 30
0.0
 10
8.362096998426649
 20
18.53870981852214
 30
0.0
 10
8.362096998426649
 20
18.53870981852214
 30
0.0
 10
7.131610446506076
 20
18.53870981852214
 30
0.0
 10
7.131610446506076
 20
18.53870981852214
 30
0.0
 10
6.960901896158854
 20
18.84533518473308
 30
0.0
 10
6.771624247233072
 20
19.06577891031901
 30
0.0
 10
6.556499481201172
 20
19.20932088216146
 30
0.0
 10
6.295402103000217
 20
19.38330668131511
 30
0.0
 10
5.950471666124131
 20
19.4714872233073
 30
0.0
 10
5.531110551622178
 20
19.4714872233073
 30
0.0
 10
5.187721676296658
 20
19.4714872233073
 30
0.0
 10
4.92002699110243
 20
19.40608466254341
 30
0.0
 10
4.712749481201172
 20
19.27155639648438
 30
0.0
 10
4.467319064670138
 20
19.11250047471789
 30
0.0
 10
4.332054985894097
 20
18.86804280598959
 30
0.0
 10
4.332054985894097
 20
18.58333414713542
 30
0.0
 10
4.332054985894097
 20
18.39766774495443
 30
0.0
 10
4.399318695068359
 20
18.05447384304471
 30
0.0
 10
4.849735683865017
 20
17.84220882839627
 30
0.0
 10
5.085596720377604
 20
17.73075015597874
 30
0.0
 10
5.40445793999566
 20
17.63069488525391
 30
0.0
 10
5.824263678656684
 20
17.53647186279298
 30
0.0
 10
6.488221910264756
 20
17.38366695827909
 30
0.0
 10
7.056166330973307
 20
17.19348649766711
 30
0.0
 10
7.512429979112413
 20
16.97117950439454
 30
0.0
 10
7.941902160644531
 20
16.76169328477648
 30
0.0
 10
8.276416354709202
 20
16.47226287841798
 30
0.0
 10
8.534957885742188
 20
16.08647152370877
 30
0.0
 10
8.785235934787327
 20
15.71256846110027
 30
0.0
 10
8.912194146050346
 20
15.21279056125218
 30
0.0
 10
8.912194146050346
 20
14.6011250474718
 30
0.0
 10
8.912194146050346
 20
14.07837588840061
 30
0.0
 10
8.802625020345051
 20
13.60136071099176
 30
0.0
 10
8.586541069878471
 20
13.18330549452041
 30
0.0
 10
8.371637980143229
 20
12.76769507514106
 30
0.0
 10
8.073999192979601
 20
12.4494170803494
 30
0.0
 10
7.67663828531901
 20
12.21036102294923
 30
0.0
 10
7.4044435289171
 20
12.04665286593968
 30
0.0
 10
7.099360571967231
 20
11.93811031765409
 30
0.0
 10
6.769888136121962
 20
11.88779191758898
 30
0.0
 10
6.769888136121962
 20
11.88779191758898
 30
0.0
 10
6.5666380988227
 20
11.85675045437284
 30
0.0
 10
6.5666380988227
 20
11.85675045437284
 30
0.0
 10
6.553985171847873
 20
11.85481936984593
 30
0.0
 10
6.541193644205729
 20
11.85384789360895
 30
0.0
 10
6.528388129340278
 20
11.85384789360895
 30
0.0
 10
6.528388129340278
 20
11.85384789360895
 30
0.0
 10
6.043818579779731
 20
11.85384789360895
 30
0.0
 10
6.043818579779731
 20
11.85384789360895
 30
0.0
 10
6.043818579779731
 20
11.85384789360895
 30
0.0
 10
3.784847259521484
 20
11.85384789360895
 30
0.0
 10
3.784847259521484
 20
11.85384789360895
 30
0.0
 10
3.784847259521484
 20
11.85384789360895
 30
0.0
 10
2.508805592854817
 20
11.85384789360895
 30
0.0
 10
2.508805592854817
 20
11.85384789360895
 30
0.0
 10
2.508805592854817
 20
11.85384789360895
 30
0.0
 10
2.508805592854817
 20
14.16741770426433
 30
0.0
 10
2.508805592854817
 20
14.16741770426433
 30
0.0
 10
2.508805592854817
 20
14.16741770426433
 30
0.0
 10
3.807361178927951
 20
14.16741770426433
 30
0.0
 10
3.807361178927951
 20
14.16741770426433
 30
0.0
 10
3.956222110324436
 20
13.87604265001086
 30
0.0
 10
4.163653055826822
 20
13.65740454779731
 30
0.0
 10
4.42620849609375
 20
13.51577924940322
 30
0.0
 10
4.7274169921875
 20
13.35307139078777
 30
0.0
 10
5.095194498697916
 20
13.27051456027561
 30
0.0
 10
5.519180721706814
 20
13.27051456027561
 30
0.0
 10
5.803333706325954
 20
13.27051456027561
 30
0.0
 10
6.055152893066406
 20
13.33245846218534
 30
0.0
 10
6.26763916015625
 20
13.45462541368273
 30
0.0
 10
6.535028245713975
 20
13.60820851643881
 30
0.0
 10
6.682361178927951
 20
13.84552846272787
 30
0.0
 10
6.682361178927951
 20
14.12277896457249
 30
0.0
 10
6.682361178927951
 20
14.43714053683811
 30
0.0
 10
6.533819410536024
 20
14.69727915445964
 30
0.0
 10
6.264124976264106
 20
14.85527882893881
 30
0.0
 10
6.072249942355685
 20
14.96754282633464
 30
0.0
 10
5.819694519042969
 20
15.06522281222874
 30
0.0
 10
5.49187511867947
 20
15.15400183783638
 30
0.0
 10
4.768013848198785
 20
15.35419545491537
 30
0.0
 10
4.167625003390842
 20
15.57141788058811
 30
0.0
 10
3.70750003390842
 20
15.7996130710178
 30
0.0
 10
3.277277840508355
 20
16.01287668863933
 30
0.0
 10
2.940583335028754
 20
16.3097940741645
 30
0.0
 10
2.678097195095486
 20
16.70733469645183
 30
0.0
 10
2.42290284898546
 20
17.0934600490994
 30
0.0
 10
2.293555577596028
 20
17.62398779975044
 30
0.0
 10
2.293555577596028
 20
18.28436275906034
 30
0.0
 10
2.293555577596028
 20
18.78689063178169
 30
0.0
 10
2.401027891370985
 20
19.23187676323785
 30
0.0
 10
2.613000022040473
 20
19.60698781331381
 30
0.0
 10
2.824333402845594
 20
19.98123758951823
 30
0.0
 10
3.120236078898112
 20
20.26479336208768
 30
0.0
 10
3.517666710747613
 20
20.47397355821398
 30
0.0
 10
3.631180657280816
 20
20.53372358534072
 30
0.0
 10
3.751541561550564
 20
20.58483459472657
 30
0.0
 10
3.877986060248481
 20
20.62786268446181
 30
0.0
 10
3.877986060248481
 20
20.62786268446181
 30
0.0
 10
3.877986060248481
 20
20.99569613986546
 30
0.0
 10
3.877986060248481
 20
20.99569613986546
 30
0.0
 10
3.693222045898438
 20
20.940529683431
 30
0.0
 10
3.518666585286458
 20
20.87002983940973
 30
0.0
 10
3.354652828640408
 20
20.78371002197266
 30
0.0
 10
2.900222354465061
 20
20.54454376220704
 30
0.0
 10
2.551375071207682
 20
20.2096964179145
 30
0.0
 10
2.308277977837456
 20
19.77919596354167
 30
0.0
 10
2.064986334906684
 20
19.34868194580079
 30
0.0
 10
1.943528069390191
 20
18.85034854465061
 30
0.0
 10
1.943528069390191
 20
18.28437632242839
 30
0.0
 10
1.943528069390191
 20
17.55079308403863
 30
0.0
 10
2.090958701239692
 20
16.96088999430339
 30
0.0
 10
2.385986328125
 20
16.51450090196398
 30
0.0
 10
2.680847379896376
 20
16.06791683620877
 30
0.0
 10
3.069500181410048
 20
15.72523664686416
 30
0.0
 10
3.551958507961697
 20
15.48607038709853
 30
0.0
 10
4.034222496880425
 20
15.24689056396485
 30
0.0
 10
4.650083753797743
 20
15.0236120944553
 30
0.0
 10
5.399555630154079
 20
14.81638926188152
 30
0.0
 10
5.694402906629774
 20
14.73659766303169
 30
0.0
 10
5.923666636149088
 20
14.64895796034072
 30
0.0
 10
6.087166680230035
 20
14.55330569797093
 30
0.0
 10
6.250486161973741
 20
14.45762461344402
 30
0.0
 10
6.33231947157118
 20
14.31412587483725
 30
0.0
 10
6.33231947157118
 20
14.12279252794055
 30
0.0
 10
6.33231947157118
 20
13.97125071207683
 30
0.0
 10
6.252541859944661
 20
13.8496127319336
 30
0.0
 10
6.093138800726996
 20
13.75805660671659
 30
0.0
 10
5.933569166395399
 20
13.66632076687284
 30
0.0
 10
5.742222256130642
 20
13.62052914089627
 30
0.0
 10
5.519138760036892
 20
13.62052914089627
 30
0.0
 10
5.152347140842013
 20
13.62052914089627
 30
0.0
 10
4.843471950954861
 20
13.68816796196832
 30
0.0
 10
4.592347039116754
 20
13.82383385552301
 30
0.0
 10
4.341222127278646
 20
13.95930647108291
 30
0.0
 10
4.155860900878906
 20
14.19044491238065
 30
0.0
 10
4.036277770996094
 20
14.51743058946398
 30
0.0
 10
4.036277770996094
 20
14.51743058946398
 30
0.0
 10
2.158777872721354
 20
14.51743058946398
 30
0.0
 10
2.158777872721354
 20
14.51743058946398
 30
0.0
 10
2.158777872721354
 20
14.51743058946398
 30
0.0
 10
2.158777872721354
 20
11.50384687635634
 30
0.0
 10
2.158777872721354
 20
11.50384687635634
 30
0.0
 10
2.158777872721354
 20
11.50384687635634
 30
0.0
 10
6.822722117106119
 20
11.50384687635634
 30
0.0
 10
6.822722117106119
 20
11.50384687635634
 30
0.0
 10
6.822722117106119
 20
11.50384687635634
 30
0.0
 10
6.822722117106119
 20
11.54180565728082
 30
0.0
 10
6.822722117106119
 20
11.54180565728082
 30
0.0
 10
7.199194166395399
 20
11.59930586073134
 30
0.0
 10
7.544013977050781
 20
11.72218149820964
 30
0.0
 10
7.85704125298394
 20
11.91044443766277
 30
0.0
 10
8.307360331217447
 20
12.1813744099935
 30
0.0
 10
8.654152764214409
 20
12.55208329942492
 30
0.0
 10
8.897430419921875
 20
13.02258297390409
 30
0.0
 10
9.140527513292101
 20
13.49288937038846
 30
0.0
 10
9.262166341145832
 20
14.01906836615669
 30
0.0
 10
9.262166341145832
 20
14.60111148410374
 30
0.0
 10
9.262194315592447
 20
15.28669565836589
 30
0.0
 10
9.116639031304253
 20
15.84668134901259
 30
0.0
 10
8.825708177354601
 20
16.28130761040582
 30
0.0
  0
SPLINE
  5
54
330
1F
100
AcDbEntity
  8
Layer 1
 62
     7
420
 16777215
370
    35
100
AcDbSpline
210
0.0
220
0.0
230
1.0
 70
    11
 71
     3
 72
   221
 73
   217
 74
     0
 42
0.0000000001
 43
0.0000000001
 12
1.0
 22
0.0
 32
0.0
 13
1.0
 23
0.0
 33
0.0
 40
0.0
 40
0.0
 40
0.0
 40
0.0
 40
1.0
 40
1.0
 40
1.0
 40
2.0
 40
2.0
 40
2.0
 40
3.0
 40
3.0
 40
3.0
 40
4.0
 40
4.0
 40
4.0
 40
5.0
 40
5.0
 40
5.0
 40
6.0
 40
6.0
 40
6.0
 40
7.0
 40
7.0
 40
7.0
 40
8.0
 40
8.0
 40
8.0
 40
9.0
 40
9.0
 40
9.0
 40
10.0
 40
10.0
 40
10.0
 40
11.0
 40
11.0
 40
11.0
 40
12.0
 40
12.0
 40
12.0
 40
13.0
 40
13.0
 40
13.0
 40
14.0
 40
14.0
 40
14.0
 40
15.0
 40
15.0
 40
15.0
 40
16.0
 40
16.0
 40
16.0
 40
17.0
 40
17.0
 40
17.0
 40
18.0
 40
18.0
 40
18.0
 40
19.0
 40
19.0
 40
19.0
 40
20.0
 40
20.0
 40
20.0
 40
21.0
 40
21.0
 40
21.0
 40
22.0
 40
22.0
 40
22.0
 40
23.0
 40
23.0
 40
23.0
 40
24.0
 40
24.0
 40
24.0
 40
25.0
 40
25.0
 40
25.0
 40
26.0
 40
26.0
 40
26.0
 40
27.0
 40
27.0
 40
27.0
 40
28.0
 40
28.0
 40
28.0
 40
29.0
 40
29.0
 40
29.0
 40
30.0
 40
30.0
 40
30.0
 40
31.0
 40
31.0
 40
31.0
 40
32.0
 40
32.0
 40
32.0
 40
33.0
 40
33.0
 40
33.0
 40
34.0
 40
34.0
 40
34.0
 40
35.0
 40
35.0
 40
35.0
 40
36.0
 40
36.0
 40
36.0
 40
37.0
 40
37.0
 40
37.0
 40
38.0
 40
38.0
 40
38.0
 40
39.0
 40
39.0
 40
39.0
 40
40.0
 40
40.0
 40
40.0
 40
41.0
 40
41.0
 40
41.0
 40
42.0
 40
42.0
 40
42.0
 40
43.0
 40
43.0
 40
43.0
 40
44.0
 40
44.0
 40
44.0
 40
45.0
 40
45.0
 40
45.0
 40
46.0
 40
46.0
 40
46.0
 40
47.0
 40
47.0
 40
47.0
 40
48.0
 40
48.0
 40
48.0
 40
49.0
 40
49.0
 40
49.0
 40
50.0
 40
50.0
 40
50.0
 40
51.0
 40
51.0
 40
51.0
 40
52.0
 40
52.0
 40
52.0
 40
53.0
 40
53.0
 40
53.0
 40
54.0
 40
54.0
 40
54.0
 40
55.0
 40
55.0
 40
55.0
 40
56.0
 40
56.0
 40
56.0
 40
57.0
 40
57.0
 40
57.0
 40
58.0
 40
58.0
 40
58.0
 40
59.0
 40
59.0
 40
59.0
 40
60.0
 40
60.0
 40
60.0
 40
61.0
 40
61.0
 40
61.0
 40
62.0
 40
62.0
 40
62.0
 40
63.0
 40
63.0
 40
63.0
 40
64.0
 40
64.0
 40
64.0
 40
65.0
 40
65.0
 40
65.0
 40
66.0
 40
66.0
 40
66.0
 40
67.0
 40
67.0
 40
67.0
 40
68.0
 40
68.0
 40
68.0
 40
69.0
 40
69.0
 40
69.0
 40
70.0
 40
70.0
 40
70.0
 40
71.0
 40
71.0
 40
71.0
 40
72.0
 40
72.0
 40
72.0
 40
72.0
 10
18.10752699110243
 20
16.32026499430339
 30
0.0
 10
17.81640116373698
 20
16.75469628228082
 30
0.0
 10
17.42980448404948
 20
17.08954193115235
 30
0.0
 10
16.94754028320312
 20
17.32479346381294
 30
0.0
 10
16.46508110894097
 20
17.55984832763673
 30
0.0
 10
15.87723456488715
 20
17.75716820610895
 30
0.0
 10
15.18363783094618
 20
17.91673784044054
 30
0.0
 10
14.79292975531684
 20
18.00437754313151
 30
0.0
 10
14.49191623263889
 20
18.09798767089844
 30
0.0
 10
14.28076341417101
 20
18.19776574028863
 30
0.0
 10
14.06943003336588
 20
18.29736324734159
 30
0.0
 10
13.96387481689453
 20
18.43880713568794
 30
0.0
 10
13.96387481689453
 20
18.622293226454
 30
0.0
 10
13.96387481689453
 20
18.78971011691624
 30
0.0
 10
14.0375001695421
 20
18.92125189887154
 30
0.0
 10
14.18511115180121
 20
19.01693213568794
 30
0.0
 10
14.33252800835503
 20
19.11259880913629
 30
0.0
 10
14.54181925455729
 20
19.16044613308377
 30
0.0
 10
14.81293063693576
 20
19.16044613308377
 30
0.0
 10
15.16365220811632
 20
19.16044613308377
 30
0.0
 10
15.44076368543837
 20
19.09261318630643
 30
0.0
 10
15.64405483669705
 20
18.95714057074654
 30
0.0
 10
15.84735955132378
 20
18.8214873928494
 30
0.0
 10
16.03270806206597
 20
18.57839029947917
 30
0.0
 10
16.20012410481771
 20
18.22766872829862
 30
0.0
 10
16.20012410481771
 20
18.22766872829862
 30
0.0
 10
17.99391513400608
 20
18.22766872829862
 30
0.0
 10
17.99391513400608
 20
18.22766872829862
 30
0.0
 10
17.99391513400608
 20
18.22766872829862
 30
0.0
 10
17.99391513400608
 20
21.01401516384549
 30
0.0
 10
17.99391513400608
 20
21.01401516384549
 30
0.0
 10
17.99391513400608
 20
21.01401516384549
 30
0.0
 10
16.31972249348958
 20
21.01401516384549
 30
0.0
 10
16.31972249348958
 20
21.01401516384549
 30
0.0
 10
16.31972249348958
 20
21.01401516384549
 30
0.0
 10
16.02076382107205
 20
20.46391801622179
 30
0.0
 10
16.02076382107205
 20
20.46391801622179
 30
0.0
 10
15.83702765570746
 20
20.66432101779515
 30
0.0
 10
15.62590196397569
 20
20.82257076687284
 30
0.0
 10
15.38761054144965
 20
20.93902923583985
 30
0.0
 10
15.38761054144965
 20
20.93902923583985
 30
0.0
 10
15.38761054144965
 20
20.54009836832683
 30
0.0
 10
15.38761054144965
 20
20.54009836832683
 30
0.0
 10
15.52476331922743
 20
20.45487633599176
 30
0.0
 10
15.64961073133681
 20
20.3508342827691
 30
0.0
 10
15.76276312934028
 20
20.22740424262154
 30
0.0
 10
15.76276312934028
 20
20.22740424262154
 30
0.0
 10
16.09412468804253
 20
19.86597354465061
 30
0.0
 10
16.09412468804253
 20
19.86597354465061
 30
0.0
 10
16.09412468804253
 20
19.86597354465061
 30
0.0
 10
16.52784729003906
 20
20.66401499430339
 30
0.0
 10
16.52784729003906
 20
20.66401499430339
 30
0.0
 10
16.52784729003906
 20
20.66401499430339
 30
0.0
 10
17.64391750759549
 20
20.66401499430339
 30
0.0
 10
17.64391750759549
 20
20.66401499430339
 30
0.0
 10
17.64391750759549
 20
20.66401499430339
 30
0.0
 10
17.64391750759549
 20
18.57766805013021
 30
0.0
 10
17.64391750759549
 20
18.57766805013021
 30
0.0
 10
17.64391750759549
 20
18.57766805013021
 30
0.0
 10
16.41343180338541
 20
18.57766805013021
 30
0.0
 10
16.41343180338541
 20
18.57766805013021
 30
0.0
 10
16.24272325303819
 20
18.88429341634115
 30
0.0
 10
16.05344645182291
 20
19.10473714192709
 30
0.0
 10
15.83832126193576
 20
19.24827911376954
 30
0.0
 10
15.57722473144531
 20
19.42226491292318
 30
0.0
 10
15.23229302300347
 20
19.51044545491537
 30
0.0
 10
14.81293233235677
 20
19.51044545491537
 30
0.0
 10
14.46954345703125
 20
19.51044545491537
 30
0.0
 10
14.20184919569227
 20
19.44504289415148
 30
0.0
 10
13.99457126193576
 20
19.31051462809245
 30
0.0
 10
13.74914042154948
 20
19.15145870632596
 30
0.0
 10
13.61387719048394
 20
18.90700103759766
 30
0.0
 10
13.61387719048394
 20
18.6222923787435
 30
0.0
 10
13.61387719048394
 20
18.43662597656251
 30
0.0
 10
13.68114132351345
 20
18.09343122694228
 30
0.0
 10
14.13155788845486
 20
17.88116790771485
 30
0.0
 10
14.36741977267795
 20
17.76970923529732
 30
0.0
 10
14.686279296875
 20
17.66965396457249
 30
0.0
 10
15.10608588324653
 20
17.57543263753256
 30
0.0
 10
15.7700449625651
 20
17.42262773301867
 30
0.0
 10
16.3379889594184
 20
17.23244727240669
 30
0.0
 10
16.79425218370226
 20
17.01014027913412
 30
0.0
 10
17.22372436523438
 20
16.80065405951607
 30
0.0
 10
17.55823771158854
 20
16.51122365315756
 30
0.0
 10
17.81677924262153
 20
16.12543229844836
 30
0.0
 10
18.06705729166666
 20
15.75152923583985
 30
0.0
 10
18.19401550292969
 20
15.25175133599176
 30
0.0
 10
18.19401550292969
 20
14.64008582221138
 30
0.0
 10
18.19401550292969
 20
14.1173366631402
 30
0.0
 10
18.08444552951389
 20
13.64032148573134
 30
0.0
 10
17.86836242675781
 20
13.22226626925999
 30
0.0
 10
17.65345933702257
 20
12.80665584988065
 30
0.0
 10
17.35582139756944
 20
12.48837785508898
 30
0.0
 10
16.95845879448785
 20
12.24932179768881
 30
0.0
 10
16.68626403808594
 20
12.08561364067926
 30
0.0
 10
16.38118150499132
 20
11.97707109239367
 30
0.0
 10
16.0517086452908
 20
11.92675269232856
 30
0.0
 10
16.0517086452908
 20
11.92675269232856
 30
0.0
 10
15.84845818413628
 20
11.89571122911242
 30
0.0
 10
15.84845818413628
 20
11.89571122911242
 30
0.0
 10
15.83580525716146
 20
11.89378014458551
 30
0.0
 10
15.82301330566406
 20
11.89280866834853
 30
0.0
 10
15.81020779079861
 20
11.89280866834853
 30
0.0
 10
15.81020779079861
 20
11.89280866834853
 30
0.0
 10
15.32563781738281
 20
11.89280866834853
 30
0.0
 10
15.32563781738281
 20
11.89280866834853
 30
0.0
 10
15.32563781738281
 20
11.89280866834853
 30
0.0
 10
13.06668090820312
 20
11.89280866834853
 30
0.0
 10
13.06668090820312
 20
11.89280866834853
 30
0.0
 10
13.06668090820312
 20
11.89280866834853
 30
0.0
 10
11.79063924153646
 20
11.89280866834853
 30
0.0
 10
11.79063924153646
 20
11.89280866834853
 30
0.0
 10
11.79063924153646
 20
11.89280866834853
 30
0.0
 10
11.79063924153646
 20
14.20637847900391
 30
0.0
 10
11.79063924153646
 20
14.20637847900391
 30
0.0
 10
11.79063924153646
 20
14.20637847900391
 30
0.0
 10
13.08919440375434
 20
14.20637847900391
 30
0.0
 10
13.08919440375434
 20
14.20637847900391
 30
0.0
 10
13.23805575900608
 20
13.91500342475044
 30
0.0
 10
13.44548628065321
 20
13.6963653225369
 30
0.0
 10
13.70804172092014
 20
13.5547400241428
 30
0.0
 10
14.00925021701389
 20
13.39203216552735
 30
0.0
 10
14.37702772352431
 20
13.3094753350152
 30
0.0
 10
14.80101352267795
 20
13.3094753350152
 30
0.0
 10
15.08516608344184
 20
13.3094753350152
 30
0.0
 10
15.33698527018229
 20
13.37141923692492
 30
0.0
 10
15.54947238498264
 20
13.49358618842231
 30
0.0
 10
15.81686062282986
 20
13.64716929117839
 30
0.0
 10
15.96419440375434
 20
13.88448923746745
 30
0.0
 10
15.96419440375434
 20
14.16173973931207
 30
0.0
 10
15.96419440375434
 20
14.4761013115777
 30
0.0
 10
15.81565348307292
 20
14.73623992919923
 30
0.0
 10
15.54595777723524
 20
14.89423960367839
 30
0.0
 10
15.35408359103733
 20
15.00650360107423
 30
0.0
 10
15.10152689615885
 20
15.10418358696832
 30
0.0
 10
14.7737070719401
 20
15.19296261257596
 30
0.0
 10
14.04984622531467
 20
15.39315622965495
 30
0.0
 10
13.44945695665147
 20
15.6103786553277
 30
0.0
 10
12.98933241102431
 20
15.83857384575738
 30
0.0
 10
12.55911000569661
 20
16.05183746337891
 30
0.0
 10
12.22241550021701
 20
16.34875484890409
 30
0.0
 10
11.95992957221137
 20
16.74629547119141
 30
0.0
 10
11.70473480224609
 20
17.13242082383898
 30
0.0
 10
11.57538774278429
 20
17.66294857449002
 30
0.0
 10
11.57538774278429
 20
18.32332353379992
 30
0.0
 10
11.57538774278429
 20
18.82585140652127
 30
0.0
 10
11.68285963270399
 20
19.27083753797744
 30
0.0
 10
11.89483218722873
 20
19.64594858805339
 30
0.0
 10
12.10616556803385
 20
20.02019836425782
 30
0.0
 10
12.40206824408637
 20
20.30375413682726
 30
0.0
 10
12.79949866400825
 20
20.51293433295357
 30
0.0
 10
12.9130121866862
 20
20.5726843600803
 30
0.0
 10
13.0333735148112
 20
20.62379536946615
 30
0.0
 10
13.15981801350911
 20
20.6668234592014
 30
0.0
 10
13.15981801350911
 20
20.6668234592014
 30
0.0
 10
13.15981801350911
 20
21.03465691460504
 30
0.0
 10
13.15981801350911
 20
21.03465691460504
 30
0.0
 10
12.97505442301432
 20
20.97949045817058
 30
0.0
 10
12.80049896240234
 20
20.90899061414931
 30
0.0
 10
12.63648478190104
 20
20.82267079671225
 30
0.0
 10
12.18205430772569
 20
20.58350453694662
 30
0.0
 10
11.83320702446832
 20
20.24865719265409
 30
0.0
 10
11.59010993109809
 20
19.81815673828126
 30
0.0
 10
11.34681786431207
 20
19.38764272054037
 30
0.0
 10
11.22535959879557
 20
18.8893093193902
 30
0.0
 10
11.22535959879557
 20
18.32333709716798
 30
0.0
 10
11.22535959879557
 20
17.58975385877822
 30
0.0
 10
11.37279001871745
 20
16.99985076904298
 30
0.0
 10
11.66781785753038
 20
16.55346167670357
 30
0.0
 10
11.96267869737413
 20
16.10687761094836
 30
0.0
 10
12.35133192274306
 20
15.76419742160374
 30
0.0
 10
12.8337902492947
 20
15.52503116183811
 30
0.0
 10
13.31605445014106
 20
15.28585133870443
 30
0.0
 10
13.93191528320312
 20
15.06257286919488
 30
0.0
 10
14.68138800726996
 20
14.8553500366211
 30
0.0
 10
14.97623528374566
 20
14.77555843777127
 30
0.0
 10
15.20549858940972
 20
14.6879187350803
 30
0.0
 10
15.36899990505642
 20
14.59226647271051
 30
0.0
 10
15.53231981065538
 20
14.4965853881836
 30
0.0
 10
15.61415269639757
 20
14.35308664957683
 30
0.0
 10
15.61415269639757
 20
14.16175330268013
 30
0.0
 10
15.61415269639757
 20
14.01021148681641
 30
0.0
 10
15.5343746609158
 20
13.88857350667318
 30
0.0
 10
15.37497287326389
 20
13.79701738145617
 30
0.0
 10
15.21540323893229
 20
13.70528154161242
 30
0.0
 10
15.02405632866753
 20
13.65948991563586
 30
0.0
 10
14.80097283257378
 20
13.65948991563586
 30
0.0
 10
14.4341803656684
 20
13.65948991563586
 30
0.0
 10
14.12530602349175
 20
13.72712873670791
 30
0.0
 10
13.87418111165364
 20
13.86279463026259
 30
0.0
 10
13.62305619981554
 20
13.99826724582249
 30
0.0
 10
13.4376949734158
 20
14.22940568712023
 30
0.0
 10
13.31811184353299
 20
14.55639136420356
 30
0.0
 10
13.31811184353299
 20
14.55639136420356
 30
0.0
 10
11.44061194525825
 20
14.55639136420356
 30
0.0
 10
11.44061194525825
 20
14.55639136420356
 30
0.0
 10
11.44061194525825
 20
14.55639136420356
 30
0.0
 10
11.44061194525825
 20
11.54280765109593
 30
0.0
 10
11.44061194525825
 20
11.54280765109593
 30
0.0
 10
11.44061194525825
 20
11.54280765109593
 30
0.0
 10
16.10455661349826
 20
11.54280765109593
 30
0.0
 10
16.10455661349826
 20
11.54280765109593
 30
0.0
 10
16.10455661349826
 20
11.54280765109593
 30
0.0
 10
16.10455661349826
 20
11.58076643202041
 30
0.0
 10
16.10455661349826
 20
11.58076643202041
 30
0.0
 10
16.48102823893229
 20
11.63826663547093
 30
0.0
 10
16.82584804958767
 20
11.76114227294923
 30
0.0
 10
17.13887532552083
 20
11.94940521240235
 30
0.0
 10
17.58919440375434
 20
12.22033518473308
 30
0.0
 10
17.9359859890408
 20
12.5910440741645
 30
0.0
 10
18.17926364474826
 20
13.06154374864367
 30
0.0
 10
18.42236158582899
 20
13.53185014512805
 30
0.0
 10
18.54399956597222
 20
14.05802914089627
 30
0.0
 10
18.54399956597222
 20
14.64007225884332
 30
0.0
 10
18.54401312934028
 20
15.32565473768447
 30
0.0
 10
18.39847140842014
 20
15.88564042833117
 30
0.0
 10
18.10752699110243
 20
16.32026499430339
 30
0.0
  0
ENDSEC
  0
SECTION
  2
OBJECTS
  0
DICTIONARY
  5
C
330
0
100
AcDbDictionary
281
     1
  3
ACAD_GROUP
350
D
  3
ACAD_LAYOUT
350
1A
  3
ACAD_MATERIAL
350
3B
  3
ACAD_MLEADERSTYLE
350
56
  3
ACAD_MLINESTYLE
350
17
  3
ACAD_PLOTSETTINGS
350
19
  3
ACAD_PLOTSTYLENAME
350
E
  3
ACAD_TABLESTYLE
350
55
  3
ACAD_VISUALSTYLE
350
2A
  0
SUN
  5
3F
330
29
100
AcDbSun
 90
        1
290
     0
 63
     7
421
 16777215
 40
1.0
291
     1
 91
  2455826
 92
 54000000
292
     0
 70
     2
 71
   256
280
     1
  0
DICTIONARY
  5
D
102
{ACAD_REACTORS
330
C
102
}
330
C
100
AcDbDictionary
281
     1
  0
DICTIONARY
  5
1A
102
{ACAD_REACTORS
330
C
102
}
330
C
100
AcDbDictionary
281
     1
  3
Layout1
350
1E
  3
Layout2
350
26
  3
Model
350
22
  0
DICTIONARY
  5
3B
102
{ACAD_REACTORS
330
C
102
}
330
C
100
AcDbDictionary
281
     1
  3
ByBlock
350
3D
  3
ByLayer
350
3C
  3
Global
350
3E
  0
DICTIONARY
  5
56
102
{ACAD_REACTORS
330
C
102
}
330
C
100
AcDbDictionary
281
     1
  0
DICTIONARY
  5
17
102
{ACAD_REACTORS
330
C
102
}
330
C
100
AcDbDictionary
281
     1
  3
Standard
350
18
  0
DICTIONARY
  5
19
102
{ACAD_REACTORS
330
C
102
}
330
C
100
AcDbDictionary
281
     1
  0
ACDBDICTIONARYWDFLT
  5
E
102
{ACAD_REACTORS
330
C
102
}
330
C
100
AcDbDictionary
281
     1
  3
Normal
350
F
100
AcDbDictionaryWithDefault
340
F
  0
DICTIONARY
  5
55
102
{ACAD_REACTORS
330
C
102
}
330
C
100
AcDbDictionary
281
     1
  0
DICTIONARY
  5
2A
102
{ACAD_REACTORS
330
C
102
}
330
C
100
AcDbDictionary
281
     1
  3
2dWireframe
350
2F
  3
3D Hidden
350
31
  3
3dWireframe
350
30
  3
Basic
350
32
  3
Brighten
350
36
  3
ColorChange
350
3A
  3
Conceptual
350
34
  3
Dim
350
35
  3
Facepattern
350
39
  3
Flat
350
2B
  3
FlatWithEdges
350
2C
  3
Gouraud
350
2D
  3
GouraudWithEdges
350
2E
  3
Linepattern
350
38
  3
Realistic
350
33
  3
Thicken
350
37
  0
LAYOUT
  5
1E
102
{ACAD_REACTORS
330
1A
102
}
330
1A
100
AcDbPlotSettings
  1

  2
none_device
  4

  6

 40
0.0
 41
0.0
 42
0.0
 43
0.0
 44
0.0
 45
0.0
 46
0.0
 47
0.0
 48
0.0
 49
0.0
140
0.0
141
0.0
142
1.0
143
1.0
 70
   688
 72
     0
 73
     0
 74
     5
  7

 75
    16
 76
     0
 77
     2
 78
   300
147
1.0
148
0.0
149
0.0
100
AcDbLayout
  1
Layout1
 70
     1
 71
     1
 10
0.0
 20
0.0
 11
12.0
 21
9.0
 12
0.0
 22
0.0
 32
0.0
 14
1.000000000000000E+20
 24
1.000000000000000E+20
 34
1.000000000000000E+20
 15
-1.000000000000000E+20
 25
-1.000000000000000E+20
 35
-1.000000000000000E+20
146
0.0
 13
0.0
 23
0.0
 33
0.0
 16
1.0
 26
0.0
 36
0.0
 17
0.0
 27
1.0
 37
0.0
 76
     0
330
1B
  0
LAYOUT
  5
26
102
{ACAD_REACTORS
330
1A
102
}
330
1A
100
AcDbPlotSettings
  1

  2
none_device
  4

  6

 40
0.0
 41
0.0
 42
0.0
 43
0.0
 44
0.0
 45
0.0
 46
0.0
 47
0.0
 48
0.0
 49
0.0
140
0.0
141
0.0
142
1.0
143
1.0
 70
   688
 72
     0
 73
     0
 74
     5
  7

 75
    16
 76
     0
 77
     2
 78
   300
147
1.0
148
0.0
149
0.0
100
AcDbLayout
  1
Layout2
 70
     1
 71
     2
 10
0.0
 20
0.0
 11
0.0
 21
0.0
 12
0.0
 22
0.0
 32
0.0
 14
0.0
 24
0.0
 34
0.0
 15
0.0
 25
0.0
 35
0.0
146
0.0
 13
0.0
 23
0.0
 33
0.0
 16
1.0
 26
0.0
 36
0.0
 17
0.0
 27
1.0
 37
0.0
 76
     0
330
23
  0
LAYOUT
  5
22
102
{ACAD_REACTORS
330
1A
102
}
330
1A
100
AcDbPlotSettings
  1

  2
none_device
  4

  6

 40
0.0
 41
0.0
 42
0.0
 43
0.0
 44
0.0
 45
0.0
 46
0.0
 47
0.0
 48
0.0
 49
0.0
140
0.0
141
0.0
142
1.0
143
1.0
 70
  1712
 72
     0
 73
     0
 74
     0
  7

 75
     0
 76
     0
 77
     2
 78
   300
147
1.0
148
0.0
149
0.0
100
AcDbLayout
  1
Model
 70
     1
 71
     0
 10
0.0
 20
0.0
 11
12.0
 21
9.0
 12
0.0
 22
0.0
 32
0.0
 14
1.000000000000000E+20
 24
1.000000000000000E+20
 34
1.000000000000000E+20
 15
-1.000000000000000E+20
 25
-1.000000000000000E+20
 35
-1.000000000000000E+20
146
0.0
 13
0.0
 23
0.0
 33
0.0
 16
1.0
 26
0.0
 36
0.0
 17
0.0
 27
1.0
 37
0.0
 76
     0
330
1F
331
29
  0
MATERIAL
  5
3D
102
{ACAD_REACTORS
330
3B
102
}
330
3B
100
AcDbMaterial
  1
ByBlock
 72
     1
 94
      127
  0
MATERIAL
  5
3C
102
{ACAD_REACTORS
330
3B
102
}
330
3B
100
AcDbMaterial
  1
ByLayer
 72
     1
 94
      127
  0
MATERIAL
  5
3E
102
{ACAD_REACTORS
330
3B
102
}
330
3B
100
AcDbMaterial
  1
Global
 72
     1
 94
      127
  0
MLINESTYLE
  5
18
102
{ACAD_REACTORS
330
17
102
}
330
17
100
AcDbMlineStyle
  2
Standard
 70
     0
  3

 62
   256
 51
90.0
 52
90.0
 71
     2
 49
0.5
 62
   256
  6
BYLAYER
 49
-0.5
 62
   256
  6
BYLAYER
  0
ACDBPLACEHOLDER
  5
F
102
{ACAD_REACTORS
330
E
102
}
330
E
  0
VISUALSTYLE
  5
2F
102
{ACAD_REACTORS
330
2A
102
}
330
2A
100
AcDbVisualStyle
  2
2dWireframe
 70
     4
177
     2
291
     0
 71
     0
176
     1
 72
     2
176
     1
 73
     0
176
     1
 90
        0
176
     1
 40
-0.6
176
     1
 41
-30.0
176
     1
 62
     5
 63
     7
421
 16777215
176
     1
 74
     1
176
     1
 91
        4
176
     1
 64
     7
176
     1
 65
   257
176
     1
 75
     1
176
     1
175
     1
176
     1
 42
1.0
176
     1
 92
        0
176
     1
 66
   257
176
     1
 43
1.0
176
     1
 76
     1
176
     1
 77
     6
176
     1
 78
     2
176
     1
 67
     7
176
     1
 79
     5
176
     1
170
     0
176
     1
171
     0
176
     1
290
     0
176
     1
 93
        1
176
     1
 44
0.0
176
     1
173
     0
176
     1
  0
VISUALSTYLE
  5
31
102
{ACAD_REACTORS
330
2A
102
}
330
2A
100
AcDbVisualStyle
  2
3D Hidden
 70
     6
177
     2
291
     0
 71
     1
176
     1
 72
     2
176
     1
 73
     2
176
     1
 90
        0
176
     1
 40
-0.6
176
     1
 41
-30.0
176
     1
 62
     5
 63
     7
421
 16777215
176
     1
 74
     2
176
     1
 91
        2
176
     1
 64
     7
176
     1
 65
   257
176
     1
 75
     2
176
     1
175
     1
176
     1
 42
40.0
176
     1
 92
        0
176
     1
 66
   257
176
     1
 43
1.0
176
     1
 76
     1
176
     1
 77
     6
176
     1
 78
     2
176
     1
 67
     7
176
     1
 79
     3
176
     1
170
     0
176
     1
171
     0
176
     1
290
     0
176
     1
 93
        1
176
     1
 44
0.0
176
     1
173
     0
176
     1
  0
VISUALSTYLE
  5
30
102
{ACAD_REACTORS
330
2A
102
}
330
2A
100
AcDbVisualStyle
  2
3dWireframe
 70
     5
177
     2
291
     0
 71
     0
176
     1
 72
     2
176
     1
 73
     0
176
     1
 90
        0
176
     1
 40
-0.6
176
     1
 41
-30.0
176
     1
 62
     5
 63
     7
421
 16777215
176
     1
 74
     1
176
     1
 91
        4
176
     1
 64
     7
176
     1
 65
   257
176
     1
 75
     1
176
     1
175
     1
176
     1
 42
1.0
176
     1
 92
        0
176
     1
 66
   257
176
     1
 43
1.0
176
     1
 76
     1
176
     1
 77
     6
176
     1
 78
     2
176
     1
 67
     7
176
     1
 79
     5
176
     1
170
     0
176
     1
171
     0
176
     1
290
     0
176
     1
 93
        1
176
     1
 44
0.0
176
     1
173
     0
176
     1
  0
VISUALSTYLE
  5
32
102
{ACAD_REACTORS
330
2A
102
}
330
2A
100
AcDbVisualStyle
  2
Basic
 70
     7
177
     2
291
     1
 71
     1
176
     1
 72
     0
176
     1
 73
     1
176
     1
 90
        0
176
     1
 40
-0.6
176
     1
 41
-30.0
176
     1
 62
     5
 63
     7
421
 16777215
176
     1
 74
     0
176
     1
 91
        4
176
     1
 64
     7
176
     1
 65
   257
176
     1
 75
     1
176
     1
175
     1
176
     1
 42
1.0
176
     1
 92
        8
176
     1
 66
     7
176
     1
 43
1.0
176
     1
 76
     1
176
     1
 77
     6
176
     1
 78
     2
176
     1
 67
     7
176
     1
 79
     5
176
     1
170
     0
176
     1
171
     0
176
     1
290
     0
176
     1
 93
        1
176
     1
 44
0.0
176
     1
173
     0
176
     1
  0
VISUALSTYLE
  5
36
102
{ACAD_REACTORS
330
2A
102
}
330
2A
100
AcDbVisualStyle
  2
Brighten
 70
    12
177
     2
291
     1
 71
     2
176
     1
 72
     2
176
     1
 73
     0
176
     1
 90
        0
176
     1
 40
-0.6
176
     1
 41
-30.0
176
     1
 62
     5
 63
     7
421
 16777215
176
     1
 74
     1
176
     1
 91
        4
176
     1
 64
     7
176
     1
 65
   257
176
     1
 75
     1
176
     1
175
     1
176
     1
 42
1.0
176
     1
 92
        8
176
     1
 66
     7
176
     1
 43
1.0
176
     1
 76
     1
176
     1
 77
     6
176
     1
 78
     2
176
     1
 67
     7
176
     1
 79
     5
176
     1
170
     0
176
     1
171
     0
176
     1
290
     0
176
     1
 93
        1
176
     1
 44
50.0
176
     1
173
     0
176
     1
  0
VISUALSTYLE
  5
3A
102
{ACAD_REACTORS
330
2A
102
}
330
2A
100
AcDbVisualStyle
  2
ColorChange
 70
    16
177
     2
291
     1
 71
     2
176
     1
 72
     2
176
     1
 73
     3
176
     1
 90
        0
176
     1
 40
-0.6
176
     1
 41
-30.0
176
     1
 62
     5
 63
     8
421
  8421504
176
     1
 74
     1
176
     1
 91
        4
176
     1
 64
     7
176
     1
 65
   257
176
     1
 75
     1
176
     1
175
     1
176
     1
 42
1.0
176
     1
 92
        8
176
     1
 66
     8
424
  8421504
176
     1
 43
1.0
176
     1
 76
     1
176
     1
 77
     6
176
     1
 78
     2
176
     1
 67
     7
176
     1
 79
     5
176
     1
170
     0
176
     1
171
     0
176
     1
290
     0
176
     1
 93
        1
176
     1
 44
0.0
176
     1
173
     0
176
     1
  0
VISUALSTYLE
  5
34
102
{ACAD_REACTORS
330
2A
102
}
330
2A
100
AcDbVisualStyle
  2
Conceptual
 70
     9
177
     2
291
     0
 71
     3
176
     1
 72
     2
176
     1
 73
     0
176
     1
 90
        0
176
     1
 40
-0.6
176
     1
 41
-30.0
176
     1
 62
     5
 63
     7
421
 16777215
176
     1
 74
     2
176
     1
 91
        2
176
     1
 64
     7
176
     1
 65
   257
176
     1
 75
     1
176
     1
175
     1
176
     1
 42
40.0
176
     1
 92
        8
176
     1
 66
     7
176
     1
 43
1.0
176
     1
 76
     1
176
     1
 77
     6
176
     1
 78
     2
176
     1
 67
     7
176
     1
 79
     3
176
     1
170
     0
176
     1
171
     0
176
     1
290
     0
176
     1
 93
        1
176
     1
 44
0.0
176
     1
173
     0
176
     1
  0
VISUALSTYLE
  5
35
102
{ACAD_REACTORS
330
2A
102
}
330
2A
100
AcDbVisualStyle
  2
Dim
 70
    11
177
     2
291
     1
 71
     2
176
     1
 72
     2
176
     1
 73
     0
176
     1
 90
        0
176
     1
 40
-0.6
176
     1
 41
-30.0
176
     1
 62
     5
 63
     7
421
 16777215
176
     1
 74
     1
176
     1
 91
        4
176
     1
 64
     7
176
     1
 65
   257
176
     1
 75
     1
176
     1
175
     1
176
     1
 42
1.0
176
     1
 92
        8
176
     1
 66
     7
176
     1
 43
1.0
176
     1
 76
     1
176
     1
 77
     6
176
     1
 78
     2
176
     1
 67
     7
176
     1
 79
     5
176
     1
170
     0
176
     1
171
     0
176
     1
290
     0
176
     1
 93
        1
176
     1
 44
-50.0
176
     1
173
     0
176
     1
  0
VISUALSTYLE
  5
39
102
{ACAD_REACTORS
330
2A
102
}
330
2A
100
AcDbVisualStyle
  2
Facepattern
 70
    15
177
     2
291
     1
 71
     2
176
     1
 72
     2
176
     1
 73
     0
176
     1
 90
        0
176
     1
 40
-0.6
176
     1
 41
-30.0
176
     1
 62
     5
 63
     7
421
 16777215
176
     1
 74
     1
176
     1
 91
        4
176
     1
 64
     7
176
     1
 65
   257
176
     1
 75
     1
176
     1
175
     1
176
     1
 42
1.0
176
     1
 92
        8
176
     1
 66
     7
176
     1
 43
1.0
176
     1
 76
     1
176
     1
 77
     6
176
     1
 78
     2
176
     1
 67
     7
176
     1
 79
     5
176
     1
170
     0
176
     1
171
     0
176
     1
290
     0
176
     1
 93
        1
176
     1
 44
0.0
176
     1
173
     0
176
     1
  0
VISUALSTYLE
  5
2B
102
{ACAD_REACTORS
330
2A
102
}
330
2A
100
AcDbVisualStyle
  2
Flat
 70
     0
177
     2
291
     1
 71
     2
176
     1
 72
     1
176
     1
 73
     1
176
     1
 90
        2
176
     1
 40
-0.6
176
     1
 41
30.0
176
     1
 62
     5
 63
     7
421
 16777215
176
     1
 74
     0
176
     1
 91
        4
176
     1
 64
     7
176
     1
 65
   257
176
     1
 75
     1
176
     1
175
     1
176
     1
 42
1.0
176
     1
 92
        8
176
     1
 66
     7
176
     1
 43
1.0
176
     1
 76
     1
176
     1
 77
     6
176
     1
 78
     2
176
     1
 67
     7
176
     1
 79
     5
176
     1
170
     0
176
     1
171
     0
176
     1
290
     0
176
     1
 93
       13
176
     1
 44
0.0
176
     1
173
     0
176
     1
  0
VISUALSTYLE
  5
2C
102
{ACAD_REACTORS
330
2A
102
}
330
2A
100
AcDbVisualStyle
  2
FlatWithEdges
 70
     1
177
     2
291
     1
 71
     2
176
     1
 72
     1
176
     1
 73
     1
176
     1
 90
        2
176
     1
 40
-0.6
176
     1
 41
30.0
176
     1
 62
     5
 63
     7
421
 16777215
176
     1
 74
     1
176
     1
 91
        4
176
     1
 64
     7
176
     1
 65
   257
176
     1
 75
     1
176
     1
175
     1
176
     1
 42
1.0
176
     1
 92
        0
176
     1
 66
   257
176
     1
 43
1.0
176
     1
 76
     1
176
     1
 77
     6
176
     1
 78
     2
176
     1
 67
     7
176
     1
 79
     5
176
     1
170
     0
176
     1
171
     0
176
     1
290
     0
176
     1
 93
       13
176
     1
 44
0.0
176
     1
173
     0
176
     1
  0
VISUALSTYLE
  5
2D
102
{ACAD_REACTORS
330
2A
102
}
330
2A
100
AcDbVisualStyle
  2
Gouraud
 70
     2
177
     2
291
     1
 71
     2
176
     1
 72
     2
176
     1
 73
     1
176
     1
 90
        2
176
     1
 40
-0.6
176
     1
 41
30.0
176
     1
 62
     5
 63
     7
421
 16777215
176
     1
 74
     0
176
     1
 91
        4
176
     1
 64
     7
176
     1
 65
   257
176
     1
 75
     1
176
     1
175
     1
176
     1
 42
1.0
176
     1
 92
        0
176
     1
 66
     7
176
     1
 43
1.0
176
     1
 76
     1
176
     1
 77
     6
176
     1
 78
     2
176
     1
 67
     7
176
     1
 79
     5
176
     1
170
     0
176
     1
171
     0
176
     1
290
     0
176
     1
 93
       13
176
     1
 44
0.0
176
     1
173
     0
176
     1
  0
VISUALSTYLE
  5
2E
102
{ACAD_REACTORS
330
2A
102
}
330
2A
100
AcDbVisualStyle
  2
GouraudWithEdges
 70
     3
177
     2
291
     1
 71
     2
176
     1
 72
     2
176
     1
 73
     1
176
     1
 90
        2
176
     1
 40
-0.6
176
     1
 41
30.0
176
     1
 62
     5
 63
     7
421
 16777215
176
     1
 74
     1
176
     1
 91
        4
176
     1
 64
     7
176
     1
 65
   257
176
     1
 75
     1
176
     1
175
     1
176
     1
 42
1.0
176
     1
 92
        0
176
     1
 66
   257
176
     1
 43
1.0
176
     1
 76
     1
176
     1
 77
     6
176
     1
 78
     2
176
     1
 67
     7
176
     1
 79
     5
176
     1
170
     0
176
     1
171
     0
176
     1
290
     0
176
     1
 93
       13
176
     1
 44
0.0
176
     1
173
     0
176
     1
  0
VISUALSTYLE
  5
38
102
{ACAD_REACTORS
330
2A
102
}
330
2A
100
AcDbVisualStyle
  2
Linepattern
 70
    14
177
     2
291
     1
 71
     2
176
     1
 72
     2
176
     1
 73
     0
176
     1
 90
        0
176
     1
 40
-0.6
176
     1
 41
-30.0
176
     1
 62
     5
 63
     7
421
 16777215
176
     1
 74
     1
176
     1
 91
        4
176
     1
 64
     7
176
     1
 65
   257
176
     1
 75
     7
176
     1
175
     7
176
     1
 42
1.0
176
     1
 92
        8
176
     1
 66
     7
176
     1
 43
1.0
176
     1
 76
     1
176
     1
 77
     6
176
     1
 78
     2
176
     1
 67
     7
176
     1
 79
     5
176
     1
170
     0
176
     1
171
     0
176
     1
290
     0
176
     1
 93
        1
176
     1
 44
0.0
176
     1
173
     0
176
     1
  0
VISUALSTYLE
  5
33
102
{ACAD_REACTORS
330
2A
102
}
330
2A
100
AcDbVisualStyle
  2
Realistic
 70
     8
177
     2
291
     0
 71
     2
176
     1
 72
     2
176
     1
 73
     0
176
     1
 90
        0
176
     1
 40
-0.6
176
     1
 41
-30.0
176
     1
 62
     5
 63
     7
421
 16777215
176
     1
 74
     1
176
     1
 91
        0
176
     1
 64
     7
176
     1
 65
   257
176
     1
 75
     1
176
     1
175
     1
176
     1
 42
1.0
176
     1
 92
        8
176
     1
 66
     8
424
  7895160
176
     1
 43
1.0
176
     1
 76
     1
176
     1
 77
     6
176
     1
 78
     2
176
     1
 67
     7
176
     1
 79
     5
176
     1
170
     0
176
     1
171
     0
176
     1
290
     0
176
     1
 93
       13
176
     1
 44
0.0
176
     1
173
     0
176
     1
  0
VISUALSTYLE
  5
37
102
{ACAD_REACTORS
330
2A
102
}
330
2A
100
AcDbVisualStyle
  2
Thicken
 70
    13
177
     2
291
     1
 71
     2
176
     1
 72
     2
176
     1
 73
     0
176
     1
 90
        0
176
     1
 40
-0.6
176
     1
 41
-30.0
176
     1
 62
     5
 63
     7
421
 16777215
176
     1
 74
     1
176
     1
 91
        4
176
     1
 64
     7
176
     1
 65
   257
176
     1
 75
     1
176
     1
175
     1
176
     1
 42
1.0
176
     1
 92
       12
176
     1
 66
     7
176
     1
 43
1.0
176
     1
 76
     1
176
     1
 77
     6
176
     1
 78
     2
176
     1
 67
     7
176
     1
 79
     5
176
     1
170
     0
176
     1
171
     0
176
     1
290
     0
176
     1
 93
        1
176
     1
 44
0.0
176
     1
173
     0
176
     1
  0
ENDSEC
  0
EOF
